<?xml version="1.0" encoding="utf-8" standalone="no"?>
<!DOCTYPE svg PUBLIC "-//W3C//DTD SVG 1.1//EN"
  "http://www.w3.org/Graphics/SVG/1.1/DTD/svg11.dtd">
<svg xmlns:xlink="http://www.w3.org/1999/xlink" width="460.8pt" height="345.6pt" viewBox="0 0 460.8 345.6" xmlns="http://www.w3.org/2000/svg" version="1.1">
 <metadata>
  <rdf:RDF xmlns:dc="http://purl.org/dc/elements/1.1/" xmlns:cc="http://creativecommons.org/ns#" xmlns:rdf="http://www.w3.org/1999/02/22-rdf-syntax-ns#">
   <cc:Work>
    <dc:type rdf:resource="http://purl.org/dc/dcmitype/StillImage"/>
    <dc:date>2022-09-10T15:50:17.320045</dc:date>
    <dc:format>image/svg+xml</dc:format>
    <dc:creator>
     <cc:Agent>
      <dc:title>Matplotlib v3.5.3, https://matplotlib.org/</dc:title>
     </cc:Agent>
    </dc:creator>
   </cc:Work>
  </rdf:RDF>
 </metadata>
 <defs>
  <style type="text/css">*{stroke-linejoin: round; stroke-linecap: butt}</style>
 </defs>
 <g id="figure_1">
  <g id="patch_1">
   <path d="M 0 345.6 
L 460.8 345.6 
L 460.8 0 
L 0 0 
z
" style="fill: #ffffff"/>
  </g>
  <g id="axes_1">
   <g id="patch_2">
    <path d="M 77.13 294.66 
L 447.84 294.66 
L 447.84 29.76 
L 77.13 29.76 
z
" style="fill: #eaeaf2"/>
   </g>
   <g id="matplotlib.axis_1">
    <g id="xtick_1">
     <g id="line2d_1">
      <path d="M 91.148445 294.66 
L 91.148445 29.76 
" clip-path="url(#pda8b9ee898)" style="fill: none; stroke: #ffffff; stroke-linecap: round"/>
     </g>
     <g id="text_1">
      <!-- 0.00 -->
      <g style="fill: #262626" transform="translate(78.902352 312.518281)scale(0.11 -0.11)">
       <defs>
        <path id="DejaVuSans-30" d="M 2034 4250 
Q 1547 4250 1301 3770 
Q 1056 3291 1056 2328 
Q 1056 1369 1301 889 
Q 1547 409 2034 409 
Q 2525 409 2770 889 
Q 3016 1369 3016 2328 
Q 3016 3291 2770 3770 
Q 2525 4250 2034 4250 
z
M 2034 4750 
Q 2819 4750 3233 4129 
Q 3647 3509 3647 2328 
Q 3647 1150 3233 529 
Q 2819 -91 2034 -91 
Q 1250 -91 836 529 
Q 422 1150 422 2328 
Q 422 3509 836 4129 
Q 1250 4750 2034 4750 
z
" transform="scale(0.015625)"/>
        <path id="DejaVuSans-2e" d="M 684 794 
L 1344 794 
L 1344 0 
L 684 0 
L 684 794 
z
" transform="scale(0.015625)"/>
       </defs>
       <use xlink:href="#DejaVuSans-30"/>
       <use xlink:href="#DejaVuSans-2e" x="63.623047"/>
       <use xlink:href="#DejaVuSans-30" x="95.410156"/>
       <use xlink:href="#DejaVuSans-30" x="159.033203"/>
      </g>
     </g>
    </g>
    <g id="xtick_2">
     <g id="line2d_2">
      <path d="M 147.788629 294.66 
L 147.788629 29.76 
" clip-path="url(#pda8b9ee898)" style="fill: none; stroke: #ffffff; stroke-linecap: round"/>
     </g>
     <g id="text_2">
      <!-- 0.05 -->
      <g style="fill: #262626" transform="translate(135.542535 312.518281)scale(0.11 -0.11)">
       <defs>
        <path id="DejaVuSans-35" d="M 691 4666 
L 3169 4666 
L 3169 4134 
L 1269 4134 
L 1269 2991 
Q 1406 3038 1543 3061 
Q 1681 3084 1819 3084 
Q 2600 3084 3056 2656 
Q 3513 2228 3513 1497 
Q 3513 744 3044 326 
Q 2575 -91 1722 -91 
Q 1428 -91 1123 -41 
Q 819 9 494 109 
L 494 744 
Q 775 591 1075 516 
Q 1375 441 1709 441 
Q 2250 441 2565 725 
Q 2881 1009 2881 1497 
Q 2881 1984 2565 2268 
Q 2250 2553 1709 2553 
Q 1456 2553 1204 2497 
Q 953 2441 691 2322 
L 691 4666 
z
" transform="scale(0.015625)"/>
       </defs>
       <use xlink:href="#DejaVuSans-30"/>
       <use xlink:href="#DejaVuSans-2e" x="63.623047"/>
       <use xlink:href="#DejaVuSans-30" x="95.410156"/>
       <use xlink:href="#DejaVuSans-35" x="159.033203"/>
      </g>
     </g>
    </g>
    <g id="xtick_3">
     <g id="line2d_3">
      <path d="M 204.428812 294.66 
L 204.428812 29.76 
" clip-path="url(#pda8b9ee898)" style="fill: none; stroke: #ffffff; stroke-linecap: round"/>
     </g>
     <g id="text_3">
      <!-- 0.10 -->
      <g style="fill: #262626" transform="translate(192.182718 312.518281)scale(0.11 -0.11)">
       <defs>
        <path id="DejaVuSans-31" d="M 794 531 
L 1825 531 
L 1825 4091 
L 703 3866 
L 703 4441 
L 1819 4666 
L 2450 4666 
L 2450 531 
L 3481 531 
L 3481 0 
L 794 0 
L 794 531 
z
" transform="scale(0.015625)"/>
       </defs>
       <use xlink:href="#DejaVuSans-30"/>
       <use xlink:href="#DejaVuSans-2e" x="63.623047"/>
       <use xlink:href="#DejaVuSans-31" x="95.410156"/>
       <use xlink:href="#DejaVuSans-30" x="159.033203"/>
      </g>
     </g>
    </g>
    <g id="xtick_4">
     <g id="line2d_4">
      <path d="M 261.068995 294.66 
L 261.068995 29.76 
" clip-path="url(#pda8b9ee898)" style="fill: none; stroke: #ffffff; stroke-linecap: round"/>
     </g>
     <g id="text_4">
      <!-- 0.15 -->
      <g style="fill: #262626" transform="translate(248.822902 312.518281)scale(0.11 -0.11)">
       <use xlink:href="#DejaVuSans-30"/>
       <use xlink:href="#DejaVuSans-2e" x="63.623047"/>
       <use xlink:href="#DejaVuSans-31" x="95.410156"/>
       <use xlink:href="#DejaVuSans-35" x="159.033203"/>
      </g>
     </g>
    </g>
    <g id="xtick_5">
     <g id="line2d_5">
      <path d="M 317.709179 294.66 
L 317.709179 29.76 
" clip-path="url(#pda8b9ee898)" style="fill: none; stroke: #ffffff; stroke-linecap: round"/>
     </g>
     <g id="text_5">
      <!-- 0.20 -->
      <g style="fill: #262626" transform="translate(305.463085 312.518281)scale(0.11 -0.11)">
       <defs>
        <path id="DejaVuSans-32" d="M 1228 531 
L 3431 531 
L 3431 0 
L 469 0 
L 469 531 
Q 828 903 1448 1529 
Q 2069 2156 2228 2338 
Q 2531 2678 2651 2914 
Q 2772 3150 2772 3378 
Q 2772 3750 2511 3984 
Q 2250 4219 1831 4219 
Q 1534 4219 1204 4116 
Q 875 4013 500 3803 
L 500 4441 
Q 881 4594 1212 4672 
Q 1544 4750 1819 4750 
Q 2544 4750 2975 4387 
Q 3406 4025 3406 3419 
Q 3406 3131 3298 2873 
Q 3191 2616 2906 2266 
Q 2828 2175 2409 1742 
Q 1991 1309 1228 531 
z
" transform="scale(0.015625)"/>
       </defs>
       <use xlink:href="#DejaVuSans-30"/>
       <use xlink:href="#DejaVuSans-2e" x="63.623047"/>
       <use xlink:href="#DejaVuSans-32" x="95.410156"/>
       <use xlink:href="#DejaVuSans-30" x="159.033203"/>
      </g>
     </g>
    </g>
    <g id="xtick_6">
     <g id="line2d_6">
      <path d="M 374.349362 294.66 
L 374.349362 29.76 
" clip-path="url(#pda8b9ee898)" style="fill: none; stroke: #ffffff; stroke-linecap: round"/>
     </g>
     <g id="text_6">
      <!-- 0.25 -->
      <g style="fill: #262626" transform="translate(362.103268 312.518281)scale(0.11 -0.11)">
       <use xlink:href="#DejaVuSans-30"/>
       <use xlink:href="#DejaVuSans-2e" x="63.623047"/>
       <use xlink:href="#DejaVuSans-32" x="95.410156"/>
       <use xlink:href="#DejaVuSans-35" x="159.033203"/>
      </g>
     </g>
    </g>
    <g id="xtick_7">
     <g id="line2d_7">
      <path d="M 430.989545 294.66 
L 430.989545 29.76 
" clip-path="url(#pda8b9ee898)" style="fill: none; stroke: #ffffff; stroke-linecap: round"/>
     </g>
     <g id="text_7">
      <!-- 0.30 -->
      <g style="fill: #262626" transform="translate(418.743452 312.518281)scale(0.11 -0.11)">
       <defs>
        <path id="DejaVuSans-33" d="M 2597 2516 
Q 3050 2419 3304 2112 
Q 3559 1806 3559 1356 
Q 3559 666 3084 287 
Q 2609 -91 1734 -91 
Q 1441 -91 1130 -33 
Q 819 25 488 141 
L 488 750 
Q 750 597 1062 519 
Q 1375 441 1716 441 
Q 2309 441 2620 675 
Q 2931 909 2931 1356 
Q 2931 1769 2642 2001 
Q 2353 2234 1838 2234 
L 1294 2234 
L 1294 2753 
L 1863 2753 
Q 2328 2753 2575 2939 
Q 2822 3125 2822 3475 
Q 2822 3834 2567 4026 
Q 2313 4219 1838 4219 
Q 1578 4219 1281 4162 
Q 984 4106 628 3988 
L 628 4550 
Q 988 4650 1302 4700 
Q 1616 4750 1894 4750 
Q 2613 4750 3031 4423 
Q 3450 4097 3450 3541 
Q 3450 3153 3228 2886 
Q 3006 2619 2597 2516 
z
" transform="scale(0.015625)"/>
       </defs>
       <use xlink:href="#DejaVuSans-30"/>
       <use xlink:href="#DejaVuSans-2e" x="63.623047"/>
       <use xlink:href="#DejaVuSans-33" x="95.410156"/>
       <use xlink:href="#DejaVuSans-30" x="159.033203"/>
      </g>
     </g>
    </g>
    <g id="text_8">
     <!-- Timesteps (in Million) -->
     <g style="fill: #262626" transform="translate(187.739219 329.44375)scale(0.14 -0.14)">
      <defs>
       <path id="DejaVuSans-54" d="M -19 4666 
L 3928 4666 
L 3928 4134 
L 2272 4134 
L 2272 0 
L 1638 0 
L 1638 4134 
L -19 4134 
L -19 4666 
z
" transform="scale(0.015625)"/>
       <path id="DejaVuSans-69" d="M 603 3500 
L 1178 3500 
L 1178 0 
L 603 0 
L 603 3500 
z
M 603 4863 
L 1178 4863 
L 1178 4134 
L 603 4134 
L 603 4863 
z
" transform="scale(0.015625)"/>
       <path id="DejaVuSans-6d" d="M 3328 2828 
Q 3544 3216 3844 3400 
Q 4144 3584 4550 3584 
Q 5097 3584 5394 3201 
Q 5691 2819 5691 2113 
L 5691 0 
L 5113 0 
L 5113 2094 
Q 5113 2597 4934 2840 
Q 4756 3084 4391 3084 
Q 3944 3084 3684 2787 
Q 3425 2491 3425 1978 
L 3425 0 
L 2847 0 
L 2847 2094 
Q 2847 2600 2669 2842 
Q 2491 3084 2119 3084 
Q 1678 3084 1418 2786 
Q 1159 2488 1159 1978 
L 1159 0 
L 581 0 
L 581 3500 
L 1159 3500 
L 1159 2956 
Q 1356 3278 1631 3431 
Q 1906 3584 2284 3584 
Q 2666 3584 2933 3390 
Q 3200 3197 3328 2828 
z
" transform="scale(0.015625)"/>
       <path id="DejaVuSans-65" d="M 3597 1894 
L 3597 1613 
L 953 1613 
Q 991 1019 1311 708 
Q 1631 397 2203 397 
Q 2534 397 2845 478 
Q 3156 559 3463 722 
L 3463 178 
Q 3153 47 2828 -22 
Q 2503 -91 2169 -91 
Q 1331 -91 842 396 
Q 353 884 353 1716 
Q 353 2575 817 3079 
Q 1281 3584 2069 3584 
Q 2775 3584 3186 3129 
Q 3597 2675 3597 1894 
z
M 3022 2063 
Q 3016 2534 2758 2815 
Q 2500 3097 2075 3097 
Q 1594 3097 1305 2825 
Q 1016 2553 972 2059 
L 3022 2063 
z
" transform="scale(0.015625)"/>
       <path id="DejaVuSans-73" d="M 2834 3397 
L 2834 2853 
Q 2591 2978 2328 3040 
Q 2066 3103 1784 3103 
Q 1356 3103 1142 2972 
Q 928 2841 928 2578 
Q 928 2378 1081 2264 
Q 1234 2150 1697 2047 
L 1894 2003 
Q 2506 1872 2764 1633 
Q 3022 1394 3022 966 
Q 3022 478 2636 193 
Q 2250 -91 1575 -91 
Q 1294 -91 989 -36 
Q 684 19 347 128 
L 347 722 
Q 666 556 975 473 
Q 1284 391 1588 391 
Q 1994 391 2212 530 
Q 2431 669 2431 922 
Q 2431 1156 2273 1281 
Q 2116 1406 1581 1522 
L 1381 1569 
Q 847 1681 609 1914 
Q 372 2147 372 2553 
Q 372 3047 722 3315 
Q 1072 3584 1716 3584 
Q 2034 3584 2315 3537 
Q 2597 3491 2834 3397 
z
" transform="scale(0.015625)"/>
       <path id="DejaVuSans-74" d="M 1172 4494 
L 1172 3500 
L 2356 3500 
L 2356 3053 
L 1172 3053 
L 1172 1153 
Q 1172 725 1289 603 
Q 1406 481 1766 481 
L 2356 481 
L 2356 0 
L 1766 0 
Q 1100 0 847 248 
Q 594 497 594 1153 
L 594 3053 
L 172 3053 
L 172 3500 
L 594 3500 
L 594 4494 
L 1172 4494 
z
" transform="scale(0.015625)"/>
       <path id="DejaVuSans-70" d="M 1159 525 
L 1159 -1331 
L 581 -1331 
L 581 3500 
L 1159 3500 
L 1159 2969 
Q 1341 3281 1617 3432 
Q 1894 3584 2278 3584 
Q 2916 3584 3314 3078 
Q 3713 2572 3713 1747 
Q 3713 922 3314 415 
Q 2916 -91 2278 -91 
Q 1894 -91 1617 61 
Q 1341 213 1159 525 
z
M 3116 1747 
Q 3116 2381 2855 2742 
Q 2594 3103 2138 3103 
Q 1681 3103 1420 2742 
Q 1159 2381 1159 1747 
Q 1159 1113 1420 752 
Q 1681 391 2138 391 
Q 2594 391 2855 752 
Q 3116 1113 3116 1747 
z
" transform="scale(0.015625)"/>
       <path id="DejaVuSans-20" transform="scale(0.015625)"/>
       <path id="DejaVuSans-28" d="M 1984 4856 
Q 1566 4138 1362 3434 
Q 1159 2731 1159 2009 
Q 1159 1288 1364 580 
Q 1569 -128 1984 -844 
L 1484 -844 
Q 1016 -109 783 600 
Q 550 1309 550 2009 
Q 550 2706 781 3412 
Q 1013 4119 1484 4856 
L 1984 4856 
z
" transform="scale(0.015625)"/>
       <path id="DejaVuSans-6e" d="M 3513 2113 
L 3513 0 
L 2938 0 
L 2938 2094 
Q 2938 2591 2744 2837 
Q 2550 3084 2163 3084 
Q 1697 3084 1428 2787 
Q 1159 2491 1159 1978 
L 1159 0 
L 581 0 
L 581 3500 
L 1159 3500 
L 1159 2956 
Q 1366 3272 1645 3428 
Q 1925 3584 2291 3584 
Q 2894 3584 3203 3211 
Q 3513 2838 3513 2113 
z
" transform="scale(0.015625)"/>
       <path id="DejaVuSans-4d" d="M 628 4666 
L 1569 4666 
L 2759 1491 
L 3956 4666 
L 4897 4666 
L 4897 0 
L 4281 0 
L 4281 4097 
L 3078 897 
L 2444 897 
L 1241 4097 
L 1241 0 
L 628 0 
L 628 4666 
z
" transform="scale(0.015625)"/>
       <path id="DejaVuSans-6c" d="M 603 4863 
L 1178 4863 
L 1178 0 
L 603 0 
L 603 4863 
z
" transform="scale(0.015625)"/>
       <path id="DejaVuSans-6f" d="M 1959 3097 
Q 1497 3097 1228 2736 
Q 959 2375 959 1747 
Q 959 1119 1226 758 
Q 1494 397 1959 397 
Q 2419 397 2687 759 
Q 2956 1122 2956 1747 
Q 2956 2369 2687 2733 
Q 2419 3097 1959 3097 
z
M 1959 3584 
Q 2709 3584 3137 3096 
Q 3566 2609 3566 1747 
Q 3566 888 3137 398 
Q 2709 -91 1959 -91 
Q 1206 -91 779 398 
Q 353 888 353 1747 
Q 353 2609 779 3096 
Q 1206 3584 1959 3584 
z
" transform="scale(0.015625)"/>
       <path id="DejaVuSans-29" d="M 513 4856 
L 1013 4856 
Q 1481 4119 1714 3412 
Q 1947 2706 1947 2009 
Q 1947 1309 1714 600 
Q 1481 -109 1013 -844 
L 513 -844 
Q 928 -128 1133 580 
Q 1338 1288 1338 2009 
Q 1338 2731 1133 3434 
Q 928 4138 513 4856 
z
" transform="scale(0.015625)"/>
      </defs>
      <use xlink:href="#DejaVuSans-54"/>
      <use xlink:href="#DejaVuSans-69" x="57.958984"/>
      <use xlink:href="#DejaVuSans-6d" x="85.742188"/>
      <use xlink:href="#DejaVuSans-65" x="183.154297"/>
      <use xlink:href="#DejaVuSans-73" x="244.677734"/>
      <use xlink:href="#DejaVuSans-74" x="296.777344"/>
      <use xlink:href="#DejaVuSans-65" x="335.986328"/>
      <use xlink:href="#DejaVuSans-70" x="397.509766"/>
      <use xlink:href="#DejaVuSans-73" x="460.986328"/>
      <use xlink:href="#DejaVuSans-20" x="513.085938"/>
      <use xlink:href="#DejaVuSans-28" x="544.873047"/>
      <use xlink:href="#DejaVuSans-69" x="583.886719"/>
      <use xlink:href="#DejaVuSans-6e" x="611.669922"/>
      <use xlink:href="#DejaVuSans-20" x="675.048828"/>
      <use xlink:href="#DejaVuSans-4d" x="706.835938"/>
      <use xlink:href="#DejaVuSans-69" x="793.115234"/>
      <use xlink:href="#DejaVuSans-6c" x="820.898438"/>
      <use xlink:href="#DejaVuSans-6c" x="848.681641"/>
      <use xlink:href="#DejaVuSans-69" x="876.464844"/>
      <use xlink:href="#DejaVuSans-6f" x="904.248047"/>
      <use xlink:href="#DejaVuSans-6e" x="965.429688"/>
      <use xlink:href="#DejaVuSans-29" x="1028.808594"/>
     </g>
    </g>
   </g>
   <g id="matplotlib.axis_2">
    <g id="ytick_1">
     <g id="line2d_8">
      <path d="M 77.13 274.069538 
L 447.84 274.069538 
" clip-path="url(#pda8b9ee898)" style="fill: none; stroke: #ffffff; stroke-linecap: round"/>
     </g>
     <g id="text_9">
      <!-- −4000 -->
      <g style="fill: #262626" transform="translate(30.417344 278.248678)scale(0.11 -0.11)">
       <defs>
        <path id="DejaVuSans-2212" d="M 678 2272 
L 4684 2272 
L 4684 1741 
L 678 1741 
L 678 2272 
z
" transform="scale(0.015625)"/>
        <path id="DejaVuSans-34" d="M 2419 4116 
L 825 1625 
L 2419 1625 
L 2419 4116 
z
M 2253 4666 
L 3047 4666 
L 3047 1625 
L 3713 1625 
L 3713 1100 
L 3047 1100 
L 3047 0 
L 2419 0 
L 2419 1100 
L 313 1100 
L 313 1709 
L 2253 4666 
z
" transform="scale(0.015625)"/>
       </defs>
       <use xlink:href="#DejaVuSans-2212"/>
       <use xlink:href="#DejaVuSans-34" x="83.789062"/>
       <use xlink:href="#DejaVuSans-30" x="147.412109"/>
       <use xlink:href="#DejaVuSans-30" x="211.035156"/>
       <use xlink:href="#DejaVuSans-30" x="274.658203"/>
      </g>
     </g>
    </g>
    <g id="ytick_2">
     <g id="line2d_9">
      <path d="M 77.13 221.212337 
L 447.84 221.212337 
" clip-path="url(#pda8b9ee898)" style="fill: none; stroke: #ffffff; stroke-linecap: round"/>
     </g>
     <g id="text_10">
      <!-- −3000 -->
      <g style="fill: #262626" transform="translate(30.417344 225.391478)scale(0.11 -0.11)">
       <use xlink:href="#DejaVuSans-2212"/>
       <use xlink:href="#DejaVuSans-33" x="83.789062"/>
       <use xlink:href="#DejaVuSans-30" x="147.412109"/>
       <use xlink:href="#DejaVuSans-30" x="211.035156"/>
       <use xlink:href="#DejaVuSans-30" x="274.658203"/>
      </g>
     </g>
    </g>
    <g id="ytick_3">
     <g id="line2d_10">
      <path d="M 77.13 168.355137 
L 447.84 168.355137 
" clip-path="url(#pda8b9ee898)" style="fill: none; stroke: #ffffff; stroke-linecap: round"/>
     </g>
     <g id="text_11">
      <!-- −2000 -->
      <g style="fill: #262626" transform="translate(30.417344 172.534278)scale(0.11 -0.11)">
       <use xlink:href="#DejaVuSans-2212"/>
       <use xlink:href="#DejaVuSans-32" x="83.789062"/>
       <use xlink:href="#DejaVuSans-30" x="147.412109"/>
       <use xlink:href="#DejaVuSans-30" x="211.035156"/>
       <use xlink:href="#DejaVuSans-30" x="274.658203"/>
      </g>
     </g>
    </g>
    <g id="ytick_4">
     <g id="line2d_11">
      <path d="M 77.13 115.497937 
L 447.84 115.497937 
" clip-path="url(#pda8b9ee898)" style="fill: none; stroke: #ffffff; stroke-linecap: round"/>
     </g>
     <g id="text_12">
      <!-- −1000 -->
      <g style="fill: #262626" transform="translate(30.417344 119.677077)scale(0.11 -0.11)">
       <use xlink:href="#DejaVuSans-2212"/>
       <use xlink:href="#DejaVuSans-31" x="83.789062"/>
       <use xlink:href="#DejaVuSans-30" x="147.412109"/>
       <use xlink:href="#DejaVuSans-30" x="211.035156"/>
       <use xlink:href="#DejaVuSans-30" x="274.658203"/>
      </g>
     </g>
    </g>
    <g id="ytick_5">
     <g id="line2d_12">
      <path d="M 77.13 62.640736 
L 447.84 62.640736 
" clip-path="url(#pda8b9ee898)" style="fill: none; stroke: #ffffff; stroke-linecap: round"/>
     </g>
     <g id="text_13">
      <!-- 0 -->
      <g style="fill: #262626" transform="translate(60.63125 66.819877)scale(0.11 -0.11)">
       <use xlink:href="#DejaVuSans-30"/>
      </g>
     </g>
    </g>
    <g id="text_14">
     <!-- Score -->
     <g style="fill: #262626" transform="translate(23.505781 181.813281)rotate(-90)scale(0.14 -0.14)">
      <defs>
       <path id="DejaVuSans-53" d="M 3425 4513 
L 3425 3897 
Q 3066 4069 2747 4153 
Q 2428 4238 2131 4238 
Q 1616 4238 1336 4038 
Q 1056 3838 1056 3469 
Q 1056 3159 1242 3001 
Q 1428 2844 1947 2747 
L 2328 2669 
Q 3034 2534 3370 2195 
Q 3706 1856 3706 1288 
Q 3706 609 3251 259 
Q 2797 -91 1919 -91 
Q 1588 -91 1214 -16 
Q 841 59 441 206 
L 441 856 
Q 825 641 1194 531 
Q 1563 422 1919 422 
Q 2459 422 2753 634 
Q 3047 847 3047 1241 
Q 3047 1584 2836 1778 
Q 2625 1972 2144 2069 
L 1759 2144 
Q 1053 2284 737 2584 
Q 422 2884 422 3419 
Q 422 4038 858 4394 
Q 1294 4750 2059 4750 
Q 2388 4750 2728 4690 
Q 3069 4631 3425 4513 
z
" transform="scale(0.015625)"/>
       <path id="DejaVuSans-63" d="M 3122 3366 
L 3122 2828 
Q 2878 2963 2633 3030 
Q 2388 3097 2138 3097 
Q 1578 3097 1268 2742 
Q 959 2388 959 1747 
Q 959 1106 1268 751 
Q 1578 397 2138 397 
Q 2388 397 2633 464 
Q 2878 531 3122 666 
L 3122 134 
Q 2881 22 2623 -34 
Q 2366 -91 2075 -91 
Q 1284 -91 818 406 
Q 353 903 353 1747 
Q 353 2603 823 3093 
Q 1294 3584 2113 3584 
Q 2378 3584 2631 3529 
Q 2884 3475 3122 3366 
z
" transform="scale(0.015625)"/>
       <path id="DejaVuSans-72" d="M 2631 2963 
Q 2534 3019 2420 3045 
Q 2306 3072 2169 3072 
Q 1681 3072 1420 2755 
Q 1159 2438 1159 1844 
L 1159 0 
L 581 0 
L 581 3500 
L 1159 3500 
L 1159 2956 
Q 1341 3275 1631 3429 
Q 1922 3584 2338 3584 
Q 2397 3584 2469 3576 
Q 2541 3569 2628 3553 
L 2631 2963 
z
" transform="scale(0.015625)"/>
      </defs>
      <use xlink:href="#DejaVuSans-53"/>
      <use xlink:href="#DejaVuSans-63" x="63.476562"/>
      <use xlink:href="#DejaVuSans-6f" x="118.457031"/>
      <use xlink:href="#DejaVuSans-72" x="179.638672"/>
      <use xlink:href="#DejaVuSans-65" x="218.501953"/>
     </g>
    </g>
   </g>
   <g id="PolyCollection_1">
    <defs>
     <path id="mee5973faab" d="M 93.980455 -131.910025 
L 93.980455 -161.887285 
L 96.812464 -162.779248 
L 99.644473 -173.624771 
L 102.476482 -168.313044 
L 105.308491 -198.215317 
L 108.1405 -178.910723 
L 110.97251 -196.96776 
L 113.804519 -195.956744 
L 116.636528 -189.906281 
L 119.468537 -201.255138 
L 122.300546 -204.997936 
L 125.132555 -223.522779 
L 127.964565 -232.337526 
L 130.796574 -215.88492 
L 133.628583 -258.050455 
L 136.460592 -235.559086 
L 139.292601 -255.507254 
L 142.12461 -252.30849 
L 144.95662 -231.672575 
L 147.788629 -219.993008 
L 150.620638 -235.496851 
L 153.452647 -224.334001 
L 156.284656 -240.473375 
L 159.116665 -244.390172 
L 161.948675 -247.733486 
L 164.780684 -254.302815 
L 167.612693 -251.885068 
L 170.444702 -251.697026 
L 173.276711 -257.518189 
L 176.10872 -262.388256 
L 178.94073 -274.538865 
L 181.772739 -254.397487 
L 184.604748 -267.103838 
L 187.436757 -248.317518 
L 190.268766 -269.282432 
L 193.100775 -267.253993 
L 195.932785 -263.84865 
L 198.764794 -269.525929 
L 201.596803 -284.483535 
L 204.428812 -272.005037 
L 207.260821 -277.071827 
L 210.09283 -262.000861 
L 212.92484 -262.206106 
L 215.756849 -265.040071 
L 218.588858 -264.160907 
L 221.420867 -248.685122 
L 224.252876 -245.032429 
L 227.084885 -281.423238 
L 229.916895 -230.324 
L 232.748904 -248.210991 
L 235.580913 -247.80838 
L 238.412922 -268.358043 
L 241.244931 -247.806601 
L 244.07694 -255.509316 
L 246.90895 -261.211137 
L 249.740959 -263.93927 
L 252.572968 -266.021401 
L 255.404977 -245.867152 
L 258.236986 -245.105817 
L 261.068995 -245.304567 
L 263.901005 -252.236427 
L 266.733014 -264.975097 
L 269.565023 -250.072708 
L 272.397032 -251.919021 
L 275.229041 -230.09051 
L 278.06105 -250.013829 
L 280.89306 -250.422571 
L 283.725069 -265.096287 
L 286.557078 -238.914189 
L 289.389087 -249.895374 
L 292.221096 -251.275879 
L 295.053105 -243.084559 
L 297.885115 -238.576385 
L 300.717124 -260.515995 
L 303.549133 -241.072559 
L 306.381142 -254.372475 
L 309.213151 -263.286187 
L 312.04516 -226.402414 
L 314.87717 -263.295957 
L 317.709179 -238.590141 
L 320.541188 -243.943669 
L 323.373197 -246.22428 
L 326.205206 -231.520576 
L 329.037215 -212.432389 
L 331.869225 -222.873791 
L 334.701234 -235.269466 
L 337.533243 -224.755317 
L 340.365252 -244.993024 
L 343.197261 -223.246934 
L 346.02927 -230.174829 
L 348.86128 -222.636557 
L 351.693289 -248.866003 
L 354.525298 -245.007005 
L 357.357307 -221.411193 
L 360.189316 -229.84182 
L 363.021325 -228.410784 
L 365.853335 -234.178673 
L 368.685344 -213.769848 
L 371.517353 -224.908258 
L 374.349362 -233.718647 
L 377.181371 -208.565071 
L 380.01338 -228.107328 
L 382.84539 -237.721562 
L 385.677399 -220.12793 
L 388.509408 -234.831942 
L 391.341417 -228.306536 
L 394.173426 -217.415039 
L 397.005435 -234.960449 
L 399.837445 -226.006624 
L 402.669454 -240.405674 
L 405.501463 -234.37192 
L 408.333472 -233.245291 
L 411.165481 -213.179131 
L 413.99749 -220.646414 
L 416.8295 -234.030244 
L 419.661509 -236.800296 
L 422.493518 -223.063268 
L 425.325527 -230.78916 
L 428.157536 -228.191438 
L 430.989545 -237.115944 
L 430.989545 -165.659954 
L 430.989545 -165.659954 
L 428.157536 -152.890755 
L 425.325527 -164.125472 
L 422.493518 -187.151887 
L 419.661509 -192.567709 
L 416.8295 -201.283256 
L 413.99749 -186.893816 
L 411.165481 -181.196957 
L 408.333472 -147.870589 
L 405.501463 -191.935207 
L 402.669454 -159.866848 
L 399.837445 -189.947606 
L 397.005435 -196.990852 
L 394.173426 -174.718507 
L 391.341417 -201.709848 
L 388.509408 -164.488006 
L 385.677399 -182.878622 
L 382.84539 -168.930979 
L 380.01338 -162.394161 
L 377.181371 -165.451553 
L 374.349362 -188.293687 
L 371.517353 -185.42366 
L 368.685344 -175.741685 
L 365.853335 -192.529812 
L 363.021325 -169.88121 
L 360.189316 -166.044765 
L 357.357307 -172.654947 
L 354.525298 -187.224472 
L 351.693289 -186.443161 
L 348.86128 -157.259835 
L 346.02927 -162.00153 
L 343.197261 -143.420725 
L 340.365252 -131.443176 
L 337.533243 -142.573243 
L 334.701234 -181.804388 
L 331.869225 -175.154344 
L 329.037215 -169.202098 
L 326.205206 -151.25664 
L 323.373197 -125.773154 
L 320.541188 -169.084046 
L 317.709179 -130.325799 
L 314.87717 -122.216162 
L 312.04516 -183.436578 
L 309.213151 -133.631396 
L 306.381142 -132.870433 
L 303.549133 -150.074545 
L 300.717124 -202.24646 
L 297.885115 -196.448238 
L 295.053105 -202.704601 
L 292.221096 -135.710446 
L 289.389087 -195.500686 
L 286.557078 -147.811076 
L 283.725069 -123.499381 
L 280.89306 -179.333202 
L 278.06105 -131.218043 
L 275.229041 -184.137651 
L 272.397032 -132.342339 
L 269.565023 -153.613657 
L 266.733014 -183.79746 
L 263.901005 -207.042113 
L 261.068995 -137.642917 
L 258.236986 -170.367449 
L 255.404977 -202.285233 
L 252.572968 -165.406621 
L 249.740959 -181.408578 
L 246.90895 -175.284447 
L 244.07694 -198.057592 
L 241.244931 -199.054926 
L 238.412922 -204.241783 
L 235.580913 -212.235922 
L 232.748904 -220.699727 
L 229.916895 -210.954416 
L 227.084885 -199.105454 
L 224.252876 -184.736376 
L 221.420867 -200.699776 
L 218.588858 -204.943845 
L 215.756849 -213.255154 
L 212.92484 -193.817346 
L 210.09283 -213.298136 
L 207.260821 -207.761931 
L 204.428812 -203.010826 
L 201.596803 -192.757574 
L 198.764794 -223.378188 
L 195.932785 -232.738432 
L 193.100775 -204.627245 
L 190.268766 -217.282874 
L 187.436757 -210.648995 
L 184.604748 -210.819109 
L 181.772739 -205.646007 
L 178.94073 -212.655501 
L 176.10872 -212.195391 
L 173.276711 -223.648688 
L 170.444702 -202.257879 
L 167.612693 -212.326034 
L 164.780684 -200.417662 
L 161.948675 -165.947132 
L 159.116665 -196.470895 
L 156.284656 -212.009463 
L 153.452647 -199.15697 
L 150.620638 -187.81831 
L 147.788629 -177.730218 
L 144.95662 -197.638664 
L 142.12461 -197.718923 
L 139.292601 -183.920947 
L 136.460592 -181.604069 
L 133.628583 -175.555055 
L 130.796574 -179.758957 
L 127.964565 -190.155601 
L 125.132555 -174.625166 
L 122.300546 -176.277114 
L 119.468537 -174.472012 
L 116.636528 -166.166711 
L 113.804519 -165.727612 
L 110.97251 -168.722592 
L 108.1405 -167.554906 
L 105.308491 -169.541736 
L 102.476482 -140.732066 
L 99.644473 -135.7382 
L 96.812464 -132.901561 
L 93.980455 -131.910025 
z
" style="stroke: #ffffff; stroke-opacity: 0.5"/>
    </defs>
    <g clip-path="url(#pda8b9ee898)">
     <use xlink:href="#mee5973faab" x="0" y="345.6" style="fill: #4c72b0; fill-opacity: 0.5; stroke: #ffffff; stroke-opacity: 0.5"/>
    </g>
   </g>
   <g id="PolyCollection_2">
    <defs>
     <path id="mb85cf86fd5" d="M 93.980455 -137.263233 
L 93.980455 -163.578353 
L 96.812464 -165.612972 
L 99.644473 -167.133589 
L 102.476482 -172.602842 
L 105.308491 -163.502251 
L 108.1405 -184.673124 
L 110.97251 -188.266615 
L 113.804519 -198.689261 
L 116.636528 -215.93116 
L 119.468537 -201.925497 
L 122.300546 -205.010835 
L 125.132555 -206.944343 
L 127.964565 -201.21089 
L 130.796574 -203.620023 
L 133.628583 -205.795311 
L 136.460592 -230.583296 
L 139.292601 -215.904904 
L 142.12461 -253.542847 
L 144.95662 -225.114666 
L 147.788629 -216.061656 
L 150.620638 -236.197281 
L 153.452647 -239.816832 
L 156.284656 -236.458434 
L 159.116665 -236.288415 
L 161.948675 -224.472569 
L 164.780684 -233.861938 
L 167.612693 -273.628767 
L 170.444702 -254.741877 
L 173.276711 -223.180963 
L 176.10872 -229.188958 
L 178.94073 -257.586798 
L 181.772739 -237.056843 
L 184.604748 -217.297967 
L 187.436757 -255.159849 
L 190.268766 -258.542454 
L 193.100775 -241.402408 
L 195.932785 -221.885945 
L 198.764794 -257.222427 
L 201.596803 -227.551689 
L 204.428812 -225.012601 
L 207.260821 -249.696075 
L 210.09283 -260.968134 
L 212.92484 -266.246563 
L 215.756849 -272.374449 
L 218.588858 -272.762363 
L 221.420867 -269.082945 
L 224.252876 -273.589875 
L 227.084885 -260.840595 
L 229.916895 -270.973152 
L 232.748904 -268.925354 
L 235.580913 -255.803227 
L 238.412922 -273.499045 
L 241.244931 -246.809262 
L 244.07694 -261.84891 
L 246.90895 -260.331479 
L 249.740959 -283.904307 
L 252.572968 -263.890162 
L 255.404977 -281.660484 
L 258.236986 -257.898679 
L 261.068995 -254.028288 
L 263.901005 -278.10187 
L 266.733014 -267.532459 
L 269.565023 -266.965672 
L 272.397032 -259.835306 
L 275.229041 -277.696181 
L 278.06105 -254.07732 
L 280.89306 -248.010594 
L 283.725069 -247.912205 
L 286.557078 -258.400161 
L 289.389087 -268.879276 
L 292.221096 -268.384543 
L 295.053105 -263.769736 
L 297.885115 -245.764503 
L 300.717124 -254.513074 
L 303.549133 -265.858957 
L 306.381142 -258.311178 
L 309.213151 -271.76068 
L 312.04516 -255.56546 
L 314.87717 -272.906763 
L 317.709179 -269.216069 
L 320.541188 -267.543318 
L 323.373197 -279.019066 
L 326.205206 -246.476206 
L 329.037215 -251.346822 
L 331.869225 -271.749067 
L 334.701234 -290.024461 
L 337.533243 -256.508155 
L 340.365252 -263.511426 
L 343.197261 -279.160723 
L 346.02927 -253.546608 
L 348.86128 -257.667633 
L 351.693289 -267.556026 
L 354.525298 -271.490144 
L 357.357307 -263.442149 
L 360.189316 -263.288806 
L 363.021325 -290.69392 
L 365.853335 -265.974759 
L 368.685344 -268.364835 
L 371.517353 -281.84049 
L 374.349362 -268.742723 
L 377.181371 -267.745859 
L 380.01338 -264.931582 
L 382.84539 -268.719315 
L 385.677399 -266.951096 
L 388.509408 -271.54853 
L 391.341417 -268.41879 
L 394.173426 -281.147081 
L 397.005435 -279.961421 
L 399.837445 -266.111294 
L 402.669454 -274.543639 
L 405.501463 -273.866816 
L 408.333472 -269.634637 
L 411.165481 -268.827703 
L 413.99749 -276.671947 
L 416.8295 -276.575036 
L 419.661509 -276.778432 
L 422.493518 -261.947086 
L 425.325527 -271.101571 
L 428.157536 -269.087564 
L 430.989545 -269.078241 
L 430.989545 -252.071446 
L 430.989545 -252.071446 
L 428.157536 -245.906382 
L 425.325527 -251.353906 
L 422.493518 -254.32766 
L 419.661509 -225.625664 
L 416.8295 -240.238648 
L 413.99749 -232.856006 
L 411.165481 -248.122924 
L 408.333472 -240.898366 
L 405.501463 -237.164124 
L 402.669454 -248.674331 
L 399.837445 -231.576713 
L 397.005435 -219.915921 
L 394.173426 -215.114449 
L 391.341417 -202.274937 
L 388.509408 -244.136388 
L 385.677399 -239.176268 
L 382.84539 -245.421519 
L 380.01338 -232.948813 
L 377.181371 -241.409417 
L 374.349362 -249.846921 
L 371.517353 -232.298825 
L 368.685344 -219.22581 
L 365.853335 -230.400465 
L 363.021325 -222.440241 
L 360.189316 -233.288895 
L 357.357307 -220.104395 
L 354.525298 -245.746437 
L 351.693289 -223.888376 
L 348.86128 -196.24129 
L 346.02927 -225.843815 
L 343.197261 -222.658178 
L 340.365252 -214.499901 
L 337.533243 -222.538502 
L 334.701234 -228.928177 
L 331.869225 -212.408998 
L 329.037215 -202.616727 
L 326.205206 -217.234455 
L 323.373197 -212.343929 
L 320.541188 -214.256375 
L 317.709179 -215.855986 
L 314.87717 -226.677948 
L 312.04516 -199.932591 
L 309.213151 -208.159847 
L 306.381142 -215.203585 
L 303.549133 -213.496851 
L 300.717124 -187.614906 
L 297.885115 -210.579967 
L 295.053105 -202.976306 
L 292.221096 -236.396428 
L 289.389087 -223.047516 
L 286.557078 -219.388473 
L 283.725069 -222.262328 
L 280.89306 -210.056683 
L 278.06105 -216.05097 
L 275.229041 -208.195484 
L 272.397032 -211.445567 
L 269.565023 -204.15973 
L 266.733014 -201.230131 
L 263.901005 -218.078093 
L 261.068995 -198.630151 
L 258.236986 -224.740212 
L 255.404977 -185.287903 
L 252.572968 -217.98894 
L 249.740959 -198.308121 
L 246.90895 -178.804026 
L 244.07694 -201.773454 
L 241.244931 -197.500269 
L 238.412922 -171.63185 
L 235.580913 -179.804724 
L 232.748904 -189.08765 
L 229.916895 -194.030348 
L 227.084885 -146.857666 
L 224.252876 -218.558944 
L 221.420867 -209.23379 
L 218.588858 -175.261483 
L 215.756849 -209.962517 
L 212.92484 -187.202038 
L 210.09283 -177.371355 
L 207.260821 -190.774995 
L 204.428812 -197.087729 
L 201.596803 -183.866005 
L 198.764794 -99.704518 
L 195.932785 -195.872869 
L 193.100775 -199.992353 
L 190.268766 -188.414864 
L 187.436757 -214.817429 
L 184.604748 -184.85718 
L 181.772739 -178.819145 
L 178.94073 -186.941892 
L 176.10872 -172.50876 
L 173.276711 -189.3375 
L 170.444702 -176.281055 
L 167.612693 -175.683342 
L 164.780684 -186.972273 
L 161.948675 -175.20065 
L 159.116665 -189.82812 
L 156.284656 -173.586686 
L 153.452647 -184.390475 
L 150.620638 -174.980379 
L 147.788629 -62.980909 
L 144.95662 -178.883957 
L 142.12461 -176.490179 
L 139.292601 -171.756965 
L 136.460592 -184.601923 
L 133.628583 -181.976592 
L 130.796574 -176.707603 
L 127.964565 -133.198875 
L 125.132555 -184.144845 
L 122.300546 -177.429747 
L 119.468537 -171.046168 
L 116.636528 -170.659186 
L 113.804519 -167.290377 
L 110.97251 -165.523071 
L 108.1405 -168.264066 
L 105.308491 -153.417499 
L 102.476482 -148.908392 
L 99.644473 -132.807453 
L 96.812464 -137.977761 
L 93.980455 -137.263233 
z
" style="stroke: #ffffff; stroke-opacity: 0.5"/>
    </defs>
    <g clip-path="url(#pda8b9ee898)">
     <use xlink:href="#mb85cf86fd5" x="0" y="345.6" style="fill: #dd8452; fill-opacity: 0.5; stroke: #ffffff; stroke-opacity: 0.5"/>
    </g>
   </g>
   <g id="PolyCollection_3">
    <defs>
     <path id="m060f15e82d" d="M 93.980455 -82.498108 
L 93.980455 -153.541566 
L 96.812464 -178.827445 
L 99.644473 -168.783612 
L 102.476482 -195.074557 
L 105.308491 -207.524855 
L 108.1405 -196.431082 
L 110.97251 -202.828315 
L 113.804519 -212.124066 
L 116.636528 -196.204668 
L 119.468537 -230.450468 
L 122.300546 -209.830311 
L 125.132555 -224.099573 
L 127.964565 -236.612833 
L 130.796574 -227.462109 
L 133.628583 -217.458216 
L 136.460592 -217.402174 
L 139.292601 -232.981102 
L 142.12461 -267.212863 
L 144.95662 -235.170539 
L 147.788629 -230.408895 
L 150.620638 -255.700506 
L 153.452647 -276.194263 
L 156.284656 -237.065099 
L 159.116665 -250.252724 
L 161.948675 -254.506538 
L 164.780684 -257.064692 
L 167.612693 -241.751594 
L 170.444702 -248.136533 
L 173.276711 -282.968076 
L 176.10872 -262.257548 
L 178.94073 -265.753336 
L 181.772739 -260.60278 
L 184.604748 -281.904436 
L 187.436757 -285.796369 
L 190.268766 -257.643896 
L 193.100775 -285.072293 
L 195.932785 -286.923487 
L 198.764794 -293.51268 
L 201.596803 -273.569584 
L 204.428812 -279.552406 
L 207.260821 -269.674266 
L 210.09283 -276.439343 
L 212.92484 -273.13404 
L 215.756849 -293.871854 
L 218.588858 -283.107329 
L 221.420867 -282.102057 
L 224.252876 -287.68664 
L 227.084885 -285.804513 
L 229.916895 -286.805575 
L 232.748904 -274.264611 
L 235.580913 -281.524266 
L 238.412922 -284.313156 
L 241.244931 -282.545929 
L 244.07694 -285.28215 
L 246.90895 -285.600966 
L 249.740959 -286.704004 
L 252.572968 -288.329412 
L 255.404977 -303.799091 
L 258.236986 -294.833492 
L 261.068995 -293.019845 
L 263.901005 -287.178013 
L 266.733014 -285.999921 
L 269.565023 -287.082806 
L 272.397032 -290.366873 
L 275.229041 -285.823989 
L 278.06105 -286.237319 
L 280.89306 -288.380963 
L 283.725069 -288.153689 
L 286.557078 -286.128267 
L 289.389087 -288.67629 
L 292.221096 -287.921722 
L 295.053105 -289.231181 
L 297.885115 -289.768849 
L 300.717124 -287.589102 
L 303.549133 -297.601079 
L 306.381142 -293.051357 
L 309.213151 -289.10428 
L 312.04516 -290.549968 
L 314.87717 -293.123278 
L 317.709179 -287.776648 
L 320.541188 -293.742551 
L 323.373197 -289.336168 
L 326.205206 -290.872216 
L 329.037215 -287.962774 
L 331.869225 -295.439608 
L 334.701234 -296.963733 
L 337.533243 -288.839563 
L 340.365252 -288.441497 
L 343.197261 -290.911729 
L 346.02927 -293.152066 
L 348.86128 -288.625339 
L 351.693289 -289.55245 
L 354.525298 -289.683736 
L 357.357307 -289.381742 
L 360.189316 -291.304554 
L 363.021325 -290.849359 
L 365.853335 -289.559926 
L 368.685344 -290.257131 
L 371.517353 -289.678351 
L 374.349362 -292.718859 
L 377.181371 -291.190303 
L 380.01338 -290.523221 
L 382.84539 -287.494086 
L 385.677399 -289.498028 
L 388.509408 -289.352481 
L 391.341417 -287.783368 
L 394.173426 -289.42422 
L 397.005435 -287.424051 
L 399.837445 -288.162132 
L 402.669454 -291.200801 
L 405.501463 -290.222732 
L 408.333472 -287.803289 
L 411.165481 -289.453232 
L 413.99749 -290.19781 
L 416.8295 -289.597505 
L 419.661509 -291.378364 
L 422.493518 -290.398749 
L 425.325527 -288.463228 
L 428.157536 -290.215924 
L 430.989545 -288.943153 
L 430.989545 -284.000051 
L 430.989545 -284.000051 
L 428.157536 -282.868029 
L 425.325527 -286.651234 
L 422.493518 -282.506529 
L 419.661509 -283.604228 
L 416.8295 -285.782159 
L 413.99749 -280.509889 
L 411.165481 -280.412312 
L 408.333472 -280.378537 
L 405.501463 -284.160158 
L 402.669454 -281.648848 
L 399.837445 -282.528977 
L 397.005435 -281.965556 
L 394.173426 -283.910667 
L 391.341417 -278.473285 
L 388.509408 -282.182037 
L 385.677399 -286.726924 
L 382.84539 -283.26944 
L 380.01338 -283.172515 
L 377.181371 -283.571318 
L 374.349362 -283.391986 
L 371.517353 -284.634608 
L 368.685344 -283.853443 
L 365.853335 -285.184697 
L 363.021325 -284.135424 
L 360.189316 -274.382369 
L 357.357307 -283.669166 
L 354.525298 -287.204797 
L 351.693289 -281.799984 
L 348.86128 -283.886986 
L 346.02927 -284.36609 
L 343.197261 -283.81435 
L 340.365252 -283.266886 
L 337.533243 -259.570881 
L 334.701234 -283.16192 
L 331.869225 -281.699659 
L 329.037215 -268.974862 
L 326.205206 -259.76731 
L 323.373197 -286.931986 
L 320.541188 -276.410672 
L 317.709179 -274.848865 
L 314.87717 -278.030096 
L 312.04516 -284.051047 
L 309.213151 -274.337889 
L 306.381142 -270.763453 
L 303.549133 -281.059331 
L 300.717124 -264.981186 
L 297.885115 -264.539773 
L 295.053105 -268.475069 
L 292.221096 -268.778693 
L 289.389087 -253.525105 
L 286.557078 -258.994223 
L 283.725069 -280.34267 
L 280.89306 -262.796623 
L 278.06105 -276.382275 
L 275.229041 -242.61631 
L 272.397032 -268.051266 
L 269.565023 -271.72586 
L 266.733014 -262.306973 
L 263.901005 -251.846507 
L 261.068995 -254.89967 
L 258.236986 -220.845537 
L 255.404977 -271.906281 
L 252.572968 -251.440513 
L 249.740959 -218.731942 
L 246.90895 -252.567976 
L 244.07694 -225.150366 
L 241.244931 -204.636544 
L 238.412922 -211.740455 
L 235.580913 -216.214499 
L 232.748904 -198.096468 
L 229.916895 -190.415627 
L 227.084885 -191.111115 
L 224.252876 -196.71679 
L 221.420867 -184.978265 
L 218.588858 -212.111514 
L 215.756849 -228.379145 
L 212.92484 -206.12088 
L 210.09283 -225.324958 
L 207.260821 -182.255636 
L 204.428812 -238.655711 
L 201.596803 -198.071129 
L 198.764794 -228.809165 
L 195.932785 -190.647669 
L 193.100775 -220.355596 
L 190.268766 -174.273582 
L 187.436757 -207.283094 
L 184.604748 -216.346316 
L 181.772739 -200.651308 
L 178.94073 -196.538563 
L 176.10872 -198.330675 
L 173.276711 -204.487731 
L 170.444702 -202.562159 
L 167.612693 -191.169089 
L 164.780684 -201.310684 
L 161.948675 -199.927977 
L 159.116665 -180.511585 
L 156.284656 -202.976484 
L 153.452647 -200.201616 
L 150.620638 -207.065097 
L 147.788629 -181.904051 
L 144.95662 -179.653969 
L 142.12461 -176.073829 
L 139.292601 -167.984451 
L 136.460592 -167.216236 
L 133.628583 -176.016245 
L 130.796574 -152.262931 
L 127.964565 -202.463533 
L 125.132555 -165.398438 
L 122.300546 -155.396833 
L 119.468537 -153.950058 
L 116.636528 -172.083886 
L 113.804519 -174.636559 
L 110.97251 -143.849281 
L 108.1405 -161.746573 
L 105.308491 -130.148227 
L 102.476482 -132.265647 
L 99.644473 -151.066901 
L 96.812464 -148.572602 
L 93.980455 -82.498108 
z
" style="stroke: #ffffff; stroke-opacity: 0.5"/>
    </defs>
    <g clip-path="url(#pda8b9ee898)">
     <use xlink:href="#m060f15e82d" x="0" y="345.6" style="fill: #55a868; fill-opacity: 0.5; stroke: #ffffff; stroke-opacity: 0.5"/>
    </g>
   </g>
   <g id="line2d_13">
    <path d="M 93.980455 194.256332 
L 96.812464 195.567438 
L 99.644473 192.068568 
L 102.476482 190.319792 
L 105.308491 156.92271 
L 108.1405 171.771065 
L 110.97251 166.914832 
L 113.804519 166.76034 
L 116.636528 167.974773 
L 119.468537 160.153607 
L 122.300546 151.428109 
L 125.132555 150.737386 
L 127.964565 132.477444 
L 130.796574 146.580954 
L 133.628583 134.732451 
L 136.460592 132.582609 
L 139.292601 122.196793 
L 142.12461 123.958371 
L 144.95662 134.1671 
L 147.788629 143.281623 
L 150.620638 129.995123 
L 153.452647 134.748668 
L 156.284656 121.153384 
L 159.116665 121.141499 
L 161.948675 135.328381 
L 164.780684 125.260748 
L 167.612693 111.272835 
L 170.444702 114.555347 
L 173.276711 108.650667 
L 176.10872 103.161631 
L 178.94073 100.135086 
L 181.772739 106.675723 
L 184.604748 105.384711 
L 187.436757 118.163717 
L 190.268766 103.722233 
L 193.100775 115.855657 
L 195.932785 103.246905 
L 198.764794 97.807689 
L 201.596803 102.754699 
L 204.428812 99.847526 
L 207.260821 103.197384 
L 210.09283 103.813126 
L 212.92484 105.358265 
L 215.756849 110.752009 
L 218.588858 112.24732 
L 221.420867 113.809956 
L 224.252876 114.560984 
L 227.084885 110.584877 
L 229.916895 127.710956 
L 232.748904 108.835465 
L 235.580913 109.548047 
L 238.412922 114.742733 
L 241.244931 117.976079 
L 244.07694 111.562834 
L 246.90895 125.358112 
L 249.740959 114.779193 
L 252.572968 123.36418 
L 255.404977 119.746766 
L 258.236986 125.840932 
L 261.068995 132.652595 
L 263.901005 122.373073 
L 266.733014 124.075039 
L 269.565023 136.883339 
L 272.397032 140.532389 
L 275.229041 134.585395 
L 278.06105 141.161101 
L 280.89306 139.234016 
L 283.725069 137.77076 
L 286.557078 145.127292 
L 289.389087 132.08204 
L 292.221096 139.725413 
L 295.053105 127.081387 
L 297.885115 131.255904 
L 300.717124 117.205765 
L 303.549133 144.396452 
L 306.381142 134.848399 
L 309.213151 135.669493 
L 312.04516 142.343649 
L 314.87717 142.004732 
L 317.709179 136.95717 
L 320.541188 135.321625 
L 323.373197 142.84832 
L 326.205206 139.26308 
L 329.037215 151.478246 
L 331.869225 136.940289 
L 334.701234 138.040502 
L 337.533243 150.613496 
L 340.365252 147.368615 
L 343.197261 152.610026 
L 346.02927 138.886884 
L 348.86128 153.885904 
L 351.693289 138.223008 
L 354.525298 129.174694 
L 357.357307 141.872724 
L 360.189316 141.17825 
L 363.021325 146.807071 
L 365.853335 133.765611 
L 368.685344 147.821422 
L 371.517353 138.045893 
L 374.349362 132.016871 
L 377.181371 153.304383 
L 380.01338 142.633507 
L 382.84539 137.608927 
L 385.677399 141.615202 
L 388.509408 138.60447 
L 391.341417 132.171239 
L 394.173426 146.206004 
L 397.005435 132.701607 
L 399.837445 136.214887 
L 402.669454 138.267925 
L 405.501463 133.483438 
L 408.333472 142.198905 
L 411.165481 144.911754 
L 413.99749 138.968205 
L 416.8295 131.406322 
L 419.661509 125.379554 
L 422.493518 137.958997 
L 425.325527 139.722852 
L 428.157536 149.679543 
L 430.989545 144.296694 
" clip-path="url(#pda8b9ee898)" style="fill: none; stroke: #4c72b0; stroke-width: 3; stroke-linecap: round"/>
   </g>
   <g id="line2d_14">
    <path d="M 93.980455 195.413554 
L 96.812464 191.091055 
L 99.644473 190.23749 
L 102.476482 183.402902 
L 105.308491 185.188722 
L 108.1405 168.346401 
L 110.97251 170.586475 
L 113.804519 163.830605 
L 116.636528 155.390015 
L 119.468537 163.446297 
L 122.300546 156.432676 
L 125.132555 154.329466 
L 127.964565 171.13787 
L 130.796574 154.962141 
L 133.628583 154.639716 
L 136.460592 140.445221 
L 139.292601 156.328176 
L 142.12461 143.502551 
L 144.95662 147.604623 
L 147.788629 169.58387 
L 150.620638 131.385485 
L 153.452647 128.058407 
L 156.284656 145.826173 
L 159.116665 138.808315 
L 161.948675 149.424784 
L 164.780684 141.43929 
L 167.612693 132.823445 
L 170.444702 129.16101 
L 173.276711 145.905246 
L 176.10872 133.660647 
L 178.94073 126.065322 
L 181.772739 139.209369 
L 184.604748 143.912858 
L 187.436757 108.581409 
L 190.268766 129.457696 
L 193.100775 132.241445 
L 195.932785 135.333329 
L 198.764794 143.061719 
L 201.596803 140.533637 
L 204.428812 132.760352 
L 207.260821 117.117827 
L 210.09283 136.992992 
L 212.92484 116.96107 
L 215.756849 112.128969 
L 218.588858 129.091661 
L 221.420867 107.407991 
L 224.252876 96.16781 
L 227.084885 133.738267 
L 229.916895 107.696662 
L 232.748904 111.81079 
L 235.580913 128.159974 
L 238.412922 116.295105 
L 241.244931 119.639374 
L 244.07694 123.559457 
L 246.90895 127.159497 
L 249.740959 105.729873 
L 252.572968 112.199496 
L 255.404977 118.008192 
L 258.236986 107.221441 
L 261.068995 119.70633 
L 263.901005 102.711596 
L 266.733014 103.404531 
L 269.565023 120.174788 
L 272.397032 104.59675 
L 275.229041 100.054715 
L 278.06105 107.477359 
L 280.89306 117.76078 
L 283.725069 105.925845 
L 286.557078 109.672768 
L 289.389087 97.359187 
L 292.221096 96.278546 
L 295.053105 113.896218 
L 297.885115 113.341537 
L 300.717124 128.570689 
L 303.549133 105.570863 
L 306.381142 109.488967 
L 309.213151 109.182064 
L 312.04516 125.236125 
L 314.87717 102.919869 
L 317.709179 111.914156 
L 320.541188 108.261036 
L 323.373197 102.573599 
L 326.205206 108.448298 
L 329.037215 117.001837 
L 331.869225 103.135597 
L 334.701234 93.324775 
L 337.533243 110.581678 
L 340.365252 100.12359 
L 343.197261 93.177603 
L 346.02927 111.989672 
L 348.86128 110.685003 
L 351.693289 102.512564 
L 354.525298 86.854044 
L 357.357307 108.004841 
L 360.189316 95.604432 
L 363.021325 98.381099 
L 365.853335 99.854504 
L 368.685344 106.195166 
L 371.517353 94.238815 
L 374.349362 87.815718 
L 377.181371 93.836792 
L 380.01338 96.01966 
L 382.84539 90.034082 
L 385.677399 97.199846 
L 388.509408 89.013641 
L 391.341417 103.49589 
L 394.173426 93.164238 
L 397.005435 88.682624 
L 399.837445 90.445388 
L 402.669454 87.079542 
L 405.501463 90.741566 
L 408.333472 89.414082 
L 411.165481 88.256668 
L 413.99749 83.728208 
L 416.8295 88.378715 
L 419.661509 96.455079 
L 422.493518 86.845359 
L 425.325527 86.505891 
L 428.157536 88.272695 
L 430.989545 86.022441 
" clip-path="url(#pda8b9ee898)" style="fill: none; stroke: #dd8452; stroke-width: 3; stroke-linecap: round"/>
   </g>
   <g id="line2d_15">
    <path d="M 93.980455 218.496621 
L 96.812464 178.053732 
L 99.644473 183.692657 
L 102.476482 193.537819 
L 105.308491 180.623232 
L 108.1405 166.25054 
L 110.97251 167.922833 
L 113.804519 157.853657 
L 116.636528 161.20906 
L 119.468537 151.410224 
L 122.300546 155.088219 
L 125.132555 143.887662 
L 127.964565 134.83974 
L 130.796574 142.4234 
L 133.628583 144.442023 
L 136.460592 146.525397 
L 139.292601 143.68853 
L 142.12461 137.641866 
L 144.95662 137.679807 
L 147.788629 138.039896 
L 150.620638 114.668457 
L 153.452647 119.118139 
L 156.284656 126.688189 
L 159.116665 134.203823 
L 161.948675 125.92832 
L 164.780684 118.445605 
L 167.612693 127.916308 
L 170.444702 117.136041 
L 173.276711 110.229361 
L 176.10872 110.08335 
L 178.94073 108.990899 
L 181.772739 115.146163 
L 184.604748 112.149528 
L 187.436757 102.840948 
L 190.268766 117.934525 
L 193.100775 85.784418 
L 195.932785 87.960719 
L 198.764794 87.442564 
L 201.596803 101.734351 
L 204.428812 87.92324 
L 207.260821 103.682888 
L 210.09283 95.572899 
L 212.92484 98.123335 
L 215.756849 73.451838 
L 218.588858 87.517875 
L 221.420867 100.991841 
L 224.252876 89.154919 
L 227.084885 94.41768 
L 229.916895 86.759658 
L 232.748904 90.601295 
L 235.580913 95.847089 
L 238.412922 83.850643 
L 241.244931 87.301571 
L 244.07694 76.427916 
L 246.90895 68.304456 
L 249.740959 81.2719 
L 252.572968 73.39726 
L 255.404977 60.726992 
L 258.236986 73.26406 
L 261.068995 72.678785 
L 263.901005 70.228742 
L 266.733014 65.170773 
L 269.565023 63.646525 
L 272.397032 65.158527 
L 275.229041 81.023232 
L 278.06105 62.341019 
L 280.89306 63.863479 
L 283.725069 60.530237 
L 286.557078 75.180411 
L 289.389087 65.172319 
L 292.221096 64.229739 
L 295.053105 62.260786 
L 297.885115 61.612421 
L 300.717124 64.332174 
L 303.549133 57.047614 
L 306.381142 62.198074 
L 309.213151 62.420158 
L 312.04516 59.104547 
L 314.87717 57.862042 
L 317.709179 61.905337 
L 320.541188 60.210817 
L 323.373197 57.475156 
L 326.205206 64.260512 
L 329.037215 63.898209 
L 331.869225 58.193031 
L 334.701234 57.964362 
L 337.533243 68.080637 
L 340.365252 59.806988 
L 343.197261 57.835867 
L 346.02927 57.176421 
L 348.86128 59.39131 
L 351.693289 58.537664 
L 354.525298 57.026423 
L 357.357307 58.795268 
L 360.189316 60.527096 
L 363.021325 58.762611 
L 365.853335 58.216026 
L 368.685344 58.961605 
L 371.517353 58.121948 
L 374.349362 58.32934 
L 377.181371 58.9498 
L 380.01338 58.368996 
L 382.84539 60.314213 
L 385.677399 57.764733 
L 388.509408 59.225673 
L 391.341417 61.370444 
L 394.173426 59.172577 
L 397.005435 60.406947 
L 399.837445 60.164651 
L 402.669454 59.72354 
L 405.501463 58.973551 
L 408.333472 60.967922 
L 411.165481 59.70247 
L 413.99749 60.303598 
L 416.8295 58.089939 
L 419.661509 59.038957 
L 422.493518 59.657348 
L 425.325527 58.221599 
L 428.157536 57.960098 
L 430.989545 59.378208 
" clip-path="url(#pda8b9ee898)" style="fill: none; stroke: #55a868; stroke-width: 3; stroke-linecap: round"/>
   </g>
   <g id="patch_3">
    <path d="M 77.13 294.66 
L 77.13 29.76 
" style="fill: none; stroke: #ffffff; stroke-width: 1.25; stroke-linejoin: miter; stroke-linecap: square"/>
   </g>
   <g id="patch_4">
    <path d="M 447.84 294.66 
L 447.84 29.76 
" style="fill: none; stroke: #ffffff; stroke-width: 1.25; stroke-linejoin: miter; stroke-linecap: square"/>
   </g>
   <g id="patch_5">
    <path d="M 77.13 294.66 
L 447.84 294.66 
" style="fill: none; stroke: #ffffff; stroke-width: 1.25; stroke-linejoin: miter; stroke-linecap: square"/>
   </g>
   <g id="patch_6">
    <path d="M 77.13 29.76 
L 447.84 29.76 
" style="fill: none; stroke: #ffffff; stroke-width: 1.25; stroke-linejoin: miter; stroke-linecap: square"/>
   </g>
   <g id="text_15">
    <!-- zinc-coating-v0 -->
    <g style="fill: #262626" transform="translate(209.126406 23.76)scale(0.14 -0.14)">
     <defs>
      <path id="DejaVuSans-7a" d="M 353 3500 
L 3084 3500 
L 3084 2975 
L 922 459 
L 3084 459 
L 3084 0 
L 275 0 
L 275 525 
L 2438 3041 
L 353 3041 
L 353 3500 
z
" transform="scale(0.015625)"/>
      <path id="DejaVuSans-2d" d="M 313 2009 
L 1997 2009 
L 1997 1497 
L 313 1497 
L 313 2009 
z
" transform="scale(0.015625)"/>
      <path id="DejaVuSans-61" d="M 2194 1759 
Q 1497 1759 1228 1600 
Q 959 1441 959 1056 
Q 959 750 1161 570 
Q 1363 391 1709 391 
Q 2188 391 2477 730 
Q 2766 1069 2766 1631 
L 2766 1759 
L 2194 1759 
z
M 3341 1997 
L 3341 0 
L 2766 0 
L 2766 531 
Q 2569 213 2275 61 
Q 1981 -91 1556 -91 
Q 1019 -91 701 211 
Q 384 513 384 1019 
Q 384 1609 779 1909 
Q 1175 2209 1959 2209 
L 2766 2209 
L 2766 2266 
Q 2766 2663 2505 2880 
Q 2244 3097 1772 3097 
Q 1472 3097 1187 3025 
Q 903 2953 641 2809 
L 641 3341 
Q 956 3463 1253 3523 
Q 1550 3584 1831 3584 
Q 2591 3584 2966 3190 
Q 3341 2797 3341 1997 
z
" transform="scale(0.015625)"/>
      <path id="DejaVuSans-67" d="M 2906 1791 
Q 2906 2416 2648 2759 
Q 2391 3103 1925 3103 
Q 1463 3103 1205 2759 
Q 947 2416 947 1791 
Q 947 1169 1205 825 
Q 1463 481 1925 481 
Q 2391 481 2648 825 
Q 2906 1169 2906 1791 
z
M 3481 434 
Q 3481 -459 3084 -895 
Q 2688 -1331 1869 -1331 
Q 1566 -1331 1297 -1286 
Q 1028 -1241 775 -1147 
L 775 -588 
Q 1028 -725 1275 -790 
Q 1522 -856 1778 -856 
Q 2344 -856 2625 -561 
Q 2906 -266 2906 331 
L 2906 616 
Q 2728 306 2450 153 
Q 2172 0 1784 0 
Q 1141 0 747 490 
Q 353 981 353 1791 
Q 353 2603 747 3093 
Q 1141 3584 1784 3584 
Q 2172 3584 2450 3431 
Q 2728 3278 2906 2969 
L 2906 3500 
L 3481 3500 
L 3481 434 
z
" transform="scale(0.015625)"/>
      <path id="DejaVuSans-76" d="M 191 3500 
L 800 3500 
L 1894 563 
L 2988 3500 
L 3597 3500 
L 2284 0 
L 1503 0 
L 191 3500 
z
" transform="scale(0.015625)"/>
     </defs>
     <use xlink:href="#DejaVuSans-7a"/>
     <use xlink:href="#DejaVuSans-69" x="52.490234"/>
     <use xlink:href="#DejaVuSans-6e" x="80.273438"/>
     <use xlink:href="#DejaVuSans-63" x="143.652344"/>
     <use xlink:href="#DejaVuSans-2d" x="198.632812"/>
     <use xlink:href="#DejaVuSans-63" x="234.716797"/>
     <use xlink:href="#DejaVuSans-6f" x="289.697266"/>
     <use xlink:href="#DejaVuSans-61" x="350.878906"/>
     <use xlink:href="#DejaVuSans-74" x="412.158203"/>
     <use xlink:href="#DejaVuSans-69" x="451.367188"/>
     <use xlink:href="#DejaVuSans-6e" x="479.150391"/>
     <use xlink:href="#DejaVuSans-67" x="542.529297"/>
     <use xlink:href="#DejaVuSans-2d" x="606.005859"/>
     <use xlink:href="#DejaVuSans-76" x="639.464844"/>
     <use xlink:href="#DejaVuSans-30" x="698.644531"/>
    </g>
   </g>
   <g id="legend_1">
    <g id="patch_7">
     <path d="M 84.83 289.16 
L 242.420469 289.16 
Q 244.620469 289.16 244.620469 286.96 
L 244.620469 239.622187 
Q 244.620469 237.422187 242.420469 237.422187 
L 84.83 237.422187 
Q 82.63 237.422187 82.63 239.622187 
L 82.63 286.96 
Q 82.63 289.16 84.83 289.16 
z
" style="fill: #eaeaf2; opacity: 0.8; stroke: #cccccc; stroke-linejoin: miter"/>
    </g>
    <g id="line2d_16">
     <path d="M 87.03 246.330469 
L 98.03 246.330469 
L 109.03 246.330469 
" style="fill: none; stroke: #4c72b0; stroke-width: 3; stroke-linecap: round"/>
    </g>
    <g id="text_16">
     <!-- SAC-DELAY-20-logs/ -->
     <g style="fill: #262626" transform="translate(117.83 250.180469)scale(0.11 -0.11)">
      <defs>
       <path id="DejaVuSans-41" d="M 2188 4044 
L 1331 1722 
L 3047 1722 
L 2188 4044 
z
M 1831 4666 
L 2547 4666 
L 4325 0 
L 3669 0 
L 3244 1197 
L 1141 1197 
L 716 0 
L 50 0 
L 1831 4666 
z
" transform="scale(0.015625)"/>
       <path id="DejaVuSans-43" d="M 4122 4306 
L 4122 3641 
Q 3803 3938 3442 4084 
Q 3081 4231 2675 4231 
Q 1875 4231 1450 3742 
Q 1025 3253 1025 2328 
Q 1025 1406 1450 917 
Q 1875 428 2675 428 
Q 3081 428 3442 575 
Q 3803 722 4122 1019 
L 4122 359 
Q 3791 134 3420 21 
Q 3050 -91 2638 -91 
Q 1578 -91 968 557 
Q 359 1206 359 2328 
Q 359 3453 968 4101 
Q 1578 4750 2638 4750 
Q 3056 4750 3426 4639 
Q 3797 4528 4122 4306 
z
" transform="scale(0.015625)"/>
       <path id="DejaVuSans-44" d="M 1259 4147 
L 1259 519 
L 2022 519 
Q 2988 519 3436 956 
Q 3884 1394 3884 2338 
Q 3884 3275 3436 3711 
Q 2988 4147 2022 4147 
L 1259 4147 
z
M 628 4666 
L 1925 4666 
Q 3281 4666 3915 4102 
Q 4550 3538 4550 2338 
Q 4550 1131 3912 565 
Q 3275 0 1925 0 
L 628 0 
L 628 4666 
z
" transform="scale(0.015625)"/>
       <path id="DejaVuSans-45" d="M 628 4666 
L 3578 4666 
L 3578 4134 
L 1259 4134 
L 1259 2753 
L 3481 2753 
L 3481 2222 
L 1259 2222 
L 1259 531 
L 3634 531 
L 3634 0 
L 628 0 
L 628 4666 
z
" transform="scale(0.015625)"/>
       <path id="DejaVuSans-4c" d="M 628 4666 
L 1259 4666 
L 1259 531 
L 3531 531 
L 3531 0 
L 628 0 
L 628 4666 
z
" transform="scale(0.015625)"/>
       <path id="DejaVuSans-59" d="M -13 4666 
L 666 4666 
L 1959 2747 
L 3244 4666 
L 3922 4666 
L 2272 2222 
L 2272 0 
L 1638 0 
L 1638 2222 
L -13 4666 
z
" transform="scale(0.015625)"/>
       <path id="DejaVuSans-2f" d="M 1625 4666 
L 2156 4666 
L 531 -594 
L 0 -594 
L 1625 4666 
z
" transform="scale(0.015625)"/>
      </defs>
      <use xlink:href="#DejaVuSans-53"/>
      <use xlink:href="#DejaVuSans-41" x="65.351562"/>
      <use xlink:href="#DejaVuSans-43" x="132.009766"/>
      <use xlink:href="#DejaVuSans-2d" x="201.833984"/>
      <use xlink:href="#DejaVuSans-44" x="237.917969"/>
      <use xlink:href="#DejaVuSans-45" x="314.919922"/>
      <use xlink:href="#DejaVuSans-4c" x="378.103516"/>
      <use xlink:href="#DejaVuSans-41" x="436.066406"/>
      <use xlink:href="#DejaVuSans-59" x="496.724609"/>
      <use xlink:href="#DejaVuSans-2d" x="545.933594"/>
      <use xlink:href="#DejaVuSans-32" x="582.017578"/>
      <use xlink:href="#DejaVuSans-30" x="645.640625"/>
      <use xlink:href="#DejaVuSans-2d" x="709.263672"/>
      <use xlink:href="#DejaVuSans-6c" x="745.347656"/>
      <use xlink:href="#DejaVuSans-6f" x="773.130859"/>
      <use xlink:href="#DejaVuSans-67" x="834.3125"/>
      <use xlink:href="#DejaVuSans-73" x="897.789062"/>
      <use xlink:href="#DejaVuSans-2f" x="949.888672"/>
     </g>
    </g>
    <g id="line2d_17">
     <path d="M 87.03 262.476406 
L 98.03 262.476406 
L 109.03 262.476406 
" style="fill: none; stroke: #dd8452; stroke-width: 3; stroke-linecap: round"/>
    </g>
    <g id="text_17">
     <!-- SAC-IS-DELAY-20-logs/ -->
     <g style="fill: #262626" transform="translate(117.83 266.326406)scale(0.11 -0.11)">
      <defs>
       <path id="DejaVuSans-49" d="M 628 4666 
L 1259 4666 
L 1259 0 
L 628 0 
L 628 4666 
z
" transform="scale(0.015625)"/>
      </defs>
      <use xlink:href="#DejaVuSans-53"/>
      <use xlink:href="#DejaVuSans-41" x="65.351562"/>
      <use xlink:href="#DejaVuSans-43" x="132.009766"/>
      <use xlink:href="#DejaVuSans-2d" x="201.833984"/>
      <use xlink:href="#DejaVuSans-49" x="237.917969"/>
      <use xlink:href="#DejaVuSans-53" x="267.410156"/>
      <use xlink:href="#DejaVuSans-2d" x="330.886719"/>
      <use xlink:href="#DejaVuSans-44" x="366.970703"/>
      <use xlink:href="#DejaVuSans-45" x="443.972656"/>
      <use xlink:href="#DejaVuSans-4c" x="507.15625"/>
      <use xlink:href="#DejaVuSans-41" x="565.119141"/>
      <use xlink:href="#DejaVuSans-59" x="625.777344"/>
      <use xlink:href="#DejaVuSans-2d" x="674.986328"/>
      <use xlink:href="#DejaVuSans-32" x="711.070312"/>
      <use xlink:href="#DejaVuSans-30" x="774.693359"/>
      <use xlink:href="#DejaVuSans-2d" x="838.316406"/>
      <use xlink:href="#DejaVuSans-6c" x="874.400391"/>
      <use xlink:href="#DejaVuSans-6f" x="902.183594"/>
      <use xlink:href="#DejaVuSans-67" x="963.365234"/>
      <use xlink:href="#DejaVuSans-73" x="1026.841797"/>
      <use xlink:href="#DejaVuSans-2f" x="1078.941406"/>
     </g>
    </g>
    <g id="line2d_18">
     <path d="M 87.03 278.622344 
L 98.03 278.622344 
L 109.03 278.622344 
" style="fill: none; stroke: #55a868; stroke-width: 3; stroke-linecap: round"/>
    </g>
    <g id="text_18">
     <!-- DCAC-DELAY-20-logs/ -->
     <g style="fill: #262626" transform="translate(117.83 282.472344)scale(0.11 -0.11)">
      <use xlink:href="#DejaVuSans-44"/>
      <use xlink:href="#DejaVuSans-43" x="77.001953"/>
      <use xlink:href="#DejaVuSans-41" x="146.826172"/>
      <use xlink:href="#DejaVuSans-43" x="213.484375"/>
      <use xlink:href="#DejaVuSans-2d" x="283.308594"/>
      <use xlink:href="#DejaVuSans-44" x="319.392578"/>
      <use xlink:href="#DejaVuSans-45" x="396.394531"/>
      <use xlink:href="#DejaVuSans-4c" x="459.578125"/>
      <use xlink:href="#DejaVuSans-41" x="517.541016"/>
      <use xlink:href="#DejaVuSans-59" x="578.199219"/>
      <use xlink:href="#DejaVuSans-2d" x="627.408203"/>
      <use xlink:href="#DejaVuSans-32" x="663.492188"/>
      <use xlink:href="#DejaVuSans-30" x="727.115234"/>
      <use xlink:href="#DejaVuSans-2d" x="790.738281"/>
      <use xlink:href="#DejaVuSans-6c" x="826.822266"/>
      <use xlink:href="#DejaVuSans-6f" x="854.605469"/>
      <use xlink:href="#DejaVuSans-67" x="915.787109"/>
      <use xlink:href="#DejaVuSans-73" x="979.263672"/>
      <use xlink:href="#DejaVuSans-2f" x="1031.363281"/>
     </g>
    </g>
   </g>
  </g>
 </g>
 <defs>
  <clipPath id="pda8b9ee898">
   <rect x="77.13" y="29.76" width="370.71" height="264.9"/>
  </clipPath>
 </defs>
</svg>
