<?xml version="1.0" encoding="utf-8" standalone="no"?>
<!DOCTYPE svg PUBLIC "-//W3C//DTD SVG 1.1//EN"
  "http://www.w3.org/Graphics/SVG/1.1/DTD/svg11.dtd">
<svg xmlns:xlink="http://www.w3.org/1999/xlink" width="460.8pt" height="345.6pt" viewBox="0 0 460.8 345.6" xmlns="http://www.w3.org/2000/svg" version="1.1">
 <metadata>
  <rdf:RDF xmlns:dc="http://purl.org/dc/elements/1.1/" xmlns:cc="http://creativecommons.org/ns#" xmlns:rdf="http://www.w3.org/1999/02/22-rdf-syntax-ns#">
   <cc:Work>
    <dc:type rdf:resource="http://purl.org/dc/dcmitype/StillImage"/>
    <dc:date>2022-09-12T15:15:55.144265</dc:date>
    <dc:format>image/svg+xml</dc:format>
    <dc:creator>
     <cc:Agent>
      <dc:title>Matplotlib v3.5.3, https://matplotlib.org/</dc:title>
     </cc:Agent>
    </dc:creator>
   </cc:Work>
  </rdf:RDF>
 </metadata>
 <defs>
  <style type="text/css">*{stroke-linejoin: round; stroke-linecap: butt}</style>
 </defs>
 <g id="figure_1">
  <g id="patch_1">
   <path d="M 0 345.6 
L 460.8 345.6 
L 460.8 0 
L 0 0 
z
" style="fill: #ffffff"/>
  </g>
  <g id="axes_1">
   <g id="patch_2">
    <path d="M 77.13 294.66 
L 447.84 294.66 
L 447.84 12.96 
L 77.13 12.96 
z
" style="fill: #eaeaf2"/>
   </g>
   <g id="matplotlib.axis_1">
    <g id="xtick_1">
     <g id="line2d_1">
      <path d="M 91.148445 294.66 
L 91.148445 12.96 
" clip-path="url(#p947cf18156)" style="fill: none; stroke: #ffffff; stroke-linecap: round"/>
     </g>
     <g id="text_1">
      <!-- 0.00 -->
      <g style="fill: #262626" transform="translate(78.902352 312.518281)scale(0.11 -0.11)">
       <defs>
        <path id="DejaVuSans-30" d="M 2034 4250 
Q 1547 4250 1301 3770 
Q 1056 3291 1056 2328 
Q 1056 1369 1301 889 
Q 1547 409 2034 409 
Q 2525 409 2770 889 
Q 3016 1369 3016 2328 
Q 3016 3291 2770 3770 
Q 2525 4250 2034 4250 
z
M 2034 4750 
Q 2819 4750 3233 4129 
Q 3647 3509 3647 2328 
Q 3647 1150 3233 529 
Q 2819 -91 2034 -91 
Q 1250 -91 836 529 
Q 422 1150 422 2328 
Q 422 3509 836 4129 
Q 1250 4750 2034 4750 
z
" transform="scale(0.015625)"/>
        <path id="DejaVuSans-2e" d="M 684 794 
L 1344 794 
L 1344 0 
L 684 0 
L 684 794 
z
" transform="scale(0.015625)"/>
       </defs>
       <use xlink:href="#DejaVuSans-30"/>
       <use xlink:href="#DejaVuSans-2e" x="63.623047"/>
       <use xlink:href="#DejaVuSans-30" x="95.410156"/>
       <use xlink:href="#DejaVuSans-30" x="159.033203"/>
      </g>
     </g>
    </g>
    <g id="xtick_2">
     <g id="line2d_2">
      <path d="M 147.788629 294.66 
L 147.788629 12.96 
" clip-path="url(#p947cf18156)" style="fill: none; stroke: #ffffff; stroke-linecap: round"/>
     </g>
     <g id="text_2">
      <!-- 0.05 -->
      <g style="fill: #262626" transform="translate(135.542535 312.518281)scale(0.11 -0.11)">
       <defs>
        <path id="DejaVuSans-35" d="M 691 4666 
L 3169 4666 
L 3169 4134 
L 1269 4134 
L 1269 2991 
Q 1406 3038 1543 3061 
Q 1681 3084 1819 3084 
Q 2600 3084 3056 2656 
Q 3513 2228 3513 1497 
Q 3513 744 3044 326 
Q 2575 -91 1722 -91 
Q 1428 -91 1123 -41 
Q 819 9 494 109 
L 494 744 
Q 775 591 1075 516 
Q 1375 441 1709 441 
Q 2250 441 2565 725 
Q 2881 1009 2881 1497 
Q 2881 1984 2565 2268 
Q 2250 2553 1709 2553 
Q 1456 2553 1204 2497 
Q 953 2441 691 2322 
L 691 4666 
z
" transform="scale(0.015625)"/>
       </defs>
       <use xlink:href="#DejaVuSans-30"/>
       <use xlink:href="#DejaVuSans-2e" x="63.623047"/>
       <use xlink:href="#DejaVuSans-30" x="95.410156"/>
       <use xlink:href="#DejaVuSans-35" x="159.033203"/>
      </g>
     </g>
    </g>
    <g id="xtick_3">
     <g id="line2d_3">
      <path d="M 204.428812 294.66 
L 204.428812 12.96 
" clip-path="url(#p947cf18156)" style="fill: none; stroke: #ffffff; stroke-linecap: round"/>
     </g>
     <g id="text_3">
      <!-- 0.10 -->
      <g style="fill: #262626" transform="translate(192.182718 312.518281)scale(0.11 -0.11)">
       <defs>
        <path id="DejaVuSans-31" d="M 794 531 
L 1825 531 
L 1825 4091 
L 703 3866 
L 703 4441 
L 1819 4666 
L 2450 4666 
L 2450 531 
L 3481 531 
L 3481 0 
L 794 0 
L 794 531 
z
" transform="scale(0.015625)"/>
       </defs>
       <use xlink:href="#DejaVuSans-30"/>
       <use xlink:href="#DejaVuSans-2e" x="63.623047"/>
       <use xlink:href="#DejaVuSans-31" x="95.410156"/>
       <use xlink:href="#DejaVuSans-30" x="159.033203"/>
      </g>
     </g>
    </g>
    <g id="xtick_4">
     <g id="line2d_4">
      <path d="M 261.068995 294.66 
L 261.068995 12.96 
" clip-path="url(#p947cf18156)" style="fill: none; stroke: #ffffff; stroke-linecap: round"/>
     </g>
     <g id="text_4">
      <!-- 0.15 -->
      <g style="fill: #262626" transform="translate(248.822902 312.518281)scale(0.11 -0.11)">
       <use xlink:href="#DejaVuSans-30"/>
       <use xlink:href="#DejaVuSans-2e" x="63.623047"/>
       <use xlink:href="#DejaVuSans-31" x="95.410156"/>
       <use xlink:href="#DejaVuSans-35" x="159.033203"/>
      </g>
     </g>
    </g>
    <g id="xtick_5">
     <g id="line2d_5">
      <path d="M 317.709179 294.66 
L 317.709179 12.96 
" clip-path="url(#p947cf18156)" style="fill: none; stroke: #ffffff; stroke-linecap: round"/>
     </g>
     <g id="text_5">
      <!-- 0.20 -->
      <g style="fill: #262626" transform="translate(305.463085 312.518281)scale(0.11 -0.11)">
       <defs>
        <path id="DejaVuSans-32" d="M 1228 531 
L 3431 531 
L 3431 0 
L 469 0 
L 469 531 
Q 828 903 1448 1529 
Q 2069 2156 2228 2338 
Q 2531 2678 2651 2914 
Q 2772 3150 2772 3378 
Q 2772 3750 2511 3984 
Q 2250 4219 1831 4219 
Q 1534 4219 1204 4116 
Q 875 4013 500 3803 
L 500 4441 
Q 881 4594 1212 4672 
Q 1544 4750 1819 4750 
Q 2544 4750 2975 4387 
Q 3406 4025 3406 3419 
Q 3406 3131 3298 2873 
Q 3191 2616 2906 2266 
Q 2828 2175 2409 1742 
Q 1991 1309 1228 531 
z
" transform="scale(0.015625)"/>
       </defs>
       <use xlink:href="#DejaVuSans-30"/>
       <use xlink:href="#DejaVuSans-2e" x="63.623047"/>
       <use xlink:href="#DejaVuSans-32" x="95.410156"/>
       <use xlink:href="#DejaVuSans-30" x="159.033203"/>
      </g>
     </g>
    </g>
    <g id="xtick_6">
     <g id="line2d_6">
      <path d="M 374.349362 294.66 
L 374.349362 12.96 
" clip-path="url(#p947cf18156)" style="fill: none; stroke: #ffffff; stroke-linecap: round"/>
     </g>
     <g id="text_6">
      <!-- 0.25 -->
      <g style="fill: #262626" transform="translate(362.103268 312.518281)scale(0.11 -0.11)">
       <use xlink:href="#DejaVuSans-30"/>
       <use xlink:href="#DejaVuSans-2e" x="63.623047"/>
       <use xlink:href="#DejaVuSans-32" x="95.410156"/>
       <use xlink:href="#DejaVuSans-35" x="159.033203"/>
      </g>
     </g>
    </g>
    <g id="xtick_7">
     <g id="line2d_7">
      <path d="M 430.989545 294.66 
L 430.989545 12.96 
" clip-path="url(#p947cf18156)" style="fill: none; stroke: #ffffff; stroke-linecap: round"/>
     </g>
     <g id="text_7">
      <!-- 0.30 -->
      <g style="fill: #262626" transform="translate(418.743452 312.518281)scale(0.11 -0.11)">
       <defs>
        <path id="DejaVuSans-33" d="M 2597 2516 
Q 3050 2419 3304 2112 
Q 3559 1806 3559 1356 
Q 3559 666 3084 287 
Q 2609 -91 1734 -91 
Q 1441 -91 1130 -33 
Q 819 25 488 141 
L 488 750 
Q 750 597 1062 519 
Q 1375 441 1716 441 
Q 2309 441 2620 675 
Q 2931 909 2931 1356 
Q 2931 1769 2642 2001 
Q 2353 2234 1838 2234 
L 1294 2234 
L 1294 2753 
L 1863 2753 
Q 2328 2753 2575 2939 
Q 2822 3125 2822 3475 
Q 2822 3834 2567 4026 
Q 2313 4219 1838 4219 
Q 1578 4219 1281 4162 
Q 984 4106 628 3988 
L 628 4550 
Q 988 4650 1302 4700 
Q 1616 4750 1894 4750 
Q 2613 4750 3031 4423 
Q 3450 4097 3450 3541 
Q 3450 3153 3228 2886 
Q 3006 2619 2597 2516 
z
" transform="scale(0.015625)"/>
       </defs>
       <use xlink:href="#DejaVuSans-30"/>
       <use xlink:href="#DejaVuSans-2e" x="63.623047"/>
       <use xlink:href="#DejaVuSans-33" x="95.410156"/>
       <use xlink:href="#DejaVuSans-30" x="159.033203"/>
      </g>
     </g>
    </g>
    <g id="text_8">
     <!-- Zeitschritte (in Millionen) -->
     <g style="fill: #262626" transform="translate(174.570469 329.44375)scale(0.14 -0.14)">
      <defs>
       <path id="DejaVuSans-5a" d="M 359 4666 
L 4025 4666 
L 4025 4184 
L 1075 531 
L 4097 531 
L 4097 0 
L 288 0 
L 288 481 
L 3238 4134 
L 359 4134 
L 359 4666 
z
" transform="scale(0.015625)"/>
       <path id="DejaVuSans-65" d="M 3597 1894 
L 3597 1613 
L 953 1613 
Q 991 1019 1311 708 
Q 1631 397 2203 397 
Q 2534 397 2845 478 
Q 3156 559 3463 722 
L 3463 178 
Q 3153 47 2828 -22 
Q 2503 -91 2169 -91 
Q 1331 -91 842 396 
Q 353 884 353 1716 
Q 353 2575 817 3079 
Q 1281 3584 2069 3584 
Q 2775 3584 3186 3129 
Q 3597 2675 3597 1894 
z
M 3022 2063 
Q 3016 2534 2758 2815 
Q 2500 3097 2075 3097 
Q 1594 3097 1305 2825 
Q 1016 2553 972 2059 
L 3022 2063 
z
" transform="scale(0.015625)"/>
       <path id="DejaVuSans-69" d="M 603 3500 
L 1178 3500 
L 1178 0 
L 603 0 
L 603 3500 
z
M 603 4863 
L 1178 4863 
L 1178 4134 
L 603 4134 
L 603 4863 
z
" transform="scale(0.015625)"/>
       <path id="DejaVuSans-74" d="M 1172 4494 
L 1172 3500 
L 2356 3500 
L 2356 3053 
L 1172 3053 
L 1172 1153 
Q 1172 725 1289 603 
Q 1406 481 1766 481 
L 2356 481 
L 2356 0 
L 1766 0 
Q 1100 0 847 248 
Q 594 497 594 1153 
L 594 3053 
L 172 3053 
L 172 3500 
L 594 3500 
L 594 4494 
L 1172 4494 
z
" transform="scale(0.015625)"/>
       <path id="DejaVuSans-73" d="M 2834 3397 
L 2834 2853 
Q 2591 2978 2328 3040 
Q 2066 3103 1784 3103 
Q 1356 3103 1142 2972 
Q 928 2841 928 2578 
Q 928 2378 1081 2264 
Q 1234 2150 1697 2047 
L 1894 2003 
Q 2506 1872 2764 1633 
Q 3022 1394 3022 966 
Q 3022 478 2636 193 
Q 2250 -91 1575 -91 
Q 1294 -91 989 -36 
Q 684 19 347 128 
L 347 722 
Q 666 556 975 473 
Q 1284 391 1588 391 
Q 1994 391 2212 530 
Q 2431 669 2431 922 
Q 2431 1156 2273 1281 
Q 2116 1406 1581 1522 
L 1381 1569 
Q 847 1681 609 1914 
Q 372 2147 372 2553 
Q 372 3047 722 3315 
Q 1072 3584 1716 3584 
Q 2034 3584 2315 3537 
Q 2597 3491 2834 3397 
z
" transform="scale(0.015625)"/>
       <path id="DejaVuSans-63" d="M 3122 3366 
L 3122 2828 
Q 2878 2963 2633 3030 
Q 2388 3097 2138 3097 
Q 1578 3097 1268 2742 
Q 959 2388 959 1747 
Q 959 1106 1268 751 
Q 1578 397 2138 397 
Q 2388 397 2633 464 
Q 2878 531 3122 666 
L 3122 134 
Q 2881 22 2623 -34 
Q 2366 -91 2075 -91 
Q 1284 -91 818 406 
Q 353 903 353 1747 
Q 353 2603 823 3093 
Q 1294 3584 2113 3584 
Q 2378 3584 2631 3529 
Q 2884 3475 3122 3366 
z
" transform="scale(0.015625)"/>
       <path id="DejaVuSans-68" d="M 3513 2113 
L 3513 0 
L 2938 0 
L 2938 2094 
Q 2938 2591 2744 2837 
Q 2550 3084 2163 3084 
Q 1697 3084 1428 2787 
Q 1159 2491 1159 1978 
L 1159 0 
L 581 0 
L 581 4863 
L 1159 4863 
L 1159 2956 
Q 1366 3272 1645 3428 
Q 1925 3584 2291 3584 
Q 2894 3584 3203 3211 
Q 3513 2838 3513 2113 
z
" transform="scale(0.015625)"/>
       <path id="DejaVuSans-72" d="M 2631 2963 
Q 2534 3019 2420 3045 
Q 2306 3072 2169 3072 
Q 1681 3072 1420 2755 
Q 1159 2438 1159 1844 
L 1159 0 
L 581 0 
L 581 3500 
L 1159 3500 
L 1159 2956 
Q 1341 3275 1631 3429 
Q 1922 3584 2338 3584 
Q 2397 3584 2469 3576 
Q 2541 3569 2628 3553 
L 2631 2963 
z
" transform="scale(0.015625)"/>
       <path id="DejaVuSans-20" transform="scale(0.015625)"/>
       <path id="DejaVuSans-28" d="M 1984 4856 
Q 1566 4138 1362 3434 
Q 1159 2731 1159 2009 
Q 1159 1288 1364 580 
Q 1569 -128 1984 -844 
L 1484 -844 
Q 1016 -109 783 600 
Q 550 1309 550 2009 
Q 550 2706 781 3412 
Q 1013 4119 1484 4856 
L 1984 4856 
z
" transform="scale(0.015625)"/>
       <path id="DejaVuSans-6e" d="M 3513 2113 
L 3513 0 
L 2938 0 
L 2938 2094 
Q 2938 2591 2744 2837 
Q 2550 3084 2163 3084 
Q 1697 3084 1428 2787 
Q 1159 2491 1159 1978 
L 1159 0 
L 581 0 
L 581 3500 
L 1159 3500 
L 1159 2956 
Q 1366 3272 1645 3428 
Q 1925 3584 2291 3584 
Q 2894 3584 3203 3211 
Q 3513 2838 3513 2113 
z
" transform="scale(0.015625)"/>
       <path id="DejaVuSans-4d" d="M 628 4666 
L 1569 4666 
L 2759 1491 
L 3956 4666 
L 4897 4666 
L 4897 0 
L 4281 0 
L 4281 4097 
L 3078 897 
L 2444 897 
L 1241 4097 
L 1241 0 
L 628 0 
L 628 4666 
z
" transform="scale(0.015625)"/>
       <path id="DejaVuSans-6c" d="M 603 4863 
L 1178 4863 
L 1178 0 
L 603 0 
L 603 4863 
z
" transform="scale(0.015625)"/>
       <path id="DejaVuSans-6f" d="M 1959 3097 
Q 1497 3097 1228 2736 
Q 959 2375 959 1747 
Q 959 1119 1226 758 
Q 1494 397 1959 397 
Q 2419 397 2687 759 
Q 2956 1122 2956 1747 
Q 2956 2369 2687 2733 
Q 2419 3097 1959 3097 
z
M 1959 3584 
Q 2709 3584 3137 3096 
Q 3566 2609 3566 1747 
Q 3566 888 3137 398 
Q 2709 -91 1959 -91 
Q 1206 -91 779 398 
Q 353 888 353 1747 
Q 353 2609 779 3096 
Q 1206 3584 1959 3584 
z
" transform="scale(0.015625)"/>
       <path id="DejaVuSans-29" d="M 513 4856 
L 1013 4856 
Q 1481 4119 1714 3412 
Q 1947 2706 1947 2009 
Q 1947 1309 1714 600 
Q 1481 -109 1013 -844 
L 513 -844 
Q 928 -128 1133 580 
Q 1338 1288 1338 2009 
Q 1338 2731 1133 3434 
Q 928 4138 513 4856 
z
" transform="scale(0.015625)"/>
      </defs>
      <use xlink:href="#DejaVuSans-5a"/>
      <use xlink:href="#DejaVuSans-65" x="68.505859"/>
      <use xlink:href="#DejaVuSans-69" x="130.029297"/>
      <use xlink:href="#DejaVuSans-74" x="157.8125"/>
      <use xlink:href="#DejaVuSans-73" x="197.021484"/>
      <use xlink:href="#DejaVuSans-63" x="249.121094"/>
      <use xlink:href="#DejaVuSans-68" x="304.101562"/>
      <use xlink:href="#DejaVuSans-72" x="367.480469"/>
      <use xlink:href="#DejaVuSans-69" x="408.59375"/>
      <use xlink:href="#DejaVuSans-74" x="436.376953"/>
      <use xlink:href="#DejaVuSans-74" x="475.585938"/>
      <use xlink:href="#DejaVuSans-65" x="514.794922"/>
      <use xlink:href="#DejaVuSans-20" x="576.318359"/>
      <use xlink:href="#DejaVuSans-28" x="608.105469"/>
      <use xlink:href="#DejaVuSans-69" x="647.119141"/>
      <use xlink:href="#DejaVuSans-6e" x="674.902344"/>
      <use xlink:href="#DejaVuSans-20" x="738.28125"/>
      <use xlink:href="#DejaVuSans-4d" x="770.068359"/>
      <use xlink:href="#DejaVuSans-69" x="856.347656"/>
      <use xlink:href="#DejaVuSans-6c" x="884.130859"/>
      <use xlink:href="#DejaVuSans-6c" x="911.914062"/>
      <use xlink:href="#DejaVuSans-69" x="939.697266"/>
      <use xlink:href="#DejaVuSans-6f" x="967.480469"/>
      <use xlink:href="#DejaVuSans-6e" x="1028.662109"/>
      <use xlink:href="#DejaVuSans-65" x="1092.041016"/>
      <use xlink:href="#DejaVuSans-6e" x="1153.564453"/>
      <use xlink:href="#DejaVuSans-29" x="1216.943359"/>
     </g>
    </g>
   </g>
   <g id="matplotlib.axis_2">
    <g id="ytick_1">
     <g id="line2d_8">
      <path d="M 77.13 235.696816 
L 447.84 235.696816 
" clip-path="url(#p947cf18156)" style="fill: none; stroke: #ffffff; stroke-linecap: round"/>
     </g>
     <g id="text_9">
      <!-- −3000 -->
      <g style="fill: #262626" transform="translate(30.417344 239.875957)scale(0.11 -0.11)">
       <defs>
        <path id="DejaVuSans-2212" d="M 678 2272 
L 4684 2272 
L 4684 1741 
L 678 1741 
L 678 2272 
z
" transform="scale(0.015625)"/>
       </defs>
       <use xlink:href="#DejaVuSans-2212"/>
       <use xlink:href="#DejaVuSans-33" x="83.789062"/>
       <use xlink:href="#DejaVuSans-30" x="147.412109"/>
       <use xlink:href="#DejaVuSans-30" x="211.035156"/>
       <use xlink:href="#DejaVuSans-30" x="274.658203"/>
      </g>
     </g>
    </g>
    <g id="ytick_2">
     <g id="line2d_9">
      <path d="M 77.13 174.108247 
L 447.84 174.108247 
" clip-path="url(#p947cf18156)" style="fill: none; stroke: #ffffff; stroke-linecap: round"/>
     </g>
     <g id="text_10">
      <!-- −2000 -->
      <g style="fill: #262626" transform="translate(30.417344 178.287387)scale(0.11 -0.11)">
       <use xlink:href="#DejaVuSans-2212"/>
       <use xlink:href="#DejaVuSans-32" x="83.789062"/>
       <use xlink:href="#DejaVuSans-30" x="147.412109"/>
       <use xlink:href="#DejaVuSans-30" x="211.035156"/>
       <use xlink:href="#DejaVuSans-30" x="274.658203"/>
      </g>
     </g>
    </g>
    <g id="ytick_3">
     <g id="line2d_10">
      <path d="M 77.13 112.519678 
L 447.84 112.519678 
" clip-path="url(#p947cf18156)" style="fill: none; stroke: #ffffff; stroke-linecap: round"/>
     </g>
     <g id="text_11">
      <!-- −1000 -->
      <g style="fill: #262626" transform="translate(30.417344 116.698818)scale(0.11 -0.11)">
       <use xlink:href="#DejaVuSans-2212"/>
       <use xlink:href="#DejaVuSans-31" x="83.789062"/>
       <use xlink:href="#DejaVuSans-30" x="147.412109"/>
       <use xlink:href="#DejaVuSans-30" x="211.035156"/>
       <use xlink:href="#DejaVuSans-30" x="274.658203"/>
      </g>
     </g>
    </g>
    <g id="ytick_4">
     <g id="line2d_11">
      <path d="M 77.13 50.931108 
L 447.84 50.931108 
" clip-path="url(#p947cf18156)" style="fill: none; stroke: #ffffff; stroke-linecap: round"/>
     </g>
     <g id="text_12">
      <!-- 0 -->
      <g style="fill: #262626" transform="translate(60.63125 55.110249)scale(0.11 -0.11)">
       <use xlink:href="#DejaVuSans-30"/>
      </g>
     </g>
    </g>
    <g id="text_13">
     <!-- Belohnung -->
     <g style="fill: #262626" transform="translate(23.505781 191.336563)rotate(-90)scale(0.14 -0.14)">
      <defs>
       <path id="DejaVuSans-42" d="M 1259 2228 
L 1259 519 
L 2272 519 
Q 2781 519 3026 730 
Q 3272 941 3272 1375 
Q 3272 1813 3026 2020 
Q 2781 2228 2272 2228 
L 1259 2228 
z
M 1259 4147 
L 1259 2741 
L 2194 2741 
Q 2656 2741 2882 2914 
Q 3109 3088 3109 3444 
Q 3109 3797 2882 3972 
Q 2656 4147 2194 4147 
L 1259 4147 
z
M 628 4666 
L 2241 4666 
Q 2963 4666 3353 4366 
Q 3744 4066 3744 3513 
Q 3744 3084 3544 2831 
Q 3344 2578 2956 2516 
Q 3422 2416 3680 2098 
Q 3938 1781 3938 1306 
Q 3938 681 3513 340 
Q 3088 0 2303 0 
L 628 0 
L 628 4666 
z
" transform="scale(0.015625)"/>
       <path id="DejaVuSans-75" d="M 544 1381 
L 544 3500 
L 1119 3500 
L 1119 1403 
Q 1119 906 1312 657 
Q 1506 409 1894 409 
Q 2359 409 2629 706 
Q 2900 1003 2900 1516 
L 2900 3500 
L 3475 3500 
L 3475 0 
L 2900 0 
L 2900 538 
Q 2691 219 2414 64 
Q 2138 -91 1772 -91 
Q 1169 -91 856 284 
Q 544 659 544 1381 
z
M 1991 3584 
L 1991 3584 
z
" transform="scale(0.015625)"/>
       <path id="DejaVuSans-67" d="M 2906 1791 
Q 2906 2416 2648 2759 
Q 2391 3103 1925 3103 
Q 1463 3103 1205 2759 
Q 947 2416 947 1791 
Q 947 1169 1205 825 
Q 1463 481 1925 481 
Q 2391 481 2648 825 
Q 2906 1169 2906 1791 
z
M 3481 434 
Q 3481 -459 3084 -895 
Q 2688 -1331 1869 -1331 
Q 1566 -1331 1297 -1286 
Q 1028 -1241 775 -1147 
L 775 -588 
Q 1028 -725 1275 -790 
Q 1522 -856 1778 -856 
Q 2344 -856 2625 -561 
Q 2906 -266 2906 331 
L 2906 616 
Q 2728 306 2450 153 
Q 2172 0 1784 0 
Q 1141 0 747 490 
Q 353 981 353 1791 
Q 353 2603 747 3093 
Q 1141 3584 1784 3584 
Q 2172 3584 2450 3431 
Q 2728 3278 2906 2969 
L 2906 3500 
L 3481 3500 
L 3481 434 
z
" transform="scale(0.015625)"/>
      </defs>
      <use xlink:href="#DejaVuSans-42"/>
      <use xlink:href="#DejaVuSans-65" x="68.603516"/>
      <use xlink:href="#DejaVuSans-6c" x="130.126953"/>
      <use xlink:href="#DejaVuSans-6f" x="157.910156"/>
      <use xlink:href="#DejaVuSans-68" x="219.091797"/>
      <use xlink:href="#DejaVuSans-6e" x="282.470703"/>
      <use xlink:href="#DejaVuSans-75" x="345.849609"/>
      <use xlink:href="#DejaVuSans-6e" x="409.228516"/>
      <use xlink:href="#DejaVuSans-67" x="472.607422"/>
     </g>
    </g>
   </g>
   <g id="PolyCollection_1">
    <defs>
     <path id="m9514cc953b" d="M 93.980455 -104.980116 
L 93.980455 -162.594638 
L 96.812464 -169.202778 
L 99.644473 -164.19259 
L 102.476482 -184.303478 
L 105.308491 -209.981256 
L 108.1405 -191.435889 
L 110.97251 -184.835514 
L 113.804519 -187.37195 
L 116.636528 -181.818567 
L 119.468537 -236.46856 
L 122.300546 -220.95239 
L 125.132555 -198.332995 
L 127.964565 -206.828594 
L 130.796574 -206.361252 
L 133.628583 -210.757807 
L 136.460592 -250.43433 
L 139.292601 -224.359274 
L 142.12461 -193.666785 
L 144.95662 -239.838955 
L 147.788629 -238.840159 
L 150.620638 -248.245373 
L 153.452647 -239.365949 
L 156.284656 -238.836034 
L 159.116665 -245.309321 
L 161.948675 -254.471222 
L 164.780684 -244.410677 
L 167.612693 -245.193348 
L 170.444702 -252.953643 
L 173.276711 -280.473703 
L 176.10872 -260.762418 
L 178.94073 -259.04509 
L 181.772739 -254.453738 
L 184.604748 -263.079462 
L 187.436757 -267.715627 
L 190.268766 -259.032867 
L 193.100775 -256.520767 
L 195.932785 -276.89252 
L 198.764794 -282.505001 
L 201.596803 -283.776974 
L 204.428812 -273.845816 
L 207.260821 -293.818336 
L 210.09283 -281.099069 
L 212.92484 -281.753703 
L 215.756849 -277.822429 
L 218.588858 -308.475645 
L 221.420867 -266.080615 
L 224.252876 -277.218419 
L 227.084885 -314.074158 
L 229.916895 -296.743907 
L 232.748904 -293.615267 
L 235.580913 -299.085312 
L 238.412922 -285.653041 
L 241.244931 -295.893973 
L 244.07694 -280.437902 
L 246.90895 -295.524365 
L 249.740959 -292.410312 
L 252.572968 -269.330401 
L 255.404977 -300.149645 
L 258.236986 -290.041153 
L 261.068995 -286.044584 
L 263.901005 -277.105983 
L 266.733014 -290.222556 
L 269.565023 -292.864321 
L 272.397032 -295.865346 
L 275.229041 -277.08291 
L 278.06105 -280.964045 
L 280.89306 -276.257315 
L 283.725069 -280.465465 
L 286.557078 -289.020787 
L 289.389087 -288.618786 
L 292.221096 -288.082476 
L 295.053105 -285.372765 
L 297.885115 -290.825095 
L 300.717124 -274.799527 
L 303.549133 -285.830368 
L 306.381142 -276.765834 
L 309.213151 -283.920181 
L 312.04516 -269.314252 
L 314.87717 -274.165512 
L 317.709179 -280.585287 
L 320.541188 -286.945882 
L 323.373197 -279.676878 
L 326.205206 -280.689964 
L 329.037215 -284.123271 
L 331.869225 -284.851076 
L 334.701234 -291.333208 
L 337.533243 -273.19718 
L 340.365252 -268.081173 
L 343.197261 -281.097987 
L 346.02927 -286.621529 
L 348.86128 -281.475528 
L 351.693289 -284.159948 
L 354.525298 -286.70332 
L 357.357307 -286.197194 
L 360.189316 -281.811208 
L 363.021325 -273.019541 
L 365.853335 -279.913037 
L 368.685344 -277.214314 
L 371.517353 -286.579522 
L 374.349362 -284.163374 
L 377.181371 -288.676065 
L 380.01338 -280.699634 
L 382.84539 -283.289941 
L 385.677399 -279.249277 
L 388.509408 -286.253609 
L 391.341417 -287.623874 
L 394.173426 -285.634548 
L 397.005435 -283.308086 
L 399.837445 -285.885619 
L 402.669454 -270.693656 
L 405.501463 -284.814171 
L 408.333472 -298.71166 
L 411.165481 -283.653029 
L 413.99749 -300.13126 
L 416.8295 -286.586912 
L 419.661509 -283.344617 
L 422.493518 -282.894373 
L 425.325527 -292.413323 
L 428.157536 -285.46336 
L 430.989545 -281.077119 
L 430.989545 -222.574125 
L 430.989545 -222.574125 
L 428.157536 -226.448467 
L 425.325527 -212.310472 
L 422.493518 -237.699534 
L 419.661509 -227.001872 
L 416.8295 -236.230227 
L 413.99749 -232.064598 
L 411.165481 -246.345608 
L 408.333472 -236.244043 
L 405.501463 -226.327683 
L 402.669454 -226.625948 
L 399.837445 -236.96136 
L 397.005435 -205.610047 
L 394.173426 -205.455961 
L 391.341417 -210.116186 
L 388.509408 -181.306458 
L 385.677399 -220.292541 
L 382.84539 -235.04098 
L 380.01338 -232.761347 
L 377.181371 -225.580095 
L 374.349362 -218.963659 
L 371.517353 -225.613288 
L 368.685344 -231.259493 
L 365.853335 -254.219995 
L 363.021325 -234.937089 
L 360.189316 -237.199052 
L 357.357307 -241.255254 
L 354.525298 -243.72392 
L 351.693289 -263.872004 
L 348.86128 -246.818583 
L 346.02927 -255.38507 
L 343.197261 -235.442714 
L 340.365252 -225.564095 
L 337.533243 -226.993131 
L 334.701234 -233.809191 
L 331.869225 -229.201152 
L 329.037215 -232.94502 
L 326.205206 -231.181407 
L 323.373197 -252.953333 
L 320.541188 -245.031193 
L 317.709179 -238.974627 
L 314.87717 -225.80005 
L 312.04516 -252.417444 
L 309.213151 -233.052847 
L 306.381142 -252.216117 
L 303.549133 -219.595791 
L 300.717124 -247.177815 
L 297.885115 -222.969266 
L 295.053105 -249.130155 
L 292.221096 -245.047592 
L 289.389087 -209.170652 
L 286.557078 -243.495091 
L 283.725069 -209.341424 
L 280.89306 -227.754892 
L 278.06105 -242.504764 
L 275.229041 -229.999357 
L 272.397032 -235.483632 
L 269.565023 -226.975895 
L 266.733014 -240.060157 
L 263.901005 -243.166208 
L 261.068995 -235.588469 
L 258.236986 -213.834872 
L 255.404977 -230.098992 
L 252.572968 -248.562184 
L 249.740959 -247.754312 
L 246.90895 -255.379936 
L 244.07694 -258.972169 
L 241.244931 -238.031544 
L 238.412922 -253.241125 
L 235.580913 -245.911924 
L 232.748904 -233.08774 
L 229.916895 -236.899588 
L 227.084885 -241.821918 
L 224.252876 -190.342407 
L 221.420867 -228.869785 
L 218.588858 -220.871705 
L 215.756849 -221.278622 
L 212.92484 -233.102132 
L 210.09283 -250.23158 
L 207.260821 -217.49398 
L 204.428812 -214.475671 
L 201.596803 -235.019601 
L 198.764794 -209.022761 
L 195.932785 -234.552682 
L 193.100775 -210.615478 
L 190.268766 -229.295379 
L 187.436757 -232.161366 
L 184.604748 -204.47844 
L 181.772739 -225.404789 
L 178.94073 -194.601691 
L 176.10872 -188.33708 
L 173.276711 -196.766802 
L 170.444702 -194.910772 
L 167.612693 -211.313989 
L 164.780684 -195.102276 
L 161.948675 -189.512241 
L 159.116665 -198.654504 
L 156.284656 -199.387354 
L 153.452647 -181.014837 
L 150.620638 -158.904465 
L 147.788629 -186.227708 
L 144.95662 -203.341021 
L 142.12461 -176.113163 
L 139.292601 -179.212937 
L 136.460592 -179.597654 
L 133.628583 -164.490217 
L 130.796574 -158.141078 
L 127.964565 -160.94735 
L 125.132555 -172.720522 
L 122.300546 -157.490034 
L 119.468537 -144.055095 
L 116.636528 -163.610128 
L 113.804519 -152.984737 
L 110.97251 -157.848762 
L 108.1405 -163.112249 
L 105.308491 -150.721799 
L 102.476482 -118.397955 
L 99.644473 -132.703762 
L 96.812464 -146.37319 
L 93.980455 -104.980116 
z
" style="stroke: #ffffff; stroke-opacity: 0.5"/>
    </defs>
    <g clip-path="url(#p947cf18156)">
     <use xlink:href="#m9514cc953b" x="0" y="345.6" style="fill: #4c72b0; fill-opacity: 0.5; stroke: #ffffff; stroke-opacity: 0.5"/>
    </g>
   </g>
   <g id="PolyCollection_2">
    <defs>
     <path id="mc0d4ef6c1d" d="M 93.980455 -104.693 
L 93.980455 -155.75567 
L 96.812464 -173.295048 
L 99.644473 -152.155254 
L 102.476482 -159.712855 
L 105.308491 -196.158589 
L 108.1405 -181.235438 
L 110.97251 -178.497128 
L 113.804519 -190.544241 
L 116.636528 -232.227266 
L 119.468537 -231.715642 
L 122.300546 -280.828663 
L 125.132555 -237.886745 
L 127.964565 -289.130651 
L 130.796574 -266.754299 
L 133.628583 -302.919317 
L 136.460592 -257.096595 
L 139.292601 -295.427309 
L 142.12461 -281.154257 
L 144.95662 -268.987807 
L 147.788629 -284.583611 
L 150.620638 -303.800939 
L 153.452647 -296.883132 
L 156.284656 -276.037011 
L 159.116665 -296.545012 
L 161.948675 -307.514804 
L 164.780684 -307.371926 
L 167.612693 -305.03379 
L 170.444702 -314.178445 
L 173.276711 -306.190846 
L 176.10872 -296.303833 
L 178.94073 -303.889525 
L 181.772739 -293.658891 
L 184.604748 -299.453637 
L 187.436757 -308.958737 
L 190.268766 -308.584486 
L 193.100775 -314.023065 
L 195.932785 -304.39696 
L 198.764794 -301.873098 
L 201.596803 -312.812982 
L 204.428812 -311.708723 
L 207.260821 -313.459678 
L 210.09283 -299.890977 
L 212.92484 -304.880781 
L 215.756849 -304.882906 
L 218.588858 -305.692702 
L 221.420867 -302.187755 
L 224.252876 -293.478381 
L 227.084885 -299.029307 
L 229.916895 -307.872963 
L 232.748904 -312.808862 
L 235.580913 -300.350103 
L 238.412922 -307.797262 
L 241.244931 -299.172597 
L 244.07694 -313.173613 
L 246.90895 -307.984599 
L 249.740959 -311.196697 
L 252.572968 -313.10976 
L 255.404977 -304.956055 
L 258.236986 -311.726166 
L 261.068995 -311.08396 
L 263.901005 -308.6964 
L 266.733014 -303.988798 
L 269.565023 -299.180537 
L 272.397032 -311.296084 
L 275.229041 -307.065582 
L 278.06105 -302.658744 
L 280.89306 -306.518194 
L 283.725069 -308.730943 
L 286.557078 -312.6816 
L 289.389087 -310.569236 
L 292.221096 -309.6048 
L 295.053105 -311.799666 
L 297.885115 -306.743435 
L 300.717124 -307.72128 
L 303.549133 -306.859157 
L 306.381142 -306.781599 
L 309.213151 -313.109302 
L 312.04516 -311.695528 
L 314.87717 -304.183787 
L 317.709179 -302.531072 
L 320.541188 -305.450123 
L 323.373197 -308.584099 
L 326.205206 -302.137335 
L 329.037215 -310.301956 
L 331.869225 -306.807772 
L 334.701234 -303.808153 
L 337.533243 -307.068096 
L 340.365252 -302.767712 
L 343.197261 -309.879954 
L 346.02927 -305.917958 
L 348.86128 -312.511888 
L 351.693289 -307.777876 
L 354.525298 -315.612952 
L 357.357307 -306.347682 
L 360.189316 -306.148881 
L 363.021325 -309.926303 
L 365.853335 -305.486611 
L 368.685344 -315.304288 
L 371.517353 -311.268596 
L 374.349362 -306.276423 
L 377.181371 -311.720041 
L 380.01338 -309.401359 
L 382.84539 -308.102436 
L 385.677399 -310.847657 
L 388.509408 -313.528858 
L 391.341417 -306.017422 
L 394.173426 -310.51667 
L 397.005435 -310.028376 
L 399.837445 -304.942942 
L 402.669454 -306.595715 
L 405.501463 -297.916156 
L 408.333472 -308.02714 
L 411.165481 -304.734252 
L 413.99749 -302.786697 
L 416.8295 -308.293665 
L 419.661509 -306.529873 
L 422.493518 -305.609754 
L 425.325527 -313.821805 
L 428.157536 -312.14393 
L 430.989545 -307.330141 
L 430.989545 -290.29967 
L 430.989545 -290.29967 
L 428.157536 -298.631274 
L 425.325527 -284.548337 
L 422.493518 -275.411069 
L 419.661509 -276.573898 
L 416.8295 -278.887338 
L 413.99749 -288.759455 
L 411.165481 -274.085857 
L 408.333472 -294.7967 
L 405.501463 -288.933314 
L 402.669454 -290.089918 
L 399.837445 -278.03908 
L 397.005435 -274.418777 
L 394.173426 -293.709458 
L 391.341417 -287.235658 
L 388.509408 -289.09294 
L 385.677399 -279.802095 
L 382.84539 -280.040021 
L 380.01338 -293.439675 
L 377.181371 -271.987434 
L 374.349362 -286.215994 
L 371.517353 -280.895792 
L 368.685344 -289.85802 
L 365.853335 -292.330969 
L 363.021325 -268.832251 
L 360.189316 -294.208649 
L 357.357307 -289.395385 
L 354.525298 -281.578694 
L 351.693289 -286.080988 
L 348.86128 -294.927555 
L 346.02927 -297.201496 
L 343.197261 -291.259822 
L 340.365252 -277.247933 
L 337.533243 -285.635919 
L 334.701234 -286.193465 
L 331.869225 -288.194841 
L 329.037215 -281.067107 
L 326.205206 -278.145051 
L 323.373197 -291.283082 
L 320.541188 -283.658571 
L 317.709179 -293.150795 
L 314.87717 -280.279203 
L 312.04516 -286.736772 
L 309.213151 -290.60262 
L 306.381142 -290.204231 
L 303.549133 -276.758776 
L 300.717124 -286.085459 
L 297.885115 -288.626304 
L 295.053105 -292.079711 
L 292.221096 -292.252519 
L 289.389087 -284.134179 
L 286.557078 -276.95575 
L 283.725069 -288.920898 
L 280.89306 -276.374402 
L 278.06105 -289.394623 
L 275.229041 -269.642464 
L 272.397032 -294.765616 
L 269.565023 -280.714293 
L 266.733014 -275.619694 
L 263.901005 -280.385968 
L 261.068995 -288.767129 
L 258.236986 -287.980171 
L 255.404977 -291.362987 
L 252.572968 -288.885202 
L 249.740959 -299.919118 
L 246.90895 -275.716928 
L 244.07694 -286.118968 
L 241.244931 -270.784506 
L 238.412922 -287.122808 
L 235.580913 -288.440148 
L 232.748904 -257.135448 
L 229.916895 -286.655063 
L 227.084885 -279.00386 
L 224.252876 -281.667959 
L 221.420867 -262.050541 
L 218.588858 -266.753246 
L 215.756849 -267.282701 
L 212.92484 -258.837698 
L 210.09283 -276.009136 
L 207.260821 -276.422148 
L 204.428812 -262.950142 
L 201.596803 -280.238809 
L 198.764794 -271.904862 
L 195.932785 -262.742094 
L 193.100775 -273.844281 
L 190.268766 -278.809459 
L 187.436757 -252.477415 
L 184.604748 -251.83781 
L 181.772739 -229.366706 
L 178.94073 -286.013294 
L 176.10872 -265.144971 
L 173.276711 -241.996856 
L 170.444702 -270.376424 
L 167.612693 -261.83322 
L 164.780684 -253.230642 
L 161.948675 -282.707777 
L 159.116665 -257.226705 
L 156.284656 -236.003711 
L 153.452647 -233.125683 
L 150.620638 -179.778361 
L 147.788629 -222.12412 
L 144.95662 -222.920254 
L 142.12461 -223.834175 
L 139.292601 -221.39524 
L 136.460592 -209.490783 
L 133.628583 -224.458492 
L 130.796574 -190.521589 
L 127.964565 -191.911207 
L 125.132555 -170.440415 
L 122.300546 -175.337164 
L 119.468537 -198.709619 
L 116.636528 -186.052176 
L 113.804519 -178.451578 
L 110.97251 -163.673428 
L 108.1405 -158.583901 
L 105.308491 -178.182768 
L 102.476482 -138.369968 
L 99.644473 -133.477113 
L 96.812464 -131.147793 
L 93.980455 -104.693 
z
" style="stroke: #ffffff; stroke-opacity: 0.5"/>
    </defs>
    <g clip-path="url(#p947cf18156)">
     <use xlink:href="#mc0d4ef6c1d" x="0" y="345.6" style="fill: #dd8452; fill-opacity: 0.5; stroke: #ffffff; stroke-opacity: 0.5"/>
    </g>
   </g>
   <g id="PolyCollection_3">
    <defs>
     <path id="m678aadb00e" d="M 93.980455 -112.431337 
L 93.980455 -207.912696 
L 96.812464 -203.970867 
L 99.644473 -181.570014 
L 102.476482 -221.235483 
L 105.308491 -169.512787 
L 108.1405 -199.57306 
L 110.97251 -236.564837 
L 113.804519 -229.920514 
L 116.636528 -251.423966 
L 119.468537 -275.978734 
L 122.300546 -264.329494 
L 125.132555 -239.209433 
L 127.964565 -306.243852 
L 130.796574 -300.488165 
L 133.628583 -306.554746 
L 136.460592 -304.884478 
L 139.292601 -308.451569 
L 142.12461 -302.983359 
L 144.95662 -279.797223 
L 147.788629 -298.444414 
L 150.620638 -313.116859 
L 153.452647 -307.107447 
L 156.284656 -315.638654 
L 159.116665 -303.525842 
L 161.948675 -311.931276 
L 164.780684 -315.591858 
L 167.612693 -308.064047 
L 170.444702 -313.250711 
L 173.276711 -311.632665 
L 176.10872 -310.199945 
L 178.94073 -319.835455 
L 181.772739 -308.715551 
L 184.604748 -315.388941 
L 187.436757 -316.394178 
L 190.268766 -311.972049 
L 193.100775 -308.239515 
L 195.932785 -314.681742 
L 198.764794 -311.8606 
L 201.596803 -310.40847 
L 204.428812 -311.26701 
L 207.260821 -310.075416 
L 210.09283 -318.242817 
L 212.92484 -312.956741 
L 215.756849 -307.371959 
L 218.588858 -309.534947 
L 221.420867 -310.238722 
L 224.252876 -311.354744 
L 227.084885 -310.456428 
L 229.916895 -312.97108 
L 232.748904 -314.092344 
L 235.580913 -313.469694 
L 238.412922 -310.889908 
L 241.244931 -309.930873 
L 244.07694 -309.705876 
L 246.90895 -310.138115 
L 249.740959 -313.558845 
L 252.572968 -312.245055 
L 255.404977 -308.825629 
L 258.236986 -309.387055 
L 261.068995 -312.680222 
L 263.901005 -313.897831 
L 266.733014 -309.823178 
L 269.565023 -310.729235 
L 272.397032 -309.724574 
L 275.229041 -312.25473 
L 278.06105 -312.728828 
L 280.89306 -315.038626 
L 283.725069 -310.964193 
L 286.557078 -318.019184 
L 289.389087 -314.103031 
L 292.221096 -310.721321 
L 295.053105 -312.389336 
L 297.885115 -311.220682 
L 300.717124 -313.544585 
L 303.549133 -311.94623 
L 306.381142 -309.136659 
L 309.213151 -307.967004 
L 312.04516 -310.112739 
L 314.87717 -311.176885 
L 317.709179 -307.808301 
L 320.541188 -308.160057 
L 323.373197 -309.516229 
L 326.205206 -311.217669 
L 329.037215 -308.503384 
L 331.869225 -316.329105 
L 334.701234 -308.820375 
L 337.533243 -310.873226 
L 340.365252 -314.794842 
L 343.197261 -307.379697 
L 346.02927 -310.231432 
L 348.86128 -307.451975 
L 351.693289 -308.540154 
L 354.525298 -312.102692 
L 357.357307 -312.159814 
L 360.189316 -308.709193 
L 363.021325 -308.701811 
L 365.853335 -308.64634 
L 368.685344 -309.224528 
L 371.517353 -306.257212 
L 374.349362 -313.257611 
L 377.181371 -313.020534 
L 380.01338 -309.825108 
L 382.84539 -312.77237 
L 385.677399 -309.701807 
L 388.509408 -308.533607 
L 391.341417 -310.554028 
L 394.173426 -309.08561 
L 397.005435 -310.260972 
L 399.837445 -308.78959 
L 402.669454 -310.928491 
L 405.501463 -308.508232 
L 408.333472 -308.098371 
L 411.165481 -307.829308 
L 413.99749 -309.00851 
L 416.8295 -309.611706 
L 419.661509 -308.789462 
L 422.493518 -310.49135 
L 425.325527 -309.031211 
L 428.157536 -308.544238 
L 430.989545 -311.076915 
L 430.989545 -306.186432 
L 430.989545 -306.186432 
L 428.157536 -306.211162 
L 425.325527 -306.304737 
L 422.493518 -305.892189 
L 419.661509 -304.935956 
L 416.8295 -306.379223 
L 413.99749 -306.073503 
L 411.165481 -305.741043 
L 408.333472 -304.274018 
L 405.501463 -305.996809 
L 402.669454 -305.209782 
L 399.837445 -304.046466 
L 397.005435 -307.034178 
L 394.173426 -306.174922 
L 391.341417 -304.900968 
L 388.509408 -305.052579 
L 385.677399 -303.674972 
L 382.84539 -306.514141 
L 380.01338 -305.1067 
L 377.181371 -305.011078 
L 374.349362 -307.219705 
L 371.517353 -303.95886 
L 368.685344 -304.262038 
L 365.853335 -306.271828 
L 363.021325 -305.646895 
L 360.189316 -306.111651 
L 357.357307 -305.642521 
L 354.525298 -308.36667 
L 351.693289 -304.267138 
L 348.86128 -305.119756 
L 346.02927 -304.73904 
L 343.197261 -306.341896 
L 340.365252 -305.342192 
L 337.533243 -306.081431 
L 334.701234 -305.86022 
L 331.869225 -306.258251 
L 329.037215 -305.05788 
L 326.205206 -304.919036 
L 323.373197 -305.122322 
L 320.541188 -305.773151 
L 317.709179 -305.593228 
L 314.87717 -306.024615 
L 312.04516 -306.597733 
L 309.213151 -305.796981 
L 306.381142 -306.151237 
L 303.549133 -305.573636 
L 300.717124 -305.054828 
L 297.885115 -307.170045 
L 295.053105 -305.548595 
L 292.221096 -304.485196 
L 289.389087 -306.662526 
L 286.557078 -306.163428 
L 283.725069 -306.632675 
L 280.89306 -305.96911 
L 278.06105 -306.91831 
L 275.229041 -308.683456 
L 272.397032 -307.468598 
L 269.565023 -304.877258 
L 266.733014 -305.43099 
L 263.901005 -308.783178 
L 261.068995 -306.369458 
L 258.236986 -306.42778 
L 255.404977 -305.512462 
L 252.572968 -305.478081 
L 249.740959 -306.119994 
L 246.90895 -306.698465 
L 244.07694 -306.395244 
L 241.244931 -305.600332 
L 238.412922 -305.868764 
L 235.580913 -307.833792 
L 232.748904 -306.090654 
L 229.916895 -306.483039 
L 227.084885 -303.285567 
L 224.252876 -305.591988 
L 221.420867 -305.974816 
L 218.588858 -304.744781 
L 215.756849 -304.907591 
L 212.92484 -307.369407 
L 210.09283 -306.375632 
L 207.260821 -303.67153 
L 204.428812 -302.040656 
L 201.596803 -295.686842 
L 198.764794 -304.749599 
L 195.932785 -303.669247 
L 193.100775 -303.181953 
L 190.268766 -303.7725 
L 187.436757 -300.144019 
L 184.604748 -305.650351 
L 181.772739 -291.718511 
L 178.94073 -303.35165 
L 176.10872 -245.929571 
L 173.276711 -296.613927 
L 170.444702 -302.201965 
L 167.612693 -207.106008 
L 164.780684 -286.231113 
L 161.948675 -282.244732 
L 159.116665 -250.625713 
L 156.284656 -263.06992 
L 153.452647 -263.266876 
L 150.620638 -203.229008 
L 147.788629 -279.513664 
L 144.95662 -249.785039 
L 142.12461 -225.499573 
L 139.292601 -242.490553 
L 136.460592 -234.246587 
L 133.628583 -261.073484 
L 130.796574 -226.933648 
L 127.964565 -212.951527 
L 125.132555 -172.221432 
L 122.300546 -226.753067 
L 119.468537 -201.041159 
L 116.636528 -200.773216 
L 113.804519 -154.511365 
L 110.97251 -156.479846 
L 108.1405 -180.356715 
L 105.308491 -136.755296 
L 102.476482 -63.744545 
L 99.644473 -115.673766 
L 96.812464 -91.228213 
L 93.980455 -112.431337 
z
" style="stroke: #ffffff; stroke-opacity: 0.5"/>
    </defs>
    <g clip-path="url(#p947cf18156)">
     <use xlink:href="#m678aadb00e" x="0" y="345.6" style="fill: #55a868; fill-opacity: 0.5; stroke: #ffffff; stroke-opacity: 0.5"/>
    </g>
   </g>
   <g id="line2d_12">
    <path d="M 93.980455 205.561409 
L 96.812464 190.027826 
L 99.644473 204.055481 
L 102.476482 199.973493 
L 105.308491 169.523559 
L 108.1405 168.467275 
L 110.97251 173.188053 
L 113.804519 173.654758 
L 116.636528 174.153382 
L 119.468537 163.953731 
L 122.300546 161.54539 
L 125.132555 161.286674 
L 127.964565 158.487098 
L 130.796574 162.031704 
L 133.628583 160.713932 
L 136.460592 137.919244 
L 139.292601 144.502445 
L 142.12461 161.534522 
L 144.95662 129.711668 
L 147.788629 123.453968 
L 150.620638 143.89171 
L 153.452647 141.18715 
L 156.284656 124.409815 
L 159.116665 128.116337 
L 161.948675 118.744394 
L 164.780684 125.072503 
L 167.612693 116.925468 
L 170.444702 118.026527 
L 173.276711 112.336554 
L 176.10872 116.721239 
L 178.94073 110.993987 
L 181.772739 103.64114 
L 184.604748 107.758185 
L 187.436757 93.482887 
L 190.268766 101.659248 
L 193.100775 105.841751 
L 195.932785 93.174004 
L 198.764794 95.750376 
L 201.596803 84.318566 
L 204.428812 93.657502 
L 207.260821 80.725804 
L 210.09283 78.764879 
L 212.92484 83.157125 
L 215.756849 95.150387 
L 218.588858 90.618304 
L 221.420867 95.556868 
L 224.252876 99.583494 
L 227.084885 70.270915 
L 229.916895 72.750068 
L 232.748904 79.290591 
L 235.580913 76.887165 
L 238.412922 76.036905 
L 241.244931 73.109785 
L 244.07694 76.187259 
L 246.90895 68.69952 
L 249.740959 79.956797 
L 252.572968 82.645804 
L 255.404977 76.552018 
L 258.236986 83.898172 
L 261.068995 82.80512 
L 263.901005 85.061093 
L 266.733014 73.949714 
L 269.565023 83.203569 
L 272.397032 86.371234 
L 275.229041 84.719943 
L 278.06105 76.732281 
L 280.89306 86.801099 
L 283.725069 94.692513 
L 286.557078 76.655971 
L 289.389087 86.533494 
L 292.221096 73.869574 
L 295.053105 75.849522 
L 297.885115 85.398615 
L 300.717124 83.038335 
L 303.549133 83.03318 
L 306.381142 78.677244 
L 309.213151 86.711446 
L 312.04516 86.454028 
L 314.87717 91.054967 
L 317.709179 80.298752 
L 320.541188 83.045123 
L 323.373197 81.489178 
L 326.205206 85.765085 
L 329.037215 84.409817 
L 331.869225 86.796611 
L 334.701234 92.61081 
L 337.533243 88.962633 
L 340.365252 91.527691 
L 343.197261 80.663632 
L 346.02927 70.588107 
L 348.86128 82.722916 
L 351.693289 71.496709 
L 354.525298 79.757494 
L 357.357307 82.102403 
L 360.189316 82.832107 
L 363.021325 87.553175 
L 365.853335 79.233214 
L 368.685344 83.963652 
L 371.517353 86.824665 
L 374.349362 90.501534 
L 377.181371 85.265511 
L 380.01338 85.736139 
L 382.84539 85.258189 
L 385.677399 90.179818 
L 388.509408 99.136372 
L 391.341417 85.351367 
L 394.173426 96.737652 
L 397.005435 97.424239 
L 399.837445 80.743301 
L 402.669454 93.904888 
L 405.501463 80.454595 
L 408.333472 69.012373 
L 411.165481 74.1667 
L 413.99749 83.631843 
L 416.8295 83.273374 
L 419.661509 84.791101 
L 422.493518 75.46511 
L 425.325527 88.715468 
L 428.157536 86.563087 
L 430.989545 89.857397 
" clip-path="url(#p947cf18156)" style="fill: none; stroke: #4c72b0; stroke-width: 3; stroke-linecap: round"/>
   </g>
   <g id="line2d_13">
    <path d="M 93.980455 208.869238 
L 96.812464 186.572188 
L 99.644473 203.808552 
L 102.476482 199.461066 
L 105.308491 160.048935 
L 108.1405 174.729085 
L 110.97251 173.757371 
L 113.804519 163.08744 
L 116.636528 129.952378 
L 119.468537 130.806704 
L 122.300546 128.823966 
L 125.132555 143.623971 
L 127.964565 113.922552 
L 130.796574 112.693717 
L 133.628583 99.450867 
L 136.460592 113.856406 
L 139.292601 80.11098 
L 142.12461 94.747105 
L 144.95662 94.348613 
L 147.788629 91.021669 
L 150.620638 86.742478 
L 153.452647 78.344812 
L 156.284656 83.931556 
L 159.116665 65.108777 
L 161.948675 52.493254 
L 164.780684 60.94133 
L 167.612693 67.946212 
L 170.444702 53.581573 
L 173.276711 83.084262 
L 176.10872 64.522978 
L 178.94073 50.16916 
L 181.772739 83.794742 
L 184.604748 69.994837 
L 187.436757 57.00463 
L 190.268766 54.034083 
L 193.100775 50.725353 
L 195.932785 63.708612 
L 198.764794 62.328587 
L 201.596803 49.000292 
L 204.428812 54.621481 
L 207.260821 51.381952 
L 210.09283 57.77745 
L 212.92484 62.883617 
L 215.756849 58.540488 
L 218.588858 61.553561 
L 221.420867 55.60233 
L 224.252876 58.221479 
L 227.084885 58.341279 
L 229.916895 47.541194 
L 232.748904 51.103661 
L 235.580913 53.28367 
L 238.412922 48.878931 
L 241.244931 54.242452 
L 244.07694 51.104593 
L 246.90895 58.06026 
L 249.740959 41.312839 
L 252.572968 44.179784 
L 255.404977 47.492097 
L 258.236986 43.132603 
L 261.068995 43.11163 
L 263.901005 52.157693 
L 266.733014 55.962123 
L 269.565023 51.596199 
L 272.397032 44.253733 
L 275.229041 52.101344 
L 278.06105 50.044244 
L 280.89306 48.036035 
L 283.725069 45.711468 
L 286.557078 49.541511 
L 289.389087 45.617321 
L 292.221096 45.258791 
L 295.053105 42.690713 
L 297.885115 46.146143 
L 300.717124 48.159183 
L 303.549133 53.818752 
L 306.381142 47.443464 
L 309.213151 40.747355 
L 312.04516 44.711792 
L 314.87717 51.854596 
L 317.709179 46.857408 
L 320.541188 51.121325 
L 323.373197 47.253853 
L 326.205206 50.598058 
L 329.037215 51.953601 
L 331.869225 48.299675 
L 334.701234 47.171545 
L 337.533243 46.353231 
L 340.365252 51.826751 
L 343.197261 45.613798 
L 346.02927 44.725502 
L 348.86128 42.932041 
L 351.693289 49.186426 
L 354.525298 53.258967 
L 357.357307 45.255547 
L 360.189316 45.272125 
L 363.021325 50.253156 
L 365.853335 46.590419 
L 368.685344 44.091185 
L 371.517353 44.170616 
L 374.349362 45.293049 
L 377.181371 48.095757 
L 380.01338 44.409401 
L 382.84539 50.107048 
L 385.677399 45.912253 
L 388.509408 46.788145 
L 391.341417 47.892906 
L 394.173426 44.224755 
L 397.005435 51.054134 
L 399.837445 53.09537 
L 402.669454 45.787164 
L 405.501463 51.126365 
L 408.333472 45.805195 
L 411.165481 52.149745 
L 413.99749 48.226683 
L 416.8295 51.261532 
L 419.661509 49.873542 
L 422.493518 56.800842 
L 425.325527 48.728185 
L 428.157536 41.531932 
L 430.989545 47.741452 
" clip-path="url(#p947cf18156)" style="fill: none; stroke: #dd8452; stroke-width: 3; stroke-linecap: round"/>
   </g>
   <g id="line2d_14">
    <path d="M 93.980455 196.098053 
L 96.812464 182.039953 
L 99.644473 207.904918 
L 102.476482 191.103606 
L 105.308491 188.582583 
L 108.1405 157.211078 
L 110.97251 146.195245 
L 113.804519 146.987742 
L 116.636528 121.954544 
L 119.468537 121.06867 
L 122.300546 107.969181 
L 125.132555 128.73826 
L 127.964565 68.011969 
L 130.796574 96.806041 
L 133.628583 63.268693 
L 136.460592 76.904993 
L 139.292601 84.199276 
L 142.12461 75.167628 
L 144.95662 82.056788 
L 147.788629 59.220182 
L 150.620638 65.624017 
L 153.452647 57.510381 
L 156.284656 64.263856 
L 159.116665 57.133728 
L 161.948675 48.963872 
L 164.780684 47.91081 
L 167.612693 66.406679 
L 170.444702 37.490554 
L 173.276711 38.118078 
L 176.10872 53.251374 
L 178.94073 37.338659 
L 181.772739 45.959311 
L 184.604748 36.182782 
L 187.436757 36.601409 
L 190.268766 38.225185 
L 193.100775 39.558003 
L 195.932785 37.708135 
L 198.764794 36.393293 
L 201.596803 39.797656 
L 204.428812 39.423045 
L 207.260821 38.960546 
L 210.09283 36.291952 
L 212.92484 35.387049 
L 215.756849 39.412682 
L 218.588858 38.605122 
L 221.420867 37.200563 
L 224.252876 37.906888 
L 227.084885 38.622494 
L 229.916895 35.350767 
L 232.748904 35.470835 
L 235.580913 35.182787 
L 238.412922 36.994117 
L 241.244931 37.628932 
L 244.07694 36.972007 
L 246.90895 37.095521 
L 249.740959 37.067018 
L 252.572968 36.490172 
L 255.404977 38.94181 
L 258.236986 37.637231 
L 261.068995 37.262408 
L 263.901005 35.047509 
L 266.733014 37.964968 
L 269.565023 38.150192 
L 272.397032 36.601622 
L 275.229041 35.391241 
L 278.06105 36.301024 
L 280.89306 36.650157 
L 283.725069 37.96479 
L 286.557078 34.926928 
L 289.389087 36.259547 
L 292.221096 37.597434 
L 295.053105 36.572204 
L 297.885115 36.812062 
L 300.717124 35.482586 
L 303.549133 36.061283 
L 306.381142 37.921632 
L 309.213151 38.819893 
L 312.04516 37.163143 
L 314.87717 38.312981 
L 317.709179 38.984791 
L 320.541188 38.55399 
L 323.373197 38.081984 
L 326.205206 38.493152 
L 329.037215 38.656577 
L 331.869225 35.720135 
L 334.701234 38.137802 
L 337.533243 37.30708 
L 340.365252 35.65172 
L 343.197261 38.637502 
L 346.02927 37.982348 
L 348.86128 38.987092 
L 351.693289 39.229171 
L 354.525298 35.488456 
L 357.357307 37.661179 
L 360.189316 38.487032 
L 363.021325 37.899259 
L 365.853335 38.105203 
L 368.685344 38.892505 
L 371.517353 40.19722 
L 374.349362 36.761646 
L 377.181371 36.299452 
L 380.01338 38.805145 
L 382.84539 37.302297 
L 385.677399 38.730071 
L 388.509408 38.614167 
L 391.341417 37.88444 
L 394.173426 38.171116 
L 397.005435 37.190692 
L 399.837445 38.744973 
L 402.669454 37.262427 
L 405.501463 38.920514 
L 408.333472 39.235561 
L 411.165481 39.140184 
L 413.99749 38.465078 
L 416.8295 37.326991 
L 419.661509 38.949504 
L 422.493518 37.650481 
L 425.325527 37.769361 
L 428.157536 38.447326 
L 430.989545 37.066554 
" clip-path="url(#p947cf18156)" style="fill: none; stroke: #55a868; stroke-width: 3; stroke-linecap: round"/>
   </g>
   <g id="patch_3">
    <path d="M 77.13 294.66 
L 77.13 12.96 
" style="fill: none; stroke: #ffffff; stroke-width: 1.25; stroke-linejoin: miter; stroke-linecap: square"/>
   </g>
   <g id="patch_4">
    <path d="M 447.84 294.66 
L 447.84 12.96 
" style="fill: none; stroke: #ffffff; stroke-width: 1.25; stroke-linejoin: miter; stroke-linecap: square"/>
   </g>
   <g id="patch_5">
    <path d="M 77.13 294.66 
L 447.84 294.66 
" style="fill: none; stroke: #ffffff; stroke-width: 1.25; stroke-linejoin: miter; stroke-linecap: square"/>
   </g>
   <g id="patch_6">
    <path d="M 77.13 12.96 
L 447.84 12.96 
" style="fill: none; stroke: #ffffff; stroke-width: 1.25; stroke-linejoin: miter; stroke-linecap: square"/>
   </g>
   <g id="legend_1">
    <g id="patch_7">
     <path d="M 84.83 289.16 
L 205.247344 289.16 
Q 207.447344 289.16 207.447344 286.96 
L 207.447344 239.622187 
Q 207.447344 237.422187 205.247344 237.422187 
L 84.83 237.422187 
Q 82.63 237.422187 82.63 239.622187 
L 82.63 286.96 
Q 82.63 289.16 84.83 289.16 
z
" style="fill: #eaeaf2; opacity: 0.8; stroke: #cccccc; stroke-linejoin: miter"/>
    </g>
    <g id="line2d_15">
     <path d="M 87.03 246.330469 
L 98.03 246.330469 
L 109.03 246.330469 
" style="fill: none; stroke: #4c72b0; stroke-width: 3; stroke-linecap: round"/>
    </g>
    <g id="text_14">
     <!-- SAC-DELAY-5 -->
     <g style="fill: #262626" transform="translate(117.83 250.180469)scale(0.11 -0.11)">
      <defs>
       <path id="DejaVuSans-53" d="M 3425 4513 
L 3425 3897 
Q 3066 4069 2747 4153 
Q 2428 4238 2131 4238 
Q 1616 4238 1336 4038 
Q 1056 3838 1056 3469 
Q 1056 3159 1242 3001 
Q 1428 2844 1947 2747 
L 2328 2669 
Q 3034 2534 3370 2195 
Q 3706 1856 3706 1288 
Q 3706 609 3251 259 
Q 2797 -91 1919 -91 
Q 1588 -91 1214 -16 
Q 841 59 441 206 
L 441 856 
Q 825 641 1194 531 
Q 1563 422 1919 422 
Q 2459 422 2753 634 
Q 3047 847 3047 1241 
Q 3047 1584 2836 1778 
Q 2625 1972 2144 2069 
L 1759 2144 
Q 1053 2284 737 2584 
Q 422 2884 422 3419 
Q 422 4038 858 4394 
Q 1294 4750 2059 4750 
Q 2388 4750 2728 4690 
Q 3069 4631 3425 4513 
z
" transform="scale(0.015625)"/>
       <path id="DejaVuSans-41" d="M 2188 4044 
L 1331 1722 
L 3047 1722 
L 2188 4044 
z
M 1831 4666 
L 2547 4666 
L 4325 0 
L 3669 0 
L 3244 1197 
L 1141 1197 
L 716 0 
L 50 0 
L 1831 4666 
z
" transform="scale(0.015625)"/>
       <path id="DejaVuSans-43" d="M 4122 4306 
L 4122 3641 
Q 3803 3938 3442 4084 
Q 3081 4231 2675 4231 
Q 1875 4231 1450 3742 
Q 1025 3253 1025 2328 
Q 1025 1406 1450 917 
Q 1875 428 2675 428 
Q 3081 428 3442 575 
Q 3803 722 4122 1019 
L 4122 359 
Q 3791 134 3420 21 
Q 3050 -91 2638 -91 
Q 1578 -91 968 557 
Q 359 1206 359 2328 
Q 359 3453 968 4101 
Q 1578 4750 2638 4750 
Q 3056 4750 3426 4639 
Q 3797 4528 4122 4306 
z
" transform="scale(0.015625)"/>
       <path id="DejaVuSans-2d" d="M 313 2009 
L 1997 2009 
L 1997 1497 
L 313 1497 
L 313 2009 
z
" transform="scale(0.015625)"/>
       <path id="DejaVuSans-44" d="M 1259 4147 
L 1259 519 
L 2022 519 
Q 2988 519 3436 956 
Q 3884 1394 3884 2338 
Q 3884 3275 3436 3711 
Q 2988 4147 2022 4147 
L 1259 4147 
z
M 628 4666 
L 1925 4666 
Q 3281 4666 3915 4102 
Q 4550 3538 4550 2338 
Q 4550 1131 3912 565 
Q 3275 0 1925 0 
L 628 0 
L 628 4666 
z
" transform="scale(0.015625)"/>
       <path id="DejaVuSans-45" d="M 628 4666 
L 3578 4666 
L 3578 4134 
L 1259 4134 
L 1259 2753 
L 3481 2753 
L 3481 2222 
L 1259 2222 
L 1259 531 
L 3634 531 
L 3634 0 
L 628 0 
L 628 4666 
z
" transform="scale(0.015625)"/>
       <path id="DejaVuSans-4c" d="M 628 4666 
L 1259 4666 
L 1259 531 
L 3531 531 
L 3531 0 
L 628 0 
L 628 4666 
z
" transform="scale(0.015625)"/>
       <path id="DejaVuSans-59" d="M -13 4666 
L 666 4666 
L 1959 2747 
L 3244 4666 
L 3922 4666 
L 2272 2222 
L 2272 0 
L 1638 0 
L 1638 2222 
L -13 4666 
z
" transform="scale(0.015625)"/>
      </defs>
      <use xlink:href="#DejaVuSans-53"/>
      <use xlink:href="#DejaVuSans-41" x="65.351562"/>
      <use xlink:href="#DejaVuSans-43" x="132.009766"/>
      <use xlink:href="#DejaVuSans-2d" x="201.833984"/>
      <use xlink:href="#DejaVuSans-44" x="237.917969"/>
      <use xlink:href="#DejaVuSans-45" x="314.919922"/>
      <use xlink:href="#DejaVuSans-4c" x="378.103516"/>
      <use xlink:href="#DejaVuSans-41" x="436.066406"/>
      <use xlink:href="#DejaVuSans-59" x="496.724609"/>
      <use xlink:href="#DejaVuSans-2d" x="545.933594"/>
      <use xlink:href="#DejaVuSans-35" x="582.017578"/>
     </g>
    </g>
    <g id="line2d_16">
     <path d="M 87.03 262.476406 
L 98.03 262.476406 
L 109.03 262.476406 
" style="fill: none; stroke: #dd8452; stroke-width: 3; stroke-linecap: round"/>
    </g>
    <g id="text_15">
     <!-- SAC-IS-DELAY-5 -->
     <g style="fill: #262626" transform="translate(117.83 266.326406)scale(0.11 -0.11)">
      <defs>
       <path id="DejaVuSans-49" d="M 628 4666 
L 1259 4666 
L 1259 0 
L 628 0 
L 628 4666 
z
" transform="scale(0.015625)"/>
      </defs>
      <use xlink:href="#DejaVuSans-53"/>
      <use xlink:href="#DejaVuSans-41" x="65.351562"/>
      <use xlink:href="#DejaVuSans-43" x="132.009766"/>
      <use xlink:href="#DejaVuSans-2d" x="201.833984"/>
      <use xlink:href="#DejaVuSans-49" x="237.917969"/>
      <use xlink:href="#DejaVuSans-53" x="267.410156"/>
      <use xlink:href="#DejaVuSans-2d" x="330.886719"/>
      <use xlink:href="#DejaVuSans-44" x="366.970703"/>
      <use xlink:href="#DejaVuSans-45" x="443.972656"/>
      <use xlink:href="#DejaVuSans-4c" x="507.15625"/>
      <use xlink:href="#DejaVuSans-41" x="565.119141"/>
      <use xlink:href="#DejaVuSans-59" x="625.777344"/>
      <use xlink:href="#DejaVuSans-2d" x="674.986328"/>
      <use xlink:href="#DejaVuSans-35" x="711.070312"/>
     </g>
    </g>
    <g id="line2d_17">
     <path d="M 87.03 278.622344 
L 98.03 278.622344 
L 109.03 278.622344 
" style="fill: none; stroke: #55a868; stroke-width: 3; stroke-linecap: round"/>
    </g>
    <g id="text_16">
     <!-- DCAC-DELAY-5 -->
     <g style="fill: #262626" transform="translate(117.83 282.472344)scale(0.11 -0.11)">
      <use xlink:href="#DejaVuSans-44"/>
      <use xlink:href="#DejaVuSans-43" x="77.001953"/>
      <use xlink:href="#DejaVuSans-41" x="146.826172"/>
      <use xlink:href="#DejaVuSans-43" x="213.484375"/>
      <use xlink:href="#DejaVuSans-2d" x="283.308594"/>
      <use xlink:href="#DejaVuSans-44" x="319.392578"/>
      <use xlink:href="#DejaVuSans-45" x="396.394531"/>
      <use xlink:href="#DejaVuSans-4c" x="459.578125"/>
      <use xlink:href="#DejaVuSans-41" x="517.541016"/>
      <use xlink:href="#DejaVuSans-59" x="578.199219"/>
      <use xlink:href="#DejaVuSans-2d" x="627.408203"/>
      <use xlink:href="#DejaVuSans-35" x="663.492188"/>
     </g>
    </g>
   </g>
  </g>
 </g>
 <defs>
  <clipPath id="p947cf18156">
   <rect x="77.13" y="12.96" width="370.71" height="281.7"/>
  </clipPath>
 </defs>
</svg>
