<?xml version="1.0" encoding="utf-8" standalone="no"?>
<!DOCTYPE svg PUBLIC "-//W3C//DTD SVG 1.1//EN"
  "http://www.w3.org/Graphics/SVG/1.1/DTD/svg11.dtd">
<svg xmlns:xlink="http://www.w3.org/1999/xlink" width="460.8pt" height="345.6pt" viewBox="0 0 460.8 345.6" xmlns="http://www.w3.org/2000/svg" version="1.1">
 <metadata>
  <rdf:RDF xmlns:dc="http://purl.org/dc/elements/1.1/" xmlns:cc="http://creativecommons.org/ns#" xmlns:rdf="http://www.w3.org/1999/02/22-rdf-syntax-ns#">
   <cc:Work>
    <dc:type rdf:resource="http://purl.org/dc/dcmitype/StillImage"/>
    <dc:date>2022-09-10T15:50:14.914512</dc:date>
    <dc:format>image/svg+xml</dc:format>
    <dc:creator>
     <cc:Agent>
      <dc:title>Matplotlib v3.5.3, https://matplotlib.org/</dc:title>
     </cc:Agent>
    </dc:creator>
   </cc:Work>
  </rdf:RDF>
 </metadata>
 <defs>
  <style type="text/css">*{stroke-linejoin: round; stroke-linecap: butt}</style>
 </defs>
 <g id="figure_1">
  <g id="patch_1">
   <path d="M 0 345.6 
L 460.8 345.6 
L 460.8 0 
L 0 0 
z
" style="fill: #ffffff"/>
  </g>
  <g id="axes_1">
   <g id="patch_2">
    <path d="M 77.13 294.66 
L 447.84 294.66 
L 447.84 29.76 
L 77.13 29.76 
z
" style="fill: #eaeaf2"/>
   </g>
   <g id="matplotlib.axis_1">
    <g id="xtick_1">
     <g id="line2d_1">
      <path d="M 91.148445 294.66 
L 91.148445 29.76 
" clip-path="url(#p58c28c9e57)" style="fill: none; stroke: #ffffff; stroke-linecap: round"/>
     </g>
     <g id="text_1">
      <!-- 0.00 -->
      <g style="fill: #262626" transform="translate(78.902352 312.518281)scale(0.11 -0.11)">
       <defs>
        <path id="DejaVuSans-30" d="M 2034 4250 
Q 1547 4250 1301 3770 
Q 1056 3291 1056 2328 
Q 1056 1369 1301 889 
Q 1547 409 2034 409 
Q 2525 409 2770 889 
Q 3016 1369 3016 2328 
Q 3016 3291 2770 3770 
Q 2525 4250 2034 4250 
z
M 2034 4750 
Q 2819 4750 3233 4129 
Q 3647 3509 3647 2328 
Q 3647 1150 3233 529 
Q 2819 -91 2034 -91 
Q 1250 -91 836 529 
Q 422 1150 422 2328 
Q 422 3509 836 4129 
Q 1250 4750 2034 4750 
z
" transform="scale(0.015625)"/>
        <path id="DejaVuSans-2e" d="M 684 794 
L 1344 794 
L 1344 0 
L 684 0 
L 684 794 
z
" transform="scale(0.015625)"/>
       </defs>
       <use xlink:href="#DejaVuSans-30"/>
       <use xlink:href="#DejaVuSans-2e" x="63.623047"/>
       <use xlink:href="#DejaVuSans-30" x="95.410156"/>
       <use xlink:href="#DejaVuSans-30" x="159.033203"/>
      </g>
     </g>
    </g>
    <g id="xtick_2">
     <g id="line2d_2">
      <path d="M 147.788629 294.66 
L 147.788629 29.76 
" clip-path="url(#p58c28c9e57)" style="fill: none; stroke: #ffffff; stroke-linecap: round"/>
     </g>
     <g id="text_2">
      <!-- 0.05 -->
      <g style="fill: #262626" transform="translate(135.542535 312.518281)scale(0.11 -0.11)">
       <defs>
        <path id="DejaVuSans-35" d="M 691 4666 
L 3169 4666 
L 3169 4134 
L 1269 4134 
L 1269 2991 
Q 1406 3038 1543 3061 
Q 1681 3084 1819 3084 
Q 2600 3084 3056 2656 
Q 3513 2228 3513 1497 
Q 3513 744 3044 326 
Q 2575 -91 1722 -91 
Q 1428 -91 1123 -41 
Q 819 9 494 109 
L 494 744 
Q 775 591 1075 516 
Q 1375 441 1709 441 
Q 2250 441 2565 725 
Q 2881 1009 2881 1497 
Q 2881 1984 2565 2268 
Q 2250 2553 1709 2553 
Q 1456 2553 1204 2497 
Q 953 2441 691 2322 
L 691 4666 
z
" transform="scale(0.015625)"/>
       </defs>
       <use xlink:href="#DejaVuSans-30"/>
       <use xlink:href="#DejaVuSans-2e" x="63.623047"/>
       <use xlink:href="#DejaVuSans-30" x="95.410156"/>
       <use xlink:href="#DejaVuSans-35" x="159.033203"/>
      </g>
     </g>
    </g>
    <g id="xtick_3">
     <g id="line2d_3">
      <path d="M 204.428812 294.66 
L 204.428812 29.76 
" clip-path="url(#p58c28c9e57)" style="fill: none; stroke: #ffffff; stroke-linecap: round"/>
     </g>
     <g id="text_3">
      <!-- 0.10 -->
      <g style="fill: #262626" transform="translate(192.182718 312.518281)scale(0.11 -0.11)">
       <defs>
        <path id="DejaVuSans-31" d="M 794 531 
L 1825 531 
L 1825 4091 
L 703 3866 
L 703 4441 
L 1819 4666 
L 2450 4666 
L 2450 531 
L 3481 531 
L 3481 0 
L 794 0 
L 794 531 
z
" transform="scale(0.015625)"/>
       </defs>
       <use xlink:href="#DejaVuSans-30"/>
       <use xlink:href="#DejaVuSans-2e" x="63.623047"/>
       <use xlink:href="#DejaVuSans-31" x="95.410156"/>
       <use xlink:href="#DejaVuSans-30" x="159.033203"/>
      </g>
     </g>
    </g>
    <g id="xtick_4">
     <g id="line2d_4">
      <path d="M 261.068995 294.66 
L 261.068995 29.76 
" clip-path="url(#p58c28c9e57)" style="fill: none; stroke: #ffffff; stroke-linecap: round"/>
     </g>
     <g id="text_4">
      <!-- 0.15 -->
      <g style="fill: #262626" transform="translate(248.822902 312.518281)scale(0.11 -0.11)">
       <use xlink:href="#DejaVuSans-30"/>
       <use xlink:href="#DejaVuSans-2e" x="63.623047"/>
       <use xlink:href="#DejaVuSans-31" x="95.410156"/>
       <use xlink:href="#DejaVuSans-35" x="159.033203"/>
      </g>
     </g>
    </g>
    <g id="xtick_5">
     <g id="line2d_5">
      <path d="M 317.709179 294.66 
L 317.709179 29.76 
" clip-path="url(#p58c28c9e57)" style="fill: none; stroke: #ffffff; stroke-linecap: round"/>
     </g>
     <g id="text_5">
      <!-- 0.20 -->
      <g style="fill: #262626" transform="translate(305.463085 312.518281)scale(0.11 -0.11)">
       <defs>
        <path id="DejaVuSans-32" d="M 1228 531 
L 3431 531 
L 3431 0 
L 469 0 
L 469 531 
Q 828 903 1448 1529 
Q 2069 2156 2228 2338 
Q 2531 2678 2651 2914 
Q 2772 3150 2772 3378 
Q 2772 3750 2511 3984 
Q 2250 4219 1831 4219 
Q 1534 4219 1204 4116 
Q 875 4013 500 3803 
L 500 4441 
Q 881 4594 1212 4672 
Q 1544 4750 1819 4750 
Q 2544 4750 2975 4387 
Q 3406 4025 3406 3419 
Q 3406 3131 3298 2873 
Q 3191 2616 2906 2266 
Q 2828 2175 2409 1742 
Q 1991 1309 1228 531 
z
" transform="scale(0.015625)"/>
       </defs>
       <use xlink:href="#DejaVuSans-30"/>
       <use xlink:href="#DejaVuSans-2e" x="63.623047"/>
       <use xlink:href="#DejaVuSans-32" x="95.410156"/>
       <use xlink:href="#DejaVuSans-30" x="159.033203"/>
      </g>
     </g>
    </g>
    <g id="xtick_6">
     <g id="line2d_6">
      <path d="M 374.349362 294.66 
L 374.349362 29.76 
" clip-path="url(#p58c28c9e57)" style="fill: none; stroke: #ffffff; stroke-linecap: round"/>
     </g>
     <g id="text_6">
      <!-- 0.25 -->
      <g style="fill: #262626" transform="translate(362.103268 312.518281)scale(0.11 -0.11)">
       <use xlink:href="#DejaVuSans-30"/>
       <use xlink:href="#DejaVuSans-2e" x="63.623047"/>
       <use xlink:href="#DejaVuSans-32" x="95.410156"/>
       <use xlink:href="#DejaVuSans-35" x="159.033203"/>
      </g>
     </g>
    </g>
    <g id="xtick_7">
     <g id="line2d_7">
      <path d="M 430.989545 294.66 
L 430.989545 29.76 
" clip-path="url(#p58c28c9e57)" style="fill: none; stroke: #ffffff; stroke-linecap: round"/>
     </g>
     <g id="text_7">
      <!-- 0.30 -->
      <g style="fill: #262626" transform="translate(418.743452 312.518281)scale(0.11 -0.11)">
       <defs>
        <path id="DejaVuSans-33" d="M 2597 2516 
Q 3050 2419 3304 2112 
Q 3559 1806 3559 1356 
Q 3559 666 3084 287 
Q 2609 -91 1734 -91 
Q 1441 -91 1130 -33 
Q 819 25 488 141 
L 488 750 
Q 750 597 1062 519 
Q 1375 441 1716 441 
Q 2309 441 2620 675 
Q 2931 909 2931 1356 
Q 2931 1769 2642 2001 
Q 2353 2234 1838 2234 
L 1294 2234 
L 1294 2753 
L 1863 2753 
Q 2328 2753 2575 2939 
Q 2822 3125 2822 3475 
Q 2822 3834 2567 4026 
Q 2313 4219 1838 4219 
Q 1578 4219 1281 4162 
Q 984 4106 628 3988 
L 628 4550 
Q 988 4650 1302 4700 
Q 1616 4750 1894 4750 
Q 2613 4750 3031 4423 
Q 3450 4097 3450 3541 
Q 3450 3153 3228 2886 
Q 3006 2619 2597 2516 
z
" transform="scale(0.015625)"/>
       </defs>
       <use xlink:href="#DejaVuSans-30"/>
       <use xlink:href="#DejaVuSans-2e" x="63.623047"/>
       <use xlink:href="#DejaVuSans-33" x="95.410156"/>
       <use xlink:href="#DejaVuSans-30" x="159.033203"/>
      </g>
     </g>
    </g>
    <g id="text_8">
     <!-- Timesteps (in Million) -->
     <g style="fill: #262626" transform="translate(187.739219 329.44375)scale(0.14 -0.14)">
      <defs>
       <path id="DejaVuSans-54" d="M -19 4666 
L 3928 4666 
L 3928 4134 
L 2272 4134 
L 2272 0 
L 1638 0 
L 1638 4134 
L -19 4134 
L -19 4666 
z
" transform="scale(0.015625)"/>
       <path id="DejaVuSans-69" d="M 603 3500 
L 1178 3500 
L 1178 0 
L 603 0 
L 603 3500 
z
M 603 4863 
L 1178 4863 
L 1178 4134 
L 603 4134 
L 603 4863 
z
" transform="scale(0.015625)"/>
       <path id="DejaVuSans-6d" d="M 3328 2828 
Q 3544 3216 3844 3400 
Q 4144 3584 4550 3584 
Q 5097 3584 5394 3201 
Q 5691 2819 5691 2113 
L 5691 0 
L 5113 0 
L 5113 2094 
Q 5113 2597 4934 2840 
Q 4756 3084 4391 3084 
Q 3944 3084 3684 2787 
Q 3425 2491 3425 1978 
L 3425 0 
L 2847 0 
L 2847 2094 
Q 2847 2600 2669 2842 
Q 2491 3084 2119 3084 
Q 1678 3084 1418 2786 
Q 1159 2488 1159 1978 
L 1159 0 
L 581 0 
L 581 3500 
L 1159 3500 
L 1159 2956 
Q 1356 3278 1631 3431 
Q 1906 3584 2284 3584 
Q 2666 3584 2933 3390 
Q 3200 3197 3328 2828 
z
" transform="scale(0.015625)"/>
       <path id="DejaVuSans-65" d="M 3597 1894 
L 3597 1613 
L 953 1613 
Q 991 1019 1311 708 
Q 1631 397 2203 397 
Q 2534 397 2845 478 
Q 3156 559 3463 722 
L 3463 178 
Q 3153 47 2828 -22 
Q 2503 -91 2169 -91 
Q 1331 -91 842 396 
Q 353 884 353 1716 
Q 353 2575 817 3079 
Q 1281 3584 2069 3584 
Q 2775 3584 3186 3129 
Q 3597 2675 3597 1894 
z
M 3022 2063 
Q 3016 2534 2758 2815 
Q 2500 3097 2075 3097 
Q 1594 3097 1305 2825 
Q 1016 2553 972 2059 
L 3022 2063 
z
" transform="scale(0.015625)"/>
       <path id="DejaVuSans-73" d="M 2834 3397 
L 2834 2853 
Q 2591 2978 2328 3040 
Q 2066 3103 1784 3103 
Q 1356 3103 1142 2972 
Q 928 2841 928 2578 
Q 928 2378 1081 2264 
Q 1234 2150 1697 2047 
L 1894 2003 
Q 2506 1872 2764 1633 
Q 3022 1394 3022 966 
Q 3022 478 2636 193 
Q 2250 -91 1575 -91 
Q 1294 -91 989 -36 
Q 684 19 347 128 
L 347 722 
Q 666 556 975 473 
Q 1284 391 1588 391 
Q 1994 391 2212 530 
Q 2431 669 2431 922 
Q 2431 1156 2273 1281 
Q 2116 1406 1581 1522 
L 1381 1569 
Q 847 1681 609 1914 
Q 372 2147 372 2553 
Q 372 3047 722 3315 
Q 1072 3584 1716 3584 
Q 2034 3584 2315 3537 
Q 2597 3491 2834 3397 
z
" transform="scale(0.015625)"/>
       <path id="DejaVuSans-74" d="M 1172 4494 
L 1172 3500 
L 2356 3500 
L 2356 3053 
L 1172 3053 
L 1172 1153 
Q 1172 725 1289 603 
Q 1406 481 1766 481 
L 2356 481 
L 2356 0 
L 1766 0 
Q 1100 0 847 248 
Q 594 497 594 1153 
L 594 3053 
L 172 3053 
L 172 3500 
L 594 3500 
L 594 4494 
L 1172 4494 
z
" transform="scale(0.015625)"/>
       <path id="DejaVuSans-70" d="M 1159 525 
L 1159 -1331 
L 581 -1331 
L 581 3500 
L 1159 3500 
L 1159 2969 
Q 1341 3281 1617 3432 
Q 1894 3584 2278 3584 
Q 2916 3584 3314 3078 
Q 3713 2572 3713 1747 
Q 3713 922 3314 415 
Q 2916 -91 2278 -91 
Q 1894 -91 1617 61 
Q 1341 213 1159 525 
z
M 3116 1747 
Q 3116 2381 2855 2742 
Q 2594 3103 2138 3103 
Q 1681 3103 1420 2742 
Q 1159 2381 1159 1747 
Q 1159 1113 1420 752 
Q 1681 391 2138 391 
Q 2594 391 2855 752 
Q 3116 1113 3116 1747 
z
" transform="scale(0.015625)"/>
       <path id="DejaVuSans-20" transform="scale(0.015625)"/>
       <path id="DejaVuSans-28" d="M 1984 4856 
Q 1566 4138 1362 3434 
Q 1159 2731 1159 2009 
Q 1159 1288 1364 580 
Q 1569 -128 1984 -844 
L 1484 -844 
Q 1016 -109 783 600 
Q 550 1309 550 2009 
Q 550 2706 781 3412 
Q 1013 4119 1484 4856 
L 1984 4856 
z
" transform="scale(0.015625)"/>
       <path id="DejaVuSans-6e" d="M 3513 2113 
L 3513 0 
L 2938 0 
L 2938 2094 
Q 2938 2591 2744 2837 
Q 2550 3084 2163 3084 
Q 1697 3084 1428 2787 
Q 1159 2491 1159 1978 
L 1159 0 
L 581 0 
L 581 3500 
L 1159 3500 
L 1159 2956 
Q 1366 3272 1645 3428 
Q 1925 3584 2291 3584 
Q 2894 3584 3203 3211 
Q 3513 2838 3513 2113 
z
" transform="scale(0.015625)"/>
       <path id="DejaVuSans-4d" d="M 628 4666 
L 1569 4666 
L 2759 1491 
L 3956 4666 
L 4897 4666 
L 4897 0 
L 4281 0 
L 4281 4097 
L 3078 897 
L 2444 897 
L 1241 4097 
L 1241 0 
L 628 0 
L 628 4666 
z
" transform="scale(0.015625)"/>
       <path id="DejaVuSans-6c" d="M 603 4863 
L 1178 4863 
L 1178 0 
L 603 0 
L 603 4863 
z
" transform="scale(0.015625)"/>
       <path id="DejaVuSans-6f" d="M 1959 3097 
Q 1497 3097 1228 2736 
Q 959 2375 959 1747 
Q 959 1119 1226 758 
Q 1494 397 1959 397 
Q 2419 397 2687 759 
Q 2956 1122 2956 1747 
Q 2956 2369 2687 2733 
Q 2419 3097 1959 3097 
z
M 1959 3584 
Q 2709 3584 3137 3096 
Q 3566 2609 3566 1747 
Q 3566 888 3137 398 
Q 2709 -91 1959 -91 
Q 1206 -91 779 398 
Q 353 888 353 1747 
Q 353 2609 779 3096 
Q 1206 3584 1959 3584 
z
" transform="scale(0.015625)"/>
       <path id="DejaVuSans-29" d="M 513 4856 
L 1013 4856 
Q 1481 4119 1714 3412 
Q 1947 2706 1947 2009 
Q 1947 1309 1714 600 
Q 1481 -109 1013 -844 
L 513 -844 
Q 928 -128 1133 580 
Q 1338 1288 1338 2009 
Q 1338 2731 1133 3434 
Q 928 4138 513 4856 
z
" transform="scale(0.015625)"/>
      </defs>
      <use xlink:href="#DejaVuSans-54"/>
      <use xlink:href="#DejaVuSans-69" x="57.958984"/>
      <use xlink:href="#DejaVuSans-6d" x="85.742188"/>
      <use xlink:href="#DejaVuSans-65" x="183.154297"/>
      <use xlink:href="#DejaVuSans-73" x="244.677734"/>
      <use xlink:href="#DejaVuSans-74" x="296.777344"/>
      <use xlink:href="#DejaVuSans-65" x="335.986328"/>
      <use xlink:href="#DejaVuSans-70" x="397.509766"/>
      <use xlink:href="#DejaVuSans-73" x="460.986328"/>
      <use xlink:href="#DejaVuSans-20" x="513.085938"/>
      <use xlink:href="#DejaVuSans-28" x="544.873047"/>
      <use xlink:href="#DejaVuSans-69" x="583.886719"/>
      <use xlink:href="#DejaVuSans-6e" x="611.669922"/>
      <use xlink:href="#DejaVuSans-20" x="675.048828"/>
      <use xlink:href="#DejaVuSans-4d" x="706.835938"/>
      <use xlink:href="#DejaVuSans-69" x="793.115234"/>
      <use xlink:href="#DejaVuSans-6c" x="820.898438"/>
      <use xlink:href="#DejaVuSans-6c" x="848.681641"/>
      <use xlink:href="#DejaVuSans-69" x="876.464844"/>
      <use xlink:href="#DejaVuSans-6f" x="904.248047"/>
      <use xlink:href="#DejaVuSans-6e" x="965.429688"/>
      <use xlink:href="#DejaVuSans-29" x="1028.808594"/>
     </g>
    </g>
   </g>
   <g id="matplotlib.axis_2">
    <g id="ytick_1">
     <g id="line2d_8">
      <path d="M 77.13 239.213257 
L 447.84 239.213257 
" clip-path="url(#p58c28c9e57)" style="fill: none; stroke: #ffffff; stroke-linecap: round"/>
     </g>
     <g id="text_9">
      <!-- −3000 -->
      <g style="fill: #262626" transform="translate(30.417344 243.392398)scale(0.11 -0.11)">
       <defs>
        <path id="DejaVuSans-2212" d="M 678 2272 
L 4684 2272 
L 4684 1741 
L 678 1741 
L 678 2272 
z
" transform="scale(0.015625)"/>
       </defs>
       <use xlink:href="#DejaVuSans-2212"/>
       <use xlink:href="#DejaVuSans-33" x="83.789062"/>
       <use xlink:href="#DejaVuSans-30" x="147.412109"/>
       <use xlink:href="#DejaVuSans-30" x="211.035156"/>
       <use xlink:href="#DejaVuSans-30" x="274.658203"/>
      </g>
     </g>
    </g>
    <g id="ytick_2">
     <g id="line2d_9">
      <path d="M 77.13 181.297702 
L 447.84 181.297702 
" clip-path="url(#p58c28c9e57)" style="fill: none; stroke: #ffffff; stroke-linecap: round"/>
     </g>
     <g id="text_10">
      <!-- −2000 -->
      <g style="fill: #262626" transform="translate(30.417344 185.476842)scale(0.11 -0.11)">
       <use xlink:href="#DejaVuSans-2212"/>
       <use xlink:href="#DejaVuSans-32" x="83.789062"/>
       <use xlink:href="#DejaVuSans-30" x="147.412109"/>
       <use xlink:href="#DejaVuSans-30" x="211.035156"/>
       <use xlink:href="#DejaVuSans-30" x="274.658203"/>
      </g>
     </g>
    </g>
    <g id="ytick_3">
     <g id="line2d_10">
      <path d="M 77.13 123.382146 
L 447.84 123.382146 
" clip-path="url(#p58c28c9e57)" style="fill: none; stroke: #ffffff; stroke-linecap: round"/>
     </g>
     <g id="text_11">
      <!-- −1000 -->
      <g style="fill: #262626" transform="translate(30.417344 127.561287)scale(0.11 -0.11)">
       <use xlink:href="#DejaVuSans-2212"/>
       <use xlink:href="#DejaVuSans-31" x="83.789062"/>
       <use xlink:href="#DejaVuSans-30" x="147.412109"/>
       <use xlink:href="#DejaVuSans-30" x="211.035156"/>
       <use xlink:href="#DejaVuSans-30" x="274.658203"/>
      </g>
     </g>
    </g>
    <g id="ytick_4">
     <g id="line2d_11">
      <path d="M 77.13 65.466591 
L 447.84 65.466591 
" clip-path="url(#p58c28c9e57)" style="fill: none; stroke: #ffffff; stroke-linecap: round"/>
     </g>
     <g id="text_12">
      <!-- 0 -->
      <g style="fill: #262626" transform="translate(60.63125 69.645731)scale(0.11 -0.11)">
       <use xlink:href="#DejaVuSans-30"/>
      </g>
     </g>
    </g>
    <g id="text_13">
     <!-- Score -->
     <g style="fill: #262626" transform="translate(23.505781 181.813281)rotate(-90)scale(0.14 -0.14)">
      <defs>
       <path id="DejaVuSans-53" d="M 3425 4513 
L 3425 3897 
Q 3066 4069 2747 4153 
Q 2428 4238 2131 4238 
Q 1616 4238 1336 4038 
Q 1056 3838 1056 3469 
Q 1056 3159 1242 3001 
Q 1428 2844 1947 2747 
L 2328 2669 
Q 3034 2534 3370 2195 
Q 3706 1856 3706 1288 
Q 3706 609 3251 259 
Q 2797 -91 1919 -91 
Q 1588 -91 1214 -16 
Q 841 59 441 206 
L 441 856 
Q 825 641 1194 531 
Q 1563 422 1919 422 
Q 2459 422 2753 634 
Q 3047 847 3047 1241 
Q 3047 1584 2836 1778 
Q 2625 1972 2144 2069 
L 1759 2144 
Q 1053 2284 737 2584 
Q 422 2884 422 3419 
Q 422 4038 858 4394 
Q 1294 4750 2059 4750 
Q 2388 4750 2728 4690 
Q 3069 4631 3425 4513 
z
" transform="scale(0.015625)"/>
       <path id="DejaVuSans-63" d="M 3122 3366 
L 3122 2828 
Q 2878 2963 2633 3030 
Q 2388 3097 2138 3097 
Q 1578 3097 1268 2742 
Q 959 2388 959 1747 
Q 959 1106 1268 751 
Q 1578 397 2138 397 
Q 2388 397 2633 464 
Q 2878 531 3122 666 
L 3122 134 
Q 2881 22 2623 -34 
Q 2366 -91 2075 -91 
Q 1284 -91 818 406 
Q 353 903 353 1747 
Q 353 2603 823 3093 
Q 1294 3584 2113 3584 
Q 2378 3584 2631 3529 
Q 2884 3475 3122 3366 
z
" transform="scale(0.015625)"/>
       <path id="DejaVuSans-72" d="M 2631 2963 
Q 2534 3019 2420 3045 
Q 2306 3072 2169 3072 
Q 1681 3072 1420 2755 
Q 1159 2438 1159 1844 
L 1159 0 
L 581 0 
L 581 3500 
L 1159 3500 
L 1159 2956 
Q 1341 3275 1631 3429 
Q 1922 3584 2338 3584 
Q 2397 3584 2469 3576 
Q 2541 3569 2628 3553 
L 2631 2963 
z
" transform="scale(0.015625)"/>
      </defs>
      <use xlink:href="#DejaVuSans-53"/>
      <use xlink:href="#DejaVuSans-63" x="63.476562"/>
      <use xlink:href="#DejaVuSans-6f" x="118.457031"/>
      <use xlink:href="#DejaVuSans-72" x="179.638672"/>
      <use xlink:href="#DejaVuSans-65" x="218.501953"/>
     </g>
    </g>
   </g>
   <g id="PolyCollection_1">
    <defs>
     <path id="m29a7046466" d="M 93.980455 -101.757277 
L 93.980455 -155.935789 
L 96.812464 -162.149832 
L 99.644473 -157.438442 
L 102.476482 -176.349959 
L 105.308491 -200.496368 
L 108.1405 -183.057008 
L 110.97251 -176.850265 
L 113.804519 -179.235434 
L 116.636528 -174.013243 
L 119.468537 -225.404024 
L 122.300546 -210.813206 
L 125.132555 -189.542785 
L 127.964565 -197.531723 
L 130.796574 -197.092253 
L 133.628583 -201.226607 
L 136.460592 -238.536905 
L 139.292601 -214.01691 
L 142.12461 -185.154858 
L 144.95662 -228.573415 
L 147.788629 -227.634186 
L 150.620638 -236.478493 
L 153.452647 -228.128619 
L 156.284656 -227.630307 
L 159.116665 -233.717541 
L 161.948675 -242.333045 
L 164.780684 -232.87249 
L 167.612693 -233.608484 
L 170.444702 -240.905971 
L 173.276711 -266.784792 
L 176.10872 -248.249047 
L 178.94073 -246.634137 
L 181.772739 -242.316604 
L 184.604748 -250.427907 
L 187.436757 -254.787581 
L 190.268766 -246.622643 
L 193.100775 -244.260359 
L 195.932785 -263.417183 
L 198.764794 -268.694948 
L 201.596803 -269.891063 
L 204.428812 -260.552179 
L 207.260821 -279.333579 
L 210.09283 -267.372863 
L 212.92484 -267.988456 
L 215.756849 -264.291635 
L 218.588858 -293.116757 
L 221.420867 -253.250078 
L 224.252876 -263.723646 
L 227.084885 -298.381386 
L 229.916895 -282.084675 
L 232.748904 -279.142621 
L 235.580913 -284.286444 
L 238.412922 -271.655245 
L 241.244931 -281.285429 
L 244.07694 -266.751126 
L 246.90895 -280.937864 
L 249.740959 -278.009526 
L 252.572968 -256.306054 
L 255.404977 -285.287302 
L 258.236986 -275.781659 
L 261.068995 -272.023438 
L 263.901005 -263.617915 
L 266.733014 -275.952244 
L 269.565023 -278.436459 
L 272.397032 -281.25851 
L 275.229041 -263.596218 
L 278.06105 -267.245891 
L 280.89306 -262.81986 
L 283.725069 -266.777045 
L 286.557078 -274.822146 
L 289.389087 -274.444119 
L 292.221096 -273.939794 
L 295.053105 -271.391685 
L 297.885115 -276.518849 
L 300.717124 -261.449012 
L 303.549133 -271.821997 
L 306.381142 -263.298053 
L 309.213151 -270.02573 
L 312.04516 -256.290868 
L 314.87717 -260.852808 
L 317.709179 -266.889722 
L 320.541188 -272.870984 
L 323.373197 -266.035488 
L 326.205206 -266.988156 
L 329.037215 -270.216707 
L 331.869225 -270.901107 
L 334.701234 -276.996659 
L 337.533243 -259.942225 
L 340.365252 -255.131327 
L 343.197261 -267.371845 
L 346.02927 -272.565975 
L 348.86128 -267.72687 
L 351.693289 -270.251197 
L 354.525298 -272.642888 
L 357.357307 -272.166946 
L 360.189316 -268.042531 
L 363.021325 -259.775181 
L 365.853335 -266.257563 
L 368.685344 -263.719786 
L 371.517353 -272.526472 
L 374.349362 -270.254419 
L 377.181371 -274.497982 
L 380.01338 -266.997249 
L 382.84539 -269.433075 
L 385.677399 -265.633388 
L 388.509408 -272.219996 
L 391.341417 -273.508541 
L 394.173426 -271.637855 
L 397.005435 -269.450138 
L 399.837445 -271.873953 
L 402.669454 -257.588006 
L 405.501463 -270.866404 
L 408.333472 -283.935075 
L 411.165481 -269.77451 
L 413.99749 -285.270014 
L 416.8295 -272.533422 
L 419.661509 -269.484491 
L 422.493518 -269.061098 
L 425.325527 -278.012358 
L 428.157536 -271.476876 
L 430.989545 -267.352222 
L 430.989545 -212.338224 
L 430.989545 -212.338224 
L 428.157536 -215.981509 
L 425.325527 -202.686674 
L 422.493518 -226.561585 
L 419.661509 -216.50191 
L 416.8295 -225.179904 
L 413.99749 -221.262705 
L 411.165481 -234.692026 
L 408.333472 -225.192897 
L 405.501463 -215.867928 
L 402.669454 -216.148405 
L 399.837445 -225.867434 
L 397.005435 -196.385848 
L 394.173426 -196.240952 
L 391.341417 -200.623251 
L 388.509408 -173.531675 
L 385.677399 -210.192709 
L 382.84539 -224.061581 
L 380.01338 -221.917901 
L 377.181371 -215.164925 
L 374.349362 -208.943079 
L 371.517353 -215.196138 
L 368.685344 -220.505615 
L 365.853335 -242.0968 
L 363.021325 -223.963887 
L 360.189316 -226.090951 
L 357.357307 -229.90525 
L 354.525298 -232.22669 
L 351.693289 -251.173183 
L 348.86128 -235.136793 
L 346.02927 -243.192392 
L 343.197261 -224.439357 
L 340.365252 -215.149878 
L 337.533243 -216.49369 
L 334.701234 -222.903254 
L 331.869225 -218.570029 
L 329.037215 -222.09062 
L 326.205206 -220.432186 
L 323.373197 -240.905679 
L 320.541188 -233.455999 
L 317.709179 -227.760634 
L 314.87717 -215.371761 
L 312.04516 -240.40175 
L 309.213151 -222.192017 
L 306.381142 -240.21243 
L 303.549133 -209.537511 
L 300.717124 -235.474602 
L 297.885115 -212.7098 
L 295.053105 -237.310508 
L 292.221096 -233.471421 
L 289.389087 -199.734106 
L 286.557078 -232.011507 
L 283.725069 -199.894693 
L 280.89306 -217.210021 
L 278.06105 -231.080241 
L 275.229041 -219.320631 
L 272.397032 -224.477835 
L 269.565023 -216.477481 
L 266.733014 -228.781426 
L 263.901005 -231.702238 
L 261.068995 -224.57642 
L 258.236986 -204.120162 
L 255.404977 -219.414324 
L 252.572968 -236.77641 
L 249.740959 -236.016717 
L 246.90895 -243.187565 
L 244.07694 -246.565565 
L 241.244931 -226.873795 
L 238.412922 -241.176308 
L 235.580913 -234.284205 
L 232.748904 -222.224829 
L 229.916895 -225.809346 
L 227.084885 -230.438119 
L 224.252876 -182.028739 
L 221.420867 -218.258424 
L 218.588858 -210.737333 
L 215.756849 -211.119982 
L 212.92484 -222.238362 
L 210.09283 -238.346246 
L 207.260821 -207.561048 
L 204.428812 -204.722745 
L 201.596803 -224.041478 
L 198.764794 -199.595035 
L 195.932785 -223.602405 
L 193.100775 -201.092766 
L 190.268766 -218.658637 
L 187.436757 -221.353702 
L 184.604748 -195.321728 
L 181.772739 -215.000073 
L 178.94073 -186.034008 
L 176.10872 -180.143004 
L 173.276711 -188.069996 
L 170.444702 -186.324655 
L 167.612693 -201.749619 
L 164.780684 -186.504739 
L 161.948675 -181.248082 
L 159.116665 -189.845119 
L 156.284656 -190.534263 
L 153.452647 -173.257445 
L 150.620638 -152.465689 
L 147.788629 -178.159432 
L 144.95662 -194.252142 
L 142.12461 -168.648097 
L 139.292601 -171.563007 
L 136.460592 -171.92478 
L 133.628583 -157.718319 
L 130.796574 -151.74783 
L 127.964565 -154.386741 
L 125.132555 -165.457786 
L 122.300546 -151.135612 
L 119.468537 -138.501905 
L 116.636528 -156.890716 
L 113.804519 -146.899002 
L 110.97251 -151.472946 
L 108.1405 -156.42253 
L 105.308491 -144.771021 
L 102.476482 -114.374903 
L 99.644473 -127.827542 
L 96.812464 -140.681753 
L 93.980455 -101.757277 
z
" style="stroke: #ffffff; stroke-opacity: 0.5"/>
    </defs>
    <g clip-path="url(#p58c28c9e57)">
     <use xlink:href="#m29a7046466" x="0" y="345.6" style="fill: #4c72b0; fill-opacity: 0.5; stroke: #ffffff; stroke-opacity: 0.5"/>
    </g>
   </g>
   <g id="PolyCollection_2">
    <defs>
     <path id="m3b62008fc2" d="M 93.980455 -101.487284 
L 93.980455 -149.504682 
L 96.812464 -165.998048 
L 99.644473 -146.118988 
L 102.476482 -153.225869 
L 105.308491 -187.498055 
L 108.1405 -173.46489 
L 110.97251 -170.889887 
L 113.804519 -182.218535 
L 116.636528 -221.415672 
L 119.468537 -220.93456 
L 122.300546 -267.118583 
L 125.132555 -226.737632 
L 127.964565 -274.925457 
L 130.796574 -253.883585 
L 133.628583 -287.891796 
L 136.460592 -244.801846 
L 139.292601 -280.846597 
L 142.12461 -267.424759 
L 144.95662 -255.983891 
L 147.788629 -270.649594 
L 150.620638 -288.720841 
L 153.452647 -282.215597 
L 156.284656 -262.612695 
L 159.116665 -281.897642 
L 161.948675 -292.213218 
L 164.780684 -292.078861 
L 167.612693 -289.880167 
L 170.444702 -298.479454 
L 173.276711 -290.968218 
L 176.10872 -281.670846 
L 178.94073 -288.804143 
L 181.772739 -279.183643 
L 184.604748 -284.632802 
L 187.436757 -293.571038 
L 190.268766 -293.219106 
L 193.100775 -298.33334 
L 195.932785 -289.281316 
L 198.764794 -286.907971 
L 201.596803 -297.195424 
L 204.428812 -296.157021 
L 207.260821 -297.803552 
L 210.09283 -285.044061 
L 212.92484 -289.736283 
L 215.756849 -289.738281 
L 218.588858 -290.499783 
L 221.420867 -287.203864 
L 224.252876 -279.013898 
L 227.084885 -284.233779 
L 229.916895 -292.550017 
L 232.748904 -297.19155 
L 235.580913 -285.475805 
L 238.412922 -292.478831 
L 241.244931 -284.368523 
L 244.07694 -297.534548 
L 246.90895 -292.654995 
L 249.740959 -295.67553 
L 252.572968 -297.474502 
L 255.404977 -289.807068 
L 258.236986 -296.173423 
L 261.068995 -295.569517 
L 263.901005 -293.324346 
L 266.733014 -288.897496 
L 269.565023 -284.375989 
L 272.397032 -295.768991 
L 275.229041 -291.790787 
L 278.06105 -287.646764 
L 280.89306 -291.276044 
L 283.725069 -293.356829 
L 286.557078 -297.071877 
L 289.389087 -295.08549 
L 292.221096 -294.178571 
L 295.053105 -296.24254 
L 297.885115 -291.487852 
L 300.717124 -292.40738 
L 303.549133 -291.596672 
L 306.381142 -291.52374 
L 309.213151 -297.474072 
L 312.04516 -296.144613 
L 314.87717 -289.080856 
L 317.709179 -287.526706 
L 320.541188 -290.271671 
L 323.373197 -293.218743 
L 326.205206 -287.15645 
L 329.037215 -294.834151 
L 331.869225 -291.548352 
L 334.701234 -288.727624 
L 337.533243 -291.793151 
L 340.365252 -287.749233 
L 343.197261 -294.437316 
L 346.02927 -290.711605 
L 348.86128 -296.912287 
L 351.693289 -292.460601 
L 354.525298 -299.82841 
L 357.357307 -291.115701 
L 360.189316 -290.928756 
L 363.021325 -294.480901 
L 365.853335 -290.305982 
L 368.685344 -299.538154 
L 371.517353 -295.743142 
L 374.349362 -291.048692 
L 377.181371 -296.167664 
L 380.01338 -293.987263 
L 382.84539 -292.765805 
L 385.677399 -295.347307 
L 388.509408 -297.868607 
L 391.341417 -290.805137 
L 394.173426 -295.036059 
L 397.005435 -294.576886 
L 399.837445 -289.794737 
L 402.669454 -291.348941 
L 405.501463 -283.187014 
L 408.333472 -292.695 
L 411.165481 -289.598492 
L 413.99749 -287.767086 
L 416.8295 -292.94563 
L 419.661509 -291.287027 
L 422.493518 -290.421781 
L 425.325527 -298.144083 
L 428.157536 -296.566273 
L 430.989545 -292.039568 
L 430.989545 -276.024759 
L 430.989545 -276.024759 
L 428.157536 -283.859483 
L 425.325527 -270.616424 
L 422.493518 -262.024083 
L 419.661509 -263.117563 
L 416.8295 -265.293035 
L 413.99749 -274.5764 
L 411.165481 -260.777904 
L 408.333472 -280.253596 
L 405.501463 -274.739889 
L 402.669454 -275.827516 
L 399.837445 -264.495365 
L 397.005435 -261.09097 
L 394.173426 -279.231195 
L 391.341417 -273.143478 
L 388.509408 -274.889996 
L 385.677399 -266.153238 
L 382.84539 -266.376974 
L 380.01338 -278.977501 
L 377.181371 -258.804626 
L 374.349362 -272.184625 
L 371.517353 -267.181708 
L 368.685344 -275.609448 
L 365.853335 -277.934916 
L 363.021325 -255.837612 
L 360.189316 -279.700615 
L 357.357307 -275.174404 
L 354.525298 -267.823883 
L 351.693289 -272.057671 
L 348.86128 -280.376647 
L 346.02927 -282.514975 
L 343.197261 -276.927649 
L 340.365252 -263.7514 
L 337.533243 -271.639144 
L 334.701234 -272.16344 
L 331.869225 -274.045458 
L 329.037215 -267.342806 
L 326.205206 -264.595016 
L 323.373197 -276.949522 
L 320.541188 -269.779721 
L 317.709179 -278.705848 
L 314.87717 -266.601891 
L 312.04516 -272.674345 
L 309.213151 -276.309642 
L 306.381142 -275.935012 
L 303.549133 -263.291415 
L 300.717124 -272.061875 
L 297.885115 -274.451189 
L 295.053105 -277.698642 
L 292.221096 -277.861144 
L 289.389087 -270.226965 
L 286.557078 -263.476642 
L 283.725069 -274.728214 
L 280.89306 -262.929965 
L 278.06105 -275.173687 
L 275.229041 -256.599506 
L 272.397032 -280.224365 
L 269.565023 -267.011034 
L 266.733014 -262.220266 
L 263.901005 -266.70229 
L 261.068995 -274.583616 
L 258.236986 -273.84359 
L 255.404977 -277.024662 
L 252.572968 -274.694647 
L 249.740959 -285.070523 
L 246.90895 -262.311701 
L 244.07694 -272.093386 
L 241.244931 -257.673439 
L 238.412922 -273.037359 
L 235.580913 -274.276135 
L 232.748904 -244.838382 
L 229.916895 -272.597508 
L 227.084885 -265.402608 
L 224.252876 -267.907825 
L 221.420867 -249.460349 
L 218.588858 -253.882594 
L 215.756849 -254.380474 
L 212.92484 -246.439113 
L 210.09283 -262.586483 
L 207.260821 -262.974864 
L 204.428812 -250.3063 
L 201.596803 -266.563907 
L 198.764794 -258.726978 
L 195.932785 -250.110659 
L 193.100775 -260.550735 
L 190.268766 -265.2198 
L 187.436757 -240.458144 
L 184.604748 -239.856684 
L 181.772739 -218.72571 
L 178.94073 -271.994014 
L 176.10872 -252.370234 
L 173.276711 -230.602623 
L 170.444702 -257.289694 
L 167.612693 -249.255989 
L 164.780684 -241.166451 
L 161.948675 -268.885631 
L 159.116665 -244.924196 
L 156.284656 -224.966898 
L 153.452647 -222.260509 
L 150.620638 -172.09471 
L 147.788629 -211.915056 
L 144.95662 -212.663711 
L 142.12461 -213.523127 
L 139.292601 -211.229645 
L 136.460592 -200.035145 
L 133.628583 -214.110211 
L 130.796574 -182.197234 
L 127.964565 -183.503978 
L 125.132555 -163.31366 
L 122.300546 -167.918377 
L 119.468537 -189.896948 
L 116.636528 -177.994367 
L 113.804519 -170.847054 
L 110.97251 -156.950241 
L 108.1405 -152.164244 
L 105.308491 -170.594275 
L 102.476482 -133.155827 
L 99.644473 -128.554772 
L 96.812464 -126.364367 
L 93.980455 -101.487284 
z
" style="stroke: #ffffff; stroke-opacity: 0.5"/>
    </defs>
    <g clip-path="url(#p58c28c9e57)">
     <use xlink:href="#m3b62008fc2" x="0" y="345.6" style="fill: #dd8452; fill-opacity: 0.5; stroke: #ffffff; stroke-opacity: 0.5"/>
    </g>
   </g>
   <g id="PolyCollection_3">
    <defs>
     <path id="me99c7f43f0" d="M 93.980455 -108.764122 
L 93.980455 -198.551172 
L 96.812464 -194.844425 
L 99.644473 -173.779513 
L 102.476482 -211.079416 
L 105.308491 -162.441354 
L 108.1405 -190.708895 
L 110.97251 -225.494559 
L 113.804519 -219.24649 
L 116.636528 -239.46752 
L 119.468537 -262.557893 
L 122.300546 -251.60339 
L 125.132555 -227.981437 
L 127.964565 -291.018063 
L 130.796574 -285.605634 
L 133.628583 -291.310416 
L 136.460592 -289.739759 
L 139.292601 -293.094117 
L 142.12461 -287.952019 
L 144.95662 -266.148656 
L 147.788629 -283.683768 
L 150.620638 -297.481178 
L 153.452647 -291.830155 
L 156.284656 -299.852579 
L 159.116665 -288.462149 
L 161.948675 -296.366301 
L 164.780684 -299.808573 
L 167.612693 -292.729706 
L 170.444702 -297.607048 
L 173.276711 -296.085499 
L 176.10872 -294.738223 
L 178.94073 -303.799091 
L 181.772739 -293.342355 
L 184.604748 -299.617758 
L 187.436757 -300.563045 
L 190.268766 -296.404643 
L 193.100775 -292.894709 
L 195.932785 -298.952735 
L 198.764794 -296.29984 
L 201.596803 -294.934312 
L 204.428812 -295.74165 
L 207.260821 -294.621121 
L 210.09283 -302.301435 
L 212.92484 -297.33061 
L 215.756849 -292.078892 
L 218.588858 -294.112884 
L 221.420867 -294.774688 
L 224.252876 -295.824152 
L 227.084885 -294.97941 
L 229.916895 -297.344094 
L 232.748904 -298.398487 
L 235.580913 -297.812971 
L 238.412922 -295.387038 
L 241.244931 -294.485198 
L 244.07694 -294.273619 
L 246.90895 -294.680081 
L 249.740959 -297.896805 
L 252.572968 -296.661367 
L 255.404977 -293.445868 
L 258.236986 -293.973812 
L 261.068995 -297.070582 
L 263.901005 -298.215575 
L 266.733014 -294.383926 
L 269.565023 -295.235947 
L 272.397032 -294.291202 
L 275.229041 -296.670465 
L 278.06105 -297.116289 
L 280.89306 -299.288335 
L 283.725069 -295.456893 
L 286.557078 -302.091139 
L 289.389087 -298.408537 
L 292.221096 -295.228505 
L 295.053105 -296.797044 
L 297.885115 -295.698085 
L 300.717124 -297.883396 
L 303.549133 -296.380364 
L 306.381142 -293.738349 
L 309.213151 -292.63845 
L 312.04516 -294.656217 
L 314.87717 -295.656901 
L 317.709179 -292.489212 
L 320.541188 -292.81999 
L 323.373197 -294.095282 
L 326.205206 -295.695252 
L 329.037215 -293.142841 
L 331.869225 -300.501853 
L 334.701234 -293.440928 
L 337.533243 -295.371351 
L 340.365252 -299.05909 
L 343.197261 -292.086169 
L 346.02927 -294.767832 
L 348.86128 -292.154137 
L 351.693289 -293.177418 
L 354.525298 -296.527494 
L 357.357307 -296.581209 
L 360.189316 -293.336376 
L 363.021325 -293.329435 
L 365.853335 -293.277272 
L 368.685344 -293.820978 
L 371.517353 -291.030627 
L 374.349362 -297.613536 
L 377.181371 -297.390598 
L 380.01338 -294.38574 
L 382.84539 -297.157234 
L 385.677399 -294.269793 
L 388.509408 -293.171262 
L 391.341417 -295.071189 
L 394.173426 -293.690345 
L 397.005435 -294.795611 
L 399.837445 -293.411979 
L 402.669454 -295.42332 
L 405.501463 -293.1474 
L 408.333472 -292.761983 
L 411.165481 -292.508966 
L 413.99749 -293.617843 
L 416.8295 -294.185065 
L 419.661509 -293.411859 
L 422.493518 -295.012249 
L 425.325527 -293.63919 
L 428.157536 -293.181259 
L 430.989545 -295.562892 
L 430.989545 -290.964067 
L 430.989545 -290.964067 
L 428.157536 -290.987323 
L 425.325527 -291.075317 
L 422.493518 -290.687373 
L 419.661509 -289.788167 
L 416.8295 -291.145361 
L 413.99749 -290.857874 
L 411.165481 -290.545241 
L 408.333472 -289.165706 
L 405.501463 -290.785754 
L 402.669454 -290.045663 
L 399.837445 -288.951725 
L 397.005435 -291.761255 
L 394.173426 -290.953244 
L 391.341417 -289.755266 
L 388.509408 -289.897836 
L 385.677399 -288.602385 
L 382.84539 -291.272233 
L 380.01338 -289.948729 
L 377.181371 -289.85881 
L 374.349362 -291.935718 
L 371.517353 -288.869343 
L 368.685344 -289.15444 
L 365.853335 -291.04437 
L 363.021325 -290.456707 
L 360.189316 -290.893746 
L 357.357307 -290.452595 
L 354.525298 -293.014281 
L 351.693289 -289.159236 
L 348.86128 -289.961006 
L 346.02927 -289.602995 
L 343.197261 -291.11026 
L 340.365252 -290.170176 
L 337.533243 -290.865329 
L 334.701234 -290.65731 
L 331.869225 -291.031603 
L 329.037215 -289.90282 
L 326.205206 -289.772257 
L 323.373197 -289.963419 
L 320.541188 -290.575433 
L 317.709179 -290.406241 
L 314.87717 -290.811901 
L 312.04516 -291.350839 
L 309.213151 -290.597843 
L 306.381142 -290.930971 
L 303.549133 -290.387817 
L 300.717124 -289.89995 
L 297.885115 -291.88902 
L 295.053105 -290.36427 
L 292.221096 -289.36429 
L 289.389087 -291.411768 
L 286.557078 -290.942435 
L 283.725069 -291.383698 
L 280.89306 -290.759706 
L 278.06105 -291.652298 
L 275.229041 -293.312175 
L 272.397032 -292.169768 
L 269.565023 -289.73297 
L 266.733014 -290.253678 
L 263.901005 -293.405949 
L 261.068995 -291.136178 
L 258.236986 -291.191022 
L 255.404977 -290.330291 
L 252.572968 -290.297961 
L 249.740959 -290.901592 
L 246.90895 -291.445564 
L 244.07694 -291.160427 
L 241.244931 -290.412921 
L 238.412922 -290.665344 
L 235.580913 -292.513183 
L 232.748904 -290.874002 
L 229.916895 -291.242985 
L 227.084885 -288.236204 
L 224.252876 -290.405075 
L 221.420867 -290.765072 
L 218.588858 -289.608394 
L 215.756849 -289.761494 
L 212.92484 -292.076492 
L 210.09283 -291.141984 
L 207.260821 -288.599149 
L 204.428812 -287.065537 
L 201.596803 -281.090651 
L 198.764794 -289.612924 
L 195.932785 -288.597002 
L 193.100775 -288.13877 
L 190.268766 -288.694098 
L 187.436757 -285.282011 
L 184.604748 -290.459957 
L 181.772739 -277.358983 
L 178.94073 -288.298346 
L 176.10872 -234.3008 
L 173.276711 -281.962446 
L 170.444702 -287.217226 
L 167.612693 -197.792593 
L 164.780684 -272.198842 
L 161.948675 -268.4502 
L 159.116665 -238.716874 
L 156.284656 -250.418934 
L 153.452647 -250.604144 
L 150.620638 -194.146809 
L 147.788629 -265.882007 
L 144.95662 -237.926336 
L 142.12461 -215.089205 
L 139.292601 -231.066878 
L 136.460592 -223.314564 
L 133.628583 -248.541562 
L 130.796574 -216.437754 
L 127.964565 -203.289498 
L 125.132555 -164.98846 
L 122.300546 -216.267943 
L 119.468537 -192.089439 
L 116.636528 -191.837475 
L 113.804519 -148.334585 
L 110.97251 -150.18567 
L 108.1405 -172.638572 
L 105.308491 -131.637451 
L 102.476482 -62.980909 
L 99.644473 -111.81318 
L 96.812464 -88.825508 
L 93.980455 -108.764122 
z
" style="stroke: #ffffff; stroke-opacity: 0.5"/>
    </defs>
    <g clip-path="url(#p58c28c9e57)">
     <use xlink:href="#me99c7f43f0" x="0" y="345.6" style="fill: #55a868; fill-opacity: 0.5; stroke: #ffffff; stroke-opacity: 0.5"/>
    </g>
   </g>
   <g id="line2d_12">
    <path d="M 93.980455 210.875063 
L 96.812464 196.26787 
L 99.644473 209.458945 
L 102.476482 205.620398 
L 105.308491 176.986435 
L 108.1405 175.993145 
L 110.97251 180.432386 
L 113.804519 180.871258 
L 116.636528 181.340145 
L 119.468537 171.74878 
L 122.300546 169.484068 
L 125.132555 169.240781 
L 127.964565 166.608165 
L 130.796574 169.941379 
L 133.628583 168.702196 
L 136.460592 147.266936 
L 139.292601 153.457528 
L 142.12461 169.473847 
L 144.95662 139.548842 
L 147.788629 133.664338 
L 150.620638 152.883216 
L 153.452647 150.33995 
L 156.284656 134.563181 
L 159.116665 138.048653 
L 161.948675 129.235633 
L 164.780684 135.186348 
L 167.612693 127.525185 
L 170.444702 128.560579 
L 173.276711 123.209944 
L 176.10872 127.333135 
L 178.94073 121.947445 
L 181.772739 115.033106 
L 184.604748 118.904619 
L 187.436757 105.48067 
L 190.268766 113.16941 
L 193.100775 117.102477 
L 195.932785 105.190209 
L 198.764794 107.612931 
L 201.596803 96.86289 
L 204.428812 105.644872 
L 207.260821 93.484393 
L 210.09283 91.640413 
L 212.92484 95.770715 
L 215.756849 107.048724 
L 218.588858 102.786925 
L 221.420867 107.430963 
L 224.252876 111.21745 
L 227.084885 83.653011 
L 229.916895 85.984314 
L 232.748904 92.134773 
L 235.580913 89.874682 
L 238.412922 89.07513 
L 241.244931 86.322577 
L 244.07694 89.216517 
L 246.90895 82.175332 
L 249.740959 92.761248 
L 252.572968 95.289888 
L 255.404977 89.559523 
L 258.236986 96.467568 
L 261.068995 95.439703 
L 263.901005 97.561134 
L 266.733014 87.112415 
L 269.565023 95.814389 
L 272.397032 98.793142 
L 275.229041 97.24033 
L 278.06105 89.729035 
L 280.89306 99.19737 
L 283.725069 106.618156 
L 286.557078 89.657276 
L 289.389087 98.945724 
L 292.221096 87.037054 
L 295.053105 88.898922 
L 297.885115 97.878528 
L 300.717124 95.65901 
L 303.549133 95.654162 
L 306.381142 91.558005 
L 309.213151 99.113064 
L 312.04516 98.870998 
L 314.87717 103.197546 
L 317.709179 93.082809 
L 320.541188 95.665392 
L 323.373197 94.202241 
L 326.205206 98.223142 
L 329.037215 96.948699 
L 331.869225 99.19315 
L 334.701234 104.660602 
L 337.533243 101.229995 
L 340.365252 103.642078 
L 343.197261 93.425929 
L 346.02927 83.951287 
L 348.86128 95.362401 
L 351.693289 84.805702 
L 354.525298 92.573831 
L 357.357307 94.778895 
L 360.189316 95.465081 
L 363.021325 99.904594 
L 365.853335 92.080818 
L 368.685344 96.529142 
L 371.517353 99.21953 
L 374.349362 102.677119 
L 377.181371 97.753361 
L 380.01338 98.195922 
L 382.84539 97.746476 
L 385.677399 102.374589 
L 388.509408 110.796993 
L 391.341417 97.834097 
L 394.173426 108.541328 
L 397.005435 109.186968 
L 399.837445 93.500846 
L 402.669454 105.877504 
L 405.501463 93.229359 
L 408.333472 82.469526 
L 411.165481 87.31646 
L 413.99749 96.217122 
L 416.8295 95.880031 
L 419.661509 97.307244 
L 422.493518 88.537436 
L 425.325527 100.99757 
L 428.157536 98.973553 
L 430.989545 102.071397 
" clip-path="url(#p58c28c9e57)" style="fill: none; stroke: #4c72b0; stroke-width: 3; stroke-linecap: round"/>
   </g>
   <g id="line2d_13">
    <path d="M 93.980455 213.98562 
L 96.812464 193.01832 
L 99.644473 209.226743 
L 102.476482 205.138532 
L 105.308491 168.076858 
L 108.1405 181.881515 
L 110.97251 180.967752 
L 113.804519 170.934153 
L 116.636528 139.775196 
L 119.468537 140.578572 
L 122.300546 138.714081 
L 125.132555 152.631445 
L 127.964565 124.701356 
L 130.796574 123.545807 
L 133.628583 111.092732 
L 136.460592 124.639155 
L 139.292601 92.906235 
L 142.12461 106.669493 
L 144.95662 106.294766 
L 147.788629 103.166234 
L 150.620638 99.142245 
L 153.452647 91.245398 
L 156.284656 96.498961 
L 159.116665 78.798732 
L 161.948675 66.935573 
L 164.780684 74.879824 
L 167.612693 81.466949 
L 170.444702 67.958987 
L 173.276711 95.702198 
L 176.10872 78.247869 
L 178.94073 64.750083 
L 181.772739 96.370306 
L 184.604748 83.393398 
L 187.436757 71.177901 
L 190.268766 68.38451 
L 193.100775 65.273106 
L 195.932785 77.482071 
L 198.764794 76.184348 
L 201.596803 63.650924 
L 204.428812 68.936877 
L 207.260821 65.890547 
L 210.09283 71.904631 
L 212.92484 76.706277 
L 215.756849 72.622163 
L 218.588858 75.455543 
L 221.420867 69.859231 
L 224.252876 72.322179 
L 227.084885 72.434834 
L 229.916895 62.278844 
L 232.748904 65.628853 
L 235.580913 67.67885 
L 238.412922 63.536801 
L 241.244931 68.580453 
L 244.07694 65.629729 
L 246.90895 72.170574 
L 249.740959 56.421935 
L 252.572968 59.117902 
L 255.404977 62.232675 
L 258.236986 58.133172 
L 261.068995 58.11345 
L 263.901005 66.620024 
L 266.733014 70.197567 
L 269.565023 66.092017 
L 272.397032 59.18744 
L 275.229041 66.567036 
L 278.06105 64.632617 
L 280.89306 62.744174 
L 283.725069 60.558239 
L 286.557078 64.159866 
L 289.389087 60.469706 
L 292.221096 60.132559 
L 295.053105 57.717635 
L 297.885115 60.96699 
L 300.717124 62.859977 
L 303.549133 68.182021 
L 306.381142 62.186942 
L 309.213151 55.890176 
L 312.04516 59.618182 
L 314.87717 66.335004 
L 317.709179 61.635837 
L 320.541188 65.645463 
L 323.373197 62.00864 
L 326.205206 65.153403 
L 329.037215 66.428104 
L 331.869225 62.99209 
L 334.701234 61.93124 
L 337.533243 61.161728 
L 340.365252 66.308819 
L 343.197261 60.466393 
L 346.02927 59.631074 
L 348.86128 57.944571 
L 351.693289 63.825958 
L 354.525298 67.655621 
L 357.357307 60.129508 
L 360.189316 60.145097 
L 363.021325 64.82907 
L 365.853335 61.384771 
L 368.685344 59.034586 
L 371.517353 59.10928 
L 374.349362 60.164774 
L 377.181371 62.800334 
L 380.01338 59.333825 
L 382.84539 64.691676 
L 385.677399 60.747049 
L 388.509408 61.570705 
L 391.341417 62.60958 
L 394.173426 59.160191 
L 397.005435 65.582279 
L 399.837445 67.50178 
L 402.669454 60.629421 
L 405.501463 65.650203 
L 408.333472 60.646376 
L 411.165481 66.61255 
L 413.99749 62.923452 
L 416.8295 65.777309 
L 419.661509 64.472095 
L 422.493518 70.986265 
L 425.325527 63.395045 
L 428.157536 56.627962 
L 430.989545 62.467159 
" clip-path="url(#p58c28c9e57)" style="fill: none; stroke: #dd8452; stroke-width: 3; stroke-linecap: round"/>
   </g>
   <g id="line2d_14">
    <path d="M 93.980455 201.976082 
L 96.812464 188.756378 
L 99.644473 213.07881 
L 102.476482 197.279493 
L 105.308491 194.908819 
L 108.1405 165.408245 
L 110.97251 155.049373 
L 113.804519 155.794607 
L 116.636528 132.254337 
L 119.468537 131.421295 
L 122.300546 119.103032 
L 125.132555 138.633486 
L 127.964565 81.528785 
L 130.796574 108.605638 
L 133.628583 77.068387 
L 136.460592 89.891447 
L 139.292601 96.750714 
L 142.12461 88.257695 
L 144.95662 94.736 
L 147.788629 73.261322 
L 150.620638 79.283245 
L 153.452647 71.653489 
L 156.284656 78.004201 
L 159.116665 71.299299 
L 161.948675 63.616676 
L 164.780684 62.626417 
L 167.612693 80.019231 
L 170.444702 52.827603 
L 173.276711 53.417702 
L 176.10872 67.64848 
L 178.94073 52.684767 
L 181.772739 60.791301 
L 184.604748 51.597824 
L 187.436757 51.991485 
L 190.268766 53.518422 
L 193.100775 54.771754 
L 195.932785 53.032208 
L 198.764794 51.79578 
L 201.596803 54.997115 
L 204.428812 54.644845 
L 207.260821 54.209928 
L 210.09283 51.700483 
L 212.92484 50.849547 
L 215.756849 54.635099 
L 218.588858 53.8757 
L 221.420867 52.554906 
L 224.252876 53.219108 
L 227.084885 53.892036 
L 229.916895 50.815428 
L 232.748904 50.928336 
L 235.580913 50.657466 
L 238.412922 52.360772 
L 241.244931 52.957728 
L 244.07694 52.339981 
L 246.90895 52.456129 
L 249.740959 52.429325 
L 252.572968 51.886882 
L 255.404977 54.192309 
L 258.236986 52.965533 
L 261.068995 52.613063 
L 263.901005 50.530256 
L 266.733014 53.273724 
L 269.565023 53.447902 
L 272.397032 51.991685 
L 275.229041 50.853489 
L 278.06105 51.709015 
L 280.89306 52.037326 
L 283.725069 53.273556 
L 286.557078 50.416866 
L 289.389087 51.67001 
L 292.221096 52.928108 
L 295.053105 51.964022 
L 297.885115 52.189575 
L 300.717124 50.939386 
L 303.549133 51.483571 
L 306.381142 53.232973 
L 309.213151 54.077663 
L 312.04516 52.519718 
L 314.87717 53.600982 
L 317.709179 54.232726 
L 320.541188 53.827618 
L 323.373197 53.383761 
L 326.205206 53.770408 
L 329.037215 53.924086 
L 331.869225 51.162768 
L 334.701234 53.43625 
L 337.533243 52.655071 
L 340.365252 51.098433 
L 343.197261 53.90615 
L 346.02927 53.290068 
L 348.86128 54.234891 
L 351.693289 54.462533 
L 354.525298 50.944905 
L 357.357307 52.988052 
L 360.189316 53.764653 
L 363.021325 53.211933 
L 365.853335 53.405596 
L 368.685344 54.145944 
L 371.517353 55.372849 
L 374.349362 52.142165 
L 377.181371 51.707536 
L 380.01338 54.063794 
L 382.84539 52.650573 
L 385.677399 53.993198 
L 388.509408 53.884206 
L 391.341417 53.197999 
L 394.173426 53.467578 
L 397.005435 52.545624 
L 399.837445 54.007211 
L 402.669454 52.613081 
L 405.501463 54.172283 
L 408.333472 54.468542 
L 411.165481 54.378852 
L 413.99749 53.744009 
L 416.8295 52.673795 
L 419.661509 54.199545 
L 422.493518 52.977992 
L 425.325527 53.089782 
L 428.157536 53.727315 
L 430.989545 52.42889 
" clip-path="url(#p58c28c9e57)" style="fill: none; stroke: #55a868; stroke-width: 3; stroke-linecap: round"/>
   </g>
   <g id="patch_3">
    <path d="M 77.13 294.66 
L 77.13 29.76 
" style="fill: none; stroke: #ffffff; stroke-width: 1.25; stroke-linejoin: miter; stroke-linecap: square"/>
   </g>
   <g id="patch_4">
    <path d="M 447.84 294.66 
L 447.84 29.76 
" style="fill: none; stroke: #ffffff; stroke-width: 1.25; stroke-linejoin: miter; stroke-linecap: square"/>
   </g>
   <g id="patch_5">
    <path d="M 77.13 294.66 
L 447.84 294.66 
" style="fill: none; stroke: #ffffff; stroke-width: 1.25; stroke-linejoin: miter; stroke-linecap: square"/>
   </g>
   <g id="patch_6">
    <path d="M 77.13 29.76 
L 447.84 29.76 
" style="fill: none; stroke: #ffffff; stroke-width: 1.25; stroke-linejoin: miter; stroke-linecap: square"/>
   </g>
   <g id="text_14">
    <!-- zinc-coating-v0 -->
    <g style="fill: #262626" transform="translate(209.126406 23.76)scale(0.14 -0.14)">
     <defs>
      <path id="DejaVuSans-7a" d="M 353 3500 
L 3084 3500 
L 3084 2975 
L 922 459 
L 3084 459 
L 3084 0 
L 275 0 
L 275 525 
L 2438 3041 
L 353 3041 
L 353 3500 
z
" transform="scale(0.015625)"/>
      <path id="DejaVuSans-2d" d="M 313 2009 
L 1997 2009 
L 1997 1497 
L 313 1497 
L 313 2009 
z
" transform="scale(0.015625)"/>
      <path id="DejaVuSans-61" d="M 2194 1759 
Q 1497 1759 1228 1600 
Q 959 1441 959 1056 
Q 959 750 1161 570 
Q 1363 391 1709 391 
Q 2188 391 2477 730 
Q 2766 1069 2766 1631 
L 2766 1759 
L 2194 1759 
z
M 3341 1997 
L 3341 0 
L 2766 0 
L 2766 531 
Q 2569 213 2275 61 
Q 1981 -91 1556 -91 
Q 1019 -91 701 211 
Q 384 513 384 1019 
Q 384 1609 779 1909 
Q 1175 2209 1959 2209 
L 2766 2209 
L 2766 2266 
Q 2766 2663 2505 2880 
Q 2244 3097 1772 3097 
Q 1472 3097 1187 3025 
Q 903 2953 641 2809 
L 641 3341 
Q 956 3463 1253 3523 
Q 1550 3584 1831 3584 
Q 2591 3584 2966 3190 
Q 3341 2797 3341 1997 
z
" transform="scale(0.015625)"/>
      <path id="DejaVuSans-67" d="M 2906 1791 
Q 2906 2416 2648 2759 
Q 2391 3103 1925 3103 
Q 1463 3103 1205 2759 
Q 947 2416 947 1791 
Q 947 1169 1205 825 
Q 1463 481 1925 481 
Q 2391 481 2648 825 
Q 2906 1169 2906 1791 
z
M 3481 434 
Q 3481 -459 3084 -895 
Q 2688 -1331 1869 -1331 
Q 1566 -1331 1297 -1286 
Q 1028 -1241 775 -1147 
L 775 -588 
Q 1028 -725 1275 -790 
Q 1522 -856 1778 -856 
Q 2344 -856 2625 -561 
Q 2906 -266 2906 331 
L 2906 616 
Q 2728 306 2450 153 
Q 2172 0 1784 0 
Q 1141 0 747 490 
Q 353 981 353 1791 
Q 353 2603 747 3093 
Q 1141 3584 1784 3584 
Q 2172 3584 2450 3431 
Q 2728 3278 2906 2969 
L 2906 3500 
L 3481 3500 
L 3481 434 
z
" transform="scale(0.015625)"/>
      <path id="DejaVuSans-76" d="M 191 3500 
L 800 3500 
L 1894 563 
L 2988 3500 
L 3597 3500 
L 2284 0 
L 1503 0 
L 191 3500 
z
" transform="scale(0.015625)"/>
     </defs>
     <use xlink:href="#DejaVuSans-7a"/>
     <use xlink:href="#DejaVuSans-69" x="52.490234"/>
     <use xlink:href="#DejaVuSans-6e" x="80.273438"/>
     <use xlink:href="#DejaVuSans-63" x="143.652344"/>
     <use xlink:href="#DejaVuSans-2d" x="198.632812"/>
     <use xlink:href="#DejaVuSans-63" x="234.716797"/>
     <use xlink:href="#DejaVuSans-6f" x="289.697266"/>
     <use xlink:href="#DejaVuSans-61" x="350.878906"/>
     <use xlink:href="#DejaVuSans-74" x="412.158203"/>
     <use xlink:href="#DejaVuSans-69" x="451.367188"/>
     <use xlink:href="#DejaVuSans-6e" x="479.150391"/>
     <use xlink:href="#DejaVuSans-67" x="542.529297"/>
     <use xlink:href="#DejaVuSans-2d" x="606.005859"/>
     <use xlink:href="#DejaVuSans-76" x="639.464844"/>
     <use xlink:href="#DejaVuSans-30" x="698.644531"/>
    </g>
   </g>
   <g id="legend_1">
    <g id="patch_7">
     <path d="M 84.83 289.16 
L 235.421719 289.16 
Q 237.621719 289.16 237.621719 286.96 
L 237.621719 239.622187 
Q 237.621719 237.422187 235.421719 237.422187 
L 84.83 237.422187 
Q 82.63 237.422187 82.63 239.622187 
L 82.63 286.96 
Q 82.63 289.16 84.83 289.16 
z
" style="fill: #eaeaf2; opacity: 0.8; stroke: #cccccc; stroke-linejoin: miter"/>
    </g>
    <g id="line2d_15">
     <path d="M 87.03 246.330469 
L 98.03 246.330469 
L 109.03 246.330469 
" style="fill: none; stroke: #4c72b0; stroke-width: 3; stroke-linecap: round"/>
    </g>
    <g id="text_15">
     <!-- SAC-DELAY-5-logs/ -->
     <g style="fill: #262626" transform="translate(117.83 250.180469)scale(0.11 -0.11)">
      <defs>
       <path id="DejaVuSans-41" d="M 2188 4044 
L 1331 1722 
L 3047 1722 
L 2188 4044 
z
M 1831 4666 
L 2547 4666 
L 4325 0 
L 3669 0 
L 3244 1197 
L 1141 1197 
L 716 0 
L 50 0 
L 1831 4666 
z
" transform="scale(0.015625)"/>
       <path id="DejaVuSans-43" d="M 4122 4306 
L 4122 3641 
Q 3803 3938 3442 4084 
Q 3081 4231 2675 4231 
Q 1875 4231 1450 3742 
Q 1025 3253 1025 2328 
Q 1025 1406 1450 917 
Q 1875 428 2675 428 
Q 3081 428 3442 575 
Q 3803 722 4122 1019 
L 4122 359 
Q 3791 134 3420 21 
Q 3050 -91 2638 -91 
Q 1578 -91 968 557 
Q 359 1206 359 2328 
Q 359 3453 968 4101 
Q 1578 4750 2638 4750 
Q 3056 4750 3426 4639 
Q 3797 4528 4122 4306 
z
" transform="scale(0.015625)"/>
       <path id="DejaVuSans-44" d="M 1259 4147 
L 1259 519 
L 2022 519 
Q 2988 519 3436 956 
Q 3884 1394 3884 2338 
Q 3884 3275 3436 3711 
Q 2988 4147 2022 4147 
L 1259 4147 
z
M 628 4666 
L 1925 4666 
Q 3281 4666 3915 4102 
Q 4550 3538 4550 2338 
Q 4550 1131 3912 565 
Q 3275 0 1925 0 
L 628 0 
L 628 4666 
z
" transform="scale(0.015625)"/>
       <path id="DejaVuSans-45" d="M 628 4666 
L 3578 4666 
L 3578 4134 
L 1259 4134 
L 1259 2753 
L 3481 2753 
L 3481 2222 
L 1259 2222 
L 1259 531 
L 3634 531 
L 3634 0 
L 628 0 
L 628 4666 
z
" transform="scale(0.015625)"/>
       <path id="DejaVuSans-4c" d="M 628 4666 
L 1259 4666 
L 1259 531 
L 3531 531 
L 3531 0 
L 628 0 
L 628 4666 
z
" transform="scale(0.015625)"/>
       <path id="DejaVuSans-59" d="M -13 4666 
L 666 4666 
L 1959 2747 
L 3244 4666 
L 3922 4666 
L 2272 2222 
L 2272 0 
L 1638 0 
L 1638 2222 
L -13 4666 
z
" transform="scale(0.015625)"/>
       <path id="DejaVuSans-2f" d="M 1625 4666 
L 2156 4666 
L 531 -594 
L 0 -594 
L 1625 4666 
z
" transform="scale(0.015625)"/>
      </defs>
      <use xlink:href="#DejaVuSans-53"/>
      <use xlink:href="#DejaVuSans-41" x="65.351562"/>
      <use xlink:href="#DejaVuSans-43" x="132.009766"/>
      <use xlink:href="#DejaVuSans-2d" x="201.833984"/>
      <use xlink:href="#DejaVuSans-44" x="237.917969"/>
      <use xlink:href="#DejaVuSans-45" x="314.919922"/>
      <use xlink:href="#DejaVuSans-4c" x="378.103516"/>
      <use xlink:href="#DejaVuSans-41" x="436.066406"/>
      <use xlink:href="#DejaVuSans-59" x="496.724609"/>
      <use xlink:href="#DejaVuSans-2d" x="545.933594"/>
      <use xlink:href="#DejaVuSans-35" x="582.017578"/>
      <use xlink:href="#DejaVuSans-2d" x="645.640625"/>
      <use xlink:href="#DejaVuSans-6c" x="681.724609"/>
      <use xlink:href="#DejaVuSans-6f" x="709.507812"/>
      <use xlink:href="#DejaVuSans-67" x="770.689453"/>
      <use xlink:href="#DejaVuSans-73" x="834.166016"/>
      <use xlink:href="#DejaVuSans-2f" x="886.265625"/>
     </g>
    </g>
    <g id="line2d_16">
     <path d="M 87.03 262.476406 
L 98.03 262.476406 
L 109.03 262.476406 
" style="fill: none; stroke: #dd8452; stroke-width: 3; stroke-linecap: round"/>
    </g>
    <g id="text_16">
     <!-- SAC-IS-DELAY-5-logs/ -->
     <g style="fill: #262626" transform="translate(117.83 266.326406)scale(0.11 -0.11)">
      <defs>
       <path id="DejaVuSans-49" d="M 628 4666 
L 1259 4666 
L 1259 0 
L 628 0 
L 628 4666 
z
" transform="scale(0.015625)"/>
      </defs>
      <use xlink:href="#DejaVuSans-53"/>
      <use xlink:href="#DejaVuSans-41" x="65.351562"/>
      <use xlink:href="#DejaVuSans-43" x="132.009766"/>
      <use xlink:href="#DejaVuSans-2d" x="201.833984"/>
      <use xlink:href="#DejaVuSans-49" x="237.917969"/>
      <use xlink:href="#DejaVuSans-53" x="267.410156"/>
      <use xlink:href="#DejaVuSans-2d" x="330.886719"/>
      <use xlink:href="#DejaVuSans-44" x="366.970703"/>
      <use xlink:href="#DejaVuSans-45" x="443.972656"/>
      <use xlink:href="#DejaVuSans-4c" x="507.15625"/>
      <use xlink:href="#DejaVuSans-41" x="565.119141"/>
      <use xlink:href="#DejaVuSans-59" x="625.777344"/>
      <use xlink:href="#DejaVuSans-2d" x="674.986328"/>
      <use xlink:href="#DejaVuSans-35" x="711.070312"/>
      <use xlink:href="#DejaVuSans-2d" x="774.693359"/>
      <use xlink:href="#DejaVuSans-6c" x="810.777344"/>
      <use xlink:href="#DejaVuSans-6f" x="838.560547"/>
      <use xlink:href="#DejaVuSans-67" x="899.742188"/>
      <use xlink:href="#DejaVuSans-73" x="963.21875"/>
      <use xlink:href="#DejaVuSans-2f" x="1015.318359"/>
     </g>
    </g>
    <g id="line2d_17">
     <path d="M 87.03 278.622344 
L 98.03 278.622344 
L 109.03 278.622344 
" style="fill: none; stroke: #55a868; stroke-width: 3; stroke-linecap: round"/>
    </g>
    <g id="text_17">
     <!-- DCAC-DELAY-5-logs/ -->
     <g style="fill: #262626" transform="translate(117.83 282.472344)scale(0.11 -0.11)">
      <use xlink:href="#DejaVuSans-44"/>
      <use xlink:href="#DejaVuSans-43" x="77.001953"/>
      <use xlink:href="#DejaVuSans-41" x="146.826172"/>
      <use xlink:href="#DejaVuSans-43" x="213.484375"/>
      <use xlink:href="#DejaVuSans-2d" x="283.308594"/>
      <use xlink:href="#DejaVuSans-44" x="319.392578"/>
      <use xlink:href="#DejaVuSans-45" x="396.394531"/>
      <use xlink:href="#DejaVuSans-4c" x="459.578125"/>
      <use xlink:href="#DejaVuSans-41" x="517.541016"/>
      <use xlink:href="#DejaVuSans-59" x="578.199219"/>
      <use xlink:href="#DejaVuSans-2d" x="627.408203"/>
      <use xlink:href="#DejaVuSans-35" x="663.492188"/>
      <use xlink:href="#DejaVuSans-2d" x="727.115234"/>
      <use xlink:href="#DejaVuSans-6c" x="763.199219"/>
      <use xlink:href="#DejaVuSans-6f" x="790.982422"/>
      <use xlink:href="#DejaVuSans-67" x="852.164062"/>
      <use xlink:href="#DejaVuSans-73" x="915.640625"/>
      <use xlink:href="#DejaVuSans-2f" x="967.740234"/>
     </g>
    </g>
   </g>
  </g>
 </g>
 <defs>
  <clipPath id="p58c28c9e57">
   <rect x="77.13" y="29.76" width="370.71" height="264.9"/>
  </clipPath>
 </defs>
</svg>
