<?xml version="1.0" encoding="utf-8" standalone="no"?>
<!DOCTYPE svg PUBLIC "-//W3C//DTD SVG 1.1//EN"
  "http://www.w3.org/Graphics/SVG/1.1/DTD/svg11.dtd">
<svg xmlns:xlink="http://www.w3.org/1999/xlink" width="460.8pt" height="345.6pt" viewBox="0 0 460.8 345.6" xmlns="http://www.w3.org/2000/svg" version="1.1">
 <metadata>
  <rdf:RDF xmlns:dc="http://purl.org/dc/elements/1.1/" xmlns:cc="http://creativecommons.org/ns#" xmlns:rdf="http://www.w3.org/1999/02/22-rdf-syntax-ns#">
   <cc:Work>
    <dc:type rdf:resource="http://purl.org/dc/dcmitype/StillImage"/>
    <dc:date>2022-09-12T15:15:49.628223</dc:date>
    <dc:format>image/svg+xml</dc:format>
    <dc:creator>
     <cc:Agent>
      <dc:title>Matplotlib v3.5.3, https://matplotlib.org/</dc:title>
     </cc:Agent>
    </dc:creator>
   </cc:Work>
  </rdf:RDF>
 </metadata>
 <defs>
  <style type="text/css">*{stroke-linejoin: round; stroke-linecap: butt}</style>
 </defs>
 <g id="figure_1">
  <g id="patch_1">
   <path d="M 0 345.6 
L 460.8 345.6 
L 460.8 0 
L 0 0 
z
" style="fill: #ffffff"/>
  </g>
  <g id="axes_1">
   <g id="patch_2">
    <path d="M 77.13 294.66 
L 447.84 294.66 
L 447.84 12.96 
L 77.13 12.96 
z
" style="fill: #eaeaf2"/>
   </g>
   <g id="matplotlib.axis_1">
    <g id="xtick_1">
     <g id="line2d_1">
      <path d="M 91.148445 294.66 
L 91.148445 12.96 
" clip-path="url(#p632b8a368f)" style="fill: none; stroke: #ffffff; stroke-linecap: round"/>
     </g>
     <g id="text_1">
      <!-- 0.00 -->
      <g style="fill: #262626" transform="translate(78.902352 312.518281)scale(0.11 -0.11)">
       <defs>
        <path id="DejaVuSans-30" d="M 2034 4250 
Q 1547 4250 1301 3770 
Q 1056 3291 1056 2328 
Q 1056 1369 1301 889 
Q 1547 409 2034 409 
Q 2525 409 2770 889 
Q 3016 1369 3016 2328 
Q 3016 3291 2770 3770 
Q 2525 4250 2034 4250 
z
M 2034 4750 
Q 2819 4750 3233 4129 
Q 3647 3509 3647 2328 
Q 3647 1150 3233 529 
Q 2819 -91 2034 -91 
Q 1250 -91 836 529 
Q 422 1150 422 2328 
Q 422 3509 836 4129 
Q 1250 4750 2034 4750 
z
" transform="scale(0.015625)"/>
        <path id="DejaVuSans-2e" d="M 684 794 
L 1344 794 
L 1344 0 
L 684 0 
L 684 794 
z
" transform="scale(0.015625)"/>
       </defs>
       <use xlink:href="#DejaVuSans-30"/>
       <use xlink:href="#DejaVuSans-2e" x="63.623047"/>
       <use xlink:href="#DejaVuSans-30" x="95.410156"/>
       <use xlink:href="#DejaVuSans-30" x="159.033203"/>
      </g>
     </g>
    </g>
    <g id="xtick_2">
     <g id="line2d_2">
      <path d="M 147.788629 294.66 
L 147.788629 12.96 
" clip-path="url(#p632b8a368f)" style="fill: none; stroke: #ffffff; stroke-linecap: round"/>
     </g>
     <g id="text_2">
      <!-- 0.05 -->
      <g style="fill: #262626" transform="translate(135.542535 312.518281)scale(0.11 -0.11)">
       <defs>
        <path id="DejaVuSans-35" d="M 691 4666 
L 3169 4666 
L 3169 4134 
L 1269 4134 
L 1269 2991 
Q 1406 3038 1543 3061 
Q 1681 3084 1819 3084 
Q 2600 3084 3056 2656 
Q 3513 2228 3513 1497 
Q 3513 744 3044 326 
Q 2575 -91 1722 -91 
Q 1428 -91 1123 -41 
Q 819 9 494 109 
L 494 744 
Q 775 591 1075 516 
Q 1375 441 1709 441 
Q 2250 441 2565 725 
Q 2881 1009 2881 1497 
Q 2881 1984 2565 2268 
Q 2250 2553 1709 2553 
Q 1456 2553 1204 2497 
Q 953 2441 691 2322 
L 691 4666 
z
" transform="scale(0.015625)"/>
       </defs>
       <use xlink:href="#DejaVuSans-30"/>
       <use xlink:href="#DejaVuSans-2e" x="63.623047"/>
       <use xlink:href="#DejaVuSans-30" x="95.410156"/>
       <use xlink:href="#DejaVuSans-35" x="159.033203"/>
      </g>
     </g>
    </g>
    <g id="xtick_3">
     <g id="line2d_3">
      <path d="M 204.428812 294.66 
L 204.428812 12.96 
" clip-path="url(#p632b8a368f)" style="fill: none; stroke: #ffffff; stroke-linecap: round"/>
     </g>
     <g id="text_3">
      <!-- 0.10 -->
      <g style="fill: #262626" transform="translate(192.182718 312.518281)scale(0.11 -0.11)">
       <defs>
        <path id="DejaVuSans-31" d="M 794 531 
L 1825 531 
L 1825 4091 
L 703 3866 
L 703 4441 
L 1819 4666 
L 2450 4666 
L 2450 531 
L 3481 531 
L 3481 0 
L 794 0 
L 794 531 
z
" transform="scale(0.015625)"/>
       </defs>
       <use xlink:href="#DejaVuSans-30"/>
       <use xlink:href="#DejaVuSans-2e" x="63.623047"/>
       <use xlink:href="#DejaVuSans-31" x="95.410156"/>
       <use xlink:href="#DejaVuSans-30" x="159.033203"/>
      </g>
     </g>
    </g>
    <g id="xtick_4">
     <g id="line2d_4">
      <path d="M 261.068995 294.66 
L 261.068995 12.96 
" clip-path="url(#p632b8a368f)" style="fill: none; stroke: #ffffff; stroke-linecap: round"/>
     </g>
     <g id="text_4">
      <!-- 0.15 -->
      <g style="fill: #262626" transform="translate(248.822902 312.518281)scale(0.11 -0.11)">
       <use xlink:href="#DejaVuSans-30"/>
       <use xlink:href="#DejaVuSans-2e" x="63.623047"/>
       <use xlink:href="#DejaVuSans-31" x="95.410156"/>
       <use xlink:href="#DejaVuSans-35" x="159.033203"/>
      </g>
     </g>
    </g>
    <g id="xtick_5">
     <g id="line2d_5">
      <path d="M 317.709179 294.66 
L 317.709179 12.96 
" clip-path="url(#p632b8a368f)" style="fill: none; stroke: #ffffff; stroke-linecap: round"/>
     </g>
     <g id="text_5">
      <!-- 0.20 -->
      <g style="fill: #262626" transform="translate(305.463085 312.518281)scale(0.11 -0.11)">
       <defs>
        <path id="DejaVuSans-32" d="M 1228 531 
L 3431 531 
L 3431 0 
L 469 0 
L 469 531 
Q 828 903 1448 1529 
Q 2069 2156 2228 2338 
Q 2531 2678 2651 2914 
Q 2772 3150 2772 3378 
Q 2772 3750 2511 3984 
Q 2250 4219 1831 4219 
Q 1534 4219 1204 4116 
Q 875 4013 500 3803 
L 500 4441 
Q 881 4594 1212 4672 
Q 1544 4750 1819 4750 
Q 2544 4750 2975 4387 
Q 3406 4025 3406 3419 
Q 3406 3131 3298 2873 
Q 3191 2616 2906 2266 
Q 2828 2175 2409 1742 
Q 1991 1309 1228 531 
z
" transform="scale(0.015625)"/>
       </defs>
       <use xlink:href="#DejaVuSans-30"/>
       <use xlink:href="#DejaVuSans-2e" x="63.623047"/>
       <use xlink:href="#DejaVuSans-32" x="95.410156"/>
       <use xlink:href="#DejaVuSans-30" x="159.033203"/>
      </g>
     </g>
    </g>
    <g id="xtick_6">
     <g id="line2d_6">
      <path d="M 374.349362 294.66 
L 374.349362 12.96 
" clip-path="url(#p632b8a368f)" style="fill: none; stroke: #ffffff; stroke-linecap: round"/>
     </g>
     <g id="text_6">
      <!-- 0.25 -->
      <g style="fill: #262626" transform="translate(362.103268 312.518281)scale(0.11 -0.11)">
       <use xlink:href="#DejaVuSans-30"/>
       <use xlink:href="#DejaVuSans-2e" x="63.623047"/>
       <use xlink:href="#DejaVuSans-32" x="95.410156"/>
       <use xlink:href="#DejaVuSans-35" x="159.033203"/>
      </g>
     </g>
    </g>
    <g id="xtick_7">
     <g id="line2d_7">
      <path d="M 430.989545 294.66 
L 430.989545 12.96 
" clip-path="url(#p632b8a368f)" style="fill: none; stroke: #ffffff; stroke-linecap: round"/>
     </g>
     <g id="text_7">
      <!-- 0.30 -->
      <g style="fill: #262626" transform="translate(418.743452 312.518281)scale(0.11 -0.11)">
       <defs>
        <path id="DejaVuSans-33" d="M 2597 2516 
Q 3050 2419 3304 2112 
Q 3559 1806 3559 1356 
Q 3559 666 3084 287 
Q 2609 -91 1734 -91 
Q 1441 -91 1130 -33 
Q 819 25 488 141 
L 488 750 
Q 750 597 1062 519 
Q 1375 441 1716 441 
Q 2309 441 2620 675 
Q 2931 909 2931 1356 
Q 2931 1769 2642 2001 
Q 2353 2234 1838 2234 
L 1294 2234 
L 1294 2753 
L 1863 2753 
Q 2328 2753 2575 2939 
Q 2822 3125 2822 3475 
Q 2822 3834 2567 4026 
Q 2313 4219 1838 4219 
Q 1578 4219 1281 4162 
Q 984 4106 628 3988 
L 628 4550 
Q 988 4650 1302 4700 
Q 1616 4750 1894 4750 
Q 2613 4750 3031 4423 
Q 3450 4097 3450 3541 
Q 3450 3153 3228 2886 
Q 3006 2619 2597 2516 
z
" transform="scale(0.015625)"/>
       </defs>
       <use xlink:href="#DejaVuSans-30"/>
       <use xlink:href="#DejaVuSans-2e" x="63.623047"/>
       <use xlink:href="#DejaVuSans-33" x="95.410156"/>
       <use xlink:href="#DejaVuSans-30" x="159.033203"/>
      </g>
     </g>
    </g>
    <g id="text_8">
     <!-- Zeitschritte (in Millionen) -->
     <g style="fill: #262626" transform="translate(174.570469 329.44375)scale(0.14 -0.14)">
      <defs>
       <path id="DejaVuSans-5a" d="M 359 4666 
L 4025 4666 
L 4025 4184 
L 1075 531 
L 4097 531 
L 4097 0 
L 288 0 
L 288 481 
L 3238 4134 
L 359 4134 
L 359 4666 
z
" transform="scale(0.015625)"/>
       <path id="DejaVuSans-65" d="M 3597 1894 
L 3597 1613 
L 953 1613 
Q 991 1019 1311 708 
Q 1631 397 2203 397 
Q 2534 397 2845 478 
Q 3156 559 3463 722 
L 3463 178 
Q 3153 47 2828 -22 
Q 2503 -91 2169 -91 
Q 1331 -91 842 396 
Q 353 884 353 1716 
Q 353 2575 817 3079 
Q 1281 3584 2069 3584 
Q 2775 3584 3186 3129 
Q 3597 2675 3597 1894 
z
M 3022 2063 
Q 3016 2534 2758 2815 
Q 2500 3097 2075 3097 
Q 1594 3097 1305 2825 
Q 1016 2553 972 2059 
L 3022 2063 
z
" transform="scale(0.015625)"/>
       <path id="DejaVuSans-69" d="M 603 3500 
L 1178 3500 
L 1178 0 
L 603 0 
L 603 3500 
z
M 603 4863 
L 1178 4863 
L 1178 4134 
L 603 4134 
L 603 4863 
z
" transform="scale(0.015625)"/>
       <path id="DejaVuSans-74" d="M 1172 4494 
L 1172 3500 
L 2356 3500 
L 2356 3053 
L 1172 3053 
L 1172 1153 
Q 1172 725 1289 603 
Q 1406 481 1766 481 
L 2356 481 
L 2356 0 
L 1766 0 
Q 1100 0 847 248 
Q 594 497 594 1153 
L 594 3053 
L 172 3053 
L 172 3500 
L 594 3500 
L 594 4494 
L 1172 4494 
z
" transform="scale(0.015625)"/>
       <path id="DejaVuSans-73" d="M 2834 3397 
L 2834 2853 
Q 2591 2978 2328 3040 
Q 2066 3103 1784 3103 
Q 1356 3103 1142 2972 
Q 928 2841 928 2578 
Q 928 2378 1081 2264 
Q 1234 2150 1697 2047 
L 1894 2003 
Q 2506 1872 2764 1633 
Q 3022 1394 3022 966 
Q 3022 478 2636 193 
Q 2250 -91 1575 -91 
Q 1294 -91 989 -36 
Q 684 19 347 128 
L 347 722 
Q 666 556 975 473 
Q 1284 391 1588 391 
Q 1994 391 2212 530 
Q 2431 669 2431 922 
Q 2431 1156 2273 1281 
Q 2116 1406 1581 1522 
L 1381 1569 
Q 847 1681 609 1914 
Q 372 2147 372 2553 
Q 372 3047 722 3315 
Q 1072 3584 1716 3584 
Q 2034 3584 2315 3537 
Q 2597 3491 2834 3397 
z
" transform="scale(0.015625)"/>
       <path id="DejaVuSans-63" d="M 3122 3366 
L 3122 2828 
Q 2878 2963 2633 3030 
Q 2388 3097 2138 3097 
Q 1578 3097 1268 2742 
Q 959 2388 959 1747 
Q 959 1106 1268 751 
Q 1578 397 2138 397 
Q 2388 397 2633 464 
Q 2878 531 3122 666 
L 3122 134 
Q 2881 22 2623 -34 
Q 2366 -91 2075 -91 
Q 1284 -91 818 406 
Q 353 903 353 1747 
Q 353 2603 823 3093 
Q 1294 3584 2113 3584 
Q 2378 3584 2631 3529 
Q 2884 3475 3122 3366 
z
" transform="scale(0.015625)"/>
       <path id="DejaVuSans-68" d="M 3513 2113 
L 3513 0 
L 2938 0 
L 2938 2094 
Q 2938 2591 2744 2837 
Q 2550 3084 2163 3084 
Q 1697 3084 1428 2787 
Q 1159 2491 1159 1978 
L 1159 0 
L 581 0 
L 581 4863 
L 1159 4863 
L 1159 2956 
Q 1366 3272 1645 3428 
Q 1925 3584 2291 3584 
Q 2894 3584 3203 3211 
Q 3513 2838 3513 2113 
z
" transform="scale(0.015625)"/>
       <path id="DejaVuSans-72" d="M 2631 2963 
Q 2534 3019 2420 3045 
Q 2306 3072 2169 3072 
Q 1681 3072 1420 2755 
Q 1159 2438 1159 1844 
L 1159 0 
L 581 0 
L 581 3500 
L 1159 3500 
L 1159 2956 
Q 1341 3275 1631 3429 
Q 1922 3584 2338 3584 
Q 2397 3584 2469 3576 
Q 2541 3569 2628 3553 
L 2631 2963 
z
" transform="scale(0.015625)"/>
       <path id="DejaVuSans-20" transform="scale(0.015625)"/>
       <path id="DejaVuSans-28" d="M 1984 4856 
Q 1566 4138 1362 3434 
Q 1159 2731 1159 2009 
Q 1159 1288 1364 580 
Q 1569 -128 1984 -844 
L 1484 -844 
Q 1016 -109 783 600 
Q 550 1309 550 2009 
Q 550 2706 781 3412 
Q 1013 4119 1484 4856 
L 1984 4856 
z
" transform="scale(0.015625)"/>
       <path id="DejaVuSans-6e" d="M 3513 2113 
L 3513 0 
L 2938 0 
L 2938 2094 
Q 2938 2591 2744 2837 
Q 2550 3084 2163 3084 
Q 1697 3084 1428 2787 
Q 1159 2491 1159 1978 
L 1159 0 
L 581 0 
L 581 3500 
L 1159 3500 
L 1159 2956 
Q 1366 3272 1645 3428 
Q 1925 3584 2291 3584 
Q 2894 3584 3203 3211 
Q 3513 2838 3513 2113 
z
" transform="scale(0.015625)"/>
       <path id="DejaVuSans-4d" d="M 628 4666 
L 1569 4666 
L 2759 1491 
L 3956 4666 
L 4897 4666 
L 4897 0 
L 4281 0 
L 4281 4097 
L 3078 897 
L 2444 897 
L 1241 4097 
L 1241 0 
L 628 0 
L 628 4666 
z
" transform="scale(0.015625)"/>
       <path id="DejaVuSans-6c" d="M 603 4863 
L 1178 4863 
L 1178 0 
L 603 0 
L 603 4863 
z
" transform="scale(0.015625)"/>
       <path id="DejaVuSans-6f" d="M 1959 3097 
Q 1497 3097 1228 2736 
Q 959 2375 959 1747 
Q 959 1119 1226 758 
Q 1494 397 1959 397 
Q 2419 397 2687 759 
Q 2956 1122 2956 1747 
Q 2956 2369 2687 2733 
Q 2419 3097 1959 3097 
z
M 1959 3584 
Q 2709 3584 3137 3096 
Q 3566 2609 3566 1747 
Q 3566 888 3137 398 
Q 2709 -91 1959 -91 
Q 1206 -91 779 398 
Q 353 888 353 1747 
Q 353 2609 779 3096 
Q 1206 3584 1959 3584 
z
" transform="scale(0.015625)"/>
       <path id="DejaVuSans-29" d="M 513 4856 
L 1013 4856 
Q 1481 4119 1714 3412 
Q 1947 2706 1947 2009 
Q 1947 1309 1714 600 
Q 1481 -109 1013 -844 
L 513 -844 
Q 928 -128 1133 580 
Q 1338 1288 1338 2009 
Q 1338 2731 1133 3434 
Q 928 4138 513 4856 
z
" transform="scale(0.015625)"/>
      </defs>
      <use xlink:href="#DejaVuSans-5a"/>
      <use xlink:href="#DejaVuSans-65" x="68.505859"/>
      <use xlink:href="#DejaVuSans-69" x="130.029297"/>
      <use xlink:href="#DejaVuSans-74" x="157.8125"/>
      <use xlink:href="#DejaVuSans-73" x="197.021484"/>
      <use xlink:href="#DejaVuSans-63" x="249.121094"/>
      <use xlink:href="#DejaVuSans-68" x="304.101562"/>
      <use xlink:href="#DejaVuSans-72" x="367.480469"/>
      <use xlink:href="#DejaVuSans-69" x="408.59375"/>
      <use xlink:href="#DejaVuSans-74" x="436.376953"/>
      <use xlink:href="#DejaVuSans-74" x="475.585938"/>
      <use xlink:href="#DejaVuSans-65" x="514.794922"/>
      <use xlink:href="#DejaVuSans-20" x="576.318359"/>
      <use xlink:href="#DejaVuSans-28" x="608.105469"/>
      <use xlink:href="#DejaVuSans-69" x="647.119141"/>
      <use xlink:href="#DejaVuSans-6e" x="674.902344"/>
      <use xlink:href="#DejaVuSans-20" x="738.28125"/>
      <use xlink:href="#DejaVuSans-4d" x="770.068359"/>
      <use xlink:href="#DejaVuSans-69" x="856.347656"/>
      <use xlink:href="#DejaVuSans-6c" x="884.130859"/>
      <use xlink:href="#DejaVuSans-6c" x="911.914062"/>
      <use xlink:href="#DejaVuSans-69" x="939.697266"/>
      <use xlink:href="#DejaVuSans-6f" x="967.480469"/>
      <use xlink:href="#DejaVuSans-6e" x="1028.662109"/>
      <use xlink:href="#DejaVuSans-65" x="1092.041016"/>
      <use xlink:href="#DejaVuSans-6e" x="1153.564453"/>
      <use xlink:href="#DejaVuSans-29" x="1216.943359"/>
     </g>
    </g>
   </g>
   <g id="matplotlib.axis_2">
    <g id="ytick_1">
     <g id="line2d_8">
      <path d="M 77.13 282.316525 
L 447.84 282.316525 
" clip-path="url(#p632b8a368f)" style="fill: none; stroke: #ffffff; stroke-linecap: round"/>
     </g>
     <g id="text_9">
      <!-- −5000 -->
      <g style="fill: #262626" transform="translate(30.417344 286.495666)scale(0.11 -0.11)">
       <defs>
        <path id="DejaVuSans-2212" d="M 678 2272 
L 4684 2272 
L 4684 1741 
L 678 1741 
L 678 2272 
z
" transform="scale(0.015625)"/>
       </defs>
       <use xlink:href="#DejaVuSans-2212"/>
       <use xlink:href="#DejaVuSans-35" x="83.789062"/>
       <use xlink:href="#DejaVuSans-30" x="147.412109"/>
       <use xlink:href="#DejaVuSans-30" x="211.035156"/>
       <use xlink:href="#DejaVuSans-30" x="274.658203"/>
      </g>
     </g>
    </g>
    <g id="ytick_2">
     <g id="line2d_9">
      <path d="M 77.13 236.209439 
L 447.84 236.209439 
" clip-path="url(#p632b8a368f)" style="fill: none; stroke: #ffffff; stroke-linecap: round"/>
     </g>
     <g id="text_10">
      <!-- −4000 -->
      <g style="fill: #262626" transform="translate(30.417344 240.38858)scale(0.11 -0.11)">
       <defs>
        <path id="DejaVuSans-34" d="M 2419 4116 
L 825 1625 
L 2419 1625 
L 2419 4116 
z
M 2253 4666 
L 3047 4666 
L 3047 1625 
L 3713 1625 
L 3713 1100 
L 3047 1100 
L 3047 0 
L 2419 0 
L 2419 1100 
L 313 1100 
L 313 1709 
L 2253 4666 
z
" transform="scale(0.015625)"/>
       </defs>
       <use xlink:href="#DejaVuSans-2212"/>
       <use xlink:href="#DejaVuSans-34" x="83.789062"/>
       <use xlink:href="#DejaVuSans-30" x="147.412109"/>
       <use xlink:href="#DejaVuSans-30" x="211.035156"/>
       <use xlink:href="#DejaVuSans-30" x="274.658203"/>
      </g>
     </g>
    </g>
    <g id="ytick_3">
     <g id="line2d_10">
      <path d="M 77.13 190.102354 
L 447.84 190.102354 
" clip-path="url(#p632b8a368f)" style="fill: none; stroke: #ffffff; stroke-linecap: round"/>
     </g>
     <g id="text_11">
      <!-- −3000 -->
      <g style="fill: #262626" transform="translate(30.417344 194.281494)scale(0.11 -0.11)">
       <use xlink:href="#DejaVuSans-2212"/>
       <use xlink:href="#DejaVuSans-33" x="83.789062"/>
       <use xlink:href="#DejaVuSans-30" x="147.412109"/>
       <use xlink:href="#DejaVuSans-30" x="211.035156"/>
       <use xlink:href="#DejaVuSans-30" x="274.658203"/>
      </g>
     </g>
    </g>
    <g id="ytick_4">
     <g id="line2d_11">
      <path d="M 77.13 143.995268 
L 447.84 143.995268 
" clip-path="url(#p632b8a368f)" style="fill: none; stroke: #ffffff; stroke-linecap: round"/>
     </g>
     <g id="text_12">
      <!-- −2000 -->
      <g style="fill: #262626" transform="translate(30.417344 148.174408)scale(0.11 -0.11)">
       <use xlink:href="#DejaVuSans-2212"/>
       <use xlink:href="#DejaVuSans-32" x="83.789062"/>
       <use xlink:href="#DejaVuSans-30" x="147.412109"/>
       <use xlink:href="#DejaVuSans-30" x="211.035156"/>
       <use xlink:href="#DejaVuSans-30" x="274.658203"/>
      </g>
     </g>
    </g>
    <g id="ytick_5">
     <g id="line2d_12">
      <path d="M 77.13 97.888182 
L 447.84 97.888182 
" clip-path="url(#p632b8a368f)" style="fill: none; stroke: #ffffff; stroke-linecap: round"/>
     </g>
     <g id="text_13">
      <!-- −1000 -->
      <g style="fill: #262626" transform="translate(30.417344 102.067322)scale(0.11 -0.11)">
       <use xlink:href="#DejaVuSans-2212"/>
       <use xlink:href="#DejaVuSans-31" x="83.789062"/>
       <use xlink:href="#DejaVuSans-30" x="147.412109"/>
       <use xlink:href="#DejaVuSans-30" x="211.035156"/>
       <use xlink:href="#DejaVuSans-30" x="274.658203"/>
      </g>
     </g>
    </g>
    <g id="ytick_6">
     <g id="line2d_13">
      <path d="M 77.13 51.781096 
L 447.84 51.781096 
" clip-path="url(#p632b8a368f)" style="fill: none; stroke: #ffffff; stroke-linecap: round"/>
     </g>
     <g id="text_14">
      <!-- 0 -->
      <g style="fill: #262626" transform="translate(60.63125 55.960236)scale(0.11 -0.11)">
       <use xlink:href="#DejaVuSans-30"/>
      </g>
     </g>
    </g>
    <g id="text_15">
     <!-- Belohnung -->
     <g style="fill: #262626" transform="translate(23.505781 191.336563)rotate(-90)scale(0.14 -0.14)">
      <defs>
       <path id="DejaVuSans-42" d="M 1259 2228 
L 1259 519 
L 2272 519 
Q 2781 519 3026 730 
Q 3272 941 3272 1375 
Q 3272 1813 3026 2020 
Q 2781 2228 2272 2228 
L 1259 2228 
z
M 1259 4147 
L 1259 2741 
L 2194 2741 
Q 2656 2741 2882 2914 
Q 3109 3088 3109 3444 
Q 3109 3797 2882 3972 
Q 2656 4147 2194 4147 
L 1259 4147 
z
M 628 4666 
L 2241 4666 
Q 2963 4666 3353 4366 
Q 3744 4066 3744 3513 
Q 3744 3084 3544 2831 
Q 3344 2578 2956 2516 
Q 3422 2416 3680 2098 
Q 3938 1781 3938 1306 
Q 3938 681 3513 340 
Q 3088 0 2303 0 
L 628 0 
L 628 4666 
z
" transform="scale(0.015625)"/>
       <path id="DejaVuSans-75" d="M 544 1381 
L 544 3500 
L 1119 3500 
L 1119 1403 
Q 1119 906 1312 657 
Q 1506 409 1894 409 
Q 2359 409 2629 706 
Q 2900 1003 2900 1516 
L 2900 3500 
L 3475 3500 
L 3475 0 
L 2900 0 
L 2900 538 
Q 2691 219 2414 64 
Q 2138 -91 1772 -91 
Q 1169 -91 856 284 
Q 544 659 544 1381 
z
M 1991 3584 
L 1991 3584 
z
" transform="scale(0.015625)"/>
       <path id="DejaVuSans-67" d="M 2906 1791 
Q 2906 2416 2648 2759 
Q 2391 3103 1925 3103 
Q 1463 3103 1205 2759 
Q 947 2416 947 1791 
Q 947 1169 1205 825 
Q 1463 481 1925 481 
Q 2391 481 2648 825 
Q 2906 1169 2906 1791 
z
M 3481 434 
Q 3481 -459 3084 -895 
Q 2688 -1331 1869 -1331 
Q 1566 -1331 1297 -1286 
Q 1028 -1241 775 -1147 
L 775 -588 
Q 1028 -725 1275 -790 
Q 1522 -856 1778 -856 
Q 2344 -856 2625 -561 
Q 2906 -266 2906 331 
L 2906 616 
Q 2728 306 2450 153 
Q 2172 0 1784 0 
Q 1141 0 747 490 
Q 353 981 353 1791 
Q 353 2603 747 3093 
Q 1141 3584 1784 3584 
Q 2172 3584 2450 3431 
Q 2728 3278 2906 2969 
L 2906 3500 
L 3481 3500 
L 3481 434 
z
" transform="scale(0.015625)"/>
      </defs>
      <use xlink:href="#DejaVuSans-42"/>
      <use xlink:href="#DejaVuSans-65" x="68.603516"/>
      <use xlink:href="#DejaVuSans-6c" x="130.126953"/>
      <use xlink:href="#DejaVuSans-6f" x="157.910156"/>
      <use xlink:href="#DejaVuSans-68" x="219.091797"/>
      <use xlink:href="#DejaVuSans-6e" x="282.470703"/>
      <use xlink:href="#DejaVuSans-75" x="345.849609"/>
      <use xlink:href="#DejaVuSans-6e" x="409.228516"/>
      <use xlink:href="#DejaVuSans-67" x="472.607422"/>
     </g>
    </g>
   </g>
   <g id="PolyCollection_1">
    <defs>
     <path id="mca93864736" d="M 93.980455 -66.631488 
L 93.980455 -224.776279 
L 96.812464 -245.614538 
L 99.644473 -302.256802 
L 102.476482 -319.835455 
L 105.308491 -297.23332 
L 108.1405 -311.578326 
L 110.97251 -304.327937 
L 113.804519 -305.487612 
L 116.636528 -302.68621 
L 119.468537 -299.995358 
L 122.300546 -313.023597 
L 125.132555 -304.510557 
L 127.964565 -303.878785 
L 130.796574 -308.790257 
L 133.628583 -306.841629 
L 136.460592 -301.017622 
L 139.292601 -303.46635 
L 142.12461 -303.277523 
L 144.95662 -305.534866 
L 147.788629 -305.43326 
L 150.620638 -303.350957 
L 153.452647 -301.813831 
L 156.284656 -307.581446 
L 159.116665 -305.089222 
L 161.948675 -306.354572 
L 164.780684 -302.80257 
L 167.612693 -307.5732 
L 170.444702 -305.438429 
L 173.276711 -304.782444 
L 176.10872 -304.061833 
L 178.94073 -305.044336 
L 181.772739 -304.953113 
L 184.604748 -304.497282 
L 187.436757 -305.954796 
L 190.268766 -303.576462 
L 193.100775 -305.860861 
L 195.932785 -303.985431 
L 198.764794 -305.559073 
L 201.596803 -303.506082 
L 204.428812 -305.582821 
L 207.260821 -303.557333 
L 210.09283 -304.397904 
L 212.92484 -301.835113 
L 215.756849 -304.404834 
L 218.588858 -305.019972 
L 221.420867 -310.980699 
L 224.252876 -304.01809 
L 227.084885 -305.110337 
L 229.916895 -305.58699 
L 232.748904 -303.949023 
L 235.580913 -303.031524 
L 238.412922 -304.492765 
L 241.244931 -303.456851 
L 244.07694 -288.783174 
L 246.90895 -302.561552 
L 249.740959 -302.783411 
L 252.572968 -307.676454 
L 255.404977 -301.998509 
L 258.236986 -302.08971 
L 261.068995 -304.326275 
L 263.901005 -303.657716 
L 266.733014 -304.30387 
L 269.565023 -302.891341 
L 272.397032 -300.664766 
L 275.229041 -295.871834 
L 278.06105 -302.862577 
L 280.89306 -301.191955 
L 283.725069 -303.46492 
L 286.557078 -296.695218 
L 289.389087 -300.637262 
L 292.221096 -302.520641 
L 295.053105 -300.952277 
L 297.885115 -286.674853 
L 300.717124 -297.944281 
L 303.549133 -305.710054 
L 306.381142 -303.185489 
L 309.213151 -290.053222 
L 312.04516 -289.650917 
L 314.87717 -304.165673 
L 317.709179 -268.144798 
L 320.541188 -272.745685 
L 323.373197 -301.992487 
L 326.205206 -307.341612 
L 329.037215 -297.392931 
L 331.869225 -303.060866 
L 334.701234 -300.835844 
L 337.533243 -261.766211 
L 340.365252 -297.353545 
L 343.197261 -280.535732 
L 346.02927 -289.286424 
L 348.86128 -302.663629 
L 351.693289 -259.701691 
L 354.525298 -249.753556 
L 357.357307 -190.686244 
L 360.189316 -280.512831 
L 363.021325 -234.344167 
L 365.853335 -277.371176 
L 368.685344 -286.490034 
L 371.517353 -208.741673 
L 374.349362 -189.943103 
L 377.181371 -214.393595 
L 380.01338 -188.508519 
L 382.84539 -171.955526 
L 385.677399 -198.983018 
L 388.509408 -205.810287 
L 391.341417 -233.778536 
L 394.173426 -256.566144 
L 397.005435 -156.725675 
L 399.837445 -199.270399 
L 402.669454 -277.807657 
L 405.501463 -191.566916 
L 408.333472 -201.902257 
L 411.165481 -209.639776 
L 413.99749 -196.058872 
L 416.8295 -188.281466 
L 419.661509 -199.234587 
L 422.493518 -198.574838 
L 425.325527 -193.777651 
L 428.157536 -202.127931 
L 430.989545 -145.015694 
L 430.989545 -64.127971 
L 430.989545 -64.127971 
L 428.157536 -63.839268 
L 425.325527 -63.744545 
L 422.493518 -63.991042 
L 419.661509 -67.50556 
L 416.8295 -63.83676 
L 413.99749 -63.744545 
L 411.165481 -63.744545 
L 408.333472 -63.790653 
L 405.501463 -65.734322 
L 402.669454 -63.744545 
L 399.837445 -70.104678 
L 397.005435 -63.790653 
L 394.173426 -64.539352 
L 391.341417 -63.98638 
L 388.509408 -63.744545 
L 385.677399 -147.29997 
L 382.84539 -63.840348 
L 380.01338 -63.843736 
L 377.181371 -64.427419 
L 374.349362 -67.795742 
L 371.517353 -66.205555 
L 368.685344 -65.173335 
L 365.853335 -64.620608 
L 363.021325 -64.145313 
L 360.189316 -68.70961 
L 357.357307 -63.744545 
L 354.525298 -63.744545 
L 351.693289 -68.181045 
L 348.86128 -74.083922 
L 346.02927 -151.250006 
L 343.197261 -64.718947 
L 340.365252 -87.990562 
L 337.533243 -102.709299 
L 334.701234 -63.891752 
L 331.869225 -252.292395 
L 329.037215 -189.654198 
L 326.205206 -103.466614 
L 323.373197 -227.217758 
L 320.541188 -63.744545 
L 317.709179 -64.562282 
L 314.87717 -84.774112 
L 312.04516 -181.759697 
L 309.213151 -151.195978 
L 306.381142 -63.790653 
L 303.549133 -63.790653 
L 300.717124 -271.20721 
L 297.885115 -169.903211 
L 295.053105 -236.703767 
L 292.221096 -112.09027 
L 289.389087 -194.098401 
L 286.557078 -269.26076 
L 283.725069 -63.839151 
L 280.89306 -211.745917 
L 278.06105 -201.006441 
L 275.229041 -63.790653 
L 272.397032 -225.020109 
L 269.565023 -279.748194 
L 266.733014 -103.999158 
L 263.901005 -234.801633 
L 261.068995 -291.964177 
L 258.236986 -272.168606 
L 255.404977 -196.586701 
L 252.572968 -211.419948 
L 249.740959 -212.792375 
L 246.90895 -201.670835 
L 244.07694 -241.60738 
L 241.244931 -235.78676 
L 238.412922 -271.609458 
L 235.580913 -243.728369 
L 232.748904 -292.476366 
L 229.916895 -284.655303 
L 227.084885 -215.153974 
L 224.252876 -228.031652 
L 221.420867 -201.447338 
L 218.588858 -238.348953 
L 215.756849 -255.228674 
L 212.92484 -171.133229 
L 210.09283 -192.265898 
L 207.260821 -221.413297 
L 204.428812 -182.569228 
L 201.596803 -255.813888 
L 198.764794 -269.506125 
L 195.932785 -202.190988 
L 193.100775 -259.096422 
L 190.268766 -260.460374 
L 187.436757 -300.491563 
L 184.604748 -194.826676 
L 181.772739 -225.992686 
L 178.94073 -210.557372 
L 176.10872 -228.804168 
L 173.276711 -201.672232 
L 170.444702 -300.709793 
L 167.612693 -280.020859 
L 164.780684 -226.666108 
L 161.948675 -209.906919 
L 159.116665 -199.744129 
L 156.284656 -194.932554 
L 153.452647 -218.86175 
L 150.620638 -184.340485 
L 147.788629 -146.139579 
L 144.95662 -277.076696 
L 142.12461 -228.84253 
L 139.292601 -209.296563 
L 136.460592 -230.923216 
L 133.628583 -251.280167 
L 130.796574 -240.982073 
L 127.964565 -200.33116 
L 125.132555 -226.08068 
L 122.300546 -286.414103 
L 119.468537 -188.09794 
L 116.636528 -286.282992 
L 113.804519 -228.966064 
L 110.97251 -193.656188 
L 108.1405 -263.025514 
L 105.308491 -110.335504 
L 102.476482 -232.648364 
L 99.644473 -238.183267 
L 96.812464 -196.139338 
L 93.980455 -66.631488 
z
" style="stroke: #ffffff; stroke-opacity: 0.5"/>
    </defs>
    <g clip-path="url(#p632b8a368f)">
     <use xlink:href="#mca93864736" x="0" y="345.6" style="fill: #4c72b0; fill-opacity: 0.5; stroke: #ffffff; stroke-opacity: 0.5"/>
    </g>
   </g>
   <g id="PolyCollection_2">
    <defs>
     <path id="m063bb44700" d="M 93.980455 -170.624856 
L 93.980455 -188.938076 
L 96.812464 -197.290917 
L 99.644473 -199.832924 
L 102.476482 -219.101359 
L 105.308491 -217.863852 
L 108.1405 -223.265806 
L 110.97251 -234.449839 
L 113.804519 -213.681284 
L 116.636528 -212.153275 
L 119.468537 -213.000464 
L 122.300546 -232.376882 
L 125.132555 -241.961138 
L 127.964565 -239.703049 
L 130.796574 -250.794251 
L 133.628583 -238.517688 
L 136.460592 -236.354338 
L 139.292601 -228.241037 
L 142.12461 -231.916312 
L 144.95662 -241.389721 
L 147.788629 -250.860715 
L 150.620638 -242.222076 
L 153.452647 -267.812702 
L 156.284656 -255.787865 
L 159.116665 -238.640491 
L 161.948675 -238.232117 
L 164.780684 -256.85 
L 167.612693 -255.198977 
L 170.444702 -260.454438 
L 173.276711 -257.752055 
L 176.10872 -262.86904 
L 178.94073 -251.220543 
L 181.772739 -253.615278 
L 184.604748 -278.78842 
L 187.436757 -292.627003 
L 190.268766 -266.1408 
L 193.100775 -286.679971 
L 195.932785 -274.505439 
L 198.764794 -281.550336 
L 201.596803 -278.609498 
L 204.428812 -285.117721 
L 207.260821 -282.035401 
L 210.09283 -302.332695 
L 212.92484 -284.563867 
L 215.756849 -287.917262 
L 218.588858 -284.537621 
L 221.420867 -292.910885 
L 224.252876 -300.93428 
L 227.084885 -294.070903 
L 229.916895 -296.29968 
L 232.748904 -293.554836 
L 235.580913 -301.220211 
L 238.412922 -300.501708 
L 241.244931 -290.140481 
L 244.07694 -290.937955 
L 246.90895 -270.052555 
L 249.740959 -291.620211 
L 252.572968 -264.898805 
L 255.404977 -282.066496 
L 258.236986 -283.96582 
L 261.068995 -274.481889 
L 263.901005 -281.132731 
L 266.733014 -266.819514 
L 269.565023 -259.048471 
L 272.397032 -270.094028 
L 275.229041 -255.996609 
L 278.06105 -265.655125 
L 280.89306 -244.769021 
L 283.725069 -257.289036 
L 286.557078 -266.587213 
L 289.389087 -263.547544 
L 292.221096 -270.450311 
L 295.053105 -261.143698 
L 297.885115 -285.577676 
L 300.717124 -286.614155 
L 303.549133 -267.298592 
L 306.381142 -285.913189 
L 309.213151 -288.557747 
L 312.04516 -273.703931 
L 314.87717 -279.589556 
L 317.709179 -260.981905 
L 320.541188 -286.572361 
L 323.373197 -276.386919 
L 326.205206 -274.304015 
L 329.037215 -293.089241 
L 331.869225 -283.213546 
L 334.701234 -282.317064 
L 337.533243 -288.505331 
L 340.365252 -278.043459 
L 343.197261 -273.232872 
L 346.02927 -285.372916 
L 348.86128 -275.11338 
L 351.693289 -285.259448 
L 354.525298 -259.442688 
L 357.357307 -268.399756 
L 360.189316 -259.158166 
L 363.021325 -275.832501 
L 365.853335 -283.972691 
L 368.685344 -272.36733 
L 371.517353 -288.821334 
L 374.349362 -288.128684 
L 377.181371 -263.459625 
L 380.01338 -274.013986 
L 382.84539 -262.695276 
L 385.677399 -274.779012 
L 388.509408 -263.925009 
L 391.341417 -263.212591 
L 394.173426 -275.535785 
L 397.005435 -283.086224 
L 399.837445 -268.545449 
L 402.669454 -280.426312 
L 405.501463 -284.303065 
L 408.333472 -289.685908 
L 411.165481 -283.313851 
L 413.99749 -266.385095 
L 416.8295 -275.244453 
L 419.661509 -271.981414 
L 422.493518 -267.139273 
L 425.325527 -273.749831 
L 428.157536 -282.466642 
L 430.989545 -288.151249 
L 430.989545 -207.669906 
L 430.989545 -207.669906 
L 428.157536 -217.56098 
L 425.325527 -223.32764 
L 422.493518 -204.177113 
L 419.661509 -225.996217 
L 416.8295 -209.198477 
L 413.99749 -218.251638 
L 411.165481 -214.084185 
L 408.333472 -213.85049 
L 405.501463 -216.472762 
L 402.669454 -225.192136 
L 399.837445 -193.592885 
L 397.005435 -206.555637 
L 394.173426 -216.94799 
L 391.341417 -234.01956 
L 388.509408 -221.178612 
L 385.677399 -233.286442 
L 382.84539 -228.454807 
L 380.01338 -220.77287 
L 377.181371 -223.421313 
L 374.349362 -219.012692 
L 371.517353 -215.187651 
L 368.685344 -216.717727 
L 365.853335 -225.537422 
L 363.021325 -238.958291 
L 360.189316 -229.588452 
L 357.357307 -234.490311 
L 354.525298 -231.408732 
L 351.693289 -231.748289 
L 348.86128 -230.881068 
L 346.02927 -234.236404 
L 343.197261 -224.396799 
L 340.365252 -227.159373 
L 337.533243 -216.491286 
L 334.701234 -196.312801 
L 331.869225 -224.219382 
L 329.037215 -215.478818 
L 326.205206 -210.937286 
L 323.373197 -215.796175 
L 320.541188 -220.212317 
L 317.709179 -228.234703 
L 314.87717 -223.233445 
L 312.04516 -215.078969 
L 309.213151 -211.329598 
L 306.381142 -216.299868 
L 303.549133 -230.762069 
L 300.717124 -211.191684 
L 297.885115 -227.048329 
L 295.053105 -211.857016 
L 292.221096 -239.136809 
L 289.389087 -232.92411 
L 286.557078 -235.582862 
L 283.725069 -223.590518 
L 280.89306 -213.736358 
L 278.06105 -210.571697 
L 275.229041 -217.82574 
L 272.397032 -203.352064 
L 269.565023 -211.435161 
L 266.733014 -228.520114 
L 263.901005 -235.56131 
L 261.068995 -237.742422 
L 258.236986 -239.443593 
L 255.404977 -223.830652 
L 252.572968 -231.694768 
L 249.740959 -226.141096 
L 246.90895 -225.50814 
L 244.07694 -220.199443 
L 241.244931 -246.656652 
L 238.412922 -243.646103 
L 235.580913 -238.739452 
L 232.748904 -229.965181 
L 229.916895 -224.031604 
L 227.084885 -240.276683 
L 224.252876 -235.994684 
L 221.420867 -224.512421 
L 218.588858 -224.546683 
L 215.756849 -213.645039 
L 212.92484 -215.031695 
L 210.09283 -234.204412 
L 207.260821 -244.606595 
L 204.428812 -226.859995 
L 201.596803 -244.160503 
L 198.764794 -227.879543 
L 195.932785 -237.222719 
L 193.100775 -226.433774 
L 190.268766 -235.003627 
L 187.436757 -226.007946 
L 184.604748 -220.53082 
L 181.772739 -204.457004 
L 178.94073 -229.098302 
L 176.10872 -224.890076 
L 173.276711 -221.087917 
L 170.444702 -222.628551 
L 167.612693 -224.984716 
L 164.780684 -220.542655 
L 161.948675 -198.996497 
L 159.116665 -207.403327 
L 156.284656 -213.941173 
L 153.452647 -232.796599 
L 150.620638 -189.400381 
L 147.788629 -218.455445 
L 144.95662 -205.978633 
L 142.12461 -215.133617 
L 139.292601 -197.484277 
L 136.460592 -202.351802 
L 133.628583 -208.668668 
L 130.796574 -211.967471 
L 127.964565 -189.658119 
L 125.132555 -202.727747 
L 122.300546 -208.562707 
L 119.468537 -186.224226 
L 116.636528 -195.613523 
L 113.804519 -199.486975 
L 110.97251 -190.588334 
L 108.1405 -201.715839 
L 105.308491 -204.484158 
L 102.476482 -170.290528 
L 99.644473 -170.812039 
L 96.812464 -169.421998 
L 93.980455 -170.624856 
z
" style="stroke: #ffffff; stroke-opacity: 0.5"/>
    </defs>
    <g clip-path="url(#p632b8a368f)">
     <use xlink:href="#m063bb44700" x="0" y="345.6" style="fill: #dd8452; fill-opacity: 0.5; stroke: #ffffff; stroke-opacity: 0.5"/>
    </g>
   </g>
   <g id="PolyCollection_3">
    <defs>
     <path id="mccab5b1b1d" d="M 93.980455 -165.755957 
L 93.980455 -196.542155 
L 96.812464 -198.443085 
L 99.644473 -194.390034 
L 102.476482 -197.841343 
L 105.308491 -211.589198 
L 108.1405 -233.818675 
L 110.97251 -226.114112 
L 113.804519 -209.29139 
L 116.636528 -229.690962 
L 119.468537 -241.385615 
L 122.300546 -230.005346 
L 125.132555 -239.869476 
L 127.964565 -263.94933 
L 130.796574 -270.322377 
L 133.628583 -272.859225 
L 136.460592 -255.729247 
L 139.292601 -267.493448 
L 142.12461 -267.32415 
L 144.95662 -286.44479 
L 147.788629 -283.106836 
L 150.620638 -284.221283 
L 153.452647 -285.611377 
L 156.284656 -266.424979 
L 159.116665 -266.479656 
L 161.948675 -272.711188 
L 164.780684 -284.225719 
L 167.612693 -282.548452 
L 170.444702 -288.579641 
L 173.276711 -296.235854 
L 176.10872 -269.243477 
L 178.94073 -273.000777 
L 181.772739 -275.39728 
L 184.604748 -288.972678 
L 187.436757 -284.73554 
L 190.268766 -284.918578 
L 193.100775 -295.752978 
L 195.932785 -270.221997 
L 198.764794 -287.725831 
L 201.596803 -291.794956 
L 204.428812 -288.947934 
L 207.260821 -286.308306 
L 210.09283 -284.189639 
L 212.92484 -299.770742 
L 215.756849 -297.361931 
L 218.588858 -298.004703 
L 221.420867 -290.871126 
L 224.252876 -300.923809 
L 227.084885 -303.863771 
L 229.916895 -308.858227 
L 232.748904 -298.557745 
L 235.580913 -291.729801 
L 238.412922 -302.969795 
L 241.244931 -307.428349 
L 244.07694 -294.522334 
L 246.90895 -295.036227 
L 249.740959 -294.001707 
L 252.572968 -300.752183 
L 255.404977 -301.314399 
L 258.236986 -297.951773 
L 261.068995 -298.241664 
L 263.901005 -299.582934 
L 266.733014 -301.280759 
L 269.565023 -299.604564 
L 272.397032 -299.765636 
L 275.229041 -306.069527 
L 278.06105 -294.377445 
L 280.89306 -288.71575 
L 283.725069 -304.017829 
L 286.557078 -298.220527 
L 289.389087 -291.718699 
L 292.221096 -291.769108 
L 295.053105 -294.786157 
L 297.885115 -295.144254 
L 300.717124 -285.508188 
L 303.549133 -290.830141 
L 306.381142 -300.270664 
L 309.213151 -294.801991 
L 312.04516 -292.308703 
L 314.87717 -282.296475 
L 317.709179 -299.46605 
L 320.541188 -299.852787 
L 323.373197 -297.734305 
L 326.205206 -301.540843 
L 329.037215 -303.160277 
L 331.869225 -299.43268 
L 334.701234 -290.147068 
L 337.533243 -284.684717 
L 340.365252 -297.27318 
L 343.197261 -303.512096 
L 346.02927 -296.278678 
L 348.86128 -293.95256 
L 351.693289 -298.884905 
L 354.525298 -300.800008 
L 357.357307 -299.359652 
L 360.189316 -294.232759 
L 363.021325 -281.736113 
L 365.853335 -295.5674 
L 368.685344 -299.875483 
L 371.517353 -298.295124 
L 374.349362 -296.963892 
L 377.181371 -294.624313 
L 380.01338 -303.138681 
L 382.84539 -293.220642 
L 385.677399 -296.193162 
L 388.509408 -296.127891 
L 391.341417 -297.544818 
L 394.173426 -290.305548 
L 397.005435 -292.431932 
L 399.837445 -299.0135 
L 402.669454 -287.770668 
L 405.501463 -291.551907 
L 408.333472 -304.839773 
L 411.165481 -302.144171 
L 413.99749 -291.956452 
L 416.8295 -295.387509 
L 419.661509 -291.396223 
L 422.493518 -295.360437 
L 425.325527 -298.58414 
L 428.157536 -295.24315 
L 430.989545 -292.922718 
L 430.989545 -283.280593 
L 430.989545 -283.280593 
L 428.157536 -275.989557 
L 425.325527 -273.472148 
L 422.493518 -266.675551 
L 419.661509 -276.279485 
L 416.8295 -281.041338 
L 413.99749 -282.092094 
L 411.165481 -279.590864 
L 408.333472 -267.75152 
L 405.501463 -263.068371 
L 402.669454 -268.283392 
L 399.837445 -268.447598 
L 397.005435 -267.154516 
L 394.173426 -245.660209 
L 391.341417 -265.227288 
L 388.509408 -259.681359 
L 385.677399 -257.50263 
L 382.84539 -282.909231 
L 380.01338 -276.310521 
L 377.181371 -271.768925 
L 374.349362 -276.718098 
L 371.517353 -264.123382 
L 368.685344 -268.543737 
L 365.853335 -253.001252 
L 363.021325 -259.997362 
L 360.189316 -278.853205 
L 357.357307 -258.697144 
L 354.525298 -261.799101 
L 351.693289 -275.32349 
L 348.86128 -256.546039 
L 346.02927 -270.046777 
L 343.197261 -279.903313 
L 340.365252 -258.469346 
L 337.533243 -262.172861 
L 334.701234 -279.1027 
L 331.869225 -257.02407 
L 329.037215 -264.494673 
L 326.205206 -263.33687 
L 323.373197 -239.817805 
L 320.541188 -252.795207 
L 317.709179 -265.330844 
L 314.87717 -256.214355 
L 312.04516 -257.343873 
L 309.213151 -264.714714 
L 306.381142 -258.874601 
L 303.549133 -243.500224 
L 300.717124 -272.27539 
L 297.885115 -262.637388 
L 295.053105 -253.713037 
L 292.221096 -246.930997 
L 289.389087 -229.049668 
L 286.557078 -271.788322 
L 283.725069 -262.240601 
L 280.89306 -254.010519 
L 278.06105 -262.849514 
L 275.229041 -275.880073 
L 272.397032 -259.109432 
L 269.565023 -259.098761 
L 266.733014 -253.816412 
L 263.901005 -276.835537 
L 261.068995 -272.072423 
L 258.236986 -269.303032 
L 255.404977 -268.381779 
L 252.572968 -259.568797 
L 249.740959 -269.265014 
L 246.90895 -256.173557 
L 244.07694 -245.225503 
L 241.244931 -256.342225 
L 238.412922 -272.613025 
L 235.580913 -258.164932 
L 232.748904 -279.348815 
L 229.916895 -259.503713 
L 227.084885 -255.099274 
L 224.252876 -260.355406 
L 221.420867 -261.461021 
L 218.588858 -260.359714 
L 215.756849 -234.134205 
L 212.92484 -265.261449 
L 210.09283 -269.479661 
L 207.260821 -253.592164 
L 204.428812 -246.502307 
L 201.596803 -230.924147 
L 198.764794 -251.870867 
L 195.932785 -254.348205 
L 193.100775 -264.232107 
L 190.268766 -262.068135 
L 187.436757 -233.915039 
L 184.604748 -234.489977 
L 181.772739 -259.087188 
L 178.94073 -212.653762 
L 176.10872 -257.470018 
L 173.276711 -251.79584 
L 170.444702 -257.834093 
L 167.612693 -215.925449 
L 164.780684 -212.332368 
L 161.948675 -226.125446 
L 159.116665 -236.37887 
L 156.284656 -237.545064 
L 153.452647 -224.137002 
L 150.620638 -208.724153 
L 147.788629 -238.100529 
L 144.95662 -192.087635 
L 142.12461 -199.336061 
L 139.292601 -211.049009 
L 136.460592 -220.958227 
L 133.628583 -218.18864 
L 130.796574 -221.902485 
L 127.964565 -215.338292 
L 125.132555 -208.709518 
L 122.300546 -206.490686 
L 119.468537 -193.183119 
L 116.636528 -199.919029 
L 113.804519 -189.198317 
L 110.97251 -203.39547 
L 108.1405 -206.849915 
L 105.308491 -191.265499 
L 102.476482 -178.055347 
L 99.644473 -169.68776 
L 96.812464 -162.916905 
L 93.980455 -165.755957 
z
" style="stroke: #ffffff; stroke-opacity: 0.5"/>
    </defs>
    <g clip-path="url(#p632b8a368f)">
     <use xlink:href="#mccab5b1b1d" x="0" y="345.6" style="fill: #55a868; fill-opacity: 0.5; stroke: #ffffff; stroke-opacity: 0.5"/>
    </g>
   </g>
   <g id="PolyCollection_4">
    <defs>
     <path id="m3878a535ee" d="M 93.980455 -155.181418 
L 93.980455 -215.360112 
L 96.812464 -238.290248 
L 99.644473 -189.547732 
L 102.476482 -219.964144 
L 105.308491 -240.932946 
L 108.1405 -238.440142 
L 110.97251 -231.404722 
L 113.804519 -239.640882 
L 116.636528 -275.986323 
L 119.468537 -281.759003 
L 122.300546 -267.542415 
L 125.132555 -273.242408 
L 127.964565 -258.774135 
L 130.796574 -271.972661 
L 133.628583 -278.500546 
L 136.460592 -279.518798 
L 139.292601 -294.992479 
L 142.12461 -258.991172 
L 144.95662 -283.995695 
L 147.788629 -300.034861 
L 150.620638 -299.121405 
L 153.452647 -299.918675 
L 156.284656 -290.322604 
L 159.116665 -300.055324 
L 161.948675 -300.551792 
L 164.780684 -283.576984 
L 167.612693 -279.404979 
L 170.444702 -287.297446 
L 173.276711 -296.508859 
L 176.10872 -303.997987 
L 178.94073 -297.201202 
L 181.772739 -301.293883 
L 184.604748 -303.12973 
L 187.436757 -302.86342 
L 190.268766 -304.876632 
L 193.100775 -306.168499 
L 195.932785 -308.222563 
L 198.764794 -302.70392 
L 201.596803 -304.271571 
L 204.428812 -302.018353 
L 207.260821 -309.237222 
L 210.09283 -308.478484 
L 212.92484 -304.295998 
L 215.756849 -303.87883 
L 218.588858 -303.979943 
L 221.420867 -305.885632 
L 224.252876 -310.707231 
L 227.084885 -301.907641 
L 229.916895 -305.291711 
L 232.748904 -304.092717 
L 235.580913 -302.04118 
L 238.412922 -301.583045 
L 241.244931 -304.406645 
L 244.07694 -303.266284 
L 246.90895 -304.967583 
L 249.740959 -305.943163 
L 252.572968 -301.645622 
L 255.404977 -303.494172 
L 258.236986 -304.823047 
L 261.068995 -300.88282 
L 263.901005 -303.765722 
L 266.733014 -302.60814 
L 269.565023 -303.592903 
L 272.397032 -304.366337 
L 275.229041 -303.469863 
L 278.06105 -303.378326 
L 280.89306 -304.3752 
L 283.725069 -303.301097 
L 286.557078 -303.799344 
L 289.389087 -304.183932 
L 292.221096 -305.805686 
L 295.053105 -304.944341 
L 297.885115 -302.916042 
L 300.717124 -301.000621 
L 303.549133 -304.824269 
L 306.381142 -303.950416 
L 309.213151 -309.048011 
L 312.04516 -305.519874 
L 314.87717 -303.724204 
L 317.709179 -304.177314 
L 320.541188 -303.745244 
L 323.373197 -302.953769 
L 326.205206 -303.919766 
L 329.037215 -301.366078 
L 331.869225 -304.625132 
L 334.701234 -307.707487 
L 337.533243 -306.137962 
L 340.365252 -304.332392 
L 343.197261 -303.572697 
L 346.02927 -303.965246 
L 348.86128 -302.912714 
L 351.693289 -303.861805 
L 354.525298 -302.717073 
L 357.357307 -303.662796 
L 360.189316 -304.787454 
L 363.021325 -301.507021 
L 365.853335 -300.063931 
L 368.685344 -301.39245 
L 371.517353 -302.788377 
L 374.349362 -306.090039 
L 377.181371 -303.780491 
L 380.01338 -302.084905 
L 382.84539 -304.554308 
L 385.677399 -302.853299 
L 388.509408 -301.879967 
L 391.341417 -303.063142 
L 394.173426 -303.060897 
L 397.005435 -302.510089 
L 399.837445 -303.353086 
L 402.669454 -303.353735 
L 405.501463 -301.917317 
L 408.333472 -301.324793 
L 411.165481 -302.099029 
L 413.99749 -301.714605 
L 416.8295 -303.316058 
L 419.661509 -304.107726 
L 422.493518 -302.609375 
L 425.325527 -302.826763 
L 428.157536 -305.481611 
L 430.989545 -303.822384 
L 430.989545 -297.974719 
L 430.989545 -297.974719 
L 428.157536 -299.696608 
L 425.325527 -299.529886 
L 422.493518 -297.401016 
L 419.661509 -298.683429 
L 416.8295 -300.679514 
L 413.99749 -300.163312 
L 411.165481 -298.363385 
L 408.333472 -298.925418 
L 405.501463 -299.199339 
L 402.669454 -300.626495 
L 399.837445 -299.743378 
L 397.005435 -300.183251 
L 394.173426 -298.925536 
L 391.341417 -299.183814 
L 388.509408 -297.314373 
L 385.677399 -300.12291 
L 382.84539 -299.245309 
L 380.01338 -298.243621 
L 377.181371 -300.476321 
L 374.349362 -299.597715 
L 371.517353 -299.573557 
L 368.685344 -299.00163 
L 365.853335 -298.772728 
L 363.021325 -299.814168 
L 360.189316 -301.916334 
L 357.357307 -299.692861 
L 354.525298 -299.968118 
L 351.693289 -299.629793 
L 348.86128 -299.389918 
L 346.02927 -300.284725 
L 343.197261 -299.07542 
L 340.365252 -299.838637 
L 337.533243 -298.932181 
L 334.701234 -299.494521 
L 331.869225 -302.055529 
L 329.037215 -300.308013 
L 326.205206 -300.675914 
L 323.373197 -299.579999 
L 320.541188 -300.884212 
L 317.709179 -298.515902 
L 314.87717 -301.591669 
L 312.04516 -300.418338 
L 309.213151 -299.935692 
L 306.381142 -299.880751 
L 303.549133 -299.554542 
L 300.717124 -299.759892 
L 297.885115 -299.101252 
L 295.053105 -299.784085 
L 292.221096 -300.047379 
L 289.389087 -298.827358 
L 286.557078 -299.606611 
L 283.725069 -299.749756 
L 280.89306 -300.324721 
L 278.06105 -299.446001 
L 275.229041 -301.290684 
L 272.397032 -299.930706 
L 269.565023 -300.687578 
L 266.733014 -301.944135 
L 263.901005 -299.107264 
L 261.068995 -296.808232 
L 258.236986 -301.496737 
L 255.404977 -299.455943 
L 252.572968 -299.155054 
L 249.740959 -299.406858 
L 246.90895 -298.026585 
L 244.07694 -298.88543 
L 241.244931 -299.394754 
L 238.412922 -298.528196 
L 235.580913 -279.050818 
L 232.748904 -282.945233 
L 229.916895 -291.20798 
L 227.084885 -283.43807 
L 224.252876 -299.836787 
L 221.420867 -300.498908 
L 218.588858 -278.7023 
L 215.756849 -298.945549 
L 212.92484 -294.87258 
L 210.09283 -288.737501 
L 207.260821 -289.010237 
L 204.428812 -292.426557 
L 201.596803 -291.597124 
L 198.764794 -279.60494 
L 195.932785 -263.884845 
L 193.100775 -299.58902 
L 190.268766 -293.161061 
L 187.436757 -252.146304 
L 184.604748 -291.297782 
L 181.772739 -265.49719 
L 178.94073 -262.27629 
L 176.10872 -260.372679 
L 173.276711 -251.525664 
L 170.444702 -249.316613 
L 167.612693 -261.680651 
L 164.780684 -233.404323 
L 161.948675 -252.323793 
L 159.116665 -216.378693 
L 156.284656 -202.990963 
L 153.452647 -241.216182 
L 150.620638 -259.830034 
L 147.788629 -225.838128 
L 144.95662 -240.375914 
L 142.12461 -209.25771 
L 139.292601 -216.298602 
L 136.460592 -201.678812 
L 133.628583 -230.415573 
L 130.796574 -204.198823 
L 127.964565 -202.734067 
L 125.132555 -205.733887 
L 122.300546 -187.363917 
L 119.468537 -198.619678 
L 116.636528 -190.768628 
L 113.804519 -202.043494 
L 110.97251 -172.459064 
L 108.1405 -191.561388 
L 105.308491 -156.156629 
L 102.476482 -166.904033 
L 99.644473 -118.759754 
L 96.812464 -151.258149 
L 93.980455 -155.181418 
z
" style="stroke: #ffffff; stroke-opacity: 0.5"/>
    </defs>
    <g clip-path="url(#p632b8a368f)">
     <use xlink:href="#m3878a535ee" x="0" y="345.6" style="fill: #c44e52; fill-opacity: 0.5; stroke: #ffffff; stroke-opacity: 0.5"/>
    </g>
   </g>
   <g id="line2d_14">
    <path d="M 93.980455 197.558104 
L 96.812464 118.947189 
L 99.644473 81.873414 
L 102.476482 66.008834 
L 105.308491 120.666899 
L 108.1405 61.788228 
L 110.97251 73.793657 
L 113.804519 58.730918 
L 116.636528 50.319904 
L 119.468537 89.508364 
L 122.300546 45.155732 
L 125.132555 61.705835 
L 127.964565 86.209941 
L 130.796574 61.096841 
L 133.628583 62.194845 
L 136.460592 68.212984 
L 139.292601 69.763242 
L 142.12461 61.649721 
L 144.95662 50.280935 
L 147.788629 92.603185 
L 150.620638 67.516959 
L 153.452647 65.367134 
L 156.284656 64.757518 
L 159.116665 64.168028 
L 161.948675 74.849998 
L 164.780684 68.670976 
L 167.612693 48.752746 
L 170.444702 42.78619 
L 173.276711 63.177904 
L 176.10872 62.476466 
L 178.94073 75.15253 
L 181.772739 58.258932 
L 184.604748 78.753754 
L 187.436757 42.289749 
L 190.268766 56.348975 
L 193.100775 52.528886 
L 195.932785 63.295884 
L 198.764794 49.342916 
L 201.596803 53.74561 
L 204.428812 71.676648 
L 207.260821 64.047368 
L 210.09283 65.401246 
L 212.92484 113.924826 
L 215.756849 52.062515 
L 218.588858 79.119151 
L 221.420867 60.904109 
L 224.252876 58.038132 
L 227.084885 71.986318 
L 229.916895 47.18889 
L 232.748904 44.718849 
L 235.580913 65.380045 
L 238.412922 49.330524 
L 241.244931 56.813566 
L 244.07694 71.716377 
L 246.90895 81.12479 
L 249.740959 61.657512 
L 252.572968 82.462574 
L 255.404977 67.989061 
L 258.236986 60.912193 
L 261.068995 45.97417 
L 263.901005 73.490318 
L 266.733014 82.847234 
L 269.565023 52.97348 
L 272.397032 90.566912 
L 275.229041 158.840169 
L 278.06105 82.339309 
L 280.89306 92.12133 
L 283.725069 122.959367 
L 286.557078 60.49481 
L 289.389087 72.645642 
L 292.221096 103.672552 
L 295.053105 59.771271 
L 297.885115 109.51722 
L 300.717124 61.128256 
L 303.549133 105.841988 
L 306.381142 161.527673 
L 309.213151 125.544504 
L 312.04516 95.908477 
L 314.87717 141.520806 
L 317.709179 153.580956 
L 320.541188 134.302843 
L 323.373197 96.100644 
L 326.205206 115.451518 
L 329.037215 119.465403 
L 331.869225 71.390237 
L 334.701234 128.524956 
L 337.533243 156.844131 
L 340.365252 110.409298 
L 343.197261 165.163019 
L 346.02927 133.717038 
L 348.86128 151.276223 
L 351.693289 164.137742 
L 354.525298 201.075041 
L 357.357307 222.102895 
L 360.189316 194.230602 
L 363.021325 191.282211 
L 365.853335 197.601191 
L 368.685344 204.475266 
L 371.517353 231.935683 
L 374.349362 232.328827 
L 377.181371 215.664158 
L 380.01338 250.171466 
L 382.84539 238.075798 
L 385.677399 164.763486 
L 388.509408 190.709495 
L 391.341417 189.956848 
L 394.173426 187.693297 
L 397.005435 258.065935 
L 399.837445 194.966156 
L 402.669454 209.750948 
L 405.501463 231.342497 
L 408.333472 202.232692 
L 411.165481 201.737382 
L 413.99749 242.060569 
L 416.8295 245.295512 
L 419.661509 207.972614 
L 422.493518 219.295598 
L 425.325527 252.102098 
L 428.157536 200.137643 
L 430.989545 261.924057 
" clip-path="url(#p632b8a368f)" style="fill: none; stroke: #4c72b0; stroke-width: 3; stroke-linecap: round"/>
   </g>
   <g id="line2d_15">
    <path d="M 93.980455 167.285481 
L 96.812464 163.514636 
L 99.644473 160.891659 
L 102.476482 155.63943 
L 105.308491 138.286856 
L 108.1405 137.051846 
L 110.97251 138.891642 
L 113.804519 139.654368 
L 116.636528 141.029096 
L 119.468537 144.927766 
L 122.300546 124.941427 
L 125.132555 126.61529 
L 127.964565 124.460122 
L 130.796574 120.770699 
L 133.628583 124.166196 
L 136.460592 124.878223 
L 139.292601 129.979455 
L 142.12461 124.396962 
L 144.95662 120.367664 
L 147.788629 108.859837 
L 150.620638 125.585476 
L 153.452647 100.881366 
L 156.284656 112.722149 
L 159.116665 125.653946 
L 161.948675 124.76834 
L 164.780684 110.766804 
L 167.612693 106.923571 
L 170.444702 106.706156 
L 173.276711 106.704513 
L 176.10872 105.802719 
L 178.94073 104.296442 
L 181.772739 111.437975 
L 184.604748 94.051656 
L 187.436757 86.726116 
L 190.268766 96.50396 
L 193.100775 94.688521 
L 195.932785 89.48837 
L 198.764794 99.621857 
L 201.596803 86.331665 
L 204.428812 97.815927 
L 207.260821 89.077708 
L 210.09283 85.240289 
L 212.92484 98.101024 
L 215.756849 103.855693 
L 218.588858 84.203787 
L 221.420867 87.141947 
L 224.252876 89.431668 
L 227.084885 85.728909 
L 229.916895 93.441971 
L 232.748904 85.474216 
L 235.580913 87.936744 
L 238.412922 80.166386 
L 241.244931 83.907031 
L 244.07694 94.605984 
L 246.90895 103.858414 
L 249.740959 91.42537 
L 252.572968 99.195623 
L 255.404977 90.447119 
L 258.236986 92.036356 
L 261.068995 90.646827 
L 263.901005 85.421754 
L 266.733014 102.010284 
L 269.565023 105.177044 
L 272.397032 101.120743 
L 275.229041 108.363782 
L 278.06105 102.368342 
L 280.89306 118.59952 
L 283.725069 100.977405 
L 286.557078 95.405064 
L 289.389087 94.089352 
L 292.221096 88.21189 
L 295.053105 100.196735 
L 297.885115 100.760982 
L 300.717124 99.876773 
L 303.549133 99.595903 
L 306.381142 99.903761 
L 309.213151 97.309204 
L 312.04516 102.612515 
L 314.87717 96.422204 
L 317.709179 100.645056 
L 320.541188 99.315141 
L 323.373197 100.182873 
L 326.205206 103.841012 
L 329.037215 102.50849 
L 331.869225 99.180088 
L 334.701234 108.746294 
L 337.533243 98.40552 
L 340.365252 94.456813 
L 343.197261 101.938823 
L 346.02927 83.516973 
L 348.86128 84.088109 
L 351.693289 93.448268 
L 354.525298 100.774907 
L 357.357307 92.089477 
L 360.189316 99.612491 
L 363.021325 93.976972 
L 365.853335 89.050048 
L 368.685344 95.838905 
L 371.517353 94.205587 
L 374.349362 91.872058 
L 377.181371 100.976468 
L 380.01338 93.799229 
L 382.84539 94.810672 
L 385.677399 90.548839 
L 388.509408 97.856977 
L 391.341417 102.234358 
L 394.173426 92.267853 
L 397.005435 93.021695 
L 399.837445 99.841733 
L 402.669454 88.842179 
L 405.501463 95.776601 
L 408.333472 92.301325 
L 411.165481 95.227493 
L 413.99749 97.922498 
L 416.8295 95.181991 
L 419.661509 92.161484 
L 422.493518 112.97192 
L 425.325527 105.794886 
L 428.157536 97.209265 
L 430.989545 101.009759 
" clip-path="url(#p632b8a368f)" style="fill: none; stroke: #dd8452; stroke-width: 3; stroke-linecap: round"/>
   </g>
   <g id="line2d_16">
    <path d="M 93.980455 161.45626 
L 96.812464 168.300802 
L 99.644473 165.232034 
L 102.476482 156.608957 
L 105.308491 143.74161 
L 108.1405 128.853429 
L 110.97251 132.385386 
L 113.804519 144.621594 
L 116.636528 132.364571 
L 119.468537 129.590326 
L 122.300546 130.366377 
L 125.132555 121.839939 
L 127.964565 110.273911 
L 130.796574 102.21322 
L 133.628583 107.692463 
L 136.460592 105.165719 
L 139.292601 100.979584 
L 142.12461 103.420268 
L 144.95662 119.147667 
L 147.788629 91.342332 
L 150.620638 102.93715 
L 153.452647 88.399776 
L 156.284656 93.354539 
L 159.116665 92.721137 
L 161.948675 98.346783 
L 164.780684 93.031444 
L 167.612693 93.304337 
L 170.444702 69.960347 
L 173.276711 77.596637 
L 176.10872 82.672068 
L 178.94073 99.07242 
L 181.772739 77.422939 
L 184.604748 87.718682 
L 187.436757 80.199928 
L 190.268766 69.383052 
L 193.100775 71.579807 
L 195.932785 84.431582 
L 198.764794 68.344475 
L 201.596803 75.35381 
L 204.428812 72.432034 
L 207.260821 74.322777 
L 210.09283 71.194941 
L 212.92484 64.510576 
L 215.756849 66.916671 
L 218.588858 68.316694 
L 221.420867 67.093528 
L 224.252876 72.744767 
L 227.084885 71.261192 
L 229.916895 66.174828 
L 232.748904 58.64353 
L 235.580913 73.681479 
L 238.412922 52.952237 
L 241.244931 61.068244 
L 244.07694 66.475018 
L 246.90895 64.458291 
L 249.740959 58.097734 
L 252.572968 68.66831 
L 255.404977 63.865279 
L 258.236986 63.785969 
L 261.068995 57.670503 
L 263.901005 61.221304 
L 266.733014 62.142483 
L 269.565023 69.434809 
L 272.397032 67.256387 
L 275.229041 57.978462 
L 278.06105 61.801145 
L 280.89306 72.18111 
L 283.725069 62.303849 
L 286.557078 60.76483 
L 289.389087 74.343041 
L 292.221096 68.226075 
L 295.053105 68.163408 
L 297.885115 63.775585 
L 300.717124 67.367541 
L 303.549133 76.171888 
L 306.381142 67.552315 
L 309.213151 63.040027 
L 312.04516 72.671297 
L 314.87717 73.892287 
L 317.709179 63.600573 
L 320.541188 64.160218 
L 323.373197 61.338069 
L 326.205206 66.800155 
L 329.037215 60.325173 
L 331.869225 71.701351 
L 334.701234 61.458972 
L 337.533243 72.368173 
L 340.365252 68.759296 
L 343.197261 54.577042 
L 346.02927 58.940724 
L 348.86128 65.231389 
L 351.693289 59.097278 
L 354.525298 67.23302 
L 357.357307 66.970004 
L 360.189316 57.429653 
L 363.021325 71.861684 
L 365.853335 70.096688 
L 368.685344 64.113478 
L 371.517353 65.748034 
L 374.349362 56.208808 
L 377.181371 61.292236 
L 380.01338 59.993332 
L 382.84539 56.36373 
L 385.677399 65.079746 
L 388.509408 68.773561 
L 391.341417 59.0758 
L 394.173426 69.135051 
L 397.005435 64.297418 
L 399.837445 60.003436 
L 402.669454 65.820078 
L 405.501463 68.690894 
L 408.333472 56.777156 
L 411.165481 53.805797 
L 413.99749 58.692463 
L 416.8295 57.882065 
L 419.661509 59.665556 
L 422.493518 61.419012 
L 425.325527 58.299423 
L 428.157536 56.760192 
L 430.989545 56.28269 
" clip-path="url(#p632b8a368f)" style="fill: none; stroke: #55a868; stroke-width: 3; stroke-linecap: round"/>
   </g>
   <g id="line2d_17">
    <path d="M 93.980455 160.179032 
L 96.812464 154.768304 
L 99.644473 181.37879 
L 102.476482 155.119761 
L 105.308491 145.23318 
L 108.1405 141.663851 
L 110.97251 148.767545 
L 113.804519 125.719716 
L 116.636528 118.083641 
L 119.468537 115.78573 
L 122.300546 126.513739 
L 125.132555 110.256711 
L 127.964565 105.259702 
L 130.796574 97.705083 
L 133.628583 91.69648 
L 136.460592 96.075287 
L 139.292601 88.12419 
L 142.12461 111.706407 
L 144.95662 81.68203 
L 147.788629 75.560479 
L 150.620638 70.935006 
L 153.452647 69.526146 
L 156.284656 94.922513 
L 159.116665 82.241765 
L 161.948675 76.737599 
L 164.780684 82.122697 
L 167.612693 71.107362 
L 170.444702 74.680777 
L 173.276711 67.665964 
L 176.10872 61.993723 
L 178.94073 69.451151 
L 181.772739 60.316294 
L 184.604748 48.430496 
L 187.436757 70.36016 
L 190.268766 45.91044 
L 193.100775 43.946772 
L 195.932785 51.690036 
L 198.764794 51.069175 
L 201.596803 47.985731 
L 204.428812 48.043679 
L 207.260821 47.102438 
L 210.09283 45.575806 
L 212.92484 45.212121 
L 215.756849 45.102639 
L 218.588858 50.651175 
L 221.420867 43.226847 
L 224.252876 41.102275 
L 227.084885 48.011319 
L 229.916895 45.294762 
L 232.748904 48.100998 
L 235.580913 49.145696 
L 238.412922 45.424723 
L 241.244931 42.786397 
L 244.07694 44.914616 
L 246.90895 43.784308 
L 249.740959 42.894338 
L 252.572968 45.456299 
L 255.404977 44.001796 
L 258.236986 42.880926 
L 261.068995 45.92804 
L 263.901005 44.795604 
L 266.733014 43.199156 
L 269.565023 43.373099 
L 272.397032 44.12931 
L 275.229041 43.027446 
L 278.06105 44.562537 
L 280.89306 42.761092 
L 283.725069 44.169545 
L 286.557078 44.263645 
L 289.389087 44.722062 
L 292.221096 44.037882 
L 295.053105 43.825812 
L 297.885115 44.380241 
L 300.717124 45.116609 
L 303.549133 43.698332 
L 306.381142 43.600544 
L 309.213151 42.847088 
L 312.04516 42.396081 
L 314.87717 43.069054 
L 317.709179 43.535366 
L 320.541188 43.025748 
L 323.373197 44.463765 
L 326.205206 44.029945 
L 329.037215 44.836487 
L 331.869225 41.940644 
L 334.701234 43.735947 
L 337.533243 43.73121 
L 340.365252 43.680199 
L 343.197261 44.325049 
L 346.02927 44.120313 
L 348.86128 44.757662 
L 351.693289 44.258605 
L 354.525298 44.506167 
L 357.357307 44.172904 
L 360.189316 42.664978 
L 363.021325 45.074429 
L 365.853335 46.211773 
L 368.685344 45.193365 
L 371.517353 45.01735 
L 374.349362 43.407824 
L 377.181371 44.078171 
L 380.01338 44.746067 
L 382.84539 43.66821 
L 385.677399 44.07588 
L 388.509408 45.974899 
L 391.341417 44.738161 
L 394.173426 44.140019 
L 397.005435 44.274466 
L 399.837445 44.520512 
L 402.669454 43.776638 
L 405.501463 45.313973 
L 408.333472 45.858048 
L 411.165481 45.397594 
L 413.99749 44.736444 
L 416.8295 44.019178 
L 419.661509 45.343617 
L 422.493518 45.060134 
L 425.325527 44.541189 
L 428.157536 43.342872 
L 430.989545 44.744264 
" clip-path="url(#p632b8a368f)" style="fill: none; stroke: #c44e52; stroke-width: 3; stroke-linecap: round"/>
   </g>
   <g id="patch_3">
    <path d="M 77.13 294.66 
L 77.13 12.96 
" style="fill: none; stroke: #ffffff; stroke-width: 1.25; stroke-linejoin: miter; stroke-linecap: square"/>
   </g>
   <g id="patch_4">
    <path d="M 447.84 294.66 
L 447.84 12.96 
" style="fill: none; stroke: #ffffff; stroke-width: 1.25; stroke-linejoin: miter; stroke-linecap: square"/>
   </g>
   <g id="patch_5">
    <path d="M 77.13 294.66 
L 447.84 294.66 
" style="fill: none; stroke: #ffffff; stroke-width: 1.25; stroke-linejoin: miter; stroke-linecap: square"/>
   </g>
   <g id="patch_6">
    <path d="M 77.13 12.96 
L 447.84 12.96 
" style="fill: none; stroke: #ffffff; stroke-width: 1.25; stroke-linejoin: miter; stroke-linecap: square"/>
   </g>
   <g id="legend_1">
    <g id="patch_7">
     <path d="M 84.83 289.16 
L 212.246094 289.16 
Q 214.446094 289.16 214.446094 286.96 
L 214.446094 223.47625 
Q 214.446094 221.27625 212.246094 221.27625 
L 84.83 221.27625 
Q 82.63 221.27625 82.63 223.47625 
L 82.63 286.96 
Q 82.63 289.16 84.83 289.16 
z
" style="fill: #eaeaf2; opacity: 0.8; stroke: #cccccc; stroke-linejoin: miter"/>
    </g>
    <g id="line2d_18">
     <path d="M 87.03 230.184531 
L 98.03 230.184531 
L 109.03 230.184531 
" style="fill: none; stroke: #4c72b0; stroke-width: 3; stroke-linecap: round"/>
    </g>
    <g id="text_16">
     <!-- DATS-DELAY-10 -->
     <g style="fill: #262626" transform="translate(117.83 234.034531)scale(0.11 -0.11)">
      <defs>
       <path id="DejaVuSans-44" d="M 1259 4147 
L 1259 519 
L 2022 519 
Q 2988 519 3436 956 
Q 3884 1394 3884 2338 
Q 3884 3275 3436 3711 
Q 2988 4147 2022 4147 
L 1259 4147 
z
M 628 4666 
L 1925 4666 
Q 3281 4666 3915 4102 
Q 4550 3538 4550 2338 
Q 4550 1131 3912 565 
Q 3275 0 1925 0 
L 628 0 
L 628 4666 
z
" transform="scale(0.015625)"/>
       <path id="DejaVuSans-41" d="M 2188 4044 
L 1331 1722 
L 3047 1722 
L 2188 4044 
z
M 1831 4666 
L 2547 4666 
L 4325 0 
L 3669 0 
L 3244 1197 
L 1141 1197 
L 716 0 
L 50 0 
L 1831 4666 
z
" transform="scale(0.015625)"/>
       <path id="DejaVuSans-54" d="M -19 4666 
L 3928 4666 
L 3928 4134 
L 2272 4134 
L 2272 0 
L 1638 0 
L 1638 4134 
L -19 4134 
L -19 4666 
z
" transform="scale(0.015625)"/>
       <path id="DejaVuSans-53" d="M 3425 4513 
L 3425 3897 
Q 3066 4069 2747 4153 
Q 2428 4238 2131 4238 
Q 1616 4238 1336 4038 
Q 1056 3838 1056 3469 
Q 1056 3159 1242 3001 
Q 1428 2844 1947 2747 
L 2328 2669 
Q 3034 2534 3370 2195 
Q 3706 1856 3706 1288 
Q 3706 609 3251 259 
Q 2797 -91 1919 -91 
Q 1588 -91 1214 -16 
Q 841 59 441 206 
L 441 856 
Q 825 641 1194 531 
Q 1563 422 1919 422 
Q 2459 422 2753 634 
Q 3047 847 3047 1241 
Q 3047 1584 2836 1778 
Q 2625 1972 2144 2069 
L 1759 2144 
Q 1053 2284 737 2584 
Q 422 2884 422 3419 
Q 422 4038 858 4394 
Q 1294 4750 2059 4750 
Q 2388 4750 2728 4690 
Q 3069 4631 3425 4513 
z
" transform="scale(0.015625)"/>
       <path id="DejaVuSans-2d" d="M 313 2009 
L 1997 2009 
L 1997 1497 
L 313 1497 
L 313 2009 
z
" transform="scale(0.015625)"/>
       <path id="DejaVuSans-45" d="M 628 4666 
L 3578 4666 
L 3578 4134 
L 1259 4134 
L 1259 2753 
L 3481 2753 
L 3481 2222 
L 1259 2222 
L 1259 531 
L 3634 531 
L 3634 0 
L 628 0 
L 628 4666 
z
" transform="scale(0.015625)"/>
       <path id="DejaVuSans-4c" d="M 628 4666 
L 1259 4666 
L 1259 531 
L 3531 531 
L 3531 0 
L 628 0 
L 628 4666 
z
" transform="scale(0.015625)"/>
       <path id="DejaVuSans-59" d="M -13 4666 
L 666 4666 
L 1959 2747 
L 3244 4666 
L 3922 4666 
L 2272 2222 
L 2272 0 
L 1638 0 
L 1638 2222 
L -13 4666 
z
" transform="scale(0.015625)"/>
      </defs>
      <use xlink:href="#DejaVuSans-44"/>
      <use xlink:href="#DejaVuSans-41" x="75.251953"/>
      <use xlink:href="#DejaVuSans-54" x="135.910156"/>
      <use xlink:href="#DejaVuSans-53" x="196.994141"/>
      <use xlink:href="#DejaVuSans-2d" x="260.470703"/>
      <use xlink:href="#DejaVuSans-44" x="296.554688"/>
      <use xlink:href="#DejaVuSans-45" x="373.556641"/>
      <use xlink:href="#DejaVuSans-4c" x="436.740234"/>
      <use xlink:href="#DejaVuSans-41" x="494.703125"/>
      <use xlink:href="#DejaVuSans-59" x="555.361328"/>
      <use xlink:href="#DejaVuSans-2d" x="604.570312"/>
      <use xlink:href="#DejaVuSans-31" x="640.654297"/>
      <use xlink:href="#DejaVuSans-30" x="704.277344"/>
     </g>
    </g>
    <g id="line2d_19">
     <path d="M 87.03 246.330469 
L 98.03 246.330469 
L 109.03 246.330469 
" style="fill: none; stroke: #dd8452; stroke-width: 3; stroke-linecap: round"/>
    </g>
    <g id="text_17">
     <!-- SAC-DELAY-10 -->
     <g style="fill: #262626" transform="translate(117.83 250.180469)scale(0.11 -0.11)">
      <defs>
       <path id="DejaVuSans-43" d="M 4122 4306 
L 4122 3641 
Q 3803 3938 3442 4084 
Q 3081 4231 2675 4231 
Q 1875 4231 1450 3742 
Q 1025 3253 1025 2328 
Q 1025 1406 1450 917 
Q 1875 428 2675 428 
Q 3081 428 3442 575 
Q 3803 722 4122 1019 
L 4122 359 
Q 3791 134 3420 21 
Q 3050 -91 2638 -91 
Q 1578 -91 968 557 
Q 359 1206 359 2328 
Q 359 3453 968 4101 
Q 1578 4750 2638 4750 
Q 3056 4750 3426 4639 
Q 3797 4528 4122 4306 
z
" transform="scale(0.015625)"/>
      </defs>
      <use xlink:href="#DejaVuSans-53"/>
      <use xlink:href="#DejaVuSans-41" x="65.351562"/>
      <use xlink:href="#DejaVuSans-43" x="132.009766"/>
      <use xlink:href="#DejaVuSans-2d" x="201.833984"/>
      <use xlink:href="#DejaVuSans-44" x="237.917969"/>
      <use xlink:href="#DejaVuSans-45" x="314.919922"/>
      <use xlink:href="#DejaVuSans-4c" x="378.103516"/>
      <use xlink:href="#DejaVuSans-41" x="436.066406"/>
      <use xlink:href="#DejaVuSans-59" x="496.724609"/>
      <use xlink:href="#DejaVuSans-2d" x="545.933594"/>
      <use xlink:href="#DejaVuSans-31" x="582.017578"/>
      <use xlink:href="#DejaVuSans-30" x="645.640625"/>
     </g>
    </g>
    <g id="line2d_20">
     <path d="M 87.03 262.476406 
L 98.03 262.476406 
L 109.03 262.476406 
" style="fill: none; stroke: #55a868; stroke-width: 3; stroke-linecap: round"/>
    </g>
    <g id="text_18">
     <!-- SAC-IS-DELAY-10 -->
     <g style="fill: #262626" transform="translate(117.83 266.326406)scale(0.11 -0.11)">
      <defs>
       <path id="DejaVuSans-49" d="M 628 4666 
L 1259 4666 
L 1259 0 
L 628 0 
L 628 4666 
z
" transform="scale(0.015625)"/>
      </defs>
      <use xlink:href="#DejaVuSans-53"/>
      <use xlink:href="#DejaVuSans-41" x="65.351562"/>
      <use xlink:href="#DejaVuSans-43" x="132.009766"/>
      <use xlink:href="#DejaVuSans-2d" x="201.833984"/>
      <use xlink:href="#DejaVuSans-49" x="237.917969"/>
      <use xlink:href="#DejaVuSans-53" x="267.410156"/>
      <use xlink:href="#DejaVuSans-2d" x="330.886719"/>
      <use xlink:href="#DejaVuSans-44" x="366.970703"/>
      <use xlink:href="#DejaVuSans-45" x="443.972656"/>
      <use xlink:href="#DejaVuSans-4c" x="507.15625"/>
      <use xlink:href="#DejaVuSans-41" x="565.119141"/>
      <use xlink:href="#DejaVuSans-59" x="625.777344"/>
      <use xlink:href="#DejaVuSans-2d" x="674.986328"/>
      <use xlink:href="#DejaVuSans-31" x="711.070312"/>
      <use xlink:href="#DejaVuSans-30" x="774.693359"/>
     </g>
    </g>
    <g id="line2d_21">
     <path d="M 87.03 278.622344 
L 98.03 278.622344 
L 109.03 278.622344 
" style="fill: none; stroke: #c44e52; stroke-width: 3; stroke-linecap: round"/>
    </g>
    <g id="text_19">
     <!-- DCAC-DELAY-10 -->
     <g style="fill: #262626" transform="translate(117.83 282.472344)scale(0.11 -0.11)">
      <use xlink:href="#DejaVuSans-44"/>
      <use xlink:href="#DejaVuSans-43" x="77.001953"/>
      <use xlink:href="#DejaVuSans-41" x="146.826172"/>
      <use xlink:href="#DejaVuSans-43" x="213.484375"/>
      <use xlink:href="#DejaVuSans-2d" x="283.308594"/>
      <use xlink:href="#DejaVuSans-44" x="319.392578"/>
      <use xlink:href="#DejaVuSans-45" x="396.394531"/>
      <use xlink:href="#DejaVuSans-4c" x="459.578125"/>
      <use xlink:href="#DejaVuSans-41" x="517.541016"/>
      <use xlink:href="#DejaVuSans-59" x="578.199219"/>
      <use xlink:href="#DejaVuSans-2d" x="627.408203"/>
      <use xlink:href="#DejaVuSans-31" x="663.492188"/>
      <use xlink:href="#DejaVuSans-30" x="727.115234"/>
     </g>
    </g>
   </g>
  </g>
 </g>
 <defs>
  <clipPath id="p632b8a368f">
   <rect x="77.13" y="12.96" width="370.71" height="281.7"/>
  </clipPath>
 </defs>
</svg>
