<?xml version="1.0" encoding="utf-8" standalone="no"?>
<!DOCTYPE svg PUBLIC "-//W3C//DTD SVG 1.1//EN"
  "http://www.w3.org/Graphics/SVG/1.1/DTD/svg11.dtd">
<svg xmlns:xlink="http://www.w3.org/1999/xlink" width="460.8pt" height="345.6pt" viewBox="0 0 460.8 345.6" xmlns="http://www.w3.org/2000/svg" version="1.1">
 <metadata>
  <rdf:RDF xmlns:dc="http://purl.org/dc/elements/1.1/" xmlns:cc="http://creativecommons.org/ns#" xmlns:rdf="http://www.w3.org/1999/02/22-rdf-syntax-ns#">
   <cc:Work>
    <dc:type rdf:resource="http://purl.org/dc/dcmitype/StillImage"/>
    <dc:date>2022-09-10T15:50:11.618017</dc:date>
    <dc:format>image/svg+xml</dc:format>
    <dc:creator>
     <cc:Agent>
      <dc:title>Matplotlib v3.5.3, https://matplotlib.org/</dc:title>
     </cc:Agent>
    </dc:creator>
   </cc:Work>
  </rdf:RDF>
 </metadata>
 <defs>
  <style type="text/css">*{stroke-linejoin: round; stroke-linecap: butt}</style>
 </defs>
 <g id="figure_1">
  <g id="patch_1">
   <path d="M 0 345.6 
L 460.8 345.6 
L 460.8 0 
L 0 0 
z
" style="fill: #ffffff"/>
  </g>
  <g id="axes_1">
   <g id="patch_2">
    <path d="M 77.13 294.66 
L 447.84 294.66 
L 447.84 29.76 
L 77.13 29.76 
z
" style="fill: #eaeaf2"/>
   </g>
   <g id="matplotlib.axis_1">
    <g id="xtick_1">
     <g id="line2d_1">
      <path d="M 91.148445 294.66 
L 91.148445 29.76 
" clip-path="url(#pee0b417958)" style="fill: none; stroke: #ffffff; stroke-linecap: round"/>
     </g>
     <g id="text_1">
      <!-- 0.00 -->
      <g style="fill: #262626" transform="translate(78.902352 312.518281)scale(0.11 -0.11)">
       <defs>
        <path id="DejaVuSans-30" d="M 2034 4250 
Q 1547 4250 1301 3770 
Q 1056 3291 1056 2328 
Q 1056 1369 1301 889 
Q 1547 409 2034 409 
Q 2525 409 2770 889 
Q 3016 1369 3016 2328 
Q 3016 3291 2770 3770 
Q 2525 4250 2034 4250 
z
M 2034 4750 
Q 2819 4750 3233 4129 
Q 3647 3509 3647 2328 
Q 3647 1150 3233 529 
Q 2819 -91 2034 -91 
Q 1250 -91 836 529 
Q 422 1150 422 2328 
Q 422 3509 836 4129 
Q 1250 4750 2034 4750 
z
" transform="scale(0.015625)"/>
        <path id="DejaVuSans-2e" d="M 684 794 
L 1344 794 
L 1344 0 
L 684 0 
L 684 794 
z
" transform="scale(0.015625)"/>
       </defs>
       <use xlink:href="#DejaVuSans-30"/>
       <use xlink:href="#DejaVuSans-2e" x="63.623047"/>
       <use xlink:href="#DejaVuSans-30" x="95.410156"/>
       <use xlink:href="#DejaVuSans-30" x="159.033203"/>
      </g>
     </g>
    </g>
    <g id="xtick_2">
     <g id="line2d_2">
      <path d="M 147.788629 294.66 
L 147.788629 29.76 
" clip-path="url(#pee0b417958)" style="fill: none; stroke: #ffffff; stroke-linecap: round"/>
     </g>
     <g id="text_2">
      <!-- 0.05 -->
      <g style="fill: #262626" transform="translate(135.542535 312.518281)scale(0.11 -0.11)">
       <defs>
        <path id="DejaVuSans-35" d="M 691 4666 
L 3169 4666 
L 3169 4134 
L 1269 4134 
L 1269 2991 
Q 1406 3038 1543 3061 
Q 1681 3084 1819 3084 
Q 2600 3084 3056 2656 
Q 3513 2228 3513 1497 
Q 3513 744 3044 326 
Q 2575 -91 1722 -91 
Q 1428 -91 1123 -41 
Q 819 9 494 109 
L 494 744 
Q 775 591 1075 516 
Q 1375 441 1709 441 
Q 2250 441 2565 725 
Q 2881 1009 2881 1497 
Q 2881 1984 2565 2268 
Q 2250 2553 1709 2553 
Q 1456 2553 1204 2497 
Q 953 2441 691 2322 
L 691 4666 
z
" transform="scale(0.015625)"/>
       </defs>
       <use xlink:href="#DejaVuSans-30"/>
       <use xlink:href="#DejaVuSans-2e" x="63.623047"/>
       <use xlink:href="#DejaVuSans-30" x="95.410156"/>
       <use xlink:href="#DejaVuSans-35" x="159.033203"/>
      </g>
     </g>
    </g>
    <g id="xtick_3">
     <g id="line2d_3">
      <path d="M 204.428812 294.66 
L 204.428812 29.76 
" clip-path="url(#pee0b417958)" style="fill: none; stroke: #ffffff; stroke-linecap: round"/>
     </g>
     <g id="text_3">
      <!-- 0.10 -->
      <g style="fill: #262626" transform="translate(192.182718 312.518281)scale(0.11 -0.11)">
       <defs>
        <path id="DejaVuSans-31" d="M 794 531 
L 1825 531 
L 1825 4091 
L 703 3866 
L 703 4441 
L 1819 4666 
L 2450 4666 
L 2450 531 
L 3481 531 
L 3481 0 
L 794 0 
L 794 531 
z
" transform="scale(0.015625)"/>
       </defs>
       <use xlink:href="#DejaVuSans-30"/>
       <use xlink:href="#DejaVuSans-2e" x="63.623047"/>
       <use xlink:href="#DejaVuSans-31" x="95.410156"/>
       <use xlink:href="#DejaVuSans-30" x="159.033203"/>
      </g>
     </g>
    </g>
    <g id="xtick_4">
     <g id="line2d_4">
      <path d="M 261.068995 294.66 
L 261.068995 29.76 
" clip-path="url(#pee0b417958)" style="fill: none; stroke: #ffffff; stroke-linecap: round"/>
     </g>
     <g id="text_4">
      <!-- 0.15 -->
      <g style="fill: #262626" transform="translate(248.822902 312.518281)scale(0.11 -0.11)">
       <use xlink:href="#DejaVuSans-30"/>
       <use xlink:href="#DejaVuSans-2e" x="63.623047"/>
       <use xlink:href="#DejaVuSans-31" x="95.410156"/>
       <use xlink:href="#DejaVuSans-35" x="159.033203"/>
      </g>
     </g>
    </g>
    <g id="xtick_5">
     <g id="line2d_5">
      <path d="M 317.709179 294.66 
L 317.709179 29.76 
" clip-path="url(#pee0b417958)" style="fill: none; stroke: #ffffff; stroke-linecap: round"/>
     </g>
     <g id="text_5">
      <!-- 0.20 -->
      <g style="fill: #262626" transform="translate(305.463085 312.518281)scale(0.11 -0.11)">
       <defs>
        <path id="DejaVuSans-32" d="M 1228 531 
L 3431 531 
L 3431 0 
L 469 0 
L 469 531 
Q 828 903 1448 1529 
Q 2069 2156 2228 2338 
Q 2531 2678 2651 2914 
Q 2772 3150 2772 3378 
Q 2772 3750 2511 3984 
Q 2250 4219 1831 4219 
Q 1534 4219 1204 4116 
Q 875 4013 500 3803 
L 500 4441 
Q 881 4594 1212 4672 
Q 1544 4750 1819 4750 
Q 2544 4750 2975 4387 
Q 3406 4025 3406 3419 
Q 3406 3131 3298 2873 
Q 3191 2616 2906 2266 
Q 2828 2175 2409 1742 
Q 1991 1309 1228 531 
z
" transform="scale(0.015625)"/>
       </defs>
       <use xlink:href="#DejaVuSans-30"/>
       <use xlink:href="#DejaVuSans-2e" x="63.623047"/>
       <use xlink:href="#DejaVuSans-32" x="95.410156"/>
       <use xlink:href="#DejaVuSans-30" x="159.033203"/>
      </g>
     </g>
    </g>
    <g id="xtick_6">
     <g id="line2d_6">
      <path d="M 374.349362 294.66 
L 374.349362 29.76 
" clip-path="url(#pee0b417958)" style="fill: none; stroke: #ffffff; stroke-linecap: round"/>
     </g>
     <g id="text_6">
      <!-- 0.25 -->
      <g style="fill: #262626" transform="translate(362.103268 312.518281)scale(0.11 -0.11)">
       <use xlink:href="#DejaVuSans-30"/>
       <use xlink:href="#DejaVuSans-2e" x="63.623047"/>
       <use xlink:href="#DejaVuSans-32" x="95.410156"/>
       <use xlink:href="#DejaVuSans-35" x="159.033203"/>
      </g>
     </g>
    </g>
    <g id="xtick_7">
     <g id="line2d_7">
      <path d="M 430.989545 294.66 
L 430.989545 29.76 
" clip-path="url(#pee0b417958)" style="fill: none; stroke: #ffffff; stroke-linecap: round"/>
     </g>
     <g id="text_7">
      <!-- 0.30 -->
      <g style="fill: #262626" transform="translate(418.743452 312.518281)scale(0.11 -0.11)">
       <defs>
        <path id="DejaVuSans-33" d="M 2597 2516 
Q 3050 2419 3304 2112 
Q 3559 1806 3559 1356 
Q 3559 666 3084 287 
Q 2609 -91 1734 -91 
Q 1441 -91 1130 -33 
Q 819 25 488 141 
L 488 750 
Q 750 597 1062 519 
Q 1375 441 1716 441 
Q 2309 441 2620 675 
Q 2931 909 2931 1356 
Q 2931 1769 2642 2001 
Q 2353 2234 1838 2234 
L 1294 2234 
L 1294 2753 
L 1863 2753 
Q 2328 2753 2575 2939 
Q 2822 3125 2822 3475 
Q 2822 3834 2567 4026 
Q 2313 4219 1838 4219 
Q 1578 4219 1281 4162 
Q 984 4106 628 3988 
L 628 4550 
Q 988 4650 1302 4700 
Q 1616 4750 1894 4750 
Q 2613 4750 3031 4423 
Q 3450 4097 3450 3541 
Q 3450 3153 3228 2886 
Q 3006 2619 2597 2516 
z
" transform="scale(0.015625)"/>
       </defs>
       <use xlink:href="#DejaVuSans-30"/>
       <use xlink:href="#DejaVuSans-2e" x="63.623047"/>
       <use xlink:href="#DejaVuSans-33" x="95.410156"/>
       <use xlink:href="#DejaVuSans-30" x="159.033203"/>
      </g>
     </g>
    </g>
    <g id="text_8">
     <!-- Timesteps (in Million) -->
     <g style="fill: #262626" transform="translate(187.739219 329.44375)scale(0.14 -0.14)">
      <defs>
       <path id="DejaVuSans-54" d="M -19 4666 
L 3928 4666 
L 3928 4134 
L 2272 4134 
L 2272 0 
L 1638 0 
L 1638 4134 
L -19 4134 
L -19 4666 
z
" transform="scale(0.015625)"/>
       <path id="DejaVuSans-69" d="M 603 3500 
L 1178 3500 
L 1178 0 
L 603 0 
L 603 3500 
z
M 603 4863 
L 1178 4863 
L 1178 4134 
L 603 4134 
L 603 4863 
z
" transform="scale(0.015625)"/>
       <path id="DejaVuSans-6d" d="M 3328 2828 
Q 3544 3216 3844 3400 
Q 4144 3584 4550 3584 
Q 5097 3584 5394 3201 
Q 5691 2819 5691 2113 
L 5691 0 
L 5113 0 
L 5113 2094 
Q 5113 2597 4934 2840 
Q 4756 3084 4391 3084 
Q 3944 3084 3684 2787 
Q 3425 2491 3425 1978 
L 3425 0 
L 2847 0 
L 2847 2094 
Q 2847 2600 2669 2842 
Q 2491 3084 2119 3084 
Q 1678 3084 1418 2786 
Q 1159 2488 1159 1978 
L 1159 0 
L 581 0 
L 581 3500 
L 1159 3500 
L 1159 2956 
Q 1356 3278 1631 3431 
Q 1906 3584 2284 3584 
Q 2666 3584 2933 3390 
Q 3200 3197 3328 2828 
z
" transform="scale(0.015625)"/>
       <path id="DejaVuSans-65" d="M 3597 1894 
L 3597 1613 
L 953 1613 
Q 991 1019 1311 708 
Q 1631 397 2203 397 
Q 2534 397 2845 478 
Q 3156 559 3463 722 
L 3463 178 
Q 3153 47 2828 -22 
Q 2503 -91 2169 -91 
Q 1331 -91 842 396 
Q 353 884 353 1716 
Q 353 2575 817 3079 
Q 1281 3584 2069 3584 
Q 2775 3584 3186 3129 
Q 3597 2675 3597 1894 
z
M 3022 2063 
Q 3016 2534 2758 2815 
Q 2500 3097 2075 3097 
Q 1594 3097 1305 2825 
Q 1016 2553 972 2059 
L 3022 2063 
z
" transform="scale(0.015625)"/>
       <path id="DejaVuSans-73" d="M 2834 3397 
L 2834 2853 
Q 2591 2978 2328 3040 
Q 2066 3103 1784 3103 
Q 1356 3103 1142 2972 
Q 928 2841 928 2578 
Q 928 2378 1081 2264 
Q 1234 2150 1697 2047 
L 1894 2003 
Q 2506 1872 2764 1633 
Q 3022 1394 3022 966 
Q 3022 478 2636 193 
Q 2250 -91 1575 -91 
Q 1294 -91 989 -36 
Q 684 19 347 128 
L 347 722 
Q 666 556 975 473 
Q 1284 391 1588 391 
Q 1994 391 2212 530 
Q 2431 669 2431 922 
Q 2431 1156 2273 1281 
Q 2116 1406 1581 1522 
L 1381 1569 
Q 847 1681 609 1914 
Q 372 2147 372 2553 
Q 372 3047 722 3315 
Q 1072 3584 1716 3584 
Q 2034 3584 2315 3537 
Q 2597 3491 2834 3397 
z
" transform="scale(0.015625)"/>
       <path id="DejaVuSans-74" d="M 1172 4494 
L 1172 3500 
L 2356 3500 
L 2356 3053 
L 1172 3053 
L 1172 1153 
Q 1172 725 1289 603 
Q 1406 481 1766 481 
L 2356 481 
L 2356 0 
L 1766 0 
Q 1100 0 847 248 
Q 594 497 594 1153 
L 594 3053 
L 172 3053 
L 172 3500 
L 594 3500 
L 594 4494 
L 1172 4494 
z
" transform="scale(0.015625)"/>
       <path id="DejaVuSans-70" d="M 1159 525 
L 1159 -1331 
L 581 -1331 
L 581 3500 
L 1159 3500 
L 1159 2969 
Q 1341 3281 1617 3432 
Q 1894 3584 2278 3584 
Q 2916 3584 3314 3078 
Q 3713 2572 3713 1747 
Q 3713 922 3314 415 
Q 2916 -91 2278 -91 
Q 1894 -91 1617 61 
Q 1341 213 1159 525 
z
M 3116 1747 
Q 3116 2381 2855 2742 
Q 2594 3103 2138 3103 
Q 1681 3103 1420 2742 
Q 1159 2381 1159 1747 
Q 1159 1113 1420 752 
Q 1681 391 2138 391 
Q 2594 391 2855 752 
Q 3116 1113 3116 1747 
z
" transform="scale(0.015625)"/>
       <path id="DejaVuSans-20" transform="scale(0.015625)"/>
       <path id="DejaVuSans-28" d="M 1984 4856 
Q 1566 4138 1362 3434 
Q 1159 2731 1159 2009 
Q 1159 1288 1364 580 
Q 1569 -128 1984 -844 
L 1484 -844 
Q 1016 -109 783 600 
Q 550 1309 550 2009 
Q 550 2706 781 3412 
Q 1013 4119 1484 4856 
L 1984 4856 
z
" transform="scale(0.015625)"/>
       <path id="DejaVuSans-6e" d="M 3513 2113 
L 3513 0 
L 2938 0 
L 2938 2094 
Q 2938 2591 2744 2837 
Q 2550 3084 2163 3084 
Q 1697 3084 1428 2787 
Q 1159 2491 1159 1978 
L 1159 0 
L 581 0 
L 581 3500 
L 1159 3500 
L 1159 2956 
Q 1366 3272 1645 3428 
Q 1925 3584 2291 3584 
Q 2894 3584 3203 3211 
Q 3513 2838 3513 2113 
z
" transform="scale(0.015625)"/>
       <path id="DejaVuSans-4d" d="M 628 4666 
L 1569 4666 
L 2759 1491 
L 3956 4666 
L 4897 4666 
L 4897 0 
L 4281 0 
L 4281 4097 
L 3078 897 
L 2444 897 
L 1241 4097 
L 1241 0 
L 628 0 
L 628 4666 
z
" transform="scale(0.015625)"/>
       <path id="DejaVuSans-6c" d="M 603 4863 
L 1178 4863 
L 1178 0 
L 603 0 
L 603 4863 
z
" transform="scale(0.015625)"/>
       <path id="DejaVuSans-6f" d="M 1959 3097 
Q 1497 3097 1228 2736 
Q 959 2375 959 1747 
Q 959 1119 1226 758 
Q 1494 397 1959 397 
Q 2419 397 2687 759 
Q 2956 1122 2956 1747 
Q 2956 2369 2687 2733 
Q 2419 3097 1959 3097 
z
M 1959 3584 
Q 2709 3584 3137 3096 
Q 3566 2609 3566 1747 
Q 3566 888 3137 398 
Q 2709 -91 1959 -91 
Q 1206 -91 779 398 
Q 353 888 353 1747 
Q 353 2609 779 3096 
Q 1206 3584 1959 3584 
z
" transform="scale(0.015625)"/>
       <path id="DejaVuSans-29" d="M 513 4856 
L 1013 4856 
Q 1481 4119 1714 3412 
Q 1947 2706 1947 2009 
Q 1947 1309 1714 600 
Q 1481 -109 1013 -844 
L 513 -844 
Q 928 -128 1133 580 
Q 1338 1288 1338 2009 
Q 1338 2731 1133 3434 
Q 928 4138 513 4856 
z
" transform="scale(0.015625)"/>
      </defs>
      <use xlink:href="#DejaVuSans-54"/>
      <use xlink:href="#DejaVuSans-69" x="57.958984"/>
      <use xlink:href="#DejaVuSans-6d" x="85.742188"/>
      <use xlink:href="#DejaVuSans-65" x="183.154297"/>
      <use xlink:href="#DejaVuSans-73" x="244.677734"/>
      <use xlink:href="#DejaVuSans-74" x="296.777344"/>
      <use xlink:href="#DejaVuSans-65" x="335.986328"/>
      <use xlink:href="#DejaVuSans-70" x="397.509766"/>
      <use xlink:href="#DejaVuSans-73" x="460.986328"/>
      <use xlink:href="#DejaVuSans-20" x="513.085938"/>
      <use xlink:href="#DejaVuSans-28" x="544.873047"/>
      <use xlink:href="#DejaVuSans-69" x="583.886719"/>
      <use xlink:href="#DejaVuSans-6e" x="611.669922"/>
      <use xlink:href="#DejaVuSans-20" x="675.048828"/>
      <use xlink:href="#DejaVuSans-4d" x="706.835938"/>
      <use xlink:href="#DejaVuSans-69" x="793.115234"/>
      <use xlink:href="#DejaVuSans-6c" x="820.898438"/>
      <use xlink:href="#DejaVuSans-6c" x="848.681641"/>
      <use xlink:href="#DejaVuSans-69" x="876.464844"/>
      <use xlink:href="#DejaVuSans-6f" x="904.248047"/>
      <use xlink:href="#DejaVuSans-6e" x="965.429688"/>
      <use xlink:href="#DejaVuSans-29" x="1028.808594"/>
     </g>
    </g>
   </g>
   <g id="matplotlib.axis_2">
    <g id="ytick_1">
     <g id="line2d_8">
      <path d="M 77.13 288.381478 
L 447.84 288.381478 
" clip-path="url(#pee0b417958)" style="fill: none; stroke: #ffffff; stroke-linecap: round"/>
     </g>
     <g id="text_9">
      <!-- −5000 -->
      <g style="fill: #262626" transform="translate(30.417344 292.560619)scale(0.11 -0.11)">
       <defs>
        <path id="DejaVuSans-2212" d="M 678 2272 
L 4684 2272 
L 4684 1741 
L 678 1741 
L 678 2272 
z
" transform="scale(0.015625)"/>
       </defs>
       <use xlink:href="#DejaVuSans-2212"/>
       <use xlink:href="#DejaVuSans-35" x="83.789062"/>
       <use xlink:href="#DejaVuSans-30" x="147.412109"/>
       <use xlink:href="#DejaVuSans-30" x="211.035156"/>
       <use xlink:href="#DejaVuSans-30" x="274.658203"/>
      </g>
     </g>
    </g>
    <g id="ytick_2">
     <g id="line2d_9">
      <path d="M 77.13 230.757603 
L 447.84 230.757603 
" clip-path="url(#pee0b417958)" style="fill: none; stroke: #ffffff; stroke-linecap: round"/>
     </g>
     <g id="text_10">
      <!-- −4000 -->
      <g style="fill: #262626" transform="translate(30.417344 234.936743)scale(0.11 -0.11)">
       <defs>
        <path id="DejaVuSans-34" d="M 2419 4116 
L 825 1625 
L 2419 1625 
L 2419 4116 
z
M 2253 4666 
L 3047 4666 
L 3047 1625 
L 3713 1625 
L 3713 1100 
L 3047 1100 
L 3047 0 
L 2419 0 
L 2419 1100 
L 313 1100 
L 313 1709 
L 2253 4666 
z
" transform="scale(0.015625)"/>
       </defs>
       <use xlink:href="#DejaVuSans-2212"/>
       <use xlink:href="#DejaVuSans-34" x="83.789062"/>
       <use xlink:href="#DejaVuSans-30" x="147.412109"/>
       <use xlink:href="#DejaVuSans-30" x="211.035156"/>
       <use xlink:href="#DejaVuSans-30" x="274.658203"/>
      </g>
     </g>
    </g>
    <g id="ytick_3">
     <g id="line2d_10">
      <path d="M 77.13 173.133727 
L 447.84 173.133727 
" clip-path="url(#pee0b417958)" style="fill: none; stroke: #ffffff; stroke-linecap: round"/>
     </g>
     <g id="text_11">
      <!-- −3000 -->
      <g style="fill: #262626" transform="translate(30.417344 177.312868)scale(0.11 -0.11)">
       <use xlink:href="#DejaVuSans-2212"/>
       <use xlink:href="#DejaVuSans-33" x="83.789062"/>
       <use xlink:href="#DejaVuSans-30" x="147.412109"/>
       <use xlink:href="#DejaVuSans-30" x="211.035156"/>
       <use xlink:href="#DejaVuSans-30" x="274.658203"/>
      </g>
     </g>
    </g>
    <g id="ytick_4">
     <g id="line2d_11">
      <path d="M 77.13 115.509851 
L 447.84 115.509851 
" clip-path="url(#pee0b417958)" style="fill: none; stroke: #ffffff; stroke-linecap: round"/>
     </g>
     <g id="text_12">
      <!-- −2000 -->
      <g style="fill: #262626" transform="translate(30.417344 119.688992)scale(0.11 -0.11)">
       <use xlink:href="#DejaVuSans-2212"/>
       <use xlink:href="#DejaVuSans-32" x="83.789062"/>
       <use xlink:href="#DejaVuSans-30" x="147.412109"/>
       <use xlink:href="#DejaVuSans-30" x="211.035156"/>
       <use xlink:href="#DejaVuSans-30" x="274.658203"/>
      </g>
     </g>
    </g>
    <g id="ytick_5">
     <g id="line2d_12">
      <path d="M 77.13 57.885975 
L 447.84 57.885975 
" clip-path="url(#pee0b417958)" style="fill: none; stroke: #ffffff; stroke-linecap: round"/>
     </g>
     <g id="text_13">
      <!-- −1000 -->
      <g style="fill: #262626" transform="translate(30.417344 62.065116)scale(0.11 -0.11)">
       <use xlink:href="#DejaVuSans-2212"/>
       <use xlink:href="#DejaVuSans-31" x="83.789062"/>
       <use xlink:href="#DejaVuSans-30" x="147.412109"/>
       <use xlink:href="#DejaVuSans-30" x="211.035156"/>
       <use xlink:href="#DejaVuSans-30" x="274.658203"/>
      </g>
     </g>
    </g>
    <g id="text_14">
     <!-- Score -->
     <g style="fill: #262626" transform="translate(23.505781 181.813281)rotate(-90)scale(0.14 -0.14)">
      <defs>
       <path id="DejaVuSans-53" d="M 3425 4513 
L 3425 3897 
Q 3066 4069 2747 4153 
Q 2428 4238 2131 4238 
Q 1616 4238 1336 4038 
Q 1056 3838 1056 3469 
Q 1056 3159 1242 3001 
Q 1428 2844 1947 2747 
L 2328 2669 
Q 3034 2534 3370 2195 
Q 3706 1856 3706 1288 
Q 3706 609 3251 259 
Q 2797 -91 1919 -91 
Q 1588 -91 1214 -16 
Q 841 59 441 206 
L 441 856 
Q 825 641 1194 531 
Q 1563 422 1919 422 
Q 2459 422 2753 634 
Q 3047 847 3047 1241 
Q 3047 1584 2836 1778 
Q 2625 1972 2144 2069 
L 1759 2144 
Q 1053 2284 737 2584 
Q 422 2884 422 3419 
Q 422 4038 858 4394 
Q 1294 4750 2059 4750 
Q 2388 4750 2728 4690 
Q 3069 4631 3425 4513 
z
" transform="scale(0.015625)"/>
       <path id="DejaVuSans-63" d="M 3122 3366 
L 3122 2828 
Q 2878 2963 2633 3030 
Q 2388 3097 2138 3097 
Q 1578 3097 1268 2742 
Q 959 2388 959 1747 
Q 959 1106 1268 751 
Q 1578 397 2138 397 
Q 2388 397 2633 464 
Q 2878 531 3122 666 
L 3122 134 
Q 2881 22 2623 -34 
Q 2366 -91 2075 -91 
Q 1284 -91 818 406 
Q 353 903 353 1747 
Q 353 2603 823 3093 
Q 1294 3584 2113 3584 
Q 2378 3584 2631 3529 
Q 2884 3475 3122 3366 
z
" transform="scale(0.015625)"/>
       <path id="DejaVuSans-72" d="M 2631 2963 
Q 2534 3019 2420 3045 
Q 2306 3072 2169 3072 
Q 1681 3072 1420 2755 
Q 1159 2438 1159 1844 
L 1159 0 
L 581 0 
L 581 3500 
L 1159 3500 
L 1159 2956 
Q 1341 3275 1631 3429 
Q 1922 3584 2338 3584 
Q 2397 3584 2469 3576 
Q 2541 3569 2628 3553 
L 2631 2963 
z
" transform="scale(0.015625)"/>
      </defs>
      <use xlink:href="#DejaVuSans-53"/>
      <use xlink:href="#DejaVuSans-63" x="63.476562"/>
      <use xlink:href="#DejaVuSans-6f" x="118.457031"/>
      <use xlink:href="#DejaVuSans-72" x="179.638672"/>
      <use xlink:href="#DejaVuSans-65" x="218.501953"/>
     </g>
    </g>
   </g>
   <g id="PolyCollection_1">
    <defs>
     <path id="m4944b0814a" d="M 93.980455 -220.658105 
L 93.980455 -220.658105 
L 96.812464 -62.980909 
L 99.644473 -181.752125 
L 102.476482 -238.28619 
L 105.308491 -211.650642 
L 108.1405 -62.980909 
L 110.97251 -92.128535 
L 113.804519 -169.895988 
L 116.636528 -62.980909 
L 119.468537 -233.919307 
L 122.300546 -245.893716 
L 125.132555 -223.524972 
L 127.964565 -218.825525 
L 130.796574 -219.27625 
L 133.628583 -215.359847 
L 136.460592 -252.759933 
L 139.292601 -239.06164 
L 142.12461 -251.351214 
L 144.95662 -222.048687 
L 147.788629 -270.538992 
L 150.620638 -69.172927 
L 153.452647 -209.147608 
L 156.284656 -180.423503 
L 159.116665 -62.980909 
L 161.948675 -112.090852 
L 164.780684 -209.853632 
L 167.612693 -62.980909 
L 170.444702 -208.159792 
L 173.276711 -250.741849 
L 176.10872 -226.136239 
L 178.94073 -235.666438 
L 181.772739 -248.316741 
L 184.604748 -105.415183 
L 187.436757 -215.442519 
L 190.268766 -220.06055 
L 193.100775 -188.827721 
L 195.932785 -183.857378 
L 198.764794 -62.980909 
L 201.596803 -245.341638 
L 204.428812 -227.348076 
L 207.260821 -212.390821 
L 210.09283 -262.666988 
L 212.92484 -65.904368 
L 215.756849 -210.025159 
L 218.588858 -145.520156 
L 221.420867 -220.49573 
L 224.252876 -211.870823 
L 227.084885 -84.131869 
L 229.916895 -83.941678 
L 232.748904 -254.810128 
L 235.580913 -95.125873 
L 238.412922 -123.553659 
L 241.244931 -220.152746 
L 244.07694 -167.779604 
L 246.90895 -108.151254 
L 249.740959 -223.105375 
L 252.572968 -216.422189 
L 255.404977 -227.812833 
L 258.236986 -211.998353 
L 261.068995 -180.920039 
L 263.901005 -63.349622 
L 266.733014 -225.403529 
L 269.565023 -96.497839 
L 272.397032 -128.731431 
L 275.229041 -91.872852 
L 278.06105 -226.889466 
L 280.89306 -156.082854 
L 283.725069 -195.50715 
L 286.557078 -218.831384 
L 289.389087 -87.031075 
L 292.221096 -89.667808 
L 295.053105 -101.86676 
L 297.885115 -200.316501 
L 300.717124 -63.038533 
L 303.549133 -231.228108 
L 306.381142 -212.672702 
L 309.213151 -68.934356 
L 312.04516 -107.498607 
L 314.87717 -223.013253 
L 317.709179 -216.415485 
L 320.541188 -94.223008 
L 323.373197 -188.9836 
L 326.205206 -182.712958 
L 329.037215 -209.229875 
L 331.869225 -66.295502 
L 334.701234 -90.155586 
L 337.533243 -213.261444 
L 340.365252 -69.690597 
L 343.197261 -69.390135 
L 346.02927 -81.246231 
L 348.86128 -134.159393 
L 351.693289 -66.843712 
L 354.525298 -130.874607 
L 357.357307 -144.563287 
L 360.189316 -83.174532 
L 363.021325 -79.200659 
L 365.853335 -88.265295 
L 368.685344 -222.802499 
L 371.517353 -158.860093 
L 374.349362 -201.627183 
L 377.181371 -215.055973 
L 380.01338 -173.290656 
L 382.84539 -111.505299 
L 385.677399 -205.212828 
L 388.509408 -67.489019 
L 391.341417 -189.701163 
L 394.173426 -232.178848 
L 397.005435 -220.193172 
L 399.837445 -103.170885 
L 402.669454 -184.476156 
L 405.501463 -220.305493 
L 408.333472 -72.044993 
L 411.165481 -71.267318 
L 413.99749 -70.207537 
L 416.8295 -193.771367 
L 419.661509 -139.925357 
L 422.493518 -174.591826 
L 425.325527 -63.099568 
L 428.157536 -63.571741 
L 430.989545 -208.494308 
L 430.989545 -208.494308 
L 430.989545 -208.494308 
L 428.157536 -63.571741 
L 425.325527 -63.099568 
L 422.493518 -174.591826 
L 419.661509 -139.925357 
L 416.8295 -193.771367 
L 413.99749 -70.207537 
L 411.165481 -71.267318 
L 408.333472 -72.044993 
L 405.501463 -220.305493 
L 402.669454 -184.476156 
L 399.837445 -103.170885 
L 397.005435 -220.193172 
L 394.173426 -232.178848 
L 391.341417 -189.701163 
L 388.509408 -67.489019 
L 385.677399 -205.212828 
L 382.84539 -111.505299 
L 380.01338 -173.290656 
L 377.181371 -215.055973 
L 374.349362 -201.627183 
L 371.517353 -158.860093 
L 368.685344 -222.802499 
L 365.853335 -88.265295 
L 363.021325 -79.200659 
L 360.189316 -83.174532 
L 357.357307 -144.563287 
L 354.525298 -130.874607 
L 351.693289 -66.843712 
L 348.86128 -134.159393 
L 346.02927 -81.246231 
L 343.197261 -69.390135 
L 340.365252 -69.690597 
L 337.533243 -213.261444 
L 334.701234 -90.155586 
L 331.869225 -66.295502 
L 329.037215 -209.229875 
L 326.205206 -182.712958 
L 323.373197 -188.9836 
L 320.541188 -94.223008 
L 317.709179 -216.415485 
L 314.87717 -223.013253 
L 312.04516 -107.498607 
L 309.213151 -68.934356 
L 306.381142 -212.672702 
L 303.549133 -231.228108 
L 300.717124 -63.038533 
L 297.885115 -200.316501 
L 295.053105 -101.86676 
L 292.221096 -89.667808 
L 289.389087 -87.031075 
L 286.557078 -218.831384 
L 283.725069 -195.50715 
L 280.89306 -156.082854 
L 278.06105 -226.889466 
L 275.229041 -91.872852 
L 272.397032 -128.731431 
L 269.565023 -96.497839 
L 266.733014 -225.403529 
L 263.901005 -63.349622 
L 261.068995 -180.920039 
L 258.236986 -211.998353 
L 255.404977 -227.812833 
L 252.572968 -216.422189 
L 249.740959 -223.105375 
L 246.90895 -108.151254 
L 244.07694 -167.779604 
L 241.244931 -220.152746 
L 238.412922 -123.553659 
L 235.580913 -95.125873 
L 232.748904 -254.810128 
L 229.916895 -83.941678 
L 227.084885 -84.131869 
L 224.252876 -211.870823 
L 221.420867 -220.49573 
L 218.588858 -145.520156 
L 215.756849 -210.025159 
L 212.92484 -65.904368 
L 210.09283 -262.666988 
L 207.260821 -212.390821 
L 204.428812 -227.348076 
L 201.596803 -245.341638 
L 198.764794 -62.980909 
L 195.932785 -183.857378 
L 193.100775 -188.827721 
L 190.268766 -220.06055 
L 187.436757 -215.442519 
L 184.604748 -105.415183 
L 181.772739 -248.316741 
L 178.94073 -235.666438 
L 176.10872 -226.136239 
L 173.276711 -250.741849 
L 170.444702 -208.159792 
L 167.612693 -62.980909 
L 164.780684 -209.853632 
L 161.948675 -112.090852 
L 159.116665 -62.980909 
L 156.284656 -180.423503 
L 153.452647 -209.147608 
L 150.620638 -69.172927 
L 147.788629 -270.538992 
L 144.95662 -222.048687 
L 142.12461 -251.351214 
L 139.292601 -239.06164 
L 136.460592 -252.759933 
L 133.628583 -215.359847 
L 130.796574 -219.27625 
L 127.964565 -218.825525 
L 125.132555 -223.524972 
L 122.300546 -245.893716 
L 119.468537 -233.919307 
L 116.636528 -62.980909 
L 113.804519 -169.895988 
L 110.97251 -92.128535 
L 108.1405 -62.980909 
L 105.308491 -211.650642 
L 102.476482 -238.28619 
L 99.644473 -181.752125 
L 96.812464 -62.980909 
L 93.980455 -220.658105 
z
" style="stroke: #ffffff; stroke-opacity: 0.5"/>
    </defs>
    <g clip-path="url(#pee0b417958)">
     <use xlink:href="#m4944b0814a" x="0" y="345.6" style="fill: #4c72b0; fill-opacity: 0.5; stroke: #ffffff; stroke-opacity: 0.5"/>
    </g>
   </g>
   <g id="PolyCollection_2">
    <defs>
     <path id="mf0492768b3" d="M 93.980455 -184.916954 
L 93.980455 -218.720722 
L 96.812464 -230.438276 
L 99.644473 -239.131047 
L 102.476482 -247.335246 
L 105.308491 -252.081157 
L 108.1405 -250.018248 
L 110.97251 -269.438835 
L 113.804519 -239.214258 
L 116.636528 -257.949224 
L 119.468537 -255.480701 
L 122.300546 -254.354431 
L 125.132555 -279.335329 
L 127.964565 -254.148224 
L 130.796574 -249.744084 
L 133.628583 -268.24774 
L 136.460592 -245.437858 
L 139.292601 -273.985917 
L 142.12461 -249.088871 
L 144.95662 -271.068287 
L 147.788629 -269.04284 
L 150.620638 -269.406321 
L 153.452647 -266.035749 
L 156.284656 -263.878632 
L 159.116665 -277.672044 
L 161.948675 -262.666363 
L 164.780684 -288.390786 
L 167.612693 -267.899013 
L 170.444702 -262.824844 
L 173.276711 -261.666212 
L 176.10872 -303.799091 
L 178.94073 -273.089105 
L 181.772739 -269.395491 
L 184.604748 -283.070803 
L 187.436757 -263.052122 
L 190.268766 -261.742834 
L 193.100775 -255.352749 
L 195.932785 -281.499466 
L 198.764794 -274.805823 
L 201.596803 -265.973597 
L 204.428812 -271.906198 
L 207.260821 -263.393561 
L 210.09283 -275.85058 
L 212.92484 -252.802968 
L 215.756849 -270.598442 
L 218.588858 -267.839914 
L 221.420867 -264.77544 
L 224.252876 -285.27031 
L 227.084885 -244.348216 
L 229.916895 -244.601533 
L 232.748904 -290.485426 
L 235.580913 -277.456178 
L 238.412922 -276.533101 
L 241.244931 -264.048805 
L 244.07694 -263.961851 
L 246.90895 -240.668042 
L 249.740959 -250.863 
L 252.572968 -250.447043 
L 255.404977 -244.898895 
L 258.236986 -233.46252 
L 261.068995 -244.996992 
L 263.901005 -251.480414 
L 266.733014 -257.148331 
L 269.565023 -251.091182 
L 272.397032 -276.237143 
L 275.229041 -236.236767 
L 278.06105 -251.516125 
L 280.89306 -235.553614 
L 283.725069 -250.70396 
L 286.557078 -246.858425 
L 289.389087 -250.625004 
L 292.221096 -259.693917 
L 295.053105 -237.858588 
L 297.885115 -242.716072 
L 300.717124 -250.815527 
L 303.549133 -244.023976 
L 306.381142 -260.069442 
L 309.213151 -265.05259 
L 312.04516 -234.218886 
L 314.87717 -234.693415 
L 317.709179 -228.222222 
L 320.541188 -255.467029 
L 323.373197 -244.960935 
L 326.205206 -230.479202 
L 329.037215 -242.238009 
L 331.869225 -255.282392 
L 334.701234 -247.06116 
L 337.533243 -241.190989 
L 340.365252 -256.611826 
L 343.197261 -257.519481 
L 346.02927 -269.206678 
L 348.86128 -252.644074 
L 351.693289 -257.256268 
L 354.525298 -277.412901 
L 357.357307 -250.883349 
L 360.189316 -242.911023 
L 363.021325 -253.734525 
L 365.853335 -249.411115 
L 368.685344 -230.135818 
L 371.517353 -260.046536 
L 374.349362 -249.232386 
L 377.181371 -260.675079 
L 380.01338 -249.775092 
L 382.84539 -242.741853 
L 385.677399 -240.822029 
L 388.509408 -247.063534 
L 391.341417 -244.093138 
L 394.173426 -242.275269 
L 397.005435 -254.678584 
L 399.837445 -231.141799 
L 402.669454 -243.875537 
L 405.501463 -239.626836 
L 408.333472 -237.055043 
L 411.165481 -242.702873 
L 413.99749 -229.94817 
L 416.8295 -256.203247 
L 419.661509 -223.507656 
L 422.493518 -248.293384 
L 425.325527 -260.590126 
L 428.157536 -243.572424 
L 430.989545 -234.834721 
L 430.989545 -212.650755 
L 430.989545 -212.650755 
L 428.157536 -218.27298 
L 425.325527 -213.942402 
L 422.493518 -206.721442 
L 419.661509 -190.835412 
L 416.8295 -203.230616 
L 413.99749 -188.271725 
L 411.165481 -205.819426 
L 408.333472 -199.409883 
L 405.501463 -190.497022 
L 402.669454 -213.249883 
L 399.837445 -216.601695 
L 397.005435 -204.155152 
L 394.173426 -202.183058 
L 391.341417 -195.307517 
L 388.509408 -205.087607 
L 385.677399 -178.127225 
L 382.84539 -181.693055 
L 380.01338 -220.704305 
L 377.181371 -205.328836 
L 374.349362 -192.329784 
L 371.517353 -195.80511 
L 368.685344 -187.251672 
L 365.853335 -197.758223 
L 363.021325 -193.824488 
L 360.189316 -201.009009 
L 357.357307 -215.291095 
L 354.525298 -210.650831 
L 351.693289 -202.576988 
L 348.86128 -183.355059 
L 346.02927 -179.527046 
L 343.197261 -192.172185 
L 340.365252 -200.887298 
L 337.533243 -193.87525 
L 334.701234 -201.135558 
L 331.869225 -184.215346 
L 329.037215 -205.388092 
L 326.205206 -193.34719 
L 323.373197 -208.134507 
L 320.541188 -215.649432 
L 317.709179 -196.091002 
L 314.87717 -188.842981 
L 312.04516 -172.282366 
L 309.213151 -196.93795 
L 306.381142 -198.85741 
L 303.549133 -204.151551 
L 300.717124 -214.474016 
L 297.885115 -202.568136 
L 295.053105 -192.825315 
L 292.221096 -216.435994 
L 289.389087 -169.388371 
L 286.557078 -202.32197 
L 283.725069 -177.900099 
L 280.89306 -205.280765 
L 278.06105 -217.874337 
L 275.229041 -168.396922 
L 272.397032 -221.644836 
L 269.565023 -162.775548 
L 266.733014 -183.655313 
L 263.901005 -202.346034 
L 261.068995 -209.635144 
L 258.236986 -208.842701 
L 255.404977 -206.322124 
L 252.572968 -206.656281 
L 249.740959 -227.440719 
L 246.90895 -209.894535 
L 244.07694 -232.679042 
L 241.244931 -225.071443 
L 238.412922 -177.916287 
L 235.580913 -220.871396 
L 232.748904 -220.135142 
L 229.916895 -220.371574 
L 227.084885 -212.18078 
L 224.252876 -218.637702 
L 221.420867 -232.345659 
L 218.588858 -239.150773 
L 215.756849 -216.843475 
L 212.92484 -224.209803 
L 210.09283 -236.052698 
L 207.260821 -227.909968 
L 204.428812 -210.29292 
L 201.596803 -228.301205 
L 198.764794 -222.58855 
L 195.932785 -228.850067 
L 193.100775 -230.309284 
L 190.268766 -228.928317 
L 187.436757 -228.430741 
L 184.604748 -228.74074 
L 181.772739 -250.383807 
L 178.94073 -225.223288 
L 176.10872 -217.916293 
L 173.276711 -230.441374 
L 170.444702 -230.377097 
L 167.612693 -206.39023 
L 164.780684 -137.238617 
L 161.948675 -230.640268 
L 159.116665 -237.755876 
L 156.284656 -232.052477 
L 153.452647 -230.111135 
L 150.620638 -228.697347 
L 147.788629 -232.034926 
L 144.95662 -242.734503 
L 142.12461 -228.436073 
L 139.292601 -225.928005 
L 136.460592 -226.119003 
L 133.628583 -229.88036 
L 130.796574 -203.955719 
L 127.964565 -223.010963 
L 125.132555 -231.647023 
L 122.300546 -218.882706 
L 119.468537 -232.295231 
L 116.636528 -231.447405 
L 113.804519 -217.958075 
L 110.97251 -227.849305 
L 108.1405 -207.403225 
L 105.308491 -206.928672 
L 102.476482 -202.314873 
L 99.644473 -193.19061 
L 96.812464 -185.420809 
L 93.980455 -184.916954 
z
" style="stroke: #ffffff; stroke-opacity: 0.5"/>
    </defs>
    <g clip-path="url(#pee0b417958)">
     <use xlink:href="#mf0492768b3" x="0" y="345.6" style="fill: #dd8452; fill-opacity: 0.5; stroke: #ffffff; stroke-opacity: 0.5"/>
    </g>
   </g>
   <g id="PolyCollection_3">
    <defs>
     <path id="mbf91b43f35" d="M 93.980455 -192.43288 
L 93.980455 -232.948591 
L 96.812464 -216.840922 
L 99.644473 -239.751772 
L 102.476482 -225.744685 
L 105.308491 -220.125035 
L 108.1405 -232.971483 
L 110.97251 -233.951014 
L 113.804519 -235.471504 
L 116.636528 -241.975089 
L 119.468537 -246.516024 
L 122.300546 -247.862412 
L 125.132555 -235.715984 
L 127.964565 -251.797993 
L 130.796574 -233.875119 
L 133.628583 -244.717695 
L 136.460592 -237.083336 
L 139.292601 -246.938065 
L 142.12461 -239.34896 
L 144.95662 -232.867565 
L 147.788629 -251.065452 
L 150.620638 -255.269809 
L 153.452647 -246.774754 
L 156.284656 -234.270056 
L 159.116665 -238.254828 
L 161.948675 -243.327225 
L 164.780684 -231.068865 
L 167.612693 -248.852764 
L 170.444702 -239.61634 
L 173.276711 -238.969955 
L 176.10872 -272.726089 
L 178.94073 -241.187952 
L 181.772739 -265.701095 
L 184.604748 -245.253822 
L 187.436757 -255.184833 
L 190.268766 -262.886282 
L 193.100775 -265.854654 
L 195.932785 -255.10302 
L 198.764794 -260.97677 
L 201.596803 -246.979214 
L 204.428812 -246.283528 
L 207.260821 -252.280696 
L 210.09283 -251.203748 
L 212.92484 -245.646584 
L 215.756849 -240.733751 
L 218.588858 -247.003452 
L 221.420867 -229.836193 
L 224.252876 -238.679796 
L 227.084885 -235.47168 
L 229.916895 -244.117579 
L 232.748904 -232.088975 
L 235.580913 -275.233698 
L 238.412922 -273.638415 
L 241.244931 -245.111242 
L 244.07694 -242.821962 
L 246.90895 -237.000631 
L 249.740959 -225.117179 
L 252.572968 -243.455718 
L 255.404977 -246.320401 
L 258.236986 -264.533523 
L 261.068995 -243.725537 
L 263.901005 -242.707213 
L 266.733014 -237.615798 
L 269.565023 -257.813139 
L 272.397032 -247.278945 
L 275.229041 -237.487904 
L 278.06105 -229.502071 
L 280.89306 -237.08498 
L 283.725069 -237.129276 
L 286.557078 -246.17424 
L 289.389087 -244.51302 
L 292.221096 -242.62036 
L 295.053105 -234.225758 
L 297.885115 -250.046202 
L 300.717124 -249.069526 
L 303.549133 -280.906977 
L 306.381142 -232.100759 
L 309.213151 -245.692569 
L 312.04516 -271.698419 
L 314.87717 -244.92738 
L 317.709179 -238.172221 
L 320.541188 -239.844053 
L 323.373197 -243.632314 
L 326.205206 -241.735029 
L 329.037215 -268.028108 
L 331.869225 -254.311695 
L 334.701234 -242.338486 
L 337.533243 -242.678652 
L 340.365252 -269.192062 
L 343.197261 -240.16714 
L 346.02927 -241.061422 
L 348.86128 -239.409507 
L 351.693289 -259.30125 
L 354.525298 -246.745535 
L 357.357307 -241.395908 
L 360.189316 -247.973444 
L 363.021325 -247.785493 
L 365.853335 -249.238033 
L 368.685344 -258.934533 
L 371.517353 -236.85349 
L 374.349362 -239.80887 
L 377.181371 -244.326274 
L 380.01338 -246.975814 
L 382.84539 -249.404801 
L 385.677399 -246.648972 
L 388.509408 -248.646658 
L 391.341417 -238.727554 
L 394.173426 -239.165862 
L 397.005435 -236.220437 
L 399.837445 -249.802738 
L 402.669454 -243.000944 
L 405.501463 -247.302472 
L 408.333472 -241.057543 
L 411.165481 -232.058275 
L 413.99749 -237.688549 
L 416.8295 -246.90195 
L 419.661509 -242.272432 
L 422.493518 -245.280598 
L 425.325527 -240.875541 
L 428.157536 -235.985459 
L 430.989545 -233.426819 
L 430.989545 -212.347074 
L 430.989545 -212.347074 
L 428.157536 -216.537387 
L 425.325527 -216.001317 
L 422.493518 -209.526868 
L 419.661509 -186.51317 
L 416.8295 -218.942115 
L 413.99749 -193.922667 
L 411.165481 -183.16179 
L 408.333472 -205.311557 
L 405.501463 -194.484297 
L 402.669454 -212.898507 
L 399.837445 -225.579582 
L 397.005435 -206.00744 
L 394.173426 -227.824182 
L 391.341417 -218.556375 
L 388.509408 -201.315096 
L 385.677399 -227.224306 
L 382.84539 -228.260243 
L 380.01338 -213.556032 
L 377.181371 -210.420419 
L 374.349362 -219.228456 
L 371.517353 -196.321863 
L 368.685344 -216.235203 
L 365.853335 -182.088795 
L 363.021325 -224.801158 
L 360.189316 -144.839709 
L 357.357307 -227.35482 
L 354.525298 -198.806717 
L 351.693289 -225.968361 
L 348.86128 -175.925321 
L 346.02927 -203.940819 
L 343.197261 -181.608921 
L 340.365252 -239.246163 
L 337.533243 -210.317047 
L 334.701234 -183.230669 
L 331.869225 -204.400021 
L 329.037215 -220.213767 
L 326.205206 -228.72549 
L 323.373197 -216.056892 
L 320.541188 -229.813257 
L 317.709179 -115.273331 
L 314.87717 -196.504033 
L 312.04516 -199.406025 
L 309.213151 -104.380611 
L 306.381142 -148.510331 
L 303.549133 -223.395395 
L 300.717124 -208.202795 
L 297.885115 -184.1267 
L 295.053105 -204.068817 
L 292.221096 -197.784959 
L 289.389087 -208.5437 
L 286.557078 -226.701497 
L 283.725069 -94.473336 
L 280.89306 -178.462641 
L 278.06105 -190.171848 
L 275.229041 -225.978488 
L 272.397032 -91.976862 
L 269.565023 -219.794166 
L 266.733014 -138.515954 
L 263.901005 -195.100527 
L 261.068995 -213.133479 
L 258.236986 -158.012125 
L 255.404977 -210.313484 
L 252.572968 -81.102105 
L 249.740959 -192.520704 
L 246.90895 -229.463227 
L 244.07694 -99.33177 
L 241.244931 -222.124935 
L 238.412922 -218.515389 
L 235.580913 -226.97414 
L 232.748904 -159.438893 
L 229.916895 -80.713063 
L 227.084885 -183.619968 
L 224.252876 -227.242357 
L 221.420867 -80.35004 
L 218.588858 -201.8514 
L 215.756849 -188.293068 
L 212.92484 -217.695995 
L 210.09283 -217.887978 
L 207.260821 -168.712382 
L 204.428812 -221.982106 
L 201.596803 -169.382615 
L 198.764794 -209.36103 
L 195.932785 -223.402272 
L 193.100775 -201.47658 
L 190.268766 -87.062135 
L 187.436757 -183.828062 
L 184.604748 -136.553382 
L 181.772739 -223.265436 
L 178.94073 -222.726929 
L 176.10872 -137.578636 
L 173.276711 -191.084819 
L 170.444702 -223.347896 
L 167.612693 -211.402536 
L 164.780684 -205.62902 
L 161.948675 -201.010449 
L 159.116665 -212.76498 
L 156.284656 -213.058011 
L 153.452647 -211.931485 
L 150.620638 -226.95288 
L 147.788629 -68.743297 
L 144.95662 -190.097644 
L 142.12461 -170.231304 
L 139.292601 -229.608631 
L 136.460592 -209.048229 
L 133.628583 -218.22601 
L 130.796574 -223.667058 
L 127.964565 -225.162233 
L 125.132555 -72.494444 
L 122.300546 -223.01358 
L 119.468537 -213.586332 
L 116.636528 -164.289033 
L 113.804519 -189.447713 
L 110.97251 -163.629332 
L 108.1405 -149.306212 
L 105.308491 -190.878906 
L 102.476482 -203.858665 
L 99.644473 -175.115395 
L 96.812464 -171.356475 
L 93.980455 -192.43288 
z
" style="stroke: #ffffff; stroke-opacity: 0.5"/>
    </defs>
    <g clip-path="url(#pee0b417958)">
     <use xlink:href="#mbf91b43f35" x="0" y="345.6" style="fill: #55a868; fill-opacity: 0.5; stroke: #ffffff; stroke-opacity: 0.5"/>
    </g>
   </g>
   <g id="PolyCollection_4">
    <defs>
     <path id="m41d24d756e" d="M 93.980455 -162.662124 
L 93.980455 -263.095006 
L 96.812464 -254.628857 
L 99.644473 -216.312824 
L 102.476482 -234.106772 
L 105.308491 -259.288153 
L 108.1405 -247.404809 
L 110.97251 -267.138135 
L 113.804519 -250.58127 
L 116.636528 -242.440334 
L 119.468537 -240.061241 
L 122.300546 -243.53791 
L 125.132555 -271.882242 
L 127.964565 -253.378268 
L 130.796574 -275.141434 
L 133.628583 -268.696949 
L 136.460592 -275.357634 
L 139.292601 -230.588107 
L 142.12461 -228.931249 
L 144.95662 -245.684254 
L 147.788629 -262.856775 
L 150.620638 -262.837823 
L 153.452647 -271.446233 
L 156.284656 -282.968348 
L 159.116665 -266.92553 
L 161.948675 -268.55093 
L 164.780684 -261.700333 
L 167.612693 -255.628146 
L 170.444702 -253.889228 
L 173.276711 -250.878168 
L 176.10872 -253.257472 
L 178.94073 -241.849741 
L 181.772739 -251.433303 
L 184.604748 -248.87769 
L 187.436757 -262.768724 
L 190.268766 -232.106619 
L 193.100775 -250.170067 
L 195.932785 -273.82755 
L 198.764794 -268.229227 
L 201.596803 -245.802207 
L 204.428812 -253.242252 
L 207.260821 -243.972774 
L 210.09283 -248.115568 
L 212.92484 -249.077918 
L 215.756849 -253.729875 
L 218.588858 -268.126718 
L 221.420867 -252.189292 
L 224.252876 -244.919456 
L 227.084885 -267.243272 
L 229.916895 -244.269312 
L 232.748904 -249.953918 
L 235.580913 -273.43671 
L 238.412922 -255.491393 
L 241.244931 -270.90899 
L 244.07694 -265.460085 
L 246.90895 -240.10325 
L 249.740959 -240.82568 
L 252.572968 -259.09927 
L 255.404977 -221.041248 
L 258.236986 -244.959659 
L 261.068995 -258.818062 
L 263.901005 -238.265607 
L 266.733014 -244.11953 
L 269.565023 -248.296431 
L 272.397032 -243.845853 
L 275.229041 -243.671596 
L 278.06105 -279.963596 
L 280.89306 -259.273984 
L 283.725069 -257.144614 
L 286.557078 -262.082443 
L 289.389087 -249.797116 
L 292.221096 -253.514966 
L 295.053105 -245.174372 
L 297.885115 -268.637351 
L 300.717124 -255.960671 
L 303.549133 -251.867051 
L 306.381142 -263.219329 
L 309.213151 -261.287051 
L 312.04516 -259.11073 
L 314.87717 -278.003013 
L 317.709179 -258.821362 
L 320.541188 -259.706984 
L 323.373197 -264.261218 
L 326.205206 -246.047613 
L 329.037215 -261.329205 
L 331.869225 -260.296156 
L 334.701234 -255.975494 
L 337.533243 -268.129427 
L 340.365252 -253.025419 
L 343.197261 -263.487745 
L 346.02927 -266.363491 
L 348.86128 -257.893972 
L 351.693289 -269.598221 
L 354.525298 -244.41245 
L 357.357307 -280.94848 
L 360.189316 -227.737444 
L 363.021325 -283.389145 
L 365.853335 -286.883275 
L 368.685344 -253.804333 
L 371.517353 -263.785006 
L 374.349362 -265.148751 
L 377.181371 -278.837503 
L 380.01338 -254.103774 
L 382.84539 -260.994683 
L 385.677399 -260.334987 
L 388.509408 -258.280508 
L 391.341417 -258.245195 
L 394.173426 -250.789746 
L 397.005435 -265.362198 
L 399.837445 -265.159017 
L 402.669454 -283.409394 
L 405.501463 -267.872031 
L 408.333472 -250.338197 
L 411.165481 -252.77195 
L 413.99749 -271.946256 
L 416.8295 -238.17539 
L 419.661509 -260.481467 
L 422.493518 -266.717223 
L 425.325527 -255.372366 
L 428.157536 -247.303698 
L 430.989545 -249.665857 
L 430.989545 -227.556888 
L 430.989545 -227.556888 
L 428.157536 -204.263861 
L 425.325527 -217.282283 
L 422.493518 -222.234941 
L 419.661509 -237.099306 
L 416.8295 -208.957131 
L 413.99749 -218.513127 
L 411.165481 -223.717439 
L 408.333472 -214.849533 
L 405.501463 -251.092543 
L 402.669454 -207.717367 
L 399.837445 -226.568556 
L 397.005435 -211.516613 
L 394.173426 -215.585018 
L 391.341417 -239.208501 
L 388.509408 -217.914592 
L 385.677399 -209.577901 
L 382.84539 -201.100499 
L 380.01338 -195.411396 
L 377.181371 -214.051142 
L 374.349362 -218.691015 
L 371.517353 -224.645323 
L 368.685344 -212.546415 
L 365.853335 -211.751324 
L 363.021325 -236.092111 
L 360.189316 -211.905569 
L 357.357307 -224.921351 
L 354.525298 -232.533557 
L 351.693289 -214.973625 
L 348.86128 -228.445605 
L 346.02927 -245.826951 
L 343.197261 -233.470663 
L 340.365252 -225.379077 
L 337.533243 -221.457142 
L 334.701234 -232.54626 
L 331.869225 -240.917274 
L 329.037215 -224.360152 
L 326.205206 -222.469955 
L 323.373197 -207.87949 
L 320.541188 -229.376116 
L 317.709179 -213.612144 
L 314.87717 -219.365253 
L 312.04516 -229.190984 
L 309.213151 -219.363109 
L 306.381142 -192.697381 
L 303.549133 -190.215836 
L 300.717124 -232.77537 
L 297.885115 -218.480863 
L 295.053105 -206.478888 
L 292.221096 -214.431195 
L 289.389087 -213.012448 
L 286.557078 -207.209502 
L 283.725069 -193.629101 
L 280.89306 -203.97847 
L 278.06105 -214.256414 
L 275.229041 -225.029249 
L 272.397032 -202.316068 
L 269.565023 -213.851537 
L 266.733014 -205.659453 
L 263.901005 -190.217464 
L 261.068995 -188.41812 
L 258.236986 -182.760656 
L 255.404977 -210.540558 
L 252.572968 -197.024523 
L 249.740959 -206.528689 
L 246.90895 -163.711052 
L 244.07694 -193.610948 
L 241.244931 -198.283414 
L 238.412922 -171.307246 
L 235.580913 -205.337815 
L 232.748904 -197.504308 
L 229.916895 -156.426965 
L 227.084885 -181.187046 
L 224.252876 -221.337201 
L 221.420867 -199.457704 
L 218.588858 -230.319919 
L 215.756849 -224.031607 
L 212.92484 -192.701415 
L 210.09283 -210.391658 
L 207.260821 -211.158418 
L 204.428812 -212.506068 
L 201.596803 -199.69664 
L 198.764794 -220.18819 
L 195.932785 -200.226146 
L 193.100775 -215.386316 
L 190.268766 -198.086537 
L 187.436757 -222.030451 
L 184.604748 -214.631695 
L 181.772739 -191.515469 
L 178.94073 -202.226867 
L 176.10872 -189.871023 
L 173.276711 -235.636879 
L 170.444702 -198.450075 
L 167.612693 -213.205464 
L 164.780684 -213.539872 
L 161.948675 -208.498548 
L 159.116665 -217.702686 
L 156.284656 -211.552406 
L 153.452647 -196.708005 
L 150.620638 -212.254465 
L 147.788629 -216.292963 
L 144.95662 -189.184557 
L 142.12461 -197.851175 
L 139.292601 -200.073614 
L 136.460592 -221.731912 
L 133.628583 -207.47754 
L 130.796574 -223.742406 
L 127.964565 -180.226286 
L 125.132555 -218.058268 
L 122.300546 -221.236619 
L 119.468537 -178.960494 
L 116.636528 -193.263451 
L 113.804519 -230.812186 
L 110.97251 -200.664195 
L 108.1405 -217.428913 
L 105.308491 -164.405954 
L 102.476482 -178.16618 
L 99.644473 -165.005746 
L 96.812464 -173.363191 
L 93.980455 -162.662124 
z
" style="stroke: #ffffff; stroke-opacity: 0.5"/>
    </defs>
    <g clip-path="url(#pee0b417958)">
     <use xlink:href="#m41d24d756e" x="0" y="345.6" style="fill: #c44e52; fill-opacity: 0.5; stroke: #ffffff; stroke-opacity: 0.5"/>
    </g>
   </g>
   <g id="line2d_13">
    <path d="M 93.980455 124.941895 
L 96.812464 282.619091 
L 99.644473 163.847875 
L 102.476482 107.31381 
L 105.308491 133.949358 
L 108.1405 282.619091 
L 110.97251 253.471465 
L 113.804519 175.704012 
L 116.636528 282.619091 
L 119.468537 111.680693 
L 122.300546 99.706284 
L 125.132555 122.075028 
L 127.964565 126.774475 
L 130.796574 126.32375 
L 133.628583 130.240153 
L 136.460592 92.840067 
L 139.292601 106.53836 
L 142.12461 94.248786 
L 144.95662 123.551313 
L 147.788629 75.061008 
L 150.620638 276.427073 
L 153.452647 136.452392 
L 156.284656 165.176497 
L 159.116665 282.619091 
L 161.948675 233.509148 
L 164.780684 135.746368 
L 167.612693 282.619091 
L 170.444702 137.440208 
L 173.276711 94.858151 
L 176.10872 119.463761 
L 178.94073 109.933562 
L 181.772739 97.283259 
L 184.604748 240.184817 
L 187.436757 130.157481 
L 190.268766 125.53945 
L 193.100775 156.772279 
L 195.932785 161.742622 
L 198.764794 282.619091 
L 201.596803 100.258362 
L 204.428812 118.251924 
L 207.260821 133.209179 
L 210.09283 82.933012 
L 212.92484 279.695632 
L 215.756849 135.574841 
L 218.588858 200.079844 
L 221.420867 125.10427 
L 224.252876 133.729177 
L 227.084885 261.468131 
L 229.916895 261.658322 
L 232.748904 90.789872 
L 235.580913 250.474127 
L 238.412922 222.046341 
L 241.244931 125.447254 
L 244.07694 177.820396 
L 246.90895 237.448746 
L 249.740959 122.494625 
L 252.572968 129.177811 
L 255.404977 117.787167 
L 258.236986 133.601647 
L 261.068995 164.679961 
L 263.901005 282.250378 
L 266.733014 120.196471 
L 269.565023 249.102161 
L 272.397032 216.868569 
L 275.229041 253.727148 
L 278.06105 118.710534 
L 280.89306 189.517146 
L 283.725069 150.09285 
L 286.557078 126.768616 
L 289.389087 258.568925 
L 292.221096 255.932192 
L 295.053105 243.73324 
L 297.885115 145.283499 
L 300.717124 282.561467 
L 303.549133 114.371892 
L 306.381142 132.927298 
L 309.213151 276.665644 
L 312.04516 238.101393 
L 314.87717 122.586747 
L 317.709179 129.184515 
L 320.541188 251.376992 
L 323.373197 156.6164 
L 326.205206 162.887042 
L 329.037215 136.370125 
L 331.869225 279.304498 
L 334.701234 255.444414 
L 337.533243 132.338556 
L 340.365252 275.909403 
L 343.197261 276.209865 
L 346.02927 264.353769 
L 348.86128 211.440607 
L 351.693289 278.756288 
L 354.525298 214.725393 
L 357.357307 201.036713 
L 360.189316 262.425468 
L 363.021325 266.399341 
L 365.853335 257.334705 
L 368.685344 122.797501 
L 371.517353 186.739907 
L 374.349362 143.972817 
L 377.181371 130.544027 
L 380.01338 172.309344 
L 382.84539 234.094701 
L 385.677399 140.387172 
L 388.509408 278.110981 
L 391.341417 155.898837 
L 394.173426 113.421152 
L 397.005435 125.406828 
L 399.837445 242.429115 
L 402.669454 161.123844 
L 405.501463 125.294507 
L 408.333472 273.555007 
L 411.165481 274.332682 
L 413.99749 275.392463 
L 416.8295 151.828633 
L 419.661509 205.674643 
L 422.493518 171.008174 
L 425.325527 282.500432 
L 428.157536 282.028259 
L 430.989545 137.105692 
" clip-path="url(#pee0b417958)" style="fill: none; stroke: #4c72b0; stroke-width: 3; stroke-linecap: round"/>
   </g>
   <g id="line2d_14">
    <path d="M 93.980455 139.820293 
L 96.812464 133.596464 
L 99.644473 127.875931 
L 102.476482 122.586542 
L 105.308491 121.319198 
L 108.1405 108.803911 
L 110.97251 103.708927 
L 113.804519 113.96288 
L 116.636528 103.985188 
L 119.468537 103.820676 
L 122.300546 109.07547 
L 125.132555 89.104629 
L 127.964565 110.029024 
L 130.796574 112.659811 
L 133.628583 97.736581 
L 136.460592 110.459805 
L 139.292601 101.016753 
L 142.12461 104.920845 
L 144.95662 94.663008 
L 147.788629 103.028722 
L 150.620638 98.619944 
L 153.452647 103.56354 
L 156.284656 93.801802 
L 159.116665 96.083943 
L 161.948675 100.626727 
L 164.780684 111.653912 
L 167.612693 111.788137 
L 170.444702 97.878445 
L 173.276711 104.738404 
L 176.10872 97.317726 
L 178.94073 103.793562 
L 181.772739 89.963386 
L 184.604748 90.061216 
L 187.436757 97.613758 
L 190.268766 98.067247 
L 193.100775 97.167572 
L 195.932785 92.449336 
L 198.764794 100.015228 
L 201.596803 99.518242 
L 204.428812 109.164527 
L 207.260821 98.426084 
L 210.09283 89.495917 
L 212.92484 101.322447 
L 215.756849 101.008984 
L 218.588858 94.46676 
L 221.420867 94.644107 
L 224.252876 98.177224 
L 227.084885 114.265832 
L 229.916895 108.021649 
L 232.748904 94.660986 
L 235.580913 95.04069 
L 238.412922 103.107211 
L 241.244931 102.236598 
L 244.07694 98.374619 
L 246.90895 119.88945 
L 249.740959 107.050133 
L 252.572968 109.384803 
L 255.404977 115.705538 
L 258.236986 125.457039 
L 261.068995 116.659774 
L 263.901005 113.90795 
L 266.733014 120.614843 
L 269.565023 115.00028 
L 272.397032 103.433276 
L 275.229041 140.917045 
L 278.06105 114.543325 
L 280.89306 123.493928 
L 283.725069 125.241823 
L 286.557078 119.608079 
L 289.389087 125.987039 
L 292.221096 112.350332 
L 295.053105 125.67766 
L 297.885115 118.848985 
L 300.717124 115.944232 
L 303.549133 125.899657 
L 306.381142 123.677371 
L 309.213151 118.348688 
L 312.04516 126.151767 
L 314.87717 130.852306 
L 317.709179 133.150204 
L 320.541188 109.864071 
L 323.373197 115.472663 
L 326.205206 135.424992 
L 329.037215 122.675305 
L 331.869225 123.400458 
L 334.701234 125.383224 
L 337.533243 128.491089 
L 340.365252 118.409157 
L 343.197261 124.40122 
L 346.02927 127.923199 
L 348.86128 122.933656 
L 351.693289 123.107355 
L 354.525298 106.570473 
L 357.357307 108.802507 
L 360.189316 123.649493 
L 363.021325 123.689507 
L 365.853335 124.180215 
L 368.685344 130.942239 
L 371.517353 123.951311 
L 374.349362 121.786086 
L 377.181371 111.924228 
L 380.01338 115.530679 
L 382.84539 132.15403 
L 385.677399 136.698877 
L 388.509408 117.930306 
L 391.341417 129.068752 
L 394.173426 118.929919 
L 397.005435 126.918364 
L 399.837445 123.408449 
L 402.669454 121.891392 
L 405.501463 124.730569 
L 408.333472 122.349559 
L 411.165481 123.684435 
L 413.99749 132.017302 
L 416.8295 126.473943 
L 419.661509 134.397979 
L 422.493518 125.573137 
L 425.325527 114.064244 
L 428.157536 115.820457 
L 430.989545 120.541601 
" clip-path="url(#pee0b417958)" style="fill: none; stroke: #dd8452; stroke-width: 3; stroke-linecap: round"/>
   </g>
   <g id="line2d_15">
    <path d="M 93.980455 134.666912 
L 96.812464 143.731833 
L 99.644473 136.519117 
L 102.476482 132.213508 
L 105.308491 140.036244 
L 108.1405 145.018714 
L 110.97251 128.358729 
L 113.804519 125.02845 
L 116.636528 134.582039 
L 119.468537 118.750024 
L 122.300546 111.064691 
L 125.132555 155.935302 
L 127.964565 110.251441 
L 130.796574 115.816537 
L 133.628583 113.821912 
L 136.460592 122.025966 
L 139.292601 107.879557 
L 142.12461 127.729231 
L 144.95662 125.484858 
L 147.788629 143.588792 
L 150.620638 109.025831 
L 153.452647 110.664103 
L 156.284656 120.473475 
L 159.116665 116.724284 
L 161.948675 116.582864 
L 164.780684 125.489257 
L 167.612693 116.565729 
L 170.444702 114.125463 
L 173.276711 126.963455 
L 176.10872 148.230522 
L 178.94073 114.833164 
L 181.772739 101.613491 
L 184.604748 134.636297 
L 187.436757 123.361416 
L 190.268766 128.656719 
L 193.100775 111.929558 
L 195.932785 108.603494 
L 198.764794 109.473863 
L 201.596803 127.924966 
L 204.428812 111.542038 
L 207.260821 128.531912 
L 210.09283 111.076497 
L 212.92484 113.28569 
L 215.756849 131.667126 
L 218.588858 111.52361 
L 221.420867 159.236163 
L 224.252876 113.384622 
L 227.084885 127.142067 
L 229.916895 142.581526 
L 232.748904 138.128198 
L 235.580913 102.313021 
L 238.412922 104.484674 
L 241.244931 109.282871 
L 244.07694 143.481257 
L 246.90895 111.887619 
L 249.740959 134.856844 
L 252.572968 157.594684 
L 255.404977 114.575239 
L 258.236986 123.977209 
L 261.068995 114.636734 
L 263.901005 123.562918 
L 266.733014 147.322368 
L 269.565023 108.169413 
L 272.397032 144.266701 
L 275.229041 111.617565 
L 278.06105 128.282403 
L 280.89306 124.968322 
L 283.725069 164.211566 
L 286.557078 112.101568 
L 289.389087 114.105588 
L 292.221096 120.102284 
L 295.053105 125.019033 
L 297.885115 116.717432 
L 300.717124 113.230711 
L 303.549133 101.249266 
L 306.381142 139.304365 
L 309.213151 158.511838 
L 312.04516 115.49227 
L 314.87717 115.699066 
L 317.709179 139.953688 
L 320.541188 110.463804 
L 323.373197 113.4558 
L 326.205206 110.446112 
L 329.037215 111.384245 
L 331.869225 117.384531 
L 334.701234 134.478209 
L 337.533243 117.126385 
L 340.365252 98.192617 
L 343.197261 138.696321 
L 346.02927 116.147831 
L 348.86128 121.001021 
L 351.693289 105.544248 
L 354.525298 116.404933 
L 357.357307 109.823159 
L 360.189316 139.989059 
L 363.021325 107.394617 
L 365.853335 119.973296 
L 368.685344 106.750099 
L 371.517353 128.558833 
L 374.349362 111.484971 
L 377.181371 115.36676 
L 380.01338 114.292217 
L 382.84539 107.557635 
L 385.677399 108.428813 
L 388.509408 120.306935 
L 391.341417 114.604522 
L 394.173426 111.377068 
L 397.005435 121.823606 
L 399.837445 111.430029 
L 402.669454 114.982346 
L 405.501463 115.431285 
L 408.333472 117.130556 
L 411.165481 127.139321 
L 413.99749 124.755396 
L 416.8295 115.465874 
L 419.661509 118.709385 
L 422.493518 120.854344 
L 425.325527 115.833315 
L 428.157536 116.450755 
L 430.989545 120.797033 
" clip-path="url(#pee0b417958)" style="fill: none; stroke: #55a868; stroke-width: 3; stroke-linecap: round"/>
   </g>
   <g id="line2d_16">
    <path d="M 93.980455 137.184876 
L 96.812464 128.522143 
L 99.644473 148.152213 
L 102.476482 131.326494 
L 105.308491 146.393786 
L 108.1405 115.480954 
L 110.97251 120.15328 
L 113.804519 105.156169 
L 116.636528 128.523169 
L 119.468537 141.746297 
L 122.300546 109.390907 
L 125.132555 95.936683 
L 127.964565 135.001045 
L 130.796574 101.705171 
L 133.628583 103.470476 
L 136.460592 87.919076 
L 139.292601 128.490825 
L 142.12461 134.767393 
L 144.95662 138.72512 
L 147.788629 97.344834 
L 150.620638 107.976053 
L 153.452647 113.623333 
L 156.284656 103.182384 
L 159.116665 101.030851 
L 161.948675 115.812748 
L 164.780684 104.64412 
L 167.612693 109.439328 
L 170.444702 123.753137 
L 173.276711 101.51527 
L 176.10872 116.688874 
L 178.94073 117.210166 
L 181.772739 127.573697 
L 184.604748 110.070872 
L 187.436757 103.879202 
L 190.268766 126.900434 
L 193.100775 109.280401 
L 195.932785 105.147602 
L 198.764794 105.507348 
L 201.596803 121.514262 
L 204.428812 108.557858 
L 207.260821 120.206277 
L 210.09283 114.674196 
L 212.92484 122.465499 
L 215.756849 109.447374 
L 218.588858 98.082827 
L 221.420867 110.984584 
L 224.252876 112.434498 
L 227.084885 117.878724 
L 229.916895 129.926672 
L 232.748904 116.463567 
L 235.580913 103.774395 
L 238.412922 125.774073 
L 241.244931 110.601258 
L 244.07694 132.725693 
L 246.90895 147.03923 
L 249.740959 127.348661 
L 252.572968 121.686556 
L 255.404977 129.109071 
L 258.236986 131.925295 
L 261.068995 120.527633 
L 263.901005 125.877478 
L 266.733014 114.684304 
L 269.565023 115.927553 
L 272.397032 121.260418 
L 275.229041 110.629496 
L 278.06105 105.509298 
L 280.89306 115.487636 
L 283.725069 121.973608 
L 286.557078 113.95936 
L 289.389087 108.477528 
L 292.221096 105.027097 
L 295.053105 114.592061 
L 297.885115 108.538493 
L 300.717124 98.621745 
L 303.549133 120.996514 
L 306.381142 111.849315 
L 309.213151 103.684805 
L 312.04516 105.040596 
L 314.87717 98.281786 
L 317.709179 106.38972 
L 320.541188 104.500657 
L 323.373197 111.988568 
L 326.205206 109.188094 
L 329.037215 107.034185 
L 331.869225 92.690554 
L 334.701234 99.699284 
L 337.533243 95.307962 
L 340.365252 107.231761 
L 343.197261 100.058074 
L 346.02927 88.347618 
L 348.86128 102.706712 
L 351.693289 107.716497 
L 354.525298 107.598773 
L 357.357307 106.062315 
L 360.189316 127.012015 
L 363.021325 90.359478 
L 365.853335 105.998821 
L 368.685344 108.608121 
L 371.517353 103.902443 
L 374.349362 103.668131 
L 377.181371 98.06145 
L 380.01338 112.370352 
L 382.84539 112.233695 
L 385.677399 109.58174 
L 388.509408 106.648868 
L 391.341417 98.216694 
L 394.173426 111.631402 
L 397.005435 112.257318 
L 399.837445 103.846224 
L 402.669454 115.075506 
L 405.501463 85.457072 
L 408.333472 115.235608 
L 411.165481 110.190432 
L 413.99749 110.718675 
L 416.8295 122.048301 
L 419.661509 98.793931 
L 422.493518 105.427033 
L 425.325527 111.540702 
L 428.157536 113.503685 
L 430.989545 106.034963 
" clip-path="url(#pee0b417958)" style="fill: none; stroke: #c44e52; stroke-width: 3; stroke-linecap: round"/>
   </g>
   <g id="patch_3">
    <path d="M 77.13 294.66 
L 77.13 29.76 
" style="fill: none; stroke: #ffffff; stroke-width: 1.25; stroke-linejoin: miter; stroke-linecap: square"/>
   </g>
   <g id="patch_4">
    <path d="M 447.84 294.66 
L 447.84 29.76 
" style="fill: none; stroke: #ffffff; stroke-width: 1.25; stroke-linejoin: miter; stroke-linecap: square"/>
   </g>
   <g id="patch_5">
    <path d="M 77.13 294.66 
L 447.84 294.66 
" style="fill: none; stroke: #ffffff; stroke-width: 1.25; stroke-linejoin: miter; stroke-linecap: square"/>
   </g>
   <g id="patch_6">
    <path d="M 77.13 29.76 
L 447.84 29.76 
" style="fill: none; stroke: #ffffff; stroke-width: 1.25; stroke-linejoin: miter; stroke-linecap: square"/>
   </g>
   <g id="text_15">
    <!-- zinc-coating-v0 -->
    <g style="fill: #262626" transform="translate(209.126406 23.76)scale(0.14 -0.14)">
     <defs>
      <path id="DejaVuSans-7a" d="M 353 3500 
L 3084 3500 
L 3084 2975 
L 922 459 
L 3084 459 
L 3084 0 
L 275 0 
L 275 525 
L 2438 3041 
L 353 3041 
L 353 3500 
z
" transform="scale(0.015625)"/>
      <path id="DejaVuSans-2d" d="M 313 2009 
L 1997 2009 
L 1997 1497 
L 313 1497 
L 313 2009 
z
" transform="scale(0.015625)"/>
      <path id="DejaVuSans-61" d="M 2194 1759 
Q 1497 1759 1228 1600 
Q 959 1441 959 1056 
Q 959 750 1161 570 
Q 1363 391 1709 391 
Q 2188 391 2477 730 
Q 2766 1069 2766 1631 
L 2766 1759 
L 2194 1759 
z
M 3341 1997 
L 3341 0 
L 2766 0 
L 2766 531 
Q 2569 213 2275 61 
Q 1981 -91 1556 -91 
Q 1019 -91 701 211 
Q 384 513 384 1019 
Q 384 1609 779 1909 
Q 1175 2209 1959 2209 
L 2766 2209 
L 2766 2266 
Q 2766 2663 2505 2880 
Q 2244 3097 1772 3097 
Q 1472 3097 1187 3025 
Q 903 2953 641 2809 
L 641 3341 
Q 956 3463 1253 3523 
Q 1550 3584 1831 3584 
Q 2591 3584 2966 3190 
Q 3341 2797 3341 1997 
z
" transform="scale(0.015625)"/>
      <path id="DejaVuSans-67" d="M 2906 1791 
Q 2906 2416 2648 2759 
Q 2391 3103 1925 3103 
Q 1463 3103 1205 2759 
Q 947 2416 947 1791 
Q 947 1169 1205 825 
Q 1463 481 1925 481 
Q 2391 481 2648 825 
Q 2906 1169 2906 1791 
z
M 3481 434 
Q 3481 -459 3084 -895 
Q 2688 -1331 1869 -1331 
Q 1566 -1331 1297 -1286 
Q 1028 -1241 775 -1147 
L 775 -588 
Q 1028 -725 1275 -790 
Q 1522 -856 1778 -856 
Q 2344 -856 2625 -561 
Q 2906 -266 2906 331 
L 2906 616 
Q 2728 306 2450 153 
Q 2172 0 1784 0 
Q 1141 0 747 490 
Q 353 981 353 1791 
Q 353 2603 747 3093 
Q 1141 3584 1784 3584 
Q 2172 3584 2450 3431 
Q 2728 3278 2906 2969 
L 2906 3500 
L 3481 3500 
L 3481 434 
z
" transform="scale(0.015625)"/>
      <path id="DejaVuSans-76" d="M 191 3500 
L 800 3500 
L 1894 563 
L 2988 3500 
L 3597 3500 
L 2284 0 
L 1503 0 
L 191 3500 
z
" transform="scale(0.015625)"/>
     </defs>
     <use xlink:href="#DejaVuSans-7a"/>
     <use xlink:href="#DejaVuSans-69" x="52.490234"/>
     <use xlink:href="#DejaVuSans-6e" x="80.273438"/>
     <use xlink:href="#DejaVuSans-63" x="143.652344"/>
     <use xlink:href="#DejaVuSans-2d" x="198.632812"/>
     <use xlink:href="#DejaVuSans-63" x="234.716797"/>
     <use xlink:href="#DejaVuSans-6f" x="289.697266"/>
     <use xlink:href="#DejaVuSans-61" x="350.878906"/>
     <use xlink:href="#DejaVuSans-74" x="412.158203"/>
     <use xlink:href="#DejaVuSans-69" x="451.367188"/>
     <use xlink:href="#DejaVuSans-6e" x="479.150391"/>
     <use xlink:href="#DejaVuSans-67" x="542.529297"/>
     <use xlink:href="#DejaVuSans-2d" x="606.005859"/>
     <use xlink:href="#DejaVuSans-76" x="639.464844"/>
     <use xlink:href="#DejaVuSans-30" x="698.644531"/>
    </g>
   </g>
   <g id="legend_1">
    <g id="patch_7">
     <path d="M 255.725 103.14375 
L 440.14 103.14375 
Q 442.34 103.14375 442.34 100.94375 
L 442.34 37.46 
Q 442.34 35.26 440.14 35.26 
L 255.725 35.26 
Q 253.525 35.26 253.525 37.46 
L 253.525 100.94375 
Q 253.525 103.14375 255.725 103.14375 
z
" style="fill: #eaeaf2; opacity: 0.8; stroke: #cccccc; stroke-linejoin: miter"/>
    </g>
    <g id="line2d_17">
     <path d="M 257.925 44.168281 
L 268.925 44.168281 
L 279.925 44.168281 
" style="fill: none; stroke: #4c72b0; stroke-width: 3; stroke-linecap: round"/>
    </g>
    <g id="text_16">
     <!-- DATS-DELAY-100-GPU-logs/ -->
     <g style="fill: #262626" transform="translate(288.725 48.018281)scale(0.11 -0.11)">
      <defs>
       <path id="DejaVuSans-44" d="M 1259 4147 
L 1259 519 
L 2022 519 
Q 2988 519 3436 956 
Q 3884 1394 3884 2338 
Q 3884 3275 3436 3711 
Q 2988 4147 2022 4147 
L 1259 4147 
z
M 628 4666 
L 1925 4666 
Q 3281 4666 3915 4102 
Q 4550 3538 4550 2338 
Q 4550 1131 3912 565 
Q 3275 0 1925 0 
L 628 0 
L 628 4666 
z
" transform="scale(0.015625)"/>
       <path id="DejaVuSans-41" d="M 2188 4044 
L 1331 1722 
L 3047 1722 
L 2188 4044 
z
M 1831 4666 
L 2547 4666 
L 4325 0 
L 3669 0 
L 3244 1197 
L 1141 1197 
L 716 0 
L 50 0 
L 1831 4666 
z
" transform="scale(0.015625)"/>
       <path id="DejaVuSans-45" d="M 628 4666 
L 3578 4666 
L 3578 4134 
L 1259 4134 
L 1259 2753 
L 3481 2753 
L 3481 2222 
L 1259 2222 
L 1259 531 
L 3634 531 
L 3634 0 
L 628 0 
L 628 4666 
z
" transform="scale(0.015625)"/>
       <path id="DejaVuSans-4c" d="M 628 4666 
L 1259 4666 
L 1259 531 
L 3531 531 
L 3531 0 
L 628 0 
L 628 4666 
z
" transform="scale(0.015625)"/>
       <path id="DejaVuSans-59" d="M -13 4666 
L 666 4666 
L 1959 2747 
L 3244 4666 
L 3922 4666 
L 2272 2222 
L 2272 0 
L 1638 0 
L 1638 2222 
L -13 4666 
z
" transform="scale(0.015625)"/>
       <path id="DejaVuSans-47" d="M 3809 666 
L 3809 1919 
L 2778 1919 
L 2778 2438 
L 4434 2438 
L 4434 434 
Q 4069 175 3628 42 
Q 3188 -91 2688 -91 
Q 1594 -91 976 548 
Q 359 1188 359 2328 
Q 359 3472 976 4111 
Q 1594 4750 2688 4750 
Q 3144 4750 3555 4637 
Q 3966 4525 4313 4306 
L 4313 3634 
Q 3963 3931 3569 4081 
Q 3175 4231 2741 4231 
Q 1884 4231 1454 3753 
Q 1025 3275 1025 2328 
Q 1025 1384 1454 906 
Q 1884 428 2741 428 
Q 3075 428 3337 486 
Q 3600 544 3809 666 
z
" transform="scale(0.015625)"/>
       <path id="DejaVuSans-50" d="M 1259 4147 
L 1259 2394 
L 2053 2394 
Q 2494 2394 2734 2622 
Q 2975 2850 2975 3272 
Q 2975 3691 2734 3919 
Q 2494 4147 2053 4147 
L 1259 4147 
z
M 628 4666 
L 2053 4666 
Q 2838 4666 3239 4311 
Q 3641 3956 3641 3272 
Q 3641 2581 3239 2228 
Q 2838 1875 2053 1875 
L 1259 1875 
L 1259 0 
L 628 0 
L 628 4666 
z
" transform="scale(0.015625)"/>
       <path id="DejaVuSans-55" d="M 556 4666 
L 1191 4666 
L 1191 1831 
Q 1191 1081 1462 751 
Q 1734 422 2344 422 
Q 2950 422 3222 751 
Q 3494 1081 3494 1831 
L 3494 4666 
L 4128 4666 
L 4128 1753 
Q 4128 841 3676 375 
Q 3225 -91 2344 -91 
Q 1459 -91 1007 375 
Q 556 841 556 1753 
L 556 4666 
z
" transform="scale(0.015625)"/>
       <path id="DejaVuSans-2f" d="M 1625 4666 
L 2156 4666 
L 531 -594 
L 0 -594 
L 1625 4666 
z
" transform="scale(0.015625)"/>
      </defs>
      <use xlink:href="#DejaVuSans-44"/>
      <use xlink:href="#DejaVuSans-41" x="75.251953"/>
      <use xlink:href="#DejaVuSans-54" x="135.910156"/>
      <use xlink:href="#DejaVuSans-53" x="196.994141"/>
      <use xlink:href="#DejaVuSans-2d" x="260.470703"/>
      <use xlink:href="#DejaVuSans-44" x="296.554688"/>
      <use xlink:href="#DejaVuSans-45" x="373.556641"/>
      <use xlink:href="#DejaVuSans-4c" x="436.740234"/>
      <use xlink:href="#DejaVuSans-41" x="494.703125"/>
      <use xlink:href="#DejaVuSans-59" x="555.361328"/>
      <use xlink:href="#DejaVuSans-2d" x="604.570312"/>
      <use xlink:href="#DejaVuSans-31" x="640.654297"/>
      <use xlink:href="#DejaVuSans-30" x="704.277344"/>
      <use xlink:href="#DejaVuSans-30" x="767.900391"/>
      <use xlink:href="#DejaVuSans-2d" x="831.523438"/>
      <use xlink:href="#DejaVuSans-47" x="871.232422"/>
      <use xlink:href="#DejaVuSans-50" x="948.722656"/>
      <use xlink:href="#DejaVuSans-55" x="1009.025391"/>
      <use xlink:href="#DejaVuSans-2d" x="1082.21875"/>
      <use xlink:href="#DejaVuSans-6c" x="1118.302734"/>
      <use xlink:href="#DejaVuSans-6f" x="1146.085938"/>
      <use xlink:href="#DejaVuSans-67" x="1207.267578"/>
      <use xlink:href="#DejaVuSans-73" x="1270.744141"/>
      <use xlink:href="#DejaVuSans-2f" x="1322.84375"/>
     </g>
    </g>
    <g id="line2d_18">
     <path d="M 257.925 60.314219 
L 268.925 60.314219 
L 279.925 60.314219 
" style="fill: none; stroke: #dd8452; stroke-width: 3; stroke-linecap: round"/>
    </g>
    <g id="text_17">
     <!-- SAC-DELAY-100-logs/ -->
     <g style="fill: #262626" transform="translate(288.725 64.164219)scale(0.11 -0.11)">
      <defs>
       <path id="DejaVuSans-43" d="M 4122 4306 
L 4122 3641 
Q 3803 3938 3442 4084 
Q 3081 4231 2675 4231 
Q 1875 4231 1450 3742 
Q 1025 3253 1025 2328 
Q 1025 1406 1450 917 
Q 1875 428 2675 428 
Q 3081 428 3442 575 
Q 3803 722 4122 1019 
L 4122 359 
Q 3791 134 3420 21 
Q 3050 -91 2638 -91 
Q 1578 -91 968 557 
Q 359 1206 359 2328 
Q 359 3453 968 4101 
Q 1578 4750 2638 4750 
Q 3056 4750 3426 4639 
Q 3797 4528 4122 4306 
z
" transform="scale(0.015625)"/>
      </defs>
      <use xlink:href="#DejaVuSans-53"/>
      <use xlink:href="#DejaVuSans-41" x="65.351562"/>
      <use xlink:href="#DejaVuSans-43" x="132.009766"/>
      <use xlink:href="#DejaVuSans-2d" x="201.833984"/>
      <use xlink:href="#DejaVuSans-44" x="237.917969"/>
      <use xlink:href="#DejaVuSans-45" x="314.919922"/>
      <use xlink:href="#DejaVuSans-4c" x="378.103516"/>
      <use xlink:href="#DejaVuSans-41" x="436.066406"/>
      <use xlink:href="#DejaVuSans-59" x="496.724609"/>
      <use xlink:href="#DejaVuSans-2d" x="545.933594"/>
      <use xlink:href="#DejaVuSans-31" x="582.017578"/>
      <use xlink:href="#DejaVuSans-30" x="645.640625"/>
      <use xlink:href="#DejaVuSans-30" x="709.263672"/>
      <use xlink:href="#DejaVuSans-2d" x="772.886719"/>
      <use xlink:href="#DejaVuSans-6c" x="808.970703"/>
      <use xlink:href="#DejaVuSans-6f" x="836.753906"/>
      <use xlink:href="#DejaVuSans-67" x="897.935547"/>
      <use xlink:href="#DejaVuSans-73" x="961.412109"/>
      <use xlink:href="#DejaVuSans-2f" x="1013.511719"/>
     </g>
    </g>
    <g id="line2d_19">
     <path d="M 257.925 76.460156 
L 268.925 76.460156 
L 279.925 76.460156 
" style="fill: none; stroke: #55a868; stroke-width: 3; stroke-linecap: round"/>
    </g>
    <g id="text_18">
     <!-- SAC-IS-DELAY-100-logs/ -->
     <g style="fill: #262626" transform="translate(288.725 80.310156)scale(0.11 -0.11)">
      <defs>
       <path id="DejaVuSans-49" d="M 628 4666 
L 1259 4666 
L 1259 0 
L 628 0 
L 628 4666 
z
" transform="scale(0.015625)"/>
      </defs>
      <use xlink:href="#DejaVuSans-53"/>
      <use xlink:href="#DejaVuSans-41" x="65.351562"/>
      <use xlink:href="#DejaVuSans-43" x="132.009766"/>
      <use xlink:href="#DejaVuSans-2d" x="201.833984"/>
      <use xlink:href="#DejaVuSans-49" x="237.917969"/>
      <use xlink:href="#DejaVuSans-53" x="267.410156"/>
      <use xlink:href="#DejaVuSans-2d" x="330.886719"/>
      <use xlink:href="#DejaVuSans-44" x="366.970703"/>
      <use xlink:href="#DejaVuSans-45" x="443.972656"/>
      <use xlink:href="#DejaVuSans-4c" x="507.15625"/>
      <use xlink:href="#DejaVuSans-41" x="565.119141"/>
      <use xlink:href="#DejaVuSans-59" x="625.777344"/>
      <use xlink:href="#DejaVuSans-2d" x="674.986328"/>
      <use xlink:href="#DejaVuSans-31" x="711.070312"/>
      <use xlink:href="#DejaVuSans-30" x="774.693359"/>
      <use xlink:href="#DejaVuSans-30" x="838.316406"/>
      <use xlink:href="#DejaVuSans-2d" x="901.939453"/>
      <use xlink:href="#DejaVuSans-6c" x="938.023438"/>
      <use xlink:href="#DejaVuSans-6f" x="965.806641"/>
      <use xlink:href="#DejaVuSans-67" x="1026.988281"/>
      <use xlink:href="#DejaVuSans-73" x="1090.464844"/>
      <use xlink:href="#DejaVuSans-2f" x="1142.564453"/>
     </g>
    </g>
    <g id="line2d_20">
     <path d="M 257.925 92.606094 
L 268.925 92.606094 
L 279.925 92.606094 
" style="fill: none; stroke: #c44e52; stroke-width: 3; stroke-linecap: round"/>
    </g>
    <g id="text_19">
     <!-- DCAC-DELAY-100-logs/ -->
     <g style="fill: #262626" transform="translate(288.725 96.456094)scale(0.11 -0.11)">
      <use xlink:href="#DejaVuSans-44"/>
      <use xlink:href="#DejaVuSans-43" x="77.001953"/>
      <use xlink:href="#DejaVuSans-41" x="146.826172"/>
      <use xlink:href="#DejaVuSans-43" x="213.484375"/>
      <use xlink:href="#DejaVuSans-2d" x="283.308594"/>
      <use xlink:href="#DejaVuSans-44" x="319.392578"/>
      <use xlink:href="#DejaVuSans-45" x="396.394531"/>
      <use xlink:href="#DejaVuSans-4c" x="459.578125"/>
      <use xlink:href="#DejaVuSans-41" x="517.541016"/>
      <use xlink:href="#DejaVuSans-59" x="578.199219"/>
      <use xlink:href="#DejaVuSans-2d" x="627.408203"/>
      <use xlink:href="#DejaVuSans-31" x="663.492188"/>
      <use xlink:href="#DejaVuSans-30" x="727.115234"/>
      <use xlink:href="#DejaVuSans-30" x="790.738281"/>
      <use xlink:href="#DejaVuSans-2d" x="854.361328"/>
      <use xlink:href="#DejaVuSans-6c" x="890.445312"/>
      <use xlink:href="#DejaVuSans-6f" x="918.228516"/>
      <use xlink:href="#DejaVuSans-67" x="979.410156"/>
      <use xlink:href="#DejaVuSans-73" x="1042.886719"/>
      <use xlink:href="#DejaVuSans-2f" x="1094.986328"/>
     </g>
    </g>
   </g>
  </g>
 </g>
 <defs>
  <clipPath id="pee0b417958">
   <rect x="77.13" y="29.76" width="370.71" height="264.9"/>
  </clipPath>
 </defs>
</svg>
