<?xml version="1.0" encoding="utf-8" standalone="no"?>
<!DOCTYPE svg PUBLIC "-//W3C//DTD SVG 1.1//EN"
  "http://www.w3.org/Graphics/SVG/1.1/DTD/svg11.dtd">
<svg xmlns:xlink="http://www.w3.org/1999/xlink" width="460.8pt" height="345.6pt" viewBox="0 0 460.8 345.6" xmlns="http://www.w3.org/2000/svg" version="1.1">
 <metadata>
  <rdf:RDF xmlns:dc="http://purl.org/dc/elements/1.1/" xmlns:cc="http://creativecommons.org/ns#" xmlns:rdf="http://www.w3.org/1999/02/22-rdf-syntax-ns#">
   <cc:Work>
    <dc:type rdf:resource="http://purl.org/dc/dcmitype/StillImage"/>
    <dc:date>2022-09-13T10:20:30.789055</dc:date>
    <dc:format>image/svg+xml</dc:format>
    <dc:creator>
     <cc:Agent>
      <dc:title>Matplotlib v3.5.3, https://matplotlib.org/</dc:title>
     </cc:Agent>
    </dc:creator>
   </cc:Work>
  </rdf:RDF>
 </metadata>
 <defs>
  <style type="text/css">*{stroke-linejoin: round; stroke-linecap: butt}</style>
 </defs>
 <g id="figure_1">
  <g id="patch_1">
   <path d="M 0 345.6 
L 460.8 345.6 
L 460.8 0 
L 0 0 
z
" style="fill: #ffffff"/>
  </g>
  <g id="axes_1">
   <g id="patch_2">
    <path d="M 77.13 294.66 
L 447.84 294.66 
L 447.84 12.96 
L 77.13 12.96 
z
" style="fill: #eaeaf2"/>
   </g>
   <g id="matplotlib.axis_1">
    <g id="xtick_1">
     <g id="line2d_1">
      <path d="M 91.148445 294.66 
L 91.148445 12.96 
" clip-path="url(#p623365573c)" style="fill: none; stroke: #ffffff; stroke-linecap: round"/>
     </g>
     <g id="text_1">
      <!-- 0.00 -->
      <g style="fill: #262626" transform="translate(78.902352 312.518281)scale(0.11 -0.11)">
       <defs>
        <path id="DejaVuSans-30" d="M 2034 4250 
Q 1547 4250 1301 3770 
Q 1056 3291 1056 2328 
Q 1056 1369 1301 889 
Q 1547 409 2034 409 
Q 2525 409 2770 889 
Q 3016 1369 3016 2328 
Q 3016 3291 2770 3770 
Q 2525 4250 2034 4250 
z
M 2034 4750 
Q 2819 4750 3233 4129 
Q 3647 3509 3647 2328 
Q 3647 1150 3233 529 
Q 2819 -91 2034 -91 
Q 1250 -91 836 529 
Q 422 1150 422 2328 
Q 422 3509 836 4129 
Q 1250 4750 2034 4750 
z
" transform="scale(0.015625)"/>
        <path id="DejaVuSans-2e" d="M 684 794 
L 1344 794 
L 1344 0 
L 684 0 
L 684 794 
z
" transform="scale(0.015625)"/>
       </defs>
       <use xlink:href="#DejaVuSans-30"/>
       <use xlink:href="#DejaVuSans-2e" x="63.623047"/>
       <use xlink:href="#DejaVuSans-30" x="95.410156"/>
       <use xlink:href="#DejaVuSans-30" x="159.033203"/>
      </g>
     </g>
    </g>
    <g id="xtick_2">
     <g id="line2d_2">
      <path d="M 147.788629 294.66 
L 147.788629 12.96 
" clip-path="url(#p623365573c)" style="fill: none; stroke: #ffffff; stroke-linecap: round"/>
     </g>
     <g id="text_2">
      <!-- 0.05 -->
      <g style="fill: #262626" transform="translate(135.542535 312.518281)scale(0.11 -0.11)">
       <defs>
        <path id="DejaVuSans-35" d="M 691 4666 
L 3169 4666 
L 3169 4134 
L 1269 4134 
L 1269 2991 
Q 1406 3038 1543 3061 
Q 1681 3084 1819 3084 
Q 2600 3084 3056 2656 
Q 3513 2228 3513 1497 
Q 3513 744 3044 326 
Q 2575 -91 1722 -91 
Q 1428 -91 1123 -41 
Q 819 9 494 109 
L 494 744 
Q 775 591 1075 516 
Q 1375 441 1709 441 
Q 2250 441 2565 725 
Q 2881 1009 2881 1497 
Q 2881 1984 2565 2268 
Q 2250 2553 1709 2553 
Q 1456 2553 1204 2497 
Q 953 2441 691 2322 
L 691 4666 
z
" transform="scale(0.015625)"/>
       </defs>
       <use xlink:href="#DejaVuSans-30"/>
       <use xlink:href="#DejaVuSans-2e" x="63.623047"/>
       <use xlink:href="#DejaVuSans-30" x="95.410156"/>
       <use xlink:href="#DejaVuSans-35" x="159.033203"/>
      </g>
     </g>
    </g>
    <g id="xtick_3">
     <g id="line2d_3">
      <path d="M 204.428812 294.66 
L 204.428812 12.96 
" clip-path="url(#p623365573c)" style="fill: none; stroke: #ffffff; stroke-linecap: round"/>
     </g>
     <g id="text_3">
      <!-- 0.10 -->
      <g style="fill: #262626" transform="translate(192.182718 312.518281)scale(0.11 -0.11)">
       <defs>
        <path id="DejaVuSans-31" d="M 794 531 
L 1825 531 
L 1825 4091 
L 703 3866 
L 703 4441 
L 1819 4666 
L 2450 4666 
L 2450 531 
L 3481 531 
L 3481 0 
L 794 0 
L 794 531 
z
" transform="scale(0.015625)"/>
       </defs>
       <use xlink:href="#DejaVuSans-30"/>
       <use xlink:href="#DejaVuSans-2e" x="63.623047"/>
       <use xlink:href="#DejaVuSans-31" x="95.410156"/>
       <use xlink:href="#DejaVuSans-30" x="159.033203"/>
      </g>
     </g>
    </g>
    <g id="xtick_4">
     <g id="line2d_4">
      <path d="M 261.068995 294.66 
L 261.068995 12.96 
" clip-path="url(#p623365573c)" style="fill: none; stroke: #ffffff; stroke-linecap: round"/>
     </g>
     <g id="text_4">
      <!-- 0.15 -->
      <g style="fill: #262626" transform="translate(248.822902 312.518281)scale(0.11 -0.11)">
       <use xlink:href="#DejaVuSans-30"/>
       <use xlink:href="#DejaVuSans-2e" x="63.623047"/>
       <use xlink:href="#DejaVuSans-31" x="95.410156"/>
       <use xlink:href="#DejaVuSans-35" x="159.033203"/>
      </g>
     </g>
    </g>
    <g id="xtick_5">
     <g id="line2d_5">
      <path d="M 317.709179 294.66 
L 317.709179 12.96 
" clip-path="url(#p623365573c)" style="fill: none; stroke: #ffffff; stroke-linecap: round"/>
     </g>
     <g id="text_5">
      <!-- 0.20 -->
      <g style="fill: #262626" transform="translate(305.463085 312.518281)scale(0.11 -0.11)">
       <defs>
        <path id="DejaVuSans-32" d="M 1228 531 
L 3431 531 
L 3431 0 
L 469 0 
L 469 531 
Q 828 903 1448 1529 
Q 2069 2156 2228 2338 
Q 2531 2678 2651 2914 
Q 2772 3150 2772 3378 
Q 2772 3750 2511 3984 
Q 2250 4219 1831 4219 
Q 1534 4219 1204 4116 
Q 875 4013 500 3803 
L 500 4441 
Q 881 4594 1212 4672 
Q 1544 4750 1819 4750 
Q 2544 4750 2975 4387 
Q 3406 4025 3406 3419 
Q 3406 3131 3298 2873 
Q 3191 2616 2906 2266 
Q 2828 2175 2409 1742 
Q 1991 1309 1228 531 
z
" transform="scale(0.015625)"/>
       </defs>
       <use xlink:href="#DejaVuSans-30"/>
       <use xlink:href="#DejaVuSans-2e" x="63.623047"/>
       <use xlink:href="#DejaVuSans-32" x="95.410156"/>
       <use xlink:href="#DejaVuSans-30" x="159.033203"/>
      </g>
     </g>
    </g>
    <g id="xtick_6">
     <g id="line2d_6">
      <path d="M 374.349362 294.66 
L 374.349362 12.96 
" clip-path="url(#p623365573c)" style="fill: none; stroke: #ffffff; stroke-linecap: round"/>
     </g>
     <g id="text_6">
      <!-- 0.25 -->
      <g style="fill: #262626" transform="translate(362.103268 312.518281)scale(0.11 -0.11)">
       <use xlink:href="#DejaVuSans-30"/>
       <use xlink:href="#DejaVuSans-2e" x="63.623047"/>
       <use xlink:href="#DejaVuSans-32" x="95.410156"/>
       <use xlink:href="#DejaVuSans-35" x="159.033203"/>
      </g>
     </g>
    </g>
    <g id="xtick_7">
     <g id="line2d_7">
      <path d="M 430.989545 294.66 
L 430.989545 12.96 
" clip-path="url(#p623365573c)" style="fill: none; stroke: #ffffff; stroke-linecap: round"/>
     </g>
     <g id="text_7">
      <!-- 0.30 -->
      <g style="fill: #262626" transform="translate(418.743452 312.518281)scale(0.11 -0.11)">
       <defs>
        <path id="DejaVuSans-33" d="M 2597 2516 
Q 3050 2419 3304 2112 
Q 3559 1806 3559 1356 
Q 3559 666 3084 287 
Q 2609 -91 1734 -91 
Q 1441 -91 1130 -33 
Q 819 25 488 141 
L 488 750 
Q 750 597 1062 519 
Q 1375 441 1716 441 
Q 2309 441 2620 675 
Q 2931 909 2931 1356 
Q 2931 1769 2642 2001 
Q 2353 2234 1838 2234 
L 1294 2234 
L 1294 2753 
L 1863 2753 
Q 2328 2753 2575 2939 
Q 2822 3125 2822 3475 
Q 2822 3834 2567 4026 
Q 2313 4219 1838 4219 
Q 1578 4219 1281 4162 
Q 984 4106 628 3988 
L 628 4550 
Q 988 4650 1302 4700 
Q 1616 4750 1894 4750 
Q 2613 4750 3031 4423 
Q 3450 4097 3450 3541 
Q 3450 3153 3228 2886 
Q 3006 2619 2597 2516 
z
" transform="scale(0.015625)"/>
       </defs>
       <use xlink:href="#DejaVuSans-30"/>
       <use xlink:href="#DejaVuSans-2e" x="63.623047"/>
       <use xlink:href="#DejaVuSans-33" x="95.410156"/>
       <use xlink:href="#DejaVuSans-30" x="159.033203"/>
      </g>
     </g>
    </g>
    <g id="text_8">
     <!-- Zeitschritte (in Millionen) -->
     <g style="fill: #262626" transform="translate(174.570469 329.44375)scale(0.14 -0.14)">
      <defs>
       <path id="DejaVuSans-5a" d="M 359 4666 
L 4025 4666 
L 4025 4184 
L 1075 531 
L 4097 531 
L 4097 0 
L 288 0 
L 288 481 
L 3238 4134 
L 359 4134 
L 359 4666 
z
" transform="scale(0.015625)"/>
       <path id="DejaVuSans-65" d="M 3597 1894 
L 3597 1613 
L 953 1613 
Q 991 1019 1311 708 
Q 1631 397 2203 397 
Q 2534 397 2845 478 
Q 3156 559 3463 722 
L 3463 178 
Q 3153 47 2828 -22 
Q 2503 -91 2169 -91 
Q 1331 -91 842 396 
Q 353 884 353 1716 
Q 353 2575 817 3079 
Q 1281 3584 2069 3584 
Q 2775 3584 3186 3129 
Q 3597 2675 3597 1894 
z
M 3022 2063 
Q 3016 2534 2758 2815 
Q 2500 3097 2075 3097 
Q 1594 3097 1305 2825 
Q 1016 2553 972 2059 
L 3022 2063 
z
" transform="scale(0.015625)"/>
       <path id="DejaVuSans-69" d="M 603 3500 
L 1178 3500 
L 1178 0 
L 603 0 
L 603 3500 
z
M 603 4863 
L 1178 4863 
L 1178 4134 
L 603 4134 
L 603 4863 
z
" transform="scale(0.015625)"/>
       <path id="DejaVuSans-74" d="M 1172 4494 
L 1172 3500 
L 2356 3500 
L 2356 3053 
L 1172 3053 
L 1172 1153 
Q 1172 725 1289 603 
Q 1406 481 1766 481 
L 2356 481 
L 2356 0 
L 1766 0 
Q 1100 0 847 248 
Q 594 497 594 1153 
L 594 3053 
L 172 3053 
L 172 3500 
L 594 3500 
L 594 4494 
L 1172 4494 
z
" transform="scale(0.015625)"/>
       <path id="DejaVuSans-73" d="M 2834 3397 
L 2834 2853 
Q 2591 2978 2328 3040 
Q 2066 3103 1784 3103 
Q 1356 3103 1142 2972 
Q 928 2841 928 2578 
Q 928 2378 1081 2264 
Q 1234 2150 1697 2047 
L 1894 2003 
Q 2506 1872 2764 1633 
Q 3022 1394 3022 966 
Q 3022 478 2636 193 
Q 2250 -91 1575 -91 
Q 1294 -91 989 -36 
Q 684 19 347 128 
L 347 722 
Q 666 556 975 473 
Q 1284 391 1588 391 
Q 1994 391 2212 530 
Q 2431 669 2431 922 
Q 2431 1156 2273 1281 
Q 2116 1406 1581 1522 
L 1381 1569 
Q 847 1681 609 1914 
Q 372 2147 372 2553 
Q 372 3047 722 3315 
Q 1072 3584 1716 3584 
Q 2034 3584 2315 3537 
Q 2597 3491 2834 3397 
z
" transform="scale(0.015625)"/>
       <path id="DejaVuSans-63" d="M 3122 3366 
L 3122 2828 
Q 2878 2963 2633 3030 
Q 2388 3097 2138 3097 
Q 1578 3097 1268 2742 
Q 959 2388 959 1747 
Q 959 1106 1268 751 
Q 1578 397 2138 397 
Q 2388 397 2633 464 
Q 2878 531 3122 666 
L 3122 134 
Q 2881 22 2623 -34 
Q 2366 -91 2075 -91 
Q 1284 -91 818 406 
Q 353 903 353 1747 
Q 353 2603 823 3093 
Q 1294 3584 2113 3584 
Q 2378 3584 2631 3529 
Q 2884 3475 3122 3366 
z
" transform="scale(0.015625)"/>
       <path id="DejaVuSans-68" d="M 3513 2113 
L 3513 0 
L 2938 0 
L 2938 2094 
Q 2938 2591 2744 2837 
Q 2550 3084 2163 3084 
Q 1697 3084 1428 2787 
Q 1159 2491 1159 1978 
L 1159 0 
L 581 0 
L 581 4863 
L 1159 4863 
L 1159 2956 
Q 1366 3272 1645 3428 
Q 1925 3584 2291 3584 
Q 2894 3584 3203 3211 
Q 3513 2838 3513 2113 
z
" transform="scale(0.015625)"/>
       <path id="DejaVuSans-72" d="M 2631 2963 
Q 2534 3019 2420 3045 
Q 2306 3072 2169 3072 
Q 1681 3072 1420 2755 
Q 1159 2438 1159 1844 
L 1159 0 
L 581 0 
L 581 3500 
L 1159 3500 
L 1159 2956 
Q 1341 3275 1631 3429 
Q 1922 3584 2338 3584 
Q 2397 3584 2469 3576 
Q 2541 3569 2628 3553 
L 2631 2963 
z
" transform="scale(0.015625)"/>
       <path id="DejaVuSans-20" transform="scale(0.015625)"/>
       <path id="DejaVuSans-28" d="M 1984 4856 
Q 1566 4138 1362 3434 
Q 1159 2731 1159 2009 
Q 1159 1288 1364 580 
Q 1569 -128 1984 -844 
L 1484 -844 
Q 1016 -109 783 600 
Q 550 1309 550 2009 
Q 550 2706 781 3412 
Q 1013 4119 1484 4856 
L 1984 4856 
z
" transform="scale(0.015625)"/>
       <path id="DejaVuSans-6e" d="M 3513 2113 
L 3513 0 
L 2938 0 
L 2938 2094 
Q 2938 2591 2744 2837 
Q 2550 3084 2163 3084 
Q 1697 3084 1428 2787 
Q 1159 2491 1159 1978 
L 1159 0 
L 581 0 
L 581 3500 
L 1159 3500 
L 1159 2956 
Q 1366 3272 1645 3428 
Q 1925 3584 2291 3584 
Q 2894 3584 3203 3211 
Q 3513 2838 3513 2113 
z
" transform="scale(0.015625)"/>
       <path id="DejaVuSans-4d" d="M 628 4666 
L 1569 4666 
L 2759 1491 
L 3956 4666 
L 4897 4666 
L 4897 0 
L 4281 0 
L 4281 4097 
L 3078 897 
L 2444 897 
L 1241 4097 
L 1241 0 
L 628 0 
L 628 4666 
z
" transform="scale(0.015625)"/>
       <path id="DejaVuSans-6c" d="M 603 4863 
L 1178 4863 
L 1178 0 
L 603 0 
L 603 4863 
z
" transform="scale(0.015625)"/>
       <path id="DejaVuSans-6f" d="M 1959 3097 
Q 1497 3097 1228 2736 
Q 959 2375 959 1747 
Q 959 1119 1226 758 
Q 1494 397 1959 397 
Q 2419 397 2687 759 
Q 2956 1122 2956 1747 
Q 2956 2369 2687 2733 
Q 2419 3097 1959 3097 
z
M 1959 3584 
Q 2709 3584 3137 3096 
Q 3566 2609 3566 1747 
Q 3566 888 3137 398 
Q 2709 -91 1959 -91 
Q 1206 -91 779 398 
Q 353 888 353 1747 
Q 353 2609 779 3096 
Q 1206 3584 1959 3584 
z
" transform="scale(0.015625)"/>
       <path id="DejaVuSans-29" d="M 513 4856 
L 1013 4856 
Q 1481 4119 1714 3412 
Q 1947 2706 1947 2009 
Q 1947 1309 1714 600 
Q 1481 -109 1013 -844 
L 513 -844 
Q 928 -128 1133 580 
Q 1338 1288 1338 2009 
Q 1338 2731 1133 3434 
Q 928 4138 513 4856 
z
" transform="scale(0.015625)"/>
      </defs>
      <use xlink:href="#DejaVuSans-5a"/>
      <use xlink:href="#DejaVuSans-65" x="68.505859"/>
      <use xlink:href="#DejaVuSans-69" x="130.029297"/>
      <use xlink:href="#DejaVuSans-74" x="157.8125"/>
      <use xlink:href="#DejaVuSans-73" x="197.021484"/>
      <use xlink:href="#DejaVuSans-63" x="249.121094"/>
      <use xlink:href="#DejaVuSans-68" x="304.101562"/>
      <use xlink:href="#DejaVuSans-72" x="367.480469"/>
      <use xlink:href="#DejaVuSans-69" x="408.59375"/>
      <use xlink:href="#DejaVuSans-74" x="436.376953"/>
      <use xlink:href="#DejaVuSans-74" x="475.585938"/>
      <use xlink:href="#DejaVuSans-65" x="514.794922"/>
      <use xlink:href="#DejaVuSans-20" x="576.318359"/>
      <use xlink:href="#DejaVuSans-28" x="608.105469"/>
      <use xlink:href="#DejaVuSans-69" x="647.119141"/>
      <use xlink:href="#DejaVuSans-6e" x="674.902344"/>
      <use xlink:href="#DejaVuSans-20" x="738.28125"/>
      <use xlink:href="#DejaVuSans-4d" x="770.068359"/>
      <use xlink:href="#DejaVuSans-69" x="856.347656"/>
      <use xlink:href="#DejaVuSans-6c" x="884.130859"/>
      <use xlink:href="#DejaVuSans-6c" x="911.914062"/>
      <use xlink:href="#DejaVuSans-69" x="939.697266"/>
      <use xlink:href="#DejaVuSans-6f" x="967.480469"/>
      <use xlink:href="#DejaVuSans-6e" x="1028.662109"/>
      <use xlink:href="#DejaVuSans-65" x="1092.041016"/>
      <use xlink:href="#DejaVuSans-6e" x="1153.564453"/>
      <use xlink:href="#DejaVuSans-29" x="1216.943359"/>
     </g>
    </g>
   </g>
   <g id="matplotlib.axis_2">
    <g id="ytick_1">
     <g id="line2d_8">
      <path d="M 77.13 264.347723 
L 447.84 264.347723 
" clip-path="url(#p623365573c)" style="fill: none; stroke: #ffffff; stroke-linecap: round"/>
     </g>
     <g id="text_9">
      <!-- −3000 -->
      <g style="fill: #262626" transform="translate(30.417344 268.526864)scale(0.11 -0.11)">
       <defs>
        <path id="DejaVuSans-2212" d="M 678 2272 
L 4684 2272 
L 4684 1741 
L 678 1741 
L 678 2272 
z
" transform="scale(0.015625)"/>
       </defs>
       <use xlink:href="#DejaVuSans-2212"/>
       <use xlink:href="#DejaVuSans-33" x="83.789062"/>
       <use xlink:href="#DejaVuSans-30" x="147.412109"/>
       <use xlink:href="#DejaVuSans-30" x="211.035156"/>
       <use xlink:href="#DejaVuSans-30" x="274.658203"/>
      </g>
     </g>
    </g>
    <g id="ytick_2">
     <g id="line2d_9">
      <path d="M 77.13 229.783925 
L 447.84 229.783925 
" clip-path="url(#p623365573c)" style="fill: none; stroke: #ffffff; stroke-linecap: round"/>
     </g>
     <g id="text_10">
      <!-- −2500 -->
      <g style="fill: #262626" transform="translate(30.417344 233.963065)scale(0.11 -0.11)">
       <use xlink:href="#DejaVuSans-2212"/>
       <use xlink:href="#DejaVuSans-32" x="83.789062"/>
       <use xlink:href="#DejaVuSans-35" x="147.412109"/>
       <use xlink:href="#DejaVuSans-30" x="211.035156"/>
       <use xlink:href="#DejaVuSans-30" x="274.658203"/>
      </g>
     </g>
    </g>
    <g id="ytick_3">
     <g id="line2d_10">
      <path d="M 77.13 195.220126 
L 447.84 195.220126 
" clip-path="url(#p623365573c)" style="fill: none; stroke: #ffffff; stroke-linecap: round"/>
     </g>
     <g id="text_11">
      <!-- −2000 -->
      <g style="fill: #262626" transform="translate(30.417344 199.399267)scale(0.11 -0.11)">
       <use xlink:href="#DejaVuSans-2212"/>
       <use xlink:href="#DejaVuSans-32" x="83.789062"/>
       <use xlink:href="#DejaVuSans-30" x="147.412109"/>
       <use xlink:href="#DejaVuSans-30" x="211.035156"/>
       <use xlink:href="#DejaVuSans-30" x="274.658203"/>
      </g>
     </g>
    </g>
    <g id="ytick_4">
     <g id="line2d_11">
      <path d="M 77.13 160.656328 
L 447.84 160.656328 
" clip-path="url(#p623365573c)" style="fill: none; stroke: #ffffff; stroke-linecap: round"/>
     </g>
     <g id="text_12">
      <!-- −1500 -->
      <g style="fill: #262626" transform="translate(30.417344 164.835468)scale(0.11 -0.11)">
       <use xlink:href="#DejaVuSans-2212"/>
       <use xlink:href="#DejaVuSans-31" x="83.789062"/>
       <use xlink:href="#DejaVuSans-35" x="147.412109"/>
       <use xlink:href="#DejaVuSans-30" x="211.035156"/>
       <use xlink:href="#DejaVuSans-30" x="274.658203"/>
      </g>
     </g>
    </g>
    <g id="ytick_5">
     <g id="line2d_12">
      <path d="M 77.13 126.092529 
L 447.84 126.092529 
" clip-path="url(#p623365573c)" style="fill: none; stroke: #ffffff; stroke-linecap: round"/>
     </g>
     <g id="text_13">
      <!-- −1000 -->
      <g style="fill: #262626" transform="translate(30.417344 130.27167)scale(0.11 -0.11)">
       <use xlink:href="#DejaVuSans-2212"/>
       <use xlink:href="#DejaVuSans-31" x="83.789062"/>
       <use xlink:href="#DejaVuSans-30" x="147.412109"/>
       <use xlink:href="#DejaVuSans-30" x="211.035156"/>
       <use xlink:href="#DejaVuSans-30" x="274.658203"/>
      </g>
     </g>
    </g>
    <g id="ytick_6">
     <g id="line2d_13">
      <path d="M 77.13 91.528731 
L 447.84 91.528731 
" clip-path="url(#p623365573c)" style="fill: none; stroke: #ffffff; stroke-linecap: round"/>
     </g>
     <g id="text_14">
      <!-- −500 -->
      <g style="fill: #262626" transform="translate(37.416094 95.707871)scale(0.11 -0.11)">
       <use xlink:href="#DejaVuSans-2212"/>
       <use xlink:href="#DejaVuSans-35" x="83.789062"/>
       <use xlink:href="#DejaVuSans-30" x="147.412109"/>
       <use xlink:href="#DejaVuSans-30" x="211.035156"/>
      </g>
     </g>
    </g>
    <g id="ytick_7">
     <g id="line2d_14">
      <path d="M 77.13 56.964932 
L 447.84 56.964932 
" clip-path="url(#p623365573c)" style="fill: none; stroke: #ffffff; stroke-linecap: round"/>
     </g>
     <g id="text_15">
      <!-- 0 -->
      <g style="fill: #262626" transform="translate(60.63125 61.144073)scale(0.11 -0.11)">
       <use xlink:href="#DejaVuSans-30"/>
      </g>
     </g>
    </g>
    <g id="ytick_8">
     <g id="line2d_15">
      <path d="M 77.13 22.401134 
L 447.84 22.401134 
" clip-path="url(#p623365573c)" style="fill: none; stroke: #ffffff; stroke-linecap: round"/>
     </g>
     <g id="text_16">
      <!-- 500 -->
      <g style="fill: #262626" transform="translate(46.63375 26.580274)scale(0.11 -0.11)">
       <use xlink:href="#DejaVuSans-35"/>
       <use xlink:href="#DejaVuSans-30" x="63.623047"/>
       <use xlink:href="#DejaVuSans-30" x="127.246094"/>
      </g>
     </g>
    </g>
    <g id="text_17">
     <!-- Belohnung -->
     <g style="fill: #262626" transform="translate(23.505781 191.336563)rotate(-90)scale(0.14 -0.14)">
      <defs>
       <path id="DejaVuSans-42" d="M 1259 2228 
L 1259 519 
L 2272 519 
Q 2781 519 3026 730 
Q 3272 941 3272 1375 
Q 3272 1813 3026 2020 
Q 2781 2228 2272 2228 
L 1259 2228 
z
M 1259 4147 
L 1259 2741 
L 2194 2741 
Q 2656 2741 2882 2914 
Q 3109 3088 3109 3444 
Q 3109 3797 2882 3972 
Q 2656 4147 2194 4147 
L 1259 4147 
z
M 628 4666 
L 2241 4666 
Q 2963 4666 3353 4366 
Q 3744 4066 3744 3513 
Q 3744 3084 3544 2831 
Q 3344 2578 2956 2516 
Q 3422 2416 3680 2098 
Q 3938 1781 3938 1306 
Q 3938 681 3513 340 
Q 3088 0 2303 0 
L 628 0 
L 628 4666 
z
" transform="scale(0.015625)"/>
       <path id="DejaVuSans-75" d="M 544 1381 
L 544 3500 
L 1119 3500 
L 1119 1403 
Q 1119 906 1312 657 
Q 1506 409 1894 409 
Q 2359 409 2629 706 
Q 2900 1003 2900 1516 
L 2900 3500 
L 3475 3500 
L 3475 0 
L 2900 0 
L 2900 538 
Q 2691 219 2414 64 
Q 2138 -91 1772 -91 
Q 1169 -91 856 284 
Q 544 659 544 1381 
z
M 1991 3584 
L 1991 3584 
z
" transform="scale(0.015625)"/>
       <path id="DejaVuSans-67" d="M 2906 1791 
Q 2906 2416 2648 2759 
Q 2391 3103 1925 3103 
Q 1463 3103 1205 2759 
Q 947 2416 947 1791 
Q 947 1169 1205 825 
Q 1463 481 1925 481 
Q 2391 481 2648 825 
Q 2906 1169 2906 1791 
z
M 3481 434 
Q 3481 -459 3084 -895 
Q 2688 -1331 1869 -1331 
Q 1566 -1331 1297 -1286 
Q 1028 -1241 775 -1147 
L 775 -588 
Q 1028 -725 1275 -790 
Q 1522 -856 1778 -856 
Q 2344 -856 2625 -561 
Q 2906 -266 2906 331 
L 2906 616 
Q 2728 306 2450 153 
Q 2172 0 1784 0 
Q 1141 0 747 490 
Q 353 981 353 1791 
Q 353 2603 747 3093 
Q 1141 3584 1784 3584 
Q 2172 3584 2450 3431 
Q 2728 3278 2906 2969 
L 2906 3500 
L 3481 3500 
L 3481 434 
z
" transform="scale(0.015625)"/>
      </defs>
      <use xlink:href="#DejaVuSans-42"/>
      <use xlink:href="#DejaVuSans-65" x="68.603516"/>
      <use xlink:href="#DejaVuSans-6c" x="130.126953"/>
      <use xlink:href="#DejaVuSans-6f" x="157.910156"/>
      <use xlink:href="#DejaVuSans-68" x="219.091797"/>
      <use xlink:href="#DejaVuSans-6e" x="282.470703"/>
      <use xlink:href="#DejaVuSans-75" x="345.849609"/>
      <use xlink:href="#DejaVuSans-6e" x="409.228516"/>
      <use xlink:href="#DejaVuSans-67" x="472.607422"/>
     </g>
    </g>
   </g>
   <g id="PolyCollection_1">
    <defs>
     <path id="m80970cb144" d="M 93.980455 -93.410032 
L 93.980455 -319.835455 
L 96.812464 -311.084505 
L 99.644473 -308.35989 
L 102.476482 -309.209401 
L 105.308491 -308.770167 
L 108.1405 -311.072532 
L 110.97251 -307.259868 
L 113.804519 -307.859132 
L 116.636528 -307.909409 
L 119.468537 -307.614451 
L 122.300546 -307.675713 
L 125.132555 -307.675351 
L 127.964565 -307.527425 
L 130.796574 -307.42724 
L 133.628583 -307.447257 
L 136.460592 -307.536884 
L 139.292601 -307.559473 
L 142.12461 -307.293232 
L 144.95662 -307.127775 
L 147.788629 -307.695583 
L 150.620638 -307.408239 
L 153.452647 -307.341256 
L 156.284656 -307.386541 
L 159.116665 -307.710412 
L 161.948675 -307.671611 
L 164.780684 -307.274721 
L 167.612693 -307.355825 
L 170.444702 -307.79001 
L 173.276711 -307.272198 
L 176.10872 -307.319265 
L 178.94073 -307.413756 
L 181.772739 -307.573793 
L 184.604748 -307.602671 
L 187.436757 -307.0467 
L 190.268766 -307.184901 
L 193.100775 -307.162391 
L 195.932785 -307.355564 
L 198.764794 -307.387092 
L 201.596803 -307.801338 
L 204.428812 -306.922071 
L 207.260821 -307.869838 
L 210.09283 -307.7003 
L 212.92484 -307.404114 
L 215.756849 -307.432223 
L 218.588858 -308.200981 
L 221.420867 -308.09738 
L 224.252876 -307.308765 
L 227.084885 -307.82285 
L 229.916895 -306.733918 
L 232.748904 -308.42454 
L 235.580913 -307.606699 
L 238.412922 -308.197508 
L 241.244931 -307.516389 
L 244.07694 -307.57475 
L 246.90895 -307.500718 
L 249.740959 -307.613452 
L 252.572968 -307.413504 
L 255.404977 -307.466613 
L 258.236986 -307.310078 
L 261.068995 -308.058634 
L 263.901005 -307.415059 
L 266.733014 -307.262786 
L 269.565023 -307.557504 
L 272.397032 -307.771185 
L 275.229041 -307.695087 
L 278.06105 -308.419627 
L 280.89306 -308.132421 
L 283.725069 -307.323857 
L 286.557078 -307.088746 
L 289.389087 -307.043515 
L 292.221096 -307.271909 
L 295.053105 -307.370069 
L 297.885115 -307.198117 
L 300.717124 -307.127359 
L 303.549133 -307.008879 
L 306.381142 -307.647914 
L 309.213151 -307.344098 
L 312.04516 -307.300727 
L 314.87717 -308.797597 
L 317.709179 -307.306465 
L 320.541188 -307.277239 
L 323.373197 -306.077041 
L 326.205206 -307.729251 
L 329.037215 -309.174065 
L 331.869225 -307.404111 
L 334.701234 -306.821186 
L 337.533243 -307.384127 
L 340.365252 -307.313671 
L 343.197261 -307.297866 
L 346.02927 -308.025177 
L 348.86128 -306.782341 
L 351.693289 -307.317124 
L 354.525298 -306.59327 
L 357.357307 -310.817411 
L 360.189316 -310.189045 
L 363.021325 -307.261512 
L 365.853335 -305.34064 
L 368.685344 -306.775069 
L 371.517353 -306.780766 
L 374.349362 -307.094327 
L 377.181371 -309.43522 
L 380.01338 -307.207576 
L 382.84539 -307.344573 
L 385.677399 -307.636195 
L 388.509408 -306.786211 
L 391.341417 -306.982283 
L 394.173426 -307.440206 
L 397.005435 -307.260649 
L 399.837445 -304.775821 
L 402.669454 -307.159394 
L 405.501463 -307.149104 
L 408.333472 -307.993622 
L 411.165481 -307.602598 
L 413.99749 -307.71625 
L 416.8295 -306.943166 
L 419.661509 -306.699251 
L 422.493518 -310.252285 
L 425.325527 -306.851378 
L 428.157536 -306.370326 
L 430.989545 -309.286797 
L 430.989545 -160.519854 
L 430.989545 -160.519854 
L 428.157536 -275.879453 
L 425.325527 -240.369583 
L 422.493518 -141.970772 
L 419.661509 -155.746038 
L 416.8295 -170.604412 
L 413.99749 -305.872118 
L 411.165481 -150.02238 
L 408.333472 -224.573572 
L 405.501463 -227.396232 
L 402.669454 -219.561752 
L 399.837445 -139.233708 
L 397.005435 -269.560835 
L 394.173426 -267.498584 
L 391.341417 -142.303057 
L 388.509408 -134.217308 
L 385.677399 -242.573166 
L 382.84539 -306.426941 
L 380.01338 -148.618821 
L 377.181371 -219.264036 
L 374.349362 -150.586017 
L 371.517353 -167.533783 
L 368.685344 -225.669268 
L 365.853335 -213.481229 
L 363.021325 -262.720848 
L 360.189316 -276.181774 
L 357.357307 -285.632718 
L 354.525298 -168.433748 
L 351.693289 -119.300738 
L 348.86128 -163.716665 
L 346.02927 -300.088012 
L 343.197261 -185.611148 
L 340.365252 -297.079208 
L 337.533243 -226.332217 
L 334.701234 -184.652047 
L 331.869225 -258.25271 
L 329.037215 -164.062782 
L 326.205206 -270.909833 
L 323.373197 -149.223586 
L 320.541188 -173.642148 
L 317.709179 -268.034551 
L 314.87717 -153.307918 
L 312.04516 -156.933654 
L 309.213151 -189.439778 
L 306.381142 -63.744545 
L 303.549133 -286.663 
L 300.717124 -273.857261 
L 297.885115 -129.682967 
L 295.053105 -208.994873 
L 292.221096 -232.613839 
L 289.389087 -305.647963 
L 286.557078 -279.050331 
L 283.725069 -306.172933 
L 280.89306 -304.848529 
L 278.06105 -165.577605 
L 275.229041 -242.664171 
L 272.397032 -305.414536 
L 269.565023 -153.366634 
L 266.733014 -196.594604 
L 263.901005 -217.214626 
L 261.068995 -306.069963 
L 258.236986 -175.549131 
L 255.404977 -156.348003 
L 252.572968 -248.690355 
L 249.740959 -243.107612 
L 246.90895 -151.942628 
L 244.07694 -139.000486 
L 241.244931 -150.421512 
L 238.412922 -286.186246 
L 235.580913 -169.851452 
L 232.748904 -163.950372 
L 229.916895 -191.487684 
L 227.084885 -282.509199 
L 224.252876 -221.331611 
L 221.420867 -289.705162 
L 218.588858 -266.318578 
L 215.756849 -306.663755 
L 212.92484 -166.626624 
L 210.09283 -230.870469 
L 207.260821 -285.695165 
L 204.428812 -290.917571 
L 201.596803 -139.614899 
L 198.764794 -222.873841 
L 195.932785 -236.586975 
L 193.100775 -303.053951 
L 190.268766 -141.174563 
L 187.436757 -224.990265 
L 184.604748 -291.8963 
L 181.772739 -168.423823 
L 178.94073 -306.563868 
L 176.10872 -307.201154 
L 173.276711 -282.395139 
L 170.444702 -136.52925 
L 167.612693 -138.616378 
L 164.780684 -306.353682 
L 161.948675 -134.488517 
L 159.116665 -133.733273 
L 156.284656 -151.992225 
L 153.452647 -142.845581 
L 150.620638 -175.94897 
L 147.788629 -306.519991 
L 144.95662 -249.952884 
L 142.12461 -306.636558 
L 139.292601 -299.629115 
L 136.460592 -217.531804 
L 133.628583 -244.557459 
L 130.796574 -244.826991 
L 127.964565 -306.545458 
L 125.132555 -153.329542 
L 122.300546 -204.750806 
L 119.468537 -302.418668 
L 116.636528 -304.566387 
L 113.804519 -142.177112 
L 110.97251 -306.182794 
L 108.1405 -206.500023 
L 105.308491 -271.968559 
L 102.476482 -304.002802 
L 99.644473 -299.057302 
L 96.812464 -303.124321 
L 93.980455 -93.410032 
z
" style="stroke: #ffffff; stroke-opacity: 0.5"/>
    </defs>
    <g clip-path="url(#p623365573c)">
     <use xlink:href="#m80970cb144" x="0" y="345.6" style="fill: #4c72b0; fill-opacity: 0.5; stroke: #ffffff; stroke-opacity: 0.5"/>
    </g>
   </g>
   <g id="line2d_16">
    <path d="M 93.980455 82.994064 
L 96.812464 38.875765 
L 99.644473 40.280642 
L 102.476482 38.725952 
L 105.308491 45.476398 
L 108.1405 77.185611 
L 110.97251 38.717906 
L 113.804519 71.790816 
L 116.636528 38.717175 
L 119.468537 39.632135 
L 122.300546 58.85421 
L 125.132555 69.365557 
L 127.964565 38.563446 
L 130.796574 55.164165 
L 133.628583 51.394451 
L 136.460592 57.099987 
L 139.292601 40.033615 
L 142.12461 38.621611 
L 144.95662 52.809035 
L 147.788629 38.560219 
L 150.620638 64.749101 
L 153.452647 87.633737 
L 156.284656 99.689978 
L 159.116665 73.032431 
L 161.948675 83.92365 
L 164.780684 38.803896 
L 167.612693 72.247863 
L 170.444702 100.202715 
L 173.276711 43.48567 
L 176.10872 38.338664 
L 178.94073 38.741646 
L 181.772739 66.236443 
L 184.604748 41.498802 
L 187.436757 58.988459 
L 190.268766 72.178623 
L 193.100775 39.53197 
L 195.932785 52.984493 
L 198.764794 74.532102 
L 201.596803 71.758503 
L 204.428812 43.516942 
L 207.260821 42.755518 
L 210.09283 65.082431 
L 212.92484 66.621298 
L 215.756849 38.542745 
L 218.588858 54.474705 
L 221.420867 41.713158 
L 224.252876 62.243926 
L 227.084885 43.273261 
L 229.916895 62.184372 
L 232.748904 84.733388 
L 235.580913 100.555537 
L 238.412922 42.44784 
L 241.244931 99.922194 
L 244.07694 81.544754 
L 246.90895 91.951015 
L 249.740959 51.168453 
L 252.572968 54.132974 
L 255.404977 90.855174 
L 258.236986 64.796351 
L 261.068995 38.3597 
L 263.901005 56.674312 
L 266.733014 60.700911 
L 269.565023 97.522447 
L 272.397032 38.702097 
L 275.229041 51.313467 
L 278.06105 66.326232 
L 280.89306 39.065318 
L 283.725069 38.690451 
L 286.557078 53.040075 
L 289.389087 39.127308 
L 292.221096 65.4866 
L 295.053105 58.292229 
L 297.885115 94.417023 
L 300.717124 45.636566 
L 303.549133 42.708026 
L 306.381142 111.10193 
L 309.213151 63.90393 
L 312.04516 75.856556 
L 314.87717 84.387946 
L 317.709179 46.354135 
L 320.541188 65.627031 
L 323.373197 96.846379 
L 326.205206 46.564976 
L 329.037215 66.956317 
L 331.869225 50.954545 
L 334.701234 63.322576 
L 337.533243 54.574268 
L 340.365252 40.640627 
L 343.197261 65.84305 
L 346.02927 39.590589 
L 348.86128 98.700261 
L 351.693289 122.312012 
L 354.525298 100.541927 
L 357.357307 44.916469 
L 360.189316 44.61654 
L 363.021325 47.676835 
L 365.853335 84.522411 
L 368.685344 77.351498 
L 371.517353 74.854785 
L 374.349362 104.870075 
L 377.181371 55.975628 
L 380.01338 76.253137 
L 382.84539 38.758237 
L 385.677399 60.311264 
L 388.509408 95.390397 
L 391.341417 104.397454 
L 394.173426 47.746999 
L 397.005435 46.650231 
L 399.837445 107.685644 
L 402.669454 73.247254 
L 405.501463 54.827667 
L 408.333472 71.516957 
L 411.165481 95.930335 
L 413.99749 38.661189 
L 416.8295 89.675114 
L 419.661509 76.424175 
L 422.493518 74.693364 
L 425.325527 56.030629 
L 428.157536 53.161659 
L 430.989545 67.803047 
" clip-path="url(#p623365573c)" style="fill: none; stroke: #4c72b0; stroke-width: 3; stroke-linecap: round"/>
   </g>
   <g id="patch_3">
    <path d="M 77.13 294.66 
L 77.13 12.96 
" style="fill: none; stroke: #ffffff; stroke-width: 1.25; stroke-linejoin: miter; stroke-linecap: square"/>
   </g>
   <g id="patch_4">
    <path d="M 447.84 294.66 
L 447.84 12.96 
" style="fill: none; stroke: #ffffff; stroke-width: 1.25; stroke-linejoin: miter; stroke-linecap: square"/>
   </g>
   <g id="patch_5">
    <path d="M 77.13 294.66 
L 447.84 294.66 
" style="fill: none; stroke: #ffffff; stroke-width: 1.25; stroke-linejoin: miter; stroke-linecap: square"/>
   </g>
   <g id="patch_6">
    <path d="M 77.13 12.96 
L 447.84 12.96 
" style="fill: none; stroke: #ffffff; stroke-width: 1.25; stroke-linejoin: miter; stroke-linecap: square"/>
   </g>
   <g id="legend_1">
    <g id="patch_7">
     <path d="M 327.470781 37.905937 
L 440.14 37.905937 
Q 442.34 37.905937 442.34 35.705938 
L 442.34 20.66 
Q 442.34 18.46 440.14 18.46 
L 327.470781 18.46 
Q 325.270781 18.46 325.270781 20.66 
L 325.270781 35.705938 
Q 325.270781 37.905937 327.470781 37.905937 
z
" style="fill: #eaeaf2; opacity: 0.8; stroke: #cccccc; stroke-linejoin: miter"/>
    </g>
    <g id="line2d_17">
     <path d="M 329.670781 27.368281 
L 340.670781 27.368281 
L 351.670781 27.368281 
" style="fill: none; stroke: #4c72b0; stroke-width: 3; stroke-linecap: round"/>
    </g>
    <g id="text_18">
     <!-- DATS-DELAY-1 -->
     <g style="fill: #262626" transform="translate(360.470781 31.218281)scale(0.11 -0.11)">
      <defs>
       <path id="DejaVuSans-44" d="M 1259 4147 
L 1259 519 
L 2022 519 
Q 2988 519 3436 956 
Q 3884 1394 3884 2338 
Q 3884 3275 3436 3711 
Q 2988 4147 2022 4147 
L 1259 4147 
z
M 628 4666 
L 1925 4666 
Q 3281 4666 3915 4102 
Q 4550 3538 4550 2338 
Q 4550 1131 3912 565 
Q 3275 0 1925 0 
L 628 0 
L 628 4666 
z
" transform="scale(0.015625)"/>
       <path id="DejaVuSans-41" d="M 2188 4044 
L 1331 1722 
L 3047 1722 
L 2188 4044 
z
M 1831 4666 
L 2547 4666 
L 4325 0 
L 3669 0 
L 3244 1197 
L 1141 1197 
L 716 0 
L 50 0 
L 1831 4666 
z
" transform="scale(0.015625)"/>
       <path id="DejaVuSans-54" d="M -19 4666 
L 3928 4666 
L 3928 4134 
L 2272 4134 
L 2272 0 
L 1638 0 
L 1638 4134 
L -19 4134 
L -19 4666 
z
" transform="scale(0.015625)"/>
       <path id="DejaVuSans-53" d="M 3425 4513 
L 3425 3897 
Q 3066 4069 2747 4153 
Q 2428 4238 2131 4238 
Q 1616 4238 1336 4038 
Q 1056 3838 1056 3469 
Q 1056 3159 1242 3001 
Q 1428 2844 1947 2747 
L 2328 2669 
Q 3034 2534 3370 2195 
Q 3706 1856 3706 1288 
Q 3706 609 3251 259 
Q 2797 -91 1919 -91 
Q 1588 -91 1214 -16 
Q 841 59 441 206 
L 441 856 
Q 825 641 1194 531 
Q 1563 422 1919 422 
Q 2459 422 2753 634 
Q 3047 847 3047 1241 
Q 3047 1584 2836 1778 
Q 2625 1972 2144 2069 
L 1759 2144 
Q 1053 2284 737 2584 
Q 422 2884 422 3419 
Q 422 4038 858 4394 
Q 1294 4750 2059 4750 
Q 2388 4750 2728 4690 
Q 3069 4631 3425 4513 
z
" transform="scale(0.015625)"/>
       <path id="DejaVuSans-2d" d="M 313 2009 
L 1997 2009 
L 1997 1497 
L 313 1497 
L 313 2009 
z
" transform="scale(0.015625)"/>
       <path id="DejaVuSans-45" d="M 628 4666 
L 3578 4666 
L 3578 4134 
L 1259 4134 
L 1259 2753 
L 3481 2753 
L 3481 2222 
L 1259 2222 
L 1259 531 
L 3634 531 
L 3634 0 
L 628 0 
L 628 4666 
z
" transform="scale(0.015625)"/>
       <path id="DejaVuSans-4c" d="M 628 4666 
L 1259 4666 
L 1259 531 
L 3531 531 
L 3531 0 
L 628 0 
L 628 4666 
z
" transform="scale(0.015625)"/>
       <path id="DejaVuSans-59" d="M -13 4666 
L 666 4666 
L 1959 2747 
L 3244 4666 
L 3922 4666 
L 2272 2222 
L 2272 0 
L 1638 0 
L 1638 2222 
L -13 4666 
z
" transform="scale(0.015625)"/>
      </defs>
      <use xlink:href="#DejaVuSans-44"/>
      <use xlink:href="#DejaVuSans-41" x="75.251953"/>
      <use xlink:href="#DejaVuSans-54" x="135.910156"/>
      <use xlink:href="#DejaVuSans-53" x="196.994141"/>
      <use xlink:href="#DejaVuSans-2d" x="260.470703"/>
      <use xlink:href="#DejaVuSans-44" x="296.554688"/>
      <use xlink:href="#DejaVuSans-45" x="373.556641"/>
      <use xlink:href="#DejaVuSans-4c" x="436.740234"/>
      <use xlink:href="#DejaVuSans-41" x="494.703125"/>
      <use xlink:href="#DejaVuSans-59" x="555.361328"/>
      <use xlink:href="#DejaVuSans-2d" x="604.570312"/>
      <use xlink:href="#DejaVuSans-31" x="640.654297"/>
     </g>
    </g>
   </g>
  </g>
 </g>
 <defs>
  <clipPath id="p623365573c">
   <rect x="77.13" y="12.96" width="370.71" height="281.7"/>
  </clipPath>
 </defs>
</svg>
