<?xml version="1.0" encoding="utf-8" standalone="no"?>
<!DOCTYPE svg PUBLIC "-//W3C//DTD SVG 1.1//EN"
  "http://www.w3.org/Graphics/SVG/1.1/DTD/svg11.dtd">
<svg xmlns:xlink="http://www.w3.org/1999/xlink" width="460.8pt" height="345.6pt" viewBox="0 0 460.8 345.6" xmlns="http://www.w3.org/2000/svg" version="1.1">
 <metadata>
  <rdf:RDF xmlns:dc="http://purl.org/dc/elements/1.1/" xmlns:cc="http://creativecommons.org/ns#" xmlns:rdf="http://www.w3.org/1999/02/22-rdf-syntax-ns#">
   <cc:Work>
    <dc:type rdf:resource="http://purl.org/dc/dcmitype/StillImage"/>
    <dc:date>2022-09-12T15:16:10.744028</dc:date>
    <dc:format>image/svg+xml</dc:format>
    <dc:creator>
     <cc:Agent>
      <dc:title>Matplotlib v3.5.3, https://matplotlib.org/</dc:title>
     </cc:Agent>
    </dc:creator>
   </cc:Work>
  </rdf:RDF>
 </metadata>
 <defs>
  <style type="text/css">*{stroke-linejoin: round; stroke-linecap: butt}</style>
 </defs>
 <g id="figure_1">
  <g id="patch_1">
   <path d="M 0 345.6 
L 460.8 345.6 
L 460.8 0 
L 0 0 
z
" style="fill: #ffffff"/>
  </g>
  <g id="axes_1">
   <g id="patch_2">
    <path d="M 77.13 294.66 
L 447.84 294.66 
L 447.84 12.96 
L 77.13 12.96 
z
" style="fill: #eaeaf2"/>
   </g>
   <g id="matplotlib.axis_1">
    <g id="xtick_1">
     <g id="line2d_1">
      <path d="M 91.148445 294.66 
L 91.148445 12.96 
" clip-path="url(#p5637df0af4)" style="fill: none; stroke: #ffffff; stroke-linecap: round"/>
     </g>
     <g id="text_1">
      <!-- 0.00 -->
      <g style="fill: #262626" transform="translate(78.902352 312.518281)scale(0.11 -0.11)">
       <defs>
        <path id="DejaVuSans-30" d="M 2034 4250 
Q 1547 4250 1301 3770 
Q 1056 3291 1056 2328 
Q 1056 1369 1301 889 
Q 1547 409 2034 409 
Q 2525 409 2770 889 
Q 3016 1369 3016 2328 
Q 3016 3291 2770 3770 
Q 2525 4250 2034 4250 
z
M 2034 4750 
Q 2819 4750 3233 4129 
Q 3647 3509 3647 2328 
Q 3647 1150 3233 529 
Q 2819 -91 2034 -91 
Q 1250 -91 836 529 
Q 422 1150 422 2328 
Q 422 3509 836 4129 
Q 1250 4750 2034 4750 
z
" transform="scale(0.015625)"/>
        <path id="DejaVuSans-2e" d="M 684 794 
L 1344 794 
L 1344 0 
L 684 0 
L 684 794 
z
" transform="scale(0.015625)"/>
       </defs>
       <use xlink:href="#DejaVuSans-30"/>
       <use xlink:href="#DejaVuSans-2e" x="63.623047"/>
       <use xlink:href="#DejaVuSans-30" x="95.410156"/>
       <use xlink:href="#DejaVuSans-30" x="159.033203"/>
      </g>
     </g>
    </g>
    <g id="xtick_2">
     <g id="line2d_2">
      <path d="M 147.788629 294.66 
L 147.788629 12.96 
" clip-path="url(#p5637df0af4)" style="fill: none; stroke: #ffffff; stroke-linecap: round"/>
     </g>
     <g id="text_2">
      <!-- 0.05 -->
      <g style="fill: #262626" transform="translate(135.542535 312.518281)scale(0.11 -0.11)">
       <defs>
        <path id="DejaVuSans-35" d="M 691 4666 
L 3169 4666 
L 3169 4134 
L 1269 4134 
L 1269 2991 
Q 1406 3038 1543 3061 
Q 1681 3084 1819 3084 
Q 2600 3084 3056 2656 
Q 3513 2228 3513 1497 
Q 3513 744 3044 326 
Q 2575 -91 1722 -91 
Q 1428 -91 1123 -41 
Q 819 9 494 109 
L 494 744 
Q 775 591 1075 516 
Q 1375 441 1709 441 
Q 2250 441 2565 725 
Q 2881 1009 2881 1497 
Q 2881 1984 2565 2268 
Q 2250 2553 1709 2553 
Q 1456 2553 1204 2497 
Q 953 2441 691 2322 
L 691 4666 
z
" transform="scale(0.015625)"/>
       </defs>
       <use xlink:href="#DejaVuSans-30"/>
       <use xlink:href="#DejaVuSans-2e" x="63.623047"/>
       <use xlink:href="#DejaVuSans-30" x="95.410156"/>
       <use xlink:href="#DejaVuSans-35" x="159.033203"/>
      </g>
     </g>
    </g>
    <g id="xtick_3">
     <g id="line2d_3">
      <path d="M 204.428812 294.66 
L 204.428812 12.96 
" clip-path="url(#p5637df0af4)" style="fill: none; stroke: #ffffff; stroke-linecap: round"/>
     </g>
     <g id="text_3">
      <!-- 0.10 -->
      <g style="fill: #262626" transform="translate(192.182718 312.518281)scale(0.11 -0.11)">
       <defs>
        <path id="DejaVuSans-31" d="M 794 531 
L 1825 531 
L 1825 4091 
L 703 3866 
L 703 4441 
L 1819 4666 
L 2450 4666 
L 2450 531 
L 3481 531 
L 3481 0 
L 794 0 
L 794 531 
z
" transform="scale(0.015625)"/>
       </defs>
       <use xlink:href="#DejaVuSans-30"/>
       <use xlink:href="#DejaVuSans-2e" x="63.623047"/>
       <use xlink:href="#DejaVuSans-31" x="95.410156"/>
       <use xlink:href="#DejaVuSans-30" x="159.033203"/>
      </g>
     </g>
    </g>
    <g id="xtick_4">
     <g id="line2d_4">
      <path d="M 261.068995 294.66 
L 261.068995 12.96 
" clip-path="url(#p5637df0af4)" style="fill: none; stroke: #ffffff; stroke-linecap: round"/>
     </g>
     <g id="text_4">
      <!-- 0.15 -->
      <g style="fill: #262626" transform="translate(248.822902 312.518281)scale(0.11 -0.11)">
       <use xlink:href="#DejaVuSans-30"/>
       <use xlink:href="#DejaVuSans-2e" x="63.623047"/>
       <use xlink:href="#DejaVuSans-31" x="95.410156"/>
       <use xlink:href="#DejaVuSans-35" x="159.033203"/>
      </g>
     </g>
    </g>
    <g id="xtick_5">
     <g id="line2d_5">
      <path d="M 317.709179 294.66 
L 317.709179 12.96 
" clip-path="url(#p5637df0af4)" style="fill: none; stroke: #ffffff; stroke-linecap: round"/>
     </g>
     <g id="text_5">
      <!-- 0.20 -->
      <g style="fill: #262626" transform="translate(305.463085 312.518281)scale(0.11 -0.11)">
       <defs>
        <path id="DejaVuSans-32" d="M 1228 531 
L 3431 531 
L 3431 0 
L 469 0 
L 469 531 
Q 828 903 1448 1529 
Q 2069 2156 2228 2338 
Q 2531 2678 2651 2914 
Q 2772 3150 2772 3378 
Q 2772 3750 2511 3984 
Q 2250 4219 1831 4219 
Q 1534 4219 1204 4116 
Q 875 4013 500 3803 
L 500 4441 
Q 881 4594 1212 4672 
Q 1544 4750 1819 4750 
Q 2544 4750 2975 4387 
Q 3406 4025 3406 3419 
Q 3406 3131 3298 2873 
Q 3191 2616 2906 2266 
Q 2828 2175 2409 1742 
Q 1991 1309 1228 531 
z
" transform="scale(0.015625)"/>
       </defs>
       <use xlink:href="#DejaVuSans-30"/>
       <use xlink:href="#DejaVuSans-2e" x="63.623047"/>
       <use xlink:href="#DejaVuSans-32" x="95.410156"/>
       <use xlink:href="#DejaVuSans-30" x="159.033203"/>
      </g>
     </g>
    </g>
    <g id="xtick_6">
     <g id="line2d_6">
      <path d="M 374.349362 294.66 
L 374.349362 12.96 
" clip-path="url(#p5637df0af4)" style="fill: none; stroke: #ffffff; stroke-linecap: round"/>
     </g>
     <g id="text_6">
      <!-- 0.25 -->
      <g style="fill: #262626" transform="translate(362.103268 312.518281)scale(0.11 -0.11)">
       <use xlink:href="#DejaVuSans-30"/>
       <use xlink:href="#DejaVuSans-2e" x="63.623047"/>
       <use xlink:href="#DejaVuSans-32" x="95.410156"/>
       <use xlink:href="#DejaVuSans-35" x="159.033203"/>
      </g>
     </g>
    </g>
    <g id="xtick_7">
     <g id="line2d_7">
      <path d="M 430.989545 294.66 
L 430.989545 12.96 
" clip-path="url(#p5637df0af4)" style="fill: none; stroke: #ffffff; stroke-linecap: round"/>
     </g>
     <g id="text_7">
      <!-- 0.30 -->
      <g style="fill: #262626" transform="translate(418.743452 312.518281)scale(0.11 -0.11)">
       <defs>
        <path id="DejaVuSans-33" d="M 2597 2516 
Q 3050 2419 3304 2112 
Q 3559 1806 3559 1356 
Q 3559 666 3084 287 
Q 2609 -91 1734 -91 
Q 1441 -91 1130 -33 
Q 819 25 488 141 
L 488 750 
Q 750 597 1062 519 
Q 1375 441 1716 441 
Q 2309 441 2620 675 
Q 2931 909 2931 1356 
Q 2931 1769 2642 2001 
Q 2353 2234 1838 2234 
L 1294 2234 
L 1294 2753 
L 1863 2753 
Q 2328 2753 2575 2939 
Q 2822 3125 2822 3475 
Q 2822 3834 2567 4026 
Q 2313 4219 1838 4219 
Q 1578 4219 1281 4162 
Q 984 4106 628 3988 
L 628 4550 
Q 988 4650 1302 4700 
Q 1616 4750 1894 4750 
Q 2613 4750 3031 4423 
Q 3450 4097 3450 3541 
Q 3450 3153 3228 2886 
Q 3006 2619 2597 2516 
z
" transform="scale(0.015625)"/>
       </defs>
       <use xlink:href="#DejaVuSans-30"/>
       <use xlink:href="#DejaVuSans-2e" x="63.623047"/>
       <use xlink:href="#DejaVuSans-33" x="95.410156"/>
       <use xlink:href="#DejaVuSans-30" x="159.033203"/>
      </g>
     </g>
    </g>
    <g id="text_8">
     <!-- Zeitschritte (in Millionen) -->
     <g style="fill: #262626" transform="translate(174.570469 329.44375)scale(0.14 -0.14)">
      <defs>
       <path id="DejaVuSans-5a" d="M 359 4666 
L 4025 4666 
L 4025 4184 
L 1075 531 
L 4097 531 
L 4097 0 
L 288 0 
L 288 481 
L 3238 4134 
L 359 4134 
L 359 4666 
z
" transform="scale(0.015625)"/>
       <path id="DejaVuSans-65" d="M 3597 1894 
L 3597 1613 
L 953 1613 
Q 991 1019 1311 708 
Q 1631 397 2203 397 
Q 2534 397 2845 478 
Q 3156 559 3463 722 
L 3463 178 
Q 3153 47 2828 -22 
Q 2503 -91 2169 -91 
Q 1331 -91 842 396 
Q 353 884 353 1716 
Q 353 2575 817 3079 
Q 1281 3584 2069 3584 
Q 2775 3584 3186 3129 
Q 3597 2675 3597 1894 
z
M 3022 2063 
Q 3016 2534 2758 2815 
Q 2500 3097 2075 3097 
Q 1594 3097 1305 2825 
Q 1016 2553 972 2059 
L 3022 2063 
z
" transform="scale(0.015625)"/>
       <path id="DejaVuSans-69" d="M 603 3500 
L 1178 3500 
L 1178 0 
L 603 0 
L 603 3500 
z
M 603 4863 
L 1178 4863 
L 1178 4134 
L 603 4134 
L 603 4863 
z
" transform="scale(0.015625)"/>
       <path id="DejaVuSans-74" d="M 1172 4494 
L 1172 3500 
L 2356 3500 
L 2356 3053 
L 1172 3053 
L 1172 1153 
Q 1172 725 1289 603 
Q 1406 481 1766 481 
L 2356 481 
L 2356 0 
L 1766 0 
Q 1100 0 847 248 
Q 594 497 594 1153 
L 594 3053 
L 172 3053 
L 172 3500 
L 594 3500 
L 594 4494 
L 1172 4494 
z
" transform="scale(0.015625)"/>
       <path id="DejaVuSans-73" d="M 2834 3397 
L 2834 2853 
Q 2591 2978 2328 3040 
Q 2066 3103 1784 3103 
Q 1356 3103 1142 2972 
Q 928 2841 928 2578 
Q 928 2378 1081 2264 
Q 1234 2150 1697 2047 
L 1894 2003 
Q 2506 1872 2764 1633 
Q 3022 1394 3022 966 
Q 3022 478 2636 193 
Q 2250 -91 1575 -91 
Q 1294 -91 989 -36 
Q 684 19 347 128 
L 347 722 
Q 666 556 975 473 
Q 1284 391 1588 391 
Q 1994 391 2212 530 
Q 2431 669 2431 922 
Q 2431 1156 2273 1281 
Q 2116 1406 1581 1522 
L 1381 1569 
Q 847 1681 609 1914 
Q 372 2147 372 2553 
Q 372 3047 722 3315 
Q 1072 3584 1716 3584 
Q 2034 3584 2315 3537 
Q 2597 3491 2834 3397 
z
" transform="scale(0.015625)"/>
       <path id="DejaVuSans-63" d="M 3122 3366 
L 3122 2828 
Q 2878 2963 2633 3030 
Q 2388 3097 2138 3097 
Q 1578 3097 1268 2742 
Q 959 2388 959 1747 
Q 959 1106 1268 751 
Q 1578 397 2138 397 
Q 2388 397 2633 464 
Q 2878 531 3122 666 
L 3122 134 
Q 2881 22 2623 -34 
Q 2366 -91 2075 -91 
Q 1284 -91 818 406 
Q 353 903 353 1747 
Q 353 2603 823 3093 
Q 1294 3584 2113 3584 
Q 2378 3584 2631 3529 
Q 2884 3475 3122 3366 
z
" transform="scale(0.015625)"/>
       <path id="DejaVuSans-68" d="M 3513 2113 
L 3513 0 
L 2938 0 
L 2938 2094 
Q 2938 2591 2744 2837 
Q 2550 3084 2163 3084 
Q 1697 3084 1428 2787 
Q 1159 2491 1159 1978 
L 1159 0 
L 581 0 
L 581 4863 
L 1159 4863 
L 1159 2956 
Q 1366 3272 1645 3428 
Q 1925 3584 2291 3584 
Q 2894 3584 3203 3211 
Q 3513 2838 3513 2113 
z
" transform="scale(0.015625)"/>
       <path id="DejaVuSans-72" d="M 2631 2963 
Q 2534 3019 2420 3045 
Q 2306 3072 2169 3072 
Q 1681 3072 1420 2755 
Q 1159 2438 1159 1844 
L 1159 0 
L 581 0 
L 581 3500 
L 1159 3500 
L 1159 2956 
Q 1341 3275 1631 3429 
Q 1922 3584 2338 3584 
Q 2397 3584 2469 3576 
Q 2541 3569 2628 3553 
L 2631 2963 
z
" transform="scale(0.015625)"/>
       <path id="DejaVuSans-20" transform="scale(0.015625)"/>
       <path id="DejaVuSans-28" d="M 1984 4856 
Q 1566 4138 1362 3434 
Q 1159 2731 1159 2009 
Q 1159 1288 1364 580 
Q 1569 -128 1984 -844 
L 1484 -844 
Q 1016 -109 783 600 
Q 550 1309 550 2009 
Q 550 2706 781 3412 
Q 1013 4119 1484 4856 
L 1984 4856 
z
" transform="scale(0.015625)"/>
       <path id="DejaVuSans-6e" d="M 3513 2113 
L 3513 0 
L 2938 0 
L 2938 2094 
Q 2938 2591 2744 2837 
Q 2550 3084 2163 3084 
Q 1697 3084 1428 2787 
Q 1159 2491 1159 1978 
L 1159 0 
L 581 0 
L 581 3500 
L 1159 3500 
L 1159 2956 
Q 1366 3272 1645 3428 
Q 1925 3584 2291 3584 
Q 2894 3584 3203 3211 
Q 3513 2838 3513 2113 
z
" transform="scale(0.015625)"/>
       <path id="DejaVuSans-4d" d="M 628 4666 
L 1569 4666 
L 2759 1491 
L 3956 4666 
L 4897 4666 
L 4897 0 
L 4281 0 
L 4281 4097 
L 3078 897 
L 2444 897 
L 1241 4097 
L 1241 0 
L 628 0 
L 628 4666 
z
" transform="scale(0.015625)"/>
       <path id="DejaVuSans-6c" d="M 603 4863 
L 1178 4863 
L 1178 0 
L 603 0 
L 603 4863 
z
" transform="scale(0.015625)"/>
       <path id="DejaVuSans-6f" d="M 1959 3097 
Q 1497 3097 1228 2736 
Q 959 2375 959 1747 
Q 959 1119 1226 758 
Q 1494 397 1959 397 
Q 2419 397 2687 759 
Q 2956 1122 2956 1747 
Q 2956 2369 2687 2733 
Q 2419 3097 1959 3097 
z
M 1959 3584 
Q 2709 3584 3137 3096 
Q 3566 2609 3566 1747 
Q 3566 888 3137 398 
Q 2709 -91 1959 -91 
Q 1206 -91 779 398 
Q 353 888 353 1747 
Q 353 2609 779 3096 
Q 1206 3584 1959 3584 
z
" transform="scale(0.015625)"/>
       <path id="DejaVuSans-29" d="M 513 4856 
L 1013 4856 
Q 1481 4119 1714 3412 
Q 1947 2706 1947 2009 
Q 1947 1309 1714 600 
Q 1481 -109 1013 -844 
L 513 -844 
Q 928 -128 1133 580 
Q 1338 1288 1338 2009 
Q 1338 2731 1133 3434 
Q 928 4138 513 4856 
z
" transform="scale(0.015625)"/>
      </defs>
      <use xlink:href="#DejaVuSans-5a"/>
      <use xlink:href="#DejaVuSans-65" x="68.505859"/>
      <use xlink:href="#DejaVuSans-69" x="130.029297"/>
      <use xlink:href="#DejaVuSans-74" x="157.8125"/>
      <use xlink:href="#DejaVuSans-73" x="197.021484"/>
      <use xlink:href="#DejaVuSans-63" x="249.121094"/>
      <use xlink:href="#DejaVuSans-68" x="304.101562"/>
      <use xlink:href="#DejaVuSans-72" x="367.480469"/>
      <use xlink:href="#DejaVuSans-69" x="408.59375"/>
      <use xlink:href="#DejaVuSans-74" x="436.376953"/>
      <use xlink:href="#DejaVuSans-74" x="475.585938"/>
      <use xlink:href="#DejaVuSans-65" x="514.794922"/>
      <use xlink:href="#DejaVuSans-20" x="576.318359"/>
      <use xlink:href="#DejaVuSans-28" x="608.105469"/>
      <use xlink:href="#DejaVuSans-69" x="647.119141"/>
      <use xlink:href="#DejaVuSans-6e" x="674.902344"/>
      <use xlink:href="#DejaVuSans-20" x="738.28125"/>
      <use xlink:href="#DejaVuSans-4d" x="770.068359"/>
      <use xlink:href="#DejaVuSans-69" x="856.347656"/>
      <use xlink:href="#DejaVuSans-6c" x="884.130859"/>
      <use xlink:href="#DejaVuSans-6c" x="911.914062"/>
      <use xlink:href="#DejaVuSans-69" x="939.697266"/>
      <use xlink:href="#DejaVuSans-6f" x="967.480469"/>
      <use xlink:href="#DejaVuSans-6e" x="1028.662109"/>
      <use xlink:href="#DejaVuSans-65" x="1092.041016"/>
      <use xlink:href="#DejaVuSans-6e" x="1153.564453"/>
      <use xlink:href="#DejaVuSans-29" x="1216.943359"/>
     </g>
    </g>
   </g>
   <g id="matplotlib.axis_2">
    <g id="ytick_1">
     <g id="line2d_8">
      <path d="M 77.13 282.085055 
L 447.84 282.085055 
" clip-path="url(#p5637df0af4)" style="fill: none; stroke: #ffffff; stroke-linecap: round"/>
     </g>
     <g id="text_9">
      <!-- −5000 -->
      <g style="fill: #262626" transform="translate(30.417344 286.264196)scale(0.11 -0.11)">
       <defs>
        <path id="DejaVuSans-2212" d="M 678 2272 
L 4684 2272 
L 4684 1741 
L 678 1741 
L 678 2272 
z
" transform="scale(0.015625)"/>
       </defs>
       <use xlink:href="#DejaVuSans-2212"/>
       <use xlink:href="#DejaVuSans-35" x="83.789062"/>
       <use xlink:href="#DejaVuSans-30" x="147.412109"/>
       <use xlink:href="#DejaVuSans-30" x="211.035156"/>
       <use xlink:href="#DejaVuSans-30" x="274.658203"/>
      </g>
     </g>
    </g>
    <g id="ytick_2">
     <g id="line2d_9">
      <path d="M 77.13 236.16492 
L 447.84 236.16492 
" clip-path="url(#p5637df0af4)" style="fill: none; stroke: #ffffff; stroke-linecap: round"/>
     </g>
     <g id="text_10">
      <!-- −4000 -->
      <g style="fill: #262626" transform="translate(30.417344 240.344061)scale(0.11 -0.11)">
       <defs>
        <path id="DejaVuSans-34" d="M 2419 4116 
L 825 1625 
L 2419 1625 
L 2419 4116 
z
M 2253 4666 
L 3047 4666 
L 3047 1625 
L 3713 1625 
L 3713 1100 
L 3047 1100 
L 3047 0 
L 2419 0 
L 2419 1100 
L 313 1100 
L 313 1709 
L 2253 4666 
z
" transform="scale(0.015625)"/>
       </defs>
       <use xlink:href="#DejaVuSans-2212"/>
       <use xlink:href="#DejaVuSans-34" x="83.789062"/>
       <use xlink:href="#DejaVuSans-30" x="147.412109"/>
       <use xlink:href="#DejaVuSans-30" x="211.035156"/>
       <use xlink:href="#DejaVuSans-30" x="274.658203"/>
      </g>
     </g>
    </g>
    <g id="ytick_3">
     <g id="line2d_10">
      <path d="M 77.13 190.244785 
L 447.84 190.244785 
" clip-path="url(#p5637df0af4)" style="fill: none; stroke: #ffffff; stroke-linecap: round"/>
     </g>
     <g id="text_11">
      <!-- −3000 -->
      <g style="fill: #262626" transform="translate(30.417344 194.423926)scale(0.11 -0.11)">
       <use xlink:href="#DejaVuSans-2212"/>
       <use xlink:href="#DejaVuSans-33" x="83.789062"/>
       <use xlink:href="#DejaVuSans-30" x="147.412109"/>
       <use xlink:href="#DejaVuSans-30" x="211.035156"/>
       <use xlink:href="#DejaVuSans-30" x="274.658203"/>
      </g>
     </g>
    </g>
    <g id="ytick_4">
     <g id="line2d_11">
      <path d="M 77.13 144.32465 
L 447.84 144.32465 
" clip-path="url(#p5637df0af4)" style="fill: none; stroke: #ffffff; stroke-linecap: round"/>
     </g>
     <g id="text_12">
      <!-- −2000 -->
      <g style="fill: #262626" transform="translate(30.417344 148.503791)scale(0.11 -0.11)">
       <use xlink:href="#DejaVuSans-2212"/>
       <use xlink:href="#DejaVuSans-32" x="83.789062"/>
       <use xlink:href="#DejaVuSans-30" x="147.412109"/>
       <use xlink:href="#DejaVuSans-30" x="211.035156"/>
       <use xlink:href="#DejaVuSans-30" x="274.658203"/>
      </g>
     </g>
    </g>
    <g id="ytick_5">
     <g id="line2d_12">
      <path d="M 77.13 98.404515 
L 447.84 98.404515 
" clip-path="url(#p5637df0af4)" style="fill: none; stroke: #ffffff; stroke-linecap: round"/>
     </g>
     <g id="text_13">
      <!-- −1000 -->
      <g style="fill: #262626" transform="translate(30.417344 102.583656)scale(0.11 -0.11)">
       <use xlink:href="#DejaVuSans-2212"/>
       <use xlink:href="#DejaVuSans-31" x="83.789062"/>
       <use xlink:href="#DejaVuSans-30" x="147.412109"/>
       <use xlink:href="#DejaVuSans-30" x="211.035156"/>
       <use xlink:href="#DejaVuSans-30" x="274.658203"/>
      </g>
     </g>
    </g>
    <g id="ytick_6">
     <g id="line2d_13">
      <path d="M 77.13 52.48438 
L 447.84 52.48438 
" clip-path="url(#p5637df0af4)" style="fill: none; stroke: #ffffff; stroke-linecap: round"/>
     </g>
     <g id="text_14">
      <!-- 0 -->
      <g style="fill: #262626" transform="translate(60.63125 56.663521)scale(0.11 -0.11)">
       <use xlink:href="#DejaVuSans-30"/>
      </g>
     </g>
    </g>
    <g id="text_15">
     <!-- Belohnung -->
     <g style="fill: #262626" transform="translate(23.505781 191.336563)rotate(-90)scale(0.14 -0.14)">
      <defs>
       <path id="DejaVuSans-42" d="M 1259 2228 
L 1259 519 
L 2272 519 
Q 2781 519 3026 730 
Q 3272 941 3272 1375 
Q 3272 1813 3026 2020 
Q 2781 2228 2272 2228 
L 1259 2228 
z
M 1259 4147 
L 1259 2741 
L 2194 2741 
Q 2656 2741 2882 2914 
Q 3109 3088 3109 3444 
Q 3109 3797 2882 3972 
Q 2656 4147 2194 4147 
L 1259 4147 
z
M 628 4666 
L 2241 4666 
Q 2963 4666 3353 4366 
Q 3744 4066 3744 3513 
Q 3744 3084 3544 2831 
Q 3344 2578 2956 2516 
Q 3422 2416 3680 2098 
Q 3938 1781 3938 1306 
Q 3938 681 3513 340 
Q 3088 0 2303 0 
L 628 0 
L 628 4666 
z
" transform="scale(0.015625)"/>
       <path id="DejaVuSans-75" d="M 544 1381 
L 544 3500 
L 1119 3500 
L 1119 1403 
Q 1119 906 1312 657 
Q 1506 409 1894 409 
Q 2359 409 2629 706 
Q 2900 1003 2900 1516 
L 2900 3500 
L 3475 3500 
L 3475 0 
L 2900 0 
L 2900 538 
Q 2691 219 2414 64 
Q 2138 -91 1772 -91 
Q 1169 -91 856 284 
Q 544 659 544 1381 
z
M 1991 3584 
L 1991 3584 
z
" transform="scale(0.015625)"/>
       <path id="DejaVuSans-67" d="M 2906 1791 
Q 2906 2416 2648 2759 
Q 2391 3103 1925 3103 
Q 1463 3103 1205 2759 
Q 947 2416 947 1791 
Q 947 1169 1205 825 
Q 1463 481 1925 481 
Q 2391 481 2648 825 
Q 2906 1169 2906 1791 
z
M 3481 434 
Q 3481 -459 3084 -895 
Q 2688 -1331 1869 -1331 
Q 1566 -1331 1297 -1286 
Q 1028 -1241 775 -1147 
L 775 -588 
Q 1028 -725 1275 -790 
Q 1522 -856 1778 -856 
Q 2344 -856 2625 -561 
Q 2906 -266 2906 331 
L 2906 616 
Q 2728 306 2450 153 
Q 2172 0 1784 0 
Q 1141 0 747 490 
Q 353 981 353 1791 
Q 353 2603 747 3093 
Q 1141 3584 1784 3584 
Q 2172 3584 2450 3431 
Q 2728 3278 2906 2969 
L 2906 3500 
L 3481 3500 
L 3481 434 
z
" transform="scale(0.015625)"/>
      </defs>
      <use xlink:href="#DejaVuSans-42"/>
      <use xlink:href="#DejaVuSans-65" x="68.603516"/>
      <use xlink:href="#DejaVuSans-6c" x="130.126953"/>
      <use xlink:href="#DejaVuSans-6f" x="157.910156"/>
      <use xlink:href="#DejaVuSans-68" x="219.091797"/>
      <use xlink:href="#DejaVuSans-6e" x="282.470703"/>
      <use xlink:href="#DejaVuSans-75" x="345.849609"/>
      <use xlink:href="#DejaVuSans-6e" x="409.228516"/>
      <use xlink:href="#DejaVuSans-67" x="472.607422"/>
     </g>
    </g>
   </g>
   <g id="PolyCollection_1">
    <defs>
     <path id="m618df4eff7" d="M 93.980455 -292.013156 
L 93.980455 -309.065431 
L 96.812464 -316.544126 
L 99.644473 -307.197318 
L 102.476482 -306.359985 
L 105.308491 -307.689759 
L 108.1405 -306.245358 
L 110.97251 -306.488788 
L 113.804519 -305.670672 
L 116.636528 -305.865994 
L 119.468537 -305.81665 
L 122.300546 -305.934366 
L 125.132555 -305.988278 
L 127.964565 -305.556165 
L 130.796574 -306.162533 
L 133.628583 -305.989659 
L 136.460592 -305.871268 
L 139.292601 -305.887113 
L 142.12461 -305.823702 
L 144.95662 -305.819161 
L 147.788629 -305.882834 
L 150.620638 -305.978452 
L 153.452647 -306.177823 
L 156.284656 -305.850314 
L 159.116665 -305.950437 
L 161.948675 -305.85512 
L 164.780684 -305.885791 
L 167.612693 -305.84647 
L 170.444702 -305.848867 
L 173.276711 -306.542936 
L 176.10872 -305.910856 
L 178.94073 -305.826478 
L 181.772739 -305.924361 
L 184.604748 -305.703496 
L 187.436757 -305.961273 
L 190.268766 -305.8003 
L 193.100775 -305.898236 
L 195.932785 -305.814786 
L 198.764794 -306.071312 
L 201.596803 -305.867299 
L 204.428812 -305.876144 
L 207.260821 -305.86339 
L 210.09283 -305.861089 
L 212.92484 -306.003323 
L 215.756849 -306.833636 
L 218.588858 -305.875817 
L 221.420867 -305.965186 
L 224.252876 -305.780188 
L 227.084885 -305.814105 
L 229.916895 -305.929137 
L 232.748904 -305.817795 
L 235.580913 -305.901688 
L 238.412922 -306.068861 
L 241.244931 -305.879369 
L 244.07694 -305.754956 
L 246.90895 -305.87505 
L 249.740959 -305.897944 
L 252.572968 -305.782723 
L 255.404977 -305.926226 
L 258.236986 -306.290107 
L 261.068995 -305.789777 
L 263.901005 -305.893326 
L 266.733014 -305.833957 
L 269.565023 -305.840179 
L 272.397032 -305.784476 
L 275.229041 -306.045189 
L 278.06105 -305.738959 
L 280.89306 -306.074601 
L 283.725069 -305.926057 
L 286.557078 -306.024111 
L 289.389087 -305.841872 
L 292.221096 -305.901725 
L 295.053105 -305.936641 
L 297.885115 -305.958655 
L 300.717124 -305.810743 
L 303.549133 -305.944391 
L 306.381142 -305.899337 
L 309.213151 -305.974491 
L 312.04516 -305.907153 
L 314.87717 -305.897284 
L 317.709179 -305.912024 
L 320.541188 -305.849305 
L 323.373197 -306.18817 
L 326.205206 -305.210615 
L 329.037215 -306.401157 
L 331.869225 -305.912404 
L 334.701234 -305.789491 
L 337.533243 -306.128304 
L 340.365252 -305.834663 
L 343.197261 -305.521073 
L 346.02927 -305.987637 
L 348.86128 -305.910816 
L 351.693289 -305.948518 
L 354.525298 -305.763399 
L 357.357307 -305.851398 
L 360.189316 -306.01058 
L 363.021325 -306.316645 
L 365.853335 -305.812314 
L 368.685344 -305.754758 
L 371.517353 -305.71373 
L 374.349362 -305.872394 
L 377.181371 -305.938711 
L 380.01338 -305.765775 
L 382.84539 -305.82989 
L 385.677399 -305.773029 
L 388.509408 -305.766377 
L 391.341417 -305.449068 
L 394.173426 -305.773398 
L 397.005435 -305.733914 
L 399.837445 -306.572252 
L 402.669454 -305.92397 
L 405.501463 -305.088225 
L 408.333472 -307.157835 
L 411.165481 -305.895235 
L 413.99749 -305.756916 
L 416.8295 -305.567915 
L 419.661509 -305.787385 
L 422.493518 -305.567601 
L 425.325527 -306.659822 
L 428.157536 -305.806243 
L 430.989545 -305.535161 
L 430.989545 -193.167447 
L 430.989545 -193.167447 
L 428.157536 -228.425338 
L 425.325527 -238.849114 
L 422.493518 -257.108821 
L 419.661509 -292.352203 
L 416.8295 -166.969277 
L 413.99749 -262.169502 
L 411.165481 -80.321714 
L 408.333472 -274.124268 
L 405.501463 -273.183753 
L 402.669454 -285.315699 
L 399.837445 -195.630626 
L 397.005435 -135.081475 
L 394.173426 -276.094085 
L 391.341417 -122.449408 
L 388.509408 -295.779718 
L 385.677399 -248.846481 
L 382.84539 -296.638947 
L 380.01338 -278.385955 
L 377.181371 -297.883687 
L 374.349362 -305.05329 
L 371.517353 -217.00347 
L 368.685344 -208.30638 
L 365.853335 -198.875457 
L 363.021325 -305.583258 
L 360.189316 -138.676283 
L 357.357307 -305.653786 
L 354.525298 -268.642502 
L 351.693289 -253.243986 
L 348.86128 -190.983598 
L 346.02927 -254.367641 
L 343.197261 -192.017164 
L 340.365252 -305.366454 
L 337.533243 -204.378349 
L 334.701234 -302.337575 
L 331.869225 -267.173393 
L 329.037215 -305.687552 
L 326.205206 -190.518501 
L 323.373197 -305.388371 
L 320.541188 -189.869747 
L 317.709179 -247.607813 
L 314.87717 -199.421721 
L 312.04516 -192.760742 
L 309.213151 -192.381659 
L 306.381142 -296.159371 
L 303.549133 -211.110281 
L 300.717124 -202.021017 
L 297.885115 -203.362921 
L 295.053105 -271.175195 
L 292.221096 -294.363255 
L 289.389087 -206.522464 
L 286.557078 -194.155165 
L 283.725069 -295.966446 
L 280.89306 -305.553324 
L 278.06105 -285.959036 
L 275.229041 -223.135468 
L 272.397032 -290.671503 
L 269.565023 -305.691446 
L 266.733014 -194.579312 
L 263.901005 -275.556663 
L 261.068995 -305.541683 
L 258.236986 -223.529768 
L 255.404977 -204.330857 
L 252.572968 -305.470691 
L 249.740959 -250.319955 
L 246.90895 -279.750189 
L 244.07694 -257.851814 
L 241.244931 -305.618624 
L 238.412922 -210.232257 
L 235.580913 -215.931381 
L 232.748904 -305.651528 
L 229.916895 -227.226766 
L 227.084885 -305.695673 
L 224.252876 -191.037288 
L 221.420867 -215.200577 
L 218.588858 -260.755302 
L 215.756849 -299.221872 
L 212.92484 -244.921824 
L 210.09283 -273.887496 
L 207.260821 -208.453416 
L 204.428812 -285.175794 
L 201.596803 -244.745004 
L 198.764794 -220.328074 
L 195.932785 -300.661013 
L 193.100775 -279.886884 
L 190.268766 -208.41352 
L 187.436757 -305.578147 
L 184.604748 -201.674091 
L 181.772739 -305.734533 
L 178.94073 -238.722441 
L 176.10872 -260.706305 
L 173.276711 -305.423072 
L 170.444702 -227.436111 
L 167.612693 -199.090607 
L 164.780684 -305.617192 
L 161.948675 -271.743535 
L 159.116665 -305.793901 
L 156.284656 -236.277125 
L 153.452647 -292.370747 
L 150.620638 -270.018758 
L 147.788629 -252.894382 
L 144.95662 -204.704164 
L 142.12461 -291.634275 
L 139.292601 -221.509598 
L 136.460592 -233.421816 
L 133.628583 -305.116673 
L 130.796574 -305.581218 
L 127.964565 -198.236596 
L 125.132555 -305.543723 
L 122.300546 -204.090012 
L 119.468537 -290.186581 
L 116.636528 -279.266943 
L 113.804519 -305.273095 
L 110.97251 -255.691022 
L 108.1405 -304.830148 
L 105.308491 -277.71472 
L 102.476482 -299.966829 
L 99.644473 -280.527194 
L 96.812464 -303.822255 
L 93.980455 -292.013156 
z
" style="stroke: #ffffff; stroke-opacity: 0.5"/>
    </defs>
    <g clip-path="url(#p5637df0af4)">
     <use xlink:href="#m618df4eff7" x="0" y="345.6" style="fill: #4c72b0; fill-opacity: 0.5; stroke: #ffffff; stroke-opacity: 0.5"/>
    </g>
   </g>
   <g id="PolyCollection_2">
    <defs>
     <path id="mf42d0fde57" d="M 93.980455 -163.431378 
L 93.980455 -313.841437 
L 96.812464 -308.02835 
L 99.644473 -306.21844 
L 102.476482 -306.782754 
L 105.308491 -306.490979 
L 108.1405 -308.020396 
L 110.97251 -305.487716 
L 113.804519 -305.885796 
L 116.636528 -305.919194 
L 119.468537 -305.723259 
L 122.300546 -305.763955 
L 125.132555 -305.763714 
L 127.964565 -305.665449 
L 130.796574 -305.598898 
L 133.628583 -305.612196 
L 136.460592 -305.671733 
L 139.292601 -305.686739 
L 142.12461 -305.50988 
L 144.95662 -305.39997 
L 147.788629 -305.777154 
L 150.620638 -305.586277 
L 153.452647 -305.541781 
L 156.284656 -305.571863 
L 159.116665 -305.787004 
L 161.948675 -305.76123 
L 164.780684 -305.497583 
L 167.612693 -305.551459 
L 170.444702 -305.83988 
L 173.276711 -305.495907 
L 176.10872 -305.527173 
L 178.94073 -305.589942 
L 181.772739 -305.696251 
L 184.604748 -305.715434 
L 187.436757 -305.346113 
L 190.268766 -305.437918 
L 193.100775 -305.422965 
L 195.932785 -305.551286 
L 198.764794 -305.572229 
L 201.596803 -305.847405 
L 204.428812 -305.263325 
L 207.260821 -305.892908 
L 210.09283 -305.780287 
L 212.92484 -305.583536 
L 215.756849 -305.602209 
L 218.588858 -306.11288 
L 221.420867 -306.04406 
L 224.252876 -305.520198 
L 227.084885 -305.861695 
L 229.916895 -305.138339 
L 232.748904 -306.261386 
L 235.580913 -305.71811 
L 238.412922 -306.110573 
L 241.244931 -305.658118 
L 244.07694 -305.696887 
L 246.90895 -305.647709 
L 249.740959 -305.722596 
L 252.572968 -305.589774 
L 255.404977 -305.625053 
L 258.236986 -305.521071 
L 261.068995 -306.018322 
L 263.901005 -305.590807 
L 266.733014 -305.489655 
L 269.565023 -305.68543 
L 272.397032 -305.827374 
L 275.229041 -305.776824 
L 278.06105 -306.258122 
L 280.89306 -306.067337 
L 283.725069 -305.530224 
L 286.557078 -305.374043 
L 289.389087 -305.343998 
L 292.221096 -305.495716 
L 295.053105 -305.560921 
L 297.885115 -305.446696 
L 300.717124 -305.399694 
L 303.549133 -305.32099 
L 306.381142 -305.745488 
L 309.213151 -305.543669 
L 312.04516 -305.514858 
L 314.87717 -306.5092 
L 317.709179 -305.51867 
L 320.541188 -305.499256 
L 323.373197 -304.701988 
L 326.205206 -305.799519 
L 329.037215 -306.759281 
L 331.869225 -305.583534 
L 334.701234 -305.196309 
L 337.533243 -305.57026 
L 340.365252 -305.523457 
L 343.197261 -305.512958 
L 346.02927 -305.996097 
L 348.86128 -305.170505 
L 351.693289 -305.525751 
L 354.525298 -305.044908 
L 357.357307 -307.850924 
L 360.189316 -307.433513 
L 363.021325 -305.488809 
L 365.853335 -304.21281 
L 368.685344 -305.165674 
L 371.517353 -305.169458 
L 374.349362 -305.377751 
L 377.181371 -306.932762 
L 380.01338 -305.45298 
L 382.84539 -305.543984 
L 385.677399 -305.737703 
L 388.509408 -305.173075 
L 391.341417 -305.303322 
L 394.173426 -305.607512 
L 397.005435 -305.488235 
L 399.837445 -303.837612 
L 402.669454 -305.420974 
L 405.501463 -305.414138 
L 408.333472 -305.975136 
L 411.165481 -305.715386 
L 413.99749 -305.790882 
L 416.8295 -305.277338 
L 419.661509 -305.11531 
L 422.493518 -307.475522 
L 425.325527 -305.216365 
L 428.157536 -304.896811 
L 430.989545 -306.834167 
L 430.989545 -208.011144 
L 430.989545 -208.011144 
L 428.157536 -284.64231 
L 425.325527 -261.053785 
L 422.493518 -195.689345 
L 419.661509 -204.83999 
L 416.8295 -214.710122 
L 413.99749 -304.565861 
L 411.165481 -201.037874 
L 408.333472 -250.560799 
L 405.501463 -252.435837 
L 402.669454 -247.231543 
L 399.837445 -193.871166 
L 397.005435 -280.444973 
L 394.173426 -279.075059 
L 391.341417 -195.910075 
L 388.509408 -190.538868 
L 385.677399 -262.517583 
L 382.84539 -304.934419 
L 380.01338 -200.105516 
L 377.181371 -247.033775 
L 374.349362 -201.412286 
L 371.517353 -212.670362 
L 368.685344 -251.288648 
L 365.853335 -243.192368 
L 363.021325 -275.901301 
L 360.189316 -284.843136 
L 357.357307 -291.121216 
L 354.525298 -213.268191 
L 351.693289 -180.630076 
L 348.86128 -210.134724 
L 346.02927 -300.72359 
L 343.197261 -224.678809 
L 340.365252 -298.7249 
L 337.533243 -251.729033 
L 334.701234 -224.041696 
L 331.869225 -272.933203 
L 329.037215 -210.364643 
L 326.205206 -281.341087 
L 323.373197 -200.50725 
L 320.541188 -216.728031 
L 317.709179 -279.431092 
L 314.87717 -203.220393 
L 312.04516 -205.6289 
L 309.213151 -227.222094 
L 306.381142 -143.725165 
L 303.549133 -291.805613 
L 300.717124 -283.299006 
L 297.885115 -187.526792 
L 295.053105 -240.212168 
L 292.221096 -255.901793 
L 289.389087 -304.416959 
L 286.557078 -286.748663 
L 283.725069 -304.765687 
L 280.89306 -303.88591 
L 278.06105 -211.37091 
L 275.229041 -262.578036 
L 272.397032 -304.261898 
L 269.565023 -203.259397 
L 266.733014 -231.974907 
L 263.901005 -245.672392 
L 261.068995 -304.697286 
L 258.236986 -217.994804 
L 255.404977 -205.239863 
L 252.572968 -266.581114 
L 249.740959 -262.872605 
L 246.90895 -202.313457 
L 244.07694 -193.716241 
L 241.244931 -201.303009 
L 238.412922 -291.488914 
L 235.580913 -214.209945 
L 232.748904 -210.289971 
L 229.916895 -228.582478 
L 227.084885 -289.046322 
L 224.252876 -248.407226 
L 221.420867 -293.826463 
L 218.588858 -278.291204 
L 215.756849 -305.09173 
L 212.92484 -212.067754 
L 210.09283 -254.743706 
L 207.260821 -291.162699 
L 204.428812 -294.631843 
L 201.596803 -194.124384 
L 198.764794 -249.4317 
L 195.932785 -258.541071 
L 193.100775 -302.693807 
L 190.268766 -195.160438 
L 187.436757 -250.8376 
L 184.604748 -295.281993 
L 181.772739 -213.261598 
L 178.94073 -305.025377 
L 176.10872 -305.448714 
L 173.276711 -288.970555 
L 170.444702 -192.074646 
L 167.612693 -193.461085 
L 164.780684 -304.885755 
L 161.948675 -190.719027 
L 159.116665 -190.217332 
L 156.284656 -202.346404 
L 153.452647 -196.270464 
L 150.620638 -218.260409 
L 147.788629 -304.996231 
L 144.95662 -267.419788 
L 142.12461 -305.073664 
L 139.292601 -300.418754 
L 136.460592 -245.883087 
L 133.628583 -263.835711 
L 130.796574 -264.014756 
L 127.964565 -305.013148 
L 125.132555 -203.234758 
L 122.300546 -237.392916 
L 119.468537 -302.271801 
L 116.636528 -303.698489 
L 113.804519 -195.826412 
L 110.97251 -304.772237 
L 108.1405 -238.554887 
L 105.308491 -282.044378 
L 102.476482 -303.32411 
L 99.644473 -300.03891 
L 96.812464 -302.740552 
L 93.980455 -163.431378 
z
" style="stroke: #ffffff; stroke-opacity: 0.5"/>
    </defs>
    <g clip-path="url(#p5637df0af4)">
     <use xlink:href="#mf42d0fde57" x="0" y="345.6" style="fill: #dd8452; fill-opacity: 0.5; stroke: #ffffff; stroke-opacity: 0.5"/>
    </g>
   </g>
   <g id="PolyCollection_3">
    <defs>
     <path id="mfaa75821cc" d="M 93.980455 -152.480759 
L 93.980455 -308.034853 
L 96.812464 -304.797789 
L 99.644473 -316.084114 
L 102.476482 -307.9655 
L 105.308491 -305.578462 
L 108.1405 -303.25955 
L 110.97251 -319.835455 
L 113.804519 -313.309719 
L 116.636528 -305.538984 
L 119.468537 -306.041865 
L 122.300546 -305.131798 
L 125.132555 -305.290237 
L 127.964565 -304.104565 
L 130.796574 -305.194867 
L 133.628583 -304.857857 
L 136.460592 -304.609217 
L 139.292601 -307.510852 
L 142.12461 -305.597972 
L 144.95662 -308.795965 
L 147.788629 -304.898312 
L 150.620638 -303.960288 
L 153.452647 -304.567134 
L 156.284656 -302.635112 
L 159.116665 -304.406 
L 161.948675 -305.532939 
L 164.780684 -304.219033 
L 167.612693 -304.339382 
L 170.444702 -306.3652 
L 173.276711 -304.606487 
L 176.10872 -305.430345 
L 178.94073 -304.249279 
L 181.772739 -304.738348 
L 184.604748 -305.888407 
L 187.436757 -304.786372 
L 190.268766 -304.036029 
L 193.100775 -304.987366 
L 195.932785 -304.384931 
L 198.764794 -305.371058 
L 201.596803 -305.08057 
L 204.428812 -304.818381 
L 207.260821 -308.452682 
L 210.09283 -306.044091 
L 212.92484 -305.357129 
L 215.756849 -305.146758 
L 218.588858 -303.563763 
L 221.420867 -304.532077 
L 224.252876 -304.509537 
L 227.084885 -304.703887 
L 229.916895 -305.153857 
L 232.748904 -304.499841 
L 235.580913 -304.667971 
L 238.412922 -306.762211 
L 241.244931 -304.020465 
L 244.07694 -305.347105 
L 246.90895 -307.61272 
L 249.740959 -304.407272 
L 252.572968 -305.632188 
L 255.404977 -303.771384 
L 258.236986 -305.600353 
L 261.068995 -303.583713 
L 263.901005 -304.947499 
L 266.733014 -304.064051 
L 269.565023 -304.961861 
L 272.397032 -305.349287 
L 275.229041 -305.836585 
L 278.06105 -303.743974 
L 280.89306 -301.284491 
L 283.725069 -304.425873 
L 286.557078 -307.777235 
L 289.389087 -306.226082 
L 292.221096 -304.655519 
L 295.053105 -306.524839 
L 297.885115 -304.754199 
L 300.717124 -303.350054 
L 303.549133 -303.898873 
L 306.381142 -304.940109 
L 309.213151 -304.820224 
L 312.04516 -302.411612 
L 314.87717 -303.962195 
L 317.709179 -303.77294 
L 320.541188 -303.583095 
L 323.373197 -304.888224 
L 326.205206 -304.025262 
L 329.037215 -304.027652 
L 331.869225 -304.600452 
L 334.701234 -302.2953 
L 337.533243 -302.519571 
L 340.365252 -304.693858 
L 343.197261 -304.20936 
L 346.02927 -303.506567 
L 348.86128 -304.686208 
L 351.693289 -304.364283 
L 354.525298 -304.161116 
L 357.357307 -300.452777 
L 360.189316 -304.931249 
L 363.021325 -276.006048 
L 365.853335 -286.296093 
L 368.685344 -287.540121 
L 371.517353 -307.394497 
L 374.349362 -304.24064 
L 377.181371 -302.555553 
L 380.01338 -303.685917 
L 382.84539 -295.009862 
L 385.677399 -299.623778 
L 388.509408 -303.846859 
L 391.341417 -302.954087 
L 394.173426 -302.136157 
L 397.005435 -302.260931 
L 399.837445 -274.127251 
L 402.669454 -276.957741 
L 405.501463 -205.323455 
L 408.333472 -296.514489 
L 411.165481 -297.504049 
L 413.99749 -302.126243 
L 416.8295 -304.123547 
L 419.661509 -206.955785 
L 422.493518 -204.338384 
L 425.325527 -197.775828 
L 428.157536 -236.382371 
L 430.989545 -235.161899 
L 430.989545 -64.147043 
L 430.989545 -64.147043 
L 428.157536 -67.934455 
L 425.325527 -155.951506 
L 422.493518 -63.744545 
L 419.661509 -63.744545 
L 416.8295 -65.711048 
L 413.99749 -63.744545 
L 411.165481 -63.938223 
L 408.333472 -69.65369 
L 405.501463 -157.28989 
L 402.669454 -96.623198 
L 399.837445 -63.841839 
L 397.005435 -193.3935 
L 394.173426 -106.426063 
L 391.341417 -145.828091 
L 388.509408 -72.491241 
L 385.677399 -139.354411 
L 382.84539 -110.166641 
L 380.01338 -151.580339 
L 377.181371 -90.693018 
L 374.349362 -198.854156 
L 371.517353 -93.50073 
L 368.685344 -177.841781 
L 365.853335 -181.681194 
L 363.021325 -89.058972 
L 360.189316 -219.231958 
L 357.357307 -87.226652 
L 354.525298 -222.452552 
L 351.693289 -213.81598 
L 348.86128 -64.74905 
L 346.02927 -221.193625 
L 343.197261 -262.114315 
L 340.365252 -192.358828 
L 337.533243 -63.744545 
L 334.701234 -290.994852 
L 331.869225 -198.526677 
L 329.037215 -255.777367 
L 326.205206 -204.049449 
L 323.373197 -63.744545 
L 320.541188 -194.0517 
L 317.709179 -266.901356 
L 314.87717 -221.672267 
L 312.04516 -188.323809 
L 309.213151 -202.894478 
L 306.381142 -184.819136 
L 303.549133 -229.469388 
L 300.717124 -221.266649 
L 297.885115 -265.405466 
L 295.053105 -217.400079 
L 292.221096 -64.983938 
L 289.389087 -210.450025 
L 286.557078 -233.360666 
L 283.725069 -63.790466 
L 280.89306 -196.501464 
L 278.06105 -283.432216 
L 275.229041 -276.182141 
L 272.397032 -250.235713 
L 269.565023 -247.174759 
L 266.733014 -266.773353 
L 263.901005 -187.028235 
L 261.068995 -179.670502 
L 258.236986 -219.253886 
L 255.404977 -217.252604 
L 252.572968 -256.461743 
L 249.740959 -279.177548 
L 246.90895 -280.334022 
L 244.07694 -63.838642 
L 241.244931 -185.431387 
L 238.412922 -207.013254 
L 235.580913 -222.437144 
L 232.748904 -277.73743 
L 229.916895 -230.122905 
L 227.084885 -276.358593 
L 224.252876 -300.59759 
L 221.420867 -259.365828 
L 218.588858 -229.210366 
L 215.756849 -286.43494 
L 212.92484 -236.787263 
L 210.09283 -247.546724 
L 207.260821 -303.042547 
L 204.428812 -233.220364 
L 201.596803 -263.234336 
L 198.764794 -301.81505 
L 195.932785 -291.369215 
L 193.100775 -303.301277 
L 190.268766 -215.300167 
L 187.436757 -303.327801 
L 184.604748 -285.35286 
L 181.772739 -221.6254 
L 178.94073 -259.93365 
L 176.10872 -221.570757 
L 173.276711 -227.058645 
L 170.444702 -205.589585 
L 167.612693 -264.154002 
L 164.780684 -303.097545 
L 161.948675 -220.328854 
L 159.116665 -273.024077 
L 156.284656 -269.148626 
L 153.452647 -296.52866 
L 150.620638 -223.553101 
L 147.788629 -302.374465 
L 144.95662 -303.76783 
L 142.12461 -271.323998 
L 139.292601 -169.852403 
L 136.460592 -302.668614 
L 133.628583 -291.405565 
L 130.796574 -301.55058 
L 127.964565 -295.853315 
L 125.132555 -238.298602 
L 122.300546 -248.346619 
L 119.468537 -247.386424 
L 116.636528 -290.403905 
L 113.804519 -296.328104 
L 110.97251 -234.141399 
L 108.1405 -194.065071 
L 105.308491 -216.244045 
L 102.476482 -219.806989 
L 99.644473 -269.616013 
L 96.812464 -218.323288 
L 93.980455 -152.480759 
z
" style="stroke: #ffffff; stroke-opacity: 0.5"/>
    </defs>
    <g clip-path="url(#p5637df0af4)">
     <use xlink:href="#mfaa75821cc" x="0" y="345.6" style="fill: #55a868; fill-opacity: 0.5; stroke: #ffffff; stroke-opacity: 0.5"/>
    </g>
   </g>
   <g id="PolyCollection_4">
    <defs>
     <path id="m1f2bd71073" d="M 93.980455 -66.849383 
L 93.980455 -224.352942 
L 96.812464 -245.106709 
L 99.644473 -301.519304 
L 102.476482 -319.02668 
L 105.308491 -296.516191 
L 108.1405 -310.803032 
L 110.97251 -303.582041 
L 113.804519 -304.737014 
L 116.636528 -301.946971 
L 119.468537 -299.267029 
L 122.300546 -312.242443 
L 125.132555 -303.763921 
L 127.964565 -303.134711 
L 130.796574 -308.026268 
L 133.628583 -306.085541 
L 136.460592 -300.285148 
L 139.292601 -302.723947 
L 142.12461 -302.535886 
L 144.95662 -304.784076 
L 147.788629 -304.682883 
L 150.620638 -302.609022 
L 153.452647 -301.078129 
L 156.284656 -306.822359 
L 159.116665 -304.340239 
L 161.948675 -305.600459 
L 164.780684 -302.062859 
L 167.612693 -306.814146 
L 170.444702 -304.688031 
L 173.276711 -304.034705 
L 176.10872 -303.317016 
L 178.94073 -304.295536 
L 181.772739 -304.204682 
L 184.604748 -303.7507 
L 187.436757 -305.202304 
L 190.268766 -302.833613 
L 193.100775 -305.108749 
L 195.932785 -303.240924 
L 198.764794 -304.808185 
L 201.596803 -302.763519 
L 204.428812 -304.831837 
L 207.260821 -302.814562 
L 210.09283 -303.651725 
L 212.92484 -301.099325 
L 215.756849 -303.658626 
L 218.588858 -304.27127 
L 221.420867 -310.207829 
L 224.252876 -303.273451 
L 227.084885 -304.361269 
L 229.916895 -304.835989 
L 232.748904 -303.204664 
L 235.580913 -302.290885 
L 238.412922 -303.746201 
L 241.244931 -302.714488 
L 244.07694 -288.100308 
L 246.90895 -301.822818 
L 249.740959 -302.043778 
L 252.572968 -306.916981 
L 255.404977 -301.262059 
L 258.236986 -301.35289 
L 261.068995 -303.580387 
L 263.901005 -302.914538 
L 266.733014 -303.558072 
L 269.565023 -302.15127 
L 272.397032 -299.933723 
L 275.229041 -295.160225 
L 278.06105 -302.122623 
L 280.89306 -300.458775 
L 283.725069 -302.722523 
L 286.557078 -295.980271 
L 289.389087 -299.906331 
L 292.221096 -301.782073 
L 295.053105 -300.220069 
L 297.885115 -286.000536 
L 300.717124 -297.224269 
L 303.549133 -304.958555 
L 306.381142 -302.444225 
L 309.213151 -289.365206 
L 312.04516 -288.964532 
L 314.87717 -303.420435 
L 317.709179 -267.545614 
L 320.541188 -272.127847 
L 323.373197 -301.256061 
L 326.205206 -306.583497 
L 329.037215 -296.675155 
L 331.869225 -302.320108 
L 334.701234 -300.104108 
L 337.533243 -261.192891 
L 340.365252 -296.635929 
L 343.197261 -279.886307 
L 346.02927 -288.601517 
L 348.86128 -301.924481 
L 351.693289 -259.136742 
L 354.525298 -249.228944 
L 357.357307 -190.401132 
L 360.189316 -279.863499 
L 363.021325 -233.882035 
L 365.853335 -276.734582 
L 368.685344 -285.816466 
L 371.517353 -208.383352 
L 374.349362 -189.661005 
L 377.181371 -214.012357 
L 380.01338 -188.232237 
L 382.84539 -171.746362 
L 385.677399 -198.664266 
L 388.509408 -205.463852 
L 391.341417 -233.318698 
L 394.173426 -256.013909 
L 397.005435 -156.578264 
L 399.837445 -198.950482 
L 402.669454 -277.169293 
L 405.501463 -191.278234 
L 408.333472 -201.571668 
L 411.165481 -209.277814 
L 413.99749 -195.751976 
L 416.8295 -188.006105 
L 419.661509 -198.914815 
L 422.493518 -198.257741 
L 425.325527 -193.480005 
L 428.157536 -201.796427 
L 430.989545 -144.915763 
L 430.989545 -64.356017 
L 430.989545 -64.356017 
L 428.157536 -64.068485 
L 425.325527 -63.974146 
L 422.493518 -64.219644 
L 419.661509 -67.719911 
L 416.8295 -64.065986 
L 413.99749 -63.974146 
L 411.165481 -63.974146 
L 408.333472 -64.020066 
L 405.501463 -65.955855 
L 402.669454 -63.974146 
L 399.837445 -70.30849 
L 397.005435 -64.020066 
L 394.173426 -64.76573 
L 391.341417 -64.215 
L 388.509408 -63.974146 
L 385.677399 -147.190777 
L 382.84539 -64.069561 
L 380.01338 -64.072935 
L 377.181371 -64.654251 
L 374.349362 -68.008916 
L 371.517353 -66.425177 
L 368.685344 -65.397143 
L 365.853335 -64.846656 
L 363.021325 -64.373289 
L 360.189316 -68.919079 
L 357.357307 -63.974146 
L 354.525298 -63.974146 
L 351.693289 -68.392657 
L 348.86128 -74.2716 
L 346.02927 -151.124798 
L 343.197261 -64.944597 
L 340.365252 -88.121852 
L 337.533243 -102.780909 
L 334.701234 -64.120756 
L 331.869225 -251.757489 
L 329.037215 -189.373271 
L 326.205206 -103.535153 
L 323.373197 -226.784522 
L 320.541188 -63.974146 
L 317.709179 -64.788567 
L 314.87717 -84.918444 
L 312.04516 -181.51078 
L 309.213151 -151.070989 
L 306.381142 -64.020066 
L 303.549133 -64.020066 
L 300.717124 -270.595609 
L 297.885115 -169.702369 
L 295.053105 -236.232068 
L 292.221096 -112.123843 
L 289.389087 -193.799454 
L 286.557078 -268.657051 
L 283.725069 -64.068368 
L 280.89306 -211.375415 
L 278.06105 -200.679484 
L 275.229041 -64.020066 
L 272.397032 -224.595784 
L 269.565023 -279.101962 
L 266.733014 -104.065538 
L 263.901005 -234.337647 
L 261.068995 -291.268413 
L 258.236986 -271.553107 
L 255.404977 -196.277665 
L 252.572968 -211.050768 
L 249.740959 -212.41763 
L 246.90895 -201.341184 
L 244.07694 -241.115798 
L 241.244931 -235.318779 
L 238.412922 -270.996226 
L 235.580913 -243.228187 
L 232.748904 -291.778525 
L 229.916895 -283.989174 
L 227.084885 -214.769653 
L 224.252876 -227.595115 
L 221.420867 -201.118593 
L 218.588858 -237.870583 
L 215.756849 -254.681862 
L 212.92484 -170.9274 
L 210.09283 -191.974382 
L 207.260821 -221.003597 
L 204.428812 -182.317029 
L 201.596803 -255.264703 
L 198.764794 -268.901422 
L 195.932785 -201.859228 
L 193.100775 -258.533927 
L 190.268766 -259.892349 
L 187.436757 -299.761223 
L 184.604748 -194.524776 
L 181.772739 -225.564417 
L 178.94073 -210.191689 
L 176.10872 -228.364499 
L 173.276711 -201.342576 
L 170.444702 -299.978568 
L 167.612693 -279.373522 
L 164.780684 -226.235109 
L 161.948675 -209.543873 
L 159.116665 -199.422291 
L 156.284656 -194.630225 
L 153.452647 -218.462395 
L 150.620638 -184.081104 
L 147.788629 -146.035091 
L 144.95662 -276.441296 
L 142.12461 -228.402706 
L 139.292601 -208.935992 
L 136.460592 -230.474955 
L 133.628583 -250.749365 
L 130.796574 -240.493026 
L 127.964565 -200.006941 
L 125.132555 -225.652055 
L 122.300546 -285.740842 
L 119.468537 -187.823323 
L 116.636528 -285.610263 
L 113.804519 -228.525739 
L 110.97251 -193.359035 
L 108.1405 -262.447088 
L 105.308491 -110.376191 
L 102.476482 -232.193108 
L 99.644473 -237.705569 
L 96.812464 -195.832116 
L 93.980455 -66.849383 
z
" style="stroke: #ffffff; stroke-opacity: 0.5"/>
    </defs>
    <g clip-path="url(#p5637df0af4)">
     <use xlink:href="#m1f2bd71073" x="0" y="345.6" style="fill: #c44e52; fill-opacity: 0.5; stroke: #ffffff; stroke-opacity: 0.5"/>
    </g>
   </g>
   <g id="PolyCollection_5">
    <defs>
     <path id="m1b002df59c" d="M 93.980455 -65.455552 
L 93.980455 -197.590925 
L 96.812464 -310.631316 
L 99.644473 -304.594978 
L 102.476482 -258.886857 
L 105.308491 -222.049281 
L 108.1405 -248.582349 
L 110.97251 -297.095037 
L 113.804519 -230.566385 
L 116.636528 -312.537034 
L 119.468537 -291.322798 
L 122.300546 -297.802909 
L 125.132555 -300.221714 
L 127.964565 -297.186813 
L 130.796574 -296.382302 
L 133.628583 -314.363017 
L 136.460592 -300.75561 
L 139.292601 -284.538506 
L 142.12461 -298.803806 
L 144.95662 -302.243047 
L 147.788629 -296.648019 
L 150.620638 -296.134143 
L 153.452647 -296.245123 
L 156.284656 -303.486597 
L 159.116665 -299.233456 
L 161.948675 -301.749794 
L 164.780684 -300.212745 
L 167.612693 -300.212242 
L 170.444702 -303.594275 
L 173.276711 -301.61188 
L 176.10872 -299.858388 
L 178.94073 -297.133417 
L 181.772739 -300.436838 
L 184.604748 -296.543317 
L 187.436757 -294.049749 
L 190.268766 -297.619615 
L 193.100775 -311.367201 
L 195.932785 -297.640635 
L 198.764794 -299.121927 
L 201.596803 -296.685638 
L 204.428812 -296.484965 
L 207.260821 -299.721651 
L 210.09283 -301.014881 
L 212.92484 -298.828454 
L 215.756849 -300.000838 
L 218.588858 -299.297284 
L 221.420867 -305.168851 
L 224.252876 -298.680148 
L 227.084885 -298.775238 
L 229.916895 -294.93079 
L 232.748904 -294.784096 
L 235.580913 -298.316497 
L 238.412922 -298.812464 
L 241.244931 -298.244019 
L 244.07694 -296.192808 
L 246.90895 -301.262625 
L 249.740959 -295.440326 
L 252.572968 -296.802787 
L 255.404977 -297.657861 
L 258.236986 -290.669738 
L 261.068995 -298.836621 
L 263.901005 -301.682022 
L 266.733014 -289.163407 
L 269.565023 -294.019136 
L 272.397032 -295.914476 
L 275.229041 -289.078586 
L 278.06105 -282.522867 
L 280.89306 -304.239475 
L 283.725069 -291.142798 
L 286.557078 -267.733304 
L 289.389087 -209.130953 
L 292.221096 -257.450169 
L 295.053105 -292.875772 
L 297.885115 -289.341831 
L 300.717124 -293.36484 
L 303.549133 -273.614296 
L 306.381142 -233.75654 
L 309.213151 -253.366473 
L 312.04516 -290.052397 
L 314.87717 -284.353872 
L 317.709179 -285.991938 
L 320.541188 -228.575316 
L 323.373197 -213.814871 
L 326.205206 -297.803272 
L 329.037215 -237.893197 
L 331.869225 -299.491554 
L 334.701234 -216.500743 
L 337.533243 -251.551819 
L 340.365252 -289.319487 
L 343.197261 -262.173013 
L 346.02927 -243.115946 
L 348.86128 -282.80539 
L 351.693289 -203.729931 
L 354.525298 -234.44935 
L 357.357307 -203.411464 
L 360.189316 -193.491045 
L 363.021325 -189.883201 
L 365.853335 -207.108341 
L 368.685344 -203.373936 
L 371.517353 -211.241091 
L 374.349362 -205.528831 
L 377.181371 -206.984744 
L 380.01338 -194.813654 
L 382.84539 -184.404996 
L 385.677399 -197.246695 
L 388.509408 -202.200604 
L 391.341417 -203.40352 
L 394.173426 -189.858915 
L 397.005435 -83.618777 
L 399.837445 -191.604964 
L 402.669454 -178.911738 
L 405.501463 -193.480168 
L 408.333472 -196.764509 
L 411.165481 -210.276663 
L 413.99749 -191.285722 
L 416.8295 -205.413689 
L 419.661509 -210.310862 
L 422.493518 -211.462409 
L 425.325527 -203.583466 
L 428.157536 -207.618875 
L 430.989545 -201.461478 
L 430.989545 -64.620594 
L 430.989545 -64.620594 
L 428.157536 -186.779393 
L 425.325527 -66.03013 
L 422.493518 -64.433347 
L 419.661509 -64.657061 
L 416.8295 -66.918309 
L 413.99749 -65.064368 
L 411.165481 -64.433347 
L 408.333472 -64.433347 
L 405.501463 -64.665534 
L 402.669454 -64.571108 
L 399.837445 -66.446426 
L 397.005435 -64.433347 
L 394.173426 -64.479268 
L 391.341417 -71.052032 
L 388.509408 -66.885226 
L 385.677399 -64.433347 
L 382.84539 -64.819998 
L 380.01338 -65.182824 
L 377.181371 -65.776652 
L 374.349362 -65.353559 
L 371.517353 -66.947001 
L 368.685344 -64.433347 
L 365.853335 -68.558489 
L 363.021325 -64.433347 
L 360.189316 -71.06353 
L 357.357307 -64.573826 
L 354.525298 -64.479268 
L 351.693289 -64.433347 
L 348.86128 -68.232606 
L 346.02927 -64.693587 
L 343.197261 -64.531974 
L 340.365252 -66.293995 
L 337.533243 -123.000673 
L 334.701234 -64.433347 
L 331.869225 -69.641914 
L 329.037215 -96.998797 
L 326.205206 -201.80555 
L 323.373197 -64.479268 
L 320.541188 -64.528764 
L 317.709179 -140.518977 
L 314.87717 -67.599008 
L 312.04516 -69.526533 
L 309.213151 -80.312302 
L 306.381142 -86.754382 
L 303.549133 -64.527815 
L 300.717124 -90.72146 
L 297.885115 -83.624509 
L 295.053105 -64.479268 
L 292.221096 -74.99125 
L 289.389087 -64.479268 
L 286.557078 -141.289674 
L 283.725069 -66.004859 
L 280.89306 -65.495518 
L 278.06105 -71.717977 
L 275.229041 -239.000723 
L 272.397032 -65.98417 
L 269.565023 -158.960435 
L 266.733014 -64.479268 
L 263.901005 -65.24133 
L 261.068995 -127.41312 
L 258.236986 -183.931254 
L 255.404977 -118.098539 
L 252.572968 -66.466436 
L 249.740959 -266.879951 
L 246.90895 -226.25645 
L 244.07694 -198.307455 
L 241.244931 -239.088823 
L 238.412922 -236.317568 
L 235.580913 -215.04008 
L 232.748904 -83.536053 
L 229.916895 -117.261842 
L 227.084885 -201.916384 
L 224.252876 -251.106434 
L 221.420867 -209.960032 
L 218.588858 -233.158907 
L 215.756849 -196.067644 
L 212.92484 -293.38485 
L 210.09283 -108.369925 
L 207.260821 -232.676065 
L 204.428812 -270.498714 
L 201.596803 -145.790812 
L 198.764794 -191.687918 
L 195.932785 -64.570012 
L 193.100775 -256.294894 
L 190.268766 -184.658634 
L 187.436757 -202.06224 
L 184.604748 -220.478172 
L 181.772739 -238.818027 
L 178.94073 -255.79189 
L 176.10872 -276.608061 
L 173.276711 -196.450753 
L 170.444702 -225.557279 
L 167.612693 -231.565439 
L 164.780684 -201.578607 
L 161.948675 -204.015299 
L 159.116665 -120.386409 
L 156.284656 -241.675739 
L 153.452647 -285.011918 
L 150.620638 -212.685283 
L 147.788629 -224.322777 
L 144.95662 -246.677836 
L 142.12461 -96.930537 
L 139.292601 -211.561275 
L 136.460592 -207.95689 
L 133.628583 -291.818226 
L 130.796574 -215.442366 
L 127.964565 -198.418107 
L 125.132555 -101.202097 
L 122.300546 -95.58357 
L 119.468537 -216.37531 
L 116.636528 -144.300658 
L 113.804519 -81.119697 
L 110.97251 -154.946136 
L 108.1405 -64.525188 
L 105.308491 -64.433347 
L 102.476482 -200.211954 
L 99.644473 -64.479268 
L 96.812464 -74.200563 
L 93.980455 -65.455552 
z
" style="stroke: #ffffff; stroke-opacity: 0.5"/>
    </defs>
    <g clip-path="url(#p5637df0af4)">
     <use xlink:href="#m1b002df59c" x="0" y="345.6" style="fill: #8172b3; fill-opacity: 0.5; stroke: #ffffff; stroke-opacity: 0.5"/>
    </g>
   </g>
   <g id="PolyCollection_6">
    <defs>
     <path id="m8e1d9a6926" d="M 93.980455 -193.759009 
L 93.980455 -193.759009 
L 96.812464 -68.106958 
L 99.644473 -162.755056 
L 102.476482 -207.806728 
L 105.308491 -186.581013 
L 108.1405 -68.106958 
L 110.97251 -91.334534 
L 113.804519 -153.30697 
L 116.636528 -68.106958 
L 119.468537 -204.326784 
L 122.300546 -213.869122 
L 125.132555 -196.043598 
L 127.964565 -192.298636 
L 130.796574 -192.657816 
L 133.628583 -189.536857 
L 136.460592 -219.34077 
L 139.292601 -208.424679 
L 142.12461 -218.21817 
L 144.95662 -194.867155 
L 147.788629 -233.5088 
L 150.620638 -73.041342 
L 153.452647 -184.586359 
L 156.284656 -161.696285 
L 159.116665 -68.106958 
L 161.948675 -107.242389 
L 164.780684 -185.148985 
L 167.612693 -68.106958 
L 170.444702 -183.799174 
L 173.276711 -217.732571 
L 176.10872 -198.124501 
L 178.94073 -205.719063 
L 181.772739 -215.800016 
L 184.604748 -101.922587 
L 187.436757 -189.602738 
L 190.268766 -193.28282 
L 193.100775 -168.393558 
L 195.932785 -164.43272 
L 198.764794 -68.106958 
L 201.596803 -213.429173 
L 204.428812 -199.090208 
L 207.260821 -187.170857 
L 210.09283 -227.235645 
L 212.92484 -70.436646 
L 215.756849 -185.285675 
L 218.588858 -133.882009 
L 221.420867 -193.629612 
L 224.252876 -186.756474 
L 227.084885 -84.962037 
L 229.916895 -84.810475 
L 232.748904 -220.974559 
L 235.580913 -93.723095 
L 238.412922 -116.377034 
L 241.244931 -193.35629 
L 244.07694 -151.620435 
L 246.90895 -104.102946 
L 249.740959 -195.709223 
L 252.572968 -190.383431 
L 255.404977 -199.460569 
L 258.236986 -186.858101 
L 261.068995 -162.091972 
L 263.901005 -68.400784 
L 266.733014 -197.540609 
L 269.565023 -94.816407 
L 272.397032 -120.503171 
L 275.229041 -91.130781 
L 278.06105 -198.724744 
L 280.89306 -142.299362 
L 283.725069 -173.716357 
L 286.557078 -192.303305 
L 289.389087 -87.272397 
L 292.221096 -89.373595 
L 295.053105 -99.094869 
L 297.885115 -177.548901 
L 300.717124 -68.152878 
L 303.549133 -202.182183 
L 306.381142 -187.395487 
L 309.213151 -72.851226 
L 312.04516 -103.582855 
L 314.87717 -195.635812 
L 317.709179 -190.378089 
L 320.541188 -93.003607 
L 323.373197 -168.517777 
L 326.205206 -163.520739 
L 329.037215 -184.651918 
L 331.869225 -70.748338 
L 334.701234 -89.762302 
L 337.533243 -187.864651 
L 340.365252 -73.45387 
L 343.197261 -73.214434 
L 346.02927 -82.662488 
L 348.86128 -124.828682 
L 351.693289 -71.185204 
L 354.525298 -122.211056 
L 357.357307 -133.119486 
L 360.189316 -84.19914 
L 363.021325 -81.032384 
L 365.853335 -88.25594 
L 368.685344 -195.467863 
L 371.517353 -144.512528 
L 374.349362 -178.593376 
L 377.181371 -189.294702 
L 380.01338 -156.012161 
L 382.84539 -106.775765 
L 385.677399 -181.450756 
L 388.509408 -71.699445 
L 391.341417 -169.089599 
L 394.173426 -202.939822 
L 397.005435 -193.388506 
L 399.837445 -100.134119 
L 402.669454 -164.925822 
L 405.501463 -193.478014 
L 408.333472 -75.330075 
L 411.165481 -74.71035 
L 413.99749 -73.865816 
L 416.8295 -172.333121 
L 419.661509 -129.423546 
L 422.493518 -157.049056 
L 425.325527 -68.201517 
L 428.157536 -68.577789 
L 430.989545 -184.065749 
L 430.989545 -184.065749 
L 430.989545 -184.065749 
L 428.157536 -68.577789 
L 425.325527 -68.201517 
L 422.493518 -157.049056 
L 419.661509 -129.423546 
L 416.8295 -172.333121 
L 413.99749 -73.865816 
L 411.165481 -74.71035 
L 408.333472 -75.330075 
L 405.501463 -193.478014 
L 402.669454 -164.925822 
L 399.837445 -100.134119 
L 397.005435 -193.388506 
L 394.173426 -202.939822 
L 391.341417 -169.089599 
L 388.509408 -71.699445 
L 385.677399 -181.450756 
L 382.84539 -106.775765 
L 380.01338 -156.012161 
L 377.181371 -189.294702 
L 374.349362 -178.593376 
L 371.517353 -144.512528 
L 368.685344 -195.467863 
L 365.853335 -88.25594 
L 363.021325 -81.032384 
L 360.189316 -84.19914 
L 357.357307 -133.119486 
L 354.525298 -122.211056 
L 351.693289 -71.185204 
L 348.86128 -124.828682 
L 346.02927 -82.662488 
L 343.197261 -73.214434 
L 340.365252 -73.45387 
L 337.533243 -187.864651 
L 334.701234 -89.762302 
L 331.869225 -70.748338 
L 329.037215 -184.651918 
L 326.205206 -163.520739 
L 323.373197 -168.517777 
L 320.541188 -93.003607 
L 317.709179 -190.378089 
L 314.87717 -195.635812 
L 312.04516 -103.582855 
L 309.213151 -72.851226 
L 306.381142 -187.395487 
L 303.549133 -202.182183 
L 300.717124 -68.152878 
L 297.885115 -177.548901 
L 295.053105 -99.094869 
L 292.221096 -89.373595 
L 289.389087 -87.272397 
L 286.557078 -192.303305 
L 283.725069 -173.716357 
L 280.89306 -142.299362 
L 278.06105 -198.724744 
L 275.229041 -91.130781 
L 272.397032 -120.503171 
L 269.565023 -94.816407 
L 266.733014 -197.540609 
L 263.901005 -68.400784 
L 261.068995 -162.091972 
L 258.236986 -186.858101 
L 255.404977 -199.460569 
L 252.572968 -190.383431 
L 249.740959 -195.709223 
L 246.90895 -104.102946 
L 244.07694 -151.620435 
L 241.244931 -193.35629 
L 238.412922 -116.377034 
L 235.580913 -93.723095 
L 232.748904 -220.974559 
L 229.916895 -84.810475 
L 227.084885 -84.962037 
L 224.252876 -186.756474 
L 221.420867 -193.629612 
L 218.588858 -133.882009 
L 215.756849 -185.285675 
L 212.92484 -70.436646 
L 210.09283 -227.235645 
L 207.260821 -187.170857 
L 204.428812 -199.090208 
L 201.596803 -213.429173 
L 198.764794 -68.106958 
L 195.932785 -164.43272 
L 193.100775 -168.393558 
L 190.268766 -193.28282 
L 187.436757 -189.602738 
L 184.604748 -101.922587 
L 181.772739 -215.800016 
L 178.94073 -205.719063 
L 176.10872 -198.124501 
L 173.276711 -217.732571 
L 170.444702 -183.799174 
L 167.612693 -68.106958 
L 164.780684 -185.148985 
L 161.948675 -107.242389 
L 159.116665 -68.106958 
L 156.284656 -161.696285 
L 153.452647 -184.586359 
L 150.620638 -73.041342 
L 147.788629 -233.5088 
L 144.95662 -194.867155 
L 142.12461 -218.21817 
L 139.292601 -208.424679 
L 136.460592 -219.34077 
L 133.628583 -189.536857 
L 130.796574 -192.657816 
L 127.964565 -192.298636 
L 125.132555 -196.043598 
L 122.300546 -213.869122 
L 119.468537 -204.326784 
L 116.636528 -68.106958 
L 113.804519 -153.30697 
L 110.97251 -91.334534 
L 108.1405 -68.106958 
L 105.308491 -186.581013 
L 102.476482 -207.806728 
L 99.644473 -162.755056 
L 96.812464 -68.106958 
L 93.980455 -193.759009 
z
" style="stroke: #ffffff; stroke-opacity: 0.5"/>
    </defs>
    <g clip-path="url(#p5637df0af4)">
     <use xlink:href="#m8e1d9a6926" x="0" y="345.6" style="fill: #937860; fill-opacity: 0.5; stroke: #ffffff; stroke-opacity: 0.5"/>
    </g>
   </g>
   <g id="line2d_14">
    <path d="M 93.980455 41.280865 
L 96.812464 38.178057 
L 99.644473 44.421644 
L 102.476482 41.277459 
L 105.308491 45.434221 
L 108.1405 40.070598 
L 110.97251 57.51935 
L 113.804519 40.098858 
L 116.636528 45.249328 
L 119.468537 43.692498 
L 122.300546 60.253729 
L 125.132555 39.876452 
L 127.964565 82.473588 
L 130.796574 39.773865 
L 133.628583 39.944644 
L 136.460592 57.990505 
L 139.292601 58.112224 
L 142.12461 42.640118 
L 144.95662 79.523802 
L 147.788629 53.990474 
L 150.620638 46.937546 
L 153.452647 42.426288 
L 156.284656 53.798966 
L 159.116665 39.732629 
L 161.948675 53.353398 
L 164.780684 39.888498 
L 167.612693 61.143397 
L 170.444702 55.484529 
L 173.276711 39.788832 
L 176.10872 49.723708 
L 178.94073 66.63852 
L 181.772739 39.760382 
L 184.604748 95.64024 
L 187.436757 39.810145 
L 190.268766 77.77978 
L 193.100775 45.067977 
L 195.932785 40.894339 
L 198.764794 56.80298 
L 201.596803 52.235899 
L 204.428812 44.085528 
L 207.260821 59.324761 
L 210.09283 47.864062 
L 212.92484 63.442904 
L 215.756849 40.965648 
L 218.588858 55.805391 
L 221.420867 78.402582 
L 224.252876 76.61743 
L 227.084885 39.820332 
L 229.916895 55.497553 
L 232.748904 39.857561 
L 235.580913 77.302972 
L 238.412922 60.307958 
L 241.244931 39.805852 
L 244.07694 49.614746 
L 246.90895 45.003133 
L 249.740959 50.862606 
L 252.572968 39.940049 
L 255.404977 60.05816 
L 258.236986 56.177004 
L 261.068995 39.907264 
L 263.901005 45.906197 
L 266.733014 74.864521 
L 269.565023 39.819886 
L 272.397032 42.908921 
L 275.229041 56.320017 
L 278.06105 43.859101 
L 280.89306 39.802339 
L 283.725069 41.705648 
L 286.557078 62.083057 
L 289.389087 63.523668 
L 292.221096 42.16692 
L 295.053105 46.8226 
L 297.885115 60.261633 
L 300.717124 60.695387 
L 303.549133 58.747167 
L 306.381142 41.846229 
L 309.213151 83.835759 
L 312.04516 73.037146 
L 314.87717 61.184566 
L 317.709179 51.390379 
L 320.541188 82.717362 
L 323.373197 39.846558 
L 326.205206 67.437433 
L 329.037215 39.725516 
L 331.869225 47.81784 
L 334.701234 40.563059 
L 337.533243 65.964308 
L 340.365252 39.904783 
L 343.197261 86.438266 
L 346.02927 56.110238 
L 348.86128 69.225401 
L 351.693289 50.331695 
L 354.525298 54.613173 
L 357.357307 39.822381 
L 360.189316 73.407923 
L 363.021325 39.795812 
L 365.853335 65.48332 
L 368.685344 59.399398 
L 371.517353 69.770494 
L 374.349362 40.176836 
L 377.181371 41.585658 
L 380.01338 45.468767 
L 382.84539 41.980606 
L 385.677399 51.560589 
L 388.509408 43.803035 
L 391.341417 92.640049 
L 394.173426 45.855234 
L 397.005435 95.060756 
L 399.837445 76.163809 
L 402.669454 49.643115 
L 405.501463 50.407013 
L 408.333472 46.09744 
L 411.165481 92.884955 
L 413.99749 51.723133 
L 416.8295 76.120938 
L 419.661509 42.699205 
L 422.493518 55.593824 
L 425.325527 58.660543 
L 428.157536 75.198265 
L 430.989545 91.104736 
" clip-path="url(#p5637df0af4)" style="fill: none; stroke: #4c72b0; stroke-width: 3; stroke-linecap: round"/>
   </g>
   <g id="line2d_15">
    <path d="M 93.980455 69.775033 
L 96.812464 40.468094 
L 99.644473 41.401327 
L 102.476482 40.368576 
L 105.308491 44.852768 
L 108.1405 65.916589 
L 110.97251 40.363231 
L 113.804519 62.33293 
L 116.636528 40.362745 
L 119.468537 40.970536 
L 122.300546 53.739392 
L 125.132555 60.721877 
L 127.964565 40.260627 
L 130.796574 51.288166 
L 133.628583 48.784017 
L 136.460592 52.574095 
L 139.292601 41.237232 
L 142.12461 40.299265 
L 144.95662 49.723697 
L 147.788629 40.258483 
L 150.620638 57.655254 
L 153.452647 72.857078 
L 156.284656 80.865808 
L 159.116665 63.157711 
L 161.948675 70.392539 
L 164.780684 40.420353 
L 167.612693 62.636538 
L 170.444702 81.206409 
L 173.276711 43.530365 
L 176.10872 40.111308 
L 178.94073 40.379001 
L 181.772739 58.643267 
L 184.604748 42.210527 
L 187.436757 53.82857 
L 190.268766 62.590543 
L 193.100775 40.903998 
L 195.932785 49.840251 
L 198.764794 64.153914 
L 201.596803 62.311465 
L 204.428812 43.551139 
L 207.260821 43.045339 
L 210.09283 57.876679 
L 212.92484 58.898918 
L 215.756849 40.246875 
L 218.588858 50.83017 
L 221.420867 42.352919 
L 224.252876 55.991114 
L 227.084885 43.389266 
L 229.916895 55.951554 
L 232.748904 70.930432 
L 235.580913 81.440782 
L 238.412922 42.840955 
L 241.244931 81.020065 
L 244.07694 68.812284 
L 246.90895 75.724963 
L 249.740959 48.633891 
L 252.572968 50.603165 
L 255.404977 74.997017 
L 258.236986 57.686641 
L 261.068995 40.125282 
L 263.901005 52.291327 
L 266.733014 54.966119 
L 269.565023 79.425958 
L 272.397032 40.35273 
L 275.229041 48.730221 
L 278.06105 58.702912 
L 280.89306 40.59401 
L 283.725069 40.344994 
L 286.557078 49.877173 
L 289.389087 40.635189 
L 292.221096 58.145161 
L 295.053105 53.366078 
L 297.885115 77.363085 
L 300.717124 44.959164 
L 303.549133 43.013792 
L 306.381142 88.446548 
L 309.213151 57.093823 
L 312.04516 65.033723 
L 314.87717 70.700962 
L 317.709179 45.435831 
L 320.541188 58.238446 
L 323.373197 78.97686 
L 326.205206 45.575889 
L 329.037215 59.121466 
L 331.869225 48.491796 
L 334.701234 56.707641 
L 337.533243 50.896308 
L 340.365252 41.640458 
L 343.197261 58.381943 
L 346.02927 40.942938 
L 348.86128 80.208358 
L 351.693289 95.89319 
L 354.525298 81.431741 
L 357.357307 44.480818 
L 360.189316 44.281581 
L 363.021325 46.314476 
L 365.853335 70.790284 
L 368.685344 66.026784 
L 371.517353 64.368266 
L 374.349362 84.306846 
L 377.181371 51.827205 
L 380.01338 65.297164 
L 382.84539 40.390022 
L 385.677399 54.707284 
L 388.509408 78.009678 
L 391.341417 83.992894 
L 394.173426 46.361085 
L 397.005435 45.632523 
L 399.837445 86.177175 
L 402.669454 63.300414 
L 405.501463 51.064636 
L 408.333472 62.151011 
L 411.165481 78.368349 
L 413.99749 40.325555 
L 416.8295 74.213126 
L 419.661509 65.410782 
L 422.493518 64.261037 
L 425.325527 51.863741 
L 428.157536 49.957939 
L 430.989545 59.683932 
" clip-path="url(#p5637df0af4)" style="fill: none; stroke: #dd8452; stroke-width: 3; stroke-linecap: round"/>
   </g>
   <g id="line2d_16">
    <path d="M 93.980455 100.473248 
L 96.812464 62.396223 
L 99.644473 47.996842 
L 102.476482 58.55361 
L 105.308491 75.750204 
L 108.1405 78.208504 
L 110.97251 59.121336 
L 113.804519 41.581191 
L 116.636528 44.595874 
L 119.468537 69.156796 
L 122.300546 58.461319 
L 125.132555 63.779654 
L 127.964565 43.469922 
L 130.796574 41.910619 
L 133.628583 44.461285 
L 136.460592 41.915443 
L 139.292601 75.033161 
L 142.12461 47.896722 
L 144.95662 40.335873 
L 147.788629 41.544711 
L 150.620638 58.316297 
L 153.452647 43.642009 
L 156.284656 62.412016 
L 159.116665 49.806966 
L 161.948675 58.31165 
L 164.780684 42.004098 
L 167.612693 51.169841 
L 170.444702 60.793489 
L 173.276711 58.605666 
L 176.10872 74.339632 
L 178.94073 53.115078 
L 181.772739 69.338078 
L 184.604748 48.036913 
L 187.436757 41.518024 
L 190.268766 59.937476 
L 193.100775 41.114858 
L 195.932785 44.103305 
L 198.764794 42.016148 
L 201.596803 49.265347 
L 204.428812 64.185786 
L 207.260821 40.696766 
L 210.09283 61.191809 
L 212.92484 55.211563 
L 215.756849 45.264096 
L 218.588858 57.885638 
L 221.420867 52.111057 
L 224.252876 42.610833 
L 227.084885 50.744533 
L 229.916895 60.286513 
L 232.748904 49.243607 
L 235.580913 76.04209 
L 238.412922 94.746956 
L 241.244931 65.848552 
L 244.07694 99.629936 
L 246.90895 45.643263 
L 249.740959 47.405237 
L 252.572968 50.500241 
L 255.404977 67.9445 
L 258.236986 72.521322 
L 261.068995 90.737238 
L 263.901005 93.851741 
L 266.733014 50.297651 
L 269.565023 57.415296 
L 272.397032 72.144031 
L 275.229041 47.822879 
L 278.06105 50.535877 
L 280.89306 82.631025 
L 283.725069 106.504534 
L 286.557078 64.660138 
L 289.389087 75.117064 
L 292.221096 126.223606 
L 295.053105 70.886223 
L 297.885115 59.979242 
L 300.717124 68.297829 
L 303.549133 75.378164 
L 306.381142 100.809369 
L 309.213151 77.254337 
L 312.04516 70.534393 
L 314.87717 62.377107 
L 317.709179 49.914898 
L 320.541188 77.617753 
L 323.373197 95.225175 
L 326.205206 89.863455 
L 329.037215 52.246244 
L 331.869225 69.141043 
L 334.701234 47.068952 
L 337.533243 108.641295 
L 340.365252 101.003217 
L 343.197261 50.318181 
L 346.02927 77.651588 
L 348.86128 131.980956 
L 351.693289 74.080562 
L 354.525298 77.800861 
L 357.357307 118.897288 
L 360.189316 87.10647 
L 363.021325 160.84383 
L 365.853335 109.468369 
L 368.685344 85.237724 
L 371.517353 94.095886 
L 374.349362 87.45849 
L 377.181371 125.519541 
L 380.01338 110.19069 
L 382.84539 117.264851 
L 385.677399 131.999674 
L 388.509408 171.53315 
L 391.341417 130.232113 
L 394.173426 107.120952 
L 397.005435 87.696898 
L 399.837445 164.315325 
L 402.669454 143.230991 
L 405.501463 163.146241 
L 408.333472 154.583929 
L 411.165481 136.611771 
L 413.99749 150.596075 
L 416.8295 138.551679 
L 419.661509 196.751582 
L 422.493518 205.969993 
L 425.325527 168.500001 
L 428.157536 172.012407 
L 430.989545 170.033415 
" clip-path="url(#p5637df0af4)" style="fill: none; stroke: #55a868; stroke-width: 3; stroke-linecap: round"/>
   </g>
   <g id="line2d_17">
    <path d="M 93.980455 197.670305 
L 96.812464 119.378134 
L 99.644473 82.454683 
L 102.476482 66.654429 
L 105.308491 121.090871 
L 108.1405 62.450936 
L 110.97251 74.407687 
L 113.804519 59.406023 
L 116.636528 51.029113 
L 119.468537 90.058676 
L 122.300546 45.88588 
L 125.132555 62.368877 
L 127.964565 86.773627 
L 130.796574 61.762353 
L 133.628583 62.855905 
L 136.460592 68.849642 
L 139.292601 70.393614 
L 142.12461 62.312991 
L 144.95662 50.990303 
L 147.788629 93.140947 
L 150.620638 68.156439 
L 153.452647 66.015331 
L 156.284656 65.408187 
L 159.116665 64.821087 
L 161.948675 75.459745 
L 164.780684 69.305777 
L 167.612693 49.468309 
L 170.444702 43.525946 
L 173.276711 63.834978 
L 176.10872 63.136384 
L 178.94073 75.76105 
L 181.772739 58.935951 
L 184.604748 79.347672 
L 187.436757 43.031518 
L 190.268766 57.033738 
L 193.100775 53.229139 
L 195.932785 63.952479 
L 198.764794 50.056087 
L 201.596803 54.440929 
L 204.428812 72.299262 
L 207.260821 64.700917 
L 210.09283 66.049305 
L 212.92484 114.376136 
L 215.756849 52.764658 
L 218.588858 79.711588 
L 221.420867 61.570402 
L 224.252876 58.716046 
L 227.084885 72.607676 
L 229.916895 47.910794 
L 232.748904 45.450769 
L 235.580913 66.028189 
L 238.412922 50.043745 
L 241.244931 57.496445 
L 244.07694 72.338829 
L 246.90895 81.709094 
L 249.740959 62.320751 
L 252.572968 83.041454 
L 255.404977 68.626627 
L 258.236986 61.578454 
L 261.068995 46.701 
L 263.901005 74.105578 
L 266.733014 83.424554 
L 269.565023 53.67193 
L 272.397032 91.112931 
L 275.229041 159.10936 
L 278.06105 82.918689 
L 280.89306 92.661047 
L 283.725069 123.374044 
L 286.557078 61.162763 
L 289.389087 73.264327 
L 292.221096 104.165432 
L 295.053105 60.442158 
L 297.885115 109.986401 
L 300.717124 61.793641 
L 303.549133 106.326071 
L 306.381142 161.785966 
L 309.213151 125.948699 
L 312.04516 96.432838 
L 314.87717 141.860222 
L 317.709179 153.871471 
L 320.541188 134.671525 
L 323.373197 96.624226 
L 326.205206 115.896637 
L 329.037215 119.894247 
L 331.869225 72.014012 
L 334.701234 128.917066 
L 337.533243 157.121415 
L 340.365252 110.874862 
L 343.197261 165.406572 
L 346.02927 134.088096 
L 348.86128 151.576084 
L 351.693289 164.385453 
L 354.525298 201.172982 
L 357.357307 222.115574 
L 360.189316 194.356295 
L 363.021325 191.419859 
L 365.853335 197.713217 
L 368.685344 204.55942 
L 371.517353 231.908493 
L 374.349362 232.300042 
L 377.181371 215.702944 
L 380.01338 250.070334 
L 382.84539 238.023711 
L 385.677399 165.008659 
L 388.509408 190.849465 
L 391.341417 190.09987 
L 394.173426 187.845497 
L 397.005435 257.932794 
L 399.837445 195.088866 
L 402.669454 209.813711 
L 405.501463 231.317712 
L 408.333472 202.325939 
L 411.165481 201.832637 
L 413.99749 241.992325 
L 416.8295 245.214151 
L 419.661509 208.042587 
L 422.493518 219.319659 
L 425.325527 251.993139 
L 428.157536 200.239385 
L 430.989545 261.775272 
" clip-path="url(#p5637df0af4)" style="fill: none; stroke: #c44e52; stroke-width: 3; stroke-linecap: round"/>
   </g>
   <g id="line2d_18">
    <path d="M 93.980455 213.123344 
L 96.812464 142.17328 
L 99.644473 128.318116 
L 102.476482 109.500375 
L 105.308491 192.459417 
L 108.1405 152.290225 
L 110.97251 103.434217 
L 113.804519 192.142869 
L 116.636528 100.426865 
L 119.468537 95.793732 
L 122.300546 97.739114 
L 125.132555 125.707099 
L 127.964565 100.194349 
L 130.796574 71.614455 
L 133.628583 46.534452 
L 136.460592 94.848425 
L 139.292601 93.277983 
L 142.12461 107.581063 
L 144.95662 69.297582 
L 147.788629 73.271673 
L 150.620638 75.603495 
L 153.452647 56.458828 
L 156.284656 59.747361 
L 159.116665 85.617089 
L 161.948675 78.444442 
L 164.780684 84.51262 
L 167.612693 62.455382 
L 170.444702 86.809378 
L 173.276711 100.48019 
L 176.10872 55.030857 
L 178.94073 59.505047 
L 181.772739 69.357923 
L 184.604748 83.98854 
L 187.436757 78.230622 
L 190.268766 111.034086 
L 193.100775 53.793738 
L 195.932785 114.0175 
L 198.764794 91.678039 
L 201.596803 88.629872 
L 204.428812 63.742452 
L 207.260821 71.676073 
L 210.09283 84.960718 
L 212.92484 49.137142 
L 215.756849 72.9349 
L 218.588858 68.202116 
L 221.420867 74.953487 
L 224.252876 65.328747 
L 227.084885 92.552574 
L 229.916895 133.056101 
L 232.748904 124.182145 
L 235.580913 70.108889 
L 238.412922 68.687155 
L 241.244931 62.154098 
L 244.07694 81.17088 
L 246.90895 70.374199 
L 249.740959 65.4333 
L 252.572968 101.155727 
L 255.404977 141.212735 
L 258.236986 98.921009 
L 261.068995 111.402899 
L 263.901005 159.220231 
L 266.733014 177.677537 
L 269.565023 108.582417 
L 272.397032 114.941565 
L 275.229041 71.65257 
L 278.06105 117.206874 
L 280.89306 112.8581 
L 283.725069 147.516045 
L 286.557078 130.560063 
L 289.389087 201.941528 
L 292.221096 190.016353 
L 295.053105 192.875349 
L 297.885115 184.161943 
L 300.717124 129.220548 
L 303.549133 220.484613 
L 306.381142 166.49598 
L 309.213151 157.118405 
L 312.04516 161.467409 
L 314.87717 160.503708 
L 317.709179 147.467442 
L 320.541188 184.620324 
L 323.373197 194.016497 
L 326.205206 115.808749 
L 329.037215 194.70953 
L 331.869225 127.091241 
L 334.701234 212.543296 
L 337.533243 141.610026 
L 340.365252 174.856414 
L 343.197261 186.0482 
L 346.02927 206.632608 
L 348.86128 202.15786 
L 351.693289 176.951019 
L 354.525298 221.537143 
L 357.357307 223.015394 
L 360.189316 221.672172 
L 363.021325 221.678068 
L 365.853335 214.052985 
L 368.685344 193.748727 
L 371.517353 189.969635 
L 374.349362 225.230627 
L 377.181371 204.460597 
L 380.01338 221.180307 
L 382.84539 232.426257 
L 385.677399 229.546636 
L 388.509408 204.820927 
L 391.341417 219.515271 
L 394.173426 208.603801 
L 397.005435 276.772501 
L 399.837445 195.663066 
L 402.669454 234.711865 
L 405.501463 210.590047 
L 408.333472 230.359179 
L 411.165481 228.577085 
L 413.99749 234.993524 
L 416.8295 182.113343 
L 419.661509 228.364844 
L 422.493518 251.105207 
L 425.325527 186.20359 
L 428.157536 152.795786 
L 430.989545 197.359771 
" clip-path="url(#p5637df0af4)" style="fill: none; stroke: #8172b3; stroke-width: 3; stroke-linecap: round"/>
   </g>
   <g id="line2d_19">
    <path d="M 93.980455 151.840991 
L 96.812464 277.493042 
L 99.644473 182.844944 
L 102.476482 137.793272 
L 105.308491 159.018987 
L 108.1405 277.493042 
L 110.97251 254.265466 
L 113.804519 192.29303 
L 116.636528 277.493042 
L 119.468537 141.273216 
L 122.300546 131.730878 
L 125.132555 149.556402 
L 127.964565 153.301364 
L 130.796574 152.942184 
L 133.628583 156.063143 
L 136.460592 126.25923 
L 139.292601 137.175321 
L 142.12461 127.38183 
L 144.95662 150.732845 
L 147.788629 112.0912 
L 150.620638 272.558658 
L 153.452647 161.013641 
L 156.284656 183.903715 
L 159.116665 277.493042 
L 161.948675 238.357611 
L 164.780684 160.451015 
L 167.612693 277.493042 
L 170.444702 161.800826 
L 173.276711 127.867429 
L 176.10872 147.475499 
L 178.94073 139.880937 
L 181.772739 129.799984 
L 184.604748 243.677413 
L 187.436757 155.997262 
L 190.268766 152.31718 
L 193.100775 177.206442 
L 195.932785 181.16728 
L 198.764794 277.493042 
L 201.596803 132.170827 
L 204.428812 146.509792 
L 207.260821 158.429143 
L 210.09283 118.364355 
L 212.92484 275.163354 
L 215.756849 160.314325 
L 218.588858 211.717991 
L 221.420867 151.970388 
L 224.252876 158.843526 
L 227.084885 260.637963 
L 229.916895 260.789525 
L 232.748904 124.625441 
L 235.580913 251.876905 
L 238.412922 229.222966 
L 241.244931 152.24371 
L 244.07694 193.979565 
L 246.90895 241.497054 
L 249.740959 149.890777 
L 252.572968 155.216569 
L 255.404977 146.139431 
L 258.236986 158.741899 
L 261.068995 183.508028 
L 263.901005 277.199216 
L 266.733014 148.059391 
L 269.565023 250.783593 
L 272.397032 225.096829 
L 275.229041 254.469219 
L 278.06105 146.875256 
L 280.89306 203.300638 
L 283.725069 171.883643 
L 286.557078 153.296695 
L 289.389087 258.327603 
L 292.221096 256.226405 
L 295.053105 246.505131 
L 297.885115 168.051099 
L 300.717124 277.447122 
L 303.549133 143.417817 
L 306.381142 158.204513 
L 309.213151 272.748774 
L 312.04516 242.017145 
L 314.87717 149.964188 
L 317.709179 155.221911 
L 320.541188 252.596393 
L 323.373197 177.082223 
L 326.205206 182.079261 
L 329.037215 160.948082 
L 331.869225 274.851662 
L 334.701234 255.837698 
L 337.533243 157.735349 
L 340.365252 272.14613 
L 343.197261 272.385566 
L 346.02927 262.937512 
L 348.86128 220.771318 
L 351.693289 274.414796 
L 354.525298 223.388944 
L 357.357307 212.480514 
L 360.189316 261.40086 
L 363.021325 264.567616 
L 365.853335 257.34406 
L 368.685344 150.132137 
L 371.517353 201.087472 
L 374.349362 167.006624 
L 377.181371 156.305298 
L 380.01338 189.587839 
L 382.84539 238.824235 
L 385.677399 164.149244 
L 388.509408 273.900555 
L 391.341417 176.510401 
L 394.173426 142.660178 
L 397.005435 152.211494 
L 399.837445 245.465881 
L 402.669454 180.674178 
L 405.501463 152.121986 
L 408.333472 270.269925 
L 411.165481 270.88965 
L 413.99749 271.734184 
L 416.8295 173.266879 
L 419.661509 216.176454 
L 422.493518 188.550944 
L 425.325527 277.398483 
L 428.157536 277.022211 
L 430.989545 161.534251 
" clip-path="url(#p5637df0af4)" style="fill: none; stroke: #937860; stroke-width: 3; stroke-linecap: round"/>
   </g>
   <g id="patch_3">
    <path d="M 77.13 294.66 
L 77.13 12.96 
" style="fill: none; stroke: #ffffff; stroke-width: 1.25; stroke-linejoin: miter; stroke-linecap: square"/>
   </g>
   <g id="patch_4">
    <path d="M 447.84 294.66 
L 447.84 12.96 
" style="fill: none; stroke: #ffffff; stroke-width: 1.25; stroke-linejoin: miter; stroke-linecap: square"/>
   </g>
   <g id="patch_5">
    <path d="M 77.13 294.66 
L 447.84 294.66 
" style="fill: none; stroke: #ffffff; stroke-width: 1.25; stroke-linejoin: miter; stroke-linecap: square"/>
   </g>
   <g id="patch_6">
    <path d="M 77.13 12.96 
L 447.84 12.96 
" style="fill: none; stroke: #ffffff; stroke-width: 1.25; stroke-linejoin: miter; stroke-linecap: square"/>
   </g>
   <g id="legend_1">
    <g id="patch_7">
     <path d="M 84.83 289.16 
L 239.070625 289.16 
Q 241.270625 289.16 241.270625 286.96 
L 241.270625 191.184375 
Q 241.270625 188.984375 239.070625 188.984375 
L 84.83 188.984375 
Q 82.63 188.984375 82.63 191.184375 
L 82.63 286.96 
Q 82.63 289.16 84.83 289.16 
z
" style="fill: #eaeaf2; opacity: 0.8; stroke: #cccccc; stroke-linejoin: miter"/>
    </g>
    <g id="line2d_20">
     <path d="M 87.03 197.892656 
L 98.03 197.892656 
L 109.03 197.892656 
" style="fill: none; stroke: #4c72b0; stroke-width: 3; stroke-linecap: round"/>
    </g>
    <g id="text_16">
     <!-- DATS-DELAY-0 -->
     <g style="fill: #262626" transform="translate(117.83 201.742656)scale(0.11 -0.11)">
      <defs>
       <path id="DejaVuSans-44" d="M 1259 4147 
L 1259 519 
L 2022 519 
Q 2988 519 3436 956 
Q 3884 1394 3884 2338 
Q 3884 3275 3436 3711 
Q 2988 4147 2022 4147 
L 1259 4147 
z
M 628 4666 
L 1925 4666 
Q 3281 4666 3915 4102 
Q 4550 3538 4550 2338 
Q 4550 1131 3912 565 
Q 3275 0 1925 0 
L 628 0 
L 628 4666 
z
" transform="scale(0.015625)"/>
       <path id="DejaVuSans-41" d="M 2188 4044 
L 1331 1722 
L 3047 1722 
L 2188 4044 
z
M 1831 4666 
L 2547 4666 
L 4325 0 
L 3669 0 
L 3244 1197 
L 1141 1197 
L 716 0 
L 50 0 
L 1831 4666 
z
" transform="scale(0.015625)"/>
       <path id="DejaVuSans-54" d="M -19 4666 
L 3928 4666 
L 3928 4134 
L 2272 4134 
L 2272 0 
L 1638 0 
L 1638 4134 
L -19 4134 
L -19 4666 
z
" transform="scale(0.015625)"/>
       <path id="DejaVuSans-53" d="M 3425 4513 
L 3425 3897 
Q 3066 4069 2747 4153 
Q 2428 4238 2131 4238 
Q 1616 4238 1336 4038 
Q 1056 3838 1056 3469 
Q 1056 3159 1242 3001 
Q 1428 2844 1947 2747 
L 2328 2669 
Q 3034 2534 3370 2195 
Q 3706 1856 3706 1288 
Q 3706 609 3251 259 
Q 2797 -91 1919 -91 
Q 1588 -91 1214 -16 
Q 841 59 441 206 
L 441 856 
Q 825 641 1194 531 
Q 1563 422 1919 422 
Q 2459 422 2753 634 
Q 3047 847 3047 1241 
Q 3047 1584 2836 1778 
Q 2625 1972 2144 2069 
L 1759 2144 
Q 1053 2284 737 2584 
Q 422 2884 422 3419 
Q 422 4038 858 4394 
Q 1294 4750 2059 4750 
Q 2388 4750 2728 4690 
Q 3069 4631 3425 4513 
z
" transform="scale(0.015625)"/>
       <path id="DejaVuSans-2d" d="M 313 2009 
L 1997 2009 
L 1997 1497 
L 313 1497 
L 313 2009 
z
" transform="scale(0.015625)"/>
       <path id="DejaVuSans-45" d="M 628 4666 
L 3578 4666 
L 3578 4134 
L 1259 4134 
L 1259 2753 
L 3481 2753 
L 3481 2222 
L 1259 2222 
L 1259 531 
L 3634 531 
L 3634 0 
L 628 0 
L 628 4666 
z
" transform="scale(0.015625)"/>
       <path id="DejaVuSans-4c" d="M 628 4666 
L 1259 4666 
L 1259 531 
L 3531 531 
L 3531 0 
L 628 0 
L 628 4666 
z
" transform="scale(0.015625)"/>
       <path id="DejaVuSans-59" d="M -13 4666 
L 666 4666 
L 1959 2747 
L 3244 4666 
L 3922 4666 
L 2272 2222 
L 2272 0 
L 1638 0 
L 1638 2222 
L -13 4666 
z
" transform="scale(0.015625)"/>
      </defs>
      <use xlink:href="#DejaVuSans-44"/>
      <use xlink:href="#DejaVuSans-41" x="75.251953"/>
      <use xlink:href="#DejaVuSans-54" x="135.910156"/>
      <use xlink:href="#DejaVuSans-53" x="196.994141"/>
      <use xlink:href="#DejaVuSans-2d" x="260.470703"/>
      <use xlink:href="#DejaVuSans-44" x="296.554688"/>
      <use xlink:href="#DejaVuSans-45" x="373.556641"/>
      <use xlink:href="#DejaVuSans-4c" x="436.740234"/>
      <use xlink:href="#DejaVuSans-41" x="494.703125"/>
      <use xlink:href="#DejaVuSans-59" x="555.361328"/>
      <use xlink:href="#DejaVuSans-2d" x="604.570312"/>
      <use xlink:href="#DejaVuSans-30" x="640.654297"/>
     </g>
    </g>
    <g id="line2d_21">
     <path d="M 87.03 214.038594 
L 98.03 214.038594 
L 109.03 214.038594 
" style="fill: none; stroke: #dd8452; stroke-width: 3; stroke-linecap: round"/>
    </g>
    <g id="text_17">
     <!-- DATS-DELAY-1 -->
     <g style="fill: #262626" transform="translate(117.83 217.888594)scale(0.11 -0.11)">
      <use xlink:href="#DejaVuSans-44"/>
      <use xlink:href="#DejaVuSans-41" x="75.251953"/>
      <use xlink:href="#DejaVuSans-54" x="135.910156"/>
      <use xlink:href="#DejaVuSans-53" x="196.994141"/>
      <use xlink:href="#DejaVuSans-2d" x="260.470703"/>
      <use xlink:href="#DejaVuSans-44" x="296.554688"/>
      <use xlink:href="#DejaVuSans-45" x="373.556641"/>
      <use xlink:href="#DejaVuSans-4c" x="436.740234"/>
      <use xlink:href="#DejaVuSans-41" x="494.703125"/>
      <use xlink:href="#DejaVuSans-59" x="555.361328"/>
      <use xlink:href="#DejaVuSans-2d" x="604.570312"/>
      <use xlink:href="#DejaVuSans-31" x="640.654297"/>
     </g>
    </g>
    <g id="line2d_22">
     <path d="M 87.03 230.184531 
L 98.03 230.184531 
L 109.03 230.184531 
" style="fill: none; stroke: #55a868; stroke-width: 3; stroke-linecap: round"/>
    </g>
    <g id="text_18">
     <!-- DATS-DELAY-5 -->
     <g style="fill: #262626" transform="translate(117.83 234.034531)scale(0.11 -0.11)">
      <use xlink:href="#DejaVuSans-44"/>
      <use xlink:href="#DejaVuSans-41" x="75.251953"/>
      <use xlink:href="#DejaVuSans-54" x="135.910156"/>
      <use xlink:href="#DejaVuSans-53" x="196.994141"/>
      <use xlink:href="#DejaVuSans-2d" x="260.470703"/>
      <use xlink:href="#DejaVuSans-44" x="296.554688"/>
      <use xlink:href="#DejaVuSans-45" x="373.556641"/>
      <use xlink:href="#DejaVuSans-4c" x="436.740234"/>
      <use xlink:href="#DejaVuSans-41" x="494.703125"/>
      <use xlink:href="#DejaVuSans-59" x="555.361328"/>
      <use xlink:href="#DejaVuSans-2d" x="604.570312"/>
      <use xlink:href="#DejaVuSans-35" x="640.654297"/>
     </g>
    </g>
    <g id="line2d_23">
     <path d="M 87.03 246.330469 
L 98.03 246.330469 
L 109.03 246.330469 
" style="fill: none; stroke: #c44e52; stroke-width: 3; stroke-linecap: round"/>
    </g>
    <g id="text_19">
     <!-- DATS-DELAY-10 -->
     <g style="fill: #262626" transform="translate(117.83 250.180469)scale(0.11 -0.11)">
      <use xlink:href="#DejaVuSans-44"/>
      <use xlink:href="#DejaVuSans-41" x="75.251953"/>
      <use xlink:href="#DejaVuSans-54" x="135.910156"/>
      <use xlink:href="#DejaVuSans-53" x="196.994141"/>
      <use xlink:href="#DejaVuSans-2d" x="260.470703"/>
      <use xlink:href="#DejaVuSans-44" x="296.554688"/>
      <use xlink:href="#DejaVuSans-45" x="373.556641"/>
      <use xlink:href="#DejaVuSans-4c" x="436.740234"/>
      <use xlink:href="#DejaVuSans-41" x="494.703125"/>
      <use xlink:href="#DejaVuSans-59" x="555.361328"/>
      <use xlink:href="#DejaVuSans-2d" x="604.570312"/>
      <use xlink:href="#DejaVuSans-31" x="640.654297"/>
      <use xlink:href="#DejaVuSans-30" x="704.277344"/>
     </g>
    </g>
    <g id="line2d_24">
     <path d="M 87.03 262.476406 
L 98.03 262.476406 
L 109.03 262.476406 
" style="fill: none; stroke: #8172b3; stroke-width: 3; stroke-linecap: round"/>
    </g>
    <g id="text_20">
     <!-- DATS-DELAY-20 -->
     <g style="fill: #262626" transform="translate(117.83 266.326406)scale(0.11 -0.11)">
      <use xlink:href="#DejaVuSans-44"/>
      <use xlink:href="#DejaVuSans-41" x="75.251953"/>
      <use xlink:href="#DejaVuSans-54" x="135.910156"/>
      <use xlink:href="#DejaVuSans-53" x="196.994141"/>
      <use xlink:href="#DejaVuSans-2d" x="260.470703"/>
      <use xlink:href="#DejaVuSans-44" x="296.554688"/>
      <use xlink:href="#DejaVuSans-45" x="373.556641"/>
      <use xlink:href="#DejaVuSans-4c" x="436.740234"/>
      <use xlink:href="#DejaVuSans-41" x="494.703125"/>
      <use xlink:href="#DejaVuSans-59" x="555.361328"/>
      <use xlink:href="#DejaVuSans-2d" x="604.570312"/>
      <use xlink:href="#DejaVuSans-32" x="640.654297"/>
      <use xlink:href="#DejaVuSans-30" x="704.277344"/>
     </g>
    </g>
    <g id="line2d_25">
     <path d="M 87.03 278.622344 
L 98.03 278.622344 
L 109.03 278.622344 
" style="fill: none; stroke: #937860; stroke-width: 3; stroke-linecap: round"/>
    </g>
    <g id="text_21">
     <!-- DATS-DELAY-100-GPU -->
     <g style="fill: #262626" transform="translate(117.83 282.472344)scale(0.11 -0.11)">
      <defs>
       <path id="DejaVuSans-47" d="M 3809 666 
L 3809 1919 
L 2778 1919 
L 2778 2438 
L 4434 2438 
L 4434 434 
Q 4069 175 3628 42 
Q 3188 -91 2688 -91 
Q 1594 -91 976 548 
Q 359 1188 359 2328 
Q 359 3472 976 4111 
Q 1594 4750 2688 4750 
Q 3144 4750 3555 4637 
Q 3966 4525 4313 4306 
L 4313 3634 
Q 3963 3931 3569 4081 
Q 3175 4231 2741 4231 
Q 1884 4231 1454 3753 
Q 1025 3275 1025 2328 
Q 1025 1384 1454 906 
Q 1884 428 2741 428 
Q 3075 428 3337 486 
Q 3600 544 3809 666 
z
" transform="scale(0.015625)"/>
       <path id="DejaVuSans-50" d="M 1259 4147 
L 1259 2394 
L 2053 2394 
Q 2494 2394 2734 2622 
Q 2975 2850 2975 3272 
Q 2975 3691 2734 3919 
Q 2494 4147 2053 4147 
L 1259 4147 
z
M 628 4666 
L 2053 4666 
Q 2838 4666 3239 4311 
Q 3641 3956 3641 3272 
Q 3641 2581 3239 2228 
Q 2838 1875 2053 1875 
L 1259 1875 
L 1259 0 
L 628 0 
L 628 4666 
z
" transform="scale(0.015625)"/>
       <path id="DejaVuSans-55" d="M 556 4666 
L 1191 4666 
L 1191 1831 
Q 1191 1081 1462 751 
Q 1734 422 2344 422 
Q 2950 422 3222 751 
Q 3494 1081 3494 1831 
L 3494 4666 
L 4128 4666 
L 4128 1753 
Q 4128 841 3676 375 
Q 3225 -91 2344 -91 
Q 1459 -91 1007 375 
Q 556 841 556 1753 
L 556 4666 
z
" transform="scale(0.015625)"/>
      </defs>
      <use xlink:href="#DejaVuSans-44"/>
      <use xlink:href="#DejaVuSans-41" x="75.251953"/>
      <use xlink:href="#DejaVuSans-54" x="135.910156"/>
      <use xlink:href="#DejaVuSans-53" x="196.994141"/>
      <use xlink:href="#DejaVuSans-2d" x="260.470703"/>
      <use xlink:href="#DejaVuSans-44" x="296.554688"/>
      <use xlink:href="#DejaVuSans-45" x="373.556641"/>
      <use xlink:href="#DejaVuSans-4c" x="436.740234"/>
      <use xlink:href="#DejaVuSans-41" x="494.703125"/>
      <use xlink:href="#DejaVuSans-59" x="555.361328"/>
      <use xlink:href="#DejaVuSans-2d" x="604.570312"/>
      <use xlink:href="#DejaVuSans-31" x="640.654297"/>
      <use xlink:href="#DejaVuSans-30" x="704.277344"/>
      <use xlink:href="#DejaVuSans-30" x="767.900391"/>
      <use xlink:href="#DejaVuSans-2d" x="831.523438"/>
      <use xlink:href="#DejaVuSans-47" x="871.232422"/>
      <use xlink:href="#DejaVuSans-50" x="948.722656"/>
      <use xlink:href="#DejaVuSans-55" x="1009.025391"/>
     </g>
    </g>
   </g>
  </g>
 </g>
 <defs>
  <clipPath id="p5637df0af4">
   <rect x="77.13" y="12.96" width="370.71" height="281.7"/>
  </clipPath>
 </defs>
</svg>
