<?xml version="1.0" encoding="utf-8" standalone="no"?>
<!DOCTYPE svg PUBLIC "-//W3C//DTD SVG 1.1//EN"
  "http://www.w3.org/Graphics/SVG/1.1/DTD/svg11.dtd">
<svg xmlns:xlink="http://www.w3.org/1999/xlink" width="460.8pt" height="345.6pt" viewBox="0 0 460.8 345.6" xmlns="http://www.w3.org/2000/svg" version="1.1">
 <metadata>
  <rdf:RDF xmlns:dc="http://purl.org/dc/elements/1.1/" xmlns:cc="http://creativecommons.org/ns#" xmlns:rdf="http://www.w3.org/1999/02/22-rdf-syntax-ns#">
   <cc:Work>
    <dc:type rdf:resource="http://purl.org/dc/dcmitype/StillImage"/>
    <dc:date>2022-09-10T15:50:31.114566</dc:date>
    <dc:format>image/svg+xml</dc:format>
    <dc:creator>
     <cc:Agent>
      <dc:title>Matplotlib v3.5.3, https://matplotlib.org/</dc:title>
     </cc:Agent>
    </dc:creator>
   </cc:Work>
  </rdf:RDF>
 </metadata>
 <defs>
  <style type="text/css">*{stroke-linejoin: round; stroke-linecap: butt}</style>
 </defs>
 <g id="figure_1">
  <g id="patch_1">
   <path d="M 0 345.6 
L 460.8 345.6 
L 460.8 0 
L 0 0 
z
" style="fill: #ffffff"/>
  </g>
  <g id="axes_1">
   <g id="patch_2">
    <path d="M 77.13 294.66 
L 447.84 294.66 
L 447.84 29.76 
L 77.13 29.76 
z
" style="fill: #eaeaf2"/>
   </g>
   <g id="matplotlib.axis_1">
    <g id="xtick_1">
     <g id="line2d_1">
      <path d="M 91.148445 294.66 
L 91.148445 29.76 
" clip-path="url(#p60b5d536dd)" style="fill: none; stroke: #ffffff; stroke-linecap: round"/>
     </g>
     <g id="text_1">
      <!-- 0.00 -->
      <g style="fill: #262626" transform="translate(78.902352 312.518281)scale(0.11 -0.11)">
       <defs>
        <path id="DejaVuSans-30" d="M 2034 4250 
Q 1547 4250 1301 3770 
Q 1056 3291 1056 2328 
Q 1056 1369 1301 889 
Q 1547 409 2034 409 
Q 2525 409 2770 889 
Q 3016 1369 3016 2328 
Q 3016 3291 2770 3770 
Q 2525 4250 2034 4250 
z
M 2034 4750 
Q 2819 4750 3233 4129 
Q 3647 3509 3647 2328 
Q 3647 1150 3233 529 
Q 2819 -91 2034 -91 
Q 1250 -91 836 529 
Q 422 1150 422 2328 
Q 422 3509 836 4129 
Q 1250 4750 2034 4750 
z
" transform="scale(0.015625)"/>
        <path id="DejaVuSans-2e" d="M 684 794 
L 1344 794 
L 1344 0 
L 684 0 
L 684 794 
z
" transform="scale(0.015625)"/>
       </defs>
       <use xlink:href="#DejaVuSans-30"/>
       <use xlink:href="#DejaVuSans-2e" x="63.623047"/>
       <use xlink:href="#DejaVuSans-30" x="95.410156"/>
       <use xlink:href="#DejaVuSans-30" x="159.033203"/>
      </g>
     </g>
    </g>
    <g id="xtick_2">
     <g id="line2d_2">
      <path d="M 147.788629 294.66 
L 147.788629 29.76 
" clip-path="url(#p60b5d536dd)" style="fill: none; stroke: #ffffff; stroke-linecap: round"/>
     </g>
     <g id="text_2">
      <!-- 0.05 -->
      <g style="fill: #262626" transform="translate(135.542535 312.518281)scale(0.11 -0.11)">
       <defs>
        <path id="DejaVuSans-35" d="M 691 4666 
L 3169 4666 
L 3169 4134 
L 1269 4134 
L 1269 2991 
Q 1406 3038 1543 3061 
Q 1681 3084 1819 3084 
Q 2600 3084 3056 2656 
Q 3513 2228 3513 1497 
Q 3513 744 3044 326 
Q 2575 -91 1722 -91 
Q 1428 -91 1123 -41 
Q 819 9 494 109 
L 494 744 
Q 775 591 1075 516 
Q 1375 441 1709 441 
Q 2250 441 2565 725 
Q 2881 1009 2881 1497 
Q 2881 1984 2565 2268 
Q 2250 2553 1709 2553 
Q 1456 2553 1204 2497 
Q 953 2441 691 2322 
L 691 4666 
z
" transform="scale(0.015625)"/>
       </defs>
       <use xlink:href="#DejaVuSans-30"/>
       <use xlink:href="#DejaVuSans-2e" x="63.623047"/>
       <use xlink:href="#DejaVuSans-30" x="95.410156"/>
       <use xlink:href="#DejaVuSans-35" x="159.033203"/>
      </g>
     </g>
    </g>
    <g id="xtick_3">
     <g id="line2d_3">
      <path d="M 204.428812 294.66 
L 204.428812 29.76 
" clip-path="url(#p60b5d536dd)" style="fill: none; stroke: #ffffff; stroke-linecap: round"/>
     </g>
     <g id="text_3">
      <!-- 0.10 -->
      <g style="fill: #262626" transform="translate(192.182718 312.518281)scale(0.11 -0.11)">
       <defs>
        <path id="DejaVuSans-31" d="M 794 531 
L 1825 531 
L 1825 4091 
L 703 3866 
L 703 4441 
L 1819 4666 
L 2450 4666 
L 2450 531 
L 3481 531 
L 3481 0 
L 794 0 
L 794 531 
z
" transform="scale(0.015625)"/>
       </defs>
       <use xlink:href="#DejaVuSans-30"/>
       <use xlink:href="#DejaVuSans-2e" x="63.623047"/>
       <use xlink:href="#DejaVuSans-31" x="95.410156"/>
       <use xlink:href="#DejaVuSans-30" x="159.033203"/>
      </g>
     </g>
    </g>
    <g id="xtick_4">
     <g id="line2d_4">
      <path d="M 261.068995 294.66 
L 261.068995 29.76 
" clip-path="url(#p60b5d536dd)" style="fill: none; stroke: #ffffff; stroke-linecap: round"/>
     </g>
     <g id="text_4">
      <!-- 0.15 -->
      <g style="fill: #262626" transform="translate(248.822902 312.518281)scale(0.11 -0.11)">
       <use xlink:href="#DejaVuSans-30"/>
       <use xlink:href="#DejaVuSans-2e" x="63.623047"/>
       <use xlink:href="#DejaVuSans-31" x="95.410156"/>
       <use xlink:href="#DejaVuSans-35" x="159.033203"/>
      </g>
     </g>
    </g>
    <g id="xtick_5">
     <g id="line2d_5">
      <path d="M 317.709179 294.66 
L 317.709179 29.76 
" clip-path="url(#p60b5d536dd)" style="fill: none; stroke: #ffffff; stroke-linecap: round"/>
     </g>
     <g id="text_5">
      <!-- 0.20 -->
      <g style="fill: #262626" transform="translate(305.463085 312.518281)scale(0.11 -0.11)">
       <defs>
        <path id="DejaVuSans-32" d="M 1228 531 
L 3431 531 
L 3431 0 
L 469 0 
L 469 531 
Q 828 903 1448 1529 
Q 2069 2156 2228 2338 
Q 2531 2678 2651 2914 
Q 2772 3150 2772 3378 
Q 2772 3750 2511 3984 
Q 2250 4219 1831 4219 
Q 1534 4219 1204 4116 
Q 875 4013 500 3803 
L 500 4441 
Q 881 4594 1212 4672 
Q 1544 4750 1819 4750 
Q 2544 4750 2975 4387 
Q 3406 4025 3406 3419 
Q 3406 3131 3298 2873 
Q 3191 2616 2906 2266 
Q 2828 2175 2409 1742 
Q 1991 1309 1228 531 
z
" transform="scale(0.015625)"/>
       </defs>
       <use xlink:href="#DejaVuSans-30"/>
       <use xlink:href="#DejaVuSans-2e" x="63.623047"/>
       <use xlink:href="#DejaVuSans-32" x="95.410156"/>
       <use xlink:href="#DejaVuSans-30" x="159.033203"/>
      </g>
     </g>
    </g>
    <g id="xtick_6">
     <g id="line2d_6">
      <path d="M 374.349362 294.66 
L 374.349362 29.76 
" clip-path="url(#p60b5d536dd)" style="fill: none; stroke: #ffffff; stroke-linecap: round"/>
     </g>
     <g id="text_6">
      <!-- 0.25 -->
      <g style="fill: #262626" transform="translate(362.103268 312.518281)scale(0.11 -0.11)">
       <use xlink:href="#DejaVuSans-30"/>
       <use xlink:href="#DejaVuSans-2e" x="63.623047"/>
       <use xlink:href="#DejaVuSans-32" x="95.410156"/>
       <use xlink:href="#DejaVuSans-35" x="159.033203"/>
      </g>
     </g>
    </g>
    <g id="xtick_7">
     <g id="line2d_7">
      <path d="M 430.989545 294.66 
L 430.989545 29.76 
" clip-path="url(#p60b5d536dd)" style="fill: none; stroke: #ffffff; stroke-linecap: round"/>
     </g>
     <g id="text_7">
      <!-- 0.30 -->
      <g style="fill: #262626" transform="translate(418.743452 312.518281)scale(0.11 -0.11)">
       <defs>
        <path id="DejaVuSans-33" d="M 2597 2516 
Q 3050 2419 3304 2112 
Q 3559 1806 3559 1356 
Q 3559 666 3084 287 
Q 2609 -91 1734 -91 
Q 1441 -91 1130 -33 
Q 819 25 488 141 
L 488 750 
Q 750 597 1062 519 
Q 1375 441 1716 441 
Q 2309 441 2620 675 
Q 2931 909 2931 1356 
Q 2931 1769 2642 2001 
Q 2353 2234 1838 2234 
L 1294 2234 
L 1294 2753 
L 1863 2753 
Q 2328 2753 2575 2939 
Q 2822 3125 2822 3475 
Q 2822 3834 2567 4026 
Q 2313 4219 1838 4219 
Q 1578 4219 1281 4162 
Q 984 4106 628 3988 
L 628 4550 
Q 988 4650 1302 4700 
Q 1616 4750 1894 4750 
Q 2613 4750 3031 4423 
Q 3450 4097 3450 3541 
Q 3450 3153 3228 2886 
Q 3006 2619 2597 2516 
z
" transform="scale(0.015625)"/>
       </defs>
       <use xlink:href="#DejaVuSans-30"/>
       <use xlink:href="#DejaVuSans-2e" x="63.623047"/>
       <use xlink:href="#DejaVuSans-33" x="95.410156"/>
       <use xlink:href="#DejaVuSans-30" x="159.033203"/>
      </g>
     </g>
    </g>
    <g id="text_8">
     <!-- Timesteps (in Million) -->
     <g style="fill: #262626" transform="translate(187.739219 329.44375)scale(0.14 -0.14)">
      <defs>
       <path id="DejaVuSans-54" d="M -19 4666 
L 3928 4666 
L 3928 4134 
L 2272 4134 
L 2272 0 
L 1638 0 
L 1638 4134 
L -19 4134 
L -19 4666 
z
" transform="scale(0.015625)"/>
       <path id="DejaVuSans-69" d="M 603 3500 
L 1178 3500 
L 1178 0 
L 603 0 
L 603 3500 
z
M 603 4863 
L 1178 4863 
L 1178 4134 
L 603 4134 
L 603 4863 
z
" transform="scale(0.015625)"/>
       <path id="DejaVuSans-6d" d="M 3328 2828 
Q 3544 3216 3844 3400 
Q 4144 3584 4550 3584 
Q 5097 3584 5394 3201 
Q 5691 2819 5691 2113 
L 5691 0 
L 5113 0 
L 5113 2094 
Q 5113 2597 4934 2840 
Q 4756 3084 4391 3084 
Q 3944 3084 3684 2787 
Q 3425 2491 3425 1978 
L 3425 0 
L 2847 0 
L 2847 2094 
Q 2847 2600 2669 2842 
Q 2491 3084 2119 3084 
Q 1678 3084 1418 2786 
Q 1159 2488 1159 1978 
L 1159 0 
L 581 0 
L 581 3500 
L 1159 3500 
L 1159 2956 
Q 1356 3278 1631 3431 
Q 1906 3584 2284 3584 
Q 2666 3584 2933 3390 
Q 3200 3197 3328 2828 
z
" transform="scale(0.015625)"/>
       <path id="DejaVuSans-65" d="M 3597 1894 
L 3597 1613 
L 953 1613 
Q 991 1019 1311 708 
Q 1631 397 2203 397 
Q 2534 397 2845 478 
Q 3156 559 3463 722 
L 3463 178 
Q 3153 47 2828 -22 
Q 2503 -91 2169 -91 
Q 1331 -91 842 396 
Q 353 884 353 1716 
Q 353 2575 817 3079 
Q 1281 3584 2069 3584 
Q 2775 3584 3186 3129 
Q 3597 2675 3597 1894 
z
M 3022 2063 
Q 3016 2534 2758 2815 
Q 2500 3097 2075 3097 
Q 1594 3097 1305 2825 
Q 1016 2553 972 2059 
L 3022 2063 
z
" transform="scale(0.015625)"/>
       <path id="DejaVuSans-73" d="M 2834 3397 
L 2834 2853 
Q 2591 2978 2328 3040 
Q 2066 3103 1784 3103 
Q 1356 3103 1142 2972 
Q 928 2841 928 2578 
Q 928 2378 1081 2264 
Q 1234 2150 1697 2047 
L 1894 2003 
Q 2506 1872 2764 1633 
Q 3022 1394 3022 966 
Q 3022 478 2636 193 
Q 2250 -91 1575 -91 
Q 1294 -91 989 -36 
Q 684 19 347 128 
L 347 722 
Q 666 556 975 473 
Q 1284 391 1588 391 
Q 1994 391 2212 530 
Q 2431 669 2431 922 
Q 2431 1156 2273 1281 
Q 2116 1406 1581 1522 
L 1381 1569 
Q 847 1681 609 1914 
Q 372 2147 372 2553 
Q 372 3047 722 3315 
Q 1072 3584 1716 3584 
Q 2034 3584 2315 3537 
Q 2597 3491 2834 3397 
z
" transform="scale(0.015625)"/>
       <path id="DejaVuSans-74" d="M 1172 4494 
L 1172 3500 
L 2356 3500 
L 2356 3053 
L 1172 3053 
L 1172 1153 
Q 1172 725 1289 603 
Q 1406 481 1766 481 
L 2356 481 
L 2356 0 
L 1766 0 
Q 1100 0 847 248 
Q 594 497 594 1153 
L 594 3053 
L 172 3053 
L 172 3500 
L 594 3500 
L 594 4494 
L 1172 4494 
z
" transform="scale(0.015625)"/>
       <path id="DejaVuSans-70" d="M 1159 525 
L 1159 -1331 
L 581 -1331 
L 581 3500 
L 1159 3500 
L 1159 2969 
Q 1341 3281 1617 3432 
Q 1894 3584 2278 3584 
Q 2916 3584 3314 3078 
Q 3713 2572 3713 1747 
Q 3713 922 3314 415 
Q 2916 -91 2278 -91 
Q 1894 -91 1617 61 
Q 1341 213 1159 525 
z
M 3116 1747 
Q 3116 2381 2855 2742 
Q 2594 3103 2138 3103 
Q 1681 3103 1420 2742 
Q 1159 2381 1159 1747 
Q 1159 1113 1420 752 
Q 1681 391 2138 391 
Q 2594 391 2855 752 
Q 3116 1113 3116 1747 
z
" transform="scale(0.015625)"/>
       <path id="DejaVuSans-20" transform="scale(0.015625)"/>
       <path id="DejaVuSans-28" d="M 1984 4856 
Q 1566 4138 1362 3434 
Q 1159 2731 1159 2009 
Q 1159 1288 1364 580 
Q 1569 -128 1984 -844 
L 1484 -844 
Q 1016 -109 783 600 
Q 550 1309 550 2009 
Q 550 2706 781 3412 
Q 1013 4119 1484 4856 
L 1984 4856 
z
" transform="scale(0.015625)"/>
       <path id="DejaVuSans-6e" d="M 3513 2113 
L 3513 0 
L 2938 0 
L 2938 2094 
Q 2938 2591 2744 2837 
Q 2550 3084 2163 3084 
Q 1697 3084 1428 2787 
Q 1159 2491 1159 1978 
L 1159 0 
L 581 0 
L 581 3500 
L 1159 3500 
L 1159 2956 
Q 1366 3272 1645 3428 
Q 1925 3584 2291 3584 
Q 2894 3584 3203 3211 
Q 3513 2838 3513 2113 
z
" transform="scale(0.015625)"/>
       <path id="DejaVuSans-4d" d="M 628 4666 
L 1569 4666 
L 2759 1491 
L 3956 4666 
L 4897 4666 
L 4897 0 
L 4281 0 
L 4281 4097 
L 3078 897 
L 2444 897 
L 1241 4097 
L 1241 0 
L 628 0 
L 628 4666 
z
" transform="scale(0.015625)"/>
       <path id="DejaVuSans-6c" d="M 603 4863 
L 1178 4863 
L 1178 0 
L 603 0 
L 603 4863 
z
" transform="scale(0.015625)"/>
       <path id="DejaVuSans-6f" d="M 1959 3097 
Q 1497 3097 1228 2736 
Q 959 2375 959 1747 
Q 959 1119 1226 758 
Q 1494 397 1959 397 
Q 2419 397 2687 759 
Q 2956 1122 2956 1747 
Q 2956 2369 2687 2733 
Q 2419 3097 1959 3097 
z
M 1959 3584 
Q 2709 3584 3137 3096 
Q 3566 2609 3566 1747 
Q 3566 888 3137 398 
Q 2709 -91 1959 -91 
Q 1206 -91 779 398 
Q 353 888 353 1747 
Q 353 2609 779 3096 
Q 1206 3584 1959 3584 
z
" transform="scale(0.015625)"/>
       <path id="DejaVuSans-29" d="M 513 4856 
L 1013 4856 
Q 1481 4119 1714 3412 
Q 1947 2706 1947 2009 
Q 1947 1309 1714 600 
Q 1481 -109 1013 -844 
L 513 -844 
Q 928 -128 1133 580 
Q 1338 1288 1338 2009 
Q 1338 2731 1133 3434 
Q 928 4138 513 4856 
z
" transform="scale(0.015625)"/>
      </defs>
      <use xlink:href="#DejaVuSans-54"/>
      <use xlink:href="#DejaVuSans-69" x="57.958984"/>
      <use xlink:href="#DejaVuSans-6d" x="85.742188"/>
      <use xlink:href="#DejaVuSans-65" x="183.154297"/>
      <use xlink:href="#DejaVuSans-73" x="244.677734"/>
      <use xlink:href="#DejaVuSans-74" x="296.777344"/>
      <use xlink:href="#DejaVuSans-65" x="335.986328"/>
      <use xlink:href="#DejaVuSans-70" x="397.509766"/>
      <use xlink:href="#DejaVuSans-73" x="460.986328"/>
      <use xlink:href="#DejaVuSans-20" x="513.085938"/>
      <use xlink:href="#DejaVuSans-28" x="544.873047"/>
      <use xlink:href="#DejaVuSans-69" x="583.886719"/>
      <use xlink:href="#DejaVuSans-6e" x="611.669922"/>
      <use xlink:href="#DejaVuSans-20" x="675.048828"/>
      <use xlink:href="#DejaVuSans-4d" x="706.835938"/>
      <use xlink:href="#DejaVuSans-69" x="793.115234"/>
      <use xlink:href="#DejaVuSans-6c" x="820.898438"/>
      <use xlink:href="#DejaVuSans-6c" x="848.681641"/>
      <use xlink:href="#DejaVuSans-69" x="876.464844"/>
      <use xlink:href="#DejaVuSans-6f" x="904.248047"/>
      <use xlink:href="#DejaVuSans-6e" x="965.429688"/>
      <use xlink:href="#DejaVuSans-29" x="1028.808594"/>
     </g>
    </g>
   </g>
   <g id="matplotlib.axis_2">
    <g id="ytick_1">
     <g id="line2d_8">
      <path d="M 77.13 282.834999 
L 447.84 282.834999 
" clip-path="url(#p60b5d536dd)" style="fill: none; stroke: #ffffff; stroke-linecap: round"/>
     </g>
     <g id="text_9">
      <!-- −5000 -->
      <g style="fill: #262626" transform="translate(30.417344 287.014139)scale(0.11 -0.11)">
       <defs>
        <path id="DejaVuSans-2212" d="M 678 2272 
L 4684 2272 
L 4684 1741 
L 678 1741 
L 678 2272 
z
" transform="scale(0.015625)"/>
       </defs>
       <use xlink:href="#DejaVuSans-2212"/>
       <use xlink:href="#DejaVuSans-35" x="83.789062"/>
       <use xlink:href="#DejaVuSans-30" x="147.412109"/>
       <use xlink:href="#DejaVuSans-30" x="211.035156"/>
       <use xlink:href="#DejaVuSans-30" x="274.658203"/>
      </g>
     </g>
    </g>
    <g id="ytick_2">
     <g id="line2d_9">
      <path d="M 77.13 239.653445 
L 447.84 239.653445 
" clip-path="url(#p60b5d536dd)" style="fill: none; stroke: #ffffff; stroke-linecap: round"/>
     </g>
     <g id="text_10">
      <!-- −4000 -->
      <g style="fill: #262626" transform="translate(30.417344 243.832585)scale(0.11 -0.11)">
       <defs>
        <path id="DejaVuSans-34" d="M 2419 4116 
L 825 1625 
L 2419 1625 
L 2419 4116 
z
M 2253 4666 
L 3047 4666 
L 3047 1625 
L 3713 1625 
L 3713 1100 
L 3047 1100 
L 3047 0 
L 2419 0 
L 2419 1100 
L 313 1100 
L 313 1709 
L 2253 4666 
z
" transform="scale(0.015625)"/>
       </defs>
       <use xlink:href="#DejaVuSans-2212"/>
       <use xlink:href="#DejaVuSans-34" x="83.789062"/>
       <use xlink:href="#DejaVuSans-30" x="147.412109"/>
       <use xlink:href="#DejaVuSans-30" x="211.035156"/>
       <use xlink:href="#DejaVuSans-30" x="274.658203"/>
      </g>
     </g>
    </g>
    <g id="ytick_3">
     <g id="line2d_10">
      <path d="M 77.13 196.471891 
L 447.84 196.471891 
" clip-path="url(#p60b5d536dd)" style="fill: none; stroke: #ffffff; stroke-linecap: round"/>
     </g>
     <g id="text_11">
      <!-- −3000 -->
      <g style="fill: #262626" transform="translate(30.417344 200.651031)scale(0.11 -0.11)">
       <use xlink:href="#DejaVuSans-2212"/>
       <use xlink:href="#DejaVuSans-33" x="83.789062"/>
       <use xlink:href="#DejaVuSans-30" x="147.412109"/>
       <use xlink:href="#DejaVuSans-30" x="211.035156"/>
       <use xlink:href="#DejaVuSans-30" x="274.658203"/>
      </g>
     </g>
    </g>
    <g id="ytick_4">
     <g id="line2d_11">
      <path d="M 77.13 153.290337 
L 447.84 153.290337 
" clip-path="url(#p60b5d536dd)" style="fill: none; stroke: #ffffff; stroke-linecap: round"/>
     </g>
     <g id="text_12">
      <!-- −2000 -->
      <g style="fill: #262626" transform="translate(30.417344 157.469477)scale(0.11 -0.11)">
       <use xlink:href="#DejaVuSans-2212"/>
       <use xlink:href="#DejaVuSans-32" x="83.789062"/>
       <use xlink:href="#DejaVuSans-30" x="147.412109"/>
       <use xlink:href="#DejaVuSans-30" x="211.035156"/>
       <use xlink:href="#DejaVuSans-30" x="274.658203"/>
      </g>
     </g>
    </g>
    <g id="ytick_5">
     <g id="line2d_12">
      <path d="M 77.13 110.108783 
L 447.84 110.108783 
" clip-path="url(#p60b5d536dd)" style="fill: none; stroke: #ffffff; stroke-linecap: round"/>
     </g>
     <g id="text_13">
      <!-- −1000 -->
      <g style="fill: #262626" transform="translate(30.417344 114.287923)scale(0.11 -0.11)">
       <use xlink:href="#DejaVuSans-2212"/>
       <use xlink:href="#DejaVuSans-31" x="83.789062"/>
       <use xlink:href="#DejaVuSans-30" x="147.412109"/>
       <use xlink:href="#DejaVuSans-30" x="211.035156"/>
       <use xlink:href="#DejaVuSans-30" x="274.658203"/>
      </g>
     </g>
    </g>
    <g id="ytick_6">
     <g id="line2d_13">
      <path d="M 77.13 66.927229 
L 447.84 66.927229 
" clip-path="url(#p60b5d536dd)" style="fill: none; stroke: #ffffff; stroke-linecap: round"/>
     </g>
     <g id="text_14">
      <!-- 0 -->
      <g style="fill: #262626" transform="translate(60.63125 71.106369)scale(0.11 -0.11)">
       <use xlink:href="#DejaVuSans-30"/>
      </g>
     </g>
    </g>
    <g id="text_15">
     <!-- Score -->
     <g style="fill: #262626" transform="translate(23.505781 181.813281)rotate(-90)scale(0.14 -0.14)">
      <defs>
       <path id="DejaVuSans-53" d="M 3425 4513 
L 3425 3897 
Q 3066 4069 2747 4153 
Q 2428 4238 2131 4238 
Q 1616 4238 1336 4038 
Q 1056 3838 1056 3469 
Q 1056 3159 1242 3001 
Q 1428 2844 1947 2747 
L 2328 2669 
Q 3034 2534 3370 2195 
Q 3706 1856 3706 1288 
Q 3706 609 3251 259 
Q 2797 -91 1919 -91 
Q 1588 -91 1214 -16 
Q 841 59 441 206 
L 441 856 
Q 825 641 1194 531 
Q 1563 422 1919 422 
Q 2459 422 2753 634 
Q 3047 847 3047 1241 
Q 3047 1584 2836 1778 
Q 2625 1972 2144 2069 
L 1759 2144 
Q 1053 2284 737 2584 
Q 422 2884 422 3419 
Q 422 4038 858 4394 
Q 1294 4750 2059 4750 
Q 2388 4750 2728 4690 
Q 3069 4631 3425 4513 
z
" transform="scale(0.015625)"/>
       <path id="DejaVuSans-63" d="M 3122 3366 
L 3122 2828 
Q 2878 2963 2633 3030 
Q 2388 3097 2138 3097 
Q 1578 3097 1268 2742 
Q 959 2388 959 1747 
Q 959 1106 1268 751 
Q 1578 397 2138 397 
Q 2388 397 2633 464 
Q 2878 531 3122 666 
L 3122 134 
Q 2881 22 2623 -34 
Q 2366 -91 2075 -91 
Q 1284 -91 818 406 
Q 353 903 353 1747 
Q 353 2603 823 3093 
Q 1294 3584 2113 3584 
Q 2378 3584 2631 3529 
Q 2884 3475 3122 3366 
z
" transform="scale(0.015625)"/>
       <path id="DejaVuSans-72" d="M 2631 2963 
Q 2534 3019 2420 3045 
Q 2306 3072 2169 3072 
Q 1681 3072 1420 2755 
Q 1159 2438 1159 1844 
L 1159 0 
L 581 0 
L 581 3500 
L 1159 3500 
L 1159 2956 
Q 1341 3275 1631 3429 
Q 1922 3584 2338 3584 
Q 2397 3584 2469 3576 
Q 2541 3569 2628 3553 
L 2631 2963 
z
" transform="scale(0.015625)"/>
      </defs>
      <use xlink:href="#DejaVuSans-53"/>
      <use xlink:href="#DejaVuSans-63" x="63.476562"/>
      <use xlink:href="#DejaVuSans-6f" x="118.457031"/>
      <use xlink:href="#DejaVuSans-72" x="179.638672"/>
      <use xlink:href="#DejaVuSans-65" x="218.501953"/>
     </g>
    </g>
   </g>
   <g id="PolyCollection_1">
    <defs>
     <path id="m07bf6cb86e" d="M 93.980455 -277.636057 
L 93.980455 -293.671369 
L 96.812464 -300.70405 
L 99.644473 -291.914666 
L 102.476482 -291.12727 
L 105.308491 -292.377739 
L 108.1405 -291.01948 
L 110.97251 -291.248392 
L 113.804519 -290.479066 
L 116.636528 -290.662739 
L 119.468537 -290.616339 
L 122.300546 -290.727034 
L 125.132555 -290.777731 
L 127.964565 -290.371389 
L 130.796574 -290.941594 
L 133.628583 -290.779029 
L 136.460592 -290.667699 
L 139.292601 -290.6826 
L 142.12461 -290.62297 
L 144.95662 -290.6187 
L 147.788629 -290.678576 
L 150.620638 -290.768491 
L 153.452647 -290.955972 
L 156.284656 -290.647995 
L 159.116665 -290.742147 
L 161.948675 -290.652514 
L 164.780684 -290.681356 
L 167.612693 -290.64438 
L 170.444702 -290.646634 
L 173.276711 -291.299311 
L 176.10872 -290.704926 
L 178.94073 -290.62558 
L 181.772739 -290.717625 
L 184.604748 -290.509933 
L 187.436757 -290.752337 
L 190.268766 -290.600964 
L 193.100775 -290.693059 
L 195.932785 -290.614586 
L 198.764794 -290.855813 
L 201.596803 -290.663967 
L 204.428812 -290.672285 
L 207.260821 -290.660291 
L 210.09283 -290.658127 
L 212.92484 -290.791879 
L 215.756849 -291.572674 
L 218.588858 -290.671977 
L 221.420867 -290.756017 
L 224.252876 -290.582051 
L 227.084885 -290.613945 
L 229.916895 -290.722117 
L 232.748904 -290.617415 
L 235.580913 -290.696305 
L 238.412922 -290.853509 
L 241.244931 -290.675317 
L 244.07694 -290.558324 
L 246.90895 -290.671255 
L 249.740959 -290.692784 
L 252.572968 -290.584435 
L 255.404977 -290.71938 
L 258.236986 -291.06156 
L 261.068995 -290.591068 
L 263.901005 -290.688442 
L 266.733014 -290.632613 
L 269.565023 -290.638464 
L 272.397032 -290.586084 
L 275.229041 -290.831248 
L 278.06105 -290.543281 
L 280.89306 -290.858906 
L 283.725069 -290.719221 
L 286.557078 -290.811427 
L 289.389087 -290.640057 
L 292.221096 -290.69634 
L 295.053105 -290.729173 
L 297.885115 -290.749874 
L 300.717124 -290.610784 
L 303.549133 -290.736461 
L 306.381142 -290.694095 
L 309.213151 -290.764767 
L 312.04516 -290.701445 
L 314.87717 -290.692164 
L 317.709179 -290.706025 
L 320.541188 -290.647047 
L 323.373197 -290.965702 
L 326.205206 -290.046446 
L 329.037215 -291.165987 
L 331.869225 -290.706382 
L 334.701234 -290.590799 
L 337.533243 -290.909407 
L 340.365252 -290.633277 
L 343.197261 -290.338389 
L 346.02927 -290.777129 
L 348.86128 -290.704889 
L 351.693289 -290.740343 
L 354.525298 -290.566264 
L 357.357307 -290.649014 
L 360.189316 -290.798703 
L 363.021325 -291.086515 
L 365.853335 -290.612261 
L 368.685344 -290.558137 
L 371.517353 -290.519557 
L 374.349362 -290.668758 
L 377.181371 -290.73112 
L 380.01338 -290.568498 
L 382.84539 -290.628789 
L 385.677399 -290.575319 
L 388.509408 -290.569063 
L 391.341417 -290.270678 
L 394.173426 -290.575666 
L 397.005435 -290.538536 
L 399.837445 -291.326878 
L 402.669454 -290.717258 
L 405.501463 -289.931355 
L 408.333472 -291.877538 
L 411.165481 -290.690237 
L 413.99749 -290.560167 
L 416.8295 -290.382438 
L 419.661509 -290.588819 
L 422.493518 -290.382142 
L 425.325527 -291.409225 
L 428.157536 -290.606553 
L 430.989545 -290.351637 
L 430.989545 -184.685299 
L 430.989545 -184.685299 
L 428.157536 -217.840483 
L 425.325527 -227.642607 
L 422.493518 -244.813343 
L 419.661509 -277.954883 
L 416.8295 -160.049533 
L 413.99749 -249.572215 
L 411.165481 -78.56945 
L 408.333472 -260.814024 
L 405.501463 -259.929599 
L 402.669454 -271.338022 
L 399.837445 -187.001579 
L 397.005435 -130.063453 
L 394.173426 -262.666365 
L 391.341417 -118.184737 
L 388.509408 -281.177989 
L 385.677399 -237.043752 
L 382.84539 -281.985975 
L 380.01338 -264.821553 
L 377.181371 -283.156481 
L 374.349362 -289.898503 
L 371.517353 -207.099791 
L 368.685344 -198.921378 
L 365.853335 -190.052895 
L 363.021325 -290.396866 
L 360.189316 -133.443874 
L 357.357307 -290.463188 
L 354.525298 -255.659179 
L 351.693289 -241.178998 
L 348.86128 -182.63169 
L 346.02927 -242.235641 
L 343.197261 -183.603616 
L 340.365252 -290.192992 
L 337.533243 -195.227606 
L 334.701234 -287.344749 
L 331.869225 -254.277685 
L 329.037215 -290.49494 
L 326.205206 -182.19433 
L 323.373197 -290.213601 
L 320.541188 -181.584267 
L 317.709179 -235.878955 
L 314.87717 -190.566581 
L 312.04516 -184.302849 
L 309.213151 -183.946374 
L 306.381142 -281.535 
L 303.549133 -201.55806 
L 300.717124 -193.01086 
L 297.885115 -194.272736 
L 295.053105 -258.040828 
L 292.221096 -279.846 
L 289.389087 -197.24385 
L 286.557078 -185.614112 
L 283.725069 -281.35358 
L 280.89306 -290.368717 
L 278.06105 -271.942991 
L 275.229041 -212.866089 
L 272.397032 -276.374416 
L 269.565023 -290.498601 
L 266.733014 -186.012963 
L 263.901005 -262.160994 
L 261.068995 -290.35777 
L 258.236986 -213.236875 
L 255.404977 -195.182947 
L 252.572968 -290.291012 
L 249.740959 -238.429351 
L 246.90895 -266.104426 
L 244.07694 -245.512026 
L 241.244931 -290.430122 
L 238.412922 -200.732399 
L 235.580913 -206.09164 
L 232.748904 -290.461064 
L 229.916895 -216.713391 
L 227.084885 -290.502577 
L 224.252876 -182.682178 
L 221.420867 -205.404419 
L 218.588858 -248.242355 
L 215.756849 -284.414859 
L 212.92484 -233.353153 
L 210.09283 -260.591373 
L 207.260821 -199.059645 
L 204.428812 -271.206461 
L 201.596803 -233.186878 
L 198.764794 -210.226123 
L 195.932785 -285.768173 
L 193.100775 -266.232969 
L 190.268766 -199.022128 
L 187.436757 -290.392059 
L 184.604748 -192.684625 
L 181.772739 -290.539119 
L 178.94073 -227.523488 
L 176.10872 -248.19628 
L 173.276711 -290.246233 
L 170.444702 -216.910251 
L 167.612693 -190.255214 
L 164.780684 -290.428776 
L 161.948675 -258.575273 
L 159.116665 -290.594946 
L 156.284656 -225.224006 
L 153.452647 -277.972321 
L 150.620638 -256.953358 
L 147.788629 -240.850244 
L 144.95662 -195.53399 
L 142.12461 -277.279771 
L 139.292601 -211.337183 
L 136.460592 -222.538982 
L 133.628583 -289.958107 
L 130.796574 -290.394947 
L 127.964565 -189.452135 
L 125.132555 -290.359688 
L 122.300546 -194.956465 
L 119.468537 -275.918414 
L 116.636528 -265.650001 
L 113.804519 -290.1052 
L 110.97251 -243.480098 
L 108.1405 -289.68867 
L 105.308491 -264.190349 
L 102.476482 -285.115388 
L 99.644473 -266.835093 
L 96.812464 -288.740885 
L 93.980455 -277.636057 
z
" style="stroke: #ffffff; stroke-opacity: 0.5"/>
    </defs>
    <g clip-path="url(#p60b5d536dd)">
     <use xlink:href="#m07bf6cb86e" x="0" y="345.6" style="fill: #4c72b0; fill-opacity: 0.5; stroke: #ffffff; stroke-opacity: 0.5"/>
    </g>
   </g>
   <g id="PolyCollection_2">
    <defs>
     <path id="m4718b9effa" d="M 93.980455 -156.722627 
L 93.980455 -298.162544 
L 96.812464 -292.696137 
L 99.644473 -290.994167 
L 102.476482 -291.524826 
L 105.308491 -291.250452 
L 108.1405 -292.688658 
L 110.97251 -290.307022 
L 113.804519 -290.681361 
L 116.636528 -290.712767 
L 119.468537 -290.528518 
L 122.300546 -290.566786 
L 125.132555 -290.56656 
L 127.964565 -290.474155 
L 130.796574 -290.411573 
L 133.628583 -290.424078 
L 136.460592 -290.480065 
L 139.292601 -290.494175 
L 142.12461 -290.327864 
L 144.95662 -290.224508 
L 147.788629 -290.579198 
L 150.620638 -290.399704 
L 153.452647 -290.357862 
L 156.284656 -290.386151 
L 159.116665 -290.588461 
L 161.948675 -290.564223 
L 164.780684 -290.3163 
L 167.612693 -290.366963 
L 170.444702 -290.638183 
L 173.276711 -290.314724 
L 176.10872 -290.344126 
L 178.94073 -290.403151 
L 181.772739 -290.50312 
L 184.604748 -290.521159 
L 187.436757 -290.173864 
L 190.268766 -290.260193 
L 193.100775 -290.246132 
L 195.932785 -290.3668 
L 198.764794 -290.386494 
L 201.596803 -290.645259 
L 204.428812 -290.096013 
L 207.260821 -290.688049 
L 210.09283 -290.582145 
L 212.92484 -290.397127 
L 215.756849 -290.414686 
L 218.588858 -290.894902 
L 221.420867 -290.830186 
L 224.252876 -290.337566 
L 227.084885 -290.658697 
L 229.916895 -289.97848 
L 232.748904 -291.034551 
L 235.580913 -290.523675 
L 238.412922 -290.892733 
L 241.244931 -290.467262 
L 244.07694 -290.503718 
L 246.90895 -290.457473 
L 249.740959 -290.527894 
L 252.572968 -290.402993 
L 255.404977 -290.436168 
L 258.236986 -290.338387 
L 261.068995 -290.805983 
L 263.901005 -290.403964 
L 266.733014 -290.308845 
L 269.565023 -290.492945 
L 272.397032 -290.626424 
L 275.229041 -290.578888 
L 278.06105 -291.031483 
L 280.89306 -290.852075 
L 283.725069 -290.346994 
L 286.557078 -290.200128 
L 289.389087 -290.171874 
L 292.221096 -290.314544 
L 295.053105 -290.375861 
L 297.885115 -290.268448 
L 300.717124 -290.224249 
L 303.549133 -290.150238 
L 306.381142 -290.549421 
L 309.213151 -290.359637 
L 312.04516 -290.332545 
L 314.87717 -291.267587 
L 317.709179 -290.33613 
L 320.541188 -290.317873 
L 323.373197 -289.568152 
L 326.205206 -290.600229 
L 329.037215 -291.502753 
L 331.869225 -290.397125 
L 334.701234 -290.032993 
L 337.533243 -290.384643 
L 340.365252 -290.340631 
L 343.197261 -290.330758 
L 346.02927 -290.785083 
L 348.86128 -290.008728 
L 351.693289 -290.342788 
L 354.525298 -289.890622 
L 357.357307 -292.529293 
L 360.189316 -292.136775 
L 363.021325 -290.308049 
L 365.853335 -289.108148 
L 368.685344 -290.004185 
L 371.517353 -290.007744 
L 374.349362 -290.203614 
L 377.181371 -291.665888 
L 380.01338 -290.274357 
L 382.84539 -290.359934 
L 385.677399 -290.5421 
L 388.509408 -290.011145 
L 391.341417 -290.133625 
L 394.173426 -290.419673 
L 397.005435 -290.30751 
L 399.837445 -288.755326 
L 402.669454 -290.24426 
L 405.501463 -290.237832 
L 408.333472 -290.765373 
L 411.165481 -290.521114 
L 413.99749 -290.592108 
L 416.8295 -290.10919 
L 419.661509 -289.956825 
L 422.493518 -292.176279 
L 425.325527 -290.051853 
L 428.157536 -289.751357 
L 430.989545 -291.573173 
L 430.989545 -198.643749 
L 430.989545 -198.643749 
L 428.157536 -270.704792 
L 425.325527 -248.523038 
L 422.493518 -187.056796 
L 419.661509 -195.661715 
L 416.8295 -204.943214 
L 413.99749 -289.440144 
L 411.165481 -192.08635 
L 408.333472 -238.655831 
L 405.501463 -240.419046 
L 402.669454 -235.525125 
L 399.837445 -185.347049 
L 397.005435 -266.757776 
L 394.173426 -265.469561 
L 391.341417 -187.264362 
L 388.509408 -182.213483 
L 385.677399 -249.899538 
L 382.84539 -289.786722 
L 380.01338 -191.209596 
L 377.181371 -235.339152 
L 374.349362 -192.438433 
L 371.517353 -203.025101 
L 368.685344 -239.340273 
L 365.853335 -231.726838 
L 363.021325 -262.485079 
L 360.189316 -270.893641 
L 357.357307 -276.79731 
L 354.525298 -203.587277 
L 351.693289 -172.895631 
L 348.86128 -200.640683 
L 346.02927 -285.827018 
L 343.197261 -214.317389 
L 340.365252 -283.947525 
L 337.533243 -239.754394 
L 334.701234 -213.718272 
L 331.869225 -259.693992 
L 329.037215 -200.85689 
L 326.205206 -267.600447 
L 323.373197 -191.587371 
L 320.541188 -206.840779 
L 317.709179 -265.80436 
L 314.87717 -194.138709 
L 312.04516 -196.403577 
L 309.213151 -216.708998 
L 306.381142 -138.191651 
L 303.549133 -277.440891 
L 300.717124 -269.4416 
L 297.885115 -179.381041 
L 295.053105 -228.924371 
L 292.221096 -243.6783 
L 289.389087 -289.300123 
L 286.557078 -272.685526 
L 283.725069 -289.628052 
L 280.89306 -288.800744 
L 278.06105 -201.803146 
L 275.229041 -249.956385 
L 272.397032 -289.154309 
L 269.565023 -194.175386 
L 266.733014 -221.178363 
L 263.901005 -234.058959 
L 261.068995 -289.563731 
L 258.236986 -208.032004 
L 255.404977 -196.037741 
L 252.572968 -253.720728 
L 249.740959 -250.233387 
L 246.90895 -193.28586 
L 244.07694 -185.201364 
L 241.244931 -192.335673 
L 238.412922 -277.143079 
L 235.580913 -204.472867 
L 232.748904 -200.786671 
L 229.916895 -217.988252 
L 227.084885 -274.846158 
L 224.252876 -236.630693 
L 221.420867 -279.341221 
L 218.588858 -264.732453 
L 215.756849 -289.934652 
L 212.92484 -202.458431 
L 210.09283 -242.589278 
L 207.260821 -276.836318 
L 204.428812 -280.09857 
L 201.596803 -185.585166 
L 198.764794 -237.594069 
L 195.932785 -246.160177 
L 193.100775 -287.679736 
L 190.268766 -186.559433 
L 187.436757 -238.916124 
L 184.604748 -280.709947 
L 181.772739 -203.581077 
L 178.94073 -289.872256 
L 176.10872 -290.270346 
L 173.276711 -274.774909 
L 170.444702 -183.657671 
L 167.612693 -184.961425 
L 164.780684 -289.74096 
L 161.948675 -182.382897 
L 159.116665 -181.911123 
L 156.284656 -193.316842 
L 153.452647 -187.603258 
L 150.620638 -208.281769 
L 147.788629 -289.844847 
L 144.95662 -254.509385 
L 142.12461 -289.917662 
L 139.292601 -285.540362 
L 136.460592 -234.257088 
L 133.628583 -251.139055 
L 130.796574 -251.307422 
L 127.964565 -289.860756 
L 125.132555 -194.152216 
L 122.300546 -226.273253 
L 119.468537 -287.282897 
L 116.636528 -288.6245 
L 113.804519 -187.185689 
L 110.97251 -289.634212 
L 108.1405 -227.365927 
L 105.308491 -268.261795 
L 102.476482 -288.272449 
L 99.644473 -285.183171 
L 96.812464 -287.723693 
L 93.980455 -156.722627 
z
" style="stroke: #ffffff; stroke-opacity: 0.5"/>
    </defs>
    <g clip-path="url(#p60b5d536dd)">
     <use xlink:href="#m4718b9effa" x="0" y="345.6" style="fill: #dd8452; fill-opacity: 0.5; stroke: #ffffff; stroke-opacity: 0.5"/>
    </g>
   </g>
   <g id="PolyCollection_3">
    <defs>
     <path id="m89f67761f8" d="M 93.980455 -146.42508 
L 93.980455 -292.702253 
L 96.812464 -289.65824 
L 99.644473 -300.271472 
L 102.476482 -292.637036 
L 105.308491 -290.392356 
L 108.1405 -288.211739 
L 110.97251 -303.799091 
L 113.804519 -297.662537 
L 116.636528 -290.355232 
L 119.468537 -290.828122 
L 122.300546 -289.97233 
L 125.132555 -290.12132 
L 127.964565 -289.006359 
L 130.796574 -290.031637 
L 133.628583 -289.714726 
L 136.460592 -289.480915 
L 139.292601 -292.209502 
L 142.12461 -290.410702 
L 144.95662 -293.417973 
L 147.788629 -289.752768 
L 150.620638 -288.870686 
L 153.452647 -289.441341 
L 156.284656 -287.624541 
L 159.116665 -289.289817 
L 161.948675 -290.349547 
L 164.780684 -289.114 
L 167.612693 -289.227171 
L 170.444702 -291.132174 
L 173.276711 -289.478347 
L 176.10872 -290.253072 
L 178.94073 -289.142443 
L 181.772739 -289.602344 
L 184.604748 -290.683816 
L 187.436757 -289.647504 
L 190.268766 -288.941911 
L 193.100775 -289.836512 
L 195.932785 -289.270004 
L 198.764794 -290.197321 
L 201.596803 -289.924157 
L 204.428812 -289.677605 
L 207.260821 -293.095163 
L 210.09283 -290.830215 
L 212.92484 -290.184222 
L 215.756849 -289.986398 
L 218.588858 -288.497809 
L 221.420867 -289.408375 
L 224.252876 -289.387179 
L 227.084885 -289.569938 
L 229.916895 -289.993073 
L 232.748904 -289.378061 
L 235.580913 -289.536164 
L 238.412922 -291.505508 
L 241.244931 -288.927274 
L 244.07694 -290.174796 
L 246.90895 -292.305295 
L 249.740959 -289.291013 
L 252.572968 -290.442878 
L 255.404977 -288.693048 
L 258.236986 -290.412941 
L 261.068995 -288.516569 
L 263.901005 -289.799022 
L 266.733014 -288.968261 
L 269.565023 -289.812528 
L 272.397032 -290.176848 
L 275.229041 -290.635084 
L 278.06105 -288.667273 
L 280.89306 -286.354468 
L 283.725069 -289.308504 
L 286.557078 -292.459998 
L 289.389087 -291.001353 
L 292.221096 -289.524455 
L 295.053105 -291.282293 
L 297.885115 -289.61725 
L 300.717124 -288.296846 
L 303.549133 -288.812934 
L 306.381142 -289.792072 
L 309.213151 -289.679337 
L 312.04516 -287.41437 
L 314.87717 -288.872479 
L 317.709179 -288.694511 
L 320.541188 -288.515988 
L 323.373197 -289.743282 
L 326.205206 -288.931785 
L 329.037215 -288.934033 
L 331.869225 -289.472672 
L 334.701234 -287.304994 
L 337.533243 -287.51589 
L 340.365252 -289.560507 
L 343.197261 -289.104904 
L 346.02927 -288.444024 
L 348.86128 -289.553314 
L 351.693289 -289.250588 
L 354.525298 -289.059537 
L 357.357307 -285.572356 
L 360.189316 -289.783741 
L 363.021325 -262.583579 
L 365.853335 -272.259947 
L 368.685344 -273.429784 
L 371.517353 -292.100086 
L 374.349362 -289.134319 
L 377.181371 -287.549727 
L 380.01338 -288.612678 
L 382.84539 -280.454045 
L 385.677399 -284.792797 
L 388.509408 -288.764022 
L 391.341417 -287.924493 
L 394.173426 -287.155343 
L 397.005435 -287.272675 
L 399.837445 -260.816829 
L 402.669454 -263.478515 
L 405.501463 -196.116348 
L 408.333472 -281.868939 
L 411.165481 -282.799483 
L 413.99749 -287.146019 
L 416.8295 -289.024209 
L 419.661509 -197.651329 
L 422.493518 -195.190024 
L 425.325527 -189.018845 
L 428.157536 -225.322975 
L 430.989545 -224.17529 
L 430.989545 -63.359403 
L 430.989545 -63.359403 
L 428.157536 -66.920941 
L 425.325527 -149.688839 
L 422.493518 -62.980909 
L 419.661509 -62.980909 
L 416.8295 -64.830133 
L 413.99749 -62.980909 
L 411.165481 -63.163036 
L 408.333472 -68.537645 
L 405.501463 -150.947405 
L 402.669454 -93.898747 
L 399.837445 -63.072401 
L 397.005435 -184.89787 
L 394.173426 -103.11699 
L 391.341417 -140.169164 
L 388.509408 -71.20597 
L 385.677399 -134.08156 
L 382.84539 -106.634487 
L 380.01338 -145.578359 
L 377.181371 -88.322231 
L 374.349362 -190.032865 
L 371.517353 -90.962497 
L 368.685344 -170.273624 
L 365.853335 -173.884062 
L 363.021325 -86.785636 
L 360.189316 -209.195377 
L 357.357307 -85.062592 
L 354.525298 -212.223901 
L 351.693289 -204.102397 
L 348.86128 -63.925507 
L 346.02927 -211.040055 
L 343.197261 -249.52032 
L 340.365252 -183.924904 
L 337.533243 -62.980909 
L 334.701234 -276.678482 
L 331.869225 -189.724916 
L 329.037215 -243.561294 
L 326.205206 -194.918321 
L 323.373197 -62.980909 
L 320.541188 -185.516817 
L 317.709179 -254.021872 
L 314.87717 -211.490151 
L 312.04516 -180.130525 
L 309.213151 -193.83223 
L 306.381142 -176.834864 
L 303.549133 -218.822268 
L 300.717124 -211.108723 
L 297.885115 -252.615194 
L 295.053105 -207.472748 
L 292.221096 -64.146387 
L 289.389087 -200.93718 
L 286.557078 -222.481478 
L 283.725069 -63.024091 
L 280.89306 -187.820482 
L 278.06105 -269.566865 
L 275.229041 -262.74917 
L 272.397032 -238.350133 
L 269.565023 -235.471728 
L 266.733014 -253.901502 
L 263.901005 -178.912217 
L 261.068995 -171.993284 
L 258.236986 -209.215997 
L 255.404977 -207.334067 
L 252.572968 -244.204856 
L 249.740959 -265.565937 
L 246.90895 -266.653441 
L 244.07694 -63.069394 
L 241.244931 -177.410601 
L 238.412922 -197.705371 
L 235.580913 -212.209412 
L 232.748904 -264.211705 
L 229.916895 -219.43681 
L 227.084885 -262.915099 
L 224.252876 -285.708532 
L 221.420867 -246.935747 
L 218.588858 -218.578693 
L 215.756849 -272.390514 
L 212.92484 -225.70372 
L 210.09283 -235.821509 
L 207.260821 -288.007677 
L 204.428812 -222.349544 
L 201.596803 -250.573545 
L 198.764794 -286.853386 
L 195.932785 -277.030518 
L 193.100775 -288.250977 
L 190.268766 -205.49807 
L 187.436757 -288.27592 
L 184.604748 -271.372966 
L 181.772739 -211.446079 
L 178.94073 -247.469705 
L 176.10872 -211.394694 
L 173.276711 -216.555296 
L 170.444702 -196.366606 
L 167.612693 -251.438364 
L 164.780684 -288.059396 
L 161.948675 -210.226856 
L 159.116665 -259.779446 
L 156.284656 -256.135119 
L 153.452647 -281.882265 
L 150.620638 -213.258816 
L 147.788629 -287.379438 
L 144.95662 -288.689706 
L 142.12461 -258.180756 
L 139.292601 -162.760715 
L 136.460592 -287.656045 
L 133.628583 -277.064701 
L 130.796574 -286.604688 
L 127.964565 -281.247197 
L 125.132555 -227.124926 
L 122.300546 -236.5737 
L 119.468537 -235.670769 
L 116.636528 -276.122778 
L 113.804519 -281.69367 
L 110.97251 -223.21565 
L 108.1405 -185.529391 
L 105.308491 -206.385656 
L 102.476482 -209.736115 
L 99.644473 -256.574632 
L 96.812464 -208.340898 
L 93.980455 -146.42508 
z
" style="stroke: #ffffff; stroke-opacity: 0.5"/>
    </defs>
    <g clip-path="url(#p60b5d536dd)">
     <use xlink:href="#m89f67761f8" x="0" y="345.6" style="fill: #55a868; fill-opacity: 0.5; stroke: #ffffff; stroke-opacity: 0.5"/>
    </g>
   </g>
   <g id="PolyCollection_4">
    <defs>
     <path id="me9efede621" d="M 93.980455 -65.90058 
L 93.980455 -214.010956 
L 96.812464 -233.527011 
L 99.644473 -286.575278 
L 102.476482 -303.03855 
L 105.308491 -281.870539 
L 108.1405 -295.305343 
L 110.97251 -288.514997 
L 113.804519 -289.60109 
L 116.636528 -286.977439 
L 119.468537 -284.457324 
L 122.300546 -296.658911 
L 125.132555 -288.68603 
L 127.964565 -288.094345 
L 130.796574 -292.69418 
L 133.628583 -290.869194 
L 136.460592 -285.414724 
L 139.292601 -287.708078 
L 142.12461 -287.531233 
L 144.95662 -289.645345 
L 147.788629 -289.550187 
L 150.620638 -287.600007 
L 153.452647 -286.160413 
L 156.284656 -291.562069 
L 159.116665 -289.227978 
L 161.948675 -290.413041 
L 164.780684 -287.086416 
L 167.612693 -291.554346 
L 170.444702 -289.555028 
L 173.276711 -288.940665 
L 176.10872 -288.265778 
L 178.94073 -289.18594 
L 181.772739 -289.100505 
L 184.604748 -288.673597 
L 187.436757 -290.038631 
L 190.268766 -287.811204 
L 193.100775 -289.950656 
L 195.932785 -288.194224 
L 198.764794 -289.668017 
L 201.596803 -287.74529 
L 204.428812 -289.690258 
L 207.260821 -287.793289 
L 210.09283 -288.580525 
L 212.92484 -286.180345 
L 215.756849 -288.587015 
L 218.588858 -289.163122 
L 221.420867 -294.745637 
L 224.252876 -288.22481 
L 227.084885 -289.247753 
L 229.916895 -289.694162 
L 232.748904 -288.160126 
L 235.580913 -287.300843 
L 238.412922 -288.669366 
L 241.244931 -287.699183 
L 244.07694 -273.956562 
L 246.90895 -286.860691 
L 249.740959 -287.068473 
L 252.572968 -291.651048 
L 255.404977 -286.333374 
L 258.236986 -286.418788 
L 261.068995 -288.513441 
L 263.901005 -287.887302 
L 266.733014 -288.492457 
L 269.565023 -287.169554 
L 272.397032 -285.084257 
L 275.229041 -280.59544 
L 278.06105 -287.142616 
L 280.89306 -285.577996 
L 283.725069 -287.706739 
L 286.557078 -281.36658 
L 289.389087 -285.058499 
L 292.221096 -286.822376 
L 295.053105 -285.353526 
L 297.885115 -271.982016 
L 300.717124 -282.536389 
L 303.549133 -289.809418 
L 306.381142 -287.445038 
L 309.213151 -275.146025 
L 312.04516 -274.769246 
L 314.87717 -288.363029 
L 317.709179 -254.627708 
L 320.541188 -258.936665 
L 323.373197 -286.327733 
L 326.205206 -291.337452 
L 329.037215 -282.020023 
L 331.869225 -287.328323 
L 334.701234 -285.24448 
L 337.533243 -248.653847 
L 340.365252 -281.983136 
L 343.197261 -266.232427 
L 346.02927 -274.42788 
L 348.86128 -286.956291 
L 351.693289 -246.720323 
L 354.525298 -237.403405 
L 357.357307 -182.083962 
L 360.189316 -266.210979 
L 363.021325 -222.971754 
L 365.853335 -263.268664 
L 368.685344 -271.808924 
L 371.517353 -198.993759 
L 374.349362 -181.387974 
L 377.181371 -204.287062 
L 380.01338 -180.044415 
L 382.84539 -164.541723 
L 385.677399 -189.854299 
L 388.509408 -196.248372 
L 391.341417 -222.442013 
L 394.173426 -243.783729 
L 397.005435 -150.278219 
L 399.837445 -190.123446 
L 402.669454 -263.67745 
L 405.501463 -182.908755 
L 408.333472 -192.588309 
L 411.165481 -199.834877 
L 413.99749 -187.115692 
L 416.8295 -179.831769 
L 419.661509 -190.089905 
L 422.493518 -189.472018 
L 425.325527 -184.979217 
L 428.157536 -192.799665 
L 430.989545 -139.311245 
L 430.989545 -63.555914 
L 430.989545 -63.555914 
L 428.157536 -63.28553 
L 425.325527 -63.196817 
L 422.493518 -63.427673 
L 419.661509 -66.719192 
L 416.8295 -63.28318 
L 413.99749 -63.196817 
L 411.165481 -63.196817 
L 408.333472 -63.239998 
L 405.501463 -65.060341 
L 402.669454 -63.196817 
L 399.837445 -69.153394 
L 397.005435 -63.239998 
L 394.173426 -63.941192 
L 391.341417 -63.423307 
L 388.509408 -63.196817 
L 385.677399 -141.450582 
L 382.84539 -63.286541 
L 380.01338 -63.289714 
L 377.181371 -63.836362 
L 374.349362 -66.990961 
L 371.517353 -65.501673 
L 368.685344 -64.534949 
L 365.853335 -64.017293 
L 363.021325 -63.572155 
L 360.189316 -67.846844 
L 357.357307 -63.196817 
L 354.525298 -63.196817 
L 351.693289 -67.351817 
L 348.86128 -72.880152 
L 346.02927 -145.149985 
L 343.197261 -64.109392 
L 340.365252 -85.904404 
L 337.533243 -99.689226 
L 334.701234 -63.334683 
L 331.869225 -239.781153 
L 329.037215 -181.1174 
L 326.205206 -100.398488 
L 323.373197 -216.297521 
L 320.541188 -63.196817 
L 317.709179 -63.962668 
L 314.87717 -82.89204 
L 312.04516 -173.723812 
L 309.213151 -145.099385 
L 306.381142 -63.239998 
L 303.549133 -63.239998 
L 300.717124 -257.495807 
L 297.885115 -162.619629 
L 295.053105 -225.181636 
L 292.221096 -108.474966 
L 289.389087 -185.279615 
L 286.557078 -255.672861 
L 283.725069 -63.285419 
L 280.89306 -201.807381 
L 278.06105 -191.749334 
L 275.229041 -63.239998 
L 272.397032 -214.239316 
L 269.565023 -265.494859 
L 266.733014 -100.897242 
L 263.901005 -223.400194 
L 261.068995 -276.935728 
L 258.236986 -258.396202 
L 255.404977 -187.61003 
L 252.572968 -201.502096 
L 249.740959 -202.787441 
L 246.90895 -192.371572 
L 244.07694 -229.77411 
L 241.244931 -224.322813 
L 238.412922 -257.872532 
L 235.580913 -231.760521 
L 232.748904 -277.415418 
L 229.916895 -270.090607 
L 227.084885 -204.999195 
L 224.252876 -217.059773 
L 221.420867 -192.162256 
L 218.588858 -226.722434 
L 215.756849 -242.531122 
L 212.92484 -163.771602 
L 210.09283 -183.563386 
L 207.260821 -210.861359 
L 204.428812 -174.481977 
L 201.596803 -243.079204 
L 198.764794 -255.902658 
L 195.932785 -192.85872 
L 193.100775 -246.153459 
L 190.268766 -247.430867 
L 187.436757 -284.922045 
L 184.604748 -185.96168 
L 181.772739 -215.150181 
L 178.94073 -200.694251 
L 176.10872 -217.783273 
L 173.276711 -192.37288 
L 170.444702 -285.126427 
L 167.612693 -265.750224 
L 164.780684 -215.780875 
L 161.948675 -200.085069 
L 159.116665 -190.567117 
L 156.284656 -186.06084 
L 153.452647 -208.471709 
L 150.620638 -176.140847 
L 147.788629 -140.363818 
L 144.95662 -262.99287 
L 142.12461 -217.819201 
L 139.292601 -199.513441 
L 136.460592 -219.767865 
L 133.628583 -238.833151 
L 130.796574 -229.188479 
L 127.964565 -191.1169 
L 125.132555 -215.232592 
L 122.300546 -271.73781 
L 119.468537 -179.659888 
L 116.636528 -271.615019 
L 113.804519 -217.934896 
L 110.97251 -184.865461 
L 108.1405 -249.833247 
L 105.308491 -106.831541 
L 102.476482 -221.383551 
L 99.644473 -226.56726 
L 96.812464 -187.191053 
L 93.980455 -65.90058 
z
" style="stroke: #ffffff; stroke-opacity: 0.5"/>
    </defs>
    <g clip-path="url(#p60b5d536dd)">
     <use xlink:href="#me9efede621" x="0" y="345.6" style="fill: #c44e52; fill-opacity: 0.5; stroke: #ffffff; stroke-opacity: 0.5"/>
    </g>
   </g>
   <g id="PolyCollection_5">
    <defs>
     <path id="ma21107d8eb" d="M 93.980455 -64.589875 
L 93.980455 -188.84497 
L 96.812464 -295.143868 
L 99.644473 -289.467524 
L 102.476482 -246.48534 
L 105.308491 -211.844681 
L 108.1405 -236.795372 
L 110.97251 -282.414864 
L 113.804519 -219.853842 
L 116.636528 -296.935933 
L 119.468537 -276.986869 
L 122.300546 -283.080521 
L 125.132555 -285.355073 
L 127.964565 -282.501167 
L 130.796574 -281.744635 
L 133.628583 -298.653018 
L 136.460592 -285.857129 
L 139.292601 -270.607178 
L 142.12461 -284.021726 
L 144.95662 -287.255858 
L 147.788629 -281.994506 
L 150.620638 -281.511276 
L 153.452647 -281.615638 
L 156.284656 -288.425245 
L 159.116665 -284.425753 
L 161.948675 -286.792022 
L 164.780684 -285.346639 
L 167.612693 -285.346166 
L 170.444702 -288.526501 
L 173.276711 -286.662332 
L 176.10872 -285.013415 
L 178.94073 -282.450956 
L 181.772739 -285.557367 
L 184.604748 -281.896047 
L 187.436757 -279.551191 
L 190.268766 -282.908158 
L 193.100775 -295.835866 
L 195.932785 -282.927924 
L 198.764794 -284.320875 
L 201.596803 -282.029881 
L 204.428812 -281.841176 
L 207.260821 -284.884833 
L 210.09283 -286.100937 
L 212.92484 -284.044904 
L 215.756849 -285.14737 
L 218.588858 -284.485774 
L 221.420867 -290.007173 
L 224.252876 -283.905443 
L 227.084885 -283.994861 
L 229.916895 -280.379689 
L 232.748904 -280.241743 
L 235.580913 -283.563479 
L 238.412922 -284.029867 
L 241.244931 -283.495324 
L 244.07694 -281.566442 
L 246.90895 -286.333906 
L 249.740959 -280.858837 
L 252.572968 -282.140043 
L 255.404977 -282.944123 
L 258.236986 -276.372757 
L 261.068995 -284.052584 
L 263.901005 -286.728291 
L 266.733014 -274.95626 
L 269.565023 -279.522404 
L 272.397032 -281.304709 
L 275.229041 -274.876498 
L 278.06105 -268.711749 
L 280.89306 -289.133223 
L 283.725069 -276.817604 
L 286.557078 -254.804203 
L 289.389087 -199.696775 
L 292.221096 -245.134333 
L 295.053105 -278.447228 
L 297.885115 -275.124044 
L 300.717124 -278.907129 
L 303.549133 -260.334466 
L 306.381142 -222.853743 
L 309.213151 -241.294181 
L 312.04516 -275.792232 
L 314.87717 -270.433556 
L 317.709179 -271.973931 
L 320.541188 -217.981517 
L 323.373197 -204.101354 
L 326.205206 -283.080862 
L 329.037215 -226.743698 
L 331.869225 -284.668458 
L 334.701234 -206.627046 
L 337.533243 -239.587748 
L 340.365252 -275.103032 
L 343.197261 -249.575517 
L 346.02927 -231.654973 
L 348.86128 -268.977422 
L 351.693289 -194.617858 
L 354.525298 -223.505236 
L 357.357307 -194.318384 
L 360.189316 -184.989598 
L 363.021325 -181.596919 
L 365.853335 -197.794787 
L 368.685344 -194.283094 
L 371.517353 -201.681069 
L 374.349362 -196.309476 
L 377.181371 -197.678561 
L 380.01338 -186.23333 
L 382.84539 -176.445422 
L 385.677399 -188.521269 
L 388.509408 -193.179737 
L 391.341417 -194.310914 
L 394.173426 -181.574081 
L 397.005435 -81.669883 
L 399.837445 -183.215999 
L 402.669454 -171.279771 
L 405.501463 -184.979369 
L 408.333472 -188.06784 
L 411.165481 -200.774157 
L 413.99749 -182.915796 
L 416.8295 -196.2012 
L 419.661509 -200.806317 
L 422.493518 -201.889187 
L 425.325527 -194.480128 
L 428.157536 -198.274874 
L 430.989545 -192.484691 
L 430.989545 -63.804712 
L 430.989545 -63.804712 
L 428.157536 -178.678216 
L 425.325527 -65.130187 
L 422.493518 -63.628632 
L 419.661509 -63.839004 
L 416.8295 -65.965396 
L 413.99749 -64.22202 
L 411.165481 -63.628632 
L 408.333472 -63.628632 
L 405.501463 -63.846972 
L 402.669454 -63.758177 
L 399.837445 -65.521655 
L 397.005435 -63.628632 
L 394.173426 -63.671814 
L 391.341417 -69.852592 
L 388.509408 -65.934286 
L 385.677399 -63.628632 
L 382.84539 -63.992224 
L 380.01338 -64.333412 
L 377.181371 -64.891825 
L 374.349362 -64.493964 
L 371.517353 -65.992377 
L 368.685344 -63.628632 
L 365.853335 -67.507759 
L 363.021325 -63.628632 
L 360.189316 -69.863405 
L 357.357307 -63.760733 
L 354.525298 -63.671814 
L 351.693289 -63.628632 
L 348.86128 -67.201311 
L 346.02927 -63.873351 
L 343.197261 -63.721377 
L 340.365252 -65.378315 
L 337.533243 -118.703125 
L 334.701234 -63.628632 
L 331.869225 -68.52657 
L 329.037215 -94.251946 
L 326.205206 -192.808244 
L 323.373197 -63.671814 
L 320.541188 -63.718358 
L 317.709179 -135.176674 
L 314.87717 -66.6055 
L 312.04516 -68.418071 
L 309.213151 -78.560599 
L 306.381142 -84.618487 
L 303.549133 -63.717466 
L 300.717124 -88.348977 
L 297.885115 -81.675274 
L 295.053105 -63.671814 
L 292.221096 -73.556884 
L 289.389087 -63.671814 
L 286.557078 -135.901408 
L 283.725069 -65.106422 
L 280.89306 -64.627457 
L 278.06105 -70.478822 
L 275.229041 -227.785174 
L 272.397032 -65.086967 
L 269.565023 -152.518322 
L 266.733014 -63.671814 
L 263.901005 -64.388429 
L 261.068995 -122.852422 
L 258.236986 -175.999933 
L 255.404977 -114.093344 
L 252.572968 -65.540471 
L 249.740959 -254.001743 
L 246.90895 -215.800943 
L 244.07694 -189.518768 
L 241.244931 -227.86802 
L 238.412922 -225.262037 
L 235.580913 -205.253494 
L 232.748904 -81.592092 
L 229.916895 -113.306546 
L 227.084885 -192.912467 
L 224.252876 -239.168925 
L 221.420867 -200.476409 
L 218.588858 -222.291752 
L 215.756849 -187.412535 
L 212.92484 -278.925945 
L 210.09283 -104.944924 
L 207.260821 -221.837706 
L 204.428812 -257.404691 
L 201.596803 -140.134107 
L 198.764794 -183.294006 
L 195.932785 -63.757146 
L 193.100775 -244.047957 
L 190.268766 -176.683934 
L 187.436757 -193.049625 
L 184.604748 -210.367269 
L 181.772739 -227.613373 
L 178.94073 -243.574951 
L 176.10872 -263.149689 
L 173.276711 -187.772795 
L 170.444702 -215.143469 
L 167.612693 -220.793315 
L 164.780684 -192.594835 
L 161.948675 -194.886208 
L 159.116665 -116.24477 
L 156.284656 -230.300658 
L 153.452647 -271.052358 
L 150.620638 -203.039132 
L 147.788629 -213.98259 
L 144.95662 -235.00444 
L 142.12461 -94.187757 
L 139.292601 -201.982158 
L 136.460592 -198.592731 
L 133.628583 -277.452751 
L 130.796574 -205.631788 
L 127.964565 -189.622821 
L 125.132555 -98.20457 
L 122.300546 -92.921121 
L 119.468537 -206.509094 
L 116.636528 -138.732824 
L 113.804519 -79.319843 
L 110.97251 -148.743427 
L 108.1405 -63.714996 
L 105.308491 -63.628632 
L 102.476482 -191.309686 
L 99.644473 -63.671814 
L 96.812464 -72.813351 
L 93.980455 -64.589875 
z
" style="stroke: #ffffff; stroke-opacity: 0.5"/>
    </defs>
    <g clip-path="url(#p60b5d536dd)">
     <use xlink:href="#ma21107d8eb" x="0" y="345.6" style="fill: #8172b3; fill-opacity: 0.5; stroke: #ffffff; stroke-opacity: 0.5"/>
    </g>
   </g>
   <g id="PolyCollection_6">
    <defs>
     <path id="mdfbc583b89" d="M 93.980455 -185.241581 
L 93.980455 -185.241581 
L 96.812464 -67.083157 
L 99.644473 -156.08664 
L 102.476482 -198.451523 
L 105.308491 -178.491666 
L 108.1405 -67.083157 
L 110.97251 -88.925488 
L 113.804519 -147.202017 
L 116.636528 -67.083157 
L 119.468537 -195.179116 
L 122.300546 -204.152369 
L 125.132555 -187.389923 
L 127.964565 -183.868302 
L 130.796574 -184.206061 
L 133.628583 -181.27123 
L 136.460592 -209.2977 
L 139.292601 -199.032622 
L 142.12461 -208.242049 
L 144.95662 -186.28364 
L 147.788629 -222.620777 
L 150.620638 -71.723264 
L 153.452647 -176.615969 
L 156.284656 -155.091012 
L 159.116665 -67.083157 
L 161.948675 -103.884632 
L 164.780684 -177.145042 
L 167.612693 -67.083157 
L 170.444702 -175.875731 
L 173.276711 -207.78541 
L 176.10872 -189.346725 
L 178.94073 -196.488363 
L 181.772739 -205.968109 
L 184.604748 -98.882092 
L 187.436757 -181.333182 
L 190.268766 -184.793792 
L 193.100775 -161.388873 
L 195.932785 -157.664251 
L 198.764794 -67.083157 
L 201.596803 -203.738658 
L 204.428812 -190.254839 
L 207.260821 -179.046333 
L 210.09283 -216.721741 
L 212.92484 -69.273906 
L 215.756849 -177.273579 
L 218.588858 -128.935521 
L 221.420867 -185.119902 
L 224.252876 -178.656663 
L 227.084885 -82.933033 
L 229.916895 -82.79051 
L 232.748904 -210.834053 
L 235.580913 -91.171601 
L 238.412922 -112.474506 
L 241.244931 -184.86288 
L 244.07694 -145.616064 
L 246.90895 -100.932419 
L 249.740959 -187.075489 
L 252.572968 -182.067316 
L 255.404977 -190.603113 
L 258.236986 -178.752229 
L 261.068995 -155.463101 
L 263.901005 -67.359459 
L 266.733014 -188.797655 
L 269.565023 -92.199709 
L 272.397032 -116.354569 
L 275.229041 -88.733887 
L 278.06105 -189.911171 
L 280.89306 -136.85088 
L 283.725069 -166.394231 
L 286.557078 -183.872692 
L 289.389087 -85.105608 
L 292.221096 -87.081495 
L 295.053105 -96.223013 
L 297.885115 -169.998211 
L 300.717124 -67.126338 
L 303.549133 -193.162415 
L 306.381142 -179.257566 
L 309.213151 -71.544486 
L 312.04516 -100.443345 
L 314.87717 -187.006456 
L 317.709179 -182.062292 
L 320.541188 -90.495022 
L 323.373197 -161.505684 
L 326.205206 -156.806658 
L 329.037215 -176.677618 
L 331.869225 -69.567011 
L 334.701234 -87.447021 
L 337.533243 -179.698751 
L 340.365252 -72.11119 
L 343.197261 -71.886033 
L 346.02927 -80.770625 
L 348.86128 -120.422115 
L 351.693289 -69.977822 
L 354.525298 -117.960599 
L 357.357307 -128.218473 
L 360.189316 -82.215635 
L 363.021325 -79.237737 
L 365.853335 -86.030495 
L 368.685344 -186.848523 
L 371.517353 -138.932058 
L 374.349362 -170.980395 
L 377.181371 -181.043516 
L 380.01338 -149.745876 
L 382.84539 -103.445837 
L 385.677399 -173.667367 
L 388.509408 -70.461395 
L 391.341417 -162.043404 
L 394.173426 -193.87487 
L 397.005435 -184.893175 
L 399.837445 -97.200284 
L 402.669454 -158.127945 
L 405.501463 -184.977344 
L 408.333472 -73.875502 
L 411.165481 -73.292736 
L 413.99749 -72.498568 
L 416.8295 -165.093489 
L 419.661509 -124.742951 
L 422.493518 -150.720933 
L 425.325527 -67.172076 
L 428.157536 -67.525908 
L 430.989545 -176.126407 
L 430.989545 -176.126407 
L 430.989545 -176.126407 
L 428.157536 -67.525908 
L 425.325527 -67.172076 
L 422.493518 -150.720933 
L 419.661509 -124.742951 
L 416.8295 -165.093489 
L 413.99749 -72.498568 
L 411.165481 -73.292736 
L 408.333472 -73.875502 
L 405.501463 -184.977344 
L 402.669454 -158.127945 
L 399.837445 -97.200284 
L 397.005435 -184.893175 
L 394.173426 -193.87487 
L 391.341417 -162.043404 
L 388.509408 -70.461395 
L 385.677399 -173.667367 
L 382.84539 -103.445837 
L 380.01338 -149.745876 
L 377.181371 -181.043516 
L 374.349362 -170.980395 
L 371.517353 -138.932058 
L 368.685344 -186.848523 
L 365.853335 -86.030495 
L 363.021325 -79.237737 
L 360.189316 -82.215635 
L 357.357307 -128.218473 
L 354.525298 -117.960599 
L 351.693289 -69.977822 
L 348.86128 -120.422115 
L 346.02927 -80.770625 
L 343.197261 -71.886033 
L 340.365252 -72.11119 
L 337.533243 -179.698751 
L 334.701234 -87.447021 
L 331.869225 -69.567011 
L 329.037215 -176.677618 
L 326.205206 -156.806658 
L 323.373197 -161.505684 
L 320.541188 -90.495022 
L 317.709179 -182.062292 
L 314.87717 -187.006456 
L 312.04516 -100.443345 
L 309.213151 -71.544486 
L 306.381142 -179.257566 
L 303.549133 -193.162415 
L 300.717124 -67.126338 
L 297.885115 -169.998211 
L 295.053105 -96.223013 
L 292.221096 -87.081495 
L 289.389087 -85.105608 
L 286.557078 -183.872692 
L 283.725069 -166.394231 
L 280.89306 -136.85088 
L 278.06105 -189.911171 
L 275.229041 -88.733887 
L 272.397032 -116.354569 
L 269.565023 -92.199709 
L 266.733014 -188.797655 
L 263.901005 -67.359459 
L 261.068995 -155.463101 
L 258.236986 -178.752229 
L 255.404977 -190.603113 
L 252.572968 -182.067316 
L 249.740959 -187.075489 
L 246.90895 -100.932419 
L 244.07694 -145.616064 
L 241.244931 -184.86288 
L 238.412922 -112.474506 
L 235.580913 -91.171601 
L 232.748904 -210.834053 
L 229.916895 -82.79051 
L 227.084885 -82.933033 
L 224.252876 -178.656663 
L 221.420867 -185.119902 
L 218.588858 -128.935521 
L 215.756849 -177.273579 
L 212.92484 -69.273906 
L 210.09283 -216.721741 
L 207.260821 -179.046333 
L 204.428812 -190.254839 
L 201.596803 -203.738658 
L 198.764794 -67.083157 
L 195.932785 -157.664251 
L 193.100775 -161.388873 
L 190.268766 -184.793792 
L 187.436757 -181.333182 
L 184.604748 -98.882092 
L 181.772739 -205.968109 
L 178.94073 -196.488363 
L 176.10872 -189.346725 
L 173.276711 -207.78541 
L 170.444702 -175.875731 
L 167.612693 -67.083157 
L 164.780684 -177.145042 
L 161.948675 -103.884632 
L 159.116665 -67.083157 
L 156.284656 -155.091012 
L 153.452647 -176.615969 
L 150.620638 -71.723264 
L 147.788629 -222.620777 
L 144.95662 -186.28364 
L 142.12461 -208.242049 
L 139.292601 -199.032622 
L 136.460592 -209.2977 
L 133.628583 -181.27123 
L 130.796574 -184.206061 
L 127.964565 -183.868302 
L 125.132555 -187.389923 
L 122.300546 -204.152369 
L 119.468537 -195.179116 
L 116.636528 -67.083157 
L 113.804519 -147.202017 
L 110.97251 -88.925488 
L 108.1405 -67.083157 
L 105.308491 -178.491666 
L 102.476482 -198.451523 
L 99.644473 -156.08664 
L 96.812464 -67.083157 
L 93.980455 -185.241581 
z
" style="stroke: #ffffff; stroke-opacity: 0.5"/>
    </defs>
    <g clip-path="url(#p60b5d536dd)">
     <use xlink:href="#mdfbc583b89" x="0" y="345.6" style="fill: #937860; fill-opacity: 0.5; stroke: #ffffff; stroke-opacity: 0.5"/>
    </g>
   </g>
   <g id="line2d_14">
    <path d="M 93.980455 56.391868 
L 96.812464 53.474105 
L 99.644473 59.345337 
L 102.476482 56.388665 
L 105.308491 60.297526 
L 108.1405 55.253778 
L 110.97251 71.661923 
L 113.804519 55.280354 
L 116.636528 60.12366 
L 119.468537 58.659676 
L 122.300546 74.23323 
L 125.132555 55.071211 
L 127.964565 95.127942 
L 130.796574 54.974742 
L 133.628583 55.135336 
L 136.460592 72.10498 
L 139.292601 72.219439 
L 142.12461 57.670058 
L 144.95662 92.354076 
L 147.788629 68.343502 
L 150.620638 61.711196 
L 153.452647 57.46898 
L 156.284656 68.163416 
L 159.116665 54.935965 
L 161.948675 67.74442 
L 164.780684 55.082539 
L 167.612693 75.06984 
L 170.444702 69.748455 
L 173.276711 54.988816 
L 176.10872 64.331197 
L 178.94073 80.237245 
L 181.772739 54.962063 
L 184.604748 107.509364 
L 187.436757 55.008858 
L 190.268766 90.714064 
L 193.100775 59.953124 
L 195.932785 56.028393 
L 198.764794 70.988276 
L 201.596803 66.693566 
L 204.428812 59.029266 
L 207.260821 73.359664 
L 210.09283 62.582457 
L 212.92484 77.232209 
L 215.756849 56.09545 
L 218.588858 70.050181 
L 221.420867 91.299723 
L 224.252876 89.621034 
L 227.084885 55.018438 
L 229.916895 69.760702 
L 232.748904 55.053446 
L 235.580913 90.265692 
L 238.412922 74.284224 
L 241.244931 55.004821 
L 244.07694 64.228734 
L 246.90895 59.892148 
L 249.740959 65.402173 
L 252.572968 55.131015 
L 255.404977 74.049324 
L 258.236986 70.399632 
L 261.068995 55.100185 
L 263.901005 60.741355 
L 266.733014 87.972664 
L 269.565023 55.018018 
L 272.397032 57.92283 
L 275.229041 70.534116 
L 278.06105 58.816343 
L 280.89306 55.001518 
L 283.725069 56.791317 
L 286.557078 75.953461 
L 289.389087 77.308156 
L 292.221096 57.22508 
L 295.053105 61.603105 
L 297.885115 74.240663 
L 300.717124 74.648548 
L 303.549133 72.816516 
L 306.381142 56.923515 
L 309.213151 96.408876 
L 312.04516 86.254271 
L 314.87717 75.108554 
L 317.709179 65.898472 
L 320.541188 95.357178 
L 323.373197 55.043099 
L 326.205206 80.988513 
L 329.037215 54.929277 
L 331.869225 62.538991 
L 334.701234 55.71687 
L 337.533243 79.603242 
L 340.365252 55.097852 
L 343.197261 98.856176 
L 346.02927 70.336848 
L 348.86128 82.66985 
L 351.693289 64.902925 
L 354.525298 68.929065 
L 357.357307 55.020365 
L 360.189316 86.602935 
L 363.021325 54.99538 
L 365.853335 79.150938 
L 368.685344 73.429849 
L 371.517353 83.182435 
L 374.349362 55.353681 
L 377.181371 56.678483 
L 380.01338 60.330012 
L 382.84539 57.049877 
L 385.677399 66.05853 
L 388.509408 58.763621 
L 391.341417 104.688097 
L 394.173426 60.693431 
L 397.005435 106.964438 
L 399.837445 89.194466 
L 402.669454 64.25541 
L 405.501463 64.973751 
L 408.333472 60.921192 
L 411.165481 104.918397 
L 413.99749 66.211381 
L 416.8295 89.154152 
L 419.661509 57.725621 
L 422.493518 69.851232 
L 425.325527 72.735058 
L 428.157536 88.286504 
L 430.989545 103.244347 
" clip-path="url(#p60b5d536dd)" style="fill: none; stroke: #4c72b0; stroke-width: 3; stroke-linecap: round"/>
   </g>
   <g id="line2d_15">
    <path d="M 93.980455 83.186703 
L 96.812464 55.627569 
L 99.644473 56.505145 
L 102.476482 55.533986 
L 105.308491 59.75075 
L 108.1405 79.558368 
L 110.97251 55.52896 
L 113.804519 76.188432 
L 116.636528 55.528503 
L 119.468537 56.100046 
L 122.300546 68.107394 
L 125.132555 74.673458 
L 127.964565 55.432474 
L 130.796574 65.802354 
L 133.628583 63.447547 
L 136.460592 67.011593 
L 139.292601 56.350837 
L 142.12461 55.468808 
L 144.95662 64.331187 
L 147.788629 55.430458 
L 150.620638 71.789722 
L 153.452647 86.084941 
L 156.284656 93.616047 
L 159.116665 76.964024 
L 161.948675 83.767382 
L 164.780684 55.582675 
L 167.612693 76.473933 
L 170.444702 93.936336 
L 173.276711 58.507212 
L 176.10872 55.292061 
L 178.94073 55.543789 
L 181.772739 72.718812 
L 184.604748 57.266087 
L 187.436757 68.191254 
L 190.268766 76.430681 
L 193.100775 56.037476 
L 195.932785 64.44079 
L 198.764794 77.900816 
L 201.596803 76.168247 
L 204.428812 58.526747 
L 207.260821 58.051112 
L 210.09283 71.997942 
L 212.92484 72.959217 
L 215.756849 55.419543 
L 218.588858 65.371672 
L 221.420867 57.399987 
L 224.252876 70.224828 
L 227.084885 58.374528 
L 229.916895 70.187627 
L 232.748904 84.273196 
L 235.580913 94.156731 
L 238.412922 57.858917 
L 241.244931 93.761104 
L 244.07694 82.28137 
L 246.90895 88.781792 
L 249.740959 63.306374 
L 252.572968 65.158205 
L 255.404977 88.097259 
L 258.236986 71.819238 
L 261.068995 55.305201 
L 263.901005 66.745689 
L 266.733014 69.260962 
L 269.565023 92.262067 
L 272.397032 55.519085 
L 275.229041 63.396959 
L 278.06105 72.7749 
L 280.89306 55.745975 
L 283.725069 55.51181 
L 286.557078 64.47551 
L 289.389087 55.784699 
L 292.221096 72.250412 
L 295.053105 67.756344 
L 297.885115 90.322219 
L 300.717124 59.850801 
L 303.549133 58.021446 
L 306.381142 100.744688 
L 309.213151 71.261774 
L 312.04516 78.728155 
L 314.87717 84.057411 
L 317.709179 60.299041 
L 320.541188 72.338134 
L 323.373197 91.839752 
L 326.205206 60.430745 
L 329.037215 73.168492 
L 331.869225 63.172754 
L 334.701234 70.898623 
L 337.533243 65.433866 
L 340.365252 56.730015 
L 343.197261 72.473073 
L 346.02927 56.074094 
L 348.86128 92.997806 
L 351.693289 107.747228 
L 354.525298 94.148229 
L 357.357307 59.400982 
L 360.189316 59.213627 
L 363.021325 61.125284 
L 365.853335 84.141407 
L 368.685344 79.661992 
L 371.517353 78.102385 
L 374.349362 96.851869 
L 377.181371 66.309246 
L 380.01338 78.975885 
L 382.84539 55.554153 
L 385.677399 69.017563 
L 388.509408 90.930251 
L 391.341417 96.55664 
L 394.173426 61.169114 
L 397.005435 60.484001 
L 399.837445 98.610656 
L 402.669454 77.098217 
L 405.501463 65.592155 
L 408.333472 76.017362 
L 411.165481 91.267532 
L 413.99749 55.493531 
L 416.8295 87.360117 
L 419.661509 79.082727 
L 422.493518 78.00155 
L 425.325527 66.343603 
L 428.157536 64.551459 
L 430.989545 73.697414 
" clip-path="url(#p60b5d536dd)" style="fill: none; stroke: #dd8452; stroke-width: 3; stroke-linecap: round"/>
   </g>
   <g id="line2d_16">
    <path d="M 93.980455 112.054141 
L 96.812464 76.24795 
L 99.644473 62.707318 
L 102.476482 72.634502 
L 105.308491 88.805527 
L 108.1405 91.117219 
L 110.97251 73.16837 
L 113.804519 56.674283 
L 116.636528 59.509176 
L 119.468537 82.605337 
L 122.300546 72.547715 
L 125.132555 77.548876 
L 127.964565 58.450374 
L 130.796574 56.984065 
L 133.628583 59.382614 
L 136.460592 56.988601 
L 139.292601 88.131248 
L 142.12461 62.613169 
L 144.95662 55.503233 
L 147.788629 56.639979 
L 150.620638 72.411342 
L 153.452647 58.612198 
L 156.284656 76.262801 
L 159.116665 64.40949 
L 161.948675 72.406972 
L 164.780684 57.071968 
L 167.612693 65.691086 
L 170.444702 74.740799 
L 173.276711 72.683454 
L 176.10872 87.479079 
L 178.94073 67.520313 
L 181.772739 82.775807 
L 184.604748 62.744999 
L 187.436757 56.614883 
L 190.268766 73.935838 
L 193.100775 56.235761 
L 195.932785 59.045984 
L 198.764794 57.0833 
L 201.596803 63.900172 
L 204.428812 77.930787 
L 207.260821 55.842603 
L 210.09283 75.115365 
L 212.92484 69.491768 
L 215.756849 60.137548 
L 218.588858 72.006367 
L 221.420867 66.57617 
L 224.252876 57.64252 
L 227.084885 65.291142 
L 229.916895 74.264058 
L 232.748904 63.879728 
L 235.580913 89.080006 
L 238.412922 106.669353 
L 241.244931 79.494389 
L 244.07694 111.261122 
L 246.90895 60.494102 
L 249.740959 62.150995 
L 252.572968 65.061419 
L 255.404977 81.465339 
L 258.236986 85.769209 
L 261.068995 102.898766 
L 263.901005 105.827526 
L 266.733014 64.870911 
L 269.565023 71.564075 
L 272.397032 85.414419 
L 275.229041 62.54373 
L 278.06105 65.09493 
L 280.89306 95.27599 
L 283.725069 117.725733 
L 286.557078 78.37685 
L 289.389087 88.210146 
L 292.221096 136.268801 
L 295.053105 84.231624 
L 297.885115 73.975113 
L 300.717124 81.797596 
L 303.549133 88.455675 
L 306.381142 112.370216 
L 309.213151 90.219957 
L 312.04516 83.900776 
L 314.87717 76.229974 
L 317.709179 64.510985 
L 320.541188 90.5617 
L 323.373197 107.119051 
L 326.205206 102.077094 
L 329.037215 66.703295 
L 331.869225 82.590523 
L 334.701234 61.834765 
L 337.533243 119.735062 
L 340.365252 112.552504 
L 343.197261 64.890217 
L 346.02927 90.593517 
L 348.86128 141.682795 
L 351.693289 87.235459 
L 354.525298 90.733888 
L 357.357307 129.379409 
L 360.189316 99.48453 
L 363.021325 168.824347 
L 365.853335 120.512811 
L 368.685344 97.727232 
L 371.517353 106.057111 
L 374.349362 99.815555 
L 377.181371 135.606725 
L 380.01338 121.192054 
L 382.84539 127.844327 
L 385.677399 141.700397 
L 388.509408 178.876179 
L 391.341417 140.038249 
L 394.173426 118.305389 
L 397.005435 100.039745 
L 399.837445 172.08881 
L 402.669454 152.261901 
L 405.501463 170.989447 
L 408.333472 162.937773 
L 411.165481 146.037437 
L 413.99749 159.187747 
L 416.8295 147.861653 
L 419.661509 202.590635 
L 422.493518 211.25928 
L 425.325527 176.02392 
L 428.157536 179.326854 
L 430.989545 177.465885 
" clip-path="url(#p60b5d536dd)" style="fill: none; stroke: #55a868; stroke-width: 3; stroke-linecap: round"/>
   </g>
   <g id="line2d_17">
    <path d="M 93.980455 203.454568 
L 96.812464 129.831579 
L 99.644473 95.110165 
L 102.476482 80.252206 
L 105.308491 131.442172 
L 108.1405 76.2994 
L 110.97251 87.543075 
L 113.804519 73.436079 
L 116.636528 65.558751 
L 119.468537 102.260672 
L 122.300546 60.722249 
L 125.132555 76.222235 
L 127.964565 99.171536 
L 130.796574 75.651882 
L 133.628583 76.680217 
L 136.460592 82.3165 
L 139.292601 83.768393 
L 142.12461 76.169682 
L 144.95662 65.522255 
L 147.788629 105.159123 
L 150.620638 81.664639 
L 153.452647 79.651222 
L 156.284656 79.080286 
L 159.116665 78.5282 
L 161.948675 88.532391 
L 164.780684 82.745433 
L 167.612693 64.09103 
L 170.444702 58.503057 
L 173.276711 77.6009 
L 176.10872 76.94397 
L 178.94073 88.815726 
L 181.772739 72.994041 
L 184.604748 92.18845 
L 187.436757 58.038115 
L 190.268766 71.205273 
L 193.100775 67.627572 
L 195.932785 77.711394 
L 198.764794 64.643754 
L 201.596803 68.767093 
L 204.428812 85.560392 
L 207.260821 78.415197 
L 210.09283 79.683169 
L 212.92484 125.127889 
L 215.756849 67.190792 
L 218.588858 92.530663 
L 221.420867 75.471379 
L 224.252876 72.787251 
L 227.084885 85.850413 
L 229.916895 62.626402 
L 232.748904 60.313087 
L 235.580913 79.663313 
L 238.412922 64.632148 
L 241.244931 71.640385 
L 244.07694 85.5976 
L 246.90895 94.409042 
L 249.740959 76.176979 
L 252.572968 95.661942 
L 255.404977 82.106786 
L 258.236986 75.478951 
L 261.068995 61.488757 
L 263.901005 87.258983 
L 266.733014 96.022195 
L 269.565023 68.043956 
L 272.397032 103.252053 
L 275.229041 167.193317 
L 278.06105 95.546499 
L 280.89306 104.707843 
L 283.725069 133.589181 
L 286.557078 75.088051 
L 289.389087 86.467903 
L 292.221096 115.52613 
L 295.053105 74.410421 
L 297.885115 120.999949 
L 300.717124 75.681304 
L 303.549133 117.557914 
L 306.381142 169.710296 
L 309.213151 136.010289 
L 312.04516 108.254692 
L 314.87717 150.972882 
L 317.709179 162.267805 
L 320.541188 144.212904 
L 323.373197 108.434666 
L 326.205206 126.557711 
L 329.037215 130.316912 
L 331.869225 85.292154 
L 334.701234 138.801629 
L 337.533243 165.323929 
L 340.365252 121.835424 
L 343.197261 173.114977 
L 346.02927 143.664269 
L 348.86128 160.10931 
L 351.693289 172.154755 
L 354.525298 206.748352 
L 357.357307 226.441972 
L 360.189316 200.338199 
L 363.021325 197.576885 
L 365.853335 203.494921 
L 368.685344 209.93283 
L 371.517353 235.650862 
L 374.349362 236.01906 
L 377.181371 220.411778 
L 380.01338 252.729569 
L 382.84539 241.401381 
L 385.677399 172.740794 
L 388.509408 197.040508 
L 391.341417 196.335618 
L 394.173426 194.215691 
L 397.005435 260.123128 
L 399.837445 201.027081 
L 402.669454 214.873766 
L 405.501463 235.095314 
L 408.333472 207.83255 
L 411.165481 207.368667 
L 413.99749 245.133315 
L 416.8295 248.162998 
L 419.661509 213.208269 
L 422.493518 223.8128 
L 425.325527 254.537702 
L 428.157536 205.870433 
L 430.989545 263.736449 
" clip-path="url(#p60b5d536dd)" style="fill: none; stroke: #c44e52; stroke-width: 3; stroke-linecap: round"/>
   </g>
   <g id="line2d_18">
    <path d="M 93.980455 217.98602 
L 96.812464 151.26727 
L 99.644473 138.238399 
L 102.476482 120.542909 
L 105.308491 198.554446 
L 108.1405 160.780861 
L 110.97251 114.838524 
L 113.804519 198.256777 
L 116.636528 112.010524 
L 119.468537 107.653701 
L 122.300546 109.483064 
L 125.132555 135.783097 
L 127.964565 111.791874 
L 130.796574 84.916425 
L 133.628583 61.332142 
L 136.460592 106.76477 
L 139.292601 105.287986 
L 142.12461 118.73806 
L 144.95662 82.737726 
L 147.788629 86.474811 
L 150.620638 88.667568 
L 153.452647 70.664649 
L 156.284656 73.757061 
L 159.116665 98.083971 
L 161.948675 91.339086 
L 164.780684 97.045371 
L 167.612693 76.303581 
L 170.444702 99.205155 
L 173.276711 112.060669 
L 176.10872 69.321839 
L 178.94073 73.529197 
L 181.772739 82.794469 
L 184.604748 96.552546 
L 187.436757 91.138018 
L 190.268766 121.985152 
L 193.100775 68.158499 
L 195.932785 124.790641 
L 198.764794 103.78346 
L 201.596803 100.917079 
L 204.428812 77.513892 
L 207.260821 84.974369 
L 210.09283 97.466746 
L 212.92484 63.779612 
L 215.756849 86.158122 
L 218.588858 81.707591 
L 221.420867 88.056324 
L 224.252876 79.005585 
L 227.084885 104.605839 
L 229.916895 142.693821 
L 232.748904 134.349088 
L 235.580913 83.500649 
L 238.412922 82.163704 
L 241.244931 76.020264 
L 244.07694 93.902925 
L 246.90895 83.750136 
L 249.740959 79.103902 
L 252.572968 112.695918 
L 255.404977 150.364009 
L 258.236986 110.594474 
L 261.068995 122.33197 
L 263.901005 167.297576 
L 266.733014 184.654127 
L 269.565023 119.679696 
L 272.397032 125.659597 
L 275.229041 84.952268 
L 278.06105 127.789808 
L 280.89306 123.700386 
L 283.725069 156.291404 
L 286.557078 140.346641 
L 289.389087 207.471065 
L 292.221096 196.257081 
L 295.053105 198.945573 
L 297.885115 190.751816 
L 300.717124 139.087012 
L 303.549133 224.908279 
L 306.381142 174.139415 
L 309.213151 165.321098 
L 312.04516 169.410737 
L 314.87717 168.504509 
L 317.709179 156.245699 
L 320.541188 191.182861 
L 323.373197 200.018666 
L 326.205206 126.475064 
L 329.037215 200.670368 
L 331.869225 137.084692 
L 334.701234 217.440565 
L 337.533243 150.737607 
L 340.365252 182.00125 
L 343.197261 192.525581 
L 346.02927 211.882378 
L 348.86128 207.674494 
L 351.693289 183.970937 
L 354.525298 225.898038 
L 357.357307 227.288129 
L 360.189316 226.025013 
L 363.021325 226.030559 
L 365.853335 218.860219 
L 368.685344 199.766864 
L 371.517353 196.21315 
L 374.349362 229.37125 
L 377.181371 209.839901 
L 380.01338 225.562482 
L 382.84539 236.137747 
L 385.677399 233.429861 
L 388.509408 210.178742 
L 391.341417 223.996746 
L 394.173426 213.736013 
L 397.005435 277.839274 
L 399.837445 201.567036 
L 402.669454 238.287047 
L 405.501463 215.603804 
L 408.333472 234.193946 
L 411.165481 232.518132 
L 413.99749 238.551908 
L 416.8295 188.825391 
L 419.661509 232.318549 
L 422.493518 253.702724 
L 425.325527 192.671704 
L 428.157536 161.256271 
L 430.989545 203.162554 
" clip-path="url(#p60b5d536dd)" style="fill: none; stroke: #8172b3; stroke-width: 3; stroke-linecap: round"/>
   </g>
   <g id="line2d_19">
    <path d="M 93.980455 160.358419 
L 96.812464 278.516843 
L 99.644473 189.51336 
L 102.476482 147.148477 
L 105.308491 167.108334 
L 108.1405 278.516843 
L 110.97251 256.674512 
L 113.804519 198.397983 
L 116.636528 278.516843 
L 119.468537 150.420884 
L 122.300546 141.447631 
L 125.132555 158.210077 
L 127.964565 161.731698 
L 130.796574 161.393939 
L 133.628583 164.32877 
L 136.460592 136.3023 
L 139.292601 146.567378 
L 142.12461 137.357951 
L 144.95662 159.31636 
L 147.788629 122.979223 
L 150.620638 273.876736 
L 153.452647 168.984031 
L 156.284656 190.508988 
L 159.116665 278.516843 
L 161.948675 241.715368 
L 164.780684 168.454958 
L 167.612693 278.516843 
L 170.444702 169.724269 
L 173.276711 137.81459 
L 176.10872 156.253275 
L 178.94073 149.111637 
L 181.772739 139.631891 
L 184.604748 246.717908 
L 187.436757 164.266818 
L 190.268766 160.806208 
L 193.100775 184.211127 
L 195.932785 187.935749 
L 198.764794 278.516843 
L 201.596803 141.861342 
L 204.428812 155.345161 
L 207.260821 166.553667 
L 210.09283 128.878259 
L 212.92484 276.326094 
L 215.756849 168.326421 
L 218.588858 216.664479 
L 221.420867 160.480098 
L 224.252876 166.943337 
L 227.084885 262.666967 
L 229.916895 262.80949 
L 232.748904 134.765947 
L 235.580913 254.428399 
L 238.412922 233.125494 
L 241.244931 160.73712 
L 244.07694 199.983936 
L 246.90895 244.667581 
L 249.740959 158.524511 
L 252.572968 163.532684 
L 255.404977 154.996887 
L 258.236986 166.847771 
L 261.068995 190.136899 
L 263.901005 278.240541 
L 266.733014 156.802345 
L 269.565023 253.400291 
L 272.397032 229.245431 
L 275.229041 256.866113 
L 278.06105 155.688829 
L 280.89306 208.74912 
L 283.725069 179.205769 
L 286.557078 161.727308 
L 289.389087 260.494392 
L 292.221096 258.518505 
L 295.053105 249.376987 
L 297.885115 175.601789 
L 300.717124 278.473662 
L 303.549133 152.437585 
L 306.381142 166.342434 
L 309.213151 274.055514 
L 312.04516 245.156655 
L 314.87717 158.593544 
L 317.709179 163.537708 
L 320.541188 255.104978 
L 323.373197 184.094316 
L 326.205206 188.793342 
L 329.037215 168.922382 
L 331.869225 276.032989 
L 334.701234 258.152979 
L 337.533243 165.901249 
L 340.365252 273.48881 
L 343.197261 273.713967 
L 346.02927 264.829375 
L 348.86128 225.177885 
L 351.693289 275.622178 
L 354.525298 227.639401 
L 357.357307 217.381527 
L 360.189316 263.384365 
L 363.021325 266.362263 
L 365.853335 259.569505 
L 368.685344 158.751477 
L 371.517353 206.667942 
L 374.349362 174.619605 
L 377.181371 164.556484 
L 380.01338 195.854124 
L 382.84539 242.154163 
L 385.677399 171.932633 
L 388.509408 275.138605 
L 391.341417 183.556596 
L 394.173426 151.72513 
L 397.005435 160.706825 
L 399.837445 248.399716 
L 402.669454 187.472055 
L 405.501463 160.622656 
L 408.333472 271.724498 
L 411.165481 272.307264 
L 413.99749 273.101432 
L 416.8295 180.506511 
L 419.661509 220.857049 
L 422.493518 194.879067 
L 425.325527 278.427924 
L 428.157536 278.074092 
L 430.989545 169.473593 
" clip-path="url(#p60b5d536dd)" style="fill: none; stroke: #937860; stroke-width: 3; stroke-linecap: round"/>
   </g>
   <g id="patch_3">
    <path d="M 77.13 294.66 
L 77.13 29.76 
" style="fill: none; stroke: #ffffff; stroke-width: 1.25; stroke-linejoin: miter; stroke-linecap: square"/>
   </g>
   <g id="patch_4">
    <path d="M 447.84 294.66 
L 447.84 29.76 
" style="fill: none; stroke: #ffffff; stroke-width: 1.25; stroke-linejoin: miter; stroke-linecap: square"/>
   </g>
   <g id="patch_5">
    <path d="M 77.13 294.66 
L 447.84 294.66 
" style="fill: none; stroke: #ffffff; stroke-width: 1.25; stroke-linejoin: miter; stroke-linecap: square"/>
   </g>
   <g id="patch_6">
    <path d="M 77.13 29.76 
L 447.84 29.76 
" style="fill: none; stroke: #ffffff; stroke-width: 1.25; stroke-linejoin: miter; stroke-linecap: square"/>
   </g>
   <g id="text_16">
    <!-- zinc-coating-v0 -->
    <g style="fill: #262626" transform="translate(209.126406 23.76)scale(0.14 -0.14)">
     <defs>
      <path id="DejaVuSans-7a" d="M 353 3500 
L 3084 3500 
L 3084 2975 
L 922 459 
L 3084 459 
L 3084 0 
L 275 0 
L 275 525 
L 2438 3041 
L 353 3041 
L 353 3500 
z
" transform="scale(0.015625)"/>
      <path id="DejaVuSans-2d" d="M 313 2009 
L 1997 2009 
L 1997 1497 
L 313 1497 
L 313 2009 
z
" transform="scale(0.015625)"/>
      <path id="DejaVuSans-61" d="M 2194 1759 
Q 1497 1759 1228 1600 
Q 959 1441 959 1056 
Q 959 750 1161 570 
Q 1363 391 1709 391 
Q 2188 391 2477 730 
Q 2766 1069 2766 1631 
L 2766 1759 
L 2194 1759 
z
M 3341 1997 
L 3341 0 
L 2766 0 
L 2766 531 
Q 2569 213 2275 61 
Q 1981 -91 1556 -91 
Q 1019 -91 701 211 
Q 384 513 384 1019 
Q 384 1609 779 1909 
Q 1175 2209 1959 2209 
L 2766 2209 
L 2766 2266 
Q 2766 2663 2505 2880 
Q 2244 3097 1772 3097 
Q 1472 3097 1187 3025 
Q 903 2953 641 2809 
L 641 3341 
Q 956 3463 1253 3523 
Q 1550 3584 1831 3584 
Q 2591 3584 2966 3190 
Q 3341 2797 3341 1997 
z
" transform="scale(0.015625)"/>
      <path id="DejaVuSans-67" d="M 2906 1791 
Q 2906 2416 2648 2759 
Q 2391 3103 1925 3103 
Q 1463 3103 1205 2759 
Q 947 2416 947 1791 
Q 947 1169 1205 825 
Q 1463 481 1925 481 
Q 2391 481 2648 825 
Q 2906 1169 2906 1791 
z
M 3481 434 
Q 3481 -459 3084 -895 
Q 2688 -1331 1869 -1331 
Q 1566 -1331 1297 -1286 
Q 1028 -1241 775 -1147 
L 775 -588 
Q 1028 -725 1275 -790 
Q 1522 -856 1778 -856 
Q 2344 -856 2625 -561 
Q 2906 -266 2906 331 
L 2906 616 
Q 2728 306 2450 153 
Q 2172 0 1784 0 
Q 1141 0 747 490 
Q 353 981 353 1791 
Q 353 2603 747 3093 
Q 1141 3584 1784 3584 
Q 2172 3584 2450 3431 
Q 2728 3278 2906 2969 
L 2906 3500 
L 3481 3500 
L 3481 434 
z
" transform="scale(0.015625)"/>
      <path id="DejaVuSans-76" d="M 191 3500 
L 800 3500 
L 1894 563 
L 2988 3500 
L 3597 3500 
L 2284 0 
L 1503 0 
L 191 3500 
z
" transform="scale(0.015625)"/>
     </defs>
     <use xlink:href="#DejaVuSans-7a"/>
     <use xlink:href="#DejaVuSans-69" x="52.490234"/>
     <use xlink:href="#DejaVuSans-6e" x="80.273438"/>
     <use xlink:href="#DejaVuSans-63" x="143.652344"/>
     <use xlink:href="#DejaVuSans-2d" x="198.632812"/>
     <use xlink:href="#DejaVuSans-63" x="234.716797"/>
     <use xlink:href="#DejaVuSans-6f" x="289.697266"/>
     <use xlink:href="#DejaVuSans-61" x="350.878906"/>
     <use xlink:href="#DejaVuSans-74" x="412.158203"/>
     <use xlink:href="#DejaVuSans-69" x="451.367188"/>
     <use xlink:href="#DejaVuSans-6e" x="479.150391"/>
     <use xlink:href="#DejaVuSans-67" x="542.529297"/>
     <use xlink:href="#DejaVuSans-2d" x="606.005859"/>
     <use xlink:href="#DejaVuSans-76" x="639.464844"/>
     <use xlink:href="#DejaVuSans-30" x="698.644531"/>
    </g>
   </g>
   <g id="legend_1">
    <g id="patch_7">
     <path d="M 84.83 289.16 
L 269.245 289.16 
Q 271.445 289.16 271.445 286.96 
L 271.445 191.184375 
Q 271.445 188.984375 269.245 188.984375 
L 84.83 188.984375 
Q 82.63 188.984375 82.63 191.184375 
L 82.63 286.96 
Q 82.63 289.16 84.83 289.16 
z
" style="fill: #eaeaf2; opacity: 0.8; stroke: #cccccc; stroke-linejoin: miter"/>
    </g>
    <g id="line2d_20">
     <path d="M 87.03 197.892656 
L 98.03 197.892656 
L 109.03 197.892656 
" style="fill: none; stroke: #4c72b0; stroke-width: 3; stroke-linecap: round"/>
    </g>
    <g id="text_17">
     <!-- DATS-DELAY-0-logs/ -->
     <g style="fill: #262626" transform="translate(117.83 201.742656)scale(0.11 -0.11)">
      <defs>
       <path id="DejaVuSans-44" d="M 1259 4147 
L 1259 519 
L 2022 519 
Q 2988 519 3436 956 
Q 3884 1394 3884 2338 
Q 3884 3275 3436 3711 
Q 2988 4147 2022 4147 
L 1259 4147 
z
M 628 4666 
L 1925 4666 
Q 3281 4666 3915 4102 
Q 4550 3538 4550 2338 
Q 4550 1131 3912 565 
Q 3275 0 1925 0 
L 628 0 
L 628 4666 
z
" transform="scale(0.015625)"/>
       <path id="DejaVuSans-41" d="M 2188 4044 
L 1331 1722 
L 3047 1722 
L 2188 4044 
z
M 1831 4666 
L 2547 4666 
L 4325 0 
L 3669 0 
L 3244 1197 
L 1141 1197 
L 716 0 
L 50 0 
L 1831 4666 
z
" transform="scale(0.015625)"/>
       <path id="DejaVuSans-45" d="M 628 4666 
L 3578 4666 
L 3578 4134 
L 1259 4134 
L 1259 2753 
L 3481 2753 
L 3481 2222 
L 1259 2222 
L 1259 531 
L 3634 531 
L 3634 0 
L 628 0 
L 628 4666 
z
" transform="scale(0.015625)"/>
       <path id="DejaVuSans-4c" d="M 628 4666 
L 1259 4666 
L 1259 531 
L 3531 531 
L 3531 0 
L 628 0 
L 628 4666 
z
" transform="scale(0.015625)"/>
       <path id="DejaVuSans-59" d="M -13 4666 
L 666 4666 
L 1959 2747 
L 3244 4666 
L 3922 4666 
L 2272 2222 
L 2272 0 
L 1638 0 
L 1638 2222 
L -13 4666 
z
" transform="scale(0.015625)"/>
       <path id="DejaVuSans-2f" d="M 1625 4666 
L 2156 4666 
L 531 -594 
L 0 -594 
L 1625 4666 
z
" transform="scale(0.015625)"/>
      </defs>
      <use xlink:href="#DejaVuSans-44"/>
      <use xlink:href="#DejaVuSans-41" x="75.251953"/>
      <use xlink:href="#DejaVuSans-54" x="135.910156"/>
      <use xlink:href="#DejaVuSans-53" x="196.994141"/>
      <use xlink:href="#DejaVuSans-2d" x="260.470703"/>
      <use xlink:href="#DejaVuSans-44" x="296.554688"/>
      <use xlink:href="#DejaVuSans-45" x="373.556641"/>
      <use xlink:href="#DejaVuSans-4c" x="436.740234"/>
      <use xlink:href="#DejaVuSans-41" x="494.703125"/>
      <use xlink:href="#DejaVuSans-59" x="555.361328"/>
      <use xlink:href="#DejaVuSans-2d" x="604.570312"/>
      <use xlink:href="#DejaVuSans-30" x="640.654297"/>
      <use xlink:href="#DejaVuSans-2d" x="704.277344"/>
      <use xlink:href="#DejaVuSans-6c" x="740.361328"/>
      <use xlink:href="#DejaVuSans-6f" x="768.144531"/>
      <use xlink:href="#DejaVuSans-67" x="829.326172"/>
      <use xlink:href="#DejaVuSans-73" x="892.802734"/>
      <use xlink:href="#DejaVuSans-2f" x="944.902344"/>
     </g>
    </g>
    <g id="line2d_21">
     <path d="M 87.03 214.038594 
L 98.03 214.038594 
L 109.03 214.038594 
" style="fill: none; stroke: #dd8452; stroke-width: 3; stroke-linecap: round"/>
    </g>
    <g id="text_18">
     <!-- DATS-DELAY-1-logs/ -->
     <g style="fill: #262626" transform="translate(117.83 217.888594)scale(0.11 -0.11)">
      <use xlink:href="#DejaVuSans-44"/>
      <use xlink:href="#DejaVuSans-41" x="75.251953"/>
      <use xlink:href="#DejaVuSans-54" x="135.910156"/>
      <use xlink:href="#DejaVuSans-53" x="196.994141"/>
      <use xlink:href="#DejaVuSans-2d" x="260.470703"/>
      <use xlink:href="#DejaVuSans-44" x="296.554688"/>
      <use xlink:href="#DejaVuSans-45" x="373.556641"/>
      <use xlink:href="#DejaVuSans-4c" x="436.740234"/>
      <use xlink:href="#DejaVuSans-41" x="494.703125"/>
      <use xlink:href="#DejaVuSans-59" x="555.361328"/>
      <use xlink:href="#DejaVuSans-2d" x="604.570312"/>
      <use xlink:href="#DejaVuSans-31" x="640.654297"/>
      <use xlink:href="#DejaVuSans-2d" x="704.277344"/>
      <use xlink:href="#DejaVuSans-6c" x="740.361328"/>
      <use xlink:href="#DejaVuSans-6f" x="768.144531"/>
      <use xlink:href="#DejaVuSans-67" x="829.326172"/>
      <use xlink:href="#DejaVuSans-73" x="892.802734"/>
      <use xlink:href="#DejaVuSans-2f" x="944.902344"/>
     </g>
    </g>
    <g id="line2d_22">
     <path d="M 87.03 230.184531 
L 98.03 230.184531 
L 109.03 230.184531 
" style="fill: none; stroke: #55a868; stroke-width: 3; stroke-linecap: round"/>
    </g>
    <g id="text_19">
     <!-- DATS-DELAY-5-logs/ -->
     <g style="fill: #262626" transform="translate(117.83 234.034531)scale(0.11 -0.11)">
      <use xlink:href="#DejaVuSans-44"/>
      <use xlink:href="#DejaVuSans-41" x="75.251953"/>
      <use xlink:href="#DejaVuSans-54" x="135.910156"/>
      <use xlink:href="#DejaVuSans-53" x="196.994141"/>
      <use xlink:href="#DejaVuSans-2d" x="260.470703"/>
      <use xlink:href="#DejaVuSans-44" x="296.554688"/>
      <use xlink:href="#DejaVuSans-45" x="373.556641"/>
      <use xlink:href="#DejaVuSans-4c" x="436.740234"/>
      <use xlink:href="#DejaVuSans-41" x="494.703125"/>
      <use xlink:href="#DejaVuSans-59" x="555.361328"/>
      <use xlink:href="#DejaVuSans-2d" x="604.570312"/>
      <use xlink:href="#DejaVuSans-35" x="640.654297"/>
      <use xlink:href="#DejaVuSans-2d" x="704.277344"/>
      <use xlink:href="#DejaVuSans-6c" x="740.361328"/>
      <use xlink:href="#DejaVuSans-6f" x="768.144531"/>
      <use xlink:href="#DejaVuSans-67" x="829.326172"/>
      <use xlink:href="#DejaVuSans-73" x="892.802734"/>
      <use xlink:href="#DejaVuSans-2f" x="944.902344"/>
     </g>
    </g>
    <g id="line2d_23">
     <path d="M 87.03 246.330469 
L 98.03 246.330469 
L 109.03 246.330469 
" style="fill: none; stroke: #c44e52; stroke-width: 3; stroke-linecap: round"/>
    </g>
    <g id="text_20">
     <!-- DATS-DELAY-10-logs/ -->
     <g style="fill: #262626" transform="translate(117.83 250.180469)scale(0.11 -0.11)">
      <use xlink:href="#DejaVuSans-44"/>
      <use xlink:href="#DejaVuSans-41" x="75.251953"/>
      <use xlink:href="#DejaVuSans-54" x="135.910156"/>
      <use xlink:href="#DejaVuSans-53" x="196.994141"/>
      <use xlink:href="#DejaVuSans-2d" x="260.470703"/>
      <use xlink:href="#DejaVuSans-44" x="296.554688"/>
      <use xlink:href="#DejaVuSans-45" x="373.556641"/>
      <use xlink:href="#DejaVuSans-4c" x="436.740234"/>
      <use xlink:href="#DejaVuSans-41" x="494.703125"/>
      <use xlink:href="#DejaVuSans-59" x="555.361328"/>
      <use xlink:href="#DejaVuSans-2d" x="604.570312"/>
      <use xlink:href="#DejaVuSans-31" x="640.654297"/>
      <use xlink:href="#DejaVuSans-30" x="704.277344"/>
      <use xlink:href="#DejaVuSans-2d" x="767.900391"/>
      <use xlink:href="#DejaVuSans-6c" x="803.984375"/>
      <use xlink:href="#DejaVuSans-6f" x="831.767578"/>
      <use xlink:href="#DejaVuSans-67" x="892.949219"/>
      <use xlink:href="#DejaVuSans-73" x="956.425781"/>
      <use xlink:href="#DejaVuSans-2f" x="1008.525391"/>
     </g>
    </g>
    <g id="line2d_24">
     <path d="M 87.03 262.476406 
L 98.03 262.476406 
L 109.03 262.476406 
" style="fill: none; stroke: #8172b3; stroke-width: 3; stroke-linecap: round"/>
    </g>
    <g id="text_21">
     <!-- DATS-DELAY-20-logs/ -->
     <g style="fill: #262626" transform="translate(117.83 266.326406)scale(0.11 -0.11)">
      <use xlink:href="#DejaVuSans-44"/>
      <use xlink:href="#DejaVuSans-41" x="75.251953"/>
      <use xlink:href="#DejaVuSans-54" x="135.910156"/>
      <use xlink:href="#DejaVuSans-53" x="196.994141"/>
      <use xlink:href="#DejaVuSans-2d" x="260.470703"/>
      <use xlink:href="#DejaVuSans-44" x="296.554688"/>
      <use xlink:href="#DejaVuSans-45" x="373.556641"/>
      <use xlink:href="#DejaVuSans-4c" x="436.740234"/>
      <use xlink:href="#DejaVuSans-41" x="494.703125"/>
      <use xlink:href="#DejaVuSans-59" x="555.361328"/>
      <use xlink:href="#DejaVuSans-2d" x="604.570312"/>
      <use xlink:href="#DejaVuSans-32" x="640.654297"/>
      <use xlink:href="#DejaVuSans-30" x="704.277344"/>
      <use xlink:href="#DejaVuSans-2d" x="767.900391"/>
      <use xlink:href="#DejaVuSans-6c" x="803.984375"/>
      <use xlink:href="#DejaVuSans-6f" x="831.767578"/>
      <use xlink:href="#DejaVuSans-67" x="892.949219"/>
      <use xlink:href="#DejaVuSans-73" x="956.425781"/>
      <use xlink:href="#DejaVuSans-2f" x="1008.525391"/>
     </g>
    </g>
    <g id="line2d_25">
     <path d="M 87.03 278.622344 
L 98.03 278.622344 
L 109.03 278.622344 
" style="fill: none; stroke: #937860; stroke-width: 3; stroke-linecap: round"/>
    </g>
    <g id="text_22">
     <!-- DATS-DELAY-100-GPU-logs/ -->
     <g style="fill: #262626" transform="translate(117.83 282.472344)scale(0.11 -0.11)">
      <defs>
       <path id="DejaVuSans-47" d="M 3809 666 
L 3809 1919 
L 2778 1919 
L 2778 2438 
L 4434 2438 
L 4434 434 
Q 4069 175 3628 42 
Q 3188 -91 2688 -91 
Q 1594 -91 976 548 
Q 359 1188 359 2328 
Q 359 3472 976 4111 
Q 1594 4750 2688 4750 
Q 3144 4750 3555 4637 
Q 3966 4525 4313 4306 
L 4313 3634 
Q 3963 3931 3569 4081 
Q 3175 4231 2741 4231 
Q 1884 4231 1454 3753 
Q 1025 3275 1025 2328 
Q 1025 1384 1454 906 
Q 1884 428 2741 428 
Q 3075 428 3337 486 
Q 3600 544 3809 666 
z
" transform="scale(0.015625)"/>
       <path id="DejaVuSans-50" d="M 1259 4147 
L 1259 2394 
L 2053 2394 
Q 2494 2394 2734 2622 
Q 2975 2850 2975 3272 
Q 2975 3691 2734 3919 
Q 2494 4147 2053 4147 
L 1259 4147 
z
M 628 4666 
L 2053 4666 
Q 2838 4666 3239 4311 
Q 3641 3956 3641 3272 
Q 3641 2581 3239 2228 
Q 2838 1875 2053 1875 
L 1259 1875 
L 1259 0 
L 628 0 
L 628 4666 
z
" transform="scale(0.015625)"/>
       <path id="DejaVuSans-55" d="M 556 4666 
L 1191 4666 
L 1191 1831 
Q 1191 1081 1462 751 
Q 1734 422 2344 422 
Q 2950 422 3222 751 
Q 3494 1081 3494 1831 
L 3494 4666 
L 4128 4666 
L 4128 1753 
Q 4128 841 3676 375 
Q 3225 -91 2344 -91 
Q 1459 -91 1007 375 
Q 556 841 556 1753 
L 556 4666 
z
" transform="scale(0.015625)"/>
      </defs>
      <use xlink:href="#DejaVuSans-44"/>
      <use xlink:href="#DejaVuSans-41" x="75.251953"/>
      <use xlink:href="#DejaVuSans-54" x="135.910156"/>
      <use xlink:href="#DejaVuSans-53" x="196.994141"/>
      <use xlink:href="#DejaVuSans-2d" x="260.470703"/>
      <use xlink:href="#DejaVuSans-44" x="296.554688"/>
      <use xlink:href="#DejaVuSans-45" x="373.556641"/>
      <use xlink:href="#DejaVuSans-4c" x="436.740234"/>
      <use xlink:href="#DejaVuSans-41" x="494.703125"/>
      <use xlink:href="#DejaVuSans-59" x="555.361328"/>
      <use xlink:href="#DejaVuSans-2d" x="604.570312"/>
      <use xlink:href="#DejaVuSans-31" x="640.654297"/>
      <use xlink:href="#DejaVuSans-30" x="704.277344"/>
      <use xlink:href="#DejaVuSans-30" x="767.900391"/>
      <use xlink:href="#DejaVuSans-2d" x="831.523438"/>
      <use xlink:href="#DejaVuSans-47" x="871.232422"/>
      <use xlink:href="#DejaVuSans-50" x="948.722656"/>
      <use xlink:href="#DejaVuSans-55" x="1009.025391"/>
      <use xlink:href="#DejaVuSans-2d" x="1082.21875"/>
      <use xlink:href="#DejaVuSans-6c" x="1118.302734"/>
      <use xlink:href="#DejaVuSans-6f" x="1146.085938"/>
      <use xlink:href="#DejaVuSans-67" x="1207.267578"/>
      <use xlink:href="#DejaVuSans-73" x="1270.744141"/>
      <use xlink:href="#DejaVuSans-2f" x="1322.84375"/>
     </g>
    </g>
   </g>
  </g>
 </g>
 <defs>
  <clipPath id="p60b5d536dd">
   <rect x="77.13" y="29.76" width="370.71" height="264.9"/>
  </clipPath>
 </defs>
</svg>
