<?xml version="1.0" encoding="utf-8" standalone="no"?>
<!DOCTYPE svg PUBLIC "-//W3C//DTD SVG 1.1//EN"
  "http://www.w3.org/Graphics/SVG/1.1/DTD/svg11.dtd">
<svg xmlns:xlink="http://www.w3.org/1999/xlink" width="460.8pt" height="345.6pt" viewBox="0 0 460.8 345.6" xmlns="http://www.w3.org/2000/svg" version="1.1">
 <metadata>
  <rdf:RDF xmlns:dc="http://purl.org/dc/elements/1.1/" xmlns:cc="http://creativecommons.org/ns#" xmlns:rdf="http://www.w3.org/1999/02/22-rdf-syntax-ns#">
   <cc:Work>
    <dc:type rdf:resource="http://purl.org/dc/dcmitype/StillImage"/>
    <dc:date>2022-09-12T15:16:07.320927</dc:date>
    <dc:format>image/svg+xml</dc:format>
    <dc:creator>
     <cc:Agent>
      <dc:title>Matplotlib v3.5.3, https://matplotlib.org/</dc:title>
     </cc:Agent>
    </dc:creator>
   </cc:Work>
  </rdf:RDF>
 </metadata>
 <defs>
  <style type="text/css">*{stroke-linejoin: round; stroke-linecap: butt}</style>
 </defs>
 <g id="figure_1">
  <g id="patch_1">
   <path d="M 0 345.6 
L 460.8 345.6 
L 460.8 0 
L 0 0 
z
" style="fill: #ffffff"/>
  </g>
  <g id="axes_1">
   <g id="patch_2">
    <path d="M 77.13 294.66 
L 447.84 294.66 
L 447.84 12.96 
L 77.13 12.96 
z
" style="fill: #eaeaf2"/>
   </g>
   <g id="matplotlib.axis_1">
    <g id="xtick_1">
     <g id="line2d_1">
      <path d="M 91.148445 294.66 
L 91.148445 12.96 
" clip-path="url(#p4f21a92923)" style="fill: none; stroke: #ffffff; stroke-linecap: round"/>
     </g>
     <g id="text_1">
      <!-- 0.00 -->
      <g style="fill: #262626" transform="translate(78.902352 312.518281)scale(0.11 -0.11)">
       <defs>
        <path id="DejaVuSans-30" d="M 2034 4250 
Q 1547 4250 1301 3770 
Q 1056 3291 1056 2328 
Q 1056 1369 1301 889 
Q 1547 409 2034 409 
Q 2525 409 2770 889 
Q 3016 1369 3016 2328 
Q 3016 3291 2770 3770 
Q 2525 4250 2034 4250 
z
M 2034 4750 
Q 2819 4750 3233 4129 
Q 3647 3509 3647 2328 
Q 3647 1150 3233 529 
Q 2819 -91 2034 -91 
Q 1250 -91 836 529 
Q 422 1150 422 2328 
Q 422 3509 836 4129 
Q 1250 4750 2034 4750 
z
" transform="scale(0.015625)"/>
        <path id="DejaVuSans-2e" d="M 684 794 
L 1344 794 
L 1344 0 
L 684 0 
L 684 794 
z
" transform="scale(0.015625)"/>
       </defs>
       <use xlink:href="#DejaVuSans-30"/>
       <use xlink:href="#DejaVuSans-2e" x="63.623047"/>
       <use xlink:href="#DejaVuSans-30" x="95.410156"/>
       <use xlink:href="#DejaVuSans-30" x="159.033203"/>
      </g>
     </g>
    </g>
    <g id="xtick_2">
     <g id="line2d_2">
      <path d="M 147.788629 294.66 
L 147.788629 12.96 
" clip-path="url(#p4f21a92923)" style="fill: none; stroke: #ffffff; stroke-linecap: round"/>
     </g>
     <g id="text_2">
      <!-- 0.05 -->
      <g style="fill: #262626" transform="translate(135.542535 312.518281)scale(0.11 -0.11)">
       <defs>
        <path id="DejaVuSans-35" d="M 691 4666 
L 3169 4666 
L 3169 4134 
L 1269 4134 
L 1269 2991 
Q 1406 3038 1543 3061 
Q 1681 3084 1819 3084 
Q 2600 3084 3056 2656 
Q 3513 2228 3513 1497 
Q 3513 744 3044 326 
Q 2575 -91 1722 -91 
Q 1428 -91 1123 -41 
Q 819 9 494 109 
L 494 744 
Q 775 591 1075 516 
Q 1375 441 1709 441 
Q 2250 441 2565 725 
Q 2881 1009 2881 1497 
Q 2881 1984 2565 2268 
Q 2250 2553 1709 2553 
Q 1456 2553 1204 2497 
Q 953 2441 691 2322 
L 691 4666 
z
" transform="scale(0.015625)"/>
       </defs>
       <use xlink:href="#DejaVuSans-30"/>
       <use xlink:href="#DejaVuSans-2e" x="63.623047"/>
       <use xlink:href="#DejaVuSans-30" x="95.410156"/>
       <use xlink:href="#DejaVuSans-35" x="159.033203"/>
      </g>
     </g>
    </g>
    <g id="xtick_3">
     <g id="line2d_3">
      <path d="M 204.428812 294.66 
L 204.428812 12.96 
" clip-path="url(#p4f21a92923)" style="fill: none; stroke: #ffffff; stroke-linecap: round"/>
     </g>
     <g id="text_3">
      <!-- 0.10 -->
      <g style="fill: #262626" transform="translate(192.182718 312.518281)scale(0.11 -0.11)">
       <defs>
        <path id="DejaVuSans-31" d="M 794 531 
L 1825 531 
L 1825 4091 
L 703 3866 
L 703 4441 
L 1819 4666 
L 2450 4666 
L 2450 531 
L 3481 531 
L 3481 0 
L 794 0 
L 794 531 
z
" transform="scale(0.015625)"/>
       </defs>
       <use xlink:href="#DejaVuSans-30"/>
       <use xlink:href="#DejaVuSans-2e" x="63.623047"/>
       <use xlink:href="#DejaVuSans-31" x="95.410156"/>
       <use xlink:href="#DejaVuSans-30" x="159.033203"/>
      </g>
     </g>
    </g>
    <g id="xtick_4">
     <g id="line2d_4">
      <path d="M 261.068995 294.66 
L 261.068995 12.96 
" clip-path="url(#p4f21a92923)" style="fill: none; stroke: #ffffff; stroke-linecap: round"/>
     </g>
     <g id="text_4">
      <!-- 0.15 -->
      <g style="fill: #262626" transform="translate(248.822902 312.518281)scale(0.11 -0.11)">
       <use xlink:href="#DejaVuSans-30"/>
       <use xlink:href="#DejaVuSans-2e" x="63.623047"/>
       <use xlink:href="#DejaVuSans-31" x="95.410156"/>
       <use xlink:href="#DejaVuSans-35" x="159.033203"/>
      </g>
     </g>
    </g>
    <g id="xtick_5">
     <g id="line2d_5">
      <path d="M 317.709179 294.66 
L 317.709179 12.96 
" clip-path="url(#p4f21a92923)" style="fill: none; stroke: #ffffff; stroke-linecap: round"/>
     </g>
     <g id="text_5">
      <!-- 0.20 -->
      <g style="fill: #262626" transform="translate(305.463085 312.518281)scale(0.11 -0.11)">
       <defs>
        <path id="DejaVuSans-32" d="M 1228 531 
L 3431 531 
L 3431 0 
L 469 0 
L 469 531 
Q 828 903 1448 1529 
Q 2069 2156 2228 2338 
Q 2531 2678 2651 2914 
Q 2772 3150 2772 3378 
Q 2772 3750 2511 3984 
Q 2250 4219 1831 4219 
Q 1534 4219 1204 4116 
Q 875 4013 500 3803 
L 500 4441 
Q 881 4594 1212 4672 
Q 1544 4750 1819 4750 
Q 2544 4750 2975 4387 
Q 3406 4025 3406 3419 
Q 3406 3131 3298 2873 
Q 3191 2616 2906 2266 
Q 2828 2175 2409 1742 
Q 1991 1309 1228 531 
z
" transform="scale(0.015625)"/>
       </defs>
       <use xlink:href="#DejaVuSans-30"/>
       <use xlink:href="#DejaVuSans-2e" x="63.623047"/>
       <use xlink:href="#DejaVuSans-32" x="95.410156"/>
       <use xlink:href="#DejaVuSans-30" x="159.033203"/>
      </g>
     </g>
    </g>
    <g id="xtick_6">
     <g id="line2d_6">
      <path d="M 374.349362 294.66 
L 374.349362 12.96 
" clip-path="url(#p4f21a92923)" style="fill: none; stroke: #ffffff; stroke-linecap: round"/>
     </g>
     <g id="text_6">
      <!-- 0.25 -->
      <g style="fill: #262626" transform="translate(362.103268 312.518281)scale(0.11 -0.11)">
       <use xlink:href="#DejaVuSans-30"/>
       <use xlink:href="#DejaVuSans-2e" x="63.623047"/>
       <use xlink:href="#DejaVuSans-32" x="95.410156"/>
       <use xlink:href="#DejaVuSans-35" x="159.033203"/>
      </g>
     </g>
    </g>
    <g id="xtick_7">
     <g id="line2d_7">
      <path d="M 430.989545 294.66 
L 430.989545 12.96 
" clip-path="url(#p4f21a92923)" style="fill: none; stroke: #ffffff; stroke-linecap: round"/>
     </g>
     <g id="text_7">
      <!-- 0.30 -->
      <g style="fill: #262626" transform="translate(418.743452 312.518281)scale(0.11 -0.11)">
       <defs>
        <path id="DejaVuSans-33" d="M 2597 2516 
Q 3050 2419 3304 2112 
Q 3559 1806 3559 1356 
Q 3559 666 3084 287 
Q 2609 -91 1734 -91 
Q 1441 -91 1130 -33 
Q 819 25 488 141 
L 488 750 
Q 750 597 1062 519 
Q 1375 441 1716 441 
Q 2309 441 2620 675 
Q 2931 909 2931 1356 
Q 2931 1769 2642 2001 
Q 2353 2234 1838 2234 
L 1294 2234 
L 1294 2753 
L 1863 2753 
Q 2328 2753 2575 2939 
Q 2822 3125 2822 3475 
Q 2822 3834 2567 4026 
Q 2313 4219 1838 4219 
Q 1578 4219 1281 4162 
Q 984 4106 628 3988 
L 628 4550 
Q 988 4650 1302 4700 
Q 1616 4750 1894 4750 
Q 2613 4750 3031 4423 
Q 3450 4097 3450 3541 
Q 3450 3153 3228 2886 
Q 3006 2619 2597 2516 
z
" transform="scale(0.015625)"/>
       </defs>
       <use xlink:href="#DejaVuSans-30"/>
       <use xlink:href="#DejaVuSans-2e" x="63.623047"/>
       <use xlink:href="#DejaVuSans-33" x="95.410156"/>
       <use xlink:href="#DejaVuSans-30" x="159.033203"/>
      </g>
     </g>
    </g>
    <g id="text_8">
     <!-- Zeitschritte (in Millionen) -->
     <g style="fill: #262626" transform="translate(174.570469 329.44375)scale(0.14 -0.14)">
      <defs>
       <path id="DejaVuSans-5a" d="M 359 4666 
L 4025 4666 
L 4025 4184 
L 1075 531 
L 4097 531 
L 4097 0 
L 288 0 
L 288 481 
L 3238 4134 
L 359 4134 
L 359 4666 
z
" transform="scale(0.015625)"/>
       <path id="DejaVuSans-65" d="M 3597 1894 
L 3597 1613 
L 953 1613 
Q 991 1019 1311 708 
Q 1631 397 2203 397 
Q 2534 397 2845 478 
Q 3156 559 3463 722 
L 3463 178 
Q 3153 47 2828 -22 
Q 2503 -91 2169 -91 
Q 1331 -91 842 396 
Q 353 884 353 1716 
Q 353 2575 817 3079 
Q 1281 3584 2069 3584 
Q 2775 3584 3186 3129 
Q 3597 2675 3597 1894 
z
M 3022 2063 
Q 3016 2534 2758 2815 
Q 2500 3097 2075 3097 
Q 1594 3097 1305 2825 
Q 1016 2553 972 2059 
L 3022 2063 
z
" transform="scale(0.015625)"/>
       <path id="DejaVuSans-69" d="M 603 3500 
L 1178 3500 
L 1178 0 
L 603 0 
L 603 3500 
z
M 603 4863 
L 1178 4863 
L 1178 4134 
L 603 4134 
L 603 4863 
z
" transform="scale(0.015625)"/>
       <path id="DejaVuSans-74" d="M 1172 4494 
L 1172 3500 
L 2356 3500 
L 2356 3053 
L 1172 3053 
L 1172 1153 
Q 1172 725 1289 603 
Q 1406 481 1766 481 
L 2356 481 
L 2356 0 
L 1766 0 
Q 1100 0 847 248 
Q 594 497 594 1153 
L 594 3053 
L 172 3053 
L 172 3500 
L 594 3500 
L 594 4494 
L 1172 4494 
z
" transform="scale(0.015625)"/>
       <path id="DejaVuSans-73" d="M 2834 3397 
L 2834 2853 
Q 2591 2978 2328 3040 
Q 2066 3103 1784 3103 
Q 1356 3103 1142 2972 
Q 928 2841 928 2578 
Q 928 2378 1081 2264 
Q 1234 2150 1697 2047 
L 1894 2003 
Q 2506 1872 2764 1633 
Q 3022 1394 3022 966 
Q 3022 478 2636 193 
Q 2250 -91 1575 -91 
Q 1294 -91 989 -36 
Q 684 19 347 128 
L 347 722 
Q 666 556 975 473 
Q 1284 391 1588 391 
Q 1994 391 2212 530 
Q 2431 669 2431 922 
Q 2431 1156 2273 1281 
Q 2116 1406 1581 1522 
L 1381 1569 
Q 847 1681 609 1914 
Q 372 2147 372 2553 
Q 372 3047 722 3315 
Q 1072 3584 1716 3584 
Q 2034 3584 2315 3537 
Q 2597 3491 2834 3397 
z
" transform="scale(0.015625)"/>
       <path id="DejaVuSans-63" d="M 3122 3366 
L 3122 2828 
Q 2878 2963 2633 3030 
Q 2388 3097 2138 3097 
Q 1578 3097 1268 2742 
Q 959 2388 959 1747 
Q 959 1106 1268 751 
Q 1578 397 2138 397 
Q 2388 397 2633 464 
Q 2878 531 3122 666 
L 3122 134 
Q 2881 22 2623 -34 
Q 2366 -91 2075 -91 
Q 1284 -91 818 406 
Q 353 903 353 1747 
Q 353 2603 823 3093 
Q 1294 3584 2113 3584 
Q 2378 3584 2631 3529 
Q 2884 3475 3122 3366 
z
" transform="scale(0.015625)"/>
       <path id="DejaVuSans-68" d="M 3513 2113 
L 3513 0 
L 2938 0 
L 2938 2094 
Q 2938 2591 2744 2837 
Q 2550 3084 2163 3084 
Q 1697 3084 1428 2787 
Q 1159 2491 1159 1978 
L 1159 0 
L 581 0 
L 581 4863 
L 1159 4863 
L 1159 2956 
Q 1366 3272 1645 3428 
Q 1925 3584 2291 3584 
Q 2894 3584 3203 3211 
Q 3513 2838 3513 2113 
z
" transform="scale(0.015625)"/>
       <path id="DejaVuSans-72" d="M 2631 2963 
Q 2534 3019 2420 3045 
Q 2306 3072 2169 3072 
Q 1681 3072 1420 2755 
Q 1159 2438 1159 1844 
L 1159 0 
L 581 0 
L 581 3500 
L 1159 3500 
L 1159 2956 
Q 1341 3275 1631 3429 
Q 1922 3584 2338 3584 
Q 2397 3584 2469 3576 
Q 2541 3569 2628 3553 
L 2631 2963 
z
" transform="scale(0.015625)"/>
       <path id="DejaVuSans-20" transform="scale(0.015625)"/>
       <path id="DejaVuSans-28" d="M 1984 4856 
Q 1566 4138 1362 3434 
Q 1159 2731 1159 2009 
Q 1159 1288 1364 580 
Q 1569 -128 1984 -844 
L 1484 -844 
Q 1016 -109 783 600 
Q 550 1309 550 2009 
Q 550 2706 781 3412 
Q 1013 4119 1484 4856 
L 1984 4856 
z
" transform="scale(0.015625)"/>
       <path id="DejaVuSans-6e" d="M 3513 2113 
L 3513 0 
L 2938 0 
L 2938 2094 
Q 2938 2591 2744 2837 
Q 2550 3084 2163 3084 
Q 1697 3084 1428 2787 
Q 1159 2491 1159 1978 
L 1159 0 
L 581 0 
L 581 3500 
L 1159 3500 
L 1159 2956 
Q 1366 3272 1645 3428 
Q 1925 3584 2291 3584 
Q 2894 3584 3203 3211 
Q 3513 2838 3513 2113 
z
" transform="scale(0.015625)"/>
       <path id="DejaVuSans-4d" d="M 628 4666 
L 1569 4666 
L 2759 1491 
L 3956 4666 
L 4897 4666 
L 4897 0 
L 4281 0 
L 4281 4097 
L 3078 897 
L 2444 897 
L 1241 4097 
L 1241 0 
L 628 0 
L 628 4666 
z
" transform="scale(0.015625)"/>
       <path id="DejaVuSans-6c" d="M 603 4863 
L 1178 4863 
L 1178 0 
L 603 0 
L 603 4863 
z
" transform="scale(0.015625)"/>
       <path id="DejaVuSans-6f" d="M 1959 3097 
Q 1497 3097 1228 2736 
Q 959 2375 959 1747 
Q 959 1119 1226 758 
Q 1494 397 1959 397 
Q 2419 397 2687 759 
Q 2956 1122 2956 1747 
Q 2956 2369 2687 2733 
Q 2419 3097 1959 3097 
z
M 1959 3584 
Q 2709 3584 3137 3096 
Q 3566 2609 3566 1747 
Q 3566 888 3137 398 
Q 2709 -91 1959 -91 
Q 1206 -91 779 398 
Q 353 888 353 1747 
Q 353 2609 779 3096 
Q 1206 3584 1959 3584 
z
" transform="scale(0.015625)"/>
       <path id="DejaVuSans-29" d="M 513 4856 
L 1013 4856 
Q 1481 4119 1714 3412 
Q 1947 2706 1947 2009 
Q 1947 1309 1714 600 
Q 1481 -109 1013 -844 
L 513 -844 
Q 928 -128 1133 580 
Q 1338 1288 1338 2009 
Q 1338 2731 1133 3434 
Q 928 4138 513 4856 
z
" transform="scale(0.015625)"/>
      </defs>
      <use xlink:href="#DejaVuSans-5a"/>
      <use xlink:href="#DejaVuSans-65" x="68.505859"/>
      <use xlink:href="#DejaVuSans-69" x="130.029297"/>
      <use xlink:href="#DejaVuSans-74" x="157.8125"/>
      <use xlink:href="#DejaVuSans-73" x="197.021484"/>
      <use xlink:href="#DejaVuSans-63" x="249.121094"/>
      <use xlink:href="#DejaVuSans-68" x="304.101562"/>
      <use xlink:href="#DejaVuSans-72" x="367.480469"/>
      <use xlink:href="#DejaVuSans-69" x="408.59375"/>
      <use xlink:href="#DejaVuSans-74" x="436.376953"/>
      <use xlink:href="#DejaVuSans-74" x="475.585938"/>
      <use xlink:href="#DejaVuSans-65" x="514.794922"/>
      <use xlink:href="#DejaVuSans-20" x="576.318359"/>
      <use xlink:href="#DejaVuSans-28" x="608.105469"/>
      <use xlink:href="#DejaVuSans-69" x="647.119141"/>
      <use xlink:href="#DejaVuSans-6e" x="674.902344"/>
      <use xlink:href="#DejaVuSans-20" x="738.28125"/>
      <use xlink:href="#DejaVuSans-4d" x="770.068359"/>
      <use xlink:href="#DejaVuSans-69" x="856.347656"/>
      <use xlink:href="#DejaVuSans-6c" x="884.130859"/>
      <use xlink:href="#DejaVuSans-6c" x="911.914062"/>
      <use xlink:href="#DejaVuSans-69" x="939.697266"/>
      <use xlink:href="#DejaVuSans-6f" x="967.480469"/>
      <use xlink:href="#DejaVuSans-6e" x="1028.662109"/>
      <use xlink:href="#DejaVuSans-65" x="1092.041016"/>
      <use xlink:href="#DejaVuSans-6e" x="1153.564453"/>
      <use xlink:href="#DejaVuSans-29" x="1216.943359"/>
     </g>
    </g>
   </g>
   <g id="matplotlib.axis_2">
    <g id="ytick_1">
     <g id="line2d_8">
      <path d="M 77.13 293.269003 
L 447.84 293.269003 
" clip-path="url(#p4f21a92923)" style="fill: none; stroke: #ffffff; stroke-linecap: round"/>
     </g>
     <g id="text_9">
      <!-- −4000 -->
      <g style="fill: #262626" transform="translate(30.417344 297.448143)scale(0.11 -0.11)">
       <defs>
        <path id="DejaVuSans-2212" d="M 678 2272 
L 4684 2272 
L 4684 1741 
L 678 1741 
L 678 2272 
z
" transform="scale(0.015625)"/>
        <path id="DejaVuSans-34" d="M 2419 4116 
L 825 1625 
L 2419 1625 
L 2419 4116 
z
M 2253 4666 
L 3047 4666 
L 3047 1625 
L 3713 1625 
L 3713 1100 
L 3047 1100 
L 3047 0 
L 2419 0 
L 2419 1100 
L 313 1100 
L 313 1709 
L 2253 4666 
z
" transform="scale(0.015625)"/>
       </defs>
       <use xlink:href="#DejaVuSans-2212"/>
       <use xlink:href="#DejaVuSans-34" x="83.789062"/>
       <use xlink:href="#DejaVuSans-30" x="147.412109"/>
       <use xlink:href="#DejaVuSans-30" x="211.035156"/>
       <use xlink:href="#DejaVuSans-30" x="274.658203"/>
      </g>
     </g>
    </g>
    <g id="ytick_2">
     <g id="line2d_9">
      <path d="M 77.13 237.101368 
L 447.84 237.101368 
" clip-path="url(#p4f21a92923)" style="fill: none; stroke: #ffffff; stroke-linecap: round"/>
     </g>
     <g id="text_10">
      <!-- −3000 -->
      <g style="fill: #262626" transform="translate(30.417344 241.280509)scale(0.11 -0.11)">
       <use xlink:href="#DejaVuSans-2212"/>
       <use xlink:href="#DejaVuSans-33" x="83.789062"/>
       <use xlink:href="#DejaVuSans-30" x="147.412109"/>
       <use xlink:href="#DejaVuSans-30" x="211.035156"/>
       <use xlink:href="#DejaVuSans-30" x="274.658203"/>
      </g>
     </g>
    </g>
    <g id="ytick_3">
     <g id="line2d_10">
      <path d="M 77.13 180.933734 
L 447.84 180.933734 
" clip-path="url(#p4f21a92923)" style="fill: none; stroke: #ffffff; stroke-linecap: round"/>
     </g>
     <g id="text_11">
      <!-- −2000 -->
      <g style="fill: #262626" transform="translate(30.417344 185.112874)scale(0.11 -0.11)">
       <use xlink:href="#DejaVuSans-2212"/>
       <use xlink:href="#DejaVuSans-32" x="83.789062"/>
       <use xlink:href="#DejaVuSans-30" x="147.412109"/>
       <use xlink:href="#DejaVuSans-30" x="211.035156"/>
       <use xlink:href="#DejaVuSans-30" x="274.658203"/>
      </g>
     </g>
    </g>
    <g id="ytick_4">
     <g id="line2d_11">
      <path d="M 77.13 124.766099 
L 447.84 124.766099 
" clip-path="url(#p4f21a92923)" style="fill: none; stroke: #ffffff; stroke-linecap: round"/>
     </g>
     <g id="text_12">
      <!-- −1000 -->
      <g style="fill: #262626" transform="translate(30.417344 128.94524)scale(0.11 -0.11)">
       <use xlink:href="#DejaVuSans-2212"/>
       <use xlink:href="#DejaVuSans-31" x="83.789062"/>
       <use xlink:href="#DejaVuSans-30" x="147.412109"/>
       <use xlink:href="#DejaVuSans-30" x="211.035156"/>
       <use xlink:href="#DejaVuSans-30" x="274.658203"/>
      </g>
     </g>
    </g>
    <g id="ytick_5">
     <g id="line2d_12">
      <path d="M 77.13 68.598465 
L 447.84 68.598465 
" clip-path="url(#p4f21a92923)" style="fill: none; stroke: #ffffff; stroke-linecap: round"/>
     </g>
     <g id="text_13">
      <!-- 0 -->
      <g style="fill: #262626" transform="translate(60.63125 72.777606)scale(0.11 -0.11)">
       <use xlink:href="#DejaVuSans-30"/>
      </g>
     </g>
    </g>
    <g id="text_14">
     <!-- Belohnung -->
     <g style="fill: #262626" transform="translate(23.505781 191.336563)rotate(-90)scale(0.14 -0.14)">
      <defs>
       <path id="DejaVuSans-42" d="M 1259 2228 
L 1259 519 
L 2272 519 
Q 2781 519 3026 730 
Q 3272 941 3272 1375 
Q 3272 1813 3026 2020 
Q 2781 2228 2272 2228 
L 1259 2228 
z
M 1259 4147 
L 1259 2741 
L 2194 2741 
Q 2656 2741 2882 2914 
Q 3109 3088 3109 3444 
Q 3109 3797 2882 3972 
Q 2656 4147 2194 4147 
L 1259 4147 
z
M 628 4666 
L 2241 4666 
Q 2963 4666 3353 4366 
Q 3744 4066 3744 3513 
Q 3744 3084 3544 2831 
Q 3344 2578 2956 2516 
Q 3422 2416 3680 2098 
Q 3938 1781 3938 1306 
Q 3938 681 3513 340 
Q 3088 0 2303 0 
L 628 0 
L 628 4666 
z
" transform="scale(0.015625)"/>
       <path id="DejaVuSans-75" d="M 544 1381 
L 544 3500 
L 1119 3500 
L 1119 1403 
Q 1119 906 1312 657 
Q 1506 409 1894 409 
Q 2359 409 2629 706 
Q 2900 1003 2900 1516 
L 2900 3500 
L 3475 3500 
L 3475 0 
L 2900 0 
L 2900 538 
Q 2691 219 2414 64 
Q 2138 -91 1772 -91 
Q 1169 -91 856 284 
Q 544 659 544 1381 
z
M 1991 3584 
L 1991 3584 
z
" transform="scale(0.015625)"/>
       <path id="DejaVuSans-67" d="M 2906 1791 
Q 2906 2416 2648 2759 
Q 2391 3103 1925 3103 
Q 1463 3103 1205 2759 
Q 947 2416 947 1791 
Q 947 1169 1205 825 
Q 1463 481 1925 481 
Q 2391 481 2648 825 
Q 2906 1169 2906 1791 
z
M 3481 434 
Q 3481 -459 3084 -895 
Q 2688 -1331 1869 -1331 
Q 1566 -1331 1297 -1286 
Q 1028 -1241 775 -1147 
L 775 -588 
Q 1028 -725 1275 -790 
Q 1522 -856 1778 -856 
Q 2344 -856 2625 -561 
Q 2906 -266 2906 331 
L 2906 616 
Q 2728 306 2450 153 
Q 2172 0 1784 0 
Q 1141 0 747 490 
Q 353 981 353 1791 
Q 353 2603 747 3093 
Q 1141 3584 1784 3584 
Q 2172 3584 2450 3431 
Q 2728 3278 2906 2969 
L 2906 3500 
L 3481 3500 
L 3481 434 
z
" transform="scale(0.015625)"/>
      </defs>
      <use xlink:href="#DejaVuSans-42"/>
      <use xlink:href="#DejaVuSans-65" x="68.603516"/>
      <use xlink:href="#DejaVuSans-6c" x="130.126953"/>
      <use xlink:href="#DejaVuSans-6f" x="157.910156"/>
      <use xlink:href="#DejaVuSans-68" x="219.091797"/>
      <use xlink:href="#DejaVuSans-6e" x="282.470703"/>
      <use xlink:href="#DejaVuSans-75" x="345.849609"/>
      <use xlink:href="#DejaVuSans-6e" x="409.228516"/>
      <use xlink:href="#DejaVuSans-67" x="472.607422"/>
     </g>
    </g>
   </g>
   <g id="PolyCollection_1">
    <defs>
     <path id="m7f8f0bc6c1" d="M 93.980455 -130.127678 
L 93.980455 -182.592815 
L 96.812464 -155.089679 
L 99.644473 -145.712639 
L 102.476482 -190.388737 
L 105.308491 -201.859138 
L 108.1405 -275.686623 
L 110.97251 -259.050778 
L 113.804519 -297.962684 
L 116.636528 -293.072615 
L 119.468537 -298.906675 
L 122.300546 -291.940479 
L 125.132555 -295.985796 
L 127.964565 -300.730463 
L 130.796574 -296.368554 
L 133.628583 -313.993266 
L 136.460592 -298.221772 
L 139.292601 -297.966246 
L 142.12461 -296.132711 
L 144.95662 -293.995145 
L 147.788629 -306.458398 
L 150.620638 -289.34889 
L 153.452647 -313.231895 
L 156.284656 -302.527601 
L 159.116665 -299.702887 
L 161.948675 -294.365739 
L 164.780684 -307.123107 
L 167.612693 -301.482126 
L 170.444702 -290.966023 
L 173.276711 -298.164141 
L 176.10872 -305.084671 
L 178.94073 -295.411617 
L 181.772739 -292.420184 
L 184.604748 -296.87499 
L 187.436757 -302.242942 
L 190.268766 -299.673178 
L 193.100775 -290.450399 
L 195.932785 -293.220278 
L 198.764794 -298.76301 
L 201.596803 -294.135429 
L 204.428812 -296.106355 
L 207.260821 -293.830987 
L 210.09283 -297.205837 
L 212.92484 -294.926043 
L 215.756849 -293.452167 
L 218.588858 -292.701996 
L 221.420867 -296.244634 
L 224.252876 -293.511973 
L 227.084885 -319.835455 
L 229.916895 -295.815353 
L 232.748904 -292.675581 
L 235.580913 -293.616698 
L 238.412922 -296.275824 
L 241.244931 -299.282581 
L 244.07694 -307.249933 
L 246.90895 -296.37968 
L 249.740959 -291.501198 
L 252.572968 -296.376807 
L 255.404977 -292.031758 
L 258.236986 -299.722154 
L 261.068995 -291.93138 
L 263.901005 -300.29898 
L 266.733014 -291.509933 
L 269.565023 -295.03515 
L 272.397032 -294.406427 
L 275.229041 -290.904722 
L 278.06105 -291.962861 
L 280.89306 -291.577875 
L 283.725069 -292.467265 
L 286.557078 -291.799779 
L 289.389087 -291.662942 
L 292.221096 -290.485935 
L 295.053105 -294.582698 
L 297.885115 -295.412366 
L 300.717124 -299.7742 
L 303.549133 -296.199411 
L 306.381142 -300.550339 
L 309.213151 -293.318372 
L 312.04516 -295.562157 
L 314.87717 -294.747043 
L 317.709179 -294.152416 
L 320.541188 -292.419281 
L 323.373197 -293.684453 
L 326.205206 -296.516907 
L 329.037215 -292.564077 
L 331.869225 -294.808618 
L 334.701234 -295.453534 
L 337.533243 -294.101791 
L 340.365252 -292.066996 
L 343.197261 -293.998819 
L 346.02927 -294.617419 
L 348.86128 -291.738166 
L 351.693289 -296.64988 
L 354.525298 -289.966208 
L 357.357307 -294.169434 
L 360.189316 -302.506169 
L 363.021325 -293.767498 
L 365.853335 -293.248387 
L 368.685344 -293.094522 
L 371.517353 -290.734803 
L 374.349362 -298.130939 
L 377.181371 -297.731487 
L 380.01338 -296.992249 
L 382.84539 -294.786152 
L 385.677399 -289.67911 
L 388.509408 -296.007315 
L 391.341417 -291.492864 
L 394.173426 -293.091071 
L 397.005435 -291.751665 
L 399.837445 -293.576475 
L 402.669454 -291.142306 
L 405.501463 -294.644475 
L 408.333472 -295.490924 
L 411.165481 -290.898709 
L 413.99749 -291.878597 
L 416.8295 -291.793247 
L 419.661509 -294.288553 
L 422.493518 -291.818078 
L 425.325527 -293.396633 
L 428.157536 -294.096913 
L 430.989545 -294.187968 
L 430.989545 -287.900742 
L 430.989545 -287.900742 
L 428.157536 -289.595272 
L 425.325527 -291.035696 
L 422.493518 -290.347767 
L 419.661509 -288.34445 
L 416.8295 -287.378534 
L 413.99749 -288.99547 
L 411.165481 -290.11311 
L 408.333472 -288.569986 
L 405.501463 -287.904754 
L 402.669454 -287.145073 
L 399.837445 -290.474758 
L 397.005435 -288.024687 
L 394.173426 -288.044752 
L 391.341417 -289.742787 
L 388.509408 -290.240555 
L 385.677399 -286.943678 
L 382.84539 -287.760177 
L 380.01338 -289.366089 
L 377.181371 -288.218366 
L 374.349362 -289.099726 
L 371.517353 -287.872216 
L 368.685344 -289.108743 
L 365.853335 -288.737561 
L 363.021325 -288.681788 
L 360.189316 -288.009619 
L 357.357307 -287.619626 
L 354.525298 -287.415286 
L 351.693289 -288.507442 
L 348.86128 -287.91694 
L 346.02927 -287.26433 
L 343.197261 -289.861371 
L 340.365252 -288.805378 
L 337.533243 -288.140462 
L 334.701234 -288.339395 
L 331.869225 -288.797826 
L 329.037215 -287.293936 
L 326.205206 -287.744711 
L 323.373197 -288.421985 
L 320.541188 -287.69259 
L 317.709179 -289.676005 
L 314.87717 -287.859343 
L 312.04516 -288.51055 
L 309.213151 -287.528475 
L 306.381142 -289.705669 
L 303.549133 -289.079807 
L 300.717124 -288.99386 
L 297.885115 -287.76959 
L 295.053105 -290.488774 
L 292.221096 -288.967643 
L 289.389087 -287.770476 
L 286.557078 -289.347264 
L 283.725069 -288.410941 
L 280.89306 -287.545868 
L 278.06105 -288.948533 
L 275.229041 -287.134148 
L 272.397032 -287.13002 
L 269.565023 -286.156169 
L 266.733014 -288.894331 
L 263.901005 -289.861737 
L 261.068995 -288.372402 
L 258.236986 -288.086702 
L 255.404977 -287.212296 
L 252.572968 -288.343274 
L 249.740959 -288.814834 
L 246.90895 -288.028873 
L 244.07694 -287.874576 
L 241.244931 -290.221724 
L 238.412922 -287.53566 
L 235.580913 -288.767452 
L 232.748904 -288.308228 
L 229.916895 -288.072754 
L 227.084885 -289.395541 
L 224.252876 -287.737806 
L 221.420867 -288.799303 
L 218.588858 -288.976502 
L 215.756849 -289.867124 
L 212.92484 -288.466468 
L 210.09283 -288.514597 
L 207.260821 -288.126863 
L 204.428812 -287.600786 
L 201.596803 -290.520513 
L 198.764794 -290.167382 
L 195.932785 -289.648918 
L 193.100775 -286.934284 
L 190.268766 -285.431659 
L 187.436757 -285.777071 
L 184.604748 -286.629684 
L 181.772739 -290.86536 
L 178.94073 -287.606107 
L 176.10872 -276.269274 
L 173.276711 -289.172694 
L 170.444702 -244.751625 
L 167.612693 -289.112824 
L 164.780684 -291.334879 
L 161.948675 -271.131127 
L 159.116665 -282.457723 
L 156.284656 -287.067703 
L 153.452647 -291.686857 
L 150.620638 -288.277985 
L 147.788629 -275.230289 
L 144.95662 -289.185355 
L 142.12461 -254.56741 
L 139.292601 -284.749639 
L 136.460592 -288.108275 
L 133.628583 -281.646338 
L 130.796574 -212.853363 
L 127.964565 -277.787635 
L 125.132555 -266.829258 
L 122.300546 -263.247253 
L 119.468537 -266.284543 
L 116.636528 -237.601487 
L 113.804519 -269.41789 
L 110.97251 -230.660882 
L 108.1405 -201.585981 
L 105.308491 -71.769314 
L 102.476482 -115.56644 
L 99.644473 -93.855196 
L 96.812464 -116.124204 
L 93.980455 -130.127678 
z
" style="stroke: #ffffff; stroke-opacity: 0.5"/>
    </defs>
    <g clip-path="url(#p4f21a92923)">
     <use xlink:href="#m7f8f0bc6c1" x="0" y="345.6" style="fill: #4c72b0; fill-opacity: 0.5; stroke: #ffffff; stroke-opacity: 0.5"/>
    </g>
   </g>
   <g id="PolyCollection_2">
    <defs>
     <path id="m751780f43f" d="M 93.980455 -110.80426 
L 93.980455 -197.881491 
L 96.812464 -194.286616 
L 99.644473 -173.857453 
L 102.476482 -210.031626 
L 105.308491 -162.861486 
L 108.1405 -190.275898 
L 110.97251 -224.011713 
L 113.804519 -217.952214 
L 116.636528 -237.562963 
L 119.468537 -259.956457 
L 122.300546 -249.332567 
L 125.132555 -226.423536 
L 127.964565 -287.557684 
L 130.796574 -282.308605 
L 133.628583 -287.841214 
L 136.460592 -286.31796 
L 139.292601 -289.571081 
L 142.12461 -284.584175 
L 144.95662 -263.438848 
L 147.788629 -280.444742 
L 150.620638 -293.825739 
L 153.452647 -288.345267 
L 156.284656 -296.12557 
L 159.116665 -285.078909 
L 161.948675 -292.74451 
L 164.780684 -296.082893 
L 167.612693 -289.217669 
L 170.444702 -293.94781 
L 173.276711 -292.472182 
L 176.10872 -291.165568 
L 178.94073 -299.952974 
L 181.772739 -289.811828 
L 184.604748 -295.897836 
L 187.436757 -296.814594 
L 190.268766 -292.781694 
L 193.100775 -289.377692 
L 195.932785 -295.252884 
L 198.764794 -292.680055 
L 201.596803 -291.355738 
L 204.428812 -292.138711 
L 207.260821 -291.052 
L 210.09283 -298.500518 
L 212.92484 -293.679715 
L 215.756849 -288.586497 
L 218.588858 -290.559102 
L 221.420867 -291.200932 
L 224.252876 -292.218723 
L 227.084885 -291.399476 
L 229.916895 -293.692792 
L 232.748904 -294.715363 
L 235.580913 -294.147518 
L 238.412922 -291.794801 
L 241.244931 -290.920179 
L 244.07694 -290.714986 
L 246.90895 -291.10918 
L 249.740959 -294.228822 
L 252.572968 -293.030671 
L 255.404977 -289.912217 
L 258.236986 -290.424228 
L 261.068995 -293.427535 
L 263.901005 -294.537971 
L 266.733014 -290.821964 
L 269.565023 -291.648271 
L 272.397032 -290.732038 
L 275.229041 -293.039494 
L 278.06105 -293.471863 
L 280.89306 -295.578356 
L 283.725069 -291.862548 
L 286.557078 -298.296569 
L 289.389087 -294.72511 
L 292.221096 -291.641053 
L 295.053105 -293.162252 
L 297.885115 -292.096461 
L 300.717124 -294.215818 
L 303.549133 -292.758148 
L 306.381142 -290.195871 
L 309.213151 -289.129167 
L 312.04516 -291.086037 
L 314.87717 -292.056519 
L 317.709179 -288.984433 
L 320.541188 -289.305228 
L 323.373197 -290.542031 
L 326.205206 -292.093713 
L 329.037215 -289.618335 
L 331.869225 -296.755249 
L 334.701234 -289.907426 
L 337.533243 -291.779588 
L 340.365252 -295.356029 
L 343.197261 -288.593554 
L 346.02927 -291.194283 
L 348.86128 -288.659471 
L 351.693289 -289.651869 
L 354.525298 -292.900838 
L 357.357307 -292.952932 
L 360.189316 -289.80603 
L 363.021325 -289.799298 
L 365.853335 -289.748709 
L 368.685344 -290.276006 
L 371.517353 -287.569869 
L 374.349362 -293.954102 
L 377.181371 -293.737892 
L 380.01338 -290.823723 
L 382.84539 -293.511572 
L 385.677399 -290.711275 
L 388.509408 -289.645899 
L 391.341417 -291.488485 
L 394.173426 -290.149315 
L 397.005435 -291.221223 
L 399.837445 -289.87935 
L 402.669454 -291.829988 
L 405.501463 -289.622757 
L 408.333472 -289.248972 
L 411.165481 -289.003591 
L 413.99749 -290.079001 
L 416.8295 -290.629104 
L 419.661509 -289.879234 
L 422.493518 -291.431324 
L 425.325527 -290.099704 
L 428.157536 -289.655594 
L 430.989545 -291.965348 
L 430.989545 -287.505318 
L 430.989545 -287.505318 
L 428.157536 -287.527872 
L 425.325527 -287.61321 
L 422.493518 -287.236974 
L 419.661509 -286.364907 
L 416.8295 -287.681141 
L 413.99749 -287.402329 
L 411.165481 -287.099132 
L 408.333472 -285.761232 
L 405.501463 -287.332386 
L 402.669454 -286.614632 
L 399.837445 -285.553709 
L 397.005435 -288.278447 
L 394.173426 -287.494821 
L 391.341417 -286.332999 
L 388.509408 -286.471266 
L 385.677399 -285.214913 
L 382.84539 -287.804183 
L 380.01338 -286.520623 
L 377.181371 -286.433418 
L 374.349362 -288.447644 
L 371.517353 -285.473814 
L 368.685344 -285.750307 
L 365.853335 -287.583198 
L 363.021325 -287.01327 
L 360.189316 -287.437119 
L 357.357307 -287.009282 
L 354.525298 -289.493655 
L 351.693289 -285.754958 
L 348.86128 -286.53253 
L 346.02927 -286.185324 
L 343.197261 -287.647099 
L 340.365252 -286.735387 
L 337.533243 -287.40956 
L 334.701234 -287.207819 
L 331.869225 -287.570816 
L 329.037215 -286.476099 
L 326.205206 -286.349477 
L 323.373197 -286.53487 
L 320.541188 -287.128413 
L 317.709179 -286.964328 
L 314.87717 -287.357744 
L 312.04516 -287.880417 
L 309.213151 -287.150147 
L 306.381142 -287.473221 
L 303.549133 -286.94646 
L 300.717124 -286.473316 
L 297.885115 -288.402355 
L 295.053105 -286.923623 
L 292.221096 -285.953823 
L 289.389087 -287.939507 
L 286.557078 -287.484339 
L 283.725069 -287.912284 
L 280.89306 -287.307124 
L 278.06105 -288.172777 
L 275.229041 -289.782558 
L 272.397032 -288.67463 
L 269.565023 -286.311376 
L 266.733014 -286.816369 
L 263.901005 -289.873502 
L 261.068995 -287.672235 
L 258.236986 -287.725423 
L 255.404977 -286.89067 
L 252.572968 -286.859316 
L 249.740959 -287.444728 
L 246.90895 -287.972283 
L 244.07694 -287.695751 
L 241.244931 -286.970806 
L 238.412922 -287.215611 
L 235.580913 -289.00768 
L 232.748904 -287.417971 
L 229.916895 -287.775818 
L 227.084885 -284.859783 
L 224.252876 -286.963196 
L 221.420867 -287.312328 
L 218.588858 -286.19056 
L 215.756849 -286.339039 
L 212.92484 -288.58417 
L 210.09283 -287.677865 
L 207.260821 -285.211774 
L 204.428812 -283.724447 
L 201.596803 -277.929887 
L 198.764794 -286.194953 
L 195.932785 -285.209692 
L 193.100775 -284.76529 
L 190.268766 -285.303857 
L 187.436757 -281.99475 
L 184.604748 -287.016422 
L 181.772739 -274.310842 
L 178.94073 -284.92005 
L 176.10872 -232.552177 
L 173.276711 -278.775371 
L 170.444702 -283.871558 
L 167.612693 -197.145807 
L 164.780684 -269.306437 
L 161.948675 -265.670931 
L 159.116665 -236.834971 
L 156.284656 -248.183858 
L 153.452647 -248.363478 
L 150.620638 -193.610054 
L 147.788629 -263.180248 
L 144.95662 -236.068293 
L 142.12461 -213.920398 
L 139.292601 -229.415856 
L 136.460592 -221.897512 
L 133.628583 -246.363146 
L 130.796574 -215.228247 
L 127.964565 -202.476812 
L 125.132555 -165.331719 
L 122.300546 -215.063561 
L 119.468537 -191.614777 
L 116.636528 -191.370418 
L 113.804519 -149.180467 
L 110.97251 -150.975685 
L 108.1405 -172.750947 
L 105.308491 -132.987261 
L 102.476482 -66.402808 
L 99.644473 -113.761296 
L 96.812464 -91.467405 
L 93.980455 -110.80426 
z
" style="stroke: #ffffff; stroke-opacity: 0.5"/>
    </defs>
    <g clip-path="url(#p4f21a92923)">
     <use xlink:href="#m751780f43f" x="0" y="345.6" style="fill: #dd8452; fill-opacity: 0.5; stroke: #ffffff; stroke-opacity: 0.5"/>
    </g>
   </g>
   <g id="PolyCollection_3">
    <defs>
     <path id="m11fc363e26" d="M 93.980455 -108.113403 
L 93.980455 -181.423064 
L 96.812464 -209.356548 
L 99.644473 -149.978433 
L 102.476482 -187.031694 
L 105.308491 -212.57588 
L 108.1405 -209.539148 
L 110.97251 -200.968602 
L 113.804519 -211.00189 
L 116.636528 -255.277891 
L 119.468537 -262.310168 
L 122.300546 -244.991525 
L 125.132555 -251.935255 
L 127.964565 -234.310011 
L 130.796574 -250.38845 
L 133.628583 -258.340716 
L 136.460592 -259.581152 
L 139.292601 -278.431183 
L 142.12461 -234.574405 
L 144.95662 -265.034905 
L 147.788629 -284.573811 
L 150.620638 -283.46104 
L 153.452647 -284.432273 
L 156.284656 -272.742344 
L 159.116665 -284.598739 
L 161.948675 -285.203536 
L 164.780684 -264.524832 
L 167.612693 -259.442497 
L 170.444702 -269.057097 
L 173.276711 -280.278437 
L 176.10872 -289.401689 
L 178.94073 -281.121849 
L 181.772739 -286.107551 
L 184.604748 -288.343979 
L 187.436757 -288.01956 
L 190.268766 -290.472054 
L 193.100775 -292.045806 
L 195.932785 -294.548067 
L 198.764794 -287.825258 
L 201.596803 -289.73497 
L 204.428812 -286.9901 
L 207.260821 -295.784124 
L 210.09283 -294.85983 
L 212.92484 -289.764727 
L 215.756849 -289.256532 
L 218.588858 -289.379708 
L 221.420867 -291.701218 
L 224.252876 -297.574888 
L 227.084885 -286.855231 
L 229.916895 -290.977704 
L 232.748904 -289.51709 
L 235.580913 -287.017908 
L 238.412922 -286.459809 
L 241.244931 -289.899516 
L 244.07694 -288.510329 
L 246.90895 -290.582851 
L 249.740959 -291.771303 
L 252.572968 -286.53604 
L 255.404977 -288.787943 
L 258.236986 -290.406777 
L 261.068995 -285.606794 
L 263.901005 -289.118744 
L 266.733014 -287.708579 
L 269.565023 -288.908216 
L 272.397032 -289.850414 
L 275.229041 -288.75833 
L 278.06105 -288.646819 
L 280.89306 -289.86121 
L 283.725069 -288.552738 
L 286.557078 -289.159703 
L 289.389087 -289.628208 
L 292.221096 -291.603828 
L 295.053105 -290.554538 
L 297.885115 -288.083665 
L 300.717124 -285.750299 
L 303.549133 -290.408267 
L 306.381142 -289.343739 
L 309.213151 -295.553626 
L 312.04516 -291.255651 
L 314.87717 -289.068167 
L 317.709179 -289.620146 
L 320.541188 -289.093798 
L 323.373197 -288.129623 
L 326.205206 -289.306401 
L 329.037215 -286.195498 
L 331.869225 -290.165677 
L 334.701234 -293.920602 
L 337.533243 -292.008607 
L 340.365252 -289.809061 
L 343.197261 -288.883601 
L 346.02927 -289.361804 
L 348.86128 -288.07961 
L 351.693289 -289.235793 
L 354.525298 -287.84128 
L 357.357307 -288.99336 
L 360.189316 -290.363417 
L 363.021325 -286.367196 
L 365.853335 -284.609224 
L 368.685344 -286.227625 
L 371.517353 -287.928144 
L 374.349362 -291.950226 
L 377.181371 -289.136736 
L 380.01338 -287.071174 
L 382.84539 -290.0794 
L 385.677399 -288.007232 
L 388.509408 -286.821518 
L 391.341417 -288.262862 
L 394.173426 -288.260127 
L 397.005435 -287.589133 
L 399.837445 -288.616072 
L 402.669454 -288.616863 
L 405.501463 -286.867018 
L 408.333472 -286.145205 
L 411.165481 -287.088379 
L 413.99749 -286.620075 
L 416.8295 -288.570964 
L 419.661509 -289.535373 
L 422.493518 -287.710083 
L 425.325527 -287.974905 
L 428.157536 -291.20904 
L 430.989545 -289.18777 
L 430.989545 -282.064147 
L 430.989545 -282.064147 
L 428.157536 -284.161752 
L 425.325527 -283.958651 
L 422.493518 -281.365262 
L 419.661509 -282.927497 
L 416.8295 -285.359127 
L 413.99749 -284.73029 
L 411.165481 -282.53762 
L 408.333472 -283.222288 
L 405.501463 -283.555979 
L 402.669454 -285.294539 
L 399.837445 -284.218727 
L 397.005435 -284.75458 
L 394.173426 -283.222431 
L 391.341417 -283.537066 
L 388.509408 -281.259714 
L 385.677399 -284.681072 
L 382.84539 -283.61198 
L 380.01338 -282.391723 
L 377.181371 -285.111598 
L 374.349362 -284.04128 
L 371.517353 -284.01185 
L 368.685344 -283.31513 
L 365.853335 -283.036281 
L 363.021325 -284.304962 
L 360.189316 -286.865821 
L 357.357307 -284.157187 
L 354.525298 -284.492505 
L 351.693289 -284.080357 
L 348.86128 -283.788142 
L 346.02927 -284.878195 
L 343.197261 -283.405021 
L 340.365252 -284.334772 
L 337.533243 -283.230527 
L 334.701234 -283.915569 
L 331.869225 -287.035387 
L 329.037215 -284.906565 
L 326.205206 -285.354742 
L 323.373197 -284.019698 
L 320.541188 -285.60849 
L 317.709179 -282.723416 
L 314.87717 -286.470314 
L 312.04516 -285.040962 
L 309.213151 -284.453003 
L 306.381142 -284.386074 
L 303.549133 -283.988687 
L 300.717124 -284.238844 
L 297.885115 -283.436489 
L 295.053105 -284.268316 
L 292.221096 -284.589061 
L 289.389087 -283.102832 
L 286.557078 -284.052118 
L 283.725069 -284.226496 
L 280.89306 -284.926918 
L 278.06105 -283.856462 
L 275.229041 -286.103654 
L 272.397032 -284.446929 
L 269.565023 -285.368951 
L 266.733014 -286.899688 
L 263.901005 -283.443813 
L 261.068995 -280.643133 
L 258.236986 -286.354668 
L 255.404977 -283.868574 
L 252.572968 -283.50203 
L 249.740959 -283.808778 
L 246.90895 -282.12733 
L 244.07694 -283.173574 
L 241.244931 -283.794032 
L 238.412922 -282.738392 
L 235.580913 -259.011057 
L 232.748904 -263.755232 
L 229.916895 -273.820908 
L 227.084885 -264.355606 
L 224.252876 -284.332517 
L 221.420867 -285.139113 
L 218.588858 -258.586494 
L 215.756849 -283.246812 
L 212.92484 -278.285123 
L 210.09283 -270.811371 
L 207.260821 -271.143618 
L 204.428812 -275.305378 
L 201.596803 -274.294963 
L 198.764794 -259.68609 
L 195.932785 -240.535876 
L 193.100775 -284.030688 
L 190.268766 -276.200151 
L 187.436757 -226.235989 
L 184.604748 -273.930305 
L 181.772739 -242.500034 
L 178.94073 -238.576334 
L 176.10872 -236.257356 
L 173.276711 -225.479926 
L 170.444702 -222.788861 
L 167.612693 -237.850727 
L 164.780684 -203.404516 
L 161.948675 -226.452207 
L 159.116665 -182.663899 
L 156.284656 -166.354971 
L 153.452647 -212.920919 
L 150.620638 -235.596306 
L 147.788629 -194.187379 
L 144.95662 -211.897305 
L 142.12461 -173.989121 
L 139.292601 -182.566333 
L 136.460592 -164.75651 
L 133.628583 -199.763621 
L 130.796574 -167.826387 
L 127.964565 -166.042021 
L 125.132555 -169.6964 
L 122.300546 -147.31811 
L 119.468537 -161.029875 
L 116.636528 -151.465728 
L 113.804519 -165.200766 
L 110.97251 -129.161025 
L 108.1405 -152.431468 
L 105.308491 -109.301405 
L 102.476482 -122.393887 
L 99.644473 -63.744545 
L 96.812464 -103.334077 
L 93.980455 -108.113403 
z
" style="stroke: #ffffff; stroke-opacity: 0.5"/>
    </defs>
    <g clip-path="url(#p4f21a92923)">
     <use xlink:href="#m11fc363e26" x="0" y="345.6" style="fill: #55a868; fill-opacity: 0.5; stroke: #ffffff; stroke-opacity: 0.5"/>
    </g>
   </g>
   <g id="PolyCollection_4">
    <defs>
     <path id="m5545980f56" d="M 93.980455 -63.985544 
L 93.980455 -139.478438 
L 96.812464 -166.347965 
L 99.644473 -155.675089 
L 102.476482 -183.612629 
L 105.308491 -196.842687 
L 108.1405 -185.054113 
L 110.97251 -191.852003 
L 113.804519 -201.729945 
L 116.636528 -184.81352 
L 119.468537 -221.204126 
L 122.300546 -199.292533 
L 125.132555 -214.455475 
L 127.964565 -227.752439 
L 130.796574 -218.028606 
L 133.628583 -207.398172 
L 136.460592 -207.33862 
L 139.292601 -223.893252 
L 142.12461 -260.268941 
L 144.95662 -226.219814 
L 147.788629 -221.159949 
L 150.620638 -248.035568 
L 153.452647 -269.812844 
L 156.284656 -228.233029 
L 159.116665 -242.246592 
L 161.948675 -246.766822 
L 164.780684 -249.485192 
L 167.612693 -233.213038 
L 170.444702 -239.997865 
L 173.276711 -277.010899 
L 176.10872 -255.003275 
L 178.94073 -258.718004 
L 181.772739 -253.24487 
L 184.604748 -275.880643 
L 187.436757 -280.016328 
L 190.268766 -250.100671 
L 193.100775 -279.246903 
L 195.932785 -281.214037 
L 198.764794 -288.21591 
L 201.596803 -267.023782 
L 204.428812 -273.381307 
L 207.260821 -262.884501 
L 210.09283 -270.073273 
L 212.92484 -266.56096 
L 215.756849 -288.597578 
L 218.588858 -277.158873 
L 221.420867 -276.090641 
L 224.252876 -282.024986 
L 227.084885 -280.024982 
L 229.916895 -281.08874 
L 232.748904 -267.762339 
L 235.580913 -275.476664 
L 238.412922 -278.440221 
L 241.244931 -276.562313 
L 244.07694 -279.469903 
L 246.90895 -279.808687 
L 249.740959 -280.980808 
L 252.572968 -282.708014 
L 255.404977 -299.146556 
L 258.236986 -289.619444 
L 261.068995 -287.692208 
L 263.901005 -281.484503 
L 266.733014 -280.232628 
L 269.565023 -281.383334 
L 272.397032 -284.873081 
L 275.229041 -280.045677 
L 278.06105 -280.484894 
L 280.89306 -282.762794 
L 283.725069 -282.521286 
L 286.557078 -280.369013 
L 289.389087 -283.076617 
L 292.221096 -282.274791 
L 295.053105 -283.666261 
L 297.885115 -284.237603 
L 300.717124 -281.921339 
L 303.549133 -292.560364 
L 306.381142 -287.725694 
L 309.213151 -283.531412 
L 312.04516 -285.067643 
L 314.87717 -287.802119 
L 317.709179 -282.120631 
L 320.541188 -288.460178 
L 323.373197 -283.777823 
L 326.205206 -285.410073 
L 329.037215 -282.318414 
L 331.869225 -290.263521 
L 334.701234 -291.883101 
L 337.533243 -283.250116 
L 340.365252 -282.827119 
L 343.197261 -285.452062 
L 346.02927 -287.83271 
L 348.86128 -283.022475 
L 351.693289 -284.007651 
L 354.525298 -284.14716 
L 357.357307 -283.826251 
L 360.189316 -285.869489 
L 363.021325 -285.385785 
L 365.853335 -284.015595 
L 368.685344 -284.756466 
L 371.517353 -284.141437 
L 374.349362 -287.372371 
L 377.181371 -285.748082 
L 380.01338 -285.039221 
L 382.84539 -281.820372 
L 385.677399 -283.949821 
L 388.509408 -283.795158 
L 391.341417 -282.127772 
L 394.173426 -283.87139 
L 397.005435 -281.745951 
L 399.837445 -282.530258 
L 402.669454 -285.759237 
L 405.501463 -284.719913 
L 408.333472 -282.148941 
L 411.165481 -283.902219 
L 413.99749 -284.693429 
L 416.8295 -284.055528 
L 419.661509 -285.947922 
L 422.493518 -284.906954 
L 425.325527 -282.850212 
L 428.157536 -284.712679 
L 430.989545 -283.360194 
L 430.989545 -278.107507 
L 430.989545 -278.107507 
L 428.157536 -276.904587 
L 425.325527 -280.924733 
L 422.493518 -276.520445 
L 419.661509 -277.686893 
L 416.8295 -280.001228 
L 413.99749 -274.398756 
L 411.165481 -274.295068 
L 408.333472 -274.259178 
L 405.501463 -278.277641 
L 402.669454 -275.609048 
L 399.837445 -276.5443 
L 397.005435 -275.945591 
L 394.173426 -278.012524 
L 391.341417 -272.2346 
L 388.509408 -276.175631 
L 385.677399 -281.005163 
L 382.84539 -277.331137 
L 380.01338 -277.228142 
L 377.181371 -277.651923 
L 374.349362 -277.461359 
L 371.517353 -278.781806 
L 368.685344 -277.951716 
L 365.853335 -279.366346 
L 363.021325 -278.251358 
L 360.189316 -267.887472 
L 357.357307 -277.755899 
L 354.525298 -281.512965 
L 351.693289 -275.76965 
L 348.86128 -277.987361 
L 346.02927 -278.49647 
L 343.197261 -277.910176 
L 340.365252 -277.328424 
L 337.533243 -252.148344 
L 334.701234 -277.216884 
L 331.869225 -275.663041 
L 329.037215 -262.141294 
L 326.205206 -252.357075 
L 323.373197 -281.223068 
L 320.541188 -270.042807 
L 317.709179 -268.383184 
L 314.87717 -271.763655 
L 312.04516 -278.161696 
L 309.213151 -267.840205 
L 306.381142 -264.041903 
L 303.549133 -274.98261 
L 300.717124 -257.897495 
L 297.885115 -257.428436 
L 295.053105 -261.610199 
L 292.221096 -261.932839 
L 289.389087 -245.723922 
L 286.557078 -251.535569 
L 283.725069 -274.221065 
L 280.89306 -255.576113 
L 278.06105 -270.012631 
L 275.229041 -234.131912 
L 272.397032 -261.159852 
L 269.565023 -265.064586 
L 266.733014 -255.055796 
L 263.901005 -243.940194 
L 261.068995 -247.184576 
L 258.236986 -210.99764 
L 255.404977 -265.256306 
L 252.572968 -243.508773 
L 249.740959 -208.751671 
L 246.90895 -244.706848 
L 244.07694 -215.57208 
L 241.244931 -193.773482 
L 238.412922 -201.322309 
L 235.580913 -206.076562 
L 232.748904 -186.823802 
L 229.916895 -178.661912 
L 227.084885 -179.400959 
L 224.252876 -185.357716 
L 221.420867 -172.884009 
L 218.588858 -201.716608 
L 215.756849 -219.003076 
L 212.92484 -195.350781 
L 210.09283 -215.757607 
L 207.260821 -169.990863 
L 204.428812 -229.923261 
L 201.596803 -186.796876 
L 198.764794 -219.460029 
L 195.932785 -178.908487 
L 193.100775 -210.477014 
L 190.268766 -161.508895 
L 187.436757 -196.585784 
L 184.604748 -206.216634 
L 181.772739 -189.538651 
L 178.94073 -185.168326 
L 176.10872 -187.072678 
L 173.276711 -193.615348 
L 170.444702 -191.569179 
L 167.612693 -179.462563 
L 164.780684 -190.239324 
L 161.948675 -188.770018 
L 159.116665 -168.137582 
L 156.284656 -192.009453 
L 153.452647 -189.060796 
L 150.620638 -196.354134 
L 147.788629 -169.617258 
L 144.95662 -167.226253 
L 142.12461 -163.42189 
L 139.292601 -154.825877 
L 136.460592 -154.009549 
L 133.628583 -163.3607 
L 130.796574 -138.119722 
L 127.964565 -191.464376 
L 125.132555 -152.077902 
L 122.300546 -141.4499 
L 119.468537 -139.912513 
L 116.636528 -159.182058 
L 113.804519 -161.894605 
L 110.97251 -129.179127 
L 108.1405 -148.197322 
L 105.308491 -114.619978 
L 102.476482 -116.870012 
L 99.644473 -136.848784 
L 96.812464 -134.198268 
L 93.980455 -63.985544 
z
" style="stroke: #ffffff; stroke-opacity: 0.5"/>
    </defs>
    <g clip-path="url(#p4f21a92923)">
     <use xlink:href="#m5545980f56" x="0" y="345.6" style="fill: #c44e52; fill-opacity: 0.5; stroke: #ffffff; stroke-opacity: 0.5"/>
    </g>
   </g>
   <g id="line2d_13">
    <path d="M 93.980455 194.021005 
L 96.812464 206.794297 
L 99.644473 217.196263 
L 102.476482 198.562362 
L 105.308491 202.895501 
L 108.1405 101.557497 
L 110.97251 102.29401 
L 113.804519 63.285484 
L 116.636528 68.984542 
L 119.468537 57.961523 
L 122.300546 61.586348 
L 125.132555 67.119274 
L 127.964565 53.897242 
L 130.796574 73.994807 
L 133.628583 50.554198 
L 136.460592 53.073721 
L 139.292601 53.578374 
L 142.12461 60.700809 
L 144.95662 53.780829 
L 147.788629 54.351887 
L 150.620638 56.566476 
L 153.452647 47.676695 
L 156.284656 50.448832 
L 159.116665 54.894274 
L 161.948675 58.549816 
L 164.780684 47.842077 
L 167.612693 51.877791 
L 170.444702 65.532662 
L 173.276711 51.98418 
L 176.10872 54.393665 
L 178.94073 53.324661 
L 181.772739 54.211938 
L 184.604748 53.758387 
L 187.436757 53.791204 
L 190.268766 55.607329 
L 193.100775 56.678405 
L 195.932785 54.247892 
L 198.764794 51.357445 
L 201.596803 53.191644 
L 204.428812 54.59895 
L 207.260821 53.788863 
L 210.09283 53.740364 
L 212.92484 53.837141 
L 215.756849 53.478014 
L 218.588858 54.472286 
L 221.420867 53.941475 
L 224.252876 55.277461 
L 227.084885 44.483194 
L 229.916895 54.695612 
L 232.748904 54.944897 
L 235.580913 54.991233 
L 238.412922 54.449569 
L 241.244931 52.144485 
L 244.07694 51.303043 
L 246.90895 54.514168 
L 249.740959 55.470924 
L 252.572968 53.707452 
L 255.404977 55.851152 
L 258.236986 53.913501 
L 261.068995 55.674828 
L 263.901005 51.497978 
L 266.733014 55.29552 
L 269.565023 54.086963 
L 272.397032 56.083736 
L 275.229041 56.556914 
L 278.06105 55.461326 
L 280.89306 55.627432 
L 283.725069 54.960216 
L 286.557078 54.844986 
L 289.389087 55.503807 
L 292.221096 55.93231 
L 295.053105 53.690488 
L 297.885115 55.064239 
L 300.717124 52.368271 
L 303.549133 54.03219 
L 306.381142 51.813424 
L 309.213151 55.822711 
L 312.04516 54.163724 
L 314.87717 54.307668 
L 317.709179 53.86646 
L 320.541188 54.617132 
L 323.373197 55.076801 
L 326.205206 53.292104 
L 329.037215 55.704587 
L 331.869225 54.075642 
L 334.701234 54.597908 
L 337.533243 54.971591 
L 340.365252 55.252428 
L 343.197261 53.676782 
L 346.02927 55.255343 
L 348.86128 56.008837 
L 351.693289 53.969393 
L 354.525298 56.660652 
L 357.357307 55.299297 
L 360.189316 52.735129 
L 363.021325 54.836622 
L 365.853335 55.111987 
L 368.685344 55.047367 
L 371.517353 56.032561 
L 374.349362 53.466316 
L 377.181371 54.306764 
L 380.01338 52.809356 
L 382.84539 54.645765 
L 385.677399 56.978866 
L 388.509408 52.615876 
L 391.341417 54.963576 
L 394.173426 54.927552 
L 397.005435 56.096089 
L 399.837445 54.060695 
L 402.669454 55.88574 
L 405.501463 55.076496 
L 408.333472 54.303435 
L 411.165481 55.040723 
L 413.99749 55.562646 
L 416.8295 56.273311 
L 419.661509 55.343324 
L 422.493518 54.666064 
L 425.325527 53.73066 
L 428.157536 54.336161 
L 430.989545 54.846943 
" clip-path="url(#p4f21a92923)" style="fill: none; stroke: #4c72b0; stroke-width: 3; stroke-linecap: round"/>
   </g>
   <g id="line2d_14">
    <path d="M 93.980455 200.988029 
L 96.812464 188.167303 
L 99.644473 211.755672 
L 102.476482 196.433187 
L 105.308491 194.13406 
L 108.1405 165.523829 
L 110.97251 155.477593 
L 113.804519 156.200335 
L 116.636528 133.370523 
L 119.468537 132.562623 
L 122.300546 120.616131 
L 125.132555 139.557146 
L 127.964565 84.175894 
L 130.796574 110.435554 
L 133.628583 79.850114 
L 136.460592 92.286167 
L 139.292601 98.938418 
L 142.12461 90.701723 
L 144.95662 96.984508 
L 147.788629 76.157947 
L 150.620638 81.998125 
L 153.452647 74.59864 
L 156.284656 80.757684 
L 159.116665 74.255139 
L 161.948675 66.804382 
L 164.780684 65.844009 
L 167.612693 82.711899 
L 170.444702 56.340928 
L 173.276711 56.913218 
L 176.10872 70.714504 
L 178.94073 56.202403 
L 181.772739 64.064278 
L 184.604748 55.148265 
L 187.436757 55.530045 
L 190.268766 57.010898 
L 193.100775 58.226404 
L 195.932785 56.539359 
L 198.764794 55.340247 
L 201.596803 58.444963 
L 204.428812 58.103325 
L 207.260821 57.681534 
L 210.09283 55.247825 
L 212.92484 54.422571 
L 215.756849 58.093874 
L 218.588858 57.357394 
L 221.420867 56.076462 
L 224.252876 56.720618 
L 227.084885 57.373237 
L 229.916895 54.389482 
L 232.748904 54.498982 
L 235.580913 54.236288 
L 238.412922 55.888187 
L 241.244931 56.467126 
L 244.07694 55.868023 
L 246.90895 55.980665 
L 249.740959 55.954671 
L 252.572968 55.428599 
L 255.404977 57.664447 
L 258.236986 56.474695 
L 261.068995 56.132864 
L 263.901005 54.112917 
L 266.733014 56.773586 
L 269.565023 56.942506 
L 272.397032 55.530239 
L 275.229041 54.426394 
L 278.06105 55.2561 
L 280.89306 55.574502 
L 283.725069 56.773423 
L 286.557078 54.002949 
L 289.389087 55.218273 
L 292.221096 56.438401 
L 295.053105 55.503411 
L 297.885115 55.722156 
L 300.717124 54.509699 
L 303.549133 55.03746 
L 306.381142 56.734064 
L 309.213151 57.553261 
L 312.04516 56.042335 
L 314.87717 57.090966 
L 317.709179 57.703644 
L 320.541188 57.310762 
L 323.373197 56.880302 
L 326.205206 57.255279 
L 329.037215 57.404319 
L 331.869225 54.726339 
L 334.701234 56.931206 
L 337.533243 56.173604 
L 340.365252 54.663946 
L 343.197261 57.386924 
L 346.02927 56.789436 
L 348.86128 57.705744 
L 351.693289 57.926515 
L 354.525298 54.515052 
L 357.357307 56.496535 
L 360.189316 57.249698 
L 363.021325 56.71366 
L 365.853335 56.901477 
L 368.685344 57.619482 
L 371.517353 58.809358 
L 374.349362 55.676178 
L 377.181371 55.254666 
L 380.01338 57.539811 
L 382.84539 56.169241 
L 385.677399 57.471345 
L 388.509408 57.365643 
L 391.341417 56.700145 
L 394.173426 56.961588 
L 397.005435 56.06746 
L 399.837445 57.484936 
L 402.669454 56.132881 
L 405.501463 57.645025 
L 408.333472 57.932343 
L 411.165481 57.84536 
L 413.99749 57.229676 
L 416.8295 56.191762 
L 419.661509 57.671464 
L 422.493518 56.486779 
L 425.325527 56.595195 
L 428.157536 57.213487 
L 430.989545 55.954249 
" clip-path="url(#p4f21a92923)" style="fill: none; stroke: #dd8452; stroke-width: 3; stroke-linecap: round"/>
   </g>
   <g id="line2d_15">
    <path d="M 93.980455 200.64879 
L 96.812464 194.057443 
L 99.644473 226.474326 
L 102.476482 194.485587 
L 105.308491 182.441758 
L 108.1405 178.093603 
L 110.97251 186.74732 
L 113.804519 158.670464 
L 116.636528 149.3682 
L 119.468537 146.568885 
L 122.300546 159.637742 
L 125.132555 139.833437 
L 127.964565 133.746082 
L 130.796574 124.543049 
L 133.628583 117.22337 
L 136.460592 122.557632 
L 139.292601 112.871609 
L 142.12461 141.599456 
L 144.95662 105.023771 
L 147.788629 97.5665 
L 150.620638 91.931751 
L 153.452647 90.215479 
L 156.284656 121.153323 
L 159.116665 105.70564 
L 161.948675 99.000468 
L 164.780684 105.560592 
L 167.612693 92.141715 
L 170.444702 96.494848 
L 173.276711 87.949406 
L 176.10872 81.039484 
L 178.94073 90.124119 
L 181.772739 78.99604 
L 184.604748 64.516765 
L 187.436757 91.231474 
L 190.268766 61.446835 
L 193.100775 59.054695 
L 195.932785 68.487536 
L 198.764794 67.731204 
L 201.596803 63.974953 
L 204.428812 64.045546 
L 207.260821 62.898926 
L 210.09283 61.039183 
L 212.92484 60.596143 
L 215.756849 60.462771 
L 218.588858 67.221996 
L 221.420867 58.177682 
L 224.252876 55.589529 
L 227.084885 64.006125 
L 229.916895 60.696815 
L 232.748904 64.115371 
L 235.580913 65.388022 
L 238.412922 60.855135 
L 241.244931 57.641126 
L 244.07694 60.233722 
L 246.90895 58.856782 
L 249.740959 57.77262 
L 252.572968 60.8936 
L 255.404977 59.121725 
L 258.236986 57.756282 
L 261.068995 61.468275 
L 263.901005 60.088741 
L 266.733014 58.143949 
L 269.565023 58.355847 
L 272.397032 59.277062 
L 275.229041 57.934773 
L 278.06105 59.804819 
L 280.89306 57.6103 
L 283.725069 59.326077 
L 286.557078 59.440709 
L 289.389087 59.999152 
L 292.221096 59.165685 
L 295.053105 58.907341 
L 297.885115 59.582747 
L 300.717124 60.479789 
L 303.549133 58.752046 
L 306.381142 58.63292 
L 309.213151 57.715061 
L 312.04516 57.165643 
L 314.87717 57.985459 
L 317.709179 58.55352 
L 320.541188 57.932704 
L 323.373197 59.684496 
L 326.205206 59.156016 
L 329.037215 60.138545 
L 331.869225 56.610831 
L 334.701234 58.797868 
L 337.533243 58.792098 
L 340.365252 58.729956 
L 343.197261 59.515512 
L 346.02927 59.266103 
L 348.86128 60.04252 
L 351.693289 59.43457 
L 354.525298 59.736149 
L 357.357307 59.330169 
L 360.189316 57.493214 
L 363.021325 60.428406 
L 365.853335 61.813918 
L 368.685344 60.573294 
L 371.517353 60.358873 
L 374.349362 58.398149 
L 377.181371 59.214766 
L 380.01338 60.028396 
L 382.84539 58.715351 
L 385.677399 59.211974 
L 388.509408 61.525358 
L 391.341417 60.018765 
L 394.173426 59.290108 
L 397.005435 59.453892 
L 399.837445 59.753625 
L 402.669454 58.847437 
L 405.501463 60.720219 
L 408.333472 61.383011 
L 411.165481 60.822086 
L 413.99749 60.016673 
L 416.8295 59.1429 
L 419.661509 60.756331 
L 422.493518 60.410992 
L 425.325527 59.778813 
L 428.157536 58.319024 
L 430.989545 60.0262 
" clip-path="url(#p4f21a92923)" style="fill: none; stroke: #55a868; stroke-width: 3; stroke-linecap: round"/>
   </g>
   <g id="line2d_16">
    <path d="M 93.980455 234.215568 
L 96.812464 191.239749 
L 99.644473 197.231839 
L 102.476482 207.693601 
L 105.308491 193.970177 
L 108.1405 178.697326 
L 110.97251 180.474354 
L 113.804519 169.774548 
L 116.636528 173.3401 
L 119.468537 162.927565 
L 122.300546 166.835912 
L 125.132555 154.933866 
L 127.964565 145.319276 
L 130.796574 153.377898 
L 133.628583 155.522947 
L 136.460592 157.736803 
L 139.292601 154.722263 
L 142.12461 148.296898 
L 144.95662 148.337215 
L 147.788629 148.719857 
L 150.620638 123.88467 
L 153.452647 128.613034 
L 156.284656 136.657195 
L 159.116665 144.643531 
L 161.948675 135.849735 
L 164.780684 127.89838 
L 167.612693 137.96223 
L 170.444702 126.506798 
L 173.276711 119.167554 
L 176.10872 119.012398 
L 178.94073 117.851527 
L 181.772739 124.392294 
L 184.604748 121.207981 
L 187.436757 111.316406 
L 190.268766 127.35529 
L 193.100775 93.19163 
L 195.932785 95.504233 
L 198.764794 94.953626 
L 201.596803 110.140504 
L 204.428812 95.464406 
L 207.260821 112.211077 
L 210.09283 103.593162 
L 212.92484 106.303331 
L 215.756849 80.086663 
L 218.588858 95.033653 
L 221.420867 109.35149 
L 224.252876 96.773224 
L 227.084885 102.365591 
L 229.916895 94.227949 
L 232.748904 98.310187 
L 235.580913 103.884524 
L 238.412922 91.136743 
L 241.244931 94.803802 
L 244.07694 83.249133 
L 246.90895 74.616903 
L 249.740959 88.396494 
L 252.572968 80.028668 
L 255.404977 66.564864 
L 258.236986 79.887125 
L 261.068995 79.265194 
L 263.901005 76.661706 
L 266.733014 71.286958 
L 269.565023 69.667246 
L 272.397032 71.273945 
L 275.229041 88.132253 
L 278.06105 68.279977 
L 280.89306 69.897788 
L 283.725069 66.355786 
L 286.557078 81.923497 
L 289.389087 71.2886 
L 292.221096 70.286987 
L 295.053105 68.194719 
L 297.885115 67.505747 
L 300.717124 70.395837 
L 303.549133 62.655046 
L 306.381142 68.128078 
L 309.213151 68.364072 
L 312.04516 64.840805 
L 314.87717 63.520483 
L 317.709179 67.817008 
L 320.541188 66.016361 
L 323.373197 63.109366 
L 326.205206 70.319687 
L 329.037215 69.934693 
L 331.869225 63.8722 
L 334.701234 63.62921 
L 337.533243 74.379066 
L 340.365252 65.58724 
L 343.197261 63.492668 
L 346.02927 62.791921 
L 348.86128 65.145528 
L 351.693289 64.238418 
L 354.525298 62.632528 
L 357.357307 64.512156 
L 360.189316 66.352448 
L 363.021325 64.477453 
L 365.853335 63.896636 
L 368.685344 64.688911 
L 371.517353 63.796666 
L 374.349362 64.017047 
L 377.181371 64.676367 
L 380.01338 64.059187 
L 382.84539 66.126232 
L 385.677399 63.417079 
L 388.509408 64.969518 
L 391.341417 67.248614 
L 394.173426 64.913096 
L 397.005435 66.224774 
L 399.837445 65.967303 
L 402.669454 65.498565 
L 405.501463 64.701604 
L 408.333472 66.820883 
L 411.165481 65.476176 
L 413.99749 66.114953 
L 416.8295 63.762652 
L 419.661509 64.771107 
L 422.493518 65.428228 
L 425.325527 63.902558 
L 428.157536 63.62468 
L 430.989545 65.131605 
" clip-path="url(#p4f21a92923)" style="fill: none; stroke: #c44e52; stroke-width: 3; stroke-linecap: round"/>
   </g>
   <g id="patch_3">
    <path d="M 77.13 294.66 
L 77.13 12.96 
" style="fill: none; stroke: #ffffff; stroke-width: 1.25; stroke-linejoin: miter; stroke-linecap: square"/>
   </g>
   <g id="patch_4">
    <path d="M 447.84 294.66 
L 447.84 12.96 
" style="fill: none; stroke: #ffffff; stroke-width: 1.25; stroke-linejoin: miter; stroke-linecap: square"/>
   </g>
   <g id="patch_5">
    <path d="M 77.13 294.66 
L 447.84 294.66 
" style="fill: none; stroke: #ffffff; stroke-width: 1.25; stroke-linejoin: miter; stroke-linecap: square"/>
   </g>
   <g id="patch_6">
    <path d="M 77.13 12.96 
L 447.84 12.96 
" style="fill: none; stroke: #ffffff; stroke-width: 1.25; stroke-linejoin: miter; stroke-linecap: square"/>
   </g>
   <g id="legend_1">
    <g id="patch_7">
     <path d="M 317.959219 289.16 
L 440.14 289.16 
Q 442.34 289.16 442.34 286.96 
L 442.34 223.47625 
Q 442.34 221.27625 440.14 221.27625 
L 317.959219 221.27625 
Q 315.759219 221.27625 315.759219 223.47625 
L 315.759219 286.96 
Q 315.759219 289.16 317.959219 289.16 
z
" style="fill: #eaeaf2; opacity: 0.8; stroke: #cccccc; stroke-linejoin: miter"/>
    </g>
    <g id="line2d_17">
     <path d="M 320.159219 230.184531 
L 331.159219 230.184531 
L 342.159219 230.184531 
" style="fill: none; stroke: #4c72b0; stroke-width: 3; stroke-linecap: round"/>
    </g>
    <g id="text_15">
     <!-- DCAC-DELAY-1 -->
     <g style="fill: #262626" transform="translate(350.959219 234.034531)scale(0.11 -0.11)">
      <defs>
       <path id="DejaVuSans-44" d="M 1259 4147 
L 1259 519 
L 2022 519 
Q 2988 519 3436 956 
Q 3884 1394 3884 2338 
Q 3884 3275 3436 3711 
Q 2988 4147 2022 4147 
L 1259 4147 
z
M 628 4666 
L 1925 4666 
Q 3281 4666 3915 4102 
Q 4550 3538 4550 2338 
Q 4550 1131 3912 565 
Q 3275 0 1925 0 
L 628 0 
L 628 4666 
z
" transform="scale(0.015625)"/>
       <path id="DejaVuSans-43" d="M 4122 4306 
L 4122 3641 
Q 3803 3938 3442 4084 
Q 3081 4231 2675 4231 
Q 1875 4231 1450 3742 
Q 1025 3253 1025 2328 
Q 1025 1406 1450 917 
Q 1875 428 2675 428 
Q 3081 428 3442 575 
Q 3803 722 4122 1019 
L 4122 359 
Q 3791 134 3420 21 
Q 3050 -91 2638 -91 
Q 1578 -91 968 557 
Q 359 1206 359 2328 
Q 359 3453 968 4101 
Q 1578 4750 2638 4750 
Q 3056 4750 3426 4639 
Q 3797 4528 4122 4306 
z
" transform="scale(0.015625)"/>
       <path id="DejaVuSans-41" d="M 2188 4044 
L 1331 1722 
L 3047 1722 
L 2188 4044 
z
M 1831 4666 
L 2547 4666 
L 4325 0 
L 3669 0 
L 3244 1197 
L 1141 1197 
L 716 0 
L 50 0 
L 1831 4666 
z
" transform="scale(0.015625)"/>
       <path id="DejaVuSans-2d" d="M 313 2009 
L 1997 2009 
L 1997 1497 
L 313 1497 
L 313 2009 
z
" transform="scale(0.015625)"/>
       <path id="DejaVuSans-45" d="M 628 4666 
L 3578 4666 
L 3578 4134 
L 1259 4134 
L 1259 2753 
L 3481 2753 
L 3481 2222 
L 1259 2222 
L 1259 531 
L 3634 531 
L 3634 0 
L 628 0 
L 628 4666 
z
" transform="scale(0.015625)"/>
       <path id="DejaVuSans-4c" d="M 628 4666 
L 1259 4666 
L 1259 531 
L 3531 531 
L 3531 0 
L 628 0 
L 628 4666 
z
" transform="scale(0.015625)"/>
       <path id="DejaVuSans-59" d="M -13 4666 
L 666 4666 
L 1959 2747 
L 3244 4666 
L 3922 4666 
L 2272 2222 
L 2272 0 
L 1638 0 
L 1638 2222 
L -13 4666 
z
" transform="scale(0.015625)"/>
      </defs>
      <use xlink:href="#DejaVuSans-44"/>
      <use xlink:href="#DejaVuSans-43" x="77.001953"/>
      <use xlink:href="#DejaVuSans-41" x="146.826172"/>
      <use xlink:href="#DejaVuSans-43" x="213.484375"/>
      <use xlink:href="#DejaVuSans-2d" x="283.308594"/>
      <use xlink:href="#DejaVuSans-44" x="319.392578"/>
      <use xlink:href="#DejaVuSans-45" x="396.394531"/>
      <use xlink:href="#DejaVuSans-4c" x="459.578125"/>
      <use xlink:href="#DejaVuSans-41" x="517.541016"/>
      <use xlink:href="#DejaVuSans-59" x="578.199219"/>
      <use xlink:href="#DejaVuSans-2d" x="627.408203"/>
      <use xlink:href="#DejaVuSans-31" x="663.492188"/>
     </g>
    </g>
    <g id="line2d_18">
     <path d="M 320.159219 246.330469 
L 331.159219 246.330469 
L 342.159219 246.330469 
" style="fill: none; stroke: #dd8452; stroke-width: 3; stroke-linecap: round"/>
    </g>
    <g id="text_16">
     <!-- DCAC-DELAY-5 -->
     <g style="fill: #262626" transform="translate(350.959219 250.180469)scale(0.11 -0.11)">
      <use xlink:href="#DejaVuSans-44"/>
      <use xlink:href="#DejaVuSans-43" x="77.001953"/>
      <use xlink:href="#DejaVuSans-41" x="146.826172"/>
      <use xlink:href="#DejaVuSans-43" x="213.484375"/>
      <use xlink:href="#DejaVuSans-2d" x="283.308594"/>
      <use xlink:href="#DejaVuSans-44" x="319.392578"/>
      <use xlink:href="#DejaVuSans-45" x="396.394531"/>
      <use xlink:href="#DejaVuSans-4c" x="459.578125"/>
      <use xlink:href="#DejaVuSans-41" x="517.541016"/>
      <use xlink:href="#DejaVuSans-59" x="578.199219"/>
      <use xlink:href="#DejaVuSans-2d" x="627.408203"/>
      <use xlink:href="#DejaVuSans-35" x="663.492188"/>
     </g>
    </g>
    <g id="line2d_19">
     <path d="M 320.159219 262.476406 
L 331.159219 262.476406 
L 342.159219 262.476406 
" style="fill: none; stroke: #55a868; stroke-width: 3; stroke-linecap: round"/>
    </g>
    <g id="text_17">
     <!-- DCAC-DELAY-10 -->
     <g style="fill: #262626" transform="translate(350.959219 266.326406)scale(0.11 -0.11)">
      <use xlink:href="#DejaVuSans-44"/>
      <use xlink:href="#DejaVuSans-43" x="77.001953"/>
      <use xlink:href="#DejaVuSans-41" x="146.826172"/>
      <use xlink:href="#DejaVuSans-43" x="213.484375"/>
      <use xlink:href="#DejaVuSans-2d" x="283.308594"/>
      <use xlink:href="#DejaVuSans-44" x="319.392578"/>
      <use xlink:href="#DejaVuSans-45" x="396.394531"/>
      <use xlink:href="#DejaVuSans-4c" x="459.578125"/>
      <use xlink:href="#DejaVuSans-41" x="517.541016"/>
      <use xlink:href="#DejaVuSans-59" x="578.199219"/>
      <use xlink:href="#DejaVuSans-2d" x="627.408203"/>
      <use xlink:href="#DejaVuSans-31" x="663.492188"/>
      <use xlink:href="#DejaVuSans-30" x="727.115234"/>
     </g>
    </g>
    <g id="line2d_20">
     <path d="M 320.159219 278.622344 
L 331.159219 278.622344 
L 342.159219 278.622344 
" style="fill: none; stroke: #c44e52; stroke-width: 3; stroke-linecap: round"/>
    </g>
    <g id="text_18">
     <!-- DCAC-DELAY-20 -->
     <g style="fill: #262626" transform="translate(350.959219 282.472344)scale(0.11 -0.11)">
      <use xlink:href="#DejaVuSans-44"/>
      <use xlink:href="#DejaVuSans-43" x="77.001953"/>
      <use xlink:href="#DejaVuSans-41" x="146.826172"/>
      <use xlink:href="#DejaVuSans-43" x="213.484375"/>
      <use xlink:href="#DejaVuSans-2d" x="283.308594"/>
      <use xlink:href="#DejaVuSans-44" x="319.392578"/>
      <use xlink:href="#DejaVuSans-45" x="396.394531"/>
      <use xlink:href="#DejaVuSans-4c" x="459.578125"/>
      <use xlink:href="#DejaVuSans-41" x="517.541016"/>
      <use xlink:href="#DejaVuSans-59" x="578.199219"/>
      <use xlink:href="#DejaVuSans-2d" x="627.408203"/>
      <use xlink:href="#DejaVuSans-32" x="663.492188"/>
      <use xlink:href="#DejaVuSans-30" x="727.115234"/>
     </g>
    </g>
   </g>
  </g>
 </g>
 <defs>
  <clipPath id="p4f21a92923">
   <rect x="77.13" y="12.96" width="370.71" height="281.7"/>
  </clipPath>
 </defs>
</svg>
