<?xml version="1.0" encoding="utf-8" standalone="no"?>
<!DOCTYPE svg PUBLIC "-//W3C//DTD SVG 1.1//EN"
  "http://www.w3.org/Graphics/SVG/1.1/DTD/svg11.dtd">
<svg xmlns:xlink="http://www.w3.org/1999/xlink" width="460.8pt" height="345.6pt" viewBox="0 0 460.8 345.6" xmlns="http://www.w3.org/2000/svg" version="1.1">
 <metadata>
  <rdf:RDF xmlns:dc="http://purl.org/dc/elements/1.1/" xmlns:cc="http://creativecommons.org/ns#" xmlns:rdf="http://www.w3.org/1999/02/22-rdf-syntax-ns#">
   <cc:Work>
    <dc:type rdf:resource="http://purl.org/dc/dcmitype/StillImage"/>
    <dc:date>2022-09-10T15:50:26.524191</dc:date>
    <dc:format>image/svg+xml</dc:format>
    <dc:creator>
     <cc:Agent>
      <dc:title>Matplotlib v3.5.3, https://matplotlib.org/</dc:title>
     </cc:Agent>
    </dc:creator>
   </cc:Work>
  </rdf:RDF>
 </metadata>
 <defs>
  <style type="text/css">*{stroke-linejoin: round; stroke-linecap: butt}</style>
 </defs>
 <g id="figure_1">
  <g id="patch_1">
   <path d="M 0 345.6 
L 460.8 345.6 
L 460.8 0 
L 0 0 
z
" style="fill: #ffffff"/>
  </g>
  <g id="axes_1">
   <g id="patch_2">
    <path d="M 77.13 294.66 
L 447.84 294.66 
L 447.84 29.76 
L 77.13 29.76 
z
" style="fill: #eaeaf2"/>
   </g>
   <g id="matplotlib.axis_1">
    <g id="xtick_1">
     <g id="line2d_1">
      <path d="M 91.148445 294.66 
L 91.148445 29.76 
" clip-path="url(#p08ade45d0b)" style="fill: none; stroke: #ffffff; stroke-linecap: round"/>
     </g>
     <g id="text_1">
      <!-- 0.00 -->
      <g style="fill: #262626" transform="translate(78.902352 312.518281)scale(0.11 -0.11)">
       <defs>
        <path id="DejaVuSans-30" d="M 2034 4250 
Q 1547 4250 1301 3770 
Q 1056 3291 1056 2328 
Q 1056 1369 1301 889 
Q 1547 409 2034 409 
Q 2525 409 2770 889 
Q 3016 1369 3016 2328 
Q 3016 3291 2770 3770 
Q 2525 4250 2034 4250 
z
M 2034 4750 
Q 2819 4750 3233 4129 
Q 3647 3509 3647 2328 
Q 3647 1150 3233 529 
Q 2819 -91 2034 -91 
Q 1250 -91 836 529 
Q 422 1150 422 2328 
Q 422 3509 836 4129 
Q 1250 4750 2034 4750 
z
" transform="scale(0.015625)"/>
        <path id="DejaVuSans-2e" d="M 684 794 
L 1344 794 
L 1344 0 
L 684 0 
L 684 794 
z
" transform="scale(0.015625)"/>
       </defs>
       <use xlink:href="#DejaVuSans-30"/>
       <use xlink:href="#DejaVuSans-2e" x="63.623047"/>
       <use xlink:href="#DejaVuSans-30" x="95.410156"/>
       <use xlink:href="#DejaVuSans-30" x="159.033203"/>
      </g>
     </g>
    </g>
    <g id="xtick_2">
     <g id="line2d_2">
      <path d="M 147.788629 294.66 
L 147.788629 29.76 
" clip-path="url(#p08ade45d0b)" style="fill: none; stroke: #ffffff; stroke-linecap: round"/>
     </g>
     <g id="text_2">
      <!-- 0.05 -->
      <g style="fill: #262626" transform="translate(135.542535 312.518281)scale(0.11 -0.11)">
       <defs>
        <path id="DejaVuSans-35" d="M 691 4666 
L 3169 4666 
L 3169 4134 
L 1269 4134 
L 1269 2991 
Q 1406 3038 1543 3061 
Q 1681 3084 1819 3084 
Q 2600 3084 3056 2656 
Q 3513 2228 3513 1497 
Q 3513 744 3044 326 
Q 2575 -91 1722 -91 
Q 1428 -91 1123 -41 
Q 819 9 494 109 
L 494 744 
Q 775 591 1075 516 
Q 1375 441 1709 441 
Q 2250 441 2565 725 
Q 2881 1009 2881 1497 
Q 2881 1984 2565 2268 
Q 2250 2553 1709 2553 
Q 1456 2553 1204 2497 
Q 953 2441 691 2322 
L 691 4666 
z
" transform="scale(0.015625)"/>
       </defs>
       <use xlink:href="#DejaVuSans-30"/>
       <use xlink:href="#DejaVuSans-2e" x="63.623047"/>
       <use xlink:href="#DejaVuSans-30" x="95.410156"/>
       <use xlink:href="#DejaVuSans-35" x="159.033203"/>
      </g>
     </g>
    </g>
    <g id="xtick_3">
     <g id="line2d_3">
      <path d="M 204.428812 294.66 
L 204.428812 29.76 
" clip-path="url(#p08ade45d0b)" style="fill: none; stroke: #ffffff; stroke-linecap: round"/>
     </g>
     <g id="text_3">
      <!-- 0.10 -->
      <g style="fill: #262626" transform="translate(192.182718 312.518281)scale(0.11 -0.11)">
       <defs>
        <path id="DejaVuSans-31" d="M 794 531 
L 1825 531 
L 1825 4091 
L 703 3866 
L 703 4441 
L 1819 4666 
L 2450 4666 
L 2450 531 
L 3481 531 
L 3481 0 
L 794 0 
L 794 531 
z
" transform="scale(0.015625)"/>
       </defs>
       <use xlink:href="#DejaVuSans-30"/>
       <use xlink:href="#DejaVuSans-2e" x="63.623047"/>
       <use xlink:href="#DejaVuSans-31" x="95.410156"/>
       <use xlink:href="#DejaVuSans-30" x="159.033203"/>
      </g>
     </g>
    </g>
    <g id="xtick_4">
     <g id="line2d_4">
      <path d="M 261.068995 294.66 
L 261.068995 29.76 
" clip-path="url(#p08ade45d0b)" style="fill: none; stroke: #ffffff; stroke-linecap: round"/>
     </g>
     <g id="text_4">
      <!-- 0.15 -->
      <g style="fill: #262626" transform="translate(248.822902 312.518281)scale(0.11 -0.11)">
       <use xlink:href="#DejaVuSans-30"/>
       <use xlink:href="#DejaVuSans-2e" x="63.623047"/>
       <use xlink:href="#DejaVuSans-31" x="95.410156"/>
       <use xlink:href="#DejaVuSans-35" x="159.033203"/>
      </g>
     </g>
    </g>
    <g id="xtick_5">
     <g id="line2d_5">
      <path d="M 317.709179 294.66 
L 317.709179 29.76 
" clip-path="url(#p08ade45d0b)" style="fill: none; stroke: #ffffff; stroke-linecap: round"/>
     </g>
     <g id="text_5">
      <!-- 0.20 -->
      <g style="fill: #262626" transform="translate(305.463085 312.518281)scale(0.11 -0.11)">
       <defs>
        <path id="DejaVuSans-32" d="M 1228 531 
L 3431 531 
L 3431 0 
L 469 0 
L 469 531 
Q 828 903 1448 1529 
Q 2069 2156 2228 2338 
Q 2531 2678 2651 2914 
Q 2772 3150 2772 3378 
Q 2772 3750 2511 3984 
Q 2250 4219 1831 4219 
Q 1534 4219 1204 4116 
Q 875 4013 500 3803 
L 500 4441 
Q 881 4594 1212 4672 
Q 1544 4750 1819 4750 
Q 2544 4750 2975 4387 
Q 3406 4025 3406 3419 
Q 3406 3131 3298 2873 
Q 3191 2616 2906 2266 
Q 2828 2175 2409 1742 
Q 1991 1309 1228 531 
z
" transform="scale(0.015625)"/>
       </defs>
       <use xlink:href="#DejaVuSans-30"/>
       <use xlink:href="#DejaVuSans-2e" x="63.623047"/>
       <use xlink:href="#DejaVuSans-32" x="95.410156"/>
       <use xlink:href="#DejaVuSans-30" x="159.033203"/>
      </g>
     </g>
    </g>
    <g id="xtick_6">
     <g id="line2d_6">
      <path d="M 374.349362 294.66 
L 374.349362 29.76 
" clip-path="url(#p08ade45d0b)" style="fill: none; stroke: #ffffff; stroke-linecap: round"/>
     </g>
     <g id="text_6">
      <!-- 0.25 -->
      <g style="fill: #262626" transform="translate(362.103268 312.518281)scale(0.11 -0.11)">
       <use xlink:href="#DejaVuSans-30"/>
       <use xlink:href="#DejaVuSans-2e" x="63.623047"/>
       <use xlink:href="#DejaVuSans-32" x="95.410156"/>
       <use xlink:href="#DejaVuSans-35" x="159.033203"/>
      </g>
     </g>
    </g>
    <g id="xtick_7">
     <g id="line2d_7">
      <path d="M 430.989545 294.66 
L 430.989545 29.76 
" clip-path="url(#p08ade45d0b)" style="fill: none; stroke: #ffffff; stroke-linecap: round"/>
     </g>
     <g id="text_7">
      <!-- 0.30 -->
      <g style="fill: #262626" transform="translate(418.743452 312.518281)scale(0.11 -0.11)">
       <defs>
        <path id="DejaVuSans-33" d="M 2597 2516 
Q 3050 2419 3304 2112 
Q 3559 1806 3559 1356 
Q 3559 666 3084 287 
Q 2609 -91 1734 -91 
Q 1441 -91 1130 -33 
Q 819 25 488 141 
L 488 750 
Q 750 597 1062 519 
Q 1375 441 1716 441 
Q 2309 441 2620 675 
Q 2931 909 2931 1356 
Q 2931 1769 2642 2001 
Q 2353 2234 1838 2234 
L 1294 2234 
L 1294 2753 
L 1863 2753 
Q 2328 2753 2575 2939 
Q 2822 3125 2822 3475 
Q 2822 3834 2567 4026 
Q 2313 4219 1838 4219 
Q 1578 4219 1281 4162 
Q 984 4106 628 3988 
L 628 4550 
Q 988 4650 1302 4700 
Q 1616 4750 1894 4750 
Q 2613 4750 3031 4423 
Q 3450 4097 3450 3541 
Q 3450 3153 3228 2886 
Q 3006 2619 2597 2516 
z
" transform="scale(0.015625)"/>
       </defs>
       <use xlink:href="#DejaVuSans-30"/>
       <use xlink:href="#DejaVuSans-2e" x="63.623047"/>
       <use xlink:href="#DejaVuSans-33" x="95.410156"/>
       <use xlink:href="#DejaVuSans-30" x="159.033203"/>
      </g>
     </g>
    </g>
    <g id="text_8">
     <!-- Timesteps (in Million) -->
     <g style="fill: #262626" transform="translate(187.739219 329.44375)scale(0.14 -0.14)">
      <defs>
       <path id="DejaVuSans-54" d="M -19 4666 
L 3928 4666 
L 3928 4134 
L 2272 4134 
L 2272 0 
L 1638 0 
L 1638 4134 
L -19 4134 
L -19 4666 
z
" transform="scale(0.015625)"/>
       <path id="DejaVuSans-69" d="M 603 3500 
L 1178 3500 
L 1178 0 
L 603 0 
L 603 3500 
z
M 603 4863 
L 1178 4863 
L 1178 4134 
L 603 4134 
L 603 4863 
z
" transform="scale(0.015625)"/>
       <path id="DejaVuSans-6d" d="M 3328 2828 
Q 3544 3216 3844 3400 
Q 4144 3584 4550 3584 
Q 5097 3584 5394 3201 
Q 5691 2819 5691 2113 
L 5691 0 
L 5113 0 
L 5113 2094 
Q 5113 2597 4934 2840 
Q 4756 3084 4391 3084 
Q 3944 3084 3684 2787 
Q 3425 2491 3425 1978 
L 3425 0 
L 2847 0 
L 2847 2094 
Q 2847 2600 2669 2842 
Q 2491 3084 2119 3084 
Q 1678 3084 1418 2786 
Q 1159 2488 1159 1978 
L 1159 0 
L 581 0 
L 581 3500 
L 1159 3500 
L 1159 2956 
Q 1356 3278 1631 3431 
Q 1906 3584 2284 3584 
Q 2666 3584 2933 3390 
Q 3200 3197 3328 2828 
z
" transform="scale(0.015625)"/>
       <path id="DejaVuSans-65" d="M 3597 1894 
L 3597 1613 
L 953 1613 
Q 991 1019 1311 708 
Q 1631 397 2203 397 
Q 2534 397 2845 478 
Q 3156 559 3463 722 
L 3463 178 
Q 3153 47 2828 -22 
Q 2503 -91 2169 -91 
Q 1331 -91 842 396 
Q 353 884 353 1716 
Q 353 2575 817 3079 
Q 1281 3584 2069 3584 
Q 2775 3584 3186 3129 
Q 3597 2675 3597 1894 
z
M 3022 2063 
Q 3016 2534 2758 2815 
Q 2500 3097 2075 3097 
Q 1594 3097 1305 2825 
Q 1016 2553 972 2059 
L 3022 2063 
z
" transform="scale(0.015625)"/>
       <path id="DejaVuSans-73" d="M 2834 3397 
L 2834 2853 
Q 2591 2978 2328 3040 
Q 2066 3103 1784 3103 
Q 1356 3103 1142 2972 
Q 928 2841 928 2578 
Q 928 2378 1081 2264 
Q 1234 2150 1697 2047 
L 1894 2003 
Q 2506 1872 2764 1633 
Q 3022 1394 3022 966 
Q 3022 478 2636 193 
Q 2250 -91 1575 -91 
Q 1294 -91 989 -36 
Q 684 19 347 128 
L 347 722 
Q 666 556 975 473 
Q 1284 391 1588 391 
Q 1994 391 2212 530 
Q 2431 669 2431 922 
Q 2431 1156 2273 1281 
Q 2116 1406 1581 1522 
L 1381 1569 
Q 847 1681 609 1914 
Q 372 2147 372 2553 
Q 372 3047 722 3315 
Q 1072 3584 1716 3584 
Q 2034 3584 2315 3537 
Q 2597 3491 2834 3397 
z
" transform="scale(0.015625)"/>
       <path id="DejaVuSans-74" d="M 1172 4494 
L 1172 3500 
L 2356 3500 
L 2356 3053 
L 1172 3053 
L 1172 1153 
Q 1172 725 1289 603 
Q 1406 481 1766 481 
L 2356 481 
L 2356 0 
L 1766 0 
Q 1100 0 847 248 
Q 594 497 594 1153 
L 594 3053 
L 172 3053 
L 172 3500 
L 594 3500 
L 594 4494 
L 1172 4494 
z
" transform="scale(0.015625)"/>
       <path id="DejaVuSans-70" d="M 1159 525 
L 1159 -1331 
L 581 -1331 
L 581 3500 
L 1159 3500 
L 1159 2969 
Q 1341 3281 1617 3432 
Q 1894 3584 2278 3584 
Q 2916 3584 3314 3078 
Q 3713 2572 3713 1747 
Q 3713 922 3314 415 
Q 2916 -91 2278 -91 
Q 1894 -91 1617 61 
Q 1341 213 1159 525 
z
M 3116 1747 
Q 3116 2381 2855 2742 
Q 2594 3103 2138 3103 
Q 1681 3103 1420 2742 
Q 1159 2381 1159 1747 
Q 1159 1113 1420 752 
Q 1681 391 2138 391 
Q 2594 391 2855 752 
Q 3116 1113 3116 1747 
z
" transform="scale(0.015625)"/>
       <path id="DejaVuSans-20" transform="scale(0.015625)"/>
       <path id="DejaVuSans-28" d="M 1984 4856 
Q 1566 4138 1362 3434 
Q 1159 2731 1159 2009 
Q 1159 1288 1364 580 
Q 1569 -128 1984 -844 
L 1484 -844 
Q 1016 -109 783 600 
Q 550 1309 550 2009 
Q 550 2706 781 3412 
Q 1013 4119 1484 4856 
L 1984 4856 
z
" transform="scale(0.015625)"/>
       <path id="DejaVuSans-6e" d="M 3513 2113 
L 3513 0 
L 2938 0 
L 2938 2094 
Q 2938 2591 2744 2837 
Q 2550 3084 2163 3084 
Q 1697 3084 1428 2787 
Q 1159 2491 1159 1978 
L 1159 0 
L 581 0 
L 581 3500 
L 1159 3500 
L 1159 2956 
Q 1366 3272 1645 3428 
Q 1925 3584 2291 3584 
Q 2894 3584 3203 3211 
Q 3513 2838 3513 2113 
z
" transform="scale(0.015625)"/>
       <path id="DejaVuSans-4d" d="M 628 4666 
L 1569 4666 
L 2759 1491 
L 3956 4666 
L 4897 4666 
L 4897 0 
L 4281 0 
L 4281 4097 
L 3078 897 
L 2444 897 
L 1241 4097 
L 1241 0 
L 628 0 
L 628 4666 
z
" transform="scale(0.015625)"/>
       <path id="DejaVuSans-6c" d="M 603 4863 
L 1178 4863 
L 1178 0 
L 603 0 
L 603 4863 
z
" transform="scale(0.015625)"/>
       <path id="DejaVuSans-6f" d="M 1959 3097 
Q 1497 3097 1228 2736 
Q 959 2375 959 1747 
Q 959 1119 1226 758 
Q 1494 397 1959 397 
Q 2419 397 2687 759 
Q 2956 1122 2956 1747 
Q 2956 2369 2687 2733 
Q 2419 3097 1959 3097 
z
M 1959 3584 
Q 2709 3584 3137 3096 
Q 3566 2609 3566 1747 
Q 3566 888 3137 398 
Q 2709 -91 1959 -91 
Q 1206 -91 779 398 
Q 353 888 353 1747 
Q 353 2609 779 3096 
Q 1206 3584 1959 3584 
z
" transform="scale(0.015625)"/>
       <path id="DejaVuSans-29" d="M 513 4856 
L 1013 4856 
Q 1481 4119 1714 3412 
Q 1947 2706 1947 2009 
Q 1947 1309 1714 600 
Q 1481 -109 1013 -844 
L 513 -844 
Q 928 -128 1133 580 
Q 1338 1288 1338 2009 
Q 1338 2731 1133 3434 
Q 928 4138 513 4856 
z
" transform="scale(0.015625)"/>
      </defs>
      <use xlink:href="#DejaVuSans-54"/>
      <use xlink:href="#DejaVuSans-69" x="57.958984"/>
      <use xlink:href="#DejaVuSans-6d" x="85.742188"/>
      <use xlink:href="#DejaVuSans-65" x="183.154297"/>
      <use xlink:href="#DejaVuSans-73" x="244.677734"/>
      <use xlink:href="#DejaVuSans-74" x="296.777344"/>
      <use xlink:href="#DejaVuSans-65" x="335.986328"/>
      <use xlink:href="#DejaVuSans-70" x="397.509766"/>
      <use xlink:href="#DejaVuSans-73" x="460.986328"/>
      <use xlink:href="#DejaVuSans-20" x="513.085938"/>
      <use xlink:href="#DejaVuSans-28" x="544.873047"/>
      <use xlink:href="#DejaVuSans-69" x="583.886719"/>
      <use xlink:href="#DejaVuSans-6e" x="611.669922"/>
      <use xlink:href="#DejaVuSans-20" x="675.048828"/>
      <use xlink:href="#DejaVuSans-4d" x="706.835938"/>
      <use xlink:href="#DejaVuSans-69" x="793.115234"/>
      <use xlink:href="#DejaVuSans-6c" x="820.898438"/>
      <use xlink:href="#DejaVuSans-6c" x="848.681641"/>
      <use xlink:href="#DejaVuSans-69" x="876.464844"/>
      <use xlink:href="#DejaVuSans-6f" x="904.248047"/>
      <use xlink:href="#DejaVuSans-6e" x="965.429688"/>
      <use xlink:href="#DejaVuSans-29" x="1028.808594"/>
     </g>
    </g>
   </g>
   <g id="matplotlib.axis_2">
    <g id="ytick_1">
     <g id="line2d_8">
      <path d="M 77.13 293.351959 
L 447.84 293.351959 
" clip-path="url(#p08ade45d0b)" style="fill: none; stroke: #ffffff; stroke-linecap: round"/>
     </g>
     <g id="text_9">
      <!-- −4000 -->
      <g style="fill: #262626" transform="translate(30.417344 297.531099)scale(0.11 -0.11)">
       <defs>
        <path id="DejaVuSans-2212" d="M 678 2272 
L 4684 2272 
L 4684 1741 
L 678 1741 
L 678 2272 
z
" transform="scale(0.015625)"/>
        <path id="DejaVuSans-34" d="M 2419 4116 
L 825 1625 
L 2419 1625 
L 2419 4116 
z
M 2253 4666 
L 3047 4666 
L 3047 1625 
L 3713 1625 
L 3713 1100 
L 3047 1100 
L 3047 0 
L 2419 0 
L 2419 1100 
L 313 1100 
L 313 1709 
L 2253 4666 
z
" transform="scale(0.015625)"/>
       </defs>
       <use xlink:href="#DejaVuSans-2212"/>
       <use xlink:href="#DejaVuSans-34" x="83.789062"/>
       <use xlink:href="#DejaVuSans-30" x="147.412109"/>
       <use xlink:href="#DejaVuSans-30" x="211.035156"/>
       <use xlink:href="#DejaVuSans-30" x="274.658203"/>
      </g>
     </g>
    </g>
    <g id="ytick_2">
     <g id="line2d_9">
      <path d="M 77.13 240.534045 
L 447.84 240.534045 
" clip-path="url(#p08ade45d0b)" style="fill: none; stroke: #ffffff; stroke-linecap: round"/>
     </g>
     <g id="text_10">
      <!-- −3000 -->
      <g style="fill: #262626" transform="translate(30.417344 244.713185)scale(0.11 -0.11)">
       <use xlink:href="#DejaVuSans-2212"/>
       <use xlink:href="#DejaVuSans-33" x="83.789062"/>
       <use xlink:href="#DejaVuSans-30" x="147.412109"/>
       <use xlink:href="#DejaVuSans-30" x="211.035156"/>
       <use xlink:href="#DejaVuSans-30" x="274.658203"/>
      </g>
     </g>
    </g>
    <g id="ytick_3">
     <g id="line2d_10">
      <path d="M 77.13 187.716131 
L 447.84 187.716131 
" clip-path="url(#p08ade45d0b)" style="fill: none; stroke: #ffffff; stroke-linecap: round"/>
     </g>
     <g id="text_11">
      <!-- −2000 -->
      <g style="fill: #262626" transform="translate(30.417344 191.895272)scale(0.11 -0.11)">
       <use xlink:href="#DejaVuSans-2212"/>
       <use xlink:href="#DejaVuSans-32" x="83.789062"/>
       <use xlink:href="#DejaVuSans-30" x="147.412109"/>
       <use xlink:href="#DejaVuSans-30" x="211.035156"/>
       <use xlink:href="#DejaVuSans-30" x="274.658203"/>
      </g>
     </g>
    </g>
    <g id="ytick_4">
     <g id="line2d_11">
      <path d="M 77.13 134.898217 
L 447.84 134.898217 
" clip-path="url(#p08ade45d0b)" style="fill: none; stroke: #ffffff; stroke-linecap: round"/>
     </g>
     <g id="text_12">
      <!-- −1000 -->
      <g style="fill: #262626" transform="translate(30.417344 139.077358)scale(0.11 -0.11)">
       <use xlink:href="#DejaVuSans-2212"/>
       <use xlink:href="#DejaVuSans-31" x="83.789062"/>
       <use xlink:href="#DejaVuSans-30" x="147.412109"/>
       <use xlink:href="#DejaVuSans-30" x="211.035156"/>
       <use xlink:href="#DejaVuSans-30" x="274.658203"/>
      </g>
     </g>
    </g>
    <g id="ytick_5">
     <g id="line2d_12">
      <path d="M 77.13 82.080303 
L 447.84 82.080303 
" clip-path="url(#p08ade45d0b)" style="fill: none; stroke: #ffffff; stroke-linecap: round"/>
     </g>
     <g id="text_13">
      <!-- 0 -->
      <g style="fill: #262626" transform="translate(60.63125 86.259444)scale(0.11 -0.11)">
       <use xlink:href="#DejaVuSans-30"/>
      </g>
     </g>
    </g>
    <g id="text_14">
     <!-- Score -->
     <g style="fill: #262626" transform="translate(23.505781 181.813281)rotate(-90)scale(0.14 -0.14)">
      <defs>
       <path id="DejaVuSans-53" d="M 3425 4513 
L 3425 3897 
Q 3066 4069 2747 4153 
Q 2428 4238 2131 4238 
Q 1616 4238 1336 4038 
Q 1056 3838 1056 3469 
Q 1056 3159 1242 3001 
Q 1428 2844 1947 2747 
L 2328 2669 
Q 3034 2534 3370 2195 
Q 3706 1856 3706 1288 
Q 3706 609 3251 259 
Q 2797 -91 1919 -91 
Q 1588 -91 1214 -16 
Q 841 59 441 206 
L 441 856 
Q 825 641 1194 531 
Q 1563 422 1919 422 
Q 2459 422 2753 634 
Q 3047 847 3047 1241 
Q 3047 1584 2836 1778 
Q 2625 1972 2144 2069 
L 1759 2144 
Q 1053 2284 737 2584 
Q 422 2884 422 3419 
Q 422 4038 858 4394 
Q 1294 4750 2059 4750 
Q 2388 4750 2728 4690 
Q 3069 4631 3425 4513 
z
" transform="scale(0.015625)"/>
       <path id="DejaVuSans-63" d="M 3122 3366 
L 3122 2828 
Q 2878 2963 2633 3030 
Q 2388 3097 2138 3097 
Q 1578 3097 1268 2742 
Q 959 2388 959 1747 
Q 959 1106 1268 751 
Q 1578 397 2138 397 
Q 2388 397 2633 464 
Q 2878 531 3122 666 
L 3122 134 
Q 2881 22 2623 -34 
Q 2366 -91 2075 -91 
Q 1284 -91 818 406 
Q 353 903 353 1747 
Q 353 2603 823 3093 
Q 1294 3584 2113 3584 
Q 2378 3584 2631 3529 
Q 2884 3475 3122 3366 
z
" transform="scale(0.015625)"/>
       <path id="DejaVuSans-72" d="M 2631 2963 
Q 2534 3019 2420 3045 
Q 2306 3072 2169 3072 
Q 1681 3072 1420 2755 
Q 1159 2438 1159 1844 
L 1159 0 
L 581 0 
L 581 3500 
L 1159 3500 
L 1159 2956 
Q 1341 3275 1631 3429 
Q 1922 3584 2338 3584 
Q 2397 3584 2469 3576 
Q 2541 3569 2628 3553 
L 2631 2963 
z
" transform="scale(0.015625)"/>
      </defs>
      <use xlink:href="#DejaVuSans-53"/>
      <use xlink:href="#DejaVuSans-63" x="63.476562"/>
      <use xlink:href="#DejaVuSans-6f" x="118.457031"/>
      <use xlink:href="#DejaVuSans-72" x="179.638672"/>
      <use xlink:href="#DejaVuSans-65" x="218.501953"/>
     </g>
    </g>
   </g>
   <g id="PolyCollection_1">
    <defs>
     <path id="mcc14e56be2" d="M 93.980455 -125.405091 
L 93.980455 -174.741316 
L 96.812464 -148.87841 
L 99.644473 -140.060596 
L 102.476482 -182.072306 
L 105.308491 -192.858636 
L 108.1405 -262.283203 
L 110.97251 -246.639485 
L 113.804519 -283.230767 
L 116.636528 -278.632331 
L 119.468537 -284.11846 
L 122.300546 -277.567713 
L 125.132555 -281.371776 
L 127.964565 -285.833481 
L 130.796574 -281.731708 
L 133.628583 -298.305319 
L 136.460592 -283.474404 
L 139.292601 -283.234116 
L 142.12461 -281.509929 
L 144.95662 -279.499844 
L 147.788629 -291.219814 
L 150.620638 -275.130681 
L 153.452647 -297.589354 
L 156.284656 -287.523441 
L 159.116665 -284.867188 
L 161.948675 -279.848336 
L 164.780684 -291.844881 
L 167.612693 -286.540317 
L 170.444702 -276.651372 
L 173.276711 -283.420209 
L 176.10872 -289.928013 
L 178.94073 -280.83184 
L 181.772739 -278.018809 
L 184.604748 -282.207941 
L 187.436757 -287.255759 
L 190.268766 -284.839251 
L 193.100775 -276.166499 
L 195.932785 -278.771188 
L 198.764794 -283.983363 
L 201.596803 -279.631762 
L 204.428812 -281.485146 
L 207.260821 -279.345475 
L 210.09283 -282.519056 
L 212.92484 -280.375225 
L 215.756849 -278.989247 
L 218.588858 -278.283815 
L 221.420867 -281.615177 
L 224.252876 -279.045487 
L 227.084885 -303.799091 
L 229.916895 -281.211498 
L 232.748904 -278.258975 
L 235.580913 -279.143966 
L 238.412922 -281.644508 
L 241.244931 -284.471948 
L 244.07694 -291.964144 
L 246.90895 -281.74217 
L 249.740959 -277.15463 
L 252.572968 -281.739468 
L 255.404977 -277.653549 
L 258.236986 -284.885306 
L 261.068995 -277.559157 
L 263.901005 -285.427731 
L 266.733014 -277.162844 
L 269.565023 -280.477825 
L 272.397032 -279.886597 
L 275.229041 -276.593726 
L 278.06105 -277.588761 
L 280.89306 -277.226735 
L 283.725069 -278.063083 
L 286.557078 -277.435404 
L 289.389087 -277.306728 
L 292.221096 -276.199915 
L 295.053105 -280.052356 
L 297.885115 -280.832544 
L 300.717124 -284.934247 
L 303.549133 -281.572651 
L 306.381142 -285.664099 
L 309.213151 -278.863432 
L 312.04516 -280.973402 
L 314.87717 -280.2069 
L 317.709179 -279.647735 
L 320.541188 -278.017961 
L 323.373197 -279.20768 
L 326.205206 -281.871213 
L 329.037215 -278.154121 
L 331.869225 -280.264803 
L 334.701234 -280.871257 
L 337.533243 -279.600129 
L 340.365252 -277.686685 
L 343.197261 -279.503298 
L 346.02927 -280.085006 
L 348.86128 -277.377466 
L 351.693289 -281.996256 
L 354.525298 -275.711184 
L 357.357307 -279.663739 
L 360.189316 -287.503288 
L 363.021325 -279.285773 
L 365.853335 -278.79762 
L 368.685344 -278.652932 
L 371.517353 -276.433942 
L 374.349362 -283.388988 
L 377.181371 -283.013357 
L 380.01338 -282.318206 
L 382.84539 -280.243677 
L 385.677399 -275.441208 
L 388.509408 -281.392012 
L 391.341417 -277.146793 
L 394.173426 -278.649686 
L 397.005435 -277.39016 
L 399.837445 -279.106142 
L 402.669454 -276.817142 
L 405.501463 -280.110449 
L 408.333472 -280.906417 
L 411.165481 -276.588073 
L 413.99749 -277.509522 
L 416.8295 -277.429262 
L 419.661509 -279.775754 
L 422.493518 -277.452612 
L 425.325527 -278.937026 
L 428.157536 -279.595542 
L 430.989545 -279.681167 
L 430.989545 -273.768898 
L 430.989545 -273.768898 
L 428.157536 -275.36237 
L 425.325527 -276.71689 
L 422.493518 -276.069988 
L 419.661509 -274.186144 
L 416.8295 -273.277834 
L 413.99749 -274.798338 
L 411.165481 -275.849325 
L 408.333472 -274.398229 
L 405.501463 -273.772671 
L 402.669454 -273.058295 
L 399.837445 -276.189405 
L 397.005435 -273.885451 
L 394.173426 -273.904319 
L 391.341417 -275.501087 
L 388.509408 -275.969169 
L 385.677399 -272.868911 
L 382.84539 -273.636715 
L 380.01338 -275.146855 
L 377.181371 -274.06758 
L 374.349362 -274.896377 
L 371.517353 -273.742073 
L 368.685344 -274.904856 
L 365.853335 -274.55581 
L 363.021325 -274.503364 
L 360.189316 -273.871282 
L 357.357307 -273.504547 
L 354.525298 -273.312394 
L 351.693289 -274.339416 
L 348.86128 -273.78413 
L 346.02927 -273.17044 
L 343.197261 -275.612599 
L 340.365252 -274.619583 
L 337.533243 -273.994322 
L 334.701234 -274.18139 
L 331.869225 -274.612482 
L 329.037215 -273.198281 
L 326.205206 -273.622172 
L 323.373197 -274.259055 
L 320.541188 -273.573159 
L 317.709179 -275.438288 
L 314.87717 -273.729968 
L 312.04516 -274.342338 
L 309.213151 -273.418832 
L 306.381142 -275.466183 
L 303.549133 -274.877646 
L 300.717124 -274.796824 
L 297.885115 -273.645568 
L 295.053105 -276.202585 
L 292.221096 -274.772171 
L 289.389087 -273.646401 
L 286.557078 -275.129153 
L 283.725069 -274.24867 
L 280.89306 -273.435188 
L 278.06105 -274.754201 
L 275.229041 -273.048022 
L 272.397032 -273.04414 
L 269.565023 -272.128368 
L 266.733014 -274.703231 
L 263.901005 -275.612943 
L 261.068995 -274.212429 
L 258.236986 -273.943767 
L 255.404977 -273.12151 
L 252.572968 -274.185038 
L 249.740959 -274.628476 
L 246.90895 -273.889388 
L 244.07694 -273.744293 
L 241.244931 -275.951462 
L 238.412922 -273.425589 
L 235.580913 -274.583919 
L 232.748904 -274.152083 
L 229.916895 -273.930651 
L 227.084885 -275.17455 
L 224.252876 -273.615679 
L 221.420867 -274.61387 
L 218.588858 -274.780502 
L 215.756849 -275.618009 
L 212.92484 -274.300885 
L 210.09283 -274.346144 
L 207.260821 -273.981533 
L 204.428812 -273.486831 
L 201.596803 -276.232432 
L 198.764794 -275.90036 
L 195.932785 -275.412816 
L 193.100775 -272.860078 
L 190.268766 -271.447066 
L 187.436757 -271.771878 
L 184.604748 -272.573643 
L 181.772739 -276.556712 
L 178.94073 -273.491834 
L 176.10872 -262.831107 
L 173.276711 -274.964993 
L 170.444702 -233.193104 
L 167.612693 -274.908694 
L 164.780684 -276.99823 
L 161.948675 -257.999388 
L 159.116665 -268.650489 
L 156.284656 -272.985539 
L 153.452647 -277.329217 
L 150.620638 -274.123643 
L 147.788629 -261.854084 
L 144.95662 -274.976899 
L 142.12461 -242.423497 
L 139.292601 -270.80572 
L 136.460592 -273.964054 
L 133.628583 -267.887493 
L 130.796574 -203.197188 
L 127.964565 -264.258916 
L 125.132555 -253.954073 
L 122.300546 -250.585692 
L 119.468537 -253.441844 
L 116.636528 -226.469386 
L 113.804519 -256.388325 
L 110.97251 -219.942704 
L 108.1405 -192.601769 
L 105.308491 -70.527097 
L 102.476482 -111.712254 
L 99.644473 -91.295824 
L 96.812464 -112.236754 
L 93.980455 -125.405091 
z
" style="stroke: #ffffff; stroke-opacity: 0.5"/>
    </defs>
    <g clip-path="url(#p08ade45d0b)">
     <use xlink:href="#mcc14e56be2" x="0" y="345.6" style="fill: #4c72b0; fill-opacity: 0.5; stroke: #ffffff; stroke-opacity: 0.5"/>
    </g>
   </g>
   <g id="PolyCollection_2">
    <defs>
     <path id="m1c2f5a6c60" d="M 93.980455 -107.234081 
L 93.980455 -189.118207 
L 96.812464 -185.737723 
L 99.644473 -166.526913 
L 102.476482 -200.543734 
L 105.308491 -156.186722 
L 108.1405 -181.966196 
L 110.97251 -213.690078 
L 113.804519 -207.991954 
L 116.636528 -226.433159 
L 119.468537 -247.491152 
L 122.300546 -237.500848 
L 125.132555 -215.958065 
L 127.964565 -273.4463 
L 130.796574 -268.510264 
L 133.628583 -273.71292 
L 136.460592 -272.28051 
L 139.292601 -275.339622 
L 142.12461 -270.650124 
L 144.95662 -250.765861 
L 147.788629 -266.757558 
L 150.620638 -279.340541 
L 153.452647 -274.186913 
L 156.284656 -281.503215 
L 159.116665 -271.115354 
L 161.948675 -278.323794 
L 164.780684 -281.463082 
L 167.612693 -275.007286 
L 170.444702 -279.455332 
L 173.276711 -278.067707 
L 176.10872 -276.839016 
L 178.94073 -285.10236 
L 181.772739 -275.566011 
L 184.604748 -281.289062 
L 187.436757 -282.151146 
L 190.268766 -278.35876 
L 193.100775 -275.157766 
L 195.932785 -280.682574 
L 198.764794 -278.263183 
L 201.596803 -277.017846 
L 204.428812 -277.754124 
L 207.260821 -276.732221 
L 210.09283 -283.736526 
L 212.92484 -279.203225 
L 215.756849 -274.413756 
L 218.588858 -276.268719 
L 221.420867 -276.872272 
L 224.252876 -277.829364 
L 227.084885 -277.058975 
L 229.916895 -279.215522 
L 232.748904 -280.17711 
L 235.580913 -279.643129 
L 238.412922 -277.430723 
L 241.244931 -276.608262 
L 244.07694 -276.415306 
L 246.90895 -276.785992 
L 249.740959 -279.719585 
L 252.572968 -278.592888 
L 255.404977 -275.660413 
L 258.236986 -276.141888 
L 261.068995 -278.966084 
L 263.901005 -280.010297 
L 266.733014 -276.515904 
L 269.565023 -277.292932 
L 272.397032 -276.431342 
L 275.229041 -278.601185 
L 278.06105 -279.007768 
L 280.89306 -280.988635 
L 283.725069 -277.49443 
L 286.557078 -283.54474 
L 289.389087 -280.186275 
L 292.221096 -277.286145 
L 295.053105 -278.716623 
L 297.885115 -277.714393 
L 300.717124 -279.707356 
L 303.549133 -278.336618 
L 306.381142 -275.92715 
L 309.213151 -274.924062 
L 312.04516 -276.764229 
L 314.87717 -277.676834 
L 317.709179 -274.78796 
L 320.541188 -275.089623 
L 323.373197 -276.252666 
L 326.205206 -277.711809 
L 329.037215 -275.384058 
L 331.869225 -282.09534 
L 334.701234 -275.655907 
L 337.533243 -277.416417 
L 340.365252 -280.779567 
L 343.197261 -274.420392 
L 346.02927 -276.866019 
L 348.86128 -274.482378 
L 351.693289 -275.415591 
L 354.525298 -278.470799 
L 357.357307 -278.519786 
L 360.189316 -275.560558 
L 363.021325 -275.554228 
L 365.853335 -275.506656 
L 368.685344 -276.002506 
L 371.517353 -273.457757 
L 374.349362 -279.461249 
L 377.181371 -279.257933 
L 380.01338 -276.517559 
L 382.84539 -279.045109 
L 385.677399 -276.411817 
L 388.509408 -275.409977 
L 391.341417 -277.142676 
L 394.173426 -275.883371 
L 397.005435 -276.891353 
L 399.837445 -275.629506 
L 402.669454 -277.463812 
L 405.501463 -275.388215 
L 408.333472 -275.036722 
L 411.165481 -274.805975 
L 413.99749 -275.817251 
L 416.8295 -276.334547 
L 419.661509 -275.629397 
L 422.493518 -277.088923 
L 425.325527 -275.836719 
L 428.157536 -275.419094 
L 430.989545 -277.591099 
L 430.989545 -273.397056 
L 430.989545 -273.397056 
L 428.157536 -273.418265 
L 425.325527 -273.498514 
L 422.493518 -273.144716 
L 419.661509 -272.324657 
L 416.8295 -273.562393 
L 413.99749 -273.30021 
L 411.165481 -273.015095 
L 408.333472 -271.756984 
L 405.501463 -273.234438 
L 402.669454 -272.559488 
L 399.837445 -271.561838 
L 397.005435 -274.124077 
L 394.173426 -273.387186 
L 391.341417 -272.294652 
L 388.509408 -272.424673 
L 385.677399 -271.243246 
L 382.84539 -273.678098 
L 380.01338 -272.471087 
L 377.181371 -272.389082 
L 374.349362 -274.283184 
L 371.517353 -271.486707 
L 368.685344 -271.74671 
L 365.853335 -273.470291 
L 363.021325 -272.934353 
L 360.189316 -273.332925 
L 357.357307 -272.930603 
L 354.525298 -275.266813 
L 351.693289 -271.751084 
L 348.86128 -272.482283 
L 346.02927 -272.155784 
L 343.197261 -273.530382 
L 340.365252 -272.673042 
L 337.533243 -273.307009 
L 334.701234 -273.1173 
L 331.869225 -273.458648 
L 329.037215 -272.429218 
L 326.205206 -272.310147 
L 323.373197 -272.484484 
L 320.541188 -273.042629 
L 317.709179 -272.88833 
L 314.87717 -273.258283 
L 312.04516 -273.749785 
L 309.213151 -273.063067 
L 306.381142 -273.366873 
L 303.549133 -272.871527 
L 300.717124 -272.426601 
L 297.885115 -274.240596 
L 295.053105 -272.850052 
L 292.221096 -271.938089 
L 289.389087 -273.805351 
L 286.557078 -273.377328 
L 283.725069 -273.779751 
L 280.89306 -273.210682 
L 278.06105 -274.02471 
L 275.229041 -275.538487 
L 272.397032 -274.496633 
L 269.565023 -272.274318 
L 266.733014 -272.749195 
L 263.901005 -275.624007 
L 261.068995 -273.554018 
L 258.236986 -273.604035 
L 255.404977 -272.819064 
L 252.572968 -272.78958 
L 249.740959 -273.34008 
L 246.90895 -273.836172 
L 244.07694 -273.576133 
L 241.244931 -272.894421 
L 238.412922 -273.124627 
L 235.580913 -274.809821 
L 232.748904 -273.314918 
L 229.916895 -273.651424 
L 227.084885 -270.909296 
L 224.252876 -272.887266 
L 221.420867 -273.215576 
L 218.588858 -272.160707 
L 215.756849 -272.300332 
L 212.92484 -274.411567 
L 210.09283 -273.559313 
L 207.260821 -271.240295 
L 204.428812 -269.841669 
L 201.596803 -264.392684 
L 198.764794 -272.164839 
L 195.932785 -271.238337 
L 193.100775 -270.820437 
L 190.268766 -271.326886 
L 187.436757 -268.215127 
L 184.604748 -272.937317 
L 181.772739 -260.989471 
L 178.94073 -270.965968 
L 176.10872 -221.721206 
L 173.276711 -265.187745 
L 170.444702 -269.980006 
L 167.612693 -188.426397 
L 164.780684 -256.283518 
L 161.948675 -252.864827 
L 159.116665 -225.748583 
L 156.284656 -236.420646 
L 153.452647 -236.589554 
L 150.620638 -185.10151 
L 147.788629 -250.522682 
L 144.95662 -225.027628 
L 142.12461 -204.200587 
L 139.292601 -218.771929 
L 136.460592 -211.701963 
L 133.628583 -234.708517 
L 130.796574 -205.430439 
L 127.964565 -193.439473 
L 125.132555 -158.509636 
L 122.300546 -205.275574 
L 119.468537 -183.225227 
L 116.636528 -182.995441 
L 113.804519 -143.32161 
L 110.97251 -145.009765 
L 108.1405 -165.486397 
L 105.308491 -128.094133 
L 102.476482 -65.480639 
L 99.644473 -110.014765 
L 96.812464 -89.050435 
L 93.980455 -107.234081 
z
" style="stroke: #ffffff; stroke-opacity: 0.5"/>
    </defs>
    <g clip-path="url(#p08ade45d0b)">
     <use xlink:href="#m1c2f5a6c60" x="0" y="345.6" style="fill: #dd8452; fill-opacity: 0.5; stroke: #ffffff; stroke-opacity: 0.5"/>
    </g>
   </g>
   <g id="PolyCollection_3">
    <defs>
     <path id="mafcb90b9dd" d="M 93.980455 -104.703701 
L 93.980455 -173.641327 
L 96.812464 -199.908916 
L 99.644473 -144.071988 
L 102.476482 -178.91547 
L 105.308491 -202.936254 
L 108.1405 -200.080626 
L 110.97251 -192.021209 
L 113.804519 -201.456133 
L 116.636528 -243.091606 
L 119.468537 -249.704492 
L 122.300546 -233.418697 
L 125.132555 -239.948317 
L 127.964565 -223.374206 
L 130.796574 -238.493761 
L 133.628583 -245.971771 
L 136.460592 -247.138229 
L 139.292601 -264.864084 
L 142.12461 -223.622832 
L 144.95662 -252.266732 
L 147.788629 -270.640378 
L 150.620638 -269.59397 
L 153.452647 -270.507281 
L 156.284656 -259.514515 
L 159.116665 -270.66382 
L 161.948675 -271.232548 
L 164.780684 -251.787079 
L 167.612693 -247.007843 
L 170.444702 -256.049049 
L 173.276711 -266.601171 
L 176.10872 -275.180332 
L 178.94073 -267.394284 
L 181.772739 -272.082649 
L 184.604748 -274.185701 
L 187.436757 -273.88063 
L 190.268766 -276.186862 
L 193.100775 -277.666759 
L 195.932785 -280.01979 
L 198.764794 -273.697915 
L 201.596803 -275.493736 
L 204.428812 -272.912565 
L 207.260821 -281.182131 
L 210.09283 -280.31296 
L 212.92484 -275.521719 
L 215.756849 -275.043832 
L 218.588858 -275.159662 
L 221.420867 -277.342721 
L 224.252876 -282.866098 
L 227.084885 -272.785739 
L 229.916895 -276.662356 
L 232.748904 -275.28885 
L 235.580913 -272.938714 
L 238.412922 -272.413899 
L 241.244931 -275.64847 
L 244.07694 -274.34213 
L 246.90895 -276.291052 
L 249.740959 -277.408626 
L 252.572968 -272.485584 
L 255.404977 -274.603188 
L 258.236986 -276.125479 
L 261.068995 -271.611756 
L 263.901005 -274.914261 
L 266.733014 -273.588195 
L 269.565023 -274.716288 
L 272.397032 -275.602295 
L 275.229041 -274.575341 
L 278.06105 -274.47048 
L 280.89306 -275.612448 
L 283.725069 -274.382011 
L 286.557078 -274.952777 
L 289.389087 -275.393341 
L 292.221096 -277.25114 
L 295.053105 -276.264427 
L 297.885115 -273.940911 
L 300.717124 -271.746703 
L 303.549133 -276.126879 
L 306.381142 -275.125838 
L 309.213151 -280.96538 
L 312.04516 -276.923727 
L 314.87717 -274.8667 
L 317.709179 -275.385761 
L 320.541188 -274.890803 
L 323.373197 -273.984129 
L 326.205206 -275.090727 
L 329.037215 -272.165352 
L 331.869225 -275.898757 
L 334.701234 -279.429746 
L 337.533243 -277.631778 
L 340.365252 -275.563409 
L 343.197261 -274.693141 
L 346.02927 -275.142826 
L 348.86128 -273.937099 
L 351.693289 -275.024329 
L 354.525298 -273.712983 
L 357.357307 -274.796354 
L 360.189316 -276.084705 
L 363.021325 -272.32681 
L 365.853335 -270.673679 
L 368.685344 -272.195562 
L 371.517353 -273.794665 
L 374.349362 -277.57688 
L 377.181371 -274.93118 
L 380.01338 -272.988804 
L 382.84539 -275.817625 
L 385.677399 -273.869037 
L 388.509408 -272.754037 
L 391.341417 -274.109422 
L 394.173426 -274.10685 
L 397.005435 -273.475873 
L 399.837445 -274.441567 
L 402.669454 -274.442311 
L 405.501463 -272.796823 
L 408.333472 -272.118058 
L 411.165481 -273.004983 
L 413.99749 -272.564607 
L 416.8295 -274.399149 
L 419.661509 -275.306043 
L 422.493518 -273.58961 
L 425.325527 -273.838638 
L 428.157536 -276.879896 
L 430.989545 -274.97917 
L 430.989545 -268.280385 
L 430.989545 -268.280385 
L 428.157536 -270.252893 
L 425.325527 -270.061905 
L 422.493518 -267.623181 
L 419.661509 -269.092247 
L 416.8295 -271.378859 
L 413.99749 -270.787525 
L 411.165481 -268.725621 
L 408.333472 -269.369457 
L 405.501463 -269.683248 
L 402.669454 -271.318124 
L 399.837445 -270.30647 
L 397.005435 -270.810367 
L 394.173426 -269.369592 
L 391.341417 -269.665462 
L 388.509408 -267.523927 
L 385.677399 -270.741242 
L 382.84539 -269.735908 
L 380.01338 -268.588425 
L 377.181371 -271.146093 
L 374.349362 -270.139607 
L 371.517353 -270.111932 
L 368.685344 -269.456762 
L 365.853335 -269.194544 
L 363.021325 -270.387563 
L 360.189316 -272.795697 
L 357.357307 -270.248601 
L 354.525298 -270.563921 
L 351.693289 -270.176353 
L 348.86128 -269.901565 
L 346.02927 -270.92661 
L 343.197261 -269.541292 
L 340.365252 -270.415595 
L 337.533243 -269.377205 
L 334.701234 -270.021393 
L 331.869225 -272.955151 
L 329.037215 -270.953287 
L 326.205206 -271.374736 
L 323.373197 -270.119312 
L 320.541188 -271.613351 
L 317.709179 -268.900337 
L 314.87717 -272.423777 
L 312.04516 -271.079669 
L 309.213151 -270.526775 
L 306.381142 -270.463838 
L 303.549133 -270.090149 
L 300.717124 -270.325388 
L 297.885115 -269.570883 
L 295.053105 -270.353102 
L 292.221096 -270.654719 
L 289.389087 -269.257125 
L 286.557078 -270.149797 
L 283.725069 -270.313776 
L 280.89306 -270.972427 
L 278.06105 -269.965811 
L 275.229041 -272.078984 
L 272.397032 -270.521064 
L 269.565023 -271.388098 
L 266.733014 -272.827545 
L 263.901005 -269.577771 
L 261.068995 -266.944118 
L 258.236986 -272.315029 
L 255.404977 -269.9772 
L 252.572968 -269.632516 
L 249.740959 -269.920971 
L 246.90895 -268.3398 
L 244.07694 -269.323649 
L 241.244931 -269.907104 
L 238.412922 -268.91442 
L 235.580913 -246.602134 
L 232.748904 -251.063376 
L 229.916895 -260.528756 
L 227.084885 -251.627945 
L 224.252876 -270.413475 
L 221.420867 -271.171967 
L 218.588858 -246.20289 
L 215.756849 -269.392518 
L 212.92484 -264.726734 
L 210.09283 -257.698702 
L 207.260821 -258.011134 
L 204.428812 -261.924695 
L 201.596803 -260.974539 
L 198.764794 -247.236909 
L 195.932785 -229.228773 
L 193.100775 -270.129646 
L 190.268766 -262.766106 
L 187.436757 -215.781702 
L 184.604748 -260.631628 
L 181.772739 -231.075793 
L 178.94073 -227.386095 
L 176.10872 -225.205416 
L 173.276711 -215.070729 
L 170.444702 -212.540154 
L 167.612693 -226.703761 
L 164.780684 -194.31185 
L 161.948675 -215.985025 
L 159.116665 -174.808161 
L 156.284656 -159.471863 
L 153.452647 -203.260715 
L 150.620638 -224.583789 
L 147.788629 -185.644404 
L 144.95662 -202.298147 
L 142.12461 -166.650728 
L 139.292601 -174.716413 
L 136.460592 -157.968731 
L 133.628583 -190.888091 
L 130.796574 -160.855527 
L 127.964565 -159.177576 
L 125.132555 -162.614017 
L 122.300546 -141.570321 
L 119.468537 -154.464344 
L 116.636528 -145.470583 
L 113.804519 -158.386492 
L 110.97251 -124.496086 
L 108.1405 -146.378728 
L 105.308491 -105.820852 
L 102.476482 -118.132527 
L 99.644473 -62.980909 
L 96.812464 -100.209404 
L 93.980455 -104.703701 
z
" style="stroke: #ffffff; stroke-opacity: 0.5"/>
    </defs>
    <g clip-path="url(#p08ade45d0b)">
     <use xlink:href="#mafcb90b9dd" x="0" y="345.6" style="fill: #55a868; fill-opacity: 0.5; stroke: #ffffff; stroke-opacity: 0.5"/>
    </g>
   </g>
   <g id="PolyCollection_4">
    <defs>
     <path id="m94ea78c6df" d="M 93.980455 -63.207535 
L 93.980455 -134.19819 
L 96.812464 -159.465275 
L 99.644473 -149.428906 
L 102.476482 -175.700311 
L 105.308491 -188.141356 
L 108.1405 -177.055827 
L 110.97251 -183.448306 
L 113.804519 -192.737148 
L 116.636528 -176.829582 
L 119.468537 -211.049929 
L 122.300546 -190.445098 
L 125.132555 -204.703754 
L 127.964565 -217.207714 
L 130.796574 -208.063791 
L 133.628583 -198.067334 
L 136.460592 -198.011333 
L 139.292601 -213.578681 
L 142.12461 -247.785 
L 144.95662 -215.766492 
L 147.788629 -211.008387 
L 150.620638 -236.2812 
L 153.452647 -256.759724 
L 156.284656 -217.659643 
L 159.116665 -230.837466 
L 161.948675 -235.088119 
L 164.780684 -237.644372 
L 167.612693 -222.342655 
L 170.444702 -228.722848 
L 173.276711 -263.528503 
L 176.10872 -242.833368 
L 178.94073 -246.326557 
L 181.772739 -241.17983 
L 184.604748 -262.465653 
L 187.436757 -266.354694 
L 190.268766 -238.223145 
L 193.100775 -265.631155 
L 195.932785 -267.480974 
L 198.764794 -274.06527 
L 201.596803 -254.136996 
L 204.428812 -260.115372 
L 207.260821 -250.244574 
L 210.09283 -257.004622 
L 212.92484 -253.701776 
L 215.756849 -274.424176 
L 218.588858 -263.667652 
L 221.420867 -262.663127 
L 224.252876 -268.24356 
L 227.084885 -266.362832 
L 229.916895 -267.36315 
L 232.748904 -254.831507 
L 235.580913 -262.085766 
L 238.412922 -264.872583 
L 241.244931 -263.106669 
L 244.07694 -265.840857 
L 246.90895 -266.159436 
L 249.740959 -267.261654 
L 252.572968 -268.885854 
L 255.404977 -284.344035 
L 258.236986 -275.3851 
L 261.068995 -273.5728 
L 263.901005 -267.73531 
L 266.733014 -266.558094 
L 269.565023 -267.640175 
L 272.397032 -270.9218 
L 275.229041 -266.382293 
L 278.06105 -266.795316 
L 280.89306 -268.937367 
L 283.725069 -268.710262 
L 286.557078 -266.686345 
L 289.389087 -269.232474 
L 292.221096 -268.478467 
L 295.053105 -269.786952 
L 297.885115 -270.324221 
L 300.717124 -268.146094 
L 303.549133 -278.15063 
L 306.381142 -273.60429 
L 309.213151 -269.660146 
L 312.04516 -271.104759 
L 314.87717 -273.676156 
L 317.709179 -268.333501 
L 320.541188 -274.29497 
L 323.373197 -269.891862 
L 326.205206 -271.426768 
L 329.037215 -268.519488 
L 331.869225 -275.990765 
L 334.701234 -277.513758 
L 337.533243 -269.395626 
L 340.365252 -268.997856 
L 343.197261 -271.466252 
L 346.02927 -273.704923 
L 348.86128 -269.181561 
L 351.693289 -270.107983 
L 354.525298 -270.239171 
L 357.357307 -269.937401 
L 360.189316 -271.858784 
L 363.021325 -271.403928 
L 365.853335 -270.115453 
L 368.685344 -270.81214 
L 371.517353 -270.23379 
L 374.349362 -273.272038 
L 377.181371 -271.744618 
L 380.01338 -271.078032 
L 382.84539 -268.051149 
L 385.677399 -270.053602 
L 388.509408 -269.908162 
L 391.341417 -268.340216 
L 394.173426 -269.979848 
L 397.005435 -267.981166 
L 399.837445 -268.718698 
L 402.669454 -271.755108 
L 405.501463 -270.777767 
L 408.333472 -268.360122 
L 411.165481 -270.008838 
L 413.99749 -270.752863 
L 416.8295 -270.153005 
L 419.661509 -271.93254 
L 422.493518 -270.953653 
L 425.325527 -269.019571 
L 428.157536 -270.770964 
L 430.989545 -269.499139 
L 430.989545 -264.559711 
L 430.989545 -264.559711 
L 428.157536 -263.42853 
L 425.325527 -267.208924 
L 422.493518 -263.067298 
L 419.661509 -264.164182 
L 416.8295 -266.340494 
L 413.99749 -261.072143 
L 411.165481 -260.974638 
L 408.333472 -260.940888 
L 405.501463 -264.719699 
L 402.669454 -262.210255 
L 399.837445 -263.08973 
L 397.005435 -262.526727 
L 394.173426 -264.470393 
L 391.341417 -259.037052 
L 388.509408 -262.743048 
L 385.677399 -267.284557 
L 382.84539 -263.829642 
L 380.01338 -263.73279 
L 377.181371 -264.131297 
L 374.349362 -263.952098 
L 371.517353 -265.193796 
L 368.685344 -264.413212 
L 365.853335 -265.743476 
L 363.021325 -264.694983 
L 360.189316 -254.949177 
L 357.357307 -264.229072 
L 354.525298 -267.762075 
L 351.693289 -262.361279 
L 348.86128 -264.44673 
L 346.02927 -264.925478 
L 343.197261 -264.374148 
L 340.365252 -263.827091 
L 337.533243 -240.148698 
L 334.701234 -263.722203 
L 331.869225 -262.261028 
L 329.037215 -249.545689 
L 326.205206 -240.344981 
L 323.373197 -267.489466 
L 320.541188 -256.975973 
L 317.709179 -255.415326 
L 314.87717 -258.594193 
L 312.04516 -264.610668 
L 309.213151 -254.90473 
L 306.381142 -251.33295 
L 303.549133 -261.621177 
L 300.717124 -245.554982 
L 297.885115 -245.113897 
L 295.053105 -249.046268 
L 292.221096 -249.349666 
L 289.389087 -234.107415 
L 286.557078 -239.572468 
L 283.725069 -260.905048 
L 280.89306 -243.372043 
L 278.06105 -256.947597 
L 275.229041 -223.206729 
L 272.397032 -248.622779 
L 269.565023 -252.294643 
L 266.733014 -242.882756 
L 263.901005 -232.430065 
L 261.068995 -235.480959 
L 258.236986 -201.452137 
L 255.404977 -252.474929 
L 252.572968 -232.024373 
L 249.740959 -199.340112 
L 246.90895 -233.150997 
L 244.07694 -205.753766 
L 241.244931 -185.255191 
L 238.412922 -192.353822 
L 235.580913 -196.824541 
L 232.748904 -178.719976 
L 229.916895 -171.044843 
L 227.084885 -171.739815 
L 224.252876 -177.341324 
L 221.420867 -165.611523 
L 218.588858 -192.724606 
L 215.756849 -208.980145 
L 212.92484 -186.738424 
L 210.09283 -205.928229 
L 207.260821 -162.890918 
L 204.428812 -219.249073 
L 201.596803 -178.694656 
L 198.764794 -209.409846 
L 195.932785 -171.276714 
L 193.100775 -200.96256 
L 190.268766 -154.914797 
L 187.436757 -187.899774 
L 184.604748 -196.95626 
L 181.772739 -181.272917 
L 178.94073 -177.163229 
L 176.10872 -178.954009 
L 173.276711 -185.106488 
L 170.444702 -183.182348 
L 167.612693 -171.797746 
L 164.780684 -181.931803 
L 161.948675 -180.550124 
L 159.116665 -161.148163 
L 156.284656 -183.596365 
L 153.452647 -180.82356 
L 150.620638 -187.681939 
L 147.788629 -162.539594 
L 144.95662 -160.291184 
L 142.12461 -156.713705 
L 139.292601 -148.63034 
L 136.460592 -147.862696 
L 133.628583 -156.656164 
L 130.796574 -132.920505 
L 127.964565 -183.083795 
L 125.132555 -146.046249 
L 122.300546 -136.052078 
L 119.468537 -134.606378 
L 116.636528 -152.726728 
L 113.804519 -155.277504 
L 110.97251 -124.513108 
L 108.1405 -142.397098 
L 105.308491 -110.822237 
L 102.476482 -112.938084 
L 99.644473 -131.725364 
L 96.812464 -129.232919 
L 93.980455 -63.207535 
z
" style="stroke: #ffffff; stroke-opacity: 0.5"/>
    </defs>
    <g clip-path="url(#p08ade45d0b)">
     <use xlink:href="#m94ea78c6df" x="0" y="345.6" style="fill: #c44e52; fill-opacity: 0.5; stroke: #ffffff; stroke-opacity: 0.5"/>
    </g>
   </g>
   <g id="PolyCollection_5">
    <defs>
     <path id="m085b0d6efa" d="M 93.980455 -96.079494 
L 93.980455 -188.136046 
L 96.812464 -180.375993 
L 99.644473 -145.255605 
L 102.476482 -161.565497 
L 105.308491 -184.646694 
L 108.1405 -173.754448 
L 110.97251 -191.841969 
L 113.804519 -176.665984 
L 116.636528 -169.204021 
L 119.468537 -167.02335 
L 122.300546 -170.210056 
L 125.132555 -196.190407 
L 127.964565 -179.229706 
L 130.796574 -199.177775 
L 133.628583 -193.270774 
L 136.460592 -199.375944 
L 139.292601 -158.340296 
L 142.12461 -156.821624 
L 144.95662 -172.177391 
L 147.788629 -187.917684 
L 150.620638 -187.900313 
L 153.452647 -195.790762 
L 156.284656 -206.351907 
L 159.116665 -191.647096 
L 161.948675 -193.136934 
L 164.780684 -186.857692 
L 167.612693 -181.291939 
L 170.444702 -179.698051 
L 173.276711 -176.93812 
L 176.10872 -179.118984 
L 178.94073 -168.662684 
L 181.772739 -177.446956 
L 184.604748 -175.104487 
L 187.436757 -187.836977 
L 190.268766 -159.732161 
L 193.100775 -176.289076 
L 195.932785 -197.973472 
L 198.764794 -192.842062 
L 201.596803 -172.285506 
L 204.428812 -179.105034 
L 207.260821 -170.608652 
L 210.09283 -174.405928 
L 212.92484 -175.288015 
L 215.756849 -179.551989 
L 218.588858 -192.748102 
L 221.420867 -178.139894 
L 224.252876 -171.476378 
L 227.084885 -191.938337 
L 229.916895 -170.880458 
L 232.748904 -176.090955 
L 235.580913 -197.615228 
L 238.412922 -181.166592 
L 241.244931 -195.298326 
L 244.07694 -190.303872 
L 246.90895 -167.061855 
L 249.740959 -167.724033 
L 252.572968 -184.473564 
L 255.404977 -149.589667 
L 258.236986 -171.513228 
L 261.068995 -184.215809 
L 263.901005 -165.377476 
L 266.733014 -170.743168 
L 269.565023 -174.571705 
L 272.397032 -170.492316 
L 275.229041 -170.332592 
L 278.06105 -203.597757 
L 280.89306 -184.633706 
L 283.725069 -182.68193 
L 286.557078 -187.207933 
L 289.389087 -175.947231 
L 292.221096 -179.355003 
L 295.053105 -171.710034 
L 297.885115 -193.216147 
L 300.717124 -181.596731 
L 303.549133 -177.844528 
L 306.381142 -188.25 
L 309.213151 -186.478879 
L 312.04516 -184.484068 
L 314.87717 -201.800692 
L 317.709179 -184.218834 
L 320.541188 -185.030593 
L 323.373197 -189.204994 
L 326.205206 -172.510444 
L 329.037215 -186.517517 
L 331.869225 -185.570627 
L 334.701234 -181.610318 
L 337.533243 -192.750585 
L 340.365252 -178.906286 
L 343.197261 -188.49603 
L 346.02927 -191.131933 
L 348.86128 -183.36879 
L 351.693289 -194.096878 
L 354.525298 -171.011658 
L 357.357307 -204.5005 
L 360.189316 -155.727385 
L 363.021325 -206.737608 
L 365.853335 -209.940319 
L 368.685344 -179.620236 
L 371.517353 -188.768499 
L 374.349362 -190.018504 
L 377.181371 -202.565583 
L 380.01338 -179.894703 
L 382.84539 -186.210895 
L 385.677399 -185.606219 
L 388.509408 -183.723088 
L 391.341417 -183.690721 
L 394.173426 -176.857073 
L 397.005435 -190.214149 
L 399.837445 -190.027914 
L 402.669454 -206.756168 
L 405.501463 -192.514656 
L 408.333472 -176.443184 
L 411.165481 -178.673956 
L 413.99749 -196.249082 
L 416.8295 -165.294783 
L 419.661509 -185.740482 
L 422.493518 -191.456162 
L 425.325527 -181.057492 
L 428.157536 -173.661769 
L 430.989545 -175.826919 
L 430.989545 -155.561888 
L 430.989545 -155.561888 
L 428.157536 -134.211552 
L 425.325527 -146.144208 
L 422.493518 -150.683803 
L 419.661509 -164.308447 
L 416.8295 -138.513393 
L 413.99749 -147.272397 
L 411.165481 -152.042657 
L 408.333472 -143.914355 
L 405.501463 -177.134616 
L 402.669454 -137.377028 
L 399.837445 -154.655985 
L 397.005435 -140.859408 
L 394.173426 -144.588499 
L 391.341417 -166.24173 
L 388.509408 -146.723782 
L 385.677399 -139.08239 
L 382.84539 -131.312021 
L 380.01338 -126.097403 
L 377.181371 -143.182552 
L 374.349362 -147.435449 
L 371.517353 -152.893154 
L 368.685344 -141.803322 
L 365.853335 -141.074543 
L 363.021325 -163.385254 
L 360.189316 -141.215925 
L 357.357307 -153.146161 
L 354.525298 -160.123491 
L 351.693289 -144.028098 
L 348.86128 -156.376484 
L 346.02927 -172.308186 
L 343.197261 -160.982441 
L 340.365252 -153.565711 
L 337.533243 -149.970874 
L 334.701234 -160.135135 
L 331.869225 -167.807987 
L 329.037215 -152.631766 
L 326.205206 -150.899217 
L 323.373197 -137.525629 
L 320.541188 -157.229388 
L 317.709179 -142.780167 
L 314.87717 -148.053454 
L 312.04516 -157.059696 
L 309.213151 -148.051488 
L 306.381142 -123.609743 
L 303.549133 -121.335164 
L 300.717124 -160.345137 
L 297.885115 -147.242824 
L 295.053105 -136.241841 
L 292.221096 -143.530908 
L 289.389087 -142.230487 
L 286.557078 -136.91152 
L 283.725069 -124.463755 
L 280.89306 -133.949963 
L 278.06105 -143.370704 
L 275.229041 -153.24506 
L 272.397032 -132.426209 
L 269.565023 -142.999594 
L 266.733014 -135.490748 
L 263.901005 -121.336657 
L 261.068995 -119.687382 
L 258.236986 -114.501763 
L 255.404977 -139.964758 
L 252.572968 -127.575992 
L 249.740959 -136.287488 
L 246.90895 -97.04094 
L 244.07694 -124.447116 
L 241.244931 -128.729888 
L 238.412922 -104.003594 
L 235.580913 -135.195936 
L 232.748904 -128.015761 
L 229.916895 -90.364361 
L 227.084885 -113.059396 
L 224.252876 -149.860937 
L 221.420867 -129.806239 
L 218.588858 -158.094476 
L 215.756849 -152.330623 
L 212.92484 -123.613441 
L 210.09283 -139.828277 
L 207.260821 -140.531087 
L 204.428812 -141.76634 
L 201.596803 -130.025248 
L 198.764794 -148.807756 
L 195.932785 -130.510592 
L 193.100775 -144.40637 
L 190.268766 -128.549431 
L 187.436757 -150.496369 
L 184.604748 -143.714685 
L 181.772739 -122.526405 
L 178.94073 -132.344448 
L 176.10872 -121.01911 
L 173.276711 -162.96799 
L 170.444702 -128.882649 
L 167.612693 -142.407405 
L 164.780684 -142.713923 
L 161.948675 -138.093057 
L 159.116665 -146.529548 
L 156.284656 -140.892216 
L 153.452647 -127.285872 
L 150.620638 -141.535721 
L 147.788629 -145.2374 
L 144.95662 -120.389896 
L 142.12461 -128.333698 
L 139.292601 -130.370781 
L 136.460592 -150.222728 
L 133.628583 -137.157203 
L 130.796574 -152.065542 
L 127.964565 -112.178765 
L 125.132555 -146.855474 
L 122.300546 -149.768744 
L 119.468537 -111.018543 
L 116.636528 -124.128601 
L 113.804519 -158.545686 
L 110.97251 -130.912107 
L 108.1405 -146.278609 
L 105.308491 -97.677885 
L 102.476482 -110.290477 
L 99.644473 -98.227653 
L 96.812464 -105.888068 
L 93.980455 -96.079494 
z
" style="stroke: #ffffff; stroke-opacity: 0.5"/>
    </defs>
    <g clip-path="url(#p08ade45d0b)">
     <use xlink:href="#m085b0d6efa" x="0" y="345.6" style="fill: #8172b3; fill-opacity: 0.5; stroke: #ffffff; stroke-opacity: 0.5"/>
    </g>
   </g>
   <g id="line2d_13">
    <path d="M 93.980455 200.022905 
L 96.812464 212.034424 
L 99.644473 221.816038 
L 102.476482 204.293424 
L 105.308491 208.368144 
L 108.1405 113.073727 
L 110.97251 113.766317 
L 113.804519 77.084178 
L 116.636528 82.443355 
L 119.468537 72.077726 
L 122.300546 75.486374 
L 125.132555 80.689328 
L 127.964565 68.25583 
L 130.796574 87.154819 
L 133.628583 65.112159 
L 136.460592 67.481422 
L 139.292601 67.955979 
L 142.12461 74.653647 
L 144.95662 68.14636 
L 147.788629 68.683361 
L 150.620638 70.765877 
L 153.452647 62.406264 
L 156.284656 65.013077 
L 159.116665 69.193402 
L 161.948675 72.630935 
L 164.780684 62.561783 
L 167.612693 66.356815 
L 170.444702 79.197338 
L 173.276711 66.45686 
L 176.10872 68.722647 
L 178.94073 67.717397 
L 181.772739 68.551759 
L 184.604748 68.125256 
L 187.436757 68.156116 
L 190.268766 69.863931 
L 193.100775 70.871131 
L 195.932785 68.585568 
L 198.764794 65.867502 
L 201.596803 67.592313 
L 204.428812 68.91569 
L 207.260821 68.153915 
L 210.09283 68.108308 
L 212.92484 68.199314 
L 215.756849 67.861604 
L 218.588858 68.796579 
L 221.420867 68.297426 
L 224.252876 69.553736 
L 227.084885 59.403216 
L 229.916895 69.006588 
L 232.748904 69.241006 
L 235.580913 69.284578 
L 238.412922 68.775218 
L 241.244931 66.607604 
L 244.07694 65.816344 
L 246.90895 68.835964 
L 249.740959 69.735661 
L 252.572968 68.077359 
L 255.404977 70.093213 
L 258.236986 68.27112 
L 261.068995 69.927405 
L 263.901005 65.999653 
L 266.733014 69.570718 
L 269.565023 68.434236 
L 272.397032 70.311927 
L 275.229041 70.756885 
L 278.06105 69.726636 
L 280.89306 69.882835 
L 283.725069 69.255411 
L 286.557078 69.147053 
L 289.389087 69.766583 
L 292.221096 70.169531 
L 295.053105 68.061407 
L 297.885115 69.35323 
L 300.717124 66.818044 
L 303.549133 68.38273 
L 306.381142 66.296287 
L 309.213151 70.066468 
L 312.04516 68.50642 
L 314.87717 68.641779 
L 317.709179 68.226884 
L 320.541188 68.932788 
L 323.373197 69.365043 
L 326.205206 67.686782 
L 329.037215 69.955389 
L 331.869225 68.423591 
L 334.701234 68.91471 
L 337.533243 69.266107 
L 340.365252 69.530196 
L 343.197261 68.048518 
L 346.02927 69.532937 
L 348.86128 70.241495 
L 351.693289 68.323679 
L 354.525298 70.854436 
L 357.357307 69.57427 
L 360.189316 67.163024 
L 363.021325 69.139188 
L 365.853335 69.398131 
L 368.685344 69.337364 
L 371.517353 70.263803 
L 374.349362 67.850604 
L 377.181371 68.640929 
L 380.01338 67.232823 
L 382.84539 68.959713 
L 385.677399 71.153673 
L 388.509408 67.050883 
L 391.341417 69.25857 
L 394.173426 69.224695 
L 397.005435 70.323542 
L 399.837445 68.409535 
L 402.669454 70.125739 
L 405.501463 69.364756 
L 408.333472 68.637799 
L 411.165481 69.331117 
L 413.99749 69.821913 
L 416.8295 70.490196 
L 419.661509 69.615671 
L 422.493518 68.978801 
L 425.325527 68.099183 
L 428.157536 68.668573 
L 430.989545 69.148893 
" clip-path="url(#p08ade45d0b)" style="fill: none; stroke: #4c72b0; stroke-width: 3; stroke-linecap: round"/>
   </g>
   <g id="line2d_14">
    <path d="M 93.980455 206.57443 
L 96.812464 194.518305 
L 99.644473 216.699913 
L 102.476482 202.291229 
L 105.308491 200.129218 
L 108.1405 173.225241 
L 110.97251 163.778141 
L 113.804519 164.457781 
L 116.636528 142.989491 
L 119.468537 142.229772 
L 122.300546 130.995744 
L 125.132555 148.807156 
L 127.964565 96.728726 
L 130.796574 121.422316 
L 133.628583 92.660927 
L 136.460592 104.35532 
L 139.292601 110.610844 
L 142.12461 102.865368 
L 144.95662 108.773462 
L 147.788629 89.188954 
L 150.620638 94.680836 
L 153.452647 87.72264 
L 156.284656 93.514371 
L 159.116665 87.399625 
L 161.948675 80.393215 
L 164.780684 79.490117 
L 167.612693 95.352042 
L 170.444702 70.55378 
L 173.276711 71.09194 
L 176.10872 84.070146 
L 178.94073 70.423516 
L 181.772739 77.816525 
L 184.604748 69.432245 
L 187.436757 69.791256 
L 190.268766 71.183795 
L 193.100775 72.32681 
L 195.932785 70.740377 
L 198.764794 69.612777 
L 201.596803 72.532335 
L 204.428812 72.211071 
L 207.260821 71.814435 
L 210.09283 69.525868 
L 212.92484 68.74983 
L 215.756849 72.202184 
L 218.588858 71.509626 
L 221.420867 70.305086 
L 224.252876 70.910826 
L 227.084885 71.524524 
L 229.916895 68.718715 
L 232.748904 68.821684 
L 235.580913 68.574656 
L 238.412922 70.128039 
L 241.244931 70.672452 
L 244.07694 70.109078 
L 246.90895 70.215003 
L 249.740959 70.190559 
L 252.572968 69.69586 
L 255.404977 71.798367 
L 258.236986 70.67957 
L 261.068995 70.358124 
L 263.901005 68.458643 
L 266.733014 70.960635 
L 269.565023 71.119481 
L 272.397032 69.791439 
L 275.229041 68.753425 
L 278.06105 69.533648 
L 280.89306 69.833062 
L 283.725069 70.960481 
L 286.557078 68.355233 
L 289.389087 69.498077 
L 292.221096 70.64544 
L 295.053105 69.76621 
L 297.885115 69.97191 
L 300.717124 68.831762 
L 303.549133 69.328048 
L 306.381142 70.92347 
L 309.213151 71.693812 
L 312.04516 70.272995 
L 314.87717 71.259088 
L 317.709179 71.835227 
L 320.541188 71.465775 
L 323.373197 71.060987 
L 326.205206 71.413601 
L 329.037215 71.553753 
L 331.869225 69.035482 
L 334.701234 71.108855 
L 337.533243 70.396435 
L 340.365252 68.97681 
L 343.197261 71.537395 
L 346.02927 70.97554 
L 348.86128 71.837201 
L 351.693289 72.044806 
L 354.525298 68.836795 
L 357.357307 70.700107 
L 360.189316 71.408353 
L 363.021325 70.904283 
L 365.853335 71.080899 
L 368.685344 71.756083 
L 371.517353 72.874998 
L 374.349362 69.928674 
L 377.181371 69.5323 
L 380.01338 71.681164 
L 382.84539 70.392332 
L 385.677399 71.616782 
L 388.509408 71.517383 
L 391.341417 70.891574 
L 394.173426 71.137425 
L 397.005435 70.296621 
L 399.837445 71.629561 
L 402.669454 70.35814 
L 405.501463 71.780104 
L 408.333472 72.050286 
L 411.165481 71.968491 
L 413.99749 71.389525 
L 416.8295 70.41351 
L 419.661509 71.804966 
L 422.493518 70.690933 
L 425.325527 70.792883 
L 428.157536 71.374302 
L 430.989545 70.190161 
" clip-path="url(#p08ade45d0b)" style="fill: none; stroke: #dd8452; stroke-width: 3; stroke-linecap: round"/>
   </g>
   <g id="line2d_15">
    <path d="M 93.980455 206.255422 
L 96.812464 200.057169 
L 99.644473 230.540777 
L 102.476482 200.45978 
L 105.308491 189.134219 
L 108.1405 185.04538 
L 110.97251 193.183007 
L 113.804519 166.780596 
L 116.636528 158.033099 
L 119.468537 155.40073 
L 122.300546 167.690187 
L 125.132555 149.06697 
L 127.964565 143.342653 
L 130.796574 134.688469 
L 133.628583 127.805321 
L 136.460592 132.821458 
L 139.292601 123.713089 
L 142.12461 150.727668 
L 144.95662 116.33328 
L 147.788629 109.320745 
L 150.620638 104.022041 
L 153.452647 102.408123 
L 156.284656 131.500899 
L 159.116665 116.974484 
L 161.948675 110.669194 
L 164.780684 116.838086 
L 167.612693 104.219483 
L 170.444702 108.313004 
L 173.276711 100.277194 
L 176.10872 93.779365 
L 178.94073 102.322212 
L 181.772739 91.857789 
L 184.604748 78.242027 
L 187.436757 103.363526 
L 190.268766 75.355181 
L 193.100775 73.105704 
L 195.932785 81.97599 
L 198.764794 81.264763 
L 201.596803 77.732528 
L 204.428812 77.79891 
L 207.260821 76.720672 
L 210.09283 74.971841 
L 212.92484 74.555223 
L 215.756849 74.429805 
L 218.588858 80.785923 
L 221.420867 72.280994 
L 224.252876 69.847193 
L 227.084885 77.76184 
L 229.916895 74.649891 
L 232.748904 77.864571 
L 235.580913 79.061324 
L 238.412922 74.798769 
L 241.244931 71.776437 
L 244.07694 74.214416 
L 246.90895 72.919593 
L 249.740959 71.900089 
L 252.572968 74.83494 
L 255.404977 73.168736 
L 258.236986 71.884725 
L 261.068995 75.375343 
L 263.901005 74.078082 
L 266.733014 72.249273 
L 269.565023 72.448534 
L 272.397032 73.314809 
L 275.229041 72.052571 
L 278.06105 73.811092 
L 280.89306 71.747449 
L 283.725069 73.360901 
L 286.557078 73.468697 
L 289.389087 73.993836 
L 292.221096 73.210075 
L 295.053105 72.967138 
L 297.885115 73.602263 
L 300.717124 74.445808 
L 303.549133 72.821104 
L 306.381142 72.709082 
L 309.213151 71.845962 
L 312.04516 71.329311 
L 314.87717 72.100234 
L 317.709179 72.634418 
L 320.541188 72.050626 
L 323.373197 73.697944 
L 326.205206 73.200982 
L 329.037215 74.124916 
L 331.869225 70.807586 
L 334.701234 72.864193 
L 337.533243 72.858767 
L 340.365252 72.800332 
L 343.197261 73.539039 
L 346.02927 73.304503 
L 348.86128 74.034617 
L 351.693289 73.462924 
L 354.525298 73.746517 
L 357.357307 73.364749 
L 360.189316 71.637346 
L 363.021325 74.397489 
L 365.853335 75.700372 
L 368.685344 74.533737 
L 371.517353 74.332103 
L 374.349362 72.488313 
L 377.181371 73.256228 
L 380.01338 74.021335 
L 382.84539 72.786598 
L 385.677399 73.253603 
L 388.509408 75.429022 
L 391.341417 74.012278 
L 394.173426 73.327077 
L 397.005435 73.481093 
L 399.837445 73.762951 
L 402.669454 72.910806 
L 405.501463 74.671899 
L 408.333472 75.295163 
L 411.165481 74.767691 
L 413.99749 74.010311 
L 416.8295 73.188648 
L 419.661509 74.705857 
L 422.493518 74.381114 
L 425.325527 73.786637 
L 428.157536 72.413906 
L 430.989545 74.01927 
" clip-path="url(#p08ade45d0b)" style="fill: none; stroke: #55a868; stroke-width: 3; stroke-linecap: round"/>
   </g>
   <g id="line2d_16">
    <path d="M 93.980455 237.820348 
L 96.812464 197.407517 
L 99.644473 203.042251 
L 102.476482 212.880096 
L 105.308491 199.975108 
L 108.1405 185.613098 
L 110.97251 187.284148 
L 113.804519 177.222456 
L 116.636528 180.575366 
L 119.468537 170.783812 
L 122.300546 174.459073 
L 125.132555 163.266841 
L 127.964565 154.225645 
L 130.796574 161.803667 
L 133.628583 163.82079 
L 136.460592 165.902616 
L 139.292601 163.067858 
L 142.12461 157.025688 
L 144.95662 157.063601 
L 147.788629 157.423422 
L 150.620638 134.069354 
L 153.452647 138.515728 
L 156.284656 146.080152 
L 159.116665 153.5902 
L 161.948675 145.320848 
L 164.780684 137.843694 
L 167.612693 147.307358 
L 170.444702 136.535104 
L 173.276711 129.633557 
L 176.10872 129.487655 
L 178.94073 128.396015 
L 181.772739 134.546705 
L 184.604748 131.552297 
L 187.436757 122.250636 
L 190.268766 137.332994 
L 193.100775 105.206783 
L 195.932785 107.381467 
L 198.764794 106.863697 
L 201.596803 121.144861 
L 204.428812 107.344015 
L 207.260821 123.09195 
L 210.09283 114.987989 
L 212.92484 117.536529 
L 215.756849 92.883369 
L 218.588858 106.938951 
L 221.420867 120.402903 
L 224.252876 108.574779 
L 227.084885 113.833628 
L 229.916895 106.181299 
L 232.748904 110.02008 
L 235.580913 115.261975 
L 238.412922 103.274445 
L 241.244931 106.722809 
L 244.07694 95.857236 
L 246.90895 87.739814 
L 249.740959 100.697619 
L 252.572968 92.828832 
L 255.404977 80.167981 
L 258.236986 92.695731 
L 261.068995 92.110891 
L 263.901005 89.662669 
L 266.733014 84.60846 
L 269.565023 83.085345 
L 272.397032 84.596223 
L 275.229041 100.449136 
L 278.06105 81.780809 
L 280.89306 83.302137 
L 283.725069 79.971372 
L 286.557078 94.610658 
L 289.389087 84.610004 
L 292.221096 83.668125 
L 295.053105 81.700636 
L 297.885115 81.052752 
L 300.717124 83.770483 
L 303.549133 76.491338 
L 306.381142 81.637969 
L 309.213151 81.859889 
L 312.04516 78.546742 
L 314.87717 77.305161 
L 317.709179 81.34545 
L 320.541188 79.65219 
L 323.373197 76.918563 
L 326.205206 83.698875 
L 329.037215 83.336841 
L 331.869225 77.635903 
L 334.701234 77.407404 
L 337.533243 87.516161 
L 340.365252 79.248661 
L 343.197261 77.279005 
L 346.02927 76.620049 
L 348.86128 78.833292 
L 351.693289 77.98028 
L 354.525298 76.470162 
L 357.357307 78.237693 
L 360.189316 79.968234 
L 363.021325 78.20506 
L 365.853335 77.658881 
L 368.685344 78.403906 
L 371.517353 77.564873 
L 374.349362 77.772112 
L 377.181371 78.39211 
L 380.01338 77.811738 
L 382.84539 79.755509 
L 385.677399 77.207924 
L 388.509408 78.667778 
L 391.341417 80.810955 
L 394.173426 78.614722 
L 397.005435 79.848174 
L 399.837445 79.606058 
L 402.669454 79.165275 
L 405.501463 78.415843 
L 408.333472 80.408732 
L 411.165481 79.144221 
L 413.99749 79.744902 
L 416.8295 77.532888 
L 419.661509 78.481201 
L 422.493518 79.099132 
L 425.325527 77.66445 
L 428.157536 77.403144 
L 430.989545 78.820199 
" clip-path="url(#p08ade45d0b)" style="fill: none; stroke: #c44e52; stroke-width: 3; stroke-linecap: round"/>
   </g>
   <g id="line2d_17">
    <path d="M 93.980455 207.58341 
L 96.812464 199.643168 
L 99.644473 217.636046 
L 102.476482 202.21363 
L 105.308491 216.024275 
L 108.1405 187.689644 
L 110.97251 191.972287 
L 113.804519 178.22597 
L 116.636528 199.644108 
L 119.468537 211.764398 
L 122.300546 182.107521 
L 125.132555 169.775409 
L 127.964565 205.581715 
L 130.796574 175.062793 
L 133.628583 176.680867 
L 136.460592 162.426489 
L 139.292601 199.614462 
L 142.12461 205.36755 
L 144.95662 208.995194 
L 147.788629 171.066118 
L 150.620638 180.810669 
L 153.452647 185.986953 
L 156.284656 176.416803 
L 159.116665 174.444712 
L 161.948675 187.993766 
L 164.780684 177.756627 
L 167.612693 182.151903 
L 170.444702 195.271908 
L 173.276711 174.888729 
L 176.10872 188.79682 
L 178.94073 189.274636 
L 181.772739 198.773825 
L 184.604748 182.730775 
L 187.436757 177.055504 
L 190.268766 198.156714 
L 193.100775 182.006231 
L 195.932785 178.218116 
L 198.764794 178.547859 
L 201.596803 193.21976 
L 204.428812 181.343949 
L 207.260821 192.020864 
L 210.09283 186.950172 
L 212.92484 194.091662 
L 215.756849 182.159278 
L 218.588858 171.74256 
L 221.420867 183.568281 
L 224.252876 184.897269 
L 227.084885 189.887434 
L 229.916895 200.930557 
L 232.748904 188.590305 
L 235.580913 176.959438 
L 238.412922 197.124293 
L 241.244931 183.216925 
L 244.07694 203.496132 
L 246.90895 216.615888 
L 249.740959 198.567557 
L 252.572968 193.377685 
L 255.404977 200.181146 
L 258.236986 202.762489 
L 261.068995 192.315418 
L 263.901005 197.219074 
L 266.733014 186.959436 
L 269.565023 188.098996 
L 272.397032 192.987087 
L 275.229041 183.242809 
L 278.06105 178.549647 
L 280.89306 187.695768 
L 283.725069 193.640796 
L 286.557078 186.294955 
L 289.389087 181.270319 
L 292.221096 178.107663 
L 295.053105 186.874887 
L 297.885115 181.3262 
L 300.717124 172.236531 
L 303.549133 192.745194 
L 306.381142 184.360892 
L 309.213151 176.87732 
L 312.04516 178.120036 
L 314.87717 171.924926 
L 317.709179 179.35664 
L 320.541188 177.625129 
L 323.373197 184.488531 
L 326.205206 181.921623 
L 329.037215 179.947355 
L 331.869225 166.800015 
L 334.701234 173.224201 
L 337.533243 169.199125 
L 340.365252 180.128453 
L 343.197261 173.553067 
L 346.02927 162.81929 
L 348.86128 175.980802 
L 351.693289 180.57276 
L 354.525298 180.464855 
L 357.357307 179.056541 
L 360.189316 198.258988 
L 363.021325 164.663356 
L 365.853335 178.998342 
L 368.685344 181.390021 
L 371.517353 177.076807 
L 374.349362 176.862037 
L 377.181371 171.722966 
L 380.01338 184.838473 
L 382.84539 184.713214 
L 385.677399 182.282437 
L 388.509408 179.594174 
L 391.341417 171.865262 
L 394.173426 184.161153 
L 397.005435 184.734866 
L 399.837445 177.025277 
L 402.669454 187.318012 
L 405.501463 160.169822 
L 408.333472 187.464761 
L 411.165481 182.840364 
L 413.99749 183.32455 
L 416.8295 193.70926 
L 419.661509 172.394357 
L 422.493518 178.474243 
L 425.325527 184.078018 
L 428.157536 185.877284 
L 430.989545 179.03147 
" clip-path="url(#p08ade45d0b)" style="fill: none; stroke: #8172b3; stroke-width: 3; stroke-linecap: round"/>
   </g>
   <g id="patch_3">
    <path d="M 77.13 294.66 
L 77.13 29.76 
" style="fill: none; stroke: #ffffff; stroke-width: 1.25; stroke-linejoin: miter; stroke-linecap: square"/>
   </g>
   <g id="patch_4">
    <path d="M 447.84 294.66 
L 447.84 29.76 
" style="fill: none; stroke: #ffffff; stroke-width: 1.25; stroke-linejoin: miter; stroke-linecap: square"/>
   </g>
   <g id="patch_5">
    <path d="M 77.13 294.66 
L 447.84 294.66 
" style="fill: none; stroke: #ffffff; stroke-width: 1.25; stroke-linejoin: miter; stroke-linecap: square"/>
   </g>
   <g id="patch_6">
    <path d="M 77.13 29.76 
L 447.84 29.76 
" style="fill: none; stroke: #ffffff; stroke-width: 1.25; stroke-linejoin: miter; stroke-linecap: square"/>
   </g>
   <g id="text_15">
    <!-- zinc-coating-v0 -->
    <g style="fill: #262626" transform="translate(209.126406 23.76)scale(0.14 -0.14)">
     <defs>
      <path id="DejaVuSans-7a" d="M 353 3500 
L 3084 3500 
L 3084 2975 
L 922 459 
L 3084 459 
L 3084 0 
L 275 0 
L 275 525 
L 2438 3041 
L 353 3041 
L 353 3500 
z
" transform="scale(0.015625)"/>
      <path id="DejaVuSans-2d" d="M 313 2009 
L 1997 2009 
L 1997 1497 
L 313 1497 
L 313 2009 
z
" transform="scale(0.015625)"/>
      <path id="DejaVuSans-61" d="M 2194 1759 
Q 1497 1759 1228 1600 
Q 959 1441 959 1056 
Q 959 750 1161 570 
Q 1363 391 1709 391 
Q 2188 391 2477 730 
Q 2766 1069 2766 1631 
L 2766 1759 
L 2194 1759 
z
M 3341 1997 
L 3341 0 
L 2766 0 
L 2766 531 
Q 2569 213 2275 61 
Q 1981 -91 1556 -91 
Q 1019 -91 701 211 
Q 384 513 384 1019 
Q 384 1609 779 1909 
Q 1175 2209 1959 2209 
L 2766 2209 
L 2766 2266 
Q 2766 2663 2505 2880 
Q 2244 3097 1772 3097 
Q 1472 3097 1187 3025 
Q 903 2953 641 2809 
L 641 3341 
Q 956 3463 1253 3523 
Q 1550 3584 1831 3584 
Q 2591 3584 2966 3190 
Q 3341 2797 3341 1997 
z
" transform="scale(0.015625)"/>
      <path id="DejaVuSans-67" d="M 2906 1791 
Q 2906 2416 2648 2759 
Q 2391 3103 1925 3103 
Q 1463 3103 1205 2759 
Q 947 2416 947 1791 
Q 947 1169 1205 825 
Q 1463 481 1925 481 
Q 2391 481 2648 825 
Q 2906 1169 2906 1791 
z
M 3481 434 
Q 3481 -459 3084 -895 
Q 2688 -1331 1869 -1331 
Q 1566 -1331 1297 -1286 
Q 1028 -1241 775 -1147 
L 775 -588 
Q 1028 -725 1275 -790 
Q 1522 -856 1778 -856 
Q 2344 -856 2625 -561 
Q 2906 -266 2906 331 
L 2906 616 
Q 2728 306 2450 153 
Q 2172 0 1784 0 
Q 1141 0 747 490 
Q 353 981 353 1791 
Q 353 2603 747 3093 
Q 1141 3584 1784 3584 
Q 2172 3584 2450 3431 
Q 2728 3278 2906 2969 
L 2906 3500 
L 3481 3500 
L 3481 434 
z
" transform="scale(0.015625)"/>
      <path id="DejaVuSans-76" d="M 191 3500 
L 800 3500 
L 1894 563 
L 2988 3500 
L 3597 3500 
L 2284 0 
L 1503 0 
L 191 3500 
z
" transform="scale(0.015625)"/>
     </defs>
     <use xlink:href="#DejaVuSans-7a"/>
     <use xlink:href="#DejaVuSans-69" x="52.490234"/>
     <use xlink:href="#DejaVuSans-6e" x="80.273438"/>
     <use xlink:href="#DejaVuSans-63" x="143.652344"/>
     <use xlink:href="#DejaVuSans-2d" x="198.632812"/>
     <use xlink:href="#DejaVuSans-63" x="234.716797"/>
     <use xlink:href="#DejaVuSans-6f" x="289.697266"/>
     <use xlink:href="#DejaVuSans-61" x="350.878906"/>
     <use xlink:href="#DejaVuSans-74" x="412.158203"/>
     <use xlink:href="#DejaVuSans-69" x="451.367188"/>
     <use xlink:href="#DejaVuSans-6e" x="479.150391"/>
     <use xlink:href="#DejaVuSans-67" x="542.529297"/>
     <use xlink:href="#DejaVuSans-2d" x="606.005859"/>
     <use xlink:href="#DejaVuSans-76" x="639.464844"/>
     <use xlink:href="#DejaVuSans-30" x="698.644531"/>
    </g>
   </g>
   <g id="legend_1">
    <g id="patch_7">
     <path d="M 280.786094 289.16 
L 440.14 289.16 
Q 442.34 289.16 442.34 286.96 
L 442.34 207.330312 
Q 442.34 205.130312 440.14 205.130312 
L 280.786094 205.130312 
Q 278.586094 205.130312 278.586094 207.330312 
L 278.586094 286.96 
Q 278.586094 289.16 280.786094 289.16 
z
" style="fill: #eaeaf2; opacity: 0.8; stroke: #cccccc; stroke-linejoin: miter"/>
    </g>
    <g id="line2d_18">
     <path d="M 282.986094 214.038594 
L 293.986094 214.038594 
L 304.986094 214.038594 
" style="fill: none; stroke: #4c72b0; stroke-width: 3; stroke-linecap: round"/>
    </g>
    <g id="text_16">
     <!-- DCAC-DELAY-1-logs/ -->
     <g style="fill: #262626" transform="translate(313.786094 217.888594)scale(0.11 -0.11)">
      <defs>
       <path id="DejaVuSans-44" d="M 1259 4147 
L 1259 519 
L 2022 519 
Q 2988 519 3436 956 
Q 3884 1394 3884 2338 
Q 3884 3275 3436 3711 
Q 2988 4147 2022 4147 
L 1259 4147 
z
M 628 4666 
L 1925 4666 
Q 3281 4666 3915 4102 
Q 4550 3538 4550 2338 
Q 4550 1131 3912 565 
Q 3275 0 1925 0 
L 628 0 
L 628 4666 
z
" transform="scale(0.015625)"/>
       <path id="DejaVuSans-43" d="M 4122 4306 
L 4122 3641 
Q 3803 3938 3442 4084 
Q 3081 4231 2675 4231 
Q 1875 4231 1450 3742 
Q 1025 3253 1025 2328 
Q 1025 1406 1450 917 
Q 1875 428 2675 428 
Q 3081 428 3442 575 
Q 3803 722 4122 1019 
L 4122 359 
Q 3791 134 3420 21 
Q 3050 -91 2638 -91 
Q 1578 -91 968 557 
Q 359 1206 359 2328 
Q 359 3453 968 4101 
Q 1578 4750 2638 4750 
Q 3056 4750 3426 4639 
Q 3797 4528 4122 4306 
z
" transform="scale(0.015625)"/>
       <path id="DejaVuSans-41" d="M 2188 4044 
L 1331 1722 
L 3047 1722 
L 2188 4044 
z
M 1831 4666 
L 2547 4666 
L 4325 0 
L 3669 0 
L 3244 1197 
L 1141 1197 
L 716 0 
L 50 0 
L 1831 4666 
z
" transform="scale(0.015625)"/>
       <path id="DejaVuSans-45" d="M 628 4666 
L 3578 4666 
L 3578 4134 
L 1259 4134 
L 1259 2753 
L 3481 2753 
L 3481 2222 
L 1259 2222 
L 1259 531 
L 3634 531 
L 3634 0 
L 628 0 
L 628 4666 
z
" transform="scale(0.015625)"/>
       <path id="DejaVuSans-4c" d="M 628 4666 
L 1259 4666 
L 1259 531 
L 3531 531 
L 3531 0 
L 628 0 
L 628 4666 
z
" transform="scale(0.015625)"/>
       <path id="DejaVuSans-59" d="M -13 4666 
L 666 4666 
L 1959 2747 
L 3244 4666 
L 3922 4666 
L 2272 2222 
L 2272 0 
L 1638 0 
L 1638 2222 
L -13 4666 
z
" transform="scale(0.015625)"/>
       <path id="DejaVuSans-2f" d="M 1625 4666 
L 2156 4666 
L 531 -594 
L 0 -594 
L 1625 4666 
z
" transform="scale(0.015625)"/>
      </defs>
      <use xlink:href="#DejaVuSans-44"/>
      <use xlink:href="#DejaVuSans-43" x="77.001953"/>
      <use xlink:href="#DejaVuSans-41" x="146.826172"/>
      <use xlink:href="#DejaVuSans-43" x="213.484375"/>
      <use xlink:href="#DejaVuSans-2d" x="283.308594"/>
      <use xlink:href="#DejaVuSans-44" x="319.392578"/>
      <use xlink:href="#DejaVuSans-45" x="396.394531"/>
      <use xlink:href="#DejaVuSans-4c" x="459.578125"/>
      <use xlink:href="#DejaVuSans-41" x="517.541016"/>
      <use xlink:href="#DejaVuSans-59" x="578.199219"/>
      <use xlink:href="#DejaVuSans-2d" x="627.408203"/>
      <use xlink:href="#DejaVuSans-31" x="663.492188"/>
      <use xlink:href="#DejaVuSans-2d" x="727.115234"/>
      <use xlink:href="#DejaVuSans-6c" x="763.199219"/>
      <use xlink:href="#DejaVuSans-6f" x="790.982422"/>
      <use xlink:href="#DejaVuSans-67" x="852.164062"/>
      <use xlink:href="#DejaVuSans-73" x="915.640625"/>
      <use xlink:href="#DejaVuSans-2f" x="967.740234"/>
     </g>
    </g>
    <g id="line2d_19">
     <path d="M 282.986094 230.184531 
L 293.986094 230.184531 
L 304.986094 230.184531 
" style="fill: none; stroke: #dd8452; stroke-width: 3; stroke-linecap: round"/>
    </g>
    <g id="text_17">
     <!-- DCAC-DELAY-5-logs/ -->
     <g style="fill: #262626" transform="translate(313.786094 234.034531)scale(0.11 -0.11)">
      <use xlink:href="#DejaVuSans-44"/>
      <use xlink:href="#DejaVuSans-43" x="77.001953"/>
      <use xlink:href="#DejaVuSans-41" x="146.826172"/>
      <use xlink:href="#DejaVuSans-43" x="213.484375"/>
      <use xlink:href="#DejaVuSans-2d" x="283.308594"/>
      <use xlink:href="#DejaVuSans-44" x="319.392578"/>
      <use xlink:href="#DejaVuSans-45" x="396.394531"/>
      <use xlink:href="#DejaVuSans-4c" x="459.578125"/>
      <use xlink:href="#DejaVuSans-41" x="517.541016"/>
      <use xlink:href="#DejaVuSans-59" x="578.199219"/>
      <use xlink:href="#DejaVuSans-2d" x="627.408203"/>
      <use xlink:href="#DejaVuSans-35" x="663.492188"/>
      <use xlink:href="#DejaVuSans-2d" x="727.115234"/>
      <use xlink:href="#DejaVuSans-6c" x="763.199219"/>
      <use xlink:href="#DejaVuSans-6f" x="790.982422"/>
      <use xlink:href="#DejaVuSans-67" x="852.164062"/>
      <use xlink:href="#DejaVuSans-73" x="915.640625"/>
      <use xlink:href="#DejaVuSans-2f" x="967.740234"/>
     </g>
    </g>
    <g id="line2d_20">
     <path d="M 282.986094 246.330469 
L 293.986094 246.330469 
L 304.986094 246.330469 
" style="fill: none; stroke: #55a868; stroke-width: 3; stroke-linecap: round"/>
    </g>
    <g id="text_18">
     <!-- DCAC-DELAY-10-logs/ -->
     <g style="fill: #262626" transform="translate(313.786094 250.180469)scale(0.11 -0.11)">
      <use xlink:href="#DejaVuSans-44"/>
      <use xlink:href="#DejaVuSans-43" x="77.001953"/>
      <use xlink:href="#DejaVuSans-41" x="146.826172"/>
      <use xlink:href="#DejaVuSans-43" x="213.484375"/>
      <use xlink:href="#DejaVuSans-2d" x="283.308594"/>
      <use xlink:href="#DejaVuSans-44" x="319.392578"/>
      <use xlink:href="#DejaVuSans-45" x="396.394531"/>
      <use xlink:href="#DejaVuSans-4c" x="459.578125"/>
      <use xlink:href="#DejaVuSans-41" x="517.541016"/>
      <use xlink:href="#DejaVuSans-59" x="578.199219"/>
      <use xlink:href="#DejaVuSans-2d" x="627.408203"/>
      <use xlink:href="#DejaVuSans-31" x="663.492188"/>
      <use xlink:href="#DejaVuSans-30" x="727.115234"/>
      <use xlink:href="#DejaVuSans-2d" x="790.738281"/>
      <use xlink:href="#DejaVuSans-6c" x="826.822266"/>
      <use xlink:href="#DejaVuSans-6f" x="854.605469"/>
      <use xlink:href="#DejaVuSans-67" x="915.787109"/>
      <use xlink:href="#DejaVuSans-73" x="979.263672"/>
      <use xlink:href="#DejaVuSans-2f" x="1031.363281"/>
     </g>
    </g>
    <g id="line2d_21">
     <path d="M 282.986094 262.476406 
L 293.986094 262.476406 
L 304.986094 262.476406 
" style="fill: none; stroke: #c44e52; stroke-width: 3; stroke-linecap: round"/>
    </g>
    <g id="text_19">
     <!-- DCAC-DELAY-20-logs/ -->
     <g style="fill: #262626" transform="translate(313.786094 266.326406)scale(0.11 -0.11)">
      <use xlink:href="#DejaVuSans-44"/>
      <use xlink:href="#DejaVuSans-43" x="77.001953"/>
      <use xlink:href="#DejaVuSans-41" x="146.826172"/>
      <use xlink:href="#DejaVuSans-43" x="213.484375"/>
      <use xlink:href="#DejaVuSans-2d" x="283.308594"/>
      <use xlink:href="#DejaVuSans-44" x="319.392578"/>
      <use xlink:href="#DejaVuSans-45" x="396.394531"/>
      <use xlink:href="#DejaVuSans-4c" x="459.578125"/>
      <use xlink:href="#DejaVuSans-41" x="517.541016"/>
      <use xlink:href="#DejaVuSans-59" x="578.199219"/>
      <use xlink:href="#DejaVuSans-2d" x="627.408203"/>
      <use xlink:href="#DejaVuSans-32" x="663.492188"/>
      <use xlink:href="#DejaVuSans-30" x="727.115234"/>
      <use xlink:href="#DejaVuSans-2d" x="790.738281"/>
      <use xlink:href="#DejaVuSans-6c" x="826.822266"/>
      <use xlink:href="#DejaVuSans-6f" x="854.605469"/>
      <use xlink:href="#DejaVuSans-67" x="915.787109"/>
      <use xlink:href="#DejaVuSans-73" x="979.263672"/>
      <use xlink:href="#DejaVuSans-2f" x="1031.363281"/>
     </g>
    </g>
    <g id="line2d_22">
     <path d="M 282.986094 278.622344 
L 293.986094 278.622344 
L 304.986094 278.622344 
" style="fill: none; stroke: #8172b3; stroke-width: 3; stroke-linecap: round"/>
    </g>
    <g id="text_20">
     <!-- DCAC-DELAY-100-logs/ -->
     <g style="fill: #262626" transform="translate(313.786094 282.472344)scale(0.11 -0.11)">
      <use xlink:href="#DejaVuSans-44"/>
      <use xlink:href="#DejaVuSans-43" x="77.001953"/>
      <use xlink:href="#DejaVuSans-41" x="146.826172"/>
      <use xlink:href="#DejaVuSans-43" x="213.484375"/>
      <use xlink:href="#DejaVuSans-2d" x="283.308594"/>
      <use xlink:href="#DejaVuSans-44" x="319.392578"/>
      <use xlink:href="#DejaVuSans-45" x="396.394531"/>
      <use xlink:href="#DejaVuSans-4c" x="459.578125"/>
      <use xlink:href="#DejaVuSans-41" x="517.541016"/>
      <use xlink:href="#DejaVuSans-59" x="578.199219"/>
      <use xlink:href="#DejaVuSans-2d" x="627.408203"/>
      <use xlink:href="#DejaVuSans-31" x="663.492188"/>
      <use xlink:href="#DejaVuSans-30" x="727.115234"/>
      <use xlink:href="#DejaVuSans-30" x="790.738281"/>
      <use xlink:href="#DejaVuSans-2d" x="854.361328"/>
      <use xlink:href="#DejaVuSans-6c" x="890.445312"/>
      <use xlink:href="#DejaVuSans-6f" x="918.228516"/>
      <use xlink:href="#DejaVuSans-67" x="979.410156"/>
      <use xlink:href="#DejaVuSans-73" x="1042.886719"/>
      <use xlink:href="#DejaVuSans-2f" x="1094.986328"/>
     </g>
    </g>
   </g>
  </g>
 </g>
 <defs>
  <clipPath id="p08ade45d0b">
   <rect x="77.13" y="29.76" width="370.71" height="264.9"/>
  </clipPath>
 </defs>
</svg>
