<?xml version="1.0" encoding="utf-8" standalone="no"?>
<!DOCTYPE svg PUBLIC "-//W3C//DTD SVG 1.1//EN"
  "http://www.w3.org/Graphics/SVG/1.1/DTD/svg11.dtd">
<svg xmlns:xlink="http://www.w3.org/1999/xlink" width="460.8pt" height="345.6pt" viewBox="0 0 460.8 345.6" xmlns="http://www.w3.org/2000/svg" version="1.1">
 <metadata>
  <rdf:RDF xmlns:dc="http://purl.org/dc/elements/1.1/" xmlns:cc="http://creativecommons.org/ns#" xmlns:rdf="http://www.w3.org/1999/02/22-rdf-syntax-ns#">
   <cc:Work>
    <dc:type rdf:resource="http://purl.org/dc/dcmitype/StillImage"/>
    <dc:date>2022-09-12T15:16:04.976774</dc:date>
    <dc:format>image/svg+xml</dc:format>
    <dc:creator>
     <cc:Agent>
      <dc:title>Matplotlib v3.5.3, https://matplotlib.org/</dc:title>
     </cc:Agent>
    </dc:creator>
   </cc:Work>
  </rdf:RDF>
 </metadata>
 <defs>
  <style type="text/css">*{stroke-linejoin: round; stroke-linecap: butt}</style>
 </defs>
 <g id="figure_1">
  <g id="patch_1">
   <path d="M 0 345.6 
L 460.8 345.6 
L 460.8 0 
L 0 0 
z
" style="fill: #ffffff"/>
  </g>
  <g id="axes_1">
   <g id="patch_2">
    <path d="M 77.13 294.66 
L 447.84 294.66 
L 447.84 12.96 
L 77.13 12.96 
z
" style="fill: #eaeaf2"/>
   </g>
   <g id="matplotlib.axis_1">
    <g id="xtick_1">
     <g id="line2d_1">
      <path d="M 91.148445 294.66 
L 91.148445 12.96 
" clip-path="url(#pc83f0b2b97)" style="fill: none; stroke: #ffffff; stroke-linecap: round"/>
     </g>
     <g id="text_1">
      <!-- 0.00 -->
      <g style="fill: #262626" transform="translate(78.902352 312.518281)scale(0.11 -0.11)">
       <defs>
        <path id="DejaVuSans-30" d="M 2034 4250 
Q 1547 4250 1301 3770 
Q 1056 3291 1056 2328 
Q 1056 1369 1301 889 
Q 1547 409 2034 409 
Q 2525 409 2770 889 
Q 3016 1369 3016 2328 
Q 3016 3291 2770 3770 
Q 2525 4250 2034 4250 
z
M 2034 4750 
Q 2819 4750 3233 4129 
Q 3647 3509 3647 2328 
Q 3647 1150 3233 529 
Q 2819 -91 2034 -91 
Q 1250 -91 836 529 
Q 422 1150 422 2328 
Q 422 3509 836 4129 
Q 1250 4750 2034 4750 
z
" transform="scale(0.015625)"/>
        <path id="DejaVuSans-2e" d="M 684 794 
L 1344 794 
L 1344 0 
L 684 0 
L 684 794 
z
" transform="scale(0.015625)"/>
       </defs>
       <use xlink:href="#DejaVuSans-30"/>
       <use xlink:href="#DejaVuSans-2e" x="63.623047"/>
       <use xlink:href="#DejaVuSans-30" x="95.410156"/>
       <use xlink:href="#DejaVuSans-30" x="159.033203"/>
      </g>
     </g>
    </g>
    <g id="xtick_2">
     <g id="line2d_2">
      <path d="M 147.788629 294.66 
L 147.788629 12.96 
" clip-path="url(#pc83f0b2b97)" style="fill: none; stroke: #ffffff; stroke-linecap: round"/>
     </g>
     <g id="text_2">
      <!-- 0.05 -->
      <g style="fill: #262626" transform="translate(135.542535 312.518281)scale(0.11 -0.11)">
       <defs>
        <path id="DejaVuSans-35" d="M 691 4666 
L 3169 4666 
L 3169 4134 
L 1269 4134 
L 1269 2991 
Q 1406 3038 1543 3061 
Q 1681 3084 1819 3084 
Q 2600 3084 3056 2656 
Q 3513 2228 3513 1497 
Q 3513 744 3044 326 
Q 2575 -91 1722 -91 
Q 1428 -91 1123 -41 
Q 819 9 494 109 
L 494 744 
Q 775 591 1075 516 
Q 1375 441 1709 441 
Q 2250 441 2565 725 
Q 2881 1009 2881 1497 
Q 2881 1984 2565 2268 
Q 2250 2553 1709 2553 
Q 1456 2553 1204 2497 
Q 953 2441 691 2322 
L 691 4666 
z
" transform="scale(0.015625)"/>
       </defs>
       <use xlink:href="#DejaVuSans-30"/>
       <use xlink:href="#DejaVuSans-2e" x="63.623047"/>
       <use xlink:href="#DejaVuSans-30" x="95.410156"/>
       <use xlink:href="#DejaVuSans-35" x="159.033203"/>
      </g>
     </g>
    </g>
    <g id="xtick_3">
     <g id="line2d_3">
      <path d="M 204.428812 294.66 
L 204.428812 12.96 
" clip-path="url(#pc83f0b2b97)" style="fill: none; stroke: #ffffff; stroke-linecap: round"/>
     </g>
     <g id="text_3">
      <!-- 0.10 -->
      <g style="fill: #262626" transform="translate(192.182718 312.518281)scale(0.11 -0.11)">
       <defs>
        <path id="DejaVuSans-31" d="M 794 531 
L 1825 531 
L 1825 4091 
L 703 3866 
L 703 4441 
L 1819 4666 
L 2450 4666 
L 2450 531 
L 3481 531 
L 3481 0 
L 794 0 
L 794 531 
z
" transform="scale(0.015625)"/>
       </defs>
       <use xlink:href="#DejaVuSans-30"/>
       <use xlink:href="#DejaVuSans-2e" x="63.623047"/>
       <use xlink:href="#DejaVuSans-31" x="95.410156"/>
       <use xlink:href="#DejaVuSans-30" x="159.033203"/>
      </g>
     </g>
    </g>
    <g id="xtick_4">
     <g id="line2d_4">
      <path d="M 261.068995 294.66 
L 261.068995 12.96 
" clip-path="url(#pc83f0b2b97)" style="fill: none; stroke: #ffffff; stroke-linecap: round"/>
     </g>
     <g id="text_4">
      <!-- 0.15 -->
      <g style="fill: #262626" transform="translate(248.822902 312.518281)scale(0.11 -0.11)">
       <use xlink:href="#DejaVuSans-30"/>
       <use xlink:href="#DejaVuSans-2e" x="63.623047"/>
       <use xlink:href="#DejaVuSans-31" x="95.410156"/>
       <use xlink:href="#DejaVuSans-35" x="159.033203"/>
      </g>
     </g>
    </g>
    <g id="xtick_5">
     <g id="line2d_5">
      <path d="M 317.709179 294.66 
L 317.709179 12.96 
" clip-path="url(#pc83f0b2b97)" style="fill: none; stroke: #ffffff; stroke-linecap: round"/>
     </g>
     <g id="text_5">
      <!-- 0.20 -->
      <g style="fill: #262626" transform="translate(305.463085 312.518281)scale(0.11 -0.11)">
       <defs>
        <path id="DejaVuSans-32" d="M 1228 531 
L 3431 531 
L 3431 0 
L 469 0 
L 469 531 
Q 828 903 1448 1529 
Q 2069 2156 2228 2338 
Q 2531 2678 2651 2914 
Q 2772 3150 2772 3378 
Q 2772 3750 2511 3984 
Q 2250 4219 1831 4219 
Q 1534 4219 1204 4116 
Q 875 4013 500 3803 
L 500 4441 
Q 881 4594 1212 4672 
Q 1544 4750 1819 4750 
Q 2544 4750 2975 4387 
Q 3406 4025 3406 3419 
Q 3406 3131 3298 2873 
Q 3191 2616 2906 2266 
Q 2828 2175 2409 1742 
Q 1991 1309 1228 531 
z
" transform="scale(0.015625)"/>
       </defs>
       <use xlink:href="#DejaVuSans-30"/>
       <use xlink:href="#DejaVuSans-2e" x="63.623047"/>
       <use xlink:href="#DejaVuSans-32" x="95.410156"/>
       <use xlink:href="#DejaVuSans-30" x="159.033203"/>
      </g>
     </g>
    </g>
    <g id="xtick_6">
     <g id="line2d_6">
      <path d="M 374.349362 294.66 
L 374.349362 12.96 
" clip-path="url(#pc83f0b2b97)" style="fill: none; stroke: #ffffff; stroke-linecap: round"/>
     </g>
     <g id="text_6">
      <!-- 0.25 -->
      <g style="fill: #262626" transform="translate(362.103268 312.518281)scale(0.11 -0.11)">
       <use xlink:href="#DejaVuSans-30"/>
       <use xlink:href="#DejaVuSans-2e" x="63.623047"/>
       <use xlink:href="#DejaVuSans-32" x="95.410156"/>
       <use xlink:href="#DejaVuSans-35" x="159.033203"/>
      </g>
     </g>
    </g>
    <g id="xtick_7">
     <g id="line2d_7">
      <path d="M 430.989545 294.66 
L 430.989545 12.96 
" clip-path="url(#pc83f0b2b97)" style="fill: none; stroke: #ffffff; stroke-linecap: round"/>
     </g>
     <g id="text_7">
      <!-- 0.30 -->
      <g style="fill: #262626" transform="translate(418.743452 312.518281)scale(0.11 -0.11)">
       <defs>
        <path id="DejaVuSans-33" d="M 2597 2516 
Q 3050 2419 3304 2112 
Q 3559 1806 3559 1356 
Q 3559 666 3084 287 
Q 2609 -91 1734 -91 
Q 1441 -91 1130 -33 
Q 819 25 488 141 
L 488 750 
Q 750 597 1062 519 
Q 1375 441 1716 441 
Q 2309 441 2620 675 
Q 2931 909 2931 1356 
Q 2931 1769 2642 2001 
Q 2353 2234 1838 2234 
L 1294 2234 
L 1294 2753 
L 1863 2753 
Q 2328 2753 2575 2939 
Q 2822 3125 2822 3475 
Q 2822 3834 2567 4026 
Q 2313 4219 1838 4219 
Q 1578 4219 1281 4162 
Q 984 4106 628 3988 
L 628 4550 
Q 988 4650 1302 4700 
Q 1616 4750 1894 4750 
Q 2613 4750 3031 4423 
Q 3450 4097 3450 3541 
Q 3450 3153 3228 2886 
Q 3006 2619 2597 2516 
z
" transform="scale(0.015625)"/>
       </defs>
       <use xlink:href="#DejaVuSans-30"/>
       <use xlink:href="#DejaVuSans-2e" x="63.623047"/>
       <use xlink:href="#DejaVuSans-33" x="95.410156"/>
       <use xlink:href="#DejaVuSans-30" x="159.033203"/>
      </g>
     </g>
    </g>
    <g id="text_8">
     <!-- Zeitschritte (in Millionen) -->
     <g style="fill: #262626" transform="translate(174.570469 329.44375)scale(0.14 -0.14)">
      <defs>
       <path id="DejaVuSans-5a" d="M 359 4666 
L 4025 4666 
L 4025 4184 
L 1075 531 
L 4097 531 
L 4097 0 
L 288 0 
L 288 481 
L 3238 4134 
L 359 4134 
L 359 4666 
z
" transform="scale(0.015625)"/>
       <path id="DejaVuSans-65" d="M 3597 1894 
L 3597 1613 
L 953 1613 
Q 991 1019 1311 708 
Q 1631 397 2203 397 
Q 2534 397 2845 478 
Q 3156 559 3463 722 
L 3463 178 
Q 3153 47 2828 -22 
Q 2503 -91 2169 -91 
Q 1331 -91 842 396 
Q 353 884 353 1716 
Q 353 2575 817 3079 
Q 1281 3584 2069 3584 
Q 2775 3584 3186 3129 
Q 3597 2675 3597 1894 
z
M 3022 2063 
Q 3016 2534 2758 2815 
Q 2500 3097 2075 3097 
Q 1594 3097 1305 2825 
Q 1016 2553 972 2059 
L 3022 2063 
z
" transform="scale(0.015625)"/>
       <path id="DejaVuSans-69" d="M 603 3500 
L 1178 3500 
L 1178 0 
L 603 0 
L 603 3500 
z
M 603 4863 
L 1178 4863 
L 1178 4134 
L 603 4134 
L 603 4863 
z
" transform="scale(0.015625)"/>
       <path id="DejaVuSans-74" d="M 1172 4494 
L 1172 3500 
L 2356 3500 
L 2356 3053 
L 1172 3053 
L 1172 1153 
Q 1172 725 1289 603 
Q 1406 481 1766 481 
L 2356 481 
L 2356 0 
L 1766 0 
Q 1100 0 847 248 
Q 594 497 594 1153 
L 594 3053 
L 172 3053 
L 172 3500 
L 594 3500 
L 594 4494 
L 1172 4494 
z
" transform="scale(0.015625)"/>
       <path id="DejaVuSans-73" d="M 2834 3397 
L 2834 2853 
Q 2591 2978 2328 3040 
Q 2066 3103 1784 3103 
Q 1356 3103 1142 2972 
Q 928 2841 928 2578 
Q 928 2378 1081 2264 
Q 1234 2150 1697 2047 
L 1894 2003 
Q 2506 1872 2764 1633 
Q 3022 1394 3022 966 
Q 3022 478 2636 193 
Q 2250 -91 1575 -91 
Q 1294 -91 989 -36 
Q 684 19 347 128 
L 347 722 
Q 666 556 975 473 
Q 1284 391 1588 391 
Q 1994 391 2212 530 
Q 2431 669 2431 922 
Q 2431 1156 2273 1281 
Q 2116 1406 1581 1522 
L 1381 1569 
Q 847 1681 609 1914 
Q 372 2147 372 2553 
Q 372 3047 722 3315 
Q 1072 3584 1716 3584 
Q 2034 3584 2315 3537 
Q 2597 3491 2834 3397 
z
" transform="scale(0.015625)"/>
       <path id="DejaVuSans-63" d="M 3122 3366 
L 3122 2828 
Q 2878 2963 2633 3030 
Q 2388 3097 2138 3097 
Q 1578 3097 1268 2742 
Q 959 2388 959 1747 
Q 959 1106 1268 751 
Q 1578 397 2138 397 
Q 2388 397 2633 464 
Q 2878 531 3122 666 
L 3122 134 
Q 2881 22 2623 -34 
Q 2366 -91 2075 -91 
Q 1284 -91 818 406 
Q 353 903 353 1747 
Q 353 2603 823 3093 
Q 1294 3584 2113 3584 
Q 2378 3584 2631 3529 
Q 2884 3475 3122 3366 
z
" transform="scale(0.015625)"/>
       <path id="DejaVuSans-68" d="M 3513 2113 
L 3513 0 
L 2938 0 
L 2938 2094 
Q 2938 2591 2744 2837 
Q 2550 3084 2163 3084 
Q 1697 3084 1428 2787 
Q 1159 2491 1159 1978 
L 1159 0 
L 581 0 
L 581 4863 
L 1159 4863 
L 1159 2956 
Q 1366 3272 1645 3428 
Q 1925 3584 2291 3584 
Q 2894 3584 3203 3211 
Q 3513 2838 3513 2113 
z
" transform="scale(0.015625)"/>
       <path id="DejaVuSans-72" d="M 2631 2963 
Q 2534 3019 2420 3045 
Q 2306 3072 2169 3072 
Q 1681 3072 1420 2755 
Q 1159 2438 1159 1844 
L 1159 0 
L 581 0 
L 581 3500 
L 1159 3500 
L 1159 2956 
Q 1341 3275 1631 3429 
Q 1922 3584 2338 3584 
Q 2397 3584 2469 3576 
Q 2541 3569 2628 3553 
L 2631 2963 
z
" transform="scale(0.015625)"/>
       <path id="DejaVuSans-20" transform="scale(0.015625)"/>
       <path id="DejaVuSans-28" d="M 1984 4856 
Q 1566 4138 1362 3434 
Q 1159 2731 1159 2009 
Q 1159 1288 1364 580 
Q 1569 -128 1984 -844 
L 1484 -844 
Q 1016 -109 783 600 
Q 550 1309 550 2009 
Q 550 2706 781 3412 
Q 1013 4119 1484 4856 
L 1984 4856 
z
" transform="scale(0.015625)"/>
       <path id="DejaVuSans-6e" d="M 3513 2113 
L 3513 0 
L 2938 0 
L 2938 2094 
Q 2938 2591 2744 2837 
Q 2550 3084 2163 3084 
Q 1697 3084 1428 2787 
Q 1159 2491 1159 1978 
L 1159 0 
L 581 0 
L 581 3500 
L 1159 3500 
L 1159 2956 
Q 1366 3272 1645 3428 
Q 1925 3584 2291 3584 
Q 2894 3584 3203 3211 
Q 3513 2838 3513 2113 
z
" transform="scale(0.015625)"/>
       <path id="DejaVuSans-4d" d="M 628 4666 
L 1569 4666 
L 2759 1491 
L 3956 4666 
L 4897 4666 
L 4897 0 
L 4281 0 
L 4281 4097 
L 3078 897 
L 2444 897 
L 1241 4097 
L 1241 0 
L 628 0 
L 628 4666 
z
" transform="scale(0.015625)"/>
       <path id="DejaVuSans-6c" d="M 603 4863 
L 1178 4863 
L 1178 0 
L 603 0 
L 603 4863 
z
" transform="scale(0.015625)"/>
       <path id="DejaVuSans-6f" d="M 1959 3097 
Q 1497 3097 1228 2736 
Q 959 2375 959 1747 
Q 959 1119 1226 758 
Q 1494 397 1959 397 
Q 2419 397 2687 759 
Q 2956 1122 2956 1747 
Q 2956 2369 2687 2733 
Q 2419 3097 1959 3097 
z
M 1959 3584 
Q 2709 3584 3137 3096 
Q 3566 2609 3566 1747 
Q 3566 888 3137 398 
Q 2709 -91 1959 -91 
Q 1206 -91 779 398 
Q 353 888 353 1747 
Q 353 2609 779 3096 
Q 1206 3584 1959 3584 
z
" transform="scale(0.015625)"/>
       <path id="DejaVuSans-29" d="M 513 4856 
L 1013 4856 
Q 1481 4119 1714 3412 
Q 1947 2706 1947 2009 
Q 1947 1309 1714 600 
Q 1481 -109 1013 -844 
L 513 -844 
Q 928 -128 1133 580 
Q 1338 1288 1338 2009 
Q 1338 2731 1133 3434 
Q 928 4138 513 4856 
z
" transform="scale(0.015625)"/>
      </defs>
      <use xlink:href="#DejaVuSans-5a"/>
      <use xlink:href="#DejaVuSans-65" x="68.505859"/>
      <use xlink:href="#DejaVuSans-69" x="130.029297"/>
      <use xlink:href="#DejaVuSans-74" x="157.8125"/>
      <use xlink:href="#DejaVuSans-73" x="197.021484"/>
      <use xlink:href="#DejaVuSans-63" x="249.121094"/>
      <use xlink:href="#DejaVuSans-68" x="304.101562"/>
      <use xlink:href="#DejaVuSans-72" x="367.480469"/>
      <use xlink:href="#DejaVuSans-69" x="408.59375"/>
      <use xlink:href="#DejaVuSans-74" x="436.376953"/>
      <use xlink:href="#DejaVuSans-74" x="475.585938"/>
      <use xlink:href="#DejaVuSans-65" x="514.794922"/>
      <use xlink:href="#DejaVuSans-20" x="576.318359"/>
      <use xlink:href="#DejaVuSans-28" x="608.105469"/>
      <use xlink:href="#DejaVuSans-69" x="647.119141"/>
      <use xlink:href="#DejaVuSans-6e" x="674.902344"/>
      <use xlink:href="#DejaVuSans-20" x="738.28125"/>
      <use xlink:href="#DejaVuSans-4d" x="770.068359"/>
      <use xlink:href="#DejaVuSans-69" x="856.347656"/>
      <use xlink:href="#DejaVuSans-6c" x="884.130859"/>
      <use xlink:href="#DejaVuSans-6c" x="911.914062"/>
      <use xlink:href="#DejaVuSans-69" x="939.697266"/>
      <use xlink:href="#DejaVuSans-6f" x="967.480469"/>
      <use xlink:href="#DejaVuSans-6e" x="1028.662109"/>
      <use xlink:href="#DejaVuSans-65" x="1092.041016"/>
      <use xlink:href="#DejaVuSans-6e" x="1153.564453"/>
      <use xlink:href="#DejaVuSans-29" x="1216.943359"/>
     </g>
    </g>
   </g>
   <g id="matplotlib.axis_2">
    <g id="ytick_1">
     <g id="line2d_8">
      <path d="M 77.13 273.260781 
L 447.84 273.260781 
" clip-path="url(#pc83f0b2b97)" style="fill: none; stroke: #ffffff; stroke-linecap: round"/>
     </g>
     <g id="text_9">
      <!-- −4000 -->
      <g style="fill: #262626" transform="translate(30.417344 277.439921)scale(0.11 -0.11)">
       <defs>
        <path id="DejaVuSans-2212" d="M 678 2272 
L 4684 2272 
L 4684 1741 
L 678 1741 
L 678 2272 
z
" transform="scale(0.015625)"/>
        <path id="DejaVuSans-34" d="M 2419 4116 
L 825 1625 
L 2419 1625 
L 2419 4116 
z
M 2253 4666 
L 3047 4666 
L 3047 1625 
L 3713 1625 
L 3713 1100 
L 3047 1100 
L 3047 0 
L 2419 0 
L 2419 1100 
L 313 1100 
L 313 1709 
L 2253 4666 
z
" transform="scale(0.015625)"/>
       </defs>
       <use xlink:href="#DejaVuSans-2212"/>
       <use xlink:href="#DejaVuSans-34" x="83.789062"/>
       <use xlink:href="#DejaVuSans-30" x="147.412109"/>
       <use xlink:href="#DejaVuSans-30" x="211.035156"/>
       <use xlink:href="#DejaVuSans-30" x="274.658203"/>
      </g>
     </g>
    </g>
    <g id="ytick_2">
     <g id="line2d_9">
      <path d="M 77.13 220.124626 
L 447.84 220.124626 
" clip-path="url(#pc83f0b2b97)" style="fill: none; stroke: #ffffff; stroke-linecap: round"/>
     </g>
     <g id="text_10">
      <!-- −3000 -->
      <g style="fill: #262626" transform="translate(30.417344 224.303767)scale(0.11 -0.11)">
       <use xlink:href="#DejaVuSans-2212"/>
       <use xlink:href="#DejaVuSans-33" x="83.789062"/>
       <use xlink:href="#DejaVuSans-30" x="147.412109"/>
       <use xlink:href="#DejaVuSans-30" x="211.035156"/>
       <use xlink:href="#DejaVuSans-30" x="274.658203"/>
      </g>
     </g>
    </g>
    <g id="ytick_3">
     <g id="line2d_10">
      <path d="M 77.13 166.988472 
L 447.84 166.988472 
" clip-path="url(#pc83f0b2b97)" style="fill: none; stroke: #ffffff; stroke-linecap: round"/>
     </g>
     <g id="text_11">
      <!-- −2000 -->
      <g style="fill: #262626" transform="translate(30.417344 171.167612)scale(0.11 -0.11)">
       <use xlink:href="#DejaVuSans-2212"/>
       <use xlink:href="#DejaVuSans-32" x="83.789062"/>
       <use xlink:href="#DejaVuSans-30" x="147.412109"/>
       <use xlink:href="#DejaVuSans-30" x="211.035156"/>
       <use xlink:href="#DejaVuSans-30" x="274.658203"/>
      </g>
     </g>
    </g>
    <g id="ytick_4">
     <g id="line2d_11">
      <path d="M 77.13 113.852317 
L 447.84 113.852317 
" clip-path="url(#pc83f0b2b97)" style="fill: none; stroke: #ffffff; stroke-linecap: round"/>
     </g>
     <g id="text_12">
      <!-- −1000 -->
      <g style="fill: #262626" transform="translate(30.417344 118.031458)scale(0.11 -0.11)">
       <use xlink:href="#DejaVuSans-2212"/>
       <use xlink:href="#DejaVuSans-31" x="83.789062"/>
       <use xlink:href="#DejaVuSans-30" x="147.412109"/>
       <use xlink:href="#DejaVuSans-30" x="211.035156"/>
       <use xlink:href="#DejaVuSans-30" x="274.658203"/>
      </g>
     </g>
    </g>
    <g id="ytick_5">
     <g id="line2d_12">
      <path d="M 77.13 60.716163 
L 447.84 60.716163 
" clip-path="url(#pc83f0b2b97)" style="fill: none; stroke: #ffffff; stroke-linecap: round"/>
     </g>
     <g id="text_13">
      <!-- 0 -->
      <g style="fill: #262626" transform="translate(60.63125 64.895303)scale(0.11 -0.11)">
       <use xlink:href="#DejaVuSans-30"/>
      </g>
     </g>
    </g>
    <g id="text_14">
     <!-- Belohnung -->
     <g style="fill: #262626" transform="translate(23.505781 191.336563)rotate(-90)scale(0.14 -0.14)">
      <defs>
       <path id="DejaVuSans-42" d="M 1259 2228 
L 1259 519 
L 2272 519 
Q 2781 519 3026 730 
Q 3272 941 3272 1375 
Q 3272 1813 3026 2020 
Q 2781 2228 2272 2228 
L 1259 2228 
z
M 1259 4147 
L 1259 2741 
L 2194 2741 
Q 2656 2741 2882 2914 
Q 3109 3088 3109 3444 
Q 3109 3797 2882 3972 
Q 2656 4147 2194 4147 
L 1259 4147 
z
M 628 4666 
L 2241 4666 
Q 2963 4666 3353 4366 
Q 3744 4066 3744 3513 
Q 3744 3084 3544 2831 
Q 3344 2578 2956 2516 
Q 3422 2416 3680 2098 
Q 3938 1781 3938 1306 
Q 3938 681 3513 340 
Q 3088 0 2303 0 
L 628 0 
L 628 4666 
z
" transform="scale(0.015625)"/>
       <path id="DejaVuSans-75" d="M 544 1381 
L 544 3500 
L 1119 3500 
L 1119 1403 
Q 1119 906 1312 657 
Q 1506 409 1894 409 
Q 2359 409 2629 706 
Q 2900 1003 2900 1516 
L 2900 3500 
L 3475 3500 
L 3475 0 
L 2900 0 
L 2900 538 
Q 2691 219 2414 64 
Q 2138 -91 1772 -91 
Q 1169 -91 856 284 
Q 544 659 544 1381 
z
M 1991 3584 
L 1991 3584 
z
" transform="scale(0.015625)"/>
       <path id="DejaVuSans-67" d="M 2906 1791 
Q 2906 2416 2648 2759 
Q 2391 3103 1925 3103 
Q 1463 3103 1205 2759 
Q 947 2416 947 1791 
Q 947 1169 1205 825 
Q 1463 481 1925 481 
Q 2391 481 2648 825 
Q 2906 1169 2906 1791 
z
M 3481 434 
Q 3481 -459 3084 -895 
Q 2688 -1331 1869 -1331 
Q 1566 -1331 1297 -1286 
Q 1028 -1241 775 -1147 
L 775 -588 
Q 1028 -725 1275 -790 
Q 1522 -856 1778 -856 
Q 2344 -856 2625 -561 
Q 2906 -266 2906 331 
L 2906 616 
Q 2728 306 2450 153 
Q 2172 0 1784 0 
Q 1141 0 747 490 
Q 353 981 353 1791 
Q 353 2603 747 3093 
Q 1141 3584 1784 3584 
Q 2172 3584 2450 3431 
Q 2728 3278 2906 2969 
L 2906 3500 
L 3481 3500 
L 3481 434 
z
" transform="scale(0.015625)"/>
      </defs>
      <use xlink:href="#DejaVuSans-42"/>
      <use xlink:href="#DejaVuSans-65" x="68.603516"/>
      <use xlink:href="#DejaVuSans-6c" x="130.126953"/>
      <use xlink:href="#DejaVuSans-6f" x="157.910156"/>
      <use xlink:href="#DejaVuSans-68" x="219.091797"/>
      <use xlink:href="#DejaVuSans-6e" x="282.470703"/>
      <use xlink:href="#DejaVuSans-75" x="345.849609"/>
      <use xlink:href="#DejaVuSans-6e" x="409.228516"/>
      <use xlink:href="#DejaVuSans-67" x="472.607422"/>
     </g>
    </g>
   </g>
   <g id="PolyCollection_1">
    <defs>
     <path id="m637f97929f" d="M 93.980455 -161.209634 
L 93.980455 -180.209123 
L 96.812464 -176.552341 
L 99.644473 -180.425993 
L 102.476482 -190.291092 
L 105.308491 -280.170008 
L 108.1405 -293.499453 
L 110.97251 -299.089008 
L 113.804519 -295.778487 
L 116.636528 -299.110143 
L 119.468537 -300.194757 
L 122.300546 -299.891634 
L 125.132555 -304.912076 
L 127.964565 -301.694082 
L 130.796574 -308.903711 
L 133.628583 -306.727423 
L 136.460592 -309.966281 
L 139.292601 -308.37628 
L 142.12461 -301.395921 
L 144.95662 -319.835455 
L 147.788629 -302.62795 
L 150.620638 -310.850995 
L 153.452647 -301.712524 
L 156.284656 -309.320373 
L 159.116665 -302.110197 
L 161.948675 -302.376128 
L 164.780684 -305.881773 
L 167.612693 -304.960255 
L 170.444702 -300.849668 
L 173.276711 -298.968906 
L 176.10872 -302.247259 
L 178.94073 -304.177578 
L 181.772739 -300.832386 
L 184.604748 -302.228732 
L 187.436757 -299.248936 
L 190.268766 -304.070348 
L 193.100775 -298.009149 
L 195.932785 -301.387968 
L 198.764794 -303.538889 
L 201.596803 -299.560803 
L 204.428812 -298.226435 
L 207.260821 -302.327339 
L 210.09283 -301.666478 
L 212.92484 -303.815739 
L 215.756849 -297.953308 
L 218.588858 -300.638629 
L 221.420867 -300.891758 
L 224.252876 -299.918993 
L 227.084885 -299.059906 
L 229.916895 -298.706309 
L 232.748904 -298.504278 
L 235.580913 -299.682661 
L 238.412922 -300.887095 
L 241.244931 -300.107383 
L 244.07694 -300.779391 
L 246.90895 -300.778189 
L 249.740959 -299.834674 
L 252.572968 -299.783913 
L 255.404977 -300.888535 
L 258.236986 -300.264574 
L 261.068995 -300.542161 
L 263.901005 -300.057915 
L 266.733014 -301.56198 
L 269.565023 -298.688958 
L 272.397032 -299.175477 
L 275.229041 -301.048871 
L 278.06105 -299.798448 
L 280.89306 -300.265478 
L 283.725069 -299.921079 
L 286.557078 -299.458094 
L 289.389087 -299.514867 
L 292.221096 -299.149809 
L 295.053105 -298.692502 
L 297.885115 -299.754644 
L 300.717124 -299.390932 
L 303.549133 -302.878461 
L 306.381142 -299.63913 
L 309.213151 -300.240294 
L 312.04516 -299.545669 
L 314.87717 -299.954553 
L 317.709179 -299.589732 
L 320.541188 -299.962674 
L 323.373197 -301.213418 
L 326.205206 -299.049711 
L 329.037215 -299.008875 
L 331.869225 -300.058678 
L 334.701234 -300.37479 
L 337.533243 -299.945693 
L 340.365252 -299.158254 
L 343.197261 -298.609561 
L 346.02927 -299.514014 
L 348.86128 -299.247664 
L 351.693289 -299.174628 
L 354.525298 -298.928466 
L 357.357307 -299.411157 
L 360.189316 -301.378199 
L 363.021325 -299.276145 
L 365.853335 -298.703421 
L 368.685344 -299.120673 
L 371.517353 -299.821421 
L 374.349362 -300.434885 
L 377.181371 -298.897294 
L 380.01338 -298.903341 
L 382.84539 -299.84974 
L 385.677399 -299.608744 
L 388.509408 -299.865017 
L 391.341417 -300.176373 
L 394.173426 -299.443222 
L 397.005435 -299.038254 
L 399.837445 -300.309149 
L 402.669454 -299.860195 
L 405.501463 -299.291134 
L 408.333472 -299.041197 
L 411.165481 -299.501186 
L 413.99749 -299.738198 
L 416.8295 -299.369605 
L 419.661509 -299.201887 
L 422.493518 -298.79555 
L 425.325527 -298.966462 
L 428.157536 -299.197248 
L 430.989545 -298.710107 
L 430.989545 -297.497339 
L 430.989545 -297.497339 
L 428.157536 -297.408383 
L 425.325527 -298.238763 
L 422.493518 -297.787647 
L 419.661509 -297.867249 
L 416.8295 -297.12086 
L 413.99749 -297.754103 
L 411.165481 -297.40153 
L 408.333472 -297.986352 
L 405.501463 -297.470979 
L 402.669454 -298.602516 
L 399.837445 -297.757704 
L 397.005435 -297.447923 
L 394.173426 -296.9625 
L 391.341417 -297.979653 
L 388.509408 -297.535401 
L 385.677399 -298.122804 
L 382.84539 -298.10221 
L 380.01338 -297.089515 
L 377.181371 -297.434356 
L 374.349362 -297.165962 
L 371.517353 -297.366143 
L 368.685344 -297.601993 
L 365.853335 -297.25473 
L 363.021325 -296.533264 
L 360.189316 -297.747186 
L 357.357307 -298.155374 
L 354.525298 -296.237313 
L 351.693289 -296.086341 
L 348.86128 -297.800889 
L 346.02927 -297.865102 
L 343.197261 -297.154122 
L 340.365252 -296.766262 
L 337.533243 -297.380861 
L 334.701234 -298.028295 
L 331.869225 -297.476513 
L 329.037215 -298.121655 
L 326.205206 -296.179748 
L 323.373197 -297.281108 
L 320.541188 -296.554059 
L 317.709179 -296.839826 
L 314.87717 -297.888189 
L 312.04516 -297.332097 
L 309.213151 -296.60202 
L 306.381142 -297.44157 
L 303.549133 -298.245495 
L 300.717124 -297.627113 
L 297.885115 -297.211091 
L 295.053105 -296.834993 
L 292.221096 -296.828525 
L 289.389087 -297.561127 
L 286.557078 -296.533148 
L 283.725069 -296.91834 
L 280.89306 -296.616704 
L 278.06105 -297.362819 
L 275.229041 -296.966353 
L 272.397032 -296.993924 
L 269.565023 -297.540743 
L 266.733014 -297.207763 
L 263.901005 -296.759186 
L 261.068995 -297.700211 
L 258.236986 -297.753302 
L 255.404977 -297.832693 
L 252.572968 -297.088937 
L 249.740959 -296.973254 
L 246.90895 -298.281938 
L 244.07694 -296.516234 
L 241.244931 -297.475888 
L 238.412922 -298.589286 
L 235.580913 -295.750174 
L 232.748904 -295.923422 
L 229.916895 -294.528517 
L 227.084885 -296.612407 
L 224.252876 -297.254234 
L 221.420867 -293.596011 
L 218.588858 -295.763786 
L 215.756849 -296.836436 
L 212.92484 -297.076908 
L 210.09283 -296.050819 
L 207.260821 -296.717132 
L 204.428812 -296.535252 
L 201.596803 -294.564715 
L 198.764794 -298.241305 
L 195.932785 -295.42669 
L 193.100775 -296.181478 
L 190.268766 -294.480795 
L 187.436757 -294.172342 
L 184.604748 -296.243448 
L 181.772739 -296.651233 
L 178.94073 -296.276938 
L 176.10872 -297.306187 
L 173.276711 -295.641909 
L 170.444702 -297.872125 
L 167.612693 -296.398161 
L 164.780684 -298.652311 
L 161.948675 -290.729803 
L 159.116665 -296.131609 
L 156.284656 -295.652684 
L 153.452647 -295.0755 
L 150.620638 -293.34899 
L 147.788629 -291.326792 
L 144.95662 -287.618876 
L 142.12461 -298.346013 
L 139.292601 -297.922112 
L 136.460592 -286.289196 
L 133.628583 -283.347932 
L 130.796574 -281.688767 
L 127.964565 -281.098066 
L 125.132555 -275.777587 
L 122.300546 -282.385056 
L 119.468537 -275.14655 
L 116.636528 -282.690823 
L 113.804519 -281.595398 
L 110.97251 -277.443427 
L 108.1405 -285.825253 
L 105.308491 -236.676606 
L 102.476482 -146.621634 
L 99.644473 -144.816904 
L 96.812464 -145.103965 
L 93.980455 -161.209634 
z
" style="stroke: #ffffff; stroke-opacity: 0.5"/>
    </defs>
    <g clip-path="url(#pc83f0b2b97)">
     <use xlink:href="#m637f97929f" x="0" y="345.6" style="fill: #4c72b0; fill-opacity: 0.5; stroke: #ffffff; stroke-opacity: 0.5"/>
    </g>
   </g>
   <g id="PolyCollection_2">
    <defs>
     <path id="mae70b52d14" d="M 93.980455 -135.989969 
L 93.980455 -188.938364 
L 96.812464 -181.845844 
L 99.644473 -178.48712 
L 102.476482 -180.081639 
L 105.308491 -233.376835 
L 108.1405 -289.668398 
L 110.97251 -295.25744 
L 113.804519 -303.831909 
L 116.636528 -297.34783 
L 119.468537 -292.77705 
L 122.300546 -292.272197 
L 125.132555 -303.740731 
L 127.964565 -298.540594 
L 130.796574 -304.294059 
L 133.628583 -296.793353 
L 136.460592 -302.001389 
L 139.292601 -296.446013 
L 142.12461 -305.115985 
L 144.95662 -305.032827 
L 147.788629 -299.919423 
L 150.620638 -290.423189 
L 153.452647 -299.356437 
L 156.284656 -304.255991 
L 159.116665 -300.588131 
L 161.948675 -300.077409 
L 164.780684 -300.430893 
L 167.612693 -302.29433 
L 170.444702 -298.621216 
L 173.276711 -306.879922 
L 176.10872 -303.999455 
L 178.94073 -301.447226 
L 181.772739 -307.319143 
L 184.604748 -302.34001 
L 187.436757 -302.961104 
L 190.268766 -302.091132 
L 193.100775 -302.918857 
L 195.932785 -295.596245 
L 198.764794 -301.039095 
L 201.596803 -299.685292 
L 204.428812 -299.600101 
L 207.260821 -303.467262 
L 210.09283 -302.965126 
L 212.92484 -301.303366 
L 215.756849 -301.727533 
L 218.588858 -300.236461 
L 221.420867 -296.162121 
L 224.252876 -301.795656 
L 227.084885 -300.552106 
L 229.916895 -300.651728 
L 232.748904 -300.399582 
L 235.580913 -301.200846 
L 238.412922 -304.590498 
L 241.244931 -299.907929 
L 244.07694 -298.350208 
L 246.90895 -301.990348 
L 249.740959 -304.333292 
L 252.572968 -310.507295 
L 255.404977 -303.211895 
L 258.236986 -305.632706 
L 261.068995 -305.108768 
L 263.901005 -302.573518 
L 266.733014 -300.09136 
L 269.565023 -304.707017 
L 272.397032 -305.548724 
L 275.229041 -308.161793 
L 278.06105 -306.22783 
L 280.89306 -300.499406 
L 283.725069 -303.137467 
L 286.557078 -304.678261 
L 289.389087 -304.194027 
L 292.221096 -305.19461 
L 295.053105 -300.248046 
L 297.885115 -302.207399 
L 300.717124 -302.769691 
L 303.549133 -301.205103 
L 306.381142 -302.913329 
L 309.213151 -303.713147 
L 312.04516 -304.534011 
L 314.87717 -305.357536 
L 317.709179 -301.433907 
L 320.541188 -301.387377 
L 323.373197 -302.688511 
L 326.205206 -304.191715 
L 329.037215 -304.712823 
L 331.869225 -301.056054 
L 334.701234 -303.79902 
L 337.533243 -304.355591 
L 340.365252 -303.833083 
L 343.197261 -301.627877 
L 346.02927 -309.375661 
L 348.86128 -302.109301 
L 351.693289 -300.168017 
L 354.525298 -303.876317 
L 357.357307 -308.66875 
L 360.189316 -302.966467 
L 363.021325 -301.393182 
L 365.853335 -302.339803 
L 368.685344 -302.26378 
L 371.517353 -305.32857 
L 374.349362 -301.866612 
L 377.181371 -303.794797 
L 380.01338 -303.074431 
L 382.84539 -301.485183 
L 385.677399 -302.766536 
L 388.509408 -302.781929 
L 391.341417 -304.277715 
L 394.173426 -302.593794 
L 397.005435 -304.173327 
L 399.837445 -306.175016 
L 402.669454 -304.116814 
L 405.501463 -305.470571 
L 408.333472 -302.569729 
L 411.165481 -298.553552 
L 413.99749 -301.552111 
L 416.8295 -304.999602 
L 419.661509 -299.887174 
L 422.493518 -299.430709 
L 425.325527 -302.879644 
L 428.157536 -301.848145 
L 430.989545 -305.346123 
L 430.989545 -290.458198 
L 430.989545 -290.458198 
L 428.157536 -289.900338 
L 425.325527 -295.607949 
L 422.493518 -293.650218 
L 419.661509 -290.16499 
L 416.8295 -299.068187 
L 413.99749 -290.717761 
L 411.165481 -288.981472 
L 408.333472 -297.118856 
L 405.501463 -294.787006 
L 402.669454 -295.190616 
L 399.837445 -288.327476 
L 397.005435 -289.510058 
L 394.173426 -291.322132 
L 391.341417 -290.835189 
L 388.509408 -292.277502 
L 385.677399 -297.359712 
L 382.84539 -293.131253 
L 380.01338 -295.610734 
L 377.181371 -296.06737 
L 374.349362 -293.245539 
L 371.517353 -294.212854 
L 368.685344 -291.854907 
L 365.853335 -288.656896 
L 363.021325 -291.49479 
L 360.189316 -293.019335 
L 357.357307 -293.429948 
L 354.525298 -293.168085 
L 351.693289 -297.24689 
L 348.86128 -290.350287 
L 346.02927 -293.262829 
L 343.197261 -293.198658 
L 340.365252 -287.375051 
L 337.533243 -293.693692 
L 334.701234 -297.927103 
L 331.869225 -287.123466 
L 329.037215 -291.962782 
L 326.205206 -290.296367 
L 323.373197 -290.337816 
L 320.541188 -289.200514 
L 317.709179 -294.455808 
L 314.87717 -290.983273 
L 312.04516 -294.278602 
L 309.213151 -293.298018 
L 306.381142 -290.501696 
L 303.549133 -296.709969 
L 300.717124 -293.991807 
L 297.885115 -287.480407 
L 295.053105 -294.712211 
L 292.221096 -299.807583 
L 289.389087 -291.410619 
L 286.557078 -292.261701 
L 283.725069 -294.812386 
L 280.89306 -294.441189 
L 278.06105 -297.356982 
L 275.229041 -294.045362 
L 272.397032 -288.763465 
L 269.565023 -289.726817 
L 266.733014 -289.885173 
L 263.901005 -289.228808 
L 261.068995 -290.92911 
L 258.236986 -284.472007 
L 255.404977 -295.994261 
L 252.572968 -298.475015 
L 249.740959 -293.931289 
L 246.90895 -295.897204 
L 244.07694 -290.971572 
L 241.244931 -282.908761 
L 238.412922 -296.814287 
L 235.580913 -292.033637 
L 232.748904 -284.293967 
L 229.916895 -289.614388 
L 227.084885 -298.075258 
L 224.252876 -296.730983 
L 221.420867 -292.396949 
L 218.588858 -296.500652 
L 215.756849 -287.968278 
L 212.92484 -290.123832 
L 210.09283 -288.629041 
L 207.260821 -286.25181 
L 204.428812 -294.263897 
L 201.596803 -272.640555 
L 198.764794 -289.245497 
L 195.932785 -285.310755 
L 193.100775 -285.571227 
L 190.268766 -281.351685 
L 187.436757 -274.370309 
L 184.604748 -286.929586 
L 181.772739 -287.244577 
L 178.94073 -280.284765 
L 176.10872 -262.447153 
L 173.276711 -268.860002 
L 170.444702 -274.812567 
L 167.612693 -282.26387 
L 164.780684 -288.127032 
L 161.948675 -280.585861 
L 159.116665 -279.573768 
L 156.284656 -287.176061 
L 153.452647 -291.999221 
L 150.620638 -268.100366 
L 147.788629 -291.209871 
L 144.95662 -260.108867 
L 142.12461 -274.735225 
L 139.292601 -279.129999 
L 136.460592 -277.570987 
L 133.628583 -285.650244 
L 130.796574 -272.695922 
L 127.964565 -282.112826 
L 125.132555 -279.8626 
L 122.300546 -277.506622 
L 119.468537 -273.593054 
L 116.636528 -263.90153 
L 113.804519 -246.787199 
L 110.97251 -258.450447 
L 108.1405 -226.024362 
L 105.308491 -208.089014 
L 102.476482 -143.403592 
L 99.644473 -143.386604 
L 96.812464 -148.247574 
L 93.980455 -135.989969 
z
" style="stroke: #ffffff; stroke-opacity: 0.5"/>
    </defs>
    <g clip-path="url(#pc83f0b2b97)">
     <use xlink:href="#mae70b52d14" x="0" y="345.6" style="fill: #dd8452; fill-opacity: 0.5; stroke: #ffffff; stroke-opacity: 0.5"/>
    </g>
   </g>
   <g id="PolyCollection_3">
    <defs>
     <path id="mc03f3fe8c2" d="M 93.980455 -120.980236 
L 93.980455 -165.035065 
L 96.812464 -180.167339 
L 99.644473 -161.92877 
L 102.476482 -168.449166 
L 105.308491 -199.893088 
L 108.1405 -187.01799 
L 110.97251 -184.655485 
L 113.804519 -195.049253 
L 116.636528 -231.0117 
L 119.468537 -230.570291 
L 122.300546 -272.943042 
L 125.132555 -235.894472 
L 127.964565 -280.105664 
L 130.796574 -260.800244 
L 133.628583 -292.001974 
L 136.460592 -252.467962 
L 139.292601 -285.53817 
L 142.12461 -273.223951 
L 144.95662 -262.727225 
L 147.788629 -276.182661 
L 150.620638 -292.762603 
L 153.452647 -286.794195 
L 156.284656 -268.808996 
L 159.116665 -286.502479 
L 161.948675 -295.966777 
L 164.780684 -295.843507 
L 167.612693 -293.826257 
L 170.444702 -301.7159 
L 173.276711 -294.824519 
L 176.10872 -286.294399 
L 178.94073 -292.839031 
L 181.772739 -284.012449 
L 184.604748 -289.011924 
L 187.436757 -297.212544 
L 190.268766 -296.889655 
L 193.100775 -301.581844 
L 195.932785 -293.276826 
L 198.764794 -291.099338 
L 201.596803 -300.537833 
L 204.428812 -299.585122 
L 207.260821 -301.095776 
L 210.09283 -289.389244 
L 212.92484 -293.694247 
L 215.756849 -293.69608 
L 218.588858 -294.39474 
L 221.420867 -291.370812 
L 224.252876 -283.856712 
L 227.084885 -288.64583 
L 229.916895 -296.275782 
L 232.748904 -300.534279 
L 235.580913 -289.785359 
L 238.412922 -296.210471 
L 241.244931 -288.769455 
L 244.07694 -300.848971 
L 246.90895 -296.372097 
L 249.740959 -299.143367 
L 252.572968 -300.793881 
L 255.404977 -293.759191 
L 258.236986 -299.600172 
L 261.068995 -299.046102 
L 263.901005 -296.98621 
L 266.733014 -292.92468 
L 269.565023 -288.776304 
L 272.397032 -299.229114 
L 275.229041 -295.579206 
L 278.06105 -291.777163 
L 280.89306 -295.106941 
L 283.725069 -297.016013 
L 286.557078 -300.424482 
L 289.389087 -298.602018 
L 292.221096 -297.769942 
L 295.053105 -299.663585 
L 297.885115 -295.301271 
L 300.717124 -296.144916 
L 303.549133 -295.401111 
L 306.381142 -295.334197 
L 309.213151 -300.793486 
L 312.04516 -299.573739 
L 314.87717 -293.092909 
L 317.709179 -291.667012 
L 320.541188 -294.185453 
L 323.373197 -296.889322 
L 326.205206 -291.327312 
L 329.037215 -298.371421 
L 331.869225 -295.356778 
L 334.701234 -292.768826 
L 337.533243 -295.581375 
L 340.365252 -291.871176 
L 343.197261 -298.007334 
L 346.02927 -294.589082 
L 348.86128 -300.278061 
L 351.693289 -296.193745 
L 354.525298 -302.953535 
L 357.357307 -294.959831 
L 360.189316 -294.788313 
L 363.021325 -298.047322 
L 365.853335 -294.216933 
L 368.685344 -302.687233 
L 371.517353 -299.205399 
L 374.349362 -294.898351 
L 377.181371 -299.594888 
L 380.01338 -297.594421 
L 382.84539 -296.473762 
L 385.677399 -298.842229 
L 388.509408 -301.155463 
L 391.341417 -294.674896 
L 394.173426 -298.556667 
L 397.005435 -298.135386 
L 399.837445 -293.747877 
L 402.669454 -295.173823 
L 405.501463 -287.685448 
L 408.333472 -296.4088 
L 411.165481 -293.567828 
L 413.99749 -291.887555 
L 416.8295 -296.638747 
L 419.661509 -295.117018 
L 422.493518 -294.323176 
L 425.325527 -301.408205 
L 428.157536 -299.960602 
L 430.989545 -295.807457 
L 430.989545 -281.114248 
L 430.989545 -281.114248 
L 428.157536 -288.302423 
L 425.325527 -276.152228 
L 422.493518 -268.268958 
L 419.661509 -269.272201 
L 416.8295 -271.268144 
L 413.99749 -279.785412 
L 411.165481 -267.125619 
L 408.333472 -284.994106 
L 405.501463 -279.93541 
L 402.669454 -280.933282 
L 399.837445 -270.536301 
L 397.005435 -267.412849 
L 394.173426 -284.056077 
L 391.341417 -278.470741 
L 388.509408 -280.07313 
L 385.677399 -272.05736 
L 382.84539 -272.262633 
L 380.01338 -283.823319 
L 377.181371 -265.315183 
L 374.349362 -277.591016 
L 371.517353 -273.000958 
L 368.685344 -280.73321 
L 365.853335 -282.866772 
L 363.021325 -262.593017 
L 360.189316 -284.486759 
L 357.357307 -280.334067 
L 354.525298 -273.590138 
L 351.693289 -277.474538 
L 348.86128 -285.107002 
L 346.02927 -287.068867 
L 343.197261 -281.942628 
L 340.365252 -269.853731 
L 337.533243 -277.09055 
L 334.701234 -277.571579 
L 331.869225 -279.298286 
L 329.037215 -273.148761 
L 326.205206 -270.627728 
L 323.373197 -281.962696 
L 320.541188 -275.384573 
L 317.709179 -283.574084 
L 314.87717 -272.468989 
L 312.04516 -278.040322 
L 309.213151 -281.375621 
L 306.381142 -281.031907 
L 303.549133 -269.431706 
L 300.717124 -277.478395 
L 297.885115 -279.670534 
L 295.053105 -282.649996 
L 292.221096 -282.799088 
L 289.389087 -275.794908 
L 286.557078 -269.601647 
L 283.725069 -279.924698 
L 280.89306 -269.100084 
L 278.06105 -280.33341 
L 275.229041 -263.292037 
L 272.397032 -284.967287 
L 269.565023 -272.844368 
L 266.733014 -268.448951 
L 263.901005 -272.561102 
L 261.068995 -279.792033 
L 258.236986 -279.113077 
L 255.404977 -282.031635 
L 252.572968 -279.893901 
L 249.740959 -289.413523 
L 246.90895 -268.532841 
L 244.07694 -277.507306 
L 241.244931 -264.277345 
L 238.412922 -278.373378 
L 235.580913 -279.509927 
L 232.748904 -252.501483 
L 229.916895 -277.969826 
L 227.084885 -271.368675 
L 224.252876 -273.667152 
L 221.420867 -256.742029 
L 218.588858 -260.799334 
L 215.756849 -261.256127 
L 212.92484 -253.970116 
L 210.09283 -268.784947 
L 207.260821 -269.141277 
L 204.428812 -257.518169 
L 201.596803 -272.434139 
L 198.764794 -265.243943 
L 195.932785 -257.338673 
L 193.100775 -266.917196 
L 190.268766 -271.200953 
L 187.436757 -248.482718 
L 184.604748 -247.930893 
L 181.772739 -228.543723 
L 178.94073 -277.416134 
L 176.10872 -259.411779 
L 173.276711 -239.440511 
L 170.444702 -263.925268 
L 167.612693 -256.554533 
L 164.780684 -249.132573 
L 161.948675 -274.564266 
L 159.116665 -252.580216 
L 156.284656 -234.269866 
L 153.452647 -231.786818 
L 150.620638 -185.760882 
L 147.788629 -222.295109 
L 144.95662 -222.981982 
L 142.12461 -223.770477 
L 139.292601 -221.666261 
L 136.460592 -211.395572 
L 133.628583 -224.309112 
L 130.796574 -195.029709 
L 127.964565 -196.228616 
L 125.132555 -177.704476 
L 122.300546 -181.929195 
L 119.468537 -202.094015 
L 116.636528 -191.173678 
L 113.804519 -184.616187 
L 110.97251 -171.86619 
L 108.1405 -167.47515 
L 105.308491 -184.384268 
L 102.476482 -150.035376 
L 99.644473 -145.814017 
L 96.812464 -143.804372 
L 93.980455 -120.980236 
z
" style="stroke: #ffffff; stroke-opacity: 0.5"/>
    </defs>
    <g clip-path="url(#pc83f0b2b97)">
     <use xlink:href="#mc03f3fe8c2" x="0" y="345.6" style="fill: #55a868; fill-opacity: 0.5; stroke: #ffffff; stroke-opacity: 0.5"/>
    </g>
   </g>
   <g id="PolyCollection_4">
    <defs>
     <path id="md6bd534351" d="M 93.980455 -137.297574 
L 93.980455 -172.777156 
L 96.812464 -174.967885 
L 99.644473 -170.296942 
L 102.476482 -174.274406 
L 105.308491 -190.118135 
L 108.1405 -215.736517 
L 110.97251 -206.857386 
L 113.804519 -187.470024 
L 116.636528 -210.97953 
L 119.468537 -224.457044 
L 122.300546 -211.341842 
L 125.132555 -222.709768 
L 127.964565 -250.460618 
L 130.796574 -257.805242 
L 133.628583 -260.728836 
L 136.460592 -240.987376 
L 139.292601 -254.545041 
L 142.12461 -254.349933 
L 144.95662 -276.385532 
L 147.788629 -272.538704 
L 150.620638 -273.823049 
L 153.452647 -275.425065 
L 156.284656 -253.313682 
L 159.116665 -253.376695 
L 161.948675 -260.55823 
L 164.780684 -273.828162 
L 167.612693 -271.895194 
L 170.444702 -278.845843 
L 173.276711 -287.669254 
L 176.10872 -256.561863 
L 178.94073 -260.891968 
L 181.772739 -263.653819 
L 184.604748 -279.2988 
L 187.436757 -274.415705 
L 190.268766 -274.626648 
L 193.100775 -287.112763 
L 195.932785 -257.689559 
L 198.764794 -277.86187 
L 201.596803 -282.551336 
L 204.428812 -279.270284 
L 207.260821 -276.228242 
L 210.09283 -273.786582 
L 212.92484 -291.743038 
L 215.756849 -288.967002 
L 218.588858 -289.707765 
L 221.420867 -281.486668 
L 224.252876 -293.071892 
L 227.084885 -296.460054 
L 229.916895 -302.215919 
L 232.748904 -290.345119 
L 235.580913 -282.476249 
L 238.412922 -295.42979 
L 241.244931 -300.568055 
L 244.07694 -285.694506 
L 246.90895 -286.286742 
L 249.740959 -285.094509 
L 252.572968 -292.874102 
L 255.404977 -293.522027 
L 258.236986 -289.646766 
L 261.068995 -289.980851 
L 263.901005 -291.526599 
L 266.733014 -293.483259 
L 269.565023 -291.551526 
L 272.397032 -291.737155 
L 275.229041 -299.002079 
L 278.06105 -285.527528 
L 280.89306 -279.002703 
L 283.725069 -296.637597 
L 286.557078 -289.956492 
L 289.389087 -282.463454 
L 292.221096 -282.521548 
L 295.053105 -285.998549 
L 297.885115 -286.411238 
L 300.717124 -275.306144 
L 303.549133 -281.439435 
L 306.381142 -292.319174 
L 309.213151 -286.016797 
L 312.04516 -283.143405 
L 314.87717 -271.604803 
L 317.709179 -291.391896 
L 320.541188 -291.837591 
L 323.373197 -289.396145 
L 326.205206 -293.782993 
L 329.037215 -295.649311 
L 331.869225 -291.353439 
L 334.701234 -280.652227 
L 337.533243 -274.357135 
L 340.365252 -288.86472 
L 343.197261 -296.054765 
L 346.02927 -287.718606 
L 348.86128 -285.037869 
L 351.693289 -290.722155 
L 354.525298 -292.929217 
L 357.357307 -291.269277 
L 360.189316 -285.360785 
L 363.021325 -270.959013 
L 365.853335 -286.898893 
L 368.685344 -291.863748 
L 371.517353 -290.042461 
L 374.349362 -288.508282 
L 377.181371 -285.812031 
L 380.01338 -295.624423 
L 382.84539 -284.19437 
L 385.677399 -287.620053 
L 388.509408 -287.544831 
L 391.341417 -289.17777 
L 394.173426 -280.834867 
L 397.005435 -283.28542 
L 399.837445 -290.870354 
L 402.669454 -277.913541 
L 405.501463 -282.271234 
L 408.333472 -297.584847 
L 411.165481 -294.478299 
L 413.99749 -282.737452 
L 416.8295 -286.691578 
L 419.661509 -282.091816 
L 422.493518 -286.660378 
L 425.325527 -290.375538 
L 428.157536 -286.525211 
L 430.989545 -283.851027 
L 430.989545 -272.738951 
L 430.989545 -272.738951 
L 428.157536 -264.33639 
L 425.325527 -261.435199 
L 422.493518 -253.602455 
L 419.661509 -264.670517 
L 416.8295 -270.158319 
L 413.99749 -271.369264 
L 411.165481 -268.486719 
L 408.333472 -254.842456 
L 405.501463 -249.445356 
L 402.669454 -255.455412 
L 399.837445 -255.644651 
L 397.005435 -254.154438 
L 394.173426 -229.383303 
L 391.341417 -251.933402 
L 388.509408 -245.541991 
L 385.677399 -243.031113 
L 382.84539 -272.310975 
L 380.01338 -264.706284 
L 377.181371 -259.472318 
L 374.349362 -265.175997 
L 371.517353 -250.661204 
L 368.685344 -255.755447 
L 365.853335 -237.843496 
L 363.021325 -245.906169 
L 360.189316 -267.636603 
L 357.357307 -244.407731 
L 354.525298 -247.982585 
L 351.693289 -263.56878 
L 348.86128 -241.928689 
L 346.02927 -257.487627 
L 343.197261 -268.846802 
L 340.365252 -244.145205 
L 337.533243 -248.413326 
L 334.701234 -267.924134 
L 331.869225 -242.479596 
L 329.037215 -251.0891 
L 326.205206 -249.754789 
L 323.373197 -222.650219 
L 320.541188 -237.606039 
L 317.709179 -252.052745 
L 314.87717 -241.54644 
L 312.04516 -242.848153 
L 309.213151 -251.342686 
L 306.381142 -244.612242 
L 303.549133 -226.894027 
L 300.717124 -260.055994 
L 297.885115 -248.94867 
L 295.053105 -238.663792 
L 292.221096 -230.847825 
L 289.389087 -210.24047 
L 286.557078 -259.494672 
L 283.725069 -248.491392 
L 280.89306 -239.006626 
L 278.06105 -249.193135 
L 275.229041 -264.210214 
L 272.397032 -244.882874 
L 269.565023 -244.870576 
L 266.733014 -238.782927 
L 263.901005 -265.31134 
L 261.068995 -259.822084 
L 258.236986 -256.630497 
L 255.404977 -255.568799 
L 252.572968 -245.412269 
L 249.740959 -256.586684 
L 246.90895 -241.499422 
L 244.07694 -228.882327 
L 241.244931 -241.693803 
L 238.412922 -260.445102 
L 235.580913 -243.794383 
L 232.748904 -268.20777 
L 229.916895 -245.337263 
L 227.084885 -240.261363 
L 224.252876 -246.318798 
L 221.420867 -247.592965 
L 218.588858 -246.323762 
L 215.756849 -216.10015 
L 212.92484 -251.972772 
L 210.09283 -256.834054 
L 207.260821 -238.524493 
L 204.428812 -230.35378 
L 201.596803 -212.400715 
L 198.764794 -236.540782 
L 195.932785 -239.395793 
L 193.100775 -250.786505 
L 190.268766 -248.292634 
L 187.436757 -215.847572 
L 184.604748 -216.510159 
L 181.772739 -244.857238 
L 178.94073 -191.344993 
L 176.10872 -242.993529 
L 173.276711 -236.454318 
L 170.444702 -243.413108 
L 167.612693 -195.115452 
L 164.780684 -190.974602 
L 161.948675 -206.870448 
L 159.116665 -218.687015 
L 156.284656 -220.030998 
L 153.452647 -204.578864 
L 150.620638 -186.816311 
L 147.788629 -220.671143 
L 144.95662 -167.64354 
L 142.12461 -175.996996 
L 139.292601 -189.495594 
L 136.460592 -200.915481 
L 133.628583 -197.723668 
L 130.796574 -202.003692 
L 127.964565 -194.438781 
L 125.132555 -186.799446 
L 122.300546 -184.24235 
L 119.468537 -168.906032 
L 116.636528 -176.668838 
L 113.804519 -164.313743 
L 110.97251 -180.675266 
L 108.1405 -184.656344 
L 105.308491 -166.696069 
L 102.476482 -151.472017 
L 99.644473 -141.828783 
L 96.812464 -134.025705 
L 93.980455 -137.297574 
z
" style="stroke: #ffffff; stroke-opacity: 0.5"/>
    </defs>
    <g clip-path="url(#pc83f0b2b97)">
     <use xlink:href="#md6bd534351" x="0" y="345.6" style="fill: #c44e52; fill-opacity: 0.5; stroke: #ffffff; stroke-opacity: 0.5"/>
    </g>
   </g>
   <g id="PolyCollection_5">
    <defs>
     <path id="m2a2b55e95c" d="M 93.980455 -138.418895 
L 93.980455 -164.872893 
L 96.812464 -166.918249 
L 99.644473 -168.446892 
L 102.476482 -173.945009 
L 105.308491 -164.796389 
L 108.1405 -186.078992 
L 110.97251 -189.691448 
L 113.804519 -200.169099 
L 116.636528 -217.501993 
L 119.468537 -203.422414 
L 122.300546 -206.524035 
L 125.132555 -208.467747 
L 127.964565 -202.704036 
L 130.796574 -205.125883 
L 133.628583 -207.312652 
L 136.460592 -232.231455 
L 139.292601 -217.475598 
L 142.12461 -255.312175 
L 144.95662 -226.733965 
L 147.788629 -217.633177 
L 150.620638 -237.875068 
L 153.452647 -241.513722 
L 156.284656 -238.137599 
L 159.116665 -237.966684 
L 161.948675 -226.088479 
L 164.780684 -235.5274 
L 167.612693 -275.504099 
L 170.444702 -256.517533 
L 173.276711 -224.790057 
L 176.10872 -230.829758 
L 178.94073 -259.377468 
L 181.772739 -238.739166 
L 184.604748 -218.876013 
L 187.436757 -256.937711 
L 190.268766 -260.338168 
L 193.100775 -243.107665 
L 195.932785 -223.488204 
L 198.764794 -259.011175 
L 201.596803 -229.183849 
L 204.428812 -226.631361 
L 207.260821 -251.445102 
L 210.09283 -262.776649 
L 212.92484 -268.082935 
L 215.756849 -274.243161 
L 218.588858 -274.633123 
L 221.420867 -270.934287 
L 224.252876 -275.465002 
L 227.084885 -262.648438 
L 229.916895 -272.834469 
L 232.748904 -270.775864 
L 235.580913 -257.584485 
L 238.412922 -275.373693 
L 241.244931 -248.543054 
L 244.07694 -263.662074 
L 246.90895 -262.136635 
L 249.740959 -285.833868 
L 252.572968 -265.714098 
L 255.404977 -283.578204 
L 258.236986 -259.690995 
L 261.068995 -255.800179 
L 263.901005 -280.000809 
L 266.733014 -269.375618 
L 269.565023 -268.805839 
L 272.397032 -261.637843 
L 275.229041 -279.592979 
L 278.06105 -255.849469 
L 280.89306 -249.750726 
L 283.725069 -249.651818 
L 286.557078 -260.195124 
L 289.389087 -270.729542 
L 292.221096 -270.232198 
L 295.053105 -265.593037 
L 297.885115 -247.492781 
L 300.717124 -256.287523 
L 303.549133 -267.693284 
L 306.381142 -260.105672 
L 309.213151 -273.626153 
L 312.04516 -257.345463 
L 314.87717 -274.778284 
L 317.709179 -271.068113 
L 320.541188 -269.386534 
L 323.373197 -280.922845 
L 326.205206 -248.20824 
L 329.037215 -253.104561 
L 331.869225 -273.614479 
L 334.701234 -291.986322 
L 337.533243 -258.293133 
L 340.365252 -265.333364 
L 343.197261 -281.06525 
L 346.02927 -255.315956 
L 348.86128 -259.45873 
L 351.693289 -269.399309 
L 354.525298 -273.35419 
L 357.357307 -265.263722 
L 360.189316 -265.109569 
L 363.021325 -292.659314 
L 365.853335 -267.809697 
L 368.685344 -270.212387 
L 371.517353 -283.75916 
L 374.349362 -270.592269 
L 377.181371 -269.590144 
L 380.01338 -266.761015 
L 382.84539 -270.568738 
L 385.677399 -268.791186 
L 388.509408 -273.412884 
L 391.341417 -270.266627 
L 394.173426 -283.062091 
L 397.005435 -281.870174 
L 399.837445 -267.946953 
L 402.669454 -276.423799 
L 405.501463 -275.743404 
L 408.333472 -271.48889 
L 411.165481 -270.677698 
L 413.99749 -278.56334 
L 416.8295 -278.465917 
L 419.661509 -278.670386 
L 422.493518 -263.760768 
L 425.325527 -272.963566 
L 428.157536 -270.938929 
L 430.989545 -270.929557 
L 430.989545 -253.833009 
L 430.989545 -253.833009 
L 428.157536 -247.635409 
L 425.325527 -253.111682 
L 422.493518 -256.10113 
L 419.661509 -227.24766 
L 416.8295 -241.937763 
L 413.99749 -234.51616 
L 411.165481 -249.863649 
L 408.333472 -242.600963 
L 405.501463 -238.847014 
L 402.669454 -250.417966 
L 399.837445 -233.230115 
L 397.005435 -221.507783 
L 394.173426 -216.680971 
L 391.341417 -203.773699 
L 388.509408 -245.856074 
L 385.677399 -240.869777 
L 382.84539 -247.147987 
L 380.01338 -234.609456 
L 377.181371 -243.114711 
L 374.349362 -251.596744 
L 371.517353 -233.956038 
L 368.685344 -220.81403 
L 365.853335 -232.047659 
L 363.021325 -224.045425 
L 360.189316 -234.951333 
L 357.357307 -221.697251 
L 354.525298 -247.47462 
L 351.693289 -225.501202 
L 348.86128 -197.708209 
L 346.02927 -227.466962 
L 343.197261 -224.264512 
L 340.365252 -216.06318 
L 337.533243 -224.144205 
L 334.701234 -230.567602 
L 331.869225 -213.961242 
L 329.037215 -204.117293 
L 326.205206 -218.812165 
L 323.373197 -213.89583 
L 320.541188 -215.818369 
L 317.709179 -217.426422 
L 314.87717 -228.305497 
L 312.04516 -201.418991 
L 309.213151 -209.689667 
L 306.381142 -216.770577 
L 303.549133 -215.054836 
L 300.717124 -189.036299 
L 297.885115 -212.122558 
L 295.053105 -204.478769 
L 292.221096 -238.075266 
L 289.389087 -224.655905 
L 286.557078 -220.977552 
L 283.725069 -223.866573 
L 280.89306 -211.596512 
L 278.06105 -217.622435 
L 275.229041 -209.725491 
L 272.397032 -212.992727 
L 269.565023 -205.668439 
L 266.733014 -202.723378 
L 263.901005 -219.660256 
L 261.068995 -200.109677 
L 258.236986 -226.357535 
L 255.404977 -186.697015 
L 252.572968 -219.570632 
L 249.740959 -199.785947 
L 246.90895 -180.17892 
L 244.07694 -203.269569 
L 241.244931 -198.973832 
L 238.412922 -172.968893 
L 235.580913 -181.184899 
L 232.748904 -190.516816 
L 229.916895 -195.485599 
L 227.084885 -148.063963 
L 224.252876 -220.143645 
L 221.420867 -210.769277 
L 218.588858 -176.617681 
L 215.756849 -211.50185 
L 212.92484 -188.621252 
L 210.09283 -178.738688 
L 207.260821 -192.213065 
L 204.428812 -198.559116 
L 201.596803 -185.267614 
L 198.764794 -100.661963 
L 195.932785 -197.337844 
L 193.100775 -201.479068 
L 190.268766 -189.840479 
L 187.436757 -216.382384 
L 184.604748 -186.264019 
L 181.772739 -180.194118 
L 178.94073 -188.359733 
L 176.10872 -173.85043 
L 173.276711 -190.767984 
L 170.444702 -177.642634 
L 167.612693 -177.041766 
L 164.780684 -188.390275 
L 161.948675 -176.556527 
L 159.116665 -191.261194 
L 156.284656 -174.934045 
L 153.452647 -185.794852 
L 150.620638 -176.335094 
L 147.788629 -63.744545 
L 144.95662 -180.259273 
L 142.12461 -177.852861 
L 139.292601 -173.094668 
L 136.460592 -186.007416 
L 133.628583 -183.368229 
L 130.796574 -178.071433 
L 127.964565 -134.333088 
L 125.132555 -185.547925 
L 122.300546 -178.797388 
L 119.468537 -172.380119 
L 116.636528 -171.991095 
L 113.804519 -168.604507 
L 110.97251 -166.827875 
L 108.1405 -169.583335 
L 105.308491 -154.658416 
L 102.476482 -150.125512 
L 99.644473 -133.939599 
L 96.812464 -139.137194 
L 93.980455 -138.418895 
z
" style="stroke: #ffffff; stroke-opacity: 0.5"/>
    </defs>
    <g clip-path="url(#pc83f0b2b97)">
     <use xlink:href="#m2a2b55e95c" x="0" y="345.6" style="fill: #8172b3; fill-opacity: 0.5; stroke: #ffffff; stroke-opacity: 0.5"/>
    </g>
   </g>
   <g id="line2d_13">
    <path d="M 93.980455 176.502431 
L 96.812464 187.80493 
L 99.644473 182.17677 
L 102.476482 180.1667 
L 105.308491 87.924138 
L 108.1405 56.890576 
L 110.97251 55.599595 
L 113.804519 58.453892 
L 116.636528 54.671298 
L 119.468537 54.699117 
L 122.300546 54.690788 
L 125.132555 52.160144 
L 127.964565 53.167674 
L 130.796574 46.933284 
L 133.628583 47.18798 
L 136.460592 47.962225 
L 139.292601 43.468699 
L 142.12461 45.122281 
L 144.95662 45.990469 
L 147.788629 48.321357 
L 150.620638 46.182917 
L 153.452647 47.232703 
L 156.284656 43.055195 
L 159.116665 47.041055 
L 161.948675 48.771109 
L 164.780684 44.604391 
L 167.612693 45.267255 
L 170.444702 46.653417 
L 173.276711 48.015423 
L 176.10872 46.885159 
L 178.94073 46.126429 
L 181.772739 46.737575 
L 184.604748 47.076975 
L 187.436757 48.280215 
L 190.268766 47.56624 
L 193.100775 48.426617 
L 195.932785 48.061155 
L 198.764794 45.228242 
L 201.596803 47.895932 
L 204.428812 48.248442 
L 207.260821 46.468983 
L 210.09283 47.262238 
L 212.92484 45.021702 
L 215.756849 48.349667 
L 218.588858 48.071937 
L 221.420867 47.382191 
L 224.252876 47.239594 
L 227.084885 47.736716 
L 229.916895 48.610074 
L 232.748904 48.666443 
L 235.580913 48.235961 
L 238.412922 45.94045 
L 241.244931 46.823955 
L 244.07694 47.386654 
L 246.90895 46.226118 
L 249.740959 47.267185 
L 252.572968 47.220677 
L 255.404977 46.387404 
L 258.236986 46.86194 
L 261.068995 46.440497 
L 263.901005 46.6814 
L 266.733014 46.492673 
L 269.565023 47.339216 
L 272.397032 47.468292 
L 275.229041 46.927186 
L 278.06105 46.94223 
L 280.89306 47.278068 
L 283.725069 46.907225 
L 286.557078 47.68499 
L 289.389087 47.234417 
L 292.221096 47.60263 
L 295.053105 47.879878 
L 297.885115 47.269983 
L 300.717124 47.202198 
L 303.549133 45.606603 
L 306.381142 47.49031 
L 309.213151 47.022673 
L 312.04516 47.26619 
L 314.87717 46.811974 
L 317.709179 47.410478 
L 320.541188 47.185979 
L 323.373197 46.60306 
L 326.205206 47.640264 
L 329.037215 47.051574 
L 331.869225 46.855203 
L 334.701234 46.499791 
L 337.533243 46.753305 
L 340.365252 47.608983 
L 343.197261 47.489922 
L 346.02927 47.195098 
L 348.86128 47.215178 
L 351.693289 47.419566 
L 354.525298 47.882638 
L 357.357307 47.038803 
L 360.189316 46.0326 
L 363.021325 47.568356 
L 365.853335 47.471242 
L 368.685344 47.117378 
L 371.517353 47.217602 
L 374.349362 47.165805 
L 377.181371 47.429548 
L 380.01338 47.533921 
L 382.84539 46.908743 
L 385.677399 47.0418 
L 388.509408 46.727763 
L 391.341417 46.41298 
L 394.173426 47.137237 
L 397.005435 47.220393 
L 399.837445 46.76093 
L 402.669454 46.498476 
L 405.501463 47.242952 
L 408.333472 47.081547 
L 411.165481 47.09466 
L 413.99749 47.042079 
L 416.8295 47.298456 
L 419.661509 47.122651 
L 422.493518 47.285834 
L 425.325527 46.886652 
L 428.157536 47.296315 
L 430.989545 47.448906 
" clip-path="url(#pc83f0b2b97)" style="fill: none; stroke: #4c72b0; stroke-width: 3; stroke-linecap: round"/>
   </g>
   <g id="line2d_14">
    <path d="M 93.980455 183.078107 
L 96.812464 182.553263 
L 99.644473 182.202854 
L 102.476482 186.045889 
L 105.308491 125.099801 
L 108.1405 90.311259 
L 110.97251 65.433298 
L 113.804519 64.97561 
L 116.636528 64.899147 
L 119.468537 64.62513 
L 122.300546 58.794079 
L 125.132555 55.975463 
L 127.964565 57.462168 
L 130.796574 55.717098 
L 133.628583 53.864227 
L 136.460592 54.383859 
L 139.292601 55.714934 
L 142.12461 54.508036 
L 144.95662 54.717099 
L 147.788629 51.774276 
L 150.620638 62.874799 
L 153.452647 50.258035 
L 156.284656 51.975193 
L 159.116665 56.198032 
L 161.948675 56.270275 
L 164.780684 51.69997 
L 167.612693 51.57634 
L 170.444702 56.133326 
L 173.276711 53.766802 
L 176.10872 54.724841 
L 178.94073 51.596053 
L 181.772739 48.066418 
L 184.604748 50.863638 
L 187.436757 59.323244 
L 190.268766 51.034829 
L 193.100775 51.379592 
L 195.932785 53.301719 
L 198.764794 49.621389 
L 201.596803 57.559234 
L 204.428812 48.255245 
L 207.260821 47.057109 
L 210.09283 48.151782 
L 212.92484 51.517129 
L 215.756849 49.517156 
L 218.588858 47.622419 
L 221.420867 51.584378 
L 224.252876 46.830909 
L 227.084885 46.615414 
L 229.916895 49.520422 
L 232.748904 52.092044 
L 235.580913 47.931133 
L 238.412922 45.931262 
L 241.244931 51.072738 
L 244.07694 50.15035 
L 246.90895 46.507524 
L 249.740959 46.98507 
L 252.572968 42.443725 
L 255.404977 46.361074 
L 258.236986 48.569567 
L 261.068995 46.82121 
L 263.901005 49.181307 
L 266.733014 50.007145 
L 269.565023 46.958543 
L 272.397032 48.0119 
L 275.229041 45.194842 
L 278.06105 43.847634 
L 280.89306 48.986506 
L 283.725069 46.819559 
L 286.557078 47.447547 
L 289.389087 47.493262 
L 292.221096 43.381958 
L 295.053105 47.757905 
L 297.885115 50.38943 
L 300.717124 45.948817 
L 303.549133 46.974665 
L 306.381142 46.303701 
L 309.213151 46.666726 
L 312.04516 46.894565 
L 314.87717 48.100419 
L 317.709179 46.814052 
L 320.541188 50.63305 
L 323.373197 47.574457 
L 326.205206 46.312277 
L 329.037215 47.33415 
L 331.869225 50.211317 
L 334.701234 43.974314 
L 337.533243 46.73361 
L 340.365252 46.317502 
L 343.197261 47.649001 
L 346.02927 44.863405 
L 348.86128 47.622525 
L 351.693289 47.215615 
L 354.525298 47.13193 
L 357.357307 43.884974 
L 360.189316 48.755923 
L 363.021325 48.152054 
L 365.853335 48.158802 
L 368.685344 48.776641 
L 371.517353 46.301473 
L 374.349362 48.250634 
L 377.181371 46.575202 
L 380.01338 46.203403 
L 382.84539 46.666428 
L 385.677399 45.74662 
L 388.509408 47.423741 
L 391.341417 45.354241 
L 394.173426 47.510375 
L 397.005435 49.236901 
L 399.837445 47.545237 
L 402.669454 46.929134 
L 405.501463 47.284695 
L 408.333472 46.046552 
L 411.165481 51.421521 
L 413.99749 48.204169 
L 416.8295 43.432668 
L 419.661509 49.537244 
L 422.493518 48.827122 
L 425.325527 46.519744 
L 428.157536 48.007367 
L 430.989545 48.741421 
" clip-path="url(#pc83f0b2b97)" style="fill: none; stroke: #dd8452; stroke-width: 3; stroke-linecap: round"/>
   </g>
   <g id="line2d_15">
    <path d="M 93.980455 196.978865 
L 96.812464 177.741862 
L 99.644473 192.612707 
L 102.476482 188.861871 
L 105.308491 154.85866 
L 108.1405 167.524106 
L 110.97251 166.68575 
L 113.804519 157.480161 
L 116.636528 128.892554 
L 119.468537 129.629632 
L 122.300546 127.919005 
L 125.132555 140.687858 
L 127.964565 115.062661 
L 130.796574 114.002472 
L 133.628583 102.57707 
L 136.460592 115.005593 
L 139.292601 85.891388 
L 142.12461 98.518852 
L 144.95662 98.17505 
L 147.788629 95.304695 
L 150.620638 91.61278 
L 153.452647 84.36761 
L 156.284656 89.187629 
L 159.116665 72.948088 
L 161.948675 62.06392 
L 164.780684 69.352582 
L 167.612693 75.396114 
L 170.444702 63.002877 
L 173.276711 88.456618 
L 176.10872 72.442684 
L 178.94073 60.058784 
L 181.772739 89.069592 
L 184.604748 77.163585 
L 187.436757 65.956155 
L 190.268766 63.393285 
L 193.100775 60.538645 
L 195.932785 71.740082 
L 198.764794 70.549452 
L 201.596803 59.050332 
L 204.428812 63.900069 
L 207.260821 61.105132 
L 210.09283 66.622912 
L 212.92484 71.028309 
L 215.756849 67.281231 
L 218.588858 69.88079 
L 221.420867 64.746306 
L 224.252876 67.006003 
L 227.084885 67.109361 
L 229.916895 57.79148 
L 232.748904 60.865034 
L 235.580913 62.745858 
L 238.412922 58.945626 
L 241.244931 63.573058 
L 244.07694 60.865838 
L 246.90895 66.866909 
L 249.740959 52.417905 
L 252.572968 54.89139 
L 255.404977 57.749121 
L 258.236986 53.987924 
L 261.068995 53.96983 
L 263.901005 61.77441 
L 266.733014 65.056721 
L 269.565023 61.289976 
L 272.397032 54.95519 
L 275.229041 61.725795 
L 278.06105 59.951011 
L 280.89306 58.218409 
L 283.725069 56.212866 
L 286.557078 59.517274 
L 289.389087 56.131639 
L 292.221096 55.822314 
L 295.053105 53.606679 
L 297.885115 56.587885 
L 300.717124 58.324656 
L 303.549133 63.207506 
L 306.381142 57.707162 
L 309.213151 51.930028 
L 312.04516 55.350385 
L 314.87717 61.512911 
L 317.709179 57.201537 
L 320.541188 60.880274 
L 323.373197 57.543574 
L 326.205206 60.42882 
L 329.037215 61.598329 
L 331.869225 58.445867 
L 334.701234 57.472562 
L 337.533243 56.766553 
L 340.365252 61.488888 
L 343.197261 56.128599 
L 346.02927 55.362214 
L 348.86128 53.814888 
L 351.693289 59.210921 
L 354.525298 62.724546 
L 357.357307 55.819515 
L 360.189316 55.833818 
L 363.021325 60.131252 
L 365.853335 56.971189 
L 368.685344 54.814951 
L 371.517353 54.88348 
L 374.349362 55.851871 
L 377.181371 58.269935 
L 380.01338 55.089495 
L 382.84539 60.005197 
L 385.677399 56.386095 
L 388.509408 57.14178 
L 391.341417 58.094923 
L 394.173426 54.930189 
L 397.005435 60.822304 
L 399.837445 62.583401 
L 402.669454 56.278173 
L 405.501463 60.884622 
L 408.333472 56.29373 
L 411.165481 61.767553 
L 413.99749 58.382893 
L 416.8295 61.001239 
L 419.661509 59.803737 
L 422.493518 65.780334 
L 425.325527 58.815569 
L 428.157536 52.606929 
L 430.989545 57.964255 
" clip-path="url(#pc83f0b2b97)" style="fill: none; stroke: #55a868; stroke-width: 3; stroke-linecap: round"/>
   </g>
   <g id="line2d_16">
    <path d="M 93.980455 187.111409 
L 96.812464 194.999407 
L 99.644473 191.462803 
L 102.476482 181.52513 
L 105.308491 166.696144 
L 108.1405 149.538245 
L 110.97251 153.608652 
L 113.804519 167.710283 
L 116.636528 153.584665 
L 119.468537 150.387483 
L 122.300546 151.281844 
L 125.132555 141.455542 
L 127.964565 128.126263 
L 130.796574 118.836711 
L 133.628583 125.151271 
L 136.460592 122.239321 
L 139.292601 117.415007 
L 142.12461 120.227775 
L 144.95662 138.352831 
L 147.788629 106.308546 
L 150.620638 119.671005 
L 153.452647 102.917395 
L 156.284656 108.627516 
L 159.116665 107.897551 
L 161.948675 114.380833 
L 164.780684 108.255165 
L 167.612693 108.56966 
L 170.444702 81.666857 
L 173.276711 90.467308 
L 176.10872 96.316493 
L 178.94073 115.217093 
L 181.772739 90.267129 
L 184.604748 102.132468 
L 187.436757 93.467472 
L 190.268766 81.001554 
L 193.100775 83.533206 
L 195.932785 98.344246 
L 198.764794 79.804645 
L 201.596803 87.882559 
L 204.428812 84.515356 
L 207.260821 86.694344 
L 210.09283 83.089666 
L 212.92484 75.386264 
L 215.756849 78.159171 
L 218.588858 79.772628 
L 221.420867 78.36299 
L 224.252876 84.875765 
L 227.084885 83.166018 
L 229.916895 77.304233 
L 232.748904 68.624781 
L 235.580913 85.95528 
L 238.412922 62.065846 
L 241.244931 71.419145 
L 244.07694 77.650187 
L 246.90895 75.326009 
L 249.740959 67.995778 
L 252.572968 80.177849 
L 255.404977 74.642591 
L 258.236986 74.55119 
L 261.068995 67.503416 
L 263.901005 71.595539 
L 266.733014 72.657152 
L 269.565023 81.061201 
L 272.397032 78.550677 
L 275.229041 67.858323 
L 278.06105 72.263778 
L 280.89306 84.226179 
L 283.725069 72.84312 
L 286.557078 71.069476 
L 289.389087 86.717697 
L 292.221096 79.668194 
L 295.053105 79.595974 
L 297.885115 74.539223 
L 300.717124 78.678776 
L 303.549133 88.825354 
L 306.381142 78.891719 
L 309.213151 73.691528 
L 312.04516 84.791094 
L 314.87717 86.198225 
L 317.709179 74.33753 
L 320.541188 74.982493 
L 323.373197 71.730106 
L 326.205206 78.024891 
L 329.037215 70.562792 
L 331.869225 83.673279 
L 334.701234 71.86944 
L 337.533243 84.441759 
L 340.365252 80.282706 
L 343.197261 63.938353 
L 346.02927 68.967283 
L 348.86128 76.216966 
L 351.693289 69.147704 
L 354.525298 78.523748 
L 357.357307 78.220634 
L 360.189316 67.225848 
L 363.021325 83.858055 
L 365.853335 81.823984 
L 368.685344 74.928628 
L 371.517353 76.812374 
L 374.349362 65.818883 
L 377.181371 71.677285 
L 380.01338 70.180362 
L 382.84539 65.997423 
L 385.677399 76.042205 
L 388.509408 80.299146 
L 391.341417 69.122951 
L 394.173426 80.715745 
L 397.005435 75.14061 
L 399.837445 70.192006 
L 402.669454 76.895401 
L 405.501463 80.203875 
L 408.333472 66.473877 
L 411.165481 63.049531 
L 413.99749 68.681174 
L 416.8295 67.74723 
L 419.661509 69.802616 
L 422.493518 71.823389 
L 425.325527 68.228215 
L 428.157536 66.454327 
L 430.989545 65.904029 
" clip-path="url(#pc83f0b2b97)" style="fill: none; stroke: #c44e52; stroke-width: 3; stroke-linecap: round"/>
   </g>
   <g id="line2d_17">
    <path d="M 93.980455 194.18969 
L 96.812464 189.844379 
L 99.644473 188.986309 
L 102.476482 182.115652 
L 105.308491 183.910896 
L 108.1405 166.979689 
L 110.97251 169.231585 
L 113.804519 162.440062 
L 116.636528 153.954926 
L 119.468537 162.053725 
L 122.300546 155.00309 
L 125.132555 152.88878 
L 127.964565 169.785891 
L 130.796574 153.524795 
L 133.628583 153.200667 
L 136.460592 138.931261 
L 139.292601 154.898038 
L 142.12461 142.004726 
L 144.95662 146.128447 
L 147.788629 168.223689 
L 150.620638 129.823712 
L 153.452647 126.479075 
L 156.284656 144.340611 
L 159.116665 137.285716 
L 161.948675 147.958213 
L 164.780684 139.930576 
L 167.612693 131.269261 
L 170.444702 127.587498 
L 173.276711 144.420102 
L 176.10872 132.110881 
L 178.94073 124.475472 
L 181.772739 137.688887 
L 184.604748 142.417198 
L 187.436757 106.899287 
L 190.268766 127.885749 
L 193.100775 130.684189 
L 195.932785 133.792391 
L 198.764794 141.561568 
L 201.596803 139.020143 
L 204.428812 131.205835 
L 207.260821 115.480757 
L 210.09283 135.460813 
L 212.92484 115.323172 
L 215.756849 110.46557 
L 218.588858 127.517782 
L 221.420867 105.719676 
L 224.252876 94.420176 
L 227.084885 132.188911 
L 229.916895 106.009871 
L 232.748904 110.145711 
L 235.580913 126.581179 
L 238.412922 114.653692 
L 241.244931 118.015611 
L 244.07694 121.956383 
L 246.90895 125.575422 
L 249.740959 104.032702 
L 252.572968 110.536469 
L 255.404977 116.37582 
L 258.236986 105.532143 
L 261.068995 118.08292 
L 263.901005 100.998496 
L 266.733014 101.695089 
L 269.565023 118.553851 
L 272.397032 102.893599 
L 275.229041 98.327594 
L 278.06105 105.789411 
L 280.89306 116.127102 
L 283.725069 104.229709 
L 286.557078 107.996406 
L 289.389087 95.61784 
L 292.221096 94.531496 
L 295.053105 112.242145 
L 297.885115 111.684537 
L 300.717124 126.994061 
L 303.549133 103.872853 
L 306.381142 107.811635 
L 309.213151 107.503112 
L 312.04516 123.641899 
L 314.87717 101.207868 
L 317.709179 110.249624 
L 320.541188 106.577224 
L 323.373197 100.859771 
L 326.205206 106.765474 
L 329.037215 115.364154 
L 331.869225 101.424735 
L 334.701234 91.562136 
L 337.533243 108.910113 
L 340.365252 98.396832 
L 343.197261 91.414187 
L 346.02927 110.325538 
L 348.86128 109.013983 
L 351.693289 100.798414 
L 354.525298 85.057256 
L 357.357307 106.319676 
L 360.189316 93.853824 
L 363.021325 96.645145 
L 365.853335 98.126326 
L 368.685344 104.500451 
L 371.517353 92.481 
L 374.349362 86.024006 
L 377.181371 92.076856 
L 380.01338 94.271243 
L 382.84539 88.254077 
L 385.677399 95.457658 
L 388.509408 87.22825 
L 391.341417 101.78693 
L 394.173426 91.400752 
L 397.005435 86.895486 
L 399.837445 88.667554 
L 402.669454 85.283944 
L 405.501463 88.965295 
L 408.333472 87.630804 
L 411.165481 86.467283 
L 413.99749 81.914923 
L 416.8295 86.589973 
L 419.661509 94.708961 
L 422.493518 85.048525 
L 425.325527 84.707266 
L 428.157536 86.483394 
L 430.989545 84.221265 
" clip-path="url(#pc83f0b2b97)" style="fill: none; stroke: #8172b3; stroke-width: 3; stroke-linecap: round"/>
   </g>
   <g id="patch_3">
    <path d="M 77.13 294.66 
L 77.13 12.96 
" style="fill: none; stroke: #ffffff; stroke-width: 1.25; stroke-linejoin: miter; stroke-linecap: square"/>
   </g>
   <g id="patch_4">
    <path d="M 447.84 294.66 
L 447.84 12.96 
" style="fill: none; stroke: #ffffff; stroke-width: 1.25; stroke-linejoin: miter; stroke-linecap: square"/>
   </g>
   <g id="patch_5">
    <path d="M 77.13 294.66 
L 447.84 294.66 
" style="fill: none; stroke: #ffffff; stroke-width: 1.25; stroke-linejoin: miter; stroke-linecap: square"/>
   </g>
   <g id="patch_6">
    <path d="M 77.13 12.96 
L 447.84 12.96 
" style="fill: none; stroke: #ffffff; stroke-width: 1.25; stroke-linejoin: miter; stroke-linecap: square"/>
   </g>
   <g id="legend_1">
    <g id="patch_7">
     <path d="M 84.83 289.16 
L 212.246094 289.16 
Q 214.446094 289.16 214.446094 286.96 
L 214.446094 207.330312 
Q 214.446094 205.130313 212.246094 205.130313 
L 84.83 205.130313 
Q 82.63 205.130313 82.63 207.330312 
L 82.63 286.96 
Q 82.63 289.16 84.83 289.16 
z
" style="fill: #eaeaf2; opacity: 0.8; stroke: #cccccc; stroke-linejoin: miter"/>
    </g>
    <g id="line2d_18">
     <path d="M 87.03 214.038594 
L 98.03 214.038594 
L 109.03 214.038594 
" style="fill: none; stroke: #4c72b0; stroke-width: 3; stroke-linecap: round"/>
    </g>
    <g id="text_15">
     <!-- SAC-DELAY-0 -->
     <g style="fill: #262626" transform="translate(117.83 217.888594)scale(0.11 -0.11)">
      <defs>
       <path id="DejaVuSans-53" d="M 3425 4513 
L 3425 3897 
Q 3066 4069 2747 4153 
Q 2428 4238 2131 4238 
Q 1616 4238 1336 4038 
Q 1056 3838 1056 3469 
Q 1056 3159 1242 3001 
Q 1428 2844 1947 2747 
L 2328 2669 
Q 3034 2534 3370 2195 
Q 3706 1856 3706 1288 
Q 3706 609 3251 259 
Q 2797 -91 1919 -91 
Q 1588 -91 1214 -16 
Q 841 59 441 206 
L 441 856 
Q 825 641 1194 531 
Q 1563 422 1919 422 
Q 2459 422 2753 634 
Q 3047 847 3047 1241 
Q 3047 1584 2836 1778 
Q 2625 1972 2144 2069 
L 1759 2144 
Q 1053 2284 737 2584 
Q 422 2884 422 3419 
Q 422 4038 858 4394 
Q 1294 4750 2059 4750 
Q 2388 4750 2728 4690 
Q 3069 4631 3425 4513 
z
" transform="scale(0.015625)"/>
       <path id="DejaVuSans-41" d="M 2188 4044 
L 1331 1722 
L 3047 1722 
L 2188 4044 
z
M 1831 4666 
L 2547 4666 
L 4325 0 
L 3669 0 
L 3244 1197 
L 1141 1197 
L 716 0 
L 50 0 
L 1831 4666 
z
" transform="scale(0.015625)"/>
       <path id="DejaVuSans-43" d="M 4122 4306 
L 4122 3641 
Q 3803 3938 3442 4084 
Q 3081 4231 2675 4231 
Q 1875 4231 1450 3742 
Q 1025 3253 1025 2328 
Q 1025 1406 1450 917 
Q 1875 428 2675 428 
Q 3081 428 3442 575 
Q 3803 722 4122 1019 
L 4122 359 
Q 3791 134 3420 21 
Q 3050 -91 2638 -91 
Q 1578 -91 968 557 
Q 359 1206 359 2328 
Q 359 3453 968 4101 
Q 1578 4750 2638 4750 
Q 3056 4750 3426 4639 
Q 3797 4528 4122 4306 
z
" transform="scale(0.015625)"/>
       <path id="DejaVuSans-2d" d="M 313 2009 
L 1997 2009 
L 1997 1497 
L 313 1497 
L 313 2009 
z
" transform="scale(0.015625)"/>
       <path id="DejaVuSans-44" d="M 1259 4147 
L 1259 519 
L 2022 519 
Q 2988 519 3436 956 
Q 3884 1394 3884 2338 
Q 3884 3275 3436 3711 
Q 2988 4147 2022 4147 
L 1259 4147 
z
M 628 4666 
L 1925 4666 
Q 3281 4666 3915 4102 
Q 4550 3538 4550 2338 
Q 4550 1131 3912 565 
Q 3275 0 1925 0 
L 628 0 
L 628 4666 
z
" transform="scale(0.015625)"/>
       <path id="DejaVuSans-45" d="M 628 4666 
L 3578 4666 
L 3578 4134 
L 1259 4134 
L 1259 2753 
L 3481 2753 
L 3481 2222 
L 1259 2222 
L 1259 531 
L 3634 531 
L 3634 0 
L 628 0 
L 628 4666 
z
" transform="scale(0.015625)"/>
       <path id="DejaVuSans-4c" d="M 628 4666 
L 1259 4666 
L 1259 531 
L 3531 531 
L 3531 0 
L 628 0 
L 628 4666 
z
" transform="scale(0.015625)"/>
       <path id="DejaVuSans-59" d="M -13 4666 
L 666 4666 
L 1959 2747 
L 3244 4666 
L 3922 4666 
L 2272 2222 
L 2272 0 
L 1638 0 
L 1638 2222 
L -13 4666 
z
" transform="scale(0.015625)"/>
      </defs>
      <use xlink:href="#DejaVuSans-53"/>
      <use xlink:href="#DejaVuSans-41" x="65.351562"/>
      <use xlink:href="#DejaVuSans-43" x="132.009766"/>
      <use xlink:href="#DejaVuSans-2d" x="201.833984"/>
      <use xlink:href="#DejaVuSans-44" x="237.917969"/>
      <use xlink:href="#DejaVuSans-45" x="314.919922"/>
      <use xlink:href="#DejaVuSans-4c" x="378.103516"/>
      <use xlink:href="#DejaVuSans-41" x="436.066406"/>
      <use xlink:href="#DejaVuSans-59" x="496.724609"/>
      <use xlink:href="#DejaVuSans-2d" x="545.933594"/>
      <use xlink:href="#DejaVuSans-30" x="582.017578"/>
     </g>
    </g>
    <g id="line2d_19">
     <path d="M 87.03 230.184531 
L 98.03 230.184531 
L 109.03 230.184531 
" style="fill: none; stroke: #dd8452; stroke-width: 3; stroke-linecap: round"/>
    </g>
    <g id="text_16">
     <!-- SAC-IS-DELAY-1 -->
     <g style="fill: #262626" transform="translate(117.83 234.034531)scale(0.11 -0.11)">
      <defs>
       <path id="DejaVuSans-49" d="M 628 4666 
L 1259 4666 
L 1259 0 
L 628 0 
L 628 4666 
z
" transform="scale(0.015625)"/>
      </defs>
      <use xlink:href="#DejaVuSans-53"/>
      <use xlink:href="#DejaVuSans-41" x="65.351562"/>
      <use xlink:href="#DejaVuSans-43" x="132.009766"/>
      <use xlink:href="#DejaVuSans-2d" x="201.833984"/>
      <use xlink:href="#DejaVuSans-49" x="237.917969"/>
      <use xlink:href="#DejaVuSans-53" x="267.410156"/>
      <use xlink:href="#DejaVuSans-2d" x="330.886719"/>
      <use xlink:href="#DejaVuSans-44" x="366.970703"/>
      <use xlink:href="#DejaVuSans-45" x="443.972656"/>
      <use xlink:href="#DejaVuSans-4c" x="507.15625"/>
      <use xlink:href="#DejaVuSans-41" x="565.119141"/>
      <use xlink:href="#DejaVuSans-59" x="625.777344"/>
      <use xlink:href="#DejaVuSans-2d" x="674.986328"/>
      <use xlink:href="#DejaVuSans-31" x="711.070312"/>
     </g>
    </g>
    <g id="line2d_20">
     <path d="M 87.03 246.330469 
L 98.03 246.330469 
L 109.03 246.330469 
" style="fill: none; stroke: #55a868; stroke-width: 3; stroke-linecap: round"/>
    </g>
    <g id="text_17">
     <!-- SAC-IS-DELAY-5 -->
     <g style="fill: #262626" transform="translate(117.83 250.180469)scale(0.11 -0.11)">
      <use xlink:href="#DejaVuSans-53"/>
      <use xlink:href="#DejaVuSans-41" x="65.351562"/>
      <use xlink:href="#DejaVuSans-43" x="132.009766"/>
      <use xlink:href="#DejaVuSans-2d" x="201.833984"/>
      <use xlink:href="#DejaVuSans-49" x="237.917969"/>
      <use xlink:href="#DejaVuSans-53" x="267.410156"/>
      <use xlink:href="#DejaVuSans-2d" x="330.886719"/>
      <use xlink:href="#DejaVuSans-44" x="366.970703"/>
      <use xlink:href="#DejaVuSans-45" x="443.972656"/>
      <use xlink:href="#DejaVuSans-4c" x="507.15625"/>
      <use xlink:href="#DejaVuSans-41" x="565.119141"/>
      <use xlink:href="#DejaVuSans-59" x="625.777344"/>
      <use xlink:href="#DejaVuSans-2d" x="674.986328"/>
      <use xlink:href="#DejaVuSans-35" x="711.070312"/>
     </g>
    </g>
    <g id="line2d_21">
     <path d="M 87.03 262.476406 
L 98.03 262.476406 
L 109.03 262.476406 
" style="fill: none; stroke: #c44e52; stroke-width: 3; stroke-linecap: round"/>
    </g>
    <g id="text_18">
     <!-- SAC-IS-DELAY-10 -->
     <g style="fill: #262626" transform="translate(117.83 266.326406)scale(0.11 -0.11)">
      <use xlink:href="#DejaVuSans-53"/>
      <use xlink:href="#DejaVuSans-41" x="65.351562"/>
      <use xlink:href="#DejaVuSans-43" x="132.009766"/>
      <use xlink:href="#DejaVuSans-2d" x="201.833984"/>
      <use xlink:href="#DejaVuSans-49" x="237.917969"/>
      <use xlink:href="#DejaVuSans-53" x="267.410156"/>
      <use xlink:href="#DejaVuSans-2d" x="330.886719"/>
      <use xlink:href="#DejaVuSans-44" x="366.970703"/>
      <use xlink:href="#DejaVuSans-45" x="443.972656"/>
      <use xlink:href="#DejaVuSans-4c" x="507.15625"/>
      <use xlink:href="#DejaVuSans-41" x="565.119141"/>
      <use xlink:href="#DejaVuSans-59" x="625.777344"/>
      <use xlink:href="#DejaVuSans-2d" x="674.986328"/>
      <use xlink:href="#DejaVuSans-31" x="711.070312"/>
      <use xlink:href="#DejaVuSans-30" x="774.693359"/>
     </g>
    </g>
    <g id="line2d_22">
     <path d="M 87.03 278.622344 
L 98.03 278.622344 
L 109.03 278.622344 
" style="fill: none; stroke: #8172b3; stroke-width: 3; stroke-linecap: round"/>
    </g>
    <g id="text_19">
     <!-- SAC-IS-DELAY-20 -->
     <g style="fill: #262626" transform="translate(117.83 282.472344)scale(0.11 -0.11)">
      <use xlink:href="#DejaVuSans-53"/>
      <use xlink:href="#DejaVuSans-41" x="65.351562"/>
      <use xlink:href="#DejaVuSans-43" x="132.009766"/>
      <use xlink:href="#DejaVuSans-2d" x="201.833984"/>
      <use xlink:href="#DejaVuSans-49" x="237.917969"/>
      <use xlink:href="#DejaVuSans-53" x="267.410156"/>
      <use xlink:href="#DejaVuSans-2d" x="330.886719"/>
      <use xlink:href="#DejaVuSans-44" x="366.970703"/>
      <use xlink:href="#DejaVuSans-45" x="443.972656"/>
      <use xlink:href="#DejaVuSans-4c" x="507.15625"/>
      <use xlink:href="#DejaVuSans-41" x="565.119141"/>
      <use xlink:href="#DejaVuSans-59" x="625.777344"/>
      <use xlink:href="#DejaVuSans-2d" x="674.986328"/>
      <use xlink:href="#DejaVuSans-32" x="711.070312"/>
      <use xlink:href="#DejaVuSans-30" x="774.693359"/>
     </g>
    </g>
   </g>
  </g>
 </g>
 <defs>
  <clipPath id="pc83f0b2b97">
   <rect x="77.13" y="12.96" width="370.71" height="281.7"/>
  </clipPath>
 </defs>
</svg>
