<?xml version="1.0" encoding="utf-8" standalone="no"?>
<!DOCTYPE svg PUBLIC "-//W3C//DTD SVG 1.1//EN"
  "http://www.w3.org/Graphics/SVG/1.1/DTD/svg11.dtd">
<svg xmlns:xlink="http://www.w3.org/1999/xlink" width="460.8pt" height="345.6pt" viewBox="0 0 460.8 345.6" xmlns="http://www.w3.org/2000/svg" version="1.1">
 <metadata>
  <rdf:RDF xmlns:dc="http://purl.org/dc/elements/1.1/" xmlns:cc="http://creativecommons.org/ns#" xmlns:rdf="http://www.w3.org/1999/02/22-rdf-syntax-ns#">
   <cc:Work>
    <dc:type rdf:resource="http://purl.org/dc/dcmitype/StillImage"/>
    <dc:date>2022-09-12T15:15:59.508421</dc:date>
    <dc:format>image/svg+xml</dc:format>
    <dc:creator>
     <cc:Agent>
      <dc:title>Matplotlib v3.5.3, https://matplotlib.org/</dc:title>
     </cc:Agent>
    </dc:creator>
   </cc:Work>
  </rdf:RDF>
 </metadata>
 <defs>
  <style type="text/css">*{stroke-linejoin: round; stroke-linecap: butt}</style>
 </defs>
 <g id="figure_1">
  <g id="patch_1">
   <path d="M 0 345.6 
L 460.8 345.6 
L 460.8 0 
L 0 0 
z
" style="fill: #ffffff"/>
  </g>
  <g id="axes_1">
   <g id="patch_2">
    <path d="M 77.13 294.66 
L 447.84 294.66 
L 447.84 12.96 
L 77.13 12.96 
z
" style="fill: #eaeaf2"/>
   </g>
   <g id="matplotlib.axis_1">
    <g id="xtick_1">
     <g id="line2d_1">
      <path d="M 91.148445 294.66 
L 91.148445 12.96 
" clip-path="url(#p87212b8970)" style="fill: none; stroke: #ffffff; stroke-linecap: round"/>
     </g>
     <g id="text_1">
      <!-- 0.00 -->
      <g style="fill: #262626" transform="translate(78.902352 312.518281)scale(0.11 -0.11)">
       <defs>
        <path id="DejaVuSans-30" d="M 2034 4250 
Q 1547 4250 1301 3770 
Q 1056 3291 1056 2328 
Q 1056 1369 1301 889 
Q 1547 409 2034 409 
Q 2525 409 2770 889 
Q 3016 1369 3016 2328 
Q 3016 3291 2770 3770 
Q 2525 4250 2034 4250 
z
M 2034 4750 
Q 2819 4750 3233 4129 
Q 3647 3509 3647 2328 
Q 3647 1150 3233 529 
Q 2819 -91 2034 -91 
Q 1250 -91 836 529 
Q 422 1150 422 2328 
Q 422 3509 836 4129 
Q 1250 4750 2034 4750 
z
" transform="scale(0.015625)"/>
        <path id="DejaVuSans-2e" d="M 684 794 
L 1344 794 
L 1344 0 
L 684 0 
L 684 794 
z
" transform="scale(0.015625)"/>
       </defs>
       <use xlink:href="#DejaVuSans-30"/>
       <use xlink:href="#DejaVuSans-2e" x="63.623047"/>
       <use xlink:href="#DejaVuSans-30" x="95.410156"/>
       <use xlink:href="#DejaVuSans-30" x="159.033203"/>
      </g>
     </g>
    </g>
    <g id="xtick_2">
     <g id="line2d_2">
      <path d="M 147.788629 294.66 
L 147.788629 12.96 
" clip-path="url(#p87212b8970)" style="fill: none; stroke: #ffffff; stroke-linecap: round"/>
     </g>
     <g id="text_2">
      <!-- 0.05 -->
      <g style="fill: #262626" transform="translate(135.542535 312.518281)scale(0.11 -0.11)">
       <defs>
        <path id="DejaVuSans-35" d="M 691 4666 
L 3169 4666 
L 3169 4134 
L 1269 4134 
L 1269 2991 
Q 1406 3038 1543 3061 
Q 1681 3084 1819 3084 
Q 2600 3084 3056 2656 
Q 3513 2228 3513 1497 
Q 3513 744 3044 326 
Q 2575 -91 1722 -91 
Q 1428 -91 1123 -41 
Q 819 9 494 109 
L 494 744 
Q 775 591 1075 516 
Q 1375 441 1709 441 
Q 2250 441 2565 725 
Q 2881 1009 2881 1497 
Q 2881 1984 2565 2268 
Q 2250 2553 1709 2553 
Q 1456 2553 1204 2497 
Q 953 2441 691 2322 
L 691 4666 
z
" transform="scale(0.015625)"/>
       </defs>
       <use xlink:href="#DejaVuSans-30"/>
       <use xlink:href="#DejaVuSans-2e" x="63.623047"/>
       <use xlink:href="#DejaVuSans-30" x="95.410156"/>
       <use xlink:href="#DejaVuSans-35" x="159.033203"/>
      </g>
     </g>
    </g>
    <g id="xtick_3">
     <g id="line2d_3">
      <path d="M 204.428812 294.66 
L 204.428812 12.96 
" clip-path="url(#p87212b8970)" style="fill: none; stroke: #ffffff; stroke-linecap: round"/>
     </g>
     <g id="text_3">
      <!-- 0.10 -->
      <g style="fill: #262626" transform="translate(192.182718 312.518281)scale(0.11 -0.11)">
       <defs>
        <path id="DejaVuSans-31" d="M 794 531 
L 1825 531 
L 1825 4091 
L 703 3866 
L 703 4441 
L 1819 4666 
L 2450 4666 
L 2450 531 
L 3481 531 
L 3481 0 
L 794 0 
L 794 531 
z
" transform="scale(0.015625)"/>
       </defs>
       <use xlink:href="#DejaVuSans-30"/>
       <use xlink:href="#DejaVuSans-2e" x="63.623047"/>
       <use xlink:href="#DejaVuSans-31" x="95.410156"/>
       <use xlink:href="#DejaVuSans-30" x="159.033203"/>
      </g>
     </g>
    </g>
    <g id="xtick_4">
     <g id="line2d_4">
      <path d="M 261.068995 294.66 
L 261.068995 12.96 
" clip-path="url(#p87212b8970)" style="fill: none; stroke: #ffffff; stroke-linecap: round"/>
     </g>
     <g id="text_4">
      <!-- 0.15 -->
      <g style="fill: #262626" transform="translate(248.822902 312.518281)scale(0.11 -0.11)">
       <use xlink:href="#DejaVuSans-30"/>
       <use xlink:href="#DejaVuSans-2e" x="63.623047"/>
       <use xlink:href="#DejaVuSans-31" x="95.410156"/>
       <use xlink:href="#DejaVuSans-35" x="159.033203"/>
      </g>
     </g>
    </g>
    <g id="xtick_5">
     <g id="line2d_5">
      <path d="M 317.709179 294.66 
L 317.709179 12.96 
" clip-path="url(#p87212b8970)" style="fill: none; stroke: #ffffff; stroke-linecap: round"/>
     </g>
     <g id="text_5">
      <!-- 0.20 -->
      <g style="fill: #262626" transform="translate(305.463085 312.518281)scale(0.11 -0.11)">
       <defs>
        <path id="DejaVuSans-32" d="M 1228 531 
L 3431 531 
L 3431 0 
L 469 0 
L 469 531 
Q 828 903 1448 1529 
Q 2069 2156 2228 2338 
Q 2531 2678 2651 2914 
Q 2772 3150 2772 3378 
Q 2772 3750 2511 3984 
Q 2250 4219 1831 4219 
Q 1534 4219 1204 4116 
Q 875 4013 500 3803 
L 500 4441 
Q 881 4594 1212 4672 
Q 1544 4750 1819 4750 
Q 2544 4750 2975 4387 
Q 3406 4025 3406 3419 
Q 3406 3131 3298 2873 
Q 3191 2616 2906 2266 
Q 2828 2175 2409 1742 
Q 1991 1309 1228 531 
z
" transform="scale(0.015625)"/>
       </defs>
       <use xlink:href="#DejaVuSans-30"/>
       <use xlink:href="#DejaVuSans-2e" x="63.623047"/>
       <use xlink:href="#DejaVuSans-32" x="95.410156"/>
       <use xlink:href="#DejaVuSans-30" x="159.033203"/>
      </g>
     </g>
    </g>
    <g id="xtick_6">
     <g id="line2d_6">
      <path d="M 374.349362 294.66 
L 374.349362 12.96 
" clip-path="url(#p87212b8970)" style="fill: none; stroke: #ffffff; stroke-linecap: round"/>
     </g>
     <g id="text_6">
      <!-- 0.25 -->
      <g style="fill: #262626" transform="translate(362.103268 312.518281)scale(0.11 -0.11)">
       <use xlink:href="#DejaVuSans-30"/>
       <use xlink:href="#DejaVuSans-2e" x="63.623047"/>
       <use xlink:href="#DejaVuSans-32" x="95.410156"/>
       <use xlink:href="#DejaVuSans-35" x="159.033203"/>
      </g>
     </g>
    </g>
    <g id="xtick_7">
     <g id="line2d_7">
      <path d="M 430.989545 294.66 
L 430.989545 12.96 
" clip-path="url(#p87212b8970)" style="fill: none; stroke: #ffffff; stroke-linecap: round"/>
     </g>
     <g id="text_7">
      <!-- 0.30 -->
      <g style="fill: #262626" transform="translate(418.743452 312.518281)scale(0.11 -0.11)">
       <defs>
        <path id="DejaVuSans-33" d="M 2597 2516 
Q 3050 2419 3304 2112 
Q 3559 1806 3559 1356 
Q 3559 666 3084 287 
Q 2609 -91 1734 -91 
Q 1441 -91 1130 -33 
Q 819 25 488 141 
L 488 750 
Q 750 597 1062 519 
Q 1375 441 1716 441 
Q 2309 441 2620 675 
Q 2931 909 2931 1356 
Q 2931 1769 2642 2001 
Q 2353 2234 1838 2234 
L 1294 2234 
L 1294 2753 
L 1863 2753 
Q 2328 2753 2575 2939 
Q 2822 3125 2822 3475 
Q 2822 3834 2567 4026 
Q 2313 4219 1838 4219 
Q 1578 4219 1281 4162 
Q 984 4106 628 3988 
L 628 4550 
Q 988 4650 1302 4700 
Q 1616 4750 1894 4750 
Q 2613 4750 3031 4423 
Q 3450 4097 3450 3541 
Q 3450 3153 3228 2886 
Q 3006 2619 2597 2516 
z
" transform="scale(0.015625)"/>
       </defs>
       <use xlink:href="#DejaVuSans-30"/>
       <use xlink:href="#DejaVuSans-2e" x="63.623047"/>
       <use xlink:href="#DejaVuSans-33" x="95.410156"/>
       <use xlink:href="#DejaVuSans-30" x="159.033203"/>
      </g>
     </g>
    </g>
    <g id="text_8">
     <!-- Zeitschritte (in Millionen) -->
     <g style="fill: #262626" transform="translate(174.570469 329.44375)scale(0.14 -0.14)">
      <defs>
       <path id="DejaVuSans-5a" d="M 359 4666 
L 4025 4666 
L 4025 4184 
L 1075 531 
L 4097 531 
L 4097 0 
L 288 0 
L 288 481 
L 3238 4134 
L 359 4134 
L 359 4666 
z
" transform="scale(0.015625)"/>
       <path id="DejaVuSans-65" d="M 3597 1894 
L 3597 1613 
L 953 1613 
Q 991 1019 1311 708 
Q 1631 397 2203 397 
Q 2534 397 2845 478 
Q 3156 559 3463 722 
L 3463 178 
Q 3153 47 2828 -22 
Q 2503 -91 2169 -91 
Q 1331 -91 842 396 
Q 353 884 353 1716 
Q 353 2575 817 3079 
Q 1281 3584 2069 3584 
Q 2775 3584 3186 3129 
Q 3597 2675 3597 1894 
z
M 3022 2063 
Q 3016 2534 2758 2815 
Q 2500 3097 2075 3097 
Q 1594 3097 1305 2825 
Q 1016 2553 972 2059 
L 3022 2063 
z
" transform="scale(0.015625)"/>
       <path id="DejaVuSans-69" d="M 603 3500 
L 1178 3500 
L 1178 0 
L 603 0 
L 603 3500 
z
M 603 4863 
L 1178 4863 
L 1178 4134 
L 603 4134 
L 603 4863 
z
" transform="scale(0.015625)"/>
       <path id="DejaVuSans-74" d="M 1172 4494 
L 1172 3500 
L 2356 3500 
L 2356 3053 
L 1172 3053 
L 1172 1153 
Q 1172 725 1289 603 
Q 1406 481 1766 481 
L 2356 481 
L 2356 0 
L 1766 0 
Q 1100 0 847 248 
Q 594 497 594 1153 
L 594 3053 
L 172 3053 
L 172 3500 
L 594 3500 
L 594 4494 
L 1172 4494 
z
" transform="scale(0.015625)"/>
       <path id="DejaVuSans-73" d="M 2834 3397 
L 2834 2853 
Q 2591 2978 2328 3040 
Q 2066 3103 1784 3103 
Q 1356 3103 1142 2972 
Q 928 2841 928 2578 
Q 928 2378 1081 2264 
Q 1234 2150 1697 2047 
L 1894 2003 
Q 2506 1872 2764 1633 
Q 3022 1394 3022 966 
Q 3022 478 2636 193 
Q 2250 -91 1575 -91 
Q 1294 -91 989 -36 
Q 684 19 347 128 
L 347 722 
Q 666 556 975 473 
Q 1284 391 1588 391 
Q 1994 391 2212 530 
Q 2431 669 2431 922 
Q 2431 1156 2273 1281 
Q 2116 1406 1581 1522 
L 1381 1569 
Q 847 1681 609 1914 
Q 372 2147 372 2553 
Q 372 3047 722 3315 
Q 1072 3584 1716 3584 
Q 2034 3584 2315 3537 
Q 2597 3491 2834 3397 
z
" transform="scale(0.015625)"/>
       <path id="DejaVuSans-63" d="M 3122 3366 
L 3122 2828 
Q 2878 2963 2633 3030 
Q 2388 3097 2138 3097 
Q 1578 3097 1268 2742 
Q 959 2388 959 1747 
Q 959 1106 1268 751 
Q 1578 397 2138 397 
Q 2388 397 2633 464 
Q 2878 531 3122 666 
L 3122 134 
Q 2881 22 2623 -34 
Q 2366 -91 2075 -91 
Q 1284 -91 818 406 
Q 353 903 353 1747 
Q 353 2603 823 3093 
Q 1294 3584 2113 3584 
Q 2378 3584 2631 3529 
Q 2884 3475 3122 3366 
z
" transform="scale(0.015625)"/>
       <path id="DejaVuSans-68" d="M 3513 2113 
L 3513 0 
L 2938 0 
L 2938 2094 
Q 2938 2591 2744 2837 
Q 2550 3084 2163 3084 
Q 1697 3084 1428 2787 
Q 1159 2491 1159 1978 
L 1159 0 
L 581 0 
L 581 4863 
L 1159 4863 
L 1159 2956 
Q 1366 3272 1645 3428 
Q 1925 3584 2291 3584 
Q 2894 3584 3203 3211 
Q 3513 2838 3513 2113 
z
" transform="scale(0.015625)"/>
       <path id="DejaVuSans-72" d="M 2631 2963 
Q 2534 3019 2420 3045 
Q 2306 3072 2169 3072 
Q 1681 3072 1420 2755 
Q 1159 2438 1159 1844 
L 1159 0 
L 581 0 
L 581 3500 
L 1159 3500 
L 1159 2956 
Q 1341 3275 1631 3429 
Q 1922 3584 2338 3584 
Q 2397 3584 2469 3576 
Q 2541 3569 2628 3553 
L 2631 2963 
z
" transform="scale(0.015625)"/>
       <path id="DejaVuSans-20" transform="scale(0.015625)"/>
       <path id="DejaVuSans-28" d="M 1984 4856 
Q 1566 4138 1362 3434 
Q 1159 2731 1159 2009 
Q 1159 1288 1364 580 
Q 1569 -128 1984 -844 
L 1484 -844 
Q 1016 -109 783 600 
Q 550 1309 550 2009 
Q 550 2706 781 3412 
Q 1013 4119 1484 4856 
L 1984 4856 
z
" transform="scale(0.015625)"/>
       <path id="DejaVuSans-6e" d="M 3513 2113 
L 3513 0 
L 2938 0 
L 2938 2094 
Q 2938 2591 2744 2837 
Q 2550 3084 2163 3084 
Q 1697 3084 1428 2787 
Q 1159 2491 1159 1978 
L 1159 0 
L 581 0 
L 581 3500 
L 1159 3500 
L 1159 2956 
Q 1366 3272 1645 3428 
Q 1925 3584 2291 3584 
Q 2894 3584 3203 3211 
Q 3513 2838 3513 2113 
z
" transform="scale(0.015625)"/>
       <path id="DejaVuSans-4d" d="M 628 4666 
L 1569 4666 
L 2759 1491 
L 3956 4666 
L 4897 4666 
L 4897 0 
L 4281 0 
L 4281 4097 
L 3078 897 
L 2444 897 
L 1241 4097 
L 1241 0 
L 628 0 
L 628 4666 
z
" transform="scale(0.015625)"/>
       <path id="DejaVuSans-6c" d="M 603 4863 
L 1178 4863 
L 1178 0 
L 603 0 
L 603 4863 
z
" transform="scale(0.015625)"/>
       <path id="DejaVuSans-6f" d="M 1959 3097 
Q 1497 3097 1228 2736 
Q 959 2375 959 1747 
Q 959 1119 1226 758 
Q 1494 397 1959 397 
Q 2419 397 2687 759 
Q 2956 1122 2956 1747 
Q 2956 2369 2687 2733 
Q 2419 3097 1959 3097 
z
M 1959 3584 
Q 2709 3584 3137 3096 
Q 3566 2609 3566 1747 
Q 3566 888 3137 398 
Q 2709 -91 1959 -91 
Q 1206 -91 779 398 
Q 353 888 353 1747 
Q 353 2609 779 3096 
Q 1206 3584 1959 3584 
z
" transform="scale(0.015625)"/>
       <path id="DejaVuSans-29" d="M 513 4856 
L 1013 4856 
Q 1481 4119 1714 3412 
Q 1947 2706 1947 2009 
Q 1947 1309 1714 600 
Q 1481 -109 1013 -844 
L 513 -844 
Q 928 -128 1133 580 
Q 1338 1288 1338 2009 
Q 1338 2731 1133 3434 
Q 928 4138 513 4856 
z
" transform="scale(0.015625)"/>
      </defs>
      <use xlink:href="#DejaVuSans-5a"/>
      <use xlink:href="#DejaVuSans-65" x="68.505859"/>
      <use xlink:href="#DejaVuSans-69" x="130.029297"/>
      <use xlink:href="#DejaVuSans-74" x="157.8125"/>
      <use xlink:href="#DejaVuSans-73" x="197.021484"/>
      <use xlink:href="#DejaVuSans-63" x="249.121094"/>
      <use xlink:href="#DejaVuSans-68" x="304.101562"/>
      <use xlink:href="#DejaVuSans-72" x="367.480469"/>
      <use xlink:href="#DejaVuSans-69" x="408.59375"/>
      <use xlink:href="#DejaVuSans-74" x="436.376953"/>
      <use xlink:href="#DejaVuSans-74" x="475.585938"/>
      <use xlink:href="#DejaVuSans-65" x="514.794922"/>
      <use xlink:href="#DejaVuSans-20" x="576.318359"/>
      <use xlink:href="#DejaVuSans-28" x="608.105469"/>
      <use xlink:href="#DejaVuSans-69" x="647.119141"/>
      <use xlink:href="#DejaVuSans-6e" x="674.902344"/>
      <use xlink:href="#DejaVuSans-20" x="738.28125"/>
      <use xlink:href="#DejaVuSans-4d" x="770.068359"/>
      <use xlink:href="#DejaVuSans-69" x="856.347656"/>
      <use xlink:href="#DejaVuSans-6c" x="884.130859"/>
      <use xlink:href="#DejaVuSans-6c" x="911.914062"/>
      <use xlink:href="#DejaVuSans-69" x="939.697266"/>
      <use xlink:href="#DejaVuSans-6f" x="967.480469"/>
      <use xlink:href="#DejaVuSans-6e" x="1028.662109"/>
      <use xlink:href="#DejaVuSans-65" x="1092.041016"/>
      <use xlink:href="#DejaVuSans-6e" x="1153.564453"/>
      <use xlink:href="#DejaVuSans-29" x="1216.943359"/>
     </g>
    </g>
   </g>
   <g id="matplotlib.axis_2">
    <g id="ytick_1">
     <g id="line2d_8">
      <path d="M 77.13 245.18318 
L 447.84 245.18318 
" clip-path="url(#p87212b8970)" style="fill: none; stroke: #ffffff; stroke-linecap: round"/>
     </g>
     <g id="text_9">
      <!-- −3000 -->
      <g style="fill: #262626" transform="translate(30.417344 249.362321)scale(0.11 -0.11)">
       <defs>
        <path id="DejaVuSans-2212" d="M 678 2272 
L 4684 2272 
L 4684 1741 
L 678 1741 
L 678 2272 
z
" transform="scale(0.015625)"/>
       </defs>
       <use xlink:href="#DejaVuSans-2212"/>
       <use xlink:href="#DejaVuSans-33" x="83.789062"/>
       <use xlink:href="#DejaVuSans-30" x="147.412109"/>
       <use xlink:href="#DejaVuSans-30" x="211.035156"/>
       <use xlink:href="#DejaVuSans-30" x="274.658203"/>
      </g>
     </g>
    </g>
    <g id="ytick_2">
     <g id="line2d_9">
      <path d="M 77.13 185.196261 
L 447.84 185.196261 
" clip-path="url(#p87212b8970)" style="fill: none; stroke: #ffffff; stroke-linecap: round"/>
     </g>
     <g id="text_10">
      <!-- −2000 -->
      <g style="fill: #262626" transform="translate(30.417344 189.375402)scale(0.11 -0.11)">
       <use xlink:href="#DejaVuSans-2212"/>
       <use xlink:href="#DejaVuSans-32" x="83.789062"/>
       <use xlink:href="#DejaVuSans-30" x="147.412109"/>
       <use xlink:href="#DejaVuSans-30" x="211.035156"/>
       <use xlink:href="#DejaVuSans-30" x="274.658203"/>
      </g>
     </g>
    </g>
    <g id="ytick_3">
     <g id="line2d_10">
      <path d="M 77.13 125.209342 
L 447.84 125.209342 
" clip-path="url(#p87212b8970)" style="fill: none; stroke: #ffffff; stroke-linecap: round"/>
     </g>
     <g id="text_11">
      <!-- −1000 -->
      <g style="fill: #262626" transform="translate(30.417344 129.388482)scale(0.11 -0.11)">
       <use xlink:href="#DejaVuSans-2212"/>
       <use xlink:href="#DejaVuSans-31" x="83.789062"/>
       <use xlink:href="#DejaVuSans-30" x="147.412109"/>
       <use xlink:href="#DejaVuSans-30" x="211.035156"/>
       <use xlink:href="#DejaVuSans-30" x="274.658203"/>
      </g>
     </g>
    </g>
    <g id="ytick_4">
     <g id="line2d_11">
      <path d="M 77.13 65.222422 
L 447.84 65.222422 
" clip-path="url(#p87212b8970)" style="fill: none; stroke: #ffffff; stroke-linecap: round"/>
     </g>
     <g id="text_12">
      <!-- 0 -->
      <g style="fill: #262626" transform="translate(60.63125 69.401563)scale(0.11 -0.11)">
       <use xlink:href="#DejaVuSans-30"/>
      </g>
     </g>
    </g>
    <g id="text_13">
     <!-- Belohnung -->
     <g style="fill: #262626" transform="translate(23.505781 191.336563)rotate(-90)scale(0.14 -0.14)">
      <defs>
       <path id="DejaVuSans-42" d="M 1259 2228 
L 1259 519 
L 2272 519 
Q 2781 519 3026 730 
Q 3272 941 3272 1375 
Q 3272 1813 3026 2020 
Q 2781 2228 2272 2228 
L 1259 2228 
z
M 1259 4147 
L 1259 2741 
L 2194 2741 
Q 2656 2741 2882 2914 
Q 3109 3088 3109 3444 
Q 3109 3797 2882 3972 
Q 2656 4147 2194 4147 
L 1259 4147 
z
M 628 4666 
L 2241 4666 
Q 2963 4666 3353 4366 
Q 3744 4066 3744 3513 
Q 3744 3084 3544 2831 
Q 3344 2578 2956 2516 
Q 3422 2416 3680 2098 
Q 3938 1781 3938 1306 
Q 3938 681 3513 340 
Q 3088 0 2303 0 
L 628 0 
L 628 4666 
z
" transform="scale(0.015625)"/>
       <path id="DejaVuSans-75" d="M 544 1381 
L 544 3500 
L 1119 3500 
L 1119 1403 
Q 1119 906 1312 657 
Q 1506 409 1894 409 
Q 2359 409 2629 706 
Q 2900 1003 2900 1516 
L 2900 3500 
L 3475 3500 
L 3475 0 
L 2900 0 
L 2900 538 
Q 2691 219 2414 64 
Q 2138 -91 1772 -91 
Q 1169 -91 856 284 
Q 544 659 544 1381 
z
M 1991 3584 
L 1991 3584 
z
" transform="scale(0.015625)"/>
       <path id="DejaVuSans-67" d="M 2906 1791 
Q 2906 2416 2648 2759 
Q 2391 3103 1925 3103 
Q 1463 3103 1205 2759 
Q 947 2416 947 1791 
Q 947 1169 1205 825 
Q 1463 481 1925 481 
Q 2391 481 2648 825 
Q 2906 1169 2906 1791 
z
M 3481 434 
Q 3481 -459 3084 -895 
Q 2688 -1331 1869 -1331 
Q 1566 -1331 1297 -1286 
Q 1028 -1241 775 -1147 
L 775 -588 
Q 1028 -725 1275 -790 
Q 1522 -856 1778 -856 
Q 2344 -856 2625 -561 
Q 2906 -266 2906 331 
L 2906 616 
Q 2728 306 2450 153 
Q 2172 0 1784 0 
Q 1141 0 747 490 
Q 353 981 353 1791 
Q 353 2603 747 3093 
Q 1141 3584 1784 3584 
Q 2172 3584 2450 3431 
Q 2728 3278 2906 2969 
L 2906 3500 
L 3481 3500 
L 3481 434 
z
" transform="scale(0.015625)"/>
      </defs>
      <use xlink:href="#DejaVuSans-42"/>
      <use xlink:href="#DejaVuSans-65" x="68.603516"/>
      <use xlink:href="#DejaVuSans-6c" x="130.126953"/>
      <use xlink:href="#DejaVuSans-6f" x="157.910156"/>
      <use xlink:href="#DejaVuSans-68" x="219.091797"/>
      <use xlink:href="#DejaVuSans-6e" x="282.470703"/>
      <use xlink:href="#DejaVuSans-75" x="345.849609"/>
      <use xlink:href="#DejaVuSans-6e" x="409.228516"/>
      <use xlink:href="#DejaVuSans-67" x="472.607422"/>
     </g>
    </g>
   </g>
   <g id="PolyCollection_1">
    <defs>
     <path id="m8460f09403" d="M 93.980455 -140.758244 
L 93.980455 -162.207309 
L 96.812464 -158.079063 
L 99.644473 -162.45214 
L 102.476482 -173.589131 
L 105.308491 -275.056001 
L 108.1405 -290.103992 
L 110.97251 -296.4142 
L 113.804519 -292.676858 
L 116.636528 -296.43806 
L 119.468537 -297.662512 
L 122.300546 -297.320307 
L 125.132555 -302.988027 
L 127.964565 -299.355142 
L 130.796574 -307.494298 
L 133.628583 -305.037425 
L 136.460592 -308.693864 
L 139.292601 -306.898866 
L 142.12461 -299.018539 
L 144.95662 -319.835455 
L 147.788629 -300.409412 
L 150.620638 -309.692643 
L 153.452647 -299.375962 
L 156.284656 -307.964679 
L 159.116665 -299.824906 
L 161.948675 -300.125123 
L 164.780684 -304.082746 
L 167.612693 -303.042418 
L 170.444702 -298.401859 
L 173.276711 -296.278613 
L 176.10872 -299.97964 
L 178.94073 -302.158831 
L 181.772739 -298.382349 
L 184.604748 -299.958723 
L 187.436757 -296.594747 
L 190.268766 -302.037776 
L 193.100775 -295.195116 
L 195.932785 -299.009561 
L 198.764794 -301.437797 
L 201.596803 -296.946823 
L 204.428812 -295.440416 
L 207.260821 -300.070043 
L 210.09283 -299.323979 
L 212.92484 -301.750341 
L 215.756849 -295.132076 
L 218.588858 -298.163611 
L 221.420867 -298.449375 
L 224.252876 -297.351193 
L 227.084885 -296.381346 
L 229.916895 -295.98216 
L 232.748904 -295.754082 
L 235.580913 -297.084391 
L 238.412922 -298.444111 
L 241.244931 -297.563873 
L 244.07694 -298.322521 
L 246.90895 -298.321165 
L 249.740959 -297.256003 
L 252.572968 -297.198698 
L 255.404977 -298.445738 
L 258.236986 -297.74133 
L 261.068995 -298.054705 
L 263.901005 -297.508027 
L 266.733014 -299.206008 
L 269.565023 -295.962572 
L 272.397032 -296.511817 
L 275.229041 -298.626745 
L 278.06105 -297.215106 
L 280.89306 -297.74235 
L 283.725069 -297.353549 
L 286.557078 -296.830871 
L 289.389087 -296.894964 
L 292.221096 -296.48284 
L 295.053105 -295.966573 
L 297.885115 -297.165655 
L 300.717124 -296.75505 
L 303.549133 -300.692221 
L 306.381142 -297.035248 
L 309.213151 -297.713919 
L 312.04516 -296.929737 
L 314.87717 -297.391338 
L 317.709179 -296.979482 
L 320.541188 -297.400506 
L 323.373197 -298.812507 
L 326.205206 -296.369836 
L 329.037215 -296.323735 
L 331.869225 -297.508887 
L 334.701234 -297.865756 
L 337.533243 -297.381336 
L 340.365252 -296.492374 
L 343.197261 -295.872939 
L 346.02927 -296.894001 
L 348.86128 -296.593311 
L 351.693289 -296.510859 
L 354.525298 -296.232959 
L 357.357307 -296.777883 
L 360.189316 -298.998533 
L 363.021325 -296.625464 
L 365.853335 -295.978899 
L 368.685344 -296.449947 
L 371.517353 -297.241042 
L 374.349362 -297.933599 
L 377.181371 -296.197768 
L 380.01338 -296.204594 
L 382.84539 -297.273012 
L 385.677399 -297.000945 
L 388.509408 -297.290259 
L 391.341417 -297.641757 
L 394.173426 -296.814082 
L 397.005435 -296.356902 
L 399.837445 -297.791652 
L 402.669454 -297.284815 
L 405.501463 -296.642385 
L 408.333472 -296.360224 
L 411.165481 -296.87952 
L 413.99749 -297.147089 
L 416.8295 -296.730973 
L 419.661509 -296.541632 
L 422.493518 -296.082907 
L 425.325527 -296.275855 
L 428.157536 -296.536395 
L 430.989545 -295.986447 
L 430.989545 -294.617319 
L 430.989545 -294.617319 
L 428.157536 -294.516894 
L 425.325527 -295.454334 
L 422.493518 -294.945056 
L 419.661509 -295.034921 
L 416.8295 -294.192301 
L 413.99749 -294.907188 
L 411.165481 -294.509158 
L 408.333472 -295.16938 
L 405.501463 -294.58756 
L 402.669454 -295.864985 
L 399.837445 -294.911253 
L 397.005435 -294.561532 
L 394.173426 -294.013524 
L 391.341417 -295.161818 
L 388.509408 -294.660288 
L 385.677399 -295.323424 
L 382.84539 -295.300175 
L 380.01338 -294.156916 
L 377.181371 -294.546216 
L 374.349362 -294.243219 
L 371.517353 -294.469209 
L 368.685344 -294.735466 
L 365.853335 -294.343431 
L 363.021325 -293.528947 
L 360.189316 -294.899379 
L 357.357307 -295.360193 
L 354.525298 -293.19484 
L 351.693289 -293.024403 
L 348.86128 -294.960006 
L 346.02927 -295.032498 
L 343.197261 -294.229852 
L 340.365252 -293.791986 
L 337.533243 -294.485824 
L 334.701234 -295.216731 
L 331.869225 -294.593808 
L 329.037215 -295.322127 
L 326.205206 -293.129854 
L 323.373197 -294.37321 
L 320.541188 -293.552423 
L 317.709179 -293.875034 
L 314.87717 -295.058561 
L 312.04516 -294.430772 
L 309.213151 -293.606568 
L 306.381142 -294.55436 
L 303.549133 -295.461934 
L 300.717124 -294.763825 
L 297.885115 -294.294166 
L 295.053105 -293.869578 
L 292.221096 -293.862277 
L 289.389087 -294.689331 
L 286.557078 -293.528816 
L 283.725069 -293.963671 
L 280.89306 -293.623145 
L 278.06105 -294.465456 
L 275.229041 -294.017874 
L 272.397032 -294.049 
L 269.565023 -294.66632 
L 266.733014 -294.290409 
L 263.901005 -293.783997 
L 261.068995 -294.846347 
L 258.236986 -294.906283 
L 255.404977 -294.99591 
L 252.572968 -294.156262 
L 249.740959 -294.025664 
L 246.90895 -295.503076 
L 244.07694 -293.509722 
L 241.244931 -294.593102 
L 238.412922 -295.850049 
L 235.580913 -292.644895 
L 232.748904 -292.840479 
L 229.916895 -291.265732 
L 227.084885 -293.618294 
L 224.252876 -294.342871 
L 221.420867 -290.212999 
L 218.588858 -292.660262 
L 215.756849 -293.871207 
L 212.92484 -294.142682 
L 210.09283 -292.984301 
L 207.260821 -293.736522 
L 204.428812 -293.531192 
L 201.596803 -291.306597 
L 198.764794 -295.457204 
L 195.932785 -292.279705 
L 193.100775 -293.131807 
L 190.268766 -291.211857 
L 187.436757 -290.863635 
L 184.604748 -293.201766 
L 181.772739 -293.662127 
L 178.94073 -293.239573 
L 176.10872 -294.401522 
L 173.276711 -292.522672 
L 170.444702 -295.040426 
L 167.612693 -293.376426 
L 164.780684 -295.9212 
L 161.948675 -286.977255 
L 159.116665 -293.075507 
L 156.284656 -292.534835 
L 153.452647 -291.883236 
L 150.620638 -289.93413 
L 147.788629 -287.651213 
L 144.95662 -283.465241 
L 142.12461 -295.575411 
L 139.292601 -295.096857 
L 136.460592 -281.964127 
L 133.628583 -278.64365 
L 130.796574 -276.770572 
L 127.964565 -276.103713 
L 125.132555 -270.097272 
L 122.300546 -277.556633 
L 119.468537 -269.384876 
L 116.636528 -277.901821 
L 113.804519 -276.665165 
L 110.97251 -271.977887 
L 108.1405 -281.440369 
L 105.308491 -225.95506 
L 102.476482 -124.289435 
L 99.644473 -122.252024 
L 96.812464 -122.576096 
L 93.980455 -140.758244 
z
" style="stroke: #ffffff; stroke-opacity: 0.5"/>
    </defs>
    <g clip-path="url(#p87212b8970)">
     <use xlink:href="#m8460f09403" x="0" y="345.6" style="fill: #4c72b0; fill-opacity: 0.5; stroke: #ffffff; stroke-opacity: 0.5"/>
    </g>
   </g>
   <g id="PolyCollection_2">
    <defs>
     <path id="m465fb8138f" d="M 93.980455 -108.880031 
L 93.980455 -135.557223 
L 96.812464 -141.087457 
L 99.644473 -168.725755 
L 102.476482 -142.940228 
L 105.308491 -208.79309 
L 108.1405 -241.184866 
L 110.97251 -273.455741 
L 113.804519 -296.53893 
L 116.636528 -282.01913 
L 119.468537 -298.109897 
L 122.300546 -292.158241 
L 125.132555 -292.1949 
L 127.964565 -293.867395 
L 130.796574 -300.250906 
L 133.628583 -306.416031 
L 136.460592 -297.887941 
L 139.292601 -297.216363 
L 142.12461 -304.277729 
L 144.95662 -295.831929 
L 147.788629 -309.318826 
L 150.620638 -292.493883 
L 153.452647 -293.324208 
L 156.284656 -290.462839 
L 159.116665 -300.043792 
L 161.948675 -294.475915 
L 164.780684 -299.789475 
L 167.612693 -306.994643 
L 170.444702 -297.0408 
L 173.276711 -295.304645 
L 176.10872 -295.349324 
L 178.94073 -301.555647 
L 181.772739 -295.735393 
L 184.604748 -294.967556 
L 187.436757 -299.354596 
L 190.268766 -294.813099 
L 193.100775 -297.862453 
L 195.932785 -293.932642 
L 198.764794 -291.297023 
L 201.596803 -297.322571 
L 204.428812 -298.467335 
L 207.260821 -298.083221 
L 210.09283 -300.570389 
L 212.92484 -290.875068 
L 215.756849 -296.303087 
L 218.588858 -302.26668 
L 221.420867 -298.766031 
L 224.252876 -299.283648 
L 227.084885 -301.285279 
L 229.916895 -302.300603 
L 232.748904 -305.551607 
L 235.580913 -301.805795 
L 238.412922 -303.558983 
L 241.244931 -302.896907 
L 244.07694 -302.614509 
L 246.90895 -301.864297 
L 249.740959 -297.552647 
L 252.572968 -300.451845 
L 255.404977 -300.089664 
L 258.236986 -297.050004 
L 261.068995 -302.829672 
L 263.901005 -309.418183 
L 266.733014 -295.767793 
L 269.565023 -299.483421 
L 272.397032 -296.345965 
L 275.229041 -298.730176 
L 278.06105 -302.296354 
L 280.89306 -297.901242 
L 283.725069 -302.897309 
L 286.557078 -299.389237 
L 289.389087 -299.412276 
L 292.221096 -299.567949 
L 295.053105 -299.987852 
L 297.885115 -297.435548 
L 300.717124 -299.963 
L 303.549133 -297.047152 
L 306.381142 -300.44307 
L 309.213151 -299.900591 
L 312.04516 -300.902514 
L 314.87717 -300.9473 
L 317.709179 -303.386543 
L 320.541188 -303.960452 
L 323.373197 -305.91106 
L 326.205206 -305.333954 
L 329.037215 -300.059431 
L 331.869225 -302.861372 
L 334.701234 -301.596666 
L 337.533243 -300.505602 
L 340.365252 -297.765151 
L 343.197261 -303.17431 
L 346.02927 -296.702495 
L 348.86128 -302.078536 
L 351.693289 -299.438266 
L 354.525298 -302.639469 
L 357.357307 -301.607296 
L 360.189316 -302.473667 
L 363.021325 -303.061078 
L 365.853335 -304.490133 
L 368.685344 -300.958067 
L 371.517353 -301.294274 
L 374.349362 -301.36142 
L 377.181371 -303.233414 
L 380.01338 -300.265659 
L 382.84539 -301.230012 
L 385.677399 -301.910093 
L 388.509408 -301.775844 
L 391.341417 -301.30615 
L 394.173426 -298.984594 
L 397.005435 -302.318823 
L 399.837445 -301.489425 
L 402.669454 -299.480194 
L 405.501463 -300.822062 
L 408.333472 -302.244646 
L 411.165481 -304.20023 
L 413.99749 -296.827563 
L 416.8295 -305.395455 
L 419.661509 -301.86297 
L 422.493518 -300.734821 
L 425.325527 -301.43932 
L 428.157536 -300.064348 
L 430.989545 -299.971281 
L 430.989545 -295.666359 
L 430.989545 -295.666359 
L 428.157536 -292.306037 
L 425.325527 -290.525144 
L 422.493518 -290.694152 
L 419.661509 -295.908192 
L 416.8295 -284.665187 
L 413.99749 -287.547385 
L 411.165481 -291.559661 
L 408.333472 -292.39693 
L 405.501463 -285.425434 
L 402.669454 -288.834038 
L 399.837445 -295.923438 
L 397.005435 -294.272642 
L 394.173426 -280.16849 
L 391.341417 -296.273861 
L 388.509408 -294.325212 
L 385.677399 -297.777895 
L 382.84539 -292.181986 
L 380.01338 -286.237244 
L 377.181371 -292.644487 
L 374.349362 -288.160175 
L 371.517353 -293.883944 
L 368.685344 -292.026222 
L 365.853335 -297.083552 
L 363.021325 -282.024378 
L 360.189316 -295.09528 
L 357.357307 -288.548822 
L 354.525298 -289.469101 
L 351.693289 -280.100213 
L 348.86128 -277.565403 
L 346.02927 -286.879729 
L 343.197261 -293.763077 
L 340.365252 -288.763083 
L 337.533243 -292.882534 
L 334.701234 -292.416263 
L 331.869225 -297.559135 
L 329.037215 -284.754755 
L 326.205206 -289.985444 
L 323.373197 -291.5394 
L 320.541188 -283.254154 
L 317.709179 -292.915382 
L 314.87717 -294.097412 
L 312.04516 -294.86421 
L 309.213151 -293.533367 
L 306.381142 -295.865251 
L 303.549133 -293.056611 
L 300.717124 -289.791468 
L 297.885115 -285.028743 
L 295.053105 -284.85943 
L 292.221096 -290.646192 
L 289.389087 -293.341532 
L 286.557078 -291.788184 
L 283.725069 -287.771971 
L 280.89306 -285.984717 
L 278.06105 -278.203813 
L 275.229041 -285.342948 
L 272.397032 -285.438236 
L 269.565023 -292.382755 
L 266.733014 -287.644659 
L 263.901005 -275.314797 
L 261.068995 -291.761852 
L 258.236986 -293.415328 
L 255.404977 -286.916495 
L 252.572968 -286.135217 
L 249.740959 -291.177932 
L 246.90895 -287.116958 
L 244.07694 -284.255441 
L 241.244931 -285.108239 
L 238.412922 -276.358444 
L 235.580913 -289.096838 
L 232.748904 -281.644358 
L 229.916895 -294.109336 
L 227.084885 -293.515271 
L 224.252876 -284.29283 
L 221.420867 -273.77203 
L 218.588858 -290.281321 
L 215.756849 -286.584366 
L 212.92484 -286.41851 
L 210.09283 -289.298602 
L 207.260821 -283.611852 
L 204.428812 -271.670647 
L 201.596803 -275.91013 
L 198.764794 -280.578125 
L 195.932785 -271.271597 
L 193.100775 -273.988734 
L 190.268766 -285.754888 
L 187.436757 -286.053697 
L 184.604748 -279.020376 
L 181.772739 -280.449334 
L 178.94073 -286.947112 
L 176.10872 -277.736477 
L 173.276711 -268.305654 
L 170.444702 -277.931647 
L 167.612693 -281.029453 
L 164.780684 -283.356085 
L 161.948675 -270.93114 
L 159.116665 -276.492022 
L 156.284656 -274.251151 
L 153.452647 -276.080739 
L 150.620638 -262.940144 
L 147.788629 -278.526432 
L 144.95662 -283.638264 
L 142.12461 -281.844137 
L 139.292601 -277.973281 
L 136.460592 -259.723032 
L 133.628583 -290.100131 
L 130.796574 -260.016141 
L 127.964565 -281.453178 
L 125.132555 -267.624708 
L 122.300546 -261.380946 
L 119.468537 -256.373194 
L 116.636528 -254.990327 
L 113.804519 -274.245563 
L 110.97251 -237.042756 
L 108.1405 -210.012226 
L 105.308491 -165.987027 
L 102.476482 -119.567628 
L 99.644473 -116.991667 
L 96.812464 -113.879031 
L 93.980455 -108.880031 
z
" style="stroke: #ffffff; stroke-opacity: 0.5"/>
    </defs>
    <g clip-path="url(#p87212b8970)">
     <use xlink:href="#m465fb8138f" x="0" y="345.6" style="fill: #dd8452; fill-opacity: 0.5; stroke: #ffffff; stroke-opacity: 0.5"/>
    </g>
   </g>
   <g id="PolyCollection_3">
    <defs>
     <path id="m732e9a6400" d="M 93.980455 -95.62178 
L 93.980455 -151.737999 
L 96.812464 -158.17429 
L 99.644473 -153.294396 
L 102.476482 -172.882287 
L 105.308491 -197.892298 
L 108.1405 -179.829215 
L 110.97251 -173.400487 
L 113.804519 -175.870962 
L 116.636528 -170.461998 
L 119.468537 -223.690782 
L 122.300546 -208.578121 
L 125.132555 -186.546958 
L 127.964565 -194.821623 
L 130.796574 -194.366435 
L 133.628583 -198.648654 
L 136.460592 -237.293364 
L 139.292601 -211.896406 
L 142.12461 -182.002095 
L 144.95662 -226.973528 
L 147.788629 -226.000707 
L 150.620638 -235.161332 
L 153.452647 -226.512824 
L 156.284656 -225.996689 
L 159.116665 -232.301635 
L 161.948675 -241.225274 
L 164.780684 -231.42636 
L 167.612693 -232.188677 
L 170.444702 -239.747161 
L 173.276711 -266.551544 
L 176.10872 -247.352863 
L 178.94073 -245.680196 
L 181.772739 -241.208245 
L 184.604748 -249.609651 
L 187.436757 -254.125249 
L 190.268766 -245.668291 
L 193.100775 -243.221519 
L 195.932785 -263.063492 
L 198.764794 -268.530017 
L 201.596803 -269.768911 
L 204.428812 -260.09602 
L 207.260821 -279.549141 
L 210.09283 -267.160647 
L 212.92484 -267.798257 
L 215.756849 -263.969218 
L 218.588858 -293.825278 
L 221.420867 -252.532757 
L 224.252876 -263.380916 
L 227.084885 -299.278198 
L 229.916895 -282.398631 
L 232.748904 -279.351353 
L 235.580913 -284.679146 
L 238.412922 -271.59619 
L 241.244931 -281.5708 
L 244.07694 -266.516674 
L 246.90895 -281.210804 
L 249.740959 -278.177734 
L 252.572968 -255.698031 
L 255.404977 -285.715801 
L 258.236986 -275.870186 
L 261.068995 -271.977551 
L 263.901005 -263.271403 
L 266.733014 -276.046872 
L 269.565023 -278.619936 
L 272.397032 -281.542918 
L 275.229041 -263.24893 
L 278.06105 -267.029134 
L 280.89306 -262.444806 
L 283.725069 -266.54352 
L 286.557078 -274.876356 
L 289.389087 -274.484809 
L 292.221096 -273.962446 
L 295.053105 -271.323203 
L 297.885115 -276.633742 
L 300.717124 -261.024928 
L 303.549133 -271.768906 
L 306.381142 -262.9401 
L 309.213151 -269.908395 
L 312.04516 -255.682302 
L 314.87717 -260.407401 
L 317.709179 -266.660227 
L 320.541188 -272.85541 
L 323.373197 -265.775441 
L 326.205206 -266.762181 
L 329.037215 -270.106202 
L 331.869225 -270.81508 
L 334.701234 -277.128641 
L 337.533243 -259.464251 
L 340.365252 -254.48129 
L 343.197261 -267.159593 
L 346.02927 -272.539492 
L 348.86128 -267.527316 
L 351.693289 -270.141926 
L 354.525298 -272.619156 
L 357.357307 -272.126192 
L 360.189316 -267.854266 
L 363.021325 -259.291232 
L 365.853335 -266.005459 
L 368.685344 -263.376918 
L 371.517353 -272.498577 
L 374.349362 -270.145263 
L 377.181371 -274.540599 
L 380.01338 -266.771599 
L 382.84539 -269.294544 
L 385.677399 -265.35896 
L 388.509408 -272.18114 
L 391.341417 -273.51577 
L 394.173426 -271.578178 
L 397.005435 -269.312217 
L 399.837445 -271.82272 
L 402.669454 -257.025833 
L 405.501463 -270.779135 
L 408.333472 -284.315211 
L 411.165481 -269.64819 
L 413.99749 -285.697894 
L 416.8295 -272.505775 
L 419.661509 -269.347798 
L 422.493518 -268.909263 
L 425.325527 -278.180666 
L 428.157536 -271.411442 
L 430.989545 -267.139268 
L 430.989545 -210.157681 
L 430.989545 -210.157681 
L 428.157536 -213.931269 
L 425.325527 -200.160941 
L 422.493518 -224.889744 
L 419.661509 -214.470282 
L 416.8295 -223.458648 
L 413.99749 -219.401348 
L 411.165481 -233.310972 
L 408.333472 -223.472104 
L 405.501463 -213.813626 
L 402.669454 -214.104134 
L 399.837445 -224.170767 
L 397.005435 -193.634765 
L 394.173426 -193.484686 
L 391.341417 -198.023719 
L 388.509408 -169.963207 
L 385.677399 -207.935431 
L 382.84539 -222.300327 
L 380.01338 -220.079978 
L 377.181371 -213.08548 
L 374.349362 -206.641108 
L 371.517353 -213.117809 
L 368.685344 -218.617181 
L 365.853335 -240.98058 
L 363.021325 -222.199139 
L 360.189316 -224.402278 
L 357.357307 -228.352996 
L 354.525298 -230.757463 
L 351.693289 -250.381582 
L 348.86128 -233.771646 
L 346.02927 -242.115356 
L 343.197261 -222.691614 
L 340.365252 -213.069895 
L 337.533243 -214.461768 
L 334.701234 -221.100572 
L 331.869225 -216.612369 
L 329.037215 -220.258874 
L 326.205206 -218.541126 
L 323.373197 -239.746859 
L 320.541188 -232.030739 
L 317.709179 -226.131678 
L 314.87717 -213.299714 
L 312.04516 -239.224906 
L 309.213151 -220.363898 
L 306.381142 -239.028815 
L 303.549133 -207.256801 
L 300.717124 -234.121537 
L 297.885115 -210.542546 
L 295.053105 -236.023105 
L 292.221096 -232.046712 
L 289.389087 -197.102774 
L 286.557078 -230.534584 
L 283.725069 -197.269105 
L 280.89306 -215.203719 
L 278.06105 -229.570011 
L 275.229041 -217.389816 
L 272.397032 -222.731469 
L 269.565023 -214.44498 
L 266.733014 -227.188978 
L 263.901005 -230.214254 
L 261.068995 -222.833579 
L 258.236986 -201.645698 
L 255.404977 -217.486859 
L 252.572968 -235.469904 
L 249.740959 -234.683042 
L 246.90895 -242.110356 
L 244.07694 -245.609171 
L 241.244931 -225.21312 
L 238.412922 -240.027166 
L 235.580913 -232.888566 
L 232.748904 -220.397883 
L 229.916895 -224.110601 
L 227.084885 -228.904923 
L 224.252876 -178.76417 
L 221.420867 -216.289619 
L 218.588858 -208.499534 
L 215.756849 -208.895868 
L 212.92484 -220.4119 
L 210.09283 -237.095886 
L 207.260821 -205.209649 
L 204.428812 -202.269833 
L 201.596803 -222.279505 
L 198.764794 -196.958729 
L 195.932785 -221.824728 
L 193.100775 -198.510027 
L 190.268766 -216.704145 
L 187.436757 -219.4956 
L 184.604748 -192.532586 
L 181.772739 -212.914732 
L 178.94073 -182.912688 
L 176.10872 -176.810992 
L 173.276711 -185.021494 
L 170.444702 -183.213731 
L 167.612693 -199.190372 
L 164.780684 -183.400255 
L 161.948675 -177.955593 
L 159.116665 -186.860105 
L 156.284656 -187.573897 
L 153.452647 -169.679169 
L 150.620638 -148.143791 
L 147.788629 -174.756476 
L 144.95662 -191.424746 
L 142.12461 -164.904966 
L 139.292601 -167.924129 
L 136.460592 -168.29884 
L 133.628583 -153.584282 
L 130.796574 -147.400257 
L 127.964565 -150.133549 
L 125.132555 -161.600553 
L 122.300546 -146.766143 
L 119.468537 -133.680588 
L 116.636528 -152.72708 
L 113.804519 -142.378009 
L 110.97251 -147.115542 
L 108.1405 -152.242149 
L 105.308491 -140.173921 
L 102.476482 -108.690679 
L 99.644473 -122.624454 
L 96.812464 -135.9384 
L 93.980455 -95.62178 
z
" style="stroke: #ffffff; stroke-opacity: 0.5"/>
    </defs>
    <g clip-path="url(#p87212b8970)">
     <use xlink:href="#m732e9a6400" x="0" y="345.6" style="fill: #55a868; fill-opacity: 0.5; stroke: #ffffff; stroke-opacity: 0.5"/>
    </g>
   </g>
   <g id="PolyCollection_4">
    <defs>
     <path id="m5656327c4c" d="M 93.980455 -120.097844 
L 93.980455 -143.923979 
L 96.812464 -154.791315 
L 99.644473 -158.098555 
L 102.476482 -183.167458 
L 105.308491 -181.557418 
L 108.1405 -188.585548 
L 110.97251 -203.136362 
L 113.804519 -176.115752 
L 116.636528 -174.127759 
L 119.468537 -175.229982 
L 122.300546 -200.439374 
L 125.132555 -212.908823 
L 127.964565 -209.970972 
L 130.796574 -224.401011 
L 133.628583 -208.428776 
L 136.460592 -205.614182 
L 139.292601 -195.058496 
L 142.12461 -199.840156 
L 144.95662 -212.165391 
L 147.788629 -224.487483 
L 150.620638 -213.248313 
L 153.452647 -246.542607 
L 156.284656 -230.897876 
L 159.116665 -208.588547 
L 161.948675 -208.057238 
L 164.780684 -232.27975 
L 167.612693 -230.131712 
L 170.444702 -236.969249 
L 173.276711 -233.453355 
L 176.10872 -240.110731 
L 178.94073 -224.955631 
L 181.772739 -228.071265 
L 184.604748 -260.822396 
L 187.436757 -278.826873 
L 190.268766 -244.367403 
L 193.100775 -271.089578 
L 195.932785 -255.250089 
L 198.764794 -264.415744 
L 201.596803 -260.589612 
L 204.428812 -269.057036 
L 207.260821 -265.046831 
L 210.09283 -291.454315 
L 212.92484 -268.336453 
L 215.756849 -272.699337 
L 218.588858 -268.302307 
L 221.420867 -279.196213 
L 224.252876 -289.634928 
L 227.084885 -280.705437 
L 229.916895 -283.605153 
L 232.748904 -280.034016 
L 235.580913 -290.006935 
L 238.412922 -289.072137 
L 241.244931 -275.591822 
L 244.07694 -276.629363 
L 246.90895 -249.456732 
L 249.740959 -277.517001 
L 252.572968 -242.751524 
L 255.404977 -265.087287 
L 258.236986 -267.558374 
L 261.068995 -255.21945 
L 263.901005 -263.872426 
L 266.733014 -245.250434 
L 269.565023 -235.140037 
L 272.397032 -249.51069 
L 275.229041 -231.169458 
L 278.06105 -243.735523 
L 280.89306 -216.561977 
L 283.725069 -232.850951 
L 286.557078 -244.948202 
L 289.389087 -240.993487 
L 292.221096 -249.974227 
L 295.053105 -237.866 
L 297.885115 -269.655454 
L 300.717124 -271.003949 
L 303.549133 -245.87373 
L 306.381142 -270.091967 
L 309.213151 -273.53263 
L 312.04516 -254.207299 
L 314.87717 -261.864701 
L 317.709179 -237.655502 
L 320.541188 -270.949574 
L 323.373197 -257.69796 
L 326.205206 -254.98803 
L 329.037215 -279.428261 
L 331.869225 -266.579638 
L 334.701234 -265.413284 
L 337.533243 -273.464435 
L 340.365252 -259.853176 
L 343.197261 -253.594436 
L 346.02927 -269.389054 
L 348.86128 -256.041041 
L 351.693289 -269.241428 
L 354.525298 -235.652927 
L 357.357307 -247.306384 
L 360.189316 -235.282754 
L 363.021325 -256.976643 
L 365.853335 -267.567313 
L 368.685344 -252.468336 
L 371.517353 -273.875565 
L 374.349362 -272.974403 
L 377.181371 -240.879102 
L 380.01338 -254.610692 
L 382.84539 -239.884657 
L 385.677399 -255.606017 
L 388.509408 -241.484583 
L 391.341417 -240.557702 
L 394.173426 -256.590604 
L 397.005435 -266.413988 
L 399.837445 -247.495936 
L 402.669454 -262.95335 
L 405.501463 -267.997141 
L 408.333472 -275.000406 
L 411.165481 -266.710139 
L 413.99749 -244.685239 
L 416.8295 -256.211572 
L 419.661509 -251.966245 
L 422.493518 -245.666452 
L 425.325527 -254.267016 
L 428.157536 -265.607891 
L 430.989545 -273.003762 
L 430.989545 -168.29474 
L 430.989545 -168.29474 
L 428.157536 -181.163371 
L 425.325527 -188.665996 
L 422.493518 -163.750495 
L 419.661509 -192.137907 
L 416.8295 -170.283465 
L 413.99749 -182.061941 
L 411.165481 -176.639941 
L 408.333472 -176.335895 
L 405.501463 -179.747562 
L 402.669454 -191.09177 
L 399.837445 -149.980047 
L 397.005435 -166.845038 
L 394.173426 -180.36585 
L 391.341417 -202.576555 
L 388.509408 -185.870036 
L 385.677399 -201.622743 
L 382.84539 -195.336618 
L 380.01338 -185.342151 
L 377.181371 -188.787868 
L 374.349362 -183.052098 
L 371.517353 -178.075588 
L 368.685344 -180.06627 
L 365.853335 -191.540999 
L 363.021325 -209.002016 
L 360.189316 -196.81153 
L 357.357307 -203.189019 
L 354.525298 -199.179777 
L 351.693289 -199.621553 
L 348.86128 -198.493268 
L 346.02927 -202.858676 
L 343.197261 -190.057009 
L 340.365252 -193.651213 
L 337.533243 -179.771662 
L 334.701234 -153.518752 
L 331.869225 -189.826184 
L 329.037215 -178.454406 
L 326.205206 -172.545716 
L 323.373197 -178.867298 
L 320.541188 -184.612852 
L 317.709179 -195.050255 
L 314.87717 -188.543445 
L 312.04516 -177.934188 
L 309.213151 -173.056127 
L 306.381142 -179.522621 
L 303.549133 -198.338447 
L 300.717124 -172.876696 
L 297.885115 -193.506742 
L 295.053105 -173.742316 
L 292.221096 -209.234273 
L 289.389087 -201.151336 
L 286.557078 -204.610465 
L 283.725069 -189.008009 
L 280.89306 -176.187405 
L 278.06105 -172.070071 
L 275.229041 -181.507833 
L 272.397032 -162.677078 
L 269.565023 -173.193469 
L 266.733014 -195.421585 
L 263.901005 -204.582426 
L 261.068995 -207.420128 
L 258.236986 -209.63341 
L 255.404977 -189.320432 
L 252.572968 -199.55192 
L 249.740959 -192.3264 
L 246.90895 -191.502902 
L 244.07694 -184.596102 
L 241.244931 -219.017851 
L 238.412922 -215.101021 
L 235.580913 -208.717299 
L 232.748904 -197.301667 
L 229.916895 -189.581877 
L 227.084885 -210.717289 
L 224.252876 -205.14626 
L 221.420867 -190.207437 
L 218.588858 -190.252013 
L 215.756849 -176.068596 
L 212.92484 -177.872683 
L 210.09283 -202.817053 
L 207.260821 -216.350655 
L 204.428812 -193.261712 
L 201.596803 -215.770274 
L 198.764794 -194.58818 
L 195.932785 -206.743976 
L 193.100775 -192.707184 
L 190.268766 -203.856861 
L 187.436757 -192.153167 
L 184.604748 -185.027236 
L 181.772739 -164.114643 
L 178.94073 -196.173827 
L 176.10872 -190.698779 
L 173.276711 -185.752039 
L 170.444702 -187.756457 
L 167.612693 -190.82191 
L 164.780684 -185.042634 
L 161.948675 -157.010334 
L 159.116665 -167.947912 
L 156.284656 -176.453876 
L 153.452647 -200.985441 
L 150.620638 -144.525455 
L 147.788629 -182.327102 
L 144.95662 -166.094335 
L 142.12461 -178.005288 
L 139.292601 -155.042884 
L 136.460592 -161.375703 
L 133.628583 -169.594165 
L 130.796574 -173.886021 
L 127.964565 -144.86078 
L 125.132555 -161.86482 
L 122.300546 -169.456306 
L 119.468537 -140.393166 
L 116.636528 -152.608968 
L 113.804519 -157.648463 
L 110.97251 -146.071022 
L 108.1405 -160.548293 
L 105.308491 -164.149971 
L 102.476482 -119.662872 
L 99.644473 -120.341375 
L 96.812464 -118.532884 
L 93.980455 -120.097844 
z
" style="stroke: #ffffff; stroke-opacity: 0.5"/>
    </defs>
    <g clip-path="url(#p87212b8970)">
     <use xlink:href="#m5656327c4c" x="0" y="345.6" style="fill: #c44e52; fill-opacity: 0.5; stroke: #ffffff; stroke-opacity: 0.5"/>
    </g>
   </g>
   <g id="PolyCollection_5">
    <defs>
     <path id="m0d82d43d6f" d="M 93.980455 -108.953846 
L 93.980455 -142.974633 
L 96.812464 -143.986909 
L 99.644473 -156.295346 
L 102.476482 -150.267139 
L 105.308491 -184.202823 
L 108.1405 -162.294301 
L 110.97251 -182.786988 
L 113.804519 -181.639598 
L 116.636528 -174.773011 
L 119.468537 -187.652675 
L 122.300546 -191.900325 
L 125.132555 -212.923918 
L 127.964565 -222.927654 
L 130.796574 -204.255816 
L 133.628583 -252.108909 
L 136.460592 -226.58376 
L 139.292601 -249.222665 
L 142.12461 -245.59243 
L 144.95662 -222.17301 
L 147.788629 -208.918028 
L 150.620638 -226.51313 
L 153.452647 -213.844562 
L 156.284656 -232.160919 
L 159.116665 -236.606039 
L 161.948675 -240.40032 
L 164.780684 -247.855763 
L 167.612693 -245.111895 
L 170.444702 -244.898488 
L 173.276711 -251.504847 
L 176.10872 -257.03182 
L 178.94073 -270.821381 
L 181.772739 -247.963206 
L 184.604748 -262.383471 
L 187.436757 -241.063131 
L 190.268766 -264.855927 
L 193.100775 -262.55388 
L 195.932785 -258.689201 
L 198.764794 -265.132269 
L 201.596803 -282.107453 
L 204.428812 -267.945774 
L 207.260821 -273.696005 
L 210.09283 -256.592171 
L 212.92484 -256.8251 
L 215.756849 -260.041329 
L 218.588858 -259.043578 
L 221.420867 -241.48032 
L 224.252876 -237.334928 
L 227.084885 -278.634363 
L 229.916895 -220.642531 
L 232.748904 -240.942235 
L 235.580913 -240.485317 
L 238.412922 -263.806851 
L 241.244931 -240.483298 
L 244.07694 -249.225005 
L 246.90895 -255.695923 
L 249.740959 -258.792045 
L 252.572968 -261.155028 
L 255.404977 -238.282244 
L 258.236986 -237.418214 
L 261.068995 -237.643773 
L 263.901005 -245.510647 
L 266.733014 -259.967592 
L 269.565023 -243.055072 
L 272.397032 -245.150428 
L 275.229041 -220.377547 
L 278.06105 -242.988251 
L 280.89306 -243.452127 
L 283.725069 -260.105128 
L 286.557078 -230.39142 
L 289.389087 -242.853818 
L 292.221096 -244.420535 
L 295.053105 -235.124317 
L 297.885115 -230.008051 
L 300.717124 -254.907016 
L 303.549133 -232.840925 
L 306.381142 -247.934819 
L 309.213151 -258.05087 
L 312.04516 -216.191977 
L 314.87717 -258.061958 
L 317.709179 -230.023662 
L 320.541188 -236.099309 
L 323.373197 -238.687543 
L 326.205206 -222.00051 
L 329.037215 -200.337585 
L 331.869225 -212.18739 
L 334.701234 -226.255073 
L 337.533243 -214.322709 
L 340.365252 -237.290207 
L 343.197261 -212.610865 
L 346.02927 -220.473239 
L 348.86128 -211.918157 
L 351.693289 -241.685599 
L 354.525298 -237.306074 
L 357.357307 -210.527507 
L 360.189316 -220.095312 
L 363.021325 -218.471248 
L 365.853335 -225.017148 
L 368.685344 -201.855449 
L 371.517353 -214.496279 
L 374.349362 -224.49507 
L 377.181371 -195.948619 
L 380.01338 -218.12686 
L 382.84539 -229.037924 
L 385.677399 -209.07115 
L 388.509408 -225.758534 
L 391.341417 -218.352938 
L 394.173426 -205.992327 
L 397.005435 -225.904374 
L 399.837445 -215.7428 
L 402.669454 -232.084086 
L 405.501463 -225.236461 
L 408.333472 -223.957864 
L 411.165481 -201.185052 
L 413.99749 -209.65957 
L 416.8295 -224.848698 
L 419.661509 -227.992392 
L 422.493518 -212.402425 
L 425.325527 -221.170435 
L 428.157536 -218.222316 
L 430.989545 -228.350616 
L 430.989545 -147.256183 
L 430.989545 -147.256183 
L 428.157536 -132.764592 
L 425.325527 -145.51472 
L 422.493518 -171.647086 
L 419.661509 -177.793429 
L 416.8295 -187.684585 
L 413.99749 -171.354205 
L 411.165481 -164.888917 
L 408.333472 -127.067274 
L 405.501463 -177.075611 
L 402.669454 -140.681666 
L 399.837445 -174.81991 
L 397.005435 -182.813194 
L 394.173426 -157.536611 
L 391.341417 -188.168718 
L 388.509408 -145.926155 
L 385.677399 -166.797416 
L 382.84539 -150.968425 
L 380.01338 -143.549879 
L 377.181371 -147.019671 
L 374.349362 -172.942899 
L 371.517353 -169.685745 
L 368.685344 -158.697803 
L 365.853335 -177.75042 
L 363.021325 -152.046829 
L 360.189316 -147.6929 
L 357.357307 -155.194706 
L 354.525298 -171.729462 
L 351.693289 -170.842762 
L 348.86128 -137.723002 
L 346.02927 -143.104287 
L 343.197261 -122.017183 
L 340.365252 -108.424026 
L 337.533243 -121.055387 
L 334.701234 -165.578282 
L 331.869225 -158.031237 
L 329.037215 -151.276114 
L 326.205206 -130.910058 
L 323.373197 -101.989195 
L 320.541188 -151.142139 
L 317.709179 -107.15593 
L 314.87717 -97.952413 
L 312.04516 -167.430632 
L 309.213151 -110.907407 
L 306.381142 -110.043801 
L 303.549133 -129.568514 
L 300.717124 -188.777712 
L 297.885115 -182.197388 
L 295.053105 -189.29765 
L 292.221096 -113.266892 
L 289.389087 -181.122024 
L 286.557078 -126.999733 
L 283.725069 -99.408721 
L 280.89306 -162.773767 
L 278.06105 -108.168525 
L 275.229041 -168.22627 
L 272.397032 -109.444474 
L 269.565023 -133.585003 
L 266.733014 -167.840193 
L 263.901005 -194.220234 
L 261.068995 -115.460027 
L 258.236986 -152.598655 
L 255.404977 -188.821715 
L 252.572968 -146.968679 
L 249.740959 -165.129082 
L 246.90895 -158.178889 
L 244.07694 -184.023823 
L 241.244931 -185.155683 
L 238.412922 -191.042177 
L 235.580913 -200.114617 
L 232.748904 -209.720074 
L 229.916895 -198.660254 
L 227.084885 -185.213027 
L 224.252876 -168.905755 
L 221.420867 -187.022402 
L 218.588858 -191.838938 
L 215.756849 -201.27133 
L 212.92484 -179.211625 
L 210.09283 -201.32011 
L 207.260821 -195.037145 
L 204.428812 -189.64518 
L 201.596803 -178.008904 
L 198.764794 -212.759823 
L 195.932785 -223.382637 
L 193.100775 -191.479633 
L 190.268766 -205.842334 
L 187.436757 -198.313636 
L 184.604748 -198.506695 
L 181.772739 -192.635812 
L 178.94073 -200.590792 
L 176.10872 -200.068618 
L 173.276711 -213.06681 
L 170.444702 -188.790672 
L 167.612693 -200.216883 
L 164.780684 -186.702235 
L 161.948675 -147.582098 
L 159.116665 -182.223102 
L 156.284656 -199.857612 
L 153.452647 -185.271492 
L 150.620638 -172.403401 
L 147.788629 -160.954562 
L 144.95662 -183.548387 
L 142.12461 -183.639472 
L 139.292601 -167.980337 
L 136.460592 -165.350943 
L 133.628583 -158.485999 
L 130.796574 -163.25695 
L 127.964565 -175.055961 
L 125.132555 -157.43068 
L 122.300546 -159.305454 
L 119.468537 -157.256868 
L 116.636528 -147.831295 
L 113.804519 -147.332967 
L 110.97251 -150.731929 
L 108.1405 -149.406738 
L 105.308491 -151.661564 
L 102.476482 -118.965861 
L 99.644473 -113.29839 
L 96.812464 -110.079127 
L 93.980455 -108.953846 
z
" style="stroke: #ffffff; stroke-opacity: 0.5"/>
    </defs>
    <g clip-path="url(#p87212b8970)">
     <use xlink:href="#m0d82d43d6f" x="0" y="345.6" style="fill: #8172b3; fill-opacity: 0.5; stroke: #ffffff; stroke-opacity: 0.5"/>
    </g>
   </g>
   <g id="PolyCollection_6">
    <defs>
     <path id="me7afe7a0e0" d="M 93.980455 -113.378079 
L 93.980455 -148.568074 
L 96.812464 -160.766142 
L 99.644473 -169.815387 
L 102.476482 -178.356024 
L 105.308491 -183.296556 
L 108.1405 -181.149051 
L 110.97251 -201.366039 
L 113.804519 -169.902011 
L 116.636528 -189.405261 
L 119.468537 -186.835509 
L 122.300546 -185.663052 
L 125.132555 -211.668368 
L 127.964565 -185.448389 
L 130.796574 -180.863644 
L 133.628583 -200.126099 
L 136.460592 -176.380828 
L 139.292601 -206.099588 
L 142.12461 -180.181562 
L 144.95662 -203.062312 
L 147.788629 -200.953805 
L 150.620638 -201.332191 
L 153.452647 -197.823399 
L 156.284656 -195.577822 
L 159.116665 -209.936875 
L 161.948675 -194.31584 
L 164.780684 -221.095172 
L 167.612693 -199.763071 
L 170.444702 -194.480821 
L 173.276711 -193.274676 
L 176.10872 -237.135342 
L 178.94073 -205.165999 
L 181.772739 -201.320917 
L 184.604748 -215.557027 
L 187.436757 -194.717419 
L 190.268766 -193.35444 
L 193.100775 -186.702309 
L 195.932785 -213.921252 
L 198.764794 -206.953116 
L 201.596803 -197.758698 
L 204.428812 -203.934584 
L 207.260821 -195.072859 
L 210.09283 -208.040717 
L 212.92484 -184.047967 
L 215.756849 -202.573199 
L 218.588858 -199.701549 
L 221.420867 -196.511406 
L 224.252876 -217.846732 
L 227.084885 -175.246502 
L 229.916895 -175.510207 
L 232.748904 -223.275709 
L 235.580913 -209.712157 
L 238.412922 -208.751227 
L 241.244931 -195.754974 
L 244.07694 -195.664454 
L 246.90895 -171.415411 
L 249.740959 -182.028445 
L 252.572968 -181.595429 
L 255.404977 -175.819763 
L 258.236986 -163.914404 
L 261.068995 -175.921883 
L 263.901005 -182.671177 
L 266.733014 -188.571525 
L 269.565023 -182.265984 
L 272.397032 -208.443132 
L 275.229041 -166.802418 
L 278.06105 -182.708353 
L 280.89306 -166.09125 
L 283.725069 -181.862882 
L 286.557078 -177.85965 
L 289.389087 -181.780688 
L 292.221096 -191.221501 
L 295.053105 -168.490747 
L 297.885115 -173.547427 
L 300.717124 -181.979025 
L 303.549133 -174.908965 
L 306.381142 -191.612425 
L 309.213151 -196.799923 
L 312.04516 -164.701787 
L 314.87717 -165.195776 
L 317.709179 -158.459212 
L 320.541188 -186.821276 
L 323.373197 -175.884347 
L 326.205206 -160.808747 
L 329.037215 -173.049759 
L 331.869225 -186.629067 
L 334.701234 -178.070699 
L 337.533243 -171.959803 
L 340.365252 -188.013019 
L 343.197261 -188.957895 
L 346.02927 -201.124361 
L 348.86128 -183.882557 
L 351.693289 -188.683888 
L 354.525298 -209.667106 
L 357.357307 -182.049628 
L 360.189316 -173.750372 
L 363.021325 -185.017725 
L 365.853335 -180.517021 
L 368.685344 -160.451281 
L 371.517353 -191.58858 
L 374.349362 -180.330963 
L 377.181371 -192.242898 
L 380.01338 -180.895924 
L 382.84539 -173.574265 
L 385.677399 -171.575712 
L 388.509408 -178.07317 
L 391.341417 -174.980963 
L 394.173426 -173.088548 
L 397.005435 -186.000498 
L 399.837445 -161.498515 
L 402.669454 -174.754439 
L 405.501463 -170.331507 
L 408.333472 -167.65425 
L 411.165481 -173.533686 
L 413.99749 -160.255938 
L 416.8295 -187.587685 
L 419.661509 -153.551311 
L 422.493518 -179.353454 
L 425.325527 -192.154461 
L 428.157536 -174.438896 
L 430.989545 -165.342877 
L 430.989545 -142.249189 
L 430.989545 -142.249189 
L 428.157536 -148.101971 
L 425.325527 -143.593805 
L 422.493518 -136.076726 
L 419.661509 -119.539241 
L 416.8295 -132.442749 
L 413.99749 -116.870423 
L 411.165481 -135.137721 
L 408.333472 -128.465335 
L 405.501463 -119.186974 
L 402.669454 -142.872887 
L 399.837445 -146.36215 
L 397.005435 -133.405198 
L 394.173426 -131.352232 
L 391.341417 -124.194739 
L 388.509408 -134.375891 
L 385.677399 -106.309917 
L 382.84539 -110.021974 
L 380.01338 -150.633 
L 377.181371 -134.627012 
L 374.349362 -121.094895 
L 371.517353 -124.712737 
L 368.685344 -115.808539 
L 365.853335 -126.745943 
L 363.021325 -122.650894 
L 360.189316 -130.130038 
L 357.357307 -144.997805 
L 354.525298 -140.167252 
L 351.693289 -131.762317 
L 348.86128 -111.752134 
L 346.02927 -107.767141 
L 343.197261 -120.930833 
L 340.365252 -130.003336 
L 337.533243 -122.703737 
L 334.701234 -130.261776 
L 331.869225 -112.647699 
L 329.037215 -134.688699 
L 326.205206 -122.154022 
L 323.373197 -137.547738 
L 320.541188 -145.370837 
L 317.709179 -125.010353 
L 314.87717 -117.465104 
L 312.04516 -100.225371 
L 309.213151 -125.892033 
L 306.381142 -127.890206 
L 303.549133 -133.40145 
L 300.717124 -144.147219 
L 297.885115 -131.753101 
L 295.053105 -121.610746 
L 292.221096 -146.189653 
L 289.389087 -97.212699 
L 286.557078 -131.496841 
L 283.725069 -106.073476 
L 280.89306 -134.576971 
L 278.06105 -147.68698 
L 275.229041 -96.180592 
L 272.397032 -151.6121 
L 269.565023 -90.328696 
L 266.733014 -112.064701 
L 263.901005 -131.521892 
L 261.068995 -139.109914 
L 258.236986 -138.284975 
L 255.404977 -135.661033 
L 252.572968 -136.008893 
L 249.740959 -157.645661 
L 246.90895 -139.379942 
L 244.07694 -163.098798 
L 241.244931 -155.179225 
L 238.412922 -106.090328 
L 235.580913 -150.806943 
L 232.748904 -150.040497 
L 229.916895 -150.286624 
L 227.084885 -141.759941 
L 224.252876 -148.481649 
L 221.420867 -162.751743 
L 218.588858 -169.835922 
L 215.756849 -146.613845 
L 212.92484 -154.282252 
L 210.09283 -166.610801 
L 207.260821 -158.134153 
L 204.428812 -139.794664 
L 201.596803 -158.541434 
L 198.764794 -152.594514 
L 195.932785 -159.112803 
L 193.100775 -160.631861 
L 190.268766 -159.194263 
L 187.436757 -158.676282 
L 184.604748 -158.998994 
L 181.772739 -181.5296 
L 178.94073 -155.337297 
L 176.10872 -147.730657 
L 173.276711 -160.769367 
L 170.444702 -160.702455 
L 167.612693 -135.731932 
L 164.780684 -63.744545 
L 161.948675 -160.976418 
L 159.116665 -168.383823 
L 156.284656 -162.446538 
L 153.452647 -160.425585 
L 150.620638 -158.953821 
L 147.788629 -162.428268 
L 144.95662 -173.566614 
L 142.12461 -158.681833 
L 139.292601 -156.070914 
L 136.460592 -156.269744 
L 133.628583 -160.185348 
L 130.796574 -133.197587 
L 127.964565 -153.034249 
L 125.132555 -162.024457 
L 122.300546 -148.7367 
L 119.468537 -162.699247 
L 116.636528 -161.816653 
L 113.804519 -147.774153 
L 110.97251 -158.071003 
L 108.1405 -136.786469 
L 105.308491 -136.292455 
L 102.476482 -131.489453 
L 99.644473 -121.991021 
L 96.812464 -113.902596 
L 93.980455 -113.378079 
z
" style="stroke: #ffffff; stroke-opacity: 0.5"/>
    </defs>
    <g clip-path="url(#p87212b8970)">
     <use xlink:href="#me7afe7a0e0" x="0" y="345.6" style="fill: #937860; fill-opacity: 0.5; stroke: #ffffff; stroke-opacity: 0.5"/>
    </g>
   </g>
   <g id="line2d_12">
    <path d="M 93.980455 195.936841 
L 96.812464 208.696554 
L 99.644473 202.342763 
L 102.476482 200.073538 
L 105.308491 95.938281 
L 108.1405 60.903608 
L 110.97251 59.446183 
L 113.804519 62.668481 
L 116.636528 58.398203 
L 119.468537 58.429608 
L 122.300546 58.420205 
L 125.132555 55.563289 
L 127.964565 56.700719 
L 130.796574 49.662538 
L 133.628583 49.950072 
L 136.460592 50.824138 
L 139.292601 45.751269 
L 142.12461 47.618045 
L 144.95662 48.598167 
L 147.788629 51.229573 
L 150.620638 48.815427 
L 153.452647 50.00056 
L 156.284656 45.284453 
L 159.116665 49.784204 
L 161.948675 51.737311 
L 164.780684 47.033385 
L 167.612693 47.78171 
L 170.444702 49.346588 
L 173.276711 50.884195 
L 176.10872 49.608209 
L 178.94073 48.751656 
L 181.772739 49.441597 
L 184.604748 49.824755 
L 187.436757 51.183126 
L 190.268766 50.3771 
L 193.100775 51.348403 
L 195.932785 50.935823 
L 198.764794 47.737668 
L 201.596803 50.749299 
L 204.428812 51.147258 
L 207.260821 49.138375 
L 210.09283 50.033903 
L 212.92484 47.504498 
L 215.756849 51.261533 
L 218.588858 50.947996 
L 221.420867 50.169321 
L 224.252876 50.00834 
L 227.084885 50.569555 
L 229.916895 51.555514 
L 232.748904 51.61915 
L 235.580913 51.133166 
L 238.412922 48.541699 
L 241.244931 49.539113 
L 244.07694 50.17436 
L 246.90895 48.864198 
L 249.740959 50.039488 
L 252.572968 49.986983 
L 255.404977 49.046278 
L 258.236986 49.581996 
L 261.068995 49.106217 
L 263.901005 49.378179 
L 266.733014 49.165119 
L 269.565023 50.120806 
L 272.397032 50.266524 
L 275.229041 49.655654 
L 278.06105 49.672637 
L 280.89306 50.051774 
L 283.725069 49.633119 
L 286.557078 50.51116 
L 289.389087 50.002496 
L 292.221096 50.418182 
L 295.053105 50.731175 
L 297.885115 50.042646 
L 300.717124 49.966123 
L 303.549133 48.164809 
L 306.381142 50.29138 
L 309.213151 49.763451 
L 312.04516 50.038365 
L 314.87717 49.525588 
L 317.709179 50.201256 
L 320.541188 49.947812 
L 323.373197 49.289738 
L 326.205206 50.460667 
L 329.037215 49.796078 
L 331.869225 49.574389 
L 334.701234 49.173156 
L 337.533243 49.459354 
L 340.365252 50.425354 
L 343.197261 50.290942 
L 346.02927 49.958108 
L 348.86128 49.980775 
L 351.693289 50.211515 
L 354.525298 50.73429 
L 357.357307 49.781661 
L 360.189316 48.645729 
L 363.021325 50.379489 
L 365.853335 50.269854 
L 368.685344 49.870366 
L 371.517353 49.983512 
L 374.349362 49.925037 
L 377.181371 50.222785 
L 380.01338 50.340614 
L 382.84539 49.634832 
L 385.677399 49.785045 
L 388.509408 49.430519 
L 391.341417 49.075151 
L 394.173426 49.892786 
L 397.005435 49.986663 
L 399.837445 49.467963 
L 402.669454 49.171671 
L 405.501463 50.012131 
L 408.333472 49.829916 
L 411.165481 49.844719 
L 413.99749 49.78536 
L 416.8295 50.074791 
L 419.661509 49.876319 
L 422.493518 50.060541 
L 425.325527 49.609894 
L 428.157536 50.072374 
L 430.989545 50.244639 
" clip-path="url(#p87212b8970)" style="fill: none; stroke: #4c72b0; stroke-width: 3; stroke-linecap: round"/>
   </g>
   <g id="line2d_13">
    <path d="M 93.980455 220.230777 
L 96.812464 216.63495 
L 99.644473 202.669667 
L 102.476482 219.613359 
L 105.308491 155.135523 
L 108.1405 115.417915 
L 110.97251 87.097098 
L 113.804519 55.886754 
L 116.636528 76.295677 
L 119.468537 73.34442 
L 122.300546 68.896774 
L 125.132555 61.867496 
L 127.964565 60.194038 
L 130.796574 58.543726 
L 133.628583 47.21341 
L 136.460592 66.011354 
L 139.292601 60.4947 
L 142.12461 56.416922 
L 144.95662 54.499904 
L 147.788629 50.286547 
L 150.620638 64.749021 
L 153.452647 61.657667 
L 156.284656 61.541671 
L 159.116665 55.567019 
L 161.948675 60.504976 
L 164.780684 51.82088 
L 167.612693 52.021807 
L 170.444702 58.282862 
L 173.276711 59.674848 
L 176.10872 60.51842 
L 178.94073 52.010554 
L 181.772739 55.678259 
L 184.604748 57.479033 
L 187.436757 51.997162 
L 190.268766 55.792832 
L 193.100775 59.230341 
L 195.932785 57.765374 
L 198.764794 58.9301 
L 201.596803 57.279702 
L 204.428812 56.428875 
L 207.260821 54.781965 
L 210.09283 51.399537 
L 212.92484 56.394791 
L 215.756849 52.291154 
L 218.588858 50.785729 
L 221.420867 55.901281 
L 224.252876 53.423939 
L 227.084885 47.0643 
L 229.916895 48.981773 
L 232.748904 53.982918 
L 235.580913 50.261997 
L 238.412922 55.87843 
L 241.244931 48.720236 
L 244.07694 50.677712 
L 246.90895 50.903079 
L 249.740959 51.564266 
L 252.572968 52.025742 
L 255.404977 51.002327 
L 258.236986 50.874867 
L 261.068995 50.061853 
L 263.901005 49.599567 
L 266.733014 54.83216 
L 269.565023 50.01803 
L 272.397032 53.38077 
L 275.229041 51.370553 
L 278.06105 51.917664 
L 280.89306 51.593482 
L 283.725069 50.282375 
L 286.557078 48.167671 
L 289.389087 48.98374 
L 292.221096 51.175269 
L 295.053105 51.80628 
L 297.885115 54.218517 
L 300.717124 49.721783 
L 303.549133 50.702883 
L 306.381142 47.466905 
L 309.213151 49.835105 
L 312.04516 47.476688 
L 314.87717 48.342967 
L 317.709179 47.380277 
L 320.541188 50.333174 
L 323.373197 47.852991 
L 326.205206 49.003001 
L 329.037215 52.802378 
L 331.869225 46.036778 
L 334.701234 48.391677 
L 337.533243 47.626922 
L 340.365252 51.880167 
L 343.197261 48.869862 
L 346.02927 53.183663 
L 348.86128 53.22498 
L 351.693289 52.277303 
L 354.525298 49.777306 
L 357.357307 48.696522 
L 360.189316 47.266102 
L 363.021325 53.086537 
L 365.853335 45.14366 
L 368.685344 47.71034 
L 371.517353 47.1066 
L 374.349362 50.394695 
L 377.181371 48.368297 
L 380.01338 50.828741 
L 382.84539 48.676175 
L 385.677399 46.218121 
L 388.509408 48.622181 
L 391.341417 47.086186 
L 394.173426 52.179029 
L 397.005435 47.741272 
L 399.837445 47.118474 
L 402.669454 49.599752 
L 405.501463 49.02548 
L 408.333472 48.698495 
L 411.165481 48.878969 
L 413.99749 51.570612 
L 416.8295 50.130179 
L 419.661509 47.459246 
L 422.493518 50.118874 
L 425.325527 49.327644 
L 428.157536 50.086911 
L 430.989545 46.888822 
" clip-path="url(#p87212b8970)" style="fill: none; stroke: #dd8452; stroke-width: 3; stroke-linecap: round"/>
   </g>
   <g id="line2d_14">
    <path d="M 93.980455 215.831464 
L 96.812464 200.701841 
L 99.644473 214.364698 
L 102.476482 210.388865 
L 105.308491 180.730801 
L 108.1405 179.701986 
L 110.97251 184.299997 
L 113.804519 184.754566 
L 116.636528 185.240223 
L 119.468537 175.30582 
L 122.300546 172.96011 
L 125.132555 172.708121 
L 127.964565 169.98135 
L 130.796574 173.433777 
L 133.628583 172.150274 
L 136.460592 149.948376 
L 139.292601 156.360376 
L 142.12461 172.949524 
L 144.95662 141.954243 
L 147.788629 135.859278 
L 150.620638 155.765524 
L 153.452647 153.131298 
L 156.284656 136.790268 
L 159.116665 140.4004 
L 161.948675 131.27218 
L 164.780684 137.435723 
L 167.612693 129.500557 
L 170.444702 130.572982 
L 173.276711 125.03098 
L 176.10872 129.301639 
L 178.94073 123.723328 
L 181.772739 116.561696 
L 184.604748 120.571674 
L 187.436757 106.667615 
L 190.268766 114.631344 
L 193.100775 118.705079 
L 195.932785 106.366765 
L 198.764794 108.876137 
L 201.596803 97.741618 
L 204.428812 106.837689 
L 207.260821 94.242288 
L 210.09283 92.332358 
L 212.92484 96.610381 
L 215.756849 108.291751 
L 218.588858 103.877527 
L 221.420867 108.68766 
L 224.252876 112.609572 
L 227.084885 84.059285 
L 229.916895 86.473966 
L 232.748904 92.844399 
L 235.580913 90.503475 
L 238.412922 89.675327 
L 241.244931 86.824328 
L 244.07694 89.82177 
L 246.90895 82.528755 
L 249.740959 93.49328 
L 252.572968 96.112357 
L 255.404977 90.177044 
L 258.236986 97.332157 
L 261.068995 96.26753 
L 263.901005 98.464835 
L 266.733014 87.642415 
L 269.565023 96.655617 
L 272.397032 99.740905 
L 275.229041 98.132557 
L 278.06105 90.352619 
L 280.89306 100.159591 
L 283.725069 107.845783 
L 286.557078 90.278293 
L 289.389087 99.898945 
L 292.221096 87.564358 
L 295.053105 89.492817 
L 297.885115 98.79358 
L 300.717124 96.49468 
L 303.549133 96.489659 
L 306.381142 92.247002 
L 309.213151 100.07227 
L 312.04516 99.821546 
L 314.87717 104.302834 
L 317.709179 93.826341 
L 320.541188 96.501291 
L 323.373197 94.98581 
L 326.205206 99.150519 
L 329.037215 97.830495 
L 331.869225 100.15522 
L 334.701234 105.818217 
L 337.533243 102.264913 
L 340.365252 104.763265 
L 343.197261 94.181733 
L 346.02927 84.368228 
L 348.86128 96.187464 
L 351.693289 85.253202 
L 354.525298 93.29916 
L 357.357307 95.583088 
L 360.189316 96.293816 
L 363.021325 100.892109 
L 365.853335 92.788514 
L 368.685344 97.395934 
L 371.517353 100.182544 
L 374.349362 103.763794 
L 377.181371 98.663937 
L 380.01338 99.122326 
L 382.84539 98.656805 
L 385.677399 103.450444 
L 388.509408 112.174077 
L 391.341417 98.74756 
L 394.173426 109.837738 
L 397.005435 110.50647 
L 399.837445 94.25933 
L 402.669454 107.078641 
L 405.501463 93.978132 
L 408.333472 82.833472 
L 411.165481 87.853757 
L 413.99749 97.072754 
L 416.8295 96.723606 
L 419.661509 98.201864 
L 422.493518 89.118402 
L 425.325527 102.024175 
L 428.157536 99.927769 
L 430.989545 103.136408 
" clip-path="url(#p87212b8970)" style="fill: none; stroke: #55a868; stroke-width: 3; stroke-linecap: round"/>
   </g>
   <g id="line2d_15">
    <path d="M 93.980455 215.497636 
L 96.812464 210.591636 
L 99.644473 207.179052 
L 102.476482 200.34572 
L 105.308491 177.769419 
L 108.1405 176.162628 
L 110.97251 178.556266 
L 113.804519 179.5486 
L 116.636528 181.337169 
L 119.468537 186.409474 
L 122.300546 160.406553 
L 125.132555 162.584306 
L 127.964565 159.780358 
L 130.796574 154.98029 
L 133.628583 159.397951 
L 136.460592 160.324323 
L 139.292601 166.961202 
L 142.12461 159.698185 
L 144.95662 154.455928 
L 147.788629 139.483846 
L 150.620638 161.244484 
L 153.452647 129.103578 
L 156.284656 144.508848 
L 159.116665 161.333565 
L 161.948675 160.181361 
L 164.780684 141.964876 
L 167.612693 136.964697 
L 170.444702 136.681832 
L 173.276711 136.679695 
L 176.10872 135.50643 
L 178.94073 133.54671 
L 181.772739 142.838093 
L 184.604748 120.217889 
L 187.436757 110.687107 
L 190.268766 123.408421 
L 193.100775 121.046472 
L 195.932785 114.280895 
L 198.764794 127.464914 
L 201.596803 110.173912 
L 204.428812 125.115336 
L 207.260821 113.74661 
L 210.09283 108.753994 
L 212.92484 125.486257 
L 215.756849 132.97328 
L 218.588858 107.405469 
L 221.420867 111.228117 
L 224.252876 114.207123 
L 227.084885 109.389705 
L 229.916895 119.424667 
L 232.748904 109.058342 
L 235.580913 112.262176 
L 238.412922 102.15267 
L 241.244931 107.019379 
L 244.07694 120.939088 
L 246.90895 132.976821 
L 249.740959 116.801 
L 252.572968 126.910367 
L 255.404977 115.52826 
L 258.236986 117.595914 
L 261.068995 115.788087 
L 263.901005 108.990087 
L 266.733014 130.57234 
L 269.565023 134.692405 
L 272.397032 129.415016 
L 275.229041 138.838461 
L 278.06105 131.038186 
L 280.89306 152.155512 
L 283.725069 129.228528 
L 286.557078 121.97872 
L 289.389087 120.266932 
L 292.221096 112.62015 
L 295.053105 128.21285 
L 297.885115 128.946954 
L 300.717124 127.796568 
L 303.549133 127.431146 
L 306.381142 127.83168 
L 309.213151 124.456071 
L 312.04516 131.355863 
L 314.87717 123.302054 
L 317.709179 128.796131 
L 320.541188 127.065865 
L 323.373197 128.194815 
L 326.205206 132.954181 
L 329.037215 131.220523 
L 331.869225 126.890156 
L 334.701234 139.336123 
L 337.533243 125.882416 
L 340.365252 120.745012 
L 343.197261 130.479366 
L 346.02927 106.5119 
L 348.86128 107.254968 
L 351.693289 119.432859 
L 354.525298 128.965071 
L 357.357307 117.665025 
L 360.189316 127.452728 
L 363.021325 120.120722 
L 365.853335 113.710623 
L 368.685344 122.543162 
L 371.517353 120.418158 
L 374.349362 117.382156 
L 377.181371 129.227309 
L 380.01338 119.889473 
L 382.84539 121.205394 
L 385.677399 115.660602 
L 388.509408 125.168743 
L 391.341417 130.863868 
L 394.173426 117.897099 
L 397.005435 118.877874 
L 399.837445 127.75098 
L 402.669454 113.440178 
L 405.501463 122.462102 
L 408.333472 117.940648 
L 411.165481 121.747694 
L 413.99749 125.253988 
L 416.8295 121.688494 
L 419.661509 117.75871 
L 422.493518 144.833808 
L 425.325527 135.496238 
L 428.157536 124.326048 
L 430.989545 129.270621 
" clip-path="url(#p87212b8970)" style="fill: none; stroke: #c44e52; stroke-width: 3; stroke-linecap: round"/>
   </g>
   <g id="line2d_16">
    <path d="M 93.980455 214.591175 
L 96.812464 216.079133 
L 99.644473 212.108312 
L 102.476482 210.123649 
L 105.308491 172.221754 
L 108.1405 189.072951 
L 110.97251 183.561678 
L 113.804519 183.386348 
L 116.636528 184.764591 
L 119.468537 175.888456 
L 122.300546 165.986007 
L 125.132555 165.202114 
L 127.964565 144.479154 
L 130.796574 160.485036 
L 133.628583 147.038331 
L 136.460592 144.598505 
L 139.292601 132.811783 
L 142.12461 134.810974 
L 144.95662 146.396722 
L 147.788629 156.74067 
L 150.620638 141.662002 
L 153.452647 147.056736 
L 156.284656 131.627632 
L 159.116665 131.614144 
L 161.948675 147.714643 
L 164.780684 136.289024 
L 167.612693 120.414331 
L 170.444702 124.13961 
L 173.276711 117.438469 
L 176.10872 111.209036 
L 178.94073 107.774251 
L 181.772739 115.197131 
L 184.604748 113.731979 
L 187.436757 128.234699 
L 190.268766 111.845256 
L 193.100775 125.615314 
L 195.932785 111.305813 
L 198.764794 105.132919 
L 201.596803 110.747214 
L 204.428812 107.447903 
L 207.260821 111.249611 
L 210.09283 111.948408 
L 212.92484 113.701966 
L 215.756849 119.823252 
L 218.588858 121.520261 
L 221.420867 123.293675 
L 224.252876 124.146006 
L 227.084885 119.633577 
L 229.916895 139.069731 
L 232.748904 117.648193 
L 235.580913 118.456892 
L 238.412922 124.352271 
L 241.244931 128.021751 
L 244.07694 120.743447 
L 246.90895 136.399521 
L 249.740959 124.39365 
L 252.572968 134.136634 
L 255.404977 130.03128 
L 258.236986 136.947466 
L 261.068995 144.677931 
L 263.901005 133.01184 
L 266.733014 134.943378 
L 269.565023 149.479344 
L 272.397032 153.620601 
L 275.229041 146.871439 
L 278.06105 154.334119 
L 280.89306 152.147096 
L 283.725069 150.486466 
L 286.557078 158.835295 
L 289.389087 144.030416 
L 292.221096 152.704775 
L 295.053105 138.355242 
L 297.885115 143.092844 
L 300.717124 127.147533 
L 303.549133 158.005874 
L 306.381142 147.169919 
L 309.213151 148.101768 
L 312.04516 155.676177 
L 314.87717 155.291544 
L 317.709179 149.563134 
L 320.541188 147.706977 
L 323.373197 156.24892 
L 326.205206 152.18008 
L 329.037215 166.042906 
L 331.869225 149.543976 
L 334.701234 150.792593 
L 337.533243 165.061513 
L 340.365252 161.378942 
L 343.197261 167.327349 
L 346.02927 151.753141 
L 348.86128 168.775325 
L 351.693289 150.999717 
L 354.525298 140.730908 
L 357.357307 155.141729 
L 360.189316 154.35358 
L 363.021325 160.741654 
L 365.853335 145.941077 
L 368.685344 161.892826 
L 371.517353 150.798712 
L 374.349362 143.956456 
L 377.181371 168.115365 
L 380.01338 156.005133 
L 382.84539 150.302805 
L 385.677399 154.849472 
L 388.509408 151.432633 
L 391.341417 144.131646 
L 394.173426 160.05951 
L 397.005435 144.733554 
L 399.837445 148.720728 
L 402.669454 151.050692 
L 405.501463 145.620843 
L 408.333472 155.511908 
L 411.165481 158.590683 
L 413.99749 151.845431 
L 416.8295 143.263552 
L 419.661509 136.423856 
L 422.493518 150.700094 
L 425.325527 152.70187 
L 428.157536 164.001583 
L 430.989545 157.89266 
" clip-path="url(#p87212b8970)" style="fill: none; stroke: #8172b3; stroke-width: 3; stroke-linecap: round"/>
   </g>
   <g id="line2d_17">
    <path d="M 93.980455 210.503627 
L 96.812464 204.024571 
L 99.644473 198.06945 
L 102.476482 192.563153 
L 105.308491 191.243838 
L 108.1405 178.215323 
L 110.97251 172.911403 
L 113.804519 183.585851 
L 116.636528 173.198994 
L 119.468537 173.027736 
L 122.300546 178.498018 
L 125.132555 157.708212 
L 127.964565 179.490676 
L 130.796574 182.229347 
L 133.628583 166.694144 
L 136.460592 179.939122 
L 139.292601 170.108829 
L 142.12461 174.173021 
L 144.95662 163.494529 
L 147.788629 172.203304 
L 150.620638 167.613732 
L 153.452647 172.760055 
L 156.284656 162.598007 
L 159.116665 164.973734 
L 161.948675 169.702809 
L 164.780684 181.182197 
L 167.612693 181.321926 
L 170.444702 166.841825 
L 173.276711 173.983097 
L 176.10872 166.258112 
L 178.94073 172.99951 
L 181.772739 158.602185 
L 184.604748 158.704027 
L 187.436757 166.566284 
L 190.268766 167.03837 
L 193.100775 166.101801 
L 195.932785 161.190078 
L 198.764794 169.066233 
L 201.596803 168.548867 
L 204.428812 178.590727 
L 207.260821 167.411921 
L 210.09283 158.115546 
L 212.92484 170.427059 
L 215.756849 170.100742 
L 218.588858 163.290234 
L 221.420867 163.474854 
L 224.252876 167.152856 
L 227.084885 183.901228 
L 229.916895 177.400982 
L 232.748904 163.492424 
L 235.580913 163.887699 
L 238.412922 172.285013 
L 241.244931 171.378698 
L 244.07694 167.358346 
L 246.90895 189.755459 
L 249.740959 176.389626 
L 252.572968 178.820036 
L 255.404977 185.399972 
L 258.236986 195.551364 
L 261.068995 186.39334 
L 263.901005 183.528669 
L 266.733014 190.510599 
L 269.565023 184.665793 
L 272.397032 172.624449 
L 275.229041 211.645354 
L 278.06105 184.1901 
L 280.89306 193.507749 
L 283.725069 195.327322 
L 286.557078 189.46255 
L 289.389087 196.103098 
L 292.221096 181.907176 
L 295.053105 195.781032 
L 297.885115 188.672327 
L 300.717124 185.648455 
L 303.549133 196.012133 
L 306.381142 193.698715 
L 309.213151 188.151513 
L 312.04516 196.274582 
L 314.87717 201.16788 
L 317.709179 203.560011 
L 320.541188 179.318958 
L 323.373197 185.157547 
L 326.205206 205.928083 
L 329.037215 192.655556 
L 331.869225 193.410447 
L 334.701234 195.474522 
L 337.533243 198.709834 
L 340.365252 188.214462 
L 343.197261 194.452248 
L 346.02927 198.118657 
L 348.86128 192.924502 
L 351.693289 193.105324 
L 354.525298 175.890297 
L 357.357307 178.213862 
L 360.189316 193.669694 
L 363.021325 193.711349 
L 365.853335 194.22218 
L 368.685344 201.261501 
L 371.517353 193.983889 
L 374.349362 191.729872 
L 377.181371 181.463598 
L 380.01338 185.217943 
L 382.84539 202.522986 
L 385.677399 207.254208 
L 388.509408 187.715974 
L 391.341417 199.311186 
L 394.173426 188.75658 
L 397.005435 197.072615 
L 399.837445 193.418765 
L 402.669454 191.839496 
L 405.501463 194.795102 
L 408.333472 192.316452 
L 411.165481 193.706069 
L 413.99749 202.380651 
L 416.8295 196.609969 
L 419.661509 204.858955 
L 422.493518 195.672223 
L 425.325527 183.691372 
L 428.157536 185.519604 
L 430.989545 190.434354 
" clip-path="url(#p87212b8970)" style="fill: none; stroke: #937860; stroke-width: 3; stroke-linecap: round"/>
   </g>
   <g id="patch_3">
    <path d="M 77.13 294.66 
L 77.13 12.96 
" style="fill: none; stroke: #ffffff; stroke-width: 1.25; stroke-linejoin: miter; stroke-linecap: square"/>
   </g>
   <g id="patch_4">
    <path d="M 447.84 294.66 
L 447.84 12.96 
" style="fill: none; stroke: #ffffff; stroke-width: 1.25; stroke-linejoin: miter; stroke-linecap: square"/>
   </g>
   <g id="patch_5">
    <path d="M 77.13 294.66 
L 447.84 294.66 
" style="fill: none; stroke: #ffffff; stroke-width: 1.25; stroke-linejoin: miter; stroke-linecap: square"/>
   </g>
   <g id="patch_6">
    <path d="M 77.13 12.96 
L 447.84 12.96 
" style="fill: none; stroke: #ffffff; stroke-width: 1.25; stroke-linejoin: miter; stroke-linecap: square"/>
   </g>
   <g id="legend_1">
    <g id="patch_7">
     <path d="M 202.376016 289.16 
L 322.593984 289.16 
Q 324.793984 289.16 324.793984 286.96 
L 324.793984 191.184375 
Q 324.793984 188.984375 322.593984 188.984375 
L 202.376016 188.984375 
Q 200.176016 188.984375 200.176016 191.184375 
L 200.176016 286.96 
Q 200.176016 289.16 202.376016 289.16 
z
" style="fill: #eaeaf2; opacity: 0.8; stroke: #cccccc; stroke-linejoin: miter"/>
    </g>
    <g id="line2d_18">
     <path d="M 204.576016 197.892656 
L 215.576016 197.892656 
L 226.576016 197.892656 
" style="fill: none; stroke: #4c72b0; stroke-width: 3; stroke-linecap: round"/>
    </g>
    <g id="text_14">
     <!-- SAC-DELAY-0 -->
     <g style="fill: #262626" transform="translate(235.376016 201.742656)scale(0.11 -0.11)">
      <defs>
       <path id="DejaVuSans-53" d="M 3425 4513 
L 3425 3897 
Q 3066 4069 2747 4153 
Q 2428 4238 2131 4238 
Q 1616 4238 1336 4038 
Q 1056 3838 1056 3469 
Q 1056 3159 1242 3001 
Q 1428 2844 1947 2747 
L 2328 2669 
Q 3034 2534 3370 2195 
Q 3706 1856 3706 1288 
Q 3706 609 3251 259 
Q 2797 -91 1919 -91 
Q 1588 -91 1214 -16 
Q 841 59 441 206 
L 441 856 
Q 825 641 1194 531 
Q 1563 422 1919 422 
Q 2459 422 2753 634 
Q 3047 847 3047 1241 
Q 3047 1584 2836 1778 
Q 2625 1972 2144 2069 
L 1759 2144 
Q 1053 2284 737 2584 
Q 422 2884 422 3419 
Q 422 4038 858 4394 
Q 1294 4750 2059 4750 
Q 2388 4750 2728 4690 
Q 3069 4631 3425 4513 
z
" transform="scale(0.015625)"/>
       <path id="DejaVuSans-41" d="M 2188 4044 
L 1331 1722 
L 3047 1722 
L 2188 4044 
z
M 1831 4666 
L 2547 4666 
L 4325 0 
L 3669 0 
L 3244 1197 
L 1141 1197 
L 716 0 
L 50 0 
L 1831 4666 
z
" transform="scale(0.015625)"/>
       <path id="DejaVuSans-43" d="M 4122 4306 
L 4122 3641 
Q 3803 3938 3442 4084 
Q 3081 4231 2675 4231 
Q 1875 4231 1450 3742 
Q 1025 3253 1025 2328 
Q 1025 1406 1450 917 
Q 1875 428 2675 428 
Q 3081 428 3442 575 
Q 3803 722 4122 1019 
L 4122 359 
Q 3791 134 3420 21 
Q 3050 -91 2638 -91 
Q 1578 -91 968 557 
Q 359 1206 359 2328 
Q 359 3453 968 4101 
Q 1578 4750 2638 4750 
Q 3056 4750 3426 4639 
Q 3797 4528 4122 4306 
z
" transform="scale(0.015625)"/>
       <path id="DejaVuSans-2d" d="M 313 2009 
L 1997 2009 
L 1997 1497 
L 313 1497 
L 313 2009 
z
" transform="scale(0.015625)"/>
       <path id="DejaVuSans-44" d="M 1259 4147 
L 1259 519 
L 2022 519 
Q 2988 519 3436 956 
Q 3884 1394 3884 2338 
Q 3884 3275 3436 3711 
Q 2988 4147 2022 4147 
L 1259 4147 
z
M 628 4666 
L 1925 4666 
Q 3281 4666 3915 4102 
Q 4550 3538 4550 2338 
Q 4550 1131 3912 565 
Q 3275 0 1925 0 
L 628 0 
L 628 4666 
z
" transform="scale(0.015625)"/>
       <path id="DejaVuSans-45" d="M 628 4666 
L 3578 4666 
L 3578 4134 
L 1259 4134 
L 1259 2753 
L 3481 2753 
L 3481 2222 
L 1259 2222 
L 1259 531 
L 3634 531 
L 3634 0 
L 628 0 
L 628 4666 
z
" transform="scale(0.015625)"/>
       <path id="DejaVuSans-4c" d="M 628 4666 
L 1259 4666 
L 1259 531 
L 3531 531 
L 3531 0 
L 628 0 
L 628 4666 
z
" transform="scale(0.015625)"/>
       <path id="DejaVuSans-59" d="M -13 4666 
L 666 4666 
L 1959 2747 
L 3244 4666 
L 3922 4666 
L 2272 2222 
L 2272 0 
L 1638 0 
L 1638 2222 
L -13 4666 
z
" transform="scale(0.015625)"/>
      </defs>
      <use xlink:href="#DejaVuSans-53"/>
      <use xlink:href="#DejaVuSans-41" x="65.351562"/>
      <use xlink:href="#DejaVuSans-43" x="132.009766"/>
      <use xlink:href="#DejaVuSans-2d" x="201.833984"/>
      <use xlink:href="#DejaVuSans-44" x="237.917969"/>
      <use xlink:href="#DejaVuSans-45" x="314.919922"/>
      <use xlink:href="#DejaVuSans-4c" x="378.103516"/>
      <use xlink:href="#DejaVuSans-41" x="436.066406"/>
      <use xlink:href="#DejaVuSans-59" x="496.724609"/>
      <use xlink:href="#DejaVuSans-2d" x="545.933594"/>
      <use xlink:href="#DejaVuSans-30" x="582.017578"/>
     </g>
    </g>
    <g id="line2d_19">
     <path d="M 204.576016 214.038594 
L 215.576016 214.038594 
L 226.576016 214.038594 
" style="fill: none; stroke: #dd8452; stroke-width: 3; stroke-linecap: round"/>
    </g>
    <g id="text_15">
     <!-- SAC-DELAY-1 -->
     <g style="fill: #262626" transform="translate(235.376016 217.888594)scale(0.11 -0.11)">
      <use xlink:href="#DejaVuSans-53"/>
      <use xlink:href="#DejaVuSans-41" x="65.351562"/>
      <use xlink:href="#DejaVuSans-43" x="132.009766"/>
      <use xlink:href="#DejaVuSans-2d" x="201.833984"/>
      <use xlink:href="#DejaVuSans-44" x="237.917969"/>
      <use xlink:href="#DejaVuSans-45" x="314.919922"/>
      <use xlink:href="#DejaVuSans-4c" x="378.103516"/>
      <use xlink:href="#DejaVuSans-41" x="436.066406"/>
      <use xlink:href="#DejaVuSans-59" x="496.724609"/>
      <use xlink:href="#DejaVuSans-2d" x="545.933594"/>
      <use xlink:href="#DejaVuSans-31" x="582.017578"/>
     </g>
    </g>
    <g id="line2d_20">
     <path d="M 204.576016 230.184531 
L 215.576016 230.184531 
L 226.576016 230.184531 
" style="fill: none; stroke: #55a868; stroke-width: 3; stroke-linecap: round"/>
    </g>
    <g id="text_16">
     <!-- SAC-DELAY-5 -->
     <g style="fill: #262626" transform="translate(235.376016 234.034531)scale(0.11 -0.11)">
      <use xlink:href="#DejaVuSans-53"/>
      <use xlink:href="#DejaVuSans-41" x="65.351562"/>
      <use xlink:href="#DejaVuSans-43" x="132.009766"/>
      <use xlink:href="#DejaVuSans-2d" x="201.833984"/>
      <use xlink:href="#DejaVuSans-44" x="237.917969"/>
      <use xlink:href="#DejaVuSans-45" x="314.919922"/>
      <use xlink:href="#DejaVuSans-4c" x="378.103516"/>
      <use xlink:href="#DejaVuSans-41" x="436.066406"/>
      <use xlink:href="#DejaVuSans-59" x="496.724609"/>
      <use xlink:href="#DejaVuSans-2d" x="545.933594"/>
      <use xlink:href="#DejaVuSans-35" x="582.017578"/>
     </g>
    </g>
    <g id="line2d_21">
     <path d="M 204.576016 246.330469 
L 215.576016 246.330469 
L 226.576016 246.330469 
" style="fill: none; stroke: #c44e52; stroke-width: 3; stroke-linecap: round"/>
    </g>
    <g id="text_17">
     <!-- SAC-DELAY-10 -->
     <g style="fill: #262626" transform="translate(235.376016 250.180469)scale(0.11 -0.11)">
      <use xlink:href="#DejaVuSans-53"/>
      <use xlink:href="#DejaVuSans-41" x="65.351562"/>
      <use xlink:href="#DejaVuSans-43" x="132.009766"/>
      <use xlink:href="#DejaVuSans-2d" x="201.833984"/>
      <use xlink:href="#DejaVuSans-44" x="237.917969"/>
      <use xlink:href="#DejaVuSans-45" x="314.919922"/>
      <use xlink:href="#DejaVuSans-4c" x="378.103516"/>
      <use xlink:href="#DejaVuSans-41" x="436.066406"/>
      <use xlink:href="#DejaVuSans-59" x="496.724609"/>
      <use xlink:href="#DejaVuSans-2d" x="545.933594"/>
      <use xlink:href="#DejaVuSans-31" x="582.017578"/>
      <use xlink:href="#DejaVuSans-30" x="645.640625"/>
     </g>
    </g>
    <g id="line2d_22">
     <path d="M 204.576016 262.476406 
L 215.576016 262.476406 
L 226.576016 262.476406 
" style="fill: none; stroke: #8172b3; stroke-width: 3; stroke-linecap: round"/>
    </g>
    <g id="text_18">
     <!-- SAC-DELAY-20 -->
     <g style="fill: #262626" transform="translate(235.376016 266.326406)scale(0.11 -0.11)">
      <use xlink:href="#DejaVuSans-53"/>
      <use xlink:href="#DejaVuSans-41" x="65.351562"/>
      <use xlink:href="#DejaVuSans-43" x="132.009766"/>
      <use xlink:href="#DejaVuSans-2d" x="201.833984"/>
      <use xlink:href="#DejaVuSans-44" x="237.917969"/>
      <use xlink:href="#DejaVuSans-45" x="314.919922"/>
      <use xlink:href="#DejaVuSans-4c" x="378.103516"/>
      <use xlink:href="#DejaVuSans-41" x="436.066406"/>
      <use xlink:href="#DejaVuSans-59" x="496.724609"/>
      <use xlink:href="#DejaVuSans-2d" x="545.933594"/>
      <use xlink:href="#DejaVuSans-32" x="582.017578"/>
      <use xlink:href="#DejaVuSans-30" x="645.640625"/>
     </g>
    </g>
    <g id="line2d_23">
     <path d="M 204.576016 278.622344 
L 215.576016 278.622344 
L 226.576016 278.622344 
" style="fill: none; stroke: #937860; stroke-width: 3; stroke-linecap: round"/>
    </g>
    <g id="text_19">
     <!-- SAC-DELAY-100 -->
     <g style="fill: #262626" transform="translate(235.376016 282.472344)scale(0.11 -0.11)">
      <use xlink:href="#DejaVuSans-53"/>
      <use xlink:href="#DejaVuSans-41" x="65.351562"/>
      <use xlink:href="#DejaVuSans-43" x="132.009766"/>
      <use xlink:href="#DejaVuSans-2d" x="201.833984"/>
      <use xlink:href="#DejaVuSans-44" x="237.917969"/>
      <use xlink:href="#DejaVuSans-45" x="314.919922"/>
      <use xlink:href="#DejaVuSans-4c" x="378.103516"/>
      <use xlink:href="#DejaVuSans-41" x="436.066406"/>
      <use xlink:href="#DejaVuSans-59" x="496.724609"/>
      <use xlink:href="#DejaVuSans-2d" x="545.933594"/>
      <use xlink:href="#DejaVuSans-31" x="582.017578"/>
      <use xlink:href="#DejaVuSans-30" x="645.640625"/>
      <use xlink:href="#DejaVuSans-30" x="709.263672"/>
     </g>
    </g>
   </g>
  </g>
 </g>
 <defs>
  <clipPath id="p87212b8970">
   <rect x="77.13" y="12.96" width="370.71" height="281.7"/>
  </clipPath>
 </defs>
</svg>
