<?xml version="1.0" encoding="utf-8" standalone="no"?>
<!DOCTYPE svg PUBLIC "-//W3C//DTD SVG 1.1//EN"
  "http://www.w3.org/Graphics/SVG/1.1/DTD/svg11.dtd">
<svg xmlns:xlink="http://www.w3.org/1999/xlink" width="460.8pt" height="345.6pt" viewBox="0 0 460.8 345.6" xmlns="http://www.w3.org/2000/svg" version="1.1">
 <metadata>
  <rdf:RDF xmlns:dc="http://purl.org/dc/elements/1.1/" xmlns:cc="http://creativecommons.org/ns#" xmlns:rdf="http://www.w3.org/1999/02/22-rdf-syntax-ns#">
   <cc:Work>
    <dc:type rdf:resource="http://purl.org/dc/dcmitype/StillImage"/>
    <dc:date>2022-09-10T15:50:24.217121</dc:date>
    <dc:format>image/svg+xml</dc:format>
    <dc:creator>
     <cc:Agent>
      <dc:title>Matplotlib v3.5.3, https://matplotlib.org/</dc:title>
     </cc:Agent>
    </dc:creator>
   </cc:Work>
  </rdf:RDF>
 </metadata>
 <defs>
  <style type="text/css">*{stroke-linejoin: round; stroke-linecap: butt}</style>
 </defs>
 <g id="figure_1">
  <g id="patch_1">
   <path d="M 0 345.6 
L 460.8 345.6 
L 460.8 0 
L 0 0 
z
" style="fill: #ffffff"/>
  </g>
  <g id="axes_1">
   <g id="patch_2">
    <path d="M 77.13 294.66 
L 447.84 294.66 
L 447.84 29.76 
L 77.13 29.76 
z
" style="fill: #eaeaf2"/>
   </g>
   <g id="matplotlib.axis_1">
    <g id="xtick_1">
     <g id="line2d_1">
      <path d="M 91.148445 294.66 
L 91.148445 29.76 
" clip-path="url(#p3483f74a8d)" style="fill: none; stroke: #ffffff; stroke-linecap: round"/>
     </g>
     <g id="text_1">
      <!-- 0.00 -->
      <g style="fill: #262626" transform="translate(78.902352 312.518281)scale(0.11 -0.11)">
       <defs>
        <path id="DejaVuSans-30" d="M 2034 4250 
Q 1547 4250 1301 3770 
Q 1056 3291 1056 2328 
Q 1056 1369 1301 889 
Q 1547 409 2034 409 
Q 2525 409 2770 889 
Q 3016 1369 3016 2328 
Q 3016 3291 2770 3770 
Q 2525 4250 2034 4250 
z
M 2034 4750 
Q 2819 4750 3233 4129 
Q 3647 3509 3647 2328 
Q 3647 1150 3233 529 
Q 2819 -91 2034 -91 
Q 1250 -91 836 529 
Q 422 1150 422 2328 
Q 422 3509 836 4129 
Q 1250 4750 2034 4750 
z
" transform="scale(0.015625)"/>
        <path id="DejaVuSans-2e" d="M 684 794 
L 1344 794 
L 1344 0 
L 684 0 
L 684 794 
z
" transform="scale(0.015625)"/>
       </defs>
       <use xlink:href="#DejaVuSans-30"/>
       <use xlink:href="#DejaVuSans-2e" x="63.623047"/>
       <use xlink:href="#DejaVuSans-30" x="95.410156"/>
       <use xlink:href="#DejaVuSans-30" x="159.033203"/>
      </g>
     </g>
    </g>
    <g id="xtick_2">
     <g id="line2d_2">
      <path d="M 147.788629 294.66 
L 147.788629 29.76 
" clip-path="url(#p3483f74a8d)" style="fill: none; stroke: #ffffff; stroke-linecap: round"/>
     </g>
     <g id="text_2">
      <!-- 0.05 -->
      <g style="fill: #262626" transform="translate(135.542535 312.518281)scale(0.11 -0.11)">
       <defs>
        <path id="DejaVuSans-35" d="M 691 4666 
L 3169 4666 
L 3169 4134 
L 1269 4134 
L 1269 2991 
Q 1406 3038 1543 3061 
Q 1681 3084 1819 3084 
Q 2600 3084 3056 2656 
Q 3513 2228 3513 1497 
Q 3513 744 3044 326 
Q 2575 -91 1722 -91 
Q 1428 -91 1123 -41 
Q 819 9 494 109 
L 494 744 
Q 775 591 1075 516 
Q 1375 441 1709 441 
Q 2250 441 2565 725 
Q 2881 1009 2881 1497 
Q 2881 1984 2565 2268 
Q 2250 2553 1709 2553 
Q 1456 2553 1204 2497 
Q 953 2441 691 2322 
L 691 4666 
z
" transform="scale(0.015625)"/>
       </defs>
       <use xlink:href="#DejaVuSans-30"/>
       <use xlink:href="#DejaVuSans-2e" x="63.623047"/>
       <use xlink:href="#DejaVuSans-30" x="95.410156"/>
       <use xlink:href="#DejaVuSans-35" x="159.033203"/>
      </g>
     </g>
    </g>
    <g id="xtick_3">
     <g id="line2d_3">
      <path d="M 204.428812 294.66 
L 204.428812 29.76 
" clip-path="url(#p3483f74a8d)" style="fill: none; stroke: #ffffff; stroke-linecap: round"/>
     </g>
     <g id="text_3">
      <!-- 0.10 -->
      <g style="fill: #262626" transform="translate(192.182718 312.518281)scale(0.11 -0.11)">
       <defs>
        <path id="DejaVuSans-31" d="M 794 531 
L 1825 531 
L 1825 4091 
L 703 3866 
L 703 4441 
L 1819 4666 
L 2450 4666 
L 2450 531 
L 3481 531 
L 3481 0 
L 794 0 
L 794 531 
z
" transform="scale(0.015625)"/>
       </defs>
       <use xlink:href="#DejaVuSans-30"/>
       <use xlink:href="#DejaVuSans-2e" x="63.623047"/>
       <use xlink:href="#DejaVuSans-31" x="95.410156"/>
       <use xlink:href="#DejaVuSans-30" x="159.033203"/>
      </g>
     </g>
    </g>
    <g id="xtick_4">
     <g id="line2d_4">
      <path d="M 261.068995 294.66 
L 261.068995 29.76 
" clip-path="url(#p3483f74a8d)" style="fill: none; stroke: #ffffff; stroke-linecap: round"/>
     </g>
     <g id="text_4">
      <!-- 0.15 -->
      <g style="fill: #262626" transform="translate(248.822902 312.518281)scale(0.11 -0.11)">
       <use xlink:href="#DejaVuSans-30"/>
       <use xlink:href="#DejaVuSans-2e" x="63.623047"/>
       <use xlink:href="#DejaVuSans-31" x="95.410156"/>
       <use xlink:href="#DejaVuSans-35" x="159.033203"/>
      </g>
     </g>
    </g>
    <g id="xtick_5">
     <g id="line2d_5">
      <path d="M 317.709179 294.66 
L 317.709179 29.76 
" clip-path="url(#p3483f74a8d)" style="fill: none; stroke: #ffffff; stroke-linecap: round"/>
     </g>
     <g id="text_5">
      <!-- 0.20 -->
      <g style="fill: #262626" transform="translate(305.463085 312.518281)scale(0.11 -0.11)">
       <defs>
        <path id="DejaVuSans-32" d="M 1228 531 
L 3431 531 
L 3431 0 
L 469 0 
L 469 531 
Q 828 903 1448 1529 
Q 2069 2156 2228 2338 
Q 2531 2678 2651 2914 
Q 2772 3150 2772 3378 
Q 2772 3750 2511 3984 
Q 2250 4219 1831 4219 
Q 1534 4219 1204 4116 
Q 875 4013 500 3803 
L 500 4441 
Q 881 4594 1212 4672 
Q 1544 4750 1819 4750 
Q 2544 4750 2975 4387 
Q 3406 4025 3406 3419 
Q 3406 3131 3298 2873 
Q 3191 2616 2906 2266 
Q 2828 2175 2409 1742 
Q 1991 1309 1228 531 
z
" transform="scale(0.015625)"/>
       </defs>
       <use xlink:href="#DejaVuSans-30"/>
       <use xlink:href="#DejaVuSans-2e" x="63.623047"/>
       <use xlink:href="#DejaVuSans-32" x="95.410156"/>
       <use xlink:href="#DejaVuSans-30" x="159.033203"/>
      </g>
     </g>
    </g>
    <g id="xtick_6">
     <g id="line2d_6">
      <path d="M 374.349362 294.66 
L 374.349362 29.76 
" clip-path="url(#p3483f74a8d)" style="fill: none; stroke: #ffffff; stroke-linecap: round"/>
     </g>
     <g id="text_6">
      <!-- 0.25 -->
      <g style="fill: #262626" transform="translate(362.103268 312.518281)scale(0.11 -0.11)">
       <use xlink:href="#DejaVuSans-30"/>
       <use xlink:href="#DejaVuSans-2e" x="63.623047"/>
       <use xlink:href="#DejaVuSans-32" x="95.410156"/>
       <use xlink:href="#DejaVuSans-35" x="159.033203"/>
      </g>
     </g>
    </g>
    <g id="xtick_7">
     <g id="line2d_7">
      <path d="M 430.989545 294.66 
L 430.989545 29.76 
" clip-path="url(#p3483f74a8d)" style="fill: none; stroke: #ffffff; stroke-linecap: round"/>
     </g>
     <g id="text_7">
      <!-- 0.30 -->
      <g style="fill: #262626" transform="translate(418.743452 312.518281)scale(0.11 -0.11)">
       <defs>
        <path id="DejaVuSans-33" d="M 2597 2516 
Q 3050 2419 3304 2112 
Q 3559 1806 3559 1356 
Q 3559 666 3084 287 
Q 2609 -91 1734 -91 
Q 1441 -91 1130 -33 
Q 819 25 488 141 
L 488 750 
Q 750 597 1062 519 
Q 1375 441 1716 441 
Q 2309 441 2620 675 
Q 2931 909 2931 1356 
Q 2931 1769 2642 2001 
Q 2353 2234 1838 2234 
L 1294 2234 
L 1294 2753 
L 1863 2753 
Q 2328 2753 2575 2939 
Q 2822 3125 2822 3475 
Q 2822 3834 2567 4026 
Q 2313 4219 1838 4219 
Q 1578 4219 1281 4162 
Q 984 4106 628 3988 
L 628 4550 
Q 988 4650 1302 4700 
Q 1616 4750 1894 4750 
Q 2613 4750 3031 4423 
Q 3450 4097 3450 3541 
Q 3450 3153 3228 2886 
Q 3006 2619 2597 2516 
z
" transform="scale(0.015625)"/>
       </defs>
       <use xlink:href="#DejaVuSans-30"/>
       <use xlink:href="#DejaVuSans-2e" x="63.623047"/>
       <use xlink:href="#DejaVuSans-33" x="95.410156"/>
       <use xlink:href="#DejaVuSans-30" x="159.033203"/>
      </g>
     </g>
    </g>
    <g id="text_8">
     <!-- Timesteps (in Million) -->
     <g style="fill: #262626" transform="translate(187.739219 329.44375)scale(0.14 -0.14)">
      <defs>
       <path id="DejaVuSans-54" d="M -19 4666 
L 3928 4666 
L 3928 4134 
L 2272 4134 
L 2272 0 
L 1638 0 
L 1638 4134 
L -19 4134 
L -19 4666 
z
" transform="scale(0.015625)"/>
       <path id="DejaVuSans-69" d="M 603 3500 
L 1178 3500 
L 1178 0 
L 603 0 
L 603 3500 
z
M 603 4863 
L 1178 4863 
L 1178 4134 
L 603 4134 
L 603 4863 
z
" transform="scale(0.015625)"/>
       <path id="DejaVuSans-6d" d="M 3328 2828 
Q 3544 3216 3844 3400 
Q 4144 3584 4550 3584 
Q 5097 3584 5394 3201 
Q 5691 2819 5691 2113 
L 5691 0 
L 5113 0 
L 5113 2094 
Q 5113 2597 4934 2840 
Q 4756 3084 4391 3084 
Q 3944 3084 3684 2787 
Q 3425 2491 3425 1978 
L 3425 0 
L 2847 0 
L 2847 2094 
Q 2847 2600 2669 2842 
Q 2491 3084 2119 3084 
Q 1678 3084 1418 2786 
Q 1159 2488 1159 1978 
L 1159 0 
L 581 0 
L 581 3500 
L 1159 3500 
L 1159 2956 
Q 1356 3278 1631 3431 
Q 1906 3584 2284 3584 
Q 2666 3584 2933 3390 
Q 3200 3197 3328 2828 
z
" transform="scale(0.015625)"/>
       <path id="DejaVuSans-65" d="M 3597 1894 
L 3597 1613 
L 953 1613 
Q 991 1019 1311 708 
Q 1631 397 2203 397 
Q 2534 397 2845 478 
Q 3156 559 3463 722 
L 3463 178 
Q 3153 47 2828 -22 
Q 2503 -91 2169 -91 
Q 1331 -91 842 396 
Q 353 884 353 1716 
Q 353 2575 817 3079 
Q 1281 3584 2069 3584 
Q 2775 3584 3186 3129 
Q 3597 2675 3597 1894 
z
M 3022 2063 
Q 3016 2534 2758 2815 
Q 2500 3097 2075 3097 
Q 1594 3097 1305 2825 
Q 1016 2553 972 2059 
L 3022 2063 
z
" transform="scale(0.015625)"/>
       <path id="DejaVuSans-73" d="M 2834 3397 
L 2834 2853 
Q 2591 2978 2328 3040 
Q 2066 3103 1784 3103 
Q 1356 3103 1142 2972 
Q 928 2841 928 2578 
Q 928 2378 1081 2264 
Q 1234 2150 1697 2047 
L 1894 2003 
Q 2506 1872 2764 1633 
Q 3022 1394 3022 966 
Q 3022 478 2636 193 
Q 2250 -91 1575 -91 
Q 1294 -91 989 -36 
Q 684 19 347 128 
L 347 722 
Q 666 556 975 473 
Q 1284 391 1588 391 
Q 1994 391 2212 530 
Q 2431 669 2431 922 
Q 2431 1156 2273 1281 
Q 2116 1406 1581 1522 
L 1381 1569 
Q 847 1681 609 1914 
Q 372 2147 372 2553 
Q 372 3047 722 3315 
Q 1072 3584 1716 3584 
Q 2034 3584 2315 3537 
Q 2597 3491 2834 3397 
z
" transform="scale(0.015625)"/>
       <path id="DejaVuSans-74" d="M 1172 4494 
L 1172 3500 
L 2356 3500 
L 2356 3053 
L 1172 3053 
L 1172 1153 
Q 1172 725 1289 603 
Q 1406 481 1766 481 
L 2356 481 
L 2356 0 
L 1766 0 
Q 1100 0 847 248 
Q 594 497 594 1153 
L 594 3053 
L 172 3053 
L 172 3500 
L 594 3500 
L 594 4494 
L 1172 4494 
z
" transform="scale(0.015625)"/>
       <path id="DejaVuSans-70" d="M 1159 525 
L 1159 -1331 
L 581 -1331 
L 581 3500 
L 1159 3500 
L 1159 2969 
Q 1341 3281 1617 3432 
Q 1894 3584 2278 3584 
Q 2916 3584 3314 3078 
Q 3713 2572 3713 1747 
Q 3713 922 3314 415 
Q 2916 -91 2278 -91 
Q 1894 -91 1617 61 
Q 1341 213 1159 525 
z
M 3116 1747 
Q 3116 2381 2855 2742 
Q 2594 3103 2138 3103 
Q 1681 3103 1420 2742 
Q 1159 2381 1159 1747 
Q 1159 1113 1420 752 
Q 1681 391 2138 391 
Q 2594 391 2855 752 
Q 3116 1113 3116 1747 
z
" transform="scale(0.015625)"/>
       <path id="DejaVuSans-20" transform="scale(0.015625)"/>
       <path id="DejaVuSans-28" d="M 1984 4856 
Q 1566 4138 1362 3434 
Q 1159 2731 1159 2009 
Q 1159 1288 1364 580 
Q 1569 -128 1984 -844 
L 1484 -844 
Q 1016 -109 783 600 
Q 550 1309 550 2009 
Q 550 2706 781 3412 
Q 1013 4119 1484 4856 
L 1984 4856 
z
" transform="scale(0.015625)"/>
       <path id="DejaVuSans-6e" d="M 3513 2113 
L 3513 0 
L 2938 0 
L 2938 2094 
Q 2938 2591 2744 2837 
Q 2550 3084 2163 3084 
Q 1697 3084 1428 2787 
Q 1159 2491 1159 1978 
L 1159 0 
L 581 0 
L 581 3500 
L 1159 3500 
L 1159 2956 
Q 1366 3272 1645 3428 
Q 1925 3584 2291 3584 
Q 2894 3584 3203 3211 
Q 3513 2838 3513 2113 
z
" transform="scale(0.015625)"/>
       <path id="DejaVuSans-4d" d="M 628 4666 
L 1569 4666 
L 2759 1491 
L 3956 4666 
L 4897 4666 
L 4897 0 
L 4281 0 
L 4281 4097 
L 3078 897 
L 2444 897 
L 1241 4097 
L 1241 0 
L 628 0 
L 628 4666 
z
" transform="scale(0.015625)"/>
       <path id="DejaVuSans-6c" d="M 603 4863 
L 1178 4863 
L 1178 0 
L 603 0 
L 603 4863 
z
" transform="scale(0.015625)"/>
       <path id="DejaVuSans-6f" d="M 1959 3097 
Q 1497 3097 1228 2736 
Q 959 2375 959 1747 
Q 959 1119 1226 758 
Q 1494 397 1959 397 
Q 2419 397 2687 759 
Q 2956 1122 2956 1747 
Q 2956 2369 2687 2733 
Q 2419 3097 1959 3097 
z
M 1959 3584 
Q 2709 3584 3137 3096 
Q 3566 2609 3566 1747 
Q 3566 888 3137 398 
Q 2709 -91 1959 -91 
Q 1206 -91 779 398 
Q 353 888 353 1747 
Q 353 2609 779 3096 
Q 1206 3584 1959 3584 
z
" transform="scale(0.015625)"/>
       <path id="DejaVuSans-29" d="M 513 4856 
L 1013 4856 
Q 1481 4119 1714 3412 
Q 1947 2706 1947 2009 
Q 1947 1309 1714 600 
Q 1481 -109 1013 -844 
L 513 -844 
Q 928 -128 1133 580 
Q 1338 1288 1338 2009 
Q 1338 2731 1133 3434 
Q 928 4138 513 4856 
z
" transform="scale(0.015625)"/>
      </defs>
      <use xlink:href="#DejaVuSans-54"/>
      <use xlink:href="#DejaVuSans-69" x="57.958984"/>
      <use xlink:href="#DejaVuSans-6d" x="85.742188"/>
      <use xlink:href="#DejaVuSans-65" x="183.154297"/>
      <use xlink:href="#DejaVuSans-73" x="244.677734"/>
      <use xlink:href="#DejaVuSans-74" x="296.777344"/>
      <use xlink:href="#DejaVuSans-65" x="335.986328"/>
      <use xlink:href="#DejaVuSans-70" x="397.509766"/>
      <use xlink:href="#DejaVuSans-73" x="460.986328"/>
      <use xlink:href="#DejaVuSans-20" x="513.085938"/>
      <use xlink:href="#DejaVuSans-28" x="544.873047"/>
      <use xlink:href="#DejaVuSans-69" x="583.886719"/>
      <use xlink:href="#DejaVuSans-6e" x="611.669922"/>
      <use xlink:href="#DejaVuSans-20" x="675.048828"/>
      <use xlink:href="#DejaVuSans-4d" x="706.835938"/>
      <use xlink:href="#DejaVuSans-69" x="793.115234"/>
      <use xlink:href="#DejaVuSans-6c" x="820.898438"/>
      <use xlink:href="#DejaVuSans-6c" x="848.681641"/>
      <use xlink:href="#DejaVuSans-69" x="876.464844"/>
      <use xlink:href="#DejaVuSans-6f" x="904.248047"/>
      <use xlink:href="#DejaVuSans-6e" x="965.429688"/>
      <use xlink:href="#DejaVuSans-29" x="1028.808594"/>
     </g>
    </g>
   </g>
   <g id="matplotlib.axis_2">
    <g id="ytick_1">
     <g id="line2d_8">
      <path d="M 77.13 291.443866 
L 447.84 291.443866 
" clip-path="url(#p3483f74a8d)" style="fill: none; stroke: #ffffff; stroke-linecap: round"/>
     </g>
     <g id="text_9">
      <!-- −5000 -->
      <g style="fill: #262626" transform="translate(30.417344 295.623007)scale(0.11 -0.11)">
       <defs>
        <path id="DejaVuSans-2212" d="M 678 2272 
L 4684 2272 
L 4684 1741 
L 678 1741 
L 678 2272 
z
" transform="scale(0.015625)"/>
       </defs>
       <use xlink:href="#DejaVuSans-2212"/>
       <use xlink:href="#DejaVuSans-35" x="83.789062"/>
       <use xlink:href="#DejaVuSans-30" x="147.412109"/>
       <use xlink:href="#DejaVuSans-30" x="211.035156"/>
       <use xlink:href="#DejaVuSans-30" x="274.658203"/>
      </g>
     </g>
    </g>
    <g id="ytick_2">
     <g id="line2d_9">
      <path d="M 77.13 247.319989 
L 447.84 247.319989 
" clip-path="url(#p3483f74a8d)" style="fill: none; stroke: #ffffff; stroke-linecap: round"/>
     </g>
     <g id="text_10">
      <!-- −4000 -->
      <g style="fill: #262626" transform="translate(30.417344 251.499129)scale(0.11 -0.11)">
       <defs>
        <path id="DejaVuSans-34" d="M 2419 4116 
L 825 1625 
L 2419 1625 
L 2419 4116 
z
M 2253 4666 
L 3047 4666 
L 3047 1625 
L 3713 1625 
L 3713 1100 
L 3047 1100 
L 3047 0 
L 2419 0 
L 2419 1100 
L 313 1100 
L 313 1709 
L 2253 4666 
z
" transform="scale(0.015625)"/>
       </defs>
       <use xlink:href="#DejaVuSans-2212"/>
       <use xlink:href="#DejaVuSans-34" x="83.789062"/>
       <use xlink:href="#DejaVuSans-30" x="147.412109"/>
       <use xlink:href="#DejaVuSans-30" x="211.035156"/>
       <use xlink:href="#DejaVuSans-30" x="274.658203"/>
      </g>
     </g>
    </g>
    <g id="ytick_3">
     <g id="line2d_10">
      <path d="M 77.13 203.196111 
L 447.84 203.196111 
" clip-path="url(#p3483f74a8d)" style="fill: none; stroke: #ffffff; stroke-linecap: round"/>
     </g>
     <g id="text_11">
      <!-- −3000 -->
      <g style="fill: #262626" transform="translate(30.417344 207.375252)scale(0.11 -0.11)">
       <use xlink:href="#DejaVuSans-2212"/>
       <use xlink:href="#DejaVuSans-33" x="83.789062"/>
       <use xlink:href="#DejaVuSans-30" x="147.412109"/>
       <use xlink:href="#DejaVuSans-30" x="211.035156"/>
       <use xlink:href="#DejaVuSans-30" x="274.658203"/>
      </g>
     </g>
    </g>
    <g id="ytick_4">
     <g id="line2d_11">
      <path d="M 77.13 159.072234 
L 447.84 159.072234 
" clip-path="url(#p3483f74a8d)" style="fill: none; stroke: #ffffff; stroke-linecap: round"/>
     </g>
     <g id="text_12">
      <!-- −2000 -->
      <g style="fill: #262626" transform="translate(30.417344 163.251374)scale(0.11 -0.11)">
       <use xlink:href="#DejaVuSans-2212"/>
       <use xlink:href="#DejaVuSans-32" x="83.789062"/>
       <use xlink:href="#DejaVuSans-30" x="147.412109"/>
       <use xlink:href="#DejaVuSans-30" x="211.035156"/>
       <use xlink:href="#DejaVuSans-30" x="274.658203"/>
      </g>
     </g>
    </g>
    <g id="ytick_5">
     <g id="line2d_12">
      <path d="M 77.13 114.948356 
L 447.84 114.948356 
" clip-path="url(#p3483f74a8d)" style="fill: none; stroke: #ffffff; stroke-linecap: round"/>
     </g>
     <g id="text_13">
      <!-- −1000 -->
      <g style="fill: #262626" transform="translate(30.417344 119.127497)scale(0.11 -0.11)">
       <use xlink:href="#DejaVuSans-2212"/>
       <use xlink:href="#DejaVuSans-31" x="83.789062"/>
       <use xlink:href="#DejaVuSans-30" x="147.412109"/>
       <use xlink:href="#DejaVuSans-30" x="211.035156"/>
       <use xlink:href="#DejaVuSans-30" x="274.658203"/>
      </g>
     </g>
    </g>
    <g id="ytick_6">
     <g id="line2d_13">
      <path d="M 77.13 70.824479 
L 447.84 70.824479 
" clip-path="url(#p3483f74a8d)" style="fill: none; stroke: #ffffff; stroke-linecap: round"/>
     </g>
     <g id="text_14">
      <!-- 0 -->
      <g style="fill: #262626" transform="translate(60.63125 75.003619)scale(0.11 -0.11)">
       <use xlink:href="#DejaVuSans-30"/>
      </g>
     </g>
    </g>
    <g id="text_15">
     <!-- Score -->
     <g style="fill: #262626" transform="translate(23.505781 181.813281)rotate(-90)scale(0.14 -0.14)">
      <defs>
       <path id="DejaVuSans-53" d="M 3425 4513 
L 3425 3897 
Q 3066 4069 2747 4153 
Q 2428 4238 2131 4238 
Q 1616 4238 1336 4038 
Q 1056 3838 1056 3469 
Q 1056 3159 1242 3001 
Q 1428 2844 1947 2747 
L 2328 2669 
Q 3034 2534 3370 2195 
Q 3706 1856 3706 1288 
Q 3706 609 3251 259 
Q 2797 -91 1919 -91 
Q 1588 -91 1214 -16 
Q 841 59 441 206 
L 441 856 
Q 825 641 1194 531 
Q 1563 422 1919 422 
Q 2459 422 2753 634 
Q 3047 847 3047 1241 
Q 3047 1584 2836 1778 
Q 2625 1972 2144 2069 
L 1759 2144 
Q 1053 2284 737 2584 
Q 422 2884 422 3419 
Q 422 4038 858 4394 
Q 1294 4750 2059 4750 
Q 2388 4750 2728 4690 
Q 3069 4631 3425 4513 
z
" transform="scale(0.015625)"/>
       <path id="DejaVuSans-63" d="M 3122 3366 
L 3122 2828 
Q 2878 2963 2633 3030 
Q 2388 3097 2138 3097 
Q 1578 3097 1268 2742 
Q 959 2388 959 1747 
Q 959 1106 1268 751 
Q 1578 397 2138 397 
Q 2388 397 2633 464 
Q 2878 531 3122 666 
L 3122 134 
Q 2881 22 2623 -34 
Q 2366 -91 2075 -91 
Q 1284 -91 818 406 
Q 353 903 353 1747 
Q 353 2603 823 3093 
Q 1294 3584 2113 3584 
Q 2378 3584 2631 3529 
Q 2884 3475 3122 3366 
z
" transform="scale(0.015625)"/>
       <path id="DejaVuSans-72" d="M 2631 2963 
Q 2534 3019 2420 3045 
Q 2306 3072 2169 3072 
Q 1681 3072 1420 2755 
Q 1159 2438 1159 1844 
L 1159 0 
L 581 0 
L 581 3500 
L 1159 3500 
L 1159 2956 
Q 1341 3275 1631 3429 
Q 1922 3584 2338 3584 
Q 2397 3584 2469 3576 
Q 2541 3569 2628 3553 
L 2631 2963 
z
" transform="scale(0.015625)"/>
      </defs>
      <use xlink:href="#DejaVuSans-53"/>
      <use xlink:href="#DejaVuSans-63" x="63.476562"/>
      <use xlink:href="#DejaVuSans-6f" x="118.457031"/>
      <use xlink:href="#DejaVuSans-72" x="179.638672"/>
      <use xlink:href="#DejaVuSans-65" x="218.501953"/>
     </g>
    </g>
   </g>
   <g id="PolyCollection_1">
    <defs>
     <path id="m12ef97c237" d="M 93.980455 -172.077359 
L 93.980455 -187.854397 
L 96.812464 -184.817832 
L 99.644473 -188.034485 
L 102.476482 -196.226391 
L 105.308491 -270.861191 
L 108.1405 -281.929866 
L 110.97251 -286.571392 
L 113.804519 -283.822359 
L 116.636528 -286.588943 
L 119.468537 -287.489598 
L 122.300546 -287.237887 
L 125.132555 -291.406825 
L 127.964565 -288.734627 
L 130.796574 -294.72145 
L 133.628583 -292.914277 
L 136.460592 -295.603801 
L 139.292601 -294.283476 
L 142.12461 -288.487036 
L 144.95662 -303.799091 
L 147.788629 -289.510104 
L 150.620638 -296.338461 
L 153.452647 -288.749941 
L 156.284656 -295.067443 
L 159.116665 -289.080165 
L 161.948675 -289.300993 
L 164.780684 -292.212055 
L 167.612693 -291.446833 
L 170.444702 -288.033431 
L 173.276711 -286.47166 
L 176.10872 -289.193981 
L 178.94073 -290.796904 
L 181.772739 -288.019081 
L 184.604748 -289.178596 
L 187.436757 -286.704195 
L 190.268766 -290.707861 
L 193.100775 -285.674685 
L 195.932785 -288.480431 
L 198.764794 -290.266541 
L 201.596803 -286.963167 
L 204.428812 -285.855118 
L 207.260821 -289.260478 
L 210.09283 -288.711704 
L 212.92484 -290.496436 
L 215.756849 -285.628315 
L 218.588858 -287.858186 
L 221.420867 -288.068383 
L 224.252876 -287.260606 
L 227.084885 -286.547226 
L 229.916895 -286.253602 
L 232.748904 -286.085837 
L 235.580913 -287.064357 
L 238.412922 -288.06451 
L 241.244931 -287.417044 
L 244.07694 -287.975074 
L 246.90895 -287.974076 
L 249.740959 -287.190588 
L 252.572968 -287.148436 
L 255.404977 -288.065707 
L 258.236986 -287.547574 
L 261.068995 -287.77808 
L 263.901005 -287.375966 
L 266.733014 -288.62493 
L 269.565023 -286.239194 
L 272.397032 -286.643195 
L 275.229041 -288.198848 
L 278.06105 -287.160506 
L 280.89306 -287.548324 
L 283.725069 -287.262338 
L 286.557078 -286.877878 
L 289.389087 -286.925022 
L 292.221096 -286.621881 
L 295.053105 -286.242136 
L 297.885115 -287.124131 
L 300.717124 -286.822107 
L 303.549133 -289.718126 
L 306.381142 -287.028209 
L 309.213151 -287.527411 
L 312.04516 -286.9506 
L 314.87717 -287.290135 
L 317.709179 -286.98719 
L 320.541188 -287.296878 
L 323.373197 -288.335487 
L 326.205206 -286.53876 
L 329.037215 -286.50485 
L 331.869225 -287.376599 
L 334.701234 -287.639096 
L 337.533243 -287.282777 
L 340.365252 -286.628894 
L 343.197261 -286.173263 
L 346.02927 -286.924314 
L 348.86128 -286.703139 
L 351.693289 -286.64249 
L 354.525298 -286.438079 
L 357.357307 -286.838902 
L 360.189316 -288.47232 
L 363.021325 -286.726789 
L 365.853335 -286.251203 
L 368.685344 -286.597687 
L 371.517353 -287.179583 
L 374.349362 -287.688999 
L 377.181371 -286.412194 
L 380.01338 -286.417215 
L 382.84539 -287.203098 
L 385.677399 -287.002977 
L 388.509408 -287.215785 
L 391.341417 -287.474332 
L 394.173426 -286.865529 
L 397.005435 -286.529246 
L 399.837445 -287.584589 
L 402.669454 -287.21178 
L 405.501463 -286.739236 
L 408.333472 -286.53169 
L 411.165481 -286.913662 
L 413.99749 -287.110475 
L 416.8295 -286.804397 
L 419.661509 -286.665126 
L 422.493518 -286.327707 
L 425.325527 -286.469631 
L 428.157536 -286.661274 
L 430.989545 -286.256755 
L 430.989545 -285.249682 
L 430.989545 -285.249682 
L 428.157536 -285.175813 
L 425.325527 -285.865355 
L 422.493518 -285.490751 
L 419.661509 -285.556852 
L 416.8295 -284.937056 
L 413.99749 -285.462897 
L 411.165481 -285.170123 
L 408.333472 -285.655754 
L 405.501463 -285.227792 
L 402.669454 -286.167413 
L 399.837445 -285.465887 
L 397.005435 -285.208647 
L 394.173426 -284.805555 
L 391.341417 -285.650192 
L 388.509408 -285.281288 
L 385.677399 -285.769063 
L 382.84539 -285.751962 
L 380.01338 -284.911028 
L 377.181371 -285.197381 
L 374.349362 -284.974509 
L 371.517353 -285.140738 
L 368.685344 -285.336586 
L 365.853335 -285.048221 
L 363.021325 -284.44912 
L 360.189316 -285.457153 
L 357.357307 -285.796109 
L 354.525298 -284.203365 
L 351.693289 -284.077999 
L 348.86128 -285.501748 
L 346.02927 -285.55507 
L 343.197261 -284.964677 
L 340.365252 -284.642601 
L 337.533243 -285.152959 
L 334.701234 -285.690584 
L 331.869225 -285.232388 
L 329.037215 -285.768109 
L 326.205206 -284.155564 
L 323.373197 -285.070125 
L 320.541188 -284.466389 
L 317.709179 -284.703687 
L 314.87717 -285.57424 
L 312.04516 -285.112466 
L 309.213151 -284.506215 
L 306.381142 -285.203372 
L 303.549133 -285.870945 
L 300.717124 -285.357445 
L 297.885115 -285.011984 
L 295.053105 -284.699674 
L 292.221096 -284.694304 
L 289.389087 -285.302651 
L 286.557078 -284.449024 
L 283.725069 -284.768885 
L 280.89306 -284.518409 
L 278.06105 -285.137978 
L 275.229041 -284.808755 
L 272.397032 -284.83165 
L 269.565023 -285.285724 
L 266.733014 -285.00922 
L 263.901005 -284.636725 
L 261.068995 -285.418145 
L 258.236986 -285.462232 
L 255.404977 -285.528157 
L 252.572968 -284.910547 
L 249.740959 -284.814485 
L 246.90895 -285.901207 
L 244.07694 -284.434979 
L 241.244931 -285.231869 
L 238.412922 -286.156426 
L 235.580913 -283.798849 
L 232.748904 -283.942712 
L 229.916895 -282.784394 
L 227.084885 -284.514841 
L 224.252876 -285.047809 
L 221.420867 -282.010047 
L 218.588858 -283.810152 
L 215.756849 -284.700873 
L 212.92484 -284.900559 
L 210.09283 -284.048502 
L 207.260821 -284.601804 
L 204.428812 -284.450772 
L 201.596803 -282.814452 
L 198.764794 -285.867466 
L 195.932785 -283.53023 
L 193.100775 -284.157001 
L 190.268766 -282.744766 
L 187.436757 -282.488628 
L 184.604748 -284.20846 
L 181.772739 -284.547082 
L 178.94073 -284.236269 
L 176.10872 -285.09095 
L 173.276711 -283.708946 
L 170.444702 -285.560901 
L 167.612693 -284.336932 
L 164.780684 -286.208762 
L 161.948675 -279.629969 
L 159.116665 -284.115589 
L 156.284656 -283.717893 
L 153.452647 -283.238604 
L 150.620638 -281.804923 
L 147.788629 -280.125704 
L 144.95662 -277.046678 
L 142.12461 -285.954414 
L 139.292601 -285.60241 
L 136.460592 -275.942521 
L 133.628583 -273.500116 
L 130.796574 -272.122358 
L 127.964565 -271.631845 
L 125.132555 -267.213757 
L 122.300546 -272.700552 
L 119.468537 -266.689748 
L 116.636528 -272.954458 
L 113.804519 -272.044826 
L 110.97251 -268.597059 
L 108.1405 -275.557266 
L 105.308491 -234.744586 
L 102.476482 -159.96359 
L 99.644473 -158.464955 
L 96.812464 -158.703329 
L 93.980455 -172.077359 
z
" style="stroke: #ffffff; stroke-opacity: 0.5"/>
    </defs>
    <g clip-path="url(#p3483f74a8d)">
     <use xlink:href="#m12ef97c237" x="0" y="345.6" style="fill: #4c72b0; fill-opacity: 0.5; stroke: #ffffff; stroke-opacity: 0.5"/>
    </g>
   </g>
   <g id="PolyCollection_2">
    <defs>
     <path id="m41392aded3" d="M 93.980455 -151.135132 
L 93.980455 -195.103096 
L 96.812464 -189.213518 
L 99.644473 -186.424458 
L 102.476482 -187.748536 
L 105.308491 -232.00448 
L 108.1405 -278.748586 
L 110.97251 -283.389686 
L 113.804519 -290.509863 
L 116.636528 -285.12553 
L 119.468537 -281.329988 
L 122.300546 -280.910762 
L 125.132555 -290.434149 
L 127.964565 -286.115993 
L 130.796574 -290.893629 
L 133.628583 -284.665097 
L 136.460592 -288.989812 
L 139.292601 -284.376668 
L 142.12461 -291.57615 
L 144.95662 -291.507097 
L 147.788629 -287.260963 
L 150.620638 -279.375359 
L 153.452647 -286.793463 
L 156.284656 -290.862018 
L 159.116665 -287.816253 
L 161.948675 -287.392153 
L 164.780684 -287.685684 
L 167.612693 -289.233068 
L 170.444702 -286.182941 
L 173.276711 -293.04091 
L 176.10872 -290.648991 
L 178.94073 -288.529639 
L 181.772739 -293.405637 
L 184.604748 -289.271001 
L 187.436757 -289.786752 
L 190.268766 -289.064334 
L 193.100775 -289.751671 
L 195.932785 -283.671027 
L 198.764794 -288.19073 
L 201.596803 -287.066542 
L 204.428812 -286.9958 
L 207.260821 -290.207063 
L 210.09283 -289.790093 
L 212.92484 -288.410179 
L 215.756849 -288.762404 
L 218.588858 -287.524229 
L 221.420867 -284.140926 
L 224.252876 -288.818973 
L 227.084885 -287.786338 
L 229.916895 -287.869063 
L 232.748904 -287.659684 
L 235.580913 -288.325047 
L 238.412922 -291.13979 
L 241.244931 -287.251418 
L 244.07694 -285.957898 
L 246.90895 -288.980644 
L 249.740959 -290.926208 
L 252.572968 -296.053055 
L 255.404977 -289.995008 
L 258.236986 -292.005231 
L 261.068995 -291.570157 
L 263.901005 -289.464904 
L 266.733014 -287.403738 
L 269.565023 -291.236546 
L 272.397032 -291.935493 
L 275.229041 -294.105367 
L 278.06105 -292.499418 
L 280.89306 -287.742576 
L 283.725069 -289.933203 
L 286.557078 -291.212667 
L 289.389087 -290.810563 
L 292.221096 -291.64144 
L 295.053105 -287.533849 
L 297.885115 -289.160881 
L 300.717124 -289.627804 
L 303.549133 -288.328582 
L 306.381142 -289.74708 
L 309.213151 -290.411243 
L 312.04516 -291.092883 
L 314.87717 -291.776732 
L 317.709179 -288.518579 
L 320.541188 -288.479941 
L 323.373197 -289.560393 
L 326.205206 -290.808643 
L 329.037215 -291.241367 
L 331.869225 -288.204812 
L 334.701234 -290.482552 
L 337.533243 -290.944724 
L 340.365252 -290.510838 
L 343.197261 -288.67965 
L 346.02927 -295.113354 
L 348.86128 -289.079421 
L 351.693289 -287.467393 
L 354.525298 -290.546739 
L 357.357307 -294.52634 
L 360.189316 -289.791206 
L 363.021325 -288.484761 
L 365.853335 -289.270828 
L 368.685344 -289.207699 
L 371.517353 -291.752679 
L 374.349362 -288.877894 
L 377.181371 -290.479045 
L 380.01338 -289.880858 
L 382.84539 -288.561158 
L 385.677399 -289.625185 
L 388.509408 -289.637967 
L 391.341417 -290.880057 
L 394.173426 -289.481741 
L 397.005435 -290.793374 
L 399.837445 -292.455562 
L 402.669454 -290.746446 
L 405.501463 -291.870595 
L 408.333472 -289.461757 
L 411.165481 -286.126754 
L 413.99749 -288.616735 
L 416.8295 -291.479506 
L 419.661509 -287.234183 
L 422.493518 -286.855138 
L 425.325527 -289.719109 
L 428.157536 -288.86256 
L 430.989545 -291.767255 
L 430.989545 -279.40443 
L 430.989545 -279.40443 
L 428.157536 -278.941187 
L 425.325527 -283.680746 
L 422.493518 -282.05506 
L 419.661509 -279.160952 
L 416.8295 -286.554103 
L 413.99749 -279.619969 
L 411.165481 -278.178167 
L 408.333472 -284.935392 
L 405.501463 -282.999041 
L 402.669454 -283.334195 
L 399.837445 -277.635094 
L 397.005435 -278.617101 
L 394.173426 -280.121835 
L 391.341417 -279.71748 
L 388.509408 -280.915167 
L 385.677399 -285.135397 
L 382.84539 -281.624116 
L 380.01338 -283.683059 
L 377.181371 -284.062246 
L 374.349362 -281.719018 
L 371.517353 -282.52227 
L 368.685344 -280.564247 
L 365.853335 -277.908642 
L 363.021325 -280.265209 
L 360.189316 -281.53118 
L 357.357307 -281.87215 
L 354.525298 -281.654701 
L 351.693289 -285.041711 
L 348.86128 -279.314822 
L 346.02927 -281.733375 
L 343.197261 -281.680088 
L 340.365252 -276.844207 
L 337.533243 -282.091161 
L 334.701234 -285.606554 
L 331.869225 -276.635293 
L 329.037215 -280.653826 
L 326.205206 -279.270047 
L 323.373197 -279.304465 
L 320.541188 -278.360058 
L 317.709179 -282.724016 
L 314.87717 -279.840449 
L 312.04516 -282.576866 
L 309.213151 -281.762596 
L 306.381142 -279.440551 
L 303.549133 -284.595855 
L 300.717124 -282.338714 
L 297.885115 -276.931694 
L 295.053105 -282.936932 
L 292.221096 -287.168092 
L 289.389087 -280.195313 
L 286.557078 -280.902046 
L 283.725069 -283.020117 
L 280.89306 -282.711877 
L 278.06105 -285.13313 
L 275.229041 -282.383185 
L 272.397032 -277.997136 
L 269.565023 -278.797096 
L 266.733014 -278.928595 
L 263.901005 -278.383554 
L 261.068995 -279.795472 
L 258.236986 -274.43354 
L 255.404977 -284.001537 
L 252.572968 -286.061537 
L 249.740959 -282.28846 
L 246.90895 -283.920941 
L 244.07694 -279.830732 
L 241.244931 -273.135432 
L 238.412922 -284.682481 
L 235.580913 -280.712663 
L 232.748904 -274.285698 
L 229.916895 -278.703736 
L 227.084885 -285.729581 
L 224.252876 -284.613305 
L 221.420867 -281.014355 
L 218.588858 -284.42204 
L 215.756849 -277.336818 
L 212.92484 -279.126775 
L 210.09283 -277.885511 
L 207.260821 -275.911476 
L 204.428812 -282.564655 
L 201.596803 -264.608788 
L 198.764794 -278.397412 
L 195.932785 -275.13003 
L 193.100775 -275.346325 
L 190.268766 -271.842448 
L 187.436757 -266.045164 
L 184.604748 -276.474297 
L 181.772739 -276.735862 
L 178.94073 -270.956485 
L 176.10872 -256.144261 
L 173.276711 -261.469445 
L 170.444702 -266.412412 
L 167.612693 -272.59992 
L 164.780684 -277.468647 
L 161.948675 -271.206513 
L 159.116665 -270.366079 
L 156.284656 -276.678968 
L 153.452647 -280.684084 
L 150.620638 -260.838648 
L 147.788629 -280.028614 
L 144.95662 -254.202565 
L 142.12461 -266.348187 
L 139.292601 -269.997575 
L 136.460592 -268.702984 
L 133.628583 -275.41194 
L 130.796574 -264.654765 
L 127.964565 -272.474494 
L 125.132555 -270.605923 
L 122.300546 -268.649535 
L 119.468537 -265.399736 
L 116.636528 -257.351966 
L 113.804519 -243.140349 
L 110.97251 -252.825426 
L 108.1405 -225.89904 
L 105.308491 -211.005657 
L 102.476482 -157.291351 
L 99.644473 -157.277245 
L 96.812464 -161.313758 
L 93.980455 -151.135132 
z
" style="stroke: #ffffff; stroke-opacity: 0.5"/>
    </defs>
    <g clip-path="url(#p3483f74a8d)">
     <use xlink:href="#m41392aded3" x="0" y="345.6" style="fill: #dd8452; fill-opacity: 0.5; stroke: #ffffff; stroke-opacity: 0.5"/>
    </g>
   </g>
   <g id="PolyCollection_3">
    <defs>
     <path id="m9abcad715a" d="M 93.980455 -138.671159 
L 93.980455 -175.25397 
L 96.812464 -187.8197 
L 99.644473 -172.674525 
L 102.476482 -178.089015 
L 105.308491 -204.199819 
L 108.1405 -193.508431 
L 110.97251 -191.546624 
L 113.804519 -200.177533 
L 116.636528 -230.040489 
L 119.468537 -229.673946 
L 122.300546 -264.859971 
L 125.132555 -234.095108 
L 127.964565 -270.807761 
L 130.796574 -254.77668 
L 133.628583 -280.686371 
L 136.460592 -247.857613 
L 139.292601 -275.318874 
L 142.12461 -265.093236 
L 144.95662 -256.376831 
L 147.788629 -267.550127 
L 150.620638 -281.317991 
L 153.452647 -276.361869 
L 156.284656 -261.42709 
L 159.116665 -276.11963 
L 161.948675 -283.978714 
L 164.780684 -283.876352 
L 167.612693 -282.201242 
L 170.444702 -288.752744 
L 173.276711 -283.030191 
L 176.10872 -275.946842 
L 178.94073 -281.381456 
L 181.772739 -274.051927 
L 184.604748 -278.203455 
L 187.436757 -285.01319 
L 190.268766 -284.745066 
L 193.100775 -288.641425 
L 195.932785 -281.744998 
L 198.764794 -279.936828 
L 201.596803 -287.774486 
L 204.428812 -286.983362 
L 207.260821 -288.237798 
L 210.09283 -278.516779 
L 212.92484 -282.091622 
L 215.756849 -282.093144 
L 218.588858 -282.673306 
L 221.420867 -280.162258 
L 224.252876 -273.922604 
L 227.084885 -277.899452 
L 229.916895 -284.23531 
L 232.748904 -287.771534 
L 235.580913 -278.84571 
L 238.412922 -284.181075 
L 241.244931 -278.00211 
L 244.07694 -288.032853 
L 246.90895 -284.315289 
L 249.740959 -286.616531 
L 252.572968 -287.987106 
L 255.404977 -282.14555 
L 258.236986 -286.995859 
L 261.068995 -286.535763 
L 263.901005 -284.825244 
L 266.733014 -281.452579 
L 269.565023 -278.007798 
L 272.397032 -286.687735 
L 275.229041 -283.656878 
L 278.06105 -280.499689 
L 280.89306 -283.264713 
L 283.725069 -284.849992 
L 286.557078 -287.68036 
L 289.389087 -286.166999 
L 292.221096 -285.476049 
L 295.053105 -287.048516 
L 297.885115 -283.426082 
L 300.717124 -284.126639 
L 303.549133 -283.508989 
L 306.381142 -283.453424 
L 309.213151 -287.986778 
L 312.04516 -286.973909 
L 314.87717 -281.592275 
L 317.709179 -280.408221 
L 320.541188 -282.499516 
L 323.373197 -284.744789 
L 326.205206 -280.126136 
L 329.037215 -285.975513 
L 331.869225 -283.472176 
L 334.701234 -281.323159 
L 337.533243 -283.658679 
L 340.365252 -280.577757 
L 343.197261 -285.673178 
L 346.02927 -282.834687 
L 348.86128 -287.558773 
L 351.693289 -284.167186 
L 354.525298 -289.780467 
L 357.357307 -283.142554 
L 360.189316 -283.000126 
L 363.021325 -285.706384 
L 365.853335 -282.525656 
L 368.685344 -289.559332 
L 371.517353 -286.668042 
L 374.349362 -283.091501 
L 377.181371 -286.991471 
L 380.01338 -285.330298 
L 382.84539 -284.399711 
L 385.677399 -286.366469 
L 388.509408 -288.287361 
L 391.341417 -282.905945 
L 394.173426 -286.12934 
L 397.005435 -285.779511 
L 399.837445 -282.136156 
L 402.669454 -283.320251 
L 405.501463 -277.101958 
L 408.333472 -284.345767 
L 411.165481 -281.986644 
L 413.99749 -280.591358 
L 416.8295 -284.536713 
L 419.661509 -283.27308 
L 422.493518 -282.61388 
L 425.325527 -288.497237 
L 428.157536 -287.295157 
L 430.989545 -283.846416 
L 430.989545 -271.645282 
L 430.989545 -271.645282 
L 428.157536 -277.61429 
L 425.325527 -267.524856 
L 422.493518 -260.978646 
L 419.661509 -261.811731 
L 416.8295 -263.469148 
L 413.99749 -270.541826 
L 411.165481 -260.029225 
L 408.333472 -274.867087 
L 405.501463 -270.666383 
L 402.669454 -271.495009 
L 399.837445 -262.861431 
L 397.005435 -260.267739 
L 394.173426 -274.088155 
L 391.341417 -269.450133 
L 388.509408 -270.780745 
L 385.677399 -264.124508 
L 382.84539 -264.294965 
L 380.01338 -273.894874 
L 377.181371 -258.525852 
L 374.349362 -268.719615 
L 371.517353 -264.908064 
L 368.685344 -271.32887 
L 365.853335 -273.100565 
L 363.021325 -256.265386 
L 360.189316 -274.44579 
L 357.357307 -270.997425 
L 354.525298 -265.397315 
L 351.693289 -268.622893 
L 348.86128 -274.960836 
L 346.02927 -276.589954 
L 343.197261 -272.333163 
L 340.365252 -262.29463 
L 337.533243 -268.304032 
L 334.701234 -268.703475 
L 331.869225 -270.13732 
L 329.037215 -265.030799 
L 326.205206 -262.937352 
L 323.373197 -272.349827 
L 320.541188 -266.887401 
L 317.709179 -273.687912 
L 314.87717 -264.466321 
L 312.04516 -269.092716 
L 309.213151 -271.862324 
L 306.381142 -271.576906 
L 303.549133 -261.944183 
L 300.717124 -268.626096 
L 297.885115 -270.446432 
L 295.053105 -272.920556 
L 292.221096 -273.04436 
L 289.389087 -267.228141 
L 286.557078 -262.085301 
L 283.725069 -270.657488 
L 280.89306 -261.668807 
L 278.06105 -270.996879 
L 275.229041 -256.845847 
L 272.397032 -274.844817 
L 269.565023 -264.778033 
L 266.733014 -261.128111 
L 263.901005 -264.542812 
L 261.068995 -270.547324 
L 258.236986 -269.983524 
L 255.404977 -272.407073 
L 252.572968 -270.631915 
L 249.740959 -278.536939 
L 246.90895 -261.197772 
L 244.07694 -268.650103 
L 241.244931 -257.66404 
L 238.412922 -269.369283 
L 235.580913 -270.313065 
L 232.748904 -247.885449 
L 229.916895 -269.034177 
L 227.084885 -263.552628 
L 224.252876 -265.461268 
L 221.420867 -251.406768 
L 218.588858 -254.775925 
L 215.756849 -255.155242 
L 212.92484 -249.104991 
L 210.09283 -261.407119 
L 207.260821 -261.703013 
L 204.428812 -252.051269 
L 201.596803 -264.437382 
L 198.764794 -258.466695 
L 195.932785 -251.902217 
L 193.100775 -259.856153 
L 190.268766 -263.413353 
L 187.436757 -244.548296 
L 184.604748 -244.090064 
L 181.772739 -227.991099 
L 178.94073 -268.574395 
L 176.10872 -253.623709 
L 173.276711 -237.039713 
L 170.444702 -257.371677 
L 167.612693 -251.251072 
L 164.780684 -245.087931 
L 161.948675 -266.206224 
L 159.116665 -247.950828 
L 156.284656 -232.746046 
L 153.452647 -230.684141 
L 150.620638 -192.464538 
L 147.788629 -222.802295 
L 144.95662 -223.372669 
L 142.12461 -224.02743 
L 139.292601 -222.280104 
L 136.460592 -213.751398 
L 133.628583 -224.474709 
L 130.796574 -200.161305 
L 127.964565 -201.156868 
L 125.132555 -185.774557 
L 122.300546 -189.282733 
L 119.468537 -206.027453 
L 116.636528 -196.959285 
L 113.804519 -191.513991 
L 110.97251 -180.926486 
L 108.1405 -177.280198 
L 105.308491 -191.321408 
L 102.476482 -162.798337 
L 99.644473 -159.29295 
L 96.812464 -157.624156 
L 93.980455 -138.671159 
z
" style="stroke: #ffffff; stroke-opacity: 0.5"/>
    </defs>
    <g clip-path="url(#p3483f74a8d)">
     <use xlink:href="#m9abcad715a" x="0" y="345.6" style="fill: #55a868; fill-opacity: 0.5; stroke: #ffffff; stroke-opacity: 0.5"/>
    </g>
   </g>
   <g id="PolyCollection_4">
    <defs>
     <path id="me3279bcc6f" d="M 93.980455 -152.220958 
L 93.980455 -181.682946 
L 96.812464 -183.502111 
L 99.644473 -179.623394 
L 102.476482 -182.926252 
L 105.308491 -196.082769 
L 108.1405 -217.356088 
L 110.97251 -209.982922 
L 113.804519 -193.883797 
L 116.636528 -213.40592 
L 119.468537 -224.597551 
L 122.300546 -213.706781 
L 125.132555 -223.146624 
L 127.964565 -246.19073 
L 130.796574 -252.289652 
L 133.628583 -254.717383 
L 136.460592 -238.324218 
L 139.292601 -249.582405 
L 142.12461 -249.420389 
L 144.95662 -267.718591 
L 147.788629 -264.524212 
L 150.620638 -265.590723 
L 153.452647 -266.921025 
L 156.284656 -248.559893 
L 159.116665 -248.612219 
L 161.948675 -254.575714 
L 164.780684 -265.594969 
L 167.612693 -263.989846 
L 170.444702 -269.761615 
L 173.276711 -277.088511 
L 176.10872 -251.257159 
L 178.94073 -254.852847 
L 181.772739 -257.146268 
L 184.604748 -270.137746 
L 187.436757 -266.08286 
L 190.268766 -266.258026 
L 193.100775 -276.626405 
L 195.932785 -252.19359 
L 198.764794 -268.94453 
L 201.596803 -272.838629 
L 204.428812 -270.114067 
L 207.260821 -267.587977 
L 210.09283 -265.560441 
L 212.92484 -280.471352 
L 215.756849 -278.166152 
L 218.588858 -278.781276 
L 221.420867 -271.954536 
L 224.252876 -281.574822 
L 227.084885 -284.388327 
L 229.916895 -289.167956 
L 232.748904 -279.31053 
L 235.580913 -272.776277 
L 238.412922 -283.532804 
L 241.244931 -287.799582 
L 244.07694 -275.448695 
L 246.90895 -275.940484 
L 249.740959 -274.950461 
L 252.572968 -281.410579 
L 255.404977 -281.948611 
L 258.236986 -278.730623 
L 261.068995 -279.008045 
L 263.901005 -280.291623 
L 266.733014 -281.916419 
L 269.565023 -280.312322 
L 272.397032 -280.466466 
L 275.229041 -286.499207 
L 278.06105 -275.310037 
L 280.89306 -269.89187 
L 283.725069 -284.535758 
L 286.557078 -278.987817 
L 289.389087 -272.765653 
L 292.221096 -272.813893 
L 295.053105 -275.701169 
L 297.885115 -276.043864 
L 300.717124 -266.822275 
L 303.549133 -271.915314 
L 306.381142 -280.949771 
L 309.213151 -275.716322 
L 312.04516 -273.330279 
L 314.87717 -263.748708 
L 317.709179 -280.179766 
L 320.541188 -280.549868 
L 323.373197 -278.522509 
L 326.205206 -282.165316 
L 329.037215 -283.715093 
L 331.869225 -280.147832 
L 334.701234 -271.261622 
L 337.533243 -266.034224 
L 340.365252 -278.081218 
L 343.197261 -284.051779 
L 346.02927 -277.129493 
L 348.86128 -274.903428 
L 351.693289 -279.623618 
L 354.525298 -281.456346 
L 357.357307 -280.077944 
L 360.189316 -275.171575 
L 363.021325 -263.212448 
L 365.853335 -276.448809 
L 368.685344 -280.571588 
L 371.517353 -279.059205 
L 374.349362 -277.785234 
L 377.181371 -275.546287 
L 380.01338 -283.694426 
L 382.84539 -274.202993 
L 385.677399 -277.047655 
L 388.509408 -276.985191 
L 391.341417 -278.341172 
L 394.173426 -271.413286 
L 397.005435 -273.448207 
L 399.837445 -279.746681 
L 402.669454 -268.987438 
L 405.501463 -272.606034 
L 408.333472 -285.322348 
L 411.165481 -282.742693 
L 413.99749 -272.993179 
L 416.8295 -276.276656 
L 419.661509 -272.457047 
L 422.493518 -276.250748 
L 425.325527 -279.335789 
L 428.157536 -276.138506 
L 430.989545 -273.917883 
L 430.989545 -264.690496 
L 430.989545 -264.690496 
L 428.157536 -257.71307 
L 425.325527 -255.303942 
L 422.493518 -248.799688 
L 419.661509 -257.990526 
L 416.8295 -262.547558 
L 413.99749 -263.553118 
L 411.165481 -261.159473 
L 408.333472 -249.829376 
L 405.501463 -245.347664 
L 402.669454 -250.33837 
L 399.837445 -250.495513 
L 397.005435 -249.258051 
L 394.173426 -228.68828 
L 391.341417 -247.413719 
L 388.509408 -242.106337 
L 385.677399 -240.021322 
L 382.84539 -264.335107 
L 380.01338 -258.020228 
L 377.181371 -253.67398 
L 374.349362 -258.410274 
L 371.517353 -246.357295 
L 368.685344 -250.587517 
L 365.853335 -235.713563 
L 363.021325 -242.408748 
L 360.189316 -260.453543 
L 357.357307 -241.164456 
L 354.525298 -244.132989 
L 351.693289 -257.075653 
L 348.86128 -239.105878 
L 346.02927 -252.025907 
L 343.197261 -261.458483 
L 340.365252 -240.946457 
L 337.533243 -244.490673 
L 334.701234 -260.692307 
L 331.869225 -239.563347 
L 329.037215 -246.712616 
L 326.205206 -245.604614 
L 323.373197 -223.097176 
L 320.541188 -235.51638 
L 317.709179 -247.51282 
L 314.87717 -238.788461 
L 312.04516 -239.869394 
L 309.213151 -246.923193 
L 306.381142 -241.334281 
L 303.549133 -226.621203 
L 300.717124 -254.15866 
L 297.885115 -244.935219 
L 295.053105 -236.394731 
L 292.221096 -229.904408 
L 289.389087 -212.79221 
L 286.557078 -253.692543 
L 283.725069 -244.555498 
L 280.89306 -236.679418 
L 278.06105 -245.138221 
L 275.229041 -257.608295 
L 272.397032 -241.559011 
L 269.565023 -241.548799 
L 266.733014 -236.49366 
L 263.901005 -258.522662 
L 261.068995 -253.964423 
L 258.236986 -251.314152 
L 255.404977 -250.432526 
L 252.572968 -241.998617 
L 249.740959 -251.27777 
L 246.90895 -238.749417 
L 244.07694 -228.272273 
L 241.244931 -238.91083 
L 238.412922 -254.481773 
L 235.580913 -240.655137 
L 232.748904 -260.927836 
L 229.916895 -241.936332 
L 227.084885 -237.721343 
L 224.252876 -242.751392 
L 221.420867 -243.809451 
L 218.588858 -242.755514 
L 215.756849 -217.658046 
L 212.92484 -247.446411 
L 210.09283 -251.483185 
L 207.260821 -236.279058 
L 204.428812 -229.494157 
L 201.596803 -214.586062 
L 198.764794 -234.631799 
L 195.932785 -237.002579 
L 193.100775 -246.461344 
L 190.268766 -244.390451 
L 187.436757 -217.448307 
L 184.604748 -217.998515 
L 181.772739 -241.537724 
L 178.94073 -197.101543 
L 176.10872 -239.990113 
L 173.276711 -234.559999 
L 170.444702 -240.338528 
L 167.612693 -200.232505 
L 164.780684 -196.793973 
L 161.948675 -209.993768 
L 159.116665 -219.80616 
L 156.284656 -220.922193 
L 153.452647 -208.090853 
L 150.620638 -193.340958 
L 147.788629 -221.453766 
L 144.95662 -177.420028 
L 142.12461 -184.356678 
L 139.292601 -195.565816 
L 136.460592 -205.048807 
L 133.628583 -202.398349 
L 130.796574 -205.952449 
L 127.964565 -199.670603 
L 125.132555 -193.326953 
L 122.300546 -191.20356 
L 119.468537 -178.468393 
L 116.636528 -184.91457 
L 113.804519 -174.654989 
L 110.97251 -188.241479 
L 108.1405 -191.547338 
L 105.308491 -176.633256 
L 102.476482 -163.991313 
L 99.644473 -155.983641 
L 96.812464 -149.504022 
L 93.980455 -152.220958 
z
" style="stroke: #ffffff; stroke-opacity: 0.5"/>
    </defs>
    <g clip-path="url(#p3483f74a8d)">
     <use xlink:href="#me3279bcc6f" x="0" y="345.6" style="fill: #c44e52; fill-opacity: 0.5; stroke: #ffffff; stroke-opacity: 0.5"/>
    </g>
   </g>
   <g id="PolyCollection_5">
    <defs>
     <path id="md35981759a" d="M 93.980455 -153.152095 
L 93.980455 -175.119303 
L 96.812464 -176.817752 
L 99.644473 -178.087126 
L 102.476482 -182.652722 
L 105.308491 -175.055775 
L 108.1405 -192.728694 
L 110.97251 -195.728451 
L 113.804519 -204.429017 
L 116.636528 -218.822126 
L 119.468537 -207.130546 
L 122.300546 -209.706109 
L 125.132555 -211.320154 
L 127.964565 -206.53401 
L 130.796574 -208.545094 
L 133.628583 -210.360971 
L 136.460592 -231.053365 
L 139.292601 -218.800208 
L 142.12461 -250.219428 
L 144.95662 -226.488289 
L 147.788629 -218.931061 
L 150.620638 -235.73978 
L 153.452647 -238.761292 
L 156.284656 -235.957784 
L 159.116665 -235.815857 
L 161.948675 -225.952282 
L 164.780684 -233.790294 
L 167.612693 -266.986655 
L 170.444702 -251.220348 
L 173.276711 -224.874082 
L 176.10872 -229.889406 
L 178.94073 -253.595218 
L 181.772739 -236.457321 
L 184.604748 -219.963103 
L 187.436757 -251.569261 
L 190.268766 -254.392975 
L 193.100775 -240.084891 
L 195.932785 -223.793032 
L 198.764794 -253.29105 
L 201.596803 -228.522655 
L 204.428812 -226.403087 
L 207.260821 -247.008238 
L 210.09283 -256.417872 
L 212.92484 -260.824174 
L 215.756849 -265.939581 
L 218.588858 -266.263402 
L 221.420867 -263.191916 
L 224.252876 -266.954189 
L 227.084885 -256.311407 
L 229.916895 -264.769814 
L 232.748904 -263.060363 
L 235.580913 -252.106337 
L 238.412922 -266.878366 
L 241.244931 -244.598398 
L 244.07694 -257.153123 
L 246.90895 -255.886409 
L 249.740959 -275.56442 
L 252.572968 -258.857109 
L 255.404977 -273.691333 
L 258.236986 -253.855568 
L 261.068995 -250.624662 
L 263.901005 -270.72069 
L 266.733014 -261.897608 
L 269.565023 -261.424468 
L 272.397032 -255.472217 
L 275.229041 -270.382031 
L 278.06105 -250.665592 
L 280.89306 -245.60124 
L 283.725069 -245.519108 
L 286.557078 -254.274193 
L 289.389087 -263.021897 
L 292.221096 -262.608906 
L 295.053105 -258.75658 
L 297.885115 -243.726259 
L 300.717124 -251.029349 
L 303.549133 -260.500611 
L 306.381142 -254.199912 
L 309.213151 -265.427222 
L 312.04516 -251.907855 
L 314.87717 -266.383944 
L 317.709179 -263.303044 
L 320.541188 -261.906673 
L 323.373197 -271.486342 
L 326.205206 -244.320371 
L 329.037215 -248.386241 
L 331.869225 -265.417528 
L 334.701234 -280.673373 
L 337.533243 -252.694793 
L 340.365252 -258.54095 
L 343.197261 -271.604594 
L 346.02927 -250.222567 
L 348.86128 -253.662697 
L 351.693289 -261.917281 
L 354.525298 -265.201386 
L 357.357307 -258.483119 
L 360.189316 -258.355112 
L 363.021325 -281.232221 
L 365.853335 -260.597279 
L 368.685344 -262.592455 
L 371.517353 -273.841597 
L 374.349362 -262.907907 
L 377.181371 -262.07575 
L 380.01338 -259.726461 
L 382.84539 -262.888366 
L 385.677399 -261.4123 
L 388.509408 -265.250124 
L 391.341417 -262.637495 
L 394.173426 -273.262757 
L 397.005435 -272.272997 
L 399.837445 -260.711255 
L 402.669454 -267.750367 
L 405.501463 -267.185372 
L 408.333472 -263.652454 
L 411.165481 -262.978846 
L 413.99749 -269.527026 
L 416.8295 -269.446126 
L 419.661509 -269.615916 
L 422.493518 -257.235078 
L 425.325527 -264.877015 
L 428.157536 -263.195771 
L 430.989545 -263.187988 
L 430.989545 -248.991139 
L 430.989545 -248.991139 
L 428.157536 -243.844696 
L 425.325527 -248.392154 
L 422.493518 -250.87457 
L 419.661509 -226.914857 
L 416.8295 -239.113413 
L 413.99749 -232.950567 
L 411.165481 -245.695011 
L 408.333472 -239.664129 
L 405.501463 -236.546877 
L 402.669454 -246.155311 
L 399.837445 -231.882645 
L 397.005435 -222.148505 
L 394.173426 -218.140356 
L 391.341417 -207.42225 
L 388.509408 -242.36715 
L 385.677399 -238.226565 
L 382.84539 -243.439945 
L 380.01338 -233.02804 
L 377.181371 -240.090742 
L 374.349362 -247.134161 
L 371.517353 -232.485446 
L 368.685344 -221.572418 
L 365.853335 -230.900742 
L 363.021325 -224.255745 
L 360.189316 -233.311932 
L 357.357307 -222.305838 
L 354.525298 -243.711178 
L 351.693289 -225.464612 
L 348.86128 -202.385511 
L 346.02927 -227.096964 
L 343.197261 -224.437673 
L 340.365252 -217.627346 
L 337.533243 -224.337771 
L 334.701234 -229.671713 
L 331.869225 -215.881913 
L 329.037215 -207.707568 
L 326.205206 -219.910084 
L 323.373197 -215.827595 
L 320.541188 -217.424057 
L 317.709179 -218.759372 
L 314.87717 -227.793277 
L 312.04516 -205.466918 
L 309.213151 -212.334827 
L 306.381142 -218.214764 
L 303.549133 -216.790025 
L 300.717124 -195.184421 
L 297.885115 -214.355083 
L 295.053105 -208.007735 
L 292.221096 -235.906023 
L 289.389087 -224.762683 
L 286.557078 -221.708205 
L 283.725069 -224.107227 
L 280.89306 -213.918258 
L 278.06105 -218.922141 
L 275.229041 -212.364575 
L 272.397032 -215.077664 
L 269.565023 -208.995629 
L 266.733014 -206.550072 
L 263.901005 -220.614332 
L 261.068995 -204.379673 
L 258.236986 -226.175704 
L 255.404977 -193.241896 
L 252.572968 -220.539909 
L 249.740959 -204.11085 
L 246.90895 -187.829317 
L 244.07694 -207.003625 
L 241.244931 -203.436476 
L 238.412922 -181.842163 
L 235.580913 -188.664674 
L 232.748904 -196.413831 
L 229.916895 -200.539872 
L 227.084885 -161.161289 
L 224.252876 -221.015735 
L 221.420867 -213.231328 
L 218.588858 -184.87209 
L 215.756849 -213.839651 
L 212.92484 -194.839768 
L 210.09283 -186.633359 
L 207.260821 -197.822384 
L 204.428812 -203.092098 
L 201.596803 -192.054931 
L 198.764794 -121.799012 
L 195.932785 -202.077963 
L 193.100775 -205.516805 
L 190.268766 -195.852206 
L 187.436757 -217.892411 
L 184.604748 -192.882339 
L 181.772739 -187.841937 
L 178.94073 -194.622605 
L 176.10872 -182.574185 
L 173.276711 -196.622399 
L 170.444702 -185.723203 
L 167.612693 -185.224247 
L 164.780684 -194.647967 
L 161.948675 -184.821308 
L 159.116665 -197.031957 
L 156.284656 -183.474011 
L 153.452647 -192.492746 
L 150.620638 -184.637432 
L 147.788629 -91.143056 
L 144.95662 -187.896041 
L 142.12461 -185.897775 
L 139.292601 -181.946605 
L 136.460592 -192.669258 
L 133.628583 -190.477696 
L 130.796574 -186.079275 
L 127.964565 -149.75927 
L 125.132555 -192.2877 
L 122.300546 -186.682103 
L 119.468537 -181.353249 
L 116.636528 -181.030207 
L 113.804519 -178.218008 
L 110.97251 -176.742706 
L 108.1405 -179.03082 
L 105.308491 -166.637275 
L 102.476482 -162.873185 
L 99.644473 -149.43252 
L 96.812464 -153.748565 
L 93.980455 -153.152095 
z
" style="stroke: #ffffff; stroke-opacity: 0.5"/>
    </defs>
    <g clip-path="url(#p3483f74a8d)">
     <use xlink:href="#md35981759a" x="0" y="345.6" style="fill: #8172b3; fill-opacity: 0.5; stroke: #ffffff; stroke-opacity: 0.5"/>
    </g>
   </g>
   <g id="PolyCollection_6">
    <defs>
     <path id="m213328a1a3" d="M 93.980455 -157.692762 
L 93.980455 -188.716539 
L 96.812464 -176.38254 
L 99.644473 -193.925885 
L 102.476482 -183.200348 
L 105.308491 -178.897258 
L 108.1405 -188.734068 
L 110.97251 -189.484116 
L 113.804519 -190.648389 
L 116.636528 -195.628328 
L 119.468537 -199.105423 
L 122.300546 -200.136381 
L 125.132555 -190.835593 
L 127.964565 -203.149943 
L 130.796574 -189.426001 
L 133.628583 -197.728402 
L 136.460592 -191.882604 
L 139.292601 -199.428588 
L 142.12461 -193.617443 
L 144.95662 -188.654496 
L 147.788629 -202.589021 
L 150.620638 -205.808389 
L 153.452647 -199.303538 
L 156.284656 -189.728414 
L 159.116665 -192.779642 
L 161.948675 -196.663688 
L 164.780684 -187.277191 
L 167.612693 -200.894716 
L 170.444702 -193.822181 
L 173.276711 -193.32723 
L 176.10872 -219.175049 
L 178.94073 -195.0256 
L 181.772739 -213.795856 
L 184.604748 -198.138926 
L 187.436757 -205.743321 
L 190.268766 -211.640491 
L 193.100775 -213.91344 
L 195.932785 -205.680676 
L 198.764794 -210.178336 
L 201.596803 -199.460098 
L 204.428812 -198.927395 
L 207.260821 -203.519559 
L 210.09283 -202.694916 
L 212.92484 -198.439673 
L 215.756849 -194.677808 
L 218.588858 -199.478657 
L 221.420867 -186.333307 
L 224.252876 -193.10505 
L 227.084885 -190.648523 
L 229.916895 -197.26888 
L 232.748904 -188.058312 
L 235.580913 -221.095181 
L 238.412922 -219.873638 
L 241.244931 -198.02975 
L 244.07694 -196.276798 
L 246.90895 -191.819275 
L 249.740959 -182.719853 
L 252.572968 -196.762079 
L 255.404977 -198.95563 
L 258.236986 -212.901821 
L 261.068995 -196.968685 
L 263.901005 -196.188931 
L 266.733014 -192.290323 
L 269.565023 -207.755873 
L 272.397032 -199.689608 
L 275.229041 -192.192391 
L 278.06105 -186.077462 
L 280.89306 -191.883863 
L 283.725069 -191.917782 
L 286.557078 -198.843711 
L 289.389087 -197.571678 
L 292.221096 -196.122426 
L 295.053105 -189.694494 
L 297.885115 -201.808558 
L 300.717124 -201.060696 
L 303.549133 -225.439337 
L 306.381142 -188.067335 
L 309.213151 -198.474885 
L 312.04516 -218.38814 
L 314.87717 -197.888962 
L 317.709179 -192.716388 
L 320.541188 -193.996546 
L 323.373197 -196.897302 
L 326.205206 -195.444509 
L 329.037215 -215.577702 
L 331.869225 -205.07474 
L 334.701234 -195.906589 
L 337.533243 -196.167062 
L 340.365252 -216.468967 
L 343.197261 -194.243941 
L 346.02927 -194.928713 
L 348.86128 -193.663805 
L 351.693289 -208.895353 
L 354.525298 -199.281164 
L 357.357307 -195.184836 
L 360.189316 -200.221401 
L 363.021325 -200.077483 
L 365.853335 -201.189725 
L 368.685344 -208.61455 
L 371.517353 -191.706606 
L 374.349362 -193.969606 
L 377.181371 -197.428682 
L 380.01338 -199.457494 
L 382.84539 -201.317423 
L 385.677399 -199.207224 
L 388.509408 -200.736896 
L 391.341417 -193.141618 
L 394.173426 -193.477241 
L 397.005435 -191.221864 
L 399.837445 -201.622132 
L 402.669454 -196.413848 
L 405.501463 -199.707623 
L 408.333472 -194.925743 
L 411.165481 -188.034804 
L 413.99749 -192.346029 
L 416.8295 -199.400935 
L 419.661509 -195.856011 
L 422.493518 -198.15943 
L 425.325527 -194.78638 
L 428.157536 -191.041936 
L 430.989545 -189.082728 
L 430.989545 -172.941501 
L 430.989545 -172.941501 
L 428.157536 -176.150116 
L 425.325527 -175.739636 
L 422.493518 -170.782007 
L 419.661509 -153.159909 
L 416.8295 -177.99147 
L 413.99749 -158.833525 
L 411.165481 -150.593683 
L 408.333472 -167.55425 
L 405.501463 -159.263577 
L 402.669454 -173.363745 
L 399.837445 -183.073925 
L 397.005435 -168.087103 
L 394.173426 -184.792665 
L 391.341417 -177.696101 
L 388.509408 -164.494071 
L 385.677399 -184.333327 
L 382.84539 -185.126567 
L 380.01338 -173.867227 
L 377.181371 -171.466219 
L 374.349362 -178.210727 
L 371.517353 -160.670642 
L 368.685344 -175.918727 
L 365.853335 -149.772066 
L 363.021325 -182.477869 
L 360.189316 -121.249617 
L 357.357307 -184.433265 
L 354.525298 -162.57335 
L 351.693289 -183.371622 
L 348.86128 -145.052558 
L 346.02927 -166.504645 
L 343.197261 -149.404616 
L 340.365252 -193.538729 
L 337.533243 -171.387064 
L 334.701234 -150.646425 
L 331.869225 -166.856267 
L 329.037215 -178.965202 
L 326.205206 -185.482817 
L 323.373197 -175.782191 
L 320.541188 -186.315744 
L 317.709179 -98.609987 
L 314.87717 -160.810134 
L 312.04516 -163.032253 
L 309.213151 -90.26919 
L 306.381142 -124.060293 
L 303.549133 -181.401445 
L 300.717124 -169.768134 
L 297.885115 -151.332536 
L 295.053105 -166.602657 
L 292.221096 -161.790967 
L 289.389087 -170.029173 
L 286.557078 -183.933 
L 283.725069 -82.68297 
L 280.89306 -146.995441 
L 278.06105 -155.961439 
L 275.229041 -183.379376 
L 272.397032 -80.771365 
L 269.565023 -178.643904 
L 266.733014 -116.407378 
L 263.901005 -159.735438 
L 261.068995 -173.543668 
L 258.236986 -131.336028 
L 255.404977 -171.384336 
L 252.572968 -72.444323 
L 249.740959 -157.760011 
L 246.90895 -186.047718 
L 244.07694 -86.40318 
L 241.244931 -180.428625 
L 238.412922 -177.664716 
L 235.580913 -184.141769 
L 232.748904 -132.428535 
L 229.916895 -72.146424 
L 227.084885 -150.94452 
L 224.252876 -184.347149 
L 221.420867 -71.86845 
L 218.588858 -164.904731 
L 215.756849 -154.522816 
L 212.92484 -177.037288 
L 210.09283 -177.184294 
L 207.260821 -139.529452 
L 204.428812 -180.319258 
L 201.596803 -140.042664 
L 198.764794 -170.655021 
L 195.932785 -181.406711 
L 193.100775 -164.617723 
L 190.268766 -77.008049 
L 187.436757 -151.103862 
L 184.604748 -114.904593 
L 181.772739 -181.301933 
L 178.94073 -180.889586 
L 176.10872 -115.689652 
L 173.276711 -156.660521 
L 170.444702 -181.365074 
L 167.612693 -172.218247 
L 164.780684 -167.797339 
L 161.948675 -164.260796 
L 159.116665 -173.261501 
L 156.284656 -173.485881 
L 153.452647 -172.623275 
L 150.620638 -184.12549 
L 147.788629 -62.980909 
L 144.95662 -155.90462 
L 142.12461 -140.692524 
L 139.292601 -186.159058 
L 136.460592 -170.415502 
L 133.628583 -177.443132 
L 130.796574 -181.609464 
L 127.964565 -182.754352 
L 125.132555 -65.853246 
L 122.300546 -181.10908 
L 119.468537 -173.890428 
L 116.636528 -136.142395 
L 113.804519 -155.406953 
L 110.97251 -135.637247 
L 108.1405 -124.669717 
L 105.308491 -156.50285 
L 102.476482 -166.441738 
L 99.644473 -144.43238 
L 96.812464 -141.554092 
L 93.980455 -157.692762 
z
" style="stroke: #ffffff; stroke-opacity: 0.5"/>
    </defs>
    <g clip-path="url(#p3483f74a8d)">
     <use xlink:href="#m213328a1a3" x="0" y="345.6" style="fill: #937860; fill-opacity: 0.5; stroke: #ffffff; stroke-opacity: 0.5"/>
    </g>
   </g>
   <g id="line2d_14">
    <path d="M 93.980455 166.972557 
L 96.812464 176.35807 
L 99.644473 171.684486 
L 102.476482 170.015339 
L 105.308491 93.417784 
L 108.1405 67.647739 
L 110.97251 66.575718 
L 113.804519 68.945906 
L 116.636528 65.804867 
L 119.468537 65.827967 
L 122.300546 65.821051 
L 125.132555 63.719623 
L 127.964565 64.556269 
L 130.796574 59.379276 
L 133.628583 59.590774 
L 136.460592 60.233701 
L 139.292601 56.50231 
L 142.12461 57.875432 
L 144.95662 58.596369 
L 147.788629 60.531922 
L 150.620638 58.756176 
L 153.452647 59.627912 
L 156.284656 56.158939 
L 159.116665 59.468769 
L 161.948675 60.905393 
L 164.780684 57.445381 
L 167.612693 57.995817 
L 170.444702 59.146877 
L 173.276711 60.277876 
L 176.10872 59.339314 
L 178.94073 58.709269 
L 181.772739 59.216761 
L 184.604748 59.498596 
L 187.436757 60.497758 
L 190.268766 59.904878 
L 193.100775 60.619329 
L 195.932785 60.315852 
L 198.764794 57.963422 
L 201.596803 60.178652 
L 204.428812 60.471374 
L 207.260821 58.993724 
L 210.09283 59.652437 
L 212.92484 57.791912 
L 215.756849 60.55543 
L 218.588858 60.324806 
L 221.420867 59.752045 
L 224.252876 59.633634 
L 227.084885 60.04644 
L 229.916895 60.77167 
L 232.748904 60.818479 
L 235.580913 60.461009 
L 238.412922 58.554834 
L 241.244931 59.28849 
L 244.07694 59.755751 
L 246.90895 58.792051 
L 249.740959 59.656545 
L 252.572968 59.617925 
L 255.404977 58.925981 
L 258.236986 59.320033 
L 261.068995 58.970069 
L 263.901005 59.170113 
L 266.733014 59.013396 
L 269.565023 59.716359 
L 272.397032 59.823543 
L 275.229041 59.374213 
L 278.06105 59.386705 
L 280.89306 59.665582 
L 283.725069 59.357637 
L 286.557078 60.003487 
L 289.389087 59.629335 
L 292.221096 59.935097 
L 295.053105 60.165321 
L 297.885115 59.658868 
L 300.717124 59.602581 
L 303.549133 58.27761 
L 306.381142 59.841826 
L 309.213151 59.453504 
L 312.04516 59.655719 
L 314.87717 59.278541 
L 317.709179 59.775535 
L 320.541188 59.589112 
L 323.373197 59.105061 
L 326.205206 59.966347 
L 329.037215 59.477503 
L 331.869225 59.314438 
L 334.701234 59.019307 
L 337.533243 59.229823 
L 340.365252 59.940372 
L 343.197261 59.841504 
L 346.02927 59.596685 
L 348.86128 59.613359 
L 351.693289 59.783081 
L 354.525298 60.167613 
L 357.357307 59.466898 
L 360.189316 58.631354 
L 363.021325 59.906635 
L 365.853335 59.825993 
L 368.685344 59.532146 
L 371.517353 59.615372 
L 374.349362 59.572359 
L 377.181371 59.79137 
L 380.01338 59.878041 
L 382.84539 59.358897 
L 385.677399 59.469387 
L 388.509408 59.208613 
L 391.341417 58.947219 
L 394.173426 59.548637 
L 397.005435 59.617689 
L 399.837445 59.236155 
L 402.669454 59.018215 
L 405.501463 59.636422 
L 408.333472 59.502393 
L 411.165481 59.513281 
L 413.99749 59.469619 
L 416.8295 59.682512 
L 419.661509 59.536525 
L 422.493518 59.672031 
L 425.325527 59.340554 
L 428.157536 59.680735 
L 430.989545 59.807445 
" clip-path="url(#p3483f74a8d)" style="fill: none; stroke: #4c72b0; stroke-width: 3; stroke-linecap: round"/>
   </g>
   <g id="line2d_15">
    <path d="M 93.980455 172.43295 
L 96.812464 171.997123 
L 99.644473 171.706146 
L 102.476482 174.897375 
L 105.308491 124.288186 
L 108.1405 95.400032 
L 110.97251 74.741554 
L 113.804519 74.361493 
L 116.636528 74.297999 
L 119.468537 74.070457 
L 122.300546 69.228395 
L 125.132555 66.887836 
L 127.964565 68.122385 
L 130.796574 66.673292 
L 133.628583 65.134681 
L 136.460592 65.56618 
L 139.292601 66.671495 
L 142.12461 65.669295 
L 144.95662 65.8429 
L 147.788629 63.3992 
L 150.620638 72.616995 
L 153.452647 62.140126 
L 156.284656 63.566041 
L 159.116665 67.072655 
L 161.948675 67.132646 
L 164.780684 63.337498 
L 167.612693 63.234836 
L 170.444702 67.018925 
L 173.276711 65.05378 
L 176.10872 65.849328 
L 178.94073 63.251206 
L 181.772739 60.320222 
L 184.604748 62.643014 
L 187.436757 69.667809 
L 190.268766 62.785169 
L 193.100775 63.071458 
L 195.932785 64.667579 
L 198.764794 61.611459 
L 201.596803 68.202988 
L 204.428812 60.477023 
L 207.260821 59.4821 
L 210.09283 60.391108 
L 212.92484 63.185668 
L 215.756849 61.524904 
L 218.588858 59.951529 
L 221.420867 63.241511 
L 224.252876 59.294265 
L 227.084885 59.115319 
L 229.916895 61.527616 
L 232.748904 63.663073 
L 235.580913 60.207882 
L 238.412922 58.547205 
L 241.244931 62.816648 
L 244.07694 62.050705 
L 246.90895 59.025728 
L 249.740959 59.422279 
L 252.572968 55.651179 
L 255.404977 58.904117 
L 258.236986 60.738034 
L 261.068995 59.286211 
L 263.901005 61.246018 
L 266.733014 61.931788 
L 269.565023 59.400251 
L 272.397032 60.274951 
L 275.229041 57.935686 
L 278.06105 56.816975 
L 280.89306 61.084257 
L 283.725069 59.28484 
L 286.557078 59.806316 
L 289.389087 59.844277 
L 292.221096 56.430281 
L 295.053105 60.064036 
L 297.885115 62.249235 
L 300.717124 58.561782 
L 303.549133 59.413639 
L 306.381142 58.856475 
L 309.213151 59.157929 
L 312.04516 59.347124 
L 314.87717 60.348456 
L 317.709179 59.280267 
L 320.541188 62.451535 
L 323.373197 59.911702 
L 326.205206 58.863597 
L 329.037215 59.712152 
L 331.869225 62.101331 
L 334.701234 56.922169 
L 337.533243 59.213468 
L 340.365252 58.867935 
L 343.197261 59.973603 
L 346.02927 57.660463 
L 348.86128 59.951617 
L 351.693289 59.613722 
L 354.525298 59.54423 
L 357.357307 56.847981 
L 360.189316 60.892783 
L 363.021325 60.391334 
L 365.853335 60.396938 
L 368.685344 60.909987 
L 371.517353 58.854624 
L 374.349362 60.473194 
L 377.181371 59.081928 
L 380.01338 58.773188 
L 382.84539 59.157681 
L 385.677399 58.393879 
L 388.509408 59.786548 
L 391.341417 58.06805 
L 394.173426 59.858488 
L 397.005435 61.292183 
L 399.837445 59.887437 
L 402.669454 59.37583 
L 405.501463 59.671085 
L 408.333472 58.64294 
L 411.165481 63.106276 
L 413.99749 60.43461 
L 416.8295 56.47239 
L 419.661509 61.541585 
L 422.493518 60.951906 
L 425.325527 59.035876 
L 428.157536 60.271187 
L 430.989545 60.88074 
" clip-path="url(#p3483f74a8d)" style="fill: none; stroke: #dd8452; stroke-width: 3; stroke-linecap: round"/>
   </g>
   <g id="line2d_16">
    <path d="M 93.980455 183.976039 
L 96.812464 168.001771 
L 99.644473 180.350413 
L 102.476482 177.235746 
L 105.308491 148.999726 
L 108.1405 159.517021 
L 110.97251 158.820856 
L 113.804519 151.176601 
L 116.636528 127.437659 
L 119.468537 128.049724 
L 122.300546 126.629232 
L 125.132555 137.232395 
L 127.964565 115.953417 
L 130.796574 115.073043 
L 133.628583 105.585472 
L 136.460592 115.906028 
L 139.292601 91.729804 
L 142.12461 102.215558 
L 144.95662 101.930067 
L 147.788629 99.546546 
L 150.620638 96.480806 
L 153.452647 90.464469 
L 156.284656 94.466978 
L 159.116665 80.981781 
L 161.948675 71.943646 
L 164.780684 77.996098 
L 167.612693 83.014604 
L 170.444702 72.72335 
L 173.276711 93.859952 
L 176.10872 80.562097 
L 178.94073 70.278596 
L 181.772739 94.368961 
L 184.604748 84.482299 
L 187.436757 75.17573 
L 190.268766 73.047541 
L 193.100775 70.677069 
L 195.932785 79.978661 
L 198.764794 78.98997 
L 201.596803 69.441185 
L 204.428812 73.468371 
L 207.260821 71.147476 
L 210.09283 75.729401 
L 212.92484 79.38761 
L 215.756849 76.276064 
L 218.588858 78.434719 
L 221.420867 74.17108 
L 224.252876 76.047516 
L 227.084885 76.133344 
L 229.916895 68.395843 
L 232.748904 70.948101 
L 235.580913 72.509923 
L 238.412922 69.354238 
L 241.244931 73.196824 
L 244.07694 70.948768 
L 246.90895 75.932014 
L 249.740959 63.933665 
L 252.572968 65.98763 
L 255.404977 68.360669 
L 258.236986 65.237398 
L 261.068995 65.222373 
L 263.901005 71.70324 
L 266.733014 74.428847 
L 269.565023 71.300969 
L 272.397032 66.040609 
L 275.229041 71.66287 
L 278.06105 70.189102 
L 280.89306 68.750362 
L 283.725069 67.084973 
L 286.557078 69.82893 
L 289.389087 67.017524 
L 292.221096 66.760662 
L 295.053105 64.920815 
L 297.885115 67.396387 
L 300.717124 68.838589 
L 303.549133 72.893272 
L 306.381142 68.325827 
L 309.213151 63.528536 
L 312.04516 66.368776 
L 314.87717 71.486093 
L 317.709179 67.905959 
L 320.541188 70.960755 
L 323.373197 68.189984 
L 326.205206 70.585871 
L 329.037215 71.557023 
L 331.869225 68.939242 
L 334.701234 68.131016 
L 337.533243 67.544751 
L 340.365252 71.466144 
L 343.197261 67.014999 
L 346.02927 66.378598 
L 348.86128 65.09371 
L 351.693289 69.574537 
L 354.525298 72.492225 
L 357.357307 66.758338 
L 360.189316 66.770215 
L 363.021325 70.338773 
L 365.853335 67.71468 
L 368.685344 65.924155 
L 371.517353 65.981061 
L 374.349362 66.785206 
L 377.181371 68.793149 
L 380.01338 66.152134 
L 382.84539 70.234098 
L 385.677399 67.228822 
L 388.509408 67.856337 
L 391.341417 68.64782 
L 394.173426 66.019848 
L 397.005435 70.912617 
L 399.837445 72.37502 
L 402.669454 67.139204 
L 405.501463 70.964366 
L 408.333472 67.152122 
L 411.165481 71.697546 
L 413.99749 68.886948 
L 416.8295 71.061204 
L 419.661509 70.066807 
L 422.493518 75.029729 
L 425.325527 69.246239 
L 428.157536 64.09063 
L 430.989545 68.539314 
" clip-path="url(#p3483f74a8d)" style="fill: none; stroke: #55a868; stroke-width: 3; stroke-linecap: round"/>
   </g>
   <g id="line2d_17">
    <path d="M 93.980455 175.782175 
L 96.812464 182.332312 
L 99.644473 179.395541 
L 102.476482 171.14337 
L 105.308491 158.829487 
L 108.1405 144.581692 
L 110.97251 147.961729 
L 113.804519 159.67162 
L 116.636528 147.941809 
L 119.468537 145.286893 
L 122.300546 146.029564 
L 125.132555 137.869874 
L 127.964565 126.801337 
L 130.796574 119.087361 
L 133.628583 124.330925 
L 136.460592 121.912864 
L 139.292601 117.906788 
L 142.12461 120.24249 
L 144.95662 135.293405 
L 147.788629 108.684063 
L 150.620638 119.780153 
L 153.452647 105.868076 
L 156.284656 110.609719 
L 159.116665 110.003562 
L 161.948675 115.387232 
L 164.780684 110.300522 
L 167.612693 110.561676 
L 170.444702 88.221784 
L 173.276711 95.529614 
L 176.10872 100.386735 
L 178.94073 116.081656 
L 181.772739 95.363387 
L 184.604748 105.216279 
L 187.436757 98.020929 
L 190.268766 87.669321 
L 193.100775 89.771586 
L 195.932785 102.070567 
L 198.764794 86.675416 
L 201.596803 93.383258 
L 204.428812 90.587156 
L 207.260821 92.396572 
L 210.09283 89.403274 
L 212.92484 83.006424 
L 215.756849 85.309026 
L 218.588858 86.648829 
L 221.420867 85.478276 
L 224.252876 90.886437 
L 227.084885 89.466676 
L 229.916895 84.599092 
L 232.748904 77.391738 
L 235.580913 91.782859 
L 238.412922 71.945246 
L 241.244931 79.712157 
L 244.07694 84.88637 
L 246.90895 82.956389 
L 249.740959 76.869418 
L 252.572968 86.985322 
L 255.404977 82.388884 
L 258.236986 82.312985 
L 261.068995 76.460564 
L 263.901005 79.858634 
L 266.733014 80.74019 
L 269.565023 87.718851 
L 272.397032 85.63413 
L 275.229041 76.755277 
L 278.06105 80.413535 
L 280.89306 90.347025 
L 283.725069 80.894616 
L 286.557078 79.421795 
L 289.389087 92.415965 
L 292.221096 86.562108 
L 295.053105 86.502137 
L 297.885115 82.303047 
L 300.717124 85.740503 
L 303.549133 94.166147 
L 306.381142 85.917329 
L 309.213151 81.599128 
L 312.04516 90.816127 
L 314.87717 91.984599 
L 317.709179 82.135563 
L 320.541188 82.671136 
L 323.373197 79.970377 
L 326.205206 85.197521 
L 329.037215 79.001048 
L 331.869225 89.887902 
L 334.701234 80.086079 
L 337.533243 90.526042 
L 340.365252 87.072394 
L 343.197261 73.500162 
L 346.02927 77.676149 
L 348.86128 83.696233 
L 351.693289 77.825969 
L 354.525298 85.611768 
L 357.357307 85.360065 
L 360.189316 76.230074 
L 363.021325 90.041339 
L 365.853335 88.352261 
L 368.685344 82.626407 
L 371.517353 84.190656 
L 374.349362 75.061741 
L 377.181371 79.926515 
L 380.01338 78.683481 
L 382.84539 75.209999 
L 385.677399 83.551113 
L 388.509408 87.086046 
L 391.341417 77.805415 
L 394.173426 87.431986 
L 397.005435 82.802436 
L 399.837445 78.69315 
L 402.669454 84.259601 
L 405.501463 87.006934 
L 408.333472 75.605643 
L 411.165481 72.762091 
L 413.99749 77.438566 
L 416.8295 76.663026 
L 419.661509 78.369803 
L 422.493518 80.047839 
L 425.325527 77.062433 
L 428.157536 75.589409 
L 430.989545 75.132446 
" clip-path="url(#p3483f74a8d)" style="fill: none; stroke: #c44e52; stroke-width: 3; stroke-linecap: round"/>
   </g>
   <g id="line2d_18">
    <path d="M 93.980455 181.659928 
L 96.812464 178.051613 
L 99.644473 177.339079 
L 102.476482 171.633734 
L 105.308491 173.124492 
L 108.1405 159.064941 
L 110.97251 160.934899 
L 113.804519 155.295267 
L 116.636528 148.249272 
L 119.468537 154.974456 
L 122.300546 149.11966 
L 125.132555 147.363952 
L 127.964565 161.39519 
L 130.796574 147.892094 
L 133.628583 147.622941 
L 136.460592 135.773729 
L 139.292601 149.032425 
L 142.12461 138.325913 
L 144.95662 141.75022 
L 147.788629 160.097949 
L 150.620638 128.210887 
L 153.452647 125.433524 
L 156.284656 140.265614 
L 159.116665 134.407281 
L 161.948675 143.269645 
L 164.780684 136.603553 
L 167.612693 129.41126 
L 170.444702 126.353951 
L 173.276711 140.331623 
L 176.10872 130.110136 
L 178.94073 123.769747 
L 181.772739 134.742071 
L 184.604748 138.668426 
L 187.436757 109.17461 
L 190.268766 126.601617 
L 193.100775 128.925421 
L 195.932785 131.506449 
L 198.764794 137.957917 
L 201.596803 135.847537 
L 204.428812 129.358592 
L 207.260821 116.300601 
L 210.09283 132.891894 
L 212.92484 116.169743 
L 215.756849 112.136026 
L 218.588858 126.296059 
L 221.420867 108.19507 
L 224.252876 98.812047 
L 227.084885 130.174931 
L 229.916895 108.436046 
L 232.748904 111.870417 
L 235.580913 125.518311 
L 238.412922 115.613812 
L 241.244931 118.405525 
L 244.07694 121.677913 
L 246.90895 124.683137 
L 249.740959 106.794219 
L 252.572968 112.1949 
L 255.404977 117.043855 
L 258.236986 108.039344 
L 261.068995 118.461418 
L 263.901005 104.274636 
L 266.733014 104.853082 
L 269.565023 118.852475 
L 272.397032 105.848316 
L 275.229041 102.056738 
L 278.06105 108.252977 
L 280.89306 116.837321 
L 283.725069 106.957812 
L 286.557078 110.08565 
L 289.389087 99.806579 
L 292.221096 98.904486 
L 295.053105 113.611281 
L 297.885115 113.148247 
L 300.717124 125.861165 
L 303.549133 106.661482 
L 306.381142 109.932218 
L 309.213151 109.676022 
L 312.04516 123.077554 
L 314.87717 104.448498 
L 317.709179 111.956705 
L 320.541188 108.907172 
L 323.373197 104.15944 
L 326.205206 109.063493 
L 329.037215 116.203774 
L 331.869225 104.628582 
L 334.701234 96.438751 
L 337.533243 110.844386 
L 340.365252 102.114234 
L 343.197261 96.315896 
L 346.02927 112.019744 
L 348.86128 110.930639 
L 351.693289 104.108489 
L 354.525298 91.037146 
L 357.357307 108.693306 
L 360.189316 98.341752 
L 363.021325 100.659645 
L 365.853335 101.889607 
L 368.685344 107.182634 
L 371.517353 97.201769 
L 374.349362 91.839928 
L 377.181371 96.866171 
L 380.01338 98.688374 
L 382.84539 93.691763 
L 385.677399 99.673565 
L 388.509408 92.839924 
L 391.341417 104.929346 
L 394.173426 96.304739 
L 397.005435 92.563599 
L 399.837445 94.035111 
L 402.669454 91.225386 
L 405.501463 94.282353 
L 408.333472 93.174202 
L 411.165481 92.208022 
L 413.99749 88.427776 
L 416.8295 92.309904 
L 419.661509 99.051852 
L 422.493518 91.029896 
L 425.325527 90.746517 
L 428.157536 92.2214 
L 430.989545 90.342945 
" clip-path="url(#p3483f74a8d)" style="fill: none; stroke: #8172b3; stroke-width: 3; stroke-linecap: round"/>
   </g>
   <g id="line2d_19">
    <path d="M 93.980455 173.741219 
L 96.812464 180.68243 
L 99.644473 175.159494 
L 102.476482 171.862594 
L 105.308491 177.852636 
L 108.1405 181.667823 
L 110.97251 168.910904 
L 113.804519 166.360836 
L 116.636528 173.67623 
L 119.468537 161.553306 
L 122.300546 155.668476 
L 125.132555 190.026896 
L 127.964565 155.045753 
L 130.796574 159.30707 
L 133.628583 157.779741 
L 136.460592 164.061767 
L 139.292601 153.229548 
L 142.12461 168.428883 
L 144.95662 166.710317 
L 147.788629 180.5729 
L 150.620638 154.107276 
L 153.452647 155.361737 
L 156.284656 162.87299 
L 159.116665 160.002152 
L 161.948675 159.893863 
L 164.780684 166.713686 
L 167.612693 159.880743 
L 170.444702 158.012177 
L 173.276711 167.842512 
L 176.10872 184.127176 
L 178.94073 158.55408 
L 181.772739 148.431483 
L 184.604748 173.717777 
L 187.436757 165.084351 
L 190.268766 169.139081 
L 193.100775 156.330724 
L 195.932785 153.783883 
L 198.764794 154.450344 
L 201.596803 168.578762 
L 204.428812 156.033991 
L 207.260821 169.043514 
L 210.09283 155.677516 
L 212.92484 157.369144 
L 215.756849 171.444217 
L 218.588858 156.019881 
L 221.420867 192.554439 
L 224.252876 157.444898 
L 227.084885 167.979279 
L 229.916895 179.801615 
L 232.748904 176.391603 
L 235.580913 148.967128 
L 238.412922 150.630012 
L 241.244931 154.304097 
L 244.07694 180.490559 
L 246.90895 156.298611 
L 249.740959 173.886655 
L 252.572968 191.297522 
L 255.404977 158.356581 
L 258.236986 165.555877 
L 261.068995 158.403669 
L 263.901005 165.238645 
L 266.733014 183.431782 
L 269.565023 153.451498 
L 272.397032 181.091991 
L 275.229041 156.091824 
L 278.06105 168.85246 
L 280.89306 166.314795 
L 283.725069 196.364215 
L 286.557078 156.462436 
L 289.389087 157.996958 
L 292.221096 162.588761 
L 295.053105 166.353625 
L 297.885115 159.996905 
L 300.717124 157.327045 
L 303.549133 148.152588 
L 306.381142 177.29222 
L 309.213151 191.999807 
L 312.04516 159.058772 
L 314.87717 159.21712 
L 317.709179 177.789421 
L 320.541188 155.208364 
L 323.373197 157.499402 
L 326.205206 155.194816 
L 329.037215 155.913166 
L 331.869225 160.507718 
L 334.701234 173.596725 
L 337.533243 160.310049 
L 340.365252 145.812044 
L 343.197261 176.826627 
L 346.02927 159.560749 
L 348.86128 163.276944 
L 351.693289 151.441351 
L 354.525298 159.757617 
L 357.357307 154.717808 
L 360.189316 177.816506 
L 363.021325 152.85822 
L 365.853335 162.489993 
L 368.685344 152.364697 
L 371.517353 169.064128 
L 374.349362 155.990294 
L 377.181371 158.962666 
L 380.01338 158.139865 
L 382.84539 152.983046 
L 385.677399 153.650126 
L 388.509408 162.745467 
L 391.341417 158.379003 
L 394.173426 155.90767 
L 397.005435 163.906816 
L 399.837445 155.948223 
L 402.669454 158.668312 
L 405.501463 159.012074 
L 408.333472 160.313244 
L 411.165481 167.977176 
L 413.99749 166.151752 
L 416.8295 159.03856 
L 419.661509 161.522188 
L 422.493518 163.16463 
L 425.325527 159.319917 
L 428.157536 159.792705 
L 430.989545 163.120746 
" clip-path="url(#p3483f74a8d)" style="fill: none; stroke: #937860; stroke-width: 3; stroke-linecap: round"/>
   </g>
   <g id="patch_3">
    <path d="M 77.13 294.66 
L 77.13 29.76 
" style="fill: none; stroke: #ffffff; stroke-width: 1.25; stroke-linejoin: miter; stroke-linecap: square"/>
   </g>
   <g id="patch_4">
    <path d="M 447.84 294.66 
L 447.84 29.76 
" style="fill: none; stroke: #ffffff; stroke-width: 1.25; stroke-linejoin: miter; stroke-linecap: square"/>
   </g>
   <g id="patch_5">
    <path d="M 77.13 294.66 
L 447.84 294.66 
" style="fill: none; stroke: #ffffff; stroke-width: 1.25; stroke-linejoin: miter; stroke-linecap: square"/>
   </g>
   <g id="patch_6">
    <path d="M 77.13 29.76 
L 447.84 29.76 
" style="fill: none; stroke: #ffffff; stroke-width: 1.25; stroke-linejoin: miter; stroke-linecap: square"/>
   </g>
   <g id="text_16">
    <!-- zinc-coating-v0 -->
    <g style="fill: #262626" transform="translate(209.126406 23.76)scale(0.14 -0.14)">
     <defs>
      <path id="DejaVuSans-7a" d="M 353 3500 
L 3084 3500 
L 3084 2975 
L 922 459 
L 3084 459 
L 3084 0 
L 275 0 
L 275 525 
L 2438 3041 
L 353 3041 
L 353 3500 
z
" transform="scale(0.015625)"/>
      <path id="DejaVuSans-2d" d="M 313 2009 
L 1997 2009 
L 1997 1497 
L 313 1497 
L 313 2009 
z
" transform="scale(0.015625)"/>
      <path id="DejaVuSans-61" d="M 2194 1759 
Q 1497 1759 1228 1600 
Q 959 1441 959 1056 
Q 959 750 1161 570 
Q 1363 391 1709 391 
Q 2188 391 2477 730 
Q 2766 1069 2766 1631 
L 2766 1759 
L 2194 1759 
z
M 3341 1997 
L 3341 0 
L 2766 0 
L 2766 531 
Q 2569 213 2275 61 
Q 1981 -91 1556 -91 
Q 1019 -91 701 211 
Q 384 513 384 1019 
Q 384 1609 779 1909 
Q 1175 2209 1959 2209 
L 2766 2209 
L 2766 2266 
Q 2766 2663 2505 2880 
Q 2244 3097 1772 3097 
Q 1472 3097 1187 3025 
Q 903 2953 641 2809 
L 641 3341 
Q 956 3463 1253 3523 
Q 1550 3584 1831 3584 
Q 2591 3584 2966 3190 
Q 3341 2797 3341 1997 
z
" transform="scale(0.015625)"/>
      <path id="DejaVuSans-67" d="M 2906 1791 
Q 2906 2416 2648 2759 
Q 2391 3103 1925 3103 
Q 1463 3103 1205 2759 
Q 947 2416 947 1791 
Q 947 1169 1205 825 
Q 1463 481 1925 481 
Q 2391 481 2648 825 
Q 2906 1169 2906 1791 
z
M 3481 434 
Q 3481 -459 3084 -895 
Q 2688 -1331 1869 -1331 
Q 1566 -1331 1297 -1286 
Q 1028 -1241 775 -1147 
L 775 -588 
Q 1028 -725 1275 -790 
Q 1522 -856 1778 -856 
Q 2344 -856 2625 -561 
Q 2906 -266 2906 331 
L 2906 616 
Q 2728 306 2450 153 
Q 2172 0 1784 0 
Q 1141 0 747 490 
Q 353 981 353 1791 
Q 353 2603 747 3093 
Q 1141 3584 1784 3584 
Q 2172 3584 2450 3431 
Q 2728 3278 2906 2969 
L 2906 3500 
L 3481 3500 
L 3481 434 
z
" transform="scale(0.015625)"/>
      <path id="DejaVuSans-76" d="M 191 3500 
L 800 3500 
L 1894 563 
L 2988 3500 
L 3597 3500 
L 2284 0 
L 1503 0 
L 191 3500 
z
" transform="scale(0.015625)"/>
     </defs>
     <use xlink:href="#DejaVuSans-7a"/>
     <use xlink:href="#DejaVuSans-69" x="52.490234"/>
     <use xlink:href="#DejaVuSans-6e" x="80.273438"/>
     <use xlink:href="#DejaVuSans-63" x="143.652344"/>
     <use xlink:href="#DejaVuSans-2d" x="198.632812"/>
     <use xlink:href="#DejaVuSans-63" x="234.716797"/>
     <use xlink:href="#DejaVuSans-6f" x="289.697266"/>
     <use xlink:href="#DejaVuSans-61" x="350.878906"/>
     <use xlink:href="#DejaVuSans-74" x="412.158203"/>
     <use xlink:href="#DejaVuSans-69" x="451.367188"/>
     <use xlink:href="#DejaVuSans-6e" x="479.150391"/>
     <use xlink:href="#DejaVuSans-67" x="542.529297"/>
     <use xlink:href="#DejaVuSans-2d" x="606.005859"/>
     <use xlink:href="#DejaVuSans-76" x="639.464844"/>
     <use xlink:href="#DejaVuSans-30" x="698.644531"/>
    </g>
   </g>
   <g id="legend_1">
    <g id="patch_7">
     <path d="M 84.83 289.16 
L 249.419219 289.16 
Q 251.619219 289.16 251.619219 286.96 
L 251.619219 191.184375 
Q 251.619219 188.984375 249.419219 188.984375 
L 84.83 188.984375 
Q 82.63 188.984375 82.63 191.184375 
L 82.63 286.96 
Q 82.63 289.16 84.83 289.16 
z
" style="fill: #eaeaf2; opacity: 0.8; stroke: #cccccc; stroke-linejoin: miter"/>
    </g>
    <g id="line2d_20">
     <path d="M 87.03 197.892656 
L 98.03 197.892656 
L 109.03 197.892656 
" style="fill: none; stroke: #4c72b0; stroke-width: 3; stroke-linecap: round"/>
    </g>
    <g id="text_17">
     <!-- SAC-DELAY-0-logs/ -->
     <g style="fill: #262626" transform="translate(117.83 201.742656)scale(0.11 -0.11)">
      <defs>
       <path id="DejaVuSans-41" d="M 2188 4044 
L 1331 1722 
L 3047 1722 
L 2188 4044 
z
M 1831 4666 
L 2547 4666 
L 4325 0 
L 3669 0 
L 3244 1197 
L 1141 1197 
L 716 0 
L 50 0 
L 1831 4666 
z
" transform="scale(0.015625)"/>
       <path id="DejaVuSans-43" d="M 4122 4306 
L 4122 3641 
Q 3803 3938 3442 4084 
Q 3081 4231 2675 4231 
Q 1875 4231 1450 3742 
Q 1025 3253 1025 2328 
Q 1025 1406 1450 917 
Q 1875 428 2675 428 
Q 3081 428 3442 575 
Q 3803 722 4122 1019 
L 4122 359 
Q 3791 134 3420 21 
Q 3050 -91 2638 -91 
Q 1578 -91 968 557 
Q 359 1206 359 2328 
Q 359 3453 968 4101 
Q 1578 4750 2638 4750 
Q 3056 4750 3426 4639 
Q 3797 4528 4122 4306 
z
" transform="scale(0.015625)"/>
       <path id="DejaVuSans-44" d="M 1259 4147 
L 1259 519 
L 2022 519 
Q 2988 519 3436 956 
Q 3884 1394 3884 2338 
Q 3884 3275 3436 3711 
Q 2988 4147 2022 4147 
L 1259 4147 
z
M 628 4666 
L 1925 4666 
Q 3281 4666 3915 4102 
Q 4550 3538 4550 2338 
Q 4550 1131 3912 565 
Q 3275 0 1925 0 
L 628 0 
L 628 4666 
z
" transform="scale(0.015625)"/>
       <path id="DejaVuSans-45" d="M 628 4666 
L 3578 4666 
L 3578 4134 
L 1259 4134 
L 1259 2753 
L 3481 2753 
L 3481 2222 
L 1259 2222 
L 1259 531 
L 3634 531 
L 3634 0 
L 628 0 
L 628 4666 
z
" transform="scale(0.015625)"/>
       <path id="DejaVuSans-4c" d="M 628 4666 
L 1259 4666 
L 1259 531 
L 3531 531 
L 3531 0 
L 628 0 
L 628 4666 
z
" transform="scale(0.015625)"/>
       <path id="DejaVuSans-59" d="M -13 4666 
L 666 4666 
L 1959 2747 
L 3244 4666 
L 3922 4666 
L 2272 2222 
L 2272 0 
L 1638 0 
L 1638 2222 
L -13 4666 
z
" transform="scale(0.015625)"/>
       <path id="DejaVuSans-2f" d="M 1625 4666 
L 2156 4666 
L 531 -594 
L 0 -594 
L 1625 4666 
z
" transform="scale(0.015625)"/>
      </defs>
      <use xlink:href="#DejaVuSans-53"/>
      <use xlink:href="#DejaVuSans-41" x="65.351562"/>
      <use xlink:href="#DejaVuSans-43" x="132.009766"/>
      <use xlink:href="#DejaVuSans-2d" x="201.833984"/>
      <use xlink:href="#DejaVuSans-44" x="237.917969"/>
      <use xlink:href="#DejaVuSans-45" x="314.919922"/>
      <use xlink:href="#DejaVuSans-4c" x="378.103516"/>
      <use xlink:href="#DejaVuSans-41" x="436.066406"/>
      <use xlink:href="#DejaVuSans-59" x="496.724609"/>
      <use xlink:href="#DejaVuSans-2d" x="545.933594"/>
      <use xlink:href="#DejaVuSans-30" x="582.017578"/>
      <use xlink:href="#DejaVuSans-2d" x="645.640625"/>
      <use xlink:href="#DejaVuSans-6c" x="681.724609"/>
      <use xlink:href="#DejaVuSans-6f" x="709.507812"/>
      <use xlink:href="#DejaVuSans-67" x="770.689453"/>
      <use xlink:href="#DejaVuSans-73" x="834.166016"/>
      <use xlink:href="#DejaVuSans-2f" x="886.265625"/>
     </g>
    </g>
    <g id="line2d_21">
     <path d="M 87.03 214.038594 
L 98.03 214.038594 
L 109.03 214.038594 
" style="fill: none; stroke: #dd8452; stroke-width: 3; stroke-linecap: round"/>
    </g>
    <g id="text_18">
     <!-- SAC-IS-DELAY-1-logs/ -->
     <g style="fill: #262626" transform="translate(117.83 217.888594)scale(0.11 -0.11)">
      <defs>
       <path id="DejaVuSans-49" d="M 628 4666 
L 1259 4666 
L 1259 0 
L 628 0 
L 628 4666 
z
" transform="scale(0.015625)"/>
      </defs>
      <use xlink:href="#DejaVuSans-53"/>
      <use xlink:href="#DejaVuSans-41" x="65.351562"/>
      <use xlink:href="#DejaVuSans-43" x="132.009766"/>
      <use xlink:href="#DejaVuSans-2d" x="201.833984"/>
      <use xlink:href="#DejaVuSans-49" x="237.917969"/>
      <use xlink:href="#DejaVuSans-53" x="267.410156"/>
      <use xlink:href="#DejaVuSans-2d" x="330.886719"/>
      <use xlink:href="#DejaVuSans-44" x="366.970703"/>
      <use xlink:href="#DejaVuSans-45" x="443.972656"/>
      <use xlink:href="#DejaVuSans-4c" x="507.15625"/>
      <use xlink:href="#DejaVuSans-41" x="565.119141"/>
      <use xlink:href="#DejaVuSans-59" x="625.777344"/>
      <use xlink:href="#DejaVuSans-2d" x="674.986328"/>
      <use xlink:href="#DejaVuSans-31" x="711.070312"/>
      <use xlink:href="#DejaVuSans-2d" x="774.693359"/>
      <use xlink:href="#DejaVuSans-6c" x="810.777344"/>
      <use xlink:href="#DejaVuSans-6f" x="838.560547"/>
      <use xlink:href="#DejaVuSans-67" x="899.742188"/>
      <use xlink:href="#DejaVuSans-73" x="963.21875"/>
      <use xlink:href="#DejaVuSans-2f" x="1015.318359"/>
     </g>
    </g>
    <g id="line2d_22">
     <path d="M 87.03 230.184531 
L 98.03 230.184531 
L 109.03 230.184531 
" style="fill: none; stroke: #55a868; stroke-width: 3; stroke-linecap: round"/>
    </g>
    <g id="text_19">
     <!-- SAC-IS-DELAY-5-logs/ -->
     <g style="fill: #262626" transform="translate(117.83 234.034531)scale(0.11 -0.11)">
      <use xlink:href="#DejaVuSans-53"/>
      <use xlink:href="#DejaVuSans-41" x="65.351562"/>
      <use xlink:href="#DejaVuSans-43" x="132.009766"/>
      <use xlink:href="#DejaVuSans-2d" x="201.833984"/>
      <use xlink:href="#DejaVuSans-49" x="237.917969"/>
      <use xlink:href="#DejaVuSans-53" x="267.410156"/>
      <use xlink:href="#DejaVuSans-2d" x="330.886719"/>
      <use xlink:href="#DejaVuSans-44" x="366.970703"/>
      <use xlink:href="#DejaVuSans-45" x="443.972656"/>
      <use xlink:href="#DejaVuSans-4c" x="507.15625"/>
      <use xlink:href="#DejaVuSans-41" x="565.119141"/>
      <use xlink:href="#DejaVuSans-59" x="625.777344"/>
      <use xlink:href="#DejaVuSans-2d" x="674.986328"/>
      <use xlink:href="#DejaVuSans-35" x="711.070312"/>
      <use xlink:href="#DejaVuSans-2d" x="774.693359"/>
      <use xlink:href="#DejaVuSans-6c" x="810.777344"/>
      <use xlink:href="#DejaVuSans-6f" x="838.560547"/>
      <use xlink:href="#DejaVuSans-67" x="899.742188"/>
      <use xlink:href="#DejaVuSans-73" x="963.21875"/>
      <use xlink:href="#DejaVuSans-2f" x="1015.318359"/>
     </g>
    </g>
    <g id="line2d_23">
     <path d="M 87.03 246.330469 
L 98.03 246.330469 
L 109.03 246.330469 
" style="fill: none; stroke: #c44e52; stroke-width: 3; stroke-linecap: round"/>
    </g>
    <g id="text_20">
     <!-- SAC-IS-DELAY-10-logs/ -->
     <g style="fill: #262626" transform="translate(117.83 250.180469)scale(0.11 -0.11)">
      <use xlink:href="#DejaVuSans-53"/>
      <use xlink:href="#DejaVuSans-41" x="65.351562"/>
      <use xlink:href="#DejaVuSans-43" x="132.009766"/>
      <use xlink:href="#DejaVuSans-2d" x="201.833984"/>
      <use xlink:href="#DejaVuSans-49" x="237.917969"/>
      <use xlink:href="#DejaVuSans-53" x="267.410156"/>
      <use xlink:href="#DejaVuSans-2d" x="330.886719"/>
      <use xlink:href="#DejaVuSans-44" x="366.970703"/>
      <use xlink:href="#DejaVuSans-45" x="443.972656"/>
      <use xlink:href="#DejaVuSans-4c" x="507.15625"/>
      <use xlink:href="#DejaVuSans-41" x="565.119141"/>
      <use xlink:href="#DejaVuSans-59" x="625.777344"/>
      <use xlink:href="#DejaVuSans-2d" x="674.986328"/>
      <use xlink:href="#DejaVuSans-31" x="711.070312"/>
      <use xlink:href="#DejaVuSans-30" x="774.693359"/>
      <use xlink:href="#DejaVuSans-2d" x="838.316406"/>
      <use xlink:href="#DejaVuSans-6c" x="874.400391"/>
      <use xlink:href="#DejaVuSans-6f" x="902.183594"/>
      <use xlink:href="#DejaVuSans-67" x="963.365234"/>
      <use xlink:href="#DejaVuSans-73" x="1026.841797"/>
      <use xlink:href="#DejaVuSans-2f" x="1078.941406"/>
     </g>
    </g>
    <g id="line2d_24">
     <path d="M 87.03 262.476406 
L 98.03 262.476406 
L 109.03 262.476406 
" style="fill: none; stroke: #8172b3; stroke-width: 3; stroke-linecap: round"/>
    </g>
    <g id="text_21">
     <!-- SAC-IS-DELAY-20-logs/ -->
     <g style="fill: #262626" transform="translate(117.83 266.326406)scale(0.11 -0.11)">
      <use xlink:href="#DejaVuSans-53"/>
      <use xlink:href="#DejaVuSans-41" x="65.351562"/>
      <use xlink:href="#DejaVuSans-43" x="132.009766"/>
      <use xlink:href="#DejaVuSans-2d" x="201.833984"/>
      <use xlink:href="#DejaVuSans-49" x="237.917969"/>
      <use xlink:href="#DejaVuSans-53" x="267.410156"/>
      <use xlink:href="#DejaVuSans-2d" x="330.886719"/>
      <use xlink:href="#DejaVuSans-44" x="366.970703"/>
      <use xlink:href="#DejaVuSans-45" x="443.972656"/>
      <use xlink:href="#DejaVuSans-4c" x="507.15625"/>
      <use xlink:href="#DejaVuSans-41" x="565.119141"/>
      <use xlink:href="#DejaVuSans-59" x="625.777344"/>
      <use xlink:href="#DejaVuSans-2d" x="674.986328"/>
      <use xlink:href="#DejaVuSans-32" x="711.070312"/>
      <use xlink:href="#DejaVuSans-30" x="774.693359"/>
      <use xlink:href="#DejaVuSans-2d" x="838.316406"/>
      <use xlink:href="#DejaVuSans-6c" x="874.400391"/>
      <use xlink:href="#DejaVuSans-6f" x="902.183594"/>
      <use xlink:href="#DejaVuSans-67" x="963.365234"/>
      <use xlink:href="#DejaVuSans-73" x="1026.841797"/>
      <use xlink:href="#DejaVuSans-2f" x="1078.941406"/>
     </g>
    </g>
    <g id="line2d_25">
     <path d="M 87.03 278.622344 
L 98.03 278.622344 
L 109.03 278.622344 
" style="fill: none; stroke: #937860; stroke-width: 3; stroke-linecap: round"/>
    </g>
    <g id="text_22">
     <!-- SAC-IS-DELAY-100-logs/ -->
     <g style="fill: #262626" transform="translate(117.83 282.472344)scale(0.11 -0.11)">
      <use xlink:href="#DejaVuSans-53"/>
      <use xlink:href="#DejaVuSans-41" x="65.351562"/>
      <use xlink:href="#DejaVuSans-43" x="132.009766"/>
      <use xlink:href="#DejaVuSans-2d" x="201.833984"/>
      <use xlink:href="#DejaVuSans-49" x="237.917969"/>
      <use xlink:href="#DejaVuSans-53" x="267.410156"/>
      <use xlink:href="#DejaVuSans-2d" x="330.886719"/>
      <use xlink:href="#DejaVuSans-44" x="366.970703"/>
      <use xlink:href="#DejaVuSans-45" x="443.972656"/>
      <use xlink:href="#DejaVuSans-4c" x="507.15625"/>
      <use xlink:href="#DejaVuSans-41" x="565.119141"/>
      <use xlink:href="#DejaVuSans-59" x="625.777344"/>
      <use xlink:href="#DejaVuSans-2d" x="674.986328"/>
      <use xlink:href="#DejaVuSans-31" x="711.070312"/>
      <use xlink:href="#DejaVuSans-30" x="774.693359"/>
      <use xlink:href="#DejaVuSans-30" x="838.316406"/>
      <use xlink:href="#DejaVuSans-2d" x="901.939453"/>
      <use xlink:href="#DejaVuSans-6c" x="938.023438"/>
      <use xlink:href="#DejaVuSans-6f" x="965.806641"/>
      <use xlink:href="#DejaVuSans-67" x="1026.988281"/>
      <use xlink:href="#DejaVuSans-73" x="1090.464844"/>
      <use xlink:href="#DejaVuSans-2f" x="1142.564453"/>
     </g>
    </g>
   </g>
  </g>
 </g>
 <defs>
  <clipPath id="p3483f74a8d">
   <rect x="77.13" y="29.76" width="370.71" height="264.9"/>
  </clipPath>
 </defs>
</svg>
