<?xml version="1.0" encoding="utf-8" standalone="no"?>
<!DOCTYPE svg PUBLIC "-//W3C//DTD SVG 1.1//EN"
  "http://www.w3.org/Graphics/SVG/1.1/DTD/svg11.dtd">
<svg xmlns:xlink="http://www.w3.org/1999/xlink" width="460.8pt" height="345.6pt" viewBox="0 0 460.8 345.6" xmlns="http://www.w3.org/2000/svg" version="1.1">
 <metadata>
  <rdf:RDF xmlns:dc="http://purl.org/dc/elements/1.1/" xmlns:cc="http://creativecommons.org/ns#" xmlns:rdf="http://www.w3.org/1999/02/22-rdf-syntax-ns#">
   <cc:Work>
    <dc:type rdf:resource="http://purl.org/dc/dcmitype/StillImage"/>
    <dc:date>2022-09-10T15:50:21.964001</dc:date>
    <dc:format>image/svg+xml</dc:format>
    <dc:creator>
     <cc:Agent>
      <dc:title>Matplotlib v3.5.3, https://matplotlib.org/</dc:title>
     </cc:Agent>
    </dc:creator>
   </cc:Work>
  </rdf:RDF>
 </metadata>
 <defs>
  <style type="text/css">*{stroke-linejoin: round; stroke-linecap: butt}</style>
 </defs>
 <g id="figure_1">
  <g id="patch_1">
   <path d="M 0 345.6 
L 460.8 345.6 
L 460.8 0 
L 0 0 
z
" style="fill: #ffffff"/>
  </g>
  <g id="axes_1">
   <g id="patch_2">
    <path d="M 77.13 294.66 
L 447.84 294.66 
L 447.84 29.76 
L 77.13 29.76 
z
" style="fill: #eaeaf2"/>
   </g>
   <g id="matplotlib.axis_1">
    <g id="xtick_1">
     <g id="line2d_1">
      <path d="M 91.148445 294.66 
L 91.148445 29.76 
" clip-path="url(#p351e0ed09a)" style="fill: none; stroke: #ffffff; stroke-linecap: round"/>
     </g>
     <g id="text_1">
      <!-- 0.00 -->
      <g style="fill: #262626" transform="translate(78.902352 312.518281)scale(0.11 -0.11)">
       <defs>
        <path id="DejaVuSans-30" d="M 2034 4250 
Q 1547 4250 1301 3770 
Q 1056 3291 1056 2328 
Q 1056 1369 1301 889 
Q 1547 409 2034 409 
Q 2525 409 2770 889 
Q 3016 1369 3016 2328 
Q 3016 3291 2770 3770 
Q 2525 4250 2034 4250 
z
M 2034 4750 
Q 2819 4750 3233 4129 
Q 3647 3509 3647 2328 
Q 3647 1150 3233 529 
Q 2819 -91 2034 -91 
Q 1250 -91 836 529 
Q 422 1150 422 2328 
Q 422 3509 836 4129 
Q 1250 4750 2034 4750 
z
" transform="scale(0.015625)"/>
        <path id="DejaVuSans-2e" d="M 684 794 
L 1344 794 
L 1344 0 
L 684 0 
L 684 794 
z
" transform="scale(0.015625)"/>
       </defs>
       <use xlink:href="#DejaVuSans-30"/>
       <use xlink:href="#DejaVuSans-2e" x="63.623047"/>
       <use xlink:href="#DejaVuSans-30" x="95.410156"/>
       <use xlink:href="#DejaVuSans-30" x="159.033203"/>
      </g>
     </g>
    </g>
    <g id="xtick_2">
     <g id="line2d_2">
      <path d="M 147.788629 294.66 
L 147.788629 29.76 
" clip-path="url(#p351e0ed09a)" style="fill: none; stroke: #ffffff; stroke-linecap: round"/>
     </g>
     <g id="text_2">
      <!-- 0.05 -->
      <g style="fill: #262626" transform="translate(135.542535 312.518281)scale(0.11 -0.11)">
       <defs>
        <path id="DejaVuSans-35" d="M 691 4666 
L 3169 4666 
L 3169 4134 
L 1269 4134 
L 1269 2991 
Q 1406 3038 1543 3061 
Q 1681 3084 1819 3084 
Q 2600 3084 3056 2656 
Q 3513 2228 3513 1497 
Q 3513 744 3044 326 
Q 2575 -91 1722 -91 
Q 1428 -91 1123 -41 
Q 819 9 494 109 
L 494 744 
Q 775 591 1075 516 
Q 1375 441 1709 441 
Q 2250 441 2565 725 
Q 2881 1009 2881 1497 
Q 2881 1984 2565 2268 
Q 2250 2553 1709 2553 
Q 1456 2553 1204 2497 
Q 953 2441 691 2322 
L 691 4666 
z
" transform="scale(0.015625)"/>
       </defs>
       <use xlink:href="#DejaVuSans-30"/>
       <use xlink:href="#DejaVuSans-2e" x="63.623047"/>
       <use xlink:href="#DejaVuSans-30" x="95.410156"/>
       <use xlink:href="#DejaVuSans-35" x="159.033203"/>
      </g>
     </g>
    </g>
    <g id="xtick_3">
     <g id="line2d_3">
      <path d="M 204.428812 294.66 
L 204.428812 29.76 
" clip-path="url(#p351e0ed09a)" style="fill: none; stroke: #ffffff; stroke-linecap: round"/>
     </g>
     <g id="text_3">
      <!-- 0.10 -->
      <g style="fill: #262626" transform="translate(192.182718 312.518281)scale(0.11 -0.11)">
       <defs>
        <path id="DejaVuSans-31" d="M 794 531 
L 1825 531 
L 1825 4091 
L 703 3866 
L 703 4441 
L 1819 4666 
L 2450 4666 
L 2450 531 
L 3481 531 
L 3481 0 
L 794 0 
L 794 531 
z
" transform="scale(0.015625)"/>
       </defs>
       <use xlink:href="#DejaVuSans-30"/>
       <use xlink:href="#DejaVuSans-2e" x="63.623047"/>
       <use xlink:href="#DejaVuSans-31" x="95.410156"/>
       <use xlink:href="#DejaVuSans-30" x="159.033203"/>
      </g>
     </g>
    </g>
    <g id="xtick_4">
     <g id="line2d_4">
      <path d="M 261.068995 294.66 
L 261.068995 29.76 
" clip-path="url(#p351e0ed09a)" style="fill: none; stroke: #ffffff; stroke-linecap: round"/>
     </g>
     <g id="text_4">
      <!-- 0.15 -->
      <g style="fill: #262626" transform="translate(248.822902 312.518281)scale(0.11 -0.11)">
       <use xlink:href="#DejaVuSans-30"/>
       <use xlink:href="#DejaVuSans-2e" x="63.623047"/>
       <use xlink:href="#DejaVuSans-31" x="95.410156"/>
       <use xlink:href="#DejaVuSans-35" x="159.033203"/>
      </g>
     </g>
    </g>
    <g id="xtick_5">
     <g id="line2d_5">
      <path d="M 317.709179 294.66 
L 317.709179 29.76 
" clip-path="url(#p351e0ed09a)" style="fill: none; stroke: #ffffff; stroke-linecap: round"/>
     </g>
     <g id="text_5">
      <!-- 0.20 -->
      <g style="fill: #262626" transform="translate(305.463085 312.518281)scale(0.11 -0.11)">
       <defs>
        <path id="DejaVuSans-32" d="M 1228 531 
L 3431 531 
L 3431 0 
L 469 0 
L 469 531 
Q 828 903 1448 1529 
Q 2069 2156 2228 2338 
Q 2531 2678 2651 2914 
Q 2772 3150 2772 3378 
Q 2772 3750 2511 3984 
Q 2250 4219 1831 4219 
Q 1534 4219 1204 4116 
Q 875 4013 500 3803 
L 500 4441 
Q 881 4594 1212 4672 
Q 1544 4750 1819 4750 
Q 2544 4750 2975 4387 
Q 3406 4025 3406 3419 
Q 3406 3131 3298 2873 
Q 3191 2616 2906 2266 
Q 2828 2175 2409 1742 
Q 1991 1309 1228 531 
z
" transform="scale(0.015625)"/>
       </defs>
       <use xlink:href="#DejaVuSans-30"/>
       <use xlink:href="#DejaVuSans-2e" x="63.623047"/>
       <use xlink:href="#DejaVuSans-32" x="95.410156"/>
       <use xlink:href="#DejaVuSans-30" x="159.033203"/>
      </g>
     </g>
    </g>
    <g id="xtick_6">
     <g id="line2d_6">
      <path d="M 374.349362 294.66 
L 374.349362 29.76 
" clip-path="url(#p351e0ed09a)" style="fill: none; stroke: #ffffff; stroke-linecap: round"/>
     </g>
     <g id="text_6">
      <!-- 0.25 -->
      <g style="fill: #262626" transform="translate(362.103268 312.518281)scale(0.11 -0.11)">
       <use xlink:href="#DejaVuSans-30"/>
       <use xlink:href="#DejaVuSans-2e" x="63.623047"/>
       <use xlink:href="#DejaVuSans-32" x="95.410156"/>
       <use xlink:href="#DejaVuSans-35" x="159.033203"/>
      </g>
     </g>
    </g>
    <g id="xtick_7">
     <g id="line2d_7">
      <path d="M 430.989545 294.66 
L 430.989545 29.76 
" clip-path="url(#p351e0ed09a)" style="fill: none; stroke: #ffffff; stroke-linecap: round"/>
     </g>
     <g id="text_7">
      <!-- 0.30 -->
      <g style="fill: #262626" transform="translate(418.743452 312.518281)scale(0.11 -0.11)">
       <defs>
        <path id="DejaVuSans-33" d="M 2597 2516 
Q 3050 2419 3304 2112 
Q 3559 1806 3559 1356 
Q 3559 666 3084 287 
Q 2609 -91 1734 -91 
Q 1441 -91 1130 -33 
Q 819 25 488 141 
L 488 750 
Q 750 597 1062 519 
Q 1375 441 1716 441 
Q 2309 441 2620 675 
Q 2931 909 2931 1356 
Q 2931 1769 2642 2001 
Q 2353 2234 1838 2234 
L 1294 2234 
L 1294 2753 
L 1863 2753 
Q 2328 2753 2575 2939 
Q 2822 3125 2822 3475 
Q 2822 3834 2567 4026 
Q 2313 4219 1838 4219 
Q 1578 4219 1281 4162 
Q 984 4106 628 3988 
L 628 4550 
Q 988 4650 1302 4700 
Q 1616 4750 1894 4750 
Q 2613 4750 3031 4423 
Q 3450 4097 3450 3541 
Q 3450 3153 3228 2886 
Q 3006 2619 2597 2516 
z
" transform="scale(0.015625)"/>
       </defs>
       <use xlink:href="#DejaVuSans-30"/>
       <use xlink:href="#DejaVuSans-2e" x="63.623047"/>
       <use xlink:href="#DejaVuSans-33" x="95.410156"/>
       <use xlink:href="#DejaVuSans-30" x="159.033203"/>
      </g>
     </g>
    </g>
    <g id="text_8">
     <!-- Timesteps (in Million) -->
     <g style="fill: #262626" transform="translate(187.739219 329.44375)scale(0.14 -0.14)">
      <defs>
       <path id="DejaVuSans-54" d="M -19 4666 
L 3928 4666 
L 3928 4134 
L 2272 4134 
L 2272 0 
L 1638 0 
L 1638 4134 
L -19 4134 
L -19 4666 
z
" transform="scale(0.015625)"/>
       <path id="DejaVuSans-69" d="M 603 3500 
L 1178 3500 
L 1178 0 
L 603 0 
L 603 3500 
z
M 603 4863 
L 1178 4863 
L 1178 4134 
L 603 4134 
L 603 4863 
z
" transform="scale(0.015625)"/>
       <path id="DejaVuSans-6d" d="M 3328 2828 
Q 3544 3216 3844 3400 
Q 4144 3584 4550 3584 
Q 5097 3584 5394 3201 
Q 5691 2819 5691 2113 
L 5691 0 
L 5113 0 
L 5113 2094 
Q 5113 2597 4934 2840 
Q 4756 3084 4391 3084 
Q 3944 3084 3684 2787 
Q 3425 2491 3425 1978 
L 3425 0 
L 2847 0 
L 2847 2094 
Q 2847 2600 2669 2842 
Q 2491 3084 2119 3084 
Q 1678 3084 1418 2786 
Q 1159 2488 1159 1978 
L 1159 0 
L 581 0 
L 581 3500 
L 1159 3500 
L 1159 2956 
Q 1356 3278 1631 3431 
Q 1906 3584 2284 3584 
Q 2666 3584 2933 3390 
Q 3200 3197 3328 2828 
z
" transform="scale(0.015625)"/>
       <path id="DejaVuSans-65" d="M 3597 1894 
L 3597 1613 
L 953 1613 
Q 991 1019 1311 708 
Q 1631 397 2203 397 
Q 2534 397 2845 478 
Q 3156 559 3463 722 
L 3463 178 
Q 3153 47 2828 -22 
Q 2503 -91 2169 -91 
Q 1331 -91 842 396 
Q 353 884 353 1716 
Q 353 2575 817 3079 
Q 1281 3584 2069 3584 
Q 2775 3584 3186 3129 
Q 3597 2675 3597 1894 
z
M 3022 2063 
Q 3016 2534 2758 2815 
Q 2500 3097 2075 3097 
Q 1594 3097 1305 2825 
Q 1016 2553 972 2059 
L 3022 2063 
z
" transform="scale(0.015625)"/>
       <path id="DejaVuSans-73" d="M 2834 3397 
L 2834 2853 
Q 2591 2978 2328 3040 
Q 2066 3103 1784 3103 
Q 1356 3103 1142 2972 
Q 928 2841 928 2578 
Q 928 2378 1081 2264 
Q 1234 2150 1697 2047 
L 1894 2003 
Q 2506 1872 2764 1633 
Q 3022 1394 3022 966 
Q 3022 478 2636 193 
Q 2250 -91 1575 -91 
Q 1294 -91 989 -36 
Q 684 19 347 128 
L 347 722 
Q 666 556 975 473 
Q 1284 391 1588 391 
Q 1994 391 2212 530 
Q 2431 669 2431 922 
Q 2431 1156 2273 1281 
Q 2116 1406 1581 1522 
L 1381 1569 
Q 847 1681 609 1914 
Q 372 2147 372 2553 
Q 372 3047 722 3315 
Q 1072 3584 1716 3584 
Q 2034 3584 2315 3537 
Q 2597 3491 2834 3397 
z
" transform="scale(0.015625)"/>
       <path id="DejaVuSans-74" d="M 1172 4494 
L 1172 3500 
L 2356 3500 
L 2356 3053 
L 1172 3053 
L 1172 1153 
Q 1172 725 1289 603 
Q 1406 481 1766 481 
L 2356 481 
L 2356 0 
L 1766 0 
Q 1100 0 847 248 
Q 594 497 594 1153 
L 594 3053 
L 172 3053 
L 172 3500 
L 594 3500 
L 594 4494 
L 1172 4494 
z
" transform="scale(0.015625)"/>
       <path id="DejaVuSans-70" d="M 1159 525 
L 1159 -1331 
L 581 -1331 
L 581 3500 
L 1159 3500 
L 1159 2969 
Q 1341 3281 1617 3432 
Q 1894 3584 2278 3584 
Q 2916 3584 3314 3078 
Q 3713 2572 3713 1747 
Q 3713 922 3314 415 
Q 2916 -91 2278 -91 
Q 1894 -91 1617 61 
Q 1341 213 1159 525 
z
M 3116 1747 
Q 3116 2381 2855 2742 
Q 2594 3103 2138 3103 
Q 1681 3103 1420 2742 
Q 1159 2381 1159 1747 
Q 1159 1113 1420 752 
Q 1681 391 2138 391 
Q 2594 391 2855 752 
Q 3116 1113 3116 1747 
z
" transform="scale(0.015625)"/>
       <path id="DejaVuSans-20" transform="scale(0.015625)"/>
       <path id="DejaVuSans-28" d="M 1984 4856 
Q 1566 4138 1362 3434 
Q 1159 2731 1159 2009 
Q 1159 1288 1364 580 
Q 1569 -128 1984 -844 
L 1484 -844 
Q 1016 -109 783 600 
Q 550 1309 550 2009 
Q 550 2706 781 3412 
Q 1013 4119 1484 4856 
L 1984 4856 
z
" transform="scale(0.015625)"/>
       <path id="DejaVuSans-6e" d="M 3513 2113 
L 3513 0 
L 2938 0 
L 2938 2094 
Q 2938 2591 2744 2837 
Q 2550 3084 2163 3084 
Q 1697 3084 1428 2787 
Q 1159 2491 1159 1978 
L 1159 0 
L 581 0 
L 581 3500 
L 1159 3500 
L 1159 2956 
Q 1366 3272 1645 3428 
Q 1925 3584 2291 3584 
Q 2894 3584 3203 3211 
Q 3513 2838 3513 2113 
z
" transform="scale(0.015625)"/>
       <path id="DejaVuSans-4d" d="M 628 4666 
L 1569 4666 
L 2759 1491 
L 3956 4666 
L 4897 4666 
L 4897 0 
L 4281 0 
L 4281 4097 
L 3078 897 
L 2444 897 
L 1241 4097 
L 1241 0 
L 628 0 
L 628 4666 
z
" transform="scale(0.015625)"/>
       <path id="DejaVuSans-6c" d="M 603 4863 
L 1178 4863 
L 1178 0 
L 603 0 
L 603 4863 
z
" transform="scale(0.015625)"/>
       <path id="DejaVuSans-6f" d="M 1959 3097 
Q 1497 3097 1228 2736 
Q 959 2375 959 1747 
Q 959 1119 1226 758 
Q 1494 397 1959 397 
Q 2419 397 2687 759 
Q 2956 1122 2956 1747 
Q 2956 2369 2687 2733 
Q 2419 3097 1959 3097 
z
M 1959 3584 
Q 2709 3584 3137 3096 
Q 3566 2609 3566 1747 
Q 3566 888 3137 398 
Q 2709 -91 1959 -91 
Q 1206 -91 779 398 
Q 353 888 353 1747 
Q 353 2609 779 3096 
Q 1206 3584 1959 3584 
z
" transform="scale(0.015625)"/>
       <path id="DejaVuSans-29" d="M 513 4856 
L 1013 4856 
Q 1481 4119 1714 3412 
Q 1947 2706 1947 2009 
Q 1947 1309 1714 600 
Q 1481 -109 1013 -844 
L 513 -844 
Q 928 -128 1133 580 
Q 1338 1288 1338 2009 
Q 1338 2731 1133 3434 
Q 928 4138 513 4856 
z
" transform="scale(0.015625)"/>
      </defs>
      <use xlink:href="#DejaVuSans-54"/>
      <use xlink:href="#DejaVuSans-69" x="57.958984"/>
      <use xlink:href="#DejaVuSans-6d" x="85.742188"/>
      <use xlink:href="#DejaVuSans-65" x="183.154297"/>
      <use xlink:href="#DejaVuSans-73" x="244.677734"/>
      <use xlink:href="#DejaVuSans-74" x="296.777344"/>
      <use xlink:href="#DejaVuSans-65" x="335.986328"/>
      <use xlink:href="#DejaVuSans-70" x="397.509766"/>
      <use xlink:href="#DejaVuSans-73" x="460.986328"/>
      <use xlink:href="#DejaVuSans-20" x="513.085938"/>
      <use xlink:href="#DejaVuSans-28" x="544.873047"/>
      <use xlink:href="#DejaVuSans-69" x="583.886719"/>
      <use xlink:href="#DejaVuSans-6e" x="611.669922"/>
      <use xlink:href="#DejaVuSans-20" x="675.048828"/>
      <use xlink:href="#DejaVuSans-4d" x="706.835938"/>
      <use xlink:href="#DejaVuSans-69" x="793.115234"/>
      <use xlink:href="#DejaVuSans-6c" x="820.898438"/>
      <use xlink:href="#DejaVuSans-6c" x="848.681641"/>
      <use xlink:href="#DejaVuSans-69" x="876.464844"/>
      <use xlink:href="#DejaVuSans-6f" x="904.248047"/>
      <use xlink:href="#DejaVuSans-6e" x="965.429688"/>
      <use xlink:href="#DejaVuSans-29" x="1028.808594"/>
     </g>
    </g>
   </g>
   <g id="matplotlib.axis_2">
    <g id="ytick_1">
     <g id="line2d_8">
      <path d="M 77.13 291.737153 
L 447.84 291.737153 
" clip-path="url(#p351e0ed09a)" style="fill: none; stroke: #ffffff; stroke-linecap: round"/>
     </g>
     <g id="text_9">
      <!-- −5000 -->
      <g style="fill: #262626" transform="translate(30.417344 295.916294)scale(0.11 -0.11)">
       <defs>
        <path id="DejaVuSans-2212" d="M 678 2272 
L 4684 2272 
L 4684 1741 
L 678 1741 
L 678 2272 
z
" transform="scale(0.015625)"/>
       </defs>
       <use xlink:href="#DejaVuSans-2212"/>
       <use xlink:href="#DejaVuSans-35" x="83.789062"/>
       <use xlink:href="#DejaVuSans-30" x="147.412109"/>
       <use xlink:href="#DejaVuSans-30" x="211.035156"/>
       <use xlink:href="#DejaVuSans-30" x="274.658203"/>
      </g>
     </g>
    </g>
    <g id="ytick_2">
     <g id="line2d_9">
      <path d="M 77.13 246.146841 
L 447.84 246.146841 
" clip-path="url(#p351e0ed09a)" style="fill: none; stroke: #ffffff; stroke-linecap: round"/>
     </g>
     <g id="text_10">
      <!-- −4000 -->
      <g style="fill: #262626" transform="translate(30.417344 250.325981)scale(0.11 -0.11)">
       <defs>
        <path id="DejaVuSans-34" d="M 2419 4116 
L 825 1625 
L 2419 1625 
L 2419 4116 
z
M 2253 4666 
L 3047 4666 
L 3047 1625 
L 3713 1625 
L 3713 1100 
L 3047 1100 
L 3047 0 
L 2419 0 
L 2419 1100 
L 313 1100 
L 313 1709 
L 2253 4666 
z
" transform="scale(0.015625)"/>
       </defs>
       <use xlink:href="#DejaVuSans-2212"/>
       <use xlink:href="#DejaVuSans-34" x="83.789062"/>
       <use xlink:href="#DejaVuSans-30" x="147.412109"/>
       <use xlink:href="#DejaVuSans-30" x="211.035156"/>
       <use xlink:href="#DejaVuSans-30" x="274.658203"/>
      </g>
     </g>
    </g>
    <g id="ytick_3">
     <g id="line2d_10">
      <path d="M 77.13 200.556528 
L 447.84 200.556528 
" clip-path="url(#p351e0ed09a)" style="fill: none; stroke: #ffffff; stroke-linecap: round"/>
     </g>
     <g id="text_11">
      <!-- −3000 -->
      <g style="fill: #262626" transform="translate(30.417344 204.735669)scale(0.11 -0.11)">
       <use xlink:href="#DejaVuSans-2212"/>
       <use xlink:href="#DejaVuSans-33" x="83.789062"/>
       <use xlink:href="#DejaVuSans-30" x="147.412109"/>
       <use xlink:href="#DejaVuSans-30" x="211.035156"/>
       <use xlink:href="#DejaVuSans-30" x="274.658203"/>
      </g>
     </g>
    </g>
    <g id="ytick_4">
     <g id="line2d_11">
      <path d="M 77.13 154.966216 
L 447.84 154.966216 
" clip-path="url(#p351e0ed09a)" style="fill: none; stroke: #ffffff; stroke-linecap: round"/>
     </g>
     <g id="text_12">
      <!-- −2000 -->
      <g style="fill: #262626" transform="translate(30.417344 159.145356)scale(0.11 -0.11)">
       <use xlink:href="#DejaVuSans-2212"/>
       <use xlink:href="#DejaVuSans-32" x="83.789062"/>
       <use xlink:href="#DejaVuSans-30" x="147.412109"/>
       <use xlink:href="#DejaVuSans-30" x="211.035156"/>
       <use xlink:href="#DejaVuSans-30" x="274.658203"/>
      </g>
     </g>
    </g>
    <g id="ytick_5">
     <g id="line2d_12">
      <path d="M 77.13 109.375903 
L 447.84 109.375903 
" clip-path="url(#p351e0ed09a)" style="fill: none; stroke: #ffffff; stroke-linecap: round"/>
     </g>
     <g id="text_13">
      <!-- −1000 -->
      <g style="fill: #262626" transform="translate(30.417344 113.555044)scale(0.11 -0.11)">
       <use xlink:href="#DejaVuSans-2212"/>
       <use xlink:href="#DejaVuSans-31" x="83.789062"/>
       <use xlink:href="#DejaVuSans-30" x="147.412109"/>
       <use xlink:href="#DejaVuSans-30" x="211.035156"/>
       <use xlink:href="#DejaVuSans-30" x="274.658203"/>
      </g>
     </g>
    </g>
    <g id="ytick_6">
     <g id="line2d_13">
      <path d="M 77.13 63.785591 
L 447.84 63.785591 
" clip-path="url(#p351e0ed09a)" style="fill: none; stroke: #ffffff; stroke-linecap: round"/>
     </g>
     <g id="text_14">
      <!-- 0 -->
      <g style="fill: #262626" transform="translate(60.63125 67.964731)scale(0.11 -0.11)">
       <use xlink:href="#DejaVuSans-30"/>
      </g>
     </g>
    </g>
    <g id="text_15">
     <!-- Score -->
     <g style="fill: #262626" transform="translate(23.505781 181.813281)rotate(-90)scale(0.14 -0.14)">
      <defs>
       <path id="DejaVuSans-53" d="M 3425 4513 
L 3425 3897 
Q 3066 4069 2747 4153 
Q 2428 4238 2131 4238 
Q 1616 4238 1336 4038 
Q 1056 3838 1056 3469 
Q 1056 3159 1242 3001 
Q 1428 2844 1947 2747 
L 2328 2669 
Q 3034 2534 3370 2195 
Q 3706 1856 3706 1288 
Q 3706 609 3251 259 
Q 2797 -91 1919 -91 
Q 1588 -91 1214 -16 
Q 841 59 441 206 
L 441 856 
Q 825 641 1194 531 
Q 1563 422 1919 422 
Q 2459 422 2753 634 
Q 3047 847 3047 1241 
Q 3047 1584 2836 1778 
Q 2625 1972 2144 2069 
L 1759 2144 
Q 1053 2284 737 2584 
Q 422 2884 422 3419 
Q 422 4038 858 4394 
Q 1294 4750 2059 4750 
Q 2388 4750 2728 4690 
Q 3069 4631 3425 4513 
z
" transform="scale(0.015625)"/>
       <path id="DejaVuSans-63" d="M 3122 3366 
L 3122 2828 
Q 2878 2963 2633 3030 
Q 2388 3097 2138 3097 
Q 1578 3097 1268 2742 
Q 959 2388 959 1747 
Q 959 1106 1268 751 
Q 1578 397 2138 397 
Q 2388 397 2633 464 
Q 2878 531 3122 666 
L 3122 134 
Q 2881 22 2623 -34 
Q 2366 -91 2075 -91 
Q 1284 -91 818 406 
Q 353 903 353 1747 
Q 353 2603 823 3093 
Q 1294 3584 2113 3584 
Q 2378 3584 2631 3529 
Q 2884 3475 3122 3366 
z
" transform="scale(0.015625)"/>
       <path id="DejaVuSans-72" d="M 2631 2963 
Q 2534 3019 2420 3045 
Q 2306 3072 2169 3072 
Q 1681 3072 1420 2755 
Q 1159 2438 1159 1844 
L 1159 0 
L 581 0 
L 581 3500 
L 1159 3500 
L 1159 2956 
Q 1341 3275 1631 3429 
Q 1922 3584 2338 3584 
Q 2397 3584 2469 3576 
Q 2541 3569 2628 3553 
L 2631 2963 
z
" transform="scale(0.015625)"/>
      </defs>
      <use xlink:href="#DejaVuSans-53"/>
      <use xlink:href="#DejaVuSans-63" x="63.476562"/>
      <use xlink:href="#DejaVuSans-6f" x="118.457031"/>
      <use xlink:href="#DejaVuSans-72" x="179.638672"/>
      <use xlink:href="#DejaVuSans-65" x="218.501953"/>
     </g>
    </g>
   </g>
   <g id="PolyCollection_1">
    <defs>
     <path id="m787d4081f2" d="M 93.980455 -154.064894 
L 93.980455 -199.494111 
L 96.812464 -193.408796 
L 99.644473 -190.527043 
L 102.476482 -191.895126 
L 105.308491 -237.621894 
L 108.1405 -285.919517 
L 110.97251 -290.714861 
L 113.804519 -298.071674 
L 116.636528 -292.508395 
L 119.468537 -288.586711 
L 122.300546 -288.153552 
L 125.132555 -297.993444 
L 127.964565 -293.531776 
L 130.796574 -298.468194 
L 133.628583 -292.03266 
L 136.460592 -296.501105 
L 139.292601 -291.734646 
L 142.12461 -299.173399 
L 144.95662 -299.10205 
L 147.788629 -294.714798 
L 150.620638 -286.56712 
L 153.452647 -294.231762 
L 156.284656 -298.435532 
L 159.116665 -295.288544 
L 161.948675 -294.850349 
L 164.780684 -295.153634 
L 167.612693 -296.752446 
L 170.444702 -293.600949 
L 173.276711 -300.686839 
L 176.10872 -298.215426 
L 178.94073 -296.025638 
L 181.772739 -301.063687 
L 184.604748 -296.791639 
L 187.436757 -297.324531 
L 190.268766 -296.578104 
L 193.100775 -297.288284 
L 195.932785 -291.005553 
L 198.764794 -295.675466 
L 201.596803 -294.513916 
L 204.428812 -294.440823 
L 207.260821 -297.75881 
L 210.09283 -297.327983 
L 212.92484 -295.902208 
L 215.756849 -296.266139 
L 218.588858 -294.986814 
L 221.420867 -291.491069 
L 224.252876 -296.324588 
L 227.084885 -295.257634 
L 229.916895 -295.343109 
L 232.748904 -295.12677 
L 235.580913 -295.814247 
L 238.412922 -298.722536 
L 241.244931 -294.704937 
L 244.07694 -293.368426 
L 246.90895 -296.491632 
L 249.740959 -298.501856 
L 252.572968 -303.799091 
L 255.404977 -297.539708 
L 258.236986 -299.61674 
L 261.068995 -299.167207 
L 263.901005 -296.991986 
L 266.733014 -294.862318 
L 269.565023 -298.822508 
L 272.397032 -299.544684 
L 275.229041 -301.786673 
L 278.06105 -300.127351 
L 280.89306 -295.212418 
L 283.725069 -297.475849 
L 286.557078 -298.797836 
L 289.389087 -298.382368 
L 292.221096 -299.240858 
L 295.053105 -294.996754 
L 297.885115 -296.677859 
L 300.717124 -297.160301 
L 303.549133 -295.817899 
L 306.381142 -297.283541 
L 309.213151 -297.969777 
L 312.04516 -298.674071 
L 314.87717 -299.380647 
L 317.709179 -296.014211 
L 320.541188 -295.974288 
L 323.373197 -297.090649 
L 326.205206 -298.380384 
L 329.037215 -298.827489 
L 331.869225 -295.690016 
L 334.701234 -298.043456 
L 337.533243 -298.520988 
L 340.365252 -298.072681 
L 343.197261 -296.180635 
L 346.02927 -302.82816 
L 348.86128 -296.593692 
L 351.693289 -294.92809 
L 354.525298 -298.109776 
L 357.357307 -302.221637 
L 360.189316 -297.329133 
L 363.021325 -295.979269 
L 365.853335 -296.791461 
L 368.685344 -296.726234 
L 371.517353 -299.355795 
L 374.349362 -296.385467 
L 377.181371 -298.039832 
L 380.01338 -297.421765 
L 382.84539 -296.058205 
L 385.677399 -297.157594 
L 388.509408 -297.170801 
L 391.341417 -298.454171 
L 394.173426 -297.009383 
L 397.005435 -298.364607 
L 399.837445 -300.082037 
L 402.669454 -298.316119 
L 405.501463 -299.47763 
L 408.333472 -296.988735 
L 411.165481 -293.542894 
L 413.99749 -296.115629 
L 416.8295 -299.073543 
L 419.661509 -294.687129 
L 422.493518 -294.295486 
L 425.325527 -297.25464 
L 428.157536 -296.369624 
L 430.989545 -299.370855 
L 430.989545 -286.597158 
L 430.989545 -286.597158 
L 428.157536 -286.118519 
L 425.325527 -291.015595 
L 422.493518 -289.33588 
L 419.661509 -286.345588 
L 416.8295 -293.984446 
L 413.99749 -286.81986 
L 411.165481 -285.33014 
L 408.333472 -292.311938 
L 405.501463 -290.311233 
L 402.669454 -290.657527 
L 399.837445 -284.769018 
L 397.005435 -285.783662 
L 394.173426 -287.338405 
L 391.341417 -286.920612 
L 388.509408 -288.158103 
L 385.677399 -292.518591 
L 382.84539 -288.890613 
L 380.01338 -291.017984 
L 377.181371 -291.409774 
L 374.349362 -288.98867 
L 371.517353 -289.818617 
L 368.685344 -287.79552 
L 365.853335 -285.051658 
L 363.021325 -287.486544 
L 360.189316 -288.794589 
L 357.357307 -289.146891 
L 354.525298 -288.922215 
L 351.693289 -292.42179 
L 348.86128 -286.504571 
L 346.02927 -289.003504 
L 343.197261 -288.948446 
L 340.365252 -283.951847 
L 337.533243 -289.37318 
L 334.701234 -293.005406 
L 331.869225 -283.735989 
L 329.037215 -287.888077 
L 326.205206 -286.458308 
L 323.373197 -286.493871 
L 320.541188 -285.518077 
L 317.709179 -290.027068 
L 314.87717 -287.047667 
L 312.04516 -289.875027 
L 309.213151 -289.033696 
L 306.381142 -286.634479 
L 303.549133 -291.961117 
L 300.717124 -289.628961 
L 297.885115 -284.042242 
L 295.053105 -290.24706 
L 292.221096 -294.618841 
L 289.389087 -287.414325 
L 286.557078 -288.144546 
L 283.725069 -290.33301 
L 280.89306 -290.014525 
L 278.06105 -292.516248 
L 275.229041 -289.67491 
L 272.397032 -285.143093 
L 269.565023 -285.969639 
L 266.733014 -286.105508 
L 263.901005 -285.542353 
L 261.068995 -287.001196 
L 258.236986 -281.461063 
L 255.404977 -291.347047 
L 252.572968 -293.47551 
L 249.740959 -289.577036 
L 246.90895 -291.263772 
L 244.07694 -287.037627 
L 241.244931 -280.119813 
L 238.412922 -292.050622 
L 235.580913 -287.948869 
L 232.748904 -281.308306 
L 229.916895 -285.873176 
L 227.084885 -293.132522 
L 224.252876 -291.979147 
L 221.420867 -288.260587 
L 218.588858 -291.781525 
L 215.756849 -284.46083 
L 212.92484 -286.310275 
L 210.09283 -285.027758 
L 207.260821 -282.988117 
L 204.428812 -289.862411 
L 201.596803 -271.30979 
L 198.764794 -285.556672 
L 195.932785 -282.1807 
L 193.100775 -282.404183 
L 190.268766 -278.783857 
L 187.436757 -272.793902 
L 184.604748 -283.569643 
L 181.772739 -283.839901 
L 178.94073 -277.86845 
L 176.10872 -262.563948 
L 173.276711 -268.066112 
L 170.444702 -273.173356 
L 167.612693 -279.566502 
L 164.780684 -284.597039 
L 161.948675 -278.126787 
L 159.116665 -277.258421 
L 156.284656 -283.781116 
L 153.452647 -287.919341 
L 150.620638 -267.414351 
L 147.788629 -287.242086 
L 144.95662 -260.557721 
L 142.12461 -273.106997 
L 139.292601 -276.877671 
L 136.460592 -275.540054 
L 133.628583 -282.471979 
L 130.796574 -271.357295 
L 127.964565 -279.436908 
L 125.132555 -277.506236 
L 122.300546 -275.484829 
L 119.468537 -272.127025 
L 116.636528 -263.811791 
L 113.804519 -249.127858 
L 110.97251 -259.134813 
L 108.1405 -231.313542 
L 105.308491 -215.925185 
L 102.476482 -160.425711 
L 99.644473 -160.411136 
L 96.812464 -164.581801 
L 93.980455 -154.064894 
z
" style="stroke: #ffffff; stroke-opacity: 0.5"/>
    </defs>
    <g clip-path="url(#p351e0ed09a)">
     <use xlink:href="#m787d4081f2" x="0" y="345.6" style="fill: #4c72b0; fill-opacity: 0.5; stroke: #ffffff; stroke-opacity: 0.5"/>
    </g>
   </g>
   <g id="PolyCollection_2">
    <defs>
     <path id="m89c93f8b14" d="M 93.980455 -141.186686 
L 93.980455 -178.985309 
L 96.812464 -191.968655 
L 99.644473 -176.320137 
L 102.476482 -181.914575 
L 105.308491 -208.893159 
L 108.1405 -197.846448 
L 110.97251 -195.819442 
L 113.804519 -204.737195 
L 116.636528 -235.59263 
L 119.468537 -235.213906 
L 122.300546 -271.569321 
L 125.132555 -239.782003 
L 127.964565 -277.714783 
L 130.796574 -261.150916 
L 133.628583 -287.921703 
L 136.460592 -254.001898 
L 139.292601 -282.37582 
L 142.12461 -271.810339 
L 144.95662 -262.804248 
L 147.788629 -274.348883 
L 150.620638 -288.574315 
L 153.452647 -283.453478 
L 156.284656 -268.022349 
L 159.116665 -283.203188 
L 161.948675 -291.323465 
L 164.780684 -291.217701 
L 167.612693 -289.48692 
L 170.444702 -296.256158 
L 173.276711 -290.343419 
L 176.10872 -283.024658 
L 178.94073 -288.639889 
L 181.772739 -281.066767 
L 184.604748 -285.356269 
L 187.436757 -292.392322 
L 190.268766 -292.115286 
L 193.100775 -296.14114 
L 195.932785 -289.015513 
L 198.764794 -287.14725 
L 201.596803 -295.245388 
L 204.428812 -294.427971 
L 207.260821 -295.724098 
L 210.09283 -285.680005 
L 212.92484 -289.373657 
L 215.756849 -289.375229 
L 218.588858 -289.974673 
L 221.420867 -287.380172 
L 224.252876 -280.933146 
L 227.084885 -285.042163 
L 229.916895 -291.588589 
L 232.748904 -295.242338 
L 235.580913 -286.019868 
L 238.412922 -291.532552 
L 241.244931 -285.148232 
L 244.07694 -295.512341 
L 246.90895 -291.671226 
L 249.740959 -294.048949 
L 252.572968 -295.465075 
L 255.404977 -289.429378 
L 258.236986 -294.440883 
L 261.068995 -293.965497 
L 263.901005 -292.19813 
L 266.733014 -288.713375 
L 269.565023 -285.154109 
L 272.397032 -294.12252 
L 275.229041 -290.990933 
L 278.06105 -287.728817 
L 280.89306 -290.585735 
L 283.725069 -292.2237 
L 286.557078 -295.148134 
L 289.389087 -293.584477 
L 292.221096 -292.870564 
L 295.053105 -294.495291 
L 297.885115 -290.752467 
L 300.717124 -291.476307 
L 303.549133 -290.838129 
L 306.381142 -290.780718 
L 309.213151 -295.464736 
L 312.04516 -294.418204 
L 314.87717 -288.857714 
L 317.709179 -287.634309 
L 320.541188 -289.795107 
L 323.373197 -292.115 
L 326.205206 -287.342849 
L 329.037215 -293.386627 
L 331.869225 -290.800093 
L 334.701234 -288.579655 
L 337.533243 -290.992794 
L 340.365252 -287.809479 
L 343.197261 -293.074244 
L 346.02927 -290.141417 
L 348.86128 -295.022506 
L 351.693289 -291.518202 
L 354.525298 -297.318037 
L 357.357307 -290.459516 
L 360.189316 -290.312355 
L 363.021325 -293.108553 
L 365.853335 -289.822116 
L 368.685344 -297.089552 
L 371.517353 -294.102172 
L 374.349362 -290.406767 
L 377.181371 -294.43635 
L 380.01338 -292.719969 
L 382.84539 -291.758454 
L 385.677399 -293.790576 
L 388.509408 -295.775308 
L 391.341417 -290.215044 
L 394.173426 -293.545566 
L 397.005435 -293.184112 
L 399.837445 -289.419671 
L 402.669454 -290.643119 
L 405.501463 -284.218164 
L 408.333472 -291.702717 
L 411.165481 -289.26519 
L 413.99749 -287.823533 
L 416.8295 -291.90001 
L 419.661509 -290.594381 
L 422.493518 -289.913271 
L 425.325527 -295.992159 
L 428.157536 -294.750129 
L 430.989545 -291.186771 
L 430.989545 -278.580138 
L 430.989545 -278.580138 
L 428.157536 -284.747523 
L 425.325527 -274.322772 
L 422.493518 -267.559002 
L 419.661509 -268.419774 
L 416.8295 -270.132275 
L 413.99749 -277.440009 
L 411.165481 -266.578028 
L 408.333472 -281.909019 
L 405.501463 -277.568706 
L 402.669454 -278.424871 
L 399.837445 -269.50436 
L 397.005435 -266.824468 
L 394.173426 -281.104199 
L 391.341417 -276.312034 
L 388.509408 -277.686868 
L 385.677399 -270.809414 
L 382.84539 -270.985537 
L 380.01338 -280.904494 
L 377.181371 -265.024691 
L 374.349362 -275.557238 
L 371.517353 -271.619012 
L 368.685344 -278.253211 
L 365.853335 -280.083786 
L 363.021325 -262.689099 
L 360.189316 -281.47372 
L 357.357307 -277.91075 
L 354.525298 -272.124523 
L 351.693289 -275.457301 
L 348.86128 -282.005882 
L 346.02927 -283.689144 
L 343.197261 -279.29088 
L 340.365252 -268.918722 
L 337.533243 -275.127843 
L 334.701234 -275.540561 
L 331.869225 -277.022059 
L 329.037215 -271.745826 
L 326.205206 -269.582804 
L 323.373197 -279.308098 
L 320.541188 -273.664132 
L 317.709179 -280.690653 
L 314.87717 -271.162588 
L 312.04516 -275.942739 
L 309.213151 -278.804393 
L 306.381142 -278.50949 
L 303.549133 -268.556628 
L 300.717124 -275.460611 
L 297.885115 -277.341445 
L 295.053105 -279.897795 
L 292.221096 -280.025714 
L 289.389087 -274.016195 
L 286.557078 -268.702436 
L 283.725069 -277.559515 
L 280.89306 -268.2721 
L 278.06105 -277.910186 
L 275.229041 -263.288851 
L 272.397032 -281.886008 
L 269.565023 -271.48466 
L 266.733014 -267.713434 
L 263.901005 -271.241621 
L 261.068995 -277.44569 
L 258.236986 -276.863152 
L 255.404977 -279.367247 
L 252.572968 -277.533092 
L 249.740959 -285.700836 
L 246.90895 -267.785411 
L 244.07694 -275.485416 
L 241.244931 -264.134236 
L 238.412922 -276.228498 
L 235.580913 -277.203645 
L 232.748904 -254.030659 
L 229.916895 -275.882254 
L 227.084885 -270.218529 
L 224.252876 -272.190601 
L 221.420867 -257.669007 
L 218.588858 -261.150136 
L 215.756849 -261.54206 
L 212.92484 -255.290732 
L 210.09283 -268.001715 
L 207.260821 -268.307443 
L 204.428812 -258.334927 
L 201.596803 -271.132688 
L 198.764794 -264.963567 
L 195.932785 -258.180922 
L 193.100775 -266.399203 
L 190.268766 -270.074625 
L 187.436757 -250.582597 
L 184.604748 -250.109136 
L 181.772739 -233.47513 
L 178.94073 -275.407191 
L 176.10872 -259.959627 
L 173.276711 -242.82447 
L 170.444702 -263.832157 
L 167.612693 -257.508137 
L 164.780684 -251.140166 
L 161.948675 -272.960316 
L 159.116665 -254.098211 
L 156.284656 -238.388106 
L 153.452647 -236.257674 
L 150.620638 -196.767861 
L 147.788629 -228.113879 
L 144.95662 -228.703209 
L 142.12461 -229.37973 
L 139.292601 -227.574333 
L 136.460592 -218.76218 
L 133.628583 -229.841875 
L 130.796574 -204.720427 
L 127.964565 -205.749077 
L 125.132555 -189.855542 
L 122.300546 -193.480311 
L 119.468537 -210.781533 
L 116.636528 -201.411989 
L 113.804519 -195.785724 
L 110.97251 -184.846348 
L 108.1405 -181.078878 
L 105.308491 -195.58674 
L 102.476482 -166.115719 
L 99.644473 -162.493833 
L 96.812464 -160.769577 
L 93.980455 -141.186686 
z
" style="stroke: #ffffff; stroke-opacity: 0.5"/>
    </defs>
    <g clip-path="url(#p351e0ed09a)">
     <use xlink:href="#m89c93f8b14" x="0" y="345.6" style="fill: #dd8452; fill-opacity: 0.5; stroke: #ffffff; stroke-opacity: 0.5"/>
    </g>
   </g>
   <g id="PolyCollection_3">
    <defs>
     <path id="mce8fc81f90" d="M 93.980455 -155.186806 
L 93.980455 -185.627949 
L 96.812464 -187.507573 
L 99.644473 -183.499949 
L 102.476482 -186.912575 
L 105.308491 -200.506343 
L 108.1405 -222.48667 
L 110.97251 -214.86846 
L 113.804519 -198.234289 
L 116.636528 -218.40522 
L 119.468537 -229.968799 
L 122.300546 -218.71608 
L 125.132555 -228.469652 
L 127.964565 -252.279616 
L 130.796574 -258.581234 
L 133.628583 -261.089649 
L 136.460592 -244.151665 
L 139.292601 -255.784012 
L 142.12461 -255.616612 
L 144.95662 -274.522945 
L 147.788629 -271.222403 
L 150.620638 -272.324359 
L 153.452647 -273.698873 
L 156.284656 -254.727518 
L 159.116665 -254.781583 
L 161.948675 -260.943271 
L 164.780684 -272.328745 
L 167.612693 -270.670278 
L 170.444702 -276.633868 
L 173.276711 -284.20427 
L 176.10872 -257.514426 
L 178.94073 -261.229615 
L 181.772739 -263.599256 
L 184.604748 -277.0225 
L 187.436757 -272.832852 
L 190.268766 -273.013839 
L 193.100775 -283.726806 
L 195.932785 -258.481979 
L 198.764794 -275.789628 
L 201.596803 -279.813146 
L 204.428812 -276.998034 
L 207.260821 -274.387991 
L 210.09283 -272.29307 
L 212.92484 -287.699538 
L 215.756849 -285.317726 
L 218.588858 -285.953293 
L 221.420867 -278.89967 
L 224.252876 -288.839682 
L 227.084885 -291.746692 
L 229.916895 -296.68517 
L 232.748904 -286.500136 
L 235.580913 -279.748721 
L 238.412922 -290.862736 
L 241.244931 -295.271318 
L 244.07694 -282.509955 
L 246.90895 -283.018088 
L 249.740959 -281.995163 
L 252.572968 -288.66998 
L 255.404977 -289.225894 
L 258.236986 -285.900957 
L 261.068995 -286.187599 
L 263.901005 -287.513836 
L 266.733014 -289.192631 
L 269.565023 -287.535223 
L 272.397032 -287.69449 
L 275.229041 -293.927726 
L 278.06105 -282.36669 
L 280.89306 -276.768452 
L 283.725069 -291.899023 
L 286.557078 -286.166699 
L 289.389087 -279.737744 
L 292.221096 -279.787587 
L 295.053105 -282.770821 
L 297.885115 -283.124905 
L 300.717124 -273.59684 
L 303.549133 -278.859145 
L 306.381142 -288.193857 
L 309.213151 -282.786477 
L 312.04516 -280.321135 
L 314.87717 -270.421125 
L 317.709179 -287.398262 
L 320.541188 -287.780664 
L 323.373197 -285.685926 
L 326.205206 -289.4498 
L 329.037215 -291.051083 
L 331.869225 -287.365266 
L 334.701234 -278.183728 
L 337.533243 -272.782599 
L 340.365252 -285.229969 
L 343.197261 -291.398959 
L 346.02927 -284.246614 
L 348.86128 -281.946567 
L 351.693289 -286.82363 
L 354.525298 -288.717268 
L 357.357307 -287.293056 
L 360.189316 -282.223626 
L 363.021325 -269.867043 
L 365.853335 -283.543308 
L 368.685344 -287.803106 
L 371.517353 -286.240459 
L 374.349362 -284.924148 
L 377.181371 -282.610791 
L 380.01338 -291.029729 
L 382.84539 -281.222853 
L 385.677399 -284.162056 
L 388.509408 -284.097517 
L 391.341417 -285.498562 
L 394.173426 -278.340431 
L 397.005435 -280.442983 
L 399.837445 -286.950783 
L 402.669454 -275.833962 
L 405.501463 -279.572821 
L 408.333472 -292.711755 
L 411.165481 -290.046365 
L 413.99749 -279.972831 
L 416.8295 -283.365433 
L 419.661509 -279.418882 
L 422.493518 -283.338664 
L 425.325527 -286.526236 
L 428.157536 -283.222692 
L 430.989545 -280.928268 
L 430.989545 -271.394213 
L 430.989545 -271.394213 
L 428.157536 -264.184896 
L 425.325527 -261.695702 
L 422.493518 -254.975282 
L 419.661509 -264.471573 
L 416.8295 -269.180055 
L 413.99749 -270.219035 
L 411.165481 -267.745838 
L 408.333472 -256.039191 
L 405.501463 -251.408531 
L 402.669454 -256.565102 
L 399.837445 -256.727467 
L 397.005435 -255.448878 
L 394.173426 -234.195482 
L 391.341417 -253.543251 
L 388.509408 -248.059481 
L 385.677399 -245.905172 
L 382.84539 -271.027013 
L 380.01338 -264.502262 
L 377.181371 -260.011568 
L 374.349362 -264.905271 
L 371.517353 -252.451718 
L 368.685344 -256.822529 
L 365.853335 -241.454246 
L 363.021325 -248.371943 
L 360.189316 -267.016447 
L 357.357307 -247.086297 
L 354.525298 -250.153487 
L 351.693289 -263.526294 
L 348.86128 -244.959303 
L 346.02927 -258.308723 
L 343.197261 -268.054786 
L 340.365252 -246.861053 
L 337.533243 -250.523059 
L 334.701234 -267.263146 
L 331.869225 -245.431975 
L 329.037215 -252.818848 
L 326.205206 -251.674022 
L 323.373197 -228.41856 
L 320.541188 -241.25051 
L 317.709179 -253.645646 
L 314.87717 -244.631337 
L 312.04516 -245.748194 
L 309.213151 -253.036423 
L 306.381142 -247.261766 
L 303.549133 -232.059706 
L 300.717124 -260.512357 
L 297.885115 -250.982379 
L 295.053105 -242.158053 
L 292.221096 -235.452027 
L 289.389087 -217.771114 
L 286.557078 -260.030749 
L 283.725069 -250.590039 
L 280.89306 -242.452201 
L 278.06105 -251.192128 
L 275.229041 -264.076639 
L 272.397032 -247.493965 
L 269.565023 -247.483414 
L 266.733014 -242.260269 
L 263.901005 -265.021394 
L 261.068995 -260.311665 
L 258.236986 -257.573313 
L 255.404977 -256.662386 
L 252.572968 -247.948181 
L 249.740959 -257.535722 
L 246.90895 -244.590996 
L 244.07694 -233.765649 
L 241.244931 -244.757773 
L 238.412922 -260.846208 
L 235.580913 -246.560051 
L 232.748904 -267.506503 
L 229.916895 -247.883826 
L 227.084885 -243.528753 
L 224.252876 -248.725974 
L 221.420867 -249.819197 
L 218.588858 -248.730233 
L 215.756849 -222.798663 
L 212.92484 -253.57703 
L 210.09283 -257.747964 
L 207.260821 -242.038535 
L 204.428812 -235.028142 
L 201.596803 -219.624584 
L 198.764794 -240.33653 
L 195.932785 -242.786102 
L 193.100775 -252.559224 
L 190.268766 -250.419507 
L 187.436757 -222.581954 
L 184.604748 -223.150447 
L 181.772739 -247.47197 
L 178.94073 -201.558976 
L 176.10872 -245.872925 
L 173.276711 -240.262345 
L 170.444702 -246.23292 
L 167.612693 -204.793993 
L 164.780684 -201.241183 
L 161.948675 -214.879667 
L 159.116665 -225.018169 
L 156.284656 -226.171293 
L 153.452647 -212.91351 
L 150.620638 -197.673409 
L 147.788629 -226.720532 
L 144.95662 -181.223355 
L 142.12461 -188.39054 
L 139.292601 -199.972209 
L 136.460592 -209.770362 
L 133.628583 -207.031818 
L 130.796574 -210.704037 
L 127.964565 -204.213416 
L 125.132555 -197.658939 
L 122.300546 -195.464976 
L 119.468537 -182.306562 
L 116.636528 -188.966974 
L 113.804519 -178.366421 
L 110.97251 -192.404451 
L 108.1405 -195.820178 
L 105.308491 -180.410434 
L 102.476482 -167.348343 
L 99.644473 -159.074541 
L 96.812464 -152.379574 
L 93.980455 -155.186806 
z
" style="stroke: #ffffff; stroke-opacity: 0.5"/>
    </defs>
    <g clip-path="url(#p351e0ed09a)">
     <use xlink:href="#mce8fc81f90" x="0" y="345.6" style="fill: #55a868; fill-opacity: 0.5; stroke: #ffffff; stroke-opacity: 0.5"/>
    </g>
   </g>
   <g id="PolyCollection_4">
    <defs>
     <path id="ma3386b71b1" d="M 93.980455 -156.148889 
L 93.980455 -178.846166 
L 96.812464 -180.601063 
L 99.644473 -181.912623 
L 102.476482 -186.629955 
L 105.308491 -178.780527 
L 108.1405 -197.040796 
L 110.97251 -200.140249 
L 113.804519 -209.129974 
L 116.636528 -224.001431 
L 119.468537 -211.921287 
L 122.300546 -214.582448 
L 125.132555 -216.250135 
L 127.964565 -211.304925 
L 130.796574 -213.382847 
L 133.628583 -215.259074 
L 136.460592 -236.639169 
L 139.292601 -223.978784 
L 142.12461 -256.442206 
L 144.95662 -231.922375 
L 147.788629 -224.113986 
L 150.620638 -241.481335 
L 153.452647 -244.603265 
L 156.284656 -241.706584 
L 159.116665 -241.55994 
L 161.948675 -231.368554 
L 164.780684 -239.467058 
L 167.612693 -273.766684 
L 170.444702 -257.476392 
L 173.276711 -230.25452 
L 176.10872 -235.436526 
L 178.94073 -259.930189 
L 181.772739 -242.222723 
L 184.604748 -225.180327 
L 187.436757 -257.8369 
L 190.268766 -260.75446 
L 193.100775 -245.970853 
L 195.932785 -229.137543 
L 198.764794 -259.615912 
L 201.596803 -234.024352 
L 204.428812 -231.834342 
L 207.260821 -253.124294 
L 210.09283 -262.846653 
L 212.92484 -267.399396 
L 215.756849 -272.684811 
L 218.588858 -273.019394 
L 221.420867 -269.845828 
L 224.252876 -273.733138 
L 227.084885 -262.736649 
L 229.916895 -271.476167 
L 232.748904 -269.709903 
L 235.580913 -258.391826 
L 238.412922 -273.654796 
L 241.244931 -250.634364 
L 244.07694 -263.606339 
L 246.90895 -262.297527 
L 249.740959 -282.629527 
L 252.572968 -265.366957 
L 255.404977 -280.694188 
L 258.236986 -260.199192 
L 261.068995 -256.860908 
L 263.901005 -277.624818 
L 266.733014 -268.508505 
L 269.565023 -268.019641 
L 272.397032 -261.869569 
L 275.229041 -277.274904 
L 278.06105 -256.903199 
L 280.89306 -251.670535 
L 283.725069 -251.585673 
L 286.557078 -260.631729 
L 289.389087 -269.67016 
L 292.221096 -269.243443 
L 295.053105 -265.263087 
L 297.885115 -249.733241 
L 300.717124 -257.279045 
L 303.549133 -267.065079 
L 306.381142 -260.55498 
L 309.213151 -272.155424 
L 312.04516 -258.186747 
L 314.87717 -273.143942 
L 317.709179 -269.96065 
L 320.541188 -268.517871 
L 323.373197 -278.415916 
L 326.205206 -250.347098 
L 329.037215 -254.548094 
L 331.869225 -272.145408 
L 334.701234 -287.908273 
L 337.533243 -258.999839 
L 340.365252 -265.04029 
L 343.197261 -278.538098 
L 346.02927 -256.44545 
L 348.86128 -259.999911 
L 351.693289 -268.528832 
L 354.525298 -271.922082 
L 357.357307 -264.980538 
L 360.189316 -264.848276 
L 363.021325 -288.485694 
L 365.853335 -267.16496 
L 368.685344 -269.226445 
L 371.517353 -280.849447 
L 374.349362 -269.552381 
L 377.181371 -268.692567 
L 380.01338 -266.265201 
L 382.84539 -269.532191 
L 385.677399 -268.007068 
L 388.509408 -271.972441 
L 391.341417 -269.272982 
L 394.173426 -280.251369 
L 397.005435 -279.228715 
L 399.837445 -267.282724 
L 402.669454 -274.555778 
L 405.501463 -273.972005 
L 408.333472 -270.321672 
L 411.165481 -269.625677 
L 413.99749 -276.391483 
L 416.8295 -276.307895 
L 419.661509 -276.483328 
L 422.493518 -263.691018 
L 425.325527 -271.586931 
L 428.157536 -269.849812 
L 430.989545 -269.841771 
L 430.989545 -255.173096 
L 430.989545 -255.173096 
L 428.157536 -249.855614 
L 425.325527 -254.554204 
L 422.493518 -257.119122 
L 419.661509 -232.36312 
L 416.8295 -244.967088 
L 413.99749 -238.599424 
L 411.165481 -251.767423 
L 408.333472 -245.536107 
L 405.501463 -242.315255 
L 402.669454 -252.243021 
L 399.837445 -237.496009 
L 397.005435 -227.43836 
L 394.173426 -223.297002 
L 391.341417 -212.222686 
L 388.509408 -248.328962 
L 385.677399 -244.050766 
L 382.84539 -249.437411 
L 380.01338 -238.679471 
L 377.181371 -245.976898 
L 374.349362 -253.254402 
L 371.517353 -238.118844 
L 368.685344 -226.843127 
L 365.853335 -236.481474 
L 363.021325 -229.615633 
L 360.189316 -238.972798 
L 357.357307 -227.600923 
L 354.525298 -249.717658 
L 351.693289 -230.864676 
L 348.86128 -207.018554 
L 346.02927 -232.551279 
L 343.197261 -229.803608 
L 340.365252 -222.766943 
L 337.533243 -229.700386 
L 334.701234 -235.211599 
L 331.869225 -220.963501 
L 329.037215 -212.517486 
L 326.205206 -225.125546 
L 323.373197 -220.907378 
L 320.541188 -222.556898 
L 317.709179 -223.936592 
L 314.87717 -233.270734 
L 312.04516 -210.202369 
L 309.213151 -217.29853 
L 306.381142 -223.373884 
L 303.549133 -221.901794 
L 300.717124 -199.578138 
L 297.885115 -219.385927 
L 295.053105 -212.827629 
L 292.221096 -241.653103 
L 289.389087 -230.139419 
L 286.557078 -226.983427 
L 283.725069 -229.46218 
L 280.89306 -218.934585 
L 278.06105 -224.104769 
L 275.229041 -217.329267 
L 272.397032 -220.132524 
L 269.565023 -213.848355 
L 266.733014 -211.321521 
L 263.901005 -225.8532 
L 261.068995 -209.07899 
L 258.236986 -231.599401 
L 255.404977 -197.571055 
L 252.572968 -225.776304 
L 249.740959 -208.801233 
L 246.90895 -191.978591 
L 244.07694 -211.790148 
L 241.244931 -208.104447 
L 238.412922 -185.792457 
L 235.580913 -192.841711 
L 232.748904 -200.848407 
L 229.916895 -205.111576 
L 227.084885 -164.424265 
L 224.252876 -226.267943 
L 221.420867 -218.224826 
L 218.588858 -188.923083 
L 215.756849 -218.853366 
L 212.92484 -199.222032 
L 210.09283 -190.742886 
L 207.260821 -202.303773 
L 204.428812 -207.748623 
L 201.596803 -196.344642 
L 198.764794 -123.753803 
L 195.932785 -206.700784 
L 193.100775 -210.253915 
L 190.268766 -200.268117 
L 187.436757 -223.040818 
L 184.604748 -197.199549 
L 181.772739 -191.991631 
L 178.94073 -198.997651 
L 176.10872 -186.548808 
L 173.276711 -201.063907 
L 170.444702 -189.802482 
L 167.612693 -189.286943 
L 164.780684 -199.023856 
L 161.948675 -188.870613 
L 159.116665 -201.487076 
L 156.284656 -187.478539 
L 153.452647 -196.797007 
L 150.620638 -188.680625 
L 147.788629 -92.079011 
L 144.95662 -192.047533 
L 142.12461 -189.982855 
L 139.292601 -185.900371 
L 136.460592 -196.979385 
L 133.628583 -194.714988 
L 130.796574 -190.170388 
L 127.964565 -152.643305 
L 125.132555 -196.585146 
L 122.300546 -190.79325 
L 119.468537 -185.287295 
L 116.636528 -184.953516 
L 113.804519 -182.047856 
L 110.97251 -180.523522 
L 108.1405 -182.88768 
L 105.308491 -170.082243 
L 102.476482 -166.193054 
L 99.644473 -152.305696 
L 96.812464 -156.765182 
L 93.980455 -156.148889 
z
" style="stroke: #ffffff; stroke-opacity: 0.5"/>
    </defs>
    <g clip-path="url(#p351e0ed09a)">
     <use xlink:href="#ma3386b71b1" x="0" y="345.6" style="fill: #c44e52; fill-opacity: 0.5; stroke: #ffffff; stroke-opacity: 0.5"/>
    </g>
   </g>
   <g id="PolyCollection_5">
    <defs>
     <path id="mbfd9762447" d="M 93.980455 -160.840463 
L 93.980455 -192.8953 
L 96.812464 -180.151386 
L 99.644473 -198.277776 
L 102.476482 -187.195781 
L 105.308491 -182.749679 
L 108.1405 -192.913411 
L 110.97251 -193.688387 
L 113.804519 -194.891353 
L 116.636528 -200.036798 
L 119.468537 -203.629453 
L 122.300546 -204.694675 
L 125.132555 -195.084779 
L 127.964565 -207.808391 
L 130.796574 -193.628341 
L 133.628583 -202.206667 
L 136.460592 -196.166588 
L 139.292601 -203.963359 
L 142.12461 -197.959083 
L 144.95662 -192.831194 
L 147.788629 -207.228826 
L 150.620638 -210.555189 
L 153.452647 -203.834152 
L 156.284656 -193.940804 
L 159.116665 -197.093438 
L 161.948675 -201.106568 
L 164.780684 -191.408116 
L 167.612693 -205.478213 
L 170.444702 -198.170626 
L 173.276711 -197.659225 
L 176.10872 -224.366084 
L 178.94073 -199.414039 
L 181.772739 -218.808115 
L 184.604748 -202.630835 
L 187.436757 -210.487959 
L 190.268766 -216.581118 
L 193.100775 -218.929607 
L 195.932785 -210.423231 
L 198.764794 -215.070369 
L 201.596803 -203.995915 
L 204.428812 -203.445508 
L 207.260821 -208.190291 
L 210.09283 -207.338242 
L 212.92484 -202.941578 
L 215.756849 -199.054688 
L 218.588858 -204.015091 
L 221.420867 -190.432862 
L 224.252876 -197.42966 
L 227.084885 -194.891493 
L 229.916895 -201.731874 
L 232.748904 -192.215197 
L 235.580913 -226.35003 
L 238.412922 -225.087889 
L 241.244931 -202.518031 
L 244.07694 -200.70682 
L 246.90895 -196.101154 
L 249.740959 -186.699317 
L 252.572968 -201.208229 
L 255.404977 -203.474682 
L 258.236986 -217.884367 
L 261.068995 -201.421702 
L 263.901005 -200.616033 
L 266.733014 -196.587856 
L 269.565023 -212.567397 
L 272.397032 -204.233054 
L 275.229041 -196.48667 
L 278.06105 -190.168514 
L 280.89306 -196.167888 
L 283.725069 -196.202934 
L 286.557078 -203.359043 
L 289.389087 -202.044735 
L 292.221096 -200.547318 
L 295.053105 -193.905757 
L 297.885115 -206.422425 
L 300.717124 -205.649708 
L 303.549133 -230.838562 
L 306.381142 -192.22452 
L 309.213151 -202.977959 
L 312.04516 -223.553022 
L 314.87717 -202.372564 
L 317.709179 -197.028082 
L 320.541188 -198.350786 
L 323.373197 -201.347947 
L 326.205206 -199.84687 
L 329.037215 -220.64918 
L 331.869225 -209.797158 
L 334.701234 -200.324308 
L 337.533243 -200.593437 
L 340.365252 -221.570066 
L 343.197261 -198.606403 
L 346.02927 -199.313933 
L 348.86128 -198.006986 
L 351.693289 -213.744747 
L 354.525298 -203.811035 
L 357.357307 -199.578568 
L 360.189316 -204.782521 
L 363.021325 -204.633819 
L 365.853335 -205.783026 
L 368.685344 -213.454611 
L 371.517353 -195.984741 
L 374.349362 -198.32295 
L 377.181371 -201.896987 
L 380.01338 -203.993225 
L 382.84539 -205.914968 
L 385.677399 -203.734637 
L 388.509408 -205.315147 
L 391.341417 -197.467444 
L 394.173426 -197.814221 
L 397.005435 -195.483888 
L 399.837445 -206.229804 
L 402.669454 -200.848425 
L 405.501463 -204.251667 
L 408.333472 -199.310863 
L 411.165481 -192.190908 
L 413.99749 -196.645415 
L 416.8295 -203.934786 
L 419.661509 -200.272048 
L 422.493518 -202.65202 
L 425.325527 -199.166869 
L 428.157536 -195.29798 
L 430.989545 -193.273659 
L 430.989545 -176.595986 
L 430.989545 -176.595986 
L 428.157536 -179.911238 
L 425.325527 -179.487116 
L 422.493518 -174.364723 
L 419.661509 -156.156963 
L 416.8295 -181.813788 
L 413.99749 -162.019139 
L 411.165481 -153.50545 
L 408.333472 -171.029692 
L 405.501463 -162.463483 
L 402.669454 -177.032263 
L 399.837445 -187.065157 
L 397.005435 -171.580255 
L 394.173426 -188.841018 
L 391.341417 -181.508603 
L 388.509408 -167.86781 
L 385.677399 -188.366414 
L 382.84539 -189.186017 
L 380.01338 -177.552479 
L 377.181371 -175.071674 
L 374.349362 -182.040333 
L 371.517353 -163.917312 
L 368.685344 -179.672159 
L 365.853335 -152.656527 
L 363.021325 -186.449291 
L 360.189316 -123.186149 
L 357.357307 -188.469673 
L 354.525298 -165.883255 
L 351.693289 -187.372747 
L 348.86128 -147.780168 
L 346.02927 -169.945205 
L 343.197261 -152.276865 
L 340.365252 -197.877753 
L 337.533243 -174.989889 
L 334.701234 -153.559944 
L 331.869225 -170.308512 
L 329.037215 -182.819882 
L 326.205206 -189.554107 
L 323.373197 -179.531085 
L 320.541188 -190.414716 
L 317.709179 -99.794101 
L 314.87717 -164.061439 
L 312.04516 -166.35741 
L 309.213151 -91.176102 
L 306.381142 -126.090236 
L 303.549133 -185.337092 
L 300.717124 -173.317155 
L 297.885115 -154.268858 
L 295.053105 -170.046474 
L 292.221096 -165.07487 
L 289.389087 -173.586869 
L 286.557078 -187.952783 
L 283.725069 -83.337758 
L 280.89306 -149.787621 
L 278.06105 -159.051601 
L 275.229041 -187.380759 
L 272.397032 -81.362622 
L 269.565023 -182.487906 
L 266.733014 -118.18298 
L 263.901005 -162.951027 
L 261.068995 -177.218166 
L 258.236986 -133.607776 
L 255.404977 -174.987069 
L 252.572968 -72.758834 
L 249.740959 -160.909947 
L 246.90895 -190.137782 
L 244.07694 -87.181608 
L 241.244931 -184.331942 
L 238.412922 -181.476175 
L 235.580913 -188.16849 
L 232.748904 -134.736592 
L 229.916895 -72.451036 
L 227.084885 -153.867946 
L 224.252876 -188.380695 
L 221.420867 -72.163823 
L 218.588858 -168.292118 
L 215.756849 -157.565165 
L 212.92484 -180.827895 
L 210.09283 -180.979786 
L 207.260821 -142.073504 
L 204.428812 -184.21894 
L 201.596803 -142.603772 
L 198.764794 -174.233517 
L 195.932785 -185.342533 
L 193.100775 -167.995572 
L 190.268766 -77.474234 
L 187.436757 -154.032584 
L 184.604748 -116.630251 
L 181.772739 -185.234273 
L 178.94073 -184.808222 
L 176.10872 -117.441401 
L 173.276711 -159.773916 
L 170.444702 -185.299513 
L 167.612693 -175.848696 
L 164.780684 -171.28086 
L 161.948675 -167.626783 
L 159.116665 -176.926621 
L 156.284656 -177.158458 
L 153.452647 -176.267184 
L 150.620638 -188.15167 
L 147.788629 -62.980909 
L 144.95662 -158.992893 
L 142.12461 -143.27523 
L 139.292601 -190.252822 
L 136.460592 -173.986037 
L 133.628583 -181.247227 
L 130.796574 -185.552024 
L 127.964565 -186.734962 
L 125.132555 -65.948707 
L 122.300546 -185.035011 
L 119.468537 -177.57645 
L 116.636528 -138.573881 
L 113.804519 -158.478687 
L 110.97251 -138.051945 
L 108.1405 -126.719914 
L 105.308491 -159.611005 
L 102.476482 -169.880207 
L 99.644473 -147.139379 
L 96.812464 -144.165433 
L 93.980455 -160.840463 
z
" style="stroke: #ffffff; stroke-opacity: 0.5"/>
    </defs>
    <g clip-path="url(#p351e0ed09a)">
     <use xlink:href="#mbfd9762447" x="0" y="345.6" style="fill: #8172b3; fill-opacity: 0.5; stroke: #ffffff; stroke-opacity: 0.5"/>
    </g>
   </g>
   <g id="line2d_14">
    <path d="M 93.980455 168.770969 
L 96.812464 168.320658 
L 99.644473 168.02001 
L 102.476482 171.317298 
L 105.308491 119.026137 
L 108.1405 89.1779 
L 110.97251 67.832848 
L 113.804519 67.440156 
L 116.636528 67.374551 
L 119.468537 67.139447 
L 122.300546 62.136461 
L 125.132555 59.718115 
L 127.964565 60.993694 
L 130.796574 59.496441 
L 133.628583 57.906695 
L 136.460592 58.352535 
L 139.292601 59.494584 
L 142.12461 58.459077 
L 144.95662 58.638452 
L 147.788629 56.113537 
L 150.620638 65.63768 
L 153.452647 54.812617 
L 156.284656 56.285922 
L 159.116665 59.909077 
L 161.948675 59.971062 
L 164.780684 56.049784 
L 167.612693 55.94371 
L 170.444702 59.853561 
L 173.276711 57.823106 
L 176.10872 58.645094 
L 178.94073 55.960624 
L 181.772739 52.932231 
L 184.604748 55.332219 
L 187.436757 62.59048 
L 190.268766 55.479099 
L 193.100775 55.774903 
L 195.932785 57.424069 
L 198.764794 54.266381 
L 201.596803 61.076976 
L 204.428812 53.094242 
L 207.260821 52.066253 
L 210.09283 53.005472 
L 212.92484 55.892908 
L 215.756849 54.17695 
L 218.588858 52.551284 
L 221.420867 55.950607 
L 224.252876 51.872176 
L 227.084885 51.687283 
L 229.916895 54.179752 
L 232.748904 56.386179 
L 235.580913 52.816157 
L 238.412922 51.100288 
L 241.244931 55.511624 
L 244.07694 54.720225 
L 246.90895 51.594714 
L 249.740959 52.004445 
L 252.572968 48.108014 
L 255.404977 51.469062 
L 258.236986 53.363928 
L 261.068995 51.863854 
L 263.901005 53.888795 
L 266.733014 54.597356 
L 269.565023 51.981684 
L 272.397032 52.885454 
L 275.229041 50.468446 
L 278.06105 49.312555 
L 280.89306 53.721657 
L 283.725069 51.862437 
L 286.557078 52.401245 
L 289.389087 52.440468 
L 292.221096 48.913009 
L 295.053105 52.66753 
L 297.885115 54.925353 
L 300.717124 51.115349 
L 303.549133 51.995517 
L 306.381142 51.419836 
L 309.213151 51.731309 
L 312.04516 51.926792 
L 314.87717 52.961403 
L 317.709179 51.857713 
L 320.541188 55.134377 
L 323.373197 52.510133 
L 326.205206 51.427195 
L 329.037215 52.303952 
L 331.869225 54.772534 
L 334.701234 49.421245 
L 337.533243 51.788694 
L 340.365252 51.431677 
L 343.197261 52.574091 
L 346.02927 50.184076 
L 348.86128 52.551375 
L 351.693289 52.20225 
L 354.525298 52.130449 
L 357.357307 49.344592 
L 360.189316 53.52382 
L 363.021325 53.005705 
L 365.853335 53.011495 
L 368.685344 53.541595 
L 371.517353 51.417924 
L 374.349362 53.090286 
L 377.181371 51.652782 
L 380.01338 51.333782 
L 382.84539 51.731053 
L 385.677399 50.941866 
L 388.509408 52.38082 
L 391.341417 50.605209 
L 394.173426 52.455151 
L 397.005435 53.936494 
L 399.837445 52.485062 
L 402.669454 51.956452 
L 405.501463 52.26152 
L 408.333472 51.199205 
L 411.165481 55.810877 
L 413.99749 53.05042 
L 416.8295 48.956518 
L 419.661509 54.194185 
L 422.493518 53.584908 
L 425.325527 51.605199 
L 428.157536 52.881566 
L 430.989545 53.511377 
" clip-path="url(#p351e0ed09a)" style="fill: none; stroke: #4c72b0; stroke-width: 3; stroke-linecap: round"/>
   </g>
   <g id="line2d_15">
    <path d="M 93.980455 180.697686 
L 96.812464 164.192522 
L 99.644473 176.951565 
L 102.476482 173.733383 
L 105.308491 144.558953 
L 108.1405 155.425785 
L 110.97251 154.706484 
L 113.804519 146.808176 
L 116.636528 122.280282 
L 119.468537 122.912689 
L 122.300546 121.444987 
L 125.132555 132.40054 
L 127.964565 110.414367 
L 130.796574 109.504734 
L 133.628583 99.701849 
L 136.460592 110.365403 
L 139.292601 85.385694 
L 142.12461 96.219937 
L 144.95662 95.924957 
L 147.788629 93.462221 
L 150.620638 90.294593 
L 153.452647 84.078306 
L 156.284656 88.213837 
L 159.116665 74.280465 
L 161.948675 64.941953 
L 164.780684 71.195555 
L 167.612693 76.380848 
L 170.444702 65.74757 
L 173.276711 87.586636 
L 176.10872 73.846834 
L 178.94073 63.221566 
L 181.772739 88.112562 
L 184.604748 77.897322 
L 187.436757 68.281454 
L 190.268766 66.082536 
L 193.100775 63.633282 
L 195.932785 73.244008 
L 198.764794 72.222459 
L 201.596803 62.356323 
L 204.428812 66.517352 
L 207.260821 64.119323 
L 210.09283 68.853525 
L 212.92484 72.633314 
L 215.756849 69.418356 
L 218.588858 71.648753 
L 221.420867 67.243415 
L 224.252876 69.182213 
L 227.084885 69.270894 
L 229.916895 61.276241 
L 232.748904 63.913321 
L 235.580913 65.52705 
L 238.412922 62.266487 
L 241.244931 66.236779 
L 244.07694 63.914011 
L 246.90895 69.062872 
L 249.740959 56.665765 
L 252.572968 58.787992 
L 255.404977 61.239897 
L 258.236986 58.012826 
L 261.068995 57.997301 
L 263.901005 64.693557 
L 266.733014 67.509748 
L 269.565023 64.277917 
L 272.397032 58.842731 
L 275.229041 64.651846 
L 278.06105 63.129098 
L 280.89306 61.642542 
L 283.725069 59.921805 
L 286.557078 62.756955 
L 289.389087 59.852113 
L 292.221096 59.586715 
L 295.053105 57.685721 
L 297.885115 60.243568 
L 300.717124 61.733701 
L 303.549133 65.923139 
L 306.381142 61.203897 
L 309.213151 56.247171 
L 312.04516 59.181805 
L 314.87717 64.469193 
L 317.709179 60.770075 
L 320.541188 63.926397 
L 323.373197 61.06354 
L 326.205206 63.539053 
L 329.037215 64.542481 
L 331.869225 61.837699 
L 334.701234 61.002612 
L 337.533243 60.396863 
L 340.365252 64.448581 
L 343.197261 59.849505 
L 346.02927 59.191954 
L 348.86128 57.864363 
L 351.693289 62.494107 
L 354.525298 65.508764 
L 357.357307 59.584314 
L 360.189316 59.596585 
L 363.021325 63.283743 
L 365.853335 60.572439 
L 368.685344 58.722407 
L 371.517353 58.781205 
L 374.349362 59.612075 
L 377.181371 61.686751 
L 380.01338 58.957963 
L 382.84539 63.175589 
L 385.677399 60.070434 
L 388.509408 60.718804 
L 391.341417 61.536592 
L 394.173426 58.821281 
L 397.005435 63.876659 
L 399.837445 65.387663 
L 402.669454 59.977838 
L 405.501463 63.930127 
L 408.333472 59.991186 
L 411.165481 64.687674 
L 413.99749 61.783667 
L 416.8295 64.030183 
L 419.661509 63.002738 
L 422.493518 68.130601 
L 425.325527 62.154899 
L 428.157536 56.827946 
L 430.989545 61.42448 
" clip-path="url(#p351e0ed09a)" style="fill: none; stroke: #dd8452; stroke-width: 3; stroke-linecap: round"/>
   </g>
   <g id="line2d_16">
    <path d="M 93.980455 172.231503 
L 96.812464 178.999331 
L 99.644473 175.964958 
L 102.476482 167.43853 
L 105.308491 154.715402 
L 108.1405 139.994088 
L 110.97251 143.486459 
L 113.804519 155.585523 
L 116.636528 143.465877 
L 119.468537 140.722726 
L 122.300546 141.490079 
L 125.132555 133.059206 
L 127.964565 121.622812 
L 130.796574 113.652465 
L 133.628583 119.070297 
L 136.460592 116.571873 
L 139.292601 112.432657 
L 142.12461 114.845985 
L 144.95662 130.39711 
L 147.788629 102.90342 
L 150.620638 114.368282 
L 153.452647 99.993844 
L 156.284656 104.893074 
L 159.116665 104.266771 
L 161.948675 109.829365 
L 164.780684 104.5736 
L 167.612693 104.843434 
L 170.444702 81.761086 
L 173.276711 89.311789 
L 176.10872 94.330334 
L 178.94073 110.546868 
L 181.772739 89.140037 
L 184.604748 99.320385 
L 187.436757 91.885901 
L 190.268766 81.190262 
L 193.100775 83.362396 
L 195.932785 96.070127 
L 198.764794 80.163326 
L 201.596803 87.094099 
L 204.428812 84.205071 
L 207.260821 86.074622 
L 210.09283 82.981843 
L 212.92484 76.372397 
L 215.756849 78.751525 
L 218.588858 80.135856 
L 221.420867 78.9264 
L 224.252876 84.514298 
L 227.084885 83.047352 
L 229.916895 78.017997 
L 232.748904 70.571109 
L 235.580913 85.440512 
L 238.412922 64.943606 
L 241.244931 72.968647 
L 244.07694 78.314822 
L 246.90895 76.320699 
L 249.740959 70.031431 
L 252.572968 80.483531 
L 255.404977 75.734333 
L 258.236986 75.655912 
L 261.068995 69.608989 
L 263.901005 73.119992 
L 266.733014 74.030846 
L 269.565023 81.241439 
L 272.397032 79.087433 
L 275.229041 69.913496 
L 278.06105 73.693334 
L 280.89306 83.95696 
L 283.725069 74.190404 
L 286.557078 72.668634 
L 289.389087 86.094659 
L 292.221096 80.046253 
L 295.053105 79.984288 
L 297.885115 75.645644 
L 300.717124 79.197341 
L 303.549133 87.903008 
L 306.381142 79.380044 
L 309.213151 74.91833 
L 312.04516 84.441652 
L 314.87717 85.648957 
L 317.709179 75.472594 
L 320.541188 76.025966 
L 323.373197 73.235448 
L 326.205206 78.636314 
L 329.037215 72.233905 
L 331.869225 83.482577 
L 334.701234 73.354996 
L 337.533243 84.141926 
L 340.365252 80.573498 
L 343.197261 66.550199 
L 346.02927 70.864973 
L 348.86128 77.085131 
L 351.693289 71.019772 
L 354.525298 79.064328 
L 357.357307 78.80426 
L 360.189316 69.370839 
L 363.021325 83.641113 
L 365.853335 81.8959 
L 368.685344 75.97975 
L 371.517353 77.595986 
L 374.349362 68.163676 
L 377.181371 73.190129 
L 380.01338 71.905783 
L 382.84539 68.316862 
L 385.677399 76.935188 
L 388.509408 80.587603 
L 391.341417 70.998535 
L 394.173426 80.945041 
L 397.005435 76.161629 
L 399.837445 71.915774 
L 402.669454 77.667222 
L 405.501463 80.505862 
L 408.333472 68.725655 
L 411.165481 65.787598 
L 413.99749 70.619494 
L 416.8295 69.818179 
L 419.661509 71.581681 
L 422.493518 73.315484 
L 425.325527 70.23086 
L 428.157536 68.708881 
L 430.989545 68.236731 
" clip-path="url(#p351e0ed09a)" style="fill: none; stroke: #55a868; stroke-width: 3; stroke-linecap: round"/>
   </g>
   <g id="line2d_17">
    <path d="M 93.980455 178.304601 
L 96.812464 174.576366 
L 99.644473 173.84015 
L 102.476482 167.945192 
L 105.308491 169.485494 
L 108.1405 154.958681 
L 110.97251 156.890786 
L 113.804519 151.063723 
L 116.636528 143.783558 
L 119.468537 150.73225 
L 122.300546 144.682873 
L 125.132555 142.868815 
L 127.964565 157.366375 
L 130.796574 143.414509 
L 133.628583 143.136411 
L 136.460592 130.893397 
L 139.292601 144.592739 
L 142.12461 133.530401 
L 144.95662 137.068514 
L 147.788629 156.026021 
L 150.620638 123.079207 
L 153.452647 120.209541 
L 156.284656 135.534568 
L 159.116665 129.481536 
L 161.948675 138.638436 
L 164.780684 131.7508 
L 167.612693 124.319475 
L 170.444702 121.160557 
L 173.276711 135.60277 
L 176.10872 125.041577 
L 178.94073 118.490468 
L 181.772739 129.827452 
L 184.604748 133.884298 
L 187.436757 103.41027 
L 190.268766 121.416454 
L 193.100775 123.817488 
L 195.932785 126.484296 
L 198.764794 133.150175 
L 201.596803 130.969658 
L 204.428812 124.265056 
L 207.260821 110.773089 
L 210.09283 127.915786 
L 212.92484 110.637883 
L 215.756849 106.470106 
L 218.588858 121.100742 
L 221.420867 102.398175 
L 224.252876 92.703312 
L 227.084885 125.108526 
L 229.916895 102.64716 
L 232.748904 106.195671 
L 235.580913 120.297145 
L 238.412922 110.063475 
L 241.244931 112.94797 
L 244.07694 116.329114 
L 246.90895 119.434215 
L 249.740959 100.950767 
L 252.572968 106.530937 
L 255.404977 111.541045 
L 258.236986 102.237273 
L 261.068995 113.00572 
L 263.901005 98.347448 
L 266.733014 98.945117 
L 269.565023 113.409774 
L 272.397032 99.973428 
L 275.229041 96.055839 
L 278.06105 102.458007 
L 280.89306 111.327647 
L 283.725069 101.119797 
L 286.557078 104.351588 
L 289.389087 93.730896 
L 292.221096 92.798823 
L 295.053105 107.994391 
L 297.885115 107.515968 
L 300.717124 120.651393 
L 303.549133 100.813618 
L 306.381142 104.193056 
L 309.213151 103.928346 
L 312.04516 117.775271 
L 314.87717 98.527087 
L 317.709179 106.284826 
L 320.541188 103.133943 
L 323.373197 98.228423 
L 326.205206 103.29546 
L 329.037215 110.673045 
L 331.869225 98.713156 
L 334.701234 90.251141 
L 337.533243 105.13554 
L 340.365252 96.115245 
L 343.197261 90.124202 
L 346.02927 106.34996 
L 348.86128 105.224659 
L 351.693289 98.175779 
L 354.525298 84.670016 
L 357.357307 102.912969 
L 360.189316 92.217387 
L 363.021325 94.612314 
L 365.853335 95.883153 
L 368.685344 101.352091 
L 371.517353 91.039518 
L 374.349362 85.499478 
L 377.181371 90.692765 
L 380.01338 92.575529 
L 382.84539 87.412857 
L 385.677399 93.593462 
L 388.509408 86.532708 
L 391.341417 99.023916 
L 394.173426 90.112675 
L 397.005435 86.2472 
L 399.837445 87.767617 
L 402.669454 84.864512 
L 405.501463 88.023076 
L 408.333472 86.878096 
L 411.165481 85.879806 
L 413.99749 81.973925 
L 416.8295 85.985073 
L 419.661509 92.951087 
L 422.493518 84.662525 
L 425.325527 84.369728 
L 428.157536 85.893628 
L 430.989545 83.952743 
" clip-path="url(#p351e0ed09a)" style="fill: none; stroke: #c44e52; stroke-width: 3; stroke-linecap: round"/>
   </g>
   <g id="line2d_18">
    <path d="M 93.980455 170.122718 
L 96.812464 177.294616 
L 99.644473 171.588128 
L 102.476482 168.181657 
L 105.308491 174.370775 
L 108.1405 178.312759 
L 110.97251 165.13187 
L 113.804519 162.497051 
L 116.636528 170.055569 
L 119.468537 157.529745 
L 122.300546 151.449336 
L 125.132555 186.949641 
L 127.964565 150.805917 
L 130.796574 155.208856 
L 133.628583 153.630768 
L 136.460592 160.121574 
L 139.292601 148.929352 
L 142.12461 164.633829 
L 144.95662 162.858147 
L 147.788629 177.181446 
L 150.620638 149.83625 
L 153.452647 151.132402 
L 156.284656 158.893288 
L 159.116665 155.927039 
L 161.948675 155.815152 
L 164.780684 162.861628 
L 167.612693 155.801596 
L 170.444702 153.870929 
L 173.276711 164.02797 
L 176.10872 180.853847 
L 178.94073 154.430841 
L 181.772739 143.971825 
L 184.604748 170.098496 
L 187.436757 161.178142 
L 190.268766 165.36763 
L 193.100775 152.133593 
L 195.932785 149.50211 
L 198.764794 150.19072 
L 201.596803 164.788689 
L 204.428812 151.826999 
L 207.260821 165.268887 
L 210.09283 151.458676 
L 212.92484 153.206525 
L 215.756849 167.749375 
L 218.588858 151.812419 
L 221.420867 189.561185 
L 224.252876 153.284797 
L 227.084885 164.169282 
L 229.916895 176.384527 
L 232.748904 172.861185 
L 235.580913 144.525272 
L 238.412922 146.243421 
L 241.244931 150.039613 
L 244.07694 177.096368 
L 246.90895 152.100413 
L 249.740959 170.272987 
L 252.572968 188.262495 
L 255.404977 154.226779 
L 258.236986 161.66534 
L 261.068995 154.275431 
L 263.901005 161.337565 
L 266.733014 180.135342 
L 269.565023 149.158678 
L 272.397032 177.717788 
L 275.229041 151.886753 
L 278.06105 165.071482 
L 280.89306 162.44948 
L 283.725069 193.497578 
L 286.557078 152.269682 
L 289.389087 153.855204 
L 292.221096 158.599613 
L 295.053105 162.4896 
L 297.885115 155.921618 
L 300.717124 153.163027 
L 303.549133 143.683661 
L 306.381142 173.791734 
L 309.213151 188.98812 
L 312.04516 154.952306 
L 314.87717 155.115917 
L 317.709179 174.305459 
L 320.541188 150.973932 
L 323.373197 153.341111 
L 326.205206 150.959934 
L 329.037215 151.702158 
L 331.869225 156.449407 
L 334.701234 169.973421 
L 337.533243 156.24517 
L 340.365252 141.26533 
L 343.197261 173.310668 
L 346.02927 155.470967 
L 348.86128 159.310668 
L 351.693289 147.081724 
L 354.525298 155.674378 
L 357.357307 150.467073 
L 360.189316 174.333444 
L 363.021325 148.545682 
L 365.853335 158.497562 
L 368.685344 148.035758 
L 371.517353 165.290186 
L 374.349362 151.78185 
L 377.181371 154.853007 
L 380.01338 154.00286 
L 382.84539 148.674656 
L 385.677399 149.363907 
L 388.509408 158.761527 
L 391.341417 154.249946 
L 394.173426 151.69648 
L 397.005435 159.961473 
L 399.837445 151.73838 
L 402.669454 154.54887 
L 405.501463 154.904057 
L 408.333472 156.24847 
L 411.165481 164.167109 
L 413.99749 162.281018 
L 416.8295 154.931423 
L 419.661509 157.497593 
L 422.493518 159.194621 
L 425.325527 155.222131 
L 428.157536 155.710631 
L 430.989545 159.149278 
" clip-path="url(#p351e0ed09a)" style="fill: none; stroke: #8172b3; stroke-width: 3; stroke-linecap: round"/>
   </g>
   <g id="patch_3">
    <path d="M 77.13 294.66 
L 77.13 29.76 
" style="fill: none; stroke: #ffffff; stroke-width: 1.25; stroke-linejoin: miter; stroke-linecap: square"/>
   </g>
   <g id="patch_4">
    <path d="M 447.84 294.66 
L 447.84 29.76 
" style="fill: none; stroke: #ffffff; stroke-width: 1.25; stroke-linejoin: miter; stroke-linecap: square"/>
   </g>
   <g id="patch_5">
    <path d="M 77.13 294.66 
L 447.84 294.66 
" style="fill: none; stroke: #ffffff; stroke-width: 1.25; stroke-linejoin: miter; stroke-linecap: square"/>
   </g>
   <g id="patch_6">
    <path d="M 77.13 29.76 
L 447.84 29.76 
" style="fill: none; stroke: #ffffff; stroke-width: 1.25; stroke-linejoin: miter; stroke-linecap: square"/>
   </g>
   <g id="text_16">
    <!-- zinc-coating-v0 -->
    <g style="fill: #262626" transform="translate(209.126406 23.76)scale(0.14 -0.14)">
     <defs>
      <path id="DejaVuSans-7a" d="M 353 3500 
L 3084 3500 
L 3084 2975 
L 922 459 
L 3084 459 
L 3084 0 
L 275 0 
L 275 525 
L 2438 3041 
L 353 3041 
L 353 3500 
z
" transform="scale(0.015625)"/>
      <path id="DejaVuSans-2d" d="M 313 2009 
L 1997 2009 
L 1997 1497 
L 313 1497 
L 313 2009 
z
" transform="scale(0.015625)"/>
      <path id="DejaVuSans-61" d="M 2194 1759 
Q 1497 1759 1228 1600 
Q 959 1441 959 1056 
Q 959 750 1161 570 
Q 1363 391 1709 391 
Q 2188 391 2477 730 
Q 2766 1069 2766 1631 
L 2766 1759 
L 2194 1759 
z
M 3341 1997 
L 3341 0 
L 2766 0 
L 2766 531 
Q 2569 213 2275 61 
Q 1981 -91 1556 -91 
Q 1019 -91 701 211 
Q 384 513 384 1019 
Q 384 1609 779 1909 
Q 1175 2209 1959 2209 
L 2766 2209 
L 2766 2266 
Q 2766 2663 2505 2880 
Q 2244 3097 1772 3097 
Q 1472 3097 1187 3025 
Q 903 2953 641 2809 
L 641 3341 
Q 956 3463 1253 3523 
Q 1550 3584 1831 3584 
Q 2591 3584 2966 3190 
Q 3341 2797 3341 1997 
z
" transform="scale(0.015625)"/>
      <path id="DejaVuSans-67" d="M 2906 1791 
Q 2906 2416 2648 2759 
Q 2391 3103 1925 3103 
Q 1463 3103 1205 2759 
Q 947 2416 947 1791 
Q 947 1169 1205 825 
Q 1463 481 1925 481 
Q 2391 481 2648 825 
Q 2906 1169 2906 1791 
z
M 3481 434 
Q 3481 -459 3084 -895 
Q 2688 -1331 1869 -1331 
Q 1566 -1331 1297 -1286 
Q 1028 -1241 775 -1147 
L 775 -588 
Q 1028 -725 1275 -790 
Q 1522 -856 1778 -856 
Q 2344 -856 2625 -561 
Q 2906 -266 2906 331 
L 2906 616 
Q 2728 306 2450 153 
Q 2172 0 1784 0 
Q 1141 0 747 490 
Q 353 981 353 1791 
Q 353 2603 747 3093 
Q 1141 3584 1784 3584 
Q 2172 3584 2450 3431 
Q 2728 3278 2906 2969 
L 2906 3500 
L 3481 3500 
L 3481 434 
z
" transform="scale(0.015625)"/>
      <path id="DejaVuSans-76" d="M 191 3500 
L 800 3500 
L 1894 563 
L 2988 3500 
L 3597 3500 
L 2284 0 
L 1503 0 
L 191 3500 
z
" transform="scale(0.015625)"/>
     </defs>
     <use xlink:href="#DejaVuSans-7a"/>
     <use xlink:href="#DejaVuSans-69" x="52.490234"/>
     <use xlink:href="#DejaVuSans-6e" x="80.273438"/>
     <use xlink:href="#DejaVuSans-63" x="143.652344"/>
     <use xlink:href="#DejaVuSans-2d" x="198.632812"/>
     <use xlink:href="#DejaVuSans-63" x="234.716797"/>
     <use xlink:href="#DejaVuSans-6f" x="289.697266"/>
     <use xlink:href="#DejaVuSans-61" x="350.878906"/>
     <use xlink:href="#DejaVuSans-74" x="412.158203"/>
     <use xlink:href="#DejaVuSans-69" x="451.367188"/>
     <use xlink:href="#DejaVuSans-6e" x="479.150391"/>
     <use xlink:href="#DejaVuSans-67" x="542.529297"/>
     <use xlink:href="#DejaVuSans-2d" x="606.005859"/>
     <use xlink:href="#DejaVuSans-76" x="639.464844"/>
     <use xlink:href="#DejaVuSans-30" x="698.644531"/>
    </g>
   </g>
   <g id="legend_1">
    <g id="patch_7">
     <path d="M 84.83 289.16 
L 249.419219 289.16 
Q 251.619219 289.16 251.619219 286.96 
L 251.619219 207.330312 
Q 251.619219 205.130312 249.419219 205.130312 
L 84.83 205.130312 
Q 82.63 205.130312 82.63 207.330312 
L 82.63 286.96 
Q 82.63 289.16 84.83 289.16 
z
" style="fill: #eaeaf2; opacity: 0.8; stroke: #cccccc; stroke-linejoin: miter"/>
    </g>
    <g id="line2d_19">
     <path d="M 87.03 214.038594 
L 98.03 214.038594 
L 109.03 214.038594 
" style="fill: none; stroke: #4c72b0; stroke-width: 3; stroke-linecap: round"/>
    </g>
    <g id="text_17">
     <!-- SAC-IS-DELAY-1-logs/ -->
     <g style="fill: #262626" transform="translate(117.83 217.888594)scale(0.11 -0.11)">
      <defs>
       <path id="DejaVuSans-41" d="M 2188 4044 
L 1331 1722 
L 3047 1722 
L 2188 4044 
z
M 1831 4666 
L 2547 4666 
L 4325 0 
L 3669 0 
L 3244 1197 
L 1141 1197 
L 716 0 
L 50 0 
L 1831 4666 
z
" transform="scale(0.015625)"/>
       <path id="DejaVuSans-43" d="M 4122 4306 
L 4122 3641 
Q 3803 3938 3442 4084 
Q 3081 4231 2675 4231 
Q 1875 4231 1450 3742 
Q 1025 3253 1025 2328 
Q 1025 1406 1450 917 
Q 1875 428 2675 428 
Q 3081 428 3442 575 
Q 3803 722 4122 1019 
L 4122 359 
Q 3791 134 3420 21 
Q 3050 -91 2638 -91 
Q 1578 -91 968 557 
Q 359 1206 359 2328 
Q 359 3453 968 4101 
Q 1578 4750 2638 4750 
Q 3056 4750 3426 4639 
Q 3797 4528 4122 4306 
z
" transform="scale(0.015625)"/>
       <path id="DejaVuSans-49" d="M 628 4666 
L 1259 4666 
L 1259 0 
L 628 0 
L 628 4666 
z
" transform="scale(0.015625)"/>
       <path id="DejaVuSans-44" d="M 1259 4147 
L 1259 519 
L 2022 519 
Q 2988 519 3436 956 
Q 3884 1394 3884 2338 
Q 3884 3275 3436 3711 
Q 2988 4147 2022 4147 
L 1259 4147 
z
M 628 4666 
L 1925 4666 
Q 3281 4666 3915 4102 
Q 4550 3538 4550 2338 
Q 4550 1131 3912 565 
Q 3275 0 1925 0 
L 628 0 
L 628 4666 
z
" transform="scale(0.015625)"/>
       <path id="DejaVuSans-45" d="M 628 4666 
L 3578 4666 
L 3578 4134 
L 1259 4134 
L 1259 2753 
L 3481 2753 
L 3481 2222 
L 1259 2222 
L 1259 531 
L 3634 531 
L 3634 0 
L 628 0 
L 628 4666 
z
" transform="scale(0.015625)"/>
       <path id="DejaVuSans-4c" d="M 628 4666 
L 1259 4666 
L 1259 531 
L 3531 531 
L 3531 0 
L 628 0 
L 628 4666 
z
" transform="scale(0.015625)"/>
       <path id="DejaVuSans-59" d="M -13 4666 
L 666 4666 
L 1959 2747 
L 3244 4666 
L 3922 4666 
L 2272 2222 
L 2272 0 
L 1638 0 
L 1638 2222 
L -13 4666 
z
" transform="scale(0.015625)"/>
       <path id="DejaVuSans-2f" d="M 1625 4666 
L 2156 4666 
L 531 -594 
L 0 -594 
L 1625 4666 
z
" transform="scale(0.015625)"/>
      </defs>
      <use xlink:href="#DejaVuSans-53"/>
      <use xlink:href="#DejaVuSans-41" x="65.351562"/>
      <use xlink:href="#DejaVuSans-43" x="132.009766"/>
      <use xlink:href="#DejaVuSans-2d" x="201.833984"/>
      <use xlink:href="#DejaVuSans-49" x="237.917969"/>
      <use xlink:href="#DejaVuSans-53" x="267.410156"/>
      <use xlink:href="#DejaVuSans-2d" x="330.886719"/>
      <use xlink:href="#DejaVuSans-44" x="366.970703"/>
      <use xlink:href="#DejaVuSans-45" x="443.972656"/>
      <use xlink:href="#DejaVuSans-4c" x="507.15625"/>
      <use xlink:href="#DejaVuSans-41" x="565.119141"/>
      <use xlink:href="#DejaVuSans-59" x="625.777344"/>
      <use xlink:href="#DejaVuSans-2d" x="674.986328"/>
      <use xlink:href="#DejaVuSans-31" x="711.070312"/>
      <use xlink:href="#DejaVuSans-2d" x="774.693359"/>
      <use xlink:href="#DejaVuSans-6c" x="810.777344"/>
      <use xlink:href="#DejaVuSans-6f" x="838.560547"/>
      <use xlink:href="#DejaVuSans-67" x="899.742188"/>
      <use xlink:href="#DejaVuSans-73" x="963.21875"/>
      <use xlink:href="#DejaVuSans-2f" x="1015.318359"/>
     </g>
    </g>
    <g id="line2d_20">
     <path d="M 87.03 230.184531 
L 98.03 230.184531 
L 109.03 230.184531 
" style="fill: none; stroke: #dd8452; stroke-width: 3; stroke-linecap: round"/>
    </g>
    <g id="text_18">
     <!-- SAC-IS-DELAY-5-logs/ -->
     <g style="fill: #262626" transform="translate(117.83 234.034531)scale(0.11 -0.11)">
      <use xlink:href="#DejaVuSans-53"/>
      <use xlink:href="#DejaVuSans-41" x="65.351562"/>
      <use xlink:href="#DejaVuSans-43" x="132.009766"/>
      <use xlink:href="#DejaVuSans-2d" x="201.833984"/>
      <use xlink:href="#DejaVuSans-49" x="237.917969"/>
      <use xlink:href="#DejaVuSans-53" x="267.410156"/>
      <use xlink:href="#DejaVuSans-2d" x="330.886719"/>
      <use xlink:href="#DejaVuSans-44" x="366.970703"/>
      <use xlink:href="#DejaVuSans-45" x="443.972656"/>
      <use xlink:href="#DejaVuSans-4c" x="507.15625"/>
      <use xlink:href="#DejaVuSans-41" x="565.119141"/>
      <use xlink:href="#DejaVuSans-59" x="625.777344"/>
      <use xlink:href="#DejaVuSans-2d" x="674.986328"/>
      <use xlink:href="#DejaVuSans-35" x="711.070312"/>
      <use xlink:href="#DejaVuSans-2d" x="774.693359"/>
      <use xlink:href="#DejaVuSans-6c" x="810.777344"/>
      <use xlink:href="#DejaVuSans-6f" x="838.560547"/>
      <use xlink:href="#DejaVuSans-67" x="899.742188"/>
      <use xlink:href="#DejaVuSans-73" x="963.21875"/>
      <use xlink:href="#DejaVuSans-2f" x="1015.318359"/>
     </g>
    </g>
    <g id="line2d_21">
     <path d="M 87.03 246.330469 
L 98.03 246.330469 
L 109.03 246.330469 
" style="fill: none; stroke: #55a868; stroke-width: 3; stroke-linecap: round"/>
    </g>
    <g id="text_19">
     <!-- SAC-IS-DELAY-10-logs/ -->
     <g style="fill: #262626" transform="translate(117.83 250.180469)scale(0.11 -0.11)">
      <use xlink:href="#DejaVuSans-53"/>
      <use xlink:href="#DejaVuSans-41" x="65.351562"/>
      <use xlink:href="#DejaVuSans-43" x="132.009766"/>
      <use xlink:href="#DejaVuSans-2d" x="201.833984"/>
      <use xlink:href="#DejaVuSans-49" x="237.917969"/>
      <use xlink:href="#DejaVuSans-53" x="267.410156"/>
      <use xlink:href="#DejaVuSans-2d" x="330.886719"/>
      <use xlink:href="#DejaVuSans-44" x="366.970703"/>
      <use xlink:href="#DejaVuSans-45" x="443.972656"/>
      <use xlink:href="#DejaVuSans-4c" x="507.15625"/>
      <use xlink:href="#DejaVuSans-41" x="565.119141"/>
      <use xlink:href="#DejaVuSans-59" x="625.777344"/>
      <use xlink:href="#DejaVuSans-2d" x="674.986328"/>
      <use xlink:href="#DejaVuSans-31" x="711.070312"/>
      <use xlink:href="#DejaVuSans-30" x="774.693359"/>
      <use xlink:href="#DejaVuSans-2d" x="838.316406"/>
      <use xlink:href="#DejaVuSans-6c" x="874.400391"/>
      <use xlink:href="#DejaVuSans-6f" x="902.183594"/>
      <use xlink:href="#DejaVuSans-67" x="963.365234"/>
      <use xlink:href="#DejaVuSans-73" x="1026.841797"/>
      <use xlink:href="#DejaVuSans-2f" x="1078.941406"/>
     </g>
    </g>
    <g id="line2d_22">
     <path d="M 87.03 262.476406 
L 98.03 262.476406 
L 109.03 262.476406 
" style="fill: none; stroke: #c44e52; stroke-width: 3; stroke-linecap: round"/>
    </g>
    <g id="text_20">
     <!-- SAC-IS-DELAY-20-logs/ -->
     <g style="fill: #262626" transform="translate(117.83 266.326406)scale(0.11 -0.11)">
      <use xlink:href="#DejaVuSans-53"/>
      <use xlink:href="#DejaVuSans-41" x="65.351562"/>
      <use xlink:href="#DejaVuSans-43" x="132.009766"/>
      <use xlink:href="#DejaVuSans-2d" x="201.833984"/>
      <use xlink:href="#DejaVuSans-49" x="237.917969"/>
      <use xlink:href="#DejaVuSans-53" x="267.410156"/>
      <use xlink:href="#DejaVuSans-2d" x="330.886719"/>
      <use xlink:href="#DejaVuSans-44" x="366.970703"/>
      <use xlink:href="#DejaVuSans-45" x="443.972656"/>
      <use xlink:href="#DejaVuSans-4c" x="507.15625"/>
      <use xlink:href="#DejaVuSans-41" x="565.119141"/>
      <use xlink:href="#DejaVuSans-59" x="625.777344"/>
      <use xlink:href="#DejaVuSans-2d" x="674.986328"/>
      <use xlink:href="#DejaVuSans-32" x="711.070312"/>
      <use xlink:href="#DejaVuSans-30" x="774.693359"/>
      <use xlink:href="#DejaVuSans-2d" x="838.316406"/>
      <use xlink:href="#DejaVuSans-6c" x="874.400391"/>
      <use xlink:href="#DejaVuSans-6f" x="902.183594"/>
      <use xlink:href="#DejaVuSans-67" x="963.365234"/>
      <use xlink:href="#DejaVuSans-73" x="1026.841797"/>
      <use xlink:href="#DejaVuSans-2f" x="1078.941406"/>
     </g>
    </g>
    <g id="line2d_23">
     <path d="M 87.03 278.622344 
L 98.03 278.622344 
L 109.03 278.622344 
" style="fill: none; stroke: #8172b3; stroke-width: 3; stroke-linecap: round"/>
    </g>
    <g id="text_21">
     <!-- SAC-IS-DELAY-100-logs/ -->
     <g style="fill: #262626" transform="translate(117.83 282.472344)scale(0.11 -0.11)">
      <use xlink:href="#DejaVuSans-53"/>
      <use xlink:href="#DejaVuSans-41" x="65.351562"/>
      <use xlink:href="#DejaVuSans-43" x="132.009766"/>
      <use xlink:href="#DejaVuSans-2d" x="201.833984"/>
      <use xlink:href="#DejaVuSans-49" x="237.917969"/>
      <use xlink:href="#DejaVuSans-53" x="267.410156"/>
      <use xlink:href="#DejaVuSans-2d" x="330.886719"/>
      <use xlink:href="#DejaVuSans-44" x="366.970703"/>
      <use xlink:href="#DejaVuSans-45" x="443.972656"/>
      <use xlink:href="#DejaVuSans-4c" x="507.15625"/>
      <use xlink:href="#DejaVuSans-41" x="565.119141"/>
      <use xlink:href="#DejaVuSans-59" x="625.777344"/>
      <use xlink:href="#DejaVuSans-2d" x="674.986328"/>
      <use xlink:href="#DejaVuSans-31" x="711.070312"/>
      <use xlink:href="#DejaVuSans-30" x="774.693359"/>
      <use xlink:href="#DejaVuSans-30" x="838.316406"/>
      <use xlink:href="#DejaVuSans-2d" x="901.939453"/>
      <use xlink:href="#DejaVuSans-6c" x="938.023438"/>
      <use xlink:href="#DejaVuSans-6f" x="965.806641"/>
      <use xlink:href="#DejaVuSans-67" x="1026.988281"/>
      <use xlink:href="#DejaVuSans-73" x="1090.464844"/>
      <use xlink:href="#DejaVuSans-2f" x="1142.564453"/>
     </g>
    </g>
   </g>
  </g>
 </g>
 <defs>
  <clipPath id="p351e0ed09a">
   <rect x="77.13" y="29.76" width="370.71" height="264.9"/>
  </clipPath>
 </defs>
</svg>
