<?xml version="1.0" encoding="utf-8" standalone="no"?>
<!DOCTYPE svg PUBLIC "-//W3C//DTD SVG 1.1//EN"
  "http://www.w3.org/Graphics/SVG/1.1/DTD/svg11.dtd">
<svg xmlns:xlink="http://www.w3.org/1999/xlink" width="460.8pt" height="345.6pt" viewBox="0 0 460.8 345.6" xmlns="http://www.w3.org/2000/svg" version="1.1">
 <metadata>
  <rdf:RDF xmlns:dc="http://purl.org/dc/elements/1.1/" xmlns:cc="http://creativecommons.org/ns#" xmlns:rdf="http://www.w3.org/1999/02/22-rdf-syntax-ns#">
   <cc:Work>
    <dc:type rdf:resource="http://purl.org/dc/dcmitype/StillImage"/>
    <dc:date>2022-09-10T15:50:19.590467</dc:date>
    <dc:format>image/svg+xml</dc:format>
    <dc:creator>
     <cc:Agent>
      <dc:title>Matplotlib v3.5.3, https://matplotlib.org/</dc:title>
     </cc:Agent>
    </dc:creator>
   </cc:Work>
  </rdf:RDF>
 </metadata>
 <defs>
  <style type="text/css">*{stroke-linejoin: round; stroke-linecap: butt}</style>
 </defs>
 <g id="figure_1">
  <g id="patch_1">
   <path d="M 0 345.6 
L 460.8 345.6 
L 460.8 0 
L 0 0 
z
" style="fill: #ffffff"/>
  </g>
  <g id="axes_1">
   <g id="patch_2">
    <path d="M 77.13 294.66 
L 447.84 294.66 
L 447.84 29.76 
L 77.13 29.76 
z
" style="fill: #eaeaf2"/>
   </g>
   <g id="matplotlib.axis_1">
    <g id="xtick_1">
     <g id="line2d_1">
      <path d="M 91.148445 294.66 
L 91.148445 29.76 
" clip-path="url(#pcbc5aae7b1)" style="fill: none; stroke: #ffffff; stroke-linecap: round"/>
     </g>
     <g id="text_1">
      <!-- 0.00 -->
      <g style="fill: #262626" transform="translate(78.902352 312.518281)scale(0.11 -0.11)">
       <defs>
        <path id="DejaVuSans-30" d="M 2034 4250 
Q 1547 4250 1301 3770 
Q 1056 3291 1056 2328 
Q 1056 1369 1301 889 
Q 1547 409 2034 409 
Q 2525 409 2770 889 
Q 3016 1369 3016 2328 
Q 3016 3291 2770 3770 
Q 2525 4250 2034 4250 
z
M 2034 4750 
Q 2819 4750 3233 4129 
Q 3647 3509 3647 2328 
Q 3647 1150 3233 529 
Q 2819 -91 2034 -91 
Q 1250 -91 836 529 
Q 422 1150 422 2328 
Q 422 3509 836 4129 
Q 1250 4750 2034 4750 
z
" transform="scale(0.015625)"/>
        <path id="DejaVuSans-2e" d="M 684 794 
L 1344 794 
L 1344 0 
L 684 0 
L 684 794 
z
" transform="scale(0.015625)"/>
       </defs>
       <use xlink:href="#DejaVuSans-30"/>
       <use xlink:href="#DejaVuSans-2e" x="63.623047"/>
       <use xlink:href="#DejaVuSans-30" x="95.410156"/>
       <use xlink:href="#DejaVuSans-30" x="159.033203"/>
      </g>
     </g>
    </g>
    <g id="xtick_2">
     <g id="line2d_2">
      <path d="M 147.788629 294.66 
L 147.788629 29.76 
" clip-path="url(#pcbc5aae7b1)" style="fill: none; stroke: #ffffff; stroke-linecap: round"/>
     </g>
     <g id="text_2">
      <!-- 0.05 -->
      <g style="fill: #262626" transform="translate(135.542535 312.518281)scale(0.11 -0.11)">
       <defs>
        <path id="DejaVuSans-35" d="M 691 4666 
L 3169 4666 
L 3169 4134 
L 1269 4134 
L 1269 2991 
Q 1406 3038 1543 3061 
Q 1681 3084 1819 3084 
Q 2600 3084 3056 2656 
Q 3513 2228 3513 1497 
Q 3513 744 3044 326 
Q 2575 -91 1722 -91 
Q 1428 -91 1123 -41 
Q 819 9 494 109 
L 494 744 
Q 775 591 1075 516 
Q 1375 441 1709 441 
Q 2250 441 2565 725 
Q 2881 1009 2881 1497 
Q 2881 1984 2565 2268 
Q 2250 2553 1709 2553 
Q 1456 2553 1204 2497 
Q 953 2441 691 2322 
L 691 4666 
z
" transform="scale(0.015625)"/>
       </defs>
       <use xlink:href="#DejaVuSans-30"/>
       <use xlink:href="#DejaVuSans-2e" x="63.623047"/>
       <use xlink:href="#DejaVuSans-30" x="95.410156"/>
       <use xlink:href="#DejaVuSans-35" x="159.033203"/>
      </g>
     </g>
    </g>
    <g id="xtick_3">
     <g id="line2d_3">
      <path d="M 204.428812 294.66 
L 204.428812 29.76 
" clip-path="url(#pcbc5aae7b1)" style="fill: none; stroke: #ffffff; stroke-linecap: round"/>
     </g>
     <g id="text_3">
      <!-- 0.10 -->
      <g style="fill: #262626" transform="translate(192.182718 312.518281)scale(0.11 -0.11)">
       <defs>
        <path id="DejaVuSans-31" d="M 794 531 
L 1825 531 
L 1825 4091 
L 703 3866 
L 703 4441 
L 1819 4666 
L 2450 4666 
L 2450 531 
L 3481 531 
L 3481 0 
L 794 0 
L 794 531 
z
" transform="scale(0.015625)"/>
       </defs>
       <use xlink:href="#DejaVuSans-30"/>
       <use xlink:href="#DejaVuSans-2e" x="63.623047"/>
       <use xlink:href="#DejaVuSans-31" x="95.410156"/>
       <use xlink:href="#DejaVuSans-30" x="159.033203"/>
      </g>
     </g>
    </g>
    <g id="xtick_4">
     <g id="line2d_4">
      <path d="M 261.068995 294.66 
L 261.068995 29.76 
" clip-path="url(#pcbc5aae7b1)" style="fill: none; stroke: #ffffff; stroke-linecap: round"/>
     </g>
     <g id="text_4">
      <!-- 0.15 -->
      <g style="fill: #262626" transform="translate(248.822902 312.518281)scale(0.11 -0.11)">
       <use xlink:href="#DejaVuSans-30"/>
       <use xlink:href="#DejaVuSans-2e" x="63.623047"/>
       <use xlink:href="#DejaVuSans-31" x="95.410156"/>
       <use xlink:href="#DejaVuSans-35" x="159.033203"/>
      </g>
     </g>
    </g>
    <g id="xtick_5">
     <g id="line2d_5">
      <path d="M 317.709179 294.66 
L 317.709179 29.76 
" clip-path="url(#pcbc5aae7b1)" style="fill: none; stroke: #ffffff; stroke-linecap: round"/>
     </g>
     <g id="text_5">
      <!-- 0.20 -->
      <g style="fill: #262626" transform="translate(305.463085 312.518281)scale(0.11 -0.11)">
       <defs>
        <path id="DejaVuSans-32" d="M 1228 531 
L 3431 531 
L 3431 0 
L 469 0 
L 469 531 
Q 828 903 1448 1529 
Q 2069 2156 2228 2338 
Q 2531 2678 2651 2914 
Q 2772 3150 2772 3378 
Q 2772 3750 2511 3984 
Q 2250 4219 1831 4219 
Q 1534 4219 1204 4116 
Q 875 4013 500 3803 
L 500 4441 
Q 881 4594 1212 4672 
Q 1544 4750 1819 4750 
Q 2544 4750 2975 4387 
Q 3406 4025 3406 3419 
Q 3406 3131 3298 2873 
Q 3191 2616 2906 2266 
Q 2828 2175 2409 1742 
Q 1991 1309 1228 531 
z
" transform="scale(0.015625)"/>
       </defs>
       <use xlink:href="#DejaVuSans-30"/>
       <use xlink:href="#DejaVuSans-2e" x="63.623047"/>
       <use xlink:href="#DejaVuSans-32" x="95.410156"/>
       <use xlink:href="#DejaVuSans-30" x="159.033203"/>
      </g>
     </g>
    </g>
    <g id="xtick_6">
     <g id="line2d_6">
      <path d="M 374.349362 294.66 
L 374.349362 29.76 
" clip-path="url(#pcbc5aae7b1)" style="fill: none; stroke: #ffffff; stroke-linecap: round"/>
     </g>
     <g id="text_6">
      <!-- 0.25 -->
      <g style="fill: #262626" transform="translate(362.103268 312.518281)scale(0.11 -0.11)">
       <use xlink:href="#DejaVuSans-30"/>
       <use xlink:href="#DejaVuSans-2e" x="63.623047"/>
       <use xlink:href="#DejaVuSans-32" x="95.410156"/>
       <use xlink:href="#DejaVuSans-35" x="159.033203"/>
      </g>
     </g>
    </g>
    <g id="xtick_7">
     <g id="line2d_7">
      <path d="M 430.989545 294.66 
L 430.989545 29.76 
" clip-path="url(#pcbc5aae7b1)" style="fill: none; stroke: #ffffff; stroke-linecap: round"/>
     </g>
     <g id="text_7">
      <!-- 0.30 -->
      <g style="fill: #262626" transform="translate(418.743452 312.518281)scale(0.11 -0.11)">
       <defs>
        <path id="DejaVuSans-33" d="M 2597 2516 
Q 3050 2419 3304 2112 
Q 3559 1806 3559 1356 
Q 3559 666 3084 287 
Q 2609 -91 1734 -91 
Q 1441 -91 1130 -33 
Q 819 25 488 141 
L 488 750 
Q 750 597 1062 519 
Q 1375 441 1716 441 
Q 2309 441 2620 675 
Q 2931 909 2931 1356 
Q 2931 1769 2642 2001 
Q 2353 2234 1838 2234 
L 1294 2234 
L 1294 2753 
L 1863 2753 
Q 2328 2753 2575 2939 
Q 2822 3125 2822 3475 
Q 2822 3834 2567 4026 
Q 2313 4219 1838 4219 
Q 1578 4219 1281 4162 
Q 984 4106 628 3988 
L 628 4550 
Q 988 4650 1302 4700 
Q 1616 4750 1894 4750 
Q 2613 4750 3031 4423 
Q 3450 4097 3450 3541 
Q 3450 3153 3228 2886 
Q 3006 2619 2597 2516 
z
" transform="scale(0.015625)"/>
       </defs>
       <use xlink:href="#DejaVuSans-30"/>
       <use xlink:href="#DejaVuSans-2e" x="63.623047"/>
       <use xlink:href="#DejaVuSans-33" x="95.410156"/>
       <use xlink:href="#DejaVuSans-30" x="159.033203"/>
      </g>
     </g>
    </g>
    <g id="text_8">
     <!-- Timesteps (in Million) -->
     <g style="fill: #262626" transform="translate(187.739219 329.44375)scale(0.14 -0.14)">
      <defs>
       <path id="DejaVuSans-54" d="M -19 4666 
L 3928 4666 
L 3928 4134 
L 2272 4134 
L 2272 0 
L 1638 0 
L 1638 4134 
L -19 4134 
L -19 4666 
z
" transform="scale(0.015625)"/>
       <path id="DejaVuSans-69" d="M 603 3500 
L 1178 3500 
L 1178 0 
L 603 0 
L 603 3500 
z
M 603 4863 
L 1178 4863 
L 1178 4134 
L 603 4134 
L 603 4863 
z
" transform="scale(0.015625)"/>
       <path id="DejaVuSans-6d" d="M 3328 2828 
Q 3544 3216 3844 3400 
Q 4144 3584 4550 3584 
Q 5097 3584 5394 3201 
Q 5691 2819 5691 2113 
L 5691 0 
L 5113 0 
L 5113 2094 
Q 5113 2597 4934 2840 
Q 4756 3084 4391 3084 
Q 3944 3084 3684 2787 
Q 3425 2491 3425 1978 
L 3425 0 
L 2847 0 
L 2847 2094 
Q 2847 2600 2669 2842 
Q 2491 3084 2119 3084 
Q 1678 3084 1418 2786 
Q 1159 2488 1159 1978 
L 1159 0 
L 581 0 
L 581 3500 
L 1159 3500 
L 1159 2956 
Q 1356 3278 1631 3431 
Q 1906 3584 2284 3584 
Q 2666 3584 2933 3390 
Q 3200 3197 3328 2828 
z
" transform="scale(0.015625)"/>
       <path id="DejaVuSans-65" d="M 3597 1894 
L 3597 1613 
L 953 1613 
Q 991 1019 1311 708 
Q 1631 397 2203 397 
Q 2534 397 2845 478 
Q 3156 559 3463 722 
L 3463 178 
Q 3153 47 2828 -22 
Q 2503 -91 2169 -91 
Q 1331 -91 842 396 
Q 353 884 353 1716 
Q 353 2575 817 3079 
Q 1281 3584 2069 3584 
Q 2775 3584 3186 3129 
Q 3597 2675 3597 1894 
z
M 3022 2063 
Q 3016 2534 2758 2815 
Q 2500 3097 2075 3097 
Q 1594 3097 1305 2825 
Q 1016 2553 972 2059 
L 3022 2063 
z
" transform="scale(0.015625)"/>
       <path id="DejaVuSans-73" d="M 2834 3397 
L 2834 2853 
Q 2591 2978 2328 3040 
Q 2066 3103 1784 3103 
Q 1356 3103 1142 2972 
Q 928 2841 928 2578 
Q 928 2378 1081 2264 
Q 1234 2150 1697 2047 
L 1894 2003 
Q 2506 1872 2764 1633 
Q 3022 1394 3022 966 
Q 3022 478 2636 193 
Q 2250 -91 1575 -91 
Q 1294 -91 989 -36 
Q 684 19 347 128 
L 347 722 
Q 666 556 975 473 
Q 1284 391 1588 391 
Q 1994 391 2212 530 
Q 2431 669 2431 922 
Q 2431 1156 2273 1281 
Q 2116 1406 1581 1522 
L 1381 1569 
Q 847 1681 609 1914 
Q 372 2147 372 2553 
Q 372 3047 722 3315 
Q 1072 3584 1716 3584 
Q 2034 3584 2315 3537 
Q 2597 3491 2834 3397 
z
" transform="scale(0.015625)"/>
       <path id="DejaVuSans-74" d="M 1172 4494 
L 1172 3500 
L 2356 3500 
L 2356 3053 
L 1172 3053 
L 1172 1153 
Q 1172 725 1289 603 
Q 1406 481 1766 481 
L 2356 481 
L 2356 0 
L 1766 0 
Q 1100 0 847 248 
Q 594 497 594 1153 
L 594 3053 
L 172 3053 
L 172 3500 
L 594 3500 
L 594 4494 
L 1172 4494 
z
" transform="scale(0.015625)"/>
       <path id="DejaVuSans-70" d="M 1159 525 
L 1159 -1331 
L 581 -1331 
L 581 3500 
L 1159 3500 
L 1159 2969 
Q 1341 3281 1617 3432 
Q 1894 3584 2278 3584 
Q 2916 3584 3314 3078 
Q 3713 2572 3713 1747 
Q 3713 922 3314 415 
Q 2916 -91 2278 -91 
Q 1894 -91 1617 61 
Q 1341 213 1159 525 
z
M 3116 1747 
Q 3116 2381 2855 2742 
Q 2594 3103 2138 3103 
Q 1681 3103 1420 2742 
Q 1159 2381 1159 1747 
Q 1159 1113 1420 752 
Q 1681 391 2138 391 
Q 2594 391 2855 752 
Q 3116 1113 3116 1747 
z
" transform="scale(0.015625)"/>
       <path id="DejaVuSans-20" transform="scale(0.015625)"/>
       <path id="DejaVuSans-28" d="M 1984 4856 
Q 1566 4138 1362 3434 
Q 1159 2731 1159 2009 
Q 1159 1288 1364 580 
Q 1569 -128 1984 -844 
L 1484 -844 
Q 1016 -109 783 600 
Q 550 1309 550 2009 
Q 550 2706 781 3412 
Q 1013 4119 1484 4856 
L 1984 4856 
z
" transform="scale(0.015625)"/>
       <path id="DejaVuSans-6e" d="M 3513 2113 
L 3513 0 
L 2938 0 
L 2938 2094 
Q 2938 2591 2744 2837 
Q 2550 3084 2163 3084 
Q 1697 3084 1428 2787 
Q 1159 2491 1159 1978 
L 1159 0 
L 581 0 
L 581 3500 
L 1159 3500 
L 1159 2956 
Q 1366 3272 1645 3428 
Q 1925 3584 2291 3584 
Q 2894 3584 3203 3211 
Q 3513 2838 3513 2113 
z
" transform="scale(0.015625)"/>
       <path id="DejaVuSans-4d" d="M 628 4666 
L 1569 4666 
L 2759 1491 
L 3956 4666 
L 4897 4666 
L 4897 0 
L 4281 0 
L 4281 4097 
L 3078 897 
L 2444 897 
L 1241 4097 
L 1241 0 
L 628 0 
L 628 4666 
z
" transform="scale(0.015625)"/>
       <path id="DejaVuSans-6c" d="M 603 4863 
L 1178 4863 
L 1178 0 
L 603 0 
L 603 4863 
z
" transform="scale(0.015625)"/>
       <path id="DejaVuSans-6f" d="M 1959 3097 
Q 1497 3097 1228 2736 
Q 959 2375 959 1747 
Q 959 1119 1226 758 
Q 1494 397 1959 397 
Q 2419 397 2687 759 
Q 2956 1122 2956 1747 
Q 2956 2369 2687 2733 
Q 2419 3097 1959 3097 
z
M 1959 3584 
Q 2709 3584 3137 3096 
Q 3566 2609 3566 1747 
Q 3566 888 3137 398 
Q 2709 -91 1959 -91 
Q 1206 -91 779 398 
Q 353 888 353 1747 
Q 353 2609 779 3096 
Q 1206 3584 1959 3584 
z
" transform="scale(0.015625)"/>
       <path id="DejaVuSans-29" d="M 513 4856 
L 1013 4856 
Q 1481 4119 1714 3412 
Q 1947 2706 1947 2009 
Q 1947 1309 1714 600 
Q 1481 -109 1013 -844 
L 513 -844 
Q 928 -128 1133 580 
Q 1338 1288 1338 2009 
Q 1338 2731 1133 3434 
Q 928 4138 513 4856 
z
" transform="scale(0.015625)"/>
      </defs>
      <use xlink:href="#DejaVuSans-54"/>
      <use xlink:href="#DejaVuSans-69" x="57.958984"/>
      <use xlink:href="#DejaVuSans-6d" x="85.742188"/>
      <use xlink:href="#DejaVuSans-65" x="183.154297"/>
      <use xlink:href="#DejaVuSans-73" x="244.677734"/>
      <use xlink:href="#DejaVuSans-74" x="296.777344"/>
      <use xlink:href="#DejaVuSans-65" x="335.986328"/>
      <use xlink:href="#DejaVuSans-70" x="397.509766"/>
      <use xlink:href="#DejaVuSans-73" x="460.986328"/>
      <use xlink:href="#DejaVuSans-20" x="513.085938"/>
      <use xlink:href="#DejaVuSans-28" x="544.873047"/>
      <use xlink:href="#DejaVuSans-69" x="583.886719"/>
      <use xlink:href="#DejaVuSans-6e" x="611.669922"/>
      <use xlink:href="#DejaVuSans-20" x="675.048828"/>
      <use xlink:href="#DejaVuSans-4d" x="706.835938"/>
      <use xlink:href="#DejaVuSans-69" x="793.115234"/>
      <use xlink:href="#DejaVuSans-6c" x="820.898438"/>
      <use xlink:href="#DejaVuSans-6c" x="848.681641"/>
      <use xlink:href="#DejaVuSans-69" x="876.464844"/>
      <use xlink:href="#DejaVuSans-6f" x="904.248047"/>
      <use xlink:href="#DejaVuSans-6e" x="965.429688"/>
      <use xlink:href="#DejaVuSans-29" x="1028.808594"/>
     </g>
    </g>
   </g>
   <g id="matplotlib.axis_2">
    <g id="ytick_1">
     <g id="line2d_8">
      <path d="M 77.13 248.133875 
L 447.84 248.133875 
" clip-path="url(#pcbc5aae7b1)" style="fill: none; stroke: #ffffff; stroke-linecap: round"/>
     </g>
     <g id="text_9">
      <!-- −3000 -->
      <g style="fill: #262626" transform="translate(30.417344 252.313015)scale(0.11 -0.11)">
       <defs>
        <path id="DejaVuSans-2212" d="M 678 2272 
L 4684 2272 
L 4684 1741 
L 678 1741 
L 678 2272 
z
" transform="scale(0.015625)"/>
       </defs>
       <use xlink:href="#DejaVuSans-2212"/>
       <use xlink:href="#DejaVuSans-33" x="83.789062"/>
       <use xlink:href="#DejaVuSans-30" x="147.412109"/>
       <use xlink:href="#DejaVuSans-30" x="211.035156"/>
       <use xlink:href="#DejaVuSans-30" x="274.658203"/>
      </g>
     </g>
    </g>
    <g id="ytick_2">
     <g id="line2d_9">
      <path d="M 77.13 191.72445 
L 447.84 191.72445 
" clip-path="url(#pcbc5aae7b1)" style="fill: none; stroke: #ffffff; stroke-linecap: round"/>
     </g>
     <g id="text_10">
      <!-- −2000 -->
      <g style="fill: #262626" transform="translate(30.417344 195.903591)scale(0.11 -0.11)">
       <use xlink:href="#DejaVuSans-2212"/>
       <use xlink:href="#DejaVuSans-32" x="83.789062"/>
       <use xlink:href="#DejaVuSans-30" x="147.412109"/>
       <use xlink:href="#DejaVuSans-30" x="211.035156"/>
       <use xlink:href="#DejaVuSans-30" x="274.658203"/>
      </g>
     </g>
    </g>
    <g id="ytick_3">
     <g id="line2d_10">
      <path d="M 77.13 135.315025 
L 447.84 135.315025 
" clip-path="url(#pcbc5aae7b1)" style="fill: none; stroke: #ffffff; stroke-linecap: round"/>
     </g>
     <g id="text_11">
      <!-- −1000 -->
      <g style="fill: #262626" transform="translate(30.417344 139.494166)scale(0.11 -0.11)">
       <use xlink:href="#DejaVuSans-2212"/>
       <use xlink:href="#DejaVuSans-31" x="83.789062"/>
       <use xlink:href="#DejaVuSans-30" x="147.412109"/>
       <use xlink:href="#DejaVuSans-30" x="211.035156"/>
       <use xlink:href="#DejaVuSans-30" x="274.658203"/>
      </g>
     </g>
    </g>
    <g id="ytick_4">
     <g id="line2d_11">
      <path d="M 77.13 78.9056 
L 447.84 78.9056 
" clip-path="url(#pcbc5aae7b1)" style="fill: none; stroke: #ffffff; stroke-linecap: round"/>
     </g>
     <g id="text_12">
      <!-- 0 -->
      <g style="fill: #262626" transform="translate(60.63125 83.084741)scale(0.11 -0.11)">
       <use xlink:href="#DejaVuSans-30"/>
      </g>
     </g>
    </g>
    <g id="text_13">
     <!-- Score -->
     <g style="fill: #262626" transform="translate(23.505781 181.813281)rotate(-90)scale(0.14 -0.14)">
      <defs>
       <path id="DejaVuSans-53" d="M 3425 4513 
L 3425 3897 
Q 3066 4069 2747 4153 
Q 2428 4238 2131 4238 
Q 1616 4238 1336 4038 
Q 1056 3838 1056 3469 
Q 1056 3159 1242 3001 
Q 1428 2844 1947 2747 
L 2328 2669 
Q 3034 2534 3370 2195 
Q 3706 1856 3706 1288 
Q 3706 609 3251 259 
Q 2797 -91 1919 -91 
Q 1588 -91 1214 -16 
Q 841 59 441 206 
L 441 856 
Q 825 641 1194 531 
Q 1563 422 1919 422 
Q 2459 422 2753 634 
Q 3047 847 3047 1241 
Q 3047 1584 2836 1778 
Q 2625 1972 2144 2069 
L 1759 2144 
Q 1053 2284 737 2584 
Q 422 2884 422 3419 
Q 422 4038 858 4394 
Q 1294 4750 2059 4750 
Q 2388 4750 2728 4690 
Q 3069 4631 3425 4513 
z
" transform="scale(0.015625)"/>
       <path id="DejaVuSans-63" d="M 3122 3366 
L 3122 2828 
Q 2878 2963 2633 3030 
Q 2388 3097 2138 3097 
Q 1578 3097 1268 2742 
Q 959 2388 959 1747 
Q 959 1106 1268 751 
Q 1578 397 2138 397 
Q 2388 397 2633 464 
Q 2878 531 3122 666 
L 3122 134 
Q 2881 22 2623 -34 
Q 2366 -91 2075 -91 
Q 1284 -91 818 406 
Q 353 903 353 1747 
Q 353 2603 823 3093 
Q 1294 3584 2113 3584 
Q 2378 3584 2631 3529 
Q 2884 3475 3122 3366 
z
" transform="scale(0.015625)"/>
       <path id="DejaVuSans-72" d="M 2631 2963 
Q 2534 3019 2420 3045 
Q 2306 3072 2169 3072 
Q 1681 3072 1420 2755 
Q 1159 2438 1159 1844 
L 1159 0 
L 581 0 
L 581 3500 
L 1159 3500 
L 1159 2956 
Q 1341 3275 1631 3429 
Q 1922 3584 2338 3584 
Q 2397 3584 2469 3576 
Q 2541 3569 2628 3553 
L 2631 2963 
z
" transform="scale(0.015625)"/>
      </defs>
      <use xlink:href="#DejaVuSans-53"/>
      <use xlink:href="#DejaVuSans-63" x="63.476562"/>
      <use xlink:href="#DejaVuSans-6f" x="118.457031"/>
      <use xlink:href="#DejaVuSans-72" x="179.638672"/>
      <use xlink:href="#DejaVuSans-65" x="218.501953"/>
     </g>
    </g>
   </g>
   <g id="PolyCollection_1">
    <defs>
     <path id="m14a7acfde0" d="M 93.980455 -135.401672 
L 93.980455 -155.571559 
L 96.812464 -151.689513 
L 99.644473 -155.801789 
L 102.476482 -166.274593 
L 105.308491 -261.690191 
L 108.1405 -275.840751 
L 110.97251 -281.774631 
L 113.804519 -278.260177 
L 116.636528 -281.797068 
L 119.468537 -282.948496 
L 122.300546 -282.6267 
L 125.132555 -287.956409 
L 127.964565 -284.540182 
L 130.796574 -292.193935 
L 133.628583 -289.883585 
L 136.460592 -293.321961 
L 139.292601 -291.634014 
L 142.12461 -284.223653 
L 144.95662 -303.799091 
L 147.788629 -285.531577 
L 150.620638 -294.261175 
L 153.452647 -284.55976 
L 156.284656 -292.636264 
L 159.116665 -284.981929 
L 161.948675 -285.264243 
L 164.780684 -288.985841 
L 167.612693 -288.007556 
L 170.444702 -283.64375 
L 173.276711 -281.64713 
L 176.10872 -285.127435 
L 178.94073 -287.176665 
L 181.772739 -283.625404 
L 184.604748 -285.107766 
L 187.436757 -281.944411 
L 190.268766 -287.062829 
L 193.100775 -280.62825 
L 195.932785 -284.21521 
L 198.764794 -286.498632 
L 201.596803 -282.275489 
L 204.428812 -280.858922 
L 207.260821 -285.212448 
L 210.09283 -284.510877 
L 212.92484 -286.792536 
L 215.756849 -280.56897 
L 218.588858 -283.419711 
L 221.420867 -283.688433 
L 224.252876 -282.655744 
L 227.084885 -281.743737 
L 229.916895 -281.368357 
L 232.748904 -281.153881 
L 235.580913 -282.404854 
L 238.412922 -283.683483 
L 241.244931 -282.85574 
L 244.07694 -283.569144 
L 246.90895 -283.567868 
L 249.740959 -282.566231 
L 252.572968 -282.512343 
L 255.404977 -283.685012 
L 258.236986 -283.022614 
L 261.068995 -283.3173 
L 263.901005 -282.803224 
L 266.733014 -284.399942 
L 269.565023 -281.349937 
L 272.397032 -281.866426 
L 275.229041 -283.855225 
L 278.06105 -282.527773 
L 280.89306 -283.023573 
L 283.725069 -282.657959 
L 286.557078 -282.166453 
L 289.389087 -282.226723 
L 292.221096 -281.839177 
L 295.053105 -281.353699 
L 297.885115 -282.481271 
L 300.717124 -282.095153 
L 303.549133 -285.79752 
L 306.381142 -282.358641 
L 309.213151 -282.996838 
L 312.04516 -282.259423 
L 314.87717 -282.693495 
L 317.709179 -282.306201 
L 320.541188 -282.702116 
L 323.373197 -284.029908 
L 326.205206 -281.732913 
L 329.037215 -281.689561 
L 331.869225 -282.804034 
L 334.701234 -283.139619 
L 337.533243 -282.684089 
L 340.365252 -281.848143 
L 343.197261 -281.265649 
L 346.02927 -282.225817 
L 348.86128 -281.94306 
L 351.693289 -281.865525 
L 354.525298 -281.604199 
L 357.357307 -282.116624 
L 360.189316 -284.20484 
L 363.021325 -281.973295 
L 365.853335 -281.365291 
L 368.685344 -281.808247 
L 371.517353 -282.552162 
L 374.349362 -283.203416 
L 377.181371 -281.571107 
L 380.01338 -281.577526 
L 382.84539 -282.582225 
L 385.677399 -282.326384 
L 388.509408 -282.598444 
L 391.341417 -282.928979 
L 394.173426 -282.150665 
L 397.005435 -281.72075 
L 399.837445 -283.069935 
L 402.669454 -282.593324 
L 405.501463 -281.989208 
L 408.333472 -281.723874 
L 411.165481 -282.2122 
L 413.99749 -282.463812 
L 416.8295 -282.072513 
L 419.661509 -281.894464 
L 422.493518 -281.463095 
L 425.325527 -281.644536 
L 428.157536 -281.889539 
L 430.989545 -281.372389 
L 430.989545 -280.084913 
L 430.989545 -280.084913 
L 428.157536 -279.990476 
L 425.325527 -280.87201 
L 422.493518 -280.393104 
L 419.661509 -280.477609 
L 416.8295 -279.685241 
L 413.99749 -280.357494 
L 411.165481 -279.983202 
L 408.333472 -280.604049 
L 405.501463 -280.056928 
L 402.669454 -281.25817 
L 399.837445 -280.361317 
L 397.005435 -280.032452 
L 394.173426 -279.517126 
L 391.341417 -280.596938 
L 388.509408 -280.125319 
L 385.677399 -280.748907 
L 382.84539 -280.727045 
L 380.01338 -279.651966 
L 377.181371 -280.01805 
L 374.349362 -279.733122 
L 371.517353 -279.945635 
L 368.685344 -280.196013 
L 365.853335 -279.827358 
L 363.021325 -279.061448 
L 360.189316 -280.350151 
L 357.357307 -280.783483 
L 354.525298 -278.747267 
L 351.693289 -278.586994 
L 348.86128 -280.407162 
L 346.02927 -280.47533 
L 343.197261 -279.720553 
L 340.365252 -279.3088 
L 337.533243 -279.961259 
L 334.701234 -280.648577 
L 331.869225 -280.062803 
L 329.037215 -280.747687 
L 326.205206 -278.686156 
L 323.373197 -279.855362 
L 320.541188 -279.083525 
L 317.709179 -279.386895 
L 314.87717 -280.499839 
L 312.04516 -279.909491 
L 309.213151 -279.13444 
L 306.381142 -280.025708 
L 303.549133 -280.879157 
L 300.717124 -280.222681 
L 297.885115 -279.781032 
L 295.053105 -279.381765 
L 292.221096 -279.374899 
L 289.389087 -280.15263 
L 286.557078 -279.061325 
L 283.725069 -279.470246 
L 280.89306 -279.150029 
L 278.06105 -279.942106 
L 275.229041 -279.521217 
L 272.397032 -279.550487 
L 269.565023 -280.130991 
L 266.733014 -279.777498 
L 263.901005 -279.301288 
L 261.068995 -280.300282 
L 258.236986 -280.356644 
L 255.404977 -280.440925 
L 252.572968 -279.651352 
L 249.740959 -279.528543 
L 246.90895 -280.917844 
L 244.07694 -279.04337 
L 241.244931 -280.06214 
L 238.412922 -281.244125 
L 235.580913 -278.230119 
L 232.748904 -278.41404 
L 229.916895 -276.933207 
L 227.084885 -279.145467 
L 224.252876 -279.826832 
L 221.420867 -275.943257 
L 218.588858 -278.24457 
L 215.756849 -279.383297 
L 212.92484 -279.638582 
L 210.09283 -278.549285 
L 207.260821 -279.256644 
L 204.428812 -279.06356 
L 201.596803 -276.971635 
L 198.764794 -280.874708 
L 195.932785 -277.886709 
L 193.100775 -278.687993 
L 190.268766 -276.882545 
L 187.436757 -276.55509 
L 184.604748 -278.75378 
L 181.772739 -279.186686 
L 178.94073 -278.789333 
L 176.10872 -279.881985 
L 173.276711 -278.115185 
L 170.444702 -280.482786 
L 167.612693 -278.918023 
L 164.780684 -281.311033 
L 161.948675 -272.900486 
L 159.116665 -278.635051 
L 156.284656 -278.126624 
L 153.452647 -277.513884 
L 150.620638 -275.681019 
L 147.788629 -273.53425 
L 144.95662 -269.597921 
L 142.12461 -280.985866 
L 139.292601 -280.535852 
L 136.460592 -268.18633 
L 133.628583 -265.063879 
L 130.796574 -263.302508 
L 127.964565 -262.675419 
L 125.132555 -257.02719 
L 122.300546 -264.04169 
L 119.468537 -256.35728 
L 116.636528 -264.366292 
L 113.804519 -263.203388 
L 110.97251 -258.795648 
L 108.1405 -267.693808 
L 105.308491 -215.517528 
L 102.476482 -119.915028 
L 99.644473 -117.999124 
L 96.812464 -118.303869 
L 93.980455 -135.401672 
z
" style="stroke: #ffffff; stroke-opacity: 0.5"/>
    </defs>
    <g clip-path="url(#pcbc5aae7b1)">
     <use xlink:href="#m14a7acfde0" x="0" y="345.6" style="fill: #4c72b0; fill-opacity: 0.5; stroke: #ffffff; stroke-opacity: 0.5"/>
    </g>
   </g>
   <g id="PolyCollection_2">
    <defs>
     <path id="mf13ab8d37a" d="M 93.980455 -105.424609 
L 93.980455 -130.510829 
L 96.812464 -135.711251 
L 99.644473 -161.701259 
L 102.476482 -137.453526 
L 105.308491 -199.379061 
L 108.1405 -229.839059 
L 110.97251 -260.185367 
L 113.804519 -281.891923 
L 116.636528 -268.238053 
L 119.468537 -283.3692 
L 122.300546 -277.772488 
L 125.132555 -277.806962 
L 127.964565 -279.379712 
L 130.796574 -285.382524 
L 133.628583 -291.179974 
L 136.460592 -283.160482 
L 139.292601 -282.528955 
L 142.12461 -289.169195 
L 144.95662 -281.227085 
L 147.788629 -293.909652 
L 150.620638 -278.088113 
L 153.452647 -278.86892 
L 156.284656 -276.178197 
L 159.116665 -285.187762 
L 161.948675 -279.951941 
L 164.780684 -284.948612 
L 167.612693 -291.724078 
L 170.444702 -282.363862 
L 173.276711 -280.731248 
L 176.10872 -280.773262 
L 178.94073 -286.609453 
L 181.772739 -281.136307 
L 184.604748 -280.414262 
L 187.436757 -284.539668 
L 190.268766 -280.269017 
L 193.100775 -283.136513 
L 195.932785 -279.441068 
L 198.764794 -276.962632 
L 201.596803 -282.628829 
L 204.428812 -283.705322 
L 207.260821 -283.344115 
L 210.09283 -285.682954 
L 212.92484 -276.565841 
L 215.756849 -281.670145 
L 218.588858 -287.278081 
L 221.420867 -283.986204 
L 224.252876 -284.472951 
L 227.084885 -286.355209 
L 229.916895 -287.309982 
L 232.748904 -290.367102 
L 235.580913 -286.844683 
L 238.412922 -288.493314 
L 241.244931 -287.870723 
L 244.07694 -287.605166 
L 246.90895 -286.899696 
L 249.740959 -282.845184 
L 252.572968 -285.571479 
L 255.404977 -285.230898 
L 258.236986 -282.372517 
L 261.068995 -287.807498 
L 263.901005 -294.003083 
L 266.733014 -281.166775 
L 269.565023 -284.66081 
L 272.397032 -281.710466 
L 275.229041 -283.952487 
L 278.06105 -287.305985 
L 280.89306 -283.172989 
L 283.725069 -287.871101 
L 286.557078 -284.572243 
L 289.389087 -284.593908 
L 292.221096 -284.740297 
L 295.053105 -285.135158 
L 297.885115 -282.735068 
L 300.717124 -285.111788 
L 303.549133 -282.369835 
L 306.381142 -285.563228 
L 309.213151 -285.053101 
L 312.04516 -285.995271 
L 314.87717 -286.037386 
L 317.709179 -288.331158 
L 320.541188 -288.87084 
L 323.373197 -290.705119 
L 326.205206 -290.162429 
L 329.037215 -285.202468 
L 331.869225 -287.837307 
L 334.701234 -286.648025 
L 337.533243 -285.622031 
L 340.365252 -283.045014 
L 343.197261 -288.131582 
L 346.02927 -282.045733 
L 348.86128 -287.101158 
L 351.693289 -284.618348 
L 354.525298 -287.628638 
L 357.357307 -286.658022 
L 360.189316 -287.472724 
L 363.021325 -288.025103 
L 365.853335 -289.368933 
L 368.685344 -286.047512 
L 371.517353 -286.363668 
L 374.349362 -286.42681 
L 377.181371 -288.187162 
L 380.01338 -285.396397 
L 382.84539 -286.303238 
L 385.677399 -286.942761 
L 388.509408 -286.816518 
L 391.341417 -286.374836 
L 394.173426 -284.191732 
L 397.005435 -287.327115 
L 399.837445 -286.54718 
L 402.669454 -284.657775 
L 405.501463 -285.919617 
L 408.333472 -287.257361 
L 411.165481 -289.096319 
L 413.99749 -282.163342 
L 416.8295 -290.220263 
L 419.661509 -286.898448 
L 422.493518 -285.83758 
L 425.325527 -286.500063 
L 428.157536 -285.207092 
L 430.989545 -285.119575 
L 430.989545 -281.07139 
L 430.989545 -281.07139 
L 428.157536 -277.911471 
L 425.325527 -276.236786 
L 422.493518 -276.395714 
L 419.661509 -281.2988 
L 416.8295 -270.726305 
L 413.99749 -273.436614 
L 411.165481 -277.209607 
L 408.333472 -277.996942 
L 405.501463 -271.441212 
L 402.669454 -274.646534 
L 399.837445 -281.313137 
L 397.005435 -279.760791 
L 394.173426 -266.497781 
L 391.341417 -281.642662 
L 388.509408 -279.810226 
L 385.677399 -283.056998 
L 382.84539 -277.794818 
L 380.01338 -272.204607 
L 377.181371 -278.229736 
L 374.349362 -274.012859 
L 371.517353 -279.395274 
L 368.685344 -277.648343 
L 365.853335 -282.404065 
L 363.021325 -268.242989 
L 360.189316 -280.534368 
L 357.357307 -274.378328 
L 354.525298 -275.243723 
L 351.693289 -266.433576 
L 348.86128 -264.049937 
L 346.02927 -272.808776 
L 343.197261 -279.281616 
L 340.365252 -274.57981 
L 337.533243 -278.453586 
L 334.701234 -278.015123 
L 331.869225 -282.851284 
L 329.037215 -270.810531 
L 326.205206 -275.729273 
L 323.373197 -277.190554 
L 320.541188 -269.399423 
L 317.709179 -278.484476 
L 314.87717 -279.596012 
L 312.04516 -280.31708 
L 309.213151 -279.065605 
L 306.381142 -281.25842 
L 303.549133 -278.617282 
L 300.717124 -275.546865 
L 297.885115 -271.068179 
L 295.053105 -270.908963 
L 292.221096 -276.350615 
L 289.389087 -278.885211 
L 286.557078 -277.424501 
L 283.725069 -273.647807 
L 280.89306 -271.967141 
L 278.06105 -264.650274 
L 275.229041 -271.363645 
L 272.397032 -271.453251 
L 269.565023 -277.983613 
L 266.733014 -273.528087 
L 263.901005 -261.933552 
L 261.068995 -277.399739 
L 258.236986 -278.954605 
L 255.404977 -272.843349 
L 252.572968 -272.108665 
L 249.740959 -276.850644 
L 246.90895 -273.031857 
L 244.07694 -270.340995 
L 241.244931 -271.142934 
L 238.412922 -262.914959 
L 235.580913 -274.893661 
L 232.748904 -267.885631 
L 229.916895 -279.607224 
L 227.084885 -279.048588 
L 224.252876 -270.376155 
L 221.420867 -260.482793 
L 218.588858 -276.007504 
L 215.756849 -272.531028 
L 212.92484 -272.375063 
L 210.09283 -275.083392 
L 207.260821 -269.735789 
L 204.428812 -258.506732 
L 201.596803 -262.493381 
L 198.764794 -266.882986 
L 195.932785 -258.13148 
L 193.100775 -260.686573 
L 190.268766 -271.751019 
L 187.436757 -272.032007 
L 184.604748 -265.418139 
L 181.772739 -266.761876 
L 178.94073 -272.872141 
L 176.10872 -264.210809 
L 173.276711 -255.34242 
L 170.444702 -264.394339 
L 167.612693 -267.307398 
L 164.780684 -269.495275 
L 161.948675 -257.811328 
L 159.116665 -263.04057 
L 156.284656 -260.93334 
L 153.452647 -262.653815 
L 150.620638 -250.296898 
L 147.788629 -264.953653 
L 144.95662 -269.760625 
L 142.12461 -268.073497 
L 139.292601 -264.43349 
L 136.460592 -247.271648 
L 133.628583 -275.83712 
L 130.796574 -247.547276 
L 127.964565 -267.705853 
L 125.132555 -254.702084 
L 122.300546 -248.830687 
L 119.468537 -244.121587 
L 116.636528 -242.821191 
L 113.804519 -260.928086 
L 110.97251 -225.943977 
L 108.1405 -200.525491 
L 105.308491 -159.125862 
L 102.476482 -115.474819 
L 99.644473 -113.052483 
L 96.812464 -110.125478 
L 93.980455 -105.424609 
z
" style="stroke: #ffffff; stroke-opacity: 0.5"/>
    </defs>
    <g clip-path="url(#pcbc5aae7b1)">
     <use xlink:href="#mf13ab8d37a" x="0" y="345.6" style="fill: #dd8452; fill-opacity: 0.5; stroke: #ffffff; stroke-opacity: 0.5"/>
    </g>
   </g>
   <g id="PolyCollection_3">
    <defs>
     <path id="m6d4690ec6a" d="M 93.980455 -92.957052 
L 93.980455 -145.726617 
L 96.812464 -151.77906 
L 99.644473 -147.190193 
L 102.476482 -165.609903 
L 105.308491 -189.12837 
L 108.1405 -172.142531 
L 110.97251 -166.097199 
L 113.804519 -168.42034 
L 116.636528 -163.333955 
L 119.468537 -213.388286 
L 122.300546 -199.176912 
L 125.132555 -178.459642 
L 127.964565 -186.240823 
L 130.796574 -185.812782 
L 133.628583 -189.839619 
L 136.460592 -226.179638 
L 139.292601 -202.297302 
L 142.12461 -174.185825 
L 144.95662 -216.475256 
L 147.788629 -215.560452 
L 150.620638 -224.174757 
L 153.452647 -216.042027 
L 156.284656 -215.556674 
L 159.116665 -221.485605 
L 161.948675 -229.877058 
L 164.780684 -220.66253 
L 167.612693 -221.379384 
L 170.444702 -228.487096 
L 173.276711 -253.692921 
L 176.10872 -235.63921 
L 178.94073 -234.066297 
L 181.772739 -229.861044 
L 184.604748 -237.761408 
L 187.436757 -242.007705 
L 190.268766 -234.055102 
L 193.100775 -231.754251 
L 195.932785 -250.41289 
L 198.764794 -255.553402 
L 201.596803 -256.718412 
L 204.428812 -247.622391 
L 207.260821 -265.915369 
L 210.09283 -254.265699 
L 212.92484 -254.865283 
L 215.756849 -251.264601 
L 218.588858 -279.340107 
L 221.420867 -240.510186 
L 224.252876 -250.711383 
L 227.084885 -284.467826 
L 229.916895 -268.594921 
L 232.748904 -265.729377 
L 235.580913 -270.739432 
L 238.412922 -258.436716 
L 241.244931 -267.81646 
L 244.07694 -253.660131 
L 246.90895 -267.477934 
L 249.740959 -264.625749 
L 252.572968 -243.486689 
L 255.404977 -271.714262 
L 258.236986 -262.455819 
L 261.068995 -258.795333 
L 263.901005 -250.608402 
L 266.733014 -262.621968 
L 269.565023 -265.04158 
L 272.397032 -267.790241 
L 275.229041 -250.587269 
L 278.06105 -254.142029 
L 280.89306 -249.831101 
L 283.725069 -253.685376 
L 286.557078 -261.521259 
L 289.389087 -261.153063 
L 292.221096 -260.661853 
L 295.053105 -258.180009 
L 297.885115 -263.173838 
L 300.717124 -248.495902 
L 303.549133 -258.599131 
L 306.381142 -250.296857 
L 309.213151 -256.849577 
L 312.04516 -243.471898 
L 314.87717 -247.915202 
L 317.709179 -253.795123 
L 320.541188 -259.620838 
L 323.373197 -252.963104 
L 326.205206 -253.890997 
L 329.037215 -257.035588 
L 331.869225 -257.70219 
L 334.701234 -263.639222 
L 337.533243 -247.0283 
L 340.365252 -242.342512 
L 343.197261 -254.264708 
L 346.02927 -259.323761 
L 348.86128 -254.6105 
L 351.693289 -257.06918 
L 354.525298 -259.398674 
L 357.357307 -258.935109 
L 360.189316 -254.917952 
L 363.021325 -246.8656 
L 365.853335 -253.179404 
L 368.685344 -250.707623 
L 371.517353 -259.285286 
L 374.349362 -257.072319 
L 377.181371 -261.205526 
L 380.01338 -253.899853 
L 382.84539 -256.272334 
L 385.677399 -252.57146 
L 388.509408 -258.98678 
L 391.341417 -260.241816 
L 394.173426 -258.419778 
L 397.005435 -256.288954 
L 399.837445 -258.649735 
L 402.669454 -244.735304 
L 405.501463 -257.668388 
L 408.333472 -270.397201 
L 411.165481 -256.60489 
L 413.99749 -271.697423 
L 416.8295 -259.292055 
L 419.661509 -256.322413 
L 422.493518 -255.910031 
L 425.325527 -264.628507 
L 428.157536 -258.262985 
L 430.989545 -254.245595 
L 430.989545 -200.662271 
L 430.989545 -200.662271 
L 428.157536 -204.21081 
L 425.325527 -191.261716 
L 422.493518 -214.515744 
L 419.661509 -204.717677 
L 416.8295 -213.169995 
L 413.99749 -209.354665 
L 411.165481 -222.434748 
L 408.333472 -213.18265 
L 405.501463 -204.100183 
L 402.669454 -204.373366 
L 399.837445 -213.839646 
L 397.005435 -185.124747 
L 394.173426 -184.983618 
L 391.341417 -189.251953 
L 388.509408 -162.864911 
L 385.677399 -198.572552 
L 382.84539 -212.080755 
L 380.01338 -209.992823 
L 377.181371 -203.415462 
L 374.349362 -197.355419 
L 371.517353 -203.445863 
L 368.685344 -208.617263 
L 365.853335 -229.646957 
L 363.021325 -211.985601 
L 360.189316 -214.05735 
L 357.357307 -217.772455 
L 354.525298 -220.033525 
L 351.693289 -238.487303 
L 348.86128 -222.867949 
L 346.02927 -230.714057 
L 343.197261 -212.448706 
L 340.365252 -203.400807 
L 337.533243 -204.709671 
L 334.701234 -210.952551 
L 331.869225 -206.732014 
L 329.037215 -210.16105 
L 326.205206 -208.545744 
L 323.373197 -228.486812 
L 320.541188 -221.230865 
L 317.709179 -215.683612 
L 314.87717 -203.616919 
L 312.04516 -227.995987 
L 309.213151 -210.25981 
L 306.381142 -227.811591 
L 303.549133 -197.934393 
L 300.717124 -223.196973 
L 297.885115 -201.024184 
L 295.053105 -224.985135 
L 292.221096 -221.245885 
L 289.389087 -188.385931 
L 286.557078 -219.823938 
L 283.725069 -188.542342 
L 280.89306 -205.407374 
L 278.06105 -218.91689 
L 275.229041 -207.463096 
L 272.397032 -212.486184 
L 269.565023 -204.693885 
L 266.733014 -216.677857 
L 263.901005 -219.522712 
L 261.068995 -212.582205 
L 258.236986 -192.657925 
L 255.404977 -207.554352 
L 252.572968 -224.464926 
L 249.740959 -223.72499 
L 246.90895 -230.709355 
L 244.07694 -233.999508 
L 241.244931 -214.819835 
L 238.412922 -228.750402 
L 235.580913 -222.037533 
L 232.748904 -210.291769 
L 229.916895 -213.783068 
L 227.084885 -218.291467 
L 224.252876 -171.141003 
L 221.420867 -206.428513 
L 218.588858 -199.103012 
L 215.756849 -199.47571 
L 212.92484 -210.30495 
L 210.09283 -225.993938 
L 207.260821 -196.009329 
L 204.428812 -193.244838 
L 201.596803 -212.061175 
L 198.764794 -188.250477 
L 195.932785 -211.63352 
L 193.100775 -189.709258 
L 190.268766 -206.818318 
L 187.436757 -209.443296 
L 184.604748 -184.0883 
L 181.772739 -203.254897 
L 178.94073 -175.042113 
L 176.10872 -169.304309 
L 173.276711 -177.025154 
L 170.444702 -175.325202 
L 167.612693 -190.34903 
L 164.780684 -175.500602 
L 161.948675 -170.380648 
L 159.116665 -178.754114 
L 156.284656 -179.425336 
L 153.452647 -162.597812 
L 150.620638 -142.34676 
L 147.788629 -167.37232 
L 144.95662 -183.046529 
L 142.12461 -158.108333 
L 139.292601 -160.94744 
L 136.460592 -161.299804 
L 133.628583 -147.462792 
L 130.796574 -141.647569 
L 127.964565 -144.217853 
L 125.132555 -155.000989 
L 122.300546 -141.051272 
L 119.468537 -128.746112 
L 116.636528 -146.656711 
L 113.804519 -136.924837 
L 110.97251 -141.379833 
L 108.1405 -146.2007 
L 105.308491 -134.852196 
L 102.476482 -105.246549 
L 99.644473 -118.349343 
L 96.812464 -130.869273 
L 93.980455 -92.957052 
z
" style="stroke: #ffffff; stroke-opacity: 0.5"/>
    </defs>
    <g clip-path="url(#pcbc5aae7b1)">
     <use xlink:href="#m6d4690ec6a" x="0" y="345.6" style="fill: #55a868; fill-opacity: 0.5; stroke: #ffffff; stroke-opacity: 0.5"/>
    </g>
   </g>
   <g id="PolyCollection_4">
    <defs>
     <path id="m1816041353" d="M 93.980455 -115.973415 
L 93.980455 -138.378609 
L 96.812464 -148.597839 
L 99.644473 -151.707842 
L 102.476482 -175.281688 
L 105.308491 -173.767668 
L 108.1405 -180.376654 
L 110.97251 -194.059689 
L 113.804519 -168.650531 
L 116.636528 -166.781098 
L 119.468537 -167.817587 
L 122.300546 -191.523543 
L 125.132555 -203.249341 
L 127.964565 -200.486697 
L 130.796574 -214.056158 
L 133.628583 -199.036474 
L 136.460592 -196.389737 
L 139.292601 -186.46357 
L 142.12461 -190.960061 
L 144.95662 -202.550245 
L 147.788629 -214.137473 
L 150.620638 -203.568584 
L 153.452647 -234.877275 
L 156.284656 -220.165564 
L 159.116665 -199.186717 
L 161.948675 -198.687094 
L 164.780684 -221.465026 
L 167.612693 -219.445092 
L 170.444702 -225.874853 
L 173.276711 -222.56864 
L 176.10872 -228.828983 
L 178.94073 -214.577702 
L 181.772739 -217.507526 
L 184.604748 -248.305448 
L 187.436757 -265.236176 
L 190.268766 -232.831797 
L 193.100775 -257.960317 
L 195.932785 -243.065461 
L 198.764794 -251.684496 
L 201.596803 -248.086547 
L 204.428812 -256.048991 
L 207.260821 -252.277947 
L 210.09283 -277.110543 
L 212.92484 -255.371382 
L 215.756849 -259.474073 
L 218.588858 -255.339272 
L 221.420867 -265.583489 
L 224.252876 -275.399661 
L 227.084885 -267.002706 
L 229.916895 -269.729489 
L 232.748904 -266.371327 
L 235.580913 -275.749482 
L 238.412922 -274.870434 
L 241.244931 -262.194056 
L 244.07694 -263.16972 
L 246.90895 -237.617608 
L 249.740959 -264.004422 
L 252.572968 -231.312286 
L 255.404977 -252.315989 
L 258.236986 -254.639706 
L 261.068995 -243.03665 
L 263.901005 -251.173581 
L 266.733014 -233.662165 
L 269.565023 -224.154732 
L 272.397032 -237.668348 
L 275.229041 -220.42095 
L 278.06105 -232.237601 
L 280.89306 -206.684628 
L 283.725069 -222.002162 
L 286.557078 -233.377958 
L 289.389087 -229.659094 
L 292.221096 -238.104241 
L 295.053105 -226.718124 
L 297.885115 -256.611721 
L 300.717124 -257.879794 
L 303.549133 -234.24829 
L 306.381142 -257.022201 
L 309.213151 -260.25767 
L 312.04516 -242.084862 
L 314.87717 -249.285592 
L 317.709179 -226.520179 
L 320.541188 -257.828662 
L 323.373197 -245.367347 
L 326.205206 -242.819031 
L 329.037215 -265.801698 
L 331.869225 -253.71934 
L 334.701234 -252.622545 
L 337.533243 -260.193542 
L 340.365252 -247.39403 
L 343.197261 -241.508548 
L 346.02927 -256.361208 
L 348.86128 -243.809243 
L 351.693289 -256.222386 
L 354.525298 -224.637033 
L 357.357307 -235.595502 
L 360.189316 -224.288937 
L 363.021325 -244.689047 
L 365.853335 -254.648112 
L 368.685344 -240.449606 
L 371.517353 -260.580153 
L 374.349362 -259.732735 
L 377.181371 -229.551531 
L 380.01338 -242.464197 
L 382.84539 -228.616392 
L 385.677399 -243.400163 
L 388.509408 -230.120901 
L 391.341417 -229.249298 
L 394.173426 -244.326032 
L 397.005435 -253.563569 
L 399.837445 -235.77375 
L 402.669454 -250.309317 
L 405.501463 -255.052306 
L 408.333472 -261.637911 
L 411.165481 -253.842058 
L 413.99749 -233.130678 
L 416.8295 -243.969604 
L 419.661509 -239.977459 
L 422.493518 -234.053373 
L 425.325527 -242.141017 
L 428.157536 -252.805546 
L 430.989545 -259.760343 
L 430.989545 -161.295949 
L 430.989545 -161.295949 
L 428.157536 -173.397121 
L 425.325527 -180.452305 
L 422.493518 -157.022713 
L 419.661509 -183.717159 
L 416.8295 -163.16607 
L 413.99749 -174.242102 
L 411.165481 -169.143459 
L 408.333472 -168.857545 
L 405.501463 -172.065748 
L 402.669454 -182.733411 
L 399.837445 -144.073505 
L 397.005435 -159.932704 
L 394.173426 -172.647162 
L 391.341417 -193.533268 
L 388.509408 -177.823091 
L 385.677399 -192.636338 
L 382.84539 -186.725105 
L 380.01338 -177.326688 
L 377.181371 -180.566909 
L 374.349362 -175.173209 
L 371.517353 -170.493487 
L 368.685344 -172.365448 
L 365.853335 -183.155849 
L 363.021325 -199.575527 
L 360.189316 -188.112057 
L 357.357307 -194.109205 
L 354.525298 -190.339066 
L 351.693289 -190.754495 
L 348.86128 -189.693499 
L 346.02927 -193.798564 
L 343.197261 -181.760361 
L 340.365252 -185.140214 
L 337.533243 -172.088411 
L 334.701234 -147.401169 
L 331.869225 -181.543301 
L 329.037215 -170.849713 
L 326.205206 -165.293405 
L 323.373197 -171.237981 
L 320.541188 -176.640882 
L 317.709179 -186.455821 
L 314.87717 -180.337063 
L 312.04516 -170.36052 
L 309.213151 -165.773376 
L 306.381142 -171.854221 
L 303.549133 -189.547911 
L 300.717124 -165.604646 
L 297.885115 -185.004359 
L 295.053105 -166.418643 
L 292.221096 -199.793933 
L 289.389087 -192.193046 
L 286.557078 -195.445879 
L 283.725069 -180.773921 
L 280.89306 -168.717911 
L 278.06105 -164.846127 
L 275.229041 -173.72104 
L 272.397032 -156.013312 
L 269.565023 -165.902527 
L 266.733014 -186.805005 
L 263.901005 -195.419512 
L 261.068995 -198.08798 
L 258.236986 -200.169266 
L 255.404977 -181.067712 
L 252.572968 -190.689015 
L 249.740959 -183.89441 
L 246.90895 -183.120024 
L 244.07694 -176.625132 
L 241.244931 -208.994039 
L 238.412922 -205.310801 
L 235.580913 -199.30779 
L 232.748904 -188.572963 
L 229.916895 -181.313565 
L 227.084885 -201.188505 
L 224.252876 -195.949721 
L 221.420867 -181.901818 
L 218.588858 -181.943735 
L 215.756849 -168.606187 
L 212.92484 -170.302683 
L 210.09283 -193.759423 
L 207.260821 -206.485909 
L 204.428812 -184.773942 
L 201.596803 -205.940141 
L 198.764794 -186.021302 
L 195.932785 -197.452152 
L 193.100775 -184.252485 
L 190.268766 -194.737218 
L 187.436757 -183.731509 
L 184.604748 -177.030553 
L 181.772739 -157.365144 
L 178.94073 -187.512385 
L 176.10872 -182.363857 
L 173.276711 -177.71213 
L 170.444702 -179.597009 
L 167.612693 -182.479645 
L 164.780684 -177.045032 
L 161.948675 -150.68452 
L 159.116665 -160.969804 
L 156.284656 -168.96849 
L 153.452647 -192.037044 
L 150.620638 -138.944213 
L 147.788629 -174.491449 
L 144.95662 -159.226771 
L 142.12461 -170.42738 
L 139.292601 -148.834405 
L 136.460592 -154.789548 
L 133.628583 -162.517878 
L 130.796574 -166.553777 
L 127.964565 -139.25954 
L 125.132555 -155.249496 
L 122.300546 -162.38824 
L 119.468537 -135.058366 
L 116.636528 -146.545643 
L 113.804519 -151.284593 
L 110.97251 -140.397606 
L 108.1405 -154.011483 
L 105.308491 -157.398365 
L 102.476482 -115.564383 
L 99.644473 -116.202422 
L 96.812464 -114.501786 
L 93.980455 -115.973415 
z
" style="stroke: #ffffff; stroke-opacity: 0.5"/>
    </defs>
    <g clip-path="url(#pcbc5aae7b1)">
     <use xlink:href="#m1816041353" x="0" y="345.6" style="fill: #c44e52; fill-opacity: 0.5; stroke: #ffffff; stroke-opacity: 0.5"/>
    </g>
   </g>
   <g id="PolyCollection_5">
    <defs>
     <path id="med63149c03" d="M 93.980455 -105.494021 
L 93.980455 -137.485879 
L 96.812464 -138.437785 
L 99.644473 -150.012173 
L 102.476482 -144.343475 
L 105.308491 -176.255307 
L 108.1405 -155.653363 
L 110.97251 -174.923908 
L 113.804519 -173.844947 
L 116.636528 -167.387869 
L 119.468537 -179.499416 
L 122.300546 -183.493746 
L 125.132555 -203.263536 
L 127.964565 -212.670669 
L 130.796574 -195.112381 
L 133.628583 -240.111615 
L 136.460592 -216.108733 
L 139.292601 -237.397501 
L 142.12461 -233.983766 
L 144.95662 -211.961031 
L 147.788629 -199.496548 
L 150.620638 -216.042315 
L 153.452647 -204.129274 
L 156.284656 -221.353282 
L 159.116665 -225.533304 
L 161.948675 -229.101302 
L 164.780684 -236.112118 
L 167.612693 -233.531889 
L 170.444702 -233.331209 
L 173.276711 -239.543578 
L 176.10872 -244.740934 
L 178.94073 -257.708115 
L 181.772739 -236.213153 
L 184.604748 -249.773424 
L 187.436757 -229.724584 
L 190.268766 -252.098428 
L 193.100775 -249.93367 
L 195.932785 -246.299473 
L 198.764794 -252.358289 
L 201.596803 -268.321109 
L 204.428812 -255.004003 
L 207.260821 -260.411302 
L 210.09283 -244.327505 
L 212.92484 -244.546543 
L 215.756849 -247.570962 
L 218.588858 -246.632715 
L 221.420867 -230.116893 
L 224.252876 -226.218723 
L 227.084885 -265.055146 
L 229.916895 -210.521826 
L 232.748904 -229.610898 
L 235.580913 -229.18123 
L 238.412922 -251.111916 
L 241.244931 -229.179331 
L 244.07694 -237.399701 
L 246.90895 -243.484708 
L 249.740959 -246.396183 
L 252.572968 -248.618242 
L 255.404977 -227.109543 
L 258.236986 -226.297043 
L 261.068995 -226.50915 
L 263.901005 -233.90686 
L 266.733014 -247.501622 
L 269.565023 -231.59773 
L 272.397032 -233.568123 
L 275.229041 -210.272646 
L 278.06105 -231.534894 
L 280.89306 -231.971105 
L 283.725069 -247.630957 
L 286.557078 -219.689312 
L 289.389087 -231.408478 
L 292.221096 -232.881759 
L 295.053105 -224.139949 
L 297.885115 -219.328806 
L 300.717124 -242.742849 
L 303.549133 -221.992734 
L 306.381142 -236.18646 
L 309.213151 -245.69921 
L 312.04516 -206.336694 
L 314.87717 -245.709636 
L 317.709179 -219.343487 
L 320.541188 -225.056794 
L 323.373197 -227.490671 
L 326.205206 -211.798818 
L 329.037215 -191.427825 
L 331.869225 -202.570932 
L 334.701234 -215.799648 
L 337.533243 -204.578905 
L 340.365252 -226.17667 
L 343.197261 -202.969152 
L 346.02927 -210.36263 
L 348.86128 -202.317755 
L 351.693289 -230.30993 
L 354.525298 -226.191591 
L 357.357307 -201.010042 
L 360.189316 -210.007242 
L 363.021325 -208.480034 
L 365.853335 -214.63555 
L 368.685344 -192.855167 
L 371.517353 -204.742124 
L 374.349362 -214.144608 
L 377.181371 -187.300607 
L 380.01338 -208.156185 
L 382.84539 -218.416535 
L 385.677399 -199.640538 
L 388.509408 -215.332721 
L 391.341417 -208.36878 
L 394.173426 -196.74533 
L 397.005435 -215.469864 
L 399.837445 -205.914305 
L 402.669454 -221.281031 
L 405.501463 -214.841784 
L 408.333472 -213.63944 
L 411.165481 -192.224751 
L 413.99749 -200.193866 
L 416.8295 -214.477146 
L 419.661509 -217.433357 
L 422.493518 -202.773143 
L 425.325527 -211.018247 
L 428.157536 -208.245948 
L 430.989545 -217.770217 
L 430.989545 -141.512087 
L 430.989545 -141.512087 
L 428.157536 -127.884744 
L 425.325527 -139.874481 
L 422.493518 -164.448367 
L 419.661509 -170.228155 
L 416.8295 -179.529423 
L 413.99749 -164.172953 
L 411.165481 -158.093242 
L 408.333472 -122.527203 
L 405.501463 -169.553146 
L 402.669454 -135.32966 
L 399.837445 -167.431971 
L 397.005435 -174.948552 
L 394.173426 -151.179412 
L 391.341417 -179.984684 
L 388.509408 -140.261379 
L 385.677399 -159.887921 
L 382.84539 -145.002938 
L 380.01338 -138.026819 
L 377.181371 -141.28968 
L 374.349362 -165.666901 
L 371.517353 -162.603996 
L 368.685344 -152.271352 
L 365.853335 -170.187712 
L 363.021325 -146.017029 
L 360.189316 -141.922759 
L 357.357307 -148.977173 
L 354.525298 -164.52583 
L 351.693289 -163.692012 
L 348.86128 -132.547445 
L 346.02927 -137.607802 
L 343.197261 -117.778289 
L 340.365252 -104.995799 
L 337.533243 -116.873852 
L 334.701234 -158.741494 
L 331.869225 -151.64454 
L 329.037215 -145.292277 
L 326.205206 -126.14081 
L 323.373197 -98.944727 
L 320.541188 -145.166292 
L 317.709179 -103.803329 
L 314.87717 -95.148691 
L 312.04516 -160.483374 
L 309.213151 -107.331076 
L 306.381142 -106.518973 
L 303.549133 -124.879273 
L 300.717124 -180.557358 
L 297.885115 -174.369472 
L 295.053105 -181.046289 
L 292.221096 -109.549847 
L 289.389087 -173.35824 
L 286.557078 -122.463689 
L 283.725069 -96.518148 
L 280.89306 -156.104234 
L 278.06105 -104.755535 
L 275.229041 -161.231562 
L 272.397032 -105.955389 
L 269.565023 -128.656228 
L 266.733014 -160.868509 
L 263.901005 -185.6753 
L 261.068995 -111.612188 
L 258.236986 -146.535945 
L 255.404977 -180.598738 
L 252.572968 -141.241729 
L 249.740959 -158.319084 
L 246.90895 -151.783386 
L 244.07694 -176.086982 
L 241.244931 -177.15134 
L 238.412922 -182.686776 
L 235.580913 -191.218154 
L 232.748904 -200.250762 
L 229.916895 -189.850526 
L 227.084885 -177.205264 
L 224.252876 -161.870524 
L 221.420867 -178.906731 
L 218.588858 -183.436019 
L 215.756849 -192.305883 
L 212.92484 -171.561773 
L 210.09283 -192.351754 
L 207.260821 -186.443492 
L 204.428812 -181.373093 
L 201.596803 -170.43078 
L 198.764794 -203.109227 
L 195.932785 -213.098518 
L 193.100775 -183.098143 
L 190.268766 -196.604282 
L 187.436757 -189.52458 
L 184.604748 -189.706125 
L 181.772739 -184.18537 
L 178.94073 -191.665931 
L 176.10872 -191.174899 
L 173.276711 -203.397906 
L 170.444702 -180.569545 
L 167.612693 -191.314322 
L 164.780684 -178.605658 
L 161.948675 -141.818565 
L 159.116665 -174.393652 
L 156.284656 -190.976476 
L 153.452647 -177.260242 
L 150.620638 -165.159577 
L 147.788629 -154.393523 
L 144.95662 -175.6399 
L 142.12461 -175.725552 
L 139.292601 -161.000295 
L 136.460592 -158.527713 
L 133.628583 -152.07218 
L 130.796574 -156.558602 
L 127.964565 -167.653944 
L 125.132555 -151.079798 
L 122.300546 -152.842765 
L 119.468537 -150.916351 
L 116.636528 -142.0529 
L 113.804519 -141.584292 
L 110.97251 -144.780547 
L 108.1405 -143.534387 
L 105.308491 -145.654741 
L 102.476482 -114.908941 
L 99.644473 -109.579466 
L 96.812464 -106.552193 
L 93.980455 -105.494021 
z
" style="stroke: #ffffff; stroke-opacity: 0.5"/>
    </defs>
    <g clip-path="url(#pcbc5aae7b1)">
     <use xlink:href="#med63149c03" x="0" y="345.6" style="fill: #8172b3; fill-opacity: 0.5; stroke: #ffffff; stroke-opacity: 0.5"/>
    </g>
   </g>
   <g id="PolyCollection_6">
    <defs>
     <path id="m7e09885bef" d="M 93.980455 -109.654402 
L 93.980455 -142.745739 
L 96.812464 -154.21634 
L 99.644473 -162.725907 
L 102.476482 -170.757199 
L 105.308491 -175.403087 
L 108.1405 -173.383655 
L 110.97251 -192.394944 
L 113.804519 -162.807365 
L 116.636528 -181.147482 
L 119.468537 -178.730984 
L 122.300546 -177.628451 
L 125.132555 -202.082864 
L 127.964565 -177.426589 
L 130.796574 -173.115269 
L 133.628583 -191.228952 
L 136.460592 -168.899799 
L 139.292601 -196.846194 
L 142.12461 -172.473865 
L 144.95662 -193.990055 
L 147.788629 -192.007295 
L 150.620638 -192.363114 
L 153.452647 -189.063579 
L 156.284656 -186.951924 
L 159.116665 -200.454633 
L 161.948675 -185.765204 
L 164.780684 -210.947473 
L 167.612693 -190.887574 
L 170.444702 -185.920346 
L 173.276711 -184.786133 
L 176.10872 -226.03104 
L 178.94073 -195.968283 
L 181.772739 -192.352513 
L 184.604748 -205.739611 
L 187.436757 -186.142834 
L 190.268766 -184.86114 
L 193.100775 -178.605729 
L 195.932785 -204.201391 
L 198.764794 -197.64882 
L 201.596803 -189.002737 
L 204.428812 -194.810306 
L 207.260821 -186.477077 
L 210.09283 -198.671558 
L 212.92484 -176.109686 
L 215.756849 -193.530111 
L 218.588858 -190.82972 
L 221.420867 -187.829832 
L 224.252876 -207.892763 
L 227.084885 -167.833121 
L 229.916895 -168.0811 
L 232.748904 -212.997967 
L 235.580913 -200.243317 
L 238.412922 -199.339695 
L 241.244931 -187.118511 
L 244.07694 -187.03339 
L 246.90895 -164.230509 
L 249.740959 -174.210604 
L 252.572968 -173.803412 
L 255.404977 -168.372195 
L 258.236986 -157.176846 
L 261.068995 -168.468224 
L 263.901005 -174.815005 
L 266.733014 -180.363468 
L 269.565023 -174.433977 
L 272.397032 -199.049974 
L 275.229041 -159.892625 
L 278.06105 -174.849963 
L 280.89306 -159.22387 
L 283.725069 -174.054915 
L 286.557078 -170.290427 
L 289.389087 -173.977623 
L 292.221096 -182.855405 
L 295.053105 -161.480266 
L 297.885115 -166.235376 
L 300.717124 -174.164131 
L 303.549133 -167.515715 
L 306.381142 -183.223015 
L 309.213151 -188.101141 
L 312.04516 -157.917272 
L 314.87717 -158.3818 
L 317.709179 -152.046991 
L 320.541188 -178.7176 
L 323.373197 -168.432927 
L 326.205206 -154.256404 
L 329.037215 -165.767388 
L 331.869225 -178.536855 
L 334.701234 -170.488889 
L 337.533243 -164.742435 
L 340.365252 -179.83827 
L 343.197261 -180.726796 
L 346.02927 -192.167679 
L 348.86128 -175.954141 
L 351.693289 -180.46913 
L 354.525298 -200.200953 
L 357.357307 -174.230523 
L 360.189316 -166.426218 
L 363.021325 -177.021609 
L 365.853335 -172.789318 
L 368.685344 -153.920257 
L 371.517353 -183.200592 
L 374.349362 -172.614356 
L 377.181371 -183.815888 
L 380.01338 -173.145624 
L 382.84539 -166.260613 
L 385.677399 -164.38125 
L 388.509408 -170.491213 
L 391.341417 -167.583419 
L 394.173426 -165.803863 
L 397.005435 -177.945772 
L 399.837445 -154.905036 
L 402.669454 -167.370404 
L 405.501463 -163.211247 
L 408.333472 -160.693656 
L 411.165481 -166.222455 
L 413.99749 -153.736563 
L 416.8295 -179.438302 
L 419.661509 -147.431787 
L 422.493518 -171.695144 
L 425.325527 -183.732725 
L 428.157536 -167.073679 
L 430.989545 -158.520128 
L 430.989545 -136.8037 
L 430.989545 -136.8037 
L 428.157536 -142.307434 
L 425.325527 -138.068125 
L 422.493518 -130.99935 
L 419.661509 -115.448125 
L 416.8295 -127.582095 
L 413.99749 -112.93847 
L 411.165481 -130.116344 
L 408.333472 -123.841886 
L 405.501463 -115.116867 
L 402.669454 -137.390201 
L 399.837445 -140.671372 
L 397.005435 -128.487145 
L 394.173426 -126.556615 
L 391.341417 -119.825979 
L 388.509408 -129.399949 
L 385.677399 -103.00777 
L 382.84539 -106.498448 
L 380.01338 -144.687518 
L 377.181371 -129.636093 
L 374.349362 -116.911003 
L 371.517353 -120.313085 
L 368.685344 -111.939914 
L 365.853335 -122.225035 
L 363.021325 -118.374206 
L 360.189316 -125.40731 
L 357.357307 -139.388394 
L 354.525298 -134.845925 
L 351.693289 -126.942242 
L 348.86128 -108.125425 
L 346.02927 -104.378089 
L 343.197261 -116.756726 
L 340.365252 -125.288164 
L 337.533243 -118.423898 
L 334.701234 -125.531191 
L 331.869225 -108.967581 
L 329.037215 -129.694101 
L 326.205206 -117.906966 
L 323.373197 -132.382634 
L 320.541188 -139.739179 
L 317.709179 -120.592952 
L 314.87717 -113.497686 
L 312.04516 -97.286095 
L 309.213151 -121.42205 
L 306.381142 -123.301056 
L 303.549133 -128.483621 
L 300.717124 -138.588535 
L 297.885115 -126.933577 
L 295.053105 -117.39609 
L 292.221096 -140.509163 
L 289.389087 -94.453092 
L 286.557078 -126.692599 
L 283.725069 -102.785431 
L 280.89306 -129.589036 
L 278.06105 -141.917192 
L 275.229041 -93.482537 
L 272.397032 -145.608226 
L 269.565023 -87.979637 
L 266.733014 -108.419351 
L 263.901005 -126.716156 
L 261.068995 -133.851645 
L 258.236986 -133.075903 
L 255.404977 -130.608447 
L 252.572968 -130.935562 
L 249.740959 -151.281958 
L 246.90895 -134.105568 
L 244.07694 -156.409881 
L 241.244931 -148.962616 
L 238.412922 -102.801278 
L 235.580913 -144.851087 
L 232.748904 -144.13035 
L 229.916895 -144.361799 
L 227.084885 -136.34363 
L 224.252876 -142.664469 
L 221.420867 -156.083524 
L 218.588858 -162.745217 
L 215.756849 -140.908056 
L 212.92484 -148.119136 
L 210.09283 -159.712436 
L 207.260821 -151.741317 
L 204.428812 -134.495557 
L 201.596803 -152.124309 
L 198.764794 -146.532051 
L 195.932785 -152.661603 
L 193.100775 -154.090067 
L 190.268766 -152.738204 
L 187.436757 -152.251115 
L 184.604748 -152.554581 
L 181.772739 -173.741509 
L 178.94073 -149.11126 
L 176.10872 -141.958264 
L 173.276711 -154.219373 
L 170.444702 -154.156451 
L 167.612693 -130.675118 
L 164.780684 -62.980909 
L 161.948675 -154.414075 
L 159.116665 -161.379719 
L 156.284656 -155.796521 
L 153.452647 -153.896094 
L 150.620638 -152.512102 
L 147.788629 -155.77934 
L 144.95662 -166.253418 
L 142.12461 -152.256335 
L 139.292601 -149.801126 
L 136.460592 -149.988098 
L 133.628583 -153.670183 
L 130.796574 -128.291916 
L 127.964565 -146.945561 
L 125.132555 -155.399612 
L 122.300546 -142.904309 
L 119.468537 -156.034159 
L 116.636528 -155.204201 
L 113.804519 -141.999166 
L 110.97251 -151.681933 
L 108.1405 -131.666764 
L 105.308491 -131.202213 
L 102.476482 -126.685651 
L 99.644473 -117.753687 
L 96.812464 -110.147638 
L 93.980455 -109.654402 
z
" style="stroke: #ffffff; stroke-opacity: 0.5"/>
    </defs>
    <g clip-path="url(#pcbc5aae7b1)">
     <use xlink:href="#m7e09885bef" x="0" y="345.6" style="fill: #937860; fill-opacity: 0.5; stroke: #ffffff; stroke-opacity: 0.5"/>
    </g>
   </g>
   <g id="line2d_12">
    <path d="M 93.980455 201.824484 
L 96.812464 213.823235 
L 99.644473 207.848371 
L 102.476482 205.714478 
L 105.308491 107.789629 
L 108.1405 74.844352 
L 110.97251 73.473844 
L 113.804519 76.503971 
L 116.636528 72.488363 
L 119.468537 72.517895 
L 122.300546 72.509053 
L 125.132555 69.822518 
L 127.964565 70.892114 
L 130.796574 64.273675 
L 133.628583 64.544061 
L 136.460592 65.366 
L 139.292601 60.595666 
L 142.12461 62.351112 
L 144.95662 63.272781 
L 147.788629 65.747255 
L 150.620638 63.477084 
L 153.452647 64.591539 
L 156.284656 60.15669 
L 159.116665 64.388085 
L 161.948675 66.224713 
L 164.780684 61.801319 
L 167.612693 62.505016 
L 170.444702 63.976568 
L 173.276711 65.422475 
L 176.10872 64.222586 
L 178.94073 63.417116 
L 181.772739 64.06591 
L 184.604748 64.426218 
L 187.436757 65.703579 
L 190.268766 64.945622 
L 193.100775 65.858999 
L 195.932785 65.471024 
L 198.764794 62.4636 
L 201.596803 65.295624 
L 204.428812 65.669849 
L 207.260821 63.780772 
L 210.09283 64.622893 
L 212.92484 62.244337 
L 215.756849 65.777309 
L 218.588858 65.482471 
L 221.420867 64.750235 
L 224.252876 64.598854 
L 227.084885 65.1266 
L 229.916895 66.053758 
L 232.748904 66.113599 
L 235.580913 65.656598 
L 238.412922 63.219681 
L 241.244931 64.157611 
L 244.07694 64.754973 
L 246.90895 63.522947 
L 249.740959 64.628145 
L 252.572968 64.578771 
L 255.404977 63.694168 
L 258.236986 64.197937 
L 261.068995 63.750532 
L 263.901005 64.006274 
L 266.733014 63.805921 
L 269.565023 64.704613 
L 272.397032 64.841641 
L 275.229041 64.267202 
L 278.06105 64.283172 
L 280.89306 64.639698 
L 283.725069 64.246011 
L 286.557078 65.071687 
L 289.389087 64.593358 
L 292.221096 64.984254 
L 295.053105 65.278581 
L 297.885115 64.631115 
L 300.717124 64.559155 
L 303.549133 62.865268 
L 306.381142 64.865015 
L 309.213151 64.36857 
L 312.04516 64.627089 
L 314.87717 64.144892 
L 317.709179 64.780265 
L 320.541188 64.541936 
L 323.373197 63.923109 
L 326.205206 65.024206 
L 329.037215 64.399252 
L 331.869225 64.190784 
L 334.701234 63.813479 
L 337.533243 64.082609 
L 340.365252 64.990998 
L 343.197261 64.864603 
L 346.02927 64.551618 
L 348.86128 64.572934 
L 351.693289 64.789913 
L 354.525298 65.28151 
L 357.357307 64.385694 
L 360.189316 63.317507 
L 363.021325 64.947869 
L 365.853335 64.844772 
L 368.685344 64.469109 
L 371.517353 64.575507 
L 374.349362 64.520519 
L 377.181371 64.80051 
L 380.01338 64.911312 
L 382.84539 64.247622 
L 385.677399 64.388876 
L 388.509408 64.055494 
L 391.341417 63.721319 
L 394.173426 64.490192 
L 397.005435 64.57847 
L 399.837445 64.090704 
L 402.669454 63.812082 
L 405.501463 64.602419 
L 408.333472 64.431072 
L 411.165481 64.444992 
L 413.99749 64.389172 
L 416.8295 64.661342 
L 419.661509 64.474707 
L 422.493518 64.647942 
L 425.325527 64.224171 
L 428.157536 64.65907 
L 430.989545 64.821061 
" clip-path="url(#pcbc5aae7b1)" style="fill: none; stroke: #4c72b0; stroke-width: 3; stroke-linecap: round"/>
   </g>
   <g id="line2d_13">
    <path d="M 93.980455 224.66958 
L 96.812464 221.288201 
L 99.644473 208.155779 
L 102.476482 224.088984 
L 105.308491 163.456471 
L 108.1405 126.107539 
L 110.97251 99.475717 
L 113.804519 70.126692 
L 116.636528 89.31847 
L 119.468537 86.543219 
L 122.300546 82.360822 
L 125.132555 75.750755 
L 127.964565 74.177099 
L 130.796574 72.625207 
L 133.628583 61.970608 
L 136.460592 79.647482 
L 139.292601 74.45983 
L 142.12461 70.625242 
L 144.95662 68.822551 
L 147.788629 64.86047 
L 150.620638 78.460432 
L 153.452647 75.55344 
L 156.284656 75.444362 
L 159.116665 69.826025 
L 161.948675 74.469493 
L 164.780684 66.303299 
L 167.612693 66.492243 
L 170.444702 72.379901 
L 173.276711 73.688872 
L 176.10872 74.482135 
L 178.94073 66.48166 
L 181.772739 69.930632 
L 184.604748 71.624011 
L 187.436757 66.469067 
L 190.268766 70.038371 
L 193.100775 73.270874 
L 195.932785 71.893275 
L 198.764794 72.988539 
L 201.596803 71.436568 
L 204.428812 70.636482 
L 207.260821 69.08779 
L 210.09283 65.907083 
L 212.92484 70.604431 
L 215.756849 66.745526 
L 218.588858 65.329882 
L 221.420867 70.140352 
L 224.252876 67.810754 
L 227.084885 61.83039 
L 229.916895 63.63351 
L 232.748904 68.336397 
L 235.580913 64.837383 
L 238.412922 70.118864 
L 241.244931 63.38757 
L 244.07694 65.228306 
L 246.90895 65.440233 
L 249.740959 66.061988 
L 252.572968 66.495943 
L 255.404977 65.533562 
L 258.236986 65.413704 
L 261.068995 64.649176 
L 263.901005 64.214459 
L 266.733014 69.134992 
L 269.565023 64.607966 
L 272.397032 67.77016 
L 275.229041 65.879828 
L 278.06105 66.394311 
L 280.89306 66.089462 
L 283.725069 64.856547 
L 286.557078 62.867959 
L 289.389087 63.635359 
L 292.221096 65.69619 
L 295.053105 66.289569 
L 297.885115 68.557945 
L 300.717124 64.329387 
L 303.549133 65.251977 
L 306.381142 62.208985 
L 309.213151 64.435951 
L 312.04516 62.218184 
L 314.87717 63.032801 
L 317.709179 62.127524 
L 320.541188 64.904316 
L 323.373197 62.572046 
L 326.205206 63.653472 
L 329.037215 67.226262 
L 331.869225 60.864148 
L 334.701234 63.078606 
L 337.533243 62.359459 
L 340.365252 66.359049 
L 343.197261 63.528273 
L 346.02927 67.584807 
L 348.86128 67.62366 
L 351.693289 66.732501 
L 354.525298 64.381598 
L 357.357307 63.365271 
L 360.189316 62.020157 
L 363.021325 67.493474 
L 365.853335 60.024293 
L 368.685344 62.437902 
L 371.517353 61.870168 
L 374.349362 64.962168 
L 377.181371 63.05662 
L 380.01338 65.370329 
L 382.84539 63.346137 
L 385.677399 61.034676 
L 388.509408 63.295363 
L 391.341417 61.850972 
L 394.173426 66.640088 
L 397.005435 62.46699 
L 399.837445 61.881334 
L 402.669454 64.214634 
L 405.501463 63.674611 
L 408.333472 63.367126 
L 411.165481 63.536837 
L 413.99749 66.067955 
L 416.8295 64.713427 
L 419.661509 62.201783 
L 422.493518 64.702796 
L 425.325527 63.958753 
L 428.157536 64.67274 
L 430.989545 61.665377 
" clip-path="url(#pcbc5aae7b1)" style="fill: none; stroke: #dd8452; stroke-width: 3; stroke-linecap: round"/>
   </g>
   <g id="line2d_14">
    <path d="M 93.980455 220.532633 
L 96.812464 206.30531 
L 99.644473 219.153342 
L 102.476482 215.414619 
L 105.308491 187.525301 
L 108.1405 186.557842 
L 110.97251 190.881638 
L 113.804519 191.309096 
L 116.636528 191.76579 
L 119.468537 182.423854 
L 122.300546 180.218037 
L 125.132555 179.981077 
L 127.964565 177.416924 
L 130.796574 180.663456 
L 133.628583 179.456498 
L 136.460592 158.578675 
L 139.292601 164.608277 
L 142.12461 180.208082 
L 144.95662 151.061296 
L 147.788629 145.329822 
L 150.620638 164.048901 
L 153.452647 161.571774 
L 156.284656 146.20529 
L 159.116665 149.600121 
L 161.948675 141.016288 
L 164.780684 146.812251 
L 167.612693 139.350321 
L 170.444702 140.358789 
L 173.276711 135.147301 
L 176.10872 139.163266 
L 178.94073 133.917634 
L 181.772739 127.183107 
L 184.604748 130.953939 
L 187.436757 117.879088 
L 190.268766 125.367877 
L 193.100775 129.198663 
L 195.932785 117.59618 
L 198.764794 119.955899 
L 201.596803 109.485419 
L 204.428812 118.03902 
L 207.260821 106.194782 
L 210.09283 104.398756 
L 212.92484 108.421647 
L 215.756849 119.406364 
L 218.588858 115.255395 
L 221.420867 119.778662 
L 224.252876 123.466679 
L 227.084885 96.619072 
L 229.916895 98.889747 
L 232.748904 104.88026 
L 235.580913 102.678944 
L 238.412922 101.900185 
L 241.244931 99.219214 
L 244.07694 102.037895 
L 246.90895 95.17982 
L 249.740959 105.490443 
L 252.572968 107.953324 
L 255.404977 102.371981 
L 258.236986 109.100377 
L 261.068995 108.099243 
L 263.901005 110.165505 
L 266.733014 99.988511 
L 269.565023 108.464185 
L 272.397032 111.365473 
L 275.229041 109.853043 
L 278.06105 102.537084 
L 280.89306 111.759189 
L 283.725069 118.986993 
L 286.557078 102.467191 
L 289.389087 111.514088 
L 292.221096 99.91511 
L 295.053105 101.72856 
L 297.885115 110.474644 
L 300.717124 108.312846 
L 303.549133 108.308125 
L 306.381142 104.318491 
L 309.213151 111.677076 
L 312.04516 111.441304 
L 314.87717 115.655338 
L 317.709179 105.803642 
L 320.541188 108.319063 
L 323.373197 106.893962 
L 326.205206 110.810296 
L 329.037215 109.568996 
L 331.869225 111.755079 
L 334.701234 117.080347 
L 337.533243 113.738954 
L 340.365252 116.08831 
L 343.197261 106.137838 
L 346.02927 96.90959 
L 348.86128 108.023952 
L 351.693289 97.741786 
L 354.525298 105.3079 
L 357.357307 107.455619 
L 360.189316 108.123961 
L 363.021325 112.448021 
L 365.853335 104.827708 
L 368.685344 109.160351 
L 371.517353 111.780774 
L 374.349362 115.148445 
L 377.181371 110.352733 
L 380.01338 110.783785 
L 382.84539 110.346026 
L 385.677399 114.853783 
L 388.509408 123.057157 
L 391.341417 110.431369 
L 394.173426 120.860152 
L 397.005435 121.489002 
L 399.837445 106.210807 
L 402.669454 118.265602 
L 405.501463 105.94638 
L 408.333472 95.466364 
L 411.165481 100.18725 
L 413.99749 108.856445 
L 416.8295 108.52812 
L 419.661509 109.918218 
L 422.493518 101.376474 
L 425.325527 113.512574 
L 428.157536 111.541193 
L 430.989545 114.558475 
" clip-path="url(#pcbc5aae7b1)" style="fill: none; stroke: #55a868; stroke-width: 3; stroke-linecap: round"/>
   </g>
   <g id="line2d_15">
    <path d="M 93.980455 220.218715 
L 96.812464 215.605298 
L 99.644473 212.396233 
L 102.476482 205.970427 
L 105.308491 184.740529 
L 108.1405 183.229564 
L 110.97251 185.480451 
L 113.804519 186.413604 
L 116.636528 188.095506 
L 119.468537 192.86531 
L 122.300546 168.413148 
L 125.132555 170.461025 
L 127.964565 167.824299 
L 130.796574 163.310497 
L 133.628583 167.464697 
L 136.460592 168.335822 
L 139.292601 174.576891 
L 142.12461 167.747026 
L 144.95662 162.817406 
L 147.788629 148.738228 
L 150.620638 169.201106 
L 153.452647 138.977018 
L 156.284656 153.463549 
L 159.116665 169.284875 
L 161.948675 168.201386 
L 164.780684 151.071294 
L 167.612693 146.369315 
L 170.444702 146.10332 
L 173.276711 146.10131 
L 176.10872 144.998016 
L 178.94073 143.155171 
L 181.772739 151.892435 
L 184.604748 130.621252 
L 187.436757 121.658866 
L 190.268766 133.621508 
L 193.100775 131.400421 
L 195.932785 125.038328 
L 198.764794 137.43608 
L 201.596803 121.176277 
L 204.428812 135.226626 
L 207.260821 124.535907 
L 210.09283 119.841041 
L 212.92484 135.575426 
L 215.756849 142.615939 
L 218.588858 118.572938 
L 221.420867 122.167612 
L 224.252876 124.968956 
L 227.084885 120.438839 
L 229.916895 129.875336 
L 232.748904 120.127237 
L 235.580913 123.140001 
L 238.412922 113.633405 
L 241.244931 118.209874 
L 244.07694 131.299441 
L 246.90895 142.619269 
L 249.740959 127.408139 
L 252.572968 136.914605 
L 255.404977 126.211303 
L 258.236986 128.155646 
L 261.068995 126.455635 
L 263.901005 120.063053 
L 266.733014 140.358185 
L 269.565023 144.232538 
L 272.397032 139.269882 
L 275.229041 148.131332 
L 278.06105 140.796249 
L 280.89306 160.654183 
L 283.725069 139.094516 
L 286.557078 132.277071 
L 289.389087 130.667371 
L 292.221096 123.476627 
L 295.053105 138.139411 
L 297.885115 138.829734 
L 300.717124 137.747955 
L 303.549133 137.404326 
L 306.381142 137.780973 
L 309.213151 134.606679 
L 312.04516 141.094981 
L 314.87717 133.521484 
L 317.709179 138.687906 
L 320.541188 137.060829 
L 323.373197 138.122451 
L 326.205206 142.597978 
L 329.037215 140.967712 
L 331.869225 136.8956 
L 334.701234 148.599315 
L 337.533243 135.947959 
L 340.365252 131.116939 
L 343.197261 140.270756 
L 346.02927 117.73266 
L 348.86128 118.431412 
L 351.693289 129.88304 
L 354.525298 138.846771 
L 357.357307 128.220636 
L 360.189316 137.424621 
L 363.021325 130.52988 
L 365.853335 124.502066 
L 368.685344 132.807851 
L 371.517353 130.809577 
L 374.349362 127.954636 
L 377.181371 139.093369 
L 380.01338 130.312422 
L 382.84539 131.549865 
L 385.677399 126.335753 
L 388.509408 135.276848 
L 391.341417 140.632327 
L 394.173426 128.43887 
L 397.005435 129.361153 
L 399.837445 137.705086 
L 402.669454 124.24775 
L 405.501463 132.731625 
L 408.333472 128.479821 
L 411.165481 132.059823 
L 413.99749 135.357009 
L 416.8295 132.004153 
L 419.661509 128.308733 
L 422.493518 153.76913 
L 425.325527 144.988433 
L 428.157536 134.484409 
L 430.989545 139.134099 
" clip-path="url(#pcbc5aae7b1)" style="fill: none; stroke: #c44e52; stroke-width: 3; stroke-linecap: round"/>
   </g>
   <g id="line2d_16">
    <path d="M 93.980455 219.366313 
L 96.812464 220.765531 
L 99.644473 217.031522 
L 102.476482 215.165221 
L 105.308491 179.523716 
L 108.1405 195.369942 
L 110.97251 190.18735 
L 113.804519 190.022476 
L 116.636528 191.318524 
L 119.468537 182.971743 
L 122.300546 173.659855 
L 125.132555 172.922712 
L 127.964565 153.435626 
L 130.796574 168.486951 
L 133.628583 155.842179 
L 136.460592 153.547859 
L 139.292601 142.464073 
L 142.12461 144.344036 
L 144.95662 155.238834 
L 147.788629 164.965891 
L 150.620638 150.786483 
L 153.452647 155.859486 
L 156.284656 141.350542 
L 159.116665 141.337858 
L 161.948675 156.478158 
L 164.780684 145.733938 
L 167.612693 130.805979 
L 170.444702 134.30909 
L 173.276711 128.007591 
L 176.10872 122.149668 
L 178.94073 118.919727 
L 181.772739 125.899922 
L 184.604748 124.522148 
L 187.436757 138.159957 
L 190.268766 122.747946 
L 193.100775 135.696786 
L 195.932785 122.240674 
L 198.764794 116.435919 
L 201.596803 121.715389 
L 204.428812 118.612842 
L 207.260821 122.187824 
L 210.09283 122.844946 
L 212.92484 124.493926 
L 215.756849 130.250151 
L 218.588858 131.845954 
L 221.420867 133.513605 
L 224.252876 134.315105 
L 227.084885 130.071788 
L 229.916895 148.34881 
L 232.748904 128.204808 
L 235.580913 128.965278 
L 238.412922 134.509069 
L 241.244931 137.959709 
L 244.07694 131.115467 
L 246.90895 145.837845 
L 249.740959 134.547979 
L 252.572968 143.709913 
L 255.404977 139.849393 
L 258.236986 146.353113 
L 261.068995 153.622548 
L 263.901005 142.652199 
L 266.733014 144.468544 
L 269.565023 158.137615 
L 272.397032 162.031897 
L 275.229041 155.68524 
L 278.06105 162.702862 
L 280.89306 160.646268 
L 283.725069 159.084675 
L 286.557078 166.935597 
L 289.389087 153.01365 
L 292.221096 161.170689 
L 295.053105 147.676932 
L 297.885115 152.131993 
L 300.717124 137.137627 
L 303.549133 166.155641 
L 306.381142 155.965919 
L 309.213151 156.842195 
L 312.04516 163.964882 
L 314.87717 163.603187 
L 317.709179 158.216408 
L 320.541188 156.470948 
L 323.373197 164.503468 
L 326.205206 160.677285 
L 329.037215 173.713361 
L 331.869225 158.198393 
L 334.701234 159.372545 
L 337.533243 172.790496 
L 340.365252 169.327546 
L 343.197261 174.921202 
L 346.02927 160.275808 
L 348.86128 176.282824 
L 351.693289 159.567316 
L 354.525298 149.910918 
L 357.357307 163.462308 
L 360.189316 162.721162 
L 363.021325 168.728264 
L 365.853335 154.810363 
L 368.685344 169.810783 
L 371.517353 159.378299 
L 374.349362 152.944101 
L 377.181371 175.662223 
L 380.01338 164.27422 
L 382.84539 158.911966 
L 385.677399 163.18748 
L 388.509408 159.974414 
L 391.341417 153.108843 
L 394.173426 168.086803 
L 397.005435 153.674854 
L 399.837445 157.424241 
L 402.669454 159.615251 
L 405.501463 154.509228 
L 408.333472 163.81041 
L 411.165481 166.705573 
L 413.99749 160.362594 
L 416.8295 152.29252 
L 419.661509 145.860729 
L 422.493518 159.285562 
L 425.325527 161.167956 
L 428.157536 171.793779 
L 430.989545 166.049179 
" clip-path="url(#pcbc5aae7b1)" style="fill: none; stroke: #8172b3; stroke-width: 3; stroke-linecap: round"/>
   </g>
   <g id="line2d_17">
    <path d="M 93.980455 215.522538 
L 96.812464 209.429879 
L 99.644473 203.829909 
L 102.476482 198.651996 
L 105.308491 197.411362 
L 108.1405 185.15984 
L 110.97251 180.172236 
L 113.804519 190.210082 
L 116.636528 180.442674 
L 119.468537 180.28163 
L 122.300546 185.425676 
L 125.132555 165.875731 
L 127.964565 186.359134 
L 130.796574 188.934476 
L 133.628583 174.32576 
L 136.460592 186.780836 
L 139.292601 177.536801 
L 142.12461 181.358613 
L 144.95662 171.316964 
L 147.788629 179.506366 
L 150.620638 175.190506 
L 153.452647 180.029913 
L 156.284656 170.473909 
L 159.116665 172.707952 
L 161.948675 177.154995 
L 164.780684 187.949777 
L 167.612693 188.081173 
L 170.444702 174.464635 
L 173.276711 181.180016 
L 176.10872 173.915733 
L 178.94073 180.255087 
L 181.772739 166.716389 
L 184.604748 166.812157 
L 187.436757 174.205526 
L 190.268766 174.649457 
L 193.100775 173.768744 
L 195.932785 169.149946 
L 198.764794 176.556383 
L 201.596803 176.069872 
L 204.428812 185.512856 
L 207.260821 175.000731 
L 210.09283 166.258772 
L 212.92484 177.836052 
L 215.756849 177.529196 
L 218.588858 171.124852 
L 221.420867 171.298462 
L 224.252876 174.757116 
L 227.084885 190.50665 
L 229.916895 184.394065 
L 232.748904 171.314985 
L 235.580913 171.686686 
L 238.412922 179.583201 
L 241.244931 178.730938 
L 244.07694 174.950351 
L 246.90895 196.011747 
L 249.740959 183.443024 
L 252.572968 185.72849 
L 255.404977 191.916012 
L 258.236986 201.461996 
L 261.068995 192.850137 
L 263.901005 190.15631 
L 266.733014 196.721852 
L 269.565023 191.225618 
L 272.397032 179.902395 
L 275.229041 216.596175 
L 278.06105 190.778294 
L 280.89306 199.540258 
L 283.725069 201.251315 
L 286.557078 195.736306 
L 289.389087 201.980826 
L 292.221096 188.631519 
L 295.053105 201.677967 
L 297.885115 194.99321 
L 300.717124 192.149676 
L 303.549133 201.895286 
L 306.381142 199.719836 
L 309.213151 194.503456 
L 312.04516 202.142083 
L 314.87717 206.743555 
L 317.709179 208.993024 
L 320.541188 186.197657 
L 323.373197 191.688045 
L 326.205206 211.21987 
L 329.037215 198.738888 
L 331.869225 199.448759 
L 334.701234 201.389737 
L 337.533243 204.432102 
L 340.365252 194.562652 
L 343.197261 200.428429 
L 346.02927 203.876181 
L 348.86128 198.991794 
L 351.693289 199.161833 
L 354.525298 182.973474 
L 357.357307 185.158466 
L 360.189316 199.692545 
L 363.021325 199.731716 
L 365.853335 200.212082 
L 368.685344 206.831592 
L 371.517353 199.988002 
L 374.349362 197.86841 
L 377.181371 188.214395 
L 380.01338 191.744839 
L 382.84539 208.017845 
L 385.677399 212.466907 
L 388.509408 194.093892 
L 391.341417 204.99759 
L 394.173426 195.072439 
L 397.005435 202.892523 
L 399.837445 199.456581 
L 402.669454 197.971496 
L 405.501463 200.750836 
L 408.333472 198.420007 
L 411.165481 199.726751 
L 413.99749 207.883999 
L 416.8295 202.457468 
L 419.661509 210.214502 
L 422.493518 201.575647 
L 425.325527 190.309309 
L 428.157536 192.02851 
L 430.989545 196.650154 
" clip-path="url(#pcbc5aae7b1)" style="fill: none; stroke: #937860; stroke-width: 3; stroke-linecap: round"/>
   </g>
   <g id="patch_3">
    <path d="M 77.13 294.66 
L 77.13 29.76 
" style="fill: none; stroke: #ffffff; stroke-width: 1.25; stroke-linejoin: miter; stroke-linecap: square"/>
   </g>
   <g id="patch_4">
    <path d="M 447.84 294.66 
L 447.84 29.76 
" style="fill: none; stroke: #ffffff; stroke-width: 1.25; stroke-linejoin: miter; stroke-linecap: square"/>
   </g>
   <g id="patch_5">
    <path d="M 77.13 294.66 
L 447.84 294.66 
" style="fill: none; stroke: #ffffff; stroke-width: 1.25; stroke-linejoin: miter; stroke-linecap: square"/>
   </g>
   <g id="patch_6">
    <path d="M 77.13 29.76 
L 447.84 29.76 
" style="fill: none; stroke: #ffffff; stroke-width: 1.25; stroke-linejoin: miter; stroke-linecap: square"/>
   </g>
   <g id="text_14">
    <!-- zinc-coating-v0 -->
    <g style="fill: #262626" transform="translate(209.126406 23.76)scale(0.14 -0.14)">
     <defs>
      <path id="DejaVuSans-7a" d="M 353 3500 
L 3084 3500 
L 3084 2975 
L 922 459 
L 3084 459 
L 3084 0 
L 275 0 
L 275 525 
L 2438 3041 
L 353 3041 
L 353 3500 
z
" transform="scale(0.015625)"/>
      <path id="DejaVuSans-2d" d="M 313 2009 
L 1997 2009 
L 1997 1497 
L 313 1497 
L 313 2009 
z
" transform="scale(0.015625)"/>
      <path id="DejaVuSans-61" d="M 2194 1759 
Q 1497 1759 1228 1600 
Q 959 1441 959 1056 
Q 959 750 1161 570 
Q 1363 391 1709 391 
Q 2188 391 2477 730 
Q 2766 1069 2766 1631 
L 2766 1759 
L 2194 1759 
z
M 3341 1997 
L 3341 0 
L 2766 0 
L 2766 531 
Q 2569 213 2275 61 
Q 1981 -91 1556 -91 
Q 1019 -91 701 211 
Q 384 513 384 1019 
Q 384 1609 779 1909 
Q 1175 2209 1959 2209 
L 2766 2209 
L 2766 2266 
Q 2766 2663 2505 2880 
Q 2244 3097 1772 3097 
Q 1472 3097 1187 3025 
Q 903 2953 641 2809 
L 641 3341 
Q 956 3463 1253 3523 
Q 1550 3584 1831 3584 
Q 2591 3584 2966 3190 
Q 3341 2797 3341 1997 
z
" transform="scale(0.015625)"/>
      <path id="DejaVuSans-67" d="M 2906 1791 
Q 2906 2416 2648 2759 
Q 2391 3103 1925 3103 
Q 1463 3103 1205 2759 
Q 947 2416 947 1791 
Q 947 1169 1205 825 
Q 1463 481 1925 481 
Q 2391 481 2648 825 
Q 2906 1169 2906 1791 
z
M 3481 434 
Q 3481 -459 3084 -895 
Q 2688 -1331 1869 -1331 
Q 1566 -1331 1297 -1286 
Q 1028 -1241 775 -1147 
L 775 -588 
Q 1028 -725 1275 -790 
Q 1522 -856 1778 -856 
Q 2344 -856 2625 -561 
Q 2906 -266 2906 331 
L 2906 616 
Q 2728 306 2450 153 
Q 2172 0 1784 0 
Q 1141 0 747 490 
Q 353 981 353 1791 
Q 353 2603 747 3093 
Q 1141 3584 1784 3584 
Q 2172 3584 2450 3431 
Q 2728 3278 2906 2969 
L 2906 3500 
L 3481 3500 
L 3481 434 
z
" transform="scale(0.015625)"/>
      <path id="DejaVuSans-76" d="M 191 3500 
L 800 3500 
L 1894 563 
L 2988 3500 
L 3597 3500 
L 2284 0 
L 1503 0 
L 191 3500 
z
" transform="scale(0.015625)"/>
     </defs>
     <use xlink:href="#DejaVuSans-7a"/>
     <use xlink:href="#DejaVuSans-69" x="52.490234"/>
     <use xlink:href="#DejaVuSans-6e" x="80.273438"/>
     <use xlink:href="#DejaVuSans-63" x="143.652344"/>
     <use xlink:href="#DejaVuSans-2d" x="198.632812"/>
     <use xlink:href="#DejaVuSans-63" x="234.716797"/>
     <use xlink:href="#DejaVuSans-6f" x="289.697266"/>
     <use xlink:href="#DejaVuSans-61" x="350.878906"/>
     <use xlink:href="#DejaVuSans-74" x="412.158203"/>
     <use xlink:href="#DejaVuSans-69" x="451.367188"/>
     <use xlink:href="#DejaVuSans-6e" x="479.150391"/>
     <use xlink:href="#DejaVuSans-67" x="542.529297"/>
     <use xlink:href="#DejaVuSans-2d" x="606.005859"/>
     <use xlink:href="#DejaVuSans-76" x="639.464844"/>
     <use xlink:href="#DejaVuSans-30" x="698.644531"/>
    </g>
   </g>
   <g id="legend_1">
    <g id="patch_7">
     <path d="M 187.288828 289.16 
L 337.681172 289.16 
Q 339.881172 289.16 339.881172 286.96 
L 339.881172 191.184375 
Q 339.881172 188.984375 337.681172 188.984375 
L 187.288828 188.984375 
Q 185.088828 188.984375 185.088828 191.184375 
L 185.088828 286.96 
Q 185.088828 289.16 187.288828 289.16 
z
" style="fill: #eaeaf2; opacity: 0.8; stroke: #cccccc; stroke-linejoin: miter"/>
    </g>
    <g id="line2d_18">
     <path d="M 189.488828 197.892656 
L 200.488828 197.892656 
L 211.488828 197.892656 
" style="fill: none; stroke: #4c72b0; stroke-width: 3; stroke-linecap: round"/>
    </g>
    <g id="text_15">
     <!-- SAC-DELAY-0-logs/ -->
     <g style="fill: #262626" transform="translate(220.288828 201.742656)scale(0.11 -0.11)">
      <defs>
       <path id="DejaVuSans-41" d="M 2188 4044 
L 1331 1722 
L 3047 1722 
L 2188 4044 
z
M 1831 4666 
L 2547 4666 
L 4325 0 
L 3669 0 
L 3244 1197 
L 1141 1197 
L 716 0 
L 50 0 
L 1831 4666 
z
" transform="scale(0.015625)"/>
       <path id="DejaVuSans-43" d="M 4122 4306 
L 4122 3641 
Q 3803 3938 3442 4084 
Q 3081 4231 2675 4231 
Q 1875 4231 1450 3742 
Q 1025 3253 1025 2328 
Q 1025 1406 1450 917 
Q 1875 428 2675 428 
Q 3081 428 3442 575 
Q 3803 722 4122 1019 
L 4122 359 
Q 3791 134 3420 21 
Q 3050 -91 2638 -91 
Q 1578 -91 968 557 
Q 359 1206 359 2328 
Q 359 3453 968 4101 
Q 1578 4750 2638 4750 
Q 3056 4750 3426 4639 
Q 3797 4528 4122 4306 
z
" transform="scale(0.015625)"/>
       <path id="DejaVuSans-44" d="M 1259 4147 
L 1259 519 
L 2022 519 
Q 2988 519 3436 956 
Q 3884 1394 3884 2338 
Q 3884 3275 3436 3711 
Q 2988 4147 2022 4147 
L 1259 4147 
z
M 628 4666 
L 1925 4666 
Q 3281 4666 3915 4102 
Q 4550 3538 4550 2338 
Q 4550 1131 3912 565 
Q 3275 0 1925 0 
L 628 0 
L 628 4666 
z
" transform="scale(0.015625)"/>
       <path id="DejaVuSans-45" d="M 628 4666 
L 3578 4666 
L 3578 4134 
L 1259 4134 
L 1259 2753 
L 3481 2753 
L 3481 2222 
L 1259 2222 
L 1259 531 
L 3634 531 
L 3634 0 
L 628 0 
L 628 4666 
z
" transform="scale(0.015625)"/>
       <path id="DejaVuSans-4c" d="M 628 4666 
L 1259 4666 
L 1259 531 
L 3531 531 
L 3531 0 
L 628 0 
L 628 4666 
z
" transform="scale(0.015625)"/>
       <path id="DejaVuSans-59" d="M -13 4666 
L 666 4666 
L 1959 2747 
L 3244 4666 
L 3922 4666 
L 2272 2222 
L 2272 0 
L 1638 0 
L 1638 2222 
L -13 4666 
z
" transform="scale(0.015625)"/>
       <path id="DejaVuSans-2f" d="M 1625 4666 
L 2156 4666 
L 531 -594 
L 0 -594 
L 1625 4666 
z
" transform="scale(0.015625)"/>
      </defs>
      <use xlink:href="#DejaVuSans-53"/>
      <use xlink:href="#DejaVuSans-41" x="65.351562"/>
      <use xlink:href="#DejaVuSans-43" x="132.009766"/>
      <use xlink:href="#DejaVuSans-2d" x="201.833984"/>
      <use xlink:href="#DejaVuSans-44" x="237.917969"/>
      <use xlink:href="#DejaVuSans-45" x="314.919922"/>
      <use xlink:href="#DejaVuSans-4c" x="378.103516"/>
      <use xlink:href="#DejaVuSans-41" x="436.066406"/>
      <use xlink:href="#DejaVuSans-59" x="496.724609"/>
      <use xlink:href="#DejaVuSans-2d" x="545.933594"/>
      <use xlink:href="#DejaVuSans-30" x="582.017578"/>
      <use xlink:href="#DejaVuSans-2d" x="645.640625"/>
      <use xlink:href="#DejaVuSans-6c" x="681.724609"/>
      <use xlink:href="#DejaVuSans-6f" x="709.507812"/>
      <use xlink:href="#DejaVuSans-67" x="770.689453"/>
      <use xlink:href="#DejaVuSans-73" x="834.166016"/>
      <use xlink:href="#DejaVuSans-2f" x="886.265625"/>
     </g>
    </g>
    <g id="line2d_19">
     <path d="M 189.488828 214.038594 
L 200.488828 214.038594 
L 211.488828 214.038594 
" style="fill: none; stroke: #dd8452; stroke-width: 3; stroke-linecap: round"/>
    </g>
    <g id="text_16">
     <!-- SAC-DELAY-1-logs/ -->
     <g style="fill: #262626" transform="translate(220.288828 217.888594)scale(0.11 -0.11)">
      <use xlink:href="#DejaVuSans-53"/>
      <use xlink:href="#DejaVuSans-41" x="65.351562"/>
      <use xlink:href="#DejaVuSans-43" x="132.009766"/>
      <use xlink:href="#DejaVuSans-2d" x="201.833984"/>
      <use xlink:href="#DejaVuSans-44" x="237.917969"/>
      <use xlink:href="#DejaVuSans-45" x="314.919922"/>
      <use xlink:href="#DejaVuSans-4c" x="378.103516"/>
      <use xlink:href="#DejaVuSans-41" x="436.066406"/>
      <use xlink:href="#DejaVuSans-59" x="496.724609"/>
      <use xlink:href="#DejaVuSans-2d" x="545.933594"/>
      <use xlink:href="#DejaVuSans-31" x="582.017578"/>
      <use xlink:href="#DejaVuSans-2d" x="645.640625"/>
      <use xlink:href="#DejaVuSans-6c" x="681.724609"/>
      <use xlink:href="#DejaVuSans-6f" x="709.507812"/>
      <use xlink:href="#DejaVuSans-67" x="770.689453"/>
      <use xlink:href="#DejaVuSans-73" x="834.166016"/>
      <use xlink:href="#DejaVuSans-2f" x="886.265625"/>
     </g>
    </g>
    <g id="line2d_20">
     <path d="M 189.488828 230.184531 
L 200.488828 230.184531 
L 211.488828 230.184531 
" style="fill: none; stroke: #55a868; stroke-width: 3; stroke-linecap: round"/>
    </g>
    <g id="text_17">
     <!-- SAC-DELAY-5-logs/ -->
     <g style="fill: #262626" transform="translate(220.288828 234.034531)scale(0.11 -0.11)">
      <use xlink:href="#DejaVuSans-53"/>
      <use xlink:href="#DejaVuSans-41" x="65.351562"/>
      <use xlink:href="#DejaVuSans-43" x="132.009766"/>
      <use xlink:href="#DejaVuSans-2d" x="201.833984"/>
      <use xlink:href="#DejaVuSans-44" x="237.917969"/>
      <use xlink:href="#DejaVuSans-45" x="314.919922"/>
      <use xlink:href="#DejaVuSans-4c" x="378.103516"/>
      <use xlink:href="#DejaVuSans-41" x="436.066406"/>
      <use xlink:href="#DejaVuSans-59" x="496.724609"/>
      <use xlink:href="#DejaVuSans-2d" x="545.933594"/>
      <use xlink:href="#DejaVuSans-35" x="582.017578"/>
      <use xlink:href="#DejaVuSans-2d" x="645.640625"/>
      <use xlink:href="#DejaVuSans-6c" x="681.724609"/>
      <use xlink:href="#DejaVuSans-6f" x="709.507812"/>
      <use xlink:href="#DejaVuSans-67" x="770.689453"/>
      <use xlink:href="#DejaVuSans-73" x="834.166016"/>
      <use xlink:href="#DejaVuSans-2f" x="886.265625"/>
     </g>
    </g>
    <g id="line2d_21">
     <path d="M 189.488828 246.330469 
L 200.488828 246.330469 
L 211.488828 246.330469 
" style="fill: none; stroke: #c44e52; stroke-width: 3; stroke-linecap: round"/>
    </g>
    <g id="text_18">
     <!-- SAC-DELAY-10-logs/ -->
     <g style="fill: #262626" transform="translate(220.288828 250.180469)scale(0.11 -0.11)">
      <use xlink:href="#DejaVuSans-53"/>
      <use xlink:href="#DejaVuSans-41" x="65.351562"/>
      <use xlink:href="#DejaVuSans-43" x="132.009766"/>
      <use xlink:href="#DejaVuSans-2d" x="201.833984"/>
      <use xlink:href="#DejaVuSans-44" x="237.917969"/>
      <use xlink:href="#DejaVuSans-45" x="314.919922"/>
      <use xlink:href="#DejaVuSans-4c" x="378.103516"/>
      <use xlink:href="#DejaVuSans-41" x="436.066406"/>
      <use xlink:href="#DejaVuSans-59" x="496.724609"/>
      <use xlink:href="#DejaVuSans-2d" x="545.933594"/>
      <use xlink:href="#DejaVuSans-31" x="582.017578"/>
      <use xlink:href="#DejaVuSans-30" x="645.640625"/>
      <use xlink:href="#DejaVuSans-2d" x="709.263672"/>
      <use xlink:href="#DejaVuSans-6c" x="745.347656"/>
      <use xlink:href="#DejaVuSans-6f" x="773.130859"/>
      <use xlink:href="#DejaVuSans-67" x="834.3125"/>
      <use xlink:href="#DejaVuSans-73" x="897.789062"/>
      <use xlink:href="#DejaVuSans-2f" x="949.888672"/>
     </g>
    </g>
    <g id="line2d_22">
     <path d="M 189.488828 262.476406 
L 200.488828 262.476406 
L 211.488828 262.476406 
" style="fill: none; stroke: #8172b3; stroke-width: 3; stroke-linecap: round"/>
    </g>
    <g id="text_19">
     <!-- SAC-DELAY-20-logs/ -->
     <g style="fill: #262626" transform="translate(220.288828 266.326406)scale(0.11 -0.11)">
      <use xlink:href="#DejaVuSans-53"/>
      <use xlink:href="#DejaVuSans-41" x="65.351562"/>
      <use xlink:href="#DejaVuSans-43" x="132.009766"/>
      <use xlink:href="#DejaVuSans-2d" x="201.833984"/>
      <use xlink:href="#DejaVuSans-44" x="237.917969"/>
      <use xlink:href="#DejaVuSans-45" x="314.919922"/>
      <use xlink:href="#DejaVuSans-4c" x="378.103516"/>
      <use xlink:href="#DejaVuSans-41" x="436.066406"/>
      <use xlink:href="#DejaVuSans-59" x="496.724609"/>
      <use xlink:href="#DejaVuSans-2d" x="545.933594"/>
      <use xlink:href="#DejaVuSans-32" x="582.017578"/>
      <use xlink:href="#DejaVuSans-30" x="645.640625"/>
      <use xlink:href="#DejaVuSans-2d" x="709.263672"/>
      <use xlink:href="#DejaVuSans-6c" x="745.347656"/>
      <use xlink:href="#DejaVuSans-6f" x="773.130859"/>
      <use xlink:href="#DejaVuSans-67" x="834.3125"/>
      <use xlink:href="#DejaVuSans-73" x="897.789062"/>
      <use xlink:href="#DejaVuSans-2f" x="949.888672"/>
     </g>
    </g>
    <g id="line2d_23">
     <path d="M 189.488828 278.622344 
L 200.488828 278.622344 
L 211.488828 278.622344 
" style="fill: none; stroke: #937860; stroke-width: 3; stroke-linecap: round"/>
    </g>
    <g id="text_20">
     <!-- SAC-DELAY-100-logs/ -->
     <g style="fill: #262626" transform="translate(220.288828 282.472344)scale(0.11 -0.11)">
      <use xlink:href="#DejaVuSans-53"/>
      <use xlink:href="#DejaVuSans-41" x="65.351562"/>
      <use xlink:href="#DejaVuSans-43" x="132.009766"/>
      <use xlink:href="#DejaVuSans-2d" x="201.833984"/>
      <use xlink:href="#DejaVuSans-44" x="237.917969"/>
      <use xlink:href="#DejaVuSans-45" x="314.919922"/>
      <use xlink:href="#DejaVuSans-4c" x="378.103516"/>
      <use xlink:href="#DejaVuSans-41" x="436.066406"/>
      <use xlink:href="#DejaVuSans-59" x="496.724609"/>
      <use xlink:href="#DejaVuSans-2d" x="545.933594"/>
      <use xlink:href="#DejaVuSans-31" x="582.017578"/>
      <use xlink:href="#DejaVuSans-30" x="645.640625"/>
      <use xlink:href="#DejaVuSans-30" x="709.263672"/>
      <use xlink:href="#DejaVuSans-2d" x="772.886719"/>
      <use xlink:href="#DejaVuSans-6c" x="808.970703"/>
      <use xlink:href="#DejaVuSans-6f" x="836.753906"/>
      <use xlink:href="#DejaVuSans-67" x="897.935547"/>
      <use xlink:href="#DejaVuSans-73" x="961.412109"/>
      <use xlink:href="#DejaVuSans-2f" x="1013.511719"/>
     </g>
    </g>
   </g>
  </g>
 </g>
 <defs>
  <clipPath id="pcbc5aae7b1">
   <rect x="77.13" y="29.76" width="370.71" height="264.9"/>
  </clipPath>
 </defs>
</svg>
