<?xml version="1.0" encoding="utf-8" standalone="no"?>
<!DOCTYPE svg PUBLIC "-//W3C//DTD SVG 1.1//EN"
  "http://www.w3.org/Graphics/SVG/1.1/DTD/svg11.dtd">
<svg xmlns:xlink="http://www.w3.org/1999/xlink" width="460.8pt" height="345.6pt" viewBox="0 0 460.8 345.6" xmlns="http://www.w3.org/2000/svg" version="1.1">
 <metadata>
  <rdf:RDF xmlns:dc="http://purl.org/dc/elements/1.1/" xmlns:cc="http://creativecommons.org/ns#" xmlns:rdf="http://www.w3.org/1999/02/22-rdf-syntax-ns#">
   <cc:Work>
    <dc:type rdf:resource="http://purl.org/dc/dcmitype/StillImage"/>
    <dc:date>2022-09-13T10:30:00.820578</dc:date>
    <dc:format>image/svg+xml</dc:format>
    <dc:creator>
     <cc:Agent>
      <dc:title>Matplotlib v3.5.3, https://matplotlib.org/</dc:title>
     </cc:Agent>
    </dc:creator>
   </cc:Work>
  </rdf:RDF>
 </metadata>
 <defs>
  <style type="text/css">*{stroke-linejoin: round; stroke-linecap: butt}</style>
 </defs>
 <g id="figure_1">
  <g id="patch_1">
   <path d="M 0 345.6 
L 460.8 345.6 
L 460.8 0 
L 0 0 
z
" style="fill: #ffffff"/>
  </g>
  <g id="axes_1">
   <g id="patch_2">
    <path d="M 77.13 294.66 
L 447.84 294.66 
L 447.84 12.96 
L 77.13 12.96 
z
" style="fill: #eaeaf2"/>
   </g>
   <g id="matplotlib.axis_1">
    <g id="xtick_1">
     <g id="line2d_1">
      <path d="M 91.148445 294.66 
L 91.148445 12.96 
" clip-path="url(#p6563e60698)" style="fill: none; stroke: #ffffff; stroke-linecap: round"/>
     </g>
     <g id="text_1">
      <!-- 0.00 -->
      <g style="fill: #262626" transform="translate(78.902352 312.518281)scale(0.11 -0.11)">
       <defs>
        <path id="DejaVuSans-30" d="M 2034 4250 
Q 1547 4250 1301 3770 
Q 1056 3291 1056 2328 
Q 1056 1369 1301 889 
Q 1547 409 2034 409 
Q 2525 409 2770 889 
Q 3016 1369 3016 2328 
Q 3016 3291 2770 3770 
Q 2525 4250 2034 4250 
z
M 2034 4750 
Q 2819 4750 3233 4129 
Q 3647 3509 3647 2328 
Q 3647 1150 3233 529 
Q 2819 -91 2034 -91 
Q 1250 -91 836 529 
Q 422 1150 422 2328 
Q 422 3509 836 4129 
Q 1250 4750 2034 4750 
z
" transform="scale(0.015625)"/>
        <path id="DejaVuSans-2e" d="M 684 794 
L 1344 794 
L 1344 0 
L 684 0 
L 684 794 
z
" transform="scale(0.015625)"/>
       </defs>
       <use xlink:href="#DejaVuSans-30"/>
       <use xlink:href="#DejaVuSans-2e" x="63.623047"/>
       <use xlink:href="#DejaVuSans-30" x="95.410156"/>
       <use xlink:href="#DejaVuSans-30" x="159.033203"/>
      </g>
     </g>
    </g>
    <g id="xtick_2">
     <g id="line2d_2">
      <path d="M 147.788629 294.66 
L 147.788629 12.96 
" clip-path="url(#p6563e60698)" style="fill: none; stroke: #ffffff; stroke-linecap: round"/>
     </g>
     <g id="text_2">
      <!-- 0.05 -->
      <g style="fill: #262626" transform="translate(135.542535 312.518281)scale(0.11 -0.11)">
       <defs>
        <path id="DejaVuSans-35" d="M 691 4666 
L 3169 4666 
L 3169 4134 
L 1269 4134 
L 1269 2991 
Q 1406 3038 1543 3061 
Q 1681 3084 1819 3084 
Q 2600 3084 3056 2656 
Q 3513 2228 3513 1497 
Q 3513 744 3044 326 
Q 2575 -91 1722 -91 
Q 1428 -91 1123 -41 
Q 819 9 494 109 
L 494 744 
Q 775 591 1075 516 
Q 1375 441 1709 441 
Q 2250 441 2565 725 
Q 2881 1009 2881 1497 
Q 2881 1984 2565 2268 
Q 2250 2553 1709 2553 
Q 1456 2553 1204 2497 
Q 953 2441 691 2322 
L 691 4666 
z
" transform="scale(0.015625)"/>
       </defs>
       <use xlink:href="#DejaVuSans-30"/>
       <use xlink:href="#DejaVuSans-2e" x="63.623047"/>
       <use xlink:href="#DejaVuSans-30" x="95.410156"/>
       <use xlink:href="#DejaVuSans-35" x="159.033203"/>
      </g>
     </g>
    </g>
    <g id="xtick_3">
     <g id="line2d_3">
      <path d="M 204.428812 294.66 
L 204.428812 12.96 
" clip-path="url(#p6563e60698)" style="fill: none; stroke: #ffffff; stroke-linecap: round"/>
     </g>
     <g id="text_3">
      <!-- 0.10 -->
      <g style="fill: #262626" transform="translate(192.182718 312.518281)scale(0.11 -0.11)">
       <defs>
        <path id="DejaVuSans-31" d="M 794 531 
L 1825 531 
L 1825 4091 
L 703 3866 
L 703 4441 
L 1819 4666 
L 2450 4666 
L 2450 531 
L 3481 531 
L 3481 0 
L 794 0 
L 794 531 
z
" transform="scale(0.015625)"/>
       </defs>
       <use xlink:href="#DejaVuSans-30"/>
       <use xlink:href="#DejaVuSans-2e" x="63.623047"/>
       <use xlink:href="#DejaVuSans-31" x="95.410156"/>
       <use xlink:href="#DejaVuSans-30" x="159.033203"/>
      </g>
     </g>
    </g>
    <g id="xtick_4">
     <g id="line2d_4">
      <path d="M 261.068995 294.66 
L 261.068995 12.96 
" clip-path="url(#p6563e60698)" style="fill: none; stroke: #ffffff; stroke-linecap: round"/>
     </g>
     <g id="text_4">
      <!-- 0.15 -->
      <g style="fill: #262626" transform="translate(248.822902 312.518281)scale(0.11 -0.11)">
       <use xlink:href="#DejaVuSans-30"/>
       <use xlink:href="#DejaVuSans-2e" x="63.623047"/>
       <use xlink:href="#DejaVuSans-31" x="95.410156"/>
       <use xlink:href="#DejaVuSans-35" x="159.033203"/>
      </g>
     </g>
    </g>
    <g id="xtick_5">
     <g id="line2d_5">
      <path d="M 317.709179 294.66 
L 317.709179 12.96 
" clip-path="url(#p6563e60698)" style="fill: none; stroke: #ffffff; stroke-linecap: round"/>
     </g>
     <g id="text_5">
      <!-- 0.20 -->
      <g style="fill: #262626" transform="translate(305.463085 312.518281)scale(0.11 -0.11)">
       <defs>
        <path id="DejaVuSans-32" d="M 1228 531 
L 3431 531 
L 3431 0 
L 469 0 
L 469 531 
Q 828 903 1448 1529 
Q 2069 2156 2228 2338 
Q 2531 2678 2651 2914 
Q 2772 3150 2772 3378 
Q 2772 3750 2511 3984 
Q 2250 4219 1831 4219 
Q 1534 4219 1204 4116 
Q 875 4013 500 3803 
L 500 4441 
Q 881 4594 1212 4672 
Q 1544 4750 1819 4750 
Q 2544 4750 2975 4387 
Q 3406 4025 3406 3419 
Q 3406 3131 3298 2873 
Q 3191 2616 2906 2266 
Q 2828 2175 2409 1742 
Q 1991 1309 1228 531 
z
" transform="scale(0.015625)"/>
       </defs>
       <use xlink:href="#DejaVuSans-30"/>
       <use xlink:href="#DejaVuSans-2e" x="63.623047"/>
       <use xlink:href="#DejaVuSans-32" x="95.410156"/>
       <use xlink:href="#DejaVuSans-30" x="159.033203"/>
      </g>
     </g>
    </g>
    <g id="xtick_6">
     <g id="line2d_6">
      <path d="M 374.349362 294.66 
L 374.349362 12.96 
" clip-path="url(#p6563e60698)" style="fill: none; stroke: #ffffff; stroke-linecap: round"/>
     </g>
     <g id="text_6">
      <!-- 0.25 -->
      <g style="fill: #262626" transform="translate(362.103268 312.518281)scale(0.11 -0.11)">
       <use xlink:href="#DejaVuSans-30"/>
       <use xlink:href="#DejaVuSans-2e" x="63.623047"/>
       <use xlink:href="#DejaVuSans-32" x="95.410156"/>
       <use xlink:href="#DejaVuSans-35" x="159.033203"/>
      </g>
     </g>
    </g>
    <g id="xtick_7">
     <g id="line2d_7">
      <path d="M 430.989545 294.66 
L 430.989545 12.96 
" clip-path="url(#p6563e60698)" style="fill: none; stroke: #ffffff; stroke-linecap: round"/>
     </g>
     <g id="text_7">
      <!-- 0.30 -->
      <g style="fill: #262626" transform="translate(418.743452 312.518281)scale(0.11 -0.11)">
       <defs>
        <path id="DejaVuSans-33" d="M 2597 2516 
Q 3050 2419 3304 2112 
Q 3559 1806 3559 1356 
Q 3559 666 3084 287 
Q 2609 -91 1734 -91 
Q 1441 -91 1130 -33 
Q 819 25 488 141 
L 488 750 
Q 750 597 1062 519 
Q 1375 441 1716 441 
Q 2309 441 2620 675 
Q 2931 909 2931 1356 
Q 2931 1769 2642 2001 
Q 2353 2234 1838 2234 
L 1294 2234 
L 1294 2753 
L 1863 2753 
Q 2328 2753 2575 2939 
Q 2822 3125 2822 3475 
Q 2822 3834 2567 4026 
Q 2313 4219 1838 4219 
Q 1578 4219 1281 4162 
Q 984 4106 628 3988 
L 628 4550 
Q 988 4650 1302 4700 
Q 1616 4750 1894 4750 
Q 2613 4750 3031 4423 
Q 3450 4097 3450 3541 
Q 3450 3153 3228 2886 
Q 3006 2619 2597 2516 
z
" transform="scale(0.015625)"/>
       </defs>
       <use xlink:href="#DejaVuSans-30"/>
       <use xlink:href="#DejaVuSans-2e" x="63.623047"/>
       <use xlink:href="#DejaVuSans-33" x="95.410156"/>
       <use xlink:href="#DejaVuSans-30" x="159.033203"/>
      </g>
     </g>
    </g>
    <g id="text_8">
     <!-- Zeitschritte (in Millionen) -->
     <g style="fill: #262626" transform="translate(174.570469 329.44375)scale(0.14 -0.14)">
      <defs>
       <path id="DejaVuSans-5a" d="M 359 4666 
L 4025 4666 
L 4025 4184 
L 1075 531 
L 4097 531 
L 4097 0 
L 288 0 
L 288 481 
L 3238 4134 
L 359 4134 
L 359 4666 
z
" transform="scale(0.015625)"/>
       <path id="DejaVuSans-65" d="M 3597 1894 
L 3597 1613 
L 953 1613 
Q 991 1019 1311 708 
Q 1631 397 2203 397 
Q 2534 397 2845 478 
Q 3156 559 3463 722 
L 3463 178 
Q 3153 47 2828 -22 
Q 2503 -91 2169 -91 
Q 1331 -91 842 396 
Q 353 884 353 1716 
Q 353 2575 817 3079 
Q 1281 3584 2069 3584 
Q 2775 3584 3186 3129 
Q 3597 2675 3597 1894 
z
M 3022 2063 
Q 3016 2534 2758 2815 
Q 2500 3097 2075 3097 
Q 1594 3097 1305 2825 
Q 1016 2553 972 2059 
L 3022 2063 
z
" transform="scale(0.015625)"/>
       <path id="DejaVuSans-69" d="M 603 3500 
L 1178 3500 
L 1178 0 
L 603 0 
L 603 3500 
z
M 603 4863 
L 1178 4863 
L 1178 4134 
L 603 4134 
L 603 4863 
z
" transform="scale(0.015625)"/>
       <path id="DejaVuSans-74" d="M 1172 4494 
L 1172 3500 
L 2356 3500 
L 2356 3053 
L 1172 3053 
L 1172 1153 
Q 1172 725 1289 603 
Q 1406 481 1766 481 
L 2356 481 
L 2356 0 
L 1766 0 
Q 1100 0 847 248 
Q 594 497 594 1153 
L 594 3053 
L 172 3053 
L 172 3500 
L 594 3500 
L 594 4494 
L 1172 4494 
z
" transform="scale(0.015625)"/>
       <path id="DejaVuSans-73" d="M 2834 3397 
L 2834 2853 
Q 2591 2978 2328 3040 
Q 2066 3103 1784 3103 
Q 1356 3103 1142 2972 
Q 928 2841 928 2578 
Q 928 2378 1081 2264 
Q 1234 2150 1697 2047 
L 1894 2003 
Q 2506 1872 2764 1633 
Q 3022 1394 3022 966 
Q 3022 478 2636 193 
Q 2250 -91 1575 -91 
Q 1294 -91 989 -36 
Q 684 19 347 128 
L 347 722 
Q 666 556 975 473 
Q 1284 391 1588 391 
Q 1994 391 2212 530 
Q 2431 669 2431 922 
Q 2431 1156 2273 1281 
Q 2116 1406 1581 1522 
L 1381 1569 
Q 847 1681 609 1914 
Q 372 2147 372 2553 
Q 372 3047 722 3315 
Q 1072 3584 1716 3584 
Q 2034 3584 2315 3537 
Q 2597 3491 2834 3397 
z
" transform="scale(0.015625)"/>
       <path id="DejaVuSans-63" d="M 3122 3366 
L 3122 2828 
Q 2878 2963 2633 3030 
Q 2388 3097 2138 3097 
Q 1578 3097 1268 2742 
Q 959 2388 959 1747 
Q 959 1106 1268 751 
Q 1578 397 2138 397 
Q 2388 397 2633 464 
Q 2878 531 3122 666 
L 3122 134 
Q 2881 22 2623 -34 
Q 2366 -91 2075 -91 
Q 1284 -91 818 406 
Q 353 903 353 1747 
Q 353 2603 823 3093 
Q 1294 3584 2113 3584 
Q 2378 3584 2631 3529 
Q 2884 3475 3122 3366 
z
" transform="scale(0.015625)"/>
       <path id="DejaVuSans-68" d="M 3513 2113 
L 3513 0 
L 2938 0 
L 2938 2094 
Q 2938 2591 2744 2837 
Q 2550 3084 2163 3084 
Q 1697 3084 1428 2787 
Q 1159 2491 1159 1978 
L 1159 0 
L 581 0 
L 581 4863 
L 1159 4863 
L 1159 2956 
Q 1366 3272 1645 3428 
Q 1925 3584 2291 3584 
Q 2894 3584 3203 3211 
Q 3513 2838 3513 2113 
z
" transform="scale(0.015625)"/>
       <path id="DejaVuSans-72" d="M 2631 2963 
Q 2534 3019 2420 3045 
Q 2306 3072 2169 3072 
Q 1681 3072 1420 2755 
Q 1159 2438 1159 1844 
L 1159 0 
L 581 0 
L 581 3500 
L 1159 3500 
L 1159 2956 
Q 1341 3275 1631 3429 
Q 1922 3584 2338 3584 
Q 2397 3584 2469 3576 
Q 2541 3569 2628 3553 
L 2631 2963 
z
" transform="scale(0.015625)"/>
       <path id="DejaVuSans-20" transform="scale(0.015625)"/>
       <path id="DejaVuSans-28" d="M 1984 4856 
Q 1566 4138 1362 3434 
Q 1159 2731 1159 2009 
Q 1159 1288 1364 580 
Q 1569 -128 1984 -844 
L 1484 -844 
Q 1016 -109 783 600 
Q 550 1309 550 2009 
Q 550 2706 781 3412 
Q 1013 4119 1484 4856 
L 1984 4856 
z
" transform="scale(0.015625)"/>
       <path id="DejaVuSans-6e" d="M 3513 2113 
L 3513 0 
L 2938 0 
L 2938 2094 
Q 2938 2591 2744 2837 
Q 2550 3084 2163 3084 
Q 1697 3084 1428 2787 
Q 1159 2491 1159 1978 
L 1159 0 
L 581 0 
L 581 3500 
L 1159 3500 
L 1159 2956 
Q 1366 3272 1645 3428 
Q 1925 3584 2291 3584 
Q 2894 3584 3203 3211 
Q 3513 2838 3513 2113 
z
" transform="scale(0.015625)"/>
       <path id="DejaVuSans-4d" d="M 628 4666 
L 1569 4666 
L 2759 1491 
L 3956 4666 
L 4897 4666 
L 4897 0 
L 4281 0 
L 4281 4097 
L 3078 897 
L 2444 897 
L 1241 4097 
L 1241 0 
L 628 0 
L 628 4666 
z
" transform="scale(0.015625)"/>
       <path id="DejaVuSans-6c" d="M 603 4863 
L 1178 4863 
L 1178 0 
L 603 0 
L 603 4863 
z
" transform="scale(0.015625)"/>
       <path id="DejaVuSans-6f" d="M 1959 3097 
Q 1497 3097 1228 2736 
Q 959 2375 959 1747 
Q 959 1119 1226 758 
Q 1494 397 1959 397 
Q 2419 397 2687 759 
Q 2956 1122 2956 1747 
Q 2956 2369 2687 2733 
Q 2419 3097 1959 3097 
z
M 1959 3584 
Q 2709 3584 3137 3096 
Q 3566 2609 3566 1747 
Q 3566 888 3137 398 
Q 2709 -91 1959 -91 
Q 1206 -91 779 398 
Q 353 888 353 1747 
Q 353 2609 779 3096 
Q 1206 3584 1959 3584 
z
" transform="scale(0.015625)"/>
       <path id="DejaVuSans-29" d="M 513 4856 
L 1013 4856 
Q 1481 4119 1714 3412 
Q 1947 2706 1947 2009 
Q 1947 1309 1714 600 
Q 1481 -109 1013 -844 
L 513 -844 
Q 928 -128 1133 580 
Q 1338 1288 1338 2009 
Q 1338 2731 1133 3434 
Q 928 4138 513 4856 
z
" transform="scale(0.015625)"/>
      </defs>
      <use xlink:href="#DejaVuSans-5a"/>
      <use xlink:href="#DejaVuSans-65" x="68.505859"/>
      <use xlink:href="#DejaVuSans-69" x="130.029297"/>
      <use xlink:href="#DejaVuSans-74" x="157.8125"/>
      <use xlink:href="#DejaVuSans-73" x="197.021484"/>
      <use xlink:href="#DejaVuSans-63" x="249.121094"/>
      <use xlink:href="#DejaVuSans-68" x="304.101562"/>
      <use xlink:href="#DejaVuSans-72" x="367.480469"/>
      <use xlink:href="#DejaVuSans-69" x="408.59375"/>
      <use xlink:href="#DejaVuSans-74" x="436.376953"/>
      <use xlink:href="#DejaVuSans-74" x="475.585938"/>
      <use xlink:href="#DejaVuSans-65" x="514.794922"/>
      <use xlink:href="#DejaVuSans-20" x="576.318359"/>
      <use xlink:href="#DejaVuSans-28" x="608.105469"/>
      <use xlink:href="#DejaVuSans-69" x="647.119141"/>
      <use xlink:href="#DejaVuSans-6e" x="674.902344"/>
      <use xlink:href="#DejaVuSans-20" x="738.28125"/>
      <use xlink:href="#DejaVuSans-4d" x="770.068359"/>
      <use xlink:href="#DejaVuSans-69" x="856.347656"/>
      <use xlink:href="#DejaVuSans-6c" x="884.130859"/>
      <use xlink:href="#DejaVuSans-6c" x="911.914062"/>
      <use xlink:href="#DejaVuSans-69" x="939.697266"/>
      <use xlink:href="#DejaVuSans-6f" x="967.480469"/>
      <use xlink:href="#DejaVuSans-6e" x="1028.662109"/>
      <use xlink:href="#DejaVuSans-65" x="1092.041016"/>
      <use xlink:href="#DejaVuSans-6e" x="1153.564453"/>
      <use xlink:href="#DejaVuSans-29" x="1216.943359"/>
     </g>
    </g>
   </g>
   <g id="matplotlib.axis_2">
    <g id="ytick_1">
     <g id="line2d_8">
      <path d="M 77.13 272.240444 
L 447.84 272.240444 
" clip-path="url(#p6563e60698)" style="fill: none; stroke: #ffffff; stroke-linecap: round"/>
     </g>
     <g id="text_9">
      <!-- −4000 -->
      <g style="fill: #262626" transform="translate(30.417344 276.419585)scale(0.11 -0.11)">
       <defs>
        <path id="DejaVuSans-2212" d="M 678 2272 
L 4684 2272 
L 4684 1741 
L 678 1741 
L 678 2272 
z
" transform="scale(0.015625)"/>
        <path id="DejaVuSans-34" d="M 2419 4116 
L 825 1625 
L 2419 1625 
L 2419 4116 
z
M 2253 4666 
L 3047 4666 
L 3047 1625 
L 3713 1625 
L 3713 1100 
L 3047 1100 
L 3047 0 
L 2419 0 
L 2419 1100 
L 313 1100 
L 313 1709 
L 2253 4666 
z
" transform="scale(0.015625)"/>
       </defs>
       <use xlink:href="#DejaVuSans-2212"/>
       <use xlink:href="#DejaVuSans-34" x="83.789062"/>
       <use xlink:href="#DejaVuSans-30" x="147.412109"/>
       <use xlink:href="#DejaVuSans-30" x="211.035156"/>
       <use xlink:href="#DejaVuSans-30" x="274.658203"/>
      </g>
     </g>
    </g>
    <g id="ytick_2">
     <g id="line2d_9">
      <path d="M 77.13 212.79611 
L 447.84 212.79611 
" clip-path="url(#p6563e60698)" style="fill: none; stroke: #ffffff; stroke-linecap: round"/>
     </g>
     <g id="text_10">
      <!-- −3000 -->
      <g style="fill: #262626" transform="translate(30.417344 216.97525)scale(0.11 -0.11)">
       <use xlink:href="#DejaVuSans-2212"/>
       <use xlink:href="#DejaVuSans-33" x="83.789062"/>
       <use xlink:href="#DejaVuSans-30" x="147.412109"/>
       <use xlink:href="#DejaVuSans-30" x="211.035156"/>
       <use xlink:href="#DejaVuSans-30" x="274.658203"/>
      </g>
     </g>
    </g>
    <g id="ytick_3">
     <g id="line2d_10">
      <path d="M 77.13 153.351775 
L 447.84 153.351775 
" clip-path="url(#p6563e60698)" style="fill: none; stroke: #ffffff; stroke-linecap: round"/>
     </g>
     <g id="text_11">
      <!-- −2000 -->
      <g style="fill: #262626" transform="translate(30.417344 157.530915)scale(0.11 -0.11)">
       <use xlink:href="#DejaVuSans-2212"/>
       <use xlink:href="#DejaVuSans-32" x="83.789062"/>
       <use xlink:href="#DejaVuSans-30" x="147.412109"/>
       <use xlink:href="#DejaVuSans-30" x="211.035156"/>
       <use xlink:href="#DejaVuSans-30" x="274.658203"/>
      </g>
     </g>
    </g>
    <g id="ytick_4">
     <g id="line2d_11">
      <path d="M 77.13 93.90744 
L 447.84 93.90744 
" clip-path="url(#p6563e60698)" style="fill: none; stroke: #ffffff; stroke-linecap: round"/>
     </g>
     <g id="text_12">
      <!-- −1000 -->
      <g style="fill: #262626" transform="translate(30.417344 98.086581)scale(0.11 -0.11)">
       <use xlink:href="#DejaVuSans-2212"/>
       <use xlink:href="#DejaVuSans-31" x="83.789062"/>
       <use xlink:href="#DejaVuSans-30" x="147.412109"/>
       <use xlink:href="#DejaVuSans-30" x="211.035156"/>
       <use xlink:href="#DejaVuSans-30" x="274.658203"/>
      </g>
     </g>
    </g>
    <g id="ytick_5">
     <g id="line2d_12">
      <path d="M 77.13 34.463105 
L 447.84 34.463105 
" clip-path="url(#p6563e60698)" style="fill: none; stroke: #ffffff; stroke-linecap: round"/>
     </g>
     <g id="text_13">
      <!-- 0 -->
      <g style="fill: #262626" transform="translate(60.63125 38.642246)scale(0.11 -0.11)">
       <use xlink:href="#DejaVuSans-30"/>
      </g>
     </g>
    </g>
    <g id="text_14">
     <!-- Belohnung -->
     <g style="fill: #262626" transform="translate(23.505781 191.336563)rotate(-90)scale(0.14 -0.14)">
      <defs>
       <path id="DejaVuSans-42" d="M 1259 2228 
L 1259 519 
L 2272 519 
Q 2781 519 3026 730 
Q 3272 941 3272 1375 
Q 3272 1813 3026 2020 
Q 2781 2228 2272 2228 
L 1259 2228 
z
M 1259 4147 
L 1259 2741 
L 2194 2741 
Q 2656 2741 2882 2914 
Q 3109 3088 3109 3444 
Q 3109 3797 2882 3972 
Q 2656 4147 2194 4147 
L 1259 4147 
z
M 628 4666 
L 2241 4666 
Q 2963 4666 3353 4366 
Q 3744 4066 3744 3513 
Q 3744 3084 3544 2831 
Q 3344 2578 2956 2516 
Q 3422 2416 3680 2098 
Q 3938 1781 3938 1306 
Q 3938 681 3513 340 
Q 3088 0 2303 0 
L 628 0 
L 628 4666 
z
" transform="scale(0.015625)"/>
       <path id="DejaVuSans-75" d="M 544 1381 
L 544 3500 
L 1119 3500 
L 1119 1403 
Q 1119 906 1312 657 
Q 1506 409 1894 409 
Q 2359 409 2629 706 
Q 2900 1003 2900 1516 
L 2900 3500 
L 3475 3500 
L 3475 0 
L 2900 0 
L 2900 538 
Q 2691 219 2414 64 
Q 2138 -91 1772 -91 
Q 1169 -91 856 284 
Q 544 659 544 1381 
z
M 1991 3584 
L 1991 3584 
z
" transform="scale(0.015625)"/>
       <path id="DejaVuSans-67" d="M 2906 1791 
Q 2906 2416 2648 2759 
Q 2391 3103 1925 3103 
Q 1463 3103 1205 2759 
Q 947 2416 947 1791 
Q 947 1169 1205 825 
Q 1463 481 1925 481 
Q 2391 481 2648 825 
Q 2906 1169 2906 1791 
z
M 3481 434 
Q 3481 -459 3084 -895 
Q 2688 -1331 1869 -1331 
Q 1566 -1331 1297 -1286 
Q 1028 -1241 775 -1147 
L 775 -588 
Q 1028 -725 1275 -790 
Q 1522 -856 1778 -856 
Q 2344 -856 2625 -561 
Q 2906 -266 2906 331 
L 2906 616 
Q 2728 306 2450 153 
Q 2172 0 1784 0 
Q 1141 0 747 490 
Q 353 981 353 1791 
Q 353 2603 747 3093 
Q 1141 3584 1784 3584 
Q 2172 3584 2450 3431 
Q 2728 3278 2906 2969 
L 2906 3500 
L 3481 3500 
L 3481 434 
z
" transform="scale(0.015625)"/>
      </defs>
      <use xlink:href="#DejaVuSans-42"/>
      <use xlink:href="#DejaVuSans-65" x="68.603516"/>
      <use xlink:href="#DejaVuSans-6c" x="130.126953"/>
      <use xlink:href="#DejaVuSans-6f" x="157.910156"/>
      <use xlink:href="#DejaVuSans-68" x="219.091797"/>
      <use xlink:href="#DejaVuSans-6e" x="282.470703"/>
      <use xlink:href="#DejaVuSans-75" x="345.849609"/>
      <use xlink:href="#DejaVuSans-6e" x="409.228516"/>
      <use xlink:href="#DejaVuSans-67" x="472.607422"/>
     </g>
    </g>
   </g>
   <g id="PolyCollection_1">
    <defs>
     <path id="m83246fdcb9" d="M 93.980455 -147.284031 
L 93.980455 -176.878576 
L 96.812464 -179.166752 
L 99.644473 -180.87687 
L 102.476482 -187.027709 
L 105.308491 -176.79299 
L 108.1405 -200.602206 
L 110.97251 -204.643523 
L 113.804519 -216.365052 
L 116.636528 -235.75566 
L 119.468537 -220.004592 
L 122.300546 -223.474429 
L 125.132555 -225.648893 
L 127.964565 -219.20093 
L 130.796574 -221.910292 
L 133.628583 -224.356668 
L 136.460592 -252.233764 
L 139.292601 -235.726131 
L 142.12461 -278.054565 
L 144.95662 -246.083627 
L 147.788629 -235.902418 
L 150.620638 -258.547372 
L 153.452647 -262.617996 
L 156.284656 -258.84107 
L 159.116665 -258.649864 
L 161.948675 -245.361511 
L 164.780684 -255.920995 
L 167.612693 -300.643619 
L 170.444702 -279.40302 
L 173.276711 -243.908943 
L 176.10872 -250.665662 
L 178.94073 -282.602479 
L 181.772739 -259.514053 
L 184.604748 -237.292801 
L 187.436757 -279.87308 
L 190.268766 -283.67723 
L 193.100775 -264.401168 
L 195.932785 -242.452538 
L 198.764794 -282.1927 
L 201.596803 -248.824355 
L 204.428812 -245.968842 
L 207.260821 -273.728403 
L 210.09283 -286.405201 
L 212.92484 -292.341435 
L 215.756849 -299.232986 
L 218.588858 -299.669243 
L 221.420867 -295.531291 
L 224.252876 -300.59988 
L 227.084885 -286.261769 
L 229.916895 -297.657058 
L 232.748904 -295.354061 
L 235.580913 -280.596637 
L 238.412922 -300.497732 
L 241.244931 -270.481831 
L 244.07694 -287.395741 
L 246.90895 -285.689206 
L 249.740959 -312.19971 
L 252.572968 -289.691376 
L 255.404977 -309.67626 
L 258.236986 -282.953227 
L 261.068995 -278.600503 
L 263.901005 -305.674167 
L 266.733014 -293.787581 
L 269.565023 -293.15016 
L 272.397032 -285.131199 
L 275.229041 -305.21792 
L 278.06105 -278.655645 
L 280.89306 -271.832875 
L 283.725069 -271.722225 
L 286.557078 -283.517204 
L 289.389087 -295.30224 
L 292.221096 -294.745853 
L 295.053105 -289.555943 
L 297.885115 -269.306874 
L 300.717124 -279.145703 
L 303.549133 -291.905525 
L 306.381142 -283.417132 
L 309.213151 -298.542729 
L 312.04516 -280.329239 
L 314.87717 -299.831638 
L 317.709179 -295.681005 
L 320.541188 -293.799794 
L 323.373197 -306.705664 
L 326.205206 -270.10727 
L 329.037215 -275.584869 
L 331.869225 -298.529669 
L 334.701234 -319.082567 
L 337.533243 -281.389413 
L 340.365252 -289.265442 
L 343.197261 -306.864975 
L 346.02927 -278.058795 
L 348.86128 -282.693388 
L 351.693289 -293.814085 
L 354.525298 -298.238479 
L 357.357307 -289.187532 
L 360.189316 -289.015079 
L 363.021325 -319.835455 
L 365.853335 -292.035758 
L 368.685344 -294.723689 
L 371.517353 -309.878698 
L 374.349362 -295.148671 
L 377.181371 -294.027576 
L 380.01338 -290.862579 
L 382.84539 -295.122345 
L 385.677399 -293.133767 
L 388.509408 -298.30414 
L 391.341417 -294.784368 
L 394.173426 -309.098876 
L 397.005435 -307.765457 
L 399.837445 -292.189309 
L 402.669454 -301.672504 
L 405.501463 -300.911334 
L 408.333472 -296.151735 
L 411.165481 -295.244241 
L 413.99749 -304.066044 
L 416.8295 -303.957056 
L 419.661509 -304.185799 
L 422.493518 -287.506152 
L 425.325527 -297.801481 
L 428.157536 -295.536485 
L 430.989545 -295.526 
L 430.989545 -276.399796 
L 430.989545 -276.399796 
L 428.157536 -269.466434 
L 425.325527 -275.592836 
L 422.493518 -278.937182 
L 419.661509 -246.658306 
L 416.8295 -263.092379 
L 413.99749 -254.789703 
L 411.165481 -271.959204 
L 408.333472 -263.834312 
L 405.501463 -259.634704 
L 402.669454 -272.579328 
L 399.837445 -253.350982 
L 397.005435 -240.237007 
L 394.173426 -234.837169 
L 391.341417 -220.397581 
L 388.509408 -267.475861 
L 385.677399 -261.897604 
L 382.84539 -268.921147 
L 380.01338 -254.894075 
L 377.181371 -264.409051 
L 374.349362 -273.898048 
L 371.517353 -254.163085 
L 368.685344 -239.460893 
L 365.853335 -252.028149 
L 363.021325 -243.075911 
L 360.189316 -255.276539 
L 357.357307 -240.448968 
L 354.525298 -269.286556 
L 351.693289 -244.704514 
L 348.86128 -213.612012 
L 346.02927 -246.903643 
L 343.197261 -243.321007 
L 340.365252 -234.146035 
L 337.533243 -243.186418 
L 334.701234 -250.372383 
L 331.869225 -231.794561 
L 329.037215 -220.781965 
L 326.205206 -237.221373 
L 323.373197 -231.721384 
L 320.541188 -233.872161 
L 317.709179 -235.671117 
L 314.87717 -247.841727 
L 312.04516 -217.763328 
L 309.213151 -227.015876 
L 306.381142 -234.937413 
L 303.549133 -233.017984 
L 300.717124 -203.910597 
L 297.885115 -229.737594 
L 295.053105 -221.186354 
L 292.221096 -258.771337 
L 289.389087 -243.758865 
L 286.557078 -239.643828 
L 283.725069 -242.875826 
L 280.89306 -229.149097 
L 278.06105 -235.890401 
L 275.229041 -227.055953 
L 272.397032 -230.711066 
L 269.565023 -222.517259 
L 266.733014 -219.222569 
L 263.901005 -238.170146 
L 261.068995 -216.298576 
L 258.236986 -245.662508 
L 255.404977 -201.293599 
L 252.572968 -238.069883 
L 249.740959 -215.936414 
L 246.90895 -194.001693 
L 244.07694 -219.833602 
L 241.244931 -215.027887 
L 238.412922 -185.935711 
L 235.580913 -195.127099 
L 232.748904 -205.566876 
L 229.916895 -211.12554 
L 227.084885 -158.074136 
L 224.252876 -238.710922 
L 221.420867 -228.223655 
L 218.588858 -190.017674 
L 215.756849 -229.043197 
L 212.92484 -203.446276 
L 210.09283 -192.390481 
L 207.260821 -207.4645 
L 204.428812 -214.563936 
L 201.596803 -199.694503 
L 198.764794 -105.044699 
L 195.932785 -213.197678 
L 193.100775 -217.830537 
L 190.268766 -204.810247 
L 187.436757 -234.503135 
L 184.604748 -200.809199 
L 181.772739 -194.018696 
L 178.94073 -203.15371 
L 176.10872 -186.921903 
L 173.276711 -205.847862 
L 170.444702 -191.164306 
L 167.612693 -190.492105 
L 164.780684 -203.187878 
L 161.948675 -189.94926 
L 159.116665 -206.399625 
L 156.284656 -188.134162 
L 153.452647 -200.284333 
L 150.620638 -189.701538 
L 147.788629 -63.744545 
L 144.95662 -194.091586 
L 142.12461 -191.399491 
L 139.292601 -186.076418 
L 136.460592 -200.522132 
L 133.628583 -197.569628 
L 130.796574 -191.644011 
L 127.964565 -142.713168 
L 125.132555 -200.008092 
L 122.300546 -192.45615 
L 119.468537 -185.27704 
L 116.636528 -184.841832 
L 113.804519 -181.053197 
L 110.97251 -179.065648 
L 108.1405 -182.148229 
L 105.308491 -165.451464 
L 102.476482 -160.380426 
L 99.644473 -142.272966 
L 96.812464 -148.087604 
L 93.980455 -147.284031 
z
" style="stroke: #ffffff; stroke-opacity: 0.5"/>
    </defs>
    <g clip-path="url(#p6563e60698)">
     <use xlink:href="#m83246fdcb9" x="0" y="345.6" style="fill: #4c72b0; fill-opacity: 0.5; stroke: #ffffff; stroke-opacity: 0.5"/>
    </g>
   </g>
   <g id="line2d_13">
    <path d="M 93.980455 183.782248 
L 96.812464 178.921073 
L 99.644473 177.961136 
L 102.476482 170.274813 
L 105.308491 172.283184 
L 108.1405 153.34195 
L 110.97251 155.861185 
L 113.804519 148.26339 
L 116.636528 138.770922 
L 119.468537 147.831189 
L 122.300546 139.943521 
L 125.132555 137.578206 
L 127.964565 156.481296 
L 130.796574 138.289726 
L 133.628583 137.92712 
L 136.460592 121.963688 
L 139.292601 139.825998 
L 142.12461 125.402027 
L 144.95662 130.015304 
L 147.788629 154.733634 
L 150.620638 111.774915 
L 153.452647 108.033212 
L 156.284656 128.015222 
L 159.116665 120.122789 
L 161.948675 132.062296 
L 164.780684 123.081639 
L 167.612693 113.392076 
L 170.444702 109.273224 
L 173.276711 128.104149 
L 176.10872 114.333612 
L 178.94073 105.791747 
L 181.772739 120.573823 
L 184.604748 125.863466 
L 187.436757 86.128965 
L 190.268766 109.606883 
L 193.100775 112.737546 
L 195.932785 116.214745 
L 198.764794 124.906258 
L 201.596803 122.063123 
L 204.428812 113.321121 
L 207.260821 95.729204 
L 210.09283 118.081238 
L 212.92484 95.552911 
L 215.756849 90.118627 
L 218.588858 109.195232 
L 221.420867 84.809314 
L 224.252876 72.168367 
L 227.084885 114.420905 
L 229.916895 85.133961 
L 232.748904 89.760796 
L 235.580913 108.147438 
L 238.412922 94.803952 
L 241.244931 98.564989 
L 244.07694 102.973598 
L 246.90895 107.02228 
L 249.740959 82.922067 
L 252.572968 90.197943 
L 255.404977 96.730526 
L 258.236986 84.599517 
L 261.068995 98.640289 
L 263.901005 79.527648 
L 266.733014 80.306938 
L 269.565023 99.167127 
L 272.397032 81.647733 
L 275.229041 76.539663 
L 278.06105 84.887327 
L 280.89306 96.452282 
L 283.725069 83.142461 
L 286.557078 87.356331 
L 289.389087 73.508216 
L 292.221096 72.292904 
L 295.053105 92.106113 
L 297.885115 91.482307 
L 300.717124 108.609336 
L 303.549133 82.743241 
L 306.381142 87.149625 
L 309.213151 86.804475 
L 312.04516 104.859214 
L 314.87717 79.761877 
L 317.709179 89.877044 
L 320.541188 85.768668 
L 323.373197 79.372454 
L 326.205206 85.979266 
L 329.037215 95.598758 
L 331.869225 80.004489 
L 334.701234 68.971029 
L 337.533243 88.378511 
L 340.365252 76.617122 
L 343.197261 68.805516 
L 346.02927 89.961971 
L 348.86128 88.494712 
L 351.693289 79.303812 
L 354.525298 61.693908 
L 357.357307 85.480545 
L 360.189316 71.53478 
L 363.021325 74.657479 
L 365.853335 76.314502 
L 368.685344 83.445345 
L 371.517353 69.998978 
L 374.349362 62.775427 
L 377.181371 69.546855 
L 380.01338 72.001754 
L 382.84539 65.270246 
L 385.677399 73.329017 
L 388.509408 64.122636 
L 391.341417 80.409683 
L 394.173426 68.790486 
L 397.005435 63.750367 
L 399.837445 65.73281 
L 402.669454 61.947508 
L 405.501463 66.065898 
L 408.333472 64.57298 
L 411.165481 63.271329 
L 413.99749 58.178525 
L 416.8295 63.408585 
L 419.661509 72.491437 
L 422.493518 61.68414 
L 425.325527 61.302367 
L 428.157536 63.289352 
L 430.989545 60.758669 
" clip-path="url(#p6563e60698)" style="fill: none; stroke: #4c72b0; stroke-width: 3; stroke-linecap: round"/>
   </g>
   <g id="patch_3">
    <path d="M 77.13 294.66 
L 77.13 12.96 
" style="fill: none; stroke: #ffffff; stroke-width: 1.25; stroke-linejoin: miter; stroke-linecap: square"/>
   </g>
   <g id="patch_4">
    <path d="M 447.84 294.66 
L 447.84 12.96 
" style="fill: none; stroke: #ffffff; stroke-width: 1.25; stroke-linejoin: miter; stroke-linecap: square"/>
   </g>
   <g id="patch_5">
    <path d="M 77.13 294.66 
L 447.84 294.66 
" style="fill: none; stroke: #ffffff; stroke-width: 1.25; stroke-linejoin: miter; stroke-linecap: square"/>
   </g>
   <g id="patch_6">
    <path d="M 77.13 12.96 
L 447.84 12.96 
" style="fill: none; stroke: #ffffff; stroke-width: 1.25; stroke-linejoin: miter; stroke-linecap: square"/>
   </g>
   <g id="legend_1">
    <g id="patch_7">
     <path d="M 312.723906 37.905937 
L 440.14 37.905937 
Q 442.34 37.905937 442.34 35.705938 
L 442.34 20.66 
Q 442.34 18.46 440.14 18.46 
L 312.723906 18.46 
Q 310.523906 18.46 310.523906 20.66 
L 310.523906 35.705938 
Q 310.523906 37.905937 312.723906 37.905937 
z
" style="fill: #eaeaf2; opacity: 0.8; stroke: #cccccc; stroke-linejoin: miter"/>
    </g>
    <g id="line2d_14">
     <path d="M 314.923906 27.368281 
L 325.923906 27.368281 
L 336.923906 27.368281 
" style="fill: none; stroke: #4c72b0; stroke-width: 3; stroke-linecap: round"/>
    </g>
    <g id="text_15">
     <!-- SAC-IS-DELAY-20 -->
     <g style="fill: #262626" transform="translate(345.723906 31.218281)scale(0.11 -0.11)">
      <defs>
       <path id="DejaVuSans-53" d="M 3425 4513 
L 3425 3897 
Q 3066 4069 2747 4153 
Q 2428 4238 2131 4238 
Q 1616 4238 1336 4038 
Q 1056 3838 1056 3469 
Q 1056 3159 1242 3001 
Q 1428 2844 1947 2747 
L 2328 2669 
Q 3034 2534 3370 2195 
Q 3706 1856 3706 1288 
Q 3706 609 3251 259 
Q 2797 -91 1919 -91 
Q 1588 -91 1214 -16 
Q 841 59 441 206 
L 441 856 
Q 825 641 1194 531 
Q 1563 422 1919 422 
Q 2459 422 2753 634 
Q 3047 847 3047 1241 
Q 3047 1584 2836 1778 
Q 2625 1972 2144 2069 
L 1759 2144 
Q 1053 2284 737 2584 
Q 422 2884 422 3419 
Q 422 4038 858 4394 
Q 1294 4750 2059 4750 
Q 2388 4750 2728 4690 
Q 3069 4631 3425 4513 
z
" transform="scale(0.015625)"/>
       <path id="DejaVuSans-41" d="M 2188 4044 
L 1331 1722 
L 3047 1722 
L 2188 4044 
z
M 1831 4666 
L 2547 4666 
L 4325 0 
L 3669 0 
L 3244 1197 
L 1141 1197 
L 716 0 
L 50 0 
L 1831 4666 
z
" transform="scale(0.015625)"/>
       <path id="DejaVuSans-43" d="M 4122 4306 
L 4122 3641 
Q 3803 3938 3442 4084 
Q 3081 4231 2675 4231 
Q 1875 4231 1450 3742 
Q 1025 3253 1025 2328 
Q 1025 1406 1450 917 
Q 1875 428 2675 428 
Q 3081 428 3442 575 
Q 3803 722 4122 1019 
L 4122 359 
Q 3791 134 3420 21 
Q 3050 -91 2638 -91 
Q 1578 -91 968 557 
Q 359 1206 359 2328 
Q 359 3453 968 4101 
Q 1578 4750 2638 4750 
Q 3056 4750 3426 4639 
Q 3797 4528 4122 4306 
z
" transform="scale(0.015625)"/>
       <path id="DejaVuSans-2d" d="M 313 2009 
L 1997 2009 
L 1997 1497 
L 313 1497 
L 313 2009 
z
" transform="scale(0.015625)"/>
       <path id="DejaVuSans-49" d="M 628 4666 
L 1259 4666 
L 1259 0 
L 628 0 
L 628 4666 
z
" transform="scale(0.015625)"/>
       <path id="DejaVuSans-44" d="M 1259 4147 
L 1259 519 
L 2022 519 
Q 2988 519 3436 956 
Q 3884 1394 3884 2338 
Q 3884 3275 3436 3711 
Q 2988 4147 2022 4147 
L 1259 4147 
z
M 628 4666 
L 1925 4666 
Q 3281 4666 3915 4102 
Q 4550 3538 4550 2338 
Q 4550 1131 3912 565 
Q 3275 0 1925 0 
L 628 0 
L 628 4666 
z
" transform="scale(0.015625)"/>
       <path id="DejaVuSans-45" d="M 628 4666 
L 3578 4666 
L 3578 4134 
L 1259 4134 
L 1259 2753 
L 3481 2753 
L 3481 2222 
L 1259 2222 
L 1259 531 
L 3634 531 
L 3634 0 
L 628 0 
L 628 4666 
z
" transform="scale(0.015625)"/>
       <path id="DejaVuSans-4c" d="M 628 4666 
L 1259 4666 
L 1259 531 
L 3531 531 
L 3531 0 
L 628 0 
L 628 4666 
z
" transform="scale(0.015625)"/>
       <path id="DejaVuSans-59" d="M -13 4666 
L 666 4666 
L 1959 2747 
L 3244 4666 
L 3922 4666 
L 2272 2222 
L 2272 0 
L 1638 0 
L 1638 2222 
L -13 4666 
z
" transform="scale(0.015625)"/>
      </defs>
      <use xlink:href="#DejaVuSans-53"/>
      <use xlink:href="#DejaVuSans-41" x="65.351562"/>
      <use xlink:href="#DejaVuSans-43" x="132.009766"/>
      <use xlink:href="#DejaVuSans-2d" x="201.833984"/>
      <use xlink:href="#DejaVuSans-49" x="237.917969"/>
      <use xlink:href="#DejaVuSans-53" x="267.410156"/>
      <use xlink:href="#DejaVuSans-2d" x="330.886719"/>
      <use xlink:href="#DejaVuSans-44" x="366.970703"/>
      <use xlink:href="#DejaVuSans-45" x="443.972656"/>
      <use xlink:href="#DejaVuSans-4c" x="507.15625"/>
      <use xlink:href="#DejaVuSans-41" x="565.119141"/>
      <use xlink:href="#DejaVuSans-59" x="625.777344"/>
      <use xlink:href="#DejaVuSans-2d" x="674.986328"/>
      <use xlink:href="#DejaVuSans-32" x="711.070312"/>
      <use xlink:href="#DejaVuSans-30" x="774.693359"/>
     </g>
    </g>
   </g>
  </g>
 </g>
 <defs>
  <clipPath id="p6563e60698">
   <rect x="77.13" y="12.96" width="370.71" height="281.7"/>
  </clipPath>
 </defs>
</svg>
