<?xml version="1.0" encoding="utf-8" standalone="no"?>
<!DOCTYPE svg PUBLIC "-//W3C//DTD SVG 1.1//EN"
  "http://www.w3.org/Graphics/SVG/1.1/DTD/svg11.dtd">
<svg xmlns:xlink="http://www.w3.org/1999/xlink" width="460.8pt" height="345.6pt" viewBox="0 0 460.8 345.6" xmlns="http://www.w3.org/2000/svg" version="1.1">
 <metadata>
  <rdf:RDF xmlns:dc="http://purl.org/dc/elements/1.1/" xmlns:cc="http://creativecommons.org/ns#" xmlns:rdf="http://www.w3.org/1999/02/22-rdf-syntax-ns#">
   <cc:Work>
    <dc:type rdf:resource="http://purl.org/dc/dcmitype/StillImage"/>
    <dc:date>2022-09-13T10:29:57.924367</dc:date>
    <dc:format>image/svg+xml</dc:format>
    <dc:creator>
     <cc:Agent>
      <dc:title>Matplotlib v3.5.3, https://matplotlib.org/</dc:title>
     </cc:Agent>
    </dc:creator>
   </cc:Work>
  </rdf:RDF>
 </metadata>
 <defs>
  <style type="text/css">*{stroke-linejoin: round; stroke-linecap: butt}</style>
 </defs>
 <g id="figure_1">
  <g id="patch_1">
   <path d="M 0 345.6 
L 460.8 345.6 
L 460.8 0 
L 0 0 
z
" style="fill: #ffffff"/>
  </g>
  <g id="axes_1">
   <g id="patch_2">
    <path d="M 77.04 294.66 
L 447.84 294.66 
L 447.84 12.96 
L 77.04 12.96 
z
" style="fill: #eaeaf2"/>
   </g>
   <g id="matplotlib.axis_1">
    <g id="xtick_1">
     <g id="line2d_1">
      <path d="M 91.061849 294.66 
L 91.061849 12.96 
" clip-path="url(#paedb67f5de)" style="fill: none; stroke: #ffffff; stroke-linecap: round"/>
     </g>
     <g id="text_1">
      <!-- 0.00 -->
      <g style="fill: #262626" transform="translate(78.815755 312.518281)scale(0.11 -0.11)">
       <defs>
        <path id="DejaVuSans-30" d="M 2034 4250 
Q 1547 4250 1301 3770 
Q 1056 3291 1056 2328 
Q 1056 1369 1301 889 
Q 1547 409 2034 409 
Q 2525 409 2770 889 
Q 3016 1369 3016 2328 
Q 3016 3291 2770 3770 
Q 2525 4250 2034 4250 
z
M 2034 4750 
Q 2819 4750 3233 4129 
Q 3647 3509 3647 2328 
Q 3647 1150 3233 529 
Q 2819 -91 2034 -91 
Q 1250 -91 836 529 
Q 422 1150 422 2328 
Q 422 3509 836 4129 
Q 1250 4750 2034 4750 
z
" transform="scale(0.015625)"/>
        <path id="DejaVuSans-2e" d="M 684 794 
L 1344 794 
L 1344 0 
L 684 0 
L 684 794 
z
" transform="scale(0.015625)"/>
       </defs>
       <use xlink:href="#DejaVuSans-30"/>
       <use xlink:href="#DejaVuSans-2e" x="63.623047"/>
       <use xlink:href="#DejaVuSans-30" x="95.410156"/>
       <use xlink:href="#DejaVuSans-30" x="159.033203"/>
      </g>
     </g>
    </g>
    <g id="xtick_2">
     <g id="line2d_2">
      <path d="M 147.715783 294.66 
L 147.715783 12.96 
" clip-path="url(#paedb67f5de)" style="fill: none; stroke: #ffffff; stroke-linecap: round"/>
     </g>
     <g id="text_2">
      <!-- 0.05 -->
      <g style="fill: #262626" transform="translate(135.469689 312.518281)scale(0.11 -0.11)">
       <defs>
        <path id="DejaVuSans-35" d="M 691 4666 
L 3169 4666 
L 3169 4134 
L 1269 4134 
L 1269 2991 
Q 1406 3038 1543 3061 
Q 1681 3084 1819 3084 
Q 2600 3084 3056 2656 
Q 3513 2228 3513 1497 
Q 3513 744 3044 326 
Q 2575 -91 1722 -91 
Q 1428 -91 1123 -41 
Q 819 9 494 109 
L 494 744 
Q 775 591 1075 516 
Q 1375 441 1709 441 
Q 2250 441 2565 725 
Q 2881 1009 2881 1497 
Q 2881 1984 2565 2268 
Q 2250 2553 1709 2553 
Q 1456 2553 1204 2497 
Q 953 2441 691 2322 
L 691 4666 
z
" transform="scale(0.015625)"/>
       </defs>
       <use xlink:href="#DejaVuSans-30"/>
       <use xlink:href="#DejaVuSans-2e" x="63.623047"/>
       <use xlink:href="#DejaVuSans-30" x="95.410156"/>
       <use xlink:href="#DejaVuSans-35" x="159.033203"/>
      </g>
     </g>
    </g>
    <g id="xtick_3">
     <g id="line2d_3">
      <path d="M 204.369717 294.66 
L 204.369717 12.96 
" clip-path="url(#paedb67f5de)" style="fill: none; stroke: #ffffff; stroke-linecap: round"/>
     </g>
     <g id="text_3">
      <!-- 0.10 -->
      <g style="fill: #262626" transform="translate(192.123624 312.518281)scale(0.11 -0.11)">
       <defs>
        <path id="DejaVuSans-31" d="M 794 531 
L 1825 531 
L 1825 4091 
L 703 3866 
L 703 4441 
L 1819 4666 
L 2450 4666 
L 2450 531 
L 3481 531 
L 3481 0 
L 794 0 
L 794 531 
z
" transform="scale(0.015625)"/>
       </defs>
       <use xlink:href="#DejaVuSans-30"/>
       <use xlink:href="#DejaVuSans-2e" x="63.623047"/>
       <use xlink:href="#DejaVuSans-31" x="95.410156"/>
       <use xlink:href="#DejaVuSans-30" x="159.033203"/>
      </g>
     </g>
    </g>
    <g id="xtick_4">
     <g id="line2d_4">
      <path d="M 261.023652 294.66 
L 261.023652 12.96 
" clip-path="url(#paedb67f5de)" style="fill: none; stroke: #ffffff; stroke-linecap: round"/>
     </g>
     <g id="text_4">
      <!-- 0.15 -->
      <g style="fill: #262626" transform="translate(248.777558 312.518281)scale(0.11 -0.11)">
       <use xlink:href="#DejaVuSans-30"/>
       <use xlink:href="#DejaVuSans-2e" x="63.623047"/>
       <use xlink:href="#DejaVuSans-31" x="95.410156"/>
       <use xlink:href="#DejaVuSans-35" x="159.033203"/>
      </g>
     </g>
    </g>
    <g id="xtick_5">
     <g id="line2d_5">
      <path d="M 317.677586 294.66 
L 317.677586 12.96 
" clip-path="url(#paedb67f5de)" style="fill: none; stroke: #ffffff; stroke-linecap: round"/>
     </g>
     <g id="text_5">
      <!-- 0.20 -->
      <g style="fill: #262626" transform="translate(305.431492 312.518281)scale(0.11 -0.11)">
       <defs>
        <path id="DejaVuSans-32" d="M 1228 531 
L 3431 531 
L 3431 0 
L 469 0 
L 469 531 
Q 828 903 1448 1529 
Q 2069 2156 2228 2338 
Q 2531 2678 2651 2914 
Q 2772 3150 2772 3378 
Q 2772 3750 2511 3984 
Q 2250 4219 1831 4219 
Q 1534 4219 1204 4116 
Q 875 4013 500 3803 
L 500 4441 
Q 881 4594 1212 4672 
Q 1544 4750 1819 4750 
Q 2544 4750 2975 4387 
Q 3406 4025 3406 3419 
Q 3406 3131 3298 2873 
Q 3191 2616 2906 2266 
Q 2828 2175 2409 1742 
Q 1991 1309 1228 531 
z
" transform="scale(0.015625)"/>
       </defs>
       <use xlink:href="#DejaVuSans-30"/>
       <use xlink:href="#DejaVuSans-2e" x="63.623047"/>
       <use xlink:href="#DejaVuSans-32" x="95.410156"/>
       <use xlink:href="#DejaVuSans-30" x="159.033203"/>
      </g>
     </g>
    </g>
    <g id="xtick_6">
     <g id="line2d_6">
      <path d="M 374.33152 294.66 
L 374.33152 12.96 
" clip-path="url(#paedb67f5de)" style="fill: none; stroke: #ffffff; stroke-linecap: round"/>
     </g>
     <g id="text_6">
      <!-- 0.25 -->
      <g style="fill: #262626" transform="translate(362.085426 312.518281)scale(0.11 -0.11)">
       <use xlink:href="#DejaVuSans-30"/>
       <use xlink:href="#DejaVuSans-2e" x="63.623047"/>
       <use xlink:href="#DejaVuSans-32" x="95.410156"/>
       <use xlink:href="#DejaVuSans-35" x="159.033203"/>
      </g>
     </g>
    </g>
    <g id="xtick_7">
     <g id="line2d_7">
      <path d="M 430.985455 294.66 
L 430.985455 12.96 
" clip-path="url(#paedb67f5de)" style="fill: none; stroke: #ffffff; stroke-linecap: round"/>
     </g>
     <g id="text_7">
      <!-- 0.30 -->
      <g style="fill: #262626" transform="translate(418.739361 312.518281)scale(0.11 -0.11)">
       <defs>
        <path id="DejaVuSans-33" d="M 2597 2516 
Q 3050 2419 3304 2112 
Q 3559 1806 3559 1356 
Q 3559 666 3084 287 
Q 2609 -91 1734 -91 
Q 1441 -91 1130 -33 
Q 819 25 488 141 
L 488 750 
Q 750 597 1062 519 
Q 1375 441 1716 441 
Q 2309 441 2620 675 
Q 2931 909 2931 1356 
Q 2931 1769 2642 2001 
Q 2353 2234 1838 2234 
L 1294 2234 
L 1294 2753 
L 1863 2753 
Q 2328 2753 2575 2939 
Q 2822 3125 2822 3475 
Q 2822 3834 2567 4026 
Q 2313 4219 1838 4219 
Q 1578 4219 1281 4162 
Q 984 4106 628 3988 
L 628 4550 
Q 988 4650 1302 4700 
Q 1616 4750 1894 4750 
Q 2613 4750 3031 4423 
Q 3450 4097 3450 3541 
Q 3450 3153 3228 2886 
Q 3006 2619 2597 2516 
z
" transform="scale(0.015625)"/>
       </defs>
       <use xlink:href="#DejaVuSans-30"/>
       <use xlink:href="#DejaVuSans-2e" x="63.623047"/>
       <use xlink:href="#DejaVuSans-33" x="95.410156"/>
       <use xlink:href="#DejaVuSans-30" x="159.033203"/>
      </g>
     </g>
    </g>
    <g id="text_8">
     <!-- Zeitschritte (in Millionen) -->
     <g style="fill: #262626" transform="translate(174.525469 329.44375)scale(0.14 -0.14)">
      <defs>
       <path id="DejaVuSans-5a" d="M 359 4666 
L 4025 4666 
L 4025 4184 
L 1075 531 
L 4097 531 
L 4097 0 
L 288 0 
L 288 481 
L 3238 4134 
L 359 4134 
L 359 4666 
z
" transform="scale(0.015625)"/>
       <path id="DejaVuSans-65" d="M 3597 1894 
L 3597 1613 
L 953 1613 
Q 991 1019 1311 708 
Q 1631 397 2203 397 
Q 2534 397 2845 478 
Q 3156 559 3463 722 
L 3463 178 
Q 3153 47 2828 -22 
Q 2503 -91 2169 -91 
Q 1331 -91 842 396 
Q 353 884 353 1716 
Q 353 2575 817 3079 
Q 1281 3584 2069 3584 
Q 2775 3584 3186 3129 
Q 3597 2675 3597 1894 
z
M 3022 2063 
Q 3016 2534 2758 2815 
Q 2500 3097 2075 3097 
Q 1594 3097 1305 2825 
Q 1016 2553 972 2059 
L 3022 2063 
z
" transform="scale(0.015625)"/>
       <path id="DejaVuSans-69" d="M 603 3500 
L 1178 3500 
L 1178 0 
L 603 0 
L 603 3500 
z
M 603 4863 
L 1178 4863 
L 1178 4134 
L 603 4134 
L 603 4863 
z
" transform="scale(0.015625)"/>
       <path id="DejaVuSans-74" d="M 1172 4494 
L 1172 3500 
L 2356 3500 
L 2356 3053 
L 1172 3053 
L 1172 1153 
Q 1172 725 1289 603 
Q 1406 481 1766 481 
L 2356 481 
L 2356 0 
L 1766 0 
Q 1100 0 847 248 
Q 594 497 594 1153 
L 594 3053 
L 172 3053 
L 172 3500 
L 594 3500 
L 594 4494 
L 1172 4494 
z
" transform="scale(0.015625)"/>
       <path id="DejaVuSans-73" d="M 2834 3397 
L 2834 2853 
Q 2591 2978 2328 3040 
Q 2066 3103 1784 3103 
Q 1356 3103 1142 2972 
Q 928 2841 928 2578 
Q 928 2378 1081 2264 
Q 1234 2150 1697 2047 
L 1894 2003 
Q 2506 1872 2764 1633 
Q 3022 1394 3022 966 
Q 3022 478 2636 193 
Q 2250 -91 1575 -91 
Q 1294 -91 989 -36 
Q 684 19 347 128 
L 347 722 
Q 666 556 975 473 
Q 1284 391 1588 391 
Q 1994 391 2212 530 
Q 2431 669 2431 922 
Q 2431 1156 2273 1281 
Q 2116 1406 1581 1522 
L 1381 1569 
Q 847 1681 609 1914 
Q 372 2147 372 2553 
Q 372 3047 722 3315 
Q 1072 3584 1716 3584 
Q 2034 3584 2315 3537 
Q 2597 3491 2834 3397 
z
" transform="scale(0.015625)"/>
       <path id="DejaVuSans-63" d="M 3122 3366 
L 3122 2828 
Q 2878 2963 2633 3030 
Q 2388 3097 2138 3097 
Q 1578 3097 1268 2742 
Q 959 2388 959 1747 
Q 959 1106 1268 751 
Q 1578 397 2138 397 
Q 2388 397 2633 464 
Q 2878 531 3122 666 
L 3122 134 
Q 2881 22 2623 -34 
Q 2366 -91 2075 -91 
Q 1284 -91 818 406 
Q 353 903 353 1747 
Q 353 2603 823 3093 
Q 1294 3584 2113 3584 
Q 2378 3584 2631 3529 
Q 2884 3475 3122 3366 
z
" transform="scale(0.015625)"/>
       <path id="DejaVuSans-68" d="M 3513 2113 
L 3513 0 
L 2938 0 
L 2938 2094 
Q 2938 2591 2744 2837 
Q 2550 3084 2163 3084 
Q 1697 3084 1428 2787 
Q 1159 2491 1159 1978 
L 1159 0 
L 581 0 
L 581 4863 
L 1159 4863 
L 1159 2956 
Q 1366 3272 1645 3428 
Q 1925 3584 2291 3584 
Q 2894 3584 3203 3211 
Q 3513 2838 3513 2113 
z
" transform="scale(0.015625)"/>
       <path id="DejaVuSans-72" d="M 2631 2963 
Q 2534 3019 2420 3045 
Q 2306 3072 2169 3072 
Q 1681 3072 1420 2755 
Q 1159 2438 1159 1844 
L 1159 0 
L 581 0 
L 581 3500 
L 1159 3500 
L 1159 2956 
Q 1341 3275 1631 3429 
Q 1922 3584 2338 3584 
Q 2397 3584 2469 3576 
Q 2541 3569 2628 3553 
L 2631 2963 
z
" transform="scale(0.015625)"/>
       <path id="DejaVuSans-20" transform="scale(0.015625)"/>
       <path id="DejaVuSans-28" d="M 1984 4856 
Q 1566 4138 1362 3434 
Q 1159 2731 1159 2009 
Q 1159 1288 1364 580 
Q 1569 -128 1984 -844 
L 1484 -844 
Q 1016 -109 783 600 
Q 550 1309 550 2009 
Q 550 2706 781 3412 
Q 1013 4119 1484 4856 
L 1984 4856 
z
" transform="scale(0.015625)"/>
       <path id="DejaVuSans-6e" d="M 3513 2113 
L 3513 0 
L 2938 0 
L 2938 2094 
Q 2938 2591 2744 2837 
Q 2550 3084 2163 3084 
Q 1697 3084 1428 2787 
Q 1159 2491 1159 1978 
L 1159 0 
L 581 0 
L 581 3500 
L 1159 3500 
L 1159 2956 
Q 1366 3272 1645 3428 
Q 1925 3584 2291 3584 
Q 2894 3584 3203 3211 
Q 3513 2838 3513 2113 
z
" transform="scale(0.015625)"/>
       <path id="DejaVuSans-4d" d="M 628 4666 
L 1569 4666 
L 2759 1491 
L 3956 4666 
L 4897 4666 
L 4897 0 
L 4281 0 
L 4281 4097 
L 3078 897 
L 2444 897 
L 1241 4097 
L 1241 0 
L 628 0 
L 628 4666 
z
" transform="scale(0.015625)"/>
       <path id="DejaVuSans-6c" d="M 603 4863 
L 1178 4863 
L 1178 0 
L 603 0 
L 603 4863 
z
" transform="scale(0.015625)"/>
       <path id="DejaVuSans-6f" d="M 1959 3097 
Q 1497 3097 1228 2736 
Q 959 2375 959 1747 
Q 959 1119 1226 758 
Q 1494 397 1959 397 
Q 2419 397 2687 759 
Q 2956 1122 2956 1747 
Q 2956 2369 2687 2733 
Q 2419 3097 1959 3097 
z
M 1959 3584 
Q 2709 3584 3137 3096 
Q 3566 2609 3566 1747 
Q 3566 888 3137 398 
Q 2709 -91 1959 -91 
Q 1206 -91 779 398 
Q 353 888 353 1747 
Q 353 2609 779 3096 
Q 1206 3584 1959 3584 
z
" transform="scale(0.015625)"/>
       <path id="DejaVuSans-29" d="M 513 4856 
L 1013 4856 
Q 1481 4119 1714 3412 
Q 1947 2706 1947 2009 
Q 1947 1309 1714 600 
Q 1481 -109 1013 -844 
L 513 -844 
Q 928 -128 1133 580 
Q 1338 1288 1338 2009 
Q 1338 2731 1133 3434 
Q 928 4138 513 4856 
z
" transform="scale(0.015625)"/>
      </defs>
      <use xlink:href="#DejaVuSans-5a"/>
      <use xlink:href="#DejaVuSans-65" x="68.505859"/>
      <use xlink:href="#DejaVuSans-69" x="130.029297"/>
      <use xlink:href="#DejaVuSans-74" x="157.8125"/>
      <use xlink:href="#DejaVuSans-73" x="197.021484"/>
      <use xlink:href="#DejaVuSans-63" x="249.121094"/>
      <use xlink:href="#DejaVuSans-68" x="304.101562"/>
      <use xlink:href="#DejaVuSans-72" x="367.480469"/>
      <use xlink:href="#DejaVuSans-69" x="408.59375"/>
      <use xlink:href="#DejaVuSans-74" x="436.376953"/>
      <use xlink:href="#DejaVuSans-74" x="475.585938"/>
      <use xlink:href="#DejaVuSans-65" x="514.794922"/>
      <use xlink:href="#DejaVuSans-20" x="576.318359"/>
      <use xlink:href="#DejaVuSans-28" x="608.105469"/>
      <use xlink:href="#DejaVuSans-69" x="647.119141"/>
      <use xlink:href="#DejaVuSans-6e" x="674.902344"/>
      <use xlink:href="#DejaVuSans-20" x="738.28125"/>
      <use xlink:href="#DejaVuSans-4d" x="770.068359"/>
      <use xlink:href="#DejaVuSans-69" x="856.347656"/>
      <use xlink:href="#DejaVuSans-6c" x="884.130859"/>
      <use xlink:href="#DejaVuSans-6c" x="911.914062"/>
      <use xlink:href="#DejaVuSans-69" x="939.697266"/>
      <use xlink:href="#DejaVuSans-6f" x="967.480469"/>
      <use xlink:href="#DejaVuSans-6e" x="1028.662109"/>
      <use xlink:href="#DejaVuSans-65" x="1092.041016"/>
      <use xlink:href="#DejaVuSans-6e" x="1153.564453"/>
      <use xlink:href="#DejaVuSans-29" x="1216.943359"/>
     </g>
    </g>
   </g>
   <g id="matplotlib.axis_2">
    <g id="ytick_1">
     <g id="line2d_8">
      <path d="M 77.04 258.29819 
L 447.84 258.29819 
" clip-path="url(#paedb67f5de)" style="fill: none; stroke: #ffffff; stroke-linecap: round"/>
     </g>
     <g id="text_9">
      <!-- −2500 -->
      <g style="fill: #262626" transform="translate(30.327344 262.477331)scale(0.11 -0.11)">
       <defs>
        <path id="DejaVuSans-2212" d="M 678 2272 
L 4684 2272 
L 4684 1741 
L 678 1741 
L 678 2272 
z
" transform="scale(0.015625)"/>
       </defs>
       <use xlink:href="#DejaVuSans-2212"/>
       <use xlink:href="#DejaVuSans-32" x="83.789062"/>
       <use xlink:href="#DejaVuSans-35" x="147.412109"/>
       <use xlink:href="#DejaVuSans-30" x="211.035156"/>
       <use xlink:href="#DejaVuSans-30" x="274.658203"/>
      </g>
     </g>
    </g>
    <g id="ytick_2">
     <g id="line2d_9">
      <path d="M 77.04 219.311556 
L 447.84 219.311556 
" clip-path="url(#paedb67f5de)" style="fill: none; stroke: #ffffff; stroke-linecap: round"/>
     </g>
     <g id="text_10">
      <!-- −2000 -->
      <g style="fill: #262626" transform="translate(30.327344 223.490697)scale(0.11 -0.11)">
       <use xlink:href="#DejaVuSans-2212"/>
       <use xlink:href="#DejaVuSans-32" x="83.789062"/>
       <use xlink:href="#DejaVuSans-30" x="147.412109"/>
       <use xlink:href="#DejaVuSans-30" x="211.035156"/>
       <use xlink:href="#DejaVuSans-30" x="274.658203"/>
      </g>
     </g>
    </g>
    <g id="ytick_3">
     <g id="line2d_10">
      <path d="M 77.04 180.324923 
L 447.84 180.324923 
" clip-path="url(#paedb67f5de)" style="fill: none; stroke: #ffffff; stroke-linecap: round"/>
     </g>
     <g id="text_11">
      <!-- −1500 -->
      <g style="fill: #262626" transform="translate(30.327344 184.504063)scale(0.11 -0.11)">
       <use xlink:href="#DejaVuSans-2212"/>
       <use xlink:href="#DejaVuSans-31" x="83.789062"/>
       <use xlink:href="#DejaVuSans-35" x="147.412109"/>
       <use xlink:href="#DejaVuSans-30" x="211.035156"/>
       <use xlink:href="#DejaVuSans-30" x="274.658203"/>
      </g>
     </g>
    </g>
    <g id="ytick_4">
     <g id="line2d_11">
      <path d="M 77.04 141.338289 
L 447.84 141.338289 
" clip-path="url(#paedb67f5de)" style="fill: none; stroke: #ffffff; stroke-linecap: round"/>
     </g>
     <g id="text_12">
      <!-- −1000 -->
      <g style="fill: #262626" transform="translate(30.327344 145.51743)scale(0.11 -0.11)">
       <use xlink:href="#DejaVuSans-2212"/>
       <use xlink:href="#DejaVuSans-31" x="83.789062"/>
       <use xlink:href="#DejaVuSans-30" x="147.412109"/>
       <use xlink:href="#DejaVuSans-30" x="211.035156"/>
       <use xlink:href="#DejaVuSans-30" x="274.658203"/>
      </g>
     </g>
    </g>
    <g id="ytick_5">
     <g id="line2d_12">
      <path d="M 77.04 102.351655 
L 447.84 102.351655 
" clip-path="url(#paedb67f5de)" style="fill: none; stroke: #ffffff; stroke-linecap: round"/>
     </g>
     <g id="text_13">
      <!-- −500 -->
      <g style="fill: #262626" transform="translate(37.326094 106.530796)scale(0.11 -0.11)">
       <use xlink:href="#DejaVuSans-2212"/>
       <use xlink:href="#DejaVuSans-35" x="83.789062"/>
       <use xlink:href="#DejaVuSans-30" x="147.412109"/>
       <use xlink:href="#DejaVuSans-30" x="211.035156"/>
      </g>
     </g>
    </g>
    <g id="ytick_6">
     <g id="line2d_13">
      <path d="M 77.04 63.365021 
L 447.84 63.365021 
" clip-path="url(#paedb67f5de)" style="fill: none; stroke: #ffffff; stroke-linecap: round"/>
     </g>
     <g id="text_14">
      <!-- 0 -->
      <g style="fill: #262626" transform="translate(60.54125 67.544162)scale(0.11 -0.11)">
       <use xlink:href="#DejaVuSans-30"/>
      </g>
     </g>
    </g>
    <g id="ytick_7">
     <g id="line2d_14">
      <path d="M 77.04 24.378388 
L 447.84 24.378388 
" clip-path="url(#paedb67f5de)" style="fill: none; stroke: #ffffff; stroke-linecap: round"/>
     </g>
     <g id="text_15">
      <!-- 500 -->
      <g style="fill: #262626" transform="translate(46.54375 28.557528)scale(0.11 -0.11)">
       <use xlink:href="#DejaVuSans-35"/>
       <use xlink:href="#DejaVuSans-30" x="63.623047"/>
       <use xlink:href="#DejaVuSans-30" x="127.246094"/>
      </g>
     </g>
    </g>
    <g id="text_16">
     <!-- Belohnung -->
     <g style="fill: #262626" transform="translate(23.415781 191.336563)rotate(-90)scale(0.14 -0.14)">
      <defs>
       <path id="DejaVuSans-42" d="M 1259 2228 
L 1259 519 
L 2272 519 
Q 2781 519 3026 730 
Q 3272 941 3272 1375 
Q 3272 1813 3026 2020 
Q 2781 2228 2272 2228 
L 1259 2228 
z
M 1259 4147 
L 1259 2741 
L 2194 2741 
Q 2656 2741 2882 2914 
Q 3109 3088 3109 3444 
Q 3109 3797 2882 3972 
Q 2656 4147 2194 4147 
L 1259 4147 
z
M 628 4666 
L 2241 4666 
Q 2963 4666 3353 4366 
Q 3744 4066 3744 3513 
Q 3744 3084 3544 2831 
Q 3344 2578 2956 2516 
Q 3422 2416 3680 2098 
Q 3938 1781 3938 1306 
Q 3938 681 3513 340 
Q 3088 0 2303 0 
L 628 0 
L 628 4666 
z
" transform="scale(0.015625)"/>
       <path id="DejaVuSans-75" d="M 544 1381 
L 544 3500 
L 1119 3500 
L 1119 1403 
Q 1119 906 1312 657 
Q 1506 409 1894 409 
Q 2359 409 2629 706 
Q 2900 1003 2900 1516 
L 2900 3500 
L 3475 3500 
L 3475 0 
L 2900 0 
L 2900 538 
Q 2691 219 2414 64 
Q 2138 -91 1772 -91 
Q 1169 -91 856 284 
Q 544 659 544 1381 
z
M 1991 3584 
L 1991 3584 
z
" transform="scale(0.015625)"/>
       <path id="DejaVuSans-67" d="M 2906 1791 
Q 2906 2416 2648 2759 
Q 2391 3103 1925 3103 
Q 1463 3103 1205 2759 
Q 947 2416 947 1791 
Q 947 1169 1205 825 
Q 1463 481 1925 481 
Q 2391 481 2648 825 
Q 2906 1169 2906 1791 
z
M 3481 434 
Q 3481 -459 3084 -895 
Q 2688 -1331 1869 -1331 
Q 1566 -1331 1297 -1286 
Q 1028 -1241 775 -1147 
L 775 -588 
Q 1028 -725 1275 -790 
Q 1522 -856 1778 -856 
Q 2344 -856 2625 -561 
Q 2906 -266 2906 331 
L 2906 616 
Q 2728 306 2450 153 
Q 2172 0 1784 0 
Q 1141 0 747 490 
Q 353 981 353 1791 
Q 353 2603 747 3093 
Q 1141 3584 1784 3584 
Q 2172 3584 2450 3431 
Q 2728 3278 2906 2969 
L 2906 3500 
L 3481 3500 
L 3481 434 
z
" transform="scale(0.015625)"/>
      </defs>
      <use xlink:href="#DejaVuSans-42"/>
      <use xlink:href="#DejaVuSans-65" x="68.603516"/>
      <use xlink:href="#DejaVuSans-6c" x="130.126953"/>
      <use xlink:href="#DejaVuSans-6f" x="157.910156"/>
      <use xlink:href="#DejaVuSans-68" x="219.091797"/>
      <use xlink:href="#DejaVuSans-6e" x="282.470703"/>
      <use xlink:href="#DejaVuSans-75" x="345.849609"/>
      <use xlink:href="#DejaVuSans-6e" x="409.228516"/>
      <use xlink:href="#DejaVuSans-67" x="472.607422"/>
     </g>
    </g>
   </g>
   <g id="PolyCollection_1">
    <defs>
     <path id="mb1e09f16e1" d="M 93.894545 -63.744545 
L 93.894545 -141.44229 
L 96.727242 -131.034556 
L 99.559939 -126.105883 
L 102.392636 -128.44572 
L 105.225332 -206.652369 
L 108.058029 -289.255958 
L 110.890726 -297.457452 
L 113.723422 -310.039834 
L 116.556119 -300.52494 
L 119.388816 -293.817668 
L 122.221513 -293.076835 
L 125.054209 -309.906036 
L 127.886906 -302.275231 
L 130.719603 -310.718004 
L 133.552299 -299.711288 
L 136.384996 -307.353684 
L 139.217693 -299.201593 
L 142.05039 -311.924118 
L 144.883086 -311.80209 
L 147.715783 -304.298557 
L 150.54848 -290.363556 
L 153.381176 -303.472419 
L 156.213873 -310.662142 
L 159.04657 -305.279836 
L 161.879267 -304.53039 
L 164.711963 -305.049101 
L 167.54466 -307.783553 
L 170.377357 -302.393538 
L 173.210053 -314.51256 
L 176.04275 -310.285694 
L 178.875447 -306.540492 
L 181.708144 -315.157084 
L 184.54084 -307.850585 
L 187.373537 -308.761993 
L 190.206234 -307.485376 
L 193.03893 -308.699999 
L 195.871627 -297.954622 
L 198.704324 -305.94159 
L 201.537021 -303.954988 
L 204.369717 -303.829976 
L 207.202414 -309.504742 
L 210.035111 -308.767896 
L 212.867807 -306.329388 
L 215.700504 -306.951821 
L 218.533201 -304.763787 
L 221.365898 -298.785003 
L 224.198594 -307.051787 
L 227.031291 -305.226972 
L 229.863988 -305.373159 
L 232.696684 -305.003155 
L 235.529381 -306.178948 
L 238.362078 -311.153005 
L 241.194775 -304.281691 
L 244.027471 -301.995853 
L 246.860168 -307.337483 
L 249.692865 -310.775575 
L 252.525561 -319.835455 
L 255.358258 -309.13001 
L 258.190955 -312.682366 
L 261.023652 -311.913527 
L 263.856348 -308.19324 
L 266.689045 -304.550862 
L 269.521742 -311.323987 
L 272.354439 -312.559129 
L 275.187135 -316.393609 
L 278.019832 -313.555665 
L 280.852529 -305.149638 
L 283.685225 -309.020792 
L 286.517922 -311.281791 
L 289.350619 -310.571214 
L 292.183316 -312.039494 
L 295.016012 -304.780787 
L 297.848709 -307.655988 
L 300.681406 -308.481109 
L 303.514102 -306.185195 
L 306.346799 -308.691887 
L 309.179496 -309.865558 
L 312.012193 -311.070115 
L 314.844889 -312.278574 
L 317.677586 -306.520947 
L 320.510283 -306.452668 
L 323.342979 -308.361984 
L 326.175676 -310.567822 
L 329.008373 -311.332507 
L 331.84107 -305.966476 
L 334.673766 -309.991572 
L 337.506463 -310.808297 
L 340.33916 -310.041557 
L 343.171856 -306.805583 
L 346.004553 -318.174868 
L 348.83725 -307.512037 
L 351.669947 -304.663351 
L 354.502643 -310.104999 
L 357.33534 -317.137529 
L 360.168037 -308.769863 
L 363.000733 -306.461187 
L 365.83343 -307.850281 
L 368.666127 -307.738722 
L 371.498824 -312.23607 
L 374.33152 -307.155909 
L 377.164217 -309.985375 
L 379.996914 -308.928292 
L 382.82961 -306.596191 
L 385.662307 -308.47648 
L 388.495004 -308.499067 
L 391.327701 -310.694019 
L 394.160397 -308.222993 
L 396.993094 -310.540839 
L 399.825791 -313.478165 
L 402.658487 -310.457909 
L 405.491184 -312.444445 
L 408.323881 -308.18768 
L 411.156578 -302.294246 
L 413.989274 -306.694403 
L 416.821971 -311.753334 
L 419.654668 -304.251234 
L 422.487364 -303.581406 
L 425.320061 -308.642457 
L 428.152758 -307.128811 
L 430.985455 -312.261827 
L 430.985455 -290.414929 
L 430.985455 -290.414929 
L 428.152758 -289.596312 
L 425.320061 -297.971797 
L 422.487364 -295.098975 
L 419.654668 -289.984669 
L 416.821971 -303.049434 
L 413.989274 -290.795817 
L 411.156578 -288.247945 
L 408.323881 -300.188938 
L 405.491184 -296.767125 
L 402.658487 -297.359392 
L 399.825791 -287.288256 
L 396.993094 -289.023605 
L 394.160397 -291.682687 
L 391.327701 -290.968134 
L 388.495004 -293.084619 
L 385.662307 -300.542376 
L 382.82961 -294.337434 
L 379.996914 -297.975884 
L 377.164217 -298.645963 
L 374.33152 -294.50514 
L 371.498824 -295.924602 
L 368.666127 -292.464493 
L 365.83343 -287.771656 
L 363.000733 -291.936049 
L 360.168037 -294.173203 
L 357.33534 -294.775747 
L 354.502643 -294.391483 
L 351.669947 -300.376819 
L 348.83725 -290.256578 
L 346.004553 -294.530511 
L 343.171856 -294.436346 
L 340.33916 -285.890646 
L 337.506463 -295.16277 
L 334.673766 -301.374979 
L 331.84107 -285.521463 
L 329.008373 -292.622792 
L 326.175676 -290.177455 
L 323.342979 -290.238277 
L 320.510283 -288.569373 
L 317.677586 -296.281117 
L 314.844889 -291.185437 
L 312.012193 -296.021081 
L 309.179496 -294.582149 
L 306.346799 -290.47876 
L 303.514102 -299.588927 
L 300.681406 -295.600232 
L 297.848709 -286.045248 
L 295.016012 -296.65737 
L 292.183316 -304.134441 
L 289.350619 -291.812534 
L 286.517922 -293.061433 
L 283.685225 -296.804369 
L 280.852529 -296.259665 
L 278.019832 -300.538369 
L 275.187135 -295.67882 
L 272.354439 -287.928038 
L 269.521742 -289.341683 
L 266.689045 -289.574059 
L 263.856348 -288.610893 
L 261.023652 -291.105957 
L 258.190955 -281.630648 
L 255.358258 -298.538681 
L 252.525561 -302.178998 
L 249.692865 -295.511426 
L 246.860168 -298.396256 
L 244.027471 -291.168266 
L 241.194775 -279.336704 
L 238.362078 -299.742007 
L 235.529381 -292.726766 
L 232.696684 -281.369389 
L 229.863988 -289.176702 
L 227.031291 -301.592385 
L 224.198594 -299.619763 
L 221.365898 -293.259899 
L 218.533201 -299.281771 
L 215.700504 -286.76116 
L 212.867807 -289.924273 
L 210.035111 -287.73078 
L 207.202414 -284.242375 
L 204.369717 -295.999503 
L 201.537021 -264.268892 
L 198.704324 -288.635383 
L 195.871627 -282.861447 
L 193.03893 -283.24367 
L 190.206234 -277.051814 
L 187.373537 -266.807175 
L 184.54084 -285.23696 
L 181.708144 -285.699184 
L 178.875447 -275.48619 
L 176.04275 -249.310849 
L 173.210053 -258.721219 
L 170.377357 -267.456155 
L 167.54466 -278.390376 
L 164.711963 -286.99412 
L 161.879267 -275.928025 
L 159.04657 -274.442856 
L 156.213873 -285.598643 
L 153.381176 -292.676263 
L 150.54848 -257.606509 
L 147.715783 -291.517952 
L 144.883086 -245.879592 
L 142.05039 -267.342661 
L 139.217693 -273.791658 
L 136.384996 -271.503927 
L 133.552299 -283.359623 
L 130.719603 -264.350139 
L 127.886906 -278.16873 
L 125.054209 -274.866695 
L 122.221513 -271.409476 
L 119.388816 -265.666612 
L 116.556119 -251.445038 
L 113.723422 -226.331058 
L 110.890726 -243.445988 
L 108.058029 -195.863173 
L 105.225332 -169.544413 
L 102.392636 -74.623473 
L 99.559939 -74.598545 
L 96.727242 -81.731648 
L 93.894545 -63.744545 
z
" style="stroke: #ffffff; stroke-opacity: 0.5"/>
    </defs>
    <g clip-path="url(#paedb67f5de)">
     <use xlink:href="#mb1e09f16e1" x="0" y="345.6" style="fill: #4c72b0; fill-opacity: 0.5; stroke: #ffffff; stroke-opacity: 0.5"/>
    </g>
   </g>
   <g id="line2d_15">
    <path d="M 93.894545 242.921873 
L 96.727242 242.151704 
L 99.559939 241.637506 
L 102.392636 247.276868 
L 105.225332 157.843117 
L 108.058029 106.793575 
L 110.890726 70.287059 
L 113.723422 69.615437 
L 116.556119 69.503233 
L 119.388816 69.101134 
L 122.221513 60.54451 
L 125.054209 56.408405 
L 127.886906 58.590032 
L 130.719603 56.029274 
L 133.552299 53.310326 
L 136.384996 54.072848 
L 139.217693 56.026099 
L 142.05039 54.255067 
L 144.883086 54.561852 
L 147.715783 50.243482 
L 150.54848 66.532656 
L 153.381176 48.018515 
L 156.213873 50.538313 
L 159.04657 56.735008 
L 161.879267 56.84102 
L 164.711963 50.134444 
L 167.54466 49.953026 
L 170.377357 56.640058 
L 173.210053 53.167364 
L 176.04275 54.573212 
L 178.875447 49.981954 
L 181.708144 44.802483 
L 184.54084 48.907191 
L 187.373537 61.32102 
L 190.206234 49.1584 
L 193.03893 49.664314 
L 195.871627 52.484889 
L 198.704324 47.084284 
L 201.537021 58.732469 
L 204.369717 45.079571 
L 207.202414 43.321399 
L 210.035111 44.927748 
L 212.867807 49.86614 
L 215.700504 46.93133 
L 218.533201 44.150949 
L 221.365898 49.964822 
L 224.198594 42.989467 
L 227.031291 42.673244 
L 229.863988 46.936123 
L 232.696684 50.709782 
L 235.529381 44.603962 
L 238.362078 41.669304 
L 241.194775 49.214028 
L 244.027471 47.860495 
L 246.860168 42.514924 
L 249.692865 43.215688 
L 252.525561 36.551608 
L 255.358258 42.30002 
L 258.190955 45.540816 
L 261.023652 42.975235 
L 263.856348 46.438498 
L 266.689045 47.650353 
L 269.521742 43.17676 
L 272.354439 44.722481 
L 275.187135 40.588663 
L 278.019832 38.611738 
L 280.852529 46.152642 
L 283.685225 42.972812 
L 286.517922 43.894336 
L 289.350619 43.961419 
L 292.183316 37.928394 
L 295.016012 44.349764 
L 297.848709 48.211326 
L 300.681406 41.695064 
L 303.514102 43.200418 
L 306.346799 42.215829 
L 309.179496 42.748542 
L 312.012193 43.082877 
L 314.844889 44.852376 
L 317.677586 42.964731 
L 320.510283 48.568821 
L 323.342979 44.080568 
L 326.175676 42.228415 
L 329.008373 43.727935 
L 331.84107 47.949959 
L 334.673766 38.797631 
L 337.506463 42.846688 
L 340.33916 42.236081 
L 343.171856 44.189956 
L 346.004553 40.102304 
L 348.83725 44.151104 
L 351.669947 43.553994 
L 354.502643 43.431192 
L 357.33534 38.666531 
L 360.168037 45.814279 
L 363.000733 44.928147 
L 365.83343 44.93805 
L 368.666127 45.844681 
L 371.498824 42.21256 
L 374.33152 45.072806 
L 377.164217 42.614237 
L 379.996914 42.06865 
L 382.82961 42.748104 
L 385.662307 41.398355 
L 388.495004 43.859404 
L 391.327701 40.822569 
L 394.160397 43.986531 
L 396.993094 46.520078 
L 399.825791 44.037689 
L 402.658487 43.133606 
L 405.491184 43.655364 
L 408.323881 41.838483 
L 411.156578 49.725842 
L 413.989274 45.004622 
L 416.821971 38.002807 
L 419.654668 46.960808 
L 422.487364 45.918758 
L 425.320061 42.532857 
L 428.152758 44.715831 
L 430.985455 45.792998 
" clip-path="url(#paedb67f5de)" style="fill: none; stroke: #4c72b0; stroke-width: 3; stroke-linecap: round"/>
   </g>
   <g id="patch_3">
    <path d="M 77.04 294.66 
L 77.04 12.96 
" style="fill: none; stroke: #ffffff; stroke-width: 1.25; stroke-linejoin: miter; stroke-linecap: square"/>
   </g>
   <g id="patch_4">
    <path d="M 447.84 294.66 
L 447.84 12.96 
" style="fill: none; stroke: #ffffff; stroke-width: 1.25; stroke-linejoin: miter; stroke-linecap: square"/>
   </g>
   <g id="patch_5">
    <path d="M 77.04 294.66 
L 447.84 294.66 
" style="fill: none; stroke: #ffffff; stroke-width: 1.25; stroke-linejoin: miter; stroke-linecap: square"/>
   </g>
   <g id="patch_6">
    <path d="M 77.04 12.96 
L 447.84 12.96 
" style="fill: none; stroke: #ffffff; stroke-width: 1.25; stroke-linejoin: miter; stroke-linecap: square"/>
   </g>
   <g id="legend_1">
    <g id="patch_7">
     <path d="M 319.722656 37.905937 
L 440.14 37.905937 
Q 442.34 37.905937 442.34 35.705938 
L 442.34 20.66 
Q 442.34 18.46 440.14 18.46 
L 319.722656 18.46 
Q 317.522656 18.46 317.522656 20.66 
L 317.522656 35.705938 
Q 317.522656 37.905937 319.722656 37.905937 
z
" style="fill: #eaeaf2; opacity: 0.8; stroke: #cccccc; stroke-linejoin: miter"/>
    </g>
    <g id="line2d_16">
     <path d="M 321.922656 27.368281 
L 332.922656 27.368281 
L 343.922656 27.368281 
" style="fill: none; stroke: #4c72b0; stroke-width: 3; stroke-linecap: round"/>
    </g>
    <g id="text_17">
     <!-- SAC-IS-DELAY-1 -->
     <g style="fill: #262626" transform="translate(352.722656 31.218281)scale(0.11 -0.11)">
      <defs>
       <path id="DejaVuSans-53" d="M 3425 4513 
L 3425 3897 
Q 3066 4069 2747 4153 
Q 2428 4238 2131 4238 
Q 1616 4238 1336 4038 
Q 1056 3838 1056 3469 
Q 1056 3159 1242 3001 
Q 1428 2844 1947 2747 
L 2328 2669 
Q 3034 2534 3370 2195 
Q 3706 1856 3706 1288 
Q 3706 609 3251 259 
Q 2797 -91 1919 -91 
Q 1588 -91 1214 -16 
Q 841 59 441 206 
L 441 856 
Q 825 641 1194 531 
Q 1563 422 1919 422 
Q 2459 422 2753 634 
Q 3047 847 3047 1241 
Q 3047 1584 2836 1778 
Q 2625 1972 2144 2069 
L 1759 2144 
Q 1053 2284 737 2584 
Q 422 2884 422 3419 
Q 422 4038 858 4394 
Q 1294 4750 2059 4750 
Q 2388 4750 2728 4690 
Q 3069 4631 3425 4513 
z
" transform="scale(0.015625)"/>
       <path id="DejaVuSans-41" d="M 2188 4044 
L 1331 1722 
L 3047 1722 
L 2188 4044 
z
M 1831 4666 
L 2547 4666 
L 4325 0 
L 3669 0 
L 3244 1197 
L 1141 1197 
L 716 0 
L 50 0 
L 1831 4666 
z
" transform="scale(0.015625)"/>
       <path id="DejaVuSans-43" d="M 4122 4306 
L 4122 3641 
Q 3803 3938 3442 4084 
Q 3081 4231 2675 4231 
Q 1875 4231 1450 3742 
Q 1025 3253 1025 2328 
Q 1025 1406 1450 917 
Q 1875 428 2675 428 
Q 3081 428 3442 575 
Q 3803 722 4122 1019 
L 4122 359 
Q 3791 134 3420 21 
Q 3050 -91 2638 -91 
Q 1578 -91 968 557 
Q 359 1206 359 2328 
Q 359 3453 968 4101 
Q 1578 4750 2638 4750 
Q 3056 4750 3426 4639 
Q 3797 4528 4122 4306 
z
" transform="scale(0.015625)"/>
       <path id="DejaVuSans-2d" d="M 313 2009 
L 1997 2009 
L 1997 1497 
L 313 1497 
L 313 2009 
z
" transform="scale(0.015625)"/>
       <path id="DejaVuSans-49" d="M 628 4666 
L 1259 4666 
L 1259 0 
L 628 0 
L 628 4666 
z
" transform="scale(0.015625)"/>
       <path id="DejaVuSans-44" d="M 1259 4147 
L 1259 519 
L 2022 519 
Q 2988 519 3436 956 
Q 3884 1394 3884 2338 
Q 3884 3275 3436 3711 
Q 2988 4147 2022 4147 
L 1259 4147 
z
M 628 4666 
L 1925 4666 
Q 3281 4666 3915 4102 
Q 4550 3538 4550 2338 
Q 4550 1131 3912 565 
Q 3275 0 1925 0 
L 628 0 
L 628 4666 
z
" transform="scale(0.015625)"/>
       <path id="DejaVuSans-45" d="M 628 4666 
L 3578 4666 
L 3578 4134 
L 1259 4134 
L 1259 2753 
L 3481 2753 
L 3481 2222 
L 1259 2222 
L 1259 531 
L 3634 531 
L 3634 0 
L 628 0 
L 628 4666 
z
" transform="scale(0.015625)"/>
       <path id="DejaVuSans-4c" d="M 628 4666 
L 1259 4666 
L 1259 531 
L 3531 531 
L 3531 0 
L 628 0 
L 628 4666 
z
" transform="scale(0.015625)"/>
       <path id="DejaVuSans-59" d="M -13 4666 
L 666 4666 
L 1959 2747 
L 3244 4666 
L 3922 4666 
L 2272 2222 
L 2272 0 
L 1638 0 
L 1638 2222 
L -13 4666 
z
" transform="scale(0.015625)"/>
      </defs>
      <use xlink:href="#DejaVuSans-53"/>
      <use xlink:href="#DejaVuSans-41" x="65.351562"/>
      <use xlink:href="#DejaVuSans-43" x="132.009766"/>
      <use xlink:href="#DejaVuSans-2d" x="201.833984"/>
      <use xlink:href="#DejaVuSans-49" x="237.917969"/>
      <use xlink:href="#DejaVuSans-53" x="267.410156"/>
      <use xlink:href="#DejaVuSans-2d" x="330.886719"/>
      <use xlink:href="#DejaVuSans-44" x="366.970703"/>
      <use xlink:href="#DejaVuSans-45" x="443.972656"/>
      <use xlink:href="#DejaVuSans-4c" x="507.15625"/>
      <use xlink:href="#DejaVuSans-41" x="565.119141"/>
      <use xlink:href="#DejaVuSans-59" x="625.777344"/>
      <use xlink:href="#DejaVuSans-2d" x="674.986328"/>
      <use xlink:href="#DejaVuSans-31" x="711.070312"/>
     </g>
    </g>
   </g>
  </g>
 </g>
 <defs>
  <clipPath id="paedb67f5de">
   <rect x="77.04" y="12.96" width="370.8" height="281.7"/>
  </clipPath>
 </defs>
</svg>
