<?xml version="1.0" encoding="utf-8" standalone="no"?>
<!DOCTYPE svg PUBLIC "-//W3C//DTD SVG 1.1//EN"
  "http://www.w3.org/Graphics/SVG/1.1/DTD/svg11.dtd">
<svg xmlns:xlink="http://www.w3.org/1999/xlink" width="460.8pt" height="345.6pt" viewBox="0 0 460.8 345.6" xmlns="http://www.w3.org/2000/svg" version="1.1">
 <metadata>
  <rdf:RDF xmlns:dc="http://purl.org/dc/elements/1.1/" xmlns:cc="http://creativecommons.org/ns#" xmlns:rdf="http://www.w3.org/1999/02/22-rdf-syntax-ns#">
   <cc:Work>
    <dc:type rdf:resource="http://purl.org/dc/dcmitype/StillImage"/>
    <dc:date>2022-09-12T15:17:54.240440</dc:date>
    <dc:format>image/svg+xml</dc:format>
    <dc:creator>
     <cc:Agent>
      <dc:title>Matplotlib v3.5.3, https://matplotlib.org/</dc:title>
     </cc:Agent>
    </dc:creator>
   </cc:Work>
  </rdf:RDF>
 </metadata>
 <defs>
  <style type="text/css">*{stroke-linejoin: round; stroke-linecap: butt}</style>
 </defs>
 <g id="figure_1">
  <g id="patch_1">
   <path d="M 0 345.6 
L 460.8 345.6 
L 460.8 0 
L 0 0 
z
" style="fill: #ffffff"/>
  </g>
  <g id="axes_1">
   <g id="patch_2">
    <path d="M 67.86 294.66 
L 447.84 294.66 
L 447.84 12.96 
L 67.86 12.96 
z
" style="fill: #eaeaf2"/>
   </g>
   <g id="matplotlib.axis_1">
    <g id="xtick_1">
     <g id="line2d_1">
      <path d="M 82.228992 294.66 
L 82.228992 12.96 
" clip-path="url(#p2f18f2f34d)" style="fill: none; stroke: #ffffff; stroke-linecap: round"/>
     </g>
     <g id="text_1">
      <!-- 0.00 -->
      <g style="fill: #262626" transform="translate(69.982898 312.518281)scale(0.11 -0.11)">
       <defs>
        <path id="DejaVuSans-30" d="M 2034 4250 
Q 1547 4250 1301 3770 
Q 1056 3291 1056 2328 
Q 1056 1369 1301 889 
Q 1547 409 2034 409 
Q 2525 409 2770 889 
Q 3016 1369 3016 2328 
Q 3016 3291 2770 3770 
Q 2525 4250 2034 4250 
z
M 2034 4750 
Q 2819 4750 3233 4129 
Q 3647 3509 3647 2328 
Q 3647 1150 3233 529 
Q 2819 -91 2034 -91 
Q 1250 -91 836 529 
Q 422 1150 422 2328 
Q 422 3509 836 4129 
Q 1250 4750 2034 4750 
z
" transform="scale(0.015625)"/>
        <path id="DejaVuSans-2e" d="M 684 794 
L 1344 794 
L 1344 0 
L 684 0 
L 684 794 
z
" transform="scale(0.015625)"/>
       </defs>
       <use xlink:href="#DejaVuSans-30"/>
       <use xlink:href="#DejaVuSans-2e" x="63.623047"/>
       <use xlink:href="#DejaVuSans-30" x="95.410156"/>
       <use xlink:href="#DejaVuSans-30" x="159.033203"/>
      </g>
     </g>
    </g>
    <g id="xtick_2">
     <g id="line2d_2">
      <path d="M 140.285523 294.66 
L 140.285523 12.96 
" clip-path="url(#p2f18f2f34d)" style="fill: none; stroke: #ffffff; stroke-linecap: round"/>
     </g>
     <g id="text_2">
      <!-- 0.05 -->
      <g style="fill: #262626" transform="translate(128.03943 312.518281)scale(0.11 -0.11)">
       <defs>
        <path id="DejaVuSans-35" d="M 691 4666 
L 3169 4666 
L 3169 4134 
L 1269 4134 
L 1269 2991 
Q 1406 3038 1543 3061 
Q 1681 3084 1819 3084 
Q 2600 3084 3056 2656 
Q 3513 2228 3513 1497 
Q 3513 744 3044 326 
Q 2575 -91 1722 -91 
Q 1428 -91 1123 -41 
Q 819 9 494 109 
L 494 744 
Q 775 591 1075 516 
Q 1375 441 1709 441 
Q 2250 441 2565 725 
Q 2881 1009 2881 1497 
Q 2881 1984 2565 2268 
Q 2250 2553 1709 2553 
Q 1456 2553 1204 2497 
Q 953 2441 691 2322 
L 691 4666 
z
" transform="scale(0.015625)"/>
       </defs>
       <use xlink:href="#DejaVuSans-30"/>
       <use xlink:href="#DejaVuSans-2e" x="63.623047"/>
       <use xlink:href="#DejaVuSans-30" x="95.410156"/>
       <use xlink:href="#DejaVuSans-35" x="159.033203"/>
      </g>
     </g>
    </g>
    <g id="xtick_3">
     <g id="line2d_3">
      <path d="M 198.342055 294.66 
L 198.342055 12.96 
" clip-path="url(#p2f18f2f34d)" style="fill: none; stroke: #ffffff; stroke-linecap: round"/>
     </g>
     <g id="text_3">
      <!-- 0.10 -->
      <g style="fill: #262626" transform="translate(186.095961 312.518281)scale(0.11 -0.11)">
       <defs>
        <path id="DejaVuSans-31" d="M 794 531 
L 1825 531 
L 1825 4091 
L 703 3866 
L 703 4441 
L 1819 4666 
L 2450 4666 
L 2450 531 
L 3481 531 
L 3481 0 
L 794 0 
L 794 531 
z
" transform="scale(0.015625)"/>
       </defs>
       <use xlink:href="#DejaVuSans-30"/>
       <use xlink:href="#DejaVuSans-2e" x="63.623047"/>
       <use xlink:href="#DejaVuSans-31" x="95.410156"/>
       <use xlink:href="#DejaVuSans-30" x="159.033203"/>
      </g>
     </g>
    </g>
    <g id="xtick_4">
     <g id="line2d_4">
      <path d="M 256.398587 294.66 
L 256.398587 12.96 
" clip-path="url(#p2f18f2f34d)" style="fill: none; stroke: #ffffff; stroke-linecap: round"/>
     </g>
     <g id="text_4">
      <!-- 0.15 -->
      <g style="fill: #262626" transform="translate(244.152493 312.518281)scale(0.11 -0.11)">
       <use xlink:href="#DejaVuSans-30"/>
       <use xlink:href="#DejaVuSans-2e" x="63.623047"/>
       <use xlink:href="#DejaVuSans-31" x="95.410156"/>
       <use xlink:href="#DejaVuSans-35" x="159.033203"/>
      </g>
     </g>
    </g>
    <g id="xtick_5">
     <g id="line2d_5">
      <path d="M 314.455118 294.66 
L 314.455118 12.96 
" clip-path="url(#p2f18f2f34d)" style="fill: none; stroke: #ffffff; stroke-linecap: round"/>
     </g>
     <g id="text_5">
      <!-- 0.20 -->
      <g style="fill: #262626" transform="translate(302.209025 312.518281)scale(0.11 -0.11)">
       <defs>
        <path id="DejaVuSans-32" d="M 1228 531 
L 3431 531 
L 3431 0 
L 469 0 
L 469 531 
Q 828 903 1448 1529 
Q 2069 2156 2228 2338 
Q 2531 2678 2651 2914 
Q 2772 3150 2772 3378 
Q 2772 3750 2511 3984 
Q 2250 4219 1831 4219 
Q 1534 4219 1204 4116 
Q 875 4013 500 3803 
L 500 4441 
Q 881 4594 1212 4672 
Q 1544 4750 1819 4750 
Q 2544 4750 2975 4387 
Q 3406 4025 3406 3419 
Q 3406 3131 3298 2873 
Q 3191 2616 2906 2266 
Q 2828 2175 2409 1742 
Q 1991 1309 1228 531 
z
" transform="scale(0.015625)"/>
       </defs>
       <use xlink:href="#DejaVuSans-30"/>
       <use xlink:href="#DejaVuSans-2e" x="63.623047"/>
       <use xlink:href="#DejaVuSans-32" x="95.410156"/>
       <use xlink:href="#DejaVuSans-30" x="159.033203"/>
      </g>
     </g>
    </g>
    <g id="xtick_6">
     <g id="line2d_6">
      <path d="M 372.51165 294.66 
L 372.51165 12.96 
" clip-path="url(#p2f18f2f34d)" style="fill: none; stroke: #ffffff; stroke-linecap: round"/>
     </g>
     <g id="text_6">
      <!-- 0.25 -->
      <g style="fill: #262626" transform="translate(360.265556 312.518281)scale(0.11 -0.11)">
       <use xlink:href="#DejaVuSans-30"/>
       <use xlink:href="#DejaVuSans-2e" x="63.623047"/>
       <use xlink:href="#DejaVuSans-32" x="95.410156"/>
       <use xlink:href="#DejaVuSans-35" x="159.033203"/>
      </g>
     </g>
    </g>
    <g id="xtick_7">
     <g id="line2d_7">
      <path d="M 430.568182 294.66 
L 430.568182 12.96 
" clip-path="url(#p2f18f2f34d)" style="fill: none; stroke: #ffffff; stroke-linecap: round"/>
     </g>
     <g id="text_7">
      <!-- 0.30 -->
      <g style="fill: #262626" transform="translate(418.322088 312.518281)scale(0.11 -0.11)">
       <defs>
        <path id="DejaVuSans-33" d="M 2597 2516 
Q 3050 2419 3304 2112 
Q 3559 1806 3559 1356 
Q 3559 666 3084 287 
Q 2609 -91 1734 -91 
Q 1441 -91 1130 -33 
Q 819 25 488 141 
L 488 750 
Q 750 597 1062 519 
Q 1375 441 1716 441 
Q 2309 441 2620 675 
Q 2931 909 2931 1356 
Q 2931 1769 2642 2001 
Q 2353 2234 1838 2234 
L 1294 2234 
L 1294 2753 
L 1863 2753 
Q 2328 2753 2575 2939 
Q 2822 3125 2822 3475 
Q 2822 3834 2567 4026 
Q 2313 4219 1838 4219 
Q 1578 4219 1281 4162 
Q 984 4106 628 3988 
L 628 4550 
Q 988 4650 1302 4700 
Q 1616 4750 1894 4750 
Q 2613 4750 3031 4423 
Q 3450 4097 3450 3541 
Q 3450 3153 3228 2886 
Q 3006 2619 2597 2516 
z
" transform="scale(0.015625)"/>
       </defs>
       <use xlink:href="#DejaVuSans-30"/>
       <use xlink:href="#DejaVuSans-2e" x="63.623047"/>
       <use xlink:href="#DejaVuSans-33" x="95.410156"/>
       <use xlink:href="#DejaVuSans-30" x="159.033203"/>
      </g>
     </g>
    </g>
    <g id="text_8">
     <!-- Zeitschritte (in Millionen) -->
     <g style="fill: #262626" transform="translate(169.935469 329.44375)scale(0.14 -0.14)">
      <defs>
       <path id="DejaVuSans-5a" d="M 359 4666 
L 4025 4666 
L 4025 4184 
L 1075 531 
L 4097 531 
L 4097 0 
L 288 0 
L 288 481 
L 3238 4134 
L 359 4134 
L 359 4666 
z
" transform="scale(0.015625)"/>
       <path id="DejaVuSans-65" d="M 3597 1894 
L 3597 1613 
L 953 1613 
Q 991 1019 1311 708 
Q 1631 397 2203 397 
Q 2534 397 2845 478 
Q 3156 559 3463 722 
L 3463 178 
Q 3153 47 2828 -22 
Q 2503 -91 2169 -91 
Q 1331 -91 842 396 
Q 353 884 353 1716 
Q 353 2575 817 3079 
Q 1281 3584 2069 3584 
Q 2775 3584 3186 3129 
Q 3597 2675 3597 1894 
z
M 3022 2063 
Q 3016 2534 2758 2815 
Q 2500 3097 2075 3097 
Q 1594 3097 1305 2825 
Q 1016 2553 972 2059 
L 3022 2063 
z
" transform="scale(0.015625)"/>
       <path id="DejaVuSans-69" d="M 603 3500 
L 1178 3500 
L 1178 0 
L 603 0 
L 603 3500 
z
M 603 4863 
L 1178 4863 
L 1178 4134 
L 603 4134 
L 603 4863 
z
" transform="scale(0.015625)"/>
       <path id="DejaVuSans-74" d="M 1172 4494 
L 1172 3500 
L 2356 3500 
L 2356 3053 
L 1172 3053 
L 1172 1153 
Q 1172 725 1289 603 
Q 1406 481 1766 481 
L 2356 481 
L 2356 0 
L 1766 0 
Q 1100 0 847 248 
Q 594 497 594 1153 
L 594 3053 
L 172 3053 
L 172 3500 
L 594 3500 
L 594 4494 
L 1172 4494 
z
" transform="scale(0.015625)"/>
       <path id="DejaVuSans-73" d="M 2834 3397 
L 2834 2853 
Q 2591 2978 2328 3040 
Q 2066 3103 1784 3103 
Q 1356 3103 1142 2972 
Q 928 2841 928 2578 
Q 928 2378 1081 2264 
Q 1234 2150 1697 2047 
L 1894 2003 
Q 2506 1872 2764 1633 
Q 3022 1394 3022 966 
Q 3022 478 2636 193 
Q 2250 -91 1575 -91 
Q 1294 -91 989 -36 
Q 684 19 347 128 
L 347 722 
Q 666 556 975 473 
Q 1284 391 1588 391 
Q 1994 391 2212 530 
Q 2431 669 2431 922 
Q 2431 1156 2273 1281 
Q 2116 1406 1581 1522 
L 1381 1569 
Q 847 1681 609 1914 
Q 372 2147 372 2553 
Q 372 3047 722 3315 
Q 1072 3584 1716 3584 
Q 2034 3584 2315 3537 
Q 2597 3491 2834 3397 
z
" transform="scale(0.015625)"/>
       <path id="DejaVuSans-63" d="M 3122 3366 
L 3122 2828 
Q 2878 2963 2633 3030 
Q 2388 3097 2138 3097 
Q 1578 3097 1268 2742 
Q 959 2388 959 1747 
Q 959 1106 1268 751 
Q 1578 397 2138 397 
Q 2388 397 2633 464 
Q 2878 531 3122 666 
L 3122 134 
Q 2881 22 2623 -34 
Q 2366 -91 2075 -91 
Q 1284 -91 818 406 
Q 353 903 353 1747 
Q 353 2603 823 3093 
Q 1294 3584 2113 3584 
Q 2378 3584 2631 3529 
Q 2884 3475 3122 3366 
z
" transform="scale(0.015625)"/>
       <path id="DejaVuSans-68" d="M 3513 2113 
L 3513 0 
L 2938 0 
L 2938 2094 
Q 2938 2591 2744 2837 
Q 2550 3084 2163 3084 
Q 1697 3084 1428 2787 
Q 1159 2491 1159 1978 
L 1159 0 
L 581 0 
L 581 4863 
L 1159 4863 
L 1159 2956 
Q 1366 3272 1645 3428 
Q 1925 3584 2291 3584 
Q 2894 3584 3203 3211 
Q 3513 2838 3513 2113 
z
" transform="scale(0.015625)"/>
       <path id="DejaVuSans-72" d="M 2631 2963 
Q 2534 3019 2420 3045 
Q 2306 3072 2169 3072 
Q 1681 3072 1420 2755 
Q 1159 2438 1159 1844 
L 1159 0 
L 581 0 
L 581 3500 
L 1159 3500 
L 1159 2956 
Q 1341 3275 1631 3429 
Q 1922 3584 2338 3584 
Q 2397 3584 2469 3576 
Q 2541 3569 2628 3553 
L 2631 2963 
z
" transform="scale(0.015625)"/>
       <path id="DejaVuSans-20" transform="scale(0.015625)"/>
       <path id="DejaVuSans-28" d="M 1984 4856 
Q 1566 4138 1362 3434 
Q 1159 2731 1159 2009 
Q 1159 1288 1364 580 
Q 1569 -128 1984 -844 
L 1484 -844 
Q 1016 -109 783 600 
Q 550 1309 550 2009 
Q 550 2706 781 3412 
Q 1013 4119 1484 4856 
L 1984 4856 
z
" transform="scale(0.015625)"/>
       <path id="DejaVuSans-6e" d="M 3513 2113 
L 3513 0 
L 2938 0 
L 2938 2094 
Q 2938 2591 2744 2837 
Q 2550 3084 2163 3084 
Q 1697 3084 1428 2787 
Q 1159 2491 1159 1978 
L 1159 0 
L 581 0 
L 581 3500 
L 1159 3500 
L 1159 2956 
Q 1366 3272 1645 3428 
Q 1925 3584 2291 3584 
Q 2894 3584 3203 3211 
Q 3513 2838 3513 2113 
z
" transform="scale(0.015625)"/>
       <path id="DejaVuSans-4d" d="M 628 4666 
L 1569 4666 
L 2759 1491 
L 3956 4666 
L 4897 4666 
L 4897 0 
L 4281 0 
L 4281 4097 
L 3078 897 
L 2444 897 
L 1241 4097 
L 1241 0 
L 628 0 
L 628 4666 
z
" transform="scale(0.015625)"/>
       <path id="DejaVuSans-6c" d="M 603 4863 
L 1178 4863 
L 1178 0 
L 603 0 
L 603 4863 
z
" transform="scale(0.015625)"/>
       <path id="DejaVuSans-6f" d="M 1959 3097 
Q 1497 3097 1228 2736 
Q 959 2375 959 1747 
Q 959 1119 1226 758 
Q 1494 397 1959 397 
Q 2419 397 2687 759 
Q 2956 1122 2956 1747 
Q 2956 2369 2687 2733 
Q 2419 3097 1959 3097 
z
M 1959 3584 
Q 2709 3584 3137 3096 
Q 3566 2609 3566 1747 
Q 3566 888 3137 398 
Q 2709 -91 1959 -91 
Q 1206 -91 779 398 
Q 353 888 353 1747 
Q 353 2609 779 3096 
Q 1206 3584 1959 3584 
z
" transform="scale(0.015625)"/>
       <path id="DejaVuSans-29" d="M 513 4856 
L 1013 4856 
Q 1481 4119 1714 3412 
Q 1947 2706 1947 2009 
Q 1947 1309 1714 600 
Q 1481 -109 1013 -844 
L 513 -844 
Q 928 -128 1133 580 
Q 1338 1288 1338 2009 
Q 1338 2731 1133 3434 
Q 928 4138 513 4856 
z
" transform="scale(0.015625)"/>
      </defs>
      <use xlink:href="#DejaVuSans-5a"/>
      <use xlink:href="#DejaVuSans-65" x="68.505859"/>
      <use xlink:href="#DejaVuSans-69" x="130.029297"/>
      <use xlink:href="#DejaVuSans-74" x="157.8125"/>
      <use xlink:href="#DejaVuSans-73" x="197.021484"/>
      <use xlink:href="#DejaVuSans-63" x="249.121094"/>
      <use xlink:href="#DejaVuSans-68" x="304.101562"/>
      <use xlink:href="#DejaVuSans-72" x="367.480469"/>
      <use xlink:href="#DejaVuSans-69" x="408.59375"/>
      <use xlink:href="#DejaVuSans-74" x="436.376953"/>
      <use xlink:href="#DejaVuSans-74" x="475.585938"/>
      <use xlink:href="#DejaVuSans-65" x="514.794922"/>
      <use xlink:href="#DejaVuSans-20" x="576.318359"/>
      <use xlink:href="#DejaVuSans-28" x="608.105469"/>
      <use xlink:href="#DejaVuSans-69" x="647.119141"/>
      <use xlink:href="#DejaVuSans-6e" x="674.902344"/>
      <use xlink:href="#DejaVuSans-20" x="738.28125"/>
      <use xlink:href="#DejaVuSans-4d" x="770.068359"/>
      <use xlink:href="#DejaVuSans-69" x="856.347656"/>
      <use xlink:href="#DejaVuSans-6c" x="884.130859"/>
      <use xlink:href="#DejaVuSans-6c" x="911.914062"/>
      <use xlink:href="#DejaVuSans-69" x="939.697266"/>
      <use xlink:href="#DejaVuSans-6f" x="967.480469"/>
      <use xlink:href="#DejaVuSans-6e" x="1028.662109"/>
      <use xlink:href="#DejaVuSans-65" x="1092.041016"/>
      <use xlink:href="#DejaVuSans-6e" x="1153.564453"/>
      <use xlink:href="#DejaVuSans-29" x="1216.943359"/>
     </g>
    </g>
   </g>
   <g id="matplotlib.axis_2">
    <g id="ytick_1">
     <g id="line2d_8">
      <path d="M 67.86 281.964606 
L 447.84 281.964606 
" clip-path="url(#p2f18f2f34d)" style="fill: none; stroke: #ffffff; stroke-linecap: round"/>
     </g>
     <g id="text_9">
      <!-- 0 -->
      <g style="fill: #262626" transform="translate(51.36125 286.143747)scale(0.11 -0.11)">
       <use xlink:href="#DejaVuSans-30"/>
      </g>
     </g>
    </g>
    <g id="ytick_2">
     <g id="line2d_9">
      <path d="M 67.86 227.388928 
L 447.84 227.388928 
" clip-path="url(#p2f18f2f34d)" style="fill: none; stroke: #ffffff; stroke-linecap: round"/>
     </g>
     <g id="text_10">
      <!-- 500 -->
      <g style="fill: #262626" transform="translate(37.36375 231.568069)scale(0.11 -0.11)">
       <use xlink:href="#DejaVuSans-35"/>
       <use xlink:href="#DejaVuSans-30" x="63.623047"/>
       <use xlink:href="#DejaVuSans-30" x="127.246094"/>
      </g>
     </g>
    </g>
    <g id="ytick_3">
     <g id="line2d_10">
      <path d="M 67.86 172.813251 
L 447.84 172.813251 
" clip-path="url(#p2f18f2f34d)" style="fill: none; stroke: #ffffff; stroke-linecap: round"/>
     </g>
     <g id="text_11">
      <!-- 1000 -->
      <g style="fill: #262626" transform="translate(30.365 176.992392)scale(0.11 -0.11)">
       <use xlink:href="#DejaVuSans-31"/>
       <use xlink:href="#DejaVuSans-30" x="63.623047"/>
       <use xlink:href="#DejaVuSans-30" x="127.246094"/>
       <use xlink:href="#DejaVuSans-30" x="190.869141"/>
      </g>
     </g>
    </g>
    <g id="ytick_4">
     <g id="line2d_11">
      <path d="M 67.86 118.237573 
L 447.84 118.237573 
" clip-path="url(#p2f18f2f34d)" style="fill: none; stroke: #ffffff; stroke-linecap: round"/>
     </g>
     <g id="text_12">
      <!-- 1500 -->
      <g style="fill: #262626" transform="translate(30.365 122.416714)scale(0.11 -0.11)">
       <use xlink:href="#DejaVuSans-31"/>
       <use xlink:href="#DejaVuSans-35" x="63.623047"/>
       <use xlink:href="#DejaVuSans-30" x="127.246094"/>
       <use xlink:href="#DejaVuSans-30" x="190.869141"/>
      </g>
     </g>
    </g>
    <g id="ytick_5">
     <g id="line2d_12">
      <path d="M 67.86 63.661896 
L 447.84 63.661896 
" clip-path="url(#p2f18f2f34d)" style="fill: none; stroke: #ffffff; stroke-linecap: round"/>
     </g>
     <g id="text_13">
      <!-- 2000 -->
      <g style="fill: #262626" transform="translate(30.365 67.841037)scale(0.11 -0.11)">
       <use xlink:href="#DejaVuSans-32"/>
       <use xlink:href="#DejaVuSans-30" x="63.623047"/>
       <use xlink:href="#DejaVuSans-30" x="127.246094"/>
       <use xlink:href="#DejaVuSans-30" x="190.869141"/>
      </g>
     </g>
    </g>
    <g id="text_14">
     <!-- # Δx &gt; 20 -->
     <g style="fill: #262626" transform="translate(23.453438 190.054688)rotate(-90)scale(0.14 -0.14)">
      <defs>
       <path id="DejaVuSans-23" d="M 3272 2816 
L 2363 2816 
L 2100 1772 
L 3016 1772 
L 3272 2816 
z
M 2803 4594 
L 2478 3297 
L 3391 3297 
L 3719 4594 
L 4219 4594 
L 3897 3297 
L 4872 3297 
L 4872 2816 
L 3775 2816 
L 3519 1772 
L 4513 1772 
L 4513 1294 
L 3397 1294 
L 3072 0 
L 2572 0 
L 2894 1294 
L 1978 1294 
L 1656 0 
L 1153 0 
L 1478 1294 
L 494 1294 
L 494 1772 
L 1594 1772 
L 1856 2816 
L 850 2816 
L 850 3297 
L 1978 3297 
L 2297 4594 
L 2803 4594 
z
" transform="scale(0.015625)"/>
       <path id="DejaVuSans-394" d="M 2188 4044 
L 906 525 
L 3472 525 
L 2188 4044 
z
M 50 0 
L 1831 4666 
L 2547 4666 
L 4325 0 
L 50 0 
z
" transform="scale(0.015625)"/>
       <path id="DejaVuSans-78" d="M 3513 3500 
L 2247 1797 
L 3578 0 
L 2900 0 
L 1881 1375 
L 863 0 
L 184 0 
L 1544 1831 
L 300 3500 
L 978 3500 
L 1906 2253 
L 2834 3500 
L 3513 3500 
z
" transform="scale(0.015625)"/>
       <path id="DejaVuSans-3e" d="M 678 3150 
L 678 3719 
L 4684 2266 
L 4684 1747 
L 678 294 
L 678 863 
L 3897 2003 
L 678 3150 
z
" transform="scale(0.015625)"/>
      </defs>
      <use xlink:href="#DejaVuSans-23"/>
      <use xlink:href="#DejaVuSans-20" x="83.789062"/>
      <use xlink:href="#DejaVuSans-394" x="115.576172"/>
      <use xlink:href="#DejaVuSans-78" x="183.984375"/>
      <use xlink:href="#DejaVuSans-20" x="243.164062"/>
      <use xlink:href="#DejaVuSans-3e" x="274.951172"/>
      <use xlink:href="#DejaVuSans-20" x="358.740234"/>
      <use xlink:href="#DejaVuSans-32" x="390.527344"/>
      <use xlink:href="#DejaVuSans-30" x="454.150391"/>
     </g>
    </g>
   </g>
   <g id="PolyCollection_1">
    <defs>
     <path id="m436e6b6de3" d="M 85.131818 -159.644926 
L 85.131818 -204.855417 
L 88.034645 -181.955463 
L 90.937471 -201.428065 
L 93.840298 -188.067939 
L 96.743125 -263.469695 
L 99.645951 -285.62742 
L 102.548778 -310.011833 
L 105.451604 -291.652575 
L 108.354431 -299.380491 
L 111.257257 -319.835455 
L 114.160084 -254.584775 
L 117.062911 -283.466223 
L 119.965737 -269.713152 
L 122.868564 -248.930734 
L 125.77139 -252.270766 
L 128.674217 -276.851651 
L 131.577044 -249.738454 
L 134.47987 -255.981912 
L 137.382697 -276.022101 
L 140.285523 -248.756092 
L 143.18835 -240.416929 
L 146.091176 -216.993048 
L 148.994003 -247.184313 
L 151.89683 -259.409264 
L 154.799656 -291.128648 
L 157.702483 -239.914832 
L 160.605309 -206.034252 
L 163.508136 -240.307777 
L 166.410963 -242.228841 
L 169.313789 -232.514371 
L 172.216616 -207.103935 
L 175.119442 -228.497601 
L 178.022269 -220.878836 
L 180.925095 -232.012274 
L 183.827922 -213.631186 
L 186.730749 -223.956904 
L 189.633575 -207.780674 
L 192.536402 -232.885485 
L 195.439228 -192.97975 
L 198.342055 -230.527816 
L 201.244882 -190.57842 
L 204.147708 -210.051022 
L 207.050535 -254.99955 
L 209.953361 -240.613401 
L 212.856188 -192.674126 
L 215.759015 -206.929293 
L 218.661841 -204.920908 
L 221.564668 -172.8959 
L 224.467494 -235.810741 
L 227.370321 -217.735277 
L 230.273147 -200.096418 
L 233.175974 -184.858889 
L 236.078801 -187.151067 
L 238.981627 -201.646367 
L 241.884454 -228.366619 
L 244.78728 -231.182724 
L 247.690107 -218.062731 
L 250.592934 -235.788911 
L 253.49576 -197.454955 
L 256.398587 -176.432404 
L 259.301413 -208.937678 
L 262.20424 -226.947651 
L 265.107066 -263.469695 
L 268.009893 -195.271928 
L 270.91272 -250.415193 
L 273.815546 -266.089327 
L 276.718373 -261.373989 
L 279.621199 -224.349849 
L 282.524026 -213.500205 
L 285.426853 -214.111452 
L 288.329679 -211.884764 
L 291.232506 -261.46131 
L 294.135332 -231.335536 
L 297.038159 -212.736145 
L 299.940985 -217.276841 
L 302.843812 -234.06432 
L 305.746639 -244.302717 
L 308.649465 -235.636099 
L 311.552292 -230.178532 
L 314.455118 -214.919172 
L 317.357945 -246.092799 
L 320.260772 -235.810741 
L 323.163598 -251.375725 
L 326.066425 -227.755371 
L 328.969251 -191.167837 
L 331.872078 -212.648824 
L 334.774905 -235.003021 
L 337.677731 -211.622801 
L 340.580558 -224.306189 
L 343.483384 -191.560782 
L 346.386211 -184.553265 
L 349.289037 -218.80496 
L 352.191864 -200.445702 
L 355.094691 -181.213234 
L 357.997517 -191.538952 
L 360.900344 -184.400453 
L 363.80317 -216.665594 
L 366.705997 -233.147448 
L 369.608824 -208.108128 
L 372.51165 -200.751326 
L 375.414477 -230.986252 
L 378.317303 -231.597499 
L 381.22013 -200.576684 
L 384.122956 -191.953727 
L 387.025783 -205.750458 
L 389.92861 -186.648971 
L 392.831436 -217.560635 
L 395.734263 -226.511046 
L 398.637089 -222.01401 
L 401.539916 -213.216411 
L 404.442743 -202.781541 
L 407.345569 -226.074441 
L 410.248396 -199.310528 
L 413.151222 -202.148464 
L 416.054049 -197.01835 
L 418.956875 -215.202966 
L 421.859702 -192.695956 
L 424.762529 -195.031795 
L 427.665355 -210.836911 
L 430.568182 -198.961244 
L 430.568182 -101.20529 
L 430.568182 -101.20529 
L 427.665355 -118.88781 
L 424.762529 -129.213528 
L 421.859702 -136.111894 
L 418.956875 -123.363016 
L 416.054049 -124.410869 
L 413.151222 -127.816391 
L 410.248396 -116.530141 
L 407.345569 -94.983663 
L 404.442743 -91.840104 
L 401.539916 -120.787044 
L 398.637089 -111.902123 
L 395.734263 -101.576405 
L 392.831436 -94.459737 
L 389.92861 -140.761742 
L 387.025783 -133.011995 
L 384.122956 -101.030648 
L 381.22013 -126.310102 
L 378.317303 -119.957493 
L 375.414477 -132.640881 
L 372.51165 -88.980339 
L 369.608824 -105.243891 
L 366.705997 -116.617462 
L 363.80317 -111.749311 
L 360.900344 -118.822319 
L 357.997517 -154.514812 
L 355.094691 -133.186638 
L 352.191864 -158.35694 
L 349.289037 -95.856874 
L 346.386211 -119.608209 
L 343.483384 -100.572213 
L 340.580558 -129.497322 
L 337.677731 -109.915569 
L 334.774905 -100.39757 
L 331.872078 -108.780395 
L 328.969251 -102.405955 
L 326.066425 -82.147464 
L 323.163598 -115.569609 
L 320.260772 -99.699002 
L 317.357945 -94.568888 
L 314.455118 -118.232902 
L 311.552292 -97.668787 
L 308.649465 -112.054935 
L 305.746639 -98.432846 
L 302.843812 -94.809021 
L 299.940985 -125.131268 
L 297.038159 -92.822466 
L 294.135332 -93.455544 
L 291.232506 -136.548499 
L 288.329679 -117.839957 
L 285.426853 -98.869451 
L 282.524026 -99.786323 
L 279.621199 -121.398291 
L 276.718373 -130.763477 
L 273.815546 -115.351306 
L 270.91272 -129.279019 
L 268.009893 -91.796444 
L 265.107066 -117.665315 
L 262.20424 -116.901255 
L 259.301413 -94.263264 
L 256.398587 -117.425182 
L 253.49576 -117.556163 
L 250.592934 -89.002169 
L 247.690107 -104.981927 
L 244.78728 -87.49588 
L 241.884454 -109.806417 
L 238.981627 -78.785602 
L 236.078801 -81.05595 
L 233.175974 -77.80324 
L 230.273147 -65.818421 
L 227.370321 -85.989592 
L 224.467494 -85.945931 
L 221.564668 -88.914848 
L 218.661841 -69.398586 
L 215.759015 -81.994652 
L 212.856188 -104.698134 
L 209.953361 -103.999565 
L 207.050535 -93.215411 
L 204.147708 -77.453956 
L 201.244882 -79.942607 
L 198.342055 -90.552118 
L 195.439228 -114.237962 
L 192.536402 -114.914701 
L 189.633575 -131.440216 
L 186.730749 -96.053347 
L 183.827922 -123.035561 
L 180.925095 -98.432846 
L 178.022269 -121.682085 
L 175.119442 -79.39685 
L 172.216616 -178.244317 
L 169.313789 -152.593748 
L 166.410963 -164.272943 
L 163.508136 -158.291449 
L 160.605309 -166.019365 
L 157.702483 -168.00592 
L 154.799656 -177.873202 
L 151.89683 -203.851225 
L 148.994003 -156.086592 
L 146.091176 -124.760153 
L 143.18835 -171.717066 
L 140.285523 -146.503103 
L 137.382697 -188.264411 
L 134.47987 -146.699575 
L 131.577044 -202.847032 
L 128.674217 -183.090637 
L 125.77139 -206.580009 
L 122.868564 -178.309808 
L 119.965737 -174.358529 
L 117.062911 -196.712726 
L 114.160084 -212.386861 
L 111.257257 -259.88953 
L 108.354431 -262.771126 
L 105.451604 -260.588099 
L 102.548778 -198.568299 
L 99.645951 -241.966878 
L 96.743125 -206.165233 
L 93.840298 -144.69119 
L 90.937471 -146.743236 
L 88.034645 -143.512356 
L 85.131818 -159.644926 
z
" style="stroke: #ffffff; stroke-opacity: 0.5"/>
    </defs>
    <g clip-path="url(#p2f18f2f34d)">
     <use xlink:href="#m436e6b6de3" x="0" y="345.6" style="fill: #4c72b0; fill-opacity: 0.5; stroke: #ffffff; stroke-opacity: 0.5"/>
    </g>
   </g>
   <g id="PolyCollection_2">
    <defs>
     <path id="m35eba1792a" d="M 85.131818 -142.944769 
L 85.131818 -182.588541 
L 88.034645 -200.925968 
L 90.937471 -192.564975 
L 93.840298 -205.379344 
L 96.743125 -280.082531 
L 99.645951 -274.908757 
L 102.548778 -276.611518 
L 105.451604 -312.871598 
L 108.354431 -289.535038 
L 111.257257 -303.943017 
L 114.160084 -274.952417 
L 117.062911 -268.054052 
L 119.965737 -256.789632 
L 122.868564 -242.010538 
L 125.77139 -250.98278 
L 128.674217 -243.102052 
L 131.577044 -265.216117 
L 134.47987 -290.015304 
L 137.382697 -306.890104 
L 140.285523 -199.878115 
L 143.18835 -269.713152 
L 146.091176 -235.919893 
L 148.994003 -208.370091 
L 151.89683 -208.915848 
L 154.799656 -233.212939 
L 157.702483 -263.382374 
L 160.605309 -227.62439 
L 163.508136 -158.968188 
L 166.410963 -176.476065 
L 169.313789 -166.739764 
L 172.216616 -260.064173 
L 175.119442 -155.016909 
L 178.022269 -213.10726 
L 180.925095 -214.875512 
L 183.827922 -150.388891 
L 186.730749 -148.904433 
L 189.633575 -172.459295 
L 192.536402 -176.039459 
L 195.439228 -219.394378 
L 198.342055 -182.413899 
L 201.244882 -174.707813 
L 204.147708 -136.57033 
L 207.050535 -145.280608 
L 209.953361 -214.984663 
L 212.856188 -156.610518 
L 215.759015 -158.291449 
L 218.661841 -145.695383 
L 221.564668 -163.836338 
L 224.467494 -160.299834 
L 227.370321 -110.919761 
L 230.273147 -162.286389 
L 233.175974 -136.090064 
L 236.078801 -139.342774 
L 238.981627 -174.402189 
L 241.884454 -164.251113 
L 244.78728 -137.530861 
L 247.690107 -138.491393 
L 250.592934 -126.397423 
L 253.49576 -121.900387 
L 256.398587 -122.031369 
L 259.301413 -121.245479 
L 262.20424 -170.538231 
L 265.107066 -158.138637 
L 268.009893 -152.375446 
L 270.91272 -123.035561 
L 273.815546 -135.566137 
L 276.718373 -160.321664 
L 279.621199 -153.401468 
L 282.524026 -137.44354 
L 285.426853 -194.857153 
L 288.329679 -167.634805 
L 291.232506 -150.934648 
L 294.135332 -125.458722 
L 297.038159 -125.415061 
L 299.940985 -181.649839 
L 302.843812 -145.280608 
L 305.746639 -146.350291 
L 308.649465 -164.884191 
L 311.552292 -142.988429 
L 314.455118 -134.081679 
L 317.357945 -143.381374 
L 320.260772 -170.210777 
L 323.163598 -141.176517 
L 326.066425 -147.87841 
L 328.969251 -153.707092 
L 331.872078 -118.996961 
L 334.774905 -154.449321 
L 337.677731 -154.427491 
L 340.580558 -115.394967 
L 343.483384 -137.792825 
L 346.386211 -165.58276 
L 349.289037 -126.048139 
L 352.191864 -154.274679 
L 355.094691 -158.509752 
L 357.997517 -117.774466 
L 360.900344 -149.057245 
L 363.80317 -172.306483 
L 366.705997 -140.325136 
L 369.608824 -146.808727 
L 372.51165 -123.450337 
L 375.414477 -136.548499 
L 378.317303 -116.944916 
L 381.22013 -108.496601 
L 384.122956 -163.727187 
L 387.025783 -157.614711 
L 389.92861 -144.996814 
L 392.831436 -187.718654 
L 395.734263 -144.167264 
L 398.637089 -138.578714 
L 401.539916 -139.517416 
L 404.442743 -147.812919 
L 407.345569 -140.67442 
L 410.248396 -114.259793 
L 413.151222 -110.657798 
L 416.054049 -111.749311 
L 418.956875 -122.227841 
L 421.859702 -141.613122 
L 424.762529 -125.415061 
L 427.665355 -122.795429 
L 430.568182 -96.075177 
L 430.568182 -80.357382 
L 430.568182 -80.357382 
L 427.665355 -80.510194 
L 424.762529 -75.729364 
L 421.859702 -75.620213 
L 418.956875 -88.674715 
L 416.054049 -81.776349 
L 413.151222 -91.228857 
L 410.248396 -64.90155 
L 407.345569 -65.098022 
L 404.442743 -100.179268 
L 401.539916 -98.432846 
L 398.637089 -80.20457 
L 395.734263 -92.254879 
L 392.831436 -91.51265 
L 389.92861 -78.065203 
L 387.025783 -81.448895 
L 384.122956 -83.391789 
L 381.22013 -79.549662 
L 378.317303 -73.262544 
L 375.414477 -77.170162 
L 372.51165 -82.758711 
L 369.608824 -85.334683 
L 366.705997 -78.108864 
L 363.80317 -88.172619 
L 360.900344 -105.287551 
L 357.997517 -82.453088 
L 355.094691 -75.030796 
L 352.191864 -75.554722 
L 349.289037 -78.021543 
L 346.386211 -88.565564 
L 343.483384 -80.575684 
L 340.580558 -72.825938 
L 337.677731 -80.401042 
L 334.774905 -96.642764 
L 331.872078 -81.099611 
L 328.969251 -74.899814 
L 326.066425 -69.660549 
L 323.163598 -79.833455 
L 320.260772 -79.680643 
L 317.357945 -80.357382 
L 314.455118 -71.559782 
L 311.552292 -111.552839 
L 308.649465 -80.881308 
L 305.746639 -81.492556 
L 302.843812 -67.128237 
L 299.940985 -88.3036 
L 297.038159 -101.598235 
L 294.135332 -79.265868 
L 291.232506 -86.382536 
L 288.329679 -92.822466 
L 285.426853 -94.175943 
L 282.524026 -70.249966 
L 279.621199 -66.145875 
L 276.718373 -93.193581 
L 273.815546 -84.395982 
L 270.91272 -65.054362 
L 268.009893 -69.485907 
L 265.107066 -77.061011 
L 262.20424 -67.870467 
L 259.301413 -68.394393 
L 256.398587 -83.522771 
L 253.49576 -77.80324 
L 250.592934 -74.179415 
L 247.690107 -70.511929 
L 244.78728 -69.027471 
L 241.884454 -85.334683 
L 238.981627 -64.967041 
L 236.078801 -66.56065 
L 233.175974 -64.421284 
L 230.273147 -80.379212 
L 227.370321 -79.593322 
L 224.467494 -64.333963 
L 221.564668 -68.219751 
L 218.661841 -71.297819 
L 215.759015 -93.957641 
L 212.856188 -77.912391 
L 209.953361 -84.177679 
L 207.050535 -81.689028 
L 204.147708 -79.003905 
L 201.244882 -101.94752 
L 198.342055 -64.530435 
L 195.439228 -90.923233 
L 192.536402 -88.325431 
L 189.633575 -132.400748 
L 186.730749 -72.19286 
L 183.827922 -92.604164 
L 180.925095 -105.833308 
L 178.022269 -86.579009 
L 175.119442 -124.236226 
L 172.216616 -128.383978 
L 169.313789 -128.143845 
L 166.410963 -71.014026 
L 163.508136 -77.235653 
L 160.605309 -81.03412 
L 157.702483 -110.330344 
L 154.799656 -132.378917 
L 151.89683 -142.158879 
L 148.994003 -135.391495 
L 146.091176 -110.657798 
L 143.18835 -69.442246 
L 140.285523 -114.478095 
L 137.382697 -102.995373 
L 134.47987 -74.528699 
L 131.577044 -145.848195 
L 128.674217 -162.439201 
L 125.77139 -113.561224 
L 122.868564 -72.083709 
L 119.965737 -75.074456 
L 117.062911 -202.825202 
L 114.160084 -162.002595 
L 111.257257 -94.066792 
L 108.354431 -196.035988 
L 105.451604 -267.835749 
L 102.548778 -232.44888 
L 99.645951 -206.863802 
L 96.743125 -217.429653 
L 93.840298 -146.852387 
L 90.937471 -165.102494 
L 88.034645 -147.550956 
L 85.131818 -142.944769 
z
" style="stroke: #ffffff; stroke-opacity: 0.5"/>
    </defs>
    <g clip-path="url(#p2f18f2f34d)">
     <use xlink:href="#m35eba1792a" x="0" y="345.6" style="fill: #dd8452; fill-opacity: 0.5; stroke: #ffffff; stroke-opacity: 0.5"/>
    </g>
   </g>
   <g id="PolyCollection_3">
    <defs>
     <path id="m166fe03bfa" d="M 85.131818 -115.70059 
L 85.131818 -193.525507 
L 88.034645 -229.982059 
L 90.937471 -214.700869 
L 93.840298 -240.460589 
L 96.743125 -181.191403 
L 99.645951 -292.307483 
L 102.548778 -289.578699 
L 105.451604 -284.885191 
L 108.354431 -308.789337 
L 111.257257 -294.599661 
L 114.160084 -293.508148 
L 117.062911 -273.205996 
L 119.965737 -218.73947 
L 122.868564 -277.244596 
L 125.77139 -222.450616 
L 128.674217 -282.811315 
L 131.577044 -248.319487 
L 134.47987 -266.547763 
L 137.382697 -197.564107 
L 140.285523 -228.235637 
L 143.18835 -157.614711 
L 146.091176 -194.398717 
L 148.994003 -281.938104 
L 151.89683 -247.227973 
L 154.799656 -178.244317 
L 157.702483 -212.081237 
L 160.605309 -155.540835 
L 163.508136 -178.899225 
L 166.410963 -176.934501 
L 169.313789 -153.794413 
L 172.216616 -153.576111 
L 175.119442 -145.826364 
L 178.022269 -86.120573 
L 180.925095 -170.712873 
L 183.827922 -84.155849 
L 186.730749 -68.1106 
L 189.633575 -142.879278 
L 192.536402 -109.369812 
L 195.439228 -82.846033 
L 198.342055 -91.796444 
L 201.244882 -90.814081 
L 204.147708 -91.250687 
L 207.050535 -84.592454 
L 209.953361 -68.1106 
L 212.856188 -113.408412 
L 215.759015 -68.1106 
L 218.661841 -68.656356 
L 221.564668 -109.26066 
L 224.467494 -87.102935 
L 227.370321 -99.655341 
L 230.273147 -111.334536 
L 233.175974 -68.1106 
L 236.078801 -66.909935 
L 238.981627 -68.219751 
L 241.884454 -67.237389 
L 244.78728 -67.128237 
L 247.690107 -68.001448 
L 250.592934 -67.128237 
L 253.49576 -68.1106 
L 256.398587 -67.455692 
L 259.301413 -68.219751 
L 262.20424 -67.128237 
L 265.107066 -68.438054 
L 268.009893 -68.438054 
L 270.91272 -67.128237 
L 273.815546 -67.019086 
L 276.718373 -67.019086 
L 279.621199 -67.892297 
L 282.524026 -68.219751 
L 285.426853 -68.219751 
L 288.329679 -67.128237 
L 291.232506 -68.328902 
L 294.135332 -68.438054 
L 297.038159 -68.219751 
L 299.940985 -68.1106 
L 302.843812 -68.219751 
L 305.746639 -67.237389 
L 308.649465 -68.219751 
L 311.552292 -68.1106 
L 314.455118 -68.1106 
L 317.357945 -67.019086 
L 320.260772 -67.128237 
L 323.163598 -67.019086 
L 326.066425 -68.219751 
L 328.969251 -67.019086 
L 331.872078 -67.128237 
L 334.774905 -68.219751 
L 337.677731 -67.564843 
L 340.580558 -69.092962 
L 343.483384 -67.783146 
L 346.386211 -68.001448 
L 349.289037 -68.219751 
L 352.191864 -68.656356 
L 355.094691 -68.1106 
L 357.997517 -67.019086 
L 360.900344 -68.328902 
L 363.80317 -67.237389 
L 366.705997 -68.219751 
L 369.608824 -67.673994 
L 372.51165 -68.219751 
L 375.414477 -68.1106 
L 378.317303 -67.455692 
L 381.22013 -67.128237 
L 384.122956 -67.237389 
L 387.025783 -67.019086 
L 389.92861 -67.237389 
L 392.831436 -67.34654 
L 395.734263 -68.219751 
L 398.637089 -67.673994 
L 401.539916 -67.237389 
L 404.442743 -68.219751 
L 407.345569 -68.219751 
L 410.248396 -68.1106 
L 413.151222 -68.1106 
L 416.054049 -68.1106 
L 418.956875 -67.128237 
L 421.859702 -68.874659 
L 424.762529 -67.34654 
L 427.665355 -67.128237 
L 430.568182 -66.582481 
L 430.568182 -65.818421 
L 430.568182 -65.818421 
L 427.665355 -66.800783 
L 424.762529 -66.036724 
L 421.859702 -66.145875 
L 418.956875 -64.726908 
L 416.054049 -64.836059 
L 413.151222 -64.94521 
L 410.248396 -66.036724 
L 407.345569 -66.473329 
L 404.442743 -63.744545 
L 401.539916 -65.490967 
L 398.637089 -65.818421 
L 395.734263 -64.836059 
L 392.831436 -65.054362 
L 389.92861 -65.927573 
L 387.025783 -65.927573 
L 384.122956 -64.726908 
L 381.22013 -64.836059 
L 378.317303 -65.272664 
L 375.414477 -66.036724 
L 372.51165 -66.036724 
L 369.608824 -66.255027 
L 366.705997 -65.818421 
L 363.80317 -65.927573 
L 360.900344 -65.927573 
L 357.997517 -64.836059 
L 355.094691 -65.927573 
L 352.191864 -66.036724 
L 349.289037 -64.836059 
L 346.386211 -64.94521 
L 343.483384 -65.818421 
L 340.580558 -65.818421 
L 337.677731 -64.94521 
L 334.774905 -65.818421 
L 331.872078 -65.927573 
L 328.969251 -64.836059 
L 326.066425 -66.036724 
L 323.163598 -66.473329 
L 320.260772 -64.836059 
L 317.357945 -65.818421 
L 314.455118 -65.054362 
L 311.552292 -66.255027 
L 308.649465 -65.927573 
L 305.746639 -65.927573 
L 302.843812 -65.927573 
L 299.940985 -64.726908 
L 297.038159 -65.927573 
L 294.135332 -65.818421 
L 291.232506 -65.927573 
L 288.329679 -65.818421 
L 285.426853 -67.128237 
L 282.524026 -64.726908 
L 279.621199 -66.036724 
L 276.718373 -65.818421 
L 273.815546 -65.272664 
L 270.91272 -65.818421 
L 268.009893 -66.691632 
L 265.107066 -65.818421 
L 262.20424 -64.726908 
L 259.301413 -65.818421 
L 256.398587 -65.927573 
L 253.49576 -65.927573 
L 250.592934 -65.163513 
L 247.690107 -65.927573 
L 244.78728 -64.94521 
L 241.884454 -65.818421 
L 238.981627 -64.836059 
L 236.078801 -64.94521 
L 233.175974 -64.836059 
L 230.273147 -65.927573 
L 227.370321 -65.927573 
L 224.467494 -65.927573 
L 221.564668 -65.818421 
L 218.661841 -65.163513 
L 215.759015 -64.94521 
L 212.856188 -66.364178 
L 209.953361 -65.054362 
L 207.050535 -65.818421 
L 204.147708 -66.036724 
L 201.244882 -66.036724 
L 198.342055 -65.927573 
L 195.439228 -67.019086 
L 192.536402 -67.128237 
L 189.633575 -65.818421 
L 186.730749 -65.818421 
L 183.827922 -65.70927 
L 180.925095 -67.128237 
L 178.022269 -67.783146 
L 175.119442 -65.927573 
L 172.216616 -74.877984 
L 169.313789 -68.001448 
L 166.410963 -83.719243 
L 163.508136 -97.254011 
L 160.605309 -109.26066 
L 157.702483 -103.58479 
L 154.799656 -68.001448 
L 151.89683 -83.282638 
L 148.994003 -90.70493 
L 146.091176 -68.219751 
L 143.18835 -68.765508 
L 140.285523 -68.001448 
L 137.382697 -113.080958 
L 134.47987 -168.202392 
L 131.577044 -91.032384 
L 128.674217 -111.443688 
L 125.77139 -117.228709 
L 122.868564 -131.964142 
L 119.965737 -159.470284 
L 117.062911 -120.721553 
L 114.160084 -137.749164 
L 111.257257 -108.824055 
L 108.354431 -122.577126 
L 105.451604 -203.021674 
L 102.548778 -221.795707 
L 99.645951 -203.021674 
L 96.743125 -123.013731 
L 93.840298 -166.674273 
L 90.937471 -146.372121 
L 88.034645 -134.583775 
L 85.131818 -115.70059 
z
" style="stroke: #ffffff; stroke-opacity: 0.5"/>
    </defs>
    <g clip-path="url(#p2f18f2f34d)">
     <use xlink:href="#m166fe03bfa" x="0" y="345.6" style="fill: #55a868; fill-opacity: 0.5; stroke: #ffffff; stroke-opacity: 0.5"/>
    </g>
   </g>
   <g id="line2d_13">
    <path d="M 85.131818 169.346604 
L 88.034645 183.806975 
L 90.937471 177.498027 
L 93.840298 182.855176 
L 96.743125 113.797296 
L 99.645951 79.235611 
L 102.548778 73.943954 
L 105.451604 67.848942 
L 108.354431 65.801262 
L 111.257257 57.606179 
L 114.160084 110.116713 
L 117.062911 98.040207 
L 119.965737 137.077097 
L 122.868564 127.122494 
L 125.77139 112.849863 
L 128.674217 114.10292 
L 131.577044 113.456744 
L 134.47987 118.704741 
L 137.382697 122.070969 
L 140.285523 148.917836 
L 143.18835 133.902976 
L 146.091176 171.053731 
L 148.994003 136.356698 
L 151.89683 116.69199 
L 154.799656 108.49254 
L 157.702483 136.160226 
L 160.605309 151.380291 
L 163.508136 147.581824 
L 166.410963 143.726598 
L 169.313789 145.935821 
L 172.216616 154.462725 
L 175.119442 181.265932 
L 178.022269 172.961697 
L 180.925095 186.444072 
L 183.827922 167.460468 
L 186.730749 175.079233 
L 189.633575 177.86041 
L 192.536402 154.842572 
L 195.439228 199.040138 
L 198.342055 165.556869 
L 201.244882 191.368981 
L 204.147708 189.779738 
L 207.050535 161.404751 
L 209.953361 155.073973 
L 212.856188 207.68056 
L 215.759015 192.351343 
L 218.661841 181.999429 
L 221.564668 202.598473 
L 224.467494 187.347845 
L 227.370321 191.194339 
L 230.273147 187.020391 
L 233.175974 201.974127 
L 236.078801 210.121184 
L 238.981627 199.254075 
L 241.884454 181.361985 
L 244.78728 197.520752 
L 247.690107 174.590235 
L 250.592934 188.736251 
L 253.49576 188.788643 
L 256.398587 197.26752 
L 259.301413 196.839647 
L 262.20424 173.852372 
L 265.107066 172.031727 
L 268.009893 186.151546 
L 270.91272 172.219468 
L 273.815546 183.121505 
L 276.718373 148.398276 
L 279.621199 188.583439 
L 282.524026 191.740096 
L 285.426853 183.256853 
L 288.329679 184.658356 
L 291.232506 171.892013 
L 294.135332 174.005184 
L 297.038159 175.507106 
L 299.940985 173.599141 
L 302.843812 171.372453 
L 305.746639 173.594775 
L 308.649465 168.324947 
L 311.552292 176.882413 
L 314.455118 172.022995 
L 317.357945 160.383095 
L 320.260772 168.944927 
L 323.163598 166.954006 
L 326.066425 169.385898 
L 328.969251 190.456476 
L 331.872078 175.12726 
L 334.774905 177.559152 
L 337.677731 184.064573 
L 340.580558 159.505518 
L 343.483384 202.21426 
L 346.386211 200.830221 
L 349.289037 179.397261 
L 352.191864 165.495744 
L 355.094691 187.072784 
L 357.997517 173.791247 
L 360.900344 192.312049 
L 363.80317 191.831783 
L 366.705997 179.523876 
L 369.608824 186.142814 
L 372.51165 195.267868 
L 375.414477 166.866685 
L 378.317303 177.188037 
L 381.22013 186.304358 
L 384.122956 197.188932 
L 387.025783 187.251792 
L 389.92861 172.455234 
L 392.831436 189.661854 
L 395.734263 188.98075 
L 398.637089 181.213539 
L 401.539916 190.910546 
L 404.442743 195.494902 
L 407.345569 191.565454 
L 410.248396 192.517254 
L 413.151222 188.413163 
L 416.054049 194.03664 
L 418.956875 191.770658 
L 421.859702 182.846443 
L 424.762529 182.75039 
L 427.665355 188.640197 
L 430.568182 195.922776 
" clip-path="url(#p2f18f2f34d)" style="fill: none; stroke: #4c72b0; stroke-width: 3; stroke-linecap: round"/>
   </g>
   <g id="line2d_14">
    <path d="M 85.131818 180.728907 
L 88.034645 176.563691 
L 90.937471 169.233086 
L 93.840298 169.931655 
L 96.743125 85.147249 
L 99.645951 92.735451 
L 102.548778 86.889304 
L 105.451604 58.396435 
L 108.354431 90.216238 
L 111.257257 111.828206 
L 114.160084 102.222887 
L 117.062911 108.640986 
L 119.965737 146.94438 
L 122.868564 176.506933 
L 125.77139 142.600156 
L 128.674217 145.503582 
L 131.577044 156.711243 
L 134.47987 168.604375 
L 137.382697 112.893523 
L 140.285523 175.943712 
L 143.18835 156.977572 
L 146.091176 184.802436 
L 148.994003 171.599488 
L 151.89683 169.730817 
L 154.799656 159.339608 
L 157.702483 168.442831 
L 160.605309 213.902187 
L 163.508136 227.284143 
L 166.410963 206.370743 
L 169.313789 196.992459 
L 172.216616 157.558258 
L 175.119442 205.397113 
L 178.022269 210.797922 
L 180.925095 201.205701 
L 183.827922 224.970134 
L 186.730749 223.642854 
L 189.633575 193.800873 
L 192.536402 231.375136 
L 195.439228 210.88961 
L 198.342055 230.829379 
L 201.244882 210.090622 
L 204.147708 231.300913 
L 207.050535 234.352785 
L 209.953361 226.54628 
L 212.856188 227.183724 
L 215.759015 226.934859 
L 218.661841 219.089059 
L 221.564668 235.728092 
L 224.467494 234.112652 
L 227.370321 253.991297 
L 230.273147 219.259335 
L 233.175974 259.662801 
L 236.078801 244.695967 
L 238.981627 234.91164 
L 241.884454 232.732979 
L 244.78728 250.834639 
L 247.690107 236.994248 
L 250.592934 235.418102 
L 253.49576 241.045946 
L 256.398587 244.853145 
L 259.301413 250.795345 
L 262.20424 238.967704 
L 265.107066 221.302649 
L 268.009893 231.53668 
L 270.91272 246.512246 
L 273.815546 239.880209 
L 276.718373 221.132373 
L 279.621199 236.190894 
L 282.524026 239.103052 
L 285.426853 217.735583 
L 288.329679 231.431895 
L 291.232506 228.537201 
L 294.135332 239.657541 
L 297.038159 227.371464 
L 299.940985 209.776266 
L 302.843812 233.636752 
L 305.746639 240.495823 
L 308.649465 218.194018 
L 311.552292 215.858179 
L 314.455118 241.050312 
L 317.357945 238.081395 
L 320.260772 243.538963 
L 323.163598 229.392947 
L 326.066425 247.538269 
L 328.969251 219.289898 
L 331.872078 241.451989 
L 334.774905 218.770337 
L 337.677731 223.756371 
L 340.580558 252.406419 
L 343.483384 242.381959 
L 346.386211 231.672028 
L 349.289037 243.661212 
L 352.191864 228.048203 
L 355.094691 226.541914 
L 357.997517 248.878647 
L 360.900344 220.76999 
L 363.80317 221.26772 
L 366.705997 235.745556 
L 369.608824 230.148275 
L 372.51165 251.99601 
L 375.414477 240.775251 
L 378.317303 245.088912 
L 381.22013 253.742432 
L 384.122956 236.627499 
L 387.025783 226.153335 
L 389.92861 244.971029 
L 392.831436 225.603212 
L 395.734263 234.492499 
L 398.637089 243.303196 
L 401.539916 231.143735 
L 404.442743 222.795839 
L 407.345569 249.799885 
L 410.248396 258.213271 
L 413.151222 247.429117 
L 416.054049 251.018014 
L 418.956875 244.940466 
L 421.859702 243.674311 
L 424.762529 247.704179 
L 427.665355 252.227411 
L 430.568182 254.995489 
" clip-path="url(#p2f18f2f34d)" style="fill: none; stroke: #dd8452; stroke-width: 3; stroke-linecap: round"/>
   </g>
   <g id="line2d_15">
    <path d="M 85.131818 180.934112 
L 88.034645 163.164271 
L 90.937471 169.604201 
L 93.840298 151.506906 
L 96.743125 188.334574 
L 99.645951 112.430721 
L 102.548778 90.513129 
L 105.451604 110.116713 
L 108.354431 118.215743 
L 111.257257 122.647288 
L 114.160084 114.220804 
L 117.062911 136.313038 
L 119.965737 165.085335 
L 122.868564 161.177716 
L 125.77139 174.494182 
L 128.674217 168.469027 
L 131.577044 180.715809 
L 134.47987 130.462525 
L 137.382697 197.263154 
L 140.285523 212.19506 
L 143.18835 222.935553 
L 146.091176 225.620676 
L 148.994003 168.207064 
L 151.89683 193.355536 
L 154.799656 209.269803 
L 157.702483 200.013769 
L 160.605309 221.625737 
L 163.508136 214.487238 
L 166.410963 225.467865 
L 169.313789 239.308256 
L 172.216616 222.629929 
L 175.119442 243.914444 
L 178.022269 271.922681 
L 180.925095 224.223539 
L 183.827922 273.145176 
L 186.730749 278.821047 
L 189.633575 264.282086 
L 192.536402 265.198958 
L 195.439228 272.381117 
L 198.342055 269.43403 
L 201.244882 269.193897 
L 204.147708 273.974727 
L 207.050535 275.175392 
L 209.953361 279.017519 
L 212.856188 265.35177 
L 215.759015 279.301313 
L 218.661841 278.908368 
L 221.564668 269.936127 
L 224.467494 274.847938 
L 227.370321 271.638888 
L 230.273147 269.783315 
L 233.175974 278.995689 
L 236.078801 279.454125 
L 238.981627 279.08301 
L 241.884454 278.952029 
L 244.78728 279.388634 
L 247.690107 278.559084 
L 250.592934 279.170331 
L 253.49576 278.646405 
L 256.398587 278.821047 
L 259.301413 278.449932 
L 262.20424 279.213992 
L 265.107066 278.559084 
L 268.009893 278.428102 
L 270.91272 279.148501 
L 273.815546 279.323143 
L 276.718373 279.08301 
L 279.621199 278.580914 
L 282.524026 279.213992 
L 285.426853 278.035157 
L 288.329679 279.170331 
L 291.232506 278.952029 
L 294.135332 278.777386 
L 297.038159 278.930198 
L 299.940985 279.279483 
L 302.843812 278.340781 
L 305.746639 278.930198 
L 308.649465 278.515423 
L 311.552292 278.537253 
L 314.455118 279.10484 
L 317.357945 279.017519 
L 320.260772 279.170331 
L 323.163598 278.799217 
L 326.066425 278.908368 
L 328.969251 279.628767 
L 331.872078 279.257652 
L 334.774905 278.602744 
L 337.677731 278.886538 
L 340.580558 278.25346 
L 343.483384 278.995689 
L 346.386211 278.428102 
L 349.289037 278.973859 
L 352.191864 278.537253 
L 355.094691 278.668235 
L 357.997517 279.825239 
L 360.900344 278.908368 
L 363.80317 278.930198 
L 366.705997 278.29712 
L 369.608824 278.580914 
L 372.51165 278.602744 
L 375.414477 278.755556 
L 378.317303 279.10484 
L 381.22013 279.213992 
L 384.122956 279.017519 
L 387.025783 278.995689 
L 389.92861 278.908368 
L 392.831436 279.03935 
L 395.734263 279.170331 
L 398.637089 278.821047 
L 401.539916 279.475955 
L 404.442743 278.777386 
L 407.345569 278.035157 
L 410.248396 278.559084 
L 413.151222 278.755556 
L 416.054049 279.148501 
L 418.956875 279.606937 
L 421.859702 277.860515 
L 424.762529 279.06118 
L 427.665355 278.580914 
L 430.568182 279.410464 
" clip-path="url(#p2f18f2f34d)" style="fill: none; stroke: #55a868; stroke-width: 3; stroke-linecap: round"/>
   </g>
   <g id="patch_3">
    <path d="M 67.86 294.66 
L 67.86 12.96 
" style="fill: none; stroke: #ffffff; stroke-width: 1.25; stroke-linejoin: miter; stroke-linecap: square"/>
   </g>
   <g id="patch_4">
    <path d="M 447.84 294.66 
L 447.84 12.96 
" style="fill: none; stroke: #ffffff; stroke-width: 1.25; stroke-linejoin: miter; stroke-linecap: square"/>
   </g>
   <g id="patch_5">
    <path d="M 67.86 294.66 
L 447.84 294.66 
" style="fill: none; stroke: #ffffff; stroke-width: 1.25; stroke-linejoin: miter; stroke-linecap: square"/>
   </g>
   <g id="patch_6">
    <path d="M 67.86 12.96 
L 447.84 12.96 
" style="fill: none; stroke: #ffffff; stroke-width: 1.25; stroke-linejoin: miter; stroke-linecap: square"/>
   </g>
   <g id="legend_1">
    <g id="patch_7">
     <path d="M 312.723906 70.197812 
L 440.14 70.197812 
Q 442.34 70.197812 442.34 67.997813 
L 442.34 20.66 
Q 442.34 18.46 440.14 18.46 
L 312.723906 18.46 
Q 310.523906 18.46 310.523906 20.66 
L 310.523906 67.997813 
Q 310.523906 70.197812 312.723906 70.197812 
z
" style="fill: #eaeaf2; opacity: 0.8; stroke: #cccccc; stroke-linejoin: miter"/>
    </g>
    <g id="line2d_16">
     <path d="M 314.923906 27.368281 
L 325.923906 27.368281 
L 336.923906 27.368281 
" style="fill: none; stroke: #4c72b0; stroke-width: 3; stroke-linecap: round"/>
    </g>
    <g id="text_15">
     <!-- SAC-DELAY-10 -->
     <g style="fill: #262626" transform="translate(345.723906 31.218281)scale(0.11 -0.11)">
      <defs>
       <path id="DejaVuSans-53" d="M 3425 4513 
L 3425 3897 
Q 3066 4069 2747 4153 
Q 2428 4238 2131 4238 
Q 1616 4238 1336 4038 
Q 1056 3838 1056 3469 
Q 1056 3159 1242 3001 
Q 1428 2844 1947 2747 
L 2328 2669 
Q 3034 2534 3370 2195 
Q 3706 1856 3706 1288 
Q 3706 609 3251 259 
Q 2797 -91 1919 -91 
Q 1588 -91 1214 -16 
Q 841 59 441 206 
L 441 856 
Q 825 641 1194 531 
Q 1563 422 1919 422 
Q 2459 422 2753 634 
Q 3047 847 3047 1241 
Q 3047 1584 2836 1778 
Q 2625 1972 2144 2069 
L 1759 2144 
Q 1053 2284 737 2584 
Q 422 2884 422 3419 
Q 422 4038 858 4394 
Q 1294 4750 2059 4750 
Q 2388 4750 2728 4690 
Q 3069 4631 3425 4513 
z
" transform="scale(0.015625)"/>
       <path id="DejaVuSans-41" d="M 2188 4044 
L 1331 1722 
L 3047 1722 
L 2188 4044 
z
M 1831 4666 
L 2547 4666 
L 4325 0 
L 3669 0 
L 3244 1197 
L 1141 1197 
L 716 0 
L 50 0 
L 1831 4666 
z
" transform="scale(0.015625)"/>
       <path id="DejaVuSans-43" d="M 4122 4306 
L 4122 3641 
Q 3803 3938 3442 4084 
Q 3081 4231 2675 4231 
Q 1875 4231 1450 3742 
Q 1025 3253 1025 2328 
Q 1025 1406 1450 917 
Q 1875 428 2675 428 
Q 3081 428 3442 575 
Q 3803 722 4122 1019 
L 4122 359 
Q 3791 134 3420 21 
Q 3050 -91 2638 -91 
Q 1578 -91 968 557 
Q 359 1206 359 2328 
Q 359 3453 968 4101 
Q 1578 4750 2638 4750 
Q 3056 4750 3426 4639 
Q 3797 4528 4122 4306 
z
" transform="scale(0.015625)"/>
       <path id="DejaVuSans-2d" d="M 313 2009 
L 1997 2009 
L 1997 1497 
L 313 1497 
L 313 2009 
z
" transform="scale(0.015625)"/>
       <path id="DejaVuSans-44" d="M 1259 4147 
L 1259 519 
L 2022 519 
Q 2988 519 3436 956 
Q 3884 1394 3884 2338 
Q 3884 3275 3436 3711 
Q 2988 4147 2022 4147 
L 1259 4147 
z
M 628 4666 
L 1925 4666 
Q 3281 4666 3915 4102 
Q 4550 3538 4550 2338 
Q 4550 1131 3912 565 
Q 3275 0 1925 0 
L 628 0 
L 628 4666 
z
" transform="scale(0.015625)"/>
       <path id="DejaVuSans-45" d="M 628 4666 
L 3578 4666 
L 3578 4134 
L 1259 4134 
L 1259 2753 
L 3481 2753 
L 3481 2222 
L 1259 2222 
L 1259 531 
L 3634 531 
L 3634 0 
L 628 0 
L 628 4666 
z
" transform="scale(0.015625)"/>
       <path id="DejaVuSans-4c" d="M 628 4666 
L 1259 4666 
L 1259 531 
L 3531 531 
L 3531 0 
L 628 0 
L 628 4666 
z
" transform="scale(0.015625)"/>
       <path id="DejaVuSans-59" d="M -13 4666 
L 666 4666 
L 1959 2747 
L 3244 4666 
L 3922 4666 
L 2272 2222 
L 2272 0 
L 1638 0 
L 1638 2222 
L -13 4666 
z
" transform="scale(0.015625)"/>
      </defs>
      <use xlink:href="#DejaVuSans-53"/>
      <use xlink:href="#DejaVuSans-41" x="65.351562"/>
      <use xlink:href="#DejaVuSans-43" x="132.009766"/>
      <use xlink:href="#DejaVuSans-2d" x="201.833984"/>
      <use xlink:href="#DejaVuSans-44" x="237.917969"/>
      <use xlink:href="#DejaVuSans-45" x="314.919922"/>
      <use xlink:href="#DejaVuSans-4c" x="378.103516"/>
      <use xlink:href="#DejaVuSans-41" x="436.066406"/>
      <use xlink:href="#DejaVuSans-59" x="496.724609"/>
      <use xlink:href="#DejaVuSans-2d" x="545.933594"/>
      <use xlink:href="#DejaVuSans-31" x="582.017578"/>
      <use xlink:href="#DejaVuSans-30" x="645.640625"/>
     </g>
    </g>
    <g id="line2d_17">
     <path d="M 314.923906 43.514219 
L 325.923906 43.514219 
L 336.923906 43.514219 
" style="fill: none; stroke: #dd8452; stroke-width: 3; stroke-linecap: round"/>
    </g>
    <g id="text_16">
     <!-- SAC-IS-DELAY-10 -->
     <g style="fill: #262626" transform="translate(345.723906 47.364219)scale(0.11 -0.11)">
      <defs>
       <path id="DejaVuSans-49" d="M 628 4666 
L 1259 4666 
L 1259 0 
L 628 0 
L 628 4666 
z
" transform="scale(0.015625)"/>
      </defs>
      <use xlink:href="#DejaVuSans-53"/>
      <use xlink:href="#DejaVuSans-41" x="65.351562"/>
      <use xlink:href="#DejaVuSans-43" x="132.009766"/>
      <use xlink:href="#DejaVuSans-2d" x="201.833984"/>
      <use xlink:href="#DejaVuSans-49" x="237.917969"/>
      <use xlink:href="#DejaVuSans-53" x="267.410156"/>
      <use xlink:href="#DejaVuSans-2d" x="330.886719"/>
      <use xlink:href="#DejaVuSans-44" x="366.970703"/>
      <use xlink:href="#DejaVuSans-45" x="443.972656"/>
      <use xlink:href="#DejaVuSans-4c" x="507.15625"/>
      <use xlink:href="#DejaVuSans-41" x="565.119141"/>
      <use xlink:href="#DejaVuSans-59" x="625.777344"/>
      <use xlink:href="#DejaVuSans-2d" x="674.986328"/>
      <use xlink:href="#DejaVuSans-31" x="711.070312"/>
      <use xlink:href="#DejaVuSans-30" x="774.693359"/>
     </g>
    </g>
    <g id="line2d_18">
     <path d="M 314.923906 59.660156 
L 325.923906 59.660156 
L 336.923906 59.660156 
" style="fill: none; stroke: #55a868; stroke-width: 3; stroke-linecap: round"/>
    </g>
    <g id="text_17">
     <!-- DCAC-DELAY-10 -->
     <g style="fill: #262626" transform="translate(345.723906 63.510156)scale(0.11 -0.11)">
      <use xlink:href="#DejaVuSans-44"/>
      <use xlink:href="#DejaVuSans-43" x="77.001953"/>
      <use xlink:href="#DejaVuSans-41" x="146.826172"/>
      <use xlink:href="#DejaVuSans-43" x="213.484375"/>
      <use xlink:href="#DejaVuSans-2d" x="283.308594"/>
      <use xlink:href="#DejaVuSans-44" x="319.392578"/>
      <use xlink:href="#DejaVuSans-45" x="396.394531"/>
      <use xlink:href="#DejaVuSans-4c" x="459.578125"/>
      <use xlink:href="#DejaVuSans-41" x="517.541016"/>
      <use xlink:href="#DejaVuSans-59" x="578.199219"/>
      <use xlink:href="#DejaVuSans-2d" x="627.408203"/>
      <use xlink:href="#DejaVuSans-31" x="663.492188"/>
      <use xlink:href="#DejaVuSans-30" x="727.115234"/>
     </g>
    </g>
   </g>
  </g>
 </g>
 <defs>
  <clipPath id="p2f18f2f34d">
   <rect x="67.86" y="12.96" width="379.98" height="281.7"/>
  </clipPath>
 </defs>
</svg>
