<?xml version="1.0" encoding="utf-8" standalone="no"?>
<!DOCTYPE svg PUBLIC "-//W3C//DTD SVG 1.1//EN"
  "http://www.w3.org/Graphics/SVG/1.1/DTD/svg11.dtd">
<svg xmlns:xlink="http://www.w3.org/1999/xlink" width="460.8pt" height="345.6pt" viewBox="0 0 460.8 345.6" xmlns="http://www.w3.org/2000/svg" version="1.1">
 <metadata>
  <rdf:RDF xmlns:dc="http://purl.org/dc/elements/1.1/" xmlns:cc="http://creativecommons.org/ns#" xmlns:rdf="http://www.w3.org/1999/02/22-rdf-syntax-ns#">
   <cc:Work>
    <dc:type rdf:resource="http://purl.org/dc/dcmitype/StillImage"/>
    <dc:date>2022-09-10T15:51:42.167800</dc:date>
    <dc:format>image/svg+xml</dc:format>
    <dc:creator>
     <cc:Agent>
      <dc:title>Matplotlib v3.5.3, https://matplotlib.org/</dc:title>
     </cc:Agent>
    </dc:creator>
   </cc:Work>
  </rdf:RDF>
 </metadata>
 <defs>
  <style type="text/css">*{stroke-linejoin: round; stroke-linecap: butt}</style>
 </defs>
 <g id="figure_1">
  <g id="patch_1">
   <path d="M 0 345.6 
L 460.8 345.6 
L 460.8 0 
L 0 0 
z
" style="fill: #ffffff"/>
  </g>
  <g id="axes_1">
   <g id="patch_2">
    <path d="M 67.95 294.66 
L 447.84 294.66 
L 447.84 29.76 
L 67.95 29.76 
z
" style="fill: #eaeaf2"/>
   </g>
   <g id="matplotlib.axis_1">
    <g id="xtick_1">
     <g id="line2d_1">
      <path d="M 82.315588 294.66 
L 82.315588 29.76 
" clip-path="url(#pf4f767b9a2)" style="fill: none; stroke: #ffffff; stroke-linecap: round"/>
     </g>
     <g id="text_1">
      <!-- 0.00 -->
      <g style="fill: #262626" transform="translate(70.069494 312.518281)scale(0.11 -0.11)">
       <defs>
        <path id="DejaVuSans-30" d="M 2034 4250 
Q 1547 4250 1301 3770 
Q 1056 3291 1056 2328 
Q 1056 1369 1301 889 
Q 1547 409 2034 409 
Q 2525 409 2770 889 
Q 3016 1369 3016 2328 
Q 3016 3291 2770 3770 
Q 2525 4250 2034 4250 
z
M 2034 4750 
Q 2819 4750 3233 4129 
Q 3647 3509 3647 2328 
Q 3647 1150 3233 529 
Q 2819 -91 2034 -91 
Q 1250 -91 836 529 
Q 422 1150 422 2328 
Q 422 3509 836 4129 
Q 1250 4750 2034 4750 
z
" transform="scale(0.015625)"/>
        <path id="DejaVuSans-2e" d="M 684 794 
L 1344 794 
L 1344 0 
L 684 0 
L 684 794 
z
" transform="scale(0.015625)"/>
       </defs>
       <use xlink:href="#DejaVuSans-30"/>
       <use xlink:href="#DejaVuSans-2e" x="63.623047"/>
       <use xlink:href="#DejaVuSans-30" x="95.410156"/>
       <use xlink:href="#DejaVuSans-30" x="159.033203"/>
      </g>
     </g>
    </g>
    <g id="xtick_2">
     <g id="line2d_2">
      <path d="M 140.358369 294.66 
L 140.358369 29.76 
" clip-path="url(#pf4f767b9a2)" style="fill: none; stroke: #ffffff; stroke-linecap: round"/>
     </g>
     <g id="text_2">
      <!-- 0.05 -->
      <g style="fill: #262626" transform="translate(128.112275 312.518281)scale(0.11 -0.11)">
       <defs>
        <path id="DejaVuSans-35" d="M 691 4666 
L 3169 4666 
L 3169 4134 
L 1269 4134 
L 1269 2991 
Q 1406 3038 1543 3061 
Q 1681 3084 1819 3084 
Q 2600 3084 3056 2656 
Q 3513 2228 3513 1497 
Q 3513 744 3044 326 
Q 2575 -91 1722 -91 
Q 1428 -91 1123 -41 
Q 819 9 494 109 
L 494 744 
Q 775 591 1075 516 
Q 1375 441 1709 441 
Q 2250 441 2565 725 
Q 2881 1009 2881 1497 
Q 2881 1984 2565 2268 
Q 2250 2553 1709 2553 
Q 1456 2553 1204 2497 
Q 953 2441 691 2322 
L 691 4666 
z
" transform="scale(0.015625)"/>
       </defs>
       <use xlink:href="#DejaVuSans-30"/>
       <use xlink:href="#DejaVuSans-2e" x="63.623047"/>
       <use xlink:href="#DejaVuSans-30" x="95.410156"/>
       <use xlink:href="#DejaVuSans-35" x="159.033203"/>
      </g>
     </g>
    </g>
    <g id="xtick_3">
     <g id="line2d_3">
      <path d="M 198.40115 294.66 
L 198.40115 29.76 
" clip-path="url(#pf4f767b9a2)" style="fill: none; stroke: #ffffff; stroke-linecap: round"/>
     </g>
     <g id="text_3">
      <!-- 0.10 -->
      <g style="fill: #262626" transform="translate(186.155056 312.518281)scale(0.11 -0.11)">
       <defs>
        <path id="DejaVuSans-31" d="M 794 531 
L 1825 531 
L 1825 4091 
L 703 3866 
L 703 4441 
L 1819 4666 
L 2450 4666 
L 2450 531 
L 3481 531 
L 3481 0 
L 794 0 
L 794 531 
z
" transform="scale(0.015625)"/>
       </defs>
       <use xlink:href="#DejaVuSans-30"/>
       <use xlink:href="#DejaVuSans-2e" x="63.623047"/>
       <use xlink:href="#DejaVuSans-31" x="95.410156"/>
       <use xlink:href="#DejaVuSans-30" x="159.033203"/>
      </g>
     </g>
    </g>
    <g id="xtick_4">
     <g id="line2d_4">
      <path d="M 256.44393 294.66 
L 256.44393 29.76 
" clip-path="url(#pf4f767b9a2)" style="fill: none; stroke: #ffffff; stroke-linecap: round"/>
     </g>
     <g id="text_4">
      <!-- 0.15 -->
      <g style="fill: #262626" transform="translate(244.197837 312.518281)scale(0.11 -0.11)">
       <use xlink:href="#DejaVuSans-30"/>
       <use xlink:href="#DejaVuSans-2e" x="63.623047"/>
       <use xlink:href="#DejaVuSans-31" x="95.410156"/>
       <use xlink:href="#DejaVuSans-35" x="159.033203"/>
      </g>
     </g>
    </g>
    <g id="xtick_5">
     <g id="line2d_5">
      <path d="M 314.486711 294.66 
L 314.486711 29.76 
" clip-path="url(#pf4f767b9a2)" style="fill: none; stroke: #ffffff; stroke-linecap: round"/>
     </g>
     <g id="text_5">
      <!-- 0.20 -->
      <g style="fill: #262626" transform="translate(302.240617 312.518281)scale(0.11 -0.11)">
       <defs>
        <path id="DejaVuSans-32" d="M 1228 531 
L 3431 531 
L 3431 0 
L 469 0 
L 469 531 
Q 828 903 1448 1529 
Q 2069 2156 2228 2338 
Q 2531 2678 2651 2914 
Q 2772 3150 2772 3378 
Q 2772 3750 2511 3984 
Q 2250 4219 1831 4219 
Q 1534 4219 1204 4116 
Q 875 4013 500 3803 
L 500 4441 
Q 881 4594 1212 4672 
Q 1544 4750 1819 4750 
Q 2544 4750 2975 4387 
Q 3406 4025 3406 3419 
Q 3406 3131 3298 2873 
Q 3191 2616 2906 2266 
Q 2828 2175 2409 1742 
Q 1991 1309 1228 531 
z
" transform="scale(0.015625)"/>
       </defs>
       <use xlink:href="#DejaVuSans-30"/>
       <use xlink:href="#DejaVuSans-2e" x="63.623047"/>
       <use xlink:href="#DejaVuSans-32" x="95.410156"/>
       <use xlink:href="#DejaVuSans-30" x="159.033203"/>
      </g>
     </g>
    </g>
    <g id="xtick_6">
     <g id="line2d_6">
      <path d="M 372.529492 294.66 
L 372.529492 29.76 
" clip-path="url(#pf4f767b9a2)" style="fill: none; stroke: #ffffff; stroke-linecap: round"/>
     </g>
     <g id="text_6">
      <!-- 0.25 -->
      <g style="fill: #262626" transform="translate(360.283398 312.518281)scale(0.11 -0.11)">
       <use xlink:href="#DejaVuSans-30"/>
       <use xlink:href="#DejaVuSans-2e" x="63.623047"/>
       <use xlink:href="#DejaVuSans-32" x="95.410156"/>
       <use xlink:href="#DejaVuSans-35" x="159.033203"/>
      </g>
     </g>
    </g>
    <g id="xtick_7">
     <g id="line2d_7">
      <path d="M 430.572273 294.66 
L 430.572273 29.76 
" clip-path="url(#pf4f767b9a2)" style="fill: none; stroke: #ffffff; stroke-linecap: round"/>
     </g>
     <g id="text_7">
      <!-- 0.30 -->
      <g style="fill: #262626" transform="translate(418.326179 312.518281)scale(0.11 -0.11)">
       <defs>
        <path id="DejaVuSans-33" d="M 2597 2516 
Q 3050 2419 3304 2112 
Q 3559 1806 3559 1356 
Q 3559 666 3084 287 
Q 2609 -91 1734 -91 
Q 1441 -91 1130 -33 
Q 819 25 488 141 
L 488 750 
Q 750 597 1062 519 
Q 1375 441 1716 441 
Q 2309 441 2620 675 
Q 2931 909 2931 1356 
Q 2931 1769 2642 2001 
Q 2353 2234 1838 2234 
L 1294 2234 
L 1294 2753 
L 1863 2753 
Q 2328 2753 2575 2939 
Q 2822 3125 2822 3475 
Q 2822 3834 2567 4026 
Q 2313 4219 1838 4219 
Q 1578 4219 1281 4162 
Q 984 4106 628 3988 
L 628 4550 
Q 988 4650 1302 4700 
Q 1616 4750 1894 4750 
Q 2613 4750 3031 4423 
Q 3450 4097 3450 3541 
Q 3450 3153 3228 2886 
Q 3006 2619 2597 2516 
z
" transform="scale(0.015625)"/>
       </defs>
       <use xlink:href="#DejaVuSans-30"/>
       <use xlink:href="#DejaVuSans-2e" x="63.623047"/>
       <use xlink:href="#DejaVuSans-33" x="95.410156"/>
       <use xlink:href="#DejaVuSans-30" x="159.033203"/>
      </g>
     </g>
    </g>
    <g id="text_8">
     <!-- Timesteps (in Million) -->
     <g style="fill: #262626" transform="translate(183.149219 329.44375)scale(0.14 -0.14)">
      <defs>
       <path id="DejaVuSans-54" d="M -19 4666 
L 3928 4666 
L 3928 4134 
L 2272 4134 
L 2272 0 
L 1638 0 
L 1638 4134 
L -19 4134 
L -19 4666 
z
" transform="scale(0.015625)"/>
       <path id="DejaVuSans-69" d="M 603 3500 
L 1178 3500 
L 1178 0 
L 603 0 
L 603 3500 
z
M 603 4863 
L 1178 4863 
L 1178 4134 
L 603 4134 
L 603 4863 
z
" transform="scale(0.015625)"/>
       <path id="DejaVuSans-6d" d="M 3328 2828 
Q 3544 3216 3844 3400 
Q 4144 3584 4550 3584 
Q 5097 3584 5394 3201 
Q 5691 2819 5691 2113 
L 5691 0 
L 5113 0 
L 5113 2094 
Q 5113 2597 4934 2840 
Q 4756 3084 4391 3084 
Q 3944 3084 3684 2787 
Q 3425 2491 3425 1978 
L 3425 0 
L 2847 0 
L 2847 2094 
Q 2847 2600 2669 2842 
Q 2491 3084 2119 3084 
Q 1678 3084 1418 2786 
Q 1159 2488 1159 1978 
L 1159 0 
L 581 0 
L 581 3500 
L 1159 3500 
L 1159 2956 
Q 1356 3278 1631 3431 
Q 1906 3584 2284 3584 
Q 2666 3584 2933 3390 
Q 3200 3197 3328 2828 
z
" transform="scale(0.015625)"/>
       <path id="DejaVuSans-65" d="M 3597 1894 
L 3597 1613 
L 953 1613 
Q 991 1019 1311 708 
Q 1631 397 2203 397 
Q 2534 397 2845 478 
Q 3156 559 3463 722 
L 3463 178 
Q 3153 47 2828 -22 
Q 2503 -91 2169 -91 
Q 1331 -91 842 396 
Q 353 884 353 1716 
Q 353 2575 817 3079 
Q 1281 3584 2069 3584 
Q 2775 3584 3186 3129 
Q 3597 2675 3597 1894 
z
M 3022 2063 
Q 3016 2534 2758 2815 
Q 2500 3097 2075 3097 
Q 1594 3097 1305 2825 
Q 1016 2553 972 2059 
L 3022 2063 
z
" transform="scale(0.015625)"/>
       <path id="DejaVuSans-73" d="M 2834 3397 
L 2834 2853 
Q 2591 2978 2328 3040 
Q 2066 3103 1784 3103 
Q 1356 3103 1142 2972 
Q 928 2841 928 2578 
Q 928 2378 1081 2264 
Q 1234 2150 1697 2047 
L 1894 2003 
Q 2506 1872 2764 1633 
Q 3022 1394 3022 966 
Q 3022 478 2636 193 
Q 2250 -91 1575 -91 
Q 1294 -91 989 -36 
Q 684 19 347 128 
L 347 722 
Q 666 556 975 473 
Q 1284 391 1588 391 
Q 1994 391 2212 530 
Q 2431 669 2431 922 
Q 2431 1156 2273 1281 
Q 2116 1406 1581 1522 
L 1381 1569 
Q 847 1681 609 1914 
Q 372 2147 372 2553 
Q 372 3047 722 3315 
Q 1072 3584 1716 3584 
Q 2034 3584 2315 3537 
Q 2597 3491 2834 3397 
z
" transform="scale(0.015625)"/>
       <path id="DejaVuSans-74" d="M 1172 4494 
L 1172 3500 
L 2356 3500 
L 2356 3053 
L 1172 3053 
L 1172 1153 
Q 1172 725 1289 603 
Q 1406 481 1766 481 
L 2356 481 
L 2356 0 
L 1766 0 
Q 1100 0 847 248 
Q 594 497 594 1153 
L 594 3053 
L 172 3053 
L 172 3500 
L 594 3500 
L 594 4494 
L 1172 4494 
z
" transform="scale(0.015625)"/>
       <path id="DejaVuSans-70" d="M 1159 525 
L 1159 -1331 
L 581 -1331 
L 581 3500 
L 1159 3500 
L 1159 2969 
Q 1341 3281 1617 3432 
Q 1894 3584 2278 3584 
Q 2916 3584 3314 3078 
Q 3713 2572 3713 1747 
Q 3713 922 3314 415 
Q 2916 -91 2278 -91 
Q 1894 -91 1617 61 
Q 1341 213 1159 525 
z
M 3116 1747 
Q 3116 2381 2855 2742 
Q 2594 3103 2138 3103 
Q 1681 3103 1420 2742 
Q 1159 2381 1159 1747 
Q 1159 1113 1420 752 
Q 1681 391 2138 391 
Q 2594 391 2855 752 
Q 3116 1113 3116 1747 
z
" transform="scale(0.015625)"/>
       <path id="DejaVuSans-20" transform="scale(0.015625)"/>
       <path id="DejaVuSans-28" d="M 1984 4856 
Q 1566 4138 1362 3434 
Q 1159 2731 1159 2009 
Q 1159 1288 1364 580 
Q 1569 -128 1984 -844 
L 1484 -844 
Q 1016 -109 783 600 
Q 550 1309 550 2009 
Q 550 2706 781 3412 
Q 1013 4119 1484 4856 
L 1984 4856 
z
" transform="scale(0.015625)"/>
       <path id="DejaVuSans-6e" d="M 3513 2113 
L 3513 0 
L 2938 0 
L 2938 2094 
Q 2938 2591 2744 2837 
Q 2550 3084 2163 3084 
Q 1697 3084 1428 2787 
Q 1159 2491 1159 1978 
L 1159 0 
L 581 0 
L 581 3500 
L 1159 3500 
L 1159 2956 
Q 1366 3272 1645 3428 
Q 1925 3584 2291 3584 
Q 2894 3584 3203 3211 
Q 3513 2838 3513 2113 
z
" transform="scale(0.015625)"/>
       <path id="DejaVuSans-4d" d="M 628 4666 
L 1569 4666 
L 2759 1491 
L 3956 4666 
L 4897 4666 
L 4897 0 
L 4281 0 
L 4281 4097 
L 3078 897 
L 2444 897 
L 1241 4097 
L 1241 0 
L 628 0 
L 628 4666 
z
" transform="scale(0.015625)"/>
       <path id="DejaVuSans-6c" d="M 603 4863 
L 1178 4863 
L 1178 0 
L 603 0 
L 603 4863 
z
" transform="scale(0.015625)"/>
       <path id="DejaVuSans-6f" d="M 1959 3097 
Q 1497 3097 1228 2736 
Q 959 2375 959 1747 
Q 959 1119 1226 758 
Q 1494 397 1959 397 
Q 2419 397 2687 759 
Q 2956 1122 2956 1747 
Q 2956 2369 2687 2733 
Q 2419 3097 1959 3097 
z
M 1959 3584 
Q 2709 3584 3137 3096 
Q 3566 2609 3566 1747 
Q 3566 888 3137 398 
Q 2709 -91 1959 -91 
Q 1206 -91 779 398 
Q 353 888 353 1747 
Q 353 2609 779 3096 
Q 1206 3584 1959 3584 
z
" transform="scale(0.015625)"/>
       <path id="DejaVuSans-29" d="M 513 4856 
L 1013 4856 
Q 1481 4119 1714 3412 
Q 1947 2706 1947 2009 
Q 1947 1309 1714 600 
Q 1481 -109 1013 -844 
L 513 -844 
Q 928 -128 1133 580 
Q 1338 1288 1338 2009 
Q 1338 2731 1133 3434 
Q 928 4138 513 4856 
z
" transform="scale(0.015625)"/>
      </defs>
      <use xlink:href="#DejaVuSans-54"/>
      <use xlink:href="#DejaVuSans-69" x="57.958984"/>
      <use xlink:href="#DejaVuSans-6d" x="85.742188"/>
      <use xlink:href="#DejaVuSans-65" x="183.154297"/>
      <use xlink:href="#DejaVuSans-73" x="244.677734"/>
      <use xlink:href="#DejaVuSans-74" x="296.777344"/>
      <use xlink:href="#DejaVuSans-65" x="335.986328"/>
      <use xlink:href="#DejaVuSans-70" x="397.509766"/>
      <use xlink:href="#DejaVuSans-73" x="460.986328"/>
      <use xlink:href="#DejaVuSans-20" x="513.085938"/>
      <use xlink:href="#DejaVuSans-28" x="544.873047"/>
      <use xlink:href="#DejaVuSans-69" x="583.886719"/>
      <use xlink:href="#DejaVuSans-6e" x="611.669922"/>
      <use xlink:href="#DejaVuSans-20" x="675.048828"/>
      <use xlink:href="#DejaVuSans-4d" x="706.835938"/>
      <use xlink:href="#DejaVuSans-69" x="793.115234"/>
      <use xlink:href="#DejaVuSans-6c" x="820.898438"/>
      <use xlink:href="#DejaVuSans-6c" x="848.681641"/>
      <use xlink:href="#DejaVuSans-69" x="876.464844"/>
      <use xlink:href="#DejaVuSans-6f" x="904.248047"/>
      <use xlink:href="#DejaVuSans-6e" x="965.429688"/>
      <use xlink:href="#DejaVuSans-29" x="1028.808594"/>
     </g>
    </g>
   </g>
   <g id="matplotlib.axis_2">
    <g id="ytick_1">
     <g id="line2d_8">
      <path d="M 67.95 282.619091 
L 447.84 282.619091 
" clip-path="url(#pf4f767b9a2)" style="fill: none; stroke: #ffffff; stroke-linecap: round"/>
     </g>
     <g id="text_9">
      <!-- 0 -->
      <g style="fill: #262626" transform="translate(51.45125 286.798232)scale(0.11 -0.11)">
       <use xlink:href="#DejaVuSans-30"/>
      </g>
     </g>
    </g>
    <g id="ytick_2">
     <g id="line2d_9">
      <path d="M 67.95 252.231939 
L 447.84 252.231939 
" clip-path="url(#pf4f767b9a2)" style="fill: none; stroke: #ffffff; stroke-linecap: round"/>
     </g>
     <g id="text_10">
      <!-- 200 -->
      <g style="fill: #262626" transform="translate(37.45375 256.411079)scale(0.11 -0.11)">
       <use xlink:href="#DejaVuSans-32"/>
       <use xlink:href="#DejaVuSans-30" x="63.623047"/>
       <use xlink:href="#DejaVuSans-30" x="127.246094"/>
      </g>
     </g>
    </g>
    <g id="ytick_3">
     <g id="line2d_10">
      <path d="M 67.95 221.844786 
L 447.84 221.844786 
" clip-path="url(#pf4f767b9a2)" style="fill: none; stroke: #ffffff; stroke-linecap: round"/>
     </g>
     <g id="text_11">
      <!-- 400 -->
      <g style="fill: #262626" transform="translate(37.45375 226.023927)scale(0.11 -0.11)">
       <defs>
        <path id="DejaVuSans-34" d="M 2419 4116 
L 825 1625 
L 2419 1625 
L 2419 4116 
z
M 2253 4666 
L 3047 4666 
L 3047 1625 
L 3713 1625 
L 3713 1100 
L 3047 1100 
L 3047 0 
L 2419 0 
L 2419 1100 
L 313 1100 
L 313 1709 
L 2253 4666 
z
" transform="scale(0.015625)"/>
       </defs>
       <use xlink:href="#DejaVuSans-34"/>
       <use xlink:href="#DejaVuSans-30" x="63.623047"/>
       <use xlink:href="#DejaVuSans-30" x="127.246094"/>
      </g>
     </g>
    </g>
    <g id="ytick_4">
     <g id="line2d_11">
      <path d="M 67.95 191.457634 
L 447.84 191.457634 
" clip-path="url(#pf4f767b9a2)" style="fill: none; stroke: #ffffff; stroke-linecap: round"/>
     </g>
     <g id="text_12">
      <!-- 600 -->
      <g style="fill: #262626" transform="translate(37.45375 195.636775)scale(0.11 -0.11)">
       <defs>
        <path id="DejaVuSans-36" d="M 2113 2584 
Q 1688 2584 1439 2293 
Q 1191 2003 1191 1497 
Q 1191 994 1439 701 
Q 1688 409 2113 409 
Q 2538 409 2786 701 
Q 3034 994 3034 1497 
Q 3034 2003 2786 2293 
Q 2538 2584 2113 2584 
z
M 3366 4563 
L 3366 3988 
Q 3128 4100 2886 4159 
Q 2644 4219 2406 4219 
Q 1781 4219 1451 3797 
Q 1122 3375 1075 2522 
Q 1259 2794 1537 2939 
Q 1816 3084 2150 3084 
Q 2853 3084 3261 2657 
Q 3669 2231 3669 1497 
Q 3669 778 3244 343 
Q 2819 -91 2113 -91 
Q 1303 -91 875 529 
Q 447 1150 447 2328 
Q 447 3434 972 4092 
Q 1497 4750 2381 4750 
Q 2619 4750 2861 4703 
Q 3103 4656 3366 4563 
z
" transform="scale(0.015625)"/>
       </defs>
       <use xlink:href="#DejaVuSans-36"/>
       <use xlink:href="#DejaVuSans-30" x="63.623047"/>
       <use xlink:href="#DejaVuSans-30" x="127.246094"/>
      </g>
     </g>
    </g>
    <g id="ytick_5">
     <g id="line2d_12">
      <path d="M 67.95 161.070482 
L 447.84 161.070482 
" clip-path="url(#pf4f767b9a2)" style="fill: none; stroke: #ffffff; stroke-linecap: round"/>
     </g>
     <g id="text_13">
      <!-- 800 -->
      <g style="fill: #262626" transform="translate(37.45375 165.249622)scale(0.11 -0.11)">
       <defs>
        <path id="DejaVuSans-38" d="M 2034 2216 
Q 1584 2216 1326 1975 
Q 1069 1734 1069 1313 
Q 1069 891 1326 650 
Q 1584 409 2034 409 
Q 2484 409 2743 651 
Q 3003 894 3003 1313 
Q 3003 1734 2745 1975 
Q 2488 2216 2034 2216 
z
M 1403 2484 
Q 997 2584 770 2862 
Q 544 3141 544 3541 
Q 544 4100 942 4425 
Q 1341 4750 2034 4750 
Q 2731 4750 3128 4425 
Q 3525 4100 3525 3541 
Q 3525 3141 3298 2862 
Q 3072 2584 2669 2484 
Q 3125 2378 3379 2068 
Q 3634 1759 3634 1313 
Q 3634 634 3220 271 
Q 2806 -91 2034 -91 
Q 1263 -91 848 271 
Q 434 634 434 1313 
Q 434 1759 690 2068 
Q 947 2378 1403 2484 
z
M 1172 3481 
Q 1172 3119 1398 2916 
Q 1625 2713 2034 2713 
Q 2441 2713 2670 2916 
Q 2900 3119 2900 3481 
Q 2900 3844 2670 4047 
Q 2441 4250 2034 4250 
Q 1625 4250 1398 4047 
Q 1172 3844 1172 3481 
z
" transform="scale(0.015625)"/>
       </defs>
       <use xlink:href="#DejaVuSans-38"/>
       <use xlink:href="#DejaVuSans-30" x="63.623047"/>
       <use xlink:href="#DejaVuSans-30" x="127.246094"/>
      </g>
     </g>
    </g>
    <g id="ytick_6">
     <g id="line2d_13">
      <path d="M 67.95 130.68333 
L 447.84 130.68333 
" clip-path="url(#pf4f767b9a2)" style="fill: none; stroke: #ffffff; stroke-linecap: round"/>
     </g>
     <g id="text_14">
      <!-- 1000 -->
      <g style="fill: #262626" transform="translate(30.455 134.86247)scale(0.11 -0.11)">
       <use xlink:href="#DejaVuSans-31"/>
       <use xlink:href="#DejaVuSans-30" x="63.623047"/>
       <use xlink:href="#DejaVuSans-30" x="127.246094"/>
       <use xlink:href="#DejaVuSans-30" x="190.869141"/>
      </g>
     </g>
    </g>
    <g id="ytick_7">
     <g id="line2d_14">
      <path d="M 67.95 100.296177 
L 447.84 100.296177 
" clip-path="url(#pf4f767b9a2)" style="fill: none; stroke: #ffffff; stroke-linecap: round"/>
     </g>
     <g id="text_15">
      <!-- 1200 -->
      <g style="fill: #262626" transform="translate(30.455 104.475318)scale(0.11 -0.11)">
       <use xlink:href="#DejaVuSans-31"/>
       <use xlink:href="#DejaVuSans-32" x="63.623047"/>
       <use xlink:href="#DejaVuSans-30" x="127.246094"/>
       <use xlink:href="#DejaVuSans-30" x="190.869141"/>
      </g>
     </g>
    </g>
    <g id="ytick_8">
     <g id="line2d_15">
      <path d="M 67.95 69.909025 
L 447.84 69.909025 
" clip-path="url(#pf4f767b9a2)" style="fill: none; stroke: #ffffff; stroke-linecap: round"/>
     </g>
     <g id="text_16">
      <!-- 1400 -->
      <g style="fill: #262626" transform="translate(30.455 74.088166)scale(0.11 -0.11)">
       <use xlink:href="#DejaVuSans-31"/>
       <use xlink:href="#DejaVuSans-34" x="63.623047"/>
       <use xlink:href="#DejaVuSans-30" x="127.246094"/>
       <use xlink:href="#DejaVuSans-30" x="190.869141"/>
      </g>
     </g>
    </g>
    <g id="ytick_9">
     <g id="line2d_16">
      <path d="M 67.95 39.521873 
L 447.84 39.521873 
" clip-path="url(#pf4f767b9a2)" style="fill: none; stroke: #ffffff; stroke-linecap: round"/>
     </g>
     <g id="text_17">
      <!-- 1600 -->
      <g style="fill: #262626" transform="translate(30.455 43.701013)scale(0.11 -0.11)">
       <use xlink:href="#DejaVuSans-31"/>
       <use xlink:href="#DejaVuSans-36" x="63.623047"/>
       <use xlink:href="#DejaVuSans-30" x="127.246094"/>
       <use xlink:href="#DejaVuSans-30" x="190.869141"/>
      </g>
     </g>
    </g>
    <g id="text_18">
     <!-- # Highs (Δx &gt; 20) -->
     <g style="fill: #262626" transform="translate(23.543437 225.877187)rotate(-90)scale(0.14 -0.14)">
      <defs>
       <path id="DejaVuSans-23" d="M 3272 2816 
L 2363 2816 
L 2100 1772 
L 3016 1772 
L 3272 2816 
z
M 2803 4594 
L 2478 3297 
L 3391 3297 
L 3719 4594 
L 4219 4594 
L 3897 3297 
L 4872 3297 
L 4872 2816 
L 3775 2816 
L 3519 1772 
L 4513 1772 
L 4513 1294 
L 3397 1294 
L 3072 0 
L 2572 0 
L 2894 1294 
L 1978 1294 
L 1656 0 
L 1153 0 
L 1478 1294 
L 494 1294 
L 494 1772 
L 1594 1772 
L 1856 2816 
L 850 2816 
L 850 3297 
L 1978 3297 
L 2297 4594 
L 2803 4594 
z
" transform="scale(0.015625)"/>
       <path id="DejaVuSans-48" d="M 628 4666 
L 1259 4666 
L 1259 2753 
L 3553 2753 
L 3553 4666 
L 4184 4666 
L 4184 0 
L 3553 0 
L 3553 2222 
L 1259 2222 
L 1259 0 
L 628 0 
L 628 4666 
z
" transform="scale(0.015625)"/>
       <path id="DejaVuSans-67" d="M 2906 1791 
Q 2906 2416 2648 2759 
Q 2391 3103 1925 3103 
Q 1463 3103 1205 2759 
Q 947 2416 947 1791 
Q 947 1169 1205 825 
Q 1463 481 1925 481 
Q 2391 481 2648 825 
Q 2906 1169 2906 1791 
z
M 3481 434 
Q 3481 -459 3084 -895 
Q 2688 -1331 1869 -1331 
Q 1566 -1331 1297 -1286 
Q 1028 -1241 775 -1147 
L 775 -588 
Q 1028 -725 1275 -790 
Q 1522 -856 1778 -856 
Q 2344 -856 2625 -561 
Q 2906 -266 2906 331 
L 2906 616 
Q 2728 306 2450 153 
Q 2172 0 1784 0 
Q 1141 0 747 490 
Q 353 981 353 1791 
Q 353 2603 747 3093 
Q 1141 3584 1784 3584 
Q 2172 3584 2450 3431 
Q 2728 3278 2906 2969 
L 2906 3500 
L 3481 3500 
L 3481 434 
z
" transform="scale(0.015625)"/>
       <path id="DejaVuSans-68" d="M 3513 2113 
L 3513 0 
L 2938 0 
L 2938 2094 
Q 2938 2591 2744 2837 
Q 2550 3084 2163 3084 
Q 1697 3084 1428 2787 
Q 1159 2491 1159 1978 
L 1159 0 
L 581 0 
L 581 4863 
L 1159 4863 
L 1159 2956 
Q 1366 3272 1645 3428 
Q 1925 3584 2291 3584 
Q 2894 3584 3203 3211 
Q 3513 2838 3513 2113 
z
" transform="scale(0.015625)"/>
       <path id="DejaVuSans-394" d="M 2188 4044 
L 906 525 
L 3472 525 
L 2188 4044 
z
M 50 0 
L 1831 4666 
L 2547 4666 
L 4325 0 
L 50 0 
z
" transform="scale(0.015625)"/>
       <path id="DejaVuSans-78" d="M 3513 3500 
L 2247 1797 
L 3578 0 
L 2900 0 
L 1881 1375 
L 863 0 
L 184 0 
L 1544 1831 
L 300 3500 
L 978 3500 
L 1906 2253 
L 2834 3500 
L 3513 3500 
z
" transform="scale(0.015625)"/>
       <path id="DejaVuSans-3e" d="M 678 3150 
L 678 3719 
L 4684 2266 
L 4684 1747 
L 678 294 
L 678 863 
L 3897 2003 
L 678 3150 
z
" transform="scale(0.015625)"/>
      </defs>
      <use xlink:href="#DejaVuSans-23"/>
      <use xlink:href="#DejaVuSans-20" x="83.789062"/>
      <use xlink:href="#DejaVuSans-48" x="115.576172"/>
      <use xlink:href="#DejaVuSans-69" x="190.771484"/>
      <use xlink:href="#DejaVuSans-67" x="218.554688"/>
      <use xlink:href="#DejaVuSans-68" x="282.03125"/>
      <use xlink:href="#DejaVuSans-73" x="345.410156"/>
      <use xlink:href="#DejaVuSans-20" x="397.509766"/>
      <use xlink:href="#DejaVuSans-28" x="429.296875"/>
      <use xlink:href="#DejaVuSans-394" x="468.310547"/>
      <use xlink:href="#DejaVuSans-78" x="536.71875"/>
      <use xlink:href="#DejaVuSans-20" x="595.898438"/>
      <use xlink:href="#DejaVuSans-3e" x="627.685547"/>
      <use xlink:href="#DejaVuSans-20" x="711.474609"/>
      <use xlink:href="#DejaVuSans-32" x="743.261719"/>
      <use xlink:href="#DejaVuSans-30" x="806.884766"/>
      <use xlink:href="#DejaVuSans-29" x="870.507812"/>
     </g>
    </g>
   </g>
   <g id="PolyCollection_1">
    <defs>
     <path id="m2fb1ca8ea8" d="M 85.217727 -185.410746 
L 85.217727 -228.621276 
L 88.119866 -255.270809 
L 91.022005 -249.588411 
L 93.924144 -245.638081 
L 96.826283 -222.331136 
L 99.728422 -95.130516 
L 102.630561 -106.525698 
L 105.532701 -107.133441 
L 108.43484 -101.724528 
L 111.336979 -117.951268 
L 114.239118 -103.061563 
L 117.141257 -112.633516 
L 120.043396 -105.857181 
L 122.945535 -107.771572 
L 125.847674 -101.329495 
L 128.749813 -92.274124 
L 131.651952 -64.166008 
L 134.554091 -63.406329 
L 137.45623 -80.970103 
L 140.358369 -79.238036 
L 143.260508 -71.39815 
L 146.162647 -63.345555 
L 149.064786 -63.375942 
L 151.966925 -67.295885 
L 154.869064 -77.384419 
L 157.771203 -63.345555 
L 160.673342 -63.436716 
L 163.575481 -63.406329 
L 166.47762 -63.497491 
L 169.379759 -63.436716 
L 172.281898 -63.436716 
L 175.184037 -63.436716 
L 178.086176 -63.527878 
L 180.988316 -64.409105 
L 183.890455 -70.152277 
L 186.792594 -63.436716 
L 189.694733 -63.436716 
L 192.596872 -63.375942 
L 195.499011 -63.467104 
L 198.40115 -63.467104 
L 201.303289 -63.375942 
L 204.205428 -63.558265 
L 207.107567 -63.467104 
L 210.009706 -63.467104 
L 212.911845 -63.527878 
L 215.813984 -63.497491 
L 218.716123 -63.497491 
L 221.618262 -63.406329 
L 224.520401 -63.436716 
L 227.42254 -63.436716 
L 230.324679 -63.467104 
L 233.226818 -63.406329 
L 236.128957 -63.558265 
L 239.031096 -63.436716 
L 241.933235 -63.436716 
L 244.835374 -63.467104 
L 247.737513 -63.467104 
L 250.639652 -63.467104 
L 253.541791 -63.527878 
L 256.44393 -63.467104 
L 259.34607 -63.497491 
L 262.248209 -63.406329 
L 265.150348 -63.497491 
L 268.052487 -63.467104 
L 270.954626 -63.436716 
L 273.856765 -63.497491 
L 276.758904 -63.436716 
L 279.661043 -63.467104 
L 282.563182 -63.467104 
L 285.465321 -63.527878 
L 288.36746 -63.497491 
L 291.269599 -63.436716 
L 294.171738 -63.497491 
L 297.073877 -63.527878 
L 299.976016 -63.406329 
L 302.878155 -63.467104 
L 305.780294 -63.345555 
L 308.682433 -63.436716 
L 311.584572 -63.436716 
L 314.486711 -63.467104 
L 317.38885 -63.527878 
L 320.290989 -63.467104 
L 323.193128 -63.558265 
L 326.095267 -63.436716 
L 328.997406 -63.436716 
L 331.899545 -63.375942 
L 334.801684 -63.436716 
L 337.703824 -63.436716 
L 340.605963 -63.467104 
L 343.508102 -63.436716 
L 346.410241 -63.436716 
L 349.31238 -63.467104 
L 352.214519 -63.497491 
L 355.116658 -63.406329 
L 358.018797 -63.436716 
L 360.920936 -63.497491 
L 363.823075 -63.406329 
L 366.725214 -63.497491 
L 369.627353 -63.436716 
L 372.529492 -63.436716 
L 375.431631 -63.467104 
L 378.33377 -63.467104 
L 381.235909 -63.467104 
L 384.138048 -63.406329 
L 387.040187 -63.467104 
L 389.942326 -63.467104 
L 392.844465 -63.467104 
L 395.746604 -63.467104 
L 398.648743 -63.436716 
L 401.550882 -63.467104 
L 404.453021 -63.436716 
L 407.35516 -63.497491 
L 410.257299 -63.467104 
L 413.159439 -63.436716 
L 416.061578 -63.436716 
L 418.963717 -63.467104 
L 421.865856 -63.497491 
L 424.767995 -63.406329 
L 427.670134 -63.467104 
L 430.572273 -63.436716 
L 430.572273 -63.284781 
L 430.572273 -63.284781 
L 427.670134 -63.345555 
L 424.767995 -63.284781 
L 421.865856 -63.284781 
L 418.963717 -63.284781 
L 416.061578 -63.345555 
L 413.159439 -63.375942 
L 410.257299 -63.375942 
L 407.35516 -63.315168 
L 404.453021 -63.345555 
L 401.550882 -63.345555 
L 398.648743 -63.345555 
L 395.746604 -63.315168 
L 392.844465 -63.345555 
L 389.942326 -63.375942 
L 387.040187 -63.315168 
L 384.138048 -63.315168 
L 381.235909 -63.375942 
L 378.33377 -63.315168 
L 375.431631 -63.375942 
L 372.529492 -63.254393 
L 369.627353 -63.315168 
L 366.725214 -63.315168 
L 363.823075 -63.345555 
L 360.920936 -63.375942 
L 358.018797 -63.315168 
L 355.116658 -63.284781 
L 352.214519 -63.375942 
L 349.31238 -63.284781 
L 346.410241 -63.315168 
L 343.508102 -63.315168 
L 340.605963 -63.375942 
L 337.703824 -63.345555 
L 334.801684 -63.315168 
L 331.899545 -63.284781 
L 328.997406 -63.345555 
L 326.095267 -63.284781 
L 323.193128 -63.345555 
L 320.290989 -63.315168 
L 317.38885 -63.284781 
L 314.486711 -63.375942 
L 311.584572 -63.284781 
L 308.682433 -63.345555 
L 305.780294 -63.315168 
L 302.878155 -63.375942 
L 299.976016 -63.345555 
L 297.073877 -63.345555 
L 294.171738 -63.375942 
L 291.269599 -63.375942 
L 288.36746 -63.375942 
L 285.465321 -63.345555 
L 282.563182 -63.375942 
L 279.661043 -63.163232 
L 276.758904 -63.375942 
L 273.856765 -63.345555 
L 270.954626 -63.345555 
L 268.052487 -63.345555 
L 265.150348 -63.315168 
L 262.248209 -63.284781 
L 259.34607 -63.375942 
L 256.44393 -63.284781 
L 253.541791 -63.254393 
L 250.639652 -63.254393 
L 247.737513 -63.315168 
L 244.835374 -63.315168 
L 241.933235 -63.345555 
L 239.031096 -63.345555 
L 236.128957 -63.315168 
L 233.226818 -63.315168 
L 230.324679 -63.315168 
L 227.42254 -63.345555 
L 224.520401 -63.254393 
L 221.618262 -63.284781 
L 218.716123 -63.375942 
L 215.813984 -63.375942 
L 212.911845 -63.345555 
L 210.009706 -63.375942 
L 207.107567 -63.315168 
L 204.205428 -63.345555 
L 201.303289 -63.284781 
L 198.40115 -63.345555 
L 195.499011 -63.375942 
L 192.596872 -63.254393 
L 189.694733 -63.315168 
L 186.792594 -63.315168 
L 183.890455 -63.315168 
L 180.988316 -63.224006 
L 178.086176 -63.254393 
L 175.184037 -63.284781 
L 172.281898 -63.254393 
L 169.379759 -63.315168 
L 166.47762 -63.254393 
L 163.575481 -63.315168 
L 160.673342 -63.224006 
L 157.771203 -63.254393 
L 154.869064 -63.284781 
L 151.966925 -63.315168 
L 149.064786 -63.163232 
L 146.162647 -63.193619 
L 143.260508 -63.224006 
L 140.358369 -63.284781 
L 137.45623 -63.193619 
L 134.554091 -63.163232 
L 131.651952 -63.193619 
L 128.749813 -63.163232 
L 125.847674 -63.163232 
L 122.945535 -63.163232 
L 120.043396 -63.193619 
L 117.141257 -67.295885 
L 114.239118 -67.873241 
L 111.336979 -63.132845 
L 108.43484 -63.163232 
L 105.532701 -63.041683 
L 102.630561 -64.712977 
L 99.728422 -77.901001 
L 96.826283 -97.500714 
L 93.924144 -183.010161 
L 91.022005 -174.987952 
L 88.119866 -193.58489 
L 85.217727 -185.410746 
z
" style="stroke: #ffffff; stroke-opacity: 0.5"/>
    </defs>
    <g clip-path="url(#pf4f767b9a2)">
     <use xlink:href="#m2fb1ca8ea8" x="0" y="345.6" style="fill: #4c72b0; fill-opacity: 0.5; stroke: #ffffff; stroke-opacity: 0.5"/>
    </g>
   </g>
   <g id="PolyCollection_2">
    <defs>
     <path id="mf4cab839cc" d="M 85.217727 -141.835569 
L 85.217727 -250.621574 
L 88.119866 -201.394388 
L 91.022005 -303.799091 
L 93.924144 -250.925446 
L 96.826283 -236.187677 
L 99.728422 -280.097112 
L 102.630561 -205.496653 
L 105.532701 -108.713573 
L 108.43484 -191.822435 
L 111.336979 -121.931985 
L 114.239118 -126.03425 
L 117.141257 -115.702618 
L 120.043396 -93.368061 
L 122.945535 -248.64641 
L 125.847674 -84.09998 
L 128.749813 -63.740588 
L 131.651952 -89.569667 
L 134.554091 -151.711394 
L 137.45623 -65.411881 
L 140.358369 -94.12774 
L 143.260508 -71.641247 
L 146.162647 -63.588652 
L 149.064786 -63.892524 
L 151.966925 -78.174485 
L 154.869064 -122.235856 
L 157.771203 -63.740588 
L 160.673342 -63.740588 
L 163.575481 -63.740588 
L 166.47762 -63.892524 
L 169.379759 -93.519997 
L 172.281898 -63.892524 
L 175.184037 -63.892524 
L 178.086176 -63.892524 
L 180.988316 -69.514147 
L 183.890455 -63.740588 
L 186.792594 -64.196395 
L 189.694733 -64.044459 
L 192.596872 -63.740588 
L 195.499011 -64.044459 
L 198.40115 -63.740588 
L 201.303289 -64.196395 
L 204.205428 -64.044459 
L 207.107567 -64.044459 
L 210.009706 -63.740588 
L 212.911845 -63.740588 
L 215.813984 -63.892524 
L 218.716123 -63.892524 
L 221.618262 -63.740588 
L 224.520401 -63.740588 
L 227.42254 -63.740588 
L 230.324679 -63.892524 
L 233.226818 -64.500267 
L 236.128957 -63.892524 
L 239.031096 -63.588652 
L 241.933235 -63.740588 
L 244.835374 -63.892524 
L 247.737513 -63.588652 
L 250.639652 -63.588652 
L 253.541791 -63.892524 
L 256.44393 -63.740588 
L 259.34607 -63.892524 
L 262.248209 -63.588652 
L 265.150348 -63.892524 
L 268.052487 -64.044459 
L 270.954626 -64.044459 
L 273.856765 -64.044459 
L 276.758904 -63.740588 
L 279.661043 -63.740588 
L 282.563182 -63.892524 
L 285.465321 -63.740588 
L 288.36746 -63.892524 
L 291.269599 -63.892524 
L 294.171738 -63.588652 
L 297.073877 -64.044459 
L 299.976016 -64.044459 
L 302.878155 -63.892524 
L 305.780294 -63.892524 
L 308.682433 -63.740588 
L 311.584572 -63.892524 
L 314.486711 -63.740588 
L 317.38885 -63.740588 
L 320.290989 -63.892524 
L 323.193128 -63.588652 
L 326.095267 -64.044459 
L 328.997406 -63.892524 
L 331.899545 -63.740588 
L 334.801684 -64.044459 
L 337.703824 -64.044459 
L 340.605963 -64.044459 
L 343.508102 -63.740588 
L 346.410241 -63.892524 
L 349.31238 -64.196395 
L 352.214519 -63.892524 
L 355.116658 -64.044459 
L 358.018797 -63.740588 
L 360.920936 -63.740588 
L 363.823075 -63.740588 
L 366.725214 -63.740588 
L 369.627353 -63.892524 
L 372.529492 -63.740588 
L 375.431631 -63.892524 
L 378.33377 -63.740588 
L 381.235909 -63.892524 
L 384.138048 -63.740588 
L 387.040187 -63.892524 
L 389.942326 -63.892524 
L 392.844465 -63.892524 
L 395.746604 -64.196395 
L 398.648743 -63.740588 
L 401.550882 -64.044459 
L 404.453021 -63.892524 
L 407.35516 -63.892524 
L 410.257299 -64.348331 
L 413.159439 -63.892524 
L 416.061578 -64.196395 
L 418.963717 -64.348331 
L 421.865856 -63.892524 
L 424.767995 -64.044459 
L 427.670134 -63.892524 
L 430.572273 -64.044459 
L 430.572273 -63.588652 
L 430.572273 -63.588652 
L 427.670134 -63.436716 
L 424.767995 -63.284781 
L 421.865856 -63.436716 
L 418.963717 -63.436716 
L 416.061578 -63.436716 
L 413.159439 -63.436716 
L 410.257299 -63.284781 
L 407.35516 -63.588652 
L 404.453021 -63.436716 
L 401.550882 -63.588652 
L 398.648743 -63.284781 
L 395.746604 -63.436716 
L 392.844465 -63.436716 
L 389.942326 -63.436716 
L 387.040187 -63.284781 
L 384.138048 -63.436716 
L 381.235909 -63.284781 
L 378.33377 -63.436716 
L 375.431631 -63.284781 
L 372.529492 -63.588652 
L 369.627353 -63.436716 
L 366.725214 -63.284781 
L 363.823075 -63.436716 
L 360.920936 -63.436716 
L 358.018797 -63.284781 
L 355.116658 -63.588652 
L 352.214519 -63.436716 
L 349.31238 -63.588652 
L 346.410241 -63.284781 
L 343.508102 -63.588652 
L 340.605963 -63.284781 
L 337.703824 -63.436716 
L 334.801684 -63.436716 
L 331.899545 -63.284781 
L 328.997406 -63.588652 
L 326.095267 -63.436716 
L 323.193128 -63.284781 
L 320.290989 -63.436716 
L 317.38885 -63.436716 
L 314.486711 -63.132845 
L 311.584572 -63.436716 
L 308.682433 -63.588652 
L 305.780294 -63.588652 
L 302.878155 -63.436716 
L 299.976016 -63.588652 
L 297.073877 -63.436716 
L 294.171738 -63.284781 
L 291.269599 -63.436716 
L 288.36746 -63.436716 
L 285.465321 -63.436716 
L 282.563182 -63.588652 
L 279.661043 -62.980909 
L 276.758904 -63.436716 
L 273.856765 -63.436716 
L 270.954626 -63.588652 
L 268.052487 -63.436716 
L 265.150348 -63.436716 
L 262.248209 -63.436716 
L 259.34607 -63.284781 
L 256.44393 -63.436716 
L 253.541791 -63.284781 
L 250.639652 -63.436716 
L 247.737513 -63.284781 
L 244.835374 -63.436716 
L 241.933235 -63.436716 
L 239.031096 -63.436716 
L 236.128957 -63.436716 
L 233.226818 -63.436716 
L 230.324679 -63.436716 
L 227.42254 -63.436716 
L 224.520401 -63.436716 
L 221.618262 -63.284781 
L 218.716123 -63.436716 
L 215.813984 -63.588652 
L 212.911845 -63.436716 
L 210.009706 -63.588652 
L 207.107567 -63.740588 
L 204.205428 -63.588652 
L 201.303289 -63.436716 
L 198.40115 -63.436716 
L 195.499011 -63.436716 
L 192.596872 -63.284781 
L 189.694733 -63.740588 
L 186.792594 -63.588652 
L 183.890455 -63.436716 
L 180.988316 -63.436716 
L 178.086176 -63.588652 
L 175.184037 -63.436716 
L 172.281898 -63.588652 
L 169.379759 -63.588652 
L 166.47762 -63.436716 
L 163.575481 -63.436716 
L 160.673342 -63.588652 
L 157.771203 -63.436716 
L 154.869064 -63.436716 
L 151.966925 -63.436716 
L 149.064786 -63.284781 
L 146.162647 -63.284781 
L 143.260508 -63.284781 
L 140.358369 -63.436716 
L 137.45623 -63.436716 
L 134.554091 -63.132845 
L 131.651952 -63.284781 
L 128.749813 -63.284781 
L 125.847674 -63.436716 
L 122.945535 -63.284781 
L 120.043396 -63.284781 
L 117.141257 -63.436716 
L 114.239118 -63.436716 
L 111.336979 -63.284781 
L 108.43484 -63.284781 
L 105.532701 -63.284781 
L 102.630561 -134.086845 
L 99.728422 -93.975804 
L 96.826283 -129.376837 
L 93.924144 -135.150396 
L 91.022005 -152.623008 
L 88.119866 -196.228572 
L 85.217727 -141.835569 
z
" style="stroke: #ffffff; stroke-opacity: 0.5"/>
    </defs>
    <g clip-path="url(#pf4f767b9a2)">
     <use xlink:href="#mf4cab839cc" x="0" y="345.6" style="fill: #dd8452; fill-opacity: 0.5; stroke: #ffffff; stroke-opacity: 0.5"/>
    </g>
   </g>
   <g id="line2d_17">
    <path d="M 85.217727 139.513836 
L 88.119866 121.615803 
L 91.022005 135.64859 
L 93.924144 127.516988 
L 96.826283 181.32048 
L 99.728422 260.558018 
L 102.630561 267.65038 
L 105.532701 259.609939 
L 108.43484 265.632673 
L 111.336979 262.320473 
L 114.239118 261.542562 
L 117.141257 262.727661 
L 120.043396 270.385223 
L 122.945535 273.217306 
L 125.847674 274.736664 
L 128.749813 275.253245 
L 131.651952 282.151129 
L 134.554091 282.327374 
L 137.45623 275.484188 
L 140.358369 278.583677 
L 143.260508 280.686468 
L 146.162647 282.29091 
L 149.064786 282.309142 
L 151.966925 281.470457 
L 154.869064 279.42844 
L 157.771203 282.303065 
L 160.673342 282.248368 
L 163.575481 282.254445 
L 166.47762 282.230135 
L 169.379759 282.230135 
L 172.281898 282.248368 
L 175.184037 282.236213 
L 178.086176 282.230135 
L 180.988316 282.05389 
L 183.890455 280.874868 
L 186.792594 282.236213 
L 189.694733 282.224058 
L 192.596872 282.260523 
L 195.499011 282.181516 
L 198.40115 282.187593 
L 201.303289 282.248368 
L 204.205428 282.151129 
L 207.107567 282.211903 
L 210.009706 282.181516 
L 212.911845 282.169361 
L 215.813984 282.187593 
L 218.716123 282.163284 
L 221.618262 282.230135 
L 224.520401 282.260523 
L 227.42254 282.211903 
L 230.324679 282.205826 
L 233.226818 282.236213 
L 236.128957 282.175438 
L 239.031096 282.205826 
L 241.933235 282.211903 
L 244.835374 282.199748 
L 247.737513 282.205826 
L 250.639652 282.24229 
L 253.541791 282.205826 
L 256.44393 282.21798 
L 259.34607 282.175438 
L 262.248209 282.260523 
L 265.150348 282.199748 
L 268.052487 282.187593 
L 270.954626 282.205826 
L 273.856765 282.163284 
L 276.758904 282.193671 
L 279.661043 282.248368 
L 282.563182 282.193671 
L 285.465321 282.169361 
L 288.36746 282.175438 
L 291.269599 282.205826 
L 294.171738 282.157206 
L 297.073877 282.163284 
L 299.976016 282.21798 
L 302.878155 282.193671 
L 305.780294 282.272677 
L 308.682433 282.193671 
L 311.584572 282.21798 
L 314.486711 282.187593 
L 317.38885 282.211903 
L 320.290989 282.224058 
L 323.193128 282.175438 
L 326.095267 282.205826 
L 328.997406 282.199748 
L 331.899545 282.272677 
L 334.801684 282.230135 
L 337.703824 282.199748 
L 340.605963 282.181516 
L 343.508102 282.224058 
L 346.410241 282.211903 
L 349.31238 282.230135 
L 352.214519 282.181516 
L 355.116658 282.248368 
L 358.018797 282.236213 
L 360.920936 282.175438 
L 363.823075 282.230135 
L 366.725214 282.157206 
L 369.627353 282.24229 
L 372.529492 282.260523 
L 375.431631 282.175438 
L 378.33377 282.205826 
L 381.235909 282.193671 
L 384.138048 282.24229 
L 387.040187 282.224058 
L 389.942326 282.163284 
L 392.844465 282.181516 
L 395.746604 282.211903 
L 398.648743 282.205826 
L 401.550882 282.224058 
L 404.453021 282.193671 
L 407.35516 282.224058 
L 410.257299 282.193671 
L 413.159439 282.205826 
L 416.061578 282.21798 
L 418.963717 282.211903 
L 421.865856 282.181516 
L 424.767995 282.248368 
L 427.670134 282.187593 
L 430.572273 282.211903 
" clip-path="url(#pf4f767b9a2)" style="fill: none; stroke: #4c72b0; stroke-width: 3; stroke-linecap: round"/>
   </g>
   <g id="line2d_18">
    <path d="M 85.217727 145.026065 
L 88.119866 147.335489 
L 91.022005 132.050751 
L 93.924144 145.451486 
L 96.826283 142.929352 
L 99.728422 171.766759 
L 102.630561 168.302624 
L 105.532701 263.779056 
L 108.43484 256.516527 
L 111.336979 269.218357 
L 114.239118 268.792937 
L 117.141257 254.966782 
L 120.043396 276.268176 
L 122.945535 243.632375 
L 125.847674 274.748818 
L 128.749813 282.132896 
L 131.651952 274.779206 
L 134.554091 264.447574 
L 137.45623 281.646702 
L 140.358369 275.994692 
L 143.260508 280.461603 
L 146.162647 282.163284 
L 149.064786 282.011348 
L 151.966925 279.094181 
L 154.869064 270.281907 
L 157.771203 282.072122 
L 160.673342 281.950574 
L 163.575481 282.011348 
L 166.47762 281.980961 
L 169.379759 275.90353 
L 172.281898 281.859412 
L 175.184037 281.980961 
L 178.086176 281.859412 
L 180.988316 280.765475 
L 183.890455 281.980961 
L 186.792594 281.798638 
L 189.694733 281.768251 
L 192.596872 282.102509 
L 195.499011 281.889799 
L 198.40115 282.072122 
L 201.303289 281.859412 
L 204.205428 281.859412 
L 207.107567 281.798638 
L 210.009706 281.980961 
L 212.911845 281.980961 
L 215.813984 281.920186 
L 218.716123 281.889799 
L 221.618262 282.011348 
L 224.520401 282.011348 
L 227.42254 282.011348 
L 230.324679 281.980961 
L 233.226818 281.737863 
L 236.128957 281.950574 
L 239.031096 282.041735 
L 241.933235 282.041735 
L 244.835374 281.950574 
L 247.737513 282.193671 
L 250.639652 282.041735 
L 253.541791 281.950574 
L 256.44393 282.011348 
L 259.34607 281.980961 
L 262.248209 282.102509 
L 265.150348 281.920186 
L 268.052487 281.829025 
L 270.954626 281.859412 
L 273.856765 281.829025 
L 276.758904 281.980961 
L 279.661043 282.132896 
L 282.563182 281.889799 
L 285.465321 282.041735 
L 288.36746 281.889799 
L 291.269599 281.950574 
L 294.171738 282.072122 
L 297.073877 281.889799 
L 299.976016 281.889799 
L 302.878155 281.980961 
L 305.780294 281.920186 
L 308.682433 281.889799 
L 311.584572 281.980961 
L 314.486711 282.072122 
L 317.38885 281.950574 
L 320.290989 281.980961 
L 323.193128 282.132896 
L 326.095267 281.889799 
L 328.997406 281.859412 
L 331.899545 282.041735 
L 334.801684 281.859412 
L 337.703824 281.920186 
L 340.605963 281.920186 
L 343.508102 281.980961 
L 346.410241 282.072122 
L 349.31238 281.737863 
L 352.214519 281.829025 
L 355.116658 281.889799 
L 358.018797 282.072122 
L 360.920936 281.980961 
L 363.823075 281.980961 
L 366.725214 282.072122 
L 369.627353 281.920186 
L 372.529492 281.980961 
L 375.431631 282.011348 
L 378.33377 281.980961 
L 381.235909 282.041735 
L 384.138048 282.011348 
L 387.040187 282.041735 
L 389.942326 281.920186 
L 392.844465 281.889799 
L 395.746604 281.829025 
L 398.648743 282.072122 
L 401.550882 281.768251 
L 404.453021 281.950574 
L 407.35516 281.920186 
L 410.257299 281.889799 
L 413.159439 281.950574 
L 416.061578 281.798638 
L 418.963717 281.829025 
L 421.865856 281.859412 
L 424.767995 281.980961 
L 427.670134 281.980961 
L 430.572273 281.829025 
" clip-path="url(#pf4f767b9a2)" style="fill: none; stroke: #dd8452; stroke-width: 3; stroke-linecap: round"/>
   </g>
   <g id="patch_3">
    <path d="M 67.95 294.66 
L 67.95 29.76 
" style="fill: none; stroke: #ffffff; stroke-width: 1.25; stroke-linejoin: miter; stroke-linecap: square"/>
   </g>
   <g id="patch_4">
    <path d="M 447.84 294.66 
L 447.84 29.76 
" style="fill: none; stroke: #ffffff; stroke-width: 1.25; stroke-linejoin: miter; stroke-linecap: square"/>
   </g>
   <g id="patch_5">
    <path d="M 67.95 294.66 
L 447.84 294.66 
" style="fill: none; stroke: #ffffff; stroke-width: 1.25; stroke-linejoin: miter; stroke-linecap: square"/>
   </g>
   <g id="patch_6">
    <path d="M 67.95 29.76 
L 447.84 29.76 
" style="fill: none; stroke: #ffffff; stroke-width: 1.25; stroke-linejoin: miter; stroke-linecap: square"/>
   </g>
   <g id="text_19">
    <!-- zinc-coating-v0 -->
    <g style="fill: #262626" transform="translate(204.536406 23.76)scale(0.14 -0.14)">
     <defs>
      <path id="DejaVuSans-7a" d="M 353 3500 
L 3084 3500 
L 3084 2975 
L 922 459 
L 3084 459 
L 3084 0 
L 275 0 
L 275 525 
L 2438 3041 
L 353 3041 
L 353 3500 
z
" transform="scale(0.015625)"/>
      <path id="DejaVuSans-63" d="M 3122 3366 
L 3122 2828 
Q 2878 2963 2633 3030 
Q 2388 3097 2138 3097 
Q 1578 3097 1268 2742 
Q 959 2388 959 1747 
Q 959 1106 1268 751 
Q 1578 397 2138 397 
Q 2388 397 2633 464 
Q 2878 531 3122 666 
L 3122 134 
Q 2881 22 2623 -34 
Q 2366 -91 2075 -91 
Q 1284 -91 818 406 
Q 353 903 353 1747 
Q 353 2603 823 3093 
Q 1294 3584 2113 3584 
Q 2378 3584 2631 3529 
Q 2884 3475 3122 3366 
z
" transform="scale(0.015625)"/>
      <path id="DejaVuSans-2d" d="M 313 2009 
L 1997 2009 
L 1997 1497 
L 313 1497 
L 313 2009 
z
" transform="scale(0.015625)"/>
      <path id="DejaVuSans-61" d="M 2194 1759 
Q 1497 1759 1228 1600 
Q 959 1441 959 1056 
Q 959 750 1161 570 
Q 1363 391 1709 391 
Q 2188 391 2477 730 
Q 2766 1069 2766 1631 
L 2766 1759 
L 2194 1759 
z
M 3341 1997 
L 3341 0 
L 2766 0 
L 2766 531 
Q 2569 213 2275 61 
Q 1981 -91 1556 -91 
Q 1019 -91 701 211 
Q 384 513 384 1019 
Q 384 1609 779 1909 
Q 1175 2209 1959 2209 
L 2766 2209 
L 2766 2266 
Q 2766 2663 2505 2880 
Q 2244 3097 1772 3097 
Q 1472 3097 1187 3025 
Q 903 2953 641 2809 
L 641 3341 
Q 956 3463 1253 3523 
Q 1550 3584 1831 3584 
Q 2591 3584 2966 3190 
Q 3341 2797 3341 1997 
z
" transform="scale(0.015625)"/>
      <path id="DejaVuSans-76" d="M 191 3500 
L 800 3500 
L 1894 563 
L 2988 3500 
L 3597 3500 
L 2284 0 
L 1503 0 
L 191 3500 
z
" transform="scale(0.015625)"/>
     </defs>
     <use xlink:href="#DejaVuSans-7a"/>
     <use xlink:href="#DejaVuSans-69" x="52.490234"/>
     <use xlink:href="#DejaVuSans-6e" x="80.273438"/>
     <use xlink:href="#DejaVuSans-63" x="143.652344"/>
     <use xlink:href="#DejaVuSans-2d" x="198.632812"/>
     <use xlink:href="#DejaVuSans-63" x="234.716797"/>
     <use xlink:href="#DejaVuSans-6f" x="289.697266"/>
     <use xlink:href="#DejaVuSans-61" x="350.878906"/>
     <use xlink:href="#DejaVuSans-74" x="412.158203"/>
     <use xlink:href="#DejaVuSans-69" x="451.367188"/>
     <use xlink:href="#DejaVuSans-6e" x="479.150391"/>
     <use xlink:href="#DejaVuSans-67" x="542.529297"/>
     <use xlink:href="#DejaVuSans-2d" x="606.005859"/>
     <use xlink:href="#DejaVuSans-76" x="639.464844"/>
     <use xlink:href="#DejaVuSans-30" x="698.644531"/>
    </g>
   </g>
   <g id="legend_1">
    <g id="patch_7">
     <path d="M 324.957969 70.851875 
L 440.14 70.851875 
Q 442.34 70.851875 442.34 68.651875 
L 442.34 37.46 
Q 442.34 35.26 440.14 35.26 
L 324.957969 35.26 
Q 322.757969 35.26 322.757969 37.46 
L 322.757969 68.651875 
Q 322.757969 70.851875 324.957969 70.851875 
z
" style="fill: #eaeaf2; opacity: 0.8; stroke: #cccccc; stroke-linejoin: miter"/>
    </g>
    <g id="line2d_19">
     <path d="M 327.157969 44.168281 
L 338.157969 44.168281 
L 349.157969 44.168281 
" style="fill: none; stroke: #4c72b0; stroke-width: 3; stroke-linecap: round"/>
    </g>
    <g id="text_20">
     <!-- SAC-DELAY-0 -->
     <g style="fill: #262626" transform="translate(357.957969 48.018281)scale(0.11 -0.11)">
      <defs>
       <path id="DejaVuSans-53" d="M 3425 4513 
L 3425 3897 
Q 3066 4069 2747 4153 
Q 2428 4238 2131 4238 
Q 1616 4238 1336 4038 
Q 1056 3838 1056 3469 
Q 1056 3159 1242 3001 
Q 1428 2844 1947 2747 
L 2328 2669 
Q 3034 2534 3370 2195 
Q 3706 1856 3706 1288 
Q 3706 609 3251 259 
Q 2797 -91 1919 -91 
Q 1588 -91 1214 -16 
Q 841 59 441 206 
L 441 856 
Q 825 641 1194 531 
Q 1563 422 1919 422 
Q 2459 422 2753 634 
Q 3047 847 3047 1241 
Q 3047 1584 2836 1778 
Q 2625 1972 2144 2069 
L 1759 2144 
Q 1053 2284 737 2584 
Q 422 2884 422 3419 
Q 422 4038 858 4394 
Q 1294 4750 2059 4750 
Q 2388 4750 2728 4690 
Q 3069 4631 3425 4513 
z
" transform="scale(0.015625)"/>
       <path id="DejaVuSans-41" d="M 2188 4044 
L 1331 1722 
L 3047 1722 
L 2188 4044 
z
M 1831 4666 
L 2547 4666 
L 4325 0 
L 3669 0 
L 3244 1197 
L 1141 1197 
L 716 0 
L 50 0 
L 1831 4666 
z
" transform="scale(0.015625)"/>
       <path id="DejaVuSans-43" d="M 4122 4306 
L 4122 3641 
Q 3803 3938 3442 4084 
Q 3081 4231 2675 4231 
Q 1875 4231 1450 3742 
Q 1025 3253 1025 2328 
Q 1025 1406 1450 917 
Q 1875 428 2675 428 
Q 3081 428 3442 575 
Q 3803 722 4122 1019 
L 4122 359 
Q 3791 134 3420 21 
Q 3050 -91 2638 -91 
Q 1578 -91 968 557 
Q 359 1206 359 2328 
Q 359 3453 968 4101 
Q 1578 4750 2638 4750 
Q 3056 4750 3426 4639 
Q 3797 4528 4122 4306 
z
" transform="scale(0.015625)"/>
       <path id="DejaVuSans-44" d="M 1259 4147 
L 1259 519 
L 2022 519 
Q 2988 519 3436 956 
Q 3884 1394 3884 2338 
Q 3884 3275 3436 3711 
Q 2988 4147 2022 4147 
L 1259 4147 
z
M 628 4666 
L 1925 4666 
Q 3281 4666 3915 4102 
Q 4550 3538 4550 2338 
Q 4550 1131 3912 565 
Q 3275 0 1925 0 
L 628 0 
L 628 4666 
z
" transform="scale(0.015625)"/>
       <path id="DejaVuSans-45" d="M 628 4666 
L 3578 4666 
L 3578 4134 
L 1259 4134 
L 1259 2753 
L 3481 2753 
L 3481 2222 
L 1259 2222 
L 1259 531 
L 3634 531 
L 3634 0 
L 628 0 
L 628 4666 
z
" transform="scale(0.015625)"/>
       <path id="DejaVuSans-4c" d="M 628 4666 
L 1259 4666 
L 1259 531 
L 3531 531 
L 3531 0 
L 628 0 
L 628 4666 
z
" transform="scale(0.015625)"/>
       <path id="DejaVuSans-59" d="M -13 4666 
L 666 4666 
L 1959 2747 
L 3244 4666 
L 3922 4666 
L 2272 2222 
L 2272 0 
L 1638 0 
L 1638 2222 
L -13 4666 
z
" transform="scale(0.015625)"/>
      </defs>
      <use xlink:href="#DejaVuSans-53"/>
      <use xlink:href="#DejaVuSans-41" x="65.351562"/>
      <use xlink:href="#DejaVuSans-43" x="132.009766"/>
      <use xlink:href="#DejaVuSans-2d" x="201.833984"/>
      <use xlink:href="#DejaVuSans-44" x="237.917969"/>
      <use xlink:href="#DejaVuSans-45" x="314.919922"/>
      <use xlink:href="#DejaVuSans-4c" x="378.103516"/>
      <use xlink:href="#DejaVuSans-41" x="436.066406"/>
      <use xlink:href="#DejaVuSans-59" x="496.724609"/>
      <use xlink:href="#DejaVuSans-2d" x="545.933594"/>
      <use xlink:href="#DejaVuSans-30" x="582.017578"/>
     </g>
    </g>
    <g id="line2d_20">
     <path d="M 327.157969 60.314219 
L 338.157969 60.314219 
L 349.157969 60.314219 
" style="fill: none; stroke: #dd8452; stroke-width: 3; stroke-linecap: round"/>
    </g>
    <g id="text_21">
     <!-- DCAC-DELAY-1 -->
     <g style="fill: #262626" transform="translate(357.957969 64.164219)scale(0.11 -0.11)">
      <use xlink:href="#DejaVuSans-44"/>
      <use xlink:href="#DejaVuSans-43" x="77.001953"/>
      <use xlink:href="#DejaVuSans-41" x="146.826172"/>
      <use xlink:href="#DejaVuSans-43" x="213.484375"/>
      <use xlink:href="#DejaVuSans-2d" x="283.308594"/>
      <use xlink:href="#DejaVuSans-44" x="319.392578"/>
      <use xlink:href="#DejaVuSans-45" x="396.394531"/>
      <use xlink:href="#DejaVuSans-4c" x="459.578125"/>
      <use xlink:href="#DejaVuSans-41" x="517.541016"/>
      <use xlink:href="#DejaVuSans-59" x="578.199219"/>
      <use xlink:href="#DejaVuSans-2d" x="627.408203"/>
      <use xlink:href="#DejaVuSans-31" x="663.492188"/>
     </g>
    </g>
   </g>
  </g>
 </g>
 <defs>
  <clipPath id="pf4f767b9a2">
   <rect x="67.95" y="29.76" width="379.89" height="264.9"/>
  </clipPath>
 </defs>
</svg>
