<?xml version="1.0" encoding="utf-8" standalone="no"?>
<!DOCTYPE svg PUBLIC "-//W3C//DTD SVG 1.1//EN"
  "http://www.w3.org/Graphics/SVG/1.1/DTD/svg11.dtd">
<svg xmlns:xlink="http://www.w3.org/1999/xlink" width="460.8pt" height="345.6pt" viewBox="0 0 460.8 345.6" xmlns="http://www.w3.org/2000/svg" version="1.1">
 <metadata>
  <rdf:RDF xmlns:dc="http://purl.org/dc/elements/1.1/" xmlns:cc="http://creativecommons.org/ns#" xmlns:rdf="http://www.w3.org/1999/02/22-rdf-syntax-ns#">
   <cc:Work>
    <dc:type rdf:resource="http://purl.org/dc/dcmitype/StillImage"/>
    <dc:date>2022-09-10T15:51:46.725337</dc:date>
    <dc:format>image/svg+xml</dc:format>
    <dc:creator>
     <cc:Agent>
      <dc:title>Matplotlib v3.5.3, https://matplotlib.org/</dc:title>
     </cc:Agent>
    </dc:creator>
   </cc:Work>
  </rdf:RDF>
 </metadata>
 <defs>
  <style type="text/css">*{stroke-linejoin: round; stroke-linecap: butt}</style>
 </defs>
 <g id="figure_1">
  <g id="patch_1">
   <path d="M 0 345.6 
L 460.8 345.6 
L 460.8 0 
L 0 0 
z
" style="fill: #ffffff"/>
  </g>
  <g id="axes_1">
   <g id="patch_2">
    <path d="M 67.86 294.66 
L 447.84 294.66 
L 447.84 29.76 
L 67.86 29.76 
z
" style="fill: #eaeaf2"/>
   </g>
   <g id="matplotlib.axis_1">
    <g id="xtick_1">
     <g id="line2d_1">
      <path d="M 82.228992 294.66 
L 82.228992 29.76 
" clip-path="url(#pcf78617977)" style="fill: none; stroke: #ffffff; stroke-linecap: round"/>
     </g>
     <g id="text_1">
      <!-- 0.00 -->
      <g style="fill: #262626" transform="translate(69.982898 312.518281)scale(0.11 -0.11)">
       <defs>
        <path id="DejaVuSans-30" d="M 2034 4250 
Q 1547 4250 1301 3770 
Q 1056 3291 1056 2328 
Q 1056 1369 1301 889 
Q 1547 409 2034 409 
Q 2525 409 2770 889 
Q 3016 1369 3016 2328 
Q 3016 3291 2770 3770 
Q 2525 4250 2034 4250 
z
M 2034 4750 
Q 2819 4750 3233 4129 
Q 3647 3509 3647 2328 
Q 3647 1150 3233 529 
Q 2819 -91 2034 -91 
Q 1250 -91 836 529 
Q 422 1150 422 2328 
Q 422 3509 836 4129 
Q 1250 4750 2034 4750 
z
" transform="scale(0.015625)"/>
        <path id="DejaVuSans-2e" d="M 684 794 
L 1344 794 
L 1344 0 
L 684 0 
L 684 794 
z
" transform="scale(0.015625)"/>
       </defs>
       <use xlink:href="#DejaVuSans-30"/>
       <use xlink:href="#DejaVuSans-2e" x="63.623047"/>
       <use xlink:href="#DejaVuSans-30" x="95.410156"/>
       <use xlink:href="#DejaVuSans-30" x="159.033203"/>
      </g>
     </g>
    </g>
    <g id="xtick_2">
     <g id="line2d_2">
      <path d="M 140.285523 294.66 
L 140.285523 29.76 
" clip-path="url(#pcf78617977)" style="fill: none; stroke: #ffffff; stroke-linecap: round"/>
     </g>
     <g id="text_2">
      <!-- 0.05 -->
      <g style="fill: #262626" transform="translate(128.03943 312.518281)scale(0.11 -0.11)">
       <defs>
        <path id="DejaVuSans-35" d="M 691 4666 
L 3169 4666 
L 3169 4134 
L 1269 4134 
L 1269 2991 
Q 1406 3038 1543 3061 
Q 1681 3084 1819 3084 
Q 2600 3084 3056 2656 
Q 3513 2228 3513 1497 
Q 3513 744 3044 326 
Q 2575 -91 1722 -91 
Q 1428 -91 1123 -41 
Q 819 9 494 109 
L 494 744 
Q 775 591 1075 516 
Q 1375 441 1709 441 
Q 2250 441 2565 725 
Q 2881 1009 2881 1497 
Q 2881 1984 2565 2268 
Q 2250 2553 1709 2553 
Q 1456 2553 1204 2497 
Q 953 2441 691 2322 
L 691 4666 
z
" transform="scale(0.015625)"/>
       </defs>
       <use xlink:href="#DejaVuSans-30"/>
       <use xlink:href="#DejaVuSans-2e" x="63.623047"/>
       <use xlink:href="#DejaVuSans-30" x="95.410156"/>
       <use xlink:href="#DejaVuSans-35" x="159.033203"/>
      </g>
     </g>
    </g>
    <g id="xtick_3">
     <g id="line2d_3">
      <path d="M 198.342055 294.66 
L 198.342055 29.76 
" clip-path="url(#pcf78617977)" style="fill: none; stroke: #ffffff; stroke-linecap: round"/>
     </g>
     <g id="text_3">
      <!-- 0.10 -->
      <g style="fill: #262626" transform="translate(186.095961 312.518281)scale(0.11 -0.11)">
       <defs>
        <path id="DejaVuSans-31" d="M 794 531 
L 1825 531 
L 1825 4091 
L 703 3866 
L 703 4441 
L 1819 4666 
L 2450 4666 
L 2450 531 
L 3481 531 
L 3481 0 
L 794 0 
L 794 531 
z
" transform="scale(0.015625)"/>
       </defs>
       <use xlink:href="#DejaVuSans-30"/>
       <use xlink:href="#DejaVuSans-2e" x="63.623047"/>
       <use xlink:href="#DejaVuSans-31" x="95.410156"/>
       <use xlink:href="#DejaVuSans-30" x="159.033203"/>
      </g>
     </g>
    </g>
    <g id="xtick_4">
     <g id="line2d_4">
      <path d="M 256.398587 294.66 
L 256.398587 29.76 
" clip-path="url(#pcf78617977)" style="fill: none; stroke: #ffffff; stroke-linecap: round"/>
     </g>
     <g id="text_4">
      <!-- 0.15 -->
      <g style="fill: #262626" transform="translate(244.152493 312.518281)scale(0.11 -0.11)">
       <use xlink:href="#DejaVuSans-30"/>
       <use xlink:href="#DejaVuSans-2e" x="63.623047"/>
       <use xlink:href="#DejaVuSans-31" x="95.410156"/>
       <use xlink:href="#DejaVuSans-35" x="159.033203"/>
      </g>
     </g>
    </g>
    <g id="xtick_5">
     <g id="line2d_5">
      <path d="M 314.455118 294.66 
L 314.455118 29.76 
" clip-path="url(#pcf78617977)" style="fill: none; stroke: #ffffff; stroke-linecap: round"/>
     </g>
     <g id="text_5">
      <!-- 0.20 -->
      <g style="fill: #262626" transform="translate(302.209025 312.518281)scale(0.11 -0.11)">
       <defs>
        <path id="DejaVuSans-32" d="M 1228 531 
L 3431 531 
L 3431 0 
L 469 0 
L 469 531 
Q 828 903 1448 1529 
Q 2069 2156 2228 2338 
Q 2531 2678 2651 2914 
Q 2772 3150 2772 3378 
Q 2772 3750 2511 3984 
Q 2250 4219 1831 4219 
Q 1534 4219 1204 4116 
Q 875 4013 500 3803 
L 500 4441 
Q 881 4594 1212 4672 
Q 1544 4750 1819 4750 
Q 2544 4750 2975 4387 
Q 3406 4025 3406 3419 
Q 3406 3131 3298 2873 
Q 3191 2616 2906 2266 
Q 2828 2175 2409 1742 
Q 1991 1309 1228 531 
z
" transform="scale(0.015625)"/>
       </defs>
       <use xlink:href="#DejaVuSans-30"/>
       <use xlink:href="#DejaVuSans-2e" x="63.623047"/>
       <use xlink:href="#DejaVuSans-32" x="95.410156"/>
       <use xlink:href="#DejaVuSans-30" x="159.033203"/>
      </g>
     </g>
    </g>
    <g id="xtick_6">
     <g id="line2d_6">
      <path d="M 372.51165 294.66 
L 372.51165 29.76 
" clip-path="url(#pcf78617977)" style="fill: none; stroke: #ffffff; stroke-linecap: round"/>
     </g>
     <g id="text_6">
      <!-- 0.25 -->
      <g style="fill: #262626" transform="translate(360.265556 312.518281)scale(0.11 -0.11)">
       <use xlink:href="#DejaVuSans-30"/>
       <use xlink:href="#DejaVuSans-2e" x="63.623047"/>
       <use xlink:href="#DejaVuSans-32" x="95.410156"/>
       <use xlink:href="#DejaVuSans-35" x="159.033203"/>
      </g>
     </g>
    </g>
    <g id="xtick_7">
     <g id="line2d_7">
      <path d="M 430.568182 294.66 
L 430.568182 29.76 
" clip-path="url(#pcf78617977)" style="fill: none; stroke: #ffffff; stroke-linecap: round"/>
     </g>
     <g id="text_7">
      <!-- 0.30 -->
      <g style="fill: #262626" transform="translate(418.322088 312.518281)scale(0.11 -0.11)">
       <defs>
        <path id="DejaVuSans-33" d="M 2597 2516 
Q 3050 2419 3304 2112 
Q 3559 1806 3559 1356 
Q 3559 666 3084 287 
Q 2609 -91 1734 -91 
Q 1441 -91 1130 -33 
Q 819 25 488 141 
L 488 750 
Q 750 597 1062 519 
Q 1375 441 1716 441 
Q 2309 441 2620 675 
Q 2931 909 2931 1356 
Q 2931 1769 2642 2001 
Q 2353 2234 1838 2234 
L 1294 2234 
L 1294 2753 
L 1863 2753 
Q 2328 2753 2575 2939 
Q 2822 3125 2822 3475 
Q 2822 3834 2567 4026 
Q 2313 4219 1838 4219 
Q 1578 4219 1281 4162 
Q 984 4106 628 3988 
L 628 4550 
Q 988 4650 1302 4700 
Q 1616 4750 1894 4750 
Q 2613 4750 3031 4423 
Q 3450 4097 3450 3541 
Q 3450 3153 3228 2886 
Q 3006 2619 2597 2516 
z
" transform="scale(0.015625)"/>
       </defs>
       <use xlink:href="#DejaVuSans-30"/>
       <use xlink:href="#DejaVuSans-2e" x="63.623047"/>
       <use xlink:href="#DejaVuSans-33" x="95.410156"/>
       <use xlink:href="#DejaVuSans-30" x="159.033203"/>
      </g>
     </g>
    </g>
    <g id="text_8">
     <!-- Timesteps (in Million) -->
     <g style="fill: #262626" transform="translate(183.104219 329.44375)scale(0.14 -0.14)">
      <defs>
       <path id="DejaVuSans-54" d="M -19 4666 
L 3928 4666 
L 3928 4134 
L 2272 4134 
L 2272 0 
L 1638 0 
L 1638 4134 
L -19 4134 
L -19 4666 
z
" transform="scale(0.015625)"/>
       <path id="DejaVuSans-69" d="M 603 3500 
L 1178 3500 
L 1178 0 
L 603 0 
L 603 3500 
z
M 603 4863 
L 1178 4863 
L 1178 4134 
L 603 4134 
L 603 4863 
z
" transform="scale(0.015625)"/>
       <path id="DejaVuSans-6d" d="M 3328 2828 
Q 3544 3216 3844 3400 
Q 4144 3584 4550 3584 
Q 5097 3584 5394 3201 
Q 5691 2819 5691 2113 
L 5691 0 
L 5113 0 
L 5113 2094 
Q 5113 2597 4934 2840 
Q 4756 3084 4391 3084 
Q 3944 3084 3684 2787 
Q 3425 2491 3425 1978 
L 3425 0 
L 2847 0 
L 2847 2094 
Q 2847 2600 2669 2842 
Q 2491 3084 2119 3084 
Q 1678 3084 1418 2786 
Q 1159 2488 1159 1978 
L 1159 0 
L 581 0 
L 581 3500 
L 1159 3500 
L 1159 2956 
Q 1356 3278 1631 3431 
Q 1906 3584 2284 3584 
Q 2666 3584 2933 3390 
Q 3200 3197 3328 2828 
z
" transform="scale(0.015625)"/>
       <path id="DejaVuSans-65" d="M 3597 1894 
L 3597 1613 
L 953 1613 
Q 991 1019 1311 708 
Q 1631 397 2203 397 
Q 2534 397 2845 478 
Q 3156 559 3463 722 
L 3463 178 
Q 3153 47 2828 -22 
Q 2503 -91 2169 -91 
Q 1331 -91 842 396 
Q 353 884 353 1716 
Q 353 2575 817 3079 
Q 1281 3584 2069 3584 
Q 2775 3584 3186 3129 
Q 3597 2675 3597 1894 
z
M 3022 2063 
Q 3016 2534 2758 2815 
Q 2500 3097 2075 3097 
Q 1594 3097 1305 2825 
Q 1016 2553 972 2059 
L 3022 2063 
z
" transform="scale(0.015625)"/>
       <path id="DejaVuSans-73" d="M 2834 3397 
L 2834 2853 
Q 2591 2978 2328 3040 
Q 2066 3103 1784 3103 
Q 1356 3103 1142 2972 
Q 928 2841 928 2578 
Q 928 2378 1081 2264 
Q 1234 2150 1697 2047 
L 1894 2003 
Q 2506 1872 2764 1633 
Q 3022 1394 3022 966 
Q 3022 478 2636 193 
Q 2250 -91 1575 -91 
Q 1294 -91 989 -36 
Q 684 19 347 128 
L 347 722 
Q 666 556 975 473 
Q 1284 391 1588 391 
Q 1994 391 2212 530 
Q 2431 669 2431 922 
Q 2431 1156 2273 1281 
Q 2116 1406 1581 1522 
L 1381 1569 
Q 847 1681 609 1914 
Q 372 2147 372 2553 
Q 372 3047 722 3315 
Q 1072 3584 1716 3584 
Q 2034 3584 2315 3537 
Q 2597 3491 2834 3397 
z
" transform="scale(0.015625)"/>
       <path id="DejaVuSans-74" d="M 1172 4494 
L 1172 3500 
L 2356 3500 
L 2356 3053 
L 1172 3053 
L 1172 1153 
Q 1172 725 1289 603 
Q 1406 481 1766 481 
L 2356 481 
L 2356 0 
L 1766 0 
Q 1100 0 847 248 
Q 594 497 594 1153 
L 594 3053 
L 172 3053 
L 172 3500 
L 594 3500 
L 594 4494 
L 1172 4494 
z
" transform="scale(0.015625)"/>
       <path id="DejaVuSans-70" d="M 1159 525 
L 1159 -1331 
L 581 -1331 
L 581 3500 
L 1159 3500 
L 1159 2969 
Q 1341 3281 1617 3432 
Q 1894 3584 2278 3584 
Q 2916 3584 3314 3078 
Q 3713 2572 3713 1747 
Q 3713 922 3314 415 
Q 2916 -91 2278 -91 
Q 1894 -91 1617 61 
Q 1341 213 1159 525 
z
M 3116 1747 
Q 3116 2381 2855 2742 
Q 2594 3103 2138 3103 
Q 1681 3103 1420 2742 
Q 1159 2381 1159 1747 
Q 1159 1113 1420 752 
Q 1681 391 2138 391 
Q 2594 391 2855 752 
Q 3116 1113 3116 1747 
z
" transform="scale(0.015625)"/>
       <path id="DejaVuSans-20" transform="scale(0.015625)"/>
       <path id="DejaVuSans-28" d="M 1984 4856 
Q 1566 4138 1362 3434 
Q 1159 2731 1159 2009 
Q 1159 1288 1364 580 
Q 1569 -128 1984 -844 
L 1484 -844 
Q 1016 -109 783 600 
Q 550 1309 550 2009 
Q 550 2706 781 3412 
Q 1013 4119 1484 4856 
L 1984 4856 
z
" transform="scale(0.015625)"/>
       <path id="DejaVuSans-6e" d="M 3513 2113 
L 3513 0 
L 2938 0 
L 2938 2094 
Q 2938 2591 2744 2837 
Q 2550 3084 2163 3084 
Q 1697 3084 1428 2787 
Q 1159 2491 1159 1978 
L 1159 0 
L 581 0 
L 581 3500 
L 1159 3500 
L 1159 2956 
Q 1366 3272 1645 3428 
Q 1925 3584 2291 3584 
Q 2894 3584 3203 3211 
Q 3513 2838 3513 2113 
z
" transform="scale(0.015625)"/>
       <path id="DejaVuSans-4d" d="M 628 4666 
L 1569 4666 
L 2759 1491 
L 3956 4666 
L 4897 4666 
L 4897 0 
L 4281 0 
L 4281 4097 
L 3078 897 
L 2444 897 
L 1241 4097 
L 1241 0 
L 628 0 
L 628 4666 
z
" transform="scale(0.015625)"/>
       <path id="DejaVuSans-6c" d="M 603 4863 
L 1178 4863 
L 1178 0 
L 603 0 
L 603 4863 
z
" transform="scale(0.015625)"/>
       <path id="DejaVuSans-6f" d="M 1959 3097 
Q 1497 3097 1228 2736 
Q 959 2375 959 1747 
Q 959 1119 1226 758 
Q 1494 397 1959 397 
Q 2419 397 2687 759 
Q 2956 1122 2956 1747 
Q 2956 2369 2687 2733 
Q 2419 3097 1959 3097 
z
M 1959 3584 
Q 2709 3584 3137 3096 
Q 3566 2609 3566 1747 
Q 3566 888 3137 398 
Q 2709 -91 1959 -91 
Q 1206 -91 779 398 
Q 353 888 353 1747 
Q 353 2609 779 3096 
Q 1206 3584 1959 3584 
z
" transform="scale(0.015625)"/>
       <path id="DejaVuSans-29" d="M 513 4856 
L 1013 4856 
Q 1481 4119 1714 3412 
Q 1947 2706 1947 2009 
Q 1947 1309 1714 600 
Q 1481 -109 1013 -844 
L 513 -844 
Q 928 -128 1133 580 
Q 1338 1288 1338 2009 
Q 1338 2731 1133 3434 
Q 928 4138 513 4856 
z
" transform="scale(0.015625)"/>
      </defs>
      <use xlink:href="#DejaVuSans-54"/>
      <use xlink:href="#DejaVuSans-69" x="57.958984"/>
      <use xlink:href="#DejaVuSans-6d" x="85.742188"/>
      <use xlink:href="#DejaVuSans-65" x="183.154297"/>
      <use xlink:href="#DejaVuSans-73" x="244.677734"/>
      <use xlink:href="#DejaVuSans-74" x="296.777344"/>
      <use xlink:href="#DejaVuSans-65" x="335.986328"/>
      <use xlink:href="#DejaVuSans-70" x="397.509766"/>
      <use xlink:href="#DejaVuSans-73" x="460.986328"/>
      <use xlink:href="#DejaVuSans-20" x="513.085938"/>
      <use xlink:href="#DejaVuSans-28" x="544.873047"/>
      <use xlink:href="#DejaVuSans-69" x="583.886719"/>
      <use xlink:href="#DejaVuSans-6e" x="611.669922"/>
      <use xlink:href="#DejaVuSans-20" x="675.048828"/>
      <use xlink:href="#DejaVuSans-4d" x="706.835938"/>
      <use xlink:href="#DejaVuSans-69" x="793.115234"/>
      <use xlink:href="#DejaVuSans-6c" x="820.898438"/>
      <use xlink:href="#DejaVuSans-6c" x="848.681641"/>
      <use xlink:href="#DejaVuSans-69" x="876.464844"/>
      <use xlink:href="#DejaVuSans-6f" x="904.248047"/>
      <use xlink:href="#DejaVuSans-6e" x="965.429688"/>
      <use xlink:href="#DejaVuSans-29" x="1028.808594"/>
     </g>
    </g>
   </g>
   <g id="matplotlib.axis_2">
    <g id="ytick_1">
     <g id="line2d_8">
      <path d="M 67.86 284.65647 
L 447.84 284.65647 
" clip-path="url(#pcf78617977)" style="fill: none; stroke: #ffffff; stroke-linecap: round"/>
     </g>
     <g id="text_9">
      <!-- 0 -->
      <g style="fill: #262626" transform="translate(51.36125 288.83561)scale(0.11 -0.11)">
       <use xlink:href="#DejaVuSans-30"/>
      </g>
     </g>
    </g>
    <g id="ytick_2">
     <g id="line2d_9">
      <path d="M 67.86 233.721998 
L 447.84 233.721998 
" clip-path="url(#pcf78617977)" style="fill: none; stroke: #ffffff; stroke-linecap: round"/>
     </g>
     <g id="text_10">
      <!-- 500 -->
      <g style="fill: #262626" transform="translate(37.36375 237.901139)scale(0.11 -0.11)">
       <use xlink:href="#DejaVuSans-35"/>
       <use xlink:href="#DejaVuSans-30" x="63.623047"/>
       <use xlink:href="#DejaVuSans-30" x="127.246094"/>
      </g>
     </g>
    </g>
    <g id="ytick_3">
     <g id="line2d_10">
      <path d="M 67.86 182.787527 
L 447.84 182.787527 
" clip-path="url(#pcf78617977)" style="fill: none; stroke: #ffffff; stroke-linecap: round"/>
     </g>
     <g id="text_11">
      <!-- 1000 -->
      <g style="fill: #262626" transform="translate(30.365 186.966667)scale(0.11 -0.11)">
       <use xlink:href="#DejaVuSans-31"/>
       <use xlink:href="#DejaVuSans-30" x="63.623047"/>
       <use xlink:href="#DejaVuSans-30" x="127.246094"/>
       <use xlink:href="#DejaVuSans-30" x="190.869141"/>
      </g>
     </g>
    </g>
    <g id="ytick_4">
     <g id="line2d_11">
      <path d="M 67.86 131.853055 
L 447.84 131.853055 
" clip-path="url(#pcf78617977)" style="fill: none; stroke: #ffffff; stroke-linecap: round"/>
     </g>
     <g id="text_12">
      <!-- 1500 -->
      <g style="fill: #262626" transform="translate(30.365 136.032196)scale(0.11 -0.11)">
       <use xlink:href="#DejaVuSans-31"/>
       <use xlink:href="#DejaVuSans-35" x="63.623047"/>
       <use xlink:href="#DejaVuSans-30" x="127.246094"/>
       <use xlink:href="#DejaVuSans-30" x="190.869141"/>
      </g>
     </g>
    </g>
    <g id="ytick_5">
     <g id="line2d_12">
      <path d="M 67.86 80.918583 
L 447.84 80.918583 
" clip-path="url(#pcf78617977)" style="fill: none; stroke: #ffffff; stroke-linecap: round"/>
     </g>
     <g id="text_13">
      <!-- 2000 -->
      <g style="fill: #262626" transform="translate(30.365 85.097724)scale(0.11 -0.11)">
       <use xlink:href="#DejaVuSans-32"/>
       <use xlink:href="#DejaVuSans-30" x="63.623047"/>
       <use xlink:href="#DejaVuSans-30" x="127.246094"/>
       <use xlink:href="#DejaVuSans-30" x="190.869141"/>
      </g>
     </g>
    </g>
    <g id="ytick_6">
     <g id="line2d_13">
      <path d="M 67.86 29.984112 
L 447.84 29.984112 
" clip-path="url(#pcf78617977)" style="fill: none; stroke: #ffffff; stroke-linecap: round"/>
     </g>
     <g id="text_14">
      <!-- 2500 -->
      <g style="fill: #262626" transform="translate(30.365 34.163252)scale(0.11 -0.11)">
       <use xlink:href="#DejaVuSans-32"/>
       <use xlink:href="#DejaVuSans-35" x="63.623047"/>
       <use xlink:href="#DejaVuSans-30" x="127.246094"/>
       <use xlink:href="#DejaVuSans-30" x="190.869141"/>
      </g>
     </g>
    </g>
    <g id="text_15">
     <!-- # Highs (Δx &gt; 20) -->
     <g style="fill: #262626" transform="translate(23.453438 225.877187)rotate(-90)scale(0.14 -0.14)">
      <defs>
       <path id="DejaVuSans-23" d="M 3272 2816 
L 2363 2816 
L 2100 1772 
L 3016 1772 
L 3272 2816 
z
M 2803 4594 
L 2478 3297 
L 3391 3297 
L 3719 4594 
L 4219 4594 
L 3897 3297 
L 4872 3297 
L 4872 2816 
L 3775 2816 
L 3519 1772 
L 4513 1772 
L 4513 1294 
L 3397 1294 
L 3072 0 
L 2572 0 
L 2894 1294 
L 1978 1294 
L 1656 0 
L 1153 0 
L 1478 1294 
L 494 1294 
L 494 1772 
L 1594 1772 
L 1856 2816 
L 850 2816 
L 850 3297 
L 1978 3297 
L 2297 4594 
L 2803 4594 
z
" transform="scale(0.015625)"/>
       <path id="DejaVuSans-48" d="M 628 4666 
L 1259 4666 
L 1259 2753 
L 3553 2753 
L 3553 4666 
L 4184 4666 
L 4184 0 
L 3553 0 
L 3553 2222 
L 1259 2222 
L 1259 0 
L 628 0 
L 628 4666 
z
" transform="scale(0.015625)"/>
       <path id="DejaVuSans-67" d="M 2906 1791 
Q 2906 2416 2648 2759 
Q 2391 3103 1925 3103 
Q 1463 3103 1205 2759 
Q 947 2416 947 1791 
Q 947 1169 1205 825 
Q 1463 481 1925 481 
Q 2391 481 2648 825 
Q 2906 1169 2906 1791 
z
M 3481 434 
Q 3481 -459 3084 -895 
Q 2688 -1331 1869 -1331 
Q 1566 -1331 1297 -1286 
Q 1028 -1241 775 -1147 
L 775 -588 
Q 1028 -725 1275 -790 
Q 1522 -856 1778 -856 
Q 2344 -856 2625 -561 
Q 2906 -266 2906 331 
L 2906 616 
Q 2728 306 2450 153 
Q 2172 0 1784 0 
Q 1141 0 747 490 
Q 353 981 353 1791 
Q 353 2603 747 3093 
Q 1141 3584 1784 3584 
Q 2172 3584 2450 3431 
Q 2728 3278 2906 2969 
L 2906 3500 
L 3481 3500 
L 3481 434 
z
" transform="scale(0.015625)"/>
       <path id="DejaVuSans-68" d="M 3513 2113 
L 3513 0 
L 2938 0 
L 2938 2094 
Q 2938 2591 2744 2837 
Q 2550 3084 2163 3084 
Q 1697 3084 1428 2787 
Q 1159 2491 1159 1978 
L 1159 0 
L 581 0 
L 581 4863 
L 1159 4863 
L 1159 2956 
Q 1366 3272 1645 3428 
Q 1925 3584 2291 3584 
Q 2894 3584 3203 3211 
Q 3513 2838 3513 2113 
z
" transform="scale(0.015625)"/>
       <path id="DejaVuSans-394" d="M 2188 4044 
L 906 525 
L 3472 525 
L 2188 4044 
z
M 50 0 
L 1831 4666 
L 2547 4666 
L 4325 0 
L 50 0 
z
" transform="scale(0.015625)"/>
       <path id="DejaVuSans-78" d="M 3513 3500 
L 2247 1797 
L 3578 0 
L 2900 0 
L 1881 1375 
L 863 0 
L 184 0 
L 1544 1831 
L 300 3500 
L 978 3500 
L 1906 2253 
L 2834 3500 
L 3513 3500 
z
" transform="scale(0.015625)"/>
       <path id="DejaVuSans-3e" d="M 678 3150 
L 678 3719 
L 4684 2266 
L 4684 1747 
L 678 294 
L 678 863 
L 3897 2003 
L 678 3150 
z
" transform="scale(0.015625)"/>
      </defs>
      <use xlink:href="#DejaVuSans-23"/>
      <use xlink:href="#DejaVuSans-20" x="83.789062"/>
      <use xlink:href="#DejaVuSans-48" x="115.576172"/>
      <use xlink:href="#DejaVuSans-69" x="190.771484"/>
      <use xlink:href="#DejaVuSans-67" x="218.554688"/>
      <use xlink:href="#DejaVuSans-68" x="282.03125"/>
      <use xlink:href="#DejaVuSans-73" x="345.410156"/>
      <use xlink:href="#DejaVuSans-20" x="397.509766"/>
      <use xlink:href="#DejaVuSans-28" x="429.296875"/>
      <use xlink:href="#DejaVuSans-394" x="468.310547"/>
      <use xlink:href="#DejaVuSans-78" x="536.71875"/>
      <use xlink:href="#DejaVuSans-20" x="595.898438"/>
      <use xlink:href="#DejaVuSans-3e" x="627.685547"/>
      <use xlink:href="#DejaVuSans-20" x="711.474609"/>
      <use xlink:href="#DejaVuSans-32" x="743.261719"/>
      <use xlink:href="#DejaVuSans-30" x="806.884766"/>
      <use xlink:href="#DejaVuSans-29" x="870.507812"/>
     </g>
    </g>
   </g>
   <g id="PolyCollection_1">
    <defs>
     <path id="mee80fb2a08" d="M 85.131818 -122.411251 
L 85.131818 -184.653175 
L 88.034645 -179.743092 
L 90.937471 -176.625902 
L 93.840298 -177.624218 
L 96.743125 -256.002183 
L 99.645951 -287.194453 
L 102.548778 -283.364181 
L 105.451604 -289.374449 
L 108.354431 -287.887162 
L 111.257257 -272.667942 
L 114.160084 -269.978602 
L 117.062911 -273.829248 
L 119.965737 -245.489308 
L 122.868564 -263.744222 
L 125.77139 -271.649252 
L 128.674217 -249.075095 
L 131.577044 -256.939377 
L 134.47987 -234.589331 
L 137.382697 -232.062981 
L 140.285523 -267.085524 
L 143.18835 -248.626871 
L 146.091176 -228.579063 
L 148.994003 -206.9421 
L 151.89683 -233.305782 
L 154.799656 -249.971541 
L 157.702483 -226.337946 
L 160.605309 -205.882663 
L 163.508136 -220.694407 
L 166.410963 -169.739562 
L 169.313789 -204.700983 
L 172.216616 -207.26808 
L 175.119442 -217.088246 
L 178.022269 -209.611066 
L 180.925095 -200.728094 
L 183.827922 -190.785685 
L 186.730749 -208.144153 
L 189.633575 -175.444222 
L 192.536402 -184.714296 
L 195.439228 -187.383263 
L 198.342055 -157.820895 
L 201.244882 -175.770203 
L 204.147708 -179.152252 
L 207.050535 -234.996807 
L 209.953361 -194.004744 
L 212.856188 -159.939769 
L 215.759015 -226.78617 
L 218.661841 -166.051906 
L 221.564668 -154.173987 
L 224.467494 -187.444384 
L 227.370321 -168.150406 
L 230.273147 -143.742607 
L 233.175974 -202.276502 
L 236.078801 -187.485132 
L 238.981627 -157.922764 
L 241.884454 -249.543692 
L 244.78728 -250.908736 
L 247.690107 -190.806059 
L 250.592934 -223.587485 
L 253.49576 -167.681809 
L 256.398587 -169.841431 
L 259.301413 -163.627425 
L 262.20424 -193.047176 
L 265.107066 -205.882663 
L 268.009893 -180.028325 
L 270.91272 -234.324472 
L 273.815546 -180.985893 
L 276.718373 -194.656705 
L 279.621199 -187.199898 
L 282.524026 -174.812635 
L 285.426853 -180.089446 
L 288.329679 -180.945145 
L 291.232506 -216.640023 
L 294.135332 -181.352621 
L 297.038159 -223.302252 
L 299.940985 -235.87288 
L 302.843812 -193.576894 
L 305.746639 -214.215542 
L 308.649465 -195.430909 
L 311.552292 -176.483286 
L 314.455118 -192.415588 
L 317.357945 -181.678602 
L 320.260772 -175.423849 
L 323.163598 -183.023272 
L 326.066425 -237.400914 
L 328.969251 -214.358159 
L 331.872078 -245.733793 
L 334.774905 -236.076617 
L 337.677731 -246.609866 
L 340.580558 -231.451767 
L 343.483384 -227.030655 
L 346.386211 -223.465242 
L 349.289037 -251.703313 
L 352.191864 -233.000175 
L 355.094691 -234.385593 
L 357.997517 -194.697453 
L 360.900344 -217.821703 
L 363.80317 -207.125464 
L 366.705997 -203.193323 
L 369.608824 -200.646599 
L 372.51165 -225.726733 
L 375.414477 -211.709566 
L 378.317303 -205.862289 
L 381.22013 -181.780471 
L 384.122956 -192.171103 
L 387.025783 -189.379894 
L 389.92861 -191.29503 
L 392.831436 -189.441015 
L 395.734263 -213.82844 
L 398.637089 -202.032017 
L 401.539916 -192.028486 
L 404.442743 -222.079825 
L 407.345569 -201.074449 
L 410.248396 -216.660397 
L 413.151222 -205.882663 
L 416.054049 -198.44623 
L 418.956875 -178.887393 
L 421.859702 -182.615796 
L 424.762529 -192.435962 
L 427.665355 -195.532778 
L 430.568182 -185.895976 
L 430.568182 -126.608251 
L 430.568182 -126.608251 
L 427.665355 -142.601675 
L 424.762529 -139.015888 
L 421.859702 -139.912335 
L 418.956875 -109.860997 
L 416.054049 -121.514804 
L 413.151222 -132.170295 
L 410.248396 -131.986931 
L 407.345569 -130.397776 
L 404.442743 -114.60809 
L 401.539916 -136.835893 
L 398.637089 -136.285801 
L 395.734263 -121.249945 
L 392.831436 -125.467319 
L 389.92861 -113.569026 
L 387.025783 -133.963189 
L 384.122956 -118.723595 
L 381.22013 -126.771241 
L 378.317303 -127.321334 
L 375.414477 -131.253475 
L 372.51165 -126.139654 
L 369.608824 -140.788408 
L 366.705997 -139.24 
L 363.80317 -132.985247 
L 360.900344 -129.969926 
L 357.997517 -136.041315 
L 355.094691 -119.823779 
L 352.191864 -132.822257 
L 349.289037 -102.302321 
L 346.386211 -127.219465 
L 343.483384 -133.902067 
L 340.580558 -121.412935 
L 337.677731 -108.129225 
L 334.774905 -146.350452 
L 331.872078 -147.226525 
L 328.969251 -122.126018 
L 326.066425 -142.153452 
L 323.163598 -133.840946 
L 320.260772 -112.509589 
L 317.357945 -107.008666 
L 314.455118 -108.434832 
L 311.552292 -94.397291 
L 308.649465 -122.370503 
L 305.746639 -97.901583 
L 302.843812 -87.61282 
L 299.940985 -129.032732 
L 297.038159 -110.370341 
L 294.135332 -117.154813 
L 291.232506 -118.6421 
L 288.329679 -111.613143 
L 285.426853 -130.499645 
L 282.524026 -122.757605 
L 279.621199 -94.641777 
L 276.718373 -113.018934 
L 273.815546 -103.382132 
L 270.91272 -120.781347 
L 268.009893 -97.962704 
L 265.107066 -118.193876 
L 262.20424 -112.591084 
L 259.301413 -107.721749 
L 256.398587 -104.869419 
L 253.49576 -122.8391 
L 250.592934 -114.220988 
L 247.690107 -104.584186 
L 244.78728 -109.433147 
L 241.884454 -102.465311 
L 238.981627 -114.689585 
L 236.078801 -95.069626 
L 233.175974 -94.967757 
L 230.273147 -113.650521 
L 227.370321 -128.095538 
L 224.467494 -126.974979 
L 221.564668 -87.999922 
L 218.661841 -97.494107 
L 215.759015 -115.015565 
L 212.856188 -87.857305 
L 209.953361 -102.56718 
L 207.050535 -118.499483 
L 204.147708 -118.417988 
L 201.244882 -83.762174 
L 198.342055 -101.161389 
L 195.439228 -70.009866 
L 192.536402 -96.577287 
L 189.633575 -86.960858 
L 186.730749 -107.660628 
L 183.827922 -98.125695 
L 180.925095 -115.36192 
L 178.022269 -100.957651 
L 175.119442 -125.120964 
L 172.216616 -98.838777 
L 169.313789 -96.944015 
L 166.410963 -109.840623 
L 163.508136 -120.190508 
L 160.605309 -122.166765 
L 157.702483 -137.73234 
L 154.799656 -146.044845 
L 151.89683 -149.691754 
L 148.994003 -139.097383 
L 146.091176 -152.707074 
L 143.18835 -150.85306 
L 140.285523 -159.410051 
L 137.382697 -147.226525 
L 134.47987 -128.971611 
L 131.577044 -79.626294 
L 128.674217 -102.363443 
L 125.77139 -99.205505 
L 122.868564 -198.303613 
L 119.965737 -175.607213 
L 117.062911 -192.374841 
L 114.160084 -220.123941 
L 111.257257 -223.994961 
L 108.354431 -245.835662 
L 105.451604 -234.283724 
L 102.548778 -231.879617 
L 99.645951 -265.577863 
L 96.743125 -212.239285 
L 93.840298 -136.693276 
L 90.937471 -134.961504 
L 88.034645 -140.645791 
L 85.131818 -122.411251 
z
" style="stroke: #ffffff; stroke-opacity: 0.5"/>
    </defs>
    <g clip-path="url(#pcf78617977)">
     <use xlink:href="#mee80fb2a08" x="0" y="345.6" style="fill: #4c72b0; fill-opacity: 0.5; stroke: #ffffff; stroke-opacity: 0.5"/>
    </g>
   </g>
   <g id="PolyCollection_2">
    <defs>
     <path id="m7ec93ea995" d="M 85.131818 -139.341869 
L 85.131818 -173.997683 
L 88.034645 -157.535662 
L 90.937471 -193.454652 
L 93.840298 -172.530771 
L 96.743125 -235.791384 
L 99.645951 -284.199506 
L 102.548778 -289.761551 
L 105.451604 -286.15539 
L 108.354431 -279.75802 
L 111.257257 -279.43204 
L 114.160084 -267.920849 
L 117.062911 -257.163489 
L 119.965737 -284.586608 
L 122.868564 -268.633932 
L 125.77139 -259.506474 
L 128.674217 -254.555644 
L 131.577044 -275.907374 
L 134.47987 -268.939539 
L 137.382697 -265.842723 
L 140.285523 -261.197499 
L 143.18835 -271.282524 
L 146.091176 -255.757697 
L 148.994003 -275.112796 
L 151.89683 -245.367065 
L 154.799656 -252.823872 
L 157.702483 -250.338269 
L 160.605309 -270.854675 
L 163.508136 -271.486262 
L 166.410963 -247.078463 
L 169.313789 -266.331694 
L 172.216616 -250.399391 
L 175.119442 -265.313004 
L 178.022269 -254.596391 
L 180.925095 -199.464919 
L 183.827922 -249.727056 
L 186.730749 -226.745422 
L 189.633575 -234.365219 
L 192.536402 -248.260143 
L 195.439228 -255.187231 
L 198.342055 -215.560212 
L 201.244882 -244.572487 
L 204.147708 -267.961597 
L 207.050535 -250.399391 
L 209.953361 -210.283401 
L 212.856188 -271.302898 
L 215.759015 -211.098353 
L 218.661841 -186.058966 
L 221.564668 -244.205759 
L 224.467494 -193.047176 
L 227.370321 -247.628556 
L 230.273147 -214.724887 
L 233.175974 -196.755205 
L 236.078801 -230.473826 
L 238.981627 -223.404121 
L 241.884454 -196.795953 
L 244.78728 -231.553636 
L 247.690107 -194.188108 
L 250.592934 -253.862935 
L 253.49576 -183.451121 
L 256.398587 -204.049022 
L 259.301413 -196.368103 
L 262.20424 -211.648445 
L 265.107066 -219.79796 
L 268.009893 -172.469649 
L 270.91272 -148.999045 
L 273.815546 -165.848168 
L 276.718373 -210.670503 
L 279.621199 -157.698653 
L 282.524026 -189.868865 
L 285.426853 -181.88234 
L 288.329679 -165.338823 
L 291.232506 -174.56815 
L 294.135332 -208.775741 
L 297.038159 -224.178325 
L 299.940985 -200.789216 
L 302.843812 -196.857074 
L 305.746639 -176.462912 
L 308.649465 -210.568634 
L 311.552292 -156.496599 
L 314.455118 -196.612589 
L 317.357945 -196.225487 
L 320.260772 -202.072764 
L 323.163598 -194.330725 
L 326.066425 -203.9879 
L 328.969251 -204.375002 
L 331.872078 -166.683493 
L 334.774905 -186.140461 
L 337.677731 -181.88234 
L 340.580558 -183.186262 
L 343.483384 -182.065704 
L 346.386211 -204.802852 
L 349.289037 -179.172626 
L 352.191864 -149.019419 
L 355.094691 -182.04533 
L 357.997517 -168.313396 
L 360.900344 -177.624218 
L 363.80317 -163.444061 
L 366.705997 -194.982686 
L 369.608824 -151.76988 
L 372.51165 -134.880009 
L 375.414477 -155.681647 
L 378.317303 -161.284439 
L 381.22013 -143.253636 
L 384.122956 -153.155298 
L 387.025783 -136.652529 
L 389.92861 -153.053429 
L 392.831436 -135.735708 
L 395.734263 -143.783355 
L 398.637089 -124.917227 
L 401.539916 -140.931024 
L 404.442743 -155.722395 
L 407.345569 -158.452483 
L 410.248396 -142.744292 
L 413.151222 -169.861804 
L 416.054049 -155.05006 
L 418.956875 -178.479917 
L 421.859702 -131.273849 
L 424.762529 -139.199252 
L 427.665355 -145.005782 
L 430.568182 -136.061689 
L 430.568182 -105.582501 
L 430.568182 -105.582501 
L 427.665355 -103.117273 
L 424.762529 -105.236147 
L 421.859702 -112.957813 
L 418.956875 -93.215611 
L 416.054049 -94.152806 
L 413.151222 -83.965911 
L 410.248396 -88.346276 
L 407.345569 -96.984762 
L 404.442743 -96.210558 
L 401.539916 -95.904952 
L 398.637089 -107.436516 
L 395.734263 -84.088154 
L 392.831436 -80.828348 
L 389.92861 -98.736908 
L 387.025783 -98.329432 
L 384.122956 -108.108851 
L 381.22013 -103.769234 
L 378.317303 -112.163235 
L 375.414477 -108.618196 
L 372.51165 -101.691108 
L 369.608824 -86.533009 
L 366.705997 -107.477263 
L 363.80317 -110.492584 
L 360.900344 -68.970803 
L 357.997517 -113.996876 
L 355.094691 -71.639769 
L 352.191864 -97.61635 
L 349.289037 -95.130748 
L 346.386211 -124.224518 
L 343.483384 -124.713489 
L 340.580558 -77.201814 
L 337.677731 -113.609774 
L 334.774905 -125.100591 
L 331.872078 -67.218657 
L 328.969251 -102.057836 
L 326.066425 -115.382293 
L 323.163598 -97.61635 
L 320.260772 -90.241038 
L 317.357945 -100.794661 
L 314.455118 -104.849045 
L 311.552292 -98.879525 
L 308.649465 -132.374033 
L 305.746639 -88.855621 
L 302.843812 -105.032409 
L 299.940985 -108.944176 
L 297.038159 -112.326225 
L 294.135332 -136.265427 
L 291.232506 -112.468842 
L 288.329679 -102.99503 
L 285.426853 -93.276733 
L 282.524026 -116.767711 
L 279.621199 -85.656936 
L 276.718373 -137.630471 
L 273.815546 -78.139008 
L 270.91272 -82.947222 
L 268.009893 -123.980032 
L 265.107066 -108.332963 
L 262.20424 -84.556751 
L 259.301413 -76.773964 
L 256.398587 -93.195238 
L 253.49576 -123.817042 
L 250.592934 -84.353013 
L 247.690107 -109.147914 
L 244.78728 -80.03377 
L 241.884454 -122.961343 
L 238.981627 -97.02551 
L 236.078801 -132.761135 
L 233.175974 -85.616188 
L 230.273147 -100.346437 
L 227.370321 -106.825302 
L 224.467494 -80.013396 
L 221.564668 -107.049414 
L 218.661841 -84.027033 
L 215.759015 -112.265104 
L 212.856188 -88.69263 
L 209.953361 -98.431301 
L 207.050535 -103.463627 
L 204.147708 -115.830517 
L 201.244882 -118.784716 
L 198.342055 -154.092492 
L 195.439228 -124.041154 
L 192.536402 -96.169811 
L 189.633575 -187.464758 
L 186.730749 -109.657259 
L 183.827922 -122.146391 
L 180.925095 -96.00682 
L 178.022269 -154.764827 
L 175.119442 -118.743969 
L 172.216616 -118.621726 
L 169.313789 -137.610097 
L 166.410963 -74.003129 
L 163.508136 -102.648676 
L 160.605309 -98.879525 
L 157.702483 -166.66312 
L 154.799656 -141.216257 
L 151.89683 -161.895653 
L 148.994003 -162.7921 
L 146.091176 -153.766511 
L 143.18835 -152.218103 
L 140.285523 -72.393599 
L 137.382697 -181.61748 
L 134.47987 -102.730171 
L 131.577044 -201.359682 
L 128.674217 -154.45922 
L 125.77139 -204.008274 
L 122.868564 -220.714781 
L 119.965737 -84.128902 
L 117.062911 -212.117042 
L 114.160084 -221.937208 
L 111.257257 -224.137577 
L 108.354431 -184.673549 
L 105.451604 -220.429548 
L 102.548778 -245.061458 
L 99.645951 -241.353429 
L 96.743125 -163.158828 
L 93.840298 -132.924126 
L 90.937471 -125.345076 
L 88.034645 -130.825625 
L 85.131818 -139.341869 
z
" style="stroke: #ffffff; stroke-opacity: 0.5"/>
    </defs>
    <g clip-path="url(#pcf78617977)">
     <use xlink:href="#m7ec93ea995" x="0" y="345.6" style="fill: #dd8452; fill-opacity: 0.5; stroke: #ffffff; stroke-opacity: 0.5"/>
    </g>
   </g>
   <g id="PolyCollection_3">
    <defs>
     <path id="m6a4e7a5424" d="M 85.131818 -89.263096 
L 85.131818 -229.027287 
L 88.034645 -263.764596 
L 90.937471 -184.816165 
L 93.840298 -193.169419 
L 96.743125 -204.273133 
L 99.645951 -258.365542 
L 102.548778 -258.874887 
L 105.451604 -263.458989 
L 108.354431 -258.773018 
L 111.257257 -260.708528 
L 114.160084 -303.799091 
L 117.062911 -283.221564 
L 119.965737 -219.553475 
L 122.868564 -228.212335 
L 125.77139 -274.97018 
L 128.674217 -281.897268 
L 131.577044 -267.024402 
L 134.47987 -261.625348 
L 137.382697 -261.829086 
L 140.285523 -251.84593 
L 143.18835 -210.690877 
L 146.091176 -230.860928 
L 148.994003 -214.561897 
L 151.89683 -254.188916 
L 154.799656 -222.507674 
L 157.702483 -218.229179 
L 160.605309 -234.630078 
L 163.508136 -218.636654 
L 166.410963 -211.709566 
L 169.313789 -221.081509 
L 172.216616 -223.83197 
L 175.119442 -222.813281 
L 178.022269 -190.215219 
L 180.925095 -210.894615 
L 183.827922 -270.18234 
L 186.730749 -184.612427 
L 189.633575 -239.010443 
L 192.536402 -167.192838 
L 195.439228 -225.156267 
L 198.342055 -149.365773 
L 201.244882 -254.596391 
L 204.147708 -179.417111 
L 207.050535 -207.634808 
L 209.953361 -171.573203 
L 212.856188 -204.57874 
L 215.759015 -249.197337 
L 218.661841 -225.054398 
L 221.564668 -234.324472 
L 224.467494 -236.36185 
L 227.370321 -221.387116 
L 230.273147 -190.622695 
L 233.175974 -209.774056 
L 236.078801 -214.358159 
L 238.981627 -183.695607 
L 241.884454 -124.407882 
L 244.78728 -183.288131 
L 247.690107 -127.158343 
L 250.592934 -90.383655 
L 253.49576 -185.834855 
L 256.398587 -119.72191 
L 259.301413 -128.788246 
L 262.20424 -114.220988 
L 265.107066 -92.421034 
L 268.009893 -103.830355 
L 270.91272 -150.180725 
L 273.815546 -80.094892 
L 276.718373 -108.618196 
L 279.621199 -81.317319 
L 282.524026 -113.202298 
L 285.426853 -126.954605 
L 288.329679 -99.653729 
L 291.232506 -106.580817 
L 294.135332 -105.867734 
L 297.038159 -107.905113 
L 299.940985 -70.417342 
L 302.843812 -92.319165 
L 305.746639 -84.780863 
L 308.649465 -69.296784 
L 311.552292 -72.250983 
L 314.455118 -81.317319 
L 317.357945 -89.568703 
L 320.260772 -70.213604 
L 323.163598 -109.433147 
L 326.066425 -90.485524 
L 328.969251 -67.972487 
L 331.872078 -71.334162 
L 334.774905 -109.433147 
L 337.677731 -73.677148 
L 340.580558 -67.259405 
L 343.483384 -69.194915 
L 346.386211 -69.194915 
L 349.289037 -69.398653 
L 352.191864 -69.398653 
L 355.094691 -68.481832 
L 357.997517 -88.550014 
L 360.900344 -69.194915 
L 363.80317 -69.500521 
L 366.705997 -67.768749 
L 369.608824 -69.398653 
L 372.51165 -69.60239 
L 375.414477 -68.889308 
L 378.317303 -68.176225 
L 381.22013 -69.500521 
L 384.122956 -69.296784 
L 387.025783 -66.953798 
L 389.92861 -71.5379 
L 392.831436 -68.481832 
L 395.734263 -70.213604 
L 398.637089 -70.62108 
L 401.539916 -72.454721 
L 404.442743 -69.194915 
L 407.345569 -69.704259 
L 410.248396 -70.519211 
L 413.151222 -71.5379 
L 416.054049 -67.463143 
L 418.956875 -72.250983 
L 421.859702 -71.028556 
L 424.762529 -69.60239 
L 427.665355 -68.889308 
L 430.568182 -69.806128 
L 430.568182 -66.240715 
L 430.568182 -66.240715 
L 427.665355 -65.018288 
L 424.762529 -63.999599 
L 421.859702 -66.036977 
L 418.956875 -65.120157 
L 416.054049 -65.120157 
L 413.151222 -65.629502 
L 410.248396 -65.323895 
L 407.345569 -65.222026 
L 404.442743 -65.323895 
L 401.539916 -65.018288 
L 398.637089 -67.157536 
L 395.734263 -67.055667 
L 392.831436 -65.018288 
L 389.92861 -65.120157 
L 387.025783 -64.101467 
L 384.122956 -65.731371 
L 381.22013 -63.999599 
L 378.317303 -63.490254 
L 375.414477 -65.222026 
L 372.51165 -65.120157 
L 369.608824 -65.731371 
L 366.705997 -64.916419 
L 363.80317 -65.731371 
L 360.900344 -64.712681 
L 357.997517 -63.999599 
L 355.094691 -64.81455 
L 352.191864 -65.527633 
L 349.289037 -65.222026 
L 346.386211 -65.120157 
L 343.483384 -65.120157 
L 340.580558 -63.184647 
L 337.677731 -65.323895 
L 334.774905 -66.036977 
L 331.872078 -63.693992 
L 328.969251 -63.999599 
L 326.066425 -67.259405 
L 323.163598 -65.83324 
L 320.260772 -65.120157 
L 317.357945 -65.323895 
L 314.455118 -63.286516 
L 311.552292 -64.203336 
L 308.649465 -65.018288 
L 305.746639 -63.795861 
L 302.843812 -63.592123 
L 299.940985 -62.980909 
L 297.038159 -67.157536 
L 294.135332 -63.286516 
L 291.232506 -65.731371 
L 288.329679 -65.120157 
L 285.426853 -65.018288 
L 282.524026 -67.055667 
L 279.621199 -65.425764 
L 276.718373 -66.138846 
L 273.815546 -67.463143 
L 270.91272 -65.120157 
L 268.009893 -64.916419 
L 265.107066 -66.75006 
L 262.20424 -65.323895 
L 259.301413 -67.361274 
L 256.398587 -67.259405 
L 253.49576 -65.018288 
L 250.592934 -63.184647 
L 247.690107 -63.184647 
L 244.78728 -67.157536 
L 241.884454 -69.296784 
L 238.981627 -65.629502 
L 236.078801 -70.417342 
L 233.175974 -65.323895 
L 230.273147 -67.463143 
L 227.370321 -85.799552 
L 224.467494 -66.648191 
L 221.564668 -65.527633 
L 218.661841 -67.157536 
L 215.759015 -73.982755 
L 212.856188 -74.797707 
L 209.953361 -65.120157 
L 207.050535 -85.290208 
L 204.147708 -81.317319 
L 201.244882 -93.439723 
L 198.342055 -69.194915 
L 195.439228 -92.217296 
L 192.536402 -65.425764 
L 189.633575 -67.157536 
L 186.730749 -68.074356 
L 183.827922 -118.295745 
L 180.925095 -70.519211 
L 178.022269 -81.317319 
L 175.119442 -115.647153 
L 172.216616 -110.349968 
L 169.313789 -109.331278 
L 166.410963 -72.55659 
L 163.508136 -65.018288 
L 160.605309 -147.73587 
L 157.702483 -126.037785 
L 154.799656 -122.064896 
L 151.89683 -128.890115 
L 148.994003 -152.421841 
L 146.091176 -84.577125 
L 143.18835 -130.520018 
L 140.285523 -145.291015 
L 137.382697 -162.404998 
L 134.47987 -99.55186 
L 131.577044 -163.423687 
L 128.674217 -196.938569 
L 125.77139 -190.011481 
L 122.868564 -152.829317 
L 119.965737 -159.654536 
L 117.062911 -179.009635 
L 114.160084 -207.023595 
L 111.257257 -171.573203 
L 108.354431 -181.963835 
L 105.451604 -198.160997 
L 102.548778 -228.314204 
L 99.645951 -165.664804 
L 96.743125 -111.266788 
L 93.840298 -85.290208 
L 90.937471 -154.255482 
L 88.034645 -138.363927 
L 85.131818 -89.263096 
z
" style="stroke: #ffffff; stroke-opacity: 0.5"/>
    </defs>
    <g clip-path="url(#pcf78617977)">
     <use xlink:href="#m6a4e7a5424" x="0" y="345.6" style="fill: #55a868; fill-opacity: 0.5; stroke: #ffffff; stroke-opacity: 0.5"/>
    </g>
   </g>
   <g id="line2d_14">
    <path d="M 85.131818 178.399012 
L 88.034645 184.796382 
L 90.937471 185.957688 
L 93.840298 193.275953 
L 96.743125 114.327522 
L 99.645951 70.267167 
L 102.548778 80.250323 
L 105.451604 79.70838 
L 108.354431 77.6873 
L 111.257257 91.916354 
L 114.160084 107.803835 
L 117.062911 113.891523 
L 119.965737 144.126225 
L 122.868564 116.764227 
L 125.77139 161.586562 
L 128.674217 161.358376 
L 131.577044 183.757319 
L 134.47987 174.735805 
L 137.382697 148.604384 
L 140.285523 139.623618 
L 143.18835 159.2721 
L 146.091176 156.06934 
L 148.994003 177.999686 
L 151.89683 166.569991 
L 154.799656 163.929548 
L 157.702483 155.547771 
L 160.605309 186.035108 
L 163.508136 179.53587 
L 166.410963 206.690055 
L 169.313789 206.906018 
L 172.216616 204.400042 
L 175.119442 189.645344 
L 178.022269 211.131541 
L 180.925095 179.686636 
L 183.827922 200.243789 
L 186.730749 188.308823 
L 189.633575 209.754273 
L 192.536402 208.865976 
L 195.439228 215.544504 
L 198.342055 214.525814 
L 201.244882 202.244495 
L 204.147708 196.462413 
L 207.050535 198.516091 
L 209.953361 197.012506 
L 212.856188 214.17946 
L 215.759015 195.040323 
L 218.661841 206.718579 
L 221.564668 218.576124 
L 224.467494 185.480941 
L 227.370321 200.121546 
L 230.273147 216.420577 
L 233.175974 201.303226 
L 236.078801 201.421394 
L 238.981627 211.962792 
L 241.884454 184.33186 
L 244.78728 195.838976 
L 247.690107 195.553743 
L 250.592934 178.411237 
L 253.49576 199.290295 
L 256.398587 203.654361 
L 259.301413 206.706354 
L 262.20424 181.887005 
L 265.107066 177.074716 
L 268.009893 199.106931 
L 270.91272 184.034402 
L 273.815546 194.702118 
L 276.718373 182.72233 
L 279.621199 197.823383 
L 282.524026 193.271878 
L 285.426853 186.108454 
L 288.329679 189.12785 
L 291.232506 189.445681 
L 294.135332 190.696631 
L 297.038159 191.360817 
L 299.940985 182.754928 
L 302.843812 197.78671 
L 305.746639 192.147245 
L 308.649465 181.675118 
L 311.552292 199.677397 
L 314.455118 196.670226 
L 317.357945 194.942529 
L 320.260772 195.455948 
L 323.163598 191.682723 
L 326.066425 172.621006 
L 328.969251 173.611172 
L 331.872078 157.177674 
L 334.774905 159.174305 
L 337.677731 168.970023 
L 340.580558 164.73635 
L 343.483384 174.73988 
L 346.386211 175.326645 
L 349.289037 168.615519 
L 352.191864 166.015824 
L 355.094691 168.998546 
L 357.997517 184.943073 
L 360.900344 166.407 
L 363.80317 181.679192 
L 366.705997 169.846096 
L 369.608824 182.428948 
L 372.51165 182.318929 
L 375.414477 181.247268 
L 378.317303 182.094818 
L 381.22013 196.747647 
L 384.122956 182.335228 
L 387.025783 184.001804 
L 389.92861 184.869728 
L 392.831436 180.147084 
L 395.734263 175.171804 
L 398.637089 170.241347 
L 401.539916 179.694785 
L 404.442743 181.259492 
L 407.345569 177.074716 
L 410.248396 166.15844 
L 413.151222 178.036359 
L 416.054049 182.909769 
L 418.956875 190.96964 
L 421.859702 178.802413 
L 424.762529 175.966382 
L 427.665355 172.510988 
L 430.568182 181.776987 
" clip-path="url(#pcf78617977)" style="fill: none; stroke: #4c72b0; stroke-width: 3; stroke-linecap: round"/>
   </g>
   <g id="line2d_15">
    <path d="M 85.131818 191.984255 
L 88.034645 199.889285 
L 90.937471 188.133609 
L 93.840298 191.927208 
L 96.743125 145.523867 
L 99.645951 79.842847 
L 102.548778 73.694038 
L 105.451604 87.86197 
L 108.354431 114.547559 
L 111.257257 85.869414 
L 114.160084 98.38707 
L 117.062911 106.589557 
L 119.965737 125.146004 
L 122.868564 101.337194 
L 125.77139 105.057448 
L 128.674217 130.194629 
L 131.577044 100.004749 
L 134.47987 128.255044 
L 137.382697 116.316004 
L 140.285523 180.497513 
L 143.18835 146.053586 
L 146.091176 152.210545 
L 148.994003 117.151329 
L 151.89683 131.580046 
L 154.799656 137.182838 
L 157.702483 125.341592 
L 160.605309 140.458943 
L 163.508136 161.350226 
L 166.410963 154.712446 
L 169.313789 155.22179 
L 172.216616 154.101232 
L 175.119442 143.567983 
L 178.022269 135.434767 
L 180.925095 189.734988 
L 183.827922 146.420314 
L 186.730749 151.134808 
L 189.633575 137.341754 
L 192.536402 192.012778 
L 195.439228 137.879622 
L 198.342055 157.312141 
L 201.244882 175.395916 
L 204.147708 134.016751 
L 207.050535 177.559612 
L 209.953361 196.808768 
L 212.856188 149.973503 
L 215.759015 185.859894 
L 218.661841 216.445025 
L 221.564668 168.819257 
L 224.467494 211.457522 
L 227.370321 177.43737 
L 230.273147 199.38809 
L 233.175974 198.088242 
L 236.078801 183.15018 
L 238.981627 161.814749 
L 241.884454 186.418136 
L 244.78728 189.152298 
L 247.690107 182.160014 
L 250.592934 168.424006 
L 253.49576 189.690166 
L 256.398587 193.768999 
L 259.301413 199.864836 
L 262.20424 206.645233 
L 265.107066 204.917536 
L 268.009893 208.861901 
L 270.91272 215.418186 
L 273.815546 223.498431 
L 276.718373 182.63676 
L 279.621199 211.24156 
L 282.524026 187.43275 
L 285.426853 214.444319 
L 288.329679 205.182395 
L 291.232506 189.78796 
L 294.135332 184.617093 
L 297.038159 172.315399 
L 299.940985 197.350711 
L 302.843812 193.7527 
L 305.746639 204.990881 
L 308.649465 179.140618 
L 311.552292 218.095302 
L 314.455118 185.912866 
L 317.357945 190.651809 
L 320.260772 201.596608 
L 323.163598 201.596608 
L 326.066425 180.566784 
L 328.969251 210.846308 
L 331.872078 228.864887 
L 334.774905 187.823927 
L 337.677731 206.958989 
L 340.580558 216.367605 
L 343.483384 189.209345 
L 346.386211 193.043692 
L 349.289037 202.578625 
L 352.191864 225.319848 
L 355.094691 207.6191 
L 357.997517 206.465944 
L 360.900344 205.170171 
L 363.80317 202.847559 
L 366.705997 191.279322 
L 369.608824 216.591717 
L 372.51165 225.238353 
L 375.414477 210.357337 
L 378.317303 206.832672 
L 381.22013 219.134365 
L 384.122956 212.154305 
L 387.025783 225.217979 
L 389.92861 212.040212 
L 392.831436 230.918565 
L 395.734263 233.950185 
L 398.637089 230.299202 
L 401.539916 223.526954 
L 404.442743 220.108233 
L 407.345569 219.158814 
L 410.248396 223.722543 
L 413.151222 228.958606 
L 416.054049 220.959857 
L 418.956875 205.239442 
L 421.859702 222.679405 
L 424.762529 222.047817 
L 427.665355 220.74797 
L 430.568182 224.044449 
" clip-path="url(#pcf78617977)" style="fill: none; stroke: #dd8452; stroke-width: 3; stroke-linecap: round"/>
   </g>
   <g id="line2d_16">
    <path d="M 85.131818 177.510715 
L 88.034645 163.880651 
L 90.937471 173.924928 
L 93.840298 196.417591 
L 96.743125 192.892926 
L 99.645951 117.713646 
L 102.548778 99.703216 
L 105.451604 114.698325 
L 108.354431 115.574398 
L 111.257257 120.138126 
L 114.160084 104.796664 
L 117.062911 123.092326 
L 119.965737 152.53245 
L 122.868564 153.082543 
L 125.77139 125.679797 
L 128.674217 121.788403 
L 131.577044 135.724075 
L 134.47987 150.067222 
L 137.382697 133.890434 
L 140.285523 149.191149 
L 143.18835 177.490341 
L 146.091176 169.177836 
L 148.994003 158.237111 
L 151.89683 144.525551 
L 154.799656 156.729451 
L 157.702483 171.62269 
L 160.605309 157.687019 
L 163.508136 190.509192 
L 166.410963 187.025275 
L 169.313789 186.780789 
L 172.216616 189.083027 
L 175.119442 178.712769 
L 178.022269 193.83012 
L 180.925095 195.867499 
L 183.827922 169.564938 
L 186.730749 235.942741 
L 189.633575 227.120891 
L 192.536402 225.857716 
L 195.439228 202.468606 
L 198.342055 226.754162 
L 201.244882 197.986373 
L 204.147708 213.368583 
L 207.050535 209.314199 
L 209.953361 250.428505 
L 212.856188 226.978274 
L 215.759015 203.548417 
L 218.661841 224.920521 
L 221.564668 219.562215 
L 224.467494 226.570798 
L 227.370321 224.125944 
L 230.273147 215.222598 
L 233.175974 230.034342 
L 236.078801 229.137896 
L 238.981627 245.905524 
L 241.884454 263.325113 
L 244.78728 238.73395 
L 247.690107 257.212976 
L 250.592934 271.230143 
L 253.49576 253.484573 
L 256.398587 255.481204 
L 259.301413 260.859885 
L 262.20424 269.070521 
L 265.107066 270.476313 
L 268.009893 266.014453 
L 270.91272 239.528528 
L 273.815546 275.284527 
L 276.718373 269.742856 
L 279.621199 275.14191 
L 282.524026 252.058408 
L 285.426853 267.379497 
L 288.329679 272.187711 
L 291.232506 270.659677 
L 294.135332 271.454255 
L 297.038159 269.192764 
L 299.940985 278.544333 
L 302.843812 272.921168 
L 305.746639 272.941541 
L 308.649465 278.381343 
L 311.552292 277.179289 
L 314.455118 276.995925 
L 317.357945 273.695371 
L 320.260772 278.136857 
L 323.163598 270.211454 
L 326.066425 272.146964 
L 328.969251 278.829566 
L 331.872078 278.197979 
L 334.774905 263.79371 
L 337.677731 276.934804 
L 340.580558 280.153862 
L 343.483384 278.931435 
L 346.386211 278.381343 
L 349.289037 278.564707 
L 352.191864 278.727697 
L 355.094691 279.461154 
L 357.997517 275.427144 
L 360.900344 277.566391 
L 363.80317 278.136857 
L 366.705997 279.583396 
L 369.608824 278.238726 
L 372.51165 277.871998 
L 375.414477 278.2591 
L 378.317303 280.03162 
L 381.22013 278.646202 
L 384.122956 278.177605 
L 387.025783 279.76676 
L 389.92861 277.66826 
L 392.831436 279.033304 
L 395.734263 277.057047 
L 398.637089 276.91443 
L 401.539916 277.66826 
L 404.442743 277.749755 
L 407.345569 278.340595 
L 410.248396 278.42209 
L 413.151222 277.831251 
L 416.054049 279.338911 
L 418.956875 277.525644 
L 421.859702 276.405085 
L 424.762529 279.583396 
L 427.665355 278.809192 
L 430.568182 277.301532 
" clip-path="url(#pcf78617977)" style="fill: none; stroke: #55a868; stroke-width: 3; stroke-linecap: round"/>
   </g>
   <g id="patch_3">
    <path d="M 67.86 294.66 
L 67.86 29.76 
" style="fill: none; stroke: #ffffff; stroke-width: 1.25; stroke-linejoin: miter; stroke-linecap: square"/>
   </g>
   <g id="patch_4">
    <path d="M 447.84 294.66 
L 447.84 29.76 
" style="fill: none; stroke: #ffffff; stroke-width: 1.25; stroke-linejoin: miter; stroke-linecap: square"/>
   </g>
   <g id="patch_5">
    <path d="M 67.86 294.66 
L 447.84 294.66 
" style="fill: none; stroke: #ffffff; stroke-width: 1.25; stroke-linejoin: miter; stroke-linecap: square"/>
   </g>
   <g id="patch_6">
    <path d="M 67.86 29.76 
L 447.84 29.76 
" style="fill: none; stroke: #ffffff; stroke-width: 1.25; stroke-linejoin: miter; stroke-linecap: square"/>
   </g>
   <g id="text_16">
    <!-- zinc-coating-v0 -->
    <g style="fill: #262626" transform="translate(204.491406 23.76)scale(0.14 -0.14)">
     <defs>
      <path id="DejaVuSans-7a" d="M 353 3500 
L 3084 3500 
L 3084 2975 
L 922 459 
L 3084 459 
L 3084 0 
L 275 0 
L 275 525 
L 2438 3041 
L 353 3041 
L 353 3500 
z
" transform="scale(0.015625)"/>
      <path id="DejaVuSans-63" d="M 3122 3366 
L 3122 2828 
Q 2878 2963 2633 3030 
Q 2388 3097 2138 3097 
Q 1578 3097 1268 2742 
Q 959 2388 959 1747 
Q 959 1106 1268 751 
Q 1578 397 2138 397 
Q 2388 397 2633 464 
Q 2878 531 3122 666 
L 3122 134 
Q 2881 22 2623 -34 
Q 2366 -91 2075 -91 
Q 1284 -91 818 406 
Q 353 903 353 1747 
Q 353 2603 823 3093 
Q 1294 3584 2113 3584 
Q 2378 3584 2631 3529 
Q 2884 3475 3122 3366 
z
" transform="scale(0.015625)"/>
      <path id="DejaVuSans-2d" d="M 313 2009 
L 1997 2009 
L 1997 1497 
L 313 1497 
L 313 2009 
z
" transform="scale(0.015625)"/>
      <path id="DejaVuSans-61" d="M 2194 1759 
Q 1497 1759 1228 1600 
Q 959 1441 959 1056 
Q 959 750 1161 570 
Q 1363 391 1709 391 
Q 2188 391 2477 730 
Q 2766 1069 2766 1631 
L 2766 1759 
L 2194 1759 
z
M 3341 1997 
L 3341 0 
L 2766 0 
L 2766 531 
Q 2569 213 2275 61 
Q 1981 -91 1556 -91 
Q 1019 -91 701 211 
Q 384 513 384 1019 
Q 384 1609 779 1909 
Q 1175 2209 1959 2209 
L 2766 2209 
L 2766 2266 
Q 2766 2663 2505 2880 
Q 2244 3097 1772 3097 
Q 1472 3097 1187 3025 
Q 903 2953 641 2809 
L 641 3341 
Q 956 3463 1253 3523 
Q 1550 3584 1831 3584 
Q 2591 3584 2966 3190 
Q 3341 2797 3341 1997 
z
" transform="scale(0.015625)"/>
      <path id="DejaVuSans-76" d="M 191 3500 
L 800 3500 
L 1894 563 
L 2988 3500 
L 3597 3500 
L 2284 0 
L 1503 0 
L 191 3500 
z
" transform="scale(0.015625)"/>
     </defs>
     <use xlink:href="#DejaVuSans-7a"/>
     <use xlink:href="#DejaVuSans-69" x="52.490234"/>
     <use xlink:href="#DejaVuSans-6e" x="80.273438"/>
     <use xlink:href="#DejaVuSans-63" x="143.652344"/>
     <use xlink:href="#DejaVuSans-2d" x="198.632812"/>
     <use xlink:href="#DejaVuSans-63" x="234.716797"/>
     <use xlink:href="#DejaVuSans-6f" x="289.697266"/>
     <use xlink:href="#DejaVuSans-61" x="350.878906"/>
     <use xlink:href="#DejaVuSans-74" x="412.158203"/>
     <use xlink:href="#DejaVuSans-69" x="451.367188"/>
     <use xlink:href="#DejaVuSans-6e" x="479.150391"/>
     <use xlink:href="#DejaVuSans-67" x="542.529297"/>
     <use xlink:href="#DejaVuSans-2d" x="606.005859"/>
     <use xlink:href="#DejaVuSans-76" x="639.464844"/>
     <use xlink:href="#DejaVuSans-30" x="698.644531"/>
    </g>
   </g>
   <g id="legend_1">
    <g id="patch_7">
     <path d="M 312.723906 86.997813 
L 440.14 86.997813 
Q 442.34 86.997813 442.34 84.797813 
L 442.34 37.46 
Q 442.34 35.26 440.14 35.26 
L 312.723906 35.26 
Q 310.523906 35.26 310.523906 37.46 
L 310.523906 84.797813 
Q 310.523906 86.997813 312.723906 86.997813 
z
" style="fill: #eaeaf2; opacity: 0.8; stroke: #cccccc; stroke-linejoin: miter"/>
    </g>
    <g id="line2d_17">
     <path d="M 314.923906 44.168281 
L 325.923906 44.168281 
L 336.923906 44.168281 
" style="fill: none; stroke: #4c72b0; stroke-width: 3; stroke-linecap: round"/>
    </g>
    <g id="text_17">
     <!-- SAC-DELAY-20 -->
     <g style="fill: #262626" transform="translate(345.723906 48.018281)scale(0.11 -0.11)">
      <defs>
       <path id="DejaVuSans-53" d="M 3425 4513 
L 3425 3897 
Q 3066 4069 2747 4153 
Q 2428 4238 2131 4238 
Q 1616 4238 1336 4038 
Q 1056 3838 1056 3469 
Q 1056 3159 1242 3001 
Q 1428 2844 1947 2747 
L 2328 2669 
Q 3034 2534 3370 2195 
Q 3706 1856 3706 1288 
Q 3706 609 3251 259 
Q 2797 -91 1919 -91 
Q 1588 -91 1214 -16 
Q 841 59 441 206 
L 441 856 
Q 825 641 1194 531 
Q 1563 422 1919 422 
Q 2459 422 2753 634 
Q 3047 847 3047 1241 
Q 3047 1584 2836 1778 
Q 2625 1972 2144 2069 
L 1759 2144 
Q 1053 2284 737 2584 
Q 422 2884 422 3419 
Q 422 4038 858 4394 
Q 1294 4750 2059 4750 
Q 2388 4750 2728 4690 
Q 3069 4631 3425 4513 
z
" transform="scale(0.015625)"/>
       <path id="DejaVuSans-41" d="M 2188 4044 
L 1331 1722 
L 3047 1722 
L 2188 4044 
z
M 1831 4666 
L 2547 4666 
L 4325 0 
L 3669 0 
L 3244 1197 
L 1141 1197 
L 716 0 
L 50 0 
L 1831 4666 
z
" transform="scale(0.015625)"/>
       <path id="DejaVuSans-43" d="M 4122 4306 
L 4122 3641 
Q 3803 3938 3442 4084 
Q 3081 4231 2675 4231 
Q 1875 4231 1450 3742 
Q 1025 3253 1025 2328 
Q 1025 1406 1450 917 
Q 1875 428 2675 428 
Q 3081 428 3442 575 
Q 3803 722 4122 1019 
L 4122 359 
Q 3791 134 3420 21 
Q 3050 -91 2638 -91 
Q 1578 -91 968 557 
Q 359 1206 359 2328 
Q 359 3453 968 4101 
Q 1578 4750 2638 4750 
Q 3056 4750 3426 4639 
Q 3797 4528 4122 4306 
z
" transform="scale(0.015625)"/>
       <path id="DejaVuSans-44" d="M 1259 4147 
L 1259 519 
L 2022 519 
Q 2988 519 3436 956 
Q 3884 1394 3884 2338 
Q 3884 3275 3436 3711 
Q 2988 4147 2022 4147 
L 1259 4147 
z
M 628 4666 
L 1925 4666 
Q 3281 4666 3915 4102 
Q 4550 3538 4550 2338 
Q 4550 1131 3912 565 
Q 3275 0 1925 0 
L 628 0 
L 628 4666 
z
" transform="scale(0.015625)"/>
       <path id="DejaVuSans-45" d="M 628 4666 
L 3578 4666 
L 3578 4134 
L 1259 4134 
L 1259 2753 
L 3481 2753 
L 3481 2222 
L 1259 2222 
L 1259 531 
L 3634 531 
L 3634 0 
L 628 0 
L 628 4666 
z
" transform="scale(0.015625)"/>
       <path id="DejaVuSans-4c" d="M 628 4666 
L 1259 4666 
L 1259 531 
L 3531 531 
L 3531 0 
L 628 0 
L 628 4666 
z
" transform="scale(0.015625)"/>
       <path id="DejaVuSans-59" d="M -13 4666 
L 666 4666 
L 1959 2747 
L 3244 4666 
L 3922 4666 
L 2272 2222 
L 2272 0 
L 1638 0 
L 1638 2222 
L -13 4666 
z
" transform="scale(0.015625)"/>
      </defs>
      <use xlink:href="#DejaVuSans-53"/>
      <use xlink:href="#DejaVuSans-41" x="65.351562"/>
      <use xlink:href="#DejaVuSans-43" x="132.009766"/>
      <use xlink:href="#DejaVuSans-2d" x="201.833984"/>
      <use xlink:href="#DejaVuSans-44" x="237.917969"/>
      <use xlink:href="#DejaVuSans-45" x="314.919922"/>
      <use xlink:href="#DejaVuSans-4c" x="378.103516"/>
      <use xlink:href="#DejaVuSans-41" x="436.066406"/>
      <use xlink:href="#DejaVuSans-59" x="496.724609"/>
      <use xlink:href="#DejaVuSans-2d" x="545.933594"/>
      <use xlink:href="#DejaVuSans-32" x="582.017578"/>
      <use xlink:href="#DejaVuSans-30" x="645.640625"/>
     </g>
    </g>
    <g id="line2d_18">
     <path d="M 314.923906 60.314219 
L 325.923906 60.314219 
L 336.923906 60.314219 
" style="fill: none; stroke: #dd8452; stroke-width: 3; stroke-linecap: round"/>
    </g>
    <g id="text_18">
     <!-- SAC-IS-DELAY-20 -->
     <g style="fill: #262626" transform="translate(345.723906 64.164219)scale(0.11 -0.11)">
      <defs>
       <path id="DejaVuSans-49" d="M 628 4666 
L 1259 4666 
L 1259 0 
L 628 0 
L 628 4666 
z
" transform="scale(0.015625)"/>
      </defs>
      <use xlink:href="#DejaVuSans-53"/>
      <use xlink:href="#DejaVuSans-41" x="65.351562"/>
      <use xlink:href="#DejaVuSans-43" x="132.009766"/>
      <use xlink:href="#DejaVuSans-2d" x="201.833984"/>
      <use xlink:href="#DejaVuSans-49" x="237.917969"/>
      <use xlink:href="#DejaVuSans-53" x="267.410156"/>
      <use xlink:href="#DejaVuSans-2d" x="330.886719"/>
      <use xlink:href="#DejaVuSans-44" x="366.970703"/>
      <use xlink:href="#DejaVuSans-45" x="443.972656"/>
      <use xlink:href="#DejaVuSans-4c" x="507.15625"/>
      <use xlink:href="#DejaVuSans-41" x="565.119141"/>
      <use xlink:href="#DejaVuSans-59" x="625.777344"/>
      <use xlink:href="#DejaVuSans-2d" x="674.986328"/>
      <use xlink:href="#DejaVuSans-32" x="711.070312"/>
      <use xlink:href="#DejaVuSans-30" x="774.693359"/>
     </g>
    </g>
    <g id="line2d_19">
     <path d="M 314.923906 76.460156 
L 325.923906 76.460156 
L 336.923906 76.460156 
" style="fill: none; stroke: #55a868; stroke-width: 3; stroke-linecap: round"/>
    </g>
    <g id="text_19">
     <!-- DCAC-DELAY-20 -->
     <g style="fill: #262626" transform="translate(345.723906 80.310156)scale(0.11 -0.11)">
      <use xlink:href="#DejaVuSans-44"/>
      <use xlink:href="#DejaVuSans-43" x="77.001953"/>
      <use xlink:href="#DejaVuSans-41" x="146.826172"/>
      <use xlink:href="#DejaVuSans-43" x="213.484375"/>
      <use xlink:href="#DejaVuSans-2d" x="283.308594"/>
      <use xlink:href="#DejaVuSans-44" x="319.392578"/>
      <use xlink:href="#DejaVuSans-45" x="396.394531"/>
      <use xlink:href="#DejaVuSans-4c" x="459.578125"/>
      <use xlink:href="#DejaVuSans-41" x="517.541016"/>
      <use xlink:href="#DejaVuSans-59" x="578.199219"/>
      <use xlink:href="#DejaVuSans-2d" x="627.408203"/>
      <use xlink:href="#DejaVuSans-32" x="663.492188"/>
      <use xlink:href="#DejaVuSans-30" x="727.115234"/>
     </g>
    </g>
   </g>
  </g>
 </g>
 <defs>
  <clipPath id="pcf78617977">
   <rect x="67.86" y="29.76" width="379.98" height="264.9"/>
  </clipPath>
 </defs>
</svg>
