<?xml version="1.0" encoding="utf-8" standalone="no"?>
<!DOCTYPE svg PUBLIC "-//W3C//DTD SVG 1.1//EN"
  "http://www.w3.org/Graphics/SVG/1.1/DTD/svg11.dtd">
<svg xmlns:xlink="http://www.w3.org/1999/xlink" width="460.8pt" height="345.6pt" viewBox="0 0 460.8 345.6" xmlns="http://www.w3.org/2000/svg" version="1.1">
 <metadata>
  <rdf:RDF xmlns:dc="http://purl.org/dc/elements/1.1/" xmlns:cc="http://creativecommons.org/ns#" xmlns:rdf="http://www.w3.org/1999/02/22-rdf-syntax-ns#">
   <cc:Work>
    <dc:type rdf:resource="http://purl.org/dc/dcmitype/StillImage"/>
    <dc:date>2022-09-12T15:17:51.832754</dc:date>
    <dc:format>image/svg+xml</dc:format>
    <dc:creator>
     <cc:Agent>
      <dc:title>Matplotlib v3.5.3, https://matplotlib.org/</dc:title>
     </cc:Agent>
    </dc:creator>
   </cc:Work>
  </rdf:RDF>
 </metadata>
 <defs>
  <style type="text/css">*{stroke-linejoin: round; stroke-linecap: butt}</style>
 </defs>
 <g id="figure_1">
  <g id="patch_1">
   <path d="M 0 345.6 
L 460.8 345.6 
L 460.8 0 
L 0 0 
z
" style="fill: #ffffff"/>
  </g>
  <g id="axes_1">
   <g id="patch_2">
    <path d="M 67.86 294.66 
L 447.84 294.66 
L 447.84 12.96 
L 67.86 12.96 
z
" style="fill: #eaeaf2"/>
   </g>
   <g id="matplotlib.axis_1">
    <g id="xtick_1">
     <g id="line2d_1">
      <path d="M 82.228992 294.66 
L 82.228992 12.96 
" clip-path="url(#p06f6badf72)" style="fill: none; stroke: #ffffff; stroke-linecap: round"/>
     </g>
     <g id="text_1">
      <!-- 0.00 -->
      <g style="fill: #262626" transform="translate(69.982898 312.518281)scale(0.11 -0.11)">
       <defs>
        <path id="DejaVuSans-30" d="M 2034 4250 
Q 1547 4250 1301 3770 
Q 1056 3291 1056 2328 
Q 1056 1369 1301 889 
Q 1547 409 2034 409 
Q 2525 409 2770 889 
Q 3016 1369 3016 2328 
Q 3016 3291 2770 3770 
Q 2525 4250 2034 4250 
z
M 2034 4750 
Q 2819 4750 3233 4129 
Q 3647 3509 3647 2328 
Q 3647 1150 3233 529 
Q 2819 -91 2034 -91 
Q 1250 -91 836 529 
Q 422 1150 422 2328 
Q 422 3509 836 4129 
Q 1250 4750 2034 4750 
z
" transform="scale(0.015625)"/>
        <path id="DejaVuSans-2e" d="M 684 794 
L 1344 794 
L 1344 0 
L 684 0 
L 684 794 
z
" transform="scale(0.015625)"/>
       </defs>
       <use xlink:href="#DejaVuSans-30"/>
       <use xlink:href="#DejaVuSans-2e" x="63.623047"/>
       <use xlink:href="#DejaVuSans-30" x="95.410156"/>
       <use xlink:href="#DejaVuSans-30" x="159.033203"/>
      </g>
     </g>
    </g>
    <g id="xtick_2">
     <g id="line2d_2">
      <path d="M 140.285523 294.66 
L 140.285523 12.96 
" clip-path="url(#p06f6badf72)" style="fill: none; stroke: #ffffff; stroke-linecap: round"/>
     </g>
     <g id="text_2">
      <!-- 0.05 -->
      <g style="fill: #262626" transform="translate(128.03943 312.518281)scale(0.11 -0.11)">
       <defs>
        <path id="DejaVuSans-35" d="M 691 4666 
L 3169 4666 
L 3169 4134 
L 1269 4134 
L 1269 2991 
Q 1406 3038 1543 3061 
Q 1681 3084 1819 3084 
Q 2600 3084 3056 2656 
Q 3513 2228 3513 1497 
Q 3513 744 3044 326 
Q 2575 -91 1722 -91 
Q 1428 -91 1123 -41 
Q 819 9 494 109 
L 494 744 
Q 775 591 1075 516 
Q 1375 441 1709 441 
Q 2250 441 2565 725 
Q 2881 1009 2881 1497 
Q 2881 1984 2565 2268 
Q 2250 2553 1709 2553 
Q 1456 2553 1204 2497 
Q 953 2441 691 2322 
L 691 4666 
z
" transform="scale(0.015625)"/>
       </defs>
       <use xlink:href="#DejaVuSans-30"/>
       <use xlink:href="#DejaVuSans-2e" x="63.623047"/>
       <use xlink:href="#DejaVuSans-30" x="95.410156"/>
       <use xlink:href="#DejaVuSans-35" x="159.033203"/>
      </g>
     </g>
    </g>
    <g id="xtick_3">
     <g id="line2d_3">
      <path d="M 198.342055 294.66 
L 198.342055 12.96 
" clip-path="url(#p06f6badf72)" style="fill: none; stroke: #ffffff; stroke-linecap: round"/>
     </g>
     <g id="text_3">
      <!-- 0.10 -->
      <g style="fill: #262626" transform="translate(186.095961 312.518281)scale(0.11 -0.11)">
       <defs>
        <path id="DejaVuSans-31" d="M 794 531 
L 1825 531 
L 1825 4091 
L 703 3866 
L 703 4441 
L 1819 4666 
L 2450 4666 
L 2450 531 
L 3481 531 
L 3481 0 
L 794 0 
L 794 531 
z
" transform="scale(0.015625)"/>
       </defs>
       <use xlink:href="#DejaVuSans-30"/>
       <use xlink:href="#DejaVuSans-2e" x="63.623047"/>
       <use xlink:href="#DejaVuSans-31" x="95.410156"/>
       <use xlink:href="#DejaVuSans-30" x="159.033203"/>
      </g>
     </g>
    </g>
    <g id="xtick_4">
     <g id="line2d_4">
      <path d="M 256.398587 294.66 
L 256.398587 12.96 
" clip-path="url(#p06f6badf72)" style="fill: none; stroke: #ffffff; stroke-linecap: round"/>
     </g>
     <g id="text_4">
      <!-- 0.15 -->
      <g style="fill: #262626" transform="translate(244.152493 312.518281)scale(0.11 -0.11)">
       <use xlink:href="#DejaVuSans-30"/>
       <use xlink:href="#DejaVuSans-2e" x="63.623047"/>
       <use xlink:href="#DejaVuSans-31" x="95.410156"/>
       <use xlink:href="#DejaVuSans-35" x="159.033203"/>
      </g>
     </g>
    </g>
    <g id="xtick_5">
     <g id="line2d_5">
      <path d="M 314.455118 294.66 
L 314.455118 12.96 
" clip-path="url(#p06f6badf72)" style="fill: none; stroke: #ffffff; stroke-linecap: round"/>
     </g>
     <g id="text_5">
      <!-- 0.20 -->
      <g style="fill: #262626" transform="translate(302.209025 312.518281)scale(0.11 -0.11)">
       <defs>
        <path id="DejaVuSans-32" d="M 1228 531 
L 3431 531 
L 3431 0 
L 469 0 
L 469 531 
Q 828 903 1448 1529 
Q 2069 2156 2228 2338 
Q 2531 2678 2651 2914 
Q 2772 3150 2772 3378 
Q 2772 3750 2511 3984 
Q 2250 4219 1831 4219 
Q 1534 4219 1204 4116 
Q 875 4013 500 3803 
L 500 4441 
Q 881 4594 1212 4672 
Q 1544 4750 1819 4750 
Q 2544 4750 2975 4387 
Q 3406 4025 3406 3419 
Q 3406 3131 3298 2873 
Q 3191 2616 2906 2266 
Q 2828 2175 2409 1742 
Q 1991 1309 1228 531 
z
" transform="scale(0.015625)"/>
       </defs>
       <use xlink:href="#DejaVuSans-30"/>
       <use xlink:href="#DejaVuSans-2e" x="63.623047"/>
       <use xlink:href="#DejaVuSans-32" x="95.410156"/>
       <use xlink:href="#DejaVuSans-30" x="159.033203"/>
      </g>
     </g>
    </g>
    <g id="xtick_6">
     <g id="line2d_6">
      <path d="M 372.51165 294.66 
L 372.51165 12.96 
" clip-path="url(#p06f6badf72)" style="fill: none; stroke: #ffffff; stroke-linecap: round"/>
     </g>
     <g id="text_6">
      <!-- 0.25 -->
      <g style="fill: #262626" transform="translate(360.265556 312.518281)scale(0.11 -0.11)">
       <use xlink:href="#DejaVuSans-30"/>
       <use xlink:href="#DejaVuSans-2e" x="63.623047"/>
       <use xlink:href="#DejaVuSans-32" x="95.410156"/>
       <use xlink:href="#DejaVuSans-35" x="159.033203"/>
      </g>
     </g>
    </g>
    <g id="xtick_7">
     <g id="line2d_7">
      <path d="M 430.568182 294.66 
L 430.568182 12.96 
" clip-path="url(#p06f6badf72)" style="fill: none; stroke: #ffffff; stroke-linecap: round"/>
     </g>
     <g id="text_7">
      <!-- 0.30 -->
      <g style="fill: #262626" transform="translate(418.322088 312.518281)scale(0.11 -0.11)">
       <defs>
        <path id="DejaVuSans-33" d="M 2597 2516 
Q 3050 2419 3304 2112 
Q 3559 1806 3559 1356 
Q 3559 666 3084 287 
Q 2609 -91 1734 -91 
Q 1441 -91 1130 -33 
Q 819 25 488 141 
L 488 750 
Q 750 597 1062 519 
Q 1375 441 1716 441 
Q 2309 441 2620 675 
Q 2931 909 2931 1356 
Q 2931 1769 2642 2001 
Q 2353 2234 1838 2234 
L 1294 2234 
L 1294 2753 
L 1863 2753 
Q 2328 2753 2575 2939 
Q 2822 3125 2822 3475 
Q 2822 3834 2567 4026 
Q 2313 4219 1838 4219 
Q 1578 4219 1281 4162 
Q 984 4106 628 3988 
L 628 4550 
Q 988 4650 1302 4700 
Q 1616 4750 1894 4750 
Q 2613 4750 3031 4423 
Q 3450 4097 3450 3541 
Q 3450 3153 3228 2886 
Q 3006 2619 2597 2516 
z
" transform="scale(0.015625)"/>
       </defs>
       <use xlink:href="#DejaVuSans-30"/>
       <use xlink:href="#DejaVuSans-2e" x="63.623047"/>
       <use xlink:href="#DejaVuSans-33" x="95.410156"/>
       <use xlink:href="#DejaVuSans-30" x="159.033203"/>
      </g>
     </g>
    </g>
    <g id="text_8">
     <!-- Zeitschritte (in Millionen) -->
     <g style="fill: #262626" transform="translate(169.935469 329.44375)scale(0.14 -0.14)">
      <defs>
       <path id="DejaVuSans-5a" d="M 359 4666 
L 4025 4666 
L 4025 4184 
L 1075 531 
L 4097 531 
L 4097 0 
L 288 0 
L 288 481 
L 3238 4134 
L 359 4134 
L 359 4666 
z
" transform="scale(0.015625)"/>
       <path id="DejaVuSans-65" d="M 3597 1894 
L 3597 1613 
L 953 1613 
Q 991 1019 1311 708 
Q 1631 397 2203 397 
Q 2534 397 2845 478 
Q 3156 559 3463 722 
L 3463 178 
Q 3153 47 2828 -22 
Q 2503 -91 2169 -91 
Q 1331 -91 842 396 
Q 353 884 353 1716 
Q 353 2575 817 3079 
Q 1281 3584 2069 3584 
Q 2775 3584 3186 3129 
Q 3597 2675 3597 1894 
z
M 3022 2063 
Q 3016 2534 2758 2815 
Q 2500 3097 2075 3097 
Q 1594 3097 1305 2825 
Q 1016 2553 972 2059 
L 3022 2063 
z
" transform="scale(0.015625)"/>
       <path id="DejaVuSans-69" d="M 603 3500 
L 1178 3500 
L 1178 0 
L 603 0 
L 603 3500 
z
M 603 4863 
L 1178 4863 
L 1178 4134 
L 603 4134 
L 603 4863 
z
" transform="scale(0.015625)"/>
       <path id="DejaVuSans-74" d="M 1172 4494 
L 1172 3500 
L 2356 3500 
L 2356 3053 
L 1172 3053 
L 1172 1153 
Q 1172 725 1289 603 
Q 1406 481 1766 481 
L 2356 481 
L 2356 0 
L 1766 0 
Q 1100 0 847 248 
Q 594 497 594 1153 
L 594 3053 
L 172 3053 
L 172 3500 
L 594 3500 
L 594 4494 
L 1172 4494 
z
" transform="scale(0.015625)"/>
       <path id="DejaVuSans-73" d="M 2834 3397 
L 2834 2853 
Q 2591 2978 2328 3040 
Q 2066 3103 1784 3103 
Q 1356 3103 1142 2972 
Q 928 2841 928 2578 
Q 928 2378 1081 2264 
Q 1234 2150 1697 2047 
L 1894 2003 
Q 2506 1872 2764 1633 
Q 3022 1394 3022 966 
Q 3022 478 2636 193 
Q 2250 -91 1575 -91 
Q 1294 -91 989 -36 
Q 684 19 347 128 
L 347 722 
Q 666 556 975 473 
Q 1284 391 1588 391 
Q 1994 391 2212 530 
Q 2431 669 2431 922 
Q 2431 1156 2273 1281 
Q 2116 1406 1581 1522 
L 1381 1569 
Q 847 1681 609 1914 
Q 372 2147 372 2553 
Q 372 3047 722 3315 
Q 1072 3584 1716 3584 
Q 2034 3584 2315 3537 
Q 2597 3491 2834 3397 
z
" transform="scale(0.015625)"/>
       <path id="DejaVuSans-63" d="M 3122 3366 
L 3122 2828 
Q 2878 2963 2633 3030 
Q 2388 3097 2138 3097 
Q 1578 3097 1268 2742 
Q 959 2388 959 1747 
Q 959 1106 1268 751 
Q 1578 397 2138 397 
Q 2388 397 2633 464 
Q 2878 531 3122 666 
L 3122 134 
Q 2881 22 2623 -34 
Q 2366 -91 2075 -91 
Q 1284 -91 818 406 
Q 353 903 353 1747 
Q 353 2603 823 3093 
Q 1294 3584 2113 3584 
Q 2378 3584 2631 3529 
Q 2884 3475 3122 3366 
z
" transform="scale(0.015625)"/>
       <path id="DejaVuSans-68" d="M 3513 2113 
L 3513 0 
L 2938 0 
L 2938 2094 
Q 2938 2591 2744 2837 
Q 2550 3084 2163 3084 
Q 1697 3084 1428 2787 
Q 1159 2491 1159 1978 
L 1159 0 
L 581 0 
L 581 4863 
L 1159 4863 
L 1159 2956 
Q 1366 3272 1645 3428 
Q 1925 3584 2291 3584 
Q 2894 3584 3203 3211 
Q 3513 2838 3513 2113 
z
" transform="scale(0.015625)"/>
       <path id="DejaVuSans-72" d="M 2631 2963 
Q 2534 3019 2420 3045 
Q 2306 3072 2169 3072 
Q 1681 3072 1420 2755 
Q 1159 2438 1159 1844 
L 1159 0 
L 581 0 
L 581 3500 
L 1159 3500 
L 1159 2956 
Q 1341 3275 1631 3429 
Q 1922 3584 2338 3584 
Q 2397 3584 2469 3576 
Q 2541 3569 2628 3553 
L 2631 2963 
z
" transform="scale(0.015625)"/>
       <path id="DejaVuSans-20" transform="scale(0.015625)"/>
       <path id="DejaVuSans-28" d="M 1984 4856 
Q 1566 4138 1362 3434 
Q 1159 2731 1159 2009 
Q 1159 1288 1364 580 
Q 1569 -128 1984 -844 
L 1484 -844 
Q 1016 -109 783 600 
Q 550 1309 550 2009 
Q 550 2706 781 3412 
Q 1013 4119 1484 4856 
L 1984 4856 
z
" transform="scale(0.015625)"/>
       <path id="DejaVuSans-6e" d="M 3513 2113 
L 3513 0 
L 2938 0 
L 2938 2094 
Q 2938 2591 2744 2837 
Q 2550 3084 2163 3084 
Q 1697 3084 1428 2787 
Q 1159 2491 1159 1978 
L 1159 0 
L 581 0 
L 581 3500 
L 1159 3500 
L 1159 2956 
Q 1366 3272 1645 3428 
Q 1925 3584 2291 3584 
Q 2894 3584 3203 3211 
Q 3513 2838 3513 2113 
z
" transform="scale(0.015625)"/>
       <path id="DejaVuSans-4d" d="M 628 4666 
L 1569 4666 
L 2759 1491 
L 3956 4666 
L 4897 4666 
L 4897 0 
L 4281 0 
L 4281 4097 
L 3078 897 
L 2444 897 
L 1241 4097 
L 1241 0 
L 628 0 
L 628 4666 
z
" transform="scale(0.015625)"/>
       <path id="DejaVuSans-6c" d="M 603 4863 
L 1178 4863 
L 1178 0 
L 603 0 
L 603 4863 
z
" transform="scale(0.015625)"/>
       <path id="DejaVuSans-6f" d="M 1959 3097 
Q 1497 3097 1228 2736 
Q 959 2375 959 1747 
Q 959 1119 1226 758 
Q 1494 397 1959 397 
Q 2419 397 2687 759 
Q 2956 1122 2956 1747 
Q 2956 2369 2687 2733 
Q 2419 3097 1959 3097 
z
M 1959 3584 
Q 2709 3584 3137 3096 
Q 3566 2609 3566 1747 
Q 3566 888 3137 398 
Q 2709 -91 1959 -91 
Q 1206 -91 779 398 
Q 353 888 353 1747 
Q 353 2609 779 3096 
Q 1206 3584 1959 3584 
z
" transform="scale(0.015625)"/>
       <path id="DejaVuSans-29" d="M 513 4856 
L 1013 4856 
Q 1481 4119 1714 3412 
Q 1947 2706 1947 2009 
Q 1947 1309 1714 600 
Q 1481 -109 1013 -844 
L 513 -844 
Q 928 -128 1133 580 
Q 1338 1288 1338 2009 
Q 1338 2731 1133 3434 
Q 928 4138 513 4856 
z
" transform="scale(0.015625)"/>
      </defs>
      <use xlink:href="#DejaVuSans-5a"/>
      <use xlink:href="#DejaVuSans-65" x="68.505859"/>
      <use xlink:href="#DejaVuSans-69" x="130.029297"/>
      <use xlink:href="#DejaVuSans-74" x="157.8125"/>
      <use xlink:href="#DejaVuSans-73" x="197.021484"/>
      <use xlink:href="#DejaVuSans-63" x="249.121094"/>
      <use xlink:href="#DejaVuSans-68" x="304.101562"/>
      <use xlink:href="#DejaVuSans-72" x="367.480469"/>
      <use xlink:href="#DejaVuSans-69" x="408.59375"/>
      <use xlink:href="#DejaVuSans-74" x="436.376953"/>
      <use xlink:href="#DejaVuSans-74" x="475.585938"/>
      <use xlink:href="#DejaVuSans-65" x="514.794922"/>
      <use xlink:href="#DejaVuSans-20" x="576.318359"/>
      <use xlink:href="#DejaVuSans-28" x="608.105469"/>
      <use xlink:href="#DejaVuSans-69" x="647.119141"/>
      <use xlink:href="#DejaVuSans-6e" x="674.902344"/>
      <use xlink:href="#DejaVuSans-20" x="738.28125"/>
      <use xlink:href="#DejaVuSans-4d" x="770.068359"/>
      <use xlink:href="#DejaVuSans-69" x="856.347656"/>
      <use xlink:href="#DejaVuSans-6c" x="884.130859"/>
      <use xlink:href="#DejaVuSans-6c" x="911.914062"/>
      <use xlink:href="#DejaVuSans-69" x="939.697266"/>
      <use xlink:href="#DejaVuSans-6f" x="967.480469"/>
      <use xlink:href="#DejaVuSans-6e" x="1028.662109"/>
      <use xlink:href="#DejaVuSans-65" x="1092.041016"/>
      <use xlink:href="#DejaVuSans-6e" x="1153.564453"/>
      <use xlink:href="#DejaVuSans-29" x="1216.943359"/>
     </g>
    </g>
   </g>
   <g id="matplotlib.axis_2">
    <g id="ytick_1">
     <g id="line2d_8">
      <path d="M 67.86 281.855455 
L 447.84 281.855455 
" clip-path="url(#p06f6badf72)" style="fill: none; stroke: #ffffff; stroke-linecap: round"/>
     </g>
     <g id="text_9">
      <!-- 0 -->
      <g style="fill: #262626" transform="translate(51.36125 286.034595)scale(0.11 -0.11)">
       <use xlink:href="#DejaVuSans-30"/>
      </g>
     </g>
    </g>
    <g id="ytick_2">
     <g id="line2d_9">
      <path d="M 67.86 249.043479 
L 447.84 249.043479 
" clip-path="url(#p06f6badf72)" style="fill: none; stroke: #ffffff; stroke-linecap: round"/>
     </g>
     <g id="text_10">
      <!-- 250 -->
      <g style="fill: #262626" transform="translate(37.36375 253.222619)scale(0.11 -0.11)">
       <use xlink:href="#DejaVuSans-32"/>
       <use xlink:href="#DejaVuSans-35" x="63.623047"/>
       <use xlink:href="#DejaVuSans-30" x="127.246094"/>
      </g>
     </g>
    </g>
    <g id="ytick_3">
     <g id="line2d_10">
      <path d="M 67.86 216.231503 
L 447.84 216.231503 
" clip-path="url(#p06f6badf72)" style="fill: none; stroke: #ffffff; stroke-linecap: round"/>
     </g>
     <g id="text_11">
      <!-- 500 -->
      <g style="fill: #262626" transform="translate(37.36375 220.410643)scale(0.11 -0.11)">
       <use xlink:href="#DejaVuSans-35"/>
       <use xlink:href="#DejaVuSans-30" x="63.623047"/>
       <use xlink:href="#DejaVuSans-30" x="127.246094"/>
      </g>
     </g>
    </g>
    <g id="ytick_4">
     <g id="line2d_11">
      <path d="M 67.86 183.419527 
L 447.84 183.419527 
" clip-path="url(#p06f6badf72)" style="fill: none; stroke: #ffffff; stroke-linecap: round"/>
     </g>
     <g id="text_12">
      <!-- 750 -->
      <g style="fill: #262626" transform="translate(37.36375 187.598668)scale(0.11 -0.11)">
       <defs>
        <path id="DejaVuSans-37" d="M 525 4666 
L 3525 4666 
L 3525 4397 
L 1831 0 
L 1172 0 
L 2766 4134 
L 525 4134 
L 525 4666 
z
" transform="scale(0.015625)"/>
       </defs>
       <use xlink:href="#DejaVuSans-37"/>
       <use xlink:href="#DejaVuSans-35" x="63.623047"/>
       <use xlink:href="#DejaVuSans-30" x="127.246094"/>
      </g>
     </g>
    </g>
    <g id="ytick_5">
     <g id="line2d_12">
      <path d="M 67.86 150.607551 
L 447.84 150.607551 
" clip-path="url(#p06f6badf72)" style="fill: none; stroke: #ffffff; stroke-linecap: round"/>
     </g>
     <g id="text_13">
      <!-- 1000 -->
      <g style="fill: #262626" transform="translate(30.365 154.786692)scale(0.11 -0.11)">
       <use xlink:href="#DejaVuSans-31"/>
       <use xlink:href="#DejaVuSans-30" x="63.623047"/>
       <use xlink:href="#DejaVuSans-30" x="127.246094"/>
       <use xlink:href="#DejaVuSans-30" x="190.869141"/>
      </g>
     </g>
    </g>
    <g id="ytick_6">
     <g id="line2d_13">
      <path d="M 67.86 117.795575 
L 447.84 117.795575 
" clip-path="url(#p06f6badf72)" style="fill: none; stroke: #ffffff; stroke-linecap: round"/>
     </g>
     <g id="text_14">
      <!-- 1250 -->
      <g style="fill: #262626" transform="translate(30.365 121.974716)scale(0.11 -0.11)">
       <use xlink:href="#DejaVuSans-31"/>
       <use xlink:href="#DejaVuSans-32" x="63.623047"/>
       <use xlink:href="#DejaVuSans-35" x="127.246094"/>
       <use xlink:href="#DejaVuSans-30" x="190.869141"/>
      </g>
     </g>
    </g>
    <g id="ytick_7">
     <g id="line2d_14">
      <path d="M 67.86 84.983599 
L 447.84 84.983599 
" clip-path="url(#p06f6badf72)" style="fill: none; stroke: #ffffff; stroke-linecap: round"/>
     </g>
     <g id="text_15">
      <!-- 1500 -->
      <g style="fill: #262626" transform="translate(30.365 89.16274)scale(0.11 -0.11)">
       <use xlink:href="#DejaVuSans-31"/>
       <use xlink:href="#DejaVuSans-35" x="63.623047"/>
       <use xlink:href="#DejaVuSans-30" x="127.246094"/>
       <use xlink:href="#DejaVuSans-30" x="190.869141"/>
      </g>
     </g>
    </g>
    <g id="ytick_8">
     <g id="line2d_15">
      <path d="M 67.86 52.171624 
L 447.84 52.171624 
" clip-path="url(#p06f6badf72)" style="fill: none; stroke: #ffffff; stroke-linecap: round"/>
     </g>
     <g id="text_16">
      <!-- 1750 -->
      <g style="fill: #262626" transform="translate(30.365 56.350764)scale(0.11 -0.11)">
       <use xlink:href="#DejaVuSans-31"/>
       <use xlink:href="#DejaVuSans-37" x="63.623047"/>
       <use xlink:href="#DejaVuSans-35" x="127.246094"/>
       <use xlink:href="#DejaVuSans-30" x="190.869141"/>
      </g>
     </g>
    </g>
    <g id="ytick_9">
     <g id="line2d_16">
      <path d="M 67.86 19.359648 
L 447.84 19.359648 
" clip-path="url(#p06f6badf72)" style="fill: none; stroke: #ffffff; stroke-linecap: round"/>
     </g>
     <g id="text_17">
      <!-- 2000 -->
      <g style="fill: #262626" transform="translate(30.365 23.538788)scale(0.11 -0.11)">
       <use xlink:href="#DejaVuSans-32"/>
       <use xlink:href="#DejaVuSans-30" x="63.623047"/>
       <use xlink:href="#DejaVuSans-30" x="127.246094"/>
       <use xlink:href="#DejaVuSans-30" x="190.869141"/>
      </g>
     </g>
    </g>
    <g id="text_18">
     <!-- # Δx &gt; 20 -->
     <g style="fill: #262626" transform="translate(23.453438 190.054688)rotate(-90)scale(0.14 -0.14)">
      <defs>
       <path id="DejaVuSans-23" d="M 3272 2816 
L 2363 2816 
L 2100 1772 
L 3016 1772 
L 3272 2816 
z
M 2803 4594 
L 2478 3297 
L 3391 3297 
L 3719 4594 
L 4219 4594 
L 3897 3297 
L 4872 3297 
L 4872 2816 
L 3775 2816 
L 3519 1772 
L 4513 1772 
L 4513 1294 
L 3397 1294 
L 3072 0 
L 2572 0 
L 2894 1294 
L 1978 1294 
L 1656 0 
L 1153 0 
L 1478 1294 
L 494 1294 
L 494 1772 
L 1594 1772 
L 1856 2816 
L 850 2816 
L 850 3297 
L 1978 3297 
L 2297 4594 
L 2803 4594 
z
" transform="scale(0.015625)"/>
       <path id="DejaVuSans-394" d="M 2188 4044 
L 906 525 
L 3472 525 
L 2188 4044 
z
M 50 0 
L 1831 4666 
L 2547 4666 
L 4325 0 
L 50 0 
z
" transform="scale(0.015625)"/>
       <path id="DejaVuSans-78" d="M 3513 3500 
L 2247 1797 
L 3578 0 
L 2900 0 
L 1881 1375 
L 863 0 
L 184 0 
L 1544 1831 
L 300 3500 
L 978 3500 
L 1906 2253 
L 2834 3500 
L 3513 3500 
z
" transform="scale(0.015625)"/>
       <path id="DejaVuSans-3e" d="M 678 3150 
L 678 3719 
L 4684 2266 
L 4684 1747 
L 678 294 
L 678 863 
L 3897 2003 
L 678 3150 
z
" transform="scale(0.015625)"/>
      </defs>
      <use xlink:href="#DejaVuSans-23"/>
      <use xlink:href="#DejaVuSans-20" x="83.789062"/>
      <use xlink:href="#DejaVuSans-394" x="115.576172"/>
      <use xlink:href="#DejaVuSans-78" x="183.984375"/>
      <use xlink:href="#DejaVuSans-20" x="243.164062"/>
      <use xlink:href="#DejaVuSans-3e" x="274.951172"/>
      <use xlink:href="#DejaVuSans-20" x="358.740234"/>
      <use xlink:href="#DejaVuSans-32" x="390.527344"/>
      <use xlink:href="#DejaVuSans-30" x="454.150391"/>
     </g>
    </g>
   </g>
   <g id="PolyCollection_1">
    <defs>
     <path id="m05d9474bd7" d="M 85.131818 -187.826313 
L 85.131818 -240.01048 
L 88.034645 -218.774569 
L 90.937471 -217.698336 
L 93.840298 -228.539413 
L 96.743125 -319.835455 
L 99.645951 -229.878142 
L 102.548778 -178.113968 
L 105.451604 -109.76006 
L 108.354431 -142.96578 
L 111.257257 -138.792097 
L 114.160084 -130.969722 
L 117.062911 -128.948504 
L 119.965737 -93.301573 
L 122.868564 -129.578494 
L 125.77139 -78.995552 
L 128.674217 -128.318514 
L 131.577044 -103.985153 
L 134.47987 -90.965361 
L 137.382697 -86.082939 
L 140.285523 -101.01895 
L 143.18835 -117.976179 
L 146.091176 -98.393992 
L 148.994003 -100.861453 
L 151.89683 -90.466619 
L 154.799656 -83.877974 
L 157.702483 -89.784129 
L 160.605309 -97.23901 
L 163.508136 -93.879064 
L 166.410963 -97.764002 
L 169.313789 -103.197665 
L 172.216616 -92.409088 
L 175.119442 -97.29151 
L 178.022269 -89.049141 
L 180.925095 -85.216702 
L 183.827922 -81.778007 
L 186.730749 -101.491442 
L 189.633575 -108.342583 
L 192.536402 -93.432821 
L 195.439228 -106.583861 
L 198.342055 -109.943807 
L 201.244882 -84.376716 
L 204.147708 -79.048051 
L 207.050535 -81.489262 
L 209.953361 -83.037987 
L 212.856188 -77.551825 
L 215.759015 -102.987669 
L 218.661841 -90.046625 
L 221.564668 -66.658249 
L 224.467494 -73.509389 
L 227.370321 -90.834113 
L 230.273147 -74.349376 
L 233.175974 -107.030104 
L 236.078801 -95.480288 
L 238.981627 -82.722992 
L 241.884454 -79.75679 
L 244.78728 -76.160597 
L 247.690107 -81.043019 
L 250.592934 -81.095518 
L 253.49576 -77.23683 
L 256.398587 -75.37311 
L 259.301413 -76.423093 
L 262.20424 -89.547883 
L 265.107066 -74.375626 
L 268.009893 -84.14047 
L 270.91272 -88.550399 
L 273.815546 -97.816501 
L 276.718373 -81.515512 
L 279.621199 -78.969302 
L 282.524026 -72.590654 
L 285.426853 -74.506874 
L 288.329679 -74.506874 
L 291.232506 -90.466619 
L 294.135332 -87.631664 
L 297.038159 -75.635606 
L 299.940985 -82.407997 
L 302.843812 -72.511905 
L 305.746639 -74.401875 
L 308.649465 -72.433157 
L 311.552292 -71.56692 
L 314.455118 -69.755699 
L 317.357945 -87.447917 
L 320.260772 -74.926867 
L 323.163598 -75.714354 
L 326.066425 -85.636696 
L 328.969251 -67.655733 
L 331.872078 -73.903133 
L 334.774905 -73.640637 
L 337.677731 -80.38678 
L 340.580558 -73.719386 
L 343.483384 -85.636696 
L 346.386211 -80.623026 
L 349.289037 -96.162778 
L 352.191864 -77.814321 
L 355.094691 -77.289329 
L 357.997517 -74.008131 
L 360.900344 -92.514086 
L 363.80317 -72.065663 
L 366.705997 -74.559373 
L 369.608824 -65.214522 
L 372.51165 -78.995552 
L 375.414477 -74.71687 
L 378.317303 -82.460496 
L 381.22013 -69.283207 
L 384.122956 -63.928293 
L 387.025783 -68.758215 
L 389.92861 -70.149443 
L 392.831436 -93.117826 
L 395.734263 -67.524485 
L 398.637089 -71.645669 
L 401.539916 -77.289329 
L 404.442743 -80.938021 
L 407.345569 -74.191879 
L 410.248396 -74.349376 
L 413.151222 -78.628058 
L 416.054049 -87.23792 
L 418.956875 -65.135773 
L 421.859702 -75.924351 
L 424.762529 -75.924351 
L 427.665355 -69.046961 
L 430.568182 -73.693137 
L 430.568182 -63.770795 
L 430.568182 -63.770795 
L 427.665355 -63.849544 
L 424.762529 -63.849544 
L 421.859702 -63.928293 
L 418.956875 -63.823294 
L 416.054049 -63.875793 
L 413.151222 -63.849544 
L 410.248396 -63.797045 
L 407.345569 -63.849544 
L 404.442743 -63.823294 
L 401.539916 -63.823294 
L 398.637089 -63.797045 
L 395.734263 -63.823294 
L 392.831436 -63.744545 
L 389.92861 -63.770795 
L 387.025783 -63.849544 
L 384.122956 -63.744545 
L 381.22013 -63.823294 
L 378.317303 -63.770795 
L 375.414477 -63.849544 
L 372.51165 -63.797045 
L 369.608824 -63.770795 
L 366.705997 -63.770795 
L 363.80317 -63.823294 
L 360.900344 -63.770795 
L 357.997517 -66.185756 
L 355.094691 -63.902043 
L 352.191864 -63.849544 
L 349.289037 -63.875793 
L 346.386211 -63.849544 
L 343.483384 -63.902043 
L 340.580558 -63.797045 
L 337.677731 -63.875793 
L 334.774905 -63.875793 
L 331.872078 -63.797045 
L 328.969251 -63.823294 
L 326.066425 -63.902043 
L 323.163598 -63.770795 
L 320.260772 -63.744545 
L 317.357945 -65.503267 
L 314.455118 -63.928293 
L 311.552292 -63.744545 
L 308.649465 -63.875793 
L 305.746639 -63.797045 
L 302.843812 -63.849544 
L 299.940985 -70.35944 
L 297.038159 -63.770795 
L 294.135332 -68.075726 
L 291.232506 -63.823294 
L 288.329679 -63.849544 
L 285.426853 -63.797045 
L 282.524026 -63.823294 
L 279.621199 -63.849544 
L 276.718373 -63.823294 
L 273.815546 -63.954542 
L 270.91272 -63.875793 
L 268.009893 -66.763247 
L 265.107066 -63.823294 
L 262.20424 -63.954542 
L 259.301413 -64.873277 
L 256.398587 -63.954542 
L 253.49576 -65.214522 
L 250.592934 -66.868246 
L 247.690107 -63.902043 
L 244.78728 -66.448252 
L 241.884454 -64.374535 
L 238.981627 -63.744545 
L 236.078801 -63.823294 
L 233.175974 -63.849544 
L 230.273147 -65.424519 
L 227.370321 -63.902043 
L 224.467494 -63.744545 
L 221.564668 -63.744545 
L 218.661841 -63.797045 
L 215.759015 -63.849544 
L 212.856188 -63.823294 
L 209.953361 -63.744545 
L 207.050535 -75.005616 
L 204.147708 -63.770795 
L 201.244882 -63.849544 
L 198.342055 -63.875793 
L 195.439228 -69.020711 
L 192.536402 -78.365562 
L 189.633575 -68.259473 
L 186.730749 -67.366988 
L 183.827922 -69.151959 
L 180.925095 -64.505783 
L 178.022269 -63.849544 
L 175.119442 -63.823294 
L 172.216616 -65.214522 
L 169.313789 -63.823294 
L 166.410963 -63.797045 
L 163.508136 -68.049477 
L 160.605309 -63.823294 
L 157.702483 -63.770795 
L 154.799656 -63.849544 
L 151.89683 -63.770795 
L 148.994003 -71.698168 
L 146.091176 -70.35944 
L 143.18835 -73.351892 
L 140.285523 -63.744545 
L 137.382697 -64.295787 
L 134.47987 -64.71578 
L 131.577044 -63.744545 
L 128.674217 -63.797045 
L 125.77139 -63.744545 
L 122.868564 -67.340738 
L 119.965737 -70.280691 
L 117.062911 -72.590654 
L 114.160084 -68.889463 
L 111.257257 -67.681983 
L 108.354431 -65.818262 
L 105.451604 -65.739514 
L 102.548778 -104.457645 
L 99.645951 -174.727773 
L 96.743125 -232.791845 
L 93.840298 -182.655146 
L 90.937471 -174.517776 
L 88.034645 -171.052831 
L 85.131818 -187.826313 
z
" style="stroke: #ffffff; stroke-opacity: 0.5"/>
    </defs>
    <g clip-path="url(#p06f6badf72)">
     <use xlink:href="#m05d9474bd7" x="0" y="345.6" style="fill: #4c72b0; fill-opacity: 0.5; stroke: #ffffff; stroke-opacity: 0.5"/>
    </g>
   </g>
   <g id="PolyCollection_2">
    <defs>
     <path id="m6b55554c71" d="M 85.131818 -192.157494 
L 85.131818 -225.048219 
L 88.034645 -207.670996 
L 90.937471 -204.074804 
L 93.840298 -194.93995 
L 96.743125 -266.28631 
L 99.645951 -224.444478 
L 102.548778 -151.654391 
L 105.451604 -176.014002 
L 108.354431 -119.236159 
L 111.257257 -119.682402 
L 114.160084 -95.585287 
L 117.062911 -104.011402 
L 119.965737 -99.417726 
L 122.868564 -106.400114 
L 125.77139 -95.611536 
L 128.674217 -112.647514 
L 131.577044 -104.77264 
L 134.47987 -112.175022 
L 137.382697 -133.437182 
L 140.285523 -96.03153 
L 143.18835 -124.643573 
L 146.091176 -86.214187 
L 148.994003 -91.595351 
L 151.89683 -110.810044 
L 154.799656 -111.177538 
L 157.702483 -81.121768 
L 160.605309 -99.890218 
L 163.508136 -112.93626 
L 166.410963 -125.326062 
L 169.313789 -141.863298 
L 172.216616 -106.268866 
L 175.119442 -96.845267 
L 178.022269 -93.774066 
L 180.925095 -116.243707 
L 183.827922 -102.987669 
L 186.730749 -95.007796 
L 189.633575 -94.640302 
L 192.536402 -87.395418 
L 195.439228 -117.871181 
L 198.342055 -84.954207 
L 201.244882 -103.092667 
L 204.147708 -76.134348 
L 207.050535 -91.884096 
L 209.953361 -82.88049 
L 212.856188 -73.693137 
L 215.759015 -79.363046 
L 218.661841 -72.275659 
L 221.564668 -70.910681 
L 224.467494 -81.62051 
L 227.370321 -102.987669 
L 230.273147 -81.410513 
L 233.175974 -74.218128 
L 236.078801 -98.551489 
L 238.981627 -82.644244 
L 241.884454 -69.046961 
L 244.78728 -74.08688 
L 247.690107 -69.571952 
L 250.592934 -64.138289 
L 253.49576 -99.916468 
L 256.398587 -82.906739 
L 259.301413 -84.586713 
L 262.20424 -90.624116 
L 265.107066 -83.982972 
L 268.009893 -84.901707 
L 270.91272 -79.809289 
L 273.815546 -65.713264 
L 276.718373 -77.893069 
L 279.621199 -79.599292 
L 282.524026 -80.596776 
L 285.426853 -85.426699 
L 288.329679 -69.07321 
L 291.232506 -75.425609 
L 294.135332 -86.292935 
L 297.038159 -78.864304 
L 299.940985 -74.454374 
L 302.843812 -78.628058 
L 305.746639 -73.719386 
L 308.649465 -80.439279 
L 311.552292 -72.958148 
L 314.455118 -74.08688 
L 317.357945 -79.940537 
L 320.260772 -72.538155 
L 323.163598 -63.980792 
L 326.066425 -74.375626 
L 328.969251 -87.185421 
L 331.872078 -72.118162 
L 334.774905 -73.430641 
L 337.677731 -89.810379 
L 340.580558 -79.153049 
L 343.483384 -80.045535 
L 346.386211 -70.569436 
L 349.289037 -77.26308 
L 352.191864 -83.615478 
L 355.094691 -71.435673 
L 357.997517 -81.148017 
L 360.900344 -79.809289 
L 363.80317 -85.505448 
L 366.705997 -79.599292 
L 369.608824 -75.399359 
L 372.51165 -77.893069 
L 375.414477 -71.146927 
L 378.317303 -78.129316 
L 381.22013 -74.506874 
L 384.122956 -71.934415 
L 387.025783 -77.604324 
L 389.92861 -79.966786 
L 392.831436 -76.081848 
L 395.734263 -96.267776 
L 398.637089 -81.935505 
L 401.539916 -73.588138 
L 404.442743 -78.024317 
L 407.345569 -72.24941 
L 410.248396 -84.954207 
L 413.151222 -74.506874 
L 416.054049 -69.256957 
L 418.956875 -79.258048 
L 421.859702 -79.205548 
L 424.762529 -74.375626 
L 427.665355 -86.424183 
L 430.568182 -90.072875 
L 430.568182 -63.875793 
L 430.568182 -63.875793 
L 427.665355 -63.823294 
L 424.762529 -63.928293 
L 421.859702 -63.875793 
L 418.956875 -63.849544 
L 416.054049 -63.849544 
L 413.151222 -64.05954 
L 410.248396 -63.928293 
L 407.345569 -63.797045 
L 404.442743 -63.928293 
L 401.539916 -63.797045 
L 398.637089 -63.902043 
L 395.734263 -63.928293 
L 392.831436 -63.849544 
L 389.92861 -63.902043 
L 387.025783 -63.875793 
L 384.122956 -63.980792 
L 381.22013 -63.823294 
L 378.317303 -63.875793 
L 375.414477 -63.770795 
L 372.51165 -63.928293 
L 369.608824 -63.980792 
L 366.705997 -63.849544 
L 363.80317 -63.849544 
L 360.900344 -66.395753 
L 357.997517 -65.792013 
L 355.094691 -63.875793 
L 352.191864 -63.902043 
L 349.289037 -65.765763 
L 346.386211 -63.849544 
L 343.483384 -63.875793 
L 340.580558 -63.954542 
L 337.677731 -63.902043 
L 334.774905 -63.849544 
L 331.872078 -63.928293 
L 328.969251 -63.954542 
L 326.066425 -63.902043 
L 323.163598 -63.823294 
L 320.260772 -63.797045 
L 317.357945 -63.797045 
L 314.455118 -63.849544 
L 311.552292 -63.797045 
L 308.649465 -63.849544 
L 305.746639 -63.797045 
L 302.843812 -63.849544 
L 299.940985 -63.823294 
L 297.038159 -63.797045 
L 294.135332 -63.797045 
L 291.232506 -63.744545 
L 288.329679 -63.770795 
L 285.426853 -63.797045 
L 282.524026 -63.875793 
L 279.621199 -63.770795 
L 276.718373 -63.797045 
L 273.815546 -63.744545 
L 270.91272 -63.849544 
L 268.009893 -63.744545 
L 265.107066 -63.954542 
L 262.20424 -66.054509 
L 259.301413 -63.849544 
L 256.398587 -63.770795 
L 253.49576 -63.823294 
L 250.592934 -63.770795 
L 247.690107 -63.744545 
L 244.78728 -63.744545 
L 241.884454 -63.849544 
L 238.981627 -68.311972 
L 236.078801 -63.875793 
L 233.175974 -63.770795 
L 230.273147 -63.823294 
L 227.370321 -64.505783 
L 224.467494 -63.770795 
L 221.564668 -63.797045 
L 218.661841 -63.770795 
L 215.759015 -63.770795 
L 212.856188 -65.844512 
L 209.953361 -63.744545 
L 207.050535 -72.380657 
L 204.147708 -63.744545 
L 201.244882 -63.770795 
L 198.342055 -63.770795 
L 195.439228 -63.744545 
L 192.536402 -63.744545 
L 189.633575 -74.454374 
L 186.730749 -63.770795 
L 183.827922 -63.797045 
L 180.925095 -67.156991 
L 178.022269 -68.101976 
L 175.119442 -63.797045 
L 172.216616 -63.744545 
L 169.313789 -63.744545 
L 166.410963 -63.744545 
L 163.508136 -69.020711 
L 160.605309 -67.419487 
L 157.702483 -63.823294 
L 154.799656 -66.238256 
L 151.89683 -70.884431 
L 148.994003 -64.08579 
L 146.091176 -65.293271 
L 143.18835 -88.392902 
L 140.285523 -67.366988 
L 137.382697 -66.317004 
L 134.47987 -63.797045 
L 131.577044 -72.118162 
L 128.674217 -63.823294 
L 125.77139 -68.941962 
L 122.868564 -63.744545 
L 119.965737 -65.450768 
L 117.062911 -72.616904 
L 114.160084 -75.34686 
L 111.257257 -79.441795 
L 108.354431 -69.440704 
L 105.451604 -65.214522 
L 102.548778 -63.770795 
L 99.645951 -84.691711 
L 96.743125 -208.117239 
L 93.840298 -167.37789 
L 90.937471 -170.790335 
L 88.034645 -164.962929 
L 85.131818 -192.157494 
z
" style="stroke: #ffffff; stroke-opacity: 0.5"/>
    </defs>
    <g clip-path="url(#p06f6badf72)">
     <use xlink:href="#m6b55554c71" x="0" y="345.6" style="fill: #dd8452; fill-opacity: 0.5; stroke: #ffffff; stroke-opacity: 0.5"/>
    </g>
   </g>
   <g id="PolyCollection_3">
    <defs>
     <path id="ma739eec53c" d="M 85.131818 -131.862207 
L 85.131818 -225.835706 
L 88.034645 -183.311385 
L 90.937471 -271.772472 
L 93.840298 -226.098202 
L 96.743125 -213.367155 
L 99.645951 -251.297799 
L 102.548778 -186.855079 
L 105.451604 -103.250164 
L 108.354431 -175.042768 
L 111.257257 -114.668732 
L 114.160084 -118.212425 
L 117.062911 -109.287568 
L 119.965737 -89.994126 
L 122.868564 -224.129483 
L 125.77139 -81.988004 
L 128.674217 -64.400785 
L 131.577044 -86.712929 
L 134.47987 -140.393321 
L 137.382697 -65.844512 
L 140.285523 -90.650366 
L 143.18835 -71.225676 
L 146.091176 -64.269537 
L 148.994003 -64.532033 
L 151.89683 -76.869336 
L 154.799656 -114.931228 
L 157.702483 -64.400785 
L 160.605309 -64.400785 
L 163.508136 -64.400785 
L 166.410963 -64.532033 
L 169.313789 -90.125374 
L 172.216616 -64.532033 
L 175.119442 -64.532033 
L 178.022269 -64.532033 
L 180.925095 -69.388205 
L 183.827922 -64.400785 
L 186.730749 -64.794529 
L 189.633575 -64.663281 
L 192.536402 -64.400785 
L 195.439228 -64.663281 
L 198.342055 -64.400785 
L 201.244882 -64.794529 
L 204.147708 -64.663281 
L 207.050535 -64.663281 
L 209.953361 -64.400785 
L 212.856188 -64.400785 
L 215.759015 -64.532033 
L 218.661841 -64.532033 
L 221.564668 -64.400785 
L 224.467494 -64.400785 
L 227.370321 -64.400785 
L 230.273147 -64.532033 
L 233.175974 -65.057024 
L 236.078801 -64.532033 
L 238.981627 -64.269537 
L 241.884454 -64.400785 
L 244.78728 -64.532033 
L 247.690107 -64.269537 
L 250.592934 -64.269537 
L 253.49576 -64.532033 
L 256.398587 -64.400785 
L 259.301413 -64.532033 
L 262.20424 -64.269537 
L 265.107066 -64.532033 
L 268.009893 -64.663281 
L 270.91272 -64.663281 
L 273.815546 -64.663281 
L 276.718373 -64.400785 
L 279.621199 -64.400785 
L 282.524026 -64.532033 
L 285.426853 -64.400785 
L 288.329679 -64.532033 
L 291.232506 -64.532033 
L 294.135332 -64.269537 
L 297.038159 -64.663281 
L 299.940985 -64.663281 
L 302.843812 -64.532033 
L 305.746639 -64.532033 
L 308.649465 -64.400785 
L 311.552292 -64.532033 
L 314.455118 -64.400785 
L 317.357945 -64.400785 
L 320.260772 -64.532033 
L 323.163598 -64.269537 
L 326.066425 -64.663281 
L 328.969251 -64.532033 
L 331.872078 -64.400785 
L 334.774905 -64.663281 
L 337.677731 -64.663281 
L 340.580558 -64.663281 
L 343.483384 -64.400785 
L 346.386211 -64.532033 
L 349.289037 -64.794529 
L 352.191864 -64.532033 
L 355.094691 -64.663281 
L 357.997517 -64.400785 
L 360.900344 -64.400785 
L 363.80317 -64.400785 
L 366.705997 -64.400785 
L 369.608824 -64.532033 
L 372.51165 -64.400785 
L 375.414477 -64.532033 
L 378.317303 -64.400785 
L 381.22013 -64.532033 
L 384.122956 -64.400785 
L 387.025783 -64.532033 
L 389.92861 -64.532033 
L 392.831436 -64.532033 
L 395.734263 -64.794529 
L 398.637089 -64.400785 
L 401.539916 -64.663281 
L 404.442743 -64.532033 
L 407.345569 -64.532033 
L 410.248396 -64.925777 
L 413.151222 -64.532033 
L 416.054049 -64.794529 
L 418.956875 -64.925777 
L 421.859702 -64.532033 
L 424.762529 -64.663281 
L 427.665355 -64.532033 
L 430.568182 -64.663281 
L 430.568182 -64.269537 
L 430.568182 -64.269537 
L 427.665355 -64.138289 
L 424.762529 -64.007041 
L 421.859702 -64.138289 
L 418.956875 -64.138289 
L 416.054049 -64.138289 
L 413.151222 -64.138289 
L 410.248396 -64.007041 
L 407.345569 -64.269537 
L 404.442743 -64.138289 
L 401.539916 -64.269537 
L 398.637089 -64.007041 
L 395.734263 -64.138289 
L 392.831436 -64.138289 
L 389.92861 -64.138289 
L 387.025783 -64.007041 
L 384.122956 -64.138289 
L 381.22013 -64.007041 
L 378.317303 -64.138289 
L 375.414477 -64.007041 
L 372.51165 -64.269537 
L 369.608824 -64.138289 
L 366.705997 -64.007041 
L 363.80317 -64.138289 
L 360.900344 -64.138289 
L 357.997517 -64.007041 
L 355.094691 -64.269537 
L 352.191864 -64.138289 
L 349.289037 -64.269537 
L 346.386211 -64.007041 
L 343.483384 -64.269537 
L 340.580558 -64.007041 
L 337.677731 -64.138289 
L 334.774905 -64.138289 
L 331.872078 -64.007041 
L 328.969251 -64.269537 
L 326.066425 -64.138289 
L 323.163598 -64.007041 
L 320.260772 -64.138289 
L 317.357945 -64.138289 
L 314.455118 -63.875793 
L 311.552292 -64.138289 
L 308.649465 -64.269537 
L 305.746639 -64.269537 
L 302.843812 -64.138289 
L 299.940985 -64.269537 
L 297.038159 -64.138289 
L 294.135332 -64.007041 
L 291.232506 -64.138289 
L 288.329679 -64.138289 
L 285.426853 -64.138289 
L 282.524026 -64.269537 
L 279.621199 -63.744545 
L 276.718373 -64.138289 
L 273.815546 -64.138289 
L 270.91272 -64.269537 
L 268.009893 -64.138289 
L 265.107066 -64.138289 
L 262.20424 -64.138289 
L 259.301413 -64.007041 
L 256.398587 -64.138289 
L 253.49576 -64.007041 
L 250.592934 -64.138289 
L 247.690107 -64.007041 
L 244.78728 -64.138289 
L 241.884454 -64.138289 
L 238.981627 -64.138289 
L 236.078801 -64.138289 
L 233.175974 -64.138289 
L 230.273147 -64.138289 
L 227.370321 -64.138289 
L 224.467494 -64.138289 
L 221.564668 -64.007041 
L 218.661841 -64.138289 
L 215.759015 -64.269537 
L 212.856188 -64.138289 
L 209.953361 -64.269537 
L 207.050535 -64.400785 
L 204.147708 -64.269537 
L 201.244882 -64.138289 
L 198.342055 -64.138289 
L 195.439228 -64.138289 
L 192.536402 -64.007041 
L 189.633575 -64.400785 
L 186.730749 -64.269537 
L 183.827922 -64.138289 
L 180.925095 -64.138289 
L 178.022269 -64.269537 
L 175.119442 -64.138289 
L 172.216616 -64.269537 
L 169.313789 -64.269537 
L 166.410963 -64.138289 
L 163.508136 -64.138289 
L 160.605309 -64.269537 
L 157.702483 -64.138289 
L 154.799656 -64.138289 
L 151.89683 -64.138289 
L 148.994003 -64.007041 
L 146.091176 -64.007041 
L 143.18835 -64.007041 
L 140.285523 -64.138289 
L 137.382697 -64.138289 
L 134.47987 -63.875793 
L 131.577044 -64.007041 
L 128.674217 -64.007041 
L 125.77139 -64.138289 
L 122.868564 -64.007041 
L 119.965737 -64.007041 
L 117.062911 -64.138289 
L 114.160084 -64.138289 
L 111.257257 -64.007041 
L 108.354431 -64.007041 
L 105.451604 -64.007041 
L 102.548778 -125.168564 
L 99.645951 -90.519118 
L 96.743125 -121.099879 
L 93.840298 -126.0873 
L 90.937471 -141.180808 
L 88.034645 -178.848957 
L 85.131818 -131.862207 
z
" style="stroke: #ffffff; stroke-opacity: 0.5"/>
    </defs>
    <g clip-path="url(#p06f6badf72)">
     <use xlink:href="#ma739eec53c" x="0" y="345.6" style="fill: #55a868; fill-opacity: 0.5; stroke: #ffffff; stroke-opacity: 0.5"/>
    </g>
   </g>
   <g id="line2d_17">
    <path d="M 85.131818 142.081687 
L 88.034645 149.142825 
L 90.937471 152.319024 
L 93.840298 145.04789 
L 96.743125 74.058524 
L 99.645951 152.308524 
L 102.548778 210.477595 
L 105.451604 266.4627 
L 108.354431 242.927326 
L 111.257257 238.895391 
L 114.160084 246.843764 
L 117.062911 252.791919 
L 119.965737 266.294703 
L 122.868564 263.869242 
L 125.77139 278.290761 
L 128.674217 251.416441 
L 131.577044 260.656293 
L 134.47987 265.386468 
L 137.382697 269.969644 
L 140.285523 271.822865 
L 143.18835 255.327628 
L 146.091176 264.478232 
L 148.994003 260.131302 
L 151.89683 270.400138 
L 154.799656 267.969426 
L 157.702483 274.295575 
L 160.605309 268.683415 
L 163.508136 264.903475 
L 166.410963 265.822211 
L 169.313789 262.052771 
L 172.216616 267.785679 
L 175.119442 266.961442 
L 178.022269 267.901177 
L 180.925095 274.773318 
L 183.827922 269.859396 
L 186.730749 261.737776 
L 189.633575 265.045223 
L 192.536402 260.87154 
L 195.439228 262.08427 
L 198.342055 265.312969 
L 201.244882 271.098376 
L 204.147708 273.571087 
L 207.050535 267.874928 
L 209.953361 273.98058 
L 212.856188 275.014814 
L 215.759015 269.428903 
L 218.661841 270.694133 
L 221.564668 280.726723 
L 224.467494 276.274794 
L 227.370321 267.612432 
L 230.273147 275.581805 
L 233.175974 265.417967 
L 236.078801 273.875582 
L 238.981627 277.345777 
L 241.884454 272.647102 
L 244.78728 275.361308 
L 247.690107 274.138078 
L 250.592934 272.14311 
L 253.49576 274.500322 
L 256.398587 276.306293 
L 259.301413 277.12003 
L 262.20424 269.313405 
L 265.107066 276.185545 
L 268.009893 272.358356 
L 270.91272 271.623368 
L 273.815546 270.720382 
L 276.718373 276.899534 
L 279.621199 274.946565 
L 282.524026 278.280262 
L 285.426853 279.414244 
L 288.329679 276.127796 
L 291.232506 270.405387 
L 294.135332 270.526136 
L 297.038159 275.335059 
L 299.940985 271.812365 
L 302.843812 278.632006 
L 305.746639 276.232794 
L 308.649465 278.075515 
L 311.552292 279.566491 
L 314.455118 279.818487 
L 317.357945 272.300607 
L 320.260772 275.8548 
L 323.163598 277.687021 
L 326.066425 273.99633 
L 328.969251 280.805471 
L 331.872078 277.902268 
L 334.774905 278.212013 
L 337.677731 274.316575 
L 340.580558 279.445743 
L 343.483384 272.284857 
L 346.386211 274.726068 
L 349.289037 274.211577 
L 352.191864 276.101546 
L 355.094691 277.834019 
L 357.997517 275.581805 
L 360.900344 268.819913 
L 363.80317 280.080983 
L 366.705997 279.60849 
L 369.608824 281.356713 
L 372.51165 273.004096 
L 375.414477 277.944267 
L 378.317303 272.620852 
L 381.22013 279.051999 
L 384.122956 281.755706 
L 387.025783 279.739738 
L 389.92861 279.393244 
L 392.831436 274.789067 
L 395.734263 280.968219 
L 398.637089 280.164982 
L 401.539916 278.98375 
L 404.442743 278.143764 
L 407.345569 276.332543 
L 410.248396 277.708021 
L 413.151222 277.624022 
L 416.054049 271.114126 
L 418.956875 281.49321 
L 421.859702 276.547789 
L 424.762529 277.566273 
L 427.665355 279.513992 
L 430.568182 279.786988 
" clip-path="url(#p06f6badf72)" style="fill: none; stroke: #4c72b0; stroke-width: 3; stroke-linecap: round"/>
   </g>
   <g id="line2d_18">
    <path d="M 85.131818 138.338497 
L 88.034645 160.188648 
L 90.937471 159.343412 
L 93.840298 166.924291 
L 96.743125 106.345508 
L 99.645951 187.929205 
L 102.548778 248.066994 
L 105.451604 247.022261 
L 108.354431 254.130647 
L 111.257257 245.946028 
L 114.160084 260.126052 
L 117.062911 255.301379 
L 119.965737 259.952804 
L 122.868564 263.816743 
L 125.77139 262.882258 
L 128.674217 260.110302 
L 131.577044 260.052553 
L 134.47987 262.462264 
L 137.382697 261.869024 
L 140.285523 265.270969 
L 143.18835 246.051027 
L 146.091176 272.274358 
L 148.994003 268.599416 
L 151.89683 254.508641 
L 154.799656 254.891885 
L 157.702483 270.778131 
L 160.605309 267.13994 
L 163.508136 264.173737 
L 166.410963 260.635294 
L 169.313789 257.70584 
L 172.216616 266.105706 
L 175.119442 271.969862 
L 178.022269 266.824945 
L 180.925095 253.616156 
L 183.827922 269.864646 
L 186.730749 266.793445 
L 189.633575 265.675213 
L 192.536402 268.567917 
L 195.439228 258.467078 
L 198.342055 273.455589 
L 201.244882 270.967128 
L 204.147708 277.351027 
L 207.050535 263.863992 
L 209.953361 275.214311 
L 212.856188 277.036032 
L 215.759015 270.86738 
L 218.661841 277.74477 
L 221.564668 277.366776 
L 224.467494 273.303341 
L 227.370321 262.793009 
L 230.273147 275.524056 
L 233.175974 275.550305 
L 236.078801 266.074207 
L 238.981627 271.570869 
L 241.884454 278.448259 
L 244.78728 278.684505 
L 247.690107 280.637474 
L 250.592934 281.718957 
L 253.49576 271.765116 
L 256.398587 276.925783 
L 259.301413 272.977846 
L 262.20424 273.214093 
L 265.107066 275.24056 
L 268.009893 274.311325 
L 270.91272 277.508524 
L 273.815546 281.393462 
L 276.718373 274.60007 
L 279.621199 277.419275 
L 282.524026 275.445307 
L 285.426853 276.831285 
L 288.329679 280.191231 
L 291.232506 277.361526 
L 294.135332 272.563103 
L 297.038159 277.708021 
L 299.940985 276.574039 
L 302.843812 276.810285 
L 305.746639 277.618772 
L 308.649465 275.209061 
L 311.552292 279.046749 
L 314.455118 279.330245 
L 317.357945 274.274576 
L 320.260772 278.117514 
L 323.163598 281.692707 
L 326.066425 278.227762 
L 328.969251 274.552821 
L 331.872078 277.78152 
L 334.774905 278.243512 
L 337.677731 275.193311 
L 340.580558 276.238044 
L 343.483384 275.818051 
L 346.386211 279.335495 
L 349.289037 275.140812 
L 352.191864 274.190577 
L 355.094691 279.151748 
L 357.997517 273.429339 
L 360.900344 273.607836 
L 363.80317 275.072563 
L 366.705997 275.739302 
L 369.608824 276.290543 
L 372.51165 273.712835 
L 375.414477 278.059765 
L 378.317303 276.091047 
L 381.22013 279.597991 
L 384.122956 277.818269 
L 387.025783 275.933549 
L 389.92861 276.931033 
L 392.831436 277.550523 
L 395.734263 270.132392 
L 398.637089 274.174827 
L 401.539916 277.088531 
L 404.442743 274.778568 
L 407.345569 278.700255 
L 410.248396 272.12736 
L 413.151222 276.406042 
L 416.054049 280.632224 
L 418.956875 274.164327 
L 421.859702 276.579289 
L 424.762529 278.054515 
L 427.665355 275.697303 
L 430.568182 273.849332 
" clip-path="url(#p06f6badf72)" style="fill: none; stroke: #dd8452; stroke-width: 3; stroke-linecap: round"/>
   </g>
   <g id="line2d_19">
    <path d="M 85.131818 162.997353 
L 88.034645 164.992321 
L 90.937471 151.788782 
L 93.840298 163.364847 
L 96.743125 161.186132 
L 99.645951 186.096984 
L 102.548778 183.104532 
L 105.451604 265.580715 
L 108.354431 259.307065 
L 111.257257 270.279389 
L 114.160084 269.911895 
L 117.062911 257.968336 
L 119.965737 276.369292 
L 122.868564 248.177243 
L 125.77139 275.056813 
L 128.674217 281.435461 
L 131.577044 275.083063 
L 134.47987 266.158205 
L 137.382697 281.015468 
L 140.285523 276.133046 
L 143.18835 279.991734 
L 146.091176 281.461711 
L 148.994003 281.330463 
L 151.89683 278.810503 
L 154.799656 271.198125 
L 157.702483 281.382962 
L 160.605309 281.277964 
L 163.508136 281.330463 
L 166.410963 281.304213 
L 169.313789 276.054297 
L 172.216616 281.199215 
L 175.119442 281.304213 
L 178.022269 281.199215 
L 180.925095 280.25423 
L 183.827922 281.304213 
L 186.730749 281.146716 
L 189.633575 281.120466 
L 192.536402 281.409212 
L 195.439228 281.225465 
L 198.342055 281.382962 
L 201.244882 281.199215 
L 204.147708 281.199215 
L 207.050535 281.146716 
L 209.953361 281.304213 
L 212.856188 281.304213 
L 215.759015 281.251714 
L 218.661841 281.225465 
L 221.564668 281.330463 
L 224.467494 281.330463 
L 227.370321 281.330463 
L 230.273147 281.304213 
L 233.175974 281.094217 
L 236.078801 281.277964 
L 238.981627 281.356713 
L 241.884454 281.356713 
L 244.78728 281.277964 
L 247.690107 281.48796 
L 250.592934 281.356713 
L 253.49576 281.277964 
L 256.398587 281.330463 
L 259.301413 281.304213 
L 262.20424 281.409212 
L 265.107066 281.251714 
L 268.009893 281.172965 
L 270.91272 281.199215 
L 273.815546 281.172965 
L 276.718373 281.304213 
L 279.621199 281.435461 
L 282.524026 281.225465 
L 285.426853 281.356713 
L 288.329679 281.225465 
L 291.232506 281.277964 
L 294.135332 281.382962 
L 297.038159 281.225465 
L 299.940985 281.225465 
L 302.843812 281.304213 
L 305.746639 281.251714 
L 308.649465 281.225465 
L 311.552292 281.304213 
L 314.455118 281.382962 
L 317.357945 281.277964 
L 320.260772 281.304213 
L 323.163598 281.435461 
L 326.066425 281.225465 
L 328.969251 281.199215 
L 331.872078 281.356713 
L 334.774905 281.199215 
L 337.677731 281.251714 
L 340.580558 281.251714 
L 343.483384 281.304213 
L 346.386211 281.382962 
L 349.289037 281.094217 
L 352.191864 281.172965 
L 355.094691 281.225465 
L 357.997517 281.382962 
L 360.900344 281.304213 
L 363.80317 281.304213 
L 366.705997 281.382962 
L 369.608824 281.251714 
L 372.51165 281.304213 
L 375.414477 281.330463 
L 378.317303 281.304213 
L 381.22013 281.356713 
L 384.122956 281.330463 
L 387.025783 281.356713 
L 389.92861 281.251714 
L 392.831436 281.225465 
L 395.734263 281.172965 
L 398.637089 281.382962 
L 401.539916 281.120466 
L 404.442743 281.277964 
L 407.345569 281.251714 
L 410.248396 281.225465 
L 413.151222 281.277964 
L 416.054049 281.146716 
L 418.956875 281.172965 
L 421.859702 281.199215 
L 424.762529 281.304213 
L 427.665355 281.304213 
L 430.568182 281.172965 
" clip-path="url(#p06f6badf72)" style="fill: none; stroke: #55a868; stroke-width: 3; stroke-linecap: round"/>
   </g>
   <g id="patch_3">
    <path d="M 67.86 294.66 
L 67.86 12.96 
" style="fill: none; stroke: #ffffff; stroke-width: 1.25; stroke-linejoin: miter; stroke-linecap: square"/>
   </g>
   <g id="patch_4">
    <path d="M 447.84 294.66 
L 447.84 12.96 
" style="fill: none; stroke: #ffffff; stroke-width: 1.25; stroke-linejoin: miter; stroke-linecap: square"/>
   </g>
   <g id="patch_5">
    <path d="M 67.86 294.66 
L 447.84 294.66 
" style="fill: none; stroke: #ffffff; stroke-width: 1.25; stroke-linejoin: miter; stroke-linecap: square"/>
   </g>
   <g id="patch_6">
    <path d="M 67.86 12.96 
L 447.84 12.96 
" style="fill: none; stroke: #ffffff; stroke-width: 1.25; stroke-linejoin: miter; stroke-linecap: square"/>
   </g>
   <g id="legend_1">
    <g id="patch_7">
     <path d="M 319.722656 70.197812 
L 440.14 70.197812 
Q 442.34 70.197812 442.34 67.997813 
L 442.34 20.66 
Q 442.34 18.46 440.14 18.46 
L 319.722656 18.46 
Q 317.522656 18.46 317.522656 20.66 
L 317.522656 67.997813 
Q 317.522656 70.197812 319.722656 70.197812 
z
" style="fill: #eaeaf2; opacity: 0.8; stroke: #cccccc; stroke-linejoin: miter"/>
    </g>
    <g id="line2d_20">
     <path d="M 321.922656 27.368281 
L 332.922656 27.368281 
L 343.922656 27.368281 
" style="fill: none; stroke: #4c72b0; stroke-width: 3; stroke-linecap: round"/>
    </g>
    <g id="text_19">
     <!-- SAC-DELAY-1 -->
     <g style="fill: #262626" transform="translate(352.722656 31.218281)scale(0.11 -0.11)">
      <defs>
       <path id="DejaVuSans-53" d="M 3425 4513 
L 3425 3897 
Q 3066 4069 2747 4153 
Q 2428 4238 2131 4238 
Q 1616 4238 1336 4038 
Q 1056 3838 1056 3469 
Q 1056 3159 1242 3001 
Q 1428 2844 1947 2747 
L 2328 2669 
Q 3034 2534 3370 2195 
Q 3706 1856 3706 1288 
Q 3706 609 3251 259 
Q 2797 -91 1919 -91 
Q 1588 -91 1214 -16 
Q 841 59 441 206 
L 441 856 
Q 825 641 1194 531 
Q 1563 422 1919 422 
Q 2459 422 2753 634 
Q 3047 847 3047 1241 
Q 3047 1584 2836 1778 
Q 2625 1972 2144 2069 
L 1759 2144 
Q 1053 2284 737 2584 
Q 422 2884 422 3419 
Q 422 4038 858 4394 
Q 1294 4750 2059 4750 
Q 2388 4750 2728 4690 
Q 3069 4631 3425 4513 
z
" transform="scale(0.015625)"/>
       <path id="DejaVuSans-41" d="M 2188 4044 
L 1331 1722 
L 3047 1722 
L 2188 4044 
z
M 1831 4666 
L 2547 4666 
L 4325 0 
L 3669 0 
L 3244 1197 
L 1141 1197 
L 716 0 
L 50 0 
L 1831 4666 
z
" transform="scale(0.015625)"/>
       <path id="DejaVuSans-43" d="M 4122 4306 
L 4122 3641 
Q 3803 3938 3442 4084 
Q 3081 4231 2675 4231 
Q 1875 4231 1450 3742 
Q 1025 3253 1025 2328 
Q 1025 1406 1450 917 
Q 1875 428 2675 428 
Q 3081 428 3442 575 
Q 3803 722 4122 1019 
L 4122 359 
Q 3791 134 3420 21 
Q 3050 -91 2638 -91 
Q 1578 -91 968 557 
Q 359 1206 359 2328 
Q 359 3453 968 4101 
Q 1578 4750 2638 4750 
Q 3056 4750 3426 4639 
Q 3797 4528 4122 4306 
z
" transform="scale(0.015625)"/>
       <path id="DejaVuSans-2d" d="M 313 2009 
L 1997 2009 
L 1997 1497 
L 313 1497 
L 313 2009 
z
" transform="scale(0.015625)"/>
       <path id="DejaVuSans-44" d="M 1259 4147 
L 1259 519 
L 2022 519 
Q 2988 519 3436 956 
Q 3884 1394 3884 2338 
Q 3884 3275 3436 3711 
Q 2988 4147 2022 4147 
L 1259 4147 
z
M 628 4666 
L 1925 4666 
Q 3281 4666 3915 4102 
Q 4550 3538 4550 2338 
Q 4550 1131 3912 565 
Q 3275 0 1925 0 
L 628 0 
L 628 4666 
z
" transform="scale(0.015625)"/>
       <path id="DejaVuSans-45" d="M 628 4666 
L 3578 4666 
L 3578 4134 
L 1259 4134 
L 1259 2753 
L 3481 2753 
L 3481 2222 
L 1259 2222 
L 1259 531 
L 3634 531 
L 3634 0 
L 628 0 
L 628 4666 
z
" transform="scale(0.015625)"/>
       <path id="DejaVuSans-4c" d="M 628 4666 
L 1259 4666 
L 1259 531 
L 3531 531 
L 3531 0 
L 628 0 
L 628 4666 
z
" transform="scale(0.015625)"/>
       <path id="DejaVuSans-59" d="M -13 4666 
L 666 4666 
L 1959 2747 
L 3244 4666 
L 3922 4666 
L 2272 2222 
L 2272 0 
L 1638 0 
L 1638 2222 
L -13 4666 
z
" transform="scale(0.015625)"/>
      </defs>
      <use xlink:href="#DejaVuSans-53"/>
      <use xlink:href="#DejaVuSans-41" x="65.351562"/>
      <use xlink:href="#DejaVuSans-43" x="132.009766"/>
      <use xlink:href="#DejaVuSans-2d" x="201.833984"/>
      <use xlink:href="#DejaVuSans-44" x="237.917969"/>
      <use xlink:href="#DejaVuSans-45" x="314.919922"/>
      <use xlink:href="#DejaVuSans-4c" x="378.103516"/>
      <use xlink:href="#DejaVuSans-41" x="436.066406"/>
      <use xlink:href="#DejaVuSans-59" x="496.724609"/>
      <use xlink:href="#DejaVuSans-2d" x="545.933594"/>
      <use xlink:href="#DejaVuSans-31" x="582.017578"/>
     </g>
    </g>
    <g id="line2d_21">
     <path d="M 321.922656 43.514219 
L 332.922656 43.514219 
L 343.922656 43.514219 
" style="fill: none; stroke: #dd8452; stroke-width: 3; stroke-linecap: round"/>
    </g>
    <g id="text_20">
     <!-- SAC-IS-DELAY-1 -->
     <g style="fill: #262626" transform="translate(352.722656 47.364219)scale(0.11 -0.11)">
      <defs>
       <path id="DejaVuSans-49" d="M 628 4666 
L 1259 4666 
L 1259 0 
L 628 0 
L 628 4666 
z
" transform="scale(0.015625)"/>
      </defs>
      <use xlink:href="#DejaVuSans-53"/>
      <use xlink:href="#DejaVuSans-41" x="65.351562"/>
      <use xlink:href="#DejaVuSans-43" x="132.009766"/>
      <use xlink:href="#DejaVuSans-2d" x="201.833984"/>
      <use xlink:href="#DejaVuSans-49" x="237.917969"/>
      <use xlink:href="#DejaVuSans-53" x="267.410156"/>
      <use xlink:href="#DejaVuSans-2d" x="330.886719"/>
      <use xlink:href="#DejaVuSans-44" x="366.970703"/>
      <use xlink:href="#DejaVuSans-45" x="443.972656"/>
      <use xlink:href="#DejaVuSans-4c" x="507.15625"/>
      <use xlink:href="#DejaVuSans-41" x="565.119141"/>
      <use xlink:href="#DejaVuSans-59" x="625.777344"/>
      <use xlink:href="#DejaVuSans-2d" x="674.986328"/>
      <use xlink:href="#DejaVuSans-31" x="711.070312"/>
     </g>
    </g>
    <g id="line2d_22">
     <path d="M 321.922656 59.660156 
L 332.922656 59.660156 
L 343.922656 59.660156 
" style="fill: none; stroke: #55a868; stroke-width: 3; stroke-linecap: round"/>
    </g>
    <g id="text_21">
     <!-- DCAC-DELAY-1 -->
     <g style="fill: #262626" transform="translate(352.722656 63.510156)scale(0.11 -0.11)">
      <use xlink:href="#DejaVuSans-44"/>
      <use xlink:href="#DejaVuSans-43" x="77.001953"/>
      <use xlink:href="#DejaVuSans-41" x="146.826172"/>
      <use xlink:href="#DejaVuSans-43" x="213.484375"/>
      <use xlink:href="#DejaVuSans-2d" x="283.308594"/>
      <use xlink:href="#DejaVuSans-44" x="319.392578"/>
      <use xlink:href="#DejaVuSans-45" x="396.394531"/>
      <use xlink:href="#DejaVuSans-4c" x="459.578125"/>
      <use xlink:href="#DejaVuSans-41" x="517.541016"/>
      <use xlink:href="#DejaVuSans-59" x="578.199219"/>
      <use xlink:href="#DejaVuSans-2d" x="627.408203"/>
      <use xlink:href="#DejaVuSans-31" x="663.492188"/>
     </g>
    </g>
   </g>
  </g>
 </g>
 <defs>
  <clipPath id="p06f6badf72">
   <rect x="67.86" y="12.96" width="379.98" height="281.7"/>
  </clipPath>
 </defs>
</svg>
