<?xml version="1.0" encoding="utf-8" standalone="no"?>
<!DOCTYPE svg PUBLIC "-//W3C//DTD SVG 1.1//EN"
  "http://www.w3.org/Graphics/SVG/1.1/DTD/svg11.dtd">
<svg xmlns:xlink="http://www.w3.org/1999/xlink" width="460.8pt" height="345.6pt" viewBox="0 0 460.8 345.6" xmlns="http://www.w3.org/2000/svg" version="1.1">
 <metadata>
  <rdf:RDF xmlns:dc="http://purl.org/dc/elements/1.1/" xmlns:cc="http://creativecommons.org/ns#" xmlns:rdf="http://www.w3.org/1999/02/22-rdf-syntax-ns#">
   <cc:Work>
    <dc:type rdf:resource="http://purl.org/dc/dcmitype/StillImage"/>
    <dc:date>2022-09-12T15:17:50.667565</dc:date>
    <dc:format>image/svg+xml</dc:format>
    <dc:creator>
     <cc:Agent>
      <dc:title>Matplotlib v3.5.3, https://matplotlib.org/</dc:title>
     </cc:Agent>
    </dc:creator>
   </cc:Work>
  </rdf:RDF>
 </metadata>
 <defs>
  <style type="text/css">*{stroke-linejoin: round; stroke-linecap: butt}</style>
 </defs>
 <g id="figure_1">
  <g id="patch_1">
   <path d="M 0 345.6 
L 460.8 345.6 
L 460.8 0 
L 0 0 
z
" style="fill: #ffffff"/>
  </g>
  <g id="axes_1">
   <g id="patch_2">
    <path d="M 67.95 294.66 
L 447.84 294.66 
L 447.84 12.96 
L 67.95 12.96 
z
" style="fill: #eaeaf2"/>
   </g>
   <g id="matplotlib.axis_1">
    <g id="xtick_1">
     <g id="line2d_1">
      <path d="M 82.315588 294.66 
L 82.315588 12.96 
" clip-path="url(#p63b96a127a)" style="fill: none; stroke: #ffffff; stroke-linecap: round"/>
     </g>
     <g id="text_1">
      <!-- 0.00 -->
      <g style="fill: #262626" transform="translate(70.069494 312.518281)scale(0.11 -0.11)">
       <defs>
        <path id="DejaVuSans-30" d="M 2034 4250 
Q 1547 4250 1301 3770 
Q 1056 3291 1056 2328 
Q 1056 1369 1301 889 
Q 1547 409 2034 409 
Q 2525 409 2770 889 
Q 3016 1369 3016 2328 
Q 3016 3291 2770 3770 
Q 2525 4250 2034 4250 
z
M 2034 4750 
Q 2819 4750 3233 4129 
Q 3647 3509 3647 2328 
Q 3647 1150 3233 529 
Q 2819 -91 2034 -91 
Q 1250 -91 836 529 
Q 422 1150 422 2328 
Q 422 3509 836 4129 
Q 1250 4750 2034 4750 
z
" transform="scale(0.015625)"/>
        <path id="DejaVuSans-2e" d="M 684 794 
L 1344 794 
L 1344 0 
L 684 0 
L 684 794 
z
" transform="scale(0.015625)"/>
       </defs>
       <use xlink:href="#DejaVuSans-30"/>
       <use xlink:href="#DejaVuSans-2e" x="63.623047"/>
       <use xlink:href="#DejaVuSans-30" x="95.410156"/>
       <use xlink:href="#DejaVuSans-30" x="159.033203"/>
      </g>
     </g>
    </g>
    <g id="xtick_2">
     <g id="line2d_2">
      <path d="M 140.358369 294.66 
L 140.358369 12.96 
" clip-path="url(#p63b96a127a)" style="fill: none; stroke: #ffffff; stroke-linecap: round"/>
     </g>
     <g id="text_2">
      <!-- 0.05 -->
      <g style="fill: #262626" transform="translate(128.112275 312.518281)scale(0.11 -0.11)">
       <defs>
        <path id="DejaVuSans-35" d="M 691 4666 
L 3169 4666 
L 3169 4134 
L 1269 4134 
L 1269 2991 
Q 1406 3038 1543 3061 
Q 1681 3084 1819 3084 
Q 2600 3084 3056 2656 
Q 3513 2228 3513 1497 
Q 3513 744 3044 326 
Q 2575 -91 1722 -91 
Q 1428 -91 1123 -41 
Q 819 9 494 109 
L 494 744 
Q 775 591 1075 516 
Q 1375 441 1709 441 
Q 2250 441 2565 725 
Q 2881 1009 2881 1497 
Q 2881 1984 2565 2268 
Q 2250 2553 1709 2553 
Q 1456 2553 1204 2497 
Q 953 2441 691 2322 
L 691 4666 
z
" transform="scale(0.015625)"/>
       </defs>
       <use xlink:href="#DejaVuSans-30"/>
       <use xlink:href="#DejaVuSans-2e" x="63.623047"/>
       <use xlink:href="#DejaVuSans-30" x="95.410156"/>
       <use xlink:href="#DejaVuSans-35" x="159.033203"/>
      </g>
     </g>
    </g>
    <g id="xtick_3">
     <g id="line2d_3">
      <path d="M 198.40115 294.66 
L 198.40115 12.96 
" clip-path="url(#p63b96a127a)" style="fill: none; stroke: #ffffff; stroke-linecap: round"/>
     </g>
     <g id="text_3">
      <!-- 0.10 -->
      <g style="fill: #262626" transform="translate(186.155056 312.518281)scale(0.11 -0.11)">
       <defs>
        <path id="DejaVuSans-31" d="M 794 531 
L 1825 531 
L 1825 4091 
L 703 3866 
L 703 4441 
L 1819 4666 
L 2450 4666 
L 2450 531 
L 3481 531 
L 3481 0 
L 794 0 
L 794 531 
z
" transform="scale(0.015625)"/>
       </defs>
       <use xlink:href="#DejaVuSans-30"/>
       <use xlink:href="#DejaVuSans-2e" x="63.623047"/>
       <use xlink:href="#DejaVuSans-31" x="95.410156"/>
       <use xlink:href="#DejaVuSans-30" x="159.033203"/>
      </g>
     </g>
    </g>
    <g id="xtick_4">
     <g id="line2d_4">
      <path d="M 256.44393 294.66 
L 256.44393 12.96 
" clip-path="url(#p63b96a127a)" style="fill: none; stroke: #ffffff; stroke-linecap: round"/>
     </g>
     <g id="text_4">
      <!-- 0.15 -->
      <g style="fill: #262626" transform="translate(244.197837 312.518281)scale(0.11 -0.11)">
       <use xlink:href="#DejaVuSans-30"/>
       <use xlink:href="#DejaVuSans-2e" x="63.623047"/>
       <use xlink:href="#DejaVuSans-31" x="95.410156"/>
       <use xlink:href="#DejaVuSans-35" x="159.033203"/>
      </g>
     </g>
    </g>
    <g id="xtick_5">
     <g id="line2d_5">
      <path d="M 314.486711 294.66 
L 314.486711 12.96 
" clip-path="url(#p63b96a127a)" style="fill: none; stroke: #ffffff; stroke-linecap: round"/>
     </g>
     <g id="text_5">
      <!-- 0.20 -->
      <g style="fill: #262626" transform="translate(302.240617 312.518281)scale(0.11 -0.11)">
       <defs>
        <path id="DejaVuSans-32" d="M 1228 531 
L 3431 531 
L 3431 0 
L 469 0 
L 469 531 
Q 828 903 1448 1529 
Q 2069 2156 2228 2338 
Q 2531 2678 2651 2914 
Q 2772 3150 2772 3378 
Q 2772 3750 2511 3984 
Q 2250 4219 1831 4219 
Q 1534 4219 1204 4116 
Q 875 4013 500 3803 
L 500 4441 
Q 881 4594 1212 4672 
Q 1544 4750 1819 4750 
Q 2544 4750 2975 4387 
Q 3406 4025 3406 3419 
Q 3406 3131 3298 2873 
Q 3191 2616 2906 2266 
Q 2828 2175 2409 1742 
Q 1991 1309 1228 531 
z
" transform="scale(0.015625)"/>
       </defs>
       <use xlink:href="#DejaVuSans-30"/>
       <use xlink:href="#DejaVuSans-2e" x="63.623047"/>
       <use xlink:href="#DejaVuSans-32" x="95.410156"/>
       <use xlink:href="#DejaVuSans-30" x="159.033203"/>
      </g>
     </g>
    </g>
    <g id="xtick_6">
     <g id="line2d_6">
      <path d="M 372.529492 294.66 
L 372.529492 12.96 
" clip-path="url(#p63b96a127a)" style="fill: none; stroke: #ffffff; stroke-linecap: round"/>
     </g>
     <g id="text_6">
      <!-- 0.25 -->
      <g style="fill: #262626" transform="translate(360.283398 312.518281)scale(0.11 -0.11)">
       <use xlink:href="#DejaVuSans-30"/>
       <use xlink:href="#DejaVuSans-2e" x="63.623047"/>
       <use xlink:href="#DejaVuSans-32" x="95.410156"/>
       <use xlink:href="#DejaVuSans-35" x="159.033203"/>
      </g>
     </g>
    </g>
    <g id="xtick_7">
     <g id="line2d_7">
      <path d="M 430.572273 294.66 
L 430.572273 12.96 
" clip-path="url(#p63b96a127a)" style="fill: none; stroke: #ffffff; stroke-linecap: round"/>
     </g>
     <g id="text_7">
      <!-- 0.30 -->
      <g style="fill: #262626" transform="translate(418.326179 312.518281)scale(0.11 -0.11)">
       <defs>
        <path id="DejaVuSans-33" d="M 2597 2516 
Q 3050 2419 3304 2112 
Q 3559 1806 3559 1356 
Q 3559 666 3084 287 
Q 2609 -91 1734 -91 
Q 1441 -91 1130 -33 
Q 819 25 488 141 
L 488 750 
Q 750 597 1062 519 
Q 1375 441 1716 441 
Q 2309 441 2620 675 
Q 2931 909 2931 1356 
Q 2931 1769 2642 2001 
Q 2353 2234 1838 2234 
L 1294 2234 
L 1294 2753 
L 1863 2753 
Q 2328 2753 2575 2939 
Q 2822 3125 2822 3475 
Q 2822 3834 2567 4026 
Q 2313 4219 1838 4219 
Q 1578 4219 1281 4162 
Q 984 4106 628 3988 
L 628 4550 
Q 988 4650 1302 4700 
Q 1616 4750 1894 4750 
Q 2613 4750 3031 4423 
Q 3450 4097 3450 3541 
Q 3450 3153 3228 2886 
Q 3006 2619 2597 2516 
z
" transform="scale(0.015625)"/>
       </defs>
       <use xlink:href="#DejaVuSans-30"/>
       <use xlink:href="#DejaVuSans-2e" x="63.623047"/>
       <use xlink:href="#DejaVuSans-33" x="95.410156"/>
       <use xlink:href="#DejaVuSans-30" x="159.033203"/>
      </g>
     </g>
    </g>
    <g id="text_8">
     <!-- Zeitschritte (in Millionen) -->
     <g style="fill: #262626" transform="translate(169.980469 329.44375)scale(0.14 -0.14)">
      <defs>
       <path id="DejaVuSans-5a" d="M 359 4666 
L 4025 4666 
L 4025 4184 
L 1075 531 
L 4097 531 
L 4097 0 
L 288 0 
L 288 481 
L 3238 4134 
L 359 4134 
L 359 4666 
z
" transform="scale(0.015625)"/>
       <path id="DejaVuSans-65" d="M 3597 1894 
L 3597 1613 
L 953 1613 
Q 991 1019 1311 708 
Q 1631 397 2203 397 
Q 2534 397 2845 478 
Q 3156 559 3463 722 
L 3463 178 
Q 3153 47 2828 -22 
Q 2503 -91 2169 -91 
Q 1331 -91 842 396 
Q 353 884 353 1716 
Q 353 2575 817 3079 
Q 1281 3584 2069 3584 
Q 2775 3584 3186 3129 
Q 3597 2675 3597 1894 
z
M 3022 2063 
Q 3016 2534 2758 2815 
Q 2500 3097 2075 3097 
Q 1594 3097 1305 2825 
Q 1016 2553 972 2059 
L 3022 2063 
z
" transform="scale(0.015625)"/>
       <path id="DejaVuSans-69" d="M 603 3500 
L 1178 3500 
L 1178 0 
L 603 0 
L 603 3500 
z
M 603 4863 
L 1178 4863 
L 1178 4134 
L 603 4134 
L 603 4863 
z
" transform="scale(0.015625)"/>
       <path id="DejaVuSans-74" d="M 1172 4494 
L 1172 3500 
L 2356 3500 
L 2356 3053 
L 1172 3053 
L 1172 1153 
Q 1172 725 1289 603 
Q 1406 481 1766 481 
L 2356 481 
L 2356 0 
L 1766 0 
Q 1100 0 847 248 
Q 594 497 594 1153 
L 594 3053 
L 172 3053 
L 172 3500 
L 594 3500 
L 594 4494 
L 1172 4494 
z
" transform="scale(0.015625)"/>
       <path id="DejaVuSans-73" d="M 2834 3397 
L 2834 2853 
Q 2591 2978 2328 3040 
Q 2066 3103 1784 3103 
Q 1356 3103 1142 2972 
Q 928 2841 928 2578 
Q 928 2378 1081 2264 
Q 1234 2150 1697 2047 
L 1894 2003 
Q 2506 1872 2764 1633 
Q 3022 1394 3022 966 
Q 3022 478 2636 193 
Q 2250 -91 1575 -91 
Q 1294 -91 989 -36 
Q 684 19 347 128 
L 347 722 
Q 666 556 975 473 
Q 1284 391 1588 391 
Q 1994 391 2212 530 
Q 2431 669 2431 922 
Q 2431 1156 2273 1281 
Q 2116 1406 1581 1522 
L 1381 1569 
Q 847 1681 609 1914 
Q 372 2147 372 2553 
Q 372 3047 722 3315 
Q 1072 3584 1716 3584 
Q 2034 3584 2315 3537 
Q 2597 3491 2834 3397 
z
" transform="scale(0.015625)"/>
       <path id="DejaVuSans-63" d="M 3122 3366 
L 3122 2828 
Q 2878 2963 2633 3030 
Q 2388 3097 2138 3097 
Q 1578 3097 1268 2742 
Q 959 2388 959 1747 
Q 959 1106 1268 751 
Q 1578 397 2138 397 
Q 2388 397 2633 464 
Q 2878 531 3122 666 
L 3122 134 
Q 2881 22 2623 -34 
Q 2366 -91 2075 -91 
Q 1284 -91 818 406 
Q 353 903 353 1747 
Q 353 2603 823 3093 
Q 1294 3584 2113 3584 
Q 2378 3584 2631 3529 
Q 2884 3475 3122 3366 
z
" transform="scale(0.015625)"/>
       <path id="DejaVuSans-68" d="M 3513 2113 
L 3513 0 
L 2938 0 
L 2938 2094 
Q 2938 2591 2744 2837 
Q 2550 3084 2163 3084 
Q 1697 3084 1428 2787 
Q 1159 2491 1159 1978 
L 1159 0 
L 581 0 
L 581 4863 
L 1159 4863 
L 1159 2956 
Q 1366 3272 1645 3428 
Q 1925 3584 2291 3584 
Q 2894 3584 3203 3211 
Q 3513 2838 3513 2113 
z
" transform="scale(0.015625)"/>
       <path id="DejaVuSans-72" d="M 2631 2963 
Q 2534 3019 2420 3045 
Q 2306 3072 2169 3072 
Q 1681 3072 1420 2755 
Q 1159 2438 1159 1844 
L 1159 0 
L 581 0 
L 581 3500 
L 1159 3500 
L 1159 2956 
Q 1341 3275 1631 3429 
Q 1922 3584 2338 3584 
Q 2397 3584 2469 3576 
Q 2541 3569 2628 3553 
L 2631 2963 
z
" transform="scale(0.015625)"/>
       <path id="DejaVuSans-20" transform="scale(0.015625)"/>
       <path id="DejaVuSans-28" d="M 1984 4856 
Q 1566 4138 1362 3434 
Q 1159 2731 1159 2009 
Q 1159 1288 1364 580 
Q 1569 -128 1984 -844 
L 1484 -844 
Q 1016 -109 783 600 
Q 550 1309 550 2009 
Q 550 2706 781 3412 
Q 1013 4119 1484 4856 
L 1984 4856 
z
" transform="scale(0.015625)"/>
       <path id="DejaVuSans-6e" d="M 3513 2113 
L 3513 0 
L 2938 0 
L 2938 2094 
Q 2938 2591 2744 2837 
Q 2550 3084 2163 3084 
Q 1697 3084 1428 2787 
Q 1159 2491 1159 1978 
L 1159 0 
L 581 0 
L 581 3500 
L 1159 3500 
L 1159 2956 
Q 1366 3272 1645 3428 
Q 1925 3584 2291 3584 
Q 2894 3584 3203 3211 
Q 3513 2838 3513 2113 
z
" transform="scale(0.015625)"/>
       <path id="DejaVuSans-4d" d="M 628 4666 
L 1569 4666 
L 2759 1491 
L 3956 4666 
L 4897 4666 
L 4897 0 
L 4281 0 
L 4281 4097 
L 3078 897 
L 2444 897 
L 1241 4097 
L 1241 0 
L 628 0 
L 628 4666 
z
" transform="scale(0.015625)"/>
       <path id="DejaVuSans-6c" d="M 603 4863 
L 1178 4863 
L 1178 0 
L 603 0 
L 603 4863 
z
" transform="scale(0.015625)"/>
       <path id="DejaVuSans-6f" d="M 1959 3097 
Q 1497 3097 1228 2736 
Q 959 2375 959 1747 
Q 959 1119 1226 758 
Q 1494 397 1959 397 
Q 2419 397 2687 759 
Q 2956 1122 2956 1747 
Q 2956 2369 2687 2733 
Q 2419 3097 1959 3097 
z
M 1959 3584 
Q 2709 3584 3137 3096 
Q 3566 2609 3566 1747 
Q 3566 888 3137 398 
Q 2709 -91 1959 -91 
Q 1206 -91 779 398 
Q 353 888 353 1747 
Q 353 2609 779 3096 
Q 1206 3584 1959 3584 
z
" transform="scale(0.015625)"/>
       <path id="DejaVuSans-29" d="M 513 4856 
L 1013 4856 
Q 1481 4119 1714 3412 
Q 1947 2706 1947 2009 
Q 1947 1309 1714 600 
Q 1481 -109 1013 -844 
L 513 -844 
Q 928 -128 1133 580 
Q 1338 1288 1338 2009 
Q 1338 2731 1133 3434 
Q 928 4138 513 4856 
z
" transform="scale(0.015625)"/>
      </defs>
      <use xlink:href="#DejaVuSans-5a"/>
      <use xlink:href="#DejaVuSans-65" x="68.505859"/>
      <use xlink:href="#DejaVuSans-69" x="130.029297"/>
      <use xlink:href="#DejaVuSans-74" x="157.8125"/>
      <use xlink:href="#DejaVuSans-73" x="197.021484"/>
      <use xlink:href="#DejaVuSans-63" x="249.121094"/>
      <use xlink:href="#DejaVuSans-68" x="304.101562"/>
      <use xlink:href="#DejaVuSans-72" x="367.480469"/>
      <use xlink:href="#DejaVuSans-69" x="408.59375"/>
      <use xlink:href="#DejaVuSans-74" x="436.376953"/>
      <use xlink:href="#DejaVuSans-74" x="475.585938"/>
      <use xlink:href="#DejaVuSans-65" x="514.794922"/>
      <use xlink:href="#DejaVuSans-20" x="576.318359"/>
      <use xlink:href="#DejaVuSans-28" x="608.105469"/>
      <use xlink:href="#DejaVuSans-69" x="647.119141"/>
      <use xlink:href="#DejaVuSans-6e" x="674.902344"/>
      <use xlink:href="#DejaVuSans-20" x="738.28125"/>
      <use xlink:href="#DejaVuSans-4d" x="770.068359"/>
      <use xlink:href="#DejaVuSans-69" x="856.347656"/>
      <use xlink:href="#DejaVuSans-6c" x="884.130859"/>
      <use xlink:href="#DejaVuSans-6c" x="911.914062"/>
      <use xlink:href="#DejaVuSans-69" x="939.697266"/>
      <use xlink:href="#DejaVuSans-6f" x="967.480469"/>
      <use xlink:href="#DejaVuSans-6e" x="1028.662109"/>
      <use xlink:href="#DejaVuSans-65" x="1092.041016"/>
      <use xlink:href="#DejaVuSans-6e" x="1153.564453"/>
      <use xlink:href="#DejaVuSans-29" x="1216.943359"/>
     </g>
    </g>
   </g>
   <g id="matplotlib.axis_2">
    <g id="ytick_1">
     <g id="line2d_8">
      <path d="M 67.95 281.855455 
L 447.84 281.855455 
" clip-path="url(#p63b96a127a)" style="fill: none; stroke: #ffffff; stroke-linecap: round"/>
     </g>
     <g id="text_9">
      <!-- 0 -->
      <g style="fill: #262626" transform="translate(51.45125 286.034595)scale(0.11 -0.11)">
       <use xlink:href="#DejaVuSans-30"/>
      </g>
     </g>
    </g>
    <g id="ytick_2">
     <g id="line2d_9">
      <path d="M 67.95 249.541144 
L 447.84 249.541144 
" clip-path="url(#p63b96a127a)" style="fill: none; stroke: #ffffff; stroke-linecap: round"/>
     </g>
     <g id="text_10">
      <!-- 200 -->
      <g style="fill: #262626" transform="translate(37.45375 253.720285)scale(0.11 -0.11)">
       <use xlink:href="#DejaVuSans-32"/>
       <use xlink:href="#DejaVuSans-30" x="63.623047"/>
       <use xlink:href="#DejaVuSans-30" x="127.246094"/>
      </g>
     </g>
    </g>
    <g id="ytick_3">
     <g id="line2d_10">
      <path d="M 67.95 217.226834 
L 447.84 217.226834 
" clip-path="url(#p63b96a127a)" style="fill: none; stroke: #ffffff; stroke-linecap: round"/>
     </g>
     <g id="text_11">
      <!-- 400 -->
      <g style="fill: #262626" transform="translate(37.45375 221.405975)scale(0.11 -0.11)">
       <defs>
        <path id="DejaVuSans-34" d="M 2419 4116 
L 825 1625 
L 2419 1625 
L 2419 4116 
z
M 2253 4666 
L 3047 4666 
L 3047 1625 
L 3713 1625 
L 3713 1100 
L 3047 1100 
L 3047 0 
L 2419 0 
L 2419 1100 
L 313 1100 
L 313 1709 
L 2253 4666 
z
" transform="scale(0.015625)"/>
       </defs>
       <use xlink:href="#DejaVuSans-34"/>
       <use xlink:href="#DejaVuSans-30" x="63.623047"/>
       <use xlink:href="#DejaVuSans-30" x="127.246094"/>
      </g>
     </g>
    </g>
    <g id="ytick_4">
     <g id="line2d_11">
      <path d="M 67.95 184.912524 
L 447.84 184.912524 
" clip-path="url(#p63b96a127a)" style="fill: none; stroke: #ffffff; stroke-linecap: round"/>
     </g>
     <g id="text_12">
      <!-- 600 -->
      <g style="fill: #262626" transform="translate(37.45375 189.091664)scale(0.11 -0.11)">
       <defs>
        <path id="DejaVuSans-36" d="M 2113 2584 
Q 1688 2584 1439 2293 
Q 1191 2003 1191 1497 
Q 1191 994 1439 701 
Q 1688 409 2113 409 
Q 2538 409 2786 701 
Q 3034 994 3034 1497 
Q 3034 2003 2786 2293 
Q 2538 2584 2113 2584 
z
M 3366 4563 
L 3366 3988 
Q 3128 4100 2886 4159 
Q 2644 4219 2406 4219 
Q 1781 4219 1451 3797 
Q 1122 3375 1075 2522 
Q 1259 2794 1537 2939 
Q 1816 3084 2150 3084 
Q 2853 3084 3261 2657 
Q 3669 2231 3669 1497 
Q 3669 778 3244 343 
Q 2819 -91 2113 -91 
Q 1303 -91 875 529 
Q 447 1150 447 2328 
Q 447 3434 972 4092 
Q 1497 4750 2381 4750 
Q 2619 4750 2861 4703 
Q 3103 4656 3366 4563 
z
" transform="scale(0.015625)"/>
       </defs>
       <use xlink:href="#DejaVuSans-36"/>
       <use xlink:href="#DejaVuSans-30" x="63.623047"/>
       <use xlink:href="#DejaVuSans-30" x="127.246094"/>
      </g>
     </g>
    </g>
    <g id="ytick_5">
     <g id="line2d_12">
      <path d="M 67.95 152.598213 
L 447.84 152.598213 
" clip-path="url(#p63b96a127a)" style="fill: none; stroke: #ffffff; stroke-linecap: round"/>
     </g>
     <g id="text_13">
      <!-- 800 -->
      <g style="fill: #262626" transform="translate(37.45375 156.777354)scale(0.11 -0.11)">
       <defs>
        <path id="DejaVuSans-38" d="M 2034 2216 
Q 1584 2216 1326 1975 
Q 1069 1734 1069 1313 
Q 1069 891 1326 650 
Q 1584 409 2034 409 
Q 2484 409 2743 651 
Q 3003 894 3003 1313 
Q 3003 1734 2745 1975 
Q 2488 2216 2034 2216 
z
M 1403 2484 
Q 997 2584 770 2862 
Q 544 3141 544 3541 
Q 544 4100 942 4425 
Q 1341 4750 2034 4750 
Q 2731 4750 3128 4425 
Q 3525 4100 3525 3541 
Q 3525 3141 3298 2862 
Q 3072 2584 2669 2484 
Q 3125 2378 3379 2068 
Q 3634 1759 3634 1313 
Q 3634 634 3220 271 
Q 2806 -91 2034 -91 
Q 1263 -91 848 271 
Q 434 634 434 1313 
Q 434 1759 690 2068 
Q 947 2378 1403 2484 
z
M 1172 3481 
Q 1172 3119 1398 2916 
Q 1625 2713 2034 2713 
Q 2441 2713 2670 2916 
Q 2900 3119 2900 3481 
Q 2900 3844 2670 4047 
Q 2441 4250 2034 4250 
Q 1625 4250 1398 4047 
Q 1172 3844 1172 3481 
z
" transform="scale(0.015625)"/>
       </defs>
       <use xlink:href="#DejaVuSans-38"/>
       <use xlink:href="#DejaVuSans-30" x="63.623047"/>
       <use xlink:href="#DejaVuSans-30" x="127.246094"/>
      </g>
     </g>
    </g>
    <g id="ytick_6">
     <g id="line2d_13">
      <path d="M 67.95 120.283903 
L 447.84 120.283903 
" clip-path="url(#p63b96a127a)" style="fill: none; stroke: #ffffff; stroke-linecap: round"/>
     </g>
     <g id="text_14">
      <!-- 1000 -->
      <g style="fill: #262626" transform="translate(30.455 124.463044)scale(0.11 -0.11)">
       <use xlink:href="#DejaVuSans-31"/>
       <use xlink:href="#DejaVuSans-30" x="63.623047"/>
       <use xlink:href="#DejaVuSans-30" x="127.246094"/>
       <use xlink:href="#DejaVuSans-30" x="190.869141"/>
      </g>
     </g>
    </g>
    <g id="ytick_7">
     <g id="line2d_14">
      <path d="M 67.95 87.969593 
L 447.84 87.969593 
" clip-path="url(#p63b96a127a)" style="fill: none; stroke: #ffffff; stroke-linecap: round"/>
     </g>
     <g id="text_15">
      <!-- 1200 -->
      <g style="fill: #262626" transform="translate(30.455 92.148733)scale(0.11 -0.11)">
       <use xlink:href="#DejaVuSans-31"/>
       <use xlink:href="#DejaVuSans-32" x="63.623047"/>
       <use xlink:href="#DejaVuSans-30" x="127.246094"/>
       <use xlink:href="#DejaVuSans-30" x="190.869141"/>
      </g>
     </g>
    </g>
    <g id="ytick_8">
     <g id="line2d_15">
      <path d="M 67.95 55.655282 
L 447.84 55.655282 
" clip-path="url(#p63b96a127a)" style="fill: none; stroke: #ffffff; stroke-linecap: round"/>
     </g>
     <g id="text_16">
      <!-- 1400 -->
      <g style="fill: #262626" transform="translate(30.455 59.834423)scale(0.11 -0.11)">
       <use xlink:href="#DejaVuSans-31"/>
       <use xlink:href="#DejaVuSans-34" x="63.623047"/>
       <use xlink:href="#DejaVuSans-30" x="127.246094"/>
       <use xlink:href="#DejaVuSans-30" x="190.869141"/>
      </g>
     </g>
    </g>
    <g id="ytick_9">
     <g id="line2d_16">
      <path d="M 67.95 23.340972 
L 447.84 23.340972 
" clip-path="url(#p63b96a127a)" style="fill: none; stroke: #ffffff; stroke-linecap: round"/>
     </g>
     <g id="text_17">
      <!-- 1600 -->
      <g style="fill: #262626" transform="translate(30.455 27.520113)scale(0.11 -0.11)">
       <use xlink:href="#DejaVuSans-31"/>
       <use xlink:href="#DejaVuSans-36" x="63.623047"/>
       <use xlink:href="#DejaVuSans-30" x="127.246094"/>
       <use xlink:href="#DejaVuSans-30" x="190.869141"/>
      </g>
     </g>
    </g>
    <g id="text_18">
     <!-- # Δx &gt; 20 -->
     <g style="fill: #262626" transform="translate(23.543437 190.054688)rotate(-90)scale(0.14 -0.14)">
      <defs>
       <path id="DejaVuSans-23" d="M 3272 2816 
L 2363 2816 
L 2100 1772 
L 3016 1772 
L 3272 2816 
z
M 2803 4594 
L 2478 3297 
L 3391 3297 
L 3719 4594 
L 4219 4594 
L 3897 3297 
L 4872 3297 
L 4872 2816 
L 3775 2816 
L 3519 1772 
L 4513 1772 
L 4513 1294 
L 3397 1294 
L 3072 0 
L 2572 0 
L 2894 1294 
L 1978 1294 
L 1656 0 
L 1153 0 
L 1478 1294 
L 494 1294 
L 494 1772 
L 1594 1772 
L 1856 2816 
L 850 2816 
L 850 3297 
L 1978 3297 
L 2297 4594 
L 2803 4594 
z
" transform="scale(0.015625)"/>
       <path id="DejaVuSans-394" d="M 2188 4044 
L 906 525 
L 3472 525 
L 2188 4044 
z
M 50 0 
L 1831 4666 
L 2547 4666 
L 4325 0 
L 50 0 
z
" transform="scale(0.015625)"/>
       <path id="DejaVuSans-78" d="M 3513 3500 
L 2247 1797 
L 3578 0 
L 2900 0 
L 1881 1375 
L 863 0 
L 184 0 
L 1544 1831 
L 300 3500 
L 978 3500 
L 1906 2253 
L 2834 3500 
L 3513 3500 
z
" transform="scale(0.015625)"/>
       <path id="DejaVuSans-3e" d="M 678 3150 
L 678 3719 
L 4684 2266 
L 4684 1747 
L 678 294 
L 678 863 
L 3897 2003 
L 678 3150 
z
" transform="scale(0.015625)"/>
      </defs>
      <use xlink:href="#DejaVuSans-23"/>
      <use xlink:href="#DejaVuSans-20" x="83.789062"/>
      <use xlink:href="#DejaVuSans-394" x="115.576172"/>
      <use xlink:href="#DejaVuSans-78" x="183.984375"/>
      <use xlink:href="#DejaVuSans-20" x="243.164062"/>
      <use xlink:href="#DejaVuSans-3e" x="274.951172"/>
      <use xlink:href="#DejaVuSans-20" x="358.740234"/>
      <use xlink:href="#DejaVuSans-32" x="390.527344"/>
      <use xlink:href="#DejaVuSans-30" x="454.150391"/>
     </g>
    </g>
   </g>
   <g id="PolyCollection_1">
    <defs>
     <path id="m4b7e47e0c2" d="M 85.217727 -193.938902 
L 85.217727 -239.889851 
L 88.119866 -268.229501 
L 91.022005 -262.186725 
L 93.924144 -257.985865 
L 96.826283 -233.200789 
L 99.728422 -97.933086 
L 102.630561 -110.050952 
L 105.532701 -110.697238 
L 108.43484 -104.945291 
L 111.336979 -122.201133 
L 114.239118 -106.367121 
L 117.141257 -116.546128 
L 120.043396 -109.340037 
L 122.945535 -111.375839 
L 125.847674 -104.525205 
L 128.749813 -94.895541 
L 131.651952 -65.004804 
L 134.554091 -64.196946 
L 137.45623 -82.874617 
L 140.358369 -81.032701 
L 143.260508 -72.695609 
L 146.162647 -64.132317 
L 149.064786 -64.164631 
L 151.966925 -68.333178 
L 154.869064 -79.061529 
L 157.771203 -64.132317 
L 160.673342 -64.22926 
L 163.575481 -64.196946 
L 166.47762 -64.293889 
L 169.379759 -64.22926 
L 172.281898 -64.22926 
L 175.184037 -64.22926 
L 178.086176 -64.326203 
L 180.988316 -65.263318 
L 183.890455 -71.370723 
L 186.792594 -64.22926 
L 189.694733 -64.22926 
L 192.596872 -64.164631 
L 195.499011 -64.261574 
L 198.40115 -64.261574 
L 201.303289 -64.164631 
L 204.205428 -64.358517 
L 207.107567 -64.261574 
L 210.009706 -64.261574 
L 212.911845 -64.326203 
L 215.813984 -64.293889 
L 218.716123 -64.293889 
L 221.618262 -64.196946 
L 224.520401 -64.22926 
L 227.42254 -64.22926 
L 230.324679 -64.261574 
L 233.226818 -64.196946 
L 236.128957 -64.358517 
L 239.031096 -64.22926 
L 241.933235 -64.22926 
L 244.835374 -64.261574 
L 247.737513 -64.261574 
L 250.639652 -64.261574 
L 253.541791 -64.326203 
L 256.44393 -64.261574 
L 259.34607 -64.293889 
L 262.248209 -64.196946 
L 265.150348 -64.293889 
L 268.052487 -64.261574 
L 270.954626 -64.22926 
L 273.856765 -64.293889 
L 276.758904 -64.22926 
L 279.661043 -64.261574 
L 282.563182 -64.261574 
L 285.465321 -64.326203 
L 288.36746 -64.293889 
L 291.269599 -64.22926 
L 294.171738 -64.293889 
L 297.073877 -64.326203 
L 299.976016 -64.196946 
L 302.878155 -64.261574 
L 305.780294 -64.132317 
L 308.682433 -64.22926 
L 311.584572 -64.22926 
L 314.486711 -64.261574 
L 317.38885 -64.326203 
L 320.290989 -64.261574 
L 323.193128 -64.358517 
L 326.095267 -64.22926 
L 328.997406 -64.22926 
L 331.899545 -64.164631 
L 334.801684 -64.22926 
L 337.703824 -64.22926 
L 340.605963 -64.261574 
L 343.508102 -64.22926 
L 346.410241 -64.22926 
L 349.31238 -64.261574 
L 352.214519 -64.293889 
L 355.116658 -64.196946 
L 358.018797 -64.22926 
L 360.920936 -64.293889 
L 363.823075 -64.196946 
L 366.725214 -64.293889 
L 369.627353 -64.22926 
L 372.529492 -64.22926 
L 375.431631 -64.261574 
L 378.33377 -64.261574 
L 381.235909 -64.261574 
L 384.138048 -64.196946 
L 387.040187 -64.261574 
L 389.942326 -64.261574 
L 392.844465 -64.261574 
L 395.746604 -64.261574 
L 398.648743 -64.22926 
L 401.550882 -64.261574 
L 404.453021 -64.22926 
L 407.35516 -64.293889 
L 410.257299 -64.261574 
L 413.159439 -64.22926 
L 416.061578 -64.22926 
L 418.963717 -64.261574 
L 421.865856 -64.293889 
L 424.767995 -64.196946 
L 427.670134 -64.261574 
L 430.572273 -64.22926 
L 430.572273 -64.067689 
L 430.572273 -64.067689 
L 427.670134 -64.132317 
L 424.767995 -64.067689 
L 421.865856 -64.067689 
L 418.963717 -64.067689 
L 416.061578 -64.132317 
L 413.159439 -64.164631 
L 410.257299 -64.164631 
L 407.35516 -64.100003 
L 404.453021 -64.132317 
L 401.550882 -64.132317 
L 398.648743 -64.132317 
L 395.746604 -64.100003 
L 392.844465 -64.132317 
L 389.942326 -64.164631 
L 387.040187 -64.100003 
L 384.138048 -64.100003 
L 381.235909 -64.164631 
L 378.33377 -64.100003 
L 375.431631 -64.164631 
L 372.529492 -64.035374 
L 369.627353 -64.100003 
L 366.725214 -64.100003 
L 363.823075 -64.132317 
L 360.920936 -64.164631 
L 358.018797 -64.100003 
L 355.116658 -64.067689 
L 352.214519 -64.164631 
L 349.31238 -64.067689 
L 346.410241 -64.100003 
L 343.508102 -64.100003 
L 340.605963 -64.164631 
L 337.703824 -64.132317 
L 334.801684 -64.100003 
L 331.899545 -64.067689 
L 328.997406 -64.132317 
L 326.095267 -64.067689 
L 323.193128 -64.132317 
L 320.290989 -64.100003 
L 317.38885 -64.067689 
L 314.486711 -64.164631 
L 311.584572 -64.067689 
L 308.682433 -64.132317 
L 305.780294 -64.100003 
L 302.878155 -64.164631 
L 299.976016 -64.132317 
L 297.073877 -64.132317 
L 294.171738 -64.164631 
L 291.269599 -64.164631 
L 288.36746 -64.164631 
L 285.465321 -64.132317 
L 282.563182 -64.164631 
L 279.661043 -63.938431 
L 276.758904 -64.164631 
L 273.856765 -64.132317 
L 270.954626 -64.132317 
L 268.052487 -64.132317 
L 265.150348 -64.100003 
L 262.248209 -64.067689 
L 259.34607 -64.164631 
L 256.44393 -64.067689 
L 253.541791 -64.035374 
L 250.639652 -64.035374 
L 247.737513 -64.100003 
L 244.835374 -64.100003 
L 241.933235 -64.132317 
L 239.031096 -64.132317 
L 236.128957 -64.100003 
L 233.226818 -64.100003 
L 230.324679 -64.100003 
L 227.42254 -64.132317 
L 224.520401 -64.035374 
L 221.618262 -64.067689 
L 218.716123 -64.164631 
L 215.813984 -64.164631 
L 212.911845 -64.132317 
L 210.009706 -64.164631 
L 207.107567 -64.100003 
L 204.205428 -64.132317 
L 201.303289 -64.067689 
L 198.40115 -64.132317 
L 195.499011 -64.164631 
L 192.596872 -64.035374 
L 189.694733 -64.100003 
L 186.792594 -64.100003 
L 183.890455 -64.100003 
L 180.988316 -64.00306 
L 178.086176 -64.035374 
L 175.184037 -64.067689 
L 172.281898 -64.035374 
L 169.379759 -64.100003 
L 166.47762 -64.035374 
L 163.575481 -64.100003 
L 160.673342 -64.00306 
L 157.771203 -64.035374 
L 154.869064 -64.067689 
L 151.966925 -64.100003 
L 149.064786 -63.938431 
L 146.162647 -63.970746 
L 143.260508 -64.00306 
L 140.358369 -64.067689 
L 137.45623 -63.970746 
L 134.554091 -63.938431 
L 131.651952 -63.970746 
L 128.749813 -63.938431 
L 125.847674 -63.938431 
L 122.945535 -63.938431 
L 120.043396 -63.970746 
L 117.141257 -68.333178 
L 114.239118 -68.947149 
L 111.336979 -63.906117 
L 108.43484 -63.938431 
L 105.532701 -63.809174 
L 102.630561 -65.586461 
L 99.728422 -79.610872 
L 96.826283 -100.453602 
L 93.924144 -191.386071 
L 91.022005 -182.855093 
L 88.119866 -202.631451 
L 85.217727 -193.938902 
z
" style="stroke: #ffffff; stroke-opacity: 0.5"/>
    </defs>
    <g clip-path="url(#p63b96a127a)">
     <use xlink:href="#m4b7e47e0c2" x="0" y="345.6" style="fill: #4c72b0; fill-opacity: 0.5; stroke: #ffffff; stroke-opacity: 0.5"/>
    </g>
   </g>
   <g id="PolyCollection_2">
    <defs>
     <path id="m1d3cc13317" d="M 85.217727 -147.600181 
L 85.217727 -263.285412 
L 88.119866 -210.936229 
L 91.022005 -319.835455 
L 93.924144 -263.608555 
L 96.826283 -247.936114 
L 99.728422 -294.630293 
L 102.630561 -215.298661 
L 105.532701 -112.377582 
L 108.43484 -200.757221 
L 111.336979 -126.434307 
L 114.239118 -130.796739 
L 117.141257 -119.809874 
L 120.043396 -96.058856 
L 122.945535 -261.184981 
L 125.847674 -86.202991 
L 128.749813 -64.552403 
L 131.651952 -92.019567 
L 134.554091 -158.102332 
L 137.45623 -66.32969 
L 140.358369 -96.866714 
L 143.260508 -72.954124 
L 146.162647 -64.390832 
L 149.064786 -64.713975 
L 151.966925 -79.901701 
L 154.869064 -126.757451 
L 157.771203 -64.552403 
L 160.673342 -64.552403 
L 163.575481 -64.552403 
L 166.47762 -64.713975 
L 169.379759 -96.220427 
L 172.281898 -64.713975 
L 175.184037 -64.713975 
L 178.086176 -64.713975 
L 180.988316 -70.692122 
L 183.890455 -64.552403 
L 186.792594 -65.037118 
L 189.694733 -64.875546 
L 192.596872 -64.552403 
L 195.499011 -64.875546 
L 198.40115 -64.552403 
L 201.303289 -65.037118 
L 204.205428 -64.875546 
L 207.107567 -64.875546 
L 210.009706 -64.552403 
L 212.911845 -64.552403 
L 215.813984 -64.713975 
L 218.716123 -64.713975 
L 221.618262 -64.552403 
L 224.520401 -64.552403 
L 227.42254 -64.552403 
L 230.324679 -64.713975 
L 233.226818 -65.360261 
L 236.128957 -64.713975 
L 239.031096 -64.390832 
L 241.933235 -64.552403 
L 244.835374 -64.713975 
L 247.737513 -64.390832 
L 250.639652 -64.390832 
L 253.541791 -64.713975 
L 256.44393 -64.552403 
L 259.34607 -64.713975 
L 262.248209 -64.390832 
L 265.150348 -64.713975 
L 268.052487 -64.875546 
L 270.954626 -64.875546 
L 273.856765 -64.875546 
L 276.758904 -64.552403 
L 279.661043 -64.552403 
L 282.563182 -64.713975 
L 285.465321 -64.552403 
L 288.36746 -64.713975 
L 291.269599 -64.713975 
L 294.171738 -64.390832 
L 297.073877 -64.875546 
L 299.976016 -64.875546 
L 302.878155 -64.713975 
L 305.780294 -64.713975 
L 308.682433 -64.552403 
L 311.584572 -64.713975 
L 314.486711 -64.552403 
L 317.38885 -64.552403 
L 320.290989 -64.713975 
L 323.193128 -64.390832 
L 326.095267 -64.875546 
L 328.997406 -64.713975 
L 331.899545 -64.552403 
L 334.801684 -64.875546 
L 337.703824 -64.875546 
L 340.605963 -64.875546 
L 343.508102 -64.552403 
L 346.410241 -64.713975 
L 349.31238 -65.037118 
L 352.214519 -64.713975 
L 355.116658 -64.875546 
L 358.018797 -64.552403 
L 360.920936 -64.552403 
L 363.823075 -64.552403 
L 366.725214 -64.552403 
L 369.627353 -64.713975 
L 372.529492 -64.552403 
L 375.431631 -64.713975 
L 378.33377 -64.552403 
L 381.235909 -64.713975 
L 384.138048 -64.552403 
L 387.040187 -64.713975 
L 389.942326 -64.713975 
L 392.844465 -64.713975 
L 395.746604 -65.037118 
L 398.648743 -64.552403 
L 401.550882 -64.875546 
L 404.453021 -64.713975 
L 407.35516 -64.713975 
L 410.257299 -65.198689 
L 413.159439 -64.713975 
L 416.061578 -65.037118 
L 418.963717 -65.198689 
L 421.865856 -64.713975 
L 424.767995 -64.875546 
L 427.670134 -64.713975 
L 430.572273 -64.875546 
L 430.572273 -64.390832 
L 430.572273 -64.390832 
L 427.670134 -64.22926 
L 424.767995 -64.067689 
L 421.865856 -64.22926 
L 418.963717 -64.22926 
L 416.061578 -64.22926 
L 413.159439 -64.22926 
L 410.257299 -64.067689 
L 407.35516 -64.390832 
L 404.453021 -64.22926 
L 401.550882 -64.390832 
L 398.648743 -64.067689 
L 395.746604 -64.22926 
L 392.844465 -64.22926 
L 389.942326 -64.22926 
L 387.040187 -64.067689 
L 384.138048 -64.22926 
L 381.235909 -64.067689 
L 378.33377 -64.22926 
L 375.431631 -64.067689 
L 372.529492 -64.390832 
L 369.627353 -64.22926 
L 366.725214 -64.067689 
L 363.823075 -64.22926 
L 360.920936 -64.22926 
L 358.018797 -64.067689 
L 355.116658 -64.390832 
L 352.214519 -64.22926 
L 349.31238 -64.390832 
L 346.410241 -64.067689 
L 343.508102 -64.390832 
L 340.605963 -64.067689 
L 337.703824 -64.22926 
L 334.801684 -64.22926 
L 331.899545 -64.067689 
L 328.997406 -64.390832 
L 326.095267 -64.22926 
L 323.193128 -64.067689 
L 320.290989 -64.22926 
L 317.38885 -64.22926 
L 314.486711 -63.906117 
L 311.584572 -64.22926 
L 308.682433 -64.390832 
L 305.780294 -64.390832 
L 302.878155 -64.22926 
L 299.976016 -64.390832 
L 297.073877 -64.22926 
L 294.171738 -64.067689 
L 291.269599 -64.22926 
L 288.36746 -64.22926 
L 285.465321 -64.22926 
L 282.563182 -64.390832 
L 279.661043 -63.744545 
L 276.758904 -64.22926 
L 273.856765 -64.22926 
L 270.954626 -64.390832 
L 268.052487 -64.22926 
L 265.150348 -64.22926 
L 262.248209 -64.22926 
L 259.34607 -64.067689 
L 256.44393 -64.22926 
L 253.541791 -64.067689 
L 250.639652 -64.22926 
L 247.737513 -64.067689 
L 244.835374 -64.22926 
L 241.933235 -64.22926 
L 239.031096 -64.22926 
L 236.128957 -64.22926 
L 233.226818 -64.22926 
L 230.324679 -64.22926 
L 227.42254 -64.22926 
L 224.520401 -64.22926 
L 221.618262 -64.067689 
L 218.716123 -64.22926 
L 215.813984 -64.390832 
L 212.911845 -64.22926 
L 210.009706 -64.390832 
L 207.107567 -64.552403 
L 204.205428 -64.390832 
L 201.303289 -64.22926 
L 198.40115 -64.22926 
L 195.499011 -64.22926 
L 192.596872 -64.067689 
L 189.694733 -64.552403 
L 186.792594 -64.390832 
L 183.890455 -64.22926 
L 180.988316 -64.22926 
L 178.086176 -64.390832 
L 175.184037 -64.22926 
L 172.281898 -64.390832 
L 169.379759 -64.390832 
L 166.47762 -64.22926 
L 163.575481 -64.22926 
L 160.673342 -64.390832 
L 157.771203 -64.22926 
L 154.869064 -64.22926 
L 151.966925 -64.22926 
L 149.064786 -64.067689 
L 146.162647 -64.067689 
L 143.260508 -64.067689 
L 140.358369 -64.22926 
L 137.45623 -64.22926 
L 134.554091 -63.906117 
L 131.651952 -64.067689 
L 128.749813 -64.067689 
L 125.847674 -64.22926 
L 122.945535 -64.067689 
L 120.043396 -64.067689 
L 117.141257 -64.22926 
L 114.239118 -64.22926 
L 111.336979 -64.067689 
L 108.43484 -64.067689 
L 105.532701 -64.067689 
L 102.630561 -139.360032 
L 99.728422 -96.705142 
L 96.826283 -134.351313 
L 93.924144 -140.491032 
L 91.022005 -159.071761 
L 88.119866 -205.442796 
L 85.217727 -147.600181 
z
" style="stroke: #ffffff; stroke-opacity: 0.5"/>
    </defs>
    <g clip-path="url(#p63b96a127a)">
     <use xlink:href="#m1d3cc13317" x="0" y="345.6" style="fill: #dd8452; fill-opacity: 0.5; stroke: #ffffff; stroke-opacity: 0.5"/>
    </g>
   </g>
   <g id="line2d_17">
    <path d="M 85.217727 129.674442 
L 88.119866 110.641313 
L 91.022005 125.564061 
L 93.924144 116.916752 
L 96.826283 174.13247 
L 99.728422 258.395265 
L 102.630561 265.937425 
L 105.532701 257.387059 
L 108.43484 263.791755 
L 111.336979 260.269495 
L 114.239118 259.442249 
L 117.141257 260.702507 
L 120.043396 268.845713 
L 122.945535 271.857407 
L 125.847674 273.473122 
L 128.749813 274.022466 
L 131.651952 281.357814 
L 134.554091 281.545237 
L 137.45623 274.268054 
L 140.358369 277.564114 
L 143.260508 279.800264 
L 146.162647 281.50646 
L 149.064786 281.525849 
L 151.966925 280.633974 
L 154.869064 278.462452 
L 157.771203 281.519386 
L 160.673342 281.46122 
L 163.575481 281.467683 
L 166.47762 281.441831 
L 169.379759 281.441831 
L 172.281898 281.46122 
L 175.184037 281.448294 
L 178.086176 281.441831 
L 180.988316 281.254408 
L 183.890455 280.000613 
L 186.792594 281.448294 
L 189.694733 281.435369 
L 192.596872 281.474146 
L 195.499011 281.390128 
L 198.40115 281.396591 
L 201.303289 281.46122 
L 204.205428 281.357814 
L 207.107567 281.422443 
L 210.009706 281.390128 
L 212.911845 281.377203 
L 215.813984 281.396591 
L 218.716123 281.37074 
L 221.618262 281.441831 
L 224.520401 281.474146 
L 227.42254 281.422443 
L 230.324679 281.41598 
L 233.226818 281.448294 
L 236.128957 281.383666 
L 239.031096 281.41598 
L 241.933235 281.422443 
L 244.835374 281.409517 
L 247.737513 281.41598 
L 250.639652 281.454757 
L 253.541791 281.41598 
L 256.44393 281.428906 
L 259.34607 281.383666 
L 262.248209 281.474146 
L 265.150348 281.409517 
L 268.052487 281.396591 
L 270.954626 281.41598 
L 273.856765 281.37074 
L 276.758904 281.403054 
L 279.661043 281.46122 
L 282.563182 281.403054 
L 285.465321 281.377203 
L 288.36746 281.383666 
L 291.269599 281.41598 
L 294.171738 281.364277 
L 297.073877 281.37074 
L 299.976016 281.428906 
L 302.878155 281.403054 
L 305.780294 281.487071 
L 308.682433 281.403054 
L 311.584572 281.428906 
L 314.486711 281.396591 
L 317.38885 281.422443 
L 320.290989 281.435369 
L 323.193128 281.383666 
L 326.095267 281.41598 
L 328.997406 281.409517 
L 331.899545 281.487071 
L 334.801684 281.441831 
L 337.703824 281.409517 
L 340.605963 281.390128 
L 343.508102 281.435369 
L 346.410241 281.422443 
L 349.31238 281.441831 
L 352.214519 281.390128 
L 355.116658 281.46122 
L 358.018797 281.448294 
L 360.920936 281.383666 
L 363.823075 281.441831 
L 366.725214 281.364277 
L 369.627353 281.454757 
L 372.529492 281.474146 
L 375.431631 281.383666 
L 378.33377 281.41598 
L 381.235909 281.403054 
L 384.138048 281.454757 
L 387.040187 281.435369 
L 389.942326 281.37074 
L 392.844465 281.390128 
L 395.746604 281.422443 
L 398.648743 281.41598 
L 401.550882 281.435369 
L 404.453021 281.403054 
L 407.35516 281.435369 
L 410.257299 281.403054 
L 413.159439 281.41598 
L 416.061578 281.428906 
L 418.963717 281.422443 
L 421.865856 281.390128 
L 424.767995 281.46122 
L 427.670134 281.396591 
L 430.572273 281.422443 
" clip-path="url(#p63b96a127a)" style="fill: none; stroke: #4c72b0; stroke-width: 3; stroke-linecap: round"/>
   </g>
   <g id="line2d_18">
    <path d="M 85.217727 135.536258 
L 88.119866 137.992145 
L 91.022005 121.738047 
L 93.924144 135.988658 
L 96.826283 133.30657 
L 99.728422 163.972851 
L 102.630561 160.289019 
L 105.532701 261.820582 
L 108.43484 254.097462 
L 111.336979 267.604844 
L 114.239118 267.152443 
L 117.141257 252.449432 
L 120.043396 275.101764 
L 122.945535 240.396194 
L 125.847674 273.486048 
L 128.749813 281.338426 
L 131.651952 273.518362 
L 134.554091 262.531497 
L 137.45623 280.821397 
L 140.358369 274.810935 
L 143.260508 279.561139 
L 146.162647 281.37074 
L 149.064786 281.209168 
L 151.966925 278.106995 
L 154.869064 268.735845 
L 157.771203 281.273797 
L 160.673342 281.14454 
L 163.575481 281.209168 
L 166.47762 281.176854 
L 169.379759 274.713992 
L 172.281898 281.047597 
L 175.184037 281.176854 
L 178.086176 281.047597 
L 180.988316 279.884282 
L 183.890455 281.176854 
L 186.792594 280.982968 
L 189.694733 280.950654 
L 192.596872 281.306111 
L 195.499011 281.079911 
L 198.40115 281.273797 
L 201.303289 281.047597 
L 204.205428 281.047597 
L 207.107567 280.982968 
L 210.009706 281.176854 
L 212.911845 281.176854 
L 215.813984 281.112225 
L 218.716123 281.079911 
L 221.618262 281.209168 
L 224.520401 281.209168 
L 227.42254 281.209168 
L 230.324679 281.176854 
L 233.226818 280.91834 
L 236.128957 281.14454 
L 239.031096 281.241483 
L 241.933235 281.241483 
L 244.835374 281.14454 
L 247.737513 281.403054 
L 250.639652 281.241483 
L 253.541791 281.14454 
L 256.44393 281.209168 
L 259.34607 281.176854 
L 262.248209 281.306111 
L 265.150348 281.112225 
L 268.052487 281.015282 
L 270.954626 281.047597 
L 273.856765 281.015282 
L 276.758904 281.176854 
L 279.661043 281.338426 
L 282.563182 281.079911 
L 285.465321 281.241483 
L 288.36746 281.079911 
L 291.269599 281.14454 
L 294.171738 281.273797 
L 297.073877 281.079911 
L 299.976016 281.079911 
L 302.878155 281.176854 
L 305.780294 281.112225 
L 308.682433 281.079911 
L 311.584572 281.176854 
L 314.486711 281.273797 
L 317.38885 281.14454 
L 320.290989 281.176854 
L 323.193128 281.338426 
L 326.095267 281.079911 
L 328.997406 281.047597 
L 331.899545 281.241483 
L 334.801684 281.047597 
L 337.703824 281.112225 
L 340.605963 281.112225 
L 343.508102 281.176854 
L 346.410241 281.273797 
L 349.31238 280.91834 
L 352.214519 281.015282 
L 355.116658 281.079911 
L 358.018797 281.273797 
L 360.920936 281.176854 
L 363.823075 281.176854 
L 366.725214 281.273797 
L 369.627353 281.112225 
L 372.529492 281.176854 
L 375.431631 281.209168 
L 378.33377 281.176854 
L 381.235909 281.241483 
L 384.138048 281.209168 
L 387.040187 281.241483 
L 389.942326 281.112225 
L 392.844465 281.079911 
L 395.746604 281.015282 
L 398.648743 281.273797 
L 401.550882 280.950654 
L 404.453021 281.14454 
L 407.35516 281.112225 
L 410.257299 281.079911 
L 413.159439 281.14454 
L 416.061578 280.982968 
L 418.963717 281.015282 
L 421.865856 281.047597 
L 424.767995 281.176854 
L 427.670134 281.176854 
L 430.572273 281.015282 
" clip-path="url(#p63b96a127a)" style="fill: none; stroke: #dd8452; stroke-width: 3; stroke-linecap: round"/>
   </g>
   <g id="patch_3">
    <path d="M 67.95 294.66 
L 67.95 12.96 
" style="fill: none; stroke: #ffffff; stroke-width: 1.25; stroke-linejoin: miter; stroke-linecap: square"/>
   </g>
   <g id="patch_4">
    <path d="M 447.84 294.66 
L 447.84 12.96 
" style="fill: none; stroke: #ffffff; stroke-width: 1.25; stroke-linejoin: miter; stroke-linecap: square"/>
   </g>
   <g id="patch_5">
    <path d="M 67.95 294.66 
L 447.84 294.66 
" style="fill: none; stroke: #ffffff; stroke-width: 1.25; stroke-linejoin: miter; stroke-linecap: square"/>
   </g>
   <g id="patch_6">
    <path d="M 67.95 12.96 
L 447.84 12.96 
" style="fill: none; stroke: #ffffff; stroke-width: 1.25; stroke-linejoin: miter; stroke-linecap: square"/>
   </g>
   <g id="legend_1">
    <g id="patch_7">
     <path d="M 324.957969 54.051875 
L 440.14 54.051875 
Q 442.34 54.051875 442.34 51.851875 
L 442.34 20.66 
Q 442.34 18.46 440.14 18.46 
L 324.957969 18.46 
Q 322.757969 18.46 322.757969 20.66 
L 322.757969 51.851875 
Q 322.757969 54.051875 324.957969 54.051875 
z
" style="fill: #eaeaf2; opacity: 0.8; stroke: #cccccc; stroke-linejoin: miter"/>
    </g>
    <g id="line2d_19">
     <path d="M 327.157969 27.368281 
L 338.157969 27.368281 
L 349.157969 27.368281 
" style="fill: none; stroke: #4c72b0; stroke-width: 3; stroke-linecap: round"/>
    </g>
    <g id="text_19">
     <!-- SAC-DELAY-0 -->
     <g style="fill: #262626" transform="translate(357.957969 31.218281)scale(0.11 -0.11)">
      <defs>
       <path id="DejaVuSans-53" d="M 3425 4513 
L 3425 3897 
Q 3066 4069 2747 4153 
Q 2428 4238 2131 4238 
Q 1616 4238 1336 4038 
Q 1056 3838 1056 3469 
Q 1056 3159 1242 3001 
Q 1428 2844 1947 2747 
L 2328 2669 
Q 3034 2534 3370 2195 
Q 3706 1856 3706 1288 
Q 3706 609 3251 259 
Q 2797 -91 1919 -91 
Q 1588 -91 1214 -16 
Q 841 59 441 206 
L 441 856 
Q 825 641 1194 531 
Q 1563 422 1919 422 
Q 2459 422 2753 634 
Q 3047 847 3047 1241 
Q 3047 1584 2836 1778 
Q 2625 1972 2144 2069 
L 1759 2144 
Q 1053 2284 737 2584 
Q 422 2884 422 3419 
Q 422 4038 858 4394 
Q 1294 4750 2059 4750 
Q 2388 4750 2728 4690 
Q 3069 4631 3425 4513 
z
" transform="scale(0.015625)"/>
       <path id="DejaVuSans-41" d="M 2188 4044 
L 1331 1722 
L 3047 1722 
L 2188 4044 
z
M 1831 4666 
L 2547 4666 
L 4325 0 
L 3669 0 
L 3244 1197 
L 1141 1197 
L 716 0 
L 50 0 
L 1831 4666 
z
" transform="scale(0.015625)"/>
       <path id="DejaVuSans-43" d="M 4122 4306 
L 4122 3641 
Q 3803 3938 3442 4084 
Q 3081 4231 2675 4231 
Q 1875 4231 1450 3742 
Q 1025 3253 1025 2328 
Q 1025 1406 1450 917 
Q 1875 428 2675 428 
Q 3081 428 3442 575 
Q 3803 722 4122 1019 
L 4122 359 
Q 3791 134 3420 21 
Q 3050 -91 2638 -91 
Q 1578 -91 968 557 
Q 359 1206 359 2328 
Q 359 3453 968 4101 
Q 1578 4750 2638 4750 
Q 3056 4750 3426 4639 
Q 3797 4528 4122 4306 
z
" transform="scale(0.015625)"/>
       <path id="DejaVuSans-2d" d="M 313 2009 
L 1997 2009 
L 1997 1497 
L 313 1497 
L 313 2009 
z
" transform="scale(0.015625)"/>
       <path id="DejaVuSans-44" d="M 1259 4147 
L 1259 519 
L 2022 519 
Q 2988 519 3436 956 
Q 3884 1394 3884 2338 
Q 3884 3275 3436 3711 
Q 2988 4147 2022 4147 
L 1259 4147 
z
M 628 4666 
L 1925 4666 
Q 3281 4666 3915 4102 
Q 4550 3538 4550 2338 
Q 4550 1131 3912 565 
Q 3275 0 1925 0 
L 628 0 
L 628 4666 
z
" transform="scale(0.015625)"/>
       <path id="DejaVuSans-45" d="M 628 4666 
L 3578 4666 
L 3578 4134 
L 1259 4134 
L 1259 2753 
L 3481 2753 
L 3481 2222 
L 1259 2222 
L 1259 531 
L 3634 531 
L 3634 0 
L 628 0 
L 628 4666 
z
" transform="scale(0.015625)"/>
       <path id="DejaVuSans-4c" d="M 628 4666 
L 1259 4666 
L 1259 531 
L 3531 531 
L 3531 0 
L 628 0 
L 628 4666 
z
" transform="scale(0.015625)"/>
       <path id="DejaVuSans-59" d="M -13 4666 
L 666 4666 
L 1959 2747 
L 3244 4666 
L 3922 4666 
L 2272 2222 
L 2272 0 
L 1638 0 
L 1638 2222 
L -13 4666 
z
" transform="scale(0.015625)"/>
      </defs>
      <use xlink:href="#DejaVuSans-53"/>
      <use xlink:href="#DejaVuSans-41" x="65.351562"/>
      <use xlink:href="#DejaVuSans-43" x="132.009766"/>
      <use xlink:href="#DejaVuSans-2d" x="201.833984"/>
      <use xlink:href="#DejaVuSans-44" x="237.917969"/>
      <use xlink:href="#DejaVuSans-45" x="314.919922"/>
      <use xlink:href="#DejaVuSans-4c" x="378.103516"/>
      <use xlink:href="#DejaVuSans-41" x="436.066406"/>
      <use xlink:href="#DejaVuSans-59" x="496.724609"/>
      <use xlink:href="#DejaVuSans-2d" x="545.933594"/>
      <use xlink:href="#DejaVuSans-30" x="582.017578"/>
     </g>
    </g>
    <g id="line2d_20">
     <path d="M 327.157969 43.514219 
L 338.157969 43.514219 
L 349.157969 43.514219 
" style="fill: none; stroke: #dd8452; stroke-width: 3; stroke-linecap: round"/>
    </g>
    <g id="text_20">
     <!-- DCAC-DELAY-1 -->
     <g style="fill: #262626" transform="translate(357.957969 47.364219)scale(0.11 -0.11)">
      <use xlink:href="#DejaVuSans-44"/>
      <use xlink:href="#DejaVuSans-43" x="77.001953"/>
      <use xlink:href="#DejaVuSans-41" x="146.826172"/>
      <use xlink:href="#DejaVuSans-43" x="213.484375"/>
      <use xlink:href="#DejaVuSans-2d" x="283.308594"/>
      <use xlink:href="#DejaVuSans-44" x="319.392578"/>
      <use xlink:href="#DejaVuSans-45" x="396.394531"/>
      <use xlink:href="#DejaVuSans-4c" x="459.578125"/>
      <use xlink:href="#DejaVuSans-41" x="517.541016"/>
      <use xlink:href="#DejaVuSans-59" x="578.199219"/>
      <use xlink:href="#DejaVuSans-2d" x="627.408203"/>
      <use xlink:href="#DejaVuSans-31" x="663.492188"/>
     </g>
    </g>
   </g>
  </g>
 </g>
 <defs>
  <clipPath id="p63b96a127a">
   <rect x="67.95" y="12.96" width="379.89" height="281.7"/>
  </clipPath>
 </defs>
</svg>
