<?xml version="1.0" encoding="utf-8" standalone="no"?>
<!DOCTYPE svg PUBLIC "-//W3C//DTD SVG 1.1//EN"
  "http://www.w3.org/Graphics/SVG/1.1/DTD/svg11.dtd">
<svg xmlns:xlink="http://www.w3.org/1999/xlink" width="460.8pt" height="345.6pt" viewBox="0 0 460.8 345.6" xmlns="http://www.w3.org/2000/svg" version="1.1">
 <metadata>
  <rdf:RDF xmlns:dc="http://purl.org/dc/elements/1.1/" xmlns:cc="http://creativecommons.org/ns#" xmlns:rdf="http://www.w3.org/1999/02/22-rdf-syntax-ns#">
   <cc:Work>
    <dc:type rdf:resource="http://purl.org/dc/dcmitype/StillImage"/>
    <dc:date>2022-09-10T15:51:35.368115</dc:date>
    <dc:format>image/svg+xml</dc:format>
    <dc:creator>
     <cc:Agent>
      <dc:title>Matplotlib v3.5.3, https://matplotlib.org/</dc:title>
     </cc:Agent>
    </dc:creator>
   </cc:Work>
  </rdf:RDF>
 </metadata>
 <defs>
  <style type="text/css">*{stroke-linejoin: round; stroke-linecap: butt}</style>
 </defs>
 <g id="figure_1">
  <g id="patch_1">
   <path d="M 0 345.6 
L 460.8 345.6 
L 460.8 0 
L 0 0 
z
" style="fill: #ffffff"/>
  </g>
  <g id="axes_1">
   <g id="patch_2">
    <path d="M 67.86 294.66 
L 447.84 294.66 
L 447.84 29.76 
L 67.86 29.76 
z
" style="fill: #eaeaf2"/>
   </g>
   <g id="matplotlib.axis_1">
    <g id="xtick_1">
     <g id="line2d_1">
      <path d="M 82.228992 294.66 
L 82.228992 29.76 
" clip-path="url(#p367e2fde35)" style="fill: none; stroke: #ffffff; stroke-linecap: round"/>
     </g>
     <g id="text_1">
      <!-- 0.00 -->
      <g style="fill: #262626" transform="translate(69.982898 312.518281)scale(0.11 -0.11)">
       <defs>
        <path id="DejaVuSans-30" d="M 2034 4250 
Q 1547 4250 1301 3770 
Q 1056 3291 1056 2328 
Q 1056 1369 1301 889 
Q 1547 409 2034 409 
Q 2525 409 2770 889 
Q 3016 1369 3016 2328 
Q 3016 3291 2770 3770 
Q 2525 4250 2034 4250 
z
M 2034 4750 
Q 2819 4750 3233 4129 
Q 3647 3509 3647 2328 
Q 3647 1150 3233 529 
Q 2819 -91 2034 -91 
Q 1250 -91 836 529 
Q 422 1150 422 2328 
Q 422 3509 836 4129 
Q 1250 4750 2034 4750 
z
" transform="scale(0.015625)"/>
        <path id="DejaVuSans-2e" d="M 684 794 
L 1344 794 
L 1344 0 
L 684 0 
L 684 794 
z
" transform="scale(0.015625)"/>
       </defs>
       <use xlink:href="#DejaVuSans-30"/>
       <use xlink:href="#DejaVuSans-2e" x="63.623047"/>
       <use xlink:href="#DejaVuSans-30" x="95.410156"/>
       <use xlink:href="#DejaVuSans-30" x="159.033203"/>
      </g>
     </g>
    </g>
    <g id="xtick_2">
     <g id="line2d_2">
      <path d="M 140.285523 294.66 
L 140.285523 29.76 
" clip-path="url(#p367e2fde35)" style="fill: none; stroke: #ffffff; stroke-linecap: round"/>
     </g>
     <g id="text_2">
      <!-- 0.05 -->
      <g style="fill: #262626" transform="translate(128.03943 312.518281)scale(0.11 -0.11)">
       <defs>
        <path id="DejaVuSans-35" d="M 691 4666 
L 3169 4666 
L 3169 4134 
L 1269 4134 
L 1269 2991 
Q 1406 3038 1543 3061 
Q 1681 3084 1819 3084 
Q 2600 3084 3056 2656 
Q 3513 2228 3513 1497 
Q 3513 744 3044 326 
Q 2575 -91 1722 -91 
Q 1428 -91 1123 -41 
Q 819 9 494 109 
L 494 744 
Q 775 591 1075 516 
Q 1375 441 1709 441 
Q 2250 441 2565 725 
Q 2881 1009 2881 1497 
Q 2881 1984 2565 2268 
Q 2250 2553 1709 2553 
Q 1456 2553 1204 2497 
Q 953 2441 691 2322 
L 691 4666 
z
" transform="scale(0.015625)"/>
       </defs>
       <use xlink:href="#DejaVuSans-30"/>
       <use xlink:href="#DejaVuSans-2e" x="63.623047"/>
       <use xlink:href="#DejaVuSans-30" x="95.410156"/>
       <use xlink:href="#DejaVuSans-35" x="159.033203"/>
      </g>
     </g>
    </g>
    <g id="xtick_3">
     <g id="line2d_3">
      <path d="M 198.342055 294.66 
L 198.342055 29.76 
" clip-path="url(#p367e2fde35)" style="fill: none; stroke: #ffffff; stroke-linecap: round"/>
     </g>
     <g id="text_3">
      <!-- 0.10 -->
      <g style="fill: #262626" transform="translate(186.095961 312.518281)scale(0.11 -0.11)">
       <defs>
        <path id="DejaVuSans-31" d="M 794 531 
L 1825 531 
L 1825 4091 
L 703 3866 
L 703 4441 
L 1819 4666 
L 2450 4666 
L 2450 531 
L 3481 531 
L 3481 0 
L 794 0 
L 794 531 
z
" transform="scale(0.015625)"/>
       </defs>
       <use xlink:href="#DejaVuSans-30"/>
       <use xlink:href="#DejaVuSans-2e" x="63.623047"/>
       <use xlink:href="#DejaVuSans-31" x="95.410156"/>
       <use xlink:href="#DejaVuSans-30" x="159.033203"/>
      </g>
     </g>
    </g>
    <g id="xtick_4">
     <g id="line2d_4">
      <path d="M 256.398587 294.66 
L 256.398587 29.76 
" clip-path="url(#p367e2fde35)" style="fill: none; stroke: #ffffff; stroke-linecap: round"/>
     </g>
     <g id="text_4">
      <!-- 0.15 -->
      <g style="fill: #262626" transform="translate(244.152493 312.518281)scale(0.11 -0.11)">
       <use xlink:href="#DejaVuSans-30"/>
       <use xlink:href="#DejaVuSans-2e" x="63.623047"/>
       <use xlink:href="#DejaVuSans-31" x="95.410156"/>
       <use xlink:href="#DejaVuSans-35" x="159.033203"/>
      </g>
     </g>
    </g>
    <g id="xtick_5">
     <g id="line2d_5">
      <path d="M 314.455118 294.66 
L 314.455118 29.76 
" clip-path="url(#p367e2fde35)" style="fill: none; stroke: #ffffff; stroke-linecap: round"/>
     </g>
     <g id="text_5">
      <!-- 0.20 -->
      <g style="fill: #262626" transform="translate(302.209025 312.518281)scale(0.11 -0.11)">
       <defs>
        <path id="DejaVuSans-32" d="M 1228 531 
L 3431 531 
L 3431 0 
L 469 0 
L 469 531 
Q 828 903 1448 1529 
Q 2069 2156 2228 2338 
Q 2531 2678 2651 2914 
Q 2772 3150 2772 3378 
Q 2772 3750 2511 3984 
Q 2250 4219 1831 4219 
Q 1534 4219 1204 4116 
Q 875 4013 500 3803 
L 500 4441 
Q 881 4594 1212 4672 
Q 1544 4750 1819 4750 
Q 2544 4750 2975 4387 
Q 3406 4025 3406 3419 
Q 3406 3131 3298 2873 
Q 3191 2616 2906 2266 
Q 2828 2175 2409 1742 
Q 1991 1309 1228 531 
z
" transform="scale(0.015625)"/>
       </defs>
       <use xlink:href="#DejaVuSans-30"/>
       <use xlink:href="#DejaVuSans-2e" x="63.623047"/>
       <use xlink:href="#DejaVuSans-32" x="95.410156"/>
       <use xlink:href="#DejaVuSans-30" x="159.033203"/>
      </g>
     </g>
    </g>
    <g id="xtick_6">
     <g id="line2d_6">
      <path d="M 372.51165 294.66 
L 372.51165 29.76 
" clip-path="url(#p367e2fde35)" style="fill: none; stroke: #ffffff; stroke-linecap: round"/>
     </g>
     <g id="text_6">
      <!-- 0.25 -->
      <g style="fill: #262626" transform="translate(360.265556 312.518281)scale(0.11 -0.11)">
       <use xlink:href="#DejaVuSans-30"/>
       <use xlink:href="#DejaVuSans-2e" x="63.623047"/>
       <use xlink:href="#DejaVuSans-32" x="95.410156"/>
       <use xlink:href="#DejaVuSans-35" x="159.033203"/>
      </g>
     </g>
    </g>
    <g id="xtick_7">
     <g id="line2d_7">
      <path d="M 430.568182 294.66 
L 430.568182 29.76 
" clip-path="url(#p367e2fde35)" style="fill: none; stroke: #ffffff; stroke-linecap: round"/>
     </g>
     <g id="text_7">
      <!-- 0.30 -->
      <g style="fill: #262626" transform="translate(418.322088 312.518281)scale(0.11 -0.11)">
       <defs>
        <path id="DejaVuSans-33" d="M 2597 2516 
Q 3050 2419 3304 2112 
Q 3559 1806 3559 1356 
Q 3559 666 3084 287 
Q 2609 -91 1734 -91 
Q 1441 -91 1130 -33 
Q 819 25 488 141 
L 488 750 
Q 750 597 1062 519 
Q 1375 441 1716 441 
Q 2309 441 2620 675 
Q 2931 909 2931 1356 
Q 2931 1769 2642 2001 
Q 2353 2234 1838 2234 
L 1294 2234 
L 1294 2753 
L 1863 2753 
Q 2328 2753 2575 2939 
Q 2822 3125 2822 3475 
Q 2822 3834 2567 4026 
Q 2313 4219 1838 4219 
Q 1578 4219 1281 4162 
Q 984 4106 628 3988 
L 628 4550 
Q 988 4650 1302 4700 
Q 1616 4750 1894 4750 
Q 2613 4750 3031 4423 
Q 3450 4097 3450 3541 
Q 3450 3153 3228 2886 
Q 3006 2619 2597 2516 
z
" transform="scale(0.015625)"/>
       </defs>
       <use xlink:href="#DejaVuSans-30"/>
       <use xlink:href="#DejaVuSans-2e" x="63.623047"/>
       <use xlink:href="#DejaVuSans-33" x="95.410156"/>
       <use xlink:href="#DejaVuSans-30" x="159.033203"/>
      </g>
     </g>
    </g>
    <g id="text_8">
     <!-- Timesteps (in Million) -->
     <g style="fill: #262626" transform="translate(183.104219 329.44375)scale(0.14 -0.14)">
      <defs>
       <path id="DejaVuSans-54" d="M -19 4666 
L 3928 4666 
L 3928 4134 
L 2272 4134 
L 2272 0 
L 1638 0 
L 1638 4134 
L -19 4134 
L -19 4666 
z
" transform="scale(0.015625)"/>
       <path id="DejaVuSans-69" d="M 603 3500 
L 1178 3500 
L 1178 0 
L 603 0 
L 603 3500 
z
M 603 4863 
L 1178 4863 
L 1178 4134 
L 603 4134 
L 603 4863 
z
" transform="scale(0.015625)"/>
       <path id="DejaVuSans-6d" d="M 3328 2828 
Q 3544 3216 3844 3400 
Q 4144 3584 4550 3584 
Q 5097 3584 5394 3201 
Q 5691 2819 5691 2113 
L 5691 0 
L 5113 0 
L 5113 2094 
Q 5113 2597 4934 2840 
Q 4756 3084 4391 3084 
Q 3944 3084 3684 2787 
Q 3425 2491 3425 1978 
L 3425 0 
L 2847 0 
L 2847 2094 
Q 2847 2600 2669 2842 
Q 2491 3084 2119 3084 
Q 1678 3084 1418 2786 
Q 1159 2488 1159 1978 
L 1159 0 
L 581 0 
L 581 3500 
L 1159 3500 
L 1159 2956 
Q 1356 3278 1631 3431 
Q 1906 3584 2284 3584 
Q 2666 3584 2933 3390 
Q 3200 3197 3328 2828 
z
" transform="scale(0.015625)"/>
       <path id="DejaVuSans-65" d="M 3597 1894 
L 3597 1613 
L 953 1613 
Q 991 1019 1311 708 
Q 1631 397 2203 397 
Q 2534 397 2845 478 
Q 3156 559 3463 722 
L 3463 178 
Q 3153 47 2828 -22 
Q 2503 -91 2169 -91 
Q 1331 -91 842 396 
Q 353 884 353 1716 
Q 353 2575 817 3079 
Q 1281 3584 2069 3584 
Q 2775 3584 3186 3129 
Q 3597 2675 3597 1894 
z
M 3022 2063 
Q 3016 2534 2758 2815 
Q 2500 3097 2075 3097 
Q 1594 3097 1305 2825 
Q 1016 2553 972 2059 
L 3022 2063 
z
" transform="scale(0.015625)"/>
       <path id="DejaVuSans-73" d="M 2834 3397 
L 2834 2853 
Q 2591 2978 2328 3040 
Q 2066 3103 1784 3103 
Q 1356 3103 1142 2972 
Q 928 2841 928 2578 
Q 928 2378 1081 2264 
Q 1234 2150 1697 2047 
L 1894 2003 
Q 2506 1872 2764 1633 
Q 3022 1394 3022 966 
Q 3022 478 2636 193 
Q 2250 -91 1575 -91 
Q 1294 -91 989 -36 
Q 684 19 347 128 
L 347 722 
Q 666 556 975 473 
Q 1284 391 1588 391 
Q 1994 391 2212 530 
Q 2431 669 2431 922 
Q 2431 1156 2273 1281 
Q 2116 1406 1581 1522 
L 1381 1569 
Q 847 1681 609 1914 
Q 372 2147 372 2553 
Q 372 3047 722 3315 
Q 1072 3584 1716 3584 
Q 2034 3584 2315 3537 
Q 2597 3491 2834 3397 
z
" transform="scale(0.015625)"/>
       <path id="DejaVuSans-74" d="M 1172 4494 
L 1172 3500 
L 2356 3500 
L 2356 3053 
L 1172 3053 
L 1172 1153 
Q 1172 725 1289 603 
Q 1406 481 1766 481 
L 2356 481 
L 2356 0 
L 1766 0 
Q 1100 0 847 248 
Q 594 497 594 1153 
L 594 3053 
L 172 3053 
L 172 3500 
L 594 3500 
L 594 4494 
L 1172 4494 
z
" transform="scale(0.015625)"/>
       <path id="DejaVuSans-70" d="M 1159 525 
L 1159 -1331 
L 581 -1331 
L 581 3500 
L 1159 3500 
L 1159 2969 
Q 1341 3281 1617 3432 
Q 1894 3584 2278 3584 
Q 2916 3584 3314 3078 
Q 3713 2572 3713 1747 
Q 3713 922 3314 415 
Q 2916 -91 2278 -91 
Q 1894 -91 1617 61 
Q 1341 213 1159 525 
z
M 3116 1747 
Q 3116 2381 2855 2742 
Q 2594 3103 2138 3103 
Q 1681 3103 1420 2742 
Q 1159 2381 1159 1747 
Q 1159 1113 1420 752 
Q 1681 391 2138 391 
Q 2594 391 2855 752 
Q 3116 1113 3116 1747 
z
" transform="scale(0.015625)"/>
       <path id="DejaVuSans-20" transform="scale(0.015625)"/>
       <path id="DejaVuSans-28" d="M 1984 4856 
Q 1566 4138 1362 3434 
Q 1159 2731 1159 2009 
Q 1159 1288 1364 580 
Q 1569 -128 1984 -844 
L 1484 -844 
Q 1016 -109 783 600 
Q 550 1309 550 2009 
Q 550 2706 781 3412 
Q 1013 4119 1484 4856 
L 1984 4856 
z
" transform="scale(0.015625)"/>
       <path id="DejaVuSans-6e" d="M 3513 2113 
L 3513 0 
L 2938 0 
L 2938 2094 
Q 2938 2591 2744 2837 
Q 2550 3084 2163 3084 
Q 1697 3084 1428 2787 
Q 1159 2491 1159 1978 
L 1159 0 
L 581 0 
L 581 3500 
L 1159 3500 
L 1159 2956 
Q 1366 3272 1645 3428 
Q 1925 3584 2291 3584 
Q 2894 3584 3203 3211 
Q 3513 2838 3513 2113 
z
" transform="scale(0.015625)"/>
       <path id="DejaVuSans-4d" d="M 628 4666 
L 1569 4666 
L 2759 1491 
L 3956 4666 
L 4897 4666 
L 4897 0 
L 4281 0 
L 4281 4097 
L 3078 897 
L 2444 897 
L 1241 4097 
L 1241 0 
L 628 0 
L 628 4666 
z
" transform="scale(0.015625)"/>
       <path id="DejaVuSans-6c" d="M 603 4863 
L 1178 4863 
L 1178 0 
L 603 0 
L 603 4863 
z
" transform="scale(0.015625)"/>
       <path id="DejaVuSans-6f" d="M 1959 3097 
Q 1497 3097 1228 2736 
Q 959 2375 959 1747 
Q 959 1119 1226 758 
Q 1494 397 1959 397 
Q 2419 397 2687 759 
Q 2956 1122 2956 1747 
Q 2956 2369 2687 2733 
Q 2419 3097 1959 3097 
z
M 1959 3584 
Q 2709 3584 3137 3096 
Q 3566 2609 3566 1747 
Q 3566 888 3137 398 
Q 2709 -91 1959 -91 
Q 1206 -91 779 398 
Q 353 888 353 1747 
Q 353 2609 779 3096 
Q 1206 3584 1959 3584 
z
" transform="scale(0.015625)"/>
       <path id="DejaVuSans-29" d="M 513 4856 
L 1013 4856 
Q 1481 4119 1714 3412 
Q 1947 2706 1947 2009 
Q 1947 1309 1714 600 
Q 1481 -109 1013 -844 
L 513 -844 
Q 928 -128 1133 580 
Q 1338 1288 1338 2009 
Q 1338 2731 1133 3434 
Q 928 4138 513 4856 
z
" transform="scale(0.015625)"/>
      </defs>
      <use xlink:href="#DejaVuSans-54"/>
      <use xlink:href="#DejaVuSans-69" x="57.958984"/>
      <use xlink:href="#DejaVuSans-6d" x="85.742188"/>
      <use xlink:href="#DejaVuSans-65" x="183.154297"/>
      <use xlink:href="#DejaVuSans-73" x="244.677734"/>
      <use xlink:href="#DejaVuSans-74" x="296.777344"/>
      <use xlink:href="#DejaVuSans-65" x="335.986328"/>
      <use xlink:href="#DejaVuSans-70" x="397.509766"/>
      <use xlink:href="#DejaVuSans-73" x="460.986328"/>
      <use xlink:href="#DejaVuSans-20" x="513.085938"/>
      <use xlink:href="#DejaVuSans-28" x="544.873047"/>
      <use xlink:href="#DejaVuSans-69" x="583.886719"/>
      <use xlink:href="#DejaVuSans-6e" x="611.669922"/>
      <use xlink:href="#DejaVuSans-20" x="675.048828"/>
      <use xlink:href="#DejaVuSans-4d" x="706.835938"/>
      <use xlink:href="#DejaVuSans-69" x="793.115234"/>
      <use xlink:href="#DejaVuSans-6c" x="820.898438"/>
      <use xlink:href="#DejaVuSans-6c" x="848.681641"/>
      <use xlink:href="#DejaVuSans-69" x="876.464844"/>
      <use xlink:href="#DejaVuSans-6f" x="904.248047"/>
      <use xlink:href="#DejaVuSans-6e" x="965.429688"/>
      <use xlink:href="#DejaVuSans-29" x="1028.808594"/>
     </g>
    </g>
   </g>
   <g id="matplotlib.axis_2">
    <g id="ytick_1">
     <g id="line2d_8">
      <path d="M 67.86 282.619091 
L 447.84 282.619091 
" clip-path="url(#p367e2fde35)" style="fill: none; stroke: #ffffff; stroke-linecap: round"/>
     </g>
     <g id="text_9">
      <!-- 0 -->
      <g style="fill: #262626" transform="translate(51.36125 286.798232)scale(0.11 -0.11)">
       <use xlink:href="#DejaVuSans-30"/>
      </g>
     </g>
    </g>
    <g id="ytick_2">
     <g id="line2d_9">
      <path d="M 67.86 229.76172 
L 447.84 229.76172 
" clip-path="url(#p367e2fde35)" style="fill: none; stroke: #ffffff; stroke-linecap: round"/>
     </g>
     <g id="text_10">
      <!-- 500 -->
      <g style="fill: #262626" transform="translate(37.36375 233.940861)scale(0.11 -0.11)">
       <use xlink:href="#DejaVuSans-35"/>
       <use xlink:href="#DejaVuSans-30" x="63.623047"/>
       <use xlink:href="#DejaVuSans-30" x="127.246094"/>
      </g>
     </g>
    </g>
    <g id="ytick_3">
     <g id="line2d_10">
      <path d="M 67.86 176.904349 
L 447.84 176.904349 
" clip-path="url(#p367e2fde35)" style="fill: none; stroke: #ffffff; stroke-linecap: round"/>
     </g>
     <g id="text_11">
      <!-- 1000 -->
      <g style="fill: #262626" transform="translate(30.365 181.08349)scale(0.11 -0.11)">
       <use xlink:href="#DejaVuSans-31"/>
       <use xlink:href="#DejaVuSans-30" x="63.623047"/>
       <use xlink:href="#DejaVuSans-30" x="127.246094"/>
       <use xlink:href="#DejaVuSans-30" x="190.869141"/>
      </g>
     </g>
    </g>
    <g id="ytick_4">
     <g id="line2d_11">
      <path d="M 67.86 124.046978 
L 447.84 124.046978 
" clip-path="url(#p367e2fde35)" style="fill: none; stroke: #ffffff; stroke-linecap: round"/>
     </g>
     <g id="text_12">
      <!-- 1500 -->
      <g style="fill: #262626" transform="translate(30.365 128.226119)scale(0.11 -0.11)">
       <use xlink:href="#DejaVuSans-31"/>
       <use xlink:href="#DejaVuSans-35" x="63.623047"/>
       <use xlink:href="#DejaVuSans-30" x="127.246094"/>
       <use xlink:href="#DejaVuSans-30" x="190.869141"/>
      </g>
     </g>
    </g>
    <g id="ytick_5">
     <g id="line2d_12">
      <path d="M 67.86 71.189607 
L 447.84 71.189607 
" clip-path="url(#p367e2fde35)" style="fill: none; stroke: #ffffff; stroke-linecap: round"/>
     </g>
     <g id="text_13">
      <!-- 2000 -->
      <g style="fill: #262626" transform="translate(30.365 75.368748)scale(0.11 -0.11)">
       <use xlink:href="#DejaVuSans-32"/>
       <use xlink:href="#DejaVuSans-30" x="63.623047"/>
       <use xlink:href="#DejaVuSans-30" x="127.246094"/>
       <use xlink:href="#DejaVuSans-30" x="190.869141"/>
      </g>
     </g>
    </g>
    <g id="text_14">
     <!-- # Highs (Δx &gt; 20) -->
     <g style="fill: #262626" transform="translate(23.453438 225.877187)rotate(-90)scale(0.14 -0.14)">
      <defs>
       <path id="DejaVuSans-23" d="M 3272 2816 
L 2363 2816 
L 2100 1772 
L 3016 1772 
L 3272 2816 
z
M 2803 4594 
L 2478 3297 
L 3391 3297 
L 3719 4594 
L 4219 4594 
L 3897 3297 
L 4872 3297 
L 4872 2816 
L 3775 2816 
L 3519 1772 
L 4513 1772 
L 4513 1294 
L 3397 1294 
L 3072 0 
L 2572 0 
L 2894 1294 
L 1978 1294 
L 1656 0 
L 1153 0 
L 1478 1294 
L 494 1294 
L 494 1772 
L 1594 1772 
L 1856 2816 
L 850 2816 
L 850 3297 
L 1978 3297 
L 2297 4594 
L 2803 4594 
z
" transform="scale(0.015625)"/>
       <path id="DejaVuSans-48" d="M 628 4666 
L 1259 4666 
L 1259 2753 
L 3553 2753 
L 3553 4666 
L 4184 4666 
L 4184 0 
L 3553 0 
L 3553 2222 
L 1259 2222 
L 1259 0 
L 628 0 
L 628 4666 
z
" transform="scale(0.015625)"/>
       <path id="DejaVuSans-67" d="M 2906 1791 
Q 2906 2416 2648 2759 
Q 2391 3103 1925 3103 
Q 1463 3103 1205 2759 
Q 947 2416 947 1791 
Q 947 1169 1205 825 
Q 1463 481 1925 481 
Q 2391 481 2648 825 
Q 2906 1169 2906 1791 
z
M 3481 434 
Q 3481 -459 3084 -895 
Q 2688 -1331 1869 -1331 
Q 1566 -1331 1297 -1286 
Q 1028 -1241 775 -1147 
L 775 -588 
Q 1028 -725 1275 -790 
Q 1522 -856 1778 -856 
Q 2344 -856 2625 -561 
Q 2906 -266 2906 331 
L 2906 616 
Q 2728 306 2450 153 
Q 2172 0 1784 0 
Q 1141 0 747 490 
Q 353 981 353 1791 
Q 353 2603 747 3093 
Q 1141 3584 1784 3584 
Q 2172 3584 2450 3431 
Q 2728 3278 2906 2969 
L 2906 3500 
L 3481 3500 
L 3481 434 
z
" transform="scale(0.015625)"/>
       <path id="DejaVuSans-68" d="M 3513 2113 
L 3513 0 
L 2938 0 
L 2938 2094 
Q 2938 2591 2744 2837 
Q 2550 3084 2163 3084 
Q 1697 3084 1428 2787 
Q 1159 2491 1159 1978 
L 1159 0 
L 581 0 
L 581 4863 
L 1159 4863 
L 1159 2956 
Q 1366 3272 1645 3428 
Q 1925 3584 2291 3584 
Q 2894 3584 3203 3211 
Q 3513 2838 3513 2113 
z
" transform="scale(0.015625)"/>
       <path id="DejaVuSans-394" d="M 2188 4044 
L 906 525 
L 3472 525 
L 2188 4044 
z
M 50 0 
L 1831 4666 
L 2547 4666 
L 4325 0 
L 50 0 
z
" transform="scale(0.015625)"/>
       <path id="DejaVuSans-78" d="M 3513 3500 
L 2247 1797 
L 3578 0 
L 2900 0 
L 1881 1375 
L 863 0 
L 184 0 
L 1544 1831 
L 300 3500 
L 978 3500 
L 1906 2253 
L 2834 3500 
L 3513 3500 
z
" transform="scale(0.015625)"/>
       <path id="DejaVuSans-3e" d="M 678 3150 
L 678 3719 
L 4684 2266 
L 4684 1747 
L 678 294 
L 678 863 
L 3897 2003 
L 678 3150 
z
" transform="scale(0.015625)"/>
      </defs>
      <use xlink:href="#DejaVuSans-23"/>
      <use xlink:href="#DejaVuSans-20" x="83.789062"/>
      <use xlink:href="#DejaVuSans-48" x="115.576172"/>
      <use xlink:href="#DejaVuSans-69" x="190.771484"/>
      <use xlink:href="#DejaVuSans-67" x="218.554688"/>
      <use xlink:href="#DejaVuSans-68" x="282.03125"/>
      <use xlink:href="#DejaVuSans-73" x="345.410156"/>
      <use xlink:href="#DejaVuSans-20" x="397.509766"/>
      <use xlink:href="#DejaVuSans-28" x="429.296875"/>
      <use xlink:href="#DejaVuSans-394" x="468.310547"/>
      <use xlink:href="#DejaVuSans-78" x="536.71875"/>
      <use xlink:href="#DejaVuSans-20" x="595.898438"/>
      <use xlink:href="#DejaVuSans-3e" x="627.685547"/>
      <use xlink:href="#DejaVuSans-20" x="711.474609"/>
      <use xlink:href="#DejaVuSans-32" x="743.261719"/>
      <use xlink:href="#DejaVuSans-30" x="806.884766"/>
      <use xlink:href="#DejaVuSans-29" x="870.507812"/>
     </g>
    </g>
   </g>
   <g id="PolyCollection_1">
    <defs>
     <path id="m94bdd9cfd6" d="M 85.131818 -63.192339 
L 85.131818 -95.858194 
L 88.034645 -64.56663 
L 90.937471 -114.886847 
L 93.840298 -74.503816 
L 96.743125 -121.441161 
L 99.645951 -64.77806 
L 102.548778 -167.849933 
L 105.451604 -64.143771 
L 108.354431 -119.009722 
L 111.257257 -96.281053 
L 114.160084 -274.833252 
L 117.062911 -63.192339 
L 119.965737 -284.770437 
L 122.868564 -63.403768 
L 125.77139 -63.298053 
L 128.674217 -214.047275 
L 131.577044 -238.67881 
L 134.47987 -93.215325 
L 137.382697 -272.930386 
L 140.285523 -172.924241 
L 143.18835 -137.826946 
L 146.091176 -90.889601 
L 148.994003 -208.550109 
L 151.89683 -63.192339 
L 154.799656 -135.078363 
L 157.702483 -64.143771 
L 160.605309 -284.347578 
L 163.508136 -226.627329 
L 166.410963 -64.883774 
L 169.313789 -156.8556 
L 172.216616 -202.418654 
L 175.119442 -63.086624 
L 178.022269 -279.378986 
L 180.925095 -63.192339 
L 183.827922 -264.790351 
L 186.730749 -118.692578 
L 189.633575 -73.869527 
L 192.536402 -240.581675 
L 195.439228 -189.310026 
L 198.342055 -107.169671 
L 201.244882 -264.896066 
L 204.147708 -128.946908 
L 207.050535 -191.741465 
L 209.953361 -76.935255 
L 212.856188 -157.912747 
L 215.759015 -251.681723 
L 218.661841 -301.156222 
L 221.564668 -63.192339 
L 224.467494 -226.944474 
L 227.370321 -63.192339 
L 230.273147 -249.673143 
L 233.175974 -262.570342 
L 236.078801 -62.980909 
L 238.981627 -163.198484 
L 241.884454 -117.212572 
L 244.78728 -178.844266 
L 247.690107 -64.355201 
L 250.592934 -273.881819 
L 253.49576 -233.710217 
L 256.398587 -63.298053 
L 259.301413 -126.198325 
L 262.20424 -294.179049 
L 265.107066 -63.192339 
L 268.009893 -94.695332 
L 270.91272 -234.66165 
L 273.815546 -104.421088 
L 276.718373 -63.192339 
L 279.621199 -83.912428 
L 282.524026 -294.919053 
L 285.426853 -270.181803 
L 288.329679 -87.2953 
L 291.232506 -134.761219 
L 294.135332 -276.418973 
L 297.038159 -277.793264 
L 299.940985 -258.658896 
L 302.843812 -83.383854 
L 305.746639 -298.301924 
L 308.649465 -297.98478 
L 311.552292 -284.664723 
L 314.455118 -184.764292 
L 317.357945 -303.799091 
L 320.260772 -63.298053 
L 323.163598 -301.473367 
L 326.066425 -63.192339 
L 328.969251 -143.641257 
L 331.872078 -70.486656 
L 334.774905 -275.044681 
L 337.677731 -63.086624 
L 340.580558 -297.456206 
L 343.483384 -169.224225 
L 346.386211 -122.921168 
L 349.289037 -172.712811 
L 352.191864 -140.3641 
L 355.094691 -63.086624 
L 357.997517 -66.258066 
L 360.900344 -63.403768 
L 363.80317 -285.72187 
L 366.705997 -265.636069 
L 369.608824 -147.869847 
L 372.51165 -64.355201 
L 375.414477 -80.8467 
L 378.317303 -120.278299 
L 381.22013 -76.195252 
L 384.122956 -181.16999 
L 387.025783 -82.643851 
L 389.92861 -189.732885 
L 392.831436 -126.09261 
L 395.734263 -280.224703 
L 398.637089 -290.901892 
L 401.539916 -108.015389 
L 404.442743 -130.3212 
L 407.345569 -90.678171 
L 410.248396 -144.486975 
L 413.151222 -156.538456 
L 416.054049 -116.578283 
L 418.956875 -91.206745 
L 421.859702 -164.255632 
L 424.762529 -201.89008 
L 427.665355 -223.561602 
L 430.568182 -296.821918 
L 430.568182 -63.192339 
L 430.568182 -63.192339 
L 427.665355 -63.086624 
L 424.762529 -62.980909 
L 421.859702 -63.086624 
L 418.956875 -63.086624 
L 416.054049 -62.980909 
L 413.151222 -62.980909 
L 410.248396 -62.980909 
L 407.345569 -63.086624 
L 404.442743 -63.509483 
L 401.539916 -62.980909 
L 398.637089 -63.086624 
L 395.734263 -62.980909 
L 392.831436 -63.086624 
L 389.92861 -62.980909 
L 387.025783 -62.980909 
L 384.122956 -63.086624 
L 381.22013 -63.086624 
L 378.317303 -63.086624 
L 375.414477 -62.980909 
L 372.51165 -63.192339 
L 369.608824 -62.980909 
L 366.705997 -63.086624 
L 363.80317 -63.086624 
L 360.900344 -62.980909 
L 357.997517 -62.980909 
L 355.094691 -62.980909 
L 352.191864 -63.298053 
L 349.289037 -62.980909 
L 346.386211 -62.980909 
L 343.483384 -62.980909 
L 340.580558 -62.980909 
L 337.677731 -62.980909 
L 334.774905 -63.086624 
L 331.872078 -62.980909 
L 328.969251 -62.980909 
L 326.066425 -62.980909 
L 323.163598 -63.192339 
L 320.260772 -62.980909 
L 317.357945 -62.980909 
L 314.455118 -62.980909 
L 311.552292 -62.980909 
L 308.649465 -62.980909 
L 305.746639 -62.980909 
L 302.843812 -62.980909 
L 299.940985 -62.980909 
L 297.038159 -62.980909 
L 294.135332 -62.980909 
L 291.232506 -62.980909 
L 288.329679 -62.980909 
L 285.426853 -62.980909 
L 282.524026 -63.086624 
L 279.621199 -62.980909 
L 276.718373 -62.980909 
L 273.815546 -62.980909 
L 270.91272 -62.980909 
L 268.009893 -63.086624 
L 265.107066 -62.980909 
L 262.20424 -62.980909 
L 259.301413 -62.980909 
L 256.398587 -62.980909 
L 253.49576 -62.980909 
L 250.592934 -62.980909 
L 247.690107 -62.980909 
L 244.78728 -62.980909 
L 241.884454 -62.980909 
L 238.981627 -63.086624 
L 236.078801 -62.980909 
L 233.175974 -63.086624 
L 230.273147 -62.980909 
L 227.370321 -62.980909 
L 224.467494 -62.980909 
L 221.564668 -62.980909 
L 218.661841 -62.980909 
L 215.759015 -62.980909 
L 212.856188 -62.980909 
L 209.953361 -62.980909 
L 207.050535 -62.980909 
L 204.147708 -62.980909 
L 201.244882 -62.980909 
L 198.342055 -62.980909 
L 195.439228 -62.980909 
L 192.536402 -62.980909 
L 189.633575 -62.980909 
L 186.730749 -62.980909 
L 183.827922 -63.086624 
L 180.925095 -62.980909 
L 178.022269 -62.980909 
L 175.119442 -62.980909 
L 172.216616 -62.980909 
L 169.313789 -62.980909 
L 166.410963 -63.086624 
L 163.508136 -62.980909 
L 160.605309 -62.980909 
L 157.702483 -63.086624 
L 154.799656 -62.980909 
L 151.89683 -62.980909 
L 148.994003 -62.980909 
L 146.091176 -62.980909 
L 143.18835 -62.980909 
L 140.285523 -62.980909 
L 137.382697 -62.980909 
L 134.47987 -62.980909 
L 131.577044 -62.980909 
L 128.674217 -62.980909 
L 125.77139 -62.980909 
L 122.868564 -63.086624 
L 119.965737 -63.086624 
L 117.062911 -62.980909 
L 114.160084 -62.980909 
L 111.257257 -63.086624 
L 108.354431 -63.086624 
L 105.451604 -63.086624 
L 102.548778 -63.192339 
L 99.645951 -62.980909 
L 96.743125 -63.086624 
L 93.840298 -63.192339 
L 90.937471 -63.192339 
L 88.034645 -63.192339 
L 85.131818 -63.192339 
z
" style="stroke: #ffffff; stroke-opacity: 0.5"/>
    </defs>
    <g clip-path="url(#p367e2fde35)">
     <use xlink:href="#m94bdd9cfd6" x="0" y="345.6" style="fill: #4c72b0; fill-opacity: 0.5; stroke: #ffffff; stroke-opacity: 0.5"/>
    </g>
   </g>
   <g id="PolyCollection_2">
    <defs>
     <path id="m631fd5ab7b" d="M 85.131818 -148.165848 
L 85.131818 -178.231121 
L 88.034645 -196.773486 
L 90.937471 -192.819755 
L 93.840298 -190.071172 
L 96.743125 -173.85453 
L 99.645951 -85.350148 
L 102.548778 -93.278754 
L 105.451604 -93.701613 
L 108.354431 -89.938168 
L 111.257257 -101.228503 
L 114.160084 -90.868458 
L 117.062911 -97.528487 
L 119.965737 -92.813609 
L 122.868564 -94.145615 
L 125.77139 -89.66331 
L 128.674217 -83.362711 
L 131.577044 -63.805484 
L 134.47987 -63.27691 
L 137.382697 -75.497535 
L 140.285523 -74.292386 
L 143.18835 -68.837506 
L 146.091176 -63.234624 
L 148.994003 -63.255767 
L 151.89683 -65.983208 
L 154.799656 -73.002667 
L 157.702483 -63.234624 
L 160.605309 -63.298053 
L 163.508136 -63.27691 
L 166.410963 -63.340339 
L 169.313789 -63.298053 
L 172.216616 -63.298053 
L 175.119442 -63.298053 
L 178.022269 -63.361482 
L 180.925095 -63.974628 
L 183.827922 -67.970645 
L 186.730749 -63.298053 
L 189.633575 -63.298053 
L 192.536402 -63.255767 
L 195.439228 -63.319196 
L 198.342055 -63.319196 
L 201.244882 -63.255767 
L 204.147708 -63.382625 
L 207.050535 -63.319196 
L 209.953361 -63.319196 
L 212.856188 -63.361482 
L 215.759015 -63.340339 
L 218.661841 -63.340339 
L 221.564668 -63.27691 
L 224.467494 -63.298053 
L 227.370321 -63.298053 
L 230.273147 -63.319196 
L 233.175974 -63.27691 
L 236.078801 -63.382625 
L 238.981627 -63.298053 
L 241.884454 -63.298053 
L 244.78728 -63.319196 
L 247.690107 -63.319196 
L 250.592934 -63.319196 
L 253.49576 -63.361482 
L 256.398587 -63.319196 
L 259.301413 -63.340339 
L 262.20424 -63.27691 
L 265.107066 -63.340339 
L 268.009893 -63.319196 
L 270.91272 -63.298053 
L 273.815546 -63.340339 
L 276.718373 -63.298053 
L 279.621199 -63.319196 
L 282.524026 -63.319196 
L 285.426853 -63.361482 
L 288.329679 -63.340339 
L 291.232506 -63.298053 
L 294.135332 -63.340339 
L 297.038159 -63.361482 
L 299.940985 -63.27691 
L 302.843812 -63.319196 
L 305.746639 -63.234624 
L 308.649465 -63.298053 
L 311.552292 -63.298053 
L 314.455118 -63.319196 
L 317.357945 -63.361482 
L 320.260772 -63.319196 
L 323.163598 -63.382625 
L 326.066425 -63.298053 
L 328.969251 -63.298053 
L 331.872078 -63.255767 
L 334.774905 -63.298053 
L 337.677731 -63.298053 
L 340.580558 -63.319196 
L 343.483384 -63.298053 
L 346.386211 -63.298053 
L 349.289037 -63.319196 
L 352.191864 -63.340339 
L 355.094691 -63.27691 
L 357.997517 -63.298053 
L 360.900344 -63.340339 
L 363.80317 -63.27691 
L 366.705997 -63.340339 
L 369.608824 -63.298053 
L 372.51165 -63.298053 
L 375.414477 -63.319196 
L 378.317303 -63.319196 
L 381.22013 -63.319196 
L 384.122956 -63.27691 
L 387.025783 -63.319196 
L 389.92861 -63.319196 
L 392.831436 -63.319196 
L 395.734263 -63.319196 
L 398.637089 -63.298053 
L 401.539916 -63.319196 
L 404.442743 -63.298053 
L 407.345569 -63.340339 
L 410.248396 -63.319196 
L 413.151222 -63.298053 
L 416.054049 -63.298053 
L 418.956875 -63.319196 
L 421.859702 -63.340339 
L 424.762529 -63.27691 
L 427.665355 -63.319196 
L 430.568182 -63.298053 
L 430.568182 -63.192339 
L 430.568182 -63.192339 
L 427.665355 -63.234624 
L 424.762529 -63.192339 
L 421.859702 -63.192339 
L 418.956875 -63.192339 
L 416.054049 -63.234624 
L 413.151222 -63.255767 
L 410.248396 -63.255767 
L 407.345569 -63.213482 
L 404.442743 -63.234624 
L 401.539916 -63.234624 
L 398.637089 -63.234624 
L 395.734263 -63.213482 
L 392.831436 -63.234624 
L 389.92861 -63.255767 
L 387.025783 -63.213482 
L 384.122956 -63.213482 
L 381.22013 -63.255767 
L 378.317303 -63.213482 
L 375.414477 -63.255767 
L 372.51165 -63.171196 
L 369.608824 -63.213482 
L 366.705997 -63.213482 
L 363.80317 -63.234624 
L 360.900344 -63.255767 
L 357.997517 -63.213482 
L 355.094691 -63.192339 
L 352.191864 -63.255767 
L 349.289037 -63.192339 
L 346.386211 -63.213482 
L 343.483384 -63.213482 
L 340.580558 -63.255767 
L 337.677731 -63.234624 
L 334.774905 -63.213482 
L 331.872078 -63.192339 
L 328.969251 -63.234624 
L 326.066425 -63.192339 
L 323.163598 -63.234624 
L 320.260772 -63.213482 
L 317.357945 -63.192339 
L 314.455118 -63.255767 
L 311.552292 -63.192339 
L 308.649465 -63.234624 
L 305.746639 -63.213482 
L 302.843812 -63.255767 
L 299.940985 -63.234624 
L 297.038159 -63.234624 
L 294.135332 -63.255767 
L 291.232506 -63.255767 
L 288.329679 -63.255767 
L 285.426853 -63.234624 
L 282.524026 -63.255767 
L 279.621199 -63.107767 
L 276.718373 -63.255767 
L 273.815546 -63.234624 
L 270.91272 -63.234624 
L 268.009893 -63.234624 
L 265.107066 -63.213482 
L 262.20424 -63.192339 
L 259.301413 -63.255767 
L 256.398587 -63.192339 
L 253.49576 -63.171196 
L 250.592934 -63.171196 
L 247.690107 -63.213482 
L 244.78728 -63.213482 
L 241.884454 -63.234624 
L 238.981627 -63.234624 
L 236.078801 -63.213482 
L 233.175974 -63.213482 
L 230.273147 -63.213482 
L 227.370321 -63.234624 
L 224.467494 -63.171196 
L 221.564668 -63.192339 
L 218.661841 -63.255767 
L 215.759015 -63.255767 
L 212.856188 -63.234624 
L 209.953361 -63.255767 
L 207.050535 -63.213482 
L 204.147708 -63.234624 
L 201.244882 -63.192339 
L 198.342055 -63.234624 
L 195.439228 -63.255767 
L 192.536402 -63.171196 
L 189.633575 -63.213482 
L 186.730749 -63.213482 
L 183.827922 -63.213482 
L 180.925095 -63.150053 
L 178.022269 -63.171196 
L 175.119442 -63.192339 
L 172.216616 -63.171196 
L 169.313789 -63.213482 
L 166.410963 -63.171196 
L 163.508136 -63.213482 
L 160.605309 -63.150053 
L 157.702483 -63.171196 
L 154.799656 -63.192339 
L 151.89683 -63.213482 
L 148.994003 -63.107767 
L 146.091176 -63.12891 
L 143.18835 -63.150053 
L 140.285523 -63.192339 
L 137.382697 -63.12891 
L 134.47987 -63.107767 
L 131.577044 -63.12891 
L 128.674217 -63.107767 
L 125.77139 -63.107767 
L 122.868564 -63.107767 
L 119.965737 -63.12891 
L 117.062911 -65.983208 
L 114.160084 -66.384924 
L 111.257257 -63.086624 
L 108.354431 -63.107767 
L 105.451604 -63.023195 
L 102.548778 -64.186057 
L 99.645951 -73.362097 
L 96.743125 -86.999298 
L 93.840298 -146.495555 
L 90.937471 -140.913817 
L 88.034645 -153.853301 
L 85.131818 -148.165848 
z
" style="stroke: #ffffff; stroke-opacity: 0.5"/>
    </defs>
    <g clip-path="url(#p367e2fde35)">
     <use xlink:href="#m631fd5ab7b" x="0" y="345.6" style="fill: #dd8452; fill-opacity: 0.5; stroke: #ffffff; stroke-opacity: 0.5"/>
    </g>
   </g>
   <g id="PolyCollection_3">
    <defs>
     <path id="m1c44c25c66" d="M 85.131818 -117.84686 
L 85.131818 -193.538615 
L 88.034645 -159.287039 
L 90.937471 -230.538775 
L 93.840298 -193.750045 
L 96.743125 -183.495715 
L 99.645951 -214.047275 
L 102.548778 -162.141337 
L 105.451604 -94.801046 
L 108.354431 -152.62701 
L 111.257257 -103.998229 
L 114.160084 -106.852527 
L 117.062911 -99.663924 
L 119.965737 -84.123857 
L 122.868564 -192.164324 
L 125.77139 -77.675258 
L 128.674217 -63.509483 
L 131.577044 -81.480989 
L 134.47987 -124.718318 
L 137.382697 -64.672345 
L 140.285523 -84.652431 
L 143.18835 -69.006649 
L 146.091176 -63.403768 
L 148.994003 -63.615198 
L 151.89683 -73.552383 
L 154.799656 -104.209658 
L 157.702483 -63.509483 
L 160.605309 -63.509483 
L 163.508136 -63.509483 
L 166.410963 -63.615198 
L 169.313789 -84.229572 
L 172.216616 -63.615198 
L 175.119442 -63.615198 
L 178.022269 -63.615198 
L 180.925095 -67.526643 
L 183.827922 -63.509483 
L 186.730749 -63.826627 
L 189.633575 -63.720912 
L 192.536402 -63.509483 
L 195.439228 -63.720912 
L 198.342055 -63.509483 
L 201.244882 -63.826627 
L 204.147708 -63.720912 
L 207.050535 -63.720912 
L 209.953361 -63.509483 
L 212.856188 -63.509483 
L 215.759015 -63.615198 
L 218.661841 -63.615198 
L 221.564668 -63.509483 
L 224.467494 -63.509483 
L 227.370321 -63.509483 
L 230.273147 -63.615198 
L 233.175974 -64.038057 
L 236.078801 -63.615198 
L 238.981627 -63.403768 
L 241.884454 -63.509483 
L 244.78728 -63.615198 
L 247.690107 -63.403768 
L 250.592934 -63.403768 
L 253.49576 -63.615198 
L 256.398587 -63.509483 
L 259.301413 -63.615198 
L 262.20424 -63.403768 
L 265.107066 -63.615198 
L 268.009893 -63.720912 
L 270.91272 -63.720912 
L 273.815546 -63.720912 
L 276.718373 -63.509483 
L 279.621199 -63.509483 
L 282.524026 -63.615198 
L 285.426853 -63.509483 
L 288.329679 -63.615198 
L 291.232506 -63.615198 
L 294.135332 -63.403768 
L 297.038159 -63.720912 
L 299.940985 -63.720912 
L 302.843812 -63.615198 
L 305.746639 -63.615198 
L 308.649465 -63.509483 
L 311.552292 -63.615198 
L 314.455118 -63.509483 
L 317.357945 -63.509483 
L 320.260772 -63.615198 
L 323.163598 -63.403768 
L 326.066425 -63.720912 
L 328.969251 -63.615198 
L 331.872078 -63.509483 
L 334.774905 -63.720912 
L 337.677731 -63.720912 
L 340.580558 -63.720912 
L 343.483384 -63.509483 
L 346.386211 -63.615198 
L 349.289037 -63.826627 
L 352.191864 -63.615198 
L 355.094691 -63.720912 
L 357.997517 -63.509483 
L 360.900344 -63.509483 
L 363.80317 -63.509483 
L 366.705997 -63.509483 
L 369.608824 -63.615198 
L 372.51165 -63.509483 
L 375.414477 -63.615198 
L 378.317303 -63.509483 
L 381.22013 -63.615198 
L 384.122956 -63.509483 
L 387.025783 -63.615198 
L 389.92861 -63.615198 
L 392.831436 -63.615198 
L 395.734263 -63.826627 
L 398.637089 -63.509483 
L 401.539916 -63.720912 
L 404.442743 -63.615198 
L 407.345569 -63.615198 
L 410.248396 -63.932342 
L 413.151222 -63.615198 
L 416.054049 -63.826627 
L 418.956875 -63.932342 
L 421.859702 -63.615198 
L 424.762529 -63.720912 
L 427.665355 -63.615198 
L 430.568182 -63.720912 
L 430.568182 -63.403768 
L 430.568182 -63.403768 
L 427.665355 -63.298053 
L 424.762529 -63.192339 
L 421.859702 -63.298053 
L 418.956875 -63.298053 
L 416.054049 -63.298053 
L 413.151222 -63.298053 
L 410.248396 -63.192339 
L 407.345569 -63.403768 
L 404.442743 -63.298053 
L 401.539916 -63.403768 
L 398.637089 -63.192339 
L 395.734263 -63.298053 
L 392.831436 -63.298053 
L 389.92861 -63.298053 
L 387.025783 -63.192339 
L 384.122956 -63.298053 
L 381.22013 -63.192339 
L 378.317303 -63.298053 
L 375.414477 -63.192339 
L 372.51165 -63.403768 
L 369.608824 -63.298053 
L 366.705997 -63.192339 
L 363.80317 -63.298053 
L 360.900344 -63.298053 
L 357.997517 -63.192339 
L 355.094691 -63.403768 
L 352.191864 -63.298053 
L 349.289037 -63.403768 
L 346.386211 -63.192339 
L 343.483384 -63.403768 
L 340.580558 -63.192339 
L 337.677731 -63.298053 
L 334.774905 -63.298053 
L 331.872078 -63.192339 
L 328.969251 -63.403768 
L 326.066425 -63.298053 
L 323.163598 -63.192339 
L 320.260772 -63.298053 
L 317.357945 -63.298053 
L 314.455118 -63.086624 
L 311.552292 -63.298053 
L 308.649465 -63.403768 
L 305.746639 -63.403768 
L 302.843812 -63.298053 
L 299.940985 -63.403768 
L 297.038159 -63.298053 
L 294.135332 -63.192339 
L 291.232506 -63.298053 
L 288.329679 -63.298053 
L 285.426853 -63.298053 
L 282.524026 -63.403768 
L 279.621199 -62.980909 
L 276.718373 -63.298053 
L 273.815546 -63.298053 
L 270.91272 -63.403768 
L 268.009893 -63.298053 
L 265.107066 -63.298053 
L 262.20424 -63.298053 
L 259.301413 -63.192339 
L 256.398587 -63.298053 
L 253.49576 -63.192339 
L 250.592934 -63.298053 
L 247.690107 -63.192339 
L 244.78728 -63.298053 
L 241.884454 -63.298053 
L 238.981627 -63.298053 
L 236.078801 -63.298053 
L 233.175974 -63.298053 
L 230.273147 -63.298053 
L 227.370321 -63.298053 
L 224.467494 -63.298053 
L 221.564668 -63.192339 
L 218.661841 -63.298053 
L 215.759015 -63.403768 
L 212.856188 -63.298053 
L 209.953361 -63.403768 
L 207.050535 -63.509483 
L 204.147708 -63.403768 
L 201.244882 -63.298053 
L 198.342055 -63.298053 
L 195.439228 -63.298053 
L 192.536402 -63.192339 
L 189.633575 -63.509483 
L 186.730749 -63.403768 
L 183.827922 -63.298053 
L 180.925095 -63.298053 
L 178.022269 -63.403768 
L 175.119442 -63.298053 
L 172.216616 -63.403768 
L 169.313789 -63.403768 
L 166.410963 -63.298053 
L 163.508136 -63.298053 
L 160.605309 -63.403768 
L 157.702483 -63.298053 
L 154.799656 -63.298053 
L 151.89683 -63.298053 
L 148.994003 -63.192339 
L 146.091176 -63.192339 
L 143.18835 -63.192339 
L 140.285523 -63.298053 
L 137.382697 -63.298053 
L 134.47987 -63.086624 
L 131.577044 -63.192339 
L 128.674217 -63.192339 
L 125.77139 -63.298053 
L 122.868564 -63.192339 
L 119.965737 -63.192339 
L 117.062911 -63.298053 
L 114.160084 -63.298053 
L 111.257257 -63.192339 
L 108.354431 -63.192339 
L 105.451604 -63.192339 
L 102.548778 -112.455408 
L 99.645951 -84.546716 
L 96.743125 -109.178251 
L 93.840298 -113.195411 
L 90.937471 -125.352607 
L 88.034645 -155.692738 
L 85.131818 -117.84686 
z
" style="stroke: #ffffff; stroke-opacity: 0.5"/>
    </defs>
    <g clip-path="url(#p367e2fde35)">
     <use xlink:href="#m1c44c25c66" x="0" y="345.6" style="fill: #55a868; fill-opacity: 0.5; stroke: #ffffff; stroke-opacity: 0.5"/>
    </g>
   </g>
   <g id="line2d_13">
    <path d="M 85.131818 275.747633 
L 88.034645 282.027088 
L 90.937471 271.984188 
L 93.840298 280.081937 
L 96.743125 270.652182 
L 99.645951 282.090517 
L 102.548778 245.301787 
L 105.451604 282.005945 
L 108.354431 271.265328 
L 111.257257 274.119626 
L 114.160084 240.142908 
L 117.062911 282.513376 
L 119.965737 194.241567 
L 122.868564 282.428804 
L 125.77139 282.449947 
L 128.674217 244.371497 
L 131.577044 244.286926 
L 134.47987 276.508779 
L 137.382697 199.971306 
L 140.285523 253.188107 
L 143.18835 267.586455 
L 146.091176 276.910495 
L 148.994003 253.293822 
L 151.89683 282.534519 
L 154.799656 253.674395 
L 157.702483 282.196232 
L 160.605309 238.303471 
L 163.508136 249.889807 
L 166.410963 281.96366 
L 169.313789 261.581857 
L 172.216616 227.161137 
L 175.119442 282.597948 
L 178.022269 166.311732 
L 180.925095 282.534519 
L 183.827922 203.692465 
L 186.730749 271.244185 
L 189.633575 280.145366 
L 192.536402 247.056652 
L 195.439228 256.824694 
L 198.342055 273.781338 
L 201.244882 242.172631 
L 204.147708 265.768161 
L 207.050535 232.890876 
L 209.953361 279.38422 
L 212.856188 248.959517 
L 215.759015 202.127887 
L 218.661841 206.102761 
L 221.564668 282.534519 
L 224.467494 249.762949 
L 227.370321 282.576805 
L 230.273147 204.580469 
L 233.175974 239.550905 
L 236.078801 282.619091 
L 238.981627 262.004716 
L 241.884454 271.70933 
L 244.78728 259.382991 
L 247.690107 282.259661 
L 250.592934 240.417766 
L 253.49576 248.4098 
L 256.398587 282.47109 
L 259.301413 269.320176 
L 262.20424 209.549061 
L 265.107066 282.492233 
L 268.009893 276.170492 
L 270.91272 248.198371 
L 273.815546 274.204197 
L 276.718373 282.576805 
L 279.621199 278.390501 
L 282.524026 235.702888 
L 285.426853 232.912019 
L 288.329679 277.52364 
L 291.232506 267.967028 
L 294.135332 239.825763 
L 297.038159 239.381762 
L 299.940985 243.462351 
L 302.843812 278.009928 
L 305.746639 191.32384 
L 308.649465 213.354792 
L 311.552292 238.028613 
L 314.455118 258.198986 
L 317.357945 193.33242 
L 320.260772 282.534519 
L 323.163598 225.321701 
L 326.066425 282.513376 
L 328.969251 265.768161 
L 331.872078 280.885369 
L 334.774905 228.091427 
L 337.677731 282.576805 
L 340.580558 186.186103 
L 343.483384 248.684659 
L 346.386211 268.241886 
L 349.289037 260.630425 
L 352.191864 251.665815 
L 355.094691 282.597948 
L 357.997517 281.646515 
L 360.900344 282.47109 
L 363.80317 237.711469 
L 366.705997 241.940058 
L 369.608824 253.653252 
L 372.51165 282.11166 
L 375.414477 278.876789 
L 378.317303 271.053898 
L 381.22013 279.807079 
L 384.122956 258.854417 
L 387.025783 278.538502 
L 389.92861 249.065232 
L 392.831436 269.84875 
L 395.734263 239.064617 
L 398.637089 207.054193 
L 401.539916 269.320176 
L 404.442743 260.88414 
L 407.345569 276.910495 
L 410.248396 258.473844 
L 413.151222 262.258432 
L 416.054049 271.349899 
L 418.956875 276.80478 
L 421.859702 262.17386 
L 424.762529 254.668113 
L 427.665355 232.785162 
L 430.568182 178.828357 
" clip-path="url(#p367e2fde35)" style="fill: none; stroke: #4c72b0; stroke-width: 3; stroke-linecap: round"/>
   </g>
   <g id="line2d_14">
    <path d="M 85.131818 183.04849 
L 88.034645 170.595293 
L 90.937471 180.359107 
L 93.840298 174.701254 
L 96.743125 212.136958 
L 99.645951 267.26931 
L 102.548778 272.204075 
L 105.451604 266.60965 
L 108.354431 270.800183 
L 111.257257 268.495601 
L 114.160084 267.954342 
L 117.062911 268.778917 
L 119.965737 274.10694 
L 122.868564 276.077463 
L 125.77139 277.13461 
L 128.674217 277.49404 
L 131.577044 282.29349 
L 134.47987 282.416119 
L 137.382697 277.654727 
L 140.285523 279.811307 
L 143.18835 281.274399 
L 146.091176 282.390747 
L 148.994003 282.403433 
L 151.89683 281.819887 
L 154.799656 280.399081 
L 157.702483 282.399204 
L 160.605309 282.361147 
L 163.508136 282.365376 
L 166.410963 282.348461 
L 169.313789 282.348461 
L 172.216616 282.361147 
L 175.119442 282.35269 
L 178.022269 282.348461 
L 180.925095 282.225832 
L 183.827922 281.405486 
L 186.730749 282.35269 
L 189.633575 282.344233 
L 192.536402 282.369604 
L 195.439228 282.314632 
L 198.342055 282.318861 
L 201.244882 282.361147 
L 204.147708 282.29349 
L 207.050535 282.335775 
L 209.953361 282.314632 
L 212.856188 282.306175 
L 215.759015 282.318861 
L 218.661841 282.301947 
L 221.564668 282.348461 
L 224.467494 282.369604 
L 227.370321 282.335775 
L 230.273147 282.331547 
L 233.175974 282.35269 
L 236.078801 282.310404 
L 238.981627 282.331547 
L 241.884454 282.335775 
L 244.78728 282.327318 
L 247.690107 282.331547 
L 250.592934 282.356918 
L 253.49576 282.331547 
L 256.398587 282.340004 
L 259.301413 282.310404 
L 262.20424 282.369604 
L 265.107066 282.327318 
L 268.009893 282.318861 
L 270.91272 282.331547 
L 273.815546 282.301947 
L 276.718373 282.32309 
L 279.621199 282.361147 
L 282.524026 282.32309 
L 285.426853 282.306175 
L 288.329679 282.310404 
L 291.232506 282.331547 
L 294.135332 282.297718 
L 297.038159 282.301947 
L 299.940985 282.340004 
L 302.843812 282.32309 
L 305.746639 282.378061 
L 308.649465 282.32309 
L 311.552292 282.340004 
L 314.455118 282.318861 
L 317.357945 282.335775 
L 320.260772 282.344233 
L 323.163598 282.310404 
L 326.066425 282.331547 
L 328.969251 282.327318 
L 331.872078 282.378061 
L 334.774905 282.348461 
L 337.677731 282.327318 
L 340.580558 282.314632 
L 343.483384 282.344233 
L 346.386211 282.335775 
L 349.289037 282.348461 
L 352.191864 282.314632 
L 355.094691 282.361147 
L 357.997517 282.35269 
L 360.900344 282.310404 
L 363.80317 282.348461 
L 366.705997 282.297718 
L 369.608824 282.356918 
L 372.51165 282.369604 
L 375.414477 282.310404 
L 378.317303 282.331547 
L 381.22013 282.32309 
L 384.122956 282.356918 
L 387.025783 282.344233 
L 389.92861 282.301947 
L 392.831436 282.314632 
L 395.734263 282.335775 
L 398.637089 282.331547 
L 401.539916 282.344233 
L 404.442743 282.32309 
L 407.345569 282.344233 
L 410.248396 282.32309 
L 413.151222 282.331547 
L 416.054049 282.340004 
L 418.956875 282.335775 
L 421.859702 282.314632 
L 424.762529 282.361147 
L 427.665355 282.318861 
L 430.568182 282.335775 
" clip-path="url(#p367e2fde35)" style="fill: none; stroke: #dd8452; stroke-width: 3; stroke-linecap: round"/>
   </g>
   <g id="line2d_15">
    <path d="M 85.131818 186.883821 
L 88.034645 188.490685 
L 90.937471 177.855782 
L 93.840298 187.179822 
L 96.743125 185.424957 
L 99.645951 205.489615 
L 102.548778 203.079319 
L 105.451604 269.510463 
L 108.354431 264.457298 
L 111.257257 273.295051 
L 114.160084 272.999049 
L 117.062911 263.379008 
L 119.965737 278.200215 
L 122.868564 255.492688 
L 125.77139 277.143067 
L 128.674217 282.280804 
L 131.577044 277.16421 
L 134.47987 269.975608 
L 137.382697 281.942517 
L 140.285523 278.009928 
L 143.18835 281.117942 
L 146.091176 282.301947 
L 148.994003 282.196232 
L 151.89683 280.166509 
L 154.799656 274.035054 
L 157.702483 282.238518 
L 160.605309 282.153946 
L 163.508136 282.196232 
L 166.410963 282.175089 
L 169.313789 277.946499 
L 172.216616 282.090517 
L 175.119442 282.175089 
L 178.022269 282.090517 
L 180.925095 281.329371 
L 183.827922 282.175089 
L 186.730749 282.048231 
L 189.633575 282.027088 
L 192.536402 282.259661 
L 195.439228 282.11166 
L 198.342055 282.238518 
L 201.244882 282.090517 
L 204.147708 282.090517 
L 207.050535 282.048231 
L 209.953361 282.175089 
L 212.856188 282.175089 
L 215.759015 282.132803 
L 218.661841 282.11166 
L 221.564668 282.196232 
L 224.467494 282.196232 
L 227.370321 282.196232 
L 230.273147 282.175089 
L 233.175974 282.005945 
L 236.078801 282.153946 
L 238.981627 282.217375 
L 241.884454 282.217375 
L 244.78728 282.153946 
L 247.690107 282.32309 
L 250.592934 282.217375 
L 253.49576 282.153946 
L 256.398587 282.196232 
L 259.301413 282.175089 
L 262.20424 282.259661 
L 265.107066 282.132803 
L 268.009893 282.069374 
L 270.91272 282.090517 
L 273.815546 282.069374 
L 276.718373 282.175089 
L 279.621199 282.280804 
L 282.524026 282.11166 
L 285.426853 282.217375 
L 288.329679 282.11166 
L 291.232506 282.153946 
L 294.135332 282.238518 
L 297.038159 282.11166 
L 299.940985 282.11166 
L 302.843812 282.175089 
L 305.746639 282.132803 
L 308.649465 282.11166 
L 311.552292 282.175089 
L 314.455118 282.238518 
L 317.357945 282.153946 
L 320.260772 282.175089 
L 323.163598 282.280804 
L 326.066425 282.11166 
L 328.969251 282.090517 
L 331.872078 282.217375 
L 334.774905 282.090517 
L 337.677731 282.132803 
L 340.580558 282.132803 
L 343.483384 282.175089 
L 346.386211 282.238518 
L 349.289037 282.005945 
L 352.191864 282.069374 
L 355.094691 282.11166 
L 357.997517 282.238518 
L 360.900344 282.175089 
L 363.80317 282.175089 
L 366.705997 282.238518 
L 369.608824 282.132803 
L 372.51165 282.175089 
L 375.414477 282.196232 
L 378.317303 282.175089 
L 381.22013 282.217375 
L 384.122956 282.196232 
L 387.025783 282.217375 
L 389.92861 282.132803 
L 392.831436 282.11166 
L 395.734263 282.069374 
L 398.637089 282.238518 
L 401.539916 282.027088 
L 404.442743 282.153946 
L 407.345569 282.132803 
L 410.248396 282.11166 
L 413.151222 282.153946 
L 416.054049 282.048231 
L 418.956875 282.069374 
L 421.859702 282.090517 
L 424.762529 282.175089 
L 427.665355 282.175089 
L 430.568182 282.069374 
" clip-path="url(#p367e2fde35)" style="fill: none; stroke: #55a868; stroke-width: 3; stroke-linecap: round"/>
   </g>
   <g id="patch_3">
    <path d="M 67.86 294.66 
L 67.86 29.76 
" style="fill: none; stroke: #ffffff; stroke-width: 1.25; stroke-linejoin: miter; stroke-linecap: square"/>
   </g>
   <g id="patch_4">
    <path d="M 447.84 294.66 
L 447.84 29.76 
" style="fill: none; stroke: #ffffff; stroke-width: 1.25; stroke-linejoin: miter; stroke-linecap: square"/>
   </g>
   <g id="patch_5">
    <path d="M 67.86 294.66 
L 447.84 294.66 
" style="fill: none; stroke: #ffffff; stroke-width: 1.25; stroke-linejoin: miter; stroke-linecap: square"/>
   </g>
   <g id="patch_6">
    <path d="M 67.86 29.76 
L 447.84 29.76 
" style="fill: none; stroke: #ffffff; stroke-width: 1.25; stroke-linejoin: miter; stroke-linecap: square"/>
   </g>
   <g id="text_15">
    <!-- zinc-coating-v0 -->
    <g style="fill: #262626" transform="translate(204.491406 23.76)scale(0.14 -0.14)">
     <defs>
      <path id="DejaVuSans-7a" d="M 353 3500 
L 3084 3500 
L 3084 2975 
L 922 459 
L 3084 459 
L 3084 0 
L 275 0 
L 275 525 
L 2438 3041 
L 353 3041 
L 353 3500 
z
" transform="scale(0.015625)"/>
      <path id="DejaVuSans-63" d="M 3122 3366 
L 3122 2828 
Q 2878 2963 2633 3030 
Q 2388 3097 2138 3097 
Q 1578 3097 1268 2742 
Q 959 2388 959 1747 
Q 959 1106 1268 751 
Q 1578 397 2138 397 
Q 2388 397 2633 464 
Q 2878 531 3122 666 
L 3122 134 
Q 2881 22 2623 -34 
Q 2366 -91 2075 -91 
Q 1284 -91 818 406 
Q 353 903 353 1747 
Q 353 2603 823 3093 
Q 1294 3584 2113 3584 
Q 2378 3584 2631 3529 
Q 2884 3475 3122 3366 
z
" transform="scale(0.015625)"/>
      <path id="DejaVuSans-2d" d="M 313 2009 
L 1997 2009 
L 1997 1497 
L 313 1497 
L 313 2009 
z
" transform="scale(0.015625)"/>
      <path id="DejaVuSans-61" d="M 2194 1759 
Q 1497 1759 1228 1600 
Q 959 1441 959 1056 
Q 959 750 1161 570 
Q 1363 391 1709 391 
Q 2188 391 2477 730 
Q 2766 1069 2766 1631 
L 2766 1759 
L 2194 1759 
z
M 3341 1997 
L 3341 0 
L 2766 0 
L 2766 531 
Q 2569 213 2275 61 
Q 1981 -91 1556 -91 
Q 1019 -91 701 211 
Q 384 513 384 1019 
Q 384 1609 779 1909 
Q 1175 2209 1959 2209 
L 2766 2209 
L 2766 2266 
Q 2766 2663 2505 2880 
Q 2244 3097 1772 3097 
Q 1472 3097 1187 3025 
Q 903 2953 641 2809 
L 641 3341 
Q 956 3463 1253 3523 
Q 1550 3584 1831 3584 
Q 2591 3584 2966 3190 
Q 3341 2797 3341 1997 
z
" transform="scale(0.015625)"/>
      <path id="DejaVuSans-76" d="M 191 3500 
L 800 3500 
L 1894 563 
L 2988 3500 
L 3597 3500 
L 2284 0 
L 1503 0 
L 191 3500 
z
" transform="scale(0.015625)"/>
     </defs>
     <use xlink:href="#DejaVuSans-7a"/>
     <use xlink:href="#DejaVuSans-69" x="52.490234"/>
     <use xlink:href="#DejaVuSans-6e" x="80.273438"/>
     <use xlink:href="#DejaVuSans-63" x="143.652344"/>
     <use xlink:href="#DejaVuSans-2d" x="198.632812"/>
     <use xlink:href="#DejaVuSans-63" x="234.716797"/>
     <use xlink:href="#DejaVuSans-6f" x="289.697266"/>
     <use xlink:href="#DejaVuSans-61" x="350.878906"/>
     <use xlink:href="#DejaVuSans-74" x="412.158203"/>
     <use xlink:href="#DejaVuSans-69" x="451.367188"/>
     <use xlink:href="#DejaVuSans-6e" x="479.150391"/>
     <use xlink:href="#DejaVuSans-67" x="542.529297"/>
     <use xlink:href="#DejaVuSans-2d" x="606.005859"/>
     <use xlink:href="#DejaVuSans-76" x="639.464844"/>
     <use xlink:href="#DejaVuSans-30" x="698.644531"/>
    </g>
   </g>
   <g id="legend_1">
    <g id="patch_7">
     <path d="M 324.957969 86.997813 
L 440.14 86.997813 
Q 442.34 86.997813 442.34 84.797813 
L 442.34 37.46 
Q 442.34 35.26 440.14 35.26 
L 324.957969 35.26 
Q 322.757969 35.26 322.757969 37.46 
L 322.757969 84.797813 
Q 322.757969 86.997813 324.957969 86.997813 
z
" style="fill: #eaeaf2; opacity: 0.8; stroke: #cccccc; stroke-linejoin: miter"/>
    </g>
    <g id="line2d_16">
     <path d="M 327.157969 44.168281 
L 338.157969 44.168281 
L 349.157969 44.168281 
" style="fill: none; stroke: #4c72b0; stroke-width: 3; stroke-linecap: round"/>
    </g>
    <g id="text_16">
     <!-- DATS-DELAY-0 -->
     <g style="fill: #262626" transform="translate(357.957969 48.018281)scale(0.11 -0.11)">
      <defs>
       <path id="DejaVuSans-44" d="M 1259 4147 
L 1259 519 
L 2022 519 
Q 2988 519 3436 956 
Q 3884 1394 3884 2338 
Q 3884 3275 3436 3711 
Q 2988 4147 2022 4147 
L 1259 4147 
z
M 628 4666 
L 1925 4666 
Q 3281 4666 3915 4102 
Q 4550 3538 4550 2338 
Q 4550 1131 3912 565 
Q 3275 0 1925 0 
L 628 0 
L 628 4666 
z
" transform="scale(0.015625)"/>
       <path id="DejaVuSans-41" d="M 2188 4044 
L 1331 1722 
L 3047 1722 
L 2188 4044 
z
M 1831 4666 
L 2547 4666 
L 4325 0 
L 3669 0 
L 3244 1197 
L 1141 1197 
L 716 0 
L 50 0 
L 1831 4666 
z
" transform="scale(0.015625)"/>
       <path id="DejaVuSans-53" d="M 3425 4513 
L 3425 3897 
Q 3066 4069 2747 4153 
Q 2428 4238 2131 4238 
Q 1616 4238 1336 4038 
Q 1056 3838 1056 3469 
Q 1056 3159 1242 3001 
Q 1428 2844 1947 2747 
L 2328 2669 
Q 3034 2534 3370 2195 
Q 3706 1856 3706 1288 
Q 3706 609 3251 259 
Q 2797 -91 1919 -91 
Q 1588 -91 1214 -16 
Q 841 59 441 206 
L 441 856 
Q 825 641 1194 531 
Q 1563 422 1919 422 
Q 2459 422 2753 634 
Q 3047 847 3047 1241 
Q 3047 1584 2836 1778 
Q 2625 1972 2144 2069 
L 1759 2144 
Q 1053 2284 737 2584 
Q 422 2884 422 3419 
Q 422 4038 858 4394 
Q 1294 4750 2059 4750 
Q 2388 4750 2728 4690 
Q 3069 4631 3425 4513 
z
" transform="scale(0.015625)"/>
       <path id="DejaVuSans-45" d="M 628 4666 
L 3578 4666 
L 3578 4134 
L 1259 4134 
L 1259 2753 
L 3481 2753 
L 3481 2222 
L 1259 2222 
L 1259 531 
L 3634 531 
L 3634 0 
L 628 0 
L 628 4666 
z
" transform="scale(0.015625)"/>
       <path id="DejaVuSans-4c" d="M 628 4666 
L 1259 4666 
L 1259 531 
L 3531 531 
L 3531 0 
L 628 0 
L 628 4666 
z
" transform="scale(0.015625)"/>
       <path id="DejaVuSans-59" d="M -13 4666 
L 666 4666 
L 1959 2747 
L 3244 4666 
L 3922 4666 
L 2272 2222 
L 2272 0 
L 1638 0 
L 1638 2222 
L -13 4666 
z
" transform="scale(0.015625)"/>
      </defs>
      <use xlink:href="#DejaVuSans-44"/>
      <use xlink:href="#DejaVuSans-41" x="75.251953"/>
      <use xlink:href="#DejaVuSans-54" x="135.910156"/>
      <use xlink:href="#DejaVuSans-53" x="196.994141"/>
      <use xlink:href="#DejaVuSans-2d" x="260.470703"/>
      <use xlink:href="#DejaVuSans-44" x="296.554688"/>
      <use xlink:href="#DejaVuSans-45" x="373.556641"/>
      <use xlink:href="#DejaVuSans-4c" x="436.740234"/>
      <use xlink:href="#DejaVuSans-41" x="494.703125"/>
      <use xlink:href="#DejaVuSans-59" x="555.361328"/>
      <use xlink:href="#DejaVuSans-2d" x="604.570312"/>
      <use xlink:href="#DejaVuSans-30" x="640.654297"/>
     </g>
    </g>
    <g id="line2d_17">
     <path d="M 327.157969 60.314219 
L 338.157969 60.314219 
L 349.157969 60.314219 
" style="fill: none; stroke: #dd8452; stroke-width: 3; stroke-linecap: round"/>
    </g>
    <g id="text_17">
     <!-- SAC-DELAY-0 -->
     <g style="fill: #262626" transform="translate(357.957969 64.164219)scale(0.11 -0.11)">
      <defs>
       <path id="DejaVuSans-43" d="M 4122 4306 
L 4122 3641 
Q 3803 3938 3442 4084 
Q 3081 4231 2675 4231 
Q 1875 4231 1450 3742 
Q 1025 3253 1025 2328 
Q 1025 1406 1450 917 
Q 1875 428 2675 428 
Q 3081 428 3442 575 
Q 3803 722 4122 1019 
L 4122 359 
Q 3791 134 3420 21 
Q 3050 -91 2638 -91 
Q 1578 -91 968 557 
Q 359 1206 359 2328 
Q 359 3453 968 4101 
Q 1578 4750 2638 4750 
Q 3056 4750 3426 4639 
Q 3797 4528 4122 4306 
z
" transform="scale(0.015625)"/>
      </defs>
      <use xlink:href="#DejaVuSans-53"/>
      <use xlink:href="#DejaVuSans-41" x="65.351562"/>
      <use xlink:href="#DejaVuSans-43" x="132.009766"/>
      <use xlink:href="#DejaVuSans-2d" x="201.833984"/>
      <use xlink:href="#DejaVuSans-44" x="237.917969"/>
      <use xlink:href="#DejaVuSans-45" x="314.919922"/>
      <use xlink:href="#DejaVuSans-4c" x="378.103516"/>
      <use xlink:href="#DejaVuSans-41" x="436.066406"/>
      <use xlink:href="#DejaVuSans-59" x="496.724609"/>
      <use xlink:href="#DejaVuSans-2d" x="545.933594"/>
      <use xlink:href="#DejaVuSans-30" x="582.017578"/>
     </g>
    </g>
    <g id="line2d_18">
     <path d="M 327.157969 76.460156 
L 338.157969 76.460156 
L 349.157969 76.460156 
" style="fill: none; stroke: #55a868; stroke-width: 3; stroke-linecap: round"/>
    </g>
    <g id="text_18">
     <!-- DCAC-DELAY-1 -->
     <g style="fill: #262626" transform="translate(357.957969 80.310156)scale(0.11 -0.11)">
      <use xlink:href="#DejaVuSans-44"/>
      <use xlink:href="#DejaVuSans-43" x="77.001953"/>
      <use xlink:href="#DejaVuSans-41" x="146.826172"/>
      <use xlink:href="#DejaVuSans-43" x="213.484375"/>
      <use xlink:href="#DejaVuSans-2d" x="283.308594"/>
      <use xlink:href="#DejaVuSans-44" x="319.392578"/>
      <use xlink:href="#DejaVuSans-45" x="396.394531"/>
      <use xlink:href="#DejaVuSans-4c" x="459.578125"/>
      <use xlink:href="#DejaVuSans-41" x="517.541016"/>
      <use xlink:href="#DejaVuSans-59" x="578.199219"/>
      <use xlink:href="#DejaVuSans-2d" x="627.408203"/>
      <use xlink:href="#DejaVuSans-31" x="663.492188"/>
     </g>
    </g>
   </g>
  </g>
 </g>
 <defs>
  <clipPath id="p367e2fde35">
   <rect x="67.86" y="29.76" width="379.98" height="264.9"/>
  </clipPath>
 </defs>
</svg>
