<?xml version="1.0" encoding="utf-8" standalone="no"?>
<!DOCTYPE svg PUBLIC "-//W3C//DTD SVG 1.1//EN"
  "http://www.w3.org/Graphics/SVG/1.1/DTD/svg11.dtd">
<svg xmlns:xlink="http://www.w3.org/1999/xlink" width="460.8pt" height="345.6pt" viewBox="0 0 460.8 345.6" xmlns="http://www.w3.org/2000/svg" version="1.1">
 <metadata>
  <rdf:RDF xmlns:dc="http://purl.org/dc/elements/1.1/" xmlns:cc="http://creativecommons.org/ns#" xmlns:rdf="http://www.w3.org/1999/02/22-rdf-syntax-ns#">
   <cc:Work>
    <dc:type rdf:resource="http://purl.org/dc/dcmitype/StillImage"/>
    <dc:date>2022-09-10T15:51:38.783473</dc:date>
    <dc:format>image/svg+xml</dc:format>
    <dc:creator>
     <cc:Agent>
      <dc:title>Matplotlib v3.5.3, https://matplotlib.org/</dc:title>
     </cc:Agent>
    </dc:creator>
   </cc:Work>
  </rdf:RDF>
 </metadata>
 <defs>
  <style type="text/css">*{stroke-linejoin: round; stroke-linecap: butt}</style>
 </defs>
 <g id="figure_1">
  <g id="patch_1">
   <path d="M 0 345.6 
L 460.8 345.6 
L 460.8 0 
L 0 0 
z
" style="fill: #ffffff"/>
  </g>
  <g id="axes_1">
   <g id="patch_2">
    <path d="M 67.86 294.66 
L 447.84 294.66 
L 447.84 29.76 
L 67.86 29.76 
z
" style="fill: #eaeaf2"/>
   </g>
   <g id="matplotlib.axis_1">
    <g id="xtick_1">
     <g id="line2d_1">
      <path d="M 82.228992 294.66 
L 82.228992 29.76 
" clip-path="url(#p23dc2bebb3)" style="fill: none; stroke: #ffffff; stroke-linecap: round"/>
     </g>
     <g id="text_1">
      <!-- 0.00 -->
      <g style="fill: #262626" transform="translate(69.982898 312.518281)scale(0.11 -0.11)">
       <defs>
        <path id="DejaVuSans-30" d="M 2034 4250 
Q 1547 4250 1301 3770 
Q 1056 3291 1056 2328 
Q 1056 1369 1301 889 
Q 1547 409 2034 409 
Q 2525 409 2770 889 
Q 3016 1369 3016 2328 
Q 3016 3291 2770 3770 
Q 2525 4250 2034 4250 
z
M 2034 4750 
Q 2819 4750 3233 4129 
Q 3647 3509 3647 2328 
Q 3647 1150 3233 529 
Q 2819 -91 2034 -91 
Q 1250 -91 836 529 
Q 422 1150 422 2328 
Q 422 3509 836 4129 
Q 1250 4750 2034 4750 
z
" transform="scale(0.015625)"/>
        <path id="DejaVuSans-2e" d="M 684 794 
L 1344 794 
L 1344 0 
L 684 0 
L 684 794 
z
" transform="scale(0.015625)"/>
       </defs>
       <use xlink:href="#DejaVuSans-30"/>
       <use xlink:href="#DejaVuSans-2e" x="63.623047"/>
       <use xlink:href="#DejaVuSans-30" x="95.410156"/>
       <use xlink:href="#DejaVuSans-30" x="159.033203"/>
      </g>
     </g>
    </g>
    <g id="xtick_2">
     <g id="line2d_2">
      <path d="M 140.285523 294.66 
L 140.285523 29.76 
" clip-path="url(#p23dc2bebb3)" style="fill: none; stroke: #ffffff; stroke-linecap: round"/>
     </g>
     <g id="text_2">
      <!-- 0.05 -->
      <g style="fill: #262626" transform="translate(128.03943 312.518281)scale(0.11 -0.11)">
       <defs>
        <path id="DejaVuSans-35" d="M 691 4666 
L 3169 4666 
L 3169 4134 
L 1269 4134 
L 1269 2991 
Q 1406 3038 1543 3061 
Q 1681 3084 1819 3084 
Q 2600 3084 3056 2656 
Q 3513 2228 3513 1497 
Q 3513 744 3044 326 
Q 2575 -91 1722 -91 
Q 1428 -91 1123 -41 
Q 819 9 494 109 
L 494 744 
Q 775 591 1075 516 
Q 1375 441 1709 441 
Q 2250 441 2565 725 
Q 2881 1009 2881 1497 
Q 2881 1984 2565 2268 
Q 2250 2553 1709 2553 
Q 1456 2553 1204 2497 
Q 953 2441 691 2322 
L 691 4666 
z
" transform="scale(0.015625)"/>
       </defs>
       <use xlink:href="#DejaVuSans-30"/>
       <use xlink:href="#DejaVuSans-2e" x="63.623047"/>
       <use xlink:href="#DejaVuSans-30" x="95.410156"/>
       <use xlink:href="#DejaVuSans-35" x="159.033203"/>
      </g>
     </g>
    </g>
    <g id="xtick_3">
     <g id="line2d_3">
      <path d="M 198.342055 294.66 
L 198.342055 29.76 
" clip-path="url(#p23dc2bebb3)" style="fill: none; stroke: #ffffff; stroke-linecap: round"/>
     </g>
     <g id="text_3">
      <!-- 0.10 -->
      <g style="fill: #262626" transform="translate(186.095961 312.518281)scale(0.11 -0.11)">
       <defs>
        <path id="DejaVuSans-31" d="M 794 531 
L 1825 531 
L 1825 4091 
L 703 3866 
L 703 4441 
L 1819 4666 
L 2450 4666 
L 2450 531 
L 3481 531 
L 3481 0 
L 794 0 
L 794 531 
z
" transform="scale(0.015625)"/>
       </defs>
       <use xlink:href="#DejaVuSans-30"/>
       <use xlink:href="#DejaVuSans-2e" x="63.623047"/>
       <use xlink:href="#DejaVuSans-31" x="95.410156"/>
       <use xlink:href="#DejaVuSans-30" x="159.033203"/>
      </g>
     </g>
    </g>
    <g id="xtick_4">
     <g id="line2d_4">
      <path d="M 256.398587 294.66 
L 256.398587 29.76 
" clip-path="url(#p23dc2bebb3)" style="fill: none; stroke: #ffffff; stroke-linecap: round"/>
     </g>
     <g id="text_4">
      <!-- 0.15 -->
      <g style="fill: #262626" transform="translate(244.152493 312.518281)scale(0.11 -0.11)">
       <use xlink:href="#DejaVuSans-30"/>
       <use xlink:href="#DejaVuSans-2e" x="63.623047"/>
       <use xlink:href="#DejaVuSans-31" x="95.410156"/>
       <use xlink:href="#DejaVuSans-35" x="159.033203"/>
      </g>
     </g>
    </g>
    <g id="xtick_5">
     <g id="line2d_5">
      <path d="M 314.455118 294.66 
L 314.455118 29.76 
" clip-path="url(#p23dc2bebb3)" style="fill: none; stroke: #ffffff; stroke-linecap: round"/>
     </g>
     <g id="text_5">
      <!-- 0.20 -->
      <g style="fill: #262626" transform="translate(302.209025 312.518281)scale(0.11 -0.11)">
       <defs>
        <path id="DejaVuSans-32" d="M 1228 531 
L 3431 531 
L 3431 0 
L 469 0 
L 469 531 
Q 828 903 1448 1529 
Q 2069 2156 2228 2338 
Q 2531 2678 2651 2914 
Q 2772 3150 2772 3378 
Q 2772 3750 2511 3984 
Q 2250 4219 1831 4219 
Q 1534 4219 1204 4116 
Q 875 4013 500 3803 
L 500 4441 
Q 881 4594 1212 4672 
Q 1544 4750 1819 4750 
Q 2544 4750 2975 4387 
Q 3406 4025 3406 3419 
Q 3406 3131 3298 2873 
Q 3191 2616 2906 2266 
Q 2828 2175 2409 1742 
Q 1991 1309 1228 531 
z
" transform="scale(0.015625)"/>
       </defs>
       <use xlink:href="#DejaVuSans-30"/>
       <use xlink:href="#DejaVuSans-2e" x="63.623047"/>
       <use xlink:href="#DejaVuSans-32" x="95.410156"/>
       <use xlink:href="#DejaVuSans-30" x="159.033203"/>
      </g>
     </g>
    </g>
    <g id="xtick_6">
     <g id="line2d_6">
      <path d="M 372.51165 294.66 
L 372.51165 29.76 
" clip-path="url(#p23dc2bebb3)" style="fill: none; stroke: #ffffff; stroke-linecap: round"/>
     </g>
     <g id="text_6">
      <!-- 0.25 -->
      <g style="fill: #262626" transform="translate(360.265556 312.518281)scale(0.11 -0.11)">
       <use xlink:href="#DejaVuSans-30"/>
       <use xlink:href="#DejaVuSans-2e" x="63.623047"/>
       <use xlink:href="#DejaVuSans-32" x="95.410156"/>
       <use xlink:href="#DejaVuSans-35" x="159.033203"/>
      </g>
     </g>
    </g>
    <g id="xtick_7">
     <g id="line2d_7">
      <path d="M 430.568182 294.66 
L 430.568182 29.76 
" clip-path="url(#p23dc2bebb3)" style="fill: none; stroke: #ffffff; stroke-linecap: round"/>
     </g>
     <g id="text_7">
      <!-- 0.30 -->
      <g style="fill: #262626" transform="translate(418.322088 312.518281)scale(0.11 -0.11)">
       <defs>
        <path id="DejaVuSans-33" d="M 2597 2516 
Q 3050 2419 3304 2112 
Q 3559 1806 3559 1356 
Q 3559 666 3084 287 
Q 2609 -91 1734 -91 
Q 1441 -91 1130 -33 
Q 819 25 488 141 
L 488 750 
Q 750 597 1062 519 
Q 1375 441 1716 441 
Q 2309 441 2620 675 
Q 2931 909 2931 1356 
Q 2931 1769 2642 2001 
Q 2353 2234 1838 2234 
L 1294 2234 
L 1294 2753 
L 1863 2753 
Q 2328 2753 2575 2939 
Q 2822 3125 2822 3475 
Q 2822 3834 2567 4026 
Q 2313 4219 1838 4219 
Q 1578 4219 1281 4162 
Q 984 4106 628 3988 
L 628 4550 
Q 988 4650 1302 4700 
Q 1616 4750 1894 4750 
Q 2613 4750 3031 4423 
Q 3450 4097 3450 3541 
Q 3450 3153 3228 2886 
Q 3006 2619 2597 2516 
z
" transform="scale(0.015625)"/>
       </defs>
       <use xlink:href="#DejaVuSans-30"/>
       <use xlink:href="#DejaVuSans-2e" x="63.623047"/>
       <use xlink:href="#DejaVuSans-33" x="95.410156"/>
       <use xlink:href="#DejaVuSans-30" x="159.033203"/>
      </g>
     </g>
    </g>
    <g id="text_8">
     <!-- Timesteps (in Million) -->
     <g style="fill: #262626" transform="translate(183.104219 329.44375)scale(0.14 -0.14)">
      <defs>
       <path id="DejaVuSans-54" d="M -19 4666 
L 3928 4666 
L 3928 4134 
L 2272 4134 
L 2272 0 
L 1638 0 
L 1638 4134 
L -19 4134 
L -19 4666 
z
" transform="scale(0.015625)"/>
       <path id="DejaVuSans-69" d="M 603 3500 
L 1178 3500 
L 1178 0 
L 603 0 
L 603 3500 
z
M 603 4863 
L 1178 4863 
L 1178 4134 
L 603 4134 
L 603 4863 
z
" transform="scale(0.015625)"/>
       <path id="DejaVuSans-6d" d="M 3328 2828 
Q 3544 3216 3844 3400 
Q 4144 3584 4550 3584 
Q 5097 3584 5394 3201 
Q 5691 2819 5691 2113 
L 5691 0 
L 5113 0 
L 5113 2094 
Q 5113 2597 4934 2840 
Q 4756 3084 4391 3084 
Q 3944 3084 3684 2787 
Q 3425 2491 3425 1978 
L 3425 0 
L 2847 0 
L 2847 2094 
Q 2847 2600 2669 2842 
Q 2491 3084 2119 3084 
Q 1678 3084 1418 2786 
Q 1159 2488 1159 1978 
L 1159 0 
L 581 0 
L 581 3500 
L 1159 3500 
L 1159 2956 
Q 1356 3278 1631 3431 
Q 1906 3584 2284 3584 
Q 2666 3584 2933 3390 
Q 3200 3197 3328 2828 
z
" transform="scale(0.015625)"/>
       <path id="DejaVuSans-65" d="M 3597 1894 
L 3597 1613 
L 953 1613 
Q 991 1019 1311 708 
Q 1631 397 2203 397 
Q 2534 397 2845 478 
Q 3156 559 3463 722 
L 3463 178 
Q 3153 47 2828 -22 
Q 2503 -91 2169 -91 
Q 1331 -91 842 396 
Q 353 884 353 1716 
Q 353 2575 817 3079 
Q 1281 3584 2069 3584 
Q 2775 3584 3186 3129 
Q 3597 2675 3597 1894 
z
M 3022 2063 
Q 3016 2534 2758 2815 
Q 2500 3097 2075 3097 
Q 1594 3097 1305 2825 
Q 1016 2553 972 2059 
L 3022 2063 
z
" transform="scale(0.015625)"/>
       <path id="DejaVuSans-73" d="M 2834 3397 
L 2834 2853 
Q 2591 2978 2328 3040 
Q 2066 3103 1784 3103 
Q 1356 3103 1142 2972 
Q 928 2841 928 2578 
Q 928 2378 1081 2264 
Q 1234 2150 1697 2047 
L 1894 2003 
Q 2506 1872 2764 1633 
Q 3022 1394 3022 966 
Q 3022 478 2636 193 
Q 2250 -91 1575 -91 
Q 1294 -91 989 -36 
Q 684 19 347 128 
L 347 722 
Q 666 556 975 473 
Q 1284 391 1588 391 
Q 1994 391 2212 530 
Q 2431 669 2431 922 
Q 2431 1156 2273 1281 
Q 2116 1406 1581 1522 
L 1381 1569 
Q 847 1681 609 1914 
Q 372 2147 372 2553 
Q 372 3047 722 3315 
Q 1072 3584 1716 3584 
Q 2034 3584 2315 3537 
Q 2597 3491 2834 3397 
z
" transform="scale(0.015625)"/>
       <path id="DejaVuSans-74" d="M 1172 4494 
L 1172 3500 
L 2356 3500 
L 2356 3053 
L 1172 3053 
L 1172 1153 
Q 1172 725 1289 603 
Q 1406 481 1766 481 
L 2356 481 
L 2356 0 
L 1766 0 
Q 1100 0 847 248 
Q 594 497 594 1153 
L 594 3053 
L 172 3053 
L 172 3500 
L 594 3500 
L 594 4494 
L 1172 4494 
z
" transform="scale(0.015625)"/>
       <path id="DejaVuSans-70" d="M 1159 525 
L 1159 -1331 
L 581 -1331 
L 581 3500 
L 1159 3500 
L 1159 2969 
Q 1341 3281 1617 3432 
Q 1894 3584 2278 3584 
Q 2916 3584 3314 3078 
Q 3713 2572 3713 1747 
Q 3713 922 3314 415 
Q 2916 -91 2278 -91 
Q 1894 -91 1617 61 
Q 1341 213 1159 525 
z
M 3116 1747 
Q 3116 2381 2855 2742 
Q 2594 3103 2138 3103 
Q 1681 3103 1420 2742 
Q 1159 2381 1159 1747 
Q 1159 1113 1420 752 
Q 1681 391 2138 391 
Q 2594 391 2855 752 
Q 3116 1113 3116 1747 
z
" transform="scale(0.015625)"/>
       <path id="DejaVuSans-20" transform="scale(0.015625)"/>
       <path id="DejaVuSans-28" d="M 1984 4856 
Q 1566 4138 1362 3434 
Q 1159 2731 1159 2009 
Q 1159 1288 1364 580 
Q 1569 -128 1984 -844 
L 1484 -844 
Q 1016 -109 783 600 
Q 550 1309 550 2009 
Q 550 2706 781 3412 
Q 1013 4119 1484 4856 
L 1984 4856 
z
" transform="scale(0.015625)"/>
       <path id="DejaVuSans-6e" d="M 3513 2113 
L 3513 0 
L 2938 0 
L 2938 2094 
Q 2938 2591 2744 2837 
Q 2550 3084 2163 3084 
Q 1697 3084 1428 2787 
Q 1159 2491 1159 1978 
L 1159 0 
L 581 0 
L 581 3500 
L 1159 3500 
L 1159 2956 
Q 1366 3272 1645 3428 
Q 1925 3584 2291 3584 
Q 2894 3584 3203 3211 
Q 3513 2838 3513 2113 
z
" transform="scale(0.015625)"/>
       <path id="DejaVuSans-4d" d="M 628 4666 
L 1569 4666 
L 2759 1491 
L 3956 4666 
L 4897 4666 
L 4897 0 
L 4281 0 
L 4281 4097 
L 3078 897 
L 2444 897 
L 1241 4097 
L 1241 0 
L 628 0 
L 628 4666 
z
" transform="scale(0.015625)"/>
       <path id="DejaVuSans-6c" d="M 603 4863 
L 1178 4863 
L 1178 0 
L 603 0 
L 603 4863 
z
" transform="scale(0.015625)"/>
       <path id="DejaVuSans-6f" d="M 1959 3097 
Q 1497 3097 1228 2736 
Q 959 2375 959 1747 
Q 959 1119 1226 758 
Q 1494 397 1959 397 
Q 2419 397 2687 759 
Q 2956 1122 2956 1747 
Q 2956 2369 2687 2733 
Q 2419 3097 1959 3097 
z
M 1959 3584 
Q 2709 3584 3137 3096 
Q 3566 2609 3566 1747 
Q 3566 888 3137 398 
Q 2709 -91 1959 -91 
Q 1206 -91 779 398 
Q 353 888 353 1747 
Q 353 2609 779 3096 
Q 1206 3584 1959 3584 
z
" transform="scale(0.015625)"/>
       <path id="DejaVuSans-29" d="M 513 4856 
L 1013 4856 
Q 1481 4119 1714 3412 
Q 1947 2706 1947 2009 
Q 1947 1309 1714 600 
Q 1481 -109 1013 -844 
L 513 -844 
Q 928 -128 1133 580 
Q 1338 1288 1338 2009 
Q 1338 2731 1133 3434 
Q 928 4138 513 4856 
z
" transform="scale(0.015625)"/>
      </defs>
      <use xlink:href="#DejaVuSans-54"/>
      <use xlink:href="#DejaVuSans-69" x="57.958984"/>
      <use xlink:href="#DejaVuSans-6d" x="85.742188"/>
      <use xlink:href="#DejaVuSans-65" x="183.154297"/>
      <use xlink:href="#DejaVuSans-73" x="244.677734"/>
      <use xlink:href="#DejaVuSans-74" x="296.777344"/>
      <use xlink:href="#DejaVuSans-65" x="335.986328"/>
      <use xlink:href="#DejaVuSans-70" x="397.509766"/>
      <use xlink:href="#DejaVuSans-73" x="460.986328"/>
      <use xlink:href="#DejaVuSans-20" x="513.085938"/>
      <use xlink:href="#DejaVuSans-28" x="544.873047"/>
      <use xlink:href="#DejaVuSans-69" x="583.886719"/>
      <use xlink:href="#DejaVuSans-6e" x="611.669922"/>
      <use xlink:href="#DejaVuSans-20" x="675.048828"/>
      <use xlink:href="#DejaVuSans-4d" x="706.835938"/>
      <use xlink:href="#DejaVuSans-69" x="793.115234"/>
      <use xlink:href="#DejaVuSans-6c" x="820.898438"/>
      <use xlink:href="#DejaVuSans-6c" x="848.681641"/>
      <use xlink:href="#DejaVuSans-69" x="876.464844"/>
      <use xlink:href="#DejaVuSans-6f" x="904.248047"/>
      <use xlink:href="#DejaVuSans-6e" x="965.429688"/>
      <use xlink:href="#DejaVuSans-29" x="1028.808594"/>
     </g>
    </g>
   </g>
   <g id="matplotlib.axis_2">
    <g id="ytick_1">
     <g id="line2d_8">
      <path d="M 67.86 282.619091 
L 447.84 282.619091 
" clip-path="url(#p23dc2bebb3)" style="fill: none; stroke: #ffffff; stroke-linecap: round"/>
     </g>
     <g id="text_9">
      <!-- 0 -->
      <g style="fill: #262626" transform="translate(51.36125 286.798232)scale(0.11 -0.11)">
       <use xlink:href="#DejaVuSans-30"/>
      </g>
     </g>
    </g>
    <g id="ytick_2">
     <g id="line2d_9">
      <path d="M 67.86 234.378269 
L 447.84 234.378269 
" clip-path="url(#p23dc2bebb3)" style="fill: none; stroke: #ffffff; stroke-linecap: round"/>
     </g>
     <g id="text_10">
      <!-- 500 -->
      <g style="fill: #262626" transform="translate(37.36375 238.55741)scale(0.11 -0.11)">
       <use xlink:href="#DejaVuSans-35"/>
       <use xlink:href="#DejaVuSans-30" x="63.623047"/>
       <use xlink:href="#DejaVuSans-30" x="127.246094"/>
      </g>
     </g>
    </g>
    <g id="ytick_3">
     <g id="line2d_10">
      <path d="M 67.86 186.137448 
L 447.84 186.137448 
" clip-path="url(#p23dc2bebb3)" style="fill: none; stroke: #ffffff; stroke-linecap: round"/>
     </g>
     <g id="text_11">
      <!-- 1000 -->
      <g style="fill: #262626" transform="translate(30.365 190.316588)scale(0.11 -0.11)">
       <use xlink:href="#DejaVuSans-31"/>
       <use xlink:href="#DejaVuSans-30" x="63.623047"/>
       <use xlink:href="#DejaVuSans-30" x="127.246094"/>
       <use xlink:href="#DejaVuSans-30" x="190.869141"/>
      </g>
     </g>
    </g>
    <g id="ytick_4">
     <g id="line2d_11">
      <path d="M 67.86 137.896626 
L 447.84 137.896626 
" clip-path="url(#p23dc2bebb3)" style="fill: none; stroke: #ffffff; stroke-linecap: round"/>
     </g>
     <g id="text_12">
      <!-- 1500 -->
      <g style="fill: #262626" transform="translate(30.365 142.075766)scale(0.11 -0.11)">
       <use xlink:href="#DejaVuSans-31"/>
       <use xlink:href="#DejaVuSans-35" x="63.623047"/>
       <use xlink:href="#DejaVuSans-30" x="127.246094"/>
       <use xlink:href="#DejaVuSans-30" x="190.869141"/>
      </g>
     </g>
    </g>
    <g id="ytick_5">
     <g id="line2d_12">
      <path d="M 67.86 89.655804 
L 447.84 89.655804 
" clip-path="url(#p23dc2bebb3)" style="fill: none; stroke: #ffffff; stroke-linecap: round"/>
     </g>
     <g id="text_13">
      <!-- 2000 -->
      <g style="fill: #262626" transform="translate(30.365 93.834945)scale(0.11 -0.11)">
       <use xlink:href="#DejaVuSans-32"/>
       <use xlink:href="#DejaVuSans-30" x="63.623047"/>
       <use xlink:href="#DejaVuSans-30" x="127.246094"/>
       <use xlink:href="#DejaVuSans-30" x="190.869141"/>
      </g>
     </g>
    </g>
    <g id="ytick_6">
     <g id="line2d_13">
      <path d="M 67.86 41.414983 
L 447.84 41.414983 
" clip-path="url(#p23dc2bebb3)" style="fill: none; stroke: #ffffff; stroke-linecap: round"/>
     </g>
     <g id="text_14">
      <!-- 2500 -->
      <g style="fill: #262626" transform="translate(30.365 45.594123)scale(0.11 -0.11)">
       <use xlink:href="#DejaVuSans-32"/>
       <use xlink:href="#DejaVuSans-35" x="63.623047"/>
       <use xlink:href="#DejaVuSans-30" x="127.246094"/>
       <use xlink:href="#DejaVuSans-30" x="190.869141"/>
      </g>
     </g>
    </g>
    <g id="text_15">
     <!-- # Highs (Δx &gt; 20) -->
     <g style="fill: #262626" transform="translate(23.453438 225.877187)rotate(-90)scale(0.14 -0.14)">
      <defs>
       <path id="DejaVuSans-23" d="M 3272 2816 
L 2363 2816 
L 2100 1772 
L 3016 1772 
L 3272 2816 
z
M 2803 4594 
L 2478 3297 
L 3391 3297 
L 3719 4594 
L 4219 4594 
L 3897 3297 
L 4872 3297 
L 4872 2816 
L 3775 2816 
L 3519 1772 
L 4513 1772 
L 4513 1294 
L 3397 1294 
L 3072 0 
L 2572 0 
L 2894 1294 
L 1978 1294 
L 1656 0 
L 1153 0 
L 1478 1294 
L 494 1294 
L 494 1772 
L 1594 1772 
L 1856 2816 
L 850 2816 
L 850 3297 
L 1978 3297 
L 2297 4594 
L 2803 4594 
z
" transform="scale(0.015625)"/>
       <path id="DejaVuSans-48" d="M 628 4666 
L 1259 4666 
L 1259 2753 
L 3553 2753 
L 3553 4666 
L 4184 4666 
L 4184 0 
L 3553 0 
L 3553 2222 
L 1259 2222 
L 1259 0 
L 628 0 
L 628 4666 
z
" transform="scale(0.015625)"/>
       <path id="DejaVuSans-67" d="M 2906 1791 
Q 2906 2416 2648 2759 
Q 2391 3103 1925 3103 
Q 1463 3103 1205 2759 
Q 947 2416 947 1791 
Q 947 1169 1205 825 
Q 1463 481 1925 481 
Q 2391 481 2648 825 
Q 2906 1169 2906 1791 
z
M 3481 434 
Q 3481 -459 3084 -895 
Q 2688 -1331 1869 -1331 
Q 1566 -1331 1297 -1286 
Q 1028 -1241 775 -1147 
L 775 -588 
Q 1028 -725 1275 -790 
Q 1522 -856 1778 -856 
Q 2344 -856 2625 -561 
Q 2906 -266 2906 331 
L 2906 616 
Q 2728 306 2450 153 
Q 2172 0 1784 0 
Q 1141 0 747 490 
Q 353 981 353 1791 
Q 353 2603 747 3093 
Q 1141 3584 1784 3584 
Q 2172 3584 2450 3431 
Q 2728 3278 2906 2969 
L 2906 3500 
L 3481 3500 
L 3481 434 
z
" transform="scale(0.015625)"/>
       <path id="DejaVuSans-68" d="M 3513 2113 
L 3513 0 
L 2938 0 
L 2938 2094 
Q 2938 2591 2744 2837 
Q 2550 3084 2163 3084 
Q 1697 3084 1428 2787 
Q 1159 2491 1159 1978 
L 1159 0 
L 581 0 
L 581 4863 
L 1159 4863 
L 1159 2956 
Q 1366 3272 1645 3428 
Q 1925 3584 2291 3584 
Q 2894 3584 3203 3211 
Q 3513 2838 3513 2113 
z
" transform="scale(0.015625)"/>
       <path id="DejaVuSans-394" d="M 2188 4044 
L 906 525 
L 3472 525 
L 2188 4044 
z
M 50 0 
L 1831 4666 
L 2547 4666 
L 4325 0 
L 50 0 
z
" transform="scale(0.015625)"/>
       <path id="DejaVuSans-78" d="M 3513 3500 
L 2247 1797 
L 3578 0 
L 2900 0 
L 1881 1375 
L 863 0 
L 184 0 
L 1544 1831 
L 300 3500 
L 978 3500 
L 1906 2253 
L 2834 3500 
L 3513 3500 
z
" transform="scale(0.015625)"/>
       <path id="DejaVuSans-3e" d="M 678 3150 
L 678 3719 
L 4684 2266 
L 4684 1747 
L 678 294 
L 678 863 
L 3897 2003 
L 678 3150 
z
" transform="scale(0.015625)"/>
      </defs>
      <use xlink:href="#DejaVuSans-23"/>
      <use xlink:href="#DejaVuSans-20" x="83.789062"/>
      <use xlink:href="#DejaVuSans-48" x="115.576172"/>
      <use xlink:href="#DejaVuSans-69" x="190.771484"/>
      <use xlink:href="#DejaVuSans-67" x="218.554688"/>
      <use xlink:href="#DejaVuSans-68" x="282.03125"/>
      <use xlink:href="#DejaVuSans-73" x="345.410156"/>
      <use xlink:href="#DejaVuSans-20" x="397.509766"/>
      <use xlink:href="#DejaVuSans-28" x="429.296875"/>
      <use xlink:href="#DejaVuSans-394" x="468.310547"/>
      <use xlink:href="#DejaVuSans-78" x="536.71875"/>
      <use xlink:href="#DejaVuSans-20" x="595.898438"/>
      <use xlink:href="#DejaVuSans-3e" x="627.685547"/>
      <use xlink:href="#DejaVuSans-20" x="711.474609"/>
      <use xlink:href="#DejaVuSans-32" x="743.261719"/>
      <use xlink:href="#DejaVuSans-30" x="806.884766"/>
      <use xlink:href="#DejaVuSans-29" x="870.507812"/>
     </g>
    </g>
   </g>
   <g id="PolyCollection_1">
    <defs>
     <path id="m27622905c4" d="M 85.131818 -64.81406 
L 85.131818 -152.708837 
L 88.034645 -269.741071 
L 90.937471 -193.810017 
L 93.840298 -183.679445 
L 96.743125 -209.24708 
L 99.645951 -139.104926 
L 102.548778 -277.073676 
L 105.451604 -75.620004 
L 108.354431 -86.136503 
L 111.257257 -263.373282 
L 114.160084 -90.381696 
L 117.062911 -212.238011 
L 119.965737 -263.276801 
L 122.868564 -108.134318 
L 125.77139 -153.770135 
L 128.674217 -203.458182 
L 131.577044 -244.945288 
L 134.47987 -205.001888 
L 137.382697 -111.704139 
L 140.285523 -212.816901 
L 143.18835 -104.853942 
L 146.091176 -226.517295 
L 148.994003 -273.117928 
L 151.89683 -266.75014 
L 154.799656 -200.563733 
L 157.702483 -211.659122 
L 160.605309 -105.91524 
L 163.508136 -66.261285 
L 166.410963 -205.966705 
L 169.313789 -208.668191 
L 172.216616 -242.919174 
L 175.119442 -212.527456 
L 178.022269 -273.889781 
L 180.925095 -70.988885 
L 183.827922 -149.621425 
L 186.730749 -146.919939 
L 189.633575 -258.5492 
L 192.536402 -125.018606 
L 195.439228 -157.629401 
L 198.342055 -296.562968 
L 201.244882 -220.728396 
L 204.147708 -278.617382 
L 207.050535 -278.617382 
L 209.953361 -156.568103 
L 212.856188 -189.564825 
L 215.759015 -261.443649 
L 218.661841 -208.957635 
L 221.564668 -233.560455 
L 224.467494 -75.137596 
L 227.370321 -66.454248 
L 230.273147 -148.946053 
L 233.175974 -67.804991 
L 236.078801 -164.093671 
L 238.981627 -182.714628 
L 241.884454 -260.86476 
L 244.78728 -86.329467 
L 247.690107 -188.214082 
L 250.592934 -270.223479 
L 253.49576 -119.326189 
L 256.398587 -67.033138 
L 259.301413 -185.995004 
L 262.20424 -66.55073 
L 265.107066 -97.907264 
L 268.009893 -211.369677 
L 270.91272 -152.322911 
L 273.815546 -256.426604 
L 276.718373 -216.29024 
L 279.621199 -251.023632 
L 282.524026 -68.673326 
L 285.426853 -91.250031 
L 288.329679 -207.028003 
L 291.232506 -184.161853 
L 294.135332 -150.200315 
L 297.038159 -69.734624 
L 299.940985 -147.112902 
L 302.843812 -272.924965 
L 305.746639 -233.849899 
L 308.649465 -195.257242 
L 311.552292 -182.135739 
L 314.455118 -301.097605 
L 317.357945 -146.534012 
L 320.260772 -211.466158 
L 323.163598 -211.852085 
L 326.066425 -283.152019 
L 328.969251 -108.2308 
L 331.872078 -227.482111 
L 334.774905 -247.164366 
L 337.677731 -139.780297 
L 340.580558 -106.108204 
L 343.483384 -279.775162 
L 346.386211 -240.31417 
L 349.289037 -152.322911 
L 352.191864 -278.617382 
L 355.094691 -272.346075 
L 357.997517 -262.601429 
L 360.900344 -265.785323 
L 363.80317 -230.280079 
L 366.705997 -257.005494 
L 369.608824 -106.783575 
L 372.51165 -272.05663 
L 375.414477 -249.383444 
L 378.317303 -285.081652 
L 381.22013 -206.642076 
L 384.122956 -303.799091 
L 387.025783 -270.705887 
L 389.92861 -279.196272 
L 392.831436 -267.90792 
L 395.734263 -66.068322 
L 398.637089 -255.558269 
L 401.539916 -289.326844 
L 404.442743 -280.161088 
L 407.345569 -261.347168 
L 410.248396 -289.037399 
L 413.151222 -266.267732 
L 416.054049 -284.792207 
L 418.956875 -279.003309 
L 421.859702 -283.344983 
L 424.762529 -274.565153 
L 427.665355 -276.012378 
L 430.568182 -178.372955 
L 430.568182 -64.138689 
L 430.568182 -64.138689 
L 427.665355 -63.945726 
L 424.762529 -62.980909 
L 421.859702 -63.656281 
L 418.956875 -67.515546 
L 416.054049 -62.980909 
L 413.151222 -63.945726 
L 410.248396 -63.945726 
L 407.345569 -64.042207 
L 404.442743 -63.945726 
L 401.539916 -63.945726 
L 398.637089 -65.39295 
L 395.734263 -63.270354 
L 392.831436 -64.428134 
L 389.92861 -64.042207 
L 387.025783 -63.945726 
L 384.122956 -194.002981 
L 381.22013 -63.945726 
L 378.317303 -63.077391 
L 375.414477 -64.042207 
L 372.51165 -64.331652 
L 369.608824 -62.980909 
L 366.705997 -63.945726 
L 363.80317 -64.23517 
L 360.900344 -64.138689 
L 357.997517 -65.875358 
L 355.094691 -63.945726 
L 352.191864 -62.980909 
L 349.289037 -64.23517 
L 346.386211 -63.945726 
L 343.483384 -66.068322 
L 340.580558 -64.042207 
L 337.677731 -67.997955 
L 334.774905 -65.103505 
L 331.872078 -64.042207 
L 328.969251 -66.164803 
L 326.066425 -66.164803 
L 323.163598 -64.910542 
L 320.260772 -66.357767 
L 317.357945 -63.945726 
L 314.455118 -64.428134 
L 311.552292 -64.524615 
L 308.649465 -65.103505 
L 305.746639 -64.910542 
L 302.843812 -64.042207 
L 299.940985 -64.042207 
L 297.038159 -65.007024 
L 294.135332 -65.875358 
L 291.232506 -65.489432 
L 288.329679 -63.945726 
L 285.426853 -64.81406 
L 282.524026 -65.007024 
L 279.621199 -63.945726 
L 276.718373 -63.945726 
L 273.815546 -65.778877 
L 270.91272 -63.945726 
L 268.009893 -65.875358 
L 265.107066 -65.97184 
L 262.20424 -64.910542 
L 259.301413 -65.875358 
L 256.398587 -64.042207 
L 253.49576 -65.875358 
L 250.592934 -65.875358 
L 247.690107 -64.910542 
L 244.78728 -64.042207 
L 241.884454 -66.261285 
L 238.981627 -66.454248 
L 236.078801 -65.007024 
L 233.175974 -65.103505 
L 230.273147 -64.910542 
L 227.370321 -65.007024 
L 224.467494 -64.910542 
L 221.564668 -65.007024 
L 218.661841 -64.910542 
L 215.759015 -65.007024 
L 212.856188 -65.103505 
L 209.953361 -64.138689 
L 207.050535 -64.910542 
L 204.147708 -64.910542 
L 201.244882 -65.007024 
L 198.342055 -65.007024 
L 195.439228 -65.103505 
L 192.536402 -64.910542 
L 189.633575 -65.007024 
L 186.730749 -64.910542 
L 183.827922 -65.007024 
L 180.925095 -64.042207 
L 178.022269 -64.910542 
L 175.119442 -65.007024 
L 172.216616 -65.007024 
L 169.313789 -65.007024 
L 166.410963 -65.875358 
L 163.508136 -64.910542 
L 160.605309 -66.840175 
L 157.702483 -64.910542 
L 154.799656 -64.717579 
L 151.89683 -65.489432 
L 148.994003 -65.875358 
L 146.091176 -64.910542 
L 143.18835 -65.007024 
L 140.285523 -65.97184 
L 137.382697 -65.103505 
L 134.47987 -64.910542 
L 131.577044 -65.103505 
L 128.674217 -65.007024 
L 125.77139 -64.81406 
L 122.868564 -64.910542 
L 119.965737 -64.910542 
L 117.062911 -65.103505 
L 114.160084 -64.23517 
L 111.257257 -65.199987 
L 108.354431 -65.103505 
L 105.451604 -65.97184 
L 102.548778 -65.199987 
L 99.645951 -65.296469 
L 96.743125 -64.717579 
L 93.840298 -64.138689 
L 90.937471 -66.068322 
L 88.034645 -64.042207 
L 85.131818 -64.81406 
z
" style="stroke: #ffffff; stroke-opacity: 0.5"/>
    </defs>
    <g clip-path="url(#p23dc2bebb3)">
     <use xlink:href="#m27622905c4" x="0" y="345.6" style="fill: #4c72b0; fill-opacity: 0.5; stroke: #ffffff; stroke-opacity: 0.5"/>
    </g>
   </g>
   <g id="PolyCollection_2">
    <defs>
     <path id="m32555f88f4" d="M 85.131818 -147.846163 
L 85.131818 -187.808859 
L 88.034645 -167.56701 
L 90.937471 -184.779336 
L 93.840298 -172.969983 
L 96.743125 -239.619502 
L 99.645951 -259.205275 
L 102.548778 -280.759274 
L 105.451604 -264.531062 
L 108.354431 -271.361962 
L 111.257257 -289.442622 
L 114.160084 -231.765896 
L 117.062911 -257.294939 
L 119.965737 -245.138252 
L 122.868564 -226.768147 
L 125.77139 -229.720485 
L 128.674217 -251.448151 
L 131.577044 -227.482111 
L 134.47987 -233.000861 
L 137.382697 -250.714891 
L 140.285523 -226.613776 
L 143.18835 -219.242579 
L 146.091176 -198.537618 
L 148.994003 -225.224441 
L 151.89683 -236.030385 
L 154.799656 -264.06795 
L 157.702483 -218.798763 
L 160.605309 -188.850861 
L 163.508136 -219.146097 
L 166.410963 -220.844174 
L 169.313789 -212.257308 
L 172.216616 -189.796381 
L 175.119442 -208.706783 
L 178.022269 -201.972365 
L 180.925095 -211.813492 
L 183.827922 -195.565983 
L 186.730749 -204.693147 
L 189.633575 -190.394567 
L 192.536402 -212.585345 
L 195.439228 -177.311656 
L 198.342055 -210.501342 
L 201.244882 -175.18906 
L 204.147708 -192.401385 
L 207.050535 -232.132526 
L 209.953361 -219.416246 
L 212.856188 -177.041508 
L 215.759015 -189.64201 
L 218.661841 -187.866748 
L 221.564668 -159.559034 
L 224.467494 -215.171053 
L 227.370321 -199.193693 
L 230.273147 -183.60226 
L 233.175974 -170.133422 
L 236.078801 -172.159537 
L 238.981627 -184.972299 
L 241.884454 -208.591005 
L 244.78728 -211.080232 
L 247.690107 -199.483138 
L 250.592934 -215.151757 
L 253.49576 -181.267404 
L 256.398587 -162.685039 
L 259.301413 -191.417273 
L 262.20424 -207.336744 
L 265.107066 -239.619502 
L 268.009893 -179.337771 
L 270.91272 -228.080297 
L 273.815546 -241.935061 
L 276.718373 -237.767054 
L 279.621199 -205.040481 
L 282.524026 -195.450205 
L 285.426853 -195.990503 
L 288.329679 -194.022277 
L 291.232506 -237.84424 
L 294.135332 -211.215306 
L 297.038159 -194.774834 
L 299.940985 -198.78847 
L 302.843812 -213.627347 
L 305.746639 -222.677325 
L 308.649465 -215.016683 
L 311.552292 -210.192601 
L 314.455118 -196.704467 
L 317.357945 -224.259624 
L 320.260772 -215.171053 
L 323.163598 -228.929336 
L 326.066425 -208.050708 
L 328.969251 -175.710061 
L 331.872078 -194.697649 
L 334.774905 -214.457089 
L 337.677731 -193.790721 
L 340.580558 -205.001888 
L 343.483384 -176.057395 
L 346.386211 -169.863274 
L 349.289037 -200.139213 
L 352.191864 -183.911001 
L 355.094691 -166.910935 
L 357.997517 -176.038099 
L 360.900344 -169.728199 
L 363.80317 -198.248173 
L 366.705997 -212.816901 
L 369.608824 -190.684012 
L 372.51165 -184.181149 
L 375.414477 -210.906565 
L 378.317303 -211.446862 
L 381.22013 -184.026779 
L 384.122956 -176.404729 
L 387.025783 -188.600009 
L 389.92861 -171.715721 
L 392.831436 -199.039323 
L 395.734263 -206.950817 
L 398.637089 -202.975774 
L 401.539916 -195.199353 
L 404.442743 -185.975708 
L 407.345569 -206.564891 
L 410.248396 -182.907592 
L 413.151222 -185.416115 
L 416.054049 -180.881477 
L 418.956875 -196.955319 
L 421.859702 -177.060804 
L 424.762529 -179.125511 
L 427.665355 -193.096053 
L 430.568182 -182.598851 
L 430.568182 -96.189891 
L 430.568182 -96.189891 
L 427.665355 -111.819917 
L 424.762529 -120.94708 
L 421.859702 -127.04472 
L 418.956875 -115.775664 
L 416.054049 -116.701888 
L 413.151222 -119.712115 
L 410.248396 -109.735913 
L 407.345569 -90.690437 
L 404.442743 -87.911766 
L 401.539916 -113.498698 
L 398.637089 -105.645092 
L 395.734263 -96.517928 
L 392.831436 -90.227325 
L 389.92861 -131.154838 
L 387.025783 -124.304642 
L 384.122956 -96.03552 
L 381.22013 -118.380669 
L 378.317303 -112.765437 
L 375.414477 -123.976604 
L 372.51165 -85.383947 
L 369.608824 -99.759712 
L 366.705997 -109.813099 
L 363.80317 -105.510017 
L 360.900344 -111.762028 
L 357.997517 -143.311525 
L 355.094691 -124.459012 
L 352.191864 -146.707679 
L 349.289037 -91.46229 
L 346.386211 -112.456696 
L 343.483384 -95.630297 
L 340.580558 -121.197933 
L 337.677731 -103.889126 
L 334.774905 -95.475927 
L 331.872078 -102.885717 
L 328.969251 -97.251189 
L 326.066425 -79.344196 
L 323.163598 -108.886875 
L 320.260772 -94.858444 
L 317.357945 -90.323807 
L 314.455118 -111.241027 
L 311.552292 -93.063885 
L 308.649465 -105.780166 
L 305.746639 -93.739257 
L 302.843812 -90.536066 
L 299.940985 -117.338667 
L 297.038159 -88.780101 
L 294.135332 -89.339694 
L 291.232506 -127.430647 
L 288.329679 -110.893693 
L 285.426853 -94.125184 
L 282.524026 -94.935629 
L 279.621199 -114.038995 
L 276.718373 -122.31712 
L 273.815546 -108.693912 
L 270.91272 -121.004969 
L 268.009893 -87.873173 
L 265.107066 -110.739323 
L 262.20424 -110.063951 
L 259.301413 -90.053658 
L 256.398587 -110.527063 
L 253.49576 -110.642841 
L 250.592934 -85.403243 
L 247.690107 -99.528156 
L 244.78728 -84.071796 
L 241.884454 -103.792644 
L 238.981627 -76.372561 
L 236.078801 -78.379379 
L 233.175974 -75.504226 
L 230.273147 -64.910542 
L 227.370321 -82.74035 
L 224.467494 -82.701757 
L 221.564668 -85.326058 
L 218.661841 -68.07514 
L 215.759015 -79.209122 
L 212.856188 -99.277303 
L 209.953361 -98.659821 
L 207.050535 -89.127434 
L 204.147708 -75.195485 
L 201.244882 -77.395267 
L 198.342055 -86.773282 
L 195.439228 -107.709799 
L 192.536402 -108.307985 
L 189.633575 -122.915306 
L 186.730749 -91.635957 
L 183.827922 -115.486219 
L 180.925095 -93.739257 
L 178.022269 -114.289847 
L 175.119442 -76.912858 
L 172.216616 -164.286635 
L 169.313789 -141.613448 
L 166.410963 -151.936984 
L 163.508136 -146.64979 
L 160.605309 -153.480691 
L 157.702483 -155.236656 
L 154.799656 -163.958597 
L 151.89683 -186.921228 
L 148.994003 -144.700861 
L 146.091176 -117.010629 
L 143.18835 -158.517032 
L 140.285523 -136.229773 
L 137.382697 -173.143649 
L 134.47987 -136.40344 
L 131.577044 -186.033597 
L 128.674217 -168.57042 
L 125.77139 -189.333269 
L 122.868564 -164.344524 
L 119.965737 -160.851888 
L 117.062911 -180.611329 
L 114.160084 -194.466093 
L 111.257257 -236.454904 
L 108.354431 -239.002019 
L 105.451604 -237.072386 
L 102.548778 -182.251517 
L 99.645951 -220.612618 
L 96.743125 -188.966639 
L 93.840298 -134.628177 
L 90.937471 -136.442032 
L 88.034645 -133.586176 
L 85.131818 -147.846163 
z
" style="stroke: #ffffff; stroke-opacity: 0.5"/>
    </defs>
    <g clip-path="url(#p23dc2bebb3)">
     <use xlink:href="#m32555f88f4" x="0" y="345.6" style="fill: #dd8452; fill-opacity: 0.5; stroke: #ffffff; stroke-opacity: 0.5"/>
    </g>
   </g>
   <g id="PolyCollection_3">
    <defs>
     <path id="ma4eeaef451" d="M 85.131818 -133.084471 
L 85.131818 -168.126604 
L 88.034645 -184.33552 
L 90.937471 -176.945026 
L 93.840298 -188.271971 
L 96.743125 -254.304008 
L 99.645951 -249.730778 
L 102.548778 -251.235892 
L 105.451604 -283.287094 
L 108.354431 -262.659318 
L 111.257257 -275.394895 
L 114.160084 -249.769371 
L 117.062911 -243.671731 
L 119.965737 -233.714825 
L 122.868564 -220.651211 
L 125.77139 -228.582002 
L 128.674217 -221.616027 
L 131.577044 -241.163208 
L 134.47987 -263.083837 
L 137.382697 -277.999899 
L 140.285523 -183.409296 
L 143.18835 -245.138252 
L 146.091176 -215.267535 
L 148.994003 -190.915568 
L 151.89683 -191.397976 
L 154.799656 -212.87479 
L 157.702483 -239.542316 
L 160.605309 -207.93493 
L 163.508136 -147.247976 
L 166.410963 -162.723632 
L 169.313789 -154.117469 
L 172.216616 -236.609274 
L 175.119442 -143.755341 
L 178.022269 -195.102872 
L 180.925095 -196.665874 
L 183.827922 -139.664519 
L 186.730749 -138.352369 
L 189.633575 -159.173108 
L 192.536402 -162.337705 
L 195.439228 -200.660214 
L 198.342055 -167.972233 
L 201.244882 -161.160629 
L 204.147708 -127.449943 
L 207.050535 -135.149178 
L 209.953361 -196.762356 
L 212.856188 -145.163973 
L 215.759015 -146.64979 
L 218.661841 -135.515809 
L 221.564668 -151.551058 
L 224.467494 -148.425052 
L 227.370321 -104.776757 
L 230.273147 -150.181018 
L 233.175974 -127.025424 
L 236.078801 -129.900577 
L 238.981627 -160.890481 
L 241.884454 -151.917688 
L 244.78728 -128.298982 
L 247.690107 -129.14802 
L 250.592934 -118.457854 
L 253.49576 -114.48281 
L 256.398587 -114.598588 
L 259.301413 -113.90392 
L 262.20424 -157.475031 
L 265.107066 -146.514716 
L 268.009893 -141.420485 
L 270.91272 -115.486219 
L 273.815546 -126.562312 
L 276.718373 -148.444349 
L 279.621199 -142.327413 
L 282.524026 -128.221796 
L 285.426853 -178.971141 
L 288.329679 -154.908619 
L 291.232506 -140.146927 
L 294.135332 -117.628112 
L 297.038159 -117.589519 
L 299.940985 -167.296862 
L 302.843812 -135.149178 
L 305.746639 -136.094698 
L 308.649465 -152.477281 
L 311.552292 -133.123064 
L 314.455118 -125.250162 
L 317.357945 -133.470398 
L 320.260772 -157.185586 
L 323.163598 -131.521469 
L 326.066425 -137.445441 
L 328.969251 -142.597561 
L 331.872078 -111.916399 
L 334.774905 -143.253636 
L 337.677731 -143.23434 
L 340.580558 -108.732504 
L 343.483384 -128.530538 
L 346.386211 -153.094764 
L 349.289037 -118.149113 
L 352.191864 -143.099266 
L 355.094691 -146.842753 
L 357.997517 -110.835804 
L 360.900344 -138.487443 
L 363.80317 -159.038033 
L 366.705997 -130.768912 
L 369.608824 -136.499921 
L 372.51165 -115.85285 
L 375.414477 -127.430647 
L 378.317303 -110.102544 
L 381.22013 -102.634865 
L 384.122956 -151.454576 
L 387.025783 -146.051604 
L 389.92861 -134.898326 
L 392.831436 -172.661241 
L 395.734263 -134.165066 
L 398.637089 -129.225205 
L 401.539916 -130.054948 
L 404.442743 -137.387552 
L 407.345569 -131.077653 
L 410.248396 -107.729095 
L 413.151222 -104.545201 
L 416.054049 -105.510017 
L 418.956875 -114.772255 
L 421.859702 -131.907395 
L 424.762529 -117.589519 
L 427.665355 -115.27396 
L 430.568182 -91.655253 
L 430.568182 -77.761897 
L 430.568182 -77.761897 
L 427.665355 -77.896971 
L 424.762529 -73.671075 
L 421.859702 -73.574594 
L 418.956875 -85.113798 
L 416.054049 -79.016158 
L 413.151222 -87.371469 
L 410.248396 -64.100096 
L 407.345569 -64.273763 
L 404.442743 -95.282963 
L 401.539916 -93.739257 
L 398.637089 -77.626823 
L 395.734263 -88.278396 
L 392.831436 -87.622321 
L 389.92861 -75.735782 
L 387.025783 -78.726713 
L 384.122956 -80.444087 
L 381.22013 -77.047933 
L 378.317303 -71.49059 
L 375.414477 -74.944633 
L 372.51165 -79.884493 
L 369.608824 -82.16146 
L 366.705997 -75.774375 
L 363.80317 -84.669983 
L 360.900344 -99.798304 
L 357.997517 -79.614344 
L 355.094691 -73.053593 
L 352.191864 -73.516705 
L 349.289037 -75.69719 
L 346.386211 -85.017316 
L 343.483384 -77.95486 
L 340.580558 -71.104663 
L 337.677731 -77.80049 
L 334.774905 -92.156958 
L 331.872078 -78.417972 
L 328.969251 -72.937815 
L 326.066425 -68.306696 
L 323.163598 -77.298785 
L 320.260772 -77.163711 
L 317.357945 -77.761897 
L 314.455118 -69.985476 
L 311.552292 -105.336351 
L 308.649465 -78.225009 
L 305.746639 -78.765306 
L 302.843812 -66.068322 
L 299.940985 -84.78576 
L 297.038159 -96.537225 
L 294.135332 -76.79708 
L 291.232506 -83.087684 
L 288.329679 -88.780101 
L 285.426853 -89.976473 
L 282.524026 -68.827697 
L 279.621199 -65.199987 
L 276.718373 -89.108138 
L 273.815546 -81.331718 
L 270.91272 -64.23517 
L 268.009893 -68.152325 
L 265.107066 -74.848151 
L 262.20424 -66.724397 
L 259.301413 -67.187509 
L 256.398587 -80.559865 
L 253.49576 -75.504226 
L 250.592934 -72.301036 
L 247.690107 -69.059253 
L 244.78728 -67.747102 
L 241.884454 -82.16146 
L 238.981627 -64.157985 
L 236.078801 -65.566617 
L 233.175974 -63.675577 
L 230.273147 -77.781193 
L 227.370321 -77.086525 
L 224.467494 -63.598392 
L 221.564668 -67.033138 
L 218.661841 -69.75392 
L 215.759015 -89.78351 
L 212.856188 -75.600708 
L 209.953361 -81.138754 
L 207.050535 -78.938973 
L 204.147708 -76.565524 
L 201.244882 -96.845966 
L 198.342055 -63.772059 
L 195.439228 -87.10132 
L 192.536402 -84.805057 
L 189.633575 -123.764344 
L 186.730749 -70.54507 
L 183.827922 -88.587137 
L 180.925095 -100.280712 
L 178.022269 -83.261351 
L 175.119442 -116.547517 
L 172.216616 -120.21382 
L 169.313789 -120.00156 
L 166.410963 -69.503068 
L 163.508136 -75.002522 
L 160.605309 -78.360083 
L 157.702483 -104.255756 
L 154.799656 -123.745048 
L 151.89683 -132.389803 
L 148.994003 -126.407941 
L 146.091176 -104.545201 
L 143.18835 -68.113733 
L 140.285523 -107.922059 
L 137.382697 -97.77219 
L 134.47987 -72.609777 
L 131.577044 -135.650883 
L 128.674217 -150.316093 
L 125.77139 -107.111613 
L 122.868564 -70.448588 
L 119.965737 -73.092185 
L 117.062911 -186.014301 
L 114.160084 -149.930166 
L 111.257257 -89.879991 
L 108.354431 -180.013142 
L 105.451604 -243.478767 
L 102.548778 -212.199419 
L 99.645951 -189.584122 
L 96.743125 -198.923545 
L 93.840298 -136.538514 
L 90.937471 -152.670245 
L 88.034645 -137.155997 
L 85.131818 -133.084471 
z
" style="stroke: #ffffff; stroke-opacity: 0.5"/>
    </defs>
    <g clip-path="url(#p23dc2bebb3)">
     <use xlink:href="#ma4eeaef451" x="0" y="345.6" style="fill: #55a868; fill-opacity: 0.5; stroke: #ffffff; stroke-opacity: 0.5"/>
    </g>
   </g>
   <g id="PolyCollection_4">
    <defs>
     <path id="m6c980866d1" d="M 85.131818 -109.002653 
L 85.131818 -177.794065 
L 88.034645 -210.018934 
L 90.937471 -196.511503 
L 93.840298 -219.281171 
L 96.743125 -166.891639 
L 99.645951 -265.109952 
L 102.548778 -262.697911 
L 105.451604 -258.5492 
L 108.354431 -279.67868 
L 111.257257 -267.136066 
L 114.160084 -266.17125 
L 117.062911 -248.225664 
L 119.965737 -200.081324 
L 122.868564 -251.795485 
L 125.77139 -203.3617 
L 128.674217 -256.716049 
L 131.577044 -226.22785 
L 134.47987 -242.340284 
L 137.382697 -181.363885 
L 140.285523 -208.475227 
L 143.18835 -146.051604 
L 146.091176 -178.565918 
L 148.994003 -255.944196 
L 151.89683 -225.263033 
L 154.799656 -164.286635 
L 157.702483 -194.195944 
L 160.605309 -144.218453 
L 163.508136 -164.865524 
L 166.410963 -163.128855 
L 169.313789 -142.674747 
L 172.216616 -142.481783 
L 175.119442 -135.631587 
L 178.022269 -82.856128 
L 180.925095 -157.629401 
L 183.827922 -81.119458 
L 186.730749 -66.936656 
L 189.633575 -133.026582 
L 192.536402 -103.406718 
L 195.439228 -79.961678 
L 198.342055 -87.873173 
L 201.244882 -87.004838 
L 204.147708 -87.390765 
L 207.050535 -81.505385 
L 209.953361 -66.936656 
L 212.856188 -106.976538 
L 215.759015 -66.936656 
L 218.661841 -67.419065 
L 221.564668 -103.310236 
L 224.467494 -83.724462 
L 227.370321 -94.819851 
L 230.273147 -105.143387 
L 233.175974 -66.936656 
L 236.078801 -65.875358 
L 238.981627 -67.033138 
L 241.884454 -66.164803 
L 244.78728 -66.068322 
L 247.690107 -66.840175 
L 250.592934 -66.068322 
L 253.49576 -66.936656 
L 256.398587 -66.357767 
L 259.301413 -67.033138 
L 262.20424 -66.068322 
L 265.107066 -67.226101 
L 268.009893 -67.226101 
L 270.91272 -66.068322 
L 273.815546 -65.97184 
L 276.718373 -65.97184 
L 279.621199 -66.743693 
L 282.524026 -67.033138 
L 285.426853 -67.033138 
L 288.329679 -66.068322 
L 291.232506 -67.12962 
L 294.135332 -67.226101 
L 297.038159 -67.033138 
L 299.940985 -66.936656 
L 302.843812 -67.033138 
L 305.746639 -66.164803 
L 308.649465 -67.033138 
L 311.552292 -66.936656 
L 314.455118 -66.936656 
L 317.357945 -65.97184 
L 320.260772 -66.068322 
L 323.163598 -65.97184 
L 326.066425 -67.033138 
L 328.969251 -65.97184 
L 331.872078 -66.068322 
L 334.774905 -67.033138 
L 337.677731 -66.454248 
L 340.580558 -67.804991 
L 343.483384 -66.647212 
L 346.386211 -66.840175 
L 349.289037 -67.033138 
L 352.191864 -67.419065 
L 355.094691 -66.936656 
L 357.997517 -65.97184 
L 360.900344 -67.12962 
L 363.80317 -66.164803 
L 366.705997 -67.033138 
L 369.608824 -66.55073 
L 372.51165 -67.033138 
L 375.414477 -66.936656 
L 378.317303 -66.357767 
L 381.22013 -66.068322 
L 384.122956 -66.164803 
L 387.025783 -65.97184 
L 389.92861 -66.164803 
L 392.831436 -66.261285 
L 395.734263 -67.033138 
L 398.637089 -66.55073 
L 401.539916 -66.164803 
L 404.442743 -67.033138 
L 407.345569 -67.033138 
L 410.248396 -66.936656 
L 413.151222 -66.936656 
L 416.054049 -66.936656 
L 418.956875 -66.068322 
L 421.859702 -67.612028 
L 424.762529 -66.261285 
L 427.665355 -66.068322 
L 430.568182 -65.585913 
L 430.568182 -64.910542 
L 430.568182 -64.910542 
L 427.665355 -65.778877 
L 424.762529 -65.103505 
L 421.859702 -65.199987 
L 418.956875 -63.945726 
L 416.054049 -64.042207 
L 413.151222 -64.138689 
L 410.248396 -65.103505 
L 407.345569 -65.489432 
L 404.442743 -63.077391 
L 401.539916 -64.621097 
L 398.637089 -64.910542 
L 395.734263 -64.042207 
L 392.831436 -64.23517 
L 389.92861 -65.007024 
L 387.025783 -65.007024 
L 384.122956 -63.945726 
L 381.22013 -64.042207 
L 378.317303 -64.428134 
L 375.414477 -65.103505 
L 372.51165 -65.103505 
L 369.608824 -65.296469 
L 366.705997 -64.910542 
L 363.80317 -65.007024 
L 360.900344 -65.007024 
L 357.997517 -64.042207 
L 355.094691 -65.007024 
L 352.191864 -65.103505 
L 349.289037 -64.042207 
L 346.386211 -64.138689 
L 343.483384 -64.910542 
L 340.580558 -64.910542 
L 337.677731 -64.138689 
L 334.774905 -64.910542 
L 331.872078 -65.007024 
L 328.969251 -64.042207 
L 326.066425 -65.103505 
L 323.163598 -65.489432 
L 320.260772 -64.042207 
L 317.357945 -64.910542 
L 314.455118 -64.23517 
L 311.552292 -65.296469 
L 308.649465 -65.007024 
L 305.746639 -65.007024 
L 302.843812 -65.007024 
L 299.940985 -63.945726 
L 297.038159 -65.007024 
L 294.135332 -64.910542 
L 291.232506 -65.007024 
L 288.329679 -64.910542 
L 285.426853 -66.068322 
L 282.524026 -63.945726 
L 279.621199 -65.103505 
L 276.718373 -64.910542 
L 273.815546 -64.428134 
L 270.91272 -64.910542 
L 268.009893 -65.682395 
L 265.107066 -64.910542 
L 262.20424 -63.945726 
L 259.301413 -64.910542 
L 256.398587 -65.007024 
L 253.49576 -65.007024 
L 250.592934 -64.331652 
L 247.690107 -65.007024 
L 244.78728 -64.138689 
L 241.884454 -64.910542 
L 238.981627 -64.042207 
L 236.078801 -64.138689 
L 233.175974 -64.042207 
L 230.273147 -65.007024 
L 227.370321 -65.007024 
L 224.467494 -65.007024 
L 221.564668 -64.910542 
L 218.661841 -64.331652 
L 215.759015 -64.138689 
L 212.856188 -65.39295 
L 209.953361 -64.23517 
L 207.050535 -64.910542 
L 204.147708 -65.103505 
L 201.244882 -65.103505 
L 198.342055 -65.007024 
L 195.439228 -65.97184 
L 192.536402 -66.068322 
L 189.633575 -64.910542 
L 186.730749 -64.910542 
L 183.827922 -64.81406 
L 180.925095 -66.068322 
L 178.022269 -66.647212 
L 175.119442 -65.007024 
L 172.216616 -72.918518 
L 169.313789 -66.840175 
L 166.410963 -80.733531 
L 163.508136 -92.697255 
L 160.605309 -103.310236 
L 157.702483 -98.293191 
L 154.799656 -66.840175 
L 151.89683 -80.347605 
L 148.994003 -86.908357 
L 146.091176 -67.033138 
L 143.18835 -67.515546 
L 140.285523 -66.840175 
L 137.382697 -106.687094 
L 134.47987 -155.410323 
L 131.577044 -87.197802 
L 128.674217 -105.239869 
L 125.77139 -110.353396 
L 122.868564 -123.378418 
L 119.965737 -147.691792 
L 117.062911 -113.440809 
L 114.160084 -128.491945 
L 111.257257 -102.924309 
L 108.354431 -115.080997 
L 105.451604 -186.187968 
L 102.548778 -202.78281 
L 99.645951 -186.187968 
L 96.743125 -115.466923 
L 93.840298 -154.05958 
L 90.937471 -136.113995 
L 88.034645 -125.693977 
L 85.131818 -109.002653 
z
" style="stroke: #ffffff; stroke-opacity: 0.5"/>
    </defs>
    <g clip-path="url(#p23dc2bebb3)">
     <use xlink:href="#m6c980866d1" x="0" y="345.6" style="fill: #c44e52; fill-opacity: 0.5; stroke: #ffffff; stroke-opacity: 0.5"/>
    </g>
   </g>
   <g id="line2d_14">
    <path d="M 85.131818 247.422587 
L 88.034645 214.676718 
L 90.937471 206.437185 
L 93.840298 256.453269 
L 96.743125 241.131984 
L 99.645951 245.685918 
L 102.548778 235.613234 
L 105.451604 277.389786 
L 108.354431 275.228597 
L 111.257257 240.186464 
L 114.160084 271.021997 
L 117.062911 250.702963 
L 119.965737 203.118217 
L 122.868564 271.986814 
L 125.77139 262.164983 
L 128.674217 251.783558 
L 131.577044 243.293173 
L 134.47987 252.188781 
L 137.382697 270.84833 
L 140.285523 243.968545 
L 143.18835 271.620184 
L 146.091176 247.422587 
L 148.994003 237.851608 
L 151.89683 239.183055 
L 154.799656 253.057115 
L 157.702483 231.503116 
L 160.605309 264.769987 
L 163.508136 279.743938 
L 166.410963 251.204668 
L 169.313789 251.416927 
L 172.216616 216.587054 
L 175.119442 250.645074 
L 178.022269 210.161377 
L 180.925095 278.991381 
L 183.827922 262.666687 
L 186.730749 257.939087 
L 189.633575 241.286355 
L 192.536402 267.838103 
L 195.439228 259.502089 
L 198.342055 223.302177 
L 201.244882 248.4067 
L 204.147708 237.330608 
L 207.050535 157.675363 
L 209.953361 262.087797 
L 212.856188 232.988934 
L 215.759015 240.861836 
L 218.661841 248.850516 
L 221.564668 222.279471 
L 224.467494 277.351193 
L 227.370321 279.84042 
L 230.273147 255.218304 
L 233.175974 278.894899 
L 236.078801 260.119572 
L 238.981627 233.316971 
L 241.884454 207.575669 
L 244.78728 275.151412 
L 247.690107 242.907247 
L 250.592934 234.436158 
L 253.49576 262.743872 
L 256.398587 280.187753 
L 259.301413 232.853859 
L 262.20424 279.898309 
L 265.107066 269.74844 
L 268.009893 199.143173 
L 270.91272 262.666687 
L 273.815546 227.836814 
L 276.718373 250.14337 
L 279.621199 242.752876 
L 282.524026 278.373899 
L 285.426853 270.751849 
L 288.329679 251.899336 
L 291.232506 255.66212 
L 294.135332 258.807421 
L 297.038159 278.817714 
L 299.940985 263.515726 
L 302.843812 235.613234 
L 305.746639 243.852767 
L 308.649465 229.399816 
L 311.552292 253.481635 
L 314.455118 190.884344 
L 317.357945 261.798352 
L 320.260772 200.84125 
L 323.163598 250.29774 
L 326.066425 199.915026 
L 328.969251 267.201324 
L 331.872078 218.806132 
L 334.774905 217.320315 
L 337.677731 259.193348 
L 340.580558 270.597478 
L 343.483384 190.594899 
L 346.386211 211.627898 
L 349.289037 259.270533 
L 352.191864 215.062644 
L 355.094691 219.114873 
L 357.997517 229.284038 
L 360.900344 199.68347 
L 363.80317 235.420271 
L 366.705997 230.673374 
L 369.608824 270.211552 
L 372.51165 217.648352 
L 375.414477 210.72097 
L 378.317303 236.172828 
L 381.22013 250.220555 
L 384.122956 81.339087 
L 387.025783 147.429012 
L 389.92861 193.817386 
L 392.831436 204.391774 
L 395.734263 281.171866 
L 398.637089 211.415638 
L 401.539916 231.059301 
L 404.442743 209.466709 
L 407.345569 198.757247 
L 410.248396 160.31896 
L 413.151222 240.109279 
L 416.054049 220.118282 
L 418.956875 183.455258 
L 421.859702 187.565376 
L 424.762529 235.864087 
L 427.665355 162.267889 
L 430.568182 252.651892 
" clip-path="url(#p23dc2bebb3)" style="fill: none; stroke: #4c72b0; stroke-width: 3; stroke-linecap: round"/>
   </g>
   <g id="line2d_15">
    <path d="M 85.131818 183.073191 
L 88.034645 195.855079 
L 90.937471 190.27844 
L 93.840298 195.013759 
L 96.743125 133.971753 
L 99.645951 103.421805 
L 102.548778 98.744375 
L 105.451604 93.35684 
L 108.354431 91.546844 
L 111.257257 84.303003 
L 114.160084 130.718392 
L 117.062911 120.043663 
L 119.965737 154.549358 
L 122.868564 145.750232 
L 125.77139 133.134292 
L 128.674217 134.241901 
L 131.577044 133.67073 
L 134.47987 138.309567 
L 137.382697 141.285061 
L 140.285523 165.015686 
L 143.18835 151.743671 
L 146.091176 184.582163 
L 148.994003 153.912579 
L 151.89683 136.530446 
L 154.799656 129.282745 
L 157.702483 153.738912 
L 160.605309 167.192312 
L 163.508136 163.834751 
L 166.410963 160.427019 
L 169.313789 162.379808 
L 172.216616 169.916954 
L 175.119442 193.608986 
L 178.022269 186.268663 
L 180.925095 198.186075 
L 183.827922 181.405988 
L 186.730749 188.140406 
L 189.633575 190.598759 
L 192.536402 170.25271 
L 195.439228 209.320057 
L 198.342055 179.723348 
L 201.244882 202.539327 
L 204.147708 201.134554 
L 207.050535 176.053186 
L 209.953361 170.457251 
L 212.856188 216.957544 
L 215.759015 203.407662 
L 218.661841 194.257343 
L 221.564668 212.465358 
L 224.467494 198.984943 
L 227.370321 202.384956 
L 230.273147 198.695498 
L 233.175974 211.913483 
L 236.078801 219.114873 
L 238.981627 209.509161 
L 241.884454 193.69389 
L 244.78728 207.977032 
L 247.690107 187.708169 
L 250.592934 200.21219 
L 253.49576 200.258501 
L 256.398587 207.753195 
L 259.301413 207.374987 
L 262.20424 187.055953 
L 265.107066 185.446639 
L 268.009893 197.927504 
L 270.91272 185.612587 
L 273.815546 195.249174 
L 276.718373 164.556434 
L 279.621199 200.077115 
L 282.524026 202.867365 
L 285.426853 195.368811 
L 288.329679 196.607635 
L 291.232506 185.323142 
L 294.135332 187.191027 
L 297.038159 188.518615 
L 299.940985 186.832115 
L 302.843812 184.86389 
L 305.746639 186.828256 
L 308.649465 182.170122 
L 311.552292 189.734283 
L 314.455118 185.43892 
L 317.357945 175.150118 
L 320.260772 182.718138 
L 323.163598 180.958313 
L 326.066425 183.107924 
L 328.969251 201.73274 
L 331.872078 188.182858 
L 334.774905 190.332469 
L 337.677731 196.082775 
L 340.580558 174.374406 
L 343.483384 212.125743 
L 346.386211 210.902356 
L 349.289037 191.95722 
L 352.191864 179.669318 
L 355.094691 198.741809 
L 357.997517 187.001923 
L 360.900344 203.372928 
L 363.80317 202.948409 
L 366.705997 192.069139 
L 369.608824 197.919786 
L 372.51165 205.985651 
L 375.414477 180.881128 
L 378.317303 190.004432 
L 381.22013 198.062579 
L 384.122956 207.683728 
L 387.025783 198.900039 
L 389.92861 185.820988 
L 392.831436 201.030354 
L 395.734263 200.428309 
L 398.637089 193.562675 
L 401.539916 202.134104 
L 404.442743 206.186333 
L 407.345569 202.712994 
L 410.248396 203.554314 
L 413.151222 199.926604 
L 416.054049 204.897338 
L 418.956875 202.894379 
L 421.859702 195.00604 
L 424.762529 194.921136 
L 427.665355 200.127286 
L 430.568182 206.564541 
" clip-path="url(#p23dc2bebb3)" style="fill: none; stroke: #dd8452; stroke-width: 3; stroke-linecap: round"/>
   </g>
   <g id="line2d_16">
    <path d="M 85.131818 193.134296 
L 88.034645 189.452557 
L 90.937471 182.97285 
L 93.840298 183.590332 
L 96.743125 108.647251 
L 99.645951 115.354655 
L 102.548778 110.187098 
L 105.451604 85.00153 
L 108.354431 113.127858 
L 111.257257 132.231224 
L 114.160084 123.740839 
L 117.062911 129.41396 
L 119.965737 163.271298 
L 122.868564 189.402386 
L 125.77139 159.431329 
L 128.674217 161.99774 
L 131.577044 171.904476 
L 134.47987 182.417115 
L 137.382697 133.172885 
L 140.285523 188.904541 
L 143.18835 172.139891 
L 146.091176 196.734991 
L 148.994003 185.064572 
L 151.89683 183.412806 
L 154.799656 174.227753 
L 157.702483 182.274323 
L 160.605309 222.456997 
L 163.508136 234.285647 
L 166.410963 215.799764 
L 169.313789 207.510061 
L 172.216616 172.653173 
L 175.119442 214.939148 
L 178.022269 219.713059 
L 180.925095 211.234253 
L 183.827922 232.240236 
L 186.730749 231.067019 
L 189.633575 204.688938 
L 192.536402 237.901779 
L 195.439228 219.794104 
L 198.342055 237.419371 
L 201.244882 219.087858 
L 204.147708 237.836171 
L 207.050535 240.533798 
L 209.953361 233.633431 
L 212.856188 234.196884 
L 215.759015 233.976906 
L 218.661841 227.041805 
L 221.564668 241.749467 
L 224.467494 240.321538 
L 227.370321 257.892775 
L 230.273147 227.192316 
L 233.175974 262.905962 
L 236.078801 249.676399 
L 238.981627 241.027784 
L 241.884454 239.10201 
L 244.78728 255.102526 
L 247.690107 242.868654 
L 250.592934 241.475459 
L 253.49576 246.450052 
L 256.398587 249.815332 
L 259.301413 255.067793 
L 262.20424 244.613042 
L 265.107066 228.998453 
L 268.009893 238.044572 
L 270.91272 251.281853 
L 273.815546 245.419628 
L 276.718373 228.847941 
L 279.621199 242.158549 
L 282.524026 244.732679 
L 285.426853 225.845433 
L 288.329679 237.951949 
L 291.232506 235.393256 
L 294.135332 245.222806 
L 297.038159 234.362832 
L 299.940985 218.809991 
L 302.843812 239.900878 
L 305.746639 245.963785 
L 308.649465 226.250656 
L 311.552292 224.185948 
L 314.455118 246.453912 
L 317.357945 243.829611 
L 320.260772 248.653693 
L 323.163598 236.149672 
L 326.066425 252.188781 
L 328.969251 227.219331 
L 331.872078 246.808964 
L 334.774905 226.760079 
L 337.677731 231.16736 
L 340.580558 256.491862 
L 343.483384 247.630988 
L 346.386211 238.164209 
L 349.289037 248.761753 
L 352.191864 234.961018 
L 355.094691 233.629572 
L 357.997517 253.373575 
L 360.900344 228.527622 
L 363.80317 228.967579 
L 366.705997 241.764904 
L 369.608824 236.817325 
L 372.51165 256.129091 
L 375.414477 246.210778 
L 378.317303 250.023733 
L 381.22013 257.672797 
L 384.122956 242.544476 
L 387.025783 233.286097 
L 389.92861 249.919532 
L 392.831436 232.79983 
L 395.734263 240.657295 
L 398.637089 248.445293 
L 401.539916 237.697238 
L 404.442743 230.318322 
L 407.345569 254.18788 
L 410.248396 261.624685 
L 413.151222 252.092299 
L 416.054049 255.264615 
L 418.956875 249.892517 
L 421.859702 248.77333 
L 424.762529 252.335433 
L 427.665355 256.333632 
L 430.568182 258.780406 
" clip-path="url(#p23dc2bebb3)" style="fill: none; stroke: #55a868; stroke-width: 3; stroke-linecap: round"/>
   </g>
   <g id="line2d_17">
    <path d="M 85.131818 193.315682 
L 88.034645 177.60847 
L 90.937471 183.300887 
L 93.840298 167.304231 
L 96.743125 199.857137 
L 99.645951 132.763802 
L 102.548778 113.390288 
L 105.451604 130.718392 
L 108.354431 137.87733 
L 111.257257 141.794484 
L 114.160084 134.346101 
L 117.062911 153.873986 
L 119.965737 179.306547 
L 122.868564 175.852504 
L 125.77139 187.623265 
L 128.674217 182.297478 
L 131.577044 193.122719 
L 134.47987 148.70257 
L 137.382697 207.749336 
L 140.285523 220.948024 
L 143.18835 230.441818 
L 146.091176 232.815267 
L 148.994003 182.065922 
L 151.89683 204.295293 
L 154.799656 218.362316 
L 157.702483 210.180673 
L 160.605309 229.284038 
L 163.508136 222.974139 
L 166.410963 232.680192 
L 169.313789 244.914065 
L 172.216616 230.17167 
L 175.119442 248.98559 
L 178.022269 273.74278 
L 180.925095 231.580302 
L 183.827922 274.823374 
L 186.730749 279.84042 
L 189.633575 266.989065 
L 192.536402 267.79951 
L 195.439228 274.148003 
L 198.342055 271.542998 
L 201.244882 271.330739 
L 204.147708 275.556635 
L 207.050535 276.617933 
L 209.953361 280.014087 
L 212.856188 267.934585 
L 215.759015 280.264939 
L 218.661841 279.917605 
L 221.564668 271.986814 
L 224.467494 276.328488 
L 227.370321 273.491927 
L 230.273147 271.85174 
L 233.175974 279.99479 
L 236.078801 280.400013 
L 238.981627 280.071976 
L 241.884454 279.956198 
L 244.78728 280.342124 
L 247.690107 279.608864 
L 250.592934 280.149161 
L 253.49576 279.686049 
L 256.398587 279.84042 
L 259.301413 279.512382 
L 262.20424 280.187753 
L 265.107066 279.608864 
L 268.009893 279.493086 
L 270.91272 280.129865 
L 273.815546 280.284235 
L 276.718373 280.071976 
L 279.621199 279.62816 
L 282.524026 280.187753 
L 285.426853 279.145752 
L 288.329679 280.149161 
L 291.232506 279.956198 
L 294.135332 279.801827 
L 297.038159 279.936901 
L 299.940985 280.245642 
L 302.843812 279.4159 
L 305.746639 279.936901 
L 308.649465 279.570271 
L 311.552292 279.589567 
L 314.455118 280.091272 
L 317.357945 280.014087 
L 320.260772 280.149161 
L 323.163598 279.821123 
L 326.066425 279.917605 
L 328.969251 280.554384 
L 331.872078 280.226346 
L 334.774905 279.647456 
L 337.677731 279.898309 
L 340.580558 279.338715 
L 343.483384 279.99479 
L 346.386211 279.493086 
L 349.289037 279.975494 
L 352.191864 279.589567 
L 355.094691 279.705345 
L 357.997517 280.728051 
L 360.900344 279.917605 
L 363.80317 279.936901 
L 366.705997 279.377308 
L 369.608824 279.62816 
L 372.51165 279.647456 
L 375.414477 279.782531 
L 378.317303 280.091272 
L 381.22013 280.187753 
L 384.122956 280.014087 
L 387.025783 279.99479 
L 389.92861 279.917605 
L 392.831436 280.033383 
L 395.734263 280.149161 
L 398.637089 279.84042 
L 401.539916 280.419309 
L 404.442743 279.801827 
L 407.345569 279.145752 
L 410.248396 279.608864 
L 413.151222 279.782531 
L 416.054049 280.129865 
L 418.956875 280.535087 
L 421.859702 278.991381 
L 424.762529 280.052679 
L 427.665355 279.62816 
L 430.568182 280.36142 
" clip-path="url(#p23dc2bebb3)" style="fill: none; stroke: #c44e52; stroke-width: 3; stroke-linecap: round"/>
   </g>
   <g id="patch_3">
    <path d="M 67.86 294.66 
L 67.86 29.76 
" style="fill: none; stroke: #ffffff; stroke-width: 1.25; stroke-linejoin: miter; stroke-linecap: square"/>
   </g>
   <g id="patch_4">
    <path d="M 447.84 294.66 
L 447.84 29.76 
" style="fill: none; stroke: #ffffff; stroke-width: 1.25; stroke-linejoin: miter; stroke-linecap: square"/>
   </g>
   <g id="patch_5">
    <path d="M 67.86 294.66 
L 447.84 294.66 
" style="fill: none; stroke: #ffffff; stroke-width: 1.25; stroke-linejoin: miter; stroke-linecap: square"/>
   </g>
   <g id="patch_6">
    <path d="M 67.86 29.76 
L 447.84 29.76 
" style="fill: none; stroke: #ffffff; stroke-width: 1.25; stroke-linejoin: miter; stroke-linecap: square"/>
   </g>
   <g id="text_16">
    <!-- zinc-coating-v0 -->
    <g style="fill: #262626" transform="translate(204.491406 23.76)scale(0.14 -0.14)">
     <defs>
      <path id="DejaVuSans-7a" d="M 353 3500 
L 3084 3500 
L 3084 2975 
L 922 459 
L 3084 459 
L 3084 0 
L 275 0 
L 275 525 
L 2438 3041 
L 353 3041 
L 353 3500 
z
" transform="scale(0.015625)"/>
      <path id="DejaVuSans-63" d="M 3122 3366 
L 3122 2828 
Q 2878 2963 2633 3030 
Q 2388 3097 2138 3097 
Q 1578 3097 1268 2742 
Q 959 2388 959 1747 
Q 959 1106 1268 751 
Q 1578 397 2138 397 
Q 2388 397 2633 464 
Q 2878 531 3122 666 
L 3122 134 
Q 2881 22 2623 -34 
Q 2366 -91 2075 -91 
Q 1284 -91 818 406 
Q 353 903 353 1747 
Q 353 2603 823 3093 
Q 1294 3584 2113 3584 
Q 2378 3584 2631 3529 
Q 2884 3475 3122 3366 
z
" transform="scale(0.015625)"/>
      <path id="DejaVuSans-2d" d="M 313 2009 
L 1997 2009 
L 1997 1497 
L 313 1497 
L 313 2009 
z
" transform="scale(0.015625)"/>
      <path id="DejaVuSans-61" d="M 2194 1759 
Q 1497 1759 1228 1600 
Q 959 1441 959 1056 
Q 959 750 1161 570 
Q 1363 391 1709 391 
Q 2188 391 2477 730 
Q 2766 1069 2766 1631 
L 2766 1759 
L 2194 1759 
z
M 3341 1997 
L 3341 0 
L 2766 0 
L 2766 531 
Q 2569 213 2275 61 
Q 1981 -91 1556 -91 
Q 1019 -91 701 211 
Q 384 513 384 1019 
Q 384 1609 779 1909 
Q 1175 2209 1959 2209 
L 2766 2209 
L 2766 2266 
Q 2766 2663 2505 2880 
Q 2244 3097 1772 3097 
Q 1472 3097 1187 3025 
Q 903 2953 641 2809 
L 641 3341 
Q 956 3463 1253 3523 
Q 1550 3584 1831 3584 
Q 2591 3584 2966 3190 
Q 3341 2797 3341 1997 
z
" transform="scale(0.015625)"/>
      <path id="DejaVuSans-76" d="M 191 3500 
L 800 3500 
L 1894 563 
L 2988 3500 
L 3597 3500 
L 2284 0 
L 1503 0 
L 191 3500 
z
" transform="scale(0.015625)"/>
     </defs>
     <use xlink:href="#DejaVuSans-7a"/>
     <use xlink:href="#DejaVuSans-69" x="52.490234"/>
     <use xlink:href="#DejaVuSans-6e" x="80.273438"/>
     <use xlink:href="#DejaVuSans-63" x="143.652344"/>
     <use xlink:href="#DejaVuSans-2d" x="198.632812"/>
     <use xlink:href="#DejaVuSans-63" x="234.716797"/>
     <use xlink:href="#DejaVuSans-6f" x="289.697266"/>
     <use xlink:href="#DejaVuSans-61" x="350.878906"/>
     <use xlink:href="#DejaVuSans-74" x="412.158203"/>
     <use xlink:href="#DejaVuSans-69" x="451.367188"/>
     <use xlink:href="#DejaVuSans-6e" x="479.150391"/>
     <use xlink:href="#DejaVuSans-67" x="542.529297"/>
     <use xlink:href="#DejaVuSans-2d" x="606.005859"/>
     <use xlink:href="#DejaVuSans-76" x="639.464844"/>
     <use xlink:href="#DejaVuSans-30" x="698.644531"/>
    </g>
   </g>
   <g id="legend_1">
    <g id="patch_7">
     <path d="M 194.141953 103.14375 
L 321.558047 103.14375 
Q 323.758047 103.14375 323.758047 100.94375 
L 323.758047 37.46 
Q 323.758047 35.26 321.558047 35.26 
L 194.141953 35.26 
Q 191.941953 35.26 191.941953 37.46 
L 191.941953 100.94375 
Q 191.941953 103.14375 194.141953 103.14375 
z
" style="fill: #eaeaf2; opacity: 0.8; stroke: #cccccc; stroke-linejoin: miter"/>
    </g>
    <g id="line2d_18">
     <path d="M 196.341953 44.168281 
L 207.341953 44.168281 
L 218.341953 44.168281 
" style="fill: none; stroke: #4c72b0; stroke-width: 3; stroke-linecap: round"/>
    </g>
    <g id="text_17">
     <!-- DATS-DELAY-10 -->
     <g style="fill: #262626" transform="translate(227.141953 48.018281)scale(0.11 -0.11)">
      <defs>
       <path id="DejaVuSans-44" d="M 1259 4147 
L 1259 519 
L 2022 519 
Q 2988 519 3436 956 
Q 3884 1394 3884 2338 
Q 3884 3275 3436 3711 
Q 2988 4147 2022 4147 
L 1259 4147 
z
M 628 4666 
L 1925 4666 
Q 3281 4666 3915 4102 
Q 4550 3538 4550 2338 
Q 4550 1131 3912 565 
Q 3275 0 1925 0 
L 628 0 
L 628 4666 
z
" transform="scale(0.015625)"/>
       <path id="DejaVuSans-41" d="M 2188 4044 
L 1331 1722 
L 3047 1722 
L 2188 4044 
z
M 1831 4666 
L 2547 4666 
L 4325 0 
L 3669 0 
L 3244 1197 
L 1141 1197 
L 716 0 
L 50 0 
L 1831 4666 
z
" transform="scale(0.015625)"/>
       <path id="DejaVuSans-53" d="M 3425 4513 
L 3425 3897 
Q 3066 4069 2747 4153 
Q 2428 4238 2131 4238 
Q 1616 4238 1336 4038 
Q 1056 3838 1056 3469 
Q 1056 3159 1242 3001 
Q 1428 2844 1947 2747 
L 2328 2669 
Q 3034 2534 3370 2195 
Q 3706 1856 3706 1288 
Q 3706 609 3251 259 
Q 2797 -91 1919 -91 
Q 1588 -91 1214 -16 
Q 841 59 441 206 
L 441 856 
Q 825 641 1194 531 
Q 1563 422 1919 422 
Q 2459 422 2753 634 
Q 3047 847 3047 1241 
Q 3047 1584 2836 1778 
Q 2625 1972 2144 2069 
L 1759 2144 
Q 1053 2284 737 2584 
Q 422 2884 422 3419 
Q 422 4038 858 4394 
Q 1294 4750 2059 4750 
Q 2388 4750 2728 4690 
Q 3069 4631 3425 4513 
z
" transform="scale(0.015625)"/>
       <path id="DejaVuSans-45" d="M 628 4666 
L 3578 4666 
L 3578 4134 
L 1259 4134 
L 1259 2753 
L 3481 2753 
L 3481 2222 
L 1259 2222 
L 1259 531 
L 3634 531 
L 3634 0 
L 628 0 
L 628 4666 
z
" transform="scale(0.015625)"/>
       <path id="DejaVuSans-4c" d="M 628 4666 
L 1259 4666 
L 1259 531 
L 3531 531 
L 3531 0 
L 628 0 
L 628 4666 
z
" transform="scale(0.015625)"/>
       <path id="DejaVuSans-59" d="M -13 4666 
L 666 4666 
L 1959 2747 
L 3244 4666 
L 3922 4666 
L 2272 2222 
L 2272 0 
L 1638 0 
L 1638 2222 
L -13 4666 
z
" transform="scale(0.015625)"/>
      </defs>
      <use xlink:href="#DejaVuSans-44"/>
      <use xlink:href="#DejaVuSans-41" x="75.251953"/>
      <use xlink:href="#DejaVuSans-54" x="135.910156"/>
      <use xlink:href="#DejaVuSans-53" x="196.994141"/>
      <use xlink:href="#DejaVuSans-2d" x="260.470703"/>
      <use xlink:href="#DejaVuSans-44" x="296.554688"/>
      <use xlink:href="#DejaVuSans-45" x="373.556641"/>
      <use xlink:href="#DejaVuSans-4c" x="436.740234"/>
      <use xlink:href="#DejaVuSans-41" x="494.703125"/>
      <use xlink:href="#DejaVuSans-59" x="555.361328"/>
      <use xlink:href="#DejaVuSans-2d" x="604.570312"/>
      <use xlink:href="#DejaVuSans-31" x="640.654297"/>
      <use xlink:href="#DejaVuSans-30" x="704.277344"/>
     </g>
    </g>
    <g id="line2d_19">
     <path d="M 196.341953 60.314219 
L 207.341953 60.314219 
L 218.341953 60.314219 
" style="fill: none; stroke: #dd8452; stroke-width: 3; stroke-linecap: round"/>
    </g>
    <g id="text_18">
     <!-- SAC-DELAY-10 -->
     <g style="fill: #262626" transform="translate(227.141953 64.164219)scale(0.11 -0.11)">
      <defs>
       <path id="DejaVuSans-43" d="M 4122 4306 
L 4122 3641 
Q 3803 3938 3442 4084 
Q 3081 4231 2675 4231 
Q 1875 4231 1450 3742 
Q 1025 3253 1025 2328 
Q 1025 1406 1450 917 
Q 1875 428 2675 428 
Q 3081 428 3442 575 
Q 3803 722 4122 1019 
L 4122 359 
Q 3791 134 3420 21 
Q 3050 -91 2638 -91 
Q 1578 -91 968 557 
Q 359 1206 359 2328 
Q 359 3453 968 4101 
Q 1578 4750 2638 4750 
Q 3056 4750 3426 4639 
Q 3797 4528 4122 4306 
z
" transform="scale(0.015625)"/>
      </defs>
      <use xlink:href="#DejaVuSans-53"/>
      <use xlink:href="#DejaVuSans-41" x="65.351562"/>
      <use xlink:href="#DejaVuSans-43" x="132.009766"/>
      <use xlink:href="#DejaVuSans-2d" x="201.833984"/>
      <use xlink:href="#DejaVuSans-44" x="237.917969"/>
      <use xlink:href="#DejaVuSans-45" x="314.919922"/>
      <use xlink:href="#DejaVuSans-4c" x="378.103516"/>
      <use xlink:href="#DejaVuSans-41" x="436.066406"/>
      <use xlink:href="#DejaVuSans-59" x="496.724609"/>
      <use xlink:href="#DejaVuSans-2d" x="545.933594"/>
      <use xlink:href="#DejaVuSans-31" x="582.017578"/>
      <use xlink:href="#DejaVuSans-30" x="645.640625"/>
     </g>
    </g>
    <g id="line2d_20">
     <path d="M 196.341953 76.460156 
L 207.341953 76.460156 
L 218.341953 76.460156 
" style="fill: none; stroke: #55a868; stroke-width: 3; stroke-linecap: round"/>
    </g>
    <g id="text_19">
     <!-- SAC-IS-DELAY-10 -->
     <g style="fill: #262626" transform="translate(227.141953 80.310156)scale(0.11 -0.11)">
      <defs>
       <path id="DejaVuSans-49" d="M 628 4666 
L 1259 4666 
L 1259 0 
L 628 0 
L 628 4666 
z
" transform="scale(0.015625)"/>
      </defs>
      <use xlink:href="#DejaVuSans-53"/>
      <use xlink:href="#DejaVuSans-41" x="65.351562"/>
      <use xlink:href="#DejaVuSans-43" x="132.009766"/>
      <use xlink:href="#DejaVuSans-2d" x="201.833984"/>
      <use xlink:href="#DejaVuSans-49" x="237.917969"/>
      <use xlink:href="#DejaVuSans-53" x="267.410156"/>
      <use xlink:href="#DejaVuSans-2d" x="330.886719"/>
      <use xlink:href="#DejaVuSans-44" x="366.970703"/>
      <use xlink:href="#DejaVuSans-45" x="443.972656"/>
      <use xlink:href="#DejaVuSans-4c" x="507.15625"/>
      <use xlink:href="#DejaVuSans-41" x="565.119141"/>
      <use xlink:href="#DejaVuSans-59" x="625.777344"/>
      <use xlink:href="#DejaVuSans-2d" x="674.986328"/>
      <use xlink:href="#DejaVuSans-31" x="711.070312"/>
      <use xlink:href="#DejaVuSans-30" x="774.693359"/>
     </g>
    </g>
    <g id="line2d_21">
     <path d="M 196.341953 92.606094 
L 207.341953 92.606094 
L 218.341953 92.606094 
" style="fill: none; stroke: #c44e52; stroke-width: 3; stroke-linecap: round"/>
    </g>
    <g id="text_20">
     <!-- DCAC-DELAY-10 -->
     <g style="fill: #262626" transform="translate(227.141953 96.456094)scale(0.11 -0.11)">
      <use xlink:href="#DejaVuSans-44"/>
      <use xlink:href="#DejaVuSans-43" x="77.001953"/>
      <use xlink:href="#DejaVuSans-41" x="146.826172"/>
      <use xlink:href="#DejaVuSans-43" x="213.484375"/>
      <use xlink:href="#DejaVuSans-2d" x="283.308594"/>
      <use xlink:href="#DejaVuSans-44" x="319.392578"/>
      <use xlink:href="#DejaVuSans-45" x="396.394531"/>
      <use xlink:href="#DejaVuSans-4c" x="459.578125"/>
      <use xlink:href="#DejaVuSans-41" x="517.541016"/>
      <use xlink:href="#DejaVuSans-59" x="578.199219"/>
      <use xlink:href="#DejaVuSans-2d" x="627.408203"/>
      <use xlink:href="#DejaVuSans-31" x="663.492188"/>
      <use xlink:href="#DejaVuSans-30" x="727.115234"/>
     </g>
    </g>
   </g>
  </g>
 </g>
 <defs>
  <clipPath id="p23dc2bebb3">
   <rect x="67.86" y="29.76" width="379.98" height="264.9"/>
  </clipPath>
 </defs>
</svg>
