<?xml version="1.0" encoding="utf-8" standalone="no"?>
<!DOCTYPE svg PUBLIC "-//W3C//DTD SVG 1.1//EN"
  "http://www.w3.org/Graphics/SVG/1.1/DTD/svg11.dtd">
<svg xmlns:xlink="http://www.w3.org/1999/xlink" width="460.8pt" height="345.6pt" viewBox="0 0 460.8 345.6" xmlns="http://www.w3.org/2000/svg" version="1.1">
 <metadata>
  <rdf:RDF xmlns:dc="http://purl.org/dc/elements/1.1/" xmlns:cc="http://creativecommons.org/ns#" xmlns:rdf="http://www.w3.org/1999/02/22-rdf-syntax-ns#">
   <cc:Work>
    <dc:type rdf:resource="http://purl.org/dc/dcmitype/StillImage"/>
    <dc:date>2022-09-12T15:17:48.420208</dc:date>
    <dc:format>image/svg+xml</dc:format>
    <dc:creator>
     <cc:Agent>
      <dc:title>Matplotlib v3.5.3, https://matplotlib.org/</dc:title>
     </cc:Agent>
    </dc:creator>
   </cc:Work>
  </rdf:RDF>
 </metadata>
 <defs>
  <style type="text/css">*{stroke-linejoin: round; stroke-linecap: butt}</style>
 </defs>
 <g id="figure_1">
  <g id="patch_1">
   <path d="M 0 345.6 
L 460.8 345.6 
L 460.8 0 
L 0 0 
z
" style="fill: #ffffff"/>
  </g>
  <g id="axes_1">
   <g id="patch_2">
    <path d="M 67.86 294.66 
L 447.84 294.66 
L 447.84 12.96 
L 67.86 12.96 
z
" style="fill: #eaeaf2"/>
   </g>
   <g id="matplotlib.axis_1">
    <g id="xtick_1">
     <g id="line2d_1">
      <path d="M 82.228992 294.66 
L 82.228992 12.96 
" clip-path="url(#p032eaca99a)" style="fill: none; stroke: #ffffff; stroke-linecap: round"/>
     </g>
     <g id="text_1">
      <!-- 0.00 -->
      <g style="fill: #262626" transform="translate(69.982898 312.518281)scale(0.11 -0.11)">
       <defs>
        <path id="DejaVuSans-30" d="M 2034 4250 
Q 1547 4250 1301 3770 
Q 1056 3291 1056 2328 
Q 1056 1369 1301 889 
Q 1547 409 2034 409 
Q 2525 409 2770 889 
Q 3016 1369 3016 2328 
Q 3016 3291 2770 3770 
Q 2525 4250 2034 4250 
z
M 2034 4750 
Q 2819 4750 3233 4129 
Q 3647 3509 3647 2328 
Q 3647 1150 3233 529 
Q 2819 -91 2034 -91 
Q 1250 -91 836 529 
Q 422 1150 422 2328 
Q 422 3509 836 4129 
Q 1250 4750 2034 4750 
z
" transform="scale(0.015625)"/>
        <path id="DejaVuSans-2e" d="M 684 794 
L 1344 794 
L 1344 0 
L 684 0 
L 684 794 
z
" transform="scale(0.015625)"/>
       </defs>
       <use xlink:href="#DejaVuSans-30"/>
       <use xlink:href="#DejaVuSans-2e" x="63.623047"/>
       <use xlink:href="#DejaVuSans-30" x="95.410156"/>
       <use xlink:href="#DejaVuSans-30" x="159.033203"/>
      </g>
     </g>
    </g>
    <g id="xtick_2">
     <g id="line2d_2">
      <path d="M 140.285523 294.66 
L 140.285523 12.96 
" clip-path="url(#p032eaca99a)" style="fill: none; stroke: #ffffff; stroke-linecap: round"/>
     </g>
     <g id="text_2">
      <!-- 0.05 -->
      <g style="fill: #262626" transform="translate(128.03943 312.518281)scale(0.11 -0.11)">
       <defs>
        <path id="DejaVuSans-35" d="M 691 4666 
L 3169 4666 
L 3169 4134 
L 1269 4134 
L 1269 2991 
Q 1406 3038 1543 3061 
Q 1681 3084 1819 3084 
Q 2600 3084 3056 2656 
Q 3513 2228 3513 1497 
Q 3513 744 3044 326 
Q 2575 -91 1722 -91 
Q 1428 -91 1123 -41 
Q 819 9 494 109 
L 494 744 
Q 775 591 1075 516 
Q 1375 441 1709 441 
Q 2250 441 2565 725 
Q 2881 1009 2881 1497 
Q 2881 1984 2565 2268 
Q 2250 2553 1709 2553 
Q 1456 2553 1204 2497 
Q 953 2441 691 2322 
L 691 4666 
z
" transform="scale(0.015625)"/>
       </defs>
       <use xlink:href="#DejaVuSans-30"/>
       <use xlink:href="#DejaVuSans-2e" x="63.623047"/>
       <use xlink:href="#DejaVuSans-30" x="95.410156"/>
       <use xlink:href="#DejaVuSans-35" x="159.033203"/>
      </g>
     </g>
    </g>
    <g id="xtick_3">
     <g id="line2d_3">
      <path d="M 198.342055 294.66 
L 198.342055 12.96 
" clip-path="url(#p032eaca99a)" style="fill: none; stroke: #ffffff; stroke-linecap: round"/>
     </g>
     <g id="text_3">
      <!-- 0.10 -->
      <g style="fill: #262626" transform="translate(186.095961 312.518281)scale(0.11 -0.11)">
       <defs>
        <path id="DejaVuSans-31" d="M 794 531 
L 1825 531 
L 1825 4091 
L 703 3866 
L 703 4441 
L 1819 4666 
L 2450 4666 
L 2450 531 
L 3481 531 
L 3481 0 
L 794 0 
L 794 531 
z
" transform="scale(0.015625)"/>
       </defs>
       <use xlink:href="#DejaVuSans-30"/>
       <use xlink:href="#DejaVuSans-2e" x="63.623047"/>
       <use xlink:href="#DejaVuSans-31" x="95.410156"/>
       <use xlink:href="#DejaVuSans-30" x="159.033203"/>
      </g>
     </g>
    </g>
    <g id="xtick_4">
     <g id="line2d_4">
      <path d="M 256.398587 294.66 
L 256.398587 12.96 
" clip-path="url(#p032eaca99a)" style="fill: none; stroke: #ffffff; stroke-linecap: round"/>
     </g>
     <g id="text_4">
      <!-- 0.15 -->
      <g style="fill: #262626" transform="translate(244.152493 312.518281)scale(0.11 -0.11)">
       <use xlink:href="#DejaVuSans-30"/>
       <use xlink:href="#DejaVuSans-2e" x="63.623047"/>
       <use xlink:href="#DejaVuSans-31" x="95.410156"/>
       <use xlink:href="#DejaVuSans-35" x="159.033203"/>
      </g>
     </g>
    </g>
    <g id="xtick_5">
     <g id="line2d_5">
      <path d="M 314.455118 294.66 
L 314.455118 12.96 
" clip-path="url(#p032eaca99a)" style="fill: none; stroke: #ffffff; stroke-linecap: round"/>
     </g>
     <g id="text_5">
      <!-- 0.20 -->
      <g style="fill: #262626" transform="translate(302.209025 312.518281)scale(0.11 -0.11)">
       <defs>
        <path id="DejaVuSans-32" d="M 1228 531 
L 3431 531 
L 3431 0 
L 469 0 
L 469 531 
Q 828 903 1448 1529 
Q 2069 2156 2228 2338 
Q 2531 2678 2651 2914 
Q 2772 3150 2772 3378 
Q 2772 3750 2511 3984 
Q 2250 4219 1831 4219 
Q 1534 4219 1204 4116 
Q 875 4013 500 3803 
L 500 4441 
Q 881 4594 1212 4672 
Q 1544 4750 1819 4750 
Q 2544 4750 2975 4387 
Q 3406 4025 3406 3419 
Q 3406 3131 3298 2873 
Q 3191 2616 2906 2266 
Q 2828 2175 2409 1742 
Q 1991 1309 1228 531 
z
" transform="scale(0.015625)"/>
       </defs>
       <use xlink:href="#DejaVuSans-30"/>
       <use xlink:href="#DejaVuSans-2e" x="63.623047"/>
       <use xlink:href="#DejaVuSans-32" x="95.410156"/>
       <use xlink:href="#DejaVuSans-30" x="159.033203"/>
      </g>
     </g>
    </g>
    <g id="xtick_6">
     <g id="line2d_6">
      <path d="M 372.51165 294.66 
L 372.51165 12.96 
" clip-path="url(#p032eaca99a)" style="fill: none; stroke: #ffffff; stroke-linecap: round"/>
     </g>
     <g id="text_6">
      <!-- 0.25 -->
      <g style="fill: #262626" transform="translate(360.265556 312.518281)scale(0.11 -0.11)">
       <use xlink:href="#DejaVuSans-30"/>
       <use xlink:href="#DejaVuSans-2e" x="63.623047"/>
       <use xlink:href="#DejaVuSans-32" x="95.410156"/>
       <use xlink:href="#DejaVuSans-35" x="159.033203"/>
      </g>
     </g>
    </g>
    <g id="xtick_7">
     <g id="line2d_7">
      <path d="M 430.568182 294.66 
L 430.568182 12.96 
" clip-path="url(#p032eaca99a)" style="fill: none; stroke: #ffffff; stroke-linecap: round"/>
     </g>
     <g id="text_7">
      <!-- 0.30 -->
      <g style="fill: #262626" transform="translate(418.322088 312.518281)scale(0.11 -0.11)">
       <defs>
        <path id="DejaVuSans-33" d="M 2597 2516 
Q 3050 2419 3304 2112 
Q 3559 1806 3559 1356 
Q 3559 666 3084 287 
Q 2609 -91 1734 -91 
Q 1441 -91 1130 -33 
Q 819 25 488 141 
L 488 750 
Q 750 597 1062 519 
Q 1375 441 1716 441 
Q 2309 441 2620 675 
Q 2931 909 2931 1356 
Q 2931 1769 2642 2001 
Q 2353 2234 1838 2234 
L 1294 2234 
L 1294 2753 
L 1863 2753 
Q 2328 2753 2575 2939 
Q 2822 3125 2822 3475 
Q 2822 3834 2567 4026 
Q 2313 4219 1838 4219 
Q 1578 4219 1281 4162 
Q 984 4106 628 3988 
L 628 4550 
Q 988 4650 1302 4700 
Q 1616 4750 1894 4750 
Q 2613 4750 3031 4423 
Q 3450 4097 3450 3541 
Q 3450 3153 3228 2886 
Q 3006 2619 2597 2516 
z
" transform="scale(0.015625)"/>
       </defs>
       <use xlink:href="#DejaVuSans-30"/>
       <use xlink:href="#DejaVuSans-2e" x="63.623047"/>
       <use xlink:href="#DejaVuSans-33" x="95.410156"/>
       <use xlink:href="#DejaVuSans-30" x="159.033203"/>
      </g>
     </g>
    </g>
    <g id="text_8">
     <!-- Zeitschritte (in Millionen) -->
     <g style="fill: #262626" transform="translate(169.935469 329.44375)scale(0.14 -0.14)">
      <defs>
       <path id="DejaVuSans-5a" d="M 359 4666 
L 4025 4666 
L 4025 4184 
L 1075 531 
L 4097 531 
L 4097 0 
L 288 0 
L 288 481 
L 3238 4134 
L 359 4134 
L 359 4666 
z
" transform="scale(0.015625)"/>
       <path id="DejaVuSans-65" d="M 3597 1894 
L 3597 1613 
L 953 1613 
Q 991 1019 1311 708 
Q 1631 397 2203 397 
Q 2534 397 2845 478 
Q 3156 559 3463 722 
L 3463 178 
Q 3153 47 2828 -22 
Q 2503 -91 2169 -91 
Q 1331 -91 842 396 
Q 353 884 353 1716 
Q 353 2575 817 3079 
Q 1281 3584 2069 3584 
Q 2775 3584 3186 3129 
Q 3597 2675 3597 1894 
z
M 3022 2063 
Q 3016 2534 2758 2815 
Q 2500 3097 2075 3097 
Q 1594 3097 1305 2825 
Q 1016 2553 972 2059 
L 3022 2063 
z
" transform="scale(0.015625)"/>
       <path id="DejaVuSans-69" d="M 603 3500 
L 1178 3500 
L 1178 0 
L 603 0 
L 603 3500 
z
M 603 4863 
L 1178 4863 
L 1178 4134 
L 603 4134 
L 603 4863 
z
" transform="scale(0.015625)"/>
       <path id="DejaVuSans-74" d="M 1172 4494 
L 1172 3500 
L 2356 3500 
L 2356 3053 
L 1172 3053 
L 1172 1153 
Q 1172 725 1289 603 
Q 1406 481 1766 481 
L 2356 481 
L 2356 0 
L 1766 0 
Q 1100 0 847 248 
Q 594 497 594 1153 
L 594 3053 
L 172 3053 
L 172 3500 
L 594 3500 
L 594 4494 
L 1172 4494 
z
" transform="scale(0.015625)"/>
       <path id="DejaVuSans-73" d="M 2834 3397 
L 2834 2853 
Q 2591 2978 2328 3040 
Q 2066 3103 1784 3103 
Q 1356 3103 1142 2972 
Q 928 2841 928 2578 
Q 928 2378 1081 2264 
Q 1234 2150 1697 2047 
L 1894 2003 
Q 2506 1872 2764 1633 
Q 3022 1394 3022 966 
Q 3022 478 2636 193 
Q 2250 -91 1575 -91 
Q 1294 -91 989 -36 
Q 684 19 347 128 
L 347 722 
Q 666 556 975 473 
Q 1284 391 1588 391 
Q 1994 391 2212 530 
Q 2431 669 2431 922 
Q 2431 1156 2273 1281 
Q 2116 1406 1581 1522 
L 1381 1569 
Q 847 1681 609 1914 
Q 372 2147 372 2553 
Q 372 3047 722 3315 
Q 1072 3584 1716 3584 
Q 2034 3584 2315 3537 
Q 2597 3491 2834 3397 
z
" transform="scale(0.015625)"/>
       <path id="DejaVuSans-63" d="M 3122 3366 
L 3122 2828 
Q 2878 2963 2633 3030 
Q 2388 3097 2138 3097 
Q 1578 3097 1268 2742 
Q 959 2388 959 1747 
Q 959 1106 1268 751 
Q 1578 397 2138 397 
Q 2388 397 2633 464 
Q 2878 531 3122 666 
L 3122 134 
Q 2881 22 2623 -34 
Q 2366 -91 2075 -91 
Q 1284 -91 818 406 
Q 353 903 353 1747 
Q 353 2603 823 3093 
Q 1294 3584 2113 3584 
Q 2378 3584 2631 3529 
Q 2884 3475 3122 3366 
z
" transform="scale(0.015625)"/>
       <path id="DejaVuSans-68" d="M 3513 2113 
L 3513 0 
L 2938 0 
L 2938 2094 
Q 2938 2591 2744 2837 
Q 2550 3084 2163 3084 
Q 1697 3084 1428 2787 
Q 1159 2491 1159 1978 
L 1159 0 
L 581 0 
L 581 4863 
L 1159 4863 
L 1159 2956 
Q 1366 3272 1645 3428 
Q 1925 3584 2291 3584 
Q 2894 3584 3203 3211 
Q 3513 2838 3513 2113 
z
" transform="scale(0.015625)"/>
       <path id="DejaVuSans-72" d="M 2631 2963 
Q 2534 3019 2420 3045 
Q 2306 3072 2169 3072 
Q 1681 3072 1420 2755 
Q 1159 2438 1159 1844 
L 1159 0 
L 581 0 
L 581 3500 
L 1159 3500 
L 1159 2956 
Q 1341 3275 1631 3429 
Q 1922 3584 2338 3584 
Q 2397 3584 2469 3576 
Q 2541 3569 2628 3553 
L 2631 2963 
z
" transform="scale(0.015625)"/>
       <path id="DejaVuSans-20" transform="scale(0.015625)"/>
       <path id="DejaVuSans-28" d="M 1984 4856 
Q 1566 4138 1362 3434 
Q 1159 2731 1159 2009 
Q 1159 1288 1364 580 
Q 1569 -128 1984 -844 
L 1484 -844 
Q 1016 -109 783 600 
Q 550 1309 550 2009 
Q 550 2706 781 3412 
Q 1013 4119 1484 4856 
L 1984 4856 
z
" transform="scale(0.015625)"/>
       <path id="DejaVuSans-6e" d="M 3513 2113 
L 3513 0 
L 2938 0 
L 2938 2094 
Q 2938 2591 2744 2837 
Q 2550 3084 2163 3084 
Q 1697 3084 1428 2787 
Q 1159 2491 1159 1978 
L 1159 0 
L 581 0 
L 581 3500 
L 1159 3500 
L 1159 2956 
Q 1366 3272 1645 3428 
Q 1925 3584 2291 3584 
Q 2894 3584 3203 3211 
Q 3513 2838 3513 2113 
z
" transform="scale(0.015625)"/>
       <path id="DejaVuSans-4d" d="M 628 4666 
L 1569 4666 
L 2759 1491 
L 3956 4666 
L 4897 4666 
L 4897 0 
L 4281 0 
L 4281 4097 
L 3078 897 
L 2444 897 
L 1241 4097 
L 1241 0 
L 628 0 
L 628 4666 
z
" transform="scale(0.015625)"/>
       <path id="DejaVuSans-6c" d="M 603 4863 
L 1178 4863 
L 1178 0 
L 603 0 
L 603 4863 
z
" transform="scale(0.015625)"/>
       <path id="DejaVuSans-6f" d="M 1959 3097 
Q 1497 3097 1228 2736 
Q 959 2375 959 1747 
Q 959 1119 1226 758 
Q 1494 397 1959 397 
Q 2419 397 2687 759 
Q 2956 1122 2956 1747 
Q 2956 2369 2687 2733 
Q 2419 3097 1959 3097 
z
M 1959 3584 
Q 2709 3584 3137 3096 
Q 3566 2609 3566 1747 
Q 3566 888 3137 398 
Q 2709 -91 1959 -91 
Q 1206 -91 779 398 
Q 353 888 353 1747 
Q 353 2609 779 3096 
Q 1206 3584 1959 3584 
z
" transform="scale(0.015625)"/>
       <path id="DejaVuSans-29" d="M 513 4856 
L 1013 4856 
Q 1481 4119 1714 3412 
Q 1947 2706 1947 2009 
Q 1947 1309 1714 600 
Q 1481 -109 1013 -844 
L 513 -844 
Q 928 -128 1133 580 
Q 1338 1288 1338 2009 
Q 1338 2731 1133 3434 
Q 928 4138 513 4856 
z
" transform="scale(0.015625)"/>
      </defs>
      <use xlink:href="#DejaVuSans-5a"/>
      <use xlink:href="#DejaVuSans-65" x="68.505859"/>
      <use xlink:href="#DejaVuSans-69" x="130.029297"/>
      <use xlink:href="#DejaVuSans-74" x="157.8125"/>
      <use xlink:href="#DejaVuSans-73" x="197.021484"/>
      <use xlink:href="#DejaVuSans-63" x="249.121094"/>
      <use xlink:href="#DejaVuSans-68" x="304.101562"/>
      <use xlink:href="#DejaVuSans-72" x="367.480469"/>
      <use xlink:href="#DejaVuSans-69" x="408.59375"/>
      <use xlink:href="#DejaVuSans-74" x="436.376953"/>
      <use xlink:href="#DejaVuSans-74" x="475.585938"/>
      <use xlink:href="#DejaVuSans-65" x="514.794922"/>
      <use xlink:href="#DejaVuSans-20" x="576.318359"/>
      <use xlink:href="#DejaVuSans-28" x="608.105469"/>
      <use xlink:href="#DejaVuSans-69" x="647.119141"/>
      <use xlink:href="#DejaVuSans-6e" x="674.902344"/>
      <use xlink:href="#DejaVuSans-20" x="738.28125"/>
      <use xlink:href="#DejaVuSans-4d" x="770.068359"/>
      <use xlink:href="#DejaVuSans-69" x="856.347656"/>
      <use xlink:href="#DejaVuSans-6c" x="884.130859"/>
      <use xlink:href="#DejaVuSans-6c" x="911.914062"/>
      <use xlink:href="#DejaVuSans-69" x="939.697266"/>
      <use xlink:href="#DejaVuSans-6f" x="967.480469"/>
      <use xlink:href="#DejaVuSans-6e" x="1028.662109"/>
      <use xlink:href="#DejaVuSans-65" x="1092.041016"/>
      <use xlink:href="#DejaVuSans-6e" x="1153.564453"/>
      <use xlink:href="#DejaVuSans-29" x="1216.943359"/>
     </g>
    </g>
   </g>
   <g id="matplotlib.axis_2">
    <g id="ytick_1">
     <g id="line2d_8">
      <path d="M 67.86 281.855455 
L 447.84 281.855455 
" clip-path="url(#p032eaca99a)" style="fill: none; stroke: #ffffff; stroke-linecap: round"/>
     </g>
     <g id="text_9">
      <!-- 0 -->
      <g style="fill: #262626" transform="translate(51.36125 286.034595)scale(0.11 -0.11)">
       <use xlink:href="#DejaVuSans-30"/>
      </g>
     </g>
    </g>
    <g id="ytick_2">
     <g id="line2d_9">
      <path d="M 67.86 230.637273 
L 447.84 230.637273 
" clip-path="url(#p032eaca99a)" style="fill: none; stroke: #ffffff; stroke-linecap: round"/>
     </g>
     <g id="text_10">
      <!-- 500 -->
      <g style="fill: #262626" transform="translate(37.36375 234.816413)scale(0.11 -0.11)">
       <use xlink:href="#DejaVuSans-35"/>
       <use xlink:href="#DejaVuSans-30" x="63.623047"/>
       <use xlink:href="#DejaVuSans-30" x="127.246094"/>
      </g>
     </g>
    </g>
    <g id="ytick_3">
     <g id="line2d_10">
      <path d="M 67.86 179.419091 
L 447.84 179.419091 
" clip-path="url(#p032eaca99a)" style="fill: none; stroke: #ffffff; stroke-linecap: round"/>
     </g>
     <g id="text_11">
      <!-- 1000 -->
      <g style="fill: #262626" transform="translate(30.365 183.598232)scale(0.11 -0.11)">
       <use xlink:href="#DejaVuSans-31"/>
       <use xlink:href="#DejaVuSans-30" x="63.623047"/>
       <use xlink:href="#DejaVuSans-30" x="127.246094"/>
       <use xlink:href="#DejaVuSans-30" x="190.869141"/>
      </g>
     </g>
    </g>
    <g id="ytick_4">
     <g id="line2d_11">
      <path d="M 67.86 128.200909 
L 447.84 128.200909 
" clip-path="url(#p032eaca99a)" style="fill: none; stroke: #ffffff; stroke-linecap: round"/>
     </g>
     <g id="text_12">
      <!-- 1500 -->
      <g style="fill: #262626" transform="translate(30.365 132.38005)scale(0.11 -0.11)">
       <use xlink:href="#DejaVuSans-31"/>
       <use xlink:href="#DejaVuSans-35" x="63.623047"/>
       <use xlink:href="#DejaVuSans-30" x="127.246094"/>
       <use xlink:href="#DejaVuSans-30" x="190.869141"/>
      </g>
     </g>
    </g>
    <g id="ytick_5">
     <g id="line2d_12">
      <path d="M 67.86 76.982727 
L 447.84 76.982727 
" clip-path="url(#p032eaca99a)" style="fill: none; stroke: #ffffff; stroke-linecap: round"/>
     </g>
     <g id="text_13">
      <!-- 2000 -->
      <g style="fill: #262626" transform="translate(30.365 81.161868)scale(0.11 -0.11)">
       <use xlink:href="#DejaVuSans-32"/>
       <use xlink:href="#DejaVuSans-30" x="63.623047"/>
       <use xlink:href="#DejaVuSans-30" x="127.246094"/>
       <use xlink:href="#DejaVuSans-30" x="190.869141"/>
      </g>
     </g>
    </g>
    <g id="ytick_6">
     <g id="line2d_13">
      <path d="M 67.86 25.764545 
L 447.84 25.764545 
" clip-path="url(#p032eaca99a)" style="fill: none; stroke: #ffffff; stroke-linecap: round"/>
     </g>
     <g id="text_14">
      <!-- 2500 -->
      <g style="fill: #262626" transform="translate(30.365 29.943686)scale(0.11 -0.11)">
       <use xlink:href="#DejaVuSans-32"/>
       <use xlink:href="#DejaVuSans-35" x="63.623047"/>
       <use xlink:href="#DejaVuSans-30" x="127.246094"/>
       <use xlink:href="#DejaVuSans-30" x="190.869141"/>
      </g>
     </g>
    </g>
    <g id="text_15">
     <!-- # Δx &gt; 20 -->
     <g style="fill: #262626" transform="translate(23.453438 190.054688)rotate(-90)scale(0.14 -0.14)">
      <defs>
       <path id="DejaVuSans-23" d="M 3272 2816 
L 2363 2816 
L 2100 1772 
L 3016 1772 
L 3272 2816 
z
M 2803 4594 
L 2478 3297 
L 3391 3297 
L 3719 4594 
L 4219 4594 
L 3897 3297 
L 4872 3297 
L 4872 2816 
L 3775 2816 
L 3519 1772 
L 4513 1772 
L 4513 1294 
L 3397 1294 
L 3072 0 
L 2572 0 
L 2894 1294 
L 1978 1294 
L 1656 0 
L 1153 0 
L 1478 1294 
L 494 1294 
L 494 1772 
L 1594 1772 
L 1856 2816 
L 850 2816 
L 850 3297 
L 1978 3297 
L 2297 4594 
L 2803 4594 
z
" transform="scale(0.015625)"/>
       <path id="DejaVuSans-394" d="M 2188 4044 
L 906 525 
L 3472 525 
L 2188 4044 
z
M 50 0 
L 1831 4666 
L 2547 4666 
L 4325 0 
L 50 0 
z
" transform="scale(0.015625)"/>
       <path id="DejaVuSans-78" d="M 3513 3500 
L 2247 1797 
L 3578 0 
L 2900 0 
L 1881 1375 
L 863 0 
L 184 0 
L 1544 1831 
L 300 3500 
L 978 3500 
L 1906 2253 
L 2834 3500 
L 3513 3500 
z
" transform="scale(0.015625)"/>
       <path id="DejaVuSans-3e" d="M 678 3150 
L 678 3719 
L 4684 2266 
L 4684 1747 
L 678 294 
L 678 863 
L 3897 2003 
L 678 3150 
z
" transform="scale(0.015625)"/>
      </defs>
      <use xlink:href="#DejaVuSans-23"/>
      <use xlink:href="#DejaVuSans-20" x="83.789062"/>
      <use xlink:href="#DejaVuSans-394" x="115.576172"/>
      <use xlink:href="#DejaVuSans-78" x="183.984375"/>
      <use xlink:href="#DejaVuSans-20" x="243.164062"/>
      <use xlink:href="#DejaVuSans-3e" x="274.951172"/>
      <use xlink:href="#DejaVuSans-20" x="358.740234"/>
      <use xlink:href="#DejaVuSans-32" x="390.527344"/>
      <use xlink:href="#DejaVuSans-30" x="454.150391"/>
     </g>
    </g>
   </g>
   <g id="PolyCollection_1">
    <defs>
     <path id="m7284c278ca" d="M 85.131818 -63.744545 
L 85.131818 -310.308873 
L 88.034645 -229.793891 
L 90.937471 -109.840909 
L 93.840298 -271.997673 
L 96.743125 -286.338764 
L 99.645951 -171.302727 
L 102.548778 -201.009273 
L 105.451604 -257.656582 
L 108.354431 -112.914 
L 111.257257 -240.2424 
L 114.160084 -130.328182 
L 117.062911 -285.211964 
L 119.965737 -272.817164 
L 122.868564 -92.119418 
L 125.77139 -73.168691 
L 128.674217 -204.1848 
L 131.577044 -249.871418 
L 134.47987 -85.461055 
L 137.382697 -112.606691 
L 140.285523 -220.062436 
L 143.18835 -73.988182 
L 146.091176 -92.426727 
L 148.994003 -184.824327 
L 151.89683 -98.675345 
L 154.799656 -268.002655 
L 157.702483 -272.817164 
L 160.605309 -203.570182 
L 163.508136 -216.989345 
L 166.410963 -280.295018 
L 169.313789 -112.606691 
L 172.216616 -76.651527 
L 175.119442 -115.782218 
L 178.022269 -230.613382 
L 180.925095 -269.334327 
L 183.827922 -241.574073 
L 186.730749 -73.885745 
L 189.633575 -255.095673 
L 192.536402 -229.589018 
L 195.439228 -155.220218 
L 198.342055 -124.489309 
L 201.244882 -199.472727 
L 204.147708 -88.636582 
L 207.050535 -74.193055 
L 209.953361 -282.548618 
L 212.856188 -204.1848 
L 215.759015 -250.3836 
L 218.661841 -117.830945 
L 221.564668 -272.407418 
L 224.467494 -270.153818 
L 227.370321 -206.950582 
L 230.273147 -98.982655 
L 233.175974 -194.146036 
L 236.078801 -189.433964 
L 238.981627 -114.245673 
L 241.884454 -211.150473 
L 244.78728 -119.572364 
L 247.690107 -72.246764 
L 250.592934 -268.719709 
L 253.49576 -297.914073 
L 256.398587 -284.392473 
L 259.301413 -83.924509 
L 262.20424 -70.0956 
L 265.107066 -135.962182 
L 268.009893 -202.340945 
L 270.91272 -178.063527 
L 273.815546 -98.880218 
L 276.718373 -111.275018 
L 279.621199 -285.109527 
L 282.524026 -300.782291 
L 285.426853 -151.122764 
L 288.329679 -121.313782 
L 291.232506 -109.021418 
L 294.135332 -130.533055 
L 297.038159 -108.099491 
L 299.940985 -74.090618 
L 302.843812 -256.427345 
L 305.746639 -122.645455 
L 308.649465 -160.342036 
L 311.552292 -204.696982 
L 314.455118 -254.071309 
L 317.357945 -206.131091 
L 320.260772 -250.178727 
L 323.163598 -272.612291 
L 326.066425 -77.266145 
L 328.969251 -231.637745 
L 331.872078 -278.348727 
L 334.774905 -262.163782 
L 337.677731 -257.656582 
L 340.580558 -247.720255 
L 343.483384 -90.685309 
L 346.386211 -216.784473 
L 349.289037 -287.158255 
L 352.191864 -293.406873 
L 355.094691 -267.900218 
L 357.997517 -296.479964 
L 360.900344 -295.250727 
L 363.80317 -276.607309 
L 366.705997 -317.9916 
L 369.608824 -267.490473 
L 372.51165 -288.285055 
L 375.414477 -307.235782 
L 378.317303 -295.967782 
L 381.22013 -311.025927 
L 384.122956 -294.738545 
L 387.025783 -286.850945 
L 389.92861 -315.635564 
L 392.831436 -307.952836 
L 395.734263 -78.085636 
L 398.637089 -292.689818 
L 401.539916 -319.835455 
L 404.442743 -293.714182 
L 407.345569 -300.372545 
L 410.248396 -250.178727 
L 413.151222 -294.840982 
L 416.054049 -298.016509 
L 418.956875 -316.045309 
L 421.859702 -249.359236 
L 424.762529 -305.187055 
L 427.665355 -299.9628 
L 430.568182 -293.509309 
L 430.568182 -65.998145 
L 430.568182 -65.998145 
L 427.665355 -253.251818 
L 424.762529 -66.510327 
L 421.859702 -63.744545 
L 418.956875 -65.793273 
L 416.054049 -66.510327 
L 413.151222 -64.4616 
L 410.248396 -65.793273 
L 407.345569 -63.744545 
L 404.442743 -66.100582 
L 401.539916 -65.895709 
L 398.637089 -68.046873 
L 395.734263 -65.793273 
L 392.831436 -65.895709 
L 389.92861 -67.432255 
L 387.025783 -69.276109 
L 384.122956 -63.744545 
L 381.22013 -65.178655 
L 378.317303 -66.817636 
L 375.414477 -66.7152 
L 372.51165 -65.793273 
L 369.608824 -67.534691 
L 366.705997 -65.793273 
L 363.80317 -69.276109 
L 360.900344 -65.793273 
L 357.997517 -65.998145 
L 355.094691 -65.895709 
L 352.191864 -65.793273 
L 349.289037 -65.793273 
L 346.386211 -65.793273 
L 343.483384 -66.100582 
L 340.580558 -65.793273 
L 337.677731 -66.305455 
L 334.774905 -69.480982 
L 331.872078 -65.793273 
L 328.969251 -72.144327 
L 326.066425 -65.178655 
L 323.163598 -70.300473 
L 320.260772 -65.895709 
L 317.357945 -65.793273 
L 314.455118 -69.173673 
L 311.552292 -63.744545 
L 308.649465 -66.100582 
L 305.746639 -66.7152 
L 302.843812 -68.149309 
L 299.940985 -65.793273 
L 297.038159 -64.666473 
L 294.135332 -67.944436 
L 291.232506 -65.793273 
L 288.329679 -67.842 
L 285.426853 -65.895709 
L 282.524026 -69.276109 
L 279.621199 -65.793273 
L 276.718373 -65.793273 
L 273.815546 -65.178655 
L 270.91272 -73.066255 
L 268.009893 -67.534691 
L 265.107066 -68.763927 
L 262.20424 -65.895709 
L 259.301413 -65.793273 
L 256.398587 -65.793273 
L 253.49576 -69.890727 
L 250.592934 -67.842 
L 247.690107 -65.895709 
L 244.78728 -68.149309 
L 241.884454 -68.046873 
L 238.981627 -69.993164 
L 236.078801 -67.944436 
L 233.175974 -70.0956 
L 230.273147 -69.276109 
L 227.370321 -70.402909 
L 224.467494 -67.944436 
L 221.564668 -69.890727 
L 218.661841 -69.583418 
L 215.759015 -68.046873 
L 212.856188 -68.354182 
L 209.953361 -67.124945 
L 207.050535 -68.456618 
L 204.147708 -67.944436 
L 201.244882 -69.993164 
L 198.342055 -67.842 
L 195.439228 -67.842 
L 192.536402 -66.100582 
L 189.633575 -65.793273 
L 186.730749 -67.842 
L 183.827922 -69.890727 
L 180.925095 -69.993164 
L 178.022269 -69.788291 
L 175.119442 -65.998145 
L 172.216616 -67.944436 
L 169.313789 -67.842 
L 166.410963 -69.890727 
L 163.508136 -65.793273 
L 160.605309 -65.895709 
L 157.702483 -69.890727 
L 154.799656 -65.793273 
L 151.89683 -67.329818 
L 148.994003 -67.842 
L 146.091176 -70.0956 
L 143.18835 -68.661491 
L 140.285523 -70.505345 
L 137.382697 -68.9688 
L 134.47987 -66.817636 
L 131.577044 -67.944436 
L 128.674217 -65.793273 
L 125.77139 -67.842 
L 122.868564 -67.842 
L 119.965737 -70.0956 
L 117.062911 -67.944436 
L 114.160084 -67.944436 
L 111.257257 -68.661491 
L 108.354431 -67.944436 
L 105.451604 -67.637127 
L 102.548778 -70.0956 
L 99.645951 -65.998145 
L 96.743125 -65.793273 
L 93.840298 -67.944436 
L 90.937471 -65.895709 
L 88.034645 -67.842 
L 85.131818 -63.744545 
z
" style="stroke: #ffffff; stroke-opacity: 0.5"/>
    </defs>
    <g clip-path="url(#p032eaca99a)">
     <use xlink:href="#m7284c278ca" x="0" y="345.6" style="fill: #4c72b0; fill-opacity: 0.5; stroke: #ffffff; stroke-opacity: 0.5"/>
    </g>
   </g>
   <g id="PolyCollection_2">
    <defs>
     <path id="m7d5ea6e63c" d="M 85.131818 -125.554647 
L 85.131818 -188.143265 
L 88.034645 -183.205833 
L 90.937471 -180.07128 
L 93.840298 -181.075156 
L 96.743125 -259.889695 
L 99.645951 -291.255709 
L 102.548778 -287.404102 
L 105.451604 -293.447847 
L 108.354431 -291.952276 
L 111.257257 -276.648284 
L 114.160084 -273.943964 
L 117.062911 -277.816058 
L 119.965737 -249.318262 
L 122.868564 -267.674858 
L 125.77139 -275.62392 
L 128.674217 -252.924022 
L 131.577044 -260.832109 
L 134.47987 -238.357571 
L 137.382697 -235.817149 
L 140.285523 -271.034771 
L 143.18835 -252.473302 
L 146.091176 -232.313825 
L 148.994003 -210.556342 
L 151.89683 -237.066873 
L 154.799656 -253.825462 
L 157.702483 -230.060225 
L 160.605309 -209.491004 
L 163.508136 -224.385251 
L 166.410963 -173.146582 
L 169.313789 -208.302742 
L 172.216616 -210.884138 
L 175.119442 -220.759004 
L 178.022269 -213.240175 
L 180.925095 -204.307724 
L 183.827922 -194.309935 
L 186.730749 -211.765091 
L 189.633575 -178.883018 
L 192.536402 -188.204727 
L 195.439228 -190.88856 
L 198.342055 -161.161527 
L 201.244882 -179.210815 
L 204.147708 -182.611702 
L 207.050535 -238.767316 
L 209.953361 -197.546924 
L 212.856188 -163.292204 
L 215.759015 -230.510945 
L 218.661841 -169.438385 
L 221.564668 -157.494305 
L 224.467494 -190.950022 
L 227.370321 -171.548575 
L 230.273147 -147.004822 
L 233.175974 -205.864756 
L 236.078801 -190.990996 
L 238.981627 -161.263964 
L 241.884454 -253.395229 
L 244.78728 -254.767876 
L 247.690107 -194.330422 
L 250.592934 -227.294444 
L 253.49576 -171.077367 
L 256.398587 -173.249018 
L 259.301413 -167.0004 
L 262.20424 -196.584022 
L 265.107066 -209.491004 
L 268.009893 -183.492655 
L 270.91272 -238.091236 
L 273.815546 -184.455556 
L 276.718373 -198.202516 
L 279.621199 -190.704175 
L 282.524026 -178.247913 
L 285.426853 -183.554116 
L 288.329679 -184.414582 
L 291.232506 -220.308284 
L 294.135332 -184.824327 
L 297.038159 -227.007622 
L 299.940985 -239.648269 
L 302.843812 -197.116691 
L 305.746639 -217.870298 
L 308.649465 -198.981033 
L 311.552292 -179.927869 
L 314.455118 -195.948916 
L 317.357945 -185.152124 
L 320.260772 -178.862531 
L 323.163598 -186.504284 
L 326.066425 -241.184815 
L 328.969251 -218.013709 
L 331.872078 -249.564109 
L 334.774905 -239.853142 
L 337.677731 -250.445062 
L 340.580558 -235.202531 
L 343.483384 -230.756793 
L 346.386211 -227.17152 
L 349.289037 -255.56688 
L 352.191864 -236.759564 
L 355.094691 -238.152698 
L 357.997517 -198.243491 
L 360.900344 -221.496545 
L 363.80317 -210.740727 
L 366.705997 -206.786684 
L 369.608824 -204.225775 
L 372.51165 -229.445607 
L 375.414477 -215.350364 
L 378.317303 -209.470516 
L 381.22013 -185.25456 
L 384.122956 -195.703069 
L 387.025783 -192.896313 
L 389.92861 -194.822116 
L 392.831436 -192.957775 
L 395.734263 -217.48104 
L 398.637089 -205.618909 
L 401.539916 -195.559658 
L 404.442743 -225.778385 
L 407.345569 -204.656007 
L 410.248396 -220.328771 
L 413.151222 -209.491004 
L 416.054049 -202.013149 
L 418.956875 -182.345367 
L 421.859702 -186.094538 
L 424.762529 -195.969404 
L 427.665355 -199.083469 
L 430.568182 -189.392989 
L 430.568182 -129.775025 
L 430.568182 -129.775025 
L 427.665355 -145.857535 
L 424.762529 -142.251775 
L 421.859702 -143.153215 
L 418.956875 -112.934487 
L 416.054049 -124.653207 
L 413.151222 -135.368051 
L 410.248396 -135.183665 
L 407.345569 -133.585658 
L 404.442743 -117.708022 
L 401.539916 -140.059636 
L 398.637089 -139.50648 
L 395.734263 -124.386873 
L 392.831436 -128.627738 
L 389.92861 -116.663171 
L 387.025783 -137.170931 
L 384.122956 -121.846451 
L 381.22013 -129.938924 
L 378.317303 -130.49208 
L 375.414477 -134.446124 
L 372.51165 -129.303818 
L 369.608824 -144.034167 
L 366.705997 -142.477135 
L 363.80317 -136.187542 
L 360.900344 -133.155425 
L 357.997517 -139.260633 
L 355.094691 -122.952764 
L 352.191864 -136.023644 
L 349.289037 -105.333709 
L 346.386211 -130.389644 
L 343.483384 -137.109469 
L 340.580558 -124.550771 
L 337.677731 -111.193069 
L 334.774905 -149.627193 
L 331.872078 -150.508145 
L 328.969251 -125.267825 
L 326.066425 -145.406815 
L 323.163598 -137.048007 
L 320.260772 -115.597833 
L 317.357945 -110.066269 
L 314.455118 -111.500378 
L 311.552292 -97.384647 
L 308.649465 -125.513673 
L 305.746639 -100.908458 
L 302.843812 -90.562385 
L 299.940985 -132.213011 
L 297.038159 -113.446669 
L 294.135332 -120.268931 
L 291.232506 -121.764502 
L 288.329679 -114.696393 
L 285.426853 -133.688095 
L 282.524026 -125.902931 
L 279.621199 -97.630495 
L 276.718373 -116.110015 
L 273.815546 -106.419535 
L 270.91272 -123.915665 
L 268.009893 -100.96992 
L 265.107066 -121.313782 
L 262.20424 -115.679782 
L 259.301413 -110.783324 
L 256.398587 -107.915105 
L 253.49576 -125.98488 
L 250.592934 -117.318764 
L 247.690107 -107.628284 
L 244.78728 -112.504255 
L 241.884454 -105.497607 
L 238.981627 -117.789971 
L 236.078801 -98.060727 
L 233.175974 -97.958291 
L 230.273147 -116.74512 
L 227.370321 -131.270596 
L 224.467494 -130.143796 
L 221.564668 -90.951644 
L 218.661841 -100.498713 
L 215.759015 -118.117767 
L 212.856188 -90.808233 
L 209.953361 -105.600044 
L 207.050535 -121.621091 
L 204.147708 -121.539142 
L 201.244882 -86.690291 
L 198.342055 -104.186422 
L 195.439228 -72.861382 
L 192.536402 -99.576785 
L 189.633575 -89.906793 
L 186.730749 -110.721862 
L 183.827922 -101.133818 
L 180.925095 -118.466051 
L 178.022269 -103.981549 
L 175.119442 -128.279455 
L 172.216616 -101.850873 
L 169.313789 -99.945556 
L 166.410963 -112.914 
L 163.508136 -123.321535 
L 160.605309 -125.3088 
L 157.702483 -140.961076 
L 154.799656 -149.319884 
L 151.89683 -152.987105 
L 148.994003 -142.333724 
L 146.091176 -156.019222 
L 143.18835 -154.15488 
L 140.285523 -162.759535 
L 137.382697 -150.508145 
L 134.47987 -132.151549 
L 131.577044 -82.531375 
L 128.674217 -105.395171 
L 125.77139 -102.219644 
L 122.868564 -201.869738 
L 119.965737 -179.046916 
L 117.062911 -195.907942 
L 114.160084 -223.811607 
L 111.257257 -227.704189 
L 108.354431 -249.666545 
L 105.451604 -238.050262 
L 102.548778 -235.632764 
L 99.645951 -269.518713 
L 96.743125 -215.883033 
L 93.840298 -139.916225 
L 90.937471 -138.174807 
L 88.034645 -143.890756 
L 85.131818 -125.554647 
z
" style="stroke: #ffffff; stroke-opacity: 0.5"/>
    </defs>
    <g clip-path="url(#p032eaca99a)">
     <use xlink:href="#m7d5ea6e63c" x="0" y="345.6" style="fill: #dd8452; fill-opacity: 0.5; stroke: #ffffff; stroke-opacity: 0.5"/>
    </g>
   </g>
   <g id="PolyCollection_3">
    <defs>
     <path id="ma9613cfa2a" d="M 85.131818 -142.579571 
L 85.131818 -177.428422 
L 88.034645 -160.874705 
L 90.937471 -196.993767 
L 93.840298 -175.953338 
L 96.743125 -239.56632 
L 99.645951 -288.24408 
L 102.548778 -293.837105 
L 105.451604 -290.210858 
L 108.354431 -283.777855 
L 111.257257 -283.450058 
L 114.160084 -271.874749 
L 117.062911 -261.057469 
L 119.965737 -288.633338 
L 122.868564 -272.591804 
L 125.77139 -263.413505 
L 128.674217 -258.435098 
L 131.577044 -279.90576 
L 134.47987 -272.899113 
L 137.382697 -269.785047 
L 140.285523 -265.113949 
L 143.18835 -275.255149 
L 146.091176 -259.643847 
L 148.994003 -279.106756 
L 151.89683 -249.195338 
L 154.799656 -256.69368 
L 157.702483 -254.194233 
L 160.605309 -274.824916 
L 163.508136 -275.460022 
L 166.410963 -250.916269 
L 169.313789 -270.276742 
L 172.216616 -254.255695 
L 175.119442 -269.252378 
L 178.022269 -258.476073 
L 180.925095 -203.037513 
L 183.827922 -253.579615 
L 186.730749 -230.469971 
L 189.633575 -238.132211 
L 192.536402 -252.104531 
L 195.439228 -259.070204 
L 198.342055 -219.222458 
L 201.244882 -248.396335 
L 204.147708 -271.915724 
L 207.050535 -254.255695 
L 209.953361 -213.916255 
L 212.856188 -275.275636 
L 215.759015 -214.735745 
L 218.661841 -189.556887 
L 221.564668 -248.027564 
L 224.467494 -196.584022 
L 227.370321 -251.469425 
L 230.273147 -218.38248 
L 233.175974 -200.312705 
L 236.078801 -234.219142 
L 238.981627 -227.110058 
L 241.884454 -200.35368 
L 244.78728 -235.304967 
L 247.690107 -197.731309 
L 250.592934 -257.738531 
L 253.49576 -186.934516 
L 256.398587 -207.647149 
L 259.301413 -199.923447 
L 262.20424 -215.288902 
L 265.107066 -223.483811 
L 268.009893 -175.891876 
L 270.91272 -152.290538 
L 273.815546 -169.233513 
L 276.718373 -214.305513 
L 279.621199 -161.038604 
L 282.524026 -193.388007 
L 285.426853 -185.356996 
L 288.329679 -168.721331 
L 291.232506 -178.002065 
L 294.135332 -212.400196 
L 297.038159 -227.888575 
L 299.940985 -204.369185 
L 302.843812 -200.415142 
L 305.746639 -179.907382 
L 308.649465 -214.203076 
L 311.552292 -159.829855 
L 314.455118 -200.169295 
L 317.357945 -199.780036 
L 320.260772 -205.659884 
L 323.163598 -197.87472 
L 326.066425 -207.585687 
L 328.969251 -207.974945 
L 331.872078 -170.073491 
L 334.774905 -189.638836 
L 337.677731 -185.356996 
L 340.580558 -186.668182 
L 343.483384 -185.541382 
L 346.386211 -208.405178 
L 349.289037 -182.632189 
L 352.191864 -152.311025 
L 355.094691 -185.520895 
L 357.997517 -171.712473 
L 360.900344 -181.075156 
L 363.80317 -166.816015 
L 366.705997 -198.530313 
L 369.608824 -155.076807 
L 372.51165 -138.092858 
L 375.414477 -159.010364 
L 378.317303 -164.644364 
L 381.22013 -146.513127 
L 384.122956 -156.469942 
L 387.025783 -139.875251 
L 389.92861 -156.367505 
L 392.831436 -138.953324 
L 395.734263 -147.045796 
L 398.637089 -128.074582 
L 401.539916 -144.177578 
L 404.442743 -159.051338 
L 407.345569 -161.796633 
L 410.248396 -146.000945 
L 413.151222 -173.269505 
L 416.054049 -158.375258 
L 418.956875 -181.935622 
L 421.859702 -134.466611 
L 424.762529 -142.43616 
L 427.665355 -148.275033 
L 430.568182 -139.28112 
L 430.568182 -108.63216 
L 430.568182 -108.63216 
L 427.665355 -106.1532 
L 424.762529 -108.283876 
L 421.859702 -116.048553 
L 418.956875 -96.196385 
L 416.054049 -97.1388 
L 413.151222 -86.895164 
L 410.248396 -91.299927 
L 407.345569 -99.986531 
L 404.442743 -99.208015 
L 401.539916 -98.900705 
L 398.637089 -110.496502 
L 395.734263 -87.018087 
L 392.831436 -83.740124 
L 389.92861 -101.748436 
L 387.025783 -101.338691 
L 384.122956 -111.172582 
L 381.22013 -106.808793 
L 378.317303 -115.249549 
L 375.414477 -111.684764 
L 372.51165 -104.719091 
L 369.608824 -89.47656 
L 366.705997 -110.537476 
L 363.80317 -113.569593 
L 360.900344 -71.816531 
L 357.997517 -117.093404 
L 355.094691 -74.500364 
L 352.191864 -100.621636 
L 349.289037 -98.122189 
L 346.386211 -127.378015 
L 343.483384 -127.869709 
L 340.580558 -80.093389 
L 337.677731 -116.704145 
L 334.774905 -128.258967 
L 331.872078 -70.054625 
L 328.969251 -105.087862 
L 326.066425 -118.486538 
L 323.163598 -100.621636 
L 320.260772 -93.205244 
L 317.357945 -103.817651 
L 314.455118 -107.894618 
L 311.552292 -101.891847 
L 308.649465 -135.572924 
L 305.746639 -91.812109 
L 302.843812 -108.079004 
L 299.940985 -112.01256 
L 297.038159 -115.413447 
L 294.135332 -139.485993 
L 291.232506 -115.556858 
L 288.329679 -106.030276 
L 285.426853 -96.257847 
L 282.524026 -119.879673 
L 279.621199 -88.595607 
L 276.718373 -140.85864 
L 273.815546 -81.035804 
L 270.91272 -85.8708 
L 268.009893 -127.132167 
L 265.107066 -111.397942 
L 262.20424 -87.489295 
L 259.301413 -79.663156 
L 256.398587 -96.175898 
L 253.49576 -126.968269 
L 250.592934 -87.284422 
L 247.690107 -112.217433 
L 244.78728 -82.94112 
L 241.884454 -126.107804 
L 238.981627 -100.027505 
L 236.078801 -135.962182 
L 233.175974 -88.554633 
L 230.273147 -103.366931 
L 227.370321 -109.881884 
L 224.467494 -82.920633 
L 221.564668 -110.107244 
L 218.661841 -86.956625 
L 215.759015 -115.351985 
L 212.856188 -91.648211 
L 209.953361 -101.441127 
L 207.050535 -106.501484 
L 204.147708 -118.937258 
L 201.244882 -121.907913 
L 198.342055 -157.412356 
L 195.439228 -127.193629 
L 192.536402 -99.16704 
L 189.633575 -190.970509 
L 186.730749 -112.729615 
L 183.827922 -125.288313 
L 180.925095 -99.003142 
L 178.022269 -158.088436 
L 175.119442 -121.866938 
L 172.216616 -121.744015 
L 169.313789 -140.838153 
L 166.410963 -76.876887 
L 163.508136 -105.681993 
L 160.605309 -101.891847 
L 157.702483 -170.053004 
L 154.799656 -144.4644 
L 151.89683 -165.258982 
L 148.994003 -166.160422 
L 146.091176 -157.08456 
L 143.18835 -155.527527 
L 140.285523 -75.258393 
L 137.382697 -185.090662 
L 134.47987 -105.763942 
L 131.577044 -204.942829 
L 128.674217 -157.781127 
L 125.77139 -207.606175 
L 122.868564 -224.405738 
L 119.965737 -87.059062 
L 117.062911 -215.760109 
L 114.160084 -225.634975 
L 111.257257 -227.8476 
L 108.354431 -188.163753 
L 105.451604 -224.118916 
L 102.548778 -248.888029 
L 99.645951 -245.159345 
L 96.743125 -166.529193 
L 93.840298 -136.12608 
L 90.937471 -128.504815 
L 88.034645 -134.015891 
L 85.131818 -142.579571 
z
" style="stroke: #ffffff; stroke-opacity: 0.5"/>
    </defs>
    <g clip-path="url(#p032eaca99a)">
     <use xlink:href="#ma9613cfa2a" x="0" y="345.6" style="fill: #55a868; fill-opacity: 0.5; stroke: #ffffff; stroke-opacity: 0.5"/>
    </g>
   </g>
   <g id="PolyCollection_4">
    <defs>
     <path id="m6364e7e1c8" d="M 85.131818 -92.221855 
L 85.131818 -232.764545 
L 88.034645 -267.695345 
L 90.937471 -188.307164 
L 93.840298 -196.706945 
L 96.743125 -207.872509 
L 99.645951 -262.266218 
L 102.548778 -262.7784 
L 105.451604 -267.388036 
L 108.354431 -262.675964 
L 111.257257 -264.622255 
L 114.160084 -307.952836 
L 117.062911 -287.260691 
L 119.965737 -223.237964 
L 122.868564 -231.945055 
L 125.77139 -278.963345 
L 128.674217 -285.929018 
L 131.577044 -270.973309 
L 134.47987 -265.544182 
L 137.382697 -265.749055 
L 140.285523 -255.710291 
L 143.18835 -214.326 
L 146.091176 -234.6084 
L 148.994003 -218.218582 
L 151.89683 -258.066327 
L 154.799656 -226.208618 
L 157.702483 -221.906291 
L 160.605309 -238.398545 
L 163.508136 -222.316036 
L 166.410963 -215.350364 
L 169.313789 -224.774509 
L 172.216616 -227.540291 
L 175.119442 -226.515927 
L 178.022269 -193.736291 
L 180.925095 -214.530873 
L 183.827922 -274.148836 
L 186.730749 -188.102291 
L 189.633575 -242.803309 
L 192.536402 -170.585673 
L 195.439228 -228.871964 
L 198.342055 -152.659309 
L 201.244882 -258.476073 
L 204.147708 -182.878036 
L 207.050535 -211.252909 
L 209.953361 -174.990436 
L 212.856188 -208.179818 
L 215.759015 -253.046945 
L 218.661841 -228.769527 
L 221.564668 -238.091236 
L 224.467494 -240.139964 
L 227.370321 -225.081818 
L 230.273147 -194.146036 
L 233.175974 -213.404073 
L 236.078801 -218.013709 
L 238.981627 -187.180364 
L 241.884454 -127.5624 
L 244.78728 -186.770618 
L 247.690107 -130.328182 
L 250.592934 -93.348655 
L 253.49576 -189.331527 
L 256.398587 -122.850327 
L 259.301413 -131.967164 
L 262.20424 -117.318764 
L 265.107066 -95.397382 
L 268.009893 -106.870255 
L 270.91272 -153.4788 
L 273.815546 -83.002582 
L 276.718373 -111.684764 
L 279.621199 -84.231818 
L 282.524026 -116.2944 
L 285.426853 -130.123309 
L 288.329679 -102.670364 
L 291.232506 -109.636036 
L 294.135332 -108.918982 
L 297.038159 -110.967709 
L 299.940985 -73.271127 
L 302.843812 -95.294945 
L 305.746639 -87.714655 
L 308.649465 -72.144327 
L 311.552292 -75.114982 
L 314.455118 -84.231818 
L 317.357945 -92.529164 
L 320.260772 -73.066255 
L 323.163598 -112.504255 
L 326.066425 -93.451091 
L 328.969251 -70.812655 
L 331.872078 -74.193055 
L 334.774905 -112.504255 
L 337.677731 -76.549091 
L 340.580558 -70.0956 
L 343.483384 -72.041891 
L 346.386211 -72.041891 
L 349.289037 -72.246764 
L 352.191864 -72.246764 
L 355.094691 -71.324836 
L 357.997517 -91.5048 
L 360.900344 -72.041891 
L 363.80317 -72.3492 
L 366.705997 -70.607782 
L 369.608824 -72.246764 
L 372.51165 -72.451636 
L 375.414477 -71.734582 
L 378.317303 -71.017527 
L 381.22013 -72.3492 
L 384.122956 -72.144327 
L 387.025783 -69.788291 
L 389.92861 -74.397927 
L 392.831436 -71.324836 
L 395.734263 -73.066255 
L 398.637089 -73.476 
L 401.539916 -75.319855 
L 404.442743 -72.041891 
L 407.345569 -72.554073 
L 410.248396 -73.373564 
L 413.151222 -74.397927 
L 416.054049 -70.300473 
L 418.956875 -75.114982 
L 421.859702 -73.885745 
L 424.762529 -72.451636 
L 427.665355 -71.734582 
L 430.568182 -72.656509 
L 430.568182 -69.071236 
L 430.568182 -69.071236 
L 427.665355 -67.842 
L 424.762529 -66.817636 
L 421.859702 -68.866364 
L 418.956875 -67.944436 
L 416.054049 -67.944436 
L 413.151222 -68.456618 
L 410.248396 -68.149309 
L 407.345569 -68.046873 
L 404.442743 -68.149309 
L 401.539916 -67.842 
L 398.637089 -69.993164 
L 395.734263 -69.890727 
L 392.831436 -67.842 
L 389.92861 -67.944436 
L 387.025783 -66.920073 
L 384.122956 -68.559055 
L 381.22013 -66.817636 
L 378.317303 -66.305455 
L 375.414477 -68.046873 
L 372.51165 -67.944436 
L 369.608824 -68.559055 
L 366.705997 -67.739564 
L 363.80317 -68.559055 
L 360.900344 -67.534691 
L 357.997517 -66.817636 
L 355.094691 -67.637127 
L 352.191864 -68.354182 
L 349.289037 -68.046873 
L 346.386211 -67.944436 
L 343.483384 -67.944436 
L 340.580558 -65.998145 
L 337.677731 -68.149309 
L 334.774905 -68.866364 
L 331.872078 -66.510327 
L 328.969251 -66.817636 
L 326.066425 -70.0956 
L 323.163598 -68.661491 
L 320.260772 -67.944436 
L 317.357945 -68.149309 
L 314.455118 -66.100582 
L 311.552292 -67.022509 
L 308.649465 -67.842 
L 305.746639 -66.612764 
L 302.843812 -66.407891 
L 299.940985 -65.793273 
L 297.038159 -69.993164 
L 294.135332 -66.100582 
L 291.232506 -68.559055 
L 288.329679 -67.944436 
L 285.426853 -67.842 
L 282.524026 -69.890727 
L 279.621199 -68.251745 
L 276.718373 -68.9688 
L 273.815546 -70.300473 
L 270.91272 -67.944436 
L 268.009893 -67.739564 
L 265.107066 -69.583418 
L 262.20424 -68.149309 
L 259.301413 -70.198036 
L 256.398587 -70.0956 
L 253.49576 -67.842 
L 250.592934 -65.998145 
L 247.690107 -65.998145 
L 244.78728 -69.993164 
L 241.884454 -72.144327 
L 238.981627 -68.456618 
L 236.078801 -73.271127 
L 233.175974 -68.149309 
L 230.273147 -70.300473 
L 227.370321 -88.739018 
L 224.467494 -69.480982 
L 221.564668 -68.354182 
L 218.661841 -69.993164 
L 215.759015 -76.8564 
L 212.856188 -77.675891 
L 209.953361 -67.944436 
L 207.050535 -88.226836 
L 204.147708 -84.231818 
L 201.244882 -96.421745 
L 198.342055 -72.041891 
L 195.439228 -95.192509 
L 192.536402 -68.251745 
L 189.633575 -69.993164 
L 186.730749 -70.915091 
L 183.827922 -121.416218 
L 180.925095 -73.373564 
L 178.022269 -84.231818 
L 175.119442 -118.752873 
L 172.216616 -113.426182 
L 169.313789 -112.401818 
L 166.410963 -75.422291 
L 163.508136 -67.842 
L 160.605309 -151.020327 
L 157.702483 -129.201382 
L 154.799656 -125.206364 
L 151.89683 -132.0696 
L 148.994003 -155.7324 
L 146.091176 -87.509782 
L 143.18835 -133.708582 
L 140.285523 -148.561855 
L 137.382697 -165.771164 
L 134.47987 -102.567927 
L 131.577044 -166.795527 
L 128.674217 -200.497091 
L 125.77139 -193.531418 
L 122.868564 -156.142145 
L 119.965737 -163.005382 
L 117.062911 -182.468291 
L 114.160084 -210.638291 
L 111.257257 -174.990436 
L 108.354431 -185.438945 
L 105.451604 -201.726327 
L 102.548778 -232.047491 
L 99.645951 -169.049127 
L 96.743125 -114.348109 
L 93.840298 -88.226836 
L 90.937471 -157.576255 
L 88.034645 -141.596182 
L 85.131818 -92.221855 
z
" style="stroke: #ffffff; stroke-opacity: 0.5"/>
    </defs>
    <g clip-path="url(#p032eaca99a)">
     <use xlink:href="#m6364e7e1c8" x="0" y="345.6" style="fill: #c44e52; fill-opacity: 0.5; stroke: #ffffff; stroke-opacity: 0.5"/>
    </g>
   </g>
   <g id="line2d_14">
    <path d="M 85.131818 174.645556 
L 88.034645 236.455658 
L 90.937471 269.235295 
L 93.840298 184.397498 
L 96.743125 201.238036 
L 99.645951 237.234175 
L 102.548778 242.355993 
L 105.451604 212.075804 
L 108.354431 265.957331 
L 111.257257 215.230844 
L 114.160084 263.929091 
L 117.062911 233.198182 
L 119.965737 209.146124 
L 122.868564 268.231418 
L 125.77139 274.295651 
L 128.674217 248.829971 
L 131.577044 231.374815 
L 134.47987 273.885905 
L 137.382697 266.121229 
L 140.285523 238.033178 
L 143.18835 274.295651 
L 146.091176 265.670509 
L 148.994003 252.620116 
L 151.89683 269.624553 
L 154.799656 220.803382 
L 157.702483 209.637818 
L 160.605309 246.453447 
L 163.508136 243.093535 
L 166.410963 170.343229 
L 169.313789 267.329978 
L 172.216616 272.738618 
L 175.119442 267.575825 
L 178.022269 242.089658 
L 180.925095 226.273484 
L 183.827922 175.034815 
L 186.730749 274.582473 
L 189.633575 237.377585 
L 192.536402 212.62896 
L 195.439228 258.950684 
L 198.342055 255.017127 
L 201.244882 227.871491 
L 204.147708 271.796204 
L 207.050535 274.316138 
L 209.953361 233.280131 
L 212.856188 236.721993 
L 215.759015 238.914131 
L 218.661841 250.735287 
L 221.564668 186.774022 
L 224.467494 232.952335 
L 227.370321 239.487775 
L 230.273147 269.952349 
L 233.175974 249.997745 
L 236.078801 250.919673 
L 238.981627 265.547585 
L 241.884454 232.091869 
L 244.78728 258.725324 
L 247.690107 276.323891 
L 250.592934 226.888102 
L 253.49576 182.574131 
L 256.398587 214.104044 
L 259.301413 272.595207 
L 262.20424 277.594102 
L 265.107066 258.745811 
L 268.009893 249.751898 
L 270.91272 245.060313 
L 273.815546 267.329978 
L 276.718373 264.871505 
L 279.621199 181.836589 
L 282.524026 226.724204 
L 285.426853 261.060873 
L 288.329679 261.9828 
L 291.232506 270.689891 
L 294.135332 264.46176 
L 297.038159 264.01104 
L 299.940985 277.08192 
L 302.843812 219.963404 
L 305.746639 257.598524 
L 308.649465 259.217018 
L 311.552292 225.290095 
L 314.455118 202.958967 
L 317.357945 237.602945 
L 320.260772 210.785105 
L 323.163598 165.733593 
L 326.066425 274.008829 
L 328.969251 229.449011 
L 331.872078 236.373709 
L 334.774905 186.93792 
L 337.677731 206.298393 
L 340.580558 213.264065 
L 343.483384 272.124 
L 346.386211 241.536502 
L 349.289037 158.665484 
L 352.191864 208.674916 
L 355.094691 204.638924 
L 357.997517 185.975018 
L 360.900344 208.367607 
L 363.80317 198.001047 
L 366.705997 142.849309 
L 369.608824 172.207571 
L 372.51165 194.415775 
L 375.414477 146.741891 
L 378.317303 183.823855 
L 381.22013 185.094065 
L 384.122956 191.014887 
L 387.025783 147.213098 
L 389.92861 171.285644 
L 392.831436 150.695935 
L 395.734263 277.204844 
L 398.637089 136.334356 
L 401.539916 178.312778 
L 404.442743 159.403025 
L 407.345569 189.970036 
L 410.248396 207.179345 
L 413.151222 205.704262 
L 416.054049 123.61176 
L 418.956875 191.547556 
L 421.859702 243.339382 
L 424.762529 118.65384 
L 427.665355 69.095127 
L 430.568182 147.930153 
" clip-path="url(#p032eaca99a)" style="fill: none; stroke: #4c72b0; stroke-width: 3; stroke-linecap: round"/>
   </g>
   <g id="line2d_15">
    <path d="M 85.131818 175.006132 
L 88.034645 181.439136 
L 90.937471 182.606911 
L 93.840298 189.965939 
L 96.743125 110.577757 
L 99.645951 66.271981 
L 102.548778 76.310745 
L 105.451604 75.765783 
L 108.354431 73.733446 
L 111.257257 88.041757 
L 114.160084 104.017732 
L 117.062911 110.139329 
L 119.965737 140.542442 
L 122.868564 113.028035 
L 125.77139 158.100035 
L 128.674217 157.870577 
L 131.577044 180.394285 
L 134.47987 171.322521 
L 137.382697 145.045545 
L 140.285523 136.014755 
L 143.18835 155.772681 
L 146.091176 152.552081 
L 148.994003 174.604582 
L 151.89683 163.111222 
L 154.799656 160.456071 
L 157.702483 152.027607 
L 160.605309 182.684762 
L 163.508136 176.149322 
L 166.410963 203.454759 
L 169.313789 203.671924 
L 172.216616 201.15199 
L 175.119442 186.315107 
L 178.022269 207.920985 
L 180.925095 176.300928 
L 183.827922 196.972586 
L 186.730749 184.971142 
L 189.633575 206.536045 
L 192.536402 205.6428 
L 195.439228 212.358528 
L 198.342055 211.334164 
L 201.244882 198.984436 
L 204.147708 193.170148 
L 207.050535 195.235265 
L 209.953361 193.723305 
L 212.856188 210.985881 
L 215.759015 191.740137 
L 218.661841 203.483441 
L 221.564668 215.407034 
L 224.467494 182.127508 
L 227.370321 196.849663 
L 230.273147 213.239481 
L 233.175974 198.037924 
L 236.078801 198.156751 
L 238.981627 208.756865 
L 241.884454 180.972026 
L 244.78728 192.543238 
L 247.690107 192.256416 
L 250.592934 175.018425 
L 253.49576 196.013782 
L 256.398587 200.402156 
L 259.301413 203.471149 
L 262.20424 178.513553 
L 265.107066 173.67446 
L 268.009893 195.829396 
L 270.91272 180.672912 
L 273.815546 191.400048 
L 276.718373 179.353532 
L 279.621199 194.538698 
L 282.524026 189.961841 
L 285.426853 182.758516 
L 288.329679 185.79473 
L 291.232506 186.114332 
L 294.135332 187.37225 
L 297.038159 188.040135 
L 299.940985 179.386311 
L 302.843812 194.501821 
L 305.746639 188.830944 
L 308.649465 178.300486 
L 311.552292 196.40304 
L 314.455118 193.379119 
L 317.357945 191.641798 
L 320.260772 192.158077 
L 323.163598 188.363834 
L 326.066425 169.195942 
L 328.969251 170.191623 
L 331.872078 153.666589 
L 334.774905 155.674342 
L 337.677731 165.524623 
L 340.580558 161.267367 
L 343.483384 171.326618 
L 346.386211 171.916652 
L 349.289037 165.168144 
L 352.191864 162.553968 
L 355.094691 165.553305 
L 357.997517 181.586644 
L 360.900344 162.947324 
L 363.80317 178.304583 
L 366.705997 166.405575 
L 369.608824 179.058515 
L 372.51165 178.947884 
L 375.414477 177.870253 
L 378.317303 178.722524 
L 381.22013 193.45697 
L 384.122956 178.964273 
L 387.025783 180.640132 
L 389.92861 181.51289 
L 392.831436 176.76394 
L 395.734263 171.760948 
L 398.637089 166.803028 
L 401.539916 176.309123 
L 404.442743 177.882545 
L 407.345569 173.67446 
L 410.248396 162.697379 
L 413.151222 174.641459 
L 416.054049 179.542015 
L 418.956875 187.64678 
L 421.859702 175.41178 
L 424.762529 172.559952 
L 427.665355 169.085311 
L 430.568182 178.402922 
" clip-path="url(#p032eaca99a)" style="fill: none; stroke: #dd8452; stroke-width: 3; stroke-linecap: round"/>
   </g>
   <g id="line2d_16">
    <path d="M 85.131818 188.667046 
L 88.034645 196.616108 
L 90.937471 184.794951 
L 93.840298 188.609681 
L 96.743125 141.947869 
L 99.645951 75.900999 
L 102.548778 69.71794 
L 105.451604 83.96479 
L 108.354431 110.79902 
L 111.257257 81.961135 
L 114.160084 94.548515 
L 117.062911 102.796691 
L 119.965737 121.456499 
L 122.868564 97.515072 
L 125.77139 101.256048 
L 128.674217 126.533245 
L 131.577044 96.175204 
L 134.47987 124.582857 
L 137.382697 112.577315 
L 140.285523 177.116321 
L 143.18835 142.480538 
L 146.091176 148.671792 
L 148.994003 113.417293 
L 151.89683 127.92638 
L 154.799656 133.56038 
L 157.702483 121.653177 
L 160.605309 136.854733 
L 163.508136 157.862383 
L 166.410963 151.187629 
L 169.313789 151.699811 
L 172.216616 150.573011 
L 175.119442 139.981091 
L 178.022269 131.802572 
L 180.925095 186.405251 
L 183.827922 142.849309 
L 186.730749 147.590064 
L 189.633575 133.72018 
L 192.536402 188.695728 
L 195.439228 134.261044 
L 198.342055 153.801805 
L 201.244882 171.986308 
L 204.147708 130.376657 
L 207.050535 174.162057 
L 209.953361 193.518432 
L 212.856188 146.422289 
L 215.759015 182.508572 
L 218.661841 213.264065 
L 221.564668 165.373017 
L 224.467494 208.248781 
L 227.370321 174.039133 
L 230.273147 196.112121 
L 233.175974 194.805033 
L 236.078801 179.783764 
L 238.981627 158.329492 
L 241.884454 183.069923 
L 244.78728 185.819315 
L 247.690107 178.788083 
L 250.592934 164.975564 
L 253.49576 186.360179 
L 256.398587 190.461731 
L 259.301413 196.591523 
L 262.20424 203.409687 
L 265.107066 201.672367 
L 268.009893 205.638703 
L 270.91272 212.231507 
L 273.815546 220.356759 
L 276.718373 179.267485 
L 279.621199 208.031616 
L 282.524026 184.090189 
L 285.426853 211.252215 
L 288.329679 201.938701 
L 291.232506 186.458518 
L 294.135332 181.258848 
L 297.038159 168.888633 
L 299.940985 194.063393 
L 302.843812 190.445341 
L 305.746639 201.746121 
L 308.649465 175.751869 
L 311.552292 214.923535 
L 314.455118 182.561839 
L 317.357945 187.327178 
L 320.260772 198.332941 
L 323.163598 198.332941 
L 326.066425 177.185978 
L 328.969251 207.634163 
L 331.872078 225.753107 
L 334.774905 184.483545 
L 337.677731 203.725191 
L 340.580558 213.186214 
L 343.483384 185.876679 
L 346.386211 189.732384 
L 349.289037 199.320428 
L 352.191864 222.188321 
L 355.094691 204.388979 
L 357.997517 203.229399 
L 360.900344 201.926409 
L 363.80317 199.59086 
L 366.705997 187.958186 
L 369.608824 213.411574 
L 372.51165 222.106372 
L 375.414477 207.142468 
L 378.317303 203.59817 
L 381.22013 215.968385 
L 384.122956 208.949446 
L 387.025783 222.085885 
L 389.92861 208.834717 
L 392.831436 227.818224 
L 395.734263 230.86673 
L 398.637089 227.195411 
L 401.539916 220.385441 
L 404.442743 216.947677 
L 407.345569 215.99297 
L 410.248396 220.582119 
L 413.151222 225.847348 
L 416.054049 217.804045 
L 418.956875 201.996065 
L 421.859702 219.533171 
L 424.762529 218.898065 
L 427.665355 217.590977 
L 430.568182 220.905818 
" clip-path="url(#p032eaca99a)" style="fill: none; stroke: #55a868; stroke-width: 3; stroke-linecap: round"/>
   </g>
   <g id="line2d_17">
    <path d="M 85.131818 174.112887 
L 88.034645 160.406902 
L 90.937471 170.507127 
L 93.840298 193.125076 
L 96.743125 189.580778 
L 99.645951 113.982742 
L 102.548778 95.871993 
L 105.451604 110.950625 
L 108.354431 111.831578 
L 111.257257 116.420727 
L 114.160084 100.993811 
L 117.062911 119.391382 
L 119.965737 148.995491 
L 122.868564 149.548647 
L 125.77139 121.993265 
L 128.674217 118.080196 
L 131.577044 132.093491 
L 134.47987 146.516531 
L 137.382697 130.249636 
L 140.285523 145.635578 
L 143.18835 174.0924 
L 146.091176 165.733593 
L 148.994003 154.731927 
L 151.89683 140.943993 
L 154.799656 153.215869 
L 157.702483 168.192065 
L 160.605309 154.178771 
L 163.508136 187.183767 
L 166.410963 183.680444 
L 169.313789 183.434596 
L 172.216616 185.749658 
L 175.119442 175.321636 
L 178.022269 190.523193 
L 180.925095 192.57192 
L 183.827922 166.122851 
L 186.730749 232.870385 
L 189.633575 223.999396 
L 192.536402 222.729185 
L 195.439228 199.209796 
L 198.342055 223.630625 
L 201.244882 194.702596 
L 204.147708 210.170487 
L 207.050535 206.09352 
L 209.953361 247.436836 
L 212.856188 223.855985 
L 215.759015 200.295622 
L 218.661841 221.786771 
L 221.564668 216.398618 
L 224.467494 223.44624 
L 227.370321 220.987767 
L 230.273147 212.034829 
L 233.175974 226.929076 
L 236.078801 226.027636 
L 238.981627 242.888662 
L 241.884454 260.40528 
L 244.78728 235.677142 
L 247.690107 254.259098 
L 250.592934 268.354342 
L 253.49576 250.509927 
L 256.398587 252.51768 
L 259.301413 257.92632 
L 262.20424 266.182691 
L 265.107066 267.596313 
L 268.009893 263.1096 
L 270.91272 236.476145 
L 273.815546 272.431309 
L 276.718373 266.858771 
L 279.621199 272.287898 
L 282.524026 249.075818 
L 285.426853 264.482247 
L 288.329679 269.317244 
L 291.232506 267.780698 
L 294.135332 268.579702 
L 297.038159 266.305615 
L 299.940985 275.709273 
L 302.843812 270.054785 
L 305.746639 270.075273 
L 308.649465 275.545375 
L 311.552292 274.336625 
L 314.455118 274.15224 
L 317.357945 270.833302 
L 320.260772 275.299527 
L 323.163598 267.329978 
L 326.066425 269.276269 
L 328.969251 275.996095 
L 331.872078 275.360989 
L 334.774905 260.876487 
L 337.677731 274.090778 
L 340.580558 277.327767 
L 343.483384 276.098531 
L 346.386211 275.545375 
L 349.289037 275.72976 
L 352.191864 275.893658 
L 355.094691 276.6312 
L 357.997517 272.57472 
L 360.900344 274.725884 
L 363.80317 275.299527 
L 366.705997 276.754124 
L 369.608824 275.401964 
L 372.51165 275.033193 
L 375.414477 275.422451 
L 378.317303 277.204844 
L 381.22013 275.811709 
L 384.122956 275.340502 
L 387.025783 276.938509 
L 389.92861 274.82832 
L 392.831436 276.200967 
L 395.734263 274.213702 
L 398.637089 274.070291 
L 401.539916 274.82832 
L 404.442743 274.910269 
L 407.345569 275.5044 
L 410.248396 275.586349 
L 413.151222 274.992218 
L 416.054049 276.508276 
L 418.956875 274.684909 
L 421.859702 273.558109 
L 424.762529 276.754124 
L 427.665355 275.975607 
L 430.568182 274.459549 
" clip-path="url(#p032eaca99a)" style="fill: none; stroke: #c44e52; stroke-width: 3; stroke-linecap: round"/>
   </g>
   <g id="patch_3">
    <path d="M 67.86 294.66 
L 67.86 12.96 
" style="fill: none; stroke: #ffffff; stroke-width: 1.25; stroke-linejoin: miter; stroke-linecap: square"/>
   </g>
   <g id="patch_4">
    <path d="M 447.84 294.66 
L 447.84 12.96 
" style="fill: none; stroke: #ffffff; stroke-width: 1.25; stroke-linejoin: miter; stroke-linecap: square"/>
   </g>
   <g id="patch_5">
    <path d="M 67.86 294.66 
L 447.84 294.66 
" style="fill: none; stroke: #ffffff; stroke-width: 1.25; stroke-linejoin: miter; stroke-linecap: square"/>
   </g>
   <g id="patch_6">
    <path d="M 67.86 12.96 
L 447.84 12.96 
" style="fill: none; stroke: #ffffff; stroke-width: 1.25; stroke-linejoin: miter; stroke-linecap: square"/>
   </g>
   <g id="legend_1">
    <g id="patch_7">
     <path d="M 194.141953 86.34375 
L 321.558047 86.34375 
Q 323.758047 86.34375 323.758047 84.14375 
L 323.758047 20.66 
Q 323.758047 18.46 321.558047 18.46 
L 194.141953 18.46 
Q 191.941953 18.46 191.941953 20.66 
L 191.941953 84.14375 
Q 191.941953 86.34375 194.141953 86.34375 
z
" style="fill: #eaeaf2; opacity: 0.8; stroke: #cccccc; stroke-linejoin: miter"/>
    </g>
    <g id="line2d_18">
     <path d="M 196.341953 27.368281 
L 207.341953 27.368281 
L 218.341953 27.368281 
" style="fill: none; stroke: #4c72b0; stroke-width: 3; stroke-linecap: round"/>
    </g>
    <g id="text_16">
     <!-- DATS-DELAY-20 -->
     <g style="fill: #262626" transform="translate(227.141953 31.218281)scale(0.11 -0.11)">
      <defs>
       <path id="DejaVuSans-44" d="M 1259 4147 
L 1259 519 
L 2022 519 
Q 2988 519 3436 956 
Q 3884 1394 3884 2338 
Q 3884 3275 3436 3711 
Q 2988 4147 2022 4147 
L 1259 4147 
z
M 628 4666 
L 1925 4666 
Q 3281 4666 3915 4102 
Q 4550 3538 4550 2338 
Q 4550 1131 3912 565 
Q 3275 0 1925 0 
L 628 0 
L 628 4666 
z
" transform="scale(0.015625)"/>
       <path id="DejaVuSans-41" d="M 2188 4044 
L 1331 1722 
L 3047 1722 
L 2188 4044 
z
M 1831 4666 
L 2547 4666 
L 4325 0 
L 3669 0 
L 3244 1197 
L 1141 1197 
L 716 0 
L 50 0 
L 1831 4666 
z
" transform="scale(0.015625)"/>
       <path id="DejaVuSans-54" d="M -19 4666 
L 3928 4666 
L 3928 4134 
L 2272 4134 
L 2272 0 
L 1638 0 
L 1638 4134 
L -19 4134 
L -19 4666 
z
" transform="scale(0.015625)"/>
       <path id="DejaVuSans-53" d="M 3425 4513 
L 3425 3897 
Q 3066 4069 2747 4153 
Q 2428 4238 2131 4238 
Q 1616 4238 1336 4038 
Q 1056 3838 1056 3469 
Q 1056 3159 1242 3001 
Q 1428 2844 1947 2747 
L 2328 2669 
Q 3034 2534 3370 2195 
Q 3706 1856 3706 1288 
Q 3706 609 3251 259 
Q 2797 -91 1919 -91 
Q 1588 -91 1214 -16 
Q 841 59 441 206 
L 441 856 
Q 825 641 1194 531 
Q 1563 422 1919 422 
Q 2459 422 2753 634 
Q 3047 847 3047 1241 
Q 3047 1584 2836 1778 
Q 2625 1972 2144 2069 
L 1759 2144 
Q 1053 2284 737 2584 
Q 422 2884 422 3419 
Q 422 4038 858 4394 
Q 1294 4750 2059 4750 
Q 2388 4750 2728 4690 
Q 3069 4631 3425 4513 
z
" transform="scale(0.015625)"/>
       <path id="DejaVuSans-2d" d="M 313 2009 
L 1997 2009 
L 1997 1497 
L 313 1497 
L 313 2009 
z
" transform="scale(0.015625)"/>
       <path id="DejaVuSans-45" d="M 628 4666 
L 3578 4666 
L 3578 4134 
L 1259 4134 
L 1259 2753 
L 3481 2753 
L 3481 2222 
L 1259 2222 
L 1259 531 
L 3634 531 
L 3634 0 
L 628 0 
L 628 4666 
z
" transform="scale(0.015625)"/>
       <path id="DejaVuSans-4c" d="M 628 4666 
L 1259 4666 
L 1259 531 
L 3531 531 
L 3531 0 
L 628 0 
L 628 4666 
z
" transform="scale(0.015625)"/>
       <path id="DejaVuSans-59" d="M -13 4666 
L 666 4666 
L 1959 2747 
L 3244 4666 
L 3922 4666 
L 2272 2222 
L 2272 0 
L 1638 0 
L 1638 2222 
L -13 4666 
z
" transform="scale(0.015625)"/>
      </defs>
      <use xlink:href="#DejaVuSans-44"/>
      <use xlink:href="#DejaVuSans-41" x="75.251953"/>
      <use xlink:href="#DejaVuSans-54" x="135.910156"/>
      <use xlink:href="#DejaVuSans-53" x="196.994141"/>
      <use xlink:href="#DejaVuSans-2d" x="260.470703"/>
      <use xlink:href="#DejaVuSans-44" x="296.554688"/>
      <use xlink:href="#DejaVuSans-45" x="373.556641"/>
      <use xlink:href="#DejaVuSans-4c" x="436.740234"/>
      <use xlink:href="#DejaVuSans-41" x="494.703125"/>
      <use xlink:href="#DejaVuSans-59" x="555.361328"/>
      <use xlink:href="#DejaVuSans-2d" x="604.570312"/>
      <use xlink:href="#DejaVuSans-32" x="640.654297"/>
      <use xlink:href="#DejaVuSans-30" x="704.277344"/>
     </g>
    </g>
    <g id="line2d_19">
     <path d="M 196.341953 43.514219 
L 207.341953 43.514219 
L 218.341953 43.514219 
" style="fill: none; stroke: #dd8452; stroke-width: 3; stroke-linecap: round"/>
    </g>
    <g id="text_17">
     <!-- SAC-DELAY-20 -->
     <g style="fill: #262626" transform="translate(227.141953 47.364219)scale(0.11 -0.11)">
      <defs>
       <path id="DejaVuSans-43" d="M 4122 4306 
L 4122 3641 
Q 3803 3938 3442 4084 
Q 3081 4231 2675 4231 
Q 1875 4231 1450 3742 
Q 1025 3253 1025 2328 
Q 1025 1406 1450 917 
Q 1875 428 2675 428 
Q 3081 428 3442 575 
Q 3803 722 4122 1019 
L 4122 359 
Q 3791 134 3420 21 
Q 3050 -91 2638 -91 
Q 1578 -91 968 557 
Q 359 1206 359 2328 
Q 359 3453 968 4101 
Q 1578 4750 2638 4750 
Q 3056 4750 3426 4639 
Q 3797 4528 4122 4306 
z
" transform="scale(0.015625)"/>
      </defs>
      <use xlink:href="#DejaVuSans-53"/>
      <use xlink:href="#DejaVuSans-41" x="65.351562"/>
      <use xlink:href="#DejaVuSans-43" x="132.009766"/>
      <use xlink:href="#DejaVuSans-2d" x="201.833984"/>
      <use xlink:href="#DejaVuSans-44" x="237.917969"/>
      <use xlink:href="#DejaVuSans-45" x="314.919922"/>
      <use xlink:href="#DejaVuSans-4c" x="378.103516"/>
      <use xlink:href="#DejaVuSans-41" x="436.066406"/>
      <use xlink:href="#DejaVuSans-59" x="496.724609"/>
      <use xlink:href="#DejaVuSans-2d" x="545.933594"/>
      <use xlink:href="#DejaVuSans-32" x="582.017578"/>
      <use xlink:href="#DejaVuSans-30" x="645.640625"/>
     </g>
    </g>
    <g id="line2d_20">
     <path d="M 196.341953 59.660156 
L 207.341953 59.660156 
L 218.341953 59.660156 
" style="fill: none; stroke: #55a868; stroke-width: 3; stroke-linecap: round"/>
    </g>
    <g id="text_18">
     <!-- SAC-IS-DELAY-20 -->
     <g style="fill: #262626" transform="translate(227.141953 63.510156)scale(0.11 -0.11)">
      <defs>
       <path id="DejaVuSans-49" d="M 628 4666 
L 1259 4666 
L 1259 0 
L 628 0 
L 628 4666 
z
" transform="scale(0.015625)"/>
      </defs>
      <use xlink:href="#DejaVuSans-53"/>
      <use xlink:href="#DejaVuSans-41" x="65.351562"/>
      <use xlink:href="#DejaVuSans-43" x="132.009766"/>
      <use xlink:href="#DejaVuSans-2d" x="201.833984"/>
      <use xlink:href="#DejaVuSans-49" x="237.917969"/>
      <use xlink:href="#DejaVuSans-53" x="267.410156"/>
      <use xlink:href="#DejaVuSans-2d" x="330.886719"/>
      <use xlink:href="#DejaVuSans-44" x="366.970703"/>
      <use xlink:href="#DejaVuSans-45" x="443.972656"/>
      <use xlink:href="#DejaVuSans-4c" x="507.15625"/>
      <use xlink:href="#DejaVuSans-41" x="565.119141"/>
      <use xlink:href="#DejaVuSans-59" x="625.777344"/>
      <use xlink:href="#DejaVuSans-2d" x="674.986328"/>
      <use xlink:href="#DejaVuSans-32" x="711.070312"/>
      <use xlink:href="#DejaVuSans-30" x="774.693359"/>
     </g>
    </g>
    <g id="line2d_21">
     <path d="M 196.341953 75.806094 
L 207.341953 75.806094 
L 218.341953 75.806094 
" style="fill: none; stroke: #c44e52; stroke-width: 3; stroke-linecap: round"/>
    </g>
    <g id="text_19">
     <!-- DCAC-DELAY-20 -->
     <g style="fill: #262626" transform="translate(227.141953 79.656094)scale(0.11 -0.11)">
      <use xlink:href="#DejaVuSans-44"/>
      <use xlink:href="#DejaVuSans-43" x="77.001953"/>
      <use xlink:href="#DejaVuSans-41" x="146.826172"/>
      <use xlink:href="#DejaVuSans-43" x="213.484375"/>
      <use xlink:href="#DejaVuSans-2d" x="283.308594"/>
      <use xlink:href="#DejaVuSans-44" x="319.392578"/>
      <use xlink:href="#DejaVuSans-45" x="396.394531"/>
      <use xlink:href="#DejaVuSans-4c" x="459.578125"/>
      <use xlink:href="#DejaVuSans-41" x="517.541016"/>
      <use xlink:href="#DejaVuSans-59" x="578.199219"/>
      <use xlink:href="#DejaVuSans-2d" x="627.408203"/>
      <use xlink:href="#DejaVuSans-32" x="663.492188"/>
      <use xlink:href="#DejaVuSans-30" x="727.115234"/>
     </g>
    </g>
   </g>
  </g>
 </g>
 <defs>
  <clipPath id="p032eaca99a">
   <rect x="67.86" y="12.96" width="379.98" height="281.7"/>
  </clipPath>
 </defs>
</svg>
