<?xml version="1.0" encoding="utf-8" standalone="no"?>
<!DOCTYPE svg PUBLIC "-//W3C//DTD SVG 1.1//EN"
  "http://www.w3.org/Graphics/SVG/1.1/DTD/svg11.dtd">
<svg xmlns:xlink="http://www.w3.org/1999/xlink" width="460.8pt" height="345.6pt" viewBox="0 0 460.8 345.6" xmlns="http://www.w3.org/2000/svg" version="1.1">
 <metadata>
  <rdf:RDF xmlns:dc="http://purl.org/dc/elements/1.1/" xmlns:cc="http://creativecommons.org/ns#" xmlns:rdf="http://www.w3.org/1999/02/22-rdf-syntax-ns#">
   <cc:Work>
    <dc:type rdf:resource="http://purl.org/dc/dcmitype/StillImage"/>
    <dc:date>2022-09-12T15:17:49.558249</dc:date>
    <dc:format>image/svg+xml</dc:format>
    <dc:creator>
     <cc:Agent>
      <dc:title>Matplotlib v3.5.3, https://matplotlib.org/</dc:title>
     </cc:Agent>
    </dc:creator>
   </cc:Work>
  </rdf:RDF>
 </metadata>
 <defs>
  <style type="text/css">*{stroke-linejoin: round; stroke-linecap: butt}</style>
 </defs>
 <g id="figure_1">
  <g id="patch_1">
   <path d="M 0 345.6 
L 460.8 345.6 
L 460.8 0 
L 0 0 
z
" style="fill: #ffffff"/>
  </g>
  <g id="axes_1">
   <g id="patch_2">
    <path d="M 67.86 294.66 
L 447.84 294.66 
L 447.84 12.96 
L 67.86 12.96 
z
" style="fill: #eaeaf2"/>
   </g>
   <g id="matplotlib.axis_1">
    <g id="xtick_1">
     <g id="line2d_1">
      <path d="M 82.228992 294.66 
L 82.228992 12.96 
" clip-path="url(#pe9f47b54ea)" style="fill: none; stroke: #ffffff; stroke-linecap: round"/>
     </g>
     <g id="text_1">
      <!-- 0.00 -->
      <g style="fill: #262626" transform="translate(69.982898 312.518281)scale(0.11 -0.11)">
       <defs>
        <path id="DejaVuSans-30" d="M 2034 4250 
Q 1547 4250 1301 3770 
Q 1056 3291 1056 2328 
Q 1056 1369 1301 889 
Q 1547 409 2034 409 
Q 2525 409 2770 889 
Q 3016 1369 3016 2328 
Q 3016 3291 2770 3770 
Q 2525 4250 2034 4250 
z
M 2034 4750 
Q 2819 4750 3233 4129 
Q 3647 3509 3647 2328 
Q 3647 1150 3233 529 
Q 2819 -91 2034 -91 
Q 1250 -91 836 529 
Q 422 1150 422 2328 
Q 422 3509 836 4129 
Q 1250 4750 2034 4750 
z
" transform="scale(0.015625)"/>
        <path id="DejaVuSans-2e" d="M 684 794 
L 1344 794 
L 1344 0 
L 684 0 
L 684 794 
z
" transform="scale(0.015625)"/>
       </defs>
       <use xlink:href="#DejaVuSans-30"/>
       <use xlink:href="#DejaVuSans-2e" x="63.623047"/>
       <use xlink:href="#DejaVuSans-30" x="95.410156"/>
       <use xlink:href="#DejaVuSans-30" x="159.033203"/>
      </g>
     </g>
    </g>
    <g id="xtick_2">
     <g id="line2d_2">
      <path d="M 140.285523 294.66 
L 140.285523 12.96 
" clip-path="url(#pe9f47b54ea)" style="fill: none; stroke: #ffffff; stroke-linecap: round"/>
     </g>
     <g id="text_2">
      <!-- 0.05 -->
      <g style="fill: #262626" transform="translate(128.03943 312.518281)scale(0.11 -0.11)">
       <defs>
        <path id="DejaVuSans-35" d="M 691 4666 
L 3169 4666 
L 3169 4134 
L 1269 4134 
L 1269 2991 
Q 1406 3038 1543 3061 
Q 1681 3084 1819 3084 
Q 2600 3084 3056 2656 
Q 3513 2228 3513 1497 
Q 3513 744 3044 326 
Q 2575 -91 1722 -91 
Q 1428 -91 1123 -41 
Q 819 9 494 109 
L 494 744 
Q 775 591 1075 516 
Q 1375 441 1709 441 
Q 2250 441 2565 725 
Q 2881 1009 2881 1497 
Q 2881 1984 2565 2268 
Q 2250 2553 1709 2553 
Q 1456 2553 1204 2497 
Q 953 2441 691 2322 
L 691 4666 
z
" transform="scale(0.015625)"/>
       </defs>
       <use xlink:href="#DejaVuSans-30"/>
       <use xlink:href="#DejaVuSans-2e" x="63.623047"/>
       <use xlink:href="#DejaVuSans-30" x="95.410156"/>
       <use xlink:href="#DejaVuSans-35" x="159.033203"/>
      </g>
     </g>
    </g>
    <g id="xtick_3">
     <g id="line2d_3">
      <path d="M 198.342055 294.66 
L 198.342055 12.96 
" clip-path="url(#pe9f47b54ea)" style="fill: none; stroke: #ffffff; stroke-linecap: round"/>
     </g>
     <g id="text_3">
      <!-- 0.10 -->
      <g style="fill: #262626" transform="translate(186.095961 312.518281)scale(0.11 -0.11)">
       <defs>
        <path id="DejaVuSans-31" d="M 794 531 
L 1825 531 
L 1825 4091 
L 703 3866 
L 703 4441 
L 1819 4666 
L 2450 4666 
L 2450 531 
L 3481 531 
L 3481 0 
L 794 0 
L 794 531 
z
" transform="scale(0.015625)"/>
       </defs>
       <use xlink:href="#DejaVuSans-30"/>
       <use xlink:href="#DejaVuSans-2e" x="63.623047"/>
       <use xlink:href="#DejaVuSans-31" x="95.410156"/>
       <use xlink:href="#DejaVuSans-30" x="159.033203"/>
      </g>
     </g>
    </g>
    <g id="xtick_4">
     <g id="line2d_4">
      <path d="M 256.398587 294.66 
L 256.398587 12.96 
" clip-path="url(#pe9f47b54ea)" style="fill: none; stroke: #ffffff; stroke-linecap: round"/>
     </g>
     <g id="text_4">
      <!-- 0.15 -->
      <g style="fill: #262626" transform="translate(244.152493 312.518281)scale(0.11 -0.11)">
       <use xlink:href="#DejaVuSans-30"/>
       <use xlink:href="#DejaVuSans-2e" x="63.623047"/>
       <use xlink:href="#DejaVuSans-31" x="95.410156"/>
       <use xlink:href="#DejaVuSans-35" x="159.033203"/>
      </g>
     </g>
    </g>
    <g id="xtick_5">
     <g id="line2d_5">
      <path d="M 314.455118 294.66 
L 314.455118 12.96 
" clip-path="url(#pe9f47b54ea)" style="fill: none; stroke: #ffffff; stroke-linecap: round"/>
     </g>
     <g id="text_5">
      <!-- 0.20 -->
      <g style="fill: #262626" transform="translate(302.209025 312.518281)scale(0.11 -0.11)">
       <defs>
        <path id="DejaVuSans-32" d="M 1228 531 
L 3431 531 
L 3431 0 
L 469 0 
L 469 531 
Q 828 903 1448 1529 
Q 2069 2156 2228 2338 
Q 2531 2678 2651 2914 
Q 2772 3150 2772 3378 
Q 2772 3750 2511 3984 
Q 2250 4219 1831 4219 
Q 1534 4219 1204 4116 
Q 875 4013 500 3803 
L 500 4441 
Q 881 4594 1212 4672 
Q 1544 4750 1819 4750 
Q 2544 4750 2975 4387 
Q 3406 4025 3406 3419 
Q 3406 3131 3298 2873 
Q 3191 2616 2906 2266 
Q 2828 2175 2409 1742 
Q 1991 1309 1228 531 
z
" transform="scale(0.015625)"/>
       </defs>
       <use xlink:href="#DejaVuSans-30"/>
       <use xlink:href="#DejaVuSans-2e" x="63.623047"/>
       <use xlink:href="#DejaVuSans-32" x="95.410156"/>
       <use xlink:href="#DejaVuSans-30" x="159.033203"/>
      </g>
     </g>
    </g>
    <g id="xtick_6">
     <g id="line2d_6">
      <path d="M 372.51165 294.66 
L 372.51165 12.96 
" clip-path="url(#pe9f47b54ea)" style="fill: none; stroke: #ffffff; stroke-linecap: round"/>
     </g>
     <g id="text_6">
      <!-- 0.25 -->
      <g style="fill: #262626" transform="translate(360.265556 312.518281)scale(0.11 -0.11)">
       <use xlink:href="#DejaVuSans-30"/>
       <use xlink:href="#DejaVuSans-2e" x="63.623047"/>
       <use xlink:href="#DejaVuSans-32" x="95.410156"/>
       <use xlink:href="#DejaVuSans-35" x="159.033203"/>
      </g>
     </g>
    </g>
    <g id="xtick_7">
     <g id="line2d_7">
      <path d="M 430.568182 294.66 
L 430.568182 12.96 
" clip-path="url(#pe9f47b54ea)" style="fill: none; stroke: #ffffff; stroke-linecap: round"/>
     </g>
     <g id="text_7">
      <!-- 0.30 -->
      <g style="fill: #262626" transform="translate(418.322088 312.518281)scale(0.11 -0.11)">
       <defs>
        <path id="DejaVuSans-33" d="M 2597 2516 
Q 3050 2419 3304 2112 
Q 3559 1806 3559 1356 
Q 3559 666 3084 287 
Q 2609 -91 1734 -91 
Q 1441 -91 1130 -33 
Q 819 25 488 141 
L 488 750 
Q 750 597 1062 519 
Q 1375 441 1716 441 
Q 2309 441 2620 675 
Q 2931 909 2931 1356 
Q 2931 1769 2642 2001 
Q 2353 2234 1838 2234 
L 1294 2234 
L 1294 2753 
L 1863 2753 
Q 2328 2753 2575 2939 
Q 2822 3125 2822 3475 
Q 2822 3834 2567 4026 
Q 2313 4219 1838 4219 
Q 1578 4219 1281 4162 
Q 984 4106 628 3988 
L 628 4550 
Q 988 4650 1302 4700 
Q 1616 4750 1894 4750 
Q 2613 4750 3031 4423 
Q 3450 4097 3450 3541 
Q 3450 3153 3228 2886 
Q 3006 2619 2597 2516 
z
" transform="scale(0.015625)"/>
       </defs>
       <use xlink:href="#DejaVuSans-30"/>
       <use xlink:href="#DejaVuSans-2e" x="63.623047"/>
       <use xlink:href="#DejaVuSans-33" x="95.410156"/>
       <use xlink:href="#DejaVuSans-30" x="159.033203"/>
      </g>
     </g>
    </g>
    <g id="text_8">
     <!-- Zeitschritte (in Millionen) -->
     <g style="fill: #262626" transform="translate(169.935469 329.44375)scale(0.14 -0.14)">
      <defs>
       <path id="DejaVuSans-5a" d="M 359 4666 
L 4025 4666 
L 4025 4184 
L 1075 531 
L 4097 531 
L 4097 0 
L 288 0 
L 288 481 
L 3238 4134 
L 359 4134 
L 359 4666 
z
" transform="scale(0.015625)"/>
       <path id="DejaVuSans-65" d="M 3597 1894 
L 3597 1613 
L 953 1613 
Q 991 1019 1311 708 
Q 1631 397 2203 397 
Q 2534 397 2845 478 
Q 3156 559 3463 722 
L 3463 178 
Q 3153 47 2828 -22 
Q 2503 -91 2169 -91 
Q 1331 -91 842 396 
Q 353 884 353 1716 
Q 353 2575 817 3079 
Q 1281 3584 2069 3584 
Q 2775 3584 3186 3129 
Q 3597 2675 3597 1894 
z
M 3022 2063 
Q 3016 2534 2758 2815 
Q 2500 3097 2075 3097 
Q 1594 3097 1305 2825 
Q 1016 2553 972 2059 
L 3022 2063 
z
" transform="scale(0.015625)"/>
       <path id="DejaVuSans-69" d="M 603 3500 
L 1178 3500 
L 1178 0 
L 603 0 
L 603 3500 
z
M 603 4863 
L 1178 4863 
L 1178 4134 
L 603 4134 
L 603 4863 
z
" transform="scale(0.015625)"/>
       <path id="DejaVuSans-74" d="M 1172 4494 
L 1172 3500 
L 2356 3500 
L 2356 3053 
L 1172 3053 
L 1172 1153 
Q 1172 725 1289 603 
Q 1406 481 1766 481 
L 2356 481 
L 2356 0 
L 1766 0 
Q 1100 0 847 248 
Q 594 497 594 1153 
L 594 3053 
L 172 3053 
L 172 3500 
L 594 3500 
L 594 4494 
L 1172 4494 
z
" transform="scale(0.015625)"/>
       <path id="DejaVuSans-73" d="M 2834 3397 
L 2834 2853 
Q 2591 2978 2328 3040 
Q 2066 3103 1784 3103 
Q 1356 3103 1142 2972 
Q 928 2841 928 2578 
Q 928 2378 1081 2264 
Q 1234 2150 1697 2047 
L 1894 2003 
Q 2506 1872 2764 1633 
Q 3022 1394 3022 966 
Q 3022 478 2636 193 
Q 2250 -91 1575 -91 
Q 1294 -91 989 -36 
Q 684 19 347 128 
L 347 722 
Q 666 556 975 473 
Q 1284 391 1588 391 
Q 1994 391 2212 530 
Q 2431 669 2431 922 
Q 2431 1156 2273 1281 
Q 2116 1406 1581 1522 
L 1381 1569 
Q 847 1681 609 1914 
Q 372 2147 372 2553 
Q 372 3047 722 3315 
Q 1072 3584 1716 3584 
Q 2034 3584 2315 3537 
Q 2597 3491 2834 3397 
z
" transform="scale(0.015625)"/>
       <path id="DejaVuSans-63" d="M 3122 3366 
L 3122 2828 
Q 2878 2963 2633 3030 
Q 2388 3097 2138 3097 
Q 1578 3097 1268 2742 
Q 959 2388 959 1747 
Q 959 1106 1268 751 
Q 1578 397 2138 397 
Q 2388 397 2633 464 
Q 2878 531 3122 666 
L 3122 134 
Q 2881 22 2623 -34 
Q 2366 -91 2075 -91 
Q 1284 -91 818 406 
Q 353 903 353 1747 
Q 353 2603 823 3093 
Q 1294 3584 2113 3584 
Q 2378 3584 2631 3529 
Q 2884 3475 3122 3366 
z
" transform="scale(0.015625)"/>
       <path id="DejaVuSans-68" d="M 3513 2113 
L 3513 0 
L 2938 0 
L 2938 2094 
Q 2938 2591 2744 2837 
Q 2550 3084 2163 3084 
Q 1697 3084 1428 2787 
Q 1159 2491 1159 1978 
L 1159 0 
L 581 0 
L 581 4863 
L 1159 4863 
L 1159 2956 
Q 1366 3272 1645 3428 
Q 1925 3584 2291 3584 
Q 2894 3584 3203 3211 
Q 3513 2838 3513 2113 
z
" transform="scale(0.015625)"/>
       <path id="DejaVuSans-72" d="M 2631 2963 
Q 2534 3019 2420 3045 
Q 2306 3072 2169 3072 
Q 1681 3072 1420 2755 
Q 1159 2438 1159 1844 
L 1159 0 
L 581 0 
L 581 3500 
L 1159 3500 
L 1159 2956 
Q 1341 3275 1631 3429 
Q 1922 3584 2338 3584 
Q 2397 3584 2469 3576 
Q 2541 3569 2628 3553 
L 2631 2963 
z
" transform="scale(0.015625)"/>
       <path id="DejaVuSans-20" transform="scale(0.015625)"/>
       <path id="DejaVuSans-28" d="M 1984 4856 
Q 1566 4138 1362 3434 
Q 1159 2731 1159 2009 
Q 1159 1288 1364 580 
Q 1569 -128 1984 -844 
L 1484 -844 
Q 1016 -109 783 600 
Q 550 1309 550 2009 
Q 550 2706 781 3412 
Q 1013 4119 1484 4856 
L 1984 4856 
z
" transform="scale(0.015625)"/>
       <path id="DejaVuSans-6e" d="M 3513 2113 
L 3513 0 
L 2938 0 
L 2938 2094 
Q 2938 2591 2744 2837 
Q 2550 3084 2163 3084 
Q 1697 3084 1428 2787 
Q 1159 2491 1159 1978 
L 1159 0 
L 581 0 
L 581 3500 
L 1159 3500 
L 1159 2956 
Q 1366 3272 1645 3428 
Q 1925 3584 2291 3584 
Q 2894 3584 3203 3211 
Q 3513 2838 3513 2113 
z
" transform="scale(0.015625)"/>
       <path id="DejaVuSans-4d" d="M 628 4666 
L 1569 4666 
L 2759 1491 
L 3956 4666 
L 4897 4666 
L 4897 0 
L 4281 0 
L 4281 4097 
L 3078 897 
L 2444 897 
L 1241 4097 
L 1241 0 
L 628 0 
L 628 4666 
z
" transform="scale(0.015625)"/>
       <path id="DejaVuSans-6c" d="M 603 4863 
L 1178 4863 
L 1178 0 
L 603 0 
L 603 4863 
z
" transform="scale(0.015625)"/>
       <path id="DejaVuSans-6f" d="M 1959 3097 
Q 1497 3097 1228 2736 
Q 959 2375 959 1747 
Q 959 1119 1226 758 
Q 1494 397 1959 397 
Q 2419 397 2687 759 
Q 2956 1122 2956 1747 
Q 2956 2369 2687 2733 
Q 2419 3097 1959 3097 
z
M 1959 3584 
Q 2709 3584 3137 3096 
Q 3566 2609 3566 1747 
Q 3566 888 3137 398 
Q 2709 -91 1959 -91 
Q 1206 -91 779 398 
Q 353 888 353 1747 
Q 353 2609 779 3096 
Q 1206 3584 1959 3584 
z
" transform="scale(0.015625)"/>
       <path id="DejaVuSans-29" d="M 513 4856 
L 1013 4856 
Q 1481 4119 1714 3412 
Q 1947 2706 1947 2009 
Q 1947 1309 1714 600 
Q 1481 -109 1013 -844 
L 513 -844 
Q 928 -128 1133 580 
Q 1338 1288 1338 2009 
Q 1338 2731 1133 3434 
Q 928 4138 513 4856 
z
" transform="scale(0.015625)"/>
      </defs>
      <use xlink:href="#DejaVuSans-5a"/>
      <use xlink:href="#DejaVuSans-65" x="68.505859"/>
      <use xlink:href="#DejaVuSans-69" x="130.029297"/>
      <use xlink:href="#DejaVuSans-74" x="157.8125"/>
      <use xlink:href="#DejaVuSans-73" x="197.021484"/>
      <use xlink:href="#DejaVuSans-63" x="249.121094"/>
      <use xlink:href="#DejaVuSans-68" x="304.101562"/>
      <use xlink:href="#DejaVuSans-72" x="367.480469"/>
      <use xlink:href="#DejaVuSans-69" x="408.59375"/>
      <use xlink:href="#DejaVuSans-74" x="436.376953"/>
      <use xlink:href="#DejaVuSans-74" x="475.585938"/>
      <use xlink:href="#DejaVuSans-65" x="514.794922"/>
      <use xlink:href="#DejaVuSans-20" x="576.318359"/>
      <use xlink:href="#DejaVuSans-28" x="608.105469"/>
      <use xlink:href="#DejaVuSans-69" x="647.119141"/>
      <use xlink:href="#DejaVuSans-6e" x="674.902344"/>
      <use xlink:href="#DejaVuSans-20" x="738.28125"/>
      <use xlink:href="#DejaVuSans-4d" x="770.068359"/>
      <use xlink:href="#DejaVuSans-69" x="856.347656"/>
      <use xlink:href="#DejaVuSans-6c" x="884.130859"/>
      <use xlink:href="#DejaVuSans-6c" x="911.914062"/>
      <use xlink:href="#DejaVuSans-69" x="939.697266"/>
      <use xlink:href="#DejaVuSans-6f" x="967.480469"/>
      <use xlink:href="#DejaVuSans-6e" x="1028.662109"/>
      <use xlink:href="#DejaVuSans-65" x="1092.041016"/>
      <use xlink:href="#DejaVuSans-6e" x="1153.564453"/>
      <use xlink:href="#DejaVuSans-29" x="1216.943359"/>
     </g>
    </g>
   </g>
   <g id="matplotlib.axis_2">
    <g id="ytick_1">
     <g id="line2d_8">
      <path d="M 67.86 281.855455 
L 447.84 281.855455 
" clip-path="url(#pe9f47b54ea)" style="fill: none; stroke: #ffffff; stroke-linecap: round"/>
     </g>
     <g id="text_9">
      <!-- 0 -->
      <g style="fill: #262626" transform="translate(51.36125 286.034595)scale(0.11 -0.11)">
       <use xlink:href="#DejaVuSans-30"/>
      </g>
     </g>
    </g>
    <g id="ytick_2">
     <g id="line2d_9">
      <path d="M 67.86 226.28017 
L 447.84 226.28017 
" clip-path="url(#pe9f47b54ea)" style="fill: none; stroke: #ffffff; stroke-linecap: round"/>
     </g>
     <g id="text_10">
      <!-- 500 -->
      <g style="fill: #262626" transform="translate(37.36375 230.459311)scale(0.11 -0.11)">
       <use xlink:href="#DejaVuSans-35"/>
       <use xlink:href="#DejaVuSans-30" x="63.623047"/>
       <use xlink:href="#DejaVuSans-30" x="127.246094"/>
      </g>
     </g>
    </g>
    <g id="ytick_3">
     <g id="line2d_10">
      <path d="M 67.86 170.704886 
L 447.84 170.704886 
" clip-path="url(#pe9f47b54ea)" style="fill: none; stroke: #ffffff; stroke-linecap: round"/>
     </g>
     <g id="text_11">
      <!-- 1000 -->
      <g style="fill: #262626" transform="translate(30.365 174.884027)scale(0.11 -0.11)">
       <use xlink:href="#DejaVuSans-31"/>
       <use xlink:href="#DejaVuSans-30" x="63.623047"/>
       <use xlink:href="#DejaVuSans-30" x="127.246094"/>
       <use xlink:href="#DejaVuSans-30" x="190.869141"/>
      </g>
     </g>
    </g>
    <g id="ytick_4">
     <g id="line2d_11">
      <path d="M 67.86 115.129602 
L 447.84 115.129602 
" clip-path="url(#pe9f47b54ea)" style="fill: none; stroke: #ffffff; stroke-linecap: round"/>
     </g>
     <g id="text_12">
      <!-- 1500 -->
      <g style="fill: #262626" transform="translate(30.365 119.308743)scale(0.11 -0.11)">
       <use xlink:href="#DejaVuSans-31"/>
       <use xlink:href="#DejaVuSans-35" x="63.623047"/>
       <use xlink:href="#DejaVuSans-30" x="127.246094"/>
       <use xlink:href="#DejaVuSans-30" x="190.869141"/>
      </g>
     </g>
    </g>
    <g id="ytick_5">
     <g id="line2d_12">
      <path d="M 67.86 59.554318 
L 447.84 59.554318 
" clip-path="url(#pe9f47b54ea)" style="fill: none; stroke: #ffffff; stroke-linecap: round"/>
     </g>
     <g id="text_13">
      <!-- 2000 -->
      <g style="fill: #262626" transform="translate(30.365 63.733459)scale(0.11 -0.11)">
       <use xlink:href="#DejaVuSans-32"/>
       <use xlink:href="#DejaVuSans-30" x="63.623047"/>
       <use xlink:href="#DejaVuSans-30" x="127.246094"/>
       <use xlink:href="#DejaVuSans-30" x="190.869141"/>
      </g>
     </g>
    </g>
    <g id="text_14">
     <!-- # Δx &gt; 20 -->
     <g style="fill: #262626" transform="translate(23.453438 190.054688)rotate(-90)scale(0.14 -0.14)">
      <defs>
       <path id="DejaVuSans-23" d="M 3272 2816 
L 2363 2816 
L 2100 1772 
L 3016 1772 
L 3272 2816 
z
M 2803 4594 
L 2478 3297 
L 3391 3297 
L 3719 4594 
L 4219 4594 
L 3897 3297 
L 4872 3297 
L 4872 2816 
L 3775 2816 
L 3519 1772 
L 4513 1772 
L 4513 1294 
L 3397 1294 
L 3072 0 
L 2572 0 
L 2894 1294 
L 1978 1294 
L 1656 0 
L 1153 0 
L 1478 1294 
L 494 1294 
L 494 1772 
L 1594 1772 
L 1856 2816 
L 850 2816 
L 850 3297 
L 1978 3297 
L 2297 4594 
L 2803 4594 
z
" transform="scale(0.015625)"/>
       <path id="DejaVuSans-394" d="M 2188 4044 
L 906 525 
L 3472 525 
L 2188 4044 
z
M 50 0 
L 1831 4666 
L 2547 4666 
L 4325 0 
L 50 0 
z
" transform="scale(0.015625)"/>
       <path id="DejaVuSans-78" d="M 3513 3500 
L 2247 1797 
L 3578 0 
L 2900 0 
L 1881 1375 
L 863 0 
L 184 0 
L 1544 1831 
L 300 3500 
L 978 3500 
L 1906 2253 
L 2834 3500 
L 3513 3500 
z
" transform="scale(0.015625)"/>
       <path id="DejaVuSans-3e" d="M 678 3150 
L 678 3719 
L 4684 2266 
L 4684 1747 
L 678 294 
L 678 863 
L 3897 2003 
L 678 3150 
z
" transform="scale(0.015625)"/>
      </defs>
      <use xlink:href="#DejaVuSans-23"/>
      <use xlink:href="#DejaVuSans-20" x="83.789062"/>
      <use xlink:href="#DejaVuSans-394" x="115.576172"/>
      <use xlink:href="#DejaVuSans-78" x="183.984375"/>
      <use xlink:href="#DejaVuSans-20" x="243.164062"/>
      <use xlink:href="#DejaVuSans-3e" x="274.951172"/>
      <use xlink:href="#DejaVuSans-20" x="358.740234"/>
      <use xlink:href="#DejaVuSans-32" x="390.527344"/>
      <use xlink:href="#DejaVuSans-30" x="454.150391"/>
     </g>
    </g>
   </g>
   <g id="PolyCollection_1">
    <defs>
     <path id="mb29d1c981c" d="M 85.131818 -308.942699 
L 85.131818 -308.942699 
L 88.034645 -74.859602 
L 90.937471 -77.416065 
L 93.840298 -274.486023 
L 96.743125 -261.926009 
L 99.645951 -74.859602 
L 102.548778 -86.308111 
L 105.451604 -111.761591 
L 108.354431 -74.859602 
L 111.257257 -255.256974 
L 114.160084 -214.020114 
L 117.062911 -301.27331 
L 119.965737 -309.387301 
L 122.868564 -96.089361 
L 125.77139 -316.612088 
L 128.674217 -227.691634 
L 131.577044 -153.776506 
L 134.47987 -188.455483 
L 137.382697 -304.496676 
L 140.285523 -216.798878 
L 143.18835 -74.859602 
L 146.091176 -281.043906 
L 148.994003 -103.981051 
L 151.89683 -74.859602 
L 154.799656 -119.875582 
L 157.702483 -271.707259 
L 160.605309 -74.859602 
L 163.508136 -226.357827 
L 166.410963 -141.438793 
L 169.313789 -298.827997 
L 172.216616 -160.667841 
L 175.119442 -208.573736 
L 178.022269 -87.864219 
L 180.925095 -158.778281 
L 183.827922 -272.929915 
L 186.730749 -108.204773 
L 189.633575 -122.654347 
L 192.536402 -74.859602 
L 195.439228 -193.123807 
L 198.342055 -262.14831 
L 201.244882 -221.911804 
L 204.147708 -143.217202 
L 207.050535 -74.859602 
L 209.953361 -161.557045 
L 212.856188 -82.417841 
L 215.759015 -191.567699 
L 218.661841 -254.145469 
L 221.564668 -80.639432 
L 224.467494 -63.744545 
L 227.370321 -113.651151 
L 230.273147 -81.639787 
L 233.175974 -97.645469 
L 236.078801 -181.119545 
L 238.981627 -219.466491 
L 241.884454 -96.422812 
L 244.78728 -280.488153 
L 247.690107 -312.277216 
L 250.592934 -266.483182 
L 253.49576 -319.835455 
L 256.398587 -251.255554 
L 259.301413 -75.081903 
L 262.20424 -110.761236 
L 265.107066 -104.759105 
L 268.009893 -125.099659 
L 270.91272 -86.641562 
L 273.815546 -274.152571 
L 276.718373 -148.330128 
L 279.621199 -227.02473 
L 282.524026 -207.128778 
L 285.426853 -92.199091 
L 288.329679 -85.641207 
L 291.232506 -76.526861 
L 294.135332 -212.130554 
L 297.038159 -74.970753 
L 299.940985 -267.372386 
L 302.843812 -302.495966 
L 305.746639 -76.193409 
L 308.649465 -88.419972 
L 311.552292 -274.374872 
L 314.455118 -274.152571 
L 317.357945 -73.081193 
L 320.260772 -175.450866 
L 323.163598 -223.245611 
L 326.066425 -294.826577 
L 328.969251 -74.859602 
L 331.872078 -108.538224 
L 334.774905 -319.279702 
L 337.677731 -86.641562 
L 340.580558 -86.530412 
L 343.483384 -100.979986 
L 346.386211 -129.434531 
L 349.289037 -80.639432 
L 352.191864 -137.215071 
L 355.094691 -181.897599 
L 357.997517 -84.085099 
L 360.900344 -105.64831 
L 363.80317 -99.090426 
L 366.705997 -228.136236 
L 369.608824 -169.448736 
L 372.51165 -261.814858 
L 375.414477 -291.047457 
L 378.317303 -258.924943 
L 381.22013 -105.203707 
L 384.122956 -312.721818 
L 387.025783 -75.637656 
L 389.92861 -258.146889 
L 392.831436 -260.481051 
L 395.734263 -273.707969 
L 398.637089 -114.095753 
L 401.539916 -255.701577 
L 404.442743 -279.154347 
L 407.345569 -75.971108 
L 410.248396 -87.753068 
L 413.151222 -76.30456 
L 416.054049 -303.162869 
L 418.956875 -158.333679 
L 421.859702 -288.490994 
L 424.762529 -74.859602 
L 427.665355 -74.859602 
L 430.568182 -319.057401 
L 430.568182 -319.057401 
L 430.568182 -319.057401 
L 427.665355 -74.859602 
L 424.762529 -74.859602 
L 421.859702 -288.490994 
L 418.956875 -158.333679 
L 416.054049 -303.162869 
L 413.151222 -76.30456 
L 410.248396 -87.753068 
L 407.345569 -75.971108 
L 404.442743 -279.154347 
L 401.539916 -255.701577 
L 398.637089 -114.095753 
L 395.734263 -273.707969 
L 392.831436 -260.481051 
L 389.92861 -258.146889 
L 387.025783 -75.637656 
L 384.122956 -312.721818 
L 381.22013 -105.203707 
L 378.317303 -258.924943 
L 375.414477 -291.047457 
L 372.51165 -261.814858 
L 369.608824 -169.448736 
L 366.705997 -228.136236 
L 363.80317 -99.090426 
L 360.900344 -105.64831 
L 357.997517 -84.085099 
L 355.094691 -181.897599 
L 352.191864 -137.215071 
L 349.289037 -80.639432 
L 346.386211 -129.434531 
L 343.483384 -100.979986 
L 340.580558 -86.530412 
L 337.677731 -86.641562 
L 334.774905 -319.279702 
L 331.872078 -108.538224 
L 328.969251 -74.859602 
L 326.066425 -294.826577 
L 323.163598 -223.245611 
L 320.260772 -175.450866 
L 317.357945 -73.081193 
L 314.455118 -274.152571 
L 311.552292 -274.374872 
L 308.649465 -88.419972 
L 305.746639 -76.193409 
L 302.843812 -302.495966 
L 299.940985 -267.372386 
L 297.038159 -74.970753 
L 294.135332 -212.130554 
L 291.232506 -76.526861 
L 288.329679 -85.641207 
L 285.426853 -92.199091 
L 282.524026 -207.128778 
L 279.621199 -227.02473 
L 276.718373 -148.330128 
L 273.815546 -274.152571 
L 270.91272 -86.641562 
L 268.009893 -125.099659 
L 265.107066 -104.759105 
L 262.20424 -110.761236 
L 259.301413 -75.081903 
L 256.398587 -251.255554 
L 253.49576 -319.835455 
L 250.592934 -266.483182 
L 247.690107 -312.277216 
L 244.78728 -280.488153 
L 241.884454 -96.422812 
L 238.981627 -219.466491 
L 236.078801 -181.119545 
L 233.175974 -97.645469 
L 230.273147 -81.639787 
L 227.370321 -113.651151 
L 224.467494 -63.744545 
L 221.564668 -80.639432 
L 218.661841 -254.145469 
L 215.759015 -191.567699 
L 212.856188 -82.417841 
L 209.953361 -161.557045 
L 207.050535 -74.859602 
L 204.147708 -143.217202 
L 201.244882 -221.911804 
L 198.342055 -262.14831 
L 195.439228 -193.123807 
L 192.536402 -74.859602 
L 189.633575 -122.654347 
L 186.730749 -108.204773 
L 183.827922 -272.929915 
L 180.925095 -158.778281 
L 178.022269 -87.864219 
L 175.119442 -208.573736 
L 172.216616 -160.667841 
L 169.313789 -298.827997 
L 166.410963 -141.438793 
L 163.508136 -226.357827 
L 160.605309 -74.859602 
L 157.702483 -271.707259 
L 154.799656 -119.875582 
L 151.89683 -74.859602 
L 148.994003 -103.981051 
L 146.091176 -281.043906 
L 143.18835 -74.859602 
L 140.285523 -216.798878 
L 137.382697 -304.496676 
L 134.47987 -188.455483 
L 131.577044 -153.776506 
L 128.674217 -227.691634 
L 125.77139 -316.612088 
L 122.868564 -96.089361 
L 119.965737 -309.387301 
L 117.062911 -301.27331 
L 114.160084 -214.020114 
L 111.257257 -255.256974 
L 108.354431 -74.859602 
L 105.451604 -111.761591 
L 102.548778 -86.308111 
L 99.645951 -74.859602 
L 96.743125 -261.926009 
L 93.840298 -274.486023 
L 90.937471 -77.416065 
L 88.034645 -74.859602 
L 85.131818 -308.942699 
z
" style="stroke: #ffffff; stroke-opacity: 0.5"/>
    </defs>
    <g clip-path="url(#pe9f47b54ea)">
     <use xlink:href="#mb29d1c981c" x="0" y="345.6" style="fill: #4c72b0; fill-opacity: 0.5; stroke: #ffffff; stroke-opacity: 0.5"/>
    </g>
   </g>
   <g id="PolyCollection_2">
    <defs>
     <path id="mb571d9306d" d="M 85.131818 -119.697741 
L 85.131818 -195.68027 
L 88.034645 -187.744119 
L 90.937471 -182.408892 
L 93.840298 -185.85456 
L 96.743125 -248.854702 
L 99.645951 -267.061165 
L 102.548778 -294.337514 
L 105.451604 -310.876719 
L 108.354431 -280.843835 
L 111.257257 -286.134602 
L 114.160084 -287.535099 
L 117.062911 -287.801861 
L 119.965737 -298.338935 
L 122.868564 -293.848452 
L 125.77139 -289.291278 
L 128.674217 -295.715781 
L 131.577044 -284.156122 
L 134.47987 -293.915142 
L 137.382697 -266.349801 
L 140.285523 -285.267628 
L 143.18835 -292.425724 
L 146.091176 -290.002642 
L 148.994003 -283.956051 
L 151.89683 -276.131051 
L 154.799656 -283.844901 
L 157.702483 -268.15044 
L 160.605309 -299.872813 
L 163.508136 -258.547031 
L 166.410963 -278.265142 
L 169.313789 -276.775724 
L 172.216616 -293.759531 
L 175.119442 -251.344474 
L 178.022269 -287.62402 
L 180.925095 -270.462372 
L 183.827922 -263.637727 
L 186.730749 -288.290923 
L 189.633575 -286.579205 
L 192.536402 -284.978636 
L 195.439228 -293.403849 
L 198.342055 -288.735526 
L 201.244882 -293.47054 
L 204.147708 -271.040355 
L 207.050535 -300.028423 
L 209.953361 -244.964432 
L 212.856188 -232.493338 
L 215.759015 -282.266562 
L 218.661841 -231.159531 
L 221.564668 -232.471108 
L 224.467494 -276.242202 
L 227.370321 -235.561094 
L 230.273147 -234.983111 
L 233.175974 -249.543835 
L 236.078801 -281.466278 
L 238.981627 -255.501506 
L 241.884454 -273.819119 
L 244.78728 -230.537088 
L 247.690107 -253.033963 
L 250.592934 -243.608395 
L 253.49576 -262.503991 
L 256.398587 -251.811307 
L 259.301413 -291.203068 
L 262.20424 -292.225653 
L 265.107066 -266.661023 
L 268.009893 -281.043906 
L 270.91272 -226.691278 
L 273.815546 -239.051222 
L 276.718373 -267.083395 
L 279.621199 -246.876222 
L 282.524026 -287.60179 
L 285.426853 -258.21358 
L 288.329679 -266.283111 
L 291.232506 -278.754205 
L 294.135332 -281.977571 
L 297.038159 -288.535455 
L 299.940985 -264.571392 
L 302.843812 -296.604986 
L 305.746639 -252.43375 
L 308.649465 -265.171605 
L 311.552292 -248.343409 
L 314.455118 -256.724162 
L 317.357945 -277.93169 
L 320.260772 -227.447102 
L 323.163598 -247.431974 
L 326.066425 -280.110241 
L 328.969251 -266.772173 
L 331.872078 -259.769687 
L 334.774905 -256.568551 
L 337.677731 -237.739645 
L 340.580558 -222.356406 
L 343.483384 -244.67544 
L 346.386211 -245.564645 
L 349.289037 -258.3025 
L 352.191864 -282.088722 
L 355.094691 -287.312798 
L 357.997517 -287.913011 
L 360.900344 -304.029844 
L 363.80317 -253.767557 
L 366.705997 -275.352997 
L 369.608824 -254.123239 
L 372.51165 -274.241491 
L 375.414477 -293.359389 
L 378.317303 -269.373097 
L 381.22013 -230.89277 
L 384.122956 -291.53652 
L 387.025783 -297.894332 
L 389.92861 -291.158608 
L 392.831436 -289.847031 
L 395.734263 -270.795824 
L 398.637089 -274.285952 
L 401.539916 -285.023097 
L 404.442743 -235.894545 
L 407.345569 -250.966563 
L 410.248396 -256.212869 
L 413.151222 -249.299304 
L 416.054049 -229.00321 
L 418.956875 -284.333963 
L 421.859702 -302.807188 
L 424.762529 -240.096037 
L 427.665355 -256.25733 
L 430.568182 -262.459531 
L 430.568182 -218.777358 
L 430.568182 -218.777358 
L 427.665355 -217.354631 
L 424.762529 -195.591349 
L 421.859702 -216.243125 
L 418.956875 -207.840142 
L 416.054049 -197.56983 
L 413.151222 -164.847102 
L 410.248396 -200.192983 
L 407.345569 -198.258963 
L 404.442743 -195.191207 
L 401.539916 -198.903636 
L 398.637089 -207.151009 
L 395.734263 -179.474517 
L 392.831436 -186.588153 
L 389.92861 -191.79 
L 387.025783 -211.641491 
L 384.122956 -219.955554 
L 381.22013 -172.761023 
L 378.317303 -200.904347 
L 375.414477 -181.164006 
L 372.51165 -194.390923 
L 369.608824 -196.124872 
L 366.705997 -155.354844 
L 363.80317 -186.921605 
L 360.900344 -192.745895 
L 357.997517 -169.693267 
L 355.094691 -244.208608 
L 352.191864 -189.055696 
L 349.289037 -159.289574 
L 346.386211 -166.781122 
L 343.483384 -165.847457 
L 340.580558 -148.974801 
L 337.677731 -179.652358 
L 334.774905 -165.136094 
L 331.872078 -180.14142 
L 328.969251 -202.104773 
L 326.066425 -191.167557 
L 323.163598 -176.295611 
L 320.260772 -176.317841 
L 317.357945 -205.172528 
L 314.455118 -183.520398 
L 311.552292 -182.720114 
L 308.649465 -180.541562 
L 305.746639 -188.900085 
L 302.843812 -177.762798 
L 299.940985 -185.076506 
L 297.038159 -200.393054 
L 294.135332 -176.362301 
L 291.232506 -176.428991 
L 288.329679 -197.836591 
L 285.426853 -147.440923 
L 282.524026 -185.143196 
L 279.621199 -192.123452 
L 276.718373 -134.858679 
L 273.815546 -197.147457 
L 270.91272 -196.613935 
L 268.009893 -178.251861 
L 265.107066 -179.252216 
L 262.20424 -159.867557 
L 259.301413 -207.995753 
L 256.398587 -201.61571 
L 253.49576 -180.03027 
L 250.592934 -186.521463 
L 247.690107 -172.783253 
L 244.78728 -205.46152 
L 241.884454 -192.345753 
L 238.981627 -200.993267 
L 236.078801 -175.739858 
L 233.175974 -135.592273 
L 230.273147 -188.833395 
L 227.370321 -166.581051 
L 224.467494 -156.266278 
L 221.564668 -154.865781 
L 218.661841 -178.740923 
L 215.759015 -186.654844 
L 212.856188 -192.968196 
L 209.953361 -186.299162 
L 207.050535 -214.798168 
L 204.147708 -149.508324 
L 201.244882 -170.29348 
L 198.342055 -130.657187 
L 195.439228 -189.189077 
L 192.536402 -193.590639 
L 189.633575 -196.191562 
L 186.730749 -202.749446 
L 183.827922 -200.993267 
L 180.925095 -221.04483 
L 178.022269 -178.963224 
L 175.119442 -205.661591 
L 172.216616 -207.262159 
L 169.313789 -149.486094 
L 166.410963 -232.78233 
L 163.508136 -157.689006 
L 160.605309 -178.607543 
L 157.702483 -87.375156 
L 154.799656 -208.573736 
L 151.89683 -170.760312 
L 148.994003 -193.72402 
L 146.091176 -186.899375 
L 143.18835 -214.553636 
L 140.285523 -222.311946 
L 137.382697 -204.950227 
L 134.47987 -252.589361 
L 131.577044 -171.782898 
L 128.674217 -239.095682 
L 125.77139 -221.022599 
L 122.868564 -251.211094 
L 119.965737 -215.798523 
L 117.062911 -165.358395 
L 114.160084 -191.011946 
L 111.257257 -196.080412 
L 108.354431 -199.348239 
L 105.451604 -231.759744 
L 102.548778 -219.844403 
L 99.645951 -186.943835 
L 96.743125 -180.963935 
L 93.840298 -127.100369 
L 90.937471 -133.347031 
L 88.034645 -126.589077 
L 85.131818 -119.697741 
z
" style="stroke: #ffffff; stroke-opacity: 0.5"/>
    </defs>
    <g clip-path="url(#pe9f47b54ea)">
     <use xlink:href="#mb571d9306d" x="0" y="345.6" style="fill: #dd8452; fill-opacity: 0.5; stroke: #ffffff; stroke-opacity: 0.5"/>
    </g>
   </g>
   <g id="PolyCollection_3">
    <defs>
     <path id="m5a6a84f86a" d="M 85.131818 -146.062656 
L 85.131818 -184.142841 
L 88.034645 -176.540142 
L 90.937471 -176.384531 
L 93.840298 -168.35946 
L 96.743125 -183.320327 
L 99.645951 -224.712798 
L 102.548778 -282.288793 
L 105.451604 -281.84419 
L 108.354431 -261.059034 
L 111.257257 -299.228139 
L 114.160084 -302.006903 
L 117.062911 -305.096889 
L 119.965737 -298.961378 
L 122.868564 -300.784247 
L 125.77139 -298.627926 
L 128.674217 -287.401719 
L 131.577044 -290.380554 
L 134.47987 -284.756335 
L 137.382697 -289.935952 
L 140.285523 -285.223168 
L 143.18835 -292.714716 
L 146.091176 -262.348381 
L 148.994003 -296.093693 
L 151.89683 -306.275085 
L 154.799656 -289.313509 
L 157.702483 -295.56017 
L 160.605309 -289.780341 
L 163.508136 -296.071463 
L 166.410963 -294.293054 
L 169.313789 -292.403494 
L 172.216616 -295.160028 
L 175.119442 -301.25108 
L 178.022269 -285.200938 
L 180.925095 -288.024162 
L 183.827922 -261.792628 
L 186.730749 -290.558395 
L 189.633575 -281.82196 
L 192.536402 -295.44902 
L 195.439228 -271.99625 
L 198.342055 -289.824801 
L 201.244882 -273.90804 
L 204.147708 -294.493125 
L 207.050535 -289.135668 
L 209.953361 -299.38375 
L 212.856188 -276.686804 
L 215.759015 -295.738011 
L 218.661841 -294.626506 
L 221.564668 -296.493835 
L 224.467494 -260.32544 
L 227.370321 -289.113437 
L 230.273147 -295.026648 
L 233.175974 -292.536875 
L 236.078801 -283.77821 
L 238.981627 -296.871747 
L 241.884454 -290.469474 
L 244.78728 -239.695895 
L 247.690107 -257.991278 
L 250.592934 -282.399943 
L 253.49576 -311.232401 
L 256.398587 -274.263722 
L 259.301413 -288.824446 
L 262.20424 -261.481406 
L 265.107066 -279.532259 
L 268.009893 -292.759176 
L 270.91272 -296.604986 
L 273.815546 -290.091563 
L 276.718373 -290.536165 
L 279.621199 -286.690355 
L 282.524026 -295.160028 
L 285.426853 -284.934176 
L 288.329679 -284.356193 
L 291.232506 -286.801506 
L 294.135332 -283.422528 
L 297.038159 -300.873168 
L 299.940985 -292.536875 
L 302.843812 -288.179773 
L 305.746639 -271.373807 
L 308.649465 -306.297315 
L 311.552292 -283.355838 
L 314.455118 -273.685739 
L 317.357945 -282.800085 
L 320.260772 -279.73233 
L 323.163598 -286.067912 
L 326.066425 -298.272244 
L 328.969251 -310.721108 
L 331.872078 -302.362585 
L 334.774905 -306.408466 
L 337.677731 -266.994474 
L 340.580558 -238.65108 
L 343.483384 -290.091563 
L 346.386211 -286.757045 
L 349.289037 -297.560881 
L 352.191864 -291.736591 
L 355.094691 -294.648736 
L 357.997517 -287.66848 
L 360.900344 -278.909815 
L 363.80317 -278.887585 
L 366.705997 -280.421463 
L 369.608824 -263.393196 
L 372.51165 -258.947173 
L 375.414477 -263.393196 
L 378.317303 -268.261591 
L 381.22013 -290.625085 
L 384.122956 -284.400653 
L 387.025783 -257.657827 
L 389.92861 -291.869972 
L 392.831436 -283.177997 
L 395.734263 -279.020966 
L 398.637089 -293.737301 
L 401.539916 -299.161449 
L 404.442743 -298.383395 
L 407.345569 -286.823736 
L 410.248396 -308.164645 
L 413.151222 -298.427855 
L 416.054049 -298.850227 
L 418.956875 -284.711875 
L 421.859702 -298.161094 
L 424.762529 -297.538651 
L 427.665355 -287.290568 
L 430.568182 -283.422528 
L 430.568182 -193.435028 
L 430.568182 -193.435028 
L 427.665355 -186.699304 
L 424.762529 -191.523239 
L 421.859702 -221.822884 
L 418.956875 -186.943835 
L 416.054049 -197.881051 
L 413.151222 -202.238153 
L 410.248396 -193.590639 
L 407.345569 -228.514148 
L 404.442743 -206.239574 
L 401.539916 -228.536378 
L 398.637089 -237.006051 
L 395.734263 -210.396605 
L 392.831436 -232.493338 
L 389.92861 -227.780554 
L 387.025783 -197.65875 
L 384.122956 -235.961236 
L 381.22013 -234.87196 
L 378.317303 -232.070966 
L 375.414477 -193.346108 
L 372.51165 -203.816491 
L 369.608824 -160.979062 
L 366.705997 -96.978565 
L 363.80317 -188.544403 
L 360.900344 -147.485384 
L 357.997517 -114.473665 
L 355.094691 -213.997884 
L 352.191864 -161.601506 
L 349.289037 -224.735028 
L 346.386211 -161.890497 
L 343.483384 -214.753707 
L 340.580558 -126.122244 
L 337.677731 -216.932259 
L 334.774905 -180.808324 
L 331.872078 -140.260597 
L 328.969251 -194.857756 
L 326.066425 -175.339716 
L 323.163598 -252.34483 
L 320.260772 -211.30804 
L 317.357945 -191.523239 
L 314.455118 -121.253849 
L 311.552292 -191.70108 
L 308.649465 -182.920185 
L 305.746639 -88.753423 
L 302.843812 -113.384389 
L 299.940985 -137.948665 
L 297.038159 -189.90044 
L 294.135332 -192.323523 
L 291.232506 -181.697528 
L 288.329679 -154.221108 
L 285.426853 -203.327429 
L 282.524026 -216.554347 
L 279.621199 -68.946392 
L 276.718373 -187.588509 
L 273.815546 -190.767415 
L 270.91272 -231.00392 
L 268.009893 -88.486662 
L 265.107066 -204.038793 
L 262.20424 -106.693125 
L 259.301413 -169.026364 
L 256.398587 -204.683466 
L 253.49576 -146.018196 
L 250.592934 -247.165213 
L 247.690107 -81.928778 
L 244.78728 -113.54 
L 241.884454 -268.483892 
L 238.981627 -73.814787 
L 236.078801 -240.096037 
L 233.175974 -172.649872 
L 230.273147 -206.795327 
L 227.370321 -136.303636 
L 224.467494 -78.727642 
L 221.564668 -175.606477 
L 218.661841 -276.553423 
L 215.759015 -72.703281 
L 212.856188 -206.973168 
L 209.953361 -173.783608 
L 207.050535 -197.414219 
L 204.147708 -213.33098 
L 201.244882 -125.899943 
L 198.342055 -211.974943 
L 195.439228 -137.881974 
L 192.536402 -230.98169 
L 189.633575 -210.329915 
L 186.730749 -217.999304 
L 183.827922 -73.992628 
L 180.925095 -175.117415 
L 178.022269 -74.748452 
L 175.119442 -197.480909 
L 172.216616 -185.454418 
L 169.313789 -127.389361 
L 166.410963 -162.49071 
L 163.508136 -223.09 
L 160.605309 -225.979915 
L 157.702483 -268.328281 
L 154.799656 -259.414006 
L 151.89683 -260.970114 
L 148.994003 -241.518764 
L 146.091176 -228.158466 
L 143.18835 -236.450298 
L 140.285523 -63.744545 
L 137.382697 -165.758537 
L 134.47987 -159.356264 
L 131.577044 -235.961236 
L 128.674217 -238.028636 
L 125.77139 -208.662656 
L 122.868564 -246.720611 
L 119.965737 -254.678991 
L 117.062911 -64.744901 
L 114.160084 -240.874091 
L 111.257257 -227.224801 
L 108.354431 -124.410526 
L 105.451604 -226.357827 
L 102.548778 -176.517912 
L 99.645951 -95.400227 
L 96.743125 -124.721747 
L 93.840298 -152.75392 
L 90.937471 -153.220753 
L 88.034645 -143.306122 
L 85.131818 -146.062656 
z
" style="stroke: #ffffff; stroke-opacity: 0.5"/>
    </defs>
    <g clip-path="url(#pe9f47b54ea)">
     <use xlink:href="#m5a6a84f86a" x="0" y="345.6" style="fill: #55a868; fill-opacity: 0.5; stroke: #ffffff; stroke-opacity: 0.5"/>
    </g>
   </g>
   <g id="PolyCollection_4">
    <defs>
     <path id="m35727c35e0" d="M 85.131818 -133.658253 
L 85.131818 -201.237798 
L 88.034645 -233.693764 
L 90.937471 -186.232472 
L 93.840298 -227.469332 
L 96.743125 -214.575866 
L 99.645951 -275.041776 
L 102.548778 -272.263011 
L 105.451604 -270.818054 
L 108.354431 -281.488509 
L 111.257257 -286.934886 
L 114.160084 -261.036804 
L 117.062911 -219.13304 
L 119.965737 -249.365994 
L 122.868564 -243.030412 
L 125.77139 -263.259815 
L 128.674217 -214.353565 
L 131.577044 -247.476435 
L 134.47987 -256.146179 
L 137.382697 -265.705128 
L 140.285523 -220.911449 
L 143.18835 -240.251648 
L 146.091176 -276.153281 
L 148.994003 -241.696605 
L 151.89683 -242.252358 
L 154.799656 -230.359247 
L 157.702483 -240.029347 
L 160.605309 -216.798878 
L 163.508136 -245.364574 
L 166.410963 -244.253068 
L 169.313789 -256.813082 
L 172.216616 -257.368835 
L 175.119442 -275.597528 
L 178.022269 -275.93098 
L 180.925095 -218.021534 
L 183.827922 -272.929915 
L 186.730749 -248.032187 
L 189.633575 -278.265142 
L 192.536402 -308.164645 
L 195.439228 -256.701932 
L 198.342055 -266.483182 
L 201.244882 -303.162869 
L 204.147708 -243.141562 
L 207.050535 -259.369545 
L 209.953361 -279.265497 
L 212.856188 -263.037514 
L 215.759015 -296.271534 
L 218.661841 -281.599659 
L 221.564668 -275.81983 
L 224.467494 -257.702287 
L 227.370321 -275.708679 
L 230.273147 -286.601435 
L 233.175974 -268.372741 
L 236.078801 -234.027216 
L 238.981627 -308.609247 
L 241.884454 -264.927074 
L 244.78728 -249.254844 
L 247.690107 -268.03929 
L 250.592934 -268.706193 
L 253.49576 -295.715781 
L 256.398587 -252.922812 
L 259.301413 -271.484957 
L 262.20424 -255.701577 
L 265.107066 -255.701577 
L 268.009893 -318.057045 
L 270.91272 -257.146534 
L 273.815546 -236.139077 
L 276.718373 -263.926719 
L 279.621199 -287.268338 
L 282.524026 -230.248097 
L 285.426853 -251.589006 
L 288.329679 -257.702287 
L 291.232506 -276.709034 
L 294.135332 -288.268693 
L 297.038159 -236.250227 
L 299.940985 -257.479986 
L 302.843812 -243.252713 
L 305.746639 -234.138366 
L 308.649465 -273.374517 
L 311.552292 -229.914645 
L 314.455118 -247.142983 
L 317.357945 -263.482116 
L 320.260772 -275.264077 
L 323.163598 -244.253068 
L 326.066425 -276.709034 
L 328.969251 -230.248097 
L 331.872078 -249.254844 
L 334.774905 -243.363864 
L 337.677731 -252.922812 
L 340.580558 -284.267273 
L 343.483384 -233.582614 
L 346.386211 -251.144403 
L 349.289037 -269.150795 
L 352.191864 -274.486023 
L 355.094691 -294.937727 
L 357.997517 -295.938082 
L 360.900344 -242.252358 
L 363.80317 -259.814148 
L 366.705997 -279.710099 
L 369.608824 -252.47821 
L 372.51165 -284.823026 
L 375.414477 -249.810597 
L 378.317303 -288.602145 
L 381.22013 -258.035739 
L 384.122956 -254.590071 
L 387.025783 -262.704062 
L 389.92861 -241.696605 
L 392.831436 -254.701222 
L 395.734263 -256.035028 
L 398.637089 -255.701577 
L 401.539916 -291.49206 
L 404.442743 -235.027571 
L 407.345569 -305.941634 
L 410.248396 -277.93169 
L 413.151222 -289.935952 
L 416.054049 -305.941634 
L 418.956875 -242.141207 
L 421.859702 -263.926719 
L 424.762529 -254.923523 
L 427.665355 -294.604276 
L 430.568182 -275.93098 
L 430.568182 -182.897955 
L 430.568182 -182.897955 
L 427.665355 -178.451932 
L 424.762529 -208.907187 
L 421.859702 -185.120966 
L 418.956875 -192.345753 
L 416.054049 -227.135881 
L 413.151222 -219.577642 
L 410.248396 -180.11919 
L 407.345569 -203.349659 
L 404.442743 -186.343622 
L 401.539916 -153.887656 
L 398.637089 -213.908963 
L 395.734263 -205.46152 
L 392.831436 -222.912159 
L 389.92861 -195.346818 
L 387.025783 -223.245611 
L 384.122956 -183.564858 
L 381.22013 -216.243125 
L 378.317303 -168.448381 
L 375.414477 -206.461875 
L 372.51165 -210.352145 
L 369.608824 -209.907543 
L 366.705997 -224.468267 
L 363.80317 -163.668906 
L 360.900344 -182.786804 
L 357.997517 -232.359957 
L 355.094691 -188.010881 
L 352.191864 -234.138366 
L 349.289037 -202.460455 
L 346.386211 -182.453352 
L 343.483384 -205.57267 
L 340.580558 -213.575511 
L 337.677731 -216.243125 
L 334.774905 -185.009815 
L 331.872078 -180.897244 
L 328.969251 -191.456548 
L 326.066425 -203.46081 
L 323.163598 -210.685597 
L 320.260772 -216.798878 
L 317.357945 -199.348239 
L 314.455118 -224.801719 
L 311.552292 -185.787869 
L 308.649465 -196.902926 
L 305.746639 -220.022244 
L 302.843812 -212.686307 
L 299.940985 -166.892273 
L 297.038159 -178.674233 
L 294.135332 -201.904702 
L 291.232506 -221.022599 
L 288.329679 -205.794972 
L 285.426853 -225.690923 
L 282.524026 -184.00946 
L 279.621199 -199.903991 
L 276.718373 -195.457969 
L 273.815546 -203.349659 
L 270.91272 -208.351435 
L 268.009893 -210.240994 
L 265.107066 -187.566278 
L 262.20424 -143.772955 
L 259.301413 -169.559886 
L 256.398587 -168.559531 
L 253.49576 -207.017628 
L 250.592934 -209.240639 
L 247.690107 -166.114219 
L 244.78728 -194.124162 
L 241.884454 -130.768338 
L 238.981627 -210.796747 
L 236.078801 -134.102855 
L 233.175974 -207.017628 
L 230.273147 -190.789645 
L 227.370321 -221.356051 
L 224.467494 -227.580483 
L 221.564668 -184.231761 
L 218.661841 -149.552784 
L 215.759015 -186.01017 
L 212.856188 -201.237798 
L 209.953361 -214.798168 
L 207.050535 -197.792131 
L 204.147708 -224.023665 
L 201.244882 -202.015852 
L 198.342055 -189.78929 
L 195.439228 -196.791776 
L 192.536402 -200.348594 
L 189.633575 -189.344687 
L 186.730749 -113.206548 
L 183.827922 -235.472173 
L 180.925095 -207.46223 
L 178.022269 -180.786094 
L 175.119442 -211.908253 
L 172.216616 -197.458679 
L 169.313789 -207.239929 
L 166.410963 -217.24348 
L 163.508136 -232.137656 
L 160.605309 -183.89831 
L 157.702483 -147.218622 
L 154.799656 -200.348594 
L 151.89683 -190.011591 
L 148.994003 -173.450156 
L 146.091176 -202.905057 
L 143.18835 -195.68027 
L 140.285523 -141.772244 
L 137.382697 -229.470043 
L 134.47987 -214.575866 
L 131.577044 -196.013722 
L 128.674217 -173.339006 
L 125.77139 -150.553139 
L 122.868564 -189.122386 
L 119.965737 -214.687017 
L 117.062911 -162.223949 
L 114.160084 -162.001648 
L 111.257257 -223.356761 
L 108.354431 -222.356406 
L 105.451604 -185.89902 
L 102.548778 -167.225724 
L 99.645951 -182.564503 
L 96.743125 -135.214361 
L 93.840298 -145.329062 
L 90.937471 -127.100369 
L 88.034645 -117.54142 
L 85.131818 -133.658253 
z
" style="stroke: #ffffff; stroke-opacity: 0.5"/>
    </defs>
    <g clip-path="url(#pe9f47b54ea)">
     <use xlink:href="#m35727c35e0" x="0" y="345.6" style="fill: #c44e52; fill-opacity: 0.5; stroke: #ffffff; stroke-opacity: 0.5"/>
    </g>
   </g>
   <g id="line2d_13">
    <path d="M 85.131818 36.657301 
L 88.034645 270.740398 
L 90.937471 268.183935 
L 93.840298 71.113977 
L 96.743125 83.673991 
L 99.645951 270.740398 
L 102.548778 259.291889 
L 105.451604 233.838409 
L 108.354431 270.740398 
L 111.257257 90.343026 
L 114.160084 131.579886 
L 117.062911 44.32669 
L 119.965737 36.212699 
L 122.868564 249.510639 
L 125.77139 28.987912 
L 128.674217 117.908366 
L 131.577044 191.823494 
L 134.47987 157.144517 
L 137.382697 41.103324 
L 140.285523 128.801122 
L 143.18835 270.740398 
L 146.091176 64.556094 
L 148.994003 241.618949 
L 151.89683 270.740398 
L 154.799656 225.724418 
L 157.702483 73.892741 
L 160.605309 270.740398 
L 163.508136 119.242173 
L 166.410963 204.161207 
L 169.313789 46.772003 
L 172.216616 184.932159 
L 175.119442 137.026264 
L 178.022269 257.735781 
L 180.925095 186.821719 
L 183.827922 72.670085 
L 186.730749 237.395227 
L 189.633575 222.945653 
L 192.536402 270.740398 
L 195.439228 152.476193 
L 198.342055 83.45169 
L 201.244882 123.688196 
L 204.147708 202.382798 
L 207.050535 270.740398 
L 209.953361 184.042955 
L 212.856188 263.182159 
L 215.759015 154.032301 
L 218.661841 91.454531 
L 221.564668 264.960568 
L 224.467494 281.855455 
L 227.370321 231.948849 
L 230.273147 263.960213 
L 233.175974 247.954531 
L 236.078801 164.480455 
L 238.981627 126.133509 
L 241.884454 249.177188 
L 244.78728 65.111847 
L 247.690107 33.322784 
L 250.592934 79.116818 
L 253.49576 25.764545 
L 256.398587 94.344446 
L 259.301413 270.518097 
L 262.20424 234.838764 
L 265.107066 240.840895 
L 268.009893 220.500341 
L 270.91272 258.958438 
L 273.815546 71.447429 
L 276.718373 197.269872 
L 279.621199 118.57527 
L 282.524026 138.471222 
L 285.426853 253.400909 
L 288.329679 259.958793 
L 291.232506 269.073139 
L 294.135332 133.469446 
L 297.038159 270.629247 
L 299.940985 78.227614 
L 302.843812 43.104034 
L 305.746639 269.406591 
L 308.649465 257.180028 
L 311.552292 71.225128 
L 314.455118 71.447429 
L 317.357945 272.518807 
L 320.260772 170.149134 
L 323.163598 122.354389 
L 326.066425 50.773423 
L 328.969251 270.740398 
L 331.872078 237.061776 
L 334.774905 26.320298 
L 337.677731 258.958438 
L 340.580558 259.069588 
L 343.483384 244.620014 
L 346.386211 216.165469 
L 349.289037 264.960568 
L 352.191864 208.384929 
L 355.094691 163.702401 
L 357.997517 261.514901 
L 360.900344 239.95169 
L 363.80317 246.509574 
L 366.705997 117.463764 
L 369.608824 176.151264 
L 372.51165 83.785142 
L 375.414477 54.552543 
L 378.317303 86.675057 
L 381.22013 240.396293 
L 384.122956 32.878182 
L 387.025783 269.962344 
L 389.92861 87.453111 
L 392.831436 85.118949 
L 395.734263 71.892031 
L 398.637089 231.504247 
L 401.539916 89.898423 
L 404.442743 66.445653 
L 407.345569 269.628892 
L 410.248396 257.846932 
L 413.151222 269.29544 
L 416.054049 42.437131 
L 418.956875 187.266321 
L 421.859702 57.109006 
L 424.762529 270.740398 
L 427.665355 270.740398 
L 430.568182 26.542599 
" clip-path="url(#pe9f47b54ea)" style="fill: none; stroke: #4c72b0; stroke-width: 3; stroke-linecap: round"/>
   </g>
   <g id="line2d_14">
    <path d="M 85.131818 187.084034 
L 88.034645 184.37196 
L 90.937471 187.799844 
L 93.840298 186.63054 
L 96.743125 130.281648 
L 99.645951 112.790994 
L 102.548778 76.77821 
L 105.451604 67.477131 
L 108.354431 94.322216 
L 111.257257 86.417188 
L 114.160084 89.898423 
L 117.062911 117.788324 
L 119.965737 83.749574 
L 122.868564 78.338764 
L 125.77139 93.006193 
L 128.674217 71.398523 
L 131.577044 95.753835 
L 134.47987 75.684489 
L 137.382697 97.959062 
L 140.285523 88.511264 
L 143.18835 92.539361 
L 146.091176 91.939148 
L 148.994003 114.222614 
L 151.89683 102.800781 
L 154.799656 93.006193 
L 157.702483 138.09331 
L 160.605309 107.415753 
L 163.508136 115.240753 
L 166.410963 87.764332 
L 169.313789 132.958153 
L 172.216616 83.736236 
L 175.119442 108.562827 
L 178.022269 105.624006 
L 180.925095 99.092798 
L 183.827922 115.07625 
L 186.730749 105.792955 
L 189.633575 105.512855 
L 192.536402 90.485298 
L 195.439228 105.64179 
L 198.342055 114.725014 
L 201.244882 108.642855 
L 204.147708 131.135284 
L 207.050535 94.38446 
L 209.953361 119.909077 
L 212.856188 131.593224 
L 215.759015 122.078736 
L 218.661841 145.367003 
L 221.564668 155.646207 
L 224.467494 150.115355 
L 227.370321 152.720724 
L 230.273147 125.364347 
L 233.175974 162.106278 
L 236.078801 123.830469 
L 238.981627 116.605682 
L 241.884454 117.935043 
L 244.78728 123.372528 
L 247.690107 125.688906 
L 250.592934 121.429616 
L 253.49576 113.44456 
L 256.398587 111.64392 
L 259.301413 103.134233 
L 262.20424 114.173707 
L 265.107066 121.803082 
L 268.009893 123.007955 
L 270.91272 132.678054 
L 273.815546 127.302813 
L 276.718373 131.562102 
L 279.621199 119.962429 
L 282.524026 105.979688 
L 285.426853 145.873849 
L 288.329679 108.829588 
L 291.232506 125.084247 
L 294.135332 113.026634 
L 297.038159 111.194872 
L 299.940985 131.646577 
L 302.843812 132.255682 
L 305.746639 128.956733 
L 308.649465 117.299261 
L 311.552292 134.687656 
L 314.455118 126.284673 
L 317.357945 100.751165 
L 320.260772 149.279503 
L 323.163598 126.640355 
L 326.066425 112.039616 
L 328.969251 121.580781 
L 331.872078 120.98946 
L 334.774905 137.626477 
L 337.677731 138.871364 
L 340.580558 147.821207 
L 343.483384 147.363267 
L 346.386211 135.821392 
L 349.289037 140.996563 
L 352.191864 120.771605 
L 355.094691 83.184929 
L 357.997517 109.447585 
L 360.900344 107.371293 
L 363.80317 113.346747 
L 366.705997 133.731761 
L 369.608824 113.284503 
L 372.51165 119.348878 
L 375.414477 110.096705 
L 378.317303 109.18527 
L 381.22013 136.826193 
L 384.122956 93.744233 
L 387.025783 97.781222 
L 389.92861 101.627031 
L 392.831436 108.74956 
L 395.734263 129.041207 
L 398.637089 106.206435 
L 401.539916 112.172997 
L 404.442743 133.829574 
L 407.345569 125.146491 
L 410.248396 121.251776 
L 413.151222 128.698864 
L 416.054049 131.628793 
L 418.956875 117.12142 
L 421.859702 91.498991 
L 424.762529 118.068423 
L 427.665355 112.132983 
L 430.568182 105.810739 
" clip-path="url(#pe9f47b54ea)" style="fill: none; stroke: #dd8452; stroke-width: 3; stroke-linecap: round"/>
   </g>
   <g id="line2d_15">
    <path d="M 85.131818 180.272727 
L 88.034645 184.114091 
L 90.937471 182.175625 
L 93.840298 185.839148 
L 96.743125 183.833991 
L 99.645951 188.969148 
L 102.548778 98.608182 
L 105.451604 96.211776 
L 108.354431 131.980028 
L 111.257257 76.613707 
L 114.160084 76.804886 
L 117.062911 103.365426 
L 119.965737 64.742827 
L 122.868564 65.254119 
L 125.77139 79.174616 
L 128.674217 79.868196 
L 131.577044 80.361705 
L 134.47987 105.779616 
L 137.382697 99.488494 
L 140.285523 114.889517 
L 143.18835 84.443153 
L 146.091176 96.758636 
L 148.994003 72.043196 
L 151.89683 65.849886 
L 154.799656 65.583125 
L 157.702483 62.008523 
L 160.605309 83.802926 
L 163.508136 72.598949 
L 166.410963 97.461108 
L 169.313789 153.129759 
L 172.216616 86.555014 
L 175.119442 92.748324 
L 178.022269 129.974872 
L 180.925095 113.657969 
L 183.827922 134.065213 
L 186.730749 75.573338 
L 189.633575 93.450795 
L 192.536402 91.054389 
L 195.439228 129.223494 
L 198.342055 89.018111 
L 201.244882 139.169247 
L 204.147708 83.011534 
L 207.050535 101.342486 
L 209.953361 103.596619 
L 212.856188 104.472486 
L 215.759015 128.143111 
L 218.661841 61.635057 
L 221.564668 101.31581 
L 224.467494 154.361307 
L 227.370321 117.823892 
L 230.273147 81.904474 
L 233.175974 112.764318 
L 236.078801 85.479077 
L 238.981627 113.920284 
L 241.884454 64.67169 
L 244.78728 159.998864 
L 247.690107 162.02625 
L 250.592934 78.436577 
L 253.49576 96.847557 
L 256.398587 100.368807 
L 259.301413 113.217813 
L 262.20424 153.258693 
L 265.107066 106.544332 
L 268.009893 118.032855 
L 270.91272 82.504688 
L 273.815546 125.68446 
L 276.718373 91.174432 
L 279.621199 146.923111 
L 282.524026 77.360639 
L 285.426853 93.655313 
L 288.329679 121.505199 
L 291.232506 112.333054 
L 294.135332 110.945895 
L 297.038159 108.718437 
L 299.940985 105.352798 
L 302.843812 137.293026 
L 305.746639 148.056847 
L 308.649465 93.272955 
L 311.552292 100.728935 
L 314.455118 132.553565 
L 317.357945 87.999972 
L 320.260772 103.089773 
L 323.163598 75.453295 
L 326.066425 117.677173 
L 328.969251 84.607656 
L 331.872078 127.320597 
L 334.774905 97.616719 
L 337.677731 104.059006 
L 340.580558 152.231662 
L 343.483384 104.352443 
L 346.386211 99.808608 
L 349.289037 82.878153 
L 352.191864 92.334844 
L 355.094691 82.944844 
L 357.997517 134.403111 
L 360.900344 114.169261 
L 363.80317 91.614588 
L 366.705997 131.806634 
L 369.608824 141.192188 
L 372.51165 105.22831 
L 375.414477 114.796151 
L 378.317303 96.291804 
L 381.22013 83.998551 
L 384.122956 88.315639 
L 387.025783 116.908011 
L 389.92861 73.408125 
L 392.831436 85.007798 
L 395.734263 93.708665 
L 398.637089 75.302131 
L 401.539916 74.337344 
L 404.442743 87.764332 
L 407.345569 77.556264 
L 410.248396 86.737301 
L 413.151222 90.778736 
L 416.054049 99.835284 
L 418.956875 101.346932 
L 421.859702 88.053324 
L 424.762529 97.132102 
L 427.665355 95.126946 
L 430.568182 93.312969 
" clip-path="url(#pe9f47b54ea)" style="fill: none; stroke: #55a868; stroke-width: 3; stroke-linecap: round"/>
   </g>
   <g id="line2d_16">
    <path d="M 85.131818 169.454442 
L 88.034645 177.624009 
L 90.937471 184.904371 
L 93.840298 174.400643 
L 96.743125 167.981697 
L 99.645951 114.045884 
L 102.548778 114.546062 
L 105.451604 112.962166 
L 108.354431 87.425323 
L 111.257257 97.817901 
L 114.160084 130.857408 
L 117.062911 146.02946 
L 119.965737 110.822518 
L 122.868564 124.883065 
L 125.77139 121.326246 
L 128.674217 142.333704 
L 131.577044 119.04766 
L 134.47987 117.519339 
L 137.382697 100.207638 
L 140.285523 155.421683 
L 143.18835 127.522891 
L 146.091176 101.874897 
L 148.994003 145.612646 
L 151.89683 134.83104 
L 154.799656 128.551033 
L 157.702483 134.525376 
L 160.605309 137.832106 
L 163.508136 105.403928 
L 166.410963 113.295618 
L 169.313789 118.186243 
L 172.216616 116.518984 
L 175.119442 108.488356 
L 178.022269 117.074737 
L 180.925095 130.801832 
L 183.827922 87.675412 
L 186.730749 147.363267 
L 189.633575 96.706396 
L 192.536402 75.615575 
L 195.439228 117.241463 
L 198.342055 113.490131 
L 201.244882 97.373299 
L 204.147708 112.406413 
L 207.050535 109.599862 
L 209.953361 90.1763 
L 212.856188 117.019162 
L 215.759015 105.570653 
L 218.661841 122.965717 
L 221.564668 108.960746 
L 224.467494 106.43207 
L 227.370321 102.5418 
L 230.273147 125.827844 
L 233.175974 103.625518 
L 236.078801 139.471577 
L 238.981627 106.404283 
L 241.884454 161.896204 
L 244.78728 127.078288 
L 247.690107 117.380401 
L 250.592934 108.488356 
L 253.49576 96.317369 
L 256.398587 127.328377 
L 259.301413 110.489066 
L 262.20424 127.717404 
L 265.107066 112.489776 
L 268.009893 95.428164 
L 270.91272 111.517209 
L 273.815546 126.328022 
L 276.718373 116.546772 
L 279.621199 113.545707 
L 282.524026 129.356875 
L 285.426853 106.960036 
L 288.329679 120.57598 
L 291.232506 91.649045 
L 294.135332 99.262859 
L 297.038159 128.106431 
L 299.940985 113.573494 
L 302.843812 113.517919 
L 305.746639 120.10359 
L 308.649465 122.020938 
L 311.552292 139.165913 
L 314.455118 111.072607 
L 317.357945 114.045884 
L 320.260772 97.984627 
L 323.163598 124.494038 
L 326.066425 109.933313 
L 328.969251 133.636172 
L 331.872078 126.133509 
L 334.774905 141.249986 
L 337.677731 111.711722 
L 340.580558 100.318789 
L 343.483384 120.603768 
L 346.386211 120.020227 
L 349.289037 113.990309 
L 352.191864 90.565327 
L 355.094691 110.238977 
L 357.997517 71.947607 
L 360.900344 138.943612 
L 363.80317 120.909432 
L 366.705997 95.956129 
L 369.608824 119.547837 
L 372.51165 109.683224 
L 375.414477 121.298459 
L 378.317303 117.241463 
L 381.22013 106.598796 
L 384.122956 118.436332 
L 387.025783 105.153839 
L 389.92861 123.743771 
L 392.831436 104.90375 
L 395.734263 117.63049 
L 398.637089 109.044109 
L 401.539916 100.624453 
L 404.442743 143.028395 
L 407.345569 86.591694 
L 410.248396 107.571364 
L 413.151222 84.952223 
L 416.054049 93.677543 
L 418.956875 130.746257 
L 421.859702 113.656857 
L 424.762529 124.188374 
L 427.665355 107.626939 
L 430.568182 117.880579 
" clip-path="url(#pe9f47b54ea)" style="fill: none; stroke: #c44e52; stroke-width: 3; stroke-linecap: round"/>
   </g>
   <g id="patch_3">
    <path d="M 67.86 294.66 
L 67.86 12.96 
" style="fill: none; stroke: #ffffff; stroke-width: 1.25; stroke-linejoin: miter; stroke-linecap: square"/>
   </g>
   <g id="patch_4">
    <path d="M 447.84 294.66 
L 447.84 12.96 
" style="fill: none; stroke: #ffffff; stroke-width: 1.25; stroke-linejoin: miter; stroke-linecap: square"/>
   </g>
   <g id="patch_5">
    <path d="M 67.86 294.66 
L 447.84 294.66 
" style="fill: none; stroke: #ffffff; stroke-width: 1.25; stroke-linejoin: miter; stroke-linecap: square"/>
   </g>
   <g id="patch_6">
    <path d="M 67.86 12.96 
L 447.84 12.96 
" style="fill: none; stroke: #ffffff; stroke-width: 1.25; stroke-linejoin: miter; stroke-linecap: square"/>
   </g>
   <g id="legend_1">
    <g id="patch_7">
     <path d="M 75.56 289.16 
L 229.800625 289.16 
Q 232.000625 289.16 232.000625 286.96 
L 232.000625 223.47625 
Q 232.000625 221.27625 229.800625 221.27625 
L 75.56 221.27625 
Q 73.36 221.27625 73.36 223.47625 
L 73.36 286.96 
Q 73.36 289.16 75.56 289.16 
z
" style="fill: #eaeaf2; opacity: 0.8; stroke: #cccccc; stroke-linejoin: miter"/>
    </g>
    <g id="line2d_17">
     <path d="M 77.76 230.184531 
L 88.76 230.184531 
L 99.76 230.184531 
" style="fill: none; stroke: #4c72b0; stroke-width: 3; stroke-linecap: round"/>
    </g>
    <g id="text_15">
     <!-- DATS-DELAY-100-GPU -->
     <g style="fill: #262626" transform="translate(108.56 234.034531)scale(0.11 -0.11)">
      <defs>
       <path id="DejaVuSans-44" d="M 1259 4147 
L 1259 519 
L 2022 519 
Q 2988 519 3436 956 
Q 3884 1394 3884 2338 
Q 3884 3275 3436 3711 
Q 2988 4147 2022 4147 
L 1259 4147 
z
M 628 4666 
L 1925 4666 
Q 3281 4666 3915 4102 
Q 4550 3538 4550 2338 
Q 4550 1131 3912 565 
Q 3275 0 1925 0 
L 628 0 
L 628 4666 
z
" transform="scale(0.015625)"/>
       <path id="DejaVuSans-41" d="M 2188 4044 
L 1331 1722 
L 3047 1722 
L 2188 4044 
z
M 1831 4666 
L 2547 4666 
L 4325 0 
L 3669 0 
L 3244 1197 
L 1141 1197 
L 716 0 
L 50 0 
L 1831 4666 
z
" transform="scale(0.015625)"/>
       <path id="DejaVuSans-54" d="M -19 4666 
L 3928 4666 
L 3928 4134 
L 2272 4134 
L 2272 0 
L 1638 0 
L 1638 4134 
L -19 4134 
L -19 4666 
z
" transform="scale(0.015625)"/>
       <path id="DejaVuSans-53" d="M 3425 4513 
L 3425 3897 
Q 3066 4069 2747 4153 
Q 2428 4238 2131 4238 
Q 1616 4238 1336 4038 
Q 1056 3838 1056 3469 
Q 1056 3159 1242 3001 
Q 1428 2844 1947 2747 
L 2328 2669 
Q 3034 2534 3370 2195 
Q 3706 1856 3706 1288 
Q 3706 609 3251 259 
Q 2797 -91 1919 -91 
Q 1588 -91 1214 -16 
Q 841 59 441 206 
L 441 856 
Q 825 641 1194 531 
Q 1563 422 1919 422 
Q 2459 422 2753 634 
Q 3047 847 3047 1241 
Q 3047 1584 2836 1778 
Q 2625 1972 2144 2069 
L 1759 2144 
Q 1053 2284 737 2584 
Q 422 2884 422 3419 
Q 422 4038 858 4394 
Q 1294 4750 2059 4750 
Q 2388 4750 2728 4690 
Q 3069 4631 3425 4513 
z
" transform="scale(0.015625)"/>
       <path id="DejaVuSans-2d" d="M 313 2009 
L 1997 2009 
L 1997 1497 
L 313 1497 
L 313 2009 
z
" transform="scale(0.015625)"/>
       <path id="DejaVuSans-45" d="M 628 4666 
L 3578 4666 
L 3578 4134 
L 1259 4134 
L 1259 2753 
L 3481 2753 
L 3481 2222 
L 1259 2222 
L 1259 531 
L 3634 531 
L 3634 0 
L 628 0 
L 628 4666 
z
" transform="scale(0.015625)"/>
       <path id="DejaVuSans-4c" d="M 628 4666 
L 1259 4666 
L 1259 531 
L 3531 531 
L 3531 0 
L 628 0 
L 628 4666 
z
" transform="scale(0.015625)"/>
       <path id="DejaVuSans-59" d="M -13 4666 
L 666 4666 
L 1959 2747 
L 3244 4666 
L 3922 4666 
L 2272 2222 
L 2272 0 
L 1638 0 
L 1638 2222 
L -13 4666 
z
" transform="scale(0.015625)"/>
       <path id="DejaVuSans-47" d="M 3809 666 
L 3809 1919 
L 2778 1919 
L 2778 2438 
L 4434 2438 
L 4434 434 
Q 4069 175 3628 42 
Q 3188 -91 2688 -91 
Q 1594 -91 976 548 
Q 359 1188 359 2328 
Q 359 3472 976 4111 
Q 1594 4750 2688 4750 
Q 3144 4750 3555 4637 
Q 3966 4525 4313 4306 
L 4313 3634 
Q 3963 3931 3569 4081 
Q 3175 4231 2741 4231 
Q 1884 4231 1454 3753 
Q 1025 3275 1025 2328 
Q 1025 1384 1454 906 
Q 1884 428 2741 428 
Q 3075 428 3337 486 
Q 3600 544 3809 666 
z
" transform="scale(0.015625)"/>
       <path id="DejaVuSans-50" d="M 1259 4147 
L 1259 2394 
L 2053 2394 
Q 2494 2394 2734 2622 
Q 2975 2850 2975 3272 
Q 2975 3691 2734 3919 
Q 2494 4147 2053 4147 
L 1259 4147 
z
M 628 4666 
L 2053 4666 
Q 2838 4666 3239 4311 
Q 3641 3956 3641 3272 
Q 3641 2581 3239 2228 
Q 2838 1875 2053 1875 
L 1259 1875 
L 1259 0 
L 628 0 
L 628 4666 
z
" transform="scale(0.015625)"/>
       <path id="DejaVuSans-55" d="M 556 4666 
L 1191 4666 
L 1191 1831 
Q 1191 1081 1462 751 
Q 1734 422 2344 422 
Q 2950 422 3222 751 
Q 3494 1081 3494 1831 
L 3494 4666 
L 4128 4666 
L 4128 1753 
Q 4128 841 3676 375 
Q 3225 -91 2344 -91 
Q 1459 -91 1007 375 
Q 556 841 556 1753 
L 556 4666 
z
" transform="scale(0.015625)"/>
      </defs>
      <use xlink:href="#DejaVuSans-44"/>
      <use xlink:href="#DejaVuSans-41" x="75.251953"/>
      <use xlink:href="#DejaVuSans-54" x="135.910156"/>
      <use xlink:href="#DejaVuSans-53" x="196.994141"/>
      <use xlink:href="#DejaVuSans-2d" x="260.470703"/>
      <use xlink:href="#DejaVuSans-44" x="296.554688"/>
      <use xlink:href="#DejaVuSans-45" x="373.556641"/>
      <use xlink:href="#DejaVuSans-4c" x="436.740234"/>
      <use xlink:href="#DejaVuSans-41" x="494.703125"/>
      <use xlink:href="#DejaVuSans-59" x="555.361328"/>
      <use xlink:href="#DejaVuSans-2d" x="604.570312"/>
      <use xlink:href="#DejaVuSans-31" x="640.654297"/>
      <use xlink:href="#DejaVuSans-30" x="704.277344"/>
      <use xlink:href="#DejaVuSans-30" x="767.900391"/>
      <use xlink:href="#DejaVuSans-2d" x="831.523438"/>
      <use xlink:href="#DejaVuSans-47" x="871.232422"/>
      <use xlink:href="#DejaVuSans-50" x="948.722656"/>
      <use xlink:href="#DejaVuSans-55" x="1009.025391"/>
     </g>
    </g>
    <g id="line2d_18">
     <path d="M 77.76 246.330469 
L 88.76 246.330469 
L 99.76 246.330469 
" style="fill: none; stroke: #dd8452; stroke-width: 3; stroke-linecap: round"/>
    </g>
    <g id="text_16">
     <!-- SAC-DELAY-100 -->
     <g style="fill: #262626" transform="translate(108.56 250.180469)scale(0.11 -0.11)">
      <defs>
       <path id="DejaVuSans-43" d="M 4122 4306 
L 4122 3641 
Q 3803 3938 3442 4084 
Q 3081 4231 2675 4231 
Q 1875 4231 1450 3742 
Q 1025 3253 1025 2328 
Q 1025 1406 1450 917 
Q 1875 428 2675 428 
Q 3081 428 3442 575 
Q 3803 722 4122 1019 
L 4122 359 
Q 3791 134 3420 21 
Q 3050 -91 2638 -91 
Q 1578 -91 968 557 
Q 359 1206 359 2328 
Q 359 3453 968 4101 
Q 1578 4750 2638 4750 
Q 3056 4750 3426 4639 
Q 3797 4528 4122 4306 
z
" transform="scale(0.015625)"/>
      </defs>
      <use xlink:href="#DejaVuSans-53"/>
      <use xlink:href="#DejaVuSans-41" x="65.351562"/>
      <use xlink:href="#DejaVuSans-43" x="132.009766"/>
      <use xlink:href="#DejaVuSans-2d" x="201.833984"/>
      <use xlink:href="#DejaVuSans-44" x="237.917969"/>
      <use xlink:href="#DejaVuSans-45" x="314.919922"/>
      <use xlink:href="#DejaVuSans-4c" x="378.103516"/>
      <use xlink:href="#DejaVuSans-41" x="436.066406"/>
      <use xlink:href="#DejaVuSans-59" x="496.724609"/>
      <use xlink:href="#DejaVuSans-2d" x="545.933594"/>
      <use xlink:href="#DejaVuSans-31" x="582.017578"/>
      <use xlink:href="#DejaVuSans-30" x="645.640625"/>
      <use xlink:href="#DejaVuSans-30" x="709.263672"/>
     </g>
    </g>
    <g id="line2d_19">
     <path d="M 77.76 262.476406 
L 88.76 262.476406 
L 99.76 262.476406 
" style="fill: none; stroke: #55a868; stroke-width: 3; stroke-linecap: round"/>
    </g>
    <g id="text_17">
     <!-- SAC-IS-DELAY-100 -->
     <g style="fill: #262626" transform="translate(108.56 266.326406)scale(0.11 -0.11)">
      <defs>
       <path id="DejaVuSans-49" d="M 628 4666 
L 1259 4666 
L 1259 0 
L 628 0 
L 628 4666 
z
" transform="scale(0.015625)"/>
      </defs>
      <use xlink:href="#DejaVuSans-53"/>
      <use xlink:href="#DejaVuSans-41" x="65.351562"/>
      <use xlink:href="#DejaVuSans-43" x="132.009766"/>
      <use xlink:href="#DejaVuSans-2d" x="201.833984"/>
      <use xlink:href="#DejaVuSans-49" x="237.917969"/>
      <use xlink:href="#DejaVuSans-53" x="267.410156"/>
      <use xlink:href="#DejaVuSans-2d" x="330.886719"/>
      <use xlink:href="#DejaVuSans-44" x="366.970703"/>
      <use xlink:href="#DejaVuSans-45" x="443.972656"/>
      <use xlink:href="#DejaVuSans-4c" x="507.15625"/>
      <use xlink:href="#DejaVuSans-41" x="565.119141"/>
      <use xlink:href="#DejaVuSans-59" x="625.777344"/>
      <use xlink:href="#DejaVuSans-2d" x="674.986328"/>
      <use xlink:href="#DejaVuSans-31" x="711.070312"/>
      <use xlink:href="#DejaVuSans-30" x="774.693359"/>
      <use xlink:href="#DejaVuSans-30" x="838.316406"/>
     </g>
    </g>
    <g id="line2d_20">
     <path d="M 77.76 278.622344 
L 88.76 278.622344 
L 99.76 278.622344 
" style="fill: none; stroke: #c44e52; stroke-width: 3; stroke-linecap: round"/>
    </g>
    <g id="text_18">
     <!-- DCAC-DELAY-100 -->
     <g style="fill: #262626" transform="translate(108.56 282.472344)scale(0.11 -0.11)">
      <use xlink:href="#DejaVuSans-44"/>
      <use xlink:href="#DejaVuSans-43" x="77.001953"/>
      <use xlink:href="#DejaVuSans-41" x="146.826172"/>
      <use xlink:href="#DejaVuSans-43" x="213.484375"/>
      <use xlink:href="#DejaVuSans-2d" x="283.308594"/>
      <use xlink:href="#DejaVuSans-44" x="319.392578"/>
      <use xlink:href="#DejaVuSans-45" x="396.394531"/>
      <use xlink:href="#DejaVuSans-4c" x="459.578125"/>
      <use xlink:href="#DejaVuSans-41" x="517.541016"/>
      <use xlink:href="#DejaVuSans-59" x="578.199219"/>
      <use xlink:href="#DejaVuSans-2d" x="627.408203"/>
      <use xlink:href="#DejaVuSans-31" x="663.492188"/>
      <use xlink:href="#DejaVuSans-30" x="727.115234"/>
      <use xlink:href="#DejaVuSans-30" x="790.738281"/>
     </g>
    </g>
   </g>
  </g>
 </g>
 <defs>
  <clipPath id="pe9f47b54ea">
   <rect x="67.86" y="12.96" width="379.98" height="281.7"/>
  </clipPath>
 </defs>
</svg>
