<?xml version="1.0" encoding="utf-8" standalone="no"?>
<!DOCTYPE svg PUBLIC "-//W3C//DTD SVG 1.1//EN"
  "http://www.w3.org/Graphics/SVG/1.1/DTD/svg11.dtd">
<svg xmlns:xlink="http://www.w3.org/1999/xlink" width="460.8pt" height="345.6pt" viewBox="0 0 460.8 345.6" xmlns="http://www.w3.org/2000/svg" version="1.1">
 <metadata>
  <rdf:RDF xmlns:dc="http://purl.org/dc/elements/1.1/" xmlns:cc="http://creativecommons.org/ns#" xmlns:rdf="http://www.w3.org/1999/02/22-rdf-syntax-ns#">
   <cc:Work>
    <dc:type rdf:resource="http://purl.org/dc/dcmitype/StillImage"/>
    <dc:date>2022-09-10T15:51:37.636500</dc:date>
    <dc:format>image/svg+xml</dc:format>
    <dc:creator>
     <cc:Agent>
      <dc:title>Matplotlib v3.5.3, https://matplotlib.org/</dc:title>
     </cc:Agent>
    </dc:creator>
   </cc:Work>
  </rdf:RDF>
 </metadata>
 <defs>
  <style type="text/css">*{stroke-linejoin: round; stroke-linecap: butt}</style>
 </defs>
 <g id="figure_1">
  <g id="patch_1">
   <path d="M 0 345.6 
L 460.8 345.6 
L 460.8 0 
L 0 0 
z
" style="fill: #ffffff"/>
  </g>
  <g id="axes_1">
   <g id="patch_2">
    <path d="M 67.86 294.66 
L 447.84 294.66 
L 447.84 29.76 
L 67.86 29.76 
z
" style="fill: #eaeaf2"/>
   </g>
   <g id="matplotlib.axis_1">
    <g id="xtick_1">
     <g id="line2d_1">
      <path d="M 82.228992 294.66 
L 82.228992 29.76 
" clip-path="url(#pc0cf8e1e32)" style="fill: none; stroke: #ffffff; stroke-linecap: round"/>
     </g>
     <g id="text_1">
      <!-- 0.00 -->
      <g style="fill: #262626" transform="translate(69.982898 312.518281)scale(0.11 -0.11)">
       <defs>
        <path id="DejaVuSans-30" d="M 2034 4250 
Q 1547 4250 1301 3770 
Q 1056 3291 1056 2328 
Q 1056 1369 1301 889 
Q 1547 409 2034 409 
Q 2525 409 2770 889 
Q 3016 1369 3016 2328 
Q 3016 3291 2770 3770 
Q 2525 4250 2034 4250 
z
M 2034 4750 
Q 2819 4750 3233 4129 
Q 3647 3509 3647 2328 
Q 3647 1150 3233 529 
Q 2819 -91 2034 -91 
Q 1250 -91 836 529 
Q 422 1150 422 2328 
Q 422 3509 836 4129 
Q 1250 4750 2034 4750 
z
" transform="scale(0.015625)"/>
        <path id="DejaVuSans-2e" d="M 684 794 
L 1344 794 
L 1344 0 
L 684 0 
L 684 794 
z
" transform="scale(0.015625)"/>
       </defs>
       <use xlink:href="#DejaVuSans-30"/>
       <use xlink:href="#DejaVuSans-2e" x="63.623047"/>
       <use xlink:href="#DejaVuSans-30" x="95.410156"/>
       <use xlink:href="#DejaVuSans-30" x="159.033203"/>
      </g>
     </g>
    </g>
    <g id="xtick_2">
     <g id="line2d_2">
      <path d="M 140.285523 294.66 
L 140.285523 29.76 
" clip-path="url(#pc0cf8e1e32)" style="fill: none; stroke: #ffffff; stroke-linecap: round"/>
     </g>
     <g id="text_2">
      <!-- 0.05 -->
      <g style="fill: #262626" transform="translate(128.03943 312.518281)scale(0.11 -0.11)">
       <defs>
        <path id="DejaVuSans-35" d="M 691 4666 
L 3169 4666 
L 3169 4134 
L 1269 4134 
L 1269 2991 
Q 1406 3038 1543 3061 
Q 1681 3084 1819 3084 
Q 2600 3084 3056 2656 
Q 3513 2228 3513 1497 
Q 3513 744 3044 326 
Q 2575 -91 1722 -91 
Q 1428 -91 1123 -41 
Q 819 9 494 109 
L 494 744 
Q 775 591 1075 516 
Q 1375 441 1709 441 
Q 2250 441 2565 725 
Q 2881 1009 2881 1497 
Q 2881 1984 2565 2268 
Q 2250 2553 1709 2553 
Q 1456 2553 1204 2497 
Q 953 2441 691 2322 
L 691 4666 
z
" transform="scale(0.015625)"/>
       </defs>
       <use xlink:href="#DejaVuSans-30"/>
       <use xlink:href="#DejaVuSans-2e" x="63.623047"/>
       <use xlink:href="#DejaVuSans-30" x="95.410156"/>
       <use xlink:href="#DejaVuSans-35" x="159.033203"/>
      </g>
     </g>
    </g>
    <g id="xtick_3">
     <g id="line2d_3">
      <path d="M 198.342055 294.66 
L 198.342055 29.76 
" clip-path="url(#pc0cf8e1e32)" style="fill: none; stroke: #ffffff; stroke-linecap: round"/>
     </g>
     <g id="text_3">
      <!-- 0.10 -->
      <g style="fill: #262626" transform="translate(186.095961 312.518281)scale(0.11 -0.11)">
       <defs>
        <path id="DejaVuSans-31" d="M 794 531 
L 1825 531 
L 1825 4091 
L 703 3866 
L 703 4441 
L 1819 4666 
L 2450 4666 
L 2450 531 
L 3481 531 
L 3481 0 
L 794 0 
L 794 531 
z
" transform="scale(0.015625)"/>
       </defs>
       <use xlink:href="#DejaVuSans-30"/>
       <use xlink:href="#DejaVuSans-2e" x="63.623047"/>
       <use xlink:href="#DejaVuSans-31" x="95.410156"/>
       <use xlink:href="#DejaVuSans-30" x="159.033203"/>
      </g>
     </g>
    </g>
    <g id="xtick_4">
     <g id="line2d_4">
      <path d="M 256.398587 294.66 
L 256.398587 29.76 
" clip-path="url(#pc0cf8e1e32)" style="fill: none; stroke: #ffffff; stroke-linecap: round"/>
     </g>
     <g id="text_4">
      <!-- 0.15 -->
      <g style="fill: #262626" transform="translate(244.152493 312.518281)scale(0.11 -0.11)">
       <use xlink:href="#DejaVuSans-30"/>
       <use xlink:href="#DejaVuSans-2e" x="63.623047"/>
       <use xlink:href="#DejaVuSans-31" x="95.410156"/>
       <use xlink:href="#DejaVuSans-35" x="159.033203"/>
      </g>
     </g>
    </g>
    <g id="xtick_5">
     <g id="line2d_5">
      <path d="M 314.455118 294.66 
L 314.455118 29.76 
" clip-path="url(#pc0cf8e1e32)" style="fill: none; stroke: #ffffff; stroke-linecap: round"/>
     </g>
     <g id="text_5">
      <!-- 0.20 -->
      <g style="fill: #262626" transform="translate(302.209025 312.518281)scale(0.11 -0.11)">
       <defs>
        <path id="DejaVuSans-32" d="M 1228 531 
L 3431 531 
L 3431 0 
L 469 0 
L 469 531 
Q 828 903 1448 1529 
Q 2069 2156 2228 2338 
Q 2531 2678 2651 2914 
Q 2772 3150 2772 3378 
Q 2772 3750 2511 3984 
Q 2250 4219 1831 4219 
Q 1534 4219 1204 4116 
Q 875 4013 500 3803 
L 500 4441 
Q 881 4594 1212 4672 
Q 1544 4750 1819 4750 
Q 2544 4750 2975 4387 
Q 3406 4025 3406 3419 
Q 3406 3131 3298 2873 
Q 3191 2616 2906 2266 
Q 2828 2175 2409 1742 
Q 1991 1309 1228 531 
z
" transform="scale(0.015625)"/>
       </defs>
       <use xlink:href="#DejaVuSans-30"/>
       <use xlink:href="#DejaVuSans-2e" x="63.623047"/>
       <use xlink:href="#DejaVuSans-32" x="95.410156"/>
       <use xlink:href="#DejaVuSans-30" x="159.033203"/>
      </g>
     </g>
    </g>
    <g id="xtick_6">
     <g id="line2d_6">
      <path d="M 372.51165 294.66 
L 372.51165 29.76 
" clip-path="url(#pc0cf8e1e32)" style="fill: none; stroke: #ffffff; stroke-linecap: round"/>
     </g>
     <g id="text_6">
      <!-- 0.25 -->
      <g style="fill: #262626" transform="translate(360.265556 312.518281)scale(0.11 -0.11)">
       <use xlink:href="#DejaVuSans-30"/>
       <use xlink:href="#DejaVuSans-2e" x="63.623047"/>
       <use xlink:href="#DejaVuSans-32" x="95.410156"/>
       <use xlink:href="#DejaVuSans-35" x="159.033203"/>
      </g>
     </g>
    </g>
    <g id="xtick_7">
     <g id="line2d_7">
      <path d="M 430.568182 294.66 
L 430.568182 29.76 
" clip-path="url(#pc0cf8e1e32)" style="fill: none; stroke: #ffffff; stroke-linecap: round"/>
     </g>
     <g id="text_7">
      <!-- 0.30 -->
      <g style="fill: #262626" transform="translate(418.322088 312.518281)scale(0.11 -0.11)">
       <defs>
        <path id="DejaVuSans-33" d="M 2597 2516 
Q 3050 2419 3304 2112 
Q 3559 1806 3559 1356 
Q 3559 666 3084 287 
Q 2609 -91 1734 -91 
Q 1441 -91 1130 -33 
Q 819 25 488 141 
L 488 750 
Q 750 597 1062 519 
Q 1375 441 1716 441 
Q 2309 441 2620 675 
Q 2931 909 2931 1356 
Q 2931 1769 2642 2001 
Q 2353 2234 1838 2234 
L 1294 2234 
L 1294 2753 
L 1863 2753 
Q 2328 2753 2575 2939 
Q 2822 3125 2822 3475 
Q 2822 3834 2567 4026 
Q 2313 4219 1838 4219 
Q 1578 4219 1281 4162 
Q 984 4106 628 3988 
L 628 4550 
Q 988 4650 1302 4700 
Q 1616 4750 1894 4750 
Q 2613 4750 3031 4423 
Q 3450 4097 3450 3541 
Q 3450 3153 3228 2886 
Q 3006 2619 2597 2516 
z
" transform="scale(0.015625)"/>
       </defs>
       <use xlink:href="#DejaVuSans-30"/>
       <use xlink:href="#DejaVuSans-2e" x="63.623047"/>
       <use xlink:href="#DejaVuSans-33" x="95.410156"/>
       <use xlink:href="#DejaVuSans-30" x="159.033203"/>
      </g>
     </g>
    </g>
    <g id="text_8">
     <!-- Timesteps (in Million) -->
     <g style="fill: #262626" transform="translate(183.104219 329.44375)scale(0.14 -0.14)">
      <defs>
       <path id="DejaVuSans-54" d="M -19 4666 
L 3928 4666 
L 3928 4134 
L 2272 4134 
L 2272 0 
L 1638 0 
L 1638 4134 
L -19 4134 
L -19 4666 
z
" transform="scale(0.015625)"/>
       <path id="DejaVuSans-69" d="M 603 3500 
L 1178 3500 
L 1178 0 
L 603 0 
L 603 3500 
z
M 603 4863 
L 1178 4863 
L 1178 4134 
L 603 4134 
L 603 4863 
z
" transform="scale(0.015625)"/>
       <path id="DejaVuSans-6d" d="M 3328 2828 
Q 3544 3216 3844 3400 
Q 4144 3584 4550 3584 
Q 5097 3584 5394 3201 
Q 5691 2819 5691 2113 
L 5691 0 
L 5113 0 
L 5113 2094 
Q 5113 2597 4934 2840 
Q 4756 3084 4391 3084 
Q 3944 3084 3684 2787 
Q 3425 2491 3425 1978 
L 3425 0 
L 2847 0 
L 2847 2094 
Q 2847 2600 2669 2842 
Q 2491 3084 2119 3084 
Q 1678 3084 1418 2786 
Q 1159 2488 1159 1978 
L 1159 0 
L 581 0 
L 581 3500 
L 1159 3500 
L 1159 2956 
Q 1356 3278 1631 3431 
Q 1906 3584 2284 3584 
Q 2666 3584 2933 3390 
Q 3200 3197 3328 2828 
z
" transform="scale(0.015625)"/>
       <path id="DejaVuSans-65" d="M 3597 1894 
L 3597 1613 
L 953 1613 
Q 991 1019 1311 708 
Q 1631 397 2203 397 
Q 2534 397 2845 478 
Q 3156 559 3463 722 
L 3463 178 
Q 3153 47 2828 -22 
Q 2503 -91 2169 -91 
Q 1331 -91 842 396 
Q 353 884 353 1716 
Q 353 2575 817 3079 
Q 1281 3584 2069 3584 
Q 2775 3584 3186 3129 
Q 3597 2675 3597 1894 
z
M 3022 2063 
Q 3016 2534 2758 2815 
Q 2500 3097 2075 3097 
Q 1594 3097 1305 2825 
Q 1016 2553 972 2059 
L 3022 2063 
z
" transform="scale(0.015625)"/>
       <path id="DejaVuSans-73" d="M 2834 3397 
L 2834 2853 
Q 2591 2978 2328 3040 
Q 2066 3103 1784 3103 
Q 1356 3103 1142 2972 
Q 928 2841 928 2578 
Q 928 2378 1081 2264 
Q 1234 2150 1697 2047 
L 1894 2003 
Q 2506 1872 2764 1633 
Q 3022 1394 3022 966 
Q 3022 478 2636 193 
Q 2250 -91 1575 -91 
Q 1294 -91 989 -36 
Q 684 19 347 128 
L 347 722 
Q 666 556 975 473 
Q 1284 391 1588 391 
Q 1994 391 2212 530 
Q 2431 669 2431 922 
Q 2431 1156 2273 1281 
Q 2116 1406 1581 1522 
L 1381 1569 
Q 847 1681 609 1914 
Q 372 2147 372 2553 
Q 372 3047 722 3315 
Q 1072 3584 1716 3584 
Q 2034 3584 2315 3537 
Q 2597 3491 2834 3397 
z
" transform="scale(0.015625)"/>
       <path id="DejaVuSans-74" d="M 1172 4494 
L 1172 3500 
L 2356 3500 
L 2356 3053 
L 1172 3053 
L 1172 1153 
Q 1172 725 1289 603 
Q 1406 481 1766 481 
L 2356 481 
L 2356 0 
L 1766 0 
Q 1100 0 847 248 
Q 594 497 594 1153 
L 594 3053 
L 172 3053 
L 172 3500 
L 594 3500 
L 594 4494 
L 1172 4494 
z
" transform="scale(0.015625)"/>
       <path id="DejaVuSans-70" d="M 1159 525 
L 1159 -1331 
L 581 -1331 
L 581 3500 
L 1159 3500 
L 1159 2969 
Q 1341 3281 1617 3432 
Q 1894 3584 2278 3584 
Q 2916 3584 3314 3078 
Q 3713 2572 3713 1747 
Q 3713 922 3314 415 
Q 2916 -91 2278 -91 
Q 1894 -91 1617 61 
Q 1341 213 1159 525 
z
M 3116 1747 
Q 3116 2381 2855 2742 
Q 2594 3103 2138 3103 
Q 1681 3103 1420 2742 
Q 1159 2381 1159 1747 
Q 1159 1113 1420 752 
Q 1681 391 2138 391 
Q 2594 391 2855 752 
Q 3116 1113 3116 1747 
z
" transform="scale(0.015625)"/>
       <path id="DejaVuSans-20" transform="scale(0.015625)"/>
       <path id="DejaVuSans-28" d="M 1984 4856 
Q 1566 4138 1362 3434 
Q 1159 2731 1159 2009 
Q 1159 1288 1364 580 
Q 1569 -128 1984 -844 
L 1484 -844 
Q 1016 -109 783 600 
Q 550 1309 550 2009 
Q 550 2706 781 3412 
Q 1013 4119 1484 4856 
L 1984 4856 
z
" transform="scale(0.015625)"/>
       <path id="DejaVuSans-6e" d="M 3513 2113 
L 3513 0 
L 2938 0 
L 2938 2094 
Q 2938 2591 2744 2837 
Q 2550 3084 2163 3084 
Q 1697 3084 1428 2787 
Q 1159 2491 1159 1978 
L 1159 0 
L 581 0 
L 581 3500 
L 1159 3500 
L 1159 2956 
Q 1366 3272 1645 3428 
Q 1925 3584 2291 3584 
Q 2894 3584 3203 3211 
Q 3513 2838 3513 2113 
z
" transform="scale(0.015625)"/>
       <path id="DejaVuSans-4d" d="M 628 4666 
L 1569 4666 
L 2759 1491 
L 3956 4666 
L 4897 4666 
L 4897 0 
L 4281 0 
L 4281 4097 
L 3078 897 
L 2444 897 
L 1241 4097 
L 1241 0 
L 628 0 
L 628 4666 
z
" transform="scale(0.015625)"/>
       <path id="DejaVuSans-6c" d="M 603 4863 
L 1178 4863 
L 1178 0 
L 603 0 
L 603 4863 
z
" transform="scale(0.015625)"/>
       <path id="DejaVuSans-6f" d="M 1959 3097 
Q 1497 3097 1228 2736 
Q 959 2375 959 1747 
Q 959 1119 1226 758 
Q 1494 397 1959 397 
Q 2419 397 2687 759 
Q 2956 1122 2956 1747 
Q 2956 2369 2687 2733 
Q 2419 3097 1959 3097 
z
M 1959 3584 
Q 2709 3584 3137 3096 
Q 3566 2609 3566 1747 
Q 3566 888 3137 398 
Q 2709 -91 1959 -91 
Q 1206 -91 779 398 
Q 353 888 353 1747 
Q 353 2609 779 3096 
Q 1206 3584 1959 3584 
z
" transform="scale(0.015625)"/>
       <path id="DejaVuSans-29" d="M 513 4856 
L 1013 4856 
Q 1481 4119 1714 3412 
Q 1947 2706 1947 2009 
Q 1947 1309 1714 600 
Q 1481 -109 1013 -844 
L 513 -844 
Q 928 -128 1133 580 
Q 1338 1288 1338 2009 
Q 1338 2731 1133 3434 
Q 928 4138 513 4856 
z
" transform="scale(0.015625)"/>
      </defs>
      <use xlink:href="#DejaVuSans-54"/>
      <use xlink:href="#DejaVuSans-69" x="57.958984"/>
      <use xlink:href="#DejaVuSans-6d" x="85.742188"/>
      <use xlink:href="#DejaVuSans-65" x="183.154297"/>
      <use xlink:href="#DejaVuSans-73" x="244.677734"/>
      <use xlink:href="#DejaVuSans-74" x="296.777344"/>
      <use xlink:href="#DejaVuSans-65" x="335.986328"/>
      <use xlink:href="#DejaVuSans-70" x="397.509766"/>
      <use xlink:href="#DejaVuSans-73" x="460.986328"/>
      <use xlink:href="#DejaVuSans-20" x="513.085938"/>
      <use xlink:href="#DejaVuSans-28" x="544.873047"/>
      <use xlink:href="#DejaVuSans-69" x="583.886719"/>
      <use xlink:href="#DejaVuSans-6e" x="611.669922"/>
      <use xlink:href="#DejaVuSans-20" x="675.048828"/>
      <use xlink:href="#DejaVuSans-4d" x="706.835938"/>
      <use xlink:href="#DejaVuSans-69" x="793.115234"/>
      <use xlink:href="#DejaVuSans-6c" x="820.898438"/>
      <use xlink:href="#DejaVuSans-6c" x="848.681641"/>
      <use xlink:href="#DejaVuSans-69" x="876.464844"/>
      <use xlink:href="#DejaVuSans-6f" x="904.248047"/>
      <use xlink:href="#DejaVuSans-6e" x="965.429688"/>
      <use xlink:href="#DejaVuSans-29" x="1028.808594"/>
     </g>
    </g>
   </g>
   <g id="matplotlib.axis_2">
    <g id="ytick_1">
     <g id="line2d_8">
      <path d="M 67.86 282.619091 
L 447.84 282.619091 
" clip-path="url(#pc0cf8e1e32)" style="fill: none; stroke: #ffffff; stroke-linecap: round"/>
     </g>
     <g id="text_9">
      <!-- 0 -->
      <g style="fill: #262626" transform="translate(51.36125 286.798232)scale(0.11 -0.11)">
       <use xlink:href="#DejaVuSans-30"/>
      </g>
     </g>
    </g>
    <g id="ytick_2">
     <g id="line2d_9">
      <path d="M 67.86 234.164728 
L 447.84 234.164728 
" clip-path="url(#pc0cf8e1e32)" style="fill: none; stroke: #ffffff; stroke-linecap: round"/>
     </g>
     <g id="text_10">
      <!-- 500 -->
      <g style="fill: #262626" transform="translate(37.36375 238.343869)scale(0.11 -0.11)">
       <use xlink:href="#DejaVuSans-35"/>
       <use xlink:href="#DejaVuSans-30" x="63.623047"/>
       <use xlink:href="#DejaVuSans-30" x="127.246094"/>
      </g>
     </g>
    </g>
    <g id="ytick_3">
     <g id="line2d_10">
      <path d="M 67.86 185.710366 
L 447.84 185.710366 
" clip-path="url(#pc0cf8e1e32)" style="fill: none; stroke: #ffffff; stroke-linecap: round"/>
     </g>
     <g id="text_11">
      <!-- 1000 -->
      <g style="fill: #262626" transform="translate(30.365 189.889506)scale(0.11 -0.11)">
       <use xlink:href="#DejaVuSans-31"/>
       <use xlink:href="#DejaVuSans-30" x="63.623047"/>
       <use xlink:href="#DejaVuSans-30" x="127.246094"/>
       <use xlink:href="#DejaVuSans-30" x="190.869141"/>
      </g>
     </g>
    </g>
    <g id="ytick_4">
     <g id="line2d_11">
      <path d="M 67.86 137.256003 
L 447.84 137.256003 
" clip-path="url(#pc0cf8e1e32)" style="fill: none; stroke: #ffffff; stroke-linecap: round"/>
     </g>
     <g id="text_12">
      <!-- 1500 -->
      <g style="fill: #262626" transform="translate(30.365 141.435144)scale(0.11 -0.11)">
       <use xlink:href="#DejaVuSans-31"/>
       <use xlink:href="#DejaVuSans-35" x="63.623047"/>
       <use xlink:href="#DejaVuSans-30" x="127.246094"/>
       <use xlink:href="#DejaVuSans-30" x="190.869141"/>
      </g>
     </g>
    </g>
    <g id="ytick_5">
     <g id="line2d_12">
      <path d="M 67.86 88.801641 
L 447.84 88.801641 
" clip-path="url(#pc0cf8e1e32)" style="fill: none; stroke: #ffffff; stroke-linecap: round"/>
     </g>
     <g id="text_13">
      <!-- 2000 -->
      <g style="fill: #262626" transform="translate(30.365 92.980781)scale(0.11 -0.11)">
       <use xlink:href="#DejaVuSans-32"/>
       <use xlink:href="#DejaVuSans-30" x="63.623047"/>
       <use xlink:href="#DejaVuSans-30" x="127.246094"/>
       <use xlink:href="#DejaVuSans-30" x="190.869141"/>
      </g>
     </g>
    </g>
    <g id="ytick_6">
     <g id="line2d_13">
      <path d="M 67.86 40.347278 
L 447.84 40.347278 
" clip-path="url(#pc0cf8e1e32)" style="fill: none; stroke: #ffffff; stroke-linecap: round"/>
     </g>
     <g id="text_14">
      <!-- 2500 -->
      <g style="fill: #262626" transform="translate(30.365 44.526419)scale(0.11 -0.11)">
       <use xlink:href="#DejaVuSans-32"/>
       <use xlink:href="#DejaVuSans-35" x="63.623047"/>
       <use xlink:href="#DejaVuSans-30" x="127.246094"/>
       <use xlink:href="#DejaVuSans-30" x="190.869141"/>
      </g>
     </g>
    </g>
    <g id="text_15">
     <!-- # Highs (Δx &gt; 20) -->
     <g style="fill: #262626" transform="translate(23.453438 225.877187)rotate(-90)scale(0.14 -0.14)">
      <defs>
       <path id="DejaVuSans-23" d="M 3272 2816 
L 2363 2816 
L 2100 1772 
L 3016 1772 
L 3272 2816 
z
M 2803 4594 
L 2478 3297 
L 3391 3297 
L 3719 4594 
L 4219 4594 
L 3897 3297 
L 4872 3297 
L 4872 2816 
L 3775 2816 
L 3519 1772 
L 4513 1772 
L 4513 1294 
L 3397 1294 
L 3072 0 
L 2572 0 
L 2894 1294 
L 1978 1294 
L 1656 0 
L 1153 0 
L 1478 1294 
L 494 1294 
L 494 1772 
L 1594 1772 
L 1856 2816 
L 850 2816 
L 850 3297 
L 1978 3297 
L 2297 4594 
L 2803 4594 
z
" transform="scale(0.015625)"/>
       <path id="DejaVuSans-48" d="M 628 4666 
L 1259 4666 
L 1259 2753 
L 3553 2753 
L 3553 4666 
L 4184 4666 
L 4184 0 
L 3553 0 
L 3553 2222 
L 1259 2222 
L 1259 0 
L 628 0 
L 628 4666 
z
" transform="scale(0.015625)"/>
       <path id="DejaVuSans-67" d="M 2906 1791 
Q 2906 2416 2648 2759 
Q 2391 3103 1925 3103 
Q 1463 3103 1205 2759 
Q 947 2416 947 1791 
Q 947 1169 1205 825 
Q 1463 481 1925 481 
Q 2391 481 2648 825 
Q 2906 1169 2906 1791 
z
M 3481 434 
Q 3481 -459 3084 -895 
Q 2688 -1331 1869 -1331 
Q 1566 -1331 1297 -1286 
Q 1028 -1241 775 -1147 
L 775 -588 
Q 1028 -725 1275 -790 
Q 1522 -856 1778 -856 
Q 2344 -856 2625 -561 
Q 2906 -266 2906 331 
L 2906 616 
Q 2728 306 2450 153 
Q 2172 0 1784 0 
Q 1141 0 747 490 
Q 353 981 353 1791 
Q 353 2603 747 3093 
Q 1141 3584 1784 3584 
Q 2172 3584 2450 3431 
Q 2728 3278 2906 2969 
L 2906 3500 
L 3481 3500 
L 3481 434 
z
" transform="scale(0.015625)"/>
       <path id="DejaVuSans-68" d="M 3513 2113 
L 3513 0 
L 2938 0 
L 2938 2094 
Q 2938 2591 2744 2837 
Q 2550 3084 2163 3084 
Q 1697 3084 1428 2787 
Q 1159 2491 1159 1978 
L 1159 0 
L 581 0 
L 581 4863 
L 1159 4863 
L 1159 2956 
Q 1366 3272 1645 3428 
Q 1925 3584 2291 3584 
Q 2894 3584 3203 3211 
Q 3513 2838 3513 2113 
z
" transform="scale(0.015625)"/>
       <path id="DejaVuSans-394" d="M 2188 4044 
L 906 525 
L 3472 525 
L 2188 4044 
z
M 50 0 
L 1831 4666 
L 2547 4666 
L 4325 0 
L 50 0 
z
" transform="scale(0.015625)"/>
       <path id="DejaVuSans-78" d="M 3513 3500 
L 2247 1797 
L 3578 0 
L 2900 0 
L 1881 1375 
L 863 0 
L 184 0 
L 1544 1831 
L 300 3500 
L 978 3500 
L 1906 2253 
L 2834 3500 
L 3513 3500 
z
" transform="scale(0.015625)"/>
       <path id="DejaVuSans-3e" d="M 678 3150 
L 678 3719 
L 4684 2266 
L 4684 1747 
L 678 294 
L 678 863 
L 3897 2003 
L 678 3150 
z
" transform="scale(0.015625)"/>
      </defs>
      <use xlink:href="#DejaVuSans-23"/>
      <use xlink:href="#DejaVuSans-20" x="83.789062"/>
      <use xlink:href="#DejaVuSans-48" x="115.576172"/>
      <use xlink:href="#DejaVuSans-69" x="190.771484"/>
      <use xlink:href="#DejaVuSans-67" x="218.554688"/>
      <use xlink:href="#DejaVuSans-68" x="282.03125"/>
      <use xlink:href="#DejaVuSans-73" x="345.410156"/>
      <use xlink:href="#DejaVuSans-20" x="397.509766"/>
      <use xlink:href="#DejaVuSans-28" x="429.296875"/>
      <use xlink:href="#DejaVuSans-394" x="468.310547"/>
      <use xlink:href="#DejaVuSans-78" x="536.71875"/>
      <use xlink:href="#DejaVuSans-20" x="595.898438"/>
      <use xlink:href="#DejaVuSans-3e" x="627.685547"/>
      <use xlink:href="#DejaVuSans-20" x="711.474609"/>
      <use xlink:href="#DejaVuSans-32" x="743.261719"/>
      <use xlink:href="#DejaVuSans-30" x="806.884766"/>
      <use xlink:href="#DejaVuSans-29" x="870.507812"/>
     </g>
    </g>
   </g>
   <g id="PolyCollection_1">
    <defs>
     <path id="m0779ad3aea" d="M 85.131818 -64.43454 
L 85.131818 -65.694353 
L 88.034645 -226.659746 
L 90.937471 -72.477964 
L 93.840298 -222.298853 
L 96.743125 -230.633003 
L 99.645951 -274.629565 
L 102.548778 -200.397481 
L 105.451604 -80.812115 
L 108.354431 -87.20809 
L 111.257257 -175.104304 
L 114.160084 -172.293951 
L 117.062911 -188.865343 
L 119.965737 -77.517218 
L 122.868564 -67.535619 
L 125.77139 -86.335912 
L 128.674217 -64.919084 
L 131.577044 -94.766971 
L 134.47987 -127.812846 
L 137.382697 -64.919084 
L 140.285523 -65.015992 
L 143.18835 -219.294683 
L 146.091176 -66.857258 
L 148.994003 -130.913925 
L 151.89683 -122.19214 
L 154.799656 -224.333936 
L 157.702483 -65.791262 
L 160.605309 -141.380068 
L 163.508136 -252.631284 
L 166.410963 -211.057441 
L 169.313789 -222.880305 
L 172.216616 -147.679135 
L 175.119442 -221.911218 
L 178.022269 -100.096951 
L 180.925095 -65.112901 
L 183.827922 -233.540265 
L 186.730749 -65.015992 
L 189.633575 -89.146265 
L 192.536402 -68.698524 
L 195.439228 -142.930607 
L 198.342055 -200.300573 
L 201.244882 -64.919084 
L 204.147708 -173.650673 
L 207.050535 -193.904597 
L 209.953361 -98.837137 
L 212.856188 -208.053271 
L 215.759015 -150.392579 
L 218.661841 -70.442881 
L 221.564668 -117.249795 
L 224.467494 -203.886195 
L 227.370321 -114.051807 
L 230.273147 -218.131778 
L 233.175974 -249.627114 
L 236.078801 -291.297865 
L 238.981627 -165.025797 
L 241.884454 -110.756911 
L 244.78728 -109.690915 
L 247.690107 -157.17619 
L 250.592934 -230.536095 
L 253.49576 -225.206115 
L 256.398587 -302.636186 
L 259.301413 -289.165873 
L 262.20424 -132.173739 
L 265.107066 -171.906316 
L 268.009893 -69.76452 
L 270.91272 -65.500536 
L 273.815546 -104.651661 
L 276.718373 -272.109938 
L 279.621199 -213.770885 
L 282.524026 -64.919084 
L 285.426853 -243.618773 
L 288.329679 -278.699731 
L 291.232506 -184.213724 
L 294.135332 -139.248076 
L 297.038159 -67.244893 
L 299.940985 -208.343997 
L 302.843812 -293.139131 
L 305.746639 -253.212736 
L 308.649465 -286.646247 
L 311.552292 -219.391591 
L 314.455118 -70.53979 
L 317.357945 -276.47083 
L 320.260772 -106.299109 
L 323.163598 -256.798359 
L 326.066425 -67.826345 
L 328.969251 -263.388153 
L 331.872078 -70.152155 
L 334.774905 -141.670794 
L 337.677731 -249.820931 
L 340.580558 -66.954167 
L 343.483384 -223.26794 
L 346.386211 -166.673245 
L 349.289037 -168.902146 
L 352.191864 -152.718389 
L 355.094691 -168.417602 
L 357.997517 -171.131046 
L 360.900344 -280.444088 
L 363.80317 -262.419065 
L 366.705997 -241.389872 
L 369.608824 -94.960788 
L 372.51165 -198.750033 
L 375.414477 -251.952923 
L 378.317303 -269.68722 
L 381.22013 -263.194335 
L 384.122956 -251.274562 
L 387.025783 -271.819212 
L 389.92861 -240.226967 
L 392.831436 -263.872696 
L 395.734263 -277.343009 
L 398.637089 -249.14257 
L 401.539916 -203.110926 
L 404.442743 -253.406554 
L 407.345569 -297.596933 
L 410.248396 -272.594481 
L 413.151222 -120.060148 
L 416.054049 -66.857258 
L 418.956875 -268.91195 
L 421.859702 -284.708072 
L 424.762529 -301.57019 
L 427.665355 -303.799091 
L 430.568182 -257.47672 
L 430.568182 -63.465453 
L 430.568182 -63.465453 
L 427.665355 -70.636698 
L 424.762529 -64.43454 
L 421.859702 -63.465453 
L 418.956875 -63.465453 
L 416.054049 -64.725266 
L 413.151222 -63.465453 
L 410.248396 -63.465453 
L 407.345569 -63.853088 
L 404.442743 -63.949996 
L 401.539916 -64.531449 
L 398.637089 -63.465453 
L 395.734263 -64.725266 
L 392.831436 -63.65927 
L 389.92861 -64.43454 
L 387.025783 -64.046905 
L 384.122956 -64.822175 
L 381.22013 -65.500536 
L 378.317303 -65.015992 
L 375.414477 -64.628357 
L 372.51165 -63.949996 
L 369.608824 -63.949996 
L 366.705997 -65.112901 
L 363.80317 -84.397737 
L 360.900344 -64.046905 
L 357.997517 -64.531449 
L 355.094691 -64.43454 
L 352.191864 -64.531449 
L 349.289037 -64.337631 
L 346.386211 -63.465453 
L 343.483384 -63.949996 
L 340.580558 -63.562361 
L 337.677731 -64.628357 
L 334.774905 -63.465453 
L 331.872078 -64.046905 
L 328.969251 -63.949996 
L 326.066425 -63.949996 
L 323.163598 -64.046905 
L 320.260772 -63.465453 
L 317.357945 -65.015992 
L 314.455118 -64.046905 
L 311.552292 -64.143814 
L 308.649465 -63.949996 
L 305.746639 -63.756179 
L 302.843812 -64.240723 
L 299.940985 -64.046905 
L 297.038159 -64.628357 
L 294.135332 -64.046905 
L 291.232506 -64.240723 
L 288.329679 -63.562361 
L 285.426853 -64.531449 
L 282.524026 -64.337631 
L 279.621199 -63.562361 
L 276.718373 -63.949996 
L 273.815546 -64.046905 
L 270.91272 -64.240723 
L 268.009893 -64.046905 
L 265.107066 -63.465453 
L 262.20424 -64.143814 
L 259.301413 -64.531449 
L 256.398587 -64.43454 
L 253.49576 -63.949996 
L 250.592934 -64.628357 
L 247.690107 -64.046905 
L 244.78728 -64.046905 
L 241.884454 -63.949996 
L 238.981627 -63.465453 
L 236.078801 -63.465453 
L 233.175974 -63.562361 
L 230.273147 -64.43454 
L 227.370321 -64.046905 
L 224.467494 -64.046905 
L 221.564668 -64.43454 
L 218.661841 -63.949996 
L 215.759015 -64.143814 
L 212.856188 -63.949996 
L 209.953361 -64.143814 
L 207.050535 -64.240723 
L 204.147708 -64.143814 
L 201.244882 -63.949996 
L 198.342055 -64.046905 
L 195.439228 -64.43454 
L 192.536402 -63.562361 
L 189.633575 -64.046905 
L 186.730749 -63.562361 
L 183.827922 -64.046905 
L 180.925095 -63.949996 
L 178.022269 -64.43454 
L 175.119442 -64.046905 
L 172.216616 -63.949996 
L 169.313789 -64.046905 
L 166.410963 -64.628357 
L 163.508136 -63.949996 
L 160.605309 -64.046905 
L 157.702483 -64.143814 
L 154.799656 -63.949996 
L 151.89683 -63.465453 
L 148.994003 -65.112901 
L 146.091176 -63.949996 
L 143.18835 -64.725266 
L 140.285523 -64.143814 
L 137.382697 -63.949996 
L 134.47987 -63.949996 
L 131.577044 -64.046905 
L 128.674217 -63.949996 
L 125.77139 -63.949996 
L 122.868564 -63.949996 
L 119.965737 -63.562361 
L 117.062911 -64.143814 
L 114.160084 -64.240723 
L 111.257257 -64.725266 
L 108.354431 -64.531449 
L 105.451604 -64.143814 
L 102.548778 -64.046905 
L 99.645951 -64.240723 
L 96.743125 -64.143814 
L 93.840298 -64.046905 
L 90.937471 -64.143814 
L 88.034645 -64.337631 
L 85.131818 -64.43454 
z
" style="stroke: #ffffff; stroke-opacity: 0.5"/>
    </defs>
    <g clip-path="url(#pc0cf8e1e32)">
     <use xlink:href="#m0779ad3aea" x="0" y="345.6" style="fill: #4c72b0; fill-opacity: 0.5; stroke: #ffffff; stroke-opacity: 0.5"/>
    </g>
   </g>
   <g id="PolyCollection_2">
    <defs>
     <path id="mcd9c169f03" d="M 85.131818 -116.726488 
L 85.131818 -154.152638 
L 88.034645 -178.844981 
L 90.937471 -176.112155 
L 93.840298 -171.576826 
L 96.743125 -230.012788 
L 99.645951 -272.381282 
L 102.548778 -281.083686 
L 105.451604 -287.712243 
L 108.354431 -271.780448 
L 111.257257 -263.640115 
L 114.160084 -259.414895 
L 117.062911 -253.891097 
L 119.965737 -264.434767 
L 122.868564 -279.668818 
L 125.77139 -260.442127 
L 128.674217 -243.328046 
L 131.577044 -248.832462 
L 134.47987 -253.077064 
L 137.382697 -208.654105 
L 140.285523 -219.701699 
L 143.18835 -224.954152 
L 146.091176 -246.312835 
L 148.994003 -219.876135 
L 151.89683 -207.568727 
L 154.799656 -233.462738 
L 157.702483 -229.004937 
L 160.605309 -179.213234 
L 163.508136 -195.261319 
L 166.410963 -225.186733 
L 169.313789 -195.920298 
L 172.216616 -211.522603 
L 175.119442 -181.713479 
L 178.022269 -212.549835 
L 180.925095 -164.541253 
L 183.827922 -178.321674 
L 186.730749 -202.141838 
L 189.633575 -176.693607 
L 192.536402 -206.405822 
L 195.439228 -173.825109 
L 198.342055 -154.016965 
L 201.244882 -193.071182 
L 204.147708 -146.981392 
L 207.050535 -166.963971 
L 209.953361 -187.198513 
L 212.856188 -189.427414 
L 215.759015 -156.788555 
L 218.661841 -144.132275 
L 221.564668 -140.217163 
L 224.467494 -166.188701 
L 227.370321 -170.607739 
L 230.273147 -153.319223 
L 233.175974 -126.107253 
L 236.078801 -163.417112 
L 238.981627 -121.688215 
L 241.884454 -137.193611 
L 244.78728 -150.605778 
L 247.690107 -138.686005 
L 250.592934 -128.316772 
L 253.49576 -140.314072 
L 256.398587 -138.085171 
L 259.301413 -139.674474 
L 262.20424 -136.18576 
L 265.107066 -162.913186 
L 268.009893 -138.201461 
L 270.91272 -126.921286 
L 273.815546 -117.618048 
L 276.718373 -137.426192 
L 279.621199 -159.657053 
L 282.524026 -130.642581 
L 285.426853 -119.672513 
L 288.329679 -153.51304 
L 291.232506 -129.654112 
L 294.135332 -138.201461 
L 297.038159 -149.559164 
L 299.940985 -129.150187 
L 302.843812 -122.792974 
L 305.746639 -139.577565 
L 308.649465 -117.579285 
L 311.552292 -181.267699 
L 314.455118 -135.972561 
L 317.357945 -151.84621 
L 320.260772 -141.438213 
L 323.163598 -136.670304 
L 326.066425 -136.864121 
L 328.969251 -132.328793 
L 331.872078 -140.197781 
L 334.774905 -119.420551 
L 337.677731 -148.706367 
L 340.580558 -127.696556 
L 343.483384 -124.556713 
L 346.386211 -146.84572 
L 349.289037 -120.622219 
L 352.191864 -147.485317 
L 355.094691 -151.904355 
L 357.997517 -143.066279 
L 360.900344 -155.683796 
L 363.80317 -132.871482 
L 366.705997 -174.988014 
L 369.608824 -153.319223 
L 372.51165 -160.664904 
L 375.414477 -182.256168 
L 378.317303 -137.154847 
L 381.22013 -146.96201 
L 384.122956 -177.83713 
L 387.025783 -171.634972 
L 389.92861 -143.260097 
L 392.831436 -206.15386 
L 395.734263 -153.261077 
L 398.637089 -155.50936 
L 401.539916 -162.971332 
L 404.442743 -173.980163 
L 407.345569 -151.148467 
L 410.248396 -152.950969 
L 413.151222 -154.191401 
L 416.054049 -155.993903 
L 418.956875 -171.383009 
L 421.859702 -156.982372 
L 424.762529 -178.360437 
L 427.665355 -170.297631 
L 430.568182 -176.28659 
L 430.568182 -100.794694 
L 430.568182 -100.794694 
L 427.665355 -95.251515 
L 424.762529 -85.560642 
L 421.859702 -92.286108 
L 418.956875 -94.573153 
L 416.054049 -96.317511 
L 413.151222 -74.474284 
L 410.248396 -94.708826 
L 407.345569 -75.172027 
L 404.442743 -96.143075 
L 401.539916 -115.931836 
L 398.637089 -88.719866 
L 395.734263 -97.054017 
L 392.831436 -88.661721 
L 389.92861 -90.735568 
L 387.025783 -94.495626 
L 384.122956 -102.190179 
L 381.22013 -99.069718 
L 378.317303 -92.945087 
L 375.414477 -92.286108 
L 372.51165 -98.333212 
L 369.608824 -96.220602 
L 366.705997 -103.585665 
L 363.80317 -103.391847 
L 360.900344 -107.345723 
L 357.997517 -95.193369 
L 355.094691 -93.468394 
L 352.191864 -86.471584 
L 349.289037 -98.662702 
L 346.386211 -99.011573 
L 343.483384 -92.945087 
L 340.580558 -102.480905 
L 337.677731 -92.518688 
L 334.774905 -98.139395 
L 331.872078 -87.634489 
L 328.969251 -97.015253 
L 326.066425 -93.875411 
L 323.163598 -86.20024 
L 320.260772 -91.724037 
L 317.357945 -90.154116 
L 314.455118 -103.934536 
L 311.552292 -95.988021 
L 308.649465 -97.42227 
L 305.746639 -100.717167 
L 302.843812 -90.522369 
L 299.940985 -90.910004 
L 297.038159 -89.65019 
L 294.135332 -82.769671 
L 291.232506 -81.723057 
L 288.329679 -88.42914 
L 285.426853 -87.382526 
L 282.524026 -89.824626 
L 279.621199 -95.348423 
L 276.718373 -94.282427 
L 273.815546 -85.328061 
L 270.91272 -98.953428 
L 268.009893 -79.125903 
L 265.107066 -77.517218 
L 262.20424 -87.479435 
L 259.301413 -100.174478 
L 256.398587 -91.937236 
L 253.49576 -92.189199 
L 250.592934 -81.083459 
L 247.690107 -91.995381 
L 244.78728 -89.049356 
L 241.884454 -83.157306 
L 238.981627 -86.394057 
L 236.078801 -81.955637 
L 233.175974 -87.847688 
L 230.273147 -79.978699 
L 227.370321 -80.773351 
L 224.467494 -78.466923 
L 221.564668 -66.256424 
L 218.661841 -96.104311 
L 215.759015 -115.563583 
L 212.856188 -65.539299 
L 209.953361 -115.815546 
L 207.050535 -98.682083 
L 204.147708 -91.840327 
L 201.244882 -84.940426 
L 198.342055 -104.41908 
L 195.439228 -99.922515 
L 192.536402 -97.286598 
L 189.633575 -105.504458 
L 186.730749 -133.821187 
L 183.827922 -130.952689 
L 180.925095 -124.498568 
L 178.022269 -111.008873 
L 175.119442 -136.495868 
L 172.216616 -110.504948 
L 169.313789 -132.716428 
L 166.410963 -87.595725 
L 163.508136 -144.926927 
L 160.605309 -155.528742 
L 157.702483 -155.528742 
L 154.799656 -134.460785 
L 151.89683 -156.536592 
L 148.994003 -164.366817 
L 146.091176 -163.649693 
L 143.18835 -152.582716 
L 140.285523 -167.196552 
L 137.382697 -164.444344 
L 134.47987 -224.70219 
L 131.577044 -155.315542 
L 128.674217 -136.457104 
L 125.77139 -204.390121 
L 122.868564 -211.425694 
L 119.965737 -212.724271 
L 117.062911 -217.899197 
L 114.160084 -171.421772 
L 111.257257 -153.532422 
L 108.354431 -246.119018 
L 105.451604 -233.986045 
L 102.548778 -240.304494 
L 99.645951 -231.524564 
L 96.743125 -193.342526 
L 93.840298 -124.479186 
L 90.937471 -142.07781 
L 88.034645 -128.510589 
L 85.131818 -116.726488 
z
" style="stroke: #ffffff; stroke-opacity: 0.5"/>
    </defs>
    <g clip-path="url(#pc0cf8e1e32)">
     <use xlink:href="#mcd9c169f03" x="0" y="345.6" style="fill: #dd8452; fill-opacity: 0.5; stroke: #ffffff; stroke-opacity: 0.5"/>
    </g>
   </g>
   <g id="PolyCollection_3">
    <defs>
     <path id="m3186f2ddab" d="M 85.131818 -132.367556 
L 85.131818 -164.987033 
L 88.034645 -151.691156 
L 90.937471 -169.696797 
L 93.840298 -174.193362 
L 96.743125 -249.47206 
L 99.645951 -280.637906 
L 102.548778 -271.606012 
L 105.451604 -251.13889 
L 108.354431 -237.377851 
L 111.257257 -208.285851 
L 114.160084 -251.58467 
L 117.062911 -262.264011 
L 119.965737 -231.059402 
L 122.868564 -233.075103 
L 125.77139 -182.159259 
L 128.674217 -200.959552 
L 131.577044 -188.186982 
L 134.47987 -184.019907 
L 137.382697 -184.659504 
L 140.285523 -185.085903 
L 143.18835 -248.134719 
L 146.091176 -168.049349 
L 148.994003 -169.289781 
L 151.89683 -133.084681 
L 154.799656 -99.360444 
L 157.702483 -143.453914 
L 160.605309 -128.956369 
L 163.508136 -118.955389 
L 166.410963 -156.342775 
L 169.313789 -125.467655 
L 172.216616 -97.596706 
L 175.119442 -173.747582 
L 178.022269 -143.143806 
L 180.925095 -144.112894 
L 183.827922 -104.574134 
L 186.730749 -110.853819 
L 189.633575 -125.894053 
L 192.536402 -116.978451 
L 195.439228 -102.926686 
L 198.342055 -127.386448 
L 201.244882 -115.117803 
L 204.147708 -112.791994 
L 207.050535 -133.937478 
L 209.953361 -120.738509 
L 212.856188 -123.374427 
L 215.759015 -131.398469 
L 218.661841 -102.965449 
L 221.564668 -106.105292 
L 224.467494 -97.519179 
L 227.370321 -108.586155 
L 230.273147 -89.301319 
L 233.175974 -87.944597 
L 236.078801 -116.009363 
L 238.981627 -92.945087 
L 241.884454 -110.408039 
L 244.78728 -78.021143 
L 247.690107 -93.19705 
L 250.592934 -80.618297 
L 253.49576 -92.98385 
L 256.398587 -86.64602 
L 259.301413 -102.713486 
L 262.20424 -109.012554 
L 265.107066 -92.42178 
L 268.009893 -83.525559 
L 270.91272 -113.625409 
L 273.815546 -96.259365 
L 276.718373 -107.63645 
L 279.621199 -90.735568 
L 282.524026 -107.578304 
L 285.426853 -86.684783 
L 288.329679 -90.638659 
L 291.232506 -83.254214 
L 294.135332 -85.289298 
L 297.038159 -96.239984 
L 299.940985 -104.205881 
L 302.843812 -92.790033 
L 305.746639 -91.7628 
L 308.649465 -98.216922 
L 311.552292 -101.434291 
L 314.455118 -86.083949 
L 317.357945 -87.498817 
L 320.260772 -85.98704 
L 323.163598 -110.349894 
L 326.066425 -109.186989 
L 328.969251 -84.417119 
L 331.872078 -84.76599 
L 334.774905 -101.64749 
L 337.677731 -107.849649 
L 340.580558 -81.858729 
L 343.483384 -85.967659 
L 346.386211 -77.730417 
L 349.289037 -84.746609 
L 352.191864 -95.251515 
L 355.094691 -88.487286 
L 357.997517 -87.576344 
L 360.900344 -103.062358 
L 363.80317 -83.777521 
L 366.705997 -86.801074 
L 369.608824 -105.349404 
L 372.51165 -98.623938 
L 375.414477 -102.655341 
L 378.317303 -85.153625 
L 381.22013 -103.256175 
L 384.122956 -92.499307 
L 387.025783 -93.681593 
L 389.92861 -88.661721 
L 392.831436 -77.517218 
L 395.734263 -107.365105 
L 398.637089 -96.104311 
L 401.539916 -86.083949 
L 404.442743 -93.235813 
L 407.345569 -83.079779 
L 410.248396 -101.124183 
L 413.151222 -86.839837 
L 416.054049 -102.829777 
L 418.956875 -106.454163 
L 421.859702 -110.408039 
L 424.762529 -100.484586 
L 427.665355 -73.931595 
L 430.568182 -89.495136 
L 430.568182 -66.333951 
L 430.568182 -66.333951 
L 427.665355 -63.601125 
L 424.762529 -63.581743 
L 421.859702 -74.280466 
L 418.956875 -63.310399 
L 416.054049 -63.562361 
L 413.151222 -64.55083 
L 410.248396 -63.853088 
L 407.345569 -66.353333 
L 404.442743 -74.183558 
L 401.539916 -63.426689 
L 398.637089 -63.368544 
L 395.734263 -63.504216 
L 392.831436 -64.124432 
L 389.92861 -63.65927 
L 387.025783 -63.523598 
L 384.122956 -63.291017 
L 381.22013 -63.252254 
L 378.317303 -63.833706 
L 375.414477 -63.833706 
L 372.51165 -68.310889 
L 369.608824 -63.465453 
L 366.705997 -63.019673 
L 363.80317 -71.586404 
L 360.900344 -65.674972 
L 357.997517 -71.004952 
L 355.094691 -63.252254 
L 352.191864 -65.229192 
L 349.289037 -63.252254 
L 346.386211 -63.194108 
L 343.483384 -63.736797 
L 340.580558 -64.357013 
L 337.677731 -66.062607 
L 334.774905 -65.65559 
L 331.872078 -63.349162 
L 328.969251 -65.364864 
L 326.066425 -63.368544 
L 323.163598 -65.074138 
L 320.260772 -67.632528 
L 317.357945 -69.066777 
L 314.455118 -63.310399 
L 311.552292 -69.028014 
L 308.649465 -63.349162 
L 305.746639 -63.349162 
L 302.843812 -67.264275 
L 299.940985 -63.775561 
L 297.038159 -63.174727 
L 294.135332 -67.613146 
L 291.232506 -63.349162 
L 288.329679 -63.116581 
L 285.426853 -66.372714 
L 282.524026 -63.271635 
L 279.621199 -63.271635 
L 276.718373 -66.469623 
L 273.815546 -66.99293 
L 270.91272 -67.865109 
L 268.009893 -63.291017 
L 265.107066 -76.586894 
L 262.20424 -63.329781 
L 259.301413 -65.868789 
L 256.398587 -63.736797 
L 253.49576 -63.155345 
L 250.592934 -66.527768 
L 247.690107 -64.085669 
L 244.78728 -64.76403 
L 241.884454 -66.818495 
L 238.981627 -63.116581 
L 236.078801 -78.021143 
L 233.175974 -67.380565 
L 230.273147 -74.920064 
L 227.370321 -63.523598 
L 224.467494 -66.915403 
L 221.564668 -84.126393 
L 218.661841 -81.703675 
L 215.759015 -78.001761 
L 212.856188 -72.361674 
L 209.953361 -70.98557 
L 207.050535 -78.777031 
L 204.147708 -78.621977 
L 201.244882 -63.155345 
L 198.342055 -63.291017 
L 195.439228 -65.888171 
L 192.536402 -76.974529 
L 189.633575 -67.089839 
L 186.730749 -63.484834 
L 183.827922 -64.008142 
L 180.925095 -67.806964 
L 178.022269 -80.676442 
L 175.119442 -80.056226 
L 172.216616 -71.10186 
L 169.313789 -85.909513 
L 166.410963 -69.260594 
L 163.508136 -67.7682 
L 160.605309 -72.943126 
L 157.702483 -64.512067 
L 154.799656 -71.043715 
L 151.89683 -71.004952 
L 148.994003 -110.252985 
L 146.091176 -87.98336 
L 143.18835 -71.702694 
L 140.285523 -69.919574 
L 137.382697 -120.622219 
L 134.47987 -106.047147 
L 131.577044 -82.226982 
L 128.674217 -135.623689 
L 125.77139 -79.494156 
L 122.868564 -123.258136 
L 119.965737 -97.519179 
L 117.062911 -163.765983 
L 114.160084 -66.799113 
L 111.257257 -173.747582 
L 108.354431 -172.177661 
L 105.451604 -233.15263 
L 102.548778 -249.58835 
L 99.645951 -246.758615 
L 96.743125 -225.089824 
L 93.840298 -127.657792 
L 90.937471 -147.155828 
L 88.034645 -124.808676 
L 85.131818 -132.367556 
z
" style="stroke: #ffffff; stroke-opacity: 0.5"/>
    </defs>
    <g clip-path="url(#pc0cf8e1e32)">
     <use xlink:href="#m3186f2ddab" x="0" y="345.6" style="fill: #55a868; fill-opacity: 0.5; stroke: #ffffff; stroke-opacity: 0.5"/>
    </g>
   </g>
   <g id="PolyCollection_4">
    <defs>
     <path id="m138ece1c95" d="M 85.131818 -95.057697 
L 85.131818 -208.150179 
L 88.034645 -232.571178 
L 90.937471 -182.953911 
L 93.840298 -206.115096 
L 96.743125 -203.207834 
L 99.645951 -246.719852 
L 102.548778 -280.928632 
L 105.451604 -283.545167 
L 108.354431 -216.871965 
L 111.257257 -216.290512 
L 114.160084 -196.230406 
L 117.062911 -258.833442 
L 119.965737 -127.328303 
L 122.868564 -175.201213 
L 125.77139 -133.433552 
L 128.674217 -166.28561 
L 131.577044 -150.29567 
L 134.47987 -187.896256 
L 137.382697 -145.934778 
L 140.285523 -104.554752 
L 143.18835 -212.511072 
L 146.091176 -140.895524 
L 148.994003 -129.07266 
L 151.89683 -148.551313 
L 154.799656 -104.457843 
L 157.702483 -96.123693 
L 160.605309 -207.278001 
L 163.508136 -84.300829 
L 166.410963 -80.812115 
L 169.313789 -151.555484 
L 172.216616 -64.628357 
L 175.119442 -84.494646 
L 178.022269 -64.531449 
L 180.925095 -76.548131 
L 183.827922 -67.341802 
L 186.730749 -64.531449 
L 189.633575 -64.628357 
L 192.536402 -64.919084 
L 195.439228 -83.525559 
L 198.342055 -65.015992 
L 201.244882 -64.628357 
L 204.147708 -65.500536 
L 207.050535 -64.628357 
L 209.953361 -64.725266 
L 212.856188 -65.015992 
L 215.759015 -64.531449 
L 218.661841 -64.725266 
L 221.564668 -64.531449 
L 224.467494 -64.628357 
L 227.370321 -64.628357 
L 230.273147 -65.015992 
L 233.175974 -64.628357 
L 236.078801 -65.500536 
L 238.981627 -65.015992 
L 241.884454 -64.43454 
L 244.78728 -64.531449 
L 247.690107 -65.015992 
L 250.592934 -64.628357 
L 253.49576 -64.43454 
L 256.398587 -65.112901 
L 259.301413 -65.112901 
L 262.20424 -65.015992 
L 265.107066 -64.143814 
L 268.009893 -64.531449 
L 270.91272 -65.112901 
L 273.815546 -64.43454 
L 276.718373 -65.015992 
L 279.621199 -64.628357 
L 282.524026 -64.725266 
L 285.426853 -64.628357 
L 288.329679 -65.500536 
L 291.232506 -65.015992 
L 294.135332 -64.919084 
L 297.038159 -64.919084 
L 299.940985 -65.112901 
L 302.843812 -64.628357 
L 305.746639 -65.20981 
L 308.649465 -64.628357 
L 311.552292 -64.531449 
L 314.455118 -64.143814 
L 317.357945 -64.143814 
L 320.260772 -64.628357 
L 323.163598 -65.20981 
L 326.066425 -65.015992 
L 328.969251 -65.112901 
L 331.872078 -64.919084 
L 334.774905 -65.015992 
L 337.677731 -64.628357 
L 340.580558 -64.531449 
L 343.483384 -65.20981 
L 346.386211 -64.531449 
L 349.289037 -64.628357 
L 352.191864 -64.919084 
L 355.094691 -65.112901 
L 357.997517 -65.791262 
L 360.900344 -65.20981 
L 363.80317 -64.919084 
L 366.705997 -64.628357 
L 369.608824 -64.725266 
L 372.51165 -65.112901 
L 375.414477 -64.628357 
L 378.317303 -64.822175 
L 381.22013 -64.43454 
L 384.122956 -65.20981 
L 387.025783 -65.015992 
L 389.92861 -64.919084 
L 392.831436 -64.531449 
L 395.734263 -64.628357 
L 398.637089 -65.20981 
L 401.539916 -65.500536 
L 404.442743 -64.725266 
L 407.345569 -64.628357 
L 410.248396 -64.822175 
L 413.151222 -65.112901 
L 416.054049 -64.628357 
L 418.956875 -64.531449 
L 421.859702 -65.500536 
L 424.762529 -65.20981 
L 427.665355 -65.20981 
L 430.568182 -65.015992 
L 430.568182 -64.143814 
L 430.568182 -64.143814 
L 427.665355 -63.465453 
L 424.762529 -64.046905 
L 421.859702 -63.949996 
L 418.956875 -63.949996 
L 416.054049 -63.65927 
L 413.151222 -64.143814 
L 410.248396 -63.949996 
L 407.345569 -64.046905 
L 404.442743 -64.43454 
L 401.539916 -64.046905 
L 398.637089 -63.562361 
L 395.734263 -64.143814 
L 392.831436 -63.949996 
L 389.92861 -64.531449 
L 387.025783 -63.562361 
L 384.122956 -63.949996 
L 381.22013 -64.046905 
L 378.317303 -63.949996 
L 375.414477 -63.949996 
L 372.51165 -63.65927 
L 369.608824 -64.531449 
L 366.705997 -63.949996 
L 363.80317 -63.756179 
L 360.900344 -63.65927 
L 357.997517 -64.046905 
L 355.094691 -64.046905 
L 352.191864 -63.562361 
L 349.289037 -63.562361 
L 346.386211 -63.949996 
L 343.483384 -64.046905 
L 340.580558 -63.949996 
L 337.677731 -63.174727 
L 334.774905 -63.949996 
L 331.872078 -62.980909 
L 328.969251 -63.465453 
L 326.066425 -64.046905 
L 323.163598 -64.143814 
L 320.260772 -64.143814 
L 317.357945 -63.562361 
L 314.455118 -63.465453 
L 311.552292 -63.949996 
L 308.649465 -63.853088 
L 305.746639 -64.046905 
L 302.843812 -63.949996 
L 299.940985 -63.465453 
L 297.038159 -64.143814 
L 294.135332 -63.949996 
L 291.232506 -63.465453 
L 288.329679 -64.046905 
L 285.426853 -63.949996 
L 282.524026 -63.949996 
L 279.621199 -63.949996 
L 276.718373 -64.143814 
L 273.815546 -63.465453 
L 270.91272 -63.562361 
L 268.009893 -63.465453 
L 265.107066 -63.562361 
L 262.20424 -63.949996 
L 259.301413 -63.465453 
L 256.398587 -63.949996 
L 253.49576 -64.046905 
L 250.592934 -63.562361 
L 247.690107 -63.465453 
L 244.78728 -63.465453 
L 241.884454 -63.465453 
L 238.981627 -63.949996 
L 236.078801 -63.949996 
L 233.175974 -63.949996 
L 230.273147 -63.465453 
L 227.370321 -63.949996 
L 224.467494 -64.046905 
L 221.564668 -63.562361 
L 218.661841 -63.949996 
L 215.759015 -64.43454 
L 212.856188 -63.949996 
L 209.953361 -64.046905 
L 207.050535 -64.43454 
L 204.147708 -63.562361 
L 201.244882 -64.046905 
L 198.342055 -64.143814 
L 195.439228 -63.65927 
L 192.536402 -64.046905 
L 189.633575 -64.046905 
L 186.730749 -63.65927 
L 183.827922 -63.562361 
L 180.925095 -63.465453 
L 178.022269 -63.465453 
L 175.119442 -64.046905 
L 172.216616 -63.65927 
L 169.313789 -64.531449 
L 166.410963 -64.046905 
L 163.508136 -63.949996 
L 160.605309 -64.046905 
L 157.702483 -64.43454 
L 154.799656 -63.853088 
L 151.89683 -74.900682 
L 148.994003 -70.345972 
L 146.091176 -63.465453 
L 143.18835 -63.562361 
L 140.285523 -83.041015 
L 137.382697 -98.546411 
L 134.47987 -65.015992 
L 131.577044 -64.919084 
L 128.674217 -63.756179 
L 125.77139 -64.43454 
L 122.868564 -82.750289 
L 119.965737 -63.949996 
L 117.062911 -167.351606 
L 114.160084 -122.676684 
L 111.257257 -114.342533 
L 108.354431 -143.318242 
L 105.451604 -172.293951 
L 102.548778 -159.405091 
L 99.645951 -228.888646 
L 96.743125 -118.703426 
L 93.840298 -80.230662 
L 90.937471 -108.818736 
L 88.034645 -125.97158 
L 85.131818 -95.057697 
z
" style="stroke: #ffffff; stroke-opacity: 0.5"/>
    </defs>
    <g clip-path="url(#pc0cf8e1e32)">
     <use xlink:href="#m138ece1c95" x="0" y="345.6" style="fill: #c44e52; fill-opacity: 0.5; stroke: #ffffff; stroke-opacity: 0.5"/>
    </g>
   </g>
   <g id="line2d_14">
    <path d="M 85.131818 280.739062 
L 88.034645 248.468456 
L 90.937471 279.421103 
L 93.840298 249.631361 
L 96.743125 216.604867 
L 99.645951 227.245445 
L 102.548778 253.740291 
L 105.451604 275.951771 
L 108.354431 276.184352 
L 111.257257 246.006975 
L 114.160084 248.468456 
L 117.062911 236.451774 
L 119.965737 278.645833 
L 122.868564 280.118846 
L 125.77139 276.571986 
L 128.674217 281.126697 
L 131.577044 275.215264 
L 134.47987 268.683616 
L 137.382697 281.126697 
L 140.285523 280.913497 
L 143.18835 249.72827 
L 146.091176 280.816589 
L 148.994003 241.529791 
L 151.89683 266.144608 
L 154.799656 249.321253 
L 157.702483 280.700298 
L 160.605309 262.810948 
L 163.508136 243.719929 
L 166.410963 248.274639 
L 169.313789 218.232934 
L 172.216616 259.322233 
L 175.119442 228.447114 
L 178.022269 268.005255 
L 180.925095 281.242987 
L 183.827922 247.344315 
L 186.730749 281.242987 
L 189.633575 276.145588 
L 192.536402 280.467717 
L 195.439228 265.272429 
L 198.342055 237.459625 
L 201.244882 281.010406 
L 204.147708 242.343825 
L 207.050535 255.135776 
L 209.953361 274.091123 
L 212.856188 252.422332 
L 215.759015 263.702508 
L 218.661841 280.157609 
L 221.564668 263.741271 
L 224.467494 245.17356 
L 227.370321 266.454716 
L 230.273147 216.275378 
L 233.175974 179.275626 
L 236.078801 236.044758 
L 238.981627 261.27979 
L 241.884454 272.075422 
L 244.78728 271.571496 
L 247.690107 262.578367 
L 250.592934 245.328613 
L 253.49576 222.089901 
L 256.398587 194.936076 
L 259.301413 180.826166 
L 262.20424 267.385039 
L 265.107066 251.06561 
L 268.009893 279.459866 
L 270.91272 280.855352 
L 273.815546 273.354617 
L 276.718373 232.439753 
L 279.621199 251.588917 
L 282.524026 281.087933 
L 285.426853 244.84407 
L 288.329679 223.466005 
L 291.232506 248.197112 
L 294.135332 260.310702 
L 297.038159 280.021937 
L 299.940985 229.203002 
L 302.843812 168.169887 
L 305.746639 243.700547 
L 308.649465 230.753541 
L 311.552292 247.887004 
L 314.455118 279.925028 
L 317.357945 216.314141 
L 320.260772 272.928218 
L 323.163598 234.377928 
L 326.066425 280.39019 
L 328.969251 231.160558 
L 331.872078 279.847501 
L 334.774905 265.795736 
L 337.677731 199.607077 
L 340.580558 280.777825 
L 343.483384 222.768262 
L 346.386211 251.705208 
L 349.289037 247.150498 
L 352.191864 260.853391 
L 355.094691 259.864922 
L 357.997517 247.538132 
L 360.900344 208.038136 
L 363.80317 176.445892 
L 366.705997 243.933128 
L 369.608824 275.021447 
L 372.51165 233.583276 
L 375.414477 234.62989 
L 378.317303 204.239314 
L 381.22013 236.044758 
L 384.122956 203.386517 
L 387.025783 237.130135 
L 389.92861 238.990783 
L 392.831436 240.870812 
L 395.734263 202.184849 
L 398.637089 240.483177 
L 401.539916 236.29672 
L 404.442743 194.955458 
L 407.345569 223.000843 
L 410.248396 195.672583 
L 413.151222 265.563155 
L 416.054049 280.080082 
L 418.956875 177.279307 
L 421.859702 237.033227 
L 424.762529 135.938045 
L 427.665355 145.008701 
L 430.568182 156.65713 
" clip-path="url(#pc0cf8e1e32)" style="fill: none; stroke: #4c72b0; stroke-width: 3; stroke-linecap: round"/>
   </g>
   <g id="line2d_15">
    <path d="M 85.131818 206.448833 
L 88.034645 189.920081 
L 90.937471 182.857373 
L 93.840298 196.009825 
L 96.743125 133.701391 
L 99.645951 93.298206 
L 102.548778 86.316901 
L 105.451604 86.495213 
L 108.354431 84.886528 
L 111.257257 109.927743 
L 114.160084 116.936182 
L 117.062911 105.687017 
L 119.965737 111.722492 
L 122.868564 105.857576 
L 125.77139 106.136673 
L 128.674217 139.694227 
L 131.577044 141.012185 
L 134.47987 106.722002 
L 137.382697 156.567974 
L 140.285523 161.262233 
L 143.18835 151.148838 
L 146.091176 134.577446 
L 148.994003 155.416698 
L 151.89683 155.470967 
L 154.799656 166.619347 
L 157.702483 154.920526 
L 160.605309 178.903497 
L 163.508136 171.526805 
L 166.410963 177.20178 
L 169.313789 187.791965 
L 172.216616 192.304035 
L 175.119442 188.160218 
L 178.022269 191.005459 
L 180.925095 200.742847 
L 183.827922 190.381366 
L 186.730749 187.315174 
L 189.633575 205.638676 
L 192.536402 203.785781 
L 195.439228 217.376261 
L 198.342055 216.573857 
L 201.244882 218.143778 
L 204.147708 223.857516 
L 207.050535 218.849273 
L 209.953361 204.921551 
L 212.856188 213.170422 
L 215.759015 215.511737 
L 218.661841 216.89947 
L 221.564668 239.037299 
L 224.467494 232.459135 
L 227.370321 229.179744 
L 230.273147 226.970225 
L 233.175974 241.820518 
L 236.078801 237.482883 
L 238.981627 234.114336 
L 241.884454 236.455651 
L 244.78728 223.276064 
L 247.690107 232.621941 
L 250.592934 235.087299 
L 253.49576 231.358252 
L 256.398587 231.300106 
L 259.301413 227.268703 
L 262.20424 237.626308 
L 265.107066 230.749665 
L 268.009893 239.114826 
L 270.91272 236.726995 
L 273.815546 239.994757 
L 276.718373 234.246132 
L 279.621199 224.764582 
L 282.524026 237.149517 
L 285.426853 242.297309 
L 288.329679 234.281019 
L 291.232506 234.575621 
L 294.135332 236.211441 
L 297.038159 235.862569 
L 299.940985 237.56041 
L 302.843812 237.327829 
L 305.746639 229.625524 
L 308.649465 237.040979 
L 311.552292 221.616987 
L 314.455118 228.714582 
L 317.357945 228.071108 
L 320.260772 230.059675 
L 323.163598 227.435387 
L 326.066425 230.265121 
L 328.969251 227.772629 
L 331.872078 227.303591 
L 334.774905 235.974983 
L 337.677731 221.667379 
L 340.580558 231.695494 
L 343.483384 240.16144 
L 346.386211 222.415515 
L 349.289037 239.079939 
L 352.191864 231.838919 
L 355.094691 225.008792 
L 357.997517 228.749469 
L 360.900344 216.829696 
L 363.80317 228.086613 
L 366.705997 219.163258 
L 369.608824 221.620863 
L 372.51165 222.977585 
L 375.414477 222.039509 
L 378.317303 224.29942 
L 381.22013 222.411638 
L 384.122956 215.628027 
L 387.025783 211.836958 
L 389.92861 231.032638 
L 392.831436 207.227979 
L 395.734263 211.860216 
L 398.637089 232.901039 
L 401.539916 218.543042 
L 404.442743 224.210264 
L 407.345569 240.111048 
L 410.248396 233.083227 
L 413.151222 225.322776 
L 416.054049 230.536466 
L 418.956875 228.094366 
L 421.859702 232.621941 
L 424.762529 223.900156 
L 427.665355 222.950451 
L 430.568182 219.798979 
" clip-path="url(#pc0cf8e1e32)" style="fill: none; stroke: #dd8452; stroke-width: 3; stroke-linecap: round"/>
   </g>
   <g id="line2d_16">
    <path d="M 85.131818 194.490296 
L 88.034645 200.335831 
L 90.937471 187.93539 
L 93.840298 195.676459 
L 96.743125 109.206742 
L 99.645951 84.002721 
L 102.548778 85.84011 
L 105.451604 101.531571 
L 108.354431 148.764883 
L 111.257257 150.741821 
L 114.160084 159.552763 
L 117.062911 131.960911 
L 119.965737 170.821309 
L 122.868564 174.14334 
L 125.77139 191.780728 
L 128.674217 173.503743 
L 131.577044 224.14049 
L 134.47987 200.033475 
L 137.382697 200.583917 
L 140.285523 220.558743 
L 143.18835 210.294171 
L 146.091176 223.954425 
L 148.994003 214.651187 
L 151.89683 244.603736 
L 154.799656 256.201772 
L 157.702483 247.712568 
L 160.605309 236.773511 
L 163.508136 253.984501 
L 166.410963 217.752267 
L 169.313789 240.975474 
L 172.216616 262.039554 
L 175.119442 217.426653 
L 178.022269 233.141372 
L 180.925095 249.297995 
L 183.827922 257.922871 
L 186.730749 259.512175 
L 189.633575 245.127043 
L 192.536402 244.859575 
L 195.439228 262.357415 
L 198.342055 256.476993 
L 201.244882 259.547062 
L 204.147708 250.011243 
L 207.050535 243.518359 
L 209.953361 248.235875 
L 212.856188 248.596376 
L 215.759015 249.97248 
L 218.661841 252.468848 
L 221.564668 251.189653 
L 224.467494 265.958543 
L 227.370321 265.458494 
L 230.273147 262.039554 
L 233.175974 265.450741 
L 236.078801 257.116591 
L 238.981627 264.698729 
L 241.884454 253.937985 
L 244.78728 273.676354 
L 247.690107 269.113891 
L 250.592934 272.621987 
L 253.49576 272.509573 
L 256.398587 273.308101 
L 259.301413 260.892155 
L 262.20424 256.411095 
L 265.107066 263.330378 
L 268.009893 269.827139 
L 270.91272 261.512371 
L 273.815546 266.508984 
L 276.718373 267.98975 
L 279.621199 268.168062 
L 282.524026 263.981605 
L 285.426853 272.346766 
L 288.329679 271.269141 
L 291.232506 272.707267 
L 294.135332 270.900888 
L 297.038159 266.36556 
L 299.940985 258.453931 
L 302.843812 268.338621 
L 305.746639 273.711241 
L 308.649465 268.125422 
L 311.552292 261.985285 
L 314.455118 273.110407 
L 317.357945 264.927434 
L 320.260772 268.082782 
L 323.163598 265.818994 
L 326.066425 261.10923 
L 328.969251 269.408494 
L 331.872078 271.145098 
L 334.774905 269.137149 
L 337.677731 264.551428 
L 340.580558 272.094803 
L 343.483384 270.272919 
L 346.386211 273.920564 
L 349.289037 269.648827 
L 352.191864 260.384353 
L 355.094691 272.377777 
L 357.997517 266.082586 
L 360.900344 266.636904 
L 363.80317 268.788278 
L 366.705997 271.009426 
L 369.608824 270.873753 
L 372.51165 267.051673 
L 375.414477 269.059622 
L 378.317303 273.009622 
L 381.22013 263.733519 
L 384.122956 273.269337 
L 387.025783 269.722478 
L 389.92861 271.800201 
L 392.831436 274.502016 
L 395.734263 266.59814 
L 398.637089 267.392792 
L 401.539916 270.652802 
L 404.442743 266.136855 
L 407.345569 269.803881 
L 410.248396 268.303734 
L 413.151222 267.05555 
L 416.054049 265.570908 
L 418.956875 266.710555 
L 421.859702 255.484648 
L 424.762529 263.7529 
L 427.665355 274.847011 
L 430.568182 269.602311 
" clip-path="url(#pc0cf8e1e32)" style="fill: none; stroke: #55a868; stroke-width: 3; stroke-linecap: round"/>
   </g>
   <g id="line2d_17">
    <path d="M 85.131818 213.620079 
L 88.034645 188.365665 
L 90.937471 197.475085 
L 93.840298 200.033475 
L 96.743125 195.905164 
L 99.645951 108.822983 
L 102.548778 132.352422 
L 105.451604 125.239321 
L 108.354431 161.037404 
L 111.257257 161.134313 
L 114.160084 177.007962 
L 117.062911 148.187307 
L 119.965737 251.685826 
L 122.868564 197.649521 
L 125.77139 247.906386 
L 128.674217 235.308251 
L 131.577044 218.930677 
L 134.47987 228.505259 
L 137.382697 219.957909 
L 140.285523 251.084992 
L 143.18835 250.270958 
L 146.091176 250.988083 
L 148.994003 241.413501 
L 151.89683 254.244216 
L 154.799656 263.237346 
L 157.702483 266.590388 
L 160.605309 242.07248 
L 163.508136 277.269729 
L 166.410963 278.103144 
L 169.313789 259.244706 
L 172.216616 281.436804 
L 175.119442 271.222625 
L 178.022269 281.630622 
L 180.925095 278.27758 
L 183.827922 280.797207 
L 186.730749 281.436804 
L 189.633575 281.223605 
L 192.536402 281.223605 
L 195.439228 277.38602 
L 198.342055 281.107315 
L 201.244882 281.339896 
L 204.147708 281.281751 
L 207.050535 281.087933 
L 209.953361 281.262369 
L 212.856188 281.359277 
L 215.759015 281.087933 
L 218.661841 281.359277 
L 221.564668 281.572477 
L 224.467494 281.16546 
L 227.370321 281.223605 
L 230.273147 281.417423 
L 233.175974 281.281751 
L 236.078801 280.952261 
L 238.981627 281.204224 
L 241.884454 281.591858 
L 244.78728 281.630622 
L 247.690107 281.49495 
L 250.592934 281.417423 
L 253.49576 281.378659 
L 256.398587 281.107315 
L 259.301413 281.514331 
L 262.20424 281.223605 
L 265.107066 281.650004 
L 268.009893 281.591858 
L 270.91272 281.126697 
L 273.815546 281.61124 
L 276.718373 281.068551 
L 279.621199 281.339896 
L 282.524026 281.339896 
L 285.426853 281.378659 
L 288.329679 280.913497 
L 291.232506 281.475568 
L 294.135332 281.262369 
L 297.038159 281.146078 
L 299.940985 281.456186 
L 302.843812 281.320514 
L 305.746639 280.894116 
L 308.649465 281.281751 
L 311.552292 281.223605 
L 314.455118 281.669385 
L 317.357945 281.630622 
L 320.260772 281.146078 
L 323.163598 281.087933 
L 326.066425 281.223605 
L 328.969251 281.359277 
L 331.872078 281.436804 
L 334.774905 281.262369 
L 337.677731 281.398041 
L 340.580558 281.339896 
L 343.483384 280.971643 
L 346.386211 281.262369 
L 349.289037 281.475568 
L 352.191864 281.359277 
L 355.094691 280.991024 
L 357.997517 280.777825 
L 360.900344 281.281751 
L 363.80317 281.262369 
L 366.705997 281.16546 
L 369.608824 280.952261 
L 372.51165 281.398041 
L 375.414477 281.301132 
L 378.317303 281.281751 
L 381.22013 281.320514 
L 384.122956 281.146078 
L 387.025783 281.456186 
L 389.92861 280.932879 
L 392.831436 281.398041 
L 395.734263 281.126697 
L 398.637089 281.242987 
L 401.539916 280.855352 
L 404.442743 281.010406 
L 407.345569 281.359277 
L 410.248396 281.126697 
L 413.151222 280.913497 
L 416.054049 281.378659 
L 418.956875 281.475568 
L 421.859702 280.952261 
L 424.762529 280.991024 
L 427.665355 281.204224 
L 430.568182 280.932879 
" clip-path="url(#pc0cf8e1e32)" style="fill: none; stroke: #c44e52; stroke-width: 3; stroke-linecap: round"/>
   </g>
   <g id="patch_3">
    <path d="M 67.86 294.66 
L 67.86 29.76 
" style="fill: none; stroke: #ffffff; stroke-width: 1.25; stroke-linejoin: miter; stroke-linecap: square"/>
   </g>
   <g id="patch_4">
    <path d="M 447.84 294.66 
L 447.84 29.76 
" style="fill: none; stroke: #ffffff; stroke-width: 1.25; stroke-linejoin: miter; stroke-linecap: square"/>
   </g>
   <g id="patch_5">
    <path d="M 67.86 294.66 
L 447.84 294.66 
" style="fill: none; stroke: #ffffff; stroke-width: 1.25; stroke-linejoin: miter; stroke-linecap: square"/>
   </g>
   <g id="patch_6">
    <path d="M 67.86 29.76 
L 447.84 29.76 
" style="fill: none; stroke: #ffffff; stroke-width: 1.25; stroke-linejoin: miter; stroke-linecap: square"/>
   </g>
   <g id="text_16">
    <!-- zinc-coating-v0 -->
    <g style="fill: #262626" transform="translate(204.491406 23.76)scale(0.14 -0.14)">
     <defs>
      <path id="DejaVuSans-7a" d="M 353 3500 
L 3084 3500 
L 3084 2975 
L 922 459 
L 3084 459 
L 3084 0 
L 275 0 
L 275 525 
L 2438 3041 
L 353 3041 
L 353 3500 
z
" transform="scale(0.015625)"/>
      <path id="DejaVuSans-63" d="M 3122 3366 
L 3122 2828 
Q 2878 2963 2633 3030 
Q 2388 3097 2138 3097 
Q 1578 3097 1268 2742 
Q 959 2388 959 1747 
Q 959 1106 1268 751 
Q 1578 397 2138 397 
Q 2388 397 2633 464 
Q 2878 531 3122 666 
L 3122 134 
Q 2881 22 2623 -34 
Q 2366 -91 2075 -91 
Q 1284 -91 818 406 
Q 353 903 353 1747 
Q 353 2603 823 3093 
Q 1294 3584 2113 3584 
Q 2378 3584 2631 3529 
Q 2884 3475 3122 3366 
z
" transform="scale(0.015625)"/>
      <path id="DejaVuSans-2d" d="M 313 2009 
L 1997 2009 
L 1997 1497 
L 313 1497 
L 313 2009 
z
" transform="scale(0.015625)"/>
      <path id="DejaVuSans-61" d="M 2194 1759 
Q 1497 1759 1228 1600 
Q 959 1441 959 1056 
Q 959 750 1161 570 
Q 1363 391 1709 391 
Q 2188 391 2477 730 
Q 2766 1069 2766 1631 
L 2766 1759 
L 2194 1759 
z
M 3341 1997 
L 3341 0 
L 2766 0 
L 2766 531 
Q 2569 213 2275 61 
Q 1981 -91 1556 -91 
Q 1019 -91 701 211 
Q 384 513 384 1019 
Q 384 1609 779 1909 
Q 1175 2209 1959 2209 
L 2766 2209 
L 2766 2266 
Q 2766 2663 2505 2880 
Q 2244 3097 1772 3097 
Q 1472 3097 1187 3025 
Q 903 2953 641 2809 
L 641 3341 
Q 956 3463 1253 3523 
Q 1550 3584 1831 3584 
Q 2591 3584 2966 3190 
Q 3341 2797 3341 1997 
z
" transform="scale(0.015625)"/>
      <path id="DejaVuSans-76" d="M 191 3500 
L 800 3500 
L 1894 563 
L 2988 3500 
L 3597 3500 
L 2284 0 
L 1503 0 
L 191 3500 
z
" transform="scale(0.015625)"/>
     </defs>
     <use xlink:href="#DejaVuSans-7a"/>
     <use xlink:href="#DejaVuSans-69" x="52.490234"/>
     <use xlink:href="#DejaVuSans-6e" x="80.273438"/>
     <use xlink:href="#DejaVuSans-63" x="143.652344"/>
     <use xlink:href="#DejaVuSans-2d" x="198.632812"/>
     <use xlink:href="#DejaVuSans-63" x="234.716797"/>
     <use xlink:href="#DejaVuSans-6f" x="289.697266"/>
     <use xlink:href="#DejaVuSans-61" x="350.878906"/>
     <use xlink:href="#DejaVuSans-74" x="412.158203"/>
     <use xlink:href="#DejaVuSans-69" x="451.367188"/>
     <use xlink:href="#DejaVuSans-6e" x="479.150391"/>
     <use xlink:href="#DejaVuSans-67" x="542.529297"/>
     <use xlink:href="#DejaVuSans-2d" x="606.005859"/>
     <use xlink:href="#DejaVuSans-76" x="639.464844"/>
     <use xlink:href="#DejaVuSans-30" x="698.644531"/>
    </g>
   </g>
   <g id="legend_1">
    <g id="patch_7">
     <path d="M 319.722656 103.14375 
L 440.14 103.14375 
Q 442.34 103.14375 442.34 100.94375 
L 442.34 37.46 
Q 442.34 35.26 440.14 35.26 
L 319.722656 35.26 
Q 317.522656 35.26 317.522656 37.46 
L 317.522656 100.94375 
Q 317.522656 103.14375 319.722656 103.14375 
z
" style="fill: #eaeaf2; opacity: 0.8; stroke: #cccccc; stroke-linejoin: miter"/>
    </g>
    <g id="line2d_18">
     <path d="M 321.922656 44.168281 
L 332.922656 44.168281 
L 343.922656 44.168281 
" style="fill: none; stroke: #4c72b0; stroke-width: 3; stroke-linecap: round"/>
    </g>
    <g id="text_17">
     <!-- DATS-DELAY-5 -->
     <g style="fill: #262626" transform="translate(352.722656 48.018281)scale(0.11 -0.11)">
      <defs>
       <path id="DejaVuSans-44" d="M 1259 4147 
L 1259 519 
L 2022 519 
Q 2988 519 3436 956 
Q 3884 1394 3884 2338 
Q 3884 3275 3436 3711 
Q 2988 4147 2022 4147 
L 1259 4147 
z
M 628 4666 
L 1925 4666 
Q 3281 4666 3915 4102 
Q 4550 3538 4550 2338 
Q 4550 1131 3912 565 
Q 3275 0 1925 0 
L 628 0 
L 628 4666 
z
" transform="scale(0.015625)"/>
       <path id="DejaVuSans-41" d="M 2188 4044 
L 1331 1722 
L 3047 1722 
L 2188 4044 
z
M 1831 4666 
L 2547 4666 
L 4325 0 
L 3669 0 
L 3244 1197 
L 1141 1197 
L 716 0 
L 50 0 
L 1831 4666 
z
" transform="scale(0.015625)"/>
       <path id="DejaVuSans-53" d="M 3425 4513 
L 3425 3897 
Q 3066 4069 2747 4153 
Q 2428 4238 2131 4238 
Q 1616 4238 1336 4038 
Q 1056 3838 1056 3469 
Q 1056 3159 1242 3001 
Q 1428 2844 1947 2747 
L 2328 2669 
Q 3034 2534 3370 2195 
Q 3706 1856 3706 1288 
Q 3706 609 3251 259 
Q 2797 -91 1919 -91 
Q 1588 -91 1214 -16 
Q 841 59 441 206 
L 441 856 
Q 825 641 1194 531 
Q 1563 422 1919 422 
Q 2459 422 2753 634 
Q 3047 847 3047 1241 
Q 3047 1584 2836 1778 
Q 2625 1972 2144 2069 
L 1759 2144 
Q 1053 2284 737 2584 
Q 422 2884 422 3419 
Q 422 4038 858 4394 
Q 1294 4750 2059 4750 
Q 2388 4750 2728 4690 
Q 3069 4631 3425 4513 
z
" transform="scale(0.015625)"/>
       <path id="DejaVuSans-45" d="M 628 4666 
L 3578 4666 
L 3578 4134 
L 1259 4134 
L 1259 2753 
L 3481 2753 
L 3481 2222 
L 1259 2222 
L 1259 531 
L 3634 531 
L 3634 0 
L 628 0 
L 628 4666 
z
" transform="scale(0.015625)"/>
       <path id="DejaVuSans-4c" d="M 628 4666 
L 1259 4666 
L 1259 531 
L 3531 531 
L 3531 0 
L 628 0 
L 628 4666 
z
" transform="scale(0.015625)"/>
       <path id="DejaVuSans-59" d="M -13 4666 
L 666 4666 
L 1959 2747 
L 3244 4666 
L 3922 4666 
L 2272 2222 
L 2272 0 
L 1638 0 
L 1638 2222 
L -13 4666 
z
" transform="scale(0.015625)"/>
      </defs>
      <use xlink:href="#DejaVuSans-44"/>
      <use xlink:href="#DejaVuSans-41" x="75.251953"/>
      <use xlink:href="#DejaVuSans-54" x="135.910156"/>
      <use xlink:href="#DejaVuSans-53" x="196.994141"/>
      <use xlink:href="#DejaVuSans-2d" x="260.470703"/>
      <use xlink:href="#DejaVuSans-44" x="296.554688"/>
      <use xlink:href="#DejaVuSans-45" x="373.556641"/>
      <use xlink:href="#DejaVuSans-4c" x="436.740234"/>
      <use xlink:href="#DejaVuSans-41" x="494.703125"/>
      <use xlink:href="#DejaVuSans-59" x="555.361328"/>
      <use xlink:href="#DejaVuSans-2d" x="604.570312"/>
      <use xlink:href="#DejaVuSans-35" x="640.654297"/>
     </g>
    </g>
    <g id="line2d_19">
     <path d="M 321.922656 60.314219 
L 332.922656 60.314219 
L 343.922656 60.314219 
" style="fill: none; stroke: #dd8452; stroke-width: 3; stroke-linecap: round"/>
    </g>
    <g id="text_18">
     <!-- SAC-DELAY-5 -->
     <g style="fill: #262626" transform="translate(352.722656 64.164219)scale(0.11 -0.11)">
      <defs>
       <path id="DejaVuSans-43" d="M 4122 4306 
L 4122 3641 
Q 3803 3938 3442 4084 
Q 3081 4231 2675 4231 
Q 1875 4231 1450 3742 
Q 1025 3253 1025 2328 
Q 1025 1406 1450 917 
Q 1875 428 2675 428 
Q 3081 428 3442 575 
Q 3803 722 4122 1019 
L 4122 359 
Q 3791 134 3420 21 
Q 3050 -91 2638 -91 
Q 1578 -91 968 557 
Q 359 1206 359 2328 
Q 359 3453 968 4101 
Q 1578 4750 2638 4750 
Q 3056 4750 3426 4639 
Q 3797 4528 4122 4306 
z
" transform="scale(0.015625)"/>
      </defs>
      <use xlink:href="#DejaVuSans-53"/>
      <use xlink:href="#DejaVuSans-41" x="65.351562"/>
      <use xlink:href="#DejaVuSans-43" x="132.009766"/>
      <use xlink:href="#DejaVuSans-2d" x="201.833984"/>
      <use xlink:href="#DejaVuSans-44" x="237.917969"/>
      <use xlink:href="#DejaVuSans-45" x="314.919922"/>
      <use xlink:href="#DejaVuSans-4c" x="378.103516"/>
      <use xlink:href="#DejaVuSans-41" x="436.066406"/>
      <use xlink:href="#DejaVuSans-59" x="496.724609"/>
      <use xlink:href="#DejaVuSans-2d" x="545.933594"/>
      <use xlink:href="#DejaVuSans-35" x="582.017578"/>
     </g>
    </g>
    <g id="line2d_20">
     <path d="M 321.922656 76.460156 
L 332.922656 76.460156 
L 343.922656 76.460156 
" style="fill: none; stroke: #55a868; stroke-width: 3; stroke-linecap: round"/>
    </g>
    <g id="text_19">
     <!-- SAC-IS-DELAY-5 -->
     <g style="fill: #262626" transform="translate(352.722656 80.310156)scale(0.11 -0.11)">
      <defs>
       <path id="DejaVuSans-49" d="M 628 4666 
L 1259 4666 
L 1259 0 
L 628 0 
L 628 4666 
z
" transform="scale(0.015625)"/>
      </defs>
      <use xlink:href="#DejaVuSans-53"/>
      <use xlink:href="#DejaVuSans-41" x="65.351562"/>
      <use xlink:href="#DejaVuSans-43" x="132.009766"/>
      <use xlink:href="#DejaVuSans-2d" x="201.833984"/>
      <use xlink:href="#DejaVuSans-49" x="237.917969"/>
      <use xlink:href="#DejaVuSans-53" x="267.410156"/>
      <use xlink:href="#DejaVuSans-2d" x="330.886719"/>
      <use xlink:href="#DejaVuSans-44" x="366.970703"/>
      <use xlink:href="#DejaVuSans-45" x="443.972656"/>
      <use xlink:href="#DejaVuSans-4c" x="507.15625"/>
      <use xlink:href="#DejaVuSans-41" x="565.119141"/>
      <use xlink:href="#DejaVuSans-59" x="625.777344"/>
      <use xlink:href="#DejaVuSans-2d" x="674.986328"/>
      <use xlink:href="#DejaVuSans-35" x="711.070312"/>
     </g>
    </g>
    <g id="line2d_21">
     <path d="M 321.922656 92.606094 
L 332.922656 92.606094 
L 343.922656 92.606094 
" style="fill: none; stroke: #c44e52; stroke-width: 3; stroke-linecap: round"/>
    </g>
    <g id="text_20">
     <!-- DCAC-DELAY-5 -->
     <g style="fill: #262626" transform="translate(352.722656 96.456094)scale(0.11 -0.11)">
      <use xlink:href="#DejaVuSans-44"/>
      <use xlink:href="#DejaVuSans-43" x="77.001953"/>
      <use xlink:href="#DejaVuSans-41" x="146.826172"/>
      <use xlink:href="#DejaVuSans-43" x="213.484375"/>
      <use xlink:href="#DejaVuSans-2d" x="283.308594"/>
      <use xlink:href="#DejaVuSans-44" x="319.392578"/>
      <use xlink:href="#DejaVuSans-45" x="396.394531"/>
      <use xlink:href="#DejaVuSans-4c" x="459.578125"/>
      <use xlink:href="#DejaVuSans-41" x="517.541016"/>
      <use xlink:href="#DejaVuSans-59" x="578.199219"/>
      <use xlink:href="#DejaVuSans-2d" x="627.408203"/>
      <use xlink:href="#DejaVuSans-35" x="663.492188"/>
     </g>
    </g>
   </g>
  </g>
 </g>
 <defs>
  <clipPath id="pc0cf8e1e32">
   <rect x="67.86" y="29.76" width="379.98" height="264.9"/>
  </clipPath>
 </defs>
</svg>
