<?xml version="1.0" encoding="utf-8" standalone="no"?>
<!DOCTYPE svg PUBLIC "-//W3C//DTD SVG 1.1//EN"
  "http://www.w3.org/Graphics/SVG/1.1/DTD/svg11.dtd">
<svg xmlns:xlink="http://www.w3.org/1999/xlink" width="460.8pt" height="345.6pt" viewBox="0 0 460.8 345.6" xmlns="http://www.w3.org/2000/svg" version="1.1">
 <metadata>
  <rdf:RDF xmlns:dc="http://purl.org/dc/elements/1.1/" xmlns:cc="http://creativecommons.org/ns#" xmlns:rdf="http://www.w3.org/1999/02/22-rdf-syntax-ns#">
   <cc:Work>
    <dc:type rdf:resource="http://purl.org/dc/dcmitype/StillImage"/>
    <dc:date>2022-09-10T15:52:00.798009</dc:date>
    <dc:format>image/svg+xml</dc:format>
    <dc:creator>
     <cc:Agent>
      <dc:title>Matplotlib v3.5.3, https://matplotlib.org/</dc:title>
     </cc:Agent>
    </dc:creator>
   </cc:Work>
  </rdf:RDF>
 </metadata>
 <defs>
  <style type="text/css">*{stroke-linejoin: round; stroke-linecap: butt}</style>
 </defs>
 <g id="figure_1">
  <g id="patch_1">
   <path d="M 0 345.6 
L 460.8 345.6 
L 460.8 0 
L 0 0 
z
" style="fill: #ffffff"/>
  </g>
  <g id="axes_1">
   <g id="patch_2">
    <path d="M 67.86 294.66 
L 447.84 294.66 
L 447.84 29.76 
L 67.86 29.76 
z
" style="fill: #eaeaf2"/>
   </g>
   <g id="matplotlib.axis_1">
    <g id="xtick_1">
     <g id="line2d_1">
      <path d="M 82.228992 294.66 
L 82.228992 29.76 
" clip-path="url(#pc293348c3f)" style="fill: none; stroke: #ffffff; stroke-linecap: round"/>
     </g>
     <g id="text_1">
      <!-- 0.00 -->
      <g style="fill: #262626" transform="translate(69.982898 312.518281)scale(0.11 -0.11)">
       <defs>
        <path id="DejaVuSans-30" d="M 2034 4250 
Q 1547 4250 1301 3770 
Q 1056 3291 1056 2328 
Q 1056 1369 1301 889 
Q 1547 409 2034 409 
Q 2525 409 2770 889 
Q 3016 1369 3016 2328 
Q 3016 3291 2770 3770 
Q 2525 4250 2034 4250 
z
M 2034 4750 
Q 2819 4750 3233 4129 
Q 3647 3509 3647 2328 
Q 3647 1150 3233 529 
Q 2819 -91 2034 -91 
Q 1250 -91 836 529 
Q 422 1150 422 2328 
Q 422 3509 836 4129 
Q 1250 4750 2034 4750 
z
" transform="scale(0.015625)"/>
        <path id="DejaVuSans-2e" d="M 684 794 
L 1344 794 
L 1344 0 
L 684 0 
L 684 794 
z
" transform="scale(0.015625)"/>
       </defs>
       <use xlink:href="#DejaVuSans-30"/>
       <use xlink:href="#DejaVuSans-2e" x="63.623047"/>
       <use xlink:href="#DejaVuSans-30" x="95.410156"/>
       <use xlink:href="#DejaVuSans-30" x="159.033203"/>
      </g>
     </g>
    </g>
    <g id="xtick_2">
     <g id="line2d_2">
      <path d="M 140.285523 294.66 
L 140.285523 29.76 
" clip-path="url(#pc293348c3f)" style="fill: none; stroke: #ffffff; stroke-linecap: round"/>
     </g>
     <g id="text_2">
      <!-- 0.05 -->
      <g style="fill: #262626" transform="translate(128.03943 312.518281)scale(0.11 -0.11)">
       <defs>
        <path id="DejaVuSans-35" d="M 691 4666 
L 3169 4666 
L 3169 4134 
L 1269 4134 
L 1269 2991 
Q 1406 3038 1543 3061 
Q 1681 3084 1819 3084 
Q 2600 3084 3056 2656 
Q 3513 2228 3513 1497 
Q 3513 744 3044 326 
Q 2575 -91 1722 -91 
Q 1428 -91 1123 -41 
Q 819 9 494 109 
L 494 744 
Q 775 591 1075 516 
Q 1375 441 1709 441 
Q 2250 441 2565 725 
Q 2881 1009 2881 1497 
Q 2881 1984 2565 2268 
Q 2250 2553 1709 2553 
Q 1456 2553 1204 2497 
Q 953 2441 691 2322 
L 691 4666 
z
" transform="scale(0.015625)"/>
       </defs>
       <use xlink:href="#DejaVuSans-30"/>
       <use xlink:href="#DejaVuSans-2e" x="63.623047"/>
       <use xlink:href="#DejaVuSans-30" x="95.410156"/>
       <use xlink:href="#DejaVuSans-35" x="159.033203"/>
      </g>
     </g>
    </g>
    <g id="xtick_3">
     <g id="line2d_3">
      <path d="M 198.342055 294.66 
L 198.342055 29.76 
" clip-path="url(#pc293348c3f)" style="fill: none; stroke: #ffffff; stroke-linecap: round"/>
     </g>
     <g id="text_3">
      <!-- 0.10 -->
      <g style="fill: #262626" transform="translate(186.095961 312.518281)scale(0.11 -0.11)">
       <defs>
        <path id="DejaVuSans-31" d="M 794 531 
L 1825 531 
L 1825 4091 
L 703 3866 
L 703 4441 
L 1819 4666 
L 2450 4666 
L 2450 531 
L 3481 531 
L 3481 0 
L 794 0 
L 794 531 
z
" transform="scale(0.015625)"/>
       </defs>
       <use xlink:href="#DejaVuSans-30"/>
       <use xlink:href="#DejaVuSans-2e" x="63.623047"/>
       <use xlink:href="#DejaVuSans-31" x="95.410156"/>
       <use xlink:href="#DejaVuSans-30" x="159.033203"/>
      </g>
     </g>
    </g>
    <g id="xtick_4">
     <g id="line2d_4">
      <path d="M 256.398587 294.66 
L 256.398587 29.76 
" clip-path="url(#pc293348c3f)" style="fill: none; stroke: #ffffff; stroke-linecap: round"/>
     </g>
     <g id="text_4">
      <!-- 0.15 -->
      <g style="fill: #262626" transform="translate(244.152493 312.518281)scale(0.11 -0.11)">
       <use xlink:href="#DejaVuSans-30"/>
       <use xlink:href="#DejaVuSans-2e" x="63.623047"/>
       <use xlink:href="#DejaVuSans-31" x="95.410156"/>
       <use xlink:href="#DejaVuSans-35" x="159.033203"/>
      </g>
     </g>
    </g>
    <g id="xtick_5">
     <g id="line2d_5">
      <path d="M 314.455118 294.66 
L 314.455118 29.76 
" clip-path="url(#pc293348c3f)" style="fill: none; stroke: #ffffff; stroke-linecap: round"/>
     </g>
     <g id="text_5">
      <!-- 0.20 -->
      <g style="fill: #262626" transform="translate(302.209025 312.518281)scale(0.11 -0.11)">
       <defs>
        <path id="DejaVuSans-32" d="M 1228 531 
L 3431 531 
L 3431 0 
L 469 0 
L 469 531 
Q 828 903 1448 1529 
Q 2069 2156 2228 2338 
Q 2531 2678 2651 2914 
Q 2772 3150 2772 3378 
Q 2772 3750 2511 3984 
Q 2250 4219 1831 4219 
Q 1534 4219 1204 4116 
Q 875 4013 500 3803 
L 500 4441 
Q 881 4594 1212 4672 
Q 1544 4750 1819 4750 
Q 2544 4750 2975 4387 
Q 3406 4025 3406 3419 
Q 3406 3131 3298 2873 
Q 3191 2616 2906 2266 
Q 2828 2175 2409 1742 
Q 1991 1309 1228 531 
z
" transform="scale(0.015625)"/>
       </defs>
       <use xlink:href="#DejaVuSans-30"/>
       <use xlink:href="#DejaVuSans-2e" x="63.623047"/>
       <use xlink:href="#DejaVuSans-32" x="95.410156"/>
       <use xlink:href="#DejaVuSans-30" x="159.033203"/>
      </g>
     </g>
    </g>
    <g id="xtick_6">
     <g id="line2d_6">
      <path d="M 372.51165 294.66 
L 372.51165 29.76 
" clip-path="url(#pc293348c3f)" style="fill: none; stroke: #ffffff; stroke-linecap: round"/>
     </g>
     <g id="text_6">
      <!-- 0.25 -->
      <g style="fill: #262626" transform="translate(360.265556 312.518281)scale(0.11 -0.11)">
       <use xlink:href="#DejaVuSans-30"/>
       <use xlink:href="#DejaVuSans-2e" x="63.623047"/>
       <use xlink:href="#DejaVuSans-32" x="95.410156"/>
       <use xlink:href="#DejaVuSans-35" x="159.033203"/>
      </g>
     </g>
    </g>
    <g id="xtick_7">
     <g id="line2d_7">
      <path d="M 430.568182 294.66 
L 430.568182 29.76 
" clip-path="url(#pc293348c3f)" style="fill: none; stroke: #ffffff; stroke-linecap: round"/>
     </g>
     <g id="text_7">
      <!-- 0.30 -->
      <g style="fill: #262626" transform="translate(418.322088 312.518281)scale(0.11 -0.11)">
       <defs>
        <path id="DejaVuSans-33" d="M 2597 2516 
Q 3050 2419 3304 2112 
Q 3559 1806 3559 1356 
Q 3559 666 3084 287 
Q 2609 -91 1734 -91 
Q 1441 -91 1130 -33 
Q 819 25 488 141 
L 488 750 
Q 750 597 1062 519 
Q 1375 441 1716 441 
Q 2309 441 2620 675 
Q 2931 909 2931 1356 
Q 2931 1769 2642 2001 
Q 2353 2234 1838 2234 
L 1294 2234 
L 1294 2753 
L 1863 2753 
Q 2328 2753 2575 2939 
Q 2822 3125 2822 3475 
Q 2822 3834 2567 4026 
Q 2313 4219 1838 4219 
Q 1578 4219 1281 4162 
Q 984 4106 628 3988 
L 628 4550 
Q 988 4650 1302 4700 
Q 1616 4750 1894 4750 
Q 2613 4750 3031 4423 
Q 3450 4097 3450 3541 
Q 3450 3153 3228 2886 
Q 3006 2619 2597 2516 
z
" transform="scale(0.015625)"/>
       </defs>
       <use xlink:href="#DejaVuSans-30"/>
       <use xlink:href="#DejaVuSans-2e" x="63.623047"/>
       <use xlink:href="#DejaVuSans-33" x="95.410156"/>
       <use xlink:href="#DejaVuSans-30" x="159.033203"/>
      </g>
     </g>
    </g>
    <g id="text_8">
     <!-- Timesteps (in Million) -->
     <g style="fill: #262626" transform="translate(183.104219 329.44375)scale(0.14 -0.14)">
      <defs>
       <path id="DejaVuSans-54" d="M -19 4666 
L 3928 4666 
L 3928 4134 
L 2272 4134 
L 2272 0 
L 1638 0 
L 1638 4134 
L -19 4134 
L -19 4666 
z
" transform="scale(0.015625)"/>
       <path id="DejaVuSans-69" d="M 603 3500 
L 1178 3500 
L 1178 0 
L 603 0 
L 603 3500 
z
M 603 4863 
L 1178 4863 
L 1178 4134 
L 603 4134 
L 603 4863 
z
" transform="scale(0.015625)"/>
       <path id="DejaVuSans-6d" d="M 3328 2828 
Q 3544 3216 3844 3400 
Q 4144 3584 4550 3584 
Q 5097 3584 5394 3201 
Q 5691 2819 5691 2113 
L 5691 0 
L 5113 0 
L 5113 2094 
Q 5113 2597 4934 2840 
Q 4756 3084 4391 3084 
Q 3944 3084 3684 2787 
Q 3425 2491 3425 1978 
L 3425 0 
L 2847 0 
L 2847 2094 
Q 2847 2600 2669 2842 
Q 2491 3084 2119 3084 
Q 1678 3084 1418 2786 
Q 1159 2488 1159 1978 
L 1159 0 
L 581 0 
L 581 3500 
L 1159 3500 
L 1159 2956 
Q 1356 3278 1631 3431 
Q 1906 3584 2284 3584 
Q 2666 3584 2933 3390 
Q 3200 3197 3328 2828 
z
" transform="scale(0.015625)"/>
       <path id="DejaVuSans-65" d="M 3597 1894 
L 3597 1613 
L 953 1613 
Q 991 1019 1311 708 
Q 1631 397 2203 397 
Q 2534 397 2845 478 
Q 3156 559 3463 722 
L 3463 178 
Q 3153 47 2828 -22 
Q 2503 -91 2169 -91 
Q 1331 -91 842 396 
Q 353 884 353 1716 
Q 353 2575 817 3079 
Q 1281 3584 2069 3584 
Q 2775 3584 3186 3129 
Q 3597 2675 3597 1894 
z
M 3022 2063 
Q 3016 2534 2758 2815 
Q 2500 3097 2075 3097 
Q 1594 3097 1305 2825 
Q 1016 2553 972 2059 
L 3022 2063 
z
" transform="scale(0.015625)"/>
       <path id="DejaVuSans-73" d="M 2834 3397 
L 2834 2853 
Q 2591 2978 2328 3040 
Q 2066 3103 1784 3103 
Q 1356 3103 1142 2972 
Q 928 2841 928 2578 
Q 928 2378 1081 2264 
Q 1234 2150 1697 2047 
L 1894 2003 
Q 2506 1872 2764 1633 
Q 3022 1394 3022 966 
Q 3022 478 2636 193 
Q 2250 -91 1575 -91 
Q 1294 -91 989 -36 
Q 684 19 347 128 
L 347 722 
Q 666 556 975 473 
Q 1284 391 1588 391 
Q 1994 391 2212 530 
Q 2431 669 2431 922 
Q 2431 1156 2273 1281 
Q 2116 1406 1581 1522 
L 1381 1569 
Q 847 1681 609 1914 
Q 372 2147 372 2553 
Q 372 3047 722 3315 
Q 1072 3584 1716 3584 
Q 2034 3584 2315 3537 
Q 2597 3491 2834 3397 
z
" transform="scale(0.015625)"/>
       <path id="DejaVuSans-74" d="M 1172 4494 
L 1172 3500 
L 2356 3500 
L 2356 3053 
L 1172 3053 
L 1172 1153 
Q 1172 725 1289 603 
Q 1406 481 1766 481 
L 2356 481 
L 2356 0 
L 1766 0 
Q 1100 0 847 248 
Q 594 497 594 1153 
L 594 3053 
L 172 3053 
L 172 3500 
L 594 3500 
L 594 4494 
L 1172 4494 
z
" transform="scale(0.015625)"/>
       <path id="DejaVuSans-70" d="M 1159 525 
L 1159 -1331 
L 581 -1331 
L 581 3500 
L 1159 3500 
L 1159 2969 
Q 1341 3281 1617 3432 
Q 1894 3584 2278 3584 
Q 2916 3584 3314 3078 
Q 3713 2572 3713 1747 
Q 3713 922 3314 415 
Q 2916 -91 2278 -91 
Q 1894 -91 1617 61 
Q 1341 213 1159 525 
z
M 3116 1747 
Q 3116 2381 2855 2742 
Q 2594 3103 2138 3103 
Q 1681 3103 1420 2742 
Q 1159 2381 1159 1747 
Q 1159 1113 1420 752 
Q 1681 391 2138 391 
Q 2594 391 2855 752 
Q 3116 1113 3116 1747 
z
" transform="scale(0.015625)"/>
       <path id="DejaVuSans-20" transform="scale(0.015625)"/>
       <path id="DejaVuSans-28" d="M 1984 4856 
Q 1566 4138 1362 3434 
Q 1159 2731 1159 2009 
Q 1159 1288 1364 580 
Q 1569 -128 1984 -844 
L 1484 -844 
Q 1016 -109 783 600 
Q 550 1309 550 2009 
Q 550 2706 781 3412 
Q 1013 4119 1484 4856 
L 1984 4856 
z
" transform="scale(0.015625)"/>
       <path id="DejaVuSans-6e" d="M 3513 2113 
L 3513 0 
L 2938 0 
L 2938 2094 
Q 2938 2591 2744 2837 
Q 2550 3084 2163 3084 
Q 1697 3084 1428 2787 
Q 1159 2491 1159 1978 
L 1159 0 
L 581 0 
L 581 3500 
L 1159 3500 
L 1159 2956 
Q 1366 3272 1645 3428 
Q 1925 3584 2291 3584 
Q 2894 3584 3203 3211 
Q 3513 2838 3513 2113 
z
" transform="scale(0.015625)"/>
       <path id="DejaVuSans-4d" d="M 628 4666 
L 1569 4666 
L 2759 1491 
L 3956 4666 
L 4897 4666 
L 4897 0 
L 4281 0 
L 4281 4097 
L 3078 897 
L 2444 897 
L 1241 4097 
L 1241 0 
L 628 0 
L 628 4666 
z
" transform="scale(0.015625)"/>
       <path id="DejaVuSans-6c" d="M 603 4863 
L 1178 4863 
L 1178 0 
L 603 0 
L 603 4863 
z
" transform="scale(0.015625)"/>
       <path id="DejaVuSans-6f" d="M 1959 3097 
Q 1497 3097 1228 2736 
Q 959 2375 959 1747 
Q 959 1119 1226 758 
Q 1494 397 1959 397 
Q 2419 397 2687 759 
Q 2956 1122 2956 1747 
Q 2956 2369 2687 2733 
Q 2419 3097 1959 3097 
z
M 1959 3584 
Q 2709 3584 3137 3096 
Q 3566 2609 3566 1747 
Q 3566 888 3137 398 
Q 2709 -91 1959 -91 
Q 1206 -91 779 398 
Q 353 888 353 1747 
Q 353 2609 779 3096 
Q 1206 3584 1959 3584 
z
" transform="scale(0.015625)"/>
       <path id="DejaVuSans-29" d="M 513 4856 
L 1013 4856 
Q 1481 4119 1714 3412 
Q 1947 2706 1947 2009 
Q 1947 1309 1714 600 
Q 1481 -109 1013 -844 
L 513 -844 
Q 928 -128 1133 580 
Q 1338 1288 1338 2009 
Q 1338 2731 1133 3434 
Q 928 4138 513 4856 
z
" transform="scale(0.015625)"/>
      </defs>
      <use xlink:href="#DejaVuSans-54"/>
      <use xlink:href="#DejaVuSans-69" x="57.958984"/>
      <use xlink:href="#DejaVuSans-6d" x="85.742188"/>
      <use xlink:href="#DejaVuSans-65" x="183.154297"/>
      <use xlink:href="#DejaVuSans-73" x="244.677734"/>
      <use xlink:href="#DejaVuSans-74" x="296.777344"/>
      <use xlink:href="#DejaVuSans-65" x="335.986328"/>
      <use xlink:href="#DejaVuSans-70" x="397.509766"/>
      <use xlink:href="#DejaVuSans-73" x="460.986328"/>
      <use xlink:href="#DejaVuSans-20" x="513.085938"/>
      <use xlink:href="#DejaVuSans-28" x="544.873047"/>
      <use xlink:href="#DejaVuSans-69" x="583.886719"/>
      <use xlink:href="#DejaVuSans-6e" x="611.669922"/>
      <use xlink:href="#DejaVuSans-20" x="675.048828"/>
      <use xlink:href="#DejaVuSans-4d" x="706.835938"/>
      <use xlink:href="#DejaVuSans-69" x="793.115234"/>
      <use xlink:href="#DejaVuSans-6c" x="820.898438"/>
      <use xlink:href="#DejaVuSans-6c" x="848.681641"/>
      <use xlink:href="#DejaVuSans-69" x="876.464844"/>
      <use xlink:href="#DejaVuSans-6f" x="904.248047"/>
      <use xlink:href="#DejaVuSans-6e" x="965.429688"/>
      <use xlink:href="#DejaVuSans-29" x="1028.808594"/>
     </g>
    </g>
   </g>
   <g id="matplotlib.axis_2">
    <g id="ytick_1">
     <g id="line2d_8">
      <path d="M 67.86 282.619091 
L 447.84 282.619091 
" clip-path="url(#pc293348c3f)" style="fill: none; stroke: #ffffff; stroke-linecap: round"/>
     </g>
     <g id="text_9">
      <!-- 0 -->
      <g style="fill: #262626" transform="translate(51.36125 286.798232)scale(0.11 -0.11)">
       <use xlink:href="#DejaVuSans-30"/>
      </g>
     </g>
    </g>
    <g id="ytick_2">
     <g id="line2d_9">
      <path d="M 67.86 234.455455 
L 447.84 234.455455 
" clip-path="url(#pc293348c3f)" style="fill: none; stroke: #ffffff; stroke-linecap: round"/>
     </g>
     <g id="text_10">
      <!-- 500 -->
      <g style="fill: #262626" transform="translate(37.36375 238.634595)scale(0.11 -0.11)">
       <use xlink:href="#DejaVuSans-35"/>
       <use xlink:href="#DejaVuSans-30" x="63.623047"/>
       <use xlink:href="#DejaVuSans-30" x="127.246094"/>
      </g>
     </g>
    </g>
    <g id="ytick_3">
     <g id="line2d_10">
      <path d="M 67.86 186.291818 
L 447.84 186.291818 
" clip-path="url(#pc293348c3f)" style="fill: none; stroke: #ffffff; stroke-linecap: round"/>
     </g>
     <g id="text_11">
      <!-- 1000 -->
      <g style="fill: #262626" transform="translate(30.365 190.470959)scale(0.11 -0.11)">
       <use xlink:href="#DejaVuSans-31"/>
       <use xlink:href="#DejaVuSans-30" x="63.623047"/>
       <use xlink:href="#DejaVuSans-30" x="127.246094"/>
       <use xlink:href="#DejaVuSans-30" x="190.869141"/>
      </g>
     </g>
    </g>
    <g id="ytick_4">
     <g id="line2d_11">
      <path d="M 67.86 138.128182 
L 447.84 138.128182 
" clip-path="url(#pc293348c3f)" style="fill: none; stroke: #ffffff; stroke-linecap: round"/>
     </g>
     <g id="text_12">
      <!-- 1500 -->
      <g style="fill: #262626" transform="translate(30.365 142.307322)scale(0.11 -0.11)">
       <use xlink:href="#DejaVuSans-31"/>
       <use xlink:href="#DejaVuSans-35" x="63.623047"/>
       <use xlink:href="#DejaVuSans-30" x="127.246094"/>
       <use xlink:href="#DejaVuSans-30" x="190.869141"/>
      </g>
     </g>
    </g>
    <g id="ytick_5">
     <g id="line2d_12">
      <path d="M 67.86 89.964545 
L 447.84 89.964545 
" clip-path="url(#pc293348c3f)" style="fill: none; stroke: #ffffff; stroke-linecap: round"/>
     </g>
     <g id="text_13">
      <!-- 2000 -->
      <g style="fill: #262626" transform="translate(30.365 94.143686)scale(0.11 -0.11)">
       <use xlink:href="#DejaVuSans-32"/>
       <use xlink:href="#DejaVuSans-30" x="63.623047"/>
       <use xlink:href="#DejaVuSans-30" x="127.246094"/>
       <use xlink:href="#DejaVuSans-30" x="190.869141"/>
      </g>
     </g>
    </g>
    <g id="ytick_6">
     <g id="line2d_13">
      <path d="M 67.86 41.800909 
L 447.84 41.800909 
" clip-path="url(#pc293348c3f)" style="fill: none; stroke: #ffffff; stroke-linecap: round"/>
     </g>
     <g id="text_14">
      <!-- 2500 -->
      <g style="fill: #262626" transform="translate(30.365 45.98005)scale(0.11 -0.11)">
       <use xlink:href="#DejaVuSans-32"/>
       <use xlink:href="#DejaVuSans-35" x="63.623047"/>
       <use xlink:href="#DejaVuSans-30" x="127.246094"/>
       <use xlink:href="#DejaVuSans-30" x="190.869141"/>
      </g>
     </g>
    </g>
    <g id="text_15">
     <!-- # Highs (Δx &gt; 20) -->
     <g style="fill: #262626" transform="translate(23.453438 225.877187)rotate(-90)scale(0.14 -0.14)">
      <defs>
       <path id="DejaVuSans-23" d="M 3272 2816 
L 2363 2816 
L 2100 1772 
L 3016 1772 
L 3272 2816 
z
M 2803 4594 
L 2478 3297 
L 3391 3297 
L 3719 4594 
L 4219 4594 
L 3897 3297 
L 4872 3297 
L 4872 2816 
L 3775 2816 
L 3519 1772 
L 4513 1772 
L 4513 1294 
L 3397 1294 
L 3072 0 
L 2572 0 
L 2894 1294 
L 1978 1294 
L 1656 0 
L 1153 0 
L 1478 1294 
L 494 1294 
L 494 1772 
L 1594 1772 
L 1856 2816 
L 850 2816 
L 850 3297 
L 1978 3297 
L 2297 4594 
L 2803 4594 
z
" transform="scale(0.015625)"/>
       <path id="DejaVuSans-48" d="M 628 4666 
L 1259 4666 
L 1259 2753 
L 3553 2753 
L 3553 4666 
L 4184 4666 
L 4184 0 
L 3553 0 
L 3553 2222 
L 1259 2222 
L 1259 0 
L 628 0 
L 628 4666 
z
" transform="scale(0.015625)"/>
       <path id="DejaVuSans-67" d="M 2906 1791 
Q 2906 2416 2648 2759 
Q 2391 3103 1925 3103 
Q 1463 3103 1205 2759 
Q 947 2416 947 1791 
Q 947 1169 1205 825 
Q 1463 481 1925 481 
Q 2391 481 2648 825 
Q 2906 1169 2906 1791 
z
M 3481 434 
Q 3481 -459 3084 -895 
Q 2688 -1331 1869 -1331 
Q 1566 -1331 1297 -1286 
Q 1028 -1241 775 -1147 
L 775 -588 
Q 1028 -725 1275 -790 
Q 1522 -856 1778 -856 
Q 2344 -856 2625 -561 
Q 2906 -266 2906 331 
L 2906 616 
Q 2728 306 2450 153 
Q 2172 0 1784 0 
Q 1141 0 747 490 
Q 353 981 353 1791 
Q 353 2603 747 3093 
Q 1141 3584 1784 3584 
Q 2172 3584 2450 3431 
Q 2728 3278 2906 2969 
L 2906 3500 
L 3481 3500 
L 3481 434 
z
" transform="scale(0.015625)"/>
       <path id="DejaVuSans-68" d="M 3513 2113 
L 3513 0 
L 2938 0 
L 2938 2094 
Q 2938 2591 2744 2837 
Q 2550 3084 2163 3084 
Q 1697 3084 1428 2787 
Q 1159 2491 1159 1978 
L 1159 0 
L 581 0 
L 581 4863 
L 1159 4863 
L 1159 2956 
Q 1366 3272 1645 3428 
Q 1925 3584 2291 3584 
Q 2894 3584 3203 3211 
Q 3513 2838 3513 2113 
z
" transform="scale(0.015625)"/>
       <path id="DejaVuSans-394" d="M 2188 4044 
L 906 525 
L 3472 525 
L 2188 4044 
z
M 50 0 
L 1831 4666 
L 2547 4666 
L 4325 0 
L 50 0 
z
" transform="scale(0.015625)"/>
       <path id="DejaVuSans-78" d="M 3513 3500 
L 2247 1797 
L 3578 0 
L 2900 0 
L 1881 1375 
L 863 0 
L 184 0 
L 1544 1831 
L 300 3500 
L 978 3500 
L 1906 2253 
L 2834 3500 
L 3513 3500 
z
" transform="scale(0.015625)"/>
       <path id="DejaVuSans-3e" d="M 678 3150 
L 678 3719 
L 4684 2266 
L 4684 1747 
L 678 294 
L 678 863 
L 3897 2003 
L 678 3150 
z
" transform="scale(0.015625)"/>
      </defs>
      <use xlink:href="#DejaVuSans-23"/>
      <use xlink:href="#DejaVuSans-20" x="83.789062"/>
      <use xlink:href="#DejaVuSans-48" x="115.576172"/>
      <use xlink:href="#DejaVuSans-69" x="190.771484"/>
      <use xlink:href="#DejaVuSans-67" x="218.554688"/>
      <use xlink:href="#DejaVuSans-68" x="282.03125"/>
      <use xlink:href="#DejaVuSans-73" x="345.410156"/>
      <use xlink:href="#DejaVuSans-20" x="397.509766"/>
      <use xlink:href="#DejaVuSans-28" x="429.296875"/>
      <use xlink:href="#DejaVuSans-394" x="468.310547"/>
      <use xlink:href="#DejaVuSans-78" x="536.71875"/>
      <use xlink:href="#DejaVuSans-20" x="595.898438"/>
      <use xlink:href="#DejaVuSans-3e" x="627.685547"/>
      <use xlink:href="#DejaVuSans-20" x="711.474609"/>
      <use xlink:href="#DejaVuSans-32" x="743.261719"/>
      <use xlink:href="#DejaVuSans-30" x="806.884766"/>
      <use xlink:href="#DejaVuSans-29" x="870.507812"/>
     </g>
    </g>
   </g>
   <g id="PolyCollection_1">
    <defs>
     <path id="m2a4e0b98e0" d="M 85.131818 -63.173564 
L 85.131818 -92.938691 
L 88.034645 -64.425818 
L 90.937471 -110.2776 
L 93.840298 -73.480582 
L 96.743125 -116.249891 
L 99.645951 -64.618473 
L 102.548778 -158.537564 
L 105.451604 -64.040509 
L 108.354431 -114.034364 
L 111.257257 -93.324 
L 114.160084 -256.020764 
L 117.062911 -63.173564 
L 119.965737 -265.075527 
L 122.868564 -63.366218 
L 125.77139 -63.269891 
L 128.674217 -200.632582 
L 131.577044 -223.076836 
L 134.47987 -90.530509 
L 137.382697 -254.286873 
L 140.285523 -163.161273 
L 143.18835 -131.180618 
L 146.091176 -88.411309 
L 148.994003 -195.623564 
L 151.89683 -63.173564 
L 154.799656 -128.676109 
L 157.702483 -64.040509 
L 160.605309 -264.690218 
L 163.508136 -212.095527 
L 166.410963 -64.7148 
L 169.313789 -148.519527 
L 172.216616 -190.036582 
L 175.119442 -63.077236 
L 178.022269 -260.162836 
L 180.925095 -63.173564 
L 183.827922 -246.869673 
L 186.730749 -113.745382 
L 189.633575 -72.902618 
L 192.536402 -224.810727 
L 195.439228 -178.092 
L 198.342055 -103.245709 
L 201.244882 -246.966 
L 204.147708 -123.089127 
L 207.050535 -180.307527 
L 209.953361 -75.696109 
L 212.856188 -149.4828 
L 215.759015 -234.925091 
L 218.661841 -280.006255 
L 221.564668 -63.173564 
L 224.467494 -212.384509 
L 227.370321 -63.173564 
L 230.273147 -233.094873 
L 233.175974 -244.8468 
L 236.078801 -62.980909 
L 238.981627 -154.299164 
L 241.884454 -112.3968 
L 244.78728 -168.5556 
L 247.690107 -64.233164 
L 250.592934 -255.153818 
L 253.49576 -218.549455 
L 256.398587 -63.269891 
L 259.301413 -120.584618 
L 262.20424 -273.648655 
L 265.107066 -63.173564 
L 268.009893 -91.879091 
L 270.91272 -219.4164 
L 273.815546 -100.7412 
L 276.718373 -63.173564 
L 279.621199 -82.053709 
L 282.524026 -274.322945 
L 285.426853 -251.782364 
L 288.329679 -85.136182 
L 291.232506 -128.387127 
L 294.135332 -257.465673 
L 297.038159 -258.717927 
L 299.940985 -241.282691 
L 302.843812 -81.572073 
L 305.746639 -277.405418 
L 308.649465 -277.116436 
L 311.552292 -264.9792 
L 314.455118 -173.949927 
L 317.357945 -282.414436 
L 320.260772 -63.269891 
L 323.163598 -280.295236 
L 326.066425 -63.173564 
L 328.969251 -136.478618 
L 331.872078 -69.820145 
L 334.774905 -256.213418 
L 337.677731 -63.077236 
L 340.580558 -276.6348 
L 343.483384 -159.789818 
L 346.386211 -117.598473 
L 349.289037 -162.968618 
L 352.191864 -133.492473 
L 355.094691 -63.077236 
L 357.997517 -65.967055 
L 360.900344 -63.366218 
L 363.80317 -265.942473 
L 366.705997 -247.640291 
L 369.608824 -140.331709 
L 372.51165 -64.233164 
L 375.414477 -79.260218 
L 378.317303 -115.190291 
L 381.22013 -75.021818 
L 384.122956 -170.6748 
L 387.025783 -80.897782 
L 389.92861 -178.477309 
L 392.831436 -120.488291 
L 395.734263 -260.933455 
L 398.637089 -270.662509 
L 401.539916 -104.016327 
L 404.442743 -124.341382 
L 407.345569 -88.218655 
L 410.248396 -137.249236 
L 413.151222 -148.230545 
L 416.054049 -111.818836 
L 418.956875 -88.700291 
L 421.859702 -155.262436 
L 424.762529 -189.554945 
L 427.665355 -209.302036 
L 430.568182 -276.056836 
L 430.568182 -63.173564 
L 430.568182 -63.173564 
L 427.665355 -63.077236 
L 424.762529 -62.980909 
L 421.859702 -63.077236 
L 418.956875 -63.077236 
L 416.054049 -62.980909 
L 413.151222 -62.980909 
L 410.248396 -62.980909 
L 407.345569 -63.077236 
L 404.442743 -63.462545 
L 401.539916 -62.980909 
L 398.637089 -63.077236 
L 395.734263 -62.980909 
L 392.831436 -63.077236 
L 389.92861 -62.980909 
L 387.025783 -62.980909 
L 384.122956 -63.077236 
L 381.22013 -63.077236 
L 378.317303 -63.077236 
L 375.414477 -62.980909 
L 372.51165 -63.173564 
L 369.608824 -62.980909 
L 366.705997 -63.077236 
L 363.80317 -63.077236 
L 360.900344 -62.980909 
L 357.997517 -62.980909 
L 355.094691 -62.980909 
L 352.191864 -63.269891 
L 349.289037 -62.980909 
L 346.386211 -62.980909 
L 343.483384 -62.980909 
L 340.580558 -62.980909 
L 337.677731 -62.980909 
L 334.774905 -63.077236 
L 331.872078 -62.980909 
L 328.969251 -62.980909 
L 326.066425 -62.980909 
L 323.163598 -63.173564 
L 320.260772 -62.980909 
L 317.357945 -62.980909 
L 314.455118 -62.980909 
L 311.552292 -62.980909 
L 308.649465 -62.980909 
L 305.746639 -62.980909 
L 302.843812 -62.980909 
L 299.940985 -62.980909 
L 297.038159 -62.980909 
L 294.135332 -62.980909 
L 291.232506 -62.980909 
L 288.329679 -62.980909 
L 285.426853 -62.980909 
L 282.524026 -63.077236 
L 279.621199 -62.980909 
L 276.718373 -62.980909 
L 273.815546 -62.980909 
L 270.91272 -62.980909 
L 268.009893 -63.077236 
L 265.107066 -62.980909 
L 262.20424 -62.980909 
L 259.301413 -62.980909 
L 256.398587 -62.980909 
L 253.49576 -62.980909 
L 250.592934 -62.980909 
L 247.690107 -62.980909 
L 244.78728 -62.980909 
L 241.884454 -62.980909 
L 238.981627 -63.077236 
L 236.078801 -62.980909 
L 233.175974 -63.077236 
L 230.273147 -62.980909 
L 227.370321 -62.980909 
L 224.467494 -62.980909 
L 221.564668 -62.980909 
L 218.661841 -62.980909 
L 215.759015 -62.980909 
L 212.856188 -62.980909 
L 209.953361 -62.980909 
L 207.050535 -62.980909 
L 204.147708 -62.980909 
L 201.244882 -62.980909 
L 198.342055 -62.980909 
L 195.439228 -62.980909 
L 192.536402 -62.980909 
L 189.633575 -62.980909 
L 186.730749 -62.980909 
L 183.827922 -63.077236 
L 180.925095 -62.980909 
L 178.022269 -62.980909 
L 175.119442 -62.980909 
L 172.216616 -62.980909 
L 169.313789 -62.980909 
L 166.410963 -63.077236 
L 163.508136 -62.980909 
L 160.605309 -62.980909 
L 157.702483 -63.077236 
L 154.799656 -62.980909 
L 151.89683 -62.980909 
L 148.994003 -62.980909 
L 146.091176 -62.980909 
L 143.18835 -62.980909 
L 140.285523 -62.980909 
L 137.382697 -62.980909 
L 134.47987 -62.980909 
L 131.577044 -62.980909 
L 128.674217 -62.980909 
L 125.77139 -62.980909 
L 122.868564 -63.077236 
L 119.965737 -63.077236 
L 117.062911 -62.980909 
L 114.160084 -62.980909 
L 111.257257 -63.077236 
L 108.354431 -63.077236 
L 105.451604 -63.077236 
L 102.548778 -63.173564 
L 99.645951 -62.980909 
L 96.743125 -63.077236 
L 93.840298 -63.173564 
L 90.937471 -63.173564 
L 88.034645 -63.173564 
L 85.131818 -63.173564 
z
" style="stroke: #ffffff; stroke-opacity: 0.5"/>
    </defs>
    <g clip-path="url(#pc293348c3f)">
     <use xlink:href="#m2a4e0b98e0" x="0" y="345.6" style="fill: #4c72b0; fill-opacity: 0.5; stroke: #ffffff; stroke-opacity: 0.5"/>
    </g>
   </g>
   <g id="PolyCollection_2">
    <defs>
     <path id="mf217ea63ef" d="M 85.131818 -63.269891 
L 85.131818 -79.356545 
L 88.034645 -63.944182 
L 90.937471 -72.613636 
L 93.840298 -63.751527 
L 96.743125 -107.0988 
L 99.645951 -187.917382 
L 102.548778 -63.847855 
L 105.451604 -270.855164 
L 108.354431 -66.930327 
L 111.257257 -68.760545 
L 114.160084 -191.963127 
L 117.062911 -259.103236 
L 119.965737 -63.558873 
L 122.868564 -142.932545 
L 125.77139 -143.799491 
L 128.674217 -175.876473 
L 131.577044 -72.998945 
L 134.47987 -63.462545 
L 137.382697 -136.671273 
L 140.285523 -63.366218 
L 143.18835 -228.471164 
L 146.091176 -269.891891 
L 148.994003 -259.6812 
L 151.89683 -281.354836 
L 154.799656 -280.969527 
L 157.702483 -63.558873 
L 160.605309 -274.226618 
L 163.508136 -278.368691 
L 166.410963 -94.961564 
L 169.313789 -63.558873 
L 172.216616 -63.558873 
L 175.119442 -238.296545 
L 178.022269 -84.269236 
L 180.925095 -167.110691 
L 183.827922 -272.203745 
L 186.730749 -69.242182 
L 189.633575 -152.565273 
L 192.536402 -170.000509 
L 195.439228 -274.033964 
L 198.342055 -83.883927 
L 201.244882 -90.337855 
L 204.147708 -160.656764 
L 207.050535 -239.934109 
L 209.953361 -63.462545 
L 212.856188 -114.804982 
L 215.759015 -85.039855 
L 218.661841 -172.408691 
L 221.564668 -95.250545 
L 224.467494 -209.013055 
L 227.370321 -245.232109 
L 230.273147 -237.333273 
L 233.175974 -90.241527 
L 236.078801 -260.451818 
L 238.981627 -275.093564 
L 241.884454 -258.910582 
L 244.78728 -143.606836 
L 247.690107 -135.996982 
L 250.592934 -253.034618 
L 253.49576 -229.338109 
L 256.398587 -64.329491 
L 259.301413 -175.876473 
L 262.20424 -200.536255 
L 265.107066 -256.213418 
L 268.009893 -66.352364 
L 270.91272 -144.666436 
L 273.815546 -242.534945 
L 276.718373 -66.063382 
L 279.621199 -64.618473 
L 282.524026 -101.511818 
L 285.426853 -63.462545 
L 288.329679 -157.092655 
L 291.232506 -185.605527 
L 294.135332 -286.460182 
L 297.038159 -105.750218 
L 299.940985 -90.241527 
L 302.843812 -183.486327 
L 305.746639 -211.517564 
L 308.649465 -252.360327 
L 311.552292 -257.562 
L 314.455118 -114.516 
L 317.357945 -230.590364 
L 320.260772 -262.089382 
L 323.163598 -109.892291 
L 326.066425 -243.498218 
L 328.969251 -124.726691 
L 331.872078 -217.104545 
L 334.774905 -165.087818 
L 337.677731 -75.599782 
L 340.580558 -195.430909 
L 343.483384 -71.554036 
L 346.386211 -242.7276 
L 349.289037 -299.464364 
L 352.191864 -237.622255 
L 355.094691 -70.879745 
L 357.997517 -103.245709 
L 360.900344 -118.658073 
L 363.80317 -181.463455 
L 366.705997 -164.991491 
L 369.608824 -238.296545 
L 372.51165 -258.6216 
L 375.414477 -174.335236 
L 378.317303 -262.667345 
L 381.22013 -64.7148 
L 384.122956 -143.895818 
L 387.025783 -281.065855 
L 389.92861 -270.180873 
L 392.831436 -112.589455 
L 395.734263 -64.907455 
L 398.637089 -273.744982 
L 401.539916 -64.329491 
L 404.442743 -104.9796 
L 407.345569 -163.064945 
L 410.248396 -247.832945 
L 413.151222 -63.558873 
L 416.054049 -210.650618 
L 418.956875 -252.071345 
L 421.859702 -183.486327 
L 424.762529 -141.102327 
L 427.665355 -102.571418 
L 430.568182 -243.498218 
L 430.568182 -63.077236 
L 430.568182 -63.077236 
L 427.665355 -63.366218 
L 424.762529 -63.366218 
L 421.859702 -63.366218 
L 418.956875 -63.366218 
L 416.054049 -63.366218 
L 413.151222 -63.366218 
L 410.248396 -63.269891 
L 407.345569 -63.366218 
L 404.442743 -63.173564 
L 401.539916 -63.269891 
L 398.637089 -63.366218 
L 395.734263 -63.269891 
L 392.831436 -63.173564 
L 389.92861 -63.366218 
L 387.025783 -63.462545 
L 384.122956 -63.462545 
L 381.22013 -63.366218 
L 378.317303 -63.269891 
L 375.414477 -63.269891 
L 372.51165 -63.462545 
L 369.608824 -63.462545 
L 366.705997 -63.366218 
L 363.80317 -63.269891 
L 360.900344 -63.366218 
L 357.997517 -63.077236 
L 355.094691 -63.173564 
L 352.191864 -63.462545 
L 349.289037 -63.173564 
L 346.386211 -63.269891 
L 343.483384 -63.269891 
L 340.580558 -63.366218 
L 337.677731 -63.269891 
L 334.774905 -63.269891 
L 331.872078 -63.269891 
L 328.969251 -63.269891 
L 326.066425 -63.269891 
L 323.163598 -63.269891 
L 320.260772 -63.173564 
L 317.357945 -63.269891 
L 314.455118 -63.269891 
L 311.552292 -63.269891 
L 308.649465 -63.269891 
L 305.746639 -63.173564 
L 302.843812 -63.173564 
L 299.940985 -63.366218 
L 297.038159 -63.269891 
L 294.135332 -63.366218 
L 291.232506 -63.173564 
L 288.329679 -63.269891 
L 285.426853 -63.173564 
L 282.524026 -63.366218 
L 279.621199 -63.366218 
L 276.718373 -63.173564 
L 273.815546 -63.269891 
L 270.91272 -63.269891 
L 268.009893 -63.366218 
L 265.107066 -63.269891 
L 262.20424 -63.077236 
L 259.301413 -63.269891 
L 256.398587 -63.173564 
L 253.49576 -63.173564 
L 250.592934 -63.173564 
L 247.690107 -63.173564 
L 244.78728 -63.077236 
L 241.884454 -63.077236 
L 238.981627 -63.173564 
L 236.078801 -63.173564 
L 233.175974 -63.269891 
L 230.273147 -63.269891 
L 227.370321 -63.366218 
L 224.467494 -63.173564 
L 221.564668 -63.173564 
L 218.661841 -63.269891 
L 215.759015 -63.173564 
L 212.856188 -63.269891 
L 209.953361 -63.173564 
L 207.050535 -63.269891 
L 204.147708 -63.462545 
L 201.244882 -63.269891 
L 198.342055 -63.462545 
L 195.439228 -63.269891 
L 192.536402 -63.269891 
L 189.633575 -63.077236 
L 186.730749 -63.366218 
L 183.827922 -63.173564 
L 180.925095 -63.173564 
L 178.022269 -63.269891 
L 175.119442 -63.173564 
L 172.216616 -63.366218 
L 169.313789 -63.269891 
L 166.410963 -63.269891 
L 163.508136 -63.6552 
L 160.605309 -63.269891 
L 157.702483 -63.269891 
L 154.799656 -63.366218 
L 151.89683 -63.173564 
L 148.994003 -63.173564 
L 146.091176 -63.269891 
L 143.18835 -63.269891 
L 140.285523 -63.269891 
L 137.382697 -63.173564 
L 134.47987 -63.173564 
L 131.577044 -63.173564 
L 128.674217 -63.173564 
L 125.77139 -63.173564 
L 122.868564 -63.462545 
L 119.965737 -63.269891 
L 117.062911 -63.173564 
L 114.160084 -63.173564 
L 111.257257 -63.269891 
L 108.354431 -63.366218 
L 105.451604 -63.366218 
L 102.548778 -63.269891 
L 99.645951 -63.366218 
L 96.743125 -63.269891 
L 93.840298 -63.269891 
L 90.937471 -63.462545 
L 88.034645 -63.366218 
L 85.131818 -63.269891 
z
" style="stroke: #ffffff; stroke-opacity: 0.5"/>
    </defs>
    <g clip-path="url(#pc293348c3f)">
     <use xlink:href="#mf217ea63ef" x="0" y="345.6" style="fill: #dd8452; fill-opacity: 0.5; stroke: #ffffff; stroke-opacity: 0.5"/>
    </g>
   </g>
   <g id="PolyCollection_3">
    <defs>
     <path id="m38fd3513e8" d="M 85.131818 -64.425818 
L 85.131818 -65.678073 
L 88.034645 -225.677673 
L 90.937471 -72.420982 
L 93.840298 -221.342945 
L 96.743125 -229.627091 
L 99.645951 -273.359673 
L 102.548778 -199.572982 
L 105.451604 -80.705127 
L 108.354431 -87.062727 
L 111.257257 -174.431564 
L 114.160084 -171.638073 
L 117.062911 -188.110036 
L 119.965737 -77.43 
L 122.868564 -67.508291 
L 125.77139 -86.195782 
L 128.674217 -64.907455 
L 131.577044 -94.576255 
L 134.47987 -127.423855 
L 137.382697 -64.907455 
L 140.285523 -65.003782 
L 143.18835 -218.3568 
L 146.091176 -66.834 
L 148.994003 -130.506327 
L 151.89683 -121.836873 
L 154.799656 -223.365818 
L 157.702483 -65.7744 
L 160.605309 -140.909673 
L 163.508136 -251.493382 
L 166.410963 -210.168982 
L 169.313789 -221.920909 
L 172.216616 -147.170945 
L 175.119442 -220.957636 
L 178.022269 -99.874255 
L 180.925095 -65.100109 
L 183.827922 -232.516909 
L 186.730749 -65.003782 
L 189.633575 -88.989273 
L 192.536402 -68.664218 
L 195.439228 -142.450909 
L 198.342055 -199.476655 
L 201.244882 -64.907455 
L 204.147708 -172.986655 
L 207.050535 -193.119055 
L 209.953361 -98.622 
L 212.856188 -207.182836 
L 215.759015 -149.868109 
L 218.661841 -70.398109 
L 221.564668 -116.924182 
L 224.467494 -203.040764 
L 227.370321 -113.745382 
L 230.273147 -217.200873 
L 233.175974 -248.507236 
L 236.078801 -289.927964 
L 238.981627 -164.413527 
L 241.884454 -110.470255 
L 244.78728 -109.410655 
L 247.690107 -156.611018 
L 250.592934 -229.530764 
L 253.49576 -224.232764 
L 256.398587 -301.198255 
L 259.301413 -287.808764 
L 262.20424 -131.758582 
L 265.107066 -171.252764 
L 268.009893 -69.723818 
L 270.91272 -65.485418 
L 273.815546 -104.401636 
L 276.718373 -270.855164 
L 279.621199 -212.866145 
L 282.524026 -64.907455 
L 285.426853 -242.534945 
L 288.329679 -277.405418 
L 291.232506 -183.486327 
L 294.135332 -138.790473 
L 297.038159 -67.219309 
L 299.940985 -207.471818 
L 302.843812 -291.758182 
L 305.746639 -252.071345 
L 308.649465 -285.304255 
L 311.552292 -218.453127 
L 314.455118 -70.494436 
L 317.357945 -275.189891 
L 320.260772 -106.0392 
L 323.163598 -255.635455 
L 326.066425 -67.797273 
L 328.969251 -262.185709 
L 331.872078 -70.109127 
L 334.774905 -141.198655 
L 337.677731 -248.699891 
L 340.580558 -66.930327 
L 343.483384 -222.306218 
L 346.386211 -166.051091 
L 349.289037 -168.266618 
L 352.191864 -152.179964 
L 355.094691 -167.784982 
L 357.997517 -170.482145 
L 360.900344 -279.139309 
L 363.80317 -261.222436 
L 366.705997 -240.319418 
L 369.608824 -94.768909 
L 372.51165 -197.935418 
L 375.414477 -250.819091 
L 378.317303 -268.446982 
L 381.22013 -261.993055 
L 384.122956 -250.1448 
L 387.025783 -270.566182 
L 389.92861 -239.163491 
L 392.831436 -262.667345 
L 395.734263 -276.056836 
L 398.637089 -248.0256 
L 401.539916 -202.270145 
L 404.442743 -252.264 
L 407.345569 -296.189236 
L 410.248396 -271.3368 
L 413.151222 -119.717673 
L 416.054049 -66.834 
L 418.956875 -267.676364 
L 421.859702 -283.377709 
L 424.762529 -300.138655 
L 427.665355 -302.354182 
L 430.568182 -256.309745 
L 430.568182 -63.462545 
L 430.568182 -63.462545 
L 427.665355 -70.590764 
L 424.762529 -64.425818 
L 421.859702 -63.462545 
L 418.956875 -63.462545 
L 416.054049 -64.7148 
L 413.151222 -63.462545 
L 410.248396 -63.462545 
L 407.345569 -63.847855 
L 404.442743 -63.944182 
L 401.539916 -64.522145 
L 398.637089 -63.462545 
L 395.734263 -64.7148 
L 392.831436 -63.6552 
L 389.92861 -64.425818 
L 387.025783 -64.040509 
L 384.122956 -64.811127 
L 381.22013 -65.485418 
L 378.317303 -65.003782 
L 375.414477 -64.618473 
L 372.51165 -63.944182 
L 369.608824 -63.944182 
L 366.705997 -65.100109 
L 363.80317 -84.269236 
L 360.900344 -64.040509 
L 357.997517 -64.522145 
L 355.094691 -64.425818 
L 352.191864 -64.522145 
L 349.289037 -64.329491 
L 346.386211 -63.462545 
L 343.483384 -63.944182 
L 340.580558 -63.558873 
L 337.677731 -64.618473 
L 334.774905 -63.462545 
L 331.872078 -64.040509 
L 328.969251 -63.944182 
L 326.066425 -63.944182 
L 323.163598 -64.040509 
L 320.260772 -63.462545 
L 317.357945 -65.003782 
L 314.455118 -64.040509 
L 311.552292 -64.136836 
L 308.649465 -63.944182 
L 305.746639 -63.751527 
L 302.843812 -64.233164 
L 299.940985 -64.040509 
L 297.038159 -64.618473 
L 294.135332 -64.040509 
L 291.232506 -64.233164 
L 288.329679 -63.558873 
L 285.426853 -64.522145 
L 282.524026 -64.329491 
L 279.621199 -63.558873 
L 276.718373 -63.944182 
L 273.815546 -64.040509 
L 270.91272 -64.233164 
L 268.009893 -64.040509 
L 265.107066 -63.462545 
L 262.20424 -64.136836 
L 259.301413 -64.522145 
L 256.398587 -64.425818 
L 253.49576 -63.944182 
L 250.592934 -64.618473 
L 247.690107 -64.040509 
L 244.78728 -64.040509 
L 241.884454 -63.944182 
L 238.981627 -63.462545 
L 236.078801 -63.462545 
L 233.175974 -63.558873 
L 230.273147 -64.425818 
L 227.370321 -64.040509 
L 224.467494 -64.040509 
L 221.564668 -64.425818 
L 218.661841 -63.944182 
L 215.759015 -64.136836 
L 212.856188 -63.944182 
L 209.953361 -64.136836 
L 207.050535 -64.233164 
L 204.147708 -64.136836 
L 201.244882 -63.944182 
L 198.342055 -64.040509 
L 195.439228 -64.425818 
L 192.536402 -63.558873 
L 189.633575 -64.040509 
L 186.730749 -63.558873 
L 183.827922 -64.040509 
L 180.925095 -63.944182 
L 178.022269 -64.425818 
L 175.119442 -64.040509 
L 172.216616 -63.944182 
L 169.313789 -64.040509 
L 166.410963 -64.618473 
L 163.508136 -63.944182 
L 160.605309 -64.040509 
L 157.702483 -64.136836 
L 154.799656 -63.944182 
L 151.89683 -63.462545 
L 148.994003 -65.100109 
L 146.091176 -63.944182 
L 143.18835 -64.7148 
L 140.285523 -64.136836 
L 137.382697 -63.944182 
L 134.47987 -63.944182 
L 131.577044 -64.040509 
L 128.674217 -63.944182 
L 125.77139 -63.944182 
L 122.868564 -63.944182 
L 119.965737 -63.558873 
L 117.062911 -64.136836 
L 114.160084 -64.233164 
L 111.257257 -64.7148 
L 108.354431 -64.522145 
L 105.451604 -64.136836 
L 102.548778 -64.040509 
L 99.645951 -64.233164 
L 96.743125 -64.136836 
L 93.840298 -64.040509 
L 90.937471 -64.136836 
L 88.034645 -64.329491 
L 85.131818 -64.425818 
z
" style="stroke: #ffffff; stroke-opacity: 0.5"/>
    </defs>
    <g clip-path="url(#pc293348c3f)">
     <use xlink:href="#m38fd3513e8" x="0" y="345.6" style="fill: #55a868; fill-opacity: 0.5; stroke: #ffffff; stroke-opacity: 0.5"/>
    </g>
   </g>
   <g id="PolyCollection_4">
    <defs>
     <path id="md29f35ce6e" d="M 85.131818 -64.811127 
L 85.131818 -152.565273 
L 88.034645 -269.410255 
L 90.937471 -193.600691 
L 93.840298 -183.486327 
L 96.743125 -209.013055 
L 99.645951 -138.983127 
L 102.548778 -276.731127 
L 105.451604 -75.599782 
L 108.354431 -86.099455 
L 111.257257 -263.052655 
L 114.160084 -90.337855 
L 117.062911 -211.9992 
L 119.965737 -262.956327 
L 122.868564 -108.062073 
L 125.77139 -153.624873 
L 128.674217 -203.233418 
L 131.577044 -244.654145 
L 134.47987 -204.774655 
L 137.382697 -111.626182 
L 140.285523 -212.577164 
L 143.18835 -104.786945 
L 146.091176 -226.255636 
L 148.994003 -272.781709 
L 151.89683 -266.424109 
L 154.799656 -200.3436 
L 157.702483 -211.421236 
L 160.605309 -105.846545 
L 163.508136 -66.256036 
L 166.410963 -205.737927 
L 169.313789 -208.435091 
L 172.216616 -242.631273 
L 175.119442 -212.288182 
L 178.022269 -273.552327 
L 180.925095 -70.976073 
L 183.827922 -149.4828 
L 186.730749 -146.785636 
L 189.633575 -258.236291 
L 192.536402 -124.919345 
L 195.439228 -157.477964 
L 198.342055 -296.189236 
L 201.244882 -220.476 
L 204.147708 -278.272364 
L 207.050535 -278.272364 
L 209.953361 -156.418364 
L 212.856188 -189.362291 
L 215.759015 -261.126109 
L 218.661841 -208.724073 
L 221.564668 -233.287527 
L 224.467494 -75.118145 
L 227.370321 -66.448691 
L 230.273147 -148.808509 
L 233.175974 -67.797273 
L 236.078801 -163.931891 
L 238.981627 -182.523055 
L 241.884454 -260.548145 
L 244.78728 -86.292109 
L 247.690107 -188.013709 
L 250.592934 -269.891891 
L 253.49576 -119.236036 
L 256.398587 -67.026655 
L 259.301413 -185.798182 
L 262.20424 -66.545018 
L 265.107066 -97.851382 
L 268.009893 -211.132255 
L 270.91272 -152.179964 
L 273.815546 -256.117091 
L 276.718373 -216.044945 
L 279.621199 -250.722764 
L 282.524026 -68.664218 
L 285.426853 -91.2048 
L 288.329679 -206.797527 
L 291.232506 -183.967964 
L 294.135332 -150.060764 
L 297.038159 -69.723818 
L 299.940985 -146.978291 
L 302.843812 -272.589055 
L 305.746639 -233.576509 
L 308.649465 -195.0456 
L 311.552292 -181.945091 
L 314.455118 -300.716618 
L 317.357945 -146.400327 
L 320.260772 -211.228582 
L 323.163598 -211.613891 
L 326.066425 -282.799745 
L 328.969251 -108.1584 
L 331.872078 -227.218909 
L 334.774905 -246.869673 
L 337.677731 -139.657418 
L 340.580558 -106.0392 
L 343.483384 -279.428291 
L 346.386211 -240.030436 
L 349.289037 -152.179964 
L 352.191864 -278.272364 
L 355.094691 -272.011091 
L 357.997517 -262.282036 
L 360.900344 -265.460836 
L 363.80317 -230.0124 
L 366.705997 -256.695055 
L 369.608824 -106.713491 
L 372.51165 -271.722109 
L 375.414477 -249.0852 
L 378.317303 -284.726291 
L 381.22013 -206.412218 
L 384.122956 -303.413782 
L 387.025783 -270.373527 
L 389.92861 -278.850327 
L 392.831436 -267.580036 
L 395.734263 -66.063382 
L 398.637089 -255.250145 
L 401.539916 -288.964691 
L 404.442743 -279.8136 
L 407.345569 -261.029782 
L 410.248396 -288.675709 
L 413.151222 -265.942473 
L 416.054049 -284.437309 
L 418.956875 -278.657673 
L 421.859702 -282.9924 
L 424.762529 -274.226618 
L 427.665355 -275.671527 
L 430.568182 -178.188327 
L 430.568182 -64.136836 
L 430.568182 -64.136836 
L 427.665355 -63.944182 
L 424.762529 -62.980909 
L 421.859702 -63.6552 
L 418.956875 -67.508291 
L 416.054049 -62.980909 
L 413.151222 -63.944182 
L 410.248396 -63.944182 
L 407.345569 -64.040509 
L 404.442743 -63.944182 
L 401.539916 -63.944182 
L 398.637089 -65.389091 
L 395.734263 -63.269891 
L 392.831436 -64.425818 
L 389.92861 -64.040509 
L 387.025783 -63.944182 
L 384.122956 -193.793345 
L 381.22013 -63.944182 
L 378.317303 -63.077236 
L 375.414477 -64.040509 
L 372.51165 -64.329491 
L 369.608824 -62.980909 
L 366.705997 -63.944182 
L 363.80317 -64.233164 
L 360.900344 -64.136836 
L 357.997517 -65.870727 
L 355.094691 -63.944182 
L 352.191864 -62.980909 
L 349.289037 -64.233164 
L 346.386211 -63.944182 
L 343.483384 -66.063382 
L 340.580558 -64.040509 
L 337.677731 -67.989927 
L 334.774905 -65.100109 
L 331.872078 -64.040509 
L 328.969251 -66.159709 
L 326.066425 -66.159709 
L 323.163598 -64.907455 
L 320.260772 -66.352364 
L 317.357945 -63.944182 
L 314.455118 -64.425818 
L 311.552292 -64.522145 
L 308.649465 -65.100109 
L 305.746639 -64.907455 
L 302.843812 -64.040509 
L 299.940985 -64.040509 
L 297.038159 -65.003782 
L 294.135332 -65.870727 
L 291.232506 -65.485418 
L 288.329679 -63.944182 
L 285.426853 -64.811127 
L 282.524026 -65.003782 
L 279.621199 -63.944182 
L 276.718373 -63.944182 
L 273.815546 -65.7744 
L 270.91272 -63.944182 
L 268.009893 -65.870727 
L 265.107066 -65.967055 
L 262.20424 -64.907455 
L 259.301413 -65.870727 
L 256.398587 -64.040509 
L 253.49576 -65.870727 
L 250.592934 -65.870727 
L 247.690107 -64.907455 
L 244.78728 -64.040509 
L 241.884454 -66.256036 
L 238.981627 -66.448691 
L 236.078801 -65.003782 
L 233.175974 -65.100109 
L 230.273147 -64.907455 
L 227.370321 -65.003782 
L 224.467494 -64.907455 
L 221.564668 -65.003782 
L 218.661841 -64.907455 
L 215.759015 -65.003782 
L 212.856188 -65.100109 
L 209.953361 -64.136836 
L 207.050535 -64.907455 
L 204.147708 -64.907455 
L 201.244882 -65.003782 
L 198.342055 -65.003782 
L 195.439228 -65.100109 
L 192.536402 -64.907455 
L 189.633575 -65.003782 
L 186.730749 -64.907455 
L 183.827922 -65.003782 
L 180.925095 -64.040509 
L 178.022269 -64.907455 
L 175.119442 -65.003782 
L 172.216616 -65.003782 
L 169.313789 -65.003782 
L 166.410963 -65.870727 
L 163.508136 -64.907455 
L 160.605309 -66.834 
L 157.702483 -64.907455 
L 154.799656 -64.7148 
L 151.89683 -65.485418 
L 148.994003 -65.870727 
L 146.091176 -64.907455 
L 143.18835 -65.003782 
L 140.285523 -65.967055 
L 137.382697 -65.100109 
L 134.47987 -64.907455 
L 131.577044 -65.100109 
L 128.674217 -65.003782 
L 125.77139 -64.811127 
L 122.868564 -64.907455 
L 119.965737 -64.907455 
L 117.062911 -65.100109 
L 114.160084 -64.233164 
L 111.257257 -65.196436 
L 108.354431 -65.100109 
L 105.451604 -65.967055 
L 102.548778 -65.196436 
L 99.645951 -65.292764 
L 96.743125 -64.7148 
L 93.840298 -64.136836 
L 90.937471 -66.063382 
L 88.034645 -64.040509 
L 85.131818 -64.811127 
z
" style="stroke: #ffffff; stroke-opacity: 0.5"/>
    </defs>
    <g clip-path="url(#pc293348c3f)">
     <use xlink:href="#md29f35ce6e" x="0" y="345.6" style="fill: #c44e52; fill-opacity: 0.5; stroke: #ffffff; stroke-opacity: 0.5"/>
    </g>
   </g>
   <g id="PolyCollection_5">
    <defs>
     <path id="m704a4c9193" d="M 85.131818 -62.980909 
L 85.131818 -294.840655 
L 88.034645 -219.127418 
L 90.937471 -106.328182 
L 93.840298 -258.814255 
L 96.743125 -272.300073 
L 99.645951 -164.124545 
L 102.548778 -192.059455 
L 105.451604 -245.328436 
L 108.354431 -109.218 
L 111.257257 -228.9528 
L 114.160084 -125.593636 
L 117.062911 -271.240473 
L 119.965737 -259.584873 
L 122.868564 -89.663564 
L 125.77139 -71.843018 
L 128.674217 -195.0456 
L 131.577044 -238.007564 
L 134.47987 -83.402291 
L 137.382697 -108.929018 
L 140.285523 -209.976327 
L 143.18835 -72.613636 
L 146.091176 -89.952545 
L 148.994003 -176.839745 
L 151.89683 -95.828509 
L 154.799656 -255.057491 
L 157.702483 -259.584873 
L 160.605309 -194.467636 
L 163.508136 -207.086509 
L 166.410963 -266.616764 
L 169.313789 -108.929018 
L 172.216616 -75.118145 
L 175.119442 -111.915164 
L 178.022269 -219.898036 
L 180.925095 -256.309745 
L 183.827922 -230.205055 
L 186.730749 -72.517309 
L 189.633575 -242.920255 
L 192.536402 -218.934764 
L 195.439228 -149.001164 
L 198.342055 -120.102982 
L 201.244882 -190.614545 
L 204.147708 -86.388436 
L 207.050535 -72.806291 
L 209.953361 -268.735964 
L 212.856188 -195.0456 
L 215.759015 -238.4892 
L 218.661841 -113.841709 
L 221.564668 -259.199564 
L 224.467494 -257.080364 
L 227.370321 -197.646436 
L 230.273147 -96.117491 
L 233.175974 -185.605527 
L 236.078801 -181.174473 
L 238.981627 -110.470255 
L 241.884454 -201.595855 
L 244.78728 -115.479273 
L 247.690107 -70.976073 
L 250.592934 -255.731782 
L 253.49576 -283.185055 
L 256.398587 -270.469855 
L 259.301413 -81.957382 
L 262.20424 -68.9532 
L 265.107066 -130.891636 
L 268.009893 -193.311709 
L 270.91272 -170.482145 
L 273.815546 -96.021164 
L 276.718373 -107.676764 
L 279.621199 -271.144145 
L 282.524026 -285.882218 
L 285.426853 -145.148073 
L 288.329679 -117.116836 
L 291.232506 -105.557564 
L 294.135332 -125.786291 
L 297.038159 -104.690618 
L 299.940985 -72.709964 
L 302.843812 -244.172509 
L 305.746639 -118.369091 
L 308.649465 -153.817527 
L 311.552292 -195.527236 
L 314.455118 -241.956982 
L 317.357945 -196.875818 
L 320.260772 -238.296545 
L 323.163598 -259.392218 
L 326.066425 -75.696109 
L 328.969251 -220.861309 
L 331.872078 -264.786545 
L 334.774905 -249.566836 
L 337.677731 -245.328436 
L 340.580558 -235.984691 
L 343.483384 -88.314982 
L 346.386211 -206.893855 
L 349.289037 -273.070691 
L 352.191864 -278.946655 
L 355.094691 -254.961164 
L 357.997517 -281.836473 
L 360.900344 -280.680545 
L 363.80317 -263.148982 
L 366.705997 -302.0652 
L 369.608824 -254.575855 
L 372.51165 -274.130291 
L 375.414477 -291.950836 
L 378.317303 -281.354836 
L 381.22013 -295.514945 
L 384.122956 -280.198909 
L 387.025783 -272.781709 
L 389.92861 -299.849673 
L 392.831436 -292.625127 
L 395.734263 -76.466727 
L 398.637089 -278.272364 
L 401.539916 -303.799091 
L 404.442743 -279.235636 
L 407.345569 -285.496909 
L 410.248396 -238.296545 
L 413.151222 -280.295236 
L 416.054049 -283.281382 
L 418.956875 -300.234982 
L 421.859702 -237.525927 
L 424.762529 -290.024291 
L 427.665355 -285.1116 
L 430.568182 -279.042982 
L 430.568182 -65.100109 
L 430.568182 -65.100109 
L 427.665355 -241.186364 
L 424.762529 -65.581745 
L 421.859702 -62.980909 
L 418.956875 -64.907455 
L 416.054049 -65.581745 
L 413.151222 -63.6552 
L 410.248396 -64.907455 
L 407.345569 -62.980909 
L 404.442743 -65.196436 
L 401.539916 -65.003782 
L 398.637089 -67.026655 
L 395.734263 -64.907455 
L 392.831436 -65.003782 
L 389.92861 -66.448691 
L 387.025783 -68.182582 
L 384.122956 -62.980909 
L 381.22013 -64.329491 
L 378.317303 -65.870727 
L 375.414477 -65.7744 
L 372.51165 -64.907455 
L 369.608824 -66.545018 
L 366.705997 -64.907455 
L 363.80317 -68.182582 
L 360.900344 -64.907455 
L 357.997517 -65.100109 
L 355.094691 -65.003782 
L 352.191864 -64.907455 
L 349.289037 -64.907455 
L 346.386211 -64.907455 
L 343.483384 -65.196436 
L 340.580558 -64.907455 
L 337.677731 -65.389091 
L 334.774905 -68.375236 
L 331.872078 -64.907455 
L 328.969251 -70.879745 
L 326.066425 -64.329491 
L 323.163598 -69.145855 
L 320.260772 -65.003782 
L 317.357945 -64.907455 
L 314.455118 -68.086255 
L 311.552292 -62.980909 
L 308.649465 -65.196436 
L 305.746639 -65.7744 
L 302.843812 -67.122982 
L 299.940985 -64.907455 
L 297.038159 -63.847855 
L 294.135332 -66.930327 
L 291.232506 -64.907455 
L 288.329679 -66.834 
L 285.426853 -65.003782 
L 282.524026 -68.182582 
L 279.621199 -64.907455 
L 276.718373 -64.907455 
L 273.815546 -64.329491 
L 270.91272 -71.746691 
L 268.009893 -66.545018 
L 265.107066 -67.700945 
L 262.20424 -65.003782 
L 259.301413 -64.907455 
L 256.398587 -64.907455 
L 253.49576 -68.760545 
L 250.592934 -66.834 
L 247.690107 -65.003782 
L 244.78728 -67.122982 
L 241.884454 -67.026655 
L 238.981627 -68.856873 
L 236.078801 -66.930327 
L 233.175974 -68.9532 
L 230.273147 -68.182582 
L 227.370321 -69.242182 
L 224.467494 -66.930327 
L 221.564668 -68.760545 
L 218.661841 -68.471564 
L 215.759015 -67.026655 
L 212.856188 -67.315636 
L 209.953361 -66.159709 
L 207.050535 -67.411964 
L 204.147708 -66.930327 
L 201.244882 -68.856873 
L 198.342055 -66.834 
L 195.439228 -66.834 
L 192.536402 -65.196436 
L 189.633575 -64.907455 
L 186.730749 -66.834 
L 183.827922 -68.760545 
L 180.925095 -68.856873 
L 178.022269 -68.664218 
L 175.119442 -65.100109 
L 172.216616 -66.930327 
L 169.313789 -66.834 
L 166.410963 -68.760545 
L 163.508136 -64.907455 
L 160.605309 -65.003782 
L 157.702483 -68.760545 
L 154.799656 -64.907455 
L 151.89683 -66.352364 
L 148.994003 -66.834 
L 146.091176 -68.9532 
L 143.18835 -67.604618 
L 140.285523 -69.338509 
L 137.382697 -67.8936 
L 134.47987 -65.870727 
L 131.577044 -66.930327 
L 128.674217 -64.907455 
L 125.77139 -66.834 
L 122.868564 -66.834 
L 119.965737 -68.9532 
L 117.062911 -66.930327 
L 114.160084 -66.930327 
L 111.257257 -67.604618 
L 108.354431 -66.930327 
L 105.451604 -66.641345 
L 102.548778 -68.9532 
L 99.645951 -65.100109 
L 96.743125 -64.907455 
L 93.840298 -66.930327 
L 90.937471 -65.003782 
L 88.034645 -66.834 
L 85.131818 -62.980909 
z
" style="stroke: #ffffff; stroke-opacity: 0.5"/>
    </defs>
    <g clip-path="url(#pc293348c3f)">
     <use xlink:href="#m704a4c9193" x="0" y="345.6" style="fill: #8172b3; fill-opacity: 0.5; stroke: #ffffff; stroke-opacity: 0.5"/>
    </g>
   </g>
   <g id="PolyCollection_6">
    <defs>
     <path id="mfaf46aef7c" d="M 85.131818 -275.478873 
L 85.131818 -275.478873 
L 88.034645 -72.613636 
L 90.937471 -74.829164 
L 93.840298 -245.617418 
L 96.743125 -234.732436 
L 99.645951 -72.613636 
L 102.548778 -82.535345 
L 105.451604 -104.594291 
L 108.354431 -72.613636 
L 111.257257 -228.9528 
L 114.160084 -193.215382 
L 117.062911 -268.832291 
L 119.965737 -275.864182 
L 122.868564 -91.012145 
L 125.77139 -282.125455 
L 128.674217 -205.063636 
L 131.577044 -141.006 
L 134.47987 -171.060109 
L 137.382697 -271.625782 
L 140.285523 -195.623564 
L 143.18835 -72.613636 
L 146.091176 -251.300727 
L 148.994003 -97.851382 
L 151.89683 -72.613636 
L 154.799656 -111.626182 
L 157.702483 -243.209236 
L 160.605309 -72.613636 
L 163.508136 -203.907709 
L 166.410963 -130.313673 
L 169.313789 -266.713091 
L 172.216616 -146.978291 
L 175.119442 -188.495345 
L 178.022269 -83.883927 
L 180.925095 -145.340727 
L 183.827922 -244.268836 
L 186.730749 -101.511818 
L 189.633575 -114.034364 
L 192.536402 -72.613636 
L 195.439228 -175.105855 
L 198.342055 -234.925091 
L 201.244882 -200.054618 
L 204.147708 -131.854909 
L 207.050535 -72.613636 
L 209.953361 -147.748909 
L 212.856188 -79.163891 
L 215.759015 -173.757273 
L 218.661841 -227.989527 
L 221.564668 -77.622655 
L 224.467494 -62.980909 
L 227.370321 -106.231855 
L 230.273147 -78.4896 
L 233.175974 -92.360727 
L 236.078801 -164.702509 
L 238.981627 -197.935418 
L 241.884454 -91.301127 
L 244.78728 -250.819091 
L 247.690107 -278.368691 
L 250.592934 -238.681855 
L 253.49576 -284.918945 
L 256.398587 -225.485018 
L 259.301413 -72.806291 
L 262.20424 -103.727345 
L 265.107066 -98.525673 
L 268.009893 -116.153564 
L 270.91272 -82.824327 
L 273.815546 -245.328436 
L 276.718373 -136.285964 
L 279.621199 -204.485673 
L 282.524026 -187.243091 
L 285.426853 -87.640691 
L 288.329679 -81.957382 
L 291.232506 -74.058545 
L 294.135332 -191.577818 
L 297.038159 -72.709964 
L 299.940985 -239.452473 
L 302.843812 -269.891891 
L 305.746639 -73.769564 
L 308.649465 -84.365564 
L 311.552292 -245.521091 
L 314.455118 -245.328436 
L 317.357945 -71.0724 
L 320.260772 -159.789818 
L 323.163598 -201.210545 
L 326.066425 -263.245309 
L 328.969251 -72.613636 
L 331.872078 -101.8008 
L 334.774905 -284.437309 
L 337.677731 -82.824327 
L 340.580558 -82.728 
L 343.483384 -95.250545 
L 346.386211 -119.910327 
L 349.289037 -77.622655 
L 352.191864 -126.653236 
L 355.094691 -165.3768 
L 357.997517 -80.6088 
L 360.900344 -99.296291 
L 363.80317 -93.612982 
L 366.705997 -205.448945 
L 369.608824 -154.588145 
L 372.51165 -234.636109 
L 375.414477 -259.970182 
L 378.317303 -232.1316 
L 381.22013 -98.910982 
L 384.122956 -278.754 
L 387.025783 -73.287927 
L 389.92861 -231.457309 
L 392.831436 -233.480182 
L 395.734263 -244.943127 
L 398.637089 -106.617164 
L 401.539916 -229.338109 
L 404.442743 -249.663164 
L 407.345569 -73.576909 
L 410.248396 -83.7876 
L 413.151222 -73.865891 
L 416.054049 -270.469855 
L 418.956875 -144.955418 
L 421.859702 -257.754655 
L 424.762529 -72.613636 
L 427.665355 -72.613636 
L 430.568182 -284.244655 
L 430.568182 -284.244655 
L 430.568182 -284.244655 
L 427.665355 -72.613636 
L 424.762529 -72.613636 
L 421.859702 -257.754655 
L 418.956875 -144.955418 
L 416.054049 -270.469855 
L 413.151222 -73.865891 
L 410.248396 -83.7876 
L 407.345569 -73.576909 
L 404.442743 -249.663164 
L 401.539916 -229.338109 
L 398.637089 -106.617164 
L 395.734263 -244.943127 
L 392.831436 -233.480182 
L 389.92861 -231.457309 
L 387.025783 -73.287927 
L 384.122956 -278.754 
L 381.22013 -98.910982 
L 378.317303 -232.1316 
L 375.414477 -259.970182 
L 372.51165 -234.636109 
L 369.608824 -154.588145 
L 366.705997 -205.448945 
L 363.80317 -93.612982 
L 360.900344 -99.296291 
L 357.997517 -80.6088 
L 355.094691 -165.3768 
L 352.191864 -126.653236 
L 349.289037 -77.622655 
L 346.386211 -119.910327 
L 343.483384 -95.250545 
L 340.580558 -82.728 
L 337.677731 -82.824327 
L 334.774905 -284.437309 
L 331.872078 -101.8008 
L 328.969251 -72.613636 
L 326.066425 -263.245309 
L 323.163598 -201.210545 
L 320.260772 -159.789818 
L 317.357945 -71.0724 
L 314.455118 -245.328436 
L 311.552292 -245.521091 
L 308.649465 -84.365564 
L 305.746639 -73.769564 
L 302.843812 -269.891891 
L 299.940985 -239.452473 
L 297.038159 -72.709964 
L 294.135332 -191.577818 
L 291.232506 -74.058545 
L 288.329679 -81.957382 
L 285.426853 -87.640691 
L 282.524026 -187.243091 
L 279.621199 -204.485673 
L 276.718373 -136.285964 
L 273.815546 -245.328436 
L 270.91272 -82.824327 
L 268.009893 -116.153564 
L 265.107066 -98.525673 
L 262.20424 -103.727345 
L 259.301413 -72.806291 
L 256.398587 -225.485018 
L 253.49576 -284.918945 
L 250.592934 -238.681855 
L 247.690107 -278.368691 
L 244.78728 -250.819091 
L 241.884454 -91.301127 
L 238.981627 -197.935418 
L 236.078801 -164.702509 
L 233.175974 -92.360727 
L 230.273147 -78.4896 
L 227.370321 -106.231855 
L 224.467494 -62.980909 
L 221.564668 -77.622655 
L 218.661841 -227.989527 
L 215.759015 -173.757273 
L 212.856188 -79.163891 
L 209.953361 -147.748909 
L 207.050535 -72.613636 
L 204.147708 -131.854909 
L 201.244882 -200.054618 
L 198.342055 -234.925091 
L 195.439228 -175.105855 
L 192.536402 -72.613636 
L 189.633575 -114.034364 
L 186.730749 -101.511818 
L 183.827922 -244.268836 
L 180.925095 -145.340727 
L 178.022269 -83.883927 
L 175.119442 -188.495345 
L 172.216616 -146.978291 
L 169.313789 -266.713091 
L 166.410963 -130.313673 
L 163.508136 -203.907709 
L 160.605309 -72.613636 
L 157.702483 -243.209236 
L 154.799656 -111.626182 
L 151.89683 -72.613636 
L 148.994003 -97.851382 
L 146.091176 -251.300727 
L 143.18835 -72.613636 
L 140.285523 -195.623564 
L 137.382697 -271.625782 
L 134.47987 -171.060109 
L 131.577044 -141.006 
L 128.674217 -205.063636 
L 125.77139 -282.125455 
L 122.868564 -91.012145 
L 119.965737 -275.864182 
L 117.062911 -268.832291 
L 114.160084 -193.215382 
L 111.257257 -228.9528 
L 108.354431 -72.613636 
L 105.451604 -104.594291 
L 102.548778 -82.535345 
L 99.645951 -72.613636 
L 96.743125 -234.732436 
L 93.840298 -245.617418 
L 90.937471 -74.829164 
L 88.034645 -72.613636 
L 85.131818 -275.478873 
z
" style="stroke: #ffffff; stroke-opacity: 0.5"/>
    </defs>
    <g clip-path="url(#pc293348c3f)">
     <use xlink:href="#mfaf46aef7c" x="0" y="345.6" style="fill: #937860; fill-opacity: 0.5; stroke: #ffffff; stroke-opacity: 0.5"/>
    </g>
   </g>
   <g id="line2d_14">
    <path d="M 85.131818 276.357818 
L 88.034645 282.079658 
L 90.937471 272.928567 
L 93.840298 280.307236 
L 96.743125 271.714844 
L 99.645951 282.137455 
L 102.548778 248.615564 
L 105.451604 282.060393 
L 108.354431 272.273542 
L 111.257257 274.874378 
L 114.160084 243.914793 
L 117.062911 282.522764 
L 119.965737 202.089491 
L 122.868564 282.445702 
L 125.77139 282.464967 
L 128.674217 247.767884 
L 131.577044 247.690822 
L 134.47987 277.051375 
L 137.382697 207.310429 
L 140.285523 255.801578 
L 143.18835 268.921353 
L 146.091176 277.417418 
L 148.994003 255.897905 
L 151.89683 282.542029 
L 154.799656 256.244684 
L 157.702483 282.233782 
L 160.605309 242.238698 
L 163.508136 252.796167 
L 166.410963 282.021862 
L 169.313789 263.449964 
L 172.216616 232.085804 
L 175.119442 282.599825 
L 178.022269 176.639825 
L 180.925095 282.542029 
L 183.827922 210.701149 
L 186.730749 272.254276 
L 189.633575 280.365033 
L 192.536402 250.214596 
L 195.439228 259.115236 
L 198.342055 274.566131 
L 201.244882 245.764276 
L 204.147708 267.264524 
L 207.050535 237.306742 
L 209.953361 279.671476 
L 212.856188 251.948487 
L 215.759015 209.275505 
L 218.661841 212.897411 
L 221.564668 282.542029 
L 224.467494 252.680575 
L 227.370321 282.58056 
L 230.273147 211.510298 
L 233.175974 243.37536 
L 236.078801 282.619091 
L 238.981627 263.835273 
L 241.884454 272.678116 
L 244.78728 261.446356 
L 247.690107 282.291578 
L 250.592934 244.165244 
L 253.49576 251.447585 
L 256.398587 282.484233 
L 259.301413 270.50112 
L 262.20424 216.03768 
L 265.107066 282.503498 
L 268.009893 276.743127 
L 270.91272 251.254931 
L 273.815546 274.95144 
L 276.718373 282.58056 
L 279.621199 278.766 
L 282.524026 239.869047 
L 285.426853 237.326007 
L 288.329679 277.976116 
L 291.232506 269.268131 
L 294.135332 243.625811 
L 297.038159 243.221236 
L 299.940985 246.939469 
L 302.843812 278.419222 
L 305.746639 199.430858 
L 308.649465 219.505462 
L 311.552292 241.988247 
L 314.455118 260.367491 
L 317.357945 201.261076 
L 320.260772 282.542029 
L 323.163598 230.409709 
L 326.066425 282.522764 
L 328.969251 267.264524 
L 331.872078 281.039324 
L 334.774905 232.933484 
L 337.677731 282.58056 
L 340.580558 194.749353 
L 343.483384 251.698036 
L 346.386211 269.518582 
L 349.289037 262.583018 
L 352.191864 254.414465 
L 355.094691 282.599825 
L 357.997517 281.73288 
L 360.900344 282.484233 
L 363.80317 241.699265 
L 366.705997 245.552356 
L 369.608824 256.225418 
L 372.51165 282.15672 
L 375.414477 279.209105 
L 378.317303 272.080887 
L 381.22013 280.056785 
L 384.122956 260.96472 
L 387.025783 278.900858 
L 389.92861 252.044815 
L 392.831436 270.982756 
L 395.734263 242.932255 
L 398.637089 213.764356 
L 401.539916 270.50112 
L 404.442743 262.814204 
L 407.345569 277.417418 
L 410.248396 260.617942 
L 413.151222 264.066458 
L 416.054049 272.350604 
L 418.956875 277.321091 
L 421.859702 263.989396 
L 424.762529 257.15016 
L 427.665355 237.210415 
L 430.568182 188.044975 
" clip-path="url(#pc293348c3f)" style="fill: none; stroke: #4c72b0; stroke-width: 3; stroke-linecap: round"/>
   </g>
   <g id="line2d_15">
    <path d="M 85.131818 278.920124 
L 88.034645 281.906269 
L 90.937471 280.268705 
L 93.840298 282.137455 
L 96.743125 273.352407 
L 99.645951 232.99128 
L 102.548778 282.118189 
L 105.451604 240.6204 
L 108.354431 281.424633 
L 111.257257 281.212713 
L 114.160084 256.552931 
L 117.062911 243.144175 
L 119.965737 282.175985 
L 122.868564 260.695004 
L 125.77139 266.108596 
L 128.674217 258.672131 
L 131.577044 280.307236 
L 134.47987 282.291578 
L 137.382697 263.854538 
L 140.285523 282.253047 
L 143.18835 249.174262 
L 146.091176 220.006364 
L 148.994003 204.921513 
L 151.89683 238.597527 
L 154.799656 224.437418 
L 157.702483 282.195251 
L 160.605309 240.080967 
L 163.508136 204.093098 
L 166.410963 275.895447 
L 169.313789 282.233782 
L 172.216616 282.137455 
L 175.119442 247.266982 
L 178.022269 277.899055 
L 180.925095 256.437338 
L 183.827922 240.350684 
L 186.730749 280.865935 
L 189.633575 263.950865 
L 192.536402 237.306742 
L 195.439228 240.100233 
L 198.342055 275.510138 
L 201.244882 276.877985 
L 204.147708 247.671556 
L 207.050535 246.939469 
L 209.953361 282.253047 
L 212.856188 261.716073 
L 215.759015 277.976116 
L 218.661841 252.333796 
L 221.564668 275.914713 
L 224.467494 252.738371 
L 227.370321 223.165898 
L 230.273147 203.5344 
L 233.175974 276.85872 
L 236.078801 205.210495 
L 238.981627 228.194182 
L 241.884454 215.055142 
L 244.78728 266.185658 
L 247.690107 262.563753 
L 250.592934 216.230335 
L 253.49576 249.077935 
L 256.398587 282.137455 
L 259.301413 259.346422 
L 262.20424 254.491527 
L 265.107066 207.888393 
L 268.009893 281.559491 
L 270.91272 265.993004 
L 273.815546 246.207382 
L 276.718373 281.020058 
L 279.621199 281.848473 
L 282.524026 263.430698 
L 285.426853 282.291578 
L 288.329679 248.172458 
L 291.232506 257.862982 
L 294.135332 213.899215 
L 297.038159 273.487265 
L 299.940985 276.820189 
L 302.843812 256.707055 
L 305.746639 252.680575 
L 308.649465 234.590313 
L 311.552292 224.148436 
L 314.455118 272.023091 
L 317.357945 248.692625 
L 320.260772 210.662618 
L 323.163598 272.061622 
L 326.066425 246.245913 
L 328.969251 269.287396 
L 331.872078 251.486116 
L 334.774905 261.889462 
L 337.677731 279.748538 
L 340.580558 251.717302 
L 343.483384 280.538422 
L 346.386211 229.677622 
L 349.289037 177.025135 
L 352.191864 204.825185 
L 355.094691 279.690742 
L 357.997517 273.911105 
L 360.900344 271.117615 
L 363.80317 224.668604 
L 366.705997 248.634829 
L 369.608824 237.22968 
L 372.51165 210.624087 
L 375.414477 260.039978 
L 378.317303 235.630647 
L 381.22013 281.9448 
L 384.122956 260.637207 
L 387.025783 210.585556 
L 389.92861 209.487425 
L 392.831436 272.427665 
L 395.734263 281.829207 
L 398.637089 197.908887 
L 401.539916 281.964065 
L 404.442743 273.949636 
L 407.345569 259.115236 
L 410.248396 213.186393 
L 413.151222 282.175985 
L 416.054049 223.994313 
L 418.956875 242.643273 
L 421.859702 254.106218 
L 424.762529 265.915942 
L 427.665355 264.085724 
L 430.568182 246.284444 
" clip-path="url(#pc293348c3f)" style="fill: none; stroke: #dd8452; stroke-width: 3; stroke-linecap: round"/>
   </g>
   <g id="line2d_16">
    <path d="M 85.131818 280.750342 
L 88.034645 248.67336 
L 90.937471 279.440291 
L 93.840298 249.829287 
L 96.743125 217.000953 
L 99.645951 227.577687 
L 102.548778 253.913564 
L 105.451604 275.991775 
L 108.354431 276.22296 
L 111.257257 246.226647 
L 114.160084 248.67336 
L 117.062911 236.728778 
L 119.965737 278.669673 
L 122.868564 280.133847 
L 125.77139 276.608269 
L 128.674217 281.135651 
L 131.577044 275.259687 
L 134.47987 268.767229 
L 137.382697 281.135651 
L 140.285523 280.923731 
L 143.18835 249.925615 
L 146.091176 280.827404 
L 148.994003 241.776327 
L 151.89683 266.243455 
L 154.799656 249.52104 
L 157.702483 280.711811 
L 160.605309 262.929796 
L 163.508136 243.953324 
L 166.410963 248.480705 
L 169.313789 218.619251 
L 172.216616 259.462015 
L 175.119442 228.772145 
L 178.022269 268.092938 
L 180.925095 281.251244 
L 183.827922 247.555964 
L 186.730749 281.251244 
L 189.633575 276.184429 
L 192.536402 280.480625 
L 195.439228 265.376509 
L 198.342055 237.730582 
L 201.244882 281.020058 
L 204.147708 242.585476 
L 207.050535 255.300676 
L 209.953361 274.142291 
L 212.856188 252.603513 
L 215.759015 263.816007 
L 218.661841 280.172378 
L 221.564668 263.854538 
L 224.467494 245.398233 
L 227.370321 266.551702 
L 230.273147 216.67344 
L 233.175974 179.895687 
L 236.078801 236.324204 
L 238.981627 261.407825 
L 241.884454 272.138684 
L 244.78728 271.637782 
L 247.690107 262.698611 
L 250.592934 245.552356 
L 253.49576 222.453076 
L 256.398587 195.462175 
L 259.301413 181.436924 
L 262.20424 267.476444 
L 265.107066 251.254931 
L 268.009893 279.478822 
L 270.91272 280.865935 
L 273.815546 273.410204 
L 276.718373 232.740829 
L 279.621199 251.775098 
L 282.524026 281.09712 
L 285.426853 245.07072 
L 288.329679 223.820924 
L 291.232506 248.403644 
L 294.135332 260.444553 
L 297.038159 280.03752 
L 299.940985 229.523498 
L 302.843812 168.856582 
L 305.746639 243.934058 
L 308.649465 231.064735 
L 311.552292 248.095396 
L 314.455118 279.941193 
L 317.357945 216.711971 
L 320.260772 272.986364 
L 323.163598 234.667375 
L 326.066425 280.403564 
L 328.969251 231.469309 
L 331.872078 279.864131 
L 334.774905 265.896676 
L 337.677731 200.105149 
L 340.580558 280.788873 
L 343.483384 223.127367 
L 346.386211 251.890691 
L 349.289037 247.363309 
L 352.191864 260.983985 
L 355.094691 260.001447 
L 357.997517 247.748618 
L 360.900344 208.485622 
L 363.80317 177.082931 
L 366.705997 244.165244 
L 369.608824 275.067033 
L 372.51165 233.877491 
L 375.414477 234.917825 
L 378.317303 204.709593 
L 381.22013 236.324204 
L 384.122956 203.861913 
L 387.025783 237.403069 
L 389.92861 239.252553 
L 392.831436 241.121302 
L 395.734263 202.667455 
L 398.637089 240.735993 
L 401.539916 236.574655 
L 404.442743 195.48144 
L 407.345569 223.358553 
L 410.248396 196.194262 
L 413.151222 265.665491 
L 416.054049 280.095316 
L 418.956875 177.911345 
L 421.859702 237.306742 
L 424.762529 136.818131 
L 427.665355 145.834364 
L 430.568182 157.412902 
" clip-path="url(#pc293348c3f)" style="fill: none; stroke: #55a868; stroke-width: 3; stroke-linecap: round"/>
   </g>
   <g id="line2d_17">
    <path d="M 85.131818 247.478902 
L 88.034645 214.785425 
L 90.937471 206.559076 
L 93.840298 256.495135 
L 96.743125 241.198364 
L 99.645951 245.745011 
L 102.548778 235.688444 
L 105.451604 277.398153 
L 108.354431 275.240422 
L 111.257257 240.254356 
L 114.160084 271.040553 
L 117.062911 250.754029 
L 119.965737 203.245418 
L 122.868564 272.003825 
L 125.77139 262.197709 
L 128.674217 251.832895 
L 131.577044 243.356095 
L 134.47987 252.237469 
L 137.382697 270.867164 
L 140.285523 244.030385 
L 143.18835 271.637782 
L 146.091176 247.478902 
L 148.994003 237.923236 
L 151.89683 239.252553 
L 154.799656 253.104415 
L 157.702483 231.584902 
L 160.605309 264.798545 
L 163.508136 279.748538 
L 166.410963 251.254931 
L 169.313789 251.466851 
L 172.216616 216.692705 
L 175.119442 250.696233 
L 178.022269 210.277309 
L 180.925095 278.997185 
L 183.827922 262.698611 
L 186.730749 257.978575 
L 189.633575 241.352487 
L 192.536402 267.861753 
L 195.439228 259.539076 
L 198.342055 223.397084 
L 201.244882 248.46144 
L 204.147708 237.403069 
L 207.050535 157.875273 
L 209.953361 262.120647 
L 212.856188 233.068342 
L 215.759015 240.928647 
L 218.661841 248.904545 
L 221.564668 222.376015 
L 224.467494 277.359622 
L 227.370321 279.844865 
L 230.273147 255.262145 
L 233.175974 278.900858 
L 236.078801 260.155571 
L 238.981627 233.395855 
L 241.884454 207.695738 
L 244.78728 275.16336 
L 247.690107 242.970785 
L 250.592934 234.513251 
L 253.49576 262.775673 
L 256.398587 280.191644 
L 259.301413 232.933484 
L 262.20424 279.902662 
L 265.107066 269.769033 
L 268.009893 199.276735 
L 270.91272 262.698611 
L 273.815546 227.924465 
L 276.718373 250.195331 
L 279.621199 242.816662 
L 282.524026 278.380691 
L 285.426853 270.770836 
L 288.329679 251.948487 
L 291.232506 255.705251 
L 294.135332 258.84552 
L 297.038159 278.823796 
L 299.940985 263.546291 
L 302.843812 235.688444 
L 305.746639 243.914793 
L 308.649465 229.484967 
L 311.552292 253.528255 
L 314.455118 191.03112 
L 317.357945 261.831665 
L 320.260772 200.972095 
L 323.163598 250.349455 
L 326.066425 200.047353 
L 328.969251 267.225993 
L 331.872078 218.908233 
L 334.774905 217.424793 
L 337.677731 259.230829 
L 340.580558 270.616713 
L 343.483384 190.742138 
L 346.386211 211.741484 
L 349.289037 259.307891 
L 352.191864 215.170735 
L 355.094691 219.21648 
L 357.997517 229.369375 
L 360.900344 199.816167 
L 363.80317 235.495789 
L 366.705997 230.756487 
L 369.608824 270.231404 
L 372.51165 217.752305 
L 375.414477 210.836007 
L 378.317303 236.247142 
L 381.22013 250.272393 
L 384.122956 81.661135 
L 387.025783 147.645316 
L 389.92861 193.959469 
L 392.831436 204.516938 
L 395.734263 281.174182 
L 398.637089 211.529564 
L 401.539916 231.141796 
L 404.442743 209.583753 
L 407.345569 198.891425 
L 410.248396 160.51464 
L 413.151222 240.177295 
L 416.054049 220.218284 
L 418.956875 183.61392 
L 421.859702 187.717462 
L 424.762529 235.938895 
L 427.665355 162.460451 
L 430.568182 252.69984 
" clip-path="url(#pc293348c3f)" style="fill: none; stroke: #c44e52; stroke-width: 3; stroke-linecap: round"/>
   </g>
   <g id="line2d_18">
    <path d="M 85.131818 181.802967 
L 88.034645 239.926844 
L 90.937471 270.751571 
L 93.840298 190.973324 
L 96.743125 206.809527 
L 99.645951 240.658931 
L 102.548778 245.475295 
L 105.451604 217.000953 
L 108.354431 267.669098 
L 111.257257 219.967833 
L 114.160084 265.761818 
L 117.062911 236.863636 
L 119.965737 214.245993 
L 122.868564 269.807564 
L 125.77139 275.510138 
L 128.674217 251.563178 
L 131.577044 235.149011 
L 134.47987 275.124829 
L 137.382697 267.823222 
L 140.285523 241.410284 
L 143.18835 275.510138 
L 146.091176 267.399382 
L 148.994003 255.127287 
L 151.89683 271.117615 
L 154.799656 225.208036 
L 157.702483 214.708364 
L 160.605309 249.328385 
L 163.508136 246.168851 
L 166.410963 177.757222 
L 169.313789 268.959884 
L 172.216616 274.045964 
L 175.119442 269.191069 
L 178.022269 245.224844 
L 180.925095 230.351913 
L 183.827922 182.169011 
L 186.730749 275.779855 
L 189.633575 240.793789 
L 192.536402 217.52112 
L 195.439228 261.080313 
L 198.342055 257.381345 
L 201.244882 231.854618 
L 204.147708 273.159753 
L 207.050535 275.529404 
L 209.953361 236.940698 
L 212.856188 240.177295 
L 215.759015 242.238698 
L 218.661841 253.354865 
L 221.564668 193.208116 
L 224.467494 236.632451 
L 227.370321 242.778131 
L 230.273147 271.425862 
L 233.175974 252.661309 
L 236.078801 253.528255 
L 238.981627 267.283789 
L 241.884454 235.823302 
L 244.78728 260.868393 
L 247.690107 277.417418 
L 250.592934 230.929876 
L 253.49576 189.258698 
L 256.398587 218.908233 
L 259.301413 273.911105 
L 262.20424 278.611876 
L 265.107066 260.887658 
L 268.009893 252.430124 
L 270.91272 248.018335 
L 273.815546 268.959884 
L 276.718373 266.648029 
L 279.621199 188.565142 
L 282.524026 230.775753 
L 285.426853 263.064655 
L 288.329679 263.9316 
L 291.232506 272.119418 
L 294.135332 266.26272 
L 297.038159 265.83888 
L 299.940985 278.13024 
L 302.843812 224.418153 
L 305.746639 259.808793 
L 308.649465 261.330764 
L 311.552292 229.427171 
L 314.455118 208.427825 
L 317.357945 241.005709 
L 320.260772 215.787229 
L 323.163598 173.422495 
L 326.066425 275.240422 
L 328.969251 233.338058 
L 331.872078 239.849782 
L 334.774905 193.36224 
L 337.677731 211.568095 
L 340.580558 218.118349 
L 343.483384 273.468 
L 346.386211 244.704676 
L 349.289037 166.775913 
L 352.191864 213.802887 
L 355.094691 210.007593 
L 357.997517 192.456764 
L 360.900344 213.513905 
L 363.80317 203.765585 
L 366.705997 151.902982 
L 369.608824 179.510378 
L 372.51165 200.394131 
L 375.414477 155.563418 
L 378.317303 190.433891 
L 381.22013 191.628349 
L 384.122956 197.196065 
L 387.025783 156.006524 
L 389.92861 178.643433 
L 392.831436 159.281651 
L 395.734263 278.245833 
L 398.637089 145.776567 
L 401.539916 185.251484 
L 404.442743 167.469469 
L 407.345569 196.213527 
L 410.248396 212.396509 
L 413.151222 211.009396 
L 416.054049 133.81272 
L 418.956875 197.696967 
L 421.859702 246.400036 
L 424.762529 129.15048 
L 427.665355 82.547345 
L 430.568182 156.680815 
" clip-path="url(#pc293348c3f)" style="fill: none; stroke: #8172b3; stroke-width: 3; stroke-linecap: round"/>
   </g>
   <g id="line2d_19">
    <path d="M 85.131818 70.121127 
L 88.034645 272.986364 
L 90.937471 270.770836 
L 93.840298 99.982582 
L 96.743125 110.867564 
L 99.645951 272.986364 
L 102.548778 263.064655 
L 105.451604 241.005709 
L 108.354431 272.986364 
L 111.257257 116.6472 
L 114.160084 152.384618 
L 117.062911 76.767709 
L 119.965737 69.735818 
L 122.868564 254.587855 
L 125.77139 63.474545 
L 128.674217 140.536364 
L 131.577044 204.594 
L 134.47987 174.539891 
L 137.382697 73.974218 
L 140.285523 149.976436 
L 143.18835 272.986364 
L 146.091176 94.299273 
L 148.994003 247.748618 
L 151.89683 272.986364 
L 154.799656 233.973818 
L 157.702483 102.390764 
L 160.605309 272.986364 
L 163.508136 141.692291 
L 166.410963 215.286327 
L 169.313789 78.886909 
L 172.216616 198.621709 
L 175.119442 157.104655 
L 178.022269 261.716073 
L 180.925095 200.259273 
L 183.827922 101.331164 
L 186.730749 244.088182 
L 189.633575 231.565636 
L 192.536402 272.986364 
L 195.439228 170.494145 
L 198.342055 110.674909 
L 201.244882 145.545382 
L 204.147708 213.745091 
L 207.050535 272.986364 
L 209.953361 197.851091 
L 212.856188 266.436109 
L 215.759015 171.842727 
L 218.661841 117.610473 
L 221.564668 267.977345 
L 224.467494 282.619091 
L 227.370321 239.368145 
L 230.273147 267.1104 
L 233.175974 253.239273 
L 236.078801 180.897491 
L 238.981627 147.664582 
L 241.884454 254.298873 
L 244.78728 94.780909 
L 247.690107 67.231309 
L 250.592934 106.918145 
L 253.49576 60.681055 
L 256.398587 120.114982 
L 259.301413 272.793709 
L 262.20424 241.872655 
L 265.107066 247.074327 
L 268.009893 229.446436 
L 270.91272 262.775673 
L 273.815546 100.271564 
L 276.718373 209.314036 
L 279.621199 141.114327 
L 282.524026 158.356909 
L 285.426853 257.959309 
L 288.329679 263.642618 
L 291.232506 271.541455 
L 294.135332 154.022182 
L 297.038159 272.890036 
L 299.940985 106.147527 
L 302.843812 75.708109 
L 305.746639 271.830436 
L 308.649465 261.234436 
L 311.552292 100.078909 
L 314.455118 100.271564 
L 317.357945 274.5276 
L 320.260772 185.810182 
L 323.163598 144.389455 
L 326.066425 82.354691 
L 328.969251 272.986364 
L 331.872078 243.7992 
L 334.774905 61.162691 
L 337.677731 262.775673 
L 340.580558 262.872 
L 343.483384 250.349455 
L 346.386211 225.689673 
L 349.289037 267.977345 
L 352.191864 218.946764 
L 355.094691 180.2232 
L 357.997517 264.9912 
L 360.900344 246.303709 
L 363.80317 251.987018 
L 366.705997 140.151055 
L 369.608824 191.011855 
L 372.51165 110.963891 
L 375.414477 85.629818 
L 378.317303 113.4684 
L 381.22013 246.689018 
L 384.122956 66.846 
L 387.025783 272.312073 
L 389.92861 114.142691 
L 392.831436 112.119818 
L 395.734263 100.656873 
L 398.637089 238.982836 
L 401.539916 116.261891 
L 404.442743 95.936836 
L 407.345569 272.023091 
L 410.248396 261.8124 
L 413.151222 271.734109 
L 416.054049 75.130145 
L 418.956875 200.644582 
L 421.859702 87.845345 
L 424.762529 272.986364 
L 427.665355 272.986364 
L 430.568182 61.355345 
" clip-path="url(#pc293348c3f)" style="fill: none; stroke: #937860; stroke-width: 3; stroke-linecap: round"/>
   </g>
   <g id="patch_3">
    <path d="M 67.86 294.66 
L 67.86 29.76 
" style="fill: none; stroke: #ffffff; stroke-width: 1.25; stroke-linejoin: miter; stroke-linecap: square"/>
   </g>
   <g id="patch_4">
    <path d="M 447.84 294.66 
L 447.84 29.76 
" style="fill: none; stroke: #ffffff; stroke-width: 1.25; stroke-linejoin: miter; stroke-linecap: square"/>
   </g>
   <g id="patch_5">
    <path d="M 67.86 294.66 
L 447.84 294.66 
" style="fill: none; stroke: #ffffff; stroke-width: 1.25; stroke-linejoin: miter; stroke-linecap: square"/>
   </g>
   <g id="patch_6">
    <path d="M 67.86 29.76 
L 447.84 29.76 
" style="fill: none; stroke: #ffffff; stroke-width: 1.25; stroke-linejoin: miter; stroke-linecap: square"/>
   </g>
   <g id="text_16">
    <!-- zinc-coating-v0 -->
    <g style="fill: #262626" transform="translate(204.491406 23.76)scale(0.14 -0.14)">
     <defs>
      <path id="DejaVuSans-7a" d="M 353 3500 
L 3084 3500 
L 3084 2975 
L 922 459 
L 3084 459 
L 3084 0 
L 275 0 
L 275 525 
L 2438 3041 
L 353 3041 
L 353 3500 
z
" transform="scale(0.015625)"/>
      <path id="DejaVuSans-63" d="M 3122 3366 
L 3122 2828 
Q 2878 2963 2633 3030 
Q 2388 3097 2138 3097 
Q 1578 3097 1268 2742 
Q 959 2388 959 1747 
Q 959 1106 1268 751 
Q 1578 397 2138 397 
Q 2388 397 2633 464 
Q 2878 531 3122 666 
L 3122 134 
Q 2881 22 2623 -34 
Q 2366 -91 2075 -91 
Q 1284 -91 818 406 
Q 353 903 353 1747 
Q 353 2603 823 3093 
Q 1294 3584 2113 3584 
Q 2378 3584 2631 3529 
Q 2884 3475 3122 3366 
z
" transform="scale(0.015625)"/>
      <path id="DejaVuSans-2d" d="M 313 2009 
L 1997 2009 
L 1997 1497 
L 313 1497 
L 313 2009 
z
" transform="scale(0.015625)"/>
      <path id="DejaVuSans-61" d="M 2194 1759 
Q 1497 1759 1228 1600 
Q 959 1441 959 1056 
Q 959 750 1161 570 
Q 1363 391 1709 391 
Q 2188 391 2477 730 
Q 2766 1069 2766 1631 
L 2766 1759 
L 2194 1759 
z
M 3341 1997 
L 3341 0 
L 2766 0 
L 2766 531 
Q 2569 213 2275 61 
Q 1981 -91 1556 -91 
Q 1019 -91 701 211 
Q 384 513 384 1019 
Q 384 1609 779 1909 
Q 1175 2209 1959 2209 
L 2766 2209 
L 2766 2266 
Q 2766 2663 2505 2880 
Q 2244 3097 1772 3097 
Q 1472 3097 1187 3025 
Q 903 2953 641 2809 
L 641 3341 
Q 956 3463 1253 3523 
Q 1550 3584 1831 3584 
Q 2591 3584 2966 3190 
Q 3341 2797 3341 1997 
z
" transform="scale(0.015625)"/>
      <path id="DejaVuSans-76" d="M 191 3500 
L 800 3500 
L 1894 563 
L 2988 3500 
L 3597 3500 
L 2284 0 
L 1503 0 
L 191 3500 
z
" transform="scale(0.015625)"/>
     </defs>
     <use xlink:href="#DejaVuSans-7a"/>
     <use xlink:href="#DejaVuSans-69" x="52.490234"/>
     <use xlink:href="#DejaVuSans-6e" x="80.273438"/>
     <use xlink:href="#DejaVuSans-63" x="143.652344"/>
     <use xlink:href="#DejaVuSans-2d" x="198.632812"/>
     <use xlink:href="#DejaVuSans-63" x="234.716797"/>
     <use xlink:href="#DejaVuSans-6f" x="289.697266"/>
     <use xlink:href="#DejaVuSans-61" x="350.878906"/>
     <use xlink:href="#DejaVuSans-74" x="412.158203"/>
     <use xlink:href="#DejaVuSans-69" x="451.367188"/>
     <use xlink:href="#DejaVuSans-6e" x="479.150391"/>
     <use xlink:href="#DejaVuSans-67" x="542.529297"/>
     <use xlink:href="#DejaVuSans-2d" x="606.005859"/>
     <use xlink:href="#DejaVuSans-76" x="639.464844"/>
     <use xlink:href="#DejaVuSans-30" x="698.644531"/>
    </g>
   </g>
   <g id="legend_1">
    <g id="patch_7">
     <path d="M 75.56 135.435625 
L 229.800625 135.435625 
Q 232.000625 135.435625 232.000625 133.235625 
L 232.000625 37.46 
Q 232.000625 35.26 229.800625 35.26 
L 75.56 35.26 
Q 73.36 35.26 73.36 37.46 
L 73.36 133.235625 
Q 73.36 135.435625 75.56 135.435625 
z
" style="fill: #eaeaf2; opacity: 0.8; stroke: #cccccc; stroke-linejoin: miter"/>
    </g>
    <g id="line2d_20">
     <path d="M 77.76 44.168281 
L 88.76 44.168281 
L 99.76 44.168281 
" style="fill: none; stroke: #4c72b0; stroke-width: 3; stroke-linecap: round"/>
    </g>
    <g id="text_17">
     <!-- DATS-DELAY-0 -->
     <g style="fill: #262626" transform="translate(108.56 48.018281)scale(0.11 -0.11)">
      <defs>
       <path id="DejaVuSans-44" d="M 1259 4147 
L 1259 519 
L 2022 519 
Q 2988 519 3436 956 
Q 3884 1394 3884 2338 
Q 3884 3275 3436 3711 
Q 2988 4147 2022 4147 
L 1259 4147 
z
M 628 4666 
L 1925 4666 
Q 3281 4666 3915 4102 
Q 4550 3538 4550 2338 
Q 4550 1131 3912 565 
Q 3275 0 1925 0 
L 628 0 
L 628 4666 
z
" transform="scale(0.015625)"/>
       <path id="DejaVuSans-41" d="M 2188 4044 
L 1331 1722 
L 3047 1722 
L 2188 4044 
z
M 1831 4666 
L 2547 4666 
L 4325 0 
L 3669 0 
L 3244 1197 
L 1141 1197 
L 716 0 
L 50 0 
L 1831 4666 
z
" transform="scale(0.015625)"/>
       <path id="DejaVuSans-53" d="M 3425 4513 
L 3425 3897 
Q 3066 4069 2747 4153 
Q 2428 4238 2131 4238 
Q 1616 4238 1336 4038 
Q 1056 3838 1056 3469 
Q 1056 3159 1242 3001 
Q 1428 2844 1947 2747 
L 2328 2669 
Q 3034 2534 3370 2195 
Q 3706 1856 3706 1288 
Q 3706 609 3251 259 
Q 2797 -91 1919 -91 
Q 1588 -91 1214 -16 
Q 841 59 441 206 
L 441 856 
Q 825 641 1194 531 
Q 1563 422 1919 422 
Q 2459 422 2753 634 
Q 3047 847 3047 1241 
Q 3047 1584 2836 1778 
Q 2625 1972 2144 2069 
L 1759 2144 
Q 1053 2284 737 2584 
Q 422 2884 422 3419 
Q 422 4038 858 4394 
Q 1294 4750 2059 4750 
Q 2388 4750 2728 4690 
Q 3069 4631 3425 4513 
z
" transform="scale(0.015625)"/>
       <path id="DejaVuSans-45" d="M 628 4666 
L 3578 4666 
L 3578 4134 
L 1259 4134 
L 1259 2753 
L 3481 2753 
L 3481 2222 
L 1259 2222 
L 1259 531 
L 3634 531 
L 3634 0 
L 628 0 
L 628 4666 
z
" transform="scale(0.015625)"/>
       <path id="DejaVuSans-4c" d="M 628 4666 
L 1259 4666 
L 1259 531 
L 3531 531 
L 3531 0 
L 628 0 
L 628 4666 
z
" transform="scale(0.015625)"/>
       <path id="DejaVuSans-59" d="M -13 4666 
L 666 4666 
L 1959 2747 
L 3244 4666 
L 3922 4666 
L 2272 2222 
L 2272 0 
L 1638 0 
L 1638 2222 
L -13 4666 
z
" transform="scale(0.015625)"/>
      </defs>
      <use xlink:href="#DejaVuSans-44"/>
      <use xlink:href="#DejaVuSans-41" x="75.251953"/>
      <use xlink:href="#DejaVuSans-54" x="135.910156"/>
      <use xlink:href="#DejaVuSans-53" x="196.994141"/>
      <use xlink:href="#DejaVuSans-2d" x="260.470703"/>
      <use xlink:href="#DejaVuSans-44" x="296.554688"/>
      <use xlink:href="#DejaVuSans-45" x="373.556641"/>
      <use xlink:href="#DejaVuSans-4c" x="436.740234"/>
      <use xlink:href="#DejaVuSans-41" x="494.703125"/>
      <use xlink:href="#DejaVuSans-59" x="555.361328"/>
      <use xlink:href="#DejaVuSans-2d" x="604.570312"/>
      <use xlink:href="#DejaVuSans-30" x="640.654297"/>
     </g>
    </g>
    <g id="line2d_21">
     <path d="M 77.76 60.314219 
L 88.76 60.314219 
L 99.76 60.314219 
" style="fill: none; stroke: #dd8452; stroke-width: 3; stroke-linecap: round"/>
    </g>
    <g id="text_18">
     <!-- DATS-DELAY-1 -->
     <g style="fill: #262626" transform="translate(108.56 64.164219)scale(0.11 -0.11)">
      <use xlink:href="#DejaVuSans-44"/>
      <use xlink:href="#DejaVuSans-41" x="75.251953"/>
      <use xlink:href="#DejaVuSans-54" x="135.910156"/>
      <use xlink:href="#DejaVuSans-53" x="196.994141"/>
      <use xlink:href="#DejaVuSans-2d" x="260.470703"/>
      <use xlink:href="#DejaVuSans-44" x="296.554688"/>
      <use xlink:href="#DejaVuSans-45" x="373.556641"/>
      <use xlink:href="#DejaVuSans-4c" x="436.740234"/>
      <use xlink:href="#DejaVuSans-41" x="494.703125"/>
      <use xlink:href="#DejaVuSans-59" x="555.361328"/>
      <use xlink:href="#DejaVuSans-2d" x="604.570312"/>
      <use xlink:href="#DejaVuSans-31" x="640.654297"/>
     </g>
    </g>
    <g id="line2d_22">
     <path d="M 77.76 76.460156 
L 88.76 76.460156 
L 99.76 76.460156 
" style="fill: none; stroke: #55a868; stroke-width: 3; stroke-linecap: round"/>
    </g>
    <g id="text_19">
     <!-- DATS-DELAY-5 -->
     <g style="fill: #262626" transform="translate(108.56 80.310156)scale(0.11 -0.11)">
      <use xlink:href="#DejaVuSans-44"/>
      <use xlink:href="#DejaVuSans-41" x="75.251953"/>
      <use xlink:href="#DejaVuSans-54" x="135.910156"/>
      <use xlink:href="#DejaVuSans-53" x="196.994141"/>
      <use xlink:href="#DejaVuSans-2d" x="260.470703"/>
      <use xlink:href="#DejaVuSans-44" x="296.554688"/>
      <use xlink:href="#DejaVuSans-45" x="373.556641"/>
      <use xlink:href="#DejaVuSans-4c" x="436.740234"/>
      <use xlink:href="#DejaVuSans-41" x="494.703125"/>
      <use xlink:href="#DejaVuSans-59" x="555.361328"/>
      <use xlink:href="#DejaVuSans-2d" x="604.570312"/>
      <use xlink:href="#DejaVuSans-35" x="640.654297"/>
     </g>
    </g>
    <g id="line2d_23">
     <path d="M 77.76 92.606094 
L 88.76 92.606094 
L 99.76 92.606094 
" style="fill: none; stroke: #c44e52; stroke-width: 3; stroke-linecap: round"/>
    </g>
    <g id="text_20">
     <!-- DATS-DELAY-10 -->
     <g style="fill: #262626" transform="translate(108.56 96.456094)scale(0.11 -0.11)">
      <use xlink:href="#DejaVuSans-44"/>
      <use xlink:href="#DejaVuSans-41" x="75.251953"/>
      <use xlink:href="#DejaVuSans-54" x="135.910156"/>
      <use xlink:href="#DejaVuSans-53" x="196.994141"/>
      <use xlink:href="#DejaVuSans-2d" x="260.470703"/>
      <use xlink:href="#DejaVuSans-44" x="296.554688"/>
      <use xlink:href="#DejaVuSans-45" x="373.556641"/>
      <use xlink:href="#DejaVuSans-4c" x="436.740234"/>
      <use xlink:href="#DejaVuSans-41" x="494.703125"/>
      <use xlink:href="#DejaVuSans-59" x="555.361328"/>
      <use xlink:href="#DejaVuSans-2d" x="604.570312"/>
      <use xlink:href="#DejaVuSans-31" x="640.654297"/>
      <use xlink:href="#DejaVuSans-30" x="704.277344"/>
     </g>
    </g>
    <g id="line2d_24">
     <path d="M 77.76 108.752031 
L 88.76 108.752031 
L 99.76 108.752031 
" style="fill: none; stroke: #8172b3; stroke-width: 3; stroke-linecap: round"/>
    </g>
    <g id="text_21">
     <!-- DATS-DELAY-20 -->
     <g style="fill: #262626" transform="translate(108.56 112.602031)scale(0.11 -0.11)">
      <use xlink:href="#DejaVuSans-44"/>
      <use xlink:href="#DejaVuSans-41" x="75.251953"/>
      <use xlink:href="#DejaVuSans-54" x="135.910156"/>
      <use xlink:href="#DejaVuSans-53" x="196.994141"/>
      <use xlink:href="#DejaVuSans-2d" x="260.470703"/>
      <use xlink:href="#DejaVuSans-44" x="296.554688"/>
      <use xlink:href="#DejaVuSans-45" x="373.556641"/>
      <use xlink:href="#DejaVuSans-4c" x="436.740234"/>
      <use xlink:href="#DejaVuSans-41" x="494.703125"/>
      <use xlink:href="#DejaVuSans-59" x="555.361328"/>
      <use xlink:href="#DejaVuSans-2d" x="604.570312"/>
      <use xlink:href="#DejaVuSans-32" x="640.654297"/>
      <use xlink:href="#DejaVuSans-30" x="704.277344"/>
     </g>
    </g>
    <g id="line2d_25">
     <path d="M 77.76 124.897969 
L 88.76 124.897969 
L 99.76 124.897969 
" style="fill: none; stroke: #937860; stroke-width: 3; stroke-linecap: round"/>
    </g>
    <g id="text_22">
     <!-- DATS-DELAY-100-GPU -->
     <g style="fill: #262626" transform="translate(108.56 128.747969)scale(0.11 -0.11)">
      <defs>
       <path id="DejaVuSans-47" d="M 3809 666 
L 3809 1919 
L 2778 1919 
L 2778 2438 
L 4434 2438 
L 4434 434 
Q 4069 175 3628 42 
Q 3188 -91 2688 -91 
Q 1594 -91 976 548 
Q 359 1188 359 2328 
Q 359 3472 976 4111 
Q 1594 4750 2688 4750 
Q 3144 4750 3555 4637 
Q 3966 4525 4313 4306 
L 4313 3634 
Q 3963 3931 3569 4081 
Q 3175 4231 2741 4231 
Q 1884 4231 1454 3753 
Q 1025 3275 1025 2328 
Q 1025 1384 1454 906 
Q 1884 428 2741 428 
Q 3075 428 3337 486 
Q 3600 544 3809 666 
z
" transform="scale(0.015625)"/>
       <path id="DejaVuSans-50" d="M 1259 4147 
L 1259 2394 
L 2053 2394 
Q 2494 2394 2734 2622 
Q 2975 2850 2975 3272 
Q 2975 3691 2734 3919 
Q 2494 4147 2053 4147 
L 1259 4147 
z
M 628 4666 
L 2053 4666 
Q 2838 4666 3239 4311 
Q 3641 3956 3641 3272 
Q 3641 2581 3239 2228 
Q 2838 1875 2053 1875 
L 1259 1875 
L 1259 0 
L 628 0 
L 628 4666 
z
" transform="scale(0.015625)"/>
       <path id="DejaVuSans-55" d="M 556 4666 
L 1191 4666 
L 1191 1831 
Q 1191 1081 1462 751 
Q 1734 422 2344 422 
Q 2950 422 3222 751 
Q 3494 1081 3494 1831 
L 3494 4666 
L 4128 4666 
L 4128 1753 
Q 4128 841 3676 375 
Q 3225 -91 2344 -91 
Q 1459 -91 1007 375 
Q 556 841 556 1753 
L 556 4666 
z
" transform="scale(0.015625)"/>
      </defs>
      <use xlink:href="#DejaVuSans-44"/>
      <use xlink:href="#DejaVuSans-41" x="75.251953"/>
      <use xlink:href="#DejaVuSans-54" x="135.910156"/>
      <use xlink:href="#DejaVuSans-53" x="196.994141"/>
      <use xlink:href="#DejaVuSans-2d" x="260.470703"/>
      <use xlink:href="#DejaVuSans-44" x="296.554688"/>
      <use xlink:href="#DejaVuSans-45" x="373.556641"/>
      <use xlink:href="#DejaVuSans-4c" x="436.740234"/>
      <use xlink:href="#DejaVuSans-41" x="494.703125"/>
      <use xlink:href="#DejaVuSans-59" x="555.361328"/>
      <use xlink:href="#DejaVuSans-2d" x="604.570312"/>
      <use xlink:href="#DejaVuSans-31" x="640.654297"/>
      <use xlink:href="#DejaVuSans-30" x="704.277344"/>
      <use xlink:href="#DejaVuSans-30" x="767.900391"/>
      <use xlink:href="#DejaVuSans-2d" x="831.523438"/>
      <use xlink:href="#DejaVuSans-47" x="871.232422"/>
      <use xlink:href="#DejaVuSans-50" x="948.722656"/>
      <use xlink:href="#DejaVuSans-55" x="1009.025391"/>
     </g>
    </g>
   </g>
  </g>
 </g>
 <defs>
  <clipPath id="pc293348c3f">
   <rect x="67.86" y="29.76" width="379.98" height="264.9"/>
  </clipPath>
 </defs>
</svg>
