<?xml version="1.0" encoding="utf-8" standalone="no"?>
<!DOCTYPE svg PUBLIC "-//W3C//DTD SVG 1.1//EN"
  "http://www.w3.org/Graphics/SVG/1.1/DTD/svg11.dtd">
<svg xmlns:xlink="http://www.w3.org/1999/xlink" width="460.8pt" height="345.6pt" viewBox="0 0 460.8 345.6" xmlns="http://www.w3.org/2000/svg" version="1.1">
 <metadata>
  <rdf:RDF xmlns:dc="http://purl.org/dc/elements/1.1/" xmlns:cc="http://creativecommons.org/ns#" xmlns:rdf="http://www.w3.org/1999/02/22-rdf-syntax-ns#">
   <cc:Work>
    <dc:type rdf:resource="http://purl.org/dc/dcmitype/StillImage"/>
    <dc:date>2022-09-10T15:50:46.847015</dc:date>
    <dc:format>image/svg+xml</dc:format>
    <dc:creator>
     <cc:Agent>
      <dc:title>Matplotlib v3.5.3, https://matplotlib.org/</dc:title>
     </cc:Agent>
    </dc:creator>
   </cc:Work>
  </rdf:RDF>
 </metadata>
 <defs>
  <style type="text/css">*{stroke-linejoin: round; stroke-linecap: butt}</style>
 </defs>
 <g id="figure_1">
  <g id="patch_1">
   <path d="M 0 345.6 
L 460.8 345.6 
L 460.8 0 
L 0 0 
z
" style="fill: #ffffff"/>
  </g>
  <g id="axes_1">
   <g id="patch_2">
    <path d="M 67.95 294.66 
L 447.84 294.66 
L 447.84 29.76 
L 67.95 29.76 
z
" style="fill: #eaeaf2"/>
   </g>
   <g id="matplotlib.axis_1">
    <g id="xtick_1">
     <g id="line2d_1">
      <path d="M 82.315588 294.66 
L 82.315588 29.76 
" clip-path="url(#pc67572cd9e)" style="fill: none; stroke: #ffffff; stroke-linecap: round"/>
     </g>
     <g id="text_1">
      <!-- 0.00 -->
      <g style="fill: #262626" transform="translate(70.069494 312.518281)scale(0.11 -0.11)">
       <defs>
        <path id="DejaVuSans-30" d="M 2034 4250 
Q 1547 4250 1301 3770 
Q 1056 3291 1056 2328 
Q 1056 1369 1301 889 
Q 1547 409 2034 409 
Q 2525 409 2770 889 
Q 3016 1369 3016 2328 
Q 3016 3291 2770 3770 
Q 2525 4250 2034 4250 
z
M 2034 4750 
Q 2819 4750 3233 4129 
Q 3647 3509 3647 2328 
Q 3647 1150 3233 529 
Q 2819 -91 2034 -91 
Q 1250 -91 836 529 
Q 422 1150 422 2328 
Q 422 3509 836 4129 
Q 1250 4750 2034 4750 
z
" transform="scale(0.015625)"/>
        <path id="DejaVuSans-2e" d="M 684 794 
L 1344 794 
L 1344 0 
L 684 0 
L 684 794 
z
" transform="scale(0.015625)"/>
       </defs>
       <use xlink:href="#DejaVuSans-30"/>
       <use xlink:href="#DejaVuSans-2e" x="63.623047"/>
       <use xlink:href="#DejaVuSans-30" x="95.410156"/>
       <use xlink:href="#DejaVuSans-30" x="159.033203"/>
      </g>
     </g>
    </g>
    <g id="xtick_2">
     <g id="line2d_2">
      <path d="M 140.358369 294.66 
L 140.358369 29.76 
" clip-path="url(#pc67572cd9e)" style="fill: none; stroke: #ffffff; stroke-linecap: round"/>
     </g>
     <g id="text_2">
      <!-- 0.05 -->
      <g style="fill: #262626" transform="translate(128.112275 312.518281)scale(0.11 -0.11)">
       <defs>
        <path id="DejaVuSans-35" d="M 691 4666 
L 3169 4666 
L 3169 4134 
L 1269 4134 
L 1269 2991 
Q 1406 3038 1543 3061 
Q 1681 3084 1819 3084 
Q 2600 3084 3056 2656 
Q 3513 2228 3513 1497 
Q 3513 744 3044 326 
Q 2575 -91 1722 -91 
Q 1428 -91 1123 -41 
Q 819 9 494 109 
L 494 744 
Q 775 591 1075 516 
Q 1375 441 1709 441 
Q 2250 441 2565 725 
Q 2881 1009 2881 1497 
Q 2881 1984 2565 2268 
Q 2250 2553 1709 2553 
Q 1456 2553 1204 2497 
Q 953 2441 691 2322 
L 691 4666 
z
" transform="scale(0.015625)"/>
       </defs>
       <use xlink:href="#DejaVuSans-30"/>
       <use xlink:href="#DejaVuSans-2e" x="63.623047"/>
       <use xlink:href="#DejaVuSans-30" x="95.410156"/>
       <use xlink:href="#DejaVuSans-35" x="159.033203"/>
      </g>
     </g>
    </g>
    <g id="xtick_3">
     <g id="line2d_3">
      <path d="M 198.40115 294.66 
L 198.40115 29.76 
" clip-path="url(#pc67572cd9e)" style="fill: none; stroke: #ffffff; stroke-linecap: round"/>
     </g>
     <g id="text_3">
      <!-- 0.10 -->
      <g style="fill: #262626" transform="translate(186.155056 312.518281)scale(0.11 -0.11)">
       <defs>
        <path id="DejaVuSans-31" d="M 794 531 
L 1825 531 
L 1825 4091 
L 703 3866 
L 703 4441 
L 1819 4666 
L 2450 4666 
L 2450 531 
L 3481 531 
L 3481 0 
L 794 0 
L 794 531 
z
" transform="scale(0.015625)"/>
       </defs>
       <use xlink:href="#DejaVuSans-30"/>
       <use xlink:href="#DejaVuSans-2e" x="63.623047"/>
       <use xlink:href="#DejaVuSans-31" x="95.410156"/>
       <use xlink:href="#DejaVuSans-30" x="159.033203"/>
      </g>
     </g>
    </g>
    <g id="xtick_4">
     <g id="line2d_4">
      <path d="M 256.44393 294.66 
L 256.44393 29.76 
" clip-path="url(#pc67572cd9e)" style="fill: none; stroke: #ffffff; stroke-linecap: round"/>
     </g>
     <g id="text_4">
      <!-- 0.15 -->
      <g style="fill: #262626" transform="translate(244.197837 312.518281)scale(0.11 -0.11)">
       <use xlink:href="#DejaVuSans-30"/>
       <use xlink:href="#DejaVuSans-2e" x="63.623047"/>
       <use xlink:href="#DejaVuSans-31" x="95.410156"/>
       <use xlink:href="#DejaVuSans-35" x="159.033203"/>
      </g>
     </g>
    </g>
    <g id="xtick_5">
     <g id="line2d_5">
      <path d="M 314.486711 294.66 
L 314.486711 29.76 
" clip-path="url(#pc67572cd9e)" style="fill: none; stroke: #ffffff; stroke-linecap: round"/>
     </g>
     <g id="text_5">
      <!-- 0.20 -->
      <g style="fill: #262626" transform="translate(302.240617 312.518281)scale(0.11 -0.11)">
       <defs>
        <path id="DejaVuSans-32" d="M 1228 531 
L 3431 531 
L 3431 0 
L 469 0 
L 469 531 
Q 828 903 1448 1529 
Q 2069 2156 2228 2338 
Q 2531 2678 2651 2914 
Q 2772 3150 2772 3378 
Q 2772 3750 2511 3984 
Q 2250 4219 1831 4219 
Q 1534 4219 1204 4116 
Q 875 4013 500 3803 
L 500 4441 
Q 881 4594 1212 4672 
Q 1544 4750 1819 4750 
Q 2544 4750 2975 4387 
Q 3406 4025 3406 3419 
Q 3406 3131 3298 2873 
Q 3191 2616 2906 2266 
Q 2828 2175 2409 1742 
Q 1991 1309 1228 531 
z
" transform="scale(0.015625)"/>
       </defs>
       <use xlink:href="#DejaVuSans-30"/>
       <use xlink:href="#DejaVuSans-2e" x="63.623047"/>
       <use xlink:href="#DejaVuSans-32" x="95.410156"/>
       <use xlink:href="#DejaVuSans-30" x="159.033203"/>
      </g>
     </g>
    </g>
    <g id="xtick_6">
     <g id="line2d_6">
      <path d="M 372.529492 294.66 
L 372.529492 29.76 
" clip-path="url(#pc67572cd9e)" style="fill: none; stroke: #ffffff; stroke-linecap: round"/>
     </g>
     <g id="text_6">
      <!-- 0.25 -->
      <g style="fill: #262626" transform="translate(360.283398 312.518281)scale(0.11 -0.11)">
       <use xlink:href="#DejaVuSans-30"/>
       <use xlink:href="#DejaVuSans-2e" x="63.623047"/>
       <use xlink:href="#DejaVuSans-32" x="95.410156"/>
       <use xlink:href="#DejaVuSans-35" x="159.033203"/>
      </g>
     </g>
    </g>
    <g id="xtick_7">
     <g id="line2d_7">
      <path d="M 430.572273 294.66 
L 430.572273 29.76 
" clip-path="url(#pc67572cd9e)" style="fill: none; stroke: #ffffff; stroke-linecap: round"/>
     </g>
     <g id="text_7">
      <!-- 0.30 -->
      <g style="fill: #262626" transform="translate(418.326179 312.518281)scale(0.11 -0.11)">
       <defs>
        <path id="DejaVuSans-33" d="M 2597 2516 
Q 3050 2419 3304 2112 
Q 3559 1806 3559 1356 
Q 3559 666 3084 287 
Q 2609 -91 1734 -91 
Q 1441 -91 1130 -33 
Q 819 25 488 141 
L 488 750 
Q 750 597 1062 519 
Q 1375 441 1716 441 
Q 2309 441 2620 675 
Q 2931 909 2931 1356 
Q 2931 1769 2642 2001 
Q 2353 2234 1838 2234 
L 1294 2234 
L 1294 2753 
L 1863 2753 
Q 2328 2753 2575 2939 
Q 2822 3125 2822 3475 
Q 2822 3834 2567 4026 
Q 2313 4219 1838 4219 
Q 1578 4219 1281 4162 
Q 984 4106 628 3988 
L 628 4550 
Q 988 4650 1302 4700 
Q 1616 4750 1894 4750 
Q 2613 4750 3031 4423 
Q 3450 4097 3450 3541 
Q 3450 3153 3228 2886 
Q 3006 2619 2597 2516 
z
" transform="scale(0.015625)"/>
       </defs>
       <use xlink:href="#DejaVuSans-30"/>
       <use xlink:href="#DejaVuSans-2e" x="63.623047"/>
       <use xlink:href="#DejaVuSans-33" x="95.410156"/>
       <use xlink:href="#DejaVuSans-30" x="159.033203"/>
      </g>
     </g>
    </g>
    <g id="text_8">
     <!-- Timesteps (in Million) -->
     <g style="fill: #262626" transform="translate(183.149219 329.44375)scale(0.14 -0.14)">
      <defs>
       <path id="DejaVuSans-54" d="M -19 4666 
L 3928 4666 
L 3928 4134 
L 2272 4134 
L 2272 0 
L 1638 0 
L 1638 4134 
L -19 4134 
L -19 4666 
z
" transform="scale(0.015625)"/>
       <path id="DejaVuSans-69" d="M 603 3500 
L 1178 3500 
L 1178 0 
L 603 0 
L 603 3500 
z
M 603 4863 
L 1178 4863 
L 1178 4134 
L 603 4134 
L 603 4863 
z
" transform="scale(0.015625)"/>
       <path id="DejaVuSans-6d" d="M 3328 2828 
Q 3544 3216 3844 3400 
Q 4144 3584 4550 3584 
Q 5097 3584 5394 3201 
Q 5691 2819 5691 2113 
L 5691 0 
L 5113 0 
L 5113 2094 
Q 5113 2597 4934 2840 
Q 4756 3084 4391 3084 
Q 3944 3084 3684 2787 
Q 3425 2491 3425 1978 
L 3425 0 
L 2847 0 
L 2847 2094 
Q 2847 2600 2669 2842 
Q 2491 3084 2119 3084 
Q 1678 3084 1418 2786 
Q 1159 2488 1159 1978 
L 1159 0 
L 581 0 
L 581 3500 
L 1159 3500 
L 1159 2956 
Q 1356 3278 1631 3431 
Q 1906 3584 2284 3584 
Q 2666 3584 2933 3390 
Q 3200 3197 3328 2828 
z
" transform="scale(0.015625)"/>
       <path id="DejaVuSans-65" d="M 3597 1894 
L 3597 1613 
L 953 1613 
Q 991 1019 1311 708 
Q 1631 397 2203 397 
Q 2534 397 2845 478 
Q 3156 559 3463 722 
L 3463 178 
Q 3153 47 2828 -22 
Q 2503 -91 2169 -91 
Q 1331 -91 842 396 
Q 353 884 353 1716 
Q 353 2575 817 3079 
Q 1281 3584 2069 3584 
Q 2775 3584 3186 3129 
Q 3597 2675 3597 1894 
z
M 3022 2063 
Q 3016 2534 2758 2815 
Q 2500 3097 2075 3097 
Q 1594 3097 1305 2825 
Q 1016 2553 972 2059 
L 3022 2063 
z
" transform="scale(0.015625)"/>
       <path id="DejaVuSans-73" d="M 2834 3397 
L 2834 2853 
Q 2591 2978 2328 3040 
Q 2066 3103 1784 3103 
Q 1356 3103 1142 2972 
Q 928 2841 928 2578 
Q 928 2378 1081 2264 
Q 1234 2150 1697 2047 
L 1894 2003 
Q 2506 1872 2764 1633 
Q 3022 1394 3022 966 
Q 3022 478 2636 193 
Q 2250 -91 1575 -91 
Q 1294 -91 989 -36 
Q 684 19 347 128 
L 347 722 
Q 666 556 975 473 
Q 1284 391 1588 391 
Q 1994 391 2212 530 
Q 2431 669 2431 922 
Q 2431 1156 2273 1281 
Q 2116 1406 1581 1522 
L 1381 1569 
Q 847 1681 609 1914 
Q 372 2147 372 2553 
Q 372 3047 722 3315 
Q 1072 3584 1716 3584 
Q 2034 3584 2315 3537 
Q 2597 3491 2834 3397 
z
" transform="scale(0.015625)"/>
       <path id="DejaVuSans-74" d="M 1172 4494 
L 1172 3500 
L 2356 3500 
L 2356 3053 
L 1172 3053 
L 1172 1153 
Q 1172 725 1289 603 
Q 1406 481 1766 481 
L 2356 481 
L 2356 0 
L 1766 0 
Q 1100 0 847 248 
Q 594 497 594 1153 
L 594 3053 
L 172 3053 
L 172 3500 
L 594 3500 
L 594 4494 
L 1172 4494 
z
" transform="scale(0.015625)"/>
       <path id="DejaVuSans-70" d="M 1159 525 
L 1159 -1331 
L 581 -1331 
L 581 3500 
L 1159 3500 
L 1159 2969 
Q 1341 3281 1617 3432 
Q 1894 3584 2278 3584 
Q 2916 3584 3314 3078 
Q 3713 2572 3713 1747 
Q 3713 922 3314 415 
Q 2916 -91 2278 -91 
Q 1894 -91 1617 61 
Q 1341 213 1159 525 
z
M 3116 1747 
Q 3116 2381 2855 2742 
Q 2594 3103 2138 3103 
Q 1681 3103 1420 2742 
Q 1159 2381 1159 1747 
Q 1159 1113 1420 752 
Q 1681 391 2138 391 
Q 2594 391 2855 752 
Q 3116 1113 3116 1747 
z
" transform="scale(0.015625)"/>
       <path id="DejaVuSans-20" transform="scale(0.015625)"/>
       <path id="DejaVuSans-28" d="M 1984 4856 
Q 1566 4138 1362 3434 
Q 1159 2731 1159 2009 
Q 1159 1288 1364 580 
Q 1569 -128 1984 -844 
L 1484 -844 
Q 1016 -109 783 600 
Q 550 1309 550 2009 
Q 550 2706 781 3412 
Q 1013 4119 1484 4856 
L 1984 4856 
z
" transform="scale(0.015625)"/>
       <path id="DejaVuSans-6e" d="M 3513 2113 
L 3513 0 
L 2938 0 
L 2938 2094 
Q 2938 2591 2744 2837 
Q 2550 3084 2163 3084 
Q 1697 3084 1428 2787 
Q 1159 2491 1159 1978 
L 1159 0 
L 581 0 
L 581 3500 
L 1159 3500 
L 1159 2956 
Q 1366 3272 1645 3428 
Q 1925 3584 2291 3584 
Q 2894 3584 3203 3211 
Q 3513 2838 3513 2113 
z
" transform="scale(0.015625)"/>
       <path id="DejaVuSans-4d" d="M 628 4666 
L 1569 4666 
L 2759 1491 
L 3956 4666 
L 4897 4666 
L 4897 0 
L 4281 0 
L 4281 4097 
L 3078 897 
L 2444 897 
L 1241 4097 
L 1241 0 
L 628 0 
L 628 4666 
z
" transform="scale(0.015625)"/>
       <path id="DejaVuSans-6c" d="M 603 4863 
L 1178 4863 
L 1178 0 
L 603 0 
L 603 4863 
z
" transform="scale(0.015625)"/>
       <path id="DejaVuSans-6f" d="M 1959 3097 
Q 1497 3097 1228 2736 
Q 959 2375 959 1747 
Q 959 1119 1226 758 
Q 1494 397 1959 397 
Q 2419 397 2687 759 
Q 2956 1122 2956 1747 
Q 2956 2369 2687 2733 
Q 2419 3097 1959 3097 
z
M 1959 3584 
Q 2709 3584 3137 3096 
Q 3566 2609 3566 1747 
Q 3566 888 3137 398 
Q 2709 -91 1959 -91 
Q 1206 -91 779 398 
Q 353 888 353 1747 
Q 353 2609 779 3096 
Q 1206 3584 1959 3584 
z
" transform="scale(0.015625)"/>
       <path id="DejaVuSans-29" d="M 513 4856 
L 1013 4856 
Q 1481 4119 1714 3412 
Q 1947 2706 1947 2009 
Q 1947 1309 1714 600 
Q 1481 -109 1013 -844 
L 513 -844 
Q 928 -128 1133 580 
Q 1338 1288 1338 2009 
Q 1338 2731 1133 3434 
Q 928 4138 513 4856 
z
" transform="scale(0.015625)"/>
      </defs>
      <use xlink:href="#DejaVuSans-54"/>
      <use xlink:href="#DejaVuSans-69" x="57.958984"/>
      <use xlink:href="#DejaVuSans-6d" x="85.742188"/>
      <use xlink:href="#DejaVuSans-65" x="183.154297"/>
      <use xlink:href="#DejaVuSans-73" x="244.677734"/>
      <use xlink:href="#DejaVuSans-74" x="296.777344"/>
      <use xlink:href="#DejaVuSans-65" x="335.986328"/>
      <use xlink:href="#DejaVuSans-70" x="397.509766"/>
      <use xlink:href="#DejaVuSans-73" x="460.986328"/>
      <use xlink:href="#DejaVuSans-20" x="513.085938"/>
      <use xlink:href="#DejaVuSans-28" x="544.873047"/>
      <use xlink:href="#DejaVuSans-69" x="583.886719"/>
      <use xlink:href="#DejaVuSans-6e" x="611.669922"/>
      <use xlink:href="#DejaVuSans-20" x="675.048828"/>
      <use xlink:href="#DejaVuSans-4d" x="706.835938"/>
      <use xlink:href="#DejaVuSans-69" x="793.115234"/>
      <use xlink:href="#DejaVuSans-6c" x="820.898438"/>
      <use xlink:href="#DejaVuSans-6c" x="848.681641"/>
      <use xlink:href="#DejaVuSans-69" x="876.464844"/>
      <use xlink:href="#DejaVuSans-6f" x="904.248047"/>
      <use xlink:href="#DejaVuSans-6e" x="965.429688"/>
      <use xlink:href="#DejaVuSans-29" x="1028.808594"/>
     </g>
    </g>
   </g>
   <g id="matplotlib.axis_2">
    <g id="ytick_1">
     <g id="line2d_8">
      <path d="M 67.95 282.641447 
L 447.84 282.641447 
" clip-path="url(#pc67572cd9e)" style="fill: none; stroke: #ffffff; stroke-linecap: round"/>
     </g>
     <g id="text_9">
      <!-- 0 -->
      <g style="fill: #262626" transform="translate(51.45125 286.820588)scale(0.11 -0.11)">
       <use xlink:href="#DejaVuSans-30"/>
      </g>
     </g>
    </g>
    <g id="ytick_2">
     <g id="line2d_9">
      <path d="M 67.95 241.940783 
L 447.84 241.940783 
" clip-path="url(#pc67572cd9e)" style="fill: none; stroke: #ffffff; stroke-linecap: round"/>
     </g>
     <g id="text_10">
      <!-- 1000 -->
      <g style="fill: #262626" transform="translate(30.455 246.119924)scale(0.11 -0.11)">
       <use xlink:href="#DejaVuSans-31"/>
       <use xlink:href="#DejaVuSans-30" x="63.623047"/>
       <use xlink:href="#DejaVuSans-30" x="127.246094"/>
       <use xlink:href="#DejaVuSans-30" x="190.869141"/>
      </g>
     </g>
    </g>
    <g id="ytick_3">
     <g id="line2d_10">
      <path d="M 67.95 201.240119 
L 447.84 201.240119 
" clip-path="url(#pc67572cd9e)" style="fill: none; stroke: #ffffff; stroke-linecap: round"/>
     </g>
     <g id="text_11">
      <!-- 2000 -->
      <g style="fill: #262626" transform="translate(30.455 205.41926)scale(0.11 -0.11)">
       <use xlink:href="#DejaVuSans-32"/>
       <use xlink:href="#DejaVuSans-30" x="63.623047"/>
       <use xlink:href="#DejaVuSans-30" x="127.246094"/>
       <use xlink:href="#DejaVuSans-30" x="190.869141"/>
      </g>
     </g>
    </g>
    <g id="ytick_4">
     <g id="line2d_11">
      <path d="M 67.95 160.539455 
L 447.84 160.539455 
" clip-path="url(#pc67572cd9e)" style="fill: none; stroke: #ffffff; stroke-linecap: round"/>
     </g>
     <g id="text_12">
      <!-- 3000 -->
      <g style="fill: #262626" transform="translate(30.455 164.718596)scale(0.11 -0.11)">
       <use xlink:href="#DejaVuSans-33"/>
       <use xlink:href="#DejaVuSans-30" x="63.623047"/>
       <use xlink:href="#DejaVuSans-30" x="127.246094"/>
       <use xlink:href="#DejaVuSans-30" x="190.869141"/>
      </g>
     </g>
    </g>
    <g id="ytick_5">
     <g id="line2d_12">
      <path d="M 67.95 119.838791 
L 447.84 119.838791 
" clip-path="url(#pc67572cd9e)" style="fill: none; stroke: #ffffff; stroke-linecap: round"/>
     </g>
     <g id="text_13">
      <!-- 4000 -->
      <g style="fill: #262626" transform="translate(30.455 124.017932)scale(0.11 -0.11)">
       <defs>
        <path id="DejaVuSans-34" d="M 2419 4116 
L 825 1625 
L 2419 1625 
L 2419 4116 
z
M 2253 4666 
L 3047 4666 
L 3047 1625 
L 3713 1625 
L 3713 1100 
L 3047 1100 
L 3047 0 
L 2419 0 
L 2419 1100 
L 313 1100 
L 313 1709 
L 2253 4666 
z
" transform="scale(0.015625)"/>
       </defs>
       <use xlink:href="#DejaVuSans-34"/>
       <use xlink:href="#DejaVuSans-30" x="63.623047"/>
       <use xlink:href="#DejaVuSans-30" x="127.246094"/>
       <use xlink:href="#DejaVuSans-30" x="190.869141"/>
      </g>
     </g>
    </g>
    <g id="ytick_6">
     <g id="line2d_13">
      <path d="M 67.95 79.138127 
L 447.84 79.138127 
" clip-path="url(#pc67572cd9e)" style="fill: none; stroke: #ffffff; stroke-linecap: round"/>
     </g>
     <g id="text_14">
      <!-- 5000 -->
      <g style="fill: #262626" transform="translate(30.455 83.317268)scale(0.11 -0.11)">
       <use xlink:href="#DejaVuSans-35"/>
       <use xlink:href="#DejaVuSans-30" x="63.623047"/>
       <use xlink:href="#DejaVuSans-30" x="127.246094"/>
       <use xlink:href="#DejaVuSans-30" x="190.869141"/>
      </g>
     </g>
    </g>
    <g id="ytick_7">
     <g id="line2d_14">
      <path d="M 67.95 38.437463 
L 447.84 38.437463 
" clip-path="url(#pc67572cd9e)" style="fill: none; stroke: #ffffff; stroke-linecap: round"/>
     </g>
     <g id="text_15">
      <!-- 6000 -->
      <g style="fill: #262626" transform="translate(30.455 42.616603)scale(0.11 -0.11)">
       <defs>
        <path id="DejaVuSans-36" d="M 2113 2584 
Q 1688 2584 1439 2293 
Q 1191 2003 1191 1497 
Q 1191 994 1439 701 
Q 1688 409 2113 409 
Q 2538 409 2786 701 
Q 3034 994 3034 1497 
Q 3034 2003 2786 2293 
Q 2538 2584 2113 2584 
z
M 3366 4563 
L 3366 3988 
Q 3128 4100 2886 4159 
Q 2644 4219 2406 4219 
Q 1781 4219 1451 3797 
Q 1122 3375 1075 2522 
Q 1259 2794 1537 2939 
Q 1816 3084 2150 3084 
Q 2853 3084 3261 2657 
Q 3669 2231 3669 1497 
Q 3669 778 3244 343 
Q 2819 -91 2113 -91 
Q 1303 -91 875 529 
Q 447 1150 447 2328 
Q 447 3434 972 4092 
Q 1497 4750 2381 4750 
Q 2619 4750 2861 4703 
Q 3103 4656 3366 4563 
z
" transform="scale(0.015625)"/>
       </defs>
       <use xlink:href="#DejaVuSans-36"/>
       <use xlink:href="#DejaVuSans-30" x="63.623047"/>
       <use xlink:href="#DejaVuSans-30" x="127.246094"/>
       <use xlink:href="#DejaVuSans-30" x="190.869141"/>
      </g>
     </g>
    </g>
    <g id="text_16">
     <!-- Traintime -->
     <g style="fill: #262626" transform="translate(23.543437 194.815781)rotate(-90)scale(0.14 -0.14)">
      <defs>
       <path id="DejaVuSans-72" d="M 2631 2963 
Q 2534 3019 2420 3045 
Q 2306 3072 2169 3072 
Q 1681 3072 1420 2755 
Q 1159 2438 1159 1844 
L 1159 0 
L 581 0 
L 581 3500 
L 1159 3500 
L 1159 2956 
Q 1341 3275 1631 3429 
Q 1922 3584 2338 3584 
Q 2397 3584 2469 3576 
Q 2541 3569 2628 3553 
L 2631 2963 
z
" transform="scale(0.015625)"/>
       <path id="DejaVuSans-61" d="M 2194 1759 
Q 1497 1759 1228 1600 
Q 959 1441 959 1056 
Q 959 750 1161 570 
Q 1363 391 1709 391 
Q 2188 391 2477 730 
Q 2766 1069 2766 1631 
L 2766 1759 
L 2194 1759 
z
M 3341 1997 
L 3341 0 
L 2766 0 
L 2766 531 
Q 2569 213 2275 61 
Q 1981 -91 1556 -91 
Q 1019 -91 701 211 
Q 384 513 384 1019 
Q 384 1609 779 1909 
Q 1175 2209 1959 2209 
L 2766 2209 
L 2766 2266 
Q 2766 2663 2505 2880 
Q 2244 3097 1772 3097 
Q 1472 3097 1187 3025 
Q 903 2953 641 2809 
L 641 3341 
Q 956 3463 1253 3523 
Q 1550 3584 1831 3584 
Q 2591 3584 2966 3190 
Q 3341 2797 3341 1997 
z
" transform="scale(0.015625)"/>
      </defs>
      <use xlink:href="#DejaVuSans-54"/>
      <use xlink:href="#DejaVuSans-72" x="46.333984"/>
      <use xlink:href="#DejaVuSans-61" x="87.447266"/>
      <use xlink:href="#DejaVuSans-69" x="148.726562"/>
      <use xlink:href="#DejaVuSans-6e" x="176.509766"/>
      <use xlink:href="#DejaVuSans-74" x="239.888672"/>
      <use xlink:href="#DejaVuSans-69" x="279.097656"/>
      <use xlink:href="#DejaVuSans-6d" x="306.880859"/>
      <use xlink:href="#DejaVuSans-65" x="404.292969"/>
     </g>
    </g>
   </g>
   <g id="PolyCollection_1">
    <defs>
     <path id="mf63ec12a01" d="M 85.217727 -62.980909 
L 85.217727 -62.982285 
L 88.119866 -63.007172 
L 91.022005 -63.031189 
L 93.924144 -63.054034 
L 96.826283 -63.253014 
L 99.728422 -63.455012 
L 102.630561 -63.652271 
L 105.532701 -63.851803 
L 108.43484 -64.053374 
L 111.336979 -64.256098 
L 114.239118 -64.453829 
L 117.141257 -64.653884 
L 120.043396 -64.855982 
L 122.945535 -65.051111 
L 125.847674 -65.247664 
L 128.749813 -65.44929 
L 131.651952 -65.655408 
L 134.554091 -65.848336 
L 137.45623 -66.047823 
L 140.358369 -66.250498 
L 143.260508 -66.446981 
L 146.162647 -66.645423 
L 149.064786 -66.848212 
L 151.966925 -67.046336 
L 154.869064 -67.248386 
L 157.771203 -67.445878 
L 160.673342 -67.647597 
L 163.575481 -67.843183 
L 166.47762 -68.040523 
L 169.379759 -68.238873 
L 172.281898 -68.443104 
L 175.184037 -68.648351 
L 178.086176 -68.847771 
L 180.988316 -69.044334 
L 183.890455 -69.243529 
L 186.792594 -69.450786 
L 189.694733 -69.657439 
L 192.596872 -69.858783 
L 195.499011 -70.059491 
L 198.40115 -70.257963 
L 201.303289 -70.462826 
L 204.205428 -70.658685 
L 207.107567 -70.855598 
L 210.009706 -71.05449 
L 212.911845 -71.25328 
L 215.813984 -71.453931 
L 218.716123 -71.652752 
L 221.618262 -71.850403 
L 224.520401 -72.053203 
L 227.42254 -72.252489 
L 230.324679 -72.45503 
L 233.226818 -72.653456 
L 236.128957 -72.852608 
L 239.031096 -73.051999 
L 241.933235 -73.255203 
L 244.835374 -73.453428 
L 247.737513 -73.645995 
L 250.639652 -73.843686 
L 253.541791 -74.041877 
L 256.44393 -74.239698 
L 259.34607 -74.433843 
L 262.248209 -74.638494 
L 265.150348 -74.833007 
L 268.052487 -75.035772 
L 270.954626 -75.22986 
L 273.856765 -75.431763 
L 276.758904 -75.630145 
L 279.661043 -75.831215 
L 282.563182 -76.029915 
L 285.465321 -76.219671 
L 288.36746 -76.409582 
L 291.269599 -76.610947 
L 294.171738 -76.807287 
L 297.073877 -77.00478 
L 299.976016 -77.197617 
L 302.878155 -77.395703 
L 305.780294 -77.593792 
L 308.682433 -77.789808 
L 311.584572 -77.990745 
L 314.486711 -78.18647 
L 317.38885 -78.381633 
L 320.290989 -78.573594 
L 323.193128 -78.778731 
L 326.095267 -78.975319 
L 328.997406 -79.175424 
L 331.899545 -79.372088 
L 334.801684 -79.568561 
L 337.703824 -79.767277 
L 340.605963 -79.96568 
L 343.508102 -80.163175 
L 346.410241 -80.363572 
L 349.31238 -80.56102 
L 352.214519 -80.757178 
L 355.116658 -80.963192 
L 358.018797 -81.158688 
L 360.920936 -81.349919 
L 363.823075 -81.544185 
L 366.725214 -81.74151 
L 369.627353 -81.938715 
L 372.529492 -82.131033 
L 375.431631 -82.327321 
L 378.33377 -82.524026 
L 381.235909 -82.717736 
L 384.138048 -82.915302 
L 387.040187 -83.112134 
L 389.942326 -83.305657 
L 392.844465 -83.5007 
L 395.746604 -83.694784 
L 398.648743 -83.89156 
L 401.550882 -84.088516 
L 404.453021 -84.292117 
L 407.35516 -84.491757 
L 410.257299 -84.680393 
L 413.159439 -84.875166 
L 416.061578 -85.071798 
L 418.963717 -85.268835 
L 421.865856 -85.462984 
L 424.767995 -85.658736 
L 427.670134 -85.858785 
L 430.572273 -86.058166 
L 430.572273 -85.387819 
L 430.572273 -85.387819 
L 427.670134 -85.199397 
L 424.767995 -85.009093 
L 421.865856 -84.816712 
L 418.963717 -84.624202 
L 416.061578 -84.434039 
L 413.159439 -84.241273 
L 410.257299 -84.049926 
L 407.35516 -83.856301 
L 404.453021 -83.669606 
L 401.550882 -83.48379 
L 398.648743 -83.293673 
L 395.746604 -83.102664 
L 392.844465 -82.906465 
L 389.942326 -82.711864 
L 387.040187 -82.521748 
L 384.138048 -82.330059 
L 381.235909 -82.139773 
L 378.33377 -81.94771 
L 375.431631 -81.755627 
L 372.529492 -81.562542 
L 369.627353 -81.369459 
L 366.725214 -81.172776 
L 363.823075 -80.980981 
L 360.920936 -80.790108 
L 358.018797 -80.596377 
L 355.116658 -80.405977 
L 352.214519 -80.217385 
L 349.31238 -80.026514 
L 346.410241 -79.834472 
L 343.508102 -79.635846 
L 340.605963 -79.448726 
L 337.703824 -79.257167 
L 334.801684 -79.062072 
L 331.899545 -78.869665 
L 328.997406 -78.677525 
L 326.095267 -78.486278 
L 323.193128 -78.295045 
L 320.290989 -78.098411 
L 317.38885 -77.902598 
L 314.486711 -77.715191 
L 311.584572 -77.523277 
L 308.682433 -77.330797 
L 305.780294 -77.140393 
L 302.878155 -76.947239 
L 299.976016 -76.751938 
L 297.073877 -76.560491 
L 294.171738 -76.359368 
L 291.269599 -76.16751 
L 288.36746 -75.975626 
L 285.465321 -75.781094 
L 282.563182 -75.587595 
L 279.661043 -75.396844 
L 276.758904 -75.199359 
L 273.856765 -75.00181 
L 270.954626 -74.809188 
L 268.052487 -74.617986 
L 265.150348 -74.425439 
L 262.248209 -74.233822 
L 259.34607 -74.042024 
L 256.44393 -73.850621 
L 253.541791 -73.655543 
L 250.639652 -73.461717 
L 247.737513 -73.267655 
L 244.835374 -73.07081 
L 241.933235 -72.877135 
L 239.031096 -72.688025 
L 236.128957 -72.498503 
L 233.226818 -72.311307 
L 230.324679 -72.112572 
L 227.42254 -71.921767 
L 224.520401 -71.730499 
L 221.618262 -71.536036 
L 218.716123 -71.345875 
L 215.813984 -71.15343 
L 212.911845 -70.958639 
L 210.009706 -70.767551 
L 207.107567 -70.575885 
L 204.205428 -70.385421 
L 201.303289 -70.193097 
L 198.40115 -70.000155 
L 195.499011 -69.801552 
L 192.596872 -69.609692 
L 189.694733 -69.418415 
L 186.792594 -69.226429 
L 183.890455 -69.032575 
L 180.988316 -68.845824 
L 178.086176 -68.649959 
L 175.184037 -68.462032 
L 172.281898 -68.268914 
L 169.379759 -68.075259 
L 166.47762 -67.88186 
L 163.575481 -67.691046 
L 160.673342 -67.502104 
L 157.771203 -67.310304 
L 154.869064 -67.118385 
L 151.966925 -66.928475 
L 149.064786 -66.736932 
L 146.162647 -66.541578 
L 143.260508 -66.346675 
L 140.358369 -66.156109 
L 137.45623 -65.963906 
L 134.554091 -65.77123 
L 131.651952 -65.580321 
L 128.749813 -65.384667 
L 125.847674 -65.196582 
L 122.945535 -65.008657 
L 120.043396 -64.816601 
L 117.141257 -64.621298 
L 114.239118 -64.425259 
L 111.336979 -64.229574 
L 108.43484 -64.033984 
L 105.532701 -63.841243 
L 102.630561 -63.641655 
L 99.728422 -63.44489 
L 96.826283 -63.247573 
L 93.924144 -63.049624 
L 91.022005 -63.025786 
L 88.119866 -63.003195 
L 85.217727 -62.980909 
z
" style="stroke: #ffffff; stroke-opacity: 0.5"/>
    </defs>
    <g clip-path="url(#pc67572cd9e)">
     <use xlink:href="#mf63ec12a01" x="0" y="345.6" style="fill: #4c72b0; fill-opacity: 0.5; stroke: #ffffff; stroke-opacity: 0.5"/>
    </g>
   </g>
   <g id="PolyCollection_2">
    <defs>
     <path id="mc6cb6800da" d="M 85.217727 -62.981493 
L 85.217727 -62.982248 
L 88.119866 -63.006049 
L 91.022005 -63.029656 
L 93.924144 -63.05386 
L 96.826283 -63.523336 
L 99.728422 -63.982626 
L 102.630561 -64.447537 
L 105.532701 -64.911192 
L 108.43484 -65.373333 
L 111.336979 -65.841132 
L 114.239118 -66.303333 
L 117.141257 -66.771364 
L 120.043396 -67.234146 
L 122.945535 -67.702974 
L 125.847674 -68.160318 
L 128.749813 -68.623256 
L 131.651952 -69.092368 
L 134.554091 -69.557287 
L 137.45623 -70.01287 
L 140.358369 -70.474633 
L 143.260508 -70.935485 
L 146.162647 -71.410242 
L 149.064786 -71.86682 
L 151.966925 -72.326361 
L 154.869064 -72.782032 
L 157.771203 -73.23753 
L 160.673342 -73.687368 
L 163.575481 -74.149653 
L 166.47762 -74.611608 
L 169.379759 -75.077347 
L 172.281898 -75.547466 
L 175.184037 -76.004781 
L 178.086176 -76.469653 
L 180.988316 -76.932945 
L 183.890455 -77.382804 
L 186.792594 -77.850936 
L 189.694733 -78.319584 
L 192.596872 -78.782673 
L 195.499011 -79.232397 
L 198.40115 -79.690498 
L 201.303289 -80.15162 
L 204.205428 -80.618398 
L 207.107567 -81.085983 
L 210.009706 -81.559336 
L 212.911845 -82.01716 
L 215.813984 -82.474628 
L 218.716123 -82.933463 
L 221.618262 -83.393329 
L 224.520401 -83.864252 
L 227.42254 -84.330239 
L 230.324679 -84.788654 
L 233.226818 -85.255742 
L 236.128957 -85.721943 
L 239.031096 -86.175206 
L 241.933235 -86.64585 
L 244.835374 -87.104803 
L 247.737513 -87.568584 
L 250.639652 -88.032813 
L 253.541791 -88.493107 
L 256.44393 -88.95311 
L 259.34607 -89.415877 
L 262.248209 -89.885783 
L 265.150348 -90.351432 
L 268.052487 -90.808179 
L 270.954626 -91.273372 
L 273.856765 -91.730581 
L 276.758904 -92.191335 
L 279.661043 -92.650731 
L 282.563182 -93.109934 
L 285.465321 -93.56951 
L 288.36746 -94.027515 
L 291.269599 -94.484942 
L 294.171738 -94.940402 
L 297.073877 -95.402583 
L 299.976016 -95.854662 
L 302.878155 -96.322228 
L 305.780294 -96.783534 
L 308.682433 -97.244901 
L 311.584572 -97.712181 
L 314.486711 -98.17354 
L 317.38885 -98.637454 
L 320.290989 -99.099304 
L 323.193128 -99.565593 
L 326.095267 -100.036688 
L 328.997406 -100.496045 
L 331.899545 -100.965939 
L 334.801684 -101.437503 
L 337.703824 -101.905666 
L 340.605963 -102.369105 
L 343.508102 -102.830744 
L 346.410241 -103.296195 
L 349.31238 -103.751929 
L 352.214519 -104.217328 
L 355.116658 -104.672483 
L 358.018797 -105.127247 
L 360.920936 -105.580231 
L 363.823075 -106.044048 
L 366.725214 -106.511256 
L 369.627353 -106.975568 
L 372.529492 -107.439036 
L 375.431631 -107.908336 
L 378.33377 -108.364551 
L 381.235909 -108.826976 
L 384.138048 -109.286775 
L 387.040187 -109.73814 
L 389.942326 -110.200419 
L 392.844465 -110.656101 
L 395.746604 -111.117177 
L 398.648743 -111.578985 
L 401.550882 -112.028617 
L 404.453021 -112.485832 
L 407.35516 -112.933759 
L 410.257299 -113.396461 
L 413.159439 -113.853001 
L 416.061578 -114.309834 
L 418.963717 -114.768464 
L 421.865856 -115.230112 
L 424.767995 -115.687674 
L 427.670134 -116.138026 
L 430.572273 -116.600189 
L 430.572273 -115.746013 
L 430.572273 -115.746013 
L 427.670134 -115.294709 
L 424.767995 -114.845693 
L 421.865856 -114.383962 
L 418.963717 -113.925088 
L 416.061578 -113.475193 
L 413.159439 -113.02026 
L 410.257299 -112.573783 
L 407.35516 -112.120113 
L 404.453021 -111.657403 
L 401.550882 -111.196973 
L 398.648743 -110.745078 
L 395.746604 -110.295469 
L 392.844465 -109.85073 
L 389.942326 -109.404299 
L 387.040187 -108.958127 
L 384.138048 -108.509341 
L 381.235909 -108.058873 
L 378.33377 -107.606264 
L 375.431631 -107.158731 
L 372.529492 -106.711902 
L 369.627353 -106.248019 
L 366.725214 -105.800649 
L 363.823075 -105.340464 
L 360.920936 -104.896555 
L 358.018797 -104.441396 
L 355.116658 -103.987306 
L 352.214519 -103.540626 
L 349.31238 -103.081578 
L 346.410241 -102.620968 
L 343.508102 -102.166299 
L 340.605963 -101.706379 
L 337.703824 -101.2586 
L 334.801684 -100.805316 
L 331.899545 -100.358762 
L 328.997406 -99.912587 
L 326.095267 -99.459584 
L 323.193128 -99.003648 
L 320.290989 -98.547979 
L 317.38885 -98.092047 
L 314.486711 -97.641964 
L 311.584572 -97.193925 
L 308.682433 -96.740539 
L 305.780294 -96.280865 
L 302.878155 -95.812341 
L 299.976016 -95.353379 
L 297.073877 -94.890322 
L 294.171738 -94.437806 
L 291.269599 -93.977472 
L 288.36746 -93.506807 
L 285.465321 -93.042541 
L 282.563182 -92.593652 
L 279.661043 -92.144021 
L 276.758904 -91.695475 
L 273.856765 -91.240269 
L 270.954626 -90.788227 
L 268.052487 -90.333715 
L 265.150348 -89.8738 
L 262.248209 -89.419183 
L 259.34607 -88.958846 
L 256.44393 -88.50345 
L 253.541791 -88.045774 
L 250.639652 -87.588521 
L 247.737513 -87.120077 
L 244.835374 -86.642774 
L 241.933235 -86.17008 
L 239.031096 -85.69641 
L 236.128957 -85.243287 
L 233.226818 -84.797379 
L 230.324679 -84.355273 
L 227.42254 -83.902436 
L 224.520401 -83.452052 
L 221.618262 -82.995774 
L 218.716123 -82.52765 
L 215.813984 -82.072195 
L 212.911845 -81.615728 
L 210.009706 -81.164839 
L 207.107567 -80.713872 
L 204.205428 -80.254869 
L 201.303289 -79.805279 
L 198.40115 -79.35629 
L 195.499011 -78.908257 
L 192.596872 -78.4559 
L 189.694733 -78.004907 
L 186.792594 -77.548605 
L 183.890455 -77.09443 
L 180.988316 -76.634635 
L 178.086176 -76.16888 
L 175.184037 -75.730202 
L 172.281898 -75.294401 
L 169.379759 -74.852647 
L 166.47762 -74.402733 
L 163.575481 -73.94597 
L 160.673342 -73.494352 
L 157.771203 -73.037474 
L 154.869064 -72.595562 
L 151.966925 -72.141833 
L 149.064786 -71.682967 
L 146.162647 -71.236169 
L 143.260508 -70.791591 
L 140.358369 -70.337279 
L 137.45623 -69.881535 
L 134.554091 -69.427603 
L 131.651952 -68.974575 
L 128.749813 -68.520422 
L 125.847674 -68.064269 
L 122.945535 -67.605092 
L 120.043396 -67.15707 
L 117.141257 -66.704382 
L 114.239118 -66.242544 
L 111.336979 -65.793411 
L 108.43484 -65.33212 
L 105.532701 -64.879643 
L 102.630561 -64.420312 
L 99.728422 -63.961379 
L 96.826283 -63.502467 
L 93.924144 -63.051047 
L 91.022005 -63.0281 
L 88.119866 -63.004948 
L 85.217727 -62.981493 
z
" style="stroke: #ffffff; stroke-opacity: 0.5"/>
    </defs>
    <g clip-path="url(#pc67572cd9e)">
     <use xlink:href="#mc6cb6800da" x="0" y="345.6" style="fill: #dd8452; fill-opacity: 0.5; stroke: #ffffff; stroke-opacity: 0.5"/>
    </g>
   </g>
   <g id="PolyCollection_3">
    <defs>
     <path id="mfa5e39076b" d="M 85.217727 -63.029063 
L 85.217727 -63.029901 
L 88.119866 -63.109493 
L 91.022005 -63.191339 
L 93.924144 -63.272066 
L 96.826283 -65.362708 
L 99.728422 -67.50443 
L 102.630561 -69.631366 
L 105.532701 -71.788149 
L 108.43484 -73.913952 
L 111.336979 -76.069467 
L 114.239118 -78.248346 
L 117.141257 -80.417631 
L 120.043396 -82.474938 
L 122.945535 -84.576323 
L 125.847674 -86.68395 
L 128.749813 -88.817245 
L 131.651952 -90.966865 
L 134.554091 -93.110839 
L 137.45623 -95.199848 
L 140.358369 -97.260921 
L 143.260508 -99.322813 
L 146.162647 -101.397403 
L 149.064786 -103.474473 
L 151.966925 -105.520608 
L 154.869064 -107.515958 
L 157.771203 -109.550835 
L 160.673342 -111.584309 
L 163.575481 -113.622838 
L 166.47762 -115.672037 
L 169.379759 -117.716408 
L 172.281898 -119.769403 
L 175.184037 -121.830467 
L 178.086176 -123.889512 
L 180.988316 -125.947183 
L 183.890455 -128.009365 
L 186.792594 -130.116374 
L 189.694733 -132.125257 
L 192.596872 -134.151805 
L 195.499011 -136.195771 
L 198.40115 -138.270027 
L 201.303289 -140.324337 
L 204.205428 -142.387725 
L 207.107567 -144.445302 
L 210.009706 -146.509859 
L 212.911845 -148.589788 
L 215.813984 -150.678522 
L 218.716123 -152.783717 
L 221.618262 -154.871313 
L 224.520401 -156.871409 
L 227.42254 -158.920271 
L 230.324679 -160.972412 
L 233.226818 -163.03133 
L 236.128957 -165.087906 
L 239.031096 -167.15778 
L 241.933235 -169.215881 
L 244.835374 -171.284835 
L 247.737513 -173.371556 
L 250.639652 -175.471339 
L 253.541791 -177.551517 
L 256.44393 -179.649508 
L 259.34607 -181.651248 
L 262.248209 -183.680798 
L 265.150348 -185.720784 
L 268.052487 -187.776749 
L 270.954626 -189.849676 
L 273.856765 -191.920646 
L 276.758904 -194.000427 
L 279.661043 -196.096311 
L 282.563182 -198.172833 
L 285.465321 -200.262068 
L 288.36746 -202.344579 
L 291.269599 -204.436121 
L 294.171738 -206.441518 
L 297.073877 -208.475422 
L 299.976016 -210.519878 
L 302.878155 -212.587926 
L 305.780294 -214.66957 
L 308.682433 -216.753083 
L 311.584572 -218.843558 
L 314.486711 -220.934181 
L 317.38885 -222.98055 
L 320.290989 -225.071639 
L 323.193128 -227.164959 
L 326.095267 -229.262899 
L 328.997406 -231.276851 
L 331.899545 -233.317557 
L 334.801684 -235.359937 
L 337.703824 -237.437288 
L 340.605963 -239.51772 
L 343.508102 -241.589751 
L 346.410241 -243.677856 
L 349.31238 -245.765134 
L 352.214519 -247.838976 
L 355.116658 -249.902123 
L 358.018797 -251.997201 
L 360.920936 -254.092989 
L 363.823075 -256.102008 
L 366.725214 -258.142187 
L 369.627353 -260.199839 
L 372.529492 -262.262079 
L 375.431631 -264.346623 
L 378.33377 -266.434613 
L 381.235909 -268.519425 
L 384.138048 -270.603919 
L 387.040187 -272.68273 
L 389.942326 -274.76299 
L 392.844465 -276.842849 
L 395.746604 -278.934488 
L 398.648743 -280.964989 
L 401.550882 -283.017854 
L 404.453021 -285.074798 
L 407.35516 -287.147697 
L 410.257299 -289.206113 
L 413.159439 -291.284764 
L 416.061578 -293.364593 
L 418.963717 -295.44431 
L 421.865856 -297.510407 
L 424.767995 -299.619538 
L 427.670134 -301.708889 
L 430.572273 -303.799091 
L 430.572273 -302.95293 
L 430.572273 -302.95293 
L 427.670134 -300.86346 
L 424.767995 -298.776791 
L 421.865856 -296.69466 
L 418.963717 -294.611954 
L 416.061578 -292.515789 
L 413.159439 -290.443119 
L 410.257299 -288.362134 
L 407.35516 -286.305543 
L 404.453021 -284.251458 
L 401.550882 -282.193965 
L 398.648743 -280.165126 
L 395.746604 -278.157824 
L 392.844465 -276.063226 
L 389.942326 -274.00236 
L 387.040187 -271.915782 
L 384.138048 -269.844376 
L 381.235909 -267.767366 
L 378.33377 -265.701257 
L 375.431631 -263.633318 
L 372.529492 -261.566713 
L 369.627353 -259.535572 
L 366.725214 -257.499404 
L 363.823075 -255.455012 
L 360.920936 -253.438678 
L 358.018797 -251.352493 
L 355.116658 -249.269966 
L 352.214519 -247.192628 
L 349.31238 -245.111305 
L 346.410241 -243.02896 
L 343.508102 -240.945003 
L 340.605963 -238.878984 
L 337.703824 -236.803398 
L 334.801684 -234.751779 
L 331.899545 -232.700533 
L 328.997406 -230.675537 
L 326.095267 -228.664556 
L 323.193128 -226.549735 
L 320.290989 -224.443782 
L 317.38885 -222.351239 
L 314.486711 -220.280665 
L 311.584572 -218.195027 
L 308.682433 -216.120413 
L 305.780294 -214.043405 
L 302.878155 -211.991088 
L 299.976016 -209.93019 
L 297.073877 -207.88739 
L 294.171738 -205.854252 
L 291.269599 -203.858653 
L 288.36746 -201.771042 
L 285.465321 -199.684725 
L 282.563182 -197.603778 
L 279.661043 -195.543913 
L 276.758904 -193.484626 
L 273.856765 -191.423646 
L 270.954626 -189.335862 
L 268.052487 -187.264112 
L 265.150348 -185.20455 
L 262.248209 -183.147631 
L 259.34607 -181.093809 
L 256.44393 -179.098176 
L 253.541791 -177.010979 
L 250.639652 -174.93535 
L 247.737513 -172.861224 
L 244.835374 -170.775869 
L 241.933235 -168.6928 
L 239.031096 -166.597083 
L 236.128957 -164.520683 
L 233.226818 -162.479452 
L 230.324679 -160.419912 
L 227.42254 -158.3517 
L 224.520401 -156.290404 
L 221.618262 -154.261117 
L 218.716123 -152.188024 
L 215.813984 -150.124087 
L 212.911845 -148.056474 
L 210.009706 -145.985259 
L 207.107567 -143.911692 
L 204.205428 -141.871587 
L 201.303289 -139.79547 
L 198.40115 -137.727714 
L 195.499011 -135.681998 
L 192.596872 -133.61144 
L 189.694733 -131.561745 
L 186.792594 -129.537859 
L 183.890455 -127.4354 
L 180.988316 -125.354282 
L 178.086176 -123.25638 
L 175.184037 -121.188963 
L 172.281898 -119.105473 
L 169.379759 -117.027079 
L 166.47762 -114.930986 
L 163.575481 -112.888925 
L 160.673342 -110.825839 
L 157.771203 -108.787166 
L 154.869064 -106.750501 
L 151.966925 -104.761217 
L 149.064786 -102.670925 
L 146.162647 -100.596118 
L 143.260508 -98.502946 
L 140.358369 -96.430147 
L 137.45623 -94.341853 
L 134.554091 -92.272254 
L 131.651952 -90.188412 
L 128.749813 -88.142973 
L 125.847674 -86.080805 
L 122.945535 -84.044251 
L 120.043396 -82.028439 
L 117.141257 -80.019771 
L 114.239118 -77.935727 
L 111.336979 -75.867851 
L 108.43484 -73.812468 
L 105.532701 -71.74873 
L 102.630561 -69.601044 
L 99.728422 -67.469629 
L 96.826283 -65.342914 
L 93.924144 -63.271417 
L 91.022005 -63.189509 
L 88.119866 -63.108919 
L 85.217727 -63.029063 
z
" style="stroke: #ffffff; stroke-opacity: 0.5"/>
    </defs>
    <g clip-path="url(#pc67572cd9e)">
     <use xlink:href="#mfa5e39076b" x="0" y="345.6" style="fill: #55a868; fill-opacity: 0.5; stroke: #ffffff; stroke-opacity: 0.5"/>
    </g>
   </g>
   <g id="line2d_15">
    <path d="M 85.217727 282.618334 
L 88.119866 282.595195 
L 91.022005 282.572183 
L 93.924144 282.548955 
L 96.826283 282.349858 
L 99.728422 282.150066 
L 102.630561 281.952742 
L 105.532701 281.754273 
L 108.43484 281.55806 
L 111.336979 281.359606 
L 114.239118 281.162302 
L 117.141257 280.964946 
L 120.043396 280.767598 
L 122.945535 280.57068 
L 125.847674 280.376481 
L 128.749813 280.180409 
L 131.651952 279.982242 
L 134.554091 279.789036 
L 137.45623 279.593265 
L 140.358369 279.398578 
L 143.260508 279.204467 
L 146.162647 279.007164 
L 149.064786 278.810176 
L 151.966925 278.617118 
L 154.869064 278.419558 
L 157.771203 278.225021 
L 160.673342 278.031726 
L 163.575481 277.837182 
L 166.47762 277.641996 
L 169.379759 277.44625 
L 172.281898 277.249499 
L 175.184037 277.052569 
L 178.086176 276.859245 
L 180.988316 276.66299 
L 183.890455 276.46926 
L 186.792594 276.271754 
L 189.694733 276.077142 
L 192.596872 275.881666 
L 195.499011 275.683413 
L 198.40115 275.486233 
L 201.303289 275.290329 
L 204.205428 275.097539 
L 207.107567 274.903535 
L 210.009706 274.708736 
L 212.911845 274.51281 
L 215.813984 274.316317 
L 218.716123 274.119951 
L 221.618262 273.923513 
L 224.520401 273.727101 
L 227.42254 273.529032 
L 230.324679 273.333592 
L 233.226818 273.138265 
L 236.128957 272.945837 
L 239.031096 272.75116 
L 241.933235 272.556893 
L 244.835374 272.361416 
L 247.737513 272.167484 
L 250.639652 271.97311 
L 253.541791 271.779348 
L 256.44393 271.585188 
L 259.34607 271.391161 
L 262.248209 271.195508 
L 265.150348 271.004079 
L 268.052487 270.809985 
L 270.954626 270.616533 
L 273.856765 270.423207 
L 276.758904 270.22639 
L 279.661043 270.029683 
L 282.563182 269.83578 
L 285.465321 269.642674 
L 288.36746 269.449892 
L 291.269599 269.253721 
L 294.171738 269.057538 
L 297.073877 268.860556 
L 299.976016 268.665969 
L 302.878155 268.470122 
L 305.780294 268.273728 
L 308.682433 268.077136 
L 311.584572 267.87976 
L 314.486711 267.684647 
L 317.38885 267.49249 
L 320.290989 267.299057 
L 323.193128 267.102873 
L 326.095267 266.908668 
L 328.997406 266.713535 
L 331.899545 266.521807 
L 334.801684 266.329062 
L 337.703824 266.133672 
L 340.605963 265.93956 
L 343.508102 265.745635 
L 346.410241 265.550831 
L 349.31238 265.357329 
L 352.214519 265.163617 
L 355.116658 264.969982 
L 358.018797 264.776617 
L 360.920936 264.583404 
L 363.823075 264.39081 
L 366.725214 264.194469 
L 369.627353 263.997356 
L 372.529492 263.803575 
L 375.431631 263.609712 
L 378.33377 263.415657 
L 381.235909 263.221599 
L 384.138048 263.025633 
L 387.040187 262.832153 
L 389.942326 262.638454 
L 392.844465 262.443738 
L 395.746604 262.24931 
L 398.648743 262.055349 
L 401.550882 261.862151 
L 404.453021 261.668031 
L 407.35516 261.474053 
L 410.257299 261.282786 
L 413.159439 261.088159 
L 416.061578 260.894883 
L 418.963717 260.700454 
L 421.865856 260.507167 
L 424.767995 260.31212 
L 427.670134 260.119109 
L 430.572273 259.925263 
" clip-path="url(#pc67572cd9e)" style="fill: none; stroke: #4c72b0; stroke-width: 3; stroke-linecap: round"/>
   </g>
   <g id="line2d_16">
    <path d="M 85.217727 282.618124 
L 88.119866 282.594325 
L 91.022005 282.570905 
L 93.924144 282.547427 
L 96.826283 282.090094 
L 99.728422 281.633043 
L 102.630561 281.171031 
L 105.532701 280.710162 
L 108.43484 280.254524 
L 111.336979 279.793488 
L 114.239118 279.337566 
L 117.141257 278.877254 
L 120.043396 278.419916 
L 122.945535 277.962203 
L 125.847674 277.505241 
L 128.749813 277.049525 
L 131.651952 276.588386 
L 134.554091 276.129521 
L 137.45623 275.671578 
L 140.358369 275.213801 
L 143.260508 274.75449 
L 146.162647 274.294454 
L 149.064786 273.840475 
L 151.966925 273.383968 
L 154.869064 272.926755 
L 157.771203 272.470814 
L 160.673342 272.015208 
L 163.575481 271.557769 
L 166.47762 271.100541 
L 169.379759 270.641262 
L 172.281898 270.183967 
L 175.184037 269.730232 
L 178.086176 269.276374 
L 180.988316 268.817531 
L 183.890455 268.360157 
L 186.792594 267.900786 
L 189.694733 267.437028 
L 192.596872 266.978954 
L 195.499011 266.523421 
L 198.40115 266.068741 
L 201.303289 265.615203 
L 204.205428 265.158457 
L 207.107567 264.699641 
L 210.009706 264.23981 
L 212.911845 263.785591 
L 215.813984 263.332148 
L 218.716123 262.879832 
L 221.618262 262.420284 
L 224.520401 261.963805 
L 227.42254 261.506145 
L 230.324679 261.052199 
L 233.226818 260.59543 
L 236.128957 260.139368 
L 239.031096 259.68535 
L 241.933235 259.22277 
L 244.835374 258.762865 
L 247.737513 258.299692 
L 250.639652 257.842443 
L 253.541791 257.38733 
L 256.44393 256.930767 
L 259.34607 256.473832 
L 262.248209 256.016542 
L 265.150348 255.558356 
L 268.052487 255.098274 
L 270.954626 254.642634 
L 273.856765 254.189318 
L 276.758904 253.728728 
L 279.661043 253.273477 
L 282.563182 252.819471 
L 285.465321 252.363133 
L 288.36746 251.905414 
L 291.269599 251.448176 
L 294.171738 250.992532 
L 297.073877 250.534055 
L 299.976016 250.077563 
L 302.878155 249.616676 
L 305.780294 249.158125 
L 308.682433 248.699179 
L 311.584572 248.240528 
L 314.486711 247.790955 
L 317.38885 247.335189 
L 320.290989 246.880587 
L 323.193128 246.418709 
L 326.095267 245.95553 
L 328.997406 245.497772 
L 331.899545 245.043675 
L 334.801684 244.585061 
L 337.703824 244.128784 
L 340.605963 243.672578 
L 343.508102 243.217473 
L 346.410241 242.761161 
L 349.31238 242.304064 
L 352.214519 241.847953 
L 355.116658 241.393524 
L 358.018797 240.934766 
L 360.920936 240.475917 
L 363.823075 240.019574 
L 366.725214 239.560951 
L 369.627353 239.102964 
L 372.529492 238.642062 
L 375.431631 238.187803 
L 378.33377 237.733328 
L 381.235909 237.27314 
L 384.138048 236.819674 
L 387.040187 236.370369 
L 389.942326 235.913632 
L 392.844465 235.460248 
L 395.746604 235.007156 
L 398.648743 234.547525 
L 401.550882 234.093415 
L 404.453021 233.63631 
L 407.35516 233.182099 
L 410.257299 232.726131 
L 413.159439 232.271989 
L 416.061578 231.816094 
L 418.963717 231.363323 
L 421.865856 230.908518 
L 424.767995 230.451848 
L 427.670134 229.999844 
L 430.572273 229.54672 
" clip-path="url(#pc67572cd9e)" style="fill: none; stroke: #dd8452; stroke-width: 3; stroke-linecap: round"/>
   </g>
   <g id="line2d_17">
    <path d="M 85.217727 282.570518 
L 88.119866 282.490794 
L 91.022005 282.409576 
L 93.924144 282.328258 
L 96.826283 280.247189 
L 99.728422 278.112971 
L 102.630561 275.983795 
L 105.532701 273.83156 
L 108.43484 271.73679 
L 111.336979 269.631341 
L 114.239118 267.507964 
L 117.141257 265.381299 
L 120.043396 263.348312 
L 122.945535 261.289713 
L 125.847674 259.217622 
L 128.749813 257.119891 
L 131.651952 255.022361 
L 134.554091 252.908453 
L 137.45623 250.82915 
L 140.358369 248.754466 
L 143.260508 246.68712 
L 146.162647 244.60324 
L 149.064786 242.527301 
L 151.966925 240.459088 
L 154.869064 238.466771 
L 157.771203 236.430999 
L 160.673342 234.394926 
L 163.575481 232.344118 
L 166.47762 230.298488 
L 169.379759 228.228257 
L 172.281898 226.162562 
L 175.184037 224.090285 
L 178.086176 222.027054 
L 180.988316 219.949267 
L 183.890455 217.877618 
L 186.792594 215.772883 
L 189.694733 213.756499 
L 192.596872 211.718378 
L 195.499011 209.661115 
L 198.40115 207.60113 
L 201.303289 205.540096 
L 204.205428 203.470344 
L 207.107567 201.421503 
L 210.009706 199.352441 
L 212.911845 197.276869 
L 215.813984 195.198696 
L 218.716123 193.11413 
L 221.618262 191.033785 
L 224.520401 189.019093 
L 227.42254 186.964015 
L 230.324679 184.903838 
L 233.226818 182.844609 
L 236.128957 180.795705 
L 239.031096 178.722568 
L 241.933235 176.645659 
L 244.835374 174.569648 
L 247.737513 172.48361 
L 250.639652 170.396655 
L 253.541791 168.318752 
L 256.44393 166.226158 
L 259.34607 164.227471 
L 262.248209 162.185785 
L 265.150348 160.137333 
L 268.052487 158.079569 
L 270.954626 156.007231 
L 273.856765 153.927854 
L 276.758904 151.857473 
L 279.661043 149.779888 
L 282.563182 147.711695 
L 285.465321 145.626603 
L 288.36746 143.542189 
L 291.269599 141.452613 
L 294.171738 139.452115 
L 297.073877 137.418594 
L 299.976016 135.374966 
L 302.878155 133.310493 
L 305.780294 131.243512 
L 308.682433 129.163252 
L 311.584572 127.080708 
L 314.486711 124.992577 
L 317.38885 122.934106 
L 320.290989 120.84229 
L 323.193128 118.742653 
L 326.095267 116.636272 
L 328.997406 114.623806 
L 331.899545 112.590955 
L 334.801684 110.544142 
L 337.703824 108.479657 
L 340.605963 106.401648 
L 343.508102 104.332623 
L 346.410241 102.246592 
L 349.31238 100.161781 
L 352.214519 98.084198 
L 355.116658 96.013955 
L 358.018797 93.925153 
L 360.920936 91.834167 
L 363.823075 89.82149 
L 366.725214 87.779204 
L 369.627353 85.732295 
L 372.529492 83.685604 
L 375.431631 81.610029 
L 378.33377 79.532065 
L 381.235909 77.456604 
L 384.138048 75.375852 
L 387.040187 73.300744 
L 389.942326 71.217325 
L 392.844465 69.146963 
L 395.746604 67.053844 
L 398.648743 65.034943 
L 401.550882 62.994091 
L 404.453021 60.936872 
L 407.35516 58.87338 
L 410.257299 56.815876 
L 413.159439 54.736058 
L 416.061578 52.659809 
L 418.963717 50.571868 
L 421.865856 48.497467 
L 424.767995 46.401835 
L 427.670134 44.313826 
L 430.572273 42.22399 
" clip-path="url(#pc67572cd9e)" style="fill: none; stroke: #55a868; stroke-width: 3; stroke-linecap: round"/>
   </g>
   <g id="patch_3">
    <path d="M 67.95 294.66 
L 67.95 29.76 
" style="fill: none; stroke: #ffffff; stroke-width: 1.25; stroke-linejoin: miter; stroke-linecap: square"/>
   </g>
   <g id="patch_4">
    <path d="M 447.84 294.66 
L 447.84 29.76 
" style="fill: none; stroke: #ffffff; stroke-width: 1.25; stroke-linejoin: miter; stroke-linecap: square"/>
   </g>
   <g id="patch_5">
    <path d="M 67.95 294.66 
L 447.84 294.66 
" style="fill: none; stroke: #ffffff; stroke-width: 1.25; stroke-linejoin: miter; stroke-linecap: square"/>
   </g>
   <g id="patch_6">
    <path d="M 67.95 29.76 
L 447.84 29.76 
" style="fill: none; stroke: #ffffff; stroke-width: 1.25; stroke-linejoin: miter; stroke-linecap: square"/>
   </g>
   <g id="text_17">
    <!-- zinc-coating-v0 -->
    <g style="fill: #262626" transform="translate(204.536406 23.76)scale(0.14 -0.14)">
     <defs>
      <path id="DejaVuSans-7a" d="M 353 3500 
L 3084 3500 
L 3084 2975 
L 922 459 
L 3084 459 
L 3084 0 
L 275 0 
L 275 525 
L 2438 3041 
L 353 3041 
L 353 3500 
z
" transform="scale(0.015625)"/>
      <path id="DejaVuSans-63" d="M 3122 3366 
L 3122 2828 
Q 2878 2963 2633 3030 
Q 2388 3097 2138 3097 
Q 1578 3097 1268 2742 
Q 959 2388 959 1747 
Q 959 1106 1268 751 
Q 1578 397 2138 397 
Q 2388 397 2633 464 
Q 2878 531 3122 666 
L 3122 134 
Q 2881 22 2623 -34 
Q 2366 -91 2075 -91 
Q 1284 -91 818 406 
Q 353 903 353 1747 
Q 353 2603 823 3093 
Q 1294 3584 2113 3584 
Q 2378 3584 2631 3529 
Q 2884 3475 3122 3366 
z
" transform="scale(0.015625)"/>
      <path id="DejaVuSans-2d" d="M 313 2009 
L 1997 2009 
L 1997 1497 
L 313 1497 
L 313 2009 
z
" transform="scale(0.015625)"/>
      <path id="DejaVuSans-67" d="M 2906 1791 
Q 2906 2416 2648 2759 
Q 2391 3103 1925 3103 
Q 1463 3103 1205 2759 
Q 947 2416 947 1791 
Q 947 1169 1205 825 
Q 1463 481 1925 481 
Q 2391 481 2648 825 
Q 2906 1169 2906 1791 
z
M 3481 434 
Q 3481 -459 3084 -895 
Q 2688 -1331 1869 -1331 
Q 1566 -1331 1297 -1286 
Q 1028 -1241 775 -1147 
L 775 -588 
Q 1028 -725 1275 -790 
Q 1522 -856 1778 -856 
Q 2344 -856 2625 -561 
Q 2906 -266 2906 331 
L 2906 616 
Q 2728 306 2450 153 
Q 2172 0 1784 0 
Q 1141 0 747 490 
Q 353 981 353 1791 
Q 353 2603 747 3093 
Q 1141 3584 1784 3584 
Q 2172 3584 2450 3431 
Q 2728 3278 2906 2969 
L 2906 3500 
L 3481 3500 
L 3481 434 
z
" transform="scale(0.015625)"/>
      <path id="DejaVuSans-76" d="M 191 3500 
L 800 3500 
L 1894 563 
L 2988 3500 
L 3597 3500 
L 2284 0 
L 1503 0 
L 191 3500 
z
" transform="scale(0.015625)"/>
     </defs>
     <use xlink:href="#DejaVuSans-7a"/>
     <use xlink:href="#DejaVuSans-69" x="52.490234"/>
     <use xlink:href="#DejaVuSans-6e" x="80.273438"/>
     <use xlink:href="#DejaVuSans-63" x="143.652344"/>
     <use xlink:href="#DejaVuSans-2d" x="198.632812"/>
     <use xlink:href="#DejaVuSans-63" x="234.716797"/>
     <use xlink:href="#DejaVuSans-6f" x="289.697266"/>
     <use xlink:href="#DejaVuSans-61" x="350.878906"/>
     <use xlink:href="#DejaVuSans-74" x="412.158203"/>
     <use xlink:href="#DejaVuSans-69" x="451.367188"/>
     <use xlink:href="#DejaVuSans-6e" x="479.150391"/>
     <use xlink:href="#DejaVuSans-67" x="542.529297"/>
     <use xlink:href="#DejaVuSans-2d" x="606.005859"/>
     <use xlink:href="#DejaVuSans-76" x="639.464844"/>
     <use xlink:href="#DejaVuSans-30" x="698.644531"/>
    </g>
   </g>
   <g id="legend_1">
    <g id="patch_7">
     <path d="M 75.65 86.997813 
L 223.477969 86.997813 
Q 225.677969 86.997813 225.677969 84.797813 
L 225.677969 37.46 
Q 225.677969 35.26 223.477969 35.26 
L 75.65 35.26 
Q 73.45 35.26 73.45 37.46 
L 73.45 84.797813 
Q 73.45 86.997813 75.65 86.997813 
z
" style="fill: #eaeaf2; opacity: 0.8; stroke: #cccccc; stroke-linejoin: miter"/>
    </g>
    <g id="line2d_18">
     <path d="M 77.85 44.168281 
L 88.85 44.168281 
L 99.85 44.168281 
" style="fill: none; stroke: #4c72b0; stroke-width: 3; stroke-linecap: round"/>
    </g>
    <g id="text_18">
     <!-- SAC-DELAY-20 -->
     <g style="fill: #262626" transform="translate(108.65 48.018281)scale(0.11 -0.11)">
      <defs>
       <path id="DejaVuSans-53" d="M 3425 4513 
L 3425 3897 
Q 3066 4069 2747 4153 
Q 2428 4238 2131 4238 
Q 1616 4238 1336 4038 
Q 1056 3838 1056 3469 
Q 1056 3159 1242 3001 
Q 1428 2844 1947 2747 
L 2328 2669 
Q 3034 2534 3370 2195 
Q 3706 1856 3706 1288 
Q 3706 609 3251 259 
Q 2797 -91 1919 -91 
Q 1588 -91 1214 -16 
Q 841 59 441 206 
L 441 856 
Q 825 641 1194 531 
Q 1563 422 1919 422 
Q 2459 422 2753 634 
Q 3047 847 3047 1241 
Q 3047 1584 2836 1778 
Q 2625 1972 2144 2069 
L 1759 2144 
Q 1053 2284 737 2584 
Q 422 2884 422 3419 
Q 422 4038 858 4394 
Q 1294 4750 2059 4750 
Q 2388 4750 2728 4690 
Q 3069 4631 3425 4513 
z
" transform="scale(0.015625)"/>
       <path id="DejaVuSans-41" d="M 2188 4044 
L 1331 1722 
L 3047 1722 
L 2188 4044 
z
M 1831 4666 
L 2547 4666 
L 4325 0 
L 3669 0 
L 3244 1197 
L 1141 1197 
L 716 0 
L 50 0 
L 1831 4666 
z
" transform="scale(0.015625)"/>
       <path id="DejaVuSans-43" d="M 4122 4306 
L 4122 3641 
Q 3803 3938 3442 4084 
Q 3081 4231 2675 4231 
Q 1875 4231 1450 3742 
Q 1025 3253 1025 2328 
Q 1025 1406 1450 917 
Q 1875 428 2675 428 
Q 3081 428 3442 575 
Q 3803 722 4122 1019 
L 4122 359 
Q 3791 134 3420 21 
Q 3050 -91 2638 -91 
Q 1578 -91 968 557 
Q 359 1206 359 2328 
Q 359 3453 968 4101 
Q 1578 4750 2638 4750 
Q 3056 4750 3426 4639 
Q 3797 4528 4122 4306 
z
" transform="scale(0.015625)"/>
       <path id="DejaVuSans-44" d="M 1259 4147 
L 1259 519 
L 2022 519 
Q 2988 519 3436 956 
Q 3884 1394 3884 2338 
Q 3884 3275 3436 3711 
Q 2988 4147 2022 4147 
L 1259 4147 
z
M 628 4666 
L 1925 4666 
Q 3281 4666 3915 4102 
Q 4550 3538 4550 2338 
Q 4550 1131 3912 565 
Q 3275 0 1925 0 
L 628 0 
L 628 4666 
z
" transform="scale(0.015625)"/>
       <path id="DejaVuSans-45" d="M 628 4666 
L 3578 4666 
L 3578 4134 
L 1259 4134 
L 1259 2753 
L 3481 2753 
L 3481 2222 
L 1259 2222 
L 1259 531 
L 3634 531 
L 3634 0 
L 628 0 
L 628 4666 
z
" transform="scale(0.015625)"/>
       <path id="DejaVuSans-4c" d="M 628 4666 
L 1259 4666 
L 1259 531 
L 3531 531 
L 3531 0 
L 628 0 
L 628 4666 
z
" transform="scale(0.015625)"/>
       <path id="DejaVuSans-59" d="M -13 4666 
L 666 4666 
L 1959 2747 
L 3244 4666 
L 3922 4666 
L 2272 2222 
L 2272 0 
L 1638 0 
L 1638 2222 
L -13 4666 
z
" transform="scale(0.015625)"/>
      </defs>
      <use xlink:href="#DejaVuSans-53"/>
      <use xlink:href="#DejaVuSans-41" x="65.351562"/>
      <use xlink:href="#DejaVuSans-43" x="132.009766"/>
      <use xlink:href="#DejaVuSans-2d" x="201.833984"/>
      <use xlink:href="#DejaVuSans-44" x="237.917969"/>
      <use xlink:href="#DejaVuSans-45" x="314.919922"/>
      <use xlink:href="#DejaVuSans-4c" x="378.103516"/>
      <use xlink:href="#DejaVuSans-41" x="436.066406"/>
      <use xlink:href="#DejaVuSans-59" x="496.724609"/>
      <use xlink:href="#DejaVuSans-2d" x="545.933594"/>
      <use xlink:href="#DejaVuSans-32" x="582.017578"/>
      <use xlink:href="#DejaVuSans-30" x="645.640625"/>
     </g>
    </g>
    <g id="line2d_19">
     <path d="M 77.85 60.314219 
L 88.85 60.314219 
L 99.85 60.314219 
" style="fill: none; stroke: #dd8452; stroke-width: 3; stroke-linecap: round"/>
    </g>
    <g id="text_19">
     <!-- SAC-IS-DELAY-20 -->
     <g style="fill: #262626" transform="translate(108.65 64.164219)scale(0.11 -0.11)">
      <defs>
       <path id="DejaVuSans-49" d="M 628 4666 
L 1259 4666 
L 1259 0 
L 628 0 
L 628 4666 
z
" transform="scale(0.015625)"/>
      </defs>
      <use xlink:href="#DejaVuSans-53"/>
      <use xlink:href="#DejaVuSans-41" x="65.351562"/>
      <use xlink:href="#DejaVuSans-43" x="132.009766"/>
      <use xlink:href="#DejaVuSans-2d" x="201.833984"/>
      <use xlink:href="#DejaVuSans-49" x="237.917969"/>
      <use xlink:href="#DejaVuSans-53" x="267.410156"/>
      <use xlink:href="#DejaVuSans-2d" x="330.886719"/>
      <use xlink:href="#DejaVuSans-44" x="366.970703"/>
      <use xlink:href="#DejaVuSans-45" x="443.972656"/>
      <use xlink:href="#DejaVuSans-4c" x="507.15625"/>
      <use xlink:href="#DejaVuSans-41" x="565.119141"/>
      <use xlink:href="#DejaVuSans-59" x="625.777344"/>
      <use xlink:href="#DejaVuSans-2d" x="674.986328"/>
      <use xlink:href="#DejaVuSans-32" x="711.070312"/>
      <use xlink:href="#DejaVuSans-30" x="774.693359"/>
     </g>
    </g>
    <g id="line2d_20">
     <path d="M 77.85 76.460156 
L 88.85 76.460156 
L 99.85 76.460156 
" style="fill: none; stroke: #55a868; stroke-width: 3; stroke-linecap: round"/>
    </g>
    <g id="text_20">
     <!-- DCAC-DELAY-20-16C -->
     <g style="fill: #262626" transform="translate(108.65 80.310156)scale(0.11 -0.11)">
      <use xlink:href="#DejaVuSans-44"/>
      <use xlink:href="#DejaVuSans-43" x="77.001953"/>
      <use xlink:href="#DejaVuSans-41" x="146.826172"/>
      <use xlink:href="#DejaVuSans-43" x="213.484375"/>
      <use xlink:href="#DejaVuSans-2d" x="283.308594"/>
      <use xlink:href="#DejaVuSans-44" x="319.392578"/>
      <use xlink:href="#DejaVuSans-45" x="396.394531"/>
      <use xlink:href="#DejaVuSans-4c" x="459.578125"/>
      <use xlink:href="#DejaVuSans-41" x="517.541016"/>
      <use xlink:href="#DejaVuSans-59" x="578.199219"/>
      <use xlink:href="#DejaVuSans-2d" x="627.408203"/>
      <use xlink:href="#DejaVuSans-32" x="663.492188"/>
      <use xlink:href="#DejaVuSans-30" x="727.115234"/>
      <use xlink:href="#DejaVuSans-2d" x="790.738281"/>
      <use xlink:href="#DejaVuSans-31" x="826.822266"/>
      <use xlink:href="#DejaVuSans-36" x="890.445312"/>
      <use xlink:href="#DejaVuSans-43" x="954.068359"/>
     </g>
    </g>
   </g>
  </g>
 </g>
 <defs>
  <clipPath id="pc67572cd9e">
   <rect x="67.95" y="29.76" width="379.89" height="264.9"/>
  </clipPath>
 </defs>
</svg>
