<?xml version="1.0" encoding="utf-8" standalone="no"?>
<!DOCTYPE svg PUBLIC "-//W3C//DTD SVG 1.1//EN"
  "http://www.w3.org/Graphics/SVG/1.1/DTD/svg11.dtd">
<svg xmlns:xlink="http://www.w3.org/1999/xlink" width="460.8pt" height="345.6pt" viewBox="0 0 460.8 345.6" xmlns="http://www.w3.org/2000/svg" version="1.1">
 <metadata>
  <rdf:RDF xmlns:dc="http://purl.org/dc/elements/1.1/" xmlns:cc="http://creativecommons.org/ns#" xmlns:rdf="http://www.w3.org/1999/02/22-rdf-syntax-ns#">
   <cc:Work>
    <dc:type rdf:resource="http://purl.org/dc/dcmitype/StillImage"/>
    <dc:date>2022-09-10T15:50:47.986428</dc:date>
    <dc:format>image/svg+xml</dc:format>
    <dc:creator>
     <cc:Agent>
      <dc:title>Matplotlib v3.5.3, https://matplotlib.org/</dc:title>
     </cc:Agent>
    </dc:creator>
   </cc:Work>
  </rdf:RDF>
 </metadata>
 <defs>
  <style type="text/css">*{stroke-linejoin: round; stroke-linecap: butt}</style>
 </defs>
 <g id="figure_1">
  <g id="patch_1">
   <path d="M 0 345.6 
L 460.8 345.6 
L 460.8 0 
L 0 0 
z
" style="fill: #ffffff"/>
  </g>
  <g id="axes_1">
   <g id="patch_2">
    <path d="M 74.88 294.66 
L 447.84 294.66 
L 447.84 29.76 
L 74.88 29.76 
z
" style="fill: #eaeaf2"/>
   </g>
   <g id="matplotlib.axis_1">
    <g id="xtick_1">
     <g id="line2d_1">
      <path d="M 88.983529 294.66 
L 88.983529 29.76 
" clip-path="url(#p53063fd5eb)" style="fill: none; stroke: #ffffff; stroke-linecap: round"/>
     </g>
     <g id="text_1">
      <!-- 0.00 -->
      <g style="fill: #262626" transform="translate(76.737436 312.518281)scale(0.11 -0.11)">
       <defs>
        <path id="DejaVuSans-30" d="M 2034 4250 
Q 1547 4250 1301 3770 
Q 1056 3291 1056 2328 
Q 1056 1369 1301 889 
Q 1547 409 2034 409 
Q 2525 409 2770 889 
Q 3016 1369 3016 2328 
Q 3016 3291 2770 3770 
Q 2525 4250 2034 4250 
z
M 2034 4750 
Q 2819 4750 3233 4129 
Q 3647 3509 3647 2328 
Q 3647 1150 3233 529 
Q 2819 -91 2034 -91 
Q 1250 -91 836 529 
Q 422 1150 422 2328 
Q 422 3509 836 4129 
Q 1250 4750 2034 4750 
z
" transform="scale(0.015625)"/>
        <path id="DejaVuSans-2e" d="M 684 794 
L 1344 794 
L 1344 0 
L 684 0 
L 684 794 
z
" transform="scale(0.015625)"/>
       </defs>
       <use xlink:href="#DejaVuSans-30"/>
       <use xlink:href="#DejaVuSans-2e" x="63.623047"/>
       <use xlink:href="#DejaVuSans-30" x="95.410156"/>
       <use xlink:href="#DejaVuSans-30" x="159.033203"/>
      </g>
     </g>
    </g>
    <g id="xtick_2">
     <g id="line2d_2">
      <path d="M 145.967487 294.66 
L 145.967487 29.76 
" clip-path="url(#p53063fd5eb)" style="fill: none; stroke: #ffffff; stroke-linecap: round"/>
     </g>
     <g id="text_2">
      <!-- 0.05 -->
      <g style="fill: #262626" transform="translate(133.721393 312.518281)scale(0.11 -0.11)">
       <defs>
        <path id="DejaVuSans-35" d="M 691 4666 
L 3169 4666 
L 3169 4134 
L 1269 4134 
L 1269 2991 
Q 1406 3038 1543 3061 
Q 1681 3084 1819 3084 
Q 2600 3084 3056 2656 
Q 3513 2228 3513 1497 
Q 3513 744 3044 326 
Q 2575 -91 1722 -91 
Q 1428 -91 1123 -41 
Q 819 9 494 109 
L 494 744 
Q 775 591 1075 516 
Q 1375 441 1709 441 
Q 2250 441 2565 725 
Q 2881 1009 2881 1497 
Q 2881 1984 2565 2268 
Q 2250 2553 1709 2553 
Q 1456 2553 1204 2497 
Q 953 2441 691 2322 
L 691 4666 
z
" transform="scale(0.015625)"/>
       </defs>
       <use xlink:href="#DejaVuSans-30"/>
       <use xlink:href="#DejaVuSans-2e" x="63.623047"/>
       <use xlink:href="#DejaVuSans-30" x="95.410156"/>
       <use xlink:href="#DejaVuSans-35" x="159.033203"/>
      </g>
     </g>
    </g>
    <g id="xtick_3">
     <g id="line2d_3">
      <path d="M 202.951444 294.66 
L 202.951444 29.76 
" clip-path="url(#p53063fd5eb)" style="fill: none; stroke: #ffffff; stroke-linecap: round"/>
     </g>
     <g id="text_3">
      <!-- 0.10 -->
      <g style="fill: #262626" transform="translate(190.70535 312.518281)scale(0.11 -0.11)">
       <defs>
        <path id="DejaVuSans-31" d="M 794 531 
L 1825 531 
L 1825 4091 
L 703 3866 
L 703 4441 
L 1819 4666 
L 2450 4666 
L 2450 531 
L 3481 531 
L 3481 0 
L 794 0 
L 794 531 
z
" transform="scale(0.015625)"/>
       </defs>
       <use xlink:href="#DejaVuSans-30"/>
       <use xlink:href="#DejaVuSans-2e" x="63.623047"/>
       <use xlink:href="#DejaVuSans-31" x="95.410156"/>
       <use xlink:href="#DejaVuSans-30" x="159.033203"/>
      </g>
     </g>
    </g>
    <g id="xtick_4">
     <g id="line2d_4">
      <path d="M 259.935401 294.66 
L 259.935401 29.76 
" clip-path="url(#p53063fd5eb)" style="fill: none; stroke: #ffffff; stroke-linecap: round"/>
     </g>
     <g id="text_4">
      <!-- 0.15 -->
      <g style="fill: #262626" transform="translate(247.689307 312.518281)scale(0.11 -0.11)">
       <use xlink:href="#DejaVuSans-30"/>
       <use xlink:href="#DejaVuSans-2e" x="63.623047"/>
       <use xlink:href="#DejaVuSans-31" x="95.410156"/>
       <use xlink:href="#DejaVuSans-35" x="159.033203"/>
      </g>
     </g>
    </g>
    <g id="xtick_5">
     <g id="line2d_5">
      <path d="M 316.919358 294.66 
L 316.919358 29.76 
" clip-path="url(#p53063fd5eb)" style="fill: none; stroke: #ffffff; stroke-linecap: round"/>
     </g>
     <g id="text_5">
      <!-- 0.20 -->
      <g style="fill: #262626" transform="translate(304.673265 312.518281)scale(0.11 -0.11)">
       <defs>
        <path id="DejaVuSans-32" d="M 1228 531 
L 3431 531 
L 3431 0 
L 469 0 
L 469 531 
Q 828 903 1448 1529 
Q 2069 2156 2228 2338 
Q 2531 2678 2651 2914 
Q 2772 3150 2772 3378 
Q 2772 3750 2511 3984 
Q 2250 4219 1831 4219 
Q 1534 4219 1204 4116 
Q 875 4013 500 3803 
L 500 4441 
Q 881 4594 1212 4672 
Q 1544 4750 1819 4750 
Q 2544 4750 2975 4387 
Q 3406 4025 3406 3419 
Q 3406 3131 3298 2873 
Q 3191 2616 2906 2266 
Q 2828 2175 2409 1742 
Q 1991 1309 1228 531 
z
" transform="scale(0.015625)"/>
       </defs>
       <use xlink:href="#DejaVuSans-30"/>
       <use xlink:href="#DejaVuSans-2e" x="63.623047"/>
       <use xlink:href="#DejaVuSans-32" x="95.410156"/>
       <use xlink:href="#DejaVuSans-30" x="159.033203"/>
      </g>
     </g>
    </g>
    <g id="xtick_6">
     <g id="line2d_6">
      <path d="M 373.903316 294.66 
L 373.903316 29.76 
" clip-path="url(#p53063fd5eb)" style="fill: none; stroke: #ffffff; stroke-linecap: round"/>
     </g>
     <g id="text_6">
      <!-- 0.25 -->
      <g style="fill: #262626" transform="translate(361.657222 312.518281)scale(0.11 -0.11)">
       <use xlink:href="#DejaVuSans-30"/>
       <use xlink:href="#DejaVuSans-2e" x="63.623047"/>
       <use xlink:href="#DejaVuSans-32" x="95.410156"/>
       <use xlink:href="#DejaVuSans-35" x="159.033203"/>
      </g>
     </g>
    </g>
    <g id="xtick_7">
     <g id="line2d_7">
      <path d="M 430.887273 294.66 
L 430.887273 29.76 
" clip-path="url(#p53063fd5eb)" style="fill: none; stroke: #ffffff; stroke-linecap: round"/>
     </g>
     <g id="text_7">
      <!-- 0.30 -->
      <g style="fill: #262626" transform="translate(418.641179 312.518281)scale(0.11 -0.11)">
       <defs>
        <path id="DejaVuSans-33" d="M 2597 2516 
Q 3050 2419 3304 2112 
Q 3559 1806 3559 1356 
Q 3559 666 3084 287 
Q 2609 -91 1734 -91 
Q 1441 -91 1130 -33 
Q 819 25 488 141 
L 488 750 
Q 750 597 1062 519 
Q 1375 441 1716 441 
Q 2309 441 2620 675 
Q 2931 909 2931 1356 
Q 2931 1769 2642 2001 
Q 2353 2234 1838 2234 
L 1294 2234 
L 1294 2753 
L 1863 2753 
Q 2328 2753 2575 2939 
Q 2822 3125 2822 3475 
Q 2822 3834 2567 4026 
Q 2313 4219 1838 4219 
Q 1578 4219 1281 4162 
Q 984 4106 628 3988 
L 628 4550 
Q 988 4650 1302 4700 
Q 1616 4750 1894 4750 
Q 2613 4750 3031 4423 
Q 3450 4097 3450 3541 
Q 3450 3153 3228 2886 
Q 3006 2619 2597 2516 
z
" transform="scale(0.015625)"/>
       </defs>
       <use xlink:href="#DejaVuSans-30"/>
       <use xlink:href="#DejaVuSans-2e" x="63.623047"/>
       <use xlink:href="#DejaVuSans-33" x="95.410156"/>
       <use xlink:href="#DejaVuSans-30" x="159.033203"/>
      </g>
     </g>
    </g>
    <g id="text_8">
     <!-- Timesteps (in Million) -->
     <g style="fill: #262626" transform="translate(186.614219 329.44375)scale(0.14 -0.14)">
      <defs>
       <path id="DejaVuSans-54" d="M -19 4666 
L 3928 4666 
L 3928 4134 
L 2272 4134 
L 2272 0 
L 1638 0 
L 1638 4134 
L -19 4134 
L -19 4666 
z
" transform="scale(0.015625)"/>
       <path id="DejaVuSans-69" d="M 603 3500 
L 1178 3500 
L 1178 0 
L 603 0 
L 603 3500 
z
M 603 4863 
L 1178 4863 
L 1178 4134 
L 603 4134 
L 603 4863 
z
" transform="scale(0.015625)"/>
       <path id="DejaVuSans-6d" d="M 3328 2828 
Q 3544 3216 3844 3400 
Q 4144 3584 4550 3584 
Q 5097 3584 5394 3201 
Q 5691 2819 5691 2113 
L 5691 0 
L 5113 0 
L 5113 2094 
Q 5113 2597 4934 2840 
Q 4756 3084 4391 3084 
Q 3944 3084 3684 2787 
Q 3425 2491 3425 1978 
L 3425 0 
L 2847 0 
L 2847 2094 
Q 2847 2600 2669 2842 
Q 2491 3084 2119 3084 
Q 1678 3084 1418 2786 
Q 1159 2488 1159 1978 
L 1159 0 
L 581 0 
L 581 3500 
L 1159 3500 
L 1159 2956 
Q 1356 3278 1631 3431 
Q 1906 3584 2284 3584 
Q 2666 3584 2933 3390 
Q 3200 3197 3328 2828 
z
" transform="scale(0.015625)"/>
       <path id="DejaVuSans-65" d="M 3597 1894 
L 3597 1613 
L 953 1613 
Q 991 1019 1311 708 
Q 1631 397 2203 397 
Q 2534 397 2845 478 
Q 3156 559 3463 722 
L 3463 178 
Q 3153 47 2828 -22 
Q 2503 -91 2169 -91 
Q 1331 -91 842 396 
Q 353 884 353 1716 
Q 353 2575 817 3079 
Q 1281 3584 2069 3584 
Q 2775 3584 3186 3129 
Q 3597 2675 3597 1894 
z
M 3022 2063 
Q 3016 2534 2758 2815 
Q 2500 3097 2075 3097 
Q 1594 3097 1305 2825 
Q 1016 2553 972 2059 
L 3022 2063 
z
" transform="scale(0.015625)"/>
       <path id="DejaVuSans-73" d="M 2834 3397 
L 2834 2853 
Q 2591 2978 2328 3040 
Q 2066 3103 1784 3103 
Q 1356 3103 1142 2972 
Q 928 2841 928 2578 
Q 928 2378 1081 2264 
Q 1234 2150 1697 2047 
L 1894 2003 
Q 2506 1872 2764 1633 
Q 3022 1394 3022 966 
Q 3022 478 2636 193 
Q 2250 -91 1575 -91 
Q 1294 -91 989 -36 
Q 684 19 347 128 
L 347 722 
Q 666 556 975 473 
Q 1284 391 1588 391 
Q 1994 391 2212 530 
Q 2431 669 2431 922 
Q 2431 1156 2273 1281 
Q 2116 1406 1581 1522 
L 1381 1569 
Q 847 1681 609 1914 
Q 372 2147 372 2553 
Q 372 3047 722 3315 
Q 1072 3584 1716 3584 
Q 2034 3584 2315 3537 
Q 2597 3491 2834 3397 
z
" transform="scale(0.015625)"/>
       <path id="DejaVuSans-74" d="M 1172 4494 
L 1172 3500 
L 2356 3500 
L 2356 3053 
L 1172 3053 
L 1172 1153 
Q 1172 725 1289 603 
Q 1406 481 1766 481 
L 2356 481 
L 2356 0 
L 1766 0 
Q 1100 0 847 248 
Q 594 497 594 1153 
L 594 3053 
L 172 3053 
L 172 3500 
L 594 3500 
L 594 4494 
L 1172 4494 
z
" transform="scale(0.015625)"/>
       <path id="DejaVuSans-70" d="M 1159 525 
L 1159 -1331 
L 581 -1331 
L 581 3500 
L 1159 3500 
L 1159 2969 
Q 1341 3281 1617 3432 
Q 1894 3584 2278 3584 
Q 2916 3584 3314 3078 
Q 3713 2572 3713 1747 
Q 3713 922 3314 415 
Q 2916 -91 2278 -91 
Q 1894 -91 1617 61 
Q 1341 213 1159 525 
z
M 3116 1747 
Q 3116 2381 2855 2742 
Q 2594 3103 2138 3103 
Q 1681 3103 1420 2742 
Q 1159 2381 1159 1747 
Q 1159 1113 1420 752 
Q 1681 391 2138 391 
Q 2594 391 2855 752 
Q 3116 1113 3116 1747 
z
" transform="scale(0.015625)"/>
       <path id="DejaVuSans-20" transform="scale(0.015625)"/>
       <path id="DejaVuSans-28" d="M 1984 4856 
Q 1566 4138 1362 3434 
Q 1159 2731 1159 2009 
Q 1159 1288 1364 580 
Q 1569 -128 1984 -844 
L 1484 -844 
Q 1016 -109 783 600 
Q 550 1309 550 2009 
Q 550 2706 781 3412 
Q 1013 4119 1484 4856 
L 1984 4856 
z
" transform="scale(0.015625)"/>
       <path id="DejaVuSans-6e" d="M 3513 2113 
L 3513 0 
L 2938 0 
L 2938 2094 
Q 2938 2591 2744 2837 
Q 2550 3084 2163 3084 
Q 1697 3084 1428 2787 
Q 1159 2491 1159 1978 
L 1159 0 
L 581 0 
L 581 3500 
L 1159 3500 
L 1159 2956 
Q 1366 3272 1645 3428 
Q 1925 3584 2291 3584 
Q 2894 3584 3203 3211 
Q 3513 2838 3513 2113 
z
" transform="scale(0.015625)"/>
       <path id="DejaVuSans-4d" d="M 628 4666 
L 1569 4666 
L 2759 1491 
L 3956 4666 
L 4897 4666 
L 4897 0 
L 4281 0 
L 4281 4097 
L 3078 897 
L 2444 897 
L 1241 4097 
L 1241 0 
L 628 0 
L 628 4666 
z
" transform="scale(0.015625)"/>
       <path id="DejaVuSans-6c" d="M 603 4863 
L 1178 4863 
L 1178 0 
L 603 0 
L 603 4863 
z
" transform="scale(0.015625)"/>
       <path id="DejaVuSans-6f" d="M 1959 3097 
Q 1497 3097 1228 2736 
Q 959 2375 959 1747 
Q 959 1119 1226 758 
Q 1494 397 1959 397 
Q 2419 397 2687 759 
Q 2956 1122 2956 1747 
Q 2956 2369 2687 2733 
Q 2419 3097 1959 3097 
z
M 1959 3584 
Q 2709 3584 3137 3096 
Q 3566 2609 3566 1747 
Q 3566 888 3137 398 
Q 2709 -91 1959 -91 
Q 1206 -91 779 398 
Q 353 888 353 1747 
Q 353 2609 779 3096 
Q 1206 3584 1959 3584 
z
" transform="scale(0.015625)"/>
       <path id="DejaVuSans-29" d="M 513 4856 
L 1013 4856 
Q 1481 4119 1714 3412 
Q 1947 2706 1947 2009 
Q 1947 1309 1714 600 
Q 1481 -109 1013 -844 
L 513 -844 
Q 928 -128 1133 580 
Q 1338 1288 1338 2009 
Q 1338 2731 1133 3434 
Q 928 4138 513 4856 
z
" transform="scale(0.015625)"/>
      </defs>
      <use xlink:href="#DejaVuSans-54"/>
      <use xlink:href="#DejaVuSans-69" x="57.958984"/>
      <use xlink:href="#DejaVuSans-6d" x="85.742188"/>
      <use xlink:href="#DejaVuSans-65" x="183.154297"/>
      <use xlink:href="#DejaVuSans-73" x="244.677734"/>
      <use xlink:href="#DejaVuSans-74" x="296.777344"/>
      <use xlink:href="#DejaVuSans-65" x="335.986328"/>
      <use xlink:href="#DejaVuSans-70" x="397.509766"/>
      <use xlink:href="#DejaVuSans-73" x="460.986328"/>
      <use xlink:href="#DejaVuSans-20" x="513.085938"/>
      <use xlink:href="#DejaVuSans-28" x="544.873047"/>
      <use xlink:href="#DejaVuSans-69" x="583.886719"/>
      <use xlink:href="#DejaVuSans-6e" x="611.669922"/>
      <use xlink:href="#DejaVuSans-20" x="675.048828"/>
      <use xlink:href="#DejaVuSans-4d" x="706.835938"/>
      <use xlink:href="#DejaVuSans-69" x="793.115234"/>
      <use xlink:href="#DejaVuSans-6c" x="820.898438"/>
      <use xlink:href="#DejaVuSans-6c" x="848.681641"/>
      <use xlink:href="#DejaVuSans-69" x="876.464844"/>
      <use xlink:href="#DejaVuSans-6f" x="904.248047"/>
      <use xlink:href="#DejaVuSans-6e" x="965.429688"/>
      <use xlink:href="#DejaVuSans-29" x="1028.808594"/>
     </g>
    </g>
   </g>
   <g id="matplotlib.axis_2">
    <g id="ytick_1">
     <g id="line2d_8">
      <path d="M 74.88 282.621342 
L 447.84 282.621342 
" clip-path="url(#p53063fd5eb)" style="fill: none; stroke: #ffffff; stroke-linecap: round"/>
     </g>
     <g id="text_9">
      <!-- 0 -->
      <g style="fill: #262626" transform="translate(58.38125 286.800482)scale(0.11 -0.11)">
       <use xlink:href="#DejaVuSans-30"/>
      </g>
     </g>
    </g>
    <g id="ytick_2">
     <g id="line2d_9">
      <path d="M 74.88 242.242888 
L 447.84 242.242888 
" clip-path="url(#p53063fd5eb)" style="fill: none; stroke: #ffffff; stroke-linecap: round"/>
     </g>
     <g id="text_10">
      <!-- 10000 -->
      <g style="fill: #262626" transform="translate(30.38625 246.422028)scale(0.11 -0.11)">
       <use xlink:href="#DejaVuSans-31"/>
       <use xlink:href="#DejaVuSans-30" x="63.623047"/>
       <use xlink:href="#DejaVuSans-30" x="127.246094"/>
       <use xlink:href="#DejaVuSans-30" x="190.869141"/>
       <use xlink:href="#DejaVuSans-30" x="254.492188"/>
      </g>
     </g>
    </g>
    <g id="ytick_3">
     <g id="line2d_10">
      <path d="M 74.88 201.864434 
L 447.84 201.864434 
" clip-path="url(#p53063fd5eb)" style="fill: none; stroke: #ffffff; stroke-linecap: round"/>
     </g>
     <g id="text_11">
      <!-- 20000 -->
      <g style="fill: #262626" transform="translate(30.38625 206.043575)scale(0.11 -0.11)">
       <use xlink:href="#DejaVuSans-32"/>
       <use xlink:href="#DejaVuSans-30" x="63.623047"/>
       <use xlink:href="#DejaVuSans-30" x="127.246094"/>
       <use xlink:href="#DejaVuSans-30" x="190.869141"/>
       <use xlink:href="#DejaVuSans-30" x="254.492188"/>
      </g>
     </g>
    </g>
    <g id="ytick_4">
     <g id="line2d_11">
      <path d="M 74.88 161.48598 
L 447.84 161.48598 
" clip-path="url(#p53063fd5eb)" style="fill: none; stroke: #ffffff; stroke-linecap: round"/>
     </g>
     <g id="text_12">
      <!-- 30000 -->
      <g style="fill: #262626" transform="translate(30.38625 165.665121)scale(0.11 -0.11)">
       <use xlink:href="#DejaVuSans-33"/>
       <use xlink:href="#DejaVuSans-30" x="63.623047"/>
       <use xlink:href="#DejaVuSans-30" x="127.246094"/>
       <use xlink:href="#DejaVuSans-30" x="190.869141"/>
       <use xlink:href="#DejaVuSans-30" x="254.492188"/>
      </g>
     </g>
    </g>
    <g id="ytick_5">
     <g id="line2d_12">
      <path d="M 74.88 121.107526 
L 447.84 121.107526 
" clip-path="url(#p53063fd5eb)" style="fill: none; stroke: #ffffff; stroke-linecap: round"/>
     </g>
     <g id="text_13">
      <!-- 40000 -->
      <g style="fill: #262626" transform="translate(30.38625 125.286667)scale(0.11 -0.11)">
       <defs>
        <path id="DejaVuSans-34" d="M 2419 4116 
L 825 1625 
L 2419 1625 
L 2419 4116 
z
M 2253 4666 
L 3047 4666 
L 3047 1625 
L 3713 1625 
L 3713 1100 
L 3047 1100 
L 3047 0 
L 2419 0 
L 2419 1100 
L 313 1100 
L 313 1709 
L 2253 4666 
z
" transform="scale(0.015625)"/>
       </defs>
       <use xlink:href="#DejaVuSans-34"/>
       <use xlink:href="#DejaVuSans-30" x="63.623047"/>
       <use xlink:href="#DejaVuSans-30" x="127.246094"/>
       <use xlink:href="#DejaVuSans-30" x="190.869141"/>
       <use xlink:href="#DejaVuSans-30" x="254.492188"/>
      </g>
     </g>
    </g>
    <g id="ytick_6">
     <g id="line2d_13">
      <path d="M 74.88 80.729072 
L 447.84 80.729072 
" clip-path="url(#p53063fd5eb)" style="fill: none; stroke: #ffffff; stroke-linecap: round"/>
     </g>
     <g id="text_14">
      <!-- 50000 -->
      <g style="fill: #262626" transform="translate(30.38625 84.908213)scale(0.11 -0.11)">
       <use xlink:href="#DejaVuSans-35"/>
       <use xlink:href="#DejaVuSans-30" x="63.623047"/>
       <use xlink:href="#DejaVuSans-30" x="127.246094"/>
       <use xlink:href="#DejaVuSans-30" x="190.869141"/>
       <use xlink:href="#DejaVuSans-30" x="254.492188"/>
      </g>
     </g>
    </g>
    <g id="ytick_7">
     <g id="line2d_14">
      <path d="M 74.88 40.350618 
L 447.84 40.350618 
" clip-path="url(#p53063fd5eb)" style="fill: none; stroke: #ffffff; stroke-linecap: round"/>
     </g>
     <g id="text_15">
      <!-- 60000 -->
      <g style="fill: #262626" transform="translate(30.38625 44.529759)scale(0.11 -0.11)">
       <defs>
        <path id="DejaVuSans-36" d="M 2113 2584 
Q 1688 2584 1439 2293 
Q 1191 2003 1191 1497 
Q 1191 994 1439 701 
Q 1688 409 2113 409 
Q 2538 409 2786 701 
Q 3034 994 3034 1497 
Q 3034 2003 2786 2293 
Q 2538 2584 2113 2584 
z
M 3366 4563 
L 3366 3988 
Q 3128 4100 2886 4159 
Q 2644 4219 2406 4219 
Q 1781 4219 1451 3797 
Q 1122 3375 1075 2522 
Q 1259 2794 1537 2939 
Q 1816 3084 2150 3084 
Q 2853 3084 3261 2657 
Q 3669 2231 3669 1497 
Q 3669 778 3244 343 
Q 2819 -91 2113 -91 
Q 1303 -91 875 529 
Q 447 1150 447 2328 
Q 447 3434 972 4092 
Q 1497 4750 2381 4750 
Q 2619 4750 2861 4703 
Q 3103 4656 3366 4563 
z
" transform="scale(0.015625)"/>
       </defs>
       <use xlink:href="#DejaVuSans-36"/>
       <use xlink:href="#DejaVuSans-30" x="63.623047"/>
       <use xlink:href="#DejaVuSans-30" x="127.246094"/>
       <use xlink:href="#DejaVuSans-30" x="190.869141"/>
       <use xlink:href="#DejaVuSans-30" x="254.492188"/>
      </g>
     </g>
    </g>
    <g id="text_16">
     <!-- Traintime -->
     <g style="fill: #262626" transform="translate(23.474687 194.815781)rotate(-90)scale(0.14 -0.14)">
      <defs>
       <path id="DejaVuSans-72" d="M 2631 2963 
Q 2534 3019 2420 3045 
Q 2306 3072 2169 3072 
Q 1681 3072 1420 2755 
Q 1159 2438 1159 1844 
L 1159 0 
L 581 0 
L 581 3500 
L 1159 3500 
L 1159 2956 
Q 1341 3275 1631 3429 
Q 1922 3584 2338 3584 
Q 2397 3584 2469 3576 
Q 2541 3569 2628 3553 
L 2631 2963 
z
" transform="scale(0.015625)"/>
       <path id="DejaVuSans-61" d="M 2194 1759 
Q 1497 1759 1228 1600 
Q 959 1441 959 1056 
Q 959 750 1161 570 
Q 1363 391 1709 391 
Q 2188 391 2477 730 
Q 2766 1069 2766 1631 
L 2766 1759 
L 2194 1759 
z
M 3341 1997 
L 3341 0 
L 2766 0 
L 2766 531 
Q 2569 213 2275 61 
Q 1981 -91 1556 -91 
Q 1019 -91 701 211 
Q 384 513 384 1019 
Q 384 1609 779 1909 
Q 1175 2209 1959 2209 
L 2766 2209 
L 2766 2266 
Q 2766 2663 2505 2880 
Q 2244 3097 1772 3097 
Q 1472 3097 1187 3025 
Q 903 2953 641 2809 
L 641 3341 
Q 956 3463 1253 3523 
Q 1550 3584 1831 3584 
Q 2591 3584 2966 3190 
Q 3341 2797 3341 1997 
z
" transform="scale(0.015625)"/>
      </defs>
      <use xlink:href="#DejaVuSans-54"/>
      <use xlink:href="#DejaVuSans-72" x="46.333984"/>
      <use xlink:href="#DejaVuSans-61" x="87.447266"/>
      <use xlink:href="#DejaVuSans-69" x="148.726562"/>
      <use xlink:href="#DejaVuSans-6e" x="176.509766"/>
      <use xlink:href="#DejaVuSans-74" x="239.888672"/>
      <use xlink:href="#DejaVuSans-69" x="279.097656"/>
      <use xlink:href="#DejaVuSans-6d" x="306.880859"/>
      <use xlink:href="#DejaVuSans-65" x="404.292969"/>
     </g>
    </g>
   </g>
   <g id="PolyCollection_1">
    <defs>
     <path id="m3026d86d81" d="M 91.832727 -62.980909 
L 91.832727 -62.98106 
L 94.681925 -62.983436 
L 97.531123 -62.985876 
L 100.380321 -62.988203 
L 103.229519 -63.008326 
L 106.078717 -63.028183 
L 108.927914 -63.048385 
L 111.777112 -63.068544 
L 114.62631 -63.088548 
L 117.475508 -63.108716 
L 120.324706 -63.128654 
L 123.173904 -63.148383 
L 126.023102 -63.168086 
L 128.872299 -63.187489 
L 131.721497 -63.206812 
L 134.570695 -63.226459 
L 137.419893 -63.245843 
L 140.269091 -63.264932 
L 143.118289 -63.284474 
L 145.967487 -63.303781 
L 148.816684 -63.323257 
L 151.665882 -63.342726 
L 154.51508 -63.362283 
L 157.364278 -63.382079 
L 160.213476 -63.401464 
L 163.062674 -63.421109 
L 165.911872 -63.439979 
L 168.76107 -63.459717 
L 171.610267 -63.478883 
L 174.459465 -63.498253 
L 177.308663 -63.517455 
L 180.157861 -63.537293 
L 183.007059 -63.556781 
L 185.856257 -63.576844 
L 188.705455 -63.597262 
L 191.554652 -63.617417 
L 194.40385 -63.636816 
L 197.253048 -63.656123 
L 200.102246 -63.676518 
L 202.951444 -63.695754 
L 205.800642 -63.714793 
L 208.64984 -63.734346 
L 211.499037 -63.754025 
L 214.348235 -63.772976 
L 217.197433 -63.791702 
L 220.046631 -63.810665 
L 222.895829 -63.829801 
L 225.745027 -63.848596 
L 228.594225 -63.867605 
L 231.443422 -63.886515 
L 234.29262 -63.905758 
L 237.141818 -63.924872 
L 239.991016 -63.943924 
L 242.840214 -63.962673 
L 245.689412 -63.981775 
L 248.53861 -64.001357 
L 251.387807 -64.020892 
L 254.237005 -64.040379 
L 257.086203 -64.059463 
L 259.935401 -64.079008 
L 262.784599 -64.098357 
L 265.633797 -64.117869 
L 268.482995 -64.137492 
L 271.332193 -64.157292 
L 274.18139 -64.176558 
L 277.030588 -64.196115 
L 279.879786 -64.215468 
L 282.728984 -64.234634 
L 285.578182 -64.254427 
L 288.42738 -64.273855 
L 291.276578 -64.293312 
L 294.125775 -64.312944 
L 296.974973 -64.332161 
L 299.824171 -64.351126 
L 302.673369 -64.370402 
L 305.522567 -64.389536 
L 308.371765 -64.408692 
L 311.220963 -64.428383 
L 314.07016 -64.447461 
L 316.919358 -64.466693 
L 319.768556 -64.485519 
L 322.617754 -64.504834 
L 325.466952 -64.524305 
L 328.31615 -64.543305 
L 331.165348 -64.562586 
L 334.014545 -64.581867 
L 336.863743 -64.60073 
L 339.712941 -64.620086 
L 342.562139 -64.639399 
L 345.411337 -64.658509 
L 348.260535 -64.678383 
L 351.109733 -64.697625 
L 353.95893 -64.71718 
L 356.808128 -64.736637 
L 359.657326 -64.756279 
L 362.506524 -64.775772 
L 365.355722 -64.795561 
L 368.20492 -64.81482 
L 371.054118 -64.833762 
L 373.903316 -64.852721 
L 376.752513 -64.872561 
L 379.601711 -64.89155 
L 382.450909 -64.911066 
L 385.300107 -64.930504 
L 388.149305 -64.949578 
L 390.998503 -64.968196 
L 393.847701 -64.987639 
L 396.696898 -65.007279 
L 399.546096 -65.026328 
L 402.395294 -65.045095 
L 405.244492 -65.064337 
L 408.09369 -65.084102 
L 410.942888 -65.103601 
L 413.792086 -65.122901 
L 416.641283 -65.141933 
L 419.490481 -65.160977 
L 422.339679 -65.180101 
L 425.188877 -65.199853 
L 428.038075 -65.219051 
L 430.887273 -65.23814 
L 430.887273 -65.201183 
L 430.887273 -65.201183 
L 428.038075 -65.181996 
L 425.188877 -65.163248 
L 422.339679 -65.143974 
L 419.490481 -65.125366 
L 416.641283 -65.10616 
L 413.792086 -65.086985 
L 410.942888 -65.067869 
L 408.09369 -65.049311 
L 405.244492 -65.030297 
L 402.395294 -65.010965 
L 399.546096 -64.992111 
L 396.696898 -64.973337 
L 393.847701 -64.954328 
L 390.998503 -64.935319 
L 388.149305 -64.916086 
L 385.300107 -64.896857 
L 382.450909 -64.878028 
L 379.601711 -64.85911 
L 376.752513 -64.840008 
L 373.903316 -64.820821 
L 371.054118 -64.801649 
L 368.20492 -64.782785 
L 365.355722 -64.76414 
L 362.506524 -64.745413 
L 359.657326 -64.725947 
L 356.808128 -64.707108 
L 353.95893 -64.688308 
L 351.109733 -64.669529 
L 348.260535 -64.650349 
L 345.411337 -64.631409 
L 342.562139 -64.612114 
L 339.712941 -64.593489 
L 336.863743 -64.57421 
L 334.014545 -64.555316 
L 331.165348 -64.536637 
L 328.31615 -64.518027 
L 325.466952 -64.499102 
L 322.617754 -64.48008 
L 319.768556 -64.460725 
L 316.919358 -64.441346 
L 314.07016 -64.4226 
L 311.220963 -64.403645 
L 308.371765 -64.385057 
L 305.522567 -64.365785 
L 302.673369 -64.346903 
L 299.824171 -64.327811 
L 296.974973 -64.308827 
L 294.125775 -64.289875 
L 291.276578 -64.27093 
L 288.42738 -64.251455 
L 285.578182 -64.2322 
L 282.728984 -64.213504 
L 279.879786 -64.194789 
L 277.030588 -64.175824 
L 274.18139 -64.157018 
L 271.332193 -64.138321 
L 268.482995 -64.119841 
L 265.633797 -64.101022 
L 262.784599 -64.082243 
L 259.935401 -64.063035 
L 257.086203 -64.043991 
L 254.237005 -64.025294 
L 251.387807 -64.006557 
L 248.53861 -63.9873 
L 245.689412 -63.968022 
L 242.840214 -63.948805 
L 239.991016 -63.92904 
L 237.141818 -63.909792 
L 234.29262 -63.890193 
L 231.443422 -63.870465 
L 228.594225 -63.850889 
L 225.745027 -63.831773 
L 222.895829 -63.812695 
L 220.046631 -63.792909 
L 217.197433 -63.772992 
L 214.348235 -63.753741 
L 211.499037 -63.734791 
L 208.64984 -63.715795 
L 205.800642 -63.696635 
L 202.951444 -63.676897 
L 200.102246 -63.658131 
L 197.253048 -63.639329 
L 194.40385 -63.62015 
L 191.554652 -63.600842 
L 188.705455 -63.58159 
L 185.856257 -63.562102 
L 183.007059 -63.542587 
L 180.157861 -63.523337 
L 177.308663 -63.504243 
L 174.459465 -63.485455 
L 171.610267 -63.466083 
L 168.76107 -63.447001 
L 165.911872 -63.428182 
L 163.062674 -63.40952 
L 160.213476 -63.390206 
L 157.364278 -63.370881 
L 154.51508 -63.35172 
L 151.665882 -63.332561 
L 148.816684 -63.313356 
L 145.967487 -63.294365 
L 143.118289 -63.275433 
L 140.269091 -63.255709 
L 137.419893 -63.236913 
L 134.570695 -63.218083 
L 131.721497 -63.198529 
L 128.872299 -63.179335 
L 126.023102 -63.160821 
L 123.173904 -63.141892 
L 120.324706 -63.122543 
L 117.475508 -63.103115 
L 114.62631 -63.084082 
L 111.777112 -63.064686 
L 108.927914 -63.045028 
L 106.078717 -63.02578 
L 103.229519 -63.006592 
L 100.380321 -62.987584 
L 97.531123 -62.98538 
L 94.681925 -62.983159 
L 91.832727 -62.980909 
z
" style="stroke: #ffffff; stroke-opacity: 0.5"/>
    </defs>
    <g clip-path="url(#p53063fd5eb)">
     <use xlink:href="#m3026d86d81" x="0" y="345.6" style="fill: #4c72b0; fill-opacity: 0.5; stroke: #ffffff; stroke-opacity: 0.5"/>
    </g>
   </g>
   <g id="PolyCollection_2">
    <defs>
     <path id="m5310b1fb3e" d="M 91.832727 -62.981007 
L 91.832727 -62.981152 
L 94.681925 -62.983575 
L 97.531123 -62.985981 
L 100.380321 -62.988313 
L 103.229519 -63.009922 
L 106.078717 -63.032 
L 108.927914 -63.053434 
L 111.777112 -63.074788 
L 114.62631 -63.096013 
L 117.475508 -63.117797 
L 120.324706 -63.13925 
L 123.173904 -63.16039 
L 126.023102 -63.181776 
L 128.872299 -63.20317 
L 131.721497 -63.224036 
L 134.570695 -63.245446 
L 137.419893 -63.266561 
L 140.269091 -63.288012 
L 143.118289 -63.309033 
L 145.967487 -63.330329 
L 148.816684 -63.352058 
L 151.665882 -63.373049 
L 154.51508 -63.394509 
L 157.364278 -63.416212 
L 160.213476 -63.437443 
L 163.062674 -63.458672 
L 165.911872 -63.480059 
L 168.76107 -63.501503 
L 171.610267 -63.522767 
L 174.459465 -63.543737 
L 177.308663 -63.565032 
L 180.157861 -63.587009 
L 183.007059 -63.608159 
L 185.856257 -63.629452 
L 188.705455 -63.650422 
L 191.554652 -63.671889 
L 194.40385 -63.693718 
L 197.253048 -63.714945 
L 200.102246 -63.736129 
L 202.951444 -63.757309 
L 205.800642 -63.778868 
L 208.64984 -63.800299 
L 211.499037 -63.821563 
L 214.348235 -63.842855 
L 217.197433 -63.863954 
L 220.046631 -63.885269 
L 222.895829 -63.906573 
L 225.745027 -63.928294 
L 228.594225 -63.948794 
L 231.443422 -63.970376 
L 234.29262 -63.991638 
L 237.141818 -64.012481 
L 239.991016 -64.034498 
L 242.840214 -64.055786 
L 245.689412 -64.07737 
L 248.53861 -64.098595 
L 251.387807 -64.119758 
L 254.237005 -64.141092 
L 257.086203 -64.162308 
L 259.935401 -64.183327 
L 262.784599 -64.204418 
L 265.633797 -64.225643 
L 268.482995 -64.247585 
L 271.332193 -64.268604 
L 274.18139 -64.289521 
L 277.030588 -64.31055 
L 279.879786 -64.331528 
L 282.728984 -64.35285 
L 285.578182 -64.373693 
L 288.42738 -64.395147 
L 291.276578 -64.416363 
L 294.125775 -64.437126 
L 296.974973 -64.457948 
L 299.824171 -64.479299 
L 302.673369 -64.500508 
L 305.522567 -64.522153 
L 308.371765 -64.543703 
L 311.220963 -64.565276 
L 314.07016 -64.586386 
L 316.919358 -64.607246 
L 319.768556 -64.628917 
L 322.617754 -64.6498 
L 325.466952 -64.670775 
L 328.31615 -64.692806 
L 331.165348 -64.714074 
L 334.014545 -64.7354 
L 336.863743 -64.756618 
L 339.712941 -64.777453 
L 342.562139 -64.79819 
L 345.411337 -64.819149 
L 348.260535 -64.840083 
L 351.109733 -64.861671 
L 353.95893 -64.88261 
L 356.808128 -64.903482 
L 359.657326 -64.924787 
L 362.506524 -64.945706 
L 365.355722 -64.966263 
L 368.20492 -64.987617 
L 371.054118 -65.008896 
L 373.903316 -65.030608 
L 376.752513 -65.051651 
L 379.601711 -65.073273 
L 382.450909 -65.094479 
L 385.300107 -65.115451 
L 388.149305 -65.136616 
L 390.998503 -65.157883 
L 393.847701 -65.17941 
L 396.696898 -65.200659 
L 399.546096 -65.221568 
L 402.395294 -65.242487 
L 405.244492 -65.263282 
L 408.09369 -65.284734 
L 410.942888 -65.306326 
L 413.792086 -65.327243 
L 416.641283 -65.348656 
L 419.490481 -65.370601 
L 422.339679 -65.391497 
L 425.188877 -65.412864 
L 428.038075 -65.434056 
L 430.887273 -65.456007 
L 430.887273 -65.414284 
L 430.887273 -65.414284 
L 428.038075 -65.393602 
L 425.188877 -65.372941 
L 422.339679 -65.352045 
L 419.490481 -65.329765 
L 416.641283 -65.308775 
L 413.792086 -65.287465 
L 410.942888 -65.266376 
L 408.09369 -65.245453 
L 405.244492 -65.223582 
L 402.395294 -65.202269 
L 399.546096 -65.180452 
L 396.696898 -65.159704 
L 393.847701 -65.139225 
L 390.998503 -65.118077 
L 388.149305 -65.097221 
L 385.300107 -65.076618 
L 382.450909 -65.056041 
L 379.601711 -65.035471 
L 376.752513 -65.014887 
L 373.903316 -64.994137 
L 371.054118 -64.973315 
L 368.20492 -64.952685 
L 365.355722 -64.932012 
L 362.506524 -64.911281 
L 359.657326 -64.890742 
L 356.808128 -64.869953 
L 353.95893 -64.848652 
L 351.109733 -64.828408 
L 348.260535 -64.807863 
L 345.411337 -64.786627 
L 342.562139 -64.765828 
L 339.712941 -64.745149 
L 336.863743 -64.72407 
L 334.014545 -64.703484 
L 331.165348 -64.683188 
L 328.31615 -64.66239 
L 325.466952 -64.641278 
L 322.617754 -64.620593 
L 319.768556 -64.59962 
L 316.919358 -64.578982 
L 314.07016 -64.557777 
L 311.220963 -64.536659 
L 308.371765 -64.515291 
L 305.522567 -64.494617 
L 302.673369 -64.473498 
L 299.824171 -64.45226 
L 296.974973 -64.430994 
L 294.125775 -64.409884 
L 291.276578 -64.389219 
L 288.42738 -64.36865 
L 285.578182 -64.347798 
L 282.728984 -64.326654 
L 279.879786 -64.30588 
L 277.030588 -64.284972 
L 274.18139 -64.264352 
L 271.332193 -64.243542 
L 268.482995 -64.223155 
L 265.633797 -64.202018 
L 262.784599 -64.180956 
L 259.935401 -64.160365 
L 257.086203 -64.139317 
L 254.237005 -64.117789 
L 251.387807 -64.096633 
L 248.53861 -64.074642 
L 245.689412 -64.053696 
L 242.840214 -64.033302 
L 239.991016 -64.012595 
L 237.141818 -63.991673 
L 234.29262 -63.970914 
L 231.443422 -63.950463 
L 228.594225 -63.92979 
L 225.745027 -63.908613 
L 222.895829 -63.887971 
L 220.046631 -63.86727 
L 217.197433 -63.845989 
L 214.348235 -63.825284 
L 211.499037 -63.804384 
L 208.64984 -63.783566 
L 205.800642 -63.763157 
L 202.951444 -63.742315 
L 200.102246 -63.721542 
L 197.253048 -63.700297 
L 194.40385 -63.679261 
L 191.554652 -63.658269 
L 188.705455 -63.637623 
L 185.856257 -63.616534 
L 183.007059 -63.595082 
L 180.157861 -63.574237 
L 177.308663 -63.553107 
L 174.459465 -63.53211 
L 171.610267 -63.51065 
L 168.76107 -63.489974 
L 165.911872 -63.469578 
L 163.062674 -63.448935 
L 160.213476 -63.427819 
L 157.364278 -63.406907 
L 154.51508 -63.386158 
L 151.665882 -63.365311 
L 148.816684 -63.344617 
L 145.967487 -63.323651 
L 143.118289 -63.302468 
L 140.269091 -63.281825 
L 137.419893 -63.260999 
L 134.570695 -63.24004 
L 131.721497 -63.219254 
L 128.872299 -63.198757 
L 126.023102 -63.177149 
L 123.173904 -63.156821 
L 120.324706 -63.135929 
L 117.475508 -63.114437 
L 114.62631 -63.093917 
L 111.777112 -63.072777 
L 108.927914 -63.051668 
L 106.078717 -63.031136 
L 103.229519 -63.009673 
L 100.380321 -62.987981 
L 97.531123 -62.985681 
L 94.681925 -62.983345 
L 91.832727 -62.981007 
z
" style="stroke: #ffffff; stroke-opacity: 0.5"/>
    </defs>
    <g clip-path="url(#p53063fd5eb)">
     <use xlink:href="#m5310b1fb3e" x="0" y="345.6" style="fill: #dd8452; fill-opacity: 0.5; stroke: #ffffff; stroke-opacity: 0.5"/>
    </g>
   </g>
   <g id="PolyCollection_3">
    <defs>
     <path id="m5ed1c9fd68" d="M 91.832727 -62.992971 
L 91.832727 -62.993352 
L 94.681925 -63.008681 
L 97.531123 -63.024373 
L 100.380321 -63.039787 
L 103.229519 -65.109021 
L 106.078717 -67.120442 
L 108.927914 -69.130811 
L 111.777112 -71.192633 
L 114.62631 -73.227764 
L 117.475508 -75.311164 
L 120.324706 -77.413474 
L 123.173904 -79.529409 
L 126.023102 -81.489391 
L 128.872299 -83.479522 
L 131.721497 -85.479842 
L 134.570695 -87.507596 
L 137.419893 -89.544178 
L 140.269091 -91.623439 
L 143.118289 -93.69891 
L 145.967487 -95.803254 
L 148.816684 -97.914461 
L 151.665882 -100.044415 
L 154.51508 -102.181354 
L 157.364278 -104.348922 
L 160.213476 -106.318347 
L 163.062674 -108.313455 
L 165.911872 -110.319633 
L 168.76107 -112.349213 
L 171.610267 -114.390888 
L 174.459465 -116.495186 
L 177.308663 -118.581945 
L 180.157861 -120.69034 
L 183.007059 -122.782438 
L 185.856257 -124.910514 
L 188.705455 -127.039865 
L 191.554652 -129.205888 
L 194.40385 -131.184031 
L 197.253048 -133.176783 
L 200.102246 -135.178123 
L 202.951444 -137.210083 
L 205.800642 -139.252215 
L 208.64984 -141.305043 
L 211.499037 -143.38814 
L 214.348235 -145.493959 
L 217.197433 -147.606868 
L 220.046631 -149.74224 
L 222.895829 -151.872667 
L 225.745027 -154.032579 
L 228.594225 -156.002862 
L 231.443422 -158.00879 
L 234.29262 -160.022731 
L 237.141818 -162.063541 
L 239.991016 -164.107272 
L 242.840214 -166.178656 
L 245.689412 -168.252734 
L 248.53861 -170.359336 
L 251.387807 -172.46327 
L 254.237005 -174.591992 
L 257.086203 -176.724525 
L 259.935401 -178.905859 
L 262.784599 -180.872955 
L 265.633797 -182.86788 
L 268.482995 -184.878215 
L 271.332193 -186.931587 
L 274.18139 -188.994276 
L 277.030588 -191.065225 
L 279.879786 -193.145542 
L 282.728984 -195.242086 
L 285.578182 -197.359727 
L 288.42738 -199.490787 
L 291.276578 -201.631922 
L 294.125775 -203.792274 
L 296.974973 -205.760488 
L 299.824171 -207.754006 
L 302.673369 -209.783609 
L 305.522567 -211.838123 
L 308.371765 -213.894895 
L 311.220963 -215.969771 
L 314.07016 -218.064022 
L 316.919358 -220.171169 
L 319.768556 -222.278852 
L 322.617754 -224.418046 
L 325.466952 -226.590986 
L 328.31615 -228.779983 
L 331.165348 -230.769591 
L 334.014545 -232.775697 
L 336.863743 -234.791315 
L 339.712941 -236.827092 
L 342.562139 -238.87549 
L 345.411337 -240.944409 
L 348.260535 -243.023251 
L 351.109733 -245.141769 
L 353.95893 -247.288203 
L 356.808128 -249.433118 
L 359.657326 -251.594746 
L 362.506524 -253.789703 
L 365.355722 -255.78469 
L 368.20492 -257.799972 
L 371.054118 -259.826537 
L 373.903316 -261.884089 
L 376.752513 -263.954378 
L 379.601711 -266.056137 
L 382.450909 -268.164004 
L 385.300107 -270.293063 
L 388.149305 -272.423729 
L 390.998503 -274.563776 
L 393.847701 -276.711136 
L 396.696898 -278.888457 
L 399.546096 -280.864076 
L 402.395294 -282.86757 
L 405.244492 -284.880509 
L 408.09369 -286.918168 
L 410.942888 -288.96505 
L 413.792086 -291.039341 
L 416.641283 -293.123682 
L 419.490481 -295.238519 
L 422.339679 -297.343004 
L 425.188877 -299.473206 
L 428.038075 -301.611623 
L 430.887273 -303.799091 
L 430.887273 -303.349534 
L 430.887273 -303.349534 
L 428.038075 -301.167749 
L 425.188877 -299.020162 
L 422.339679 -296.882705 
L 419.490481 -294.76948 
L 416.641283 -292.667337 
L 413.792086 -290.584736 
L 410.942888 -288.510743 
L 408.09369 -286.445187 
L 405.244492 -284.393943 
L 402.395294 -282.368991 
L 399.546096 -280.367003 
L 396.696898 -278.387096 
L 393.847701 -276.19573 
L 390.998503 -274.035679 
L 388.149305 -271.898899 
L 385.300107 -269.792119 
L 382.450909 -267.683292 
L 379.601711 -265.607429 
L 376.752513 -263.537538 
L 373.903316 -261.501706 
L 371.054118 -259.462206 
L 368.20492 -257.455155 
L 365.355722 -255.452022 
L 362.506524 -253.471629 
L 359.657326 -251.297823 
L 356.808128 -249.160205 
L 353.95893 -247.034143 
L 351.109733 -244.912518 
L 348.260535 -242.811041 
L 345.411337 -240.73609 
L 342.562139 -238.665019 
L 339.712941 -236.618703 
L 336.863743 -234.586873 
L 334.014545 -232.579535 
L 331.165348 -230.580932 
L 328.31615 -228.618281 
L 325.466952 -226.451797 
L 322.617754 -224.3169 
L 319.768556 -222.196541 
L 316.919358 -220.090187 
L 314.07016 -217.991385 
L 311.220963 -215.912949 
L 308.371765 -213.846404 
L 305.522567 -211.798918 
L 302.673369 -209.756769 
L 299.824171 -207.747517 
L 296.974973 -205.739571 
L 294.125775 -203.766689 
L 291.276578 -201.584261 
L 288.42738 -199.445803 
L 285.578182 -197.319502 
L 282.728984 -195.213231 
L 279.879786 -193.114992 
L 277.030588 -191.042237 
L 274.18139 -188.959048 
L 271.332193 -186.913743 
L 268.482995 -184.87629 
L 265.633797 -182.864844 
L 262.784599 -180.863832 
L 259.935401 -178.887378 
L 257.086203 -176.721884 
L 254.237005 -174.537987 
L 251.387807 -172.408012 
L 248.53861 -170.322479 
L 245.689412 -168.238348 
L 242.840214 -166.167993 
L 239.991016 -164.084374 
L 237.141818 -162.018734 
L 234.29262 -159.955942 
L 231.443422 -157.946265 
L 228.594225 -155.945292 
L 225.745027 -153.977442 
L 222.895829 -151.803054 
L 220.046631 -149.670648 
L 217.197433 -147.540913 
L 214.348235 -145.42455 
L 211.499037 -143.320794 
L 208.64984 -141.248608 
L 205.800642 -139.189033 
L 202.951444 -137.154702 
L 200.102246 -135.129255 
L 197.253048 -133.126118 
L 194.40385 -131.135449 
L 191.554652 -129.152324 
L 188.705455 -126.979123 
L 185.856257 -124.845455 
L 183.007059 -122.73542 
L 180.157861 -120.631092 
L 177.308663 -118.531046 
L 174.459465 -116.461308 
L 171.610267 -114.385998 
L 168.76107 -112.339404 
L 165.911872 -110.316839 
L 163.062674 -108.309691 
L 160.213476 -106.315295 
L 157.364278 -104.331526 
L 154.51508 -102.14408 
L 151.665882 -99.982487 
L 148.816684 -97.857016 
L 145.967487 -95.767417 
L 143.118289 -93.673588 
L 140.269091 -91.596463 
L 137.419893 -89.541027 
L 134.570695 -87.502528 
L 131.721497 -85.464938 
L 128.872299 -83.459344 
L 126.023102 -81.467272 
L 123.173904 -79.498542 
L 120.324706 -77.367289 
L 117.475508 -75.268632 
L 114.62631 -73.16634 
L 111.777112 -71.113575 
L 108.927914 -69.072392 
L 106.078717 -67.052747 
L 103.229519 -65.048974 
L 100.380321 -63.039625 
L 97.531123 -63.024141 
L 94.681925 -63.00837 
L 91.832727 -62.992971 
z
" style="stroke: #ffffff; stroke-opacity: 0.5"/>
    </defs>
    <g clip-path="url(#p53063fd5eb)">
     <use xlink:href="#m5ed1c9fd68" x="0" y="345.6" style="fill: #55a868; fill-opacity: 0.5; stroke: #ffffff; stroke-opacity: 0.5"/>
    </g>
   </g>
   <g id="line2d_15">
    <path d="M 91.832727 282.619027 
L 94.681925 282.616724 
L 97.531123 282.614429 
L 100.380321 282.612168 
L 103.229519 282.59256 
L 106.078717 282.572994 
L 108.927914 282.55347 
L 111.777112 282.533879 
L 114.62631 282.514399 
L 117.475508 282.495036 
L 120.324706 282.475544 
L 123.173904 282.456023 
L 126.023102 282.436596 
L 128.872299 282.417225 
L 131.721497 282.397746 
L 134.570695 282.378235 
L 137.419893 282.358737 
L 140.269091 282.339343 
L 143.118289 282.319501 
L 145.967487 282.299939 
L 148.816684 282.280569 
L 151.665882 282.261078 
L 154.51508 282.241538 
L 157.364278 282.221996 
L 160.213476 282.202519 
L 163.062674 282.18303 
L 165.911872 282.164 
L 168.76107 282.144762 
L 171.610267 282.125356 
L 174.459465 282.106078 
L 177.308663 282.086693 
L 180.157861 282.067244 
L 183.007059 282.047652 
L 185.856257 282.028307 
L 188.705455 282.00882 
L 191.554652 281.989474 
L 194.40385 281.970049 
L 197.253048 281.95085 
L 200.102246 281.93144 
L 202.951444 281.912418 
L 205.800642 281.893081 
L 208.64984 281.873812 
L 211.499037 281.854617 
L 214.348235 281.835667 
L 217.197433 281.81671 
L 220.046631 281.797552 
L 222.895829 281.778305 
L 225.745027 281.759212 
L 228.594225 281.740184 
L 231.443422 281.720915 
L 234.29262 281.701682 
L 237.141818 281.68233 
L 239.991016 281.663201 
L 242.840214 281.643953 
L 245.689412 281.624907 
L 248.53861 281.605564 
L 251.387807 281.586369 
L 254.237005 281.567151 
L 257.086203 281.548128 
L 259.935401 281.529087 
L 262.784599 281.50988 
L 265.633797 281.490794 
L 268.482995 281.471749 
L 271.332193 281.452604 
L 274.18139 281.433635 
L 277.030588 281.414805 
L 279.879786 281.395798 
L 282.728984 281.376737 
L 285.578182 281.357561 
L 288.42738 281.338381 
L 291.276578 281.318986 
L 294.125775 281.299912 
L 296.974973 281.280716 
L 299.824171 281.261644 
L 302.673369 281.242469 
L 305.522567 281.223347 
L 308.371765 281.204326 
L 311.220963 281.185346 
L 314.07016 281.166514 
L 316.919358 281.147552 
L 319.768556 281.128483 
L 322.617754 281.109271 
L 325.466952 281.090148 
L 328.31615 281.071081 
L 331.165348 281.052028 
L 334.014545 281.033065 
L 336.863743 281.014032 
L 339.712941 280.994692 
L 342.562139 280.975801 
L 345.411337 280.956639 
L 348.260535 280.937282 
L 351.109733 280.918183 
L 353.95893 280.899138 
L 356.808128 280.879948 
L 359.657326 280.860804 
L 362.506524 280.841122 
L 365.355722 280.821862 
L 368.20492 280.802702 
L 371.054118 280.783631 
L 373.903316 280.764524 
L 376.752513 280.745198 
L 379.601711 280.726187 
L 382.450909 280.706934 
L 385.300107 280.687664 
L 388.149305 280.668545 
L 390.998503 280.649551 
L 393.847701 280.630227 
L 396.696898 280.61117 
L 399.546096 280.59218 
L 402.395294 280.573243 
L 405.244492 280.554144 
L 408.09369 280.535009 
L 410.942888 280.515778 
L 413.792086 280.496613 
L 416.641283 280.477529 
L 419.490481 280.458377 
L 422.339679 280.439408 
L 425.188877 280.420131 
L 428.038075 280.401028 
L 430.887273 280.381877 
" clip-path="url(#p53063fd5eb)" style="fill: none; stroke: #4c72b0; stroke-width: 3; stroke-linecap: round"/>
   </g>
   <g id="line2d_16">
    <path d="M 91.832727 282.618947 
L 94.681925 282.616574 
L 97.531123 282.614215 
L 100.380321 282.611872 
L 103.229519 282.590178 
L 106.078717 282.56853 
L 108.927914 282.547303 
L 111.777112 282.526159 
L 114.62631 282.504902 
L 117.475508 282.483666 
L 120.324706 282.462276 
L 123.173904 282.441191 
L 126.023102 282.420289 
L 128.872299 282.398921 
L 131.721497 282.378021 
L 134.570695 282.356812 
L 137.419893 282.335842 
L 140.269091 282.314702 
L 143.118289 282.29363 
L 145.967487 282.272492 
L 148.816684 282.251268 
L 151.665882 282.230168 
L 154.51508 282.209173 
L 157.364278 282.188224 
L 160.213476 282.167242 
L 163.062674 282.146118 
L 165.911872 282.125105 
L 168.76107 282.104159 
L 171.610267 282.083252 
L 174.459465 282.062177 
L 177.308663 282.040964 
L 180.157861 282.019656 
L 183.007059 281.998508 
L 185.856257 281.977219 
L 188.705455 281.956112 
L 191.554652 281.935042 
L 194.40385 281.913767 
L 197.253048 281.892482 
L 200.102246 281.871382 
L 202.951444 281.850273 
L 205.800642 281.829229 
L 208.64984 281.808035 
L 211.499037 281.787011 
L 214.348235 281.765805 
L 217.197433 281.744733 
L 220.046631 281.723662 
L 222.895829 281.702524 
L 225.745027 281.681447 
L 228.594225 281.660482 
L 231.443422 281.639246 
L 234.29262 281.618318 
L 237.141818 281.59726 
L 239.991016 281.576069 
L 242.840214 281.554945 
L 245.689412 281.53388 
L 248.53861 281.51283 
L 251.387807 281.49159 
L 254.237005 281.470325 
L 257.086203 281.449221 
L 259.935401 281.428172 
L 262.784599 281.407203 
L 265.633797 281.386108 
L 268.482995 281.364601 
L 271.332193 281.343753 
L 274.18139 281.322476 
L 277.030588 281.301407 
L 279.879786 281.280245 
L 282.728984 281.259004 
L 285.578182 281.237929 
L 288.42738 281.216613 
L 291.276578 281.195638 
L 294.125775 281.17472 
L 296.974973 281.153743 
L 299.824171 281.132545 
L 302.673369 281.111394 
L 305.522567 281.090222 
L 308.371765 281.069029 
L 311.220963 281.047763 
L 314.07016 281.02652 
L 316.919358 281.005536 
L 319.768556 280.984521 
L 322.617754 280.963507 
L 325.466952 280.942539 
L 328.31615 280.921193 
L 331.165348 280.900112 
L 334.014545 280.87881 
L 336.863743 280.857742 
L 339.712941 280.836587 
L 342.562139 280.81554 
L 345.411337 280.794567 
L 348.260535 280.773095 
L 351.109733 280.752085 
L 353.95893 280.73118 
L 356.808128 280.709887 
L 359.657326 280.6889 
L 362.506524 280.667909 
L 365.355722 280.646994 
L 368.20492 280.626085 
L 371.054118 280.605092 
L 373.903316 280.583863 
L 376.752513 280.562921 
L 379.601711 280.541815 
L 382.450909 280.520765 
L 385.300107 280.499866 
L 388.149305 280.47893 
L 390.998503 280.457829 
L 393.847701 280.436596 
L 396.696898 280.415738 
L 399.546096 280.394834 
L 402.395294 280.373401 
L 405.244492 280.352399 
L 408.09369 280.331075 
L 410.942888 280.310089 
L 413.792086 280.289257 
L 416.641283 280.268098 
L 419.490481 280.24684 
L 422.339679 280.225598 
L 425.188877 280.204312 
L 428.038075 280.183164 
L 430.887273 280.161778 
" clip-path="url(#p53063fd5eb)" style="fill: none; stroke: #dd8452; stroke-width: 3; stroke-linecap: round"/>
   </g>
   <g id="line2d_17">
    <path d="M 91.832727 282.606838 
L 94.681925 282.591474 
L 97.531123 282.575743 
L 100.380321 282.560294 
L 103.229519 280.521002 
L 106.078717 278.513405 
L 108.927914 276.498398 
L 111.777112 274.446896 
L 114.62631 272.402948 
L 117.475508 270.310102 
L 120.324706 268.209618 
L 123.173904 266.086025 
L 126.023102 264.121669 
L 128.872299 262.130567 
L 131.721497 260.12761 
L 134.570695 258.094938 
L 137.419893 256.057397 
L 140.269091 253.990049 
L 143.118289 251.913751 
L 145.967487 249.814665 
L 148.816684 247.714262 
L 151.665882 245.586549 
L 154.51508 243.437283 
L 157.364278 241.259776 
L 160.213476 239.283179 
L 163.062674 237.288427 
L 165.911872 235.281764 
L 168.76107 233.255691 
L 171.610267 231.211557 
L 174.459465 229.121753 
L 177.308663 227.043504 
L 180.157861 224.939284 
L 183.007059 222.841071 
L 185.856257 220.722015 
L 188.705455 218.590506 
L 191.554652 216.420894 
L 194.40385 214.44026 
L 197.253048 212.44855 
L 200.102246 210.446311 
L 202.951444 208.417607 
L 205.800642 206.379376 
L 208.64984 204.323174 
L 211.499037 202.245533 
L 214.348235 200.140745 
L 217.197433 198.026109 
L 220.046631 195.893556 
L 222.895829 193.762139 
L 225.745027 191.594989 
L 228.594225 189.625923 
L 231.443422 187.622473 
L 234.29262 185.610663 
L 237.141818 183.558862 
L 239.991016 181.504177 
L 242.840214 179.426676 
L 245.689412 177.354459 
L 248.53861 175.259093 
L 251.387807 173.164359 
L 254.237005 171.035011 
L 257.086203 168.876795 
L 259.935401 166.703381 
L 262.784599 164.731607 
L 265.633797 162.733638 
L 268.482995 160.722748 
L 271.332193 158.677335 
L 274.18139 156.623338 
L 277.030588 154.546269 
L 279.879786 152.469733 
L 282.728984 150.372342 
L 285.578182 148.260385 
L 288.42738 146.131705 
L 291.276578 143.991909 
L 294.125775 141.820519 
L 296.974973 139.84997 
L 299.824171 137.849238 
L 302.673369 135.829811 
L 305.522567 133.781479 
L 308.371765 131.72935 
L 311.220963 129.65864 
L 314.07016 127.572296 
L 316.919358 125.469322 
L 319.768556 123.362304 
L 322.617754 121.232527 
L 325.466952 119.078608 
L 328.31615 116.900868 
L 331.165348 114.924738 
L 334.014545 112.922384 
L 336.863743 110.910906 
L 339.712941 108.877102 
L 342.562139 106.829746 
L 345.411337 104.75975 
L 348.260535 102.682854 
L 351.109733 100.572857 
L 353.95893 98.438827 
L 356.808128 96.303339 
L 359.657326 94.153715 
L 362.506524 91.969334 
L 365.355722 89.981644 
L 368.20492 87.972437 
L 371.054118 85.955629 
L 373.903316 83.907102 
L 376.752513 81.854042 
L 379.601711 79.768217 
L 382.450909 77.676352 
L 385.300107 75.557409 
L 388.149305 73.438686 
L 390.998503 71.300273 
L 393.847701 69.146567 
L 396.696898 66.962224 
L 399.546096 64.98446 
L 402.395294 62.98172 
L 405.244492 60.962774 
L 408.09369 58.918323 
L 410.942888 56.862103 
L 413.792086 54.787961 
L 416.641283 52.70449 
L 419.490481 50.596001 
L 422.339679 48.487145 
L 425.188877 46.353316 
L 428.038075 44.210314 
L 430.887273 42.025687 
" clip-path="url(#p53063fd5eb)" style="fill: none; stroke: #55a868; stroke-width: 3; stroke-linecap: round"/>
   </g>
   <g id="patch_3">
    <path d="M 74.88 294.66 
L 74.88 29.76 
" style="fill: none; stroke: #ffffff; stroke-width: 1.25; stroke-linejoin: miter; stroke-linecap: square"/>
   </g>
   <g id="patch_4">
    <path d="M 447.84 294.66 
L 447.84 29.76 
" style="fill: none; stroke: #ffffff; stroke-width: 1.25; stroke-linejoin: miter; stroke-linecap: square"/>
   </g>
   <g id="patch_5">
    <path d="M 74.88 294.66 
L 447.84 294.66 
" style="fill: none; stroke: #ffffff; stroke-width: 1.25; stroke-linejoin: miter; stroke-linecap: square"/>
   </g>
   <g id="patch_6">
    <path d="M 74.88 29.76 
L 447.84 29.76 
" style="fill: none; stroke: #ffffff; stroke-width: 1.25; stroke-linejoin: miter; stroke-linecap: square"/>
   </g>
   <g id="text_17">
    <!-- zinc-coating-v0 -->
    <g style="fill: #262626" transform="translate(208.001406 23.76)scale(0.14 -0.14)">
     <defs>
      <path id="DejaVuSans-7a" d="M 353 3500 
L 3084 3500 
L 3084 2975 
L 922 459 
L 3084 459 
L 3084 0 
L 275 0 
L 275 525 
L 2438 3041 
L 353 3041 
L 353 3500 
z
" transform="scale(0.015625)"/>
      <path id="DejaVuSans-63" d="M 3122 3366 
L 3122 2828 
Q 2878 2963 2633 3030 
Q 2388 3097 2138 3097 
Q 1578 3097 1268 2742 
Q 959 2388 959 1747 
Q 959 1106 1268 751 
Q 1578 397 2138 397 
Q 2388 397 2633 464 
Q 2878 531 3122 666 
L 3122 134 
Q 2881 22 2623 -34 
Q 2366 -91 2075 -91 
Q 1284 -91 818 406 
Q 353 903 353 1747 
Q 353 2603 823 3093 
Q 1294 3584 2113 3584 
Q 2378 3584 2631 3529 
Q 2884 3475 3122 3366 
z
" transform="scale(0.015625)"/>
      <path id="DejaVuSans-2d" d="M 313 2009 
L 1997 2009 
L 1997 1497 
L 313 1497 
L 313 2009 
z
" transform="scale(0.015625)"/>
      <path id="DejaVuSans-67" d="M 2906 1791 
Q 2906 2416 2648 2759 
Q 2391 3103 1925 3103 
Q 1463 3103 1205 2759 
Q 947 2416 947 1791 
Q 947 1169 1205 825 
Q 1463 481 1925 481 
Q 2391 481 2648 825 
Q 2906 1169 2906 1791 
z
M 3481 434 
Q 3481 -459 3084 -895 
Q 2688 -1331 1869 -1331 
Q 1566 -1331 1297 -1286 
Q 1028 -1241 775 -1147 
L 775 -588 
Q 1028 -725 1275 -790 
Q 1522 -856 1778 -856 
Q 2344 -856 2625 -561 
Q 2906 -266 2906 331 
L 2906 616 
Q 2728 306 2450 153 
Q 2172 0 1784 0 
Q 1141 0 747 490 
Q 353 981 353 1791 
Q 353 2603 747 3093 
Q 1141 3584 1784 3584 
Q 2172 3584 2450 3431 
Q 2728 3278 2906 2969 
L 2906 3500 
L 3481 3500 
L 3481 434 
z
" transform="scale(0.015625)"/>
      <path id="DejaVuSans-76" d="M 191 3500 
L 800 3500 
L 1894 563 
L 2988 3500 
L 3597 3500 
L 2284 0 
L 1503 0 
L 191 3500 
z
" transform="scale(0.015625)"/>
     </defs>
     <use xlink:href="#DejaVuSans-7a"/>
     <use xlink:href="#DejaVuSans-69" x="52.490234"/>
     <use xlink:href="#DejaVuSans-6e" x="80.273438"/>
     <use xlink:href="#DejaVuSans-63" x="143.652344"/>
     <use xlink:href="#DejaVuSans-2d" x="198.632812"/>
     <use xlink:href="#DejaVuSans-63" x="234.716797"/>
     <use xlink:href="#DejaVuSans-6f" x="289.697266"/>
     <use xlink:href="#DejaVuSans-61" x="350.878906"/>
     <use xlink:href="#DejaVuSans-74" x="412.158203"/>
     <use xlink:href="#DejaVuSans-69" x="451.367188"/>
     <use xlink:href="#DejaVuSans-6e" x="479.150391"/>
     <use xlink:href="#DejaVuSans-67" x="542.529297"/>
     <use xlink:href="#DejaVuSans-2d" x="606.005859"/>
     <use xlink:href="#DejaVuSans-76" x="639.464844"/>
     <use xlink:href="#DejaVuSans-30" x="698.644531"/>
    </g>
   </g>
   <g id="legend_1">
    <g id="patch_7">
     <path d="M 82.58 86.997813 
L 237.406719 86.997813 
Q 239.606719 86.997813 239.606719 84.797813 
L 239.606719 37.46 
Q 239.606719 35.26 237.406719 35.26 
L 82.58 35.26 
Q 80.38 35.26 80.38 37.46 
L 80.38 84.797813 
Q 80.38 86.997813 82.58 86.997813 
z
" style="fill: #eaeaf2; opacity: 0.8; stroke: #cccccc; stroke-linejoin: miter"/>
    </g>
    <g id="line2d_18">
     <path d="M 84.78 44.168281 
L 95.78 44.168281 
L 106.78 44.168281 
" style="fill: none; stroke: #4c72b0; stroke-width: 3; stroke-linecap: round"/>
    </g>
    <g id="text_18">
     <!-- SAC-DELAY-100 -->
     <g style="fill: #262626" transform="translate(115.58 48.018281)scale(0.11 -0.11)">
      <defs>
       <path id="DejaVuSans-53" d="M 3425 4513 
L 3425 3897 
Q 3066 4069 2747 4153 
Q 2428 4238 2131 4238 
Q 1616 4238 1336 4038 
Q 1056 3838 1056 3469 
Q 1056 3159 1242 3001 
Q 1428 2844 1947 2747 
L 2328 2669 
Q 3034 2534 3370 2195 
Q 3706 1856 3706 1288 
Q 3706 609 3251 259 
Q 2797 -91 1919 -91 
Q 1588 -91 1214 -16 
Q 841 59 441 206 
L 441 856 
Q 825 641 1194 531 
Q 1563 422 1919 422 
Q 2459 422 2753 634 
Q 3047 847 3047 1241 
Q 3047 1584 2836 1778 
Q 2625 1972 2144 2069 
L 1759 2144 
Q 1053 2284 737 2584 
Q 422 2884 422 3419 
Q 422 4038 858 4394 
Q 1294 4750 2059 4750 
Q 2388 4750 2728 4690 
Q 3069 4631 3425 4513 
z
" transform="scale(0.015625)"/>
       <path id="DejaVuSans-41" d="M 2188 4044 
L 1331 1722 
L 3047 1722 
L 2188 4044 
z
M 1831 4666 
L 2547 4666 
L 4325 0 
L 3669 0 
L 3244 1197 
L 1141 1197 
L 716 0 
L 50 0 
L 1831 4666 
z
" transform="scale(0.015625)"/>
       <path id="DejaVuSans-43" d="M 4122 4306 
L 4122 3641 
Q 3803 3938 3442 4084 
Q 3081 4231 2675 4231 
Q 1875 4231 1450 3742 
Q 1025 3253 1025 2328 
Q 1025 1406 1450 917 
Q 1875 428 2675 428 
Q 3081 428 3442 575 
Q 3803 722 4122 1019 
L 4122 359 
Q 3791 134 3420 21 
Q 3050 -91 2638 -91 
Q 1578 -91 968 557 
Q 359 1206 359 2328 
Q 359 3453 968 4101 
Q 1578 4750 2638 4750 
Q 3056 4750 3426 4639 
Q 3797 4528 4122 4306 
z
" transform="scale(0.015625)"/>
       <path id="DejaVuSans-44" d="M 1259 4147 
L 1259 519 
L 2022 519 
Q 2988 519 3436 956 
Q 3884 1394 3884 2338 
Q 3884 3275 3436 3711 
Q 2988 4147 2022 4147 
L 1259 4147 
z
M 628 4666 
L 1925 4666 
Q 3281 4666 3915 4102 
Q 4550 3538 4550 2338 
Q 4550 1131 3912 565 
Q 3275 0 1925 0 
L 628 0 
L 628 4666 
z
" transform="scale(0.015625)"/>
       <path id="DejaVuSans-45" d="M 628 4666 
L 3578 4666 
L 3578 4134 
L 1259 4134 
L 1259 2753 
L 3481 2753 
L 3481 2222 
L 1259 2222 
L 1259 531 
L 3634 531 
L 3634 0 
L 628 0 
L 628 4666 
z
" transform="scale(0.015625)"/>
       <path id="DejaVuSans-4c" d="M 628 4666 
L 1259 4666 
L 1259 531 
L 3531 531 
L 3531 0 
L 628 0 
L 628 4666 
z
" transform="scale(0.015625)"/>
       <path id="DejaVuSans-59" d="M -13 4666 
L 666 4666 
L 1959 2747 
L 3244 4666 
L 3922 4666 
L 2272 2222 
L 2272 0 
L 1638 0 
L 1638 2222 
L -13 4666 
z
" transform="scale(0.015625)"/>
      </defs>
      <use xlink:href="#DejaVuSans-53"/>
      <use xlink:href="#DejaVuSans-41" x="65.351562"/>
      <use xlink:href="#DejaVuSans-43" x="132.009766"/>
      <use xlink:href="#DejaVuSans-2d" x="201.833984"/>
      <use xlink:href="#DejaVuSans-44" x="237.917969"/>
      <use xlink:href="#DejaVuSans-45" x="314.919922"/>
      <use xlink:href="#DejaVuSans-4c" x="378.103516"/>
      <use xlink:href="#DejaVuSans-41" x="436.066406"/>
      <use xlink:href="#DejaVuSans-59" x="496.724609"/>
      <use xlink:href="#DejaVuSans-2d" x="545.933594"/>
      <use xlink:href="#DejaVuSans-31" x="582.017578"/>
      <use xlink:href="#DejaVuSans-30" x="645.640625"/>
      <use xlink:href="#DejaVuSans-30" x="709.263672"/>
     </g>
    </g>
    <g id="line2d_19">
     <path d="M 84.78 60.314219 
L 95.78 60.314219 
L 106.78 60.314219 
" style="fill: none; stroke: #dd8452; stroke-width: 3; stroke-linecap: round"/>
    </g>
    <g id="text_19">
     <!-- SAC-IS-DELAY-100 -->
     <g style="fill: #262626" transform="translate(115.58 64.164219)scale(0.11 -0.11)">
      <defs>
       <path id="DejaVuSans-49" d="M 628 4666 
L 1259 4666 
L 1259 0 
L 628 0 
L 628 4666 
z
" transform="scale(0.015625)"/>
      </defs>
      <use xlink:href="#DejaVuSans-53"/>
      <use xlink:href="#DejaVuSans-41" x="65.351562"/>
      <use xlink:href="#DejaVuSans-43" x="132.009766"/>
      <use xlink:href="#DejaVuSans-2d" x="201.833984"/>
      <use xlink:href="#DejaVuSans-49" x="237.917969"/>
      <use xlink:href="#DejaVuSans-53" x="267.410156"/>
      <use xlink:href="#DejaVuSans-2d" x="330.886719"/>
      <use xlink:href="#DejaVuSans-44" x="366.970703"/>
      <use xlink:href="#DejaVuSans-45" x="443.972656"/>
      <use xlink:href="#DejaVuSans-4c" x="507.15625"/>
      <use xlink:href="#DejaVuSans-41" x="565.119141"/>
      <use xlink:href="#DejaVuSans-59" x="625.777344"/>
      <use xlink:href="#DejaVuSans-2d" x="674.986328"/>
      <use xlink:href="#DejaVuSans-31" x="711.070312"/>
      <use xlink:href="#DejaVuSans-30" x="774.693359"/>
      <use xlink:href="#DejaVuSans-30" x="838.316406"/>
     </g>
    </g>
    <g id="line2d_20">
     <path d="M 84.78 76.460156 
L 95.78 76.460156 
L 106.78 76.460156 
" style="fill: none; stroke: #55a868; stroke-width: 3; stroke-linecap: round"/>
    </g>
    <g id="text_20">
     <!-- DCAC-DELAY-100-16C -->
     <g style="fill: #262626" transform="translate(115.58 80.310156)scale(0.11 -0.11)">
      <use xlink:href="#DejaVuSans-44"/>
      <use xlink:href="#DejaVuSans-43" x="77.001953"/>
      <use xlink:href="#DejaVuSans-41" x="146.826172"/>
      <use xlink:href="#DejaVuSans-43" x="213.484375"/>
      <use xlink:href="#DejaVuSans-2d" x="283.308594"/>
      <use xlink:href="#DejaVuSans-44" x="319.392578"/>
      <use xlink:href="#DejaVuSans-45" x="396.394531"/>
      <use xlink:href="#DejaVuSans-4c" x="459.578125"/>
      <use xlink:href="#DejaVuSans-41" x="517.541016"/>
      <use xlink:href="#DejaVuSans-59" x="578.199219"/>
      <use xlink:href="#DejaVuSans-2d" x="627.408203"/>
      <use xlink:href="#DejaVuSans-31" x="663.492188"/>
      <use xlink:href="#DejaVuSans-30" x="727.115234"/>
      <use xlink:href="#DejaVuSans-30" x="790.738281"/>
      <use xlink:href="#DejaVuSans-2d" x="854.361328"/>
      <use xlink:href="#DejaVuSans-31" x="890.445312"/>
      <use xlink:href="#DejaVuSans-36" x="954.068359"/>
      <use xlink:href="#DejaVuSans-43" x="1017.691406"/>
     </g>
    </g>
   </g>
  </g>
 </g>
 <defs>
  <clipPath id="p53063fd5eb">
   <rect x="74.88" y="29.76" width="372.96" height="264.9"/>
  </clipPath>
 </defs>
</svg>
