<?xml version="1.0" encoding="utf-8" standalone="no"?>
<!DOCTYPE svg PUBLIC "-//W3C//DTD SVG 1.1//EN"
  "http://www.w3.org/Graphics/SVG/1.1/DTD/svg11.dtd">
<svg xmlns:xlink="http://www.w3.org/1999/xlink" width="460.8pt" height="345.6pt" viewBox="0 0 460.8 345.6" xmlns="http://www.w3.org/2000/svg" version="1.1">
 <metadata>
  <rdf:RDF xmlns:dc="http://purl.org/dc/elements/1.1/" xmlns:cc="http://creativecommons.org/ns#" xmlns:rdf="http://www.w3.org/1999/02/22-rdf-syntax-ns#">
   <cc:Work>
    <dc:type rdf:resource="http://purl.org/dc/dcmitype/StillImage"/>
    <dc:date>2022-09-10T15:50:45.728260</dc:date>
    <dc:format>image/svg+xml</dc:format>
    <dc:creator>
     <cc:Agent>
      <dc:title>Matplotlib v3.5.3, https://matplotlib.org/</dc:title>
     </cc:Agent>
    </dc:creator>
   </cc:Work>
  </rdf:RDF>
 </metadata>
 <defs>
  <style type="text/css">*{stroke-linejoin: round; stroke-linecap: butt}</style>
 </defs>
 <g id="figure_1">
  <g id="patch_1">
   <path d="M 0 345.6 
L 460.8 345.6 
L 460.8 0 
L 0 0 
z
" style="fill: #ffffff"/>
  </g>
  <g id="axes_1">
   <g id="patch_2">
    <path d="M 67.95 294.66 
L 447.84 294.66 
L 447.84 29.76 
L 67.95 29.76 
z
" style="fill: #eaeaf2"/>
   </g>
   <g id="matplotlib.axis_1">
    <g id="xtick_1">
     <g id="line2d_1">
      <path d="M 82.315588 294.66 
L 82.315588 29.76 
" clip-path="url(#p6cd44a06de)" style="fill: none; stroke: #ffffff; stroke-linecap: round"/>
     </g>
     <g id="text_1">
      <!-- 0.00 -->
      <g style="fill: #262626" transform="translate(70.069494 312.518281)scale(0.11 -0.11)">
       <defs>
        <path id="DejaVuSans-30" d="M 2034 4250 
Q 1547 4250 1301 3770 
Q 1056 3291 1056 2328 
Q 1056 1369 1301 889 
Q 1547 409 2034 409 
Q 2525 409 2770 889 
Q 3016 1369 3016 2328 
Q 3016 3291 2770 3770 
Q 2525 4250 2034 4250 
z
M 2034 4750 
Q 2819 4750 3233 4129 
Q 3647 3509 3647 2328 
Q 3647 1150 3233 529 
Q 2819 -91 2034 -91 
Q 1250 -91 836 529 
Q 422 1150 422 2328 
Q 422 3509 836 4129 
Q 1250 4750 2034 4750 
z
" transform="scale(0.015625)"/>
        <path id="DejaVuSans-2e" d="M 684 794 
L 1344 794 
L 1344 0 
L 684 0 
L 684 794 
z
" transform="scale(0.015625)"/>
       </defs>
       <use xlink:href="#DejaVuSans-30"/>
       <use xlink:href="#DejaVuSans-2e" x="63.623047"/>
       <use xlink:href="#DejaVuSans-30" x="95.410156"/>
       <use xlink:href="#DejaVuSans-30" x="159.033203"/>
      </g>
     </g>
    </g>
    <g id="xtick_2">
     <g id="line2d_2">
      <path d="M 140.358369 294.66 
L 140.358369 29.76 
" clip-path="url(#p6cd44a06de)" style="fill: none; stroke: #ffffff; stroke-linecap: round"/>
     </g>
     <g id="text_2">
      <!-- 0.05 -->
      <g style="fill: #262626" transform="translate(128.112275 312.518281)scale(0.11 -0.11)">
       <defs>
        <path id="DejaVuSans-35" d="M 691 4666 
L 3169 4666 
L 3169 4134 
L 1269 4134 
L 1269 2991 
Q 1406 3038 1543 3061 
Q 1681 3084 1819 3084 
Q 2600 3084 3056 2656 
Q 3513 2228 3513 1497 
Q 3513 744 3044 326 
Q 2575 -91 1722 -91 
Q 1428 -91 1123 -41 
Q 819 9 494 109 
L 494 744 
Q 775 591 1075 516 
Q 1375 441 1709 441 
Q 2250 441 2565 725 
Q 2881 1009 2881 1497 
Q 2881 1984 2565 2268 
Q 2250 2553 1709 2553 
Q 1456 2553 1204 2497 
Q 953 2441 691 2322 
L 691 4666 
z
" transform="scale(0.015625)"/>
       </defs>
       <use xlink:href="#DejaVuSans-30"/>
       <use xlink:href="#DejaVuSans-2e" x="63.623047"/>
       <use xlink:href="#DejaVuSans-30" x="95.410156"/>
       <use xlink:href="#DejaVuSans-35" x="159.033203"/>
      </g>
     </g>
    </g>
    <g id="xtick_3">
     <g id="line2d_3">
      <path d="M 198.40115 294.66 
L 198.40115 29.76 
" clip-path="url(#p6cd44a06de)" style="fill: none; stroke: #ffffff; stroke-linecap: round"/>
     </g>
     <g id="text_3">
      <!-- 0.10 -->
      <g style="fill: #262626" transform="translate(186.155056 312.518281)scale(0.11 -0.11)">
       <defs>
        <path id="DejaVuSans-31" d="M 794 531 
L 1825 531 
L 1825 4091 
L 703 3866 
L 703 4441 
L 1819 4666 
L 2450 4666 
L 2450 531 
L 3481 531 
L 3481 0 
L 794 0 
L 794 531 
z
" transform="scale(0.015625)"/>
       </defs>
       <use xlink:href="#DejaVuSans-30"/>
       <use xlink:href="#DejaVuSans-2e" x="63.623047"/>
       <use xlink:href="#DejaVuSans-31" x="95.410156"/>
       <use xlink:href="#DejaVuSans-30" x="159.033203"/>
      </g>
     </g>
    </g>
    <g id="xtick_4">
     <g id="line2d_4">
      <path d="M 256.44393 294.66 
L 256.44393 29.76 
" clip-path="url(#p6cd44a06de)" style="fill: none; stroke: #ffffff; stroke-linecap: round"/>
     </g>
     <g id="text_4">
      <!-- 0.15 -->
      <g style="fill: #262626" transform="translate(244.197837 312.518281)scale(0.11 -0.11)">
       <use xlink:href="#DejaVuSans-30"/>
       <use xlink:href="#DejaVuSans-2e" x="63.623047"/>
       <use xlink:href="#DejaVuSans-31" x="95.410156"/>
       <use xlink:href="#DejaVuSans-35" x="159.033203"/>
      </g>
     </g>
    </g>
    <g id="xtick_5">
     <g id="line2d_5">
      <path d="M 314.486711 294.66 
L 314.486711 29.76 
" clip-path="url(#p6cd44a06de)" style="fill: none; stroke: #ffffff; stroke-linecap: round"/>
     </g>
     <g id="text_5">
      <!-- 0.20 -->
      <g style="fill: #262626" transform="translate(302.240617 312.518281)scale(0.11 -0.11)">
       <defs>
        <path id="DejaVuSans-32" d="M 1228 531 
L 3431 531 
L 3431 0 
L 469 0 
L 469 531 
Q 828 903 1448 1529 
Q 2069 2156 2228 2338 
Q 2531 2678 2651 2914 
Q 2772 3150 2772 3378 
Q 2772 3750 2511 3984 
Q 2250 4219 1831 4219 
Q 1534 4219 1204 4116 
Q 875 4013 500 3803 
L 500 4441 
Q 881 4594 1212 4672 
Q 1544 4750 1819 4750 
Q 2544 4750 2975 4387 
Q 3406 4025 3406 3419 
Q 3406 3131 3298 2873 
Q 3191 2616 2906 2266 
Q 2828 2175 2409 1742 
Q 1991 1309 1228 531 
z
" transform="scale(0.015625)"/>
       </defs>
       <use xlink:href="#DejaVuSans-30"/>
       <use xlink:href="#DejaVuSans-2e" x="63.623047"/>
       <use xlink:href="#DejaVuSans-32" x="95.410156"/>
       <use xlink:href="#DejaVuSans-30" x="159.033203"/>
      </g>
     </g>
    </g>
    <g id="xtick_6">
     <g id="line2d_6">
      <path d="M 372.529492 294.66 
L 372.529492 29.76 
" clip-path="url(#p6cd44a06de)" style="fill: none; stroke: #ffffff; stroke-linecap: round"/>
     </g>
     <g id="text_6">
      <!-- 0.25 -->
      <g style="fill: #262626" transform="translate(360.283398 312.518281)scale(0.11 -0.11)">
       <use xlink:href="#DejaVuSans-30"/>
       <use xlink:href="#DejaVuSans-2e" x="63.623047"/>
       <use xlink:href="#DejaVuSans-32" x="95.410156"/>
       <use xlink:href="#DejaVuSans-35" x="159.033203"/>
      </g>
     </g>
    </g>
    <g id="xtick_7">
     <g id="line2d_7">
      <path d="M 430.572273 294.66 
L 430.572273 29.76 
" clip-path="url(#p6cd44a06de)" style="fill: none; stroke: #ffffff; stroke-linecap: round"/>
     </g>
     <g id="text_7">
      <!-- 0.30 -->
      <g style="fill: #262626" transform="translate(418.326179 312.518281)scale(0.11 -0.11)">
       <defs>
        <path id="DejaVuSans-33" d="M 2597 2516 
Q 3050 2419 3304 2112 
Q 3559 1806 3559 1356 
Q 3559 666 3084 287 
Q 2609 -91 1734 -91 
Q 1441 -91 1130 -33 
Q 819 25 488 141 
L 488 750 
Q 750 597 1062 519 
Q 1375 441 1716 441 
Q 2309 441 2620 675 
Q 2931 909 2931 1356 
Q 2931 1769 2642 2001 
Q 2353 2234 1838 2234 
L 1294 2234 
L 1294 2753 
L 1863 2753 
Q 2328 2753 2575 2939 
Q 2822 3125 2822 3475 
Q 2822 3834 2567 4026 
Q 2313 4219 1838 4219 
Q 1578 4219 1281 4162 
Q 984 4106 628 3988 
L 628 4550 
Q 988 4650 1302 4700 
Q 1616 4750 1894 4750 
Q 2613 4750 3031 4423 
Q 3450 4097 3450 3541 
Q 3450 3153 3228 2886 
Q 3006 2619 2597 2516 
z
" transform="scale(0.015625)"/>
       </defs>
       <use xlink:href="#DejaVuSans-30"/>
       <use xlink:href="#DejaVuSans-2e" x="63.623047"/>
       <use xlink:href="#DejaVuSans-33" x="95.410156"/>
       <use xlink:href="#DejaVuSans-30" x="159.033203"/>
      </g>
     </g>
    </g>
    <g id="text_8">
     <!-- Timesteps (in Million) -->
     <g style="fill: #262626" transform="translate(183.149219 329.44375)scale(0.14 -0.14)">
      <defs>
       <path id="DejaVuSans-54" d="M -19 4666 
L 3928 4666 
L 3928 4134 
L 2272 4134 
L 2272 0 
L 1638 0 
L 1638 4134 
L -19 4134 
L -19 4666 
z
" transform="scale(0.015625)"/>
       <path id="DejaVuSans-69" d="M 603 3500 
L 1178 3500 
L 1178 0 
L 603 0 
L 603 3500 
z
M 603 4863 
L 1178 4863 
L 1178 4134 
L 603 4134 
L 603 4863 
z
" transform="scale(0.015625)"/>
       <path id="DejaVuSans-6d" d="M 3328 2828 
Q 3544 3216 3844 3400 
Q 4144 3584 4550 3584 
Q 5097 3584 5394 3201 
Q 5691 2819 5691 2113 
L 5691 0 
L 5113 0 
L 5113 2094 
Q 5113 2597 4934 2840 
Q 4756 3084 4391 3084 
Q 3944 3084 3684 2787 
Q 3425 2491 3425 1978 
L 3425 0 
L 2847 0 
L 2847 2094 
Q 2847 2600 2669 2842 
Q 2491 3084 2119 3084 
Q 1678 3084 1418 2786 
Q 1159 2488 1159 1978 
L 1159 0 
L 581 0 
L 581 3500 
L 1159 3500 
L 1159 2956 
Q 1356 3278 1631 3431 
Q 1906 3584 2284 3584 
Q 2666 3584 2933 3390 
Q 3200 3197 3328 2828 
z
" transform="scale(0.015625)"/>
       <path id="DejaVuSans-65" d="M 3597 1894 
L 3597 1613 
L 953 1613 
Q 991 1019 1311 708 
Q 1631 397 2203 397 
Q 2534 397 2845 478 
Q 3156 559 3463 722 
L 3463 178 
Q 3153 47 2828 -22 
Q 2503 -91 2169 -91 
Q 1331 -91 842 396 
Q 353 884 353 1716 
Q 353 2575 817 3079 
Q 1281 3584 2069 3584 
Q 2775 3584 3186 3129 
Q 3597 2675 3597 1894 
z
M 3022 2063 
Q 3016 2534 2758 2815 
Q 2500 3097 2075 3097 
Q 1594 3097 1305 2825 
Q 1016 2553 972 2059 
L 3022 2063 
z
" transform="scale(0.015625)"/>
       <path id="DejaVuSans-73" d="M 2834 3397 
L 2834 2853 
Q 2591 2978 2328 3040 
Q 2066 3103 1784 3103 
Q 1356 3103 1142 2972 
Q 928 2841 928 2578 
Q 928 2378 1081 2264 
Q 1234 2150 1697 2047 
L 1894 2003 
Q 2506 1872 2764 1633 
Q 3022 1394 3022 966 
Q 3022 478 2636 193 
Q 2250 -91 1575 -91 
Q 1294 -91 989 -36 
Q 684 19 347 128 
L 347 722 
Q 666 556 975 473 
Q 1284 391 1588 391 
Q 1994 391 2212 530 
Q 2431 669 2431 922 
Q 2431 1156 2273 1281 
Q 2116 1406 1581 1522 
L 1381 1569 
Q 847 1681 609 1914 
Q 372 2147 372 2553 
Q 372 3047 722 3315 
Q 1072 3584 1716 3584 
Q 2034 3584 2315 3537 
Q 2597 3491 2834 3397 
z
" transform="scale(0.015625)"/>
       <path id="DejaVuSans-74" d="M 1172 4494 
L 1172 3500 
L 2356 3500 
L 2356 3053 
L 1172 3053 
L 1172 1153 
Q 1172 725 1289 603 
Q 1406 481 1766 481 
L 2356 481 
L 2356 0 
L 1766 0 
Q 1100 0 847 248 
Q 594 497 594 1153 
L 594 3053 
L 172 3053 
L 172 3500 
L 594 3500 
L 594 4494 
L 1172 4494 
z
" transform="scale(0.015625)"/>
       <path id="DejaVuSans-70" d="M 1159 525 
L 1159 -1331 
L 581 -1331 
L 581 3500 
L 1159 3500 
L 1159 2969 
Q 1341 3281 1617 3432 
Q 1894 3584 2278 3584 
Q 2916 3584 3314 3078 
Q 3713 2572 3713 1747 
Q 3713 922 3314 415 
Q 2916 -91 2278 -91 
Q 1894 -91 1617 61 
Q 1341 213 1159 525 
z
M 3116 1747 
Q 3116 2381 2855 2742 
Q 2594 3103 2138 3103 
Q 1681 3103 1420 2742 
Q 1159 2381 1159 1747 
Q 1159 1113 1420 752 
Q 1681 391 2138 391 
Q 2594 391 2855 752 
Q 3116 1113 3116 1747 
z
" transform="scale(0.015625)"/>
       <path id="DejaVuSans-20" transform="scale(0.015625)"/>
       <path id="DejaVuSans-28" d="M 1984 4856 
Q 1566 4138 1362 3434 
Q 1159 2731 1159 2009 
Q 1159 1288 1364 580 
Q 1569 -128 1984 -844 
L 1484 -844 
Q 1016 -109 783 600 
Q 550 1309 550 2009 
Q 550 2706 781 3412 
Q 1013 4119 1484 4856 
L 1984 4856 
z
" transform="scale(0.015625)"/>
       <path id="DejaVuSans-6e" d="M 3513 2113 
L 3513 0 
L 2938 0 
L 2938 2094 
Q 2938 2591 2744 2837 
Q 2550 3084 2163 3084 
Q 1697 3084 1428 2787 
Q 1159 2491 1159 1978 
L 1159 0 
L 581 0 
L 581 3500 
L 1159 3500 
L 1159 2956 
Q 1366 3272 1645 3428 
Q 1925 3584 2291 3584 
Q 2894 3584 3203 3211 
Q 3513 2838 3513 2113 
z
" transform="scale(0.015625)"/>
       <path id="DejaVuSans-4d" d="M 628 4666 
L 1569 4666 
L 2759 1491 
L 3956 4666 
L 4897 4666 
L 4897 0 
L 4281 0 
L 4281 4097 
L 3078 897 
L 2444 897 
L 1241 4097 
L 1241 0 
L 628 0 
L 628 4666 
z
" transform="scale(0.015625)"/>
       <path id="DejaVuSans-6c" d="M 603 4863 
L 1178 4863 
L 1178 0 
L 603 0 
L 603 4863 
z
" transform="scale(0.015625)"/>
       <path id="DejaVuSans-6f" d="M 1959 3097 
Q 1497 3097 1228 2736 
Q 959 2375 959 1747 
Q 959 1119 1226 758 
Q 1494 397 1959 397 
Q 2419 397 2687 759 
Q 2956 1122 2956 1747 
Q 2956 2369 2687 2733 
Q 2419 3097 1959 3097 
z
M 1959 3584 
Q 2709 3584 3137 3096 
Q 3566 2609 3566 1747 
Q 3566 888 3137 398 
Q 2709 -91 1959 -91 
Q 1206 -91 779 398 
Q 353 888 353 1747 
Q 353 2609 779 3096 
Q 1206 3584 1959 3584 
z
" transform="scale(0.015625)"/>
       <path id="DejaVuSans-29" d="M 513 4856 
L 1013 4856 
Q 1481 4119 1714 3412 
Q 1947 2706 1947 2009 
Q 1947 1309 1714 600 
Q 1481 -109 1013 -844 
L 513 -844 
Q 928 -128 1133 580 
Q 1338 1288 1338 2009 
Q 1338 2731 1133 3434 
Q 928 4138 513 4856 
z
" transform="scale(0.015625)"/>
      </defs>
      <use xlink:href="#DejaVuSans-54"/>
      <use xlink:href="#DejaVuSans-69" x="57.958984"/>
      <use xlink:href="#DejaVuSans-6d" x="85.742188"/>
      <use xlink:href="#DejaVuSans-65" x="183.154297"/>
      <use xlink:href="#DejaVuSans-73" x="244.677734"/>
      <use xlink:href="#DejaVuSans-74" x="296.777344"/>
      <use xlink:href="#DejaVuSans-65" x="335.986328"/>
      <use xlink:href="#DejaVuSans-70" x="397.509766"/>
      <use xlink:href="#DejaVuSans-73" x="460.986328"/>
      <use xlink:href="#DejaVuSans-20" x="513.085938"/>
      <use xlink:href="#DejaVuSans-28" x="544.873047"/>
      <use xlink:href="#DejaVuSans-69" x="583.886719"/>
      <use xlink:href="#DejaVuSans-6e" x="611.669922"/>
      <use xlink:href="#DejaVuSans-20" x="675.048828"/>
      <use xlink:href="#DejaVuSans-4d" x="706.835938"/>
      <use xlink:href="#DejaVuSans-69" x="793.115234"/>
      <use xlink:href="#DejaVuSans-6c" x="820.898438"/>
      <use xlink:href="#DejaVuSans-6c" x="848.681641"/>
      <use xlink:href="#DejaVuSans-69" x="876.464844"/>
      <use xlink:href="#DejaVuSans-6f" x="904.248047"/>
      <use xlink:href="#DejaVuSans-6e" x="965.429688"/>
      <use xlink:href="#DejaVuSans-29" x="1028.808594"/>
     </g>
    </g>
   </g>
   <g id="matplotlib.axis_2">
    <g id="ytick_1">
     <g id="line2d_8">
      <path d="M 67.95 282.662521 
L 447.84 282.662521 
" clip-path="url(#p6cd44a06de)" style="fill: none; stroke: #ffffff; stroke-linecap: round"/>
     </g>
     <g id="text_9">
      <!-- 0 -->
      <g style="fill: #262626" transform="translate(51.45125 286.841662)scale(0.11 -0.11)">
       <use xlink:href="#DejaVuSans-30"/>
      </g>
     </g>
    </g>
    <g id="ytick_2">
     <g id="line2d_9">
      <path d="M 67.95 242.949468 
L 447.84 242.949468 
" clip-path="url(#p6cd44a06de)" style="fill: none; stroke: #ffffff; stroke-linecap: round"/>
     </g>
     <g id="text_10">
      <!-- 500 -->
      <g style="fill: #262626" transform="translate(37.45375 247.128609)scale(0.11 -0.11)">
       <use xlink:href="#DejaVuSans-35"/>
       <use xlink:href="#DejaVuSans-30" x="63.623047"/>
       <use xlink:href="#DejaVuSans-30" x="127.246094"/>
      </g>
     </g>
    </g>
    <g id="ytick_3">
     <g id="line2d_10">
      <path d="M 67.95 203.236415 
L 447.84 203.236415 
" clip-path="url(#p6cd44a06de)" style="fill: none; stroke: #ffffff; stroke-linecap: round"/>
     </g>
     <g id="text_11">
      <!-- 1000 -->
      <g style="fill: #262626" transform="translate(30.455 207.415556)scale(0.11 -0.11)">
       <use xlink:href="#DejaVuSans-31"/>
       <use xlink:href="#DejaVuSans-30" x="63.623047"/>
       <use xlink:href="#DejaVuSans-30" x="127.246094"/>
       <use xlink:href="#DejaVuSans-30" x="190.869141"/>
      </g>
     </g>
    </g>
    <g id="ytick_4">
     <g id="line2d_11">
      <path d="M 67.95 163.523363 
L 447.84 163.523363 
" clip-path="url(#p6cd44a06de)" style="fill: none; stroke: #ffffff; stroke-linecap: round"/>
     </g>
     <g id="text_12">
      <!-- 1500 -->
      <g style="fill: #262626" transform="translate(30.455 167.702503)scale(0.11 -0.11)">
       <use xlink:href="#DejaVuSans-31"/>
       <use xlink:href="#DejaVuSans-35" x="63.623047"/>
       <use xlink:href="#DejaVuSans-30" x="127.246094"/>
       <use xlink:href="#DejaVuSans-30" x="190.869141"/>
      </g>
     </g>
    </g>
    <g id="ytick_5">
     <g id="line2d_12">
      <path d="M 67.95 123.81031 
L 447.84 123.81031 
" clip-path="url(#p6cd44a06de)" style="fill: none; stroke: #ffffff; stroke-linecap: round"/>
     </g>
     <g id="text_13">
      <!-- 2000 -->
      <g style="fill: #262626" transform="translate(30.455 127.98945)scale(0.11 -0.11)">
       <use xlink:href="#DejaVuSans-32"/>
       <use xlink:href="#DejaVuSans-30" x="63.623047"/>
       <use xlink:href="#DejaVuSans-30" x="127.246094"/>
       <use xlink:href="#DejaVuSans-30" x="190.869141"/>
      </g>
     </g>
    </g>
    <g id="ytick_6">
     <g id="line2d_13">
      <path d="M 67.95 84.097257 
L 447.84 84.097257 
" clip-path="url(#p6cd44a06de)" style="fill: none; stroke: #ffffff; stroke-linecap: round"/>
     </g>
     <g id="text_14">
      <!-- 2500 -->
      <g style="fill: #262626" transform="translate(30.455 88.276397)scale(0.11 -0.11)">
       <use xlink:href="#DejaVuSans-32"/>
       <use xlink:href="#DejaVuSans-35" x="63.623047"/>
       <use xlink:href="#DejaVuSans-30" x="127.246094"/>
       <use xlink:href="#DejaVuSans-30" x="190.869141"/>
      </g>
     </g>
    </g>
    <g id="ytick_7">
     <g id="line2d_14">
      <path d="M 67.95 44.384204 
L 447.84 44.384204 
" clip-path="url(#p6cd44a06de)" style="fill: none; stroke: #ffffff; stroke-linecap: round"/>
     </g>
     <g id="text_15">
      <!-- 3000 -->
      <g style="fill: #262626" transform="translate(30.455 48.563345)scale(0.11 -0.11)">
       <use xlink:href="#DejaVuSans-33"/>
       <use xlink:href="#DejaVuSans-30" x="63.623047"/>
       <use xlink:href="#DejaVuSans-30" x="127.246094"/>
       <use xlink:href="#DejaVuSans-30" x="190.869141"/>
      </g>
     </g>
    </g>
    <g id="text_16">
     <!-- Traintime -->
     <g style="fill: #262626" transform="translate(23.543437 194.815781)rotate(-90)scale(0.14 -0.14)">
      <defs>
       <path id="DejaVuSans-72" d="M 2631 2963 
Q 2534 3019 2420 3045 
Q 2306 3072 2169 3072 
Q 1681 3072 1420 2755 
Q 1159 2438 1159 1844 
L 1159 0 
L 581 0 
L 581 3500 
L 1159 3500 
L 1159 2956 
Q 1341 3275 1631 3429 
Q 1922 3584 2338 3584 
Q 2397 3584 2469 3576 
Q 2541 3569 2628 3553 
L 2631 2963 
z
" transform="scale(0.015625)"/>
       <path id="DejaVuSans-61" d="M 2194 1759 
Q 1497 1759 1228 1600 
Q 959 1441 959 1056 
Q 959 750 1161 570 
Q 1363 391 1709 391 
Q 2188 391 2477 730 
Q 2766 1069 2766 1631 
L 2766 1759 
L 2194 1759 
z
M 3341 1997 
L 3341 0 
L 2766 0 
L 2766 531 
Q 2569 213 2275 61 
Q 1981 -91 1556 -91 
Q 1019 -91 701 211 
Q 384 513 384 1019 
Q 384 1609 779 1909 
Q 1175 2209 1959 2209 
L 2766 2209 
L 2766 2266 
Q 2766 2663 2505 2880 
Q 2244 3097 1772 3097 
Q 1472 3097 1187 3025 
Q 903 2953 641 2809 
L 641 3341 
Q 956 3463 1253 3523 
Q 1550 3584 1831 3584 
Q 2591 3584 2966 3190 
Q 3341 2797 3341 1997 
z
" transform="scale(0.015625)"/>
      </defs>
      <use xlink:href="#DejaVuSans-54"/>
      <use xlink:href="#DejaVuSans-72" x="46.333984"/>
      <use xlink:href="#DejaVuSans-61" x="87.447266"/>
      <use xlink:href="#DejaVuSans-69" x="148.726562"/>
      <use xlink:href="#DejaVuSans-6e" x="176.509766"/>
      <use xlink:href="#DejaVuSans-74" x="239.888672"/>
      <use xlink:href="#DejaVuSans-69" x="279.097656"/>
      <use xlink:href="#DejaVuSans-6d" x="306.880859"/>
      <use xlink:href="#DejaVuSans-65" x="404.292969"/>
     </g>
    </g>
   </g>
   <g id="PolyCollection_1">
    <defs>
     <path id="m5a48c0c119" d="M 85.217727 -62.981527 
L 85.217727 -62.982898 
L 88.119866 -63.031355 
L 91.022005 -63.076704 
L 93.924144 -63.121908 
L 96.826283 -63.510602 
L 99.728422 -63.900959 
L 102.630561 -64.293912 
L 105.532701 -64.691586 
L 108.43484 -65.082451 
L 111.336979 -65.476426 
L 114.239118 -65.867119 
L 117.141257 -66.259349 
L 120.043396 -66.652908 
L 122.945535 -67.050103 
L 125.847674 -67.453186 
L 128.749813 -67.844037 
L 131.651952 -68.247963 
L 134.554091 -68.653524 
L 137.45623 -69.051144 
L 140.358369 -69.453069 
L 143.260508 -69.8456 
L 146.162647 -70.234922 
L 149.064786 -70.625721 
L 151.966925 -71.020256 
L 154.869064 -71.40941 
L 157.771203 -71.802829 
L 160.673342 -72.203722 
L 163.575481 -72.600317 
L 166.47762 -72.993592 
L 169.379759 -73.385554 
L 172.281898 -73.787885 
L 175.184037 -74.185787 
L 178.086176 -74.583649 
L 180.988316 -74.980736 
L 183.890455 -75.373219 
L 186.792594 -75.767263 
L 189.694733 -76.161585 
L 192.596872 -76.552117 
L 195.499011 -76.942869 
L 198.40115 -77.348138 
L 201.303289 -77.741711 
L 204.205428 -78.152086 
L 207.107567 -78.54501 
L 210.009706 -78.937376 
L 212.911845 -79.320234 
L 215.813984 -79.710727 
L 218.716123 -80.102237 
L 221.618262 -80.49077 
L 224.520401 -80.871767 
L 227.42254 -81.254361 
L 230.324679 -81.637399 
L 233.226818 -82.018377 
L 236.128957 -82.405788 
L 239.031096 -82.809911 
L 241.933235 -83.192442 
L 244.835374 -83.57757 
L 247.737513 -83.954039 
L 250.639652 -84.339782 
L 253.541791 -84.723584 
L 256.44393 -85.115193 
L 259.34607 -85.492001 
L 262.248209 -85.872837 
L 265.150348 -86.262613 
L 268.052487 -86.661562 
L 270.954626 -87.054231 
L 273.856765 -87.437226 
L 276.758904 -87.830663 
L 279.661043 -88.221204 
L 282.563182 -88.610123 
L 285.465321 -88.982551 
L 288.36746 -89.356456 
L 291.269599 -89.727913 
L 294.171738 -90.102467 
L 297.073877 -90.481825 
L 299.976016 -90.861637 
L 302.878155 -91.241372 
L 305.780294 -91.621033 
L 308.682433 -91.995486 
L 311.584572 -92.376771 
L 314.486711 -92.750978 
L 317.38885 -93.14163 
L 320.290989 -93.521911 
L 323.193128 -93.912749 
L 326.095267 -94.303072 
L 328.997406 -94.679286 
L 331.899545 -95.054158 
L 334.801684 -95.425781 
L 337.703824 -95.804047 
L 340.605963 -96.182151 
L 343.508102 -96.552803 
L 346.410241 -96.923143 
L 349.31238 -97.289824 
L 352.214519 -97.668213 
L 355.116658 -98.045611 
L 358.018797 -98.422061 
L 360.920936 -98.793216 
L 363.823075 -99.163216 
L 366.725214 -99.547493 
L 369.627353 -99.926774 
L 372.529492 -100.292443 
L 375.431631 -100.658553 
L 378.33377 -101.035712 
L 381.235909 -101.40369 
L 384.138048 -101.781126 
L 387.040187 -102.161105 
L 389.942326 -102.541232 
L 392.844465 -102.918794 
L 395.746604 -103.293324 
L 398.648743 -103.666644 
L 401.550882 -104.043949 
L 404.453021 -104.417218 
L 407.35516 -104.798836 
L 410.257299 -105.186507 
L 413.159439 -105.554238 
L 416.061578 -105.942552 
L 418.963717 -106.320687 
L 421.865856 -106.701038 
L 424.767995 -107.073528 
L 427.670134 -107.448029 
L 430.572273 -107.821342 
L 430.572273 -106.56889 
L 430.572273 -106.56889 
L 427.670134 -106.201184 
L 424.767995 -105.820182 
L 421.865856 -105.435971 
L 418.963717 -105.061495 
L 416.061578 -104.681077 
L 413.159439 -104.309558 
L 410.257299 -103.942766 
L 407.35516 -103.575466 
L 404.453021 -103.202381 
L 401.550882 -102.830252 
L 398.648743 -102.452125 
L 395.746604 -102.076308 
L 392.844465 -101.691927 
L 389.942326 -101.308089 
L 387.040187 -100.930514 
L 384.138048 -100.551232 
L 381.235909 -100.173534 
L 378.33377 -99.802564 
L 375.431631 -99.428299 
L 372.529492 -99.039308 
L 369.627353 -98.663333 
L 366.725214 -98.289553 
L 363.823075 -97.916373 
L 360.920936 -97.542924 
L 358.018797 -97.172177 
L 355.116658 -96.798024 
L 352.214519 -96.423418 
L 349.31238 -96.053393 
L 346.410241 -95.678631 
L 343.508102 -95.309343 
L 340.605963 -94.925587 
L 337.703824 -94.557833 
L 334.801684 -94.1754 
L 331.899545 -93.801334 
L 328.997406 -93.434615 
L 326.095267 -93.06683 
L 323.193128 -92.678947 
L 320.290989 -92.302287 
L 317.38885 -91.932417 
L 314.486711 -91.554471 
L 311.584572 -91.180739 
L 308.682433 -90.806324 
L 305.780294 -90.435282 
L 302.878155 -90.061032 
L 299.976016 -89.687875 
L 297.073877 -89.31073 
L 294.171738 -88.938797 
L 291.269599 -88.563122 
L 288.36746 -88.182299 
L 285.465321 -87.819728 
L 282.563182 -87.446334 
L 279.661043 -87.069971 
L 276.758904 -86.694395 
L 273.856765 -86.30949 
L 270.954626 -85.950411 
L 268.052487 -85.577059 
L 265.150348 -85.206757 
L 262.248209 -84.830021 
L 259.34607 -84.45484 
L 256.44393 -84.079944 
L 253.541791 -83.705289 
L 250.639652 -83.341229 
L 247.737513 -82.96991 
L 244.835374 -82.591581 
L 241.933235 -82.215295 
L 239.031096 -81.844378 
L 236.128957 -81.468901 
L 233.226818 -81.102153 
L 230.324679 -80.732917 
L 227.42254 -80.355641 
L 224.520401 -79.963105 
L 221.618262 -79.595035 
L 218.716123 -79.218872 
L 215.813984 -78.835339 
L 212.911845 -78.46276 
L 210.009706 -78.090713 
L 207.107567 -77.722917 
L 204.205428 -77.345319 
L 201.303289 -76.970145 
L 198.40115 -76.598723 
L 195.499011 -76.236538 
L 192.596872 -75.864909 
L 189.694733 -75.488562 
L 186.792594 -75.115982 
L 183.890455 -74.744559 
L 180.988316 -74.372868 
L 178.086176 -73.998909 
L 175.184037 -73.61138 
L 172.281898 -73.243137 
L 169.379759 -72.870115 
L 166.47762 -72.498327 
L 163.575481 -72.123572 
L 160.673342 -71.748187 
L 157.771203 -71.36832 
L 154.869064 -70.997096 
L 151.966925 -70.614437 
L 149.064786 -70.246573 
L 146.162647 -69.875332 
L 143.260508 -69.499605 
L 140.358369 -69.131201 
L 137.45623 -68.755984 
L 134.554091 -68.389192 
L 131.651952 -68.016827 
L 128.749813 -67.645007 
L 125.847674 -67.263462 
L 122.945535 -66.88469 
L 120.043396 -66.512406 
L 117.141257 -66.142543 
L 114.239118 -65.77463 
L 111.336979 -65.399554 
L 108.43484 -65.01669 
L 105.532701 -64.640853 
L 102.630561 -64.257832 
L 99.728422 -63.882192 
L 96.826283 -63.503397 
L 93.924144 -63.115493 
L 91.022005 -63.070315 
L 88.119866 -63.026397 
L 85.217727 -62.981527 
z
" style="stroke: #ffffff; stroke-opacity: 0.5"/>
    </defs>
    <g clip-path="url(#p6cd44a06de)">
     <use xlink:href="#m5a48c0c119" x="0" y="345.6" style="fill: #4c72b0; fill-opacity: 0.5; stroke: #ffffff; stroke-opacity: 0.5"/>
    </g>
   </g>
   <g id="PolyCollection_2">
    <defs>
     <path id="me0ce1e91c8" d="M 85.217727 -62.980909 
L 85.217727 -62.982923 
L 88.119866 -63.029188 
L 91.022005 -63.074876 
L 93.924144 -63.119345 
L 96.826283 -64.116189 
L 99.728422 -65.106184 
L 102.630561 -66.113418 
L 105.532701 -67.072613 
L 108.43484 -68.028784 
L 111.336979 -68.992092 
L 114.239118 -69.970644 
L 117.141257 -70.952676 
L 120.043396 -71.919695 
L 122.945535 -72.896615 
L 125.847674 -73.85958 
L 128.749813 -74.832791 
L 131.651952 -75.820378 
L 134.554091 -76.82038 
L 137.45623 -77.83365 
L 140.358369 -78.819505 
L 143.260508 -79.811903 
L 146.162647 -80.797973 
L 149.064786 -81.775986 
L 151.966925 -82.748445 
L 154.869064 -83.721761 
L 157.771203 -84.699216 
L 160.673342 -85.683478 
L 163.575481 -86.657931 
L 166.47762 -87.627464 
L 169.379759 -88.601082 
L 172.281898 -89.572328 
L 175.184037 -90.555639 
L 178.086176 -91.521076 
L 180.988316 -92.500314 
L 183.890455 -93.468325 
L 186.792594 -94.441328 
L 189.694733 -95.419788 
L 192.596872 -96.371381 
L 195.499011 -97.342187 
L 198.40115 -98.312734 
L 201.303289 -99.29512 
L 204.205428 -100.281934 
L 207.107567 -101.244462 
L 210.009706 -102.232778 
L 212.911845 -103.194977 
L 215.813984 -104.157084 
L 218.716123 -105.140722 
L 221.618262 -106.106374 
L 224.520401 -107.03828 
L 227.42254 -107.99693 
L 230.324679 -108.965956 
L 233.226818 -109.926561 
L 236.128957 -110.880111 
L 239.031096 -111.844296 
L 241.933235 -112.802182 
L 244.835374 -113.775646 
L 247.737513 -114.736274 
L 250.639652 -115.696203 
L 253.541791 -116.646656 
L 256.44393 -117.61713 
L 259.34607 -118.58476 
L 262.248209 -119.539755 
L 265.150348 -120.509713 
L 268.052487 -121.469968 
L 270.954626 -122.423978 
L 273.856765 -123.377637 
L 276.758904 -124.359343 
L 279.661043 -125.323477 
L 282.563182 -126.297712 
L 285.465321 -127.275178 
L 288.36746 -128.238176 
L 291.269599 -129.192851 
L 294.171738 -130.140558 
L 297.073877 -131.082031 
L 299.976016 -132.039414 
L 302.878155 -132.988371 
L 305.780294 -133.979195 
L 308.682433 -134.984994 
L 311.584572 -135.985955 
L 314.486711 -136.971365 
L 317.38885 -137.954276 
L 320.290989 -138.937413 
L 323.193128 -139.886532 
L 326.095267 -140.847227 
L 328.997406 -141.80414 
L 331.899545 -142.779877 
L 334.801684 -143.751993 
L 337.703824 -144.725963 
L 340.605963 -145.69224 
L 343.508102 -146.706093 
L 346.410241 -147.703736 
L 349.31238 -148.678119 
L 352.214519 -149.638732 
L 355.116658 -150.612896 
L 358.018797 -151.574483 
L 360.920936 -152.549444 
L 363.823075 -153.51158 
L 366.725214 -154.459752 
L 369.627353 -155.41592 
L 372.529492 -156.376357 
L 375.431631 -157.345821 
L 378.33377 -158.320677 
L 381.235909 -159.291598 
L 384.138048 -160.255023 
L 387.040187 -161.223149 
L 389.942326 -162.165173 
L 392.844465 -163.097981 
L 395.746604 -164.051419 
L 398.648743 -164.996192 
L 401.550882 -165.95341 
L 404.453021 -166.936176 
L 407.35516 -167.901159 
L 410.257299 -168.887563 
L 413.159439 -169.84595 
L 416.061578 -170.844231 
L 418.963717 -171.842734 
L 421.865856 -172.823955 
L 424.767995 -173.786612 
L 427.670134 -174.765293 
L 430.572273 -175.736732 
L 430.572273 -174.098533 
L 430.572273 -174.098533 
L 427.670134 -173.150672 
L 424.767995 -172.210581 
L 421.865856 -171.245934 
L 418.963717 -170.308209 
L 416.061578 -169.352002 
L 413.159439 -168.391105 
L 410.257299 -167.422238 
L 407.35516 -166.46326 
L 404.453021 -165.507374 
L 401.550882 -164.544338 
L 398.648743 -163.552023 
L 395.746604 -162.602555 
L 392.844465 -161.656212 
L 389.942326 -160.697088 
L 387.040187 -159.72681 
L 384.138048 -158.765912 
L 381.235909 -157.813764 
L 378.33377 -156.856857 
L 375.431631 -155.902012 
L 372.529492 -154.946475 
L 369.627353 -153.989562 
L 366.725214 -153.032735 
L 363.823075 -152.097184 
L 360.920936 -151.140394 
L 358.018797 -150.196059 
L 355.116658 -149.254363 
L 352.214519 -148.302285 
L 349.31238 -147.342929 
L 346.410241 -146.396315 
L 343.508102 -145.461767 
L 340.605963 -144.49953 
L 337.703824 -143.539853 
L 334.801684 -142.601824 
L 331.899545 -141.651169 
L 328.997406 -140.70554 
L 326.095267 -139.762741 
L 323.193128 -138.79626 
L 320.290989 -137.85819 
L 317.38885 -136.919827 
L 314.486711 -135.973909 
L 311.584572 -135.016843 
L 308.682433 -134.078005 
L 305.780294 -133.130132 
L 302.878155 -132.168332 
L 299.976016 -131.224554 
L 297.073877 -130.264407 
L 294.171738 -129.325316 
L 291.269599 -128.3657 
L 288.36746 -127.427865 
L 285.465321 -126.482167 
L 282.563182 -125.50858 
L 279.661043 -124.566408 
L 276.758904 -123.616662 
L 273.856765 -122.672749 
L 270.954626 -121.726432 
L 268.052487 -120.779714 
L 265.150348 -119.825588 
L 262.248209 -118.873177 
L 259.34607 -117.924947 
L 256.44393 -116.987131 
L 253.541791 -116.049205 
L 250.639652 -115.101688 
L 247.737513 -114.161265 
L 244.835374 -113.209228 
L 241.933235 -112.249697 
L 239.031096 -111.292812 
L 236.128957 -110.366535 
L 233.226818 -109.428448 
L 230.324679 -108.466518 
L 227.42254 -107.512794 
L 224.520401 -106.566185 
L 221.618262 -105.608408 
L 218.716123 -104.652273 
L 215.813984 -103.698653 
L 212.911845 -102.734944 
L 210.009706 -101.765785 
L 207.107567 -100.800852 
L 204.205428 -99.84165 
L 201.303289 -98.898213 
L 198.40115 -97.925147 
L 195.499011 -96.947526 
L 192.596872 -95.979476 
L 189.694733 -95.034232 
L 186.792594 -94.052631 
L 183.890455 -93.093211 
L 180.988316 -92.123116 
L 178.086176 -91.140262 
L 175.184037 -90.177723 
L 172.281898 -89.203457 
L 169.379759 -88.23418 
L 166.47762 -87.273291 
L 163.575481 -86.299514 
L 160.673342 -85.340411 
L 157.771203 -84.379838 
L 154.869064 -83.415797 
L 151.966925 -82.455976 
L 149.064786 -81.489577 
L 146.162647 -80.506166 
L 143.260508 -79.52896 
L 140.358369 -78.57396 
L 137.45623 -77.624679 
L 134.554091 -76.655459 
L 131.651952 -75.67208 
L 128.749813 -74.677556 
L 125.847674 -73.69531 
L 122.945535 -72.724775 
L 120.043396 -71.754526 
L 117.141257 -70.784677 
L 114.239118 -69.818021 
L 111.336979 -68.848974 
L 108.43484 -67.868273 
L 105.532701 -66.931662 
L 102.630561 -65.980596 
L 99.728422 -65.026764 
L 96.826283 -64.068149 
L 93.924144 -63.113263 
L 91.022005 -63.069008 
L 88.119866 -63.024395 
L 85.217727 -62.980909 
z
" style="stroke: #ffffff; stroke-opacity: 0.5"/>
    </defs>
    <g clip-path="url(#p6cd44a06de)">
     <use xlink:href="#me0ce1e91c8" x="0" y="345.6" style="fill: #dd8452; fill-opacity: 0.5; stroke: #ffffff; stroke-opacity: 0.5"/>
    </g>
   </g>
   <g id="PolyCollection_3">
    <defs>
     <path id="me51e77d2a2" d="M 85.217727 -63.054276 
L 85.217727 -63.056081 
L 88.119866 -63.188167 
L 91.022005 -63.330443 
L 93.924144 -63.463179 
L 96.826283 -65.574019 
L 99.728422 -67.67233 
L 102.630561 -69.810482 
L 105.532701 -71.896937 
L 108.43484 -74.002278 
L 111.336979 -76.143926 
L 114.239118 -78.285791 
L 117.141257 -80.371193 
L 120.043396 -82.367803 
L 122.945535 -84.440364 
L 125.847674 -86.49191 
L 128.749813 -88.540855 
L 131.651952 -90.599794 
L 134.554091 -92.656328 
L 137.45623 -94.738033 
L 140.358369 -96.831488 
L 143.260508 -98.906367 
L 146.162647 -100.934447 
L 149.064786 -102.99712 
L 151.966925 -105.056093 
L 154.869064 -107.105559 
L 157.771203 -109.156588 
L 160.673342 -111.242835 
L 163.575481 -113.270259 
L 166.47762 -115.346874 
L 169.379759 -117.430381 
L 172.281898 -119.545861 
L 175.184037 -121.619278 
L 178.086176 -123.700108 
L 180.988316 -125.791617 
L 183.890455 -127.850276 
L 186.792594 -129.936279 
L 189.694733 -131.966941 
L 192.596872 -134.09301 
L 195.499011 -136.13256 
L 198.40115 -138.222466 
L 201.303289 -140.282941 
L 204.205428 -142.343581 
L 207.107567 -144.41804 
L 210.009706 -146.463869 
L 212.911845 -148.524121 
L 215.813984 -150.579834 
L 218.716123 -152.657777 
L 221.618262 -154.75837 
L 224.520401 -156.820707 
L 227.42254 -158.888733 
L 230.324679 -160.926158 
L 233.226818 -163.024446 
L 236.128957 -165.094365 
L 239.031096 -167.170248 
L 241.933235 -169.224022 
L 244.835374 -171.293351 
L 247.737513 -173.354375 
L 250.639652 -175.422303 
L 253.541791 -177.490404 
L 256.44393 -179.586775 
L 259.34607 -181.633365 
L 262.248209 -183.723176 
L 265.150348 -185.768436 
L 268.052487 -187.834375 
L 270.954626 -189.928208 
L 273.856765 -192.003427 
L 276.758904 -194.040757 
L 279.661043 -196.082901 
L 282.563182 -198.181954 
L 285.465321 -200.270368 
L 288.36746 -202.343161 
L 291.269599 -204.43068 
L 294.171738 -206.46809 
L 297.073877 -208.510533 
L 299.976016 -210.568951 
L 302.878155 -212.638813 
L 305.780294 -214.741535 
L 308.682433 -216.80668 
L 311.584572 -218.866235 
L 314.486711 -220.945717 
L 317.38885 -223.025097 
L 320.290989 -225.117736 
L 323.193128 -227.160151 
L 326.095267 -229.23584 
L 328.997406 -231.323516 
L 331.899545 -233.408504 
L 334.801684 -235.492297 
L 337.703824 -237.582833 
L 340.605963 -239.654876 
L 343.508102 -241.704979 
L 346.410241 -243.76636 
L 349.31238 -245.81559 
L 352.214519 -247.836453 
L 355.116658 -249.914357 
L 358.018797 -251.943419 
L 360.920936 -253.996616 
L 363.823075 -256.074614 
L 366.725214 -258.162122 
L 369.627353 -260.266535 
L 372.529492 -262.320083 
L 375.431631 -264.405782 
L 378.33377 -266.469911 
L 381.235909 -268.533745 
L 384.138048 -270.572828 
L 387.040187 -272.635526 
L 389.942326 -274.733781 
L 392.844465 -276.809159 
L 395.746604 -278.891118 
L 398.648743 -280.957542 
L 401.550882 -283.045379 
L 404.453021 -285.107353 
L 407.35516 -287.171211 
L 410.257299 -289.265396 
L 413.159439 -291.354427 
L 416.061578 -293.383473 
L 418.963717 -295.47377 
L 421.865856 -297.544223 
L 424.767995 -299.661492 
L 427.670134 -301.75093 
L 430.572273 -303.799091 
L 430.572273 -302.304398 
L 430.572273 -302.304398 
L 427.670134 -300.236356 
L 424.767995 -298.193051 
L 421.865856 -296.097936 
L 418.963717 -294.074545 
L 416.061578 -292.004596 
L 413.159439 -289.973055 
L 410.257299 -287.915922 
L 407.35516 -285.809838 
L 404.453021 -283.742332 
L 401.550882 -281.672696 
L 398.648743 -279.601556 
L 395.746604 -277.52346 
L 392.844465 -275.459019 
L 389.942326 -273.408555 
L 387.040187 -271.336753 
L 384.138048 -269.266173 
L 381.235909 -267.175416 
L 378.33377 -265.10933 
L 375.431631 -263.081574 
L 372.529492 -260.979457 
L 369.627353 -258.887107 
L 366.725214 -256.831589 
L 363.823075 -254.798434 
L 360.920936 -252.711265 
L 358.018797 -250.669769 
L 355.116658 -248.573835 
L 352.214519 -246.484466 
L 349.31238 -244.420313 
L 346.410241 -242.345683 
L 343.508102 -240.272346 
L 340.605963 -238.203612 
L 337.703824 -236.111938 
L 334.801684 -234.02139 
L 331.899545 -231.931356 
L 328.997406 -229.877858 
L 326.095267 -227.807888 
L 323.193128 -225.724121 
L 320.290989 -223.676269 
L 317.38885 -221.577839 
L 314.486711 -219.530703 
L 311.584572 -217.46373 
L 308.682433 -215.410376 
L 305.780294 -213.306032 
L 302.878155 -211.225339 
L 299.976016 -209.151431 
L 297.073877 -207.077645 
L 294.171738 -205.007937 
L 291.269599 -202.948698 
L 288.36746 -200.890744 
L 285.465321 -198.826407 
L 282.563182 -196.725301 
L 279.661043 -194.66565 
L 276.758904 -192.607999 
L 273.856765 -190.559948 
L 270.954626 -188.537699 
L 268.052487 -186.451892 
L 265.150348 -184.388537 
L 262.248209 -182.312226 
L 259.34607 -180.264384 
L 256.44393 -178.234501 
L 253.541791 -176.160877 
L 250.639652 -174.128623 
L 247.737513 -172.05204 
L 244.835374 -170.012645 
L 241.933235 -167.955392 
L 239.031096 -165.910984 
L 236.128957 -163.869242 
L 233.226818 -161.806124 
L 230.324679 -159.767171 
L 227.42254 -157.716256 
L 224.520401 -155.678342 
L 221.618262 -153.641514 
L 218.716123 -151.610686 
L 215.813984 -149.514882 
L 212.911845 -147.486375 
L 210.009706 -145.463014 
L 207.107567 -143.423932 
L 204.205428 -141.35731 
L 201.303289 -139.303462 
L 198.40115 -137.273942 
L 195.499011 -135.213489 
L 192.596872 -133.182317 
L 189.694733 -131.127885 
L 186.792594 -129.131864 
L 183.890455 -127.065893 
L 180.988316 -125.021098 
L 178.086176 -122.959805 
L 175.184037 -120.893286 
L 172.281898 -118.862909 
L 169.379759 -116.819015 
L 166.47762 -114.780627 
L 163.575481 -112.771199 
L 160.673342 -110.741976 
L 157.771203 -108.672297 
L 154.869064 -106.631483 
L 151.966925 -104.600145 
L 149.064786 -102.55057 
L 146.162647 -100.54146 
L 143.260508 -98.491302 
L 140.358369 -96.459768 
L 137.45623 -94.425328 
L 134.554091 -92.393868 
L 131.651952 -90.375546 
L 128.749813 -88.344001 
L 125.847674 -86.279941 
L 122.945535 -84.24726 
L 120.043396 -82.176306 
L 117.141257 -80.145022 
L 114.239118 -78.069311 
L 111.336979 -75.967755 
L 108.43484 -73.883865 
L 105.532701 -71.797695 
L 102.630561 -69.72502 
L 99.728422 -67.663963 
L 96.826283 -65.541654 
L 93.924144 -63.458845 
L 91.022005 -63.323344 
L 88.119866 -63.186829 
L 85.217727 -63.054276 
z
" style="stroke: #ffffff; stroke-opacity: 0.5"/>
    </defs>
    <g clip-path="url(#p6cd44a06de)">
     <use xlink:href="#me51e77d2a2" x="0" y="345.6" style="fill: #55a868; fill-opacity: 0.5; stroke: #ffffff; stroke-opacity: 0.5"/>
    </g>
   </g>
   <g id="line2d_15">
    <path d="M 85.217727 282.617887 
L 88.119866 282.571945 
L 91.022005 282.527363 
L 93.924144 282.482749 
L 96.826283 282.093011 
L 99.728422 281.710052 
L 102.630561 281.32373 
L 105.532701 280.936537 
L 108.43484 280.550132 
L 111.336979 280.160254 
L 114.239118 279.773669 
L 117.141257 279.388784 
L 120.043396 279.005349 
L 122.945535 278.624467 
L 125.847674 278.242057 
L 128.749813 277.855123 
L 131.651952 277.471274 
L 134.554091 277.08403 
L 137.45623 276.702399 
L 140.358369 276.319823 
L 143.260508 275.938474 
L 146.162647 275.556636 
L 149.064786 275.177912 
L 151.966925 274.800999 
L 154.869064 274.42129 
L 157.771203 274.044721 
L 160.673342 273.658533 
L 163.575481 273.279954 
L 166.47762 272.904172 
L 169.379759 272.524241 
L 172.281898 272.141381 
L 175.184037 271.764106 
L 178.086176 271.376703 
L 180.988316 270.995541 
L 183.890455 270.616517 
L 186.792594 270.238244 
L 189.694733 269.857961 
L 192.596872 269.475923 
L 195.499011 269.097845 
L 198.40115 268.719537 
L 201.303289 268.339163 
L 204.205428 267.95721 
L 207.107567 267.579184 
L 210.009706 267.195629 
L 212.911845 266.818742 
L 215.813984 266.438821 
L 218.716123 266.058575 
L 221.618262 265.67688 
L 224.520401 265.297471 
L 227.42254 264.915814 
L 230.324679 264.53663 
L 233.226818 264.154801 
L 236.128957 263.774088 
L 239.031096 263.393232 
L 241.933235 263.010685 
L 244.835374 262.628445 
L 247.737513 262.250103 
L 250.639652 261.874976 
L 253.541791 261.49738 
L 256.44393 261.119236 
L 259.34607 260.741862 
L 262.248209 260.363983 
L 265.150348 259.985745 
L 268.052487 259.604596 
L 270.954626 259.224924 
L 273.856765 258.851582 
L 276.758904 258.47029 
L 279.661043 258.092842 
L 282.563182 257.712683 
L 285.465321 257.342052 
L 288.36746 256.970182 
L 291.269599 256.588506 
L 294.171738 256.208821 
L 297.073877 255.837105 
L 299.976016 255.460255 
L 302.878155 255.084742 
L 305.780294 254.705855 
L 308.682433 254.327029 
L 311.584572 253.943959 
L 314.486711 253.568383 
L 317.38885 253.189586 
L 320.290989 252.816107 
L 323.193128 252.437237 
L 326.095267 252.055019 
L 328.997406 251.679378 
L 331.899545 251.298571 
L 334.801684 250.920314 
L 337.703824 250.543045 
L 340.605963 250.163316 
L 343.508102 249.786266 
L 346.410241 249.415416 
L 349.31238 249.043911 
L 352.214519 248.672303 
L 355.116658 248.292716 
L 358.018797 247.9139 
L 360.920936 247.539232 
L 363.823075 247.166232 
L 366.725214 246.791608 
L 369.627353 246.414276 
L 372.529492 246.039087 
L 375.431631 245.6624 
L 378.33377 245.28954 
L 381.235909 244.915558 
L 384.138048 244.537047 
L 387.040187 244.15872 
L 389.942326 243.775842 
L 392.844465 243.40133 
L 395.746604 243.03009 
L 398.648743 242.652964 
L 401.550882 242.277791 
L 404.453021 241.905194 
L 407.35516 241.524692 
L 410.257299 241.148653 
L 413.159439 240.773114 
L 416.061578 240.396382 
L 418.963717 240.01862 
L 421.865856 239.641882 
L 424.767995 239.264846 
L 427.670134 238.887571 
L 430.572273 238.510771 
" clip-path="url(#p6cd44a06de)" style="fill: none; stroke: #4c72b0; stroke-width: 3; stroke-linecap: round"/>
   </g>
   <g id="line2d_16">
    <path d="M 85.217727 282.618118 
L 88.119866 282.572838 
L 91.022005 282.52766 
L 93.924144 282.482461 
L 96.826283 281.507084 
L 99.728422 280.533857 
L 102.630561 279.558456 
L 105.532701 278.59294 
L 108.43484 277.634577 
L 111.336979 276.661019 
L 114.239118 275.68201 
L 117.141257 274.710081 
L 120.043396 273.74159 
L 122.945535 272.767122 
L 125.847674 271.79666 
L 128.749813 270.826857 
L 131.651952 269.855215 
L 134.554091 268.87926 
L 137.45623 267.900027 
L 140.358369 266.935003 
L 143.260508 265.96593 
L 146.162647 264.98863 
L 149.064786 264.016744 
L 151.966925 263.044167 
L 154.869064 262.083136 
L 157.771203 261.118984 
L 160.673342 260.147027 
L 163.575481 259.181028 
L 166.47762 258.206529 
L 169.379759 257.234209 
L 172.281898 256.266974 
L 175.184037 255.291505 
L 178.086176 254.324866 
L 180.988316 253.343233 
L 183.890455 252.372271 
L 186.792594 251.398241 
L 189.694733 250.418143 
L 192.596872 249.452023 
L 195.499011 248.488899 
L 198.40115 247.519 
L 201.303289 246.543365 
L 204.205428 245.581163 
L 207.107567 244.612117 
L 210.009706 243.637361 
L 212.911845 242.667794 
L 215.813984 241.697405 
L 218.716123 240.729178 
L 221.618262 239.759598 
L 224.520401 238.796918 
L 227.42254 237.839367 
L 230.324679 236.875122 
L 233.226818 235.912715 
L 236.128957 234.955428 
L 239.031096 233.994028 
L 241.933235 233.034758 
L 244.835374 232.071469 
L 247.737513 231.10714 
L 250.639652 230.145214 
L 253.541791 229.186975 
L 256.44393 228.225818 
L 259.34607 227.269723 
L 262.248209 226.30964 
L 265.150348 225.343911 
L 268.052487 224.373458 
L 270.954626 223.414785 
L 273.856765 222.453136 
L 276.758904 221.486911 
L 279.661043 220.527927 
L 282.563182 219.568796 
L 285.465321 218.604787 
L 288.36746 217.645358 
L 291.269599 216.691542 
L 294.171738 215.728418 
L 297.073877 214.776629 
L 299.976016 213.812096 
L 302.878155 212.859753 
L 305.780294 211.882817 
L 308.682433 210.908319 
L 311.584572 209.939371 
L 314.486711 208.95967 
L 317.38885 207.98661 
L 320.290989 207.012194 
L 323.193128 206.043019 
L 326.095267 205.078941 
L 328.997406 204.112282 
L 331.899545 203.141983 
L 334.801684 202.17074 
L 337.703824 201.201623 
L 340.605963 200.230898 
L 343.508102 199.250032 
L 346.410241 198.279989 
L 349.31238 197.318108 
L 352.214519 196.339734 
L 355.116658 195.362962 
L 358.018797 194.394442 
L 360.920936 193.420928 
L 363.823075 192.462731 
L 366.725214 191.505007 
L 369.627353 190.542878 
L 372.529492 189.577397 
L 375.431631 188.607744 
L 378.33377 187.648721 
L 381.235909 186.681688 
L 384.138048 185.723169 
L 387.040187 184.761669 
L 389.942326 183.80037 
L 392.844465 182.841501 
L 395.746604 181.884464 
L 398.648743 180.935186 
L 401.550882 179.967691 
L 404.453021 179.000624 
L 407.35516 178.045224 
L 410.257299 177.077933 
L 413.159439 176.111708 
L 416.061578 175.144305 
L 418.963717 174.174752 
L 421.865856 173.212933 
L 424.767995 172.249814 
L 427.670134 171.287865 
L 430.572273 170.327874 
" clip-path="url(#p6cd44a06de)" style="fill: none; stroke: #dd8452; stroke-width: 3; stroke-linecap: round"/>
   </g>
   <g id="line2d_17">
    <path d="M 85.217727 282.544822 
L 88.119866 282.412502 
L 91.022005 282.273106 
L 93.924144 282.138988 
L 96.826283 280.042164 
L 99.728422 277.931854 
L 102.630561 275.832249 
L 105.532701 273.752684 
L 108.43484 271.656929 
L 111.336979 269.544159 
L 114.239118 267.422449 
L 117.141257 265.341892 
L 120.043396 263.327945 
L 122.945535 261.256188 
L 125.847674 259.214075 
L 128.749813 257.157572 
L 131.651952 255.11233 
L 134.554091 253.074902 
L 137.45623 251.01832 
L 140.358369 248.954372 
L 143.260508 246.901166 
L 146.162647 244.862046 
L 149.064786 242.826155 
L 151.966925 240.771881 
L 154.869064 238.731479 
L 157.771203 236.685557 
L 160.673342 234.607595 
L 163.575481 232.579271 
L 166.47762 230.53625 
L 169.379759 228.475302 
L 172.281898 226.395615 
L 175.184037 224.343718 
L 178.086176 222.270043 
L 180.988316 220.193642 
L 183.890455 218.141916 
L 186.792594 216.065928 
L 189.694733 214.052587 
L 192.596872 211.962336 
L 195.499011 209.926976 
L 198.40115 207.851796 
L 201.303289 205.806798 
L 204.205428 203.749555 
L 207.107567 201.679014 
L 210.009706 199.636559 
L 212.911845 197.594752 
L 215.813984 195.552642 
L 218.716123 193.465768 
L 221.618262 191.400058 
L 224.520401 189.350475 
L 227.42254 187.297506 
L 230.324679 185.253335 
L 233.226818 183.184715 
L 236.128957 181.118196 
L 239.031096 179.059384 
L 241.933235 177.010293 
L 244.835374 174.947002 
L 247.737513 172.896792 
L 250.639652 170.824537 
L 253.541791 168.774359 
L 256.44393 166.689362 
L 259.34607 164.651125 
L 262.248209 162.582299 
L 265.150348 160.521514 
L 268.052487 158.456867 
L 270.954626 156.367046 
L 273.856765 154.318313 
L 276.758904 152.275622 
L 279.661043 150.225724 
L 282.563182 148.146372 
L 285.465321 146.051613 
L 288.36746 143.983047 
L 291.269599 141.910311 
L 294.171738 139.861987 
L 297.073877 137.805911 
L 299.976016 135.739809 
L 302.878155 133.667924 
L 305.780294 131.576217 
L 308.682433 129.491472 
L 311.584572 127.435017 
L 314.486711 125.36179 
L 317.38885 123.298532 
L 320.290989 121.202998 
L 323.193128 119.157864 
L 326.095267 117.078136 
L 328.997406 114.999313 
L 331.899545 112.93007 
L 334.801684 110.843156 
L 337.703824 108.752614 
L 340.605963 106.670756 
L 343.508102 104.611338 
L 346.410241 102.543979 
L 349.31238 100.482048 
L 352.214519 98.43954 
L 355.116658 96.355904 
L 358.018797 94.293406 
L 360.920936 92.24606 
L 363.823075 90.163476 
L 366.725214 88.103144 
L 369.627353 86.023179 
L 372.529492 83.95023 
L 375.431631 81.856322 
L 378.33377 79.81038 
L 381.235909 77.745419 
L 384.138048 75.680499 
L 387.040187 73.613861 
L 389.942326 71.528832 
L 392.844465 69.465911 
L 395.746604 67.392711 
L 398.648743 65.320451 
L 401.550882 63.240962 
L 404.453021 61.175157 
L 407.35516 59.109476 
L 410.257299 57.009341 
L 413.159439 54.936259 
L 416.061578 52.905966 
L 418.963717 50.825843 
L 421.865856 48.778921 
L 424.767995 46.672729 
L 427.670134 44.606357 
L 430.572273 42.548256 
" clip-path="url(#p6cd44a06de)" style="fill: none; stroke: #55a868; stroke-width: 3; stroke-linecap: round"/>
   </g>
   <g id="patch_3">
    <path d="M 67.95 294.66 
L 67.95 29.76 
" style="fill: none; stroke: #ffffff; stroke-width: 1.25; stroke-linejoin: miter; stroke-linecap: square"/>
   </g>
   <g id="patch_4">
    <path d="M 447.84 294.66 
L 447.84 29.76 
" style="fill: none; stroke: #ffffff; stroke-width: 1.25; stroke-linejoin: miter; stroke-linecap: square"/>
   </g>
   <g id="patch_5">
    <path d="M 67.95 294.66 
L 447.84 294.66 
" style="fill: none; stroke: #ffffff; stroke-width: 1.25; stroke-linejoin: miter; stroke-linecap: square"/>
   </g>
   <g id="patch_6">
    <path d="M 67.95 29.76 
L 447.84 29.76 
" style="fill: none; stroke: #ffffff; stroke-width: 1.25; stroke-linejoin: miter; stroke-linecap: square"/>
   </g>
   <g id="text_17">
    <!-- zinc-coating-v0 -->
    <g style="fill: #262626" transform="translate(204.536406 23.76)scale(0.14 -0.14)">
     <defs>
      <path id="DejaVuSans-7a" d="M 353 3500 
L 3084 3500 
L 3084 2975 
L 922 459 
L 3084 459 
L 3084 0 
L 275 0 
L 275 525 
L 2438 3041 
L 353 3041 
L 353 3500 
z
" transform="scale(0.015625)"/>
      <path id="DejaVuSans-63" d="M 3122 3366 
L 3122 2828 
Q 2878 2963 2633 3030 
Q 2388 3097 2138 3097 
Q 1578 3097 1268 2742 
Q 959 2388 959 1747 
Q 959 1106 1268 751 
Q 1578 397 2138 397 
Q 2388 397 2633 464 
Q 2878 531 3122 666 
L 3122 134 
Q 2881 22 2623 -34 
Q 2366 -91 2075 -91 
Q 1284 -91 818 406 
Q 353 903 353 1747 
Q 353 2603 823 3093 
Q 1294 3584 2113 3584 
Q 2378 3584 2631 3529 
Q 2884 3475 3122 3366 
z
" transform="scale(0.015625)"/>
      <path id="DejaVuSans-2d" d="M 313 2009 
L 1997 2009 
L 1997 1497 
L 313 1497 
L 313 2009 
z
" transform="scale(0.015625)"/>
      <path id="DejaVuSans-67" d="M 2906 1791 
Q 2906 2416 2648 2759 
Q 2391 3103 1925 3103 
Q 1463 3103 1205 2759 
Q 947 2416 947 1791 
Q 947 1169 1205 825 
Q 1463 481 1925 481 
Q 2391 481 2648 825 
Q 2906 1169 2906 1791 
z
M 3481 434 
Q 3481 -459 3084 -895 
Q 2688 -1331 1869 -1331 
Q 1566 -1331 1297 -1286 
Q 1028 -1241 775 -1147 
L 775 -588 
Q 1028 -725 1275 -790 
Q 1522 -856 1778 -856 
Q 2344 -856 2625 -561 
Q 2906 -266 2906 331 
L 2906 616 
Q 2728 306 2450 153 
Q 2172 0 1784 0 
Q 1141 0 747 490 
Q 353 981 353 1791 
Q 353 2603 747 3093 
Q 1141 3584 1784 3584 
Q 2172 3584 2450 3431 
Q 2728 3278 2906 2969 
L 2906 3500 
L 3481 3500 
L 3481 434 
z
" transform="scale(0.015625)"/>
      <path id="DejaVuSans-76" d="M 191 3500 
L 800 3500 
L 1894 563 
L 2988 3500 
L 3597 3500 
L 2284 0 
L 1503 0 
L 191 3500 
z
" transform="scale(0.015625)"/>
     </defs>
     <use xlink:href="#DejaVuSans-7a"/>
     <use xlink:href="#DejaVuSans-69" x="52.490234"/>
     <use xlink:href="#DejaVuSans-6e" x="80.273438"/>
     <use xlink:href="#DejaVuSans-63" x="143.652344"/>
     <use xlink:href="#DejaVuSans-2d" x="198.632812"/>
     <use xlink:href="#DejaVuSans-63" x="234.716797"/>
     <use xlink:href="#DejaVuSans-6f" x="289.697266"/>
     <use xlink:href="#DejaVuSans-61" x="350.878906"/>
     <use xlink:href="#DejaVuSans-74" x="412.158203"/>
     <use xlink:href="#DejaVuSans-69" x="451.367188"/>
     <use xlink:href="#DejaVuSans-6e" x="479.150391"/>
     <use xlink:href="#DejaVuSans-67" x="542.529297"/>
     <use xlink:href="#DejaVuSans-2d" x="606.005859"/>
     <use xlink:href="#DejaVuSans-76" x="639.464844"/>
     <use xlink:href="#DejaVuSans-30" x="698.644531"/>
    </g>
   </g>
   <g id="legend_1">
    <g id="patch_7">
     <path d="M 75.65 86.997813 
L 223.477969 86.997813 
Q 225.677969 86.997813 225.677969 84.797813 
L 225.677969 37.46 
Q 225.677969 35.26 223.477969 35.26 
L 75.65 35.26 
Q 73.45 35.26 73.45 37.46 
L 73.45 84.797813 
Q 73.45 86.997813 75.65 86.997813 
z
" style="fill: #eaeaf2; opacity: 0.8; stroke: #cccccc; stroke-linejoin: miter"/>
    </g>
    <g id="line2d_18">
     <path d="M 77.85 44.168281 
L 88.85 44.168281 
L 99.85 44.168281 
" style="fill: none; stroke: #4c72b0; stroke-width: 3; stroke-linecap: round"/>
    </g>
    <g id="text_18">
     <!-- SAC-DELAY-10 -->
     <g style="fill: #262626" transform="translate(108.65 48.018281)scale(0.11 -0.11)">
      <defs>
       <path id="DejaVuSans-53" d="M 3425 4513 
L 3425 3897 
Q 3066 4069 2747 4153 
Q 2428 4238 2131 4238 
Q 1616 4238 1336 4038 
Q 1056 3838 1056 3469 
Q 1056 3159 1242 3001 
Q 1428 2844 1947 2747 
L 2328 2669 
Q 3034 2534 3370 2195 
Q 3706 1856 3706 1288 
Q 3706 609 3251 259 
Q 2797 -91 1919 -91 
Q 1588 -91 1214 -16 
Q 841 59 441 206 
L 441 856 
Q 825 641 1194 531 
Q 1563 422 1919 422 
Q 2459 422 2753 634 
Q 3047 847 3047 1241 
Q 3047 1584 2836 1778 
Q 2625 1972 2144 2069 
L 1759 2144 
Q 1053 2284 737 2584 
Q 422 2884 422 3419 
Q 422 4038 858 4394 
Q 1294 4750 2059 4750 
Q 2388 4750 2728 4690 
Q 3069 4631 3425 4513 
z
" transform="scale(0.015625)"/>
       <path id="DejaVuSans-41" d="M 2188 4044 
L 1331 1722 
L 3047 1722 
L 2188 4044 
z
M 1831 4666 
L 2547 4666 
L 4325 0 
L 3669 0 
L 3244 1197 
L 1141 1197 
L 716 0 
L 50 0 
L 1831 4666 
z
" transform="scale(0.015625)"/>
       <path id="DejaVuSans-43" d="M 4122 4306 
L 4122 3641 
Q 3803 3938 3442 4084 
Q 3081 4231 2675 4231 
Q 1875 4231 1450 3742 
Q 1025 3253 1025 2328 
Q 1025 1406 1450 917 
Q 1875 428 2675 428 
Q 3081 428 3442 575 
Q 3803 722 4122 1019 
L 4122 359 
Q 3791 134 3420 21 
Q 3050 -91 2638 -91 
Q 1578 -91 968 557 
Q 359 1206 359 2328 
Q 359 3453 968 4101 
Q 1578 4750 2638 4750 
Q 3056 4750 3426 4639 
Q 3797 4528 4122 4306 
z
" transform="scale(0.015625)"/>
       <path id="DejaVuSans-44" d="M 1259 4147 
L 1259 519 
L 2022 519 
Q 2988 519 3436 956 
Q 3884 1394 3884 2338 
Q 3884 3275 3436 3711 
Q 2988 4147 2022 4147 
L 1259 4147 
z
M 628 4666 
L 1925 4666 
Q 3281 4666 3915 4102 
Q 4550 3538 4550 2338 
Q 4550 1131 3912 565 
Q 3275 0 1925 0 
L 628 0 
L 628 4666 
z
" transform="scale(0.015625)"/>
       <path id="DejaVuSans-45" d="M 628 4666 
L 3578 4666 
L 3578 4134 
L 1259 4134 
L 1259 2753 
L 3481 2753 
L 3481 2222 
L 1259 2222 
L 1259 531 
L 3634 531 
L 3634 0 
L 628 0 
L 628 4666 
z
" transform="scale(0.015625)"/>
       <path id="DejaVuSans-4c" d="M 628 4666 
L 1259 4666 
L 1259 531 
L 3531 531 
L 3531 0 
L 628 0 
L 628 4666 
z
" transform="scale(0.015625)"/>
       <path id="DejaVuSans-59" d="M -13 4666 
L 666 4666 
L 1959 2747 
L 3244 4666 
L 3922 4666 
L 2272 2222 
L 2272 0 
L 1638 0 
L 1638 2222 
L -13 4666 
z
" transform="scale(0.015625)"/>
      </defs>
      <use xlink:href="#DejaVuSans-53"/>
      <use xlink:href="#DejaVuSans-41" x="65.351562"/>
      <use xlink:href="#DejaVuSans-43" x="132.009766"/>
      <use xlink:href="#DejaVuSans-2d" x="201.833984"/>
      <use xlink:href="#DejaVuSans-44" x="237.917969"/>
      <use xlink:href="#DejaVuSans-45" x="314.919922"/>
      <use xlink:href="#DejaVuSans-4c" x="378.103516"/>
      <use xlink:href="#DejaVuSans-41" x="436.066406"/>
      <use xlink:href="#DejaVuSans-59" x="496.724609"/>
      <use xlink:href="#DejaVuSans-2d" x="545.933594"/>
      <use xlink:href="#DejaVuSans-31" x="582.017578"/>
      <use xlink:href="#DejaVuSans-30" x="645.640625"/>
     </g>
    </g>
    <g id="line2d_19">
     <path d="M 77.85 60.314219 
L 88.85 60.314219 
L 99.85 60.314219 
" style="fill: none; stroke: #dd8452; stroke-width: 3; stroke-linecap: round"/>
    </g>
    <g id="text_19">
     <!-- SAC-IS-DELAY-10 -->
     <g style="fill: #262626" transform="translate(108.65 64.164219)scale(0.11 -0.11)">
      <defs>
       <path id="DejaVuSans-49" d="M 628 4666 
L 1259 4666 
L 1259 0 
L 628 0 
L 628 4666 
z
" transform="scale(0.015625)"/>
      </defs>
      <use xlink:href="#DejaVuSans-53"/>
      <use xlink:href="#DejaVuSans-41" x="65.351562"/>
      <use xlink:href="#DejaVuSans-43" x="132.009766"/>
      <use xlink:href="#DejaVuSans-2d" x="201.833984"/>
      <use xlink:href="#DejaVuSans-49" x="237.917969"/>
      <use xlink:href="#DejaVuSans-53" x="267.410156"/>
      <use xlink:href="#DejaVuSans-2d" x="330.886719"/>
      <use xlink:href="#DejaVuSans-44" x="366.970703"/>
      <use xlink:href="#DejaVuSans-45" x="443.972656"/>
      <use xlink:href="#DejaVuSans-4c" x="507.15625"/>
      <use xlink:href="#DejaVuSans-41" x="565.119141"/>
      <use xlink:href="#DejaVuSans-59" x="625.777344"/>
      <use xlink:href="#DejaVuSans-2d" x="674.986328"/>
      <use xlink:href="#DejaVuSans-31" x="711.070312"/>
      <use xlink:href="#DejaVuSans-30" x="774.693359"/>
     </g>
    </g>
    <g id="line2d_20">
     <path d="M 77.85 76.460156 
L 88.85 76.460156 
L 99.85 76.460156 
" style="fill: none; stroke: #55a868; stroke-width: 3; stroke-linecap: round"/>
    </g>
    <g id="text_20">
     <!-- DCAC-DELAY-10-16C -->
     <g style="fill: #262626" transform="translate(108.65 80.310156)scale(0.11 -0.11)">
      <defs>
       <path id="DejaVuSans-36" d="M 2113 2584 
Q 1688 2584 1439 2293 
Q 1191 2003 1191 1497 
Q 1191 994 1439 701 
Q 1688 409 2113 409 
Q 2538 409 2786 701 
Q 3034 994 3034 1497 
Q 3034 2003 2786 2293 
Q 2538 2584 2113 2584 
z
M 3366 4563 
L 3366 3988 
Q 3128 4100 2886 4159 
Q 2644 4219 2406 4219 
Q 1781 4219 1451 3797 
Q 1122 3375 1075 2522 
Q 1259 2794 1537 2939 
Q 1816 3084 2150 3084 
Q 2853 3084 3261 2657 
Q 3669 2231 3669 1497 
Q 3669 778 3244 343 
Q 2819 -91 2113 -91 
Q 1303 -91 875 529 
Q 447 1150 447 2328 
Q 447 3434 972 4092 
Q 1497 4750 2381 4750 
Q 2619 4750 2861 4703 
Q 3103 4656 3366 4563 
z
" transform="scale(0.015625)"/>
      </defs>
      <use xlink:href="#DejaVuSans-44"/>
      <use xlink:href="#DejaVuSans-43" x="77.001953"/>
      <use xlink:href="#DejaVuSans-41" x="146.826172"/>
      <use xlink:href="#DejaVuSans-43" x="213.484375"/>
      <use xlink:href="#DejaVuSans-2d" x="283.308594"/>
      <use xlink:href="#DejaVuSans-44" x="319.392578"/>
      <use xlink:href="#DejaVuSans-45" x="396.394531"/>
      <use xlink:href="#DejaVuSans-4c" x="459.578125"/>
      <use xlink:href="#DejaVuSans-41" x="517.541016"/>
      <use xlink:href="#DejaVuSans-59" x="578.199219"/>
      <use xlink:href="#DejaVuSans-2d" x="627.408203"/>
      <use xlink:href="#DejaVuSans-31" x="663.492188"/>
      <use xlink:href="#DejaVuSans-30" x="727.115234"/>
      <use xlink:href="#DejaVuSans-2d" x="790.738281"/>
      <use xlink:href="#DejaVuSans-31" x="826.822266"/>
      <use xlink:href="#DejaVuSans-36" x="890.445312"/>
      <use xlink:href="#DejaVuSans-43" x="954.068359"/>
     </g>
    </g>
   </g>
  </g>
 </g>
 <defs>
  <clipPath id="p6cd44a06de">
   <rect x="67.95" y="29.76" width="379.89" height="264.9"/>
  </clipPath>
 </defs>
</svg>
