<?xml version="1.0" encoding="utf-8" standalone="no"?>
<!DOCTYPE svg PUBLIC "-//W3C//DTD SVG 1.1//EN"
  "http://www.w3.org/Graphics/SVG/1.1/DTD/svg11.dtd">
<svg xmlns:xlink="http://www.w3.org/1999/xlink" width="460.8pt" height="345.6pt" viewBox="0 0 460.8 345.6" xmlns="http://www.w3.org/2000/svg" version="1.1">
 <metadata>
  <rdf:RDF xmlns:dc="http://purl.org/dc/elements/1.1/" xmlns:cc="http://creativecommons.org/ns#" xmlns:rdf="http://www.w3.org/1999/02/22-rdf-syntax-ns#">
   <cc:Work>
    <dc:type rdf:resource="http://purl.org/dc/dcmitype/StillImage"/>
    <dc:date>2022-09-10T15:50:43.449309</dc:date>
    <dc:format>image/svg+xml</dc:format>
    <dc:creator>
     <cc:Agent>
      <dc:title>Matplotlib v3.5.3, https://matplotlib.org/</dc:title>
     </cc:Agent>
    </dc:creator>
   </cc:Work>
  </rdf:RDF>
 </metadata>
 <defs>
  <style type="text/css">*{stroke-linejoin: round; stroke-linecap: butt}</style>
 </defs>
 <g id="figure_1">
  <g id="patch_1">
   <path d="M 0 345.6 
L 460.8 345.6 
L 460.8 0 
L 0 0 
z
" style="fill: #ffffff"/>
  </g>
  <g id="axes_1">
   <g id="patch_2">
    <path d="M 67.86 294.66 
L 447.84 294.66 
L 447.84 29.76 
L 67.86 29.76 
z
" style="fill: #eaeaf2"/>
   </g>
   <g id="matplotlib.axis_1">
    <g id="xtick_1">
     <g id="line2d_1">
      <path d="M 82.228992 294.66 
L 82.228992 29.76 
" clip-path="url(#p1b63038d0d)" style="fill: none; stroke: #ffffff; stroke-linecap: round"/>
     </g>
     <g id="text_1">
      <!-- 0.00 -->
      <g style="fill: #262626" transform="translate(69.982898 312.518281)scale(0.11 -0.11)">
       <defs>
        <path id="DejaVuSans-30" d="M 2034 4250 
Q 1547 4250 1301 3770 
Q 1056 3291 1056 2328 
Q 1056 1369 1301 889 
Q 1547 409 2034 409 
Q 2525 409 2770 889 
Q 3016 1369 3016 2328 
Q 3016 3291 2770 3770 
Q 2525 4250 2034 4250 
z
M 2034 4750 
Q 2819 4750 3233 4129 
Q 3647 3509 3647 2328 
Q 3647 1150 3233 529 
Q 2819 -91 2034 -91 
Q 1250 -91 836 529 
Q 422 1150 422 2328 
Q 422 3509 836 4129 
Q 1250 4750 2034 4750 
z
" transform="scale(0.015625)"/>
        <path id="DejaVuSans-2e" d="M 684 794 
L 1344 794 
L 1344 0 
L 684 0 
L 684 794 
z
" transform="scale(0.015625)"/>
       </defs>
       <use xlink:href="#DejaVuSans-30"/>
       <use xlink:href="#DejaVuSans-2e" x="63.623047"/>
       <use xlink:href="#DejaVuSans-30" x="95.410156"/>
       <use xlink:href="#DejaVuSans-30" x="159.033203"/>
      </g>
     </g>
    </g>
    <g id="xtick_2">
     <g id="line2d_2">
      <path d="M 140.285523 294.66 
L 140.285523 29.76 
" clip-path="url(#p1b63038d0d)" style="fill: none; stroke: #ffffff; stroke-linecap: round"/>
     </g>
     <g id="text_2">
      <!-- 0.05 -->
      <g style="fill: #262626" transform="translate(128.03943 312.518281)scale(0.11 -0.11)">
       <defs>
        <path id="DejaVuSans-35" d="M 691 4666 
L 3169 4666 
L 3169 4134 
L 1269 4134 
L 1269 2991 
Q 1406 3038 1543 3061 
Q 1681 3084 1819 3084 
Q 2600 3084 3056 2656 
Q 3513 2228 3513 1497 
Q 3513 744 3044 326 
Q 2575 -91 1722 -91 
Q 1428 -91 1123 -41 
Q 819 9 494 109 
L 494 744 
Q 775 591 1075 516 
Q 1375 441 1709 441 
Q 2250 441 2565 725 
Q 2881 1009 2881 1497 
Q 2881 1984 2565 2268 
Q 2250 2553 1709 2553 
Q 1456 2553 1204 2497 
Q 953 2441 691 2322 
L 691 4666 
z
" transform="scale(0.015625)"/>
       </defs>
       <use xlink:href="#DejaVuSans-30"/>
       <use xlink:href="#DejaVuSans-2e" x="63.623047"/>
       <use xlink:href="#DejaVuSans-30" x="95.410156"/>
       <use xlink:href="#DejaVuSans-35" x="159.033203"/>
      </g>
     </g>
    </g>
    <g id="xtick_3">
     <g id="line2d_3">
      <path d="M 198.342055 294.66 
L 198.342055 29.76 
" clip-path="url(#p1b63038d0d)" style="fill: none; stroke: #ffffff; stroke-linecap: round"/>
     </g>
     <g id="text_3">
      <!-- 0.10 -->
      <g style="fill: #262626" transform="translate(186.095961 312.518281)scale(0.11 -0.11)">
       <defs>
        <path id="DejaVuSans-31" d="M 794 531 
L 1825 531 
L 1825 4091 
L 703 3866 
L 703 4441 
L 1819 4666 
L 2450 4666 
L 2450 531 
L 3481 531 
L 3481 0 
L 794 0 
L 794 531 
z
" transform="scale(0.015625)"/>
       </defs>
       <use xlink:href="#DejaVuSans-30"/>
       <use xlink:href="#DejaVuSans-2e" x="63.623047"/>
       <use xlink:href="#DejaVuSans-31" x="95.410156"/>
       <use xlink:href="#DejaVuSans-30" x="159.033203"/>
      </g>
     </g>
    </g>
    <g id="xtick_4">
     <g id="line2d_4">
      <path d="M 256.398587 294.66 
L 256.398587 29.76 
" clip-path="url(#p1b63038d0d)" style="fill: none; stroke: #ffffff; stroke-linecap: round"/>
     </g>
     <g id="text_4">
      <!-- 0.15 -->
      <g style="fill: #262626" transform="translate(244.152493 312.518281)scale(0.11 -0.11)">
       <use xlink:href="#DejaVuSans-30"/>
       <use xlink:href="#DejaVuSans-2e" x="63.623047"/>
       <use xlink:href="#DejaVuSans-31" x="95.410156"/>
       <use xlink:href="#DejaVuSans-35" x="159.033203"/>
      </g>
     </g>
    </g>
    <g id="xtick_5">
     <g id="line2d_5">
      <path d="M 314.455118 294.66 
L 314.455118 29.76 
" clip-path="url(#p1b63038d0d)" style="fill: none; stroke: #ffffff; stroke-linecap: round"/>
     </g>
     <g id="text_5">
      <!-- 0.20 -->
      <g style="fill: #262626" transform="translate(302.209025 312.518281)scale(0.11 -0.11)">
       <defs>
        <path id="DejaVuSans-32" d="M 1228 531 
L 3431 531 
L 3431 0 
L 469 0 
L 469 531 
Q 828 903 1448 1529 
Q 2069 2156 2228 2338 
Q 2531 2678 2651 2914 
Q 2772 3150 2772 3378 
Q 2772 3750 2511 3984 
Q 2250 4219 1831 4219 
Q 1534 4219 1204 4116 
Q 875 4013 500 3803 
L 500 4441 
Q 881 4594 1212 4672 
Q 1544 4750 1819 4750 
Q 2544 4750 2975 4387 
Q 3406 4025 3406 3419 
Q 3406 3131 3298 2873 
Q 3191 2616 2906 2266 
Q 2828 2175 2409 1742 
Q 1991 1309 1228 531 
z
" transform="scale(0.015625)"/>
       </defs>
       <use xlink:href="#DejaVuSans-30"/>
       <use xlink:href="#DejaVuSans-2e" x="63.623047"/>
       <use xlink:href="#DejaVuSans-32" x="95.410156"/>
       <use xlink:href="#DejaVuSans-30" x="159.033203"/>
      </g>
     </g>
    </g>
    <g id="xtick_6">
     <g id="line2d_6">
      <path d="M 372.51165 294.66 
L 372.51165 29.76 
" clip-path="url(#p1b63038d0d)" style="fill: none; stroke: #ffffff; stroke-linecap: round"/>
     </g>
     <g id="text_6">
      <!-- 0.25 -->
      <g style="fill: #262626" transform="translate(360.265556 312.518281)scale(0.11 -0.11)">
       <use xlink:href="#DejaVuSans-30"/>
       <use xlink:href="#DejaVuSans-2e" x="63.623047"/>
       <use xlink:href="#DejaVuSans-32" x="95.410156"/>
       <use xlink:href="#DejaVuSans-35" x="159.033203"/>
      </g>
     </g>
    </g>
    <g id="xtick_7">
     <g id="line2d_7">
      <path d="M 430.568182 294.66 
L 430.568182 29.76 
" clip-path="url(#p1b63038d0d)" style="fill: none; stroke: #ffffff; stroke-linecap: round"/>
     </g>
     <g id="text_7">
      <!-- 0.30 -->
      <g style="fill: #262626" transform="translate(418.322088 312.518281)scale(0.11 -0.11)">
       <defs>
        <path id="DejaVuSans-33" d="M 2597 2516 
Q 3050 2419 3304 2112 
Q 3559 1806 3559 1356 
Q 3559 666 3084 287 
Q 2609 -91 1734 -91 
Q 1441 -91 1130 -33 
Q 819 25 488 141 
L 488 750 
Q 750 597 1062 519 
Q 1375 441 1716 441 
Q 2309 441 2620 675 
Q 2931 909 2931 1356 
Q 2931 1769 2642 2001 
Q 2353 2234 1838 2234 
L 1294 2234 
L 1294 2753 
L 1863 2753 
Q 2328 2753 2575 2939 
Q 2822 3125 2822 3475 
Q 2822 3834 2567 4026 
Q 2313 4219 1838 4219 
Q 1578 4219 1281 4162 
Q 984 4106 628 3988 
L 628 4550 
Q 988 4650 1302 4700 
Q 1616 4750 1894 4750 
Q 2613 4750 3031 4423 
Q 3450 4097 3450 3541 
Q 3450 3153 3228 2886 
Q 3006 2619 2597 2516 
z
" transform="scale(0.015625)"/>
       </defs>
       <use xlink:href="#DejaVuSans-30"/>
       <use xlink:href="#DejaVuSans-2e" x="63.623047"/>
       <use xlink:href="#DejaVuSans-33" x="95.410156"/>
       <use xlink:href="#DejaVuSans-30" x="159.033203"/>
      </g>
     </g>
    </g>
    <g id="text_8">
     <!-- Timesteps (in Million) -->
     <g style="fill: #262626" transform="translate(183.104219 329.44375)scale(0.14 -0.14)">
      <defs>
       <path id="DejaVuSans-54" d="M -19 4666 
L 3928 4666 
L 3928 4134 
L 2272 4134 
L 2272 0 
L 1638 0 
L 1638 4134 
L -19 4134 
L -19 4666 
z
" transform="scale(0.015625)"/>
       <path id="DejaVuSans-69" d="M 603 3500 
L 1178 3500 
L 1178 0 
L 603 0 
L 603 3500 
z
M 603 4863 
L 1178 4863 
L 1178 4134 
L 603 4134 
L 603 4863 
z
" transform="scale(0.015625)"/>
       <path id="DejaVuSans-6d" d="M 3328 2828 
Q 3544 3216 3844 3400 
Q 4144 3584 4550 3584 
Q 5097 3584 5394 3201 
Q 5691 2819 5691 2113 
L 5691 0 
L 5113 0 
L 5113 2094 
Q 5113 2597 4934 2840 
Q 4756 3084 4391 3084 
Q 3944 3084 3684 2787 
Q 3425 2491 3425 1978 
L 3425 0 
L 2847 0 
L 2847 2094 
Q 2847 2600 2669 2842 
Q 2491 3084 2119 3084 
Q 1678 3084 1418 2786 
Q 1159 2488 1159 1978 
L 1159 0 
L 581 0 
L 581 3500 
L 1159 3500 
L 1159 2956 
Q 1356 3278 1631 3431 
Q 1906 3584 2284 3584 
Q 2666 3584 2933 3390 
Q 3200 3197 3328 2828 
z
" transform="scale(0.015625)"/>
       <path id="DejaVuSans-65" d="M 3597 1894 
L 3597 1613 
L 953 1613 
Q 991 1019 1311 708 
Q 1631 397 2203 397 
Q 2534 397 2845 478 
Q 3156 559 3463 722 
L 3463 178 
Q 3153 47 2828 -22 
Q 2503 -91 2169 -91 
Q 1331 -91 842 396 
Q 353 884 353 1716 
Q 353 2575 817 3079 
Q 1281 3584 2069 3584 
Q 2775 3584 3186 3129 
Q 3597 2675 3597 1894 
z
M 3022 2063 
Q 3016 2534 2758 2815 
Q 2500 3097 2075 3097 
Q 1594 3097 1305 2825 
Q 1016 2553 972 2059 
L 3022 2063 
z
" transform="scale(0.015625)"/>
       <path id="DejaVuSans-73" d="M 2834 3397 
L 2834 2853 
Q 2591 2978 2328 3040 
Q 2066 3103 1784 3103 
Q 1356 3103 1142 2972 
Q 928 2841 928 2578 
Q 928 2378 1081 2264 
Q 1234 2150 1697 2047 
L 1894 2003 
Q 2506 1872 2764 1633 
Q 3022 1394 3022 966 
Q 3022 478 2636 193 
Q 2250 -91 1575 -91 
Q 1294 -91 989 -36 
Q 684 19 347 128 
L 347 722 
Q 666 556 975 473 
Q 1284 391 1588 391 
Q 1994 391 2212 530 
Q 2431 669 2431 922 
Q 2431 1156 2273 1281 
Q 2116 1406 1581 1522 
L 1381 1569 
Q 847 1681 609 1914 
Q 372 2147 372 2553 
Q 372 3047 722 3315 
Q 1072 3584 1716 3584 
Q 2034 3584 2315 3537 
Q 2597 3491 2834 3397 
z
" transform="scale(0.015625)"/>
       <path id="DejaVuSans-74" d="M 1172 4494 
L 1172 3500 
L 2356 3500 
L 2356 3053 
L 1172 3053 
L 1172 1153 
Q 1172 725 1289 603 
Q 1406 481 1766 481 
L 2356 481 
L 2356 0 
L 1766 0 
Q 1100 0 847 248 
Q 594 497 594 1153 
L 594 3053 
L 172 3053 
L 172 3500 
L 594 3500 
L 594 4494 
L 1172 4494 
z
" transform="scale(0.015625)"/>
       <path id="DejaVuSans-70" d="M 1159 525 
L 1159 -1331 
L 581 -1331 
L 581 3500 
L 1159 3500 
L 1159 2969 
Q 1341 3281 1617 3432 
Q 1894 3584 2278 3584 
Q 2916 3584 3314 3078 
Q 3713 2572 3713 1747 
Q 3713 922 3314 415 
Q 2916 -91 2278 -91 
Q 1894 -91 1617 61 
Q 1341 213 1159 525 
z
M 3116 1747 
Q 3116 2381 2855 2742 
Q 2594 3103 2138 3103 
Q 1681 3103 1420 2742 
Q 1159 2381 1159 1747 
Q 1159 1113 1420 752 
Q 1681 391 2138 391 
Q 2594 391 2855 752 
Q 3116 1113 3116 1747 
z
" transform="scale(0.015625)"/>
       <path id="DejaVuSans-20" transform="scale(0.015625)"/>
       <path id="DejaVuSans-28" d="M 1984 4856 
Q 1566 4138 1362 3434 
Q 1159 2731 1159 2009 
Q 1159 1288 1364 580 
Q 1569 -128 1984 -844 
L 1484 -844 
Q 1016 -109 783 600 
Q 550 1309 550 2009 
Q 550 2706 781 3412 
Q 1013 4119 1484 4856 
L 1984 4856 
z
" transform="scale(0.015625)"/>
       <path id="DejaVuSans-6e" d="M 3513 2113 
L 3513 0 
L 2938 0 
L 2938 2094 
Q 2938 2591 2744 2837 
Q 2550 3084 2163 3084 
Q 1697 3084 1428 2787 
Q 1159 2491 1159 1978 
L 1159 0 
L 581 0 
L 581 3500 
L 1159 3500 
L 1159 2956 
Q 1366 3272 1645 3428 
Q 1925 3584 2291 3584 
Q 2894 3584 3203 3211 
Q 3513 2838 3513 2113 
z
" transform="scale(0.015625)"/>
       <path id="DejaVuSans-4d" d="M 628 4666 
L 1569 4666 
L 2759 1491 
L 3956 4666 
L 4897 4666 
L 4897 0 
L 4281 0 
L 4281 4097 
L 3078 897 
L 2444 897 
L 1241 4097 
L 1241 0 
L 628 0 
L 628 4666 
z
" transform="scale(0.015625)"/>
       <path id="DejaVuSans-6c" d="M 603 4863 
L 1178 4863 
L 1178 0 
L 603 0 
L 603 4863 
z
" transform="scale(0.015625)"/>
       <path id="DejaVuSans-6f" d="M 1959 3097 
Q 1497 3097 1228 2736 
Q 959 2375 959 1747 
Q 959 1119 1226 758 
Q 1494 397 1959 397 
Q 2419 397 2687 759 
Q 2956 1122 2956 1747 
Q 2956 2369 2687 2733 
Q 2419 3097 1959 3097 
z
M 1959 3584 
Q 2709 3584 3137 3096 
Q 3566 2609 3566 1747 
Q 3566 888 3137 398 
Q 2709 -91 1959 -91 
Q 1206 -91 779 398 
Q 353 888 353 1747 
Q 353 2609 779 3096 
Q 1206 3584 1959 3584 
z
" transform="scale(0.015625)"/>
       <path id="DejaVuSans-29" d="M 513 4856 
L 1013 4856 
Q 1481 4119 1714 3412 
Q 1947 2706 1947 2009 
Q 1947 1309 1714 600 
Q 1481 -109 1013 -844 
L 513 -844 
Q 928 -128 1133 580 
Q 1338 1288 1338 2009 
Q 1338 2731 1133 3434 
Q 928 4138 513 4856 
z
" transform="scale(0.015625)"/>
      </defs>
      <use xlink:href="#DejaVuSans-54"/>
      <use xlink:href="#DejaVuSans-69" x="57.958984"/>
      <use xlink:href="#DejaVuSans-6d" x="85.742188"/>
      <use xlink:href="#DejaVuSans-65" x="183.154297"/>
      <use xlink:href="#DejaVuSans-73" x="244.677734"/>
      <use xlink:href="#DejaVuSans-74" x="296.777344"/>
      <use xlink:href="#DejaVuSans-65" x="335.986328"/>
      <use xlink:href="#DejaVuSans-70" x="397.509766"/>
      <use xlink:href="#DejaVuSans-73" x="460.986328"/>
      <use xlink:href="#DejaVuSans-20" x="513.085938"/>
      <use xlink:href="#DejaVuSans-28" x="544.873047"/>
      <use xlink:href="#DejaVuSans-69" x="583.886719"/>
      <use xlink:href="#DejaVuSans-6e" x="611.669922"/>
      <use xlink:href="#DejaVuSans-20" x="675.048828"/>
      <use xlink:href="#DejaVuSans-4d" x="706.835938"/>
      <use xlink:href="#DejaVuSans-69" x="793.115234"/>
      <use xlink:href="#DejaVuSans-6c" x="820.898438"/>
      <use xlink:href="#DejaVuSans-6c" x="848.681641"/>
      <use xlink:href="#DejaVuSans-69" x="876.464844"/>
      <use xlink:href="#DejaVuSans-6f" x="904.248047"/>
      <use xlink:href="#DejaVuSans-6e" x="965.429688"/>
      <use xlink:href="#DejaVuSans-29" x="1028.808594"/>
     </g>
    </g>
   </g>
   <g id="matplotlib.axis_2">
    <g id="ytick_1">
     <g id="line2d_8">
      <path d="M 67.86 282.754658 
L 447.84 282.754658 
" clip-path="url(#p1b63038d0d)" style="fill: none; stroke: #ffffff; stroke-linecap: round"/>
     </g>
     <g id="text_9">
      <!-- 0 -->
      <g style="fill: #262626" transform="translate(51.36125 286.933799)scale(0.11 -0.11)">
       <use xlink:href="#DejaVuSans-30"/>
      </g>
     </g>
    </g>
    <g id="ytick_2">
     <g id="line2d_9">
      <path d="M 67.86 232.990003 
L 447.84 232.990003 
" clip-path="url(#p1b63038d0d)" style="fill: none; stroke: #ffffff; stroke-linecap: round"/>
     </g>
     <g id="text_10">
      <!-- 200 -->
      <g style="fill: #262626" transform="translate(37.36375 237.169143)scale(0.11 -0.11)">
       <use xlink:href="#DejaVuSans-32"/>
       <use xlink:href="#DejaVuSans-30" x="63.623047"/>
       <use xlink:href="#DejaVuSans-30" x="127.246094"/>
      </g>
     </g>
    </g>
    <g id="ytick_3">
     <g id="line2d_10">
      <path d="M 67.86 183.225347 
L 447.84 183.225347 
" clip-path="url(#p1b63038d0d)" style="fill: none; stroke: #ffffff; stroke-linecap: round"/>
     </g>
     <g id="text_11">
      <!-- 400 -->
      <g style="fill: #262626" transform="translate(37.36375 187.404488)scale(0.11 -0.11)">
       <defs>
        <path id="DejaVuSans-34" d="M 2419 4116 
L 825 1625 
L 2419 1625 
L 2419 4116 
z
M 2253 4666 
L 3047 4666 
L 3047 1625 
L 3713 1625 
L 3713 1100 
L 3047 1100 
L 3047 0 
L 2419 0 
L 2419 1100 
L 313 1100 
L 313 1709 
L 2253 4666 
z
" transform="scale(0.015625)"/>
       </defs>
       <use xlink:href="#DejaVuSans-34"/>
       <use xlink:href="#DejaVuSans-30" x="63.623047"/>
       <use xlink:href="#DejaVuSans-30" x="127.246094"/>
      </g>
     </g>
    </g>
    <g id="ytick_4">
     <g id="line2d_11">
      <path d="M 67.86 133.460692 
L 447.84 133.460692 
" clip-path="url(#p1b63038d0d)" style="fill: none; stroke: #ffffff; stroke-linecap: round"/>
     </g>
     <g id="text_12">
      <!-- 600 -->
      <g style="fill: #262626" transform="translate(37.36375 137.639832)scale(0.11 -0.11)">
       <defs>
        <path id="DejaVuSans-36" d="M 2113 2584 
Q 1688 2584 1439 2293 
Q 1191 2003 1191 1497 
Q 1191 994 1439 701 
Q 1688 409 2113 409 
Q 2538 409 2786 701 
Q 3034 994 3034 1497 
Q 3034 2003 2786 2293 
Q 2538 2584 2113 2584 
z
M 3366 4563 
L 3366 3988 
Q 3128 4100 2886 4159 
Q 2644 4219 2406 4219 
Q 1781 4219 1451 3797 
Q 1122 3375 1075 2522 
Q 1259 2794 1537 2939 
Q 1816 3084 2150 3084 
Q 2853 3084 3261 2657 
Q 3669 2231 3669 1497 
Q 3669 778 3244 343 
Q 2819 -91 2113 -91 
Q 1303 -91 875 529 
Q 447 1150 447 2328 
Q 447 3434 972 4092 
Q 1497 4750 2381 4750 
Q 2619 4750 2861 4703 
Q 3103 4656 3366 4563 
z
" transform="scale(0.015625)"/>
       </defs>
       <use xlink:href="#DejaVuSans-36"/>
       <use xlink:href="#DejaVuSans-30" x="63.623047"/>
       <use xlink:href="#DejaVuSans-30" x="127.246094"/>
      </g>
     </g>
    </g>
    <g id="ytick_5">
     <g id="line2d_12">
      <path d="M 67.86 83.696036 
L 447.84 83.696036 
" clip-path="url(#p1b63038d0d)" style="fill: none; stroke: #ffffff; stroke-linecap: round"/>
     </g>
     <g id="text_13">
      <!-- 800 -->
      <g style="fill: #262626" transform="translate(37.36375 87.875177)scale(0.11 -0.11)">
       <defs>
        <path id="DejaVuSans-38" d="M 2034 2216 
Q 1584 2216 1326 1975 
Q 1069 1734 1069 1313 
Q 1069 891 1326 650 
Q 1584 409 2034 409 
Q 2484 409 2743 651 
Q 3003 894 3003 1313 
Q 3003 1734 2745 1975 
Q 2488 2216 2034 2216 
z
M 1403 2484 
Q 997 2584 770 2862 
Q 544 3141 544 3541 
Q 544 4100 942 4425 
Q 1341 4750 2034 4750 
Q 2731 4750 3128 4425 
Q 3525 4100 3525 3541 
Q 3525 3141 3298 2862 
Q 3072 2584 2669 2484 
Q 3125 2378 3379 2068 
Q 3634 1759 3634 1313 
Q 3634 634 3220 271 
Q 2806 -91 2034 -91 
Q 1263 -91 848 271 
Q 434 634 434 1313 
Q 434 1759 690 2068 
Q 947 2378 1403 2484 
z
M 1172 3481 
Q 1172 3119 1398 2916 
Q 1625 2713 2034 2713 
Q 2441 2713 2670 2916 
Q 2900 3119 2900 3481 
Q 2900 3844 2670 4047 
Q 2441 4250 2034 4250 
Q 1625 4250 1398 4047 
Q 1172 3844 1172 3481 
z
" transform="scale(0.015625)"/>
       </defs>
       <use xlink:href="#DejaVuSans-38"/>
       <use xlink:href="#DejaVuSans-30" x="63.623047"/>
       <use xlink:href="#DejaVuSans-30" x="127.246094"/>
      </g>
     </g>
    </g>
    <g id="ytick_6">
     <g id="line2d_13">
      <path d="M 67.86 33.931381 
L 447.84 33.931381 
" clip-path="url(#p1b63038d0d)" style="fill: none; stroke: #ffffff; stroke-linecap: round"/>
     </g>
     <g id="text_14">
      <!-- 1000 -->
      <g style="fill: #262626" transform="translate(30.365 38.110521)scale(0.11 -0.11)">
       <use xlink:href="#DejaVuSans-31"/>
       <use xlink:href="#DejaVuSans-30" x="63.623047"/>
       <use xlink:href="#DejaVuSans-30" x="127.246094"/>
       <use xlink:href="#DejaVuSans-30" x="190.869141"/>
      </g>
     </g>
    </g>
    <g id="text_15">
     <!-- Traintime -->
     <g style="fill: #262626" transform="translate(23.453438 194.815781)rotate(-90)scale(0.14 -0.14)">
      <defs>
       <path id="DejaVuSans-72" d="M 2631 2963 
Q 2534 3019 2420 3045 
Q 2306 3072 2169 3072 
Q 1681 3072 1420 2755 
Q 1159 2438 1159 1844 
L 1159 0 
L 581 0 
L 581 3500 
L 1159 3500 
L 1159 2956 
Q 1341 3275 1631 3429 
Q 1922 3584 2338 3584 
Q 2397 3584 2469 3576 
Q 2541 3569 2628 3553 
L 2631 2963 
z
" transform="scale(0.015625)"/>
       <path id="DejaVuSans-61" d="M 2194 1759 
Q 1497 1759 1228 1600 
Q 959 1441 959 1056 
Q 959 750 1161 570 
Q 1363 391 1709 391 
Q 2188 391 2477 730 
Q 2766 1069 2766 1631 
L 2766 1759 
L 2194 1759 
z
M 3341 1997 
L 3341 0 
L 2766 0 
L 2766 531 
Q 2569 213 2275 61 
Q 1981 -91 1556 -91 
Q 1019 -91 701 211 
Q 384 513 384 1019 
Q 384 1609 779 1909 
Q 1175 2209 1959 2209 
L 2766 2209 
L 2766 2266 
Q 2766 2663 2505 2880 
Q 2244 3097 1772 3097 
Q 1472 3097 1187 3025 
Q 903 2953 641 2809 
L 641 3341 
Q 956 3463 1253 3523 
Q 1550 3584 1831 3584 
Q 2591 3584 2966 3190 
Q 3341 2797 3341 1997 
z
" transform="scale(0.015625)"/>
      </defs>
      <use xlink:href="#DejaVuSans-54"/>
      <use xlink:href="#DejaVuSans-72" x="46.333984"/>
      <use xlink:href="#DejaVuSans-61" x="87.447266"/>
      <use xlink:href="#DejaVuSans-69" x="148.726562"/>
      <use xlink:href="#DejaVuSans-6e" x="176.509766"/>
      <use xlink:href="#DejaVuSans-74" x="239.888672"/>
      <use xlink:href="#DejaVuSans-69" x="279.097656"/>
      <use xlink:href="#DejaVuSans-6d" x="306.880859"/>
      <use xlink:href="#DejaVuSans-65" x="404.292969"/>
     </g>
    </g>
   </g>
   <g id="PolyCollection_1">
    <defs>
     <path id="ma56f145191" d="M 85.131818 -62.98281 
L 85.131818 -62.991637 
L 88.034645 -63.142151 
L 90.937471 -63.284174 
L 93.840298 -63.422108 
L 96.743125 -64.632117 
L 99.645951 -65.860246 
L 102.548778 -67.111319 
L 105.451604 -68.337359 
L 108.354431 -69.55551 
L 111.257257 -70.752991 
L 114.160084 -71.919632 
L 117.062911 -73.141848 
L 119.965737 -74.339862 
L 122.868564 -75.567358 
L 125.77139 -76.788449 
L 128.674217 -78.024438 
L 131.577044 -79.277503 
L 134.47987 -80.482311 
L 137.382697 -81.723558 
L 140.285523 -82.924921 
L 143.18835 -84.146103 
L 146.091176 -85.413753 
L 148.994003 -86.616633 
L 151.89683 -87.842095 
L 154.799656 -89.072814 
L 157.702483 -90.30861 
L 160.605309 -91.533892 
L 163.508136 -92.737789 
L 166.410963 -93.960256 
L 169.313789 -95.203069 
L 172.216616 -96.376269 
L 175.119442 -97.581623 
L 178.022269 -98.788665 
L 180.925095 -99.995019 
L 183.827922 -101.206092 
L 186.730749 -102.417175 
L 189.633575 -103.598076 
L 192.536402 -104.797178 
L 195.439228 -105.99197 
L 198.342055 -107.188658 
L 201.244882 -108.376992 
L 204.147708 -109.55004 
L 207.050535 -110.685679 
L 209.953361 -111.858037 
L 212.856188 -113.042133 
L 215.759015 -114.197315 
L 218.661841 -115.415783 
L 221.564668 -116.650409 
L 224.467494 -117.822396 
L 227.370321 -118.97427 
L 230.273147 -120.200553 
L 233.175974 -121.384609 
L 236.078801 -122.584085 
L 238.981627 -123.755602 
L 241.884454 -124.963392 
L 244.78728 -126.142085 
L 247.690107 -127.324598 
L 250.592934 -128.520584 
L 253.49576 -129.691575 
L 256.398587 -130.884129 
L 259.301413 -132.059856 
L 262.20424 -133.260878 
L 265.107066 -134.447787 
L 268.009893 -135.637465 
L 270.91272 -136.807455 
L 273.815546 -137.981453 
L 276.718373 -139.136908 
L 279.621199 -140.312463 
L 282.524026 -141.490156 
L 285.426853 -142.668688 
L 288.329679 -143.86301 
L 291.232506 -145.055097 
L 294.135332 -146.241529 
L 297.038159 -147.422745 
L 299.940985 -148.585537 
L 302.843812 -149.760345 
L 305.746639 -150.912478 
L 308.649465 -152.10456 
L 311.552292 -153.32911 
L 314.455118 -154.495598 
L 317.357945 -155.701185 
L 320.260772 -156.866525 
L 323.163598 -158.064452 
L 326.066425 -159.226129 
L 328.969251 -160.413398 
L 331.872078 -161.594853 
L 334.774905 -162.761903 
L 337.677731 -163.947294 
L 340.580558 -165.117224 
L 343.483384 -166.310946 
L 346.386211 -167.481321 
L 349.289037 -168.674845 
L 352.191864 -169.816661 
L 355.094691 -170.98466 
L 357.997517 -172.144129 
L 360.900344 -173.341272 
L 363.80317 -174.512866 
L 366.705997 -175.735643 
L 369.608824 -176.916107 
L 372.51165 -178.099727 
L 375.414477 -179.276055 
L 378.317303 -180.453836 
L 381.22013 -181.696029 
L 384.122956 -182.894269 
L 387.025783 -184.091719 
L 389.92861 -185.270003 
L 392.831436 -186.460096 
L 395.734263 -187.641803 
L 398.637089 -188.81366 
L 401.539916 -190.010327 
L 404.442743 -191.211649 
L 407.345569 -192.402056 
L 410.248396 -193.55518 
L 413.151222 -194.758707 
L 416.054049 -195.935197 
L 418.956875 -197.135013 
L 421.859702 -198.3315 
L 424.762529 -199.508786 
L 427.665355 -200.666775 
L 430.568182 -201.88415 
L 430.568182 -198.523848 
L 430.568182 -198.523848 
L 427.665355 -197.341294 
L 424.762529 -196.198348 
L 421.859702 -195.062736 
L 418.956875 -193.874572 
L 416.054049 -192.729401 
L 413.151222 -191.581133 
L 410.248396 -190.415611 
L 407.345569 -189.27331 
L 404.442743 -188.126678 
L 401.539916 -186.977471 
L 398.637089 -185.848039 
L 395.734263 -184.684461 
L 392.831436 -183.544222 
L 389.92861 -182.358333 
L 387.025783 -181.215772 
L 384.122956 -180.067764 
L 381.22013 -178.90893 
L 378.317303 -177.761812 
L 375.414477 -176.560004 
L 372.51165 -175.397412 
L 369.608824 -174.200503 
L 366.705997 -173.011959 
L 363.80317 -171.856911 
L 360.900344 -170.695172 
L 357.997517 -169.527001 
L 355.094691 -168.35817 
L 352.191864 -167.160807 
L 349.289037 -166.000069 
L 346.386211 -164.827677 
L 343.483384 -163.663553 
L 340.580558 -162.516014 
L 337.677731 -161.357956 
L 334.774905 -160.215798 
L 331.872078 -159.04402 
L 328.969251 -157.899623 
L 326.066425 -156.747052 
L 323.163598 -155.583666 
L 320.260772 -154.41772 
L 317.357945 -153.278399 
L 314.455118 -152.095722 
L 311.552292 -150.938267 
L 308.649465 -149.757287 
L 305.746639 -148.58186 
L 302.843812 -147.419974 
L 299.940985 -146.249232 
L 297.038159 -145.084746 
L 294.135332 -143.889874 
L 291.232506 -142.727897 
L 288.329679 -141.552932 
L 285.426853 -140.379265 
L 282.524026 -139.175247 
L 279.621199 -138.020059 
L 276.718373 -136.898132 
L 273.815546 -135.740458 
L 270.91272 -134.567539 
L 268.009893 -133.425323 
L 265.107066 -132.248925 
L 262.20424 -131.105656 
L 259.301413 -129.917621 
L 256.398587 -128.760864 
L 253.49576 -127.578837 
L 250.592934 -126.412579 
L 247.690107 -125.244082 
L 244.78728 -124.10044 
L 241.884454 -122.934537 
L 238.981627 -121.780346 
L 236.078801 -120.585647 
L 233.175974 -119.38586 
L 230.273147 -118.183514 
L 227.370321 -116.992503 
L 224.467494 -115.82862 
L 221.564668 -114.682925 
L 218.661841 -113.480626 
L 215.759015 -112.268021 
L 212.856188 -111.103202 
L 209.953361 -109.926888 
L 207.050535 -108.801183 
L 204.147708 -107.574359 
L 201.244882 -106.405219 
L 198.342055 -105.225794 
L 195.439228 -104.062014 
L 192.536402 -102.899207 
L 189.633575 -101.745955 
L 186.730749 -100.571368 
L 183.827922 -99.435644 
L 180.925095 -98.279453 
L 178.022269 -97.107676 
L 175.119442 -95.95977 
L 172.216616 -94.796221 
L 169.313789 -93.643898 
L 166.410963 -92.48809 
L 163.508136 -91.331144 
L 160.605309 -90.140096 
L 157.702483 -88.989496 
L 154.799656 -87.827384 
L 151.89683 -86.667658 
L 148.994003 -85.481529 
L 146.091176 -84.296345 
L 143.18835 -83.124914 
L 140.285523 -81.958642 
L 137.382697 -80.777657 
L 134.47987 -79.634255 
L 131.577044 -78.467576 
L 128.674217 -77.290724 
L 125.77139 -76.09666 
L 122.868564 -74.949324 
L 119.965737 -73.815626 
L 117.062911 -72.685584 
L 114.160084 -71.534657 
L 111.257257 -70.370028 
L 108.354431 -69.210302 
L 105.451604 -68.051283 
L 102.548778 -66.893554 
L 99.645951 -65.755172 
L 96.743125 -64.582898 
L 93.840298 -63.402024 
L 90.937471 -63.264168 
L 88.034645 -63.123483 
L 85.131818 -62.98281 
z
" style="stroke: #ffffff; stroke-opacity: 0.5"/>
    </defs>
    <g clip-path="url(#p1b63038d0d)">
     <use xlink:href="#ma56f145191" x="0" y="345.6" style="fill: #4c72b0; fill-opacity: 0.5; stroke: #ffffff; stroke-opacity: 0.5"/>
    </g>
   </g>
   <g id="PolyCollection_2">
    <defs>
     <path id="m5a2d416976" d="M 85.131818 -62.980909 
L 85.131818 -62.988614 
L 88.034645 -63.130648 
L 90.937471 -63.271083 
L 93.840298 -63.414435 
L 96.743125 -64.64085 
L 99.645951 -65.8741 
L 102.548778 -67.116432 
L 105.451604 -68.332683 
L 108.354431 -69.534233 
L 111.257257 -70.741812 
L 114.160084 -71.952644 
L 117.062911 -73.138092 
L 119.965737 -74.332345 
L 122.868564 -75.535191 
L 125.77139 -76.755946 
L 128.674217 -77.982673 
L 131.577044 -79.204703 
L 134.47987 -80.423599 
L 137.382697 -81.661775 
L 140.285523 -82.894427 
L 143.18835 -84.142028 
L 146.091176 -85.351878 
L 148.994003 -86.599788 
L 151.89683 -87.802897 
L 154.799656 -89.02171 
L 157.702483 -90.254082 
L 160.605309 -91.50851 
L 163.508136 -92.742616 
L 166.410963 -93.951166 
L 169.313789 -95.161436 
L 172.216616 -96.367902 
L 175.119442 -97.598848 
L 178.022269 -98.828228 
L 180.925095 -100.063364 
L 183.827922 -101.295673 
L 186.730749 -102.543792 
L 189.633575 -103.781421 
L 192.536402 -105.007629 
L 195.439228 -106.239662 
L 198.342055 -107.456156 
L 201.244882 -108.650865 
L 204.147708 -109.888901 
L 207.050535 -111.088228 
L 209.953361 -112.307284 
L 212.856188 -113.508712 
L 215.759015 -114.713384 
L 218.661841 -115.912857 
L 221.564668 -117.119833 
L 224.467494 -118.339096 
L 227.370321 -119.578766 
L 230.273147 -120.777403 
L 233.175974 -122.007654 
L 236.078801 -123.217552 
L 238.981627 -124.416724 
L 241.884454 -125.636264 
L 244.78728 -126.838952 
L 247.690107 -128.02167 
L 250.592934 -129.240571 
L 253.49576 -130.445291 
L 256.398587 -131.649776 
L 259.301413 -132.877893 
L 262.20424 -134.058371 
L 265.107066 -135.244762 
L 268.009893 -136.437989 
L 270.91272 -137.657247 
L 273.815546 -138.838928 
L 276.718373 -140.006845 
L 279.621199 -141.182613 
L 282.524026 -142.394144 
L 285.426853 -143.629294 
L 288.329679 -144.813507 
L 291.232506 -146.03372 
L 294.135332 -147.198844 
L 297.038159 -148.400186 
L 299.940985 -149.592548 
L 302.843812 -150.79274 
L 305.746639 -151.961219 
L 308.649465 -153.137946 
L 311.552292 -154.335362 
L 314.455118 -155.53631 
L 317.357945 -156.719681 
L 320.260772 -157.890198 
L 323.163598 -159.100256 
L 326.066425 -160.291736 
L 328.969251 -161.521772 
L 331.872078 -162.709575 
L 334.774905 -163.905058 
L 337.677731 -165.086424 
L 340.580558 -166.246232 
L 343.483384 -167.408425 
L 346.386211 -168.592701 
L 349.289037 -169.760638 
L 352.191864 -170.974955 
L 355.094691 -172.195331 
L 357.997517 -173.392681 
L 360.900344 -174.606409 
L 363.80317 -175.785722 
L 366.705997 -176.968172 
L 369.608824 -178.143584 
L 372.51165 -179.332253 
L 375.414477 -180.496209 
L 378.317303 -181.694303 
L 381.22013 -182.881137 
L 384.122956 -184.090668 
L 387.025783 -185.287395 
L 389.92861 -186.5004 
L 392.831436 -187.687325 
L 395.734263 -188.874153 
L 398.637089 -190.068094 
L 401.539916 -191.278818 
L 404.442743 -192.503185 
L 407.345569 -193.669556 
L 410.248396 -194.851144 
L 413.151222 -196.063494 
L 416.054049 -197.214759 
L 418.956875 -198.403761 
L 421.859702 -199.597882 
L 424.762529 -200.787605 
L 427.665355 -201.998224 
L 430.568182 -203.164076 
L 430.568182 -199.504955 
L 430.568182 -199.504955 
L 427.665355 -198.342772 
L 424.762529 -197.172859 
L 421.859702 -196.018648 
L 418.956875 -194.861777 
L 416.054049 -193.662206 
L 413.151222 -192.472289 
L 410.248396 -191.323952 
L 407.345569 -190.135116 
L 404.442743 -188.978035 
L 401.539916 -187.796691 
L 398.637089 -186.615889 
L 395.734263 -185.388124 
L 392.831436 -184.220425 
L 389.92861 -183.047694 
L 387.025783 -181.88171 
L 384.122956 -180.712699 
L 381.22013 -179.55557 
L 378.317303 -178.384337 
L 375.414477 -177.235548 
L 372.51165 -176.047679 
L 369.608824 -174.87232 
L 366.705997 -173.681393 
L 363.80317 -172.482377 
L 360.900344 -171.301083 
L 357.997517 -170.137525 
L 355.094691 -168.981619 
L 352.191864 -167.840294 
L 349.289037 -166.661312 
L 346.386211 -165.455019 
L 343.483384 -164.309189 
L 340.580558 -163.15816 
L 337.677731 -162.004254 
L 334.774905 -160.876548 
L 331.872078 -159.725385 
L 328.969251 -158.547055 
L 326.066425 -157.350756 
L 323.163598 -156.178816 
L 320.260772 -155.007929 
L 317.357945 -153.83827 
L 314.455118 -152.658023 
L 311.552292 -151.48728 
L 308.649465 -150.297649 
L 305.746639 -149.127088 
L 302.843812 -147.934438 
L 299.940985 -146.750087 
L 297.038159 -145.552169 
L 294.135332 -144.375425 
L 291.232506 -143.210096 
L 288.329679 -142.015581 
L 285.426853 -140.83443 
L 282.524026 -139.646454 
L 279.621199 -138.449653 
L 276.718373 -137.296937 
L 273.815546 -136.100003 
L 270.91272 -134.938911 
L 268.009893 -133.770792 
L 265.107066 -132.60243 
L 262.20424 -131.435361 
L 259.301413 -130.290376 
L 256.398587 -129.139778 
L 253.49576 -127.966477 
L 250.592934 -126.78272 
L 247.690107 -125.611785 
L 244.78728 -124.443859 
L 241.884454 -123.291087 
L 238.981627 -122.13954 
L 236.078801 -120.981606 
L 233.175974 -119.821851 
L 230.273147 -118.625215 
L 227.370321 -117.449889 
L 224.467494 -116.289212 
L 221.564668 -115.133586 
L 218.661841 -113.917483 
L 215.759015 -112.743907 
L 212.856188 -111.559761 
L 209.953361 -110.379886 
L 207.050535 -109.242481 
L 204.147708 -108.050986 
L 201.244882 -106.880635 
L 198.342055 -105.731787 
L 195.439228 -104.527994 
L 192.536402 -103.347849 
L 189.633575 -102.151838 
L 186.730749 -100.959876 
L 183.827922 -99.786176 
L 180.925095 -98.55431 
L 178.022269 -97.399114 
L 175.119442 -96.223285 
L 172.216616 -95.054569 
L 169.313789 -93.873168 
L 166.410963 -92.689254 
L 163.508136 -91.513453 
L 160.605309 -90.333262 
L 157.702483 -89.19004 
L 154.799656 -88.024624 
L 151.89683 -86.865886 
L 148.994003 -85.696524 
L 146.091176 -84.529208 
L 143.18835 -83.363976 
L 140.285523 -82.205281 
L 137.382697 -81.042932 
L 134.47987 -79.883678 
L 131.577044 -78.706855 
L 128.674217 -77.533205 
L 125.77139 -76.350859 
L 122.868564 -75.201949 
L 119.965737 -74.02282 
L 117.062911 -72.861987 
L 114.160084 -71.684713 
L 111.257257 -70.514522 
L 108.354431 -69.353231 
L 105.451604 -68.152342 
L 102.548778 -66.971794 
L 99.645951 -65.787402 
L 96.743125 -64.600429 
L 93.840298 -63.393833 
L 90.937471 -63.252664 
L 88.034645 -63.11814 
L 85.131818 -62.980909 
z
" style="stroke: #ffffff; stroke-opacity: 0.5"/>
    </defs>
    <g clip-path="url(#p1b63038d0d)">
     <use xlink:href="#m5a2d416976" x="0" y="345.6" style="fill: #dd8452; fill-opacity: 0.5; stroke: #ffffff; stroke-opacity: 0.5"/>
    </g>
   </g>
   <g id="PolyCollection_3">
    <defs>
     <path id="mf8605a6ea4" d="M 85.131818 -63.152219 
L 85.131818 -63.170412 
L 88.034645 -63.538991 
L 90.937471 -63.923246 
L 93.840298 -64.2894 
L 96.743125 -66.37409 
L 99.645951 -68.456694 
L 102.548778 -70.512972 
L 105.451604 -72.563608 
L 108.354431 -74.630497 
L 111.257257 -76.687391 
L 114.160084 -78.781837 
L 117.062911 -80.820448 
L 119.965737 -82.846031 
L 122.868564 -84.913639 
L 125.77139 -87.0194 
L 128.674217 -89.127831 
L 131.577044 -91.195615 
L 134.47987 -93.262923 
L 137.382697 -95.33429 
L 140.285523 -97.406209 
L 143.18835 -99.530198 
L 146.091176 -101.625268 
L 148.994003 -103.656578 
L 151.89683 -105.687226 
L 154.799656 -107.719352 
L 157.702483 -109.791206 
L 160.605309 -111.875608 
L 163.508136 -113.966627 
L 166.410963 -116.039261 
L 169.313789 -118.166954 
L 172.216616 -120.251599 
L 175.119442 -122.316808 
L 178.022269 -124.429508 
L 180.925095 -126.572821 
L 183.827922 -128.711334 
L 186.730749 -130.798508 
L 189.633575 -132.808722 
L 192.536402 -134.912586 
L 195.439228 -137.045556 
L 198.342055 -139.184882 
L 201.244882 -141.249954 
L 204.147708 -143.326922 
L 207.050535 -145.431121 
L 209.953361 -147.55251 
L 212.856188 -149.650221 
L 215.759015 -151.719075 
L 218.661841 -153.787254 
L 221.564668 -155.87013 
L 224.467494 -157.984148 
L 227.370321 -160.056112 
L 230.273147 -162.100944 
L 233.175974 -164.147133 
L 236.078801 -166.192873 
L 238.981627 -168.269606 
L 241.884454 -170.353089 
L 244.78728 -172.421887 
L 247.690107 -174.500138 
L 250.592934 -176.553836 
L 253.49576 -178.705152 
L 256.398587 -180.773772 
L 259.301413 -182.827088 
L 262.20424 -184.863148 
L 265.107066 -186.926846 
L 268.009893 -189.009503 
L 270.91272 -191.051959 
L 273.815546 -193.117967 
L 276.718373 -195.192595 
L 279.621199 -197.290547 
L 282.524026 -199.365854 
L 285.426853 -201.44143 
L 288.329679 -203.588786 
L 291.232506 -205.670802 
L 294.135332 -207.761712 
L 297.038159 -209.822854 
L 299.940985 -211.882522 
L 302.843812 -213.989244 
L 305.746639 -216.053812 
L 308.649465 -218.099988 
L 311.552292 -220.133798 
L 314.455118 -222.20003 
L 317.357945 -224.273249 
L 320.260772 -226.29463 
L 323.163598 -228.361349 
L 326.066425 -230.410413 
L 328.969251 -232.40022 
L 331.872078 -234.415806 
L 334.774905 -236.442975 
L 337.677731 -238.5318 
L 340.580558 -240.548782 
L 343.483384 -242.579134 
L 346.386211 -244.655383 
L 349.289037 -246.70425 
L 352.191864 -248.720884 
L 355.094691 -250.749706 
L 357.997517 -252.826712 
L 360.900344 -254.861965 
L 363.80317 -256.937672 
L 366.705997 -258.968521 
L 369.608824 -260.975573 
L 372.51165 -262.973484 
L 375.414477 -265.029517 
L 378.317303 -267.07986 
L 381.22013 -269.150585 
L 384.122956 -271.219755 
L 387.025783 -273.247215 
L 389.92861 -275.246934 
L 392.831436 -277.307787 
L 395.734263 -279.367668 
L 398.637089 -281.369175 
L 401.539916 -283.395982 
L 404.442743 -285.382959 
L 407.345569 -287.457061 
L 410.248396 -289.485408 
L 413.151222 -291.519835 
L 416.054049 -293.545556 
L 418.956875 -295.592091 
L 421.859702 -297.582555 
L 424.762529 -299.617014 
L 427.665355 -301.74262 
L 430.568182 -303.799091 
L 430.568182 -303.61711 
L 430.568182 -303.61711 
L 427.665355 -301.520241 
L 424.762529 -299.430568 
L 421.859702 -297.332325 
L 418.956875 -295.234638 
L 416.054049 -293.184629 
L 413.151222 -291.117919 
L 410.248396 -289.046952 
L 407.345569 -286.991473 
L 404.442743 -284.947174 
L 401.539916 -282.866662 
L 398.637089 -280.802563 
L 395.734263 -278.699849 
L 392.831436 -276.628783 
L 389.92861 -274.52324 
L 387.025783 -272.495456 
L 384.122956 -270.449747 
L 381.22013 -268.415805 
L 378.317303 -266.322232 
L 375.414477 -264.283806 
L 372.51165 -262.242158 
L 369.608824 -260.193557 
L 366.705997 -258.142403 
L 363.80317 -256.083251 
L 360.900344 -254.025762 
L 357.997517 -251.963991 
L 355.094691 -249.89247 
L 352.191864 -247.855876 
L 349.289037 -245.804489 
L 346.386211 -243.763528 
L 343.483384 -241.74966 
L 340.580558 -239.659737 
L 337.677731 -237.614356 
L 334.774905 -235.560917 
L 331.872078 -233.493998 
L 328.969251 -231.473656 
L 326.066425 -229.402879 
L 323.163598 -227.342808 
L 320.260772 -225.211187 
L 317.357945 -223.175038 
L 314.455118 -221.135654 
L 311.552292 -219.073116 
L 308.649465 -217.049341 
L 305.746639 -215.000231 
L 302.843812 -213.021513 
L 299.940985 -210.993898 
L 297.038159 -208.941692 
L 294.135332 -206.898784 
L 291.232506 -204.865756 
L 288.329679 -202.835022 
L 285.426853 -200.77853 
L 282.524026 -198.749356 
L 279.621199 -196.7071 
L 276.718373 -194.696768 
L 273.815546 -192.632485 
L 270.91272 -190.597395 
L 268.009893 -188.56258 
L 265.107066 -186.520808 
L 262.20424 -184.450721 
L 259.301413 -182.368235 
L 256.398587 -180.251738 
L 253.49576 -178.186565 
L 250.592934 -176.044207 
L 247.690107 -173.982286 
L 244.78728 -171.912589 
L 241.884454 -169.873093 
L 238.981627 -167.813924 
L 236.078801 -165.747608 
L 233.175974 -163.72347 
L 230.273147 -161.665236 
L 227.370321 -159.593953 
L 224.467494 -157.493521 
L 221.564668 -155.410487 
L 218.661841 -153.313838 
L 215.759015 -151.270748 
L 212.856188 -149.182327 
L 209.953361 -147.113791 
L 207.050535 -145.049848 
L 204.147708 -142.980088 
L 201.244882 -140.92784 
L 198.342055 -138.912874 
L 195.439228 -136.77068 
L 192.536402 -134.696646 
L 189.633575 -132.624836 
L 186.730749 -130.633002 
L 183.827922 -128.559271 
L 180.925095 -126.471621 
L 178.022269 -124.387287 
L 175.119442 -122.314856 
L 172.216616 -120.177224 
L 169.313789 -118.125335 
L 166.410963 -116.007849 
L 163.508136 -113.94917 
L 160.605309 -111.854251 
L 157.702483 -109.786065 
L 154.799656 -107.702221 
L 151.89683 -105.681505 
L 148.994003 -103.576757 
L 146.091176 -101.469341 
L 143.18835 -99.361273 
L 140.285523 -97.247184 
L 137.382697 -95.134518 
L 134.47987 -93.061091 
L 131.577044 -90.995723 
L 128.674217 -88.934711 
L 125.77139 -86.837618 
L 122.868564 -84.760035 
L 119.965737 -82.682592 
L 117.062911 -80.728905 
L 114.160084 -78.675721 
L 111.257257 -76.607374 
L 108.354431 -74.543743 
L 105.451604 -72.47475 
L 102.548778 -70.401886 
L 99.645951 -68.35261 
L 96.743125 -66.291517 
L 93.840298 -64.243795 
L 90.937471 -63.876632 
L 88.034645 -63.506108 
L 85.131818 -63.152219 
z
" style="stroke: #ffffff; stroke-opacity: 0.5"/>
    </defs>
    <g clip-path="url(#p1b63038d0d)">
     <use xlink:href="#mf8605a6ea4" x="0" y="345.6" style="fill: #55a868; fill-opacity: 0.5; stroke: #ffffff; stroke-opacity: 0.5"/>
    </g>
   </g>
   <g id="line2d_14">
    <path d="M 85.131818 282.61262 
L 88.034645 282.468481 
L 90.937471 282.327554 
L 93.840298 282.188306 
L 96.743125 280.984462 
L 99.645951 279.783966 
L 102.548778 278.578579 
L 105.451604 277.369631 
L 108.354431 276.162555 
L 111.257257 274.965589 
L 114.160084 273.7732 
L 117.062911 272.572097 
L 119.965737 271.387591 
L 122.868564 270.17565 
L 125.77139 268.972722 
L 128.674217 267.776785 
L 131.577044 266.567941 
L 134.47987 265.370669 
L 137.382697 264.190312 
L 140.285523 262.994668 
L 143.18835 261.819282 
L 146.091176 260.615586 
L 148.994003 259.428093 
L 151.89683 258.231015 
L 154.799656 257.036667 
L 157.702483 255.845089 
L 160.605309 254.660457 
L 163.508136 253.464194 
L 166.410963 252.275246 
L 169.313789 251.087914 
L 172.216616 249.907775 
L 175.119442 248.728641 
L 178.022269 247.541458 
L 180.925095 246.346305 
L 183.827922 245.151218 
L 186.730749 243.970824 
L 189.633575 242.793572 
L 192.536402 241.602929 
L 195.439228 240.414133 
L 198.342055 239.234929 
L 201.244882 238.041324 
L 204.147708 236.863882 
L 207.050535 235.682179 
L 209.953361 234.529654 
L 212.856188 233.3468 
L 215.759015 232.177077 
L 218.661841 230.980322 
L 221.564668 229.775788 
L 224.467494 228.598528 
L 227.370321 227.417447 
L 230.273147 226.207762 
L 233.175974 225.01973 
L 236.078801 223.834622 
L 238.981627 222.644429 
L 241.884454 221.463134 
L 244.78728 220.281255 
L 247.690107 219.10657 
L 250.592934 217.916768 
L 253.49576 216.741087 
L 256.398587 215.55299 
L 259.301413 214.378416 
L 262.20424 213.195007 
L 265.107066 212.009718 
L 268.009893 210.824655 
L 270.91272 209.650927 
L 273.815546 208.471166 
L 276.718373 207.297932 
L 279.621199 206.133634 
L 282.524026 204.942879 
L 285.426853 203.7667 
L 288.329679 202.576945 
L 291.232506 201.405791 
L 294.135332 200.21354 
L 297.038159 199.029296 
L 299.940985 197.852264 
L 302.843812 196.66926 
L 305.746639 195.486275 
L 308.649465 194.302619 
L 311.552292 193.123992 
L 314.455118 191.940442 
L 317.357945 190.748137 
L 320.260772 189.576151 
L 323.163598 188.390337 
L 326.066425 187.223023 
L 328.969251 186.047852 
L 331.872078 184.853019 
L 334.774905 183.673721 
L 337.677731 182.508084 
L 340.580558 181.338244 
L 343.483384 180.166845 
L 346.386211 178.997616 
L 349.289037 177.810788 
L 352.191864 176.640206 
L 355.094691 175.448588 
L 357.997517 174.281971 
L 360.900344 173.101347 
L 363.80317 171.910894 
L 366.705997 170.726018 
L 369.608824 169.536138 
L 372.51165 168.344896 
L 375.414477 167.163493 
L 378.317303 165.986332 
L 381.22013 164.803497 
L 384.122956 163.618381 
L 387.025783 162.445785 
L 389.92861 161.275609 
L 392.831436 160.077809 
L 395.734263 158.907368 
L 398.637089 157.727443 
L 401.539916 156.555758 
L 404.442743 155.373241 
L 407.345569 154.192206 
L 410.248396 153.031391 
L 413.151222 151.836704 
L 416.054049 150.67033 
L 418.956875 149.489531 
L 421.859702 148.30334 
L 424.762529 147.127473 
L 427.665355 145.960694 
L 430.568182 144.771224 
" clip-path="url(#p1b63038d0d)" style="fill: none; stroke: #4c72b0; stroke-width: 3; stroke-linecap: round"/>
   </g>
   <g id="line2d_15">
    <path d="M 85.131818 282.615885 
L 88.034645 282.47476 
L 90.937471 282.336535 
L 93.840298 282.193659 
L 96.743125 280.979042 
L 99.645951 279.778828 
L 102.548778 278.5625 
L 105.451604 277.374001 
L 108.354431 276.182802 
L 111.257257 274.989998 
L 114.160084 273.799456 
L 117.062911 272.594007 
L 119.965737 271.400328 
L 122.868564 270.208105 
L 125.77139 269.02818 
L 128.674217 267.838716 
L 131.577044 266.656927 
L 134.47987 265.464735 
L 137.382697 264.263382 
L 140.285523 263.062612 
L 143.18835 261.863228 
L 146.091176 260.677672 
L 148.994003 259.487267 
L 151.89683 258.294008 
L 154.799656 257.114951 
L 157.702483 255.935848 
L 160.605309 254.75378 
L 163.508136 253.572072 
L 166.410963 252.393209 
L 169.313789 251.198767 
L 172.216616 250.007793 
L 175.119442 248.813331 
L 178.022269 247.619352 
L 180.925095 246.437306 
L 183.827922 245.233034 
L 186.730749 244.025493 
L 189.633575 242.815426 
L 192.536402 241.615489 
L 195.439228 240.412414 
L 198.342055 239.22305 
L 201.244882 238.053882 
L 204.147708 236.858825 
L 207.050535 235.663688 
L 209.953361 234.490005 
L 212.856188 233.308333 
L 215.759015 232.126847 
L 218.661841 230.922321 
L 221.564668 229.726507 
L 224.467494 228.530649 
L 227.370321 227.343921 
L 230.273147 226.157363 
L 233.175974 224.964905 
L 236.078801 223.785297 
L 238.981627 222.608873 
L 241.884454 221.420482 
L 244.78728 220.252274 
L 247.690107 219.076076 
L 250.592934 217.890405 
L 253.49576 216.706023 
L 256.398587 215.516818 
L 259.301413 214.319907 
L 262.20424 213.14442 
L 265.107066 211.963397 
L 268.009893 210.776397 
L 270.91272 209.580358 
L 273.815546 208.40315 
L 276.718373 207.228789 
L 279.621199 206.056649 
L 282.524026 204.874936 
L 285.426853 203.675551 
L 288.329679 202.485065 
L 291.232506 201.28693 
L 294.135332 200.114338 
L 297.038159 198.931055 
L 299.940985 197.739056 
L 302.843812 196.542573 
L 305.746639 195.37195 
L 308.649465 194.195721 
L 311.552292 193.013076 
L 314.455118 191.832483 
L 317.357945 190.656924 
L 320.260772 189.486147 
L 323.163598 188.297872 
L 326.066425 187.113433 
L 328.969251 185.929636 
L 331.872078 184.751817 
L 334.774905 183.579532 
L 337.677731 182.41443 
L 340.580558 181.257137 
L 343.483384 180.093678 
L 346.386211 178.923476 
L 349.289037 177.729761 
L 352.191864 176.537517 
L 355.094691 175.347492 
L 357.997517 174.177934 
L 360.900344 173.001672 
L 363.80317 171.829672 
L 366.705997 170.640863 
L 369.608824 169.45642 
L 372.51165 168.285734 
L 375.414477 167.113366 
L 378.317303 165.937963 
L 381.22013 164.7513 
L 384.122956 163.568931 
L 387.025783 162.394621 
L 389.92861 161.219535 
L 392.831436 160.048141 
L 395.734263 158.87391 
L 398.637089 157.694307 
L 401.539916 156.507282 
L 404.442743 155.317741 
L 407.345569 154.140871 
L 410.248396 152.964604 
L 413.151222 151.782235 
L 416.054049 150.612813 
L 418.956875 149.427349 
L 421.859702 148.247966 
L 424.762529 147.063664 
L 427.665355 145.87019 
L 430.568182 144.683081 
" clip-path="url(#p1b63038d0d)" style="fill: none; stroke: #dd8452; stroke-width: 3; stroke-linecap: round"/>
   </g>
   <g id="line2d_16">
    <path d="M 85.131818 282.438685 
L 88.034645 282.077451 
L 90.937471 281.700061 
L 93.840298 281.333403 
L 96.743125 279.267196 
L 99.645951 277.195348 
L 102.548778 275.142571 
L 105.451604 273.080821 
L 108.354431 271.01288 
L 111.257257 268.952617 
L 114.160084 266.871221 
L 117.062911 264.825323 
L 119.965737 262.835689 
L 122.868564 260.763163 
L 125.77139 258.671491 
L 128.674217 256.568729 
L 131.577044 254.504331 
L 134.47987 252.437993 
L 137.382697 250.365596 
L 140.285523 248.273303 
L 143.18835 246.154265 
L 146.091176 244.052695 
L 148.994003 241.983333 
L 151.89683 239.915635 
L 154.799656 237.889214 
L 157.702483 235.811365 
L 160.605309 233.73507 
L 163.508136 231.642102 
L 166.410963 229.576445 
L 169.313789 227.453856 
L 172.216616 225.385588 
L 175.119442 223.284168 
L 178.022269 221.191603 
L 180.925095 219.077779 
L 183.827922 216.964698 
L 186.730749 214.884245 
L 189.633575 212.883221 
L 192.536402 210.795384 
L 195.439228 208.691882 
L 198.342055 206.551122 
L 201.244882 204.511103 
L 204.147708 202.446495 
L 207.050535 200.359516 
L 209.953361 198.26685 
L 212.856188 196.183726 
L 215.759015 194.105089 
L 218.661841 192.049454 
L 221.564668 189.959692 
L 224.467494 187.861166 
L 227.370321 185.774968 
L 230.273147 183.71691 
L 233.175974 181.664698 
L 236.078801 179.629759 
L 238.981627 177.558235 
L 241.884454 175.486909 
L 244.78728 173.432762 
L 247.690107 171.358788 
L 250.592934 169.300978 
L 253.49576 167.154141 
L 256.398587 165.087245 
L 259.301413 163.002339 
L 262.20424 160.943065 
L 265.107066 158.876173 
L 268.009893 156.813958 
L 270.91272 154.775323 
L 273.815546 152.724774 
L 276.718373 150.655319 
L 279.621199 148.601177 
L 282.524026 146.542395 
L 285.426853 144.49002 
L 288.329679 142.388096 
L 291.232506 140.331721 
L 294.135332 138.269752 
L 297.038159 136.217727 
L 299.940985 134.16179 
L 302.843812 132.094622 
L 305.746639 130.072978 
L 308.649465 128.025335 
L 311.552292 125.996543 
L 314.455118 123.932158 
L 317.357945 121.875856 
L 320.260772 119.847092 
L 323.163598 117.747922 
L 326.066425 115.693354 
L 328.969251 113.663062 
L 331.872078 111.645098 
L 334.774905 109.598054 
L 337.677731 107.526922 
L 340.580558 105.495741 
L 343.483384 103.435603 
L 346.386211 101.390545 
L 349.289037 99.34563 
L 352.191864 97.31162 
L 355.094691 95.278912 
L 357.997517 93.204649 
L 360.900344 91.156137 
L 363.80317 89.089539 
L 366.705997 87.044538 
L 369.608824 85.015435 
L 372.51165 82.992179 
L 375.414477 80.943339 
L 378.317303 78.898954 
L 381.22013 76.816805 
L 384.122956 74.765249 
L 387.025783 72.728664 
L 389.92861 70.714913 
L 392.831436 68.631715 
L 395.734263 66.566242 
L 398.637089 64.514131 
L 401.539916 62.468678 
L 404.442743 60.434934 
L 407.345569 58.375733 
L 410.248396 56.33382 
L 413.151222 54.281123 
L 416.054049 52.234908 
L 418.956875 50.186636 
L 421.859702 48.14256 
L 424.762529 46.076209 
L 427.665355 43.968569 
L 430.568182 41.8919 
" clip-path="url(#p1b63038d0d)" style="fill: none; stroke: #55a868; stroke-width: 3; stroke-linecap: round"/>
   </g>
   <g id="patch_3">
    <path d="M 67.86 294.66 
L 67.86 29.76 
" style="fill: none; stroke: #ffffff; stroke-width: 1.25; stroke-linejoin: miter; stroke-linecap: square"/>
   </g>
   <g id="patch_4">
    <path d="M 447.84 294.66 
L 447.84 29.76 
" style="fill: none; stroke: #ffffff; stroke-width: 1.25; stroke-linejoin: miter; stroke-linecap: square"/>
   </g>
   <g id="patch_5">
    <path d="M 67.86 294.66 
L 447.84 294.66 
" style="fill: none; stroke: #ffffff; stroke-width: 1.25; stroke-linejoin: miter; stroke-linecap: square"/>
   </g>
   <g id="patch_6">
    <path d="M 67.86 29.76 
L 447.84 29.76 
" style="fill: none; stroke: #ffffff; stroke-width: 1.25; stroke-linejoin: miter; stroke-linecap: square"/>
   </g>
   <g id="text_16">
    <!-- zinc-coating-v0 -->
    <g style="fill: #262626" transform="translate(204.491406 23.76)scale(0.14 -0.14)">
     <defs>
      <path id="DejaVuSans-7a" d="M 353 3500 
L 3084 3500 
L 3084 2975 
L 922 459 
L 3084 459 
L 3084 0 
L 275 0 
L 275 525 
L 2438 3041 
L 353 3041 
L 353 3500 
z
" transform="scale(0.015625)"/>
      <path id="DejaVuSans-63" d="M 3122 3366 
L 3122 2828 
Q 2878 2963 2633 3030 
Q 2388 3097 2138 3097 
Q 1578 3097 1268 2742 
Q 959 2388 959 1747 
Q 959 1106 1268 751 
Q 1578 397 2138 397 
Q 2388 397 2633 464 
Q 2878 531 3122 666 
L 3122 134 
Q 2881 22 2623 -34 
Q 2366 -91 2075 -91 
Q 1284 -91 818 406 
Q 353 903 353 1747 
Q 353 2603 823 3093 
Q 1294 3584 2113 3584 
Q 2378 3584 2631 3529 
Q 2884 3475 3122 3366 
z
" transform="scale(0.015625)"/>
      <path id="DejaVuSans-2d" d="M 313 2009 
L 1997 2009 
L 1997 1497 
L 313 1497 
L 313 2009 
z
" transform="scale(0.015625)"/>
      <path id="DejaVuSans-67" d="M 2906 1791 
Q 2906 2416 2648 2759 
Q 2391 3103 1925 3103 
Q 1463 3103 1205 2759 
Q 947 2416 947 1791 
Q 947 1169 1205 825 
Q 1463 481 1925 481 
Q 2391 481 2648 825 
Q 2906 1169 2906 1791 
z
M 3481 434 
Q 3481 -459 3084 -895 
Q 2688 -1331 1869 -1331 
Q 1566 -1331 1297 -1286 
Q 1028 -1241 775 -1147 
L 775 -588 
Q 1028 -725 1275 -790 
Q 1522 -856 1778 -856 
Q 2344 -856 2625 -561 
Q 2906 -266 2906 331 
L 2906 616 
Q 2728 306 2450 153 
Q 2172 0 1784 0 
Q 1141 0 747 490 
Q 353 981 353 1791 
Q 353 2603 747 3093 
Q 1141 3584 1784 3584 
Q 2172 3584 2450 3431 
Q 2728 3278 2906 2969 
L 2906 3500 
L 3481 3500 
L 3481 434 
z
" transform="scale(0.015625)"/>
      <path id="DejaVuSans-76" d="M 191 3500 
L 800 3500 
L 1894 563 
L 2988 3500 
L 3597 3500 
L 2284 0 
L 1503 0 
L 191 3500 
z
" transform="scale(0.015625)"/>
     </defs>
     <use xlink:href="#DejaVuSans-7a"/>
     <use xlink:href="#DejaVuSans-69" x="52.490234"/>
     <use xlink:href="#DejaVuSans-6e" x="80.273438"/>
     <use xlink:href="#DejaVuSans-63" x="143.652344"/>
     <use xlink:href="#DejaVuSans-2d" x="198.632812"/>
     <use xlink:href="#DejaVuSans-63" x="234.716797"/>
     <use xlink:href="#DejaVuSans-6f" x="289.697266"/>
     <use xlink:href="#DejaVuSans-61" x="350.878906"/>
     <use xlink:href="#DejaVuSans-74" x="412.158203"/>
     <use xlink:href="#DejaVuSans-69" x="451.367188"/>
     <use xlink:href="#DejaVuSans-6e" x="479.150391"/>
     <use xlink:href="#DejaVuSans-67" x="542.529297"/>
     <use xlink:href="#DejaVuSans-2d" x="606.005859"/>
     <use xlink:href="#DejaVuSans-76" x="639.464844"/>
     <use xlink:href="#DejaVuSans-30" x="698.644531"/>
    </g>
   </g>
   <g id="legend_1">
    <g id="patch_7">
     <path d="M 75.56 86.997813 
L 216.389219 86.997813 
Q 218.589219 86.997813 218.589219 84.797813 
L 218.589219 37.46 
Q 218.589219 35.26 216.389219 35.26 
L 75.56 35.26 
Q 73.36 35.26 73.36 37.46 
L 73.36 84.797813 
Q 73.36 86.997813 75.56 86.997813 
z
" style="fill: #eaeaf2; opacity: 0.8; stroke: #cccccc; stroke-linejoin: miter"/>
    </g>
    <g id="line2d_17">
     <path d="M 77.76 44.168281 
L 88.76 44.168281 
L 99.76 44.168281 
" style="fill: none; stroke: #4c72b0; stroke-width: 3; stroke-linecap: round"/>
    </g>
    <g id="text_17">
     <!-- SAC-DELAY-1 -->
     <g style="fill: #262626" transform="translate(108.56 48.018281)scale(0.11 -0.11)">
      <defs>
       <path id="DejaVuSans-53" d="M 3425 4513 
L 3425 3897 
Q 3066 4069 2747 4153 
Q 2428 4238 2131 4238 
Q 1616 4238 1336 4038 
Q 1056 3838 1056 3469 
Q 1056 3159 1242 3001 
Q 1428 2844 1947 2747 
L 2328 2669 
Q 3034 2534 3370 2195 
Q 3706 1856 3706 1288 
Q 3706 609 3251 259 
Q 2797 -91 1919 -91 
Q 1588 -91 1214 -16 
Q 841 59 441 206 
L 441 856 
Q 825 641 1194 531 
Q 1563 422 1919 422 
Q 2459 422 2753 634 
Q 3047 847 3047 1241 
Q 3047 1584 2836 1778 
Q 2625 1972 2144 2069 
L 1759 2144 
Q 1053 2284 737 2584 
Q 422 2884 422 3419 
Q 422 4038 858 4394 
Q 1294 4750 2059 4750 
Q 2388 4750 2728 4690 
Q 3069 4631 3425 4513 
z
" transform="scale(0.015625)"/>
       <path id="DejaVuSans-41" d="M 2188 4044 
L 1331 1722 
L 3047 1722 
L 2188 4044 
z
M 1831 4666 
L 2547 4666 
L 4325 0 
L 3669 0 
L 3244 1197 
L 1141 1197 
L 716 0 
L 50 0 
L 1831 4666 
z
" transform="scale(0.015625)"/>
       <path id="DejaVuSans-43" d="M 4122 4306 
L 4122 3641 
Q 3803 3938 3442 4084 
Q 3081 4231 2675 4231 
Q 1875 4231 1450 3742 
Q 1025 3253 1025 2328 
Q 1025 1406 1450 917 
Q 1875 428 2675 428 
Q 3081 428 3442 575 
Q 3803 722 4122 1019 
L 4122 359 
Q 3791 134 3420 21 
Q 3050 -91 2638 -91 
Q 1578 -91 968 557 
Q 359 1206 359 2328 
Q 359 3453 968 4101 
Q 1578 4750 2638 4750 
Q 3056 4750 3426 4639 
Q 3797 4528 4122 4306 
z
" transform="scale(0.015625)"/>
       <path id="DejaVuSans-44" d="M 1259 4147 
L 1259 519 
L 2022 519 
Q 2988 519 3436 956 
Q 3884 1394 3884 2338 
Q 3884 3275 3436 3711 
Q 2988 4147 2022 4147 
L 1259 4147 
z
M 628 4666 
L 1925 4666 
Q 3281 4666 3915 4102 
Q 4550 3538 4550 2338 
Q 4550 1131 3912 565 
Q 3275 0 1925 0 
L 628 0 
L 628 4666 
z
" transform="scale(0.015625)"/>
       <path id="DejaVuSans-45" d="M 628 4666 
L 3578 4666 
L 3578 4134 
L 1259 4134 
L 1259 2753 
L 3481 2753 
L 3481 2222 
L 1259 2222 
L 1259 531 
L 3634 531 
L 3634 0 
L 628 0 
L 628 4666 
z
" transform="scale(0.015625)"/>
       <path id="DejaVuSans-4c" d="M 628 4666 
L 1259 4666 
L 1259 531 
L 3531 531 
L 3531 0 
L 628 0 
L 628 4666 
z
" transform="scale(0.015625)"/>
       <path id="DejaVuSans-59" d="M -13 4666 
L 666 4666 
L 1959 2747 
L 3244 4666 
L 3922 4666 
L 2272 2222 
L 2272 0 
L 1638 0 
L 1638 2222 
L -13 4666 
z
" transform="scale(0.015625)"/>
      </defs>
      <use xlink:href="#DejaVuSans-53"/>
      <use xlink:href="#DejaVuSans-41" x="65.351562"/>
      <use xlink:href="#DejaVuSans-43" x="132.009766"/>
      <use xlink:href="#DejaVuSans-2d" x="201.833984"/>
      <use xlink:href="#DejaVuSans-44" x="237.917969"/>
      <use xlink:href="#DejaVuSans-45" x="314.919922"/>
      <use xlink:href="#DejaVuSans-4c" x="378.103516"/>
      <use xlink:href="#DejaVuSans-41" x="436.066406"/>
      <use xlink:href="#DejaVuSans-59" x="496.724609"/>
      <use xlink:href="#DejaVuSans-2d" x="545.933594"/>
      <use xlink:href="#DejaVuSans-31" x="582.017578"/>
     </g>
    </g>
    <g id="line2d_18">
     <path d="M 77.76 60.314219 
L 88.76 60.314219 
L 99.76 60.314219 
" style="fill: none; stroke: #dd8452; stroke-width: 3; stroke-linecap: round"/>
    </g>
    <g id="text_18">
     <!-- SAC-IS-DELAY-1 -->
     <g style="fill: #262626" transform="translate(108.56 64.164219)scale(0.11 -0.11)">
      <defs>
       <path id="DejaVuSans-49" d="M 628 4666 
L 1259 4666 
L 1259 0 
L 628 0 
L 628 4666 
z
" transform="scale(0.015625)"/>
      </defs>
      <use xlink:href="#DejaVuSans-53"/>
      <use xlink:href="#DejaVuSans-41" x="65.351562"/>
      <use xlink:href="#DejaVuSans-43" x="132.009766"/>
      <use xlink:href="#DejaVuSans-2d" x="201.833984"/>
      <use xlink:href="#DejaVuSans-49" x="237.917969"/>
      <use xlink:href="#DejaVuSans-53" x="267.410156"/>
      <use xlink:href="#DejaVuSans-2d" x="330.886719"/>
      <use xlink:href="#DejaVuSans-44" x="366.970703"/>
      <use xlink:href="#DejaVuSans-45" x="443.972656"/>
      <use xlink:href="#DejaVuSans-4c" x="507.15625"/>
      <use xlink:href="#DejaVuSans-41" x="565.119141"/>
      <use xlink:href="#DejaVuSans-59" x="625.777344"/>
      <use xlink:href="#DejaVuSans-2d" x="674.986328"/>
      <use xlink:href="#DejaVuSans-31" x="711.070312"/>
     </g>
    </g>
    <g id="line2d_19">
     <path d="M 77.76 76.460156 
L 88.76 76.460156 
L 99.76 76.460156 
" style="fill: none; stroke: #55a868; stroke-width: 3; stroke-linecap: round"/>
    </g>
    <g id="text_19">
     <!-- DCAC-DELAY-1-16C -->
     <g style="fill: #262626" transform="translate(108.56 80.310156)scale(0.11 -0.11)">
      <use xlink:href="#DejaVuSans-44"/>
      <use xlink:href="#DejaVuSans-43" x="77.001953"/>
      <use xlink:href="#DejaVuSans-41" x="146.826172"/>
      <use xlink:href="#DejaVuSans-43" x="213.484375"/>
      <use xlink:href="#DejaVuSans-2d" x="283.308594"/>
      <use xlink:href="#DejaVuSans-44" x="319.392578"/>
      <use xlink:href="#DejaVuSans-45" x="396.394531"/>
      <use xlink:href="#DejaVuSans-4c" x="459.578125"/>
      <use xlink:href="#DejaVuSans-41" x="517.541016"/>
      <use xlink:href="#DejaVuSans-59" x="578.199219"/>
      <use xlink:href="#DejaVuSans-2d" x="627.408203"/>
      <use xlink:href="#DejaVuSans-31" x="663.492188"/>
      <use xlink:href="#DejaVuSans-2d" x="727.115234"/>
      <use xlink:href="#DejaVuSans-31" x="763.199219"/>
      <use xlink:href="#DejaVuSans-36" x="826.822266"/>
      <use xlink:href="#DejaVuSans-43" x="890.445312"/>
     </g>
    </g>
   </g>
  </g>
 </g>
 <defs>
  <clipPath id="p1b63038d0d">
   <rect x="67.86" y="29.76" width="379.98" height="264.9"/>
  </clipPath>
 </defs>
</svg>
