<?xml version="1.0" encoding="utf-8" standalone="no"?>
<!DOCTYPE svg PUBLIC "-//W3C//DTD SVG 1.1//EN"
  "http://www.w3.org/Graphics/SVG/1.1/DTD/svg11.dtd">
<svg xmlns:xlink="http://www.w3.org/1999/xlink" width="460.8pt" height="345.6pt" viewBox="0 0 460.8 345.6" xmlns="http://www.w3.org/2000/svg" version="1.1">
 <metadata>
  <rdf:RDF xmlns:dc="http://purl.org/dc/elements/1.1/" xmlns:cc="http://creativecommons.org/ns#" xmlns:rdf="http://www.w3.org/1999/02/22-rdf-syntax-ns#">
   <cc:Work>
    <dc:type rdf:resource="http://purl.org/dc/dcmitype/StillImage"/>
    <dc:date>2022-09-12T15:21:52.203104</dc:date>
    <dc:format>image/svg+xml</dc:format>
    <dc:creator>
     <cc:Agent>
      <dc:title>Matplotlib v3.5.3, https://matplotlib.org/</dc:title>
     </cc:Agent>
    </dc:creator>
   </cc:Work>
  </rdf:RDF>
 </metadata>
 <defs>
  <style type="text/css">*{stroke-linejoin: round; stroke-linecap: butt}</style>
 </defs>
 <g id="figure_1">
  <g id="patch_1">
   <path d="M 0 345.6 
L 460.8 345.6 
L 460.8 0 
L 0 0 
z
" style="fill: #ffffff"/>
  </g>
  <g id="axes_1">
   <g id="patch_2">
    <path d="M 67.95 294.66 
L 447.84 294.66 
L 447.84 12.96 
L 67.95 12.96 
z
" style="fill: #eaeaf2"/>
   </g>
   <g id="matplotlib.axis_1">
    <g id="xtick_1">
     <g id="line2d_1">
      <path d="M 82.315588 294.66 
L 82.315588 12.96 
" clip-path="url(#p45f79593bf)" style="fill: none; stroke: #ffffff; stroke-linecap: round"/>
     </g>
     <g id="text_1">
      <!-- 0.00 -->
      <g style="fill: #262626" transform="translate(70.069494 312.518281)scale(0.11 -0.11)">
       <defs>
        <path id="DejaVuSans-30" d="M 2034 4250 
Q 1547 4250 1301 3770 
Q 1056 3291 1056 2328 
Q 1056 1369 1301 889 
Q 1547 409 2034 409 
Q 2525 409 2770 889 
Q 3016 1369 3016 2328 
Q 3016 3291 2770 3770 
Q 2525 4250 2034 4250 
z
M 2034 4750 
Q 2819 4750 3233 4129 
Q 3647 3509 3647 2328 
Q 3647 1150 3233 529 
Q 2819 -91 2034 -91 
Q 1250 -91 836 529 
Q 422 1150 422 2328 
Q 422 3509 836 4129 
Q 1250 4750 2034 4750 
z
" transform="scale(0.015625)"/>
        <path id="DejaVuSans-2e" d="M 684 794 
L 1344 794 
L 1344 0 
L 684 0 
L 684 794 
z
" transform="scale(0.015625)"/>
       </defs>
       <use xlink:href="#DejaVuSans-30"/>
       <use xlink:href="#DejaVuSans-2e" x="63.623047"/>
       <use xlink:href="#DejaVuSans-30" x="95.410156"/>
       <use xlink:href="#DejaVuSans-30" x="159.033203"/>
      </g>
     </g>
    </g>
    <g id="xtick_2">
     <g id="line2d_2">
      <path d="M 140.358369 294.66 
L 140.358369 12.96 
" clip-path="url(#p45f79593bf)" style="fill: none; stroke: #ffffff; stroke-linecap: round"/>
     </g>
     <g id="text_2">
      <!-- 0.05 -->
      <g style="fill: #262626" transform="translate(128.112275 312.518281)scale(0.11 -0.11)">
       <defs>
        <path id="DejaVuSans-35" d="M 691 4666 
L 3169 4666 
L 3169 4134 
L 1269 4134 
L 1269 2991 
Q 1406 3038 1543 3061 
Q 1681 3084 1819 3084 
Q 2600 3084 3056 2656 
Q 3513 2228 3513 1497 
Q 3513 744 3044 326 
Q 2575 -91 1722 -91 
Q 1428 -91 1123 -41 
Q 819 9 494 109 
L 494 744 
Q 775 591 1075 516 
Q 1375 441 1709 441 
Q 2250 441 2565 725 
Q 2881 1009 2881 1497 
Q 2881 1984 2565 2268 
Q 2250 2553 1709 2553 
Q 1456 2553 1204 2497 
Q 953 2441 691 2322 
L 691 4666 
z
" transform="scale(0.015625)"/>
       </defs>
       <use xlink:href="#DejaVuSans-30"/>
       <use xlink:href="#DejaVuSans-2e" x="63.623047"/>
       <use xlink:href="#DejaVuSans-30" x="95.410156"/>
       <use xlink:href="#DejaVuSans-35" x="159.033203"/>
      </g>
     </g>
    </g>
    <g id="xtick_3">
     <g id="line2d_3">
      <path d="M 198.40115 294.66 
L 198.40115 12.96 
" clip-path="url(#p45f79593bf)" style="fill: none; stroke: #ffffff; stroke-linecap: round"/>
     </g>
     <g id="text_3">
      <!-- 0.10 -->
      <g style="fill: #262626" transform="translate(186.155056 312.518281)scale(0.11 -0.11)">
       <defs>
        <path id="DejaVuSans-31" d="M 794 531 
L 1825 531 
L 1825 4091 
L 703 3866 
L 703 4441 
L 1819 4666 
L 2450 4666 
L 2450 531 
L 3481 531 
L 3481 0 
L 794 0 
L 794 531 
z
" transform="scale(0.015625)"/>
       </defs>
       <use xlink:href="#DejaVuSans-30"/>
       <use xlink:href="#DejaVuSans-2e" x="63.623047"/>
       <use xlink:href="#DejaVuSans-31" x="95.410156"/>
       <use xlink:href="#DejaVuSans-30" x="159.033203"/>
      </g>
     </g>
    </g>
    <g id="xtick_4">
     <g id="line2d_4">
      <path d="M 256.44393 294.66 
L 256.44393 12.96 
" clip-path="url(#p45f79593bf)" style="fill: none; stroke: #ffffff; stroke-linecap: round"/>
     </g>
     <g id="text_4">
      <!-- 0.15 -->
      <g style="fill: #262626" transform="translate(244.197837 312.518281)scale(0.11 -0.11)">
       <use xlink:href="#DejaVuSans-30"/>
       <use xlink:href="#DejaVuSans-2e" x="63.623047"/>
       <use xlink:href="#DejaVuSans-31" x="95.410156"/>
       <use xlink:href="#DejaVuSans-35" x="159.033203"/>
      </g>
     </g>
    </g>
    <g id="xtick_5">
     <g id="line2d_5">
      <path d="M 314.486711 294.66 
L 314.486711 12.96 
" clip-path="url(#p45f79593bf)" style="fill: none; stroke: #ffffff; stroke-linecap: round"/>
     </g>
     <g id="text_5">
      <!-- 0.20 -->
      <g style="fill: #262626" transform="translate(302.240617 312.518281)scale(0.11 -0.11)">
       <defs>
        <path id="DejaVuSans-32" d="M 1228 531 
L 3431 531 
L 3431 0 
L 469 0 
L 469 531 
Q 828 903 1448 1529 
Q 2069 2156 2228 2338 
Q 2531 2678 2651 2914 
Q 2772 3150 2772 3378 
Q 2772 3750 2511 3984 
Q 2250 4219 1831 4219 
Q 1534 4219 1204 4116 
Q 875 4013 500 3803 
L 500 4441 
Q 881 4594 1212 4672 
Q 1544 4750 1819 4750 
Q 2544 4750 2975 4387 
Q 3406 4025 3406 3419 
Q 3406 3131 3298 2873 
Q 3191 2616 2906 2266 
Q 2828 2175 2409 1742 
Q 1991 1309 1228 531 
z
" transform="scale(0.015625)"/>
       </defs>
       <use xlink:href="#DejaVuSans-30"/>
       <use xlink:href="#DejaVuSans-2e" x="63.623047"/>
       <use xlink:href="#DejaVuSans-32" x="95.410156"/>
       <use xlink:href="#DejaVuSans-30" x="159.033203"/>
      </g>
     </g>
    </g>
    <g id="xtick_6">
     <g id="line2d_6">
      <path d="M 372.529492 294.66 
L 372.529492 12.96 
" clip-path="url(#p45f79593bf)" style="fill: none; stroke: #ffffff; stroke-linecap: round"/>
     </g>
     <g id="text_6">
      <!-- 0.25 -->
      <g style="fill: #262626" transform="translate(360.283398 312.518281)scale(0.11 -0.11)">
       <use xlink:href="#DejaVuSans-30"/>
       <use xlink:href="#DejaVuSans-2e" x="63.623047"/>
       <use xlink:href="#DejaVuSans-32" x="95.410156"/>
       <use xlink:href="#DejaVuSans-35" x="159.033203"/>
      </g>
     </g>
    </g>
    <g id="xtick_7">
     <g id="line2d_7">
      <path d="M 430.572273 294.66 
L 430.572273 12.96 
" clip-path="url(#p45f79593bf)" style="fill: none; stroke: #ffffff; stroke-linecap: round"/>
     </g>
     <g id="text_7">
      <!-- 0.30 -->
      <g style="fill: #262626" transform="translate(418.326179 312.518281)scale(0.11 -0.11)">
       <defs>
        <path id="DejaVuSans-33" d="M 2597 2516 
Q 3050 2419 3304 2112 
Q 3559 1806 3559 1356 
Q 3559 666 3084 287 
Q 2609 -91 1734 -91 
Q 1441 -91 1130 -33 
Q 819 25 488 141 
L 488 750 
Q 750 597 1062 519 
Q 1375 441 1716 441 
Q 2309 441 2620 675 
Q 2931 909 2931 1356 
Q 2931 1769 2642 2001 
Q 2353 2234 1838 2234 
L 1294 2234 
L 1294 2753 
L 1863 2753 
Q 2328 2753 2575 2939 
Q 2822 3125 2822 3475 
Q 2822 3834 2567 4026 
Q 2313 4219 1838 4219 
Q 1578 4219 1281 4162 
Q 984 4106 628 3988 
L 628 4550 
Q 988 4650 1302 4700 
Q 1616 4750 1894 4750 
Q 2613 4750 3031 4423 
Q 3450 4097 3450 3541 
Q 3450 3153 3228 2886 
Q 3006 2619 2597 2516 
z
" transform="scale(0.015625)"/>
       </defs>
       <use xlink:href="#DejaVuSans-30"/>
       <use xlink:href="#DejaVuSans-2e" x="63.623047"/>
       <use xlink:href="#DejaVuSans-33" x="95.410156"/>
       <use xlink:href="#DejaVuSans-30" x="159.033203"/>
      </g>
     </g>
    </g>
    <g id="text_8">
     <!-- Zeitschritte (in Millionen) -->
     <g style="fill: #262626" transform="translate(169.980469 329.44375)scale(0.14 -0.14)">
      <defs>
       <path id="DejaVuSans-5a" d="M 359 4666 
L 4025 4666 
L 4025 4184 
L 1075 531 
L 4097 531 
L 4097 0 
L 288 0 
L 288 481 
L 3238 4134 
L 359 4134 
L 359 4666 
z
" transform="scale(0.015625)"/>
       <path id="DejaVuSans-65" d="M 3597 1894 
L 3597 1613 
L 953 1613 
Q 991 1019 1311 708 
Q 1631 397 2203 397 
Q 2534 397 2845 478 
Q 3156 559 3463 722 
L 3463 178 
Q 3153 47 2828 -22 
Q 2503 -91 2169 -91 
Q 1331 -91 842 396 
Q 353 884 353 1716 
Q 353 2575 817 3079 
Q 1281 3584 2069 3584 
Q 2775 3584 3186 3129 
Q 3597 2675 3597 1894 
z
M 3022 2063 
Q 3016 2534 2758 2815 
Q 2500 3097 2075 3097 
Q 1594 3097 1305 2825 
Q 1016 2553 972 2059 
L 3022 2063 
z
" transform="scale(0.015625)"/>
       <path id="DejaVuSans-69" d="M 603 3500 
L 1178 3500 
L 1178 0 
L 603 0 
L 603 3500 
z
M 603 4863 
L 1178 4863 
L 1178 4134 
L 603 4134 
L 603 4863 
z
" transform="scale(0.015625)"/>
       <path id="DejaVuSans-74" d="M 1172 4494 
L 1172 3500 
L 2356 3500 
L 2356 3053 
L 1172 3053 
L 1172 1153 
Q 1172 725 1289 603 
Q 1406 481 1766 481 
L 2356 481 
L 2356 0 
L 1766 0 
Q 1100 0 847 248 
Q 594 497 594 1153 
L 594 3053 
L 172 3053 
L 172 3500 
L 594 3500 
L 594 4494 
L 1172 4494 
z
" transform="scale(0.015625)"/>
       <path id="DejaVuSans-73" d="M 2834 3397 
L 2834 2853 
Q 2591 2978 2328 3040 
Q 2066 3103 1784 3103 
Q 1356 3103 1142 2972 
Q 928 2841 928 2578 
Q 928 2378 1081 2264 
Q 1234 2150 1697 2047 
L 1894 2003 
Q 2506 1872 2764 1633 
Q 3022 1394 3022 966 
Q 3022 478 2636 193 
Q 2250 -91 1575 -91 
Q 1294 -91 989 -36 
Q 684 19 347 128 
L 347 722 
Q 666 556 975 473 
Q 1284 391 1588 391 
Q 1994 391 2212 530 
Q 2431 669 2431 922 
Q 2431 1156 2273 1281 
Q 2116 1406 1581 1522 
L 1381 1569 
Q 847 1681 609 1914 
Q 372 2147 372 2553 
Q 372 3047 722 3315 
Q 1072 3584 1716 3584 
Q 2034 3584 2315 3537 
Q 2597 3491 2834 3397 
z
" transform="scale(0.015625)"/>
       <path id="DejaVuSans-63" d="M 3122 3366 
L 3122 2828 
Q 2878 2963 2633 3030 
Q 2388 3097 2138 3097 
Q 1578 3097 1268 2742 
Q 959 2388 959 1747 
Q 959 1106 1268 751 
Q 1578 397 2138 397 
Q 2388 397 2633 464 
Q 2878 531 3122 666 
L 3122 134 
Q 2881 22 2623 -34 
Q 2366 -91 2075 -91 
Q 1284 -91 818 406 
Q 353 903 353 1747 
Q 353 2603 823 3093 
Q 1294 3584 2113 3584 
Q 2378 3584 2631 3529 
Q 2884 3475 3122 3366 
z
" transform="scale(0.015625)"/>
       <path id="DejaVuSans-68" d="M 3513 2113 
L 3513 0 
L 2938 0 
L 2938 2094 
Q 2938 2591 2744 2837 
Q 2550 3084 2163 3084 
Q 1697 3084 1428 2787 
Q 1159 2491 1159 1978 
L 1159 0 
L 581 0 
L 581 4863 
L 1159 4863 
L 1159 2956 
Q 1366 3272 1645 3428 
Q 1925 3584 2291 3584 
Q 2894 3584 3203 3211 
Q 3513 2838 3513 2113 
z
" transform="scale(0.015625)"/>
       <path id="DejaVuSans-72" d="M 2631 2963 
Q 2534 3019 2420 3045 
Q 2306 3072 2169 3072 
Q 1681 3072 1420 2755 
Q 1159 2438 1159 1844 
L 1159 0 
L 581 0 
L 581 3500 
L 1159 3500 
L 1159 2956 
Q 1341 3275 1631 3429 
Q 1922 3584 2338 3584 
Q 2397 3584 2469 3576 
Q 2541 3569 2628 3553 
L 2631 2963 
z
" transform="scale(0.015625)"/>
       <path id="DejaVuSans-20" transform="scale(0.015625)"/>
       <path id="DejaVuSans-28" d="M 1984 4856 
Q 1566 4138 1362 3434 
Q 1159 2731 1159 2009 
Q 1159 1288 1364 580 
Q 1569 -128 1984 -844 
L 1484 -844 
Q 1016 -109 783 600 
Q 550 1309 550 2009 
Q 550 2706 781 3412 
Q 1013 4119 1484 4856 
L 1984 4856 
z
" transform="scale(0.015625)"/>
       <path id="DejaVuSans-6e" d="M 3513 2113 
L 3513 0 
L 2938 0 
L 2938 2094 
Q 2938 2591 2744 2837 
Q 2550 3084 2163 3084 
Q 1697 3084 1428 2787 
Q 1159 2491 1159 1978 
L 1159 0 
L 581 0 
L 581 3500 
L 1159 3500 
L 1159 2956 
Q 1366 3272 1645 3428 
Q 1925 3584 2291 3584 
Q 2894 3584 3203 3211 
Q 3513 2838 3513 2113 
z
" transform="scale(0.015625)"/>
       <path id="DejaVuSans-4d" d="M 628 4666 
L 1569 4666 
L 2759 1491 
L 3956 4666 
L 4897 4666 
L 4897 0 
L 4281 0 
L 4281 4097 
L 3078 897 
L 2444 897 
L 1241 4097 
L 1241 0 
L 628 0 
L 628 4666 
z
" transform="scale(0.015625)"/>
       <path id="DejaVuSans-6c" d="M 603 4863 
L 1178 4863 
L 1178 0 
L 603 0 
L 603 4863 
z
" transform="scale(0.015625)"/>
       <path id="DejaVuSans-6f" d="M 1959 3097 
Q 1497 3097 1228 2736 
Q 959 2375 959 1747 
Q 959 1119 1226 758 
Q 1494 397 1959 397 
Q 2419 397 2687 759 
Q 2956 1122 2956 1747 
Q 2956 2369 2687 2733 
Q 2419 3097 1959 3097 
z
M 1959 3584 
Q 2709 3584 3137 3096 
Q 3566 2609 3566 1747 
Q 3566 888 3137 398 
Q 2709 -91 1959 -91 
Q 1206 -91 779 398 
Q 353 888 353 1747 
Q 353 2609 779 3096 
Q 1206 3584 1959 3584 
z
" transform="scale(0.015625)"/>
       <path id="DejaVuSans-29" d="M 513 4856 
L 1013 4856 
Q 1481 4119 1714 3412 
Q 1947 2706 1947 2009 
Q 1947 1309 1714 600 
Q 1481 -109 1013 -844 
L 513 -844 
Q 928 -128 1133 580 
Q 1338 1288 1338 2009 
Q 1338 2731 1133 3434 
Q 928 4138 513 4856 
z
" transform="scale(0.015625)"/>
      </defs>
      <use xlink:href="#DejaVuSans-5a"/>
      <use xlink:href="#DejaVuSans-65" x="68.505859"/>
      <use xlink:href="#DejaVuSans-69" x="130.029297"/>
      <use xlink:href="#DejaVuSans-74" x="157.8125"/>
      <use xlink:href="#DejaVuSans-73" x="197.021484"/>
      <use xlink:href="#DejaVuSans-63" x="249.121094"/>
      <use xlink:href="#DejaVuSans-68" x="304.101562"/>
      <use xlink:href="#DejaVuSans-72" x="367.480469"/>
      <use xlink:href="#DejaVuSans-69" x="408.59375"/>
      <use xlink:href="#DejaVuSans-74" x="436.376953"/>
      <use xlink:href="#DejaVuSans-74" x="475.585938"/>
      <use xlink:href="#DejaVuSans-65" x="514.794922"/>
      <use xlink:href="#DejaVuSans-20" x="576.318359"/>
      <use xlink:href="#DejaVuSans-28" x="608.105469"/>
      <use xlink:href="#DejaVuSans-69" x="647.119141"/>
      <use xlink:href="#DejaVuSans-6e" x="674.902344"/>
      <use xlink:href="#DejaVuSans-20" x="738.28125"/>
      <use xlink:href="#DejaVuSans-4d" x="770.068359"/>
      <use xlink:href="#DejaVuSans-69" x="856.347656"/>
      <use xlink:href="#DejaVuSans-6c" x="884.130859"/>
      <use xlink:href="#DejaVuSans-6c" x="911.914062"/>
      <use xlink:href="#DejaVuSans-69" x="939.697266"/>
      <use xlink:href="#DejaVuSans-6f" x="967.480469"/>
      <use xlink:href="#DejaVuSans-6e" x="1028.662109"/>
      <use xlink:href="#DejaVuSans-65" x="1092.041016"/>
      <use xlink:href="#DejaVuSans-6e" x="1153.564453"/>
      <use xlink:href="#DejaVuSans-29" x="1216.943359"/>
     </g>
    </g>
   </g>
   <g id="matplotlib.axis_2">
    <g id="ytick_1">
     <g id="line2d_8">
      <path d="M 67.95 281.879228 
L 447.84 281.879228 
" clip-path="url(#p45f79593bf)" style="fill: none; stroke: #ffffff; stroke-linecap: round"/>
     </g>
     <g id="text_9">
      <!-- 0 -->
      <g style="fill: #262626" transform="translate(51.45125 286.058369)scale(0.11 -0.11)">
       <use xlink:href="#DejaVuSans-30"/>
      </g>
     </g>
    </g>
    <g id="ytick_2">
     <g id="line2d_9">
      <path d="M 67.95 238.597322 
L 447.84 238.597322 
" clip-path="url(#p45f79593bf)" style="fill: none; stroke: #ffffff; stroke-linecap: round"/>
     </g>
     <g id="text_10">
      <!-- 1000 -->
      <g style="fill: #262626" transform="translate(30.455 242.776463)scale(0.11 -0.11)">
       <use xlink:href="#DejaVuSans-31"/>
       <use xlink:href="#DejaVuSans-30" x="63.623047"/>
       <use xlink:href="#DejaVuSans-30" x="127.246094"/>
       <use xlink:href="#DejaVuSans-30" x="190.869141"/>
      </g>
     </g>
    </g>
    <g id="ytick_3">
     <g id="line2d_10">
      <path d="M 67.95 195.315415 
L 447.84 195.315415 
" clip-path="url(#p45f79593bf)" style="fill: none; stroke: #ffffff; stroke-linecap: round"/>
     </g>
     <g id="text_11">
      <!-- 2000 -->
      <g style="fill: #262626" transform="translate(30.455 199.494556)scale(0.11 -0.11)">
       <use xlink:href="#DejaVuSans-32"/>
       <use xlink:href="#DejaVuSans-30" x="63.623047"/>
       <use xlink:href="#DejaVuSans-30" x="127.246094"/>
       <use xlink:href="#DejaVuSans-30" x="190.869141"/>
      </g>
     </g>
    </g>
    <g id="ytick_4">
     <g id="line2d_11">
      <path d="M 67.95 152.033509 
L 447.84 152.033509 
" clip-path="url(#p45f79593bf)" style="fill: none; stroke: #ffffff; stroke-linecap: round"/>
     </g>
     <g id="text_12">
      <!-- 3000 -->
      <g style="fill: #262626" transform="translate(30.455 156.212649)scale(0.11 -0.11)">
       <use xlink:href="#DejaVuSans-33"/>
       <use xlink:href="#DejaVuSans-30" x="63.623047"/>
       <use xlink:href="#DejaVuSans-30" x="127.246094"/>
       <use xlink:href="#DejaVuSans-30" x="190.869141"/>
      </g>
     </g>
    </g>
    <g id="ytick_5">
     <g id="line2d_12">
      <path d="M 67.95 108.751602 
L 447.84 108.751602 
" clip-path="url(#p45f79593bf)" style="fill: none; stroke: #ffffff; stroke-linecap: round"/>
     </g>
     <g id="text_13">
      <!-- 4000 -->
      <g style="fill: #262626" transform="translate(30.455 112.930743)scale(0.11 -0.11)">
       <defs>
        <path id="DejaVuSans-34" d="M 2419 4116 
L 825 1625 
L 2419 1625 
L 2419 4116 
z
M 2253 4666 
L 3047 4666 
L 3047 1625 
L 3713 1625 
L 3713 1100 
L 3047 1100 
L 3047 0 
L 2419 0 
L 2419 1100 
L 313 1100 
L 313 1709 
L 2253 4666 
z
" transform="scale(0.015625)"/>
       </defs>
       <use xlink:href="#DejaVuSans-34"/>
       <use xlink:href="#DejaVuSans-30" x="63.623047"/>
       <use xlink:href="#DejaVuSans-30" x="127.246094"/>
       <use xlink:href="#DejaVuSans-30" x="190.869141"/>
      </g>
     </g>
    </g>
    <g id="ytick_6">
     <g id="line2d_13">
      <path d="M 67.95 65.469696 
L 447.84 65.469696 
" clip-path="url(#p45f79593bf)" style="fill: none; stroke: #ffffff; stroke-linecap: round"/>
     </g>
     <g id="text_14">
      <!-- 5000 -->
      <g style="fill: #262626" transform="translate(30.455 69.648836)scale(0.11 -0.11)">
       <use xlink:href="#DejaVuSans-35"/>
       <use xlink:href="#DejaVuSans-30" x="63.623047"/>
       <use xlink:href="#DejaVuSans-30" x="127.246094"/>
       <use xlink:href="#DejaVuSans-30" x="190.869141"/>
      </g>
     </g>
    </g>
    <g id="ytick_7">
     <g id="line2d_14">
      <path d="M 67.95 22.187789 
L 447.84 22.187789 
" clip-path="url(#p45f79593bf)" style="fill: none; stroke: #ffffff; stroke-linecap: round"/>
     </g>
     <g id="text_15">
      <!-- 6000 -->
      <g style="fill: #262626" transform="translate(30.455 26.36693)scale(0.11 -0.11)">
       <defs>
        <path id="DejaVuSans-36" d="M 2113 2584 
Q 1688 2584 1439 2293 
Q 1191 2003 1191 1497 
Q 1191 994 1439 701 
Q 1688 409 2113 409 
Q 2538 409 2786 701 
Q 3034 994 3034 1497 
Q 3034 2003 2786 2293 
Q 2538 2584 2113 2584 
z
M 3366 4563 
L 3366 3988 
Q 3128 4100 2886 4159 
Q 2644 4219 2406 4219 
Q 1781 4219 1451 3797 
Q 1122 3375 1075 2522 
Q 1259 2794 1537 2939 
Q 1816 3084 2150 3084 
Q 2853 3084 3261 2657 
Q 3669 2231 3669 1497 
Q 3669 778 3244 343 
Q 2819 -91 2113 -91 
Q 1303 -91 875 529 
Q 447 1150 447 2328 
Q 447 3434 972 4092 
Q 1497 4750 2381 4750 
Q 2619 4750 2861 4703 
Q 3103 4656 3366 4563 
z
" transform="scale(0.015625)"/>
       </defs>
       <use xlink:href="#DejaVuSans-36"/>
       <use xlink:href="#DejaVuSans-30" x="63.623047"/>
       <use xlink:href="#DejaVuSans-30" x="127.246094"/>
       <use xlink:href="#DejaVuSans-30" x="190.869141"/>
      </g>
     </g>
    </g>
    <g id="text_16">
     <!-- Trainingszeit (in Minuten) -->
     <g style="fill: #262626" transform="translate(23.543437 242.379688)rotate(-90)scale(0.14 -0.14)">
      <defs>
       <path id="DejaVuSans-54" d="M -19 4666 
L 3928 4666 
L 3928 4134 
L 2272 4134 
L 2272 0 
L 1638 0 
L 1638 4134 
L -19 4134 
L -19 4666 
z
" transform="scale(0.015625)"/>
       <path id="DejaVuSans-61" d="M 2194 1759 
Q 1497 1759 1228 1600 
Q 959 1441 959 1056 
Q 959 750 1161 570 
Q 1363 391 1709 391 
Q 2188 391 2477 730 
Q 2766 1069 2766 1631 
L 2766 1759 
L 2194 1759 
z
M 3341 1997 
L 3341 0 
L 2766 0 
L 2766 531 
Q 2569 213 2275 61 
Q 1981 -91 1556 -91 
Q 1019 -91 701 211 
Q 384 513 384 1019 
Q 384 1609 779 1909 
Q 1175 2209 1959 2209 
L 2766 2209 
L 2766 2266 
Q 2766 2663 2505 2880 
Q 2244 3097 1772 3097 
Q 1472 3097 1187 3025 
Q 903 2953 641 2809 
L 641 3341 
Q 956 3463 1253 3523 
Q 1550 3584 1831 3584 
Q 2591 3584 2966 3190 
Q 3341 2797 3341 1997 
z
" transform="scale(0.015625)"/>
       <path id="DejaVuSans-67" d="M 2906 1791 
Q 2906 2416 2648 2759 
Q 2391 3103 1925 3103 
Q 1463 3103 1205 2759 
Q 947 2416 947 1791 
Q 947 1169 1205 825 
Q 1463 481 1925 481 
Q 2391 481 2648 825 
Q 2906 1169 2906 1791 
z
M 3481 434 
Q 3481 -459 3084 -895 
Q 2688 -1331 1869 -1331 
Q 1566 -1331 1297 -1286 
Q 1028 -1241 775 -1147 
L 775 -588 
Q 1028 -725 1275 -790 
Q 1522 -856 1778 -856 
Q 2344 -856 2625 -561 
Q 2906 -266 2906 331 
L 2906 616 
Q 2728 306 2450 153 
Q 2172 0 1784 0 
Q 1141 0 747 490 
Q 353 981 353 1791 
Q 353 2603 747 3093 
Q 1141 3584 1784 3584 
Q 2172 3584 2450 3431 
Q 2728 3278 2906 2969 
L 2906 3500 
L 3481 3500 
L 3481 434 
z
" transform="scale(0.015625)"/>
       <path id="DejaVuSans-7a" d="M 353 3500 
L 3084 3500 
L 3084 2975 
L 922 459 
L 3084 459 
L 3084 0 
L 275 0 
L 275 525 
L 2438 3041 
L 353 3041 
L 353 3500 
z
" transform="scale(0.015625)"/>
       <path id="DejaVuSans-75" d="M 544 1381 
L 544 3500 
L 1119 3500 
L 1119 1403 
Q 1119 906 1312 657 
Q 1506 409 1894 409 
Q 2359 409 2629 706 
Q 2900 1003 2900 1516 
L 2900 3500 
L 3475 3500 
L 3475 0 
L 2900 0 
L 2900 538 
Q 2691 219 2414 64 
Q 2138 -91 1772 -91 
Q 1169 -91 856 284 
Q 544 659 544 1381 
z
M 1991 3584 
L 1991 3584 
z
" transform="scale(0.015625)"/>
      </defs>
      <use xlink:href="#DejaVuSans-54"/>
      <use xlink:href="#DejaVuSans-72" x="46.333984"/>
      <use xlink:href="#DejaVuSans-61" x="87.447266"/>
      <use xlink:href="#DejaVuSans-69" x="148.726562"/>
      <use xlink:href="#DejaVuSans-6e" x="176.509766"/>
      <use xlink:href="#DejaVuSans-69" x="239.888672"/>
      <use xlink:href="#DejaVuSans-6e" x="267.671875"/>
      <use xlink:href="#DejaVuSans-67" x="331.050781"/>
      <use xlink:href="#DejaVuSans-73" x="394.527344"/>
      <use xlink:href="#DejaVuSans-7a" x="446.626953"/>
      <use xlink:href="#DejaVuSans-65" x="499.117188"/>
      <use xlink:href="#DejaVuSans-69" x="560.640625"/>
      <use xlink:href="#DejaVuSans-74" x="588.423828"/>
      <use xlink:href="#DejaVuSans-20" x="627.632812"/>
      <use xlink:href="#DejaVuSans-28" x="659.419922"/>
      <use xlink:href="#DejaVuSans-69" x="698.433594"/>
      <use xlink:href="#DejaVuSans-6e" x="726.216797"/>
      <use xlink:href="#DejaVuSans-20" x="789.595703"/>
      <use xlink:href="#DejaVuSans-4d" x="821.382812"/>
      <use xlink:href="#DejaVuSans-69" x="907.662109"/>
      <use xlink:href="#DejaVuSans-6e" x="935.445312"/>
      <use xlink:href="#DejaVuSans-75" x="998.824219"/>
      <use xlink:href="#DejaVuSans-74" x="1062.203125"/>
      <use xlink:href="#DejaVuSans-65" x="1101.412109"/>
      <use xlink:href="#DejaVuSans-6e" x="1162.935547"/>
      <use xlink:href="#DejaVuSans-29" x="1226.314453"/>
     </g>
    </g>
   </g>
   <g id="PolyCollection_1">
    <defs>
     <path id="m8ac5185595" d="M 85.217727 -63.744545 
L 85.217727 -63.746009 
L 88.119866 -63.772474 
L 91.022005 -63.798014 
L 93.924144 -63.822308 
L 96.826283 -64.033907 
L 99.728422 -64.248716 
L 102.630561 -64.458485 
L 105.532701 -64.670672 
L 108.43484 -64.885026 
L 111.336979 -65.100607 
L 114.239118 -65.310878 
L 117.141257 -65.523621 
L 120.043396 -65.738536 
L 122.945535 -65.94604 
L 125.847674 -66.155059 
L 128.749813 -66.369471 
L 131.651952 -66.588661 
L 134.554091 -66.793825 
L 137.45623 -67.005964 
L 140.358369 -67.221492 
L 143.260508 -67.430436 
L 146.162647 -67.641464 
L 149.064786 -67.857113 
L 151.966925 -68.067803 
L 154.869064 -68.282666 
L 157.771203 -68.492683 
L 160.673342 -68.707195 
L 163.575481 -68.915185 
L 166.47762 -69.125041 
L 169.379759 -69.335971 
L 172.281898 -69.553153 
L 175.184037 -69.771418 
L 178.086176 -69.983485 
L 180.988316 -70.192514 
L 183.890455 -70.404342 
L 186.792594 -70.624743 
L 189.694733 -70.844502 
L 192.596872 -71.058615 
L 195.499011 -71.272052 
L 198.40115 -71.483112 
L 201.303289 -71.700966 
L 204.205428 -71.909247 
L 207.107567 -72.118649 
L 210.009706 -72.330154 
L 212.911845 -72.541552 
L 215.813984 -72.754928 
L 218.716123 -72.966359 
L 221.618262 -73.176544 
L 224.520401 -73.392205 
L 227.42254 -73.60413 
L 230.324679 -73.819517 
L 233.226818 -74.030527 
L 236.128957 -74.242309 
L 239.031096 -74.454345 
L 241.933235 -74.670437 
L 244.835374 -74.881233 
L 247.737513 -75.086012 
L 250.639652 -75.296241 
L 253.541791 -75.507002 
L 256.44393 -75.717368 
L 259.34607 -75.923826 
L 262.248209 -76.141456 
L 265.150348 -76.348306 
L 268.052487 -76.56393 
L 270.954626 -76.770326 
L 273.856765 -76.985035 
L 276.758904 -77.195998 
L 279.661043 -77.40982 
L 282.563182 -77.621121 
L 285.465321 -77.822912 
L 288.36746 -78.024867 
L 291.269599 -78.239003 
L 294.171738 -78.447795 
L 297.073877 -78.657812 
L 299.976016 -78.862879 
L 302.878155 -79.073527 
L 305.780294 -79.28418 
L 308.682433 -79.492628 
L 311.584572 -79.706308 
L 314.486711 -79.914445 
L 317.38885 -80.121985 
L 320.290989 -80.326121 
L 323.193128 -80.544268 
L 326.095267 -80.753323 
L 328.997406 -80.966119 
L 331.899545 -81.175255 
L 334.801684 -81.384188 
L 337.703824 -81.595507 
L 340.605963 -81.806493 
L 343.508102 -82.016514 
L 346.410241 -82.22962 
L 349.31238 -82.439589 
L 352.214519 -82.648188 
L 355.116658 -82.867268 
L 358.018797 -83.075162 
L 360.920936 -83.278521 
L 363.823075 -83.485107 
L 366.725214 -83.694946 
L 369.627353 -83.904658 
L 372.529492 -84.109173 
L 375.431631 -84.31791 
L 378.33377 -84.52709 
L 381.235909 -84.733085 
L 384.138048 -84.94318 
L 387.040187 -85.152496 
L 389.942326 -85.358292 
L 392.844465 -85.565705 
L 395.746604 -85.772097 
L 398.648743 -85.981354 
L 401.550882 -86.1908 
L 404.453021 -86.407314 
L 407.35516 -86.619614 
L 410.257299 -86.820214 
L 413.159439 -87.027339 
L 416.061578 -87.236442 
L 418.963717 -87.445975 
L 421.865856 -87.652437 
L 424.767995 -87.860604 
L 427.670134 -88.07334 
L 430.572273 -88.285366 
L 430.572273 -87.572505 
L 430.572273 -87.572505 
L 427.670134 -87.372133 
L 424.767995 -87.169761 
L 421.865856 -86.965178 
L 418.963717 -86.760459 
L 416.061578 -86.558236 
L 413.159439 -86.353245 
L 410.257299 -86.149763 
L 407.35516 -85.943858 
L 404.453021 -85.745322 
L 401.550882 -85.547722 
L 398.648743 -85.345549 
L 395.746604 -85.142426 
L 392.844465 -84.933783 
L 389.942326 -84.726841 
L 387.040187 -84.524667 
L 384.138048 -84.320822 
L 381.235909 -84.118468 
L 378.33377 -83.914224 
L 375.431631 -83.709959 
L 372.529492 -83.504628 
L 369.627353 -83.2993 
L 366.725214 -83.090143 
L 363.823075 -82.886185 
L 360.920936 -82.683207 
L 358.018797 -82.477189 
L 355.116658 -82.274714 
L 352.214519 -82.074162 
L 349.31238 -81.871185 
L 346.410241 -81.666964 
L 343.508102 -81.455742 
L 340.605963 -81.256754 
L 337.703824 -81.053046 
L 334.801684 -80.845578 
L 331.899545 -80.640969 
L 328.997406 -80.436643 
L 326.095267 -80.233267 
L 323.193128 -80.029907 
L 320.290989 -79.820801 
L 317.38885 -79.61257 
L 314.486711 -79.413278 
L 311.584572 -79.209193 
L 308.682433 -79.004505 
L 305.780294 -78.802026 
L 302.878155 -78.596623 
L 299.976016 -78.388935 
L 297.073877 -78.185347 
L 294.171738 -77.971468 
L 291.269599 -77.767442 
L 288.36746 -77.56339 
L 285.465321 -77.35652 
L 282.563182 -77.150749 
L 279.661043 -76.947901 
L 276.758904 -76.737892 
L 273.856765 -76.527814 
L 270.954626 -76.322976 
L 268.052487 -76.119647 
L 265.150348 -75.914889 
L 262.248209 -75.71112 
L 259.34607 -75.507158 
L 256.44393 -75.303617 
L 253.541791 -75.096166 
L 250.639652 -74.890048 
L 247.737513 -74.683678 
L 244.835374 -74.474349 
L 241.933235 -74.268391 
L 239.031096 -74.067289 
L 236.128957 -73.865747 
L 233.226818 -73.666679 
L 230.324679 -73.455339 
L 227.42254 -73.252434 
L 224.520401 -73.049036 
L 221.618262 -72.84224 
L 218.716123 -72.640019 
L 215.813984 -72.435369 
L 212.911845 -72.228224 
L 210.009706 -72.025018 
L 207.107567 -71.821196 
L 204.205428 -71.618653 
L 201.303289 -71.414131 
L 198.40115 -71.208953 
L 195.499011 -70.997754 
L 192.596872 -70.793727 
L 189.694733 -70.590319 
L 186.792594 -70.386157 
L 183.890455 -70.180009 
L 180.988316 -69.981414 
L 178.086176 -69.773127 
L 175.184037 -69.573282 
L 172.281898 -69.367916 
L 169.379759 -69.161979 
L 166.47762 -68.956316 
L 163.575481 -68.7534 
L 160.673342 -68.552475 
L 157.771203 -68.348511 
L 154.869064 -68.144421 
L 151.966925 -67.942467 
L 149.064786 -67.738776 
L 146.162647 -67.531033 
L 143.260508 -67.323768 
L 140.358369 -67.121117 
L 137.45623 -66.916724 
L 134.554091 -66.711828 
L 131.651952 -66.508812 
L 128.749813 -66.30075 
L 125.847674 -66.100736 
L 122.945535 -65.900894 
L 120.043396 -65.696658 
L 117.141257 -65.488968 
L 114.239118 -65.280496 
L 111.336979 -65.072401 
L 108.43484 -64.864407 
L 105.532701 -64.659442 
L 102.630561 -64.447196 
L 99.728422 -64.237952 
L 96.826283 -64.028122 
L 93.924144 -63.817619 
L 91.022005 -63.792269 
L 88.119866 -63.768244 
L 85.217727 -63.744545 
z
" style="stroke: #ffffff; stroke-opacity: 0.5"/>
    </defs>
    <g clip-path="url(#p45f79593bf)">
     <use xlink:href="#m8ac5185595" x="0" y="345.6" style="fill: #4c72b0; fill-opacity: 0.5; stroke: #ffffff; stroke-opacity: 0.5"/>
    </g>
   </g>
   <g id="PolyCollection_2">
    <defs>
     <path id="m1b09630ed0" d="M 85.217727 -63.745166 
L 85.217727 -63.745969 
L 88.119866 -63.77128 
L 91.022005 -63.796384 
L 93.924144 -63.822123 
L 96.826283 -64.321373 
L 99.728422 -64.809791 
L 102.630561 -65.304187 
L 105.532701 -65.797247 
L 108.43484 -66.288697 
L 111.336979 -66.786164 
L 114.239118 -67.277679 
L 117.141257 -67.775392 
L 120.043396 -68.267523 
L 122.945535 -68.766084 
L 125.847674 -69.252433 
L 128.749813 -69.74473 
L 131.651952 -70.243594 
L 134.554091 -70.737998 
L 137.45623 -71.222474 
L 140.358369 -71.713522 
L 143.260508 -72.203602 
L 146.162647 -72.708468 
L 149.064786 -73.194003 
L 151.966925 -73.682687 
L 154.869064 -74.167257 
L 157.771203 -74.651643 
L 160.673342 -75.13001 
L 163.575481 -75.621613 
L 166.47762 -76.112865 
L 169.379759 -76.608141 
L 172.281898 -77.108075 
L 175.184037 -77.594394 
L 178.086176 -78.088748 
L 180.988316 -78.581422 
L 183.890455 -79.059811 
L 186.792594 -79.557632 
L 189.694733 -80.056001 
L 192.596872 -80.548459 
L 195.499011 -81.026706 
L 198.40115 -81.513859 
L 201.303289 -82.004225 
L 204.205428 -82.500606 
L 207.107567 -82.997846 
L 210.009706 -83.501219 
L 212.911845 -83.988078 
L 215.813984 -84.474559 
L 218.716123 -84.962493 
L 221.618262 -85.451525 
L 224.520401 -85.952313 
L 227.42254 -86.447854 
L 230.324679 -86.935341 
L 233.226818 -87.432051 
L 236.128957 -87.927819 
L 239.031096 -88.409828 
L 241.933235 -88.91032 
L 244.835374 -89.39838 
L 247.737513 -89.891575 
L 250.639652 -90.385245 
L 253.541791 -90.874731 
L 256.44393 -91.363908 
L 259.34607 -91.856023 
L 262.248209 -92.355731 
L 265.150348 -92.850912 
L 268.052487 -93.336625 
L 270.954626 -93.831321 
L 273.856765 -94.317526 
L 276.758904 -94.807501 
L 279.661043 -95.296032 
L 282.563182 -95.784358 
L 285.465321 -96.27308 
L 288.36746 -96.760132 
L 291.269599 -97.246569 
L 294.171738 -97.730914 
L 297.073877 -98.222407 
L 299.976016 -98.703157 
L 302.878155 -99.200376 
L 305.780294 -99.690938 
L 308.682433 -100.181565 
L 311.584572 -100.67848 
L 314.486711 -101.169099 
L 317.38885 -101.662434 
L 320.290989 -102.153574 
L 323.193128 -102.649436 
L 326.095267 -103.150408 
L 328.997406 -103.638897 
L 331.899545 -104.138591 
L 334.801684 -104.640062 
L 337.703824 -105.137917 
L 340.605963 -105.630747 
L 343.508102 -106.121663 
L 346.410241 -106.616633 
L 349.31238 -107.10127 
L 352.214519 -107.596185 
L 355.116658 -108.080206 
L 358.018797 -108.563811 
L 360.920936 -109.045523 
L 363.823075 -109.538756 
L 366.725214 -110.035594 
L 369.627353 -110.529353 
L 372.529492 -111.022214 
L 375.431631 -111.521276 
L 378.33377 -112.006426 
L 381.235909 -112.498177 
L 384.138048 -112.987136 
L 387.040187 -113.467128 
L 389.942326 -113.958724 
L 392.844465 -114.443306 
L 395.746604 -114.933623 
L 398.648743 -115.424719 
L 401.550882 -115.902867 
L 404.453021 -116.389078 
L 407.35516 -116.865413 
L 410.257299 -117.35746 
L 413.159439 -117.842954 
L 416.061578 -118.328759 
L 418.963717 -118.816476 
L 421.865856 -119.307401 
L 424.767995 -119.793982 
L 427.670134 -120.272895 
L 430.572273 -120.764368 
L 430.572273 -119.856021 
L 430.572273 -119.856021 
L 427.670134 -119.376095 
L 424.767995 -118.898603 
L 421.865856 -118.407588 
L 418.963717 -117.919612 
L 416.061578 -117.441185 
L 413.159439 -116.9574 
L 410.257299 -116.482607 
L 407.35516 -116.000166 
L 404.453021 -115.50811 
L 401.550882 -115.01848 
L 398.648743 -114.537925 
L 395.746604 -114.059802 
L 392.844465 -113.586858 
L 389.942326 -113.112114 
L 387.040187 -112.637646 
L 384.138048 -112.160397 
L 381.235909 -111.681361 
L 378.33377 -111.200047 
L 375.431631 -110.724132 
L 372.529492 -110.248965 
L 369.627353 -109.755663 
L 366.725214 -109.27992 
L 363.823075 -108.79055 
L 360.920936 -108.318488 
L 358.018797 -107.834463 
L 355.116658 -107.351574 
L 352.214519 -106.876566 
L 349.31238 -106.388405 
L 346.410241 -105.898583 
L 343.508102 -105.415079 
L 340.605963 -104.92599 
L 337.703824 -104.449813 
L 334.801684 -103.967782 
L 331.899545 -103.492908 
L 328.997406 -103.018437 
L 326.095267 -102.536704 
L 323.193128 -102.051852 
L 320.290989 -101.567285 
L 317.38885 -101.082437 
L 314.486711 -100.60381 
L 311.584572 -100.127357 
L 308.682433 -99.645216 
L 305.780294 -99.15639 
L 302.878155 -98.658152 
L 299.976016 -98.170083 
L 297.073877 -97.677658 
L 294.171738 -97.196444 
L 291.269599 -96.706915 
L 288.36746 -96.2064 
L 285.465321 -95.712691 
L 282.563182 -95.235333 
L 279.661043 -94.757186 
L 276.758904 -94.280194 
L 273.856765 -93.796118 
L 270.954626 -93.315408 
L 268.052487 -92.832071 
L 265.150348 -92.342988 
L 262.248209 -91.859539 
L 259.34607 -91.370007 
L 256.44393 -90.88573 
L 253.541791 -90.399028 
L 250.639652 -89.912776 
L 247.737513 -89.414623 
L 244.835374 -88.907049 
L 241.933235 -88.404377 
L 239.031096 -87.900667 
L 236.128957 -87.418807 
L 233.226818 -86.944619 
L 230.324679 -86.474475 
L 227.42254 -85.992919 
L 224.520401 -85.513971 
L 221.618262 -85.028757 
L 218.716123 -84.530944 
L 215.813984 -84.046603 
L 212.911845 -83.561188 
L 210.009706 -83.081703 
L 207.107567 -82.602136 
L 204.205428 -82.114023 
L 201.303289 -81.63592 
L 198.40115 -81.158455 
L 195.499011 -80.682008 
L 192.596872 -80.200962 
L 189.694733 -79.721368 
L 186.792594 -79.236127 
L 183.890455 -78.753148 
L 180.988316 -78.264193 
L 178.086176 -77.7689 
L 175.184037 -77.302401 
L 172.281898 -76.838961 
L 169.379759 -76.36919 
L 166.47762 -75.890743 
L 163.575481 -75.405012 
L 160.673342 -74.924753 
L 157.771203 -74.438899 
L 154.869064 -73.968961 
L 151.966925 -73.486457 
L 149.064786 -72.998489 
L 146.162647 -72.523356 
L 143.260508 -72.050582 
L 140.358369 -71.567457 
L 137.45623 -71.082811 
L 134.554091 -70.60009 
L 131.651952 -70.118331 
L 128.749813 -69.635376 
L 125.847674 -69.150293 
L 122.945535 -68.661995 
L 120.043396 -68.185559 
L 117.141257 -67.704162 
L 114.239118 -67.213034 
L 111.336979 -66.735417 
L 108.43484 -66.244871 
L 105.532701 -65.763697 
L 102.630561 -65.275236 
L 99.728422 -64.787196 
L 96.826283 -64.299181 
L 93.924144 -63.819132 
L 91.022005 -63.794729 
L 88.119866 -63.770109 
L 85.217727 -63.745166 
z
" style="stroke: #ffffff; stroke-opacity: 0.5"/>
    </defs>
    <g clip-path="url(#p45f79593bf)">
     <use xlink:href="#m1b09630ed0" x="0" y="345.6" style="fill: #dd8452; fill-opacity: 0.5; stroke: #ffffff; stroke-opacity: 0.5"/>
    </g>
   </g>
   <g id="PolyCollection_3">
    <defs>
     <path id="m8a3bd94502" d="M 85.217727 -63.795754 
L 85.217727 -63.796645 
L 88.119866 -63.881284 
L 91.022005 -63.968321 
L 93.924144 -64.054168 
L 96.826283 -66.277398 
L 99.728422 -68.554949 
L 102.630561 -70.816775 
L 105.532701 -73.110342 
L 108.43484 -75.370964 
L 111.336979 -77.663181 
L 114.239118 -79.980245 
L 117.141257 -82.287108 
L 120.043396 -84.474889 
L 122.945535 -86.709544 
L 125.847674 -88.950837 
L 128.749813 -91.219426 
L 131.651952 -93.505376 
L 134.554091 -95.785321 
L 137.45623 -98.006814 
L 140.358369 -100.198602 
L 143.260508 -102.391259 
L 146.162647 -104.59742 
L 149.064786 -106.806217 
L 151.966925 -108.982119 
L 154.869064 -111.104014 
L 157.771203 -113.267944 
L 160.673342 -115.430381 
L 163.575481 -117.598194 
L 166.47762 -119.777353 
L 169.379759 -121.951378 
L 172.281898 -124.134575 
L 175.184037 -126.326351 
L 178.086176 -128.515982 
L 180.988316 -130.704151 
L 183.890455 -132.897116 
L 186.792594 -135.137753 
L 189.694733 -137.274039 
L 192.596872 -139.42911 
L 195.499011 -141.602706 
L 198.40115 -143.808511 
L 201.303289 -145.993106 
L 204.205428 -148.187354 
L 207.107567 -150.375424 
L 210.009706 -152.570914 
L 212.911845 -154.782753 
L 215.813984 -157.003955 
L 218.716123 -159.242662 
L 221.618262 -161.462654 
L 224.520401 -163.589596 
L 227.42254 -165.768397 
L 230.324679 -167.950685 
L 233.226818 -170.14018 
L 236.128957 -172.327185 
L 239.031096 -174.52833 
L 241.933235 -176.716957 
L 244.835374 -178.917123 
L 247.737513 -181.136185 
L 250.639652 -183.369136 
L 253.541791 -185.581239 
L 256.44393 -187.812285 
L 259.34607 -189.940976 
L 262.248209 -192.099241 
L 265.150348 -194.268602 
L 268.052487 -196.454957 
L 270.954626 -198.65935 
L 273.856765 -200.861661 
L 276.758904 -203.073342 
L 279.661043 -205.302148 
L 282.563182 -207.510363 
L 285.465321 -209.732097 
L 288.36746 -211.946682 
L 291.269599 -214.170869 
L 294.171738 -216.303449 
L 297.073877 -218.466344 
L 299.976016 -220.640459 
L 302.878155 -222.839663 
L 305.780294 -225.053326 
L 308.682433 -227.268975 
L 311.584572 -229.492028 
L 314.486711 -231.715239 
L 317.38885 -233.891389 
L 320.290989 -236.115095 
L 323.193128 -238.341174 
L 326.095267 -240.572166 
L 328.997406 -242.713843 
L 331.899545 -244.883971 
L 334.801684 -247.055879 
L 337.703824 -249.264976 
L 340.605963 -251.477349 
L 343.508102 -253.680788 
L 346.410241 -255.901321 
L 349.31238 -258.120974 
L 352.214519 -260.32634 
L 355.116658 -262.520332 
L 358.018797 -264.74828 
L 360.920936 -266.976983 
L 363.823075 -269.113415 
L 366.725214 -271.282982 
L 369.627353 -273.471131 
L 372.529492 -275.664159 
L 375.431631 -277.880905 
L 378.33377 -280.101315 
L 381.235909 -282.318346 
L 384.138048 -284.53504 
L 387.040187 -286.745689 
L 389.942326 -288.957879 
L 392.844465 -291.169643 
L 395.746604 -293.393935 
L 398.648743 -295.55321 
L 401.550882 -297.736268 
L 404.453021 -299.923664 
L 407.35516 -302.128026 
L 410.257299 -304.316988 
L 413.159439 -306.527467 
L 416.061578 -308.739199 
L 418.963717 -310.950812 
L 421.865856 -313.147941 
L 424.767995 -315.390834 
L 427.670134 -317.612692 
L 430.572273 -319.835455 
L 430.572273 -318.935629 
L 430.572273 -318.935629 
L 427.670134 -316.713645 
L 424.767995 -314.49464 
L 421.865856 -312.280459 
L 418.963717 -310.065668 
L 416.061578 -307.836564 
L 413.159439 -305.632445 
L 410.257299 -303.419484 
L 407.35516 -301.232463 
L 404.453021 -299.048108 
L 401.550882 -296.860128 
L 398.648743 -294.70262 
L 395.746604 -292.568014 
L 392.844465 -290.340577 
L 389.942326 -288.14901 
L 387.040187 -285.930101 
L 384.138048 -283.727326 
L 381.235909 -281.518592 
L 378.33377 -279.32145 
L 375.431631 -277.122362 
L 372.529492 -274.924692 
L 369.627353 -272.764736 
L 366.725214 -270.599435 
L 363.823075 -268.425386 
L 360.920936 -266.281176 
L 358.018797 -264.062686 
L 355.116658 -261.848084 
L 352.214519 -259.639 
L 349.31238 -257.42568 
L 346.410241 -255.211272 
L 343.508102 -252.99515 
L 340.605963 -250.798104 
L 337.703824 -248.590884 
L 334.801684 -246.409151 
L 331.899545 -244.227814 
L 328.997406 -242.074393 
L 326.095267 -239.935876 
L 323.193128 -237.686932 
L 320.290989 -235.447419 
L 317.38885 -233.222167 
L 314.486711 -231.020277 
L 311.584572 -228.802368 
L 308.682433 -226.596181 
L 305.780294 -224.387449 
L 302.878155 -222.204974 
L 299.976016 -220.013373 
L 297.073877 -217.841019 
L 294.171738 -215.678938 
L 291.269599 -213.556778 
L 288.36746 -211.336771 
L 285.465321 -209.118139 
L 282.563182 -206.905218 
L 279.661043 -204.714716 
L 276.758904 -202.524829 
L 273.856765 -200.333141 
L 270.954626 -198.112949 
L 268.052487 -195.909809 
L 265.150348 -193.719629 
L 262.248209 -191.53226 
L 259.34607 -189.348184 
L 256.44393 -187.225988 
L 253.541791 -185.006421 
L 250.639652 -182.799155 
L 247.737513 -180.593487 
L 244.835374 -178.375878 
L 241.933235 -176.160702 
L 239.031096 -173.932073 
L 236.128957 -171.723988 
L 233.226818 -169.553301 
L 230.324679 -167.363145 
L 227.42254 -165.163767 
L 224.520401 -162.971744 
L 221.618262 -160.813758 
L 218.716123 -158.609189 
L 215.813984 -156.414357 
L 212.911845 -154.215616 
L 210.009706 -152.013044 
L 207.107567 -149.807972 
L 204.205428 -147.638483 
L 201.303289 -145.430698 
L 198.40115 -143.231804 
L 195.499011 -141.056349 
L 192.596872 -138.854476 
L 189.694733 -136.674789 
L 186.792594 -134.522548 
L 183.890455 -132.28675 
L 180.988316 -130.073647 
L 178.086176 -127.842697 
L 175.184037 -125.644163 
L 172.281898 -123.428538 
L 169.379759 -121.218332 
L 166.47762 -118.989305 
L 163.575481 -116.817736 
L 160.673342 -114.623809 
L 157.771203 -112.455843 
L 154.869064 -110.290011 
L 151.966925 -108.174567 
L 149.064786 -105.951708 
L 146.162647 -103.745316 
L 143.260508 -101.519396 
L 140.358369 -99.315139 
L 137.45623 -97.094405 
L 134.554091 -94.893552 
L 131.651952 -92.677552 
L 128.749813 -90.502391 
L 125.847674 -88.309441 
L 122.945535 -86.143728 
L 120.043396 -84.000072 
L 117.141257 -81.864015 
L 114.239118 -79.6478 
L 111.336979 -77.448779 
L 108.43484 -75.263044 
L 105.532701 -73.068423 
L 102.630561 -70.784531 
L 99.728422 -68.51794 
L 96.826283 -66.256349 
L 93.924144 -64.053478 
L 91.022005 -63.966374 
L 88.119866 -63.880674 
L 85.217727 -63.795754 
z
" style="stroke: #ffffff; stroke-opacity: 0.5"/>
    </defs>
    <g clip-path="url(#p45f79593bf)">
     <use xlink:href="#m8a3bd94502" x="0" y="345.6" style="fill: #55a868; fill-opacity: 0.5; stroke: #ffffff; stroke-opacity: 0.5"/>
    </g>
   </g>
   <g id="line2d_15">
    <path d="M 85.217727 281.85465 
L 88.119866 281.830044 
L 91.022005 281.805571 
L 93.924144 281.78087 
L 96.826283 281.569147 
L 99.728422 281.356684 
L 102.630561 281.146846 
L 105.532701 280.93579 
L 108.43484 280.727133 
L 111.336979 280.516093 
L 114.239118 280.306276 
L 117.141257 280.096403 
L 120.043396 279.88654 
L 122.945535 279.677133 
L 125.847674 279.470618 
L 128.749813 279.262111 
L 131.651952 279.051377 
L 134.554091 278.845917 
L 137.45623 278.63773 
L 140.358369 278.430696 
L 143.260508 278.224275 
L 146.162647 278.014459 
L 149.064786 277.804977 
L 151.966925 277.599676 
L 154.869064 277.389586 
L 157.771203 277.182712 
L 160.673342 276.977158 
L 163.575481 276.770276 
L 166.47762 276.562711 
L 169.379759 276.354552 
L 172.281898 276.145323 
L 175.184037 275.935903 
L 178.086176 275.730318 
L 180.988316 275.521616 
L 183.890455 275.315601 
L 186.792594 275.105569 
L 189.694733 274.898614 
L 192.596872 274.690741 
L 195.499011 274.479915 
L 198.40115 274.27023 
L 201.303289 274.061902 
L 204.205428 273.856884 
L 207.107567 273.650577 
L 210.009706 273.443423 
L 212.911845 273.235072 
L 215.813984 273.026117 
L 218.716123 272.817297 
L 221.618262 272.608402 
L 224.520401 272.399533 
L 227.42254 272.188903 
L 230.324679 271.981067 
L 233.226818 271.773353 
L 236.128957 271.568721 
L 239.031096 271.361698 
L 241.933235 271.15511 
L 244.835374 270.947237 
L 247.737513 270.741006 
L 250.639652 270.534303 
L 253.541791 270.328253 
L 256.44393 270.121779 
L 259.34607 269.915448 
L 262.248209 269.707386 
L 265.150348 269.503817 
L 268.052487 269.297413 
L 270.954626 269.091693 
L 273.856765 268.886106 
L 276.758904 268.676806 
L 279.661043 268.467624 
L 282.563182 268.261424 
L 285.465321 268.056071 
L 288.36746 267.851062 
L 291.269599 267.642451 
L 294.171738 267.433826 
L 297.073877 267.224351 
L 299.976016 267.017423 
L 302.878155 266.809156 
L 305.780294 266.600306 
L 308.682433 266.391246 
L 311.584572 266.181353 
L 314.486711 265.973865 
L 317.38885 265.769522 
L 320.290989 265.563821 
L 323.193128 265.355196 
L 326.095267 265.148675 
L 328.997406 264.941166 
L 331.899545 264.737278 
L 334.801684 264.532309 
L 337.703824 264.324527 
L 340.605963 264.118105 
L 343.508102 263.911882 
L 346.410241 263.704723 
L 349.31238 263.498949 
L 352.214519 263.292952 
L 355.116658 263.087036 
L 358.018797 262.881408 
L 360.920936 262.675942 
L 363.823075 262.471133 
L 366.725214 262.26234 
L 369.627353 262.052726 
L 372.529492 261.846656 
L 375.431631 261.640498 
L 378.33377 261.434136 
L 381.235909 261.22777 
L 384.138048 261.019377 
L 387.040187 260.813626 
L 389.942326 260.607642 
L 392.844465 260.400577 
L 395.746604 260.193819 
L 398.648743 259.987557 
L 401.550882 259.782106 
L 404.453021 259.575675 
L 407.35516 259.369395 
L 410.257299 259.165998 
L 413.159439 258.959028 
L 416.061578 258.753493 
L 418.963717 258.546734 
L 421.865856 258.341189 
L 424.767995 258.133772 
L 427.670134 257.928521 
L 430.572273 257.722381 
" clip-path="url(#p45f79593bf)" style="fill: none; stroke: #4c72b0; stroke-width: 3; stroke-linecap: round"/>
   </g>
   <g id="line2d_16">
    <path d="M 85.217727 281.854426 
L 88.119866 281.829118 
L 91.022005 281.804212 
L 93.924144 281.779245 
L 96.826283 281.292909 
L 99.728422 280.806871 
L 102.630561 280.315558 
L 105.532701 279.825461 
L 108.43484 279.340926 
L 111.336979 278.850651 
L 114.239118 278.365815 
L 117.141257 277.87631 
L 120.043396 277.389968 
L 122.945535 276.903226 
L 125.847674 276.417283 
L 128.749813 275.932666 
L 131.651952 275.442281 
L 134.554091 274.954315 
L 137.45623 274.467329 
L 140.358369 273.98052 
L 143.260508 273.492079 
L 146.162647 273.002868 
L 149.064786 272.520097 
L 151.966925 272.034638 
L 154.869064 271.548429 
L 157.771203 271.063572 
L 160.673342 270.579072 
L 163.575481 270.092622 
L 166.47762 269.606396 
L 169.379759 269.11799 
L 172.281898 268.631693 
L 175.184037 268.149182 
L 178.086176 267.66654 
L 180.988316 267.178597 
L 183.890455 266.692217 
L 186.792594 266.203713 
L 189.694733 265.710543 
L 192.596872 265.223418 
L 195.499011 264.738995 
L 198.40115 264.255478 
L 201.303289 263.773177 
L 204.205428 263.287465 
L 207.107567 262.799551 
L 210.009706 262.310556 
L 212.911845 261.827531 
L 215.813984 261.34533 
L 218.716123 260.864329 
L 221.618262 260.375636 
L 224.520401 259.890207 
L 227.42254 259.403522 
L 230.324679 258.920786 
L 233.226818 258.435049 
L 236.128957 257.950064 
L 239.031096 257.467252 
L 241.933235 256.975335 
L 244.835374 256.486263 
L 247.737513 255.993715 
L 250.639652 255.507467 
L 253.541791 255.023491 
L 256.44393 254.537973 
L 259.34607 254.052059 
L 262.248209 253.565768 
L 265.150348 253.078524 
L 268.052487 252.589263 
L 270.954626 252.104727 
L 273.856765 251.622661 
L 276.758904 251.13286 
L 279.661043 250.648738 
L 282.563182 250.165938 
L 285.465321 249.680659 
L 288.36746 249.193912 
L 291.269599 248.707675 
L 294.171738 248.223134 
L 297.073877 247.73558 
L 299.976016 247.250138 
L 302.878155 246.760021 
L 305.780294 246.272389 
L 308.682433 245.784337 
L 311.584572 245.296598 
L 314.486711 244.818513 
L 317.38885 244.333842 
L 320.290989 243.850409 
L 323.193128 243.359238 
L 326.095267 242.866685 
L 328.997406 242.379895 
L 331.899545 241.897 
L 334.801684 241.4093 
L 337.703824 240.924087 
L 340.605963 240.438948 
L 343.508102 239.95498 
L 346.410241 239.469729 
L 349.31238 238.983642 
L 352.214519 238.498605 
L 355.116658 238.015356 
L 358.018797 237.527503 
L 360.920936 237.039553 
L 363.823075 236.55427 
L 366.725214 236.066561 
L 369.627353 235.579528 
L 372.529492 235.089396 
L 375.431631 234.606327 
L 378.33377 234.123029 
L 381.235909 233.633657 
L 384.138048 233.151431 
L 387.040187 232.673631 
L 389.942326 232.187928 
L 392.844465 231.705791 
L 395.746604 231.223964 
L 398.648743 230.735182 
L 401.550882 230.252273 
L 404.453021 229.766178 
L 407.35516 229.28316 
L 410.257299 228.798275 
L 413.159439 228.315332 
L 416.061578 227.830524 
L 418.963717 227.349037 
L 421.865856 226.865389 
L 424.767995 226.379756 
L 427.670134 225.899087 
L 430.572273 225.417225 
" clip-path="url(#p45f79593bf)" style="fill: none; stroke: #dd8452; stroke-width: 3; stroke-linecap: round"/>
   </g>
   <g id="line2d_17">
    <path d="M 85.217727 281.803801 
L 88.119866 281.719021 
L 91.022005 281.632652 
L 93.924144 281.546177 
L 96.826283 279.333126 
L 99.728422 277.063555 
L 102.630561 274.799347 
L 105.532701 272.510617 
L 108.43484 270.282996 
L 111.336979 268.04402 
L 114.239118 265.785977 
L 117.141257 263.524439 
L 120.043396 261.362519 
L 122.945535 259.173364 
L 125.847674 256.969861 
L 128.749813 254.739091 
L 131.651952 252.508536 
L 134.554091 250.260564 
L 137.45623 248.04939 
L 140.358369 245.84313 
L 143.260508 243.644673 
L 146.162647 241.428632 
L 149.064786 239.221037 
L 151.966925 237.021657 
L 154.869064 234.902987 
L 157.771203 232.738107 
L 160.673342 230.572905 
L 163.575481 228.392035 
L 166.47762 226.216671 
L 169.379759 224.015145 
L 172.281898 221.818443 
L 175.184037 219.614743 
L 178.086176 217.420661 
L 180.988316 215.211101 
L 183.890455 213.008067 
L 186.792594 210.76985 
L 189.694733 208.625586 
L 192.596872 206.458207 
L 195.499011 204.270473 
L 198.40115 202.079842 
L 201.303289 199.888098 
L 204.205428 197.687082 
L 207.107567 195.508302 
L 210.009706 193.308021 
L 212.911845 191.100816 
L 215.813984 188.890844 
L 218.716123 186.674075 
L 221.618262 184.461794 
L 224.520401 182.31933 
L 227.42254 180.133918 
L 230.324679 177.943085 
L 233.226818 175.75326 
L 236.128957 173.574414 
L 239.031096 171.369798 
L 241.933235 169.161171 
L 244.835374 166.953499 
L 247.737513 164.735164 
L 250.639652 162.515854 
L 253.541791 160.30617 
L 256.44393 158.080863 
L 259.34607 155.95542 
L 262.248209 153.78425 
L 265.150348 151.605885 
L 268.052487 149.417617 
L 270.954626 147.213851 
L 273.856765 145.002599 
L 276.758904 142.800915 
L 279.661043 140.591568 
L 282.563182 138.39221 
L 285.465321 136.174882 
L 288.36746 133.958274 
L 291.269599 131.736176 
L 294.171738 129.608806 
L 297.073877 127.446319 
L 299.976016 125.273084 
L 302.878155 123.077682 
L 305.780294 120.879613 
L 308.682433 118.667422 
L 311.584572 116.452802 
L 314.486711 114.232242 
L 317.38885 112.043222 
L 320.290989 109.818743 
L 323.193128 107.585947 
L 326.095267 105.345979 
L 328.997406 103.205882 
L 331.899545 101.044107 
L 334.801684 98.867485 
L 337.703824 96.67207 
L 340.605963 94.462273 
L 343.508102 92.262031 
L 346.410241 90.043703 
L 349.31238 87.826673 
L 352.214519 85.61733 
L 355.116658 83.415792 
L 358.018797 81.194517 
L 360.920936 78.97092 
L 363.823075 76.830599 
L 366.725214 74.658792 
L 369.627353 72.482067 
L 372.529492 70.305575 
L 375.431631 68.098366 
L 378.33377 65.888618 
L 381.235909 63.681531 
L 384.138048 61.468817 
L 387.040187 59.262105 
L 389.942326 57.046555 
L 392.844465 54.84489 
L 395.746604 52.619025 
L 398.648743 50.472085 
L 401.550882 48.301802 
L 404.453021 46.114114 
L 407.35516 43.919756 
L 410.257299 41.731764 
L 413.159439 39.520044 
L 416.061578 37.312119 
L 418.963717 35.09176 
L 421.865856 32.8858 
L 424.767995 30.657263 
L 427.670134 28.436832 
L 430.572273 26.214458 
" clip-path="url(#p45f79593bf)" style="fill: none; stroke: #55a868; stroke-width: 3; stroke-linecap: round"/>
   </g>
   <g id="patch_3">
    <path d="M 67.95 294.66 
L 67.95 12.96 
" style="fill: none; stroke: #ffffff; stroke-width: 1.25; stroke-linejoin: miter; stroke-linecap: square"/>
   </g>
   <g id="patch_4">
    <path d="M 447.84 294.66 
L 447.84 12.96 
" style="fill: none; stroke: #ffffff; stroke-width: 1.25; stroke-linejoin: miter; stroke-linecap: square"/>
   </g>
   <g id="patch_5">
    <path d="M 67.95 294.66 
L 447.84 294.66 
" style="fill: none; stroke: #ffffff; stroke-width: 1.25; stroke-linejoin: miter; stroke-linecap: square"/>
   </g>
   <g id="patch_6">
    <path d="M 67.95 12.96 
L 447.84 12.96 
" style="fill: none; stroke: #ffffff; stroke-width: 1.25; stroke-linejoin: miter; stroke-linecap: square"/>
   </g>
   <g id="legend_1">
    <g id="patch_7">
     <path d="M 75.65 70.197812 
L 223.477969 70.197812 
Q 225.677969 70.197812 225.677969 67.997813 
L 225.677969 20.66 
Q 225.677969 18.46 223.477969 18.46 
L 75.65 18.46 
Q 73.45 18.46 73.45 20.66 
L 73.45 67.997813 
Q 73.45 70.197812 75.65 70.197812 
z
" style="fill: #eaeaf2; opacity: 0.8; stroke: #cccccc; stroke-linejoin: miter"/>
    </g>
    <g id="line2d_18">
     <path d="M 77.85 27.368281 
L 88.85 27.368281 
L 99.85 27.368281 
" style="fill: none; stroke: #4c72b0; stroke-width: 3; stroke-linecap: round"/>
    </g>
    <g id="text_17">
     <!-- SAC-DELAY-20 -->
     <g style="fill: #262626" transform="translate(108.65 31.218281)scale(0.11 -0.11)">
      <defs>
       <path id="DejaVuSans-53" d="M 3425 4513 
L 3425 3897 
Q 3066 4069 2747 4153 
Q 2428 4238 2131 4238 
Q 1616 4238 1336 4038 
Q 1056 3838 1056 3469 
Q 1056 3159 1242 3001 
Q 1428 2844 1947 2747 
L 2328 2669 
Q 3034 2534 3370 2195 
Q 3706 1856 3706 1288 
Q 3706 609 3251 259 
Q 2797 -91 1919 -91 
Q 1588 -91 1214 -16 
Q 841 59 441 206 
L 441 856 
Q 825 641 1194 531 
Q 1563 422 1919 422 
Q 2459 422 2753 634 
Q 3047 847 3047 1241 
Q 3047 1584 2836 1778 
Q 2625 1972 2144 2069 
L 1759 2144 
Q 1053 2284 737 2584 
Q 422 2884 422 3419 
Q 422 4038 858 4394 
Q 1294 4750 2059 4750 
Q 2388 4750 2728 4690 
Q 3069 4631 3425 4513 
z
" transform="scale(0.015625)"/>
       <path id="DejaVuSans-41" d="M 2188 4044 
L 1331 1722 
L 3047 1722 
L 2188 4044 
z
M 1831 4666 
L 2547 4666 
L 4325 0 
L 3669 0 
L 3244 1197 
L 1141 1197 
L 716 0 
L 50 0 
L 1831 4666 
z
" transform="scale(0.015625)"/>
       <path id="DejaVuSans-43" d="M 4122 4306 
L 4122 3641 
Q 3803 3938 3442 4084 
Q 3081 4231 2675 4231 
Q 1875 4231 1450 3742 
Q 1025 3253 1025 2328 
Q 1025 1406 1450 917 
Q 1875 428 2675 428 
Q 3081 428 3442 575 
Q 3803 722 4122 1019 
L 4122 359 
Q 3791 134 3420 21 
Q 3050 -91 2638 -91 
Q 1578 -91 968 557 
Q 359 1206 359 2328 
Q 359 3453 968 4101 
Q 1578 4750 2638 4750 
Q 3056 4750 3426 4639 
Q 3797 4528 4122 4306 
z
" transform="scale(0.015625)"/>
       <path id="DejaVuSans-2d" d="M 313 2009 
L 1997 2009 
L 1997 1497 
L 313 1497 
L 313 2009 
z
" transform="scale(0.015625)"/>
       <path id="DejaVuSans-44" d="M 1259 4147 
L 1259 519 
L 2022 519 
Q 2988 519 3436 956 
Q 3884 1394 3884 2338 
Q 3884 3275 3436 3711 
Q 2988 4147 2022 4147 
L 1259 4147 
z
M 628 4666 
L 1925 4666 
Q 3281 4666 3915 4102 
Q 4550 3538 4550 2338 
Q 4550 1131 3912 565 
Q 3275 0 1925 0 
L 628 0 
L 628 4666 
z
" transform="scale(0.015625)"/>
       <path id="DejaVuSans-45" d="M 628 4666 
L 3578 4666 
L 3578 4134 
L 1259 4134 
L 1259 2753 
L 3481 2753 
L 3481 2222 
L 1259 2222 
L 1259 531 
L 3634 531 
L 3634 0 
L 628 0 
L 628 4666 
z
" transform="scale(0.015625)"/>
       <path id="DejaVuSans-4c" d="M 628 4666 
L 1259 4666 
L 1259 531 
L 3531 531 
L 3531 0 
L 628 0 
L 628 4666 
z
" transform="scale(0.015625)"/>
       <path id="DejaVuSans-59" d="M -13 4666 
L 666 4666 
L 1959 2747 
L 3244 4666 
L 3922 4666 
L 2272 2222 
L 2272 0 
L 1638 0 
L 1638 2222 
L -13 4666 
z
" transform="scale(0.015625)"/>
      </defs>
      <use xlink:href="#DejaVuSans-53"/>
      <use xlink:href="#DejaVuSans-41" x="65.351562"/>
      <use xlink:href="#DejaVuSans-43" x="132.009766"/>
      <use xlink:href="#DejaVuSans-2d" x="201.833984"/>
      <use xlink:href="#DejaVuSans-44" x="237.917969"/>
      <use xlink:href="#DejaVuSans-45" x="314.919922"/>
      <use xlink:href="#DejaVuSans-4c" x="378.103516"/>
      <use xlink:href="#DejaVuSans-41" x="436.066406"/>
      <use xlink:href="#DejaVuSans-59" x="496.724609"/>
      <use xlink:href="#DejaVuSans-2d" x="545.933594"/>
      <use xlink:href="#DejaVuSans-32" x="582.017578"/>
      <use xlink:href="#DejaVuSans-30" x="645.640625"/>
     </g>
    </g>
    <g id="line2d_19">
     <path d="M 77.85 43.514219 
L 88.85 43.514219 
L 99.85 43.514219 
" style="fill: none; stroke: #dd8452; stroke-width: 3; stroke-linecap: round"/>
    </g>
    <g id="text_18">
     <!-- SAC-IS-DELAY-20 -->
     <g style="fill: #262626" transform="translate(108.65 47.364219)scale(0.11 -0.11)">
      <defs>
       <path id="DejaVuSans-49" d="M 628 4666 
L 1259 4666 
L 1259 0 
L 628 0 
L 628 4666 
z
" transform="scale(0.015625)"/>
      </defs>
      <use xlink:href="#DejaVuSans-53"/>
      <use xlink:href="#DejaVuSans-41" x="65.351562"/>
      <use xlink:href="#DejaVuSans-43" x="132.009766"/>
      <use xlink:href="#DejaVuSans-2d" x="201.833984"/>
      <use xlink:href="#DejaVuSans-49" x="237.917969"/>
      <use xlink:href="#DejaVuSans-53" x="267.410156"/>
      <use xlink:href="#DejaVuSans-2d" x="330.886719"/>
      <use xlink:href="#DejaVuSans-44" x="366.970703"/>
      <use xlink:href="#DejaVuSans-45" x="443.972656"/>
      <use xlink:href="#DejaVuSans-4c" x="507.15625"/>
      <use xlink:href="#DejaVuSans-41" x="565.119141"/>
      <use xlink:href="#DejaVuSans-59" x="625.777344"/>
      <use xlink:href="#DejaVuSans-2d" x="674.986328"/>
      <use xlink:href="#DejaVuSans-32" x="711.070312"/>
      <use xlink:href="#DejaVuSans-30" x="774.693359"/>
     </g>
    </g>
    <g id="line2d_20">
     <path d="M 77.85 59.660156 
L 88.85 59.660156 
L 99.85 59.660156 
" style="fill: none; stroke: #55a868; stroke-width: 3; stroke-linecap: round"/>
    </g>
    <g id="text_19">
     <!-- DCAC-DELAY-20-16C -->
     <g style="fill: #262626" transform="translate(108.65 63.510156)scale(0.11 -0.11)">
      <use xlink:href="#DejaVuSans-44"/>
      <use xlink:href="#DejaVuSans-43" x="77.001953"/>
      <use xlink:href="#DejaVuSans-41" x="146.826172"/>
      <use xlink:href="#DejaVuSans-43" x="213.484375"/>
      <use xlink:href="#DejaVuSans-2d" x="283.308594"/>
      <use xlink:href="#DejaVuSans-44" x="319.392578"/>
      <use xlink:href="#DejaVuSans-45" x="396.394531"/>
      <use xlink:href="#DejaVuSans-4c" x="459.578125"/>
      <use xlink:href="#DejaVuSans-41" x="517.541016"/>
      <use xlink:href="#DejaVuSans-59" x="578.199219"/>
      <use xlink:href="#DejaVuSans-2d" x="627.408203"/>
      <use xlink:href="#DejaVuSans-32" x="663.492188"/>
      <use xlink:href="#DejaVuSans-30" x="727.115234"/>
      <use xlink:href="#DejaVuSans-2d" x="790.738281"/>
      <use xlink:href="#DejaVuSans-31" x="826.822266"/>
      <use xlink:href="#DejaVuSans-36" x="890.445312"/>
      <use xlink:href="#DejaVuSans-43" x="954.068359"/>
     </g>
    </g>
   </g>
  </g>
 </g>
 <defs>
  <clipPath id="p45f79593bf">
   <rect x="67.95" y="12.96" width="379.89" height="281.7"/>
  </clipPath>
 </defs>
</svg>
