<?xml version="1.0" encoding="utf-8" standalone="no"?>
<!DOCTYPE svg PUBLIC "-//W3C//DTD SVG 1.1//EN"
  "http://www.w3.org/Graphics/SVG/1.1/DTD/svg11.dtd">
<svg xmlns:xlink="http://www.w3.org/1999/xlink" width="460.8pt" height="345.6pt" viewBox="0 0 460.8 345.6" xmlns="http://www.w3.org/2000/svg" version="1.1">
 <metadata>
  <rdf:RDF xmlns:dc="http://purl.org/dc/elements/1.1/" xmlns:cc="http://creativecommons.org/ns#" xmlns:rdf="http://www.w3.org/1999/02/22-rdf-syntax-ns#">
   <cc:Work>
    <dc:type rdf:resource="http://purl.org/dc/dcmitype/StillImage"/>
    <dc:date>2022-09-12T15:21:53.303567</dc:date>
    <dc:format>image/svg+xml</dc:format>
    <dc:creator>
     <cc:Agent>
      <dc:title>Matplotlib v3.5.3, https://matplotlib.org/</dc:title>
     </cc:Agent>
    </dc:creator>
   </cc:Work>
  </rdf:RDF>
 </metadata>
 <defs>
  <style type="text/css">*{stroke-linejoin: round; stroke-linecap: butt}</style>
 </defs>
 <g id="figure_1">
  <g id="patch_1">
   <path d="M 0 345.6 
L 460.8 345.6 
L 460.8 0 
L 0 0 
z
" style="fill: #ffffff"/>
  </g>
  <g id="axes_1">
   <g id="patch_2">
    <path d="M 74.88 294.66 
L 447.84 294.66 
L 447.84 12.96 
L 74.88 12.96 
z
" style="fill: #eaeaf2"/>
   </g>
   <g id="matplotlib.axis_1">
    <g id="xtick_1">
     <g id="line2d_1">
      <path d="M 88.983529 294.66 
L 88.983529 12.96 
" clip-path="url(#p13e0cf0b54)" style="fill: none; stroke: #ffffff; stroke-linecap: round"/>
     </g>
     <g id="text_1">
      <!-- 0.00 -->
      <g style="fill: #262626" transform="translate(76.737436 312.518281)scale(0.11 -0.11)">
       <defs>
        <path id="DejaVuSans-30" d="M 2034 4250 
Q 1547 4250 1301 3770 
Q 1056 3291 1056 2328 
Q 1056 1369 1301 889 
Q 1547 409 2034 409 
Q 2525 409 2770 889 
Q 3016 1369 3016 2328 
Q 3016 3291 2770 3770 
Q 2525 4250 2034 4250 
z
M 2034 4750 
Q 2819 4750 3233 4129 
Q 3647 3509 3647 2328 
Q 3647 1150 3233 529 
Q 2819 -91 2034 -91 
Q 1250 -91 836 529 
Q 422 1150 422 2328 
Q 422 3509 836 4129 
Q 1250 4750 2034 4750 
z
" transform="scale(0.015625)"/>
        <path id="DejaVuSans-2e" d="M 684 794 
L 1344 794 
L 1344 0 
L 684 0 
L 684 794 
z
" transform="scale(0.015625)"/>
       </defs>
       <use xlink:href="#DejaVuSans-30"/>
       <use xlink:href="#DejaVuSans-2e" x="63.623047"/>
       <use xlink:href="#DejaVuSans-30" x="95.410156"/>
       <use xlink:href="#DejaVuSans-30" x="159.033203"/>
      </g>
     </g>
    </g>
    <g id="xtick_2">
     <g id="line2d_2">
      <path d="M 145.967487 294.66 
L 145.967487 12.96 
" clip-path="url(#p13e0cf0b54)" style="fill: none; stroke: #ffffff; stroke-linecap: round"/>
     </g>
     <g id="text_2">
      <!-- 0.05 -->
      <g style="fill: #262626" transform="translate(133.721393 312.518281)scale(0.11 -0.11)">
       <defs>
        <path id="DejaVuSans-35" d="M 691 4666 
L 3169 4666 
L 3169 4134 
L 1269 4134 
L 1269 2991 
Q 1406 3038 1543 3061 
Q 1681 3084 1819 3084 
Q 2600 3084 3056 2656 
Q 3513 2228 3513 1497 
Q 3513 744 3044 326 
Q 2575 -91 1722 -91 
Q 1428 -91 1123 -41 
Q 819 9 494 109 
L 494 744 
Q 775 591 1075 516 
Q 1375 441 1709 441 
Q 2250 441 2565 725 
Q 2881 1009 2881 1497 
Q 2881 1984 2565 2268 
Q 2250 2553 1709 2553 
Q 1456 2553 1204 2497 
Q 953 2441 691 2322 
L 691 4666 
z
" transform="scale(0.015625)"/>
       </defs>
       <use xlink:href="#DejaVuSans-30"/>
       <use xlink:href="#DejaVuSans-2e" x="63.623047"/>
       <use xlink:href="#DejaVuSans-30" x="95.410156"/>
       <use xlink:href="#DejaVuSans-35" x="159.033203"/>
      </g>
     </g>
    </g>
    <g id="xtick_3">
     <g id="line2d_3">
      <path d="M 202.951444 294.66 
L 202.951444 12.96 
" clip-path="url(#p13e0cf0b54)" style="fill: none; stroke: #ffffff; stroke-linecap: round"/>
     </g>
     <g id="text_3">
      <!-- 0.10 -->
      <g style="fill: #262626" transform="translate(190.70535 312.518281)scale(0.11 -0.11)">
       <defs>
        <path id="DejaVuSans-31" d="M 794 531 
L 1825 531 
L 1825 4091 
L 703 3866 
L 703 4441 
L 1819 4666 
L 2450 4666 
L 2450 531 
L 3481 531 
L 3481 0 
L 794 0 
L 794 531 
z
" transform="scale(0.015625)"/>
       </defs>
       <use xlink:href="#DejaVuSans-30"/>
       <use xlink:href="#DejaVuSans-2e" x="63.623047"/>
       <use xlink:href="#DejaVuSans-31" x="95.410156"/>
       <use xlink:href="#DejaVuSans-30" x="159.033203"/>
      </g>
     </g>
    </g>
    <g id="xtick_4">
     <g id="line2d_4">
      <path d="M 259.935401 294.66 
L 259.935401 12.96 
" clip-path="url(#p13e0cf0b54)" style="fill: none; stroke: #ffffff; stroke-linecap: round"/>
     </g>
     <g id="text_4">
      <!-- 0.15 -->
      <g style="fill: #262626" transform="translate(247.689307 312.518281)scale(0.11 -0.11)">
       <use xlink:href="#DejaVuSans-30"/>
       <use xlink:href="#DejaVuSans-2e" x="63.623047"/>
       <use xlink:href="#DejaVuSans-31" x="95.410156"/>
       <use xlink:href="#DejaVuSans-35" x="159.033203"/>
      </g>
     </g>
    </g>
    <g id="xtick_5">
     <g id="line2d_5">
      <path d="M 316.919358 294.66 
L 316.919358 12.96 
" clip-path="url(#p13e0cf0b54)" style="fill: none; stroke: #ffffff; stroke-linecap: round"/>
     </g>
     <g id="text_5">
      <!-- 0.20 -->
      <g style="fill: #262626" transform="translate(304.673265 312.518281)scale(0.11 -0.11)">
       <defs>
        <path id="DejaVuSans-32" d="M 1228 531 
L 3431 531 
L 3431 0 
L 469 0 
L 469 531 
Q 828 903 1448 1529 
Q 2069 2156 2228 2338 
Q 2531 2678 2651 2914 
Q 2772 3150 2772 3378 
Q 2772 3750 2511 3984 
Q 2250 4219 1831 4219 
Q 1534 4219 1204 4116 
Q 875 4013 500 3803 
L 500 4441 
Q 881 4594 1212 4672 
Q 1544 4750 1819 4750 
Q 2544 4750 2975 4387 
Q 3406 4025 3406 3419 
Q 3406 3131 3298 2873 
Q 3191 2616 2906 2266 
Q 2828 2175 2409 1742 
Q 1991 1309 1228 531 
z
" transform="scale(0.015625)"/>
       </defs>
       <use xlink:href="#DejaVuSans-30"/>
       <use xlink:href="#DejaVuSans-2e" x="63.623047"/>
       <use xlink:href="#DejaVuSans-32" x="95.410156"/>
       <use xlink:href="#DejaVuSans-30" x="159.033203"/>
      </g>
     </g>
    </g>
    <g id="xtick_6">
     <g id="line2d_6">
      <path d="M 373.903316 294.66 
L 373.903316 12.96 
" clip-path="url(#p13e0cf0b54)" style="fill: none; stroke: #ffffff; stroke-linecap: round"/>
     </g>
     <g id="text_6">
      <!-- 0.25 -->
      <g style="fill: #262626" transform="translate(361.657222 312.518281)scale(0.11 -0.11)">
       <use xlink:href="#DejaVuSans-30"/>
       <use xlink:href="#DejaVuSans-2e" x="63.623047"/>
       <use xlink:href="#DejaVuSans-32" x="95.410156"/>
       <use xlink:href="#DejaVuSans-35" x="159.033203"/>
      </g>
     </g>
    </g>
    <g id="xtick_7">
     <g id="line2d_7">
      <path d="M 430.887273 294.66 
L 430.887273 12.96 
" clip-path="url(#p13e0cf0b54)" style="fill: none; stroke: #ffffff; stroke-linecap: round"/>
     </g>
     <g id="text_7">
      <!-- 0.30 -->
      <g style="fill: #262626" transform="translate(418.641179 312.518281)scale(0.11 -0.11)">
       <defs>
        <path id="DejaVuSans-33" d="M 2597 2516 
Q 3050 2419 3304 2112 
Q 3559 1806 3559 1356 
Q 3559 666 3084 287 
Q 2609 -91 1734 -91 
Q 1441 -91 1130 -33 
Q 819 25 488 141 
L 488 750 
Q 750 597 1062 519 
Q 1375 441 1716 441 
Q 2309 441 2620 675 
Q 2931 909 2931 1356 
Q 2931 1769 2642 2001 
Q 2353 2234 1838 2234 
L 1294 2234 
L 1294 2753 
L 1863 2753 
Q 2328 2753 2575 2939 
Q 2822 3125 2822 3475 
Q 2822 3834 2567 4026 
Q 2313 4219 1838 4219 
Q 1578 4219 1281 4162 
Q 984 4106 628 3988 
L 628 4550 
Q 988 4650 1302 4700 
Q 1616 4750 1894 4750 
Q 2613 4750 3031 4423 
Q 3450 4097 3450 3541 
Q 3450 3153 3228 2886 
Q 3006 2619 2597 2516 
z
" transform="scale(0.015625)"/>
       </defs>
       <use xlink:href="#DejaVuSans-30"/>
       <use xlink:href="#DejaVuSans-2e" x="63.623047"/>
       <use xlink:href="#DejaVuSans-33" x="95.410156"/>
       <use xlink:href="#DejaVuSans-30" x="159.033203"/>
      </g>
     </g>
    </g>
    <g id="text_8">
     <!-- Zeitschritte (in Millionen) -->
     <g style="fill: #262626" transform="translate(173.445469 329.44375)scale(0.14 -0.14)">
      <defs>
       <path id="DejaVuSans-5a" d="M 359 4666 
L 4025 4666 
L 4025 4184 
L 1075 531 
L 4097 531 
L 4097 0 
L 288 0 
L 288 481 
L 3238 4134 
L 359 4134 
L 359 4666 
z
" transform="scale(0.015625)"/>
       <path id="DejaVuSans-65" d="M 3597 1894 
L 3597 1613 
L 953 1613 
Q 991 1019 1311 708 
Q 1631 397 2203 397 
Q 2534 397 2845 478 
Q 3156 559 3463 722 
L 3463 178 
Q 3153 47 2828 -22 
Q 2503 -91 2169 -91 
Q 1331 -91 842 396 
Q 353 884 353 1716 
Q 353 2575 817 3079 
Q 1281 3584 2069 3584 
Q 2775 3584 3186 3129 
Q 3597 2675 3597 1894 
z
M 3022 2063 
Q 3016 2534 2758 2815 
Q 2500 3097 2075 3097 
Q 1594 3097 1305 2825 
Q 1016 2553 972 2059 
L 3022 2063 
z
" transform="scale(0.015625)"/>
       <path id="DejaVuSans-69" d="M 603 3500 
L 1178 3500 
L 1178 0 
L 603 0 
L 603 3500 
z
M 603 4863 
L 1178 4863 
L 1178 4134 
L 603 4134 
L 603 4863 
z
" transform="scale(0.015625)"/>
       <path id="DejaVuSans-74" d="M 1172 4494 
L 1172 3500 
L 2356 3500 
L 2356 3053 
L 1172 3053 
L 1172 1153 
Q 1172 725 1289 603 
Q 1406 481 1766 481 
L 2356 481 
L 2356 0 
L 1766 0 
Q 1100 0 847 248 
Q 594 497 594 1153 
L 594 3053 
L 172 3053 
L 172 3500 
L 594 3500 
L 594 4494 
L 1172 4494 
z
" transform="scale(0.015625)"/>
       <path id="DejaVuSans-73" d="M 2834 3397 
L 2834 2853 
Q 2591 2978 2328 3040 
Q 2066 3103 1784 3103 
Q 1356 3103 1142 2972 
Q 928 2841 928 2578 
Q 928 2378 1081 2264 
Q 1234 2150 1697 2047 
L 1894 2003 
Q 2506 1872 2764 1633 
Q 3022 1394 3022 966 
Q 3022 478 2636 193 
Q 2250 -91 1575 -91 
Q 1294 -91 989 -36 
Q 684 19 347 128 
L 347 722 
Q 666 556 975 473 
Q 1284 391 1588 391 
Q 1994 391 2212 530 
Q 2431 669 2431 922 
Q 2431 1156 2273 1281 
Q 2116 1406 1581 1522 
L 1381 1569 
Q 847 1681 609 1914 
Q 372 2147 372 2553 
Q 372 3047 722 3315 
Q 1072 3584 1716 3584 
Q 2034 3584 2315 3537 
Q 2597 3491 2834 3397 
z
" transform="scale(0.015625)"/>
       <path id="DejaVuSans-63" d="M 3122 3366 
L 3122 2828 
Q 2878 2963 2633 3030 
Q 2388 3097 2138 3097 
Q 1578 3097 1268 2742 
Q 959 2388 959 1747 
Q 959 1106 1268 751 
Q 1578 397 2138 397 
Q 2388 397 2633 464 
Q 2878 531 3122 666 
L 3122 134 
Q 2881 22 2623 -34 
Q 2366 -91 2075 -91 
Q 1284 -91 818 406 
Q 353 903 353 1747 
Q 353 2603 823 3093 
Q 1294 3584 2113 3584 
Q 2378 3584 2631 3529 
Q 2884 3475 3122 3366 
z
" transform="scale(0.015625)"/>
       <path id="DejaVuSans-68" d="M 3513 2113 
L 3513 0 
L 2938 0 
L 2938 2094 
Q 2938 2591 2744 2837 
Q 2550 3084 2163 3084 
Q 1697 3084 1428 2787 
Q 1159 2491 1159 1978 
L 1159 0 
L 581 0 
L 581 4863 
L 1159 4863 
L 1159 2956 
Q 1366 3272 1645 3428 
Q 1925 3584 2291 3584 
Q 2894 3584 3203 3211 
Q 3513 2838 3513 2113 
z
" transform="scale(0.015625)"/>
       <path id="DejaVuSans-72" d="M 2631 2963 
Q 2534 3019 2420 3045 
Q 2306 3072 2169 3072 
Q 1681 3072 1420 2755 
Q 1159 2438 1159 1844 
L 1159 0 
L 581 0 
L 581 3500 
L 1159 3500 
L 1159 2956 
Q 1341 3275 1631 3429 
Q 1922 3584 2338 3584 
Q 2397 3584 2469 3576 
Q 2541 3569 2628 3553 
L 2631 2963 
z
" transform="scale(0.015625)"/>
       <path id="DejaVuSans-20" transform="scale(0.015625)"/>
       <path id="DejaVuSans-28" d="M 1984 4856 
Q 1566 4138 1362 3434 
Q 1159 2731 1159 2009 
Q 1159 1288 1364 580 
Q 1569 -128 1984 -844 
L 1484 -844 
Q 1016 -109 783 600 
Q 550 1309 550 2009 
Q 550 2706 781 3412 
Q 1013 4119 1484 4856 
L 1984 4856 
z
" transform="scale(0.015625)"/>
       <path id="DejaVuSans-6e" d="M 3513 2113 
L 3513 0 
L 2938 0 
L 2938 2094 
Q 2938 2591 2744 2837 
Q 2550 3084 2163 3084 
Q 1697 3084 1428 2787 
Q 1159 2491 1159 1978 
L 1159 0 
L 581 0 
L 581 3500 
L 1159 3500 
L 1159 2956 
Q 1366 3272 1645 3428 
Q 1925 3584 2291 3584 
Q 2894 3584 3203 3211 
Q 3513 2838 3513 2113 
z
" transform="scale(0.015625)"/>
       <path id="DejaVuSans-4d" d="M 628 4666 
L 1569 4666 
L 2759 1491 
L 3956 4666 
L 4897 4666 
L 4897 0 
L 4281 0 
L 4281 4097 
L 3078 897 
L 2444 897 
L 1241 4097 
L 1241 0 
L 628 0 
L 628 4666 
z
" transform="scale(0.015625)"/>
       <path id="DejaVuSans-6c" d="M 603 4863 
L 1178 4863 
L 1178 0 
L 603 0 
L 603 4863 
z
" transform="scale(0.015625)"/>
       <path id="DejaVuSans-6f" d="M 1959 3097 
Q 1497 3097 1228 2736 
Q 959 2375 959 1747 
Q 959 1119 1226 758 
Q 1494 397 1959 397 
Q 2419 397 2687 759 
Q 2956 1122 2956 1747 
Q 2956 2369 2687 2733 
Q 2419 3097 1959 3097 
z
M 1959 3584 
Q 2709 3584 3137 3096 
Q 3566 2609 3566 1747 
Q 3566 888 3137 398 
Q 2709 -91 1959 -91 
Q 1206 -91 779 398 
Q 353 888 353 1747 
Q 353 2609 779 3096 
Q 1206 3584 1959 3584 
z
" transform="scale(0.015625)"/>
       <path id="DejaVuSans-29" d="M 513 4856 
L 1013 4856 
Q 1481 4119 1714 3412 
Q 1947 2706 1947 2009 
Q 1947 1309 1714 600 
Q 1481 -109 1013 -844 
L 513 -844 
Q 928 -128 1133 580 
Q 1338 1288 1338 2009 
Q 1338 2731 1133 3434 
Q 928 4138 513 4856 
z
" transform="scale(0.015625)"/>
      </defs>
      <use xlink:href="#DejaVuSans-5a"/>
      <use xlink:href="#DejaVuSans-65" x="68.505859"/>
      <use xlink:href="#DejaVuSans-69" x="130.029297"/>
      <use xlink:href="#DejaVuSans-74" x="157.8125"/>
      <use xlink:href="#DejaVuSans-73" x="197.021484"/>
      <use xlink:href="#DejaVuSans-63" x="249.121094"/>
      <use xlink:href="#DejaVuSans-68" x="304.101562"/>
      <use xlink:href="#DejaVuSans-72" x="367.480469"/>
      <use xlink:href="#DejaVuSans-69" x="408.59375"/>
      <use xlink:href="#DejaVuSans-74" x="436.376953"/>
      <use xlink:href="#DejaVuSans-74" x="475.585938"/>
      <use xlink:href="#DejaVuSans-65" x="514.794922"/>
      <use xlink:href="#DejaVuSans-20" x="576.318359"/>
      <use xlink:href="#DejaVuSans-28" x="608.105469"/>
      <use xlink:href="#DejaVuSans-69" x="647.119141"/>
      <use xlink:href="#DejaVuSans-6e" x="674.902344"/>
      <use xlink:href="#DejaVuSans-20" x="738.28125"/>
      <use xlink:href="#DejaVuSans-4d" x="770.068359"/>
      <use xlink:href="#DejaVuSans-69" x="856.347656"/>
      <use xlink:href="#DejaVuSans-6c" x="884.130859"/>
      <use xlink:href="#DejaVuSans-6c" x="911.914062"/>
      <use xlink:href="#DejaVuSans-69" x="939.697266"/>
      <use xlink:href="#DejaVuSans-6f" x="967.480469"/>
      <use xlink:href="#DejaVuSans-6e" x="1028.662109"/>
      <use xlink:href="#DejaVuSans-65" x="1092.041016"/>
      <use xlink:href="#DejaVuSans-6e" x="1153.564453"/>
      <use xlink:href="#DejaVuSans-29" x="1216.943359"/>
     </g>
    </g>
   </g>
   <g id="matplotlib.axis_2">
    <g id="ytick_1">
     <g id="line2d_8">
      <path d="M 74.88 281.857848 
L 447.84 281.857848 
" clip-path="url(#p13e0cf0b54)" style="fill: none; stroke: #ffffff; stroke-linecap: round"/>
     </g>
     <g id="text_9">
      <!-- 0 -->
      <g style="fill: #262626" transform="translate(58.38125 286.036989)scale(0.11 -0.11)">
       <use xlink:href="#DejaVuSans-30"/>
      </g>
     </g>
    </g>
    <g id="ytick_2">
     <g id="line2d_9">
      <path d="M 74.88 238.918586 
L 447.84 238.918586 
" clip-path="url(#p13e0cf0b54)" style="fill: none; stroke: #ffffff; stroke-linecap: round"/>
     </g>
     <g id="text_10">
      <!-- 10000 -->
      <g style="fill: #262626" transform="translate(30.38625 243.097727)scale(0.11 -0.11)">
       <use xlink:href="#DejaVuSans-31"/>
       <use xlink:href="#DejaVuSans-30" x="63.623047"/>
       <use xlink:href="#DejaVuSans-30" x="127.246094"/>
       <use xlink:href="#DejaVuSans-30" x="190.869141"/>
       <use xlink:href="#DejaVuSans-30" x="254.492188"/>
      </g>
     </g>
    </g>
    <g id="ytick_3">
     <g id="line2d_10">
      <path d="M 74.88 195.979324 
L 447.84 195.979324 
" clip-path="url(#p13e0cf0b54)" style="fill: none; stroke: #ffffff; stroke-linecap: round"/>
     </g>
     <g id="text_11">
      <!-- 20000 -->
      <g style="fill: #262626" transform="translate(30.38625 200.158465)scale(0.11 -0.11)">
       <use xlink:href="#DejaVuSans-32"/>
       <use xlink:href="#DejaVuSans-30" x="63.623047"/>
       <use xlink:href="#DejaVuSans-30" x="127.246094"/>
       <use xlink:href="#DejaVuSans-30" x="190.869141"/>
       <use xlink:href="#DejaVuSans-30" x="254.492188"/>
      </g>
     </g>
    </g>
    <g id="ytick_4">
     <g id="line2d_11">
      <path d="M 74.88 153.040063 
L 447.84 153.040063 
" clip-path="url(#p13e0cf0b54)" style="fill: none; stroke: #ffffff; stroke-linecap: round"/>
     </g>
     <g id="text_12">
      <!-- 30000 -->
      <g style="fill: #262626" transform="translate(30.38625 157.219203)scale(0.11 -0.11)">
       <use xlink:href="#DejaVuSans-33"/>
       <use xlink:href="#DejaVuSans-30" x="63.623047"/>
       <use xlink:href="#DejaVuSans-30" x="127.246094"/>
       <use xlink:href="#DejaVuSans-30" x="190.869141"/>
       <use xlink:href="#DejaVuSans-30" x="254.492188"/>
      </g>
     </g>
    </g>
    <g id="ytick_5">
     <g id="line2d_12">
      <path d="M 74.88 110.100801 
L 447.84 110.100801 
" clip-path="url(#p13e0cf0b54)" style="fill: none; stroke: #ffffff; stroke-linecap: round"/>
     </g>
     <g id="text_13">
      <!-- 40000 -->
      <g style="fill: #262626" transform="translate(30.38625 114.279941)scale(0.11 -0.11)">
       <defs>
        <path id="DejaVuSans-34" d="M 2419 4116 
L 825 1625 
L 2419 1625 
L 2419 4116 
z
M 2253 4666 
L 3047 4666 
L 3047 1625 
L 3713 1625 
L 3713 1100 
L 3047 1100 
L 3047 0 
L 2419 0 
L 2419 1100 
L 313 1100 
L 313 1709 
L 2253 4666 
z
" transform="scale(0.015625)"/>
       </defs>
       <use xlink:href="#DejaVuSans-34"/>
       <use xlink:href="#DejaVuSans-30" x="63.623047"/>
       <use xlink:href="#DejaVuSans-30" x="127.246094"/>
       <use xlink:href="#DejaVuSans-30" x="190.869141"/>
       <use xlink:href="#DejaVuSans-30" x="254.492188"/>
      </g>
     </g>
    </g>
    <g id="ytick_6">
     <g id="line2d_13">
      <path d="M 74.88 67.161539 
L 447.84 67.161539 
" clip-path="url(#p13e0cf0b54)" style="fill: none; stroke: #ffffff; stroke-linecap: round"/>
     </g>
     <g id="text_14">
      <!-- 50000 -->
      <g style="fill: #262626" transform="translate(30.38625 71.340679)scale(0.11 -0.11)">
       <use xlink:href="#DejaVuSans-35"/>
       <use xlink:href="#DejaVuSans-30" x="63.623047"/>
       <use xlink:href="#DejaVuSans-30" x="127.246094"/>
       <use xlink:href="#DejaVuSans-30" x="190.869141"/>
       <use xlink:href="#DejaVuSans-30" x="254.492188"/>
      </g>
     </g>
    </g>
    <g id="ytick_7">
     <g id="line2d_14">
      <path d="M 74.88 24.222277 
L 447.84 24.222277 
" clip-path="url(#p13e0cf0b54)" style="fill: none; stroke: #ffffff; stroke-linecap: round"/>
     </g>
     <g id="text_15">
      <!-- 60000 -->
      <g style="fill: #262626" transform="translate(30.38625 28.401418)scale(0.11 -0.11)">
       <defs>
        <path id="DejaVuSans-36" d="M 2113 2584 
Q 1688 2584 1439 2293 
Q 1191 2003 1191 1497 
Q 1191 994 1439 701 
Q 1688 409 2113 409 
Q 2538 409 2786 701 
Q 3034 994 3034 1497 
Q 3034 2003 2786 2293 
Q 2538 2584 2113 2584 
z
M 3366 4563 
L 3366 3988 
Q 3128 4100 2886 4159 
Q 2644 4219 2406 4219 
Q 1781 4219 1451 3797 
Q 1122 3375 1075 2522 
Q 1259 2794 1537 2939 
Q 1816 3084 2150 3084 
Q 2853 3084 3261 2657 
Q 3669 2231 3669 1497 
Q 3669 778 3244 343 
Q 2819 -91 2113 -91 
Q 1303 -91 875 529 
Q 447 1150 447 2328 
Q 447 3434 972 4092 
Q 1497 4750 2381 4750 
Q 2619 4750 2861 4703 
Q 3103 4656 3366 4563 
z
" transform="scale(0.015625)"/>
       </defs>
       <use xlink:href="#DejaVuSans-36"/>
       <use xlink:href="#DejaVuSans-30" x="63.623047"/>
       <use xlink:href="#DejaVuSans-30" x="127.246094"/>
       <use xlink:href="#DejaVuSans-30" x="190.869141"/>
       <use xlink:href="#DejaVuSans-30" x="254.492188"/>
      </g>
     </g>
    </g>
    <g id="text_16">
     <!-- Trainingszeit (in Minuten) -->
     <g style="fill: #262626" transform="translate(23.474688 242.379688)rotate(-90)scale(0.14 -0.14)">
      <defs>
       <path id="DejaVuSans-54" d="M -19 4666 
L 3928 4666 
L 3928 4134 
L 2272 4134 
L 2272 0 
L 1638 0 
L 1638 4134 
L -19 4134 
L -19 4666 
z
" transform="scale(0.015625)"/>
       <path id="DejaVuSans-61" d="M 2194 1759 
Q 1497 1759 1228 1600 
Q 959 1441 959 1056 
Q 959 750 1161 570 
Q 1363 391 1709 391 
Q 2188 391 2477 730 
Q 2766 1069 2766 1631 
L 2766 1759 
L 2194 1759 
z
M 3341 1997 
L 3341 0 
L 2766 0 
L 2766 531 
Q 2569 213 2275 61 
Q 1981 -91 1556 -91 
Q 1019 -91 701 211 
Q 384 513 384 1019 
Q 384 1609 779 1909 
Q 1175 2209 1959 2209 
L 2766 2209 
L 2766 2266 
Q 2766 2663 2505 2880 
Q 2244 3097 1772 3097 
Q 1472 3097 1187 3025 
Q 903 2953 641 2809 
L 641 3341 
Q 956 3463 1253 3523 
Q 1550 3584 1831 3584 
Q 2591 3584 2966 3190 
Q 3341 2797 3341 1997 
z
" transform="scale(0.015625)"/>
       <path id="DejaVuSans-67" d="M 2906 1791 
Q 2906 2416 2648 2759 
Q 2391 3103 1925 3103 
Q 1463 3103 1205 2759 
Q 947 2416 947 1791 
Q 947 1169 1205 825 
Q 1463 481 1925 481 
Q 2391 481 2648 825 
Q 2906 1169 2906 1791 
z
M 3481 434 
Q 3481 -459 3084 -895 
Q 2688 -1331 1869 -1331 
Q 1566 -1331 1297 -1286 
Q 1028 -1241 775 -1147 
L 775 -588 
Q 1028 -725 1275 -790 
Q 1522 -856 1778 -856 
Q 2344 -856 2625 -561 
Q 2906 -266 2906 331 
L 2906 616 
Q 2728 306 2450 153 
Q 2172 0 1784 0 
Q 1141 0 747 490 
Q 353 981 353 1791 
Q 353 2603 747 3093 
Q 1141 3584 1784 3584 
Q 2172 3584 2450 3431 
Q 2728 3278 2906 2969 
L 2906 3500 
L 3481 3500 
L 3481 434 
z
" transform="scale(0.015625)"/>
       <path id="DejaVuSans-7a" d="M 353 3500 
L 3084 3500 
L 3084 2975 
L 922 459 
L 3084 459 
L 3084 0 
L 275 0 
L 275 525 
L 2438 3041 
L 353 3041 
L 353 3500 
z
" transform="scale(0.015625)"/>
       <path id="DejaVuSans-75" d="M 544 1381 
L 544 3500 
L 1119 3500 
L 1119 1403 
Q 1119 906 1312 657 
Q 1506 409 1894 409 
Q 2359 409 2629 706 
Q 2900 1003 2900 1516 
L 2900 3500 
L 3475 3500 
L 3475 0 
L 2900 0 
L 2900 538 
Q 2691 219 2414 64 
Q 2138 -91 1772 -91 
Q 1169 -91 856 284 
Q 544 659 544 1381 
z
M 1991 3584 
L 1991 3584 
z
" transform="scale(0.015625)"/>
      </defs>
      <use xlink:href="#DejaVuSans-54"/>
      <use xlink:href="#DejaVuSans-72" x="46.333984"/>
      <use xlink:href="#DejaVuSans-61" x="87.447266"/>
      <use xlink:href="#DejaVuSans-69" x="148.726562"/>
      <use xlink:href="#DejaVuSans-6e" x="176.509766"/>
      <use xlink:href="#DejaVuSans-69" x="239.888672"/>
      <use xlink:href="#DejaVuSans-6e" x="267.671875"/>
      <use xlink:href="#DejaVuSans-67" x="331.050781"/>
      <use xlink:href="#DejaVuSans-73" x="394.527344"/>
      <use xlink:href="#DejaVuSans-7a" x="446.626953"/>
      <use xlink:href="#DejaVuSans-65" x="499.117188"/>
      <use xlink:href="#DejaVuSans-69" x="560.640625"/>
      <use xlink:href="#DejaVuSans-74" x="588.423828"/>
      <use xlink:href="#DejaVuSans-20" x="627.632812"/>
      <use xlink:href="#DejaVuSans-28" x="659.419922"/>
      <use xlink:href="#DejaVuSans-69" x="698.433594"/>
      <use xlink:href="#DejaVuSans-6e" x="726.216797"/>
      <use xlink:href="#DejaVuSans-20" x="789.595703"/>
      <use xlink:href="#DejaVuSans-4d" x="821.382812"/>
      <use xlink:href="#DejaVuSans-69" x="907.662109"/>
      <use xlink:href="#DejaVuSans-6e" x="935.445312"/>
      <use xlink:href="#DejaVuSans-75" x="998.824219"/>
      <use xlink:href="#DejaVuSans-74" x="1062.203125"/>
      <use xlink:href="#DejaVuSans-65" x="1101.412109"/>
      <use xlink:href="#DejaVuSans-6e" x="1162.935547"/>
      <use xlink:href="#DejaVuSans-29" x="1226.314453"/>
     </g>
    </g>
   </g>
   <g id="PolyCollection_1">
    <defs>
     <path id="m0b7ef8a692" d="M 91.832727 -63.744545 
L 91.832727 -63.744706 
L 94.681925 -63.747233 
L 97.531123 -63.749828 
L 100.380321 -63.752302 
L 103.229519 -63.773701 
L 106.078717 -63.794818 
L 108.927914 -63.816301 
L 111.777112 -63.837738 
L 114.62631 -63.859011 
L 117.475508 -63.880458 
L 120.324706 -63.90166 
L 123.173904 -63.92264 
L 126.023102 -63.943593 
L 128.872299 -63.964227 
L 131.721497 -63.984775 
L 134.570695 -64.005668 
L 137.419893 -64.026281 
L 140.269091 -64.046581 
L 143.118289 -64.067363 
L 145.967487 -64.087894 
L 148.816684 -64.108605 
L 151.665882 -64.129309 
L 154.51508 -64.150106 
L 157.364278 -64.171158 
L 160.213476 -64.191772 
L 163.062674 -64.212662 
L 165.911872 -64.23273 
L 168.76107 -64.253719 
L 171.610267 -64.274101 
L 174.459465 -64.2947 
L 177.308663 -64.315119 
L 180.157861 -64.336216 
L 183.007059 -64.35694 
L 185.856257 -64.378275 
L 188.705455 -64.399988 
L 191.554652 -64.421421 
L 194.40385 -64.44205 
L 197.253048 -64.462581 
L 200.102246 -64.48427 
L 202.951444 -64.504726 
L 205.800642 -64.524972 
L 208.64984 -64.545766 
L 211.499037 -64.566692 
L 214.348235 -64.586845 
L 217.197433 -64.606759 
L 220.046631 -64.626924 
L 222.895829 -64.647274 
L 225.745027 -64.667261 
L 228.594225 -64.687475 
L 231.443422 -64.707585 
L 234.29262 -64.728049 
L 237.141818 -64.748375 
L 239.991016 -64.768635 
L 242.840214 -64.788573 
L 245.689412 -64.808887 
L 248.53861 -64.82971 
L 251.387807 -64.850484 
L 254.237005 -64.871207 
L 257.086203 -64.891502 
L 259.935401 -64.912286 
L 262.784599 -64.932862 
L 265.633797 -64.953612 
L 268.482995 -64.974479 
L 271.332193 -64.995534 
L 274.18139 -65.016023 
L 277.030588 -65.03682 
L 279.879786 -65.0574 
L 282.728984 -65.077781 
L 285.578182 -65.09883 
L 288.42738 -65.11949 
L 291.276578 -65.140182 
L 294.125775 -65.161059 
L 296.974973 -65.181493 
L 299.824171 -65.201662 
L 302.673369 -65.22216 
L 305.522567 -65.242508 
L 308.371765 -65.262879 
L 311.220963 -65.283818 
L 314.07016 -65.304107 
L 316.919358 -65.324558 
L 319.768556 -65.344578 
L 322.617754 -65.365118 
L 325.466952 -65.385823 
L 328.31615 -65.406028 
L 331.165348 -65.426532 
L 334.014545 -65.447036 
L 336.863743 -65.467096 
L 339.712941 -65.48768 
L 342.562139 -65.508217 
L 345.411337 -65.528539 
L 348.260535 -65.549674 
L 351.109733 -65.570136 
L 353.95893 -65.590931 
L 356.808128 -65.611622 
L 359.657326 -65.63251 
L 362.506524 -65.653239 
L 365.355722 -65.674282 
L 368.20492 -65.694764 
L 371.054118 -65.714906 
L 373.903316 -65.735068 
L 376.752513 -65.756166 
L 379.601711 -65.776359 
L 382.450909 -65.797113 
L 385.300107 -65.817784 
L 388.149305 -65.838067 
L 390.998503 -65.857867 
L 393.847701 -65.878542 
L 396.696898 -65.899428 
L 399.546096 -65.919685 
L 402.395294 -65.939643 
L 405.244492 -65.960104 
L 408.09369 -65.981124 
L 410.942888 -66.001859 
L 413.792086 -66.022383 
L 416.641283 -66.042622 
L 419.490481 -66.062873 
L 422.339679 -66.08321 
L 425.188877 -66.104215 
L 428.038075 -66.124631 
L 430.887273 -66.14493 
L 430.887273 -66.10563 
L 430.887273 -66.10563 
L 428.038075 -66.085226 
L 425.188877 -66.065288 
L 422.339679 -66.044792 
L 419.490481 -66.025004 
L 416.641283 -66.00458 
L 413.792086 -65.984189 
L 410.942888 -65.96386 
L 408.09369 -65.944126 
L 405.244492 -65.923906 
L 402.395294 -65.903348 
L 399.546096 -65.883298 
L 396.696898 -65.863334 
L 393.847701 -65.843119 
L 390.998503 -65.822905 
L 388.149305 -65.802452 
L 385.300107 -65.782003 
L 382.450909 -65.76198 
L 379.601711 -65.741862 
L 376.752513 -65.721548 
L 373.903316 -65.701145 
L 371.054118 -65.680757 
L 368.20492 -65.660696 
L 365.355722 -65.640869 
L 362.506524 -65.620955 
L 359.657326 -65.600254 
L 356.808128 -65.58022 
L 353.95893 -65.560228 
L 351.109733 -65.540258 
L 348.260535 -65.519862 
L 345.411337 -65.49972 
L 342.562139 -65.479202 
L 339.712941 -65.459396 
L 336.863743 -65.438894 
L 334.014545 -65.418802 
L 331.165348 -65.398937 
L 328.31615 -65.379147 
L 325.466952 -65.359022 
L 322.617754 -65.338794 
L 319.768556 -65.318212 
L 316.919358 -65.297604 
L 314.07016 -65.277668 
L 311.220963 -65.257512 
L 308.371765 -65.237744 
L 305.522567 -65.21725 
L 302.673369 -65.197171 
L 299.824171 -65.176868 
L 296.974973 -65.15668 
L 294.125775 -65.136526 
L 291.276578 -65.11638 
L 288.42738 -65.095669 
L 285.578182 -65.075193 
L 282.728984 -65.055311 
L 279.879786 -65.035409 
L 277.030588 -65.015242 
L 274.18139 -64.995243 
L 271.332193 -64.97536 
L 268.482995 -64.955708 
L 265.633797 -64.935696 
L 262.784599 -64.915726 
L 259.935401 -64.8953 
L 257.086203 -64.875048 
L 254.237005 -64.855166 
L 251.387807 -64.83524 
L 248.53861 -64.814762 
L 245.689412 -64.794262 
L 242.840214 -64.773825 
L 239.991016 -64.752807 
L 237.141818 -64.732338 
L 234.29262 -64.711496 
L 231.443422 -64.690517 
L 228.594225 -64.6697 
L 225.745027 -64.649372 
L 222.895829 -64.629083 
L 220.046631 -64.608043 
L 217.197433 -64.586863 
L 214.348235 -64.56639 
L 211.499037 -64.546238 
L 208.64984 -64.526038 
L 205.800642 -64.505663 
L 202.951444 -64.484673 
L 200.102246 -64.464717 
L 197.253048 -64.444722 
L 194.40385 -64.424327 
L 191.554652 -64.403794 
L 188.705455 -64.383322 
L 185.856257 -64.362598 
L 183.007059 -64.341845 
L 180.157861 -64.321374 
L 177.308663 -64.301069 
L 174.459465 -64.28109 
L 171.610267 -64.260489 
L 168.76107 -64.240197 
L 165.911872 -64.220184 
L 163.062674 -64.200339 
L 160.213476 -64.1798 
L 157.364278 -64.159249 
L 154.51508 -64.138874 
L 151.665882 -64.118499 
L 148.816684 -64.098076 
L 145.967487 -64.077881 
L 143.118289 -64.057748 
L 140.269091 -64.036773 
L 137.419893 -64.016786 
L 134.570695 -63.996761 
L 131.721497 -63.975967 
L 128.872299 -63.955555 
L 126.023102 -63.935868 
L 123.173904 -63.915738 
L 120.324706 -63.895162 
L 117.475508 -63.874501 
L 114.62631 -63.854262 
L 111.777112 -63.833636 
L 108.927914 -63.812731 
L 106.078717 -63.792262 
L 103.229519 -63.771857 
L 100.380321 -63.751644 
L 97.531123 -63.7493 
L 94.681925 -63.746938 
L 91.832727 -63.744545 
z
" style="stroke: #ffffff; stroke-opacity: 0.5"/>
    </defs>
    <g clip-path="url(#p13e0cf0b54)">
     <use xlink:href="#m0b7ef8a692" x="0" y="345.6" style="fill: #4c72b0; fill-opacity: 0.5; stroke: #ffffff; stroke-opacity: 0.5"/>
    </g>
   </g>
   <g id="PolyCollection_2">
    <defs>
     <path id="mf2b4f07924" d="M 91.832727 -63.74465 
L 91.832727 -63.744803 
L 94.681925 -63.747381 
L 97.531123 -63.749939 
L 100.380321 -63.752419 
L 103.229519 -63.775398 
L 106.078717 -63.798877 
L 108.927914 -63.82167 
L 111.777112 -63.844379 
L 114.62631 -63.866949 
L 117.475508 -63.890115 
L 120.324706 -63.912928 
L 123.173904 -63.935409 
L 126.023102 -63.958152 
L 128.872299 -63.980902 
L 131.721497 -64.003092 
L 134.570695 -64.025859 
L 137.419893 -64.048313 
L 140.269091 -64.071125 
L 143.118289 -64.093479 
L 145.967487 -64.116126 
L 148.816684 -64.139232 
L 151.665882 -64.161554 
L 154.51508 -64.184376 
L 157.364278 -64.207456 
L 160.213476 -64.230032 
L 163.062674 -64.252608 
L 165.911872 -64.275351 
L 168.76107 -64.298155 
L 171.610267 -64.320768 
L 174.459465 -64.343067 
L 177.308663 -64.365713 
L 180.157861 -64.389085 
L 183.007059 -64.411576 
L 185.856257 -64.434219 
L 188.705455 -64.456519 
L 191.554652 -64.479347 
L 194.40385 -64.502561 
L 197.253048 -64.525134 
L 200.102246 -64.547662 
L 202.951444 -64.570185 
L 205.800642 -64.593112 
L 208.64984 -64.615902 
L 211.499037 -64.638513 
L 214.348235 -64.661156 
L 217.197433 -64.683594 
L 220.046631 -64.70626 
L 222.895829 -64.728915 
L 225.745027 -64.752014 
L 228.594225 -64.773814 
L 231.443422 -64.796765 
L 234.29262 -64.819375 
L 237.141818 -64.84154 
L 239.991016 -64.864953 
L 242.840214 -64.887591 
L 245.689412 -64.910544 
L 248.53861 -64.933116 
L 251.387807 -64.95562 
L 254.237005 -64.978307 
L 257.086203 -65.000869 
L 259.935401 -65.023221 
L 262.784599 -65.04565 
L 265.633797 -65.06822 
L 268.482995 -65.091554 
L 271.332193 -65.113907 
L 274.18139 -65.136149 
L 277.030588 -65.158512 
L 279.879786 -65.18082 
L 282.728984 -65.203495 
L 285.578182 -65.22566 
L 288.42738 -65.248474 
L 291.276578 -65.271036 
L 294.125775 -65.293116 
L 296.974973 -65.315259 
L 299.824171 -65.337963 
L 302.673369 -65.360517 
L 305.522567 -65.383535 
L 308.371765 -65.406452 
L 311.220963 -65.429394 
L 314.07016 -65.451842 
L 316.919358 -65.474025 
L 319.768556 -65.49707 
L 322.617754 -65.519278 
L 325.466952 -65.541583 
L 328.31615 -65.565011 
L 331.165348 -65.587628 
L 334.014545 -65.610306 
L 336.863743 -65.63287 
L 339.712941 -65.655026 
L 342.562139 -65.677079 
L 345.411337 -65.699367 
L 348.260535 -65.721629 
L 351.109733 -65.744586 
L 353.95893 -65.766852 
L 356.808128 -65.789049 
L 359.657326 -65.811705 
L 362.506524 -65.83395 
L 365.355722 -65.85581 
L 368.20492 -65.878519 
L 371.054118 -65.901148 
L 373.903316 -65.924236 
L 376.752513 -65.946614 
L 379.601711 -65.969607 
L 382.450909 -65.992158 
L 385.300107 -66.01446 
L 388.149305 -66.036967 
L 390.998503 -66.059583 
L 393.847701 -66.082476 
L 396.696898 -66.105072 
L 399.546096 -66.127307 
L 402.395294 -66.149553 
L 405.244492 -66.171667 
L 408.09369 -66.19448 
L 410.942888 -66.217441 
L 413.792086 -66.239685 
L 416.641283 -66.262455 
L 419.490481 -66.285792 
L 422.339679 -66.308013 
L 425.188877 -66.330735 
L 428.038075 -66.353271 
L 430.887273 -66.376615 
L 430.887273 -66.332246 
L 430.887273 -66.332246 
L 428.038075 -66.310252 
L 425.188877 -66.28828 
L 422.339679 -66.26606 
L 419.490481 -66.242367 
L 416.641283 -66.220045 
L 413.792086 -66.197383 
L 410.942888 -66.174957 
L 408.09369 -66.152707 
L 405.244492 -66.129449 
L 402.395294 -66.106785 
L 399.546096 -66.083584 
L 396.696898 -66.06152 
L 393.847701 -66.039742 
L 390.998503 -66.017253 
L 388.149305 -65.995075 
L 385.300107 -65.973165 
L 382.450909 -65.951283 
L 379.601711 -65.929408 
L 376.752513 -65.907518 
L 373.903316 -65.885452 
L 371.054118 -65.86331 
L 368.20492 -65.841371 
L 365.355722 -65.819387 
L 362.506524 -65.797342 
L 359.657326 -65.775501 
L 356.808128 -65.753393 
L 353.95893 -65.730741 
L 351.109733 -65.709213 
L 348.260535 -65.687365 
L 345.411337 -65.664782 
L 342.562139 -65.642664 
L 339.712941 -65.620674 
L 336.863743 -65.598258 
L 334.014545 -65.576366 
L 331.165348 -65.554783 
L 328.31615 -65.532666 
L 325.466952 -65.510215 
L 322.617754 -65.488219 
L 319.768556 -65.465916 
L 316.919358 -65.443968 
L 314.07016 -65.421418 
L 311.220963 -65.398961 
L 308.371765 -65.376238 
L 305.522567 -65.354253 
L 302.673369 -65.331795 
L 299.824171 -65.30921 
L 296.974973 -65.286595 
L 294.125775 -65.264146 
L 291.276578 -65.24217 
L 288.42738 -65.220297 
L 285.578182 -65.198123 
L 282.728984 -65.175638 
L 279.879786 -65.153546 
L 277.030588 -65.131312 
L 274.18139 -65.109384 
L 271.332193 -65.087255 
L 268.482995 -65.065574 
L 265.633797 -65.043097 
L 262.784599 -65.0207 
L 259.935401 -64.998802 
L 257.086203 -64.97642 
L 254.237005 -64.953527 
L 251.387807 -64.931029 
L 248.53861 -64.907643 
L 245.689412 -64.885369 
L 242.840214 -64.863681 
L 239.991016 -64.841661 
L 237.141818 -64.819413 
L 234.29262 -64.797337 
L 231.443422 -64.775588 
L 228.594225 -64.753605 
L 225.745027 -64.731084 
L 222.895829 -64.709133 
L 220.046631 -64.687119 
L 217.197433 -64.664488 
L 214.348235 -64.642471 
L 211.499037 -64.620245 
L 208.64984 -64.598107 
L 205.800642 -64.576404 
L 202.951444 -64.55424 
L 200.102246 -64.532149 
L 197.253048 -64.509557 
L 194.40385 -64.487187 
L 191.554652 -64.464864 
L 188.705455 -64.442909 
L 185.856257 -64.420482 
L 183.007059 -64.397669 
L 180.157861 -64.375502 
L 177.308663 -64.353032 
L 174.459465 -64.330704 
L 171.610267 -64.307882 
L 168.76107 -64.285896 
L 165.911872 -64.264206 
L 163.062674 -64.242254 
L 160.213476 -64.219799 
L 157.364278 -64.19756 
L 154.51508 -64.175495 
L 151.665882 -64.153326 
L 148.816684 -64.13132 
L 145.967487 -64.109024 
L 143.118289 -64.086498 
L 140.269091 -64.064545 
L 137.419893 -64.042399 
L 134.570695 -64.02011 
L 131.721497 -63.998006 
L 128.872299 -63.976209 
L 126.023102 -63.953231 
L 123.173904 -63.931613 
L 120.324706 -63.909397 
L 117.475508 -63.886542 
L 114.62631 -63.86472 
L 111.777112 -63.84224 
L 108.927914 -63.819792 
L 106.078717 -63.797958 
L 103.229519 -63.775134 
L 100.380321 -63.752066 
L 97.531123 -63.74962 
L 94.681925 -63.747136 
L 91.832727 -63.74465 
z
" style="stroke: #ffffff; stroke-opacity: 0.5"/>
    </defs>
    <g clip-path="url(#p13e0cf0b54)">
     <use xlink:href="#mf2b4f07924" x="0" y="345.6" style="fill: #dd8452; fill-opacity: 0.5; stroke: #ffffff; stroke-opacity: 0.5"/>
    </g>
   </g>
   <g id="PolyCollection_3">
    <defs>
     <path id="m86830e3eca" d="M 91.832727 -63.757372 
L 91.832727 -63.757778 
L 94.681925 -63.774079 
L 97.531123 -63.790766 
L 100.380321 -63.807158 
L 103.229519 -66.007623 
L 106.078717 -68.146609 
L 108.927914 -70.284475 
L 111.777112 -72.477059 
L 114.62631 -74.641258 
L 117.475508 -76.856787 
L 120.324706 -79.092426 
L 123.173904 -81.342554 
L 126.023102 -83.426838 
L 128.872299 -85.543184 
L 131.721497 -87.670364 
L 134.570695 -89.826719 
L 137.419893 -91.992461 
L 140.269091 -94.203589 
L 143.118289 -96.410686 
L 145.967487 -98.648488 
L 148.816684 -100.893588 
L 151.665882 -103.158624 
L 154.51508 -105.431089 
L 157.364278 -107.736125 
L 160.213476 -109.83045 
L 163.062674 -111.952089 
L 165.911872 -114.085498 
L 168.76107 -116.243795 
L 171.610267 -118.414954 
L 174.459465 -120.652706 
L 177.308663 -122.871808 
L 180.157861 -125.113917 
L 183.007059 -127.338697 
L 185.856257 -129.601736 
L 188.705455 -131.86613 
L 191.554652 -134.169523 
L 194.40385 -136.27312 
L 197.253048 -138.392253 
L 200.102246 -140.520518 
L 202.951444 -142.681346 
L 205.800642 -144.852989 
L 208.64984 -147.036009 
L 211.499037 -149.251216 
L 214.348235 -151.490586 
L 217.197433 -153.737496 
L 220.046631 -156.008294 
L 222.895829 -158.273833 
L 225.745027 -160.570727 
L 228.594225 -162.665966 
L 231.443422 -164.79911 
L 234.29262 -166.940775 
L 237.141818 -169.111014 
L 239.991016 -171.284358 
L 242.840214 -173.487109 
L 245.689412 -175.692726 
L 248.53861 -177.932929 
L 251.387807 -180.170295 
L 254.237005 -182.43402 
L 257.086203 -184.7018 
L 259.935401 -187.021474 
L 262.784599 -189.113324 
L 265.633797 -191.234768 
L 268.482995 -193.372598 
L 271.332193 -195.556195 
L 274.18139 -197.7497 
L 277.030588 -199.951989 
L 279.879786 -202.16424 
L 282.728984 -204.393747 
L 285.578182 -206.64569 
L 288.42738 -208.911901 
L 291.276578 -211.188827 
L 294.125775 -213.486189 
L 296.974973 -215.579228 
L 299.824171 -217.699175 
L 302.673369 -219.857496 
L 305.522567 -222.042307 
L 308.371765 -224.229521 
L 311.220963 -226.435985 
L 314.07016 -228.663054 
L 316.919358 -230.903837 
L 319.768556 -233.145189 
L 322.617754 -235.420051 
L 325.466952 -237.730799 
L 328.31615 -240.058623 
L 331.165348 -242.174413 
L 334.014545 -244.307745 
L 336.863743 -246.451195 
L 339.712941 -248.616081 
L 342.562139 -250.794389 
L 345.411337 -252.994518 
L 348.260535 -255.205202 
L 351.109733 -257.458075 
L 353.95893 -259.740638 
L 356.808128 -262.021583 
L 359.657326 -264.320302 
L 362.506524 -266.654463 
L 365.355722 -268.775973 
L 368.20492 -270.919064 
L 371.054118 -273.074154 
L 373.903316 -275.262197 
L 376.752513 -277.463783 
L 379.601711 -279.698836 
L 382.450909 -281.940384 
L 385.300107 -284.204469 
L 388.149305 -286.470262 
L 390.998503 -288.746031 
L 393.847701 -291.029577 
L 396.696898 -293.344984 
L 399.546096 -295.445897 
L 402.395294 -297.576453 
L 405.244492 -299.717053 
L 408.09369 -301.88394 
L 410.942888 -304.060636 
L 413.792086 -306.266479 
L 416.641283 -308.48301 
L 419.490481 -310.731969 
L 422.339679 -312.969922 
L 425.188877 -315.235221 
L 428.038075 -317.509257 
L 430.887273 -319.835455 
L 430.887273 -319.357387 
L 430.887273 -319.357387 
L 428.038075 -317.037232 
L 425.188877 -314.753445 
L 422.339679 -312.480431 
L 419.490481 -310.233185 
L 416.641283 -307.997723 
L 413.792086 -305.783044 
L 410.942888 -303.577517 
L 408.09369 -301.380963 
L 405.244492 -299.199629 
L 402.395294 -297.046254 
L 399.546096 -294.9173 
L 396.696898 -292.811827 
L 393.847701 -290.481484 
L 390.998503 -288.184442 
L 388.149305 -285.912147 
L 385.300107 -283.671755 
L 382.450909 -281.429186 
L 379.601711 -279.221671 
L 376.752513 -277.020508 
L 373.903316 -274.855562 
L 371.054118 -272.686717 
L 368.20492 -270.552378 
L 365.355722 -268.422207 
L 362.506524 -266.316217 
L 359.657326 -264.004548 
L 356.808128 -261.731362 
L 353.95893 -259.470464 
L 351.109733 -257.214285 
L 348.260535 -254.979532 
L 345.411337 -252.772988 
L 342.562139 -250.570569 
L 339.712941 -248.394476 
L 336.863743 -246.233787 
L 334.014545 -244.099143 
L 331.165348 -241.973788 
L 328.31615 -239.886665 
L 325.466952 -237.582783 
L 322.617754 -235.31249 
L 319.768556 -233.057658 
L 316.919358 -230.817719 
L 314.07016 -228.585811 
L 311.220963 -226.37556 
L 308.371765 -224.177954 
L 305.522567 -222.000616 
L 302.673369 -219.828954 
L 299.824171 -217.692275 
L 296.974973 -215.556985 
L 294.125775 -213.458982 
L 291.276578 -211.138144 
L 288.42738 -208.864064 
L 285.578182 -206.602914 
L 282.728984 -204.363062 
L 279.879786 -202.131752 
L 277.030588 -199.927543 
L 274.18139 -197.712238 
L 271.332193 -195.53722 
L 268.482995 -193.37055 
L 265.633797 -191.231538 
L 262.784599 -189.103622 
L 259.935401 -187.001821 
L 257.086203 -184.698991 
L 254.237005 -182.376591 
L 251.387807 -180.111533 
L 248.53861 -177.893735 
L 245.689412 -175.677428 
L 242.840214 -173.47577 
L 239.991016 -171.260008 
L 237.141818 -169.063365 
L 234.29262 -166.86975 
L 231.443422 -164.732619 
L 228.594225 -162.604744 
L 225.745027 -160.512093 
L 222.895829 -158.199805 
L 220.046631 -155.932161 
L 217.197433 -153.667358 
L 214.348235 -151.416775 
L 211.499037 -149.179599 
L 208.64984 -146.975994 
L 205.800642 -144.785801 
L 202.951444 -142.622452 
L 200.102246 -140.468551 
L 197.253048 -138.338374 
L 194.40385 -136.221457 
L 191.554652 -134.112562 
L 188.705455 -131.801536 
L 185.856257 -129.532551 
L 183.007059 -127.288697 
L 180.157861 -125.050912 
L 177.308663 -122.817681 
L 174.459465 -120.61668 
L 171.610267 -118.409753 
L 168.76107 -116.233364 
L 165.911872 -114.082527 
L 163.062674 -111.948086 
L 160.213476 -109.827205 
L 157.364278 -107.717625 
L 154.51508 -105.391451 
L 151.665882 -103.09277 
L 148.816684 -100.8325 
L 145.967487 -98.610379 
L 143.118289 -96.383759 
L 140.269091 -94.174902 
L 137.419893 -91.989111 
L 134.570695 -89.821329 
L 131.721497 -87.654515 
L 128.872299 -85.521726 
L 126.023102 -83.403316 
L 123.173904 -81.309729 
L 120.324706 -79.043312 
L 117.475508 -76.811558 
L 114.62631 -74.575937 
L 111.777112 -72.392987 
L 108.927914 -70.222352 
L 106.078717 -68.07462 
L 103.229519 -65.943767 
L 100.380321 -63.806985 
L 97.531123 -63.790519 
L 94.681925 -63.773748 
L 91.832727 -63.757372 
z
" style="stroke: #ffffff; stroke-opacity: 0.5"/>
    </defs>
    <g clip-path="url(#p13e0cf0b54)">
     <use xlink:href="#m86830e3eca" x="0" y="345.6" style="fill: #55a868; fill-opacity: 0.5; stroke: #ffffff; stroke-opacity: 0.5"/>
    </g>
   </g>
   <g id="line2d_15">
    <path d="M 91.832727 281.855386 
L 94.681925 281.852937 
L 97.531123 281.850497 
L 100.380321 281.848092 
L 103.229519 281.827241 
L 106.078717 281.806434 
L 108.927914 281.785672 
L 111.777112 281.764839 
L 114.62631 281.744123 
L 117.475508 281.723532 
L 120.324706 281.702803 
L 123.173904 281.682045 
L 126.023102 281.661386 
L 128.872299 281.640786 
L 131.721497 281.620072 
L 134.570695 281.599324 
L 137.419893 281.578589 
L 140.269091 281.557965 
L 143.118289 281.536865 
L 145.967487 281.516062 
L 148.816684 281.495463 
L 151.665882 281.474736 
L 154.51508 281.453958 
L 157.364278 281.433176 
L 160.213476 281.412463 
L 163.062674 281.391739 
L 165.911872 281.371502 
L 168.76107 281.351044 
L 171.610267 281.330407 
L 174.459465 281.309907 
L 177.308663 281.289292 
L 180.157861 281.268609 
L 183.007059 281.247774 
L 185.856257 281.227203 
L 188.705455 281.20648 
L 191.554652 281.185908 
L 194.40385 281.165251 
L 197.253048 281.144834 
L 200.102246 281.124192 
L 202.951444 281.103965 
L 205.800642 281.083401 
L 208.64984 281.06291 
L 211.499037 281.042498 
L 214.348235 281.022346 
L 217.197433 281.002187 
L 220.046631 280.981814 
L 222.895829 280.961345 
L 225.745027 280.941042 
L 228.594225 280.920808 
L 231.443422 280.900316 
L 234.29262 280.879863 
L 237.141818 280.859284 
L 239.991016 280.838942 
L 242.840214 280.818473 
L 245.689412 280.798219 
L 248.53861 280.77765 
L 251.387807 280.757237 
L 254.237005 280.7368 
L 257.086203 280.716571 
L 259.935401 280.696322 
L 262.784599 280.675897 
L 265.633797 280.655601 
L 268.482995 280.635348 
L 271.332193 280.614989 
L 274.18139 280.594817 
L 277.030588 280.574792 
L 279.879786 280.554581 
L 282.728984 280.534311 
L 285.578182 280.513918 
L 288.42738 280.493521 
L 291.276578 280.472897 
L 294.125775 280.452613 
L 296.974973 280.4322 
L 299.824171 280.411918 
L 302.673369 280.391528 
L 305.522567 280.371193 
L 308.371765 280.350965 
L 311.220963 280.330781 
L 314.07016 280.310755 
L 316.919358 280.290591 
L 319.768556 280.270312 
L 322.617754 280.249882 
L 325.466952 280.229546 
L 328.31615 280.209269 
L 331.165348 280.189008 
L 334.014545 280.168843 
L 336.863743 280.148603 
L 339.712941 280.128036 
L 342.562139 280.107947 
L 345.411337 280.08757 
L 348.260535 280.066985 
L 351.109733 280.046675 
L 353.95893 280.026422 
L 356.808128 280.006015 
L 359.657326 279.985657 
L 362.506524 279.964726 
L 365.355722 279.944246 
L 368.20492 279.92387 
L 371.054118 279.90359 
L 373.903316 279.88327 
L 376.752513 279.862719 
L 379.601711 279.842502 
L 382.450909 279.822028 
L 385.300107 279.801536 
L 388.149305 279.781204 
L 390.998503 279.761006 
L 393.847701 279.740456 
L 396.696898 279.720191 
L 399.546096 279.699997 
L 402.395294 279.679858 
L 405.244492 279.659548 
L 408.09369 279.639199 
L 410.942888 279.618749 
L 413.792086 279.598368 
L 416.641283 279.578075 
L 419.490481 279.557708 
L 422.339679 279.537535 
L 425.188877 279.517037 
L 428.038075 279.496721 
L 430.887273 279.476356 
" clip-path="url(#p13e0cf0b54)" style="fill: none; stroke: #4c72b0; stroke-width: 3; stroke-linecap: round"/>
   </g>
   <g id="line2d_16">
    <path d="M 91.832727 281.855302 
L 94.681925 281.852778 
L 97.531123 281.850269 
L 100.380321 281.847778 
L 103.229519 281.824708 
L 106.078717 281.801687 
L 108.927914 281.779114 
L 111.777112 281.756629 
L 114.62631 281.734024 
L 117.475508 281.711441 
L 120.324706 281.688694 
L 123.173904 281.666272 
L 126.023102 281.644044 
L 128.872299 281.621321 
L 131.721497 281.599096 
L 134.570695 281.576542 
L 137.419893 281.554242 
L 140.269091 281.531762 
L 143.118289 281.509353 
L 145.967487 281.486874 
L 148.816684 281.464305 
L 151.665882 281.441866 
L 154.51508 281.419539 
L 157.364278 281.397262 
L 160.213476 281.37495 
L 163.062674 281.352486 
L 165.911872 281.33014 
L 168.76107 281.307866 
L 171.610267 281.285632 
L 174.459465 281.263221 
L 177.308663 281.240663 
L 180.157861 281.218003 
L 183.007059 281.195514 
L 185.856257 281.172874 
L 188.705455 281.15043 
L 191.554652 281.128024 
L 194.40385 281.105399 
L 197.253048 281.082764 
L 200.102246 281.060326 
L 202.951444 281.037878 
L 205.800642 281.015499 
L 208.64984 280.992961 
L 211.499037 280.970604 
L 214.348235 280.948053 
L 217.197433 280.925645 
L 220.046631 280.903238 
L 222.895829 280.880759 
L 225.745027 280.858345 
L 228.594225 280.83605 
L 231.443422 280.813467 
L 234.29262 280.791213 
L 237.141818 280.768818 
L 239.991016 280.746284 
L 242.840214 280.72382 
L 245.689412 280.70142 
L 248.53861 280.679034 
L 251.387807 280.656448 
L 254.237005 280.633834 
L 257.086203 280.611391 
L 259.935401 280.589008 
L 262.784599 280.566708 
L 265.633797 280.544276 
L 268.482995 280.521404 
L 271.332193 280.499235 
L 274.18139 280.476608 
L 277.030588 280.454203 
L 279.879786 280.431699 
L 282.728984 280.409111 
L 285.578182 280.386699 
L 288.42738 280.364031 
L 291.276578 280.341727 
L 294.125775 280.319481 
L 296.974973 280.297174 
L 299.824171 280.274632 
L 302.673369 280.252139 
L 305.522567 280.229624 
L 308.371765 280.207087 
L 311.220963 280.184473 
L 314.07016 280.161883 
L 316.919358 280.139568 
L 319.768556 280.11722 
L 322.617754 280.094873 
L 325.466952 280.072576 
L 328.31615 280.049876 
L 331.165348 280.027457 
L 334.014545 280.004805 
L 336.863743 279.982401 
L 339.712941 279.959904 
L 342.562139 279.937522 
L 345.411337 279.915219 
L 348.260535 279.892385 
L 351.109733 279.870043 
L 353.95893 279.847812 
L 356.808128 279.825169 
L 359.657326 279.802851 
L 362.506524 279.780528 
L 365.355722 279.758287 
L 368.20492 279.736051 
L 371.054118 279.713728 
L 373.903316 279.691152 
L 376.752513 279.668882 
L 379.601711 279.646438 
L 382.450909 279.624053 
L 385.300107 279.601828 
L 388.149305 279.579565 
L 390.998503 279.557125 
L 393.847701 279.534545 
L 396.696898 279.512365 
L 399.546096 279.490135 
L 402.395294 279.467342 
L 405.244492 279.445008 
L 408.09369 279.422332 
L 410.942888 279.400016 
L 413.792086 279.377862 
L 416.641283 279.355362 
L 419.490481 279.332755 
L 422.339679 279.310166 
L 425.188877 279.28753 
L 428.038075 279.265041 
L 430.887273 279.242299 
" clip-path="url(#p13e0cf0b54)" style="fill: none; stroke: #dd8452; stroke-width: 3; stroke-linecap: round"/>
   </g>
   <g id="line2d_17">
    <path d="M 91.832727 281.842425 
L 94.681925 281.826087 
L 97.531123 281.809358 
L 100.380321 281.792929 
L 103.229519 279.624305 
L 106.078717 277.489386 
L 108.927914 275.346587 
L 111.777112 273.164977 
L 114.62631 270.991402 
L 117.475508 268.765827 
L 120.324706 266.532131 
L 123.173904 264.273859 
L 126.023102 262.184923 
L 128.872299 260.067545 
L 131.721497 257.93756 
L 134.570695 255.775976 
L 137.419893 253.609214 
L 140.269091 251.410754 
L 143.118289 249.202777 
L 145.967487 246.970566 
L 148.816684 244.736956 
L 151.665882 242.474303 
L 154.51508 240.18873 
L 157.364278 237.873125 
L 160.213476 235.771172 
L 163.062674 233.649913 
L 165.911872 231.515987 
L 168.76107 229.36142 
L 171.610267 227.187647 
L 174.459465 224.965307 
L 177.308663 222.755255 
L 180.157861 220.517586 
L 183.007059 218.286303 
L 185.856257 216.032857 
L 188.705455 213.766167 
L 191.554652 211.458957 
L 194.40385 209.352711 
L 197.253048 207.234686 
L 200.102246 205.105466 
L 202.951444 202.948101 
L 205.800642 200.780605 
L 208.64984 198.593999 
L 211.499037 196.384593 
L 214.348235 194.146319 
L 217.197433 191.897573 
L 220.046631 189.629772 
L 222.895829 187.363181 
L 225.745027 185.05859 
L 228.594225 182.964645 
L 231.443422 180.834136 
L 234.29262 178.694737 
L 237.141818 176.51281 
L 239.991016 174.327817 
L 242.840214 172.11856 
L 245.689412 169.914923 
L 248.53861 167.686668 
L 251.387807 165.459086 
L 254.237005 163.194694 
L 257.086203 160.899605 
L 259.935401 158.588352 
L 262.784599 156.491527 
L 265.633797 154.366847 
L 268.482995 152.228426 
L 271.332193 150.053292 
L 274.18139 147.869031 
L 277.030588 145.660234 
L 279.879786 143.452004 
L 282.728984 141.221595 
L 285.578182 138.975698 
L 288.42738 136.712017 
L 291.276578 134.436514 
L 294.125775 132.127414 
L 296.974973 130.031894 
L 299.824171 127.904275 
L 302.673369 125.756775 
L 305.522567 123.578538 
L 308.371765 121.396263 
L 311.220963 119.194227 
L 314.07016 116.975567 
L 316.919358 114.739222 
L 319.768556 112.498577 
L 322.617754 110.233729 
L 325.466952 107.943209 
L 328.31615 105.627356 
L 331.165348 103.5259 
L 334.014545 101.396556 
L 336.863743 99.257509 
L 339.712941 97.094721 
L 342.562139 94.917521 
L 345.411337 92.716247 
L 348.260535 90.507633 
L 351.109733 88.26382 
L 353.95893 85.994449 
L 356.808128 83.723528 
L 359.657326 81.437575 
L 362.506524 79.11466 
L 365.355722 77.00091 
L 368.20492 74.864279 
L 371.054118 72.719564 
L 373.903316 70.54112 
L 376.752513 68.357854 
L 379.601711 66.139746 
L 382.450909 63.915215 
L 385.300107 61.661888 
L 388.149305 59.408795 
L 390.998503 57.134763 
L 393.847701 54.844469 
L 396.696898 52.521595 
L 399.546096 50.418401 
L 402.395294 48.288646 
L 405.244492 46.141659 
L 408.09369 43.967548 
L 410.942888 41.780923 
L 413.792086 39.575239 
L 416.641283 37.359634 
L 419.490481 35.117423 
L 422.339679 32.874824 
L 425.188877 30.605667 
L 428.038075 28.326755 
L 430.887273 26.003579 
" clip-path="url(#p13e0cf0b54)" style="fill: none; stroke: #55a868; stroke-width: 3; stroke-linecap: round"/>
   </g>
   <g id="patch_3">
    <path d="M 74.88 294.66 
L 74.88 12.96 
" style="fill: none; stroke: #ffffff; stroke-width: 1.25; stroke-linejoin: miter; stroke-linecap: square"/>
   </g>
   <g id="patch_4">
    <path d="M 447.84 294.66 
L 447.84 12.96 
" style="fill: none; stroke: #ffffff; stroke-width: 1.25; stroke-linejoin: miter; stroke-linecap: square"/>
   </g>
   <g id="patch_5">
    <path d="M 74.88 294.66 
L 447.84 294.66 
" style="fill: none; stroke: #ffffff; stroke-width: 1.25; stroke-linejoin: miter; stroke-linecap: square"/>
   </g>
   <g id="patch_6">
    <path d="M 74.88 12.96 
L 447.84 12.96 
" style="fill: none; stroke: #ffffff; stroke-width: 1.25; stroke-linejoin: miter; stroke-linecap: square"/>
   </g>
   <g id="legend_1">
    <g id="patch_7">
     <path d="M 82.58 70.197812 
L 237.406719 70.197812 
Q 239.606719 70.197812 239.606719 67.997813 
L 239.606719 20.66 
Q 239.606719 18.46 237.406719 18.46 
L 82.58 18.46 
Q 80.38 18.46 80.38 20.66 
L 80.38 67.997813 
Q 80.38 70.197812 82.58 70.197812 
z
" style="fill: #eaeaf2; opacity: 0.8; stroke: #cccccc; stroke-linejoin: miter"/>
    </g>
    <g id="line2d_18">
     <path d="M 84.78 27.368281 
L 95.78 27.368281 
L 106.78 27.368281 
" style="fill: none; stroke: #4c72b0; stroke-width: 3; stroke-linecap: round"/>
    </g>
    <g id="text_17">
     <!-- SAC-DELAY-100 -->
     <g style="fill: #262626" transform="translate(115.58 31.218281)scale(0.11 -0.11)">
      <defs>
       <path id="DejaVuSans-53" d="M 3425 4513 
L 3425 3897 
Q 3066 4069 2747 4153 
Q 2428 4238 2131 4238 
Q 1616 4238 1336 4038 
Q 1056 3838 1056 3469 
Q 1056 3159 1242 3001 
Q 1428 2844 1947 2747 
L 2328 2669 
Q 3034 2534 3370 2195 
Q 3706 1856 3706 1288 
Q 3706 609 3251 259 
Q 2797 -91 1919 -91 
Q 1588 -91 1214 -16 
Q 841 59 441 206 
L 441 856 
Q 825 641 1194 531 
Q 1563 422 1919 422 
Q 2459 422 2753 634 
Q 3047 847 3047 1241 
Q 3047 1584 2836 1778 
Q 2625 1972 2144 2069 
L 1759 2144 
Q 1053 2284 737 2584 
Q 422 2884 422 3419 
Q 422 4038 858 4394 
Q 1294 4750 2059 4750 
Q 2388 4750 2728 4690 
Q 3069 4631 3425 4513 
z
" transform="scale(0.015625)"/>
       <path id="DejaVuSans-41" d="M 2188 4044 
L 1331 1722 
L 3047 1722 
L 2188 4044 
z
M 1831 4666 
L 2547 4666 
L 4325 0 
L 3669 0 
L 3244 1197 
L 1141 1197 
L 716 0 
L 50 0 
L 1831 4666 
z
" transform="scale(0.015625)"/>
       <path id="DejaVuSans-43" d="M 4122 4306 
L 4122 3641 
Q 3803 3938 3442 4084 
Q 3081 4231 2675 4231 
Q 1875 4231 1450 3742 
Q 1025 3253 1025 2328 
Q 1025 1406 1450 917 
Q 1875 428 2675 428 
Q 3081 428 3442 575 
Q 3803 722 4122 1019 
L 4122 359 
Q 3791 134 3420 21 
Q 3050 -91 2638 -91 
Q 1578 -91 968 557 
Q 359 1206 359 2328 
Q 359 3453 968 4101 
Q 1578 4750 2638 4750 
Q 3056 4750 3426 4639 
Q 3797 4528 4122 4306 
z
" transform="scale(0.015625)"/>
       <path id="DejaVuSans-2d" d="M 313 2009 
L 1997 2009 
L 1997 1497 
L 313 1497 
L 313 2009 
z
" transform="scale(0.015625)"/>
       <path id="DejaVuSans-44" d="M 1259 4147 
L 1259 519 
L 2022 519 
Q 2988 519 3436 956 
Q 3884 1394 3884 2338 
Q 3884 3275 3436 3711 
Q 2988 4147 2022 4147 
L 1259 4147 
z
M 628 4666 
L 1925 4666 
Q 3281 4666 3915 4102 
Q 4550 3538 4550 2338 
Q 4550 1131 3912 565 
Q 3275 0 1925 0 
L 628 0 
L 628 4666 
z
" transform="scale(0.015625)"/>
       <path id="DejaVuSans-45" d="M 628 4666 
L 3578 4666 
L 3578 4134 
L 1259 4134 
L 1259 2753 
L 3481 2753 
L 3481 2222 
L 1259 2222 
L 1259 531 
L 3634 531 
L 3634 0 
L 628 0 
L 628 4666 
z
" transform="scale(0.015625)"/>
       <path id="DejaVuSans-4c" d="M 628 4666 
L 1259 4666 
L 1259 531 
L 3531 531 
L 3531 0 
L 628 0 
L 628 4666 
z
" transform="scale(0.015625)"/>
       <path id="DejaVuSans-59" d="M -13 4666 
L 666 4666 
L 1959 2747 
L 3244 4666 
L 3922 4666 
L 2272 2222 
L 2272 0 
L 1638 0 
L 1638 2222 
L -13 4666 
z
" transform="scale(0.015625)"/>
      </defs>
      <use xlink:href="#DejaVuSans-53"/>
      <use xlink:href="#DejaVuSans-41" x="65.351562"/>
      <use xlink:href="#DejaVuSans-43" x="132.009766"/>
      <use xlink:href="#DejaVuSans-2d" x="201.833984"/>
      <use xlink:href="#DejaVuSans-44" x="237.917969"/>
      <use xlink:href="#DejaVuSans-45" x="314.919922"/>
      <use xlink:href="#DejaVuSans-4c" x="378.103516"/>
      <use xlink:href="#DejaVuSans-41" x="436.066406"/>
      <use xlink:href="#DejaVuSans-59" x="496.724609"/>
      <use xlink:href="#DejaVuSans-2d" x="545.933594"/>
      <use xlink:href="#DejaVuSans-31" x="582.017578"/>
      <use xlink:href="#DejaVuSans-30" x="645.640625"/>
      <use xlink:href="#DejaVuSans-30" x="709.263672"/>
     </g>
    </g>
    <g id="line2d_19">
     <path d="M 84.78 43.514219 
L 95.78 43.514219 
L 106.78 43.514219 
" style="fill: none; stroke: #dd8452; stroke-width: 3; stroke-linecap: round"/>
    </g>
    <g id="text_18">
     <!-- SAC-IS-DELAY-100 -->
     <g style="fill: #262626" transform="translate(115.58 47.364219)scale(0.11 -0.11)">
      <defs>
       <path id="DejaVuSans-49" d="M 628 4666 
L 1259 4666 
L 1259 0 
L 628 0 
L 628 4666 
z
" transform="scale(0.015625)"/>
      </defs>
      <use xlink:href="#DejaVuSans-53"/>
      <use xlink:href="#DejaVuSans-41" x="65.351562"/>
      <use xlink:href="#DejaVuSans-43" x="132.009766"/>
      <use xlink:href="#DejaVuSans-2d" x="201.833984"/>
      <use xlink:href="#DejaVuSans-49" x="237.917969"/>
      <use xlink:href="#DejaVuSans-53" x="267.410156"/>
      <use xlink:href="#DejaVuSans-2d" x="330.886719"/>
      <use xlink:href="#DejaVuSans-44" x="366.970703"/>
      <use xlink:href="#DejaVuSans-45" x="443.972656"/>
      <use xlink:href="#DejaVuSans-4c" x="507.15625"/>
      <use xlink:href="#DejaVuSans-41" x="565.119141"/>
      <use xlink:href="#DejaVuSans-59" x="625.777344"/>
      <use xlink:href="#DejaVuSans-2d" x="674.986328"/>
      <use xlink:href="#DejaVuSans-31" x="711.070312"/>
      <use xlink:href="#DejaVuSans-30" x="774.693359"/>
      <use xlink:href="#DejaVuSans-30" x="838.316406"/>
     </g>
    </g>
    <g id="line2d_20">
     <path d="M 84.78 59.660156 
L 95.78 59.660156 
L 106.78 59.660156 
" style="fill: none; stroke: #55a868; stroke-width: 3; stroke-linecap: round"/>
    </g>
    <g id="text_19">
     <!-- DCAC-DELAY-100-16C -->
     <g style="fill: #262626" transform="translate(115.58 63.510156)scale(0.11 -0.11)">
      <use xlink:href="#DejaVuSans-44"/>
      <use xlink:href="#DejaVuSans-43" x="77.001953"/>
      <use xlink:href="#DejaVuSans-41" x="146.826172"/>
      <use xlink:href="#DejaVuSans-43" x="213.484375"/>
      <use xlink:href="#DejaVuSans-2d" x="283.308594"/>
      <use xlink:href="#DejaVuSans-44" x="319.392578"/>
      <use xlink:href="#DejaVuSans-45" x="396.394531"/>
      <use xlink:href="#DejaVuSans-4c" x="459.578125"/>
      <use xlink:href="#DejaVuSans-41" x="517.541016"/>
      <use xlink:href="#DejaVuSans-59" x="578.199219"/>
      <use xlink:href="#DejaVuSans-2d" x="627.408203"/>
      <use xlink:href="#DejaVuSans-31" x="663.492188"/>
      <use xlink:href="#DejaVuSans-30" x="727.115234"/>
      <use xlink:href="#DejaVuSans-30" x="790.738281"/>
      <use xlink:href="#DejaVuSans-2d" x="854.361328"/>
      <use xlink:href="#DejaVuSans-31" x="890.445312"/>
      <use xlink:href="#DejaVuSans-36" x="954.068359"/>
      <use xlink:href="#DejaVuSans-43" x="1017.691406"/>
     </g>
    </g>
   </g>
  </g>
 </g>
 <defs>
  <clipPath id="p13e0cf0b54">
   <rect x="74.88" y="12.96" width="372.96" height="281.7"/>
  </clipPath>
 </defs>
</svg>
