<?xml version="1.0" encoding="utf-8" standalone="no"?>
<!DOCTYPE svg PUBLIC "-//W3C//DTD SVG 1.1//EN"
  "http://www.w3.org/Graphics/SVG/1.1/DTD/svg11.dtd">
<svg xmlns:xlink="http://www.w3.org/1999/xlink" width="460.8pt" height="345.6pt" viewBox="0 0 460.8 345.6" xmlns="http://www.w3.org/2000/svg" version="1.1">
 <metadata>
  <rdf:RDF xmlns:dc="http://purl.org/dc/elements/1.1/" xmlns:cc="http://creativecommons.org/ns#" xmlns:rdf="http://www.w3.org/1999/02/22-rdf-syntax-ns#">
   <cc:Work>
    <dc:type rdf:resource="http://purl.org/dc/dcmitype/StillImage"/>
    <dc:date>2022-09-12T15:21:50.036628</dc:date>
    <dc:format>image/svg+xml</dc:format>
    <dc:creator>
     <cc:Agent>
      <dc:title>Matplotlib v3.5.3, https://matplotlib.org/</dc:title>
     </cc:Agent>
    </dc:creator>
   </cc:Work>
  </rdf:RDF>
 </metadata>
 <defs>
  <style type="text/css">*{stroke-linejoin: round; stroke-linecap: butt}</style>
 </defs>
 <g id="figure_1">
  <g id="patch_1">
   <path d="M 0 345.6 
L 460.8 345.6 
L 460.8 0 
L 0 0 
z
" style="fill: #ffffff"/>
  </g>
  <g id="axes_1">
   <g id="patch_2">
    <path d="M 67.86 294.66 
L 447.84 294.66 
L 447.84 12.96 
L 67.86 12.96 
z
" style="fill: #eaeaf2"/>
   </g>
   <g id="matplotlib.axis_1">
    <g id="xtick_1">
     <g id="line2d_1">
      <path d="M 82.228992 294.66 
L 82.228992 12.96 
" clip-path="url(#p0b3fa757b7)" style="fill: none; stroke: #ffffff; stroke-linecap: round"/>
     </g>
     <g id="text_1">
      <!-- 0.00 -->
      <g style="fill: #262626" transform="translate(69.982898 312.518281)scale(0.11 -0.11)">
       <defs>
        <path id="DejaVuSans-30" d="M 2034 4250 
Q 1547 4250 1301 3770 
Q 1056 3291 1056 2328 
Q 1056 1369 1301 889 
Q 1547 409 2034 409 
Q 2525 409 2770 889 
Q 3016 1369 3016 2328 
Q 3016 3291 2770 3770 
Q 2525 4250 2034 4250 
z
M 2034 4750 
Q 2819 4750 3233 4129 
Q 3647 3509 3647 2328 
Q 3647 1150 3233 529 
Q 2819 -91 2034 -91 
Q 1250 -91 836 529 
Q 422 1150 422 2328 
Q 422 3509 836 4129 
Q 1250 4750 2034 4750 
z
" transform="scale(0.015625)"/>
        <path id="DejaVuSans-2e" d="M 684 794 
L 1344 794 
L 1344 0 
L 684 0 
L 684 794 
z
" transform="scale(0.015625)"/>
       </defs>
       <use xlink:href="#DejaVuSans-30"/>
       <use xlink:href="#DejaVuSans-2e" x="63.623047"/>
       <use xlink:href="#DejaVuSans-30" x="95.410156"/>
       <use xlink:href="#DejaVuSans-30" x="159.033203"/>
      </g>
     </g>
    </g>
    <g id="xtick_2">
     <g id="line2d_2">
      <path d="M 140.285523 294.66 
L 140.285523 12.96 
" clip-path="url(#p0b3fa757b7)" style="fill: none; stroke: #ffffff; stroke-linecap: round"/>
     </g>
     <g id="text_2">
      <!-- 0.05 -->
      <g style="fill: #262626" transform="translate(128.03943 312.518281)scale(0.11 -0.11)">
       <defs>
        <path id="DejaVuSans-35" d="M 691 4666 
L 3169 4666 
L 3169 4134 
L 1269 4134 
L 1269 2991 
Q 1406 3038 1543 3061 
Q 1681 3084 1819 3084 
Q 2600 3084 3056 2656 
Q 3513 2228 3513 1497 
Q 3513 744 3044 326 
Q 2575 -91 1722 -91 
Q 1428 -91 1123 -41 
Q 819 9 494 109 
L 494 744 
Q 775 591 1075 516 
Q 1375 441 1709 441 
Q 2250 441 2565 725 
Q 2881 1009 2881 1497 
Q 2881 1984 2565 2268 
Q 2250 2553 1709 2553 
Q 1456 2553 1204 2497 
Q 953 2441 691 2322 
L 691 4666 
z
" transform="scale(0.015625)"/>
       </defs>
       <use xlink:href="#DejaVuSans-30"/>
       <use xlink:href="#DejaVuSans-2e" x="63.623047"/>
       <use xlink:href="#DejaVuSans-30" x="95.410156"/>
       <use xlink:href="#DejaVuSans-35" x="159.033203"/>
      </g>
     </g>
    </g>
    <g id="xtick_3">
     <g id="line2d_3">
      <path d="M 198.342055 294.66 
L 198.342055 12.96 
" clip-path="url(#p0b3fa757b7)" style="fill: none; stroke: #ffffff; stroke-linecap: round"/>
     </g>
     <g id="text_3">
      <!-- 0.10 -->
      <g style="fill: #262626" transform="translate(186.095961 312.518281)scale(0.11 -0.11)">
       <defs>
        <path id="DejaVuSans-31" d="M 794 531 
L 1825 531 
L 1825 4091 
L 703 3866 
L 703 4441 
L 1819 4666 
L 2450 4666 
L 2450 531 
L 3481 531 
L 3481 0 
L 794 0 
L 794 531 
z
" transform="scale(0.015625)"/>
       </defs>
       <use xlink:href="#DejaVuSans-30"/>
       <use xlink:href="#DejaVuSans-2e" x="63.623047"/>
       <use xlink:href="#DejaVuSans-31" x="95.410156"/>
       <use xlink:href="#DejaVuSans-30" x="159.033203"/>
      </g>
     </g>
    </g>
    <g id="xtick_4">
     <g id="line2d_4">
      <path d="M 256.398587 294.66 
L 256.398587 12.96 
" clip-path="url(#p0b3fa757b7)" style="fill: none; stroke: #ffffff; stroke-linecap: round"/>
     </g>
     <g id="text_4">
      <!-- 0.15 -->
      <g style="fill: #262626" transform="translate(244.152493 312.518281)scale(0.11 -0.11)">
       <use xlink:href="#DejaVuSans-30"/>
       <use xlink:href="#DejaVuSans-2e" x="63.623047"/>
       <use xlink:href="#DejaVuSans-31" x="95.410156"/>
       <use xlink:href="#DejaVuSans-35" x="159.033203"/>
      </g>
     </g>
    </g>
    <g id="xtick_5">
     <g id="line2d_5">
      <path d="M 314.455118 294.66 
L 314.455118 12.96 
" clip-path="url(#p0b3fa757b7)" style="fill: none; stroke: #ffffff; stroke-linecap: round"/>
     </g>
     <g id="text_5">
      <!-- 0.20 -->
      <g style="fill: #262626" transform="translate(302.209025 312.518281)scale(0.11 -0.11)">
       <defs>
        <path id="DejaVuSans-32" d="M 1228 531 
L 3431 531 
L 3431 0 
L 469 0 
L 469 531 
Q 828 903 1448 1529 
Q 2069 2156 2228 2338 
Q 2531 2678 2651 2914 
Q 2772 3150 2772 3378 
Q 2772 3750 2511 3984 
Q 2250 4219 1831 4219 
Q 1534 4219 1204 4116 
Q 875 4013 500 3803 
L 500 4441 
Q 881 4594 1212 4672 
Q 1544 4750 1819 4750 
Q 2544 4750 2975 4387 
Q 3406 4025 3406 3419 
Q 3406 3131 3298 2873 
Q 3191 2616 2906 2266 
Q 2828 2175 2409 1742 
Q 1991 1309 1228 531 
z
" transform="scale(0.015625)"/>
       </defs>
       <use xlink:href="#DejaVuSans-30"/>
       <use xlink:href="#DejaVuSans-2e" x="63.623047"/>
       <use xlink:href="#DejaVuSans-32" x="95.410156"/>
       <use xlink:href="#DejaVuSans-30" x="159.033203"/>
      </g>
     </g>
    </g>
    <g id="xtick_6">
     <g id="line2d_6">
      <path d="M 372.51165 294.66 
L 372.51165 12.96 
" clip-path="url(#p0b3fa757b7)" style="fill: none; stroke: #ffffff; stroke-linecap: round"/>
     </g>
     <g id="text_6">
      <!-- 0.25 -->
      <g style="fill: #262626" transform="translate(360.265556 312.518281)scale(0.11 -0.11)">
       <use xlink:href="#DejaVuSans-30"/>
       <use xlink:href="#DejaVuSans-2e" x="63.623047"/>
       <use xlink:href="#DejaVuSans-32" x="95.410156"/>
       <use xlink:href="#DejaVuSans-35" x="159.033203"/>
      </g>
     </g>
    </g>
    <g id="xtick_7">
     <g id="line2d_7">
      <path d="M 430.568182 294.66 
L 430.568182 12.96 
" clip-path="url(#p0b3fa757b7)" style="fill: none; stroke: #ffffff; stroke-linecap: round"/>
     </g>
     <g id="text_7">
      <!-- 0.30 -->
      <g style="fill: #262626" transform="translate(418.322088 312.518281)scale(0.11 -0.11)">
       <defs>
        <path id="DejaVuSans-33" d="M 2597 2516 
Q 3050 2419 3304 2112 
Q 3559 1806 3559 1356 
Q 3559 666 3084 287 
Q 2609 -91 1734 -91 
Q 1441 -91 1130 -33 
Q 819 25 488 141 
L 488 750 
Q 750 597 1062 519 
Q 1375 441 1716 441 
Q 2309 441 2620 675 
Q 2931 909 2931 1356 
Q 2931 1769 2642 2001 
Q 2353 2234 1838 2234 
L 1294 2234 
L 1294 2753 
L 1863 2753 
Q 2328 2753 2575 2939 
Q 2822 3125 2822 3475 
Q 2822 3834 2567 4026 
Q 2313 4219 1838 4219 
Q 1578 4219 1281 4162 
Q 984 4106 628 3988 
L 628 4550 
Q 988 4650 1302 4700 
Q 1616 4750 1894 4750 
Q 2613 4750 3031 4423 
Q 3450 4097 3450 3541 
Q 3450 3153 3228 2886 
Q 3006 2619 2597 2516 
z
" transform="scale(0.015625)"/>
       </defs>
       <use xlink:href="#DejaVuSans-30"/>
       <use xlink:href="#DejaVuSans-2e" x="63.623047"/>
       <use xlink:href="#DejaVuSans-33" x="95.410156"/>
       <use xlink:href="#DejaVuSans-30" x="159.033203"/>
      </g>
     </g>
    </g>
    <g id="text_8">
     <!-- Zeitschritte (in Millionen) -->
     <g style="fill: #262626" transform="translate(169.935469 329.44375)scale(0.14 -0.14)">
      <defs>
       <path id="DejaVuSans-5a" d="M 359 4666 
L 4025 4666 
L 4025 4184 
L 1075 531 
L 4097 531 
L 4097 0 
L 288 0 
L 288 481 
L 3238 4134 
L 359 4134 
L 359 4666 
z
" transform="scale(0.015625)"/>
       <path id="DejaVuSans-65" d="M 3597 1894 
L 3597 1613 
L 953 1613 
Q 991 1019 1311 708 
Q 1631 397 2203 397 
Q 2534 397 2845 478 
Q 3156 559 3463 722 
L 3463 178 
Q 3153 47 2828 -22 
Q 2503 -91 2169 -91 
Q 1331 -91 842 396 
Q 353 884 353 1716 
Q 353 2575 817 3079 
Q 1281 3584 2069 3584 
Q 2775 3584 3186 3129 
Q 3597 2675 3597 1894 
z
M 3022 2063 
Q 3016 2534 2758 2815 
Q 2500 3097 2075 3097 
Q 1594 3097 1305 2825 
Q 1016 2553 972 2059 
L 3022 2063 
z
" transform="scale(0.015625)"/>
       <path id="DejaVuSans-69" d="M 603 3500 
L 1178 3500 
L 1178 0 
L 603 0 
L 603 3500 
z
M 603 4863 
L 1178 4863 
L 1178 4134 
L 603 4134 
L 603 4863 
z
" transform="scale(0.015625)"/>
       <path id="DejaVuSans-74" d="M 1172 4494 
L 1172 3500 
L 2356 3500 
L 2356 3053 
L 1172 3053 
L 1172 1153 
Q 1172 725 1289 603 
Q 1406 481 1766 481 
L 2356 481 
L 2356 0 
L 1766 0 
Q 1100 0 847 248 
Q 594 497 594 1153 
L 594 3053 
L 172 3053 
L 172 3500 
L 594 3500 
L 594 4494 
L 1172 4494 
z
" transform="scale(0.015625)"/>
       <path id="DejaVuSans-73" d="M 2834 3397 
L 2834 2853 
Q 2591 2978 2328 3040 
Q 2066 3103 1784 3103 
Q 1356 3103 1142 2972 
Q 928 2841 928 2578 
Q 928 2378 1081 2264 
Q 1234 2150 1697 2047 
L 1894 2003 
Q 2506 1872 2764 1633 
Q 3022 1394 3022 966 
Q 3022 478 2636 193 
Q 2250 -91 1575 -91 
Q 1294 -91 989 -36 
Q 684 19 347 128 
L 347 722 
Q 666 556 975 473 
Q 1284 391 1588 391 
Q 1994 391 2212 530 
Q 2431 669 2431 922 
Q 2431 1156 2273 1281 
Q 2116 1406 1581 1522 
L 1381 1569 
Q 847 1681 609 1914 
Q 372 2147 372 2553 
Q 372 3047 722 3315 
Q 1072 3584 1716 3584 
Q 2034 3584 2315 3537 
Q 2597 3491 2834 3397 
z
" transform="scale(0.015625)"/>
       <path id="DejaVuSans-63" d="M 3122 3366 
L 3122 2828 
Q 2878 2963 2633 3030 
Q 2388 3097 2138 3097 
Q 1578 3097 1268 2742 
Q 959 2388 959 1747 
Q 959 1106 1268 751 
Q 1578 397 2138 397 
Q 2388 397 2633 464 
Q 2878 531 3122 666 
L 3122 134 
Q 2881 22 2623 -34 
Q 2366 -91 2075 -91 
Q 1284 -91 818 406 
Q 353 903 353 1747 
Q 353 2603 823 3093 
Q 1294 3584 2113 3584 
Q 2378 3584 2631 3529 
Q 2884 3475 3122 3366 
z
" transform="scale(0.015625)"/>
       <path id="DejaVuSans-68" d="M 3513 2113 
L 3513 0 
L 2938 0 
L 2938 2094 
Q 2938 2591 2744 2837 
Q 2550 3084 2163 3084 
Q 1697 3084 1428 2787 
Q 1159 2491 1159 1978 
L 1159 0 
L 581 0 
L 581 4863 
L 1159 4863 
L 1159 2956 
Q 1366 3272 1645 3428 
Q 1925 3584 2291 3584 
Q 2894 3584 3203 3211 
Q 3513 2838 3513 2113 
z
" transform="scale(0.015625)"/>
       <path id="DejaVuSans-72" d="M 2631 2963 
Q 2534 3019 2420 3045 
Q 2306 3072 2169 3072 
Q 1681 3072 1420 2755 
Q 1159 2438 1159 1844 
L 1159 0 
L 581 0 
L 581 3500 
L 1159 3500 
L 1159 2956 
Q 1341 3275 1631 3429 
Q 1922 3584 2338 3584 
Q 2397 3584 2469 3576 
Q 2541 3569 2628 3553 
L 2631 2963 
z
" transform="scale(0.015625)"/>
       <path id="DejaVuSans-20" transform="scale(0.015625)"/>
       <path id="DejaVuSans-28" d="M 1984 4856 
Q 1566 4138 1362 3434 
Q 1159 2731 1159 2009 
Q 1159 1288 1364 580 
Q 1569 -128 1984 -844 
L 1484 -844 
Q 1016 -109 783 600 
Q 550 1309 550 2009 
Q 550 2706 781 3412 
Q 1013 4119 1484 4856 
L 1984 4856 
z
" transform="scale(0.015625)"/>
       <path id="DejaVuSans-6e" d="M 3513 2113 
L 3513 0 
L 2938 0 
L 2938 2094 
Q 2938 2591 2744 2837 
Q 2550 3084 2163 3084 
Q 1697 3084 1428 2787 
Q 1159 2491 1159 1978 
L 1159 0 
L 581 0 
L 581 3500 
L 1159 3500 
L 1159 2956 
Q 1366 3272 1645 3428 
Q 1925 3584 2291 3584 
Q 2894 3584 3203 3211 
Q 3513 2838 3513 2113 
z
" transform="scale(0.015625)"/>
       <path id="DejaVuSans-4d" d="M 628 4666 
L 1569 4666 
L 2759 1491 
L 3956 4666 
L 4897 4666 
L 4897 0 
L 4281 0 
L 4281 4097 
L 3078 897 
L 2444 897 
L 1241 4097 
L 1241 0 
L 628 0 
L 628 4666 
z
" transform="scale(0.015625)"/>
       <path id="DejaVuSans-6c" d="M 603 4863 
L 1178 4863 
L 1178 0 
L 603 0 
L 603 4863 
z
" transform="scale(0.015625)"/>
       <path id="DejaVuSans-6f" d="M 1959 3097 
Q 1497 3097 1228 2736 
Q 959 2375 959 1747 
Q 959 1119 1226 758 
Q 1494 397 1959 397 
Q 2419 397 2687 759 
Q 2956 1122 2956 1747 
Q 2956 2369 2687 2733 
Q 2419 3097 1959 3097 
z
M 1959 3584 
Q 2709 3584 3137 3096 
Q 3566 2609 3566 1747 
Q 3566 888 3137 398 
Q 2709 -91 1959 -91 
Q 1206 -91 779 398 
Q 353 888 353 1747 
Q 353 2609 779 3096 
Q 1206 3584 1959 3584 
z
" transform="scale(0.015625)"/>
       <path id="DejaVuSans-29" d="M 513 4856 
L 1013 4856 
Q 1481 4119 1714 3412 
Q 1947 2706 1947 2009 
Q 1947 1309 1714 600 
Q 1481 -109 1013 -844 
L 513 -844 
Q 928 -128 1133 580 
Q 1338 1288 1338 2009 
Q 1338 2731 1133 3434 
Q 928 4138 513 4856 
z
" transform="scale(0.015625)"/>
      </defs>
      <use xlink:href="#DejaVuSans-5a"/>
      <use xlink:href="#DejaVuSans-65" x="68.505859"/>
      <use xlink:href="#DejaVuSans-69" x="130.029297"/>
      <use xlink:href="#DejaVuSans-74" x="157.8125"/>
      <use xlink:href="#DejaVuSans-73" x="197.021484"/>
      <use xlink:href="#DejaVuSans-63" x="249.121094"/>
      <use xlink:href="#DejaVuSans-68" x="304.101562"/>
      <use xlink:href="#DejaVuSans-72" x="367.480469"/>
      <use xlink:href="#DejaVuSans-69" x="408.59375"/>
      <use xlink:href="#DejaVuSans-74" x="436.376953"/>
      <use xlink:href="#DejaVuSans-74" x="475.585938"/>
      <use xlink:href="#DejaVuSans-65" x="514.794922"/>
      <use xlink:href="#DejaVuSans-20" x="576.318359"/>
      <use xlink:href="#DejaVuSans-28" x="608.105469"/>
      <use xlink:href="#DejaVuSans-69" x="647.119141"/>
      <use xlink:href="#DejaVuSans-6e" x="674.902344"/>
      <use xlink:href="#DejaVuSans-20" x="738.28125"/>
      <use xlink:href="#DejaVuSans-4d" x="770.068359"/>
      <use xlink:href="#DejaVuSans-69" x="856.347656"/>
      <use xlink:href="#DejaVuSans-6c" x="884.130859"/>
      <use xlink:href="#DejaVuSans-6c" x="911.914062"/>
      <use xlink:href="#DejaVuSans-69" x="939.697266"/>
      <use xlink:href="#DejaVuSans-6f" x="967.480469"/>
      <use xlink:href="#DejaVuSans-6e" x="1028.662109"/>
      <use xlink:href="#DejaVuSans-65" x="1092.041016"/>
      <use xlink:href="#DejaVuSans-6e" x="1153.564453"/>
      <use xlink:href="#DejaVuSans-29" x="1216.943359"/>
     </g>
    </g>
   </g>
   <g id="matplotlib.axis_2">
    <g id="ytick_1">
     <g id="line2d_8">
      <path d="M 67.86 281.932952 
L 447.84 281.932952 
" clip-path="url(#p0b3fa757b7)" style="fill: none; stroke: #ffffff; stroke-linecap: round"/>
     </g>
     <g id="text_9">
      <!-- 0 -->
      <g style="fill: #262626" transform="translate(51.36125 286.112093)scale(0.11 -0.11)">
       <use xlink:href="#DejaVuSans-30"/>
      </g>
     </g>
    </g>
    <g id="ytick_2">
     <g id="line2d_9">
      <path d="M 67.86 246.016028 
L 447.84 246.016028 
" clip-path="url(#p0b3fa757b7)" style="fill: none; stroke: #ffffff; stroke-linecap: round"/>
     </g>
     <g id="text_10">
      <!-- 250 -->
      <g style="fill: #262626" transform="translate(37.36375 250.195169)scale(0.11 -0.11)">
       <use xlink:href="#DejaVuSans-32"/>
       <use xlink:href="#DejaVuSans-35" x="63.623047"/>
       <use xlink:href="#DejaVuSans-30" x="127.246094"/>
      </g>
     </g>
    </g>
    <g id="ytick_3">
     <g id="line2d_10">
      <path d="M 67.86 210.099104 
L 447.84 210.099104 
" clip-path="url(#p0b3fa757b7)" style="fill: none; stroke: #ffffff; stroke-linecap: round"/>
     </g>
     <g id="text_11">
      <!-- 500 -->
      <g style="fill: #262626" transform="translate(37.36375 214.278244)scale(0.11 -0.11)">
       <use xlink:href="#DejaVuSans-35"/>
       <use xlink:href="#DejaVuSans-30" x="63.623047"/>
       <use xlink:href="#DejaVuSans-30" x="127.246094"/>
      </g>
     </g>
    </g>
    <g id="ytick_4">
     <g id="line2d_11">
      <path d="M 67.86 174.18218 
L 447.84 174.18218 
" clip-path="url(#p0b3fa757b7)" style="fill: none; stroke: #ffffff; stroke-linecap: round"/>
     </g>
     <g id="text_12">
      <!-- 750 -->
      <g style="fill: #262626" transform="translate(37.36375 178.36132)scale(0.11 -0.11)">
       <defs>
        <path id="DejaVuSans-37" d="M 525 4666 
L 3525 4666 
L 3525 4397 
L 1831 0 
L 1172 0 
L 2766 4134 
L 525 4134 
L 525 4666 
z
" transform="scale(0.015625)"/>
       </defs>
       <use xlink:href="#DejaVuSans-37"/>
       <use xlink:href="#DejaVuSans-35" x="63.623047"/>
       <use xlink:href="#DejaVuSans-30" x="127.246094"/>
      </g>
     </g>
    </g>
    <g id="ytick_5">
     <g id="line2d_12">
      <path d="M 67.86 138.265255 
L 447.84 138.265255 
" clip-path="url(#p0b3fa757b7)" style="fill: none; stroke: #ffffff; stroke-linecap: round"/>
     </g>
     <g id="text_13">
      <!-- 1000 -->
      <g style="fill: #262626" transform="translate(30.365 142.444396)scale(0.11 -0.11)">
       <use xlink:href="#DejaVuSans-31"/>
       <use xlink:href="#DejaVuSans-30" x="63.623047"/>
       <use xlink:href="#DejaVuSans-30" x="127.246094"/>
       <use xlink:href="#DejaVuSans-30" x="190.869141"/>
      </g>
     </g>
    </g>
    <g id="ytick_6">
     <g id="line2d_13">
      <path d="M 67.86 102.348331 
L 447.84 102.348331 
" clip-path="url(#p0b3fa757b7)" style="fill: none; stroke: #ffffff; stroke-linecap: round"/>
     </g>
     <g id="text_14">
      <!-- 1250 -->
      <g style="fill: #262626" transform="translate(30.365 106.527472)scale(0.11 -0.11)">
       <use xlink:href="#DejaVuSans-31"/>
       <use xlink:href="#DejaVuSans-32" x="63.623047"/>
       <use xlink:href="#DejaVuSans-35" x="127.246094"/>
       <use xlink:href="#DejaVuSans-30" x="190.869141"/>
      </g>
     </g>
    </g>
    <g id="ytick_7">
     <g id="line2d_14">
      <path d="M 67.86 66.431407 
L 447.84 66.431407 
" clip-path="url(#p0b3fa757b7)" style="fill: none; stroke: #ffffff; stroke-linecap: round"/>
     </g>
     <g id="text_15">
      <!-- 1500 -->
      <g style="fill: #262626" transform="translate(30.365 70.610548)scale(0.11 -0.11)">
       <use xlink:href="#DejaVuSans-31"/>
       <use xlink:href="#DejaVuSans-35" x="63.623047"/>
       <use xlink:href="#DejaVuSans-30" x="127.246094"/>
       <use xlink:href="#DejaVuSans-30" x="190.869141"/>
      </g>
     </g>
    </g>
    <g id="ytick_8">
     <g id="line2d_15">
      <path d="M 67.86 30.514483 
L 447.84 30.514483 
" clip-path="url(#p0b3fa757b7)" style="fill: none; stroke: #ffffff; stroke-linecap: round"/>
     </g>
     <g id="text_16">
      <!-- 1750 -->
      <g style="fill: #262626" transform="translate(30.365 34.693623)scale(0.11 -0.11)">
       <use xlink:href="#DejaVuSans-31"/>
       <use xlink:href="#DejaVuSans-37" x="63.623047"/>
       <use xlink:href="#DejaVuSans-35" x="127.246094"/>
       <use xlink:href="#DejaVuSans-30" x="190.869141"/>
      </g>
     </g>
    </g>
    <g id="text_17">
     <!-- Trainingszeit (in Minuten) -->
     <g style="fill: #262626" transform="translate(23.453438 242.379688)rotate(-90)scale(0.14 -0.14)">
      <defs>
       <path id="DejaVuSans-54" d="M -19 4666 
L 3928 4666 
L 3928 4134 
L 2272 4134 
L 2272 0 
L 1638 0 
L 1638 4134 
L -19 4134 
L -19 4666 
z
" transform="scale(0.015625)"/>
       <path id="DejaVuSans-61" d="M 2194 1759 
Q 1497 1759 1228 1600 
Q 959 1441 959 1056 
Q 959 750 1161 570 
Q 1363 391 1709 391 
Q 2188 391 2477 730 
Q 2766 1069 2766 1631 
L 2766 1759 
L 2194 1759 
z
M 3341 1997 
L 3341 0 
L 2766 0 
L 2766 531 
Q 2569 213 2275 61 
Q 1981 -91 1556 -91 
Q 1019 -91 701 211 
Q 384 513 384 1019 
Q 384 1609 779 1909 
Q 1175 2209 1959 2209 
L 2766 2209 
L 2766 2266 
Q 2766 2663 2505 2880 
Q 2244 3097 1772 3097 
Q 1472 3097 1187 3025 
Q 903 2953 641 2809 
L 641 3341 
Q 956 3463 1253 3523 
Q 1550 3584 1831 3584 
Q 2591 3584 2966 3190 
Q 3341 2797 3341 1997 
z
" transform="scale(0.015625)"/>
       <path id="DejaVuSans-67" d="M 2906 1791 
Q 2906 2416 2648 2759 
Q 2391 3103 1925 3103 
Q 1463 3103 1205 2759 
Q 947 2416 947 1791 
Q 947 1169 1205 825 
Q 1463 481 1925 481 
Q 2391 481 2648 825 
Q 2906 1169 2906 1791 
z
M 3481 434 
Q 3481 -459 3084 -895 
Q 2688 -1331 1869 -1331 
Q 1566 -1331 1297 -1286 
Q 1028 -1241 775 -1147 
L 775 -588 
Q 1028 -725 1275 -790 
Q 1522 -856 1778 -856 
Q 2344 -856 2625 -561 
Q 2906 -266 2906 331 
L 2906 616 
Q 2728 306 2450 153 
Q 2172 0 1784 0 
Q 1141 0 747 490 
Q 353 981 353 1791 
Q 353 2603 747 3093 
Q 1141 3584 1784 3584 
Q 2172 3584 2450 3431 
Q 2728 3278 2906 2969 
L 2906 3500 
L 3481 3500 
L 3481 434 
z
" transform="scale(0.015625)"/>
       <path id="DejaVuSans-7a" d="M 353 3500 
L 3084 3500 
L 3084 2975 
L 922 459 
L 3084 459 
L 3084 0 
L 275 0 
L 275 525 
L 2438 3041 
L 353 3041 
L 353 3500 
z
" transform="scale(0.015625)"/>
       <path id="DejaVuSans-75" d="M 544 1381 
L 544 3500 
L 1119 3500 
L 1119 1403 
Q 1119 906 1312 657 
Q 1506 409 1894 409 
Q 2359 409 2629 706 
Q 2900 1003 2900 1516 
L 2900 3500 
L 3475 3500 
L 3475 0 
L 2900 0 
L 2900 538 
Q 2691 219 2414 64 
Q 2138 -91 1772 -91 
Q 1169 -91 856 284 
Q 544 659 544 1381 
z
M 1991 3584 
L 1991 3584 
z
" transform="scale(0.015625)"/>
      </defs>
      <use xlink:href="#DejaVuSans-54"/>
      <use xlink:href="#DejaVuSans-72" x="46.333984"/>
      <use xlink:href="#DejaVuSans-61" x="87.447266"/>
      <use xlink:href="#DejaVuSans-69" x="148.726562"/>
      <use xlink:href="#DejaVuSans-6e" x="176.509766"/>
      <use xlink:href="#DejaVuSans-69" x="239.888672"/>
      <use xlink:href="#DejaVuSans-6e" x="267.671875"/>
      <use xlink:href="#DejaVuSans-67" x="331.050781"/>
      <use xlink:href="#DejaVuSans-73" x="394.527344"/>
      <use xlink:href="#DejaVuSans-7a" x="446.626953"/>
      <use xlink:href="#DejaVuSans-65" x="499.117188"/>
      <use xlink:href="#DejaVuSans-69" x="560.640625"/>
      <use xlink:href="#DejaVuSans-74" x="588.423828"/>
      <use xlink:href="#DejaVuSans-20" x="627.632812"/>
      <use xlink:href="#DejaVuSans-28" x="659.419922"/>
      <use xlink:href="#DejaVuSans-69" x="698.433594"/>
      <use xlink:href="#DejaVuSans-6e" x="726.216797"/>
      <use xlink:href="#DejaVuSans-20" x="789.595703"/>
      <use xlink:href="#DejaVuSans-4d" x="821.382812"/>
      <use xlink:href="#DejaVuSans-69" x="907.662109"/>
      <use xlink:href="#DejaVuSans-6e" x="935.445312"/>
      <use xlink:href="#DejaVuSans-75" x="998.824219"/>
      <use xlink:href="#DejaVuSans-74" x="1062.203125"/>
      <use xlink:href="#DejaVuSans-65" x="1101.412109"/>
      <use xlink:href="#DejaVuSans-6e" x="1162.935547"/>
      <use xlink:href="#DejaVuSans-29" x="1226.314453"/>
     </g>
    </g>
   </g>
   <g id="PolyCollection_1">
    <defs>
     <path id="m9cb29af7d2" d="M 85.131818 -63.744545 
L 85.131818 -63.750212 
L 88.034645 -63.833114 
L 90.937471 -63.915666 
L 93.840298 -63.997173 
L 96.743125 -64.714468 
L 99.645951 -65.422294 
L 102.548778 -66.131201 
L 105.451604 -66.831057 
L 108.354431 -67.559053 
L 111.257257 -68.269701 
L 114.160084 -68.970669 
L 117.062911 -69.682388 
L 119.965737 -70.389907 
L 122.868564 -71.104656 
L 125.77139 -71.806804 
L 128.674217 -72.514358 
L 131.577044 -73.206523 
L 134.47987 -73.912814 
L 137.382697 -74.622667 
L 140.285523 -75.335134 
L 143.18835 -76.023775 
L 146.091176 -76.720594 
L 148.994003 -77.432012 
L 151.89683 -78.120658 
L 154.799656 -78.844411 
L 157.702483 -79.544873 
L 160.605309 -80.244526 
L 163.508136 -80.970874 
L 166.410963 -81.69035 
L 169.313789 -82.382884 
L 172.216616 -83.103902 
L 175.119442 -83.793971 
L 178.022269 -84.486019 
L 180.925095 -85.193346 
L 183.827922 -85.902979 
L 186.730749 -86.62589 
L 189.633575 -87.3311 
L 192.536402 -88.033727 
L 195.439228 -88.722123 
L 198.342055 -89.430927 
L 201.244882 -90.145325 
L 204.147708 -90.843157 
L 207.050535 -91.549636 
L 209.953361 -92.242813 
L 212.856188 -92.922912 
L 215.759015 -93.621583 
L 218.661841 -94.334423 
L 221.564668 -95.028499 
L 224.467494 -95.709333 
L 227.370321 -96.384156 
L 230.273147 -97.073273 
L 233.175974 -97.761804 
L 236.078801 -98.451362 
L 238.981627 -99.157849 
L 241.884454 -99.851749 
L 244.78728 -100.56962 
L 247.690107 -101.267014 
L 250.592934 -101.952662 
L 253.49576 -102.653771 
L 256.398587 -103.342723 
L 259.301413 -104.022965 
L 262.20424 -104.709654 
L 265.107066 -105.394845 
L 268.009893 -106.072724 
L 270.91272 -106.741202 
L 273.815546 -107.417855 
L 276.718373 -108.115126 
L 279.621199 -108.822011 
L 282.524026 -109.521186 
L 285.426853 -110.220628 
L 288.329679 -110.906772 
L 291.232506 -111.593293 
L 294.135332 -112.290966 
L 297.038159 -112.988942 
L 299.940985 -113.682976 
L 302.843812 -114.380581 
L 305.746639 -115.072806 
L 308.649465 -115.761427 
L 311.552292 -116.445791 
L 314.455118 -117.130212 
L 317.357945 -117.835889 
L 320.260772 -118.529789 
L 323.163598 -119.21423 
L 326.066425 -119.88368 
L 328.969251 -120.567635 
L 331.872078 -121.288756 
L 334.774905 -121.966992 
L 337.677731 -122.664998 
L 340.580558 -123.356671 
L 343.483384 -124.049016 
L 346.386211 -124.736962 
L 349.289037 -125.417353 
L 352.191864 -126.091876 
L 355.094691 -126.792134 
L 357.997517 -127.496537 
L 360.900344 -128.175468 
L 363.80317 -128.8647 
L 366.705997 -129.562216 
L 369.608824 -130.259571 
L 372.51165 -130.941571 
L 375.414477 -131.631677 
L 378.317303 -132.321853 
L 381.22013 -132.99525 
L 384.122956 -133.674355 
L 387.025783 -134.357558 
L 389.92861 -135.04943 
L 392.831436 -135.744335 
L 395.734263 -136.447885 
L 398.637089 -137.127874 
L 401.539916 -137.815938 
L 404.442743 -138.503275 
L 407.345569 -139.194558 
L 410.248396 -139.878829 
L 413.151222 -140.579444 
L 416.054049 -141.26205 
L 418.956875 -141.93875 
L 421.859702 -142.636919 
L 424.762529 -143.329453 
L 427.665355 -144.010415 
L 430.568182 -144.711961 
L 430.568182 -142.374605 
L 430.568182 -142.374605 
L 427.665355 -141.702956 
L 424.762529 -141.046889 
L 421.859702 -140.374452 
L 418.956875 -139.694293 
L 416.054049 -139.010708 
L 413.151222 -138.337316 
L 410.248396 -137.660601 
L 407.345569 -136.991188 
L 404.442743 -136.324823 
L 401.539916 -135.654141 
L 398.637089 -134.988816 
L 395.734263 -134.312434 
L 392.831436 -133.643876 
L 389.92861 -132.960134 
L 387.025783 -132.304189 
L 384.122956 -131.623228 
L 381.22013 -130.912756 
L 378.317303 -130.213829 
L 375.414477 -129.541314 
L 372.51165 -128.881968 
L 369.608824 -128.215497 
L 366.705997 -127.53782 
L 363.80317 -126.852071 
L 360.900344 -126.186578 
L 357.997517 -125.503342 
L 355.094691 -124.815031 
L 352.191864 -124.1337 
L 349.289037 -123.454662 
L 346.386211 -122.77868 
L 343.483384 -122.103679 
L 340.580558 -121.428324 
L 337.677731 -120.755564 
L 334.774905 -120.081861 
L 331.872078 -119.391492 
L 328.969251 -118.714275 
L 326.066425 -118.046684 
L 323.163598 -117.363473 
L 320.260772 -116.693466 
L 317.357945 -116.022079 
L 314.455118 -115.320319 
L 311.552292 -114.655702 
L 308.649465 -113.983238 
L 305.746639 -113.307202 
L 302.843812 -112.627112 
L 299.940985 -111.942358 
L 297.038159 -111.233014 
L 294.135332 -110.557427 
L 291.232506 -109.880354 
L 288.329679 -109.204703 
L 285.426853 -108.541544 
L 282.524026 -107.864012 
L 279.621199 -107.187583 
L 276.718373 -106.499219 
L 273.815546 -105.815569 
L 270.91272 -105.144816 
L 268.009893 -104.463205 
L 265.107066 -103.772301 
L 262.20424 -103.070872 
L 259.301413 -102.399882 
L 256.398587 -101.718555 
L 253.49576 -101.054012 
L 250.592934 -100.37968 
L 247.690107 -99.692774 
L 244.78728 -99.036451 
L 241.884454 -98.364589 
L 238.981627 -97.698847 
L 236.078801 -97.031167 
L 233.175974 -96.356529 
L 230.273147 -95.695723 
L 227.370321 -95.03286 
L 224.467494 -94.367498 
L 221.564668 -93.702807 
L 218.661841 -93.007945 
L 215.759015 -92.322271 
L 212.856188 -91.642193 
L 209.953361 -90.97817 
L 207.050535 -90.302436 
L 204.147708 -89.642779 
L 201.244882 -88.963009 
L 198.342055 -88.283766 
L 195.439228 -87.607959 
L 192.536402 -86.921319 
L 189.633575 -86.240483 
L 186.730749 -85.587884 
L 183.827922 -84.910675 
L 180.925095 -84.229848 
L 178.022269 -83.549899 
L 175.119442 -82.863374 
L 172.216616 -82.176807 
L 169.313789 -81.499862 
L 166.410963 -80.823317 
L 163.508136 -80.168094 
L 160.605309 -79.489387 
L 157.702483 -78.820798 
L 154.799656 -78.148243 
L 151.89683 -77.482742 
L 148.994003 -76.796727 
L 146.091176 -76.132215 
L 143.18835 -75.473947 
L 140.285523 -74.80673 
L 137.382697 -74.128347 
L 134.47987 -73.457768 
L 131.577044 -72.772512 
L 128.674217 -72.118051 
L 125.77139 -71.448333 
L 122.868564 -70.767554 
L 119.965737 -70.099268 
L 117.062911 -69.435928 
L 114.160084 -68.760045 
L 111.257257 -68.096284 
L 108.354431 -67.428556 
L 105.451604 -66.742919 
L 102.548778 -66.051045 
L 99.645951 -65.368475 
L 96.743125 -64.669481 
L 93.840298 -63.985264 
L 90.937471 -63.904658 
L 88.034645 -63.824914 
L 85.131818 -63.744545 
z
" style="stroke: #ffffff; stroke-opacity: 0.5"/>
    </defs>
    <g clip-path="url(#p0b3fa757b7)">
     <use xlink:href="#m9cb29af7d2" x="0" y="345.6" style="fill: #4c72b0; fill-opacity: 0.5; stroke: #ffffff; stroke-opacity: 0.5"/>
    </g>
   </g>
   <g id="PolyCollection_2">
    <defs>
     <path id="m77c1ee4e26" d="M 85.131818 -63.746119 
L 85.131818 -63.751404 
L 88.034645 -63.831854 
L 90.937471 -63.911728 
L 93.840298 -63.994434 
L 96.743125 -65.79701 
L 99.645951 -67.583437 
L 102.548778 -69.346775 
L 105.451604 -71.145222 
L 108.354431 -72.970597 
L 111.257257 -74.771319 
L 114.160084 -76.543813 
L 117.062911 -78.317819 
L 119.965737 -80.093188 
L 122.868564 -81.814795 
L 125.77139 -83.573803 
L 128.674217 -85.346417 
L 131.577044 -87.17204 
L 134.47987 -88.9784 
L 137.382697 -90.773324 
L 140.285523 -92.527837 
L 143.18835 -94.266595 
L 146.091176 -96.02896 
L 148.994003 -97.772516 
L 151.89683 -99.557575 
L 154.799656 -101.325709 
L 157.702483 -103.074838 
L 160.605309 -104.84563 
L 163.508136 -106.61784 
L 166.410963 -108.441036 
L 169.313789 -110.25221 
L 172.216616 -112.07271 
L 175.119442 -113.857341 
L 178.022269 -115.653548 
L 180.925095 -117.550284 
L 183.827922 -119.403511 
L 186.730749 -121.240912 
L 189.633575 -123.059119 
L 192.536402 -124.855795 
L 195.439228 -126.597283 
L 198.342055 -128.391066 
L 201.244882 -130.186001 
L 204.147708 -131.975454 
L 207.050535 -133.763068 
L 209.953361 -135.561329 
L 212.856188 -137.325692 
L 215.759015 -139.08833 
L 218.661841 -140.857762 
L 221.564668 -142.657633 
L 224.467494 -144.467582 
L 227.370321 -146.277768 
L 230.273147 -148.042208 
L 233.175974 -149.808332 
L 236.078801 -151.598365 
L 238.981627 -153.365594 
L 241.884454 -155.114265 
L 244.78728 -156.929519 
L 247.690107 -158.702691 
L 250.592934 -160.481221 
L 253.49576 -162.216457 
L 256.398587 -163.983911 
L 259.301413 -165.731858 
L 262.20424 -167.493582 
L 265.107066 -169.250441 
L 268.009893 -171.02333 
L 270.91272 -172.759044 
L 273.815546 -174.532001 
L 276.718373 -176.294144 
L 279.621199 -178.036744 
L 282.524026 -179.777788 
L 285.426853 -181.542668 
L 288.329679 -183.321827 
L 291.232506 -185.076157 
L 294.135332 -186.853746 
L 297.038159 -188.610639 
L 299.940985 -190.36532 
L 302.843812 -192.179936 
L 305.746639 -193.97152 
L 308.649465 -195.747895 
L 311.552292 -197.517877 
L 314.455118 -199.274945 
L 317.357945 -201.050796 
L 320.260772 -202.843949 
L 323.163598 -204.584603 
L 326.066425 -206.365065 
L 328.969251 -208.110335 
L 331.872078 -209.87443 
L 334.774905 -211.627536 
L 337.677731 -213.372658 
L 340.580558 -215.103919 
L 343.483384 -216.851069 
L 346.386211 -218.574876 
L 349.289037 -220.298327 
L 352.191864 -222.037466 
L 355.094691 -223.771832 
L 357.997517 -225.487577 
L 360.900344 -227.236142 
L 363.80317 -228.988894 
L 366.705997 -230.750273 
L 369.608824 -232.487875 
L 372.51165 -234.223933 
L 375.414477 -235.960265 
L 378.317303 -237.684971 
L 381.22013 -239.426339 
L 384.122956 -241.184398 
L 387.025783 -242.93858 
L 389.92861 -244.74463 
L 392.831436 -246.494068 
L 395.734263 -248.281169 
L 398.637089 -250.030285 
L 401.539916 -251.764637 
L 404.442743 -253.52911 
L 407.345569 -255.247639 
L 410.248396 -256.981392 
L 413.151222 -258.723138 
L 416.054049 -260.476782 
L 418.956875 -262.268227 
L 421.859702 -264.029413 
L 424.762529 -265.802977 
L 427.665355 -267.579044 
L 430.568182 -269.34079 
L 430.568182 -266.338491 
L 430.568182 -266.338491 
L 427.665355 -264.619944 
L 424.762529 -262.853399 
L 421.859702 -261.154225 
L 418.956875 -259.432147 
L 416.054049 -257.700861 
L 413.151222 -255.915992 
L 410.248396 -254.133476 
L 407.345569 -252.323735 
L 404.442743 -250.478094 
L 401.539916 -248.648165 
L 398.637089 -246.895933 
L 395.734263 -245.154422 
L 392.831436 -243.382163 
L 389.92861 -241.661375 
L 387.025783 -239.933727 
L 384.122956 -238.206842 
L 381.22013 -236.467584 
L 378.317303 -234.742257 
L 375.414477 -232.989319 
L 372.51165 -231.240605 
L 369.608824 -229.530942 
L 366.705997 -227.836334 
L 363.80317 -226.099102 
L 360.900344 -224.359837 
L 357.997517 -222.630214 
L 355.094691 -220.885508 
L 352.191864 -219.183442 
L 349.289037 -217.468881 
L 346.386211 -215.721979 
L 343.483384 -213.973407 
L 340.580558 -212.213556 
L 337.677731 -210.469 
L 334.774905 -208.707709 
L 331.872078 -206.963963 
L 328.969251 -205.189378 
L 326.066425 -203.435584 
L 323.163598 -201.639901 
L 320.260772 -199.875439 
L 317.357945 -198.065471 
L 314.455118 -196.310689 
L 311.552292 -194.507538 
L 308.649465 -192.676532 
L 305.746639 -190.913023 
L 302.843812 -189.209711 
L 299.940985 -187.488777 
L 297.038159 -185.778567 
L 294.135332 -184.05484 
L 291.232506 -182.31021 
L 288.329679 -180.580537 
L 285.426853 -178.842081 
L 282.524026 -177.127788 
L 279.621199 -175.415849 
L 276.718373 -173.639683 
L 273.815546 -171.886079 
L 270.91272 -170.178229 
L 268.009893 -168.453262 
L 265.107066 -166.725524 
L 262.20424 -164.993265 
L 259.301413 -163.294461 
L 256.398587 -161.550047 
L 253.49576 -159.815255 
L 250.592934 -158.059092 
L 247.690107 -156.303823 
L 244.78728 -154.537079 
L 241.884454 -152.792308 
L 238.981627 -151.021366 
L 236.078801 -149.333078 
L 233.175974 -147.601673 
L 230.273147 -145.835765 
L 227.370321 -144.114652 
L 224.467494 -142.395439 
L 221.564668 -140.65555 
L 218.661841 -138.917345 
L 215.759015 -137.202467 
L 212.856188 -135.495681 
L 209.953361 -133.766484 
L 207.050535 -132.014329 
L 204.147708 -130.291154 
L 201.244882 -128.566075 
L 198.342055 -126.793829 
L 195.439228 -125.064032 
L 192.536402 -123.297937 
L 189.633575 -121.568566 
L 186.730749 -119.828759 
L 183.827922 -118.094877 
L 180.925095 -116.36295 
L 178.022269 -114.604617 
L 175.119442 -112.880832 
L 172.216616 -111.1359 
L 169.313789 -109.383907 
L 166.410963 -107.632578 
L 163.508136 -105.87386 
L 160.605309 -104.093059 
L 157.702483 -102.36052 
L 154.799656 -100.64362 
L 151.89683 -98.891953 
L 148.994003 -97.15136 
L 146.091176 -95.379193 
L 143.18835 -93.605292 
L 140.285523 -91.8657 
L 137.382697 -90.113735 
L 134.47987 -88.340149 
L 131.577044 -86.596795 
L 128.674217 -84.829271 
L 125.77139 -83.075378 
L 122.868564 -81.307534 
L 119.965737 -79.550542 
L 117.062911 -77.805631 
L 114.160084 -76.075318 
L 111.257257 -74.357241 
L 108.354431 -72.630553 
L 105.451604 -70.935061 
L 102.548778 -69.205756 
L 99.645951 -67.462344 
L 96.743125 -65.722602 
L 93.840298 -63.989696 
L 90.937471 -63.908193 
L 88.034645 -63.827035 
L 85.131818 -63.746119 
z
" style="stroke: #ffffff; stroke-opacity: 0.5"/>
    </defs>
    <g clip-path="url(#p0b3fa757b7)">
     <use xlink:href="#m77c1ee4e26" x="0" y="345.6" style="fill: #dd8452; fill-opacity: 0.5; stroke: #ffffff; stroke-opacity: 0.5"/>
    </g>
   </g>
   <g id="PolyCollection_3">
    <defs>
     <path id="m284049fbef" d="M 85.131818 -63.865558 
L 85.131818 -63.868564 
L 88.034645 -64.096554 
L 90.937471 -64.334334 
L 93.840298 -64.562579 
L 96.743125 -66.815139 
L 99.645951 -69.064407 
L 102.548778 -71.313924 
L 105.451604 -73.548073 
L 108.354431 -75.796506 
L 111.257257 -78.069437 
L 114.160084 -80.330205 
L 117.062911 -82.609327 
L 119.965737 -84.76355 
L 122.868564 -86.959572 
L 125.77139 -89.190067 
L 128.674217 -91.436712 
L 131.577044 -93.653429 
L 134.47987 -95.86412 
L 137.382697 -98.042844 
L 140.285523 -100.266345 
L 143.18835 -102.449701 
L 146.091176 -104.673354 
L 148.994003 -106.829791 
L 151.89683 -109.020062 
L 154.799656 -111.139187 
L 157.702483 -113.328671 
L 160.605309 -115.515871 
L 163.508136 -117.710976 
L 166.410963 -119.956454 
L 169.313789 -122.202199 
L 172.216616 -124.468959 
L 175.119442 -126.707333 
L 178.022269 -128.958264 
L 180.925095 -131.262041 
L 183.827922 -133.504192 
L 186.730749 -135.769864 
L 189.633575 -137.92251 
L 192.536402 -140.138458 
L 195.439228 -142.389351 
L 198.342055 -144.649942 
L 201.244882 -146.890137 
L 204.147708 -149.150388 
L 207.050535 -151.420157 
L 209.953361 -153.697746 
L 212.856188 -155.930144 
L 215.759015 -158.140996 
L 218.661841 -160.417129 
L 221.564668 -162.637319 
L 224.467494 -164.731619 
L 227.370321 -166.841372 
L 230.273147 -169.005377 
L 233.175974 -171.196213 
L 236.078801 -173.348141 
L 238.981627 -175.526043 
L 241.884454 -177.717771 
L 244.78728 -179.922193 
L 247.690107 -182.127621 
L 250.592934 -184.350484 
L 253.49576 -186.530836 
L 256.398587 -188.678838 
L 259.301413 -190.839015 
L 262.20424 -193.013346 
L 265.107066 -195.206888 
L 268.009893 -197.426603 
L 270.91272 -199.621529 
L 273.815546 -201.820807 
L 276.718373 -204.013797 
L 279.621199 -206.193856 
L 282.524026 -208.434043 
L 285.426853 -210.644847 
L 288.329679 -212.833417 
L 291.232506 -215.033808 
L 294.135332 -217.181856 
L 297.038159 -219.320281 
L 299.940985 -221.460067 
L 302.843812 -223.670124 
L 305.746639 -225.830092 
L 308.649465 -228.05376 
L 311.552292 -230.221005 
L 314.455118 -232.394318 
L 317.357945 -234.622631 
L 320.260772 -236.813257 
L 323.163598 -239.012332 
L 326.066425 -241.213255 
L 328.969251 -243.36713 
L 331.872078 -245.524327 
L 334.774905 -247.688131 
L 337.677731 -249.889216 
L 340.580558 -252.040884 
L 343.483384 -254.24092 
L 346.386211 -256.389166 
L 349.289037 -258.58604 
L 352.191864 -260.806015 
L 355.094691 -263.035335 
L 357.997517 -265.203809 
L 360.900344 -267.3933 
L 363.80317 -269.555603 
L 366.705997 -271.706166 
L 369.608824 -273.868346 
L 372.51165 -276.040775 
L 375.414477 -278.23628 
L 378.317303 -280.429731 
L 381.22013 -282.605943 
L 384.122956 -284.763745 
L 387.025783 -286.986249 
L 389.92861 -289.151654 
L 392.831436 -291.352196 
L 395.734263 -293.529042 
L 398.637089 -295.678123 
L 401.539916 -297.872162 
L 404.442743 -300.058125 
L 407.345569 -302.240318 
L 410.248396 -304.440096 
L 413.151222 -306.621074 
L 416.054049 -308.82499 
L 418.956875 -311.031358 
L 421.859702 -313.26008 
L 424.762529 -315.473512 
L 427.665355 -317.652889 
L 430.568182 -319.835455 
L 430.568182 -318.885038 
L 430.568182 -318.885038 
L 427.665355 -316.708506 
L 424.762529 -314.521322 
L 421.859702 -312.325653 
L 418.956875 -310.101116 
L 416.054049 -307.930953 
L 413.151222 -305.723197 
L 410.248396 -303.519048 
L 407.345569 -301.330805 
L 404.442743 -299.153737 
L 401.539916 -296.976623 
L 398.637089 -294.792848 
L 395.734263 -292.623956 
L 392.831436 -290.413041 
L 389.92861 -288.212168 
L 387.025783 -286.021985 
L 384.122956 -283.773551 
L 381.22013 -281.559327 
L 378.317303 -279.373791 
L 375.414477 -277.180772 
L 372.51165 -274.997527 
L 369.608824 -272.80645 
L 366.705997 -270.622418 
L 363.80317 -268.467846 
L 360.900344 -266.293712 
L 357.997517 -264.11555 
L 355.094691 -261.905868 
L 352.191864 -259.683815 
L 349.289037 -257.440784 
L 346.386211 -255.206682 
L 343.483384 -253.005932 
L 340.580558 -250.82159 
L 337.677731 -248.626146 
L 334.774905 -246.48272 
L 331.872078 -244.361594 
L 328.969251 -242.237922 
L 326.066425 -240.095717 
L 323.163598 -237.883095 
L 320.260772 -235.689493 
L 317.357945 -233.489449 
L 314.455118 -231.245097 
L 311.552292 -229.046194 
L 308.649465 -226.823867 
L 305.746639 -224.61645 
L 302.843812 -222.442455 
L 299.940985 -220.260886 
L 297.038159 -218.087056 
L 294.135332 -215.938984 
L 291.232506 -213.808331 
L 288.329679 -211.630372 
L 285.426853 -209.43319 
L 282.524026 -207.219502 
L 279.621199 -205.010085 
L 276.718373 -202.852084 
L 273.815546 -200.683632 
L 270.91272 -198.468516 
L 268.009893 -196.27872 
L 265.107066 -194.075409 
L 262.20424 -191.902737 
L 259.301413 -189.743102 
L 256.398587 -187.593128 
L 253.49576 -185.394745 
L 250.592934 -183.212597 
L 247.690107 -181.036045 
L 244.78728 -178.796211 
L 241.884454 -176.633241 
L 238.981627 -174.434891 
L 236.078801 -172.229247 
L 233.175974 -170.091714 
L 230.273147 -167.881406 
L 227.370321 -165.703936 
L 224.467494 -163.549263 
L 221.564668 -161.405662 
L 218.661841 -159.248103 
L 215.759015 -157.023407 
L 212.856188 -154.845672 
L 209.953361 -152.658126 
L 207.050535 -150.446173 
L 204.147708 -148.25558 
L 201.244882 -146.095073 
L 198.342055 -143.946998 
L 195.439228 -141.791668 
L 192.536402 -139.584343 
L 189.633575 -137.41596 
L 186.730749 -135.31298 
L 183.827922 -133.127394 
L 180.925095 -130.933907 
L 178.022269 -128.69272 
L 175.119442 -126.50661 
L 172.216616 -124.29882 
L 169.313789 -122.100575 
L 166.410963 -119.870435 
L 163.508136 -117.649567 
L 160.605309 -115.458159 
L 157.702483 -113.27938 
L 154.799656 -111.090413 
L 151.89683 -108.994939 
L 148.994003 -106.796425 
L 146.091176 -104.551446 
L 143.18835 -102.282743 
L 140.285523 -100.013134 
L 137.382697 -97.776139 
L 134.47987 -95.536017 
L 131.577044 -93.342426 
L 128.674217 -91.132761 
L 125.77139 -88.902525 
L 122.868564 -86.685104 
L 119.965737 -84.494931 
L 117.062911 -82.359414 
L 114.160084 -80.124985 
L 111.257257 -77.864257 
L 108.354431 -75.675169 
L 105.451604 -73.40338 
L 102.548778 -71.183293 
L 99.645951 -68.97771 
L 96.743125 -66.771314 
L 93.840298 -64.544435 
L 90.937471 -64.321687 
L 88.034645 -64.093487 
L 85.131818 -63.865558 
z
" style="stroke: #ffffff; stroke-opacity: 0.5"/>
    </defs>
    <g clip-path="url(#p0b3fa757b7)">
     <use xlink:href="#m284049fbef" x="0" y="345.6" style="fill: #55a868; fill-opacity: 0.5; stroke: #ffffff; stroke-opacity: 0.5"/>
    </g>
   </g>
   <g id="line2d_16">
    <path d="M 85.131818 281.852024 
L 88.034645 281.769935 
L 90.937471 281.688688 
L 93.840298 281.607822 
L 96.743125 280.913213 
L 99.645951 280.211917 
L 102.548778 279.515223 
L 105.451604 278.818554 
L 108.354431 278.116868 
L 111.257257 277.425087 
L 114.160084 276.738175 
L 117.062911 276.043912 
L 119.965737 275.352082 
L 122.868564 274.66204 
L 125.77139 273.968421 
L 128.674217 273.277148 
L 131.577044 272.597874 
L 134.47987 271.902734 
L 137.382697 271.210214 
L 140.285523 270.516794 
L 143.18835 269.835493 
L 146.091176 269.15558 
L 148.994003 268.46159 
L 151.89683 267.772057 
L 154.799656 267.074498 
L 157.702483 266.380193 
L 160.605309 265.690991 
L 163.508136 264.995306 
L 166.410963 264.298915 
L 169.313789 263.614234 
L 172.216616 262.917461 
L 175.119442 262.229733 
L 178.022269 261.541462 
L 180.925095 260.852104 
L 183.827922 260.158183 
L 186.730749 259.468349 
L 189.633575 258.783143 
L 192.536402 258.096096 
L 195.439228 257.407516 
L 198.342055 256.712874 
L 201.244882 256.014005 
L 204.147708 255.32173 
L 207.050535 254.638601 
L 209.953361 253.95534 
L 212.856188 253.271083 
L 215.759015 252.587916 
L 218.661841 251.894044 
L 221.564668 251.196196 
L 224.467494 250.510311 
L 227.370321 249.826916 
L 230.273147 249.138751 
L 233.175974 248.449176 
L 236.078801 247.758836 
L 238.981627 247.07102 
L 241.884454 246.388042 
L 244.78728 245.703127 
L 247.690107 245.031297 
L 250.592934 244.34631 
L 253.49576 243.660602 
L 256.398587 242.975743 
L 259.301413 242.294784 
L 262.20424 241.611527 
L 265.107066 240.928243 
L 268.009893 240.236836 
L 270.91272 239.554478 
L 273.815546 238.876356 
L 276.718373 238.188225 
L 279.621199 237.488049 
L 282.524026 236.804553 
L 285.426853 236.118326 
L 288.329679 235.439978 
L 291.232506 234.758109 
L 294.135332 234.07183 
L 297.038159 233.389013 
L 299.940985 232.696121 
L 302.843812 232.004922 
L 305.746639 231.324521 
L 308.649465 230.642157 
L 311.552292 229.957519 
L 314.455118 229.26929 
L 317.357945 228.575242 
L 320.260772 227.887073 
L 323.163598 227.211944 
L 326.066425 226.531189 
L 328.969251 225.8526 
L 331.872078 225.165287 
L 334.774905 224.478313 
L 337.677731 223.794453 
L 340.580558 223.113625 
L 343.483384 222.426108 
L 346.386211 221.74285 
L 349.289037 221.05619 
L 352.191864 220.378393 
L 355.094691 219.693785 
L 357.997517 219.006277 
L 360.900344 218.328059 
L 363.80317 217.646623 
L 366.705997 216.961635 
L 369.608824 216.275981 
L 372.51165 215.590683 
L 375.414477 214.907904 
L 378.317303 214.220739 
L 381.22013 213.532676 
L 384.122956 212.843444 
L 387.025783 212.161906 
L 389.92861 211.489733 
L 392.831436 210.803946 
L 395.734263 210.118608 
L 398.637089 209.438531 
L 401.539916 208.75953 
L 404.442743 208.080739 
L 407.345569 207.404883 
L 410.248396 206.732142 
L 413.151222 206.056027 
L 416.054049 205.374019 
L 418.956875 204.689565 
L 421.859702 203.997683 
L 424.762529 203.314678 
L 427.665355 202.638217 
L 430.568182 201.952963 
" clip-path="url(#p0b3fa757b7)" style="fill: none; stroke: #4c72b0; stroke-width: 3; stroke-linecap: round"/>
   </g>
   <g id="line2d_17">
    <path d="M 85.131818 281.851454 
L 88.034645 281.770715 
L 90.937471 281.689549 
L 93.840298 281.608506 
L 96.743125 279.844288 
L 99.645951 278.093553 
L 102.548778 276.340668 
L 105.451604 274.577539 
L 108.354431 272.818206 
L 111.257257 271.061725 
L 114.160084 269.320001 
L 117.062911 267.570804 
L 119.965737 265.798589 
L 122.868564 264.039681 
L 125.77139 262.259007 
L 128.674217 260.493855 
L 131.577044 258.726976 
L 134.47987 256.971552 
L 137.382697 255.202794 
L 140.285523 253.441126 
L 143.18835 251.684405 
L 146.091176 249.898759 
L 148.994003 248.142863 
L 151.89683 246.384105 
L 154.799656 244.634406 
L 157.702483 242.884504 
L 160.605309 241.141879 
L 163.508136 239.379654 
L 166.410963 237.609377 
L 169.313789 235.85092 
L 172.216616 234.093805 
L 175.119442 232.33162 
L 178.022269 230.569849 
L 180.925095 228.792288 
L 183.827922 227.029427 
L 186.730749 225.265664 
L 189.633575 223.515961 
L 192.536402 221.751041 
L 195.439228 219.982157 
L 198.342055 218.226367 
L 201.244882 216.451391 
L 204.147708 214.694562 
L 207.050535 212.947218 
L 209.953361 211.191794 
L 212.856188 209.44421 
L 215.759015 207.704933 
L 218.661841 205.971683 
L 221.564668 204.221074 
L 224.467494 202.462682 
L 227.370321 200.698531 
L 230.273147 198.951822 
L 233.175974 197.201066 
L 236.078801 195.439775 
L 238.981627 193.695185 
L 241.884454 191.947672 
L 244.78728 190.177638 
L 247.690107 188.424536 
L 250.592934 186.666339 
L 253.49576 184.929086 
L 256.398587 183.191265 
L 259.301413 181.447116 
L 262.20424 179.711149 
L 265.107066 177.953838 
L 268.009893 176.202424 
L 270.91272 174.462969 
L 273.815546 172.716587 
L 276.718373 170.954628 
L 279.621199 169.177251 
L 282.524026 167.423178 
L 285.426853 165.674261 
L 288.329679 163.924434 
L 291.232506 162.182506 
L 294.135332 160.426519 
L 297.038159 158.691153 
L 299.940985 156.955468 
L 302.843812 155.186372 
L 305.746639 153.446941 
L 308.649465 151.686413 
L 311.552292 149.923861 
L 314.455118 148.17188 
L 317.357945 146.411337 
L 320.260772 144.623358 
L 323.163598 142.8637 
L 326.066425 141.078515 
L 328.969251 139.313431 
L 331.872078 137.54854 
L 334.774905 135.808587 
L 337.677731 134.057425 
L 340.580558 132.326688 
L 343.483384 130.572819 
L 346.386211 128.816854 
L 349.289037 127.064032 
L 352.191864 125.330505 
L 355.094691 123.591971 
L 357.997517 121.827502 
L 360.900344 120.054072 
L 363.80317 118.290837 
L 366.705997 116.530084 
L 369.608824 114.793082 
L 372.51165 113.061802 
L 375.414477 111.307054 
L 378.317303 109.558586 
L 381.22013 107.807551 
L 384.122956 106.041998 
L 387.025783 104.283236 
L 389.92861 102.507162 
L 392.831436 100.756551 
L 395.734263 98.995066 
L 398.637089 97.237632 
L 401.539916 95.497927 
L 404.442743 93.726679 
L 407.345569 91.954359 
L 410.248396 90.194319 
L 413.151222 88.448944 
L 416.054049 86.688754 
L 418.956875 84.941301 
L 421.859702 83.198199 
L 424.762529 81.463189 
L 427.665355 79.709072 
L 430.568182 77.966381 
" clip-path="url(#p0b3fa757b7)" style="fill: none; stroke: #dd8452; stroke-width: 3; stroke-linecap: round"/>
   </g>
   <g id="line2d_18">
    <path d="M 85.131818 281.732939 
L 88.034645 281.504979 
L 90.937471 281.27199 
L 93.840298 281.046493 
L 96.743125 278.806773 
L 99.645951 276.578942 
L 102.548778 274.351392 
L 105.451604 272.124274 
L 108.354431 269.864163 
L 111.257257 267.633153 
L 114.160084 265.372405 
L 117.062911 263.11563 
L 119.965737 260.97076 
L 122.868564 258.777662 
L 125.77139 256.553704 
L 128.674217 254.315263 
L 131.577044 252.102073 
L 134.47987 249.899932 
L 137.382697 247.690508 
L 140.285523 245.460261 
L 143.18835 243.233778 
L 146.091176 240.9876 
L 148.994003 238.786892 
L 151.89683 236.5925 
L 154.799656 234.4852 
L 157.702483 232.295975 
L 160.605309 230.112985 
L 163.508136 227.919728 
L 166.410963 225.686556 
L 169.313789 223.448613 
L 172.216616 221.216111 
L 175.119442 218.993029 
L 178.022269 216.774508 
L 180.925095 214.502026 
L 183.827922 212.284207 
L 186.730749 210.058578 
L 189.633575 207.930765 
L 192.536402 205.7386 
L 195.439228 203.50949 
L 198.342055 201.30153 
L 201.244882 199.107395 
L 204.147708 196.897016 
L 207.050535 194.666835 
L 209.953361 192.422064 
L 212.856188 190.212092 
L 215.759015 188.017799 
L 218.661841 185.767384 
L 221.564668 183.578509 
L 224.467494 181.459559 
L 227.370321 179.327346 
L 230.273147 177.156608 
L 233.175974 174.956037 
L 236.078801 172.811306 
L 238.981627 170.619533 
L 241.884454 168.424494 
L 244.78728 166.240798 
L 247.690107 164.018167 
L 250.592934 161.81846 
L 253.49576 159.63721 
L 256.398587 157.464017 
L 259.301413 155.308942 
L 262.20424 153.141959 
L 265.107066 150.958851 
L 268.009893 148.747339 
L 270.91272 146.554977 
L 273.815546 144.34778 
L 276.718373 142.167059 
L 279.621199 139.99803 
L 282.524026 137.773228 
L 285.426853 135.560982 
L 288.329679 133.368105 
L 291.232506 131.17893 
L 294.135332 129.03958 
L 297.038159 126.896331 
L 299.940985 124.739523 
L 302.843812 122.54371 
L 305.746639 120.376729 
L 308.649465 118.161186 
L 311.552292 115.966401 
L 314.455118 113.780292 
L 317.357945 111.54396 
L 320.260772 109.348625 
L 323.163598 107.152286 
L 326.066425 104.945514 
L 328.969251 102.797474 
L 331.872078 100.657039 
L 334.774905 98.514575 
L 337.677731 96.342319 
L 340.580558 94.168763 
L 343.483384 91.976574 
L 346.386211 89.802076 
L 349.289037 87.586588 
L 352.191864 85.355085 
L 355.094691 83.129398 
L 357.997517 80.940321 
L 360.900344 78.756494 
L 363.80317 76.588276 
L 366.705997 74.435708 
L 369.608824 72.262602 
L 372.51165 70.080849 
L 375.414477 67.891474 
L 378.317303 65.698239 
L 381.22013 63.517365 
L 384.122956 61.331352 
L 387.025783 59.095883 
L 389.92861 56.918089 
L 392.831436 54.717381 
L 395.734263 52.523501 
L 398.637089 50.364515 
L 401.539916 48.175608 
L 404.442743 45.994069 
L 407.345569 43.814439 
L 410.248396 41.620428 
L 413.151222 39.427864 
L 416.054049 37.222028 
L 418.956875 35.033763 
L 421.859702 32.807133 
L 424.762529 30.602583 
L 427.665355 28.419303 
L 430.568182 26.239754 
" clip-path="url(#p0b3fa757b7)" style="fill: none; stroke: #55a868; stroke-width: 3; stroke-linecap: round"/>
   </g>
   <g id="patch_3">
    <path d="M 67.86 294.66 
L 67.86 12.96 
" style="fill: none; stroke: #ffffff; stroke-width: 1.25; stroke-linejoin: miter; stroke-linecap: square"/>
   </g>
   <g id="patch_4">
    <path d="M 447.84 294.66 
L 447.84 12.96 
" style="fill: none; stroke: #ffffff; stroke-width: 1.25; stroke-linejoin: miter; stroke-linecap: square"/>
   </g>
   <g id="patch_5">
    <path d="M 67.86 294.66 
L 447.84 294.66 
" style="fill: none; stroke: #ffffff; stroke-width: 1.25; stroke-linejoin: miter; stroke-linecap: square"/>
   </g>
   <g id="patch_6">
    <path d="M 67.86 12.96 
L 447.84 12.96 
" style="fill: none; stroke: #ffffff; stroke-width: 1.25; stroke-linejoin: miter; stroke-linecap: square"/>
   </g>
   <g id="legend_1">
    <g id="patch_7">
     <path d="M 75.56 70.197812 
L 216.389219 70.197812 
Q 218.589219 70.197812 218.589219 67.997813 
L 218.589219 20.66 
Q 218.589219 18.46 216.389219 18.46 
L 75.56 18.46 
Q 73.36 18.46 73.36 20.66 
L 73.36 67.997813 
Q 73.36 70.197812 75.56 70.197812 
z
" style="fill: #eaeaf2; opacity: 0.8; stroke: #cccccc; stroke-linejoin: miter"/>
    </g>
    <g id="line2d_19">
     <path d="M 77.76 27.368281 
L 88.76 27.368281 
L 99.76 27.368281 
" style="fill: none; stroke: #4c72b0; stroke-width: 3; stroke-linecap: round"/>
    </g>
    <g id="text_18">
     <!-- SAC-DELAY-5 -->
     <g style="fill: #262626" transform="translate(108.56 31.218281)scale(0.11 -0.11)">
      <defs>
       <path id="DejaVuSans-53" d="M 3425 4513 
L 3425 3897 
Q 3066 4069 2747 4153 
Q 2428 4238 2131 4238 
Q 1616 4238 1336 4038 
Q 1056 3838 1056 3469 
Q 1056 3159 1242 3001 
Q 1428 2844 1947 2747 
L 2328 2669 
Q 3034 2534 3370 2195 
Q 3706 1856 3706 1288 
Q 3706 609 3251 259 
Q 2797 -91 1919 -91 
Q 1588 -91 1214 -16 
Q 841 59 441 206 
L 441 856 
Q 825 641 1194 531 
Q 1563 422 1919 422 
Q 2459 422 2753 634 
Q 3047 847 3047 1241 
Q 3047 1584 2836 1778 
Q 2625 1972 2144 2069 
L 1759 2144 
Q 1053 2284 737 2584 
Q 422 2884 422 3419 
Q 422 4038 858 4394 
Q 1294 4750 2059 4750 
Q 2388 4750 2728 4690 
Q 3069 4631 3425 4513 
z
" transform="scale(0.015625)"/>
       <path id="DejaVuSans-41" d="M 2188 4044 
L 1331 1722 
L 3047 1722 
L 2188 4044 
z
M 1831 4666 
L 2547 4666 
L 4325 0 
L 3669 0 
L 3244 1197 
L 1141 1197 
L 716 0 
L 50 0 
L 1831 4666 
z
" transform="scale(0.015625)"/>
       <path id="DejaVuSans-43" d="M 4122 4306 
L 4122 3641 
Q 3803 3938 3442 4084 
Q 3081 4231 2675 4231 
Q 1875 4231 1450 3742 
Q 1025 3253 1025 2328 
Q 1025 1406 1450 917 
Q 1875 428 2675 428 
Q 3081 428 3442 575 
Q 3803 722 4122 1019 
L 4122 359 
Q 3791 134 3420 21 
Q 3050 -91 2638 -91 
Q 1578 -91 968 557 
Q 359 1206 359 2328 
Q 359 3453 968 4101 
Q 1578 4750 2638 4750 
Q 3056 4750 3426 4639 
Q 3797 4528 4122 4306 
z
" transform="scale(0.015625)"/>
       <path id="DejaVuSans-2d" d="M 313 2009 
L 1997 2009 
L 1997 1497 
L 313 1497 
L 313 2009 
z
" transform="scale(0.015625)"/>
       <path id="DejaVuSans-44" d="M 1259 4147 
L 1259 519 
L 2022 519 
Q 2988 519 3436 956 
Q 3884 1394 3884 2338 
Q 3884 3275 3436 3711 
Q 2988 4147 2022 4147 
L 1259 4147 
z
M 628 4666 
L 1925 4666 
Q 3281 4666 3915 4102 
Q 4550 3538 4550 2338 
Q 4550 1131 3912 565 
Q 3275 0 1925 0 
L 628 0 
L 628 4666 
z
" transform="scale(0.015625)"/>
       <path id="DejaVuSans-45" d="M 628 4666 
L 3578 4666 
L 3578 4134 
L 1259 4134 
L 1259 2753 
L 3481 2753 
L 3481 2222 
L 1259 2222 
L 1259 531 
L 3634 531 
L 3634 0 
L 628 0 
L 628 4666 
z
" transform="scale(0.015625)"/>
       <path id="DejaVuSans-4c" d="M 628 4666 
L 1259 4666 
L 1259 531 
L 3531 531 
L 3531 0 
L 628 0 
L 628 4666 
z
" transform="scale(0.015625)"/>
       <path id="DejaVuSans-59" d="M -13 4666 
L 666 4666 
L 1959 2747 
L 3244 4666 
L 3922 4666 
L 2272 2222 
L 2272 0 
L 1638 0 
L 1638 2222 
L -13 4666 
z
" transform="scale(0.015625)"/>
      </defs>
      <use xlink:href="#DejaVuSans-53"/>
      <use xlink:href="#DejaVuSans-41" x="65.351562"/>
      <use xlink:href="#DejaVuSans-43" x="132.009766"/>
      <use xlink:href="#DejaVuSans-2d" x="201.833984"/>
      <use xlink:href="#DejaVuSans-44" x="237.917969"/>
      <use xlink:href="#DejaVuSans-45" x="314.919922"/>
      <use xlink:href="#DejaVuSans-4c" x="378.103516"/>
      <use xlink:href="#DejaVuSans-41" x="436.066406"/>
      <use xlink:href="#DejaVuSans-59" x="496.724609"/>
      <use xlink:href="#DejaVuSans-2d" x="545.933594"/>
      <use xlink:href="#DejaVuSans-35" x="582.017578"/>
     </g>
    </g>
    <g id="line2d_20">
     <path d="M 77.76 43.514219 
L 88.76 43.514219 
L 99.76 43.514219 
" style="fill: none; stroke: #dd8452; stroke-width: 3; stroke-linecap: round"/>
    </g>
    <g id="text_19">
     <!-- SAC-IS-DELAY-5 -->
     <g style="fill: #262626" transform="translate(108.56 47.364219)scale(0.11 -0.11)">
      <defs>
       <path id="DejaVuSans-49" d="M 628 4666 
L 1259 4666 
L 1259 0 
L 628 0 
L 628 4666 
z
" transform="scale(0.015625)"/>
      </defs>
      <use xlink:href="#DejaVuSans-53"/>
      <use xlink:href="#DejaVuSans-41" x="65.351562"/>
      <use xlink:href="#DejaVuSans-43" x="132.009766"/>
      <use xlink:href="#DejaVuSans-2d" x="201.833984"/>
      <use xlink:href="#DejaVuSans-49" x="237.917969"/>
      <use xlink:href="#DejaVuSans-53" x="267.410156"/>
      <use xlink:href="#DejaVuSans-2d" x="330.886719"/>
      <use xlink:href="#DejaVuSans-44" x="366.970703"/>
      <use xlink:href="#DejaVuSans-45" x="443.972656"/>
      <use xlink:href="#DejaVuSans-4c" x="507.15625"/>
      <use xlink:href="#DejaVuSans-41" x="565.119141"/>
      <use xlink:href="#DejaVuSans-59" x="625.777344"/>
      <use xlink:href="#DejaVuSans-2d" x="674.986328"/>
      <use xlink:href="#DejaVuSans-35" x="711.070312"/>
     </g>
    </g>
    <g id="line2d_21">
     <path d="M 77.76 59.660156 
L 88.76 59.660156 
L 99.76 59.660156 
" style="fill: none; stroke: #55a868; stroke-width: 3; stroke-linecap: round"/>
    </g>
    <g id="text_20">
     <!-- DCAC-DELAY-5-16C -->
     <g style="fill: #262626" transform="translate(108.56 63.510156)scale(0.11 -0.11)">
      <defs>
       <path id="DejaVuSans-36" d="M 2113 2584 
Q 1688 2584 1439 2293 
Q 1191 2003 1191 1497 
Q 1191 994 1439 701 
Q 1688 409 2113 409 
Q 2538 409 2786 701 
Q 3034 994 3034 1497 
Q 3034 2003 2786 2293 
Q 2538 2584 2113 2584 
z
M 3366 4563 
L 3366 3988 
Q 3128 4100 2886 4159 
Q 2644 4219 2406 4219 
Q 1781 4219 1451 3797 
Q 1122 3375 1075 2522 
Q 1259 2794 1537 2939 
Q 1816 3084 2150 3084 
Q 2853 3084 3261 2657 
Q 3669 2231 3669 1497 
Q 3669 778 3244 343 
Q 2819 -91 2113 -91 
Q 1303 -91 875 529 
Q 447 1150 447 2328 
Q 447 3434 972 4092 
Q 1497 4750 2381 4750 
Q 2619 4750 2861 4703 
Q 3103 4656 3366 4563 
z
" transform="scale(0.015625)"/>
      </defs>
      <use xlink:href="#DejaVuSans-44"/>
      <use xlink:href="#DejaVuSans-43" x="77.001953"/>
      <use xlink:href="#DejaVuSans-41" x="146.826172"/>
      <use xlink:href="#DejaVuSans-43" x="213.484375"/>
      <use xlink:href="#DejaVuSans-2d" x="283.308594"/>
      <use xlink:href="#DejaVuSans-44" x="319.392578"/>
      <use xlink:href="#DejaVuSans-45" x="396.394531"/>
      <use xlink:href="#DejaVuSans-4c" x="459.578125"/>
      <use xlink:href="#DejaVuSans-41" x="517.541016"/>
      <use xlink:href="#DejaVuSans-59" x="578.199219"/>
      <use xlink:href="#DejaVuSans-2d" x="627.408203"/>
      <use xlink:href="#DejaVuSans-35" x="663.492188"/>
      <use xlink:href="#DejaVuSans-2d" x="727.115234"/>
      <use xlink:href="#DejaVuSans-31" x="763.199219"/>
      <use xlink:href="#DejaVuSans-36" x="826.822266"/>
      <use xlink:href="#DejaVuSans-43" x="890.445312"/>
     </g>
    </g>
   </g>
  </g>
 </g>
 <defs>
  <clipPath id="p0b3fa757b7">
   <rect x="67.86" y="12.96" width="379.98" height="281.7"/>
  </clipPath>
 </defs>
</svg>
