<?xml version="1.0" encoding="utf-8" standalone="no"?>
<!DOCTYPE svg PUBLIC "-//W3C//DTD SVG 1.1//EN"
  "http://www.w3.org/Graphics/SVG/1.1/DTD/svg11.dtd">
<svg xmlns:xlink="http://www.w3.org/1999/xlink" width="460.8pt" height="345.6pt" viewBox="0 0 460.8 345.6" xmlns="http://www.w3.org/2000/svg" version="1.1">
 <metadata>
  <rdf:RDF xmlns:dc="http://purl.org/dc/elements/1.1/" xmlns:cc="http://creativecommons.org/ns#" xmlns:rdf="http://www.w3.org/1999/02/22-rdf-syntax-ns#">
   <cc:Work>
    <dc:type rdf:resource="http://purl.org/dc/dcmitype/StillImage"/>
    <dc:date>2022-09-10T15:50:38.956535</dc:date>
    <dc:format>image/svg+xml</dc:format>
    <dc:creator>
     <cc:Agent>
      <dc:title>Matplotlib v3.5.3, https://matplotlib.org/</dc:title>
     </cc:Agent>
    </dc:creator>
   </cc:Work>
  </rdf:RDF>
 </metadata>
 <defs>
  <style type="text/css">*{stroke-linejoin: round; stroke-linecap: butt}</style>
 </defs>
 <g id="figure_1">
  <g id="patch_1">
   <path d="M 0 345.6 
L 460.8 345.6 
L 460.8 0 
L 0 0 
z
" style="fill: #ffffff"/>
  </g>
  <g id="axes_1">
   <g id="patch_2">
    <path d="M 74.88 294.66 
L 447.84 294.66 
L 447.84 29.76 
L 74.88 29.76 
z
" style="fill: #eaeaf2"/>
   </g>
   <g id="matplotlib.axis_1">
    <g id="xtick_1">
     <g id="line2d_1">
      <path d="M 88.983529 294.66 
L 88.983529 29.76 
" clip-path="url(#pc9fabfabae)" style="fill: none; stroke: #ffffff; stroke-linecap: round"/>
     </g>
     <g id="text_1">
      <!-- 0.00 -->
      <g style="fill: #262626" transform="translate(76.737436 312.518281)scale(0.11 -0.11)">
       <defs>
        <path id="DejaVuSans-30" d="M 2034 4250 
Q 1547 4250 1301 3770 
Q 1056 3291 1056 2328 
Q 1056 1369 1301 889 
Q 1547 409 2034 409 
Q 2525 409 2770 889 
Q 3016 1369 3016 2328 
Q 3016 3291 2770 3770 
Q 2525 4250 2034 4250 
z
M 2034 4750 
Q 2819 4750 3233 4129 
Q 3647 3509 3647 2328 
Q 3647 1150 3233 529 
Q 2819 -91 2034 -91 
Q 1250 -91 836 529 
Q 422 1150 422 2328 
Q 422 3509 836 4129 
Q 1250 4750 2034 4750 
z
" transform="scale(0.015625)"/>
        <path id="DejaVuSans-2e" d="M 684 794 
L 1344 794 
L 1344 0 
L 684 0 
L 684 794 
z
" transform="scale(0.015625)"/>
       </defs>
       <use xlink:href="#DejaVuSans-30"/>
       <use xlink:href="#DejaVuSans-2e" x="63.623047"/>
       <use xlink:href="#DejaVuSans-30" x="95.410156"/>
       <use xlink:href="#DejaVuSans-30" x="159.033203"/>
      </g>
     </g>
    </g>
    <g id="xtick_2">
     <g id="line2d_2">
      <path d="M 145.967487 294.66 
L 145.967487 29.76 
" clip-path="url(#pc9fabfabae)" style="fill: none; stroke: #ffffff; stroke-linecap: round"/>
     </g>
     <g id="text_2">
      <!-- 0.05 -->
      <g style="fill: #262626" transform="translate(133.721393 312.518281)scale(0.11 -0.11)">
       <defs>
        <path id="DejaVuSans-35" d="M 691 4666 
L 3169 4666 
L 3169 4134 
L 1269 4134 
L 1269 2991 
Q 1406 3038 1543 3061 
Q 1681 3084 1819 3084 
Q 2600 3084 3056 2656 
Q 3513 2228 3513 1497 
Q 3513 744 3044 326 
Q 2575 -91 1722 -91 
Q 1428 -91 1123 -41 
Q 819 9 494 109 
L 494 744 
Q 775 591 1075 516 
Q 1375 441 1709 441 
Q 2250 441 2565 725 
Q 2881 1009 2881 1497 
Q 2881 1984 2565 2268 
Q 2250 2553 1709 2553 
Q 1456 2553 1204 2497 
Q 953 2441 691 2322 
L 691 4666 
z
" transform="scale(0.015625)"/>
       </defs>
       <use xlink:href="#DejaVuSans-30"/>
       <use xlink:href="#DejaVuSans-2e" x="63.623047"/>
       <use xlink:href="#DejaVuSans-30" x="95.410156"/>
       <use xlink:href="#DejaVuSans-35" x="159.033203"/>
      </g>
     </g>
    </g>
    <g id="xtick_3">
     <g id="line2d_3">
      <path d="M 202.951444 294.66 
L 202.951444 29.76 
" clip-path="url(#pc9fabfabae)" style="fill: none; stroke: #ffffff; stroke-linecap: round"/>
     </g>
     <g id="text_3">
      <!-- 0.10 -->
      <g style="fill: #262626" transform="translate(190.70535 312.518281)scale(0.11 -0.11)">
       <defs>
        <path id="DejaVuSans-31" d="M 794 531 
L 1825 531 
L 1825 4091 
L 703 3866 
L 703 4441 
L 1819 4666 
L 2450 4666 
L 2450 531 
L 3481 531 
L 3481 0 
L 794 0 
L 794 531 
z
" transform="scale(0.015625)"/>
       </defs>
       <use xlink:href="#DejaVuSans-30"/>
       <use xlink:href="#DejaVuSans-2e" x="63.623047"/>
       <use xlink:href="#DejaVuSans-31" x="95.410156"/>
       <use xlink:href="#DejaVuSans-30" x="159.033203"/>
      </g>
     </g>
    </g>
    <g id="xtick_4">
     <g id="line2d_4">
      <path d="M 259.935401 294.66 
L 259.935401 29.76 
" clip-path="url(#pc9fabfabae)" style="fill: none; stroke: #ffffff; stroke-linecap: round"/>
     </g>
     <g id="text_4">
      <!-- 0.15 -->
      <g style="fill: #262626" transform="translate(247.689307 312.518281)scale(0.11 -0.11)">
       <use xlink:href="#DejaVuSans-30"/>
       <use xlink:href="#DejaVuSans-2e" x="63.623047"/>
       <use xlink:href="#DejaVuSans-31" x="95.410156"/>
       <use xlink:href="#DejaVuSans-35" x="159.033203"/>
      </g>
     </g>
    </g>
    <g id="xtick_5">
     <g id="line2d_5">
      <path d="M 316.919358 294.66 
L 316.919358 29.76 
" clip-path="url(#pc9fabfabae)" style="fill: none; stroke: #ffffff; stroke-linecap: round"/>
     </g>
     <g id="text_5">
      <!-- 0.20 -->
      <g style="fill: #262626" transform="translate(304.673265 312.518281)scale(0.11 -0.11)">
       <defs>
        <path id="DejaVuSans-32" d="M 1228 531 
L 3431 531 
L 3431 0 
L 469 0 
L 469 531 
Q 828 903 1448 1529 
Q 2069 2156 2228 2338 
Q 2531 2678 2651 2914 
Q 2772 3150 2772 3378 
Q 2772 3750 2511 3984 
Q 2250 4219 1831 4219 
Q 1534 4219 1204 4116 
Q 875 4013 500 3803 
L 500 4441 
Q 881 4594 1212 4672 
Q 1544 4750 1819 4750 
Q 2544 4750 2975 4387 
Q 3406 4025 3406 3419 
Q 3406 3131 3298 2873 
Q 3191 2616 2906 2266 
Q 2828 2175 2409 1742 
Q 1991 1309 1228 531 
z
" transform="scale(0.015625)"/>
       </defs>
       <use xlink:href="#DejaVuSans-30"/>
       <use xlink:href="#DejaVuSans-2e" x="63.623047"/>
       <use xlink:href="#DejaVuSans-32" x="95.410156"/>
       <use xlink:href="#DejaVuSans-30" x="159.033203"/>
      </g>
     </g>
    </g>
    <g id="xtick_6">
     <g id="line2d_6">
      <path d="M 373.903316 294.66 
L 373.903316 29.76 
" clip-path="url(#pc9fabfabae)" style="fill: none; stroke: #ffffff; stroke-linecap: round"/>
     </g>
     <g id="text_6">
      <!-- 0.25 -->
      <g style="fill: #262626" transform="translate(361.657222 312.518281)scale(0.11 -0.11)">
       <use xlink:href="#DejaVuSans-30"/>
       <use xlink:href="#DejaVuSans-2e" x="63.623047"/>
       <use xlink:href="#DejaVuSans-32" x="95.410156"/>
       <use xlink:href="#DejaVuSans-35" x="159.033203"/>
      </g>
     </g>
    </g>
    <g id="xtick_7">
     <g id="line2d_7">
      <path d="M 430.887273 294.66 
L 430.887273 29.76 
" clip-path="url(#pc9fabfabae)" style="fill: none; stroke: #ffffff; stroke-linecap: round"/>
     </g>
     <g id="text_7">
      <!-- 0.30 -->
      <g style="fill: #262626" transform="translate(418.641179 312.518281)scale(0.11 -0.11)">
       <defs>
        <path id="DejaVuSans-33" d="M 2597 2516 
Q 3050 2419 3304 2112 
Q 3559 1806 3559 1356 
Q 3559 666 3084 287 
Q 2609 -91 1734 -91 
Q 1441 -91 1130 -33 
Q 819 25 488 141 
L 488 750 
Q 750 597 1062 519 
Q 1375 441 1716 441 
Q 2309 441 2620 675 
Q 2931 909 2931 1356 
Q 2931 1769 2642 2001 
Q 2353 2234 1838 2234 
L 1294 2234 
L 1294 2753 
L 1863 2753 
Q 2328 2753 2575 2939 
Q 2822 3125 2822 3475 
Q 2822 3834 2567 4026 
Q 2313 4219 1838 4219 
Q 1578 4219 1281 4162 
Q 984 4106 628 3988 
L 628 4550 
Q 988 4650 1302 4700 
Q 1616 4750 1894 4750 
Q 2613 4750 3031 4423 
Q 3450 4097 3450 3541 
Q 3450 3153 3228 2886 
Q 3006 2619 2597 2516 
z
" transform="scale(0.015625)"/>
       </defs>
       <use xlink:href="#DejaVuSans-30"/>
       <use xlink:href="#DejaVuSans-2e" x="63.623047"/>
       <use xlink:href="#DejaVuSans-33" x="95.410156"/>
       <use xlink:href="#DejaVuSans-30" x="159.033203"/>
      </g>
     </g>
    </g>
    <g id="text_8">
     <!-- Timesteps (in Million) -->
     <g style="fill: #262626" transform="translate(186.614219 329.44375)scale(0.14 -0.14)">
      <defs>
       <path id="DejaVuSans-54" d="M -19 4666 
L 3928 4666 
L 3928 4134 
L 2272 4134 
L 2272 0 
L 1638 0 
L 1638 4134 
L -19 4134 
L -19 4666 
z
" transform="scale(0.015625)"/>
       <path id="DejaVuSans-69" d="M 603 3500 
L 1178 3500 
L 1178 0 
L 603 0 
L 603 3500 
z
M 603 4863 
L 1178 4863 
L 1178 4134 
L 603 4134 
L 603 4863 
z
" transform="scale(0.015625)"/>
       <path id="DejaVuSans-6d" d="M 3328 2828 
Q 3544 3216 3844 3400 
Q 4144 3584 4550 3584 
Q 5097 3584 5394 3201 
Q 5691 2819 5691 2113 
L 5691 0 
L 5113 0 
L 5113 2094 
Q 5113 2597 4934 2840 
Q 4756 3084 4391 3084 
Q 3944 3084 3684 2787 
Q 3425 2491 3425 1978 
L 3425 0 
L 2847 0 
L 2847 2094 
Q 2847 2600 2669 2842 
Q 2491 3084 2119 3084 
Q 1678 3084 1418 2786 
Q 1159 2488 1159 1978 
L 1159 0 
L 581 0 
L 581 3500 
L 1159 3500 
L 1159 2956 
Q 1356 3278 1631 3431 
Q 1906 3584 2284 3584 
Q 2666 3584 2933 3390 
Q 3200 3197 3328 2828 
z
" transform="scale(0.015625)"/>
       <path id="DejaVuSans-65" d="M 3597 1894 
L 3597 1613 
L 953 1613 
Q 991 1019 1311 708 
Q 1631 397 2203 397 
Q 2534 397 2845 478 
Q 3156 559 3463 722 
L 3463 178 
Q 3153 47 2828 -22 
Q 2503 -91 2169 -91 
Q 1331 -91 842 396 
Q 353 884 353 1716 
Q 353 2575 817 3079 
Q 1281 3584 2069 3584 
Q 2775 3584 3186 3129 
Q 3597 2675 3597 1894 
z
M 3022 2063 
Q 3016 2534 2758 2815 
Q 2500 3097 2075 3097 
Q 1594 3097 1305 2825 
Q 1016 2553 972 2059 
L 3022 2063 
z
" transform="scale(0.015625)"/>
       <path id="DejaVuSans-73" d="M 2834 3397 
L 2834 2853 
Q 2591 2978 2328 3040 
Q 2066 3103 1784 3103 
Q 1356 3103 1142 2972 
Q 928 2841 928 2578 
Q 928 2378 1081 2264 
Q 1234 2150 1697 2047 
L 1894 2003 
Q 2506 1872 2764 1633 
Q 3022 1394 3022 966 
Q 3022 478 2636 193 
Q 2250 -91 1575 -91 
Q 1294 -91 989 -36 
Q 684 19 347 128 
L 347 722 
Q 666 556 975 473 
Q 1284 391 1588 391 
Q 1994 391 2212 530 
Q 2431 669 2431 922 
Q 2431 1156 2273 1281 
Q 2116 1406 1581 1522 
L 1381 1569 
Q 847 1681 609 1914 
Q 372 2147 372 2553 
Q 372 3047 722 3315 
Q 1072 3584 1716 3584 
Q 2034 3584 2315 3537 
Q 2597 3491 2834 3397 
z
" transform="scale(0.015625)"/>
       <path id="DejaVuSans-74" d="M 1172 4494 
L 1172 3500 
L 2356 3500 
L 2356 3053 
L 1172 3053 
L 1172 1153 
Q 1172 725 1289 603 
Q 1406 481 1766 481 
L 2356 481 
L 2356 0 
L 1766 0 
Q 1100 0 847 248 
Q 594 497 594 1153 
L 594 3053 
L 172 3053 
L 172 3500 
L 594 3500 
L 594 4494 
L 1172 4494 
z
" transform="scale(0.015625)"/>
       <path id="DejaVuSans-70" d="M 1159 525 
L 1159 -1331 
L 581 -1331 
L 581 3500 
L 1159 3500 
L 1159 2969 
Q 1341 3281 1617 3432 
Q 1894 3584 2278 3584 
Q 2916 3584 3314 3078 
Q 3713 2572 3713 1747 
Q 3713 922 3314 415 
Q 2916 -91 2278 -91 
Q 1894 -91 1617 61 
Q 1341 213 1159 525 
z
M 3116 1747 
Q 3116 2381 2855 2742 
Q 2594 3103 2138 3103 
Q 1681 3103 1420 2742 
Q 1159 2381 1159 1747 
Q 1159 1113 1420 752 
Q 1681 391 2138 391 
Q 2594 391 2855 752 
Q 3116 1113 3116 1747 
z
" transform="scale(0.015625)"/>
       <path id="DejaVuSans-20" transform="scale(0.015625)"/>
       <path id="DejaVuSans-28" d="M 1984 4856 
Q 1566 4138 1362 3434 
Q 1159 2731 1159 2009 
Q 1159 1288 1364 580 
Q 1569 -128 1984 -844 
L 1484 -844 
Q 1016 -109 783 600 
Q 550 1309 550 2009 
Q 550 2706 781 3412 
Q 1013 4119 1484 4856 
L 1984 4856 
z
" transform="scale(0.015625)"/>
       <path id="DejaVuSans-6e" d="M 3513 2113 
L 3513 0 
L 2938 0 
L 2938 2094 
Q 2938 2591 2744 2837 
Q 2550 3084 2163 3084 
Q 1697 3084 1428 2787 
Q 1159 2491 1159 1978 
L 1159 0 
L 581 0 
L 581 3500 
L 1159 3500 
L 1159 2956 
Q 1366 3272 1645 3428 
Q 1925 3584 2291 3584 
Q 2894 3584 3203 3211 
Q 3513 2838 3513 2113 
z
" transform="scale(0.015625)"/>
       <path id="DejaVuSans-4d" d="M 628 4666 
L 1569 4666 
L 2759 1491 
L 3956 4666 
L 4897 4666 
L 4897 0 
L 4281 0 
L 4281 4097 
L 3078 897 
L 2444 897 
L 1241 4097 
L 1241 0 
L 628 0 
L 628 4666 
z
" transform="scale(0.015625)"/>
       <path id="DejaVuSans-6c" d="M 603 4863 
L 1178 4863 
L 1178 0 
L 603 0 
L 603 4863 
z
" transform="scale(0.015625)"/>
       <path id="DejaVuSans-6f" d="M 1959 3097 
Q 1497 3097 1228 2736 
Q 959 2375 959 1747 
Q 959 1119 1226 758 
Q 1494 397 1959 397 
Q 2419 397 2687 759 
Q 2956 1122 2956 1747 
Q 2956 2369 2687 2733 
Q 2419 3097 1959 3097 
z
M 1959 3584 
Q 2709 3584 3137 3096 
Q 3566 2609 3566 1747 
Q 3566 888 3137 398 
Q 2709 -91 1959 -91 
Q 1206 -91 779 398 
Q 353 888 353 1747 
Q 353 2609 779 3096 
Q 1206 3584 1959 3584 
z
" transform="scale(0.015625)"/>
       <path id="DejaVuSans-29" d="M 513 4856 
L 1013 4856 
Q 1481 4119 1714 3412 
Q 1947 2706 1947 2009 
Q 1947 1309 1714 600 
Q 1481 -109 1013 -844 
L 513 -844 
Q 928 -128 1133 580 
Q 1338 1288 1338 2009 
Q 1338 2731 1133 3434 
Q 928 4138 513 4856 
z
" transform="scale(0.015625)"/>
      </defs>
      <use xlink:href="#DejaVuSans-54"/>
      <use xlink:href="#DejaVuSans-69" x="57.958984"/>
      <use xlink:href="#DejaVuSans-6d" x="85.742188"/>
      <use xlink:href="#DejaVuSans-65" x="183.154297"/>
      <use xlink:href="#DejaVuSans-73" x="244.677734"/>
      <use xlink:href="#DejaVuSans-74" x="296.777344"/>
      <use xlink:href="#DejaVuSans-65" x="335.986328"/>
      <use xlink:href="#DejaVuSans-70" x="397.509766"/>
      <use xlink:href="#DejaVuSans-73" x="460.986328"/>
      <use xlink:href="#DejaVuSans-20" x="513.085938"/>
      <use xlink:href="#DejaVuSans-28" x="544.873047"/>
      <use xlink:href="#DejaVuSans-69" x="583.886719"/>
      <use xlink:href="#DejaVuSans-6e" x="611.669922"/>
      <use xlink:href="#DejaVuSans-20" x="675.048828"/>
      <use xlink:href="#DejaVuSans-4d" x="706.835938"/>
      <use xlink:href="#DejaVuSans-69" x="793.115234"/>
      <use xlink:href="#DejaVuSans-6c" x="820.898438"/>
      <use xlink:href="#DejaVuSans-6c" x="848.681641"/>
      <use xlink:href="#DejaVuSans-69" x="876.464844"/>
      <use xlink:href="#DejaVuSans-6f" x="904.248047"/>
      <use xlink:href="#DejaVuSans-6e" x="965.429688"/>
      <use xlink:href="#DejaVuSans-29" x="1028.808594"/>
     </g>
    </g>
   </g>
   <g id="matplotlib.axis_2">
    <g id="ytick_1">
     <g id="line2d_8">
      <path d="M 74.88 282.621484 
L 447.84 282.621484 
" clip-path="url(#pc9fabfabae)" style="fill: none; stroke: #ffffff; stroke-linecap: round"/>
     </g>
     <g id="text_9">
      <!-- 0 -->
      <g style="fill: #262626" transform="translate(58.38125 286.800624)scale(0.11 -0.11)">
       <use xlink:href="#DejaVuSans-30"/>
      </g>
     </g>
    </g>
    <g id="ytick_2">
     <g id="line2d_9">
      <path d="M 74.88 238.864239 
L 447.84 238.864239 
" clip-path="url(#pc9fabfabae)" style="fill: none; stroke: #ffffff; stroke-linecap: round"/>
     </g>
     <g id="text_10">
      <!-- 10000 -->
      <g style="fill: #262626" transform="translate(30.38625 243.04338)scale(0.11 -0.11)">
       <use xlink:href="#DejaVuSans-31"/>
       <use xlink:href="#DejaVuSans-30" x="63.623047"/>
       <use xlink:href="#DejaVuSans-30" x="127.246094"/>
       <use xlink:href="#DejaVuSans-30" x="190.869141"/>
       <use xlink:href="#DejaVuSans-30" x="254.492188"/>
      </g>
     </g>
    </g>
    <g id="ytick_3">
     <g id="line2d_10">
      <path d="M 74.88 195.106995 
L 447.84 195.106995 
" clip-path="url(#pc9fabfabae)" style="fill: none; stroke: #ffffff; stroke-linecap: round"/>
     </g>
     <g id="text_11">
      <!-- 20000 -->
      <g style="fill: #262626" transform="translate(30.38625 199.286136)scale(0.11 -0.11)">
       <use xlink:href="#DejaVuSans-32"/>
       <use xlink:href="#DejaVuSans-30" x="63.623047"/>
       <use xlink:href="#DejaVuSans-30" x="127.246094"/>
       <use xlink:href="#DejaVuSans-30" x="190.869141"/>
       <use xlink:href="#DejaVuSans-30" x="254.492188"/>
      </g>
     </g>
    </g>
    <g id="ytick_4">
     <g id="line2d_11">
      <path d="M 74.88 151.349751 
L 447.84 151.349751 
" clip-path="url(#pc9fabfabae)" style="fill: none; stroke: #ffffff; stroke-linecap: round"/>
     </g>
     <g id="text_12">
      <!-- 30000 -->
      <g style="fill: #262626" transform="translate(30.38625 155.528892)scale(0.11 -0.11)">
       <use xlink:href="#DejaVuSans-33"/>
       <use xlink:href="#DejaVuSans-30" x="63.623047"/>
       <use xlink:href="#DejaVuSans-30" x="127.246094"/>
       <use xlink:href="#DejaVuSans-30" x="190.869141"/>
       <use xlink:href="#DejaVuSans-30" x="254.492188"/>
      </g>
     </g>
    </g>
    <g id="ytick_5">
     <g id="line2d_12">
      <path d="M 74.88 107.592507 
L 447.84 107.592507 
" clip-path="url(#pc9fabfabae)" style="fill: none; stroke: #ffffff; stroke-linecap: round"/>
     </g>
     <g id="text_13">
      <!-- 40000 -->
      <g style="fill: #262626" transform="translate(30.38625 111.771647)scale(0.11 -0.11)">
       <defs>
        <path id="DejaVuSans-34" d="M 2419 4116 
L 825 1625 
L 2419 1625 
L 2419 4116 
z
M 2253 4666 
L 3047 4666 
L 3047 1625 
L 3713 1625 
L 3713 1100 
L 3047 1100 
L 3047 0 
L 2419 0 
L 2419 1100 
L 313 1100 
L 313 1709 
L 2253 4666 
z
" transform="scale(0.015625)"/>
       </defs>
       <use xlink:href="#DejaVuSans-34"/>
       <use xlink:href="#DejaVuSans-30" x="63.623047"/>
       <use xlink:href="#DejaVuSans-30" x="127.246094"/>
       <use xlink:href="#DejaVuSans-30" x="190.869141"/>
       <use xlink:href="#DejaVuSans-30" x="254.492188"/>
      </g>
     </g>
    </g>
    <g id="ytick_6">
     <g id="line2d_13">
      <path d="M 74.88 63.835262 
L 447.84 63.835262 
" clip-path="url(#pc9fabfabae)" style="fill: none; stroke: #ffffff; stroke-linecap: round"/>
     </g>
     <g id="text_14">
      <!-- 50000 -->
      <g style="fill: #262626" transform="translate(30.38625 68.014403)scale(0.11 -0.11)">
       <use xlink:href="#DejaVuSans-35"/>
       <use xlink:href="#DejaVuSans-30" x="63.623047"/>
       <use xlink:href="#DejaVuSans-30" x="127.246094"/>
       <use xlink:href="#DejaVuSans-30" x="190.869141"/>
       <use xlink:href="#DejaVuSans-30" x="254.492188"/>
      </g>
     </g>
    </g>
    <g id="text_15">
     <!-- Traintime -->
     <g style="fill: #262626" transform="translate(23.474687 194.815781)rotate(-90)scale(0.14 -0.14)">
      <defs>
       <path id="DejaVuSans-72" d="M 2631 2963 
Q 2534 3019 2420 3045 
Q 2306 3072 2169 3072 
Q 1681 3072 1420 2755 
Q 1159 2438 1159 1844 
L 1159 0 
L 581 0 
L 581 3500 
L 1159 3500 
L 1159 2956 
Q 1341 3275 1631 3429 
Q 1922 3584 2338 3584 
Q 2397 3584 2469 3576 
Q 2541 3569 2628 3553 
L 2631 2963 
z
" transform="scale(0.015625)"/>
       <path id="DejaVuSans-61" d="M 2194 1759 
Q 1497 1759 1228 1600 
Q 959 1441 959 1056 
Q 959 750 1161 570 
Q 1363 391 1709 391 
Q 2188 391 2477 730 
Q 2766 1069 2766 1631 
L 2766 1759 
L 2194 1759 
z
M 3341 1997 
L 3341 0 
L 2766 0 
L 2766 531 
Q 2569 213 2275 61 
Q 1981 -91 1556 -91 
Q 1019 -91 701 211 
Q 384 513 384 1019 
Q 384 1609 779 1909 
Q 1175 2209 1959 2209 
L 2766 2209 
L 2766 2266 
Q 2766 2663 2505 2880 
Q 2244 3097 1772 3097 
Q 1472 3097 1187 3025 
Q 903 2953 641 2809 
L 641 3341 
Q 956 3463 1253 3523 
Q 1550 3584 1831 3584 
Q 2591 3584 2966 3190 
Q 3341 2797 3341 1997 
z
" transform="scale(0.015625)"/>
      </defs>
      <use xlink:href="#DejaVuSans-54"/>
      <use xlink:href="#DejaVuSans-72" x="46.333984"/>
      <use xlink:href="#DejaVuSans-61" x="87.447266"/>
      <use xlink:href="#DejaVuSans-69" x="148.726562"/>
      <use xlink:href="#DejaVuSans-6e" x="176.509766"/>
      <use xlink:href="#DejaVuSans-74" x="239.888672"/>
      <use xlink:href="#DejaVuSans-69" x="279.097656"/>
      <use xlink:href="#DejaVuSans-6d" x="306.880859"/>
      <use xlink:href="#DejaVuSans-65" x="404.292969"/>
     </g>
    </g>
   </g>
   <g id="PolyCollection_1">
    <defs>
     <path id="mde6f6a9e6c" d="M 91.832727 -64.799318 
L 91.832727 -65.039311 
L 94.681925 -67.063076 
L 97.531123 -69.089052 
L 100.380321 -71.109005 
L 103.229519 -73.131456 
L 106.078717 -75.153499 
L 108.927914 -77.176159 
L 111.777112 -79.198303 
L 114.62631 -81.222247 
L 117.475508 -83.244438 
L 120.324706 -85.265117 
L 123.173904 -87.285031 
L 126.023102 -89.30435 
L 128.872299 -91.322038 
L 131.721497 -93.337482 
L 134.570695 -95.352432 
L 137.419893 -97.366934 
L 140.269091 -99.382663 
L 143.118289 -101.397071 
L 145.967487 -103.408944 
L 148.816684 -105.421391 
L 151.665882 -107.432611 
L 154.51508 -109.443949 
L 157.364278 -111.453736 
L 160.213476 -113.460985 
L 163.062674 -115.472185 
L 165.911872 -117.478491 
L 168.76107 -119.487659 
L 171.610267 -121.493701 
L 174.459465 -123.497458 
L 177.308663 -125.501979 
L 180.157861 -127.510597 
L 183.007059 -129.514391 
L 185.856257 -131.519708 
L 188.705455 -133.524853 
L 191.554652 -135.529805 
L 194.40385 -137.533182 
L 197.253048 -139.537095 
L 200.102246 -141.539363 
L 202.951444 -143.543973 
L 205.800642 -145.545113 
L 208.64984 -147.547015 
L 211.499037 -149.551139 
L 214.348235 -151.55438 
L 217.197433 -153.55961 
L 220.046631 -155.562965 
L 222.895829 -157.565407 
L 225.745027 -159.565887 
L 228.594225 -161.567219 
L 231.443422 -163.574733 
L 234.29262 -165.571617 
L 237.141818 -167.569167 
L 239.991016 -169.565183 
L 242.840214 -171.561571 
L 245.689412 -173.557105 
L 248.53861 -175.551655 
L 251.387807 -177.544019 
L 254.237005 -179.53795 
L 257.086203 -181.531298 
L 259.935401 -183.520957 
L 262.784599 -185.51037 
L 265.633797 -187.501397 
L 268.482995 -189.495378 
L 271.332193 -191.485002 
L 274.18139 -193.474281 
L 277.030588 -195.462981 
L 279.879786 -197.452446 
L 282.728984 -199.439678 
L 285.578182 -201.427449 
L 288.42738 -203.412193 
L 291.276578 -205.397777 
L 294.125775 -207.389155 
L 296.974973 -209.379524 
L 299.824171 -211.36849 
L 302.673369 -213.351884 
L 305.522567 -215.337934 
L 308.371765 -217.369361 
L 311.220963 -219.403637 
L 314.07016 -221.454177 
L 316.919358 -223.529569 
L 319.768556 -225.555944 
L 322.617754 -227.534024 
L 325.466952 -229.498949 
L 328.31615 -231.465092 
L 331.165348 -233.558389 
L 334.014545 -235.577324 
L 336.863743 -237.649165 
L 339.712941 -239.651109 
L 342.562139 -241.652573 
L 345.411337 -243.723853 
L 348.260535 -245.728039 
L 351.109733 -247.730977 
L 353.95893 -249.795529 
L 356.808128 -251.793763 
L 359.657326 -253.797899 
L 362.506524 -255.796263 
L 365.355722 -257.800719 
L 368.20492 -259.805644 
L 371.054118 -261.97539 
L 373.903316 -263.997155 
L 376.752513 -266.050451 
L 379.601711 -268.046421 
L 382.450909 -270.043915 
L 385.300107 -272.089723 
L 388.149305 -274.084321 
L 390.998503 -276.082764 
L 393.847701 -278.084423 
L 396.696898 -280.08752 
L 399.546096 -282.092787 
L 402.395294 -284.095238 
L 405.244492 -286.100217 
L 408.09369 -288.107008 
L 410.942888 -290.113394 
L 413.792086 -292.121319 
L 416.641283 -294.136696 
L 419.490481 -296.142826 
L 422.339679 -298.143775 
L 425.188877 -300.14899 
L 428.038075 -302.153456 
L 430.887273 -303.799091 
L 430.887273 -301.32836 
L 430.887273 -301.32836 
L 428.038075 -299.363424 
L 425.188877 -297.398848 
L 422.339679 -295.447969 
L 419.490481 -293.496837 
L 416.641283 -291.514016 
L 413.792086 -289.544728 
L 410.942888 -287.589013 
L 408.09369 -285.604085 
L 405.244492 -283.647792 
L 402.395294 -281.682504 
L 399.546096 -279.579452 
L 396.696898 -277.608039 
L 393.847701 -275.636298 
L 390.998503 -273.65778 
L 388.149305 -271.690026 
L 385.300107 -269.724483 
L 382.450909 -267.75696 
L 379.601711 -265.770024 
L 376.752513 -263.740774 
L 373.903316 -261.5907 
L 371.054118 -259.600321 
L 368.20492 -257.61616 
L 365.355722 -255.64223 
L 362.506524 -253.666402 
L 359.657326 -251.681748 
L 356.808128 -249.527435 
L 353.95893 -247.268548 
L 351.109733 -245.307484 
L 348.260535 -243.336861 
L 345.411337 -241.369028 
L 342.562139 -239.403383 
L 339.712941 -237.363407 
L 336.863743 -235.361563 
L 334.014545 -233.39334 
L 331.165348 -231.420814 
L 328.31615 -229.445485 
L 325.466952 -227.496283 
L 322.617754 -225.55591 
L 319.768556 -223.616635 
L 316.919358 -221.613584 
L 314.07016 -219.672895 
L 311.220963 -217.694836 
L 308.371765 -215.758399 
L 305.522567 -213.81265 
L 302.673369 -211.874788 
L 299.824171 -209.810889 
L 296.974973 -207.858861 
L 294.125775 -205.889847 
L 291.276578 -203.911868 
L 288.42738 -201.96211 
L 285.578182 -200.016982 
L 282.728984 -198.068316 
L 279.879786 -196.120592 
L 277.030588 -194.170775 
L 274.18139 -192.22132 
L 271.332193 -190.269655 
L 268.482995 -188.315166 
L 265.633797 -186.359066 
L 262.784599 -184.403138 
L 259.935401 -182.448059 
L 257.086203 -180.488004 
L 254.237005 -178.524802 
L 251.387807 -176.563454 
L 248.53861 -174.598832 
L 245.689412 -172.633669 
L 242.840214 -170.66741 
L 239.991016 -168.697326 
L 237.141818 -166.719752 
L 234.29262 -164.748952 
L 231.443422 -162.776517 
L 228.594225 -160.793355 
L 225.745027 -158.815237 
L 222.895829 -156.839054 
L 220.046631 -154.860253 
L 217.197433 -152.87822 
L 214.348235 -150.895121 
L 211.499037 -148.912269 
L 208.64984 -146.928268 
L 205.800642 -144.944692 
L 202.951444 -142.959656 
L 200.102246 -140.972614 
L 197.253048 -138.987354 
L 194.40385 -136.998219 
L 191.554652 -135.009053 
L 188.705455 -133.019562 
L 185.856257 -131.030664 
L 183.007059 -129.039042 
L 180.157861 -127.048944 
L 177.308663 -125.052816 
L 174.459465 -123.061519 
L 171.610267 -121.069161 
L 168.76107 -119.074776 
L 165.911872 -117.079382 
L 163.062674 -115.084185 
L 160.213476 -113.086043 
L 157.364278 -111.090303 
L 154.51508 -109.092193 
L 151.665882 -107.091778 
L 148.816684 -105.093228 
L 145.967487 -103.093533 
L 143.118289 -101.093945 
L 140.269091 -99.094297 
L 137.419893 -97.092245 
L 134.570695 -95.090744 
L 131.721497 -93.088672 
L 128.872299 -91.086529 
L 126.023102 -89.073819 
L 123.173904 -87.056702 
L 120.324706 -85.035592 
L 117.475508 -83.01517 
L 114.62631 -80.995894 
L 111.777112 -78.972937 
L 108.927914 -76.949277 
L 106.078717 -74.927201 
L 103.229519 -72.902162 
L 100.380321 -70.87777 
L 97.531123 -68.854614 
L 94.681925 -66.827906 
L 91.832727 -64.799318 
z
" style="stroke: #ffffff; stroke-opacity: 0.5"/>
    </defs>
    <g clip-path="url(#pc9fabfabae)">
     <use xlink:href="#mde6f6a9e6c" x="0" y="345.6" style="fill: #4c72b0; fill-opacity: 0.5; stroke: #ffffff; stroke-opacity: 0.5"/>
    </g>
   </g>
   <g id="PolyCollection_2">
    <defs>
     <path id="m13f294e537" d="M 91.832727 -62.980943 
L 91.832727 -62.981019 
L 94.681925 -62.983688 
L 97.531123 -62.986187 
L 100.380321 -62.988677 
L 103.229519 -63.010091 
L 106.078717 -63.031596 
L 108.927914 -63.053245 
L 111.777112 -63.075153 
L 114.62631 -63.096687 
L 117.475508 -63.118392 
L 120.324706 -63.139916 
L 123.173904 -63.161524 
L 126.023102 -63.183206 
L 128.872299 -63.205088 
L 131.721497 -63.227295 
L 134.570695 -63.248827 
L 137.419893 -63.27108 
L 140.269091 -63.293423 
L 143.118289 -63.315329 
L 145.967487 -63.337472 
L 148.816684 -63.359097 
L 151.665882 -63.380545 
L 154.51508 -63.402075 
L 157.364278 -63.423811 
L 160.213476 -63.44525 
L 163.062674 -63.466924 
L 165.911872 -63.48901 
L 168.76107 -63.510859 
L 171.610267 -63.532525 
L 174.459465 -63.554119 
L 177.308663 -63.576284 
L 180.157861 -63.598206 
L 183.007059 -63.620125 
L 185.856257 -63.642001 
L 188.705455 -63.663623 
L 191.554652 -63.685332 
L 194.40385 -63.707056 
L 197.253048 -63.728571 
L 200.102246 -63.750098 
L 202.951444 -63.772425 
L 205.800642 -63.794108 
L 208.64984 -63.816716 
L 211.499037 -63.838363 
L 214.348235 -63.859979 
L 217.197433 -63.881071 
L 220.046631 -63.902584 
L 222.895829 -63.924153 
L 225.745027 -63.945558 
L 228.594225 -63.966548 
L 231.443422 -63.987626 
L 234.29262 -64.008728 
L 237.141818 -64.029717 
L 239.991016 -64.05106 
L 242.840214 -64.073324 
L 245.689412 -64.094398 
L 248.53861 -64.115616 
L 251.387807 -64.136356 
L 254.237005 -64.157607 
L 257.086203 -64.178751 
L 259.935401 -64.200326 
L 262.784599 -64.221085 
L 265.633797 -64.242066 
L 268.482995 -64.263539 
L 271.332193 -64.285518 
L 274.18139 -64.307151 
L 277.030588 -64.328251 
L 279.879786 -64.349926 
L 282.728984 -64.371442 
L 285.578182 -64.392868 
L 288.42738 -64.413385 
L 291.276578 -64.433985 
L 294.125775 -64.454449 
L 296.974973 -64.475084 
L 299.824171 -64.495983 
L 302.673369 -64.516908 
L 305.522567 -64.537828 
L 308.371765 -64.558744 
L 311.220963 -64.579373 
L 314.07016 -64.600379 
L 316.919358 -64.620995 
L 319.768556 -64.642516 
L 322.617754 -64.663467 
L 325.466952 -64.684999 
L 328.31615 -64.706502 
L 331.165348 -64.727229 
L 334.014545 -64.747881 
L 336.863743 -64.768354 
L 339.712941 -64.789194 
L 342.562139 -64.810024 
L 345.411337 -64.830444 
L 348.260535 -64.850847 
L 351.109733 -64.871048 
L 353.95893 -64.891894 
L 356.808128 -64.912685 
L 359.657326 -64.933425 
L 362.506524 -64.953872 
L 365.355722 -64.974256 
L 368.20492 -64.995427 
L 371.054118 -65.016322 
L 373.903316 -65.036467 
L 376.752513 -65.056637 
L 379.601711 -65.077415 
L 382.450909 -65.097688 
L 385.300107 -65.118482 
L 388.149305 -65.139415 
L 390.998503 -65.160357 
L 393.847701 -65.181158 
L 396.696898 -65.201791 
L 399.546096 -65.222358 
L 402.395294 -65.243144 
L 405.244492 -65.263709 
L 408.09369 -65.284733 
L 410.942888 -65.30609 
L 413.792086 -65.326349 
L 416.641283 -65.347742 
L 419.490481 -65.368574 
L 422.339679 -65.389528 
L 425.188877 -65.410049 
L 428.038075 -65.430681 
L 430.887273 -65.451248 
L 430.887273 -65.382248 
L 430.887273 -65.382248 
L 428.038075 -65.36199 
L 425.188877 -65.341 
L 422.339679 -65.319833 
L 419.490481 -65.299203 
L 416.641283 -65.278245 
L 413.792086 -65.257777 
L 410.942888 -65.23757 
L 408.09369 -65.217335 
L 405.244492 -65.196781 
L 402.395294 -65.17628 
L 399.546096 -65.155448 
L 396.696898 -65.134744 
L 393.847701 -65.113567 
L 390.998503 -65.092421 
L 388.149305 -65.07162 
L 385.300107 -65.050725 
L 382.450909 -65.029916 
L 379.601711 -65.009479 
L 376.752513 -64.98886 
L 373.903316 -64.96743 
L 371.054118 -64.946717 
L 368.20492 -64.926125 
L 365.355722 -64.905565 
L 362.506524 -64.884992 
L 359.657326 -64.864566 
L 356.808128 -64.843954 
L 353.95893 -64.823316 
L 351.109733 -64.802931 
L 348.260535 -64.782284 
L 345.411337 -64.76194 
L 342.562139 -64.740798 
L 339.712941 -64.720538 
L 336.863743 -64.699469 
L 334.014545 -64.678861 
L 331.165348 -64.658658 
L 328.31615 -64.638396 
L 325.466952 -64.617026 
L 322.617754 -64.596276 
L 319.768556 -64.575899 
L 316.919358 -64.555077 
L 314.07016 -64.534488 
L 311.220963 -64.51386 
L 308.371765 -64.493419 
L 305.522567 -64.472801 
L 302.673369 -64.452243 
L 299.824171 -64.431465 
L 296.974973 -64.410975 
L 294.125775 -64.390278 
L 291.276578 -64.369298 
L 288.42738 -64.349324 
L 285.578182 -64.328753 
L 282.728984 -64.308018 
L 279.879786 -64.287327 
L 277.030588 -64.266122 
L 274.18139 -64.24634 
L 271.332193 -64.225771 
L 268.482995 -64.20537 
L 265.633797 -64.184615 
L 262.784599 -64.163946 
L 259.935401 -64.143292 
L 257.086203 -64.122652 
L 254.237005 -64.102595 
L 251.387807 -64.082138 
L 248.53861 -64.061296 
L 245.689412 -64.040565 
L 242.840214 -64.020131 
L 239.991016 -63.999445 
L 237.141818 -63.97924 
L 234.29262 -63.958899 
L 231.443422 -63.938114 
L 228.594225 -63.916488 
L 225.745027 -63.896211 
L 222.895829 -63.875487 
L 220.046631 -63.854358 
L 217.197433 -63.833832 
L 214.348235 -63.813335 
L 211.499037 -63.793072 
L 208.64984 -63.77227 
L 205.800642 -63.751601 
L 202.951444 -63.731139 
L 200.102246 -63.711185 
L 197.253048 -63.690711 
L 194.40385 -63.669978 
L 191.554652 -63.649452 
L 188.705455 -63.628989 
L 185.856257 -63.608512 
L 183.007059 -63.58791 
L 180.157861 -63.566561 
L 177.308663 -63.546273 
L 174.459465 -63.525723 
L 171.610267 -63.50524 
L 168.76107 -63.484595 
L 165.911872 -63.463914 
L 163.062674 -63.442986 
L 160.213476 -63.422535 
L 157.364278 -63.401454 
L 154.51508 -63.381187 
L 151.665882 -63.360735 
L 148.816684 -63.340036 
L 145.967487 -63.31974 
L 143.118289 -63.299068 
L 140.269091 -63.278861 
L 137.419893 -63.258347 
L 134.570695 -63.237862 
L 131.721497 -63.216843 
L 128.872299 -63.195975 
L 126.023102 -63.175466 
L 123.173904 -63.155089 
L 120.324706 -63.13482 
L 117.475508 -63.114157 
L 114.62631 -63.093064 
L 111.777112 -63.072358 
L 108.927914 -63.051257 
L 106.078717 -63.030562 
L 103.229519 -63.009694 
L 100.380321 -62.988324 
L 97.531123 -62.985835 
L 94.681925 -62.983415 
L 91.832727 -62.980943 
z
" style="stroke: #ffffff; stroke-opacity: 0.5"/>
    </defs>
    <g clip-path="url(#pc9fabfabae)">
     <use xlink:href="#m13f294e537" x="0" y="345.6" style="fill: #dd8452; fill-opacity: 0.5; stroke: #ffffff; stroke-opacity: 0.5"/>
    </g>
   </g>
   <g id="PolyCollection_3">
    <defs>
     <path id="me0fd3f7110" d="M 91.832727 -62.980909 
L 91.832727 -62.98102 
L 94.681925 -62.983569 
L 97.531123 -62.986086 
L 100.380321 -62.988536 
L 103.229519 -63.043454 
L 106.078717 -63.097994 
L 108.927914 -63.153485 
L 111.777112 -63.206328 
L 114.62631 -63.259005 
L 117.475508 -63.312076 
L 120.324706 -63.365986 
L 123.173904 -63.420088 
L 126.023102 -63.473363 
L 128.872299 -63.527183 
L 131.721497 -63.580234 
L 134.570695 -63.63385 
L 137.419893 -63.688258 
L 140.269091 -63.74335 
L 143.118289 -63.799173 
L 145.967487 -63.853485 
L 148.816684 -63.908158 
L 151.665882 -63.962483 
L 154.51508 -64.016363 
L 157.364278 -64.069938 
L 160.213476 -64.123559 
L 163.062674 -64.177409 
L 165.911872 -64.231634 
L 168.76107 -64.285318 
L 171.610267 -64.338731 
L 174.459465 -64.39237 
L 177.308663 -64.445877 
L 180.157861 -64.50005 
L 183.007059 -64.553237 
L 185.856257 -64.607185 
L 188.705455 -64.660515 
L 191.554652 -64.714119 
L 194.40385 -64.768024 
L 197.253048 -64.820449 
L 200.102246 -64.873933 
L 202.951444 -64.927402 
L 205.800642 -64.981523 
L 208.64984 -65.035888 
L 211.499037 -65.088916 
L 214.348235 -65.143364 
L 217.197433 -65.196373 
L 220.046631 -65.249377 
L 222.895829 -65.303568 
L 225.745027 -65.356767 
L 228.594225 -65.408107 
L 231.443422 -65.460921 
L 234.29262 -65.514307 
L 237.141818 -65.567228 
L 239.991016 -65.619761 
L 242.840214 -65.672879 
L 245.689412 -65.725651 
L 248.53861 -65.779281 
L 251.387807 -65.832204 
L 254.237005 -65.885088 
L 257.086203 -65.93745 
L 259.935401 -65.990915 
L 262.784599 -66.044223 
L 265.633797 -66.096836 
L 268.482995 -66.150272 
L 271.332193 -66.203175 
L 274.18139 -66.255733 
L 277.030588 -66.308272 
L 279.879786 -66.362355 
L 282.728984 -66.415471 
L 285.578182 -66.469144 
L 288.42738 -66.522994 
L 291.276578 -66.576047 
L 294.125775 -66.628642 
L 296.974973 -66.680853 
L 299.824171 -66.73272 
L 302.673369 -66.785464 
L 305.522567 -66.837744 
L 308.371765 -66.89233 
L 311.220963 -66.947741 
L 314.07016 -67.002886 
L 316.919358 -67.057174 
L 319.768556 -67.111324 
L 322.617754 -67.165487 
L 325.466952 -67.217776 
L 328.31615 -67.270702 
L 331.165348 -67.32342 
L 334.014545 -67.377175 
L 336.863743 -67.430731 
L 339.712941 -67.484388 
L 342.562139 -67.537622 
L 345.411337 -67.593477 
L 348.260535 -67.648439 
L 351.109733 -67.70212 
L 353.95893 -67.755042 
L 356.808128 -67.80871 
L 359.657326 -67.861686 
L 362.506524 -67.915398 
L 365.355722 -67.968404 
L 368.20492 -68.02064 
L 371.054118 -68.073317 
L 373.903316 -68.126229 
L 376.752513 -68.179639 
L 379.601711 -68.233345 
L 382.450909 -68.286835 
L 385.300107 -68.339912 
L 388.149305 -68.393248 
L 390.998503 -68.445145 
L 393.847701 -68.496535 
L 396.696898 -68.549062 
L 399.546096 -68.601111 
L 402.395294 -68.653846 
L 405.244492 -68.707988 
L 408.09369 -68.761151 
L 410.942888 -68.815494 
L 413.792086 -68.868293 
L 416.641283 -68.92329 
L 419.490481 -68.978299 
L 422.339679 -69.032356 
L 425.188877 -69.085391 
L 428.038075 -69.139308 
L 430.887273 -69.192827 
L 430.887273 -69.102575 
L 430.887273 -69.102575 
L 428.038075 -69.050356 
L 425.188877 -68.998565 
L 422.339679 -68.945421 
L 419.490481 -68.89376 
L 416.641283 -68.84108 
L 413.792086 -68.788143 
L 410.942888 -68.734766 
L 408.09369 -68.681935 
L 405.244492 -68.629273 
L 402.395294 -68.576218 
L 399.546096 -68.521549 
L 396.696898 -68.469241 
L 393.847701 -68.417106 
L 390.998503 -68.364266 
L 388.149305 -68.310812 
L 385.300107 -68.257874 
L 382.450909 -68.205419 
L 379.601711 -68.152701 
L 376.752513 -68.100097 
L 373.903316 -68.047455 
L 371.054118 -67.994736 
L 368.20492 -67.942023 
L 365.355722 -67.890482 
L 362.506524 -67.837771 
L 359.657326 -67.785746 
L 356.808128 -67.733866 
L 353.95893 -67.681414 
L 351.109733 -67.628562 
L 348.260535 -67.576411 
L 345.411337 -67.524925 
L 342.562139 -67.471914 
L 339.712941 -67.419044 
L 336.863743 -67.367366 
L 334.014545 -67.314993 
L 331.165348 -67.262896 
L 328.31615 -67.210956 
L 325.466952 -67.157711 
L 322.617754 -67.106031 
L 319.768556 -67.054335 
L 316.919358 -67.002222 
L 314.07016 -66.949496 
L 311.220963 -66.897774 
L 308.371765 -66.845554 
L 305.522567 -66.792566 
L 302.673369 -66.740572 
L 299.824171 -66.687676 
L 296.974973 -66.63594 
L 294.125775 -66.583073 
L 291.276578 -66.531406 
L 288.42738 -66.479306 
L 285.578182 -66.425669 
L 282.728984 -66.373763 
L 279.879786 -66.32144 
L 277.030588 -66.269438 
L 274.18139 -66.217304 
L 271.332193 -66.165147 
L 268.482995 -66.112583 
L 265.633797 -66.060113 
L 262.784599 -66.007873 
L 259.935401 -65.956207 
L 257.086203 -65.904535 
L 254.237005 -65.852335 
L 251.387807 -65.800525 
L 248.53861 -65.748076 
L 245.689412 -65.695214 
L 242.840214 -65.642497 
L 239.991016 -65.591467 
L 237.141818 -65.539786 
L 234.29262 -65.486792 
L 231.443422 -65.434249 
L 228.594225 -65.382099 
L 225.745027 -65.329333 
L 222.895829 -65.276658 
L 220.046631 -65.224121 
L 217.197433 -65.171029 
L 214.348235 -65.117636 
L 211.499037 -65.064477 
L 208.64984 -65.011632 
L 205.800642 -64.959657 
L 202.951444 -64.906049 
L 200.102246 -64.85219 
L 197.253048 -64.798858 
L 194.40385 -64.746783 
L 191.554652 -64.692705 
L 188.705455 -64.639849 
L 185.856257 -64.586405 
L 183.007059 -64.532258 
L 180.157861 -64.47923 
L 177.308663 -64.425556 
L 174.459465 -64.372156 
L 171.610267 -64.319219 
L 168.76107 -64.265572 
L 165.911872 -64.212734 
L 163.062674 -64.159814 
L 160.213476 -64.106703 
L 157.364278 -64.053825 
L 154.51508 -64.000584 
L 151.665882 -63.946406 
L 148.816684 -63.89257 
L 145.967487 -63.839958 
L 143.118289 -63.78766 
L 140.269091 -63.734264 
L 137.419893 -63.680088 
L 134.570695 -63.625298 
L 131.721497 -63.571184 
L 128.872299 -63.517716 
L 126.023102 -63.464263 
L 123.173904 -63.410832 
L 120.324706 -63.357578 
L 117.475508 -63.304191 
L 114.62631 -63.250163 
L 111.777112 -63.198563 
L 108.927914 -63.146167 
L 106.078717 -63.093619 
L 103.229519 -63.040807 
L 100.380321 -62.988201 
L 97.531123 -62.985763 
L 94.681925 -62.983305 
L 91.832727 -62.980909 
z
" style="stroke: #ffffff; stroke-opacity: 0.5"/>
    </defs>
    <g clip-path="url(#pc9fabfabae)">
     <use xlink:href="#me0fd3f7110" x="0" y="345.6" style="fill: #55a868; fill-opacity: 0.5; stroke: #ffffff; stroke-opacity: 0.5"/>
    </g>
   </g>
   <g id="PolyCollection_4">
    <defs>
     <path id="m9334e72d01" d="M 91.832727 -62.984951 
L 91.832727 -62.98505 
L 94.681925 -62.992327 
L 97.531123 -63.000166 
L 100.380321 -63.007478 
L 103.229519 -63.123768 
L 106.078717 -63.239368 
L 108.927914 -63.357162 
L 111.777112 -63.472109 
L 114.62631 -63.588096 
L 117.475508 -63.706083 
L 120.324706 -63.824082 
L 123.173904 -63.938971 
L 126.023102 -64.048967 
L 128.872299 -64.163148 
L 131.721497 -64.276172 
L 134.570695 -64.389052 
L 137.419893 -64.502482 
L 140.269091 -64.61578 
L 143.118289 -64.730465 
L 145.967487 -64.845797 
L 148.816684 -64.960106 
L 151.665882 -65.071837 
L 154.51508 -65.185473 
L 157.364278 -65.298905 
L 160.213476 -65.411814 
L 163.062674 -65.524809 
L 165.911872 -65.639744 
L 168.76107 -65.751438 
L 171.610267 -65.865843 
L 174.459465 -65.980627 
L 177.308663 -66.097172 
L 180.157861 -66.2114 
L 183.007059 -66.326037 
L 185.856257 -66.441262 
L 188.705455 -66.554677 
L 191.554652 -66.669599 
L 194.40385 -66.781471 
L 197.253048 -66.8986 
L 200.102246 -67.010963 
L 202.951444 -67.126099 
L 205.800642 -67.239615 
L 208.64984 -67.353139 
L 211.499037 -67.467424 
L 214.348235 -67.580133 
L 217.197433 -67.693636 
L 220.046631 -67.806889 
L 222.895829 -67.921366 
L 225.745027 -68.037091 
L 228.594225 -68.150709 
L 231.443422 -68.26464 
L 234.29262 -68.376886 
L 237.141818 -68.492484 
L 239.991016 -68.60652 
L 242.840214 -68.720884 
L 245.689412 -68.83403 
L 248.53861 -68.948033 
L 251.387807 -69.061578 
L 254.237005 -69.175504 
L 257.086203 -69.289439 
L 259.935401 -69.404932 
L 262.784599 -69.517682 
L 265.633797 -69.632814 
L 268.482995 -69.745491 
L 271.332193 -69.859307 
L 274.18139 -69.97466 
L 277.030588 -70.088987 
L 279.879786 -70.201228 
L 282.728984 -70.313733 
L 285.578182 -70.429373 
L 288.42738 -70.544428 
L 291.276578 -70.658622 
L 294.125775 -70.773627 
L 296.974973 -70.885871 
L 299.824171 -70.998393 
L 302.673369 -71.111795 
L 305.522567 -71.225827 
L 308.371765 -71.34167 
L 311.220963 -71.455442 
L 314.07016 -71.568907 
L 316.919358 -71.683469 
L 319.768556 -71.798026 
L 322.617754 -71.913313 
L 325.466952 -72.025833 
L 328.31615 -72.140187 
L 331.165348 -72.255201 
L 334.014545 -72.370066 
L 336.863743 -72.484866 
L 339.712941 -72.600037 
L 342.562139 -72.71419 
L 345.411337 -72.827134 
L 348.260535 -72.940699 
L 351.109733 -73.053595 
L 353.95893 -73.164927 
L 356.808128 -73.279403 
L 359.657326 -73.391187 
L 362.506524 -73.504302 
L 365.355722 -73.618782 
L 368.20492 -73.733787 
L 371.054118 -73.849723 
L 373.903316 -73.962856 
L 376.752513 -74.077761 
L 379.601711 -74.191478 
L 382.450909 -74.305178 
L 385.300107 -74.417515 
L 388.149305 -74.531152 
L 390.998503 -74.646749 
L 393.847701 -74.761085 
L 396.696898 -74.875784 
L 399.546096 -74.989627 
L 402.395294 -75.104649 
L 405.244492 -75.218247 
L 408.09369 -75.331949 
L 410.942888 -75.447321 
L 413.792086 -75.562409 
L 416.641283 -75.674193 
L 419.490481 -75.789351 
L 422.339679 -75.903416 
L 425.188877 -76.02006 
L 428.038075 -76.135171 
L 430.887273 -76.248008 
L 430.887273 -76.165663 
L 430.887273 -76.165663 
L 428.038075 -76.051731 
L 425.188877 -75.939161 
L 422.339679 -75.823738 
L 419.490481 -75.712266 
L 416.641283 -75.598228 
L 413.792086 -75.486307 
L 410.942888 -75.372976 
L 408.09369 -75.256948 
L 405.244492 -75.143046 
L 402.395294 -75.029026 
L 399.546096 -74.914923 
L 396.696898 -74.800437 
L 393.847701 -74.686703 
L 390.998503 -74.57374 
L 388.149305 -74.4596 
L 385.300107 -74.345529 
L 382.450909 -74.230345 
L 379.601711 -74.116521 
L 376.752513 -74.004808 
L 373.903316 -73.888999 
L 371.054118 -73.773727 
L 368.20492 -73.660485 
L 365.355722 -73.548475 
L 362.506524 -73.433489 
L 359.657326 -73.32102 
L 356.808128 -73.205551 
L 353.95893 -73.090444 
L 351.109733 -72.976726 
L 348.260535 -72.862431 
L 345.411337 -72.748207 
L 342.562139 -72.634237 
L 339.712941 -72.519003 
L 336.863743 -72.403831 
L 334.014545 -72.288688 
L 331.165348 -72.175557 
L 328.31615 -72.061518 
L 325.466952 -71.94672 
L 322.617754 -71.8339 
L 319.768556 -71.718294 
L 316.919358 -71.605514 
L 314.07016 -71.49164 
L 311.220963 -71.378518 
L 308.371765 -71.262586 
L 305.522567 -71.147957 
L 302.673369 -71.033701 
L 299.824171 -70.919453 
L 296.974973 -70.805429 
L 294.125775 -70.691982 
L 291.276578 -70.578605 
L 288.42738 -70.464877 
L 285.578182 -70.349124 
L 282.728984 -70.235654 
L 279.879786 -70.122294 
L 277.030588 -70.009464 
L 274.18139 -69.898054 
L 271.332193 -69.783144 
L 268.482995 -69.66947 
L 265.633797 -69.555082 
L 262.784599 -69.442263 
L 259.935401 -69.330433 
L 257.086203 -69.216193 
L 254.237005 -69.104233 
L 251.387807 -68.98983 
L 248.53861 -68.877476 
L 245.689412 -68.764139 
L 242.840214 -68.651509 
L 239.991016 -68.539025 
L 237.141818 -68.425365 
L 234.29262 -68.313035 
L 231.443422 -68.200047 
L 228.594225 -68.087774 
L 225.745027 -67.975562 
L 222.895829 -67.86368 
L 220.046631 -67.748218 
L 217.197433 -67.636464 
L 214.348235 -67.524994 
L 211.499037 -67.412657 
L 208.64984 -67.298803 
L 205.800642 -67.185653 
L 202.951444 -67.073843 
L 200.102246 -66.960329 
L 197.253048 -66.848429 
L 194.40385 -66.735246 
L 191.554652 -66.625282 
L 188.705455 -66.511464 
L 185.856257 -66.398813 
L 183.007059 -66.285252 
L 180.157861 -66.171404 
L 177.308663 -66.059547 
L 174.459465 -65.946945 
L 171.610267 -65.834647 
L 168.76107 -65.723944 
L 165.911872 -65.612151 
L 163.062674 -65.498128 
L 160.213476 -65.385696 
L 157.364278 -65.273786 
L 154.51508 -65.160872 
L 151.665882 -65.050186 
L 148.816684 -64.937239 
L 145.967487 -64.825319 
L 143.118289 -64.713238 
L 140.269091 -64.601321 
L 137.419893 -64.490128 
L 134.570695 -64.378207 
L 131.721497 -64.264494 
L 128.872299 -64.15251 
L 126.023102 -64.038417 
L 123.173904 -63.92651 
L 120.324706 -63.812156 
L 117.475508 -63.696377 
L 114.62631 -63.581572 
L 111.777112 -63.466641 
L 108.927914 -63.352454 
L 106.078717 -63.238907 
L 103.229519 -63.121985 
L 100.380321 -63.007239 
L 97.531123 -62.999774 
L 94.681925 -62.992254 
L 91.832727 -62.984951 
z
" style="stroke: #ffffff; stroke-opacity: 0.5"/>
    </defs>
    <g clip-path="url(#pc9fabfabae)">
     <use xlink:href="#m9334e72d01" x="0" y="345.6" style="fill: #c44e52; fill-opacity: 0.5; stroke: #ffffff; stroke-opacity: 0.5"/>
    </g>
   </g>
   <g id="line2d_14">
    <path d="M 91.832727 280.640689 
L 94.681925 278.616326 
L 97.531123 276.591503 
L 100.380321 274.571283 
L 103.229519 272.548874 
L 106.078717 270.526816 
L 108.927914 268.506468 
L 111.777112 266.48449 
L 114.62631 264.465116 
L 117.475508 262.447005 
L 120.324706 260.429011 
L 123.173904 258.411807 
L 126.023102 256.395722 
L 128.872299 254.382388 
L 131.721497 252.370649 
L 134.570695 250.360193 
L 137.419893 248.350291 
L 140.269091 246.339668 
L 143.118289 244.330633 
L 145.967487 242.323206 
L 148.816684 240.315792 
L 151.665882 238.309314 
L 154.51508 236.302159 
L 157.364278 234.297147 
L 160.213476 232.293404 
L 163.062674 230.288555 
L 165.911872 228.286639 
L 168.76107 226.283636 
L 171.610267 224.28247 
L 174.459465 222.283655 
L 177.308663 220.284274 
L 180.157861 218.281554 
L 183.007059 216.283457 
L 185.856257 214.283938 
L 188.705455 212.285924 
L 191.554652 210.287934 
L 194.40385 208.290837 
L 197.253048 206.293043 
L 200.102246 204.297421 
L 202.951444 202.299972 
L 205.800642 200.305225 
L 208.64984 198.311312 
L 211.499037 196.315453 
L 214.348235 194.320481 
L 217.197433 192.324526 
L 220.046631 190.329022 
L 222.895829 188.336233 
L 225.745027 186.345272 
L 228.594225 184.352859 
L 231.443422 182.355544 
L 234.29262 180.368619 
L 237.141818 178.381849 
L 239.991016 176.395108 
L 242.840214 174.40943 
L 245.689412 172.425461 
L 248.53861 170.434014 
L 251.387807 168.451995 
L 254.237005 166.470024 
L 257.086203 164.487095 
L 259.935401 162.508431 
L 262.784599 160.530222 
L 265.633797 158.549378 
L 268.482995 156.571854 
L 271.332193 154.595504 
L 274.18139 152.621413 
L 277.030588 150.63843 
L 279.879786 148.663071 
L 282.728984 146.691867 
L 285.578182 144.715604 
L 288.42738 142.741123 
L 291.276578 140.767736 
L 294.125775 138.790563 
L 296.974973 136.803804 
L 299.824171 134.827894 
L 302.673369 132.831161 
L 305.522567 130.852694 
L 308.371765 128.876811 
L 311.220963 126.897279 
L 314.07016 124.908387 
L 316.919358 122.926827 
L 319.768556 120.942161 
L 322.617754 118.970504 
L 325.466952 117.010881 
L 328.31615 115.045829 
L 331.165348 113.025904 
L 334.014545 111.02468 
L 336.863743 108.974896 
L 339.712941 106.952299 
L 342.562139 104.942842 
L 345.411337 102.929228 
L 348.260535 100.926044 
L 351.109733 98.907753 
L 353.95893 96.903628 
L 356.808128 94.837674 
L 359.657326 92.797508 
L 362.506524 90.792272 
L 365.355722 88.785865 
L 368.20492 86.778908 
L 371.054118 84.743975 
L 373.903316 82.735346 
L 376.752513 80.688638 
L 379.601711 78.685851 
L 382.450909 76.687194 
L 385.300107 74.688344 
L 388.149305 72.695909 
L 390.998503 70.686012 
L 393.847701 68.677708 
L 396.696898 66.673644 
L 399.546096 64.680084 
L 402.395294 62.659012 
L 405.244492 60.66276 
L 408.09369 58.645819 
L 410.942888 56.642756 
L 413.792086 54.646798 
L 416.641283 52.628306 
L 419.490481 50.629829 
L 422.339679 48.631591 
L 425.188877 46.646416 
L 428.038075 44.653035 
L 430.887273 42.87533 
" clip-path="url(#pc9fabfabae)" style="fill: none; stroke: #4c72b0; stroke-width: 3; stroke-linecap: round"/>
   </g>
   <g id="line2d_15">
    <path d="M 91.832727 282.619025 
L 94.681925 282.616494 
L 97.531123 282.614037 
L 100.380321 282.61158 
L 103.229519 282.590108 
L 106.078717 282.56901 
L 108.927914 282.547727 
L 111.777112 282.526396 
L 114.62631 282.505108 
L 117.475508 282.483629 
L 120.324706 282.462332 
L 123.173904 282.441128 
L 126.023102 282.420003 
L 128.872299 282.39902 
L 131.721497 282.377952 
L 134.570695 282.356636 
L 137.419893 282.335489 
L 140.269091 282.314155 
L 143.118289 282.29313 
L 145.967487 282.272053 
L 148.816684 282.251044 
L 151.665882 282.230008 
L 154.51508 282.209143 
L 157.364278 282.188378 
L 160.213476 282.16746 
L 163.062674 282.146714 
L 165.911872 282.125438 
L 168.76107 282.104581 
L 171.610267 282.083879 
L 174.459465 282.062948 
L 177.308663 282.041855 
L 180.157861 282.021071 
L 183.007059 281.999728 
L 185.856257 281.978729 
L 188.705455 281.957848 
L 191.554652 281.937008 
L 194.40385 281.916058 
L 197.253048 281.895011 
L 200.102246 281.874182 
L 202.951444 281.85334 
L 205.800642 281.832384 
L 208.64984 281.811342 
L 211.499037 281.790516 
L 214.348235 281.769385 
L 217.197433 281.748622 
L 220.046631 281.727691 
L 222.895829 281.706743 
L 225.745027 281.685715 
L 228.594225 281.664812 
L 231.443422 281.643786 
L 234.29262 281.622896 
L 237.141818 281.601861 
L 239.991016 281.580886 
L 242.840214 281.559904 
L 245.689412 281.538829 
L 248.53861 281.517771 
L 251.387807 281.496927 
L 254.237005 281.476261 
L 257.086203 281.455459 
L 259.935401 281.434626 
L 262.784599 281.413836 
L 265.633797 281.393018 
L 268.482995 281.37218 
L 271.332193 281.351182 
L 274.18139 281.330265 
L 277.030588 281.309697 
L 279.879786 281.288691 
L 282.728984 281.267897 
L 285.578182 281.246953 
L 288.42738 281.226534 
L 291.276578 281.206047 
L 294.125775 281.18502 
L 296.974973 281.164103 
L 299.824171 281.143624 
L 302.673369 281.122863 
L 305.522567 281.102175 
L 308.371765 281.081301 
L 311.220963 281.060431 
L 314.07016 281.039327 
L 316.919358 281.018636 
L 319.768556 280.997768 
L 322.617754 280.977192 
L 325.466952 280.956319 
L 328.31615 280.935262 
L 331.165348 280.914568 
L 334.014545 280.893588 
L 336.863743 280.872749 
L 339.712941 280.851965 
L 342.562139 280.831045 
L 345.411337 280.810273 
L 348.260535 280.789842 
L 351.109733 280.769375 
L 353.95893 280.748902 
L 356.808128 280.72799 
L 359.657326 280.707121 
L 362.506524 280.68648 
L 365.355722 280.66593 
L 368.20492 280.645292 
L 371.054118 280.624504 
L 373.903316 280.603834 
L 376.752513 280.583082 
L 379.601711 280.56254 
L 382.450909 280.541937 
L 385.300107 280.521084 
L 388.149305 280.500241 
L 390.998503 280.479148 
L 393.847701 280.458515 
L 396.696898 280.438063 
L 399.546096 280.417286 
L 402.395294 280.396617 
L 405.244492 280.37609 
L 408.09369 280.355128 
L 410.942888 280.334411 
L 413.792086 280.313722 
L 416.641283 280.292967 
L 419.490481 280.272156 
L 422.339679 280.251401 
L 425.188877 280.230629 
L 428.038075 280.209844 
L 430.887273 280.189086 
" clip-path="url(#pc9fabfabae)" style="fill: none; stroke: #dd8452; stroke-width: 3; stroke-linecap: round"/>
   </g>
   <g id="line2d_16">
    <path d="M 91.832727 282.619037 
L 94.681925 282.616543 
L 97.531123 282.614054 
L 100.380321 282.611564 
L 103.229519 282.557828 
L 106.078717 282.504212 
L 108.927914 282.450475 
L 111.777112 282.397283 
L 114.62631 282.344485 
L 117.475508 282.29085 
L 120.324706 282.236915 
L 123.173904 282.18337 
L 126.023102 282.130014 
L 128.872299 282.076329 
L 131.721497 282.022864 
L 134.570695 281.969436 
L 137.419893 281.915906 
L 140.269091 281.862139 
L 143.118289 281.808192 
L 145.967487 281.755027 
L 148.816684 281.701639 
L 151.665882 281.647798 
L 154.51508 281.594255 
L 157.364278 281.540674 
L 160.213476 281.487729 
L 163.062674 281.434612 
L 165.911872 281.381065 
L 168.76107 281.327847 
L 171.610267 281.27416 
L 174.459465 281.220593 
L 177.308663 281.167306 
L 180.157861 281.113566 
L 183.007059 281.060312 
L 185.856257 281.006232 
L 188.705455 280.95274 
L 191.554652 280.899079 
L 194.40385 280.845084 
L 197.253048 280.791859 
L 200.102246 280.738798 
L 202.951444 280.685365 
L 205.800642 280.631615 
L 208.64984 280.578606 
L 211.499037 280.52522 
L 214.348235 280.471519 
L 217.197433 280.418103 
L 220.046631 280.364643 
L 222.895829 280.311302 
L 225.745027 280.257886 
L 228.594225 280.20485 
L 231.443422 280.152097 
L 234.29262 280.098975 
L 237.141818 280.045954 
L 239.991016 279.993216 
L 242.840214 279.94025 
L 245.689412 279.887402 
L 248.53861 279.834333 
L 251.387807 279.781207 
L 254.237005 279.728212 
L 257.086203 279.675421 
L 259.935401 279.622469 
L 262.784599 279.569796 
L 265.633797 279.516904 
L 268.482995 279.4637 
L 271.332193 279.410236 
L 274.18139 279.357421 
L 277.030588 279.304442 
L 279.879786 279.251211 
L 282.728984 279.198379 
L 285.578182 279.145539 
L 288.42738 279.09243 
L 291.276578 279.039573 
L 294.125775 278.987026 
L 296.974973 278.933966 
L 299.824171 278.88153 
L 302.673369 278.828392 
L 305.522567 278.775926 
L 308.371765 278.722105 
L 311.220963 278.668418 
L 314.07016 278.615037 
L 316.919358 278.561063 
L 319.768556 278.507456 
L 322.617754 278.453773 
L 325.466952 278.40038 
L 328.31615 278.347267 
L 331.165348 278.294012 
L 334.014545 278.240557 
L 336.863743 278.187049 
L 339.712941 278.133659 
L 342.562139 278.08018 
L 345.411337 278.026142 
L 348.260535 277.972701 
L 351.109733 277.919709 
L 353.95893 277.865809 
L 356.808128 277.811997 
L 359.657326 277.758639 
L 362.506524 277.705007 
L 365.355722 277.652218 
L 368.20492 277.599455 
L 371.054118 277.54645 
L 373.903316 277.49326 
L 376.752513 277.43984 
L 379.601711 277.387006 
L 382.450909 277.33373 
L 385.300107 277.280923 
L 388.149305 277.227953 
L 390.998503 277.174993 
L 393.847701 277.122167 
L 396.696898 277.069442 
L 399.546096 277.017145 
L 402.395294 276.963844 
L 405.244492 276.910567 
L 408.09369 276.857932 
L 410.942888 276.804642 
L 413.792086 276.751411 
L 416.641283 276.698115 
L 419.490481 276.644701 
L 422.339679 276.591712 
L 425.188877 276.538653 
L 428.038075 276.485657 
L 430.887273 276.432769 
" clip-path="url(#pc9fabfabae)" style="fill: none; stroke: #55a868; stroke-width: 3; stroke-linecap: round"/>
   </g>
   <g id="line2d_17">
    <path d="M 91.832727 282.614999 
L 94.681925 282.60771 
L 97.531123 282.60003 
L 100.380321 282.592641 
L 103.229519 282.477123 
L 106.078717 282.360863 
L 108.927914 282.245192 
L 111.777112 282.130625 
L 114.62631 282.015166 
L 117.475508 281.89877 
L 120.324706 281.781881 
L 123.173904 281.66726 
L 126.023102 281.556308 
L 128.872299 281.442171 
L 131.721497 281.329667 
L 134.570695 281.216371 
L 137.419893 281.103695 
L 140.269091 280.991449 
L 143.118289 280.878149 
L 145.967487 280.764442 
L 148.816684 280.651327 
L 151.665882 280.538989 
L 154.51508 280.426828 
L 157.364278 280.313654 
L 160.213476 280.201245 
L 163.062674 280.088531 
L 165.911872 279.974053 
L 168.76107 279.862309 
L 171.610267 279.749755 
L 174.459465 279.636214 
L 177.308663 279.52164 
L 180.157861 279.408598 
L 183.007059 279.294355 
L 185.856257 279.179963 
L 188.705455 279.066929 
L 191.554652 278.95256 
L 194.40385 278.841641 
L 197.253048 278.726486 
L 200.102246 278.614354 
L 202.951444 278.500029 
L 205.800642 278.387366 
L 208.64984 278.274029 
L 211.499037 278.159959 
L 214.348235 278.047437 
L 217.197433 277.93495 
L 220.046631 277.822446 
L 222.895829 277.707477 
L 225.745027 277.593673 
L 228.594225 277.480758 
L 231.443422 277.367656 
L 234.29262 277.25504 
L 237.141818 277.141076 
L 239.991016 277.027227 
L 242.840214 276.913804 
L 245.689412 276.800916 
L 248.53861 276.687245 
L 251.387807 276.574296 
L 254.237005 276.460132 
L 257.086203 276.347184 
L 259.935401 276.232317 
L 262.784599 276.120027 
L 265.633797 276.006052 
L 268.482995 275.89252 
L 271.332193 275.778775 
L 274.18139 275.663643 
L 277.030588 275.550774 
L 279.879786 275.438239 
L 282.728984 275.325307 
L 285.578182 275.210751 
L 288.42738 275.095347 
L 291.276578 274.981386 
L 294.125775 274.867196 
L 296.974973 274.75435 
L 299.824171 274.641077 
L 302.673369 274.527252 
L 305.522567 274.413108 
L 308.371765 274.297872 
L 311.220963 274.18302 
L 314.07016 274.069726 
L 316.919358 273.955508 
L 319.768556 273.84184 
L 322.617754 273.726393 
L 325.466952 273.613723 
L 328.31615 273.499147 
L 331.165348 273.384621 
L 334.014545 273.270623 
L 336.863743 273.155651 
L 339.712941 273.04048 
L 342.562139 272.925786 
L 345.411337 272.812329 
L 348.260535 272.698435 
L 351.109733 272.58484 
L 353.95893 272.472314 
L 356.808128 272.357523 
L 359.657326 272.243896 
L 362.506524 272.131104 
L 365.355722 272.016371 
L 368.20492 271.902864 
L 371.054118 271.788275 
L 373.903316 271.674073 
L 376.752513 271.558715 
L 379.601711 271.446001 
L 382.450909 271.332239 
L 385.300107 271.218478 
L 388.149305 271.104624 
L 390.998503 270.989756 
L 393.847701 270.876106 
L 396.696898 270.76189 
L 399.546096 270.647725 
L 402.395294 270.533162 
L 405.244492 270.419354 
L 408.09369 270.305552 
L 410.942888 270.189851 
L 413.792086 270.075642 
L 416.641283 269.963789 
L 419.490481 269.849192 
L 422.339679 269.736423 
L 425.188877 269.620389 
L 428.038075 269.506549 
L 430.887273 269.393165 
" clip-path="url(#pc9fabfabae)" style="fill: none; stroke: #c44e52; stroke-width: 3; stroke-linecap: round"/>
   </g>
   <g id="patch_3">
    <path d="M 74.88 294.66 
L 74.88 29.76 
" style="fill: none; stroke: #ffffff; stroke-width: 1.25; stroke-linejoin: miter; stroke-linecap: square"/>
   </g>
   <g id="patch_4">
    <path d="M 447.84 294.66 
L 447.84 29.76 
" style="fill: none; stroke: #ffffff; stroke-width: 1.25; stroke-linejoin: miter; stroke-linecap: square"/>
   </g>
   <g id="patch_5">
    <path d="M 74.88 294.66 
L 447.84 294.66 
" style="fill: none; stroke: #ffffff; stroke-width: 1.25; stroke-linejoin: miter; stroke-linecap: square"/>
   </g>
   <g id="patch_6">
    <path d="M 74.88 29.76 
L 447.84 29.76 
" style="fill: none; stroke: #ffffff; stroke-width: 1.25; stroke-linejoin: miter; stroke-linecap: square"/>
   </g>
   <g id="text_16">
    <!-- zinc-coating-v0 -->
    <g style="fill: #262626" transform="translate(208.001406 23.76)scale(0.14 -0.14)">
     <defs>
      <path id="DejaVuSans-7a" d="M 353 3500 
L 3084 3500 
L 3084 2975 
L 922 459 
L 3084 459 
L 3084 0 
L 275 0 
L 275 525 
L 2438 3041 
L 353 3041 
L 353 3500 
z
" transform="scale(0.015625)"/>
      <path id="DejaVuSans-63" d="M 3122 3366 
L 3122 2828 
Q 2878 2963 2633 3030 
Q 2388 3097 2138 3097 
Q 1578 3097 1268 2742 
Q 959 2388 959 1747 
Q 959 1106 1268 751 
Q 1578 397 2138 397 
Q 2388 397 2633 464 
Q 2878 531 3122 666 
L 3122 134 
Q 2881 22 2623 -34 
Q 2366 -91 2075 -91 
Q 1284 -91 818 406 
Q 353 903 353 1747 
Q 353 2603 823 3093 
Q 1294 3584 2113 3584 
Q 2378 3584 2631 3529 
Q 2884 3475 3122 3366 
z
" transform="scale(0.015625)"/>
      <path id="DejaVuSans-2d" d="M 313 2009 
L 1997 2009 
L 1997 1497 
L 313 1497 
L 313 2009 
z
" transform="scale(0.015625)"/>
      <path id="DejaVuSans-67" d="M 2906 1791 
Q 2906 2416 2648 2759 
Q 2391 3103 1925 3103 
Q 1463 3103 1205 2759 
Q 947 2416 947 1791 
Q 947 1169 1205 825 
Q 1463 481 1925 481 
Q 2391 481 2648 825 
Q 2906 1169 2906 1791 
z
M 3481 434 
Q 3481 -459 3084 -895 
Q 2688 -1331 1869 -1331 
Q 1566 -1331 1297 -1286 
Q 1028 -1241 775 -1147 
L 775 -588 
Q 1028 -725 1275 -790 
Q 1522 -856 1778 -856 
Q 2344 -856 2625 -561 
Q 2906 -266 2906 331 
L 2906 616 
Q 2728 306 2450 153 
Q 2172 0 1784 0 
Q 1141 0 747 490 
Q 353 981 353 1791 
Q 353 2603 747 3093 
Q 1141 3584 1784 3584 
Q 2172 3584 2450 3431 
Q 2728 3278 2906 2969 
L 2906 3500 
L 3481 3500 
L 3481 434 
z
" transform="scale(0.015625)"/>
      <path id="DejaVuSans-76" d="M 191 3500 
L 800 3500 
L 1894 563 
L 2988 3500 
L 3597 3500 
L 2284 0 
L 1503 0 
L 191 3500 
z
" transform="scale(0.015625)"/>
     </defs>
     <use xlink:href="#DejaVuSans-7a"/>
     <use xlink:href="#DejaVuSans-69" x="52.490234"/>
     <use xlink:href="#DejaVuSans-6e" x="80.273438"/>
     <use xlink:href="#DejaVuSans-63" x="143.652344"/>
     <use xlink:href="#DejaVuSans-2d" x="198.632812"/>
     <use xlink:href="#DejaVuSans-63" x="234.716797"/>
     <use xlink:href="#DejaVuSans-6f" x="289.697266"/>
     <use xlink:href="#DejaVuSans-61" x="350.878906"/>
     <use xlink:href="#DejaVuSans-74" x="412.158203"/>
     <use xlink:href="#DejaVuSans-69" x="451.367188"/>
     <use xlink:href="#DejaVuSans-6e" x="479.150391"/>
     <use xlink:href="#DejaVuSans-67" x="542.529297"/>
     <use xlink:href="#DejaVuSans-2d" x="606.005859"/>
     <use xlink:href="#DejaVuSans-76" x="639.464844"/>
     <use xlink:href="#DejaVuSans-30" x="698.644531"/>
    </g>
   </g>
   <g id="legend_1">
    <g id="patch_7">
     <path d="M 82.58 103.14375 
L 230.407969 103.14375 
Q 232.607969 103.14375 232.607969 100.94375 
L 232.607969 37.46 
Q 232.607969 35.26 230.407969 35.26 
L 82.58 35.26 
Q 80.38 35.26 80.38 37.46 
L 80.38 100.94375 
Q 80.38 103.14375 82.58 103.14375 
z
" style="fill: #eaeaf2; opacity: 0.8; stroke: #cccccc; stroke-linejoin: miter"/>
    </g>
    <g id="line2d_18">
     <path d="M 84.78 44.168281 
L 95.78 44.168281 
L 106.78 44.168281 
" style="fill: none; stroke: #4c72b0; stroke-width: 3; stroke-linecap: round"/>
    </g>
    <g id="text_17">
     <!-- DATS-DELAY-10 -->
     <g style="fill: #262626" transform="translate(115.58 48.018281)scale(0.11 -0.11)">
      <defs>
       <path id="DejaVuSans-44" d="M 1259 4147 
L 1259 519 
L 2022 519 
Q 2988 519 3436 956 
Q 3884 1394 3884 2338 
Q 3884 3275 3436 3711 
Q 2988 4147 2022 4147 
L 1259 4147 
z
M 628 4666 
L 1925 4666 
Q 3281 4666 3915 4102 
Q 4550 3538 4550 2338 
Q 4550 1131 3912 565 
Q 3275 0 1925 0 
L 628 0 
L 628 4666 
z
" transform="scale(0.015625)"/>
       <path id="DejaVuSans-41" d="M 2188 4044 
L 1331 1722 
L 3047 1722 
L 2188 4044 
z
M 1831 4666 
L 2547 4666 
L 4325 0 
L 3669 0 
L 3244 1197 
L 1141 1197 
L 716 0 
L 50 0 
L 1831 4666 
z
" transform="scale(0.015625)"/>
       <path id="DejaVuSans-53" d="M 3425 4513 
L 3425 3897 
Q 3066 4069 2747 4153 
Q 2428 4238 2131 4238 
Q 1616 4238 1336 4038 
Q 1056 3838 1056 3469 
Q 1056 3159 1242 3001 
Q 1428 2844 1947 2747 
L 2328 2669 
Q 3034 2534 3370 2195 
Q 3706 1856 3706 1288 
Q 3706 609 3251 259 
Q 2797 -91 1919 -91 
Q 1588 -91 1214 -16 
Q 841 59 441 206 
L 441 856 
Q 825 641 1194 531 
Q 1563 422 1919 422 
Q 2459 422 2753 634 
Q 3047 847 3047 1241 
Q 3047 1584 2836 1778 
Q 2625 1972 2144 2069 
L 1759 2144 
Q 1053 2284 737 2584 
Q 422 2884 422 3419 
Q 422 4038 858 4394 
Q 1294 4750 2059 4750 
Q 2388 4750 2728 4690 
Q 3069 4631 3425 4513 
z
" transform="scale(0.015625)"/>
       <path id="DejaVuSans-45" d="M 628 4666 
L 3578 4666 
L 3578 4134 
L 1259 4134 
L 1259 2753 
L 3481 2753 
L 3481 2222 
L 1259 2222 
L 1259 531 
L 3634 531 
L 3634 0 
L 628 0 
L 628 4666 
z
" transform="scale(0.015625)"/>
       <path id="DejaVuSans-4c" d="M 628 4666 
L 1259 4666 
L 1259 531 
L 3531 531 
L 3531 0 
L 628 0 
L 628 4666 
z
" transform="scale(0.015625)"/>
       <path id="DejaVuSans-59" d="M -13 4666 
L 666 4666 
L 1959 2747 
L 3244 4666 
L 3922 4666 
L 2272 2222 
L 2272 0 
L 1638 0 
L 1638 2222 
L -13 4666 
z
" transform="scale(0.015625)"/>
      </defs>
      <use xlink:href="#DejaVuSans-44"/>
      <use xlink:href="#DejaVuSans-41" x="75.251953"/>
      <use xlink:href="#DejaVuSans-54" x="135.910156"/>
      <use xlink:href="#DejaVuSans-53" x="196.994141"/>
      <use xlink:href="#DejaVuSans-2d" x="260.470703"/>
      <use xlink:href="#DejaVuSans-44" x="296.554688"/>
      <use xlink:href="#DejaVuSans-45" x="373.556641"/>
      <use xlink:href="#DejaVuSans-4c" x="436.740234"/>
      <use xlink:href="#DejaVuSans-41" x="494.703125"/>
      <use xlink:href="#DejaVuSans-59" x="555.361328"/>
      <use xlink:href="#DejaVuSans-2d" x="604.570312"/>
      <use xlink:href="#DejaVuSans-31" x="640.654297"/>
      <use xlink:href="#DejaVuSans-30" x="704.277344"/>
     </g>
    </g>
    <g id="line2d_19">
     <path d="M 84.78 60.314219 
L 95.78 60.314219 
L 106.78 60.314219 
" style="fill: none; stroke: #dd8452; stroke-width: 3; stroke-linecap: round"/>
    </g>
    <g id="text_18">
     <!-- SAC-DELAY-10 -->
     <g style="fill: #262626" transform="translate(115.58 64.164219)scale(0.11 -0.11)">
      <defs>
       <path id="DejaVuSans-43" d="M 4122 4306 
L 4122 3641 
Q 3803 3938 3442 4084 
Q 3081 4231 2675 4231 
Q 1875 4231 1450 3742 
Q 1025 3253 1025 2328 
Q 1025 1406 1450 917 
Q 1875 428 2675 428 
Q 3081 428 3442 575 
Q 3803 722 4122 1019 
L 4122 359 
Q 3791 134 3420 21 
Q 3050 -91 2638 -91 
Q 1578 -91 968 557 
Q 359 1206 359 2328 
Q 359 3453 968 4101 
Q 1578 4750 2638 4750 
Q 3056 4750 3426 4639 
Q 3797 4528 4122 4306 
z
" transform="scale(0.015625)"/>
      </defs>
      <use xlink:href="#DejaVuSans-53"/>
      <use xlink:href="#DejaVuSans-41" x="65.351562"/>
      <use xlink:href="#DejaVuSans-43" x="132.009766"/>
      <use xlink:href="#DejaVuSans-2d" x="201.833984"/>
      <use xlink:href="#DejaVuSans-44" x="237.917969"/>
      <use xlink:href="#DejaVuSans-45" x="314.919922"/>
      <use xlink:href="#DejaVuSans-4c" x="378.103516"/>
      <use xlink:href="#DejaVuSans-41" x="436.066406"/>
      <use xlink:href="#DejaVuSans-59" x="496.724609"/>
      <use xlink:href="#DejaVuSans-2d" x="545.933594"/>
      <use xlink:href="#DejaVuSans-31" x="582.017578"/>
      <use xlink:href="#DejaVuSans-30" x="645.640625"/>
     </g>
    </g>
    <g id="line2d_20">
     <path d="M 84.78 76.460156 
L 95.78 76.460156 
L 106.78 76.460156 
" style="fill: none; stroke: #55a868; stroke-width: 3; stroke-linecap: round"/>
    </g>
    <g id="text_19">
     <!-- SAC-IS-DELAY-10 -->
     <g style="fill: #262626" transform="translate(115.58 80.310156)scale(0.11 -0.11)">
      <defs>
       <path id="DejaVuSans-49" d="M 628 4666 
L 1259 4666 
L 1259 0 
L 628 0 
L 628 4666 
z
" transform="scale(0.015625)"/>
      </defs>
      <use xlink:href="#DejaVuSans-53"/>
      <use xlink:href="#DejaVuSans-41" x="65.351562"/>
      <use xlink:href="#DejaVuSans-43" x="132.009766"/>
      <use xlink:href="#DejaVuSans-2d" x="201.833984"/>
      <use xlink:href="#DejaVuSans-49" x="237.917969"/>
      <use xlink:href="#DejaVuSans-53" x="267.410156"/>
      <use xlink:href="#DejaVuSans-2d" x="330.886719"/>
      <use xlink:href="#DejaVuSans-44" x="366.970703"/>
      <use xlink:href="#DejaVuSans-45" x="443.972656"/>
      <use xlink:href="#DejaVuSans-4c" x="507.15625"/>
      <use xlink:href="#DejaVuSans-41" x="565.119141"/>
      <use xlink:href="#DejaVuSans-59" x="625.777344"/>
      <use xlink:href="#DejaVuSans-2d" x="674.986328"/>
      <use xlink:href="#DejaVuSans-31" x="711.070312"/>
      <use xlink:href="#DejaVuSans-30" x="774.693359"/>
     </g>
    </g>
    <g id="line2d_21">
     <path d="M 84.78 92.606094 
L 95.78 92.606094 
L 106.78 92.606094 
" style="fill: none; stroke: #c44e52; stroke-width: 3; stroke-linecap: round"/>
    </g>
    <g id="text_20">
     <!-- DCAC-DELAY-10-16C -->
     <g style="fill: #262626" transform="translate(115.58 96.456094)scale(0.11 -0.11)">
      <defs>
       <path id="DejaVuSans-36" d="M 2113 2584 
Q 1688 2584 1439 2293 
Q 1191 2003 1191 1497 
Q 1191 994 1439 701 
Q 1688 409 2113 409 
Q 2538 409 2786 701 
Q 3034 994 3034 1497 
Q 3034 2003 2786 2293 
Q 2538 2584 2113 2584 
z
M 3366 4563 
L 3366 3988 
Q 3128 4100 2886 4159 
Q 2644 4219 2406 4219 
Q 1781 4219 1451 3797 
Q 1122 3375 1075 2522 
Q 1259 2794 1537 2939 
Q 1816 3084 2150 3084 
Q 2853 3084 3261 2657 
Q 3669 2231 3669 1497 
Q 3669 778 3244 343 
Q 2819 -91 2113 -91 
Q 1303 -91 875 529 
Q 447 1150 447 2328 
Q 447 3434 972 4092 
Q 1497 4750 2381 4750 
Q 2619 4750 2861 4703 
Q 3103 4656 3366 4563 
z
" transform="scale(0.015625)"/>
      </defs>
      <use xlink:href="#DejaVuSans-44"/>
      <use xlink:href="#DejaVuSans-43" x="77.001953"/>
      <use xlink:href="#DejaVuSans-41" x="146.826172"/>
      <use xlink:href="#DejaVuSans-43" x="213.484375"/>
      <use xlink:href="#DejaVuSans-2d" x="283.308594"/>
      <use xlink:href="#DejaVuSans-44" x="319.392578"/>
      <use xlink:href="#DejaVuSans-45" x="396.394531"/>
      <use xlink:href="#DejaVuSans-4c" x="459.578125"/>
      <use xlink:href="#DejaVuSans-41" x="517.541016"/>
      <use xlink:href="#DejaVuSans-59" x="578.199219"/>
      <use xlink:href="#DejaVuSans-2d" x="627.408203"/>
      <use xlink:href="#DejaVuSans-31" x="663.492188"/>
      <use xlink:href="#DejaVuSans-30" x="727.115234"/>
      <use xlink:href="#DejaVuSans-2d" x="790.738281"/>
      <use xlink:href="#DejaVuSans-31" x="826.822266"/>
      <use xlink:href="#DejaVuSans-36" x="890.445312"/>
      <use xlink:href="#DejaVuSans-43" x="954.068359"/>
     </g>
    </g>
   </g>
  </g>
 </g>
 <defs>
  <clipPath id="pc9fabfabae">
   <rect x="74.88" y="29.76" width="372.96" height="264.9"/>
  </clipPath>
 </defs>
</svg>
