<?xml version="1.0" encoding="utf-8" standalone="no"?>
<!DOCTYPE svg PUBLIC "-//W3C//DTD SVG 1.1//EN"
  "http://www.w3.org/Graphics/SVG/1.1/DTD/svg11.dtd">
<svg xmlns:xlink="http://www.w3.org/1999/xlink" width="460.8pt" height="345.6pt" viewBox="0 0 460.8 345.6" xmlns="http://www.w3.org/2000/svg" version="1.1">
 <metadata>
  <rdf:RDF xmlns:dc="http://purl.org/dc/elements/1.1/" xmlns:cc="http://creativecommons.org/ns#" xmlns:rdf="http://www.w3.org/1999/02/22-rdf-syntax-ns#">
   <cc:Work>
    <dc:type rdf:resource="http://purl.org/dc/dcmitype/StillImage"/>
    <dc:date>2022-09-10T15:50:41.211634</dc:date>
    <dc:format>image/svg+xml</dc:format>
    <dc:creator>
     <cc:Agent>
      <dc:title>Matplotlib v3.5.3, https://matplotlib.org/</dc:title>
     </cc:Agent>
    </dc:creator>
   </cc:Work>
  </rdf:RDF>
 </metadata>
 <defs>
  <style type="text/css">*{stroke-linejoin: round; stroke-linecap: butt}</style>
 </defs>
 <g id="figure_1">
  <g id="patch_1">
   <path d="M 0 345.6 
L 460.8 345.6 
L 460.8 0 
L 0 0 
z
" style="fill: #ffffff"/>
  </g>
  <g id="axes_1">
   <g id="patch_2">
    <path d="M 74.88 294.66 
L 447.84 294.66 
L 447.84 29.76 
L 74.88 29.76 
z
" style="fill: #eaeaf2"/>
   </g>
   <g id="matplotlib.axis_1">
    <g id="xtick_1">
     <g id="line2d_1">
      <path d="M 88.983529 294.66 
L 88.983529 29.76 
" clip-path="url(#pa0d3969c06)" style="fill: none; stroke: #ffffff; stroke-linecap: round"/>
     </g>
     <g id="text_1">
      <!-- 0.00 -->
      <g style="fill: #262626" transform="translate(76.737436 312.518281)scale(0.11 -0.11)">
       <defs>
        <path id="DejaVuSans-30" d="M 2034 4250 
Q 1547 4250 1301 3770 
Q 1056 3291 1056 2328 
Q 1056 1369 1301 889 
Q 1547 409 2034 409 
Q 2525 409 2770 889 
Q 3016 1369 3016 2328 
Q 3016 3291 2770 3770 
Q 2525 4250 2034 4250 
z
M 2034 4750 
Q 2819 4750 3233 4129 
Q 3647 3509 3647 2328 
Q 3647 1150 3233 529 
Q 2819 -91 2034 -91 
Q 1250 -91 836 529 
Q 422 1150 422 2328 
Q 422 3509 836 4129 
Q 1250 4750 2034 4750 
z
" transform="scale(0.015625)"/>
        <path id="DejaVuSans-2e" d="M 684 794 
L 1344 794 
L 1344 0 
L 684 0 
L 684 794 
z
" transform="scale(0.015625)"/>
       </defs>
       <use xlink:href="#DejaVuSans-30"/>
       <use xlink:href="#DejaVuSans-2e" x="63.623047"/>
       <use xlink:href="#DejaVuSans-30" x="95.410156"/>
       <use xlink:href="#DejaVuSans-30" x="159.033203"/>
      </g>
     </g>
    </g>
    <g id="xtick_2">
     <g id="line2d_2">
      <path d="M 145.967487 294.66 
L 145.967487 29.76 
" clip-path="url(#pa0d3969c06)" style="fill: none; stroke: #ffffff; stroke-linecap: round"/>
     </g>
     <g id="text_2">
      <!-- 0.05 -->
      <g style="fill: #262626" transform="translate(133.721393 312.518281)scale(0.11 -0.11)">
       <defs>
        <path id="DejaVuSans-35" d="M 691 4666 
L 3169 4666 
L 3169 4134 
L 1269 4134 
L 1269 2991 
Q 1406 3038 1543 3061 
Q 1681 3084 1819 3084 
Q 2600 3084 3056 2656 
Q 3513 2228 3513 1497 
Q 3513 744 3044 326 
Q 2575 -91 1722 -91 
Q 1428 -91 1123 -41 
Q 819 9 494 109 
L 494 744 
Q 775 591 1075 516 
Q 1375 441 1709 441 
Q 2250 441 2565 725 
Q 2881 1009 2881 1497 
Q 2881 1984 2565 2268 
Q 2250 2553 1709 2553 
Q 1456 2553 1204 2497 
Q 953 2441 691 2322 
L 691 4666 
z
" transform="scale(0.015625)"/>
       </defs>
       <use xlink:href="#DejaVuSans-30"/>
       <use xlink:href="#DejaVuSans-2e" x="63.623047"/>
       <use xlink:href="#DejaVuSans-30" x="95.410156"/>
       <use xlink:href="#DejaVuSans-35" x="159.033203"/>
      </g>
     </g>
    </g>
    <g id="xtick_3">
     <g id="line2d_3">
      <path d="M 202.951444 294.66 
L 202.951444 29.76 
" clip-path="url(#pa0d3969c06)" style="fill: none; stroke: #ffffff; stroke-linecap: round"/>
     </g>
     <g id="text_3">
      <!-- 0.10 -->
      <g style="fill: #262626" transform="translate(190.70535 312.518281)scale(0.11 -0.11)">
       <defs>
        <path id="DejaVuSans-31" d="M 794 531 
L 1825 531 
L 1825 4091 
L 703 3866 
L 703 4441 
L 1819 4666 
L 2450 4666 
L 2450 531 
L 3481 531 
L 3481 0 
L 794 0 
L 794 531 
z
" transform="scale(0.015625)"/>
       </defs>
       <use xlink:href="#DejaVuSans-30"/>
       <use xlink:href="#DejaVuSans-2e" x="63.623047"/>
       <use xlink:href="#DejaVuSans-31" x="95.410156"/>
       <use xlink:href="#DejaVuSans-30" x="159.033203"/>
      </g>
     </g>
    </g>
    <g id="xtick_4">
     <g id="line2d_4">
      <path d="M 259.935401 294.66 
L 259.935401 29.76 
" clip-path="url(#pa0d3969c06)" style="fill: none; stroke: #ffffff; stroke-linecap: round"/>
     </g>
     <g id="text_4">
      <!-- 0.15 -->
      <g style="fill: #262626" transform="translate(247.689307 312.518281)scale(0.11 -0.11)">
       <use xlink:href="#DejaVuSans-30"/>
       <use xlink:href="#DejaVuSans-2e" x="63.623047"/>
       <use xlink:href="#DejaVuSans-31" x="95.410156"/>
       <use xlink:href="#DejaVuSans-35" x="159.033203"/>
      </g>
     </g>
    </g>
    <g id="xtick_5">
     <g id="line2d_5">
      <path d="M 316.919358 294.66 
L 316.919358 29.76 
" clip-path="url(#pa0d3969c06)" style="fill: none; stroke: #ffffff; stroke-linecap: round"/>
     </g>
     <g id="text_5">
      <!-- 0.20 -->
      <g style="fill: #262626" transform="translate(304.673265 312.518281)scale(0.11 -0.11)">
       <defs>
        <path id="DejaVuSans-32" d="M 1228 531 
L 3431 531 
L 3431 0 
L 469 0 
L 469 531 
Q 828 903 1448 1529 
Q 2069 2156 2228 2338 
Q 2531 2678 2651 2914 
Q 2772 3150 2772 3378 
Q 2772 3750 2511 3984 
Q 2250 4219 1831 4219 
Q 1534 4219 1204 4116 
Q 875 4013 500 3803 
L 500 4441 
Q 881 4594 1212 4672 
Q 1544 4750 1819 4750 
Q 2544 4750 2975 4387 
Q 3406 4025 3406 3419 
Q 3406 3131 3298 2873 
Q 3191 2616 2906 2266 
Q 2828 2175 2409 1742 
Q 1991 1309 1228 531 
z
" transform="scale(0.015625)"/>
       </defs>
       <use xlink:href="#DejaVuSans-30"/>
       <use xlink:href="#DejaVuSans-2e" x="63.623047"/>
       <use xlink:href="#DejaVuSans-32" x="95.410156"/>
       <use xlink:href="#DejaVuSans-30" x="159.033203"/>
      </g>
     </g>
    </g>
    <g id="xtick_6">
     <g id="line2d_6">
      <path d="M 373.903316 294.66 
L 373.903316 29.76 
" clip-path="url(#pa0d3969c06)" style="fill: none; stroke: #ffffff; stroke-linecap: round"/>
     </g>
     <g id="text_6">
      <!-- 0.25 -->
      <g style="fill: #262626" transform="translate(361.657222 312.518281)scale(0.11 -0.11)">
       <use xlink:href="#DejaVuSans-30"/>
       <use xlink:href="#DejaVuSans-2e" x="63.623047"/>
       <use xlink:href="#DejaVuSans-32" x="95.410156"/>
       <use xlink:href="#DejaVuSans-35" x="159.033203"/>
      </g>
     </g>
    </g>
    <g id="xtick_7">
     <g id="line2d_7">
      <path d="M 430.887273 294.66 
L 430.887273 29.76 
" clip-path="url(#pa0d3969c06)" style="fill: none; stroke: #ffffff; stroke-linecap: round"/>
     </g>
     <g id="text_7">
      <!-- 0.30 -->
      <g style="fill: #262626" transform="translate(418.641179 312.518281)scale(0.11 -0.11)">
       <defs>
        <path id="DejaVuSans-33" d="M 2597 2516 
Q 3050 2419 3304 2112 
Q 3559 1806 3559 1356 
Q 3559 666 3084 287 
Q 2609 -91 1734 -91 
Q 1441 -91 1130 -33 
Q 819 25 488 141 
L 488 750 
Q 750 597 1062 519 
Q 1375 441 1716 441 
Q 2309 441 2620 675 
Q 2931 909 2931 1356 
Q 2931 1769 2642 2001 
Q 2353 2234 1838 2234 
L 1294 2234 
L 1294 2753 
L 1863 2753 
Q 2328 2753 2575 2939 
Q 2822 3125 2822 3475 
Q 2822 3834 2567 4026 
Q 2313 4219 1838 4219 
Q 1578 4219 1281 4162 
Q 984 4106 628 3988 
L 628 4550 
Q 988 4650 1302 4700 
Q 1616 4750 1894 4750 
Q 2613 4750 3031 4423 
Q 3450 4097 3450 3541 
Q 3450 3153 3228 2886 
Q 3006 2619 2597 2516 
z
" transform="scale(0.015625)"/>
       </defs>
       <use xlink:href="#DejaVuSans-30"/>
       <use xlink:href="#DejaVuSans-2e" x="63.623047"/>
       <use xlink:href="#DejaVuSans-33" x="95.410156"/>
       <use xlink:href="#DejaVuSans-30" x="159.033203"/>
      </g>
     </g>
    </g>
    <g id="text_8">
     <!-- Timesteps (in Million) -->
     <g style="fill: #262626" transform="translate(186.614219 329.44375)scale(0.14 -0.14)">
      <defs>
       <path id="DejaVuSans-54" d="M -19 4666 
L 3928 4666 
L 3928 4134 
L 2272 4134 
L 2272 0 
L 1638 0 
L 1638 4134 
L -19 4134 
L -19 4666 
z
" transform="scale(0.015625)"/>
       <path id="DejaVuSans-69" d="M 603 3500 
L 1178 3500 
L 1178 0 
L 603 0 
L 603 3500 
z
M 603 4863 
L 1178 4863 
L 1178 4134 
L 603 4134 
L 603 4863 
z
" transform="scale(0.015625)"/>
       <path id="DejaVuSans-6d" d="M 3328 2828 
Q 3544 3216 3844 3400 
Q 4144 3584 4550 3584 
Q 5097 3584 5394 3201 
Q 5691 2819 5691 2113 
L 5691 0 
L 5113 0 
L 5113 2094 
Q 5113 2597 4934 2840 
Q 4756 3084 4391 3084 
Q 3944 3084 3684 2787 
Q 3425 2491 3425 1978 
L 3425 0 
L 2847 0 
L 2847 2094 
Q 2847 2600 2669 2842 
Q 2491 3084 2119 3084 
Q 1678 3084 1418 2786 
Q 1159 2488 1159 1978 
L 1159 0 
L 581 0 
L 581 3500 
L 1159 3500 
L 1159 2956 
Q 1356 3278 1631 3431 
Q 1906 3584 2284 3584 
Q 2666 3584 2933 3390 
Q 3200 3197 3328 2828 
z
" transform="scale(0.015625)"/>
       <path id="DejaVuSans-65" d="M 3597 1894 
L 3597 1613 
L 953 1613 
Q 991 1019 1311 708 
Q 1631 397 2203 397 
Q 2534 397 2845 478 
Q 3156 559 3463 722 
L 3463 178 
Q 3153 47 2828 -22 
Q 2503 -91 2169 -91 
Q 1331 -91 842 396 
Q 353 884 353 1716 
Q 353 2575 817 3079 
Q 1281 3584 2069 3584 
Q 2775 3584 3186 3129 
Q 3597 2675 3597 1894 
z
M 3022 2063 
Q 3016 2534 2758 2815 
Q 2500 3097 2075 3097 
Q 1594 3097 1305 2825 
Q 1016 2553 972 2059 
L 3022 2063 
z
" transform="scale(0.015625)"/>
       <path id="DejaVuSans-73" d="M 2834 3397 
L 2834 2853 
Q 2591 2978 2328 3040 
Q 2066 3103 1784 3103 
Q 1356 3103 1142 2972 
Q 928 2841 928 2578 
Q 928 2378 1081 2264 
Q 1234 2150 1697 2047 
L 1894 2003 
Q 2506 1872 2764 1633 
Q 3022 1394 3022 966 
Q 3022 478 2636 193 
Q 2250 -91 1575 -91 
Q 1294 -91 989 -36 
Q 684 19 347 128 
L 347 722 
Q 666 556 975 473 
Q 1284 391 1588 391 
Q 1994 391 2212 530 
Q 2431 669 2431 922 
Q 2431 1156 2273 1281 
Q 2116 1406 1581 1522 
L 1381 1569 
Q 847 1681 609 1914 
Q 372 2147 372 2553 
Q 372 3047 722 3315 
Q 1072 3584 1716 3584 
Q 2034 3584 2315 3537 
Q 2597 3491 2834 3397 
z
" transform="scale(0.015625)"/>
       <path id="DejaVuSans-74" d="M 1172 4494 
L 1172 3500 
L 2356 3500 
L 2356 3053 
L 1172 3053 
L 1172 1153 
Q 1172 725 1289 603 
Q 1406 481 1766 481 
L 2356 481 
L 2356 0 
L 1766 0 
Q 1100 0 847 248 
Q 594 497 594 1153 
L 594 3053 
L 172 3053 
L 172 3500 
L 594 3500 
L 594 4494 
L 1172 4494 
z
" transform="scale(0.015625)"/>
       <path id="DejaVuSans-70" d="M 1159 525 
L 1159 -1331 
L 581 -1331 
L 581 3500 
L 1159 3500 
L 1159 2969 
Q 1341 3281 1617 3432 
Q 1894 3584 2278 3584 
Q 2916 3584 3314 3078 
Q 3713 2572 3713 1747 
Q 3713 922 3314 415 
Q 2916 -91 2278 -91 
Q 1894 -91 1617 61 
Q 1341 213 1159 525 
z
M 3116 1747 
Q 3116 2381 2855 2742 
Q 2594 3103 2138 3103 
Q 1681 3103 1420 2742 
Q 1159 2381 1159 1747 
Q 1159 1113 1420 752 
Q 1681 391 2138 391 
Q 2594 391 2855 752 
Q 3116 1113 3116 1747 
z
" transform="scale(0.015625)"/>
       <path id="DejaVuSans-20" transform="scale(0.015625)"/>
       <path id="DejaVuSans-28" d="M 1984 4856 
Q 1566 4138 1362 3434 
Q 1159 2731 1159 2009 
Q 1159 1288 1364 580 
Q 1569 -128 1984 -844 
L 1484 -844 
Q 1016 -109 783 600 
Q 550 1309 550 2009 
Q 550 2706 781 3412 
Q 1013 4119 1484 4856 
L 1984 4856 
z
" transform="scale(0.015625)"/>
       <path id="DejaVuSans-6e" d="M 3513 2113 
L 3513 0 
L 2938 0 
L 2938 2094 
Q 2938 2591 2744 2837 
Q 2550 3084 2163 3084 
Q 1697 3084 1428 2787 
Q 1159 2491 1159 1978 
L 1159 0 
L 581 0 
L 581 3500 
L 1159 3500 
L 1159 2956 
Q 1366 3272 1645 3428 
Q 1925 3584 2291 3584 
Q 2894 3584 3203 3211 
Q 3513 2838 3513 2113 
z
" transform="scale(0.015625)"/>
       <path id="DejaVuSans-4d" d="M 628 4666 
L 1569 4666 
L 2759 1491 
L 3956 4666 
L 4897 4666 
L 4897 0 
L 4281 0 
L 4281 4097 
L 3078 897 
L 2444 897 
L 1241 4097 
L 1241 0 
L 628 0 
L 628 4666 
z
" transform="scale(0.015625)"/>
       <path id="DejaVuSans-6c" d="M 603 4863 
L 1178 4863 
L 1178 0 
L 603 0 
L 603 4863 
z
" transform="scale(0.015625)"/>
       <path id="DejaVuSans-6f" d="M 1959 3097 
Q 1497 3097 1228 2736 
Q 959 2375 959 1747 
Q 959 1119 1226 758 
Q 1494 397 1959 397 
Q 2419 397 2687 759 
Q 2956 1122 2956 1747 
Q 2956 2369 2687 2733 
Q 2419 3097 1959 3097 
z
M 1959 3584 
Q 2709 3584 3137 3096 
Q 3566 2609 3566 1747 
Q 3566 888 3137 398 
Q 2709 -91 1959 -91 
Q 1206 -91 779 398 
Q 353 888 353 1747 
Q 353 2609 779 3096 
Q 1206 3584 1959 3584 
z
" transform="scale(0.015625)"/>
       <path id="DejaVuSans-29" d="M 513 4856 
L 1013 4856 
Q 1481 4119 1714 3412 
Q 1947 2706 1947 2009 
Q 1947 1309 1714 600 
Q 1481 -109 1013 -844 
L 513 -844 
Q 928 -128 1133 580 
Q 1338 1288 1338 2009 
Q 1338 2731 1133 3434 
Q 928 4138 513 4856 
z
" transform="scale(0.015625)"/>
      </defs>
      <use xlink:href="#DejaVuSans-54"/>
      <use xlink:href="#DejaVuSans-69" x="57.958984"/>
      <use xlink:href="#DejaVuSans-6d" x="85.742188"/>
      <use xlink:href="#DejaVuSans-65" x="183.154297"/>
      <use xlink:href="#DejaVuSans-73" x="244.677734"/>
      <use xlink:href="#DejaVuSans-74" x="296.777344"/>
      <use xlink:href="#DejaVuSans-65" x="335.986328"/>
      <use xlink:href="#DejaVuSans-70" x="397.509766"/>
      <use xlink:href="#DejaVuSans-73" x="460.986328"/>
      <use xlink:href="#DejaVuSans-20" x="513.085938"/>
      <use xlink:href="#DejaVuSans-28" x="544.873047"/>
      <use xlink:href="#DejaVuSans-69" x="583.886719"/>
      <use xlink:href="#DejaVuSans-6e" x="611.669922"/>
      <use xlink:href="#DejaVuSans-20" x="675.048828"/>
      <use xlink:href="#DejaVuSans-4d" x="706.835938"/>
      <use xlink:href="#DejaVuSans-69" x="793.115234"/>
      <use xlink:href="#DejaVuSans-6c" x="820.898438"/>
      <use xlink:href="#DejaVuSans-6c" x="848.681641"/>
      <use xlink:href="#DejaVuSans-69" x="876.464844"/>
      <use xlink:href="#DejaVuSans-6f" x="904.248047"/>
      <use xlink:href="#DejaVuSans-6e" x="965.429688"/>
      <use xlink:href="#DejaVuSans-29" x="1028.808594"/>
     </g>
    </g>
   </g>
   <g id="matplotlib.axis_2">
    <g id="ytick_1">
     <g id="line2d_8">
      <path d="M 74.88 282.620525 
L 447.84 282.620525 
" clip-path="url(#pa0d3969c06)" style="fill: none; stroke: #ffffff; stroke-linecap: round"/>
     </g>
     <g id="text_9">
      <!-- 0 -->
      <g style="fill: #262626" transform="translate(58.38125 286.799665)scale(0.11 -0.11)">
       <use xlink:href="#DejaVuSans-30"/>
      </g>
     </g>
    </g>
    <g id="ytick_2">
     <g id="line2d_9">
      <path d="M 74.88 231.173554 
L 447.84 231.173554 
" clip-path="url(#pa0d3969c06)" style="fill: none; stroke: #ffffff; stroke-linecap: round"/>
     </g>
     <g id="text_10">
      <!-- 20000 -->
      <g style="fill: #262626" transform="translate(30.38625 235.352695)scale(0.11 -0.11)">
       <use xlink:href="#DejaVuSans-32"/>
       <use xlink:href="#DejaVuSans-30" x="63.623047"/>
       <use xlink:href="#DejaVuSans-30" x="127.246094"/>
       <use xlink:href="#DejaVuSans-30" x="190.869141"/>
       <use xlink:href="#DejaVuSans-30" x="254.492188"/>
      </g>
     </g>
    </g>
    <g id="ytick_3">
     <g id="line2d_10">
      <path d="M 74.88 179.726584 
L 447.84 179.726584 
" clip-path="url(#pa0d3969c06)" style="fill: none; stroke: #ffffff; stroke-linecap: round"/>
     </g>
     <g id="text_11">
      <!-- 40000 -->
      <g style="fill: #262626" transform="translate(30.38625 183.905725)scale(0.11 -0.11)">
       <defs>
        <path id="DejaVuSans-34" d="M 2419 4116 
L 825 1625 
L 2419 1625 
L 2419 4116 
z
M 2253 4666 
L 3047 4666 
L 3047 1625 
L 3713 1625 
L 3713 1100 
L 3047 1100 
L 3047 0 
L 2419 0 
L 2419 1100 
L 313 1100 
L 313 1709 
L 2253 4666 
z
" transform="scale(0.015625)"/>
       </defs>
       <use xlink:href="#DejaVuSans-34"/>
       <use xlink:href="#DejaVuSans-30" x="63.623047"/>
       <use xlink:href="#DejaVuSans-30" x="127.246094"/>
       <use xlink:href="#DejaVuSans-30" x="190.869141"/>
       <use xlink:href="#DejaVuSans-30" x="254.492188"/>
      </g>
     </g>
    </g>
    <g id="ytick_4">
     <g id="line2d_11">
      <path d="M 74.88 128.279614 
L 447.84 128.279614 
" clip-path="url(#pa0d3969c06)" style="fill: none; stroke: #ffffff; stroke-linecap: round"/>
     </g>
     <g id="text_12">
      <!-- 60000 -->
      <g style="fill: #262626" transform="translate(30.38625 132.458754)scale(0.11 -0.11)">
       <defs>
        <path id="DejaVuSans-36" d="M 2113 2584 
Q 1688 2584 1439 2293 
Q 1191 2003 1191 1497 
Q 1191 994 1439 701 
Q 1688 409 2113 409 
Q 2538 409 2786 701 
Q 3034 994 3034 1497 
Q 3034 2003 2786 2293 
Q 2538 2584 2113 2584 
z
M 3366 4563 
L 3366 3988 
Q 3128 4100 2886 4159 
Q 2644 4219 2406 4219 
Q 1781 4219 1451 3797 
Q 1122 3375 1075 2522 
Q 1259 2794 1537 2939 
Q 1816 3084 2150 3084 
Q 2853 3084 3261 2657 
Q 3669 2231 3669 1497 
Q 3669 778 3244 343 
Q 2819 -91 2113 -91 
Q 1303 -91 875 529 
Q 447 1150 447 2328 
Q 447 3434 972 4092 
Q 1497 4750 2381 4750 
Q 2619 4750 2861 4703 
Q 3103 4656 3366 4563 
z
" transform="scale(0.015625)"/>
       </defs>
       <use xlink:href="#DejaVuSans-36"/>
       <use xlink:href="#DejaVuSans-30" x="63.623047"/>
       <use xlink:href="#DejaVuSans-30" x="127.246094"/>
       <use xlink:href="#DejaVuSans-30" x="190.869141"/>
       <use xlink:href="#DejaVuSans-30" x="254.492188"/>
      </g>
     </g>
    </g>
    <g id="ytick_5">
     <g id="line2d_12">
      <path d="M 74.88 76.832643 
L 447.84 76.832643 
" clip-path="url(#pa0d3969c06)" style="fill: none; stroke: #ffffff; stroke-linecap: round"/>
     </g>
     <g id="text_13">
      <!-- 80000 -->
      <g style="fill: #262626" transform="translate(30.38625 81.011784)scale(0.11 -0.11)">
       <defs>
        <path id="DejaVuSans-38" d="M 2034 2216 
Q 1584 2216 1326 1975 
Q 1069 1734 1069 1313 
Q 1069 891 1326 650 
Q 1584 409 2034 409 
Q 2484 409 2743 651 
Q 3003 894 3003 1313 
Q 3003 1734 2745 1975 
Q 2488 2216 2034 2216 
z
M 1403 2484 
Q 997 2584 770 2862 
Q 544 3141 544 3541 
Q 544 4100 942 4425 
Q 1341 4750 2034 4750 
Q 2731 4750 3128 4425 
Q 3525 4100 3525 3541 
Q 3525 3141 3298 2862 
Q 3072 2584 2669 2484 
Q 3125 2378 3379 2068 
Q 3634 1759 3634 1313 
Q 3634 634 3220 271 
Q 2806 -91 2034 -91 
Q 1263 -91 848 271 
Q 434 634 434 1313 
Q 434 1759 690 2068 
Q 947 2378 1403 2484 
z
M 1172 3481 
Q 1172 3119 1398 2916 
Q 1625 2713 2034 2713 
Q 2441 2713 2670 2916 
Q 2900 3119 2900 3481 
Q 2900 3844 2670 4047 
Q 2441 4250 2034 4250 
Q 1625 4250 1398 4047 
Q 1172 3844 1172 3481 
z
" transform="scale(0.015625)"/>
       </defs>
       <use xlink:href="#DejaVuSans-38"/>
       <use xlink:href="#DejaVuSans-30" x="63.623047"/>
       <use xlink:href="#DejaVuSans-30" x="127.246094"/>
       <use xlink:href="#DejaVuSans-30" x="190.869141"/>
       <use xlink:href="#DejaVuSans-30" x="254.492188"/>
      </g>
     </g>
    </g>
    <g id="text_14">
     <!-- Traintime -->
     <g style="fill: #262626" transform="translate(23.474687 194.815781)rotate(-90)scale(0.14 -0.14)">
      <defs>
       <path id="DejaVuSans-72" d="M 2631 2963 
Q 2534 3019 2420 3045 
Q 2306 3072 2169 3072 
Q 1681 3072 1420 2755 
Q 1159 2438 1159 1844 
L 1159 0 
L 581 0 
L 581 3500 
L 1159 3500 
L 1159 2956 
Q 1341 3275 1631 3429 
Q 1922 3584 2338 3584 
Q 2397 3584 2469 3576 
Q 2541 3569 2628 3553 
L 2631 2963 
z
" transform="scale(0.015625)"/>
       <path id="DejaVuSans-61" d="M 2194 1759 
Q 1497 1759 1228 1600 
Q 959 1441 959 1056 
Q 959 750 1161 570 
Q 1363 391 1709 391 
Q 2188 391 2477 730 
Q 2766 1069 2766 1631 
L 2766 1759 
L 2194 1759 
z
M 3341 1997 
L 3341 0 
L 2766 0 
L 2766 531 
Q 2569 213 2275 61 
Q 1981 -91 1556 -91 
Q 1019 -91 701 211 
Q 384 513 384 1019 
Q 384 1609 779 1909 
Q 1175 2209 1959 2209 
L 2766 2209 
L 2766 2266 
Q 2766 2663 2505 2880 
Q 2244 3097 1772 3097 
Q 1472 3097 1187 3025 
Q 903 2953 641 2809 
L 641 3341 
Q 956 3463 1253 3523 
Q 1550 3584 1831 3584 
Q 2591 3584 2966 3190 
Q 3341 2797 3341 1997 
z
" transform="scale(0.015625)"/>
      </defs>
      <use xlink:href="#DejaVuSans-54"/>
      <use xlink:href="#DejaVuSans-72" x="46.333984"/>
      <use xlink:href="#DejaVuSans-61" x="87.447266"/>
      <use xlink:href="#DejaVuSans-69" x="148.726562"/>
      <use xlink:href="#DejaVuSans-6e" x="176.509766"/>
      <use xlink:href="#DejaVuSans-74" x="239.888672"/>
      <use xlink:href="#DejaVuSans-69" x="279.097656"/>
      <use xlink:href="#DejaVuSans-6d" x="306.880859"/>
      <use xlink:href="#DejaVuSans-65" x="404.292969"/>
     </g>
    </g>
   </g>
   <g id="PolyCollection_1">
    <defs>
     <path id="m9f8b749612" d="M 91.832727 -64.890344 
L 91.832727 -64.890344 
L 94.681925 -66.68085 
L 97.531123 -68.471481 
L 100.380321 -70.261927 
L 103.229519 -72.052883 
L 106.078717 -73.843396 
L 108.927914 -75.648507 
L 111.777112 -77.567907 
L 114.62631 -79.520783 
L 117.475508 -81.525385 
L 120.324706 -83.484702 
L 123.173904 -85.427187 
L 126.023102 -87.367747 
L 128.872299 -89.307644 
L 131.721497 -91.242843 
L 134.570695 -93.210339 
L 137.419893 -95.157218 
L 140.269091 -97.179939 
L 143.118289 -99.260915 
L 145.967487 -101.340506 
L 148.816684 -103.42131 
L 151.665882 -105.501796 
L 154.51508 -107.581703 
L 157.364278 -109.661179 
L 160.213476 -111.740632 
L 163.062674 -113.821154 
L 165.911872 -115.900838 
L 168.76107 -117.981778 
L 171.610267 -120.052343 
L 174.459465 -122.124449 
L 177.308663 -124.08862 
L 180.157861 -125.986863 
L 183.007059 -127.883223 
L 185.856257 -129.782504 
L 188.705455 -131.682828 
L 191.554652 -133.582228 
L 194.40385 -135.544363 
L 197.253048 -137.440587 
L 200.102246 -139.33798 
L 202.951444 -141.235586 
L 205.800642 -143.163821 
L 208.64984 -145.090343 
L 211.499037 -146.985965 
L 214.348235 -148.882633 
L 217.197433 -150.777034 
L 220.046631 -152.690805 
L 222.895829 -154.599625 
L 225.745027 -156.491763 
L 228.594225 -158.39017 
L 231.443422 -160.281726 
L 234.29262 -162.177497 
L 237.141818 -164.113928 
L 239.991016 -166.022881 
L 242.840214 -167.951576 
L 245.689412 -169.875664 
L 248.53861 -171.778454 
L 251.387807 -173.668207 
L 254.237005 -175.556363 
L 257.086203 -177.44394 
L 259.935401 -179.341572 
L 262.784599 -181.231527 
L 265.633797 -183.129305 
L 268.482995 -185.031822 
L 271.332193 -186.922447 
L 274.18139 -188.849618 
L 277.030588 -190.763056 
L 279.879786 -192.752868 
L 282.728984 -194.65054 
L 285.578182 -196.5529 
L 288.42738 -198.45057 
L 291.276578 -200.463127 
L 294.125775 -202.519871 
L 296.974973 -204.627919 
L 299.824171 -206.710182 
L 302.673369 -208.817793 
L 305.522567 -210.930613 
L 308.371765 -213.020602 
L 311.220963 -215.039505 
L 314.07016 -217.053336 
L 316.919358 -219.168668 
L 319.768556 -221.15122 
L 322.617754 -223.250528 
L 325.466952 -225.314711 
L 328.31615 -227.350327 
L 331.165348 -229.345041 
L 334.014545 -231.386702 
L 336.863743 -233.371297 
L 339.712941 -235.351412 
L 342.562139 -237.352662 
L 345.411337 -239.523385 
L 348.260535 -241.706114 
L 351.109733 -243.664375 
L 353.95893 -245.740695 
L 356.808128 -247.942752 
L 359.657326 -250.084975 
L 362.506524 -252.094356 
L 365.355722 -254.074831 
L 368.20492 -256.273756 
L 371.054118 -258.520183 
L 373.903316 -260.940296 
L 376.752513 -263.135129 
L 379.601711 -265.665063 
L 382.450909 -267.807344 
L 385.300107 -269.893401 
L 388.149305 -271.932599 
L 390.998503 -274.34687 
L 393.847701 -276.57482 
L 396.696898 -278.768991 
L 399.546096 -280.898338 
L 402.395294 -282.954029 
L 405.244492 -285.057221 
L 408.09369 -287.426891 
L 410.942888 -289.408167 
L 413.792086 -291.424149 
L 416.641283 -293.554161 
L 419.490481 -295.877045 
L 422.339679 -297.835513 
L 425.188877 -299.791051 
L 428.038075 -301.796242 
L 430.887273 -303.799091 
L 430.887273 -303.799091 
L 430.887273 -303.799091 
L 428.038075 -301.796242 
L 425.188877 -299.791051 
L 422.339679 -297.835513 
L 419.490481 -295.877045 
L 416.641283 -293.554161 
L 413.792086 -291.424149 
L 410.942888 -289.408167 
L 408.09369 -287.426891 
L 405.244492 -285.057221 
L 402.395294 -282.954029 
L 399.546096 -280.898338 
L 396.696898 -278.768991 
L 393.847701 -276.57482 
L 390.998503 -274.34687 
L 388.149305 -271.932599 
L 385.300107 -269.893401 
L 382.450909 -267.807344 
L 379.601711 -265.665063 
L 376.752513 -263.135129 
L 373.903316 -260.940296 
L 371.054118 -258.520183 
L 368.20492 -256.273756 
L 365.355722 -254.074831 
L 362.506524 -252.094356 
L 359.657326 -250.084975 
L 356.808128 -247.942752 
L 353.95893 -245.740695 
L 351.109733 -243.664375 
L 348.260535 -241.706114 
L 345.411337 -239.523385 
L 342.562139 -237.352662 
L 339.712941 -235.351412 
L 336.863743 -233.371297 
L 334.014545 -231.386702 
L 331.165348 -229.345041 
L 328.31615 -227.350327 
L 325.466952 -225.314711 
L 322.617754 -223.250528 
L 319.768556 -221.15122 
L 316.919358 -219.168668 
L 314.07016 -217.053336 
L 311.220963 -215.039505 
L 308.371765 -213.020602 
L 305.522567 -210.930613 
L 302.673369 -208.817793 
L 299.824171 -206.710182 
L 296.974973 -204.627919 
L 294.125775 -202.519871 
L 291.276578 -200.463127 
L 288.42738 -198.45057 
L 285.578182 -196.5529 
L 282.728984 -194.65054 
L 279.879786 -192.752868 
L 277.030588 -190.763056 
L 274.18139 -188.849618 
L 271.332193 -186.922447 
L 268.482995 -185.031822 
L 265.633797 -183.129305 
L 262.784599 -181.231527 
L 259.935401 -179.341572 
L 257.086203 -177.44394 
L 254.237005 -175.556363 
L 251.387807 -173.668207 
L 248.53861 -171.778454 
L 245.689412 -169.875664 
L 242.840214 -167.951576 
L 239.991016 -166.022881 
L 237.141818 -164.113928 
L 234.29262 -162.177497 
L 231.443422 -160.281726 
L 228.594225 -158.39017 
L 225.745027 -156.491763 
L 222.895829 -154.599625 
L 220.046631 -152.690805 
L 217.197433 -150.777034 
L 214.348235 -148.882633 
L 211.499037 -146.985965 
L 208.64984 -145.090343 
L 205.800642 -143.163821 
L 202.951444 -141.235586 
L 200.102246 -139.33798 
L 197.253048 -137.440587 
L 194.40385 -135.544363 
L 191.554652 -133.582228 
L 188.705455 -131.682828 
L 185.856257 -129.782504 
L 183.007059 -127.883223 
L 180.157861 -125.986863 
L 177.308663 -124.08862 
L 174.459465 -122.124449 
L 171.610267 -120.052343 
L 168.76107 -117.981778 
L 165.911872 -115.900838 
L 163.062674 -113.821154 
L 160.213476 -111.740632 
L 157.364278 -109.661179 
L 154.51508 -107.581703 
L 151.665882 -105.501796 
L 148.816684 -103.42131 
L 145.967487 -101.340506 
L 143.118289 -99.260915 
L 140.269091 -97.179939 
L 137.419893 -95.157218 
L 134.570695 -93.210339 
L 131.721497 -91.242843 
L 128.872299 -89.307644 
L 126.023102 -87.367747 
L 123.173904 -85.427187 
L 120.324706 -83.484702 
L 117.475508 -81.525385 
L 114.62631 -79.520783 
L 111.777112 -77.567907 
L 108.927914 -75.648507 
L 106.078717 -73.843396 
L 103.229519 -72.052883 
L 100.380321 -70.261927 
L 97.531123 -68.471481 
L 94.681925 -66.68085 
L 91.832727 -64.890344 
z
" style="stroke: #ffffff; stroke-opacity: 0.5"/>
    </defs>
    <g clip-path="url(#pa0d3969c06)">
     <use xlink:href="#m9f8b749612" x="0" y="345.6" style="fill: #4c72b0; fill-opacity: 0.5; stroke: #ffffff; stroke-opacity: 0.5"/>
    </g>
   </g>
   <g id="PolyCollection_2">
    <defs>
     <path id="m6808bc0b25" d="M 91.832727 -62.980909 
L 91.832727 -62.981005 
L 94.681925 -62.982519 
L 97.531123 -62.984074 
L 100.380321 -62.985556 
L 103.229519 -62.998375 
L 106.078717 -63.011025 
L 108.927914 -63.023895 
L 111.777112 -63.036738 
L 114.62631 -63.049481 
L 117.475508 -63.06233 
L 120.324706 -63.075031 
L 123.173904 -63.0876 
L 126.023102 -63.100152 
L 128.872299 -63.112513 
L 131.721497 -63.124823 
L 134.570695 -63.137339 
L 137.419893 -63.149688 
L 140.269091 -63.161849 
L 143.118289 -63.174298 
L 145.967487 -63.186598 
L 148.816684 -63.199005 
L 151.665882 -63.211408 
L 154.51508 -63.223867 
L 157.364278 -63.236478 
L 160.213476 -63.248828 
L 163.062674 -63.261342 
L 165.911872 -63.273364 
L 168.76107 -63.285938 
L 171.610267 -63.298148 
L 174.459465 -63.310488 
L 177.308663 -63.322721 
L 180.157861 -63.335359 
L 183.007059 -63.347774 
L 185.856257 -63.360555 
L 188.705455 -63.373563 
L 191.554652 -63.386403 
L 194.40385 -63.398761 
L 197.253048 -63.41106 
L 200.102246 -63.424054 
L 202.951444 -63.436308 
L 205.800642 -63.448437 
L 208.64984 -63.460894 
L 211.499037 -63.47343 
L 214.348235 -63.485503 
L 217.197433 -63.497432 
L 220.046631 -63.509513 
L 222.895829 -63.521704 
L 225.745027 -63.533677 
L 228.594225 -63.545787 
L 231.443422 -63.557834 
L 234.29262 -63.570093 
L 237.141818 -63.58227 
L 239.991016 -63.594407 
L 242.840214 -63.606351 
L 245.689412 -63.618521 
L 248.53861 -63.630995 
L 251.387807 -63.64344 
L 254.237005 -63.655855 
L 257.086203 -63.668013 
L 259.935401 -63.680464 
L 262.784599 -63.69279 
L 265.633797 -63.70522 
L 268.482995 -63.717722 
L 271.332193 -63.730335 
L 274.18139 -63.742609 
L 277.030588 -63.755068 
L 279.879786 -63.767397 
L 282.728984 -63.779606 
L 285.578182 -63.792216 
L 288.42738 -63.804593 
L 291.276578 -63.816988 
L 294.125775 -63.829495 
L 296.974973 -63.841737 
L 299.824171 -63.853819 
L 302.673369 -63.866099 
L 305.522567 -63.878288 
L 308.371765 -63.890492 
L 311.220963 -63.903036 
L 314.07016 -63.91519 
L 316.919358 -63.927442 
L 319.768556 -63.939435 
L 322.617754 -63.95174 
L 325.466952 -63.964144 
L 328.31615 -63.976248 
L 331.165348 -63.988531 
L 334.014545 -64.000815 
L 336.863743 -64.012832 
L 339.712941 -64.025163 
L 342.562139 -64.037466 
L 345.411337 -64.04964 
L 348.260535 -64.062302 
L 351.109733 -64.07456 
L 353.95893 -64.087018 
L 356.808128 -64.099413 
L 359.657326 -64.111926 
L 362.506524 -64.124344 
L 365.355722 -64.13695 
L 368.20492 -64.14922 
L 371.054118 -64.161287 
L 373.903316 -64.173365 
L 376.752513 -64.186004 
L 379.601711 -64.198101 
L 382.450909 -64.210534 
L 385.300107 -64.222917 
L 388.149305 -64.235069 
L 390.998503 -64.24693 
L 393.847701 -64.259316 
L 396.696898 -64.271828 
L 399.546096 -64.283963 
L 402.395294 -64.295919 
L 405.244492 -64.308177 
L 408.09369 -64.320769 
L 410.942888 -64.33319 
L 413.792086 -64.345486 
L 416.641283 -64.35761 
L 419.490481 -64.369742 
L 422.339679 -64.381925 
L 425.188877 -64.394509 
L 428.038075 -64.406739 
L 430.887273 -64.4189 
L 430.887273 -64.395356 
L 430.887273 -64.395356 
L 428.038075 -64.383133 
L 425.188877 -64.371189 
L 422.339679 -64.358911 
L 419.490481 -64.347056 
L 416.641283 -64.334821 
L 413.792086 -64.322605 
L 410.942888 -64.310427 
L 408.09369 -64.298605 
L 405.244492 -64.286492 
L 402.395294 -64.274176 
L 399.546096 -64.262164 
L 396.696898 -64.250205 
L 393.847701 -64.238095 
L 390.998503 -64.225985 
L 388.149305 -64.213732 
L 385.300107 -64.201482 
L 382.450909 -64.189487 
L 379.601711 -64.177435 
L 376.752513 -64.165266 
L 373.903316 -64.153043 
L 371.054118 -64.140829 
L 368.20492 -64.128811 
L 365.355722 -64.116933 
L 362.506524 -64.105003 
L 359.657326 -64.092602 
L 356.808128 -64.080601 
L 353.95893 -64.068624 
L 351.109733 -64.056661 
L 348.260535 -64.044442 
L 345.411337 -64.032376 
L 342.562139 -64.020084 
L 339.712941 -64.008219 
L 336.863743 -63.995937 
L 334.014545 -63.9839 
L 331.165348 -63.972 
L 328.31615 -63.960145 
L 325.466952 -63.948088 
L 322.617754 -63.935971 
L 319.768556 -63.92364 
L 316.919358 -63.911295 
L 314.07016 -63.899352 
L 311.220963 -63.887277 
L 308.371765 -63.875435 
L 305.522567 -63.863158 
L 302.673369 -63.851129 
L 299.824171 -63.838966 
L 296.974973 -63.826872 
L 294.125775 -63.814798 
L 291.276578 -63.802729 
L 288.42738 -63.790322 
L 285.578182 -63.778056 
L 282.728984 -63.766145 
L 279.879786 -63.754223 
L 277.030588 -63.742141 
L 274.18139 -63.730161 
L 271.332193 -63.718249 
L 268.482995 -63.706476 
L 265.633797 -63.694488 
L 262.784599 -63.682524 
L 259.935401 -63.670288 
L 257.086203 -63.658156 
L 254.237005 -63.646245 
L 251.387807 -63.634308 
L 248.53861 -63.62204 
L 245.689412 -63.609759 
L 242.840214 -63.597516 
L 239.991016 -63.584925 
L 237.141818 -63.572663 
L 234.29262 -63.560177 
L 231.443422 -63.547609 
L 228.594225 -63.535138 
L 225.745027 -63.52296 
L 222.895829 -63.510806 
L 220.046631 -63.498202 
L 217.197433 -63.485513 
L 214.348235 -63.473249 
L 211.499037 -63.461177 
L 208.64984 -63.449075 
L 205.800642 -63.436869 
L 202.951444 -63.424295 
L 200.102246 -63.41234 
L 197.253048 -63.400362 
L 194.40385 -63.388143 
L 191.554652 -63.375843 
L 188.705455 -63.363579 
L 185.856257 -63.351164 
L 183.007059 -63.338732 
L 180.157861 -63.326468 
L 177.308663 -63.314304 
L 174.459465 -63.302335 
L 171.610267 -63.289994 
L 168.76107 -63.277838 
L 165.911872 -63.265848 
L 163.062674 -63.25396 
L 160.213476 -63.241656 
L 157.364278 -63.229344 
L 154.51508 -63.217138 
L 151.665882 -63.204932 
L 148.816684 -63.192697 
L 145.967487 -63.180599 
L 143.118289 -63.168538 
L 140.269091 -63.155973 
L 137.419893 -63.143999 
L 134.570695 -63.132003 
L 131.721497 -63.119546 
L 128.872299 -63.107318 
L 126.023102 -63.095524 
L 123.173904 -63.083465 
L 120.324706 -63.071139 
L 117.475508 -63.058761 
L 114.62631 -63.046636 
L 111.777112 -63.03428 
L 108.927914 -63.021757 
L 106.078717 -63.009495 
L 103.229519 -62.997271 
L 100.380321 -62.985161 
L 97.531123 -62.983757 
L 94.681925 -62.982342 
L 91.832727 -62.980909 
z
" style="stroke: #ffffff; stroke-opacity: 0.5"/>
    </defs>
    <g clip-path="url(#pa0d3969c06)">
     <use xlink:href="#m6808bc0b25" x="0" y="345.6" style="fill: #dd8452; fill-opacity: 0.5; stroke: #ffffff; stroke-opacity: 0.5"/>
    </g>
   </g>
   <g id="PolyCollection_3">
    <defs>
     <path id="m02e71ccddc" d="M 91.832727 -62.980972 
L 91.832727 -62.981064 
L 94.681925 -62.982608 
L 97.531123 -62.98414 
L 100.380321 -62.985626 
L 103.229519 -62.999392 
L 106.078717 -63.013457 
L 108.927914 -63.027112 
L 111.777112 -63.040716 
L 114.62631 -63.054237 
L 117.475508 -63.068115 
L 120.324706 -63.081781 
L 123.173904 -63.095249 
L 126.023102 -63.108873 
L 128.872299 -63.122502 
L 131.721497 -63.135796 
L 134.570695 -63.149435 
L 137.419893 -63.162886 
L 140.269091 -63.176552 
L 143.118289 -63.189944 
L 145.967487 -63.20351 
L 148.816684 -63.217353 
L 151.665882 -63.230725 
L 154.51508 -63.244397 
L 157.364278 -63.258223 
L 160.213476 -63.271748 
L 163.062674 -63.285273 
L 165.911872 -63.298897 
L 168.76107 -63.312558 
L 171.610267 -63.326105 
L 174.459465 -63.339464 
L 177.308663 -63.35303 
L 180.157861 -63.367031 
L 183.007059 -63.380505 
L 185.856257 -63.394069 
L 188.705455 -63.407429 
L 191.554652 -63.421104 
L 194.40385 -63.435011 
L 197.253048 -63.448534 
L 200.102246 -63.462029 
L 202.951444 -63.475522 
L 205.800642 -63.489257 
L 208.64984 -63.50291 
L 211.499037 -63.516456 
L 214.348235 -63.53002 
L 217.197433 -63.543462 
L 220.046631 -63.557041 
L 222.895829 -63.570612 
L 225.745027 -63.58445 
L 228.594225 -63.59751 
L 231.443422 -63.611259 
L 234.29262 -63.624804 
L 237.141818 -63.638082 
L 239.991016 -63.652108 
L 242.840214 -63.66567 
L 245.689412 -63.67942 
L 248.53861 -63.692942 
L 251.387807 -63.706424 
L 254.237005 -63.720015 
L 257.086203 -63.733531 
L 259.935401 -63.746921 
L 262.784599 -63.760358 
L 265.633797 -63.773879 
L 268.482995 -63.787857 
L 271.332193 -63.801248 
L 274.18139 -63.814573 
L 277.030588 -63.827969 
L 279.879786 -63.841334 
L 282.728984 -63.854917 
L 285.578182 -63.868195 
L 288.42738 -63.881863 
L 291.276578 -63.895379 
L 294.125775 -63.908606 
L 296.974973 -63.921871 
L 299.824171 -63.935473 
L 302.673369 -63.948984 
L 305.522567 -63.962773 
L 308.371765 -63.976502 
L 311.220963 -63.990246 
L 314.07016 -64.003694 
L 316.919358 -64.016983 
L 319.768556 -64.030788 
L 322.617754 -64.044092 
L 325.466952 -64.057455 
L 328.31615 -64.07149 
L 331.165348 -64.085039 
L 334.014545 -64.098624 
L 336.863743 -64.112142 
L 339.712941 -64.125415 
L 342.562139 -64.138626 
L 345.411337 -64.151978 
L 348.260535 -64.165314 
L 351.109733 -64.179067 
L 353.95893 -64.192406 
L 356.808128 -64.205703 
L 359.657326 -64.219275 
L 362.506524 -64.232602 
L 365.355722 -64.245698 
L 368.20492 -64.259302 
L 371.054118 -64.272858 
L 373.903316 -64.286689 
L 376.752513 -64.300095 
L 379.601711 -64.31387 
L 382.450909 -64.327379 
L 385.300107 -64.34074 
L 388.149305 -64.354223 
L 390.998503 -64.367771 
L 393.847701 -64.381485 
L 396.696898 -64.395022 
L 399.546096 -64.408343 
L 402.395294 -64.421669 
L 405.244492 -64.434917 
L 408.09369 -64.448583 
L 410.942888 -64.462339 
L 413.792086 -64.475664 
L 416.641283 -64.489305 
L 419.490481 -64.503285 
L 422.339679 -64.516597 
L 425.188877 -64.530209 
L 428.038075 -64.54371 
L 430.887273 -64.557694 
L 430.887273 -64.531114 
L 430.887273 -64.531114 
L 428.038075 -64.517938 
L 425.188877 -64.504776 
L 422.339679 -64.491464 
L 419.490481 -64.477271 
L 416.641283 -64.463899 
L 413.792086 -64.450323 
L 410.942888 -64.436888 
L 408.09369 -64.423559 
L 405.244492 -64.409625 
L 402.395294 -64.396048 
L 399.546096 -64.382149 
L 396.696898 -64.368931 
L 393.847701 -64.355885 
L 390.998503 -64.342413 
L 388.149305 -64.329126 
L 385.300107 -64.316001 
L 382.450909 -64.302892 
L 379.601711 -64.289788 
L 376.752513 -64.276674 
L 373.903316 -64.263455 
L 371.054118 -64.250191 
L 368.20492 -64.237048 
L 365.355722 -64.223878 
L 362.506524 -64.210671 
L 359.657326 -64.197587 
L 356.808128 -64.184343 
L 353.95893 -64.170773 
L 351.109733 -64.157876 
L 348.260535 -64.144788 
L 345.411337 -64.131259 
L 342.562139 -64.118009 
L 339.712941 -64.104835 
L 336.863743 -64.091406 
L 334.014545 -64.078292 
L 331.165348 -64.065362 
L 328.31615 -64.052113 
L 325.466952 -64.038663 
L 322.617754 -64.025486 
L 319.768556 -64.012125 
L 316.919358 -63.998977 
L 314.07016 -63.985468 
L 311.220963 -63.972014 
L 308.371765 -63.958402 
L 305.522567 -63.945231 
L 302.673369 -63.931777 
L 299.824171 -63.918247 
L 296.974973 -63.9047 
L 294.125775 -63.891251 
L 291.276578 -63.878086 
L 288.42738 -63.864983 
L 285.578182 -63.851699 
L 282.728984 -63.838229 
L 279.879786 -63.824995 
L 277.030588 -63.811675 
L 274.18139 -63.798539 
L 271.332193 -63.785281 
L 268.482995 -63.772294 
L 265.633797 -63.758828 
L 262.784599 -63.745411 
L 259.935401 -63.732293 
L 257.086203 -63.718884 
L 254.237005 -63.70517 
L 251.387807 -63.691692 
L 248.53861 -63.677682 
L 245.689412 -63.664339 
L 242.840214 -63.651346 
L 239.991016 -63.638155 
L 237.141818 -63.624826 
L 234.29262 -63.611602 
L 231.443422 -63.598573 
L 228.594225 -63.585403 
L 225.745027 -63.571912 
L 222.895829 -63.558761 
L 220.046631 -63.545574 
L 217.197433 -63.532016 
L 214.348235 -63.518826 
L 211.499037 -63.505512 
L 208.64984 -63.49225 
L 205.800642 -63.479248 
L 202.951444 -63.46597 
L 200.102246 -63.452736 
L 197.253048 -63.439202 
L 194.40385 -63.425801 
L 191.554652 -63.412428 
L 188.705455 -63.399275 
L 185.856257 -63.38584 
L 183.007059 -63.372174 
L 180.157861 -63.358894 
L 177.308663 -63.345433 
L 174.459465 -63.332057 
L 171.610267 -63.318385 
L 168.76107 -63.305214 
L 165.911872 -63.29222 
L 163.062674 -63.27907 
L 160.213476 -63.265618 
L 157.364278 -63.252295 
L 154.51508 -63.239077 
L 151.665882 -63.225796 
L 148.816684 -63.212613 
L 145.967487 -63.199256 
L 143.118289 -63.185761 
L 140.269091 -63.17261 
L 137.419893 -63.159343 
L 134.570695 -63.145991 
L 131.721497 -63.132749 
L 128.872299 -63.119691 
L 126.023102 -63.105925 
L 123.173904 -63.092975 
L 120.324706 -63.079666 
L 117.475508 -63.065974 
L 114.62631 -63.052902 
L 111.777112 -63.039435 
L 108.927914 -63.025987 
L 106.078717 -63.012907 
L 103.229519 -62.999234 
L 100.380321 -62.985414 
L 97.531123 -62.983949 
L 94.681925 -62.982461 
L 91.832727 -62.980972 
z
" style="stroke: #ffffff; stroke-opacity: 0.5"/>
    </defs>
    <g clip-path="url(#pa0d3969c06)">
     <use xlink:href="#m02e71ccddc" x="0" y="345.6" style="fill: #55a868; fill-opacity: 0.5; stroke: #ffffff; stroke-opacity: 0.5"/>
    </g>
   </g>
   <g id="PolyCollection_4">
    <defs>
     <path id="m588d015169" d="M 91.832727 -62.988593 
L 91.832727 -62.988836 
L 94.681925 -62.998602 
L 97.531123 -63.008598 
L 100.380321 -63.018418 
L 103.229519 -64.336643 
L 106.078717 -65.618039 
L 108.927914 -66.898764 
L 111.777112 -68.212268 
L 114.62631 -69.508767 
L 117.475508 -70.836018 
L 120.324706 -72.175314 
L 123.173904 -73.523291 
L 126.023102 -74.771917 
L 128.872299 -76.039749 
L 131.721497 -77.314072 
L 134.570695 -78.605873 
L 137.419893 -79.903297 
L 140.269091 -81.22791 
L 143.118289 -82.550109 
L 145.967487 -83.890702 
L 148.816684 -85.235667 
L 151.665882 -86.592574 
L 154.51508 -87.953932 
L 157.364278 -89.334803 
L 160.213476 -90.589443 
L 163.062674 -91.860447 
L 165.911872 -93.138501 
L 168.76107 -94.431465 
L 171.610267 -95.732134 
L 174.459465 -97.072697 
L 177.308663 -98.402088 
L 180.157861 -99.745261 
L 183.007059 -101.078052 
L 185.856257 -102.433764 
L 188.705455 -103.790287 
L 191.554652 -105.170173 
L 194.40385 -106.430368 
L 197.253048 -107.699871 
L 200.102246 -108.974843 
L 202.951444 -110.269323 
L 205.800642 -111.570283 
L 208.64984 -112.878058 
L 211.499037 -114.205114 
L 214.348235 -115.546647 
L 217.197433 -116.892696 
L 220.046631 -118.253056 
L 222.895829 -119.610265 
L 225.745027 -120.986258 
L 228.594225 -122.241446 
L 231.443422 -123.519341 
L 234.29262 -124.802342 
L 237.141818 -126.10246 
L 239.991016 -127.404438 
L 242.840214 -128.724033 
L 245.689412 -130.045345 
L 248.53861 -131.387376 
L 251.387807 -132.727707 
L 254.237005 -134.08383 
L 257.086203 -135.442381 
L 259.935401 -136.832022 
L 262.784599 -138.085179 
L 265.633797 -139.356065 
L 268.482995 -140.636769 
L 271.332193 -141.944889 
L 274.18139 -143.258945 
L 277.030588 -144.578263 
L 279.879786 -145.903549 
L 282.728984 -147.239173 
L 285.578182 -148.588237 
L 288.42738 -149.945849 
L 291.276578 -151.30988 
L 294.125775 -152.686153 
L 296.974973 -153.940023 
L 299.824171 -155.210013 
L 302.673369 -156.502991 
L 305.522567 -157.811839 
L 308.371765 -159.122126 
L 311.220963 -160.443946 
L 314.07016 -161.778109 
L 316.919358 -163.120487 
L 319.768556 -164.463206 
L 322.617754 -165.826001 
L 325.466952 -167.210293 
L 328.31615 -168.604815 
L 331.165348 -169.872314 
L 334.014545 -171.150323 
L 336.863743 -172.434392 
L 339.712941 -173.731304 
L 342.562139 -175.036256 
L 345.411337 -176.35428 
L 348.260535 -177.678627 
L 351.109733 -179.028249 
L 353.95893 -180.395656 
L 356.808128 -181.762095 
L 359.657326 -183.139181 
L 362.506524 -184.537499 
L 365.355722 -185.808425 
L 368.20492 -187.09228 
L 371.054118 -188.383323 
L 373.903316 -189.694107 
L 376.752513 -191.013004 
L 379.601711 -192.35195 
L 382.450909 -193.694787 
L 385.300107 -195.051125 
L 388.149305 -196.408486 
L 390.998503 -197.771824 
L 393.847701 -199.13982 
L 396.696898 -200.526904 
L 399.546096 -201.785491 
L 402.395294 -203.061836 
L 405.244492 -204.344199 
L 408.09369 -205.642309 
L 410.942888 -206.946295 
L 413.792086 -208.267742 
L 416.641283 -209.595592 
L 419.490481 -210.942869 
L 422.339679 -212.283552 
L 425.188877 -213.640617 
L 428.038075 -215.002917 
L 430.887273 -216.396464 
L 430.887273 -216.11007 
L 430.887273 -216.11007 
L 428.038075 -214.720142 
L 425.188877 -213.352001 
L 422.339679 -211.990314 
L 419.490481 -210.644064 
L 416.641283 -209.304873 
L 413.792086 -207.978132 
L 410.942888 -206.656874 
L 408.09369 -205.340992 
L 405.244492 -204.034227 
L 402.395294 -202.744211 
L 399.546096 -201.468826 
L 396.696898 -200.207507 
L 393.847701 -198.811476 
L 390.998503 -197.435394 
L 388.149305 -196.074138 
L 385.300107 -194.731993 
L 382.450909 -193.388545 
L 379.601711 -192.066096 
L 376.752513 -190.747452 
L 373.903316 -189.450505 
L 371.054118 -188.151223 
L 368.20492 -186.872611 
L 365.355722 -185.596496 
L 362.506524 -184.334868 
L 359.657326 -182.950023 
L 356.808128 -181.588233 
L 353.95893 -180.233804 
L 351.109733 -178.882203 
L 348.260535 -177.543436 
L 345.411337 -176.221569 
L 342.562139 -174.902173 
L 339.712941 -173.598548 
L 336.863743 -172.304151 
L 334.014545 -171.025356 
L 331.165348 -169.752127 
L 328.31615 -168.501801 
L 325.466952 -167.121622 
L 322.617754 -165.761565 
L 319.768556 -164.410769 
L 316.919358 -163.068897 
L 314.07016 -161.731834 
L 311.220963 -160.407747 
L 308.371765 -159.091234 
L 305.522567 -157.786863 
L 302.673369 -156.485892 
L 299.824171 -155.205879 
L 296.974973 -153.926698 
L 294.125775 -152.669854 
L 291.276578 -151.279517 
L 288.42738 -149.917191 
L 285.578182 -148.562611 
L 282.728984 -147.22079 
L 279.879786 -145.884087 
L 277.030588 -144.563618 
L 274.18139 -143.236503 
L 271.332193 -141.933522 
L 268.482995 -140.635542 
L 265.633797 -139.354131 
L 262.784599 -138.079367 
L 259.935401 -136.820248 
L 257.086203 -135.440699 
L 254.237005 -134.049426 
L 251.387807 -132.692505 
L 248.53861 -131.363896 
L 245.689412 -130.03618 
L 242.840214 -128.71724 
L 239.991016 -127.389851 
L 237.141818 -126.073915 
L 234.29262 -124.759793 
L 231.443422 -123.479509 
L 228.594225 -122.20477 
L 225.745027 -120.951132 
L 222.895829 -119.565917 
L 220.046631 -118.207447 
L 217.197433 -116.850679 
L 214.348235 -115.502429 
L 211.499037 -114.162211 
L 208.64984 -112.842105 
L 205.800642 -111.530033 
L 202.951444 -110.234042 
L 200.102246 -108.943712 
L 197.253048 -107.667594 
L 194.40385 -106.399419 
L 191.554652 -105.13605 
L 188.705455 -103.751591 
L 185.856257 -102.392317 
L 183.007059 -101.048099 
L 180.157861 -99.707516 
L 177.308663 -98.369662 
L 174.459465 -97.051115 
L 171.610267 -95.729019 
L 168.76107 -94.425217 
L 165.911872 -93.136722 
L 163.062674 -91.858049 
L 160.213476 -90.587499 
L 157.364278 -89.32372 
L 154.51508 -87.930186 
L 151.665882 -86.553123 
L 148.816684 -85.199071 
L 145.967487 -83.867872 
L 143.118289 -82.533978 
L 140.269091 -81.210725 
L 137.419893 -79.90129 
L 134.570695 -78.602644 
L 131.721497 -77.304578 
L 128.872299 -76.026894 
L 126.023102 -74.757826 
L 123.173904 -73.503627 
L 120.324706 -72.145892 
L 117.475508 -70.808922 
L 114.62631 -69.469636 
L 111.777112 -68.161903 
L 108.927914 -66.861548 
L 106.078717 -65.574913 
L 103.229519 -64.29839 
L 100.380321 -63.018314 
L 97.531123 -63.00845 
L 94.681925 -62.998403 
L 91.832727 -62.988593 
z
" style="stroke: #ffffff; stroke-opacity: 0.5"/>
    </defs>
    <g clip-path="url(#pa0d3969c06)">
     <use xlink:href="#m588d015169" x="0" y="345.6" style="fill: #c44e52; fill-opacity: 0.5; stroke: #ffffff; stroke-opacity: 0.5"/>
    </g>
   </g>
   <g id="line2d_13">
    <path d="M 91.832727 280.709656 
L 94.681925 278.91915 
L 97.531123 277.128519 
L 100.380321 275.338073 
L 103.229519 273.547117 
L 106.078717 271.756604 
L 108.927914 269.951493 
L 111.777112 268.032093 
L 114.62631 266.079217 
L 117.475508 264.074615 
L 120.324706 262.115298 
L 123.173904 260.172813 
L 126.023102 258.232253 
L 128.872299 256.292356 
L 131.721497 254.357157 
L 134.570695 252.389661 
L 137.419893 250.442782 
L 140.269091 248.420061 
L 143.118289 246.339085 
L 145.967487 244.259494 
L 148.816684 242.17869 
L 151.665882 240.098204 
L 154.51508 238.018297 
L 157.364278 235.938821 
L 160.213476 233.859368 
L 163.062674 231.778846 
L 165.911872 229.699162 
L 168.76107 227.618222 
L 171.610267 225.547657 
L 174.459465 223.475551 
L 177.308663 221.51138 
L 180.157861 219.613137 
L 183.007059 217.716777 
L 185.856257 215.817496 
L 188.705455 213.917172 
L 191.554652 212.017772 
L 194.40385 210.055637 
L 197.253048 208.159413 
L 200.102246 206.26202 
L 202.951444 204.364414 
L 205.800642 202.436179 
L 208.64984 200.509657 
L 211.499037 198.614035 
L 214.348235 196.717367 
L 217.197433 194.822966 
L 220.046631 192.909195 
L 222.895829 191.000375 
L 225.745027 189.108237 
L 228.594225 187.20983 
L 231.443422 185.318274 
L 234.29262 183.422503 
L 237.141818 181.486072 
L 239.991016 179.577119 
L 242.840214 177.648424 
L 245.689412 175.724336 
L 248.53861 173.821546 
L 251.387807 171.931793 
L 254.237005 170.043637 
L 257.086203 168.15606 
L 259.935401 166.258428 
L 262.784599 164.368473 
L 265.633797 162.470695 
L 268.482995 160.568178 
L 271.332193 158.677553 
L 274.18139 156.750382 
L 277.030588 154.836944 
L 279.879786 152.847132 
L 282.728984 150.94946 
L 285.578182 149.0471 
L 288.42738 147.14943 
L 291.276578 145.136873 
L 294.125775 143.080129 
L 296.974973 140.972081 
L 299.824171 138.889818 
L 302.673369 136.782207 
L 305.522567 134.669387 
L 308.371765 132.579398 
L 311.220963 130.560495 
L 314.07016 128.546664 
L 316.919358 126.431332 
L 319.768556 124.44878 
L 322.617754 122.349472 
L 325.466952 120.285289 
L 328.31615 118.249673 
L 331.165348 116.254959 
L 334.014545 114.213298 
L 336.863743 112.228703 
L 339.712941 110.248588 
L 342.562139 108.247338 
L 345.411337 106.076615 
L 348.260535 103.893886 
L 351.109733 101.935625 
L 353.95893 99.859305 
L 356.808128 97.657248 
L 359.657326 95.515025 
L 362.506524 93.505644 
L 365.355722 91.525169 
L 368.20492 89.326244 
L 371.054118 87.079817 
L 373.903316 84.659704 
L 376.752513 82.464871 
L 379.601711 79.934937 
L 382.450909 77.792656 
L 385.300107 75.706599 
L 388.149305 73.667401 
L 390.998503 71.25313 
L 393.847701 69.02518 
L 396.696898 66.831009 
L 399.546096 64.701662 
L 402.395294 62.645971 
L 405.244492 60.542779 
L 408.09369 58.173109 
L 410.942888 56.191833 
L 413.792086 54.175851 
L 416.641283 52.045839 
L 419.490481 49.722955 
L 422.339679 47.764487 
L 425.188877 45.808949 
L 428.038075 43.803758 
L 430.887273 41.800909 
" clip-path="url(#pa0d3969c06)" style="fill: none; stroke: #4c72b0; stroke-width: 3; stroke-linecap: round"/>
   </g>
   <g id="line2d_14">
    <path d="M 91.832727 282.61905 
L 94.681925 282.617583 
L 97.531123 282.616121 
L 100.380321 282.61468 
L 103.229519 282.602189 
L 106.078717 282.589724 
L 108.927914 282.577287 
L 111.777112 282.564806 
L 114.62631 282.552396 
L 117.475508 282.540061 
L 120.324706 282.527643 
L 123.173904 282.515207 
L 126.023102 282.502831 
L 128.872299 282.49049 
L 131.721497 282.478081 
L 134.570695 282.465651 
L 137.419893 282.45323 
L 140.269091 282.440875 
L 143.118289 282.428234 
L 145.967487 282.415772 
L 148.816684 282.403432 
L 151.665882 282.391015 
L 154.51508 282.378567 
L 157.364278 282.366118 
L 160.213476 282.35371 
L 163.062674 282.341294 
L 165.911872 282.329171 
L 168.76107 282.316915 
L 171.610267 282.304552 
L 174.459465 282.292271 
L 177.308663 282.279922 
L 180.157861 282.267532 
L 183.007059 282.25505 
L 185.856257 282.242726 
L 188.705455 282.230312 
L 191.554652 282.217988 
L 194.40385 282.205613 
L 197.253048 282.193381 
L 200.102246 282.181016 
L 202.951444 282.168898 
L 205.800642 282.156579 
L 208.64984 282.144304 
L 211.499037 282.132076 
L 214.348235 282.120003 
L 217.197433 282.107926 
L 220.046631 282.095722 
L 222.895829 282.08346 
L 225.745027 282.071297 
L 228.594225 282.059175 
L 231.443422 282.046899 
L 234.29262 282.034647 
L 237.141818 282.022318 
L 239.991016 282.010132 
L 242.840214 281.99787 
L 245.689412 281.985736 
L 248.53861 281.973414 
L 251.387807 281.961185 
L 254.237005 281.948942 
L 257.086203 281.936823 
L 259.935401 281.924693 
L 262.784599 281.912457 
L 265.633797 281.900298 
L 268.482995 281.888166 
L 271.332193 281.875969 
L 274.18139 281.863885 
L 277.030588 281.851889 
L 279.879786 281.839781 
L 282.728984 281.827638 
L 285.578182 281.815421 
L 288.42738 281.803202 
L 291.276578 281.790847 
L 294.125775 281.778695 
L 296.974973 281.766466 
L 299.824171 281.754316 
L 302.673369 281.742101 
L 305.522567 281.729919 
L 308.371765 281.717801 
L 311.220963 281.70571 
L 314.07016 281.693713 
L 316.919358 281.681633 
L 319.768556 281.669485 
L 322.617754 281.657246 
L 325.466952 281.645063 
L 328.31615 281.632916 
L 331.165348 281.620778 
L 334.014545 281.608698 
L 336.863743 281.596573 
L 339.712941 281.584252 
L 342.562139 281.572217 
L 345.411337 281.56001 
L 348.260535 281.547678 
L 351.109733 281.535511 
L 353.95893 281.523378 
L 356.808128 281.511153 
L 359.657326 281.498957 
L 362.506524 281.486418 
L 365.355722 281.474149 
L 368.20492 281.461943 
L 371.054118 281.449794 
L 373.903316 281.437621 
L 376.752513 281.425309 
L 379.601711 281.413198 
L 382.450909 281.400933 
L 385.300107 281.388657 
L 388.149305 281.376477 
L 390.998503 281.364376 
L 393.847701 281.352066 
L 396.696898 281.339925 
L 399.546096 281.327828 
L 402.395294 281.315763 
L 405.244492 281.303596 
L 408.09369 281.291406 
L 410.942888 281.279155 
L 413.792086 281.266946 
L 416.641283 281.254788 
L 419.490481 281.242587 
L 422.339679 281.230503 
L 425.188877 281.218222 
L 428.038075 281.206052 
L 430.887273 281.193852 
" clip-path="url(#pa0d3969c06)" style="fill: none; stroke: #dd8452; stroke-width: 3; stroke-linecap: round"/>
   </g>
   <g id="line2d_15">
    <path d="M 91.832727 282.618999 
L 94.681925 282.617487 
L 97.531123 282.615985 
L 100.380321 282.614492 
L 103.229519 282.600672 
L 106.078717 282.58688 
L 108.927914 282.573358 
L 111.777112 282.559888 
L 114.62631 282.546346 
L 117.475508 282.532817 
L 120.324706 282.51919 
L 123.173904 282.505758 
L 126.023102 282.492442 
L 128.872299 282.47883 
L 131.721497 282.465515 
L 134.570695 282.452004 
L 137.419893 282.438644 
L 140.269091 282.425177 
L 143.118289 282.411753 
L 145.967487 282.398286 
L 148.816684 282.384766 
L 151.665882 282.371324 
L 154.51508 282.357949 
L 157.364278 282.344603 
L 160.213476 282.331236 
L 163.062674 282.317779 
L 165.911872 282.304393 
L 168.76107 282.291049 
L 171.610267 282.277729 
L 174.459465 282.264304 
L 177.308663 282.25079 
L 180.157861 282.237215 
L 183.007059 282.223743 
L 185.856257 282.21018 
L 188.705455 282.196734 
L 191.554652 282.183311 
L 194.40385 282.169758 
L 197.253048 282.156198 
L 200.102246 282.142756 
L 202.951444 282.129308 
L 205.800642 282.115902 
L 208.64984 282.1024 
L 211.499037 282.089006 
L 214.348235 282.075497 
L 217.197433 282.062073 
L 220.046631 282.04865 
L 222.895829 282.035183 
L 225.745027 282.021755 
L 228.594225 282.0084 
L 231.443422 281.994871 
L 234.29262 281.981539 
L 237.141818 281.968123 
L 239.991016 281.954624 
L 242.840214 281.941166 
L 245.689412 281.927747 
L 248.53861 281.914337 
L 251.387807 281.900806 
L 254.237005 281.887259 
L 257.086203 281.873814 
L 259.935401 281.860405 
L 262.784599 281.847046 
L 265.633797 281.833607 
L 268.482995 281.819906 
L 271.332193 281.806625 
L 274.18139 281.79307 
L 277.030588 281.779648 
L 279.879786 281.766166 
L 282.728984 281.752634 
L 285.578182 281.739208 
L 288.42738 281.725629 
L 291.276578 281.712267 
L 294.125775 281.69894 
L 296.974973 281.685577 
L 299.824171 281.672072 
L 302.673369 281.658598 
L 305.522567 281.64511 
L 308.371765 281.631609 
L 311.220963 281.618061 
L 314.07016 281.604528 
L 316.919358 281.59116 
L 319.768556 281.577773 
L 322.617754 281.564385 
L 325.466952 281.551027 
L 328.31615 281.537429 
L 331.165348 281.523999 
L 334.014545 281.510428 
L 336.863743 281.497007 
L 339.712941 281.483529 
L 342.562139 281.470121 
L 345.411337 281.45676 
L 348.260535 281.443081 
L 351.109733 281.429697 
L 353.95893 281.416379 
L 356.808128 281.402814 
L 359.657326 281.389444 
L 362.506524 281.376071 
L 365.355722 281.362747 
L 368.20492 281.349427 
L 371.054118 281.336054 
L 373.903316 281.322529 
L 376.752513 281.309188 
L 379.601711 281.295742 
L 382.450909 281.282332 
L 385.300107 281.269018 
L 388.149305 281.255681 
L 390.998503 281.242238 
L 393.847701 281.228711 
L 396.696898 281.215424 
L 399.546096 281.202106 
L 402.395294 281.188452 
L 405.244492 281.175073 
L 408.09369 281.161488 
L 410.942888 281.148119 
L 413.792086 281.134848 
L 416.641283 281.121368 
L 419.490481 281.107825 
L 422.339679 281.094293 
L 425.188877 281.080733 
L 428.038075 281.06726 
L 430.887273 281.053636 
" clip-path="url(#pa0d3969c06)" style="fill: none; stroke: #55a868; stroke-width: 3; stroke-linecap: round"/>
   </g>
   <g id="line2d_16">
    <path d="M 91.832727 282.611285 
L 94.681925 282.601497 
L 97.531123 282.591476 
L 100.380321 282.581634 
L 103.229519 281.282483 
L 106.078717 280.003524 
L 108.927914 278.719844 
L 111.777112 277.412915 
L 114.62631 276.110798 
L 117.475508 274.77753 
L 120.324706 273.439397 
L 123.173904 272.086541 
L 126.023102 270.835129 
L 128.872299 269.566678 
L 131.721497 268.290675 
L 134.570695 266.995742 
L 137.419893 265.697707 
L 140.269091 264.380683 
L 143.118289 263.057957 
L 145.967487 261.720713 
L 148.816684 260.382631 
L 151.665882 259.027151 
L 154.51508 257.657941 
L 157.364278 256.270739 
L 160.213476 255.011529 
L 163.062674 253.740752 
L 165.911872 252.462389 
L 168.76107 251.171659 
L 171.610267 249.869423 
L 174.459465 248.538094 
L 177.308663 247.214125 
L 180.157861 245.873611 
L 183.007059 244.536924 
L 185.856257 243.186959 
L 188.705455 241.829061 
L 191.554652 240.446888 
L 194.40385 239.185106 
L 197.253048 237.916268 
L 200.102246 236.640722 
L 202.951444 235.348317 
L 205.800642 234.049842 
L 208.64984 232.739919 
L 211.499037 231.416337 
L 214.348235 230.075462 
L 217.197433 228.728313 
L 220.046631 227.369749 
L 222.895829 226.011909 
L 225.745027 224.631305 
L 228.594225 223.376892 
L 231.443422 222.100575 
L 234.29262 220.818932 
L 237.141818 219.511813 
L 239.991016 218.202856 
L 242.840214 216.879363 
L 245.689412 215.559237 
L 248.53861 214.224364 
L 251.387807 212.889894 
L 254.237005 211.533372 
L 257.086203 210.15846 
L 259.935401 208.773865 
L 262.784599 207.517727 
L 265.633797 206.244902 
L 268.482995 204.963845 
L 271.332193 203.660795 
L 274.18139 202.352276 
L 277.030588 201.029059 
L 279.879786 199.706182 
L 282.728984 198.370018 
L 285.578182 197.024576 
L 288.42738 195.66848 
L 291.276578 194.305302 
L 294.125775 192.921997 
L 296.974973 191.66664 
L 299.824171 190.392054 
L 302.673369 189.105558 
L 305.522567 187.800649 
L 308.371765 186.49332 
L 311.220963 185.174154 
L 314.07016 183.845028 
L 316.919358 182.505308 
L 319.768556 181.163012 
L 322.617754 179.806217 
L 325.466952 178.434042 
L 328.31615 177.046692 
L 331.165348 175.787779 
L 334.014545 174.51216 
L 336.863743 173.230729 
L 339.712941 171.935074 
L 342.562139 170.630786 
L 345.411337 169.312075 
L 348.260535 167.988968 
L 351.109733 166.644774 
L 353.95893 165.28527 
L 356.808128 163.924836 
L 359.657326 162.555398 
L 362.506524 161.163817 
L 365.355722 159.897539 
L 368.20492 158.617555 
L 371.054118 157.332727 
L 373.903316 156.027694 
L 376.752513 154.719772 
L 379.601711 153.390977 
L 382.450909 152.058334 
L 385.300107 150.708441 
L 388.149305 149.358688 
L 390.998503 147.996391 
L 393.847701 146.624352 
L 396.696898 145.232795 
L 399.546096 143.972841 
L 402.395294 142.696976 
L 405.244492 141.410787 
L 408.09369 140.10835 
L 410.942888 138.798415 
L 413.792086 137.477063 
L 416.641283 136.149768 
L 419.490481 134.806534 
L 422.339679 133.463067 
L 425.188877 132.103691 
L 428.038075 130.73847 
L 430.887273 129.346733 
" clip-path="url(#pa0d3969c06)" style="fill: none; stroke: #c44e52; stroke-width: 3; stroke-linecap: round"/>
   </g>
   <g id="patch_3">
    <path d="M 74.88 294.66 
L 74.88 29.76 
" style="fill: none; stroke: #ffffff; stroke-width: 1.25; stroke-linejoin: miter; stroke-linecap: square"/>
   </g>
   <g id="patch_4">
    <path d="M 447.84 294.66 
L 447.84 29.76 
" style="fill: none; stroke: #ffffff; stroke-width: 1.25; stroke-linejoin: miter; stroke-linecap: square"/>
   </g>
   <g id="patch_5">
    <path d="M 74.88 294.66 
L 447.84 294.66 
" style="fill: none; stroke: #ffffff; stroke-width: 1.25; stroke-linejoin: miter; stroke-linecap: square"/>
   </g>
   <g id="patch_6">
    <path d="M 74.88 29.76 
L 447.84 29.76 
" style="fill: none; stroke: #ffffff; stroke-width: 1.25; stroke-linejoin: miter; stroke-linecap: square"/>
   </g>
   <g id="text_15">
    <!-- zinc-coating-v0 -->
    <g style="fill: #262626" transform="translate(208.001406 23.76)scale(0.14 -0.14)">
     <defs>
      <path id="DejaVuSans-7a" d="M 353 3500 
L 3084 3500 
L 3084 2975 
L 922 459 
L 3084 459 
L 3084 0 
L 275 0 
L 275 525 
L 2438 3041 
L 353 3041 
L 353 3500 
z
" transform="scale(0.015625)"/>
      <path id="DejaVuSans-63" d="M 3122 3366 
L 3122 2828 
Q 2878 2963 2633 3030 
Q 2388 3097 2138 3097 
Q 1578 3097 1268 2742 
Q 959 2388 959 1747 
Q 959 1106 1268 751 
Q 1578 397 2138 397 
Q 2388 397 2633 464 
Q 2878 531 3122 666 
L 3122 134 
Q 2881 22 2623 -34 
Q 2366 -91 2075 -91 
Q 1284 -91 818 406 
Q 353 903 353 1747 
Q 353 2603 823 3093 
Q 1294 3584 2113 3584 
Q 2378 3584 2631 3529 
Q 2884 3475 3122 3366 
z
" transform="scale(0.015625)"/>
      <path id="DejaVuSans-2d" d="M 313 2009 
L 1997 2009 
L 1997 1497 
L 313 1497 
L 313 2009 
z
" transform="scale(0.015625)"/>
      <path id="DejaVuSans-67" d="M 2906 1791 
Q 2906 2416 2648 2759 
Q 2391 3103 1925 3103 
Q 1463 3103 1205 2759 
Q 947 2416 947 1791 
Q 947 1169 1205 825 
Q 1463 481 1925 481 
Q 2391 481 2648 825 
Q 2906 1169 2906 1791 
z
M 3481 434 
Q 3481 -459 3084 -895 
Q 2688 -1331 1869 -1331 
Q 1566 -1331 1297 -1286 
Q 1028 -1241 775 -1147 
L 775 -588 
Q 1028 -725 1275 -790 
Q 1522 -856 1778 -856 
Q 2344 -856 2625 -561 
Q 2906 -266 2906 331 
L 2906 616 
Q 2728 306 2450 153 
Q 2172 0 1784 0 
Q 1141 0 747 490 
Q 353 981 353 1791 
Q 353 2603 747 3093 
Q 1141 3584 1784 3584 
Q 2172 3584 2450 3431 
Q 2728 3278 2906 2969 
L 2906 3500 
L 3481 3500 
L 3481 434 
z
" transform="scale(0.015625)"/>
      <path id="DejaVuSans-76" d="M 191 3500 
L 800 3500 
L 1894 563 
L 2988 3500 
L 3597 3500 
L 2284 0 
L 1503 0 
L 191 3500 
z
" transform="scale(0.015625)"/>
     </defs>
     <use xlink:href="#DejaVuSans-7a"/>
     <use xlink:href="#DejaVuSans-69" x="52.490234"/>
     <use xlink:href="#DejaVuSans-6e" x="80.273438"/>
     <use xlink:href="#DejaVuSans-63" x="143.652344"/>
     <use xlink:href="#DejaVuSans-2d" x="198.632812"/>
     <use xlink:href="#DejaVuSans-63" x="234.716797"/>
     <use xlink:href="#DejaVuSans-6f" x="289.697266"/>
     <use xlink:href="#DejaVuSans-61" x="350.878906"/>
     <use xlink:href="#DejaVuSans-74" x="412.158203"/>
     <use xlink:href="#DejaVuSans-69" x="451.367188"/>
     <use xlink:href="#DejaVuSans-6e" x="479.150391"/>
     <use xlink:href="#DejaVuSans-67" x="542.529297"/>
     <use xlink:href="#DejaVuSans-2d" x="606.005859"/>
     <use xlink:href="#DejaVuSans-76" x="639.464844"/>
     <use xlink:href="#DejaVuSans-30" x="698.644531"/>
    </g>
   </g>
   <g id="legend_1">
    <g id="patch_7">
     <path d="M 82.58 103.14375 
L 237.406719 103.14375 
Q 239.606719 103.14375 239.606719 100.94375 
L 239.606719 37.46 
Q 239.606719 35.26 237.406719 35.26 
L 82.58 35.26 
Q 80.38 35.26 80.38 37.46 
L 80.38 100.94375 
Q 80.38 103.14375 82.58 103.14375 
z
" style="fill: #eaeaf2; opacity: 0.8; stroke: #cccccc; stroke-linejoin: miter"/>
    </g>
    <g id="line2d_17">
     <path d="M 84.78 44.168281 
L 95.78 44.168281 
L 106.78 44.168281 
" style="fill: none; stroke: #4c72b0; stroke-width: 3; stroke-linecap: round"/>
    </g>
    <g id="text_16">
     <!-- DATS-DELAY-100-GPU -->
     <g style="fill: #262626" transform="translate(115.58 48.018281)scale(0.11 -0.11)">
      <defs>
       <path id="DejaVuSans-44" d="M 1259 4147 
L 1259 519 
L 2022 519 
Q 2988 519 3436 956 
Q 3884 1394 3884 2338 
Q 3884 3275 3436 3711 
Q 2988 4147 2022 4147 
L 1259 4147 
z
M 628 4666 
L 1925 4666 
Q 3281 4666 3915 4102 
Q 4550 3538 4550 2338 
Q 4550 1131 3912 565 
Q 3275 0 1925 0 
L 628 0 
L 628 4666 
z
" transform="scale(0.015625)"/>
       <path id="DejaVuSans-41" d="M 2188 4044 
L 1331 1722 
L 3047 1722 
L 2188 4044 
z
M 1831 4666 
L 2547 4666 
L 4325 0 
L 3669 0 
L 3244 1197 
L 1141 1197 
L 716 0 
L 50 0 
L 1831 4666 
z
" transform="scale(0.015625)"/>
       <path id="DejaVuSans-53" d="M 3425 4513 
L 3425 3897 
Q 3066 4069 2747 4153 
Q 2428 4238 2131 4238 
Q 1616 4238 1336 4038 
Q 1056 3838 1056 3469 
Q 1056 3159 1242 3001 
Q 1428 2844 1947 2747 
L 2328 2669 
Q 3034 2534 3370 2195 
Q 3706 1856 3706 1288 
Q 3706 609 3251 259 
Q 2797 -91 1919 -91 
Q 1588 -91 1214 -16 
Q 841 59 441 206 
L 441 856 
Q 825 641 1194 531 
Q 1563 422 1919 422 
Q 2459 422 2753 634 
Q 3047 847 3047 1241 
Q 3047 1584 2836 1778 
Q 2625 1972 2144 2069 
L 1759 2144 
Q 1053 2284 737 2584 
Q 422 2884 422 3419 
Q 422 4038 858 4394 
Q 1294 4750 2059 4750 
Q 2388 4750 2728 4690 
Q 3069 4631 3425 4513 
z
" transform="scale(0.015625)"/>
       <path id="DejaVuSans-45" d="M 628 4666 
L 3578 4666 
L 3578 4134 
L 1259 4134 
L 1259 2753 
L 3481 2753 
L 3481 2222 
L 1259 2222 
L 1259 531 
L 3634 531 
L 3634 0 
L 628 0 
L 628 4666 
z
" transform="scale(0.015625)"/>
       <path id="DejaVuSans-4c" d="M 628 4666 
L 1259 4666 
L 1259 531 
L 3531 531 
L 3531 0 
L 628 0 
L 628 4666 
z
" transform="scale(0.015625)"/>
       <path id="DejaVuSans-59" d="M -13 4666 
L 666 4666 
L 1959 2747 
L 3244 4666 
L 3922 4666 
L 2272 2222 
L 2272 0 
L 1638 0 
L 1638 2222 
L -13 4666 
z
" transform="scale(0.015625)"/>
       <path id="DejaVuSans-47" d="M 3809 666 
L 3809 1919 
L 2778 1919 
L 2778 2438 
L 4434 2438 
L 4434 434 
Q 4069 175 3628 42 
Q 3188 -91 2688 -91 
Q 1594 -91 976 548 
Q 359 1188 359 2328 
Q 359 3472 976 4111 
Q 1594 4750 2688 4750 
Q 3144 4750 3555 4637 
Q 3966 4525 4313 4306 
L 4313 3634 
Q 3963 3931 3569 4081 
Q 3175 4231 2741 4231 
Q 1884 4231 1454 3753 
Q 1025 3275 1025 2328 
Q 1025 1384 1454 906 
Q 1884 428 2741 428 
Q 3075 428 3337 486 
Q 3600 544 3809 666 
z
" transform="scale(0.015625)"/>
       <path id="DejaVuSans-50" d="M 1259 4147 
L 1259 2394 
L 2053 2394 
Q 2494 2394 2734 2622 
Q 2975 2850 2975 3272 
Q 2975 3691 2734 3919 
Q 2494 4147 2053 4147 
L 1259 4147 
z
M 628 4666 
L 2053 4666 
Q 2838 4666 3239 4311 
Q 3641 3956 3641 3272 
Q 3641 2581 3239 2228 
Q 2838 1875 2053 1875 
L 1259 1875 
L 1259 0 
L 628 0 
L 628 4666 
z
" transform="scale(0.015625)"/>
       <path id="DejaVuSans-55" d="M 556 4666 
L 1191 4666 
L 1191 1831 
Q 1191 1081 1462 751 
Q 1734 422 2344 422 
Q 2950 422 3222 751 
Q 3494 1081 3494 1831 
L 3494 4666 
L 4128 4666 
L 4128 1753 
Q 4128 841 3676 375 
Q 3225 -91 2344 -91 
Q 1459 -91 1007 375 
Q 556 841 556 1753 
L 556 4666 
z
" transform="scale(0.015625)"/>
      </defs>
      <use xlink:href="#DejaVuSans-44"/>
      <use xlink:href="#DejaVuSans-41" x="75.251953"/>
      <use xlink:href="#DejaVuSans-54" x="135.910156"/>
      <use xlink:href="#DejaVuSans-53" x="196.994141"/>
      <use xlink:href="#DejaVuSans-2d" x="260.470703"/>
      <use xlink:href="#DejaVuSans-44" x="296.554688"/>
      <use xlink:href="#DejaVuSans-45" x="373.556641"/>
      <use xlink:href="#DejaVuSans-4c" x="436.740234"/>
      <use xlink:href="#DejaVuSans-41" x="494.703125"/>
      <use xlink:href="#DejaVuSans-59" x="555.361328"/>
      <use xlink:href="#DejaVuSans-2d" x="604.570312"/>
      <use xlink:href="#DejaVuSans-31" x="640.654297"/>
      <use xlink:href="#DejaVuSans-30" x="704.277344"/>
      <use xlink:href="#DejaVuSans-30" x="767.900391"/>
      <use xlink:href="#DejaVuSans-2d" x="831.523438"/>
      <use xlink:href="#DejaVuSans-47" x="871.232422"/>
      <use xlink:href="#DejaVuSans-50" x="948.722656"/>
      <use xlink:href="#DejaVuSans-55" x="1009.025391"/>
     </g>
    </g>
    <g id="line2d_18">
     <path d="M 84.78 60.314219 
L 95.78 60.314219 
L 106.78 60.314219 
" style="fill: none; stroke: #dd8452; stroke-width: 3; stroke-linecap: round"/>
    </g>
    <g id="text_17">
     <!-- SAC-DELAY-100 -->
     <g style="fill: #262626" transform="translate(115.58 64.164219)scale(0.11 -0.11)">
      <defs>
       <path id="DejaVuSans-43" d="M 4122 4306 
L 4122 3641 
Q 3803 3938 3442 4084 
Q 3081 4231 2675 4231 
Q 1875 4231 1450 3742 
Q 1025 3253 1025 2328 
Q 1025 1406 1450 917 
Q 1875 428 2675 428 
Q 3081 428 3442 575 
Q 3803 722 4122 1019 
L 4122 359 
Q 3791 134 3420 21 
Q 3050 -91 2638 -91 
Q 1578 -91 968 557 
Q 359 1206 359 2328 
Q 359 3453 968 4101 
Q 1578 4750 2638 4750 
Q 3056 4750 3426 4639 
Q 3797 4528 4122 4306 
z
" transform="scale(0.015625)"/>
      </defs>
      <use xlink:href="#DejaVuSans-53"/>
      <use xlink:href="#DejaVuSans-41" x="65.351562"/>
      <use xlink:href="#DejaVuSans-43" x="132.009766"/>
      <use xlink:href="#DejaVuSans-2d" x="201.833984"/>
      <use xlink:href="#DejaVuSans-44" x="237.917969"/>
      <use xlink:href="#DejaVuSans-45" x="314.919922"/>
      <use xlink:href="#DejaVuSans-4c" x="378.103516"/>
      <use xlink:href="#DejaVuSans-41" x="436.066406"/>
      <use xlink:href="#DejaVuSans-59" x="496.724609"/>
      <use xlink:href="#DejaVuSans-2d" x="545.933594"/>
      <use xlink:href="#DejaVuSans-31" x="582.017578"/>
      <use xlink:href="#DejaVuSans-30" x="645.640625"/>
      <use xlink:href="#DejaVuSans-30" x="709.263672"/>
     </g>
    </g>
    <g id="line2d_19">
     <path d="M 84.78 76.460156 
L 95.78 76.460156 
L 106.78 76.460156 
" style="fill: none; stroke: #55a868; stroke-width: 3; stroke-linecap: round"/>
    </g>
    <g id="text_18">
     <!-- SAC-IS-DELAY-100 -->
     <g style="fill: #262626" transform="translate(115.58 80.310156)scale(0.11 -0.11)">
      <defs>
       <path id="DejaVuSans-49" d="M 628 4666 
L 1259 4666 
L 1259 0 
L 628 0 
L 628 4666 
z
" transform="scale(0.015625)"/>
      </defs>
      <use xlink:href="#DejaVuSans-53"/>
      <use xlink:href="#DejaVuSans-41" x="65.351562"/>
      <use xlink:href="#DejaVuSans-43" x="132.009766"/>
      <use xlink:href="#DejaVuSans-2d" x="201.833984"/>
      <use xlink:href="#DejaVuSans-49" x="237.917969"/>
      <use xlink:href="#DejaVuSans-53" x="267.410156"/>
      <use xlink:href="#DejaVuSans-2d" x="330.886719"/>
      <use xlink:href="#DejaVuSans-44" x="366.970703"/>
      <use xlink:href="#DejaVuSans-45" x="443.972656"/>
      <use xlink:href="#DejaVuSans-4c" x="507.15625"/>
      <use xlink:href="#DejaVuSans-41" x="565.119141"/>
      <use xlink:href="#DejaVuSans-59" x="625.777344"/>
      <use xlink:href="#DejaVuSans-2d" x="674.986328"/>
      <use xlink:href="#DejaVuSans-31" x="711.070312"/>
      <use xlink:href="#DejaVuSans-30" x="774.693359"/>
      <use xlink:href="#DejaVuSans-30" x="838.316406"/>
     </g>
    </g>
    <g id="line2d_20">
     <path d="M 84.78 92.606094 
L 95.78 92.606094 
L 106.78 92.606094 
" style="fill: none; stroke: #c44e52; stroke-width: 3; stroke-linecap: round"/>
    </g>
    <g id="text_19">
     <!-- DCAC-DELAY-100-16C -->
     <g style="fill: #262626" transform="translate(115.58 96.456094)scale(0.11 -0.11)">
      <use xlink:href="#DejaVuSans-44"/>
      <use xlink:href="#DejaVuSans-43" x="77.001953"/>
      <use xlink:href="#DejaVuSans-41" x="146.826172"/>
      <use xlink:href="#DejaVuSans-43" x="213.484375"/>
      <use xlink:href="#DejaVuSans-2d" x="283.308594"/>
      <use xlink:href="#DejaVuSans-44" x="319.392578"/>
      <use xlink:href="#DejaVuSans-45" x="396.394531"/>
      <use xlink:href="#DejaVuSans-4c" x="459.578125"/>
      <use xlink:href="#DejaVuSans-41" x="517.541016"/>
      <use xlink:href="#DejaVuSans-59" x="578.199219"/>
      <use xlink:href="#DejaVuSans-2d" x="627.408203"/>
      <use xlink:href="#DejaVuSans-31" x="663.492188"/>
      <use xlink:href="#DejaVuSans-30" x="727.115234"/>
      <use xlink:href="#DejaVuSans-30" x="790.738281"/>
      <use xlink:href="#DejaVuSans-2d" x="854.361328"/>
      <use xlink:href="#DejaVuSans-31" x="890.445312"/>
      <use xlink:href="#DejaVuSans-36" x="954.068359"/>
      <use xlink:href="#DejaVuSans-43" x="1017.691406"/>
     </g>
    </g>
   </g>
  </g>
 </g>
 <defs>
  <clipPath id="pa0d3969c06">
   <rect x="74.88" y="29.76" width="372.96" height="264.9"/>
  </clipPath>
 </defs>
</svg>
