<?xml version="1.0" encoding="utf-8" standalone="no"?>
<!DOCTYPE svg PUBLIC "-//W3C//DTD SVG 1.1//EN"
  "http://www.w3.org/Graphics/SVG/1.1/DTD/svg11.dtd">
<svg xmlns:xlink="http://www.w3.org/1999/xlink" width="460.8pt" height="345.6pt" viewBox="0 0 460.8 345.6" xmlns="http://www.w3.org/2000/svg" version="1.1">
 <metadata>
  <rdf:RDF xmlns:dc="http://purl.org/dc/elements/1.1/" xmlns:cc="http://creativecommons.org/ns#" xmlns:rdf="http://www.w3.org/1999/02/22-rdf-syntax-ns#">
   <cc:Work>
    <dc:type rdf:resource="http://purl.org/dc/dcmitype/StillImage"/>
    <dc:date>2022-09-10T15:50:40.040534</dc:date>
    <dc:format>image/svg+xml</dc:format>
    <dc:creator>
     <cc:Agent>
      <dc:title>Matplotlib v3.5.3, https://matplotlib.org/</dc:title>
     </cc:Agent>
    </dc:creator>
   </cc:Work>
  </rdf:RDF>
 </metadata>
 <defs>
  <style type="text/css">*{stroke-linejoin: round; stroke-linecap: butt}</style>
 </defs>
 <g id="figure_1">
  <g id="patch_1">
   <path d="M 0 345.6 
L 460.8 345.6 
L 460.8 0 
L 0 0 
z
" style="fill: #ffffff"/>
  </g>
  <g id="axes_1">
   <g id="patch_2">
    <path d="M 81.72 294.66 
L 447.84 294.66 
L 447.84 29.76 
L 81.72 29.76 
z
" style="fill: #eaeaf2"/>
   </g>
   <g id="matplotlib.axis_1">
    <g id="xtick_1">
     <g id="line2d_1">
      <path d="M 95.564874 294.66 
L 95.564874 29.76 
" clip-path="url(#p7c2064bfe6)" style="fill: none; stroke: #ffffff; stroke-linecap: round"/>
     </g>
     <g id="text_1">
      <!-- 0.00 -->
      <g style="fill: #262626" transform="translate(83.31878 312.518281)scale(0.11 -0.11)">
       <defs>
        <path id="DejaVuSans-30" d="M 2034 4250 
Q 1547 4250 1301 3770 
Q 1056 3291 1056 2328 
Q 1056 1369 1301 889 
Q 1547 409 2034 409 
Q 2525 409 2770 889 
Q 3016 1369 3016 2328 
Q 3016 3291 2770 3770 
Q 2525 4250 2034 4250 
z
M 2034 4750 
Q 2819 4750 3233 4129 
Q 3647 3509 3647 2328 
Q 3647 1150 3233 529 
Q 2819 -91 2034 -91 
Q 1250 -91 836 529 
Q 422 1150 422 2328 
Q 422 3509 836 4129 
Q 1250 4750 2034 4750 
z
" transform="scale(0.015625)"/>
        <path id="DejaVuSans-2e" d="M 684 794 
L 1344 794 
L 1344 0 
L 684 0 
L 684 794 
z
" transform="scale(0.015625)"/>
       </defs>
       <use xlink:href="#DejaVuSans-30"/>
       <use xlink:href="#DejaVuSans-2e" x="63.623047"/>
       <use xlink:href="#DejaVuSans-30" x="95.410156"/>
       <use xlink:href="#DejaVuSans-30" x="159.033203"/>
      </g>
     </g>
    </g>
    <g id="xtick_2">
     <g id="line2d_2">
      <path d="M 151.503759 294.66 
L 151.503759 29.76 
" clip-path="url(#p7c2064bfe6)" style="fill: none; stroke: #ffffff; stroke-linecap: round"/>
     </g>
     <g id="text_2">
      <!-- 0.05 -->
      <g style="fill: #262626" transform="translate(139.257665 312.518281)scale(0.11 -0.11)">
       <defs>
        <path id="DejaVuSans-35" d="M 691 4666 
L 3169 4666 
L 3169 4134 
L 1269 4134 
L 1269 2991 
Q 1406 3038 1543 3061 
Q 1681 3084 1819 3084 
Q 2600 3084 3056 2656 
Q 3513 2228 3513 1497 
Q 3513 744 3044 326 
Q 2575 -91 1722 -91 
Q 1428 -91 1123 -41 
Q 819 9 494 109 
L 494 744 
Q 775 591 1075 516 
Q 1375 441 1709 441 
Q 2250 441 2565 725 
Q 2881 1009 2881 1497 
Q 2881 1984 2565 2268 
Q 2250 2553 1709 2553 
Q 1456 2553 1204 2497 
Q 953 2441 691 2322 
L 691 4666 
z
" transform="scale(0.015625)"/>
       </defs>
       <use xlink:href="#DejaVuSans-30"/>
       <use xlink:href="#DejaVuSans-2e" x="63.623047"/>
       <use xlink:href="#DejaVuSans-30" x="95.410156"/>
       <use xlink:href="#DejaVuSans-35" x="159.033203"/>
      </g>
     </g>
    </g>
    <g id="xtick_3">
     <g id="line2d_3">
      <path d="M 207.442643 294.66 
L 207.442643 29.76 
" clip-path="url(#p7c2064bfe6)" style="fill: none; stroke: #ffffff; stroke-linecap: round"/>
     </g>
     <g id="text_3">
      <!-- 0.10 -->
      <g style="fill: #262626" transform="translate(195.196549 312.518281)scale(0.11 -0.11)">
       <defs>
        <path id="DejaVuSans-31" d="M 794 531 
L 1825 531 
L 1825 4091 
L 703 3866 
L 703 4441 
L 1819 4666 
L 2450 4666 
L 2450 531 
L 3481 531 
L 3481 0 
L 794 0 
L 794 531 
z
" transform="scale(0.015625)"/>
       </defs>
       <use xlink:href="#DejaVuSans-30"/>
       <use xlink:href="#DejaVuSans-2e" x="63.623047"/>
       <use xlink:href="#DejaVuSans-31" x="95.410156"/>
       <use xlink:href="#DejaVuSans-30" x="159.033203"/>
      </g>
     </g>
    </g>
    <g id="xtick_4">
     <g id="line2d_4">
      <path d="M 263.381528 294.66 
L 263.381528 29.76 
" clip-path="url(#p7c2064bfe6)" style="fill: none; stroke: #ffffff; stroke-linecap: round"/>
     </g>
     <g id="text_4">
      <!-- 0.15 -->
      <g style="fill: #262626" transform="translate(251.135434 312.518281)scale(0.11 -0.11)">
       <use xlink:href="#DejaVuSans-30"/>
       <use xlink:href="#DejaVuSans-2e" x="63.623047"/>
       <use xlink:href="#DejaVuSans-31" x="95.410156"/>
       <use xlink:href="#DejaVuSans-35" x="159.033203"/>
      </g>
     </g>
    </g>
    <g id="xtick_5">
     <g id="line2d_5">
      <path d="M 319.320413 294.66 
L 319.320413 29.76 
" clip-path="url(#p7c2064bfe6)" style="fill: none; stroke: #ffffff; stroke-linecap: round"/>
     </g>
     <g id="text_5">
      <!-- 0.20 -->
      <g style="fill: #262626" transform="translate(307.074319 312.518281)scale(0.11 -0.11)">
       <defs>
        <path id="DejaVuSans-32" d="M 1228 531 
L 3431 531 
L 3431 0 
L 469 0 
L 469 531 
Q 828 903 1448 1529 
Q 2069 2156 2228 2338 
Q 2531 2678 2651 2914 
Q 2772 3150 2772 3378 
Q 2772 3750 2511 3984 
Q 2250 4219 1831 4219 
Q 1534 4219 1204 4116 
Q 875 4013 500 3803 
L 500 4441 
Q 881 4594 1212 4672 
Q 1544 4750 1819 4750 
Q 2544 4750 2975 4387 
Q 3406 4025 3406 3419 
Q 3406 3131 3298 2873 
Q 3191 2616 2906 2266 
Q 2828 2175 2409 1742 
Q 1991 1309 1228 531 
z
" transform="scale(0.015625)"/>
       </defs>
       <use xlink:href="#DejaVuSans-30"/>
       <use xlink:href="#DejaVuSans-2e" x="63.623047"/>
       <use xlink:href="#DejaVuSans-32" x="95.410156"/>
       <use xlink:href="#DejaVuSans-30" x="159.033203"/>
      </g>
     </g>
    </g>
    <g id="xtick_6">
     <g id="line2d_6">
      <path d="M 375.259297 294.66 
L 375.259297 29.76 
" clip-path="url(#p7c2064bfe6)" style="fill: none; stroke: #ffffff; stroke-linecap: round"/>
     </g>
     <g id="text_6">
      <!-- 0.25 -->
      <g style="fill: #262626" transform="translate(363.013203 312.518281)scale(0.11 -0.11)">
       <use xlink:href="#DejaVuSans-30"/>
       <use xlink:href="#DejaVuSans-2e" x="63.623047"/>
       <use xlink:href="#DejaVuSans-32" x="95.410156"/>
       <use xlink:href="#DejaVuSans-35" x="159.033203"/>
      </g>
     </g>
    </g>
    <g id="xtick_7">
     <g id="line2d_7">
      <path d="M 431.198182 294.66 
L 431.198182 29.76 
" clip-path="url(#p7c2064bfe6)" style="fill: none; stroke: #ffffff; stroke-linecap: round"/>
     </g>
     <g id="text_7">
      <!-- 0.30 -->
      <g style="fill: #262626" transform="translate(418.952088 312.518281)scale(0.11 -0.11)">
       <defs>
        <path id="DejaVuSans-33" d="M 2597 2516 
Q 3050 2419 3304 2112 
Q 3559 1806 3559 1356 
Q 3559 666 3084 287 
Q 2609 -91 1734 -91 
Q 1441 -91 1130 -33 
Q 819 25 488 141 
L 488 750 
Q 750 597 1062 519 
Q 1375 441 1716 441 
Q 2309 441 2620 675 
Q 2931 909 2931 1356 
Q 2931 1769 2642 2001 
Q 2353 2234 1838 2234 
L 1294 2234 
L 1294 2753 
L 1863 2753 
Q 2328 2753 2575 2939 
Q 2822 3125 2822 3475 
Q 2822 3834 2567 4026 
Q 2313 4219 1838 4219 
Q 1578 4219 1281 4162 
Q 984 4106 628 3988 
L 628 4550 
Q 988 4650 1302 4700 
Q 1616 4750 1894 4750 
Q 2613 4750 3031 4423 
Q 3450 4097 3450 3541 
Q 3450 3153 3228 2886 
Q 3006 2619 2597 2516 
z
" transform="scale(0.015625)"/>
       </defs>
       <use xlink:href="#DejaVuSans-30"/>
       <use xlink:href="#DejaVuSans-2e" x="63.623047"/>
       <use xlink:href="#DejaVuSans-33" x="95.410156"/>
       <use xlink:href="#DejaVuSans-30" x="159.033203"/>
      </g>
     </g>
    </g>
    <g id="text_8">
     <!-- Timesteps (in Million) -->
     <g style="fill: #262626" transform="translate(190.034219 329.44375)scale(0.14 -0.14)">
      <defs>
       <path id="DejaVuSans-54" d="M -19 4666 
L 3928 4666 
L 3928 4134 
L 2272 4134 
L 2272 0 
L 1638 0 
L 1638 4134 
L -19 4134 
L -19 4666 
z
" transform="scale(0.015625)"/>
       <path id="DejaVuSans-69" d="M 603 3500 
L 1178 3500 
L 1178 0 
L 603 0 
L 603 3500 
z
M 603 4863 
L 1178 4863 
L 1178 4134 
L 603 4134 
L 603 4863 
z
" transform="scale(0.015625)"/>
       <path id="DejaVuSans-6d" d="M 3328 2828 
Q 3544 3216 3844 3400 
Q 4144 3584 4550 3584 
Q 5097 3584 5394 3201 
Q 5691 2819 5691 2113 
L 5691 0 
L 5113 0 
L 5113 2094 
Q 5113 2597 4934 2840 
Q 4756 3084 4391 3084 
Q 3944 3084 3684 2787 
Q 3425 2491 3425 1978 
L 3425 0 
L 2847 0 
L 2847 2094 
Q 2847 2600 2669 2842 
Q 2491 3084 2119 3084 
Q 1678 3084 1418 2786 
Q 1159 2488 1159 1978 
L 1159 0 
L 581 0 
L 581 3500 
L 1159 3500 
L 1159 2956 
Q 1356 3278 1631 3431 
Q 1906 3584 2284 3584 
Q 2666 3584 2933 3390 
Q 3200 3197 3328 2828 
z
" transform="scale(0.015625)"/>
       <path id="DejaVuSans-65" d="M 3597 1894 
L 3597 1613 
L 953 1613 
Q 991 1019 1311 708 
Q 1631 397 2203 397 
Q 2534 397 2845 478 
Q 3156 559 3463 722 
L 3463 178 
Q 3153 47 2828 -22 
Q 2503 -91 2169 -91 
Q 1331 -91 842 396 
Q 353 884 353 1716 
Q 353 2575 817 3079 
Q 1281 3584 2069 3584 
Q 2775 3584 3186 3129 
Q 3597 2675 3597 1894 
z
M 3022 2063 
Q 3016 2534 2758 2815 
Q 2500 3097 2075 3097 
Q 1594 3097 1305 2825 
Q 1016 2553 972 2059 
L 3022 2063 
z
" transform="scale(0.015625)"/>
       <path id="DejaVuSans-73" d="M 2834 3397 
L 2834 2853 
Q 2591 2978 2328 3040 
Q 2066 3103 1784 3103 
Q 1356 3103 1142 2972 
Q 928 2841 928 2578 
Q 928 2378 1081 2264 
Q 1234 2150 1697 2047 
L 1894 2003 
Q 2506 1872 2764 1633 
Q 3022 1394 3022 966 
Q 3022 478 2636 193 
Q 2250 -91 1575 -91 
Q 1294 -91 989 -36 
Q 684 19 347 128 
L 347 722 
Q 666 556 975 473 
Q 1284 391 1588 391 
Q 1994 391 2212 530 
Q 2431 669 2431 922 
Q 2431 1156 2273 1281 
Q 2116 1406 1581 1522 
L 1381 1569 
Q 847 1681 609 1914 
Q 372 2147 372 2553 
Q 372 3047 722 3315 
Q 1072 3584 1716 3584 
Q 2034 3584 2315 3537 
Q 2597 3491 2834 3397 
z
" transform="scale(0.015625)"/>
       <path id="DejaVuSans-74" d="M 1172 4494 
L 1172 3500 
L 2356 3500 
L 2356 3053 
L 1172 3053 
L 1172 1153 
Q 1172 725 1289 603 
Q 1406 481 1766 481 
L 2356 481 
L 2356 0 
L 1766 0 
Q 1100 0 847 248 
Q 594 497 594 1153 
L 594 3053 
L 172 3053 
L 172 3500 
L 594 3500 
L 594 4494 
L 1172 4494 
z
" transform="scale(0.015625)"/>
       <path id="DejaVuSans-70" d="M 1159 525 
L 1159 -1331 
L 581 -1331 
L 581 3500 
L 1159 3500 
L 1159 2969 
Q 1341 3281 1617 3432 
Q 1894 3584 2278 3584 
Q 2916 3584 3314 3078 
Q 3713 2572 3713 1747 
Q 3713 922 3314 415 
Q 2916 -91 2278 -91 
Q 1894 -91 1617 61 
Q 1341 213 1159 525 
z
M 3116 1747 
Q 3116 2381 2855 2742 
Q 2594 3103 2138 3103 
Q 1681 3103 1420 2742 
Q 1159 2381 1159 1747 
Q 1159 1113 1420 752 
Q 1681 391 2138 391 
Q 2594 391 2855 752 
Q 3116 1113 3116 1747 
z
" transform="scale(0.015625)"/>
       <path id="DejaVuSans-20" transform="scale(0.015625)"/>
       <path id="DejaVuSans-28" d="M 1984 4856 
Q 1566 4138 1362 3434 
Q 1159 2731 1159 2009 
Q 1159 1288 1364 580 
Q 1569 -128 1984 -844 
L 1484 -844 
Q 1016 -109 783 600 
Q 550 1309 550 2009 
Q 550 2706 781 3412 
Q 1013 4119 1484 4856 
L 1984 4856 
z
" transform="scale(0.015625)"/>
       <path id="DejaVuSans-6e" d="M 3513 2113 
L 3513 0 
L 2938 0 
L 2938 2094 
Q 2938 2591 2744 2837 
Q 2550 3084 2163 3084 
Q 1697 3084 1428 2787 
Q 1159 2491 1159 1978 
L 1159 0 
L 581 0 
L 581 3500 
L 1159 3500 
L 1159 2956 
Q 1366 3272 1645 3428 
Q 1925 3584 2291 3584 
Q 2894 3584 3203 3211 
Q 3513 2838 3513 2113 
z
" transform="scale(0.015625)"/>
       <path id="DejaVuSans-4d" d="M 628 4666 
L 1569 4666 
L 2759 1491 
L 3956 4666 
L 4897 4666 
L 4897 0 
L 4281 0 
L 4281 4097 
L 3078 897 
L 2444 897 
L 1241 4097 
L 1241 0 
L 628 0 
L 628 4666 
z
" transform="scale(0.015625)"/>
       <path id="DejaVuSans-6c" d="M 603 4863 
L 1178 4863 
L 1178 0 
L 603 0 
L 603 4863 
z
" transform="scale(0.015625)"/>
       <path id="DejaVuSans-6f" d="M 1959 3097 
Q 1497 3097 1228 2736 
Q 959 2375 959 1747 
Q 959 1119 1226 758 
Q 1494 397 1959 397 
Q 2419 397 2687 759 
Q 2956 1122 2956 1747 
Q 2956 2369 2687 2733 
Q 2419 3097 1959 3097 
z
M 1959 3584 
Q 2709 3584 3137 3096 
Q 3566 2609 3566 1747 
Q 3566 888 3137 398 
Q 2709 -91 1959 -91 
Q 1206 -91 779 398 
Q 353 888 353 1747 
Q 353 2609 779 3096 
Q 1206 3584 1959 3584 
z
" transform="scale(0.015625)"/>
       <path id="DejaVuSans-29" d="M 513 4856 
L 1013 4856 
Q 1481 4119 1714 3412 
Q 1947 2706 1947 2009 
Q 1947 1309 1714 600 
Q 1481 -109 1013 -844 
L 513 -844 
Q 928 -128 1133 580 
Q 1338 1288 1338 2009 
Q 1338 2731 1133 3434 
Q 928 4138 513 4856 
z
" transform="scale(0.015625)"/>
      </defs>
      <use xlink:href="#DejaVuSans-54"/>
      <use xlink:href="#DejaVuSans-69" x="57.958984"/>
      <use xlink:href="#DejaVuSans-6d" x="85.742188"/>
      <use xlink:href="#DejaVuSans-65" x="183.154297"/>
      <use xlink:href="#DejaVuSans-73" x="244.677734"/>
      <use xlink:href="#DejaVuSans-74" x="296.777344"/>
      <use xlink:href="#DejaVuSans-65" x="335.986328"/>
      <use xlink:href="#DejaVuSans-70" x="397.509766"/>
      <use xlink:href="#DejaVuSans-73" x="460.986328"/>
      <use xlink:href="#DejaVuSans-20" x="513.085938"/>
      <use xlink:href="#DejaVuSans-28" x="544.873047"/>
      <use xlink:href="#DejaVuSans-69" x="583.886719"/>
      <use xlink:href="#DejaVuSans-6e" x="611.669922"/>
      <use xlink:href="#DejaVuSans-20" x="675.048828"/>
      <use xlink:href="#DejaVuSans-4d" x="706.835938"/>
      <use xlink:href="#DejaVuSans-69" x="793.115234"/>
      <use xlink:href="#DejaVuSans-6c" x="820.898438"/>
      <use xlink:href="#DejaVuSans-6c" x="848.681641"/>
      <use xlink:href="#DejaVuSans-69" x="876.464844"/>
      <use xlink:href="#DejaVuSans-6f" x="904.248047"/>
      <use xlink:href="#DejaVuSans-6e" x="965.429688"/>
      <use xlink:href="#DejaVuSans-29" x="1028.808594"/>
     </g>
    </g>
   </g>
   <g id="matplotlib.axis_2">
    <g id="ytick_1">
     <g id="line2d_8">
      <path d="M 81.72 282.620414 
L 447.84 282.620414 
" clip-path="url(#p7c2064bfe6)" style="fill: none; stroke: #ffffff; stroke-linecap: round"/>
     </g>
     <g id="text_9">
      <!-- 0 -->
      <g style="fill: #262626" transform="translate(65.22125 286.799554)scale(0.11 -0.11)">
       <use xlink:href="#DejaVuSans-30"/>
      </g>
     </g>
    </g>
    <g id="ytick_2">
     <g id="line2d_9">
      <path d="M 81.72 234.451597 
L 447.84 234.451597 
" clip-path="url(#p7c2064bfe6)" style="fill: none; stroke: #ffffff; stroke-linecap: round"/>
     </g>
     <g id="text_10">
      <!-- 20000 -->
      <g style="fill: #262626" transform="translate(37.22625 238.630738)scale(0.11 -0.11)">
       <use xlink:href="#DejaVuSans-32"/>
       <use xlink:href="#DejaVuSans-30" x="63.623047"/>
       <use xlink:href="#DejaVuSans-30" x="127.246094"/>
       <use xlink:href="#DejaVuSans-30" x="190.869141"/>
       <use xlink:href="#DejaVuSans-30" x="254.492188"/>
      </g>
     </g>
    </g>
    <g id="ytick_3">
     <g id="line2d_10">
      <path d="M 81.72 186.28278 
L 447.84 186.28278 
" clip-path="url(#p7c2064bfe6)" style="fill: none; stroke: #ffffff; stroke-linecap: round"/>
     </g>
     <g id="text_11">
      <!-- 40000 -->
      <g style="fill: #262626" transform="translate(37.22625 190.461921)scale(0.11 -0.11)">
       <defs>
        <path id="DejaVuSans-34" d="M 2419 4116 
L 825 1625 
L 2419 1625 
L 2419 4116 
z
M 2253 4666 
L 3047 4666 
L 3047 1625 
L 3713 1625 
L 3713 1100 
L 3047 1100 
L 3047 0 
L 2419 0 
L 2419 1100 
L 313 1100 
L 313 1709 
L 2253 4666 
z
" transform="scale(0.015625)"/>
       </defs>
       <use xlink:href="#DejaVuSans-34"/>
       <use xlink:href="#DejaVuSans-30" x="63.623047"/>
       <use xlink:href="#DejaVuSans-30" x="127.246094"/>
       <use xlink:href="#DejaVuSans-30" x="190.869141"/>
       <use xlink:href="#DejaVuSans-30" x="254.492188"/>
      </g>
     </g>
    </g>
    <g id="ytick_4">
     <g id="line2d_11">
      <path d="M 81.72 138.113964 
L 447.84 138.113964 
" clip-path="url(#p7c2064bfe6)" style="fill: none; stroke: #ffffff; stroke-linecap: round"/>
     </g>
     <g id="text_12">
      <!-- 60000 -->
      <g style="fill: #262626" transform="translate(37.22625 142.293104)scale(0.11 -0.11)">
       <defs>
        <path id="DejaVuSans-36" d="M 2113 2584 
Q 1688 2584 1439 2293 
Q 1191 2003 1191 1497 
Q 1191 994 1439 701 
Q 1688 409 2113 409 
Q 2538 409 2786 701 
Q 3034 994 3034 1497 
Q 3034 2003 2786 2293 
Q 2538 2584 2113 2584 
z
M 3366 4563 
L 3366 3988 
Q 3128 4100 2886 4159 
Q 2644 4219 2406 4219 
Q 1781 4219 1451 3797 
Q 1122 3375 1075 2522 
Q 1259 2794 1537 2939 
Q 1816 3084 2150 3084 
Q 2853 3084 3261 2657 
Q 3669 2231 3669 1497 
Q 3669 778 3244 343 
Q 2819 -91 2113 -91 
Q 1303 -91 875 529 
Q 447 1150 447 2328 
Q 447 3434 972 4092 
Q 1497 4750 2381 4750 
Q 2619 4750 2861 4703 
Q 3103 4656 3366 4563 
z
" transform="scale(0.015625)"/>
       </defs>
       <use xlink:href="#DejaVuSans-36"/>
       <use xlink:href="#DejaVuSans-30" x="63.623047"/>
       <use xlink:href="#DejaVuSans-30" x="127.246094"/>
       <use xlink:href="#DejaVuSans-30" x="190.869141"/>
       <use xlink:href="#DejaVuSans-30" x="254.492188"/>
      </g>
     </g>
    </g>
    <g id="ytick_5">
     <g id="line2d_12">
      <path d="M 81.72 89.945147 
L 447.84 89.945147 
" clip-path="url(#p7c2064bfe6)" style="fill: none; stroke: #ffffff; stroke-linecap: round"/>
     </g>
     <g id="text_13">
      <!-- 80000 -->
      <g style="fill: #262626" transform="translate(37.22625 94.124288)scale(0.11 -0.11)">
       <defs>
        <path id="DejaVuSans-38" d="M 2034 2216 
Q 1584 2216 1326 1975 
Q 1069 1734 1069 1313 
Q 1069 891 1326 650 
Q 1584 409 2034 409 
Q 2484 409 2743 651 
Q 3003 894 3003 1313 
Q 3003 1734 2745 1975 
Q 2488 2216 2034 2216 
z
M 1403 2484 
Q 997 2584 770 2862 
Q 544 3141 544 3541 
Q 544 4100 942 4425 
Q 1341 4750 2034 4750 
Q 2731 4750 3128 4425 
Q 3525 4100 3525 3541 
Q 3525 3141 3298 2862 
Q 3072 2584 2669 2484 
Q 3125 2378 3379 2068 
Q 3634 1759 3634 1313 
Q 3634 634 3220 271 
Q 2806 -91 2034 -91 
Q 1263 -91 848 271 
Q 434 634 434 1313 
Q 434 1759 690 2068 
Q 947 2378 1403 2484 
z
M 1172 3481 
Q 1172 3119 1398 2916 
Q 1625 2713 2034 2713 
Q 2441 2713 2670 2916 
Q 2900 3119 2900 3481 
Q 2900 3844 2670 4047 
Q 2441 4250 2034 4250 
Q 1625 4250 1398 4047 
Q 1172 3844 1172 3481 
z
" transform="scale(0.015625)"/>
       </defs>
       <use xlink:href="#DejaVuSans-38"/>
       <use xlink:href="#DejaVuSans-30" x="63.623047"/>
       <use xlink:href="#DejaVuSans-30" x="127.246094"/>
       <use xlink:href="#DejaVuSans-30" x="190.869141"/>
       <use xlink:href="#DejaVuSans-30" x="254.492188"/>
      </g>
     </g>
    </g>
    <g id="ytick_6">
     <g id="line2d_13">
      <path d="M 81.72 41.77633 
L 447.84 41.77633 
" clip-path="url(#p7c2064bfe6)" style="fill: none; stroke: #ffffff; stroke-linecap: round"/>
     </g>
     <g id="text_14">
      <!-- 100000 -->
      <g style="fill: #262626" transform="translate(30.2275 45.955471)scale(0.11 -0.11)">
       <use xlink:href="#DejaVuSans-31"/>
       <use xlink:href="#DejaVuSans-30" x="63.623047"/>
       <use xlink:href="#DejaVuSans-30" x="127.246094"/>
       <use xlink:href="#DejaVuSans-30" x="190.869141"/>
       <use xlink:href="#DejaVuSans-30" x="254.492188"/>
       <use xlink:href="#DejaVuSans-30" x="318.115234"/>
      </g>
     </g>
    </g>
    <g id="text_15">
     <!-- Traintime -->
     <g style="fill: #262626" transform="translate(23.315938 194.815781)rotate(-90)scale(0.14 -0.14)">
      <defs>
       <path id="DejaVuSans-72" d="M 2631 2963 
Q 2534 3019 2420 3045 
Q 2306 3072 2169 3072 
Q 1681 3072 1420 2755 
Q 1159 2438 1159 1844 
L 1159 0 
L 581 0 
L 581 3500 
L 1159 3500 
L 1159 2956 
Q 1341 3275 1631 3429 
Q 1922 3584 2338 3584 
Q 2397 3584 2469 3576 
Q 2541 3569 2628 3553 
L 2631 2963 
z
" transform="scale(0.015625)"/>
       <path id="DejaVuSans-61" d="M 2194 1759 
Q 1497 1759 1228 1600 
Q 959 1441 959 1056 
Q 959 750 1161 570 
Q 1363 391 1709 391 
Q 2188 391 2477 730 
Q 2766 1069 2766 1631 
L 2766 1759 
L 2194 1759 
z
M 3341 1997 
L 3341 0 
L 2766 0 
L 2766 531 
Q 2569 213 2275 61 
Q 1981 -91 1556 -91 
Q 1019 -91 701 211 
Q 384 513 384 1019 
Q 384 1609 779 1909 
Q 1175 2209 1959 2209 
L 2766 2209 
L 2766 2266 
Q 2766 2663 2505 2880 
Q 2244 3097 1772 3097 
Q 1472 3097 1187 3025 
Q 903 2953 641 2809 
L 641 3341 
Q 956 3463 1253 3523 
Q 1550 3584 1831 3584 
Q 2591 3584 2966 3190 
Q 3341 2797 3341 1997 
z
" transform="scale(0.015625)"/>
      </defs>
      <use xlink:href="#DejaVuSans-54"/>
      <use xlink:href="#DejaVuSans-72" x="46.333984"/>
      <use xlink:href="#DejaVuSans-61" x="87.447266"/>
      <use xlink:href="#DejaVuSans-69" x="148.726562"/>
      <use xlink:href="#DejaVuSans-6e" x="176.509766"/>
      <use xlink:href="#DejaVuSans-74" x="239.888672"/>
      <use xlink:href="#DejaVuSans-69" x="279.097656"/>
      <use xlink:href="#DejaVuSans-6d" x="306.880859"/>
      <use xlink:href="#DejaVuSans-65" x="404.292969"/>
     </g>
    </g>
   </g>
   <g id="PolyCollection_1">
    <defs>
     <path id="m4cc5944bd8" d="M 98.361818 -65.051403 
L 98.361818 -65.182515 
L 101.158762 -67.358537 
L 103.955707 -69.51763 
L 106.752651 -71.664727 
L 109.549595 -73.82409 
L 112.346539 -75.990165 
L 115.143484 -78.153991 
L 117.940428 -80.24653 
L 120.737372 -82.150776 
L 123.534316 -84.05104 
L 126.331261 -85.951142 
L 129.128205 -87.847689 
L 131.925149 -89.747837 
L 134.722093 -91.643413 
L 137.519037 -93.537074 
L 140.315982 -95.432322 
L 143.112926 -97.327225 
L 145.90987 -99.221421 
L 148.706814 -101.112395 
L 151.503759 -103.250307 
L 154.300703 -105.212937 
L 157.097647 -107.103674 
L 159.894591 -108.994023 
L 162.691536 -110.885301 
L 165.48848 -112.895078 
L 168.285424 -114.876484 
L 171.082368 -116.765496 
L 173.879312 -118.766531 
L 176.676257 -120.874079 
L 179.473201 -123.011575 
L 182.270145 -125.116901 
L 185.067089 -127.222794 
L 187.864034 -129.329801 
L 190.660978 -131.43632 
L 193.457922 -133.538664 
L 196.254866 -135.640729 
L 199.051811 -137.744141 
L 201.848755 -139.847589 
L 204.645699 -141.951713 
L 207.442643 -144.053434 
L 210.239587 -146.155803 
L 213.036532 -148.256578 
L 215.833476 -150.356412 
L 218.63042 -152.456792 
L 221.427364 -154.566464 
L 224.224309 -156.512195 
L 227.021253 -158.397849 
L 229.818197 -160.283235 
L 232.615141 -162.168212 
L 235.412086 -164.053991 
L 238.20903 -165.942398 
L 241.005974 -167.83222 
L 243.802918 -169.721596 
L 246.599862 -171.617463 
L 249.396807 -173.506559 
L 252.193751 -175.397893 
L 254.990695 -177.287888 
L 257.787639 -179.178506 
L 260.584584 -181.064723 
L 263.381528 -182.953093 
L 266.178472 -184.896723 
L 268.975416 -186.791023 
L 271.772361 -188.723737 
L 274.569305 -190.61997 
L 277.366249 -192.514015 
L 280.163193 -194.393822 
L 282.960138 -196.306159 
L 285.757082 -198.224906 
L 288.554026 -200.113106 
L 291.35097 -201.997708 
L 294.147914 -204.003462 
L 296.944859 -205.96453 
L 299.741803 -207.88911 
L 302.538747 -209.843521 
L 305.335691 -211.734768 
L 308.132636 -213.639516 
L 310.92958 -215.700731 
L 313.726524 -217.770835 
L 316.523468 -219.930484 
L 319.320413 -222.050598 
L 322.117357 -224.184081 
L 324.914301 -226.314908 
L 327.711245 -228.201284 
L 330.508189 -230.424051 
L 333.305134 -232.353164 
L 336.102078 -234.261135 
L 338.899022 -236.154084 
L 341.695966 -238.252944 
L 344.492911 -240.266299 
L 347.289855 -242.182837 
L 350.086799 -244.130377 
L 352.883743 -246.053123 
L 355.680688 -248.048531 
L 358.477632 -249.961194 
L 361.274576 -251.893028 
L 364.07152 -253.840203 
L 366.868464 -255.721041 
L 369.665409 -257.594183 
L 372.462353 -259.475015 
L 375.259297 -261.360865 
L 378.056241 -263.241498 
L 380.853186 -265.315516 
L 383.65013 -267.496551 
L 386.447074 -269.674256 
L 389.244018 -271.893179 
L 392.040963 -274.098882 
L 394.837907 -276.306275 
L 397.634851 -278.515602 
L 400.431795 -280.725747 
L 403.228739 -282.935267 
L 406.025684 -285.134626 
L 408.822628 -287.297447 
L 411.619572 -289.464592 
L 414.416516 -291.493016 
L 417.213461 -293.642069 
L 420.010405 -295.788618 
L 422.807349 -297.708109 
L 425.604293 -299.710447 
L 428.401238 -301.822508 
L 431.198182 -303.799091 
L 431.198182 -301.868161 
L 431.198182 -301.868161 
L 428.401238 -299.79705 
L 425.604293 -297.730355 
L 422.807349 -295.883481 
L 420.010405 -293.895035 
L 417.213461 -291.793907 
L 414.416516 -289.778292 
L 411.619572 -287.708689 
L 408.822628 -285.574183 
L 406.025684 -283.446315 
L 403.228739 -281.264424 
L 400.431795 -279.094868 
L 397.634851 -276.907297 
L 394.837907 -274.708788 
L 392.040963 -272.249731 
L 389.244018 -270.071502 
L 386.447074 -267.828788 
L 383.65013 -265.689708 
L 380.853186 -263.556783 
L 378.056241 -261.623936 
L 375.259297 -259.763568 
L 372.462353 -257.905009 
L 369.665409 -256.045317 
L 366.868464 -254.182678 
L 364.07152 -252.323525 
L 361.274576 -250.454391 
L 358.477632 -248.562279 
L 355.680688 -246.601454 
L 352.883743 -244.671987 
L 350.086799 -242.781158 
L 347.289855 -240.911064 
L 344.492911 -239.002939 
L 341.695966 -236.956922 
L 338.899022 -234.975456 
L 336.102078 -233.106449 
L 333.305134 -231.195477 
L 330.508189 -229.240035 
L 327.711245 -227.231203 
L 324.914301 -225.355712 
L 322.117357 -223.249226 
L 319.320413 -221.14352 
L 316.523468 -219.043546 
L 313.726524 -216.937956 
L 310.92958 -214.954436 
L 308.132636 -213.065133 
L 305.335691 -211.157728 
L 302.538747 -209.273269 
L 299.741803 -207.286178 
L 296.944859 -205.374497 
L 294.147914 -203.483213 
L 291.35097 -201.493453 
L 288.554026 -199.601667 
L 285.757082 -197.725476 
L 282.960138 -195.813943 
L 280.163193 -193.937563 
L 277.366249 -192.065212 
L 274.569305 -190.190174 
L 271.772361 -188.316281 
L 268.975416 -186.433133 
L 266.178472 -184.547869 
L 263.381528 -182.671241 
L 260.584584 -180.790295 
L 257.787639 -178.909109 
L 254.990695 -176.998123 
L 252.193751 -175.120635 
L 249.396807 -173.244257 
L 246.599862 -171.364488 
L 243.802918 -169.485434 
L 241.005974 -167.60612 
L 238.20903 -165.725276 
L 235.412086 -163.845399 
L 232.615141 -161.966497 
L 229.818197 -160.088847 
L 227.021253 -158.20905 
L 224.224309 -156.330425 
L 221.427364 -154.372109 
L 218.63042 -152.271227 
L 215.833476 -150.166368 
L 213.036532 -148.063461 
L 210.239587 -145.959819 
L 207.442643 -143.856282 
L 204.645699 -141.753728 
L 201.848755 -139.650913 
L 199.051811 -137.549315 
L 196.254866 -135.443979 
L 193.457922 -133.34098 
L 190.660978 -131.237792 
L 187.864034 -129.131474 
L 185.067089 -127.023745 
L 182.270145 -124.91886 
L 179.473201 -122.814739 
L 176.676257 -120.675752 
L 173.879312 -118.571132 
L 171.082368 -116.62666 
L 168.285424 -114.740078 
L 165.48848 -112.705219 
L 162.691536 -110.753034 
L 159.894591 -108.862379 
L 157.097647 -106.975932 
L 154.300703 -105.087151 
L 151.503759 -103.066703 
L 148.706814 -100.989648 
L 145.90987 -99.103287 
L 143.112926 -97.212408 
L 140.315982 -95.320081 
L 137.519037 -93.427285 
L 134.722093 -91.535093 
L 131.925149 -89.639651 
L 129.128205 -87.741787 
L 126.331261 -85.846996 
L 123.534316 -83.948209 
L 120.737372 -82.050758 
L 117.940428 -80.147427 
L 115.143484 -78.002527 
L 112.346539 -75.842367 
L 109.549595 -73.681056 
L 106.752651 -71.525885 
L 103.955707 -69.384012 
L 101.158762 -67.222082 
L 98.361818 -65.051403 
z
" style="stroke: #ffffff; stroke-opacity: 0.5"/>
    </defs>
    <g clip-path="url(#p7c2064bfe6)">
     <use xlink:href="#m4cc5944bd8" x="0" y="345.6" style="fill: #4c72b0; fill-opacity: 0.5; stroke: #ffffff; stroke-opacity: 0.5"/>
    </g>
   </g>
   <g id="PolyCollection_2">
    <defs>
     <path id="ma31ed49096" d="M 98.361818 -62.980909 
L 98.361818 -62.980991 
L 101.158762 -62.982463 
L 103.955707 -62.983884 
L 106.752651 -62.985236 
L 109.549595 -62.997011 
L 112.346539 -63.008964 
L 115.143484 -63.020637 
L 117.940428 -63.032444 
L 120.737372 -63.044372 
L 123.534316 -63.056368 
L 126.331261 -63.068068 
L 129.128205 -63.079907 
L 131.925149 -63.091866 
L 134.722093 -63.103412 
L 137.519037 -63.115043 
L 140.315982 -63.126974 
L 143.112926 -63.139171 
L 145.90987 -63.150588 
L 148.706814 -63.162392 
L 151.503759 -63.174385 
L 154.300703 -63.186012 
L 157.097647 -63.197755 
L 159.894591 -63.209755 
L 162.691536 -63.221479 
L 165.48848 -63.233435 
L 168.285424 -63.245121 
L 171.082368 -63.257058 
L 173.879312 -63.268632 
L 176.676257 -63.280309 
L 179.473201 -63.292046 
L 182.270145 -63.304132 
L 185.067089 -63.316277 
L 187.864034 -63.328078 
L 190.660978 -63.339709 
L 193.457922 -63.351496 
L 196.254866 -63.363761 
L 199.051811 -63.375989 
L 201.848755 -63.387904 
L 204.645699 -63.399781 
L 207.442643 -63.411525 
L 210.239587 -63.423648 
L 213.036532 -63.435238 
L 215.833476 -63.44689 
L 218.63042 -63.458659 
L 221.427364 -63.470422 
L 224.224309 -63.482296 
L 227.021253 -63.494061 
L 229.818197 -63.505757 
L 232.615141 -63.517757 
L 235.412086 -63.52955 
L 238.20903 -63.541535 
L 241.005974 -63.553277 
L 243.802918 -63.565062 
L 246.599862 -63.576861 
L 249.396807 -63.588885 
L 252.193751 -63.600615 
L 254.990695 -63.61201 
L 257.787639 -63.623708 
L 260.584584 -63.635436 
L 263.381528 -63.647142 
L 266.178472 -63.658631 
L 268.975416 -63.670741 
L 271.772361 -63.682251 
L 274.569305 -63.694249 
L 277.366249 -63.705734 
L 280.163193 -63.717682 
L 282.960138 -63.729421 
L 285.757082 -63.741319 
L 288.554026 -63.753077 
L 291.35097 -63.764306 
L 294.147914 -63.775544 
L 296.944859 -63.78746 
L 299.741803 -63.799078 
L 302.538747 -63.810764 
L 305.335691 -63.822175 
L 308.132636 -63.833897 
L 310.92958 -63.845619 
L 313.726524 -63.857218 
L 316.523468 -63.869108 
L 319.320413 -63.88069 
L 322.117357 -63.892239 
L 324.914301 -63.903598 
L 327.711245 -63.915737 
L 330.508189 -63.92737 
L 333.305134 -63.939211 
L 336.102078 -63.950849 
L 338.899022 -63.962475 
L 341.695966 -63.974234 
L 344.492911 -63.985974 
L 347.289855 -63.997661 
L 350.086799 -64.009519 
L 352.883743 -64.021203 
L 355.680688 -64.032811 
L 358.477632 -64.045001 
L 361.274576 -64.05657 
L 364.07152 -64.067886 
L 366.868464 -64.079381 
L 369.665409 -64.091058 
L 372.462353 -64.102727 
L 375.259297 -64.114108 
L 378.056241 -64.125723 
L 380.853186 -64.137363 
L 383.65013 -64.148826 
L 386.447074 -64.160517 
L 389.244018 -64.172164 
L 392.040963 -64.183616 
L 394.837907 -64.195157 
L 397.634851 -64.206642 
L 400.431795 -64.218286 
L 403.228739 -64.229941 
L 406.025684 -64.241989 
L 408.822628 -64.253802 
L 411.619572 -64.264965 
L 414.416516 -64.27649 
L 417.213461 -64.288126 
L 420.010405 -64.299786 
L 422.807349 -64.311274 
L 425.604293 -64.322858 
L 428.401238 -64.334696 
L 431.198182 -64.346494 
L 431.198182 -64.306826 
L 431.198182 -64.306826 
L 428.401238 -64.295677 
L 425.604293 -64.284416 
L 422.807349 -64.273031 
L 420.010405 -64.26164 
L 417.213461 -64.250387 
L 414.416516 -64.23898 
L 411.619572 -64.227657 
L 408.822628 -64.2162 
L 406.025684 -64.205152 
L 403.228739 -64.194156 
L 400.431795 -64.182906 
L 397.634851 -64.171604 
L 394.837907 -64.159994 
L 392.040963 -64.148478 
L 389.244018 -64.137228 
L 386.447074 -64.125885 
L 383.65013 -64.114625 
L 380.853186 -64.10326 
L 378.056241 -64.091893 
L 375.259297 -64.080468 
L 372.462353 -64.069042 
L 369.665409 -64.057403 
L 366.868464 -64.046054 
L 364.07152 -64.034759 
L 361.274576 -64.023295 
L 358.477632 -64.012028 
L 355.680688 -64.000869 
L 352.883743 -63.989574 
L 350.086799 -63.97821 
L 347.289855 -63.966456 
L 344.492911 -63.955384 
L 341.695966 -63.944048 
L 338.899022 -63.932504 
L 336.102078 -63.921118 
L 333.305134 -63.909748 
L 330.508189 -63.898431 
L 327.711245 -63.887115 
L 324.914301 -63.875479 
L 322.117357 -63.863892 
L 319.320413 -63.852803 
L 316.523468 -63.841446 
L 313.726524 -63.830056 
L 310.92958 -63.818789 
L 308.132636 -63.807359 
L 305.335691 -63.795803 
L 302.538747 -63.784474 
L 299.741803 -63.772572 
L 296.944859 -63.761219 
L 294.147914 -63.749865 
L 291.35097 -63.738353 
L 288.554026 -63.726903 
L 285.757082 -63.715616 
L 282.960138 -63.70393 
L 280.163193 -63.69224 
L 277.366249 -63.680841 
L 274.569305 -63.669527 
L 271.772361 -63.658133 
L 268.975416 -63.646794 
L 266.178472 -63.635445 
L 263.381528 -63.624119 
L 260.584584 -63.612575 
L 257.787639 -63.601106 
L 254.990695 -63.589622 
L 252.193751 -63.577974 
L 249.396807 -63.566513 
L 246.599862 -63.555323 
L 243.802918 -63.544108 
L 241.005974 -63.533031 
L 238.20903 -63.521271 
L 235.412086 -63.50998 
L 232.615141 -63.498662 
L 229.818197 -63.487154 
L 227.021253 -63.475902 
L 224.224309 -63.464514 
L 221.427364 -63.452987 
L 218.63042 -63.44168 
L 215.833476 -63.430338 
L 213.036532 -63.419067 
L 210.239587 -63.407687 
L 207.442643 -63.396269 
L 204.645699 -63.384517 
L 201.848755 -63.373164 
L 199.051811 -63.361845 
L 196.254866 -63.350484 
L 193.457922 -63.339013 
L 190.660978 -63.327962 
L 187.864034 -63.316372 
L 185.067089 -63.305252 
L 182.270145 -63.293824 
L 179.473201 -63.282365 
L 176.676257 -63.27092 
L 173.879312 -63.259629 
L 171.082368 -63.248448 
L 168.285424 -63.237099 
L 165.48848 -63.225742 
L 162.691536 -63.214504 
L 159.894591 -63.20317 
L 157.097647 -63.19161 
L 154.300703 -63.180077 
L 151.503759 -63.1688 
L 148.706814 -63.157426 
L 145.90987 -63.146025 
L 143.112926 -63.134728 
L 140.315982 -63.12315 
L 137.519037 -63.11202 
L 134.722093 -63.1009 
L 131.925149 -63.089535 
L 129.128205 -63.077978 
L 126.331261 -63.066378 
L 123.534316 -63.054798 
L 120.737372 -63.043224 
L 117.940428 -63.031819 
L 115.143484 -63.020008 
L 112.346539 -63.008365 
L 109.549595 -62.996689 
L 106.752651 -62.984975 
L 103.955707 -62.983565 
L 101.158762 -62.982228 
L 98.361818 -62.980909 
z
" style="stroke: #ffffff; stroke-opacity: 0.5"/>
    </defs>
    <g clip-path="url(#p7c2064bfe6)">
     <use xlink:href="#ma31ed49096" x="0" y="345.6" style="fill: #dd8452; fill-opacity: 0.5; stroke: #ffffff; stroke-opacity: 0.5"/>
    </g>
   </g>
   <g id="PolyCollection_3">
    <defs>
     <path id="m52499ed626" d="M 98.361818 -62.980944 
L 98.361818 -62.980988 
L 101.158762 -62.982397 
L 103.955707 -62.983794 
L 106.752651 -62.985226 
L 109.549595 -63.013007 
L 112.346539 -63.040185 
L 115.143484 -63.067696 
L 117.940428 -63.095133 
L 120.737372 -63.12248 
L 123.534316 -63.150161 
L 126.331261 -63.177512 
L 129.128205 -63.205207 
L 131.925149 -63.232592 
L 134.722093 -63.260335 
L 137.519037 -63.287398 
L 140.315982 -63.314792 
L 143.112926 -63.342552 
L 145.90987 -63.370063 
L 148.706814 -63.397022 
L 151.503759 -63.424346 
L 154.300703 -63.451617 
L 157.097647 -63.479711 
L 159.894591 -63.506728 
L 162.691536 -63.533921 
L 165.48848 -63.560885 
L 168.285424 -63.587839 
L 171.082368 -63.614458 
L 173.879312 -63.641814 
L 176.676257 -63.66915 
L 179.473201 -63.69671 
L 182.270145 -63.724529 
L 185.067089 -63.75159 
L 187.864034 -63.779099 
L 190.660978 -63.806514 
L 193.457922 -63.833134 
L 196.254866 -63.860835 
L 199.051811 -63.888567 
L 201.848755 -63.91597 
L 204.645699 -63.942583 
L 207.442643 -63.96969 
L 210.239587 -63.996977 
L 213.036532 -64.024598 
L 215.833476 -64.052268 
L 218.63042 -64.080278 
L 221.427364 -64.107369 
L 224.224309 -64.13444 
L 227.021253 -64.161591 
L 229.818197 -64.188804 
L 232.615141 -64.21667 
L 235.412086 -64.244245 
L 238.20903 -64.271371 
L 241.005974 -64.299011 
L 243.802918 -64.326598 
L 246.599862 -64.35342 
L 249.396807 -64.38127 
L 252.193751 -64.408428 
L 254.990695 -64.435872 
L 257.787639 -64.463343 
L 260.584584 -64.49058 
L 263.381528 -64.517801 
L 266.178472 -64.545185 
L 268.975416 -64.572991 
L 271.772361 -64.600546 
L 274.569305 -64.627573 
L 277.366249 -64.655101 
L 280.163193 -64.682156 
L 282.960138 -64.709421 
L 285.757082 -64.736605 
L 288.554026 -64.763779 
L 291.35097 -64.790974 
L 294.147914 -64.818076 
L 296.944859 -64.845144 
L 299.741803 -64.872096 
L 302.538747 -64.899445 
L 305.335691 -64.926196 
L 308.132636 -64.953864 
L 310.92958 -64.981162 
L 313.726524 -65.008463 
L 316.523468 -65.036114 
L 319.320413 -65.063415 
L 322.117357 -65.090867 
L 324.914301 -65.118196 
L 327.711245 -65.145789 
L 330.508189 -65.173666 
L 333.305134 -65.200848 
L 336.102078 -65.228654 
L 338.899022 -65.256558 
L 341.695966 -65.284262 
L 344.492911 -65.311685 
L 347.289855 -65.339003 
L 350.086799 -65.366545 
L 352.883743 -65.393513 
L 355.680688 -65.421053 
L 358.477632 -65.447987 
L 361.274576 -65.474897 
L 364.07152 -65.501702 
L 366.868464 -65.529148 
L 369.665409 -65.556795 
L 372.462353 -65.58427 
L 375.259297 -65.611696 
L 378.056241 -65.639466 
L 380.853186 -65.666463 
L 383.65013 -65.693826 
L 386.447074 -65.721035 
L 389.244018 -65.747744 
L 392.040963 -65.775099 
L 394.837907 -65.802064 
L 397.634851 -65.829348 
L 400.431795 -65.856675 
L 403.228739 -65.883282 
L 406.025684 -65.910337 
L 408.822628 -65.936843 
L 411.619572 -65.964223 
L 414.416516 -65.991239 
L 417.213461 -66.018272 
L 420.010405 -66.045411 
L 422.807349 -66.072729 
L 425.604293 -66.099805 
L 428.401238 -66.126454 
L 431.198182 -66.153802 
L 431.198182 -66.103257 
L 431.198182 -66.103257 
L 428.401238 -66.076551 
L 425.604293 -66.049981 
L 422.807349 -66.022658 
L 420.010405 -65.995505 
L 417.213461 -65.968882 
L 414.416516 -65.941962 
L 411.619572 -65.915542 
L 408.822628 -65.888696 
L 406.025684 -65.861316 
L 403.228739 -65.83407 
L 400.431795 -65.807329 
L 397.634851 -65.780724 
L 394.837907 -65.754407 
L 392.040963 -65.727989 
L 389.244018 -65.701587 
L 386.447074 -65.675031 
L 383.65013 -65.648374 
L 380.853186 -65.621591 
L 378.056241 -65.595109 
L 375.259297 -65.568668 
L 372.462353 -65.541218 
L 369.665409 -65.514745 
L 366.868464 -65.487514 
L 364.07152 -65.461246 
L 361.274576 -65.434312 
L 358.477632 -65.407441 
L 355.680688 -65.381009 
L 352.883743 -65.353846 
L 350.086799 -65.326589 
L 347.289855 -65.299684 
L 344.492911 -65.272469 
L 341.695966 -65.245972 
L 338.899022 -65.219149 
L 336.102078 -65.192724 
L 333.305134 -65.166322 
L 330.508189 -65.139516 
L 327.711245 -65.112536 
L 324.914301 -65.085572 
L 322.117357 -65.058593 
L 319.320413 -65.031959 
L 316.523468 -65.005447 
L 313.726524 -64.978618 
L 310.92958 -64.951417 
L 308.132636 -64.923692 
L 305.335691 -64.896533 
L 302.538747 -64.869132 
L 299.741803 -64.842355 
L 296.944859 -64.815115 
L 294.147914 -64.787263 
L 291.35097 -64.759791 
L 288.554026 -64.733228 
L 285.757082 -64.706621 
L 282.960138 -64.680079 
L 280.163193 -64.653142 
L 277.366249 -64.626393 
L 274.569305 -64.599497 
L 271.772361 -64.572282 
L 268.975416 -64.54538 
L 266.178472 -64.51814 
L 263.381528 -64.491192 
L 260.584584 -64.46411 
L 257.787639 -64.437052 
L 254.990695 -64.409332 
L 252.193751 -64.381088 
L 249.396807 -64.353116 
L 246.599862 -64.325087 
L 243.802918 -64.298274 
L 241.005974 -64.271887 
L 238.20903 -64.245726 
L 235.412086 -64.21893 
L 232.615141 -64.192278 
L 229.818197 -64.165278 
L 227.021253 -64.137577 
L 224.224309 -64.110626 
L 221.427364 -64.083615 
L 218.63042 -64.056934 
L 215.833476 -64.030248 
L 213.036532 -64.003087 
L 210.239587 -63.976483 
L 207.442643 -63.949914 
L 204.645699 -63.923402 
L 201.848755 -63.896634 
L 199.051811 -63.869946 
L 196.254866 -63.842945 
L 193.457922 -63.816069 
L 190.660978 -63.788861 
L 187.864034 -63.7613 
L 185.067089 -63.735342 
L 182.270145 -63.709554 
L 179.473201 -63.683413 
L 176.676257 -63.65679 
L 173.879312 -63.629761 
L 171.082368 -63.603037 
L 168.285424 -63.576001 
L 165.48848 -63.549851 
L 162.691536 -63.523002 
L 159.894591 -63.495849 
L 157.097647 -63.46941 
L 154.300703 -63.443102 
L 151.503759 -63.416218 
L 148.706814 -63.38925 
L 145.90987 -63.362389 
L 143.112926 -63.335581 
L 140.315982 -63.308707 
L 137.519037 -63.281714 
L 134.722093 -63.254543 
L 131.925149 -63.228031 
L 129.128205 -63.201244 
L 126.331261 -63.173915 
L 123.534316 -63.147337 
L 120.737372 -63.120041 
L 117.940428 -63.093266 
L 115.143484 -63.066085 
L 112.346539 -63.038928 
L 109.549595 -63.011772 
L 106.752651 -62.985059 
L 103.955707 -62.983702 
L 101.158762 -62.982332 
L 98.361818 -62.980944 
z
" style="stroke: #ffffff; stroke-opacity: 0.5"/>
    </defs>
    <g clip-path="url(#p7c2064bfe6)">
     <use xlink:href="#m52499ed626" x="0" y="345.6" style="fill: #55a868; fill-opacity: 0.5; stroke: #ffffff; stroke-opacity: 0.5"/>
    </g>
   </g>
   <g id="PolyCollection_4">
    <defs>
     <path id="mcd3a0b00bd" d="M 98.361818 -62.983759 
L 98.361818 -62.983808 
L 101.158762 -62.988518 
L 103.955707 -62.993361 
L 106.752651 -62.998138 
L 109.549595 -63.121851 
L 112.346539 -63.248586 
L 115.143484 -63.374446 
L 117.940428 -63.502073 
L 120.737372 -63.627866 
L 123.534316 -63.755418 
L 126.331261 -63.884352 
L 129.128205 -64.012718 
L 131.925149 -64.134458 
L 134.722093 -64.258807 
L 137.519037 -64.383524 
L 140.315982 -64.509761 
L 143.112926 -64.636964 
L 145.90987 -64.763832 
L 148.706814 -64.887448 
L 151.503759 -65.009411 
L 154.300703 -65.131423 
L 157.097647 -65.254185 
L 159.894591 -65.377095 
L 162.691536 -65.498174 
L 165.48848 -65.616248 
L 168.285424 -65.73666 
L 171.082368 -65.85699 
L 173.879312 -65.977619 
L 176.676257 -66.098879 
L 179.473201 -66.219854 
L 182.270145 -66.341339 
L 185.067089 -66.463301 
L 187.864034 -66.585144 
L 190.660978 -66.706906 
L 193.457922 -66.828934 
L 196.254866 -66.953616 
L 199.051811 -67.07249 
L 201.848755 -67.19241 
L 204.645699 -67.313361 
L 207.442643 -67.436104 
L 210.239587 -67.557667 
L 213.036532 -67.679767 
L 215.833476 -67.801523 
L 218.63042 -67.923692 
L 221.427364 -68.04677 
L 224.224309 -68.17037 
L 227.021253 -68.294944 
L 229.818197 -68.418476 
L 232.615141 -68.536831 
L 235.412086 -68.658071 
L 238.20903 -68.779506 
L 241.005974 -68.901341 
L 243.802918 -69.023038 
L 246.599862 -69.145522 
L 249.396807 -69.267309 
L 252.193751 -69.389738 
L 254.990695 -69.513219 
L 257.787639 -69.637472 
L 260.584584 -69.760566 
L 263.381528 -69.884713 
L 266.178472 -70.003165 
L 268.975416 -70.123263 
L 271.772361 -70.243978 
L 274.569305 -70.365639 
L 277.366249 -70.488303 
L 280.163193 -70.610852 
L 282.960138 -70.733922 
L 285.757082 -70.857944 
L 288.554026 -70.980822 
L 291.35097 -71.104451 
L 294.147914 -71.227683 
L 296.944859 -71.351448 
L 299.741803 -71.470117 
L 302.538747 -71.590472 
L 305.335691 -71.711452 
L 308.132636 -71.833827 
L 310.92958 -71.957008 
L 313.726524 -72.080298 
L 316.523468 -72.204001 
L 319.320413 -72.327713 
L 322.117357 -72.448805 
L 324.914301 -72.572545 
L 327.711245 -72.696416 
L 330.508189 -72.82056 
L 333.305134 -72.939735 
L 336.102078 -73.060493 
L 338.899022 -73.181349 
L 341.695966 -73.304275 
L 344.492911 -73.427384 
L 347.289855 -73.549995 
L 350.086799 -73.673558 
L 352.883743 -73.797071 
L 355.680688 -73.91979 
L 358.477632 -74.041876 
L 361.274576 -74.165851 
L 364.07152 -74.289868 
L 366.868464 -74.408751 
L 369.665409 -74.529477 
L 372.462353 -74.651238 
L 375.259297 -74.77327 
L 378.056241 -74.896622 
L 380.853186 -75.020177 
L 383.65013 -75.143545 
L 386.447074 -75.266894 
L 389.244018 -75.389906 
L 392.040963 -75.513005 
L 394.837907 -75.636079 
L 397.634851 -75.759851 
L 400.431795 -75.880005 
L 403.228739 -76.001482 
L 406.025684 -76.123201 
L 408.822628 -76.245863 
L 411.619572 -76.367669 
L 414.416516 -76.490672 
L 417.213461 -76.613745 
L 420.010405 -76.736811 
L 422.807349 -76.859071 
L 425.604293 -76.983878 
L 428.401238 -77.107514 
L 431.198182 -77.231201 
L 431.198182 -77.18113 
L 431.198182 -77.18113 
L 428.401238 -77.057487 
L 425.604293 -76.934009 
L 422.807349 -76.8108 
L 420.010405 -76.687557 
L 417.213461 -76.563517 
L 414.416516 -76.440868 
L 411.619572 -76.317727 
L 408.822628 -76.196029 
L 406.025684 -76.07448 
L 403.228739 -75.952729 
L 400.431795 -75.832673 
L 397.634851 -75.713892 
L 394.837907 -75.589945 
L 392.040963 -75.467995 
L 389.244018 -75.344523 
L 386.447074 -75.221948 
L 383.65013 -75.099042 
L 380.853186 -74.976781 
L 378.056241 -74.854412 
L 375.259297 -74.732122 
L 372.462353 -74.61193 
L 369.665409 -74.491441 
L 366.868464 -74.370465 
L 364.07152 -74.251149 
L 361.274576 -74.127701 
L 358.477632 -74.004468 
L 355.680688 -73.881543 
L 352.883743 -73.758381 
L 350.086799 -73.63516 
L 347.289855 -73.511843 
L 344.492911 -73.389587 
L 341.695966 -73.266765 
L 338.899022 -73.145362 
L 336.102078 -73.02398 
L 333.305134 -72.904152 
L 330.508189 -72.785154 
L 327.711245 -72.66001 
L 324.914301 -72.535391 
L 322.117357 -72.411566 
L 319.320413 -72.289041 
L 316.523468 -72.165625 
L 313.726524 -72.04286 
L 310.92958 -71.919955 
L 308.132636 -71.79851 
L 305.335691 -71.676557 
L 302.538747 -71.555676 
L 299.741803 -71.435366 
L 296.944859 -71.317277 
L 294.147914 -71.193744 
L 291.35097 -71.070287 
L 288.554026 -70.947148 
L 285.757082 -70.825257 
L 282.960138 -70.703399 
L 280.163193 -70.581442 
L 277.366249 -70.457898 
L 274.569305 -70.335304 
L 271.772361 -70.21343 
L 268.975416 -70.091713 
L 266.178472 -69.970179 
L 263.381528 -69.852089 
L 260.584584 -69.72858 
L 257.787639 -69.605755 
L 254.990695 -69.48302 
L 252.193751 -69.35962 
L 249.396807 -69.236356 
L 246.599862 -69.112343 
L 243.802918 -68.989473 
L 241.005974 -68.868684 
L 238.20903 -68.746812 
L 235.412086 -68.624427 
L 232.615141 -68.50245 
L 229.818197 -68.382368 
L 227.021253 -68.259694 
L 224.224309 -68.137562 
L 221.427364 -68.015212 
L 218.63042 -67.892649 
L 215.833476 -67.769947 
L 213.036532 -67.649224 
L 210.239587 -67.526371 
L 207.442643 -67.404013 
L 204.645699 -67.282959 
L 201.848755 -67.160434 
L 199.051811 -67.039145 
L 196.254866 -66.919382 
L 193.457922 -66.79497 
L 190.660978 -66.671821 
L 187.864034 -66.547679 
L 185.067089 -66.425341 
L 182.270145 -66.302051 
L 179.473201 -66.179063 
L 176.676257 -66.055028 
L 173.879312 -65.93419 
L 171.082368 -65.812108 
L 168.285424 -65.691471 
L 165.48848 -65.570952 
L 162.691536 -65.453237 
L 159.894591 -65.329545 
L 157.097647 -65.20677 
L 154.300703 -65.082907 
L 151.503759 -64.960251 
L 148.706814 -64.836677 
L 145.90987 -64.714209 
L 143.112926 -64.590899 
L 140.315982 -64.469861 
L 137.519037 -64.347834 
L 134.722093 -64.227322 
L 131.925149 -64.108037 
L 129.128205 -63.989175 
L 126.331261 -63.865853 
L 123.534316 -63.743487 
L 120.737372 -63.621861 
L 117.940428 -63.49974 
L 115.143484 -63.372652 
L 112.346539 -63.246527 
L 109.549595 -63.12068 
L 106.752651 -62.9981 
L 103.955707 -62.993253 
L 101.158762 -62.988484 
L 98.361818 -62.983759 
z
" style="stroke: #ffffff; stroke-opacity: 0.5"/>
    </defs>
    <g clip-path="url(#p7c2064bfe6)">
     <use xlink:href="#mcd3a0b00bd" x="0" y="345.6" style="fill: #c44e52; fill-opacity: 0.5; stroke: #ffffff; stroke-opacity: 0.5"/>
    </g>
   </g>
   <g id="line2d_14">
    <path d="M 98.361818 280.465969 
L 101.158762 278.295783 
L 103.955707 276.135873 
L 106.752651 273.994666 
L 109.549595 271.840756 
L 112.346539 269.679705 
L 115.143484 267.520736 
L 117.940428 265.402902 
L 120.737372 263.501176 
L 123.534316 261.604069 
L 126.331261 259.706334 
L 129.128205 257.812489 
L 131.925149 255.915349 
L 134.722093 254.021692 
L 137.519037 252.129722 
L 140.315982 250.236506 
L 143.112926 248.344081 
L 145.90987 246.452594 
L 148.706814 244.564134 
L 151.503759 242.461776 
L 154.300703 240.466439 
L 157.097647 238.577223 
L 159.894591 236.689325 
L 162.691536 234.798589 
L 165.48848 232.822331 
L 168.285424 230.809718 
L 171.082368 228.922331 
L 173.879312 226.954088 
L 176.676257 224.846788 
L 179.473201 222.706346 
L 182.270145 220.600685 
L 185.067089 218.493601 
L 187.864034 216.384262 
L 190.660978 214.276666 
L 193.457922 212.172038 
L 196.254866 210.067479 
L 199.051811 207.961622 
L 201.848755 205.856368 
L 204.645699 203.750239 
L 207.442643 201.645503 
L 210.239587 199.539527 
L 213.036532 197.433901 
L 215.833476 195.329697 
L 218.63042 193.220203 
L 221.427364 191.116061 
L 224.224309 189.179794 
L 227.021253 187.297962 
L 229.818197 185.416102 
L 232.615141 183.535207 
L 235.412086 181.653885 
L 238.20903 179.771258 
L 241.005974 177.888557 
L 243.802918 176.005745 
L 246.599862 174.122122 
L 249.396807 172.239201 
L 252.193751 170.358636 
L 254.990695 168.474849 
L 257.787639 166.585803 
L 260.584584 164.703784 
L 263.381528 162.820764 
L 266.178472 160.928564 
L 268.975416 159.045316 
L 271.772361 157.151301 
L 274.569305 155.268354 
L 277.366249 153.385644 
L 280.163193 151.495364 
L 282.960138 149.591437 
L 285.757082 147.667704 
L 288.554026 145.773603 
L 291.35097 143.858594 
L 294.147914 141.838812 
L 296.944859 139.92288 
L 299.741803 137.994276 
L 302.538747 136.038442 
L 305.335691 134.153389 
L 308.132636 132.252985 
L 310.92958 130.285395 
L 313.726524 128.235432 
L 316.523468 126.088145 
L 319.320413 123.977213 
L 322.117357 121.843365 
L 324.914301 119.726786 
L 327.711245 117.836547 
L 330.508189 115.656855 
L 333.305134 113.721746 
L 336.102078 111.76731 
L 338.899022 109.873759 
L 341.695966 107.798417 
L 344.492911 105.811478 
L 347.289855 103.912932 
L 350.086799 102.013998 
L 352.883743 100.120385 
L 355.680688 98.110858 
L 358.477632 96.20381 
L 361.274576 94.303915 
L 364.07152 92.371859 
L 366.868464 90.497624 
L 369.665409 88.621676 
L 372.462353 86.726285 
L 375.259297 84.834963 
L 378.056241 82.960334 
L 380.853186 80.902021 
L 383.65013 78.735819 
L 386.447074 76.568985 
L 389.244018 74.345833 
L 392.040963 72.148964 
L 394.837907 69.893659 
L 397.634851 67.683044 
L 400.431795 65.47435 
L 403.228739 63.274569 
L 406.025684 61.080698 
L 408.822628 58.927614 
L 411.619572 56.744052 
L 414.416516 54.699598 
L 417.213461 52.581192 
L 420.010405 50.444569 
L 422.807349 48.503205 
L 425.604293 46.550983 
L 428.401238 44.442092 
L 431.198182 42.441191 
" clip-path="url(#p7c2064bfe6)" style="fill: none; stroke: #4c72b0; stroke-width: 3; stroke-linecap: round"/>
   </g>
   <g id="line2d_15">
    <path d="M 98.361818 282.619046 
L 101.158762 282.617677 
L 103.955707 282.616315 
L 106.752651 282.614941 
L 109.549595 282.603159 
L 112.346539 282.591337 
L 115.143484 282.57966 
L 117.940428 282.567916 
L 120.737372 282.556305 
L 123.534316 282.544562 
L 126.331261 282.532886 
L 129.128205 282.521208 
L 131.925149 282.50953 
L 134.722093 282.497877 
L 137.519037 282.486386 
L 140.315982 282.474783 
L 143.112926 282.463057 
L 145.90987 282.451624 
L 148.706814 282.440039 
L 151.503759 282.428519 
L 154.300703 282.417032 
L 157.097647 282.405357 
L 159.894591 282.3937 
L 162.691536 282.382276 
L 165.48848 282.370586 
L 168.285424 282.359074 
L 171.082368 282.347636 
L 173.879312 282.336124 
L 176.676257 282.324574 
L 179.473201 282.312991 
L 182.270145 282.301348 
L 185.067089 282.289695 
L 187.864034 282.278255 
L 190.660978 282.266642 
L 193.457922 282.255178 
L 196.254866 282.243491 
L 199.051811 282.231974 
L 201.848755 282.220407 
L 204.645699 282.208676 
L 207.442643 282.197008 
L 210.239587 282.185415 
L 213.036532 282.174007 
L 215.833476 282.162527 
L 218.63042 282.151 
L 221.427364 282.139406 
L 224.224309 282.127779 
L 227.021253 282.116159 
L 229.818197 282.104535 
L 232.615141 282.092912 
L 235.412086 282.081191 
L 238.20903 282.069626 
L 241.005974 282.058068 
L 243.802918 282.046681 
L 246.599862 282.035161 
L 249.396807 282.023666 
L 252.193751 282.012098 
L 254.990695 282.000622 
L 257.787639 281.98912 
L 260.584584 281.977655 
L 263.381528 281.966165 
L 266.178472 281.954684 
L 268.975416 281.943106 
L 271.772361 281.931779 
L 274.569305 281.920293 
L 277.366249 281.908846 
L 280.163193 281.897406 
L 282.960138 281.885759 
L 285.757082 281.874119 
L 288.554026 281.862645 
L 291.35097 281.851218 
L 294.147914 281.83981 
L 296.944859 281.828202 
L 299.741803 281.816593 
L 302.538747 281.804937 
L 305.335691 281.793422 
L 308.132636 281.781833 
L 310.92958 281.770211 
L 313.726524 281.758578 
L 316.523468 281.746899 
L 319.320413 281.735353 
L 322.117357 281.723982 
L 324.914301 281.712536 
L 327.711245 281.700927 
L 330.508189 281.689435 
L 333.305134 281.677888 
L 336.102078 281.666542 
L 338.899022 281.655137 
L 341.695966 281.643575 
L 344.492911 281.632088 
L 347.289855 281.620613 
L 350.086799 281.609085 
L 352.883743 281.597635 
L 355.680688 281.586172 
L 358.477632 281.574714 
L 361.274576 281.563272 
L 364.07152 281.551838 
L 366.868464 281.540442 
L 369.665409 281.528823 
L 372.462353 281.517159 
L 375.259297 281.505692 
L 378.056241 281.494221 
L 380.853186 281.482738 
L 383.65013 281.471254 
L 386.447074 281.459658 
L 389.244018 281.448209 
L 392.040963 281.436747 
L 394.837907 281.425225 
L 397.634851 281.41372 
L 400.431795 281.402242 
L 403.228739 281.39081 
L 406.025684 281.379323 
L 408.822628 281.367844 
L 411.619572 281.356526 
L 414.416516 281.345009 
L 417.213461 281.333572 
L 420.010405 281.322067 
L 422.807349 281.310629 
L 425.604293 281.299087 
L 428.401238 281.287666 
L 431.198182 281.276195 
" clip-path="url(#p7c2064bfe6)" style="fill: none; stroke: #dd8452; stroke-width: 3; stroke-linecap: round"/>
   </g>
   <g id="line2d_16">
    <path d="M 98.361818 282.619034 
L 101.158762 282.617625 
L 103.955707 282.61624 
L 106.752651 282.61485 
L 109.549595 282.587788 
L 112.346539 282.560742 
L 115.143484 282.533403 
L 117.940428 282.506131 
L 120.737372 282.479169 
L 123.534316 282.451887 
L 126.331261 282.424908 
L 129.128205 282.39767 
L 131.925149 282.370607 
L 134.722093 282.343522 
L 137.519037 282.316481 
L 140.315982 282.289515 
L 143.112926 282.262227 
L 145.90987 282.235074 
L 148.706814 282.207975 
L 151.503759 282.180887 
L 154.300703 282.153707 
L 157.097647 282.126485 
L 159.894591 282.099621 
L 162.691536 282.072607 
L 165.48848 282.045552 
L 168.285424 282.018572 
L 171.082368 281.991612 
L 173.879312 281.964543 
L 176.676257 281.937487 
L 179.473201 281.910309 
L 182.270145 281.883249 
L 185.067089 281.856399 
L 187.864034 281.829542 
L 190.660978 281.802391 
L 193.457922 281.775326 
L 196.254866 281.748143 
L 199.051811 281.7207 
L 201.848755 281.693594 
L 204.645699 281.666638 
L 207.442643 281.639732 
L 210.239587 281.612895 
L 213.036532 281.585867 
L 215.833476 281.558717 
L 218.63042 281.531506 
L 221.427364 281.504628 
L 224.224309 281.477796 
L 227.021253 281.45103 
L 229.818197 281.423837 
L 232.615141 281.396825 
L 235.412086 281.369743 
L 238.20903 281.342881 
L 241.005974 281.315852 
L 243.802918 281.288865 
L 246.599862 281.261999 
L 249.396807 281.234626 
L 252.193751 281.207411 
L 254.990695 281.180003 
L 257.787639 281.152946 
L 260.584584 281.126014 
L 263.381528 281.098998 
L 266.178472 281.071959 
L 268.975416 281.044899 
L 271.772361 281.017786 
L 274.569305 280.990561 
L 277.366249 280.963599 
L 280.163193 280.936774 
L 282.960138 280.909519 
L 285.757082 280.882579 
L 288.554026 280.855714 
L 291.35097 280.82871 
L 294.147914 280.801625 
L 296.944859 280.774568 
L 299.741803 280.747606 
L 302.538747 280.720475 
L 305.335691 280.693463 
L 308.132636 280.66619 
L 310.92958 280.639055 
L 313.726524 280.611898 
L 316.523468 280.584757 
L 319.320413 280.558154 
L 322.117357 280.531184 
L 324.914301 280.504283 
L 327.711245 280.476952 
L 330.508189 280.449544 
L 333.305134 280.422456 
L 336.102078 280.395585 
L 338.899022 280.368447 
L 341.695966 280.341447 
L 344.492911 280.314451 
L 347.289855 280.28752 
L 350.086799 280.260518 
L 352.883743 280.23347 
L 355.680688 280.20648 
L 358.477632 280.179589 
L 361.274576 280.152442 
L 364.07152 280.12529 
L 366.868464 280.098286 
L 369.665409 280.071148 
L 372.462353 280.044047 
L 375.259297 280.016773 
L 378.056241 279.989892 
L 380.853186 279.962999 
L 383.65013 279.935768 
L 386.447074 279.908934 
L 389.244018 279.882347 
L 392.040963 279.855319 
L 394.837907 279.828491 
L 397.634851 279.801679 
L 400.431795 279.774481 
L 403.228739 279.747609 
L 406.025684 279.72056 
L 408.822628 279.693682 
L 411.619572 279.666701 
L 414.416516 279.639827 
L 417.213461 279.61285 
L 420.010405 279.586057 
L 422.807349 279.559144 
L 425.604293 279.532121 
L 428.401238 279.505374 
L 431.198182 279.478561 
" clip-path="url(#p7c2064bfe6)" style="fill: none; stroke: #55a868; stroke-width: 3; stroke-linecap: round"/>
   </g>
   <g id="line2d_17">
    <path d="M 98.361818 282.616217 
L 101.158762 282.611499 
L 103.955707 282.606693 
L 106.752651 282.601881 
L 109.549595 282.478735 
L 112.346539 282.352444 
L 115.143484 282.226451 
L 117.940428 282.099093 
L 120.737372 281.975136 
L 123.534316 281.850548 
L 126.331261 281.724898 
L 129.128205 281.599053 
L 131.925149 281.478752 
L 134.722093 281.356936 
L 137.519037 281.234321 
L 140.315982 281.110189 
L 143.112926 280.986069 
L 145.90987 280.860979 
L 148.706814 280.737938 
L 151.503759 280.615169 
L 154.300703 280.492835 
L 157.097647 280.369522 
L 159.894591 280.24668 
L 162.691536 280.124294 
L 165.48848 280.0064 
L 168.285424 279.885934 
L 171.082368 279.765451 
L 173.879312 279.644095 
L 176.676257 279.523046 
L 179.473201 279.400541 
L 182.270145 279.278305 
L 185.067089 279.155679 
L 187.864034 279.033588 
L 190.660978 278.910636 
L 193.457922 278.788048 
L 196.254866 278.663501 
L 199.051811 278.544182 
L 201.848755 278.423578 
L 204.645699 278.30184 
L 207.442643 278.179942 
L 210.239587 278.057981 
L 213.036532 277.935505 
L 215.833476 277.814265 
L 218.63042 277.69183 
L 221.427364 277.569009 
L 224.224309 277.446034 
L 227.021253 277.322681 
L 229.818197 277.199578 
L 232.615141 277.080359 
L 235.412086 276.958751 
L 238.20903 276.836841 
L 241.005974 276.714987 
L 243.802918 276.593745 
L 246.599862 276.471068 
L 249.396807 276.348168 
L 252.193751 276.225321 
L 254.990695 276.101881 
L 257.787639 275.978386 
L 260.584584 275.855427 
L 263.381528 275.731599 
L 266.178472 275.613328 
L 268.975416 275.492512 
L 271.772361 275.371296 
L 274.569305 275.249529 
L 277.366249 275.126899 
L 280.163193 275.003853 
L 282.960138 274.88134 
L 285.757082 274.758399 
L 288.554026 274.636015 
L 291.35097 274.512631 
L 294.147914 274.389287 
L 296.944859 274.265637 
L 299.741803 274.147259 
L 302.538747 274.026926 
L 305.335691 273.905996 
L 308.132636 273.783832 
L 310.92958 273.661519 
L 313.726524 273.538421 
L 316.523468 273.415187 
L 319.320413 273.291623 
L 322.117357 273.169814 
L 324.914301 273.046032 
L 327.711245 272.921787 
L 330.508189 272.797143 
L 333.305134 272.678056 
L 336.102078 272.557764 
L 338.899022 272.436644 
L 341.695966 272.31448 
L 344.492911 272.191514 
L 347.289855 272.069081 
L 350.086799 271.945641 
L 352.883743 271.822274 
L 355.680688 271.699334 
L 358.477632 271.576828 
L 361.274576 271.453224 
L 364.07152 271.329491 
L 366.868464 271.210392 
L 369.665409 271.089541 
L 372.462353 270.968416 
L 375.259297 270.847304 
L 378.056241 270.724483 
L 380.853186 270.601521 
L 383.65013 270.478706 
L 386.447074 270.355579 
L 389.244018 270.232786 
L 392.040963 270.1095 
L 394.837907 269.986988 
L 397.634851 269.863128 
L 400.431795 269.743661 
L 403.228739 269.622895 
L 406.025684 269.50116 
L 408.822628 269.379054 
L 411.619572 269.257302 
L 414.416516 269.13423 
L 417.213461 269.011369 
L 420.010405 268.887816 
L 422.807349 268.765064 
L 425.604293 268.641056 
L 428.401238 268.5175 
L 431.198182 268.393835 
" clip-path="url(#p7c2064bfe6)" style="fill: none; stroke: #c44e52; stroke-width: 3; stroke-linecap: round"/>
   </g>
   <g id="patch_3">
    <path d="M 81.72 294.66 
L 81.72 29.76 
" style="fill: none; stroke: #ffffff; stroke-width: 1.25; stroke-linejoin: miter; stroke-linecap: square"/>
   </g>
   <g id="patch_4">
    <path d="M 447.84 294.66 
L 447.84 29.76 
" style="fill: none; stroke: #ffffff; stroke-width: 1.25; stroke-linejoin: miter; stroke-linecap: square"/>
   </g>
   <g id="patch_5">
    <path d="M 81.72 294.66 
L 447.84 294.66 
" style="fill: none; stroke: #ffffff; stroke-width: 1.25; stroke-linejoin: miter; stroke-linecap: square"/>
   </g>
   <g id="patch_6">
    <path d="M 81.72 29.76 
L 447.84 29.76 
" style="fill: none; stroke: #ffffff; stroke-width: 1.25; stroke-linejoin: miter; stroke-linecap: square"/>
   </g>
   <g id="text_16">
    <!-- zinc-coating-v0 -->
    <g style="fill: #262626" transform="translate(211.421406 23.76)scale(0.14 -0.14)">
     <defs>
      <path id="DejaVuSans-7a" d="M 353 3500 
L 3084 3500 
L 3084 2975 
L 922 459 
L 3084 459 
L 3084 0 
L 275 0 
L 275 525 
L 2438 3041 
L 353 3041 
L 353 3500 
z
" transform="scale(0.015625)"/>
      <path id="DejaVuSans-63" d="M 3122 3366 
L 3122 2828 
Q 2878 2963 2633 3030 
Q 2388 3097 2138 3097 
Q 1578 3097 1268 2742 
Q 959 2388 959 1747 
Q 959 1106 1268 751 
Q 1578 397 2138 397 
Q 2388 397 2633 464 
Q 2878 531 3122 666 
L 3122 134 
Q 2881 22 2623 -34 
Q 2366 -91 2075 -91 
Q 1284 -91 818 406 
Q 353 903 353 1747 
Q 353 2603 823 3093 
Q 1294 3584 2113 3584 
Q 2378 3584 2631 3529 
Q 2884 3475 3122 3366 
z
" transform="scale(0.015625)"/>
      <path id="DejaVuSans-2d" d="M 313 2009 
L 1997 2009 
L 1997 1497 
L 313 1497 
L 313 2009 
z
" transform="scale(0.015625)"/>
      <path id="DejaVuSans-67" d="M 2906 1791 
Q 2906 2416 2648 2759 
Q 2391 3103 1925 3103 
Q 1463 3103 1205 2759 
Q 947 2416 947 1791 
Q 947 1169 1205 825 
Q 1463 481 1925 481 
Q 2391 481 2648 825 
Q 2906 1169 2906 1791 
z
M 3481 434 
Q 3481 -459 3084 -895 
Q 2688 -1331 1869 -1331 
Q 1566 -1331 1297 -1286 
Q 1028 -1241 775 -1147 
L 775 -588 
Q 1028 -725 1275 -790 
Q 1522 -856 1778 -856 
Q 2344 -856 2625 -561 
Q 2906 -266 2906 331 
L 2906 616 
Q 2728 306 2450 153 
Q 2172 0 1784 0 
Q 1141 0 747 490 
Q 353 981 353 1791 
Q 353 2603 747 3093 
Q 1141 3584 1784 3584 
Q 2172 3584 2450 3431 
Q 2728 3278 2906 2969 
L 2906 3500 
L 3481 3500 
L 3481 434 
z
" transform="scale(0.015625)"/>
      <path id="DejaVuSans-76" d="M 191 3500 
L 800 3500 
L 1894 563 
L 2988 3500 
L 3597 3500 
L 2284 0 
L 1503 0 
L 191 3500 
z
" transform="scale(0.015625)"/>
     </defs>
     <use xlink:href="#DejaVuSans-7a"/>
     <use xlink:href="#DejaVuSans-69" x="52.490234"/>
     <use xlink:href="#DejaVuSans-6e" x="80.273438"/>
     <use xlink:href="#DejaVuSans-63" x="143.652344"/>
     <use xlink:href="#DejaVuSans-2d" x="198.632812"/>
     <use xlink:href="#DejaVuSans-63" x="234.716797"/>
     <use xlink:href="#DejaVuSans-6f" x="289.697266"/>
     <use xlink:href="#DejaVuSans-61" x="350.878906"/>
     <use xlink:href="#DejaVuSans-74" x="412.158203"/>
     <use xlink:href="#DejaVuSans-69" x="451.367188"/>
     <use xlink:href="#DejaVuSans-6e" x="479.150391"/>
     <use xlink:href="#DejaVuSans-67" x="542.529297"/>
     <use xlink:href="#DejaVuSans-2d" x="606.005859"/>
     <use xlink:href="#DejaVuSans-76" x="639.464844"/>
     <use xlink:href="#DejaVuSans-30" x="698.644531"/>
    </g>
   </g>
   <g id="legend_1">
    <g id="patch_7">
     <path d="M 89.42 103.14375 
L 237.247969 103.14375 
Q 239.447969 103.14375 239.447969 100.94375 
L 239.447969 37.46 
Q 239.447969 35.26 237.247969 35.26 
L 89.42 35.26 
Q 87.22 35.26 87.22 37.46 
L 87.22 100.94375 
Q 87.22 103.14375 89.42 103.14375 
z
" style="fill: #eaeaf2; opacity: 0.8; stroke: #cccccc; stroke-linejoin: miter"/>
    </g>
    <g id="line2d_18">
     <path d="M 91.62 44.168281 
L 102.62 44.168281 
L 113.62 44.168281 
" style="fill: none; stroke: #4c72b0; stroke-width: 3; stroke-linecap: round"/>
    </g>
    <g id="text_17">
     <!-- DATS-DELAY-20 -->
     <g style="fill: #262626" transform="translate(122.42 48.018281)scale(0.11 -0.11)">
      <defs>
       <path id="DejaVuSans-44" d="M 1259 4147 
L 1259 519 
L 2022 519 
Q 2988 519 3436 956 
Q 3884 1394 3884 2338 
Q 3884 3275 3436 3711 
Q 2988 4147 2022 4147 
L 1259 4147 
z
M 628 4666 
L 1925 4666 
Q 3281 4666 3915 4102 
Q 4550 3538 4550 2338 
Q 4550 1131 3912 565 
Q 3275 0 1925 0 
L 628 0 
L 628 4666 
z
" transform="scale(0.015625)"/>
       <path id="DejaVuSans-41" d="M 2188 4044 
L 1331 1722 
L 3047 1722 
L 2188 4044 
z
M 1831 4666 
L 2547 4666 
L 4325 0 
L 3669 0 
L 3244 1197 
L 1141 1197 
L 716 0 
L 50 0 
L 1831 4666 
z
" transform="scale(0.015625)"/>
       <path id="DejaVuSans-53" d="M 3425 4513 
L 3425 3897 
Q 3066 4069 2747 4153 
Q 2428 4238 2131 4238 
Q 1616 4238 1336 4038 
Q 1056 3838 1056 3469 
Q 1056 3159 1242 3001 
Q 1428 2844 1947 2747 
L 2328 2669 
Q 3034 2534 3370 2195 
Q 3706 1856 3706 1288 
Q 3706 609 3251 259 
Q 2797 -91 1919 -91 
Q 1588 -91 1214 -16 
Q 841 59 441 206 
L 441 856 
Q 825 641 1194 531 
Q 1563 422 1919 422 
Q 2459 422 2753 634 
Q 3047 847 3047 1241 
Q 3047 1584 2836 1778 
Q 2625 1972 2144 2069 
L 1759 2144 
Q 1053 2284 737 2584 
Q 422 2884 422 3419 
Q 422 4038 858 4394 
Q 1294 4750 2059 4750 
Q 2388 4750 2728 4690 
Q 3069 4631 3425 4513 
z
" transform="scale(0.015625)"/>
       <path id="DejaVuSans-45" d="M 628 4666 
L 3578 4666 
L 3578 4134 
L 1259 4134 
L 1259 2753 
L 3481 2753 
L 3481 2222 
L 1259 2222 
L 1259 531 
L 3634 531 
L 3634 0 
L 628 0 
L 628 4666 
z
" transform="scale(0.015625)"/>
       <path id="DejaVuSans-4c" d="M 628 4666 
L 1259 4666 
L 1259 531 
L 3531 531 
L 3531 0 
L 628 0 
L 628 4666 
z
" transform="scale(0.015625)"/>
       <path id="DejaVuSans-59" d="M -13 4666 
L 666 4666 
L 1959 2747 
L 3244 4666 
L 3922 4666 
L 2272 2222 
L 2272 0 
L 1638 0 
L 1638 2222 
L -13 4666 
z
" transform="scale(0.015625)"/>
      </defs>
      <use xlink:href="#DejaVuSans-44"/>
      <use xlink:href="#DejaVuSans-41" x="75.251953"/>
      <use xlink:href="#DejaVuSans-54" x="135.910156"/>
      <use xlink:href="#DejaVuSans-53" x="196.994141"/>
      <use xlink:href="#DejaVuSans-2d" x="260.470703"/>
      <use xlink:href="#DejaVuSans-44" x="296.554688"/>
      <use xlink:href="#DejaVuSans-45" x="373.556641"/>
      <use xlink:href="#DejaVuSans-4c" x="436.740234"/>
      <use xlink:href="#DejaVuSans-41" x="494.703125"/>
      <use xlink:href="#DejaVuSans-59" x="555.361328"/>
      <use xlink:href="#DejaVuSans-2d" x="604.570312"/>
      <use xlink:href="#DejaVuSans-32" x="640.654297"/>
      <use xlink:href="#DejaVuSans-30" x="704.277344"/>
     </g>
    </g>
    <g id="line2d_19">
     <path d="M 91.62 60.314219 
L 102.62 60.314219 
L 113.62 60.314219 
" style="fill: none; stroke: #dd8452; stroke-width: 3; stroke-linecap: round"/>
    </g>
    <g id="text_18">
     <!-- SAC-DELAY-20 -->
     <g style="fill: #262626" transform="translate(122.42 64.164219)scale(0.11 -0.11)">
      <defs>
       <path id="DejaVuSans-43" d="M 4122 4306 
L 4122 3641 
Q 3803 3938 3442 4084 
Q 3081 4231 2675 4231 
Q 1875 4231 1450 3742 
Q 1025 3253 1025 2328 
Q 1025 1406 1450 917 
Q 1875 428 2675 428 
Q 3081 428 3442 575 
Q 3803 722 4122 1019 
L 4122 359 
Q 3791 134 3420 21 
Q 3050 -91 2638 -91 
Q 1578 -91 968 557 
Q 359 1206 359 2328 
Q 359 3453 968 4101 
Q 1578 4750 2638 4750 
Q 3056 4750 3426 4639 
Q 3797 4528 4122 4306 
z
" transform="scale(0.015625)"/>
      </defs>
      <use xlink:href="#DejaVuSans-53"/>
      <use xlink:href="#DejaVuSans-41" x="65.351562"/>
      <use xlink:href="#DejaVuSans-43" x="132.009766"/>
      <use xlink:href="#DejaVuSans-2d" x="201.833984"/>
      <use xlink:href="#DejaVuSans-44" x="237.917969"/>
      <use xlink:href="#DejaVuSans-45" x="314.919922"/>
      <use xlink:href="#DejaVuSans-4c" x="378.103516"/>
      <use xlink:href="#DejaVuSans-41" x="436.066406"/>
      <use xlink:href="#DejaVuSans-59" x="496.724609"/>
      <use xlink:href="#DejaVuSans-2d" x="545.933594"/>
      <use xlink:href="#DejaVuSans-32" x="582.017578"/>
      <use xlink:href="#DejaVuSans-30" x="645.640625"/>
     </g>
    </g>
    <g id="line2d_20">
     <path d="M 91.62 76.460156 
L 102.62 76.460156 
L 113.62 76.460156 
" style="fill: none; stroke: #55a868; stroke-width: 3; stroke-linecap: round"/>
    </g>
    <g id="text_19">
     <!-- SAC-IS-DELAY-20 -->
     <g style="fill: #262626" transform="translate(122.42 80.310156)scale(0.11 -0.11)">
      <defs>
       <path id="DejaVuSans-49" d="M 628 4666 
L 1259 4666 
L 1259 0 
L 628 0 
L 628 4666 
z
" transform="scale(0.015625)"/>
      </defs>
      <use xlink:href="#DejaVuSans-53"/>
      <use xlink:href="#DejaVuSans-41" x="65.351562"/>
      <use xlink:href="#DejaVuSans-43" x="132.009766"/>
      <use xlink:href="#DejaVuSans-2d" x="201.833984"/>
      <use xlink:href="#DejaVuSans-49" x="237.917969"/>
      <use xlink:href="#DejaVuSans-53" x="267.410156"/>
      <use xlink:href="#DejaVuSans-2d" x="330.886719"/>
      <use xlink:href="#DejaVuSans-44" x="366.970703"/>
      <use xlink:href="#DejaVuSans-45" x="443.972656"/>
      <use xlink:href="#DejaVuSans-4c" x="507.15625"/>
      <use xlink:href="#DejaVuSans-41" x="565.119141"/>
      <use xlink:href="#DejaVuSans-59" x="625.777344"/>
      <use xlink:href="#DejaVuSans-2d" x="674.986328"/>
      <use xlink:href="#DejaVuSans-32" x="711.070312"/>
      <use xlink:href="#DejaVuSans-30" x="774.693359"/>
     </g>
    </g>
    <g id="line2d_21">
     <path d="M 91.62 92.606094 
L 102.62 92.606094 
L 113.62 92.606094 
" style="fill: none; stroke: #c44e52; stroke-width: 3; stroke-linecap: round"/>
    </g>
    <g id="text_20">
     <!-- DCAC-DELAY-20-16C -->
     <g style="fill: #262626" transform="translate(122.42 96.456094)scale(0.11 -0.11)">
      <use xlink:href="#DejaVuSans-44"/>
      <use xlink:href="#DejaVuSans-43" x="77.001953"/>
      <use xlink:href="#DejaVuSans-41" x="146.826172"/>
      <use xlink:href="#DejaVuSans-43" x="213.484375"/>
      <use xlink:href="#DejaVuSans-2d" x="283.308594"/>
      <use xlink:href="#DejaVuSans-44" x="319.392578"/>
      <use xlink:href="#DejaVuSans-45" x="396.394531"/>
      <use xlink:href="#DejaVuSans-4c" x="459.578125"/>
      <use xlink:href="#DejaVuSans-41" x="517.541016"/>
      <use xlink:href="#DejaVuSans-59" x="578.199219"/>
      <use xlink:href="#DejaVuSans-2d" x="627.408203"/>
      <use xlink:href="#DejaVuSans-32" x="663.492188"/>
      <use xlink:href="#DejaVuSans-30" x="727.115234"/>
      <use xlink:href="#DejaVuSans-2d" x="790.738281"/>
      <use xlink:href="#DejaVuSans-31" x="826.822266"/>
      <use xlink:href="#DejaVuSans-36" x="890.445312"/>
      <use xlink:href="#DejaVuSans-43" x="954.068359"/>
     </g>
    </g>
   </g>
  </g>
 </g>
 <defs>
  <clipPath id="p7c2064bfe6">
   <rect x="81.72" y="29.76" width="366.12" height="264.9"/>
  </clipPath>
 </defs>
</svg>
