<?xml version="1.0" encoding="utf-8" standalone="no"?>
<!DOCTYPE svg PUBLIC "-//W3C//DTD SVG 1.1//EN"
  "http://www.w3.org/Graphics/SVG/1.1/DTD/svg11.dtd">
<svg xmlns:xlink="http://www.w3.org/1999/xlink" width="460.8pt" height="345.6pt" viewBox="0 0 460.8 345.6" xmlns="http://www.w3.org/2000/svg" version="1.1">
 <metadata>
  <rdf:RDF xmlns:dc="http://purl.org/dc/elements/1.1/" xmlns:cc="http://creativecommons.org/ns#" xmlns:rdf="http://www.w3.org/1999/02/22-rdf-syntax-ns#">
   <cc:Work>
    <dc:type rdf:resource="http://purl.org/dc/dcmitype/StillImage"/>
    <dc:date>2022-09-10T15:50:37.830450</dc:date>
    <dc:format>image/svg+xml</dc:format>
    <dc:creator>
     <cc:Agent>
      <dc:title>Matplotlib v3.5.3, https://matplotlib.org/</dc:title>
     </cc:Agent>
    </dc:creator>
   </cc:Work>
  </rdf:RDF>
 </metadata>
 <defs>
  <style type="text/css">*{stroke-linejoin: round; stroke-linecap: butt}</style>
 </defs>
 <g id="figure_1">
  <g id="patch_1">
   <path d="M 0 345.6 
L 460.8 345.6 
L 460.8 0 
L 0 0 
z
" style="fill: #ffffff"/>
  </g>
  <g id="axes_1">
   <g id="patch_2">
    <path d="M 74.88 294.66 
L 447.84 294.66 
L 447.84 29.76 
L 74.88 29.76 
z
" style="fill: #eaeaf2"/>
   </g>
   <g id="matplotlib.axis_1">
    <g id="xtick_1">
     <g id="line2d_1">
      <path d="M 88.983529 294.66 
L 88.983529 29.76 
" clip-path="url(#p1c92cd9f2a)" style="fill: none; stroke: #ffffff; stroke-linecap: round"/>
     </g>
     <g id="text_1">
      <!-- 0.00 -->
      <g style="fill: #262626" transform="translate(76.737436 312.518281)scale(0.11 -0.11)">
       <defs>
        <path id="DejaVuSans-30" d="M 2034 4250 
Q 1547 4250 1301 3770 
Q 1056 3291 1056 2328 
Q 1056 1369 1301 889 
Q 1547 409 2034 409 
Q 2525 409 2770 889 
Q 3016 1369 3016 2328 
Q 3016 3291 2770 3770 
Q 2525 4250 2034 4250 
z
M 2034 4750 
Q 2819 4750 3233 4129 
Q 3647 3509 3647 2328 
Q 3647 1150 3233 529 
Q 2819 -91 2034 -91 
Q 1250 -91 836 529 
Q 422 1150 422 2328 
Q 422 3509 836 4129 
Q 1250 4750 2034 4750 
z
" transform="scale(0.015625)"/>
        <path id="DejaVuSans-2e" d="M 684 794 
L 1344 794 
L 1344 0 
L 684 0 
L 684 794 
z
" transform="scale(0.015625)"/>
       </defs>
       <use xlink:href="#DejaVuSans-30"/>
       <use xlink:href="#DejaVuSans-2e" x="63.623047"/>
       <use xlink:href="#DejaVuSans-30" x="95.410156"/>
       <use xlink:href="#DejaVuSans-30" x="159.033203"/>
      </g>
     </g>
    </g>
    <g id="xtick_2">
     <g id="line2d_2">
      <path d="M 145.967487 294.66 
L 145.967487 29.76 
" clip-path="url(#p1c92cd9f2a)" style="fill: none; stroke: #ffffff; stroke-linecap: round"/>
     </g>
     <g id="text_2">
      <!-- 0.05 -->
      <g style="fill: #262626" transform="translate(133.721393 312.518281)scale(0.11 -0.11)">
       <defs>
        <path id="DejaVuSans-35" d="M 691 4666 
L 3169 4666 
L 3169 4134 
L 1269 4134 
L 1269 2991 
Q 1406 3038 1543 3061 
Q 1681 3084 1819 3084 
Q 2600 3084 3056 2656 
Q 3513 2228 3513 1497 
Q 3513 744 3044 326 
Q 2575 -91 1722 -91 
Q 1428 -91 1123 -41 
Q 819 9 494 109 
L 494 744 
Q 775 591 1075 516 
Q 1375 441 1709 441 
Q 2250 441 2565 725 
Q 2881 1009 2881 1497 
Q 2881 1984 2565 2268 
Q 2250 2553 1709 2553 
Q 1456 2553 1204 2497 
Q 953 2441 691 2322 
L 691 4666 
z
" transform="scale(0.015625)"/>
       </defs>
       <use xlink:href="#DejaVuSans-30"/>
       <use xlink:href="#DejaVuSans-2e" x="63.623047"/>
       <use xlink:href="#DejaVuSans-30" x="95.410156"/>
       <use xlink:href="#DejaVuSans-35" x="159.033203"/>
      </g>
     </g>
    </g>
    <g id="xtick_3">
     <g id="line2d_3">
      <path d="M 202.951444 294.66 
L 202.951444 29.76 
" clip-path="url(#p1c92cd9f2a)" style="fill: none; stroke: #ffffff; stroke-linecap: round"/>
     </g>
     <g id="text_3">
      <!-- 0.10 -->
      <g style="fill: #262626" transform="translate(190.70535 312.518281)scale(0.11 -0.11)">
       <defs>
        <path id="DejaVuSans-31" d="M 794 531 
L 1825 531 
L 1825 4091 
L 703 3866 
L 703 4441 
L 1819 4666 
L 2450 4666 
L 2450 531 
L 3481 531 
L 3481 0 
L 794 0 
L 794 531 
z
" transform="scale(0.015625)"/>
       </defs>
       <use xlink:href="#DejaVuSans-30"/>
       <use xlink:href="#DejaVuSans-2e" x="63.623047"/>
       <use xlink:href="#DejaVuSans-31" x="95.410156"/>
       <use xlink:href="#DejaVuSans-30" x="159.033203"/>
      </g>
     </g>
    </g>
    <g id="xtick_4">
     <g id="line2d_4">
      <path d="M 259.935401 294.66 
L 259.935401 29.76 
" clip-path="url(#p1c92cd9f2a)" style="fill: none; stroke: #ffffff; stroke-linecap: round"/>
     </g>
     <g id="text_4">
      <!-- 0.15 -->
      <g style="fill: #262626" transform="translate(247.689307 312.518281)scale(0.11 -0.11)">
       <use xlink:href="#DejaVuSans-30"/>
       <use xlink:href="#DejaVuSans-2e" x="63.623047"/>
       <use xlink:href="#DejaVuSans-31" x="95.410156"/>
       <use xlink:href="#DejaVuSans-35" x="159.033203"/>
      </g>
     </g>
    </g>
    <g id="xtick_5">
     <g id="line2d_5">
      <path d="M 316.919358 294.66 
L 316.919358 29.76 
" clip-path="url(#p1c92cd9f2a)" style="fill: none; stroke: #ffffff; stroke-linecap: round"/>
     </g>
     <g id="text_5">
      <!-- 0.20 -->
      <g style="fill: #262626" transform="translate(304.673265 312.518281)scale(0.11 -0.11)">
       <defs>
        <path id="DejaVuSans-32" d="M 1228 531 
L 3431 531 
L 3431 0 
L 469 0 
L 469 531 
Q 828 903 1448 1529 
Q 2069 2156 2228 2338 
Q 2531 2678 2651 2914 
Q 2772 3150 2772 3378 
Q 2772 3750 2511 3984 
Q 2250 4219 1831 4219 
Q 1534 4219 1204 4116 
Q 875 4013 500 3803 
L 500 4441 
Q 881 4594 1212 4672 
Q 1544 4750 1819 4750 
Q 2544 4750 2975 4387 
Q 3406 4025 3406 3419 
Q 3406 3131 3298 2873 
Q 3191 2616 2906 2266 
Q 2828 2175 2409 1742 
Q 1991 1309 1228 531 
z
" transform="scale(0.015625)"/>
       </defs>
       <use xlink:href="#DejaVuSans-30"/>
       <use xlink:href="#DejaVuSans-2e" x="63.623047"/>
       <use xlink:href="#DejaVuSans-32" x="95.410156"/>
       <use xlink:href="#DejaVuSans-30" x="159.033203"/>
      </g>
     </g>
    </g>
    <g id="xtick_6">
     <g id="line2d_6">
      <path d="M 373.903316 294.66 
L 373.903316 29.76 
" clip-path="url(#p1c92cd9f2a)" style="fill: none; stroke: #ffffff; stroke-linecap: round"/>
     </g>
     <g id="text_6">
      <!-- 0.25 -->
      <g style="fill: #262626" transform="translate(361.657222 312.518281)scale(0.11 -0.11)">
       <use xlink:href="#DejaVuSans-30"/>
       <use xlink:href="#DejaVuSans-2e" x="63.623047"/>
       <use xlink:href="#DejaVuSans-32" x="95.410156"/>
       <use xlink:href="#DejaVuSans-35" x="159.033203"/>
      </g>
     </g>
    </g>
    <g id="xtick_7">
     <g id="line2d_7">
      <path d="M 430.887273 294.66 
L 430.887273 29.76 
" clip-path="url(#p1c92cd9f2a)" style="fill: none; stroke: #ffffff; stroke-linecap: round"/>
     </g>
     <g id="text_7">
      <!-- 0.30 -->
      <g style="fill: #262626" transform="translate(418.641179 312.518281)scale(0.11 -0.11)">
       <defs>
        <path id="DejaVuSans-33" d="M 2597 2516 
Q 3050 2419 3304 2112 
Q 3559 1806 3559 1356 
Q 3559 666 3084 287 
Q 2609 -91 1734 -91 
Q 1441 -91 1130 -33 
Q 819 25 488 141 
L 488 750 
Q 750 597 1062 519 
Q 1375 441 1716 441 
Q 2309 441 2620 675 
Q 2931 909 2931 1356 
Q 2931 1769 2642 2001 
Q 2353 2234 1838 2234 
L 1294 2234 
L 1294 2753 
L 1863 2753 
Q 2328 2753 2575 2939 
Q 2822 3125 2822 3475 
Q 2822 3834 2567 4026 
Q 2313 4219 1838 4219 
Q 1578 4219 1281 4162 
Q 984 4106 628 3988 
L 628 4550 
Q 988 4650 1302 4700 
Q 1616 4750 1894 4750 
Q 2613 4750 3031 4423 
Q 3450 4097 3450 3541 
Q 3450 3153 3228 2886 
Q 3006 2619 2597 2516 
z
" transform="scale(0.015625)"/>
       </defs>
       <use xlink:href="#DejaVuSans-30"/>
       <use xlink:href="#DejaVuSans-2e" x="63.623047"/>
       <use xlink:href="#DejaVuSans-33" x="95.410156"/>
       <use xlink:href="#DejaVuSans-30" x="159.033203"/>
      </g>
     </g>
    </g>
    <g id="text_8">
     <!-- Timesteps (in Million) -->
     <g style="fill: #262626" transform="translate(186.614219 329.44375)scale(0.14 -0.14)">
      <defs>
       <path id="DejaVuSans-54" d="M -19 4666 
L 3928 4666 
L 3928 4134 
L 2272 4134 
L 2272 0 
L 1638 0 
L 1638 4134 
L -19 4134 
L -19 4666 
z
" transform="scale(0.015625)"/>
       <path id="DejaVuSans-69" d="M 603 3500 
L 1178 3500 
L 1178 0 
L 603 0 
L 603 3500 
z
M 603 4863 
L 1178 4863 
L 1178 4134 
L 603 4134 
L 603 4863 
z
" transform="scale(0.015625)"/>
       <path id="DejaVuSans-6d" d="M 3328 2828 
Q 3544 3216 3844 3400 
Q 4144 3584 4550 3584 
Q 5097 3584 5394 3201 
Q 5691 2819 5691 2113 
L 5691 0 
L 5113 0 
L 5113 2094 
Q 5113 2597 4934 2840 
Q 4756 3084 4391 3084 
Q 3944 3084 3684 2787 
Q 3425 2491 3425 1978 
L 3425 0 
L 2847 0 
L 2847 2094 
Q 2847 2600 2669 2842 
Q 2491 3084 2119 3084 
Q 1678 3084 1418 2786 
Q 1159 2488 1159 1978 
L 1159 0 
L 581 0 
L 581 3500 
L 1159 3500 
L 1159 2956 
Q 1356 3278 1631 3431 
Q 1906 3584 2284 3584 
Q 2666 3584 2933 3390 
Q 3200 3197 3328 2828 
z
" transform="scale(0.015625)"/>
       <path id="DejaVuSans-65" d="M 3597 1894 
L 3597 1613 
L 953 1613 
Q 991 1019 1311 708 
Q 1631 397 2203 397 
Q 2534 397 2845 478 
Q 3156 559 3463 722 
L 3463 178 
Q 3153 47 2828 -22 
Q 2503 -91 2169 -91 
Q 1331 -91 842 396 
Q 353 884 353 1716 
Q 353 2575 817 3079 
Q 1281 3584 2069 3584 
Q 2775 3584 3186 3129 
Q 3597 2675 3597 1894 
z
M 3022 2063 
Q 3016 2534 2758 2815 
Q 2500 3097 2075 3097 
Q 1594 3097 1305 2825 
Q 1016 2553 972 2059 
L 3022 2063 
z
" transform="scale(0.015625)"/>
       <path id="DejaVuSans-73" d="M 2834 3397 
L 2834 2853 
Q 2591 2978 2328 3040 
Q 2066 3103 1784 3103 
Q 1356 3103 1142 2972 
Q 928 2841 928 2578 
Q 928 2378 1081 2264 
Q 1234 2150 1697 2047 
L 1894 2003 
Q 2506 1872 2764 1633 
Q 3022 1394 3022 966 
Q 3022 478 2636 193 
Q 2250 -91 1575 -91 
Q 1294 -91 989 -36 
Q 684 19 347 128 
L 347 722 
Q 666 556 975 473 
Q 1284 391 1588 391 
Q 1994 391 2212 530 
Q 2431 669 2431 922 
Q 2431 1156 2273 1281 
Q 2116 1406 1581 1522 
L 1381 1569 
Q 847 1681 609 1914 
Q 372 2147 372 2553 
Q 372 3047 722 3315 
Q 1072 3584 1716 3584 
Q 2034 3584 2315 3537 
Q 2597 3491 2834 3397 
z
" transform="scale(0.015625)"/>
       <path id="DejaVuSans-74" d="M 1172 4494 
L 1172 3500 
L 2356 3500 
L 2356 3053 
L 1172 3053 
L 1172 1153 
Q 1172 725 1289 603 
Q 1406 481 1766 481 
L 2356 481 
L 2356 0 
L 1766 0 
Q 1100 0 847 248 
Q 594 497 594 1153 
L 594 3053 
L 172 3053 
L 172 3500 
L 594 3500 
L 594 4494 
L 1172 4494 
z
" transform="scale(0.015625)"/>
       <path id="DejaVuSans-70" d="M 1159 525 
L 1159 -1331 
L 581 -1331 
L 581 3500 
L 1159 3500 
L 1159 2969 
Q 1341 3281 1617 3432 
Q 1894 3584 2278 3584 
Q 2916 3584 3314 3078 
Q 3713 2572 3713 1747 
Q 3713 922 3314 415 
Q 2916 -91 2278 -91 
Q 1894 -91 1617 61 
Q 1341 213 1159 525 
z
M 3116 1747 
Q 3116 2381 2855 2742 
Q 2594 3103 2138 3103 
Q 1681 3103 1420 2742 
Q 1159 2381 1159 1747 
Q 1159 1113 1420 752 
Q 1681 391 2138 391 
Q 2594 391 2855 752 
Q 3116 1113 3116 1747 
z
" transform="scale(0.015625)"/>
       <path id="DejaVuSans-20" transform="scale(0.015625)"/>
       <path id="DejaVuSans-28" d="M 1984 4856 
Q 1566 4138 1362 3434 
Q 1159 2731 1159 2009 
Q 1159 1288 1364 580 
Q 1569 -128 1984 -844 
L 1484 -844 
Q 1016 -109 783 600 
Q 550 1309 550 2009 
Q 550 2706 781 3412 
Q 1013 4119 1484 4856 
L 1984 4856 
z
" transform="scale(0.015625)"/>
       <path id="DejaVuSans-6e" d="M 3513 2113 
L 3513 0 
L 2938 0 
L 2938 2094 
Q 2938 2591 2744 2837 
Q 2550 3084 2163 3084 
Q 1697 3084 1428 2787 
Q 1159 2491 1159 1978 
L 1159 0 
L 581 0 
L 581 3500 
L 1159 3500 
L 1159 2956 
Q 1366 3272 1645 3428 
Q 1925 3584 2291 3584 
Q 2894 3584 3203 3211 
Q 3513 2838 3513 2113 
z
" transform="scale(0.015625)"/>
       <path id="DejaVuSans-4d" d="M 628 4666 
L 1569 4666 
L 2759 1491 
L 3956 4666 
L 4897 4666 
L 4897 0 
L 4281 0 
L 4281 4097 
L 3078 897 
L 2444 897 
L 1241 4097 
L 1241 0 
L 628 0 
L 628 4666 
z
" transform="scale(0.015625)"/>
       <path id="DejaVuSans-6c" d="M 603 4863 
L 1178 4863 
L 1178 0 
L 603 0 
L 603 4863 
z
" transform="scale(0.015625)"/>
       <path id="DejaVuSans-6f" d="M 1959 3097 
Q 1497 3097 1228 2736 
Q 959 2375 959 1747 
Q 959 1119 1226 758 
Q 1494 397 1959 397 
Q 2419 397 2687 759 
Q 2956 1122 2956 1747 
Q 2956 2369 2687 2733 
Q 2419 3097 1959 3097 
z
M 1959 3584 
Q 2709 3584 3137 3096 
Q 3566 2609 3566 1747 
Q 3566 888 3137 398 
Q 2709 -91 1959 -91 
Q 1206 -91 779 398 
Q 353 888 353 1747 
Q 353 2609 779 3096 
Q 1206 3584 1959 3584 
z
" transform="scale(0.015625)"/>
       <path id="DejaVuSans-29" d="M 513 4856 
L 1013 4856 
Q 1481 4119 1714 3412 
Q 1947 2706 1947 2009 
Q 1947 1309 1714 600 
Q 1481 -109 1013 -844 
L 513 -844 
Q 928 -128 1133 580 
Q 1338 1288 1338 2009 
Q 1338 2731 1133 3434 
Q 928 4138 513 4856 
z
" transform="scale(0.015625)"/>
      </defs>
      <use xlink:href="#DejaVuSans-54"/>
      <use xlink:href="#DejaVuSans-69" x="57.958984"/>
      <use xlink:href="#DejaVuSans-6d" x="85.742188"/>
      <use xlink:href="#DejaVuSans-65" x="183.154297"/>
      <use xlink:href="#DejaVuSans-73" x="244.677734"/>
      <use xlink:href="#DejaVuSans-74" x="296.777344"/>
      <use xlink:href="#DejaVuSans-65" x="335.986328"/>
      <use xlink:href="#DejaVuSans-70" x="397.509766"/>
      <use xlink:href="#DejaVuSans-73" x="460.986328"/>
      <use xlink:href="#DejaVuSans-20" x="513.085938"/>
      <use xlink:href="#DejaVuSans-28" x="544.873047"/>
      <use xlink:href="#DejaVuSans-69" x="583.886719"/>
      <use xlink:href="#DejaVuSans-6e" x="611.669922"/>
      <use xlink:href="#DejaVuSans-20" x="675.048828"/>
      <use xlink:href="#DejaVuSans-4d" x="706.835938"/>
      <use xlink:href="#DejaVuSans-69" x="793.115234"/>
      <use xlink:href="#DejaVuSans-6c" x="820.898438"/>
      <use xlink:href="#DejaVuSans-6c" x="848.681641"/>
      <use xlink:href="#DejaVuSans-69" x="876.464844"/>
      <use xlink:href="#DejaVuSans-6f" x="904.248047"/>
      <use xlink:href="#DejaVuSans-6e" x="965.429688"/>
      <use xlink:href="#DejaVuSans-29" x="1028.808594"/>
     </g>
    </g>
   </g>
   <g id="matplotlib.axis_2">
    <g id="ytick_1">
     <g id="line2d_8">
      <path d="M 74.88 282.623332 
L 447.84 282.623332 
" clip-path="url(#p1c92cd9f2a)" style="fill: none; stroke: #ffffff; stroke-linecap: round"/>
     </g>
     <g id="text_9">
      <!-- 0 -->
      <g style="fill: #262626" transform="translate(58.38125 286.802472)scale(0.11 -0.11)">
       <use xlink:href="#DejaVuSans-30"/>
      </g>
     </g>
    </g>
    <g id="ytick_2">
     <g id="line2d_9">
      <path d="M 74.88 243.313309 
L 447.84 243.313309 
" clip-path="url(#p1c92cd9f2a)" style="fill: none; stroke: #ffffff; stroke-linecap: round"/>
     </g>
     <g id="text_10">
      <!-- 5000 -->
      <g style="fill: #262626" transform="translate(37.385 247.492449)scale(0.11 -0.11)">
       <use xlink:href="#DejaVuSans-35"/>
       <use xlink:href="#DejaVuSans-30" x="63.623047"/>
       <use xlink:href="#DejaVuSans-30" x="127.246094"/>
       <use xlink:href="#DejaVuSans-30" x="190.869141"/>
      </g>
     </g>
    </g>
    <g id="ytick_3">
     <g id="line2d_10">
      <path d="M 74.88 204.003285 
L 447.84 204.003285 
" clip-path="url(#p1c92cd9f2a)" style="fill: none; stroke: #ffffff; stroke-linecap: round"/>
     </g>
     <g id="text_11">
      <!-- 10000 -->
      <g style="fill: #262626" transform="translate(30.38625 208.182426)scale(0.11 -0.11)">
       <use xlink:href="#DejaVuSans-31"/>
       <use xlink:href="#DejaVuSans-30" x="63.623047"/>
       <use xlink:href="#DejaVuSans-30" x="127.246094"/>
       <use xlink:href="#DejaVuSans-30" x="190.869141"/>
       <use xlink:href="#DejaVuSans-30" x="254.492188"/>
      </g>
     </g>
    </g>
    <g id="ytick_4">
     <g id="line2d_11">
      <path d="M 74.88 164.693262 
L 447.84 164.693262 
" clip-path="url(#p1c92cd9f2a)" style="fill: none; stroke: #ffffff; stroke-linecap: round"/>
     </g>
     <g id="text_12">
      <!-- 15000 -->
      <g style="fill: #262626" transform="translate(30.38625 168.872403)scale(0.11 -0.11)">
       <use xlink:href="#DejaVuSans-31"/>
       <use xlink:href="#DejaVuSans-35" x="63.623047"/>
       <use xlink:href="#DejaVuSans-30" x="127.246094"/>
       <use xlink:href="#DejaVuSans-30" x="190.869141"/>
       <use xlink:href="#DejaVuSans-30" x="254.492188"/>
      </g>
     </g>
    </g>
    <g id="ytick_5">
     <g id="line2d_12">
      <path d="M 74.88 125.383239 
L 447.84 125.383239 
" clip-path="url(#p1c92cd9f2a)" style="fill: none; stroke: #ffffff; stroke-linecap: round"/>
     </g>
     <g id="text_13">
      <!-- 20000 -->
      <g style="fill: #262626" transform="translate(30.38625 129.56238)scale(0.11 -0.11)">
       <use xlink:href="#DejaVuSans-32"/>
       <use xlink:href="#DejaVuSans-30" x="63.623047"/>
       <use xlink:href="#DejaVuSans-30" x="127.246094"/>
       <use xlink:href="#DejaVuSans-30" x="190.869141"/>
       <use xlink:href="#DejaVuSans-30" x="254.492188"/>
      </g>
     </g>
    </g>
    <g id="ytick_6">
     <g id="line2d_13">
      <path d="M 74.88 86.073216 
L 447.84 86.073216 
" clip-path="url(#p1c92cd9f2a)" style="fill: none; stroke: #ffffff; stroke-linecap: round"/>
     </g>
     <g id="text_14">
      <!-- 25000 -->
      <g style="fill: #262626" transform="translate(30.38625 90.252356)scale(0.11 -0.11)">
       <use xlink:href="#DejaVuSans-32"/>
       <use xlink:href="#DejaVuSans-35" x="63.623047"/>
       <use xlink:href="#DejaVuSans-30" x="127.246094"/>
       <use xlink:href="#DejaVuSans-30" x="190.869141"/>
       <use xlink:href="#DejaVuSans-30" x="254.492188"/>
      </g>
     </g>
    </g>
    <g id="ytick_7">
     <g id="line2d_14">
      <path d="M 74.88 46.763193 
L 447.84 46.763193 
" clip-path="url(#p1c92cd9f2a)" style="fill: none; stroke: #ffffff; stroke-linecap: round"/>
     </g>
     <g id="text_15">
      <!-- 30000 -->
      <g style="fill: #262626" transform="translate(30.38625 50.942333)scale(0.11 -0.11)">
       <use xlink:href="#DejaVuSans-33"/>
       <use xlink:href="#DejaVuSans-30" x="63.623047"/>
       <use xlink:href="#DejaVuSans-30" x="127.246094"/>
       <use xlink:href="#DejaVuSans-30" x="190.869141"/>
       <use xlink:href="#DejaVuSans-30" x="254.492188"/>
      </g>
     </g>
    </g>
    <g id="text_16">
     <!-- Traintime -->
     <g style="fill: #262626" transform="translate(23.474687 194.815781)rotate(-90)scale(0.14 -0.14)">
      <defs>
       <path id="DejaVuSans-72" d="M 2631 2963 
Q 2534 3019 2420 3045 
Q 2306 3072 2169 3072 
Q 1681 3072 1420 2755 
Q 1159 2438 1159 1844 
L 1159 0 
L 581 0 
L 581 3500 
L 1159 3500 
L 1159 2956 
Q 1341 3275 1631 3429 
Q 1922 3584 2338 3584 
Q 2397 3584 2469 3576 
Q 2541 3569 2628 3553 
L 2631 2963 
z
" transform="scale(0.015625)"/>
       <path id="DejaVuSans-61" d="M 2194 1759 
Q 1497 1759 1228 1600 
Q 959 1441 959 1056 
Q 959 750 1161 570 
Q 1363 391 1709 391 
Q 2188 391 2477 730 
Q 2766 1069 2766 1631 
L 2766 1759 
L 2194 1759 
z
M 3341 1997 
L 3341 0 
L 2766 0 
L 2766 531 
Q 2569 213 2275 61 
Q 1981 -91 1556 -91 
Q 1019 -91 701 211 
Q 384 513 384 1019 
Q 384 1609 779 1909 
Q 1175 2209 1959 2209 
L 2766 2209 
L 2766 2266 
Q 2766 2663 2505 2880 
Q 2244 3097 1772 3097 
Q 1472 3097 1187 3025 
Q 903 2953 641 2809 
L 641 3341 
Q 956 3463 1253 3523 
Q 1550 3584 1831 3584 
Q 2591 3584 2966 3190 
Q 3341 2797 3341 1997 
z
" transform="scale(0.015625)"/>
      </defs>
      <use xlink:href="#DejaVuSans-54"/>
      <use xlink:href="#DejaVuSans-72" x="46.333984"/>
      <use xlink:href="#DejaVuSans-61" x="87.447266"/>
      <use xlink:href="#DejaVuSans-69" x="148.726562"/>
      <use xlink:href="#DejaVuSans-6e" x="176.509766"/>
      <use xlink:href="#DejaVuSans-74" x="239.888672"/>
      <use xlink:href="#DejaVuSans-69" x="279.097656"/>
      <use xlink:href="#DejaVuSans-6d" x="306.880859"/>
      <use xlink:href="#DejaVuSans-65" x="404.292969"/>
     </g>
    </g>
   </g>
   <g id="PolyCollection_1">
    <defs>
     <path id="m7f469d9835" d="M 91.832727 -64.748047 
L 91.832727 -65.207092 
L 94.681925 -67.403952 
L 97.531123 -69.595031 
L 100.380321 -71.786453 
L 103.229519 -73.97291 
L 106.078717 -76.159026 
L 108.927914 -78.333116 
L 111.777112 -80.506533 
L 114.62631 -82.67841 
L 117.475508 -84.844295 
L 120.324706 -87.009935 
L 123.173904 -89.179871 
L 126.023102 -91.348807 
L 128.872299 -93.515441 
L 131.721497 -95.689069 
L 134.570695 -97.856345 
L 137.419893 -100.012221 
L 140.269091 -102.170506 
L 143.118289 -104.326143 
L 145.967487 -106.478477 
L 148.816684 -108.623885 
L 151.665882 -110.776016 
L 154.51508 -112.934747 
L 157.364278 -115.082088 
L 160.213476 -117.234716 
L 163.062674 -119.389219 
L 165.911872 -121.540061 
L 168.76107 -123.683483 
L 171.610267 -125.823914 
L 174.459465 -127.965157 
L 177.308663 -130.107215 
L 180.157861 -132.244887 
L 183.007059 -134.382192 
L 185.856257 -136.523998 
L 188.705455 -138.660452 
L 191.554652 -140.795781 
L 194.40385 -142.934106 
L 197.253048 -145.06589 
L 200.102246 -147.201753 
L 202.951444 -149.336656 
L 205.800642 -151.469147 
L 208.64984 -153.599726 
L 211.499037 -155.87178 
L 214.348235 -157.998284 
L 217.197433 -160.123414 
L 220.046631 -162.248282 
L 222.895829 -164.372555 
L 225.745027 -166.494058 
L 228.594225 -168.619043 
L 231.443422 -170.747965 
L 234.29262 -172.873673 
L 237.141818 -174.999786 
L 239.991016 -177.127492 
L 242.840214 -179.253182 
L 245.689412 -181.390385 
L 248.53861 -183.52109 
L 251.387807 -185.649117 
L 254.237005 -187.785531 
L 257.086203 -189.907605 
L 259.935401 -192.037358 
L 262.784599 -194.168563 
L 265.633797 -196.29457 
L 268.482995 -198.425658 
L 271.332193 -200.564071 
L 274.18139 -202.698296 
L 277.030588 -204.829846 
L 279.879786 -206.947278 
L 282.728984 -209.05821 
L 285.578182 -211.172305 
L 288.42738 -213.278931 
L 291.276578 -215.389377 
L 294.125775 -217.490607 
L 296.974973 -219.592916 
L 299.824171 -221.685218 
L 302.673369 -223.759379 
L 305.522567 -225.825665 
L 308.371765 -227.895287 
L 311.220963 -229.949066 
L 314.07016 -231.993609 
L 316.919358 -233.85691 
L 319.768556 -235.59492 
L 322.617754 -237.330354 
L 325.466952 -239.067627 
L 328.31615 -240.800381 
L 331.165348 -242.532838 
L 334.014545 -244.267811 
L 336.863743 -246.115649 
L 339.712941 -247.897287 
L 342.562139 -249.708533 
L 345.411337 -251.442533 
L 348.260535 -253.174954 
L 351.109733 -254.900558 
L 353.95893 -256.627102 
L 356.808128 -258.510836 
L 359.657326 -260.251645 
L 362.506524 -262.04697 
L 365.355722 -263.798463 
L 368.20492 -265.58042 
L 371.054118 -267.30524 
L 373.903316 -269.028423 
L 376.752513 -270.770561 
L 379.601711 -272.494084 
L 382.450909 -274.214746 
L 385.300107 -276.059754 
L 388.149305 -277.784969 
L 390.998503 -279.504294 
L 393.847701 -281.221781 
L 396.696898 -282.93999 
L 399.546096 -284.739363 
L 402.395294 -286.636072 
L 405.244492 -288.442585 
L 408.09369 -290.168018 
L 410.942888 -291.894911 
L 413.792086 -293.626958 
L 416.641283 -295.352743 
L 419.490481 -297.113291 
L 422.339679 -298.845755 
L 425.188877 -300.578347 
L 428.038075 -302.489197 
L 430.887273 -303.799091 
L 430.887273 -300.764109 
L 430.887273 -300.764109 
L 428.038075 -299.066762 
L 425.188877 -297.36528 
L 422.339679 -295.589321 
L 419.490481 -293.88094 
L 416.641283 -292.175222 
L 413.792086 -290.46253 
L 410.942888 -288.761135 
L 408.09369 -287.046961 
L 405.244492 -285.343156 
L 402.395294 -283.624919 
L 399.546096 -281.92751 
L 396.696898 -280.214591 
L 393.847701 -278.520668 
L 390.998503 -276.825719 
L 388.149305 -274.976453 
L 385.300107 -273.230379 
L 382.450909 -271.49989 
L 379.601711 -269.774538 
L 376.752513 -268.062368 
L 373.903316 -266.348989 
L 371.054118 -264.61029 
L 368.20492 -262.912614 
L 365.355722 -261.163609 
L 362.506524 -259.464853 
L 359.657326 -257.76968 
L 356.808128 -256.044834 
L 353.95893 -254.348984 
L 351.109733 -252.653127 
L 348.260535 -250.756013 
L 345.411337 -249.028298 
L 342.562139 -247.330684 
L 339.712941 -245.631054 
L 336.863743 -243.742306 
L 334.014545 -242.0445 
L 331.165348 -240.330447 
L 328.31615 -238.630627 
L 325.466952 -236.926428 
L 322.617754 -235.152325 
L 319.768556 -233.430196 
L 316.919358 -231.724171 
L 314.07016 -229.779341 
L 311.220963 -227.765092 
L 308.371765 -225.680925 
L 305.522567 -223.650721 
L 302.673369 -221.620423 
L 299.824171 -219.579019 
L 296.974973 -217.419521 
L 294.125775 -215.312568 
L 291.276578 -213.166456 
L 288.42738 -211.102552 
L 285.578182 -209.027975 
L 282.728984 -206.958698 
L 279.879786 -204.893396 
L 277.030588 -202.806118 
L 274.18139 -200.71549 
L 271.332193 -198.603025 
L 268.482995 -196.505466 
L 265.633797 -194.428318 
L 262.784599 -192.34961 
L 259.935401 -190.270411 
L 257.086203 -188.196946 
L 254.237005 -186.112448 
L 251.387807 -184.02754 
L 248.53861 -181.942787 
L 245.689412 -179.852923 
L 242.840214 -177.760892 
L 239.991016 -175.675821 
L 237.141818 -173.590144 
L 234.29262 -171.506171 
L 231.443422 -169.422143 
L 228.594225 -167.33508 
L 225.745027 -165.24452 
L 222.895829 -163.161249 
L 220.046631 -161.068614 
L 217.197433 -158.953443 
L 214.348235 -156.86586 
L 211.499037 -154.773328 
L 208.64984 -152.677814 
L 205.800642 -150.582961 
L 202.951444 -148.485344 
L 200.102246 -146.387563 
L 197.253048 -144.288016 
L 194.40385 -142.185514 
L 191.554652 -140.079203 
L 188.705455 -137.974642 
L 185.856257 -135.85922 
L 183.007059 -133.746124 
L 180.157861 -131.634383 
L 177.308663 -129.519211 
L 174.459465 -127.39858 
L 171.610267 -125.281697 
L 168.76107 -123.159978 
L 165.911872 -121.038088 
L 163.062674 -118.903108 
L 160.213476 -116.767824 
L 157.364278 -114.632318 
L 154.51508 -112.492735 
L 151.665882 -110.348533 
L 148.816684 -108.199852 
L 145.967487 -106.053266 
L 143.118289 -103.899831 
L 140.269091 -101.742756 
L 137.419893 -99.583215 
L 134.570695 -97.418026 
L 131.721497 -95.248929 
L 128.872299 -93.07822 
L 126.023102 -90.91191 
L 123.173904 -88.737875 
L 120.324706 -86.568777 
L 117.475508 -84.402698 
L 114.62631 -82.230873 
L 111.777112 -80.058787 
L 108.927914 -77.883555 
L 106.078717 -75.700815 
L 103.229519 -73.514968 
L 100.380321 -71.325739 
L 97.531123 -69.137159 
L 94.681925 -66.942032 
L 91.832727 -64.748047 
z
" style="stroke: #ffffff; stroke-opacity: 0.5"/>
    </defs>
    <g clip-path="url(#p1c92cd9f2a)">
     <use xlink:href="#m7f469d9835" x="0" y="345.6" style="fill: #4c72b0; fill-opacity: 0.5; stroke: #ffffff; stroke-opacity: 0.5"/>
    </g>
   </g>
   <g id="PolyCollection_2">
    <defs>
     <path id="m72311b55ec" d="M 91.832727 -62.980909 
L 91.832727 -62.981219 
L 94.681925 -62.985756 
L 97.531123 -62.990273 
L 100.380321 -62.994734 
L 103.229519 -63.033987 
L 106.078717 -63.072721 
L 108.927914 -63.111515 
L 111.777112 -63.149814 
L 114.62631 -63.189652 
L 117.475508 -63.228542 
L 120.324706 -63.266901 
L 123.173904 -63.305849 
L 126.023102 -63.344567 
L 128.872299 -63.38368 
L 131.721497 -63.422104 
L 134.570695 -63.460824 
L 137.419893 -63.498702 
L 140.269091 -63.537353 
L 143.118289 -63.576198 
L 145.967487 -63.615187 
L 148.816684 -63.652872 
L 151.665882 -63.691004 
L 154.51508 -63.729936 
L 157.364278 -63.767621 
L 160.213476 -63.807227 
L 163.062674 -63.845559 
L 165.911872 -63.883846 
L 168.76107 -63.923595 
L 171.610267 -63.962967 
L 174.459465 -64.000865 
L 177.308663 -64.040322 
L 180.157861 -64.078085 
L 183.007059 -64.115956 
L 185.856257 -64.154663 
L 188.705455 -64.193497 
L 191.554652 -64.233057 
L 194.40385 -64.271649 
L 197.253048 -64.310099 
L 200.102246 -64.347771 
L 202.951444 -64.386559 
L 205.800642 -64.425653 
L 208.64984 -64.463841 
L 211.499037 -64.502502 
L 214.348235 -64.540435 
L 217.197433 -64.577653 
L 220.046631 -64.615886 
L 222.895829 -64.654895 
L 225.745027 -64.692878 
L 228.594225 -64.730135 
L 231.443422 -64.767064 
L 234.29262 -64.804775 
L 237.141818 -64.842454 
L 239.991016 -64.880189 
L 242.840214 -64.91885 
L 245.689412 -64.956823 
L 248.53861 -64.996107 
L 251.387807 -65.034271 
L 254.237005 -65.071792 
L 257.086203 -65.11016 
L 259.935401 -65.147861 
L 262.784599 -65.185087 
L 265.633797 -65.222665 
L 268.482995 -65.260161 
L 271.332193 -65.297257 
L 274.18139 -65.333838 
L 277.030588 -65.370867 
L 279.879786 -65.409024 
L 282.728984 -65.447708 
L 285.578182 -65.485969 
L 288.42738 -65.524245 
L 291.276578 -65.561793 
L 294.125775 -65.599362 
L 296.974973 -65.637541 
L 299.824171 -65.675737 
L 302.673369 -65.713717 
L 305.522567 -65.751892 
L 308.371765 -65.789773 
L 311.220963 -65.827457 
L 314.07016 -65.864908 
L 316.919358 -65.902362 
L 319.768556 -65.940979 
L 322.617754 -65.978951 
L 325.466952 -66.016406 
L 328.31615 -66.053041 
L 331.165348 -66.09047 
L 334.014545 -66.129932 
L 336.863743 -66.167047 
L 339.712941 -66.205245 
L 342.562139 -66.243095 
L 345.411337 -66.280983 
L 348.260535 -66.31863 
L 351.109733 -66.355863 
L 353.95893 -66.392776 
L 356.808128 -66.431096 
L 359.657326 -66.469644 
L 362.506524 -66.506797 
L 365.355722 -66.544514 
L 368.20492 -66.582685 
L 371.054118 -66.620847 
L 373.903316 -66.658168 
L 376.752513 -66.695933 
L 379.601711 -66.733702 
L 382.450909 -66.770553 
L 385.300107 -66.807716 
L 388.149305 -66.845103 
L 390.998503 -66.882965 
L 393.847701 -66.920992 
L 396.696898 -66.959493 
L 399.546096 -66.996704 
L 402.395294 -67.034358 
L 405.244492 -67.071971 
L 408.09369 -67.109801 
L 410.942888 -67.147246 
L 413.792086 -67.185587 
L 416.641283 -67.222941 
L 419.490481 -67.259973 
L 422.339679 -67.298179 
L 425.188877 -67.336077 
L 428.038075 -67.373341 
L 430.887273 -67.411733 
L 430.887273 -67.283824 
L 430.887273 -67.283824 
L 428.038075 -67.247069 
L 425.188877 -67.211167 
L 422.339679 -67.174369 
L 419.490481 -67.137148 
L 416.641283 -67.09974 
L 413.792086 -67.062889 
L 410.942888 -67.025857 
L 408.09369 -66.989224 
L 405.244492 -66.952759 
L 402.395294 -66.916057 
L 399.546096 -66.879648 
L 396.696898 -66.842634 
L 393.847701 -66.806048 
L 390.998503 -66.768631 
L 388.149305 -66.732735 
L 385.300107 -66.695471 
L 382.450909 -66.656591 
L 379.601711 -66.618343 
L 376.752513 -66.581541 
L 373.903316 -66.545459 
L 371.054118 -66.508988 
L 368.20492 -66.471903 
L 365.355722 -66.434376 
L 362.506524 -66.397958 
L 359.657326 -66.360569 
L 356.808128 -66.322902 
L 353.95893 -66.285617 
L 351.109733 -66.248458 
L 348.260535 -66.211466 
L 345.411337 -66.174527 
L 342.562139 -66.13757 
L 339.712941 -66.100754 
L 336.863743 -66.063886 
L 334.014545 -66.026107 
L 331.165348 -65.989047 
L 328.31615 -65.952514 
L 325.466952 -65.915127 
L 322.617754 -65.878461 
L 319.768556 -65.841721 
L 316.919358 -65.803318 
L 314.07016 -65.766948 
L 311.220963 -65.730148 
L 308.371765 -65.693153 
L 305.522567 -65.655936 
L 302.673369 -65.618464 
L 299.824171 -65.579646 
L 296.974973 -65.542676 
L 294.125775 -65.505624 
L 291.276578 -65.46865 
L 288.42738 -65.432359 
L 285.578182 -65.395282 
L 282.728984 -65.358266 
L 279.879786 -65.320596 
L 277.030588 -65.283184 
L 274.18139 -65.246478 
L 271.332193 -65.209178 
L 268.482995 -65.17137 
L 265.633797 -65.132985 
L 262.784599 -65.096266 
L 259.935401 -65.058981 
L 257.086203 -65.022615 
L 254.237005 -64.985713 
L 251.387807 -64.948123 
L 248.53861 -64.912207 
L 245.689412 -64.87544 
L 242.840214 -64.839009 
L 239.991016 -64.802471 
L 237.141818 -64.765552 
L 234.29262 -64.729391 
L 231.443422 -64.693116 
L 228.594225 -64.656705 
L 225.745027 -64.620331 
L 222.895829 -64.582306 
L 220.046631 -64.544783 
L 217.197433 -64.507567 
L 214.348235 -64.471229 
L 211.499037 -64.434251 
L 208.64984 -64.398152 
L 205.800642 -64.360953 
L 202.951444 -64.323782 
L 200.102246 -64.2868 
L 197.253048 -64.249224 
L 194.40385 -64.211966 
L 191.554652 -64.176254 
L 188.705455 -64.139195 
L 185.856257 -64.101937 
L 183.007059 -64.064728 
L 180.157861 -64.027159 
L 177.308663 -63.989588 
L 174.459465 -63.952543 
L 171.610267 -63.91552 
L 168.76107 -63.879664 
L 165.911872 -63.842523 
L 163.062674 -63.805935 
L 160.213476 -63.76913 
L 157.364278 -63.732712 
L 154.51508 -63.695171 
L 151.665882 -63.658806 
L 148.816684 -63.622783 
L 145.967487 -63.586271 
L 143.118289 -63.549147 
L 140.269091 -63.512451 
L 137.419893 -63.474951 
L 134.570695 -63.439137 
L 131.721497 -63.402488 
L 128.872299 -63.365233 
L 126.023102 -63.328662 
L 123.173904 -63.292362 
L 120.324706 -63.255375 
L 117.475508 -63.219052 
L 114.62631 -63.182511 
L 111.777112 -63.144991 
L 108.927914 -63.107129 
L 106.078717 -63.069776 
L 103.229519 -63.031525 
L 100.380321 -62.994082 
L 97.531123 -62.989671 
L 94.681925 -62.985307 
L 91.832727 -62.980909 
z
" style="stroke: #ffffff; stroke-opacity: 0.5"/>
    </defs>
    <g clip-path="url(#p1c92cd9f2a)">
     <use xlink:href="#m72311b55ec" x="0" y="345.6" style="fill: #dd8452; fill-opacity: 0.5; stroke: #ffffff; stroke-opacity: 0.5"/>
    </g>
   </g>
   <g id="PolyCollection_3">
    <defs>
     <path id="m428665c5f9" d="M 91.832727 -62.980995 
L 91.832727 -62.981284 
L 94.681925 -62.985687 
L 97.531123 -62.990058 
L 100.380321 -62.994584 
L 103.229519 -63.093227 
L 106.078717 -63.190987 
L 108.927914 -63.287483 
L 111.777112 -63.3859 
L 114.62631 -63.485791 
L 117.475508 -63.584333 
L 120.324706 -63.68133 
L 123.173904 -63.77841 
L 126.023102 -63.875565 
L 128.872299 -63.969777 
L 131.721497 -64.066036 
L 134.570695 -64.16304 
L 137.419893 -64.262944 
L 140.269091 -64.361795 
L 143.118289 -64.460019 
L 145.967487 -64.556033 
L 148.816684 -64.651184 
L 151.665882 -64.747626 
L 154.51508 -64.84304 
L 157.364278 -64.940725 
L 160.213476 -65.037483 
L 163.062674 -65.133202 
L 165.911872 -65.230106 
L 168.76107 -65.327087 
L 171.610267 -65.426859 
L 174.459465 -65.525973 
L 177.308663 -65.625597 
L 180.157861 -65.723259 
L 183.007059 -65.821553 
L 185.856257 -65.925349 
L 188.705455 -66.026765 
L 191.554652 -66.127314 
L 194.40385 -66.226812 
L 197.253048 -66.325133 
L 200.102246 -66.420433 
L 202.951444 -66.518595 
L 205.800642 -66.616821 
L 208.64984 -66.714746 
L 211.499037 -66.81257 
L 214.348235 -66.910978 
L 217.197433 -67.00753 
L 220.046631 -67.103988 
L 222.895829 -67.200817 
L 225.745027 -67.299312 
L 228.594225 -67.398359 
L 231.443422 -67.497419 
L 234.29262 -67.593975 
L 237.141818 -67.690624 
L 239.991016 -67.788581 
L 242.840214 -67.88529 
L 245.689412 -67.980983 
L 248.53861 -68.080321 
L 251.387807 -68.177355 
L 254.237005 -68.274682 
L 257.086203 -68.36964 
L 259.935401 -68.466362 
L 262.784599 -68.562016 
L 265.633797 -68.658423 
L 268.482995 -68.754565 
L 271.332193 -68.851584 
L 274.18139 -68.946568 
L 277.030588 -69.043591 
L 279.879786 -69.140021 
L 282.728984 -69.235383 
L 285.578182 -69.330659 
L 288.42738 -69.427239 
L 291.276578 -69.524601 
L 294.125775 -69.620604 
L 296.974973 -69.71788 
L 299.824171 -69.814023 
L 302.673369 -69.910046 
L 305.522567 -70.009348 
L 308.371765 -70.10739 
L 311.220963 -70.204599 
L 314.07016 -70.301459 
L 316.919358 -70.397612 
L 319.768556 -70.494793 
L 322.617754 -70.592921 
L 325.466952 -70.688175 
L 328.31615 -70.785608 
L 331.165348 -70.881116 
L 334.014545 -70.977653 
L 336.863743 -71.07359 
L 339.712941 -71.169089 
L 342.562139 -71.26383 
L 345.411337 -71.35944 
L 348.260535 -71.453773 
L 351.109733 -71.548086 
L 353.95893 -71.643258 
L 356.808128 -71.738168 
L 359.657326 -71.83206 
L 362.506524 -71.927748 
L 365.355722 -72.023664 
L 368.20492 -72.120053 
L 371.054118 -72.215141 
L 373.903316 -72.310144 
L 376.752513 -72.405163 
L 379.601711 -72.499545 
L 382.450909 -72.594838 
L 385.300107 -72.691046 
L 388.149305 -72.787041 
L 390.998503 -72.885874 
L 393.847701 -72.981609 
L 396.696898 -73.079406 
L 399.546096 -73.175124 
L 402.395294 -73.270034 
L 405.244492 -73.366592 
L 408.09369 -73.460636 
L 410.942888 -73.555513 
L 413.792086 -73.650827 
L 416.641283 -73.746793 
L 419.490481 -73.844827 
L 422.339679 -73.941206 
L 425.188877 -74.038261 
L 428.038075 -74.135454 
L 430.887273 -74.231863 
L 430.887273 -74.067567 
L 430.887273 -74.067567 
L 428.038075 -73.973522 
L 425.188877 -73.87685 
L 422.339679 -73.783865 
L 419.490481 -73.689627 
L 416.641283 -73.594885 
L 413.792086 -73.497211 
L 410.942888 -73.399665 
L 408.09369 -73.300629 
L 405.244492 -73.19963 
L 402.395294 -73.099489 
L 399.546096 -73.003601 
L 396.696898 -72.908299 
L 393.847701 -72.811315 
L 390.998503 -72.717147 
L 388.149305 -72.622604 
L 385.300107 -72.528103 
L 382.450909 -72.432925 
L 379.601711 -72.338509 
L 376.752513 -72.242582 
L 373.903316 -72.146886 
L 371.054118 -72.053327 
L 368.20492 -71.960592 
L 365.355722 -71.865525 
L 362.506524 -71.770346 
L 359.657326 -71.675695 
L 356.808128 -71.580219 
L 353.95893 -71.487075 
L 351.109733 -71.393249 
L 348.260535 -71.297652 
L 345.411337 -71.201964 
L 342.562139 -71.105659 
L 339.712941 -71.01019 
L 336.863743 -70.913806 
L 334.014545 -70.818382 
L 331.165348 -70.721271 
L 328.31615 -70.625297 
L 325.466952 -70.527031 
L 322.617754 -70.430473 
L 319.768556 -70.331425 
L 316.919358 -70.235397 
L 314.07016 -70.136723 
L 311.220963 -70.036524 
L 308.371765 -69.940018 
L 305.522567 -69.846807 
L 302.673369 -69.752631 
L 299.824171 -69.659042 
L 296.974973 -69.564714 
L 294.125775 -69.469242 
L 291.276578 -69.374588 
L 288.42738 -69.279453 
L 285.578182 -69.185641 
L 282.728984 -69.091958 
L 279.879786 -68.99476 
L 277.030588 -68.898796 
L 274.18139 -68.805337 
L 271.332193 -68.71094 
L 268.482995 -68.616393 
L 265.633797 -68.521597 
L 262.784599 -68.428633 
L 259.935401 -68.333172 
L 257.086203 -68.238238 
L 254.237005 -68.142135 
L 251.387807 -68.04608 
L 248.53861 -67.949398 
L 245.689412 -67.853918 
L 242.840214 -67.757005 
L 239.991016 -67.664616 
L 237.141818 -67.569868 
L 234.29262 -67.473231 
L 231.443422 -67.379046 
L 228.594225 -67.284964 
L 225.745027 -67.189751 
L 222.895829 -67.094631 
L 220.046631 -67.000786 
L 217.197433 -66.907385 
L 214.348235 -66.812757 
L 211.499037 -66.716873 
L 208.64984 -66.622575 
L 205.800642 -66.528172 
L 202.951444 -66.431189 
L 200.102246 -66.336528 
L 197.253048 -66.239881 
L 194.40385 -66.145244 
L 191.554652 -66.050036 
L 188.705455 -65.955152 
L 185.856257 -65.860374 
L 183.007059 -65.764152 
L 180.157861 -65.669821 
L 177.308663 -65.574332 
L 174.459465 -65.478456 
L 171.610267 -65.382618 
L 168.76107 -65.286374 
L 165.911872 -65.188923 
L 163.062674 -65.094112 
L 160.213476 -65.000157 
L 157.364278 -64.9043 
L 154.51508 -64.809048 
L 151.665882 -64.712069 
L 148.816684 -64.614995 
L 145.967487 -64.519798 
L 143.118289 -64.423924 
L 140.269091 -64.326868 
L 137.419893 -64.231465 
L 134.570695 -64.13474 
L 131.721497 -64.038761 
L 128.872299 -63.942018 
L 126.023102 -63.845869 
L 123.173904 -63.750381 
L 120.324706 -63.655693 
L 117.475508 -63.561673 
L 114.62631 -63.467183 
L 111.777112 -63.3744 
L 108.927914 -63.279766 
L 106.078717 -63.18436 
L 103.229519 -63.089155 
L 100.380321 -62.994325 
L 97.531123 -62.989864 
L 94.681925 -62.985423 
L 91.832727 -62.980995 
z
" style="stroke: #ffffff; stroke-opacity: 0.5"/>
    </defs>
    <g clip-path="url(#p1c92cd9f2a)">
     <use xlink:href="#m428665c5f9" x="0" y="345.6" style="fill: #55a868; fill-opacity: 0.5; stroke: #ffffff; stroke-opacity: 0.5"/>
    </g>
   </g>
   <g id="PolyCollection_4">
    <defs>
     <path id="m3450a6288d" d="M 91.832727 -62.987531 
L 91.832727 -62.987696 
L 94.681925 -63.000172 
L 97.531123 -63.013184 
L 100.380321 -63.025675 
L 103.229519 -63.148943 
L 106.078717 -63.272031 
L 108.927914 -63.395132 
L 111.777112 -63.517393 
L 114.62631 -63.640435 
L 117.475508 -63.764818 
L 120.324706 -63.888535 
L 123.173904 -64.013257 
L 126.023102 -64.131143 
L 128.872299 -64.251317 
L 131.721497 -64.373378 
L 134.570695 -64.496322 
L 137.419893 -64.617629 
L 140.269091 -64.738606 
L 143.118289 -64.857833 
L 145.967487 -64.979511 
L 148.816684 -65.098992 
L 151.665882 -65.220678 
L 154.51508 -65.338686 
L 157.364278 -65.458546 
L 160.213476 -65.574512 
L 163.062674 -65.694328 
L 165.911872 -65.814019 
L 168.76107 -65.934143 
L 171.610267 -66.057024 
L 174.459465 -66.179919 
L 177.308663 -66.303964 
L 180.157861 -66.426456 
L 183.007059 -66.549635 
L 185.856257 -66.675705 
L 188.705455 -66.798404 
L 191.554652 -66.922389 
L 194.40385 -67.04019 
L 197.253048 -67.161454 
L 200.102246 -67.284631 
L 202.951444 -67.408339 
L 205.800642 -67.53093 
L 208.64984 -67.654619 
L 211.499037 -67.778829 
L 214.348235 -67.903466 
L 217.197433 -68.025631 
L 220.046631 -68.146617 
L 222.895829 -68.271175 
L 225.745027 -68.392672 
L 228.594225 -68.507279 
L 231.443422 -68.622732 
L 234.29262 -68.741154 
L 237.141818 -68.861044 
L 239.991016 -68.978806 
L 242.840214 -69.097988 
L 245.689412 -69.217927 
L 248.53861 -69.338561 
L 251.387807 -69.45925 
L 254.237005 -69.580893 
L 257.086203 -69.700209 
L 259.935401 -69.817756 
L 262.784599 -69.935968 
L 265.633797 -70.054955 
L 268.482995 -70.174994 
L 271.332193 -70.296464 
L 274.18139 -70.416578 
L 277.030588 -70.536931 
L 279.879786 -70.656939 
L 282.728984 -70.776239 
L 285.578182 -70.89883 
L 288.42738 -71.019813 
L 291.276578 -71.13958 
L 294.125775 -71.259993 
L 296.974973 -71.377542 
L 299.824171 -71.494564 
L 302.673369 -71.61166 
L 305.522567 -71.732603 
L 308.371765 -71.850804 
L 311.220963 -71.972491 
L 314.07016 -72.09109 
L 316.919358 -72.210021 
L 319.768556 -72.331962 
L 322.617754 -72.451841 
L 325.466952 -72.572182 
L 328.31615 -72.692625 
L 331.165348 -72.810492 
L 334.014545 -72.928542 
L 336.863743 -73.046953 
L 339.712941 -73.167404 
L 342.562139 -73.285151 
L 345.411337 -73.405545 
L 348.260535 -73.523104 
L 351.109733 -73.643325 
L 353.95893 -73.76481 
L 356.808128 -73.886806 
L 359.657326 -74.005473 
L 362.506524 -74.125289 
L 365.355722 -74.243618 
L 368.20492 -74.361305 
L 371.054118 -74.479627 
L 373.903316 -74.59851 
L 376.752513 -74.718656 
L 379.601711 -74.838689 
L 382.450909 -74.957779 
L 385.300107 -75.075862 
L 388.149305 -75.197485 
L 390.998503 -75.315984 
L 393.847701 -75.436405 
L 396.696898 -75.55553 
L 399.546096 -75.673135 
L 402.395294 -75.793201 
L 405.244492 -75.912824 
L 408.09369 -76.032242 
L 410.942888 -76.152621 
L 413.792086 -76.271972 
L 416.641283 -76.392578 
L 419.490481 -76.513318 
L 422.339679 -76.635282 
L 425.188877 -76.756409 
L 428.038075 -76.875672 
L 430.887273 -76.99511 
L 430.887273 -76.943099 
L 430.887273 -76.943099 
L 428.038075 -76.823992 
L 425.188877 -76.704302 
L 422.339679 -76.584147 
L 419.490481 -76.462412 
L 416.641283 -76.343653 
L 413.792086 -76.222837 
L 410.942888 -76.102218 
L 408.09369 -75.98247 
L 405.244492 -75.863333 
L 402.395294 -75.744193 
L 399.546096 -75.62469 
L 396.696898 -75.506 
L 393.847701 -75.385011 
L 390.998503 -75.264572 
L 388.149305 -75.144717 
L 385.300107 -75.021675 
L 382.450909 -74.900505 
L 379.601711 -74.780904 
L 376.752513 -74.660895 
L 373.903316 -74.54142 
L 371.054118 -74.421516 
L 368.20492 -74.301998 
L 365.355722 -74.184092 
L 362.506524 -74.065116 
L 359.657326 -73.945919 
L 356.808128 -73.824998 
L 353.95893 -73.703399 
L 351.109733 -73.580653 
L 348.260535 -73.458395 
L 345.411337 -73.337962 
L 342.562139 -73.218427 
L 339.712941 -73.098284 
L 336.863743 -72.980989 
L 334.014545 -72.864913 
L 331.165348 -72.748698 
L 328.31615 -72.631469 
L 325.466952 -72.510387 
L 322.617754 -72.390345 
L 319.768556 -72.269951 
L 316.919358 -72.147132 
L 314.07016 -72.0268 
L 311.220963 -71.905187 
L 308.371765 -71.784389 
L 305.522567 -71.66542 
L 302.673369 -71.546037 
L 299.824171 -71.427077 
L 296.974973 -71.309527 
L 294.125775 -71.19293 
L 291.276578 -71.073745 
L 288.42738 -70.953507 
L 285.578182 -70.832366 
L 282.728984 -70.711459 
L 279.879786 -70.593366 
L 277.030588 -70.4747 
L 274.18139 -70.353481 
L 271.332193 -70.233648 
L 268.482995 -70.113075 
L 265.633797 -69.994179 
L 262.784599 -69.875996 
L 259.935401 -69.758342 
L 257.086203 -69.638038 
L 254.237005 -69.518624 
L 251.387807 -69.399515 
L 248.53861 -69.276943 
L 245.689412 -69.158578 
L 242.840214 -69.038276 
L 239.991016 -68.917576 
L 237.141818 -68.800602 
L 234.29262 -68.679647 
L 231.443422 -68.560488 
L 228.594225 -68.442576 
L 225.745027 -68.325271 
L 222.895829 -68.207202 
L 220.046631 -68.085458 
L 217.197433 -67.966285 
L 214.348235 -67.846575 
L 211.499037 -67.725529 
L 208.64984 -67.605652 
L 205.800642 -67.487421 
L 202.951444 -67.369871 
L 200.102246 -67.251924 
L 197.253048 -67.131131 
L 194.40385 -67.01247 
L 191.554652 -66.897387 
L 188.705455 -66.777784 
L 185.856257 -66.657749 
L 183.007059 -66.535103 
L 180.157861 -66.415471 
L 177.308663 -66.294653 
L 174.459465 -66.174357 
L 171.610267 -66.052316 
L 168.76107 -65.930783 
L 165.911872 -65.810861 
L 163.062674 -65.69163 
L 160.213476 -65.571842 
L 157.364278 -65.457171 
L 154.51508 -65.33686 
L 151.665882 -65.214007 
L 148.816684 -65.089856 
L 145.967487 -64.965655 
L 143.118289 -64.843238 
L 140.269091 -64.720651 
L 137.419893 -64.60061 
L 134.570695 -64.479689 
L 131.721497 -64.357643 
L 128.872299 -64.236298 
L 126.023102 -64.116444 
L 123.173904 -63.999581 
L 120.324706 -63.877305 
L 117.475508 -63.75359 
L 114.62631 -63.633795 
L 111.777112 -63.509475 
L 108.927914 -63.387984 
L 106.078717 -63.267286 
L 103.229519 -63.146545 
L 100.380321 -63.024682 
L 97.531123 -63.012492 
L 94.681925 -63.000004 
L 91.832727 -62.987531 
z
" style="stroke: #ffffff; stroke-opacity: 0.5"/>
    </defs>
    <g clip-path="url(#p1c92cd9f2a)">
     <use xlink:href="#m3450a6288d" x="0" y="345.6" style="fill: #c44e52; fill-opacity: 0.5; stroke: #ffffff; stroke-opacity: 0.5"/>
    </g>
   </g>
   <g id="line2d_15">
    <path d="M 91.832727 280.552811 
L 94.681925 278.355688 
L 97.531123 276.162466 
L 100.380321 273.971491 
L 103.229519 271.785097 
L 106.078717 269.597091 
L 108.927914 267.419963 
L 111.777112 265.245264 
L 114.62631 263.0732 
L 117.475508 260.904082 
L 120.324706 258.738196 
L 123.173904 256.566389 
L 126.023102 254.393897 
L 128.872299 252.226769 
L 131.721497 250.051967 
L 134.570695 247.8822 
L 137.419893 245.719802 
L 140.269091 243.557346 
L 143.118289 241.398012 
L 145.967487 239.24182 
L 148.816684 237.091084 
L 151.665882 234.939627 
L 154.51508 232.79022 
L 157.364278 230.650089 
L 160.213476 228.507914 
L 163.062674 226.36346 
L 165.911872 224.222383 
L 168.76107 222.090066 
L 171.610267 219.96033 
L 174.459465 217.830597 
L 177.308663 215.699769 
L 180.157861 213.572872 
L 183.007059 211.447808 
L 185.856257 209.319049 
L 188.705455 207.192648 
L 191.554652 205.070258 
L 194.40385 202.945786 
L 197.253048 200.828347 
L 200.102246 198.708636 
L 202.951444 196.58959 
L 205.800642 194.472964 
L 208.64984 192.357516 
L 211.499037 190.196519 
L 214.348235 188.08175 
L 217.197433 185.969675 
L 220.046631 183.850702 
L 222.895829 181.737303 
L 225.745027 179.629892 
L 228.594225 177.518813 
L 231.443422 175.40605 
L 234.29262 173.295961 
L 237.141818 171.186307 
L 239.991016 169.073871 
L 242.840214 166.963871 
L 245.689412 164.842762 
L 248.53861 162.728332 
L 251.387807 160.604548 
L 254.237005 158.486592 
L 257.086203 156.378618 
L 259.935401 154.269293 
L 262.784599 152.157012 
L 265.633797 150.04921 
L 268.482995 147.938584 
L 271.332193 145.818055 
L 274.18139 143.698749 
L 277.030588 141.573098 
L 279.879786 139.468525 
L 282.728984 137.375745 
L 285.578182 135.278925 
L 288.42738 133.188362 
L 291.276578 131.097345 
L 294.125775 128.996295 
L 296.974973 126.90357 
L 299.824171 124.782913 
L 302.673369 122.719765 
L 305.522567 120.667011 
L 308.371765 118.610008 
L 311.220963 116.5578 
L 314.07016 114.525078 
L 316.919358 112.638719 
L 319.768556 110.914171 
L 322.617754 109.188133 
L 325.466952 107.445769 
L 328.31615 105.717087 
L 331.165348 103.99352 
L 334.014545 102.265866 
L 336.863743 100.474127 
L 339.712941 98.653493 
L 342.562139 96.919589 
L 345.411337 95.194215 
L 348.260535 93.466908 
L 351.109733 91.710921 
L 353.95893 89.992981 
L 356.808128 88.247279 
L 359.657326 86.523294 
L 362.506524 84.79405 
L 365.355722 83.073193 
L 368.20492 81.336029 
L 371.054118 79.616735 
L 373.903316 77.887216 
L 376.752513 76.162232 
L 379.601711 74.426652 
L 382.450909 72.699787 
L 385.300107 70.95556 
L 388.149305 69.222341 
L 390.998503 67.471425 
L 393.847701 65.761865 
L 396.696898 64.054663 
L 399.546096 62.326596 
L 402.395294 60.571694 
L 405.244492 58.811598 
L 408.09369 57.085869 
L 410.942888 55.371521 
L 413.792086 53.644136 
L 416.641283 51.929462 
L 419.490481 50.145896 
L 422.339679 48.423501 
L 425.188877 46.672379 
L 428.038075 44.916905 
L 430.887273 43.423548 
" clip-path="url(#p1c92cd9f2a)" style="fill: none; stroke: #4c72b0; stroke-width: 3; stroke-linecap: round"/>
   </g>
   <g id="line2d_16">
    <path d="M 91.832727 282.618903 
L 94.681925 282.614411 
L 97.531123 282.609965 
L 100.380321 282.60554 
L 103.229519 282.567528 
L 106.078717 282.529151 
L 108.927914 282.491025 
L 111.777112 282.452901 
L 114.62631 282.414502 
L 117.475508 282.376646 
L 120.324706 282.339055 
L 123.173904 282.301063 
L 126.023102 282.263203 
L 128.872299 282.225442 
L 131.721497 282.187485 
L 134.570695 282.149656 
L 137.419893 282.112483 
L 140.269091 282.074443 
L 143.118289 282.036546 
L 145.967487 281.998599 
L 148.816684 281.961316 
L 151.665882 281.924109 
L 154.51508 281.886131 
L 157.364278 281.848398 
L 160.213476 281.810225 
L 163.062674 281.77223 
L 165.911872 281.734514 
L 168.76107 281.696444 
L 171.610267 281.658335 
L 174.459465 281.620867 
L 177.308663 281.582737 
L 180.157861 281.545102 
L 183.007059 281.507437 
L 185.856257 281.469713 
L 188.705455 281.431739 
L 191.554652 281.393989 
L 194.40385 281.356492 
L 197.253048 281.318895 
L 200.102246 281.281213 
L 202.951444 281.2432 
L 205.800642 281.204955 
L 208.64984 281.167072 
L 211.499037 281.129688 
L 214.348235 281.092298 
L 217.197433 281.054853 
L 220.046631 281.017468 
L 222.895829 280.979497 
L 225.745027 280.941308 
L 228.594225 280.903774 
L 231.443422 280.866376 
L 234.29262 280.828717 
L 237.141818 280.790981 
L 239.991016 280.753203 
L 242.840214 280.715564 
L 245.689412 280.678189 
L 248.53861 280.640708 
L 251.387807 280.603943 
L 254.237005 280.566458 
L 257.086203 280.528933 
L 259.935401 280.491456 
L 262.784599 280.454191 
L 265.633797 280.416801 
L 268.482995 280.379409 
L 271.332193 280.341573 
L 274.18139 280.304232 
L 277.030588 280.267123 
L 279.879786 280.229466 
L 282.728984 280.19115 
L 285.578182 280.153746 
L 288.42738 280.116193 
L 291.276578 280.079072 
L 294.125775 280.041758 
L 296.974973 280.004202 
L 299.824171 279.966836 
L 302.673369 279.928918 
L 305.522567 279.891093 
L 308.371765 279.853859 
L 311.220963 279.816518 
L 314.07016 279.779052 
L 316.919358 279.74139 
L 319.768556 279.703409 
L 322.617754 279.66575 
L 325.466952 279.628805 
L 328.31615 279.591551 
L 331.165348 279.554417 
L 334.014545 279.516804 
L 336.863743 279.479211 
L 339.712941 279.441788 
L 342.562139 279.40453 
L 345.411337 279.366907 
L 348.260535 279.329517 
L 351.109733 279.29194 
L 353.95893 279.254849 
L 356.808128 279.217384 
L 359.657326 279.179762 
L 362.506524 279.142647 
L 365.355722 279.105356 
L 368.20492 279.067872 
L 371.054118 279.03035 
L 373.903316 278.992848 
L 376.752513 278.955484 
L 379.601711 278.91788 
L 382.450909 278.880227 
L 385.300107 278.84251 
L 388.149305 278.805213 
L 390.998503 278.76843 
L 393.847701 278.730901 
L 396.696898 278.693397 
L 399.546096 278.656181 
L 402.395294 278.619023 
L 405.244492 278.581877 
L 408.09369 278.544892 
L 410.942888 278.508077 
L 413.792086 278.471078 
L 416.641283 278.433756 
L 419.490481 278.3963 
L 422.339679 278.358438 
L 425.188877 278.321062 
L 428.038075 278.284043 
L 430.887273 278.246544 
" clip-path="url(#p1c92cd9f2a)" style="fill: none; stroke: #dd8452; stroke-width: 3; stroke-linecap: round"/>
   </g>
   <g id="line2d_17">
    <path d="M 91.832727 282.618872 
L 94.681925 282.614454 
L 97.531123 282.610012 
L 100.380321 282.605577 
L 103.229519 282.509033 
L 106.078717 282.413226 
L 108.927914 282.317302 
L 111.777112 282.220818 
L 114.62631 282.124541 
L 117.475508 282.02842 
L 120.324706 281.933107 
L 123.173904 281.837384 
L 126.023102 281.740402 
L 128.872299 281.644149 
L 131.721497 281.546704 
L 134.570695 281.450109 
L 137.419893 281.353419 
L 140.269091 281.257356 
L 143.118289 281.160563 
L 145.967487 281.064158 
L 148.816684 280.968024 
L 151.665882 280.870307 
L 154.51508 280.774219 
L 157.364278 280.677973 
L 160.213476 280.582223 
L 163.062674 280.486463 
L 165.911872 280.3911 
L 168.76107 280.294665 
L 171.610267 280.197789 
L 174.459465 280.10156 
L 177.308663 280.005404 
L 180.157861 279.908971 
L 183.007059 279.812561 
L 185.856257 279.715287 
L 188.705455 279.618817 
L 191.554652 279.522297 
L 194.40385 279.426547 
L 197.253048 279.329965 
L 200.102246 279.233165 
L 202.951444 279.137082 
L 205.800642 279.039949 
L 208.64984 278.943809 
L 211.499037 278.848188 
L 214.348235 278.752125 
L 217.197433 278.656491 
L 220.046631 278.561312 
L 222.895829 278.466462 
L 225.745027 278.370663 
L 228.594225 278.274437 
L 231.443422 278.177897 
L 234.29262 278.082311 
L 237.141818 277.986503 
L 239.991016 277.890119 
L 242.840214 277.794649 
L 245.689412 277.699019 
L 248.53861 277.602156 
L 251.387807 277.506221 
L 254.237005 277.410006 
L 257.086203 277.314937 
L 259.935401 277.219837 
L 262.784599 277.124391 
L 265.633797 277.029393 
L 268.482995 276.933227 
L 271.332193 276.837383 
L 274.18139 276.742194 
L 277.030588 276.646626 
L 279.879786 276.550205 
L 282.728984 276.452941 
L 285.578182 276.356952 
L 288.42738 276.261245 
L 291.276578 276.165488 
L 294.125775 276.070164 
L 296.974973 275.97407 
L 299.824171 275.879105 
L 302.673369 275.784122 
L 305.522567 275.687311 
L 308.371765 275.592123 
L 311.220963 275.49578 
L 314.07016 275.399327 
L 316.919358 275.303453 
L 319.768556 275.20711 
L 322.617754 275.109265 
L 325.466952 275.01297 
L 328.31615 274.915279 
L 331.165348 274.818687 
L 334.014545 274.722106 
L 336.863743 274.62689 
L 339.712941 274.53106 
L 342.562139 274.436348 
L 345.411337 274.34037 
L 348.260535 274.244277 
L 351.109733 274.148357 
L 353.95893 274.053492 
L 356.808128 273.958353 
L 359.657326 273.861795 
L 362.506524 273.764747 
L 365.355722 273.668256 
L 368.20492 273.571902 
L 371.054118 273.476847 
L 373.903316 273.382105 
L 376.752513 273.286079 
L 379.601711 273.190397 
L 382.450909 273.094574 
L 385.300107 272.997957 
L 388.149305 272.901711 
L 390.998503 272.804518 
L 393.847701 272.708718 
L 396.696898 272.612324 
L 399.546096 272.51615 
L 402.395294 272.420948 
L 405.244492 272.324019 
L 408.09369 272.227031 
L 410.942888 272.130715 
L 413.792086 272.035202 
L 416.641283 271.938879 
L 419.490481 271.843252 
L 422.339679 271.747863 
L 425.188877 271.652917 
L 428.038075 271.556926 
L 430.887273 271.461559 
" clip-path="url(#p1c92cd9f2a)" style="fill: none; stroke: #55a868; stroke-width: 3; stroke-linecap: round"/>
   </g>
   <g id="line2d_18">
    <path d="M 91.832727 282.612386 
L 94.681925 282.599912 
L 97.531123 282.587162 
L 100.380321 282.574822 
L 103.229519 282.452256 
L 106.078717 282.330341 
L 108.927914 282.208442 
L 111.777112 282.086566 
L 114.62631 281.962885 
L 117.475508 281.840796 
L 120.324706 281.71708 
L 123.173904 281.593581 
L 126.023102 281.476207 
L 128.872299 281.356192 
L 131.721497 281.23449 
L 134.570695 281.111994 
L 137.419893 280.990881 
L 140.269091 280.870372 
L 143.118289 280.749464 
L 145.967487 280.627417 
L 148.816684 280.505576 
L 151.665882 280.382657 
L 154.51508 280.262227 
L 157.364278 280.142142 
L 160.213476 280.026823 
L 163.062674 279.907021 
L 165.911872 279.78756 
L 168.76107 279.667537 
L 171.610267 279.54533 
L 174.459465 279.422862 
L 177.308663 279.300691 
L 180.157861 279.179037 
L 183.007059 279.057631 
L 185.856257 278.933273 
L 188.705455 278.811906 
L 191.554652 278.690112 
L 194.40385 278.57367 
L 197.253048 278.453707 
L 200.102246 278.331723 
L 202.951444 278.210895 
L 205.800642 278.090824 
L 208.64984 277.969865 
L 211.499037 277.847821 
L 214.348235 277.724979 
L 217.197433 277.604042 
L 220.046631 277.483962 
L 222.895829 277.360812 
L 225.745027 277.241029 
L 228.594225 277.125072 
L 231.443422 277.00839 
L 234.29262 276.8896 
L 237.141818 276.769177 
L 239.991016 276.651809 
L 242.840214 276.531868 
L 245.689412 276.411747 
L 248.53861 276.292248 
L 251.387807 276.170618 
L 254.237005 276.050242 
L 257.086203 275.930876 
L 259.935401 275.811951 
L 262.784599 275.694018 
L 265.633797 275.575433 
L 268.482995 275.455966 
L 271.332193 275.334944 
L 274.18139 275.21497 
L 277.030588 275.094184 
L 279.879786 274.974848 
L 282.728984 274.856151 
L 285.578182 274.734402 
L 288.42738 274.61334 
L 291.276578 274.493338 
L 294.125775 274.373538 
L 296.974973 274.256466 
L 299.824171 274.139179 
L 302.673369 274.021151 
L 305.522567 273.900989 
L 308.371765 273.782404 
L 311.220963 273.661161 
L 314.07016 273.541055 
L 316.919358 273.421423 
L 319.768556 273.299043 
L 322.617754 273.178907 
L 325.466952 273.058715 
L 328.31615 272.937953 
L 331.165348 272.820405 
L 334.014545 272.703273 
L 336.863743 272.586029 
L 339.712941 272.467156 
L 342.562139 272.348211 
L 345.411337 272.228247 
L 348.260535 272.109251 
L 351.109733 271.988011 
L 353.95893 271.865895 
L 356.808128 271.744098 
L 359.657326 271.624304 
L 362.506524 271.504797 
L 365.355722 271.386145 
L 368.20492 271.268349 
L 371.054118 271.149429 
L 373.903316 271.030035 
L 376.752513 270.910225 
L 379.601711 270.790203 
L 382.450909 270.670858 
L 385.300107 270.551232 
L 388.149305 270.428899 
L 390.998503 270.309722 
L 393.847701 270.189292 
L 396.696898 270.069235 
L 399.546096 269.951088 
L 402.395294 269.831303 
L 405.244492 269.711921 
L 408.09369 269.592644 
L 410.942888 269.47258 
L 413.792086 269.352595 
L 416.641283 269.231884 
L 419.490481 269.112135 
L 422.339679 268.990286 
L 425.188877 268.869645 
L 428.038075 268.750168 
L 430.887273 268.630895 
" clip-path="url(#p1c92cd9f2a)" style="fill: none; stroke: #c44e52; stroke-width: 3; stroke-linecap: round"/>
   </g>
   <g id="patch_3">
    <path d="M 74.88 294.66 
L 74.88 29.76 
" style="fill: none; stroke: #ffffff; stroke-width: 1.25; stroke-linejoin: miter; stroke-linecap: square"/>
   </g>
   <g id="patch_4">
    <path d="M 447.84 294.66 
L 447.84 29.76 
" style="fill: none; stroke: #ffffff; stroke-width: 1.25; stroke-linejoin: miter; stroke-linecap: square"/>
   </g>
   <g id="patch_5">
    <path d="M 74.88 294.66 
L 447.84 294.66 
" style="fill: none; stroke: #ffffff; stroke-width: 1.25; stroke-linejoin: miter; stroke-linecap: square"/>
   </g>
   <g id="patch_6">
    <path d="M 74.88 29.76 
L 447.84 29.76 
" style="fill: none; stroke: #ffffff; stroke-width: 1.25; stroke-linejoin: miter; stroke-linecap: square"/>
   </g>
   <g id="text_17">
    <!-- zinc-coating-v0 -->
    <g style="fill: #262626" transform="translate(208.001406 23.76)scale(0.14 -0.14)">
     <defs>
      <path id="DejaVuSans-7a" d="M 353 3500 
L 3084 3500 
L 3084 2975 
L 922 459 
L 3084 459 
L 3084 0 
L 275 0 
L 275 525 
L 2438 3041 
L 353 3041 
L 353 3500 
z
" transform="scale(0.015625)"/>
      <path id="DejaVuSans-63" d="M 3122 3366 
L 3122 2828 
Q 2878 2963 2633 3030 
Q 2388 3097 2138 3097 
Q 1578 3097 1268 2742 
Q 959 2388 959 1747 
Q 959 1106 1268 751 
Q 1578 397 2138 397 
Q 2388 397 2633 464 
Q 2878 531 3122 666 
L 3122 134 
Q 2881 22 2623 -34 
Q 2366 -91 2075 -91 
Q 1284 -91 818 406 
Q 353 903 353 1747 
Q 353 2603 823 3093 
Q 1294 3584 2113 3584 
Q 2378 3584 2631 3529 
Q 2884 3475 3122 3366 
z
" transform="scale(0.015625)"/>
      <path id="DejaVuSans-2d" d="M 313 2009 
L 1997 2009 
L 1997 1497 
L 313 1497 
L 313 2009 
z
" transform="scale(0.015625)"/>
      <path id="DejaVuSans-67" d="M 2906 1791 
Q 2906 2416 2648 2759 
Q 2391 3103 1925 3103 
Q 1463 3103 1205 2759 
Q 947 2416 947 1791 
Q 947 1169 1205 825 
Q 1463 481 1925 481 
Q 2391 481 2648 825 
Q 2906 1169 2906 1791 
z
M 3481 434 
Q 3481 -459 3084 -895 
Q 2688 -1331 1869 -1331 
Q 1566 -1331 1297 -1286 
Q 1028 -1241 775 -1147 
L 775 -588 
Q 1028 -725 1275 -790 
Q 1522 -856 1778 -856 
Q 2344 -856 2625 -561 
Q 2906 -266 2906 331 
L 2906 616 
Q 2728 306 2450 153 
Q 2172 0 1784 0 
Q 1141 0 747 490 
Q 353 981 353 1791 
Q 353 2603 747 3093 
Q 1141 3584 1784 3584 
Q 2172 3584 2450 3431 
Q 2728 3278 2906 2969 
L 2906 3500 
L 3481 3500 
L 3481 434 
z
" transform="scale(0.015625)"/>
      <path id="DejaVuSans-76" d="M 191 3500 
L 800 3500 
L 1894 563 
L 2988 3500 
L 3597 3500 
L 2284 0 
L 1503 0 
L 191 3500 
z
" transform="scale(0.015625)"/>
     </defs>
     <use xlink:href="#DejaVuSans-7a"/>
     <use xlink:href="#DejaVuSans-69" x="52.490234"/>
     <use xlink:href="#DejaVuSans-6e" x="80.273438"/>
     <use xlink:href="#DejaVuSans-63" x="143.652344"/>
     <use xlink:href="#DejaVuSans-2d" x="198.632812"/>
     <use xlink:href="#DejaVuSans-63" x="234.716797"/>
     <use xlink:href="#DejaVuSans-6f" x="289.697266"/>
     <use xlink:href="#DejaVuSans-61" x="350.878906"/>
     <use xlink:href="#DejaVuSans-74" x="412.158203"/>
     <use xlink:href="#DejaVuSans-69" x="451.367188"/>
     <use xlink:href="#DejaVuSans-6e" x="479.150391"/>
     <use xlink:href="#DejaVuSans-67" x="542.529297"/>
     <use xlink:href="#DejaVuSans-2d" x="606.005859"/>
     <use xlink:href="#DejaVuSans-76" x="639.464844"/>
     <use xlink:href="#DejaVuSans-30" x="698.644531"/>
    </g>
   </g>
   <g id="legend_1">
    <g id="patch_7">
     <path d="M 82.58 103.14375 
L 223.409219 103.14375 
Q 225.609219 103.14375 225.609219 100.94375 
L 225.609219 37.46 
Q 225.609219 35.26 223.409219 35.26 
L 82.58 35.26 
Q 80.38 35.26 80.38 37.46 
L 80.38 100.94375 
Q 80.38 103.14375 82.58 103.14375 
z
" style="fill: #eaeaf2; opacity: 0.8; stroke: #cccccc; stroke-linejoin: miter"/>
    </g>
    <g id="line2d_19">
     <path d="M 84.78 44.168281 
L 95.78 44.168281 
L 106.78 44.168281 
" style="fill: none; stroke: #4c72b0; stroke-width: 3; stroke-linecap: round"/>
    </g>
    <g id="text_18">
     <!-- DATS-DELAY-5 -->
     <g style="fill: #262626" transform="translate(115.58 48.018281)scale(0.11 -0.11)">
      <defs>
       <path id="DejaVuSans-44" d="M 1259 4147 
L 1259 519 
L 2022 519 
Q 2988 519 3436 956 
Q 3884 1394 3884 2338 
Q 3884 3275 3436 3711 
Q 2988 4147 2022 4147 
L 1259 4147 
z
M 628 4666 
L 1925 4666 
Q 3281 4666 3915 4102 
Q 4550 3538 4550 2338 
Q 4550 1131 3912 565 
Q 3275 0 1925 0 
L 628 0 
L 628 4666 
z
" transform="scale(0.015625)"/>
       <path id="DejaVuSans-41" d="M 2188 4044 
L 1331 1722 
L 3047 1722 
L 2188 4044 
z
M 1831 4666 
L 2547 4666 
L 4325 0 
L 3669 0 
L 3244 1197 
L 1141 1197 
L 716 0 
L 50 0 
L 1831 4666 
z
" transform="scale(0.015625)"/>
       <path id="DejaVuSans-53" d="M 3425 4513 
L 3425 3897 
Q 3066 4069 2747 4153 
Q 2428 4238 2131 4238 
Q 1616 4238 1336 4038 
Q 1056 3838 1056 3469 
Q 1056 3159 1242 3001 
Q 1428 2844 1947 2747 
L 2328 2669 
Q 3034 2534 3370 2195 
Q 3706 1856 3706 1288 
Q 3706 609 3251 259 
Q 2797 -91 1919 -91 
Q 1588 -91 1214 -16 
Q 841 59 441 206 
L 441 856 
Q 825 641 1194 531 
Q 1563 422 1919 422 
Q 2459 422 2753 634 
Q 3047 847 3047 1241 
Q 3047 1584 2836 1778 
Q 2625 1972 2144 2069 
L 1759 2144 
Q 1053 2284 737 2584 
Q 422 2884 422 3419 
Q 422 4038 858 4394 
Q 1294 4750 2059 4750 
Q 2388 4750 2728 4690 
Q 3069 4631 3425 4513 
z
" transform="scale(0.015625)"/>
       <path id="DejaVuSans-45" d="M 628 4666 
L 3578 4666 
L 3578 4134 
L 1259 4134 
L 1259 2753 
L 3481 2753 
L 3481 2222 
L 1259 2222 
L 1259 531 
L 3634 531 
L 3634 0 
L 628 0 
L 628 4666 
z
" transform="scale(0.015625)"/>
       <path id="DejaVuSans-4c" d="M 628 4666 
L 1259 4666 
L 1259 531 
L 3531 531 
L 3531 0 
L 628 0 
L 628 4666 
z
" transform="scale(0.015625)"/>
       <path id="DejaVuSans-59" d="M -13 4666 
L 666 4666 
L 1959 2747 
L 3244 4666 
L 3922 4666 
L 2272 2222 
L 2272 0 
L 1638 0 
L 1638 2222 
L -13 4666 
z
" transform="scale(0.015625)"/>
      </defs>
      <use xlink:href="#DejaVuSans-44"/>
      <use xlink:href="#DejaVuSans-41" x="75.251953"/>
      <use xlink:href="#DejaVuSans-54" x="135.910156"/>
      <use xlink:href="#DejaVuSans-53" x="196.994141"/>
      <use xlink:href="#DejaVuSans-2d" x="260.470703"/>
      <use xlink:href="#DejaVuSans-44" x="296.554688"/>
      <use xlink:href="#DejaVuSans-45" x="373.556641"/>
      <use xlink:href="#DejaVuSans-4c" x="436.740234"/>
      <use xlink:href="#DejaVuSans-41" x="494.703125"/>
      <use xlink:href="#DejaVuSans-59" x="555.361328"/>
      <use xlink:href="#DejaVuSans-2d" x="604.570312"/>
      <use xlink:href="#DejaVuSans-35" x="640.654297"/>
     </g>
    </g>
    <g id="line2d_20">
     <path d="M 84.78 60.314219 
L 95.78 60.314219 
L 106.78 60.314219 
" style="fill: none; stroke: #dd8452; stroke-width: 3; stroke-linecap: round"/>
    </g>
    <g id="text_19">
     <!-- SAC-DELAY-5 -->
     <g style="fill: #262626" transform="translate(115.58 64.164219)scale(0.11 -0.11)">
      <defs>
       <path id="DejaVuSans-43" d="M 4122 4306 
L 4122 3641 
Q 3803 3938 3442 4084 
Q 3081 4231 2675 4231 
Q 1875 4231 1450 3742 
Q 1025 3253 1025 2328 
Q 1025 1406 1450 917 
Q 1875 428 2675 428 
Q 3081 428 3442 575 
Q 3803 722 4122 1019 
L 4122 359 
Q 3791 134 3420 21 
Q 3050 -91 2638 -91 
Q 1578 -91 968 557 
Q 359 1206 359 2328 
Q 359 3453 968 4101 
Q 1578 4750 2638 4750 
Q 3056 4750 3426 4639 
Q 3797 4528 4122 4306 
z
" transform="scale(0.015625)"/>
      </defs>
      <use xlink:href="#DejaVuSans-53"/>
      <use xlink:href="#DejaVuSans-41" x="65.351562"/>
      <use xlink:href="#DejaVuSans-43" x="132.009766"/>
      <use xlink:href="#DejaVuSans-2d" x="201.833984"/>
      <use xlink:href="#DejaVuSans-44" x="237.917969"/>
      <use xlink:href="#DejaVuSans-45" x="314.919922"/>
      <use xlink:href="#DejaVuSans-4c" x="378.103516"/>
      <use xlink:href="#DejaVuSans-41" x="436.066406"/>
      <use xlink:href="#DejaVuSans-59" x="496.724609"/>
      <use xlink:href="#DejaVuSans-2d" x="545.933594"/>
      <use xlink:href="#DejaVuSans-35" x="582.017578"/>
     </g>
    </g>
    <g id="line2d_21">
     <path d="M 84.78 76.460156 
L 95.78 76.460156 
L 106.78 76.460156 
" style="fill: none; stroke: #55a868; stroke-width: 3; stroke-linecap: round"/>
    </g>
    <g id="text_20">
     <!-- SAC-IS-DELAY-5 -->
     <g style="fill: #262626" transform="translate(115.58 80.310156)scale(0.11 -0.11)">
      <defs>
       <path id="DejaVuSans-49" d="M 628 4666 
L 1259 4666 
L 1259 0 
L 628 0 
L 628 4666 
z
" transform="scale(0.015625)"/>
      </defs>
      <use xlink:href="#DejaVuSans-53"/>
      <use xlink:href="#DejaVuSans-41" x="65.351562"/>
      <use xlink:href="#DejaVuSans-43" x="132.009766"/>
      <use xlink:href="#DejaVuSans-2d" x="201.833984"/>
      <use xlink:href="#DejaVuSans-49" x="237.917969"/>
      <use xlink:href="#DejaVuSans-53" x="267.410156"/>
      <use xlink:href="#DejaVuSans-2d" x="330.886719"/>
      <use xlink:href="#DejaVuSans-44" x="366.970703"/>
      <use xlink:href="#DejaVuSans-45" x="443.972656"/>
      <use xlink:href="#DejaVuSans-4c" x="507.15625"/>
      <use xlink:href="#DejaVuSans-41" x="565.119141"/>
      <use xlink:href="#DejaVuSans-59" x="625.777344"/>
      <use xlink:href="#DejaVuSans-2d" x="674.986328"/>
      <use xlink:href="#DejaVuSans-35" x="711.070312"/>
     </g>
    </g>
    <g id="line2d_22">
     <path d="M 84.78 92.606094 
L 95.78 92.606094 
L 106.78 92.606094 
" style="fill: none; stroke: #c44e52; stroke-width: 3; stroke-linecap: round"/>
    </g>
    <g id="text_21">
     <!-- DCAC-DELAY-5-16C -->
     <g style="fill: #262626" transform="translate(115.58 96.456094)scale(0.11 -0.11)">
      <defs>
       <path id="DejaVuSans-36" d="M 2113 2584 
Q 1688 2584 1439 2293 
Q 1191 2003 1191 1497 
Q 1191 994 1439 701 
Q 1688 409 2113 409 
Q 2538 409 2786 701 
Q 3034 994 3034 1497 
Q 3034 2003 2786 2293 
Q 2538 2584 2113 2584 
z
M 3366 4563 
L 3366 3988 
Q 3128 4100 2886 4159 
Q 2644 4219 2406 4219 
Q 1781 4219 1451 3797 
Q 1122 3375 1075 2522 
Q 1259 2794 1537 2939 
Q 1816 3084 2150 3084 
Q 2853 3084 3261 2657 
Q 3669 2231 3669 1497 
Q 3669 778 3244 343 
Q 2819 -91 2113 -91 
Q 1303 -91 875 529 
Q 447 1150 447 2328 
Q 447 3434 972 4092 
Q 1497 4750 2381 4750 
Q 2619 4750 2861 4703 
Q 3103 4656 3366 4563 
z
" transform="scale(0.015625)"/>
      </defs>
      <use xlink:href="#DejaVuSans-44"/>
      <use xlink:href="#DejaVuSans-43" x="77.001953"/>
      <use xlink:href="#DejaVuSans-41" x="146.826172"/>
      <use xlink:href="#DejaVuSans-43" x="213.484375"/>
      <use xlink:href="#DejaVuSans-2d" x="283.308594"/>
      <use xlink:href="#DejaVuSans-44" x="319.392578"/>
      <use xlink:href="#DejaVuSans-45" x="396.394531"/>
      <use xlink:href="#DejaVuSans-4c" x="459.578125"/>
      <use xlink:href="#DejaVuSans-41" x="517.541016"/>
      <use xlink:href="#DejaVuSans-59" x="578.199219"/>
      <use xlink:href="#DejaVuSans-2d" x="627.408203"/>
      <use xlink:href="#DejaVuSans-35" x="663.492188"/>
      <use xlink:href="#DejaVuSans-2d" x="727.115234"/>
      <use xlink:href="#DejaVuSans-31" x="763.199219"/>
      <use xlink:href="#DejaVuSans-36" x="826.822266"/>
      <use xlink:href="#DejaVuSans-43" x="890.445312"/>
     </g>
    </g>
   </g>
  </g>
 </g>
 <defs>
  <clipPath id="p1c92cd9f2a">
   <rect x="74.88" y="29.76" width="372.96" height="264.9"/>
  </clipPath>
 </defs>
</svg>
