<?xml version="1.0" encoding="utf-8" standalone="no"?>
<!DOCTYPE svg PUBLIC "-//W3C//DTD SVG 1.1//EN"
  "http://www.w3.org/Graphics/SVG/1.1/DTD/svg11.dtd">
<svg xmlns:xlink="http://www.w3.org/1999/xlink" width="460.8pt" height="345.6pt" viewBox="0 0 460.8 345.6" xmlns="http://www.w3.org/2000/svg" version="1.1">
 <metadata>
  <rdf:RDF xmlns:dc="http://purl.org/dc/elements/1.1/" xmlns:cc="http://creativecommons.org/ns#" xmlns:rdf="http://www.w3.org/1999/02/22-rdf-syntax-ns#">
   <cc:Work>
    <dc:type rdf:resource="http://purl.org/dc/dcmitype/StillImage"/>
    <dc:date>2022-09-12T15:21:42.019262</dc:date>
    <dc:format>image/svg+xml</dc:format>
    <dc:creator>
     <cc:Agent>
      <dc:title>Matplotlib v3.5.3, https://matplotlib.org/</dc:title>
     </cc:Agent>
    </dc:creator>
   </cc:Work>
  </rdf:RDF>
 </metadata>
 <defs>
  <style type="text/css">*{stroke-linejoin: round; stroke-linecap: butt}</style>
 </defs>
 <g id="figure_1">
  <g id="patch_1">
   <path d="M 0 345.6 
L 460.8 345.6 
L 460.8 0 
L 0 0 
z
" style="fill: #ffffff"/>
  </g>
  <g id="axes_1">
   <g id="patch_2">
    <path d="M 74.79 294.66 
L 447.84 294.66 
L 447.84 12.96 
L 74.79 12.96 
z
" style="fill: #eaeaf2"/>
   </g>
   <g id="matplotlib.axis_1">
    <g id="xtick_1">
     <g id="line2d_1">
      <path d="M 88.896933 294.66 
L 88.896933 12.96 
" clip-path="url(#p4454e3b127)" style="fill: none; stroke: #ffffff; stroke-linecap: round"/>
     </g>
     <g id="text_1">
      <!-- 0.00 -->
      <g style="fill: #262626" transform="translate(76.650839 312.518281)scale(0.11 -0.11)">
       <defs>
        <path id="DejaVuSans-30" d="M 2034 4250 
Q 1547 4250 1301 3770 
Q 1056 3291 1056 2328 
Q 1056 1369 1301 889 
Q 1547 409 2034 409 
Q 2525 409 2770 889 
Q 3016 1369 3016 2328 
Q 3016 3291 2770 3770 
Q 2525 4250 2034 4250 
z
M 2034 4750 
Q 2819 4750 3233 4129 
Q 3647 3509 3647 2328 
Q 3647 1150 3233 529 
Q 2819 -91 2034 -91 
Q 1250 -91 836 529 
Q 422 1150 422 2328 
Q 422 3509 836 4129 
Q 1250 4750 2034 4750 
z
" transform="scale(0.015625)"/>
        <path id="DejaVuSans-2e" d="M 684 794 
L 1344 794 
L 1344 0 
L 684 0 
L 684 794 
z
" transform="scale(0.015625)"/>
       </defs>
       <use xlink:href="#DejaVuSans-30"/>
       <use xlink:href="#DejaVuSans-2e" x="63.623047"/>
       <use xlink:href="#DejaVuSans-30" x="95.410156"/>
       <use xlink:href="#DejaVuSans-30" x="159.033203"/>
      </g>
     </g>
    </g>
    <g id="xtick_2">
     <g id="line2d_2">
      <path d="M 145.894641 294.66 
L 145.894641 12.96 
" clip-path="url(#p4454e3b127)" style="fill: none; stroke: #ffffff; stroke-linecap: round"/>
     </g>
     <g id="text_2">
      <!-- 0.05 -->
      <g style="fill: #262626" transform="translate(133.648547 312.518281)scale(0.11 -0.11)">
       <defs>
        <path id="DejaVuSans-35" d="M 691 4666 
L 3169 4666 
L 3169 4134 
L 1269 4134 
L 1269 2991 
Q 1406 3038 1543 3061 
Q 1681 3084 1819 3084 
Q 2600 3084 3056 2656 
Q 3513 2228 3513 1497 
Q 3513 744 3044 326 
Q 2575 -91 1722 -91 
Q 1428 -91 1123 -41 
Q 819 9 494 109 
L 494 744 
Q 775 591 1075 516 
Q 1375 441 1709 441 
Q 2250 441 2565 725 
Q 2881 1009 2881 1497 
Q 2881 1984 2565 2268 
Q 2250 2553 1709 2553 
Q 1456 2553 1204 2497 
Q 953 2441 691 2322 
L 691 4666 
z
" transform="scale(0.015625)"/>
       </defs>
       <use xlink:href="#DejaVuSans-30"/>
       <use xlink:href="#DejaVuSans-2e" x="63.623047"/>
       <use xlink:href="#DejaVuSans-30" x="95.410156"/>
       <use xlink:href="#DejaVuSans-35" x="159.033203"/>
      </g>
     </g>
    </g>
    <g id="xtick_3">
     <g id="line2d_3">
      <path d="M 202.892349 294.66 
L 202.892349 12.96 
" clip-path="url(#p4454e3b127)" style="fill: none; stroke: #ffffff; stroke-linecap: round"/>
     </g>
     <g id="text_3">
      <!-- 0.10 -->
      <g style="fill: #262626" transform="translate(190.646255 312.518281)scale(0.11 -0.11)">
       <defs>
        <path id="DejaVuSans-31" d="M 794 531 
L 1825 531 
L 1825 4091 
L 703 3866 
L 703 4441 
L 1819 4666 
L 2450 4666 
L 2450 531 
L 3481 531 
L 3481 0 
L 794 0 
L 794 531 
z
" transform="scale(0.015625)"/>
       </defs>
       <use xlink:href="#DejaVuSans-30"/>
       <use xlink:href="#DejaVuSans-2e" x="63.623047"/>
       <use xlink:href="#DejaVuSans-31" x="95.410156"/>
       <use xlink:href="#DejaVuSans-30" x="159.033203"/>
      </g>
     </g>
    </g>
    <g id="xtick_4">
     <g id="line2d_4">
      <path d="M 259.890057 294.66 
L 259.890057 12.96 
" clip-path="url(#p4454e3b127)" style="fill: none; stroke: #ffffff; stroke-linecap: round"/>
     </g>
     <g id="text_4">
      <!-- 0.15 -->
      <g style="fill: #262626" transform="translate(247.643964 312.518281)scale(0.11 -0.11)">
       <use xlink:href="#DejaVuSans-30"/>
       <use xlink:href="#DejaVuSans-2e" x="63.623047"/>
       <use xlink:href="#DejaVuSans-31" x="95.410156"/>
       <use xlink:href="#DejaVuSans-35" x="159.033203"/>
      </g>
     </g>
    </g>
    <g id="xtick_5">
     <g id="line2d_5">
      <path d="M 316.887765 294.66 
L 316.887765 12.96 
" clip-path="url(#p4454e3b127)" style="fill: none; stroke: #ffffff; stroke-linecap: round"/>
     </g>
     <g id="text_5">
      <!-- 0.20 -->
      <g style="fill: #262626" transform="translate(304.641672 312.518281)scale(0.11 -0.11)">
       <defs>
        <path id="DejaVuSans-32" d="M 1228 531 
L 3431 531 
L 3431 0 
L 469 0 
L 469 531 
Q 828 903 1448 1529 
Q 2069 2156 2228 2338 
Q 2531 2678 2651 2914 
Q 2772 3150 2772 3378 
Q 2772 3750 2511 3984 
Q 2250 4219 1831 4219 
Q 1534 4219 1204 4116 
Q 875 4013 500 3803 
L 500 4441 
Q 881 4594 1212 4672 
Q 1544 4750 1819 4750 
Q 2544 4750 2975 4387 
Q 3406 4025 3406 3419 
Q 3406 3131 3298 2873 
Q 3191 2616 2906 2266 
Q 2828 2175 2409 1742 
Q 1991 1309 1228 531 
z
" transform="scale(0.015625)"/>
       </defs>
       <use xlink:href="#DejaVuSans-30"/>
       <use xlink:href="#DejaVuSans-2e" x="63.623047"/>
       <use xlink:href="#DejaVuSans-32" x="95.410156"/>
       <use xlink:href="#DejaVuSans-30" x="159.033203"/>
      </g>
     </g>
    </g>
    <g id="xtick_6">
     <g id="line2d_6">
      <path d="M 373.885474 294.66 
L 373.885474 12.96 
" clip-path="url(#p4454e3b127)" style="fill: none; stroke: #ffffff; stroke-linecap: round"/>
     </g>
     <g id="text_6">
      <!-- 0.25 -->
      <g style="fill: #262626" transform="translate(361.63938 312.518281)scale(0.11 -0.11)">
       <use xlink:href="#DejaVuSans-30"/>
       <use xlink:href="#DejaVuSans-2e" x="63.623047"/>
       <use xlink:href="#DejaVuSans-32" x="95.410156"/>
       <use xlink:href="#DejaVuSans-35" x="159.033203"/>
      </g>
     </g>
    </g>
    <g id="xtick_7">
     <g id="line2d_7">
      <path d="M 430.883182 294.66 
L 430.883182 12.96 
" clip-path="url(#p4454e3b127)" style="fill: none; stroke: #ffffff; stroke-linecap: round"/>
     </g>
     <g id="text_7">
      <!-- 0.30 -->
      <g style="fill: #262626" transform="translate(418.637088 312.518281)scale(0.11 -0.11)">
       <defs>
        <path id="DejaVuSans-33" d="M 2597 2516 
Q 3050 2419 3304 2112 
Q 3559 1806 3559 1356 
Q 3559 666 3084 287 
Q 2609 -91 1734 -91 
Q 1441 -91 1130 -33 
Q 819 25 488 141 
L 488 750 
Q 750 597 1062 519 
Q 1375 441 1716 441 
Q 2309 441 2620 675 
Q 2931 909 2931 1356 
Q 2931 1769 2642 2001 
Q 2353 2234 1838 2234 
L 1294 2234 
L 1294 2753 
L 1863 2753 
Q 2328 2753 2575 2939 
Q 2822 3125 2822 3475 
Q 2822 3834 2567 4026 
Q 2313 4219 1838 4219 
Q 1578 4219 1281 4162 
Q 984 4106 628 3988 
L 628 4550 
Q 988 4650 1302 4700 
Q 1616 4750 1894 4750 
Q 2613 4750 3031 4423 
Q 3450 4097 3450 3541 
Q 3450 3153 3228 2886 
Q 3006 2619 2597 2516 
z
" transform="scale(0.015625)"/>
       </defs>
       <use xlink:href="#DejaVuSans-30"/>
       <use xlink:href="#DejaVuSans-2e" x="63.623047"/>
       <use xlink:href="#DejaVuSans-33" x="95.410156"/>
       <use xlink:href="#DejaVuSans-30" x="159.033203"/>
      </g>
     </g>
    </g>
    <g id="text_8">
     <!-- Zeitschritte (in Millionen) -->
     <g style="fill: #262626" transform="translate(173.400469 329.44375)scale(0.14 -0.14)">
      <defs>
       <path id="DejaVuSans-5a" d="M 359 4666 
L 4025 4666 
L 4025 4184 
L 1075 531 
L 4097 531 
L 4097 0 
L 288 0 
L 288 481 
L 3238 4134 
L 359 4134 
L 359 4666 
z
" transform="scale(0.015625)"/>
       <path id="DejaVuSans-65" d="M 3597 1894 
L 3597 1613 
L 953 1613 
Q 991 1019 1311 708 
Q 1631 397 2203 397 
Q 2534 397 2845 478 
Q 3156 559 3463 722 
L 3463 178 
Q 3153 47 2828 -22 
Q 2503 -91 2169 -91 
Q 1331 -91 842 396 
Q 353 884 353 1716 
Q 353 2575 817 3079 
Q 1281 3584 2069 3584 
Q 2775 3584 3186 3129 
Q 3597 2675 3597 1894 
z
M 3022 2063 
Q 3016 2534 2758 2815 
Q 2500 3097 2075 3097 
Q 1594 3097 1305 2825 
Q 1016 2553 972 2059 
L 3022 2063 
z
" transform="scale(0.015625)"/>
       <path id="DejaVuSans-69" d="M 603 3500 
L 1178 3500 
L 1178 0 
L 603 0 
L 603 3500 
z
M 603 4863 
L 1178 4863 
L 1178 4134 
L 603 4134 
L 603 4863 
z
" transform="scale(0.015625)"/>
       <path id="DejaVuSans-74" d="M 1172 4494 
L 1172 3500 
L 2356 3500 
L 2356 3053 
L 1172 3053 
L 1172 1153 
Q 1172 725 1289 603 
Q 1406 481 1766 481 
L 2356 481 
L 2356 0 
L 1766 0 
Q 1100 0 847 248 
Q 594 497 594 1153 
L 594 3053 
L 172 3053 
L 172 3500 
L 594 3500 
L 594 4494 
L 1172 4494 
z
" transform="scale(0.015625)"/>
       <path id="DejaVuSans-73" d="M 2834 3397 
L 2834 2853 
Q 2591 2978 2328 3040 
Q 2066 3103 1784 3103 
Q 1356 3103 1142 2972 
Q 928 2841 928 2578 
Q 928 2378 1081 2264 
Q 1234 2150 1697 2047 
L 1894 2003 
Q 2506 1872 2764 1633 
Q 3022 1394 3022 966 
Q 3022 478 2636 193 
Q 2250 -91 1575 -91 
Q 1294 -91 989 -36 
Q 684 19 347 128 
L 347 722 
Q 666 556 975 473 
Q 1284 391 1588 391 
Q 1994 391 2212 530 
Q 2431 669 2431 922 
Q 2431 1156 2273 1281 
Q 2116 1406 1581 1522 
L 1381 1569 
Q 847 1681 609 1914 
Q 372 2147 372 2553 
Q 372 3047 722 3315 
Q 1072 3584 1716 3584 
Q 2034 3584 2315 3537 
Q 2597 3491 2834 3397 
z
" transform="scale(0.015625)"/>
       <path id="DejaVuSans-63" d="M 3122 3366 
L 3122 2828 
Q 2878 2963 2633 3030 
Q 2388 3097 2138 3097 
Q 1578 3097 1268 2742 
Q 959 2388 959 1747 
Q 959 1106 1268 751 
Q 1578 397 2138 397 
Q 2388 397 2633 464 
Q 2878 531 3122 666 
L 3122 134 
Q 2881 22 2623 -34 
Q 2366 -91 2075 -91 
Q 1284 -91 818 406 
Q 353 903 353 1747 
Q 353 2603 823 3093 
Q 1294 3584 2113 3584 
Q 2378 3584 2631 3529 
Q 2884 3475 3122 3366 
z
" transform="scale(0.015625)"/>
       <path id="DejaVuSans-68" d="M 3513 2113 
L 3513 0 
L 2938 0 
L 2938 2094 
Q 2938 2591 2744 2837 
Q 2550 3084 2163 3084 
Q 1697 3084 1428 2787 
Q 1159 2491 1159 1978 
L 1159 0 
L 581 0 
L 581 4863 
L 1159 4863 
L 1159 2956 
Q 1366 3272 1645 3428 
Q 1925 3584 2291 3584 
Q 2894 3584 3203 3211 
Q 3513 2838 3513 2113 
z
" transform="scale(0.015625)"/>
       <path id="DejaVuSans-72" d="M 2631 2963 
Q 2534 3019 2420 3045 
Q 2306 3072 2169 3072 
Q 1681 3072 1420 2755 
Q 1159 2438 1159 1844 
L 1159 0 
L 581 0 
L 581 3500 
L 1159 3500 
L 1159 2956 
Q 1341 3275 1631 3429 
Q 1922 3584 2338 3584 
Q 2397 3584 2469 3576 
Q 2541 3569 2628 3553 
L 2631 2963 
z
" transform="scale(0.015625)"/>
       <path id="DejaVuSans-20" transform="scale(0.015625)"/>
       <path id="DejaVuSans-28" d="M 1984 4856 
Q 1566 4138 1362 3434 
Q 1159 2731 1159 2009 
Q 1159 1288 1364 580 
Q 1569 -128 1984 -844 
L 1484 -844 
Q 1016 -109 783 600 
Q 550 1309 550 2009 
Q 550 2706 781 3412 
Q 1013 4119 1484 4856 
L 1984 4856 
z
" transform="scale(0.015625)"/>
       <path id="DejaVuSans-6e" d="M 3513 2113 
L 3513 0 
L 2938 0 
L 2938 2094 
Q 2938 2591 2744 2837 
Q 2550 3084 2163 3084 
Q 1697 3084 1428 2787 
Q 1159 2491 1159 1978 
L 1159 0 
L 581 0 
L 581 3500 
L 1159 3500 
L 1159 2956 
Q 1366 3272 1645 3428 
Q 1925 3584 2291 3584 
Q 2894 3584 3203 3211 
Q 3513 2838 3513 2113 
z
" transform="scale(0.015625)"/>
       <path id="DejaVuSans-4d" d="M 628 4666 
L 1569 4666 
L 2759 1491 
L 3956 4666 
L 4897 4666 
L 4897 0 
L 4281 0 
L 4281 4097 
L 3078 897 
L 2444 897 
L 1241 4097 
L 1241 0 
L 628 0 
L 628 4666 
z
" transform="scale(0.015625)"/>
       <path id="DejaVuSans-6c" d="M 603 4863 
L 1178 4863 
L 1178 0 
L 603 0 
L 603 4863 
z
" transform="scale(0.015625)"/>
       <path id="DejaVuSans-6f" d="M 1959 3097 
Q 1497 3097 1228 2736 
Q 959 2375 959 1747 
Q 959 1119 1226 758 
Q 1494 397 1959 397 
Q 2419 397 2687 759 
Q 2956 1122 2956 1747 
Q 2956 2369 2687 2733 
Q 2419 3097 1959 3097 
z
M 1959 3584 
Q 2709 3584 3137 3096 
Q 3566 2609 3566 1747 
Q 3566 888 3137 398 
Q 2709 -91 1959 -91 
Q 1206 -91 779 398 
Q 353 888 353 1747 
Q 353 2609 779 3096 
Q 1206 3584 1959 3584 
z
" transform="scale(0.015625)"/>
       <path id="DejaVuSans-29" d="M 513 4856 
L 1013 4856 
Q 1481 4119 1714 3412 
Q 1947 2706 1947 2009 
Q 1947 1309 1714 600 
Q 1481 -109 1013 -844 
L 513 -844 
Q 928 -128 1133 580 
Q 1338 1288 1338 2009 
Q 1338 2731 1133 3434 
Q 928 4138 513 4856 
z
" transform="scale(0.015625)"/>
      </defs>
      <use xlink:href="#DejaVuSans-5a"/>
      <use xlink:href="#DejaVuSans-65" x="68.505859"/>
      <use xlink:href="#DejaVuSans-69" x="130.029297"/>
      <use xlink:href="#DejaVuSans-74" x="157.8125"/>
      <use xlink:href="#DejaVuSans-73" x="197.021484"/>
      <use xlink:href="#DejaVuSans-63" x="249.121094"/>
      <use xlink:href="#DejaVuSans-68" x="304.101562"/>
      <use xlink:href="#DejaVuSans-72" x="367.480469"/>
      <use xlink:href="#DejaVuSans-69" x="408.59375"/>
      <use xlink:href="#DejaVuSans-74" x="436.376953"/>
      <use xlink:href="#DejaVuSans-74" x="475.585938"/>
      <use xlink:href="#DejaVuSans-65" x="514.794922"/>
      <use xlink:href="#DejaVuSans-20" x="576.318359"/>
      <use xlink:href="#DejaVuSans-28" x="608.105469"/>
      <use xlink:href="#DejaVuSans-69" x="647.119141"/>
      <use xlink:href="#DejaVuSans-6e" x="674.902344"/>
      <use xlink:href="#DejaVuSans-20" x="738.28125"/>
      <use xlink:href="#DejaVuSans-4d" x="770.068359"/>
      <use xlink:href="#DejaVuSans-69" x="856.347656"/>
      <use xlink:href="#DejaVuSans-6c" x="884.130859"/>
      <use xlink:href="#DejaVuSans-6c" x="911.914062"/>
      <use xlink:href="#DejaVuSans-69" x="939.697266"/>
      <use xlink:href="#DejaVuSans-6f" x="967.480469"/>
      <use xlink:href="#DejaVuSans-6e" x="1028.662109"/>
      <use xlink:href="#DejaVuSans-65" x="1092.041016"/>
      <use xlink:href="#DejaVuSans-6e" x="1153.564453"/>
      <use xlink:href="#DejaVuSans-29" x="1216.943359"/>
     </g>
    </g>
   </g>
   <g id="matplotlib.axis_2">
    <g id="ytick_1">
     <g id="line2d_8">
      <path d="M 74.79 281.868939 
L 447.84 281.868939 
" clip-path="url(#p4454e3b127)" style="fill: none; stroke: #ffffff; stroke-linecap: round"/>
     </g>
     <g id="text_9">
      <!-- 0 -->
      <g style="fill: #262626" transform="translate(58.29125 286.048079)scale(0.11 -0.11)">
       <use xlink:href="#DejaVuSans-30"/>
      </g>
     </g>
    </g>
    <g id="ytick_2">
     <g id="line2d_9">
      <path d="M 74.79 232.370225 
L 447.84 232.370225 
" clip-path="url(#p4454e3b127)" style="fill: none; stroke: #ffffff; stroke-linecap: round"/>
     </g>
     <g id="text_10">
      <!-- 2000 -->
      <g style="fill: #262626" transform="translate(37.295 236.549366)scale(0.11 -0.11)">
       <use xlink:href="#DejaVuSans-32"/>
       <use xlink:href="#DejaVuSans-30" x="63.623047"/>
       <use xlink:href="#DejaVuSans-30" x="127.246094"/>
       <use xlink:href="#DejaVuSans-30" x="190.869141"/>
      </g>
     </g>
    </g>
    <g id="ytick_3">
     <g id="line2d_10">
      <path d="M 74.79 182.871512 
L 447.84 182.871512 
" clip-path="url(#p4454e3b127)" style="fill: none; stroke: #ffffff; stroke-linecap: round"/>
     </g>
     <g id="text_11">
      <!-- 4000 -->
      <g style="fill: #262626" transform="translate(37.295 187.050652)scale(0.11 -0.11)">
       <defs>
        <path id="DejaVuSans-34" d="M 2419 4116 
L 825 1625 
L 2419 1625 
L 2419 4116 
z
M 2253 4666 
L 3047 4666 
L 3047 1625 
L 3713 1625 
L 3713 1100 
L 3047 1100 
L 3047 0 
L 2419 0 
L 2419 1100 
L 313 1100 
L 313 1709 
L 2253 4666 
z
" transform="scale(0.015625)"/>
       </defs>
       <use xlink:href="#DejaVuSans-34"/>
       <use xlink:href="#DejaVuSans-30" x="63.623047"/>
       <use xlink:href="#DejaVuSans-30" x="127.246094"/>
       <use xlink:href="#DejaVuSans-30" x="190.869141"/>
      </g>
     </g>
    </g>
    <g id="ytick_4">
     <g id="line2d_11">
      <path d="M 74.79 133.372798 
L 447.84 133.372798 
" clip-path="url(#p4454e3b127)" style="fill: none; stroke: #ffffff; stroke-linecap: round"/>
     </g>
     <g id="text_12">
      <!-- 6000 -->
      <g style="fill: #262626" transform="translate(37.295 137.551939)scale(0.11 -0.11)">
       <defs>
        <path id="DejaVuSans-36" d="M 2113 2584 
Q 1688 2584 1439 2293 
Q 1191 2003 1191 1497 
Q 1191 994 1439 701 
Q 1688 409 2113 409 
Q 2538 409 2786 701 
Q 3034 994 3034 1497 
Q 3034 2003 2786 2293 
Q 2538 2584 2113 2584 
z
M 3366 4563 
L 3366 3988 
Q 3128 4100 2886 4159 
Q 2644 4219 2406 4219 
Q 1781 4219 1451 3797 
Q 1122 3375 1075 2522 
Q 1259 2794 1537 2939 
Q 1816 3084 2150 3084 
Q 2853 3084 3261 2657 
Q 3669 2231 3669 1497 
Q 3669 778 3244 343 
Q 2819 -91 2113 -91 
Q 1303 -91 875 529 
Q 447 1150 447 2328 
Q 447 3434 972 4092 
Q 1497 4750 2381 4750 
Q 2619 4750 2861 4703 
Q 3103 4656 3366 4563 
z
" transform="scale(0.015625)"/>
       </defs>
       <use xlink:href="#DejaVuSans-36"/>
       <use xlink:href="#DejaVuSans-30" x="63.623047"/>
       <use xlink:href="#DejaVuSans-30" x="127.246094"/>
       <use xlink:href="#DejaVuSans-30" x="190.869141"/>
      </g>
     </g>
    </g>
    <g id="ytick_5">
     <g id="line2d_12">
      <path d="M 74.79 83.874085 
L 447.84 83.874085 
" clip-path="url(#p4454e3b127)" style="fill: none; stroke: #ffffff; stroke-linecap: round"/>
     </g>
     <g id="text_13">
      <!-- 8000 -->
      <g style="fill: #262626" transform="translate(37.295 88.053225)scale(0.11 -0.11)">
       <defs>
        <path id="DejaVuSans-38" d="M 2034 2216 
Q 1584 2216 1326 1975 
Q 1069 1734 1069 1313 
Q 1069 891 1326 650 
Q 1584 409 2034 409 
Q 2484 409 2743 651 
Q 3003 894 3003 1313 
Q 3003 1734 2745 1975 
Q 2488 2216 2034 2216 
z
M 1403 2484 
Q 997 2584 770 2862 
Q 544 3141 544 3541 
Q 544 4100 942 4425 
Q 1341 4750 2034 4750 
Q 2731 4750 3128 4425 
Q 3525 4100 3525 3541 
Q 3525 3141 3298 2862 
Q 3072 2584 2669 2484 
Q 3125 2378 3379 2068 
Q 3634 1759 3634 1313 
Q 3634 634 3220 271 
Q 2806 -91 2034 -91 
Q 1263 -91 848 271 
Q 434 634 434 1313 
Q 434 1759 690 2068 
Q 947 2378 1403 2484 
z
M 1172 3481 
Q 1172 3119 1398 2916 
Q 1625 2713 2034 2713 
Q 2441 2713 2670 2916 
Q 2900 3119 2900 3481 
Q 2900 3844 2670 4047 
Q 2441 4250 2034 4250 
Q 1625 4250 1398 4047 
Q 1172 3844 1172 3481 
z
" transform="scale(0.015625)"/>
       </defs>
       <use xlink:href="#DejaVuSans-38"/>
       <use xlink:href="#DejaVuSans-30" x="63.623047"/>
       <use xlink:href="#DejaVuSans-30" x="127.246094"/>
       <use xlink:href="#DejaVuSans-30" x="190.869141"/>
      </g>
     </g>
    </g>
    <g id="ytick_6">
     <g id="line2d_13">
      <path d="M 74.79 34.375371 
L 447.84 34.375371 
" clip-path="url(#p4454e3b127)" style="fill: none; stroke: #ffffff; stroke-linecap: round"/>
     </g>
     <g id="text_14">
      <!-- 10000 -->
      <g style="fill: #262626" transform="translate(30.29625 38.554512)scale(0.11 -0.11)">
       <use xlink:href="#DejaVuSans-31"/>
       <use xlink:href="#DejaVuSans-30" x="63.623047"/>
       <use xlink:href="#DejaVuSans-30" x="127.246094"/>
       <use xlink:href="#DejaVuSans-30" x="190.869141"/>
       <use xlink:href="#DejaVuSans-30" x="254.492188"/>
      </g>
     </g>
    </g>
    <g id="text_15">
     <!-- Trainingszeit (in Minuten) -->
     <g style="fill: #262626" transform="translate(23.384687 242.379688)rotate(-90)scale(0.14 -0.14)">
      <defs>
       <path id="DejaVuSans-54" d="M -19 4666 
L 3928 4666 
L 3928 4134 
L 2272 4134 
L 2272 0 
L 1638 0 
L 1638 4134 
L -19 4134 
L -19 4666 
z
" transform="scale(0.015625)"/>
       <path id="DejaVuSans-61" d="M 2194 1759 
Q 1497 1759 1228 1600 
Q 959 1441 959 1056 
Q 959 750 1161 570 
Q 1363 391 1709 391 
Q 2188 391 2477 730 
Q 2766 1069 2766 1631 
L 2766 1759 
L 2194 1759 
z
M 3341 1997 
L 3341 0 
L 2766 0 
L 2766 531 
Q 2569 213 2275 61 
Q 1981 -91 1556 -91 
Q 1019 -91 701 211 
Q 384 513 384 1019 
Q 384 1609 779 1909 
Q 1175 2209 1959 2209 
L 2766 2209 
L 2766 2266 
Q 2766 2663 2505 2880 
Q 2244 3097 1772 3097 
Q 1472 3097 1187 3025 
Q 903 2953 641 2809 
L 641 3341 
Q 956 3463 1253 3523 
Q 1550 3584 1831 3584 
Q 2591 3584 2966 3190 
Q 3341 2797 3341 1997 
z
" transform="scale(0.015625)"/>
       <path id="DejaVuSans-67" d="M 2906 1791 
Q 2906 2416 2648 2759 
Q 2391 3103 1925 3103 
Q 1463 3103 1205 2759 
Q 947 2416 947 1791 
Q 947 1169 1205 825 
Q 1463 481 1925 481 
Q 2391 481 2648 825 
Q 2906 1169 2906 1791 
z
M 3481 434 
Q 3481 -459 3084 -895 
Q 2688 -1331 1869 -1331 
Q 1566 -1331 1297 -1286 
Q 1028 -1241 775 -1147 
L 775 -588 
Q 1028 -725 1275 -790 
Q 1522 -856 1778 -856 
Q 2344 -856 2625 -561 
Q 2906 -266 2906 331 
L 2906 616 
Q 2728 306 2450 153 
Q 2172 0 1784 0 
Q 1141 0 747 490 
Q 353 981 353 1791 
Q 353 2603 747 3093 
Q 1141 3584 1784 3584 
Q 2172 3584 2450 3431 
Q 2728 3278 2906 2969 
L 2906 3500 
L 3481 3500 
L 3481 434 
z
" transform="scale(0.015625)"/>
       <path id="DejaVuSans-7a" d="M 353 3500 
L 3084 3500 
L 3084 2975 
L 922 459 
L 3084 459 
L 3084 0 
L 275 0 
L 275 525 
L 2438 3041 
L 353 3041 
L 353 3500 
z
" transform="scale(0.015625)"/>
       <path id="DejaVuSans-75" d="M 544 1381 
L 544 3500 
L 1119 3500 
L 1119 1403 
Q 1119 906 1312 657 
Q 1506 409 1894 409 
Q 2359 409 2629 706 
Q 2900 1003 2900 1516 
L 2900 3500 
L 3475 3500 
L 3475 0 
L 2900 0 
L 2900 538 
Q 2691 219 2414 64 
Q 2138 -91 1772 -91 
Q 1169 -91 856 284 
Q 544 659 544 1381 
z
M 1991 3584 
L 1991 3584 
z
" transform="scale(0.015625)"/>
      </defs>
      <use xlink:href="#DejaVuSans-54"/>
      <use xlink:href="#DejaVuSans-72" x="46.333984"/>
      <use xlink:href="#DejaVuSans-61" x="87.447266"/>
      <use xlink:href="#DejaVuSans-69" x="148.726562"/>
      <use xlink:href="#DejaVuSans-6e" x="176.509766"/>
      <use xlink:href="#DejaVuSans-69" x="239.888672"/>
      <use xlink:href="#DejaVuSans-6e" x="267.671875"/>
      <use xlink:href="#DejaVuSans-67" x="331.050781"/>
      <use xlink:href="#DejaVuSans-73" x="394.527344"/>
      <use xlink:href="#DejaVuSans-7a" x="446.626953"/>
      <use xlink:href="#DejaVuSans-65" x="499.117188"/>
      <use xlink:href="#DejaVuSans-69" x="560.640625"/>
      <use xlink:href="#DejaVuSans-74" x="588.423828"/>
      <use xlink:href="#DejaVuSans-20" x="627.632812"/>
      <use xlink:href="#DejaVuSans-28" x="659.419922"/>
      <use xlink:href="#DejaVuSans-69" x="698.433594"/>
      <use xlink:href="#DejaVuSans-6e" x="726.216797"/>
      <use xlink:href="#DejaVuSans-20" x="789.595703"/>
      <use xlink:href="#DejaVuSans-4d" x="821.382812"/>
      <use xlink:href="#DejaVuSans-69" x="907.662109"/>
      <use xlink:href="#DejaVuSans-6e" x="935.445312"/>
      <use xlink:href="#DejaVuSans-75" x="998.824219"/>
      <use xlink:href="#DejaVuSans-74" x="1062.203125"/>
      <use xlink:href="#DejaVuSans-65" x="1101.412109"/>
      <use xlink:href="#DejaVuSans-6e" x="1162.935547"/>
      <use xlink:href="#DejaVuSans-29" x="1226.314453"/>
     </g>
    </g>
   </g>
   <g id="PolyCollection_1">
    <defs>
     <path id="m6ef9f79007" d="M 91.746818 -65.056939 
L 91.746818 -66.01817 
L 94.596704 -68.264391 
L 97.446589 -70.506549 
L 100.296474 -72.741544 
L 103.14636 -74.973669 
L 105.996245 -77.201869 
L 108.846131 -79.43087 
L 111.696016 -81.656696 
L 114.545901 -83.875881 
L 117.395787 -86.091943 
L 120.245672 -88.301481 
L 123.095558 -90.505231 
L 125.945443 -92.704494 
L 128.795328 -94.896472 
L 131.645214 -97.085373 
L 134.495099 -99.272205 
L 137.344985 -101.453454 
L 140.19487 -103.627555 
L 143.044756 -105.799044 
L 145.894641 -107.963519 
L 148.744526 -110.123236 
L 151.594412 -112.276133 
L 154.444297 -114.42911 
L 157.294183 -116.581269 
L 160.144068 -118.729556 
L 162.993953 -120.874442 
L 165.843839 -123.014486 
L 168.693724 -125.155742 
L 171.54361 -127.295852 
L 174.393495 -129.43897 
L 177.24338 -131.575856 
L 180.093266 -133.739253 
L 182.943151 -135.887658 
L 185.793037 -138.039715 
L 188.642922 -140.183001 
L 191.492807 -142.327435 
L 194.342693 -144.46985 
L 197.192578 -146.609169 
L 200.042464 -148.751026 
L 202.892349 -150.895368 
L 205.742235 -153.034961 
L 208.59212 -155.172652 
L 211.442005 -157.307703 
L 214.291891 -159.438457 
L 217.141776 -161.56575 
L 219.991662 -163.699909 
L 222.841547 -165.831141 
L 225.691432 -167.96312 
L 228.541318 -170.094927 
L 231.391203 -172.220916 
L 234.241089 -174.349096 
L 237.090974 -176.475201 
L 239.940859 -178.602328 
L 242.790745 -180.727004 
L 245.64063 -182.852739 
L 248.490516 -184.981723 
L 251.340401 -187.111198 
L 254.190286 -189.241611 
L 257.040172 -191.369946 
L 259.890057 -193.498039 
L 262.739943 -195.623643 
L 265.589828 -197.751636 
L 268.439714 -199.877542 
L 271.289599 -202.003615 
L 274.139484 -204.130578 
L 276.98937 -206.253499 
L 279.839255 -208.379673 
L 282.689141 -210.504529 
L 285.539026 -212.630073 
L 288.388911 -214.758679 
L 291.238797 -216.889416 
L 294.088682 -219.020242 
L 296.938568 -221.150569 
L 299.788453 -223.276532 
L 302.638338 -225.407326 
L 305.488224 -227.536633 
L 308.338109 -229.663256 
L 311.187995 -231.785599 
L 314.03788 -233.911876 
L 316.887765 -236.031999 
L 319.737651 -238.153347 
L 322.587536 -240.270646 
L 325.437422 -242.386069 
L 328.287307 -244.501441 
L 331.137193 -246.612694 
L 333.987078 -248.737607 
L 336.836963 -250.847646 
L 339.686849 -253.071022 
L 342.536734 -255.217487 
L 345.38662 -257.428575 
L 348.236505 -259.533959 
L 351.08639 -261.636717 
L 353.936276 -263.743886 
L 356.786161 -265.84164 
L 359.636047 -267.939105 
L 362.485932 -270.037511 
L 365.335817 -272.13714 
L 368.185703 -274.273995 
L 371.035588 -276.37212 
L 373.885474 -278.466678 
L 376.735359 -280.565008 
L 379.585244 -282.66094 
L 382.43513 -284.758145 
L 385.285015 -286.886365 
L 388.134901 -288.982033 
L 390.984786 -291.077674 
L 393.834672 -293.170391 
L 396.684557 -295.310601 
L 399.534442 -297.402877 
L 402.384328 -299.495365 
L 405.234213 -301.581079 
L 408.084099 -303.664696 
L 410.933984 -305.750812 
L 413.783869 -307.834387 
L 416.633755 -309.915505 
L 419.48364 -311.99684 
L 422.333526 -314.073917 
L 425.183411 -316.154583 
L 428.033296 -318.240022 
L 430.883182 -319.835455 
L 430.883182 -316.198457 
L 430.883182 -316.198457 
L 428.033296 -314.155182 
L 425.183411 -312.112347 
L 422.333526 -309.979471 
L 419.48364 -307.931691 
L 416.633755 -305.882808 
L 413.783869 -303.830803 
L 410.933984 -301.779865 
L 408.084099 -299.732722 
L 405.234213 -297.681598 
L 402.384328 -295.554756 
L 399.534442 -293.475022 
L 396.684557 -291.431896 
L 393.834672 -289.384931 
L 390.984786 -287.34744 
L 388.134901 -285.287284 
L 385.285015 -283.234261 
L 382.43513 -281.176953 
L 379.585244 -279.11992 
L 376.735359 -277.062002 
L 373.885474 -275.005289 
L 371.035588 -272.910526 
L 368.185703 -270.852761 
L 365.335817 -268.795324 
L 362.485932 -266.740001 
L 359.636047 -264.681446 
L 356.786161 -262.627213 
L 353.936276 -260.534114 
L 351.08639 -258.419946 
L 348.236505 -256.358044 
L 345.38662 -254.291517 
L 342.536734 -252.223805 
L 339.686849 -250.15706 
L 336.836963 -248.092156 
L 333.987078 -246.025995 
L 331.137193 -243.963164 
L 328.287307 -241.901982 
L 325.437422 -239.840355 
L 322.587536 -237.776181 
L 319.737651 -235.715073 
L 316.887765 -233.647196 
L 314.03788 -231.581959 
L 311.187995 -229.512404 
L 308.338109 -227.444638 
L 305.488224 -225.376834 
L 302.638338 -223.305075 
L 299.788453 -221.236763 
L 296.938568 -219.166724 
L 294.088682 -217.052941 
L 291.238797 -214.980928 
L 288.388911 -212.907166 
L 285.539026 -210.836092 
L 282.689141 -208.763623 
L 279.839255 -206.686701 
L 276.98937 -204.60919 
L 274.139484 -202.533922 
L 271.289599 -200.453714 
L 268.439714 -198.370555 
L 265.589828 -196.287757 
L 262.739943 -194.201935 
L 259.890057 -192.118333 
L 257.040172 -190.030931 
L 254.190286 -187.937218 
L 251.340401 -185.847006 
L 248.490516 -183.752709 
L 245.64063 -181.658159 
L 242.790745 -179.563983 
L 239.940859 -177.461712 
L 237.090974 -175.362557 
L 234.241089 -173.259928 
L 231.391203 -171.153661 
L 228.541318 -169.0449 
L 225.691432 -166.934068 
L 222.841547 -164.818395 
L 219.991662 -162.701854 
L 217.141776 -160.584504 
L 214.291891 -158.464428 
L 211.442005 -156.339295 
L 208.59212 -154.205055 
L 205.742235 -152.074072 
L 202.892349 -149.933988 
L 200.042464 -147.791412 
L 197.192578 -145.648947 
L 194.342693 -143.504533 
L 191.492807 -141.362425 
L 188.642922 -139.219238 
L 185.793037 -137.07685 
L 182.943151 -134.93656 
L 180.093266 -132.779865 
L 177.24338 -130.632652 
L 174.393495 -128.477633 
L 171.54361 -126.329129 
L 168.693724 -124.176795 
L 165.843839 -122.02427 
L 162.993953 -119.866574 
L 160.144068 -117.703924 
L 157.294183 -115.538507 
L 154.444297 -113.372005 
L 151.594412 -111.207476 
L 148.744526 -109.03718 
L 145.894641 -106.861891 
L 143.044756 -104.683089 
L 140.19487 -102.497234 
L 137.344985 -100.303244 
L 134.495099 -98.104583 
L 131.645214 -95.904889 
L 128.795328 -93.69912 
L 125.945443 -91.490221 
L 123.095558 -89.278876 
L 120.245672 -87.065968 
L 117.395787 -84.851563 
L 114.545901 -82.632032 
L 111.696016 -80.41226 
L 108.846131 -78.188925 
L 105.996245 -75.958119 
L 103.14636 -73.722153 
L 100.296474 -71.480735 
L 97.446589 -69.239131 
L 94.596704 -66.993728 
L 91.746818 -65.056939 
z
" style="stroke: #ffffff; stroke-opacity: 0.5"/>
    </defs>
    <g clip-path="url(#p4454e3b127)">
     <use xlink:href="#m6ef9f79007" x="0" y="345.6" style="fill: #4c72b0; fill-opacity: 0.5; stroke: #ffffff; stroke-opacity: 0.5"/>
    </g>
   </g>
   <g id="PolyCollection_2">
    <defs>
     <path id="m76620e19ca" d="M 91.746818 -63.744735 
L 91.746818 -63.745612 
L 94.596704 -63.760583 
L 97.446589 -63.77471 
L 100.296474 -63.78843 
L 103.14636 -63.908784 
L 105.996245 -64.03094 
L 108.846131 -64.155379 
L 111.696016 -64.277328 
L 114.545901 -64.398492 
L 117.395787 -64.5176 
L 120.245672 -64.633641 
L 123.095558 -64.755209 
L 125.945443 -64.874371 
L 128.795328 -64.996464 
L 131.645214 -65.117921 
L 134.495099 -65.240859 
L 137.344985 -65.365496 
L 140.19487 -65.485333 
L 143.044756 -65.608794 
L 145.894641 -65.728289 
L 148.744526 -65.849754 
L 151.594412 -65.975842 
L 154.444297 -66.095487 
L 157.294183 -66.217378 
L 160.144068 -66.339792 
L 162.993953 -66.462712 
L 165.843839 -66.584585 
L 168.693724 -66.704331 
L 171.54361 -66.825925 
L 174.393495 -66.949542 
L 177.24338 -67.066235 
L 180.093266 -67.186126 
L 182.943151 -67.306185 
L 185.793037 -67.426176 
L 188.642922 -67.546636 
L 191.492807 -67.667097 
L 194.342693 -67.784556 
L 197.192578 -67.903826 
L 200.042464 -68.022666 
L 202.892349 -68.141696 
L 205.742235 -68.259894 
L 208.59212 -68.376572 
L 211.442005 -68.489529 
L 214.291891 -68.606138 
L 217.141776 -68.723915 
L 219.991662 -68.838816 
L 222.841547 -68.960012 
L 225.691432 -69.082814 
L 228.541318 -69.199387 
L 231.391203 -69.313959 
L 234.241089 -69.435932 
L 237.090974 -69.553705 
L 239.940859 -69.673011 
L 242.790745 -69.789537 
L 245.64063 -69.90967 
L 248.490516 -70.02691 
L 251.340401 -70.144529 
L 254.190286 -70.263489 
L 257.040172 -70.379962 
L 259.890057 -70.49858 
L 262.739943 -70.615524 
L 265.589828 -70.734985 
L 268.439714 -70.853041 
L 271.289599 -70.971373 
L 274.139484 -71.087747 
L 276.98937 -71.20452 
L 279.839255 -71.319448 
L 282.689141 -71.436375 
L 285.539026 -71.553515 
L 288.388911 -71.670738 
L 291.238797 -71.789532 
L 294.088682 -71.908104 
L 296.938568 -72.026113 
L 299.788453 -72.143603 
L 302.638338 -72.259261 
L 305.488224 -72.376114 
L 308.338109 -72.490712 
L 311.187995 -72.609283 
L 314.03788 -72.731084 
L 316.887765 -72.847109 
L 319.737651 -72.967023 
L 322.587536 -73.082935 
L 325.437422 -73.202087 
L 328.287307 -73.317634 
L 331.137193 -73.435727 
L 333.987078 -73.553241 
L 336.836963 -73.669322 
L 339.686849 -73.787228 
L 342.536734 -73.903595 
L 345.38662 -74.02233 
L 348.236505 -74.138742 
L 351.08639 -74.257456 
L 353.936276 -74.371028 
L 356.786161 -74.487203 
L 359.636047 -74.602531 
L 362.485932 -74.721605 
L 365.335817 -74.838139 
L 368.185703 -74.959763 
L 371.035588 -75.077178 
L 373.885474 -75.194908 
L 376.735359 -75.311912 
L 379.585244 -75.429061 
L 382.43513 -75.552616 
L 385.285015 -75.6718 
L 388.134901 -75.790905 
L 390.984786 -75.908104 
L 393.834672 -76.026477 
L 396.684557 -76.144016 
L 399.534442 -76.260576 
L 402.384328 -76.379603 
L 405.234213 -76.499093 
L 408.084099 -76.617498 
L 410.933984 -76.732194 
L 413.783869 -76.851903 
L 416.633755 -76.968924 
L 419.48364 -77.088264 
L 422.333526 -77.207273 
L 425.183411 -77.324373 
L 428.033296 -77.439553 
L 430.883182 -77.56064 
L 430.883182 -77.226405 
L 430.883182 -77.226405 
L 428.033296 -77.108782 
L 425.183411 -76.995098 
L 422.333526 -76.882144 
L 419.48364 -76.763962 
L 416.633755 -76.650057 
L 413.783869 -76.535844 
L 410.933984 -76.419915 
L 408.084099 -76.306295 
L 405.234213 -76.192245 
L 402.384328 -76.077938 
L 399.534442 -75.965598 
L 396.684557 -75.849862 
L 393.834672 -75.736448 
L 390.984786 -75.618493 
L 388.134901 -75.504847 
L 385.285015 -75.39066 
L 382.43513 -75.275396 
L 379.585244 -75.161297 
L 376.735359 -75.041758 
L 373.885474 -74.92612 
L 371.035588 -74.807069 
L 368.185703 -74.68885 
L 365.335817 -74.573962 
L 362.485932 -74.458409 
L 359.636047 -74.342217 
L 356.786161 -74.225958 
L 353.936276 -74.106862 
L 351.08639 -73.991408 
L 348.236505 -73.874795 
L 345.38662 -73.759005 
L 342.536734 -73.644864 
L 339.686849 -73.529677 
L 336.836963 -73.416072 
L 333.987078 -73.29952 
L 331.137193 -73.185692 
L 328.287307 -73.071051 
L 325.437422 -72.955334 
L 322.587536 -72.839363 
L 319.737651 -72.72604 
L 316.887765 -72.608404 
L 314.03788 -72.493277 
L 311.187995 -72.37581 
L 308.338109 -72.258895 
L 305.488224 -72.143328 
L 302.638338 -72.026879 
L 299.788453 -71.911053 
L 296.938568 -71.792204 
L 294.088682 -71.676627 
L 291.238797 -71.559759 
L 288.388911 -71.443019 
L 285.539026 -71.323261 
L 282.689141 -71.20836 
L 279.839255 -71.096766 
L 276.98937 -70.981618 
L 274.139484 -70.864953 
L 271.289599 -70.751341 
L 268.439714 -70.63433 
L 265.589828 -70.520614 
L 262.739943 -70.402446 
L 259.890057 -70.287388 
L 257.040172 -70.169817 
L 254.190286 -70.053815 
L 251.340401 -69.937589 
L 248.490516 -69.823836 
L 245.64063 -69.707869 
L 242.790745 -69.593067 
L 239.940859 -69.474235 
L 237.090974 -69.354898 
L 234.241089 -69.235306 
L 231.391203 -69.116841 
L 228.541318 -69.001075 
L 225.691432 -68.887118 
L 222.841547 -68.76753 
L 219.991662 -68.646918 
L 217.141776 -68.531058 
L 214.291891 -68.414055 
L 211.442005 -68.302086 
L 208.59212 -68.18006 
L 205.742235 -68.063771 
L 202.892349 -67.946458 
L 200.042464 -67.830702 
L 197.192578 -67.715043 
L 194.342693 -67.600334 
L 191.492807 -67.483503 
L 188.642922 -67.370538 
L 185.793037 -67.255536 
L 182.943151 -67.138985 
L 180.093266 -67.024808 
L 177.24338 -66.909075 
L 174.393495 -66.794458 
L 171.54361 -66.679495 
L 168.693724 -66.564419 
L 165.843839 -66.44595 
L 162.993953 -66.331505 
L 160.144068 -66.215915 
L 157.294183 -66.100562 
L 154.444297 -65.982583 
L 151.594412 -65.864698 
L 148.744526 -65.748181 
L 145.894641 -65.632177 
L 143.044756 -65.51471 
L 140.19487 -65.40098 
L 137.344985 -65.284936 
L 134.495099 -65.16788 
L 131.645214 -65.049111 
L 128.795328 -64.934991 
L 125.945443 -64.822227 
L 123.095558 -64.709827 
L 120.245672 -64.595349 
L 117.395787 -64.479509 
L 114.545901 -64.364156 
L 111.696016 -64.248873 
L 108.846131 -64.133719 
L 105.996245 -64.020489 
L 103.14636 -63.903888 
L 100.296474 -63.786432 
L 97.446589 -63.77272 
L 94.596704 -63.758727 
L 91.746818 -63.744735 
z
" style="stroke: #ffffff; stroke-opacity: 0.5"/>
    </defs>
    <g clip-path="url(#p4454e3b127)">
     <use xlink:href="#m76620e19ca" x="0" y="345.6" style="fill: #dd8452; fill-opacity: 0.5; stroke: #ffffff; stroke-opacity: 0.5"/>
    </g>
   </g>
   <g id="PolyCollection_3">
    <defs>
     <path id="me28ca0ebe0" d="M 91.746818 -63.744545 
L 91.746818 -63.745312 
L 94.596704 -63.759439 
L 97.446589 -63.773408 
L 100.296474 -63.787666 
L 103.14636 -63.909653 
L 105.996245 -64.032318 
L 108.846131 -64.155888 
L 111.696016 -64.276863 
L 114.545901 -64.396376 
L 117.395787 -64.516488 
L 120.245672 -64.636924 
L 123.095558 -64.754836 
L 125.945443 -64.873623 
L 128.795328 -64.993265 
L 131.645214 -65.114688 
L 134.495099 -65.236705 
L 137.344985 -65.358255 
L 140.19487 -65.479493 
L 143.044756 -65.602649 
L 145.894641 -65.725255 
L 148.744526 -65.849349 
L 151.594412 -65.969687 
L 154.444297 -66.093811 
L 157.294183 -66.213479 
L 160.144068 -66.334709 
L 162.993953 -66.457288 
L 165.843839 -66.58206 
L 168.693724 -66.704812 
L 171.54361 -66.825021 
L 174.393495 -66.945401 
L 177.24338 -67.065403 
L 180.093266 -67.18784 
L 182.943151 -67.310121 
L 185.793037 -67.432974 
L 188.642922 -67.555546 
L 191.492807 -67.679691 
L 194.342693 -67.802793 
L 197.192578 -67.924758 
L 200.042464 -68.047303 
L 202.892349 -68.168303 
L 205.742235 -68.287135 
L 208.59212 -68.410277 
L 211.442005 -68.529569 
L 214.291891 -68.650823 
L 217.141776 -68.770324 
L 219.991662 -68.890147 
L 222.841547 -69.009453 
L 225.691432 -69.129506 
L 228.541318 -69.250781 
L 231.391203 -69.374085 
L 234.241089 -69.493308 
L 237.090974 -69.615676 
L 239.940859 -69.736019 
L 242.790745 -69.855296 
L 245.64063 -69.976598 
L 248.490516 -70.096224 
L 251.340401 -70.213864 
L 254.190286 -70.335103 
L 257.040172 -70.454931 
L 259.890057 -70.574736 
L 262.739943 -70.696891 
L 265.589828 -70.814308 
L 268.439714 -70.932313 
L 271.289599 -71.050998 
L 274.139484 -71.172272 
L 276.98937 -71.289809 
L 279.839255 -71.405976 
L 282.689141 -71.522925 
L 285.539026 -71.643431 
L 288.388911 -71.766286 
L 291.238797 -71.884074 
L 294.088682 -72.005443 
L 296.938568 -72.121333 
L 299.788453 -72.240825 
L 302.638338 -72.359424 
L 305.488224 -72.478802 
L 308.338109 -72.595025 
L 311.187995 -72.712069 
L 314.03788 -72.831171 
L 316.887765 -72.950624 
L 319.737651 -73.068329 
L 322.587536 -73.184755 
L 325.437422 -73.305114 
L 328.287307 -73.423625 
L 331.137193 -73.545972 
L 333.987078 -73.664117 
L 336.836963 -73.783027 
L 339.686849 -73.900532 
L 342.536734 -74.015893 
L 345.38662 -74.131491 
L 348.236505 -74.249286 
L 351.08639 -74.365455 
L 353.936276 -74.486238 
L 356.786161 -74.607624 
L 359.636047 -74.726719 
L 362.485932 -74.847443 
L 365.335817 -74.964744 
L 368.185703 -75.082357 
L 371.035588 -75.19927 
L 373.885474 -75.317502 
L 376.735359 -75.433275 
L 379.585244 -75.552444 
L 382.43513 -75.670494 
L 385.285015 -75.7908 
L 388.134901 -75.909834 
L 390.984786 -76.030486 
L 393.834672 -76.148544 
L 396.684557 -76.266593 
L 399.534442 -76.385349 
L 402.384328 -76.505774 
L 405.234213 -76.627556 
L 408.084099 -76.74357 
L 410.933984 -76.861098 
L 413.783869 -76.981685 
L 416.633755 -77.096196 
L 419.48364 -77.214461 
L 422.333526 -77.333235 
L 425.183411 -77.451571 
L 428.033296 -77.571986 
L 430.883182 -77.687948 
L 430.883182 -77.323992 
L 430.883182 -77.323992 
L 428.033296 -77.208394 
L 425.183411 -77.092028 
L 422.333526 -76.977224 
L 419.48364 -76.862155 
L 416.633755 -76.742839 
L 413.783869 -76.624483 
L 410.933984 -76.510263 
L 408.084099 -76.392015 
L 405.234213 -76.276925 
L 402.384328 -76.159422 
L 399.534442 -76.041973 
L 396.684557 -75.919853 
L 393.834672 -75.803707 
L 390.984786 -75.68706 
L 388.134901 -75.571085 
L 385.285015 -75.454809 
L 382.43513 -75.339714 
L 379.585244 -75.223217 
L 376.735359 -75.108952 
L 373.885474 -74.9908 
L 371.035588 -74.873892 
L 368.185703 -74.755436 
L 365.335817 -74.636175 
L 362.485932 -74.518677 
L 359.636047 -74.402943 
L 356.786161 -74.28797 
L 353.936276 -74.174447 
L 351.08639 -74.057179 
L 348.236505 -73.937194 
L 345.38662 -73.823224 
L 342.536734 -73.708736 
L 339.686849 -73.593962 
L 336.836963 -73.481794 
L 333.987078 -73.367293 
L 331.137193 -73.25009 
L 328.287307 -73.131099 
L 325.437422 -73.014531 
L 322.587536 -72.898068 
L 319.737651 -72.781727 
L 316.887765 -72.664333 
L 314.03788 -72.547885 
L 311.187995 -72.429557 
L 308.338109 -72.313127 
L 305.488224 -72.194499 
L 302.638338 -72.076697 
L 299.788453 -71.957545 
L 296.938568 -71.8405 
L 294.088682 -71.72459 
L 291.238797 -71.605777 
L 288.388911 -71.488293 
L 285.539026 -71.37013 
L 282.689141 -71.251089 
L 279.839255 -71.136434 
L 276.98937 -71.01738 
L 274.139484 -70.901891 
L 271.289599 -70.785704 
L 268.439714 -70.669492 
L 265.589828 -70.553409 
L 262.739943 -70.439522 
L 259.890057 -70.325077 
L 257.040172 -70.208374 
L 254.190286 -70.090631 
L 251.340401 -69.974163 
L 248.490516 -69.857995 
L 245.64063 -69.743334 
L 242.790745 -69.628794 
L 239.940859 -69.51362 
L 237.090974 -69.398264 
L 234.241089 -69.27924 
L 231.391203 -69.162335 
L 228.541318 -69.046888 
L 225.691432 -68.931943 
L 222.841547 -68.810982 
L 219.991662 -68.694252 
L 217.141776 -68.57647 
L 214.291891 -68.459113 
L 211.442005 -68.34598 
L 208.59212 -68.227468 
L 205.742235 -68.111058 
L 202.892349 -67.996787 
L 200.042464 -67.877051 
L 197.192578 -67.759667 
L 194.342693 -67.640705 
L 191.492807 -67.522146 
L 188.642922 -67.405403 
L 185.793037 -67.282875 
L 182.943151 -67.167973 
L 180.093266 -67.051018 
L 177.24338 -66.934771 
L 174.393495 -66.817263 
L 171.54361 -66.699504 
L 168.693724 -66.582552 
L 165.843839 -66.465164 
L 162.993953 -66.351452 
L 160.144068 -66.235534 
L 157.294183 -66.120279 
L 154.444297 -66.003968 
L 151.594412 -65.88786 
L 148.744526 -65.771959 
L 145.894641 -65.656709 
L 143.044756 -65.541095 
L 140.19487 -65.425789 
L 137.344985 -65.308736 
L 134.495099 -65.191998 
L 131.645214 -65.074396 
L 128.795328 -64.960119 
L 125.945443 -64.842836 
L 123.095558 -64.727373 
L 120.245672 -64.610275 
L 117.395787 -64.493881 
L 114.545901 -64.378372 
L 111.696016 -64.258925 
L 108.846131 -64.141501 
L 105.996245 -64.023695 
L 103.14636 -63.905632 
L 100.296474 -63.785617 
L 97.446589 -63.771576 
L 94.596704 -63.758195 
L 91.746818 -63.744545 
z
" style="stroke: #ffffff; stroke-opacity: 0.5"/>
    </defs>
    <g clip-path="url(#p4454e3b127)">
     <use xlink:href="#me28ca0ebe0" x="0" y="345.6" style="fill: #55a868; fill-opacity: 0.5; stroke: #ffffff; stroke-opacity: 0.5"/>
    </g>
   </g>
   <g id="PolyCollection_4">
    <defs>
     <path id="m9a42fd8b75" d="M 91.746818 -63.761585 
L 91.746818 -63.763394 
L 94.596704 -63.800055 
L 97.446589 -63.838276 
L 100.296474 -63.874695 
L 103.14636 -64.08205 
L 105.996245 -64.289198 
L 108.846131 -64.493727 
L 111.696016 -64.697694 
L 114.545901 -64.903279 
L 117.395787 -65.107869 
L 120.245672 -65.316194 
L 123.095558 -65.518966 
L 125.945443 -65.720442 
L 128.795328 -65.926098 
L 131.645214 -66.135548 
L 134.495099 -66.345265 
L 137.344985 -66.550938 
L 140.19487 -66.756564 
L 143.044756 -66.962594 
L 145.894641 -67.168679 
L 148.744526 -67.379942 
L 151.594412 -67.58833 
L 154.444297 -67.790375 
L 157.294183 -67.992355 
L 160.144068 -68.194482 
L 162.993953 -68.40056 
L 165.843839 -68.607886 
L 168.693724 -68.815871 
L 171.54361 -69.022026 
L 174.393495 -69.233659 
L 177.24338 -69.441009 
L 180.093266 -69.646426 
L 182.943151 -69.856567 
L 185.793037 -70.069753 
L 188.642922 -70.282462 
L 191.492807 -70.490064 
L 194.342693 -70.690011 
L 197.192578 -70.899273 
L 200.042464 -71.11143 
L 202.892349 -71.324219 
L 205.742235 -71.529623 
L 208.59212 -71.73621 
L 211.442005 -71.945505 
L 214.291891 -72.156511 
L 217.141776 -72.365161 
L 219.991662 -72.57094 
L 222.841547 -72.776653 
L 225.691432 -72.983828 
L 228.541318 -73.1941 
L 231.391203 -73.400189 
L 234.241089 -73.603579 
L 237.090974 -73.807105 
L 239.940859 -74.010585 
L 242.790745 -74.217149 
L 245.64063 -74.424384 
L 248.490516 -74.630158 
L 251.340401 -74.836873 
L 254.190286 -75.041145 
L 257.040172 -75.255127 
L 259.890057 -75.460883 
L 262.739943 -75.665118 
L 265.589828 -75.867636 
L 268.439714 -76.072903 
L 271.289599 -76.280055 
L 274.139484 -76.483209 
L 276.98937 -76.688706 
L 279.839255 -76.89506 
L 282.689141 -77.103734 
L 285.539026 -77.310156 
L 288.388911 -77.516604 
L 291.238797 -77.730192 
L 294.088682 -77.937281 
L 296.938568 -78.145255 
L 299.788453 -78.350268 
L 302.638338 -78.555134 
L 305.488224 -78.76468 
L 308.338109 -78.970034 
L 311.187995 -79.173558 
L 314.03788 -79.375852 
L 316.887765 -79.581371 
L 319.737651 -79.787585 
L 322.587536 -79.988643 
L 325.437422 -80.19421 
L 328.287307 -80.398022 
L 331.137193 -80.595939 
L 333.987078 -80.79642 
L 336.836963 -80.998054 
L 339.686849 -81.20582 
L 342.536734 -81.406441 
L 345.38662 -81.608391 
L 348.236505 -81.814906 
L 351.08639 -82.018698 
L 353.936276 -82.219284 
L 356.786161 -82.421082 
L 359.636047 -82.627672 
L 362.485932 -82.83011 
L 365.335817 -83.036571 
L 368.185703 -83.238571 
L 371.035588 -83.438204 
L 373.885474 -83.636927 
L 376.735359 -83.841432 
L 379.585244 -84.04537 
L 382.43513 -84.251336 
L 385.285015 -84.457147 
L 388.134901 -84.65881 
L 390.984786 -84.857713 
L 393.834672 -85.062697 
L 396.684557 -85.267584 
L 399.534442 -85.466665 
L 402.384328 -85.668263 
L 405.234213 -85.865899 
L 408.084099 -86.072201 
L 410.933984 -86.273952 
L 413.783869 -86.476307 
L 416.633755 -86.677797 
L 419.48364 -86.881356 
L 422.333526 -87.079339 
L 425.183411 -87.281698 
L 428.033296 -87.493122 
L 430.883182 -87.697671 
L 430.883182 -87.67957 
L 430.883182 -87.67957 
L 428.033296 -87.471003 
L 425.183411 -87.263153 
L 422.333526 -87.05445 
L 419.48364 -86.845802 
L 416.633755 -86.641897 
L 413.783869 -86.43633 
L 410.933984 -86.23034 
L 408.084099 -86.025891 
L 405.234213 -85.822553 
L 402.384328 -85.615614 
L 399.534442 -85.410307 
L 396.684557 -85.201159 
L 393.834672 -84.99516 
L 390.984786 -84.78573 
L 388.134901 -84.584036 
L 385.285015 -84.380558 
L 382.43513 -84.178251 
L 379.585244 -83.970012 
L 376.735359 -83.767259 
L 373.885474 -83.564185 
L 371.035588 -83.36042 
L 368.185703 -83.156401 
L 365.335817 -82.951586 
L 362.485932 -82.746936 
L 359.636047 -82.541861 
L 356.786161 -82.335816 
L 353.936276 -82.133245 
L 351.08639 -81.929203 
L 348.236505 -81.726197 
L 345.38662 -81.525887 
L 342.536734 -81.318011 
L 339.686849 -81.114566 
L 336.836963 -80.91032 
L 333.987078 -80.704732 
L 331.137193 -80.503778 
L 328.287307 -80.297807 
L 325.437422 -80.0929 
L 322.587536 -79.880877 
L 319.737651 -79.678351 
L 316.887765 -79.475502 
L 314.03788 -79.270351 
L 311.187995 -79.069055 
L 308.338109 -78.865239 
L 305.488224 -78.668424 
L 302.638338 -78.466746 
L 299.788453 -78.262622 
L 296.938568 -78.059423 
L 294.088682 -77.857207 
L 291.238797 -77.655219 
L 288.388911 -77.450669 
L 285.539026 -77.248836 
L 282.689141 -77.045701 
L 279.839255 -76.845742 
L 276.98937 -76.640417 
L 274.139484 -76.437996 
L 271.289599 -76.235602 
L 268.439714 -76.032516 
L 265.589828 -75.826613 
L 262.739943 -75.619478 
L 259.890057 -75.408959 
L 257.040172 -75.203545 
L 254.190286 -74.990454 
L 251.340401 -74.785364 
L 248.490516 -74.5795 
L 245.64063 -74.376641 
L 242.790745 -74.171824 
L 239.940859 -73.966297 
L 237.090974 -73.764965 
L 234.241089 -73.560241 
L 231.391203 -73.35422 
L 228.541318 -73.145299 
L 225.691432 -72.938109 
L 222.841547 -72.729564 
L 219.991662 -72.526347 
L 217.141776 -72.318621 
L 214.291891 -72.112873 
L 211.442005 -71.907582 
L 208.59212 -71.701712 
L 205.742235 -71.497584 
L 202.892349 -71.297164 
L 200.042464 -71.084089 
L 197.192578 -70.877794 
L 194.342693 -70.67172 
L 191.492807 -70.473602 
L 188.642922 -70.267337 
L 185.793037 -70.059687 
L 182.943151 -69.852368 
L 180.093266 -69.646232 
L 177.24338 -69.433611 
L 174.393495 -69.229519 
L 171.54361 -69.018902 
L 168.693724 -68.814134 
L 165.843839 -68.605762 
L 162.993953 -68.400048 
L 160.144068 -68.192778 
L 157.294183 -67.991786 
L 154.444297 -67.782436 
L 151.594412 -67.57282 
L 148.744526 -67.36314 
L 145.894641 -67.152861 
L 143.044756 -66.942724 
L 140.19487 -66.736489 
L 137.344985 -66.531056 
L 134.495099 -66.326056 
L 131.645214 -66.117467 
L 128.795328 -65.910819 
L 125.945443 -65.704185 
L 123.095558 -65.509861 
L 120.245672 -65.305639 
L 117.395787 -65.09991 
L 114.545901 -64.89465 
L 111.696016 -64.688856 
L 108.846131 -64.482677 
L 105.996245 -64.278845 
L 103.14636 -64.073837 
L 100.296474 -63.870159 
L 97.446589 -63.833639 
L 94.596704 -63.796785 
L 91.746818 -63.761585 
z
" style="stroke: #ffffff; stroke-opacity: 0.5"/>
    </defs>
    <g clip-path="url(#p4454e3b127)">
     <use xlink:href="#m9a42fd8b75" x="0" y="345.6" style="fill: #c44e52; fill-opacity: 0.5; stroke: #ffffff; stroke-opacity: 0.5"/>
    </g>
   </g>
   <g id="line2d_14">
    <path d="M 91.746818 279.947384 
L 94.596704 277.769651 
L 97.446589 275.528775 
L 100.296474 273.294058 
L 103.14636 271.063756 
L 105.996245 268.838393 
L 108.846131 266.614846 
L 111.696016 264.394699 
L 114.545901 262.179162 
L 117.395787 259.96674 
L 120.245672 257.759546 
L 123.095558 255.554893 
L 125.945443 253.352648 
L 128.795328 251.153994 
L 131.645214 248.959439 
L 134.495099 246.767413 
L 137.344985 244.578126 
L 140.19487 242.394204 
L 143.044756 240.21498 
L 145.894641 238.039348 
L 148.744526 235.867649 
L 151.594412 233.700088 
L 154.444297 231.5354 
L 157.294183 229.370173 
L 160.144068 227.20863 
L 162.993953 225.049147 
L 165.843839 222.895255 
L 168.693724 220.743957 
L 171.54361 218.592454 
L 174.393495 216.441866 
L 177.24338 214.293015 
L 180.093266 212.140642 
L 182.943151 209.996993 
L 185.793037 207.854651 
L 188.642922 205.714618 
L 191.492807 203.575233 
L 194.342693 201.436141 
L 197.192578 199.297792 
L 200.042464 197.158172 
L 202.892349 195.018562 
L 205.742235 192.883829 
L 208.59212 190.751806 
L 211.442005 188.620751 
L 214.291891 186.494812 
L 217.141776 184.373006 
L 219.991662 182.248262 
L 222.841547 180.12508 
L 225.691432 178.002355 
L 228.541318 175.882192 
L 231.391203 173.764753 
L 234.241089 171.647483 
L 237.090974 169.532545 
L 239.940859 167.417952 
L 242.790745 165.30573 
L 245.64063 163.19534 
L 248.490516 161.083371 
L 251.340401 158.970525 
L 254.190286 156.859068 
L 257.040172 154.74774 
L 259.890057 152.638691 
L 262.739943 150.53257 
L 265.589828 148.425689 
L 268.439714 146.320122 
L 271.289599 144.214447 
L 274.139484 142.11057 
L 276.98937 140.009526 
L 279.839255 137.907378 
L 282.689141 135.805806 
L 285.539026 133.704078 
L 288.388911 131.602427 
L 291.238797 129.500057 
L 294.088682 127.398259 
L 296.938568 125.288001 
L 299.788453 123.18822 
L 302.638338 121.089453 
L 305.488224 118.989732 
L 308.338109 116.877051 
L 311.187995 114.772176 
L 314.03788 112.677116 
L 316.887765 110.584274 
L 319.737651 108.472204 
L 322.587536 106.381146 
L 325.437422 104.276165 
L 328.287307 102.187088 
L 331.137193 100.098662 
L 333.987078 97.967997 
L 336.836963 95.87954 
L 339.686849 93.769797 
L 342.536734 91.674251 
L 345.38662 89.565604 
L 348.236505 87.466795 
L 351.08639 85.384198 
L 353.936276 83.289975 
L 356.786161 81.17447 
L 359.636047 79.098872 
L 362.485932 77.021002 
L 365.335817 74.944096 
L 368.185703 72.859163 
L 371.035588 70.781872 
L 373.885474 68.699853 
L 376.735359 66.624496 
L 379.585244 64.549319 
L 382.43513 62.474558 
L 385.285015 60.393093 
L 388.134901 58.320445 
L 390.984786 56.213092 
L 393.834672 54.143852 
L 396.684557 52.059428 
L 399.534442 49.948337 
L 402.384328 47.862538 
L 405.234213 45.736596 
L 408.084099 43.67064 
L 410.933984 41.58916 
L 413.783869 39.524571 
L 416.633755 37.462802 
L 419.48364 35.389988 
L 422.333526 33.324309 
L 425.183411 31.2474 
L 428.033296 29.145783 
L 430.883182 27.442298 
" clip-path="url(#p4454e3b127)" style="fill: none; stroke: #4c72b0; stroke-width: 3; stroke-linecap: round"/>
   </g>
   <g id="line2d_15">
    <path d="M 91.746818 281.854811 
L 94.596704 281.840474 
L 97.446589 281.826457 
L 100.296474 281.812606 
L 103.14636 281.692865 
L 105.996245 281.573457 
L 108.846131 281.453563 
L 111.696016 281.333314 
L 114.545901 281.213251 
L 117.395787 281.094194 
L 120.245672 280.975593 
L 123.095558 280.856124 
L 125.945443 280.738307 
L 128.795328 280.61776 
L 131.645214 280.49811 
L 134.495099 280.379156 
L 137.344985 280.258917 
L 140.19487 280.13983 
L 143.044756 280.022425 
L 145.894641 279.9035 
L 148.744526 279.786589 
L 151.594412 279.666863 
L 154.444297 279.548748 
L 157.294183 279.42968 
L 160.144068 279.310883 
L 162.993953 279.192362 
L 165.843839 279.074532 
L 168.693724 278.955545 
L 171.54361 278.837286 
L 174.393495 278.719187 
L 177.24338 278.601804 
L 180.093266 278.484521 
L 182.943151 278.366437 
L 185.793037 278.24756 
L 188.642922 278.12869 
L 191.492807 278.011281 
L 194.342693 277.894185 
L 197.192578 277.775757 
L 200.042464 277.657513 
L 202.892349 277.540223 
L 205.742235 277.4215 
L 208.59212 277.304385 
L 211.442005 277.186846 
L 214.291891 277.07221 
L 217.141776 276.954557 
L 219.991662 276.838209 
L 222.841547 276.719173 
L 225.691432 276.599364 
L 228.541318 276.482267 
L 231.391203 276.36479 
L 234.241089 276.244468 
L 237.090974 276.1263 
L 239.940859 276.008422 
L 242.790745 275.890039 
L 245.64063 275.772541 
L 248.490516 275.654984 
L 251.340401 275.538144 
L 254.190286 275.419799 
L 257.040172 275.302859 
L 259.890057 275.184685 
L 262.739943 275.067855 
L 265.589828 274.950146 
L 268.439714 274.832251 
L 271.289599 274.714378 
L 274.139484 274.597632 
L 276.98937 274.480287 
L 279.839255 274.36359 
L 282.689141 274.247783 
L 285.539026 274.129343 
L 288.388911 274.012354 
L 291.238797 273.894014 
L 294.088682 273.777525 
L 296.938568 273.658937 
L 299.788453 273.541145 
L 302.638338 273.424071 
L 305.488224 273.306403 
L 308.338109 273.188737 
L 311.187995 273.071004 
L 314.03788 272.953771 
L 316.887765 272.836048 
L 319.737651 272.717455 
L 322.587536 272.600883 
L 325.437422 272.482935 
L 328.287307 272.366827 
L 331.137193 272.249938 
L 333.987078 272.131094 
L 336.836963 272.013794 
L 339.686849 271.897853 
L 342.536734 271.781494 
L 345.38662 271.66498 
L 348.236505 271.548682 
L 351.08639 271.430634 
L 353.936276 271.314201 
L 356.786161 271.195676 
L 359.636047 271.079638 
L 362.485932 270.962206 
L 365.335817 270.843797 
L 368.185703 270.725943 
L 371.035588 270.607591 
L 373.885474 270.489103 
L 376.735359 270.371594 
L 379.585244 270.254507 
L 382.43513 270.136856 
L 385.285015 270.018977 
L 388.134901 269.902344 
L 390.984786 269.785952 
L 393.834672 269.666812 
L 396.684557 269.550394 
L 399.534442 269.433032 
L 402.384328 269.316489 
L 405.234213 269.19887 
L 408.084099 269.081397 
L 410.933984 268.965936 
L 413.783869 268.847106 
L 416.633755 268.731092 
L 419.48364 268.613643 
L 422.333526 268.495658 
L 425.183411 268.378699 
L 428.033296 268.262645 
L 430.883182 268.144334 
" clip-path="url(#p4454e3b127)" style="fill: none; stroke: #dd8452; stroke-width: 3; stroke-linecap: round"/>
   </g>
   <g id="line2d_16">
    <path d="M 91.746818 281.855136 
L 94.596704 281.841099 
L 97.446589 281.82735 
L 100.296474 281.813139 
L 103.14636 281.692326 
L 105.996245 281.572946 
L 108.846131 281.451963 
L 111.696016 281.333749 
L 114.545901 281.215265 
L 117.395787 281.096622 
L 120.245672 280.978204 
L 123.095558 280.858304 
L 125.945443 280.739574 
L 128.795328 280.620988 
L 131.645214 280.503626 
L 134.495099 280.385316 
L 137.344985 280.267768 
L 140.19487 280.149186 
L 143.044756 280.029693 
L 145.894641 279.910258 
L 148.744526 279.79096 
L 151.594412 279.673038 
L 154.444297 279.554634 
L 157.294183 279.435946 
L 160.144068 279.31867 
L 162.993953 279.20139 
L 165.843839 279.083815 
L 168.693724 278.966275 
L 171.54361 278.849019 
L 174.393495 278.730213 
L 177.24338 278.611752 
L 180.093266 278.492944 
L 182.943151 278.374184 
L 185.793037 278.256612 
L 188.642922 278.136828 
L 191.492807 278.016719 
L 194.342693 277.896359 
L 197.192578 277.777007 
L 200.042464 277.657342 
L 202.892349 277.539041 
L 205.742235 277.422749 
L 208.59212 277.303882 
L 211.442005 277.185007 
L 214.291891 277.068266 
L 217.141776 276.95073 
L 219.991662 276.833213 
L 222.841547 276.713404 
L 225.691432 276.594462 
L 228.541318 276.475515 
L 231.391203 276.357477 
L 234.241089 276.239455 
L 237.090974 276.120846 
L 239.940859 276.003516 
L 242.790745 275.886502 
L 245.64063 275.768298 
L 248.490516 275.652102 
L 251.340401 275.53511 
L 254.190286 275.417177 
L 257.040172 275.299372 
L 259.890057 275.181087 
L 262.739943 275.062035 
L 265.589828 274.945115 
L 268.439714 274.827643 
L 271.289599 274.709578 
L 274.139484 274.590613 
L 276.98937 274.473521 
L 279.839255 274.356713 
L 282.689141 274.240125 
L 285.539026 274.122586 
L 288.388911 274.003288 
L 291.238797 273.884876 
L 294.088682 273.765702 
L 296.938568 273.64907 
L 299.788453 273.531374 
L 302.638338 273.412811 
L 305.488224 273.293802 
L 308.338109 273.177365 
L 311.187995 273.060371 
L 314.03788 272.942738 
L 316.887765 272.82531 
L 319.737651 272.708382 
L 322.587536 272.59193 
L 325.437422 272.473738 
L 328.287307 272.355927 
L 331.137193 272.23818 
L 333.987078 272.121027 
L 336.836963 272.004425 
L 339.686849 271.888538 
L 342.536734 271.773427 
L 345.38662 271.657703 
L 348.236505 271.541308 
L 351.08639 271.422574 
L 353.936276 271.303987 
L 356.786161 271.185621 
L 359.636047 271.06929 
L 362.485932 270.952292 
L 365.335817 270.835718 
L 368.185703 270.717473 
L 371.035588 270.599662 
L 373.885474 270.483219 
L 376.735359 270.366608 
L 379.585244 270.249696 
L 382.43513 270.131664 
L 385.285015 270.014059 
L 388.134901 269.897255 
L 390.984786 269.780375 
L 393.834672 269.663861 
L 396.684557 269.547066 
L 399.534442 269.429736 
L 402.384328 269.311668 
L 405.234213 269.193349 
L 408.084099 269.076291 
L 410.933984 268.959293 
L 413.783869 268.841688 
L 416.633755 268.725371 
L 419.48364 268.607458 
L 422.333526 268.49015 
L 425.183411 268.372353 
L 428.033296 268.253643 
L 430.883182 268.135566 
" clip-path="url(#p4454e3b127)" style="fill: none; stroke: #55a868; stroke-width: 3; stroke-linecap: round"/>
   </g>
   <g id="line2d_17">
    <path d="M 91.746818 281.83751 
L 94.596704 281.80158 
L 97.446589 281.764043 
L 100.296474 281.727573 
L 103.14636 281.522056 
L 105.996245 281.315979 
L 108.846131 281.111798 
L 111.696016 280.906725 
L 114.545901 280.701036 
L 117.395787 280.496111 
L 120.245672 280.289083 
L 123.095558 280.085587 
L 125.945443 279.887687 
L 128.795328 279.681542 
L 131.645214 279.473492 
L 134.495099 279.26434 
L 137.344985 279.059003 
L 140.19487 278.853474 
L 143.044756 278.647341 
L 145.894641 278.43923 
L 148.744526 278.228459 
L 151.594412 278.019425 
L 154.444297 277.813594 
L 157.294183 277.60793 
L 160.144068 277.40637 
L 162.993953 277.199696 
L 165.843839 276.993176 
L 168.693724 276.784998 
L 171.54361 276.579536 
L 174.393495 276.368411 
L 177.24338 276.16269 
L 180.093266 275.953671 
L 182.943151 275.745533 
L 185.793037 275.53528 
L 188.642922 275.325101 
L 191.492807 275.118167 
L 194.342693 274.919134 
L 197.192578 274.711466 
L 200.042464 274.50224 
L 202.892349 274.289308 
L 205.742235 274.086397 
L 208.59212 273.881039 
L 211.442005 273.673456 
L 214.291891 273.465308 
L 217.141776 273.258109 
L 219.991662 273.051356 
L 222.841547 272.846891 
L 225.691432 272.639032 
L 228.541318 272.430301 
L 231.391203 272.222796 
L 234.241089 272.01809 
L 237.090974 271.813965 
L 239.940859 271.611559 
L 242.790745 271.405513 
L 245.64063 271.199488 
L 248.490516 270.995171 
L 251.340401 270.788882 
L 254.190286 270.5842 
L 257.040172 270.370664 
L 259.890057 270.165079 
L 262.739943 269.957702 
L 265.589828 269.752876 
L 268.439714 269.547291 
L 271.289599 269.342171 
L 274.139484 269.139397 
L 276.98937 268.935438 
L 279.839255 268.729599 
L 282.689141 268.525282 
L 285.539026 268.320504 
L 288.388911 268.116364 
L 291.238797 267.907294 
L 294.088682 267.702756 
L 296.938568 267.497661 
L 299.788453 267.293555 
L 302.638338 267.08906 
L 305.488224 266.883448 
L 308.338109 266.682364 
L 311.187995 266.478694 
L 314.03788 266.276899 
L 316.887765 266.071563 
L 319.737651 265.867032 
L 322.587536 265.66524 
L 325.437422 265.456445 
L 328.287307 265.252086 
L 331.137193 265.050142 
L 333.987078 264.849424 
L 336.836963 264.645813 
L 339.686849 264.439807 
L 342.536734 264.237774 
L 345.38662 264.032861 
L 348.236505 263.829448 
L 351.08639 263.62605 
L 353.936276 263.423736 
L 356.786161 263.221551 
L 359.636047 263.015233 
L 362.485932 262.811477 
L 365.335817 262.605921 
L 368.185703 262.402514 
L 371.035588 262.200688 
L 373.885474 261.999444 
L 376.735359 261.795655 
L 379.585244 261.592309 
L 382.43513 261.385207 
L 385.285015 261.181147 
L 388.134901 260.978577 
L 390.984786 260.778278 
L 393.834672 260.571072 
L 396.684557 260.365628 
L 399.534442 260.161514 
L 402.384328 259.958061 
L 405.234213 259.755774 
L 408.084099 259.550954 
L 410.933984 259.347854 
L 413.783869 259.143681 
L 416.633755 258.940153 
L 419.48364 258.736421 
L 422.333526 258.533106 
L 425.183411 258.327575 
L 428.033296 258.117937 
L 430.883182 257.91138 
" clip-path="url(#p4454e3b127)" style="fill: none; stroke: #c44e52; stroke-width: 3; stroke-linecap: round"/>
   </g>
   <g id="patch_3">
    <path d="M 74.79 294.66 
L 74.79 12.96 
" style="fill: none; stroke: #ffffff; stroke-width: 1.25; stroke-linejoin: miter; stroke-linecap: square"/>
   </g>
   <g id="patch_4">
    <path d="M 447.84 294.66 
L 447.84 12.96 
" style="fill: none; stroke: #ffffff; stroke-width: 1.25; stroke-linejoin: miter; stroke-linecap: square"/>
   </g>
   <g id="patch_5">
    <path d="M 74.79 294.66 
L 447.84 294.66 
" style="fill: none; stroke: #ffffff; stroke-width: 1.25; stroke-linejoin: miter; stroke-linecap: square"/>
   </g>
   <g id="patch_6">
    <path d="M 74.79 12.96 
L 447.84 12.96 
" style="fill: none; stroke: #ffffff; stroke-width: 1.25; stroke-linejoin: miter; stroke-linecap: square"/>
   </g>
   <g id="legend_1">
    <g id="patch_7">
     <path d="M 82.49 86.34375 
L 223.319219 86.34375 
Q 225.519219 86.34375 225.519219 84.14375 
L 225.519219 20.66 
Q 225.519219 18.46 223.319219 18.46 
L 82.49 18.46 
Q 80.29 18.46 80.29 20.66 
L 80.29 84.14375 
Q 80.29 86.34375 82.49 86.34375 
z
" style="fill: #eaeaf2; opacity: 0.8; stroke: #cccccc; stroke-linejoin: miter"/>
    </g>
    <g id="line2d_18">
     <path d="M 84.69 27.368281 
L 95.69 27.368281 
L 106.69 27.368281 
" style="fill: none; stroke: #4c72b0; stroke-width: 3; stroke-linecap: round"/>
    </g>
    <g id="text_16">
     <!-- DATS-DELAY-1 -->
     <g style="fill: #262626" transform="translate(115.49 31.218281)scale(0.11 -0.11)">
      <defs>
       <path id="DejaVuSans-44" d="M 1259 4147 
L 1259 519 
L 2022 519 
Q 2988 519 3436 956 
Q 3884 1394 3884 2338 
Q 3884 3275 3436 3711 
Q 2988 4147 2022 4147 
L 1259 4147 
z
M 628 4666 
L 1925 4666 
Q 3281 4666 3915 4102 
Q 4550 3538 4550 2338 
Q 4550 1131 3912 565 
Q 3275 0 1925 0 
L 628 0 
L 628 4666 
z
" transform="scale(0.015625)"/>
       <path id="DejaVuSans-41" d="M 2188 4044 
L 1331 1722 
L 3047 1722 
L 2188 4044 
z
M 1831 4666 
L 2547 4666 
L 4325 0 
L 3669 0 
L 3244 1197 
L 1141 1197 
L 716 0 
L 50 0 
L 1831 4666 
z
" transform="scale(0.015625)"/>
       <path id="DejaVuSans-53" d="M 3425 4513 
L 3425 3897 
Q 3066 4069 2747 4153 
Q 2428 4238 2131 4238 
Q 1616 4238 1336 4038 
Q 1056 3838 1056 3469 
Q 1056 3159 1242 3001 
Q 1428 2844 1947 2747 
L 2328 2669 
Q 3034 2534 3370 2195 
Q 3706 1856 3706 1288 
Q 3706 609 3251 259 
Q 2797 -91 1919 -91 
Q 1588 -91 1214 -16 
Q 841 59 441 206 
L 441 856 
Q 825 641 1194 531 
Q 1563 422 1919 422 
Q 2459 422 2753 634 
Q 3047 847 3047 1241 
Q 3047 1584 2836 1778 
Q 2625 1972 2144 2069 
L 1759 2144 
Q 1053 2284 737 2584 
Q 422 2884 422 3419 
Q 422 4038 858 4394 
Q 1294 4750 2059 4750 
Q 2388 4750 2728 4690 
Q 3069 4631 3425 4513 
z
" transform="scale(0.015625)"/>
       <path id="DejaVuSans-2d" d="M 313 2009 
L 1997 2009 
L 1997 1497 
L 313 1497 
L 313 2009 
z
" transform="scale(0.015625)"/>
       <path id="DejaVuSans-45" d="M 628 4666 
L 3578 4666 
L 3578 4134 
L 1259 4134 
L 1259 2753 
L 3481 2753 
L 3481 2222 
L 1259 2222 
L 1259 531 
L 3634 531 
L 3634 0 
L 628 0 
L 628 4666 
z
" transform="scale(0.015625)"/>
       <path id="DejaVuSans-4c" d="M 628 4666 
L 1259 4666 
L 1259 531 
L 3531 531 
L 3531 0 
L 628 0 
L 628 4666 
z
" transform="scale(0.015625)"/>
       <path id="DejaVuSans-59" d="M -13 4666 
L 666 4666 
L 1959 2747 
L 3244 4666 
L 3922 4666 
L 2272 2222 
L 2272 0 
L 1638 0 
L 1638 2222 
L -13 4666 
z
" transform="scale(0.015625)"/>
      </defs>
      <use xlink:href="#DejaVuSans-44"/>
      <use xlink:href="#DejaVuSans-41" x="75.251953"/>
      <use xlink:href="#DejaVuSans-54" x="135.910156"/>
      <use xlink:href="#DejaVuSans-53" x="196.994141"/>
      <use xlink:href="#DejaVuSans-2d" x="260.470703"/>
      <use xlink:href="#DejaVuSans-44" x="296.554688"/>
      <use xlink:href="#DejaVuSans-45" x="373.556641"/>
      <use xlink:href="#DejaVuSans-4c" x="436.740234"/>
      <use xlink:href="#DejaVuSans-41" x="494.703125"/>
      <use xlink:href="#DejaVuSans-59" x="555.361328"/>
      <use xlink:href="#DejaVuSans-2d" x="604.570312"/>
      <use xlink:href="#DejaVuSans-31" x="640.654297"/>
     </g>
    </g>
    <g id="line2d_19">
     <path d="M 84.69 43.514219 
L 95.69 43.514219 
L 106.69 43.514219 
" style="fill: none; stroke: #dd8452; stroke-width: 3; stroke-linecap: round"/>
    </g>
    <g id="text_17">
     <!-- SAC-DELAY-1 -->
     <g style="fill: #262626" transform="translate(115.49 47.364219)scale(0.11 -0.11)">
      <defs>
       <path id="DejaVuSans-43" d="M 4122 4306 
L 4122 3641 
Q 3803 3938 3442 4084 
Q 3081 4231 2675 4231 
Q 1875 4231 1450 3742 
Q 1025 3253 1025 2328 
Q 1025 1406 1450 917 
Q 1875 428 2675 428 
Q 3081 428 3442 575 
Q 3803 722 4122 1019 
L 4122 359 
Q 3791 134 3420 21 
Q 3050 -91 2638 -91 
Q 1578 -91 968 557 
Q 359 1206 359 2328 
Q 359 3453 968 4101 
Q 1578 4750 2638 4750 
Q 3056 4750 3426 4639 
Q 3797 4528 4122 4306 
z
" transform="scale(0.015625)"/>
      </defs>
      <use xlink:href="#DejaVuSans-53"/>
      <use xlink:href="#DejaVuSans-41" x="65.351562"/>
      <use xlink:href="#DejaVuSans-43" x="132.009766"/>
      <use xlink:href="#DejaVuSans-2d" x="201.833984"/>
      <use xlink:href="#DejaVuSans-44" x="237.917969"/>
      <use xlink:href="#DejaVuSans-45" x="314.919922"/>
      <use xlink:href="#DejaVuSans-4c" x="378.103516"/>
      <use xlink:href="#DejaVuSans-41" x="436.066406"/>
      <use xlink:href="#DejaVuSans-59" x="496.724609"/>
      <use xlink:href="#DejaVuSans-2d" x="545.933594"/>
      <use xlink:href="#DejaVuSans-31" x="582.017578"/>
     </g>
    </g>
    <g id="line2d_20">
     <path d="M 84.69 59.660156 
L 95.69 59.660156 
L 106.69 59.660156 
" style="fill: none; stroke: #55a868; stroke-width: 3; stroke-linecap: round"/>
    </g>
    <g id="text_18">
     <!-- SAC-IS-DELAY-1 -->
     <g style="fill: #262626" transform="translate(115.49 63.510156)scale(0.11 -0.11)">
      <defs>
       <path id="DejaVuSans-49" d="M 628 4666 
L 1259 4666 
L 1259 0 
L 628 0 
L 628 4666 
z
" transform="scale(0.015625)"/>
      </defs>
      <use xlink:href="#DejaVuSans-53"/>
      <use xlink:href="#DejaVuSans-41" x="65.351562"/>
      <use xlink:href="#DejaVuSans-43" x="132.009766"/>
      <use xlink:href="#DejaVuSans-2d" x="201.833984"/>
      <use xlink:href="#DejaVuSans-49" x="237.917969"/>
      <use xlink:href="#DejaVuSans-53" x="267.410156"/>
      <use xlink:href="#DejaVuSans-2d" x="330.886719"/>
      <use xlink:href="#DejaVuSans-44" x="366.970703"/>
      <use xlink:href="#DejaVuSans-45" x="443.972656"/>
      <use xlink:href="#DejaVuSans-4c" x="507.15625"/>
      <use xlink:href="#DejaVuSans-41" x="565.119141"/>
      <use xlink:href="#DejaVuSans-59" x="625.777344"/>
      <use xlink:href="#DejaVuSans-2d" x="674.986328"/>
      <use xlink:href="#DejaVuSans-31" x="711.070312"/>
     </g>
    </g>
    <g id="line2d_21">
     <path d="M 84.69 75.806094 
L 95.69 75.806094 
L 106.69 75.806094 
" style="fill: none; stroke: #c44e52; stroke-width: 3; stroke-linecap: round"/>
    </g>
    <g id="text_19">
     <!-- DCAC-DELAY-1-16C -->
     <g style="fill: #262626" transform="translate(115.49 79.656094)scale(0.11 -0.11)">
      <use xlink:href="#DejaVuSans-44"/>
      <use xlink:href="#DejaVuSans-43" x="77.001953"/>
      <use xlink:href="#DejaVuSans-41" x="146.826172"/>
      <use xlink:href="#DejaVuSans-43" x="213.484375"/>
      <use xlink:href="#DejaVuSans-2d" x="283.308594"/>
      <use xlink:href="#DejaVuSans-44" x="319.392578"/>
      <use xlink:href="#DejaVuSans-45" x="396.394531"/>
      <use xlink:href="#DejaVuSans-4c" x="459.578125"/>
      <use xlink:href="#DejaVuSans-41" x="517.541016"/>
      <use xlink:href="#DejaVuSans-59" x="578.199219"/>
      <use xlink:href="#DejaVuSans-2d" x="627.408203"/>
      <use xlink:href="#DejaVuSans-31" x="663.492188"/>
      <use xlink:href="#DejaVuSans-2d" x="727.115234"/>
      <use xlink:href="#DejaVuSans-31" x="763.199219"/>
      <use xlink:href="#DejaVuSans-36" x="826.822266"/>
      <use xlink:href="#DejaVuSans-43" x="890.445312"/>
     </g>
    </g>
   </g>
  </g>
 </g>
 <defs>
  <clipPath id="p4454e3b127">
   <rect x="74.79" y="12.96" width="373.05" height="281.7"/>
  </clipPath>
 </defs>
</svg>
