<?xml version="1.0" encoding="utf-8" standalone="no"?>
<!DOCTYPE svg PUBLIC "-//W3C//DTD SVG 1.1//EN"
  "http://www.w3.org/Graphics/SVG/1.1/DTD/svg11.dtd">
<svg xmlns:xlink="http://www.w3.org/1999/xlink" width="460.8pt" height="345.6pt" viewBox="0 0 460.8 345.6" xmlns="http://www.w3.org/2000/svg" version="1.1">
 <metadata>
  <rdf:RDF xmlns:dc="http://purl.org/dc/elements/1.1/" xmlns:cc="http://creativecommons.org/ns#" xmlns:rdf="http://www.w3.org/1999/02/22-rdf-syntax-ns#">
   <cc:Work>
    <dc:type rdf:resource="http://purl.org/dc/dcmitype/StillImage"/>
    <dc:date>2022-09-12T17:21:20.066045</dc:date>
    <dc:format>image/svg+xml</dc:format>
    <dc:creator>
     <cc:Agent>
      <dc:title>Matplotlib v3.5.3, https://matplotlib.org/</dc:title>
     </cc:Agent>
    </dc:creator>
   </cc:Work>
  </rdf:RDF>
 </metadata>
 <defs>
  <style type="text/css">*{stroke-linejoin: round; stroke-linecap: butt}</style>
 </defs>
 <g id="figure_1">
  <g id="patch_1">
   <path d="M 0 345.6 
L 460.8 345.6 
L 460.8 0 
L 0 0 
z
" style="fill: #ffffff"/>
  </g>
  <g id="axes_1">
   <g id="patch_2">
    <path d="M 81.72 294.66 
L 447.84 294.66 
L 447.84 12.96 
L 81.72 12.96 
z
" style="fill: #eaeaf2"/>
   </g>
   <g id="matplotlib.axis_1">
    <g id="xtick_1">
     <g id="line2d_1">
      <path d="M 95.564874 294.66 
L 95.564874 12.96 
" clip-path="url(#p8c56780afe)" style="fill: none; stroke: #ffffff; stroke-linecap: round"/>
     </g>
     <g id="text_1">
      <!-- 0.00 -->
      <g style="fill: #262626" transform="translate(83.31878 312.518281)scale(0.11 -0.11)">
       <defs>
        <path id="DejaVuSans-30" d="M 2034 4250 
Q 1547 4250 1301 3770 
Q 1056 3291 1056 2328 
Q 1056 1369 1301 889 
Q 1547 409 2034 409 
Q 2525 409 2770 889 
Q 3016 1369 3016 2328 
Q 3016 3291 2770 3770 
Q 2525 4250 2034 4250 
z
M 2034 4750 
Q 2819 4750 3233 4129 
Q 3647 3509 3647 2328 
Q 3647 1150 3233 529 
Q 2819 -91 2034 -91 
Q 1250 -91 836 529 
Q 422 1150 422 2328 
Q 422 3509 836 4129 
Q 1250 4750 2034 4750 
z
" transform="scale(0.015625)"/>
        <path id="DejaVuSans-2e" d="M 684 794 
L 1344 794 
L 1344 0 
L 684 0 
L 684 794 
z
" transform="scale(0.015625)"/>
       </defs>
       <use xlink:href="#DejaVuSans-30"/>
       <use xlink:href="#DejaVuSans-2e" x="63.623047"/>
       <use xlink:href="#DejaVuSans-30" x="95.410156"/>
       <use xlink:href="#DejaVuSans-30" x="159.033203"/>
      </g>
     </g>
    </g>
    <g id="xtick_2">
     <g id="line2d_2">
      <path d="M 151.503759 294.66 
L 151.503759 12.96 
" clip-path="url(#p8c56780afe)" style="fill: none; stroke: #ffffff; stroke-linecap: round"/>
     </g>
     <g id="text_2">
      <!-- 0.05 -->
      <g style="fill: #262626" transform="translate(139.257665 312.518281)scale(0.11 -0.11)">
       <defs>
        <path id="DejaVuSans-35" d="M 691 4666 
L 3169 4666 
L 3169 4134 
L 1269 4134 
L 1269 2991 
Q 1406 3038 1543 3061 
Q 1681 3084 1819 3084 
Q 2600 3084 3056 2656 
Q 3513 2228 3513 1497 
Q 3513 744 3044 326 
Q 2575 -91 1722 -91 
Q 1428 -91 1123 -41 
Q 819 9 494 109 
L 494 744 
Q 775 591 1075 516 
Q 1375 441 1709 441 
Q 2250 441 2565 725 
Q 2881 1009 2881 1497 
Q 2881 1984 2565 2268 
Q 2250 2553 1709 2553 
Q 1456 2553 1204 2497 
Q 953 2441 691 2322 
L 691 4666 
z
" transform="scale(0.015625)"/>
       </defs>
       <use xlink:href="#DejaVuSans-30"/>
       <use xlink:href="#DejaVuSans-2e" x="63.623047"/>
       <use xlink:href="#DejaVuSans-30" x="95.410156"/>
       <use xlink:href="#DejaVuSans-35" x="159.033203"/>
      </g>
     </g>
    </g>
    <g id="xtick_3">
     <g id="line2d_3">
      <path d="M 207.442643 294.66 
L 207.442643 12.96 
" clip-path="url(#p8c56780afe)" style="fill: none; stroke: #ffffff; stroke-linecap: round"/>
     </g>
     <g id="text_3">
      <!-- 0.10 -->
      <g style="fill: #262626" transform="translate(195.196549 312.518281)scale(0.11 -0.11)">
       <defs>
        <path id="DejaVuSans-31" d="M 794 531 
L 1825 531 
L 1825 4091 
L 703 3866 
L 703 4441 
L 1819 4666 
L 2450 4666 
L 2450 531 
L 3481 531 
L 3481 0 
L 794 0 
L 794 531 
z
" transform="scale(0.015625)"/>
       </defs>
       <use xlink:href="#DejaVuSans-30"/>
       <use xlink:href="#DejaVuSans-2e" x="63.623047"/>
       <use xlink:href="#DejaVuSans-31" x="95.410156"/>
       <use xlink:href="#DejaVuSans-30" x="159.033203"/>
      </g>
     </g>
    </g>
    <g id="xtick_4">
     <g id="line2d_4">
      <path d="M 263.381528 294.66 
L 263.381528 12.96 
" clip-path="url(#p8c56780afe)" style="fill: none; stroke: #ffffff; stroke-linecap: round"/>
     </g>
     <g id="text_4">
      <!-- 0.15 -->
      <g style="fill: #262626" transform="translate(251.135434 312.518281)scale(0.11 -0.11)">
       <use xlink:href="#DejaVuSans-30"/>
       <use xlink:href="#DejaVuSans-2e" x="63.623047"/>
       <use xlink:href="#DejaVuSans-31" x="95.410156"/>
       <use xlink:href="#DejaVuSans-35" x="159.033203"/>
      </g>
     </g>
    </g>
    <g id="xtick_5">
     <g id="line2d_5">
      <path d="M 319.320413 294.66 
L 319.320413 12.96 
" clip-path="url(#p8c56780afe)" style="fill: none; stroke: #ffffff; stroke-linecap: round"/>
     </g>
     <g id="text_5">
      <!-- 0.20 -->
      <g style="fill: #262626" transform="translate(307.074319 312.518281)scale(0.11 -0.11)">
       <defs>
        <path id="DejaVuSans-32" d="M 1228 531 
L 3431 531 
L 3431 0 
L 469 0 
L 469 531 
Q 828 903 1448 1529 
Q 2069 2156 2228 2338 
Q 2531 2678 2651 2914 
Q 2772 3150 2772 3378 
Q 2772 3750 2511 3984 
Q 2250 4219 1831 4219 
Q 1534 4219 1204 4116 
Q 875 4013 500 3803 
L 500 4441 
Q 881 4594 1212 4672 
Q 1544 4750 1819 4750 
Q 2544 4750 2975 4387 
Q 3406 4025 3406 3419 
Q 3406 3131 3298 2873 
Q 3191 2616 2906 2266 
Q 2828 2175 2409 1742 
Q 1991 1309 1228 531 
z
" transform="scale(0.015625)"/>
       </defs>
       <use xlink:href="#DejaVuSans-30"/>
       <use xlink:href="#DejaVuSans-2e" x="63.623047"/>
       <use xlink:href="#DejaVuSans-32" x="95.410156"/>
       <use xlink:href="#DejaVuSans-30" x="159.033203"/>
      </g>
     </g>
    </g>
    <g id="xtick_6">
     <g id="line2d_6">
      <path d="M 375.259297 294.66 
L 375.259297 12.96 
" clip-path="url(#p8c56780afe)" style="fill: none; stroke: #ffffff; stroke-linecap: round"/>
     </g>
     <g id="text_6">
      <!-- 0.25 -->
      <g style="fill: #262626" transform="translate(363.013203 312.518281)scale(0.11 -0.11)">
       <use xlink:href="#DejaVuSans-30"/>
       <use xlink:href="#DejaVuSans-2e" x="63.623047"/>
       <use xlink:href="#DejaVuSans-32" x="95.410156"/>
       <use xlink:href="#DejaVuSans-35" x="159.033203"/>
      </g>
     </g>
    </g>
    <g id="xtick_7">
     <g id="line2d_7">
      <path d="M 431.198182 294.66 
L 431.198182 12.96 
" clip-path="url(#p8c56780afe)" style="fill: none; stroke: #ffffff; stroke-linecap: round"/>
     </g>
     <g id="text_7">
      <!-- 0.30 -->
      <g style="fill: #262626" transform="translate(418.952088 312.518281)scale(0.11 -0.11)">
       <defs>
        <path id="DejaVuSans-33" d="M 2597 2516 
Q 3050 2419 3304 2112 
Q 3559 1806 3559 1356 
Q 3559 666 3084 287 
Q 2609 -91 1734 -91 
Q 1441 -91 1130 -33 
Q 819 25 488 141 
L 488 750 
Q 750 597 1062 519 
Q 1375 441 1716 441 
Q 2309 441 2620 675 
Q 2931 909 2931 1356 
Q 2931 1769 2642 2001 
Q 2353 2234 1838 2234 
L 1294 2234 
L 1294 2753 
L 1863 2753 
Q 2328 2753 2575 2939 
Q 2822 3125 2822 3475 
Q 2822 3834 2567 4026 
Q 2313 4219 1838 4219 
Q 1578 4219 1281 4162 
Q 984 4106 628 3988 
L 628 4550 
Q 988 4650 1302 4700 
Q 1616 4750 1894 4750 
Q 2613 4750 3031 4423 
Q 3450 4097 3450 3541 
Q 3450 3153 3228 2886 
Q 3006 2619 2597 2516 
z
" transform="scale(0.015625)"/>
       </defs>
       <use xlink:href="#DejaVuSans-30"/>
       <use xlink:href="#DejaVuSans-2e" x="63.623047"/>
       <use xlink:href="#DejaVuSans-33" x="95.410156"/>
       <use xlink:href="#DejaVuSans-30" x="159.033203"/>
      </g>
     </g>
    </g>
    <g id="text_8">
     <!-- Zeitschritte (in Millionen) -->
     <g style="fill: #262626" transform="translate(176.865469 329.44375)scale(0.14 -0.14)">
      <defs>
       <path id="DejaVuSans-5a" d="M 359 4666 
L 4025 4666 
L 4025 4184 
L 1075 531 
L 4097 531 
L 4097 0 
L 288 0 
L 288 481 
L 3238 4134 
L 359 4134 
L 359 4666 
z
" transform="scale(0.015625)"/>
       <path id="DejaVuSans-65" d="M 3597 1894 
L 3597 1613 
L 953 1613 
Q 991 1019 1311 708 
Q 1631 397 2203 397 
Q 2534 397 2845 478 
Q 3156 559 3463 722 
L 3463 178 
Q 3153 47 2828 -22 
Q 2503 -91 2169 -91 
Q 1331 -91 842 396 
Q 353 884 353 1716 
Q 353 2575 817 3079 
Q 1281 3584 2069 3584 
Q 2775 3584 3186 3129 
Q 3597 2675 3597 1894 
z
M 3022 2063 
Q 3016 2534 2758 2815 
Q 2500 3097 2075 3097 
Q 1594 3097 1305 2825 
Q 1016 2553 972 2059 
L 3022 2063 
z
" transform="scale(0.015625)"/>
       <path id="DejaVuSans-69" d="M 603 3500 
L 1178 3500 
L 1178 0 
L 603 0 
L 603 3500 
z
M 603 4863 
L 1178 4863 
L 1178 4134 
L 603 4134 
L 603 4863 
z
" transform="scale(0.015625)"/>
       <path id="DejaVuSans-74" d="M 1172 4494 
L 1172 3500 
L 2356 3500 
L 2356 3053 
L 1172 3053 
L 1172 1153 
Q 1172 725 1289 603 
Q 1406 481 1766 481 
L 2356 481 
L 2356 0 
L 1766 0 
Q 1100 0 847 248 
Q 594 497 594 1153 
L 594 3053 
L 172 3053 
L 172 3500 
L 594 3500 
L 594 4494 
L 1172 4494 
z
" transform="scale(0.015625)"/>
       <path id="DejaVuSans-73" d="M 2834 3397 
L 2834 2853 
Q 2591 2978 2328 3040 
Q 2066 3103 1784 3103 
Q 1356 3103 1142 2972 
Q 928 2841 928 2578 
Q 928 2378 1081 2264 
Q 1234 2150 1697 2047 
L 1894 2003 
Q 2506 1872 2764 1633 
Q 3022 1394 3022 966 
Q 3022 478 2636 193 
Q 2250 -91 1575 -91 
Q 1294 -91 989 -36 
Q 684 19 347 128 
L 347 722 
Q 666 556 975 473 
Q 1284 391 1588 391 
Q 1994 391 2212 530 
Q 2431 669 2431 922 
Q 2431 1156 2273 1281 
Q 2116 1406 1581 1522 
L 1381 1569 
Q 847 1681 609 1914 
Q 372 2147 372 2553 
Q 372 3047 722 3315 
Q 1072 3584 1716 3584 
Q 2034 3584 2315 3537 
Q 2597 3491 2834 3397 
z
" transform="scale(0.015625)"/>
       <path id="DejaVuSans-63" d="M 3122 3366 
L 3122 2828 
Q 2878 2963 2633 3030 
Q 2388 3097 2138 3097 
Q 1578 3097 1268 2742 
Q 959 2388 959 1747 
Q 959 1106 1268 751 
Q 1578 397 2138 397 
Q 2388 397 2633 464 
Q 2878 531 3122 666 
L 3122 134 
Q 2881 22 2623 -34 
Q 2366 -91 2075 -91 
Q 1284 -91 818 406 
Q 353 903 353 1747 
Q 353 2603 823 3093 
Q 1294 3584 2113 3584 
Q 2378 3584 2631 3529 
Q 2884 3475 3122 3366 
z
" transform="scale(0.015625)"/>
       <path id="DejaVuSans-68" d="M 3513 2113 
L 3513 0 
L 2938 0 
L 2938 2094 
Q 2938 2591 2744 2837 
Q 2550 3084 2163 3084 
Q 1697 3084 1428 2787 
Q 1159 2491 1159 1978 
L 1159 0 
L 581 0 
L 581 4863 
L 1159 4863 
L 1159 2956 
Q 1366 3272 1645 3428 
Q 1925 3584 2291 3584 
Q 2894 3584 3203 3211 
Q 3513 2838 3513 2113 
z
" transform="scale(0.015625)"/>
       <path id="DejaVuSans-72" d="M 2631 2963 
Q 2534 3019 2420 3045 
Q 2306 3072 2169 3072 
Q 1681 3072 1420 2755 
Q 1159 2438 1159 1844 
L 1159 0 
L 581 0 
L 581 3500 
L 1159 3500 
L 1159 2956 
Q 1341 3275 1631 3429 
Q 1922 3584 2338 3584 
Q 2397 3584 2469 3576 
Q 2541 3569 2628 3553 
L 2631 2963 
z
" transform="scale(0.015625)"/>
       <path id="DejaVuSans-20" transform="scale(0.015625)"/>
       <path id="DejaVuSans-28" d="M 1984 4856 
Q 1566 4138 1362 3434 
Q 1159 2731 1159 2009 
Q 1159 1288 1364 580 
Q 1569 -128 1984 -844 
L 1484 -844 
Q 1016 -109 783 600 
Q 550 1309 550 2009 
Q 550 2706 781 3412 
Q 1013 4119 1484 4856 
L 1984 4856 
z
" transform="scale(0.015625)"/>
       <path id="DejaVuSans-6e" d="M 3513 2113 
L 3513 0 
L 2938 0 
L 2938 2094 
Q 2938 2591 2744 2837 
Q 2550 3084 2163 3084 
Q 1697 3084 1428 2787 
Q 1159 2491 1159 1978 
L 1159 0 
L 581 0 
L 581 3500 
L 1159 3500 
L 1159 2956 
Q 1366 3272 1645 3428 
Q 1925 3584 2291 3584 
Q 2894 3584 3203 3211 
Q 3513 2838 3513 2113 
z
" transform="scale(0.015625)"/>
       <path id="DejaVuSans-4d" d="M 628 4666 
L 1569 4666 
L 2759 1491 
L 3956 4666 
L 4897 4666 
L 4897 0 
L 4281 0 
L 4281 4097 
L 3078 897 
L 2444 897 
L 1241 4097 
L 1241 0 
L 628 0 
L 628 4666 
z
" transform="scale(0.015625)"/>
       <path id="DejaVuSans-6c" d="M 603 4863 
L 1178 4863 
L 1178 0 
L 603 0 
L 603 4863 
z
" transform="scale(0.015625)"/>
       <path id="DejaVuSans-6f" d="M 1959 3097 
Q 1497 3097 1228 2736 
Q 959 2375 959 1747 
Q 959 1119 1226 758 
Q 1494 397 1959 397 
Q 2419 397 2687 759 
Q 2956 1122 2956 1747 
Q 2956 2369 2687 2733 
Q 2419 3097 1959 3097 
z
M 1959 3584 
Q 2709 3584 3137 3096 
Q 3566 2609 3566 1747 
Q 3566 888 3137 398 
Q 2709 -91 1959 -91 
Q 1206 -91 779 398 
Q 353 888 353 1747 
Q 353 2609 779 3096 
Q 1206 3584 1959 3584 
z
" transform="scale(0.015625)"/>
       <path id="DejaVuSans-29" d="M 513 4856 
L 1013 4856 
Q 1481 4119 1714 3412 
Q 1947 2706 1947 2009 
Q 1947 1309 1714 600 
Q 1481 -109 1013 -844 
L 513 -844 
Q 928 -128 1133 580 
Q 1338 1288 1338 2009 
Q 1338 2731 1133 3434 
Q 928 4138 513 4856 
z
" transform="scale(0.015625)"/>
      </defs>
      <use xlink:href="#DejaVuSans-5a"/>
      <use xlink:href="#DejaVuSans-65" x="68.505859"/>
      <use xlink:href="#DejaVuSans-69" x="130.029297"/>
      <use xlink:href="#DejaVuSans-74" x="157.8125"/>
      <use xlink:href="#DejaVuSans-73" x="197.021484"/>
      <use xlink:href="#DejaVuSans-63" x="249.121094"/>
      <use xlink:href="#DejaVuSans-68" x="304.101562"/>
      <use xlink:href="#DejaVuSans-72" x="367.480469"/>
      <use xlink:href="#DejaVuSans-69" x="408.59375"/>
      <use xlink:href="#DejaVuSans-74" x="436.376953"/>
      <use xlink:href="#DejaVuSans-74" x="475.585938"/>
      <use xlink:href="#DejaVuSans-65" x="514.794922"/>
      <use xlink:href="#DejaVuSans-20" x="576.318359"/>
      <use xlink:href="#DejaVuSans-28" x="608.105469"/>
      <use xlink:href="#DejaVuSans-69" x="647.119141"/>
      <use xlink:href="#DejaVuSans-6e" x="674.902344"/>
      <use xlink:href="#DejaVuSans-20" x="738.28125"/>
      <use xlink:href="#DejaVuSans-4d" x="770.068359"/>
      <use xlink:href="#DejaVuSans-69" x="856.347656"/>
      <use xlink:href="#DejaVuSans-6c" x="884.130859"/>
      <use xlink:href="#DejaVuSans-6c" x="911.914062"/>
      <use xlink:href="#DejaVuSans-69" x="939.697266"/>
      <use xlink:href="#DejaVuSans-6f" x="967.480469"/>
      <use xlink:href="#DejaVuSans-6e" x="1028.662109"/>
      <use xlink:href="#DejaVuSans-65" x="1092.041016"/>
      <use xlink:href="#DejaVuSans-6e" x="1153.564453"/>
      <use xlink:href="#DejaVuSans-29" x="1216.943359"/>
     </g>
    </g>
   </g>
   <g id="matplotlib.axis_2">
    <g id="ytick_1">
     <g id="line2d_8">
      <path d="M 81.72 281.932341 
L 447.84 281.932341 
" clip-path="url(#p8c56780afe)" style="fill: none; stroke: #ffffff; stroke-linecap: round"/>
     </g>
     <g id="text_9">
      <!-- 0 -->
      <g style="fill: #262626" transform="translate(65.22125 286.111482)scale(0.11 -0.11)">
       <use xlink:href="#DejaVuSans-30"/>
      </g>
     </g>
    </g>
    <g id="ytick_2">
     <g id="line2d_9">
      <path d="M 81.72 230.693553 
L 447.84 230.693553 
" clip-path="url(#p8c56780afe)" style="fill: none; stroke: #ffffff; stroke-linecap: round"/>
     </g>
     <g id="text_10">
      <!-- 20000 -->
      <g style="fill: #262626" transform="translate(37.22625 234.872694)scale(0.11 -0.11)">
       <use xlink:href="#DejaVuSans-32"/>
       <use xlink:href="#DejaVuSans-30" x="63.623047"/>
       <use xlink:href="#DejaVuSans-30" x="127.246094"/>
       <use xlink:href="#DejaVuSans-30" x="190.869141"/>
       <use xlink:href="#DejaVuSans-30" x="254.492188"/>
      </g>
     </g>
    </g>
    <g id="ytick_3">
     <g id="line2d_10">
      <path d="M 81.72 179.454765 
L 447.84 179.454765 
" clip-path="url(#p8c56780afe)" style="fill: none; stroke: #ffffff; stroke-linecap: round"/>
     </g>
     <g id="text_11">
      <!-- 40000 -->
      <g style="fill: #262626" transform="translate(37.22625 183.633906)scale(0.11 -0.11)">
       <defs>
        <path id="DejaVuSans-34" d="M 2419 4116 
L 825 1625 
L 2419 1625 
L 2419 4116 
z
M 2253 4666 
L 3047 4666 
L 3047 1625 
L 3713 1625 
L 3713 1100 
L 3047 1100 
L 3047 0 
L 2419 0 
L 2419 1100 
L 313 1100 
L 313 1709 
L 2253 4666 
z
" transform="scale(0.015625)"/>
       </defs>
       <use xlink:href="#DejaVuSans-34"/>
       <use xlink:href="#DejaVuSans-30" x="63.623047"/>
       <use xlink:href="#DejaVuSans-30" x="127.246094"/>
       <use xlink:href="#DejaVuSans-30" x="190.869141"/>
       <use xlink:href="#DejaVuSans-30" x="254.492188"/>
      </g>
     </g>
    </g>
    <g id="ytick_4">
     <g id="line2d_11">
      <path d="M 81.72 128.215977 
L 447.84 128.215977 
" clip-path="url(#p8c56780afe)" style="fill: none; stroke: #ffffff; stroke-linecap: round"/>
     </g>
     <g id="text_12">
      <!-- 60000 -->
      <g style="fill: #262626" transform="translate(37.22625 132.395117)scale(0.11 -0.11)">
       <defs>
        <path id="DejaVuSans-36" d="M 2113 2584 
Q 1688 2584 1439 2293 
Q 1191 2003 1191 1497 
Q 1191 994 1439 701 
Q 1688 409 2113 409 
Q 2538 409 2786 701 
Q 3034 994 3034 1497 
Q 3034 2003 2786 2293 
Q 2538 2584 2113 2584 
z
M 3366 4563 
L 3366 3988 
Q 3128 4100 2886 4159 
Q 2644 4219 2406 4219 
Q 1781 4219 1451 3797 
Q 1122 3375 1075 2522 
Q 1259 2794 1537 2939 
Q 1816 3084 2150 3084 
Q 2853 3084 3261 2657 
Q 3669 2231 3669 1497 
Q 3669 778 3244 343 
Q 2819 -91 2113 -91 
Q 1303 -91 875 529 
Q 447 1150 447 2328 
Q 447 3434 972 4092 
Q 1497 4750 2381 4750 
Q 2619 4750 2861 4703 
Q 3103 4656 3366 4563 
z
" transform="scale(0.015625)"/>
       </defs>
       <use xlink:href="#DejaVuSans-36"/>
       <use xlink:href="#DejaVuSans-30" x="63.623047"/>
       <use xlink:href="#DejaVuSans-30" x="127.246094"/>
       <use xlink:href="#DejaVuSans-30" x="190.869141"/>
       <use xlink:href="#DejaVuSans-30" x="254.492188"/>
      </g>
     </g>
    </g>
    <g id="ytick_5">
     <g id="line2d_12">
      <path d="M 81.72 76.977188 
L 447.84 76.977188 
" clip-path="url(#p8c56780afe)" style="fill: none; stroke: #ffffff; stroke-linecap: round"/>
     </g>
     <g id="text_13">
      <!-- 80000 -->
      <g style="fill: #262626" transform="translate(37.22625 81.156329)scale(0.11 -0.11)">
       <defs>
        <path id="DejaVuSans-38" d="M 2034 2216 
Q 1584 2216 1326 1975 
Q 1069 1734 1069 1313 
Q 1069 891 1326 650 
Q 1584 409 2034 409 
Q 2484 409 2743 651 
Q 3003 894 3003 1313 
Q 3003 1734 2745 1975 
Q 2488 2216 2034 2216 
z
M 1403 2484 
Q 997 2584 770 2862 
Q 544 3141 544 3541 
Q 544 4100 942 4425 
Q 1341 4750 2034 4750 
Q 2731 4750 3128 4425 
Q 3525 4100 3525 3541 
Q 3525 3141 3298 2862 
Q 3072 2584 2669 2484 
Q 3125 2378 3379 2068 
Q 3634 1759 3634 1313 
Q 3634 634 3220 271 
Q 2806 -91 2034 -91 
Q 1263 -91 848 271 
Q 434 634 434 1313 
Q 434 1759 690 2068 
Q 947 2378 1403 2484 
z
M 1172 3481 
Q 1172 3119 1398 2916 
Q 1625 2713 2034 2713 
Q 2441 2713 2670 2916 
Q 2900 3119 2900 3481 
Q 2900 3844 2670 4047 
Q 2441 4250 2034 4250 
Q 1625 4250 1398 4047 
Q 1172 3844 1172 3481 
z
" transform="scale(0.015625)"/>
       </defs>
       <use xlink:href="#DejaVuSans-38"/>
       <use xlink:href="#DejaVuSans-30" x="63.623047"/>
       <use xlink:href="#DejaVuSans-30" x="127.246094"/>
       <use xlink:href="#DejaVuSans-30" x="190.869141"/>
       <use xlink:href="#DejaVuSans-30" x="254.492188"/>
      </g>
     </g>
    </g>
    <g id="ytick_6">
     <g id="line2d_13">
      <path d="M 81.72 25.7384 
L 447.84 25.7384 
" clip-path="url(#p8c56780afe)" style="fill: none; stroke: #ffffff; stroke-linecap: round"/>
     </g>
     <g id="text_14">
      <!-- 100000 -->
      <g style="fill: #262626" transform="translate(30.2275 29.917541)scale(0.11 -0.11)">
       <use xlink:href="#DejaVuSans-31"/>
       <use xlink:href="#DejaVuSans-30" x="63.623047"/>
       <use xlink:href="#DejaVuSans-30" x="127.246094"/>
       <use xlink:href="#DejaVuSans-30" x="190.869141"/>
       <use xlink:href="#DejaVuSans-30" x="254.492188"/>
       <use xlink:href="#DejaVuSans-30" x="318.115234"/>
      </g>
     </g>
    </g>
    <g id="text_15">
     <!-- Trainingszeit (in Sekunden) -->
     <g style="fill: #262626" transform="translate(23.315938 248.680781)rotate(-90)scale(0.14 -0.14)">
      <defs>
       <path id="DejaVuSans-54" d="M -19 4666 
L 3928 4666 
L 3928 4134 
L 2272 4134 
L 2272 0 
L 1638 0 
L 1638 4134 
L -19 4134 
L -19 4666 
z
" transform="scale(0.015625)"/>
       <path id="DejaVuSans-61" d="M 2194 1759 
Q 1497 1759 1228 1600 
Q 959 1441 959 1056 
Q 959 750 1161 570 
Q 1363 391 1709 391 
Q 2188 391 2477 730 
Q 2766 1069 2766 1631 
L 2766 1759 
L 2194 1759 
z
M 3341 1997 
L 3341 0 
L 2766 0 
L 2766 531 
Q 2569 213 2275 61 
Q 1981 -91 1556 -91 
Q 1019 -91 701 211 
Q 384 513 384 1019 
Q 384 1609 779 1909 
Q 1175 2209 1959 2209 
L 2766 2209 
L 2766 2266 
Q 2766 2663 2505 2880 
Q 2244 3097 1772 3097 
Q 1472 3097 1187 3025 
Q 903 2953 641 2809 
L 641 3341 
Q 956 3463 1253 3523 
Q 1550 3584 1831 3584 
Q 2591 3584 2966 3190 
Q 3341 2797 3341 1997 
z
" transform="scale(0.015625)"/>
       <path id="DejaVuSans-67" d="M 2906 1791 
Q 2906 2416 2648 2759 
Q 2391 3103 1925 3103 
Q 1463 3103 1205 2759 
Q 947 2416 947 1791 
Q 947 1169 1205 825 
Q 1463 481 1925 481 
Q 2391 481 2648 825 
Q 2906 1169 2906 1791 
z
M 3481 434 
Q 3481 -459 3084 -895 
Q 2688 -1331 1869 -1331 
Q 1566 -1331 1297 -1286 
Q 1028 -1241 775 -1147 
L 775 -588 
Q 1028 -725 1275 -790 
Q 1522 -856 1778 -856 
Q 2344 -856 2625 -561 
Q 2906 -266 2906 331 
L 2906 616 
Q 2728 306 2450 153 
Q 2172 0 1784 0 
Q 1141 0 747 490 
Q 353 981 353 1791 
Q 353 2603 747 3093 
Q 1141 3584 1784 3584 
Q 2172 3584 2450 3431 
Q 2728 3278 2906 2969 
L 2906 3500 
L 3481 3500 
L 3481 434 
z
" transform="scale(0.015625)"/>
       <path id="DejaVuSans-7a" d="M 353 3500 
L 3084 3500 
L 3084 2975 
L 922 459 
L 3084 459 
L 3084 0 
L 275 0 
L 275 525 
L 2438 3041 
L 353 3041 
L 353 3500 
z
" transform="scale(0.015625)"/>
       <path id="DejaVuSans-53" d="M 3425 4513 
L 3425 3897 
Q 3066 4069 2747 4153 
Q 2428 4238 2131 4238 
Q 1616 4238 1336 4038 
Q 1056 3838 1056 3469 
Q 1056 3159 1242 3001 
Q 1428 2844 1947 2747 
L 2328 2669 
Q 3034 2534 3370 2195 
Q 3706 1856 3706 1288 
Q 3706 609 3251 259 
Q 2797 -91 1919 -91 
Q 1588 -91 1214 -16 
Q 841 59 441 206 
L 441 856 
Q 825 641 1194 531 
Q 1563 422 1919 422 
Q 2459 422 2753 634 
Q 3047 847 3047 1241 
Q 3047 1584 2836 1778 
Q 2625 1972 2144 2069 
L 1759 2144 
Q 1053 2284 737 2584 
Q 422 2884 422 3419 
Q 422 4038 858 4394 
Q 1294 4750 2059 4750 
Q 2388 4750 2728 4690 
Q 3069 4631 3425 4513 
z
" transform="scale(0.015625)"/>
       <path id="DejaVuSans-6b" d="M 581 4863 
L 1159 4863 
L 1159 1991 
L 2875 3500 
L 3609 3500 
L 1753 1863 
L 3688 0 
L 2938 0 
L 1159 1709 
L 1159 0 
L 581 0 
L 581 4863 
z
" transform="scale(0.015625)"/>
       <path id="DejaVuSans-75" d="M 544 1381 
L 544 3500 
L 1119 3500 
L 1119 1403 
Q 1119 906 1312 657 
Q 1506 409 1894 409 
Q 2359 409 2629 706 
Q 2900 1003 2900 1516 
L 2900 3500 
L 3475 3500 
L 3475 0 
L 2900 0 
L 2900 538 
Q 2691 219 2414 64 
Q 2138 -91 1772 -91 
Q 1169 -91 856 284 
Q 544 659 544 1381 
z
M 1991 3584 
L 1991 3584 
z
" transform="scale(0.015625)"/>
       <path id="DejaVuSans-64" d="M 2906 2969 
L 2906 4863 
L 3481 4863 
L 3481 0 
L 2906 0 
L 2906 525 
Q 2725 213 2448 61 
Q 2172 -91 1784 -91 
Q 1150 -91 751 415 
Q 353 922 353 1747 
Q 353 2572 751 3078 
Q 1150 3584 1784 3584 
Q 2172 3584 2448 3432 
Q 2725 3281 2906 2969 
z
M 947 1747 
Q 947 1113 1208 752 
Q 1469 391 1925 391 
Q 2381 391 2643 752 
Q 2906 1113 2906 1747 
Q 2906 2381 2643 2742 
Q 2381 3103 1925 3103 
Q 1469 3103 1208 2742 
Q 947 2381 947 1747 
z
" transform="scale(0.015625)"/>
      </defs>
      <use xlink:href="#DejaVuSans-54"/>
      <use xlink:href="#DejaVuSans-72" x="46.333984"/>
      <use xlink:href="#DejaVuSans-61" x="87.447266"/>
      <use xlink:href="#DejaVuSans-69" x="148.726562"/>
      <use xlink:href="#DejaVuSans-6e" x="176.509766"/>
      <use xlink:href="#DejaVuSans-69" x="239.888672"/>
      <use xlink:href="#DejaVuSans-6e" x="267.671875"/>
      <use xlink:href="#DejaVuSans-67" x="331.050781"/>
      <use xlink:href="#DejaVuSans-73" x="394.527344"/>
      <use xlink:href="#DejaVuSans-7a" x="446.626953"/>
      <use xlink:href="#DejaVuSans-65" x="499.117188"/>
      <use xlink:href="#DejaVuSans-69" x="560.640625"/>
      <use xlink:href="#DejaVuSans-74" x="588.423828"/>
      <use xlink:href="#DejaVuSans-20" x="627.632812"/>
      <use xlink:href="#DejaVuSans-28" x="659.419922"/>
      <use xlink:href="#DejaVuSans-69" x="698.433594"/>
      <use xlink:href="#DejaVuSans-6e" x="726.216797"/>
      <use xlink:href="#DejaVuSans-20" x="789.595703"/>
      <use xlink:href="#DejaVuSans-53" x="821.382812"/>
      <use xlink:href="#DejaVuSans-65" x="884.859375"/>
      <use xlink:href="#DejaVuSans-6b" x="946.382812"/>
      <use xlink:href="#DejaVuSans-75" x="1001.167969"/>
      <use xlink:href="#DejaVuSans-6e" x="1064.546875"/>
      <use xlink:href="#DejaVuSans-64" x="1127.925781"/>
      <use xlink:href="#DejaVuSans-65" x="1191.402344"/>
      <use xlink:href="#DejaVuSans-6e" x="1252.925781"/>
      <use xlink:href="#DejaVuSans-29" x="1316.304688"/>
     </g>
    </g>
   </g>
   <g id="PolyCollection_1">
    <defs>
     <path id="m6889cf9a17" d="M 98.361818 -63.744545 
L 98.361818 -63.800704 
L 101.158762 -63.93223 
L 103.955707 -64.063159 
L 106.752651 -64.193604 
L 109.549595 -64.32353 
L 112.346539 -64.453381 
L 115.143484 -64.582734 
L 117.940428 -64.712328 
L 120.737372 -64.84164 
L 123.534316 -64.971035 
L 126.331261 -65.100727 
L 129.128205 -65.23025 
L 131.925149 -65.359863 
L 134.722093 -65.489463 
L 137.519037 -65.61898 
L 140.315982 -65.748406 
L 143.112926 -65.877344 
L 145.90987 -66.006037 
L 148.706814 -66.134388 
L 151.503759 -66.262552 
L 154.300703 -66.390289 
L 157.097647 -66.517457 
L 159.894591 -66.644243 
L 162.691536 -66.77083 
L 165.48848 -66.897557 
L 168.285424 -67.023988 
L 171.082368 -67.150218 
L 173.879312 -67.276272 
L 176.676257 -67.402127 
L 179.473201 -67.528235 
L 182.270145 -67.654467 
L 185.067089 -67.780554 
L 187.864034 -67.906628 
L 190.660978 -68.032354 
L 193.457922 -68.157752 
L 196.254866 -68.283161 
L 199.051811 -68.408472 
L 201.848755 -68.533872 
L 204.645699 -68.659085 
L 207.442643 -68.784013 
L 210.239587 -68.908594 
L 213.036532 -69.033348 
L 215.833476 -69.158023 
L 218.63042 -69.282492 
L 221.427364 -69.406995 
L 224.224309 -69.531745 
L 227.021253 -69.656646 
L 229.818197 -69.781475 
L 232.615141 -69.906331 
L 235.412086 -70.030896 
L 238.20903 -70.155477 
L 241.005974 -70.279923 
L 243.802918 -70.40473 
L 246.599862 -70.528955 
L 249.396807 -70.653267 
L 252.193751 -70.777719 
L 254.990695 -70.902267 
L 257.787639 -71.026817 
L 260.584584 -71.151319 
L 263.381528 -71.276054 
L 266.178472 -71.400614 
L 268.975416 -71.525119 
L 271.772361 -71.649737 
L 274.569305 -71.774223 
L 277.366249 -71.898416 
L 280.163193 -72.022192 
L 282.960138 -72.145902 
L 285.757082 -72.269281 
L 288.554026 -72.392634 
L 291.35097 -72.515611 
L 294.147914 -72.638606 
L 296.944859 -72.761138 
L 299.741803 -72.883665 
L 302.538747 -73.006151 
L 305.335691 -73.128598 
L 308.132636 -73.25088 
L 310.92958 -73.373008 
L 313.726524 -73.494769 
L 316.523468 -73.616785 
L 319.320413 -73.738271 
L 322.117357 -73.85967 
L 324.914301 -73.980881 
L 327.711245 -74.102122 
L 330.508189 -74.224751 
L 333.305134 -74.3489 
L 336.102078 -74.475553 
L 338.899022 -74.599896 
L 341.695966 -74.724185 
L 344.492911 -74.84828 
L 347.289855 -74.972353 
L 350.086799 -75.10533 
L 352.883743 -75.229598 
L 355.680688 -75.354195 
L 358.477632 -75.478641 
L 361.274576 -75.603088 
L 364.07152 -75.727671 
L 366.868464 -75.857301 
L 369.665409 -75.980314 
L 372.462353 -76.125056 
L 375.259297 -76.248147 
L 378.056241 -76.371352 
L 380.853186 -76.494764 
L 383.65013 -76.63577 
L 386.447074 -76.758495 
L 389.244018 -76.881427 
L 392.040963 -77.003714 
L 394.837907 -77.130992 
L 397.634851 -77.253823 
L 400.431795 -77.376385 
L 403.228739 -77.499178 
L 406.025684 -77.622228 
L 408.822628 -77.744923 
L 411.619572 -77.866767 
L 414.416516 -78.003021 
L 417.213461 -78.134191 
L 420.010405 -78.255916 
L 422.807349 -78.377906 
L 425.604293 -78.503513 
L 428.401238 -78.635159 
L 431.198182 -78.721786 
L 431.198182 -78.456877 
L 431.198182 -78.456877 
L 428.401238 -78.33152 
L 425.604293 -78.210339 
L 422.807349 -78.086982 
L 420.010405 -77.965941 
L 417.213461 -77.845054 
L 414.416516 -77.72424 
L 411.619572 -77.602966 
L 408.822628 -77.48178 
L 406.025684 -77.356527 
L 403.228739 -77.235589 
L 400.431795 -77.108475 
L 397.634851 -76.978195 
L 394.837907 -76.853766 
L 392.040963 -76.733017 
L 389.244018 -76.612192 
L 386.447074 -76.491351 
L 383.65013 -76.370821 
L 380.853186 -76.25025 
L 378.056241 -76.127745 
L 375.259297 -76.007175 
L 372.462353 -75.886998 
L 369.665409 -75.755116 
L 366.868464 -75.634594 
L 364.07152 -75.50905 
L 361.274576 -75.386248 
L 358.477632 -75.265992 
L 355.680688 -75.145309 
L 352.883743 -75.024717 
L 350.086799 -74.904252 
L 347.289855 -74.783655 
L 344.492911 -74.663521 
L 341.695966 -74.542598 
L 338.899022 -74.42218 
L 336.102078 -74.301634 
L 333.305134 -74.181188 
L 330.508189 -74.060549 
L 327.711245 -73.939361 
L 324.914301 -73.818316 
L 322.117357 -73.696994 
L 319.320413 -73.575529 
L 316.523468 -73.454052 
L 313.726524 -73.332382 
L 310.92958 -73.210579 
L 308.132636 -73.088322 
L 305.335691 -72.965983 
L 302.538747 -72.843544 
L 299.741803 -72.721174 
L 296.944859 -72.598692 
L 294.147914 -72.475826 
L 291.35097 -72.352803 
L 288.554026 -72.230375 
L 285.757082 -72.107397 
L 282.960138 -71.984011 
L 280.163193 -71.860641 
L 277.366249 -71.73685 
L 274.569305 -71.612724 
L 271.772361 -71.488602 
L 268.975416 -71.364282 
L 266.178472 -71.240137 
L 263.381528 -71.115713 
L 260.584584 -70.991135 
L 257.787639 -70.866569 
L 254.990695 -70.742181 
L 252.193751 -70.617903 
L 249.396807 -70.494201 
L 246.599862 -70.370379 
L 243.802918 -70.246644 
L 241.005974 -70.123333 
L 238.20903 -69.999934 
L 235.412086 -69.87672 
L 232.615141 -69.753577 
L 229.818197 -69.630686 
L 227.021253 -69.50739 
L 224.224309 -69.384712 
L 221.427364 -69.2625 
L 218.63042 -69.140085 
L 215.833476 -69.017444 
L 213.036532 -68.894735 
L 210.239587 -68.772048 
L 207.442643 -68.649145 
L 204.645699 -68.526324 
L 201.848755 -68.403591 
L 199.051811 -68.280587 
L 196.254866 -68.157606 
L 193.457922 -68.034811 
L 190.660978 -67.912056 
L 187.864034 -67.78921 
L 185.067089 -67.666233 
L 182.270145 -67.542979 
L 179.473201 -67.419254 
L 176.676257 -67.295381 
L 173.879312 -67.170814 
L 171.082368 -67.046201 
L 168.285424 -66.921112 
L 165.48848 -66.795627 
L 162.691536 -66.669639 
L 159.894591 -66.543108 
L 157.097647 -66.416445 
L 154.300703 -66.28966 
L 151.503759 -66.162844 
L 148.706814 -66.035252 
L 145.90987 -65.90762 
L 143.112926 -65.779602 
L 140.315982 -65.651511 
L 137.519037 -65.522823 
L 134.722093 -65.393968 
L 131.925149 -65.264729 
L 129.128205 -65.135256 
L 126.331261 -65.005912 
L 123.534316 -64.876509 
L 120.737372 -64.746835 
L 117.940428 -64.617211 
L 115.143484 -64.487426 
L 112.346539 -64.357746 
L 109.549595 -64.227463 
L 106.752651 -64.096533 
L 103.955707 -63.965463 
L 101.158762 -63.845863 
L 98.361818 -63.744545 
z
" style="stroke: #ffffff; stroke-opacity: 0.5"/>
    </defs>
    <g clip-path="url(#p8c56780afe)">
     <use xlink:href="#m6889cf9a17" x="0" y="345.6" style="fill: #4c72b0; fill-opacity: 0.5; stroke: #ffffff; stroke-opacity: 0.5"/>
    </g>
   </g>
   <g id="PolyCollection_2">
    <defs>
     <path id="m1bb34de81b" d="M 98.361818 -63.804907 
L 98.361818 -63.90441 
L 101.158762 -64.136928 
L 103.955707 -64.369026 
L 106.752651 -64.600382 
L 109.549595 -64.831442 
L 112.346539 -65.062095 
L 115.143484 -65.29283 
L 117.940428 -65.523238 
L 120.737372 -65.752958 
L 123.534316 -65.982354 
L 126.331261 -66.211075 
L 129.128205 -66.439197 
L 131.925149 -66.666855 
L 134.722093 -66.893758 
L 137.519037 -67.120343 
L 140.315982 -67.346714 
L 143.112926 -67.572507 
L 145.90987 -67.79756 
L 148.706814 -68.022342 
L 151.503759 -68.246399 
L 154.300703 -68.469963 
L 157.097647 -68.692821 
L 159.894591 -68.915687 
L 162.691536 -69.138469 
L 165.48848 -69.360849 
L 168.285424 -69.582878 
L 171.082368 -69.804406 
L 173.879312 -70.026059 
L 176.676257 -70.247593 
L 179.473201 -70.469439 
L 182.270145 -70.690639 
L 185.067089 -70.914584 
L 187.864034 -71.136977 
L 190.660978 -71.359748 
L 193.457922 -71.581611 
L 196.254866 -71.803593 
L 199.051811 -72.025366 
L 201.848755 -72.246819 
L 204.645699 -72.468534 
L 207.442643 -72.690506 
L 210.239587 -72.911987 
L 213.036532 -73.133271 
L 215.833476 -73.354281 
L 218.63042 -73.574847 
L 221.427364 -73.795055 
L 224.224309 -74.015973 
L 227.021253 -74.236589 
L 229.818197 -74.457281 
L 232.615141 -74.677956 
L 235.412086 -74.898029 
L 238.20903 -75.118328 
L 241.005974 -75.338413 
L 243.802918 -75.558603 
L 246.599862 -75.77854 
L 249.396807 -75.998586 
L 252.193751 -76.218969 
L 254.990695 -76.439402 
L 257.787639 -76.659933 
L 260.584584 -76.880248 
L 263.381528 -77.100538 
L 266.178472 -77.320571 
L 268.975416 -77.540851 
L 271.772361 -77.760915 
L 274.569305 -77.980996 
L 277.366249 -78.20117 
L 280.163193 -78.420925 
L 282.960138 -78.641017 
L 285.757082 -78.860972 
L 288.554026 -79.080998 
L 291.35097 -79.301342 
L 294.147914 -79.521906 
L 296.944859 -79.742479 
L 299.741803 -79.963001 
L 302.538747 -80.183071 
L 305.335691 -80.403641 
L 308.132636 -80.624057 
L 310.92958 -80.844195 
L 313.726524 -81.06389 
L 316.523468 -81.283993 
L 319.320413 -81.503458 
L 322.117357 -81.72305 
L 324.914301 -81.942223 
L 327.711245 -82.161202 
L 330.508189 -82.380176 
L 333.305134 -82.598723 
L 336.102078 -82.818684 
L 338.899022 -83.037106 
L 341.695966 -83.267259 
L 344.492911 -83.489451 
L 347.289855 -83.718333 
L 350.086799 -83.936273 
L 352.883743 -84.15394 
L 355.680688 -84.372065 
L 358.477632 -84.589215 
L 361.274576 -84.806335 
L 364.07152 -85.023552 
L 366.868464 -85.240896 
L 369.665409 -85.462093 
L 372.462353 -85.679282 
L 375.259297 -85.896101 
L 378.056241 -86.11331 
L 380.853186 -86.330271 
L 383.65013 -86.547364 
L 386.447074 -86.767668 
L 389.244018 -86.984602 
L 392.040963 -87.201533 
L 394.837907 -87.418161 
L 397.634851 -87.639706 
L 400.431795 -87.856289 
L 403.228739 -88.072893 
L 406.025684 -88.288797 
L 408.822628 -88.504483 
L 411.619572 -88.720428 
L 414.416516 -88.93611 
L 417.213461 -89.151538 
L 420.010405 -89.366989 
L 422.807349 -89.581998 
L 425.604293 -89.797379 
L 428.401238 -90.013254 
L 431.198182 -90.178406 
L 431.198182 -89.801921 
L 431.198182 -89.801921 
L 428.401238 -89.59041 
L 425.604293 -89.378945 
L 422.807349 -89.15816 
L 420.010405 -88.946183 
L 417.213461 -88.734092 
L 414.416516 -88.521678 
L 411.619572 -88.309374 
L 408.822628 -88.097463 
L 406.025684 -87.885141 
L 403.228739 -87.66498 
L 400.431795 -87.449695 
L 397.634851 -87.2382 
L 394.837907 -87.026308 
L 392.040963 -86.815396 
L 389.244018 -86.602138 
L 386.447074 -86.389619 
L 383.65013 -86.176656 
L 380.853186 -85.963721 
L 378.056241 -85.750695 
L 375.259297 -85.537794 
L 372.462353 -85.320953 
L 369.665409 -85.107943 
L 366.868464 -84.894967 
L 364.07152 -84.682209 
L 361.274576 -84.469117 
L 358.477632 -84.256472 
L 355.680688 -84.039804 
L 352.883743 -83.820955 
L 350.086799 -83.607517 
L 347.289855 -83.393599 
L 344.492911 -83.179559 
L 341.695966 -82.965619 
L 338.899022 -82.75187 
L 336.102078 -82.537991 
L 333.305134 -82.324456 
L 330.508189 -82.111092 
L 327.711245 -81.897682 
L 324.914301 -81.684008 
L 322.117357 -81.470651 
L 319.320413 -81.256594 
L 316.523468 -81.04281 
L 313.726524 -80.82858 
L 310.92958 -80.614534 
L 308.132636 -80.400484 
L 305.335691 -80.186025 
L 302.538747 -79.971923 
L 299.741803 -79.757642 
L 296.944859 -79.538833 
L 294.147914 -79.324348 
L 291.35097 -79.109682 
L 288.554026 -78.895294 
L 285.757082 -78.680761 
L 282.960138 -78.465768 
L 280.163193 -78.250714 
L 277.366249 -78.035891 
L 274.569305 -77.820558 
L 271.772361 -77.604919 
L 268.975416 -77.389317 
L 266.178472 -77.173403 
L 263.381528 -76.957718 
L 260.584584 -76.741639 
L 257.787639 -76.524908 
L 254.990695 -76.308539 
L 252.193751 -76.091747 
L 249.396807 -75.874929 
L 246.599862 -75.658149 
L 243.802918 -75.440532 
L 241.005974 -75.223237 
L 238.20903 -75.005582 
L 235.412086 -74.787551 
L 232.615141 -74.569262 
L 229.818197 -74.350758 
L 227.021253 -74.131754 
L 224.224309 -73.912659 
L 221.427364 -73.693481 
L 218.63042 -73.47402 
L 215.833476 -73.254036 
L 213.036532 -73.03311 
L 210.239587 -72.81252 
L 207.442643 -72.590989 
L 204.645699 -72.369199 
L 201.848755 -72.147421 
L 199.051811 -71.925441 
L 196.254866 -71.7037 
L 193.457922 -71.481847 
L 190.660978 -71.260077 
L 187.864034 -71.038524 
L 185.067089 -70.815273 
L 182.270145 -70.593003 
L 179.473201 -70.369925 
L 176.676257 -70.147522 
L 173.879312 -69.924723 
L 171.082368 -69.701903 
L 168.285424 -69.478548 
L 165.48848 -69.254681 
L 162.691536 -69.030527 
L 159.894591 -68.806261 
L 157.097647 -68.582198 
L 154.300703 -68.357539 
L 151.503759 -68.132363 
L 148.706814 -67.906824 
L 145.90987 -67.680554 
L 143.112926 -67.453443 
L 140.315982 -67.225847 
L 137.519037 -66.998145 
L 134.722093 -66.769814 
L 131.925149 -66.541159 
L 129.128205 -66.312251 
L 126.331261 -66.083181 
L 123.534316 -65.853956 
L 120.737372 -65.6242 
L 117.940428 -65.394419 
L 115.143484 -65.16427 
L 112.346539 -64.933347 
L 109.549595 -64.70189 
L 106.752651 -64.469869 
L 103.955707 -64.237829 
L 101.158762 -64.005395 
L 98.361818 -63.804907 
z
" style="stroke: #ffffff; stroke-opacity: 0.5"/>
    </defs>
    <g clip-path="url(#p8c56780afe)">
     <use xlink:href="#m1bb34de81b" x="0" y="345.6" style="fill: #dd8452; fill-opacity: 0.5; stroke: #ffffff; stroke-opacity: 0.5"/>
    </g>
   </g>
   <g id="PolyCollection_3">
    <defs>
     <path id="m1c34085def" d="M 98.361818 -64.244886 
L 98.361818 -64.394472 
L 101.158762 -65.110348 
L 103.955707 -65.824341 
L 106.752651 -66.538445 
L 109.549595 -67.250931 
L 112.346539 -67.963306 
L 115.143484 -68.671763 
L 117.940428 -69.38 
L 120.737372 -70.087735 
L 123.534316 -70.793518 
L 126.331261 -71.49922 
L 129.128205 -72.206323 
L 131.925149 -72.9131 
L 134.722093 -73.619126 
L 137.519037 -74.327432 
L 140.315982 -75.033668 
L 143.112926 -75.736189 
L 145.90987 -76.439495 
L 148.706814 -77.141938 
L 151.503759 -77.843305 
L 154.300703 -78.542415 
L 157.097647 -79.243716 
L 159.894591 -79.947167 
L 162.691536 -80.646907 
L 165.48848 -81.348369 
L 168.285424 -82.050443 
L 171.082368 -82.751324 
L 173.879312 -83.449786 
L 176.676257 -84.147275 
L 179.473201 -84.845027 
L 182.270145 -85.543046 
L 185.067089 -86.239635 
L 187.864034 -86.936104 
L 190.660978 -87.63404 
L 193.457922 -88.330232 
L 196.254866 -89.026058 
L 199.051811 -89.72286 
L 201.848755 -90.41753 
L 204.645699 -91.113529 
L 207.442643 -91.809216 
L 210.239587 -92.504117 
L 213.036532 -93.198395 
L 215.833476 -93.938774 
L 218.63042 -94.631724 
L 221.427364 -95.324226 
L 224.224309 -96.016642 
L 227.021253 -96.708865 
L 229.818197 -97.400185 
L 232.615141 -98.09264 
L 235.412086 -98.786378 
L 238.20903 -99.479068 
L 241.005974 -100.171891 
L 243.802918 -100.865232 
L 246.599862 -101.557917 
L 249.396807 -102.254353 
L 252.193751 -102.948671 
L 254.990695 -103.642118 
L 257.787639 -104.338297 
L 260.584584 -105.029803 
L 263.381528 -105.723811 
L 266.178472 -106.418293 
L 268.975416 -107.111081 
L 271.772361 -107.805524 
L 274.569305 -108.502355 
L 277.366249 -109.197821 
L 280.163193 -109.892415 
L 282.960138 -110.582408 
L 285.757082 -111.270284 
L 288.554026 -111.95919 
L 291.35097 -112.645662 
L 294.147914 -113.333379 
L 296.944859 -114.018093 
L 299.741803 -114.703159 
L 302.538747 -115.384963 
L 305.335691 -116.060856 
L 308.132636 -116.734183 
L 310.92958 -117.408597 
L 313.726524 -118.077849 
L 316.523468 -118.74409 
L 319.320413 -119.351272 
L 322.117357 -119.917626 
L 324.914301 -120.48314 
L 327.711245 -121.049254 
L 330.508189 -121.613895 
L 333.305134 -122.178439 
L 336.102078 -122.743803 
L 338.899022 -123.345946 
L 341.695966 -123.926517 
L 344.492911 -124.516735 
L 347.289855 -125.081783 
L 350.086799 -125.646315 
L 352.883743 -126.208626 
L 355.680688 -126.771244 
L 358.477632 -127.385084 
L 361.274576 -127.95235 
L 364.07152 -128.53738 
L 366.868464 -129.108128 
L 369.665409 -129.688802 
L 372.462353 -130.250858 
L 375.259297 -130.81238 
L 378.056241 -131.380079 
L 380.853186 -131.941712 
L 383.65013 -132.502413 
L 386.447074 -133.103633 
L 389.244018 -133.665818 
L 392.040963 -134.226083 
L 394.837907 -134.785749 
L 397.634851 -135.34565 
L 400.431795 -135.932 
L 403.228739 -136.550068 
L 406.025684 -137.138745 
L 408.822628 -137.701 
L 411.619572 -138.263731 
L 414.416516 -138.828142 
L 417.213461 -139.390512 
L 420.010405 -139.96421 
L 422.807349 -140.528757 
L 425.604293 -141.093345 
L 428.401238 -141.716021 
L 431.198182 -142.142867 
L 431.198182 -141.153878 
L 431.198182 -141.153878 
L 428.401238 -140.600775 
L 425.604293 -140.046324 
L 422.807349 -139.467604 
L 420.010405 -138.910905 
L 417.213461 -138.355074 
L 414.416516 -137.796971 
L 411.619572 -137.242548 
L 408.822628 -136.683962 
L 406.025684 -136.128754 
L 403.228739 -135.568844 
L 400.431795 -135.01572 
L 397.634851 -134.457543 
L 394.837907 -133.905555 
L 392.040963 -133.353233 
L 389.244018 -132.750625 
L 386.447074 -132.181644 
L 383.65013 -131.617741 
L 380.853186 -131.055512 
L 378.056241 -130.497578 
L 375.259297 -129.939251 
L 372.462353 -129.372672 
L 369.665409 -128.819462 
L 366.868464 -128.249525 
L 364.07152 -127.695963 
L 361.274576 -127.143568 
L 358.477632 -126.581504 
L 355.680688 -126.028888 
L 352.883743 -125.476271 
L 350.086799 -124.858071 
L 347.289855 -124.295072 
L 344.492911 -123.741881 
L 341.695966 -123.188034 
L 338.899022 -122.572561 
L 336.102078 -122.019308 
L 333.305134 -121.460761 
L 330.508189 -120.906852 
L 327.711245 -120.351516 
L 324.914301 -119.7734 
L 322.117357 -119.212222 
L 319.320413 -118.65629 
L 316.523468 -118.022542 
L 313.726524 -117.366171 
L 310.92958 -116.687018 
L 308.132636 -116.025449 
L 305.335691 -115.363849 
L 302.538747 -114.69863 
L 299.741803 -113.994929 
L 296.944859 -113.30835 
L 294.147914 -112.609011 
L 291.35097 -111.93646 
L 288.554026 -111.260431 
L 285.757082 -110.58613 
L 282.960138 -109.913123 
L 280.163193 -109.232956 
L 277.366249 -108.551697 
L 274.569305 -107.863322 
L 271.772361 -107.179804 
L 268.975416 -106.502937 
L 266.178472 -105.825563 
L 263.381528 -105.148028 
L 260.584584 -104.472362 
L 257.787639 -103.7931 
L 254.990695 -103.113705 
L 252.193751 -102.43436 
L 249.396807 -101.75335 
L 246.599862 -101.071634 
L 243.802918 -100.392186 
L 241.005974 -99.71254 
L 238.20903 -99.033449 
L 235.412086 -98.354341 
L 232.615141 -97.674243 
L 229.818197 -96.993007 
L 227.021253 -96.314145 
L 224.224309 -95.632232 
L 221.427364 -94.942975 
L 218.63042 -94.262708 
L 215.833476 -93.580828 
L 213.036532 -92.897977 
L 210.239587 -92.215341 
L 207.442643 -91.531805 
L 204.645699 -90.848215 
L 201.848755 -90.164049 
L 199.051811 -89.478921 
L 196.254866 -88.792551 
L 193.457922 -88.106752 
L 190.660978 -87.417413 
L 187.864034 -86.728833 
L 185.067089 -86.040694 
L 182.270145 -85.351436 
L 179.473201 -84.660401 
L 176.676257 -83.970586 
L 173.879312 -83.279195 
L 171.082368 -82.587749 
L 168.285424 -81.892037 
L 165.48848 -81.196226 
L 162.691536 -80.500343 
L 159.894591 -79.803131 
L 157.097647 -79.104415 
L 154.300703 -78.404238 
L 151.503759 -77.704744 
L 148.706814 -77.003019 
L 145.90987 -76.300107 
L 143.112926 -75.596392 
L 140.315982 -74.890836 
L 137.519037 -74.184007 
L 134.722093 -73.476652 
L 131.925149 -72.770731 
L 129.128205 -72.062293 
L 126.331261 -71.355463 
L 123.534316 -70.649617 
L 120.737372 -69.941899 
L 117.940428 -69.234096 
L 115.143484 -68.525267 
L 112.346539 -67.813992 
L 109.549595 -67.101705 
L 106.752651 -66.388315 
L 103.955707 -65.675137 
L 101.158762 -64.959825 
L 98.361818 -64.244886 
z
" style="stroke: #ffffff; stroke-opacity: 0.5"/>
    </defs>
    <g clip-path="url(#p8c56780afe)">
     <use xlink:href="#m1c34085def" x="0" y="345.6" style="fill: #55a868; fill-opacity: 0.5; stroke: #ffffff; stroke-opacity: 0.5"/>
    </g>
   </g>
   <g id="PolyCollection_4">
    <defs>
     <path id="m8982517ad5" d="M 98.361818 -64.733718 
L 98.361818 -64.874232 
L 101.158762 -66.059124 
L 103.955707 -67.245311 
L 106.752651 -68.427972 
L 109.549595 -69.612095 
L 112.346539 -70.795979 
L 115.143484 -71.980225 
L 117.940428 -73.164169 
L 120.737372 -74.349166 
L 123.534316 -75.533137 
L 126.331261 -76.716223 
L 129.128205 -77.898861 
L 131.925149 -79.08115 
L 134.722093 -80.262484 
L 137.519037 -81.442505 
L 140.315982 -82.622237 
L 143.112926 -83.801706 
L 145.90987 -84.981894 
L 148.706814 -86.161307 
L 151.503759 -87.339237 
L 154.300703 -88.517504 
L 157.097647 -89.695051 
L 159.894591 -90.872668 
L 162.691536 -92.049377 
L 165.48848 -93.224599 
L 168.285424 -94.402135 
L 171.082368 -95.576805 
L 173.879312 -96.753152 
L 176.676257 -97.927667 
L 179.473201 -99.100846 
L 182.270145 -100.274471 
L 185.067089 -101.450495 
L 187.864034 -102.623695 
L 190.660978 -103.797787 
L 193.457922 -104.971777 
L 196.254866 -106.145655 
L 199.051811 -107.318611 
L 201.848755 -108.49188 
L 204.645699 -109.664186 
L 207.442643 -110.837864 
L 210.239587 -112.009509 
L 213.036532 -113.181601 
L 215.833476 -114.354994 
L 218.63042 -115.52787 
L 221.427364 -116.701911 
L 224.224309 -117.874854 
L 227.021253 -119.047262 
L 229.818197 -120.218521 
L 232.615141 -121.390279 
L 235.412086 -122.565658 
L 238.20903 -123.734811 
L 241.005974 -124.904356 
L 243.802918 -126.073001 
L 246.599862 -127.241865 
L 249.396807 -128.410228 
L 252.193751 -129.578016 
L 254.990695 -130.744524 
L 257.787639 -131.911949 
L 260.584584 -133.079032 
L 263.381528 -134.243956 
L 266.178472 -135.408736 
L 268.975416 -136.574461 
L 271.772361 -137.741915 
L 274.569305 -138.906819 
L 277.366249 -140.07152 
L 280.163193 -141.235882 
L 282.960138 -142.400693 
L 285.757082 -143.564196 
L 288.554026 -144.728014 
L 291.35097 -145.89006 
L 294.147914 -147.052598 
L 296.944859 -148.218529 
L 299.741803 -149.383868 
L 302.538747 -150.548386 
L 305.335691 -151.709642 
L 308.132636 -152.872453 
L 310.92958 -154.061831 
L 313.726524 -155.252878 
L 316.523468 -156.453447 
L 319.320413 -157.668567 
L 322.117357 -158.854987 
L 324.914301 -160.013132 
L 327.711245 -161.163574 
L 330.508189 -162.31473 
L 333.305134 -163.540332 
L 336.102078 -164.722397 
L 338.899022 -165.935438 
L 341.695966 -167.107554 
L 344.492911 -168.27939 
L 347.289855 -169.492102 
L 350.086799 -170.665531 
L 352.883743 -171.83823 
L 355.680688 -173.047003 
L 358.477632 -174.216947 
L 361.274576 -175.390347 
L 364.07152 -176.560368 
L 366.868464 -177.733955 
L 369.665409 -178.907817 
L 372.462353 -180.17818 
L 375.259297 -181.361901 
L 378.056241 -182.564084 
L 380.853186 -183.732703 
L 383.65013 -184.902214 
L 386.447074 -186.100013 
L 389.244018 -187.267828 
L 392.040963 -188.437895 
L 394.837907 -189.609845 
L 397.634851 -190.782637 
L 400.431795 -191.956698 
L 403.228739 -193.129112 
L 406.025684 -194.303006 
L 408.822628 -195.47796 
L 411.619572 -196.652677 
L 414.416516 -197.828296 
L 417.213461 -199.008277 
L 420.010405 -200.182845 
L 422.807349 -201.354379 
L 425.604293 -202.52841 
L 428.401238 -203.702004 
L 431.198182 -204.665505 
L 431.198182 -203.218919 
L 431.198182 -203.218919 
L 428.401238 -202.06847 
L 425.604293 -200.918232 
L 422.807349 -199.776013 
L 420.010405 -198.633647 
L 417.213461 -197.472726 
L 414.416516 -196.31973 
L 411.619572 -195.17468 
L 408.822628 -194.012526 
L 406.025684 -192.867137 
L 403.228739 -191.716482 
L 400.431795 -190.485168 
L 397.634851 -189.330927 
L 394.837907 -188.176494 
L 392.040963 -187.018093 
L 389.244018 -185.865994 
L 386.447074 -184.71519 
L 383.65013 -183.563227 
L 380.853186 -182.399897 
L 378.056241 -181.211793 
L 375.259297 -179.952948 
L 372.462353 -178.787603 
L 369.665409 -177.625898 
L 366.868464 -176.470183 
L 364.07152 -175.313357 
L 361.274576 -174.151364 
L 358.477632 -172.890037 
L 355.680688 -171.567482 
L 352.883743 -170.419301 
L 350.086799 -169.265523 
L 347.289855 -168.113378 
L 344.492911 -166.962513 
L 341.695966 -165.76813 
L 338.899022 -164.596071 
L 336.102078 -163.443698 
L 333.305134 -162.288805 
L 330.508189 -161.132272 
L 327.711245 -159.991035 
L 324.914301 -158.854967 
L 322.117357 -157.719543 
L 319.320413 -156.546778 
L 316.523468 -155.410525 
L 313.726524 -154.252393 
L 310.92958 -153.118631 
L 308.132636 -151.979415 
L 305.335691 -150.844819 
L 302.538747 -149.636427 
L 299.741803 -148.493536 
L 296.944859 -147.3407 
L 294.147914 -146.182614 
L 291.35097 -145.041052 
L 288.554026 -143.902201 
L 285.757082 -142.761278 
L 282.960138 -141.620906 
L 280.163193 -140.47931 
L 277.366249 -139.337925 
L 274.569305 -138.195246 
L 271.772361 -137.050914 
L 268.975416 -135.905638 
L 266.178472 -134.760464 
L 263.381528 -133.615786 
L 260.584584 -132.468195 
L 257.787639 -131.318761 
L 254.990695 -130.170413 
L 252.193751 -129.020149 
L 249.396807 -127.869567 
L 246.599862 -126.718344 
L 243.802918 -125.56488 
L 241.005974 -124.407032 
L 238.20903 -123.25315 
L 235.412086 -122.098311 
L 232.615141 -120.937191 
L 229.818197 -119.779024 
L 227.021253 -118.62199 
L 224.224309 -117.463424 
L 221.427364 -116.302964 
L 218.63042 -115.141882 
L 215.833476 -113.980943 
L 213.036532 -112.819332 
L 210.239587 -111.657969 
L 207.442643 -110.495752 
L 204.645699 -109.332361 
L 201.848755 -108.170013 
L 199.051811 -107.005395 
L 196.254866 -105.84076 
L 193.457922 -104.675935 
L 190.660978 -103.511457 
L 187.864034 -102.345383 
L 185.067089 -101.180203 
L 182.270145 -100.011491 
L 179.473201 -98.845608 
L 176.676257 -97.679104 
L 173.879312 -96.511413 
L 171.082368 -95.343131 
L 168.285424 -94.174965 
L 165.48848 -93.005074 
L 162.691536 -91.83659 
L 159.894591 -90.666719 
L 157.097647 -89.495497 
L 154.300703 -88.325368 
L 151.503759 -87.154568 
L 148.706814 -85.98383 
L 145.90987 -84.813058 
L 143.112926 -83.640878 
L 140.315982 -82.469021 
L 137.519037 -81.29683 
L 134.722093 -80.124596 
L 131.925149 -78.946176 
L 129.128205 -77.765176 
L 126.331261 -76.581838 
L 123.534316 -75.398903 
L 120.737372 -74.216639 
L 117.940428 -73.032219 
L 115.143484 -71.847388 
L 112.346539 -70.663484 
L 109.549595 -69.477846 
L 106.752651 -68.292586 
L 103.955707 -67.10805 
L 101.158762 -65.921435 
L 98.361818 -64.733718 
z
" style="stroke: #ffffff; stroke-opacity: 0.5"/>
    </defs>
    <g clip-path="url(#p8c56780afe)">
     <use xlink:href="#m8982517ad5" x="0" y="345.6" style="fill: #c44e52; fill-opacity: 0.5; stroke: #ffffff; stroke-opacity: 0.5"/>
    </g>
   </g>
   <g id="PolyCollection_5">
    <defs>
     <path id="m91a71326f3" d="M 98.361818 -65.87152 
L 98.361818 -66.010988 
L 101.158762 -68.325696 
L 103.955707 -70.622396 
L 106.752651 -72.906335 
L 109.549595 -75.203322 
L 112.346539 -77.507448 
L 115.143484 -79.809182 
L 117.940428 -82.035086 
L 120.737372 -84.060697 
L 123.534316 -86.082072 
L 126.331261 -88.103274 
L 129.128205 -90.120695 
L 131.925149 -92.141946 
L 134.722093 -94.158334 
L 137.519037 -96.172685 
L 140.315982 -98.188724 
L 143.112926 -100.204396 
L 145.90987 -102.219315 
L 148.706814 -104.230808 
L 151.503759 -106.504977 
L 154.300703 -108.592692 
L 157.097647 -110.603933 
L 159.894591 -112.61476 
L 162.691536 -114.626577 
L 165.48848 -116.764443 
L 168.285424 -118.872132 
L 171.082368 -120.881537 
L 173.879312 -123.010105 
L 176.676257 -125.251975 
L 179.473201 -127.525702 
L 182.270145 -129.765208 
L 185.067089 -132.005317 
L 187.864034 -134.246611 
L 190.660978 -136.487385 
L 193.457922 -138.723719 
L 196.254866 -140.959756 
L 199.051811 -143.197227 
L 201.848755 -145.434735 
L 204.645699 -147.672963 
L 207.442643 -149.908634 
L 210.239587 -152.144994 
L 213.036532 -154.37966 
L 215.833476 -156.613323 
L 218.63042 -158.847568 
L 221.427364 -161.091697 
L 224.224309 -163.161436 
L 227.021253 -165.16727 
L 229.818197 -167.172818 
L 232.615141 -169.177931 
L 235.412086 -171.183898 
L 238.20903 -173.19266 
L 241.005974 -175.202928 
L 243.802918 -177.21272 
L 246.599862 -179.229417 
L 249.396807 -181.238912 
L 252.193751 -183.250787 
L 254.990695 -185.261239 
L 257.787639 -187.272353 
L 260.584584 -189.278785 
L 263.381528 -191.287508 
L 266.178472 -193.355012 
L 268.975416 -195.370042 
L 271.772361 -197.425936 
L 274.569305 -199.443022 
L 277.366249 -201.457781 
L 280.163193 -203.457395 
L 282.960138 -205.491612 
L 285.757082 -207.532648 
L 288.554026 -209.541189 
L 291.35097 -211.545904 
L 294.147914 -213.679493 
L 296.944859 -215.765546 
L 299.741803 -217.812786 
L 302.538747 -219.891759 
L 305.335691 -221.903542 
L 308.132636 -223.929687 
L 310.92958 -226.12227 
L 313.726524 -228.32431 
L 316.523468 -230.621601 
L 319.320413 -232.876837 
L 322.117357 -235.146295 
L 324.914301 -237.412926 
L 327.711245 -239.419528 
L 330.508189 -241.78396 
L 333.305134 -243.836022 
L 336.102078 -245.865595 
L 338.899022 -247.879189 
L 341.695966 -250.111817 
L 344.492911 -252.25349 
L 347.289855 -254.292176 
L 350.086799 -256.36384 
L 352.883743 -258.409129 
L 355.680688 -260.531711 
L 358.477632 -262.566275 
L 361.274576 -264.621233 
L 364.07152 -266.692507 
L 366.868464 -268.693218 
L 369.665409 -270.685742 
L 372.462353 -272.686446 
L 375.259297 -274.692488 
L 378.056241 -276.692981 
L 380.853186 -278.899184 
L 383.65013 -281.219223 
L 386.447074 -283.535721 
L 389.244018 -285.896064 
L 392.040963 -288.242345 
L 394.837907 -290.590422 
L 397.634851 -292.940558 
L 400.431795 -295.291563 
L 403.228739 -297.641904 
L 406.025684 -299.981436 
L 408.822628 -302.282102 
L 411.619572 -304.587367 
L 414.416516 -306.74507 
L 417.213461 -309.031089 
L 420.010405 -311.314445 
L 422.807349 -313.356273 
L 425.604293 -315.486227 
L 428.401238 -317.732896 
L 431.198182 -319.835455 
L 431.198182 -317.78146 
L 431.198182 -317.78146 
L 428.401238 -315.578349 
L 425.604293 -313.379936 
L 422.807349 -311.415354 
L 420.010405 -309.300178 
L 417.213461 -307.065137 
L 414.416516 -304.92106 
L 411.619572 -302.719553 
L 408.822628 -300.449008 
L 406.025684 -298.185523 
L 403.228739 -295.864573 
L 400.431795 -293.556743 
L 397.634851 -291.229751 
L 394.837907 -288.891123 
L 392.040963 -286.275341 
L 389.244018 -283.958286 
L 386.447074 -281.572635 
L 383.65013 -279.297223 
L 380.853186 -277.02836 
L 378.056241 -274.972326 
L 375.259297 -272.99339 
L 372.462353 -271.016378 
L 369.665409 -269.038162 
L 366.868464 -267.05681 
L 364.07152 -265.079166 
L 361.274576 -263.090905 
L 358.477632 -261.078203 
L 355.680688 -258.992407 
L 352.883743 -256.939969 
L 350.086799 -254.92863 
L 347.289855 -252.939348 
L 344.492911 -250.909612 
L 341.695966 -248.733194 
L 338.899022 -246.625443 
L 336.102078 -244.637317 
L 333.305134 -242.604552 
L 330.508189 -240.524483 
L 327.711245 -238.38762 
L 324.914301 -236.392598 
L 322.117357 -234.151858 
L 319.320413 -231.911948 
L 316.523468 -229.678134 
L 313.726524 -227.438348 
L 310.92958 -225.328411 
L 308.132636 -223.318696 
L 305.335691 -221.289726 
L 302.538747 -219.285163 
L 299.741803 -217.171427 
L 296.944859 -215.137908 
L 294.147914 -213.126085 
L 291.35097 -211.009511 
L 288.554026 -208.997155 
L 285.757082 -207.001388 
L 282.960138 -204.968026 
L 280.163193 -202.972057 
L 277.366249 -200.980375 
L 274.569305 -198.985834 
L 271.772361 -196.992511 
L 268.975416 -194.989343 
L 266.178472 -192.983924 
L 263.381528 -190.987692 
L 260.584584 -188.986867 
L 257.787639 -186.985786 
L 254.990695 -184.953005 
L 252.193751 -182.955859 
L 249.396807 -180.959893 
L 246.599862 -178.960319 
L 243.802918 -176.961506 
L 241.005974 -174.962417 
L 238.20903 -172.9617 
L 235.412086 -170.962012 
L 232.615141 -168.96336 
L 229.818197 -166.966041 
L 227.021253 -164.966438 
L 224.224309 -162.968081 
L 221.427364 -160.884955 
L 218.63042 -158.650176 
L 215.833476 -156.411167 
L 213.036532 -154.174234 
L 210.239587 -151.93652 
L 207.442643 -149.698917 
L 204.645699 -147.46236 
L 201.848755 -145.225524 
L 199.051811 -142.989983 
L 196.254866 -140.750467 
L 193.457922 -138.513437 
L 190.660978 -136.276205 
L 187.864034 -134.035644 
L 185.067089 -131.793582 
L 182.270145 -129.554544 
L 179.473201 -127.31632 
L 176.676257 -125.041008 
L 173.879312 -122.802253 
L 171.082368 -120.733852 
L 168.285424 -118.727033 
L 165.48848 -116.562485 
L 162.691536 -114.48588 
L 159.894591 -112.474727 
L 157.097647 -110.468049 
L 154.300703 -108.45889 
L 151.503759 -106.309671 
L 148.706814 -104.100238 
L 145.90987 -102.093652 
L 143.112926 -100.082261 
L 140.315982 -98.069329 
L 137.519037 -96.055899 
L 134.722093 -94.043111 
L 131.925149 -92.026865 
L 129.128205 -90.008043 
L 126.331261 -87.99249 
L 123.534316 -85.972687 
L 120.737372 -83.954305 
L 117.940428 -81.929668 
L 115.143484 -79.648066 
L 112.346539 -77.350231 
L 109.549595 -75.051171 
L 106.752651 -72.758643 
L 103.955707 -70.480262 
L 101.158762 -68.180544 
L 98.361818 -65.87152 
z
" style="stroke: #ffffff; stroke-opacity: 0.5"/>
    </defs>
    <g clip-path="url(#p8c56780afe)">
     <use xlink:href="#m91a71326f3" x="0" y="345.6" style="fill: #8172b3; fill-opacity: 0.5; stroke: #ffffff; stroke-opacity: 0.5"/>
    </g>
   </g>
   <g id="line2d_14">
    <path d="M 98.361818 281.823424 
L 101.158762 281.701723 
L 103.955707 281.572857 
L 106.752651 281.442108 
L 109.549595 281.311697 
L 112.346539 281.181729 
L 115.143484 281.052095 
L 117.940428 280.922659 
L 120.737372 280.793363 
L 123.534316 280.664433 
L 126.331261 280.535641 
L 129.128205 280.407025 
L 131.925149 280.278732 
L 134.722093 280.150479 
L 137.519037 280.022268 
L 140.315982 279.894133 
L 143.112926 279.766276 
L 145.90987 279.638682 
L 148.706814 279.511263 
L 151.503759 279.384057 
L 154.300703 279.257128 
L 157.097647 279.130336 
L 159.894591 279.00383 
L 162.691536 278.877539 
L 165.48848 278.751361 
L 168.285424 278.625313 
L 171.082368 278.499556 
L 173.879312 278.373883 
L 176.676257 278.248401 
L 179.473201 278.123128 
L 182.270145 277.997845 
L 185.067089 277.87267 
L 187.864034 277.747622 
L 190.660978 277.622711 
L 193.457922 277.498092 
L 196.254866 277.373504 
L 199.051811 277.248912 
L 201.848755 277.124382 
L 204.645699 276.999984 
L 207.442643 276.875554 
L 210.239587 276.751429 
L 213.036532 276.627374 
L 215.833476 276.503363 
L 218.63042 276.379468 
L 221.427364 276.255762 
L 224.224309 276.132181 
L 227.021253 276.008306 
L 229.818197 275.884423 
L 232.615141 275.760602 
L 235.412086 275.636803 
L 238.20903 275.513117 
L 241.005974 275.389395 
L 243.802918 275.265764 
L 246.599862 275.142041 
L 249.396807 275.018358 
L 252.193751 274.894616 
L 254.990695 274.770749 
L 257.787639 274.646842 
L 260.584584 274.523029 
L 263.381528 274.399089 
L 266.178472 274.275365 
L 268.975416 274.151667 
L 271.772361 274.02785 
L 274.569305 273.904008 
L 277.366249 273.780235 
L 280.163193 273.656791 
L 282.960138 273.533364 
L 285.757082 273.410067 
L 288.554026 273.286656 
L 291.35097 273.163608 
L 294.147914 273.040321 
L 296.944859 272.916197 
L 299.741803 272.793192 
L 302.538747 272.670173 
L 305.335691 272.54717 
L 308.132636 272.424188 
L 310.92958 272.301217 
L 313.726524 272.178361 
L 316.523468 272.055475 
L 319.320413 271.932686 
L 322.117357 271.810012 
L 324.914301 271.687235 
L 327.711245 271.5642 
L 330.508189 271.438642 
L 333.305134 271.316377 
L 336.102078 271.193622 
L 338.899022 271.070346 
L 341.695966 270.948018 
L 344.492911 270.825698 
L 347.289855 270.703665 
L 350.086799 270.579589 
L 352.883743 270.45729 
L 355.680688 270.334869 
L 358.477632 270.21249 
L 361.274576 270.088257 
L 364.07152 269.965373 
L 366.868464 269.83248 
L 369.665409 269.710579 
L 372.462353 269.581916 
L 375.259297 269.460161 
L 378.056241 269.338196 
L 380.853186 269.215753 
L 383.65013 269.086466 
L 386.447074 268.964653 
L 389.244018 268.83938 
L 392.040963 268.714602 
L 394.837907 268.591839 
L 397.634851 268.469326 
L 400.431795 268.345658 
L 403.228739 268.222438 
L 406.025684 268.100411 
L 408.822628 267.971353 
L 411.619572 267.849756 
L 414.416516 267.713753 
L 417.213461 267.590334 
L 420.010405 267.468704 
L 422.807349 267.343863 
L 425.604293 267.213599 
L 428.401238 267.08993 
L 431.198182 266.989319 
" clip-path="url(#p8c56780afe)" style="fill: none; stroke: #4c72b0; stroke-width: 3; stroke-linecap: round"/>
   </g>
   <g id="line2d_15">
    <path d="M 98.361818 281.733431 
L 101.158762 281.508002 
L 103.955707 281.276037 
L 106.752651 281.044709 
L 109.549595 280.813839 
L 112.346539 280.583479 
L 115.143484 280.353308 
L 117.940428 280.123489 
L 120.737372 279.894146 
L 123.534316 279.665127 
L 126.331261 279.436648 
L 129.128205 279.208433 
L 131.925149 278.980466 
L 134.722093 278.752872 
L 137.519037 278.525702 
L 140.315982 278.298793 
L 143.112926 278.072168 
L 145.90987 277.846099 
L 148.706814 277.620515 
L 151.503759 277.395304 
L 154.300703 277.1705 
L 157.097647 276.946124 
L 159.894591 276.722045 
L 162.691536 276.497911 
L 165.48848 276.274158 
L 168.285424 276.050618 
L 171.082368 275.827657 
L 173.879312 275.604965 
L 176.676257 275.382251 
L 179.473201 275.159632 
L 182.270145 274.937193 
L 185.067089 274.714389 
L 187.864034 274.492489 
L 190.660978 274.270723 
L 193.457922 274.049197 
L 196.254866 273.827738 
L 199.051811 273.606309 
L 201.848755 273.384957 
L 204.645699 273.163473 
L 207.442643 272.94199 
L 210.239587 272.721013 
L 213.036532 272.500315 
L 215.833476 272.279718 
L 218.63042 272.059651 
L 221.427364 271.840012 
L 224.224309 271.620068 
L 227.021253 271.400286 
L 229.818197 271.180551 
L 232.615141 270.961082 
L 235.412086 270.741894 
L 238.20903 270.522724 
L 241.005974 270.303795 
L 243.802918 270.084902 
L 246.599862 269.866255 
L 249.396807 269.647797 
L 252.193751 269.429176 
L 254.990695 269.210464 
L 257.787639 268.991895 
L 260.584584 268.77334 
L 263.381528 268.555021 
L 266.178472 268.337005 
L 268.975416 268.118911 
L 271.772361 267.900952 
L 274.569305 267.682982 
L 277.366249 267.465199 
L 280.163193 267.247708 
L 282.960138 267.030104 
L 285.757082 266.812559 
L 288.554026 266.594997 
L 291.35097 266.377444 
L 294.147914 266.159817 
L 296.944859 265.942248 
L 299.741803 265.723804 
L 302.538747 265.506444 
L 305.335691 265.28919 
L 308.132636 265.071836 
L 310.92958 264.853141 
L 313.726524 264.635254 
L 316.523468 264.418383 
L 319.320413 264.201742 
L 322.117357 263.98311 
L 324.914301 263.766653 
L 327.711245 263.548755 
L 330.508189 263.332504 
L 333.305134 263.11632 
L 336.102078 262.895763 
L 338.899022 262.679576 
L 341.695966 262.461185 
L 344.492911 262.244263 
L 347.289855 262.025986 
L 350.086799 261.808727 
L 352.883743 261.593146 
L 355.680688 261.376362 
L 358.477632 261.157374 
L 361.274576 260.942518 
L 364.07152 260.727427 
L 366.868464 260.512435 
L 369.665409 260.296612 
L 372.462353 260.08158 
L 375.259297 259.86606 
L 378.056241 259.651228 
L 380.853186 259.436415 
L 383.65013 259.221646 
L 386.447074 259.006182 
L 389.244018 258.791631 
L 392.040963 258.573488 
L 394.837907 258.359289 
L 397.634851 258.143519 
L 400.431795 257.924989 
L 403.228739 257.709077 
L 406.025684 257.489009 
L 408.822628 257.275151 
L 411.619572 257.059685 
L 414.416516 256.845969 
L 417.213461 256.632544 
L 420.010405 256.417976 
L 422.807349 256.204146 
L 425.604293 255.989154 
L 428.401238 255.771604 
L 431.198182 255.595267 
" clip-path="url(#p8c56780afe)" style="fill: none; stroke: #dd8452; stroke-width: 3; stroke-linecap: round"/>
   </g>
   <g id="line2d_16">
    <path d="M 98.361818 281.257635 
L 101.158762 280.541673 
L 103.955707 279.826982 
L 106.752651 279.113023 
L 109.549595 278.400558 
L 112.346539 277.687566 
L 115.143484 276.97812 
L 117.940428 276.269465 
L 120.737372 275.561669 
L 123.534316 274.854833 
L 126.331261 274.14905 
L 129.128205 273.441338 
L 131.925149 272.733402 
L 134.722093 272.027215 
L 137.519037 271.318526 
L 140.315982 270.611479 
L 143.112926 269.906832 
L 145.90987 269.202167 
L 148.706814 268.498519 
L 151.503759 267.795895 
L 154.300703 267.095049 
L 157.097647 266.393968 
L 159.894591 265.693555 
L 162.691536 264.996165 
L 165.48848 264.298108 
L 168.285424 263.599309 
L 171.082368 262.901611 
L 173.879312 262.206767 
L 176.676257 261.512764 
L 179.473201 260.818762 
L 182.270145 260.124403 
L 185.067089 259.431325 
L 187.864034 258.738845 
L 190.660978 258.04516 
L 193.457922 257.352244 
L 196.254866 256.660634 
L 199.051811 255.968347 
L 201.848755 255.278351 
L 204.645699 254.587615 
L 207.442643 253.897095 
L 210.239587 253.207365 
L 213.036532 252.518017 
L 215.833476 251.813828 
L 218.63042 251.124702 
L 221.427364 250.436454 
L 224.224309 249.745958 
L 227.021253 249.057279 
L 229.818197 248.370551 
L 232.615141 247.682627 
L 235.412086 246.994156 
L 238.20903 246.306555 
L 241.005974 245.619096 
L 243.802918 244.93073 
L 246.599862 244.243158 
L 249.396807 243.551967 
L 252.193751 242.862951 
L 254.990695 242.170888 
L 257.787639 241.480724 
L 260.584584 240.793812 
L 263.381528 240.10646 
L 266.178472 239.418145 
L 268.975416 238.73129 
L 271.772361 238.043514 
L 274.569305 237.352511 
L 277.366249 236.661907 
L 280.163193 235.969235 
L 282.960138 235.283432 
L 285.757082 234.601472 
L 288.554026 233.918195 
L 291.35097 233.236957 
L 294.147914 232.555571 
L 296.944859 231.870916 
L 299.741803 231.188973 
L 302.538747 230.497929 
L 305.335691 229.825624 
L 308.132636 229.156707 
L 310.92958 228.486405 
L 313.726524 227.817666 
L 316.523468 227.155276 
L 319.320413 226.540581 
L 322.117357 225.978614 
L 324.914301 225.416161 
L 327.711245 224.848389 
L 330.508189 224.285074 
L 333.305134 223.723427 
L 336.102078 223.160448 
L 338.899022 222.576586 
L 341.695966 221.983308 
L 344.492911 221.418292 
L 347.289855 220.856056 
L 350.086799 220.29319 
L 352.883743 219.720978 
L 355.680688 219.161164 
L 358.477632 218.592304 
L 361.274576 218.03052 
L 364.07152 217.467023 
L 366.868464 216.906259 
L 369.665409 216.34018 
L 372.462353 215.779926 
L 375.259297 215.216339 
L 378.056241 214.654229 
L 380.853186 214.088667 
L 383.65013 213.525945 
L 386.447074 212.957566 
L 389.244018 212.392773 
L 392.040963 211.822214 
L 394.837907 211.265131 
L 397.634851 210.708816 
L 400.431795 210.145702 
L 403.228739 209.573844 
L 406.025684 209.000293 
L 408.822628 208.437941 
L 411.619572 207.879298 
L 414.416516 207.316407 
L 417.213461 206.757657 
L 420.010405 206.176458 
L 422.807349 205.615193 
L 425.604293 205.044566 
L 428.401238 204.472521 
L 431.198182 203.985891 
" clip-path="url(#p8c56780afe)" style="fill: none; stroke: #55a868; stroke-width: 3; stroke-linecap: round"/>
   </g>
   <g id="line2d_17">
    <path d="M 98.361818 280.772608 
L 101.158762 279.587365 
L 103.955707 278.401853 
L 106.752651 277.219036 
L 109.549595 276.034937 
L 112.346539 274.851044 
L 115.143484 273.668152 
L 117.940428 272.484306 
L 120.737372 271.301984 
L 123.534316 270.120402 
L 126.331261 268.938889 
L 129.128205 267.757837 
L 131.925149 266.577441 
L 134.722093 265.398656 
L 137.519037 264.220804 
L 140.315982 263.043704 
L 143.112926 261.866928 
L 145.90987 260.68973 
L 148.706814 259.513462 
L 151.503759 258.338135 
L 154.300703 257.162815 
L 157.097647 255.988045 
L 159.894591 254.812877 
L 162.691536 253.638964 
L 165.48848 252.465794 
L 168.285424 251.291977 
L 171.082368 250.119876 
L 173.879312 248.94714 
L 176.676257 247.775479 
L 179.473201 246.605194 
L 182.270145 245.434578 
L 185.067089 244.262007 
L 187.864034 243.092143 
L 190.660978 241.921446 
L 193.457922 240.751631 
L 196.254866 239.581829 
L 199.051811 238.41255 
L 201.848755 237.242864 
L 204.645699 236.074448 
L 207.442643 234.904964 
L 210.239587 233.73706 
L 213.036532 232.569646 
L 215.833476 231.401092 
L 218.63042 230.233057 
L 221.427364 229.064447 
L 224.224309 227.896102 
L 227.021253 226.729345 
L 229.818197 225.563659 
L 232.615141 224.397123 
L 235.412086 223.227716 
L 238.20903 222.064393 
L 241.005974 220.901161 
L 243.802918 219.737946 
L 246.599862 218.575352 
L 249.396807 217.41376 
L 252.193751 216.247789 
L 254.990695 215.087338 
L 257.787639 213.926916 
L 260.584584 212.765932 
L 263.381528 211.607446 
L 266.178472 210.449226 
L 268.975416 209.289463 
L 271.772361 208.131644 
L 274.569305 206.974512 
L 277.366249 205.818704 
L 280.163193 204.657688 
L 282.960138 203.501137 
L 285.757082 202.347018 
L 288.554026 201.189938 
L 291.35097 200.0339 
L 294.147914 198.878503 
L 296.944859 197.72089 
L 299.741803 196.557664 
L 302.538747 195.40079 
L 305.335691 194.231725 
L 308.132636 193.073354 
L 310.92958 191.916496 
L 313.726524 190.757501 
L 316.523468 189.593026 
L 319.320413 188.432844 
L 322.117357 187.270844 
L 324.914301 186.116459 
L 327.711245 184.969121 
L 330.508189 183.818605 
L 333.305134 182.635961 
L 336.102078 181.464265 
L 338.899022 180.264139 
L 341.695966 179.07993 
L 344.492911 177.903415 
L 347.289855 176.724466 
L 350.086799 175.551623 
L 352.883743 174.369935 
L 355.680688 173.196542 
L 358.477632 171.986948 
L 361.274576 170.792453 
L 364.07152 169.618409 
L 366.868464 168.443679 
L 369.665409 167.268628 
L 372.462353 166.077196 
L 375.259297 164.901166 
L 378.056241 163.70284 
L 380.853186 162.53023 
L 383.65013 161.360038 
L 386.447074 160.189733 
L 389.244018 159.023184 
L 392.040963 157.846411 
L 394.837907 156.670571 
L 397.634851 155.497213 
L 400.431795 154.330005 
L 403.228739 153.146689 
L 406.025684 151.977905 
L 408.822628 150.797008 
L 411.619572 149.624236 
L 414.416516 148.455624 
L 417.213461 147.273819 
L 420.010405 146.103732 
L 422.807349 144.933785 
L 425.604293 143.771487 
L 428.401238 142.604384 
L 431.198182 141.563557 
" clip-path="url(#p8c56780afe)" style="fill: none; stroke: #c44e52; stroke-width: 3; stroke-linecap: round"/>
   </g>
   <g id="line2d_18">
    <path d="M 98.361818 279.640586 
L 101.158762 277.332086 
L 103.955707 275.034518 
L 106.752651 272.756843 
L 109.549595 270.465657 
L 112.346539 268.166875 
L 115.143484 265.870307 
L 117.940428 263.617496 
L 120.737372 261.594565 
L 123.534316 259.576549 
L 126.331261 257.557865 
L 129.128205 255.543319 
L 131.925149 253.525267 
L 134.722093 251.510921 
L 137.519037 249.498368 
L 140.315982 247.484491 
L 143.112926 245.471455 
L 145.90987 243.459416 
L 148.706814 241.450598 
L 151.503759 239.214249 
L 154.300703 237.091742 
L 157.097647 235.08212 
L 159.894591 233.0739 
L 162.691536 231.062661 
L 165.48848 228.960448 
L 168.285424 226.819564 
L 171.082368 224.811887 
L 173.879312 222.718201 
L 176.676257 220.476596 
L 179.473201 218.199735 
L 182.270145 215.959872 
L 185.067089 213.718497 
L 187.864034 211.474722 
L 190.660978 209.232802 
L 193.457922 206.994038 
L 196.254866 204.755348 
L 199.051811 202.515277 
L 201.848755 200.275848 
L 204.645699 198.035487 
L 207.442643 195.796609 
L 210.239587 193.556412 
L 213.036532 191.316586 
L 215.833476 189.078274 
L 218.63042 186.834334 
L 221.427364 184.596087 
L 224.224309 182.536416 
L 227.021253 180.534648 
L 229.818197 178.532849 
L 232.615141 176.532079 
L 235.412086 174.530853 
L 238.20903 172.528239 
L 241.005974 170.525547 
L 243.802918 168.522738 
L 246.599862 166.519064 
L 249.396807 164.516138 
L 252.193751 162.515718 
L 254.990695 160.51187 
L 257.787639 158.502429 
L 260.584584 156.500461 
L 263.381528 154.49743 
L 266.178472 152.484634 
L 268.975416 150.481359 
L 271.772361 148.466632 
L 274.569305 146.463678 
L 277.366249 144.460976 
L 280.163193 142.450221 
L 282.960138 140.42495 
L 285.757082 138.378611 
L 288.554026 136.363792 
L 291.35097 134.326733 
L 294.147914 132.178223 
L 296.944859 130.140182 
L 299.741803 128.088661 
L 302.538747 126.008174 
L 305.335691 124.00298 
L 308.132636 121.981457 
L 310.92958 119.888465 
L 313.726524 117.707851 
L 316.523468 115.423709 
L 319.320413 113.17824 
L 322.117357 110.908395 
L 324.914301 108.656918 
L 327.711245 106.646208 
L 330.508189 104.327596 
L 333.305134 102.269155 
L 336.102078 100.190156 
L 338.899022 98.175922 
L 341.695966 95.968311 
L 344.492911 93.854738 
L 347.289855 91.83519 
L 350.086799 89.815231 
L 352.883743 87.800931 
L 355.680688 85.66333 
L 358.477632 83.634739 
L 361.274576 81.613757 
L 364.07152 79.558564 
L 366.868464 77.564877 
L 369.665409 75.569367 
L 372.462353 73.553177 
L 375.259297 71.541314 
L 378.056241 69.547208 
L 380.853186 67.357712 
L 383.65013 65.05345 
L 386.447074 62.748516 
L 389.244018 60.383674 
L 392.040963 58.046791 
L 394.837907 55.647747 
L 397.634851 53.296242 
L 400.431795 50.94678 
L 403.228739 48.606799 
L 406.025684 46.273104 
L 408.822628 43.982797 
L 411.619572 41.660068 
L 414.416516 39.485314 
L 417.213461 37.231895 
L 420.010405 34.959097 
L 422.807349 32.894002 
L 425.604293 30.817359 
L 428.401238 28.57406 
L 431.198182 26.445635 
" clip-path="url(#p8c56780afe)" style="fill: none; stroke: #8172b3; stroke-width: 3; stroke-linecap: round"/>
   </g>
   <g id="patch_3">
    <path d="M 81.72 294.66 
L 81.72 12.96 
" style="fill: none; stroke: #ffffff; stroke-width: 1.25; stroke-linejoin: miter; stroke-linecap: square"/>
   </g>
   <g id="patch_4">
    <path d="M 447.84 294.66 
L 447.84 12.96 
" style="fill: none; stroke: #ffffff; stroke-width: 1.25; stroke-linejoin: miter; stroke-linecap: square"/>
   </g>
   <g id="patch_5">
    <path d="M 81.72 294.66 
L 447.84 294.66 
" style="fill: none; stroke: #ffffff; stroke-width: 1.25; stroke-linejoin: miter; stroke-linecap: square"/>
   </g>
   <g id="patch_6">
    <path d="M 81.72 12.96 
L 447.84 12.96 
" style="fill: none; stroke: #ffffff; stroke-width: 1.25; stroke-linejoin: miter; stroke-linecap: square"/>
   </g>
   <g id="legend_1">
    <g id="patch_7">
     <path d="M 89.42 102.489688 
L 209.087969 102.489688 
Q 211.287969 102.489688 211.287969 100.289688 
L 211.287969 20.66 
Q 211.287969 18.46 209.087969 18.46 
L 89.42 18.46 
Q 87.22 18.46 87.22 20.66 
L 87.22 100.289688 
Q 87.22 102.489688 89.42 102.489688 
z
" style="fill: #eaeaf2; opacity: 0.8; stroke: #cccccc; stroke-linejoin: miter"/>
    </g>
    <g id="line2d_19">
     <path d="M 91.62 27.368281 
L 102.62 27.368281 
L 113.62 27.368281 
" style="fill: none; stroke: #4c72b0; stroke-width: 3; stroke-linecap: round"/>
    </g>
    <g id="text_16">
     <!-- DATS-DELAY-0 -->
     <g style="fill: #262626" transform="translate(122.42 31.218281)scale(0.11 -0.11)">
      <defs>
       <path id="DejaVuSans-44" d="M 1259 4147 
L 1259 519 
L 2022 519 
Q 2988 519 3436 956 
Q 3884 1394 3884 2338 
Q 3884 3275 3436 3711 
Q 2988 4147 2022 4147 
L 1259 4147 
z
M 628 4666 
L 1925 4666 
Q 3281 4666 3915 4102 
Q 4550 3538 4550 2338 
Q 4550 1131 3912 565 
Q 3275 0 1925 0 
L 628 0 
L 628 4666 
z
" transform="scale(0.015625)"/>
       <path id="DejaVuSans-41" d="M 2188 4044 
L 1331 1722 
L 3047 1722 
L 2188 4044 
z
M 1831 4666 
L 2547 4666 
L 4325 0 
L 3669 0 
L 3244 1197 
L 1141 1197 
L 716 0 
L 50 0 
L 1831 4666 
z
" transform="scale(0.015625)"/>
       <path id="DejaVuSans-2d" d="M 313 2009 
L 1997 2009 
L 1997 1497 
L 313 1497 
L 313 2009 
z
" transform="scale(0.015625)"/>
       <path id="DejaVuSans-45" d="M 628 4666 
L 3578 4666 
L 3578 4134 
L 1259 4134 
L 1259 2753 
L 3481 2753 
L 3481 2222 
L 1259 2222 
L 1259 531 
L 3634 531 
L 3634 0 
L 628 0 
L 628 4666 
z
" transform="scale(0.015625)"/>
       <path id="DejaVuSans-4c" d="M 628 4666 
L 1259 4666 
L 1259 531 
L 3531 531 
L 3531 0 
L 628 0 
L 628 4666 
z
" transform="scale(0.015625)"/>
       <path id="DejaVuSans-59" d="M -13 4666 
L 666 4666 
L 1959 2747 
L 3244 4666 
L 3922 4666 
L 2272 2222 
L 2272 0 
L 1638 0 
L 1638 2222 
L -13 4666 
z
" transform="scale(0.015625)"/>
      </defs>
      <use xlink:href="#DejaVuSans-44"/>
      <use xlink:href="#DejaVuSans-41" x="75.251953"/>
      <use xlink:href="#DejaVuSans-54" x="135.910156"/>
      <use xlink:href="#DejaVuSans-53" x="196.994141"/>
      <use xlink:href="#DejaVuSans-2d" x="260.470703"/>
      <use xlink:href="#DejaVuSans-44" x="296.554688"/>
      <use xlink:href="#DejaVuSans-45" x="373.556641"/>
      <use xlink:href="#DejaVuSans-4c" x="436.740234"/>
      <use xlink:href="#DejaVuSans-41" x="494.703125"/>
      <use xlink:href="#DejaVuSans-59" x="555.361328"/>
      <use xlink:href="#DejaVuSans-2d" x="604.570312"/>
      <use xlink:href="#DejaVuSans-30" x="640.654297"/>
     </g>
    </g>
    <g id="line2d_20">
     <path d="M 91.62 43.514219 
L 102.62 43.514219 
L 113.62 43.514219 
" style="fill: none; stroke: #dd8452; stroke-width: 3; stroke-linecap: round"/>
    </g>
    <g id="text_17">
     <!-- DATS-DELAY-1 -->
     <g style="fill: #262626" transform="translate(122.42 47.364219)scale(0.11 -0.11)">
      <use xlink:href="#DejaVuSans-44"/>
      <use xlink:href="#DejaVuSans-41" x="75.251953"/>
      <use xlink:href="#DejaVuSans-54" x="135.910156"/>
      <use xlink:href="#DejaVuSans-53" x="196.994141"/>
      <use xlink:href="#DejaVuSans-2d" x="260.470703"/>
      <use xlink:href="#DejaVuSans-44" x="296.554688"/>
      <use xlink:href="#DejaVuSans-45" x="373.556641"/>
      <use xlink:href="#DejaVuSans-4c" x="436.740234"/>
      <use xlink:href="#DejaVuSans-41" x="494.703125"/>
      <use xlink:href="#DejaVuSans-59" x="555.361328"/>
      <use xlink:href="#DejaVuSans-2d" x="604.570312"/>
      <use xlink:href="#DejaVuSans-31" x="640.654297"/>
     </g>
    </g>
    <g id="line2d_21">
     <path d="M 91.62 59.660156 
L 102.62 59.660156 
L 113.62 59.660156 
" style="fill: none; stroke: #55a868; stroke-width: 3; stroke-linecap: round"/>
    </g>
    <g id="text_18">
     <!-- DATS-DELAY-5 -->
     <g style="fill: #262626" transform="translate(122.42 63.510156)scale(0.11 -0.11)">
      <use xlink:href="#DejaVuSans-44"/>
      <use xlink:href="#DejaVuSans-41" x="75.251953"/>
      <use xlink:href="#DejaVuSans-54" x="135.910156"/>
      <use xlink:href="#DejaVuSans-53" x="196.994141"/>
      <use xlink:href="#DejaVuSans-2d" x="260.470703"/>
      <use xlink:href="#DejaVuSans-44" x="296.554688"/>
      <use xlink:href="#DejaVuSans-45" x="373.556641"/>
      <use xlink:href="#DejaVuSans-4c" x="436.740234"/>
      <use xlink:href="#DejaVuSans-41" x="494.703125"/>
      <use xlink:href="#DejaVuSans-59" x="555.361328"/>
      <use xlink:href="#DejaVuSans-2d" x="604.570312"/>
      <use xlink:href="#DejaVuSans-35" x="640.654297"/>
     </g>
    </g>
    <g id="line2d_22">
     <path d="M 91.62 75.806094 
L 102.62 75.806094 
L 113.62 75.806094 
" style="fill: none; stroke: #c44e52; stroke-width: 3; stroke-linecap: round"/>
    </g>
    <g id="text_19">
     <!-- DATS-DELAY-10 -->
     <g style="fill: #262626" transform="translate(122.42 79.656094)scale(0.11 -0.11)">
      <use xlink:href="#DejaVuSans-44"/>
      <use xlink:href="#DejaVuSans-41" x="75.251953"/>
      <use xlink:href="#DejaVuSans-54" x="135.910156"/>
      <use xlink:href="#DejaVuSans-53" x="196.994141"/>
      <use xlink:href="#DejaVuSans-2d" x="260.470703"/>
      <use xlink:href="#DejaVuSans-44" x="296.554688"/>
      <use xlink:href="#DejaVuSans-45" x="373.556641"/>
      <use xlink:href="#DejaVuSans-4c" x="436.740234"/>
      <use xlink:href="#DejaVuSans-41" x="494.703125"/>
      <use xlink:href="#DejaVuSans-59" x="555.361328"/>
      <use xlink:href="#DejaVuSans-2d" x="604.570312"/>
      <use xlink:href="#DejaVuSans-31" x="640.654297"/>
      <use xlink:href="#DejaVuSans-30" x="704.277344"/>
     </g>
    </g>
    <g id="line2d_23">
     <path d="M 91.62 91.952031 
L 102.62 91.952031 
L 113.62 91.952031 
" style="fill: none; stroke: #8172b3; stroke-width: 3; stroke-linecap: round"/>
    </g>
    <g id="text_20">
     <!-- DATS-DELAY-20 -->
     <g style="fill: #262626" transform="translate(122.42 95.802031)scale(0.11 -0.11)">
      <use xlink:href="#DejaVuSans-44"/>
      <use xlink:href="#DejaVuSans-41" x="75.251953"/>
      <use xlink:href="#DejaVuSans-54" x="135.910156"/>
      <use xlink:href="#DejaVuSans-53" x="196.994141"/>
      <use xlink:href="#DejaVuSans-2d" x="260.470703"/>
      <use xlink:href="#DejaVuSans-44" x="296.554688"/>
      <use xlink:href="#DejaVuSans-45" x="373.556641"/>
      <use xlink:href="#DejaVuSans-4c" x="436.740234"/>
      <use xlink:href="#DejaVuSans-41" x="494.703125"/>
      <use xlink:href="#DejaVuSans-59" x="555.361328"/>
      <use xlink:href="#DejaVuSans-2d" x="604.570312"/>
      <use xlink:href="#DejaVuSans-32" x="640.654297"/>
      <use xlink:href="#DejaVuSans-30" x="704.277344"/>
     </g>
    </g>
   </g>
  </g>
 </g>
 <defs>
  <clipPath id="p8c56780afe">
   <rect x="81.72" y="12.96" width="366.12" height="281.7"/>
  </clipPath>
 </defs>
</svg>
