<?xml version="1.0" encoding="utf-8" standalone="no"?>
<!DOCTYPE svg PUBLIC "-//W3C//DTD SVG 1.1//EN"
  "http://www.w3.org/Graphics/SVG/1.1/DTD/svg11.dtd">
<svg xmlns:xlink="http://www.w3.org/1999/xlink" width="460.8pt" height="345.6pt" viewBox="0 0 460.8 345.6" xmlns="http://www.w3.org/2000/svg" version="1.1">
 <metadata>
  <rdf:RDF xmlns:dc="http://purl.org/dc/elements/1.1/" xmlns:cc="http://creativecommons.org/ns#" xmlns:rdf="http://www.w3.org/1999/02/22-rdf-syntax-ns#">
   <cc:Work>
    <dc:type rdf:resource="http://purl.org/dc/dcmitype/StillImage"/>
    <dc:date>2022-09-10T15:51:04.144797</dc:date>
    <dc:format>image/svg+xml</dc:format>
    <dc:creator>
     <cc:Agent>
      <dc:title>Matplotlib v3.5.3, https://matplotlib.org/</dc:title>
     </cc:Agent>
    </dc:creator>
   </cc:Work>
  </rdf:RDF>
 </metadata>
 <defs>
  <style type="text/css">*{stroke-linejoin: round; stroke-linecap: butt}</style>
 </defs>
 <g id="figure_1">
  <g id="patch_1">
   <path d="M 0 345.6 
L 460.8 345.6 
L 460.8 0 
L 0 0 
z
" style="fill: #ffffff"/>
  </g>
  <g id="axes_1">
   <g id="patch_2">
    <path d="M 81.72 294.66 
L 447.84 294.66 
L 447.84 29.76 
L 81.72 29.76 
z
" style="fill: #eaeaf2"/>
   </g>
   <g id="matplotlib.axis_1">
    <g id="xtick_1">
     <g id="line2d_1">
      <path d="M 95.564874 294.66 
L 95.564874 29.76 
" clip-path="url(#p73b575d380)" style="fill: none; stroke: #ffffff; stroke-linecap: round"/>
     </g>
     <g id="text_1">
      <!-- 0.00 -->
      <g style="fill: #262626" transform="translate(83.31878 312.518281)scale(0.11 -0.11)">
       <defs>
        <path id="DejaVuSans-30" d="M 2034 4250 
Q 1547 4250 1301 3770 
Q 1056 3291 1056 2328 
Q 1056 1369 1301 889 
Q 1547 409 2034 409 
Q 2525 409 2770 889 
Q 3016 1369 3016 2328 
Q 3016 3291 2770 3770 
Q 2525 4250 2034 4250 
z
M 2034 4750 
Q 2819 4750 3233 4129 
Q 3647 3509 3647 2328 
Q 3647 1150 3233 529 
Q 2819 -91 2034 -91 
Q 1250 -91 836 529 
Q 422 1150 422 2328 
Q 422 3509 836 4129 
Q 1250 4750 2034 4750 
z
" transform="scale(0.015625)"/>
        <path id="DejaVuSans-2e" d="M 684 794 
L 1344 794 
L 1344 0 
L 684 0 
L 684 794 
z
" transform="scale(0.015625)"/>
       </defs>
       <use xlink:href="#DejaVuSans-30"/>
       <use xlink:href="#DejaVuSans-2e" x="63.623047"/>
       <use xlink:href="#DejaVuSans-30" x="95.410156"/>
       <use xlink:href="#DejaVuSans-30" x="159.033203"/>
      </g>
     </g>
    </g>
    <g id="xtick_2">
     <g id="line2d_2">
      <path d="M 151.503759 294.66 
L 151.503759 29.76 
" clip-path="url(#p73b575d380)" style="fill: none; stroke: #ffffff; stroke-linecap: round"/>
     </g>
     <g id="text_2">
      <!-- 0.05 -->
      <g style="fill: #262626" transform="translate(139.257665 312.518281)scale(0.11 -0.11)">
       <defs>
        <path id="DejaVuSans-35" d="M 691 4666 
L 3169 4666 
L 3169 4134 
L 1269 4134 
L 1269 2991 
Q 1406 3038 1543 3061 
Q 1681 3084 1819 3084 
Q 2600 3084 3056 2656 
Q 3513 2228 3513 1497 
Q 3513 744 3044 326 
Q 2575 -91 1722 -91 
Q 1428 -91 1123 -41 
Q 819 9 494 109 
L 494 744 
Q 775 591 1075 516 
Q 1375 441 1709 441 
Q 2250 441 2565 725 
Q 2881 1009 2881 1497 
Q 2881 1984 2565 2268 
Q 2250 2553 1709 2553 
Q 1456 2553 1204 2497 
Q 953 2441 691 2322 
L 691 4666 
z
" transform="scale(0.015625)"/>
       </defs>
       <use xlink:href="#DejaVuSans-30"/>
       <use xlink:href="#DejaVuSans-2e" x="63.623047"/>
       <use xlink:href="#DejaVuSans-30" x="95.410156"/>
       <use xlink:href="#DejaVuSans-35" x="159.033203"/>
      </g>
     </g>
    </g>
    <g id="xtick_3">
     <g id="line2d_3">
      <path d="M 207.442643 294.66 
L 207.442643 29.76 
" clip-path="url(#p73b575d380)" style="fill: none; stroke: #ffffff; stroke-linecap: round"/>
     </g>
     <g id="text_3">
      <!-- 0.10 -->
      <g style="fill: #262626" transform="translate(195.196549 312.518281)scale(0.11 -0.11)">
       <defs>
        <path id="DejaVuSans-31" d="M 794 531 
L 1825 531 
L 1825 4091 
L 703 3866 
L 703 4441 
L 1819 4666 
L 2450 4666 
L 2450 531 
L 3481 531 
L 3481 0 
L 794 0 
L 794 531 
z
" transform="scale(0.015625)"/>
       </defs>
       <use xlink:href="#DejaVuSans-30"/>
       <use xlink:href="#DejaVuSans-2e" x="63.623047"/>
       <use xlink:href="#DejaVuSans-31" x="95.410156"/>
       <use xlink:href="#DejaVuSans-30" x="159.033203"/>
      </g>
     </g>
    </g>
    <g id="xtick_4">
     <g id="line2d_4">
      <path d="M 263.381528 294.66 
L 263.381528 29.76 
" clip-path="url(#p73b575d380)" style="fill: none; stroke: #ffffff; stroke-linecap: round"/>
     </g>
     <g id="text_4">
      <!-- 0.15 -->
      <g style="fill: #262626" transform="translate(251.135434 312.518281)scale(0.11 -0.11)">
       <use xlink:href="#DejaVuSans-30"/>
       <use xlink:href="#DejaVuSans-2e" x="63.623047"/>
       <use xlink:href="#DejaVuSans-31" x="95.410156"/>
       <use xlink:href="#DejaVuSans-35" x="159.033203"/>
      </g>
     </g>
    </g>
    <g id="xtick_5">
     <g id="line2d_5">
      <path d="M 319.320413 294.66 
L 319.320413 29.76 
" clip-path="url(#p73b575d380)" style="fill: none; stroke: #ffffff; stroke-linecap: round"/>
     </g>
     <g id="text_5">
      <!-- 0.20 -->
      <g style="fill: #262626" transform="translate(307.074319 312.518281)scale(0.11 -0.11)">
       <defs>
        <path id="DejaVuSans-32" d="M 1228 531 
L 3431 531 
L 3431 0 
L 469 0 
L 469 531 
Q 828 903 1448 1529 
Q 2069 2156 2228 2338 
Q 2531 2678 2651 2914 
Q 2772 3150 2772 3378 
Q 2772 3750 2511 3984 
Q 2250 4219 1831 4219 
Q 1534 4219 1204 4116 
Q 875 4013 500 3803 
L 500 4441 
Q 881 4594 1212 4672 
Q 1544 4750 1819 4750 
Q 2544 4750 2975 4387 
Q 3406 4025 3406 3419 
Q 3406 3131 3298 2873 
Q 3191 2616 2906 2266 
Q 2828 2175 2409 1742 
Q 1991 1309 1228 531 
z
" transform="scale(0.015625)"/>
       </defs>
       <use xlink:href="#DejaVuSans-30"/>
       <use xlink:href="#DejaVuSans-2e" x="63.623047"/>
       <use xlink:href="#DejaVuSans-32" x="95.410156"/>
       <use xlink:href="#DejaVuSans-30" x="159.033203"/>
      </g>
     </g>
    </g>
    <g id="xtick_6">
     <g id="line2d_6">
      <path d="M 375.259297 294.66 
L 375.259297 29.76 
" clip-path="url(#p73b575d380)" style="fill: none; stroke: #ffffff; stroke-linecap: round"/>
     </g>
     <g id="text_6">
      <!-- 0.25 -->
      <g style="fill: #262626" transform="translate(363.013203 312.518281)scale(0.11 -0.11)">
       <use xlink:href="#DejaVuSans-30"/>
       <use xlink:href="#DejaVuSans-2e" x="63.623047"/>
       <use xlink:href="#DejaVuSans-32" x="95.410156"/>
       <use xlink:href="#DejaVuSans-35" x="159.033203"/>
      </g>
     </g>
    </g>
    <g id="xtick_7">
     <g id="line2d_7">
      <path d="M 431.198182 294.66 
L 431.198182 29.76 
" clip-path="url(#p73b575d380)" style="fill: none; stroke: #ffffff; stroke-linecap: round"/>
     </g>
     <g id="text_7">
      <!-- 0.30 -->
      <g style="fill: #262626" transform="translate(418.952088 312.518281)scale(0.11 -0.11)">
       <defs>
        <path id="DejaVuSans-33" d="M 2597 2516 
Q 3050 2419 3304 2112 
Q 3559 1806 3559 1356 
Q 3559 666 3084 287 
Q 2609 -91 1734 -91 
Q 1441 -91 1130 -33 
Q 819 25 488 141 
L 488 750 
Q 750 597 1062 519 
Q 1375 441 1716 441 
Q 2309 441 2620 675 
Q 2931 909 2931 1356 
Q 2931 1769 2642 2001 
Q 2353 2234 1838 2234 
L 1294 2234 
L 1294 2753 
L 1863 2753 
Q 2328 2753 2575 2939 
Q 2822 3125 2822 3475 
Q 2822 3834 2567 4026 
Q 2313 4219 1838 4219 
Q 1578 4219 1281 4162 
Q 984 4106 628 3988 
L 628 4550 
Q 988 4650 1302 4700 
Q 1616 4750 1894 4750 
Q 2613 4750 3031 4423 
Q 3450 4097 3450 3541 
Q 3450 3153 3228 2886 
Q 3006 2619 2597 2516 
z
" transform="scale(0.015625)"/>
       </defs>
       <use xlink:href="#DejaVuSans-30"/>
       <use xlink:href="#DejaVuSans-2e" x="63.623047"/>
       <use xlink:href="#DejaVuSans-33" x="95.410156"/>
       <use xlink:href="#DejaVuSans-30" x="159.033203"/>
      </g>
     </g>
    </g>
    <g id="text_8">
     <!-- Timesteps (in Million) -->
     <g style="fill: #262626" transform="translate(190.034219 329.44375)scale(0.14 -0.14)">
      <defs>
       <path id="DejaVuSans-54" d="M -19 4666 
L 3928 4666 
L 3928 4134 
L 2272 4134 
L 2272 0 
L 1638 0 
L 1638 4134 
L -19 4134 
L -19 4666 
z
" transform="scale(0.015625)"/>
       <path id="DejaVuSans-69" d="M 603 3500 
L 1178 3500 
L 1178 0 
L 603 0 
L 603 3500 
z
M 603 4863 
L 1178 4863 
L 1178 4134 
L 603 4134 
L 603 4863 
z
" transform="scale(0.015625)"/>
       <path id="DejaVuSans-6d" d="M 3328 2828 
Q 3544 3216 3844 3400 
Q 4144 3584 4550 3584 
Q 5097 3584 5394 3201 
Q 5691 2819 5691 2113 
L 5691 0 
L 5113 0 
L 5113 2094 
Q 5113 2597 4934 2840 
Q 4756 3084 4391 3084 
Q 3944 3084 3684 2787 
Q 3425 2491 3425 1978 
L 3425 0 
L 2847 0 
L 2847 2094 
Q 2847 2600 2669 2842 
Q 2491 3084 2119 3084 
Q 1678 3084 1418 2786 
Q 1159 2488 1159 1978 
L 1159 0 
L 581 0 
L 581 3500 
L 1159 3500 
L 1159 2956 
Q 1356 3278 1631 3431 
Q 1906 3584 2284 3584 
Q 2666 3584 2933 3390 
Q 3200 3197 3328 2828 
z
" transform="scale(0.015625)"/>
       <path id="DejaVuSans-65" d="M 3597 1894 
L 3597 1613 
L 953 1613 
Q 991 1019 1311 708 
Q 1631 397 2203 397 
Q 2534 397 2845 478 
Q 3156 559 3463 722 
L 3463 178 
Q 3153 47 2828 -22 
Q 2503 -91 2169 -91 
Q 1331 -91 842 396 
Q 353 884 353 1716 
Q 353 2575 817 3079 
Q 1281 3584 2069 3584 
Q 2775 3584 3186 3129 
Q 3597 2675 3597 1894 
z
M 3022 2063 
Q 3016 2534 2758 2815 
Q 2500 3097 2075 3097 
Q 1594 3097 1305 2825 
Q 1016 2553 972 2059 
L 3022 2063 
z
" transform="scale(0.015625)"/>
       <path id="DejaVuSans-73" d="M 2834 3397 
L 2834 2853 
Q 2591 2978 2328 3040 
Q 2066 3103 1784 3103 
Q 1356 3103 1142 2972 
Q 928 2841 928 2578 
Q 928 2378 1081 2264 
Q 1234 2150 1697 2047 
L 1894 2003 
Q 2506 1872 2764 1633 
Q 3022 1394 3022 966 
Q 3022 478 2636 193 
Q 2250 -91 1575 -91 
Q 1294 -91 989 -36 
Q 684 19 347 128 
L 347 722 
Q 666 556 975 473 
Q 1284 391 1588 391 
Q 1994 391 2212 530 
Q 2431 669 2431 922 
Q 2431 1156 2273 1281 
Q 2116 1406 1581 1522 
L 1381 1569 
Q 847 1681 609 1914 
Q 372 2147 372 2553 
Q 372 3047 722 3315 
Q 1072 3584 1716 3584 
Q 2034 3584 2315 3537 
Q 2597 3491 2834 3397 
z
" transform="scale(0.015625)"/>
       <path id="DejaVuSans-74" d="M 1172 4494 
L 1172 3500 
L 2356 3500 
L 2356 3053 
L 1172 3053 
L 1172 1153 
Q 1172 725 1289 603 
Q 1406 481 1766 481 
L 2356 481 
L 2356 0 
L 1766 0 
Q 1100 0 847 248 
Q 594 497 594 1153 
L 594 3053 
L 172 3053 
L 172 3500 
L 594 3500 
L 594 4494 
L 1172 4494 
z
" transform="scale(0.015625)"/>
       <path id="DejaVuSans-70" d="M 1159 525 
L 1159 -1331 
L 581 -1331 
L 581 3500 
L 1159 3500 
L 1159 2969 
Q 1341 3281 1617 3432 
Q 1894 3584 2278 3584 
Q 2916 3584 3314 3078 
Q 3713 2572 3713 1747 
Q 3713 922 3314 415 
Q 2916 -91 2278 -91 
Q 1894 -91 1617 61 
Q 1341 213 1159 525 
z
M 3116 1747 
Q 3116 2381 2855 2742 
Q 2594 3103 2138 3103 
Q 1681 3103 1420 2742 
Q 1159 2381 1159 1747 
Q 1159 1113 1420 752 
Q 1681 391 2138 391 
Q 2594 391 2855 752 
Q 3116 1113 3116 1747 
z
" transform="scale(0.015625)"/>
       <path id="DejaVuSans-20" transform="scale(0.015625)"/>
       <path id="DejaVuSans-28" d="M 1984 4856 
Q 1566 4138 1362 3434 
Q 1159 2731 1159 2009 
Q 1159 1288 1364 580 
Q 1569 -128 1984 -844 
L 1484 -844 
Q 1016 -109 783 600 
Q 550 1309 550 2009 
Q 550 2706 781 3412 
Q 1013 4119 1484 4856 
L 1984 4856 
z
" transform="scale(0.015625)"/>
       <path id="DejaVuSans-6e" d="M 3513 2113 
L 3513 0 
L 2938 0 
L 2938 2094 
Q 2938 2591 2744 2837 
Q 2550 3084 2163 3084 
Q 1697 3084 1428 2787 
Q 1159 2491 1159 1978 
L 1159 0 
L 581 0 
L 581 3500 
L 1159 3500 
L 1159 2956 
Q 1366 3272 1645 3428 
Q 1925 3584 2291 3584 
Q 2894 3584 3203 3211 
Q 3513 2838 3513 2113 
z
" transform="scale(0.015625)"/>
       <path id="DejaVuSans-4d" d="M 628 4666 
L 1569 4666 
L 2759 1491 
L 3956 4666 
L 4897 4666 
L 4897 0 
L 4281 0 
L 4281 4097 
L 3078 897 
L 2444 897 
L 1241 4097 
L 1241 0 
L 628 0 
L 628 4666 
z
" transform="scale(0.015625)"/>
       <path id="DejaVuSans-6c" d="M 603 4863 
L 1178 4863 
L 1178 0 
L 603 0 
L 603 4863 
z
" transform="scale(0.015625)"/>
       <path id="DejaVuSans-6f" d="M 1959 3097 
Q 1497 3097 1228 2736 
Q 959 2375 959 1747 
Q 959 1119 1226 758 
Q 1494 397 1959 397 
Q 2419 397 2687 759 
Q 2956 1122 2956 1747 
Q 2956 2369 2687 2733 
Q 2419 3097 1959 3097 
z
M 1959 3584 
Q 2709 3584 3137 3096 
Q 3566 2609 3566 1747 
Q 3566 888 3137 398 
Q 2709 -91 1959 -91 
Q 1206 -91 779 398 
Q 353 888 353 1747 
Q 353 2609 779 3096 
Q 1206 3584 1959 3584 
z
" transform="scale(0.015625)"/>
       <path id="DejaVuSans-29" d="M 513 4856 
L 1013 4856 
Q 1481 4119 1714 3412 
Q 1947 2706 1947 2009 
Q 1947 1309 1714 600 
Q 1481 -109 1013 -844 
L 513 -844 
Q 928 -128 1133 580 
Q 1338 1288 1338 2009 
Q 1338 2731 1133 3434 
Q 928 4138 513 4856 
z
" transform="scale(0.015625)"/>
      </defs>
      <use xlink:href="#DejaVuSans-54"/>
      <use xlink:href="#DejaVuSans-69" x="57.958984"/>
      <use xlink:href="#DejaVuSans-6d" x="85.742188"/>
      <use xlink:href="#DejaVuSans-65" x="183.154297"/>
      <use xlink:href="#DejaVuSans-73" x="244.677734"/>
      <use xlink:href="#DejaVuSans-74" x="296.777344"/>
      <use xlink:href="#DejaVuSans-65" x="335.986328"/>
      <use xlink:href="#DejaVuSans-70" x="397.509766"/>
      <use xlink:href="#DejaVuSans-73" x="460.986328"/>
      <use xlink:href="#DejaVuSans-20" x="513.085938"/>
      <use xlink:href="#DejaVuSans-28" x="544.873047"/>
      <use xlink:href="#DejaVuSans-69" x="583.886719"/>
      <use xlink:href="#DejaVuSans-6e" x="611.669922"/>
      <use xlink:href="#DejaVuSans-20" x="675.048828"/>
      <use xlink:href="#DejaVuSans-4d" x="706.835938"/>
      <use xlink:href="#DejaVuSans-69" x="793.115234"/>
      <use xlink:href="#DejaVuSans-6c" x="820.898438"/>
      <use xlink:href="#DejaVuSans-6c" x="848.681641"/>
      <use xlink:href="#DejaVuSans-69" x="876.464844"/>
      <use xlink:href="#DejaVuSans-6f" x="904.248047"/>
      <use xlink:href="#DejaVuSans-6e" x="965.429688"/>
      <use xlink:href="#DejaVuSans-29" x="1028.808594"/>
     </g>
    </g>
   </g>
   <g id="matplotlib.axis_2">
    <g id="ytick_1">
     <g id="line2d_8">
      <path d="M 81.72 282.620383 
L 447.84 282.620383 
" clip-path="url(#p73b575d380)" style="fill: none; stroke: #ffffff; stroke-linecap: round"/>
     </g>
     <g id="text_9">
      <!-- 0 -->
      <g style="fill: #262626" transform="translate(65.22125 286.799523)scale(0.11 -0.11)">
       <use xlink:href="#DejaVuSans-30"/>
      </g>
     </g>
    </g>
    <g id="ytick_2">
     <g id="line2d_9">
      <path d="M 81.72 234.451572 
L 447.84 234.451572 
" clip-path="url(#p73b575d380)" style="fill: none; stroke: #ffffff; stroke-linecap: round"/>
     </g>
     <g id="text_10">
      <!-- 20000 -->
      <g style="fill: #262626" transform="translate(37.22625 238.630713)scale(0.11 -0.11)">
       <use xlink:href="#DejaVuSans-32"/>
       <use xlink:href="#DejaVuSans-30" x="63.623047"/>
       <use xlink:href="#DejaVuSans-30" x="127.246094"/>
       <use xlink:href="#DejaVuSans-30" x="190.869141"/>
       <use xlink:href="#DejaVuSans-30" x="254.492188"/>
      </g>
     </g>
    </g>
    <g id="ytick_3">
     <g id="line2d_10">
      <path d="M 81.72 186.282762 
L 447.84 186.282762 
" clip-path="url(#p73b575d380)" style="fill: none; stroke: #ffffff; stroke-linecap: round"/>
     </g>
     <g id="text_11">
      <!-- 40000 -->
      <g style="fill: #262626" transform="translate(37.22625 190.461902)scale(0.11 -0.11)">
       <defs>
        <path id="DejaVuSans-34" d="M 2419 4116 
L 825 1625 
L 2419 1625 
L 2419 4116 
z
M 2253 4666 
L 3047 4666 
L 3047 1625 
L 3713 1625 
L 3713 1100 
L 3047 1100 
L 3047 0 
L 2419 0 
L 2419 1100 
L 313 1100 
L 313 1709 
L 2253 4666 
z
" transform="scale(0.015625)"/>
       </defs>
       <use xlink:href="#DejaVuSans-34"/>
       <use xlink:href="#DejaVuSans-30" x="63.623047"/>
       <use xlink:href="#DejaVuSans-30" x="127.246094"/>
       <use xlink:href="#DejaVuSans-30" x="190.869141"/>
       <use xlink:href="#DejaVuSans-30" x="254.492188"/>
      </g>
     </g>
    </g>
    <g id="ytick_4">
     <g id="line2d_11">
      <path d="M 81.72 138.113951 
L 447.84 138.113951 
" clip-path="url(#p73b575d380)" style="fill: none; stroke: #ffffff; stroke-linecap: round"/>
     </g>
     <g id="text_12">
      <!-- 60000 -->
      <g style="fill: #262626" transform="translate(37.22625 142.293092)scale(0.11 -0.11)">
       <defs>
        <path id="DejaVuSans-36" d="M 2113 2584 
Q 1688 2584 1439 2293 
Q 1191 2003 1191 1497 
Q 1191 994 1439 701 
Q 1688 409 2113 409 
Q 2538 409 2786 701 
Q 3034 994 3034 1497 
Q 3034 2003 2786 2293 
Q 2538 2584 2113 2584 
z
M 3366 4563 
L 3366 3988 
Q 3128 4100 2886 4159 
Q 2644 4219 2406 4219 
Q 1781 4219 1451 3797 
Q 1122 3375 1075 2522 
Q 1259 2794 1537 2939 
Q 1816 3084 2150 3084 
Q 2853 3084 3261 2657 
Q 3669 2231 3669 1497 
Q 3669 778 3244 343 
Q 2819 -91 2113 -91 
Q 1303 -91 875 529 
Q 447 1150 447 2328 
Q 447 3434 972 4092 
Q 1497 4750 2381 4750 
Q 2619 4750 2861 4703 
Q 3103 4656 3366 4563 
z
" transform="scale(0.015625)"/>
       </defs>
       <use xlink:href="#DejaVuSans-36"/>
       <use xlink:href="#DejaVuSans-30" x="63.623047"/>
       <use xlink:href="#DejaVuSans-30" x="127.246094"/>
       <use xlink:href="#DejaVuSans-30" x="190.869141"/>
       <use xlink:href="#DejaVuSans-30" x="254.492188"/>
      </g>
     </g>
    </g>
    <g id="ytick_5">
     <g id="line2d_12">
      <path d="M 81.72 89.945141 
L 447.84 89.945141 
" clip-path="url(#p73b575d380)" style="fill: none; stroke: #ffffff; stroke-linecap: round"/>
     </g>
     <g id="text_13">
      <!-- 80000 -->
      <g style="fill: #262626" transform="translate(37.22625 94.124281)scale(0.11 -0.11)">
       <defs>
        <path id="DejaVuSans-38" d="M 2034 2216 
Q 1584 2216 1326 1975 
Q 1069 1734 1069 1313 
Q 1069 891 1326 650 
Q 1584 409 2034 409 
Q 2484 409 2743 651 
Q 3003 894 3003 1313 
Q 3003 1734 2745 1975 
Q 2488 2216 2034 2216 
z
M 1403 2484 
Q 997 2584 770 2862 
Q 544 3141 544 3541 
Q 544 4100 942 4425 
Q 1341 4750 2034 4750 
Q 2731 4750 3128 4425 
Q 3525 4100 3525 3541 
Q 3525 3141 3298 2862 
Q 3072 2584 2669 2484 
Q 3125 2378 3379 2068 
Q 3634 1759 3634 1313 
Q 3634 634 3220 271 
Q 2806 -91 2034 -91 
Q 1263 -91 848 271 
Q 434 634 434 1313 
Q 434 1759 690 2068 
Q 947 2378 1403 2484 
z
M 1172 3481 
Q 1172 3119 1398 2916 
Q 1625 2713 2034 2713 
Q 2441 2713 2670 2916 
Q 2900 3119 2900 3481 
Q 2900 3844 2670 4047 
Q 2441 4250 2034 4250 
Q 1625 4250 1398 4047 
Q 1172 3844 1172 3481 
z
" transform="scale(0.015625)"/>
       </defs>
       <use xlink:href="#DejaVuSans-38"/>
       <use xlink:href="#DejaVuSans-30" x="63.623047"/>
       <use xlink:href="#DejaVuSans-30" x="127.246094"/>
       <use xlink:href="#DejaVuSans-30" x="190.869141"/>
       <use xlink:href="#DejaVuSans-30" x="254.492188"/>
      </g>
     </g>
    </g>
    <g id="ytick_6">
     <g id="line2d_13">
      <path d="M 81.72 41.77633 
L 447.84 41.77633 
" clip-path="url(#p73b575d380)" style="fill: none; stroke: #ffffff; stroke-linecap: round"/>
     </g>
     <g id="text_14">
      <!-- 100000 -->
      <g style="fill: #262626" transform="translate(30.2275 45.955471)scale(0.11 -0.11)">
       <use xlink:href="#DejaVuSans-31"/>
       <use xlink:href="#DejaVuSans-30" x="63.623047"/>
       <use xlink:href="#DejaVuSans-30" x="127.246094"/>
       <use xlink:href="#DejaVuSans-30" x="190.869141"/>
       <use xlink:href="#DejaVuSans-30" x="254.492188"/>
       <use xlink:href="#DejaVuSans-30" x="318.115234"/>
      </g>
     </g>
    </g>
    <g id="text_15">
     <!-- Traintime -->
     <g style="fill: #262626" transform="translate(23.315938 194.815781)rotate(-90)scale(0.14 -0.14)">
      <defs>
       <path id="DejaVuSans-72" d="M 2631 2963 
Q 2534 3019 2420 3045 
Q 2306 3072 2169 3072 
Q 1681 3072 1420 2755 
Q 1159 2438 1159 1844 
L 1159 0 
L 581 0 
L 581 3500 
L 1159 3500 
L 1159 2956 
Q 1341 3275 1631 3429 
Q 1922 3584 2338 3584 
Q 2397 3584 2469 3576 
Q 2541 3569 2628 3553 
L 2631 2963 
z
" transform="scale(0.015625)"/>
       <path id="DejaVuSans-61" d="M 2194 1759 
Q 1497 1759 1228 1600 
Q 959 1441 959 1056 
Q 959 750 1161 570 
Q 1363 391 1709 391 
Q 2188 391 2477 730 
Q 2766 1069 2766 1631 
L 2766 1759 
L 2194 1759 
z
M 3341 1997 
L 3341 0 
L 2766 0 
L 2766 531 
Q 2569 213 2275 61 
Q 1981 -91 1556 -91 
Q 1019 -91 701 211 
Q 384 513 384 1019 
Q 384 1609 779 1909 
Q 1175 2209 1959 2209 
L 2766 2209 
L 2766 2266 
Q 2766 2663 2505 2880 
Q 2244 3097 1772 3097 
Q 1472 3097 1187 3025 
Q 903 2953 641 2809 
L 641 3341 
Q 956 3463 1253 3523 
Q 1550 3584 1831 3584 
Q 2591 3584 2966 3190 
Q 3341 2797 3341 1997 
z
" transform="scale(0.015625)"/>
      </defs>
      <use xlink:href="#DejaVuSans-54"/>
      <use xlink:href="#DejaVuSans-72" x="46.333984"/>
      <use xlink:href="#DejaVuSans-61" x="87.447266"/>
      <use xlink:href="#DejaVuSans-69" x="148.726562"/>
      <use xlink:href="#DejaVuSans-6e" x="176.509766"/>
      <use xlink:href="#DejaVuSans-74" x="239.888672"/>
      <use xlink:href="#DejaVuSans-69" x="279.097656"/>
      <use xlink:href="#DejaVuSans-6d" x="306.880859"/>
      <use xlink:href="#DejaVuSans-65" x="404.292969"/>
     </g>
    </g>
   </g>
   <g id="PolyCollection_1">
    <defs>
     <path id="mfeaabcd2eb" d="M 98.361818 -62.980909 
L 98.361818 -62.981036 
L 101.158762 -62.982408 
L 103.955707 -62.983782 
L 106.752651 -62.98517 
L 109.549595 -62.996926 
L 112.346539 -63.00845 
L 115.143484 -63.020019 
L 117.940428 -63.032146 
L 120.737372 -63.043716 
L 123.534316 -63.055288 
L 126.331261 -63.066887 
L 129.128205 -63.078611 
L 131.925149 -63.090113 
L 134.722093 -63.101588 
L 137.519037 -63.113259 
L 140.315982 -63.125051 
L 143.112926 -63.136623 
L 145.90987 -63.148368 
L 148.706814 -63.159959 
L 151.503759 -63.17155 
L 154.300703 -63.183535 
L 157.097647 -63.195212 
L 159.894591 -63.20681 
L 162.691536 -63.218308 
L 165.48848 -63.229775 
L 168.285424 -63.241478 
L 171.082368 -63.252671 
L 173.879312 -63.264519 
L 176.676257 -63.276121 
L 179.473201 -63.287783 
L 182.270145 -63.29921 
L 185.067089 -63.310893 
L 187.864034 -63.322579 
L 190.660978 -63.334116 
L 193.457922 -63.345693 
L 196.254866 -63.357141 
L 199.051811 -63.368807 
L 201.848755 -63.380244 
L 204.645699 -63.391884 
L 207.442643 -63.403241 
L 210.239587 -63.414954 
L 213.036532 -63.426739 
L 215.833476 -63.438748 
L 218.63042 -63.450243 
L 221.427364 -63.461863 
L 224.224309 -63.473374 
L 227.021253 -63.484924 
L 229.818197 -63.496679 
L 232.615141 -63.508429 
L 235.412086 -63.519763 
L 238.20903 -63.531661 
L 241.005974 -63.543546 
L 243.802918 -63.555163 
L 246.599862 -63.566949 
L 249.396807 -63.578505 
L 252.193751 -63.589937 
L 254.990695 -63.601582 
L 257.787639 -63.612963 
L 260.584584 -63.624682 
L 263.381528 -63.636104 
L 266.178472 -63.647687 
L 268.975416 -63.659309 
L 271.772361 -63.670903 
L 274.569305 -63.682388 
L 277.366249 -63.693739 
L 280.163193 -63.705279 
L 282.960138 -63.716896 
L 285.757082 -63.728183 
L 288.554026 -63.739405 
L 291.35097 -63.750701 
L 294.147914 -63.762311 
L 296.944859 -63.773526 
L 299.741803 -63.785115 
L 302.538747 -63.796441 
L 305.335691 -63.807781 
L 308.132636 -63.819106 
L 310.92958 -63.830954 
L 313.726524 -63.84245 
L 316.523468 -63.854247 
L 319.320413 -63.865865 
L 322.117357 -63.87713 
L 324.914301 -63.888667 
L 327.711245 -63.900276 
L 330.508189 -63.912204 
L 333.305134 -63.923626 
L 336.102078 -63.935382 
L 338.899022 -63.946968 
L 341.695966 -63.95853 
L 344.492911 -63.970279 
L 347.289855 -63.981559 
L 350.086799 -63.992892 
L 352.883743 -64.004226 
L 355.680688 -64.015466 
L 358.477632 -64.027359 
L 361.274576 -64.038768 
L 364.07152 -64.050196 
L 366.868464 -64.061751 
L 369.665409 -64.073009 
L 372.462353 -64.084576 
L 375.259297 -64.096109 
L 378.056241 -64.107694 
L 380.853186 -64.11948 
L 383.65013 -64.131331 
L 386.447074 -64.142648 
L 389.244018 -64.154254 
L 392.040963 -64.165848 
L 394.837907 -64.177141 
L 397.634851 -64.188665 
L 400.431795 -64.200247 
L 403.228739 -64.211959 
L 406.025684 -64.223484 
L 408.822628 -64.234811 
L 411.619572 -64.246275 
L 414.416516 -64.257619 
L 417.213461 -64.268884 
L 420.010405 -64.280188 
L 422.807349 -64.291773 
L 425.604293 -64.303223 
L 428.401238 -64.314973 
L 431.198182 -64.326833 
L 431.198182 -64.29921 
L 431.198182 -64.29921 
L 428.401238 -64.287985 
L 425.604293 -64.276904 
L 422.807349 -64.265488 
L 420.010405 -64.254408 
L 417.213461 -64.243228 
L 414.416516 -64.232057 
L 411.619572 -64.220738 
L 408.822628 -64.209654 
L 406.025684 -64.198436 
L 403.228739 -64.187145 
L 400.431795 -64.175554 
L 397.634851 -64.164208 
L 394.837907 -64.15319 
L 392.040963 -64.141982 
L 389.244018 -64.130662 
L 386.447074 -64.119117 
L 383.65013 -64.107743 
L 380.853186 -64.096475 
L 378.056241 -64.085292 
L 375.259297 -64.073951 
L 372.462353 -64.062762 
L 369.665409 -64.051579 
L 366.868464 -64.0403 
L 364.07152 -64.028879 
L 361.274576 -64.017601 
L 358.477632 -64.006335 
L 355.680688 -63.995067 
L 352.883743 -63.983583 
L 350.086799 -63.972194 
L 347.289855 -63.961131 
L 344.492911 -63.949942 
L 341.695966 -63.938562 
L 338.899022 -63.927085 
L 336.102078 -63.91576 
L 333.305134 -63.904441 
L 330.508189 -63.893023 
L 327.711245 -63.881711 
L 324.914301 -63.870242 
L 322.117357 -63.858723 
L 319.320413 -63.847468 
L 316.523468 -63.83604 
L 313.726524 -63.824873 
L 310.92958 -63.813406 
L 308.132636 -63.802175 
L 305.335691 -63.790458 
L 302.538747 -63.779158 
L 299.741803 -63.767713 
L 296.944859 -63.756506 
L 294.147914 -63.745076 
L 291.35097 -63.73364 
L 288.554026 -63.722022 
L 285.757082 -63.710611 
L 282.960138 -63.69947 
L 280.163193 -63.688269 
L 277.366249 -63.677302 
L 274.569305 -63.666009 
L 271.772361 -63.654751 
L 268.975416 -63.643197 
L 266.178472 -63.631917 
L 263.381528 -63.620693 
L 260.584584 -63.609242 
L 257.787639 -63.597781 
L 254.990695 -63.586438 
L 252.193751 -63.575022 
L 249.396807 -63.563576 
L 246.599862 -63.552373 
L 243.802918 -63.540746 
L 241.005974 -63.529116 
L 238.20903 -63.517707 
L 235.412086 -63.506511 
L 232.615141 -63.495283 
L 229.818197 -63.483764 
L 227.021253 -63.472376 
L 224.224309 -63.461096 
L 221.427364 -63.449962 
L 218.63042 -63.438728 
L 215.833476 -63.427388 
L 213.036532 -63.416233 
L 210.239587 -63.405017 
L 207.442643 -63.393576 
L 204.645699 -63.382234 
L 201.848755 -63.370973 
L 199.051811 -63.359738 
L 196.254866 -63.348425 
L 193.457922 -63.337172 
L 190.660978 -63.326187 
L 187.864034 -63.314948 
L 185.067089 -63.303517 
L 182.270145 -63.292012 
L 179.473201 -63.280681 
L 176.676257 -63.269215 
L 173.879312 -63.257826 
L 171.082368 -63.246188 
L 168.285424 -63.234766 
L 165.48848 -63.22356 
L 162.691536 -63.212401 
L 159.894591 -63.20125 
L 157.097647 -63.190047 
L 154.300703 -63.178732 
L 151.503759 -63.16743 
L 148.706814 -63.156009 
L 145.90987 -63.144236 
L 143.112926 -63.132752 
L 140.315982 -63.121514 
L 137.519037 -63.110332 
L 134.722093 -63.098968 
L 131.925149 -63.087707 
L 129.128205 -63.076455 
L 126.331261 -63.065185 
L 123.534316 -63.05377 
L 120.737372 -63.042107 
L 117.940428 -63.030855 
L 115.143484 -63.019497 
L 112.346539 -63.007935 
L 109.549595 -62.996476 
L 106.752651 -62.984833 
L 103.955707 -62.983531 
L 101.158762 -62.982235 
L 98.361818 -62.980909 
z
" style="stroke: #ffffff; stroke-opacity: 0.5"/>
    </defs>
    <g clip-path="url(#p73b575d380)">
     <use xlink:href="#mfeaabcd2eb" x="0" y="345.6" style="fill: #4c72b0; fill-opacity: 0.5; stroke: #ffffff; stroke-opacity: 0.5"/>
    </g>
   </g>
   <g id="PolyCollection_2">
    <defs>
     <path id="m509f74f90e" d="M 98.361818 -63.051898 
L 98.361818 -63.104691 
L 101.158762 -63.228337 
L 103.955707 -63.351421 
L 106.752651 -63.474051 
L 109.549595 -63.596192 
L 112.346539 -63.718263 
L 115.143484 -63.839866 
L 117.940428 -63.961695 
L 120.737372 -64.08326 
L 123.534316 -64.204902 
L 126.331261 -64.326824 
L 129.128205 -64.448586 
L 131.925149 -64.570434 
L 134.722093 -64.692268 
L 137.519037 -64.814025 
L 140.315982 -64.935697 
L 143.112926 -65.056909 
L 145.90987 -65.177891 
L 148.706814 -65.298552 
L 151.503759 -65.419038 
L 154.300703 -65.539121 
L 157.097647 -65.65867 
L 159.894591 -65.77786 
L 162.691536 -65.896862 
L 165.48848 -66.015996 
L 168.285424 -66.134852 
L 171.082368 -66.253519 
L 173.879312 -66.37202 
L 176.676257 -66.490335 
L 179.473201 -66.608887 
L 182.270145 -66.727556 
L 185.067089 -66.846088 
L 187.864034 -66.964609 
L 190.660978 -67.082801 
L 193.457922 -67.200686 
L 196.254866 -67.318581 
L 199.051811 -67.436385 
L 201.848755 -67.554271 
L 204.645699 -67.671982 
L 207.442643 -67.789425 
L 210.239587 -67.906542 
L 213.036532 -68.023821 
L 215.833476 -68.141026 
L 218.63042 -68.258037 
L 221.427364 -68.37508 
L 224.224309 -68.492356 
L 227.021253 -68.609774 
L 229.818197 -68.727124 
L 232.615141 -68.844499 
L 235.412086 -68.9616 
L 238.20903 -69.078718 
L 241.005974 -69.195707 
L 243.802918 -69.313037 
L 246.599862 -69.429818 
L 249.396807 -69.546682 
L 252.193751 -69.663677 
L 254.990695 -69.780763 
L 257.787639 -69.897851 
L 260.584584 -70.014894 
L 263.381528 -70.132155 
L 266.178472 -70.249252 
L 268.975416 -70.366297 
L 271.772361 -70.483449 
L 274.569305 -70.600476 
L 277.366249 -70.717228 
L 280.163193 -70.833588 
L 282.960138 -70.949886 
L 285.757082 -71.065872 
L 288.554026 -71.181835 
L 291.35097 -71.297444 
L 294.147914 -71.413069 
L 296.944859 -71.52826 
L 299.741803 -71.643446 
L 302.538747 -71.758593 
L 305.335691 -71.873703 
L 308.132636 -71.988659 
L 310.92958 -72.10347 
L 313.726524 -72.217936 
L 316.523468 -72.332641 
L 319.320413 -72.446848 
L 322.117357 -72.560973 
L 324.914301 -72.674922 
L 327.711245 -72.788898 
L 330.508189 -72.904181 
L 333.305134 -73.020891 
L 336.102078 -73.139956 
L 338.899022 -73.256849 
L 341.695966 -73.373691 
L 344.492911 -73.490351 
L 347.289855 -73.60699 
L 350.086799 -73.732 
L 352.883743 -73.848822 
L 355.680688 -73.965954 
L 358.477632 -74.082944 
L 361.274576 -74.199934 
L 364.07152 -74.317053 
L 366.868464 -74.438916 
L 369.665409 -74.554558 
L 372.462353 -74.690628 
L 375.259297 -74.806344 
L 378.056241 -74.922168 
L 380.853186 -75.038185 
L 383.65013 -75.170743 
L 386.447074 -75.286115 
L 389.244018 -75.401681 
L 392.040963 -75.516642 
L 394.837907 -75.636294 
L 397.634851 -75.751766 
L 400.431795 -75.866984 
L 403.228739 -75.98242 
L 406.025684 -76.098097 
L 408.822628 -76.213441 
L 411.619572 -76.327984 
L 414.416516 -76.456075 
L 417.213461 -76.579386 
L 420.010405 -76.693817 
L 422.807349 -76.808499 
L 425.604293 -76.92658 
L 428.401238 -77.050339 
L 431.198182 -77.131776 
L 431.198182 -76.882738 
L 431.198182 -76.882738 
L 428.401238 -76.764892 
L 425.604293 -76.650971 
L 422.807349 -76.535005 
L 420.010405 -76.421217 
L 417.213461 -76.307572 
L 414.416516 -76.193997 
L 411.619572 -76.07999 
L 408.822628 -75.966064 
L 406.025684 -75.848316 
L 403.228739 -75.734624 
L 400.431795 -75.615126 
L 397.634851 -75.492652 
L 394.837907 -75.375678 
L 392.040963 -75.262163 
L 389.244018 -75.148578 
L 386.447074 -75.034977 
L 383.65013 -74.921669 
L 380.853186 -74.808322 
L 378.056241 -74.693157 
L 375.259297 -74.57981 
L 372.462353 -74.466833 
L 369.665409 -74.342853 
L 366.868464 -74.229552 
L 364.07152 -74.11153 
L 361.274576 -73.996086 
L 358.477632 -73.883035 
L 355.680688 -73.769583 
L 352.883743 -73.656217 
L 350.086799 -73.542969 
L 347.289855 -73.429598 
L 344.492911 -73.316661 
L 341.695966 -73.202984 
L 338.899022 -73.08978 
L 336.102078 -72.976457 
L 333.305134 -72.863228 
L 330.508189 -72.749817 
L 327.711245 -72.63589 
L 324.914301 -72.522097 
L 322.117357 -72.408044 
L 319.320413 -72.293857 
L 316.523468 -72.179658 
L 313.726524 -72.065277 
L 310.92958 -71.950773 
L 308.132636 -71.835841 
L 305.335691 -71.720832 
L 302.538747 -71.605728 
L 299.741803 -71.49069 
L 296.944859 -71.375547 
L 294.147914 -71.260042 
L 291.35097 -71.14439 
L 288.554026 -71.029298 
L 285.757082 -70.913688 
L 282.960138 -70.797695 
L 280.163193 -70.681717 
L 277.366249 -70.565343 
L 274.569305 -70.448654 
L 271.772361 -70.331968 
L 268.975416 -70.215097 
L 266.178472 -70.09839 
L 263.381528 -69.981421 
L 260.584584 -69.864307 
L 257.787639 -69.747205 
L 254.990695 -69.630269 
L 252.193751 -69.513438 
L 249.396807 -69.397147 
L 246.599862 -69.280744 
L 243.802918 -69.164422 
L 241.005974 -69.048499 
L 238.20903 -68.932494 
L 235.412086 -68.816662 
L 232.615141 -68.700897 
L 229.818197 -68.585369 
L 227.021253 -68.469461 
L 224.224309 -68.354133 
L 221.427364 -68.239243 
L 218.63042 -68.124163 
L 215.833476 -68.00887 
L 213.036532 -67.893513 
L 210.239587 -67.778177 
L 207.442643 -67.662638 
L 204.645699 -67.547175 
L 201.848755 -67.431796 
L 199.051811 -67.316161 
L 196.254866 -67.200549 
L 193.457922 -67.085111 
L 190.660978 -66.969711 
L 187.864034 -66.854226 
L 185.067089 -66.738617 
L 182.270145 -66.622747 
L 179.473201 -66.506436 
L 176.676257 -66.389984 
L 173.879312 -66.272881 
L 171.082368 -66.155734 
L 168.285424 -66.03814 
L 165.48848 -65.920173 
L 162.691536 -65.801734 
L 159.894591 -65.682784 
L 157.097647 -65.56371 
L 154.300703 -65.444521 
L 151.503759 -65.325304 
L 148.706814 -65.205356 
L 145.90987 -65.085371 
L 143.112926 -64.965023 
L 140.315982 -64.844607 
L 137.519037 -64.723629 
L 134.722093 -64.602495 
L 131.925149 -64.480999 
L 129.128205 -64.359284 
L 126.331261 -64.237689 
L 123.534316 -64.116039 
L 120.737372 -63.994135 
L 117.940428 -63.872277 
L 115.143484 -63.750269 
L 112.346539 -63.628358 
L 109.549595 -63.505881 
L 106.752651 -63.382796 
L 103.955707 -63.259579 
L 101.158762 -63.147144 
L 98.361818 -63.051898 
z
" style="stroke: #ffffff; stroke-opacity: 0.5"/>
    </defs>
    <g clip-path="url(#p73b575d380)">
     <use xlink:href="#m509f74f90e" x="0" y="345.6" style="fill: #dd8452; fill-opacity: 0.5; stroke: #ffffff; stroke-opacity: 0.5"/>
    </g>
   </g>
   <g id="PolyCollection_3">
    <defs>
     <path id="m04ff24a912" d="M 98.361818 -63.108643 
L 98.361818 -63.202183 
L 101.158762 -63.42077 
L 103.955707 -63.638962 
L 106.752651 -63.856457 
L 109.549595 -64.073672 
L 112.346539 -64.290506 
L 115.143484 -64.507417 
L 117.940428 -64.724019 
L 120.737372 -64.939976 
L 123.534316 -65.155628 
L 126.331261 -65.370645 
L 129.128205 -65.585099 
L 131.925149 -65.799117 
L 134.722093 -66.012425 
L 137.519037 -66.225434 
L 140.315982 -66.438242 
L 143.112926 -66.650506 
L 145.90987 -66.862075 
L 148.706814 -67.07339 
L 151.503759 -67.284022 
L 154.300703 -67.494191 
L 157.097647 -67.703696 
L 159.894591 -67.91321 
L 162.691536 -68.122643 
L 165.48848 -68.3317 
L 168.285424 -68.540426 
L 171.082368 -68.748681 
L 173.879312 -68.957053 
L 176.676257 -69.165314 
L 179.473201 -69.373868 
L 182.270145 -69.581815 
L 185.067089 -69.792343 
L 187.864034 -70.001411 
L 190.660978 -70.210835 
L 193.457922 -70.419405 
L 196.254866 -70.628087 
L 199.051811 -70.836572 
L 201.848755 -71.044756 
L 204.645699 -71.253187 
L 207.442643 -71.46186 
L 210.239587 -71.670071 
L 213.036532 -71.878096 
L 215.833476 -72.085865 
L 218.63042 -72.293216 
L 221.427364 -72.50023 
L 224.224309 -72.707912 
L 227.021253 -72.915309 
L 229.818197 -73.122779 
L 232.615141 -73.330232 
L 235.412086 -73.537119 
L 238.20903 -73.744219 
L 241.005974 -73.951117 
L 243.802918 -74.158115 
L 246.599862 -74.364874 
L 249.396807 -74.571736 
L 252.193751 -74.778914 
L 254.990695 -74.98614 
L 257.787639 -75.193458 
L 260.584584 -75.400573 
L 263.381528 -75.607665 
L 266.178472 -75.814514 
L 268.975416 -76.021596 
L 271.772361 -76.228475 
L 274.569305 -76.43537 
L 277.366249 -76.642352 
L 280.163193 -76.84894 
L 282.960138 -77.055845 
L 285.757082 -77.262622 
L 288.554026 -77.469465 
L 291.35097 -77.676607 
L 294.147914 -77.883956 
L 296.944859 -78.091313 
L 299.741803 -78.298623 
L 302.538747 -78.505507 
L 305.335691 -78.712861 
L 308.132636 -78.920071 
L 310.92958 -79.12702 
L 313.726524 -79.333552 
L 316.523468 -79.540467 
L 319.320413 -79.746783 
L 322.117357 -79.953218 
L 324.914301 -80.15926 
L 327.711245 -80.365118 
L 330.508189 -80.570972 
L 333.305134 -80.776425 
L 336.102078 -80.983207 
L 338.899022 -81.188542 
L 341.695966 -81.404906 
L 344.492911 -81.613785 
L 347.289855 -81.828953 
L 350.086799 -82.033835 
L 352.883743 -82.238461 
L 355.680688 -82.443517 
L 358.477632 -82.647656 
L 361.274576 -82.851767 
L 364.07152 -83.05597 
L 366.868464 -83.260292 
L 369.665409 -83.468236 
L 372.462353 -83.672412 
L 375.259297 -83.87624 
L 378.056241 -84.080435 
L 380.853186 -84.284397 
L 383.65013 -84.488483 
L 386.447074 -84.695587 
L 389.244018 -84.899523 
L 392.040963 -85.103457 
L 394.837907 -85.307106 
L 397.634851 -85.515377 
L 400.431795 -85.718983 
L 403.228739 -85.92261 
L 406.025684 -86.125577 
L 408.822628 -86.328341 
L 411.619572 -86.531348 
L 414.416516 -86.734107 
L 417.213461 -86.936628 
L 420.010405 -87.139169 
L 422.807349 -87.341296 
L 425.604293 -87.543773 
L 428.401238 -87.746713 
L 431.198182 -87.90197 
L 431.198182 -87.548042 
L 431.198182 -87.548042 
L 428.401238 -87.349204 
L 425.604293 -87.150409 
L 422.807349 -86.942852 
L 420.010405 -86.743576 
L 417.213461 -86.544193 
L 414.416516 -86.344505 
L 411.619572 -86.144922 
L 408.822628 -85.945708 
L 406.025684 -85.746106 
L 403.228739 -85.539136 
L 400.431795 -85.336751 
L 397.634851 -85.137927 
L 394.837907 -84.938731 
L 392.040963 -84.740456 
L 389.244018 -84.539975 
L 386.447074 -84.340189 
L 383.65013 -84.139985 
L 380.853186 -83.939809 
L 378.056241 -83.739546 
L 375.259297 -83.539401 
L 372.462353 -83.335552 
L 369.665409 -83.135305 
L 366.868464 -82.935089 
L 364.07152 -82.735079 
L 361.274576 -82.534754 
L 358.477632 -82.33485 
L 355.680688 -82.131164 
L 352.883743 -81.925427 
L 350.086799 -81.724777 
L 347.289855 -81.523676 
L 344.492911 -81.32246 
L 341.695966 -81.121339 
L 338.899022 -80.920396 
L 336.102078 -80.719331 
L 333.305134 -80.51859 
L 330.508189 -80.31801 
L 327.711245 -80.117386 
L 324.914301 -79.916515 
L 322.117357 -79.715942 
L 319.320413 -79.51471 
L 316.523468 -79.313735 
L 313.726524 -79.11234 
L 310.92958 -78.911119 
L 308.132636 -78.709894 
L 305.335691 -78.508285 
L 302.538747 -78.30701 
L 299.741803 -78.105568 
L 296.944859 -77.899869 
L 294.147914 -77.698235 
L 291.35097 -77.49643 
L 288.554026 -77.294887 
L 285.757082 -77.093208 
L 282.960138 -76.891096 
L 280.163193 -76.688927 
L 277.366249 -76.486976 
L 274.569305 -76.284544 
L 271.772361 -76.081825 
L 268.975416 -75.879141 
L 266.178472 -75.676163 
L 263.381528 -75.473401 
L 260.584584 -75.270269 
L 257.787639 -75.066523 
L 254.990695 -74.863118 
L 252.193751 -74.659315 
L 249.396807 -74.455487 
L 246.599862 -74.251696 
L 243.802918 -74.047118 
L 241.005974 -73.842842 
L 238.20903 -73.638228 
L 235.412086 -73.433261 
L 232.615141 -73.22805 
L 229.818197 -73.022638 
L 227.021253 -72.816755 
L 224.224309 -72.610788 
L 221.427364 -72.404741 
L 218.63042 -72.19843 
L 215.833476 -71.991626 
L 213.036532 -71.783936 
L 210.239587 -71.576564 
L 207.442643 -71.368305 
L 204.645699 -71.159804 
L 201.848755 -70.951314 
L 199.051811 -70.742634 
L 196.254866 -70.534178 
L 193.457922 -70.325618 
L 190.660978 -70.117135 
L 187.864034 -69.908856 
L 185.067089 -69.698981 
L 182.270145 -69.490029 
L 179.473201 -69.280317 
L 176.676257 -69.071239 
L 173.879312 -68.861789 
L 171.082368 -68.652319 
L 168.285424 -68.442347 
L 165.48848 -68.231893 
L 162.691536 -68.021169 
L 159.894591 -67.810339 
L 157.097647 -67.599702 
L 154.300703 -67.388503 
L 151.503759 -67.176819 
L 148.706814 -66.964793 
L 145.90987 -66.75208 
L 143.112926 -66.538576 
L 140.315982 -66.324617 
L 137.519037 -66.110557 
L 134.722093 -65.895907 
L 131.925149 -65.680952 
L 129.128205 -65.465759 
L 126.331261 -65.250413 
L 123.534316 -65.034922 
L 120.737372 -64.818933 
L 117.940428 -64.602919 
L 115.143484 -64.386559 
L 112.346539 -64.169472 
L 109.549595 -63.951883 
L 106.752651 -63.733763 
L 103.955707 -63.515626 
L 101.158762 -63.297118 
L 98.361818 -63.108643 
z
" style="stroke: #ffffff; stroke-opacity: 0.5"/>
    </defs>
    <g clip-path="url(#p73b575d380)">
     <use xlink:href="#m04ff24a912" x="0" y="345.6" style="fill: #55a868; fill-opacity: 0.5; stroke: #ffffff; stroke-opacity: 0.5"/>
    </g>
   </g>
   <g id="PolyCollection_4">
    <defs>
     <path id="m9adfdc57ce" d="M 98.361818 -63.52226 
L 98.361818 -63.662884 
L 101.158762 -64.335868 
L 103.955707 -65.007082 
L 106.752651 -65.6784 
L 109.549595 -66.348198 
L 112.346539 -67.017891 
L 115.143484 -67.6839 
L 117.940428 -68.349703 
L 120.737372 -69.015034 
L 123.534316 -69.67853 
L 126.331261 -70.34195 
L 129.128205 -71.006687 
L 131.925149 -71.671117 
L 134.722093 -72.334842 
L 137.519037 -73.000709 
L 140.315982 -73.664631 
L 143.112926 -74.325061 
L 145.90987 -74.986228 
L 148.706814 -75.646584 
L 151.503759 -76.305929 
L 154.300703 -76.963151 
L 157.097647 -77.622433 
L 159.894591 -78.283737 
L 162.691536 -78.941552 
L 165.48848 -79.600986 
L 168.285424 -80.260995 
L 171.082368 -80.919883 
L 173.879312 -81.576497 
L 176.676257 -82.232195 
L 179.473201 -82.888142 
L 182.270145 -83.544338 
L 185.067089 -84.199191 
L 187.864034 -84.853931 
L 190.660978 -85.510051 
L 193.457922 -86.16453 
L 196.254866 -86.818665 
L 199.051811 -87.473718 
L 201.848755 -88.126767 
L 204.645699 -88.781066 
L 207.442643 -89.43507 
L 210.239587 -90.088336 
L 213.036532 -90.741016 
L 215.833476 -91.437035 
L 218.63042 -92.088467 
L 221.427364 -92.739478 
L 224.224309 -93.390408 
L 227.021253 -94.041156 
L 229.818197 -94.691056 
L 232.615141 -95.342022 
L 235.412086 -95.994194 
L 238.20903 -96.645382 
L 241.005974 -97.296694 
L 243.802918 -97.948494 
L 246.599862 -98.599676 
L 249.396807 -99.254385 
L 252.193751 -99.907104 
L 254.990695 -100.559002 
L 257.787639 -101.21347 
L 260.584584 -101.863544 
L 263.381528 -102.515971 
L 266.178472 -103.168843 
L 268.975416 -103.820122 
L 271.772361 -104.472958 
L 274.569305 -105.128038 
L 277.366249 -105.781835 
L 280.163193 -106.434812 
L 282.960138 -107.083465 
L 285.757082 -107.730126 
L 288.554026 -108.377756 
L 291.35097 -109.023098 
L 294.147914 -109.669611 
L 296.944859 -110.3133 
L 299.741803 -110.95732 
L 302.538747 -111.598274 
L 305.335691 -112.233671 
L 308.132636 -112.866655 
L 310.92958 -113.500662 
L 313.726524 -114.129815 
L 316.523468 -114.756139 
L 319.320413 -115.326941 
L 322.117357 -115.859361 
L 324.914301 -116.390993 
L 327.711245 -116.923188 
L 330.508189 -117.453998 
L 333.305134 -117.984718 
L 336.102078 -118.516208 
L 338.899022 -119.082273 
L 341.695966 -119.628059 
L 344.492911 -120.182915 
L 347.289855 -120.714107 
L 350.086799 -121.244816 
L 352.883743 -121.773436 
L 355.680688 -122.302344 
L 358.477632 -122.879406 
L 361.274576 -123.412684 
L 364.07152 -123.962662 
L 366.868464 -124.499213 
L 369.665409 -125.045097 
L 372.462353 -125.573477 
L 375.259297 -126.101355 
L 378.056241 -126.63504 
L 380.853186 -127.163023 
L 383.65013 -127.69013 
L 386.447074 -128.255328 
L 389.244018 -128.783829 
L 392.040963 -129.310526 
L 394.837907 -129.836659 
L 397.634851 -130.363014 
L 400.431795 -130.914233 
L 403.228739 -131.495269 
L 406.025684 -132.048675 
L 408.822628 -132.577243 
L 411.619572 -133.106258 
L 414.416516 -133.636852 
L 417.213461 -134.165528 
L 420.010405 -134.704852 
L 422.807349 -135.235574 
L 425.604293 -135.766335 
L 428.401238 -136.351703 
L 431.198182 -136.752975 
L 431.198182 -135.823241 
L 431.198182 -135.823241 
L 428.401238 -135.303277 
L 425.604293 -134.782047 
L 422.807349 -134.238 
L 420.010405 -133.714656 
L 417.213461 -133.192128 
L 414.416516 -132.667463 
L 411.619572 -132.146259 
L 408.822628 -131.621141 
L 406.025684 -131.099198 
L 403.228739 -130.572835 
L 400.431795 -130.052852 
L 397.634851 -129.528118 
L 394.837907 -129.009202 
L 392.040963 -128.489973 
L 389.244018 -127.92347 
L 386.447074 -127.388579 
L 383.65013 -126.858463 
L 380.853186 -126.32992 
L 378.056241 -125.805415 
L 375.259297 -125.28054 
L 372.462353 -124.747908 
L 369.665409 -124.227843 
L 366.868464 -123.692054 
L 364.07152 -123.171659 
L 361.274576 -122.65236 
L 358.477632 -122.123972 
L 355.680688 -121.604467 
L 352.883743 -121.084959 
L 350.086799 -120.503799 
L 347.289855 -119.974532 
L 344.492911 -119.454486 
L 341.695966 -118.933823 
L 338.899022 -118.355225 
L 336.102078 -117.835121 
L 333.305134 -117.310039 
L 330.508189 -116.789318 
L 327.711245 -116.267255 
L 324.914301 -115.723777 
L 322.117357 -115.196222 
L 319.320413 -114.673599 
L 316.523468 -114.077821 
L 313.726524 -113.460778 
L 310.92958 -112.822316 
L 308.132636 -112.200385 
L 305.335691 -111.578425 
L 302.538747 -110.953062 
L 299.741803 -110.291524 
L 296.944859 -109.646081 
L 294.147914 -108.988643 
L 291.35097 -108.356388 
L 288.554026 -107.720864 
L 285.757082 -107.086963 
L 282.960138 -106.45428 
L 280.163193 -105.814865 
L 277.366249 -105.174423 
L 274.569305 -104.527292 
L 271.772361 -103.884728 
L 268.975416 -103.248416 
L 266.178472 -102.611626 
L 263.381528 -101.974686 
L 260.584584 -101.339502 
L 257.787639 -100.700938 
L 254.990695 -100.062249 
L 252.193751 -99.423608 
L 249.396807 -98.7834 
L 246.599862 -98.142529 
L 243.802918 -97.50379 
L 241.005974 -96.864866 
L 238.20903 -96.226463 
L 235.412086 -95.588043 
L 232.615141 -94.948694 
L 229.818197 -94.308273 
L 227.021253 -93.670086 
L 224.224309 -93.029029 
L 221.427364 -92.381069 
L 218.63042 -91.741561 
L 215.833476 -91.100536 
L 213.036532 -90.458598 
L 210.239587 -89.816863 
L 207.442643 -89.17428 
L 204.645699 -88.531648 
L 201.848755 -87.888474 
L 199.051811 -87.244395 
L 196.254866 -86.599149 
L 193.457922 -85.95444 
L 190.660978 -85.306403 
L 187.864034 -84.659079 
L 185.067089 -84.012169 
L 182.270145 -83.364209 
L 179.473201 -82.714577 
L 176.676257 -82.066092 
L 173.879312 -81.416127 
L 171.082368 -80.766109 
L 168.285424 -80.11208 
L 165.48848 -79.457959 
L 162.691536 -78.80377 
L 159.894591 -78.148332 
L 157.097647 -77.491478 
L 154.300703 -76.833253 
L 151.503759 -76.17567 
L 148.706814 -75.515988 
L 145.90987 -74.855191 
L 143.112926 -74.193639 
L 140.315982 -73.530357 
L 137.519037 -72.865877 
L 134.722093 -72.200904 
L 131.925149 -71.537278 
L 129.128205 -70.871286 
L 126.331261 -70.206806 
L 123.534316 -69.543251 
L 120.737372 -68.877936 
L 117.940428 -68.212541 
L 115.143484 -67.546182 
L 112.346539 -66.877523 
L 109.549595 -66.207912 
L 106.752651 -65.537265 
L 103.955707 -64.866817 
L 101.158762 -64.194364 
L 98.361818 -63.52226 
z
" style="stroke: #ffffff; stroke-opacity: 0.5"/>
    </defs>
    <g clip-path="url(#p73b575d380)">
     <use xlink:href="#m9adfdc57ce" x="0" y="345.6" style="fill: #c44e52; fill-opacity: 0.5; stroke: #ffffff; stroke-opacity: 0.5"/>
    </g>
   </g>
   <g id="PolyCollection_5">
    <defs>
     <path id="m1ebeb98585" d="M 98.361818 -63.981804 
L 98.361818 -64.113899 
L 101.158762 -65.227798 
L 103.955707 -66.342915 
L 106.752651 -67.454716 
L 109.549595 -68.567892 
L 112.346539 -69.680844 
L 115.143484 -70.794136 
L 117.940428 -71.907143 
L 120.737372 -73.021141 
L 123.534316 -74.134174 
L 126.331261 -75.246375 
L 129.128205 -76.358155 
L 131.925149 -77.469608 
L 134.722093 -78.580162 
L 137.519037 -79.689482 
L 140.315982 -80.79853 
L 143.112926 -81.907331 
L 145.90987 -83.016808 
L 148.706814 -84.125557 
L 151.503759 -85.232911 
L 154.300703 -86.340581 
L 157.097647 -87.447576 
L 159.894591 -88.554635 
L 162.691536 -89.660842 
L 165.48848 -90.76565 
L 168.285424 -91.872634 
L 171.082368 -92.976924 
L 173.879312 -94.082789 
L 176.676257 -95.186934 
L 179.473201 -96.289821 
L 182.270145 -97.393129 
L 185.067089 -98.498691 
L 187.864034 -99.601598 
L 190.660978 -100.705344 
L 193.457922 -101.808995 
L 196.254866 -102.91254 
L 199.051811 -104.015218 
L 201.848755 -105.118191 
L 204.645699 -106.220258 
L 207.442643 -107.323614 
L 210.239587 -108.425061 
L 213.036532 -109.526927 
L 215.833476 -110.630016 
L 218.63042 -111.732619 
L 221.427364 -112.836317 
L 224.224309 -113.938982 
L 227.021253 -115.041146 
L 229.818197 -116.142229 
L 232.615141 -117.243781 
L 235.412086 -118.348736 
L 238.20903 -119.44784 
L 241.005974 -120.547311 
L 243.802918 -121.645937 
L 246.599862 -122.744768 
L 249.396807 -123.843129 
L 252.193751 -124.940948 
L 254.990695 -126.037565 
L 257.787639 -127.135043 
L 260.584584 -128.232201 
L 263.381528 -129.327328 
L 266.178472 -130.42232 
L 268.975416 -131.518201 
L 271.772361 -132.615707 
L 274.569305 -133.710815 
L 277.366249 -134.805733 
L 280.163193 -135.900332 
L 282.960138 -136.995353 
L 285.757082 -138.089145 
L 288.554026 -139.183233 
L 291.35097 -140.275654 
L 294.147914 -141.368539 
L 296.944859 -142.464612 
L 299.741803 -143.560131 
L 302.538747 -144.654877 
L 305.335691 -145.746556 
L 308.132636 -146.839696 
L 310.92958 -147.957813 
L 313.726524 -149.077498 
L 316.523468 -150.206135 
L 319.320413 -151.348451 
L 322.117357 -152.463787 
L 324.914301 -153.552541 
L 327.711245 -154.634054 
L 330.508189 -155.716238 
L 333.305134 -156.868409 
L 336.102078 -157.97965 
L 338.899022 -159.120011 
L 341.695966 -160.2219 
L 344.492911 -161.323525 
L 347.289855 -162.463577 
L 350.086799 -163.566701 
L 352.883743 -164.669137 
L 355.680688 -165.805486 
L 358.477632 -166.905333 
L 361.274576 -168.008428 
L 364.07152 -169.108347 
L 366.868464 -170.211619 
L 369.665409 -171.315149 
L 372.462353 -172.509397 
L 375.259297 -173.622196 
L 378.056241 -174.75235 
L 380.853186 -175.850951 
L 383.65013 -176.950391 
L 386.447074 -178.076423 
L 389.244018 -179.174269 
L 392.040963 -180.274231 
L 394.837907 -181.375963 
L 397.634851 -182.478487 
L 400.431795 -183.582205 
L 403.228739 -184.684373 
L 406.025684 -185.787933 
L 408.822628 -186.89249 
L 411.619572 -187.996824 
L 414.416516 -189.102005 
L 417.213461 -190.211288 
L 420.010405 -191.315481 
L 422.807349 -192.416822 
L 425.604293 -193.520512 
L 428.401238 -194.623789 
L 431.198182 -195.529562 
L 431.198182 -194.169648 
L 431.198182 -194.169648 
L 428.401238 -193.088129 
L 425.604293 -192.006807 
L 422.807349 -190.933025 
L 420.010405 -189.859103 
L 417.213461 -188.767739 
L 414.416516 -187.683825 
L 411.619572 -186.607381 
L 408.822628 -185.514857 
L 406.025684 -184.438095 
L 403.228739 -183.356381 
L 400.431795 -182.198842 
L 397.634851 -181.113757 
L 394.837907 -180.028492 
L 392.040963 -178.939497 
L 389.244018 -177.856426 
L 386.447074 -176.774572 
L 383.65013 -175.691629 
L 380.853186 -174.598 
L 378.056241 -173.481082 
L 375.259297 -172.297661 
L 372.462353 -171.202137 
L 369.665409 -170.110036 
L 366.868464 -169.023566 
L 364.07152 -167.936052 
L 361.274576 -166.843679 
L 358.477632 -165.657924 
L 355.680688 -164.414611 
L 352.883743 -163.335223 
L 350.086799 -162.250573 
L 347.289855 -161.167459 
L 344.492911 -160.085549 
L 341.695966 -158.962727 
L 338.899022 -157.860893 
L 336.102078 -156.777564 
L 333.305134 -155.691867 
L 330.508189 -154.604627 
L 327.711245 -153.531768 
L 324.914301 -152.463768 
L 322.117357 -151.396373 
L 319.320413 -150.293874 
L 316.523468 -149.2257 
L 313.726524 -148.136957 
L 310.92958 -147.071124 
L 308.132636 -146.000165 
L 305.335691 -144.933548 
L 302.538747 -143.797558 
L 299.741803 -142.723143 
L 296.944859 -141.639379 
L 294.147914 -140.55068 
L 291.35097 -139.477515 
L 288.554026 -138.406898 
L 285.757082 -137.334334 
L 282.960138 -136.262288 
L 280.163193 -135.18909 
L 277.366249 -134.116091 
L 274.569305 -133.041876 
L 271.772361 -131.966106 
L 268.975416 -130.88945 
L 266.178472 -129.812889 
L 263.381528 -128.736795 
L 260.584584 -127.657962 
L 257.787639 -126.577397 
L 254.990695 -125.497852 
L 252.193751 -124.416506 
L 249.396807 -123.334861 
L 246.599862 -122.252613 
L 243.802918 -121.16826 
L 241.005974 -120.079785 
L 238.20903 -118.995038 
L 235.412086 -117.90939 
L 232.615141 -116.817839 
L 229.818197 -115.729064 
L 227.021253 -114.641354 
L 224.224309 -113.552203 
L 221.427364 -112.461273 
L 218.63042 -111.369757 
L 215.833476 -110.278376 
L 213.036532 -109.186362 
L 210.239587 -108.094583 
L 207.442643 -107.002001 
L 204.645699 -105.908314 
L 201.848755 -104.815608 
L 199.051811 -103.720769 
L 196.254866 -102.625913 
L 193.457922 -101.530878 
L 190.660978 -100.43617 
L 187.864034 -99.339962 
L 185.067089 -98.244593 
L 182.270145 -97.145905 
L 179.473201 -96.049876 
L 176.676257 -94.953263 
L 173.879312 -93.855534 
L 171.082368 -92.757251 
L 168.285424 -91.659075 
L 165.48848 -90.559278 
L 162.691536 -89.460804 
L 159.894591 -88.361026 
L 157.097647 -87.259978 
L 154.300703 -86.159957 
L 151.503759 -85.059306 
L 148.706814 -83.958713 
L 145.90987 -82.858088 
L 143.112926 -81.756139 
L 140.315982 -80.654494 
L 137.519037 -79.552535 
L 134.722093 -78.450536 
L 131.925149 -77.342721 
L 129.128205 -76.232481 
L 126.331261 -75.120043 
L 123.534316 -74.007983 
L 120.737372 -72.896554 
L 117.940428 -71.7831 
L 115.143484 -70.669258 
L 112.346539 -69.556287 
L 109.549595 -68.441687 
L 106.752651 -67.327442 
L 103.955707 -66.213878 
L 101.158762 -65.098358 
L 98.361818 -63.981804 
z
" style="stroke: #ffffff; stroke-opacity: 0.5"/>
    </defs>
    <g clip-path="url(#p73b575d380)">
     <use xlink:href="#m1ebeb98585" x="0" y="345.6" style="fill: #8172b3; fill-opacity: 0.5; stroke: #ffffff; stroke-opacity: 0.5"/>
    </g>
   </g>
   <g id="PolyCollection_6">
    <defs>
     <path id="m81ab75f557" d="M 98.361818 -65.051434 
L 98.361818 -65.182546 
L 101.158762 -67.358568 
L 103.955707 -69.517661 
L 106.752651 -71.664757 
L 109.549595 -73.82412 
L 112.346539 -75.990195 
L 115.143484 -78.15402 
L 117.940428 -80.246559 
L 120.737372 -82.150805 
L 123.534316 -84.051068 
L 126.331261 -85.95117 
L 129.128205 -87.847717 
L 131.925149 -89.747864 
L 134.722093 -91.643441 
L 137.519037 -93.537102 
L 140.315982 -95.432349 
L 143.112926 -97.327252 
L 145.90987 -99.221447 
L 148.706814 -101.112421 
L 151.503759 -103.250333 
L 154.300703 -105.212963 
L 157.097647 -107.1037 
L 159.894591 -108.994048 
L 162.691536 -110.885326 
L 165.48848 -112.895102 
L 168.285424 -114.876508 
L 171.082368 -116.76552 
L 173.879312 -118.766555 
L 176.676257 -120.874103 
L 179.473201 -123.011599 
L 182.270145 -125.116924 
L 185.067089 -127.222817 
L 187.864034 -129.329824 
L 190.660978 -131.436342 
L 193.457922 -133.538686 
L 196.254866 -135.64075 
L 199.051811 -137.744163 
L 201.848755 -139.847611 
L 204.645699 -141.951734 
L 207.442643 -144.053455 
L 210.239587 -146.155824 
L 213.036532 -148.256599 
L 215.833476 -150.356432 
L 218.63042 -152.456812 
L 221.427364 -154.566484 
L 224.224309 -156.512214 
L 227.021253 -158.397868 
L 229.818197 -160.283254 
L 232.615141 -162.16823 
L 235.412086 -164.05401 
L 238.20903 -165.942416 
L 241.005974 -167.832238 
L 243.802918 -169.721614 
L 246.599862 -171.61748 
L 249.396807 -173.506576 
L 252.193751 -175.397909 
L 254.990695 -177.287904 
L 257.787639 -179.178523 
L 260.584584 -181.064739 
L 263.381528 -182.953109 
L 266.178472 -184.896738 
L 268.975416 -186.791038 
L 271.772361 -188.723752 
L 274.569305 -190.619984 
L 277.366249 -192.514029 
L 280.163193 -194.393836 
L 282.960138 -196.306173 
L 285.757082 -198.224919 
L 288.554026 -200.113119 
L 291.35097 -201.997721 
L 294.147914 -204.003475 
L 296.944859 -205.964543 
L 299.741803 -207.889122 
L 302.538747 -209.843533 
L 305.335691 -211.73478 
L 308.132636 -213.639528 
L 310.92958 -215.700742 
L 313.726524 -217.770847 
L 316.523468 -219.930495 
L 319.320413 -222.050608 
L 322.117357 -224.184092 
L 324.914301 -226.314918 
L 327.711245 -228.201294 
L 330.508189 -230.424061 
L 333.305134 -232.353173 
L 336.102078 -234.261144 
L 338.899022 -236.154093 
L 341.695966 -238.252953 
L 344.492911 -240.266307 
L 347.289855 -242.182845 
L 350.086799 -244.130385 
L 352.883743 -246.053131 
L 355.680688 -248.048538 
L 358.477632 -249.961201 
L 361.274576 -251.893035 
L 364.07152 -253.840209 
L 366.868464 -255.721047 
L 369.665409 -257.594189 
L 372.462353 -259.47502 
L 375.259297 -261.360871 
L 378.056241 -263.241503 
L 380.853186 -265.315521 
L 383.65013 -267.496555 
L 386.447074 -269.67426 
L 389.244018 -271.893183 
L 392.040963 -274.098886 
L 394.837907 -276.306278 
L 397.634851 -278.515605 
L 400.431795 -280.72575 
L 403.228739 -282.93527 
L 406.025684 -285.134628 
L 408.822628 -287.29745 
L 411.619572 -289.464594 
L 414.416516 -291.493018 
L 417.213461 -293.64207 
L 420.010405 -295.788619 
L 422.807349 -297.70811 
L 425.604293 -299.710448 
L 428.401238 -301.822508 
L 431.198182 -303.799091 
L 431.198182 -301.868161 
L 431.198182 -301.868161 
L 428.401238 -299.79705 
L 425.604293 -297.730356 
L 422.807349 -295.883482 
L 420.010405 -293.895037 
L 417.213461 -291.793908 
L 414.416516 -289.778294 
L 411.619572 -287.708691 
L 408.822628 -285.574185 
L 406.025684 -283.446318 
L 403.228739 -281.264427 
L 400.431795 -279.094871 
L 397.634851 -276.907301 
L 394.837907 -274.708792 
L 392.040963 -272.249736 
L 389.244018 -270.071507 
L 386.447074 -267.828792 
L 383.65013 -265.689713 
L 380.853186 -263.556789 
L 378.056241 -261.623942 
L 375.259297 -259.763574 
L 372.462353 -257.905015 
L 369.665409 -256.045323 
L 366.868464 -254.182684 
L 364.07152 -252.323532 
L 361.274576 -250.454398 
L 358.477632 -248.562286 
L 355.680688 -246.601461 
L 352.883743 -244.671995 
L 350.086799 -242.781166 
L 347.289855 -240.911072 
L 344.492911 -239.002948 
L 341.695966 -236.956931 
L 338.899022 -234.975465 
L 336.102078 -233.106458 
L 333.305134 -231.195486 
L 330.508189 -229.240045 
L 327.711245 -227.231213 
L 324.914301 -225.355722 
L 322.117357 -223.249237 
L 319.320413 -221.143531 
L 316.523468 -219.043557 
L 313.726524 -216.937967 
L 310.92958 -214.954447 
L 308.132636 -213.065145 
L 305.335691 -211.15774 
L 302.538747 -209.273281 
L 299.741803 -207.28619 
L 296.944859 -205.374509 
L 294.147914 -203.483226 
L 291.35097 -201.493466 
L 288.554026 -199.60168 
L 285.757082 -197.72549 
L 282.960138 -195.813957 
L 280.163193 -193.937577 
L 277.366249 -192.065226 
L 274.569305 -190.190189 
L 271.772361 -188.316296 
L 268.975416 -186.433148 
L 266.178472 -184.547884 
L 263.381528 -182.671257 
L 260.584584 -180.790311 
L 257.787639 -178.909125 
L 254.990695 -176.998139 
L 252.193751 -175.120652 
L 249.396807 -173.244274 
L 246.599862 -171.364505 
L 243.802918 -169.485452 
L 241.005974 -167.606138 
L 238.20903 -165.725294 
L 235.412086 -163.845417 
L 232.615141 -161.966515 
L 229.818197 -160.088865 
L 227.021253 -158.209069 
L 224.224309 -156.330444 
L 221.427364 -154.372128 
L 218.63042 -152.271246 
L 215.833476 -150.166388 
L 213.036532 -148.063481 
L 210.239587 -145.95984 
L 207.442643 -143.856303 
L 204.645699 -141.753749 
L 201.848755 -139.650934 
L 199.051811 -137.549336 
L 196.254866 -135.444001 
L 193.457922 -133.341002 
L 190.660978 -131.237815 
L 187.864034 -129.131497 
L 185.067089 -127.023768 
L 182.270145 -124.918883 
L 179.473201 -122.814762 
L 176.676257 -120.675776 
L 173.879312 -118.571156 
L 171.082368 -116.626684 
L 168.285424 -114.740103 
L 165.48848 -112.705244 
L 162.691536 -110.753059 
L 159.894591 -108.862405 
L 157.097647 -106.975958 
L 154.300703 -105.087177 
L 151.503759 -103.066729 
L 148.706814 -100.989674 
L 145.90987 -99.103313 
L 143.112926 -97.212434 
L 140.315982 -95.320108 
L 137.519037 -93.427313 
L 134.722093 -91.535121 
L 131.925149 -89.639678 
L 129.128205 -87.741815 
L 126.331261 -85.847024 
L 123.534316 -83.948238 
L 120.737372 -82.050787 
L 117.940428 -80.147456 
L 115.143484 -78.002557 
L 112.346539 -75.842397 
L 109.549595 -73.681086 
L 106.752651 -71.525915 
L 103.955707 -69.384042 
L 101.158762 -67.222113 
L 98.361818 -65.051434 
z
" style="stroke: #ffffff; stroke-opacity: 0.5"/>
    </defs>
    <g clip-path="url(#p73b575d380)">
     <use xlink:href="#m81ab75f557" x="0" y="345.6" style="fill: #937860; fill-opacity: 0.5; stroke: #ffffff; stroke-opacity: 0.5"/>
    </g>
   </g>
   <g id="line2d_14">
    <path d="M 98.361818 282.619038 
L 101.158762 282.617681 
L 103.955707 282.616338 
L 106.752651 282.614989 
L 109.549595 282.603316 
L 112.346539 282.591784 
L 115.143484 282.58024 
L 117.940428 282.568608 
L 120.737372 282.557116 
L 123.534316 282.545563 
L 126.331261 282.534082 
L 129.128205 282.522531 
L 131.925149 282.511073 
L 134.722093 282.499599 
L 137.519037 282.487912 
L 140.315982 282.476423 
L 143.112926 282.464852 
L 145.90987 282.453223 
L 148.706814 282.441528 
L 151.503759 282.430079 
L 154.300703 282.418544 
L 157.097647 282.407041 
L 159.894591 282.395657 
L 162.691536 282.38416 
L 165.48848 282.372547 
L 168.285424 282.360906 
L 171.082368 282.349359 
L 173.879312 282.337792 
L 176.676257 282.326231 
L 179.473201 282.314776 
L 182.270145 282.303355 
L 185.067089 282.29172 
L 187.864034 282.280259 
L 190.660978 282.268833 
L 193.457922 282.257334 
L 196.254866 282.245826 
L 199.051811 282.234346 
L 201.848755 282.222916 
L 204.645699 282.211347 
L 207.442643 282.199899 
L 210.239587 282.188422 
L 213.036532 282.176967 
L 215.833476 282.165448 
L 218.63042 282.153901 
L 221.427364 282.142466 
L 224.224309 282.131044 
L 227.021253 282.119593 
L 229.818197 282.108095 
L 232.615141 282.096525 
L 235.412086 282.085109 
L 238.20903 282.073494 
L 241.005974 282.061764 
L 243.802918 282.050152 
L 246.599862 282.038455 
L 249.396807 282.026908 
L 252.193751 282.015458 
L 254.990695 282.003827 
L 257.787639 281.992329 
L 260.584584 281.980748 
L 263.381528 281.969202 
L 266.178472 281.957757 
L 268.975416 281.946199 
L 271.772361 281.934756 
L 274.569305 281.923395 
L 277.366249 281.912002 
L 280.163193 281.900607 
L 282.960138 281.889239 
L 285.757082 281.877875 
L 288.554026 281.866448 
L 291.35097 281.85497 
L 294.147914 281.843467 
L 296.944859 281.832 
L 299.741803 281.820628 
L 302.538747 281.809165 
L 305.335691 281.797728 
L 308.132636 281.786298 
L 310.92958 281.7749 
L 313.726524 281.763573 
L 316.523468 281.752218 
L 319.320413 281.740855 
L 322.117357 281.729518 
L 324.914301 281.718017 
L 327.711245 281.706605 
L 330.508189 281.695078 
L 333.305134 281.683727 
L 336.102078 281.672318 
L 338.899022 281.660872 
L 341.695966 281.649544 
L 344.492911 281.638031 
L 347.289855 281.626662 
L 350.086799 281.615412 
L 352.883743 281.603918 
L 355.680688 281.592611 
L 358.477632 281.581268 
L 361.274576 281.56993 
L 364.07152 281.558435 
L 366.868464 281.546996 
L 369.665409 281.535573 
L 372.462353 281.524162 
L 375.259297 281.512819 
L 378.056241 281.501526 
L 380.853186 281.490244 
L 383.65013 281.478901 
L 386.447074 281.467601 
L 389.244018 281.456092 
L 392.040963 281.444677 
L 394.837907 281.433385 
L 397.634851 281.422116 
L 400.431795 281.410853 
L 403.228739 281.399481 
L 406.025684 281.388112 
L 408.822628 281.376683 
L 411.619572 281.36527 
L 414.416516 281.353879 
L 417.213461 281.342343 
L 420.010405 281.330857 
L 422.807349 281.319412 
L 425.604293 281.30798 
L 428.401238 281.296431 
L 431.198182 281.284949 
" clip-path="url(#p73b575d380)" style="fill: none; stroke: #4c72b0; stroke-width: 3; stroke-linecap: round"/>
   </g>
   <g id="line2d_15">
    <path d="M 98.361818 282.517991 
L 101.158762 282.403582 
L 103.955707 282.282437 
L 106.752651 282.159521 
L 109.549595 282.036925 
L 112.346539 281.914743 
L 115.143484 281.792877 
L 117.940428 281.671196 
L 120.737372 281.549646 
L 123.534316 281.428441 
L 126.331261 281.307365 
L 129.128205 281.186455 
L 131.925149 281.06585 
L 134.722093 280.945281 
L 137.519037 280.824751 
L 140.315982 280.704294 
L 143.112926 280.584097 
L 145.90987 280.464148 
L 148.706814 280.344363 
L 151.503759 280.224779 
L 154.300703 280.105454 
L 157.097647 279.98626 
L 159.894591 279.867333 
L 162.691536 279.748609 
L 165.48848 279.629991 
L 168.285424 279.511495 
L 171.082368 279.393273 
L 173.879312 279.27513 
L 176.676257 279.157166 
L 179.473201 279.039398 
L 182.270145 278.921622 
L 185.067089 278.803947 
L 187.864034 278.686391 
L 190.660978 278.568965 
L 193.457922 278.451812 
L 196.254866 278.334688 
L 199.051811 278.217561 
L 201.848755 278.100493 
L 204.645699 277.983548 
L 207.442643 277.866573 
L 210.239587 277.749885 
L 213.036532 277.633263 
L 215.833476 277.516682 
L 218.63042 277.40021 
L 221.427364 277.283916 
L 224.224309 277.167739 
L 227.021253 277.051286 
L 229.818197 276.934826 
L 232.615141 276.818424 
L 235.412086 276.702042 
L 238.20903 276.585767 
L 241.005974 276.469458 
L 243.802918 276.353234 
L 246.599862 276.236923 
L 249.396807 276.120652 
L 252.193751 276.004323 
L 254.990695 275.887878 
L 257.787639 275.771395 
L 260.584584 275.655 
L 263.381528 275.538485 
L 266.178472 275.422175 
L 268.975416 275.305888 
L 271.772361 275.18949 
L 274.569305 275.073068 
L 277.366249 274.956711 
L 280.163193 274.840662 
L 282.960138 274.724631 
L 285.757082 274.608721 
L 288.554026 274.492704 
L 291.35097 274.377028 
L 294.147914 274.261129 
L 296.944859 274.144442 
L 299.741803 274.028806 
L 302.538747 273.913158 
L 305.335691 273.797524 
L 308.132636 273.681911 
L 310.92958 273.566308 
L 313.726524 273.450813 
L 316.523468 273.335289 
L 319.320413 273.219858 
L 322.117357 273.104534 
L 324.914301 272.989113 
L 327.711245 272.87345 
L 330.508189 272.755414 
L 333.305134 272.640475 
L 336.102078 272.525075 
L 338.899022 272.409185 
L 341.695966 272.294186 
L 344.492911 272.179195 
L 347.289855 272.064473 
L 350.086799 271.947832 
L 352.883743 271.832861 
L 355.680688 271.717774 
L 358.477632 271.602727 
L 361.274576 271.485938 
L 364.07152 271.370416 
L 366.868464 271.245485 
L 369.665409 271.130888 
L 372.462353 271.009934 
L 375.259297 270.895475 
L 378.056241 270.780817 
L 380.853186 270.66571 
L 383.65013 270.544169 
L 386.447074 270.429655 
L 389.244018 270.311888 
L 392.040963 270.194585 
L 394.837907 270.079178 
L 397.634851 269.964006 
L 400.431795 269.847747 
L 403.228739 269.73191 
L 406.025684 269.617194 
L 408.822628 269.495868 
L 411.619572 269.381557 
L 414.416516 269.253702 
L 417.213461 269.137679 
L 420.010405 269.023336 
L 422.807349 268.905975 
L 425.604293 268.783515 
L 428.401238 268.667256 
L 431.198182 268.572673 
" clip-path="url(#p73b575d380)" style="fill: none; stroke: #dd8452; stroke-width: 3; stroke-linecap: round"/>
   </g>
   <g id="line2d_16">
    <path d="M 98.361818 282.43339 
L 101.158762 282.221467 
L 103.955707 282.003401 
L 106.752651 281.785933 
L 109.549595 281.568895 
L 112.346539 281.352338 
L 115.143484 281.135957 
L 117.940428 280.919907 
L 120.737372 280.704306 
L 123.534316 280.489008 
L 126.331261 280.274219 
L 129.128205 280.059677 
L 131.925149 279.845369 
L 134.722093 279.631411 
L 137.519037 279.417852 
L 140.315982 279.204539 
L 143.112926 278.991492 
L 145.90987 278.778968 
L 148.706814 278.5669 
L 151.503759 278.355182 
L 154.300703 278.143847 
L 157.097647 277.932915 
L 159.894591 277.722262 
L 162.691536 277.511557 
L 165.48848 277.30121 
L 168.285424 277.091063 
L 171.082368 276.881461 
L 173.879312 276.672111 
L 176.676257 276.462742 
L 179.473201 276.253461 
L 182.270145 276.044349 
L 185.067089 275.834895 
L 187.864034 275.626289 
L 190.660978 275.417811 
L 193.457922 275.209558 
L 196.254866 275.001367 
L 199.051811 274.793205 
L 201.848755 274.585115 
L 204.645699 274.376902 
L 207.442643 274.168689 
L 210.239587 273.960952 
L 213.036532 273.753478 
L 215.833476 273.546098 
L 218.63042 273.339216 
L 221.427364 273.132736 
L 224.224309 272.92597 
L 227.021253 272.719356 
L 229.818197 272.512787 
L 232.615141 272.306467 
L 235.412086 272.100412 
L 238.20903 271.894374 
L 241.005974 271.688562 
L 243.802918 271.482784 
L 246.599862 271.277237 
L 249.396807 271.071868 
L 252.193751 270.866346 
L 254.990695 270.660738 
L 257.787639 270.455265 
L 260.584584 270.249805 
L 263.381528 270.044566 
L 266.178472 269.839613 
L 268.975416 269.634585 
L 271.772361 269.429686 
L 274.569305 269.224776 
L 277.366249 269.02004 
L 280.163193 268.815581 
L 282.960138 268.611014 
L 285.757082 268.406503 
L 288.554026 268.201977 
L 291.35097 267.997459 
L 294.147914 267.79287 
L 296.944859 267.588338 
L 299.741803 267.382981 
L 302.538747 267.178645 
L 305.335691 266.974407 
L 308.132636 266.770076 
L 310.92958 266.564484 
L 313.726524 266.359652 
L 316.523468 266.155775 
L 319.320413 265.952114 
L 322.117357 265.746581 
L 324.914301 265.543094 
L 327.711245 265.338251 
L 330.508189 265.134956 
L 333.305134 264.931725 
L 336.102078 264.724383 
L 338.899022 264.521148 
L 341.695966 264.315842 
L 344.492911 264.111918 
L 347.289855 263.906719 
L 350.086799 263.702477 
L 352.883743 263.499812 
L 355.680688 263.296017 
L 358.477632 263.09015 
L 361.274576 262.888167 
L 364.07152 262.685963 
L 366.868464 262.483852 
L 369.665409 262.28096 
L 372.462353 262.078812 
L 375.259297 261.876204 
L 378.056241 261.674245 
L 380.853186 261.472302 
L 383.65013 261.270401 
L 386.447074 261.067847 
L 389.244018 260.86615 
L 392.040963 260.661077 
L 394.837907 260.459713 
L 397.634851 260.25687 
L 400.431795 260.051433 
L 403.228739 259.848457 
L 406.025684 259.641575 
L 408.822628 259.44053 
L 411.619572 259.237975 
L 414.416516 259.037063 
L 417.213461 258.836425 
L 420.010405 258.634713 
L 422.807349 258.433695 
L 425.604293 258.231584 
L 428.401238 258.027069 
L 431.198182 257.861297 
" clip-path="url(#p73b575d380)" style="fill: none; stroke: #55a868; stroke-width: 3; stroke-linecap: round"/>
   </g>
   <g id="line2d_17">
    <path d="M 98.361818 281.986101 
L 101.158762 281.313036 
L 103.955707 280.641166 
L 106.752651 279.969984 
L 109.549595 279.300206 
L 112.346539 278.629934 
L 115.143484 277.962994 
L 117.940428 277.296798 
L 120.737372 276.63141 
L 123.534316 275.966924 
L 126.331261 275.303428 
L 129.128205 274.638119 
L 131.925149 273.972599 
L 134.722093 273.308722 
L 137.519037 272.642495 
L 140.315982 271.977811 
L 143.112926 271.315383 
L 145.90987 270.652938 
L 148.706814 269.991449 
L 151.503759 269.330923 
L 154.300703 268.672068 
L 157.097647 268.012993 
L 159.894591 267.354545 
L 162.691536 266.698939 
L 165.48848 266.042707 
L 168.285424 265.385776 
L 171.082368 264.72988 
L 173.879312 264.076668 
L 176.676257 263.424246 
L 179.473201 262.771825 
L 182.270145 262.119069 
L 185.067089 261.467517 
L 187.864034 260.816527 
L 190.660978 260.164404 
L 193.457922 259.513004 
L 196.254866 258.862833 
L 199.051811 258.212024 
L 201.848755 257.563369 
L 204.645699 256.914018 
L 207.442643 256.264871 
L 210.239587 255.616466 
L 213.036532 254.968421 
L 215.833476 254.306423 
L 218.63042 253.658586 
L 221.427364 253.011575 
L 224.224309 252.36245 
L 227.021253 251.715033 
L 229.818197 251.069451 
L 232.615141 250.422744 
L 235.412086 249.775522 
L 238.20903 249.129119 
L 241.005974 248.482849 
L 243.802918 247.835727 
L 246.599862 247.189351 
L 249.396807 246.539572 
L 252.193751 245.891839 
L 254.990695 245.241241 
L 257.787639 244.592428 
L 260.584584 243.946673 
L 263.381528 243.300504 
L 266.178472 242.653429 
L 268.975416 242.007727 
L 271.772361 241.361159 
L 274.569305 240.711558 
L 277.366249 240.062332 
L 280.163193 239.411161 
L 282.960138 238.766448 
L 285.757082 238.125347 
L 288.554026 237.483009 
L 291.35097 236.842588 
L 294.147914 236.202027 
L 296.944859 235.558393 
L 299.741803 234.917309 
L 302.538747 234.267669 
L 305.335691 233.635645 
L 308.132636 233.006806 
L 310.92958 232.376666 
L 313.726524 231.747994 
L 316.523468 231.125291 
L 319.320413 230.547425 
L 322.117357 230.019129 
L 324.914301 229.490376 
L 327.711245 228.956621 
L 330.508189 228.427058 
L 333.305134 227.899062 
L 336.102078 227.369814 
L 338.899022 226.820934 
L 341.695966 226.263202 
L 344.492911 225.732039 
L 347.289855 225.20349 
L 350.086799 224.674347 
L 352.883743 224.13642 
L 355.680688 223.610147 
L 358.477632 223.075371 
L 361.274576 222.547246 
L 364.07152 222.017511 
L 366.868464 221.490345 
L 369.665409 220.958183 
L 372.462353 220.431496 
L 375.259297 219.901677 
L 378.056241 219.373246 
L 380.853186 218.84157 
L 383.65013 218.312564 
L 386.447074 217.778238 
L 389.244018 217.247285 
L 392.040963 216.710911 
L 394.837907 216.187206 
L 397.634851 215.664223 
L 400.431795 215.134848 
L 403.228739 214.597253 
L 406.025684 214.058066 
L 408.822628 213.529408 
L 411.619572 213.004236 
L 414.416516 212.47507 
L 417.213461 211.949798 
L 420.010405 211.403422 
L 422.807349 210.875785 
L 425.604293 210.339347 
L 428.401238 209.801577 
L 431.198182 209.344103 
" clip-path="url(#p73b575d380)" style="fill: none; stroke: #c44e52; stroke-width: 3; stroke-linecap: round"/>
   </g>
   <g id="line2d_18">
    <path d="M 98.361818 281.530134 
L 101.158762 280.415906 
L 103.955707 279.301423 
L 106.752651 278.189475 
L 109.549595 277.076322 
L 112.346539 275.963362 
L 115.143484 274.851343 
L 117.940428 273.738427 
L 120.737372 272.626945 
L 123.534316 271.516157 
L 126.331261 270.405434 
L 129.128205 269.295145 
L 131.925149 268.185473 
L 134.722093 267.077315 
L 137.519037 265.970034 
L 140.315982 264.86346 
L 143.112926 263.757191 
L 145.90987 262.650525 
L 148.706814 261.544733 
L 151.503759 260.439826 
L 154.300703 259.334926 
L 157.097647 258.230541 
L 159.894591 257.125784 
L 162.691536 256.022206 
L 165.48848 254.919327 
L 168.285424 253.815839 
L 171.082368 252.713965 
L 173.879312 251.611493 
L 176.676257 250.510032 
L 179.473201 249.409865 
L 182.270145 248.309387 
L 185.067089 247.207071 
L 187.864034 246.107299 
L 190.660978 245.006744 
L 193.457922 243.907019 
L 196.254866 242.807306 
L 199.051811 241.708085 
L 201.848755 240.60848 
L 204.645699 239.51007 
L 207.442643 238.410655 
L 210.239587 237.312727 
L 213.036532 236.215259 
L 215.833476 235.116719 
L 218.63042 234.018667 
L 221.427364 232.920074 
L 224.224309 231.82173 
L 227.021253 230.72488 
L 229.818197 229.629036 
L 232.615141 228.532393 
L 235.412086 227.433052 
L 238.20903 226.339429 
L 241.005974 225.245892 
L 243.802918 224.152371 
L 246.599862 223.059434 
L 249.396807 221.967439 
L 252.193751 220.871328 
L 254.990695 219.780406 
L 257.787639 218.68951 
L 260.584584 217.598086 
L 263.381528 216.509011 
L 266.178472 215.420186 
L 268.975416 214.32991 
L 271.772361 213.241462 
L 274.569305 212.15366 
L 277.366249 211.067102 
L 280.163193 209.975649 
L 282.960138 208.888392 
L 285.757082 207.803423 
L 288.554026 206.715669 
L 291.35097 205.628896 
L 294.147914 204.542725 
L 296.944859 203.45447 
L 299.741803 202.360939 
L 302.538747 201.273379 
L 305.335691 200.174358 
L 308.132636 199.085391 
L 310.92958 197.997846 
L 313.726524 196.908293 
L 316.523468 195.813587 
L 319.320413 194.722918 
L 322.117357 193.630539 
L 324.914301 192.54532 
L 327.711245 191.466725 
L 330.508189 190.385142 
L 333.305134 189.273356 
L 336.102078 188.171863 
L 338.899022 187.043642 
L 341.695966 185.930385 
L 344.492911 184.824361 
L 347.289855 183.716049 
L 350.086799 182.613477 
L 352.883743 181.50259 
L 355.680688 180.399501 
L 358.477632 179.26238 
L 361.274576 178.139453 
L 364.07152 177.035752 
L 366.868464 175.931406 
L 369.665409 174.826758 
L 372.462353 173.706711 
L 375.259297 172.601143 
L 378.056241 171.474615 
L 380.853186 170.372262 
L 383.65013 169.272183 
L 386.447074 168.171996 
L 389.244018 167.075341 
L 392.040963 165.969075 
L 394.837907 164.863685 
L 397.634851 163.760629 
L 400.431795 162.663354 
L 403.228739 161.550937 
L 406.025684 160.452181 
L 408.822628 159.342037 
L 411.619572 158.239532 
L 414.416516 157.140938 
L 417.213461 156.029941 
L 420.010405 154.92996 
L 422.807349 153.830111 
L 425.604293 152.737451 
L 428.401238 151.640275 
L 431.198182 150.661809 
" clip-path="url(#p73b575d380)" style="fill: none; stroke: #8172b3; stroke-width: 3; stroke-linecap: round"/>
   </g>
   <g id="line2d_19">
    <path d="M 98.361818 280.465938 
L 101.158762 278.295752 
L 103.955707 276.135843 
L 106.752651 273.994635 
L 109.549595 271.840726 
L 112.346539 269.679676 
L 115.143484 267.520706 
L 117.940428 265.402873 
L 120.737372 263.501147 
L 123.534316 261.60404 
L 126.331261 259.706306 
L 129.128205 257.812461 
L 131.925149 255.915321 
L 134.722093 254.021665 
L 137.519037 252.129695 
L 140.315982 250.236479 
L 143.112926 248.344054 
L 145.90987 246.452567 
L 148.706814 244.564108 
L 151.503759 242.46175 
L 154.300703 240.466413 
L 157.097647 238.577197 
L 159.894591 236.6893 
L 162.691536 234.798564 
L 165.48848 232.822306 
L 168.285424 230.809693 
L 171.082368 228.922307 
L 173.879312 226.954064 
L 176.676257 224.846765 
L 179.473201 222.706323 
L 182.270145 220.600661 
L 185.067089 218.493578 
L 187.864034 216.384239 
L 190.660978 214.276644 
L 193.457922 212.172016 
L 196.254866 210.067457 
L 199.051811 207.961601 
L 201.848755 205.856347 
L 204.645699 203.750218 
L 207.442643 201.645482 
L 210.239587 199.539507 
L 213.036532 197.433881 
L 215.833476 195.329677 
L 218.63042 193.220183 
L 221.427364 191.116041 
L 224.224309 189.179775 
L 227.021253 187.297943 
L 229.818197 185.416083 
L 232.615141 183.535189 
L 235.412086 181.653867 
L 238.20903 179.77124 
L 241.005974 177.888539 
L 243.802918 176.005728 
L 246.599862 174.122105 
L 249.396807 172.239185 
L 252.193751 170.358619 
L 254.990695 168.474833 
L 257.787639 166.585787 
L 260.584584 164.703768 
L 263.381528 162.820748 
L 266.178472 160.928549 
L 268.975416 159.045301 
L 271.772361 157.151286 
L 274.569305 155.26834 
L 277.366249 153.38563 
L 280.163193 151.49535 
L 282.960138 149.591423 
L 285.757082 147.66769 
L 288.554026 145.77359 
L 291.35097 143.858581 
L 294.147914 141.838799 
L 296.944859 139.922867 
L 299.741803 137.994264 
L 302.538747 136.038429 
L 305.335691 134.153377 
L 308.132636 132.252974 
L 310.92958 130.285384 
L 313.726524 128.235421 
L 316.523468 126.088134 
L 319.320413 123.977203 
L 322.117357 121.843355 
L 324.914301 119.726776 
L 327.711245 117.836537 
L 330.508189 115.656846 
L 333.305134 113.721736 
L 336.102078 111.7673 
L 338.899022 109.87375 
L 341.695966 107.798408 
L 344.492911 105.81147 
L 347.289855 103.912924 
L 350.086799 102.01399 
L 352.883743 100.120377 
L 355.680688 98.110851 
L 358.477632 96.203803 
L 361.274576 94.303909 
L 364.07152 92.371853 
L 366.868464 90.497618 
L 369.665409 88.621669 
L 372.462353 86.72628 
L 375.259297 84.834957 
L 378.056241 82.960328 
L 380.853186 80.902016 
L 383.65013 78.735814 
L 386.447074 76.568981 
L 389.244018 74.345829 
L 392.040963 72.14896 
L 394.837907 69.893656 
L 397.634851 67.683041 
L 400.431795 65.474347 
L 403.228739 63.274567 
L 406.025684 61.080695 
L 408.822628 58.927612 
L 411.619572 56.74405 
L 414.416516 54.699597 
L 417.213461 52.581191 
L 420.010405 50.444568 
L 422.807349 48.503204 
L 425.604293 46.550983 
L 428.401238 44.442092 
L 431.198182 42.441191 
" clip-path="url(#p73b575d380)" style="fill: none; stroke: #937860; stroke-width: 3; stroke-linecap: round"/>
   </g>
   <g id="patch_3">
    <path d="M 81.72 294.66 
L 81.72 29.76 
" style="fill: none; stroke: #ffffff; stroke-width: 1.25; stroke-linejoin: miter; stroke-linecap: square"/>
   </g>
   <g id="patch_4">
    <path d="M 447.84 294.66 
L 447.84 29.76 
" style="fill: none; stroke: #ffffff; stroke-width: 1.25; stroke-linejoin: miter; stroke-linecap: square"/>
   </g>
   <g id="patch_5">
    <path d="M 81.72 294.66 
L 447.84 294.66 
" style="fill: none; stroke: #ffffff; stroke-width: 1.25; stroke-linejoin: miter; stroke-linecap: square"/>
   </g>
   <g id="patch_6">
    <path d="M 81.72 29.76 
L 447.84 29.76 
" style="fill: none; stroke: #ffffff; stroke-width: 1.25; stroke-linejoin: miter; stroke-linecap: square"/>
   </g>
   <g id="text_16">
    <!-- zinc-coating-v0 -->
    <g style="fill: #262626" transform="translate(211.421406 23.76)scale(0.14 -0.14)">
     <defs>
      <path id="DejaVuSans-7a" d="M 353 3500 
L 3084 3500 
L 3084 2975 
L 922 459 
L 3084 459 
L 3084 0 
L 275 0 
L 275 525 
L 2438 3041 
L 353 3041 
L 353 3500 
z
" transform="scale(0.015625)"/>
      <path id="DejaVuSans-63" d="M 3122 3366 
L 3122 2828 
Q 2878 2963 2633 3030 
Q 2388 3097 2138 3097 
Q 1578 3097 1268 2742 
Q 959 2388 959 1747 
Q 959 1106 1268 751 
Q 1578 397 2138 397 
Q 2388 397 2633 464 
Q 2878 531 3122 666 
L 3122 134 
Q 2881 22 2623 -34 
Q 2366 -91 2075 -91 
Q 1284 -91 818 406 
Q 353 903 353 1747 
Q 353 2603 823 3093 
Q 1294 3584 2113 3584 
Q 2378 3584 2631 3529 
Q 2884 3475 3122 3366 
z
" transform="scale(0.015625)"/>
      <path id="DejaVuSans-2d" d="M 313 2009 
L 1997 2009 
L 1997 1497 
L 313 1497 
L 313 2009 
z
" transform="scale(0.015625)"/>
      <path id="DejaVuSans-67" d="M 2906 1791 
Q 2906 2416 2648 2759 
Q 2391 3103 1925 3103 
Q 1463 3103 1205 2759 
Q 947 2416 947 1791 
Q 947 1169 1205 825 
Q 1463 481 1925 481 
Q 2391 481 2648 825 
Q 2906 1169 2906 1791 
z
M 3481 434 
Q 3481 -459 3084 -895 
Q 2688 -1331 1869 -1331 
Q 1566 -1331 1297 -1286 
Q 1028 -1241 775 -1147 
L 775 -588 
Q 1028 -725 1275 -790 
Q 1522 -856 1778 -856 
Q 2344 -856 2625 -561 
Q 2906 -266 2906 331 
L 2906 616 
Q 2728 306 2450 153 
Q 2172 0 1784 0 
Q 1141 0 747 490 
Q 353 981 353 1791 
Q 353 2603 747 3093 
Q 1141 3584 1784 3584 
Q 2172 3584 2450 3431 
Q 2728 3278 2906 2969 
L 2906 3500 
L 3481 3500 
L 3481 434 
z
" transform="scale(0.015625)"/>
      <path id="DejaVuSans-76" d="M 191 3500 
L 800 3500 
L 1894 563 
L 2988 3500 
L 3597 3500 
L 2284 0 
L 1503 0 
L 191 3500 
z
" transform="scale(0.015625)"/>
     </defs>
     <use xlink:href="#DejaVuSans-7a"/>
     <use xlink:href="#DejaVuSans-69" x="52.490234"/>
     <use xlink:href="#DejaVuSans-6e" x="80.273438"/>
     <use xlink:href="#DejaVuSans-63" x="143.652344"/>
     <use xlink:href="#DejaVuSans-2d" x="198.632812"/>
     <use xlink:href="#DejaVuSans-63" x="234.716797"/>
     <use xlink:href="#DejaVuSans-6f" x="289.697266"/>
     <use xlink:href="#DejaVuSans-61" x="350.878906"/>
     <use xlink:href="#DejaVuSans-74" x="412.158203"/>
     <use xlink:href="#DejaVuSans-69" x="451.367188"/>
     <use xlink:href="#DejaVuSans-6e" x="479.150391"/>
     <use xlink:href="#DejaVuSans-67" x="542.529297"/>
     <use xlink:href="#DejaVuSans-2d" x="606.005859"/>
     <use xlink:href="#DejaVuSans-76" x="639.464844"/>
     <use xlink:href="#DejaVuSans-30" x="698.644531"/>
    </g>
   </g>
   <g id="legend_1">
    <g id="patch_7">
     <path d="M 89.42 135.435625 
L 209.087969 135.435625 
Q 211.287969 135.435625 211.287969 133.235625 
L 211.287969 37.46 
Q 211.287969 35.26 209.087969 35.26 
L 89.42 35.26 
Q 87.22 35.26 87.22 37.46 
L 87.22 133.235625 
Q 87.22 135.435625 89.42 135.435625 
z
" style="fill: #eaeaf2; opacity: 0.8; stroke: #cccccc; stroke-linejoin: miter"/>
    </g>
    <g id="line2d_20">
     <path d="M 91.62 44.168281 
L 102.62 44.168281 
L 113.62 44.168281 
" style="fill: none; stroke: #4c72b0; stroke-width: 3; stroke-linecap: round"/>
    </g>
    <g id="text_17">
     <!-- SAC-DELAY-0 -->
     <g style="fill: #262626" transform="translate(122.42 48.018281)scale(0.11 -0.11)">
      <defs>
       <path id="DejaVuSans-53" d="M 3425 4513 
L 3425 3897 
Q 3066 4069 2747 4153 
Q 2428 4238 2131 4238 
Q 1616 4238 1336 4038 
Q 1056 3838 1056 3469 
Q 1056 3159 1242 3001 
Q 1428 2844 1947 2747 
L 2328 2669 
Q 3034 2534 3370 2195 
Q 3706 1856 3706 1288 
Q 3706 609 3251 259 
Q 2797 -91 1919 -91 
Q 1588 -91 1214 -16 
Q 841 59 441 206 
L 441 856 
Q 825 641 1194 531 
Q 1563 422 1919 422 
Q 2459 422 2753 634 
Q 3047 847 3047 1241 
Q 3047 1584 2836 1778 
Q 2625 1972 2144 2069 
L 1759 2144 
Q 1053 2284 737 2584 
Q 422 2884 422 3419 
Q 422 4038 858 4394 
Q 1294 4750 2059 4750 
Q 2388 4750 2728 4690 
Q 3069 4631 3425 4513 
z
" transform="scale(0.015625)"/>
       <path id="DejaVuSans-41" d="M 2188 4044 
L 1331 1722 
L 3047 1722 
L 2188 4044 
z
M 1831 4666 
L 2547 4666 
L 4325 0 
L 3669 0 
L 3244 1197 
L 1141 1197 
L 716 0 
L 50 0 
L 1831 4666 
z
" transform="scale(0.015625)"/>
       <path id="DejaVuSans-43" d="M 4122 4306 
L 4122 3641 
Q 3803 3938 3442 4084 
Q 3081 4231 2675 4231 
Q 1875 4231 1450 3742 
Q 1025 3253 1025 2328 
Q 1025 1406 1450 917 
Q 1875 428 2675 428 
Q 3081 428 3442 575 
Q 3803 722 4122 1019 
L 4122 359 
Q 3791 134 3420 21 
Q 3050 -91 2638 -91 
Q 1578 -91 968 557 
Q 359 1206 359 2328 
Q 359 3453 968 4101 
Q 1578 4750 2638 4750 
Q 3056 4750 3426 4639 
Q 3797 4528 4122 4306 
z
" transform="scale(0.015625)"/>
       <path id="DejaVuSans-44" d="M 1259 4147 
L 1259 519 
L 2022 519 
Q 2988 519 3436 956 
Q 3884 1394 3884 2338 
Q 3884 3275 3436 3711 
Q 2988 4147 2022 4147 
L 1259 4147 
z
M 628 4666 
L 1925 4666 
Q 3281 4666 3915 4102 
Q 4550 3538 4550 2338 
Q 4550 1131 3912 565 
Q 3275 0 1925 0 
L 628 0 
L 628 4666 
z
" transform="scale(0.015625)"/>
       <path id="DejaVuSans-45" d="M 628 4666 
L 3578 4666 
L 3578 4134 
L 1259 4134 
L 1259 2753 
L 3481 2753 
L 3481 2222 
L 1259 2222 
L 1259 531 
L 3634 531 
L 3634 0 
L 628 0 
L 628 4666 
z
" transform="scale(0.015625)"/>
       <path id="DejaVuSans-4c" d="M 628 4666 
L 1259 4666 
L 1259 531 
L 3531 531 
L 3531 0 
L 628 0 
L 628 4666 
z
" transform="scale(0.015625)"/>
       <path id="DejaVuSans-59" d="M -13 4666 
L 666 4666 
L 1959 2747 
L 3244 4666 
L 3922 4666 
L 2272 2222 
L 2272 0 
L 1638 0 
L 1638 2222 
L -13 4666 
z
" transform="scale(0.015625)"/>
      </defs>
      <use xlink:href="#DejaVuSans-53"/>
      <use xlink:href="#DejaVuSans-41" x="65.351562"/>
      <use xlink:href="#DejaVuSans-43" x="132.009766"/>
      <use xlink:href="#DejaVuSans-2d" x="201.833984"/>
      <use xlink:href="#DejaVuSans-44" x="237.917969"/>
      <use xlink:href="#DejaVuSans-45" x="314.919922"/>
      <use xlink:href="#DejaVuSans-4c" x="378.103516"/>
      <use xlink:href="#DejaVuSans-41" x="436.066406"/>
      <use xlink:href="#DejaVuSans-59" x="496.724609"/>
      <use xlink:href="#DejaVuSans-2d" x="545.933594"/>
      <use xlink:href="#DejaVuSans-30" x="582.017578"/>
     </g>
    </g>
    <g id="line2d_21">
     <path d="M 91.62 60.314219 
L 102.62 60.314219 
L 113.62 60.314219 
" style="fill: none; stroke: #dd8452; stroke-width: 3; stroke-linecap: round"/>
    </g>
    <g id="text_18">
     <!-- DATS-DELAY-0 -->
     <g style="fill: #262626" transform="translate(122.42 64.164219)scale(0.11 -0.11)">
      <use xlink:href="#DejaVuSans-44"/>
      <use xlink:href="#DejaVuSans-41" x="75.251953"/>
      <use xlink:href="#DejaVuSans-54" x="135.910156"/>
      <use xlink:href="#DejaVuSans-53" x="196.994141"/>
      <use xlink:href="#DejaVuSans-2d" x="260.470703"/>
      <use xlink:href="#DejaVuSans-44" x="296.554688"/>
      <use xlink:href="#DejaVuSans-45" x="373.556641"/>
      <use xlink:href="#DejaVuSans-4c" x="436.740234"/>
      <use xlink:href="#DejaVuSans-41" x="494.703125"/>
      <use xlink:href="#DejaVuSans-59" x="555.361328"/>
      <use xlink:href="#DejaVuSans-2d" x="604.570312"/>
      <use xlink:href="#DejaVuSans-30" x="640.654297"/>
     </g>
    </g>
    <g id="line2d_22">
     <path d="M 91.62 76.460156 
L 102.62 76.460156 
L 113.62 76.460156 
" style="fill: none; stroke: #55a868; stroke-width: 3; stroke-linecap: round"/>
    </g>
    <g id="text_19">
     <!-- DATS-DELAY-1 -->
     <g style="fill: #262626" transform="translate(122.42 80.310156)scale(0.11 -0.11)">
      <use xlink:href="#DejaVuSans-44"/>
      <use xlink:href="#DejaVuSans-41" x="75.251953"/>
      <use xlink:href="#DejaVuSans-54" x="135.910156"/>
      <use xlink:href="#DejaVuSans-53" x="196.994141"/>
      <use xlink:href="#DejaVuSans-2d" x="260.470703"/>
      <use xlink:href="#DejaVuSans-44" x="296.554688"/>
      <use xlink:href="#DejaVuSans-45" x="373.556641"/>
      <use xlink:href="#DejaVuSans-4c" x="436.740234"/>
      <use xlink:href="#DejaVuSans-41" x="494.703125"/>
      <use xlink:href="#DejaVuSans-59" x="555.361328"/>
      <use xlink:href="#DejaVuSans-2d" x="604.570312"/>
      <use xlink:href="#DejaVuSans-31" x="640.654297"/>
     </g>
    </g>
    <g id="line2d_23">
     <path d="M 91.62 92.606094 
L 102.62 92.606094 
L 113.62 92.606094 
" style="fill: none; stroke: #c44e52; stroke-width: 3; stroke-linecap: round"/>
    </g>
    <g id="text_20">
     <!-- DATS-DELAY-5 -->
     <g style="fill: #262626" transform="translate(122.42 96.456094)scale(0.11 -0.11)">
      <use xlink:href="#DejaVuSans-44"/>
      <use xlink:href="#DejaVuSans-41" x="75.251953"/>
      <use xlink:href="#DejaVuSans-54" x="135.910156"/>
      <use xlink:href="#DejaVuSans-53" x="196.994141"/>
      <use xlink:href="#DejaVuSans-2d" x="260.470703"/>
      <use xlink:href="#DejaVuSans-44" x="296.554688"/>
      <use xlink:href="#DejaVuSans-45" x="373.556641"/>
      <use xlink:href="#DejaVuSans-4c" x="436.740234"/>
      <use xlink:href="#DejaVuSans-41" x="494.703125"/>
      <use xlink:href="#DejaVuSans-59" x="555.361328"/>
      <use xlink:href="#DejaVuSans-2d" x="604.570312"/>
      <use xlink:href="#DejaVuSans-35" x="640.654297"/>
     </g>
    </g>
    <g id="line2d_24">
     <path d="M 91.62 108.752031 
L 102.62 108.752031 
L 113.62 108.752031 
" style="fill: none; stroke: #8172b3; stroke-width: 3; stroke-linecap: round"/>
    </g>
    <g id="text_21">
     <!-- DATS-DELAY-10 -->
     <g style="fill: #262626" transform="translate(122.42 112.602031)scale(0.11 -0.11)">
      <use xlink:href="#DejaVuSans-44"/>
      <use xlink:href="#DejaVuSans-41" x="75.251953"/>
      <use xlink:href="#DejaVuSans-54" x="135.910156"/>
      <use xlink:href="#DejaVuSans-53" x="196.994141"/>
      <use xlink:href="#DejaVuSans-2d" x="260.470703"/>
      <use xlink:href="#DejaVuSans-44" x="296.554688"/>
      <use xlink:href="#DejaVuSans-45" x="373.556641"/>
      <use xlink:href="#DejaVuSans-4c" x="436.740234"/>
      <use xlink:href="#DejaVuSans-41" x="494.703125"/>
      <use xlink:href="#DejaVuSans-59" x="555.361328"/>
      <use xlink:href="#DejaVuSans-2d" x="604.570312"/>
      <use xlink:href="#DejaVuSans-31" x="640.654297"/>
      <use xlink:href="#DejaVuSans-30" x="704.277344"/>
     </g>
    </g>
    <g id="line2d_25">
     <path d="M 91.62 124.897969 
L 102.62 124.897969 
L 113.62 124.897969 
" style="fill: none; stroke: #937860; stroke-width: 3; stroke-linecap: round"/>
    </g>
    <g id="text_22">
     <!-- DATS-DELAY-20 -->
     <g style="fill: #262626" transform="translate(122.42 128.747969)scale(0.11 -0.11)">
      <use xlink:href="#DejaVuSans-44"/>
      <use xlink:href="#DejaVuSans-41" x="75.251953"/>
      <use xlink:href="#DejaVuSans-54" x="135.910156"/>
      <use xlink:href="#DejaVuSans-53" x="196.994141"/>
      <use xlink:href="#DejaVuSans-2d" x="260.470703"/>
      <use xlink:href="#DejaVuSans-44" x="296.554688"/>
      <use xlink:href="#DejaVuSans-45" x="373.556641"/>
      <use xlink:href="#DejaVuSans-4c" x="436.740234"/>
      <use xlink:href="#DejaVuSans-41" x="494.703125"/>
      <use xlink:href="#DejaVuSans-59" x="555.361328"/>
      <use xlink:href="#DejaVuSans-2d" x="604.570312"/>
      <use xlink:href="#DejaVuSans-32" x="640.654297"/>
      <use xlink:href="#DejaVuSans-30" x="704.277344"/>
     </g>
    </g>
   </g>
  </g>
 </g>
 <defs>
  <clipPath id="p73b575d380">
   <rect x="81.72" y="29.76" width="366.12" height="264.9"/>
  </clipPath>
 </defs>
</svg>
