<?xml version="1.0" encoding="utf-8" standalone="no"?>
<!DOCTYPE svg PUBLIC "-//W3C//DTD SVG 1.1//EN"
  "http://www.w3.org/Graphics/SVG/1.1/DTD/svg11.dtd">
<svg xmlns:xlink="http://www.w3.org/1999/xlink" width="460.8pt" height="345.6pt" viewBox="0 0 460.8 345.6" xmlns="http://www.w3.org/2000/svg" version="1.1">
 <metadata>
  <rdf:RDF xmlns:dc="http://purl.org/dc/elements/1.1/" xmlns:cc="http://creativecommons.org/ns#" xmlns:rdf="http://www.w3.org/1999/02/22-rdf-syntax-ns#">
   <cc:Work>
    <dc:type rdf:resource="http://purl.org/dc/dcmitype/StillImage"/>
    <dc:date>2022-09-12T15:22:02.025498</dc:date>
    <dc:format>image/svg+xml</dc:format>
    <dc:creator>
     <cc:Agent>
      <dc:title>Matplotlib v3.5.3, https://matplotlib.org/</dc:title>
     </cc:Agent>
    </dc:creator>
   </cc:Work>
  </rdf:RDF>
 </metadata>
 <defs>
  <style type="text/css">*{stroke-linejoin: round; stroke-linecap: butt}</style>
 </defs>
 <g id="figure_1">
  <g id="patch_1">
   <path d="M 0 345.6 
L 460.8 345.6 
L 460.8 0 
L 0 0 
z
" style="fill: #ffffff"/>
  </g>
  <g id="axes_1">
   <g id="patch_2">
    <path d="M 67.95 294.66 
L 447.84 294.66 
L 447.84 12.96 
L 67.95 12.96 
z
" style="fill: #eaeaf2"/>
   </g>
   <g id="matplotlib.axis_1">
    <g id="xtick_1">
     <g id="line2d_1">
      <path d="M 82.315588 294.66 
L 82.315588 12.96 
" clip-path="url(#p68d9538483)" style="fill: none; stroke: #ffffff; stroke-linecap: round"/>
     </g>
     <g id="text_1">
      <!-- 0.00 -->
      <g style="fill: #262626" transform="translate(70.069494 312.518281)scale(0.11 -0.11)">
       <defs>
        <path id="DejaVuSans-30" d="M 2034 4250 
Q 1547 4250 1301 3770 
Q 1056 3291 1056 2328 
Q 1056 1369 1301 889 
Q 1547 409 2034 409 
Q 2525 409 2770 889 
Q 3016 1369 3016 2328 
Q 3016 3291 2770 3770 
Q 2525 4250 2034 4250 
z
M 2034 4750 
Q 2819 4750 3233 4129 
Q 3647 3509 3647 2328 
Q 3647 1150 3233 529 
Q 2819 -91 2034 -91 
Q 1250 -91 836 529 
Q 422 1150 422 2328 
Q 422 3509 836 4129 
Q 1250 4750 2034 4750 
z
" transform="scale(0.015625)"/>
        <path id="DejaVuSans-2e" d="M 684 794 
L 1344 794 
L 1344 0 
L 684 0 
L 684 794 
z
" transform="scale(0.015625)"/>
       </defs>
       <use xlink:href="#DejaVuSans-30"/>
       <use xlink:href="#DejaVuSans-2e" x="63.623047"/>
       <use xlink:href="#DejaVuSans-30" x="95.410156"/>
       <use xlink:href="#DejaVuSans-30" x="159.033203"/>
      </g>
     </g>
    </g>
    <g id="xtick_2">
     <g id="line2d_2">
      <path d="M 140.358369 294.66 
L 140.358369 12.96 
" clip-path="url(#p68d9538483)" style="fill: none; stroke: #ffffff; stroke-linecap: round"/>
     </g>
     <g id="text_2">
      <!-- 0.05 -->
      <g style="fill: #262626" transform="translate(128.112275 312.518281)scale(0.11 -0.11)">
       <defs>
        <path id="DejaVuSans-35" d="M 691 4666 
L 3169 4666 
L 3169 4134 
L 1269 4134 
L 1269 2991 
Q 1406 3038 1543 3061 
Q 1681 3084 1819 3084 
Q 2600 3084 3056 2656 
Q 3513 2228 3513 1497 
Q 3513 744 3044 326 
Q 2575 -91 1722 -91 
Q 1428 -91 1123 -41 
Q 819 9 494 109 
L 494 744 
Q 775 591 1075 516 
Q 1375 441 1709 441 
Q 2250 441 2565 725 
Q 2881 1009 2881 1497 
Q 2881 1984 2565 2268 
Q 2250 2553 1709 2553 
Q 1456 2553 1204 2497 
Q 953 2441 691 2322 
L 691 4666 
z
" transform="scale(0.015625)"/>
       </defs>
       <use xlink:href="#DejaVuSans-30"/>
       <use xlink:href="#DejaVuSans-2e" x="63.623047"/>
       <use xlink:href="#DejaVuSans-30" x="95.410156"/>
       <use xlink:href="#DejaVuSans-35" x="159.033203"/>
      </g>
     </g>
    </g>
    <g id="xtick_3">
     <g id="line2d_3">
      <path d="M 198.40115 294.66 
L 198.40115 12.96 
" clip-path="url(#p68d9538483)" style="fill: none; stroke: #ffffff; stroke-linecap: round"/>
     </g>
     <g id="text_3">
      <!-- 0.10 -->
      <g style="fill: #262626" transform="translate(186.155056 312.518281)scale(0.11 -0.11)">
       <defs>
        <path id="DejaVuSans-31" d="M 794 531 
L 1825 531 
L 1825 4091 
L 703 3866 
L 703 4441 
L 1819 4666 
L 2450 4666 
L 2450 531 
L 3481 531 
L 3481 0 
L 794 0 
L 794 531 
z
" transform="scale(0.015625)"/>
       </defs>
       <use xlink:href="#DejaVuSans-30"/>
       <use xlink:href="#DejaVuSans-2e" x="63.623047"/>
       <use xlink:href="#DejaVuSans-31" x="95.410156"/>
       <use xlink:href="#DejaVuSans-30" x="159.033203"/>
      </g>
     </g>
    </g>
    <g id="xtick_4">
     <g id="line2d_4">
      <path d="M 256.44393 294.66 
L 256.44393 12.96 
" clip-path="url(#p68d9538483)" style="fill: none; stroke: #ffffff; stroke-linecap: round"/>
     </g>
     <g id="text_4">
      <!-- 0.15 -->
      <g style="fill: #262626" transform="translate(244.197837 312.518281)scale(0.11 -0.11)">
       <use xlink:href="#DejaVuSans-30"/>
       <use xlink:href="#DejaVuSans-2e" x="63.623047"/>
       <use xlink:href="#DejaVuSans-31" x="95.410156"/>
       <use xlink:href="#DejaVuSans-35" x="159.033203"/>
      </g>
     </g>
    </g>
    <g id="xtick_5">
     <g id="line2d_5">
      <path d="M 314.486711 294.66 
L 314.486711 12.96 
" clip-path="url(#p68d9538483)" style="fill: none; stroke: #ffffff; stroke-linecap: round"/>
     </g>
     <g id="text_5">
      <!-- 0.20 -->
      <g style="fill: #262626" transform="translate(302.240617 312.518281)scale(0.11 -0.11)">
       <defs>
        <path id="DejaVuSans-32" d="M 1228 531 
L 3431 531 
L 3431 0 
L 469 0 
L 469 531 
Q 828 903 1448 1529 
Q 2069 2156 2228 2338 
Q 2531 2678 2651 2914 
Q 2772 3150 2772 3378 
Q 2772 3750 2511 3984 
Q 2250 4219 1831 4219 
Q 1534 4219 1204 4116 
Q 875 4013 500 3803 
L 500 4441 
Q 881 4594 1212 4672 
Q 1544 4750 1819 4750 
Q 2544 4750 2975 4387 
Q 3406 4025 3406 3419 
Q 3406 3131 3298 2873 
Q 3191 2616 2906 2266 
Q 2828 2175 2409 1742 
Q 1991 1309 1228 531 
z
" transform="scale(0.015625)"/>
       </defs>
       <use xlink:href="#DejaVuSans-30"/>
       <use xlink:href="#DejaVuSans-2e" x="63.623047"/>
       <use xlink:href="#DejaVuSans-32" x="95.410156"/>
       <use xlink:href="#DejaVuSans-30" x="159.033203"/>
      </g>
     </g>
    </g>
    <g id="xtick_6">
     <g id="line2d_6">
      <path d="M 372.529492 294.66 
L 372.529492 12.96 
" clip-path="url(#p68d9538483)" style="fill: none; stroke: #ffffff; stroke-linecap: round"/>
     </g>
     <g id="text_6">
      <!-- 0.25 -->
      <g style="fill: #262626" transform="translate(360.283398 312.518281)scale(0.11 -0.11)">
       <use xlink:href="#DejaVuSans-30"/>
       <use xlink:href="#DejaVuSans-2e" x="63.623047"/>
       <use xlink:href="#DejaVuSans-32" x="95.410156"/>
       <use xlink:href="#DejaVuSans-35" x="159.033203"/>
      </g>
     </g>
    </g>
    <g id="xtick_7">
     <g id="line2d_7">
      <path d="M 430.572273 294.66 
L 430.572273 12.96 
" clip-path="url(#p68d9538483)" style="fill: none; stroke: #ffffff; stroke-linecap: round"/>
     </g>
     <g id="text_7">
      <!-- 0.30 -->
      <g style="fill: #262626" transform="translate(418.326179 312.518281)scale(0.11 -0.11)">
       <defs>
        <path id="DejaVuSans-33" d="M 2597 2516 
Q 3050 2419 3304 2112 
Q 3559 1806 3559 1356 
Q 3559 666 3084 287 
Q 2609 -91 1734 -91 
Q 1441 -91 1130 -33 
Q 819 25 488 141 
L 488 750 
Q 750 597 1062 519 
Q 1375 441 1716 441 
Q 2309 441 2620 675 
Q 2931 909 2931 1356 
Q 2931 1769 2642 2001 
Q 2353 2234 1838 2234 
L 1294 2234 
L 1294 2753 
L 1863 2753 
Q 2328 2753 2575 2939 
Q 2822 3125 2822 3475 
Q 2822 3834 2567 4026 
Q 2313 4219 1838 4219 
Q 1578 4219 1281 4162 
Q 984 4106 628 3988 
L 628 4550 
Q 988 4650 1302 4700 
Q 1616 4750 1894 4750 
Q 2613 4750 3031 4423 
Q 3450 4097 3450 3541 
Q 3450 3153 3228 2886 
Q 3006 2619 2597 2516 
z
" transform="scale(0.015625)"/>
       </defs>
       <use xlink:href="#DejaVuSans-30"/>
       <use xlink:href="#DejaVuSans-2e" x="63.623047"/>
       <use xlink:href="#DejaVuSans-33" x="95.410156"/>
       <use xlink:href="#DejaVuSans-30" x="159.033203"/>
      </g>
     </g>
    </g>
    <g id="text_8">
     <!-- Zeitschritte (in Millionen) -->
     <g style="fill: #262626" transform="translate(169.980469 329.44375)scale(0.14 -0.14)">
      <defs>
       <path id="DejaVuSans-5a" d="M 359 4666 
L 4025 4666 
L 4025 4184 
L 1075 531 
L 4097 531 
L 4097 0 
L 288 0 
L 288 481 
L 3238 4134 
L 359 4134 
L 359 4666 
z
" transform="scale(0.015625)"/>
       <path id="DejaVuSans-65" d="M 3597 1894 
L 3597 1613 
L 953 1613 
Q 991 1019 1311 708 
Q 1631 397 2203 397 
Q 2534 397 2845 478 
Q 3156 559 3463 722 
L 3463 178 
Q 3153 47 2828 -22 
Q 2503 -91 2169 -91 
Q 1331 -91 842 396 
Q 353 884 353 1716 
Q 353 2575 817 3079 
Q 1281 3584 2069 3584 
Q 2775 3584 3186 3129 
Q 3597 2675 3597 1894 
z
M 3022 2063 
Q 3016 2534 2758 2815 
Q 2500 3097 2075 3097 
Q 1594 3097 1305 2825 
Q 1016 2553 972 2059 
L 3022 2063 
z
" transform="scale(0.015625)"/>
       <path id="DejaVuSans-69" d="M 603 3500 
L 1178 3500 
L 1178 0 
L 603 0 
L 603 3500 
z
M 603 4863 
L 1178 4863 
L 1178 4134 
L 603 4134 
L 603 4863 
z
" transform="scale(0.015625)"/>
       <path id="DejaVuSans-74" d="M 1172 4494 
L 1172 3500 
L 2356 3500 
L 2356 3053 
L 1172 3053 
L 1172 1153 
Q 1172 725 1289 603 
Q 1406 481 1766 481 
L 2356 481 
L 2356 0 
L 1766 0 
Q 1100 0 847 248 
Q 594 497 594 1153 
L 594 3053 
L 172 3053 
L 172 3500 
L 594 3500 
L 594 4494 
L 1172 4494 
z
" transform="scale(0.015625)"/>
       <path id="DejaVuSans-73" d="M 2834 3397 
L 2834 2853 
Q 2591 2978 2328 3040 
Q 2066 3103 1784 3103 
Q 1356 3103 1142 2972 
Q 928 2841 928 2578 
Q 928 2378 1081 2264 
Q 1234 2150 1697 2047 
L 1894 2003 
Q 2506 1872 2764 1633 
Q 3022 1394 3022 966 
Q 3022 478 2636 193 
Q 2250 -91 1575 -91 
Q 1294 -91 989 -36 
Q 684 19 347 128 
L 347 722 
Q 666 556 975 473 
Q 1284 391 1588 391 
Q 1994 391 2212 530 
Q 2431 669 2431 922 
Q 2431 1156 2273 1281 
Q 2116 1406 1581 1522 
L 1381 1569 
Q 847 1681 609 1914 
Q 372 2147 372 2553 
Q 372 3047 722 3315 
Q 1072 3584 1716 3584 
Q 2034 3584 2315 3537 
Q 2597 3491 2834 3397 
z
" transform="scale(0.015625)"/>
       <path id="DejaVuSans-63" d="M 3122 3366 
L 3122 2828 
Q 2878 2963 2633 3030 
Q 2388 3097 2138 3097 
Q 1578 3097 1268 2742 
Q 959 2388 959 1747 
Q 959 1106 1268 751 
Q 1578 397 2138 397 
Q 2388 397 2633 464 
Q 2878 531 3122 666 
L 3122 134 
Q 2881 22 2623 -34 
Q 2366 -91 2075 -91 
Q 1284 -91 818 406 
Q 353 903 353 1747 
Q 353 2603 823 3093 
Q 1294 3584 2113 3584 
Q 2378 3584 2631 3529 
Q 2884 3475 3122 3366 
z
" transform="scale(0.015625)"/>
       <path id="DejaVuSans-68" d="M 3513 2113 
L 3513 0 
L 2938 0 
L 2938 2094 
Q 2938 2591 2744 2837 
Q 2550 3084 2163 3084 
Q 1697 3084 1428 2787 
Q 1159 2491 1159 1978 
L 1159 0 
L 581 0 
L 581 4863 
L 1159 4863 
L 1159 2956 
Q 1366 3272 1645 3428 
Q 1925 3584 2291 3584 
Q 2894 3584 3203 3211 
Q 3513 2838 3513 2113 
z
" transform="scale(0.015625)"/>
       <path id="DejaVuSans-72" d="M 2631 2963 
Q 2534 3019 2420 3045 
Q 2306 3072 2169 3072 
Q 1681 3072 1420 2755 
Q 1159 2438 1159 1844 
L 1159 0 
L 581 0 
L 581 3500 
L 1159 3500 
L 1159 2956 
Q 1341 3275 1631 3429 
Q 1922 3584 2338 3584 
Q 2397 3584 2469 3576 
Q 2541 3569 2628 3553 
L 2631 2963 
z
" transform="scale(0.015625)"/>
       <path id="DejaVuSans-20" transform="scale(0.015625)"/>
       <path id="DejaVuSans-28" d="M 1984 4856 
Q 1566 4138 1362 3434 
Q 1159 2731 1159 2009 
Q 1159 1288 1364 580 
Q 1569 -128 1984 -844 
L 1484 -844 
Q 1016 -109 783 600 
Q 550 1309 550 2009 
Q 550 2706 781 3412 
Q 1013 4119 1484 4856 
L 1984 4856 
z
" transform="scale(0.015625)"/>
       <path id="DejaVuSans-6e" d="M 3513 2113 
L 3513 0 
L 2938 0 
L 2938 2094 
Q 2938 2591 2744 2837 
Q 2550 3084 2163 3084 
Q 1697 3084 1428 2787 
Q 1159 2491 1159 1978 
L 1159 0 
L 581 0 
L 581 3500 
L 1159 3500 
L 1159 2956 
Q 1366 3272 1645 3428 
Q 1925 3584 2291 3584 
Q 2894 3584 3203 3211 
Q 3513 2838 3513 2113 
z
" transform="scale(0.015625)"/>
       <path id="DejaVuSans-4d" d="M 628 4666 
L 1569 4666 
L 2759 1491 
L 3956 4666 
L 4897 4666 
L 4897 0 
L 4281 0 
L 4281 4097 
L 3078 897 
L 2444 897 
L 1241 4097 
L 1241 0 
L 628 0 
L 628 4666 
z
" transform="scale(0.015625)"/>
       <path id="DejaVuSans-6c" d="M 603 4863 
L 1178 4863 
L 1178 0 
L 603 0 
L 603 4863 
z
" transform="scale(0.015625)"/>
       <path id="DejaVuSans-6f" d="M 1959 3097 
Q 1497 3097 1228 2736 
Q 959 2375 959 1747 
Q 959 1119 1226 758 
Q 1494 397 1959 397 
Q 2419 397 2687 759 
Q 2956 1122 2956 1747 
Q 2956 2369 2687 2733 
Q 2419 3097 1959 3097 
z
M 1959 3584 
Q 2709 3584 3137 3096 
Q 3566 2609 3566 1747 
Q 3566 888 3137 398 
Q 2709 -91 1959 -91 
Q 1206 -91 779 398 
Q 353 888 353 1747 
Q 353 2609 779 3096 
Q 1206 3584 1959 3584 
z
" transform="scale(0.015625)"/>
       <path id="DejaVuSans-29" d="M 513 4856 
L 1013 4856 
Q 1481 4119 1714 3412 
Q 1947 2706 1947 2009 
Q 1947 1309 1714 600 
Q 1481 -109 1013 -844 
L 513 -844 
Q 928 -128 1133 580 
Q 1338 1288 1338 2009 
Q 1338 2731 1133 3434 
Q 928 4138 513 4856 
z
" transform="scale(0.015625)"/>
      </defs>
      <use xlink:href="#DejaVuSans-5a"/>
      <use xlink:href="#DejaVuSans-65" x="68.505859"/>
      <use xlink:href="#DejaVuSans-69" x="130.029297"/>
      <use xlink:href="#DejaVuSans-74" x="157.8125"/>
      <use xlink:href="#DejaVuSans-73" x="197.021484"/>
      <use xlink:href="#DejaVuSans-63" x="249.121094"/>
      <use xlink:href="#DejaVuSans-68" x="304.101562"/>
      <use xlink:href="#DejaVuSans-72" x="367.480469"/>
      <use xlink:href="#DejaVuSans-69" x="408.59375"/>
      <use xlink:href="#DejaVuSans-74" x="436.376953"/>
      <use xlink:href="#DejaVuSans-74" x="475.585938"/>
      <use xlink:href="#DejaVuSans-65" x="514.794922"/>
      <use xlink:href="#DejaVuSans-20" x="576.318359"/>
      <use xlink:href="#DejaVuSans-28" x="608.105469"/>
      <use xlink:href="#DejaVuSans-69" x="647.119141"/>
      <use xlink:href="#DejaVuSans-6e" x="674.902344"/>
      <use xlink:href="#DejaVuSans-20" x="738.28125"/>
      <use xlink:href="#DejaVuSans-4d" x="770.068359"/>
      <use xlink:href="#DejaVuSans-69" x="856.347656"/>
      <use xlink:href="#DejaVuSans-6c" x="884.130859"/>
      <use xlink:href="#DejaVuSans-6c" x="911.914062"/>
      <use xlink:href="#DejaVuSans-69" x="939.697266"/>
      <use xlink:href="#DejaVuSans-6f" x="967.480469"/>
      <use xlink:href="#DejaVuSans-6e" x="1028.662109"/>
      <use xlink:href="#DejaVuSans-65" x="1092.041016"/>
      <use xlink:href="#DejaVuSans-6e" x="1153.564453"/>
      <use xlink:href="#DejaVuSans-29" x="1216.943359"/>
     </g>
    </g>
   </g>
   <g id="matplotlib.axis_2">
    <g id="ytick_1">
     <g id="line2d_8">
      <path d="M 67.95 281.908841 
L 447.84 281.908841 
" clip-path="url(#p68d9538483)" style="fill: none; stroke: #ffffff; stroke-linecap: round"/>
     </g>
     <g id="text_9">
      <!-- 0 -->
      <g style="fill: #262626" transform="translate(51.45125 286.087981)scale(0.11 -0.11)">
       <use xlink:href="#DejaVuSans-30"/>
      </g>
     </g>
    </g>
    <g id="ytick_2">
     <g id="line2d_9">
      <path d="M 67.95 238.62193 
L 447.84 238.62193 
" clip-path="url(#p68d9538483)" style="fill: none; stroke: #ffffff; stroke-linecap: round"/>
     </g>
     <g id="text_10">
      <!-- 1000 -->
      <g style="fill: #262626" transform="translate(30.455 242.801071)scale(0.11 -0.11)">
       <use xlink:href="#DejaVuSans-31"/>
       <use xlink:href="#DejaVuSans-30" x="63.623047"/>
       <use xlink:href="#DejaVuSans-30" x="127.246094"/>
       <use xlink:href="#DejaVuSans-30" x="190.869141"/>
      </g>
     </g>
    </g>
    <g id="ytick_3">
     <g id="line2d_10">
      <path d="M 67.95 195.335019 
L 447.84 195.335019 
" clip-path="url(#p68d9538483)" style="fill: none; stroke: #ffffff; stroke-linecap: round"/>
     </g>
     <g id="text_11">
      <!-- 2000 -->
      <g style="fill: #262626" transform="translate(30.455 199.51416)scale(0.11 -0.11)">
       <use xlink:href="#DejaVuSans-32"/>
       <use xlink:href="#DejaVuSans-30" x="63.623047"/>
       <use xlink:href="#DejaVuSans-30" x="127.246094"/>
       <use xlink:href="#DejaVuSans-30" x="190.869141"/>
      </g>
     </g>
    </g>
    <g id="ytick_4">
     <g id="line2d_11">
      <path d="M 67.95 152.048108 
L 447.84 152.048108 
" clip-path="url(#p68d9538483)" style="fill: none; stroke: #ffffff; stroke-linecap: round"/>
     </g>
     <g id="text_12">
      <!-- 3000 -->
      <g style="fill: #262626" transform="translate(30.455 156.227249)scale(0.11 -0.11)">
       <use xlink:href="#DejaVuSans-33"/>
       <use xlink:href="#DejaVuSans-30" x="63.623047"/>
       <use xlink:href="#DejaVuSans-30" x="127.246094"/>
       <use xlink:href="#DejaVuSans-30" x="190.869141"/>
      </g>
     </g>
    </g>
    <g id="ytick_5">
     <g id="line2d_12">
      <path d="M 67.95 108.761197 
L 447.84 108.761197 
" clip-path="url(#p68d9538483)" style="fill: none; stroke: #ffffff; stroke-linecap: round"/>
     </g>
     <g id="text_13">
      <!-- 4000 -->
      <g style="fill: #262626" transform="translate(30.455 112.940338)scale(0.11 -0.11)">
       <defs>
        <path id="DejaVuSans-34" d="M 2419 4116 
L 825 1625 
L 2419 1625 
L 2419 4116 
z
M 2253 4666 
L 3047 4666 
L 3047 1625 
L 3713 1625 
L 3713 1100 
L 3047 1100 
L 3047 0 
L 2419 0 
L 2419 1100 
L 313 1100 
L 313 1709 
L 2253 4666 
z
" transform="scale(0.015625)"/>
       </defs>
       <use xlink:href="#DejaVuSans-34"/>
       <use xlink:href="#DejaVuSans-30" x="63.623047"/>
       <use xlink:href="#DejaVuSans-30" x="127.246094"/>
       <use xlink:href="#DejaVuSans-30" x="190.869141"/>
      </g>
     </g>
    </g>
    <g id="ytick_6">
     <g id="line2d_13">
      <path d="M 67.95 65.474286 
L 447.84 65.474286 
" clip-path="url(#p68d9538483)" style="fill: none; stroke: #ffffff; stroke-linecap: round"/>
     </g>
     <g id="text_14">
      <!-- 5000 -->
      <g style="fill: #262626" transform="translate(30.455 69.653427)scale(0.11 -0.11)">
       <use xlink:href="#DejaVuSans-35"/>
       <use xlink:href="#DejaVuSans-30" x="63.623047"/>
       <use xlink:href="#DejaVuSans-30" x="127.246094"/>
       <use xlink:href="#DejaVuSans-30" x="190.869141"/>
      </g>
     </g>
    </g>
    <g id="ytick_7">
     <g id="line2d_14">
      <path d="M 67.95 22.187375 
L 447.84 22.187375 
" clip-path="url(#p68d9538483)" style="fill: none; stroke: #ffffff; stroke-linecap: round"/>
     </g>
     <g id="text_15">
      <!-- 6000 -->
      <g style="fill: #262626" transform="translate(30.455 26.366516)scale(0.11 -0.11)">
       <defs>
        <path id="DejaVuSans-36" d="M 2113 2584 
Q 1688 2584 1439 2293 
Q 1191 2003 1191 1497 
Q 1191 994 1439 701 
Q 1688 409 2113 409 
Q 2538 409 2786 701 
Q 3034 994 3034 1497 
Q 3034 2003 2786 2293 
Q 2538 2584 2113 2584 
z
M 3366 4563 
L 3366 3988 
Q 3128 4100 2886 4159 
Q 2644 4219 2406 4219 
Q 1781 4219 1451 3797 
Q 1122 3375 1075 2522 
Q 1259 2794 1537 2939 
Q 1816 3084 2150 3084 
Q 2853 3084 3261 2657 
Q 3669 2231 3669 1497 
Q 3669 778 3244 343 
Q 2819 -91 2113 -91 
Q 1303 -91 875 529 
Q 447 1150 447 2328 
Q 447 3434 972 4092 
Q 1497 4750 2381 4750 
Q 2619 4750 2861 4703 
Q 3103 4656 3366 4563 
z
" transform="scale(0.015625)"/>
       </defs>
       <use xlink:href="#DejaVuSans-36"/>
       <use xlink:href="#DejaVuSans-30" x="63.623047"/>
       <use xlink:href="#DejaVuSans-30" x="127.246094"/>
       <use xlink:href="#DejaVuSans-30" x="190.869141"/>
      </g>
     </g>
    </g>
    <g id="text_16">
     <!-- Trainingszeit (in Minuten) -->
     <g style="fill: #262626" transform="translate(23.543437 242.379688)rotate(-90)scale(0.14 -0.14)">
      <defs>
       <path id="DejaVuSans-54" d="M -19 4666 
L 3928 4666 
L 3928 4134 
L 2272 4134 
L 2272 0 
L 1638 0 
L 1638 4134 
L -19 4134 
L -19 4666 
z
" transform="scale(0.015625)"/>
       <path id="DejaVuSans-61" d="M 2194 1759 
Q 1497 1759 1228 1600 
Q 959 1441 959 1056 
Q 959 750 1161 570 
Q 1363 391 1709 391 
Q 2188 391 2477 730 
Q 2766 1069 2766 1631 
L 2766 1759 
L 2194 1759 
z
M 3341 1997 
L 3341 0 
L 2766 0 
L 2766 531 
Q 2569 213 2275 61 
Q 1981 -91 1556 -91 
Q 1019 -91 701 211 
Q 384 513 384 1019 
Q 384 1609 779 1909 
Q 1175 2209 1959 2209 
L 2766 2209 
L 2766 2266 
Q 2766 2663 2505 2880 
Q 2244 3097 1772 3097 
Q 1472 3097 1187 3025 
Q 903 2953 641 2809 
L 641 3341 
Q 956 3463 1253 3523 
Q 1550 3584 1831 3584 
Q 2591 3584 2966 3190 
Q 3341 2797 3341 1997 
z
" transform="scale(0.015625)"/>
       <path id="DejaVuSans-67" d="M 2906 1791 
Q 2906 2416 2648 2759 
Q 2391 3103 1925 3103 
Q 1463 3103 1205 2759 
Q 947 2416 947 1791 
Q 947 1169 1205 825 
Q 1463 481 1925 481 
Q 2391 481 2648 825 
Q 2906 1169 2906 1791 
z
M 3481 434 
Q 3481 -459 3084 -895 
Q 2688 -1331 1869 -1331 
Q 1566 -1331 1297 -1286 
Q 1028 -1241 775 -1147 
L 775 -588 
Q 1028 -725 1275 -790 
Q 1522 -856 1778 -856 
Q 2344 -856 2625 -561 
Q 2906 -266 2906 331 
L 2906 616 
Q 2728 306 2450 153 
Q 2172 0 1784 0 
Q 1141 0 747 490 
Q 353 981 353 1791 
Q 353 2603 747 3093 
Q 1141 3584 1784 3584 
Q 2172 3584 2450 3431 
Q 2728 3278 2906 2969 
L 2906 3500 
L 3481 3500 
L 3481 434 
z
" transform="scale(0.015625)"/>
       <path id="DejaVuSans-7a" d="M 353 3500 
L 3084 3500 
L 3084 2975 
L 922 459 
L 3084 459 
L 3084 0 
L 275 0 
L 275 525 
L 2438 3041 
L 353 3041 
L 353 3500 
z
" transform="scale(0.015625)"/>
       <path id="DejaVuSans-75" d="M 544 1381 
L 544 3500 
L 1119 3500 
L 1119 1403 
Q 1119 906 1312 657 
Q 1506 409 1894 409 
Q 2359 409 2629 706 
Q 2900 1003 2900 1516 
L 2900 3500 
L 3475 3500 
L 3475 0 
L 2900 0 
L 2900 538 
Q 2691 219 2414 64 
Q 2138 -91 1772 -91 
Q 1169 -91 856 284 
Q 544 659 544 1381 
z
M 1991 3584 
L 1991 3584 
z
" transform="scale(0.015625)"/>
      </defs>
      <use xlink:href="#DejaVuSans-54"/>
      <use xlink:href="#DejaVuSans-72" x="46.333984"/>
      <use xlink:href="#DejaVuSans-61" x="87.447266"/>
      <use xlink:href="#DejaVuSans-69" x="148.726562"/>
      <use xlink:href="#DejaVuSans-6e" x="176.509766"/>
      <use xlink:href="#DejaVuSans-69" x="239.888672"/>
      <use xlink:href="#DejaVuSans-6e" x="267.671875"/>
      <use xlink:href="#DejaVuSans-67" x="331.050781"/>
      <use xlink:href="#DejaVuSans-73" x="394.527344"/>
      <use xlink:href="#DejaVuSans-7a" x="446.626953"/>
      <use xlink:href="#DejaVuSans-65" x="499.117188"/>
      <use xlink:href="#DejaVuSans-69" x="560.640625"/>
      <use xlink:href="#DejaVuSans-74" x="588.423828"/>
      <use xlink:href="#DejaVuSans-20" x="627.632812"/>
      <use xlink:href="#DejaVuSans-28" x="659.419922"/>
      <use xlink:href="#DejaVuSans-69" x="698.433594"/>
      <use xlink:href="#DejaVuSans-6e" x="726.216797"/>
      <use xlink:href="#DejaVuSans-20" x="789.595703"/>
      <use xlink:href="#DejaVuSans-4d" x="821.382812"/>
      <use xlink:href="#DejaVuSans-69" x="907.662109"/>
      <use xlink:href="#DejaVuSans-6e" x="935.445312"/>
      <use xlink:href="#DejaVuSans-75" x="998.824219"/>
      <use xlink:href="#DejaVuSans-74" x="1062.203125"/>
      <use xlink:href="#DejaVuSans-65" x="1101.412109"/>
      <use xlink:href="#DejaVuSans-6e" x="1162.935547"/>
      <use xlink:href="#DejaVuSans-29" x="1226.314453"/>
     </g>
    </g>
   </g>
   <g id="PolyCollection_1">
    <defs>
     <path id="m9d112e8135" d="M 85.217727 -63.744545 
L 85.217727 -63.74771 
L 88.119866 -63.811831 
L 91.022005 -63.878678 
L 93.924144 -63.942377 
L 96.826283 -64.305043 
L 99.728422 -64.667346 
L 102.630561 -65.02507 
L 105.532701 -65.381812 
L 108.43484 -65.741381 
L 111.336979 -66.099212 
L 114.239118 -66.463575 
L 117.141257 -66.818225 
L 120.043396 -67.170609 
L 122.945535 -67.530303 
L 125.847674 -67.896635 
L 128.749813 -68.263431 
L 131.651952 -68.623156 
L 134.554091 -68.982799 
L 137.45623 -69.343147 
L 140.358369 -69.703592 
L 143.260508 -70.073095 
L 146.162647 -70.437567 
L 149.064786 -70.790946 
L 151.966925 -71.144211 
L 154.869064 -71.497733 
L 157.771203 -71.858166 
L 160.673342 -72.220782 
L 163.575481 -72.584549 
L 166.47762 -72.945118 
L 169.379759 -73.315266 
L 172.281898 -73.677924 
L 175.184037 -74.037201 
L 178.086176 -74.40474 
L 180.988316 -74.777605 
L 183.890455 -75.149634 
L 186.792594 -75.512733 
L 189.694733 -75.862442 
L 192.596872 -76.228444 
L 195.499011 -76.59951 
L 198.40115 -76.971681 
L 201.303289 -77.330934 
L 204.205428 -77.692257 
L 207.107567 -78.058317 
L 210.009706 -78.427367 
L 212.911845 -78.792299 
L 215.813984 -79.15221 
L 218.716123 -79.512004 
L 221.618262 -79.874354 
L 224.520401 -80.242123 
L 227.42254 -80.602575 
L 230.324679 -80.958307 
L 233.226818 -81.314276 
L 236.128957 -81.670166 
L 239.031096 -82.031448 
L 241.933235 -82.393904 
L 244.835374 -82.753806 
L 247.737513 -83.115352 
L 250.639652 -83.472626 
L 253.541791 -83.846883 
L 256.44393 -84.206754 
L 259.34607 -84.563962 
L 262.248209 -84.918168 
L 265.150348 -85.277182 
L 268.052487 -85.639495 
L 270.954626 -85.994814 
L 273.856765 -86.35423 
L 276.758904 -86.715146 
L 279.661043 -87.080119 
L 282.563182 -87.441153 
L 285.465321 -87.802233 
L 288.36746 -88.175801 
L 291.269599 -88.538002 
L 294.171738 -88.901751 
L 297.073877 -89.26032 
L 299.976016 -89.618634 
L 302.878155 -89.985132 
L 305.780294 -90.344298 
L 308.682433 -90.700264 
L 311.584572 -91.054079 
L 314.486711 -91.413534 
L 317.38885 -91.774205 
L 320.290989 -92.125857 
L 323.193128 -92.485397 
L 326.095267 -92.841866 
L 328.997406 -93.188025 
L 331.899545 -93.53867 
L 334.801684 -93.891329 
L 337.703824 -94.254715 
L 340.605963 -94.605602 
L 343.508102 -94.958815 
L 346.410241 -95.320013 
L 349.31238 -95.676447 
L 352.214519 -96.027274 
L 355.116658 -96.380221 
L 358.018797 -96.74155 
L 360.920936 -97.095616 
L 363.823075 -97.456719 
L 366.725214 -97.810019 
L 369.627353 -98.159179 
L 372.529492 -98.506749 
L 375.431631 -98.864429 
L 378.33377 -99.22112 
L 381.235909 -99.581357 
L 384.138048 -99.941323 
L 387.040187 -100.294033 
L 389.942326 -100.641918 
L 392.844465 -101.000437 
L 395.746604 -101.358787 
L 398.648743 -101.706982 
L 401.550882 -102.059579 
L 404.453021 -102.405246 
L 407.35516 -102.76607 
L 410.257299 -103.118935 
L 413.159439 -103.472857 
L 416.061578 -103.825264 
L 418.963717 -104.181293 
L 421.865856 -104.527567 
L 424.767995 -104.881495 
L 427.670134 -105.251279 
L 430.572273 -105.609036 
L 430.572273 -105.577377 
L 430.572273 -105.577377 
L 427.670134 -105.212592 
L 424.767995 -104.849059 
L 421.865856 -104.484035 
L 418.963717 -104.119108 
L 416.061578 -103.762475 
L 413.159439 -103.402937 
L 410.257299 -103.042658 
L 407.35516 -102.685074 
L 404.453021 -102.329434 
L 401.550882 -101.967495 
L 398.648743 -101.608411 
L 395.746604 -101.242609 
L 392.844465 -100.882313 
L 389.942326 -100.516019 
L 387.040187 -100.163253 
L 384.138048 -99.807368 
L 381.235909 -99.45353 
L 378.33377 -99.089318 
L 375.431631 -98.734701 
L 372.529492 -98.379522 
L 369.627353 -98.023134 
L 366.725214 -97.666302 
L 363.823075 -97.308079 
L 360.920936 -96.950145 
L 358.018797 -96.591466 
L 355.116658 -96.231091 
L 352.214519 -95.876791 
L 349.31238 -95.519919 
L 346.410241 -95.16486 
L 343.508102 -94.814515 
L 340.605963 -94.450938 
L 337.703824 -94.09511 
L 334.801684 -93.737881 
L 331.899545 -93.378306 
L 328.997406 -93.026834 
L 326.095267 -92.666588 
L 323.193128 -92.308205 
L 320.290989 -91.937374 
L 317.38885 -91.583153 
L 314.486711 -91.228368 
L 311.584572 -90.869556 
L 308.682433 -90.517487 
L 305.780294 -90.16101 
L 302.878155 -89.81678 
L 299.976016 -89.464043 
L 297.073877 -89.107028 
L 294.171738 -88.75163 
L 291.269599 -88.397951 
L 288.36746 -88.044672 
L 285.465321 -87.686911 
L 282.563182 -87.333903 
L 279.661043 -86.978619 
L 276.758904 -86.628888 
L 273.856765 -86.269772 
L 270.954626 -85.915735 
L 268.052487 -85.561745 
L 265.150348 -85.206545 
L 262.248209 -84.84642 
L 259.34607 -84.484137 
L 256.44393 -84.115937 
L 253.541791 -83.756666 
L 250.639652 -83.383968 
L 247.737513 -83.025263 
L 244.835374 -82.665205 
L 241.933235 -82.310401 
L 239.031096 -81.952174 
L 236.128957 -81.592705 
L 233.226818 -81.240573 
L 230.324679 -80.882509 
L 227.42254 -80.522175 
L 224.520401 -80.15677 
L 221.618262 -79.794392 
L 218.716123 -79.429645 
L 215.813984 -79.074216 
L 212.911845 -78.710901 
L 210.009706 -78.351045 
L 207.107567 -77.991988 
L 204.205428 -77.631919 
L 201.303289 -77.274897 
L 198.40115 -76.92436 
L 195.499011 -76.55169 
L 192.596872 -76.190878 
L 189.694733 -75.830452 
L 186.792594 -75.48394 
L 183.890455 -75.12318 
L 180.988316 -74.759999 
L 178.086176 -74.397395 
L 175.184037 -74.036861 
L 172.281898 -73.664985 
L 169.379759 -73.308025 
L 166.47762 -72.939654 
L 163.575481 -72.581512 
L 160.673342 -72.217067 
L 157.771203 -71.857272 
L 154.869064 -71.494753 
L 151.966925 -71.143216 
L 149.064786 -70.77706 
L 146.162647 -70.410441 
L 143.260508 -70.043707 
L 140.358369 -69.675927 
L 137.45623 -69.308394 
L 134.554091 -68.947687 
L 131.651952 -68.588382 
L 128.749813 -68.229835 
L 125.847674 -67.865011 
L 122.945535 -67.503581 
L 120.043396 -67.142176 
L 117.141257 -66.8023 
L 114.239118 -66.445115 
L 111.336979 -66.085292 
L 108.43484 -65.726289 
L 105.532701 -65.366353 
L 102.630561 -65.005745 
L 99.728422 -64.649239 
L 96.826283 -64.290678 
L 93.924144 -63.934443 
L 91.022005 -63.870569 
L 88.119866 -63.80611 
L 85.217727 -63.744545 
z
" style="stroke: #ffffff; stroke-opacity: 0.5"/>
    </defs>
    <g clip-path="url(#p68d9538483)">
     <use xlink:href="#m9d112e8135" x="0" y="345.6" style="fill: #4c72b0; fill-opacity: 0.5; stroke: #ffffff; stroke-opacity: 0.5"/>
    </g>
   </g>
   <g id="PolyCollection_2">
    <defs>
     <path id="m690a42a649" d="M 85.217727 -63.75097 
L 85.217727 -63.751876 
L 88.119866 -63.820569 
L 91.022005 -63.892212 
L 93.924144 -63.960982 
L 96.826283 -64.639675 
L 99.728422 -65.317377 
L 102.630561 -65.995154 
L 105.532701 -66.668301 
L 108.43484 -67.345751 
L 111.336979 -68.030582 
L 114.239118 -68.711749 
L 117.141257 -69.398446 
L 120.043396 -70.047511 
L 122.945535 -70.70917 
L 125.847674 -71.381215 
L 128.749813 -72.058127 
L 131.651952 -72.726021 
L 134.554091 -73.3921 
L 137.45623 -74.048547 
L 140.358369 -74.718485 
L 143.260508 -75.376328 
L 146.162647 -76.046312 
L 149.064786 -76.696044 
L 151.966925 -77.35597 
L 154.869064 -77.99446 
L 157.771203 -78.654149 
L 160.673342 -79.31315 
L 163.575481 -79.974532 
L 166.47762 -80.651092 
L 169.379759 -81.327733 
L 172.281898 -82.010705 
L 175.184037 -82.685124 
L 178.086176 -83.363327 
L 180.988316 -84.057452 
L 183.890455 -84.73301 
L 186.792594 -85.415654 
L 189.694733 -86.064244 
L 192.596872 -86.731907 
L 195.499011 -87.410098 
L 198.40115 -88.091211 
L 201.303289 -88.76618 
L 204.205428 -89.447191 
L 207.107567 -90.131069 
L 210.009706 -90.817304 
L 212.911845 -91.489923 
L 215.813984 -92.156051 
L 218.716123 -92.841847 
L 221.618262 -93.510787 
L 224.520401 -94.141798 
L 227.42254 -94.777464 
L 230.324679 -95.429476 
L 233.226818 -96.089572 
L 236.128957 -96.737946 
L 239.031096 -97.394145 
L 241.933235 -98.05451 
L 244.835374 -98.7187 
L 247.737513 -99.383193 
L 250.639652 -100.052939 
L 253.541791 -100.709876 
L 256.44393 -101.357067 
L 259.34607 -102.007926 
L 262.248209 -102.663049 
L 265.150348 -103.323961 
L 268.052487 -103.992758 
L 270.954626 -104.654087 
L 273.856765 -105.316727 
L 276.758904 -105.977472 
L 279.661043 -106.634322 
L 282.563182 -107.309287 
L 285.465321 -107.9754 
L 288.36746 -108.634814 
L 291.269599 -109.297789 
L 294.171738 -109.944993 
L 297.073877 -110.589298 
L 299.976016 -111.234013 
L 302.878155 -111.899901 
L 305.780294 -112.550697 
L 308.682433 -113.220686 
L 311.584572 -113.873674 
L 314.486711 -114.52849 
L 317.38885 -115.199879 
L 320.290989 -115.859912 
L 323.193128 -116.52249 
L 326.095267 -117.185626 
L 328.997406 -117.834586 
L 331.899545 -118.484547 
L 334.801684 -119.136499 
L 337.703824 -119.799683 
L 340.605963 -120.447978 
L 343.508102 -121.110847 
L 346.410241 -121.758111 
L 349.31238 -122.420026 
L 352.214519 -123.088902 
L 355.116658 -123.760594 
L 358.018797 -124.413952 
L 360.920936 -125.073643 
L 363.823075 -125.725143 
L 366.725214 -126.373105 
L 369.627353 -127.024567 
L 372.529492 -127.679118 
L 375.431631 -128.340621 
L 378.33377 -129.001505 
L 381.235909 -129.657195 
L 384.138048 -130.307338 
L 387.040187 -130.976976 
L 389.942326 -131.62941 
L 392.844465 -132.292431 
L 395.746604 -132.948312 
L 398.648743 -133.595828 
L 401.550882 -134.256889 
L 404.453021 -134.915518 
L 407.35516 -135.57301 
L 410.257299 -136.2358 
L 413.159439 -136.892926 
L 416.061578 -137.556964 
L 418.963717 -138.22174 
L 421.865856 -138.893251 
L 424.767995 -139.560156 
L 427.670134 -140.216799 
L 430.572273 -140.874404 
L 430.572273 -140.588044 
L 430.572273 -140.588044 
L 427.670134 -139.932258 
L 424.767995 -139.273262 
L 421.865856 -138.611709 
L 418.963717 -137.941459 
L 416.061578 -137.287591 
L 413.159439 -136.622397 
L 410.257299 -135.958289 
L 407.35516 -135.298974 
L 404.453021 -134.643026 
L 401.550882 -133.987064 
L 398.648743 -133.329096 
L 395.746604 -132.675611 
L 392.844465 -132.009465 
L 389.942326 -131.346344 
L 387.040187 -130.686445 
L 384.138048 -130.008994 
L 381.235909 -129.341851 
L 378.33377 -128.683351 
L 375.431631 -128.022597 
L 372.529492 -127.364788 
L 369.627353 -126.704619 
L 366.725214 -126.046573 
L 363.823075 -125.397403 
L 360.920936 -124.742339 
L 358.018797 -124.086061 
L 355.116658 -123.420286 
L 352.214519 -122.750785 
L 349.31238 -122.074962 
L 346.410241 -121.401829 
L 343.508102 -120.738746 
L 340.605963 -120.080606 
L 337.703824 -119.419122 
L 334.801684 -118.77331 
L 331.899545 -118.134217 
L 328.997406 -117.494357 
L 326.095267 -116.848913 
L 323.193128 -116.182253 
L 320.290989 -115.521323 
L 317.38885 -114.858452 
L 314.486711 -114.182232 
L 311.584572 -113.519705 
L 308.682433 -112.85012 
L 305.780294 -112.185028 
L 302.878155 -111.530006 
L 299.976016 -110.872702 
L 297.073877 -110.217729 
L 294.171738 -109.570517 
L 291.269599 -108.928554 
L 288.36746 -108.272338 
L 285.465321 -107.610329 
L 282.563182 -106.943348 
L 279.661043 -106.277653 
L 276.758904 -105.62745 
L 273.856765 -104.974098 
L 270.954626 -104.306686 
L 268.052487 -103.646902 
L 265.150348 -102.983048 
L 262.248209 -102.328424 
L 259.34607 -101.677728 
L 256.44393 -101.029944 
L 253.541791 -100.367574 
L 250.639652 -99.710095 
L 247.737513 -99.054302 
L 244.835374 -98.379443 
L 241.933235 -97.727742 
L 239.031096 -97.065382 
L 236.128957 -96.400824 
L 233.226818 -95.756788 
L 230.324679 -95.090825 
L 227.42254 -94.434756 
L 224.520401 -93.785555 
L 221.618262 -93.139691 
L 218.716123 -92.489621 
L 215.813984 -91.819322 
L 212.911845 -91.163173 
L 210.009706 -90.504068 
L 207.107567 -89.837609 
L 204.205428 -89.177586 
L 201.303289 -88.526628 
L 198.40115 -87.879415 
L 195.499011 -87.230017 
L 192.596872 -86.564952 
L 189.694733 -85.911621 
L 186.792594 -85.277996 
L 183.890455 -84.619481 
L 180.988316 -83.958586 
L 178.086176 -83.283319 
L 175.184037 -82.624646 
L 172.281898 -81.959442 
L 169.379759 -81.297113 
L 166.47762 -80.625175 
L 163.575481 -79.95603 
L 160.673342 -79.295761 
L 157.771203 -78.639297 
L 154.869064 -77.979764 
L 151.966925 -77.3484 
L 149.064786 -76.68599 
L 146.162647 -76.009581 
L 143.260508 -75.326023 
L 140.358369 -74.642193 
L 137.45623 -73.968189 
L 134.554091 -73.293243 
L 131.651952 -72.632316 
L 128.749813 -71.966547 
L 125.847674 -71.294579 
L 122.945535 -70.626473 
L 120.043396 -69.966576 
L 117.141257 -69.323147 
L 114.239118 -68.649917 
L 111.336979 -67.968762 
L 108.43484 -67.309192 
L 105.532701 -66.624705 
L 102.630561 -65.955795 
L 99.728422 -65.291256 
L 96.826283 -64.626471 
L 93.924144 -63.955515 
L 91.022005 -63.888401 
L 88.119866 -63.819645 
L 85.217727 -63.75097 
z
" style="stroke: #ffffff; stroke-opacity: 0.5"/>
    </defs>
    <g clip-path="url(#p68d9538483)">
     <use xlink:href="#m690a42a649" x="0" y="345.6" style="fill: #dd8452; fill-opacity: 0.5; stroke: #ffffff; stroke-opacity: 0.5"/>
    </g>
   </g>
   <g id="PolyCollection_3">
    <defs>
     <path id="me9e2b2d650" d="M 85.217727 -63.754813 
L 85.217727 -63.755797 
L 88.119866 -63.827783 
L 91.022005 -63.905323 
L 93.924144 -63.977663 
L 96.826283 -65.128063 
L 99.728422 -66.271634 
L 102.630561 -67.436919 
L 105.532701 -68.574028 
L 108.43484 -69.72143 
L 111.336979 -70.88862 
L 114.239118 -72.055928 
L 117.141257 -73.192464 
L 120.043396 -74.280609 
L 122.945535 -75.410146 
L 125.847674 -76.52823 
L 128.749813 -77.644897 
L 131.651952 -78.76701 
L 134.554091 -79.887814 
L 137.45623 -81.022334 
L 140.358369 -82.163259 
L 143.260508 -83.29406 
L 146.162647 -84.399355 
L 149.064786 -85.523504 
L 151.966925 -86.645636 
L 154.869064 -87.762587 
L 157.771203 -88.88039 
L 160.673342 -90.017385 
L 163.575481 -91.122324 
L 166.47762 -92.254071 
L 169.379759 -93.389574 
L 172.281898 -94.542502 
L 175.184037 -95.672506 
L 178.086176 -96.80655 
L 180.988316 -97.946414 
L 183.890455 -99.068375 
L 186.792594 -100.205238 
L 189.694733 -101.311941 
L 192.596872 -102.47064 
L 195.499011 -103.582186 
L 198.40115 -104.721177 
L 201.303289 -105.844128 
L 204.205428 -106.967168 
L 207.107567 -108.09774 
L 210.009706 -109.212709 
L 212.911845 -110.335538 
L 215.813984 -111.455893 
L 218.716123 -112.588364 
L 221.618262 -113.733179 
L 224.520401 -114.857144 
L 227.42254 -115.98421 
L 230.324679 -117.094599 
L 233.226818 -118.238157 
L 236.128957 -119.366255 
L 239.031096 -120.497603 
L 241.933235 -121.616902 
L 244.835374 -122.744678 
L 247.737513 -123.867928 
L 250.639652 -124.99494 
L 253.541791 -126.122047 
L 256.44393 -127.26456 
L 259.34607 -128.379944 
L 262.248209 -129.518882 
L 265.150348 -130.633541 
L 268.052487 -131.759469 
L 270.954626 -132.9006 
L 273.856765 -134.031586 
L 276.758904 -135.141923 
L 279.661043 -136.254883 
L 282.563182 -137.398859 
L 285.465321 -138.537036 
L 288.36746 -139.6667 
L 291.269599 -140.804389 
L 294.171738 -141.91477 
L 297.073877 -143.027893 
L 299.976016 -144.149723 
L 302.878155 -145.277789 
L 305.780294 -146.423764 
L 308.682433 -147.54926 
L 311.584572 -148.67171 
L 314.486711 -149.805019 
L 317.38885 -150.938273 
L 320.290989 -152.078752 
L 323.193128 -153.191861 
L 326.095267 -154.323103 
L 328.997406 -155.460878 
L 331.899545 -156.597188 
L 334.801684 -157.732847 
L 337.703824 -158.872181 
L 340.605963 -160.001436 
L 343.508102 -161.118734 
L 346.410241 -162.242178 
L 349.31238 -163.359001 
L 352.214519 -164.460363 
L 355.116658 -165.592812 
L 358.018797 -166.698643 
L 360.920936 -167.817627 
L 363.823075 -168.950128 
L 366.725214 -170.087811 
L 369.627353 -171.234708 
L 372.529492 -172.353883 
L 375.431631 -173.490581 
L 378.33377 -174.615523 
L 381.235909 -175.740305 
L 384.138048 -176.851597 
L 387.040187 -177.975759 
L 389.942326 -179.1193 
L 392.844465 -180.250372 
L 395.746604 -181.385031 
L 398.648743 -182.511224 
L 401.550882 -183.649087 
L 404.453021 -184.772855 
L 407.35516 -185.897649 
L 410.257299 -187.038971 
L 413.159439 -188.177485 
L 416.061578 -189.283307 
L 418.963717 -190.422511 
L 421.865856 -191.550899 
L 424.767995 -192.704802 
L 427.670134 -193.843538 
L 430.572273 -194.959777 
L 430.572273 -194.145175 
L 430.572273 -194.145175 
L 427.670134 -193.018101 
L 424.767995 -191.904508 
L 421.865856 -190.762679 
L 418.963717 -189.659938 
L 416.061578 -188.531824 
L 413.159439 -187.424643 
L 410.257299 -186.303514 
L 407.35516 -185.155706 
L 404.453021 -184.028924 
L 401.550882 -182.90098 
L 398.648743 -181.772217 
L 395.746604 -180.639663 
L 392.844465 -179.514551 
L 389.942326 -178.397056 
L 387.040187 -177.267933 
L 384.138048 -176.139475 
L 381.235909 -175.000021 
L 378.33377 -173.874012 
L 375.431631 -172.768893 
L 372.529492 -171.623247 
L 369.627353 -170.482925 
L 366.725214 -169.362676 
L 363.823075 -168.254615 
L 360.920936 -167.117116 
L 358.018797 -166.004508 
L 355.116658 -164.862233 
L 352.214519 -163.723535 
L 349.31238 -162.59858 
L 346.410241 -161.467915 
L 343.508102 -160.337955 
L 340.605963 -159.210503 
L 337.703824 -158.070549 
L 334.801684 -156.931209 
L 331.899545 -155.792149 
L 328.997406 -154.673 
L 326.095267 -153.544875 
L 323.193128 -152.40923 
L 320.290989 -151.293159 
L 317.38885 -150.149523 
L 314.486711 -149.033842 
L 311.584572 -147.90735 
L 308.682433 -146.78828 
L 305.780294 -145.641421 
L 302.878155 -144.507452 
L 299.976016 -143.37718 
L 297.073877 -142.246975 
L 294.171738 -141.118992 
L 291.269599 -139.996715 
L 288.36746 -138.875139 
L 285.465321 -137.750083 
L 282.563182 -136.604989 
L 279.661043 -135.482487 
L 276.758904 -134.361075 
L 273.856765 -133.244896 
L 270.954626 -132.142779 
L 268.052487 -131.006022 
L 265.150348 -129.881501 
L 262.248209 -128.74992 
L 259.34607 -127.633855 
L 256.44393 -126.527576 
L 253.541791 -125.39746 
L 250.639652 -124.289889 
L 247.737513 -123.15816 
L 244.835374 -122.046698 
L 241.933235 -120.925503 
L 239.031096 -119.811309 
L 236.128957 -118.698567 
L 233.226818 -117.574176 
L 230.324679 -116.462955 
L 227.42254 -115.345215 
L 224.520401 -114.23456 
L 221.618262 -113.124497 
L 218.716123 -112.017703 
L 215.813984 -110.875499 
L 212.911845 -109.76997 
L 210.009706 -108.667247 
L 207.107567 -107.555955 
L 204.205428 -106.429655 
L 201.303289 -105.310315 
L 198.40115 -104.204235 
L 195.499011 -103.081296 
L 192.596872 -101.974316 
L 189.694733 -100.854658 
L 186.792594 -99.766835 
L 183.890455 -98.640889 
L 180.988316 -97.526484 
L 178.086176 -96.403088 
L 175.184037 -95.276843 
L 172.281898 -94.170295 
L 169.379759 -93.056382 
L 166.47762 -91.945468 
L 163.575481 -90.850338 
L 160.673342 -89.74442 
L 157.771203 -88.616453 
L 154.869064 -87.504217 
L 151.966925 -86.397146 
L 149.064786 -85.280136 
L 146.162647 -84.185179 
L 143.260508 -83.067851 
L 140.358369 -81.960673 
L 137.45623 -80.851911 
L 134.554091 -79.744774 
L 131.651952 -78.644796 
L 128.749813 -77.537612 
L 125.847674 -76.412708 
L 122.945535 -75.304905 
L 120.043396 -74.176243 
L 117.141257 -73.069201 
L 114.239118 -71.937947 
L 111.336979 -70.792608 
L 108.43484 -69.656896 
L 105.532701 -68.519941 
L 102.630561 -67.390342 
L 99.728422 -66.267074 
L 96.826283 -65.110424 
L 93.924144 -63.975301 
L 91.022005 -63.901454 
L 88.119866 -63.827054 
L 85.217727 -63.754813 
z
" style="stroke: #ffffff; stroke-opacity: 0.5"/>
    </defs>
    <g clip-path="url(#p68d9538483)">
     <use xlink:href="#me9e2b2d650" x="0" y="345.6" style="fill: #55a868; fill-opacity: 0.5; stroke: #ffffff; stroke-opacity: 0.5"/>
    </g>
   </g>
   <g id="PolyCollection_4">
    <defs>
     <path id="m01c2f34dde" d="M 85.217727 -63.76615 
L 85.217727 -63.767041 
L 88.119866 -63.85169 
L 91.022005 -63.938737 
L 93.924144 -64.024594 
L 96.826283 -66.248081 
L 99.728422 -68.525895 
L 102.630561 -70.787983 
L 105.532701 -73.081815 
L 108.43484 -75.342699 
L 111.336979 -77.635181 
L 114.239118 -79.952513 
L 117.141257 -82.259642 
L 120.043396 -84.447676 
L 122.945535 -86.68259 
L 125.847674 -88.924142 
L 128.749813 -91.192993 
L 131.651952 -93.479207 
L 134.554091 -95.759416 
L 137.45623 -97.981166 
L 140.358369 -100.173207 
L 143.260508 -102.366118 
L 146.162647 -104.572534 
L 149.064786 -106.781587 
L 151.966925 -108.95774 
L 154.869064 -111.07988 
L 157.771203 -113.24406 
L 160.673342 -115.406747 
L 163.575481 -117.574811 
L 166.47762 -119.754222 
L 169.379759 -121.928498 
L 172.281898 -124.111947 
L 175.184037 -126.303978 
L 178.086176 -128.493861 
L 180.988316 -130.682283 
L 183.890455 -132.875502 
L 186.792594 -135.116398 
L 189.694733 -137.252931 
L 192.596872 -139.408252 
L 195.499011 -141.582098 
L 198.40115 -143.788159 
L 201.303289 -145.973006 
L 204.205428 -148.167508 
L 207.107567 -150.35583 
L 210.009706 -152.551575 
L 212.911845 -154.763669 
L 215.813984 -156.985128 
L 218.716123 -159.224094 
L 221.618262 -161.444342 
L 224.520401 -163.571531 
L 227.42254 -165.750583 
L 230.324679 -167.933124 
L 233.226818 -170.122872 
L 236.128957 -172.31013 
L 239.031096 -174.51153 
L 241.933235 -176.700409 
L 244.835374 -178.90083 
L 247.737513 -181.120148 
L 250.639652 -183.353358 
L 253.541791 -185.565716 
L 256.44393 -187.79702 
L 259.34607 -189.925958 
L 262.248209 -192.084472 
L 265.150348 -194.254084 
L 268.052487 -196.440692 
L 270.954626 -198.645339 
L 273.856765 -200.847905 
L 276.758904 -203.059842 
L 279.661043 -205.288905 
L 282.563182 -207.497375 
L 285.465321 -209.719367 
L 288.36746 -211.934208 
L 291.269599 -214.158652 
L 294.171738 -216.291478 
L 297.073877 -218.454623 
L 299.976016 -220.62899 
L 302.878155 -222.828448 
L 305.780294 -225.042367 
L 308.682433 -227.258272 
L 311.584572 -229.481582 
L 314.486711 -231.70505 
L 317.38885 -233.881452 
L 320.290989 -236.105415 
L 323.193128 -238.331752 
L 326.095267 -240.563001 
L 328.997406 -242.704926 
L 331.899545 -244.875305 
L 334.801684 -247.047464 
L 337.703824 -249.256816 
L 340.605963 -251.469446 
L 343.508102 -253.67314 
L 346.410241 -255.893929 
L 349.31238 -258.113839 
L 352.214519 -260.319459 
L 355.116658 -262.513705 
L 358.018797 -264.741911 
L 360.920936 -266.970872 
L 363.823075 -269.107551 
L 366.725214 -271.277368 
L 369.627353 -273.46577 
L 372.529492 -275.659052 
L 375.431631 -277.876054 
L 378.33377 -280.096721 
L 381.235909 -282.314008 
L 384.138048 -284.530958 
L 387.040187 -286.741863 
L 389.942326 -288.954309 
L 392.844465 -291.166329 
L 395.746604 -293.390878 
L 398.648743 -295.550403 
L 401.550882 -297.733713 
L 404.453021 -299.921362 
L 407.35516 -302.125979 
L 410.257299 -304.315194 
L 413.159439 -306.525928 
L 416.061578 -308.737916 
L 418.963717 -310.949785 
L 421.865856 -313.147168 
L 424.767995 -315.39032 
L 427.670134 -317.612435 
L 430.572273 -319.835455 
L 430.572273 -318.935525 
L 430.572273 -318.935525 
L 427.670134 -316.713284 
L 424.767995 -314.494022 
L 421.865856 -312.279586 
L 418.963717 -310.064538 
L 416.061578 -307.835176 
L 413.159439 -305.630803 
L 410.257299 -303.417586 
L 407.35516 -301.230312 
L 404.453021 -299.045704 
L 401.550882 -296.857472 
L 398.648743 -294.699714 
L 395.746604 -292.564862 
L 392.844465 -290.337167 
L 389.942326 -288.145347 
L 387.040187 -285.926181 
L 384.138048 -283.723151 
L 381.235909 -281.514162 
L 378.33377 -279.316765 
L 375.431631 -277.117424 
L 372.529492 -274.919499 
L 369.627353 -272.759293 
L 366.725214 -270.593742 
L 363.823075 -268.419442 
L 360.920936 -266.274984 
L 358.018797 -264.056237 
L 355.116658 -261.84138 
L 352.214519 -259.63204 
L 349.31238 -257.418464 
L 346.410241 -255.2038 
L 343.508102 -252.987422 
L 340.605963 -250.790122 
L 337.703824 -248.582646 
L 334.801684 -246.400661 
L 331.899545 -244.219073 
L 328.997406 -242.065402 
L 326.095267 -239.926638 
L 323.193128 -237.677434 
L 320.290989 -235.437662 
L 317.38885 -233.212152 
L 314.486711 -231.010008 
L 311.584572 -228.791842 
L 308.682433 -226.585401 
L 305.780294 -224.376413 
L 302.878155 -222.193685 
L 299.976016 -220.001831 
L 297.073877 -217.829226 
L 294.171738 -215.666896 
L 291.269599 -213.54449 
L 288.36746 -211.324226 
L 285.465321 -209.105338 
L 282.563182 -206.892161 
L 279.661043 -204.701406 
L 276.758904 -202.511265 
L 273.856765 -200.319324 
L 270.954626 -198.098876 
L 268.052487 -195.895481 
L 265.150348 -193.705047 
L 262.248209 -191.517425 
L 259.34607 -189.333097 
L 256.44393 -187.210656 
L 253.541791 -184.990832 
L 250.639652 -182.78331 
L 247.737513 -180.577388 
L 244.835374 -178.359523 
L 241.933235 -176.14409 
L 239.031096 -173.915204 
L 236.128957 -171.706863 
L 233.226818 -169.535925 
L 230.324679 -167.345516 
L 227.42254 -165.145884 
L 224.520401 -162.953607 
L 221.618262 -160.795372 
L 218.716123 -158.590548 
L 215.813984 -156.395462 
L 212.911845 -154.196467 
L 210.009706 -151.993641 
L 207.107567 -149.788313 
L 204.205428 -147.618573 
L 201.303289 -145.410533 
L 198.40115 -143.211385 
L 195.499011 -141.035679 
L 192.596872 -138.833551 
L 189.694733 -136.653611 
L 186.792594 -134.501121 
L 183.890455 -132.265065 
L 180.988316 -130.051707 
L 178.086176 -127.820498 
L 175.184037 -125.62171 
L 172.281898 -123.40583 
L 169.379759 -121.195368 
L 166.47762 -118.966083 
L 163.575481 -116.794262 
L 160.673342 -114.600082 
L 157.771203 -112.431865 
L 154.869064 -110.265783 
L 151.966925 -108.150095 
L 149.064786 -105.926979 
L 146.162647 -103.720332 
L 143.260508 -101.494154 
L 140.358369 -99.289643 
L 137.45623 -97.068651 
L 134.554091 -94.867544 
L 131.651952 -92.651288 
L 128.749813 -90.475875 
L 125.847674 -88.282671 
L 122.945535 -86.116708 
L 120.043396 -83.972805 
L 117.141257 -81.8365 
L 114.239118 -79.620029 
L 111.336979 -77.420754 
L 108.43484 -75.234766 
L 105.532701 -73.039891 
L 102.630561 -70.755735 
L 99.728422 -68.488883 
L 96.826283 -66.22703 
L 93.924144 -64.023904 
L 91.022005 -63.936791 
L 88.119866 -63.85108 
L 85.217727 -63.76615 
z
" style="stroke: #ffffff; stroke-opacity: 0.5"/>
    </defs>
    <g clip-path="url(#p68d9538483)">
     <use xlink:href="#m01c2f34dde" x="0" y="345.6" style="fill: #c44e52; fill-opacity: 0.5; stroke: #ffffff; stroke-opacity: 0.5"/>
    </g>
   </g>
   <g id="line2d_15">
    <path d="M 85.217727 281.853872 
L 88.119866 281.791029 
L 91.022005 281.725376 
L 93.924144 281.66159 
L 96.826283 281.302139 
L 99.728422 280.941707 
L 102.630561 280.584593 
L 105.532701 280.225917 
L 108.43484 279.866165 
L 111.336979 279.507748 
L 114.239118 279.145655 
L 117.141257 278.789737 
L 120.043396 278.443608 
L 122.945535 278.083058 
L 125.847674 277.719177 
L 128.749813 277.353367 
L 131.651952 276.994231 
L 134.554091 276.634757 
L 137.45623 276.27423 
L 140.358369 275.910241 
L 143.260508 275.541599 
L 146.162647 275.175996 
L 149.064786 274.815997 
L 151.966925 274.456287 
L 154.869064 274.103757 
L 157.771203 273.742281 
L 160.673342 273.381075 
L 163.575481 273.016969 
L 166.47762 272.657614 
L 169.379759 272.288355 
L 172.281898 271.928545 
L 175.184037 271.562969 
L 178.086176 271.198932 
L 180.988316 270.831198 
L 183.890455 270.463593 
L 186.792594 270.101664 
L 189.694733 269.753553 
L 192.596872 269.390339 
L 195.499011 269.0244 
L 198.40115 268.651979 
L 201.303289 268.297085 
L 204.205428 267.937912 
L 207.107567 267.574848 
L 210.009706 267.210794 
L 212.911845 266.8484 
L 215.813984 266.486787 
L 218.716123 266.129175 
L 221.618262 265.765627 
L 224.520401 265.400553 
L 227.42254 265.037625 
L 230.324679 264.679592 
L 233.226818 264.322576 
L 236.128957 263.968565 
L 239.031096 263.608189 
L 241.933235 263.247848 
L 244.835374 262.890495 
L 247.737513 262.529693 
L 250.639652 262.171703 
L 253.541791 261.798225 
L 256.44393 261.438655 
L 259.34607 261.075951 
L 262.248209 260.717706 
L 265.150348 260.358136 
L 268.052487 259.99938 
L 270.954626 259.644726 
L 273.856765 259.287999 
L 276.758904 258.927983 
L 279.661043 258.570631 
L 282.563182 258.212472 
L 285.465321 257.855428 
L 288.36746 257.489763 
L 291.269599 257.132023 
L 294.171738 256.77331 
L 297.073877 256.416326 
L 299.976016 256.058662 
L 302.878155 255.699044 
L 305.780294 255.347346 
L 308.682433 254.991124 
L 311.584572 254.638183 
L 314.486711 254.279049 
L 317.38885 253.921321 
L 320.290989 253.568384 
L 323.193128 253.203199 
L 326.095267 252.845773 
L 328.997406 252.49257 
L 331.899545 252.141512 
L 334.801684 251.785395 
L 337.703824 251.425088 
L 340.605963 251.07173 
L 343.508102 250.713335 
L 346.410241 250.357564 
L 349.31238 250.001817 
L 352.214519 249.647967 
L 355.116658 249.294344 
L 358.018797 248.933492 
L 360.920936 248.57712 
L 363.823075 248.217601 
L 366.725214 247.861839 
L 369.627353 247.508843 
L 372.529492 247.156865 
L 375.431631 246.800435 
L 378.33377 246.444781 
L 381.235909 246.082556 
L 384.138048 245.725654 
L 387.040187 245.371357 
L 389.942326 245.021032 
L 392.844465 244.658625 
L 395.746604 244.299302 
L 398.648743 243.942303 
L 401.550882 243.586463 
L 404.453021 243.23266 
L 407.35516 242.874428 
L 410.257299 242.519204 
L 413.159439 242.162103 
L 416.061578 241.80613 
L 418.963717 241.4498 
L 421.865856 241.094199 
L 424.767995 240.734723 
L 427.670134 240.368064 
L 430.572273 240.006793 
" clip-path="url(#p68d9538483)" style="fill: none; stroke: #4c72b0; stroke-width: 3; stroke-linecap: round"/>
   </g>
   <g id="line2d_16">
    <path d="M 85.217727 281.848577 
L 88.119866 281.779893 
L 91.022005 281.709694 
L 93.924144 281.641752 
L 96.826283 280.966927 
L 99.728422 280.295684 
L 102.630561 279.624526 
L 105.532701 278.953497 
L 108.43484 278.272528 
L 111.336979 277.600328 
L 114.239118 276.919167 
L 117.141257 276.239203 
L 120.043396 275.592957 
L 122.945535 274.932179 
L 125.847674 274.262103 
L 128.749813 273.587663 
L 131.651952 272.920831 
L 134.554091 272.257329 
L 137.45623 271.591632 
L 140.358369 270.919661 
L 143.260508 270.248824 
L 146.162647 269.572053 
L 149.064786 268.908983 
L 151.966925 268.247815 
L 154.869064 267.612888 
L 157.771203 266.953277 
L 160.673342 266.295545 
L 163.575481 265.634719 
L 166.47762 264.961867 
L 169.379759 264.287577 
L 172.281898 263.614927 
L 175.184037 262.945115 
L 178.086176 262.276677 
L 180.988316 261.591981 
L 183.890455 260.923754 
L 186.792594 260.253175 
L 189.694733 259.612067 
L 192.596872 258.951571 
L 195.499011 258.279942 
L 198.40115 257.614687 
L 201.303289 256.953596 
L 204.205428 256.287612 
L 207.107567 255.615661 
L 210.009706 254.939314 
L 212.911845 254.273452 
L 215.813984 253.612314 
L 218.716123 252.934266 
L 221.618262 252.274761 
L 224.520401 251.636324 
L 227.42254 250.99389 
L 230.324679 250.33985 
L 233.226818 249.67682 
L 236.128957 249.030615 
L 239.031096 248.370236 
L 241.933235 247.708874 
L 244.835374 247.050929 
L 247.737513 246.381252 
L 250.639652 245.718483 
L 253.541791 245.061275 
L 256.44393 244.406494 
L 259.34607 243.757173 
L 262.248209 243.104263 
L 265.150348 242.446496 
L 268.052487 241.78017 
L 270.954626 241.119614 
L 273.856765 240.454588 
L 276.758904 239.797539 
L 279.661043 239.144013 
L 282.563182 238.473683 
L 285.465321 237.807135 
L 288.36746 237.146424 
L 291.269599 236.486828 
L 294.171738 235.842245 
L 297.073877 235.196486 
L 299.976016 234.546643 
L 302.878155 233.885047 
L 305.780294 233.232138 
L 308.682433 232.564597 
L 311.584572 231.903311 
L 314.486711 231.244639 
L 317.38885 230.570835 
L 320.290989 229.909383 
L 323.193128 229.247628 
L 326.095267 228.582731 
L 328.997406 227.935528 
L 331.899545 227.290618 
L 334.801684 226.645096 
L 337.703824 225.990598 
L 340.605963 225.335708 
L 343.508102 224.675204 
L 346.410241 224.02003 
L 349.31238 223.352506 
L 352.214519 222.680157 
L 355.116658 222.00956 
L 358.018797 221.349993 
L 360.920936 220.692009 
L 363.823075 220.038727 
L 366.725214 219.390161 
L 369.627353 218.735407 
L 372.529492 218.078047 
L 375.431631 217.418391 
L 378.33377 216.757572 
L 381.235909 216.100477 
L 384.138048 215.441834 
L 387.040187 214.76829 
L 389.942326 214.112123 
L 392.844465 213.449052 
L 395.746604 212.788039 
L 398.648743 212.137538 
L 401.550882 211.478023 
L 404.453021 210.820728 
L 407.35516 210.164008 
L 410.257299 209.502955 
L 413.159439 208.842338 
L 416.061578 208.177722 
L 418.963717 207.518401 
L 421.865856 206.84752 
L 424.767995 206.183291 
L 427.670134 205.525471 
L 430.572273 204.868776 
" clip-path="url(#p68d9538483)" style="fill: none; stroke: #dd8452; stroke-width: 3; stroke-linecap: round"/>
   </g>
   <g id="line2d_17">
    <path d="M 85.217727 281.844695 
L 88.119866 281.772581 
L 91.022005 281.696611 
L 93.924144 281.623518 
L 96.826283 280.480756 
L 99.728422 279.330646 
L 102.630561 278.18637 
L 105.532701 277.053015 
L 108.43484 275.910837 
L 111.336979 274.759386 
L 114.239118 273.603062 
L 117.141257 272.469167 
L 120.043396 271.371574 
L 122.945535 270.242475 
L 125.847674 269.129531 
L 128.749813 268.008745 
L 131.651952 266.894097 
L 134.554091 265.783706 
L 137.45623 264.662877 
L 140.358369 263.538034 
L 143.260508 262.419045 
L 146.162647 261.307733 
L 149.064786 260.19818 
L 151.966925 259.078609 
L 154.869064 257.966598 
L 157.771203 256.851579 
L 160.673342 255.719098 
L 163.575481 254.613669 
L 166.47762 253.500231 
L 169.379759 252.377022 
L 172.281898 251.243601 
L 175.184037 250.125326 
L 178.086176 248.995181 
L 180.988316 247.863551 
L 183.890455 246.745368 
L 186.792594 245.613963 
L 189.694733 244.516701 
L 192.596872 243.377522 
L 195.499011 242.268259 
L 198.40115 241.137294 
L 201.303289 240.022778 
L 204.205428 238.901589 
L 207.107567 237.773152 
L 210.009706 236.660022 
L 212.911845 235.547246 
L 215.813984 234.434304 
L 218.716123 233.296966 
L 221.618262 232.171162 
L 224.520401 231.054148 
L 227.42254 229.935288 
L 230.324679 228.821223 
L 233.226818 227.693833 
L 236.128957 226.567589 
L 239.031096 225.445544 
L 241.933235 224.328798 
L 244.835374 223.204312 
L 247.737513 222.086956 
L 250.639652 220.957585 
L 253.541791 219.840247 
L 256.44393 218.703932 
L 259.34607 217.593101 
L 262.248209 216.465599 
L 265.150348 215.342479 
L 268.052487 214.217255 
L 270.954626 213.078311 
L 273.856765 211.961759 
L 276.758904 210.848501 
L 279.661043 209.731315 
L 282.563182 208.598076 
L 285.465321 207.456441 
L 288.36746 206.329081 
L 291.269599 205.199448 
L 294.171738 204.083119 
L 297.073877 202.962566 
L 299.976016 201.836549 
L 302.878155 200.70738 
L 305.780294 199.567407 
L 308.682433 198.43123 
L 311.584572 197.31047 
L 314.486711 196.18057 
L 317.38885 195.056102 
L 320.290989 193.914044 
L 323.193128 192.799455 
L 326.095267 191.666011 
L 328.997406 190.533061 
L 331.899545 189.405332 
L 334.801684 188.267972 
L 337.703824 187.128635 
L 340.605963 185.994031 
L 343.508102 184.871656 
L 346.410241 183.744953 
L 349.31238 182.62121 
L 352.214519 181.508051 
L 355.116658 180.372478 
L 358.018797 179.248424 
L 360.920936 178.132629 
L 363.823075 176.997629 
L 366.725214 175.874756 
L 369.627353 174.741183 
L 372.529492 173.611435 
L 375.431631 172.470263 
L 378.33377 171.355233 
L 381.235909 170.229837 
L 384.138048 169.104464 
L 387.040187 167.978154 
L 389.942326 166.841822 
L 392.844465 165.717538 
L 395.746604 164.587653 
L 398.648743 163.45828 
L 401.550882 162.324966 
L 404.453021 161.199111 
L 407.35516 160.073322 
L 410.257299 158.928757 
L 413.159439 157.798936 
L 416.061578 156.692434 
L 418.963717 155.558776 
L 421.865856 154.443211 
L 424.767995 153.295345 
L 427.670134 152.169181 
L 430.572273 151.047524 
" clip-path="url(#p68d9538483)" style="fill: none; stroke: #55a868; stroke-width: 3; stroke-linecap: round"/>
   </g>
   <g id="line2d_18">
    <path d="M 85.217727 281.833404 
L 88.119866 281.748615 
L 91.022005 281.662236 
L 93.924144 281.575751 
L 96.826283 279.362444 
L 99.728422 277.092611 
L 102.630561 274.828141 
L 105.532701 272.539147 
L 108.43484 270.311268 
L 111.336979 268.072032 
L 114.239118 265.813729 
L 117.141257 263.551929 
L 120.043396 261.38976 
L 122.945535 259.200351 
L 125.847674 256.996593 
L 128.749813 254.765566 
L 131.651952 252.534753 
L 134.554091 250.28652 
L 137.45623 248.075091 
L 140.358369 245.868575 
L 143.260508 243.669864 
L 146.162647 241.453567 
L 149.064786 239.245717 
L 151.966925 237.046083 
L 154.869064 234.927168 
L 157.771203 232.762037 
L 160.673342 230.596585 
L 163.575481 228.415463 
L 166.47762 226.239848 
L 169.379759 224.038067 
L 172.281898 221.841112 
L 175.184037 219.637156 
L 178.086176 217.44282 
L 180.988316 215.233005 
L 183.890455 213.029716 
L 186.792594 210.79124 
L 189.694733 208.646729 
L 192.596872 206.479099 
L 195.499011 204.291112 
L 198.40115 202.100228 
L 201.303289 199.908231 
L 204.205428 197.70696 
L 207.107567 195.527928 
L 210.009706 193.327392 
L 212.911845 191.119932 
L 215.813984 188.909705 
L 218.716123 186.692679 
L 221.618262 184.480143 
L 224.520401 182.337431 
L 227.42254 180.151767 
L 230.324679 177.96068 
L 233.226818 175.770602 
L 236.128957 173.591504 
L 239.031096 171.386633 
L 241.933235 169.177751 
L 244.835374 166.969824 
L 247.737513 164.751232 
L 250.639652 162.531666 
L 253.541791 160.321726 
L 256.44393 158.096162 
L 259.34607 155.970473 
L 262.248209 153.799051 
L 265.150348 151.620434 
L 268.052487 149.431914 
L 270.954626 147.227893 
L 273.856765 145.016385 
L 276.758904 142.814446 
L 279.661043 140.604844 
L 282.563182 138.405232 
L 285.465321 136.187648 
L 288.36746 133.970783 
L 291.269599 131.748429 
L 294.171738 129.620813 
L 297.073877 127.458075 
L 299.976016 125.284589 
L 302.878155 123.088933 
L 305.780294 120.89061 
L 308.682433 118.678163 
L 311.584572 116.463288 
L 314.486711 114.242471 
L 317.38885 112.053198 
L 320.290989 109.828462 
L 323.193128 107.595407 
L 326.095267 105.355181 
L 328.997406 103.214836 
L 331.899545 101.052811 
L 334.801684 98.875938 
L 337.703824 96.680269 
L 340.605963 94.470216 
L 343.508102 92.269719 
L 346.410241 90.051136 
L 349.31238 87.833849 
L 352.214519 85.62425 
L 355.116658 83.422457 
L 358.018797 81.200926 
L 360.920936 78.977072 
L 363.823075 76.836503 
L 366.725214 74.664445 
L 369.627353 72.487468 
L 372.529492 70.310725 
L 375.431631 68.103261 
L 378.33377 65.893257 
L 381.235909 63.685915 
L 384.138048 61.472945 
L 387.040187 59.265978 
L 389.942326 57.050172 
L 392.844465 54.848252 
L 395.746604 52.62213 
L 398.648743 50.474942 
L 401.550882 48.304408 
L 404.453021 46.116467 
L 407.35516 43.921855 
L 410.257299 41.73361 
L 413.159439 39.521634 
L 416.061578 37.313454 
L 418.963717 35.092838 
L 421.865856 32.886623 
L 424.767995 30.657829 
L 427.670134 28.43714 
L 430.572273 26.21451 
" clip-path="url(#p68d9538483)" style="fill: none; stroke: #c44e52; stroke-width: 3; stroke-linecap: round"/>
   </g>
   <g id="patch_3">
    <path d="M 67.95 294.66 
L 67.95 12.96 
" style="fill: none; stroke: #ffffff; stroke-width: 1.25; stroke-linejoin: miter; stroke-linecap: square"/>
   </g>
   <g id="patch_4">
    <path d="M 447.84 294.66 
L 447.84 12.96 
" style="fill: none; stroke: #ffffff; stroke-width: 1.25; stroke-linejoin: miter; stroke-linecap: square"/>
   </g>
   <g id="patch_5">
    <path d="M 67.95 294.66 
L 447.84 294.66 
" style="fill: none; stroke: #ffffff; stroke-width: 1.25; stroke-linejoin: miter; stroke-linecap: square"/>
   </g>
   <g id="patch_6">
    <path d="M 67.95 12.96 
L 447.84 12.96 
" style="fill: none; stroke: #ffffff; stroke-width: 1.25; stroke-linejoin: miter; stroke-linecap: square"/>
   </g>
   <g id="legend_1">
    <g id="patch_7">
     <path d="M 75.65 86.34375 
L 223.477969 86.34375 
Q 225.677969 86.34375 225.677969 84.14375 
L 225.677969 20.66 
Q 225.677969 18.46 223.477969 18.46 
L 75.65 18.46 
Q 73.45 18.46 73.45 20.66 
L 73.45 84.14375 
Q 73.45 86.34375 75.65 86.34375 
z
" style="fill: #eaeaf2; opacity: 0.8; stroke: #cccccc; stroke-linejoin: miter"/>
    </g>
    <g id="line2d_19">
     <path d="M 77.85 27.368281 
L 88.85 27.368281 
L 99.85 27.368281 
" style="fill: none; stroke: #4c72b0; stroke-width: 3; stroke-linecap: round"/>
    </g>
    <g id="text_17">
     <!-- DCAC-DELAY-1-16C -->
     <g style="fill: #262626" transform="translate(108.65 31.218281)scale(0.11 -0.11)">
      <defs>
       <path id="DejaVuSans-44" d="M 1259 4147 
L 1259 519 
L 2022 519 
Q 2988 519 3436 956 
Q 3884 1394 3884 2338 
Q 3884 3275 3436 3711 
Q 2988 4147 2022 4147 
L 1259 4147 
z
M 628 4666 
L 1925 4666 
Q 3281 4666 3915 4102 
Q 4550 3538 4550 2338 
Q 4550 1131 3912 565 
Q 3275 0 1925 0 
L 628 0 
L 628 4666 
z
" transform="scale(0.015625)"/>
       <path id="DejaVuSans-43" d="M 4122 4306 
L 4122 3641 
Q 3803 3938 3442 4084 
Q 3081 4231 2675 4231 
Q 1875 4231 1450 3742 
Q 1025 3253 1025 2328 
Q 1025 1406 1450 917 
Q 1875 428 2675 428 
Q 3081 428 3442 575 
Q 3803 722 4122 1019 
L 4122 359 
Q 3791 134 3420 21 
Q 3050 -91 2638 -91 
Q 1578 -91 968 557 
Q 359 1206 359 2328 
Q 359 3453 968 4101 
Q 1578 4750 2638 4750 
Q 3056 4750 3426 4639 
Q 3797 4528 4122 4306 
z
" transform="scale(0.015625)"/>
       <path id="DejaVuSans-41" d="M 2188 4044 
L 1331 1722 
L 3047 1722 
L 2188 4044 
z
M 1831 4666 
L 2547 4666 
L 4325 0 
L 3669 0 
L 3244 1197 
L 1141 1197 
L 716 0 
L 50 0 
L 1831 4666 
z
" transform="scale(0.015625)"/>
       <path id="DejaVuSans-2d" d="M 313 2009 
L 1997 2009 
L 1997 1497 
L 313 1497 
L 313 2009 
z
" transform="scale(0.015625)"/>
       <path id="DejaVuSans-45" d="M 628 4666 
L 3578 4666 
L 3578 4134 
L 1259 4134 
L 1259 2753 
L 3481 2753 
L 3481 2222 
L 1259 2222 
L 1259 531 
L 3634 531 
L 3634 0 
L 628 0 
L 628 4666 
z
" transform="scale(0.015625)"/>
       <path id="DejaVuSans-4c" d="M 628 4666 
L 1259 4666 
L 1259 531 
L 3531 531 
L 3531 0 
L 628 0 
L 628 4666 
z
" transform="scale(0.015625)"/>
       <path id="DejaVuSans-59" d="M -13 4666 
L 666 4666 
L 1959 2747 
L 3244 4666 
L 3922 4666 
L 2272 2222 
L 2272 0 
L 1638 0 
L 1638 2222 
L -13 4666 
z
" transform="scale(0.015625)"/>
      </defs>
      <use xlink:href="#DejaVuSans-44"/>
      <use xlink:href="#DejaVuSans-43" x="77.001953"/>
      <use xlink:href="#DejaVuSans-41" x="146.826172"/>
      <use xlink:href="#DejaVuSans-43" x="213.484375"/>
      <use xlink:href="#DejaVuSans-2d" x="283.308594"/>
      <use xlink:href="#DejaVuSans-44" x="319.392578"/>
      <use xlink:href="#DejaVuSans-45" x="396.394531"/>
      <use xlink:href="#DejaVuSans-4c" x="459.578125"/>
      <use xlink:href="#DejaVuSans-41" x="517.541016"/>
      <use xlink:href="#DejaVuSans-59" x="578.199219"/>
      <use xlink:href="#DejaVuSans-2d" x="627.408203"/>
      <use xlink:href="#DejaVuSans-31" x="663.492188"/>
      <use xlink:href="#DejaVuSans-2d" x="727.115234"/>
      <use xlink:href="#DejaVuSans-31" x="763.199219"/>
      <use xlink:href="#DejaVuSans-36" x="826.822266"/>
      <use xlink:href="#DejaVuSans-43" x="890.445312"/>
     </g>
    </g>
    <g id="line2d_20">
     <path d="M 77.85 43.514219 
L 88.85 43.514219 
L 99.85 43.514219 
" style="fill: none; stroke: #dd8452; stroke-width: 3; stroke-linecap: round"/>
    </g>
    <g id="text_18">
     <!-- DCAC-DELAY-5-16C -->
     <g style="fill: #262626" transform="translate(108.65 47.364219)scale(0.11 -0.11)">
      <use xlink:href="#DejaVuSans-44"/>
      <use xlink:href="#DejaVuSans-43" x="77.001953"/>
      <use xlink:href="#DejaVuSans-41" x="146.826172"/>
      <use xlink:href="#DejaVuSans-43" x="213.484375"/>
      <use xlink:href="#DejaVuSans-2d" x="283.308594"/>
      <use xlink:href="#DejaVuSans-44" x="319.392578"/>
      <use xlink:href="#DejaVuSans-45" x="396.394531"/>
      <use xlink:href="#DejaVuSans-4c" x="459.578125"/>
      <use xlink:href="#DejaVuSans-41" x="517.541016"/>
      <use xlink:href="#DejaVuSans-59" x="578.199219"/>
      <use xlink:href="#DejaVuSans-2d" x="627.408203"/>
      <use xlink:href="#DejaVuSans-35" x="663.492188"/>
      <use xlink:href="#DejaVuSans-2d" x="727.115234"/>
      <use xlink:href="#DejaVuSans-31" x="763.199219"/>
      <use xlink:href="#DejaVuSans-36" x="826.822266"/>
      <use xlink:href="#DejaVuSans-43" x="890.445312"/>
     </g>
    </g>
    <g id="line2d_21">
     <path d="M 77.85 59.660156 
L 88.85 59.660156 
L 99.85 59.660156 
" style="fill: none; stroke: #55a868; stroke-width: 3; stroke-linecap: round"/>
    </g>
    <g id="text_19">
     <!-- DCAC-DELAY-10-16C -->
     <g style="fill: #262626" transform="translate(108.65 63.510156)scale(0.11 -0.11)">
      <use xlink:href="#DejaVuSans-44"/>
      <use xlink:href="#DejaVuSans-43" x="77.001953"/>
      <use xlink:href="#DejaVuSans-41" x="146.826172"/>
      <use xlink:href="#DejaVuSans-43" x="213.484375"/>
      <use xlink:href="#DejaVuSans-2d" x="283.308594"/>
      <use xlink:href="#DejaVuSans-44" x="319.392578"/>
      <use xlink:href="#DejaVuSans-45" x="396.394531"/>
      <use xlink:href="#DejaVuSans-4c" x="459.578125"/>
      <use xlink:href="#DejaVuSans-41" x="517.541016"/>
      <use xlink:href="#DejaVuSans-59" x="578.199219"/>
      <use xlink:href="#DejaVuSans-2d" x="627.408203"/>
      <use xlink:href="#DejaVuSans-31" x="663.492188"/>
      <use xlink:href="#DejaVuSans-30" x="727.115234"/>
      <use xlink:href="#DejaVuSans-2d" x="790.738281"/>
      <use xlink:href="#DejaVuSans-31" x="826.822266"/>
      <use xlink:href="#DejaVuSans-36" x="890.445312"/>
      <use xlink:href="#DejaVuSans-43" x="954.068359"/>
     </g>
    </g>
    <g id="line2d_22">
     <path d="M 77.85 75.806094 
L 88.85 75.806094 
L 99.85 75.806094 
" style="fill: none; stroke: #c44e52; stroke-width: 3; stroke-linecap: round"/>
    </g>
    <g id="text_20">
     <!-- DCAC-DELAY-20-16C -->
     <g style="fill: #262626" transform="translate(108.65 79.656094)scale(0.11 -0.11)">
      <use xlink:href="#DejaVuSans-44"/>
      <use xlink:href="#DejaVuSans-43" x="77.001953"/>
      <use xlink:href="#DejaVuSans-41" x="146.826172"/>
      <use xlink:href="#DejaVuSans-43" x="213.484375"/>
      <use xlink:href="#DejaVuSans-2d" x="283.308594"/>
      <use xlink:href="#DejaVuSans-44" x="319.392578"/>
      <use xlink:href="#DejaVuSans-45" x="396.394531"/>
      <use xlink:href="#DejaVuSans-4c" x="459.578125"/>
      <use xlink:href="#DejaVuSans-41" x="517.541016"/>
      <use xlink:href="#DejaVuSans-59" x="578.199219"/>
      <use xlink:href="#DejaVuSans-2d" x="627.408203"/>
      <use xlink:href="#DejaVuSans-32" x="663.492188"/>
      <use xlink:href="#DejaVuSans-30" x="727.115234"/>
      <use xlink:href="#DejaVuSans-2d" x="790.738281"/>
      <use xlink:href="#DejaVuSans-31" x="826.822266"/>
      <use xlink:href="#DejaVuSans-36" x="890.445312"/>
      <use xlink:href="#DejaVuSans-43" x="954.068359"/>
     </g>
    </g>
   </g>
  </g>
 </g>
 <defs>
  <clipPath id="p68d9538483">
   <rect x="67.95" y="12.96" width="379.89" height="281.7"/>
  </clipPath>
 </defs>
</svg>
