<?xml version="1.0" encoding="utf-8" standalone="no"?>
<!DOCTYPE svg PUBLIC "-//W3C//DTD SVG 1.1//EN"
  "http://www.w3.org/Graphics/SVG/1.1/DTD/svg11.dtd">
<svg xmlns:xlink="http://www.w3.org/1999/xlink" width="460.8pt" height="345.6pt" viewBox="0 0 460.8 345.6" xmlns="http://www.w3.org/2000/svg" version="1.1">
 <metadata>
  <rdf:RDF xmlns:dc="http://purl.org/dc/elements/1.1/" xmlns:cc="http://creativecommons.org/ns#" xmlns:rdf="http://www.w3.org/1999/02/22-rdf-syntax-ns#">
   <cc:Work>
    <dc:type rdf:resource="http://purl.org/dc/dcmitype/StillImage"/>
    <dc:date>2022-09-12T15:22:03.145876</dc:date>
    <dc:format>image/svg+xml</dc:format>
    <dc:creator>
     <cc:Agent>
      <dc:title>Matplotlib v3.5.3, https://matplotlib.org/</dc:title>
     </cc:Agent>
    </dc:creator>
   </cc:Work>
  </rdf:RDF>
 </metadata>
 <defs>
  <style type="text/css">*{stroke-linejoin: round; stroke-linecap: butt}</style>
 </defs>
 <g id="figure_1">
  <g id="patch_1">
   <path d="M 0 345.6 
L 460.8 345.6 
L 460.8 0 
L 0 0 
z
" style="fill: #ffffff"/>
  </g>
  <g id="axes_1">
   <g id="patch_2">
    <path d="M 74.88 294.66 
L 447.84 294.66 
L 447.84 12.96 
L 74.88 12.96 
z
" style="fill: #eaeaf2"/>
   </g>
   <g id="matplotlib.axis_1">
    <g id="xtick_1">
     <g id="line2d_1">
      <path d="M 88.983529 294.66 
L 88.983529 12.96 
" clip-path="url(#pe911870b9b)" style="fill: none; stroke: #ffffff; stroke-linecap: round"/>
     </g>
     <g id="text_1">
      <!-- 0.00 -->
      <g style="fill: #262626" transform="translate(76.737436 312.518281)scale(0.11 -0.11)">
       <defs>
        <path id="DejaVuSans-30" d="M 2034 4250 
Q 1547 4250 1301 3770 
Q 1056 3291 1056 2328 
Q 1056 1369 1301 889 
Q 1547 409 2034 409 
Q 2525 409 2770 889 
Q 3016 1369 3016 2328 
Q 3016 3291 2770 3770 
Q 2525 4250 2034 4250 
z
M 2034 4750 
Q 2819 4750 3233 4129 
Q 3647 3509 3647 2328 
Q 3647 1150 3233 529 
Q 2819 -91 2034 -91 
Q 1250 -91 836 529 
Q 422 1150 422 2328 
Q 422 3509 836 4129 
Q 1250 4750 2034 4750 
z
" transform="scale(0.015625)"/>
        <path id="DejaVuSans-2e" d="M 684 794 
L 1344 794 
L 1344 0 
L 684 0 
L 684 794 
z
" transform="scale(0.015625)"/>
       </defs>
       <use xlink:href="#DejaVuSans-30"/>
       <use xlink:href="#DejaVuSans-2e" x="63.623047"/>
       <use xlink:href="#DejaVuSans-30" x="95.410156"/>
       <use xlink:href="#DejaVuSans-30" x="159.033203"/>
      </g>
     </g>
    </g>
    <g id="xtick_2">
     <g id="line2d_2">
      <path d="M 145.967487 294.66 
L 145.967487 12.96 
" clip-path="url(#pe911870b9b)" style="fill: none; stroke: #ffffff; stroke-linecap: round"/>
     </g>
     <g id="text_2">
      <!-- 0.05 -->
      <g style="fill: #262626" transform="translate(133.721393 312.518281)scale(0.11 -0.11)">
       <defs>
        <path id="DejaVuSans-35" d="M 691 4666 
L 3169 4666 
L 3169 4134 
L 1269 4134 
L 1269 2991 
Q 1406 3038 1543 3061 
Q 1681 3084 1819 3084 
Q 2600 3084 3056 2656 
Q 3513 2228 3513 1497 
Q 3513 744 3044 326 
Q 2575 -91 1722 -91 
Q 1428 -91 1123 -41 
Q 819 9 494 109 
L 494 744 
Q 775 591 1075 516 
Q 1375 441 1709 441 
Q 2250 441 2565 725 
Q 2881 1009 2881 1497 
Q 2881 1984 2565 2268 
Q 2250 2553 1709 2553 
Q 1456 2553 1204 2497 
Q 953 2441 691 2322 
L 691 4666 
z
" transform="scale(0.015625)"/>
       </defs>
       <use xlink:href="#DejaVuSans-30"/>
       <use xlink:href="#DejaVuSans-2e" x="63.623047"/>
       <use xlink:href="#DejaVuSans-30" x="95.410156"/>
       <use xlink:href="#DejaVuSans-35" x="159.033203"/>
      </g>
     </g>
    </g>
    <g id="xtick_3">
     <g id="line2d_3">
      <path d="M 202.951444 294.66 
L 202.951444 12.96 
" clip-path="url(#pe911870b9b)" style="fill: none; stroke: #ffffff; stroke-linecap: round"/>
     </g>
     <g id="text_3">
      <!-- 0.10 -->
      <g style="fill: #262626" transform="translate(190.70535 312.518281)scale(0.11 -0.11)">
       <defs>
        <path id="DejaVuSans-31" d="M 794 531 
L 1825 531 
L 1825 4091 
L 703 3866 
L 703 4441 
L 1819 4666 
L 2450 4666 
L 2450 531 
L 3481 531 
L 3481 0 
L 794 0 
L 794 531 
z
" transform="scale(0.015625)"/>
       </defs>
       <use xlink:href="#DejaVuSans-30"/>
       <use xlink:href="#DejaVuSans-2e" x="63.623047"/>
       <use xlink:href="#DejaVuSans-31" x="95.410156"/>
       <use xlink:href="#DejaVuSans-30" x="159.033203"/>
      </g>
     </g>
    </g>
    <g id="xtick_4">
     <g id="line2d_4">
      <path d="M 259.935401 294.66 
L 259.935401 12.96 
" clip-path="url(#pe911870b9b)" style="fill: none; stroke: #ffffff; stroke-linecap: round"/>
     </g>
     <g id="text_4">
      <!-- 0.15 -->
      <g style="fill: #262626" transform="translate(247.689307 312.518281)scale(0.11 -0.11)">
       <use xlink:href="#DejaVuSans-30"/>
       <use xlink:href="#DejaVuSans-2e" x="63.623047"/>
       <use xlink:href="#DejaVuSans-31" x="95.410156"/>
       <use xlink:href="#DejaVuSans-35" x="159.033203"/>
      </g>
     </g>
    </g>
    <g id="xtick_5">
     <g id="line2d_5">
      <path d="M 316.919358 294.66 
L 316.919358 12.96 
" clip-path="url(#pe911870b9b)" style="fill: none; stroke: #ffffff; stroke-linecap: round"/>
     </g>
     <g id="text_5">
      <!-- 0.20 -->
      <g style="fill: #262626" transform="translate(304.673265 312.518281)scale(0.11 -0.11)">
       <defs>
        <path id="DejaVuSans-32" d="M 1228 531 
L 3431 531 
L 3431 0 
L 469 0 
L 469 531 
Q 828 903 1448 1529 
Q 2069 2156 2228 2338 
Q 2531 2678 2651 2914 
Q 2772 3150 2772 3378 
Q 2772 3750 2511 3984 
Q 2250 4219 1831 4219 
Q 1534 4219 1204 4116 
Q 875 4013 500 3803 
L 500 4441 
Q 881 4594 1212 4672 
Q 1544 4750 1819 4750 
Q 2544 4750 2975 4387 
Q 3406 4025 3406 3419 
Q 3406 3131 3298 2873 
Q 3191 2616 2906 2266 
Q 2828 2175 2409 1742 
Q 1991 1309 1228 531 
z
" transform="scale(0.015625)"/>
       </defs>
       <use xlink:href="#DejaVuSans-30"/>
       <use xlink:href="#DejaVuSans-2e" x="63.623047"/>
       <use xlink:href="#DejaVuSans-32" x="95.410156"/>
       <use xlink:href="#DejaVuSans-30" x="159.033203"/>
      </g>
     </g>
    </g>
    <g id="xtick_6">
     <g id="line2d_6">
      <path d="M 373.903316 294.66 
L 373.903316 12.96 
" clip-path="url(#pe911870b9b)" style="fill: none; stroke: #ffffff; stroke-linecap: round"/>
     </g>
     <g id="text_6">
      <!-- 0.25 -->
      <g style="fill: #262626" transform="translate(361.657222 312.518281)scale(0.11 -0.11)">
       <use xlink:href="#DejaVuSans-30"/>
       <use xlink:href="#DejaVuSans-2e" x="63.623047"/>
       <use xlink:href="#DejaVuSans-32" x="95.410156"/>
       <use xlink:href="#DejaVuSans-35" x="159.033203"/>
      </g>
     </g>
    </g>
    <g id="xtick_7">
     <g id="line2d_7">
      <path d="M 430.887273 294.66 
L 430.887273 12.96 
" clip-path="url(#pe911870b9b)" style="fill: none; stroke: #ffffff; stroke-linecap: round"/>
     </g>
     <g id="text_7">
      <!-- 0.30 -->
      <g style="fill: #262626" transform="translate(418.641179 312.518281)scale(0.11 -0.11)">
       <defs>
        <path id="DejaVuSans-33" d="M 2597 2516 
Q 3050 2419 3304 2112 
Q 3559 1806 3559 1356 
Q 3559 666 3084 287 
Q 2609 -91 1734 -91 
Q 1441 -91 1130 -33 
Q 819 25 488 141 
L 488 750 
Q 750 597 1062 519 
Q 1375 441 1716 441 
Q 2309 441 2620 675 
Q 2931 909 2931 1356 
Q 2931 1769 2642 2001 
Q 2353 2234 1838 2234 
L 1294 2234 
L 1294 2753 
L 1863 2753 
Q 2328 2753 2575 2939 
Q 2822 3125 2822 3475 
Q 2822 3834 2567 4026 
Q 2313 4219 1838 4219 
Q 1578 4219 1281 4162 
Q 984 4106 628 3988 
L 628 4550 
Q 988 4650 1302 4700 
Q 1616 4750 1894 4750 
Q 2613 4750 3031 4423 
Q 3450 4097 3450 3541 
Q 3450 3153 3228 2886 
Q 3006 2619 2597 2516 
z
" transform="scale(0.015625)"/>
       </defs>
       <use xlink:href="#DejaVuSans-30"/>
       <use xlink:href="#DejaVuSans-2e" x="63.623047"/>
       <use xlink:href="#DejaVuSans-33" x="95.410156"/>
       <use xlink:href="#DejaVuSans-30" x="159.033203"/>
      </g>
     </g>
    </g>
    <g id="text_8">
     <!-- Zeitschritte (in Millionen) -->
     <g style="fill: #262626" transform="translate(173.445469 329.44375)scale(0.14 -0.14)">
      <defs>
       <path id="DejaVuSans-5a" d="M 359 4666 
L 4025 4666 
L 4025 4184 
L 1075 531 
L 4097 531 
L 4097 0 
L 288 0 
L 288 481 
L 3238 4134 
L 359 4134 
L 359 4666 
z
" transform="scale(0.015625)"/>
       <path id="DejaVuSans-65" d="M 3597 1894 
L 3597 1613 
L 953 1613 
Q 991 1019 1311 708 
Q 1631 397 2203 397 
Q 2534 397 2845 478 
Q 3156 559 3463 722 
L 3463 178 
Q 3153 47 2828 -22 
Q 2503 -91 2169 -91 
Q 1331 -91 842 396 
Q 353 884 353 1716 
Q 353 2575 817 3079 
Q 1281 3584 2069 3584 
Q 2775 3584 3186 3129 
Q 3597 2675 3597 1894 
z
M 3022 2063 
Q 3016 2534 2758 2815 
Q 2500 3097 2075 3097 
Q 1594 3097 1305 2825 
Q 1016 2553 972 2059 
L 3022 2063 
z
" transform="scale(0.015625)"/>
       <path id="DejaVuSans-69" d="M 603 3500 
L 1178 3500 
L 1178 0 
L 603 0 
L 603 3500 
z
M 603 4863 
L 1178 4863 
L 1178 4134 
L 603 4134 
L 603 4863 
z
" transform="scale(0.015625)"/>
       <path id="DejaVuSans-74" d="M 1172 4494 
L 1172 3500 
L 2356 3500 
L 2356 3053 
L 1172 3053 
L 1172 1153 
Q 1172 725 1289 603 
Q 1406 481 1766 481 
L 2356 481 
L 2356 0 
L 1766 0 
Q 1100 0 847 248 
Q 594 497 594 1153 
L 594 3053 
L 172 3053 
L 172 3500 
L 594 3500 
L 594 4494 
L 1172 4494 
z
" transform="scale(0.015625)"/>
       <path id="DejaVuSans-73" d="M 2834 3397 
L 2834 2853 
Q 2591 2978 2328 3040 
Q 2066 3103 1784 3103 
Q 1356 3103 1142 2972 
Q 928 2841 928 2578 
Q 928 2378 1081 2264 
Q 1234 2150 1697 2047 
L 1894 2003 
Q 2506 1872 2764 1633 
Q 3022 1394 3022 966 
Q 3022 478 2636 193 
Q 2250 -91 1575 -91 
Q 1294 -91 989 -36 
Q 684 19 347 128 
L 347 722 
Q 666 556 975 473 
Q 1284 391 1588 391 
Q 1994 391 2212 530 
Q 2431 669 2431 922 
Q 2431 1156 2273 1281 
Q 2116 1406 1581 1522 
L 1381 1569 
Q 847 1681 609 1914 
Q 372 2147 372 2553 
Q 372 3047 722 3315 
Q 1072 3584 1716 3584 
Q 2034 3584 2315 3537 
Q 2597 3491 2834 3397 
z
" transform="scale(0.015625)"/>
       <path id="DejaVuSans-63" d="M 3122 3366 
L 3122 2828 
Q 2878 2963 2633 3030 
Q 2388 3097 2138 3097 
Q 1578 3097 1268 2742 
Q 959 2388 959 1747 
Q 959 1106 1268 751 
Q 1578 397 2138 397 
Q 2388 397 2633 464 
Q 2878 531 3122 666 
L 3122 134 
Q 2881 22 2623 -34 
Q 2366 -91 2075 -91 
Q 1284 -91 818 406 
Q 353 903 353 1747 
Q 353 2603 823 3093 
Q 1294 3584 2113 3584 
Q 2378 3584 2631 3529 
Q 2884 3475 3122 3366 
z
" transform="scale(0.015625)"/>
       <path id="DejaVuSans-68" d="M 3513 2113 
L 3513 0 
L 2938 0 
L 2938 2094 
Q 2938 2591 2744 2837 
Q 2550 3084 2163 3084 
Q 1697 3084 1428 2787 
Q 1159 2491 1159 1978 
L 1159 0 
L 581 0 
L 581 4863 
L 1159 4863 
L 1159 2956 
Q 1366 3272 1645 3428 
Q 1925 3584 2291 3584 
Q 2894 3584 3203 3211 
Q 3513 2838 3513 2113 
z
" transform="scale(0.015625)"/>
       <path id="DejaVuSans-72" d="M 2631 2963 
Q 2534 3019 2420 3045 
Q 2306 3072 2169 3072 
Q 1681 3072 1420 2755 
Q 1159 2438 1159 1844 
L 1159 0 
L 581 0 
L 581 3500 
L 1159 3500 
L 1159 2956 
Q 1341 3275 1631 3429 
Q 1922 3584 2338 3584 
Q 2397 3584 2469 3576 
Q 2541 3569 2628 3553 
L 2631 2963 
z
" transform="scale(0.015625)"/>
       <path id="DejaVuSans-20" transform="scale(0.015625)"/>
       <path id="DejaVuSans-28" d="M 1984 4856 
Q 1566 4138 1362 3434 
Q 1159 2731 1159 2009 
Q 1159 1288 1364 580 
Q 1569 -128 1984 -844 
L 1484 -844 
Q 1016 -109 783 600 
Q 550 1309 550 2009 
Q 550 2706 781 3412 
Q 1013 4119 1484 4856 
L 1984 4856 
z
" transform="scale(0.015625)"/>
       <path id="DejaVuSans-6e" d="M 3513 2113 
L 3513 0 
L 2938 0 
L 2938 2094 
Q 2938 2591 2744 2837 
Q 2550 3084 2163 3084 
Q 1697 3084 1428 2787 
Q 1159 2491 1159 1978 
L 1159 0 
L 581 0 
L 581 3500 
L 1159 3500 
L 1159 2956 
Q 1366 3272 1645 3428 
Q 1925 3584 2291 3584 
Q 2894 3584 3203 3211 
Q 3513 2838 3513 2113 
z
" transform="scale(0.015625)"/>
       <path id="DejaVuSans-4d" d="M 628 4666 
L 1569 4666 
L 2759 1491 
L 3956 4666 
L 4897 4666 
L 4897 0 
L 4281 0 
L 4281 4097 
L 3078 897 
L 2444 897 
L 1241 4097 
L 1241 0 
L 628 0 
L 628 4666 
z
" transform="scale(0.015625)"/>
       <path id="DejaVuSans-6c" d="M 603 4863 
L 1178 4863 
L 1178 0 
L 603 0 
L 603 4863 
z
" transform="scale(0.015625)"/>
       <path id="DejaVuSans-6f" d="M 1959 3097 
Q 1497 3097 1228 2736 
Q 959 2375 959 1747 
Q 959 1119 1226 758 
Q 1494 397 1959 397 
Q 2419 397 2687 759 
Q 2956 1122 2956 1747 
Q 2956 2369 2687 2733 
Q 2419 3097 1959 3097 
z
M 1959 3584 
Q 2709 3584 3137 3096 
Q 3566 2609 3566 1747 
Q 3566 888 3137 398 
Q 2709 -91 1959 -91 
Q 1206 -91 779 398 
Q 353 888 353 1747 
Q 353 2609 779 3096 
Q 1206 3584 1959 3584 
z
" transform="scale(0.015625)"/>
       <path id="DejaVuSans-29" d="M 513 4856 
L 1013 4856 
Q 1481 4119 1714 3412 
Q 1947 2706 1947 2009 
Q 1947 1309 1714 600 
Q 1481 -109 1013 -844 
L 513 -844 
Q 928 -128 1133 580 
Q 1338 1288 1338 2009 
Q 1338 2731 1133 3434 
Q 928 4138 513 4856 
z
" transform="scale(0.015625)"/>
      </defs>
      <use xlink:href="#DejaVuSans-5a"/>
      <use xlink:href="#DejaVuSans-65" x="68.505859"/>
      <use xlink:href="#DejaVuSans-69" x="130.029297"/>
      <use xlink:href="#DejaVuSans-74" x="157.8125"/>
      <use xlink:href="#DejaVuSans-73" x="197.021484"/>
      <use xlink:href="#DejaVuSans-63" x="249.121094"/>
      <use xlink:href="#DejaVuSans-68" x="304.101562"/>
      <use xlink:href="#DejaVuSans-72" x="367.480469"/>
      <use xlink:href="#DejaVuSans-69" x="408.59375"/>
      <use xlink:href="#DejaVuSans-74" x="436.376953"/>
      <use xlink:href="#DejaVuSans-74" x="475.585938"/>
      <use xlink:href="#DejaVuSans-65" x="514.794922"/>
      <use xlink:href="#DejaVuSans-20" x="576.318359"/>
      <use xlink:href="#DejaVuSans-28" x="608.105469"/>
      <use xlink:href="#DejaVuSans-69" x="647.119141"/>
      <use xlink:href="#DejaVuSans-6e" x="674.902344"/>
      <use xlink:href="#DejaVuSans-20" x="738.28125"/>
      <use xlink:href="#DejaVuSans-4d" x="770.068359"/>
      <use xlink:href="#DejaVuSans-69" x="856.347656"/>
      <use xlink:href="#DejaVuSans-6c" x="884.130859"/>
      <use xlink:href="#DejaVuSans-6c" x="911.914062"/>
      <use xlink:href="#DejaVuSans-69" x="939.697266"/>
      <use xlink:href="#DejaVuSans-6f" x="967.480469"/>
      <use xlink:href="#DejaVuSans-6e" x="1028.662109"/>
      <use xlink:href="#DejaVuSans-65" x="1092.041016"/>
      <use xlink:href="#DejaVuSans-6e" x="1153.564453"/>
      <use xlink:href="#DejaVuSans-29" x="1216.943359"/>
     </g>
    </g>
   </g>
   <g id="matplotlib.axis_2">
    <g id="ytick_1">
     <g id="line2d_8">
      <path d="M 74.88 281.857757 
L 447.84 281.857757 
" clip-path="url(#pe911870b9b)" style="fill: none; stroke: #ffffff; stroke-linecap: round"/>
     </g>
     <g id="text_9">
      <!-- 0 -->
      <g style="fill: #262626" transform="translate(58.38125 286.036898)scale(0.11 -0.11)">
       <use xlink:href="#DejaVuSans-30"/>
      </g>
     </g>
    </g>
    <g id="ytick_2">
     <g id="line2d_9">
      <path d="M 74.88 238.918511 
L 447.84 238.918511 
" clip-path="url(#pe911870b9b)" style="fill: none; stroke: #ffffff; stroke-linecap: round"/>
     </g>
     <g id="text_10">
      <!-- 10000 -->
      <g style="fill: #262626" transform="translate(30.38625 243.097651)scale(0.11 -0.11)">
       <use xlink:href="#DejaVuSans-31"/>
       <use xlink:href="#DejaVuSans-30" x="63.623047"/>
       <use xlink:href="#DejaVuSans-30" x="127.246094"/>
       <use xlink:href="#DejaVuSans-30" x="190.869141"/>
       <use xlink:href="#DejaVuSans-30" x="254.492188"/>
      </g>
     </g>
    </g>
    <g id="ytick_3">
     <g id="line2d_10">
      <path d="M 74.88 195.979264 
L 447.84 195.979264 
" clip-path="url(#pe911870b9b)" style="fill: none; stroke: #ffffff; stroke-linecap: round"/>
     </g>
     <g id="text_11">
      <!-- 20000 -->
      <g style="fill: #262626" transform="translate(30.38625 200.158405)scale(0.11 -0.11)">
       <use xlink:href="#DejaVuSans-32"/>
       <use xlink:href="#DejaVuSans-30" x="63.623047"/>
       <use xlink:href="#DejaVuSans-30" x="127.246094"/>
       <use xlink:href="#DejaVuSans-30" x="190.869141"/>
       <use xlink:href="#DejaVuSans-30" x="254.492188"/>
      </g>
     </g>
    </g>
    <g id="ytick_4">
     <g id="line2d_11">
      <path d="M 74.88 153.040017 
L 447.84 153.040017 
" clip-path="url(#pe911870b9b)" style="fill: none; stroke: #ffffff; stroke-linecap: round"/>
     </g>
     <g id="text_12">
      <!-- 30000 -->
      <g style="fill: #262626" transform="translate(30.38625 157.219158)scale(0.11 -0.11)">
       <use xlink:href="#DejaVuSans-33"/>
       <use xlink:href="#DejaVuSans-30" x="63.623047"/>
       <use xlink:href="#DejaVuSans-30" x="127.246094"/>
       <use xlink:href="#DejaVuSans-30" x="190.869141"/>
       <use xlink:href="#DejaVuSans-30" x="254.492188"/>
      </g>
     </g>
    </g>
    <g id="ytick_5">
     <g id="line2d_12">
      <path d="M 74.88 110.100771 
L 447.84 110.100771 
" clip-path="url(#pe911870b9b)" style="fill: none; stroke: #ffffff; stroke-linecap: round"/>
     </g>
     <g id="text_13">
      <!-- 40000 -->
      <g style="fill: #262626" transform="translate(30.38625 114.279911)scale(0.11 -0.11)">
       <defs>
        <path id="DejaVuSans-34" d="M 2419 4116 
L 825 1625 
L 2419 1625 
L 2419 4116 
z
M 2253 4666 
L 3047 4666 
L 3047 1625 
L 3713 1625 
L 3713 1100 
L 3047 1100 
L 3047 0 
L 2419 0 
L 2419 1100 
L 313 1100 
L 313 1709 
L 2253 4666 
z
" transform="scale(0.015625)"/>
       </defs>
       <use xlink:href="#DejaVuSans-34"/>
       <use xlink:href="#DejaVuSans-30" x="63.623047"/>
       <use xlink:href="#DejaVuSans-30" x="127.246094"/>
       <use xlink:href="#DejaVuSans-30" x="190.869141"/>
       <use xlink:href="#DejaVuSans-30" x="254.492188"/>
      </g>
     </g>
    </g>
    <g id="ytick_6">
     <g id="line2d_13">
      <path d="M 74.88 67.161524 
L 447.84 67.161524 
" clip-path="url(#pe911870b9b)" style="fill: none; stroke: #ffffff; stroke-linecap: round"/>
     </g>
     <g id="text_14">
      <!-- 50000 -->
      <g style="fill: #262626" transform="translate(30.38625 71.340665)scale(0.11 -0.11)">
       <use xlink:href="#DejaVuSans-35"/>
       <use xlink:href="#DejaVuSans-30" x="63.623047"/>
       <use xlink:href="#DejaVuSans-30" x="127.246094"/>
       <use xlink:href="#DejaVuSans-30" x="190.869141"/>
       <use xlink:href="#DejaVuSans-30" x="254.492188"/>
      </g>
     </g>
    </g>
    <g id="ytick_7">
     <g id="line2d_14">
      <path d="M 74.88 24.222278 
L 447.84 24.222278 
" clip-path="url(#pe911870b9b)" style="fill: none; stroke: #ffffff; stroke-linecap: round"/>
     </g>
     <g id="text_15">
      <!-- 60000 -->
      <g style="fill: #262626" transform="translate(30.38625 28.401418)scale(0.11 -0.11)">
       <defs>
        <path id="DejaVuSans-36" d="M 2113 2584 
Q 1688 2584 1439 2293 
Q 1191 2003 1191 1497 
Q 1191 994 1439 701 
Q 1688 409 2113 409 
Q 2538 409 2786 701 
Q 3034 994 3034 1497 
Q 3034 2003 2786 2293 
Q 2538 2584 2113 2584 
z
M 3366 4563 
L 3366 3988 
Q 3128 4100 2886 4159 
Q 2644 4219 2406 4219 
Q 1781 4219 1451 3797 
Q 1122 3375 1075 2522 
Q 1259 2794 1537 2939 
Q 1816 3084 2150 3084 
Q 2853 3084 3261 2657 
Q 3669 2231 3669 1497 
Q 3669 778 3244 343 
Q 2819 -91 2113 -91 
Q 1303 -91 875 529 
Q 447 1150 447 2328 
Q 447 3434 972 4092 
Q 1497 4750 2381 4750 
Q 2619 4750 2861 4703 
Q 3103 4656 3366 4563 
z
" transform="scale(0.015625)"/>
       </defs>
       <use xlink:href="#DejaVuSans-36"/>
       <use xlink:href="#DejaVuSans-30" x="63.623047"/>
       <use xlink:href="#DejaVuSans-30" x="127.246094"/>
       <use xlink:href="#DejaVuSans-30" x="190.869141"/>
       <use xlink:href="#DejaVuSans-30" x="254.492188"/>
      </g>
     </g>
    </g>
    <g id="text_16">
     <!-- Trainingszeit (in Minuten) -->
     <g style="fill: #262626" transform="translate(23.474688 242.379688)rotate(-90)scale(0.14 -0.14)">
      <defs>
       <path id="DejaVuSans-54" d="M -19 4666 
L 3928 4666 
L 3928 4134 
L 2272 4134 
L 2272 0 
L 1638 0 
L 1638 4134 
L -19 4134 
L -19 4666 
z
" transform="scale(0.015625)"/>
       <path id="DejaVuSans-61" d="M 2194 1759 
Q 1497 1759 1228 1600 
Q 959 1441 959 1056 
Q 959 750 1161 570 
Q 1363 391 1709 391 
Q 2188 391 2477 730 
Q 2766 1069 2766 1631 
L 2766 1759 
L 2194 1759 
z
M 3341 1997 
L 3341 0 
L 2766 0 
L 2766 531 
Q 2569 213 2275 61 
Q 1981 -91 1556 -91 
Q 1019 -91 701 211 
Q 384 513 384 1019 
Q 384 1609 779 1909 
Q 1175 2209 1959 2209 
L 2766 2209 
L 2766 2266 
Q 2766 2663 2505 2880 
Q 2244 3097 1772 3097 
Q 1472 3097 1187 3025 
Q 903 2953 641 2809 
L 641 3341 
Q 956 3463 1253 3523 
Q 1550 3584 1831 3584 
Q 2591 3584 2966 3190 
Q 3341 2797 3341 1997 
z
" transform="scale(0.015625)"/>
       <path id="DejaVuSans-67" d="M 2906 1791 
Q 2906 2416 2648 2759 
Q 2391 3103 1925 3103 
Q 1463 3103 1205 2759 
Q 947 2416 947 1791 
Q 947 1169 1205 825 
Q 1463 481 1925 481 
Q 2391 481 2648 825 
Q 2906 1169 2906 1791 
z
M 3481 434 
Q 3481 -459 3084 -895 
Q 2688 -1331 1869 -1331 
Q 1566 -1331 1297 -1286 
Q 1028 -1241 775 -1147 
L 775 -588 
Q 1028 -725 1275 -790 
Q 1522 -856 1778 -856 
Q 2344 -856 2625 -561 
Q 2906 -266 2906 331 
L 2906 616 
Q 2728 306 2450 153 
Q 2172 0 1784 0 
Q 1141 0 747 490 
Q 353 981 353 1791 
Q 353 2603 747 3093 
Q 1141 3584 1784 3584 
Q 2172 3584 2450 3431 
Q 2728 3278 2906 2969 
L 2906 3500 
L 3481 3500 
L 3481 434 
z
" transform="scale(0.015625)"/>
       <path id="DejaVuSans-7a" d="M 353 3500 
L 3084 3500 
L 3084 2975 
L 922 459 
L 3084 459 
L 3084 0 
L 275 0 
L 275 525 
L 2438 3041 
L 353 3041 
L 353 3500 
z
" transform="scale(0.015625)"/>
       <path id="DejaVuSans-75" d="M 544 1381 
L 544 3500 
L 1119 3500 
L 1119 1403 
Q 1119 906 1312 657 
Q 1506 409 1894 409 
Q 2359 409 2629 706 
Q 2900 1003 2900 1516 
L 2900 3500 
L 3475 3500 
L 3475 0 
L 2900 0 
L 2900 538 
Q 2691 219 2414 64 
Q 2138 -91 1772 -91 
Q 1169 -91 856 284 
Q 544 659 544 1381 
z
M 1991 3584 
L 1991 3584 
z
" transform="scale(0.015625)"/>
      </defs>
      <use xlink:href="#DejaVuSans-54"/>
      <use xlink:href="#DejaVuSans-72" x="46.333984"/>
      <use xlink:href="#DejaVuSans-61" x="87.447266"/>
      <use xlink:href="#DejaVuSans-69" x="148.726562"/>
      <use xlink:href="#DejaVuSans-6e" x="176.509766"/>
      <use xlink:href="#DejaVuSans-69" x="239.888672"/>
      <use xlink:href="#DejaVuSans-6e" x="267.671875"/>
      <use xlink:href="#DejaVuSans-67" x="331.050781"/>
      <use xlink:href="#DejaVuSans-73" x="394.527344"/>
      <use xlink:href="#DejaVuSans-7a" x="446.626953"/>
      <use xlink:href="#DejaVuSans-65" x="499.117188"/>
      <use xlink:href="#DejaVuSans-69" x="560.640625"/>
      <use xlink:href="#DejaVuSans-74" x="588.423828"/>
      <use xlink:href="#DejaVuSans-20" x="627.632812"/>
      <use xlink:href="#DejaVuSans-28" x="659.419922"/>
      <use xlink:href="#DejaVuSans-69" x="698.433594"/>
      <use xlink:href="#DejaVuSans-6e" x="726.216797"/>
      <use xlink:href="#DejaVuSans-20" x="789.595703"/>
      <use xlink:href="#DejaVuSans-4d" x="821.382812"/>
      <use xlink:href="#DejaVuSans-69" x="907.662109"/>
      <use xlink:href="#DejaVuSans-6e" x="935.445312"/>
      <use xlink:href="#DejaVuSans-75" x="998.824219"/>
      <use xlink:href="#DejaVuSans-74" x="1062.203125"/>
      <use xlink:href="#DejaVuSans-65" x="1101.412109"/>
      <use xlink:href="#DejaVuSans-6e" x="1162.935547"/>
      <use xlink:href="#DejaVuSans-29" x="1226.314453"/>
     </g>
    </g>
   </g>
   <g id="PolyCollection_1">
    <defs>
     <path id="m921fb478cb" d="M 91.832727 -63.744545 
L 91.832727 -63.744771 
L 94.681925 -63.747217 
L 97.531123 -63.749667 
L 100.380321 -63.752142 
L 103.229519 -63.773102 
L 106.078717 -63.793648 
L 108.927914 -63.814272 
L 111.777112 -63.835894 
L 114.62631 -63.856521 
L 117.475508 -63.877154 
L 120.324706 -63.897832 
L 123.173904 -63.918735 
L 126.023102 -63.939242 
L 128.872299 -63.959699 
L 131.721497 -63.980507 
L 134.570695 -64.001532 
L 137.419893 -64.022162 
L 140.269091 -64.043102 
L 143.118289 -64.063767 
L 145.967487 -64.084432 
L 148.816684 -64.1058 
L 151.665882 -64.126619 
L 154.51508 -64.147296 
L 157.364278 -64.167796 
L 160.213476 -64.18824 
L 163.062674 -64.209104 
L 165.911872 -64.229061 
L 168.76107 -64.250184 
L 171.610267 -64.270868 
L 174.459465 -64.291661 
L 177.308663 -64.312033 
L 180.157861 -64.332862 
L 183.007059 -64.353697 
L 185.856257 -64.374266 
L 188.705455 -64.394907 
L 191.554652 -64.415316 
L 194.40385 -64.436116 
L 197.253048 -64.456505 
L 200.102246 -64.477258 
L 202.951444 -64.497506 
L 205.800642 -64.518389 
L 208.64984 -64.5394 
L 211.499037 -64.56081 
L 214.348235 -64.581305 
L 217.197433 -64.602021 
L 220.046631 -64.622544 
L 222.895829 -64.643136 
L 225.745027 -64.664094 
L 228.594225 -64.685042 
L 231.443422 -64.705249 
L 234.29262 -64.726462 
L 237.141818 -64.747652 
L 239.991016 -64.768363 
L 242.840214 -64.789376 
L 245.689412 -64.809978 
L 248.53861 -64.83036 
L 251.387807 -64.851121 
L 254.237005 -64.871412 
L 257.086203 -64.892306 
L 259.935401 -64.912669 
L 262.784599 -64.933321 
L 265.633797 -64.954041 
L 268.482995 -64.974711 
L 271.332193 -64.995188 
L 274.18139 -65.015425 
L 277.030588 -65.035999 
L 279.879786 -65.056712 
L 282.728984 -65.076834 
L 285.578182 -65.096842 
L 288.42738 -65.116981 
L 291.276578 -65.13768 
L 294.125775 -65.157674 
L 296.974973 -65.178335 
L 299.824171 -65.198529 
L 302.673369 -65.218747 
L 305.522567 -65.238937 
L 308.371765 -65.260061 
L 311.220963 -65.280557 
L 314.07016 -65.301589 
L 316.919358 -65.322303 
L 319.768556 -65.342386 
L 322.617754 -65.362955 
L 325.466952 -65.383653 
L 328.31615 -65.404918 
L 331.165348 -65.425283 
L 334.014545 -65.446241 
L 336.863743 -65.466898 
L 339.712941 -65.487512 
L 342.562139 -65.508458 
L 345.411337 -65.528569 
L 348.260535 -65.548774 
L 351.109733 -65.568981 
L 353.95893 -65.589021 
L 356.808128 -65.610224 
L 359.657326 -65.630566 
L 362.506524 -65.65094 
L 365.355722 -65.67154 
L 368.20492 -65.691613 
L 371.054118 -65.712235 
L 373.903316 -65.732797 
L 376.752513 -65.753451 
L 379.601711 -65.774464 
L 382.450909 -65.795592 
L 385.300107 -65.81577 
L 388.149305 -65.836461 
L 390.998503 -65.857131 
L 393.847701 -65.877266 
L 396.696898 -65.897811 
L 399.546096 -65.91846 
L 402.395294 -65.939341 
L 405.244492 -65.959888 
L 408.09369 -65.980084 
L 410.942888 -66.000522 
L 413.792086 -66.020747 
L 416.641283 -66.040831 
L 419.490481 -66.060985 
L 422.339679 -66.081639 
L 425.188877 -66.102053 
L 428.038075 -66.123002 
L 430.887273 -66.144146 
L 430.887273 -66.094898 
L 430.887273 -66.094898 
L 428.038075 -66.074885 
L 425.188877 -66.05513 
L 422.339679 -66.034777 
L 419.490481 -66.015022 
L 416.641283 -65.99509 
L 413.792086 -65.975174 
L 410.942888 -65.954993 
L 408.09369 -65.935232 
L 405.244492 -65.915231 
L 402.395294 -65.895102 
L 399.546096 -65.874436 
L 396.696898 -65.854207 
L 393.847701 -65.834564 
L 390.998503 -65.814583 
L 388.149305 -65.794399 
L 385.300107 -65.773817 
L 382.450909 -65.753539 
L 379.601711 -65.733449 
L 376.752513 -65.713512 
L 373.903316 -65.693291 
L 371.054118 -65.673344 
L 368.20492 -65.653405 
L 365.355722 -65.633297 
L 362.506524 -65.612934 
L 359.657326 -65.592828 
L 356.808128 -65.572741 
L 353.95893 -65.552652 
L 351.109733 -65.532177 
L 348.260535 -65.511873 
L 345.411337 -65.492148 
L 342.562139 -65.472201 
L 339.712941 -65.451911 
L 336.863743 -65.43145 
L 334.014545 -65.411259 
L 331.165348 -65.391078 
L 328.31615 -65.370722 
L 325.466952 -65.350554 
L 322.617754 -65.330106 
L 319.768556 -65.309569 
L 316.919358 -65.289503 
L 314.07016 -65.269129 
L 311.220963 -65.249219 
L 308.371765 -65.228776 
L 305.522567 -65.208752 
L 302.673369 -65.187863 
L 299.824171 -65.167716 
L 296.974973 -65.147311 
L 294.125775 -65.12733 
L 291.276578 -65.106951 
L 288.42738 -65.086564 
L 285.578182 -65.06585 
L 282.728984 -65.045505 
L 279.879786 -65.025642 
L 277.030588 -65.005674 
L 274.18139 -64.98612 
L 271.332193 -64.965986 
L 268.482995 -64.945915 
L 265.633797 -64.925316 
L 262.784599 -64.905204 
L 259.935401 -64.885194 
L 257.086203 -64.864779 
L 254.237005 -64.844345 
L 251.387807 -64.824122 
L 248.53861 -64.803769 
L 245.689412 -64.783361 
L 242.840214 -64.763389 
L 239.991016 -64.74266 
L 237.141818 -64.721924 
L 234.29262 -64.701583 
L 231.443422 -64.681623 
L 228.594225 -64.661606 
L 225.745027 -64.641068 
L 222.895829 -64.620765 
L 220.046631 -64.600654 
L 217.197433 -64.580803 
L 214.348235 -64.560776 
L 211.499037 -64.540558 
L 208.64984 -64.52067 
L 205.800642 -64.500673 
L 202.951444 -64.480275 
L 200.102246 -64.460054 
L 197.253048 -64.439977 
L 194.40385 -64.419946 
L 191.554652 -64.399777 
L 188.705455 -64.379715 
L 185.856257 -64.36013 
L 183.007059 -64.340091 
L 180.157861 -64.319711 
L 177.308663 -64.299199 
L 174.459465 -64.278999 
L 171.610267 -64.258556 
L 168.76107 -64.238251 
L 165.911872 -64.217501 
L 163.062674 -64.197138 
L 160.213476 -64.17716 
L 157.364278 -64.157263 
L 154.51508 -64.137383 
L 151.665882 -64.117409 
L 148.816684 -64.097236 
L 145.967487 -64.077087 
L 143.118289 -64.056726 
L 140.269091 -64.035736 
L 137.419893 -64.015262 
L 134.570695 -63.995226 
L 131.721497 -63.975288 
L 128.872299 -63.955028 
L 126.023102 -63.934952 
L 123.173904 -63.914891 
L 120.324706 -63.894797 
L 117.475508 -63.874447 
L 114.62631 -63.853654 
L 111.777112 -63.833592 
L 108.927914 -63.813343 
L 106.078717 -63.792729 
L 103.229519 -63.7723 
L 100.380321 -63.751541 
L 97.531123 -63.749221 
L 94.681925 -63.74691 
L 91.832727 -63.744545 
z
" style="stroke: #ffffff; stroke-opacity: 0.5"/>
    </defs>
    <g clip-path="url(#pe911870b9b)">
     <use xlink:href="#m921fb478cb" x="0" y="345.6" style="fill: #4c72b0; fill-opacity: 0.5; stroke: #ffffff; stroke-opacity: 0.5"/>
    </g>
   </g>
   <g id="PolyCollection_2">
    <defs>
     <path id="md39e2bec42" d="M 91.832727 -63.747538 
L 91.832727 -63.747852 
L 94.681925 -63.754213 
L 97.531123 -63.760844 
L 100.380321 -63.767163 
L 103.229519 -63.803138 
L 106.078717 -63.839077 
L 108.927914 -63.874562 
L 111.777112 -63.90995 
L 114.62631 -63.945618 
L 117.475508 -63.981114 
L 120.324706 -64.017258 
L 123.173904 -64.052438 
L 126.023102 -64.087393 
L 128.872299 -64.123074 
L 131.721497 -64.159413 
L 134.570695 -64.195798 
L 137.419893 -64.231481 
L 140.269091 -64.267157 
L 143.118289 -64.302902 
L 145.967487 -64.338657 
L 148.816684 -64.37531 
L 151.665882 -64.411465 
L 154.51508 -64.446519 
L 157.364278 -64.481562 
L 160.213476 -64.51663 
L 163.062674 -64.552384 
L 165.911872 -64.588354 
L 168.76107 -64.624439 
L 171.610267 -64.660206 
L 174.459465 -64.696924 
L 177.308663 -64.732898 
L 180.157861 -64.768537 
L 183.007059 -64.804996 
L 185.856257 -64.841983 
L 188.705455 -64.878887 
L 191.554652 -64.914905 
L 194.40385 -64.949595 
L 197.253048 -64.985902 
L 200.102246 -65.02271 
L 202.951444 -65.059628 
L 205.800642 -65.095265 
L 208.64984 -65.131107 
L 211.499037 -65.167419 
L 214.348235 -65.204028 
L 217.197433 -65.240228 
L 220.046631 -65.27593 
L 222.895829 -65.31162 
L 225.745027 -65.347564 
L 228.594225 -65.384046 
L 231.443422 -65.419802 
L 234.29262 -65.455089 
L 237.141818 -65.4904 
L 239.991016 -65.525703 
L 242.840214 -65.561541 
L 245.689412 -65.597496 
L 248.53861 -65.633197 
L 251.387807 -65.669061 
L 254.237005 -65.704502 
L 257.086203 -65.741627 
L 259.935401 -65.777325 
L 262.784599 -65.812759 
L 265.633797 -65.847895 
L 268.482995 -65.883508 
L 271.332193 -65.919448 
L 274.18139 -65.954695 
L 277.030588 -65.990348 
L 279.879786 -66.026149 
L 282.728984 -66.062353 
L 285.578182 -66.098167 
L 288.42738 -66.133985 
L 291.276578 -66.171042 
L 294.125775 -66.206971 
L 296.974973 -66.243054 
L 299.824171 -66.278623 
L 302.673369 -66.314166 
L 305.522567 -66.350522 
L 308.371765 -66.38615 
L 311.220963 -66.42146 
L 314.07016 -66.456558 
L 316.919358 -66.492215 
L 319.768556 -66.527992 
L 322.617754 -66.562875 
L 325.466952 -66.59854 
L 328.31615 -66.6339 
L 331.165348 -66.668238 
L 334.014545 -66.703021 
L 336.863743 -66.738004 
L 339.712941 -66.774051 
L 342.562139 -66.808858 
L 345.411337 -66.843895 
L 348.260535 -66.879725 
L 351.109733 -66.915082 
L 353.95893 -66.949883 
L 356.808128 -66.984894 
L 359.657326 -67.020737 
L 362.506524 -67.055859 
L 365.355722 -67.091679 
L 368.20492 -67.126726 
L 371.054118 -67.161361 
L 373.903316 -67.195839 
L 376.752513 -67.23132 
L 379.601711 -67.266702 
L 382.450909 -67.302437 
L 385.300107 -67.338144 
L 388.149305 -67.373132 
L 390.998503 -67.407641 
L 393.847701 -67.443205 
L 396.696898 -67.478752 
L 399.546096 -67.513292 
L 402.395294 -67.548268 
L 405.244492 -67.582558 
L 408.09369 -67.61835 
L 410.942888 -67.653353 
L 413.792086 -67.688461 
L 416.641283 -67.723419 
L 419.490481 -67.758736 
L 422.339679 -67.793085 
L 425.188877 -67.828194 
L 428.038075 -67.864875 
L 430.887273 -67.900363 
L 430.887273 -67.897223 
L 430.887273 -67.897223 
L 428.038075 -67.861037 
L 425.188877 -67.824976 
L 422.339679 -67.788767 
L 419.490481 -67.752567 
L 416.641283 -67.71719 
L 413.792086 -67.681525 
L 410.942888 -67.645787 
L 408.09369 -67.610316 
L 405.244492 -67.575037 
L 402.395294 -67.539134 
L 399.546096 -67.503514 
L 396.696898 -67.467228 
L 393.847701 -67.431487 
L 390.998503 -67.395152 
L 388.149305 -67.360159 
L 385.300107 -67.324856 
L 382.450909 -67.289757 
L 379.601711 -67.253628 
L 376.752513 -67.218451 
L 373.903316 -67.183219 
L 371.054118 -67.147866 
L 368.20492 -67.112469 
L 365.355722 -67.076935 
L 362.506524 -67.041429 
L 359.657326 -67.005849 
L 356.808128 -66.970101 
L 353.95893 -66.934956 
L 351.109733 -66.899555 
L 348.260535 -66.864334 
L 345.411337 -66.829581 
L 342.562139 -66.793515 
L 339.712941 -66.758218 
L 336.863743 -66.722782 
L 334.014545 -66.687114 
L 331.165348 -66.652249 
L 328.31615 -66.616514 
L 325.466952 -66.580963 
L 322.617754 -66.544178 
L 319.768556 -66.50904 
L 316.919358 -66.473847 
L 314.07016 -66.438254 
L 311.220963 -66.403329 
L 308.371765 -66.367968 
L 305.522567 -66.333822 
L 302.673369 -66.298831 
L 299.824171 -66.263416 
L 296.974973 -66.228162 
L 294.125775 -66.193078 
L 291.276578 -66.158034 
L 288.42738 -66.122545 
L 285.578182 -66.087528 
L 282.728984 -66.052285 
L 279.879786 -66.017593 
L 277.030588 -65.98197 
L 274.18139 -65.94685 
L 271.332193 -65.911736 
L 268.482995 -65.876501 
L 265.633797 -65.840778 
L 262.784599 -65.80484 
L 259.935401 -65.768316 
L 257.086203 -65.732677 
L 254.237005 -65.695707 
L 251.387807 -65.660125 
L 248.53861 -65.624408 
L 245.689412 -65.589213 
L 242.840214 -65.553678 
L 239.991016 -65.518019 
L 237.141818 -65.483089 
L 234.29262 -65.44757 
L 231.443422 -65.411826 
L 228.594225 -65.375579 
L 225.745027 -65.339632 
L 222.895829 -65.303451 
L 220.046631 -65.268193 
L 217.197433 -65.232154 
L 214.348235 -65.196457 
L 211.499037 -65.16084 
L 208.64984 -65.125122 
L 205.800642 -65.089706 
L 202.951444 -65.054934 
L 200.102246 -65.017967 
L 197.253048 -64.982175 
L 194.40385 -64.946422 
L 191.554652 -64.912049 
L 188.705455 -64.876263 
L 185.856257 -64.840237 
L 183.007059 -64.804267 
L 180.157861 -64.768504 
L 177.308663 -64.731615 
L 174.459465 -64.696205 
L 171.610267 -64.659664 
L 168.76107 -64.624138 
L 165.911872 -64.587986 
L 163.062674 -64.552295 
L 160.213476 -64.516334 
L 157.364278 -64.481463 
L 154.51508 -64.445142 
L 151.665882 -64.408774 
L 148.816684 -64.372395 
L 145.967487 -64.335913 
L 143.118289 -64.299455 
L 140.269091 -64.263674 
L 137.419893 -64.228032 
L 134.570695 -64.192465 
L 131.721497 -64.156276 
L 128.872299 -64.120423 
L 126.023102 -64.084573 
L 123.173904 -64.050858 
L 120.324706 -64.015426 
L 117.475508 -63.979733 
L 114.62631 -63.944121 
L 111.777112 -63.908417 
L 108.927914 -63.872645 
L 106.078717 -63.837281 
L 103.229519 -63.801713 
L 100.380321 -63.766376 
L 97.531123 -63.76004 
L 94.681925 -63.753645 
L 91.832727 -63.747538 
z
" style="stroke: #ffffff; stroke-opacity: 0.5"/>
    </defs>
    <g clip-path="url(#pe911870b9b)">
     <use xlink:href="#md39e2bec42" x="0" y="345.6" style="fill: #dd8452; fill-opacity: 0.5; stroke: #ffffff; stroke-opacity: 0.5"/>
    </g>
   </g>
   <g id="PolyCollection_3">
    <defs>
     <path id="m82d1c8eacb" d="M 91.832727 -63.748176 
L 91.832727 -63.748266 
L 94.681925 -63.75508 
L 97.531123 -63.762186 
L 100.380321 -63.769008 
L 103.229519 -63.836332 
L 106.078717 -63.903558 
L 108.927914 -63.970792 
L 111.777112 -64.037566 
L 114.62631 -64.104767 
L 117.475508 -64.1727 
L 120.324706 -64.240269 
L 123.173904 -64.308387 
L 126.023102 -64.372773 
L 128.872299 -64.438407 
L 131.721497 -64.505072 
L 134.570695 -64.572219 
L 137.419893 -64.638472 
L 140.269091 -64.704545 
L 143.118289 -64.769663 
L 145.967487 -64.836118 
L 148.816684 -64.901374 
L 151.665882 -64.967835 
L 154.51508 -65.032286 
L 157.364278 -65.097749 
L 160.213476 -65.161085 
L 163.062674 -65.226524 
L 165.911872 -65.291895 
L 168.76107 -65.357502 
L 171.610267 -65.424614 
L 174.459465 -65.491735 
L 177.308663 -65.559484 
L 180.157861 -65.626384 
L 183.007059 -65.693659 
L 185.856257 -65.762514 
L 188.705455 -65.829528 
L 191.554652 -65.897244 
L 194.40385 -65.961582 
L 197.253048 -66.027812 
L 200.102246 -66.095086 
L 202.951444 -66.162651 
L 205.800642 -66.229605 
L 208.64984 -66.297159 
L 211.499037 -66.364998 
L 214.348235 -66.43307 
L 217.197433 -66.499792 
L 220.046631 -66.56587 
L 222.895829 -66.633899 
L 225.745027 -66.700255 
L 228.594225 -66.76285 
L 231.443422 -66.825906 
L 234.29262 -66.890583 
L 237.141818 -66.956063 
L 239.991016 -67.020379 
L 242.840214 -67.085472 
L 245.689412 -67.150978 
L 248.53861 -67.216864 
L 251.387807 -67.282779 
L 254.237005 -67.349216 
L 257.086203 -67.414382 
L 259.935401 -67.478582 
L 262.784599 -67.543145 
L 265.633797 -67.608131 
L 268.482995 -67.673691 
L 271.332193 -67.740034 
L 274.18139 -67.805636 
L 277.030588 -67.871367 
L 279.879786 -67.936911 
L 282.728984 -68.002069 
L 285.578182 -68.069023 
L 288.42738 -68.135099 
L 291.276578 -68.200511 
L 294.125775 -68.266276 
L 296.974973 -68.330477 
L 299.824171 -68.39439 
L 302.673369 -68.458343 
L 305.522567 -68.524397 
L 308.371765 -68.588954 
L 311.220963 -68.655415 
L 314.07016 -68.720189 
L 316.919358 -68.785145 
L 319.768556 -68.851745 
L 322.617754 -68.917218 
L 325.466952 -68.982944 
L 328.31615 -69.048725 
L 331.165348 -69.113099 
L 334.014545 -69.177573 
L 336.863743 -69.242245 
L 339.712941 -69.308031 
L 342.562139 -69.37234 
L 345.411337 -69.438094 
L 348.260535 -69.502301 
L 351.109733 -69.56796 
L 353.95893 -69.634311 
L 356.808128 -69.700941 
L 359.657326 -69.765752 
L 362.506524 -69.831191 
L 365.355722 -69.895818 
L 368.20492 -69.960093 
L 371.054118 -70.024716 
L 373.903316 -70.089646 
L 376.752513 -70.155265 
L 379.601711 -70.220822 
L 382.450909 -70.285865 
L 385.300107 -70.350357 
L 388.149305 -70.416783 
L 390.998503 -70.481502 
L 393.847701 -70.547272 
L 396.696898 -70.612333 
L 399.546096 -70.676565 
L 402.395294 -70.74214 
L 405.244492 -70.807474 
L 408.09369 -70.872695 
L 410.942888 -70.938442 
L 413.792086 -71.003626 
L 416.641283 -71.069497 
L 419.490481 -71.135441 
L 422.339679 -71.202052 
L 425.188877 -71.268207 
L 428.038075 -71.333344 
L 430.887273 -71.398576 
L 430.887273 -71.37017 
L 430.887273 -71.37017 
L 428.038075 -71.305118 
L 425.188877 -71.239748 
L 422.339679 -71.174124 
L 419.490481 -71.107638 
L 416.641283 -71.042776 
L 413.792086 -70.976791 
L 410.942888 -70.910913 
L 408.09369 -70.845511 
L 405.244492 -70.780443 
L 402.395294 -70.715374 
L 399.546096 -70.650106 
L 396.696898 -70.585282 
L 393.847701 -70.519202 
L 390.998503 -70.453423 
L 388.149305 -70.387963 
L 385.300107 -70.320762 
L 382.450909 -70.254584 
L 379.601711 -70.189263 
L 376.752513 -70.123718 
L 373.903316 -70.058465 
L 371.054118 -69.992979 
L 368.20492 -69.927702 
L 365.355722 -69.863307 
L 362.506524 -69.798327 
L 359.657326 -69.733226 
L 356.808128 -69.667183 
L 353.95893 -69.600771 
L 351.109733 -69.533731 
L 348.260535 -69.466959 
L 345.411337 -69.401183 
L 342.562139 -69.335897 
L 339.712941 -69.27028 
L 336.863743 -69.206218 
L 334.014545 -69.142822 
L 331.165348 -69.07935 
L 328.31615 -69.015324 
L 325.466952 -68.949193 
L 322.617754 -68.883631 
L 319.768556 -68.817876 
L 316.919358 -68.750797 
L 314.07016 -68.685077 
L 311.220963 -68.618656 
L 308.371765 -68.552681 
L 305.522567 -68.487705 
L 302.673369 -68.422502 
L 299.824171 -68.357531 
L 296.974973 -68.29333 
L 294.125775 -68.229649 
L 291.276578 -68.164555 
L 288.42738 -68.098885 
L 285.578182 -68.032723 
L 282.728984 -67.966688 
L 279.879786 -67.90219 
L 277.030588 -67.83738 
L 274.18139 -67.771174 
L 271.332193 -67.705726 
L 268.482995 -67.639874 
L 265.633797 -67.574937 
L 262.784599 -67.51039 
L 259.935401 -67.446132 
L 257.086203 -67.380427 
L 254.237005 -67.315207 
L 251.387807 -67.250155 
L 248.53861 -67.183211 
L 245.689412 -67.118564 
L 242.840214 -67.05286 
L 239.991016 -66.986938 
L 237.141818 -66.923052 
L 234.29262 -66.85699 
L 231.443422 -66.79191 
L 228.594225 -66.727512 
L 225.745027 -66.663444 
L 222.895829 -66.598959 
L 220.046631 -66.532467 
L 217.197433 -66.46738 
L 214.348235 -66.401998 
L 211.499037 -66.335888 
L 208.64984 -66.270416 
L 205.800642 -66.205843 
L 202.951444 -66.141641 
L 200.102246 -66.077223 
L 197.253048 -66.011251 
L 194.40385 -65.946442 
L 191.554652 -65.883589 
L 188.705455 -65.818266 
L 185.856257 -65.752707 
L 183.007059 -65.685723 
L 180.157861 -65.620385 
L 177.308663 -65.554398 
L 174.459465 -65.488698 
L 171.610267 -65.422043 
L 168.76107 -65.355666 
L 165.911872 -65.29017 
L 163.062674 -65.225051 
L 160.213476 -65.159627 
L 157.364278 -65.096998 
L 154.51508 -65.031289 
L 151.665882 -64.964191 
L 148.816684 -64.896384 
L 145.967487 -64.828551 
L 143.118289 -64.761691 
L 140.269091 -64.694739 
L 137.419893 -64.629177 
L 134.570695 -64.563135 
L 131.721497 -64.496478 
L 128.872299 -64.430204 
L 126.023102 -64.364744 
L 123.173904 -64.300918 
L 120.324706 -64.234136 
L 117.475508 -64.166567 
L 114.62631 -64.10114 
L 111.777112 -64.033241 
L 108.927914 -63.966887 
L 106.078717 -63.900967 
L 103.229519 -63.835023 
L 100.380321 -63.768466 
L 97.531123 -63.761808 
L 94.681925 -63.754988 
L 91.832727 -63.748176 
z
" style="stroke: #ffffff; stroke-opacity: 0.5"/>
    </defs>
    <g clip-path="url(#pe911870b9b)">
     <use xlink:href="#m82d1c8eacb" x="0" y="345.6" style="fill: #55a868; fill-opacity: 0.5; stroke: #ffffff; stroke-opacity: 0.5"/>
    </g>
   </g>
   <g id="PolyCollection_4">
    <defs>
     <path id="m210c4f9c0a" d="M 91.832727 -63.748557 
L 91.832727 -63.748654 
L 94.681925 -63.755795 
L 97.531123 -63.763487 
L 100.380321 -63.770663 
L 103.229519 -63.884779 
L 106.078717 -63.998218 
L 108.927914 -64.11381 
L 111.777112 -64.226608 
L 114.62631 -64.340426 
L 117.475508 -64.456208 
L 120.324706 -64.572001 
L 123.173904 -64.684742 
L 126.023102 -64.792683 
L 128.872299 -64.904729 
L 131.721497 -65.015639 
L 134.570695 -65.126409 
L 137.419893 -65.237719 
L 140.269091 -65.3489 
L 143.118289 -65.46144 
L 145.967487 -65.574617 
L 148.816684 -65.686788 
L 151.665882 -65.79643 
L 154.51508 -65.907942 
L 157.364278 -66.019254 
L 160.213476 -66.130052 
L 163.062674 -66.240935 
L 165.911872 -66.353721 
L 168.76107 -66.463327 
L 171.610267 -66.575593 
L 174.459465 -66.688231 
L 177.308663 -66.802598 
L 180.157861 -66.914691 
L 183.007059 -67.027185 
L 185.856257 -67.140256 
L 188.705455 -67.251551 
L 191.554652 -67.364324 
L 194.40385 -67.474105 
L 197.253048 -67.589044 
L 200.102246 -67.699306 
L 202.951444 -67.812291 
L 205.800642 -67.923684 
L 208.64984 -68.035086 
L 211.499037 -68.147235 
L 214.348235 -68.257836 
L 217.197433 -68.369217 
L 220.046631 -68.480353 
L 222.895829 -68.592691 
L 225.745027 -68.706253 
L 228.594225 -68.817747 
L 231.443422 -68.929548 
L 234.29262 -69.039695 
L 237.141818 -69.153132 
L 239.991016 -69.265036 
L 242.840214 -69.377262 
L 245.689412 -69.488293 
L 248.53861 -69.600165 
L 251.387807 -69.711588 
L 254.237005 -69.823384 
L 257.086203 -69.935189 
L 259.935401 -70.048523 
L 262.784599 -70.159165 
L 265.633797 -70.272145 
L 268.482995 -70.382715 
L 271.332193 -70.494404 
L 274.18139 -70.6076 
L 277.030588 -70.719791 
L 279.879786 -70.829932 
L 282.728984 -70.940335 
L 285.578182 -71.053813 
L 288.42738 -71.166717 
L 291.276578 -71.278776 
L 294.125775 -71.391631 
L 296.974973 -71.501777 
L 299.824171 -71.612196 
L 302.673369 -71.723478 
L 305.522567 -71.835378 
L 308.371765 -71.949055 
L 311.220963 -72.060701 
L 314.07016 -72.172044 
L 316.919358 -72.284465 
L 319.768556 -72.39688 
L 322.617754 -72.510012 
L 325.466952 -72.620429 
L 328.31615 -72.732645 
L 331.165348 -72.845509 
L 334.014545 -72.958227 
L 336.863743 -73.070881 
L 339.712941 -73.183899 
L 342.562139 -73.295917 
L 345.411337 -73.40675 
L 348.260535 -73.518192 
L 351.109733 -73.628977 
L 353.95893 -73.738229 
L 356.808128 -73.850564 
L 359.657326 -73.960259 
L 362.506524 -74.071259 
L 365.355722 -74.183599 
L 368.20492 -74.296454 
L 371.054118 -74.410223 
L 373.903316 -74.521241 
L 376.752513 -74.633998 
L 379.601711 -74.745589 
L 382.450909 -74.857163 
L 385.300107 -74.9674 
L 388.149305 -75.078913 
L 390.998503 -75.192349 
L 393.847701 -75.304548 
L 396.696898 -75.417103 
L 399.546096 -75.528817 
L 402.395294 -75.64169 
L 405.244492 -75.753164 
L 408.09369 -75.86474 
L 410.942888 -75.977955 
L 413.792086 -76.090892 
L 416.641283 -76.200586 
L 419.490481 -76.313592 
L 422.339679 -76.425524 
L 425.188877 -76.539988 
L 428.038075 -76.652947 
L 430.887273 -76.763674 
L 430.887273 -76.682868 
L 430.887273 -76.682868 
L 428.038075 -76.571066 
L 425.188877 -76.460601 
L 422.339679 -76.347335 
L 419.490481 -76.237947 
L 416.641283 -76.126042 
L 413.792086 -76.016213 
L 410.942888 -75.905 
L 408.09369 -75.791142 
L 405.244492 -75.679368 
L 402.395294 -75.56748 
L 399.546096 -75.45551 
L 396.696898 -75.343164 
L 393.847701 -75.231557 
L 390.998503 -75.120705 
L 388.149305 -75.008699 
L 385.300107 -74.89676 
L 382.450909 -74.78373 
L 379.601711 -74.672033 
L 376.752513 -74.562409 
L 373.903316 -74.448764 
L 371.054118 -74.335648 
L 368.20492 -74.224523 
L 365.355722 -74.114607 
L 362.506524 -74.00177 
L 359.657326 -73.891403 
L 356.808128 -73.778093 
L 353.95893 -73.665138 
L 351.109733 -73.553546 
L 348.260535 -73.441388 
L 345.411337 -73.329299 
L 342.562139 -73.217459 
L 339.712941 -73.10438 
L 336.863743 -72.991361 
L 334.014545 -72.878369 
L 331.165348 -72.767353 
L 328.31615 -72.655447 
L 325.466952 -72.542795 
L 322.617754 -72.432084 
L 319.768556 -72.318639 
L 316.919358 -72.207967 
L 314.07016 -72.096222 
L 311.220963 -71.985214 
L 308.371765 -71.871449 
L 305.522567 -71.758963 
L 302.673369 -71.646844 
L 299.824171 -71.534731 
L 296.974973 -71.422839 
L 294.125775 -71.311512 
L 291.276578 -71.200256 
L 288.42738 -71.088654 
L 285.578182 -70.975064 
L 282.728984 -70.863715 
L 279.879786 -70.752475 
L 277.030588 -70.641753 
L 274.18139 -70.532427 
L 271.332193 -70.419664 
L 268.482995 -70.308115 
L 265.633797 -70.195866 
L 262.784599 -70.085156 
L 259.935401 -69.975416 
L 257.086203 -69.863312 
L 254.237005 -69.753445 
L 251.387807 -69.641181 
L 248.53861 -69.530927 
L 245.689412 -69.419709 
L 242.840214 -69.309184 
L 239.991016 -69.198804 
L 237.141818 -69.087268 
L 234.29262 -68.977038 
L 231.443422 -68.866162 
L 228.594225 -68.755988 
L 225.745027 -68.645873 
L 222.895829 -68.536083 
L 220.046631 -68.42278 
L 217.197433 -68.313115 
L 214.348235 -68.203728 
L 211.499037 -68.093492 
L 208.64984 -67.981766 
L 205.800642 -67.870731 
L 202.951444 -67.761012 
L 200.102246 -67.64962 
L 197.253048 -67.539811 
L 194.40385 -67.428744 
L 191.554652 -67.320836 
L 188.705455 -67.209145 
L 185.856257 -67.0986 
L 183.007059 -66.987162 
L 180.157861 -66.875443 
L 177.308663 -66.765677 
L 174.459465 -66.65518 
L 171.610267 -66.544981 
L 168.76107 -66.436347 
L 165.911872 -66.326644 
L 163.062674 -66.214753 
L 160.213476 -66.104423 
L 157.364278 -65.994605 
L 154.51508 -65.883801 
L 151.665882 -65.775185 
L 148.816684 -65.664349 
L 145.967487 -65.554521 
L 143.118289 -65.444535 
L 140.269091 -65.33471 
L 137.419893 -65.225596 
L 134.570695 -65.115767 
L 131.721497 -65.00418 
L 128.872299 -64.894289 
L 126.023102 -64.78233 
L 123.173904 -64.672515 
L 120.324706 -64.560298 
L 117.475508 -64.446684 
L 114.62631 -64.334025 
L 111.777112 -64.221243 
L 108.927914 -64.10919 
L 106.078717 -63.997765 
L 103.229519 -63.883029 
L 100.380321 -63.770429 
L 97.531123 -63.763103 
L 94.681925 -63.755723 
L 91.832727 -63.748557 
z
" style="stroke: #ffffff; stroke-opacity: 0.5"/>
    </defs>
    <g clip-path="url(#pe911870b9b)">
     <use xlink:href="#m210c4f9c0a" x="0" y="345.6" style="fill: #c44e52; fill-opacity: 0.5; stroke: #ffffff; stroke-opacity: 0.5"/>
    </g>
   </g>
   <g id="PolyCollection_5">
    <defs>
     <path id="m53ce90a682" d="M 91.832727 -63.749681 
L 91.832727 -63.74977 
L 94.681925 -63.758167 
L 97.531123 -63.766802 
L 100.380321 -63.775318 
L 103.229519 -63.995881 
L 106.078717 -64.221833 
L 108.927914 -64.446225 
L 111.777112 -64.673766 
L 114.62631 -64.898038 
L 117.475508 -65.125445 
L 120.324706 -65.355317 
L 123.173904 -65.584177 
L 126.023102 -65.801223 
L 128.872299 -66.02292 
L 131.721497 -66.245275 
L 134.570695 -66.470338 
L 137.419893 -66.697123 
L 140.269091 -66.923312 
L 143.118289 -67.143703 
L 145.967487 -67.361146 
L 148.816684 -67.578676 
L 151.665882 -67.797546 
L 154.51508 -68.016677 
L 157.364278 -68.232544 
L 160.213476 -68.443054 
L 163.062674 -68.657734 
L 165.911872 -68.872265 
L 168.76107 -69.08733 
L 171.610267 -69.303521 
L 174.459465 -69.519202 
L 177.308663 -69.735794 
L 180.157861 -69.953236 
L 183.007059 -70.170466 
L 185.856257 -70.38755 
L 188.705455 -70.605111 
L 191.554652 -70.8274 
L 194.40385 -71.039338 
L 197.253048 -71.253139 
L 200.102246 -71.468777 
L 202.951444 -71.687612 
L 205.800642 -71.904342 
L 208.64984 -72.122029 
L 211.499037 -72.339104 
L 214.348235 -72.556915 
L 217.197433 -72.776348 
L 220.046631 -72.996709 
L 222.895829 -73.218808 
L 225.745027 -73.439049 
L 228.594225 -73.65006 
L 231.443422 -73.866215 
L 234.29262 -74.082716 
L 237.141818 -74.299932 
L 239.991016 -74.516901 
L 242.840214 -74.735273 
L 245.689412 -74.952403 
L 248.53861 -75.170678 
L 251.387807 -75.390827 
L 254.237005 -75.612354 
L 257.086203 -75.831813 
L 259.935401 -76.053152 
L 262.784599 -76.264335 
L 265.633797 -76.478453 
L 268.482995 -76.693672 
L 271.332193 -76.910576 
L 274.18139 -77.12927 
L 277.030588 -77.347758 
L 279.879786 -77.567175 
L 282.728984 -77.788291 
L 285.578182 -78.007364 
L 288.42738 -78.227779 
L 291.276578 -78.447484 
L 294.125775 -78.668142 
L 296.974973 -78.879712 
L 299.824171 -79.094289 
L 302.673369 -79.309979 
L 305.522567 -79.528158 
L 308.371765 -79.747772 
L 311.220963 -79.967583 
L 314.07016 -80.188128 
L 316.919358 -80.408689 
L 319.768556 -80.624581 
L 322.617754 -80.845192 
L 325.466952 -81.066037 
L 328.31615 -81.28737 
L 331.165348 -81.499842 
L 334.014545 -81.715137 
L 336.863743 -81.930608 
L 339.712941 -82.149769 
L 342.562139 -82.369255 
L 345.411337 -82.587854 
L 348.260535 -82.80815 
L 351.109733 -83.028358 
L 353.95893 -83.247148 
L 356.808128 -83.46481 
L 359.657326 -83.685841 
L 362.506524 -83.906947 
L 365.355722 -84.118899 
L 368.20492 -84.334138 
L 371.054118 -84.551221 
L 373.903316 -84.768787 
L 376.752513 -84.988707 
L 379.601711 -85.20899 
L 382.450909 -85.428938 
L 385.300107 -85.648852 
L 388.149305 -85.868167 
L 390.998503 -86.087635 
L 393.847701 -86.30706 
L 396.696898 -86.527728 
L 399.546096 -86.741946 
L 402.395294 -86.958524 
L 405.244492 -87.175532 
L 408.09369 -87.394223 
L 410.942888 -87.611386 
L 413.792086 -87.830684 
L 416.641283 -88.050106 
L 419.490481 -88.269516 
L 422.339679 -88.48749 
L 425.188877 -88.710003 
L 428.038075 -88.93043 
L 430.887273 -89.150947 
L 430.887273 -89.061677 
L 430.887273 -89.061677 
L 428.038075 -88.841237 
L 425.188877 -88.621093 
L 422.339679 -88.401428 
L 419.490481 -88.181703 
L 416.641283 -87.960557 
L 413.792086 -87.74189 
L 410.942888 -87.522346 
L 408.09369 -87.305375 
L 405.244492 -87.088669 
L 402.395294 -86.871603 
L 399.546096 -86.657561 
L 396.696898 -86.44579 
L 393.847701 -86.22481 
L 390.998503 -86.007388 
L 388.149305 -85.787254 
L 385.300107 -85.56872 
L 382.450909 -85.349596 
L 379.601711 -85.131621 
L 376.752513 -84.913453 
L 373.903316 -84.695426 
L 371.054118 -84.48114 
L 368.20492 -84.266324 
L 365.355722 -84.050641 
L 362.506524 -83.837917 
L 359.657326 -83.617825 
L 356.808128 -83.398118 
L 353.95893 -83.178958 
L 351.109733 -82.959379 
L 348.260535 -82.739691 
L 345.411337 -82.519833 
L 342.562139 -82.301868 
L 339.712941 -82.082893 
L 336.863743 -81.866447 
L 334.014545 -81.650041 
L 331.165348 -81.436403 
L 328.31615 -81.224245 
L 325.466952 -81.001131 
L 322.617754 -80.778953 
L 319.768556 -80.558189 
L 316.919358 -80.339743 
L 314.07016 -80.119708 
L 311.220963 -79.900836 
L 308.371765 -79.681712 
L 305.522567 -79.465192 
L 302.673369 -79.247767 
L 299.824171 -79.032251 
L 296.974973 -78.817755 
L 294.125775 -78.607219 
L 291.276578 -78.386976 
L 288.42738 -78.166869 
L 285.578182 -77.947329 
L 282.728984 -77.730013 
L 279.879786 -77.512758 
L 277.030588 -77.295324 
L 274.18139 -77.075063 
L 271.332193 -76.856493 
L 268.482995 -76.639209 
L 265.633797 -76.422204 
L 262.784599 -76.205526 
L 259.935401 -75.994986 
L 257.086203 -75.774787 
L 254.237005 -75.555807 
L 251.387807 -75.336987 
L 248.53861 -75.116982 
L 245.689412 -74.897218 
L 242.840214 -74.676119 
L 239.991016 -74.457059 
L 237.141818 -74.241709 
L 234.29262 -74.024427 
L 231.443422 -73.80623 
L 228.594225 -73.588763 
L 225.745027 -73.374673 
L 222.895829 -73.155962 
L 220.046631 -72.938216 
L 217.197433 -72.720083 
L 214.348235 -72.50157 
L 211.499037 -72.282808 
L 208.64984 -72.067577 
L 205.800642 -71.848546 
L 202.951444 -71.630398 
L 200.102246 -71.414574 
L 197.253048 -71.19613 
L 194.40385 -70.979887 
L 191.554652 -70.766367 
L 188.705455 -70.544557 
L 185.856257 -70.324999 
L 183.007059 -70.10367 
L 180.157861 -69.885557 
L 177.308663 -69.665749 
L 174.459465 -69.446478 
L 171.610267 -69.22534 
L 168.76107 -69.009903 
L 165.911872 -68.792247 
L 163.062674 -68.577167 
L 160.213476 -68.362298 
L 157.364278 -68.152428 
L 154.51508 -67.931902 
L 151.665882 -67.71301 
L 148.816684 -67.49218 
L 145.967487 -67.2735 
L 143.118289 -67.053184 
L 140.269091 -66.834841 
L 137.419893 -66.614996 
L 134.570695 -66.399202 
L 131.721497 -66.181643 
L 128.872299 -65.966786 
L 126.023102 -65.754118 
L 123.173904 -65.542203 
L 120.324706 -65.322336 
L 117.475508 -65.104175 
L 114.62631 -64.887332 
L 111.777112 -64.669607 
L 108.927914 -64.443026 
L 106.078717 -64.218162 
L 103.229519 -63.993793 
L 100.380321 -63.77525 
L 97.531123 -63.766608 
L 94.681925 -63.758106 
L 91.832727 -63.749681 
z
" style="stroke: #ffffff; stroke-opacity: 0.5"/>
    </defs>
    <g clip-path="url(#pe911870b9b)">
     <use xlink:href="#m53ce90a682" x="0" y="345.6" style="fill: #8172b3; fill-opacity: 0.5; stroke: #ffffff; stroke-opacity: 0.5"/>
    </g>
   </g>
   <g id="PolyCollection_6">
    <defs>
     <path id="m5102e33616" d="M 91.832727 -63.757463 
L 91.832727 -63.757868 
L 94.681925 -63.77417 
L 97.531123 -63.790856 
L 100.380321 -63.807248 
L 103.229519 -66.007713 
L 106.078717 -68.146698 
L 108.927914 -70.284564 
L 111.777112 -72.477146 
L 114.62631 -74.641345 
L 117.475508 -76.856873 
L 120.324706 -79.092511 
L 123.173904 -81.342639 
L 126.023102 -83.426922 
L 128.872299 -85.543267 
L 131.721497 -87.670447 
L 134.570695 -89.826801 
L 137.419893 -91.992542 
L 140.269091 -94.203669 
L 143.118289 -96.410766 
L 145.967487 -98.648567 
L 148.816684 -100.893666 
L 151.665882 -103.158701 
L 154.51508 -105.431165 
L 157.364278 -107.7362 
L 160.213476 -109.830524 
L 163.062674 -111.952162 
L 165.911872 -114.085571 
L 168.76107 -116.243867 
L 171.610267 -118.415025 
L 174.459465 -120.652776 
L 177.308663 -122.871878 
L 180.157861 -125.113986 
L 183.007059 -127.338765 
L 185.856257 -129.601803 
L 188.705455 -131.866197 
L 191.554652 -134.169589 
L 194.40385 -136.273185 
L 197.253048 -138.392317 
L 200.102246 -140.520581 
L 202.951444 -142.681408 
L 205.800642 -144.853051 
L 208.64984 -147.03607 
L 211.499037 -149.251276 
L 214.348235 -151.490646 
L 217.197433 -153.737555 
L 220.046631 -156.008352 
L 222.895829 -158.27389 
L 225.745027 -160.570784 
L 228.594225 -162.666021 
L 231.443422 -164.799165 
L 234.29262 -166.94083 
L 237.141818 -169.111067 
L 239.991016 -171.284411 
L 242.840214 -173.487161 
L 245.689412 -175.692777 
L 248.53861 -177.932979 
L 251.387807 -180.170344 
L 254.237005 -182.434069 
L 257.086203 -184.701848 
L 259.935401 -187.021522 
L 262.784599 -189.11337 
L 265.633797 -191.234813 
L 268.482995 -193.372643 
L 271.332193 -195.556239 
L 274.18139 -197.749744 
L 277.030588 -199.952031 
L 279.879786 -202.164282 
L 282.728984 -204.393788 
L 285.578182 -206.64573 
L 288.42738 -208.911941 
L 291.276578 -211.188866 
L 294.125775 -213.486227 
L 296.974973 -215.579265 
L 299.824171 -217.699212 
L 302.673369 -219.857531 
L 305.522567 -222.042342 
L 308.371765 -224.229555 
L 311.220963 -226.436019 
L 314.07016 -228.663087 
L 316.919358 -230.903869 
L 319.768556 -233.145219 
L 322.617754 -235.420081 
L 325.466952 -237.730828 
L 328.31615 -240.058651 
L 331.165348 -242.17444 
L 334.014545 -244.307772 
L 336.863743 -246.451221 
L 339.712941 -248.616106 
L 342.562139 -250.794413 
L 345.411337 -252.994542 
L 348.260535 -255.205224 
L 351.109733 -257.458098 
L 353.95893 -259.740659 
L 356.808128 -262.021603 
L 359.657326 -264.320322 
L 362.506524 -266.654482 
L 365.355722 -268.775991 
L 368.20492 -270.919081 
L 371.054118 -273.074171 
L 373.903316 -275.262213 
L 376.752513 -277.463798 
L 379.601711 -279.698851 
L 382.450909 -281.940398 
L 385.300107 -284.204482 
L 388.149305 -286.470274 
L 390.998503 -288.746042 
L 393.847701 -291.029587 
L 396.696898 -293.344993 
L 399.546096 -295.445906 
L 402.395294 -297.576461 
L 405.244492 -299.717061 
L 408.09369 -301.883947 
L 410.942888 -304.060642 
L 413.792086 -306.266484 
L 416.641283 -308.483014 
L 419.490481 -310.731973 
L 422.339679 -312.969924 
L 425.188877 -315.235223 
L 428.038075 -317.509258 
L 430.887273 -319.835455 
L 430.887273 -319.357387 
L 430.887273 -319.357387 
L 428.038075 -317.037233 
L 425.188877 -314.753447 
L 422.339679 -312.480433 
L 419.490481 -310.233188 
L 416.641283 -307.997727 
L 413.792086 -305.783049 
L 410.942888 -303.577523 
L 408.09369 -301.38097 
L 405.244492 -299.199637 
L 402.395294 -297.046262 
L 399.546096 -294.917309 
L 396.696898 -292.811837 
L 393.847701 -290.481495 
L 390.998503 -288.184453 
L 388.149305 -285.912159 
L 385.300107 -283.671767 
L 382.450909 -281.429199 
L 379.601711 -279.221685 
L 376.752513 -277.020523 
L 373.903316 -274.855578 
L 371.054118 -272.686734 
L 368.20492 -270.552396 
L 365.355722 -268.422225 
L 362.506524 -266.316236 
L 359.657326 -264.004567 
L 356.808128 -261.731382 
L 353.95893 -259.470486 
L 351.109733 -257.214308 
L 348.260535 -254.979555 
L 345.411337 -252.773012 
L 342.562139 -250.570594 
L 339.712941 -248.394501 
L 336.863743 -246.233813 
L 334.014545 -244.099169 
L 331.165348 -241.973816 
L 328.31615 -239.886694 
L 325.466952 -237.582812 
L 322.617754 -235.31252 
L 319.768556 -233.057688 
L 316.919358 -230.81775 
L 314.07016 -228.585843 
L 311.220963 -226.375593 
L 308.371765 -224.177988 
L 305.522567 -222.000651 
L 302.673369 -219.828989 
L 299.824171 -217.692311 
L 296.974973 -215.557022 
L 294.125775 -213.45902 
L 291.276578 -211.138182 
L 288.42738 -208.864104 
L 285.578182 -206.602954 
L 282.728984 -204.363103 
L 279.879786 -202.131794 
L 277.030588 -199.927585 
L 274.18139 -197.712281 
L 271.332193 -195.537264 
L 268.482995 -193.370595 
L 265.633797 -191.231584 
L 262.784599 -189.103668 
L 259.935401 -187.001868 
L 257.086203 -184.699039 
L 254.237005 -182.37664 
L 251.387807 -180.111582 
L 248.53861 -177.893785 
L 245.689412 -175.677479 
L 242.840214 -173.475822 
L 239.991016 -171.260061 
L 237.141818 -169.063419 
L 234.29262 -166.869805 
L 231.443422 -164.732674 
L 228.594225 -162.6048 
L 225.745027 -160.51215 
L 222.895829 -158.199862 
L 220.046631 -155.932219 
L 217.197433 -153.667417 
L 214.348235 -151.416835 
L 211.499037 -149.179659 
L 208.64984 -146.976055 
L 205.800642 -144.785863 
L 202.951444 -142.622515 
L 200.102246 -140.468615 
L 197.253048 -138.338439 
L 194.40385 -136.221522 
L 191.554652 -134.112628 
L 188.705455 -131.801602 
L 185.856257 -129.532618 
L 183.007059 -127.288766 
L 180.157861 -125.050981 
L 177.308663 -122.817751 
L 174.459465 -120.616751 
L 171.610267 -118.409824 
L 168.76107 -116.233437 
L 165.911872 -114.0826 
L 163.062674 -111.94816 
L 160.213476 -109.827279 
L 157.364278 -107.717701 
L 154.51508 -105.391527 
L 151.665882 -103.092846 
L 148.816684 -100.832578 
L 145.967487 -98.610458 
L 143.118289 -96.383838 
L 140.269091 -94.174982 
L 137.419893 -91.989191 
L 134.570695 -89.821411 
L 131.721497 -87.654597 
L 128.872299 -85.521809 
L 126.023102 -83.4034 
L 123.173904 -81.309813 
L 120.324706 -79.043398 
L 117.475508 -76.811644 
L 114.62631 -74.576024 
L 111.777112 -72.393074 
L 108.927914 -70.22244 
L 106.078717 -68.074709 
L 103.229519 -65.943857 
L 100.380321 -63.807075 
L 97.531123 -63.79061 
L 94.681925 -63.773839 
L 91.832727 -63.757463 
z
" style="stroke: #ffffff; stroke-opacity: 0.5"/>
    </defs>
    <g clip-path="url(#pe911870b9b)">
     <use xlink:href="#m5102e33616" x="0" y="345.6" style="fill: #937860; fill-opacity: 0.5; stroke: #ffffff; stroke-opacity: 0.5"/>
    </g>
   </g>
   <g id="line2d_15">
    <path d="M 91.832727 281.85536 
L 94.681925 281.85294 
L 97.531123 281.850546 
L 100.380321 281.848141 
L 103.229519 281.827331 
L 106.078717 281.806771 
L 108.927914 281.786188 
L 111.777112 281.765451 
L 114.62631 281.744961 
L 117.475508 281.724365 
L 120.324706 281.703896 
L 123.173904 281.683302 
L 126.023102 281.662873 
L 128.872299 281.642416 
L 131.721497 281.621581 
L 134.570695 281.601097 
L 137.419893 281.580467 
L 140.269091 281.559735 
L 143.118289 281.538884 
L 145.967487 281.518472 
L 148.816684 281.497907 
L 151.665882 281.477398 
L 154.51508 281.457103 
L 157.364278 281.436604 
L 160.213476 281.4159 
L 163.062674 281.395145 
L 165.911872 281.37456 
L 168.76107 281.353937 
L 171.610267 281.333325 
L 174.459465 281.312902 
L 177.308663 281.292539 
L 180.157861 281.271796 
L 183.007059 281.251362 
L 185.856257 281.230992 
L 188.705455 281.210491 
L 191.554652 281.189973 
L 194.40385 281.169507 
L 197.253048 281.149128 
L 200.102246 281.128501 
L 202.951444 281.108092 
L 205.800642 281.08763 
L 208.64984 281.067207 
L 211.499037 281.046671 
L 214.348235 281.026083 
L 217.197433 281.005696 
L 220.046631 280.985332 
L 222.895829 280.964917 
L 225.745027 280.944418 
L 228.594225 280.923789 
L 231.443422 280.903437 
L 234.29262 280.882729 
L 237.141818 280.861815 
L 239.991016 280.841114 
L 242.840214 280.82026 
L 245.689412 280.799672 
L 248.53861 280.779258 
L 251.387807 280.758521 
L 254.237005 280.738023 
L 257.086203 280.717375 
L 259.935401 280.69679 
L 262.784599 280.676385 
L 265.633797 280.65578 
L 268.482995 280.635377 
L 271.332193 280.615122 
L 274.18139 280.59481 
L 277.030588 280.574495 
L 279.879786 280.554227 
L 282.728984 280.533967 
L 285.578182 280.513595 
L 288.42738 280.49313 
L 291.276578 280.472622 
L 294.125775 280.452177 
L 296.974973 280.431903 
L 299.824171 280.411466 
L 302.673369 280.391075 
L 305.522567 280.370698 
L 308.371765 280.350375 
L 311.220963 280.330182 
L 314.07016 280.309937 
L 316.919358 280.289678 
L 319.768556 280.269465 
L 322.617754 280.248962 
L 325.466952 280.228615 
L 328.31615 280.208065 
L 331.165348 280.187827 
L 334.014545 280.167486 
L 336.863743 280.147079 
L 339.712941 280.126883 
L 342.562139 280.106356 
L 345.411337 280.086088 
L 348.260535 280.06603 
L 351.109733 280.045539 
L 353.95893 280.025379 
L 356.808128 280.005157 
L 359.657326 279.984941 
L 362.506524 279.964448 
L 365.355722 279.944053 
L 368.20492 279.923688 
L 371.054118 279.903343 
L 373.903316 279.883121 
L 376.752513 279.862986 
L 379.601711 279.842872 
L 382.450909 279.822649 
L 385.300107 279.802503 
L 388.149305 279.781985 
L 390.998503 279.761633 
L 393.847701 279.741501 
L 396.696898 279.72141 
L 399.546096 279.70133 
L 402.395294 279.681055 
L 405.244492 279.660785 
L 408.09369 279.640409 
L 410.942888 279.620061 
L 413.792086 279.599753 
L 416.641283 279.579186 
L 419.490481 279.558707 
L 422.339679 279.538302 
L 425.188877 279.517921 
L 428.038075 279.49733 
L 430.887273 279.476859 
" clip-path="url(#pe911870b9b)" style="fill: none; stroke: #4c72b0; stroke-width: 3; stroke-linecap: round"/>
   </g>
   <g id="line2d_16">
    <path d="M 91.832727 281.852305 
L 94.681925 281.846071 
L 97.531123 281.839558 
L 100.380321 281.833231 
L 103.229519 281.797575 
L 106.078717 281.761821 
L 108.927914 281.726396 
L 111.777112 281.690817 
L 114.62631 281.65513 
L 117.475508 281.619577 
L 120.324706 281.583658 
L 123.173904 281.548352 
L 126.023102 281.514017 
L 128.872299 281.478252 
L 131.721497 281.442156 
L 134.570695 281.405869 
L 137.419893 281.370244 
L 140.269091 281.334585 
L 143.118289 281.298822 
L 145.967487 281.262715 
L 148.816684 281.226147 
L 151.665882 281.189881 
L 154.51508 281.15417 
L 157.364278 281.118488 
L 160.213476 281.083518 
L 163.062674 281.04766 
L 165.911872 281.01183 
L 168.76107 280.975712 
L 171.610267 280.940065 
L 174.459465 280.903436 
L 177.308663 280.867744 
L 180.157861 280.83148 
L 183.007059 280.795368 
L 185.856257 280.75889 
L 188.705455 280.722425 
L 191.554652 280.686523 
L 194.40385 280.651991 
L 197.253048 280.615962 
L 200.102246 280.579662 
L 202.951444 280.542719 
L 205.800642 280.507514 
L 208.64984 280.471885 
L 211.499037 280.435871 
L 214.348235 280.399758 
L 217.197433 280.363809 
L 220.046631 280.327938 
L 222.895829 280.292464 
L 225.745027 280.256402 
L 228.594225 280.220187 
L 231.443422 280.184186 
L 234.29262 280.14867 
L 237.141818 280.113256 
L 239.991016 280.078139 
L 242.840214 280.042391 
L 245.689412 280.006646 
L 248.53861 279.971198 
L 251.387807 279.935407 
L 254.237005 279.899896 
L 257.086203 279.862848 
L 259.935401 279.82718 
L 262.784599 279.791201 
L 265.633797 279.755664 
L 268.482995 279.719996 
L 271.332193 279.684408 
L 274.18139 279.649228 
L 277.030588 279.613841 
L 279.879786 279.578129 
L 282.728984 279.542681 
L 285.578182 279.507153 
L 288.42738 279.471735 
L 291.276578 279.435462 
L 294.125775 279.399975 
L 296.974973 279.364392 
L 299.824171 279.328981 
L 302.673369 279.293501 
L 305.522567 279.257828 
L 308.371765 279.222941 
L 311.220963 279.187605 
L 314.07016 279.152594 
L 316.919358 279.116969 
L 319.768556 279.081484 
L 322.617754 279.046474 
L 325.466952 279.010248 
L 328.31615 278.974793 
L 331.165348 278.939756 
L 334.014545 278.904933 
L 336.863743 278.869607 
L 339.712941 278.833865 
L 342.562139 278.798814 
L 345.411337 278.763262 
L 348.260535 278.72797 
L 351.109733 278.692682 
L 353.95893 278.657581 
L 356.808128 278.622502 
L 359.657326 278.586707 
L 362.506524 278.551356 
L 365.355722 278.515693 
L 368.20492 278.480402 
L 371.054118 278.445386 
L 373.903316 278.410471 
L 376.752513 278.375115 
L 379.601711 278.339835 
L 382.450909 278.303903 
L 385.300107 278.2685 
L 388.149305 278.233355 
L 390.998503 278.198603 
L 393.847701 278.162654 
L 396.696898 278.12701 
L 399.546096 278.091597 
L 402.395294 278.056299 
L 405.244492 278.021203 
L 408.09369 277.985667 
L 410.942888 277.95043 
L 413.792086 277.915007 
L 416.641283 277.879695 
L 419.490481 277.844348 
L 422.339679 277.809074 
L 425.188877 277.773415 
L 428.038075 277.737044 
L 430.887273 277.701207 
" clip-path="url(#pe911870b9b)" style="fill: none; stroke: #dd8452; stroke-width: 3; stroke-linecap: round"/>
   </g>
   <g id="line2d_17">
    <path d="M 91.832727 281.851779 
L 94.681925 281.844966 
L 97.531123 281.838003 
L 100.380321 281.831263 
L 103.229519 281.764322 
L 106.078717 281.697737 
L 108.927914 281.631161 
L 111.777112 281.564597 
L 114.62631 281.497047 
L 117.475508 281.430367 
L 120.324706 281.362798 
L 123.173904 281.295347 
L 126.023102 281.231242 
L 128.872299 281.165695 
L 131.721497 281.099225 
L 134.570695 281.032323 
L 137.419893 280.966175 
L 140.269091 280.900358 
L 143.118289 280.834323 
L 145.967487 280.767665 
L 148.816684 280.701121 
L 151.665882 280.633987 
L 154.51508 280.568213 
L 157.364278 280.502627 
L 160.213476 280.439644 
L 163.062674 280.374213 
L 165.911872 280.308968 
L 168.76107 280.243416 
L 171.610267 280.176671 
L 174.459465 280.109784 
L 177.308663 280.043059 
L 180.157861 279.976616 
L 183.007059 279.910309 
L 185.856257 279.842389 
L 188.705455 279.776103 
L 191.554652 279.709584 
L 194.40385 279.645988 
L 197.253048 279.580469 
L 200.102246 279.513845 
L 202.951444 279.447854 
L 205.800642 279.382276 
L 208.64984 279.316212 
L 211.499037 279.249557 
L 214.348235 279.182466 
L 217.197433 279.116414 
L 220.046631 279.050831 
L 222.895829 278.983571 
L 225.745027 278.91815 
L 228.594225 278.854819 
L 231.443422 278.791092 
L 234.29262 278.726213 
L 237.141818 278.660443 
L 239.991016 278.596341 
L 242.840214 278.530834 
L 245.689412 278.465229 
L 248.53861 278.399963 
L 251.387807 278.333533 
L 254.237005 278.267788 
L 257.086203 278.202595 
L 259.935401 278.137643 
L 262.784599 278.073233 
L 265.633797 278.008466 
L 268.482995 277.943218 
L 271.332193 277.87712 
L 274.18139 277.811595 
L 277.030588 277.745627 
L 279.879786 277.680449 
L 282.728984 277.615622 
L 285.578182 277.549127 
L 288.42738 277.483008 
L 291.276578 277.417467 
L 294.125775 277.352037 
L 296.974973 277.288097 
L 299.824171 277.22404 
L 302.673369 277.159577 
L 305.522567 277.093949 
L 308.371765 277.029182 
L 311.220963 276.962964 
L 314.07016 276.897367 
L 316.919358 276.832029 
L 319.768556 276.76519 
L 322.617754 276.699576 
L 325.466952 276.633932 
L 328.31615 276.567976 
L 331.165348 276.503775 
L 334.014545 276.439802 
L 336.863743 276.375769 
L 339.712941 276.310845 
L 342.562139 276.245881 
L 345.411337 276.180362 
L 348.260535 276.11537 
L 351.109733 276.049154 
L 353.95893 275.982459 
L 356.808128 275.915938 
L 359.657326 275.850511 
L 362.506524 275.785241 
L 365.355722 275.720438 
L 368.20492 275.656102 
L 371.054118 275.591153 
L 373.903316 275.525945 
L 376.752513 275.460509 
L 379.601711 275.394958 
L 382.450909 275.329776 
L 385.300107 275.26444 
L 388.149305 275.197627 
L 390.998503 275.132537 
L 393.847701 275.066763 
L 396.696898 275.001192 
L 399.546096 274.936665 
L 402.395294 274.871243 
L 405.244492 274.806041 
L 408.09369 274.740897 
L 410.942888 274.675323 
L 413.792086 274.609791 
L 416.641283 274.543864 
L 419.490481 274.478461 
L 422.339679 274.411912 
L 425.188877 274.346022 
L 428.038075 274.280769 
L 430.887273 274.215627 
" clip-path="url(#pe911870b9b)" style="fill: none; stroke: #55a868; stroke-width: 3; stroke-linecap: round"/>
   </g>
   <g id="line2d_18">
    <path d="M 91.832727 281.851394 
L 94.681925 281.844241 
L 97.531123 281.836705 
L 100.380321 281.829454 
L 103.229519 281.716096 
L 106.078717 281.602009 
L 108.927914 281.4885 
L 111.777112 281.376075 
L 114.62631 281.262774 
L 117.475508 281.148554 
L 120.324706 281.03385 
L 123.173904 280.921372 
L 126.023102 280.812494 
L 128.872299 280.700491 
L 131.721497 280.59009 
L 134.570695 280.478912 
L 137.419893 280.368342 
L 140.269091 280.258195 
L 143.118289 280.147012 
L 145.967487 280.035431 
L 148.816684 279.924431 
L 151.665882 279.814193 
L 154.51508 279.704129 
L 157.364278 279.593071 
L 160.213476 279.482763 
L 163.062674 279.372156 
L 165.911872 279.259818 
L 168.76107 279.150163 
L 171.610267 279.039713 
L 174.459465 278.928294 
L 177.308663 278.815863 
L 180.157861 278.704933 
L 183.007059 278.592826 
L 185.856257 278.480572 
L 188.705455 278.369652 
L 191.554652 278.25742 
L 194.40385 278.148575 
L 197.253048 278.035572 
L 200.102246 277.925537 
L 202.951444 277.813349 
L 205.800642 277.702792 
L 208.64984 277.591574 
L 211.499037 277.479637 
L 214.348235 277.369218 
L 217.197433 277.258834 
L 220.046631 277.148433 
L 222.895829 277.035613 
L 225.745027 276.923937 
L 228.594225 276.813133 
L 231.443422 276.702145 
L 234.29262 276.591634 
L 237.141818 276.4798 
L 239.991016 276.36808 
L 242.840214 276.256777 
L 245.689412 276.145999 
L 248.53861 276.034454 
L 251.387807 275.923616 
L 254.237005 275.811586 
L 257.086203 275.700749 
L 259.935401 275.58803 
L 262.784599 275.477839 
L 265.633797 275.365995 
L 268.482995 275.254585 
L 271.332193 275.142966 
L 274.18139 275.029986 
L 277.030588 274.919228 
L 279.879786 274.808796 
L 282.728984 274.697975 
L 285.578182 274.585561 
L 288.42738 274.472315 
L 291.276578 274.360484 
L 294.125775 274.248428 
L 296.974973 274.137692 
L 299.824171 274.026537 
L 302.673369 273.914839 
L 305.522567 273.802829 
L 308.371765 273.689748 
L 311.220963 273.577042 
L 314.07016 273.465867 
L 316.919358 273.353784 
L 319.768556 273.24224 
L 322.617754 273.128952 
L 325.466952 273.018388 
L 328.31615 272.905954 
L 331.165348 272.793569 
L 334.014545 272.681702 
L 336.863743 272.568879 
L 339.712941 272.455861 
L 342.562139 272.343312 
L 345.411337 272.231976 
L 348.260535 272.12021 
L 351.109733 272.008738 
L 353.95893 271.898317 
L 356.808128 271.785671 
L 359.657326 271.674169 
L 362.506524 271.563485 
L 365.355722 271.450897 
L 368.20492 271.339512 
L 371.054118 271.227065 
L 373.903316 271.114997 
L 376.752513 271.001797 
L 379.601711 270.891189 
L 382.450909 270.779553 
L 385.300107 270.66792 
L 388.149305 270.556194 
L 390.998503 270.443473 
L 393.847701 270.331948 
L 396.696898 270.219867 
L 399.546096 270.107836 
L 402.395294 269.995415 
L 405.244492 269.883734 
L 408.09369 269.772059 
L 410.942888 269.658522 
L 413.792086 269.546447 
L 416.641283 269.436686 
L 419.490481 269.32423 
L 422.339679 269.21357 
L 425.188877 269.099705 
L 428.038075 268.987993 
L 430.887273 268.876729 
" clip-path="url(#pe911870b9b)" style="fill: none; stroke: #c44e52; stroke-width: 3; stroke-linecap: round"/>
   </g>
   <g id="line2d_19">
    <path d="M 91.832727 281.850274 
L 94.681925 281.841864 
L 97.531123 281.833295 
L 100.380321 281.824716 
L 103.229519 281.605163 
L 106.078717 281.380003 
L 108.927914 281.155374 
L 111.777112 280.928313 
L 114.62631 280.707315 
L 117.475508 280.48519 
L 120.324706 280.261173 
L 123.173904 280.03681 
L 126.023102 279.822329 
L 128.872299 279.605147 
L 131.721497 279.386541 
L 134.570695 279.16523 
L 137.419893 278.943941 
L 140.269091 278.720923 
L 143.118289 278.501556 
L 145.967487 278.282677 
L 148.816684 278.064572 
L 151.665882 277.844722 
L 154.51508 277.62571 
L 157.364278 277.407514 
L 160.213476 277.197324 
L 163.062674 276.98255 
L 165.911872 276.767744 
L 168.76107 276.551384 
L 171.610267 276.335569 
L 174.459465 276.11716 
L 177.308663 275.899229 
L 180.157861 275.680603 
L 183.007059 275.462932 
L 185.856257 275.243725 
L 188.705455 275.025166 
L 191.554652 274.803116 
L 194.40385 274.590388 
L 197.253048 274.375366 
L 200.102246 274.158324 
L 202.951444 273.940995 
L 205.800642 273.723556 
L 208.64984 273.505197 
L 211.499037 273.289044 
L 214.348235 273.070758 
L 217.197433 272.851785 
L 220.046631 272.632537 
L 222.895829 272.412615 
L 225.745027 272.193139 
L 228.594225 271.980588 
L 231.443422 271.763777 
L 234.29262 271.546429 
L 237.141818 271.32918 
L 239.991016 271.11302 
L 242.840214 270.894304 
L 245.689412 270.67519 
L 248.53861 270.45617 
L 251.387807 270.236093 
L 254.237005 270.015919 
L 257.086203 269.7967 
L 259.935401 269.575931 
L 262.784599 269.36507 
L 265.633797 269.149671 
L 268.482995 268.93356 
L 271.332193 268.716465 
L 274.18139 268.497833 
L 277.030588 268.278459 
L 279.879786 268.060033 
L 282.728984 267.840848 
L 285.578182 267.622653 
L 288.42738 267.402676 
L 291.276578 267.18277 
L 294.125775 266.962319 
L 296.974973 266.751267 
L 299.824171 266.53673 
L 302.673369 266.321127 
L 305.522567 266.103325 
L 308.371765 265.885258 
L 311.220963 265.66579 
L 314.07016 265.446082 
L 316.919358 265.225784 
L 319.768556 265.008615 
L 322.617754 264.787928 
L 325.466952 264.566416 
L 328.31615 264.344193 
L 331.165348 264.131877 
L 334.014545 263.917411 
L 336.863743 263.701472 
L 339.712941 263.483669 
L 342.562139 263.264439 
L 345.411337 263.046156 
L 348.260535 262.82608 
L 351.109733 262.606132 
L 353.95893 262.386947 
L 356.808128 262.168536 
L 359.657326 261.948167 
L 362.506524 261.727568 
L 365.355722 261.51523 
L 368.20492 261.299769 
L 371.054118 261.08382 
L 373.903316 260.867893 
L 376.752513 260.64892 
L 379.601711 260.429695 
L 382.450909 260.210733 
L 385.300107 259.991214 
L 388.149305 259.77229 
L 390.998503 259.552489 
L 393.847701 259.334065 
L 396.696898 259.113241 
L 399.546096 258.900247 
L 402.395294 258.684936 
L 405.244492 258.4679 
L 408.09369 258.250201 
L 410.942888 258.033134 
L 413.792086 257.813713 
L 416.641283 257.594669 
L 419.490481 257.374391 
L 422.339679 257.155541 
L 425.188877 256.934452 
L 428.038075 256.714166 
L 430.887273 256.493688 
" clip-path="url(#pe911870b9b)" style="fill: none; stroke: #8172b3; stroke-width: 3; stroke-linecap: round"/>
   </g>
   <g id="line2d_20">
    <path d="M 91.832727 281.842334 
L 94.681925 281.825996 
L 97.531123 281.809267 
L 100.380321 281.792838 
L 103.229519 279.624215 
L 106.078717 277.489297 
L 108.927914 275.346498 
L 111.777112 273.16489 
L 114.62631 270.991316 
L 117.475508 268.765741 
L 120.324706 266.532046 
L 123.173904 264.273774 
L 126.023102 262.184839 
L 128.872299 260.067462 
L 131.721497 257.937478 
L 134.570695 255.775894 
L 137.419893 253.609133 
L 140.269091 251.410675 
L 143.118289 249.202698 
L 145.967487 246.970488 
L 148.816684 244.736878 
L 151.665882 242.474226 
L 154.51508 240.188654 
L 157.364278 237.87305 
L 160.213476 235.771098 
L 163.062674 233.649839 
L 165.911872 231.515914 
L 168.76107 229.361348 
L 171.610267 227.187575 
L 174.459465 224.965237 
L 177.308663 222.755185 
L 180.157861 220.517517 
L 183.007059 218.286235 
L 185.856257 216.032789 
L 188.705455 213.7661 
L 191.554652 211.458891 
L 194.40385 209.352646 
L 197.253048 207.234622 
L 200.102246 205.105402 
L 202.951444 202.948038 
L 205.800642 200.780543 
L 208.64984 198.593937 
L 211.499037 196.384532 
L 214.348235 194.14626 
L 217.197433 191.897514 
L 220.046631 189.629714 
L 222.895829 187.363124 
L 225.745027 185.058533 
L 228.594225 182.964589 
L 231.443422 180.834081 
L 234.29262 178.694683 
L 237.141818 176.512757 
L 239.991016 174.327764 
L 242.840214 172.118508 
L 245.689412 169.914872 
L 248.53861 167.686618 
L 251.387807 165.459037 
L 254.237005 163.194645 
L 257.086203 160.899557 
L 259.935401 158.588305 
L 262.784599 156.491481 
L 265.633797 154.366802 
L 268.482995 152.228381 
L 271.332193 150.053248 
L 274.18139 147.868988 
L 277.030588 145.660192 
L 279.879786 143.451962 
L 282.728984 141.221555 
L 285.578182 138.975658 
L 288.42738 136.711978 
L 291.276578 134.436476 
L 294.125775 132.127377 
L 296.974973 130.031857 
L 299.824171 127.904239 
L 302.673369 125.75674 
L 305.522567 123.578504 
L 308.371765 121.396229 
L 311.220963 119.194194 
L 314.07016 116.975535 
L 316.919358 114.739191 
L 319.768556 112.498546 
L 322.617754 110.233699 
L 325.466952 107.94318 
L 328.31615 105.627328 
L 331.165348 103.525872 
L 334.014545 101.396529 
L 336.863743 99.257483 
L 339.712941 97.094696 
L 342.562139 94.917497 
L 345.411337 92.716223 
L 348.260535 90.50761 
L 351.109733 88.263797 
L 353.95893 85.994428 
L 356.808128 83.723507 
L 359.657326 81.437555 
L 362.506524 79.114641 
L 365.355722 77.000892 
L 368.20492 74.864261 
L 371.054118 72.719548 
L 373.903316 70.541104 
L 376.752513 68.357839 
L 379.601711 66.139732 
L 382.450909 63.915201 
L 385.300107 61.661875 
L 388.149305 59.408783 
L 390.998503 57.134752 
L 393.847701 54.844459 
L 396.696898 52.521585 
L 399.546096 50.418392 
L 402.395294 48.288638 
L 405.244492 46.141651 
L 408.09369 43.967542 
L 410.942888 41.780917 
L 413.792086 39.575234 
L 416.641283 37.359629 
L 419.490481 35.11742 
L 422.339679 32.874821 
L 425.188877 30.605665 
L 428.038075 28.326755 
L 430.887273 26.003579 
" clip-path="url(#pe911870b9b)" style="fill: none; stroke: #937860; stroke-width: 3; stroke-linecap: round"/>
   </g>
   <g id="patch_3">
    <path d="M 74.88 294.66 
L 74.88 12.96 
" style="fill: none; stroke: #ffffff; stroke-width: 1.25; stroke-linejoin: miter; stroke-linecap: square"/>
   </g>
   <g id="patch_4">
    <path d="M 447.84 294.66 
L 447.84 12.96 
" style="fill: none; stroke: #ffffff; stroke-width: 1.25; stroke-linejoin: miter; stroke-linecap: square"/>
   </g>
   <g id="patch_5">
    <path d="M 74.88 294.66 
L 447.84 294.66 
" style="fill: none; stroke: #ffffff; stroke-width: 1.25; stroke-linejoin: miter; stroke-linecap: square"/>
   </g>
   <g id="patch_6">
    <path d="M 74.88 12.96 
L 447.84 12.96 
" style="fill: none; stroke: #ffffff; stroke-width: 1.25; stroke-linejoin: miter; stroke-linecap: square"/>
   </g>
   <g id="legend_1">
    <g id="patch_7">
     <path d="M 82.58 118.635625 
L 237.406719 118.635625 
Q 239.606719 118.635625 239.606719 116.435625 
L 239.606719 20.66 
Q 239.606719 18.46 237.406719 18.46 
L 82.58 18.46 
Q 80.38 18.46 80.38 20.66 
L 80.38 116.435625 
Q 80.38 118.635625 82.58 118.635625 
z
" style="fill: #eaeaf2; opacity: 0.8; stroke: #cccccc; stroke-linejoin: miter"/>
    </g>
    <g id="line2d_21">
     <path d="M 84.78 27.368281 
L 95.78 27.368281 
L 106.78 27.368281 
" style="fill: none; stroke: #4c72b0; stroke-width: 3; stroke-linecap: round"/>
    </g>
    <g id="text_17">
     <!-- SAC-DELAY-0 -->
     <g style="fill: #262626" transform="translate(115.58 31.218281)scale(0.11 -0.11)">
      <defs>
       <path id="DejaVuSans-53" d="M 3425 4513 
L 3425 3897 
Q 3066 4069 2747 4153 
Q 2428 4238 2131 4238 
Q 1616 4238 1336 4038 
Q 1056 3838 1056 3469 
Q 1056 3159 1242 3001 
Q 1428 2844 1947 2747 
L 2328 2669 
Q 3034 2534 3370 2195 
Q 3706 1856 3706 1288 
Q 3706 609 3251 259 
Q 2797 -91 1919 -91 
Q 1588 -91 1214 -16 
Q 841 59 441 206 
L 441 856 
Q 825 641 1194 531 
Q 1563 422 1919 422 
Q 2459 422 2753 634 
Q 3047 847 3047 1241 
Q 3047 1584 2836 1778 
Q 2625 1972 2144 2069 
L 1759 2144 
Q 1053 2284 737 2584 
Q 422 2884 422 3419 
Q 422 4038 858 4394 
Q 1294 4750 2059 4750 
Q 2388 4750 2728 4690 
Q 3069 4631 3425 4513 
z
" transform="scale(0.015625)"/>
       <path id="DejaVuSans-41" d="M 2188 4044 
L 1331 1722 
L 3047 1722 
L 2188 4044 
z
M 1831 4666 
L 2547 4666 
L 4325 0 
L 3669 0 
L 3244 1197 
L 1141 1197 
L 716 0 
L 50 0 
L 1831 4666 
z
" transform="scale(0.015625)"/>
       <path id="DejaVuSans-43" d="M 4122 4306 
L 4122 3641 
Q 3803 3938 3442 4084 
Q 3081 4231 2675 4231 
Q 1875 4231 1450 3742 
Q 1025 3253 1025 2328 
Q 1025 1406 1450 917 
Q 1875 428 2675 428 
Q 3081 428 3442 575 
Q 3803 722 4122 1019 
L 4122 359 
Q 3791 134 3420 21 
Q 3050 -91 2638 -91 
Q 1578 -91 968 557 
Q 359 1206 359 2328 
Q 359 3453 968 4101 
Q 1578 4750 2638 4750 
Q 3056 4750 3426 4639 
Q 3797 4528 4122 4306 
z
" transform="scale(0.015625)"/>
       <path id="DejaVuSans-2d" d="M 313 2009 
L 1997 2009 
L 1997 1497 
L 313 1497 
L 313 2009 
z
" transform="scale(0.015625)"/>
       <path id="DejaVuSans-44" d="M 1259 4147 
L 1259 519 
L 2022 519 
Q 2988 519 3436 956 
Q 3884 1394 3884 2338 
Q 3884 3275 3436 3711 
Q 2988 4147 2022 4147 
L 1259 4147 
z
M 628 4666 
L 1925 4666 
Q 3281 4666 3915 4102 
Q 4550 3538 4550 2338 
Q 4550 1131 3912 565 
Q 3275 0 1925 0 
L 628 0 
L 628 4666 
z
" transform="scale(0.015625)"/>
       <path id="DejaVuSans-45" d="M 628 4666 
L 3578 4666 
L 3578 4134 
L 1259 4134 
L 1259 2753 
L 3481 2753 
L 3481 2222 
L 1259 2222 
L 1259 531 
L 3634 531 
L 3634 0 
L 628 0 
L 628 4666 
z
" transform="scale(0.015625)"/>
       <path id="DejaVuSans-4c" d="M 628 4666 
L 1259 4666 
L 1259 531 
L 3531 531 
L 3531 0 
L 628 0 
L 628 4666 
z
" transform="scale(0.015625)"/>
       <path id="DejaVuSans-59" d="M -13 4666 
L 666 4666 
L 1959 2747 
L 3244 4666 
L 3922 4666 
L 2272 2222 
L 2272 0 
L 1638 0 
L 1638 2222 
L -13 4666 
z
" transform="scale(0.015625)"/>
      </defs>
      <use xlink:href="#DejaVuSans-53"/>
      <use xlink:href="#DejaVuSans-41" x="65.351562"/>
      <use xlink:href="#DejaVuSans-43" x="132.009766"/>
      <use xlink:href="#DejaVuSans-2d" x="201.833984"/>
      <use xlink:href="#DejaVuSans-44" x="237.917969"/>
      <use xlink:href="#DejaVuSans-45" x="314.919922"/>
      <use xlink:href="#DejaVuSans-4c" x="378.103516"/>
      <use xlink:href="#DejaVuSans-41" x="436.066406"/>
      <use xlink:href="#DejaVuSans-59" x="496.724609"/>
      <use xlink:href="#DejaVuSans-2d" x="545.933594"/>
      <use xlink:href="#DejaVuSans-30" x="582.017578"/>
     </g>
    </g>
    <g id="line2d_22">
     <path d="M 84.78 43.514219 
L 95.78 43.514219 
L 106.78 43.514219 
" style="fill: none; stroke: #dd8452; stroke-width: 3; stroke-linecap: round"/>
    </g>
    <g id="text_18">
     <!-- DCAC-DELAY-1-16C -->
     <g style="fill: #262626" transform="translate(115.58 47.364219)scale(0.11 -0.11)">
      <use xlink:href="#DejaVuSans-44"/>
      <use xlink:href="#DejaVuSans-43" x="77.001953"/>
      <use xlink:href="#DejaVuSans-41" x="146.826172"/>
      <use xlink:href="#DejaVuSans-43" x="213.484375"/>
      <use xlink:href="#DejaVuSans-2d" x="283.308594"/>
      <use xlink:href="#DejaVuSans-44" x="319.392578"/>
      <use xlink:href="#DejaVuSans-45" x="396.394531"/>
      <use xlink:href="#DejaVuSans-4c" x="459.578125"/>
      <use xlink:href="#DejaVuSans-41" x="517.541016"/>
      <use xlink:href="#DejaVuSans-59" x="578.199219"/>
      <use xlink:href="#DejaVuSans-2d" x="627.408203"/>
      <use xlink:href="#DejaVuSans-31" x="663.492188"/>
      <use xlink:href="#DejaVuSans-2d" x="727.115234"/>
      <use xlink:href="#DejaVuSans-31" x="763.199219"/>
      <use xlink:href="#DejaVuSans-36" x="826.822266"/>
      <use xlink:href="#DejaVuSans-43" x="890.445312"/>
     </g>
    </g>
    <g id="line2d_23">
     <path d="M 84.78 59.660156 
L 95.78 59.660156 
L 106.78 59.660156 
" style="fill: none; stroke: #55a868; stroke-width: 3; stroke-linecap: round"/>
    </g>
    <g id="text_19">
     <!-- DCAC-DELAY-5-16C -->
     <g style="fill: #262626" transform="translate(115.58 63.510156)scale(0.11 -0.11)">
      <use xlink:href="#DejaVuSans-44"/>
      <use xlink:href="#DejaVuSans-43" x="77.001953"/>
      <use xlink:href="#DejaVuSans-41" x="146.826172"/>
      <use xlink:href="#DejaVuSans-43" x="213.484375"/>
      <use xlink:href="#DejaVuSans-2d" x="283.308594"/>
      <use xlink:href="#DejaVuSans-44" x="319.392578"/>
      <use xlink:href="#DejaVuSans-45" x="396.394531"/>
      <use xlink:href="#DejaVuSans-4c" x="459.578125"/>
      <use xlink:href="#DejaVuSans-41" x="517.541016"/>
      <use xlink:href="#DejaVuSans-59" x="578.199219"/>
      <use xlink:href="#DejaVuSans-2d" x="627.408203"/>
      <use xlink:href="#DejaVuSans-35" x="663.492188"/>
      <use xlink:href="#DejaVuSans-2d" x="727.115234"/>
      <use xlink:href="#DejaVuSans-31" x="763.199219"/>
      <use xlink:href="#DejaVuSans-36" x="826.822266"/>
      <use xlink:href="#DejaVuSans-43" x="890.445312"/>
     </g>
    </g>
    <g id="line2d_24">
     <path d="M 84.78 75.806094 
L 95.78 75.806094 
L 106.78 75.806094 
" style="fill: none; stroke: #c44e52; stroke-width: 3; stroke-linecap: round"/>
    </g>
    <g id="text_20">
     <!-- DCAC-DELAY-10-16C -->
     <g style="fill: #262626" transform="translate(115.58 79.656094)scale(0.11 -0.11)">
      <use xlink:href="#DejaVuSans-44"/>
      <use xlink:href="#DejaVuSans-43" x="77.001953"/>
      <use xlink:href="#DejaVuSans-41" x="146.826172"/>
      <use xlink:href="#DejaVuSans-43" x="213.484375"/>
      <use xlink:href="#DejaVuSans-2d" x="283.308594"/>
      <use xlink:href="#DejaVuSans-44" x="319.392578"/>
      <use xlink:href="#DejaVuSans-45" x="396.394531"/>
      <use xlink:href="#DejaVuSans-4c" x="459.578125"/>
      <use xlink:href="#DejaVuSans-41" x="517.541016"/>
      <use xlink:href="#DejaVuSans-59" x="578.199219"/>
      <use xlink:href="#DejaVuSans-2d" x="627.408203"/>
      <use xlink:href="#DejaVuSans-31" x="663.492188"/>
      <use xlink:href="#DejaVuSans-30" x="727.115234"/>
      <use xlink:href="#DejaVuSans-2d" x="790.738281"/>
      <use xlink:href="#DejaVuSans-31" x="826.822266"/>
      <use xlink:href="#DejaVuSans-36" x="890.445312"/>
      <use xlink:href="#DejaVuSans-43" x="954.068359"/>
     </g>
    </g>
    <g id="line2d_25">
     <path d="M 84.78 91.952031 
L 95.78 91.952031 
L 106.78 91.952031 
" style="fill: none; stroke: #8172b3; stroke-width: 3; stroke-linecap: round"/>
    </g>
    <g id="text_21">
     <!-- DCAC-DELAY-20-16C -->
     <g style="fill: #262626" transform="translate(115.58 95.802031)scale(0.11 -0.11)">
      <use xlink:href="#DejaVuSans-44"/>
      <use xlink:href="#DejaVuSans-43" x="77.001953"/>
      <use xlink:href="#DejaVuSans-41" x="146.826172"/>
      <use xlink:href="#DejaVuSans-43" x="213.484375"/>
      <use xlink:href="#DejaVuSans-2d" x="283.308594"/>
      <use xlink:href="#DejaVuSans-44" x="319.392578"/>
      <use xlink:href="#DejaVuSans-45" x="396.394531"/>
      <use xlink:href="#DejaVuSans-4c" x="459.578125"/>
      <use xlink:href="#DejaVuSans-41" x="517.541016"/>
      <use xlink:href="#DejaVuSans-59" x="578.199219"/>
      <use xlink:href="#DejaVuSans-2d" x="627.408203"/>
      <use xlink:href="#DejaVuSans-32" x="663.492188"/>
      <use xlink:href="#DejaVuSans-30" x="727.115234"/>
      <use xlink:href="#DejaVuSans-2d" x="790.738281"/>
      <use xlink:href="#DejaVuSans-31" x="826.822266"/>
      <use xlink:href="#DejaVuSans-36" x="890.445312"/>
      <use xlink:href="#DejaVuSans-43" x="954.068359"/>
     </g>
    </g>
    <g id="line2d_26">
     <path d="M 84.78 108.097969 
L 95.78 108.097969 
L 106.78 108.097969 
" style="fill: none; stroke: #937860; stroke-width: 3; stroke-linecap: round"/>
    </g>
    <g id="text_22">
     <!-- DCAC-DELAY-100-16C -->
     <g style="fill: #262626" transform="translate(115.58 111.947969)scale(0.11 -0.11)">
      <use xlink:href="#DejaVuSans-44"/>
      <use xlink:href="#DejaVuSans-43" x="77.001953"/>
      <use xlink:href="#DejaVuSans-41" x="146.826172"/>
      <use xlink:href="#DejaVuSans-43" x="213.484375"/>
      <use xlink:href="#DejaVuSans-2d" x="283.308594"/>
      <use xlink:href="#DejaVuSans-44" x="319.392578"/>
      <use xlink:href="#DejaVuSans-45" x="396.394531"/>
      <use xlink:href="#DejaVuSans-4c" x="459.578125"/>
      <use xlink:href="#DejaVuSans-41" x="517.541016"/>
      <use xlink:href="#DejaVuSans-59" x="578.199219"/>
      <use xlink:href="#DejaVuSans-2d" x="627.408203"/>
      <use xlink:href="#DejaVuSans-31" x="663.492188"/>
      <use xlink:href="#DejaVuSans-30" x="727.115234"/>
      <use xlink:href="#DejaVuSans-30" x="790.738281"/>
      <use xlink:href="#DejaVuSans-2d" x="854.361328"/>
      <use xlink:href="#DejaVuSans-31" x="890.445312"/>
      <use xlink:href="#DejaVuSans-36" x="954.068359"/>
      <use xlink:href="#DejaVuSans-43" x="1017.691406"/>
     </g>
    </g>
   </g>
  </g>
 </g>
 <defs>
  <clipPath id="pe911870b9b">
   <rect x="74.88" y="12.96" width="372.96" height="281.7"/>
  </clipPath>
 </defs>
</svg>
