<?xml version="1.0" encoding="utf-8" standalone="no"?>
<!DOCTYPE svg PUBLIC "-//W3C//DTD SVG 1.1//EN"
  "http://www.w3.org/Graphics/SVG/1.1/DTD/svg11.dtd">
<svg xmlns:xlink="http://www.w3.org/1999/xlink" width="460.8pt" height="345.6pt" viewBox="0 0 460.8 345.6" xmlns="http://www.w3.org/2000/svg" version="1.1">
 <metadata>
  <rdf:RDF xmlns:dc="http://purl.org/dc/elements/1.1/" xmlns:cc="http://creativecommons.org/ns#" xmlns:rdf="http://www.w3.org/1999/02/22-rdf-syntax-ns#">
   <cc:Work>
    <dc:type rdf:resource="http://purl.org/dc/dcmitype/StillImage"/>
    <dc:date>2022-09-10T15:50:58.354392</dc:date>
    <dc:format>image/svg+xml</dc:format>
    <dc:creator>
     <cc:Agent>
      <dc:title>Matplotlib v3.5.3, https://matplotlib.org/</dc:title>
     </cc:Agent>
    </dc:creator>
   </cc:Work>
  </rdf:RDF>
 </metadata>
 <defs>
  <style type="text/css">*{stroke-linejoin: round; stroke-linecap: butt}</style>
 </defs>
 <g id="figure_1">
  <g id="patch_1">
   <path d="M 0 345.6 
L 460.8 345.6 
L 460.8 0 
L 0 0 
z
" style="fill: #ffffff"/>
  </g>
  <g id="axes_1">
   <g id="patch_2">
    <path d="M 74.88 294.66 
L 447.84 294.66 
L 447.84 29.76 
L 74.88 29.76 
z
" style="fill: #eaeaf2"/>
   </g>
   <g id="matplotlib.axis_1">
    <g id="xtick_1">
     <g id="line2d_1">
      <path d="M 88.983529 294.66 
L 88.983529 29.76 
" clip-path="url(#pcd83c5325e)" style="fill: none; stroke: #ffffff; stroke-linecap: round"/>
     </g>
     <g id="text_1">
      <!-- 0.00 -->
      <g style="fill: #262626" transform="translate(76.737436 312.518281)scale(0.11 -0.11)">
       <defs>
        <path id="DejaVuSans-30" d="M 2034 4250 
Q 1547 4250 1301 3770 
Q 1056 3291 1056 2328 
Q 1056 1369 1301 889 
Q 1547 409 2034 409 
Q 2525 409 2770 889 
Q 3016 1369 3016 2328 
Q 3016 3291 2770 3770 
Q 2525 4250 2034 4250 
z
M 2034 4750 
Q 2819 4750 3233 4129 
Q 3647 3509 3647 2328 
Q 3647 1150 3233 529 
Q 2819 -91 2034 -91 
Q 1250 -91 836 529 
Q 422 1150 422 2328 
Q 422 3509 836 4129 
Q 1250 4750 2034 4750 
z
" transform="scale(0.015625)"/>
        <path id="DejaVuSans-2e" d="M 684 794 
L 1344 794 
L 1344 0 
L 684 0 
L 684 794 
z
" transform="scale(0.015625)"/>
       </defs>
       <use xlink:href="#DejaVuSans-30"/>
       <use xlink:href="#DejaVuSans-2e" x="63.623047"/>
       <use xlink:href="#DejaVuSans-30" x="95.410156"/>
       <use xlink:href="#DejaVuSans-30" x="159.033203"/>
      </g>
     </g>
    </g>
    <g id="xtick_2">
     <g id="line2d_2">
      <path d="M 145.967487 294.66 
L 145.967487 29.76 
" clip-path="url(#pcd83c5325e)" style="fill: none; stroke: #ffffff; stroke-linecap: round"/>
     </g>
     <g id="text_2">
      <!-- 0.05 -->
      <g style="fill: #262626" transform="translate(133.721393 312.518281)scale(0.11 -0.11)">
       <defs>
        <path id="DejaVuSans-35" d="M 691 4666 
L 3169 4666 
L 3169 4134 
L 1269 4134 
L 1269 2991 
Q 1406 3038 1543 3061 
Q 1681 3084 1819 3084 
Q 2600 3084 3056 2656 
Q 3513 2228 3513 1497 
Q 3513 744 3044 326 
Q 2575 -91 1722 -91 
Q 1428 -91 1123 -41 
Q 819 9 494 109 
L 494 744 
Q 775 591 1075 516 
Q 1375 441 1709 441 
Q 2250 441 2565 725 
Q 2881 1009 2881 1497 
Q 2881 1984 2565 2268 
Q 2250 2553 1709 2553 
Q 1456 2553 1204 2497 
Q 953 2441 691 2322 
L 691 4666 
z
" transform="scale(0.015625)"/>
       </defs>
       <use xlink:href="#DejaVuSans-30"/>
       <use xlink:href="#DejaVuSans-2e" x="63.623047"/>
       <use xlink:href="#DejaVuSans-30" x="95.410156"/>
       <use xlink:href="#DejaVuSans-35" x="159.033203"/>
      </g>
     </g>
    </g>
    <g id="xtick_3">
     <g id="line2d_3">
      <path d="M 202.951444 294.66 
L 202.951444 29.76 
" clip-path="url(#pcd83c5325e)" style="fill: none; stroke: #ffffff; stroke-linecap: round"/>
     </g>
     <g id="text_3">
      <!-- 0.10 -->
      <g style="fill: #262626" transform="translate(190.70535 312.518281)scale(0.11 -0.11)">
       <defs>
        <path id="DejaVuSans-31" d="M 794 531 
L 1825 531 
L 1825 4091 
L 703 3866 
L 703 4441 
L 1819 4666 
L 2450 4666 
L 2450 531 
L 3481 531 
L 3481 0 
L 794 0 
L 794 531 
z
" transform="scale(0.015625)"/>
       </defs>
       <use xlink:href="#DejaVuSans-30"/>
       <use xlink:href="#DejaVuSans-2e" x="63.623047"/>
       <use xlink:href="#DejaVuSans-31" x="95.410156"/>
       <use xlink:href="#DejaVuSans-30" x="159.033203"/>
      </g>
     </g>
    </g>
    <g id="xtick_4">
     <g id="line2d_4">
      <path d="M 259.935401 294.66 
L 259.935401 29.76 
" clip-path="url(#pcd83c5325e)" style="fill: none; stroke: #ffffff; stroke-linecap: round"/>
     </g>
     <g id="text_4">
      <!-- 0.15 -->
      <g style="fill: #262626" transform="translate(247.689307 312.518281)scale(0.11 -0.11)">
       <use xlink:href="#DejaVuSans-30"/>
       <use xlink:href="#DejaVuSans-2e" x="63.623047"/>
       <use xlink:href="#DejaVuSans-31" x="95.410156"/>
       <use xlink:href="#DejaVuSans-35" x="159.033203"/>
      </g>
     </g>
    </g>
    <g id="xtick_5">
     <g id="line2d_5">
      <path d="M 316.919358 294.66 
L 316.919358 29.76 
" clip-path="url(#pcd83c5325e)" style="fill: none; stroke: #ffffff; stroke-linecap: round"/>
     </g>
     <g id="text_5">
      <!-- 0.20 -->
      <g style="fill: #262626" transform="translate(304.673265 312.518281)scale(0.11 -0.11)">
       <defs>
        <path id="DejaVuSans-32" d="M 1228 531 
L 3431 531 
L 3431 0 
L 469 0 
L 469 531 
Q 828 903 1448 1529 
Q 2069 2156 2228 2338 
Q 2531 2678 2651 2914 
Q 2772 3150 2772 3378 
Q 2772 3750 2511 3984 
Q 2250 4219 1831 4219 
Q 1534 4219 1204 4116 
Q 875 4013 500 3803 
L 500 4441 
Q 881 4594 1212 4672 
Q 1544 4750 1819 4750 
Q 2544 4750 2975 4387 
Q 3406 4025 3406 3419 
Q 3406 3131 3298 2873 
Q 3191 2616 2906 2266 
Q 2828 2175 2409 1742 
Q 1991 1309 1228 531 
z
" transform="scale(0.015625)"/>
       </defs>
       <use xlink:href="#DejaVuSans-30"/>
       <use xlink:href="#DejaVuSans-2e" x="63.623047"/>
       <use xlink:href="#DejaVuSans-32" x="95.410156"/>
       <use xlink:href="#DejaVuSans-30" x="159.033203"/>
      </g>
     </g>
    </g>
    <g id="xtick_6">
     <g id="line2d_6">
      <path d="M 373.903316 294.66 
L 373.903316 29.76 
" clip-path="url(#pcd83c5325e)" style="fill: none; stroke: #ffffff; stroke-linecap: round"/>
     </g>
     <g id="text_6">
      <!-- 0.25 -->
      <g style="fill: #262626" transform="translate(361.657222 312.518281)scale(0.11 -0.11)">
       <use xlink:href="#DejaVuSans-30"/>
       <use xlink:href="#DejaVuSans-2e" x="63.623047"/>
       <use xlink:href="#DejaVuSans-32" x="95.410156"/>
       <use xlink:href="#DejaVuSans-35" x="159.033203"/>
      </g>
     </g>
    </g>
    <g id="xtick_7">
     <g id="line2d_7">
      <path d="M 430.887273 294.66 
L 430.887273 29.76 
" clip-path="url(#pcd83c5325e)" style="fill: none; stroke: #ffffff; stroke-linecap: round"/>
     </g>
     <g id="text_7">
      <!-- 0.30 -->
      <g style="fill: #262626" transform="translate(418.641179 312.518281)scale(0.11 -0.11)">
       <defs>
        <path id="DejaVuSans-33" d="M 2597 2516 
Q 3050 2419 3304 2112 
Q 3559 1806 3559 1356 
Q 3559 666 3084 287 
Q 2609 -91 1734 -91 
Q 1441 -91 1130 -33 
Q 819 25 488 141 
L 488 750 
Q 750 597 1062 519 
Q 1375 441 1716 441 
Q 2309 441 2620 675 
Q 2931 909 2931 1356 
Q 2931 1769 2642 2001 
Q 2353 2234 1838 2234 
L 1294 2234 
L 1294 2753 
L 1863 2753 
Q 2328 2753 2575 2939 
Q 2822 3125 2822 3475 
Q 2822 3834 2567 4026 
Q 2313 4219 1838 4219 
Q 1578 4219 1281 4162 
Q 984 4106 628 3988 
L 628 4550 
Q 988 4650 1302 4700 
Q 1616 4750 1894 4750 
Q 2613 4750 3031 4423 
Q 3450 4097 3450 3541 
Q 3450 3153 3228 2886 
Q 3006 2619 2597 2516 
z
" transform="scale(0.015625)"/>
       </defs>
       <use xlink:href="#DejaVuSans-30"/>
       <use xlink:href="#DejaVuSans-2e" x="63.623047"/>
       <use xlink:href="#DejaVuSans-33" x="95.410156"/>
       <use xlink:href="#DejaVuSans-30" x="159.033203"/>
      </g>
     </g>
    </g>
    <g id="text_8">
     <!-- Timesteps (in Million) -->
     <g style="fill: #262626" transform="translate(186.614219 329.44375)scale(0.14 -0.14)">
      <defs>
       <path id="DejaVuSans-54" d="M -19 4666 
L 3928 4666 
L 3928 4134 
L 2272 4134 
L 2272 0 
L 1638 0 
L 1638 4134 
L -19 4134 
L -19 4666 
z
" transform="scale(0.015625)"/>
       <path id="DejaVuSans-69" d="M 603 3500 
L 1178 3500 
L 1178 0 
L 603 0 
L 603 3500 
z
M 603 4863 
L 1178 4863 
L 1178 4134 
L 603 4134 
L 603 4863 
z
" transform="scale(0.015625)"/>
       <path id="DejaVuSans-6d" d="M 3328 2828 
Q 3544 3216 3844 3400 
Q 4144 3584 4550 3584 
Q 5097 3584 5394 3201 
Q 5691 2819 5691 2113 
L 5691 0 
L 5113 0 
L 5113 2094 
Q 5113 2597 4934 2840 
Q 4756 3084 4391 3084 
Q 3944 3084 3684 2787 
Q 3425 2491 3425 1978 
L 3425 0 
L 2847 0 
L 2847 2094 
Q 2847 2600 2669 2842 
Q 2491 3084 2119 3084 
Q 1678 3084 1418 2786 
Q 1159 2488 1159 1978 
L 1159 0 
L 581 0 
L 581 3500 
L 1159 3500 
L 1159 2956 
Q 1356 3278 1631 3431 
Q 1906 3584 2284 3584 
Q 2666 3584 2933 3390 
Q 3200 3197 3328 2828 
z
" transform="scale(0.015625)"/>
       <path id="DejaVuSans-65" d="M 3597 1894 
L 3597 1613 
L 953 1613 
Q 991 1019 1311 708 
Q 1631 397 2203 397 
Q 2534 397 2845 478 
Q 3156 559 3463 722 
L 3463 178 
Q 3153 47 2828 -22 
Q 2503 -91 2169 -91 
Q 1331 -91 842 396 
Q 353 884 353 1716 
Q 353 2575 817 3079 
Q 1281 3584 2069 3584 
Q 2775 3584 3186 3129 
Q 3597 2675 3597 1894 
z
M 3022 2063 
Q 3016 2534 2758 2815 
Q 2500 3097 2075 3097 
Q 1594 3097 1305 2825 
Q 1016 2553 972 2059 
L 3022 2063 
z
" transform="scale(0.015625)"/>
       <path id="DejaVuSans-73" d="M 2834 3397 
L 2834 2853 
Q 2591 2978 2328 3040 
Q 2066 3103 1784 3103 
Q 1356 3103 1142 2972 
Q 928 2841 928 2578 
Q 928 2378 1081 2264 
Q 1234 2150 1697 2047 
L 1894 2003 
Q 2506 1872 2764 1633 
Q 3022 1394 3022 966 
Q 3022 478 2636 193 
Q 2250 -91 1575 -91 
Q 1294 -91 989 -36 
Q 684 19 347 128 
L 347 722 
Q 666 556 975 473 
Q 1284 391 1588 391 
Q 1994 391 2212 530 
Q 2431 669 2431 922 
Q 2431 1156 2273 1281 
Q 2116 1406 1581 1522 
L 1381 1569 
Q 847 1681 609 1914 
Q 372 2147 372 2553 
Q 372 3047 722 3315 
Q 1072 3584 1716 3584 
Q 2034 3584 2315 3537 
Q 2597 3491 2834 3397 
z
" transform="scale(0.015625)"/>
       <path id="DejaVuSans-74" d="M 1172 4494 
L 1172 3500 
L 2356 3500 
L 2356 3053 
L 1172 3053 
L 1172 1153 
Q 1172 725 1289 603 
Q 1406 481 1766 481 
L 2356 481 
L 2356 0 
L 1766 0 
Q 1100 0 847 248 
Q 594 497 594 1153 
L 594 3053 
L 172 3053 
L 172 3500 
L 594 3500 
L 594 4494 
L 1172 4494 
z
" transform="scale(0.015625)"/>
       <path id="DejaVuSans-70" d="M 1159 525 
L 1159 -1331 
L 581 -1331 
L 581 3500 
L 1159 3500 
L 1159 2969 
Q 1341 3281 1617 3432 
Q 1894 3584 2278 3584 
Q 2916 3584 3314 3078 
Q 3713 2572 3713 1747 
Q 3713 922 3314 415 
Q 2916 -91 2278 -91 
Q 1894 -91 1617 61 
Q 1341 213 1159 525 
z
M 3116 1747 
Q 3116 2381 2855 2742 
Q 2594 3103 2138 3103 
Q 1681 3103 1420 2742 
Q 1159 2381 1159 1747 
Q 1159 1113 1420 752 
Q 1681 391 2138 391 
Q 2594 391 2855 752 
Q 3116 1113 3116 1747 
z
" transform="scale(0.015625)"/>
       <path id="DejaVuSans-20" transform="scale(0.015625)"/>
       <path id="DejaVuSans-28" d="M 1984 4856 
Q 1566 4138 1362 3434 
Q 1159 2731 1159 2009 
Q 1159 1288 1364 580 
Q 1569 -128 1984 -844 
L 1484 -844 
Q 1016 -109 783 600 
Q 550 1309 550 2009 
Q 550 2706 781 3412 
Q 1013 4119 1484 4856 
L 1984 4856 
z
" transform="scale(0.015625)"/>
       <path id="DejaVuSans-6e" d="M 3513 2113 
L 3513 0 
L 2938 0 
L 2938 2094 
Q 2938 2591 2744 2837 
Q 2550 3084 2163 3084 
Q 1697 3084 1428 2787 
Q 1159 2491 1159 1978 
L 1159 0 
L 581 0 
L 581 3500 
L 1159 3500 
L 1159 2956 
Q 1366 3272 1645 3428 
Q 1925 3584 2291 3584 
Q 2894 3584 3203 3211 
Q 3513 2838 3513 2113 
z
" transform="scale(0.015625)"/>
       <path id="DejaVuSans-4d" d="M 628 4666 
L 1569 4666 
L 2759 1491 
L 3956 4666 
L 4897 4666 
L 4897 0 
L 4281 0 
L 4281 4097 
L 3078 897 
L 2444 897 
L 1241 4097 
L 1241 0 
L 628 0 
L 628 4666 
z
" transform="scale(0.015625)"/>
       <path id="DejaVuSans-6c" d="M 603 4863 
L 1178 4863 
L 1178 0 
L 603 0 
L 603 4863 
z
" transform="scale(0.015625)"/>
       <path id="DejaVuSans-6f" d="M 1959 3097 
Q 1497 3097 1228 2736 
Q 959 2375 959 1747 
Q 959 1119 1226 758 
Q 1494 397 1959 397 
Q 2419 397 2687 759 
Q 2956 1122 2956 1747 
Q 2956 2369 2687 2733 
Q 2419 3097 1959 3097 
z
M 1959 3584 
Q 2709 3584 3137 3096 
Q 3566 2609 3566 1747 
Q 3566 888 3137 398 
Q 2709 -91 1959 -91 
Q 1206 -91 779 398 
Q 353 888 353 1747 
Q 353 2609 779 3096 
Q 1206 3584 1959 3584 
z
" transform="scale(0.015625)"/>
       <path id="DejaVuSans-29" d="M 513 4856 
L 1013 4856 
Q 1481 4119 1714 3412 
Q 1947 2706 1947 2009 
Q 1947 1309 1714 600 
Q 1481 -109 1013 -844 
L 513 -844 
Q 928 -128 1133 580 
Q 1338 1288 1338 2009 
Q 1338 2731 1133 3434 
Q 928 4138 513 4856 
z
" transform="scale(0.015625)"/>
      </defs>
      <use xlink:href="#DejaVuSans-54"/>
      <use xlink:href="#DejaVuSans-69" x="57.958984"/>
      <use xlink:href="#DejaVuSans-6d" x="85.742188"/>
      <use xlink:href="#DejaVuSans-65" x="183.154297"/>
      <use xlink:href="#DejaVuSans-73" x="244.677734"/>
      <use xlink:href="#DejaVuSans-74" x="296.777344"/>
      <use xlink:href="#DejaVuSans-65" x="335.986328"/>
      <use xlink:href="#DejaVuSans-70" x="397.509766"/>
      <use xlink:href="#DejaVuSans-73" x="460.986328"/>
      <use xlink:href="#DejaVuSans-20" x="513.085938"/>
      <use xlink:href="#DejaVuSans-28" x="544.873047"/>
      <use xlink:href="#DejaVuSans-69" x="583.886719"/>
      <use xlink:href="#DejaVuSans-6e" x="611.669922"/>
      <use xlink:href="#DejaVuSans-20" x="675.048828"/>
      <use xlink:href="#DejaVuSans-4d" x="706.835938"/>
      <use xlink:href="#DejaVuSans-69" x="793.115234"/>
      <use xlink:href="#DejaVuSans-6c" x="820.898438"/>
      <use xlink:href="#DejaVuSans-6c" x="848.681641"/>
      <use xlink:href="#DejaVuSans-69" x="876.464844"/>
      <use xlink:href="#DejaVuSans-6f" x="904.248047"/>
      <use xlink:href="#DejaVuSans-6e" x="965.429688"/>
      <use xlink:href="#DejaVuSans-29" x="1028.808594"/>
     </g>
    </g>
   </g>
   <g id="matplotlib.axis_2">
    <g id="ytick_1">
     <g id="line2d_8">
      <path d="M 74.88 282.621256 
L 447.84 282.621256 
" clip-path="url(#pcd83c5325e)" style="fill: none; stroke: #ffffff; stroke-linecap: round"/>
     </g>
     <g id="text_9">
      <!-- 0 -->
      <g style="fill: #262626" transform="translate(58.38125 286.800397)scale(0.11 -0.11)">
       <use xlink:href="#DejaVuSans-30"/>
      </g>
     </g>
    </g>
    <g id="ytick_2">
     <g id="line2d_9">
      <path d="M 74.88 242.242817 
L 447.84 242.242817 
" clip-path="url(#pcd83c5325e)" style="fill: none; stroke: #ffffff; stroke-linecap: round"/>
     </g>
     <g id="text_10">
      <!-- 10000 -->
      <g style="fill: #262626" transform="translate(30.38625 246.421957)scale(0.11 -0.11)">
       <use xlink:href="#DejaVuSans-31"/>
       <use xlink:href="#DejaVuSans-30" x="63.623047"/>
       <use xlink:href="#DejaVuSans-30" x="127.246094"/>
       <use xlink:href="#DejaVuSans-30" x="190.869141"/>
       <use xlink:href="#DejaVuSans-30" x="254.492188"/>
      </g>
     </g>
    </g>
    <g id="ytick_3">
     <g id="line2d_10">
      <path d="M 74.88 201.864377 
L 447.84 201.864377 
" clip-path="url(#pcd83c5325e)" style="fill: none; stroke: #ffffff; stroke-linecap: round"/>
     </g>
     <g id="text_11">
      <!-- 20000 -->
      <g style="fill: #262626" transform="translate(30.38625 206.043518)scale(0.11 -0.11)">
       <use xlink:href="#DejaVuSans-32"/>
       <use xlink:href="#DejaVuSans-30" x="63.623047"/>
       <use xlink:href="#DejaVuSans-30" x="127.246094"/>
       <use xlink:href="#DejaVuSans-30" x="190.869141"/>
       <use xlink:href="#DejaVuSans-30" x="254.492188"/>
      </g>
     </g>
    </g>
    <g id="ytick_4">
     <g id="line2d_11">
      <path d="M 74.88 161.485938 
L 447.84 161.485938 
" clip-path="url(#pcd83c5325e)" style="fill: none; stroke: #ffffff; stroke-linecap: round"/>
     </g>
     <g id="text_12">
      <!-- 30000 -->
      <g style="fill: #262626" transform="translate(30.38625 165.665078)scale(0.11 -0.11)">
       <use xlink:href="#DejaVuSans-33"/>
       <use xlink:href="#DejaVuSans-30" x="63.623047"/>
       <use xlink:href="#DejaVuSans-30" x="127.246094"/>
       <use xlink:href="#DejaVuSans-30" x="190.869141"/>
       <use xlink:href="#DejaVuSans-30" x="254.492188"/>
      </g>
     </g>
    </g>
    <g id="ytick_5">
     <g id="line2d_12">
      <path d="M 74.88 121.107498 
L 447.84 121.107498 
" clip-path="url(#pcd83c5325e)" style="fill: none; stroke: #ffffff; stroke-linecap: round"/>
     </g>
     <g id="text_13">
      <!-- 40000 -->
      <g style="fill: #262626" transform="translate(30.38625 125.286639)scale(0.11 -0.11)">
       <defs>
        <path id="DejaVuSans-34" d="M 2419 4116 
L 825 1625 
L 2419 1625 
L 2419 4116 
z
M 2253 4666 
L 3047 4666 
L 3047 1625 
L 3713 1625 
L 3713 1100 
L 3047 1100 
L 3047 0 
L 2419 0 
L 2419 1100 
L 313 1100 
L 313 1709 
L 2253 4666 
z
" transform="scale(0.015625)"/>
       </defs>
       <use xlink:href="#DejaVuSans-34"/>
       <use xlink:href="#DejaVuSans-30" x="63.623047"/>
       <use xlink:href="#DejaVuSans-30" x="127.246094"/>
       <use xlink:href="#DejaVuSans-30" x="190.869141"/>
       <use xlink:href="#DejaVuSans-30" x="254.492188"/>
      </g>
     </g>
    </g>
    <g id="ytick_6">
     <g id="line2d_13">
      <path d="M 74.88 80.729058 
L 447.84 80.729058 
" clip-path="url(#pcd83c5325e)" style="fill: none; stroke: #ffffff; stroke-linecap: round"/>
     </g>
     <g id="text_14">
      <!-- 50000 -->
      <g style="fill: #262626" transform="translate(30.38625 84.908199)scale(0.11 -0.11)">
       <use xlink:href="#DejaVuSans-35"/>
       <use xlink:href="#DejaVuSans-30" x="63.623047"/>
       <use xlink:href="#DejaVuSans-30" x="127.246094"/>
       <use xlink:href="#DejaVuSans-30" x="190.869141"/>
       <use xlink:href="#DejaVuSans-30" x="254.492188"/>
      </g>
     </g>
    </g>
    <g id="ytick_7">
     <g id="line2d_14">
      <path d="M 74.88 40.350619 
L 447.84 40.350619 
" clip-path="url(#pcd83c5325e)" style="fill: none; stroke: #ffffff; stroke-linecap: round"/>
     </g>
     <g id="text_15">
      <!-- 60000 -->
      <g style="fill: #262626" transform="translate(30.38625 44.529759)scale(0.11 -0.11)">
       <defs>
        <path id="DejaVuSans-36" d="M 2113 2584 
Q 1688 2584 1439 2293 
Q 1191 2003 1191 1497 
Q 1191 994 1439 701 
Q 1688 409 2113 409 
Q 2538 409 2786 701 
Q 3034 994 3034 1497 
Q 3034 2003 2786 2293 
Q 2538 2584 2113 2584 
z
M 3366 4563 
L 3366 3988 
Q 3128 4100 2886 4159 
Q 2644 4219 2406 4219 
Q 1781 4219 1451 3797 
Q 1122 3375 1075 2522 
Q 1259 2794 1537 2939 
Q 1816 3084 2150 3084 
Q 2853 3084 3261 2657 
Q 3669 2231 3669 1497 
Q 3669 778 3244 343 
Q 2819 -91 2113 -91 
Q 1303 -91 875 529 
Q 447 1150 447 2328 
Q 447 3434 972 4092 
Q 1497 4750 2381 4750 
Q 2619 4750 2861 4703 
Q 3103 4656 3366 4563 
z
" transform="scale(0.015625)"/>
       </defs>
       <use xlink:href="#DejaVuSans-36"/>
       <use xlink:href="#DejaVuSans-30" x="63.623047"/>
       <use xlink:href="#DejaVuSans-30" x="127.246094"/>
       <use xlink:href="#DejaVuSans-30" x="190.869141"/>
       <use xlink:href="#DejaVuSans-30" x="254.492188"/>
      </g>
     </g>
    </g>
    <g id="text_16">
     <!-- Traintime -->
     <g style="fill: #262626" transform="translate(23.474687 194.815781)rotate(-90)scale(0.14 -0.14)">
      <defs>
       <path id="DejaVuSans-72" d="M 2631 2963 
Q 2534 3019 2420 3045 
Q 2306 3072 2169 3072 
Q 1681 3072 1420 2755 
Q 1159 2438 1159 1844 
L 1159 0 
L 581 0 
L 581 3500 
L 1159 3500 
L 1159 2956 
Q 1341 3275 1631 3429 
Q 1922 3584 2338 3584 
Q 2397 3584 2469 3576 
Q 2541 3569 2628 3553 
L 2631 2963 
z
" transform="scale(0.015625)"/>
       <path id="DejaVuSans-61" d="M 2194 1759 
Q 1497 1759 1228 1600 
Q 959 1441 959 1056 
Q 959 750 1161 570 
Q 1363 391 1709 391 
Q 2188 391 2477 730 
Q 2766 1069 2766 1631 
L 2766 1759 
L 2194 1759 
z
M 3341 1997 
L 3341 0 
L 2766 0 
L 2766 531 
Q 2569 213 2275 61 
Q 1981 -91 1556 -91 
Q 1019 -91 701 211 
Q 384 513 384 1019 
Q 384 1609 779 1909 
Q 1175 2209 1959 2209 
L 2766 2209 
L 2766 2266 
Q 2766 2663 2505 2880 
Q 2244 3097 1772 3097 
Q 1472 3097 1187 3025 
Q 903 2953 641 2809 
L 641 3341 
Q 956 3463 1253 3523 
Q 1550 3584 1831 3584 
Q 2591 3584 2966 3190 
Q 3341 2797 3341 1997 
z
" transform="scale(0.015625)"/>
      </defs>
      <use xlink:href="#DejaVuSans-54"/>
      <use xlink:href="#DejaVuSans-72" x="46.333984"/>
      <use xlink:href="#DejaVuSans-61" x="87.447266"/>
      <use xlink:href="#DejaVuSans-69" x="148.726562"/>
      <use xlink:href="#DejaVuSans-6e" x="176.509766"/>
      <use xlink:href="#DejaVuSans-74" x="239.888672"/>
      <use xlink:href="#DejaVuSans-69" x="279.097656"/>
      <use xlink:href="#DejaVuSans-6d" x="306.880859"/>
      <use xlink:href="#DejaVuSans-65" x="404.292969"/>
     </g>
    </g>
   </g>
   <g id="PolyCollection_1">
    <defs>
     <path id="m64dc9a8942" d="M 91.832727 -62.980909 
L 91.832727 -62.981121 
L 94.681925 -62.983422 
L 97.531123 -62.985725 
L 100.380321 -62.988053 
L 103.229519 -63.007763 
L 106.078717 -63.027083 
L 108.927914 -63.046478 
L 111.777112 -63.066809 
L 114.62631 -63.086207 
L 117.475508 -63.105609 
L 120.324706 -63.125054 
L 123.173904 -63.14471 
L 126.023102 -63.163994 
L 128.872299 -63.183231 
L 131.721497 -63.202798 
L 134.570695 -63.222569 
L 137.419893 -63.241969 
L 140.269091 -63.261661 
L 143.118289 -63.281093 
L 145.967487 -63.300526 
L 148.816684 -63.320619 
L 151.665882 -63.340196 
L 154.51508 -63.35964 
L 157.364278 -63.378918 
L 160.213476 -63.398142 
L 163.062674 -63.417762 
L 165.911872 -63.436529 
L 168.76107 -63.456392 
L 171.610267 -63.475843 
L 174.459465 -63.495395 
L 177.308663 -63.514553 
L 180.157861 -63.534139 
L 183.007059 -63.553732 
L 185.856257 -63.573075 
L 188.705455 -63.592484 
L 191.554652 -63.611677 
L 194.40385 -63.631235 
L 197.253048 -63.650409 
L 200.102246 -63.669924 
L 202.951444 -63.688965 
L 205.800642 -63.708603 
L 208.64984 -63.72836 
L 211.499037 -63.748493 
L 214.348235 -63.767766 
L 217.197433 -63.787247 
L 220.046631 -63.806546 
L 222.895829 -63.825909 
L 225.745027 -63.845617 
L 228.594225 -63.865317 
L 231.443422 -63.884318 
L 234.29262 -63.904266 
L 237.141818 -63.924192 
L 239.991016 -63.943668 
L 242.840214 -63.963428 
L 245.689412 -63.982802 
L 248.53861 -64.001968 
L 251.387807 -64.021491 
L 254.237005 -64.040572 
L 257.086203 -64.06022 
L 259.935401 -64.079369 
L 262.784599 -64.098789 
L 265.633797 -64.118273 
L 268.482995 -64.13771 
L 271.332193 -64.156966 
L 274.18139 -64.175996 
L 277.030588 -64.195343 
L 279.879786 -64.21482 
L 282.728984 -64.233743 
L 285.578182 -64.252558 
L 288.42738 -64.271495 
L 291.276578 -64.29096 
L 294.125775 -64.309762 
L 296.974973 -64.329191 
L 299.824171 -64.34818 
L 302.673369 -64.367192 
L 305.522567 -64.386178 
L 308.371765 -64.406042 
L 311.220963 -64.425316 
L 314.07016 -64.445094 
L 316.919358 -64.464572 
L 319.768556 -64.483458 
L 322.617754 -64.5028 
L 325.466952 -64.522264 
L 328.31615 -64.542261 
L 331.165348 -64.561411 
L 334.014545 -64.58112 
L 336.863743 -64.600544 
L 339.712941 -64.619929 
L 342.562139 -64.639626 
L 345.411337 -64.658537 
L 348.260535 -64.677537 
L 351.109733 -64.696539 
L 353.95893 -64.715384 
L 356.808128 -64.735323 
L 359.657326 -64.754451 
L 362.506524 -64.77361 
L 365.355722 -64.792982 
L 368.20492 -64.811858 
L 371.054118 -64.831249 
L 373.903316 -64.850585 
L 376.752513 -64.870008 
L 379.601711 -64.889767 
L 382.450909 -64.909635 
L 385.300107 -64.92861 
L 388.149305 -64.948068 
L 390.998503 -64.967505 
L 393.847701 -64.986438 
L 396.696898 -65.005759 
L 399.546096 -65.025176 
L 402.395294 -65.044812 
L 405.244492 -65.064134 
L 408.09369 -65.083125 
L 410.942888 -65.102343 
L 413.792086 -65.121363 
L 416.641283 -65.140249 
L 419.490481 -65.159201 
L 422.339679 -65.178623 
L 425.188877 -65.19782 
L 428.038075 -65.217519 
L 430.887273 -65.237402 
L 430.887273 -65.191092 
L 430.887273 -65.191092 
L 428.038075 -65.172272 
L 425.188877 -65.153695 
L 422.339679 -65.134556 
L 419.490481 -65.115979 
L 416.641283 -65.097236 
L 413.792086 -65.078508 
L 410.942888 -65.05953 
L 408.09369 -65.040948 
L 405.244492 -65.02214 
L 402.395294 -65.003211 
L 399.546096 -64.983777 
L 396.696898 -64.964755 
L 393.847701 -64.946284 
L 390.998503 -64.927493 
L 388.149305 -64.908514 
L 385.300107 -64.889159 
L 382.450909 -64.87009 
L 379.601711 -64.851198 
L 376.752513 -64.832451 
L 373.903316 -64.813436 
L 371.054118 -64.794678 
L 368.20492 -64.775928 
L 365.355722 -64.757019 
L 362.506524 -64.737871 
L 359.657326 -64.718964 
L 356.808128 -64.700075 
L 353.95893 -64.681184 
L 351.109733 -64.66193 
L 348.260535 -64.642836 
L 345.411337 -64.624289 
L 342.562139 -64.60553 
L 339.712941 -64.586451 
L 336.863743 -64.56721 
L 334.014545 -64.548223 
L 331.165348 -64.529246 
L 328.31615 -64.510103 
L 325.466952 -64.491138 
L 322.617754 -64.47191 
L 319.768556 -64.452598 
L 316.919358 -64.433729 
L 314.07016 -64.414569 
L 311.220963 -64.395847 
L 308.371765 -64.376623 
L 305.522567 -64.357793 
L 302.673369 -64.33815 
L 299.824171 -64.319205 
L 296.974973 -64.300017 
L 294.125775 -64.281227 
L 291.276578 -64.262064 
L 288.42738 -64.242892 
L 285.578182 -64.223414 
L 282.728984 -64.204282 
L 279.879786 -64.185604 
L 277.030588 -64.166826 
L 274.18139 -64.148439 
L 271.332193 -64.129505 
L 268.482995 -64.110631 
L 265.633797 -64.091261 
L 262.784599 -64.072349 
L 259.935401 -64.053531 
L 257.086203 -64.034334 
L 254.237005 -64.015119 
L 251.387807 -63.996102 
L 248.53861 -63.976963 
L 245.689412 -63.957772 
L 242.840214 -63.938991 
L 239.991016 -63.919498 
L 237.141818 -63.899998 
L 234.29262 -63.880871 
L 231.443422 -63.862101 
L 228.594225 -63.843278 
L 225.745027 -63.823965 
L 222.895829 -63.804873 
L 220.046631 -63.785961 
L 217.197433 -63.767294 
L 214.348235 -63.748461 
L 211.499037 -63.729449 
L 208.64984 -63.710747 
L 205.800642 -63.691943 
L 202.951444 -63.672762 
L 200.102246 -63.653746 
L 197.253048 -63.634866 
L 194.40385 -63.61603 
L 191.554652 -63.597064 
L 188.705455 -63.578198 
L 185.856257 -63.559781 
L 183.007059 -63.540938 
L 180.157861 -63.521773 
L 177.308663 -63.502484 
L 174.459465 -63.483489 
L 171.610267 -63.464265 
L 168.76107 -63.445171 
L 165.911872 -63.425659 
L 163.062674 -63.40651 
L 160.213476 -63.387723 
L 157.364278 -63.369013 
L 154.51508 -63.350319 
L 151.665882 -63.331536 
L 148.816684 -63.312566 
L 145.967487 -63.293618 
L 143.118289 -63.274472 
L 140.269091 -63.254733 
L 137.419893 -63.23548 
L 134.570695 -63.216639 
L 131.721497 -63.197891 
L 128.872299 -63.178839 
L 126.023102 -63.15996 
L 123.173904 -63.141096 
L 120.324706 -63.1222 
L 117.475508 -63.103064 
L 114.62631 -63.083511 
L 111.777112 -63.064646 
L 108.927914 -63.045604 
L 106.078717 -63.026219 
L 103.229519 -63.007008 
L 100.380321 -62.987488 
L 97.531123 -62.985305 
L 94.681925 -62.983133 
L 91.832727 -62.980909 
z
" style="stroke: #ffffff; stroke-opacity: 0.5"/>
    </defs>
    <g clip-path="url(#pcd83c5325e)">
     <use xlink:href="#m64dc9a8942" x="0" y="345.6" style="fill: #4c72b0; fill-opacity: 0.5; stroke: #ffffff; stroke-opacity: 0.5"/>
    </g>
   </g>
   <g id="PolyCollection_2">
    <defs>
     <path id="md484105281" d="M 91.832727 -62.983724 
L 91.832727 -62.984019 
L 94.681925 -62.99 
L 97.531123 -62.996236 
L 100.380321 -63.002177 
L 103.229519 -63.036007 
L 106.078717 -63.069803 
L 108.927914 -63.103172 
L 111.777112 -63.136449 
L 114.62631 -63.16999 
L 117.475508 -63.203369 
L 120.324706 -63.237357 
L 123.173904 -63.270439 
L 126.023102 -63.30331 
L 128.872299 -63.336863 
L 131.721497 -63.371034 
L 134.570695 -63.405249 
L 137.419893 -63.438805 
L 140.269091 -63.472353 
L 143.118289 -63.505966 
L 145.967487 -63.539589 
L 148.816684 -63.574057 
L 151.665882 -63.608055 
L 154.51508 -63.641018 
L 157.364278 -63.673971 
L 160.213476 -63.706948 
L 163.062674 -63.74057 
L 165.911872 -63.774395 
L 168.76107 -63.808327 
L 171.610267 -63.841962 
L 174.459465 -63.876489 
L 177.308663 -63.910318 
L 180.157861 -63.943832 
L 183.007059 -63.978117 
L 185.856257 -64.012898 
L 188.705455 -64.047601 
L 191.554652 -64.081471 
L 194.40385 -64.114092 
L 197.253048 -64.148233 
L 200.102246 -64.182847 
L 202.951444 -64.217563 
L 205.800642 -64.251075 
L 208.64984 -64.284779 
L 211.499037 -64.318926 
L 214.348235 -64.353351 
L 217.197433 -64.387392 
L 220.046631 -64.420965 
L 222.895829 -64.454527 
L 225.745027 -64.488327 
L 228.594225 -64.522633 
L 231.443422 -64.556256 
L 234.29262 -64.58944 
L 237.141818 -64.622645 
L 239.991016 -64.655842 
L 242.840214 -64.689543 
L 245.689412 -64.723353 
L 248.53861 -64.756925 
L 251.387807 -64.790651 
L 254.237005 -64.823978 
L 257.086203 -64.858889 
L 259.935401 -64.892458 
L 262.784599 -64.925778 
L 265.633797 -64.958819 
L 268.482995 -64.992308 
L 271.332193 -65.026105 
L 274.18139 -65.05925 
L 277.030588 -65.092776 
L 279.879786 -65.126443 
L 282.728984 -65.160488 
L 285.578182 -65.194165 
L 288.42738 -65.227847 
L 291.276578 -65.262694 
L 294.125775 -65.296481 
L 296.974973 -65.330411 
L 299.824171 -65.363859 
L 302.673369 -65.397283 
L 305.522567 -65.43147 
L 308.371765 -65.464974 
L 311.220963 -65.498178 
L 314.07016 -65.531183 
L 316.919358 -65.564713 
L 319.768556 -65.598357 
L 322.617754 -65.631159 
L 325.466952 -65.664697 
L 328.31615 -65.697949 
L 331.165348 -65.730239 
L 334.014545 -65.762948 
L 336.863743 -65.795844 
L 339.712941 -65.829741 
L 342.562139 -65.862472 
L 345.411337 -65.89542 
L 348.260535 -65.929113 
L 351.109733 -65.962361 
L 353.95893 -65.995087 
L 356.808128 -66.02801 
L 359.657326 -66.061715 
L 362.506524 -66.094743 
L 365.355722 -66.128427 
L 368.20492 -66.161383 
L 371.054118 -66.193953 
L 373.903316 -66.226375 
L 376.752513 -66.259739 
L 379.601711 -66.293012 
L 382.450909 -66.326615 
L 385.300107 -66.360193 
L 388.149305 -66.393094 
L 390.998503 -66.425545 
L 393.847701 -66.458988 
L 396.696898 -66.492416 
L 399.546096 -66.524895 
L 402.395294 -66.557786 
L 405.244492 -66.59003 
L 408.09369 -66.623688 
L 410.942888 -66.656604 
L 413.792086 -66.689618 
L 416.641283 -66.722491 
L 419.490481 -66.755702 
L 422.339679 -66.788002 
L 425.188877 -66.821017 
L 428.038075 -66.855511 
L 430.887273 -66.888883 
L 430.887273 -66.88593 
L 430.887273 -66.88593 
L 428.038075 -66.851902 
L 425.188877 -66.817991 
L 422.339679 -66.783942 
L 419.490481 -66.749901 
L 416.641283 -66.716634 
L 413.792086 -66.683096 
L 410.942888 -66.649489 
L 408.09369 -66.616133 
L 405.244492 -66.582958 
L 402.395294 -66.549196 
L 399.546096 -66.515701 
L 396.696898 -66.481578 
L 393.847701 -66.44797 
L 390.998503 -66.413801 
L 388.149305 -66.380895 
L 385.300107 -66.347698 
L 382.450909 -66.314691 
L 379.601711 -66.280717 
L 376.752513 -66.247638 
L 373.903316 -66.214507 
L 371.054118 -66.181263 
L 368.20492 -66.147977 
L 365.355722 -66.114562 
L 362.506524 -66.081173 
L 359.657326 -66.047715 
L 356.808128 -66.014099 
L 353.95893 -65.98105 
L 351.109733 -65.94776 
L 348.260535 -65.91464 
L 345.411337 -65.88196 
L 342.562139 -65.848045 
L 339.712941 -65.814853 
L 336.863743 -65.78153 
L 334.014545 -65.747989 
L 331.165348 -65.715203 
L 328.31615 -65.681599 
L 325.466952 -65.648169 
L 322.617754 -65.613577 
L 319.768556 -65.580535 
L 316.919358 -65.54744 
L 314.07016 -65.51397 
L 311.220963 -65.481129 
L 308.371765 -65.447876 
L 305.522567 -65.415766 
L 302.673369 -65.382863 
L 299.824171 -65.34956 
L 296.974973 -65.316408 
L 294.125775 -65.283417 
L 291.276578 -65.250462 
L 288.42738 -65.21709 
L 285.578182 -65.184161 
L 282.728984 -65.15102 
L 279.879786 -65.118397 
L 277.030588 -65.084898 
L 274.18139 -65.051873 
L 271.332193 -65.018853 
L 268.482995 -64.985719 
L 265.633797 -64.952126 
L 262.784599 -64.918332 
L 259.935401 -64.883986 
L 257.086203 -64.850473 
L 254.237005 -64.815707 
L 251.387807 -64.782247 
L 248.53861 -64.74866 
L 245.689412 -64.715564 
L 242.840214 -64.682148 
L 239.991016 -64.648617 
L 237.141818 -64.615769 
L 234.29262 -64.582369 
L 231.443422 -64.548757 
L 228.594225 -64.514671 
L 225.745027 -64.480868 
L 222.895829 -64.446844 
L 220.046631 -64.41369 
L 217.197433 -64.379799 
L 214.348235 -64.346232 
L 211.499037 -64.312738 
L 208.64984 -64.279151 
L 205.800642 -64.245847 
L 202.951444 -64.213149 
L 200.102246 -64.178386 
L 197.253048 -64.144729 
L 194.40385 -64.111108 
L 191.554652 -64.078785 
L 188.705455 -64.045133 
L 185.856257 -64.011255 
L 183.007059 -63.977431 
L 180.157861 -63.9438 
L 177.308663 -63.909112 
L 174.459465 -63.875814 
L 171.610267 -63.841452 
L 168.76107 -63.808044 
L 165.911872 -63.774048 
L 163.062674 -63.740486 
L 160.213476 -63.70667 
L 157.364278 -63.673878 
L 154.51508 -63.639723 
L 151.665882 -63.605525 
L 148.816684 -63.571315 
L 145.967487 -63.537008 
L 143.118289 -63.502725 
L 140.269091 -63.469077 
L 137.419893 -63.435561 
L 134.570695 -63.402116 
L 131.721497 -63.368084 
L 128.872299 -63.33437 
L 126.023102 -63.300658 
L 123.173904 -63.268954 
L 120.324706 -63.235635 
L 117.475508 -63.202071 
L 114.62631 -63.168582 
L 111.777112 -63.135007 
L 108.927914 -63.101369 
L 106.078717 -63.068114 
L 103.229519 -63.034667 
L 100.380321 -63.001437 
L 97.531123 -62.995479 
L 94.681925 -62.989466 
L 91.832727 -62.983724 
z
" style="stroke: #ffffff; stroke-opacity: 0.5"/>
    </defs>
    <g clip-path="url(#pcd83c5325e)">
     <use xlink:href="#md484105281" x="0" y="345.6" style="fill: #dd8452; fill-opacity: 0.5; stroke: #ffffff; stroke-opacity: 0.5"/>
    </g>
   </g>
   <g id="PolyCollection_3">
    <defs>
     <path id="m8081cbc383" d="M 91.832727 -62.984323 
L 91.832727 -62.984407 
L 94.681925 -62.990815 
L 97.531123 -62.997498 
L 100.380321 -63.003913 
L 103.229519 -63.067222 
L 106.078717 -63.130439 
L 108.927914 -63.193662 
L 111.777112 -63.256454 
L 114.62631 -63.319647 
L 117.475508 -63.383529 
L 120.324706 -63.447069 
L 123.173904 -63.511125 
L 126.023102 -63.57167 
L 128.872299 -63.63339 
L 131.721497 -63.696079 
L 134.570695 -63.759222 
L 137.419893 -63.821524 
L 140.269091 -63.883656 
L 143.118289 -63.94489 
L 145.967487 -64.007383 
L 148.816684 -64.068747 
L 151.665882 -64.131244 
L 154.51508 -64.191852 
L 157.364278 -64.25341 
L 160.213476 -64.312969 
L 163.062674 -64.374505 
L 165.911872 -64.435978 
L 168.76107 -64.497672 
L 171.610267 -64.560782 
L 174.459465 -64.6239 
L 177.308663 -64.687608 
L 180.157861 -64.750519 
L 183.007059 -64.813782 
L 185.856257 -64.878531 
L 188.705455 -64.941547 
L 191.554652 -65.005225 
L 194.40385 -65.065726 
L 197.253048 -65.128006 
L 200.102246 -65.191269 
L 202.951444 -65.254804 
L 205.800642 -65.317765 
L 208.64984 -65.381291 
L 211.499037 -65.445083 
L 214.348235 -65.509096 
L 217.197433 -65.571839 
L 220.046631 -65.633976 
L 222.895829 -65.697947 
L 225.745027 -65.760347 
L 228.594225 -65.819208 
L 231.443422 -65.878503 
L 234.29262 -65.939324 
L 237.141818 -66.000898 
L 239.991016 -66.061379 
L 242.840214 -66.12259 
L 245.689412 -66.184189 
L 248.53861 -66.246146 
L 251.387807 -66.30813 
L 254.237005 -66.370605 
L 257.086203 -66.431885 
L 259.935401 -66.492255 
L 262.784599 -66.552968 
L 265.633797 -66.614078 
L 268.482995 -66.675729 
L 271.332193 -66.738115 
L 274.18139 -66.799804 
L 277.030588 -66.861616 
L 279.879786 -66.923251 
L 282.728984 -66.984522 
L 285.578182 -67.047484 
L 288.42738 -67.109619 
L 291.276578 -67.17113 
L 294.125775 -67.232973 
L 296.974973 -67.293345 
L 299.824171 -67.353446 
L 302.673369 -67.413586 
L 305.522567 -67.475701 
L 308.371765 -67.536407 
L 311.220963 -67.598905 
L 314.07016 -67.659816 
L 316.919358 -67.720898 
L 319.768556 -67.783526 
L 322.617754 -67.845094 
L 325.466952 -67.9069 
L 328.31615 -67.968758 
L 331.165348 -68.029294 
L 334.014545 -68.089923 
L 336.863743 -68.150737 
L 339.712941 -68.2126 
L 342.562139 -68.273073 
L 345.411337 -68.334906 
L 348.260535 -68.395284 
L 351.109733 -68.457028 
L 353.95893 -68.519421 
L 356.808128 -68.582077 
L 359.657326 -68.643023 
L 362.506524 -68.70456 
L 365.355722 -68.765332 
L 368.20492 -68.825775 
L 371.054118 -68.886544 
L 373.903316 -68.947601 
L 376.752513 -69.009306 
L 379.601711 -69.070954 
L 382.450909 -69.132118 
L 385.300107 -69.192764 
L 388.149305 -69.255228 
L 390.998503 -69.316088 
L 393.847701 -69.377935 
L 396.696898 -69.439116 
L 399.546096 -69.499517 
L 402.395294 -69.561182 
L 405.244492 -69.622619 
L 408.09369 -69.683951 
L 410.942888 -69.745776 
L 413.792086 -69.807074 
L 416.641283 -69.869016 
L 419.490481 -69.931027 
L 422.339679 -69.993666 
L 425.188877 -70.055875 
L 428.038075 -70.117128 
L 430.887273 -70.17847 
L 430.887273 -70.151758 
L 430.887273 -70.151758 
L 428.038075 -70.090585 
L 425.188877 -70.029114 
L 422.339679 -69.967403 
L 419.490481 -69.904882 
L 416.641283 -69.843888 
L 413.792086 -69.781838 
L 410.942888 -69.71989 
L 408.09369 -69.658388 
L 405.244492 -69.597201 
L 402.395294 -69.536012 
L 399.546096 -69.474636 
L 396.696898 -69.413678 
L 393.847701 -69.35154 
L 390.998503 -69.289683 
L 388.149305 -69.228127 
L 385.300107 -69.164934 
L 382.450909 -69.102702 
L 379.601711 -69.041277 
L 376.752513 -68.979641 
L 373.903316 -68.91828 
L 371.054118 -68.856699 
L 368.20492 -68.795316 
L 365.355722 -68.73476 
L 362.506524 -68.673655 
L 359.657326 -68.612437 
L 356.808128 -68.550333 
L 353.95893 -68.487881 
L 351.109733 -68.42484 
L 348.260535 -68.362049 
L 345.411337 -68.300196 
L 342.562139 -68.238805 
L 339.712941 -68.177101 
L 336.863743 -68.116859 
L 334.014545 -68.057243 
L 331.165348 -67.997557 
L 328.31615 -67.937349 
L 325.466952 -67.875162 
L 322.617754 -67.81351 
L 319.768556 -67.751677 
L 316.919358 -67.688599 
L 314.07016 -67.626797 
L 311.220963 -67.564338 
L 308.371765 -67.502298 
L 305.522567 -67.441196 
L 302.673369 -67.379882 
L 299.824171 -67.318786 
L 296.974973 -67.258413 
L 294.125775 -67.198531 
L 291.276578 -67.137318 
L 288.42738 -67.075565 
L 285.578182 -67.013349 
L 282.728984 -66.951252 
L 279.879786 -66.8906 
L 277.030588 -66.829655 
L 274.18139 -66.767398 
L 271.332193 -66.705853 
L 268.482995 -66.643928 
L 265.633797 -66.582864 
L 262.784599 -66.522167 
L 259.935401 -66.461741 
L 257.086203 -66.399954 
L 254.237005 -66.338624 
L 251.387807 -66.277451 
L 248.53861 -66.214499 
L 245.689412 -66.153708 
L 242.840214 -66.091923 
L 239.991016 -66.029932 
L 237.141818 -65.969856 
L 234.29262 -65.907734 
L 231.443422 -65.846535 
L 228.594225 -65.785977 
L 225.745027 -65.72573 
L 222.895829 -65.665091 
L 220.046631 -65.602565 
L 217.197433 -65.541359 
L 214.348235 -65.479877 
L 211.499037 -65.417709 
L 208.64984 -65.356142 
L 205.800642 -65.29542 
L 202.951444 -65.235047 
L 200.102246 -65.17447 
L 197.253048 -65.112433 
L 194.40385 -65.051489 
L 191.554652 -64.992384 
L 188.705455 -64.930957 
L 185.856257 -64.869308 
L 183.007059 -64.806319 
L 180.157861 -64.744877 
L 177.308663 -64.682826 
L 174.459465 -64.621044 
L 171.610267 -64.558365 
L 168.76107 -64.495946 
L 165.911872 -64.434356 
L 163.062674 -64.37312 
L 160.213476 -64.311598 
L 157.364278 -64.252704 
L 154.51508 -64.190914 
L 151.665882 -64.127818 
L 148.816684 -64.064055 
L 145.967487 -64.000266 
L 143.118289 -63.937395 
L 140.269091 -63.874435 
L 137.419893 -63.812783 
L 134.570695 -63.75068 
L 131.721497 -63.687998 
L 128.872299 -63.625676 
L 126.023102 -63.56412 
L 123.173904 -63.504101 
L 120.324706 -63.441301 
L 117.475508 -63.377762 
L 114.62631 -63.316237 
L 111.777112 -63.252387 
L 108.927914 -63.189991 
L 106.078717 -63.128002 
L 103.229519 -63.06599 
L 100.380321 -63.003403 
L 97.531123 -62.997143 
L 94.681925 -62.990729 
L 91.832727 -62.984323 
z
" style="stroke: #ffffff; stroke-opacity: 0.5"/>
    </defs>
    <g clip-path="url(#pcd83c5325e)">
     <use xlink:href="#m8081cbc383" x="0" y="345.6" style="fill: #55a868; fill-opacity: 0.5; stroke: #ffffff; stroke-opacity: 0.5"/>
    </g>
   </g>
   <g id="PolyCollection_4">
    <defs>
     <path id="m2204b9a982" d="M 91.832727 -62.984681 
L 91.832727 -62.984773 
L 94.681925 -62.991488 
L 97.531123 -62.998721 
L 100.380321 -63.005469 
L 103.229519 -63.112779 
L 106.078717 -63.219453 
L 108.927914 -63.328152 
L 111.777112 -63.434222 
L 114.62631 -63.541253 
L 117.475508 -63.65013 
L 120.324706 -63.759017 
L 123.173904 -63.865034 
L 126.023102 -63.966537 
L 128.872299 -64.071902 
L 131.721497 -64.176198 
L 134.570695 -64.280361 
L 137.419893 -64.385033 
L 140.269091 -64.489583 
L 143.118289 -64.595412 
L 145.967487 -64.701839 
L 148.816684 -64.807321 
L 151.665882 -64.910424 
L 154.51508 -65.015285 
L 157.364278 -65.119959 
L 160.213476 -65.224149 
L 163.062674 -65.328419 
L 165.911872 -65.434479 
L 168.76107 -65.537549 
L 171.610267 -65.643119 
L 174.459465 -65.74904 
L 177.308663 -65.856586 
L 180.157861 -65.961994 
L 183.007059 -66.067779 
L 185.856257 -66.174106 
L 188.705455 -66.278764 
L 191.554652 -66.384811 
L 194.40385 -66.488046 
L 197.253048 -66.59613 
L 200.102246 -66.699816 
L 202.951444 -66.806062 
L 205.800642 -66.910812 
L 208.64984 -67.015571 
L 211.499037 -67.121031 
L 214.348235 -67.225037 
L 217.197433 -67.329775 
L 220.046631 -67.434283 
L 222.895829 -67.539921 
L 225.745027 -67.64671 
L 228.594225 -67.751555 
L 231.443422 -67.856689 
L 234.29262 -67.960267 
L 237.141818 -68.066939 
L 239.991016 -68.172169 
L 242.840214 -68.277702 
L 245.689412 -68.382112 
L 248.53861 -68.487312 
L 251.387807 -68.592089 
L 254.237005 -68.697218 
L 257.086203 -68.802356 
L 259.935401 -68.908931 
L 262.784599 -69.012975 
L 265.633797 -69.119216 
L 268.482995 -69.223192 
L 271.332193 -69.32822 
L 274.18139 -69.434666 
L 277.030588 -69.540165 
L 279.879786 -69.643738 
L 282.728984 -69.747556 
L 285.578182 -69.854267 
L 288.42738 -69.960438 
L 291.276578 -70.065814 
L 294.125775 -70.171939 
L 296.974973 -70.275516 
L 299.824171 -70.379349 
L 302.673369 -70.483994 
L 305.522567 -70.589222 
L 308.371765 -70.696119 
L 311.220963 -70.801107 
L 314.07016 -70.90581 
L 316.919358 -71.011526 
L 319.768556 -71.117237 
L 322.617754 -71.223622 
L 325.466952 -71.327454 
L 328.31615 -71.432977 
L 331.165348 -71.53911 
L 334.014545 -71.645106 
L 336.863743 -71.751041 
L 339.712941 -71.857319 
L 342.562139 -71.962657 
L 345.411337 -72.06688 
L 348.260535 -72.171676 
L 351.109733 -72.275854 
L 353.95893 -72.37859 
L 356.808128 -72.484226 
L 359.657326 -72.587379 
L 362.506524 -72.691759 
L 365.355722 -72.7974 
L 368.20492 -72.903524 
L 371.054118 -73.010507 
L 373.903316 -73.114905 
L 376.752513 -73.220937 
L 379.601711 -73.325873 
L 382.450909 -73.430794 
L 385.300107 -73.534456 
L 388.149305 -73.639319 
L 390.998503 -73.74599 
L 393.847701 -73.851497 
L 396.696898 -73.957339 
L 399.546096 -74.062392 
L 402.395294 -74.168533 
L 405.244492 -74.273359 
L 408.09369 -74.37828 
L 410.942888 -74.484744 
L 413.792086 -74.590946 
L 416.641283 -74.694098 
L 419.490481 -74.800364 
L 422.339679 -74.905621 
L 425.188877 -75.013258 
L 428.038075 -75.11948 
L 430.887273 -75.223604 
L 430.887273 -75.147618 
L 430.887273 -75.147618 
L 428.038075 -75.042483 
L 425.188877 -74.938606 
L 422.339679 -74.832095 
L 419.490481 -74.72923 
L 416.641283 -74.623999 
L 413.792086 -74.52072 
L 410.942888 -74.41614 
L 408.09369 -74.309071 
L 405.244492 -74.203964 
L 402.395294 -74.098748 
L 399.546096 -73.993456 
L 396.696898 -73.887811 
L 393.847701 -73.782859 
L 390.998503 -73.678618 
L 388.149305 -73.573292 
L 385.300107 -73.468029 
L 382.450909 -73.361739 
L 379.601711 -73.256704 
L 376.752513 -73.153618 
L 373.903316 -73.046751 
L 371.054118 -72.94038 
L 368.20492 -72.835883 
L 365.355722 -72.732522 
L 362.506524 -72.626415 
L 359.657326 -72.52263 
L 356.808128 -72.416077 
L 353.95893 -72.309858 
L 351.109733 -72.204921 
L 348.260535 -72.099452 
L 345.411337 -71.994048 
L 342.562139 -71.888878 
L 339.712941 -71.782542 
L 336.863743 -71.676264 
L 334.014545 -71.570011 
L 331.165348 -71.465616 
L 328.31615 -71.360383 
L 325.466952 -71.254449 
L 322.617754 -71.150341 
L 319.768556 -71.043661 
L 316.919358 -70.93959 
L 314.07016 -70.834509 
L 311.220963 -70.730122 
L 308.371765 -70.623141 
L 305.522567 -70.517364 
L 302.673369 -70.411931 
L 299.824171 -70.306504 
L 296.974973 -70.201285 
L 294.125775 -70.096598 
L 291.276578 -69.991976 
L 288.42738 -69.88703 
L 285.578182 -69.780215 
L 282.728984 -69.675507 
L 279.879786 -69.5709 
L 277.030588 -69.466782 
L 274.18139 -69.363975 
L 271.332193 -69.257938 
L 268.482995 -69.153041 
L 265.633797 -69.047486 
L 262.784599 -68.943379 
L 259.935401 -68.840184 
L 257.086203 -68.734766 
L 254.237005 -68.63145 
L 251.387807 -68.525882 
L 248.53861 -68.422203 
L 245.689412 -68.317617 
L 242.840214 -68.213684 
L 239.991016 -68.109887 
L 237.141818 -68.005002 
L 234.29262 -67.901347 
L 231.443422 -67.797083 
L 228.594225 -67.69348 
L 225.745027 -67.589932 
L 222.895829 -67.486689 
L 220.046631 -67.380143 
L 217.197433 -67.277019 
L 214.348235 -67.174156 
L 211.499037 -67.070493 
L 208.64984 -66.965431 
L 205.800642 -66.861018 
L 202.951444 -66.757842 
L 200.102246 -66.653093 
L 197.253048 -66.549833 
L 194.40385 -66.44539 
L 191.554652 -66.343917 
L 188.705455 -66.238887 
L 185.856257 -66.134935 
L 183.007059 -66.030143 
L 180.157861 -65.925086 
L 177.308663 -65.821866 
L 174.459465 -65.717959 
L 171.610267 -65.614332 
L 168.76107 -65.512177 
L 165.911872 -65.409016 
L 163.062674 -65.303799 
L 160.213476 -65.200048 
L 157.364278 -65.096779 
L 154.51508 -64.992584 
L 151.665882 -64.890445 
L 148.816684 -64.78622 
L 145.967487 -64.682941 
L 143.118289 -64.579515 
L 140.269091 -64.47624 
L 137.419893 -64.373633 
L 134.570695 -64.270354 
L 131.721497 -64.165422 
L 128.872299 -64.062085 
L 126.023102 -63.956802 
L 123.173904 -63.853536 
L 120.324706 -63.748012 
L 117.475508 -63.641173 
L 114.62631 -63.535233 
L 111.777112 -63.429177 
L 108.927914 -63.323807 
L 106.078717 -63.219027 
L 103.229519 -63.111134 
L 100.380321 -63.005249 
L 97.531123 -62.99836 
L 94.681925 -62.99142 
L 91.832727 -62.984681 
z
" style="stroke: #ffffff; stroke-opacity: 0.5"/>
    </defs>
    <g clip-path="url(#pcd83c5325e)">
     <use xlink:href="#m2204b9a982" x="0" y="345.6" style="fill: #c44e52; fill-opacity: 0.5; stroke: #ffffff; stroke-opacity: 0.5"/>
    </g>
   </g>
   <g id="PolyCollection_5">
    <defs>
     <path id="m354ef76e23" d="M 91.832727 -62.985739 
L 91.832727 -62.985822 
L 94.681925 -62.993718 
L 97.531123 -63.001838 
L 100.380321 -63.009847 
L 103.229519 -63.217256 
L 106.078717 -63.429732 
L 108.927914 -63.640742 
L 111.777112 -63.854713 
L 114.62631 -64.06561 
L 117.475508 -64.279455 
L 120.324706 -64.495618 
L 123.173904 -64.710829 
L 126.023102 -64.914931 
L 128.872299 -65.123406 
L 131.721497 -65.3325 
L 134.570695 -65.544141 
L 137.419893 -65.757401 
L 140.269091 -65.970101 
L 143.118289 -66.177348 
L 145.967487 -66.381823 
L 148.816684 -66.58638 
L 151.665882 -66.792197 
L 154.51508 -66.998259 
L 157.364278 -67.201253 
L 160.213476 -67.399208 
L 163.062674 -67.601085 
L 165.911872 -67.802823 
L 168.76107 -68.005062 
L 171.610267 -68.208359 
L 174.459465 -68.411178 
L 177.308663 -68.614852 
L 180.157861 -68.819326 
L 183.007059 -69.023601 
L 185.856257 -69.227739 
L 188.705455 -69.432324 
L 191.554652 -69.641357 
L 194.40385 -69.840655 
L 197.253048 -70.041706 
L 200.102246 -70.244484 
L 202.951444 -70.450267 
L 205.800642 -70.654072 
L 208.64984 -70.858777 
L 211.499037 -71.062906 
L 214.348235 -71.267727 
L 217.197433 -71.474073 
L 220.046631 -71.681293 
L 222.895829 -71.890146 
L 225.745027 -72.097253 
L 228.594225 -72.295679 
L 231.443422 -72.498943 
L 234.29262 -72.702533 
L 237.141818 -72.906794 
L 239.991016 -73.110824 
L 242.840214 -73.316172 
L 245.689412 -73.520353 
L 248.53861 -73.725611 
L 251.387807 -73.932631 
L 254.237005 -74.140947 
L 257.086203 -74.347317 
L 259.935401 -74.555456 
L 262.784599 -74.754045 
L 265.633797 -74.955393 
L 268.482995 -75.157777 
L 271.332193 -75.361745 
L 274.18139 -75.567397 
L 277.030588 -75.772854 
L 279.879786 -75.979186 
L 282.728984 -76.187115 
L 285.578182 -76.393123 
L 288.42738 -76.600393 
L 291.276578 -76.806995 
L 294.125775 -77.014494 
L 296.974973 -77.213446 
L 299.824171 -77.415226 
L 302.673369 -77.618053 
L 305.522567 -77.82322 
L 308.371765 -78.029737 
L 311.220963 -78.236439 
L 314.07016 -78.443831 
L 316.919358 -78.651238 
L 319.768556 -78.854255 
L 322.617754 -79.061708 
L 325.466952 -79.269383 
L 328.31615 -79.477516 
L 331.165348 -79.677317 
L 334.014545 -79.879772 
L 336.863743 -80.082393 
L 339.712941 -80.288483 
L 342.562139 -80.49488 
L 345.411337 -80.700442 
L 348.260535 -80.9076 
L 351.109733 -81.114675 
L 353.95893 -81.320417 
L 356.808128 -81.525099 
L 359.657326 -81.732948 
L 362.506524 -81.940867 
L 365.355722 -82.140179 
L 368.20492 -82.342581 
L 371.054118 -82.546718 
L 373.903316 -82.751309 
L 376.752513 -82.958113 
L 379.601711 -83.165259 
L 382.450909 -83.37209 
L 385.300107 -83.578889 
L 388.149305 -83.785124 
L 390.998503 -83.991503 
L 393.847701 -84.197842 
L 396.696898 -84.40535 
L 399.546096 -84.606793 
L 402.395294 -84.810454 
L 405.244492 -85.01452 
L 408.09369 -85.220169 
L 410.942888 -85.424381 
L 413.792086 -85.6306 
L 416.641283 -85.836937 
L 419.490481 -86.043262 
L 422.339679 -86.248236 
L 425.188877 -86.457479 
L 428.038075 -86.66476 
L 430.887273 -86.872126 
L 430.887273 -86.788179 
L 430.887273 -86.788179 
L 428.038075 -86.580887 
L 425.188877 -86.373872 
L 422.339679 -86.167307 
L 419.490481 -85.960685 
L 416.641283 -85.752728 
L 413.792086 -85.547102 
L 410.942888 -85.340651 
L 408.09369 -85.13662 
L 405.244492 -84.932838 
L 402.395294 -84.728718 
L 399.546096 -84.52744 
L 396.696898 -84.328299 
L 393.847701 -84.120497 
L 390.998503 -83.916042 
L 388.149305 -83.709036 
L 385.300107 -83.503536 
L 382.450909 -83.297479 
L 379.601711 -83.092504 
L 376.752513 -82.887347 
L 373.903316 -82.682323 
L 371.054118 -82.480817 
L 368.20492 -82.278812 
L 365.355722 -82.075991 
L 362.506524 -81.875954 
L 359.657326 -81.668987 
L 356.808128 -81.462383 
L 353.95893 -81.256294 
L 351.109733 -81.04981 
L 348.260535 -80.843224 
L 345.411337 -80.636478 
L 342.562139 -80.431512 
L 339.712941 -80.225596 
L 336.863743 -80.022059 
L 334.014545 -79.818558 
L 331.165348 -79.617662 
L 328.31615 -79.418156 
L 325.466952 -79.208348 
L 322.617754 -78.99942 
L 319.768556 -78.791822 
L 316.919358 -78.586404 
L 314.07016 -78.379491 
L 311.220963 -78.173672 
L 308.371765 -77.967616 
L 305.522567 -77.764009 
L 302.673369 -77.559551 
L 299.824171 -77.356888 
L 296.974973 -77.155184 
L 294.125775 -76.957204 
L 291.276578 -76.750096 
L 288.42738 -76.543116 
L 285.578182 -76.336668 
L 282.728984 -76.132313 
L 279.879786 -75.928014 
L 277.030588 -75.723548 
L 274.18139 -75.516422 
L 271.332193 -75.310888 
L 268.482995 -75.106562 
L 265.633797 -74.902499 
L 262.784599 -74.698742 
L 259.935401 -74.500759 
L 257.086203 -74.293692 
L 254.237005 -74.087772 
L 251.387807 -73.882001 
L 248.53861 -73.675117 
L 245.689412 -73.468459 
L 242.840214 -73.260547 
L 239.991016 -73.054551 
L 237.141818 -72.852043 
L 234.29262 -72.64772 
L 231.443422 -72.442536 
L 228.594225 -72.238039 
L 225.745027 -72.036716 
L 222.895829 -71.831048 
L 220.046631 -71.626289 
L 217.197433 -71.421164 
L 214.348235 -71.215683 
L 211.499037 -71.009967 
L 208.64984 -70.807572 
L 205.800642 -70.601604 
L 202.951444 -70.396465 
L 200.102246 -70.193513 
L 197.253048 -69.988097 
L 194.40385 -69.78475 
L 191.554652 -69.583964 
L 188.705455 -69.375382 
L 185.856257 -69.168918 
L 183.007059 -68.960789 
L 180.157861 -68.755684 
L 177.308663 -68.548984 
L 174.459465 -68.342791 
L 171.610267 -68.134841 
L 168.76107 -67.932251 
L 165.911872 -67.727576 
L 163.062674 -67.525323 
L 160.213476 -67.323269 
L 157.364278 -67.125915 
L 154.51508 -66.918541 
L 151.665882 -66.712703 
L 148.816684 -66.505043 
L 145.967487 -66.299404 
L 143.118289 -66.092228 
L 140.269091 -65.886906 
L 137.419893 -65.680172 
L 134.570695 -65.477247 
L 131.721497 -65.272663 
L 128.872299 -65.07062 
L 126.023102 -64.870635 
L 123.173904 -64.671358 
L 120.324706 -64.464604 
L 117.475508 -64.259453 
L 114.62631 -64.055542 
L 111.777112 -63.850802 
L 108.927914 -63.637734 
L 106.078717 -63.42628 
L 103.229519 -63.215292 
L 100.380321 -63.009782 
L 97.531123 -63.001656 
L 94.681925 -62.993661 
L 91.832727 -62.985739 
z
" style="stroke: #ffffff; stroke-opacity: 0.5"/>
    </defs>
    <g clip-path="url(#pcd83c5325e)">
     <use xlink:href="#m354ef76e23" x="0" y="345.6" style="fill: #8172b3; fill-opacity: 0.5; stroke: #ffffff; stroke-opacity: 0.5"/>
    </g>
   </g>
   <g id="PolyCollection_6">
    <defs>
     <path id="m018a2fe145" d="M 91.832727 -62.993056 
L 91.832727 -62.993438 
L 94.681925 -63.008767 
L 97.531123 -63.024458 
L 100.380321 -63.039872 
L 103.229519 -65.109106 
L 106.078717 -67.120526 
L 108.927914 -69.130894 
L 111.777112 -71.192716 
L 114.62631 -73.227846 
L 117.475508 -75.311245 
L 120.324706 -77.413554 
L 123.173904 -79.529489 
L 126.023102 -81.48947 
L 128.872299 -83.4796 
L 131.721497 -85.479919 
L 134.570695 -87.507673 
L 137.419893 -89.544254 
L 140.269091 -91.623514 
L 143.118289 -93.698984 
L 145.967487 -95.803327 
L 148.816684 -97.914534 
L 151.665882 -100.044487 
L 154.51508 -102.181425 
L 157.364278 -104.348993 
L 160.213476 -106.318417 
L 163.062674 -108.313524 
L 165.911872 -110.319701 
L 168.76107 -112.349281 
L 171.610267 -114.390956 
L 174.459465 -116.495252 
L 177.308663 -118.582011 
L 180.157861 -120.690404 
L 183.007059 -122.782502 
L 185.856257 -124.910578 
L 188.705455 -127.039927 
L 191.554652 -129.20595 
L 194.40385 -131.184092 
L 197.253048 -133.176843 
L 200.102246 -135.178182 
L 202.951444 -137.210142 
L 205.800642 -139.252273 
L 208.64984 -141.305101 
L 211.499037 -143.388197 
L 214.348235 -145.494015 
L 217.197433 -147.606923 
L 220.046631 -149.742295 
L 222.895829 -151.872721 
L 225.745027 -154.032633 
L 228.594225 -156.002915 
L 231.443422 -158.008842 
L 234.29262 -160.022782 
L 237.141818 -162.063591 
L 239.991016 -164.107321 
L 242.840214 -166.178704 
L 245.689412 -168.252782 
L 248.53861 -170.359383 
L 251.387807 -172.463316 
L 254.237005 -174.592037 
L 257.086203 -176.72457 
L 259.935401 -178.905904 
L 262.784599 -180.872999 
L 265.633797 -182.867923 
L 268.482995 -184.878257 
L 271.332193 -186.931629 
L 274.18139 -188.994317 
L 277.030588 -191.065265 
L 279.879786 -193.145581 
L 282.728984 -195.242125 
L 285.578182 -197.359765 
L 288.42738 -199.490824 
L 291.276578 -201.631958 
L 294.125775 -203.792309 
L 296.974973 -205.760523 
L 299.824171 -207.75404 
L 302.673369 -209.783642 
L 305.522567 -211.838155 
L 308.371765 -213.894927 
L 311.220963 -215.969802 
L 314.07016 -218.064053 
L 316.919358 -220.171199 
L 319.768556 -222.27888 
L 322.617754 -224.418074 
L 325.466952 -226.591013 
L 328.31615 -228.780009 
L 331.165348 -230.769617 
L 334.014545 -232.775722 
L 336.863743 -234.791339 
L 339.712941 -236.827116 
L 342.562139 -238.875513 
L 345.411337 -240.944431 
L 348.260535 -243.023273 
L 351.109733 -245.141789 
L 353.95893 -247.288223 
L 356.808128 -249.433137 
L 359.657326 -251.594765 
L 362.506524 -253.78972 
L 365.355722 -255.784707 
L 368.20492 -257.799988 
L 371.054118 -259.826552 
L 373.903316 -261.884104 
L 376.752513 -263.954392 
L 379.601711 -266.05615 
L 382.450909 -268.164016 
L 385.300107 -270.293075 
L 388.149305 -272.42374 
L 390.998503 -274.563786 
L 393.847701 -276.711145 
L 396.696898 -278.888465 
L 399.546096 -280.864084 
L 402.395294 -282.867578 
L 405.244492 -284.880516 
L 408.09369 -286.918174 
L 410.942888 -288.965055 
L 413.792086 -291.039345 
L 416.641283 -293.123686 
L 419.490481 -295.238522 
L 422.339679 -297.343006 
L 425.188877 -299.473207 
L 428.038075 -301.611624 
L 430.887273 -303.799091 
L 430.887273 -303.349534 
L 430.887273 -303.349534 
L 428.038075 -301.16775 
L 425.188877 -299.020163 
L 422.339679 -296.882708 
L 419.490481 -294.769483 
L 416.641283 -292.667341 
L 413.792086 -290.584741 
L 410.942888 -288.510749 
L 408.09369 -286.445193 
L 405.244492 -284.39395 
L 402.395294 -282.368998 
L 399.546096 -280.367012 
L 396.696898 -278.387105 
L 393.847701 -276.19574 
L 390.998503 -274.035689 
L 388.149305 -271.89891 
L 385.300107 -269.792131 
L 382.450909 -267.683305 
L 379.601711 -265.607442 
L 376.752513 -263.537553 
L 373.903316 -261.501721 
L 371.054118 -259.462222 
L 368.20492 -257.455171 
L 365.355722 -255.452039 
L 362.506524 -253.471647 
L 359.657326 -251.297841 
L 356.808128 -249.160224 
L 353.95893 -247.034163 
L 351.109733 -244.912538 
L 348.260535 -242.811062 
L 345.411337 -240.736113 
L 342.562139 -238.665042 
L 339.712941 -236.618727 
L 336.863743 -234.586897 
L 334.014545 -232.57956 
L 331.165348 -230.580958 
L 328.31615 -228.618307 
L 325.466952 -226.451825 
L 322.617754 -224.316928 
L 319.768556 -222.19657 
L 316.919358 -220.090217 
L 314.07016 -217.991416 
L 311.220963 -215.91298 
L 308.371765 -213.846436 
L 305.522567 -211.798951 
L 302.673369 -209.756802 
L 299.824171 -207.747551 
L 296.974973 -205.739606 
L 294.125775 -203.766724 
L 291.276578 -201.584297 
L 288.42738 -199.44584 
L 285.578182 -197.31954 
L 282.728984 -195.213269 
L 279.879786 -193.115031 
L 277.030588 -191.042277 
L 274.18139 -188.959088 
L 271.332193 -186.913785 
L 268.482995 -184.876332 
L 265.633797 -182.864886 
L 262.784599 -180.863875 
L 259.935401 -178.887422 
L 257.086203 -176.721929 
L 254.237005 -174.538033 
L 251.387807 -172.408058 
L 248.53861 -170.322526 
L 245.689412 -168.238396 
L 242.840214 -166.168042 
L 239.991016 -164.084423 
L 237.141818 -162.018785 
L 234.29262 -159.955993 
L 231.443422 -157.946316 
L 228.594225 -155.945344 
L 225.745027 -153.977495 
L 222.895829 -151.803108 
L 220.046631 -149.670702 
L 217.197433 -147.540968 
L 214.348235 -145.424606 
L 211.499037 -143.320851 
L 208.64984 -141.248665 
L 205.800642 -139.189091 
L 202.951444 -137.154761 
L 200.102246 -135.129315 
L 197.253048 -133.126178 
L 194.40385 -131.13551 
L 191.554652 -129.152386 
L 188.705455 -126.979185 
L 185.856257 -124.845518 
L 183.007059 -122.735484 
L 180.157861 -120.631157 
L 177.308663 -118.531112 
L 174.459465 -116.461375 
L 171.610267 -114.386065 
L 168.76107 -112.339472 
L 165.911872 -110.316907 
L 163.062674 -108.309761 
L 160.213476 -106.315365 
L 157.364278 -104.331597 
L 154.51508 -102.144151 
L 151.665882 -99.982559 
L 148.816684 -97.857088 
L 145.967487 -95.767491 
L 143.118289 -93.673663 
L 140.269091 -91.596538 
L 137.419893 -89.541103 
L 134.570695 -87.502604 
L 131.721497 -85.465015 
L 128.872299 -83.459422 
L 126.023102 -81.467351 
L 123.173904 -79.498621 
L 120.324706 -77.36737 
L 117.475508 -75.268713 
L 114.62631 -73.166421 
L 111.777112 -71.113658 
L 108.927914 -69.072475 
L 106.078717 -67.052831 
L 103.229519 -65.049059 
L 100.380321 -63.03971 
L 97.531123 -63.024226 
L 94.681925 -63.008455 
L 91.832727 -62.993056 
z
" style="stroke: #ffffff; stroke-opacity: 0.5"/>
    </defs>
    <g clip-path="url(#pcd83c5325e)">
     <use xlink:href="#m018a2fe145" x="0" y="345.6" style="fill: #937860; fill-opacity: 0.5; stroke: #ffffff; stroke-opacity: 0.5"/>
    </g>
   </g>
   <g id="line2d_15">
    <path d="M 91.832727 282.619002 
L 94.681925 282.616727 
L 97.531123 282.614475 
L 100.380321 282.612213 
L 103.229519 282.592644 
L 106.078717 282.57331 
L 108.927914 282.553956 
L 111.777112 282.534455 
L 114.62631 282.515187 
L 117.475508 282.495819 
L 120.324706 282.476571 
L 123.173904 282.457205 
L 126.023102 282.437994 
L 128.872299 282.418758 
L 131.721497 282.399165 
L 134.570695 282.379903 
L 137.419893 282.360503 
L 140.269091 282.341007 
L 143.118289 282.3214 
L 145.967487 282.302205 
L 148.816684 282.282867 
L 151.665882 282.26358 
L 154.51508 282.244496 
L 157.364278 282.22522 
L 160.213476 282.20575 
L 163.062674 282.186233 
L 165.911872 282.166876 
L 168.76107 282.147483 
L 171.610267 282.1281 
L 174.459465 282.108895 
L 177.308663 282.089747 
L 180.157861 282.07024 
L 183.007059 282.051025 
L 185.856257 282.03187 
L 188.705455 282.012591 
L 191.554652 281.993297 
L 194.40385 281.974052 
L 197.253048 281.954888 
L 200.102246 281.935492 
L 202.951444 281.916299 
L 205.800642 281.897058 
L 208.64984 281.877853 
L 211.499037 281.858542 
L 214.348235 281.839182 
L 217.197433 281.82001 
L 220.046631 281.800861 
L 222.895829 281.781663 
L 225.745027 281.762387 
L 228.594225 281.742988 
L 231.443422 281.72385 
L 234.29262 281.704377 
L 237.141818 281.68471 
L 239.991016 281.665243 
L 242.840214 281.645633 
L 245.689412 281.626273 
L 248.53861 281.607077 
L 251.387807 281.587577 
L 254.237005 281.5683 
L 257.086203 281.548884 
L 259.935401 281.529527 
L 262.784599 281.510338 
L 265.633797 281.490962 
L 268.482995 281.471777 
L 271.332193 281.45273 
L 274.18139 281.433628 
L 277.030588 281.414525 
L 279.879786 281.395466 
L 282.728984 281.376414 
L 285.578182 281.357257 
L 288.42738 281.338012 
L 291.276578 281.318728 
L 294.125775 281.299502 
L 296.974973 281.280437 
L 299.824171 281.261219 
L 302.673369 281.242044 
L 305.522567 281.222882 
L 308.371765 281.203771 
L 311.220963 281.184782 
L 314.07016 281.165745 
L 316.919358 281.146694 
L 319.768556 281.127687 
L 322.617754 281.108406 
L 325.466952 281.089273 
L 328.31615 281.069948 
L 331.165348 281.050917 
L 334.014545 281.031789 
L 336.863743 281.012599 
L 339.712941 280.993608 
L 342.562139 280.974305 
L 345.411337 280.955246 
L 348.260535 280.936384 
L 351.109733 280.917115 
L 353.95893 280.898158 
L 356.808128 280.879141 
L 359.657326 280.860131 
L 362.506524 280.84086 
L 365.355722 280.821682 
L 368.20492 280.802531 
L 371.054118 280.7834 
L 373.903316 280.764384 
L 376.752513 280.745449 
L 379.601711 280.726535 
L 382.450909 280.707518 
L 385.300107 280.688574 
L 388.149305 280.669279 
L 390.998503 280.65014 
L 393.847701 280.631209 
L 396.696898 280.612316 
L 399.546096 280.593434 
L 402.395294 280.574368 
L 405.244492 280.555307 
L 408.09369 280.536146 
L 410.942888 280.517011 
L 413.792086 280.497914 
L 416.641283 280.478574 
L 419.490481 280.459317 
L 422.339679 280.440128 
L 425.188877 280.420963 
L 428.038075 280.4016 
L 430.887273 280.38235 
" clip-path="url(#pcd83c5325e)" style="fill: none; stroke: #4c72b0; stroke-width: 3; stroke-linecap: round"/>
   </g>
   <g id="line2d_16">
    <path d="M 91.832727 282.616129 
L 94.681925 282.610267 
L 97.531123 282.604143 
L 100.380321 282.598193 
L 103.229519 282.564663 
L 106.078717 282.531041 
L 108.927914 282.497729 
L 111.777112 282.464272 
L 114.62631 282.430714 
L 117.475508 282.39728 
L 120.324706 282.363504 
L 123.173904 282.330303 
L 126.023102 282.298016 
L 128.872299 282.264384 
L 131.721497 282.230441 
L 134.570695 282.196317 
L 137.419893 282.162817 
L 140.269091 282.129285 
L 143.118289 282.095655 
L 145.967487 282.061701 
L 148.816684 282.027314 
L 151.665882 281.99321 
L 154.51508 281.959629 
L 157.364278 281.926075 
L 160.213476 281.893191 
L 163.062674 281.859472 
L 165.911872 281.825778 
L 168.76107 281.791814 
L 171.610267 281.758293 
L 174.459465 281.723848 
L 177.308663 281.690285 
L 180.157861 281.656184 
L 183.007059 281.622226 
L 185.856257 281.587923 
L 188.705455 281.553633 
L 191.554652 281.519872 
L 194.40385 281.4874 
L 197.253048 281.453519 
L 200.102246 281.419384 
L 202.951444 281.384644 
L 205.800642 281.351539 
L 208.64984 281.318035 
L 211.499037 281.284168 
L 214.348235 281.250209 
L 217.197433 281.216404 
L 220.046631 281.182673 
L 222.895829 281.149314 
L 225.745027 281.115402 
L 228.594225 281.081348 
L 231.443422 281.047493 
L 234.29262 281.014096 
L 237.141818 280.980793 
L 239.991016 280.94777 
L 242.840214 280.914154 
L 245.689412 280.880541 
L 248.53861 280.847207 
L 251.387807 280.813551 
L 254.237005 280.780158 
L 257.086203 280.745319 
L 259.935401 280.711778 
L 262.784599 280.677945 
L 265.633797 280.644527 
L 268.482995 280.610986 
L 271.332193 280.577521 
L 274.18139 280.544439 
L 277.030588 280.511163 
L 279.879786 280.47758 
L 282.728984 280.444246 
L 285.578182 280.410837 
L 288.42738 280.377531 
L 291.276578 280.343422 
L 294.125775 280.310051 
L 296.974973 280.27659 
L 299.824171 280.243291 
L 302.673369 280.209927 
L 305.522567 280.176382 
L 308.371765 280.143575 
L 311.220963 280.110346 
L 314.07016 280.077424 
L 316.919358 280.043923 
L 319.768556 280.010554 
L 322.617754 279.977632 
L 325.466952 279.943567 
L 328.31615 279.910226 
L 331.165348 279.877279 
L 334.014545 279.844532 
L 336.863743 279.811313 
L 339.712941 279.777703 
L 342.562139 279.744742 
L 345.411337 279.71131 
L 348.260535 279.678123 
L 351.109733 279.644939 
L 353.95893 279.611932 
L 356.808128 279.578945 
L 359.657326 279.545285 
L 362.506524 279.512042 
L 365.355722 279.478506 
L 368.20492 279.44532 
L 371.054118 279.412392 
L 373.903316 279.379559 
L 376.752513 279.346311 
L 379.601711 279.313135 
L 382.450909 279.279347 
L 385.300107 279.246055 
L 388.149305 279.213005 
L 390.998503 279.180327 
L 393.847701 279.146521 
L 396.696898 279.113003 
L 399.546096 279.079702 
L 402.395294 279.046509 
L 405.244492 279.013506 
L 408.09369 278.980089 
L 410.942888 278.946954 
L 413.792086 278.913643 
L 416.641283 278.880438 
L 419.490481 278.847199 
L 422.339679 278.814028 
L 425.188877 278.780496 
L 428.038075 278.746294 
L 430.887273 278.712594 
" clip-path="url(#pcd83c5325e)" style="fill: none; stroke: #dd8452; stroke-width: 3; stroke-linecap: round"/>
   </g>
   <g id="line2d_17">
    <path d="M 91.832727 282.615635 
L 94.681925 282.609228 
L 97.531123 282.60268 
L 100.380321 282.596342 
L 103.229519 282.533394 
L 106.078717 282.47078 
L 108.927914 282.408173 
L 111.777112 282.345579 
L 114.62631 282.282058 
L 117.475508 282.219354 
L 120.324706 282.155815 
L 123.173904 282.092387 
L 126.023102 282.032105 
L 128.872299 281.970467 
L 131.721497 281.907961 
L 134.570695 281.845049 
L 137.419893 281.782846 
L 140.269091 281.720954 
L 143.118289 281.658857 
L 145.967487 281.596175 
L 148.816684 281.533599 
L 151.665882 281.470469 
L 154.51508 281.408617 
L 157.364278 281.346943 
L 160.213476 281.287716 
L 163.062674 281.226187 
L 165.911872 281.164833 
L 168.76107 281.103191 
L 171.610267 281.040427 
L 174.459465 280.977528 
L 177.308663 280.914783 
L 180.157861 280.852302 
L 183.007059 280.78995 
L 185.856257 280.72608 
L 188.705455 280.663748 
L 191.554652 280.601195 
L 194.40385 280.541392 
L 197.253048 280.479781 
L 200.102246 280.41713 
L 202.951444 280.355075 
L 205.800642 280.293408 
L 208.64984 280.231284 
L 211.499037 280.168604 
L 214.348235 280.105513 
L 217.197433 280.043401 
L 220.046631 279.98173 
L 222.895829 279.918481 
L 225.745027 279.856961 
L 228.594225 279.797407 
L 231.443422 279.737481 
L 234.29262 279.676471 
L 237.141818 279.614623 
L 239.991016 279.554344 
L 242.840214 279.492744 
L 245.689412 279.431051 
L 248.53861 279.369677 
L 251.387807 279.307209 
L 254.237005 279.245386 
L 257.086203 279.184081 
L 259.935401 279.123002 
L 262.784599 279.062433 
L 265.633797 279.001529 
L 268.482995 278.940172 
L 271.332193 278.878016 
L 274.18139 278.816399 
L 277.030588 278.754364 
L 279.879786 278.693074 
L 282.728984 278.632113 
L 285.578182 278.569584 
L 288.42738 278.507408 
L 291.276578 278.445776 
L 294.125775 278.384248 
L 296.974973 278.324121 
L 299.824171 278.263884 
L 302.673369 278.203266 
L 305.522567 278.141551 
L 308.371765 278.080648 
L 311.220963 278.018379 
L 314.07016 277.956693 
L 316.919358 277.895252 
L 319.768556 277.832399 
L 322.617754 277.770698 
L 325.466952 277.708969 
L 328.31615 277.646946 
L 331.165348 277.586575 
L 334.014545 277.526417 
L 336.863743 277.466202 
L 339.712941 277.40515 
L 342.562139 277.344061 
L 345.411337 277.282449 
L 348.260535 277.221333 
L 351.109733 277.159066 
L 353.95893 277.096349 
L 356.808128 277.033795 
L 359.657326 276.97227 
L 362.506524 276.910892 
L 365.355722 276.849954 
L 368.20492 276.789455 
L 371.054118 276.728379 
L 373.903316 276.66706 
L 376.752513 276.605526 
L 379.601711 276.543884 
L 382.450909 276.48259 
L 385.300107 276.421151 
L 388.149305 276.358322 
L 390.998503 276.297114 
L 393.847701 276.235263 
L 396.696898 276.173603 
L 399.546096 276.112923 
L 402.395294 276.051403 
L 405.244492 275.99009 
L 408.09369 275.928831 
L 410.942888 275.867167 
L 413.792086 275.805544 
L 416.641283 275.743548 
L 419.490481 275.682046 
L 422.339679 275.619465 
L 425.188877 275.557506 
L 428.038075 275.496144 
L 430.887273 275.434886 
" clip-path="url(#pcd83c5325e)" style="fill: none; stroke: #55a868; stroke-width: 3; stroke-linecap: round"/>
   </g>
   <g id="line2d_18">
    <path d="M 91.832727 282.615273 
L 94.681925 282.608546 
L 97.531123 282.601459 
L 100.380321 282.594641 
L 103.229519 282.488043 
L 106.078717 282.38076 
L 108.927914 282.274021 
L 111.777112 282.1683 
L 114.62631 282.061757 
L 117.475508 281.954349 
L 120.324706 281.846486 
L 123.173904 281.740715 
L 126.023102 281.63833 
L 128.872299 281.533007 
L 131.721497 281.42919 
L 134.570695 281.324642 
L 137.419893 281.220667 
L 140.269091 281.117089 
L 143.118289 281.012537 
L 145.967487 280.90761 
L 148.816684 280.80323 
L 151.665882 280.699566 
L 154.51508 280.596065 
L 157.364278 280.491631 
L 160.213476 280.387901 
L 163.062674 280.283891 
L 165.911872 280.178252 
L 168.76107 280.075137 
L 171.610267 279.971274 
L 174.459465 279.8665 
L 177.308663 279.760774 
L 180.157861 279.65646 
L 183.007059 279.551039 
L 185.856257 279.44548 
L 188.705455 279.341174 
L 191.554652 279.235636 
L 194.40385 279.133282 
L 197.253048 279.027019 
L 200.102246 278.923545 
L 202.951444 278.818048 
L 205.800642 278.714085 
L 208.64984 278.609499 
L 211.499037 278.504238 
L 214.348235 278.400404 
L 217.197433 278.296603 
L 220.046631 278.192787 
L 222.895829 278.086695 
L 225.745027 277.981679 
L 228.594225 277.877483 
L 231.443422 277.773114 
L 234.29262 277.669193 
L 237.141818 277.564029 
L 239.991016 277.458972 
L 242.840214 277.354307 
L 245.689412 277.250136 
L 248.53861 277.145243 
L 251.387807 277.041014 
L 254.237005 276.935666 
L 257.086203 276.831439 
L 259.935401 276.725443 
L 262.784599 276.621823 
L 265.633797 276.516649 
L 268.482995 276.411883 
L 271.332193 276.306921 
L 274.18139 276.20068 
L 277.030588 276.096527 
L 279.879786 275.992681 
L 282.728984 275.888469 
L 285.578182 275.782759 
L 288.42738 275.676266 
L 291.276578 275.571105 
L 294.125775 275.465732 
L 296.974973 275.3616 
L 299.824171 275.257073 
L 302.673369 275.152037 
L 305.522567 275.046707 
L 308.371765 274.94037 
L 311.220963 274.834386 
L 314.07016 274.72984 
L 316.919358 274.624442 
L 319.768556 274.519551 
L 322.617754 274.413019 
L 325.466952 274.309049 
L 328.31615 274.20332 
L 331.165348 274.097637 
L 334.014545 273.992442 
L 336.863743 273.886348 
L 339.712941 273.780069 
L 342.562139 273.674232 
L 345.411337 273.569536 
L 348.260535 273.464436 
L 351.109733 273.359612 
L 353.95893 273.255776 
L 356.808128 273.149848 
L 359.657326 273.044996 
L 362.506524 272.940913 
L 365.355722 272.835039 
L 368.20492 272.730297 
L 371.054118 272.624556 
L 373.903316 272.519172 
L 376.752513 272.412722 
L 379.601711 272.308711 
L 382.450909 272.203733 
L 385.300107 272.098758 
L 388.149305 271.993694 
L 390.998503 271.887696 
L 393.847701 271.782822 
L 396.696898 271.677425 
L 399.546096 271.572076 
L 402.395294 271.46636 
L 405.244492 271.361339 
L 408.09369 271.256324 
L 410.942888 271.149558 
L 413.792086 271.044167 
L 416.641283 270.940952 
L 419.490481 270.835203 
L 422.339679 270.731142 
L 425.188877 270.624068 
L 428.038075 270.519018 
L 430.887273 270.414389 
" clip-path="url(#pcd83c5325e)" style="fill: none; stroke: #c44e52; stroke-width: 3; stroke-linecap: round"/>
   </g>
   <g id="line2d_19">
    <path d="M 91.832727 282.61422 
L 94.681925 282.60631 
L 97.531123 282.598253 
L 100.380321 282.590185 
L 103.229519 282.383726 
L 106.078717 282.171994 
L 108.927914 281.960762 
L 111.777112 281.747242 
L 114.62631 281.539424 
L 117.475508 281.330546 
L 120.324706 281.119889 
L 123.173904 280.908906 
L 126.023102 280.707217 
L 128.872299 280.502987 
L 131.721497 280.297418 
L 134.570695 280.089306 
L 137.419893 279.881214 
L 140.269091 279.671496 
L 143.118289 279.465212 
L 145.967487 279.259386 
L 148.816684 279.054289 
L 151.665882 278.84755 
L 154.51508 278.6416 
L 157.364278 278.436416 
L 160.213476 278.238762 
L 163.062674 278.036796 
L 165.911872 277.834801 
L 168.76107 277.631344 
L 171.610267 277.4284 
L 174.459465 277.223016 
L 177.308663 277.018082 
L 180.157861 276.812495 
L 183.007059 276.607805 
L 185.856257 276.401671 
L 188.705455 276.196147 
L 191.554652 275.987339 
L 194.40385 275.787297 
L 197.253048 275.585099 
L 200.102246 275.381001 
L 202.951444 275.176634 
L 205.800642 274.972162 
L 208.64984 274.766825 
L 211.499037 274.563563 
L 214.348235 274.358295 
L 217.197433 274.152381 
L 220.046631 273.946209 
L 222.895829 273.739403 
L 225.745027 273.533015 
L 228.594225 273.333141 
L 231.443422 273.12926 
L 234.29262 272.924874 
L 237.141818 272.720581 
L 239.991016 272.517313 
L 242.840214 272.31164 
L 245.689412 272.105594 
L 248.53861 271.899636 
L 251.387807 271.692684 
L 254.237005 271.485641 
L 257.086203 271.279495 
L 259.935401 271.071893 
L 262.784599 270.873606 
L 265.633797 270.671054 
L 268.482995 270.467831 
L 271.332193 270.263683 
L 274.18139 270.05809 
L 277.030588 269.851799 
L 279.879786 269.6464 
L 282.728984 269.440286 
L 285.578182 269.235104 
L 288.42738 269.028246 
L 291.276578 268.821455 
L 294.125775 268.614151 
L 296.974973 268.415685 
L 299.824171 268.213943 
L 302.673369 268.011198 
L 305.522567 267.806385 
L 308.371765 267.601324 
L 311.220963 267.394945 
L 314.07016 267.188339 
L 316.919358 266.981179 
L 319.768556 266.776961 
L 322.617754 266.569436 
L 325.466952 266.361135 
L 328.31615 266.152164 
L 331.165348 265.952511 
L 334.014545 265.750835 
L 336.863743 265.547774 
L 339.712941 265.34296 
L 342.562139 265.136804 
L 345.411337 264.93154 
L 348.260535 264.724588 
L 351.109733 264.517758 
L 353.95893 264.311644 
L 356.808128 264.106259 
L 359.657326 263.899032 
L 362.506524 263.691589 
L 365.355722 263.491915 
L 368.20492 263.289303 
L 371.054118 263.086233 
L 373.903316 262.883184 
L 376.752513 262.67727 
L 379.601711 262.471119 
L 382.450909 262.265216 
L 385.300107 262.058788 
L 388.149305 261.85292 
L 390.998503 261.646227 
L 393.847701 261.44083 
L 396.696898 261.233175 
L 399.546096 261.032884 
L 402.395294 260.830414 
L 405.244492 260.626321 
L 408.09369 260.421605 
L 410.942888 260.217484 
L 413.792086 260.011149 
L 416.641283 259.805168 
L 419.490481 259.598026 
L 422.339679 259.392229 
L 425.188877 259.184325 
L 428.038075 258.977177 
L 430.887273 258.769848 
" clip-path="url(#pcd83c5325e)" style="fill: none; stroke: #8172b3; stroke-width: 3; stroke-linecap: round"/>
   </g>
   <g id="line2d_20">
    <path d="M 91.832727 282.606753 
L 94.681925 282.591389 
L 97.531123 282.575658 
L 100.380321 282.560209 
L 103.229519 280.520918 
L 106.078717 278.513321 
L 108.927914 276.498315 
L 111.777112 274.446813 
L 114.62631 272.402866 
L 117.475508 270.310021 
L 120.324706 268.209538 
L 123.173904 266.085945 
L 126.023102 264.12159 
L 128.872299 262.130489 
L 131.721497 260.127533 
L 134.570695 258.094861 
L 137.419893 256.057321 
L 140.269091 253.989974 
L 143.118289 251.913677 
L 145.967487 249.814591 
L 148.816684 247.714189 
L 151.665882 245.586477 
L 154.51508 243.437212 
L 157.364278 241.259705 
L 160.213476 239.283109 
L 163.062674 237.288358 
L 165.911872 235.281696 
L 168.76107 233.255623 
L 171.610267 231.21149 
L 174.459465 229.121687 
L 177.308663 227.043439 
L 180.157861 224.93922 
L 183.007059 222.841007 
L 185.856257 220.721952 
L 188.705455 218.590444 
L 191.554652 216.420832 
L 194.40385 214.440199 
L 197.253048 212.448489 
L 200.102246 210.446251 
L 202.951444 208.417548 
L 205.800642 206.379318 
L 208.64984 204.323117 
L 211.499037 202.245476 
L 214.348235 200.140689 
L 217.197433 198.026054 
L 220.046631 195.893501 
L 222.895829 193.762085 
L 225.745027 191.594936 
L 228.594225 189.62587 
L 231.443422 187.622421 
L 234.29262 185.610612 
L 237.141818 183.558812 
L 239.991016 181.504128 
L 242.840214 179.426627 
L 245.689412 177.354411 
L 248.53861 175.259045 
L 251.387807 173.164313 
L 254.237005 171.034965 
L 257.086203 168.87675 
L 259.935401 166.703337 
L 262.784599 164.731563 
L 265.633797 162.733595 
L 268.482995 160.722705 
L 271.332193 158.677293 
L 274.18139 156.623297 
L 277.030588 154.546229 
L 279.879786 152.469694 
L 282.728984 150.372303 
L 285.578182 148.260347 
L 288.42738 146.131668 
L 291.276578 143.991872 
L 294.125775 141.820483 
L 296.974973 139.849936 
L 299.824171 137.849204 
L 302.673369 135.829778 
L 305.522567 133.781447 
L 308.371765 131.729318 
L 311.220963 129.658609 
L 314.07016 127.572266 
L 316.919358 125.469292 
L 319.768556 123.362275 
L 322.617754 121.232499 
L 325.466952 119.078581 
L 328.31615 116.900842 
L 331.165348 114.924713 
L 334.014545 112.922359 
L 336.863743 110.910882 
L 339.712941 108.877078 
L 342.562139 106.829723 
L 345.411337 104.759728 
L 348.260535 102.682832 
L 351.109733 100.572836 
L 353.95893 98.438807 
L 356.808128 96.30332 
L 359.657326 94.153697 
L 362.506524 91.969316 
L 365.355722 89.981627 
L 368.20492 87.97242 
L 371.054118 85.955613 
L 373.903316 83.907088 
L 376.752513 81.854028 
L 379.601711 79.768204 
L 382.450909 77.67634 
L 385.300107 75.557397 
L 388.149305 73.438675 
L 390.998503 71.300262 
L 393.847701 69.146557 
L 396.696898 66.962215 
L 399.546096 64.984452 
L 402.395294 62.981712 
L 405.244492 60.962767 
L 408.09369 58.918317 
L 410.942888 56.862098 
L 413.792086 54.787957 
L 416.641283 52.704486 
L 419.490481 50.595997 
L 422.339679 48.487143 
L 425.188877 46.353315 
L 428.038075 44.210313 
L 430.887273 42.025687 
" clip-path="url(#pcd83c5325e)" style="fill: none; stroke: #937860; stroke-width: 3; stroke-linecap: round"/>
   </g>
   <g id="patch_3">
    <path d="M 74.88 294.66 
L 74.88 29.76 
" style="fill: none; stroke: #ffffff; stroke-width: 1.25; stroke-linejoin: miter; stroke-linecap: square"/>
   </g>
   <g id="patch_4">
    <path d="M 447.84 294.66 
L 447.84 29.76 
" style="fill: none; stroke: #ffffff; stroke-width: 1.25; stroke-linejoin: miter; stroke-linecap: square"/>
   </g>
   <g id="patch_5">
    <path d="M 74.88 294.66 
L 447.84 294.66 
" style="fill: none; stroke: #ffffff; stroke-width: 1.25; stroke-linejoin: miter; stroke-linecap: square"/>
   </g>
   <g id="patch_6">
    <path d="M 74.88 29.76 
L 447.84 29.76 
" style="fill: none; stroke: #ffffff; stroke-width: 1.25; stroke-linejoin: miter; stroke-linecap: square"/>
   </g>
   <g id="text_17">
    <!-- zinc-coating-v0 -->
    <g style="fill: #262626" transform="translate(208.001406 23.76)scale(0.14 -0.14)">
     <defs>
      <path id="DejaVuSans-7a" d="M 353 3500 
L 3084 3500 
L 3084 2975 
L 922 459 
L 3084 459 
L 3084 0 
L 275 0 
L 275 525 
L 2438 3041 
L 353 3041 
L 353 3500 
z
" transform="scale(0.015625)"/>
      <path id="DejaVuSans-63" d="M 3122 3366 
L 3122 2828 
Q 2878 2963 2633 3030 
Q 2388 3097 2138 3097 
Q 1578 3097 1268 2742 
Q 959 2388 959 1747 
Q 959 1106 1268 751 
Q 1578 397 2138 397 
Q 2388 397 2633 464 
Q 2878 531 3122 666 
L 3122 134 
Q 2881 22 2623 -34 
Q 2366 -91 2075 -91 
Q 1284 -91 818 406 
Q 353 903 353 1747 
Q 353 2603 823 3093 
Q 1294 3584 2113 3584 
Q 2378 3584 2631 3529 
Q 2884 3475 3122 3366 
z
" transform="scale(0.015625)"/>
      <path id="DejaVuSans-2d" d="M 313 2009 
L 1997 2009 
L 1997 1497 
L 313 1497 
L 313 2009 
z
" transform="scale(0.015625)"/>
      <path id="DejaVuSans-67" d="M 2906 1791 
Q 2906 2416 2648 2759 
Q 2391 3103 1925 3103 
Q 1463 3103 1205 2759 
Q 947 2416 947 1791 
Q 947 1169 1205 825 
Q 1463 481 1925 481 
Q 2391 481 2648 825 
Q 2906 1169 2906 1791 
z
M 3481 434 
Q 3481 -459 3084 -895 
Q 2688 -1331 1869 -1331 
Q 1566 -1331 1297 -1286 
Q 1028 -1241 775 -1147 
L 775 -588 
Q 1028 -725 1275 -790 
Q 1522 -856 1778 -856 
Q 2344 -856 2625 -561 
Q 2906 -266 2906 331 
L 2906 616 
Q 2728 306 2450 153 
Q 2172 0 1784 0 
Q 1141 0 747 490 
Q 353 981 353 1791 
Q 353 2603 747 3093 
Q 1141 3584 1784 3584 
Q 2172 3584 2450 3431 
Q 2728 3278 2906 2969 
L 2906 3500 
L 3481 3500 
L 3481 434 
z
" transform="scale(0.015625)"/>
      <path id="DejaVuSans-76" d="M 191 3500 
L 800 3500 
L 1894 563 
L 2988 3500 
L 3597 3500 
L 2284 0 
L 1503 0 
L 191 3500 
z
" transform="scale(0.015625)"/>
     </defs>
     <use xlink:href="#DejaVuSans-7a"/>
     <use xlink:href="#DejaVuSans-69" x="52.490234"/>
     <use xlink:href="#DejaVuSans-6e" x="80.273438"/>
     <use xlink:href="#DejaVuSans-63" x="143.652344"/>
     <use xlink:href="#DejaVuSans-2d" x="198.632812"/>
     <use xlink:href="#DejaVuSans-63" x="234.716797"/>
     <use xlink:href="#DejaVuSans-6f" x="289.697266"/>
     <use xlink:href="#DejaVuSans-61" x="350.878906"/>
     <use xlink:href="#DejaVuSans-74" x="412.158203"/>
     <use xlink:href="#DejaVuSans-69" x="451.367188"/>
     <use xlink:href="#DejaVuSans-6e" x="479.150391"/>
     <use xlink:href="#DejaVuSans-67" x="542.529297"/>
     <use xlink:href="#DejaVuSans-2d" x="606.005859"/>
     <use xlink:href="#DejaVuSans-76" x="639.464844"/>
     <use xlink:href="#DejaVuSans-30" x="698.644531"/>
    </g>
   </g>
   <g id="legend_1">
    <g id="patch_7">
     <path d="M 82.58 135.435625 
L 237.406719 135.435625 
Q 239.606719 135.435625 239.606719 133.235625 
L 239.606719 37.46 
Q 239.606719 35.26 237.406719 35.26 
L 82.58 35.26 
Q 80.38 35.26 80.38 37.46 
L 80.38 133.235625 
Q 80.38 135.435625 82.58 135.435625 
z
" style="fill: #eaeaf2; opacity: 0.8; stroke: #cccccc; stroke-linejoin: miter"/>
    </g>
    <g id="line2d_21">
     <path d="M 84.78 44.168281 
L 95.78 44.168281 
L 106.78 44.168281 
" style="fill: none; stroke: #4c72b0; stroke-width: 3; stroke-linecap: round"/>
    </g>
    <g id="text_18">
     <!-- SAC-DELAY-0 -->
     <g style="fill: #262626" transform="translate(115.58 48.018281)scale(0.11 -0.11)">
      <defs>
       <path id="DejaVuSans-53" d="M 3425 4513 
L 3425 3897 
Q 3066 4069 2747 4153 
Q 2428 4238 2131 4238 
Q 1616 4238 1336 4038 
Q 1056 3838 1056 3469 
Q 1056 3159 1242 3001 
Q 1428 2844 1947 2747 
L 2328 2669 
Q 3034 2534 3370 2195 
Q 3706 1856 3706 1288 
Q 3706 609 3251 259 
Q 2797 -91 1919 -91 
Q 1588 -91 1214 -16 
Q 841 59 441 206 
L 441 856 
Q 825 641 1194 531 
Q 1563 422 1919 422 
Q 2459 422 2753 634 
Q 3047 847 3047 1241 
Q 3047 1584 2836 1778 
Q 2625 1972 2144 2069 
L 1759 2144 
Q 1053 2284 737 2584 
Q 422 2884 422 3419 
Q 422 4038 858 4394 
Q 1294 4750 2059 4750 
Q 2388 4750 2728 4690 
Q 3069 4631 3425 4513 
z
" transform="scale(0.015625)"/>
       <path id="DejaVuSans-41" d="M 2188 4044 
L 1331 1722 
L 3047 1722 
L 2188 4044 
z
M 1831 4666 
L 2547 4666 
L 4325 0 
L 3669 0 
L 3244 1197 
L 1141 1197 
L 716 0 
L 50 0 
L 1831 4666 
z
" transform="scale(0.015625)"/>
       <path id="DejaVuSans-43" d="M 4122 4306 
L 4122 3641 
Q 3803 3938 3442 4084 
Q 3081 4231 2675 4231 
Q 1875 4231 1450 3742 
Q 1025 3253 1025 2328 
Q 1025 1406 1450 917 
Q 1875 428 2675 428 
Q 3081 428 3442 575 
Q 3803 722 4122 1019 
L 4122 359 
Q 3791 134 3420 21 
Q 3050 -91 2638 -91 
Q 1578 -91 968 557 
Q 359 1206 359 2328 
Q 359 3453 968 4101 
Q 1578 4750 2638 4750 
Q 3056 4750 3426 4639 
Q 3797 4528 4122 4306 
z
" transform="scale(0.015625)"/>
       <path id="DejaVuSans-44" d="M 1259 4147 
L 1259 519 
L 2022 519 
Q 2988 519 3436 956 
Q 3884 1394 3884 2338 
Q 3884 3275 3436 3711 
Q 2988 4147 2022 4147 
L 1259 4147 
z
M 628 4666 
L 1925 4666 
Q 3281 4666 3915 4102 
Q 4550 3538 4550 2338 
Q 4550 1131 3912 565 
Q 3275 0 1925 0 
L 628 0 
L 628 4666 
z
" transform="scale(0.015625)"/>
       <path id="DejaVuSans-45" d="M 628 4666 
L 3578 4666 
L 3578 4134 
L 1259 4134 
L 1259 2753 
L 3481 2753 
L 3481 2222 
L 1259 2222 
L 1259 531 
L 3634 531 
L 3634 0 
L 628 0 
L 628 4666 
z
" transform="scale(0.015625)"/>
       <path id="DejaVuSans-4c" d="M 628 4666 
L 1259 4666 
L 1259 531 
L 3531 531 
L 3531 0 
L 628 0 
L 628 4666 
z
" transform="scale(0.015625)"/>
       <path id="DejaVuSans-59" d="M -13 4666 
L 666 4666 
L 1959 2747 
L 3244 4666 
L 3922 4666 
L 2272 2222 
L 2272 0 
L 1638 0 
L 1638 2222 
L -13 4666 
z
" transform="scale(0.015625)"/>
      </defs>
      <use xlink:href="#DejaVuSans-53"/>
      <use xlink:href="#DejaVuSans-41" x="65.351562"/>
      <use xlink:href="#DejaVuSans-43" x="132.009766"/>
      <use xlink:href="#DejaVuSans-2d" x="201.833984"/>
      <use xlink:href="#DejaVuSans-44" x="237.917969"/>
      <use xlink:href="#DejaVuSans-45" x="314.919922"/>
      <use xlink:href="#DejaVuSans-4c" x="378.103516"/>
      <use xlink:href="#DejaVuSans-41" x="436.066406"/>
      <use xlink:href="#DejaVuSans-59" x="496.724609"/>
      <use xlink:href="#DejaVuSans-2d" x="545.933594"/>
      <use xlink:href="#DejaVuSans-30" x="582.017578"/>
     </g>
    </g>
    <g id="line2d_22">
     <path d="M 84.78 60.314219 
L 95.78 60.314219 
L 106.78 60.314219 
" style="fill: none; stroke: #dd8452; stroke-width: 3; stroke-linecap: round"/>
    </g>
    <g id="text_19">
     <!-- DCAC-DELAY-1-16C -->
     <g style="fill: #262626" transform="translate(115.58 64.164219)scale(0.11 -0.11)">
      <use xlink:href="#DejaVuSans-44"/>
      <use xlink:href="#DejaVuSans-43" x="77.001953"/>
      <use xlink:href="#DejaVuSans-41" x="146.826172"/>
      <use xlink:href="#DejaVuSans-43" x="213.484375"/>
      <use xlink:href="#DejaVuSans-2d" x="283.308594"/>
      <use xlink:href="#DejaVuSans-44" x="319.392578"/>
      <use xlink:href="#DejaVuSans-45" x="396.394531"/>
      <use xlink:href="#DejaVuSans-4c" x="459.578125"/>
      <use xlink:href="#DejaVuSans-41" x="517.541016"/>
      <use xlink:href="#DejaVuSans-59" x="578.199219"/>
      <use xlink:href="#DejaVuSans-2d" x="627.408203"/>
      <use xlink:href="#DejaVuSans-31" x="663.492188"/>
      <use xlink:href="#DejaVuSans-2d" x="727.115234"/>
      <use xlink:href="#DejaVuSans-31" x="763.199219"/>
      <use xlink:href="#DejaVuSans-36" x="826.822266"/>
      <use xlink:href="#DejaVuSans-43" x="890.445312"/>
     </g>
    </g>
    <g id="line2d_23">
     <path d="M 84.78 76.460156 
L 95.78 76.460156 
L 106.78 76.460156 
" style="fill: none; stroke: #55a868; stroke-width: 3; stroke-linecap: round"/>
    </g>
    <g id="text_20">
     <!-- DCAC-DELAY-5-16C -->
     <g style="fill: #262626" transform="translate(115.58 80.310156)scale(0.11 -0.11)">
      <use xlink:href="#DejaVuSans-44"/>
      <use xlink:href="#DejaVuSans-43" x="77.001953"/>
      <use xlink:href="#DejaVuSans-41" x="146.826172"/>
      <use xlink:href="#DejaVuSans-43" x="213.484375"/>
      <use xlink:href="#DejaVuSans-2d" x="283.308594"/>
      <use xlink:href="#DejaVuSans-44" x="319.392578"/>
      <use xlink:href="#DejaVuSans-45" x="396.394531"/>
      <use xlink:href="#DejaVuSans-4c" x="459.578125"/>
      <use xlink:href="#DejaVuSans-41" x="517.541016"/>
      <use xlink:href="#DejaVuSans-59" x="578.199219"/>
      <use xlink:href="#DejaVuSans-2d" x="627.408203"/>
      <use xlink:href="#DejaVuSans-35" x="663.492188"/>
      <use xlink:href="#DejaVuSans-2d" x="727.115234"/>
      <use xlink:href="#DejaVuSans-31" x="763.199219"/>
      <use xlink:href="#DejaVuSans-36" x="826.822266"/>
      <use xlink:href="#DejaVuSans-43" x="890.445312"/>
     </g>
    </g>
    <g id="line2d_24">
     <path d="M 84.78 92.606094 
L 95.78 92.606094 
L 106.78 92.606094 
" style="fill: none; stroke: #c44e52; stroke-width: 3; stroke-linecap: round"/>
    </g>
    <g id="text_21">
     <!-- DCAC-DELAY-10-16C -->
     <g style="fill: #262626" transform="translate(115.58 96.456094)scale(0.11 -0.11)">
      <use xlink:href="#DejaVuSans-44"/>
      <use xlink:href="#DejaVuSans-43" x="77.001953"/>
      <use xlink:href="#DejaVuSans-41" x="146.826172"/>
      <use xlink:href="#DejaVuSans-43" x="213.484375"/>
      <use xlink:href="#DejaVuSans-2d" x="283.308594"/>
      <use xlink:href="#DejaVuSans-44" x="319.392578"/>
      <use xlink:href="#DejaVuSans-45" x="396.394531"/>
      <use xlink:href="#DejaVuSans-4c" x="459.578125"/>
      <use xlink:href="#DejaVuSans-41" x="517.541016"/>
      <use xlink:href="#DejaVuSans-59" x="578.199219"/>
      <use xlink:href="#DejaVuSans-2d" x="627.408203"/>
      <use xlink:href="#DejaVuSans-31" x="663.492188"/>
      <use xlink:href="#DejaVuSans-30" x="727.115234"/>
      <use xlink:href="#DejaVuSans-2d" x="790.738281"/>
      <use xlink:href="#DejaVuSans-31" x="826.822266"/>
      <use xlink:href="#DejaVuSans-36" x="890.445312"/>
      <use xlink:href="#DejaVuSans-43" x="954.068359"/>
     </g>
    </g>
    <g id="line2d_25">
     <path d="M 84.78 108.752031 
L 95.78 108.752031 
L 106.78 108.752031 
" style="fill: none; stroke: #8172b3; stroke-width: 3; stroke-linecap: round"/>
    </g>
    <g id="text_22">
     <!-- DCAC-DELAY-20-16C -->
     <g style="fill: #262626" transform="translate(115.58 112.602031)scale(0.11 -0.11)">
      <use xlink:href="#DejaVuSans-44"/>
      <use xlink:href="#DejaVuSans-43" x="77.001953"/>
      <use xlink:href="#DejaVuSans-41" x="146.826172"/>
      <use xlink:href="#DejaVuSans-43" x="213.484375"/>
      <use xlink:href="#DejaVuSans-2d" x="283.308594"/>
      <use xlink:href="#DejaVuSans-44" x="319.392578"/>
      <use xlink:href="#DejaVuSans-45" x="396.394531"/>
      <use xlink:href="#DejaVuSans-4c" x="459.578125"/>
      <use xlink:href="#DejaVuSans-41" x="517.541016"/>
      <use xlink:href="#DejaVuSans-59" x="578.199219"/>
      <use xlink:href="#DejaVuSans-2d" x="627.408203"/>
      <use xlink:href="#DejaVuSans-32" x="663.492188"/>
      <use xlink:href="#DejaVuSans-30" x="727.115234"/>
      <use xlink:href="#DejaVuSans-2d" x="790.738281"/>
      <use xlink:href="#DejaVuSans-31" x="826.822266"/>
      <use xlink:href="#DejaVuSans-36" x="890.445312"/>
      <use xlink:href="#DejaVuSans-43" x="954.068359"/>
     </g>
    </g>
    <g id="line2d_26">
     <path d="M 84.78 124.897969 
L 95.78 124.897969 
L 106.78 124.897969 
" style="fill: none; stroke: #937860; stroke-width: 3; stroke-linecap: round"/>
    </g>
    <g id="text_23">
     <!-- DCAC-DELAY-100-16C -->
     <g style="fill: #262626" transform="translate(115.58 128.747969)scale(0.11 -0.11)">
      <use xlink:href="#DejaVuSans-44"/>
      <use xlink:href="#DejaVuSans-43" x="77.001953"/>
      <use xlink:href="#DejaVuSans-41" x="146.826172"/>
      <use xlink:href="#DejaVuSans-43" x="213.484375"/>
      <use xlink:href="#DejaVuSans-2d" x="283.308594"/>
      <use xlink:href="#DejaVuSans-44" x="319.392578"/>
      <use xlink:href="#DejaVuSans-45" x="396.394531"/>
      <use xlink:href="#DejaVuSans-4c" x="459.578125"/>
      <use xlink:href="#DejaVuSans-41" x="517.541016"/>
      <use xlink:href="#DejaVuSans-59" x="578.199219"/>
      <use xlink:href="#DejaVuSans-2d" x="627.408203"/>
      <use xlink:href="#DejaVuSans-31" x="663.492188"/>
      <use xlink:href="#DejaVuSans-30" x="727.115234"/>
      <use xlink:href="#DejaVuSans-30" x="790.738281"/>
      <use xlink:href="#DejaVuSans-2d" x="854.361328"/>
      <use xlink:href="#DejaVuSans-31" x="890.445312"/>
      <use xlink:href="#DejaVuSans-36" x="954.068359"/>
      <use xlink:href="#DejaVuSans-43" x="1017.691406"/>
     </g>
    </g>
   </g>
  </g>
 </g>
 <defs>
  <clipPath id="pcd83c5325e">
   <rect x="74.88" y="29.76" width="372.96" height="264.9"/>
  </clipPath>
 </defs>
</svg>
