<?xml version="1.0" encoding="utf-8" standalone="no"?>
<!DOCTYPE svg PUBLIC "-//W3C//DTD SVG 1.1//EN"
  "http://www.w3.org/Graphics/SVG/1.1/DTD/svg11.dtd">
<svg xmlns:xlink="http://www.w3.org/1999/xlink" width="460.8pt" height="345.6pt" viewBox="0 0 460.8 345.6" xmlns="http://www.w3.org/2000/svg" version="1.1">
 <metadata>
  <rdf:RDF xmlns:dc="http://purl.org/dc/elements/1.1/" xmlns:cc="http://creativecommons.org/ns#" xmlns:rdf="http://www.w3.org/1999/02/22-rdf-syntax-ns#">
   <cc:Work>
    <dc:type rdf:resource="http://purl.org/dc/dcmitype/StillImage"/>
    <dc:date>2022-09-12T15:22:00.912708</dc:date>
    <dc:format>image/svg+xml</dc:format>
    <dc:creator>
     <cc:Agent>
      <dc:title>Matplotlib v3.5.3, https://matplotlib.org/</dc:title>
     </cc:Agent>
    </dc:creator>
   </cc:Work>
  </rdf:RDF>
 </metadata>
 <defs>
  <style type="text/css">*{stroke-linejoin: round; stroke-linecap: butt}</style>
 </defs>
 <g id="figure_1">
  <g id="patch_1">
   <path d="M 0 345.6 
L 460.8 345.6 
L 460.8 0 
L 0 0 
z
" style="fill: #ffffff"/>
  </g>
  <g id="axes_1">
   <g id="patch_2">
    <path d="M 74.88 294.66 
L 447.84 294.66 
L 447.84 12.96 
L 74.88 12.96 
z
" style="fill: #eaeaf2"/>
   </g>
   <g id="matplotlib.axis_1">
    <g id="xtick_1">
     <g id="line2d_1">
      <path d="M 88.983529 294.66 
L 88.983529 12.96 
" clip-path="url(#p0702a46f47)" style="fill: none; stroke: #ffffff; stroke-linecap: round"/>
     </g>
     <g id="text_1">
      <!-- 0.00 -->
      <g style="fill: #262626" transform="translate(76.737436 312.518281)scale(0.11 -0.11)">
       <defs>
        <path id="DejaVuSans-30" d="M 2034 4250 
Q 1547 4250 1301 3770 
Q 1056 3291 1056 2328 
Q 1056 1369 1301 889 
Q 1547 409 2034 409 
Q 2525 409 2770 889 
Q 3016 1369 3016 2328 
Q 3016 3291 2770 3770 
Q 2525 4250 2034 4250 
z
M 2034 4750 
Q 2819 4750 3233 4129 
Q 3647 3509 3647 2328 
Q 3647 1150 3233 529 
Q 2819 -91 2034 -91 
Q 1250 -91 836 529 
Q 422 1150 422 2328 
Q 422 3509 836 4129 
Q 1250 4750 2034 4750 
z
" transform="scale(0.015625)"/>
        <path id="DejaVuSans-2e" d="M 684 794 
L 1344 794 
L 1344 0 
L 684 0 
L 684 794 
z
" transform="scale(0.015625)"/>
       </defs>
       <use xlink:href="#DejaVuSans-30"/>
       <use xlink:href="#DejaVuSans-2e" x="63.623047"/>
       <use xlink:href="#DejaVuSans-30" x="95.410156"/>
       <use xlink:href="#DejaVuSans-30" x="159.033203"/>
      </g>
     </g>
    </g>
    <g id="xtick_2">
     <g id="line2d_2">
      <path d="M 145.967487 294.66 
L 145.967487 12.96 
" clip-path="url(#p0702a46f47)" style="fill: none; stroke: #ffffff; stroke-linecap: round"/>
     </g>
     <g id="text_2">
      <!-- 0.05 -->
      <g style="fill: #262626" transform="translate(133.721393 312.518281)scale(0.11 -0.11)">
       <defs>
        <path id="DejaVuSans-35" d="M 691 4666 
L 3169 4666 
L 3169 4134 
L 1269 4134 
L 1269 2991 
Q 1406 3038 1543 3061 
Q 1681 3084 1819 3084 
Q 2600 3084 3056 2656 
Q 3513 2228 3513 1497 
Q 3513 744 3044 326 
Q 2575 -91 1722 -91 
Q 1428 -91 1123 -41 
Q 819 9 494 109 
L 494 744 
Q 775 591 1075 516 
Q 1375 441 1709 441 
Q 2250 441 2565 725 
Q 2881 1009 2881 1497 
Q 2881 1984 2565 2268 
Q 2250 2553 1709 2553 
Q 1456 2553 1204 2497 
Q 953 2441 691 2322 
L 691 4666 
z
" transform="scale(0.015625)"/>
       </defs>
       <use xlink:href="#DejaVuSans-30"/>
       <use xlink:href="#DejaVuSans-2e" x="63.623047"/>
       <use xlink:href="#DejaVuSans-30" x="95.410156"/>
       <use xlink:href="#DejaVuSans-35" x="159.033203"/>
      </g>
     </g>
    </g>
    <g id="xtick_3">
     <g id="line2d_3">
      <path d="M 202.951444 294.66 
L 202.951444 12.96 
" clip-path="url(#p0702a46f47)" style="fill: none; stroke: #ffffff; stroke-linecap: round"/>
     </g>
     <g id="text_3">
      <!-- 0.10 -->
      <g style="fill: #262626" transform="translate(190.70535 312.518281)scale(0.11 -0.11)">
       <defs>
        <path id="DejaVuSans-31" d="M 794 531 
L 1825 531 
L 1825 4091 
L 703 3866 
L 703 4441 
L 1819 4666 
L 2450 4666 
L 2450 531 
L 3481 531 
L 3481 0 
L 794 0 
L 794 531 
z
" transform="scale(0.015625)"/>
       </defs>
       <use xlink:href="#DejaVuSans-30"/>
       <use xlink:href="#DejaVuSans-2e" x="63.623047"/>
       <use xlink:href="#DejaVuSans-31" x="95.410156"/>
       <use xlink:href="#DejaVuSans-30" x="159.033203"/>
      </g>
     </g>
    </g>
    <g id="xtick_4">
     <g id="line2d_4">
      <path d="M 259.935401 294.66 
L 259.935401 12.96 
" clip-path="url(#p0702a46f47)" style="fill: none; stroke: #ffffff; stroke-linecap: round"/>
     </g>
     <g id="text_4">
      <!-- 0.15 -->
      <g style="fill: #262626" transform="translate(247.689307 312.518281)scale(0.11 -0.11)">
       <use xlink:href="#DejaVuSans-30"/>
       <use xlink:href="#DejaVuSans-2e" x="63.623047"/>
       <use xlink:href="#DejaVuSans-31" x="95.410156"/>
       <use xlink:href="#DejaVuSans-35" x="159.033203"/>
      </g>
     </g>
    </g>
    <g id="xtick_5">
     <g id="line2d_5">
      <path d="M 316.919358 294.66 
L 316.919358 12.96 
" clip-path="url(#p0702a46f47)" style="fill: none; stroke: #ffffff; stroke-linecap: round"/>
     </g>
     <g id="text_5">
      <!-- 0.20 -->
      <g style="fill: #262626" transform="translate(304.673265 312.518281)scale(0.11 -0.11)">
       <defs>
        <path id="DejaVuSans-32" d="M 1228 531 
L 3431 531 
L 3431 0 
L 469 0 
L 469 531 
Q 828 903 1448 1529 
Q 2069 2156 2228 2338 
Q 2531 2678 2651 2914 
Q 2772 3150 2772 3378 
Q 2772 3750 2511 3984 
Q 2250 4219 1831 4219 
Q 1534 4219 1204 4116 
Q 875 4013 500 3803 
L 500 4441 
Q 881 4594 1212 4672 
Q 1544 4750 1819 4750 
Q 2544 4750 2975 4387 
Q 3406 4025 3406 3419 
Q 3406 3131 3298 2873 
Q 3191 2616 2906 2266 
Q 2828 2175 2409 1742 
Q 1991 1309 1228 531 
z
" transform="scale(0.015625)"/>
       </defs>
       <use xlink:href="#DejaVuSans-30"/>
       <use xlink:href="#DejaVuSans-2e" x="63.623047"/>
       <use xlink:href="#DejaVuSans-32" x="95.410156"/>
       <use xlink:href="#DejaVuSans-30" x="159.033203"/>
      </g>
     </g>
    </g>
    <g id="xtick_6">
     <g id="line2d_6">
      <path d="M 373.903316 294.66 
L 373.903316 12.96 
" clip-path="url(#p0702a46f47)" style="fill: none; stroke: #ffffff; stroke-linecap: round"/>
     </g>
     <g id="text_6">
      <!-- 0.25 -->
      <g style="fill: #262626" transform="translate(361.657222 312.518281)scale(0.11 -0.11)">
       <use xlink:href="#DejaVuSans-30"/>
       <use xlink:href="#DejaVuSans-2e" x="63.623047"/>
       <use xlink:href="#DejaVuSans-32" x="95.410156"/>
       <use xlink:href="#DejaVuSans-35" x="159.033203"/>
      </g>
     </g>
    </g>
    <g id="xtick_7">
     <g id="line2d_7">
      <path d="M 430.887273 294.66 
L 430.887273 12.96 
" clip-path="url(#p0702a46f47)" style="fill: none; stroke: #ffffff; stroke-linecap: round"/>
     </g>
     <g id="text_7">
      <!-- 0.30 -->
      <g style="fill: #262626" transform="translate(418.641179 312.518281)scale(0.11 -0.11)">
       <defs>
        <path id="DejaVuSans-33" d="M 2597 2516 
Q 3050 2419 3304 2112 
Q 3559 1806 3559 1356 
Q 3559 666 3084 287 
Q 2609 -91 1734 -91 
Q 1441 -91 1130 -33 
Q 819 25 488 141 
L 488 750 
Q 750 597 1062 519 
Q 1375 441 1716 441 
Q 2309 441 2620 675 
Q 2931 909 2931 1356 
Q 2931 1769 2642 2001 
Q 2353 2234 1838 2234 
L 1294 2234 
L 1294 2753 
L 1863 2753 
Q 2328 2753 2575 2939 
Q 2822 3125 2822 3475 
Q 2822 3834 2567 4026 
Q 2313 4219 1838 4219 
Q 1578 4219 1281 4162 
Q 984 4106 628 3988 
L 628 4550 
Q 988 4650 1302 4700 
Q 1616 4750 1894 4750 
Q 2613 4750 3031 4423 
Q 3450 4097 3450 3541 
Q 3450 3153 3228 2886 
Q 3006 2619 2597 2516 
z
" transform="scale(0.015625)"/>
       </defs>
       <use xlink:href="#DejaVuSans-30"/>
       <use xlink:href="#DejaVuSans-2e" x="63.623047"/>
       <use xlink:href="#DejaVuSans-33" x="95.410156"/>
       <use xlink:href="#DejaVuSans-30" x="159.033203"/>
      </g>
     </g>
    </g>
    <g id="text_8">
     <!-- Zeitschritte (in Millionen) -->
     <g style="fill: #262626" transform="translate(173.445469 329.44375)scale(0.14 -0.14)">
      <defs>
       <path id="DejaVuSans-5a" d="M 359 4666 
L 4025 4666 
L 4025 4184 
L 1075 531 
L 4097 531 
L 4097 0 
L 288 0 
L 288 481 
L 3238 4134 
L 359 4134 
L 359 4666 
z
" transform="scale(0.015625)"/>
       <path id="DejaVuSans-65" d="M 3597 1894 
L 3597 1613 
L 953 1613 
Q 991 1019 1311 708 
Q 1631 397 2203 397 
Q 2534 397 2845 478 
Q 3156 559 3463 722 
L 3463 178 
Q 3153 47 2828 -22 
Q 2503 -91 2169 -91 
Q 1331 -91 842 396 
Q 353 884 353 1716 
Q 353 2575 817 3079 
Q 1281 3584 2069 3584 
Q 2775 3584 3186 3129 
Q 3597 2675 3597 1894 
z
M 3022 2063 
Q 3016 2534 2758 2815 
Q 2500 3097 2075 3097 
Q 1594 3097 1305 2825 
Q 1016 2553 972 2059 
L 3022 2063 
z
" transform="scale(0.015625)"/>
       <path id="DejaVuSans-69" d="M 603 3500 
L 1178 3500 
L 1178 0 
L 603 0 
L 603 3500 
z
M 603 4863 
L 1178 4863 
L 1178 4134 
L 603 4134 
L 603 4863 
z
" transform="scale(0.015625)"/>
       <path id="DejaVuSans-74" d="M 1172 4494 
L 1172 3500 
L 2356 3500 
L 2356 3053 
L 1172 3053 
L 1172 1153 
Q 1172 725 1289 603 
Q 1406 481 1766 481 
L 2356 481 
L 2356 0 
L 1766 0 
Q 1100 0 847 248 
Q 594 497 594 1153 
L 594 3053 
L 172 3053 
L 172 3500 
L 594 3500 
L 594 4494 
L 1172 4494 
z
" transform="scale(0.015625)"/>
       <path id="DejaVuSans-73" d="M 2834 3397 
L 2834 2853 
Q 2591 2978 2328 3040 
Q 2066 3103 1784 3103 
Q 1356 3103 1142 2972 
Q 928 2841 928 2578 
Q 928 2378 1081 2264 
Q 1234 2150 1697 2047 
L 1894 2003 
Q 2506 1872 2764 1633 
Q 3022 1394 3022 966 
Q 3022 478 2636 193 
Q 2250 -91 1575 -91 
Q 1294 -91 989 -36 
Q 684 19 347 128 
L 347 722 
Q 666 556 975 473 
Q 1284 391 1588 391 
Q 1994 391 2212 530 
Q 2431 669 2431 922 
Q 2431 1156 2273 1281 
Q 2116 1406 1581 1522 
L 1381 1569 
Q 847 1681 609 1914 
Q 372 2147 372 2553 
Q 372 3047 722 3315 
Q 1072 3584 1716 3584 
Q 2034 3584 2315 3537 
Q 2597 3491 2834 3397 
z
" transform="scale(0.015625)"/>
       <path id="DejaVuSans-63" d="M 3122 3366 
L 3122 2828 
Q 2878 2963 2633 3030 
Q 2388 3097 2138 3097 
Q 1578 3097 1268 2742 
Q 959 2388 959 1747 
Q 959 1106 1268 751 
Q 1578 397 2138 397 
Q 2388 397 2633 464 
Q 2878 531 3122 666 
L 3122 134 
Q 2881 22 2623 -34 
Q 2366 -91 2075 -91 
Q 1284 -91 818 406 
Q 353 903 353 1747 
Q 353 2603 823 3093 
Q 1294 3584 2113 3584 
Q 2378 3584 2631 3529 
Q 2884 3475 3122 3366 
z
" transform="scale(0.015625)"/>
       <path id="DejaVuSans-68" d="M 3513 2113 
L 3513 0 
L 2938 0 
L 2938 2094 
Q 2938 2591 2744 2837 
Q 2550 3084 2163 3084 
Q 1697 3084 1428 2787 
Q 1159 2491 1159 1978 
L 1159 0 
L 581 0 
L 581 4863 
L 1159 4863 
L 1159 2956 
Q 1366 3272 1645 3428 
Q 1925 3584 2291 3584 
Q 2894 3584 3203 3211 
Q 3513 2838 3513 2113 
z
" transform="scale(0.015625)"/>
       <path id="DejaVuSans-72" d="M 2631 2963 
Q 2534 3019 2420 3045 
Q 2306 3072 2169 3072 
Q 1681 3072 1420 2755 
Q 1159 2438 1159 1844 
L 1159 0 
L 581 0 
L 581 3500 
L 1159 3500 
L 1159 2956 
Q 1341 3275 1631 3429 
Q 1922 3584 2338 3584 
Q 2397 3584 2469 3576 
Q 2541 3569 2628 3553 
L 2631 2963 
z
" transform="scale(0.015625)"/>
       <path id="DejaVuSans-20" transform="scale(0.015625)"/>
       <path id="DejaVuSans-28" d="M 1984 4856 
Q 1566 4138 1362 3434 
Q 1159 2731 1159 2009 
Q 1159 1288 1364 580 
Q 1569 -128 1984 -844 
L 1484 -844 
Q 1016 -109 783 600 
Q 550 1309 550 2009 
Q 550 2706 781 3412 
Q 1013 4119 1484 4856 
L 1984 4856 
z
" transform="scale(0.015625)"/>
       <path id="DejaVuSans-6e" d="M 3513 2113 
L 3513 0 
L 2938 0 
L 2938 2094 
Q 2938 2591 2744 2837 
Q 2550 3084 2163 3084 
Q 1697 3084 1428 2787 
Q 1159 2491 1159 1978 
L 1159 0 
L 581 0 
L 581 3500 
L 1159 3500 
L 1159 2956 
Q 1366 3272 1645 3428 
Q 1925 3584 2291 3584 
Q 2894 3584 3203 3211 
Q 3513 2838 3513 2113 
z
" transform="scale(0.015625)"/>
       <path id="DejaVuSans-4d" d="M 628 4666 
L 1569 4666 
L 2759 1491 
L 3956 4666 
L 4897 4666 
L 4897 0 
L 4281 0 
L 4281 4097 
L 3078 897 
L 2444 897 
L 1241 4097 
L 1241 0 
L 628 0 
L 628 4666 
z
" transform="scale(0.015625)"/>
       <path id="DejaVuSans-6c" d="M 603 4863 
L 1178 4863 
L 1178 0 
L 603 0 
L 603 4863 
z
" transform="scale(0.015625)"/>
       <path id="DejaVuSans-6f" d="M 1959 3097 
Q 1497 3097 1228 2736 
Q 959 2375 959 1747 
Q 959 1119 1226 758 
Q 1494 397 1959 397 
Q 2419 397 2687 759 
Q 2956 1122 2956 1747 
Q 2956 2369 2687 2733 
Q 2419 3097 1959 3097 
z
M 1959 3584 
Q 2709 3584 3137 3096 
Q 3566 2609 3566 1747 
Q 3566 888 3137 398 
Q 2709 -91 1959 -91 
Q 1206 -91 779 398 
Q 353 888 353 1747 
Q 353 2609 779 3096 
Q 1206 3584 1959 3584 
z
" transform="scale(0.015625)"/>
       <path id="DejaVuSans-29" d="M 513 4856 
L 1013 4856 
Q 1481 4119 1714 3412 
Q 1947 2706 1947 2009 
Q 1947 1309 1714 600 
Q 1481 -109 1013 -844 
L 513 -844 
Q 928 -128 1133 580 
Q 1338 1288 1338 2009 
Q 1338 2731 1133 3434 
Q 928 4138 513 4856 
z
" transform="scale(0.015625)"/>
      </defs>
      <use xlink:href="#DejaVuSans-5a"/>
      <use xlink:href="#DejaVuSans-65" x="68.505859"/>
      <use xlink:href="#DejaVuSans-69" x="130.029297"/>
      <use xlink:href="#DejaVuSans-74" x="157.8125"/>
      <use xlink:href="#DejaVuSans-73" x="197.021484"/>
      <use xlink:href="#DejaVuSans-63" x="249.121094"/>
      <use xlink:href="#DejaVuSans-68" x="304.101562"/>
      <use xlink:href="#DejaVuSans-72" x="367.480469"/>
      <use xlink:href="#DejaVuSans-69" x="408.59375"/>
      <use xlink:href="#DejaVuSans-74" x="436.376953"/>
      <use xlink:href="#DejaVuSans-74" x="475.585938"/>
      <use xlink:href="#DejaVuSans-65" x="514.794922"/>
      <use xlink:href="#DejaVuSans-20" x="576.318359"/>
      <use xlink:href="#DejaVuSans-28" x="608.105469"/>
      <use xlink:href="#DejaVuSans-69" x="647.119141"/>
      <use xlink:href="#DejaVuSans-6e" x="674.902344"/>
      <use xlink:href="#DejaVuSans-20" x="738.28125"/>
      <use xlink:href="#DejaVuSans-4d" x="770.068359"/>
      <use xlink:href="#DejaVuSans-69" x="856.347656"/>
      <use xlink:href="#DejaVuSans-6c" x="884.130859"/>
      <use xlink:href="#DejaVuSans-6c" x="911.914062"/>
      <use xlink:href="#DejaVuSans-69" x="939.697266"/>
      <use xlink:href="#DejaVuSans-6f" x="967.480469"/>
      <use xlink:href="#DejaVuSans-6e" x="1028.662109"/>
      <use xlink:href="#DejaVuSans-65" x="1092.041016"/>
      <use xlink:href="#DejaVuSans-6e" x="1153.564453"/>
      <use xlink:href="#DejaVuSans-29" x="1216.943359"/>
     </g>
    </g>
   </g>
   <g id="matplotlib.axis_2">
    <g id="ytick_1">
     <g id="line2d_8">
      <path d="M 74.88 281.86075 
L 447.84 281.86075 
" clip-path="url(#p0702a46f47)" style="fill: none; stroke: #ffffff; stroke-linecap: round"/>
     </g>
     <g id="text_9">
      <!-- 0 -->
      <g style="fill: #262626" transform="translate(58.38125 286.039891)scale(0.11 -0.11)">
       <use xlink:href="#DejaVuSans-30"/>
      </g>
     </g>
    </g>
    <g id="ytick_2">
     <g id="line2d_9">
      <path d="M 74.88 238.921002 
L 447.84 238.921002 
" clip-path="url(#p0702a46f47)" style="fill: none; stroke: #ffffff; stroke-linecap: round"/>
     </g>
     <g id="text_10">
      <!-- 10000 -->
      <g style="fill: #262626" transform="translate(30.38625 243.100143)scale(0.11 -0.11)">
       <use xlink:href="#DejaVuSans-31"/>
       <use xlink:href="#DejaVuSans-30" x="63.623047"/>
       <use xlink:href="#DejaVuSans-30" x="127.246094"/>
       <use xlink:href="#DejaVuSans-30" x="190.869141"/>
       <use xlink:href="#DejaVuSans-30" x="254.492188"/>
      </g>
     </g>
    </g>
    <g id="ytick_3">
     <g id="line2d_10">
      <path d="M 74.88 195.981253 
L 447.84 195.981253 
" clip-path="url(#p0702a46f47)" style="fill: none; stroke: #ffffff; stroke-linecap: round"/>
     </g>
     <g id="text_11">
      <!-- 20000 -->
      <g style="fill: #262626" transform="translate(30.38625 200.160394)scale(0.11 -0.11)">
       <use xlink:href="#DejaVuSans-32"/>
       <use xlink:href="#DejaVuSans-30" x="63.623047"/>
       <use xlink:href="#DejaVuSans-30" x="127.246094"/>
       <use xlink:href="#DejaVuSans-30" x="190.869141"/>
       <use xlink:href="#DejaVuSans-30" x="254.492188"/>
      </g>
     </g>
    </g>
    <g id="ytick_4">
     <g id="line2d_11">
      <path d="M 74.88 153.041505 
L 447.84 153.041505 
" clip-path="url(#p0702a46f47)" style="fill: none; stroke: #ffffff; stroke-linecap: round"/>
     </g>
     <g id="text_12">
      <!-- 30000 -->
      <g style="fill: #262626" transform="translate(30.38625 157.220646)scale(0.11 -0.11)">
       <use xlink:href="#DejaVuSans-33"/>
       <use xlink:href="#DejaVuSans-30" x="63.623047"/>
       <use xlink:href="#DejaVuSans-30" x="127.246094"/>
       <use xlink:href="#DejaVuSans-30" x="190.869141"/>
       <use xlink:href="#DejaVuSans-30" x="254.492188"/>
      </g>
     </g>
    </g>
    <g id="ytick_5">
     <g id="line2d_12">
      <path d="M 74.88 110.101756 
L 447.84 110.101756 
" clip-path="url(#p0702a46f47)" style="fill: none; stroke: #ffffff; stroke-linecap: round"/>
     </g>
     <g id="text_13">
      <!-- 40000 -->
      <g style="fill: #262626" transform="translate(30.38625 114.280897)scale(0.11 -0.11)">
       <defs>
        <path id="DejaVuSans-34" d="M 2419 4116 
L 825 1625 
L 2419 1625 
L 2419 4116 
z
M 2253 4666 
L 3047 4666 
L 3047 1625 
L 3713 1625 
L 3713 1100 
L 3047 1100 
L 3047 0 
L 2419 0 
L 2419 1100 
L 313 1100 
L 313 1709 
L 2253 4666 
z
" transform="scale(0.015625)"/>
       </defs>
       <use xlink:href="#DejaVuSans-34"/>
       <use xlink:href="#DejaVuSans-30" x="63.623047"/>
       <use xlink:href="#DejaVuSans-30" x="127.246094"/>
       <use xlink:href="#DejaVuSans-30" x="190.869141"/>
       <use xlink:href="#DejaVuSans-30" x="254.492188"/>
      </g>
     </g>
    </g>
    <g id="ytick_6">
     <g id="line2d_13">
      <path d="M 74.88 67.162008 
L 447.84 67.162008 
" clip-path="url(#p0702a46f47)" style="fill: none; stroke: #ffffff; stroke-linecap: round"/>
     </g>
     <g id="text_14">
      <!-- 50000 -->
      <g style="fill: #262626" transform="translate(30.38625 71.341149)scale(0.11 -0.11)">
       <use xlink:href="#DejaVuSans-35"/>
       <use xlink:href="#DejaVuSans-30" x="63.623047"/>
       <use xlink:href="#DejaVuSans-30" x="127.246094"/>
       <use xlink:href="#DejaVuSans-30" x="190.869141"/>
       <use xlink:href="#DejaVuSans-30" x="254.492188"/>
      </g>
     </g>
    </g>
    <g id="ytick_7">
     <g id="line2d_14">
      <path d="M 74.88 24.22226 
L 447.84 24.22226 
" clip-path="url(#p0702a46f47)" style="fill: none; stroke: #ffffff; stroke-linecap: round"/>
     </g>
     <g id="text_15">
      <!-- 60000 -->
      <g style="fill: #262626" transform="translate(30.38625 28.4014)scale(0.11 -0.11)">
       <defs>
        <path id="DejaVuSans-36" d="M 2113 2584 
Q 1688 2584 1439 2293 
Q 1191 2003 1191 1497 
Q 1191 994 1439 701 
Q 1688 409 2113 409 
Q 2538 409 2786 701 
Q 3034 994 3034 1497 
Q 3034 2003 2786 2293 
Q 2538 2584 2113 2584 
z
M 3366 4563 
L 3366 3988 
Q 3128 4100 2886 4159 
Q 2644 4219 2406 4219 
Q 1781 4219 1451 3797 
Q 1122 3375 1075 2522 
Q 1259 2794 1537 2939 
Q 1816 3084 2150 3084 
Q 2853 3084 3261 2657 
Q 3669 2231 3669 1497 
Q 3669 778 3244 343 
Q 2819 -91 2113 -91 
Q 1303 -91 875 529 
Q 447 1150 447 2328 
Q 447 3434 972 4092 
Q 1497 4750 2381 4750 
Q 2619 4750 2861 4703 
Q 3103 4656 3366 4563 
z
" transform="scale(0.015625)"/>
       </defs>
       <use xlink:href="#DejaVuSans-36"/>
       <use xlink:href="#DejaVuSans-30" x="63.623047"/>
       <use xlink:href="#DejaVuSans-30" x="127.246094"/>
       <use xlink:href="#DejaVuSans-30" x="190.869141"/>
       <use xlink:href="#DejaVuSans-30" x="254.492188"/>
      </g>
     </g>
    </g>
    <g id="text_16">
     <!-- Trainingszeit (in Minuten) -->
     <g style="fill: #262626" transform="translate(23.474688 242.379688)rotate(-90)scale(0.14 -0.14)">
      <defs>
       <path id="DejaVuSans-54" d="M -19 4666 
L 3928 4666 
L 3928 4134 
L 2272 4134 
L 2272 0 
L 1638 0 
L 1638 4134 
L -19 4134 
L -19 4666 
z
" transform="scale(0.015625)"/>
       <path id="DejaVuSans-61" d="M 2194 1759 
Q 1497 1759 1228 1600 
Q 959 1441 959 1056 
Q 959 750 1161 570 
Q 1363 391 1709 391 
Q 2188 391 2477 730 
Q 2766 1069 2766 1631 
L 2766 1759 
L 2194 1759 
z
M 3341 1997 
L 3341 0 
L 2766 0 
L 2766 531 
Q 2569 213 2275 61 
Q 1981 -91 1556 -91 
Q 1019 -91 701 211 
Q 384 513 384 1019 
Q 384 1609 779 1909 
Q 1175 2209 1959 2209 
L 2766 2209 
L 2766 2266 
Q 2766 2663 2505 2880 
Q 2244 3097 1772 3097 
Q 1472 3097 1187 3025 
Q 903 2953 641 2809 
L 641 3341 
Q 956 3463 1253 3523 
Q 1550 3584 1831 3584 
Q 2591 3584 2966 3190 
Q 3341 2797 3341 1997 
z
" transform="scale(0.015625)"/>
       <path id="DejaVuSans-67" d="M 2906 1791 
Q 2906 2416 2648 2759 
Q 2391 3103 1925 3103 
Q 1463 3103 1205 2759 
Q 947 2416 947 1791 
Q 947 1169 1205 825 
Q 1463 481 1925 481 
Q 2391 481 2648 825 
Q 2906 1169 2906 1791 
z
M 3481 434 
Q 3481 -459 3084 -895 
Q 2688 -1331 1869 -1331 
Q 1566 -1331 1297 -1286 
Q 1028 -1241 775 -1147 
L 775 -588 
Q 1028 -725 1275 -790 
Q 1522 -856 1778 -856 
Q 2344 -856 2625 -561 
Q 2906 -266 2906 331 
L 2906 616 
Q 2728 306 2450 153 
Q 2172 0 1784 0 
Q 1141 0 747 490 
Q 353 981 353 1791 
Q 353 2603 747 3093 
Q 1141 3584 1784 3584 
Q 2172 3584 2450 3431 
Q 2728 3278 2906 2969 
L 2906 3500 
L 3481 3500 
L 3481 434 
z
" transform="scale(0.015625)"/>
       <path id="DejaVuSans-7a" d="M 353 3500 
L 3084 3500 
L 3084 2975 
L 922 459 
L 3084 459 
L 3084 0 
L 275 0 
L 275 525 
L 2438 3041 
L 353 3041 
L 353 3500 
z
" transform="scale(0.015625)"/>
       <path id="DejaVuSans-75" d="M 544 1381 
L 544 3500 
L 1119 3500 
L 1119 1403 
Q 1119 906 1312 657 
Q 1506 409 1894 409 
Q 2359 409 2629 706 
Q 2900 1003 2900 1516 
L 2900 3500 
L 3475 3500 
L 3475 0 
L 2900 0 
L 2900 538 
Q 2691 219 2414 64 
Q 2138 -91 1772 -91 
Q 1169 -91 856 284 
Q 544 659 544 1381 
z
M 1991 3584 
L 1991 3584 
z
" transform="scale(0.015625)"/>
      </defs>
      <use xlink:href="#DejaVuSans-54"/>
      <use xlink:href="#DejaVuSans-72" x="46.333984"/>
      <use xlink:href="#DejaVuSans-61" x="87.447266"/>
      <use xlink:href="#DejaVuSans-69" x="148.726562"/>
      <use xlink:href="#DejaVuSans-6e" x="176.509766"/>
      <use xlink:href="#DejaVuSans-69" x="239.888672"/>
      <use xlink:href="#DejaVuSans-6e" x="267.671875"/>
      <use xlink:href="#DejaVuSans-67" x="331.050781"/>
      <use xlink:href="#DejaVuSans-73" x="394.527344"/>
      <use xlink:href="#DejaVuSans-7a" x="446.626953"/>
      <use xlink:href="#DejaVuSans-65" x="499.117188"/>
      <use xlink:href="#DejaVuSans-69" x="560.640625"/>
      <use xlink:href="#DejaVuSans-74" x="588.423828"/>
      <use xlink:href="#DejaVuSans-20" x="627.632812"/>
      <use xlink:href="#DejaVuSans-28" x="659.419922"/>
      <use xlink:href="#DejaVuSans-69" x="698.433594"/>
      <use xlink:href="#DejaVuSans-6e" x="726.216797"/>
      <use xlink:href="#DejaVuSans-20" x="789.595703"/>
      <use xlink:href="#DejaVuSans-4d" x="821.382812"/>
      <use xlink:href="#DejaVuSans-69" x="907.662109"/>
      <use xlink:href="#DejaVuSans-6e" x="935.445312"/>
      <use xlink:href="#DejaVuSans-75" x="998.824219"/>
      <use xlink:href="#DejaVuSans-74" x="1062.203125"/>
      <use xlink:href="#DejaVuSans-65" x="1101.412109"/>
      <use xlink:href="#DejaVuSans-6e" x="1162.935547"/>
      <use xlink:href="#DejaVuSans-29" x="1226.314453"/>
     </g>
    </g>
   </g>
   <g id="PolyCollection_1">
    <defs>
     <path id="m844ca66686" d="M 91.832727 -63.744545 
L 91.832727 -63.744859 
L 94.681925 -63.75122 
L 97.531123 -63.757851 
L 100.380321 -63.76417 
L 103.229519 -63.800146 
L 106.078717 -63.836085 
L 108.927914 -63.871571 
L 111.777112 -63.906959 
L 114.62631 -63.942628 
L 117.475508 -63.978124 
L 120.324706 -64.014268 
L 123.173904 -64.049448 
L 126.023102 -64.084404 
L 128.872299 -64.120085 
L 131.721497 -64.156424 
L 134.570695 -64.19281 
L 137.419893 -64.228494 
L 140.269091 -64.26417 
L 143.118289 -64.299916 
L 145.967487 -64.335671 
L 148.816684 -64.372325 
L 151.665882 -64.40848 
L 154.51508 -64.443534 
L 157.364278 -64.478577 
L 160.213476 -64.513646 
L 163.062674 -64.5494 
L 165.911872 -64.585371 
L 168.76107 -64.621456 
L 171.610267 -64.657224 
L 174.459465 -64.693942 
L 177.308663 -64.729917 
L 180.157861 -64.765556 
L 183.007059 -64.802015 
L 185.856257 -64.839003 
L 188.705455 -64.875907 
L 191.554652 -64.911926 
L 194.40385 -64.946617 
L 197.253048 -64.982923 
L 200.102246 -65.019732 
L 202.951444 -65.056651 
L 205.800642 -65.092288 
L 208.64984 -65.12813 
L 211.499037 -65.164443 
L 214.348235 -65.201052 
L 217.197433 -65.237252 
L 220.046631 -65.272955 
L 222.895829 -65.308646 
L 225.745027 -65.34459 
L 228.594225 -65.381072 
L 231.443422 -65.416828 
L 234.29262 -65.452116 
L 237.141818 -65.487427 
L 239.991016 -65.522731 
L 242.840214 -65.55857 
L 245.689412 -65.594524 
L 248.53861 -65.630226 
L 251.387807 -65.666091 
L 254.237005 -65.701532 
L 257.086203 -65.738657 
L 259.935401 -65.774356 
L 262.784599 -65.80979 
L 265.633797 -65.844926 
L 268.482995 -65.88054 
L 271.332193 -65.916481 
L 274.18139 -65.951727 
L 277.030588 -65.987381 
L 279.879786 -66.023183 
L 282.728984 -66.059388 
L 285.578182 -66.095201 
L 288.42738 -66.13102 
L 291.276578 -66.168077 
L 294.125775 -66.204007 
L 296.974973 -66.24009 
L 299.824171 -66.275659 
L 302.673369 -66.311203 
L 305.522567 -66.347559 
L 308.371765 -66.383188 
L 311.220963 -66.418499 
L 314.07016 -66.453596 
L 316.919358 -66.489254 
L 319.768556 -66.525032 
L 322.617754 -66.559915 
L 325.466952 -66.59558 
L 328.31615 -66.630941 
L 331.165348 -66.66528 
L 334.014545 -66.700063 
L 336.863743 -66.735046 
L 339.712941 -66.771093 
L 342.562139 -66.8059 
L 345.411337 -66.840938 
L 348.260535 -66.876769 
L 351.109733 -66.912126 
L 353.95893 -66.946927 
L 356.808128 -66.981939 
L 359.657326 -67.017782 
L 362.506524 -67.052905 
L 365.355722 -67.088726 
L 368.20492 -67.123772 
L 371.054118 -67.158408 
L 373.903316 -67.192886 
L 376.752513 -67.228368 
L 379.601711 -67.263751 
L 382.450909 -67.299485 
L 385.300107 -67.335193 
L 388.149305 -67.370181 
L 390.998503 -67.404691 
L 393.847701 -67.440255 
L 396.696898 -67.475803 
L 399.546096 -67.510343 
L 402.395294 -67.54532 
L 405.244492 -67.57961 
L 408.09369 -67.615403 
L 410.942888 -67.650406 
L 413.792086 -67.685514 
L 416.641283 -67.720472 
L 419.490481 -67.75579 
L 422.339679 -67.790139 
L 425.188877 -67.825248 
L 428.038075 -67.86193 
L 430.887273 -67.897419 
L 430.887273 -67.894279 
L 430.887273 -67.894279 
L 428.038075 -67.858093 
L 425.188877 -67.822031 
L 422.339679 -67.785821 
L 419.490481 -67.749621 
L 416.641283 -67.714244 
L 413.792086 -67.678578 
L 410.942888 -67.64284 
L 408.09369 -67.607368 
L 405.244492 -67.572089 
L 402.395294 -67.536185 
L 399.546096 -67.500565 
L 396.696898 -67.464278 
L 393.847701 -67.428538 
L 390.998503 -67.392202 
L 388.149305 -67.357208 
L 385.300107 -67.321905 
L 382.450909 -67.286805 
L 379.601711 -67.250676 
L 376.752513 -67.215499 
L 373.903316 -67.180266 
L 371.054118 -67.144913 
L 368.20492 -67.109516 
L 365.355722 -67.073981 
L 362.506524 -67.038474 
L 359.657326 -67.002894 
L 356.808128 -66.967146 
L 353.95893 -66.932 
L 351.109733 -66.896599 
L 348.260535 -66.861378 
L 345.411337 -66.826624 
L 342.562139 -66.790558 
L 339.712941 -66.755261 
L 336.863743 -66.719824 
L 334.014545 -66.684155 
L 331.165348 -66.64929 
L 328.31615 -66.613554 
L 325.466952 -66.578003 
L 322.617754 -66.541218 
L 319.768556 -66.50608 
L 316.919358 -66.470886 
L 314.07016 -66.435292 
L 311.220963 -66.400368 
L 308.371765 -66.365006 
L 305.522567 -66.330859 
L 302.673369 -66.295868 
L 299.824171 -66.260453 
L 296.974973 -66.225198 
L 294.125775 -66.190114 
L 291.276578 -66.155069 
L 288.42738 -66.11958 
L 285.578182 -66.084562 
L 282.728984 -66.049319 
L 279.879786 -66.014626 
L 277.030588 -65.979003 
L 274.18139 -65.943883 
L 271.332193 -65.908768 
L 268.482995 -65.873533 
L 265.633797 -65.837809 
L 262.784599 -65.801871 
L 259.935401 -65.765347 
L 257.086203 -65.729708 
L 254.237005 -65.692737 
L 251.387807 -65.657154 
L 248.53861 -65.621437 
L 245.689412 -65.586241 
L 242.840214 -65.550706 
L 239.991016 -65.515047 
L 237.141818 -65.480116 
L 234.29262 -65.444597 
L 231.443422 -65.408853 
L 228.594225 -65.372605 
L 225.745027 -65.336658 
L 222.895829 -65.300476 
L 220.046631 -65.265218 
L 217.197433 -65.229178 
L 214.348235 -65.193481 
L 211.499037 -65.157863 
L 208.64984 -65.122145 
L 205.800642 -65.086729 
L 202.951444 -65.051957 
L 200.102246 -65.014989 
L 197.253048 -64.979197 
L 194.40385 -64.943443 
L 191.554652 -64.90907 
L 188.705455 -64.873283 
L 185.856257 -64.837256 
L 183.007059 -64.801287 
L 180.157861 -64.765523 
L 177.308663 -64.728633 
L 174.459465 -64.693223 
L 171.610267 -64.656682 
L 168.76107 -64.621155 
L 165.911872 -64.585003 
L 163.062674 -64.549312 
L 160.213476 -64.51335 
L 157.364278 -64.478479 
L 154.51508 -64.442157 
L 151.665882 -64.405789 
L 148.816684 -64.36941 
L 145.967487 -64.332927 
L 143.118289 -64.296468 
L 140.269091 -64.260687 
L 137.419893 -64.225044 
L 134.570695 -64.189477 
L 131.721497 -64.153287 
L 128.872299 -64.117434 
L 126.023102 -64.081584 
L 123.173904 -64.047869 
L 120.324706 -64.012436 
L 117.475508 -63.976743 
L 114.62631 -63.94113 
L 111.777112 -63.905426 
L 108.927914 -63.869654 
L 106.078717 -63.834289 
L 103.229519 -63.798721 
L 100.380321 -63.763383 
L 97.531123 -63.757047 
L 94.681925 -63.750653 
L 91.832727 -63.744545 
z
" style="stroke: #ffffff; stroke-opacity: 0.5"/>
    </defs>
    <g clip-path="url(#p0702a46f47)">
     <use xlink:href="#m844ca66686" x="0" y="345.6" style="fill: #4c72b0; fill-opacity: 0.5; stroke: #ffffff; stroke-opacity: 0.5"/>
    </g>
   </g>
   <g id="PolyCollection_2">
    <defs>
     <path id="mcb65c8b221" d="M 91.832727 -63.745183 
L 91.832727 -63.745273 
L 94.681925 -63.752087 
L 97.531123 -63.759194 
L 100.380321 -63.766016 
L 103.229519 -63.833341 
L 106.078717 -63.900567 
L 108.927914 -63.967801 
L 111.777112 -64.034576 
L 114.62631 -64.101778 
L 117.475508 -64.169712 
L 120.324706 -64.237282 
L 123.173904 -64.305401 
L 126.023102 -64.369787 
L 128.872299 -64.435422 
L 131.721497 -64.502088 
L 134.570695 -64.569236 
L 137.419893 -64.63549 
L 140.269091 -64.701564 
L 143.118289 -64.766682 
L 145.967487 -64.833138 
L 148.816684 -64.898395 
L 151.665882 -64.964856 
L 154.51508 -65.029308 
L 157.364278 -65.094771 
L 160.213476 -65.158108 
L 163.062674 -65.223548 
L 165.911872 -65.28892 
L 168.76107 -65.354528 
L 171.610267 -65.421641 
L 174.459465 -65.488762 
L 177.308663 -65.556512 
L 180.157861 -65.623413 
L 183.007059 -65.690689 
L 185.856257 -65.759545 
L 188.705455 -65.826559 
L 191.554652 -65.894276 
L 194.40385 -65.958615 
L 197.253048 -66.024846 
L 200.102246 -66.092121 
L 202.951444 -66.159686 
L 205.800642 -66.226641 
L 208.64984 -66.294196 
L 211.499037 -66.362036 
L 214.348235 -66.430109 
L 217.197433 -66.496831 
L 220.046631 -66.56291 
L 222.895829 -66.630939 
L 225.745027 -66.697297 
L 228.594225 -66.759892 
L 231.443422 -66.822949 
L 234.29262 -66.887627 
L 237.141818 -66.953107 
L 239.991016 -67.017425 
L 242.840214 -67.082518 
L 245.689412 -67.148025 
L 248.53861 -67.213912 
L 251.387807 -67.279828 
L 254.237005 -67.346265 
L 257.086203 -67.411432 
L 259.935401 -67.475632 
L 262.784599 -67.540196 
L 265.633797 -67.605183 
L 268.482995 -67.670744 
L 271.332193 -67.737088 
L 274.18139 -67.80269 
L 277.030588 -67.868423 
L 279.879786 -67.933967 
L 282.728984 -67.999125 
L 285.578182 -68.066081 
L 288.42738 -68.132158 
L 291.276578 -68.19757 
L 294.125775 -68.263336 
L 296.974973 -68.327537 
L 299.824171 -68.391451 
L 302.673369 -68.455406 
L 305.522567 -68.52146 
L 308.371765 -68.586018 
L 311.220963 -68.652479 
L 314.07016 -68.717255 
L 316.919358 -68.782211 
L 319.768556 -68.848811 
L 322.617754 -68.914285 
L 325.466952 -68.980012 
L 328.31615 -69.045794 
L 331.165348 -69.110169 
L 334.014545 -69.174644 
L 336.863743 -69.239316 
L 339.712941 -69.305103 
L 342.562139 -69.369412 
L 345.411337 -69.435168 
L 348.260535 -69.499375 
L 351.109733 -69.565036 
L 353.95893 -69.631387 
L 356.808128 -69.698017 
L 359.657326 -69.762829 
L 362.506524 -69.828269 
L 365.355722 -69.892897 
L 368.20492 -69.957173 
L 371.054118 -70.021797 
L 373.903316 -70.086727 
L 376.752513 -70.152347 
L 379.601711 -70.217905 
L 382.450909 -70.282948 
L 385.300107 -70.347441 
L 388.149305 -70.413868 
L 390.998503 -70.478588 
L 393.847701 -70.544358 
L 396.696898 -70.60942 
L 399.546096 -70.673653 
L 402.395294 -70.739229 
L 405.244492 -70.804563 
L 408.09369 -70.869785 
L 410.942888 -70.935533 
L 413.792086 -71.000718 
L 416.641283 -71.066589 
L 419.490481 -71.132534 
L 422.339679 -71.199147 
L 425.188877 -71.265302 
L 428.038075 -71.33044 
L 430.887273 -71.395673 
L 430.887273 -71.367267 
L 430.887273 -71.367267 
L 428.038075 -71.302214 
L 425.188877 -71.236843 
L 422.339679 -71.171218 
L 419.490481 -71.104731 
L 416.641283 -71.039868 
L 413.792086 -70.973882 
L 410.942888 -70.908004 
L 408.09369 -70.842601 
L 405.244492 -70.777533 
L 402.395294 -70.712463 
L 399.546096 -70.647193 
L 396.696898 -70.582369 
L 393.847701 -70.516289 
L 390.998503 -70.450508 
L 388.149305 -70.385048 
L 385.300107 -70.317846 
L 382.450909 -70.251667 
L 379.601711 -70.186345 
L 376.752513 -70.120799 
L 373.903316 -70.055546 
L 371.054118 -69.990059 
L 368.20492 -69.924782 
L 365.355722 -69.860385 
L 362.506524 -69.795404 
L 359.657326 -69.730303 
L 356.808128 -69.664259 
L 353.95893 -69.597846 
L 351.109733 -69.530806 
L 348.260535 -69.464033 
L 345.411337 -69.398256 
L 342.562139 -69.33297 
L 339.712941 -69.267352 
L 336.863743 -69.203289 
L 334.014545 -69.139892 
L 331.165348 -69.076419 
L 328.31615 -69.012392 
L 325.466952 -68.946261 
L 322.617754 -68.880698 
L 319.768556 -68.814943 
L 316.919358 -68.747863 
L 314.07016 -68.682142 
L 311.220963 -68.61572 
L 308.371765 -68.549744 
L 305.522567 -68.484767 
L 302.673369 -68.419564 
L 299.824171 -68.354592 
L 296.974973 -68.29039 
L 294.125775 -68.226709 
L 291.276578 -68.161613 
L 288.42738 -68.095943 
L 285.578182 -68.02978 
L 282.728984 -67.963744 
L 279.879786 -67.899246 
L 277.030588 -67.834434 
L 274.18139 -67.768229 
L 271.332193 -67.702779 
L 268.482995 -67.636926 
L 265.633797 -67.571989 
L 262.784599 -67.507441 
L 259.935401 -67.443182 
L 257.086203 -67.377476 
L 254.237005 -67.312256 
L 251.387807 -67.247203 
L 248.53861 -67.180258 
L 245.689412 -67.115611 
L 242.840214 -67.049906 
L 239.991016 -66.983983 
L 237.141818 -66.920096 
L 234.29262 -66.854034 
L 231.443422 -66.788953 
L 228.594225 -66.724553 
L 225.745027 -66.660485 
L 222.895829 -66.595999 
L 220.046631 -66.529507 
L 217.197433 -66.464418 
L 214.348235 -66.399036 
L 211.499037 -66.332925 
L 208.64984 -66.267452 
L 205.800642 -66.202878 
L 202.951444 -66.138676 
L 200.102246 -66.074257 
L 197.253048 -66.008284 
L 194.40385 -65.943475 
L 191.554652 -65.880621 
L 188.705455 -65.815297 
L 185.856257 -65.749738 
L 183.007059 -65.682753 
L 180.157861 -65.617414 
L 177.308663 -65.551427 
L 174.459465 -65.485725 
L 171.610267 -65.41907 
L 168.76107 -65.352692 
L 165.911872 -65.287195 
L 163.062674 -65.222075 
L 160.213476 -65.156651 
L 157.364278 -65.094021 
L 154.51508 -65.028311 
L 151.665882 -64.961212 
L 148.816684 -64.893405 
L 145.967487 -64.82557 
L 143.118289 -64.75871 
L 140.269091 -64.691757 
L 137.419893 -64.626195 
L 134.570695 -64.560152 
L 131.721497 -64.493494 
L 128.872299 -64.427219 
L 126.023102 -64.361758 
L 123.173904 -64.297932 
L 120.324706 -64.231148 
L 117.475508 -64.163579 
L 114.62631 -64.098151 
L 111.777112 -64.030251 
L 108.927914 -63.963897 
L 106.078717 -63.897976 
L 103.229519 -63.832031 
L 100.380321 -63.765473 
L 97.531123 -63.758816 
L 94.681925 -63.751995 
L 91.832727 -63.745183 
z
" style="stroke: #ffffff; stroke-opacity: 0.5"/>
    </defs>
    <g clip-path="url(#p0702a46f47)">
     <use xlink:href="#mcb65c8b221" x="0" y="345.6" style="fill: #dd8452; fill-opacity: 0.5; stroke: #ffffff; stroke-opacity: 0.5"/>
    </g>
   </g>
   <g id="PolyCollection_3">
    <defs>
     <path id="mc4d7e383de" d="M 91.832727 -63.745564 
L 91.832727 -63.745662 
L 94.681925 -63.752802 
L 97.531123 -63.760494 
L 100.380321 -63.76767 
L 103.229519 -63.881788 
L 106.078717 -63.995228 
L 108.927914 -64.110821 
L 111.777112 -64.22362 
L 114.62631 -64.33744 
L 117.475508 -64.453223 
L 120.324706 -64.569018 
L 123.173904 -64.68176 
L 126.023102 -64.789702 
L 128.872299 -64.90175 
L 131.721497 -65.012661 
L 134.570695 -65.123432 
L 137.419893 -65.234744 
L 140.269091 -65.345925 
L 143.118289 -65.458467 
L 145.967487 -65.571645 
L 148.816684 -65.683818 
L 151.665882 -65.793461 
L 154.51508 -65.904975 
L 157.364278 -66.016288 
L 160.213476 -66.127087 
L 163.062674 -66.237971 
L 165.911872 -66.350759 
L 168.76107 -66.460366 
L 171.610267 -66.572633 
L 174.459465 -66.685273 
L 177.308663 -66.799641 
L 180.157861 -66.911735 
L 183.007059 -67.02423 
L 185.856257 -67.137302 
L 188.705455 -67.248599 
L 191.554652 -67.361373 
L 194.40385 -67.471156 
L 197.253048 -67.586096 
L 200.102246 -67.69636 
L 202.951444 -67.809345 
L 205.800642 -67.92074 
L 208.64984 -68.032143 
L 211.499037 -68.144294 
L 214.348235 -68.254896 
L 217.197433 -68.366279 
L 220.046631 -68.477416 
L 222.895829 -68.589754 
L 225.745027 -68.703318 
L 228.594225 -68.814813 
L 231.443422 -68.926616 
L 234.29262 -69.036764 
L 237.141818 -69.150203 
L 239.991016 -69.262108 
L 242.840214 -69.374335 
L 245.689412 -69.485367 
L 248.53861 -69.59724 
L 251.387807 -69.708665 
L 254.237005 -69.820462 
L 257.086203 -69.932269 
L 259.935401 -70.045604 
L 262.784599 -70.156247 
L 265.633797 -70.269228 
L 268.482995 -70.3798 
L 271.332193 -70.49149 
L 274.18139 -70.604688 
L 277.030588 -70.716879 
L 279.879786 -70.827022 
L 282.728984 -70.937426 
L 285.578182 -71.050906 
L 288.42738 -71.163811 
L 291.276578 -71.275871 
L 294.125775 -71.388728 
L 296.974973 -71.498875 
L 299.824171 -71.609295 
L 302.673369 -71.720578 
L 305.522567 -71.83248 
L 308.371765 -71.946158 
L 311.220963 -72.057805 
L 314.07016 -72.16915 
L 316.919358 -72.281572 
L 319.768556 -72.393989 
L 322.617754 -72.507122 
L 325.466952 -72.61754 
L 328.31615 -72.729757 
L 331.165348 -72.842622 
L 334.014545 -72.955342 
L 336.863743 -73.067997 
L 339.712941 -73.181016 
L 342.562139 -73.293036 
L 345.411337 -73.40387 
L 348.260535 -73.515313 
L 351.109733 -73.6261 
L 353.95893 -73.735353 
L 356.808128 -73.847689 
L 359.657326 -73.957386 
L 362.506524 -74.068387 
L 365.355722 -74.180728 
L 368.20492 -74.293584 
L 371.054118 -74.407354 
L 373.903316 -74.518374 
L 376.752513 -74.631132 
L 379.601711 -74.742724 
L 382.450909 -74.8543 
L 385.300107 -74.964538 
L 388.149305 -75.076053 
L 390.998503 -75.18949 
L 393.847701 -75.30169 
L 396.696898 -75.414246 
L 399.546096 -75.525962 
L 402.395294 -75.638836 
L 405.244492 -75.750311 
L 408.09369 -75.861889 
L 410.942888 -75.975106 
L 413.792086 -76.088044 
L 416.641283 -76.197739 
L 419.490481 -76.310746 
L 422.339679 -76.42268 
L 425.188877 -76.537145 
L 428.038075 -76.650105 
L 430.887273 -76.760834 
L 430.887273 -76.680027 
L 430.887273 -76.680027 
L 428.038075 -76.568223 
L 425.188877 -76.457757 
L 422.339679 -76.34449 
L 419.490481 -76.2351 
L 416.641283 -76.123194 
L 413.792086 -76.013363 
L 410.942888 -75.90215 
L 408.09369 -75.788289 
L 405.244492 -75.676515 
L 402.395294 -75.564625 
L 399.546096 -75.452654 
L 396.696898 -75.340307 
L 393.847701 -75.228698 
L 390.998503 -75.117845 
L 388.149305 -75.005838 
L 385.300107 -74.893897 
L 382.450909 -74.780866 
L 379.601711 -74.669168 
L 376.752513 -74.559542 
L 373.903316 -74.445897 
L 371.054118 -74.332779 
L 368.20492 -74.221652 
L 365.355722 -74.111735 
L 362.506524 -73.998897 
L 359.657326 -73.888529 
L 356.808128 -73.775217 
L 353.95893 -73.662261 
L 351.109733 -73.550668 
L 348.260535 -73.438508 
L 345.411337 -73.326418 
L 342.562139 -73.214577 
L 339.712941 -73.101496 
L 336.863743 -72.988476 
L 334.014545 -72.875483 
L 331.165348 -72.764466 
L 328.31615 -72.652558 
L 325.466952 -72.539905 
L 322.617754 -72.429193 
L 319.768556 -72.315746 
L 316.919358 -72.205073 
L 314.07016 -72.093327 
L 311.220963 -71.982318 
L 308.371765 -71.868551 
L 305.522567 -71.756064 
L 302.673369 -71.643943 
L 299.824171 -71.531829 
L 296.974973 -71.419936 
L 294.125775 -71.308608 
L 291.276578 -71.19735 
L 288.42738 -71.085747 
L 285.578182 -70.972155 
L 282.728984 -70.860806 
L 279.879786 -70.749564 
L 277.030588 -70.638841 
L 274.18139 -70.529513 
L 271.332193 -70.416749 
L 268.482995 -70.305199 
L 265.633797 -70.192948 
L 262.784599 -70.082237 
L 259.935401 -69.972496 
L 257.086203 -69.860391 
L 254.237005 -69.750522 
L 251.387807 -69.638257 
L 248.53861 -69.528002 
L 245.689412 -69.416782 
L 242.840214 -69.306256 
L 239.991016 -69.195874 
L 237.141818 -69.084337 
L 234.29262 -68.974106 
L 231.443422 -68.863228 
L 228.594225 -68.753054 
L 225.745027 -68.642938 
L 222.895829 -68.533146 
L 220.046631 -68.419842 
L 217.197433 -68.310175 
L 214.348235 -68.200787 
L 211.499037 -68.09055 
L 208.64984 -67.978823 
L 205.800642 -67.867787 
L 202.951444 -67.758066 
L 200.102246 -67.646672 
L 197.253048 -67.536862 
L 194.40385 -67.425794 
L 191.554652 -67.317884 
L 188.705455 -67.206193 
L 185.856257 -67.095646 
L 183.007059 -66.984207 
L 180.157861 -66.872486 
L 177.308663 -66.762719 
L 174.459465 -66.652221 
L 171.610267 -66.54202 
L 168.76107 -66.433386 
L 165.911872 -66.323681 
L 163.062674 -66.211789 
L 160.213476 -66.101457 
L 157.364278 -65.991638 
L 154.51508 -65.880833 
L 151.665882 -65.772215 
L 148.816684 -65.661379 
L 145.967487 -65.551549 
L 143.118289 -65.441562 
L 140.269091 -65.331736 
L 137.419893 -65.22262 
L 134.570695 -65.11279 
L 131.721497 -65.001202 
L 128.872299 -64.89131 
L 126.023102 -64.779349 
L 123.173904 -64.669533 
L 120.324706 -64.557315 
L 117.475508 -64.443699 
L 114.62631 -64.331039 
L 111.777112 -64.218255 
L 108.927914 -64.106201 
L 106.078717 -63.994775 
L 103.229519 -63.880038 
L 100.380321 -63.767436 
L 97.531123 -63.76011 
L 94.681925 -63.75273 
L 91.832727 -63.745564 
z
" style="stroke: #ffffff; stroke-opacity: 0.5"/>
    </defs>
    <g clip-path="url(#p0702a46f47)">
     <use xlink:href="#mc4d7e383de" x="0" y="345.6" style="fill: #55a868; fill-opacity: 0.5; stroke: #ffffff; stroke-opacity: 0.5"/>
    </g>
   </g>
   <g id="PolyCollection_4">
    <defs>
     <path id="mab36b5cd4b" d="M 91.832727 -63.746689 
L 91.832727 -63.746777 
L 94.681925 -63.755174 
L 97.531123 -63.763809 
L 100.380321 -63.772326 
L 103.229519 -63.992891 
L 106.078717 -64.218846 
L 108.927914 -64.44324 
L 111.777112 -64.670784 
L 114.62631 -64.895059 
L 117.475508 -65.122469 
L 120.324706 -65.352343 
L 123.173904 -65.581206 
L 126.023102 -65.798255 
L 128.872299 -66.019954 
L 131.721497 -66.242311 
L 134.570695 -66.467376 
L 137.419893 -66.694164 
L 140.269091 -66.920356 
L 143.118289 -67.14075 
L 145.967487 -67.358196 
L 148.816684 -67.575728 
L 151.665882 -67.7946 
L 154.51508 -68.013734 
L 157.364278 -68.229604 
L 160.213476 -68.440116 
L 163.062674 -68.654798 
L 165.911872 -68.869332 
L 168.76107 -69.0844 
L 171.610267 -69.300593 
L 174.459465 -69.516277 
L 177.308663 -69.732871 
L 180.157861 -69.950316 
L 183.007059 -70.167548 
L 185.856257 -70.384635 
L 188.705455 -70.602198 
L 191.554652 -70.82449 
L 194.40385 -71.03643 
L 197.253048 -71.250234 
L 200.102246 -71.465875 
L 202.951444 -71.684712 
L 205.800642 -71.901444 
L 208.64984 -72.119134 
L 211.499037 -72.336211 
L 214.348235 -72.554025 
L 217.197433 -72.77346 
L 220.046631 -72.993824 
L 222.895829 -73.215925 
L 225.745027 -73.43617 
L 228.594225 -73.647182 
L 231.443422 -73.86334 
L 234.29262 -74.079844 
L 237.141818 -74.297062 
L 239.991016 -74.514034 
L 242.840214 -74.732408 
L 245.689412 -74.949541 
L 248.53861 -75.167818 
L 251.387807 -75.38797 
L 254.237005 -75.6095 
L 257.086203 -75.828962 
L 259.935401 -76.050302 
L 262.784599 -76.261489 
L 265.633797 -76.475609 
L 268.482995 -76.69083 
L 271.332193 -76.907737 
L 274.18139 -77.126434 
L 277.030588 -77.344924 
L 279.879786 -77.564344 
L 282.728984 -77.785462 
L 285.578182 -78.004538 
L 288.42738 -78.224955 
L 291.276578 -78.444663 
L 294.125775 -78.665324 
L 296.974973 -78.876896 
L 299.824171 -79.091475 
L 302.673369 -79.307168 
L 305.522567 -79.52535 
L 308.371765 -79.744966 
L 311.220963 -79.96478 
L 314.07016 -80.185327 
L 316.919358 -80.405891 
L 319.768556 -80.621786 
L 322.617754 -80.842398 
L 325.466952 -81.063247 
L 328.31615 -81.284582 
L 331.165348 -81.497057 
L 334.014545 -81.712354 
L 336.863743 -81.927828 
L 339.712941 -82.146991 
L 342.562139 -82.366479 
L 345.411337 -82.585082 
L 348.260535 -82.805379 
L 351.109733 -83.02559 
L 353.95893 -83.244383 
L 356.808128 -83.462048 
L 359.657326 -83.683081 
L 362.506524 -83.90419 
L 365.355722 -84.116144 
L 368.20492 -84.331386 
L 371.054118 -84.548471 
L 373.903316 -84.76604 
L 376.752513 -84.985962 
L 379.601711 -85.206248 
L 382.450909 -85.426198 
L 385.300107 -85.646115 
L 388.149305 -85.865433 
L 390.998503 -86.084903 
L 393.847701 -86.304331 
L 396.696898 -86.525002 
L 399.546096 -86.739222 
L 402.395294 -86.955802 
L 405.244492 -87.172813 
L 408.09369 -87.391506 
L 410.942888 -87.608672 
L 413.792086 -87.827972 
L 416.641283 -88.047397 
L 419.490481 -88.26681 
L 422.339679 -88.484786 
L 425.188877 -88.707302 
L 428.038075 -88.927732 
L 430.887273 -89.148251 
L 430.887273 -89.058979 
L 430.887273 -89.058979 
L 428.038075 -88.838538 
L 425.188877 -88.618391 
L 422.339679 -88.398724 
L 419.490481 -88.178995 
L 416.641283 -87.957847 
L 413.792086 -87.739178 
L 410.942888 -87.519631 
L 408.09369 -87.302658 
L 405.244492 -87.085949 
L 402.395294 -86.868881 
L 399.546096 -86.654835 
L 396.696898 -86.443062 
L 393.847701 -86.22208 
L 390.998503 -86.004655 
L 388.149305 -85.784519 
L 385.300107 -85.565982 
L 382.450909 -85.346855 
L 379.601711 -85.128878 
L 376.752513 -84.910708 
L 373.903316 -84.692678 
L 371.054118 -84.47839 
L 368.20492 -84.263571 
L 365.355722 -84.047885 
L 362.506524 -83.835159 
L 359.657326 -83.615064 
L 356.808128 -83.395355 
L 353.95893 -83.176193 
L 351.109733 -82.95661 
L 348.260535 -82.73692 
L 345.411337 -82.51706 
L 342.562139 -82.299092 
L 339.712941 -82.080115 
L 336.863743 -81.863666 
L 334.014545 -81.647257 
L 331.165348 -81.433617 
L 328.31615 -81.221456 
L 325.466952 -80.99834 
L 322.617754 -80.776159 
L 319.768556 -80.555393 
L 316.919358 -80.336944 
L 314.07016 -80.116907 
L 311.220963 -79.898032 
L 308.371765 -79.678905 
L 305.522567 -79.462383 
L 302.673369 -79.244955 
L 299.824171 -79.029437 
L 296.974973 -78.814938 
L 294.125775 -78.6044 
L 291.276578 -78.384154 
L 288.42738 -78.164045 
L 285.578182 -77.944502 
L 282.728984 -77.727184 
L 279.879786 -77.509926 
L 277.030588 -77.29249 
L 274.18139 -77.072226 
L 271.332193 -76.853653 
L 268.482995 -76.636367 
L 265.633797 -76.419359 
L 262.784599 -76.202678 
L 259.935401 -75.992136 
L 257.086203 -75.771934 
L 254.237005 -75.552952 
L 251.387807 -75.334129 
L 248.53861 -75.114122 
L 245.689412 -74.894355 
L 242.840214 -74.673254 
L 239.991016 -74.454191 
L 237.141818 -74.238838 
L 234.29262 -74.021554 
L 231.443422 -73.803355 
L 228.594225 -73.585886 
L 225.745027 -73.371793 
L 222.895829 -73.153079 
L 220.046631 -72.935331 
L 217.197433 -72.717195 
L 214.348235 -72.498679 
L 211.499037 -72.279915 
L 208.64984 -72.064681 
L 205.800642 -71.845648 
L 202.951444 -71.627497 
L 200.102246 -71.411671 
L 197.253048 -71.193224 
L 194.40385 -70.976979 
L 191.554652 -70.763456 
L 188.705455 -70.541644 
L 185.856257 -70.322083 
L 183.007059 -70.100752 
L 180.157861 -69.882636 
L 177.308663 -69.662825 
L 174.459465 -69.443552 
L 171.610267 -69.222411 
L 168.76107 -69.006971 
L 165.911872 -68.789313 
L 163.062674 -68.57423 
L 160.213476 -68.359359 
L 157.364278 -68.149487 
L 154.51508 -67.928958 
L 151.665882 -67.710063 
L 148.816684 -67.489231 
L 145.967487 -67.270548 
L 143.118289 -67.05023 
L 140.269091 -66.831885 
L 137.419893 -66.612036 
L 134.570695 -66.39624 
L 131.721497 -66.178678 
L 128.872299 -65.963819 
L 126.023102 -65.751148 
L 123.173904 -65.539231 
L 120.324706 -65.319362 
L 117.475508 -65.101198 
L 114.62631 -64.884352 
L 111.777112 -64.666625 
L 108.927914 -64.440041 
L 106.078717 -64.215174 
L 103.229519 -63.990803 
L 100.380321 -63.772257 
L 97.531123 -63.763616 
L 94.681925 -63.755113 
L 91.832727 -63.746689 
z
" style="stroke: #ffffff; stroke-opacity: 0.5"/>
    </defs>
    <g clip-path="url(#p0702a46f47)">
     <use xlink:href="#mab36b5cd4b" x="0" y="345.6" style="fill: #c44e52; fill-opacity: 0.5; stroke: #ffffff; stroke-opacity: 0.5"/>
    </g>
   </g>
   <g id="PolyCollection_5">
    <defs>
     <path id="me6ad75dedd" d="M 91.832727 -63.75447 
L 91.832727 -63.754876 
L 94.681925 -63.771177 
L 97.531123 -63.787864 
L 100.380321 -63.804256 
L 103.229519 -66.004746 
L 106.078717 -68.143756 
L 108.927914 -70.281647 
L 111.777112 -72.474255 
L 114.62631 -74.638479 
L 117.475508 -76.854034 
L 120.324706 -79.089698 
L 123.173904 -81.339851 
L 126.023102 -83.424159 
L 128.872299 -85.540529 
L 131.721497 -87.667733 
L 134.570695 -89.824112 
L 137.419893 -91.989879 
L 140.269091 -94.201032 
L 143.118289 -96.408154 
L 145.967487 -98.645982 
L 148.816684 -100.891107 
L 151.665882 -103.156169 
L 154.51508 -105.428659 
L 157.364278 -107.733721 
L 160.213476 -109.82807 
L 163.062674 -111.949733 
L 165.911872 -114.083167 
L 168.76107 -116.241488 
L 171.610267 -118.412671 
L 174.459465 -120.650448 
L 177.308663 -122.869576 
L 180.157861 -125.11171 
L 183.007059 -127.336515 
L 185.856257 -129.59958 
L 188.705455 -131.864 
L 191.554652 -134.167419 
L 194.40385 -136.27104 
L 197.253048 -138.390197 
L 200.102246 -140.518485 
L 202.951444 -142.679338 
L 205.800642 -144.851006 
L 208.64984 -147.03405 
L 211.499037 -149.249282 
L 214.348235 -151.488678 
L 217.197433 -153.735614 
L 220.046631 -156.006438 
L 222.895829 -158.272002 
L 225.745027 -160.568922 
L 228.594225 -162.664185 
L 231.443422 -164.797353 
L 234.29262 -166.939043 
L 237.141818 -169.109306 
L 239.991016 -171.282675 
L 242.840214 -173.485451 
L 245.689412 -175.691093 
L 248.53861 -177.931321 
L 251.387807 -180.168712 
L 254.237005 -182.432463 
L 257.086203 -184.700268 
L 259.935401 -187.019969 
L 262.784599 -189.111842 
L 265.633797 -191.23331 
L 268.482995 -193.371165 
L 271.332193 -195.554787 
L 274.18139 -197.748317 
L 277.030588 -199.95063 
L 279.879786 -202.162907 
L 282.728984 -204.392439 
L 285.578182 -206.644407 
L 288.42738 -208.910644 
L 291.276578 -211.187596 
L 294.125775 -213.484984 
L 296.974973 -215.578046 
L 299.824171 -217.698018 
L 302.673369 -219.856362 
L 305.522567 -222.041199 
L 308.371765 -224.228437 
L 311.220963 -226.434927 
L 314.07016 -228.662021 
L 316.919358 -230.902829 
L 319.768556 -233.144206 
L 322.617754 -235.419094 
L 325.466952 -237.729869 
L 328.31615 -240.057718 
L 331.165348 -242.173532 
L 334.014545 -244.306889 
L 336.863743 -246.450363 
L 339.712941 -248.615274 
L 342.562139 -250.793606 
L 345.411337 -252.993761 
L 348.260535 -255.204469 
L 351.109733 -257.457369 
L 353.95893 -259.739957 
L 356.808128 -262.020927 
L 359.657326 -264.319673 
L 362.506524 -266.65386 
L 365.355722 -268.775394 
L 368.20492 -270.91851 
L 371.054118 -273.073624 
L 373.903316 -275.261692 
L 376.752513 -277.463303 
L 379.601711 -279.698381 
L 382.450909 -281.939955 
L 385.300107 -284.204065 
L 388.149305 -286.469884 
L 390.998503 -288.745679 
L 393.847701 -291.029251 
L 396.696898 -293.344684 
L 399.546096 -295.445621 
L 402.395294 -297.576201 
L 405.244492 -299.716825 
L 408.09369 -301.883737 
L 410.942888 -304.060458 
L 413.792086 -306.266325 
L 416.641283 -308.482881 
L 419.490481 -310.731866 
L 422.339679 -312.969844 
L 425.188877 -315.235169 
L 428.038075 -317.50923 
L 430.887273 -319.835455 
L 430.887273 -319.357381 
L 430.887273 -319.357381 
L 428.038075 -317.037201 
L 425.188877 -314.753387 
L 422.339679 -312.480347 
L 419.490481 -310.233076 
L 416.641283 -307.997589 
L 413.792086 -305.782884 
L 410.942888 -303.577333 
L 408.09369 -301.380754 
L 405.244492 -299.199396 
L 402.395294 -297.045996 
L 399.546096 -294.917018 
L 396.696898 -292.811521 
L 393.847701 -290.481152 
L 390.998503 -288.184083 
L 388.149305 -285.911763 
L 385.300107 -283.671345 
L 382.450909 -281.42875 
L 379.601711 -279.221211 
L 376.752513 -277.020023 
L 373.903316 -274.855053 
L 371.054118 -272.686183 
L 368.20492 -270.55182 
L 365.355722 -268.421624 
L 362.506524 -266.315611 
L 359.657326 -264.003915 
L 356.808128 -261.730703 
L 353.95893 -259.46978 
L 351.109733 -257.213576 
L 348.260535 -254.978797 
L 345.411337 -252.772228 
L 342.562139 -250.569784 
L 339.712941 -248.393666 
L 336.863743 -246.232952 
L 334.014545 -244.098284 
L 331.165348 -241.972906 
L 328.31615 -239.885759 
L 325.466952 -237.581851 
L 322.617754 -235.311532 
L 319.768556 -233.056674 
L 316.919358 -230.81671 
L 314.07016 -228.584776 
L 311.220963 -226.374501 
L 308.371765 -224.17687 
L 305.522567 -221.999508 
L 302.673369 -219.82782 
L 299.824171 -217.691117 
L 296.974973 -215.555803 
L 294.125775 -213.457776 
L 291.276578 -211.136912 
L 288.42738 -208.862807 
L 285.578182 -206.60163 
L 282.728984 -204.361753 
L 279.879786 -202.130418 
L 277.030588 -199.926184 
L 274.18139 -197.710854 
L 271.332193 -195.535811 
L 268.482995 -193.369117 
L 265.633797 -191.230081 
L 262.784599 -189.10214 
L 259.935401 -187.000316 
L 257.086203 -184.69746 
L 254.237005 -182.375033 
L 251.387807 -180.109949 
L 248.53861 -177.892126 
L 245.689412 -175.675794 
L 242.840214 -173.474112 
L 239.991016 -171.258324 
L 237.141818 -169.061657 
L 234.29262 -166.868017 
L 231.443422 -164.730861 
L 228.594225 -162.602962 
L 225.745027 -160.510288 
L 222.895829 -158.197973 
L 220.046631 -155.930303 
L 217.197433 -153.665475 
L 214.348235 -151.414866 
L 211.499037 -149.177665 
L 208.64984 -146.974035 
L 205.800642 -144.783817 
L 202.951444 -142.620444 
L 200.102246 -140.466519 
L 197.253048 -138.336317 
L 194.40385 -136.219377 
L 191.554652 -134.110458 
L 188.705455 -131.799405 
L 185.856257 -129.530394 
L 183.007059 -127.286515 
L 180.157861 -125.048704 
L 177.308663 -122.815449 
L 174.459465 -120.614422 
L 171.610267 -118.40747 
L 168.76107 -116.231057 
L 165.911872 -114.080195 
L 163.062674 -111.94573 
L 160.213476 -109.824825 
L 157.364278 -107.715222 
L 154.51508 -105.38902 
L 151.665882 -103.090313 
L 148.816684 -100.830018 
L 145.967487 -98.607872 
L 143.118289 -96.381227 
L 140.269091 -94.172345 
L 137.419893 -91.986528 
L 134.570695 -89.818722 
L 131.721497 -87.651884 
L 128.872299 -85.51907 
L 126.023102 -83.400637 
L 123.173904 -81.307026 
L 120.324706 -79.040583 
L 117.475508 -76.808804 
L 114.62631 -74.573158 
L 111.777112 -72.390182 
L 108.927914 -70.219523 
L 106.078717 -68.071767 
L 103.229519 -65.94089 
L 100.380321 -63.804083 
L 97.531123 -63.787617 
L 94.681925 -63.770846 
L 91.832727 -63.75447 
z
" style="stroke: #ffffff; stroke-opacity: 0.5"/>
    </defs>
    <g clip-path="url(#p0702a46f47)">
     <use xlink:href="#me6ad75dedd" x="0" y="345.6" style="fill: #8172b3; fill-opacity: 0.5; stroke: #ffffff; stroke-opacity: 0.5"/>
    </g>
   </g>
   <g id="line2d_15">
    <path d="M 91.832727 281.855298 
L 94.681925 281.849064 
L 97.531123 281.842551 
L 100.380321 281.836224 
L 103.229519 281.800567 
L 106.078717 281.764813 
L 108.927914 281.729388 
L 111.777112 281.693808 
L 114.62631 281.658121 
L 117.475508 281.622567 
L 120.324706 281.586648 
L 123.173904 281.551342 
L 126.023102 281.517006 
L 128.872299 281.48124 
L 131.721497 281.445144 
L 134.570695 281.408856 
L 137.419893 281.373231 
L 140.269091 281.337572 
L 143.118289 281.301808 
L 145.967487 281.265701 
L 148.816684 281.229133 
L 151.665882 281.192866 
L 154.51508 281.157154 
L 157.364278 281.121472 
L 160.213476 281.086502 
L 163.062674 281.050644 
L 165.911872 281.014813 
L 168.76107 280.978694 
L 171.610267 280.943047 
L 174.459465 280.906417 
L 177.308663 280.870725 
L 180.157861 280.834461 
L 183.007059 280.798349 
L 185.856257 280.76187 
L 188.705455 280.725405 
L 191.554652 280.689502 
L 194.40385 280.65497 
L 197.253048 280.61894 
L 200.102246 280.58264 
L 202.951444 280.545696 
L 205.800642 280.510491 
L 208.64984 280.474862 
L 211.499037 280.438847 
L 214.348235 280.402734 
L 217.197433 280.366785 
L 220.046631 280.330913 
L 222.895829 280.295439 
L 225.745027 280.259376 
L 228.594225 280.223161 
L 231.443422 280.18716 
L 234.29262 280.151643 
L 237.141818 280.116228 
L 239.991016 280.081111 
L 242.840214 280.045362 
L 245.689412 280.009617 
L 248.53861 279.974169 
L 251.387807 279.938378 
L 254.237005 279.902866 
L 257.086203 279.865818 
L 259.935401 279.830149 
L 262.784599 279.794169 
L 265.633797 279.758632 
L 268.482995 279.722964 
L 271.332193 279.687376 
L 274.18139 279.652195 
L 277.030588 279.616808 
L 279.879786 279.581095 
L 282.728984 279.545647 
L 285.578182 279.510118 
L 288.42738 279.4747 
L 291.276578 279.438427 
L 294.125775 279.40294 
L 296.974973 279.367356 
L 299.824171 279.331944 
L 302.673369 279.296464 
L 305.522567 279.260791 
L 308.371765 279.225903 
L 311.220963 279.190567 
L 314.07016 279.155556 
L 316.919358 279.11993 
L 319.768556 279.084444 
L 322.617754 279.049434 
L 325.466952 279.013208 
L 328.31615 278.977752 
L 331.165348 278.942715 
L 334.014545 278.907891 
L 336.863743 278.872565 
L 339.712941 278.836823 
L 342.562139 278.801771 
L 345.411337 278.766219 
L 348.260535 278.730927 
L 351.109733 278.695638 
L 353.95893 278.660536 
L 356.808128 278.625458 
L 359.657326 278.589662 
L 362.506524 278.55431 
L 365.355722 278.518647 
L 368.20492 278.483356 
L 371.054118 278.44834 
L 373.903316 278.413424 
L 376.752513 278.378067 
L 379.601711 278.342787 
L 382.450909 278.306855 
L 385.300107 278.271451 
L 388.149305 278.236305 
L 390.998503 278.201554 
L 393.847701 278.165604 
L 396.696898 278.129959 
L 399.546096 278.094546 
L 402.395294 278.059247 
L 405.244492 278.024151 
L 408.09369 277.988615 
L 410.942888 277.953377 
L 413.792086 277.917954 
L 416.641283 277.882642 
L 419.490481 277.847295 
L 422.339679 277.81202 
L 425.188877 277.77636 
L 428.038075 277.739989 
L 430.887273 277.704151 
" clip-path="url(#p0702a46f47)" style="fill: none; stroke: #4c72b0; stroke-width: 3; stroke-linecap: round"/>
   </g>
   <g id="line2d_16">
    <path d="M 91.832727 281.854772 
L 94.681925 281.847959 
L 97.531123 281.840995 
L 100.380321 281.834256 
L 103.229519 281.767314 
L 106.078717 281.700728 
L 108.927914 281.634151 
L 111.777112 281.567586 
L 114.62631 281.500035 
L 117.475508 281.433354 
L 120.324706 281.365785 
L 123.173904 281.298334 
L 126.023102 281.234227 
L 128.872299 281.168679 
L 131.721497 281.102209 
L 134.570695 281.035306 
L 137.419893 280.969158 
L 140.269091 280.90334 
L 143.118289 280.837304 
L 145.967487 280.770646 
L 148.816684 280.7041 
L 151.665882 280.636966 
L 154.51508 280.57119 
L 157.364278 280.505604 
L 160.213476 280.44262 
L 163.062674 280.377188 
L 165.911872 280.311943 
L 168.76107 280.24639 
L 171.610267 280.179644 
L 174.459465 280.112756 
L 177.308663 280.046031 
L 180.157861 279.979587 
L 183.007059 279.913279 
L 185.856257 279.845359 
L 188.705455 279.779072 
L 191.554652 279.712552 
L 194.40385 279.648955 
L 197.253048 279.583435 
L 200.102246 279.516811 
L 202.951444 279.450819 
L 205.800642 279.38524 
L 208.64984 279.319176 
L 211.499037 279.25252 
L 214.348235 279.185427 
L 217.197433 279.119375 
L 220.046631 279.053792 
L 222.895829 278.986531 
L 225.745027 278.921109 
L 228.594225 278.857777 
L 231.443422 278.794049 
L 234.29262 278.72917 
L 237.141818 278.663398 
L 239.991016 278.599296 
L 242.840214 278.533788 
L 245.689412 278.468182 
L 248.53861 278.402915 
L 251.387807 278.336485 
L 254.237005 278.270739 
L 257.086203 278.205546 
L 259.935401 278.140593 
L 262.784599 278.076181 
L 265.633797 278.011414 
L 268.482995 277.946165 
L 271.332193 277.880067 
L 274.18139 277.814541 
L 277.030588 277.748571 
L 279.879786 277.683394 
L 282.728984 277.618565 
L 285.578182 277.55207 
L 288.42738 277.48595 
L 291.276578 277.420408 
L 294.125775 277.354978 
L 296.974973 277.291036 
L 299.824171 277.226978 
L 302.673369 277.162515 
L 305.522567 277.096886 
L 308.371765 277.032119 
L 311.220963 276.9659 
L 314.07016 276.900302 
L 316.919358 276.834963 
L 319.768556 276.768123 
L 322.617754 276.702508 
L 325.466952 276.636864 
L 328.31615 276.570907 
L 331.165348 276.506706 
L 334.014545 276.442732 
L 336.863743 276.378698 
L 339.712941 276.313773 
L 342.562139 276.248809 
L 345.411337 276.183288 
L 348.260535 276.118296 
L 351.109733 276.052079 
L 353.95893 275.985384 
L 356.808128 275.918862 
L 359.657326 275.853434 
L 362.506524 275.788163 
L 365.355722 275.723359 
L 368.20492 275.659023 
L 371.054118 275.594072 
L 373.903316 275.528863 
L 376.752513 275.463427 
L 379.601711 275.397875 
L 382.450909 275.332692 
L 385.300107 275.267356 
L 388.149305 275.200542 
L 390.998503 275.135452 
L 393.847701 275.069676 
L 396.696898 275.004105 
L 399.546096 274.939577 
L 402.395294 274.874154 
L 405.244492 274.808952 
L 408.09369 274.743807 
L 410.942888 274.678232 
L 413.792086 274.6127 
L 416.641283 274.546771 
L 419.490481 274.481368 
L 422.339679 274.414818 
L 425.188877 274.348928 
L 428.038075 274.283673 
L 430.887273 274.21853 
" clip-path="url(#p0702a46f47)" style="fill: none; stroke: #dd8452; stroke-width: 3; stroke-linecap: round"/>
   </g>
   <g id="line2d_17">
    <path d="M 91.832727 281.854387 
L 94.681925 281.847234 
L 97.531123 281.839698 
L 100.380321 281.832447 
L 103.229519 281.719087 
L 106.078717 281.604999 
L 108.927914 281.491489 
L 111.777112 281.379062 
L 114.62631 281.26576 
L 117.475508 281.151539 
L 120.324706 281.036834 
L 123.173904 280.924354 
L 126.023102 280.815475 
L 128.872299 280.70347 
L 131.721497 280.593068 
L 134.570695 280.481889 
L 137.419893 280.371318 
L 140.269091 280.261169 
L 143.118289 280.149985 
L 145.967487 280.038403 
L 148.816684 279.927402 
L 151.665882 279.817162 
L 154.51508 279.707096 
L 157.364278 279.596037 
L 160.213476 279.485728 
L 163.062674 279.37512 
L 165.911872 279.26278 
L 168.76107 279.153124 
L 171.610267 279.042673 
L 174.459465 278.931253 
L 177.308663 278.81882 
L 180.157861 278.707889 
L 183.007059 278.595781 
L 185.856257 278.483526 
L 188.705455 278.372604 
L 191.554652 278.260371 
L 194.40385 278.151525 
L 197.253048 278.038521 
L 200.102246 277.928484 
L 202.951444 277.816295 
L 205.800642 277.705737 
L 208.64984 277.594517 
L 211.499037 277.482578 
L 214.348235 277.372158 
L 217.197433 277.261773 
L 220.046631 277.151371 
L 222.895829 277.03855 
L 225.745027 276.926872 
L 228.594225 276.816067 
L 231.443422 276.705078 
L 234.29262 276.594565 
L 237.141818 276.48273 
L 239.991016 276.371009 
L 242.840214 276.259704 
L 245.689412 276.148925 
L 248.53861 276.037379 
L 251.387807 275.926539 
L 254.237005 275.814508 
L 257.086203 275.70367 
L 259.935401 275.59095 
L 262.784599 275.480758 
L 265.633797 275.368912 
L 268.482995 275.257501 
L 271.332193 275.145881 
L 274.18139 275.0329 
L 277.030588 274.92214 
L 279.879786 274.811707 
L 282.728984 274.700884 
L 285.578182 274.588469 
L 288.42738 274.475221 
L 291.276578 274.36339 
L 294.125775 274.251332 
L 296.974973 274.140595 
L 299.824171 274.029438 
L 302.673369 273.917739 
L 305.522567 273.805728 
L 308.371765 273.692645 
L 311.220963 273.579939 
L 314.07016 273.468761 
L 316.919358 273.356678 
L 319.768556 273.245133 
L 322.617754 273.131843 
L 325.466952 273.021278 
L 328.31615 272.908842 
L 331.165348 272.796456 
L 334.014545 272.684588 
L 336.863743 272.571764 
L 339.712941 272.458744 
L 342.562139 272.346193 
L 345.411337 272.234856 
L 348.260535 272.123089 
L 351.109733 272.011616 
L 353.95893 271.901193 
L 356.808128 271.788547 
L 359.657326 271.677043 
L 362.506524 271.566358 
L 365.355722 271.453768 
L 368.20492 271.342382 
L 371.054118 271.229933 
L 373.903316 271.117865 
L 376.752513 271.004663 
L 379.601711 270.894054 
L 382.450909 270.782417 
L 385.300107 270.670782 
L 388.149305 270.559054 
L 390.998503 270.446333 
L 393.847701 270.334806 
L 396.696898 270.222724 
L 399.546096 270.110692 
L 402.395294 269.99827 
L 405.244492 269.886587 
L 408.09369 269.774911 
L 410.942888 269.661372 
L 413.792086 269.549296 
L 416.641283 269.439534 
L 419.490481 269.327077 
L 422.339679 269.216415 
L 425.188877 269.102549 
L 428.038075 268.990836 
L 430.887273 268.87957 
" clip-path="url(#p0702a46f47)" style="fill: none; stroke: #55a868; stroke-width: 3; stroke-linecap: round"/>
   </g>
   <g id="line2d_18">
    <path d="M 91.832727 281.853267 
L 94.681925 281.844856 
L 97.531123 281.836288 
L 100.380321 281.827709 
L 103.229519 281.608153 
L 106.078717 281.38299 
L 108.927914 281.158359 
L 111.777112 280.931295 
L 114.62631 280.710294 
L 117.475508 280.488167 
L 120.324706 280.264147 
L 123.173904 280.039781 
L 126.023102 279.825299 
L 128.872299 279.608114 
L 131.721497 279.389505 
L 134.570695 279.168192 
L 137.419893 278.9469 
L 140.269091 278.723879 
L 143.118289 278.50451 
L 145.967487 278.285628 
L 148.816684 278.06752 
L 151.665882 277.847668 
L 154.51508 277.628654 
L 157.364278 277.410455 
L 160.213476 277.200263 
L 163.062674 276.985486 
L 165.911872 276.770677 
L 168.76107 276.554314 
L 171.610267 276.338498 
L 174.459465 276.120086 
L 177.308663 275.902152 
L 180.157861 275.683524 
L 183.007059 275.46585 
L 185.856257 275.246641 
L 188.705455 275.028079 
L 191.554652 274.806027 
L 194.40385 274.593296 
L 197.253048 274.378271 
L 200.102246 274.161227 
L 202.951444 273.943896 
L 205.800642 273.726454 
L 208.64984 273.508092 
L 211.499037 273.291937 
L 214.348235 273.073648 
L 217.197433 272.854672 
L 220.046631 272.635422 
L 222.895829 272.415498 
L 225.745027 272.196019 
L 228.594225 271.983466 
L 231.443422 271.766652 
L 234.29262 271.549301 
L 237.141818 271.33205 
L 239.991016 271.115888 
L 242.840214 270.897169 
L 245.689412 270.678052 
L 248.53861 270.45903 
L 251.387807 270.23895 
L 254.237005 270.018774 
L 257.086203 269.799552 
L 259.935401 269.578781 
L 262.784599 269.367917 
L 265.633797 269.152516 
L 268.482995 268.936401 
L 271.332193 268.719305 
L 274.18139 268.50067 
L 277.030588 268.281293 
L 279.879786 268.062865 
L 282.728984 267.843677 
L 285.578182 267.62548 
L 288.42738 267.4055 
L 291.276578 267.185591 
L 294.125775 266.965138 
L 296.974973 266.754083 
L 299.824171 266.539544 
L 302.673369 266.323938 
L 305.522567 266.106134 
L 308.371765 265.888064 
L 311.220963 265.668594 
L 314.07016 265.448883 
L 316.919358 265.228582 
L 319.768556 265.011411 
L 322.617754 264.790721 
L 325.466952 264.569207 
L 328.31615 264.346981 
L 331.165348 264.134663 
L 334.014545 263.920195 
L 336.863743 263.704253 
L 339.712941 263.486447 
L 342.562139 263.267214 
L 345.411337 263.048929 
L 348.260535 262.82885 
L 351.109733 262.6089 
L 353.95893 262.389712 
L 356.808128 262.171299 
L 359.657326 261.950927 
L 362.506524 261.730325 
L 365.355722 261.517985 
L 368.20492 261.302521 
L 371.054118 261.08657 
L 373.903316 260.870641 
L 376.752513 260.651665 
L 379.601711 260.432437 
L 382.450909 260.213473 
L 385.300107 259.993951 
L 388.149305 259.775024 
L 390.998503 259.555221 
L 393.847701 259.336795 
L 396.696898 259.115968 
L 399.546096 258.902971 
L 402.395294 258.687659 
L 405.244492 258.470619 
L 408.09369 258.252918 
L 410.942888 258.035849 
L 413.792086 257.816425 
L 416.641283 257.597378 
L 419.490481 257.377097 
L 422.339679 257.158245 
L 425.188877 256.937153 
L 428.038075 256.716865 
L 430.887273 256.496385 
" clip-path="url(#p0702a46f47)" style="fill: none; stroke: #c44e52; stroke-width: 3; stroke-linecap: round"/>
   </g>
   <g id="line2d_19">
    <path d="M 91.832727 281.845327 
L 94.681925 281.828988 
L 97.531123 281.812259 
L 100.380321 281.79583 
L 103.229519 279.627182 
L 106.078717 277.492239 
L 108.927914 275.349415 
L 111.777112 273.167781 
L 114.62631 270.994181 
L 117.475508 268.768581 
L 120.324706 266.534859 
L 123.173904 264.276562 
L 126.023102 262.187602 
L 128.872299 260.0702 
L 131.721497 257.940191 
L 134.570695 255.778583 
L 137.419893 253.611796 
L 140.269091 251.413312 
L 143.118289 249.205309 
L 145.967487 246.973073 
L 148.816684 244.739437 
L 151.665882 242.476759 
L 154.51508 240.19116 
L 157.364278 237.875529 
L 160.213476 235.773552 
L 163.062674 233.652268 
L 165.911872 231.518319 
L 168.76107 229.363728 
L 171.610267 227.189929 
L 174.459465 224.967565 
L 177.308663 222.757488 
L 180.157861 220.519793 
L 183.007059 218.288485 
L 185.856257 216.035013 
L 188.705455 213.768298 
L 191.554652 211.461062 
L 194.40385 209.354792 
L 197.253048 207.236743 
L 200.102246 205.107498 
L 202.951444 202.950109 
L 205.800642 200.782589 
L 208.64984 198.595957 
L 211.499037 196.386526 
L 214.348235 194.148228 
L 217.197433 191.899455 
L 220.046631 189.631629 
L 222.895829 187.365012 
L 225.745027 185.060395 
L 228.594225 182.966427 
L 231.443422 180.835893 
L 234.29262 178.69647 
L 237.141818 176.514519 
L 239.991016 174.3295 
L 242.840214 172.120219 
L 245.689412 169.916557 
L 248.53861 167.688277 
L 251.387807 165.46067 
L 254.237005 163.196252 
L 257.086203 160.901136 
L 259.935401 158.589858 
L 262.784599 156.493009 
L 265.633797 154.368305 
L 268.482995 152.229859 
L 271.332193 150.054701 
L 274.18139 147.870415 
L 277.030588 145.661593 
L 279.879786 143.453338 
L 282.728984 141.222904 
L 285.578182 138.976981 
L 288.42738 136.713275 
L 291.276578 134.437746 
L 294.125775 132.12862 
L 296.974973 130.033075 
L 299.824171 127.905433 
L 302.673369 125.757909 
L 305.522567 123.579647 
L 308.371765 121.397346 
L 311.220963 119.195286 
L 314.07016 116.976601 
L 316.919358 114.74023 
L 319.768556 112.49956 
L 322.617754 110.234687 
L 325.466952 107.94414 
L 328.31615 105.628261 
L 331.165348 103.526781 
L 334.014545 101.397413 
L 336.863743 99.258342 
L 339.712941 97.09553 
L 342.562139 94.918305 
L 345.411337 92.717005 
L 348.260535 90.508367 
L 351.109733 88.264528 
L 353.95893 85.995132 
L 356.808128 83.724185 
L 359.657326 81.438206 
L 362.506524 79.115264 
L 365.355722 77.001491 
L 368.20492 74.864835 
L 371.054118 72.720096 
L 373.903316 70.541628 
L 376.752513 68.358337 
L 379.601711 66.140204 
L 382.450909 63.915647 
L 385.300107 61.662295 
L 388.149305 59.409177 
L 390.998503 57.135119 
L 393.847701 54.844799 
L 396.696898 52.521898 
L 399.546096 50.418681 
L 402.395294 48.288902 
L 405.244492 46.14189 
L 408.09369 43.967754 
L 410.942888 41.781105 
L 413.792086 39.575395 
L 416.641283 37.359765 
L 419.490481 35.117529 
L 422.339679 32.874904 
L 425.188877 30.605722 
L 428.038075 28.326784 
L 430.887273 26.003582 
" clip-path="url(#p0702a46f47)" style="fill: none; stroke: #8172b3; stroke-width: 3; stroke-linecap: round"/>
   </g>
   <g id="patch_3">
    <path d="M 74.88 294.66 
L 74.88 12.96 
" style="fill: none; stroke: #ffffff; stroke-width: 1.25; stroke-linejoin: miter; stroke-linecap: square"/>
   </g>
   <g id="patch_4">
    <path d="M 447.84 294.66 
L 447.84 12.96 
" style="fill: none; stroke: #ffffff; stroke-width: 1.25; stroke-linejoin: miter; stroke-linecap: square"/>
   </g>
   <g id="patch_5">
    <path d="M 74.88 294.66 
L 447.84 294.66 
" style="fill: none; stroke: #ffffff; stroke-width: 1.25; stroke-linejoin: miter; stroke-linecap: square"/>
   </g>
   <g id="patch_6">
    <path d="M 74.88 12.96 
L 447.84 12.96 
" style="fill: none; stroke: #ffffff; stroke-width: 1.25; stroke-linejoin: miter; stroke-linecap: square"/>
   </g>
   <g id="legend_1">
    <g id="patch_7">
     <path d="M 82.58 102.489688 
L 237.406719 102.489688 
Q 239.606719 102.489688 239.606719 100.289688 
L 239.606719 20.66 
Q 239.606719 18.46 237.406719 18.46 
L 82.58 18.46 
Q 80.38 18.46 80.38 20.66 
L 80.38 100.289688 
Q 80.38 102.489688 82.58 102.489688 
z
" style="fill: #eaeaf2; opacity: 0.8; stroke: #cccccc; stroke-linejoin: miter"/>
    </g>
    <g id="line2d_20">
     <path d="M 84.78 27.368281 
L 95.78 27.368281 
L 106.78 27.368281 
" style="fill: none; stroke: #4c72b0; stroke-width: 3; stroke-linecap: round"/>
    </g>
    <g id="text_17">
     <!-- DCAC-DELAY-1-16C -->
     <g style="fill: #262626" transform="translate(115.58 31.218281)scale(0.11 -0.11)">
      <defs>
       <path id="DejaVuSans-44" d="M 1259 4147 
L 1259 519 
L 2022 519 
Q 2988 519 3436 956 
Q 3884 1394 3884 2338 
Q 3884 3275 3436 3711 
Q 2988 4147 2022 4147 
L 1259 4147 
z
M 628 4666 
L 1925 4666 
Q 3281 4666 3915 4102 
Q 4550 3538 4550 2338 
Q 4550 1131 3912 565 
Q 3275 0 1925 0 
L 628 0 
L 628 4666 
z
" transform="scale(0.015625)"/>
       <path id="DejaVuSans-43" d="M 4122 4306 
L 4122 3641 
Q 3803 3938 3442 4084 
Q 3081 4231 2675 4231 
Q 1875 4231 1450 3742 
Q 1025 3253 1025 2328 
Q 1025 1406 1450 917 
Q 1875 428 2675 428 
Q 3081 428 3442 575 
Q 3803 722 4122 1019 
L 4122 359 
Q 3791 134 3420 21 
Q 3050 -91 2638 -91 
Q 1578 -91 968 557 
Q 359 1206 359 2328 
Q 359 3453 968 4101 
Q 1578 4750 2638 4750 
Q 3056 4750 3426 4639 
Q 3797 4528 4122 4306 
z
" transform="scale(0.015625)"/>
       <path id="DejaVuSans-41" d="M 2188 4044 
L 1331 1722 
L 3047 1722 
L 2188 4044 
z
M 1831 4666 
L 2547 4666 
L 4325 0 
L 3669 0 
L 3244 1197 
L 1141 1197 
L 716 0 
L 50 0 
L 1831 4666 
z
" transform="scale(0.015625)"/>
       <path id="DejaVuSans-2d" d="M 313 2009 
L 1997 2009 
L 1997 1497 
L 313 1497 
L 313 2009 
z
" transform="scale(0.015625)"/>
       <path id="DejaVuSans-45" d="M 628 4666 
L 3578 4666 
L 3578 4134 
L 1259 4134 
L 1259 2753 
L 3481 2753 
L 3481 2222 
L 1259 2222 
L 1259 531 
L 3634 531 
L 3634 0 
L 628 0 
L 628 4666 
z
" transform="scale(0.015625)"/>
       <path id="DejaVuSans-4c" d="M 628 4666 
L 1259 4666 
L 1259 531 
L 3531 531 
L 3531 0 
L 628 0 
L 628 4666 
z
" transform="scale(0.015625)"/>
       <path id="DejaVuSans-59" d="M -13 4666 
L 666 4666 
L 1959 2747 
L 3244 4666 
L 3922 4666 
L 2272 2222 
L 2272 0 
L 1638 0 
L 1638 2222 
L -13 4666 
z
" transform="scale(0.015625)"/>
      </defs>
      <use xlink:href="#DejaVuSans-44"/>
      <use xlink:href="#DejaVuSans-43" x="77.001953"/>
      <use xlink:href="#DejaVuSans-41" x="146.826172"/>
      <use xlink:href="#DejaVuSans-43" x="213.484375"/>
      <use xlink:href="#DejaVuSans-2d" x="283.308594"/>
      <use xlink:href="#DejaVuSans-44" x="319.392578"/>
      <use xlink:href="#DejaVuSans-45" x="396.394531"/>
      <use xlink:href="#DejaVuSans-4c" x="459.578125"/>
      <use xlink:href="#DejaVuSans-41" x="517.541016"/>
      <use xlink:href="#DejaVuSans-59" x="578.199219"/>
      <use xlink:href="#DejaVuSans-2d" x="627.408203"/>
      <use xlink:href="#DejaVuSans-31" x="663.492188"/>
      <use xlink:href="#DejaVuSans-2d" x="727.115234"/>
      <use xlink:href="#DejaVuSans-31" x="763.199219"/>
      <use xlink:href="#DejaVuSans-36" x="826.822266"/>
      <use xlink:href="#DejaVuSans-43" x="890.445312"/>
     </g>
    </g>
    <g id="line2d_21">
     <path d="M 84.78 43.514219 
L 95.78 43.514219 
L 106.78 43.514219 
" style="fill: none; stroke: #dd8452; stroke-width: 3; stroke-linecap: round"/>
    </g>
    <g id="text_18">
     <!-- DCAC-DELAY-5-16C -->
     <g style="fill: #262626" transform="translate(115.58 47.364219)scale(0.11 -0.11)">
      <use xlink:href="#DejaVuSans-44"/>
      <use xlink:href="#DejaVuSans-43" x="77.001953"/>
      <use xlink:href="#DejaVuSans-41" x="146.826172"/>
      <use xlink:href="#DejaVuSans-43" x="213.484375"/>
      <use xlink:href="#DejaVuSans-2d" x="283.308594"/>
      <use xlink:href="#DejaVuSans-44" x="319.392578"/>
      <use xlink:href="#DejaVuSans-45" x="396.394531"/>
      <use xlink:href="#DejaVuSans-4c" x="459.578125"/>
      <use xlink:href="#DejaVuSans-41" x="517.541016"/>
      <use xlink:href="#DejaVuSans-59" x="578.199219"/>
      <use xlink:href="#DejaVuSans-2d" x="627.408203"/>
      <use xlink:href="#DejaVuSans-35" x="663.492188"/>
      <use xlink:href="#DejaVuSans-2d" x="727.115234"/>
      <use xlink:href="#DejaVuSans-31" x="763.199219"/>
      <use xlink:href="#DejaVuSans-36" x="826.822266"/>
      <use xlink:href="#DejaVuSans-43" x="890.445312"/>
     </g>
    </g>
    <g id="line2d_22">
     <path d="M 84.78 59.660156 
L 95.78 59.660156 
L 106.78 59.660156 
" style="fill: none; stroke: #55a868; stroke-width: 3; stroke-linecap: round"/>
    </g>
    <g id="text_19">
     <!-- DCAC-DELAY-10-16C -->
     <g style="fill: #262626" transform="translate(115.58 63.510156)scale(0.11 -0.11)">
      <use xlink:href="#DejaVuSans-44"/>
      <use xlink:href="#DejaVuSans-43" x="77.001953"/>
      <use xlink:href="#DejaVuSans-41" x="146.826172"/>
      <use xlink:href="#DejaVuSans-43" x="213.484375"/>
      <use xlink:href="#DejaVuSans-2d" x="283.308594"/>
      <use xlink:href="#DejaVuSans-44" x="319.392578"/>
      <use xlink:href="#DejaVuSans-45" x="396.394531"/>
      <use xlink:href="#DejaVuSans-4c" x="459.578125"/>
      <use xlink:href="#DejaVuSans-41" x="517.541016"/>
      <use xlink:href="#DejaVuSans-59" x="578.199219"/>
      <use xlink:href="#DejaVuSans-2d" x="627.408203"/>
      <use xlink:href="#DejaVuSans-31" x="663.492188"/>
      <use xlink:href="#DejaVuSans-30" x="727.115234"/>
      <use xlink:href="#DejaVuSans-2d" x="790.738281"/>
      <use xlink:href="#DejaVuSans-31" x="826.822266"/>
      <use xlink:href="#DejaVuSans-36" x="890.445312"/>
      <use xlink:href="#DejaVuSans-43" x="954.068359"/>
     </g>
    </g>
    <g id="line2d_23">
     <path d="M 84.78 75.806094 
L 95.78 75.806094 
L 106.78 75.806094 
" style="fill: none; stroke: #c44e52; stroke-width: 3; stroke-linecap: round"/>
    </g>
    <g id="text_20">
     <!-- DCAC-DELAY-20-16C -->
     <g style="fill: #262626" transform="translate(115.58 79.656094)scale(0.11 -0.11)">
      <use xlink:href="#DejaVuSans-44"/>
      <use xlink:href="#DejaVuSans-43" x="77.001953"/>
      <use xlink:href="#DejaVuSans-41" x="146.826172"/>
      <use xlink:href="#DejaVuSans-43" x="213.484375"/>
      <use xlink:href="#DejaVuSans-2d" x="283.308594"/>
      <use xlink:href="#DejaVuSans-44" x="319.392578"/>
      <use xlink:href="#DejaVuSans-45" x="396.394531"/>
      <use xlink:href="#DejaVuSans-4c" x="459.578125"/>
      <use xlink:href="#DejaVuSans-41" x="517.541016"/>
      <use xlink:href="#DejaVuSans-59" x="578.199219"/>
      <use xlink:href="#DejaVuSans-2d" x="627.408203"/>
      <use xlink:href="#DejaVuSans-32" x="663.492188"/>
      <use xlink:href="#DejaVuSans-30" x="727.115234"/>
      <use xlink:href="#DejaVuSans-2d" x="790.738281"/>
      <use xlink:href="#DejaVuSans-31" x="826.822266"/>
      <use xlink:href="#DejaVuSans-36" x="890.445312"/>
      <use xlink:href="#DejaVuSans-43" x="954.068359"/>
     </g>
    </g>
    <g id="line2d_24">
     <path d="M 84.78 91.952031 
L 95.78 91.952031 
L 106.78 91.952031 
" style="fill: none; stroke: #8172b3; stroke-width: 3; stroke-linecap: round"/>
    </g>
    <g id="text_21">
     <!-- DCAC-DELAY-100-16C -->
     <g style="fill: #262626" transform="translate(115.58 95.802031)scale(0.11 -0.11)">
      <use xlink:href="#DejaVuSans-44"/>
      <use xlink:href="#DejaVuSans-43" x="77.001953"/>
      <use xlink:href="#DejaVuSans-41" x="146.826172"/>
      <use xlink:href="#DejaVuSans-43" x="213.484375"/>
      <use xlink:href="#DejaVuSans-2d" x="283.308594"/>
      <use xlink:href="#DejaVuSans-44" x="319.392578"/>
      <use xlink:href="#DejaVuSans-45" x="396.394531"/>
      <use xlink:href="#DejaVuSans-4c" x="459.578125"/>
      <use xlink:href="#DejaVuSans-41" x="517.541016"/>
      <use xlink:href="#DejaVuSans-59" x="578.199219"/>
      <use xlink:href="#DejaVuSans-2d" x="627.408203"/>
      <use xlink:href="#DejaVuSans-31" x="663.492188"/>
      <use xlink:href="#DejaVuSans-30" x="727.115234"/>
      <use xlink:href="#DejaVuSans-30" x="790.738281"/>
      <use xlink:href="#DejaVuSans-2d" x="854.361328"/>
      <use xlink:href="#DejaVuSans-31" x="890.445312"/>
      <use xlink:href="#DejaVuSans-36" x="954.068359"/>
      <use xlink:href="#DejaVuSans-43" x="1017.691406"/>
     </g>
    </g>
   </g>
  </g>
 </g>
 <defs>
  <clipPath id="p0702a46f47">
   <rect x="74.88" y="12.96" width="372.96" height="281.7"/>
  </clipPath>
 </defs>
</svg>
