<?xml version="1.0" encoding="utf-8" standalone="no"?>
<!DOCTYPE svg PUBLIC "-//W3C//DTD SVG 1.1//EN"
  "http://www.w3.org/Graphics/SVG/1.1/DTD/svg11.dtd">
<svg xmlns:xlink="http://www.w3.org/1999/xlink" width="460.8pt" height="345.6pt" viewBox="0 0 460.8 345.6" xmlns="http://www.w3.org/2000/svg" version="1.1">
 <metadata>
  <rdf:RDF xmlns:dc="http://purl.org/dc/elements/1.1/" xmlns:cc="http://creativecommons.org/ns#" xmlns:rdf="http://www.w3.org/1999/02/22-rdf-syntax-ns#">
   <cc:Work>
    <dc:type rdf:resource="http://purl.org/dc/dcmitype/StillImage"/>
    <dc:date>2022-09-12T15:21:55.431315</dc:date>
    <dc:format>image/svg+xml</dc:format>
    <dc:creator>
     <cc:Agent>
      <dc:title>Matplotlib v3.5.3, https://matplotlib.org/</dc:title>
     </cc:Agent>
    </dc:creator>
   </cc:Work>
  </rdf:RDF>
 </metadata>
 <defs>
  <style type="text/css">*{stroke-linejoin: round; stroke-linecap: butt}</style>
 </defs>
 <g id="figure_1">
  <g id="patch_1">
   <path d="M 0 345.6 
L 460.8 345.6 
L 460.8 0 
L 0 0 
z
" style="fill: #ffffff"/>
  </g>
  <g id="axes_1">
   <g id="patch_2">
    <path d="M 61.02 294.66 
L 447.84 294.66 
L 447.84 12.96 
L 61.02 12.96 
z
" style="fill: #eaeaf2"/>
   </g>
   <g id="matplotlib.axis_1">
    <g id="xtick_1">
     <g id="line2d_1">
      <path d="M 75.647647 294.66 
L 75.647647 12.96 
" clip-path="url(#pc49952f35d)" style="fill: none; stroke: #ffffff; stroke-linecap: round"/>
     </g>
     <g id="text_1">
      <!-- 0.00 -->
      <g style="fill: #262626" transform="translate(63.401553 312.518281)scale(0.11 -0.11)">
       <defs>
        <path id="DejaVuSans-30" d="M 2034 4250 
Q 1547 4250 1301 3770 
Q 1056 3291 1056 2328 
Q 1056 1369 1301 889 
Q 1547 409 2034 409 
Q 2525 409 2770 889 
Q 3016 1369 3016 2328 
Q 3016 3291 2770 3770 
Q 2525 4250 2034 4250 
z
M 2034 4750 
Q 2819 4750 3233 4129 
Q 3647 3509 3647 2328 
Q 3647 1150 3233 529 
Q 2819 -91 2034 -91 
Q 1250 -91 836 529 
Q 422 1150 422 2328 
Q 422 3509 836 4129 
Q 1250 4750 2034 4750 
z
" transform="scale(0.015625)"/>
        <path id="DejaVuSans-2e" d="M 684 794 
L 1344 794 
L 1344 0 
L 684 0 
L 684 794 
z
" transform="scale(0.015625)"/>
       </defs>
       <use xlink:href="#DejaVuSans-30"/>
       <use xlink:href="#DejaVuSans-2e" x="63.623047"/>
       <use xlink:href="#DejaVuSans-30" x="95.410156"/>
       <use xlink:href="#DejaVuSans-30" x="159.033203"/>
      </g>
     </g>
    </g>
    <g id="xtick_2">
     <g id="line2d_2">
      <path d="M 134.749251 294.66 
L 134.749251 12.96 
" clip-path="url(#pc49952f35d)" style="fill: none; stroke: #ffffff; stroke-linecap: round"/>
     </g>
     <g id="text_2">
      <!-- 0.05 -->
      <g style="fill: #262626" transform="translate(122.503158 312.518281)scale(0.11 -0.11)">
       <defs>
        <path id="DejaVuSans-35" d="M 691 4666 
L 3169 4666 
L 3169 4134 
L 1269 4134 
L 1269 2991 
Q 1406 3038 1543 3061 
Q 1681 3084 1819 3084 
Q 2600 3084 3056 2656 
Q 3513 2228 3513 1497 
Q 3513 744 3044 326 
Q 2575 -91 1722 -91 
Q 1428 -91 1123 -41 
Q 819 9 494 109 
L 494 744 
Q 775 591 1075 516 
Q 1375 441 1709 441 
Q 2250 441 2565 725 
Q 2881 1009 2881 1497 
Q 2881 1984 2565 2268 
Q 2250 2553 1709 2553 
Q 1456 2553 1204 2497 
Q 953 2441 691 2322 
L 691 4666 
z
" transform="scale(0.015625)"/>
       </defs>
       <use xlink:href="#DejaVuSans-30"/>
       <use xlink:href="#DejaVuSans-2e" x="63.623047"/>
       <use xlink:href="#DejaVuSans-30" x="95.410156"/>
       <use xlink:href="#DejaVuSans-35" x="159.033203"/>
      </g>
     </g>
    </g>
    <g id="xtick_3">
     <g id="line2d_3">
      <path d="M 193.850856 294.66 
L 193.850856 12.96 
" clip-path="url(#pc49952f35d)" style="fill: none; stroke: #ffffff; stroke-linecap: round"/>
     </g>
     <g id="text_3">
      <!-- 0.10 -->
      <g style="fill: #262626" transform="translate(181.604762 312.518281)scale(0.11 -0.11)">
       <defs>
        <path id="DejaVuSans-31" d="M 794 531 
L 1825 531 
L 1825 4091 
L 703 3866 
L 703 4441 
L 1819 4666 
L 2450 4666 
L 2450 531 
L 3481 531 
L 3481 0 
L 794 0 
L 794 531 
z
" transform="scale(0.015625)"/>
       </defs>
       <use xlink:href="#DejaVuSans-30"/>
       <use xlink:href="#DejaVuSans-2e" x="63.623047"/>
       <use xlink:href="#DejaVuSans-31" x="95.410156"/>
       <use xlink:href="#DejaVuSans-30" x="159.033203"/>
      </g>
     </g>
    </g>
    <g id="xtick_4">
     <g id="line2d_4">
      <path d="M 252.95246 294.66 
L 252.95246 12.96 
" clip-path="url(#pc49952f35d)" style="fill: none; stroke: #ffffff; stroke-linecap: round"/>
     </g>
     <g id="text_4">
      <!-- 0.15 -->
      <g style="fill: #262626" transform="translate(240.706366 312.518281)scale(0.11 -0.11)">
       <use xlink:href="#DejaVuSans-30"/>
       <use xlink:href="#DejaVuSans-2e" x="63.623047"/>
       <use xlink:href="#DejaVuSans-31" x="95.410156"/>
       <use xlink:href="#DejaVuSans-35" x="159.033203"/>
      </g>
     </g>
    </g>
    <g id="xtick_5">
     <g id="line2d_5">
      <path d="M 312.054064 294.66 
L 312.054064 12.96 
" clip-path="url(#pc49952f35d)" style="fill: none; stroke: #ffffff; stroke-linecap: round"/>
     </g>
     <g id="text_5">
      <!-- 0.20 -->
      <g style="fill: #262626" transform="translate(299.80797 312.518281)scale(0.11 -0.11)">
       <defs>
        <path id="DejaVuSans-32" d="M 1228 531 
L 3431 531 
L 3431 0 
L 469 0 
L 469 531 
Q 828 903 1448 1529 
Q 2069 2156 2228 2338 
Q 2531 2678 2651 2914 
Q 2772 3150 2772 3378 
Q 2772 3750 2511 3984 
Q 2250 4219 1831 4219 
Q 1534 4219 1204 4116 
Q 875 4013 500 3803 
L 500 4441 
Q 881 4594 1212 4672 
Q 1544 4750 1819 4750 
Q 2544 4750 2975 4387 
Q 3406 4025 3406 3419 
Q 3406 3131 3298 2873 
Q 3191 2616 2906 2266 
Q 2828 2175 2409 1742 
Q 1991 1309 1228 531 
z
" transform="scale(0.015625)"/>
       </defs>
       <use xlink:href="#DejaVuSans-30"/>
       <use xlink:href="#DejaVuSans-2e" x="63.623047"/>
       <use xlink:href="#DejaVuSans-32" x="95.410156"/>
       <use xlink:href="#DejaVuSans-30" x="159.033203"/>
      </g>
     </g>
    </g>
    <g id="xtick_6">
     <g id="line2d_6">
      <path d="M 371.155668 294.66 
L 371.155668 12.96 
" clip-path="url(#pc49952f35d)" style="fill: none; stroke: #ffffff; stroke-linecap: round"/>
     </g>
     <g id="text_6">
      <!-- 0.25 -->
      <g style="fill: #262626" transform="translate(358.909575 312.518281)scale(0.11 -0.11)">
       <use xlink:href="#DejaVuSans-30"/>
       <use xlink:href="#DejaVuSans-2e" x="63.623047"/>
       <use xlink:href="#DejaVuSans-32" x="95.410156"/>
       <use xlink:href="#DejaVuSans-35" x="159.033203"/>
      </g>
     </g>
    </g>
    <g id="xtick_7">
     <g id="line2d_7">
      <path d="M 430.257273 294.66 
L 430.257273 12.96 
" clip-path="url(#pc49952f35d)" style="fill: none; stroke: #ffffff; stroke-linecap: round"/>
     </g>
     <g id="text_7">
      <!-- 0.30 -->
      <g style="fill: #262626" transform="translate(418.011179 312.518281)scale(0.11 -0.11)">
       <defs>
        <path id="DejaVuSans-33" d="M 2597 2516 
Q 3050 2419 3304 2112 
Q 3559 1806 3559 1356 
Q 3559 666 3084 287 
Q 2609 -91 1734 -91 
Q 1441 -91 1130 -33 
Q 819 25 488 141 
L 488 750 
Q 750 597 1062 519 
Q 1375 441 1716 441 
Q 2309 441 2620 675 
Q 2931 909 2931 1356 
Q 2931 1769 2642 2001 
Q 2353 2234 1838 2234 
L 1294 2234 
L 1294 2753 
L 1863 2753 
Q 2328 2753 2575 2939 
Q 2822 3125 2822 3475 
Q 2822 3834 2567 4026 
Q 2313 4219 1838 4219 
Q 1578 4219 1281 4162 
Q 984 4106 628 3988 
L 628 4550 
Q 988 4650 1302 4700 
Q 1616 4750 1894 4750 
Q 2613 4750 3031 4423 
Q 3450 4097 3450 3541 
Q 3450 3153 3228 2886 
Q 3006 2619 2597 2516 
z
" transform="scale(0.015625)"/>
       </defs>
       <use xlink:href="#DejaVuSans-30"/>
       <use xlink:href="#DejaVuSans-2e" x="63.623047"/>
       <use xlink:href="#DejaVuSans-33" x="95.410156"/>
       <use xlink:href="#DejaVuSans-30" x="159.033203"/>
      </g>
     </g>
    </g>
    <g id="text_8">
     <!-- Zeitschritte (in Millionen) -->
     <g style="fill: #262626" transform="translate(166.515469 329.44375)scale(0.14 -0.14)">
      <defs>
       <path id="DejaVuSans-5a" d="M 359 4666 
L 4025 4666 
L 4025 4184 
L 1075 531 
L 4097 531 
L 4097 0 
L 288 0 
L 288 481 
L 3238 4134 
L 359 4134 
L 359 4666 
z
" transform="scale(0.015625)"/>
       <path id="DejaVuSans-65" d="M 3597 1894 
L 3597 1613 
L 953 1613 
Q 991 1019 1311 708 
Q 1631 397 2203 397 
Q 2534 397 2845 478 
Q 3156 559 3463 722 
L 3463 178 
Q 3153 47 2828 -22 
Q 2503 -91 2169 -91 
Q 1331 -91 842 396 
Q 353 884 353 1716 
Q 353 2575 817 3079 
Q 1281 3584 2069 3584 
Q 2775 3584 3186 3129 
Q 3597 2675 3597 1894 
z
M 3022 2063 
Q 3016 2534 2758 2815 
Q 2500 3097 2075 3097 
Q 1594 3097 1305 2825 
Q 1016 2553 972 2059 
L 3022 2063 
z
" transform="scale(0.015625)"/>
       <path id="DejaVuSans-69" d="M 603 3500 
L 1178 3500 
L 1178 0 
L 603 0 
L 603 3500 
z
M 603 4863 
L 1178 4863 
L 1178 4134 
L 603 4134 
L 603 4863 
z
" transform="scale(0.015625)"/>
       <path id="DejaVuSans-74" d="M 1172 4494 
L 1172 3500 
L 2356 3500 
L 2356 3053 
L 1172 3053 
L 1172 1153 
Q 1172 725 1289 603 
Q 1406 481 1766 481 
L 2356 481 
L 2356 0 
L 1766 0 
Q 1100 0 847 248 
Q 594 497 594 1153 
L 594 3053 
L 172 3053 
L 172 3500 
L 594 3500 
L 594 4494 
L 1172 4494 
z
" transform="scale(0.015625)"/>
       <path id="DejaVuSans-73" d="M 2834 3397 
L 2834 2853 
Q 2591 2978 2328 3040 
Q 2066 3103 1784 3103 
Q 1356 3103 1142 2972 
Q 928 2841 928 2578 
Q 928 2378 1081 2264 
Q 1234 2150 1697 2047 
L 1894 2003 
Q 2506 1872 2764 1633 
Q 3022 1394 3022 966 
Q 3022 478 2636 193 
Q 2250 -91 1575 -91 
Q 1294 -91 989 -36 
Q 684 19 347 128 
L 347 722 
Q 666 556 975 473 
Q 1284 391 1588 391 
Q 1994 391 2212 530 
Q 2431 669 2431 922 
Q 2431 1156 2273 1281 
Q 2116 1406 1581 1522 
L 1381 1569 
Q 847 1681 609 1914 
Q 372 2147 372 2553 
Q 372 3047 722 3315 
Q 1072 3584 1716 3584 
Q 2034 3584 2315 3537 
Q 2597 3491 2834 3397 
z
" transform="scale(0.015625)"/>
       <path id="DejaVuSans-63" d="M 3122 3366 
L 3122 2828 
Q 2878 2963 2633 3030 
Q 2388 3097 2138 3097 
Q 1578 3097 1268 2742 
Q 959 2388 959 1747 
Q 959 1106 1268 751 
Q 1578 397 2138 397 
Q 2388 397 2633 464 
Q 2878 531 3122 666 
L 3122 134 
Q 2881 22 2623 -34 
Q 2366 -91 2075 -91 
Q 1284 -91 818 406 
Q 353 903 353 1747 
Q 353 2603 823 3093 
Q 1294 3584 2113 3584 
Q 2378 3584 2631 3529 
Q 2884 3475 3122 3366 
z
" transform="scale(0.015625)"/>
       <path id="DejaVuSans-68" d="M 3513 2113 
L 3513 0 
L 2938 0 
L 2938 2094 
Q 2938 2591 2744 2837 
Q 2550 3084 2163 3084 
Q 1697 3084 1428 2787 
Q 1159 2491 1159 1978 
L 1159 0 
L 581 0 
L 581 4863 
L 1159 4863 
L 1159 2956 
Q 1366 3272 1645 3428 
Q 1925 3584 2291 3584 
Q 2894 3584 3203 3211 
Q 3513 2838 3513 2113 
z
" transform="scale(0.015625)"/>
       <path id="DejaVuSans-72" d="M 2631 2963 
Q 2534 3019 2420 3045 
Q 2306 3072 2169 3072 
Q 1681 3072 1420 2755 
Q 1159 2438 1159 1844 
L 1159 0 
L 581 0 
L 581 3500 
L 1159 3500 
L 1159 2956 
Q 1341 3275 1631 3429 
Q 1922 3584 2338 3584 
Q 2397 3584 2469 3576 
Q 2541 3569 2628 3553 
L 2631 2963 
z
" transform="scale(0.015625)"/>
       <path id="DejaVuSans-20" transform="scale(0.015625)"/>
       <path id="DejaVuSans-28" d="M 1984 4856 
Q 1566 4138 1362 3434 
Q 1159 2731 1159 2009 
Q 1159 1288 1364 580 
Q 1569 -128 1984 -844 
L 1484 -844 
Q 1016 -109 783 600 
Q 550 1309 550 2009 
Q 550 2706 781 3412 
Q 1013 4119 1484 4856 
L 1984 4856 
z
" transform="scale(0.015625)"/>
       <path id="DejaVuSans-6e" d="M 3513 2113 
L 3513 0 
L 2938 0 
L 2938 2094 
Q 2938 2591 2744 2837 
Q 2550 3084 2163 3084 
Q 1697 3084 1428 2787 
Q 1159 2491 1159 1978 
L 1159 0 
L 581 0 
L 581 3500 
L 1159 3500 
L 1159 2956 
Q 1366 3272 1645 3428 
Q 1925 3584 2291 3584 
Q 2894 3584 3203 3211 
Q 3513 2838 3513 2113 
z
" transform="scale(0.015625)"/>
       <path id="DejaVuSans-4d" d="M 628 4666 
L 1569 4666 
L 2759 1491 
L 3956 4666 
L 4897 4666 
L 4897 0 
L 4281 0 
L 4281 4097 
L 3078 897 
L 2444 897 
L 1241 4097 
L 1241 0 
L 628 0 
L 628 4666 
z
" transform="scale(0.015625)"/>
       <path id="DejaVuSans-6c" d="M 603 4863 
L 1178 4863 
L 1178 0 
L 603 0 
L 603 4863 
z
" transform="scale(0.015625)"/>
       <path id="DejaVuSans-6f" d="M 1959 3097 
Q 1497 3097 1228 2736 
Q 959 2375 959 1747 
Q 959 1119 1226 758 
Q 1494 397 1959 397 
Q 2419 397 2687 759 
Q 2956 1122 2956 1747 
Q 2956 2369 2687 2733 
Q 2419 3097 1959 3097 
z
M 1959 3584 
Q 2709 3584 3137 3096 
Q 3566 2609 3566 1747 
Q 3566 888 3137 398 
Q 2709 -91 1959 -91 
Q 1206 -91 779 398 
Q 353 888 353 1747 
Q 353 2609 779 3096 
Q 1206 3584 1959 3584 
z
" transform="scale(0.015625)"/>
       <path id="DejaVuSans-29" d="M 513 4856 
L 1013 4856 
Q 1481 4119 1714 3412 
Q 1947 2706 1947 2009 
Q 1947 1309 1714 600 
Q 1481 -109 1013 -844 
L 513 -844 
Q 928 -128 1133 580 
Q 1338 1288 1338 2009 
Q 1338 2731 1133 3434 
Q 928 4138 513 4856 
z
" transform="scale(0.015625)"/>
      </defs>
      <use xlink:href="#DejaVuSans-5a"/>
      <use xlink:href="#DejaVuSans-65" x="68.505859"/>
      <use xlink:href="#DejaVuSans-69" x="130.029297"/>
      <use xlink:href="#DejaVuSans-74" x="157.8125"/>
      <use xlink:href="#DejaVuSans-73" x="197.021484"/>
      <use xlink:href="#DejaVuSans-63" x="249.121094"/>
      <use xlink:href="#DejaVuSans-68" x="304.101562"/>
      <use xlink:href="#DejaVuSans-72" x="367.480469"/>
      <use xlink:href="#DejaVuSans-69" x="408.59375"/>
      <use xlink:href="#DejaVuSans-74" x="436.376953"/>
      <use xlink:href="#DejaVuSans-74" x="475.585938"/>
      <use xlink:href="#DejaVuSans-65" x="514.794922"/>
      <use xlink:href="#DejaVuSans-20" x="576.318359"/>
      <use xlink:href="#DejaVuSans-28" x="608.105469"/>
      <use xlink:href="#DejaVuSans-69" x="647.119141"/>
      <use xlink:href="#DejaVuSans-6e" x="674.902344"/>
      <use xlink:href="#DejaVuSans-20" x="738.28125"/>
      <use xlink:href="#DejaVuSans-4d" x="770.068359"/>
      <use xlink:href="#DejaVuSans-69" x="856.347656"/>
      <use xlink:href="#DejaVuSans-6c" x="884.130859"/>
      <use xlink:href="#DejaVuSans-6c" x="911.914062"/>
      <use xlink:href="#DejaVuSans-69" x="939.697266"/>
      <use xlink:href="#DejaVuSans-6f" x="967.480469"/>
      <use xlink:href="#DejaVuSans-6e" x="1028.662109"/>
      <use xlink:href="#DejaVuSans-65" x="1092.041016"/>
      <use xlink:href="#DejaVuSans-6e" x="1153.564453"/>
      <use xlink:href="#DejaVuSans-29" x="1216.943359"/>
     </g>
    </g>
   </g>
   <g id="matplotlib.axis_2">
    <g id="ytick_1">
     <g id="line2d_8">
      <path d="M 61.02 282.097675 
L 447.84 282.097675 
" clip-path="url(#pc49952f35d)" style="fill: none; stroke: #ffffff; stroke-linecap: round"/>
     </g>
     <g id="text_9">
      <!-- 0 -->
      <g style="fill: #262626" transform="translate(44.52125 286.276815)scale(0.11 -0.11)">
       <use xlink:href="#DejaVuSans-30"/>
      </g>
     </g>
    </g>
    <g id="ytick_2">
     <g id="line2d_9">
      <path d="M 61.02 236.932725 
L 447.84 236.932725 
" clip-path="url(#pc49952f35d)" style="fill: none; stroke: #ffffff; stroke-linecap: round"/>
     </g>
     <g id="text_10">
      <!-- 100 -->
      <g style="fill: #262626" transform="translate(30.52375 241.111866)scale(0.11 -0.11)">
       <use xlink:href="#DejaVuSans-31"/>
       <use xlink:href="#DejaVuSans-30" x="63.623047"/>
       <use xlink:href="#DejaVuSans-30" x="127.246094"/>
      </g>
     </g>
    </g>
    <g id="ytick_3">
     <g id="line2d_10">
      <path d="M 61.02 191.767775 
L 447.84 191.767775 
" clip-path="url(#pc49952f35d)" style="fill: none; stroke: #ffffff; stroke-linecap: round"/>
     </g>
     <g id="text_11">
      <!-- 200 -->
      <g style="fill: #262626" transform="translate(30.52375 195.946916)scale(0.11 -0.11)">
       <use xlink:href="#DejaVuSans-32"/>
       <use xlink:href="#DejaVuSans-30" x="63.623047"/>
       <use xlink:href="#DejaVuSans-30" x="127.246094"/>
      </g>
     </g>
    </g>
    <g id="ytick_4">
     <g id="line2d_11">
      <path d="M 61.02 146.602826 
L 447.84 146.602826 
" clip-path="url(#pc49952f35d)" style="fill: none; stroke: #ffffff; stroke-linecap: round"/>
     </g>
     <g id="text_12">
      <!-- 300 -->
      <g style="fill: #262626" transform="translate(30.52375 150.781966)scale(0.11 -0.11)">
       <use xlink:href="#DejaVuSans-33"/>
       <use xlink:href="#DejaVuSans-30" x="63.623047"/>
       <use xlink:href="#DejaVuSans-30" x="127.246094"/>
      </g>
     </g>
    </g>
    <g id="ytick_5">
     <g id="line2d_12">
      <path d="M 61.02 101.437876 
L 447.84 101.437876 
" clip-path="url(#pc49952f35d)" style="fill: none; stroke: #ffffff; stroke-linecap: round"/>
     </g>
     <g id="text_13">
      <!-- 400 -->
      <g style="fill: #262626" transform="translate(30.52375 105.617016)scale(0.11 -0.11)">
       <defs>
        <path id="DejaVuSans-34" d="M 2419 4116 
L 825 1625 
L 2419 1625 
L 2419 4116 
z
M 2253 4666 
L 3047 4666 
L 3047 1625 
L 3713 1625 
L 3713 1100 
L 3047 1100 
L 3047 0 
L 2419 0 
L 2419 1100 
L 313 1100 
L 313 1709 
L 2253 4666 
z
" transform="scale(0.015625)"/>
       </defs>
       <use xlink:href="#DejaVuSans-34"/>
       <use xlink:href="#DejaVuSans-30" x="63.623047"/>
       <use xlink:href="#DejaVuSans-30" x="127.246094"/>
      </g>
     </g>
    </g>
    <g id="ytick_6">
     <g id="line2d_13">
      <path d="M 61.02 56.272926 
L 447.84 56.272926 
" clip-path="url(#pc49952f35d)" style="fill: none; stroke: #ffffff; stroke-linecap: round"/>
     </g>
     <g id="text_14">
      <!-- 500 -->
      <g style="fill: #262626" transform="translate(30.52375 60.452067)scale(0.11 -0.11)">
       <use xlink:href="#DejaVuSans-35"/>
       <use xlink:href="#DejaVuSans-30" x="63.623047"/>
       <use xlink:href="#DejaVuSans-30" x="127.246094"/>
      </g>
     </g>
    </g>
    <g id="text_15">
     <!-- Trainingszeit (in Minuten) -->
     <g style="fill: #262626" transform="translate(23.612188 242.379688)rotate(-90)scale(0.14 -0.14)">
      <defs>
       <path id="DejaVuSans-54" d="M -19 4666 
L 3928 4666 
L 3928 4134 
L 2272 4134 
L 2272 0 
L 1638 0 
L 1638 4134 
L -19 4134 
L -19 4666 
z
" transform="scale(0.015625)"/>
       <path id="DejaVuSans-61" d="M 2194 1759 
Q 1497 1759 1228 1600 
Q 959 1441 959 1056 
Q 959 750 1161 570 
Q 1363 391 1709 391 
Q 2188 391 2477 730 
Q 2766 1069 2766 1631 
L 2766 1759 
L 2194 1759 
z
M 3341 1997 
L 3341 0 
L 2766 0 
L 2766 531 
Q 2569 213 2275 61 
Q 1981 -91 1556 -91 
Q 1019 -91 701 211 
Q 384 513 384 1019 
Q 384 1609 779 1909 
Q 1175 2209 1959 2209 
L 2766 2209 
L 2766 2266 
Q 2766 2663 2505 2880 
Q 2244 3097 1772 3097 
Q 1472 3097 1187 3025 
Q 903 2953 641 2809 
L 641 3341 
Q 956 3463 1253 3523 
Q 1550 3584 1831 3584 
Q 2591 3584 2966 3190 
Q 3341 2797 3341 1997 
z
" transform="scale(0.015625)"/>
       <path id="DejaVuSans-67" d="M 2906 1791 
Q 2906 2416 2648 2759 
Q 2391 3103 1925 3103 
Q 1463 3103 1205 2759 
Q 947 2416 947 1791 
Q 947 1169 1205 825 
Q 1463 481 1925 481 
Q 2391 481 2648 825 
Q 2906 1169 2906 1791 
z
M 3481 434 
Q 3481 -459 3084 -895 
Q 2688 -1331 1869 -1331 
Q 1566 -1331 1297 -1286 
Q 1028 -1241 775 -1147 
L 775 -588 
Q 1028 -725 1275 -790 
Q 1522 -856 1778 -856 
Q 2344 -856 2625 -561 
Q 2906 -266 2906 331 
L 2906 616 
Q 2728 306 2450 153 
Q 2172 0 1784 0 
Q 1141 0 747 490 
Q 353 981 353 1791 
Q 353 2603 747 3093 
Q 1141 3584 1784 3584 
Q 2172 3584 2450 3431 
Q 2728 3278 2906 2969 
L 2906 3500 
L 3481 3500 
L 3481 434 
z
" transform="scale(0.015625)"/>
       <path id="DejaVuSans-7a" d="M 353 3500 
L 3084 3500 
L 3084 2975 
L 922 459 
L 3084 459 
L 3084 0 
L 275 0 
L 275 525 
L 2438 3041 
L 353 3041 
L 353 3500 
z
" transform="scale(0.015625)"/>
       <path id="DejaVuSans-75" d="M 544 1381 
L 544 3500 
L 1119 3500 
L 1119 1403 
Q 1119 906 1312 657 
Q 1506 409 1894 409 
Q 2359 409 2629 706 
Q 2900 1003 2900 1516 
L 2900 3500 
L 3475 3500 
L 3475 0 
L 2900 0 
L 2900 538 
Q 2691 219 2414 64 
Q 2138 -91 1772 -91 
Q 1169 -91 856 284 
Q 544 659 544 1381 
z
M 1991 3584 
L 1991 3584 
z
" transform="scale(0.015625)"/>
      </defs>
      <use xlink:href="#DejaVuSans-54"/>
      <use xlink:href="#DejaVuSans-72" x="46.333984"/>
      <use xlink:href="#DejaVuSans-61" x="87.447266"/>
      <use xlink:href="#DejaVuSans-69" x="148.726562"/>
      <use xlink:href="#DejaVuSans-6e" x="176.509766"/>
      <use xlink:href="#DejaVuSans-69" x="239.888672"/>
      <use xlink:href="#DejaVuSans-6e" x="267.671875"/>
      <use xlink:href="#DejaVuSans-67" x="331.050781"/>
      <use xlink:href="#DejaVuSans-73" x="394.527344"/>
      <use xlink:href="#DejaVuSans-7a" x="446.626953"/>
      <use xlink:href="#DejaVuSans-65" x="499.117188"/>
      <use xlink:href="#DejaVuSans-69" x="560.640625"/>
      <use xlink:href="#DejaVuSans-74" x="588.423828"/>
      <use xlink:href="#DejaVuSans-20" x="627.632812"/>
      <use xlink:href="#DejaVuSans-28" x="659.419922"/>
      <use xlink:href="#DejaVuSans-69" x="698.433594"/>
      <use xlink:href="#DejaVuSans-6e" x="726.216797"/>
      <use xlink:href="#DejaVuSans-20" x="789.595703"/>
      <use xlink:href="#DejaVuSans-4d" x="821.382812"/>
      <use xlink:href="#DejaVuSans-69" x="907.662109"/>
      <use xlink:href="#DejaVuSans-6e" x="935.445312"/>
      <use xlink:href="#DejaVuSans-75" x="998.824219"/>
      <use xlink:href="#DejaVuSans-74" x="1062.203125"/>
      <use xlink:href="#DejaVuSans-65" x="1101.412109"/>
      <use xlink:href="#DejaVuSans-6e" x="1162.935547"/>
      <use xlink:href="#DejaVuSans-29" x="1226.314453"/>
     </g>
    </g>
   </g>
   <g id="PolyCollection_1">
    <defs>
     <path id="m416276af10" d="M 78.602727 -63.744545 
L 78.602727 -63.768263 
L 81.557807 -64.025578 
L 84.512888 -64.283227 
L 87.467968 -64.543572 
L 90.423048 -66.748221 
L 93.378128 -68.909317 
L 96.333209 -71.078668 
L 99.288289 -73.352856 
L 102.243369 -75.522559 
L 105.198449 -77.692719 
L 108.153529 -79.86778 
L 111.10861 -82.066345 
L 114.06369 -84.223369 
L 117.01877 -86.375107 
L 119.97385 -88.563784 
L 122.92893 -90.775226 
L 125.884011 -92.9452 
L 128.839091 -95.147777 
L 131.794171 -97.32136 
L 134.749251 -99.494983 
L 137.704332 -101.742528 
L 140.659412 -103.932301 
L 143.614492 -106.10718 
L 146.569572 -108.263449 
L 149.524652 -110.413793 
L 152.479733 -112.608391 
L 155.434813 -114.707518 
L 158.389893 -116.929297 
L 161.344973 -119.104964 
L 164.300053 -121.291954 
L 167.255134 -123.434833 
L 170.210214 -125.625642 
L 173.165294 -127.817151 
L 176.120374 -129.98069 
L 179.075455 -132.151745 
L 182.030535 -134.298508 
L 184.985615 -136.486234 
L 187.940695 -138.630855 
L 190.895775 -140.813701 
L 193.850856 -142.94348 
L 196.805936 -145.140071 
L 199.761016 -147.350059 
L 202.716096 -149.602008 
L 205.671176 -151.757784 
L 208.626257 -153.93671 
L 211.581337 -156.095386 
L 214.536417 -158.261301 
L 217.491497 -160.465723 
L 220.446578 -162.669176 
L 223.401658 -164.79459 
L 226.356738 -167.025793 
L 229.311818 -169.254651 
L 232.266898 -171.433133 
L 235.221979 -173.643378 
L 238.177059 -175.810353 
L 241.132139 -177.954168 
L 244.087219 -180.1379 
L 247.042299 -182.272157 
L 249.99738 -184.46992 
L 252.95246 -186.611762 
L 255.90754 -188.784001 
L 258.86262 -190.96341 
L 261.817701 -193.137514 
L 264.772781 -195.291331 
L 267.727861 -197.419952 
L 270.682941 -199.583976 
L 273.638021 -201.762623 
L 276.593102 -203.879202 
L 279.548182 -205.983664 
L 282.503262 -208.101909 
L 285.458342 -210.279095 
L 288.413422 -212.382224 
L 291.368503 -214.55542 
L 294.323583 -216.679486 
L 297.278663 -218.806003 
L 300.233743 -220.929669 
L 303.188824 -223.151586 
L 306.143904 -225.30742 
L 309.098984 -227.519665 
L 312.054064 -229.698372 
L 315.009144 -231.81085 
L 317.964225 -233.974363 
L 320.919305 -236.151416 
L 323.874385 -238.388187 
L 326.829465 -240.530176 
L 329.784545 -242.734678 
L 332.739626 -244.907369 
L 335.694706 -247.07566 
L 338.649786 -249.278831 
L 341.604866 -251.394199 
L 344.559947 -253.519427 
L 347.515027 -255.644878 
L 350.470107 -257.752716 
L 353.425187 -259.982939 
L 356.380267 -262.122555 
L 359.335348 -264.265523 
L 362.290428 -266.432371 
L 365.245508 -268.543685 
L 368.200588 -270.712749 
L 371.155668 -272.875549 
L 374.110749 -275.048061 
L 377.065829 -277.258222 
L 380.020909 -279.480535 
L 382.975989 -281.602919 
L 385.93107 -283.779327 
L 388.88615 -285.953478 
L 391.84123 -288.071264 
L 394.79631 -290.232333 
L 397.75139 -292.404271 
L 400.706471 -294.600605 
L 403.661551 -296.76179 
L 406.616631 -298.886011 
L 409.571711 -301.03573 
L 412.526791 -303.163137 
L 415.481872 -305.275609 
L 418.436952 -307.395444 
L 421.392032 -309.567939 
L 424.347112 -311.715175 
L 427.302193 -313.918628 
L 430.257273 -316.142612 
L 430.257273 -310.962604 
L 430.257273 -310.962604 
L 427.302193 -308.857516 
L 424.347112 -306.779586 
L 421.392032 -304.638862 
L 418.436952 -302.560943 
L 415.481872 -300.46445 
L 412.526791 -298.369621 
L 409.571711 -296.246844 
L 406.616631 -294.168401 
L 403.661551 -292.06461 
L 400.706471 -289.94733 
L 397.75139 -287.773598 
L 394.79631 -285.645867 
L 391.84123 -283.579784 
L 388.88615 -281.478037 
L 385.93107 -279.355079 
L 382.975989 -277.19021 
L 380.020909 -275.057244 
L 377.065829 -272.944094 
L 374.110749 -270.847088 
L 371.155668 -268.720235 
L 368.200588 -266.622064 
L 365.245508 -264.524839 
L 362.290428 -262.409808 
L 359.335348 -260.268 
L 356.380267 -258.153106 
L 353.425187 -256.040304 
L 350.470107 -253.927284 
L 347.515027 -251.773681 
L 344.559947 -249.637975 
L 341.604866 -247.563334 
L 338.649786 -245.465142 
L 335.694706 -243.331072 
L 332.739626 -241.178822 
L 329.784545 -239.055081 
L 326.829465 -236.932386 
L 323.874385 -234.791244 
L 320.919305 -232.669921 
L 317.964225 -230.519197 
L 315.009144 -228.359048 
L 312.054064 -226.24839 
L 309.098984 -224.105342 
L 306.143904 -222.011218 
L 303.188824 -219.860921 
L 300.233743 -217.754712 
L 297.278663 -215.557529 
L 294.323583 -213.438448 
L 291.368503 -211.292166 
L 288.413422 -209.190494 
L 285.458342 -207.046983 
L 282.503262 -204.902559 
L 279.548182 -202.723802 
L 276.593102 -200.583896 
L 273.638021 -198.494626 
L 270.682941 -196.39426 
L 267.727861 -194.337553 
L 264.772781 -192.219749 
L 261.817701 -190.108621 
L 258.86262 -187.941931 
L 255.90754 -185.826583 
L 252.95246 -183.721783 
L 249.99738 -181.574482 
L 247.042299 -179.425181 
L 244.087219 -177.298063 
L 241.132139 -175.157238 
L 238.177059 -173.010691 
L 235.221979 -170.909929 
L 232.266898 -168.729571 
L 229.311818 -166.548484 
L 226.356738 -164.408975 
L 223.401658 -162.309486 
L 220.446578 -160.204032 
L 217.491497 -158.043836 
L 214.536417 -155.90831 
L 211.581337 -153.792931 
L 208.626257 -151.704903 
L 205.671176 -149.5984 
L 202.716096 -147.471816 
L 199.761016 -145.37993 
L 196.805936 -143.276632 
L 193.850856 -141.131116 
L 190.895775 -139.004183 
L 187.940695 -136.892372 
L 184.985615 -134.785444 
L 182.030535 -132.664022 
L 179.075455 -130.553777 
L 176.120374 -128.493786 
L 173.165294 -126.386037 
L 170.210214 -124.242439 
L 167.255134 -122.084895 
L 164.300053 -119.960144 
L 161.344973 -117.809945 
L 158.389893 -115.674185 
L 155.434813 -113.491619 
L 152.479733 -111.349785 
L 149.524652 -109.248353 
L 146.569572 -107.15562 
L 143.614492 -105.06455 
L 140.659412 -102.963633 
L 137.704332 -100.841748 
L 134.749251 -98.722381 
L 131.794171 -96.580714 
L 128.839091 -94.372902 
L 125.884011 -92.219398 
L 122.92893 -90.111962 
L 119.97385 -88.014871 
L 117.01877 -85.883806 
L 114.06369 -83.772142 
L 111.10861 -81.662093 
L 108.153529 -79.548539 
L 105.198449 -77.408028 
L 102.243369 -75.220943 
L 99.288289 -73.11081 
L 96.333209 -70.980936 
L 93.378128 -68.812616 
L 90.423048 -66.663862 
L 87.467968 -64.480408 
L 84.512888 -64.236285 
L 81.557807 -63.993248 
L 78.602727 -63.744545 
z
" style="stroke: #ffffff; stroke-opacity: 0.5"/>
    </defs>
    <g clip-path="url(#pc49952f35d)">
     <use xlink:href="#m416276af10" x="0" y="345.6" style="fill: #4c72b0; fill-opacity: 0.5; stroke: #ffffff; stroke-opacity: 0.5"/>
    </g>
   </g>
   <g id="PolyCollection_2">
    <defs>
     <path id="ma479211bf1" d="M 78.602727 -63.75185 
L 78.602727 -63.767871 
L 81.557807 -64.041076 
L 84.512888 -64.298868 
L 87.467968 -64.549238 
L 90.423048 -66.745575 
L 93.378128 -68.974804 
L 96.333209 -71.245679 
L 99.288289 -73.471115 
L 102.243369 -75.682231 
L 105.198449 -77.855829 
L 108.153529 -79.973447 
L 111.10861 -82.191943 
L 114.06369 -84.366508 
L 117.01877 -86.594588 
L 119.97385 -88.81104 
L 122.92893 -91.054536 
L 125.884011 -93.329025 
L 128.839091 -95.515924 
L 131.794171 -97.768963 
L 134.749251 -99.949606 
L 137.704332 -102.166225 
L 140.659412 -104.467189 
L 143.614492 -106.650587 
L 146.569572 -108.874974 
L 149.524652 -111.108902 
L 152.479733 -113.352048 
L 155.434813 -115.576108 
L 158.389893 -117.761352 
L 161.344973 -119.980303 
L 164.300053 -122.236185 
L 167.255134 -124.365709 
L 170.210214 -126.553597 
L 173.165294 -128.74455 
L 176.120374 -130.934252 
L 179.075455 -133.132521 
L 182.030535 -135.330808 
L 184.985615 -137.474311 
L 187.940695 -139.650852 
L 190.895775 -141.819568 
L 193.850856 -143.991727 
L 196.805936 -146.148721 
L 199.761016 -148.27797 
L 202.716096 -150.339314 
L 205.671176 -152.467311 
L 208.626257 -154.616613 
L 211.581337 -156.713432 
L 214.536417 -158.925124 
L 217.491497 -161.166144 
L 220.446578 -163.293467 
L 223.401658 -165.384281 
L 226.356738 -167.610159 
L 229.311818 -169.759388 
L 232.266898 -171.936607 
L 235.221979 -174.063077 
L 238.177059 -176.255386 
L 241.132139 -178.394881 
L 244.087219 -180.54131 
L 247.042299 -182.712194 
L 249.99738 -184.837708 
L 252.95246 -187.002363 
L 255.90754 -189.136474 
L 258.86262 -191.316499 
L 261.817701 -193.470906 
L 264.772781 -195.630341 
L 267.727861 -197.754038 
L 270.682941 -199.885011 
L 273.638021 -201.982327 
L 276.593102 -204.116125 
L 279.548182 -206.253804 
L 282.503262 -208.393007 
L 285.458342 -210.56087 
L 288.413422 -212.724677 
L 291.368503 -214.87822 
L 294.323583 -217.022293 
L 297.278663 -219.132926 
L 300.233743 -221.265369 
L 303.188824 -223.356654 
L 306.143904 -225.52045 
L 309.098984 -227.743183 
L 312.054064 -229.860525 
L 315.009144 -232.048834 
L 317.964225 -234.164093 
L 320.919305 -236.338499 
L 323.874385 -238.447108 
L 326.829465 -240.60217 
L 329.784545 -242.746677 
L 332.739626 -244.865039 
L 335.694706 -247.016692 
L 338.649786 -249.140279 
L 341.604866 -251.307055 
L 344.559947 -253.431451 
L 347.515027 -255.597865 
L 350.470107 -257.670423 
L 353.425187 -259.790507 
L 356.380267 -261.895108 
L 359.335348 -264.068093 
L 362.290428 -266.194701 
L 365.245508 -268.414214 
L 368.200588 -270.556924 
L 371.155668 -272.705362 
L 374.110749 -274.840564 
L 377.065829 -276.978403 
L 380.020909 -279.233159 
L 382.975989 -281.408135 
L 385.93107 -283.581676 
L 388.88615 -285.720429 
L 391.84123 -287.880615 
L 394.79631 -290.025581 
L 397.75139 -292.152669 
L 400.706471 -294.324787 
L 403.661551 -296.505358 
L 406.616631 -298.666114 
L 409.571711 -300.759199 
L 412.526791 -302.94377 
L 415.481872 -305.079267 
L 418.436952 -307.257103 
L 421.392032 -309.428896 
L 424.347112 -311.565836 
L 427.302193 -313.66775 
L 430.257273 -315.877459 
L 430.257273 -309.778034 
L 430.257273 -309.778034 
L 427.302193 -307.631532 
L 424.347112 -305.556922 
L 421.392032 -303.495625 
L 418.436952 -301.338941 
L 415.481872 -299.260293 
L 412.526791 -297.176024 
L 409.571711 -295.060435 
L 406.616631 -292.986998 
L 403.661551 -290.905698 
L 400.706471 -288.819724 
L 397.75139 -286.769645 
L 394.79631 -284.657587 
L 391.84123 -282.587891 
L 388.88615 -280.435336 
L 385.93107 -278.361425 
L 382.975989 -276.277628 
L 380.020909 -274.17418 
L 377.065829 -272.091997 
L 374.110749 -269.910546 
L 371.155668 -267.800277 
L 368.200588 -265.627717 
L 365.245508 -263.470342 
L 362.290428 -261.373766 
L 359.335348 -259.265046 
L 356.380267 -257.14465 
L 353.425187 -255.023056 
L 350.470107 -252.849671 
L 347.515027 -250.742768 
L 344.559947 -248.61471 
L 341.604866 -246.501661 
L 338.649786 -244.418715 
L 335.694706 -242.316675 
L 332.739626 -240.243497 
L 329.784545 -238.116554 
L 326.829465 -236.039312 
L 323.874385 -233.947232 
L 320.919305 -231.835522 
L 317.964225 -229.719165 
L 315.009144 -227.651135 
L 312.054064 -225.504409 
L 309.098984 -223.403465 
L 306.143904 -221.259818 
L 303.188824 -219.126252 
L 300.233743 -217.017264 
L 297.278663 -214.892201 
L 294.323583 -212.778495 
L 291.368503 -210.609631 
L 288.413422 -208.500479 
L 285.458342 -206.367752 
L 282.503262 -204.237379 
L 279.548182 -202.051917 
L 276.593102 -199.955087 
L 273.638021 -197.91863 
L 270.682941 -195.817288 
L 267.727861 -193.688274 
L 264.772781 -191.61499 
L 261.817701 -189.479661 
L 258.86262 -187.404466 
L 255.90754 -185.248014 
L 252.95246 -183.148336 
L 249.99738 -181.002789 
L 247.042299 -178.885867 
L 244.087219 -176.764878 
L 241.132139 -174.689007 
L 238.177059 -172.572727 
L 235.221979 -170.477706 
L 232.266898 -168.309159 
L 229.311818 -166.131375 
L 226.356738 -163.948948 
L 223.401658 -161.787094 
L 220.446578 -159.674482 
L 217.491497 -157.594882 
L 214.536417 -155.412539 
L 211.581337 -153.21149 
L 208.626257 -151.097177 
L 205.671176 -148.962001 
L 202.716096 -146.918687 
L 199.761016 -144.691829 
L 196.805936 -142.569673 
L 193.850856 -140.428849 
L 190.895775 -138.316425 
L 187.940695 -136.205765 
L 184.985615 -134.112449 
L 182.030535 -131.980408 
L 179.075455 -129.918907 
L 176.120374 -127.820256 
L 173.165294 -125.693315 
L 170.210214 -123.609703 
L 167.255134 -121.497698 
L 164.300053 -119.406068 
L 161.344973 -117.308113 
L 158.389893 -115.208092 
L 155.434813 -113.046172 
L 152.479733 -110.957669 
L 149.524652 -108.848272 
L 146.569572 -106.743204 
L 143.614492 -104.590212 
L 140.659412 -102.438935 
L 137.704332 -100.312622 
L 134.749251 -98.195673 
L 131.794171 -96.052018 
L 128.839091 -93.976581 
L 125.884011 -91.858894 
L 122.92893 -89.722741 
L 119.97385 -87.555345 
L 117.01877 -85.472768 
L 114.06369 -83.414945 
L 111.10861 -81.363759 
L 108.153529 -79.274664 
L 105.198449 -77.160696 
L 102.243369 -75.055631 
L 99.288289 -72.951845 
L 96.333209 -70.850403 
L 93.378128 -68.784079 
L 90.423048 -66.656237 
L 87.467968 -64.512782 
L 84.512888 -64.262555 
L 81.557807 -64.00719 
L 78.602727 -63.75185 
z
" style="stroke: #ffffff; stroke-opacity: 0.5"/>
    </defs>
    <g clip-path="url(#pc49952f35d)">
     <use xlink:href="#ma479211bf1" x="0" y="345.6" style="fill: #dd8452; fill-opacity: 0.5; stroke: #ffffff; stroke-opacity: 0.5"/>
    </g>
   </g>
   <g id="PolyCollection_3">
    <defs>
     <path id="m53b2865443" d="M 78.602727 -63.745956 
L 78.602727 -63.763769 
L 81.557807 -64.024389 
L 84.512888 -64.28391 
L 87.467968 -64.540144 
L 90.423048 -66.795111 
L 93.378128 -69.020308 
L 96.333209 -71.248906 
L 99.288289 -73.449052 
L 102.243369 -75.73766 
L 105.198449 -77.971731 
L 108.153529 -80.175369 
L 111.10861 -82.412809 
L 114.06369 -84.637041 
L 117.01877 -86.884004 
L 119.97385 -89.091356 
L 122.92893 -91.315699 
L 125.884011 -93.491663 
L 128.839091 -95.712038 
L 131.794171 -97.943609 
L 134.749251 -100.183397 
L 137.704332 -102.348286 
L 140.659412 -104.538883 
L 143.614492 -106.775374 
L 146.569572 -108.940276 
L 149.524652 -111.215545 
L 152.479733 -113.417593 
L 155.434813 -115.617101 
L 158.389893 -117.900527 
L 161.344973 -120.162351 
L 164.300053 -122.339477 
L 167.255134 -124.606149 
L 170.210214 -126.775525 
L 173.165294 -128.951122 
L 176.120374 -131.174754 
L 179.075455 -133.405632 
L 182.030535 -135.678256 
L 184.985615 -137.895231 
L 187.940695 -140.104086 
L 190.895775 -142.268202 
L 193.850856 -144.496477 
L 196.805936 -146.742336 
L 199.761016 -148.936117 
L 202.716096 -151.157082 
L 205.671176 -153.336229 
L 208.626257 -155.474264 
L 211.581337 -157.67068 
L 214.536417 -159.911642 
L 217.491497 -162.093617 
L 220.446578 -164.233961 
L 223.401658 -166.355409 
L 226.356738 -168.52179 
L 229.311818 -170.686332 
L 232.266898 -172.854103 
L 235.221979 -175.075093 
L 238.177059 -177.256512 
L 241.132139 -179.51329 
L 244.087219 -181.705694 
L 247.042299 -183.861172 
L 249.99738 -186.065256 
L 252.95246 -188.23112 
L 255.90754 -190.369605 
L 258.86262 -192.528355 
L 261.817701 -194.682397 
L 264.772781 -196.813451 
L 267.727861 -198.914952 
L 270.682941 -201.042153 
L 273.638021 -203.234171 
L 276.593102 -205.456412 
L 279.548182 -207.654415 
L 282.503262 -209.853256 
L 285.458342 -212.010293 
L 288.413422 -214.168517 
L 291.368503 -216.361797 
L 294.323583 -218.556032 
L 297.278663 -220.737871 
L 300.233743 -222.93094 
L 303.188824 -225.107095 
L 306.143904 -227.271918 
L 309.098984 -229.42336 
L 312.054064 -231.574982 
L 315.009144 -233.793425 
L 317.964225 -235.974843 
L 320.919305 -238.126528 
L 323.874385 -240.231082 
L 326.829465 -242.381239 
L 329.784545 -244.648235 
L 332.739626 -246.780413 
L 335.694706 -248.974741 
L 338.649786 -251.149157 
L 341.604866 -253.325691 
L 344.559947 -255.488393 
L 347.515027 -257.627343 
L 350.470107 -259.747847 
L 353.425187 -261.949257 
L 356.380267 -264.163695 
L 359.335348 -266.298056 
L 362.290428 -268.464801 
L 365.245508 -270.657589 
L 368.200588 -272.849871 
L 371.155668 -274.993881 
L 374.110749 -277.163372 
L 377.065829 -279.333085 
L 380.020909 -281.450049 
L 382.975989 -283.584958 
L 385.93107 -285.732752 
L 388.88615 -287.907796 
L 391.84123 -290.092376 
L 394.79631 -292.304131 
L 397.75139 -294.441819 
L 400.706471 -296.604892 
L 403.661551 -298.765682 
L 406.616631 -300.938874 
L 409.571711 -303.090021 
L 412.526791 -305.292554 
L 415.481872 -307.438468 
L 418.436952 -309.565815 
L 421.392032 -311.760657 
L 424.347112 -313.937783 
L 427.302193 -316.078529 
L 430.257273 -318.283987 
L 430.257273 -310.936018 
L 430.257273 -310.936018 
L 427.302193 -308.824546 
L 424.347112 -306.762062 
L 421.392032 -304.648118 
L 418.436952 -302.509895 
L 415.481872 -300.360904 
L 412.526791 -298.243954 
L 409.571711 -296.116559 
L 406.616631 -294.012118 
L 403.661551 -291.91726 
L 400.706471 -289.808832 
L 397.75139 -287.717243 
L 394.79631 -285.590895 
L 391.84123 -283.489143 
L 388.88615 -281.339657 
L 385.93107 -279.277555 
L 382.975989 -277.136813 
L 380.020909 -274.903295 
L 377.065829 -272.706071 
L 374.110749 -270.59188 
L 371.155668 -268.519088 
L 368.200588 -266.423896 
L 365.245508 -264.293475 
L 362.290428 -262.137679 
L 359.335348 -260.045563 
L 356.380267 -257.897669 
L 353.425187 -255.733818 
L 350.470107 -253.591913 
L 347.515027 -251.457212 
L 344.559947 -249.332121 
L 341.604866 -247.210116 
L 338.649786 -245.086997 
L 335.694706 -242.972035 
L 332.739626 -240.854107 
L 329.784545 -238.683787 
L 326.829465 -236.554813 
L 323.874385 -234.456102 
L 320.919305 -232.308286 
L 317.964225 -230.201979 
L 315.009144 -228.091332 
L 312.054064 -225.885204 
L 309.098984 -223.795839 
L 306.143904 -221.681809 
L 303.188824 -219.556548 
L 300.233743 -217.418541 
L 297.278663 -215.265874 
L 294.323583 -213.035902 
L 291.368503 -210.912055 
L 288.413422 -208.783532 
L 285.458342 -206.659483 
L 282.503262 -204.574705 
L 279.548182 -202.444739 
L 276.593102 -200.318242 
L 273.638021 -198.154226 
L 270.682941 -196.005029 
L 267.727861 -193.896378 
L 264.772781 -191.753591 
L 261.817701 -189.58159 
L 258.86262 -187.376501 
L 255.90754 -185.267102 
L 252.95246 -183.125209 
L 249.99738 -181.036078 
L 247.042299 -178.916175 
L 244.087219 -176.756742 
L 241.132139 -174.693453 
L 238.177059 -172.581313 
L 235.221979 -170.488416 
L 232.266898 -168.389421 
L 229.311818 -166.268558 
L 226.356738 -164.191176 
L 223.401658 -162.107327 
L 220.446578 -160.015621 
L 217.491497 -157.926026 
L 214.536417 -155.741581 
L 211.581337 -153.586021 
L 208.626257 -151.448055 
L 205.671176 -149.360559 
L 202.716096 -147.236247 
L 199.761016 -145.162477 
L 196.805936 -143.025479 
L 193.850856 -140.890134 
L 190.895775 -138.765595 
L 187.940695 -136.606997 
L 184.985615 -134.466648 
L 182.030535 -132.415067 
L 179.075455 -130.286117 
L 176.120374 -128.145795 
L 173.165294 -126.008232 
L 170.210214 -123.849998 
L 167.255134 -121.69163 
L 164.300053 -119.563513 
L 161.344973 -117.436652 
L 158.389893 -115.37682 
L 155.434813 -113.243163 
L 152.479733 -111.141314 
L 149.524652 -109.026995 
L 146.569572 -106.934853 
L 143.614492 -104.778222 
L 140.659412 -102.689189 
L 137.704332 -100.619785 
L 134.749251 -98.52225 
L 131.794171 -96.389611 
L 128.839091 -94.281505 
L 125.884011 -92.127259 
L 122.92893 -90.069824 
L 119.97385 -87.964427 
L 117.01877 -85.824255 
L 114.06369 -83.723357 
L 111.10861 -81.638009 
L 108.153529 -79.51323 
L 105.198449 -77.426558 
L 102.243369 -75.327416 
L 99.288289 -73.171971 
L 96.333209 -70.99692 
L 93.378128 -68.851117 
L 90.423048 -66.653685 
L 87.467968 -64.502705 
L 84.512888 -64.249303 
L 81.557807 -63.99861 
L 78.602727 -63.745956 
z
" style="stroke: #ffffff; stroke-opacity: 0.5"/>
    </defs>
    <g clip-path="url(#pc49952f35d)">
     <use xlink:href="#m53b2865443" x="0" y="345.6" style="fill: #55a868; fill-opacity: 0.5; stroke: #ffffff; stroke-opacity: 0.5"/>
    </g>
   </g>
   <g id="PolyCollection_4">
    <defs>
     <path id="m6cb2e91729" d="M 78.602727 -63.752802 
L 78.602727 -63.760598 
L 81.557807 -64.036143 
L 84.512888 -64.294015 
L 87.467968 -64.551062 
L 90.423048 -66.761339 
L 93.378128 -68.981071 
L 96.333209 -71.215563 
L 99.288289 -73.476898 
L 102.243369 -75.699522 
L 105.198449 -77.939824 
L 108.153529 -80.161466 
L 111.10861 -82.391847 
L 114.06369 -84.629786 
L 117.01877 -86.8884 
L 119.97385 -89.180495 
L 122.92893 -91.403033 
L 125.884011 -93.699923 
L 128.839091 -96.00611 
L 131.794171 -98.267137 
L 134.749251 -100.552652 
L 137.704332 -102.784743 
L 140.659412 -104.99859 
L 143.614492 -107.220833 
L 146.569572 -109.464319 
L 149.524652 -111.677211 
L 152.479733 -113.914353 
L 155.434813 -116.193996 
L 158.389893 -118.449196 
L 161.344973 -120.685519 
L 164.300053 -122.914375 
L 167.255134 -125.202193 
L 170.210214 -127.464832 
L 173.165294 -129.727238 
L 176.120374 -131.985239 
L 179.075455 -134.21706 
L 182.030535 -136.457755 
L 184.985615 -138.700032 
L 187.940695 -140.920755 
L 190.895775 -143.14273 
L 193.850856 -145.447257 
L 196.805936 -147.685274 
L 199.761016 -150.018839 
L 202.716096 -152.253168 
L 205.671176 -154.484318 
L 208.626257 -156.661407 
L 211.581337 -158.881912 
L 214.536417 -161.108197 
L 217.491497 -163.317555 
L 220.446578 -165.484061 
L 223.401658 -167.659649 
L 226.356738 -169.837758 
L 229.311818 -172.004156 
L 232.266898 -174.207137 
L 235.221979 -176.505145 
L 238.177059 -178.680372 
L 241.132139 -180.870372 
L 244.087219 -183.011127 
L 247.042299 -185.204622 
L 249.99738 -187.387078 
L 252.95246 -189.613929 
L 255.90754 -191.756613 
L 258.86262 -193.9222 
L 261.817701 -196.13863 
L 264.772781 -198.407219 
L 267.727861 -200.640097 
L 270.682941 -202.81796 
L 273.638021 -205.055207 
L 276.593102 -207.275983 
L 279.548182 -209.487538 
L 282.503262 -211.605316 
L 285.458342 -213.731492 
L 288.413422 -215.843749 
L 291.368503 -217.97362 
L 294.323583 -220.130806 
L 297.278663 -222.290572 
L 300.233743 -224.449902 
L 303.188824 -226.608808 
L 306.143904 -228.738101 
L 309.098984 -230.906246 
L 312.054064 -233.034142 
L 315.009144 -235.25555 
L 317.964225 -237.417984 
L 320.919305 -239.640449 
L 323.874385 -241.859983 
L 326.829465 -243.999291 
L 329.784545 -246.130969 
L 332.739626 -248.244168 
L 335.694706 -250.395145 
L 338.649786 -252.545201 
L 341.604866 -254.652883 
L 344.559947 -256.758788 
L 347.515027 -258.843887 
L 350.470107 -260.995563 
L 353.425187 -263.141602 
L 356.380267 -265.28225 
L 359.335348 -267.39279 
L 362.290428 -269.49676 
L 365.245508 -271.681919 
L 368.200588 -273.838665 
L 371.155668 -275.91801 
L 374.110749 -277.999866 
L 377.065829 -280.144542 
L 380.020909 -282.237018 
L 382.975989 -284.383275 
L 385.93107 -286.543989 
L 388.88615 -288.70555 
L 391.84123 -290.852524 
L 394.79631 -292.982255 
L 397.75139 -295.105109 
L 400.706471 -297.250616 
L 403.661551 -299.37318 
L 406.616631 -301.543215 
L 409.571711 -303.747674 
L 412.526791 -305.838743 
L 415.481872 -308.046857 
L 418.436952 -310.197087 
L 421.392032 -312.35992 
L 424.347112 -314.478051 
L 427.302193 -316.607616 
L 430.257273 -318.730426 
L 430.257273 -311.608467 
L 430.257273 -311.608467 
L 427.302193 -309.517545 
L 424.347112 -307.351009 
L 421.392032 -305.166228 
L 418.436952 -303.036802 
L 415.481872 -300.873589 
L 412.526791 -298.760982 
L 409.571711 -296.675251 
L 406.616631 -294.586628 
L 403.661551 -292.465114 
L 400.706471 -290.349039 
L 397.75139 -288.198851 
L 394.79631 -286.061799 
L 391.84123 -283.876053 
L 388.88615 -281.693391 
L 385.93107 -279.546348 
L 382.975989 -277.389592 
L 380.020909 -275.241846 
L 377.065829 -273.13236 
L 374.110749 -271.004134 
L 371.155668 -268.792171 
L 368.200588 -266.654222 
L 365.245508 -264.528756 
L 362.290428 -262.406701 
L 359.335348 -260.283115 
L 356.380267 -258.174899 
L 353.425187 -256.047307 
L 350.470107 -253.917142 
L 347.515027 -251.81303 
L 344.559947 -249.681978 
L 341.604866 -247.582056 
L 338.649786 -245.39986 
L 335.694706 -243.30866 
L 332.739626 -241.133987 
L 329.784545 -239.006897 
L 326.829465 -236.921583 
L 323.874385 -234.830206 
L 320.919305 -232.624541 
L 317.964225 -230.482698 
L 315.009144 -228.379467 
L 312.054064 -226.23031 
L 309.098984 -224.105118 
L 306.143904 -221.976041 
L 303.188824 -219.866142 
L 300.233743 -217.738002 
L 297.278663 -215.616076 
L 294.323583 -213.471475 
L 291.368503 -211.356511 
L 288.413422 -209.22027 
L 285.458342 -207.054752 
L 282.503262 -204.993028 
L 279.548182 -202.869755 
L 276.593102 -200.7296 
L 273.638021 -198.593921 
L 270.682941 -196.405193 
L 267.727861 -194.36332 
L 264.772781 -192.240286 
L 261.817701 -190.134598 
L 258.86262 -187.992322 
L 255.90754 -185.858888 
L 252.95246 -183.727076 
L 249.99738 -181.596631 
L 247.042299 -179.526436 
L 244.087219 -177.414968 
L 241.132139 -175.26363 
L 238.177059 -173.123913 
L 235.221979 -171.01473 
L 232.266898 -168.879611 
L 229.311818 -166.794133 
L 226.356738 -164.694506 
L 223.401658 -162.549158 
L 220.446578 -160.317039 
L 217.491497 -158.224038 
L 214.536417 -156.085021 
L 211.581337 -153.904097 
L 208.626257 -151.785459 
L 205.671176 -149.669845 
L 202.716096 -147.578404 
L 199.761016 -145.431227 
L 196.805936 -143.297837 
L 193.850856 -141.185779 
L 190.895775 -139.126244 
L 187.940695 -137.013009 
L 184.985615 -134.872947 
L 182.030535 -132.7543 
L 179.075455 -130.642241 
L 176.120374 -128.528652 
L 173.165294 -126.402164 
L 170.210214 -124.198516 
L 167.255134 -122.104536 
L 164.300053 -119.983378 
L 161.344973 -117.869238 
L 158.389893 -115.738226 
L 155.434813 -113.603635 
L 152.479733 -111.443552 
L 149.524652 -109.332624 
L 146.569572 -107.156668 
L 143.614492 -105.064841 
L 140.659412 -102.953811 
L 137.704332 -100.817272 
L 134.749251 -98.722375 
L 131.794171 -96.58874 
L 128.839091 -94.503006 
L 125.884011 -92.385586 
L 122.92893 -90.271266 
L 119.97385 -88.101646 
L 117.01877 -85.947791 
L 114.06369 -83.830832 
L 111.10861 -81.72764 
L 108.153529 -79.635531 
L 105.198449 -77.502699 
L 102.243369 -75.325573 
L 99.288289 -73.188411 
L 96.333209 -71.010394 
L 93.378128 -68.874354 
L 90.423048 -66.720366 
L 87.467968 -64.514588 
L 84.512888 -64.257686 
L 81.557807 -64.007951 
L 78.602727 -63.752802 
z
" style="stroke: #ffffff; stroke-opacity: 0.5"/>
    </defs>
    <g clip-path="url(#pc49952f35d)">
     <use xlink:href="#m6cb2e91729" x="0" y="345.6" style="fill: #c44e52; fill-opacity: 0.5; stroke: #ffffff; stroke-opacity: 0.5"/>
    </g>
   </g>
   <g id="PolyCollection_5">
    <defs>
     <path id="md5d8d09855" d="M 78.602727 -63.750408 
L 78.602727 -63.765681 
L 81.557807 -64.041846 
L 84.512888 -64.308355 
L 87.467968 -64.56187 
L 90.423048 -66.769919 
L 93.378128 -69.011459 
L 96.333209 -71.200416 
L 99.288289 -73.414598 
L 102.243369 -75.651399 
L 105.198449 -77.900995 
L 108.153529 -80.095188 
L 111.10861 -82.315176 
L 114.06369 -84.557831 
L 117.01877 -86.723147 
L 119.97385 -88.904271 
L 122.92893 -91.141676 
L 125.884011 -93.428942 
L 128.839091 -95.569833 
L 131.794171 -97.783519 
L 134.749251 -100.032573 
L 137.704332 -102.212918 
L 140.659412 -104.415004 
L 143.614492 -106.665315 
L 146.569572 -108.863875 
L 149.524652 -111.105991 
L 152.479733 -113.297534 
L 155.434813 -115.535976 
L 158.389893 -117.706367 
L 161.344973 -119.896226 
L 164.300053 -122.097292 
L 167.255134 -124.363605 
L 170.210214 -126.64121 
L 173.165294 -128.854143 
L 176.120374 -131.035378 
L 179.075455 -133.245813 
L 182.030535 -135.545714 
L 184.985615 -137.838915 
L 187.940695 -140.073195 
L 190.895775 -142.300426 
L 193.850856 -144.502848 
L 196.805936 -146.776176 
L 199.761016 -148.949597 
L 202.716096 -151.134716 
L 205.671176 -153.341789 
L 208.626257 -155.547739 
L 211.581337 -157.774332 
L 214.536417 -159.980624 
L 217.491497 -162.173922 
L 220.446578 -164.424362 
L 223.401658 -166.635813 
L 226.356738 -168.883387 
L 229.311818 -171.085291 
L 232.266898 -173.295248 
L 235.221979 -175.507863 
L 238.177059 -177.762788 
L 241.132139 -179.962467 
L 244.087219 -182.09935 
L 247.042299 -184.293097 
L 249.99738 -186.492399 
L 252.95246 -188.68759 
L 255.90754 -190.84199 
L 258.86262 -193.112971 
L 261.817701 -195.27146 
L 264.772781 -197.521515 
L 267.727861 -199.675276 
L 270.682941 -201.915769 
L 273.638021 -204.117182 
L 276.593102 -206.348431 
L 279.548182 -208.553376 
L 282.503262 -210.659074 
L 285.458342 -212.766486 
L 288.413422 -215.00101 
L 291.368503 -217.179765 
L 294.323583 -219.371312 
L 297.278663 -221.511197 
L 300.233743 -223.709328 
L 303.188824 -225.9075 
L 306.143904 -228.082665 
L 309.098984 -230.312429 
L 312.054064 -232.484362 
L 315.009144 -234.650055 
L 317.964225 -236.780227 
L 320.919305 -239.056599 
L 323.874385 -241.238104 
L 326.829465 -243.458644 
L 329.784545 -245.640991 
L 332.739626 -247.821224 
L 335.694706 -250.026348 
L 338.649786 -252.228003 
L 341.604866 -254.419581 
L 344.559947 -256.643353 
L 347.515027 -258.834401 
L 350.470107 -261.011146 
L 353.425187 -263.297251 
L 356.380267 -265.466642 
L 359.335348 -267.588706 
L 362.290428 -269.74445 
L 365.245508 -271.934131 
L 368.200588 -274.122489 
L 371.155668 -276.256617 
L 374.110749 -278.434798 
L 377.065829 -280.617602 
L 380.020909 -282.767177 
L 382.975989 -284.959536 
L 385.93107 -287.143754 
L 388.88615 -289.291249 
L 391.84123 -291.455621 
L 394.79631 -293.609338 
L 397.75139 -295.792941 
L 400.706471 -297.97853 
L 403.661551 -300.237863 
L 406.616631 -302.453232 
L 409.571711 -304.546499 
L 412.526791 -306.707868 
L 415.481872 -308.889874 
L 418.436952 -311.07636 
L 421.392032 -313.230802 
L 424.347112 -315.403043 
L 427.302193 -317.62295 
L 430.257273 -319.835455 
L 430.257273 -312.39671 
L 430.257273 -312.39671 
L 427.302193 -310.305814 
L 424.347112 -308.194044 
L 421.392032 -306.059217 
L 418.436952 -303.922955 
L 415.481872 -301.812749 
L 412.526791 -299.673654 
L 409.571711 -297.550298 
L 406.616631 -295.401668 
L 403.661551 -293.32994 
L 400.706471 -291.267965 
L 397.75139 -289.158273 
L 394.79631 -287.038672 
L 391.84123 -284.861477 
L 388.88615 -282.70202 
L 385.93107 -280.592326 
L 382.975989 -278.465183 
L 380.020909 -276.353608 
L 377.065829 -274.222307 
L 374.110749 -272.090794 
L 371.155668 -269.948149 
L 368.200588 -267.805541 
L 365.245508 -265.622973 
L 362.290428 -263.494653 
L 359.335348 -261.376565 
L 356.380267 -259.226758 
L 353.425187 -257.113911 
L 350.470107 -255.02114 
L 347.515027 -252.903068 
L 344.559947 -250.772001 
L 341.604866 -248.567886 
L 338.649786 -246.491437 
L 335.694706 -244.365729 
L 332.739626 -242.200794 
L 329.784545 -240.06568 
L 326.829465 -237.933525 
L 323.874385 -235.811288 
L 320.919305 -233.689207 
L 317.964225 -231.507178 
L 315.009144 -229.334268 
L 312.054064 -227.254643 
L 309.098984 -225.125006 
L 306.143904 -222.989076 
L 303.188824 -220.876193 
L 300.233743 -218.732794 
L 297.278663 -216.565562 
L 294.323583 -214.441108 
L 291.368503 -212.209265 
L 288.413422 -210.080244 
L 285.458342 -207.950943 
L 282.503262 -205.792246 
L 279.548182 -203.64501 
L 276.593102 -201.528272 
L 273.638021 -199.336816 
L 270.682941 -197.144638 
L 267.727861 -195.007142 
L 264.772781 -192.885395 
L 261.817701 -190.748735 
L 258.86262 -188.62239 
L 255.90754 -186.49403 
L 252.95246 -184.370063 
L 249.99738 -182.205306 
L 247.042299 -180.05445 
L 244.087219 -177.900965 
L 241.132139 -175.716607 
L 238.177059 -173.567419 
L 235.221979 -171.4689 
L 232.266898 -169.365797 
L 229.311818 -167.28851 
L 226.356738 -165.083171 
L 223.401658 -162.965841 
L 220.446578 -160.843371 
L 217.491497 -158.685442 
L 214.536417 -156.575249 
L 211.581337 -154.439712 
L 208.626257 -152.278145 
L 205.671176 -150.15767 
L 202.716096 -148.030783 
L 199.761016 -145.917229 
L 196.805936 -143.783033 
L 193.850856 -141.641982 
L 190.895775 -139.438113 
L 187.940695 -137.309076 
L 184.985615 -135.186499 
L 182.030535 -133.056053 
L 179.075455 -130.904888 
L 176.120374 -128.832539 
L 173.165294 -126.659049 
L 170.210214 -124.573651 
L 167.255134 -122.430647 
L 164.300053 -120.281683 
L 161.344973 -118.135569 
L 158.389893 -116.018134 
L 155.434813 -113.921463 
L 152.479733 -111.793085 
L 149.524652 -109.663391 
L 146.569572 -107.555989 
L 143.614492 -105.430465 
L 140.659412 -103.262647 
L 137.704332 -101.09983 
L 134.749251 -98.985153 
L 131.794171 -96.852297 
L 128.839091 -94.714198 
L 125.884011 -92.59571 
L 122.92893 -90.424566 
L 119.97385 -88.337414 
L 117.01877 -86.25204 
L 114.06369 -84.120824 
L 111.10861 -81.953571 
L 108.153529 -79.77815 
L 105.198449 -77.606668 
L 102.243369 -75.436231 
L 99.288289 -73.297409 
L 96.333209 -71.082613 
L 93.378128 -68.899135 
L 90.423048 -66.709544 
L 87.467968 -64.512931 
L 84.512888 -64.248401 
L 81.557807 -63.997706 
L 78.602727 -63.750408 
z
" style="stroke: #ffffff; stroke-opacity: 0.5"/>
    </defs>
    <g clip-path="url(#pc49952f35d)">
     <use xlink:href="#md5d8d09855" x="0" y="345.6" style="fill: #8172b3; fill-opacity: 0.5; stroke: #ffffff; stroke-opacity: 0.5"/>
    </g>
   </g>
   <g id="line2d_14">
    <path d="M 78.602727 281.845497 
L 81.557807 281.59101 
L 84.512888 281.339169 
L 87.467968 281.086149 
L 90.423048 278.897288 
L 93.378128 276.734719 
L 96.333209 274.569815 
L 99.288289 272.388542 
L 102.243369 270.233345 
L 105.198449 268.067011 
L 108.153529 265.914009 
L 111.10861 263.747855 
L 114.06369 261.599064 
L 117.01877 259.44736 
L 119.97385 257.255858 
L 122.92893 255.101256 
L 125.884011 252.931358 
L 128.839091 250.750632 
L 131.794171 248.557536 
L 134.749251 246.410451 
L 137.704332 244.247397 
L 140.659412 242.09014 
L 143.614492 239.955451 
L 146.569572 237.799376 
L 149.524652 235.621612 
L 152.479733 233.438527 
L 155.434813 231.273303 
L 158.389893 229.104175 
L 161.344973 226.936072 
L 164.300053 224.787904 
L 167.255134 222.646123 
L 170.210214 220.464226 
L 173.165294 218.314978 
L 176.120374 216.172384 
L 179.075455 214.015968 
L 182.030535 211.857877 
L 184.985615 209.70516 
L 187.940695 207.561611 
L 190.895775 205.392067 
L 193.850856 203.245309 
L 196.805936 201.093052 
L 199.761016 198.944939 
L 202.716096 196.784888 
L 205.671176 194.619389 
L 208.626257 192.475009 
L 211.581337 190.333043 
L 214.536417 188.185708 
L 217.491497 186.029568 
L 220.446578 183.859768 
L 223.401658 181.71906 
L 226.356738 179.540913 
L 229.311818 177.34113 
L 232.266898 175.163676 
L 235.221979 172.970182 
L 238.177059 170.804679 
L 241.132139 168.657486 
L 244.087219 166.476329 
L 247.042299 164.32018 
L 249.99738 162.14841 
L 252.95246 159.98324 
L 255.90754 157.836891 
L 258.86262 155.669586 
L 261.817701 153.523613 
L 264.772781 151.393122 
L 267.727861 149.256574 
L 270.682941 147.11983 
L 273.638021 144.987974 
L 276.593102 142.856882 
L 279.548182 140.714088 
L 282.503262 138.561528 
L 285.458342 136.404482 
L 288.413422 134.253992 
L 291.368503 132.121474 
L 294.323583 129.97186 
L 297.278663 127.82706 
L 300.233743 125.683722 
L 303.188824 123.546136 
L 306.143904 121.422103 
L 309.098984 119.292695 
L 312.054064 117.161743 
L 315.009144 115.035763 
L 317.964225 112.8791 
L 320.919305 110.739022 
L 323.874385 108.577421 
L 326.829465 106.448772 
L 329.784545 104.309177 
L 332.739626 102.162723 
L 335.694706 100.038451 
L 338.649786 97.879396 
L 341.604866 95.747509 
L 344.559947 93.637699 
L 347.515027 91.482386 
L 350.470107 89.361958 
L 353.425187 87.234892 
L 356.380267 85.108548 
L 359.335348 82.953014 
L 362.290428 80.807823 
L 365.245508 78.665769 
L 368.200588 76.52581 
L 371.155668 74.398789 
L 374.110749 72.280919 
L 377.065829 70.165271 
L 380.020909 68.038103 
L 382.975989 65.919123 
L 385.93107 63.760912 
L 388.88615 61.620192 
L 391.84123 59.502658 
L 394.79631 57.389444 
L 397.75139 55.277331 
L 400.706471 53.144786 
L 403.661551 51.012712 
L 406.616631 48.869464 
L 409.571711 46.729188 
L 412.526791 44.593117 
L 415.481872 42.429796 
L 418.436952 40.27583 
L 421.392032 38.129481 
L 424.347112 35.985779 
L 427.302193 33.819979 
L 430.257273 31.666707 
" clip-path="url(#pc49952f35d)" style="fill: none; stroke: #4c72b0; stroke-width: 3; stroke-linecap: round"/>
   </g>
   <g id="line2d_15">
    <path d="M 78.602727 281.839855 
L 81.557807 281.578223 
L 84.512888 281.322419 
L 87.467968 281.069664 
L 90.423048 278.884517 
L 93.378128 276.705447 
L 96.333209 274.517499 
L 99.288289 272.323087 
L 102.243369 270.132074 
L 105.198449 267.95941 
L 108.153529 265.795055 
L 111.10861 263.614883 
L 114.06369 261.464838 
L 117.01877 259.264993 
L 119.97385 257.081508 
L 122.92893 254.910712 
L 125.884011 252.716489 
L 128.839091 250.543271 
L 131.794171 248.400757 
L 134.749251 246.230493 
L 137.704332 244.097001 
L 140.659412 241.912122 
L 143.614492 239.756654 
L 146.569572 237.583789 
L 149.524652 235.415876 
L 152.479733 233.252994 
L 155.434813 231.10272 
L 158.389893 228.931332 
L 161.344973 226.773223 
L 164.300053 224.618047 
L 167.255134 222.475928 
L 170.210214 220.335632 
L 173.165294 218.180728 
L 176.120374 216.011356 
L 179.075455 213.842103 
L 182.030535 211.699522 
L 184.985615 209.562642 
L 187.940695 207.401456 
L 190.895775 205.243624 
L 193.850856 203.103201 
L 196.805936 200.936639 
L 199.761016 198.799414 
L 202.716096 196.654456 
L 205.671176 194.562461 
L 208.626257 192.415413 
L 211.581337 190.292199 
L 214.536417 188.11992 
L 217.491497 185.933521 
L 220.446578 183.796626 
L 223.401658 181.652798 
L 226.356738 179.457047 
L 229.311818 177.300601 
L 232.266898 175.149463 
L 235.221979 172.989094 
L 238.177059 170.844876 
L 241.132139 168.699597 
L 244.087219 166.567379 
L 247.042299 164.407718 
L 249.99738 162.273691 
L 252.95246 160.117127 
L 255.90754 157.985109 
L 258.86262 155.837053 
L 261.817701 153.685587 
L 264.772781 151.53453 
L 267.727861 149.404047 
L 270.682941 147.262614 
L 273.638021 145.133027 
L 276.593102 143.019661 
L 279.548182 140.858272 
L 282.503262 138.72334 
L 285.458342 136.563767 
L 288.413422 134.437956 
L 291.368503 132.273853 
L 294.323583 130.124282 
L 297.278663 127.987802 
L 300.233743 125.840482 
L 303.188824 123.693197 
L 306.143904 121.544693 
L 309.098984 119.405319 
L 312.054064 117.257007 
L 315.009144 115.092806 
L 317.964225 112.965484 
L 320.919305 110.813065 
L 323.874385 108.694224 
L 326.829465 106.561122 
L 329.784545 104.392331 
L 332.739626 102.251737 
L 335.694706 100.135942 
L 338.649786 98.012515 
L 341.604866 95.886261 
L 344.559947 93.763944 
L 347.515027 91.609684 
L 350.470107 89.484911 
L 353.425187 87.321956 
L 356.380267 85.204382 
L 359.335348 83.061382 
L 362.290428 80.90054 
L 365.245508 78.749823 
L 368.200588 76.590022 
L 371.155668 74.427749 
L 374.110749 72.283335 
L 377.065829 70.14662 
L 380.020909 67.999607 
L 382.975989 65.848455 
L 385.93107 63.720026 
L 388.88615 61.595991 
L 391.84123 59.421815 
L 394.79631 57.297299 
L 397.75139 55.155568 
L 400.706471 53.028793 
L 403.661551 50.882358 
L 406.616631 48.738611 
L 409.571711 46.631568 
L 412.526791 44.463042 
L 415.481872 42.345908 
L 418.436952 40.202591 
L 421.392032 38.049485 
L 424.347112 35.915121 
L 427.302193 33.797251 
L 430.257273 31.638195 
" clip-path="url(#pc49952f35d)" style="fill: none; stroke: #dd8452; stroke-width: 3; stroke-linecap: round"/>
   </g>
   <g id="line2d_16">
    <path d="M 78.602727 281.843258 
L 81.557807 281.585195 
L 84.512888 281.32978 
L 87.467968 281.075561 
L 90.423048 278.891911 
L 93.378128 276.687239 
L 96.333209 274.497036 
L 99.288289 272.306912 
L 102.243369 270.101014 
L 105.198449 267.926257 
L 108.153529 265.766803 
L 111.10861 263.584244 
L 114.06369 261.409332 
L 117.01877 259.240038 
L 119.97385 257.059502 
L 122.92893 254.886342 
L 125.884011 252.750902 
L 128.839091 250.565583 
L 131.794171 248.388501 
L 134.749251 246.20859 
L 137.704332 244.066776 
L 140.659412 241.929329 
L 143.614492 239.747625 
L 146.569572 237.579936 
L 149.524652 235.38701 
L 152.479733 233.204318 
L 155.434813 231.037668 
L 158.389893 228.850636 
L 161.344973 226.661385 
L 164.300053 224.508948 
L 167.255134 222.318495 
L 170.210214 220.156478 
L 173.165294 217.992753 
L 176.120374 215.825612 
L 179.075455 213.644127 
L 182.030535 211.475488 
L 184.985615 209.3214 
L 187.940695 207.161524 
L 190.895775 204.996829 
L 193.850856 202.813077 
L 196.805936 200.616036 
L 199.761016 198.439723 
L 202.716096 196.292165 
L 205.671176 194.144191 
L 208.626257 191.993084 
L 211.581337 189.845408 
L 214.536417 187.664076 
L 217.491497 185.470242 
L 220.446578 183.314022 
L 223.401658 181.165626 
L 226.356738 179.002235 
L 229.311818 176.834412 
L 232.266898 174.664183 
L 235.221979 172.501889 
L 238.177059 170.354805 
L 241.132139 168.20163 
L 244.087219 166.089593 
L 247.042299 163.936191 
L 249.99738 161.780525 
L 252.95246 159.627528 
L 255.90754 157.486789 
L 258.86262 155.338828 
L 261.817701 153.190781 
L 264.772781 151.017201 
L 267.727861 148.872064 
L 270.682941 146.740245 
L 273.638021 144.576961 
L 276.593102 142.375812 
L 279.548182 140.227098 
L 282.503262 138.069802 
L 285.458342 135.937272 
L 288.413422 133.793673 
L 291.368503 131.636211 
L 294.323583 129.489633 
L 297.278663 127.311382 
L 300.233743 125.138455 
L 303.188824 122.999471 
L 306.143904 120.854316 
L 309.098984 118.702013 
L 312.054064 116.538422 
L 315.009144 114.356537 
L 317.964225 112.193133 
L 320.919305 110.070722 
L 323.874385 107.930629 
L 326.829465 105.797341 
L 329.784545 103.63663 
L 332.739626 101.476982 
L 335.694706 99.327126 
L 338.649786 97.186799 
L 341.604866 95.025445 
L 344.559947 92.877481 
L 347.515027 90.718823 
L 350.470107 88.588026 
L 353.425187 86.435815 
L 356.380267 84.274492 
L 359.335348 82.142371 
L 362.290428 80.000133 
L 365.245508 77.84673 
L 368.200588 75.691233 
L 371.155668 73.536854 
L 374.110749 71.390395 
L 377.065829 69.230149 
L 380.020909 67.067079 
L 382.975989 64.900334 
L 385.93107 62.757778 
L 388.88615 60.64466 
L 391.84123 58.488746 
L 394.79631 56.334242 
L 397.75139 54.196276 
L 400.706471 52.061694 
L 403.661551 49.927772 
L 406.616631 47.80308 
L 409.571711 45.688176 
L 412.526791 43.562666 
L 415.481872 41.418631 
L 418.436952 39.266907 
L 421.392032 37.091832 
L 424.347112 34.944663 
L 427.302193 32.818067 
L 430.257273 30.663828 
" clip-path="url(#pc49952f35d)" style="fill: none; stroke: #55a868; stroke-width: 3; stroke-linecap: round"/>
   </g>
   <g id="line2d_17">
    <path d="M 78.602727 281.843869 
L 81.557807 281.582619 
L 84.512888 281.329109 
L 87.467968 281.075418 
L 90.423048 278.859205 
L 93.378128 276.681545 
L 96.333209 274.484755 
L 99.288289 272.283019 
L 102.243369 270.085763 
L 105.198449 267.868757 
L 108.153529 265.670475 
L 111.10861 263.48186 
L 114.06369 261.301488 
L 117.01877 259.13564 
L 119.97385 256.9611 
L 122.92893 254.760832 
L 125.884011 252.578107 
L 128.839091 250.376079 
L 131.794171 248.20597 
L 134.749251 246.030487 
L 137.704332 243.861979 
L 140.659412 241.690691 
L 143.614492 239.537108 
L 146.569572 237.393826 
L 149.524652 235.234646 
L 152.479733 233.09332 
L 155.434813 230.897296 
L 158.389893 228.74454 
L 161.344973 226.607688 
L 164.300053 224.447245 
L 167.255134 222.270143 
L 170.210214 220.124806 
L 173.165294 217.921871 
L 176.120374 215.754429 
L 179.075455 213.59914 
L 182.030535 211.448129 
L 184.985615 209.285681 
L 187.940695 207.113257 
L 190.895775 204.963346 
L 193.850856 202.812133 
L 196.805936 200.649172 
L 199.761016 198.477229 
L 202.716096 196.32762 
L 205.671176 194.146568 
L 208.626257 192.003431 
L 211.581337 189.843044 
L 214.536417 187.680809 
L 217.491497 185.510337 
L 220.446578 183.352856 
L 223.401658 181.182599 
L 226.356738 179.026407 
L 229.311818 176.855166 
L 232.266898 174.690275 
L 235.221979 172.524574 
L 238.177059 170.349252 
L 241.132139 168.175682 
L 244.087219 166.024274 
L 247.042299 163.891148 
L 249.99738 161.743981 
L 252.95246 159.593696 
L 255.90754 157.447794 
L 258.86262 155.299016 
L 261.817701 153.148203 
L 264.772781 150.980833 
L 267.727861 148.821862 
L 270.682941 146.698882 
L 273.638021 144.5307 
L 276.593102 142.384376 
L 279.548182 140.222635 
L 282.503262 138.115076 
L 285.458342 136.000469 
L 288.413422 133.830105 
L 291.368503 131.671058 
L 294.323583 129.55733 
L 297.278663 127.414406 
L 300.233743 125.279081 
L 303.188824 123.124575 
L 306.143904 120.970413 
L 309.098984 118.79212 
L 312.054064 116.656443 
L 315.009144 114.502446 
L 317.964225 112.378689 
L 320.919305 110.22428 
L 323.874385 108.050831 
L 326.829465 105.914785 
L 329.784545 103.749356 
L 332.739626 101.598434 
L 335.694706 99.453128 
L 338.649786 97.293831 
L 341.604866 95.149768 
L 344.559947 93.040961 
L 347.515027 90.928434 
L 350.470107 88.815319 
L 353.425187 86.656832 
L 356.380267 84.502729 
L 359.335348 82.372211 
L 362.290428 80.251177 
L 365.245508 78.120912 
L 368.200588 75.97525 
L 371.155668 73.841767 
L 374.110749 71.699771 
L 377.065829 69.579534 
L 380.020909 67.452919 
L 382.975989 65.300551 
L 385.93107 63.149226 
L 388.88615 60.972025 
L 391.84123 58.842395 
L 394.79631 56.731374 
L 397.75139 54.586883 
L 400.706471 52.453494 
L 403.661551 50.334754 
L 406.616631 48.171064 
L 409.571711 46.03275 
L 412.526791 43.897279 
L 415.481872 41.755027 
L 418.436952 39.606919 
L 421.392032 37.464631 
L 424.347112 35.320649 
L 427.302193 33.175307 
L 430.257273 31.03267 
" clip-path="url(#pc49952f35d)" style="fill: none; stroke: #c44e52; stroke-width: 3; stroke-linecap: round"/>
   </g>
   <g id="line2d_18">
    <path d="M 78.602727 281.841198 
L 81.557807 281.584428 
L 84.512888 281.329058 
L 87.467968 281.071299 
L 90.423048 278.861952 
L 93.378128 276.644892 
L 96.333209 274.455218 
L 99.288289 272.252833 
L 102.243369 270.075482 
L 105.198449 267.873263 
L 108.153529 265.683817 
L 111.10861 263.493779 
L 114.06369 261.303837 
L 117.01877 259.11867 
L 119.97385 256.963672 
L 122.92893 254.787888 
L 125.884011 252.588857 
L 128.839091 250.444869 
L 131.794171 248.272426 
L 134.749251 246.112018 
L 137.704332 243.957994 
L 140.659412 241.768556 
L 143.614492 239.582599 
L 146.569572 237.440267 
L 149.524652 235.247969 
L 152.479733 233.089217 
L 155.434813 230.94425 
L 158.389893 228.785429 
L 161.344973 226.619475 
L 164.300053 224.447314 
L 167.255134 222.263996 
L 170.210214 220.078689 
L 173.165294 217.9334 
L 176.120374 215.755581 
L 179.075455 213.605795 
L 182.030535 211.414098 
L 184.985615 209.254514 
L 187.940695 207.085346 
L 190.895775 204.885355 
L 193.850856 202.697284 
L 196.805936 200.523362 
L 199.761016 198.383992 
L 202.716096 196.23116 
L 205.671176 194.069503 
L 208.626257 191.895343 
L 211.581337 189.714884 
L 214.536417 187.535838 
L 217.491497 185.355997 
L 220.446578 183.176443 
L 223.401658 180.978503 
L 226.356738 178.809723 
L 229.311818 176.642212 
L 232.266898 174.506862 
L 235.221979 172.346565 
L 238.177059 170.190806 
L 241.132139 168.021631 
L 244.087219 165.869597 
L 247.042299 163.712646 
L 249.99738 161.562497 
L 252.95246 159.407932 
L 255.90754 157.254851 
L 258.86262 155.083709 
L 261.817701 152.959454 
L 264.772781 150.805614 
L 267.727861 148.658912 
L 270.682941 146.513603 
L 273.638021 144.329543 
L 276.593102 142.146713 
L 279.548182 139.995005 
L 282.503262 137.852129 
L 285.458342 135.712854 
L 288.413422 133.535979 
L 291.368503 131.358967 
L 294.323583 129.173078 
L 297.278663 127.013774 
L 300.233743 124.840496 
L 303.188824 122.661133 
L 306.143904 120.479576 
L 309.098984 118.289326 
L 312.054064 116.124181 
L 315.009144 113.991845 
L 317.964225 111.845343 
L 320.919305 109.668326 
L 323.874385 107.513261 
L 326.829465 105.347894 
L 329.784545 103.220314 
L 332.739626 101.081451 
L 335.694706 98.913232 
L 338.649786 96.759203 
L 341.604866 94.60725 
L 344.559947 92.445529 
L 347.515027 90.298272 
L 350.470107 88.148677 
L 353.425187 85.999931 
L 356.380267 83.854185 
L 359.335348 81.710133 
L 362.290428 79.57294 
L 365.245508 77.394173 
L 368.200588 75.206838 
L 371.155668 73.056486 
L 374.110749 70.905212 
L 377.065829 68.75181 
L 380.020909 66.598373 
L 382.975989 64.423771 
L 385.93107 62.276749 
L 388.88615 60.127293 
L 391.84123 57.96656 
L 394.79631 55.809027 
L 397.75139 53.656662 
L 400.706471 51.512773 
L 403.661551 49.358647 
L 406.616631 47.20611 
L 409.571711 45.083645 
L 412.526791 42.923896 
L 415.481872 40.779132 
L 418.436952 38.621588 
L 421.392032 36.476704 
L 424.347112 34.312303 
L 427.302193 32.170488 
L 430.257273 30.019404 
" clip-path="url(#pc49952f35d)" style="fill: none; stroke: #8172b3; stroke-width: 3; stroke-linecap: round"/>
   </g>
   <g id="patch_3">
    <path d="M 61.02 294.66 
L 61.02 12.96 
" style="fill: none; stroke: #ffffff; stroke-width: 1.25; stroke-linejoin: miter; stroke-linecap: square"/>
   </g>
   <g id="patch_4">
    <path d="M 447.84 294.66 
L 447.84 12.96 
" style="fill: none; stroke: #ffffff; stroke-width: 1.25; stroke-linejoin: miter; stroke-linecap: square"/>
   </g>
   <g id="patch_5">
    <path d="M 61.02 294.66 
L 447.84 294.66 
" style="fill: none; stroke: #ffffff; stroke-width: 1.25; stroke-linejoin: miter; stroke-linecap: square"/>
   </g>
   <g id="patch_6">
    <path d="M 61.02 12.96 
L 447.84 12.96 
" style="fill: none; stroke: #ffffff; stroke-width: 1.25; stroke-linejoin: miter; stroke-linecap: square"/>
   </g>
   <g id="legend_1">
    <g id="patch_7">
     <path d="M 68.72 102.489688 
L 181.939219 102.489688 
Q 184.139219 102.489688 184.139219 100.289688 
L 184.139219 20.66 
Q 184.139219 18.46 181.939219 18.46 
L 68.72 18.46 
Q 66.52 18.46 66.52 20.66 
L 66.52 100.289688 
Q 66.52 102.489688 68.72 102.489688 
z
" style="fill: #eaeaf2; opacity: 0.8; stroke: #cccccc; stroke-linejoin: miter"/>
    </g>
    <g id="line2d_19">
     <path d="M 70.92 27.368281 
L 81.92 27.368281 
L 92.92 27.368281 
" style="fill: none; stroke: #4c72b0; stroke-width: 3; stroke-linecap: round"/>
    </g>
    <g id="text_16">
     <!-- SAC-DELAY-0 -->
     <g style="fill: #262626" transform="translate(101.72 31.218281)scale(0.11 -0.11)">
      <defs>
       <path id="DejaVuSans-53" d="M 3425 4513 
L 3425 3897 
Q 3066 4069 2747 4153 
Q 2428 4238 2131 4238 
Q 1616 4238 1336 4038 
Q 1056 3838 1056 3469 
Q 1056 3159 1242 3001 
Q 1428 2844 1947 2747 
L 2328 2669 
Q 3034 2534 3370 2195 
Q 3706 1856 3706 1288 
Q 3706 609 3251 259 
Q 2797 -91 1919 -91 
Q 1588 -91 1214 -16 
Q 841 59 441 206 
L 441 856 
Q 825 641 1194 531 
Q 1563 422 1919 422 
Q 2459 422 2753 634 
Q 3047 847 3047 1241 
Q 3047 1584 2836 1778 
Q 2625 1972 2144 2069 
L 1759 2144 
Q 1053 2284 737 2584 
Q 422 2884 422 3419 
Q 422 4038 858 4394 
Q 1294 4750 2059 4750 
Q 2388 4750 2728 4690 
Q 3069 4631 3425 4513 
z
" transform="scale(0.015625)"/>
       <path id="DejaVuSans-41" d="M 2188 4044 
L 1331 1722 
L 3047 1722 
L 2188 4044 
z
M 1831 4666 
L 2547 4666 
L 4325 0 
L 3669 0 
L 3244 1197 
L 1141 1197 
L 716 0 
L 50 0 
L 1831 4666 
z
" transform="scale(0.015625)"/>
       <path id="DejaVuSans-43" d="M 4122 4306 
L 4122 3641 
Q 3803 3938 3442 4084 
Q 3081 4231 2675 4231 
Q 1875 4231 1450 3742 
Q 1025 3253 1025 2328 
Q 1025 1406 1450 917 
Q 1875 428 2675 428 
Q 3081 428 3442 575 
Q 3803 722 4122 1019 
L 4122 359 
Q 3791 134 3420 21 
Q 3050 -91 2638 -91 
Q 1578 -91 968 557 
Q 359 1206 359 2328 
Q 359 3453 968 4101 
Q 1578 4750 2638 4750 
Q 3056 4750 3426 4639 
Q 3797 4528 4122 4306 
z
" transform="scale(0.015625)"/>
       <path id="DejaVuSans-2d" d="M 313 2009 
L 1997 2009 
L 1997 1497 
L 313 1497 
L 313 2009 
z
" transform="scale(0.015625)"/>
       <path id="DejaVuSans-44" d="M 1259 4147 
L 1259 519 
L 2022 519 
Q 2988 519 3436 956 
Q 3884 1394 3884 2338 
Q 3884 3275 3436 3711 
Q 2988 4147 2022 4147 
L 1259 4147 
z
M 628 4666 
L 1925 4666 
Q 3281 4666 3915 4102 
Q 4550 3538 4550 2338 
Q 4550 1131 3912 565 
Q 3275 0 1925 0 
L 628 0 
L 628 4666 
z
" transform="scale(0.015625)"/>
       <path id="DejaVuSans-45" d="M 628 4666 
L 3578 4666 
L 3578 4134 
L 1259 4134 
L 1259 2753 
L 3481 2753 
L 3481 2222 
L 1259 2222 
L 1259 531 
L 3634 531 
L 3634 0 
L 628 0 
L 628 4666 
z
" transform="scale(0.015625)"/>
       <path id="DejaVuSans-4c" d="M 628 4666 
L 1259 4666 
L 1259 531 
L 3531 531 
L 3531 0 
L 628 0 
L 628 4666 
z
" transform="scale(0.015625)"/>
       <path id="DejaVuSans-59" d="M -13 4666 
L 666 4666 
L 1959 2747 
L 3244 4666 
L 3922 4666 
L 2272 2222 
L 2272 0 
L 1638 0 
L 1638 2222 
L -13 4666 
z
" transform="scale(0.015625)"/>
      </defs>
      <use xlink:href="#DejaVuSans-53"/>
      <use xlink:href="#DejaVuSans-41" x="65.351562"/>
      <use xlink:href="#DejaVuSans-43" x="132.009766"/>
      <use xlink:href="#DejaVuSans-2d" x="201.833984"/>
      <use xlink:href="#DejaVuSans-44" x="237.917969"/>
      <use xlink:href="#DejaVuSans-45" x="314.919922"/>
      <use xlink:href="#DejaVuSans-4c" x="378.103516"/>
      <use xlink:href="#DejaVuSans-41" x="436.066406"/>
      <use xlink:href="#DejaVuSans-59" x="496.724609"/>
      <use xlink:href="#DejaVuSans-2d" x="545.933594"/>
      <use xlink:href="#DejaVuSans-30" x="582.017578"/>
     </g>
    </g>
    <g id="line2d_20">
     <path d="M 70.92 43.514219 
L 81.92 43.514219 
L 92.92 43.514219 
" style="fill: none; stroke: #dd8452; stroke-width: 3; stroke-linecap: round"/>
    </g>
    <g id="text_17">
     <!-- SAC-DELAY-1 -->
     <g style="fill: #262626" transform="translate(101.72 47.364219)scale(0.11 -0.11)">
      <use xlink:href="#DejaVuSans-53"/>
      <use xlink:href="#DejaVuSans-41" x="65.351562"/>
      <use xlink:href="#DejaVuSans-43" x="132.009766"/>
      <use xlink:href="#DejaVuSans-2d" x="201.833984"/>
      <use xlink:href="#DejaVuSans-44" x="237.917969"/>
      <use xlink:href="#DejaVuSans-45" x="314.919922"/>
      <use xlink:href="#DejaVuSans-4c" x="378.103516"/>
      <use xlink:href="#DejaVuSans-41" x="436.066406"/>
      <use xlink:href="#DejaVuSans-59" x="496.724609"/>
      <use xlink:href="#DejaVuSans-2d" x="545.933594"/>
      <use xlink:href="#DejaVuSans-31" x="582.017578"/>
     </g>
    </g>
    <g id="line2d_21">
     <path d="M 70.92 59.660156 
L 81.92 59.660156 
L 92.92 59.660156 
" style="fill: none; stroke: #55a868; stroke-width: 3; stroke-linecap: round"/>
    </g>
    <g id="text_18">
     <!-- SAC-DELAY-5 -->
     <g style="fill: #262626" transform="translate(101.72 63.510156)scale(0.11 -0.11)">
      <use xlink:href="#DejaVuSans-53"/>
      <use xlink:href="#DejaVuSans-41" x="65.351562"/>
      <use xlink:href="#DejaVuSans-43" x="132.009766"/>
      <use xlink:href="#DejaVuSans-2d" x="201.833984"/>
      <use xlink:href="#DejaVuSans-44" x="237.917969"/>
      <use xlink:href="#DejaVuSans-45" x="314.919922"/>
      <use xlink:href="#DejaVuSans-4c" x="378.103516"/>
      <use xlink:href="#DejaVuSans-41" x="436.066406"/>
      <use xlink:href="#DejaVuSans-59" x="496.724609"/>
      <use xlink:href="#DejaVuSans-2d" x="545.933594"/>
      <use xlink:href="#DejaVuSans-35" x="582.017578"/>
     </g>
    </g>
    <g id="line2d_22">
     <path d="M 70.92 75.806094 
L 81.92 75.806094 
L 92.92 75.806094 
" style="fill: none; stroke: #c44e52; stroke-width: 3; stroke-linecap: round"/>
    </g>
    <g id="text_19">
     <!-- SAC-DELAY-10 -->
     <g style="fill: #262626" transform="translate(101.72 79.656094)scale(0.11 -0.11)">
      <use xlink:href="#DejaVuSans-53"/>
      <use xlink:href="#DejaVuSans-41" x="65.351562"/>
      <use xlink:href="#DejaVuSans-43" x="132.009766"/>
      <use xlink:href="#DejaVuSans-2d" x="201.833984"/>
      <use xlink:href="#DejaVuSans-44" x="237.917969"/>
      <use xlink:href="#DejaVuSans-45" x="314.919922"/>
      <use xlink:href="#DejaVuSans-4c" x="378.103516"/>
      <use xlink:href="#DejaVuSans-41" x="436.066406"/>
      <use xlink:href="#DejaVuSans-59" x="496.724609"/>
      <use xlink:href="#DejaVuSans-2d" x="545.933594"/>
      <use xlink:href="#DejaVuSans-31" x="582.017578"/>
      <use xlink:href="#DejaVuSans-30" x="645.640625"/>
     </g>
    </g>
    <g id="line2d_23">
     <path d="M 70.92 91.952031 
L 81.92 91.952031 
L 92.92 91.952031 
" style="fill: none; stroke: #8172b3; stroke-width: 3; stroke-linecap: round"/>
    </g>
    <g id="text_20">
     <!-- SAC-DELAY-20 -->
     <g style="fill: #262626" transform="translate(101.72 95.802031)scale(0.11 -0.11)">
      <use xlink:href="#DejaVuSans-53"/>
      <use xlink:href="#DejaVuSans-41" x="65.351562"/>
      <use xlink:href="#DejaVuSans-43" x="132.009766"/>
      <use xlink:href="#DejaVuSans-2d" x="201.833984"/>
      <use xlink:href="#DejaVuSans-44" x="237.917969"/>
      <use xlink:href="#DejaVuSans-45" x="314.919922"/>
      <use xlink:href="#DejaVuSans-4c" x="378.103516"/>
      <use xlink:href="#DejaVuSans-41" x="436.066406"/>
      <use xlink:href="#DejaVuSans-59" x="496.724609"/>
      <use xlink:href="#DejaVuSans-2d" x="545.933594"/>
      <use xlink:href="#DejaVuSans-32" x="582.017578"/>
      <use xlink:href="#DejaVuSans-30" x="645.640625"/>
     </g>
    </g>
   </g>
  </g>
 </g>
 <defs>
  <clipPath id="pc49952f35d">
   <rect x="61.02" y="12.96" width="386.82" height="281.7"/>
  </clipPath>
 </defs>
</svg>
