<?xml version="1.0" encoding="utf-8" standalone="no"?>
<!DOCTYPE svg PUBLIC "-//W3C//DTD SVG 1.1//EN"
  "http://www.w3.org/Graphics/SVG/1.1/DTD/svg11.dtd">
<svg xmlns:xlink="http://www.w3.org/1999/xlink" width="460.8pt" height="345.6pt" viewBox="0 0 460.8 345.6" xmlns="http://www.w3.org/2000/svg" version="1.1">
 <metadata>
  <rdf:RDF xmlns:dc="http://purl.org/dc/elements/1.1/" xmlns:cc="http://creativecommons.org/ns#" xmlns:rdf="http://www.w3.org/1999/02/22-rdf-syntax-ns#">
   <cc:Work>
    <dc:type rdf:resource="http://purl.org/dc/dcmitype/StillImage"/>
    <dc:date>2022-09-12T15:17:23.098473</dc:date>
    <dc:format>image/svg+xml</dc:format>
    <dc:creator>
     <cc:Agent>
      <dc:title>Matplotlib v3.5.3, https://matplotlib.org/</dc:title>
     </cc:Agent>
    </dc:creator>
   </cc:Work>
  </rdf:RDF>
 </metadata>
 <defs>
  <style type="text/css">*{stroke-linejoin: round; stroke-linecap: butt}</style>
 </defs>
 <g id="figure_1">
  <g id="patch_1">
   <path d="M 0 345.6 
L 460.8 345.6 
L 460.8 0 
L 0 0 
z
" style="fill: #ffffff"/>
  </g>
  <g id="axes_1">
   <g id="patch_2">
    <path d="M 67.86 294.66 
L 447.84 294.66 
L 447.84 12.96 
L 67.86 12.96 
z
" style="fill: #eaeaf2"/>
   </g>
   <g id="matplotlib.axis_1">
    <g id="xtick_1">
     <g id="line2d_1">
      <path d="M 82.228992 294.66 
L 82.228992 12.96 
" clip-path="url(#pee93aed932)" style="fill: none; stroke: #ffffff; stroke-linecap: round"/>
     </g>
     <g id="text_1">
      <!-- 0.00 -->
      <g style="fill: #262626" transform="translate(69.982898 312.518281)scale(0.11 -0.11)">
       <defs>
        <path id="DejaVuSans-30" d="M 2034 4250 
Q 1547 4250 1301 3770 
Q 1056 3291 1056 2328 
Q 1056 1369 1301 889 
Q 1547 409 2034 409 
Q 2525 409 2770 889 
Q 3016 1369 3016 2328 
Q 3016 3291 2770 3770 
Q 2525 4250 2034 4250 
z
M 2034 4750 
Q 2819 4750 3233 4129 
Q 3647 3509 3647 2328 
Q 3647 1150 3233 529 
Q 2819 -91 2034 -91 
Q 1250 -91 836 529 
Q 422 1150 422 2328 
Q 422 3509 836 4129 
Q 1250 4750 2034 4750 
z
" transform="scale(0.015625)"/>
        <path id="DejaVuSans-2e" d="M 684 794 
L 1344 794 
L 1344 0 
L 684 0 
L 684 794 
z
" transform="scale(0.015625)"/>
       </defs>
       <use xlink:href="#DejaVuSans-30"/>
       <use xlink:href="#DejaVuSans-2e" x="63.623047"/>
       <use xlink:href="#DejaVuSans-30" x="95.410156"/>
       <use xlink:href="#DejaVuSans-30" x="159.033203"/>
      </g>
     </g>
    </g>
    <g id="xtick_2">
     <g id="line2d_2">
      <path d="M 140.285523 294.66 
L 140.285523 12.96 
" clip-path="url(#pee93aed932)" style="fill: none; stroke: #ffffff; stroke-linecap: round"/>
     </g>
     <g id="text_2">
      <!-- 0.05 -->
      <g style="fill: #262626" transform="translate(128.03943 312.518281)scale(0.11 -0.11)">
       <defs>
        <path id="DejaVuSans-35" d="M 691 4666 
L 3169 4666 
L 3169 4134 
L 1269 4134 
L 1269 2991 
Q 1406 3038 1543 3061 
Q 1681 3084 1819 3084 
Q 2600 3084 3056 2656 
Q 3513 2228 3513 1497 
Q 3513 744 3044 326 
Q 2575 -91 1722 -91 
Q 1428 -91 1123 -41 
Q 819 9 494 109 
L 494 744 
Q 775 591 1075 516 
Q 1375 441 1709 441 
Q 2250 441 2565 725 
Q 2881 1009 2881 1497 
Q 2881 1984 2565 2268 
Q 2250 2553 1709 2553 
Q 1456 2553 1204 2497 
Q 953 2441 691 2322 
L 691 4666 
z
" transform="scale(0.015625)"/>
       </defs>
       <use xlink:href="#DejaVuSans-30"/>
       <use xlink:href="#DejaVuSans-2e" x="63.623047"/>
       <use xlink:href="#DejaVuSans-30" x="95.410156"/>
       <use xlink:href="#DejaVuSans-35" x="159.033203"/>
      </g>
     </g>
    </g>
    <g id="xtick_3">
     <g id="line2d_3">
      <path d="M 198.342055 294.66 
L 198.342055 12.96 
" clip-path="url(#pee93aed932)" style="fill: none; stroke: #ffffff; stroke-linecap: round"/>
     </g>
     <g id="text_3">
      <!-- 0.10 -->
      <g style="fill: #262626" transform="translate(186.095961 312.518281)scale(0.11 -0.11)">
       <defs>
        <path id="DejaVuSans-31" d="M 794 531 
L 1825 531 
L 1825 4091 
L 703 3866 
L 703 4441 
L 1819 4666 
L 2450 4666 
L 2450 531 
L 3481 531 
L 3481 0 
L 794 0 
L 794 531 
z
" transform="scale(0.015625)"/>
       </defs>
       <use xlink:href="#DejaVuSans-30"/>
       <use xlink:href="#DejaVuSans-2e" x="63.623047"/>
       <use xlink:href="#DejaVuSans-31" x="95.410156"/>
       <use xlink:href="#DejaVuSans-30" x="159.033203"/>
      </g>
     </g>
    </g>
    <g id="xtick_4">
     <g id="line2d_4">
      <path d="M 256.398587 294.66 
L 256.398587 12.96 
" clip-path="url(#pee93aed932)" style="fill: none; stroke: #ffffff; stroke-linecap: round"/>
     </g>
     <g id="text_4">
      <!-- 0.15 -->
      <g style="fill: #262626" transform="translate(244.152493 312.518281)scale(0.11 -0.11)">
       <use xlink:href="#DejaVuSans-30"/>
       <use xlink:href="#DejaVuSans-2e" x="63.623047"/>
       <use xlink:href="#DejaVuSans-31" x="95.410156"/>
       <use xlink:href="#DejaVuSans-35" x="159.033203"/>
      </g>
     </g>
    </g>
    <g id="xtick_5">
     <g id="line2d_5">
      <path d="M 314.455118 294.66 
L 314.455118 12.96 
" clip-path="url(#pee93aed932)" style="fill: none; stroke: #ffffff; stroke-linecap: round"/>
     </g>
     <g id="text_5">
      <!-- 0.20 -->
      <g style="fill: #262626" transform="translate(302.209025 312.518281)scale(0.11 -0.11)">
       <defs>
        <path id="DejaVuSans-32" d="M 1228 531 
L 3431 531 
L 3431 0 
L 469 0 
L 469 531 
Q 828 903 1448 1529 
Q 2069 2156 2228 2338 
Q 2531 2678 2651 2914 
Q 2772 3150 2772 3378 
Q 2772 3750 2511 3984 
Q 2250 4219 1831 4219 
Q 1534 4219 1204 4116 
Q 875 4013 500 3803 
L 500 4441 
Q 881 4594 1212 4672 
Q 1544 4750 1819 4750 
Q 2544 4750 2975 4387 
Q 3406 4025 3406 3419 
Q 3406 3131 3298 2873 
Q 3191 2616 2906 2266 
Q 2828 2175 2409 1742 
Q 1991 1309 1228 531 
z
" transform="scale(0.015625)"/>
       </defs>
       <use xlink:href="#DejaVuSans-30"/>
       <use xlink:href="#DejaVuSans-2e" x="63.623047"/>
       <use xlink:href="#DejaVuSans-32" x="95.410156"/>
       <use xlink:href="#DejaVuSans-30" x="159.033203"/>
      </g>
     </g>
    </g>
    <g id="xtick_6">
     <g id="line2d_6">
      <path d="M 372.51165 294.66 
L 372.51165 12.96 
" clip-path="url(#pee93aed932)" style="fill: none; stroke: #ffffff; stroke-linecap: round"/>
     </g>
     <g id="text_6">
      <!-- 0.25 -->
      <g style="fill: #262626" transform="translate(360.265556 312.518281)scale(0.11 -0.11)">
       <use xlink:href="#DejaVuSans-30"/>
       <use xlink:href="#DejaVuSans-2e" x="63.623047"/>
       <use xlink:href="#DejaVuSans-32" x="95.410156"/>
       <use xlink:href="#DejaVuSans-35" x="159.033203"/>
      </g>
     </g>
    </g>
    <g id="xtick_7">
     <g id="line2d_7">
      <path d="M 430.568182 294.66 
L 430.568182 12.96 
" clip-path="url(#pee93aed932)" style="fill: none; stroke: #ffffff; stroke-linecap: round"/>
     </g>
     <g id="text_7">
      <!-- 0.30 -->
      <g style="fill: #262626" transform="translate(418.322088 312.518281)scale(0.11 -0.11)">
       <defs>
        <path id="DejaVuSans-33" d="M 2597 2516 
Q 3050 2419 3304 2112 
Q 3559 1806 3559 1356 
Q 3559 666 3084 287 
Q 2609 -91 1734 -91 
Q 1441 -91 1130 -33 
Q 819 25 488 141 
L 488 750 
Q 750 597 1062 519 
Q 1375 441 1716 441 
Q 2309 441 2620 675 
Q 2931 909 2931 1356 
Q 2931 1769 2642 2001 
Q 2353 2234 1838 2234 
L 1294 2234 
L 1294 2753 
L 1863 2753 
Q 2328 2753 2575 2939 
Q 2822 3125 2822 3475 
Q 2822 3834 2567 4026 
Q 2313 4219 1838 4219 
Q 1578 4219 1281 4162 
Q 984 4106 628 3988 
L 628 4550 
Q 988 4650 1302 4700 
Q 1616 4750 1894 4750 
Q 2613 4750 3031 4423 
Q 3450 4097 3450 3541 
Q 3450 3153 3228 2886 
Q 3006 2619 2597 2516 
z
" transform="scale(0.015625)"/>
       </defs>
       <use xlink:href="#DejaVuSans-30"/>
       <use xlink:href="#DejaVuSans-2e" x="63.623047"/>
       <use xlink:href="#DejaVuSans-33" x="95.410156"/>
       <use xlink:href="#DejaVuSans-30" x="159.033203"/>
      </g>
     </g>
    </g>
    <g id="text_8">
     <!-- Zeitschritte (in Millionen) -->
     <g style="fill: #262626" transform="translate(169.935469 329.44375)scale(0.14 -0.14)">
      <defs>
       <path id="DejaVuSans-5a" d="M 359 4666 
L 4025 4666 
L 4025 4184 
L 1075 531 
L 4097 531 
L 4097 0 
L 288 0 
L 288 481 
L 3238 4134 
L 359 4134 
L 359 4666 
z
" transform="scale(0.015625)"/>
       <path id="DejaVuSans-65" d="M 3597 1894 
L 3597 1613 
L 953 1613 
Q 991 1019 1311 708 
Q 1631 397 2203 397 
Q 2534 397 2845 478 
Q 3156 559 3463 722 
L 3463 178 
Q 3153 47 2828 -22 
Q 2503 -91 2169 -91 
Q 1331 -91 842 396 
Q 353 884 353 1716 
Q 353 2575 817 3079 
Q 1281 3584 2069 3584 
Q 2775 3584 3186 3129 
Q 3597 2675 3597 1894 
z
M 3022 2063 
Q 3016 2534 2758 2815 
Q 2500 3097 2075 3097 
Q 1594 3097 1305 2825 
Q 1016 2553 972 2059 
L 3022 2063 
z
" transform="scale(0.015625)"/>
       <path id="DejaVuSans-69" d="M 603 3500 
L 1178 3500 
L 1178 0 
L 603 0 
L 603 3500 
z
M 603 4863 
L 1178 4863 
L 1178 4134 
L 603 4134 
L 603 4863 
z
" transform="scale(0.015625)"/>
       <path id="DejaVuSans-74" d="M 1172 4494 
L 1172 3500 
L 2356 3500 
L 2356 3053 
L 1172 3053 
L 1172 1153 
Q 1172 725 1289 603 
Q 1406 481 1766 481 
L 2356 481 
L 2356 0 
L 1766 0 
Q 1100 0 847 248 
Q 594 497 594 1153 
L 594 3053 
L 172 3053 
L 172 3500 
L 594 3500 
L 594 4494 
L 1172 4494 
z
" transform="scale(0.015625)"/>
       <path id="DejaVuSans-73" d="M 2834 3397 
L 2834 2853 
Q 2591 2978 2328 3040 
Q 2066 3103 1784 3103 
Q 1356 3103 1142 2972 
Q 928 2841 928 2578 
Q 928 2378 1081 2264 
Q 1234 2150 1697 2047 
L 1894 2003 
Q 2506 1872 2764 1633 
Q 3022 1394 3022 966 
Q 3022 478 2636 193 
Q 2250 -91 1575 -91 
Q 1294 -91 989 -36 
Q 684 19 347 128 
L 347 722 
Q 666 556 975 473 
Q 1284 391 1588 391 
Q 1994 391 2212 530 
Q 2431 669 2431 922 
Q 2431 1156 2273 1281 
Q 2116 1406 1581 1522 
L 1381 1569 
Q 847 1681 609 1914 
Q 372 2147 372 2553 
Q 372 3047 722 3315 
Q 1072 3584 1716 3584 
Q 2034 3584 2315 3537 
Q 2597 3491 2834 3397 
z
" transform="scale(0.015625)"/>
       <path id="DejaVuSans-63" d="M 3122 3366 
L 3122 2828 
Q 2878 2963 2633 3030 
Q 2388 3097 2138 3097 
Q 1578 3097 1268 2742 
Q 959 2388 959 1747 
Q 959 1106 1268 751 
Q 1578 397 2138 397 
Q 2388 397 2633 464 
Q 2878 531 3122 666 
L 3122 134 
Q 2881 22 2623 -34 
Q 2366 -91 2075 -91 
Q 1284 -91 818 406 
Q 353 903 353 1747 
Q 353 2603 823 3093 
Q 1294 3584 2113 3584 
Q 2378 3584 2631 3529 
Q 2884 3475 3122 3366 
z
" transform="scale(0.015625)"/>
       <path id="DejaVuSans-68" d="M 3513 2113 
L 3513 0 
L 2938 0 
L 2938 2094 
Q 2938 2591 2744 2837 
Q 2550 3084 2163 3084 
Q 1697 3084 1428 2787 
Q 1159 2491 1159 1978 
L 1159 0 
L 581 0 
L 581 4863 
L 1159 4863 
L 1159 2956 
Q 1366 3272 1645 3428 
Q 1925 3584 2291 3584 
Q 2894 3584 3203 3211 
Q 3513 2838 3513 2113 
z
" transform="scale(0.015625)"/>
       <path id="DejaVuSans-72" d="M 2631 2963 
Q 2534 3019 2420 3045 
Q 2306 3072 2169 3072 
Q 1681 3072 1420 2755 
Q 1159 2438 1159 1844 
L 1159 0 
L 581 0 
L 581 3500 
L 1159 3500 
L 1159 2956 
Q 1341 3275 1631 3429 
Q 1922 3584 2338 3584 
Q 2397 3584 2469 3576 
Q 2541 3569 2628 3553 
L 2631 2963 
z
" transform="scale(0.015625)"/>
       <path id="DejaVuSans-20" transform="scale(0.015625)"/>
       <path id="DejaVuSans-28" d="M 1984 4856 
Q 1566 4138 1362 3434 
Q 1159 2731 1159 2009 
Q 1159 1288 1364 580 
Q 1569 -128 1984 -844 
L 1484 -844 
Q 1016 -109 783 600 
Q 550 1309 550 2009 
Q 550 2706 781 3412 
Q 1013 4119 1484 4856 
L 1984 4856 
z
" transform="scale(0.015625)"/>
       <path id="DejaVuSans-6e" d="M 3513 2113 
L 3513 0 
L 2938 0 
L 2938 2094 
Q 2938 2591 2744 2837 
Q 2550 3084 2163 3084 
Q 1697 3084 1428 2787 
Q 1159 2491 1159 1978 
L 1159 0 
L 581 0 
L 581 3500 
L 1159 3500 
L 1159 2956 
Q 1366 3272 1645 3428 
Q 1925 3584 2291 3584 
Q 2894 3584 3203 3211 
Q 3513 2838 3513 2113 
z
" transform="scale(0.015625)"/>
       <path id="DejaVuSans-4d" d="M 628 4666 
L 1569 4666 
L 2759 1491 
L 3956 4666 
L 4897 4666 
L 4897 0 
L 4281 0 
L 4281 4097 
L 3078 897 
L 2444 897 
L 1241 4097 
L 1241 0 
L 628 0 
L 628 4666 
z
" transform="scale(0.015625)"/>
       <path id="DejaVuSans-6c" d="M 603 4863 
L 1178 4863 
L 1178 0 
L 603 0 
L 603 4863 
z
" transform="scale(0.015625)"/>
       <path id="DejaVuSans-6f" d="M 1959 3097 
Q 1497 3097 1228 2736 
Q 959 2375 959 1747 
Q 959 1119 1226 758 
Q 1494 397 1959 397 
Q 2419 397 2687 759 
Q 2956 1122 2956 1747 
Q 2956 2369 2687 2733 
Q 2419 3097 1959 3097 
z
M 1959 3584 
Q 2709 3584 3137 3096 
Q 3566 2609 3566 1747 
Q 3566 888 3137 398 
Q 2709 -91 1959 -91 
Q 1206 -91 779 398 
Q 353 888 353 1747 
Q 353 2609 779 3096 
Q 1206 3584 1959 3584 
z
" transform="scale(0.015625)"/>
       <path id="DejaVuSans-29" d="M 513 4856 
L 1013 4856 
Q 1481 4119 1714 3412 
Q 1947 2706 1947 2009 
Q 1947 1309 1714 600 
Q 1481 -109 1013 -844 
L 513 -844 
Q 928 -128 1133 580 
Q 1338 1288 1338 2009 
Q 1338 2731 1133 3434 
Q 928 4138 513 4856 
z
" transform="scale(0.015625)"/>
      </defs>
      <use xlink:href="#DejaVuSans-5a"/>
      <use xlink:href="#DejaVuSans-65" x="68.505859"/>
      <use xlink:href="#DejaVuSans-69" x="130.029297"/>
      <use xlink:href="#DejaVuSans-74" x="157.8125"/>
      <use xlink:href="#DejaVuSans-73" x="197.021484"/>
      <use xlink:href="#DejaVuSans-63" x="249.121094"/>
      <use xlink:href="#DejaVuSans-68" x="304.101562"/>
      <use xlink:href="#DejaVuSans-72" x="367.480469"/>
      <use xlink:href="#DejaVuSans-69" x="408.59375"/>
      <use xlink:href="#DejaVuSans-74" x="436.376953"/>
      <use xlink:href="#DejaVuSans-74" x="475.585938"/>
      <use xlink:href="#DejaVuSans-65" x="514.794922"/>
      <use xlink:href="#DejaVuSans-20" x="576.318359"/>
      <use xlink:href="#DejaVuSans-28" x="608.105469"/>
      <use xlink:href="#DejaVuSans-69" x="647.119141"/>
      <use xlink:href="#DejaVuSans-6e" x="674.902344"/>
      <use xlink:href="#DejaVuSans-20" x="738.28125"/>
      <use xlink:href="#DejaVuSans-4d" x="770.068359"/>
      <use xlink:href="#DejaVuSans-69" x="856.347656"/>
      <use xlink:href="#DejaVuSans-6c" x="884.130859"/>
      <use xlink:href="#DejaVuSans-6c" x="911.914062"/>
      <use xlink:href="#DejaVuSans-69" x="939.697266"/>
      <use xlink:href="#DejaVuSans-6f" x="967.480469"/>
      <use xlink:href="#DejaVuSans-6e" x="1028.662109"/>
      <use xlink:href="#DejaVuSans-65" x="1092.041016"/>
      <use xlink:href="#DejaVuSans-6e" x="1153.564453"/>
      <use xlink:href="#DejaVuSans-29" x="1216.943359"/>
     </g>
    </g>
   </g>
   <g id="matplotlib.axis_2">
    <g id="ytick_1">
     <g id="line2d_8">
      <path d="M 67.86 281.855455 
L 447.84 281.855455 
" clip-path="url(#pee93aed932)" style="fill: none; stroke: #ffffff; stroke-linecap: round"/>
     </g>
     <g id="text_9">
      <!-- 0 -->
      <g style="fill: #262626" transform="translate(51.36125 286.034595)scale(0.11 -0.11)">
       <use xlink:href="#DejaVuSans-30"/>
      </g>
     </g>
    </g>
    <g id="ytick_2">
     <g id="line2d_9">
      <path d="M 67.86 246.3858 
L 447.84 246.3858 
" clip-path="url(#pee93aed932)" style="fill: none; stroke: #ffffff; stroke-linecap: round"/>
     </g>
     <g id="text_10">
      <!-- 200 -->
      <g style="fill: #262626" transform="translate(37.36375 250.56494)scale(0.11 -0.11)">
       <use xlink:href="#DejaVuSans-32"/>
       <use xlink:href="#DejaVuSans-30" x="63.623047"/>
       <use xlink:href="#DejaVuSans-30" x="127.246094"/>
      </g>
     </g>
    </g>
    <g id="ytick_3">
     <g id="line2d_10">
      <path d="M 67.86 210.916145 
L 447.84 210.916145 
" clip-path="url(#pee93aed932)" style="fill: none; stroke: #ffffff; stroke-linecap: round"/>
     </g>
     <g id="text_11">
      <!-- 400 -->
      <g style="fill: #262626" transform="translate(37.36375 215.095285)scale(0.11 -0.11)">
       <defs>
        <path id="DejaVuSans-34" d="M 2419 4116 
L 825 1625 
L 2419 1625 
L 2419 4116 
z
M 2253 4666 
L 3047 4666 
L 3047 1625 
L 3713 1625 
L 3713 1100 
L 3047 1100 
L 3047 0 
L 2419 0 
L 2419 1100 
L 313 1100 
L 313 1709 
L 2253 4666 
z
" transform="scale(0.015625)"/>
       </defs>
       <use xlink:href="#DejaVuSans-34"/>
       <use xlink:href="#DejaVuSans-30" x="63.623047"/>
       <use xlink:href="#DejaVuSans-30" x="127.246094"/>
      </g>
     </g>
    </g>
    <g id="ytick_4">
     <g id="line2d_11">
      <path d="M 67.86 175.44649 
L 447.84 175.44649 
" clip-path="url(#pee93aed932)" style="fill: none; stroke: #ffffff; stroke-linecap: round"/>
     </g>
     <g id="text_12">
      <!-- 600 -->
      <g style="fill: #262626" transform="translate(37.36375 179.62563)scale(0.11 -0.11)">
       <defs>
        <path id="DejaVuSans-36" d="M 2113 2584 
Q 1688 2584 1439 2293 
Q 1191 2003 1191 1497 
Q 1191 994 1439 701 
Q 1688 409 2113 409 
Q 2538 409 2786 701 
Q 3034 994 3034 1497 
Q 3034 2003 2786 2293 
Q 2538 2584 2113 2584 
z
M 3366 4563 
L 3366 3988 
Q 3128 4100 2886 4159 
Q 2644 4219 2406 4219 
Q 1781 4219 1451 3797 
Q 1122 3375 1075 2522 
Q 1259 2794 1537 2939 
Q 1816 3084 2150 3084 
Q 2853 3084 3261 2657 
Q 3669 2231 3669 1497 
Q 3669 778 3244 343 
Q 2819 -91 2113 -91 
Q 1303 -91 875 529 
Q 447 1150 447 2328 
Q 447 3434 972 4092 
Q 1497 4750 2381 4750 
Q 2619 4750 2861 4703 
Q 3103 4656 3366 4563 
z
" transform="scale(0.015625)"/>
       </defs>
       <use xlink:href="#DejaVuSans-36"/>
       <use xlink:href="#DejaVuSans-30" x="63.623047"/>
       <use xlink:href="#DejaVuSans-30" x="127.246094"/>
      </g>
     </g>
    </g>
    <g id="ytick_5">
     <g id="line2d_12">
      <path d="M 67.86 139.976835 
L 447.84 139.976835 
" clip-path="url(#pee93aed932)" style="fill: none; stroke: #ffffff; stroke-linecap: round"/>
     </g>
     <g id="text_13">
      <!-- 800 -->
      <g style="fill: #262626" transform="translate(37.36375 144.155975)scale(0.11 -0.11)">
       <defs>
        <path id="DejaVuSans-38" d="M 2034 2216 
Q 1584 2216 1326 1975 
Q 1069 1734 1069 1313 
Q 1069 891 1326 650 
Q 1584 409 2034 409 
Q 2484 409 2743 651 
Q 3003 894 3003 1313 
Q 3003 1734 2745 1975 
Q 2488 2216 2034 2216 
z
M 1403 2484 
Q 997 2584 770 2862 
Q 544 3141 544 3541 
Q 544 4100 942 4425 
Q 1341 4750 2034 4750 
Q 2731 4750 3128 4425 
Q 3525 4100 3525 3541 
Q 3525 3141 3298 2862 
Q 3072 2584 2669 2484 
Q 3125 2378 3379 2068 
Q 3634 1759 3634 1313 
Q 3634 634 3220 271 
Q 2806 -91 2034 -91 
Q 1263 -91 848 271 
Q 434 634 434 1313 
Q 434 1759 690 2068 
Q 947 2378 1403 2484 
z
M 1172 3481 
Q 1172 3119 1398 2916 
Q 1625 2713 2034 2713 
Q 2441 2713 2670 2916 
Q 2900 3119 2900 3481 
Q 2900 3844 2670 4047 
Q 2441 4250 2034 4250 
Q 1625 4250 1398 4047 
Q 1172 3844 1172 3481 
z
" transform="scale(0.015625)"/>
       </defs>
       <use xlink:href="#DejaVuSans-38"/>
       <use xlink:href="#DejaVuSans-30" x="63.623047"/>
       <use xlink:href="#DejaVuSans-30" x="127.246094"/>
      </g>
     </g>
    </g>
    <g id="ytick_6">
     <g id="line2d_13">
      <path d="M 67.86 104.50718 
L 447.84 104.50718 
" clip-path="url(#pee93aed932)" style="fill: none; stroke: #ffffff; stroke-linecap: round"/>
     </g>
     <g id="text_14">
      <!-- 1000 -->
      <g style="fill: #262626" transform="translate(30.365 108.68632)scale(0.11 -0.11)">
       <use xlink:href="#DejaVuSans-31"/>
       <use xlink:href="#DejaVuSans-30" x="63.623047"/>
       <use xlink:href="#DejaVuSans-30" x="127.246094"/>
       <use xlink:href="#DejaVuSans-30" x="190.869141"/>
      </g>
     </g>
    </g>
    <g id="ytick_7">
     <g id="line2d_14">
      <path d="M 67.86 69.037525 
L 447.84 69.037525 
" clip-path="url(#pee93aed932)" style="fill: none; stroke: #ffffff; stroke-linecap: round"/>
     </g>
     <g id="text_15">
      <!-- 1200 -->
      <g style="fill: #262626" transform="translate(30.365 73.216665)scale(0.11 -0.11)">
       <use xlink:href="#DejaVuSans-31"/>
       <use xlink:href="#DejaVuSans-32" x="63.623047"/>
       <use xlink:href="#DejaVuSans-30" x="127.246094"/>
       <use xlink:href="#DejaVuSans-30" x="190.869141"/>
      </g>
     </g>
    </g>
    <g id="ytick_8">
     <g id="line2d_15">
      <path d="M 67.86 33.56787 
L 447.84 33.56787 
" clip-path="url(#pee93aed932)" style="fill: none; stroke: #ffffff; stroke-linecap: round"/>
     </g>
     <g id="text_16">
      <!-- 1400 -->
      <g style="fill: #262626" transform="translate(30.365 37.74701)scale(0.11 -0.11)">
       <use xlink:href="#DejaVuSans-31"/>
       <use xlink:href="#DejaVuSans-34" x="63.623047"/>
       <use xlink:href="#DejaVuSans-30" x="127.246094"/>
       <use xlink:href="#DejaVuSans-30" x="190.869141"/>
      </g>
     </g>
    </g>
    <g id="text_17">
     <!-- # Δx &lt; 0 -->
     <g style="fill: #262626" transform="translate(23.453438 185.600938)rotate(-90)scale(0.14 -0.14)">
      <defs>
       <path id="DejaVuSans-23" d="M 3272 2816 
L 2363 2816 
L 2100 1772 
L 3016 1772 
L 3272 2816 
z
M 2803 4594 
L 2478 3297 
L 3391 3297 
L 3719 4594 
L 4219 4594 
L 3897 3297 
L 4872 3297 
L 4872 2816 
L 3775 2816 
L 3519 1772 
L 4513 1772 
L 4513 1294 
L 3397 1294 
L 3072 0 
L 2572 0 
L 2894 1294 
L 1978 1294 
L 1656 0 
L 1153 0 
L 1478 1294 
L 494 1294 
L 494 1772 
L 1594 1772 
L 1856 2816 
L 850 2816 
L 850 3297 
L 1978 3297 
L 2297 4594 
L 2803 4594 
z
" transform="scale(0.015625)"/>
       <path id="DejaVuSans-394" d="M 2188 4044 
L 906 525 
L 3472 525 
L 2188 4044 
z
M 50 0 
L 1831 4666 
L 2547 4666 
L 4325 0 
L 50 0 
z
" transform="scale(0.015625)"/>
       <path id="DejaVuSans-78" d="M 3513 3500 
L 2247 1797 
L 3578 0 
L 2900 0 
L 1881 1375 
L 863 0 
L 184 0 
L 1544 1831 
L 300 3500 
L 978 3500 
L 1906 2253 
L 2834 3500 
L 3513 3500 
z
" transform="scale(0.015625)"/>
       <path id="DejaVuSans-3c" d="M 4684 3150 
L 1459 2003 
L 4684 863 
L 4684 294 
L 678 1747 
L 678 2266 
L 4684 3719 
L 4684 3150 
z
" transform="scale(0.015625)"/>
      </defs>
      <use xlink:href="#DejaVuSans-23"/>
      <use xlink:href="#DejaVuSans-20" x="83.789062"/>
      <use xlink:href="#DejaVuSans-394" x="115.576172"/>
      <use xlink:href="#DejaVuSans-78" x="183.984375"/>
      <use xlink:href="#DejaVuSans-20" x="243.164062"/>
      <use xlink:href="#DejaVuSans-3c" x="274.951172"/>
      <use xlink:href="#DejaVuSans-20" x="358.740234"/>
      <use xlink:href="#DejaVuSans-30" x="390.527344"/>
     </g>
    </g>
   </g>
   <g id="PolyCollection_1">
    <defs>
     <path id="m56394870cf" d="M 85.131818 -163.059579 
L 85.131818 -228.82032 
L 88.034645 -245.171831 
L 90.937471 -234.318116 
L 93.840298 -244.675256 
L 96.743125 -119.644722 
L 99.645951 -88.183138 
L 102.548778 -83.891309 
L 105.451604 -63.744545 
L 108.354431 -63.744545 
L 111.257257 -64.170181 
L 114.160084 -83.181916 
L 117.062911 -64.950514 
L 119.965737 -181.823027 
L 122.868564 -111.451231 
L 125.77139 -83.962249 
L 128.674217 -89.601924 
L 131.577044 -103.896195 
L 134.47987 -133.300539 
L 137.382697 -94.886903 
L 140.285523 -91.198058 
L 143.18835 -130.037331 
L 146.091176 -122.624173 
L 148.994003 -75.875167 
L 151.89683 -107.797857 
L 154.799656 -97.582596 
L 157.702483 -78.216165 
L 160.605309 -87.580154 
L 163.508136 -87.899381 
L 166.410963 -74.527321 
L 169.313789 -78.641801 
L 172.216616 -85.771201 
L 175.119442 -251.095263 
L 178.022269 -84.636172 
L 180.925095 -76.123455 
L 183.827922 -89.105349 
L 186.730749 -84.458824 
L 189.633575 -76.336273 
L 192.536402 -75.414062 
L 195.439228 -96.12834 
L 198.342055 -85.664792 
L 201.244882 -105.953435 
L 204.147708 -77.932407 
L 207.050535 -82.046887 
L 209.953361 -91.588225 
L 212.856188 -136.457338 
L 215.759015 -96.802264 
L 218.661841 -73.959806 
L 221.564668 -109.110234 
L 224.467494 -110.316202 
L 227.370321 -75.165774 
L 230.273147 -73.144004 
L 233.175974 -71.689748 
L 236.078801 -111.983276 
L 238.981627 -152.418683 
L 241.884454 -141.600438 
L 244.78728 -129.292468 
L 247.690107 -109.039295 
L 250.592934 -85.593853 
L 253.49576 -109.074765 
L 256.398587 -143.870496 
L 259.301413 -99.072322 
L 262.20424 -118.403284 
L 265.107066 -119.999418 
L 268.009893 -163.307867 
L 270.91272 -151.461002 
L 273.815546 -145.431161 
L 276.718373 -148.446082 
L 279.621199 -144.757237 
L 282.524026 -117.019967 
L 285.426853 -114.749909 
L 288.329679 -82.472523 
L 291.232506 -108.010675 
L 294.135332 -130.959542 
L 297.038159 -141.564969 
L 299.940985 -100.27829 
L 302.843812 -100.384699 
L 305.746639 -86.267776 
L 308.649465 -98.859504 
L 311.552292 -91.268998 
L 314.455118 -101.803485 
L 317.357945 -74.066215 
L 320.260772 -84.175067 
L 323.163598 -120.318645 
L 326.066425 -133.300539 
L 328.969251 -119.467373 
L 331.872078 -172.636386 
L 334.774905 -128.795893 
L 337.677731 -89.743803 
L 340.580558 -84.671642 
L 343.483384 -85.487444 
L 346.386211 -101.874425 
L 349.289037 -83.713961 
L 352.191864 -103.32868 
L 355.094691 -96.305689 
L 357.997517 -107.301282 
L 360.900344 -108.861947 
L 363.80317 -99.781715 
L 366.705997 -100.952214 
L 369.608824 -120.708811 
L 372.51165 -138.620987 
L 375.414477 -98.25652 
L 378.317303 -81.83407 
L 381.22013 -101.377849 
L 384.122956 -103.470559 
L 387.025783 -113.65035 
L 389.92861 -102.371 
L 392.831436 -96.802264 
L 395.734263 -108.613659 
L 398.637089 -136.705626 
L 401.539916 -89.140818 
L 404.442743 -110.777308 
L 407.345569 -105.38592 
L 410.248396 -115.70759 
L 413.151222 -107.762387 
L 416.054049 -128.05103 
L 418.956875 -96.234749 
L 421.859702 -157.703662 
L 424.762529 -138.159882 
L 427.665355 -114.820849 
L 430.568182 -130.001861 
L 430.568182 -63.921894 
L 430.568182 -63.921894 
L 427.665355 -64.560348 
L 424.762529 -63.815485 
L 421.859702 -63.744545 
L 418.956875 -63.780015 
L 416.054049 -64.27659 
L 413.151222 -63.744545 
L 410.248396 -63.780015 
L 407.345569 -67.610738 
L 404.442743 -84.387885 
L 401.539916 -63.815485 
L 398.637089 -63.744545 
L 395.734263 -71.051294 
L 392.831436 -64.34753 
L 389.92861 -63.815485 
L 387.025783 -63.780015 
L 384.122956 -73.676049 
L 381.22013 -63.780015 
L 378.317303 -64.524878 
L 375.414477 -64.170181 
L 372.51165 -68.887645 
L 369.608824 -69.632508 
L 366.705997 -64.702226 
L 363.80317 -63.886424 
L 360.900344 -64.382999 
L 357.997517 -63.744545 
L 355.094691 -66.617588 
L 352.191864 -63.992833 
L 349.289037 -64.134712 
L 346.386211 -63.780015 
L 343.483384 -66.865875 
L 340.580558 -63.744545 
L 337.677731 -74.243563 
L 334.774905 -64.595817 
L 331.872078 -64.666756 
L 328.969251 -70.093614 
L 326.066425 -66.40477 
L 323.163598 -63.815485 
L 320.260772 -69.45516 
L 317.357945 -63.815485 
L 314.455118 -66.40477 
L 311.552292 -72.647429 
L 308.649465 -69.384221 
L 305.746639 -63.921894 
L 302.843812 -65.730846 
L 299.940985 -67.220572 
L 297.038159 -64.205651 
L 294.135332 -63.780015 
L 291.232506 -70.306432 
L 288.329679 -64.524878 
L 285.426853 -65.021453 
L 282.524026 -63.780015 
L 279.621199 -63.744545 
L 276.718373 -63.744545 
L 273.815546 -63.815485 
L 270.91272 -64.134712 
L 268.009893 -63.780015 
L 265.107066 -63.744545 
L 262.20424 -63.744545 
L 259.301413 -64.099242 
L 256.398587 -64.205651 
L 253.49576 -63.992833 
L 250.592934 -64.134712 
L 247.690107 -65.056923 
L 244.78728 -65.127862 
L 241.884454 -63.744545 
L 238.981627 -63.744545 
L 236.078801 -63.744545 
L 233.175974 -66.653057 
L 230.273147 -67.468859 
L 227.370321 -63.886424 
L 224.467494 -63.744545 
L 221.564668 -64.418469 
L 218.661841 -63.815485 
L 215.759015 -63.744545 
L 212.856188 -64.205651 
L 209.953361 -63.744545 
L 207.050535 -64.063772 
L 204.147708 -63.744545 
L 201.244882 -63.744545 
L 198.342055 -64.134712 
L 195.439228 -63.744545 
L 192.536402 -63.815485 
L 189.633575 -63.780015 
L 186.730749 -63.780015 
L 183.827922 -63.744545 
L 180.925095 -63.744545 
L 178.022269 -63.921894 
L 175.119442 -63.780015 
L 172.216616 -63.815485 
L 169.313789 -63.780015 
L 166.410963 -64.170181 
L 163.508136 -64.099242 
L 160.605309 -66.050073 
L 157.702483 -63.921894 
L 154.799656 -63.744545 
L 151.89683 -64.099242 
L 148.994003 -64.382999 
L 146.091176 -63.780015 
L 143.18835 -63.992833 
L 140.285523 -64.27659 
L 137.382697 -64.099242 
L 134.47987 -63.850954 
L 131.577044 -65.056923 
L 128.674217 -65.30521 
L 125.77139 -63.992833 
L 122.868564 -64.205651 
L 119.965737 -64.063772 
L 117.062911 -63.744545 
L 114.160084 -63.744545 
L 111.257257 -63.744545 
L 108.354431 -63.744545 
L 105.451604 -63.744545 
L 102.548778 -63.744545 
L 99.645951 -63.744545 
L 96.743125 -80.911858 
L 93.840298 -118.474223 
L 90.937471 -143.657678 
L 88.034645 -174.870975 
L 85.131818 -163.059579 
z
" style="stroke: #ffffff; stroke-opacity: 0.5"/>
    </defs>
    <g clip-path="url(#pee93aed932)">
     <use xlink:href="#m56394870cf" x="0" y="345.6" style="fill: #4c72b0; fill-opacity: 0.5; stroke: #ffffff; stroke-opacity: 0.5"/>
    </g>
   </g>
   <g id="PolyCollection_2">
    <defs>
     <path id="mf7c32f4f25" d="M 85.131818 -168.16721 
L 85.131818 -226.337444 
L 88.034645 -257.337922 
L 90.937471 -214.987154 
L 93.840298 -218.463181 
L 96.743125 -110.103385 
L 99.645951 -74.243563 
L 102.548778 -74.56279 
L 105.451604 -63.744545 
L 108.354431 -91.730103 
L 111.257257 -158.732282 
L 114.160084 -126.632244 
L 117.062911 -69.597039 
L 119.965737 -134.612916 
L 122.868564 -187.427232 
L 125.77139 -84.246006 
L 128.674217 -72.044445 
L 131.577044 -89.95662 
L 134.47987 -137.556898 
L 137.382697 -68.781236 
L 140.285523 -72.434611 
L 143.18835 -101.094092 
L 146.091176 -84.033188 
L 148.994003 -78.535392 
L 151.89683 -70.554719 
L 154.799656 -65.766316 
L 157.702483 -64.418469 
L 160.605309 -225.344294 
L 163.508136 -91.198058 
L 166.410963 -77.081136 
L 169.313789 -83.749431 
L 172.216616 -64.099242 
L 175.119442 -76.442682 
L 178.022269 -175.899595 
L 180.925095 -87.331866 
L 183.827922 -84.707112 
L 186.730749 -81.975948 
L 189.633575 -80.344344 
L 192.536402 -85.487444 
L 195.439228 -76.903787 
L 198.342055 -102.051773 
L 201.244882 -68.674827 
L 204.147708 -117.906709 
L 207.050535 -74.420912 
L 209.953361 -77.081136 
L 212.856188 -79.173845 
L 215.759015 -77.435832 
L 218.661841 -79.386663 
L 221.564668 -133.797114 
L 224.467494 -86.196837 
L 227.370321 -99.781715 
L 230.273147 -77.010196 
L 233.175974 -84.104127 
L 236.078801 -89.495515 
L 238.981627 -85.097278 
L 241.884454 -79.847769 
L 244.78728 -89.814742 
L 247.690107 -98.043702 
L 250.592934 -76.584561 
L 253.49576 -88.99894 
L 256.398587 -73.924336 
L 259.301413 -103.32868 
L 262.20424 -77.435832 
L 265.107066 -68.320131 
L 268.009893 -77.577711 
L 270.91272 -77.152075 
L 273.815546 -83.749431 
L 276.718373 -85.132747 
L 279.621199 -69.880796 
L 282.524026 -72.824777 
L 285.426853 -92.191209 
L 288.329679 -84.813521 
L 291.232506 -84.919929 
L 294.135332 -90.169438 
L 297.038159 -73.463231 
L 299.940985 -74.669199 
L 302.843812 -103.896195 
L 305.746639 -88.99894 
L 308.649465 -76.123455 
L 311.552292 -82.862689 
L 314.455118 -99.178731 
L 317.357945 -90.843362 
L 320.260772 -92.687784 
L 323.163598 -86.551534 
L 326.066425 -101.945364 
L 328.969251 -76.407212 
L 331.872078 -77.71959 
L 334.774905 -76.087985 
L 337.677731 -72.647429 
L 340.580558 -77.010196 
L 343.483384 -71.299582 
L 346.386211 -74.030745 
L 349.289037 -76.194394 
L 352.191864 -77.258484 
L 355.094691 -71.973505 
L 357.997517 -72.221793 
L 360.900344 -74.775608 
L 363.80317 -75.307653 
L 366.705997 -77.045666 
L 369.608824 -77.896938 
L 372.51165 -73.144004 
L 375.414477 -75.62688 
L 378.317303 -75.343123 
L 381.22013 -79.138376 
L 384.122956 -82.720811 
L 387.025783 -75.981576 
L 389.92861 -71.441461 
L 392.831436 -76.087985 
L 395.734263 -79.528542 
L 398.637089 -75.520471 
L 401.539916 -72.079914 
L 404.442743 -70.200023 
L 407.345569 -73.250413 
L 410.248396 -73.959806 
L 413.151222 -77.790529 
L 416.054049 -78.428983 
L 418.956875 -71.54787 
L 421.859702 -79.244785 
L 424.762529 -68.213722 
L 427.665355 -77.542241 
L 430.568182 -77.258484 
L 430.568182 -64.241121 
L 430.568182 -64.241121 
L 427.665355 -64.31206 
L 424.762529 -64.170181 
L 421.859702 -64.31206 
L 418.956875 -64.31206 
L 416.054049 -64.489408 
L 413.151222 -64.382999 
L 410.248396 -64.560348 
L 407.345569 -64.31206 
L 404.442743 -64.27659 
L 401.539916 -64.27659 
L 398.637089 -64.666756 
L 395.734263 -64.205651 
L 392.831436 -64.489408 
L 389.92861 -64.31206 
L 387.025783 -64.028303 
L 384.122956 -63.957363 
L 381.22013 -64.241121 
L 378.317303 -63.957363 
L 375.414477 -64.241121 
L 372.51165 -64.170181 
L 369.608824 -64.241121 
L 366.705997 -64.489408 
L 363.80317 -64.134712 
L 360.900344 -63.992833 
L 357.997517 -64.028303 
L 355.094691 -64.34753 
L 352.191864 -64.134712 
L 349.289037 -64.134712 
L 346.386211 -64.099242 
L 343.483384 -63.992833 
L 340.580558 -64.27659 
L 337.677731 -63.921894 
L 334.774905 -64.063772 
L 331.872078 -63.992833 
L 328.969251 -63.850954 
L 326.066425 -64.134712 
L 323.163598 -63.815485 
L 320.260772 -64.241121 
L 317.357945 -64.560348 
L 314.455118 -63.957363 
L 311.552292 -63.850954 
L 308.649465 -63.744545 
L 305.746639 -63.921894 
L 302.843812 -63.992833 
L 299.940985 -63.850954 
L 297.038159 -64.134712 
L 294.135332 -64.631287 
L 291.232506 -63.780015 
L 288.329679 -63.815485 
L 285.426853 -64.063772 
L 282.524026 -64.028303 
L 279.621199 -63.780015 
L 276.718373 -64.028303 
L 273.815546 -63.957363 
L 270.91272 -63.744545 
L 268.009893 -64.099242 
L 265.107066 -63.780015 
L 262.20424 -63.815485 
L 259.301413 -63.744545 
L 256.398587 -64.382999 
L 253.49576 -63.886424 
L 250.592934 -63.921894 
L 247.690107 -63.744545 
L 244.78728 -64.028303 
L 241.884454 -63.815485 
L 238.981627 -64.915044 
L 236.078801 -63.886424 
L 233.175974 -63.744545 
L 230.273147 -63.744545 
L 227.370321 -63.780015 
L 224.467494 -63.744545 
L 221.564668 -66.617588 
L 218.661841 -65.198801 
L 215.759015 -63.921894 
L 212.856188 -67.894495 
L 209.953361 -63.780015 
L 207.050535 -63.780015 
L 204.147708 -63.780015 
L 201.244882 -63.744545 
L 198.342055 -69.100463 
L 195.439228 -63.957363 
L 192.536402 -64.631287 
L 189.633575 -64.028303 
L 186.730749 -64.524878 
L 183.827922 -63.780015 
L 180.925095 -63.744545 
L 178.022269 -64.27659 
L 175.119442 -63.744545 
L 172.216616 -63.744545 
L 169.313789 -63.780015 
L 166.410963 -63.744545 
L 163.508136 -63.921894 
L 160.605309 -63.744545 
L 157.702483 -63.744545 
L 154.799656 -63.744545 
L 151.89683 -63.744545 
L 148.994003 -63.780015 
L 146.091176 -63.780015 
L 143.18835 -63.744545 
L 140.285523 -63.921894 
L 137.382697 -63.744545 
L 134.47987 -63.744545 
L 131.577044 -63.744545 
L 128.674217 -63.744545 
L 125.77139 -63.780015 
L 122.868564 -63.744545 
L 119.965737 -63.744545 
L 117.062911 -63.744545 
L 114.160084 -63.744545 
L 111.257257 -63.744545 
L 108.354431 -63.744545 
L 105.451604 -63.744545 
L 102.548778 -63.744545 
L 99.645951 -63.744545 
L 96.743125 -63.744545 
L 93.840298 -147.63028 
L 90.937471 -179.943135 
L 88.034645 -184.199494 
L 85.131818 -168.16721 
z
" style="stroke: #ffffff; stroke-opacity: 0.5"/>
    </defs>
    <g clip-path="url(#pee93aed932)">
     <use xlink:href="#mf7c32f4f25" x="0" y="345.6" style="fill: #dd8452; fill-opacity: 0.5; stroke: #ffffff; stroke-opacity: 0.5"/>
    </g>
   </g>
   <g id="PolyCollection_3">
    <defs>
     <path id="md86acfafca" d="M 85.131818 -138.408169 
L 85.131818 -244.994482 
L 88.034645 -297.134875 
L 90.937471 -319.835455 
L 93.840298 -215.199972 
L 96.743125 -243.398348 
L 99.645951 -132.910373 
L 102.548778 -163.059579 
L 105.451604 -122.446824 
L 108.354431 -69.064994 
L 111.257257 -67.291511 
L 114.160084 -125.461745 
L 117.062911 -69.064994 
L 119.965737 -143.196573 
L 122.868564 -69.064994 
L 125.77139 -69.064994 
L 128.674217 -69.064994 
L 131.577044 -68.000904 
L 134.47987 -69.064994 
L 137.382697 -69.064994 
L 140.285523 -79.528542 
L 143.18835 -69.064994 
L 146.091176 -69.064994 
L 148.994003 -67.291511 
L 151.89683 -69.597039 
L 154.799656 -69.064994 
L 157.702483 -69.064994 
L 160.605309 -70.838476 
L 163.508136 -70.838476 
L 166.410963 -71.015825 
L 169.313789 -71.015825 
L 172.216616 -69.064994 
L 175.119442 -72.611959 
L 178.022269 -69.064994 
L 180.925095 -69.064994 
L 183.827922 -70.838476 
L 186.730749 -70.838476 
L 189.633575 -69.242342 
L 192.536402 -70.838476 
L 195.439228 -70.838476 
L 198.342055 -69.064994 
L 201.244882 -69.064994 
L 204.147708 -69.41969 
L 207.050535 -69.242342 
L 209.953361 -70.838476 
L 212.856188 -69.064994 
L 215.759015 -70.838476 
L 218.661841 -70.838476 
L 221.564668 -69.41969 
L 224.467494 -69.064994 
L 227.370321 -69.242342 
L 230.273147 -72.611959 
L 233.175974 -72.257263 
L 236.078801 -72.611959 
L 238.981627 -70.838476 
L 241.884454 -71.193173 
L 244.78728 -70.838476 
L 247.690107 -69.064994 
L 250.592934 -70.838476 
L 253.49576 -69.242342 
L 256.398587 -70.838476 
L 259.301413 -69.064994 
L 262.20424 -69.597039 
L 265.107066 -71.015825 
L 268.009893 -71.193173 
L 270.91272 -71.015825 
L 273.815546 -70.838476 
L 276.718373 -71.370521 
L 279.621199 -70.838476 
L 282.524026 -72.966656 
L 285.426853 -71.015825 
L 288.329679 -71.193173 
L 291.232506 -69.951735 
L 294.135332 -70.838476 
L 297.038159 -71.015825 
L 299.940985 -71.015825 
L 302.843812 -72.966656 
L 305.746639 -70.838476 
L 308.649465 -71.193173 
L 311.552292 -69.242342 
L 314.455118 -71.193173 
L 317.357945 -69.774387 
L 320.260772 -71.902566 
L 323.163598 -70.838476 
L 326.066425 -69.242342 
L 328.969251 -69.41969 
L 331.872078 -72.966656 
L 334.774905 -71.015825 
L 337.677731 -71.370521 
L 340.580558 -71.370521 
L 343.483384 -70.838476 
L 346.386211 -70.838476 
L 349.289037 -70.838476 
L 352.191864 -69.242342 
L 355.094691 -69.064994 
L 357.997517 -71.193173 
L 360.900344 -70.838476 
L 363.80317 -70.838476 
L 366.705997 -69.242342 
L 369.608824 -70.838476 
L 372.51165 -69.242342 
L 375.414477 -69.41969 
L 378.317303 -70.838476 
L 381.22013 -71.015825 
L 384.122956 -69.064994 
L 387.025783 -73.144004 
L 389.92861 -69.597039 
L 392.831436 -69.064994 
L 395.734263 -71.015825 
L 398.637089 -71.015825 
L 401.539916 -72.789307 
L 404.442743 -70.838476 
L 407.345569 -71.015825 
L 410.248396 -71.193173 
L 413.151222 -72.966656 
L 416.054049 -72.611959 
L 418.956875 -72.789307 
L 421.859702 -71.015825 
L 424.762529 -72.079914 
L 427.665355 -74.740139 
L 430.568182 -70.838476 
L 430.568182 -67.468859 
L 430.568182 -67.468859 
L 427.665355 -69.064994 
L 424.762529 -67.468859 
L 421.859702 -65.872725 
L 418.956875 -69.064994 
L 416.054049 -67.291511 
L 413.151222 -65.518028 
L 410.248396 -69.064994 
L 407.345569 -67.291511 
L 404.442743 -67.291511 
L 401.539916 -67.291511 
L 398.637089 -67.291511 
L 395.734263 -65.518028 
L 392.831436 -67.291511 
L 389.92861 -67.291511 
L 387.025783 -69.064994 
L 384.122956 -67.291511 
L 381.22013 -67.291511 
L 378.317303 -65.518028 
L 375.414477 -67.468859 
L 372.51165 -67.291511 
L 369.608824 -68.532949 
L 366.705997 -67.291511 
L 363.80317 -67.823556 
L 360.900344 -69.064994 
L 357.997517 -65.518028 
L 355.094691 -65.518028 
L 352.191864 -67.291511 
L 349.289037 -67.291511 
L 346.386211 -65.518028 
L 343.483384 -65.518028 
L 340.580558 -67.291511 
L 337.677731 -65.872725 
L 334.774905 -67.291511 
L 331.872078 -65.518028 
L 328.969251 -67.114163 
L 326.066425 -67.291511 
L 323.163598 -67.291511 
L 320.260772 -65.518028 
L 317.357945 -65.518028 
L 314.455118 -67.291511 
L 311.552292 -65.518028 
L 308.649465 -65.518028 
L 305.746639 -67.291511 
L 302.843812 -65.695376 
L 299.940985 -67.291511 
L 297.038159 -67.291511 
L 294.135332 -67.291511 
L 291.232506 -65.518028 
L 288.329679 -67.291511 
L 285.426853 -67.468859 
L 282.524026 -67.291511 
L 279.621199 -65.518028 
L 276.718373 -67.468859 
L 273.815546 -67.823556 
L 270.91272 -67.468859 
L 268.009893 -67.291511 
L 265.107066 -67.291511 
L 262.20424 -67.291511 
L 259.301413 -68.887645 
L 256.398587 -67.291511 
L 253.49576 -65.518028 
L 250.592934 -69.064994 
L 247.690107 -65.518028 
L 244.78728 -67.291511 
L 241.884454 -65.518028 
L 238.981627 -68.000904 
L 236.078801 -65.518028 
L 233.175974 -65.518028 
L 230.273147 -65.518028 
L 227.370321 -65.518028 
L 224.467494 -65.518028 
L 221.564668 -63.744545 
L 218.661841 -65.518028 
L 215.759015 -65.518028 
L 212.856188 -67.291511 
L 209.953361 -67.291511 
L 207.050535 -67.291511 
L 204.147708 -67.291511 
L 201.244882 -67.291511 
L 198.342055 -63.744545 
L 195.439228 -66.936814 
L 192.536402 -67.291511 
L 189.633575 -67.114163 
L 186.730749 -65.695376 
L 183.827922 -67.291511 
L 180.925095 -65.518028 
L 178.022269 -65.518028 
L 175.119442 -67.291511 
L 172.216616 -67.291511 
L 169.313789 -65.518028 
L 166.410963 -65.518028 
L 163.508136 -67.291511 
L 160.605309 -65.518028 
L 157.702483 -67.291511 
L 154.799656 -65.518028 
L 151.89683 -67.291511 
L 148.994003 -63.921894 
L 146.091176 -65.34068 
L 143.18835 -65.518028 
L 140.285523 -65.695376 
L 137.382697 -65.695376 
L 134.47987 -65.518028 
L 131.577044 -67.291511 
L 128.674217 -63.744545 
L 125.77139 -63.744545 
L 122.868564 -65.695376 
L 119.965737 -65.518028 
L 117.062911 -65.518028 
L 114.160084 -65.518028 
L 111.257257 -63.744545 
L 108.354431 -65.518028 
L 105.451604 -63.744545 
L 102.548778 -65.518028 
L 99.645951 -65.518028 
L 96.743125 -131.314238 
L 93.840298 -121.205387 
L 90.937471 -155.965648 
L 88.034645 -130.0728 
L 85.131818 -138.408169 
z
" style="stroke: #ffffff; stroke-opacity: 0.5"/>
    </defs>
    <g clip-path="url(#pee93aed932)">
     <use xlink:href="#md86acfafca" x="0" y="345.6" style="fill: #55a868; fill-opacity: 0.5; stroke: #ffffff; stroke-opacity: 0.5"/>
    </g>
   </g>
   <g id="line2d_16">
    <path d="M 85.131818 142.743468 
L 88.034645 136.472433 
L 90.937471 146.042146 
L 93.840298 152.426683 
L 96.743125 239.029393 
L 99.645951 276.896797 
L 102.548778 277.826102 
L 105.451604 281.855455 
L 108.354431 281.855455 
L 111.257257 281.770327 
L 114.160084 273.576837 
L 117.062911 281.578791 
L 119.965737 251.067794 
L 122.868564 266.646066 
L 125.77139 271.264216 
L 128.674217 269.845429 
L 131.577044 261.495873 
L 134.47987 266.419061 
L 137.382697 272.470184 
L 140.285523 268.809715 
L 143.18835 252.273762 
L 146.091176 264.368915 
L 148.994003 273.328549 
L 151.89683 265.730949 
L 154.799656 274.747336 
L 157.702483 277.109615 
L 160.605309 271.285497 
L 163.508136 274.101788 
L 166.410963 277.123803 
L 169.313789 278.116953 
L 172.216616 271.881388 
L 175.119442 234.255178 
L 178.022269 275.54895 
L 180.925095 276.754918 
L 183.827922 276.492443 
L 186.730749 272.42762 
L 189.633575 279.152667 
L 192.536402 279.131385 
L 195.439228 266.603503 
L 198.342055 274.194009 
L 201.244882 267.965538 
L 204.147708 277.350808 
L 207.050535 277.705505 
L 209.953361 272.590781 
L 212.856188 262.425178 
L 215.759015 270.746359 
L 218.661841 275.818519 
L 221.564668 264.851302 
L 224.467494 262.744404 
L 227.370321 276.442785 
L 230.273147 274.967248 
L 233.175974 276.535006 
L 236.078801 262.907565 
L 238.981627 249.443284 
L 241.884454 250.606688 
L 244.78728 258.92787 
L 247.690107 264.879678 
L 250.592934 266.660254 
L 253.49576 263.780118 
L 256.398587 259.95649 
L 259.301413 270.597386 
L 262.20424 260.140932 
L 265.107066 256.23927 
L 268.009893 249.379438 
L 270.91272 248.251503 
L 273.815546 250.408058 
L 276.718373 251.351551 
L 279.621199 246.534772 
L 282.524026 256.104485 
L 285.426853 264.588826 
L 288.329679 274.264948 
L 291.232506 263.233886 
L 294.135332 263.20551 
L 297.038159 262.716029 
L 299.940985 265.929579 
L 302.843812 266.426155 
L 305.746639 268.965782 
L 308.649465 262.737311 
L 311.552292 266.262994 
L 314.455118 263.070725 
L 317.357945 275.861083 
L 320.260772 267.582465 
L 323.163598 262.673465 
L 326.066425 261.630657 
L 328.969251 249.954047 
L 331.872078 246.094948 
L 334.774905 263.120383 
L 337.677731 264.276694 
L 340.580558 273.129919 
L 343.483384 268.462113 
L 346.386211 269.277915 
L 349.289037 270.384568 
L 352.191864 270.100811 
L 355.094691 266.589315 
L 357.997517 265.26275 
L 360.900344 258.835648 
L 363.80317 267.071702 
L 366.705997 266.050176 
L 369.608824 261.169552 
L 372.51165 259.360599 
L 375.414477 267.348366 
L 378.317303 270.980458 
L 381.22013 261.325618 
L 384.122956 259.608887 
L 387.025783 256.60106 
L 389.92861 261.006391 
L 392.831436 265.340783 
L 395.734263 262.17689 
L 398.637089 258.537703 
L 401.539916 269.242445 
L 404.442743 250.670534 
L 407.345569 261.921508 
L 410.248396 255.423468 
L 413.151222 256.196706 
L 416.054049 254.231687 
L 418.956875 263.389952 
L 421.859702 231.75102 
L 424.762529 245.88213 
L 427.665355 254.338096 
L 430.568182 243.271564 
" clip-path="url(#pee93aed932)" style="fill: none; stroke: #4c72b0; stroke-width: 3; stroke-linecap: round"/>
   </g>
   <g id="line2d_17">
    <path d="M 85.131818 141.750317 
L 88.034645 132.570771 
L 90.937471 144.644641 
L 93.840298 160.166162 
L 96.743125 259.786235 
L 99.645951 279.755651 
L 102.548778 279.691806 
L 105.451604 281.855455 
L 108.354431 276.194498 
L 111.257257 262.815344 
L 114.160084 268.788434 
L 117.062911 279.89753 
L 119.965737 267.504432 
L 122.868564 256.856442 
L 125.77139 276.620133 
L 128.674217 279.741463 
L 131.577044 275.98168 
L 134.47987 262.325863 
L 137.382697 280.826835 
L 140.285523 278.656092 
L 143.18835 273.768373 
L 146.091176 273.669058 
L 148.994003 278.20208 
L 151.89683 279.408048 
L 154.799656 281.394349 
L 157.702483 281.649731 
L 160.605309 238.185215 
L 163.508136 270.902425 
L 166.410963 277.379184 
L 169.313789 275.130408 
L 172.216616 281.699388 
L 175.119442 279.081728 
L 178.022269 251.578557 
L 180.925095 276.57757 
L 183.827922 276.14484 
L 186.730749 272.207708 
L 189.633575 276.471161 
L 192.536402 271.923951 
L 195.439228 276.393128 
L 198.342055 262.049199 
L 201.244882 279.436424 
L 204.147708 266.532564 
L 207.050535 275.648265 
L 209.953361 278.187892 
L 212.856188 273.477522 
L 215.759015 276.634321 
L 218.661841 274.222385 
L 221.564668 258.49514 
L 224.467494 269.270821 
L 227.370321 268.391174 
L 230.273147 274.179821 
L 233.175974 273.484616 
L 236.078801 274.371357 
L 238.981627 271.618912 
L 241.884454 277.492687 
L 244.78728 274.158539 
L 247.690107 265.738043 
L 250.592934 275.385789 
L 253.49576 273.45624 
L 256.398587 277.088333 
L 259.301413 267.901692 
L 262.20424 277.712599 
L 265.107066 279.890436 
L 268.009893 275.052375 
L 270.91272 278.20208 
L 273.815546 276.166122 
L 276.718373 274.534518 
L 279.621199 279.39386 
L 282.524026 278.088577 
L 285.426853 272.569499 
L 288.329679 272.377963 
L 291.232506 277.343714 
L 294.135332 273.839313 
L 297.038159 278.329771 
L 299.940985 278.840534 
L 302.843812 271.618912 
L 305.746639 274.413921 
L 308.649465 277.251493 
L 311.552292 277.159272 
L 314.455118 272.470184 
L 317.357945 273.718716 
L 320.260772 275.208441 
L 323.163598 276.896797 
L 326.066425 272.853256 
L 328.969251 277.691317 
L 331.872078 276.683979 
L 334.774905 276.762012 
L 337.677731 279.741463 
L 340.580558 276.641415 
L 343.483384 278.251738 
L 346.386211 278.16661 
L 349.289037 278.081483 
L 352.191864 278.258832 
L 355.094691 279.039164 
L 357.997517 279.159761 
L 360.900344 276.37894 
L 363.80317 278.727031 
L 366.705997 276.400222 
L 369.608824 277.251493 
L 372.51165 277.592002 
L 375.414477 277.20893 
L 378.317303 276.896797 
L 381.22013 276.520818 
L 384.122956 275.102032 
L 387.025783 278.067295 
L 389.92861 278.939849 
L 392.831436 275.974586 
L 395.734263 277.017394 
L 398.637089 277.599096 
L 401.539916 279.188136 
L 404.442743 279.074634 
L 407.345569 278.343959 
L 410.248396 276.818764 
L 413.151222 276.478255 
L 416.054049 275.761768 
L 418.956875 277.762256 
L 421.859702 274.860839 
L 424.762529 279.315827 
L 427.665355 276.627227 
L 430.568182 274.931778 
" clip-path="url(#pee93aed932)" style="fill: none; stroke: #dd8452; stroke-width: 3; stroke-linecap: round"/>
   </g>
   <g id="line2d_18">
    <path d="M 85.131818 141.182803 
L 88.034645 165.585925 
L 90.937471 117.276255 
L 93.840298 177.46826 
L 96.743125 164.663714 
L 99.645951 240.568776 
L 102.548778 246.066573 
L 105.451604 268.341516 
L 108.354431 279.017882 
L 111.257257 279.762745 
L 114.160084 267.135548 
L 117.062911 278.20208 
L 119.965737 263.730461 
L 122.868564 278.273019 
L 125.77139 279.372579 
L 128.674217 279.727275 
L 131.577044 278.131141 
L 134.47987 279.372579 
L 137.382697 277.918323 
L 140.285523 275.399977 
L 143.18835 278.024732 
L 146.091176 278.343959 
L 148.994003 279.337109 
L 151.89683 277.067051 
L 154.799656 277.599096 
L 157.702483 277.634566 
L 160.605309 278.308489 
L 163.508136 276.570476 
L 166.410963 277.918323 
L 169.313789 276.818764 
L 172.216616 277.599096 
L 175.119442 276.535006 
L 178.022269 277.953792 
L 180.925095 277.492687 
L 183.827922 276.605946 
L 186.730749 278.131141 
L 189.633575 277.244399 
L 192.536402 276.889703 
L 195.439228 277.315339 
L 198.342055 278.308489 
L 201.244882 276.960642 
L 204.147708 277.528157 
L 207.050535 276.854233 
L 209.953361 276.925173 
L 212.856188 277.20893 
L 215.759015 277.599096 
L 218.661841 277.599096 
L 221.564668 278.273019 
L 224.467494 277.953792 
L 227.370321 277.599096 
L 230.273147 277.244399 
L 233.175974 276.570476 
L 236.078801 276.783294 
L 238.981627 276.393128 
L 241.884454 277.492687 
L 244.78728 276.464067 
L 247.690107 278.308489 
L 250.592934 276.18031 
L 253.49576 277.528157 
L 256.398587 276.783294 
L 259.301413 276.570476 
L 262.20424 277.031581 
L 265.107066 277.20893 
L 268.009893 276.428597 
L 270.91272 276.535006 
L 273.815546 276.357658 
L 276.718373 275.932022 
L 279.621199 277.20893 
L 282.524026 276.357658 
L 285.426853 276.251249 
L 288.329679 276.002961 
L 291.232506 277.776444 
L 294.135332 276.464067 
L 297.038159 275.364508 
L 299.940985 276.818764 
L 302.843812 276.002961 
L 305.746639 277.102521 
L 308.649465 277.528157 
L 311.552292 277.918323 
L 314.455118 276.818764 
L 317.357945 277.350808 
L 320.260772 276.605946 
L 323.163598 276.889703 
L 326.066425 277.13799 
L 328.969251 276.854233 
L 331.872078 276.428597 
L 334.774905 276.10937 
L 337.677731 277.279869 
L 340.580558 275.683735 
L 343.483384 278.663186 
L 346.386211 276.854233 
L 349.289037 276.499537 
L 352.191864 277.847384 
L 355.094691 277.918323 
L 357.997517 277.102521 
L 360.900344 275.470917 
L 363.80317 276.357658 
L 366.705997 277.20893 
L 369.608824 275.896553 
L 372.51165 277.457217 
L 375.414477 276.783294 
L 378.317303 277.918323 
L 381.22013 276.818764 
L 384.122956 277.244399 
L 387.025783 275.364508 
L 389.92861 277.386278 
L 392.831436 277.20893 
L 395.734263 277.882853 
L 398.637089 276.10937 
L 401.539916 275.683735 
L 404.442743 276.499537 
L 407.345569 276.428597 
L 410.248396 275.754674 
L 413.151222 276.357658 
L 416.054049 276.712355 
L 418.956875 274.335888 
L 421.859702 276.641415 
L 424.762529 276.18031 
L 427.665355 274.903402 
L 430.568182 276.783294 
" clip-path="url(#pee93aed932)" style="fill: none; stroke: #55a868; stroke-width: 3; stroke-linecap: round"/>
   </g>
   <g id="patch_3">
    <path d="M 67.86 294.66 
L 67.86 12.96 
" style="fill: none; stroke: #ffffff; stroke-width: 1.25; stroke-linejoin: miter; stroke-linecap: square"/>
   </g>
   <g id="patch_4">
    <path d="M 447.84 294.66 
L 447.84 12.96 
" style="fill: none; stroke: #ffffff; stroke-width: 1.25; stroke-linejoin: miter; stroke-linecap: square"/>
   </g>
   <g id="patch_5">
    <path d="M 67.86 294.66 
L 447.84 294.66 
" style="fill: none; stroke: #ffffff; stroke-width: 1.25; stroke-linejoin: miter; stroke-linecap: square"/>
   </g>
   <g id="patch_6">
    <path d="M 67.86 12.96 
L 447.84 12.96 
" style="fill: none; stroke: #ffffff; stroke-width: 1.25; stroke-linejoin: miter; stroke-linecap: square"/>
   </g>
   <g id="legend_1">
    <g id="patch_7">
     <path d="M 312.723906 70.197812 
L 440.14 70.197812 
Q 442.34 70.197812 442.34 67.997813 
L 442.34 20.66 
Q 442.34 18.46 440.14 18.46 
L 312.723906 18.46 
Q 310.523906 18.46 310.523906 20.66 
L 310.523906 67.997813 
Q 310.523906 70.197812 312.723906 70.197812 
z
" style="fill: #eaeaf2; opacity: 0.8; stroke: #cccccc; stroke-linejoin: miter"/>
    </g>
    <g id="line2d_19">
     <path d="M 314.923906 27.368281 
L 325.923906 27.368281 
L 336.923906 27.368281 
" style="fill: none; stroke: #4c72b0; stroke-width: 3; stroke-linecap: round"/>
    </g>
    <g id="text_18">
     <!-- SAC-DELAY-10 -->
     <g style="fill: #262626" transform="translate(345.723906 31.218281)scale(0.11 -0.11)">
      <defs>
       <path id="DejaVuSans-53" d="M 3425 4513 
L 3425 3897 
Q 3066 4069 2747 4153 
Q 2428 4238 2131 4238 
Q 1616 4238 1336 4038 
Q 1056 3838 1056 3469 
Q 1056 3159 1242 3001 
Q 1428 2844 1947 2747 
L 2328 2669 
Q 3034 2534 3370 2195 
Q 3706 1856 3706 1288 
Q 3706 609 3251 259 
Q 2797 -91 1919 -91 
Q 1588 -91 1214 -16 
Q 841 59 441 206 
L 441 856 
Q 825 641 1194 531 
Q 1563 422 1919 422 
Q 2459 422 2753 634 
Q 3047 847 3047 1241 
Q 3047 1584 2836 1778 
Q 2625 1972 2144 2069 
L 1759 2144 
Q 1053 2284 737 2584 
Q 422 2884 422 3419 
Q 422 4038 858 4394 
Q 1294 4750 2059 4750 
Q 2388 4750 2728 4690 
Q 3069 4631 3425 4513 
z
" transform="scale(0.015625)"/>
       <path id="DejaVuSans-41" d="M 2188 4044 
L 1331 1722 
L 3047 1722 
L 2188 4044 
z
M 1831 4666 
L 2547 4666 
L 4325 0 
L 3669 0 
L 3244 1197 
L 1141 1197 
L 716 0 
L 50 0 
L 1831 4666 
z
" transform="scale(0.015625)"/>
       <path id="DejaVuSans-43" d="M 4122 4306 
L 4122 3641 
Q 3803 3938 3442 4084 
Q 3081 4231 2675 4231 
Q 1875 4231 1450 3742 
Q 1025 3253 1025 2328 
Q 1025 1406 1450 917 
Q 1875 428 2675 428 
Q 3081 428 3442 575 
Q 3803 722 4122 1019 
L 4122 359 
Q 3791 134 3420 21 
Q 3050 -91 2638 -91 
Q 1578 -91 968 557 
Q 359 1206 359 2328 
Q 359 3453 968 4101 
Q 1578 4750 2638 4750 
Q 3056 4750 3426 4639 
Q 3797 4528 4122 4306 
z
" transform="scale(0.015625)"/>
       <path id="DejaVuSans-2d" d="M 313 2009 
L 1997 2009 
L 1997 1497 
L 313 1497 
L 313 2009 
z
" transform="scale(0.015625)"/>
       <path id="DejaVuSans-44" d="M 1259 4147 
L 1259 519 
L 2022 519 
Q 2988 519 3436 956 
Q 3884 1394 3884 2338 
Q 3884 3275 3436 3711 
Q 2988 4147 2022 4147 
L 1259 4147 
z
M 628 4666 
L 1925 4666 
Q 3281 4666 3915 4102 
Q 4550 3538 4550 2338 
Q 4550 1131 3912 565 
Q 3275 0 1925 0 
L 628 0 
L 628 4666 
z
" transform="scale(0.015625)"/>
       <path id="DejaVuSans-45" d="M 628 4666 
L 3578 4666 
L 3578 4134 
L 1259 4134 
L 1259 2753 
L 3481 2753 
L 3481 2222 
L 1259 2222 
L 1259 531 
L 3634 531 
L 3634 0 
L 628 0 
L 628 4666 
z
" transform="scale(0.015625)"/>
       <path id="DejaVuSans-4c" d="M 628 4666 
L 1259 4666 
L 1259 531 
L 3531 531 
L 3531 0 
L 628 0 
L 628 4666 
z
" transform="scale(0.015625)"/>
       <path id="DejaVuSans-59" d="M -13 4666 
L 666 4666 
L 1959 2747 
L 3244 4666 
L 3922 4666 
L 2272 2222 
L 2272 0 
L 1638 0 
L 1638 2222 
L -13 4666 
z
" transform="scale(0.015625)"/>
      </defs>
      <use xlink:href="#DejaVuSans-53"/>
      <use xlink:href="#DejaVuSans-41" x="65.351562"/>
      <use xlink:href="#DejaVuSans-43" x="132.009766"/>
      <use xlink:href="#DejaVuSans-2d" x="201.833984"/>
      <use xlink:href="#DejaVuSans-44" x="237.917969"/>
      <use xlink:href="#DejaVuSans-45" x="314.919922"/>
      <use xlink:href="#DejaVuSans-4c" x="378.103516"/>
      <use xlink:href="#DejaVuSans-41" x="436.066406"/>
      <use xlink:href="#DejaVuSans-59" x="496.724609"/>
      <use xlink:href="#DejaVuSans-2d" x="545.933594"/>
      <use xlink:href="#DejaVuSans-31" x="582.017578"/>
      <use xlink:href="#DejaVuSans-30" x="645.640625"/>
     </g>
    </g>
    <g id="line2d_20">
     <path d="M 314.923906 43.514219 
L 325.923906 43.514219 
L 336.923906 43.514219 
" style="fill: none; stroke: #dd8452; stroke-width: 3; stroke-linecap: round"/>
    </g>
    <g id="text_19">
     <!-- SAC-IS-DELAY-10 -->
     <g style="fill: #262626" transform="translate(345.723906 47.364219)scale(0.11 -0.11)">
      <defs>
       <path id="DejaVuSans-49" d="M 628 4666 
L 1259 4666 
L 1259 0 
L 628 0 
L 628 4666 
z
" transform="scale(0.015625)"/>
      </defs>
      <use xlink:href="#DejaVuSans-53"/>
      <use xlink:href="#DejaVuSans-41" x="65.351562"/>
      <use xlink:href="#DejaVuSans-43" x="132.009766"/>
      <use xlink:href="#DejaVuSans-2d" x="201.833984"/>
      <use xlink:href="#DejaVuSans-49" x="237.917969"/>
      <use xlink:href="#DejaVuSans-53" x="267.410156"/>
      <use xlink:href="#DejaVuSans-2d" x="330.886719"/>
      <use xlink:href="#DejaVuSans-44" x="366.970703"/>
      <use xlink:href="#DejaVuSans-45" x="443.972656"/>
      <use xlink:href="#DejaVuSans-4c" x="507.15625"/>
      <use xlink:href="#DejaVuSans-41" x="565.119141"/>
      <use xlink:href="#DejaVuSans-59" x="625.777344"/>
      <use xlink:href="#DejaVuSans-2d" x="674.986328"/>
      <use xlink:href="#DejaVuSans-31" x="711.070312"/>
      <use xlink:href="#DejaVuSans-30" x="774.693359"/>
     </g>
    </g>
    <g id="line2d_21">
     <path d="M 314.923906 59.660156 
L 325.923906 59.660156 
L 336.923906 59.660156 
" style="fill: none; stroke: #55a868; stroke-width: 3; stroke-linecap: round"/>
    </g>
    <g id="text_20">
     <!-- DCAC-DELAY-10 -->
     <g style="fill: #262626" transform="translate(345.723906 63.510156)scale(0.11 -0.11)">
      <use xlink:href="#DejaVuSans-44"/>
      <use xlink:href="#DejaVuSans-43" x="77.001953"/>
      <use xlink:href="#DejaVuSans-41" x="146.826172"/>
      <use xlink:href="#DejaVuSans-43" x="213.484375"/>
      <use xlink:href="#DejaVuSans-2d" x="283.308594"/>
      <use xlink:href="#DejaVuSans-44" x="319.392578"/>
      <use xlink:href="#DejaVuSans-45" x="396.394531"/>
      <use xlink:href="#DejaVuSans-4c" x="459.578125"/>
      <use xlink:href="#DejaVuSans-41" x="517.541016"/>
      <use xlink:href="#DejaVuSans-59" x="578.199219"/>
      <use xlink:href="#DejaVuSans-2d" x="627.408203"/>
      <use xlink:href="#DejaVuSans-31" x="663.492188"/>
      <use xlink:href="#DejaVuSans-30" x="727.115234"/>
     </g>
    </g>
   </g>
  </g>
 </g>
 <defs>
  <clipPath id="pee93aed932">
   <rect x="67.86" y="12.96" width="379.98" height="281.7"/>
  </clipPath>
 </defs>
</svg>
