<?xml version="1.0" encoding="utf-8" standalone="no"?>
<!DOCTYPE svg PUBLIC "-//W3C//DTD SVG 1.1//EN"
  "http://www.w3.org/Graphics/SVG/1.1/DTD/svg11.dtd">
<svg xmlns:xlink="http://www.w3.org/1999/xlink" width="460.8pt" height="345.6pt" viewBox="0 0 460.8 345.6" xmlns="http://www.w3.org/2000/svg" version="1.1">
 <metadata>
  <rdf:RDF xmlns:dc="http://purl.org/dc/elements/1.1/" xmlns:cc="http://creativecommons.org/ns#" xmlns:rdf="http://www.w3.org/1999/02/22-rdf-syntax-ns#">
   <cc:Work>
    <dc:type rdf:resource="http://purl.org/dc/dcmitype/StillImage"/>
    <dc:date>2022-09-10T15:51:17.634812</dc:date>
    <dc:format>image/svg+xml</dc:format>
    <dc:creator>
     <cc:Agent>
      <dc:title>Matplotlib v3.5.3, https://matplotlib.org/</dc:title>
     </cc:Agent>
    </dc:creator>
   </cc:Work>
  </rdf:RDF>
 </metadata>
 <defs>
  <style type="text/css">*{stroke-linejoin: round; stroke-linecap: butt}</style>
 </defs>
 <g id="figure_1">
  <g id="patch_1">
   <path d="M 0 345.6 
L 460.8 345.6 
L 460.8 0 
L 0 0 
z
" style="fill: #ffffff"/>
  </g>
  <g id="axes_1">
   <g id="patch_2">
    <path d="M 67.86 294.66 
L 447.84 294.66 
L 447.84 29.76 
L 67.86 29.76 
z
" style="fill: #eaeaf2"/>
   </g>
   <g id="matplotlib.axis_1">
    <g id="xtick_1">
     <g id="line2d_1">
      <path d="M 82.228992 294.66 
L 82.228992 29.76 
" clip-path="url(#p2c8d8b67e5)" style="fill: none; stroke: #ffffff; stroke-linecap: round"/>
     </g>
     <g id="text_1">
      <!-- 0.00 -->
      <g style="fill: #262626" transform="translate(69.982898 312.518281)scale(0.11 -0.11)">
       <defs>
        <path id="DejaVuSans-30" d="M 2034 4250 
Q 1547 4250 1301 3770 
Q 1056 3291 1056 2328 
Q 1056 1369 1301 889 
Q 1547 409 2034 409 
Q 2525 409 2770 889 
Q 3016 1369 3016 2328 
Q 3016 3291 2770 3770 
Q 2525 4250 2034 4250 
z
M 2034 4750 
Q 2819 4750 3233 4129 
Q 3647 3509 3647 2328 
Q 3647 1150 3233 529 
Q 2819 -91 2034 -91 
Q 1250 -91 836 529 
Q 422 1150 422 2328 
Q 422 3509 836 4129 
Q 1250 4750 2034 4750 
z
" transform="scale(0.015625)"/>
        <path id="DejaVuSans-2e" d="M 684 794 
L 1344 794 
L 1344 0 
L 684 0 
L 684 794 
z
" transform="scale(0.015625)"/>
       </defs>
       <use xlink:href="#DejaVuSans-30"/>
       <use xlink:href="#DejaVuSans-2e" x="63.623047"/>
       <use xlink:href="#DejaVuSans-30" x="95.410156"/>
       <use xlink:href="#DejaVuSans-30" x="159.033203"/>
      </g>
     </g>
    </g>
    <g id="xtick_2">
     <g id="line2d_2">
      <path d="M 140.285523 294.66 
L 140.285523 29.76 
" clip-path="url(#p2c8d8b67e5)" style="fill: none; stroke: #ffffff; stroke-linecap: round"/>
     </g>
     <g id="text_2">
      <!-- 0.05 -->
      <g style="fill: #262626" transform="translate(128.03943 312.518281)scale(0.11 -0.11)">
       <defs>
        <path id="DejaVuSans-35" d="M 691 4666 
L 3169 4666 
L 3169 4134 
L 1269 4134 
L 1269 2991 
Q 1406 3038 1543 3061 
Q 1681 3084 1819 3084 
Q 2600 3084 3056 2656 
Q 3513 2228 3513 1497 
Q 3513 744 3044 326 
Q 2575 -91 1722 -91 
Q 1428 -91 1123 -41 
Q 819 9 494 109 
L 494 744 
Q 775 591 1075 516 
Q 1375 441 1709 441 
Q 2250 441 2565 725 
Q 2881 1009 2881 1497 
Q 2881 1984 2565 2268 
Q 2250 2553 1709 2553 
Q 1456 2553 1204 2497 
Q 953 2441 691 2322 
L 691 4666 
z
" transform="scale(0.015625)"/>
       </defs>
       <use xlink:href="#DejaVuSans-30"/>
       <use xlink:href="#DejaVuSans-2e" x="63.623047"/>
       <use xlink:href="#DejaVuSans-30" x="95.410156"/>
       <use xlink:href="#DejaVuSans-35" x="159.033203"/>
      </g>
     </g>
    </g>
    <g id="xtick_3">
     <g id="line2d_3">
      <path d="M 198.342055 294.66 
L 198.342055 29.76 
" clip-path="url(#p2c8d8b67e5)" style="fill: none; stroke: #ffffff; stroke-linecap: round"/>
     </g>
     <g id="text_3">
      <!-- 0.10 -->
      <g style="fill: #262626" transform="translate(186.095961 312.518281)scale(0.11 -0.11)">
       <defs>
        <path id="DejaVuSans-31" d="M 794 531 
L 1825 531 
L 1825 4091 
L 703 3866 
L 703 4441 
L 1819 4666 
L 2450 4666 
L 2450 531 
L 3481 531 
L 3481 0 
L 794 0 
L 794 531 
z
" transform="scale(0.015625)"/>
       </defs>
       <use xlink:href="#DejaVuSans-30"/>
       <use xlink:href="#DejaVuSans-2e" x="63.623047"/>
       <use xlink:href="#DejaVuSans-31" x="95.410156"/>
       <use xlink:href="#DejaVuSans-30" x="159.033203"/>
      </g>
     </g>
    </g>
    <g id="xtick_4">
     <g id="line2d_4">
      <path d="M 256.398587 294.66 
L 256.398587 29.76 
" clip-path="url(#p2c8d8b67e5)" style="fill: none; stroke: #ffffff; stroke-linecap: round"/>
     </g>
     <g id="text_4">
      <!-- 0.15 -->
      <g style="fill: #262626" transform="translate(244.152493 312.518281)scale(0.11 -0.11)">
       <use xlink:href="#DejaVuSans-30"/>
       <use xlink:href="#DejaVuSans-2e" x="63.623047"/>
       <use xlink:href="#DejaVuSans-31" x="95.410156"/>
       <use xlink:href="#DejaVuSans-35" x="159.033203"/>
      </g>
     </g>
    </g>
    <g id="xtick_5">
     <g id="line2d_5">
      <path d="M 314.455118 294.66 
L 314.455118 29.76 
" clip-path="url(#p2c8d8b67e5)" style="fill: none; stroke: #ffffff; stroke-linecap: round"/>
     </g>
     <g id="text_5">
      <!-- 0.20 -->
      <g style="fill: #262626" transform="translate(302.209025 312.518281)scale(0.11 -0.11)">
       <defs>
        <path id="DejaVuSans-32" d="M 1228 531 
L 3431 531 
L 3431 0 
L 469 0 
L 469 531 
Q 828 903 1448 1529 
Q 2069 2156 2228 2338 
Q 2531 2678 2651 2914 
Q 2772 3150 2772 3378 
Q 2772 3750 2511 3984 
Q 2250 4219 1831 4219 
Q 1534 4219 1204 4116 
Q 875 4013 500 3803 
L 500 4441 
Q 881 4594 1212 4672 
Q 1544 4750 1819 4750 
Q 2544 4750 2975 4387 
Q 3406 4025 3406 3419 
Q 3406 3131 3298 2873 
Q 3191 2616 2906 2266 
Q 2828 2175 2409 1742 
Q 1991 1309 1228 531 
z
" transform="scale(0.015625)"/>
       </defs>
       <use xlink:href="#DejaVuSans-30"/>
       <use xlink:href="#DejaVuSans-2e" x="63.623047"/>
       <use xlink:href="#DejaVuSans-32" x="95.410156"/>
       <use xlink:href="#DejaVuSans-30" x="159.033203"/>
      </g>
     </g>
    </g>
    <g id="xtick_6">
     <g id="line2d_6">
      <path d="M 372.51165 294.66 
L 372.51165 29.76 
" clip-path="url(#p2c8d8b67e5)" style="fill: none; stroke: #ffffff; stroke-linecap: round"/>
     </g>
     <g id="text_6">
      <!-- 0.25 -->
      <g style="fill: #262626" transform="translate(360.265556 312.518281)scale(0.11 -0.11)">
       <use xlink:href="#DejaVuSans-30"/>
       <use xlink:href="#DejaVuSans-2e" x="63.623047"/>
       <use xlink:href="#DejaVuSans-32" x="95.410156"/>
       <use xlink:href="#DejaVuSans-35" x="159.033203"/>
      </g>
     </g>
    </g>
    <g id="xtick_7">
     <g id="line2d_7">
      <path d="M 430.568182 294.66 
L 430.568182 29.76 
" clip-path="url(#p2c8d8b67e5)" style="fill: none; stroke: #ffffff; stroke-linecap: round"/>
     </g>
     <g id="text_7">
      <!-- 0.30 -->
      <g style="fill: #262626" transform="translate(418.322088 312.518281)scale(0.11 -0.11)">
       <defs>
        <path id="DejaVuSans-33" d="M 2597 2516 
Q 3050 2419 3304 2112 
Q 3559 1806 3559 1356 
Q 3559 666 3084 287 
Q 2609 -91 1734 -91 
Q 1441 -91 1130 -33 
Q 819 25 488 141 
L 488 750 
Q 750 597 1062 519 
Q 1375 441 1716 441 
Q 2309 441 2620 675 
Q 2931 909 2931 1356 
Q 2931 1769 2642 2001 
Q 2353 2234 1838 2234 
L 1294 2234 
L 1294 2753 
L 1863 2753 
Q 2328 2753 2575 2939 
Q 2822 3125 2822 3475 
Q 2822 3834 2567 4026 
Q 2313 4219 1838 4219 
Q 1578 4219 1281 4162 
Q 984 4106 628 3988 
L 628 4550 
Q 988 4650 1302 4700 
Q 1616 4750 1894 4750 
Q 2613 4750 3031 4423 
Q 3450 4097 3450 3541 
Q 3450 3153 3228 2886 
Q 3006 2619 2597 2516 
z
" transform="scale(0.015625)"/>
       </defs>
       <use xlink:href="#DejaVuSans-30"/>
       <use xlink:href="#DejaVuSans-2e" x="63.623047"/>
       <use xlink:href="#DejaVuSans-33" x="95.410156"/>
       <use xlink:href="#DejaVuSans-30" x="159.033203"/>
      </g>
     </g>
    </g>
    <g id="text_8">
     <!-- Timesteps (in Million) -->
     <g style="fill: #262626" transform="translate(183.104219 329.44375)scale(0.14 -0.14)">
      <defs>
       <path id="DejaVuSans-54" d="M -19 4666 
L 3928 4666 
L 3928 4134 
L 2272 4134 
L 2272 0 
L 1638 0 
L 1638 4134 
L -19 4134 
L -19 4666 
z
" transform="scale(0.015625)"/>
       <path id="DejaVuSans-69" d="M 603 3500 
L 1178 3500 
L 1178 0 
L 603 0 
L 603 3500 
z
M 603 4863 
L 1178 4863 
L 1178 4134 
L 603 4134 
L 603 4863 
z
" transform="scale(0.015625)"/>
       <path id="DejaVuSans-6d" d="M 3328 2828 
Q 3544 3216 3844 3400 
Q 4144 3584 4550 3584 
Q 5097 3584 5394 3201 
Q 5691 2819 5691 2113 
L 5691 0 
L 5113 0 
L 5113 2094 
Q 5113 2597 4934 2840 
Q 4756 3084 4391 3084 
Q 3944 3084 3684 2787 
Q 3425 2491 3425 1978 
L 3425 0 
L 2847 0 
L 2847 2094 
Q 2847 2600 2669 2842 
Q 2491 3084 2119 3084 
Q 1678 3084 1418 2786 
Q 1159 2488 1159 1978 
L 1159 0 
L 581 0 
L 581 3500 
L 1159 3500 
L 1159 2956 
Q 1356 3278 1631 3431 
Q 1906 3584 2284 3584 
Q 2666 3584 2933 3390 
Q 3200 3197 3328 2828 
z
" transform="scale(0.015625)"/>
       <path id="DejaVuSans-65" d="M 3597 1894 
L 3597 1613 
L 953 1613 
Q 991 1019 1311 708 
Q 1631 397 2203 397 
Q 2534 397 2845 478 
Q 3156 559 3463 722 
L 3463 178 
Q 3153 47 2828 -22 
Q 2503 -91 2169 -91 
Q 1331 -91 842 396 
Q 353 884 353 1716 
Q 353 2575 817 3079 
Q 1281 3584 2069 3584 
Q 2775 3584 3186 3129 
Q 3597 2675 3597 1894 
z
M 3022 2063 
Q 3016 2534 2758 2815 
Q 2500 3097 2075 3097 
Q 1594 3097 1305 2825 
Q 1016 2553 972 2059 
L 3022 2063 
z
" transform="scale(0.015625)"/>
       <path id="DejaVuSans-73" d="M 2834 3397 
L 2834 2853 
Q 2591 2978 2328 3040 
Q 2066 3103 1784 3103 
Q 1356 3103 1142 2972 
Q 928 2841 928 2578 
Q 928 2378 1081 2264 
Q 1234 2150 1697 2047 
L 1894 2003 
Q 2506 1872 2764 1633 
Q 3022 1394 3022 966 
Q 3022 478 2636 193 
Q 2250 -91 1575 -91 
Q 1294 -91 989 -36 
Q 684 19 347 128 
L 347 722 
Q 666 556 975 473 
Q 1284 391 1588 391 
Q 1994 391 2212 530 
Q 2431 669 2431 922 
Q 2431 1156 2273 1281 
Q 2116 1406 1581 1522 
L 1381 1569 
Q 847 1681 609 1914 
Q 372 2147 372 2553 
Q 372 3047 722 3315 
Q 1072 3584 1716 3584 
Q 2034 3584 2315 3537 
Q 2597 3491 2834 3397 
z
" transform="scale(0.015625)"/>
       <path id="DejaVuSans-74" d="M 1172 4494 
L 1172 3500 
L 2356 3500 
L 2356 3053 
L 1172 3053 
L 1172 1153 
Q 1172 725 1289 603 
Q 1406 481 1766 481 
L 2356 481 
L 2356 0 
L 1766 0 
Q 1100 0 847 248 
Q 594 497 594 1153 
L 594 3053 
L 172 3053 
L 172 3500 
L 594 3500 
L 594 4494 
L 1172 4494 
z
" transform="scale(0.015625)"/>
       <path id="DejaVuSans-70" d="M 1159 525 
L 1159 -1331 
L 581 -1331 
L 581 3500 
L 1159 3500 
L 1159 2969 
Q 1341 3281 1617 3432 
Q 1894 3584 2278 3584 
Q 2916 3584 3314 3078 
Q 3713 2572 3713 1747 
Q 3713 922 3314 415 
Q 2916 -91 2278 -91 
Q 1894 -91 1617 61 
Q 1341 213 1159 525 
z
M 3116 1747 
Q 3116 2381 2855 2742 
Q 2594 3103 2138 3103 
Q 1681 3103 1420 2742 
Q 1159 2381 1159 1747 
Q 1159 1113 1420 752 
Q 1681 391 2138 391 
Q 2594 391 2855 752 
Q 3116 1113 3116 1747 
z
" transform="scale(0.015625)"/>
       <path id="DejaVuSans-20" transform="scale(0.015625)"/>
       <path id="DejaVuSans-28" d="M 1984 4856 
Q 1566 4138 1362 3434 
Q 1159 2731 1159 2009 
Q 1159 1288 1364 580 
Q 1569 -128 1984 -844 
L 1484 -844 
Q 1016 -109 783 600 
Q 550 1309 550 2009 
Q 550 2706 781 3412 
Q 1013 4119 1484 4856 
L 1984 4856 
z
" transform="scale(0.015625)"/>
       <path id="DejaVuSans-6e" d="M 3513 2113 
L 3513 0 
L 2938 0 
L 2938 2094 
Q 2938 2591 2744 2837 
Q 2550 3084 2163 3084 
Q 1697 3084 1428 2787 
Q 1159 2491 1159 1978 
L 1159 0 
L 581 0 
L 581 3500 
L 1159 3500 
L 1159 2956 
Q 1366 3272 1645 3428 
Q 1925 3584 2291 3584 
Q 2894 3584 3203 3211 
Q 3513 2838 3513 2113 
z
" transform="scale(0.015625)"/>
       <path id="DejaVuSans-4d" d="M 628 4666 
L 1569 4666 
L 2759 1491 
L 3956 4666 
L 4897 4666 
L 4897 0 
L 4281 0 
L 4281 4097 
L 3078 897 
L 2444 897 
L 1241 4097 
L 1241 0 
L 628 0 
L 628 4666 
z
" transform="scale(0.015625)"/>
       <path id="DejaVuSans-6c" d="M 603 4863 
L 1178 4863 
L 1178 0 
L 603 0 
L 603 4863 
z
" transform="scale(0.015625)"/>
       <path id="DejaVuSans-6f" d="M 1959 3097 
Q 1497 3097 1228 2736 
Q 959 2375 959 1747 
Q 959 1119 1226 758 
Q 1494 397 1959 397 
Q 2419 397 2687 759 
Q 2956 1122 2956 1747 
Q 2956 2369 2687 2733 
Q 2419 3097 1959 3097 
z
M 1959 3584 
Q 2709 3584 3137 3096 
Q 3566 2609 3566 1747 
Q 3566 888 3137 398 
Q 2709 -91 1959 -91 
Q 1206 -91 779 398 
Q 353 888 353 1747 
Q 353 2609 779 3096 
Q 1206 3584 1959 3584 
z
" transform="scale(0.015625)"/>
       <path id="DejaVuSans-29" d="M 513 4856 
L 1013 4856 
Q 1481 4119 1714 3412 
Q 1947 2706 1947 2009 
Q 1947 1309 1714 600 
Q 1481 -109 1013 -844 
L 513 -844 
Q 928 -128 1133 580 
Q 1338 1288 1338 2009 
Q 1338 2731 1133 3434 
Q 928 4138 513 4856 
z
" transform="scale(0.015625)"/>
      </defs>
      <use xlink:href="#DejaVuSans-54"/>
      <use xlink:href="#DejaVuSans-69" x="57.958984"/>
      <use xlink:href="#DejaVuSans-6d" x="85.742188"/>
      <use xlink:href="#DejaVuSans-65" x="183.154297"/>
      <use xlink:href="#DejaVuSans-73" x="244.677734"/>
      <use xlink:href="#DejaVuSans-74" x="296.777344"/>
      <use xlink:href="#DejaVuSans-65" x="335.986328"/>
      <use xlink:href="#DejaVuSans-70" x="397.509766"/>
      <use xlink:href="#DejaVuSans-73" x="460.986328"/>
      <use xlink:href="#DejaVuSans-20" x="513.085938"/>
      <use xlink:href="#DejaVuSans-28" x="544.873047"/>
      <use xlink:href="#DejaVuSans-69" x="583.886719"/>
      <use xlink:href="#DejaVuSans-6e" x="611.669922"/>
      <use xlink:href="#DejaVuSans-20" x="675.048828"/>
      <use xlink:href="#DejaVuSans-4d" x="706.835938"/>
      <use xlink:href="#DejaVuSans-69" x="793.115234"/>
      <use xlink:href="#DejaVuSans-6c" x="820.898438"/>
      <use xlink:href="#DejaVuSans-6c" x="848.681641"/>
      <use xlink:href="#DejaVuSans-69" x="876.464844"/>
      <use xlink:href="#DejaVuSans-6f" x="904.248047"/>
      <use xlink:href="#DejaVuSans-6e" x="965.429688"/>
      <use xlink:href="#DejaVuSans-29" x="1028.808594"/>
     </g>
    </g>
   </g>
   <g id="matplotlib.axis_2">
    <g id="ytick_1">
     <g id="line2d_8">
      <path d="M 67.86 282.619091 
L 447.84 282.619091 
" clip-path="url(#p2c8d8b67e5)" style="fill: none; stroke: #ffffff; stroke-linecap: round"/>
     </g>
     <g id="text_9">
      <!-- 0 -->
      <g style="fill: #262626" transform="translate(51.36125 286.798232)scale(0.11 -0.11)">
       <use xlink:href="#DejaVuSans-30"/>
      </g>
     </g>
    </g>
    <g id="ytick_2">
     <g id="line2d_9">
      <path d="M 67.86 232.448636 
L 447.84 232.448636 
" clip-path="url(#p2c8d8b67e5)" style="fill: none; stroke: #ffffff; stroke-linecap: round"/>
     </g>
     <g id="text_10">
      <!-- 500 -->
      <g style="fill: #262626" transform="translate(37.36375 236.627777)scale(0.11 -0.11)">
       <use xlink:href="#DejaVuSans-35"/>
       <use xlink:href="#DejaVuSans-30" x="63.623047"/>
       <use xlink:href="#DejaVuSans-30" x="127.246094"/>
      </g>
     </g>
    </g>
    <g id="ytick_3">
     <g id="line2d_10">
      <path d="M 67.86 182.278182 
L 447.84 182.278182 
" clip-path="url(#p2c8d8b67e5)" style="fill: none; stroke: #ffffff; stroke-linecap: round"/>
     </g>
     <g id="text_11">
      <!-- 1000 -->
      <g style="fill: #262626" transform="translate(30.365 186.457322)scale(0.11 -0.11)">
       <use xlink:href="#DejaVuSans-31"/>
       <use xlink:href="#DejaVuSans-30" x="63.623047"/>
       <use xlink:href="#DejaVuSans-30" x="127.246094"/>
       <use xlink:href="#DejaVuSans-30" x="190.869141"/>
      </g>
     </g>
    </g>
    <g id="ytick_4">
     <g id="line2d_11">
      <path d="M 67.86 132.107727 
L 447.84 132.107727 
" clip-path="url(#p2c8d8b67e5)" style="fill: none; stroke: #ffffff; stroke-linecap: round"/>
     </g>
     <g id="text_12">
      <!-- 1500 -->
      <g style="fill: #262626" transform="translate(30.365 136.286868)scale(0.11 -0.11)">
       <use xlink:href="#DejaVuSans-31"/>
       <use xlink:href="#DejaVuSans-35" x="63.623047"/>
       <use xlink:href="#DejaVuSans-30" x="127.246094"/>
       <use xlink:href="#DejaVuSans-30" x="190.869141"/>
      </g>
     </g>
    </g>
    <g id="ytick_5">
     <g id="line2d_12">
      <path d="M 67.86 81.937273 
L 447.84 81.937273 
" clip-path="url(#p2c8d8b67e5)" style="fill: none; stroke: #ffffff; stroke-linecap: round"/>
     </g>
     <g id="text_13">
      <!-- 2000 -->
      <g style="fill: #262626" transform="translate(30.365 86.116413)scale(0.11 -0.11)">
       <use xlink:href="#DejaVuSans-32"/>
       <use xlink:href="#DejaVuSans-30" x="63.623047"/>
       <use xlink:href="#DejaVuSans-30" x="127.246094"/>
       <use xlink:href="#DejaVuSans-30" x="190.869141"/>
      </g>
     </g>
    </g>
    <g id="ytick_6">
     <g id="line2d_13">
      <path d="M 67.86 31.766818 
L 447.84 31.766818 
" clip-path="url(#p2c8d8b67e5)" style="fill: none; stroke: #ffffff; stroke-linecap: round"/>
     </g>
     <g id="text_14">
      <!-- 2500 -->
      <g style="fill: #262626" transform="translate(30.365 35.945959)scale(0.11 -0.11)">
       <use xlink:href="#DejaVuSans-32"/>
       <use xlink:href="#DejaVuSans-35" x="63.623047"/>
       <use xlink:href="#DejaVuSans-30" x="127.246094"/>
       <use xlink:href="#DejaVuSans-30" x="190.869141"/>
      </g>
     </g>
    </g>
    <g id="text_15">
     <!-- # Lows (Δx &lt; 0) -->
     <g style="fill: #262626" transform="translate(23.453438 219.12)rotate(-90)scale(0.14 -0.14)">
      <defs>
       <path id="DejaVuSans-23" d="M 3272 2816 
L 2363 2816 
L 2100 1772 
L 3016 1772 
L 3272 2816 
z
M 2803 4594 
L 2478 3297 
L 3391 3297 
L 3719 4594 
L 4219 4594 
L 3897 3297 
L 4872 3297 
L 4872 2816 
L 3775 2816 
L 3519 1772 
L 4513 1772 
L 4513 1294 
L 3397 1294 
L 3072 0 
L 2572 0 
L 2894 1294 
L 1978 1294 
L 1656 0 
L 1153 0 
L 1478 1294 
L 494 1294 
L 494 1772 
L 1594 1772 
L 1856 2816 
L 850 2816 
L 850 3297 
L 1978 3297 
L 2297 4594 
L 2803 4594 
z
" transform="scale(0.015625)"/>
       <path id="DejaVuSans-4c" d="M 628 4666 
L 1259 4666 
L 1259 531 
L 3531 531 
L 3531 0 
L 628 0 
L 628 4666 
z
" transform="scale(0.015625)"/>
       <path id="DejaVuSans-77" d="M 269 3500 
L 844 3500 
L 1563 769 
L 2278 3500 
L 2956 3500 
L 3675 769 
L 4391 3500 
L 4966 3500 
L 4050 0 
L 3372 0 
L 2619 2869 
L 1863 0 
L 1184 0 
L 269 3500 
z
" transform="scale(0.015625)"/>
       <path id="DejaVuSans-394" d="M 2188 4044 
L 906 525 
L 3472 525 
L 2188 4044 
z
M 50 0 
L 1831 4666 
L 2547 4666 
L 4325 0 
L 50 0 
z
" transform="scale(0.015625)"/>
       <path id="DejaVuSans-78" d="M 3513 3500 
L 2247 1797 
L 3578 0 
L 2900 0 
L 1881 1375 
L 863 0 
L 184 0 
L 1544 1831 
L 300 3500 
L 978 3500 
L 1906 2253 
L 2834 3500 
L 3513 3500 
z
" transform="scale(0.015625)"/>
       <path id="DejaVuSans-3c" d="M 4684 3150 
L 1459 2003 
L 4684 863 
L 4684 294 
L 678 1747 
L 678 2266 
L 4684 3719 
L 4684 3150 
z
" transform="scale(0.015625)"/>
      </defs>
      <use xlink:href="#DejaVuSans-23"/>
      <use xlink:href="#DejaVuSans-20" x="83.789062"/>
      <use xlink:href="#DejaVuSans-4c" x="115.576172"/>
      <use xlink:href="#DejaVuSans-6f" x="169.539062"/>
      <use xlink:href="#DejaVuSans-77" x="230.720703"/>
      <use xlink:href="#DejaVuSans-73" x="312.507812"/>
      <use xlink:href="#DejaVuSans-20" x="364.607422"/>
      <use xlink:href="#DejaVuSans-28" x="396.394531"/>
      <use xlink:href="#DejaVuSans-394" x="435.408203"/>
      <use xlink:href="#DejaVuSans-78" x="503.816406"/>
      <use xlink:href="#DejaVuSans-20" x="562.996094"/>
      <use xlink:href="#DejaVuSans-3c" x="594.783203"/>
      <use xlink:href="#DejaVuSans-20" x="678.572266"/>
      <use xlink:href="#DejaVuSans-30" x="710.359375"/>
      <use xlink:href="#DejaVuSans-29" x="773.982422"/>
     </g>
    </g>
   </g>
   <g id="PolyCollection_1">
    <defs>
     <path id="me2863a4294" d="M 85.131818 -129.065432 
L 85.131818 -168.218455 
L 88.034645 -168.499409 
L 90.937471 -161.234727 
L 93.840298 -164.365364 
L 96.743125 -134.243023 
L 99.645951 -131.132455 
L 102.548778 -62.980909 
L 105.451604 -86.199795 
L 108.354431 -106.408455 
L 111.257257 -91.818886 
L 114.160084 -120.897682 
L 117.062911 -98.902955 
L 119.965737 -105.043818 
L 122.868564 -95.671977 
L 125.77139 -73.175545 
L 128.674217 -75.00175 
L 131.577044 -84.253182 
L 134.47987 -65.870727 
L 137.382697 -69.583341 
L 140.285523 -86.500818 
L 143.18835 -76.486795 
L 146.091176 -84.012364 
L 148.994003 -83.691273 
L 151.89683 -80.761318 
L 154.799656 -74.520114 
L 157.702483 -237.533955 
L 160.605309 -137.815159 
L 163.508136 -108.515614 
L 166.410963 -76.446659 
L 169.313789 -134.062409 
L 172.216616 -75.00175 
L 175.119442 -71.088455 
L 178.022269 -71.429614 
L 180.925095 -73.135409 
L 183.827922 -107.853364 
L 186.730749 -84.895364 
L 189.633575 -81.724591 
L 192.536402 -73.135409 
L 195.439228 -92.681818 
L 198.342055 -156.67925 
L 201.244882 -93.364136 
L 204.147708 -111.927205 
L 207.050535 -84.172909 
L 209.953361 -99.9465 
L 212.856188 -96.133545 
L 215.759015 -95.370955 
L 218.661841 -120.115023 
L 221.564668 -127.680727 
L 224.467494 -118.750386 
L 227.370321 -127.018477 
L 230.273147 -101.652295 
L 233.175974 -179.918205 
L 236.078801 -103.438364 
L 238.981627 -95.190341 
L 241.884454 -122.824227 
L 244.78728 -106.087364 
L 247.690107 -120.456182 
L 250.592934 -115.579614 
L 253.49576 -133.580773 
L 256.398587 -110.602705 
L 259.301413 -116.683364 
L 262.20424 -164.385432 
L 265.107066 -171.449432 
L 268.009893 -113.392182 
L 270.91272 -150.979886 
L 273.815546 -116.783705 
L 276.718373 -134.483841 
L 279.621199 -152.946568 
L 282.524026 -126.456568 
L 285.426853 -181.322977 
L 288.329679 -117.947659 
L 291.232506 -136.249841 
L 294.135332 -140.363818 
L 297.038159 -118.449364 
L 299.940985 -132.537227 
L 302.843812 -133.681114 
L 305.746639 -141.266886 
L 308.649465 -163.060932 
L 311.552292 -149.675455 
L 314.455118 -137.855295 
L 317.357945 -97.07675 
L 320.260772 -126.737523 
L 323.163598 -137.353591 
L 326.066425 -126.878 
L 328.969251 -141.989341 
L 331.872078 -138.758364 
L 334.774905 -147.327477 
L 337.677731 -135.808341 
L 340.580558 -139.24 
L 343.483384 -161.696295 
L 346.386211 -135.065818 
L 349.289037 -140.765182 
L 352.191864 -110.040795 
L 355.094691 -80.460295 
L 357.997517 -143.956023 
L 360.900344 -139.982523 
L 363.80317 -135.527386 
L 366.705997 -163.602773 
L 369.608824 -128.082091 
L 372.51165 -132.416818 
L 375.414477 -100.729159 
L 378.317303 -114.29525 
L 381.22013 -142.691727 
L 384.122956 -136.751545 
L 387.025783 -103.518636 
L 389.92861 -139.581159 
L 392.831436 -104.542114 
L 395.734263 -136.631136 
L 398.637089 -111.806795 
L 401.539916 -112.910545 
L 404.442743 -141.527773 
L 407.345569 -132.035523 
L 410.248396 -127.179023 
L 413.151222 -157.180955 
L 416.054049 -123.105182 
L 418.956875 -131.092318 
L 421.859702 -111.907136 
L 424.762529 -99.846159 
L 427.665355 -103.077136 
L 430.568182 -98.902955 
L 430.568182 -84.795023 
L 430.568182 -84.795023 
L 427.665355 -82.527318 
L 424.762529 -82.025614 
L 421.859702 -73.115341 
L 418.956875 -70.988114 
L 416.054049 -86.119523 
L 413.151222 -95.892727 
L 410.248396 -85.497409 
L 407.345569 -83.550795 
L 404.442743 -81.363364 
L 401.539916 -78.252795 
L 398.637089 -81.644318 
L 395.734263 -76.547 
L 392.831436 -74.259227 
L 389.92861 -68.278909 
L 387.025783 -71.168727 
L 384.122956 -71.148659 
L 381.22013 -87.604568 
L 378.317303 -69.984705 
L 375.414477 -68.1585 
L 372.51165 -75.965023 
L 369.608824 -63.000977 
L 366.705997 -75.202432 
L 363.80317 -65.569705 
L 360.900344 -66.272091 
L 357.997517 -62.980909 
L 355.094691 -62.980909 
L 352.191864 -64.927523 
L 349.289037 -78.814705 
L 346.386211 -73.576909 
L 343.483384 -68.138432 
L 340.580558 -84.433795 
L 337.677731 -73.958205 
L 334.774905 -86.681432 
L 331.872078 -62.980909 
L 328.969251 -84.072568 
L 326.066425 -71.008182 
L 323.163598 -102.796182 
L 320.260772 -96.755659 
L 317.357945 -63.502682 
L 314.455118 -82.968818 
L 311.552292 -86.360341 
L 308.649465 -73.115341 
L 305.746639 -65.068 
L 302.843812 -62.980909 
L 299.940985 -63.000977 
L 297.038159 -65.007795 
L 294.135332 -65.007795 
L 291.232506 -65.007795 
L 288.329679 -66.252023 
L 285.426853 -63.000977 
L 282.524026 -62.980909 
L 279.621199 -69.181977 
L 276.718373 -69.302386 
L 273.815546 -69.362591 
L 270.91272 -90.875682 
L 268.009893 -67.034682 
L 265.107066 -62.980909 
L 262.20424 -62.980909 
L 259.301413 -62.980909 
L 256.398587 -71.710568 
L 253.49576 -73.637114 
L 250.592934 -81.604182 
L 247.690107 -71.449682 
L 244.78728 -73.536773 
L 241.884454 -62.980909 
L 238.981627 -62.980909 
L 236.078801 -71.108523 
L 233.175974 -64.004386 
L 230.273147 -70.787432 
L 227.370321 -72.091864 
L 224.467494 -62.980909 
L 221.564668 -78.654159 
L 218.661841 -66.994545 
L 215.759015 -65.007795 
L 212.856188 -72.172136 
L 209.953361 -69.483 
L 207.050535 -62.980909 
L 204.147708 -63.502682 
L 201.244882 -62.980909 
L 198.342055 -62.980909 
L 195.439228 -62.980909 
L 192.536402 -62.980909 
L 189.633575 -62.980909 
L 186.730749 -64.004386 
L 183.827922 -62.980909 
L 180.925095 -62.980909 
L 178.022269 -63.000977 
L 175.119442 -62.980909 
L 172.216616 -62.980909 
L 169.313789 -62.980909 
L 166.410963 -62.980909 
L 163.508136 -63.763568 
L 160.605309 -62.980909 
L 157.702483 -63.221727 
L 154.799656 -63.96425 
L 151.89683 -62.980909 
L 148.994003 -62.980909 
L 146.091176 -62.980909 
L 143.18835 -62.980909 
L 140.285523 -62.980909 
L 137.382697 -62.980909 
L 134.47987 -62.980909 
L 131.577044 -62.980909 
L 128.674217 -62.980909 
L 125.77139 -62.980909 
L 122.868564 -62.980909 
L 119.965737 -62.980909 
L 117.062911 -62.980909 
L 114.160084 -62.980909 
L 111.257257 -62.980909 
L 108.354431 -62.980909 
L 105.451604 -62.980909 
L 102.548778 -62.980909 
L 99.645951 -65.007795 
L 96.743125 -64.205068 
L 93.840298 -114.636409 
L 90.937471 -123.346 
L 88.034645 -112.910545 
L 85.131818 -129.065432 
z
" style="stroke: #ffffff; stroke-opacity: 0.5"/>
    </defs>
    <g clip-path="url(#p2c8d8b67e5)">
     <use xlink:href="#me2863a4294" x="0" y="345.6" style="fill: #4c72b0; fill-opacity: 0.5; stroke: #ffffff; stroke-opacity: 0.5"/>
    </g>
   </g>
   <g id="PolyCollection_2">
    <defs>
     <path id="m4c87258434" d="M 85.131818 -126.396364 
L 85.131818 -158.625864 
L 88.034645 -166.071159 
L 90.937471 -174.740614 
L 93.840298 -146.906045 
L 96.743125 -174.018159 
L 99.645951 -209.177614 
L 102.548778 -172.031409 
L 105.451604 -127.881409 
L 108.354431 -167.756886 
L 111.257257 -106.990432 
L 114.160084 -76.225909 
L 117.062911 -300.267091 
L 119.965737 -63.843841 
L 122.868564 -83.751477 
L 125.77139 -104.421705 
L 128.674217 -105.726136 
L 131.577044 -76.426591 
L 134.47987 -175.483136 
L 137.382697 -155.996932 
L 140.285523 -303.799091 
L 143.18835 -86.540955 
L 146.091176 -107.853364 
L 148.994003 -99.826091 
L 151.89683 -83.972227 
L 154.799656 -87.423955 
L 157.702483 -94.146795 
L 160.605309 -100.227455 
L 163.508136 -87.745045 
L 166.410963 -156.9 
L 169.313789 -217.004205 
L 172.216616 -104.883273 
L 175.119442 -78.433409 
L 178.022269 -245.922455 
L 180.925095 -156.719386 
L 183.827922 -283.670705 
L 186.730749 -87.343682 
L 189.633575 -102.675773 
L 192.536402 -105.625795 
L 195.439228 -179.717523 
L 198.342055 -107.953705 
L 201.244882 -192.460818 
L 204.147708 -111.124477 
L 207.050535 -119.031341 
L 209.953361 -151.120364 
L 212.856188 -112.689795 
L 215.759015 -290.273136 
L 218.661841 -68.198636 
L 221.564668 -156.659182 
L 224.467494 -286.901682 
L 227.370321 -195.53125 
L 230.273147 -67.014614 
L 233.175974 -129.848091 
L 236.078801 -93.364136 
L 238.981627 -274.740364 
L 241.884454 -67.215295 
L 244.78728 -163.060932 
L 247.690107 -285.055409 
L 250.592934 -94.829114 
L 253.49576 -191.577818 
L 256.398587 -105.665932 
L 259.301413 -150.417977 
L 262.20424 -226.416182 
L 265.107066 -113.171432 
L 268.009893 -272.994432 
L 270.91272 -89.470909 
L 273.815546 -144.377455 
L 276.718373 -155.134 
L 279.621199 -281.282591 
L 282.524026 -97.839341 
L 285.426853 -111.826864 
L 288.329679 -155.936727 
L 291.232506 -132.276341 
L 294.135332 -148.270682 
L 297.038159 -129.687545 
L 299.940985 -97.51825 
L 302.843812 -215.39875 
L 305.746639 -262.438568 
L 308.649465 -132.135864 
L 311.552292 -138.216523 
L 314.455118 -238.477159 
L 317.357945 -107.692818 
L 320.260772 -112.669727 
L 323.163598 -75.383045 
L 326.066425 -112.268364 
L 328.969251 -130.048773 
L 331.872078 -174.359318 
L 334.774905 -116.342205 
L 337.677731 -90.614795 
L 340.580558 -180.781136 
L 343.483384 -120.837477 
L 346.386211 -169.48275 
L 349.289037 -71.188795 
L 352.191864 -151.220705 
L 355.094691 -94.267205 
L 357.997517 -218.388909 
L 360.900344 -136.330114 
L 363.80317 -151.581932 
L 366.705997 -134.243023 
L 369.608824 -153.970045 
L 372.51165 -98.902955 
L 375.414477 -125.854523 
L 378.317303 -100.086977 
L 381.22013 -88.367159 
L 384.122956 -92.160045 
L 387.025783 -130.991977 
L 389.92861 -86.099455 
L 392.831436 -88.788591 
L 395.734263 -120.636795 
L 398.637089 -93.043045 
L 401.539916 -106.950295 
L 404.442743 -132.798114 
L 407.345569 -114.776886 
L 410.248396 -137.975705 
L 413.151222 -134.343364 
L 416.054049 -114.977568 
L 418.956875 -149.334295 
L 421.859702 -111.004068 
L 424.762529 -114.154773 
L 427.665355 -117.265341 
L 430.568182 -120.074886 
L 430.568182 -63.08125 
L 430.568182 -63.08125 
L 427.665355 -63.021045 
L 424.762529 -63.021045 
L 421.859702 -62.980909 
L 418.956875 -63.021045 
L 416.054049 -63.201659 
L 413.151222 -62.980909 
L 410.248396 -62.980909 
L 407.345569 -62.980909 
L 404.442743 -63.021045 
L 401.539916 -62.980909 
L 398.637089 -63.021045 
L 395.734263 -63.061182 
L 392.831436 -63.121386 
L 389.92861 -63.021045 
L 387.025783 -63.101318 
L 384.122956 -64.506091 
L 381.22013 -63.422409 
L 378.317303 -64.967659 
L 375.414477 -69.001364 
L 372.51165 -71.750705 
L 369.608824 -74.018409 
L 366.705997 -63.121386 
L 363.80317 -63.201659 
L 360.900344 -63.261864 
L 357.997517 -63.000977 
L 355.094691 -62.980909 
L 352.191864 -63.021045 
L 349.289037 -63.161523 
L 346.386211 -62.980909 
L 343.483384 -63.482614 
L 340.580558 -79.456886 
L 337.677731 -64.726841 
L 334.774905 -63.000977 
L 331.872078 -62.980909 
L 328.969251 -62.980909 
L 326.066425 -63.000977 
L 323.163598 -62.980909 
L 320.260772 -63.703364 
L 317.357945 -63.000977 
L 314.455118 -67.696932 
L 311.552292 -62.980909 
L 308.649465 -62.980909 
L 305.746639 -66.773795 
L 302.843812 -62.980909 
L 299.940985 -65.5095 
L 297.038159 -62.980909 
L 294.135332 -62.980909 
L 291.232506 -62.980909 
L 288.329679 -63.121386 
L 285.426853 -63.000977 
L 282.524026 -62.980909 
L 279.621199 -62.980909 
L 276.718373 -62.980909 
L 273.815546 -62.980909 
L 270.91272 -62.980909 
L 268.009893 -63.542818 
L 265.107066 -63.101318 
L 262.20424 -71.269068 
L 259.301413 -62.980909 
L 256.398587 -68.058159 
L 253.49576 -62.980909 
L 250.592934 -62.980909 
L 247.690107 -67.676864 
L 244.78728 -92.059705 
L 241.884454 -62.980909 
L 238.981627 -62.980909 
L 236.078801 -63.141455 
L 233.175974 -62.980909 
L 230.273147 -62.980909 
L 227.370321 -62.980909 
L 224.467494 -65.569705 
L 221.564668 -62.980909 
L 218.661841 -62.980909 
L 215.759015 -63.021045 
L 212.856188 -62.980909 
L 209.953361 -63.683295 
L 207.050535 -63.000977 
L 204.147708 -62.980909 
L 201.244882 -63.201659 
L 198.342055 -62.980909 
L 195.439228 -63.061182 
L 192.536402 -63.000977 
L 189.633575 -63.261864 
L 186.730749 -63.000977 
L 183.827922 -63.984318 
L 180.925095 -63.101318 
L 178.022269 -62.980909 
L 175.119442 -62.980909 
L 172.216616 -63.121386 
L 169.313789 -66.512909 
L 166.410963 -62.980909 
L 163.508136 -63.000977 
L 160.605309 -63.041114 
L 157.702483 -62.980909 
L 154.799656 -62.980909 
L 151.89683 -62.980909 
L 148.994003 -62.980909 
L 146.091176 -63.101318 
L 143.18835 -63.08125 
L 140.285523 -62.980909 
L 137.382697 -62.980909 
L 134.47987 -62.980909 
L 131.577044 -62.980909 
L 128.674217 -62.980909 
L 125.77139 -62.980909 
L 122.868564 -62.980909 
L 119.965737 -62.980909 
L 117.062911 -62.980909 
L 114.160084 -62.980909 
L 111.257257 -62.980909 
L 108.354431 -72.111932 
L 105.451604 -65.529568 
L 102.548778 -65.810523 
L 99.645951 -93.022977 
L 96.743125 -123.827636 
L 93.840298 -132.115795 
L 90.937471 -112.188091 
L 88.034645 -132.778045 
L 85.131818 -126.396364 
z
" style="stroke: #ffffff; stroke-opacity: 0.5"/>
    </defs>
    <g clip-path="url(#p2c8d8b67e5)">
     <use xlink:href="#m4c87258434" x="0" y="345.6" style="fill: #dd8452; fill-opacity: 0.5; stroke: #ffffff; stroke-opacity: 0.5"/>
    </g>
   </g>
   <g id="PolyCollection_3">
    <defs>
     <path id="m9dadc0451f" d="M 85.131818 -88.567841 
L 85.131818 -172.854205 
L 88.034645 -168.940909 
L 90.937471 -182.787955 
L 93.840298 -167.435795 
L 96.743125 -161.816705 
L 99.645951 -111.64625 
L 102.548778 -115.760227 
L 105.451604 -103.217614 
L 108.354431 -127.500114 
L 111.257257 -114.154773 
L 114.160084 -115.960909 
L 117.062911 -106.428523 
L 119.965737 -126.998409 
L 122.868564 -117.867386 
L 125.77139 -101.411477 
L 128.674217 -131.012045 
L 131.577044 -133.119205 
L 134.47987 -123.586818 
L 137.382697 -115.559545 
L 140.285523 -121.178636 
L 143.18835 -102.715909 
L 146.091176 -97.698864 
L 148.994003 -110.141136 
L 151.89683 -102.013523 
L 154.799656 -112.348636 
L 157.702483 -115.860568 
L 160.605309 -112.950682 
L 163.508136 -113.051023 
L 166.410963 -88.166477 
L 169.313789 -125.593636 
L 172.216616 -129.506932 
L 175.119442 -133.119205 
L 178.022269 -111.244886 
L 180.925095 -104.722727 
L 183.827922 -116.362273 
L 186.730749 -159.207841 
L 189.633575 -93.98625 
L 192.536402 -73.015 
L 195.439228 -116.161591 
L 198.342055 -102.314545 
L 201.244882 -97.799205 
L 204.147708 -103.117273 
L 207.050535 -115.358864 
L 209.953361 -100.60875 
L 212.856188 -105.926818 
L 215.759015 -92.681818 
L 218.661841 -118.168409 
L 221.564668 -124.088523 
L 224.467494 -155.294545 
L 227.370321 -121.981364 
L 230.273147 -125.995 
L 233.175974 -132.316477 
L 236.078801 -134.022273 
L 238.981627 -131.012045 
L 241.884454 -197.538068 
L 244.78728 -124.489886 
L 247.690107 -117.867386 
L 250.592934 -116.06125 
L 253.49576 -113.251705 
L 256.398587 -155.394886 
L 259.301413 -134.624318 
L 262.20424 -156.498636 
L 265.107066 -126.195682 
L 268.009893 -105.525455 
L 270.91272 -94.688636 
L 273.815546 -123.988182 
L 276.718373 -109.940455 
L 279.621199 -119.472841 
L 282.524026 -126.998409 
L 285.426853 -97.197159 
L 288.329679 -114.455795 
L 291.232506 -90.273636 
L 294.135332 -85.758295 
L 297.038159 -102.113864 
L 299.940985 -118.068068 
L 302.843812 -120.676932 
L 305.746639 -104.321364 
L 308.649465 -103.719318 
L 311.552292 -123.7875 
L 314.455118 -111.345227 
L 317.357945 -108.937045 
L 320.260772 -95.892727 
L 323.163598 -96.19375 
L 326.066425 -103.92 
L 328.969251 -83.049091 
L 331.872078 -113.051023 
L 334.774905 -101.612159 
L 337.677731 -106.428523 
L 340.580558 -81.945341 
L 343.483384 -77.028636 
L 346.386211 -89.872273 
L 349.289037 -101.913182 
L 352.191864 -83.851818 
L 355.094691 -115.659886 
L 357.997517 -105.926818 
L 360.900344 -96.093409 
L 363.80317 -108.335 
L 366.705997 -93.083182 
L 369.608824 -104.020341 
L 372.51165 -97.999886 
L 375.414477 -109.539091 
L 378.317303 -101.511818 
L 381.22013 -113.151364 
L 384.122956 -110.743182 
L 387.025783 -96.996477 
L 389.92861 -93.384205 
L 392.831436 -106.829886 
L 395.734263 -103.719318 
L 398.637089 -83.049091 
L 401.539916 -99.806023 
L 404.442743 -92.280455 
L 407.345569 -118.068068 
L 410.248396 -103.418295 
L 413.151222 -81.042273 
L 416.054049 -96.996477 
L 418.956875 -99.605341 
L 421.859702 -92.982841 
L 424.762529 -108.535682 
L 427.665355 -101.511818 
L 430.568182 -114.756818 
L 430.568182 -73.015 
L 430.568182 -73.015 
L 427.665355 -80.941932 
L 424.762529 -83.049091 
L 421.859702 -72.914659 
L 418.956875 -73.015 
L 416.054049 -73.015 
L 413.151222 -62.980909 
L 410.248396 -73.015 
L 407.345569 -62.980909 
L 404.442743 -73.115341 
L 401.539916 -74.219091 
L 398.637089 -73.015 
L 395.734263 -73.015 
L 392.831436 -73.015 
L 389.92861 -73.015 
L 387.025783 -62.980909 
L 384.122956 -73.015 
L 381.22013 -73.015 
L 378.317303 -73.015 
L 375.414477 -62.980909 
L 372.51165 -62.980909 
L 369.608824 -73.015 
L 366.705997 -73.015 
L 363.80317 -73.015 
L 360.900344 -72.914659 
L 357.997517 -73.015 
L 355.094691 -62.980909 
L 352.191864 -62.980909 
L 349.289037 -73.015 
L 346.386211 -82.748068 
L 343.483384 -62.980909 
L 340.580558 -63.08125 
L 337.677731 -73.015 
L 334.774905 -73.015 
L 331.872078 -69.503068 
L 328.969251 -73.015 
L 326.066425 -73.015 
L 323.163598 -86.661364 
L 320.260772 -72.312614 
L 317.357945 -73.015 
L 314.455118 -73.015 
L 311.552292 -72.914659 
L 308.649465 -73.015 
L 305.746639 -68.901023 
L 302.843812 -62.980909 
L 299.940985 -73.015 
L 297.038159 -73.015 
L 294.135332 -73.015 
L 291.232506 -73.015 
L 288.329679 -73.015 
L 285.426853 -73.015 
L 282.524026 -73.015 
L 279.621199 -83.249773 
L 276.718373 -83.049091 
L 273.815546 -62.980909 
L 270.91272 -76.426591 
L 268.009893 -73.015 
L 265.107066 -73.015 
L 262.20424 -73.015 
L 259.301413 -73.015 
L 256.398587 -70.606818 
L 253.49576 -73.015 
L 250.592934 -83.049091 
L 247.690107 -73.015 
L 244.78728 -75.122159 
L 241.884454 -95.190341 
L 238.981627 -73.115341 
L 236.078801 -62.980909 
L 233.175974 -73.015 
L 230.273147 -73.015 
L 227.370321 -73.015 
L 224.467494 -73.015 
L 221.564668 -73.015 
L 218.661841 -73.416364 
L 215.759015 -73.015 
L 212.856188 -62.980909 
L 209.953361 -62.980909 
L 207.050535 -62.980909 
L 204.147708 -78.734432 
L 201.244882 -73.015 
L 198.342055 -73.015 
L 195.439228 -83.049091 
L 192.536402 -62.980909 
L 189.633575 -62.980909 
L 186.730749 -73.015 
L 183.827922 -73.817727 
L 180.925095 -73.316023 
L 178.022269 -77.630682 
L 175.119442 -65.589773 
L 172.216616 -72.914659 
L 169.313789 -62.980909 
L 166.410963 -73.015 
L 163.508136 -73.015 
L 160.605309 -86.460682 
L 157.702483 -62.980909 
L 154.799656 -73.015 
L 151.89683 -73.015 
L 148.994003 -74.720795 
L 146.091176 -75.924886 
L 143.18835 -73.215682 
L 140.285523 -73.015 
L 137.382697 -78.935114 
L 134.47987 -100.408068 
L 131.577044 -90.474318 
L 128.674217 -62.980909 
L 125.77139 -73.015 
L 122.868564 -62.980909 
L 119.965737 -83.049091 
L 117.062911 -66.793864 
L 114.160084 -75.322841 
L 111.257257 -89.069545 
L 108.354431 -62.980909 
L 105.451604 -69.904432 
L 102.548778 -79.236136 
L 99.645951 -73.015 
L 96.743125 -119.472841 
L 93.840298 -109.238068 
L 90.937471 -133.821591 
L 88.034645 -113.653068 
L 85.131818 -88.567841 
z
" style="stroke: #ffffff; stroke-opacity: 0.5"/>
    </defs>
    <g clip-path="url(#p2c8d8b67e5)">
     <use xlink:href="#m9dadc0451f" x="0" y="345.6" style="fill: #55a868; fill-opacity: 0.5; stroke: #ffffff; stroke-opacity: 0.5"/>
    </g>
   </g>
   <g id="line2d_14">
    <path d="M 85.131818 199.203686 
L 88.034645 204.782641 
L 90.937471 207.90525 
L 93.840298 212.661409 
L 96.743125 241.266595 
L 99.645951 260.0464 
L 102.548778 282.619091 
L 105.451604 277.975314 
L 108.354431 273.885418 
L 111.257257 276.851495 
L 114.160084 271.035736 
L 117.062911 274.491477 
L 119.965737 273.853309 
L 122.868564 274.314877 
L 125.77139 279.60485 
L 128.674217 279.014845 
L 131.577044 275.398559 
L 134.47987 281.559491 
L 137.382697 279.60485 
L 140.285523 277.549868 
L 143.18835 279.010832 
L 146.091176 274.736309 
L 148.994003 271.649823 
L 151.89683 276.141082 
L 154.799656 276.991973 
L 157.702483 245.569214 
L 160.605309 260.383545 
L 163.508136 268.792114 
L 166.410963 276.77925 
L 169.313789 259.701227 
L 172.216616 278.966682 
L 175.119442 278.320486 
L 178.022269 280.303223 
L 180.925095 277.108368 
L 183.827922 268.194082 
L 186.730749 274.045964 
L 189.633575 277.481636 
L 192.536402 278.790082 
L 195.439228 271.280568 
L 198.342055 259.769459 
L 201.244882 270.497909 
L 204.147708 268.591432 
L 207.050535 275.073455 
L 209.953361 263.470032 
L 212.856188 263.437923 
L 215.759015 267.676323 
L 218.661841 253.664718 
L 221.564668 234.820695 
L 224.467494 242.763682 
L 227.370321 252.380355 
L 230.273147 264.625959 
L 233.175974 241.583673 
L 236.078801 259.861773 
L 238.981627 267.5519 
L 241.884454 248.784136 
L 244.78728 256.550523 
L 247.690107 254.054041 
L 250.592934 249.835709 
L 253.49576 246.347859 
L 256.398587 254.459418 
L 259.301413 261.021714 
L 262.20424 250.3334 
L 265.107066 251.445177 
L 268.009893 258.850336 
L 270.91272 224.694291 
L 273.815546 248.752027 
L 276.718373 239.091205 
L 279.621199 243.108855 
L 282.524026 254.96915 
L 285.426853 230.594336 
L 288.329679 260.142727 
L 291.232506 240.700673 
L 294.135332 251.726132 
L 297.038159 255.418677 
L 299.940985 237.297109 
L 302.843812 238.974809 
L 305.746639 244.088182 
L 308.649465 243.855391 
L 311.552292 231.497405 
L 314.455118 234.258786 
L 317.357945 265.637395 
L 320.260772 237.477723 
L 323.163598 232.123532 
L 326.066425 249.679177 
L 328.969251 244.473491 
L 331.872078 243.3577 
L 334.774905 232.079382 
L 337.677731 239.86985 
L 340.580558 230.979645 
L 343.483384 227.77275 
L 346.386211 237.915209 
L 349.289037 234.310964 
L 352.191864 258.127882 
L 355.094691 275.069441 
L 357.997517 250.3334 
L 360.900344 250.678573 
L 363.80317 247.869027 
L 366.705997 231.477336 
L 369.608824 247.335214 
L 372.51165 247.279023 
L 375.414477 258.641627 
L 378.317303 257.048214 
L 381.22013 228.976841 
L 384.122956 246.693032 
L 387.025783 260.194905 
L 389.92861 249.301895 
L 392.831436 254.062068 
L 395.734263 238.240314 
L 398.637089 251.874636 
L 401.539916 250.080541 
L 404.442743 237.321191 
L 407.345569 243.614573 
L 410.248396 243.955732 
L 413.151222 233.961777 
L 416.054049 236.430164 
L 418.956875 237.935277 
L 421.859702 257.293045 
L 424.762529 254.314927 
L 427.665355 254.804591 
L 430.568182 254.322955 
" clip-path="url(#p2c8d8b67e5)" style="fill: none; stroke: #4c72b0; stroke-width: 3; stroke-linecap: round"/>
   </g>
   <g id="line2d_15">
    <path d="M 85.131818 205.416795 
L 88.034645 197.2651 
L 90.937471 202.675482 
L 93.840298 205.468973 
L 96.743125 198.878582 
L 99.645951 192.733705 
L 102.548778 251.292659 
L 105.451604 253.881455 
L 108.354431 229.245755 
L 111.257257 269.269736 
L 114.160084 275.711623 
L 117.062911 226.440223 
L 119.965737 282.302014 
L 122.868564 277.975314 
L 125.77139 272.404386 
L 128.674217 265.553109 
L 131.577044 276.654827 
L 134.47987 248.153995 
L 137.382697 252.729541 
L 140.285523 231.164273 
L 143.18835 274.182427 
L 146.091176 266.656859 
L 148.994003 270.610291 
L 151.89683 276.020673 
L 154.799656 276.650814 
L 157.702483 270.963491 
L 160.605309 267.86095 
L 163.508136 275.18985 
L 166.410963 252.926209 
L 169.313789 208.643759 
L 172.216616 267.555914 
L 175.119442 275.848086 
L 178.022269 230.2893 
L 180.925095 247.744605 
L 183.827922 234.114295 
L 186.730749 275.539036 
L 189.633575 270.224982 
L 192.536402 270.048382 
L 195.439228 236.506423 
L 198.342055 269.779468 
L 201.244882 231.629855 
L 204.147708 272.661259 
L 207.050535 262.390364 
L 209.953361 246.231464 
L 212.856188 261.788318 
L 215.759015 211.678068 
L 218.661841 281.515341 
L 221.564668 250.393605 
L 224.467494 212.649368 
L 227.370321 233.761095 
L 230.273147 280.84105 
L 233.175974 263.618536 
L 236.078801 273.183032 
L 238.981627 231.441214 
L 241.884454 281.45915 
L 244.78728 215.531159 
L 247.690107 196.775436 
L 250.592934 272.4967 
L 253.49576 255.832082 
L 256.398587 261.322736 
L 259.301413 248.238282 
L 262.20424 208.772195 
L 265.107066 264.140309 
L 268.009893 229.041059 
L 270.91272 272.709423 
L 273.815546 237.903168 
L 276.718373 257.413455 
L 279.621199 198.577559 
L 282.524026 274.872773 
L 285.426853 265.159773 
L 288.329679 246.717114 
L 291.232506 247.170655 
L 294.135332 254.70425 
L 297.038159 258.637614 
L 299.940985 269.518582 
L 302.843812 223.466118 
L 305.746639 202.559086 
L 308.649465 264.092145 
L 311.552292 260.572186 
L 314.455118 225.573277 
L 317.357945 271.003627 
L 320.260772 261.411036 
L 323.163598 276.859523 
L 326.066425 255.707659 
L 328.969251 267.002032 
L 331.872078 232.103464 
L 334.774905 260.893277 
L 337.677731 273.672695 
L 340.580558 216.951986 
L 343.483384 258.168018 
L 346.386211 256.474264 
L 349.289037 277.429459 
L 352.191864 263.939627 
L 355.094691 273.9978 
L 357.997517 224.248777 
L 360.900344 260.5762 
L 363.80317 261.419064 
L 366.705997 252.821855 
L 369.608824 229.932086 
L 372.51165 261.655868 
L 375.414477 253.993836 
L 378.317303 263.494114 
L 381.22013 275.486859 
L 384.122956 272.139486 
L 387.025783 249.05305 
L 389.92861 274.475423 
L 392.831436 271.228391 
L 395.734263 258.926595 
L 398.637089 276.462173 
L 401.539916 273.773036 
L 404.442743 267.218768 
L 407.345569 270.614305 
L 410.248396 257.758627 
L 413.151222 257.61815 
L 416.054049 260.335382 
L 418.956875 257.614136 
L 421.859702 262.20975 
L 424.762529 262.073286 
L 427.665355 262.366282 
L 430.568182 259.6932 
" clip-path="url(#p2c8d8b67e5)" style="fill: none; stroke: #dd8452; stroke-width: 3; stroke-linecap: round"/>
   </g>
   <g id="line2d_16">
    <path d="M 85.131818 208.968864 
L 88.034645 210.122784 
L 90.937471 192.53804 
L 93.840298 210.549233 
L 96.743125 200.464972 
L 99.645951 252.566989 
L 102.548778 247.650284 
L 105.451604 263.905511 
L 108.354431 255.527045 
L 111.257257 239.823693 
L 114.160084 249.732358 
L 117.062911 254.87483 
L 119.965737 238.770114 
L 122.868564 258.687784 
L 125.77139 260.117642 
L 128.674217 260.569176 
L 131.577044 239.447415 
L 134.47987 236.537528 
L 137.382697 241.378977 
L 140.285523 248.82929 
L 143.18835 253.720909 
L 146.091176 259.089148 
L 148.994003 250.284233 
L 151.89683 255.752812 
L 154.799656 245.743807 
L 157.702483 252.66733 
L 160.605309 248.076733 
L 163.508136 250.836108 
L 166.410963 265.235028 
L 169.313789 250.735767 
L 172.216616 251.212386 
L 175.119442 246.345852 
L 178.022269 257.483693 
L 180.925095 255.677557 
L 183.827922 255.953494 
L 186.730749 242.808835 
L 189.633575 271.606676 
L 192.536402 280.060398 
L 195.439228 247.901136 
L 198.342055 259.365085 
L 201.244882 258.462017 
L 204.147708 254.548722 
L 207.050535 250.058466 
L 209.953361 270.703608 
L 212.856188 266.238437 
L 215.759015 261.271562 
L 218.661841 250.936449 
L 221.564668 254.799574 
L 224.467494 245.267187 
L 227.370321 258.662699 
L 230.273147 258.562358 
L 233.175974 250.409659 
L 236.078801 246.120085 
L 238.981627 242.457642 
L 241.884454 204.829801 
L 244.78728 237.390426 
L 247.690107 246.947898 
L 250.592934 245.392614 
L 253.49576 249.707273 
L 256.398587 243.8875 
L 259.301413 246.646875 
L 262.20424 247.098409 
L 265.107066 253.520227 
L 268.009893 258.737955 
L 270.91272 259.490511 
L 273.815546 255.677557 
L 276.718373 251.112045 
L 279.621199 248.804205 
L 282.524026 245.944489 
L 285.426853 262.199716 
L 288.329679 256.55554 
L 291.232506 263.70483 
L 294.135332 265.009261 
L 297.038159 261.472244 
L 299.940985 249.130312 
L 302.843812 256.505369 
L 305.746639 260.769858 
L 308.649465 257.859972 
L 311.552292 255.627386 
L 314.455118 259.540682 
L 317.357945 262.626165 
L 320.260772 263.152955 
L 323.163598 253.645653 
L 326.066425 261.948864 
L 328.969251 265.260114 
L 331.872078 260.945455 
L 334.774905 258.76304 
L 337.677731 260.995625 
L 340.580558 272.835852 
L 343.483384 274.090114 
L 346.386211 260.945455 
L 349.289037 260.368494 
L 352.191864 272.384318 
L 355.094691 261.823437 
L 357.997517 264.357045 
L 360.900344 261.271562 
L 363.80317 259.239659 
L 366.705997 267.442528 
L 369.608824 260.418665 
L 372.51165 266.338778 
L 375.414477 265.485881 
L 378.317303 255.652472 
L 381.22013 259.992216 
L 384.122956 256.580625 
L 387.025783 266.564545 
L 389.92861 264.934006 
L 392.831436 260.794943 
L 395.734263 254.899915 
L 398.637089 265.837074 
L 401.539916 260.544091 
L 404.442743 262.65125 
L 407.345569 266.163182 
L 410.248396 260.243068 
L 413.151222 272.208722 
L 416.054049 258.687784 
L 418.956875 260.895284 
L 421.859702 262.149545 
L 424.762529 251.513409 
L 427.665355 258.462017 
L 430.568182 259.942045 
" clip-path="url(#p2c8d8b67e5)" style="fill: none; stroke: #55a868; stroke-width: 3; stroke-linecap: round"/>
   </g>
   <g id="patch_3">
    <path d="M 67.86 294.66 
L 67.86 29.76 
" style="fill: none; stroke: #ffffff; stroke-width: 1.25; stroke-linejoin: miter; stroke-linecap: square"/>
   </g>
   <g id="patch_4">
    <path d="M 447.84 294.66 
L 447.84 29.76 
" style="fill: none; stroke: #ffffff; stroke-width: 1.25; stroke-linejoin: miter; stroke-linecap: square"/>
   </g>
   <g id="patch_5">
    <path d="M 67.86 294.66 
L 447.84 294.66 
" style="fill: none; stroke: #ffffff; stroke-width: 1.25; stroke-linejoin: miter; stroke-linecap: square"/>
   </g>
   <g id="patch_6">
    <path d="M 67.86 29.76 
L 447.84 29.76 
" style="fill: none; stroke: #ffffff; stroke-width: 1.25; stroke-linejoin: miter; stroke-linecap: square"/>
   </g>
   <g id="text_16">
    <!-- zinc-coating-v0 -->
    <g style="fill: #262626" transform="translate(204.491406 23.76)scale(0.14 -0.14)">
     <defs>
      <path id="DejaVuSans-7a" d="M 353 3500 
L 3084 3500 
L 3084 2975 
L 922 459 
L 3084 459 
L 3084 0 
L 275 0 
L 275 525 
L 2438 3041 
L 353 3041 
L 353 3500 
z
" transform="scale(0.015625)"/>
      <path id="DejaVuSans-63" d="M 3122 3366 
L 3122 2828 
Q 2878 2963 2633 3030 
Q 2388 3097 2138 3097 
Q 1578 3097 1268 2742 
Q 959 2388 959 1747 
Q 959 1106 1268 751 
Q 1578 397 2138 397 
Q 2388 397 2633 464 
Q 2878 531 3122 666 
L 3122 134 
Q 2881 22 2623 -34 
Q 2366 -91 2075 -91 
Q 1284 -91 818 406 
Q 353 903 353 1747 
Q 353 2603 823 3093 
Q 1294 3584 2113 3584 
Q 2378 3584 2631 3529 
Q 2884 3475 3122 3366 
z
" transform="scale(0.015625)"/>
      <path id="DejaVuSans-2d" d="M 313 2009 
L 1997 2009 
L 1997 1497 
L 313 1497 
L 313 2009 
z
" transform="scale(0.015625)"/>
      <path id="DejaVuSans-61" d="M 2194 1759 
Q 1497 1759 1228 1600 
Q 959 1441 959 1056 
Q 959 750 1161 570 
Q 1363 391 1709 391 
Q 2188 391 2477 730 
Q 2766 1069 2766 1631 
L 2766 1759 
L 2194 1759 
z
M 3341 1997 
L 3341 0 
L 2766 0 
L 2766 531 
Q 2569 213 2275 61 
Q 1981 -91 1556 -91 
Q 1019 -91 701 211 
Q 384 513 384 1019 
Q 384 1609 779 1909 
Q 1175 2209 1959 2209 
L 2766 2209 
L 2766 2266 
Q 2766 2663 2505 2880 
Q 2244 3097 1772 3097 
Q 1472 3097 1187 3025 
Q 903 2953 641 2809 
L 641 3341 
Q 956 3463 1253 3523 
Q 1550 3584 1831 3584 
Q 2591 3584 2966 3190 
Q 3341 2797 3341 1997 
z
" transform="scale(0.015625)"/>
      <path id="DejaVuSans-67" d="M 2906 1791 
Q 2906 2416 2648 2759 
Q 2391 3103 1925 3103 
Q 1463 3103 1205 2759 
Q 947 2416 947 1791 
Q 947 1169 1205 825 
Q 1463 481 1925 481 
Q 2391 481 2648 825 
Q 2906 1169 2906 1791 
z
M 3481 434 
Q 3481 -459 3084 -895 
Q 2688 -1331 1869 -1331 
Q 1566 -1331 1297 -1286 
Q 1028 -1241 775 -1147 
L 775 -588 
Q 1028 -725 1275 -790 
Q 1522 -856 1778 -856 
Q 2344 -856 2625 -561 
Q 2906 -266 2906 331 
L 2906 616 
Q 2728 306 2450 153 
Q 2172 0 1784 0 
Q 1141 0 747 490 
Q 353 981 353 1791 
Q 353 2603 747 3093 
Q 1141 3584 1784 3584 
Q 2172 3584 2450 3431 
Q 2728 3278 2906 2969 
L 2906 3500 
L 3481 3500 
L 3481 434 
z
" transform="scale(0.015625)"/>
      <path id="DejaVuSans-76" d="M 191 3500 
L 800 3500 
L 1894 563 
L 2988 3500 
L 3597 3500 
L 2284 0 
L 1503 0 
L 191 3500 
z
" transform="scale(0.015625)"/>
     </defs>
     <use xlink:href="#DejaVuSans-7a"/>
     <use xlink:href="#DejaVuSans-69" x="52.490234"/>
     <use xlink:href="#DejaVuSans-6e" x="80.273438"/>
     <use xlink:href="#DejaVuSans-63" x="143.652344"/>
     <use xlink:href="#DejaVuSans-2d" x="198.632812"/>
     <use xlink:href="#DejaVuSans-63" x="234.716797"/>
     <use xlink:href="#DejaVuSans-6f" x="289.697266"/>
     <use xlink:href="#DejaVuSans-61" x="350.878906"/>
     <use xlink:href="#DejaVuSans-74" x="412.158203"/>
     <use xlink:href="#DejaVuSans-69" x="451.367188"/>
     <use xlink:href="#DejaVuSans-6e" x="479.150391"/>
     <use xlink:href="#DejaVuSans-67" x="542.529297"/>
     <use xlink:href="#DejaVuSans-2d" x="606.005859"/>
     <use xlink:href="#DejaVuSans-76" x="639.464844"/>
     <use xlink:href="#DejaVuSans-30" x="698.644531"/>
    </g>
   </g>
   <g id="legend_1">
    <g id="patch_7">
     <path d="M 305.725156 86.997813 
L 440.14 86.997813 
Q 442.34 86.997813 442.34 84.797813 
L 442.34 37.46 
Q 442.34 35.26 440.14 35.26 
L 305.725156 35.26 
Q 303.525156 35.26 303.525156 37.46 
L 303.525156 84.797813 
Q 303.525156 86.997813 305.725156 86.997813 
z
" style="fill: #eaeaf2; opacity: 0.8; stroke: #cccccc; stroke-linejoin: miter"/>
    </g>
    <g id="line2d_17">
     <path d="M 307.925156 44.168281 
L 318.925156 44.168281 
L 329.925156 44.168281 
" style="fill: none; stroke: #4c72b0; stroke-width: 3; stroke-linecap: round"/>
    </g>
    <g id="text_17">
     <!-- SAC-DELAY-100 -->
     <g style="fill: #262626" transform="translate(338.725156 48.018281)scale(0.11 -0.11)">
      <defs>
       <path id="DejaVuSans-53" d="M 3425 4513 
L 3425 3897 
Q 3066 4069 2747 4153 
Q 2428 4238 2131 4238 
Q 1616 4238 1336 4038 
Q 1056 3838 1056 3469 
Q 1056 3159 1242 3001 
Q 1428 2844 1947 2747 
L 2328 2669 
Q 3034 2534 3370 2195 
Q 3706 1856 3706 1288 
Q 3706 609 3251 259 
Q 2797 -91 1919 -91 
Q 1588 -91 1214 -16 
Q 841 59 441 206 
L 441 856 
Q 825 641 1194 531 
Q 1563 422 1919 422 
Q 2459 422 2753 634 
Q 3047 847 3047 1241 
Q 3047 1584 2836 1778 
Q 2625 1972 2144 2069 
L 1759 2144 
Q 1053 2284 737 2584 
Q 422 2884 422 3419 
Q 422 4038 858 4394 
Q 1294 4750 2059 4750 
Q 2388 4750 2728 4690 
Q 3069 4631 3425 4513 
z
" transform="scale(0.015625)"/>
       <path id="DejaVuSans-41" d="M 2188 4044 
L 1331 1722 
L 3047 1722 
L 2188 4044 
z
M 1831 4666 
L 2547 4666 
L 4325 0 
L 3669 0 
L 3244 1197 
L 1141 1197 
L 716 0 
L 50 0 
L 1831 4666 
z
" transform="scale(0.015625)"/>
       <path id="DejaVuSans-43" d="M 4122 4306 
L 4122 3641 
Q 3803 3938 3442 4084 
Q 3081 4231 2675 4231 
Q 1875 4231 1450 3742 
Q 1025 3253 1025 2328 
Q 1025 1406 1450 917 
Q 1875 428 2675 428 
Q 3081 428 3442 575 
Q 3803 722 4122 1019 
L 4122 359 
Q 3791 134 3420 21 
Q 3050 -91 2638 -91 
Q 1578 -91 968 557 
Q 359 1206 359 2328 
Q 359 3453 968 4101 
Q 1578 4750 2638 4750 
Q 3056 4750 3426 4639 
Q 3797 4528 4122 4306 
z
" transform="scale(0.015625)"/>
       <path id="DejaVuSans-44" d="M 1259 4147 
L 1259 519 
L 2022 519 
Q 2988 519 3436 956 
Q 3884 1394 3884 2338 
Q 3884 3275 3436 3711 
Q 2988 4147 2022 4147 
L 1259 4147 
z
M 628 4666 
L 1925 4666 
Q 3281 4666 3915 4102 
Q 4550 3538 4550 2338 
Q 4550 1131 3912 565 
Q 3275 0 1925 0 
L 628 0 
L 628 4666 
z
" transform="scale(0.015625)"/>
       <path id="DejaVuSans-45" d="M 628 4666 
L 3578 4666 
L 3578 4134 
L 1259 4134 
L 1259 2753 
L 3481 2753 
L 3481 2222 
L 1259 2222 
L 1259 531 
L 3634 531 
L 3634 0 
L 628 0 
L 628 4666 
z
" transform="scale(0.015625)"/>
       <path id="DejaVuSans-59" d="M -13 4666 
L 666 4666 
L 1959 2747 
L 3244 4666 
L 3922 4666 
L 2272 2222 
L 2272 0 
L 1638 0 
L 1638 2222 
L -13 4666 
z
" transform="scale(0.015625)"/>
      </defs>
      <use xlink:href="#DejaVuSans-53"/>
      <use xlink:href="#DejaVuSans-41" x="65.351562"/>
      <use xlink:href="#DejaVuSans-43" x="132.009766"/>
      <use xlink:href="#DejaVuSans-2d" x="201.833984"/>
      <use xlink:href="#DejaVuSans-44" x="237.917969"/>
      <use xlink:href="#DejaVuSans-45" x="314.919922"/>
      <use xlink:href="#DejaVuSans-4c" x="378.103516"/>
      <use xlink:href="#DejaVuSans-41" x="436.066406"/>
      <use xlink:href="#DejaVuSans-59" x="496.724609"/>
      <use xlink:href="#DejaVuSans-2d" x="545.933594"/>
      <use xlink:href="#DejaVuSans-31" x="582.017578"/>
      <use xlink:href="#DejaVuSans-30" x="645.640625"/>
      <use xlink:href="#DejaVuSans-30" x="709.263672"/>
     </g>
    </g>
    <g id="line2d_18">
     <path d="M 307.925156 60.314219 
L 318.925156 60.314219 
L 329.925156 60.314219 
" style="fill: none; stroke: #dd8452; stroke-width: 3; stroke-linecap: round"/>
    </g>
    <g id="text_18">
     <!-- SAC-IS-DELAY-100 -->
     <g style="fill: #262626" transform="translate(338.725156 64.164219)scale(0.11 -0.11)">
      <defs>
       <path id="DejaVuSans-49" d="M 628 4666 
L 1259 4666 
L 1259 0 
L 628 0 
L 628 4666 
z
" transform="scale(0.015625)"/>
      </defs>
      <use xlink:href="#DejaVuSans-53"/>
      <use xlink:href="#DejaVuSans-41" x="65.351562"/>
      <use xlink:href="#DejaVuSans-43" x="132.009766"/>
      <use xlink:href="#DejaVuSans-2d" x="201.833984"/>
      <use xlink:href="#DejaVuSans-49" x="237.917969"/>
      <use xlink:href="#DejaVuSans-53" x="267.410156"/>
      <use xlink:href="#DejaVuSans-2d" x="330.886719"/>
      <use xlink:href="#DejaVuSans-44" x="366.970703"/>
      <use xlink:href="#DejaVuSans-45" x="443.972656"/>
      <use xlink:href="#DejaVuSans-4c" x="507.15625"/>
      <use xlink:href="#DejaVuSans-41" x="565.119141"/>
      <use xlink:href="#DejaVuSans-59" x="625.777344"/>
      <use xlink:href="#DejaVuSans-2d" x="674.986328"/>
      <use xlink:href="#DejaVuSans-31" x="711.070312"/>
      <use xlink:href="#DejaVuSans-30" x="774.693359"/>
      <use xlink:href="#DejaVuSans-30" x="838.316406"/>
     </g>
    </g>
    <g id="line2d_19">
     <path d="M 307.925156 76.460156 
L 318.925156 76.460156 
L 329.925156 76.460156 
" style="fill: none; stroke: #55a868; stroke-width: 3; stroke-linecap: round"/>
    </g>
    <g id="text_19">
     <!-- DCAC-DELAY-100 -->
     <g style="fill: #262626" transform="translate(338.725156 80.310156)scale(0.11 -0.11)">
      <use xlink:href="#DejaVuSans-44"/>
      <use xlink:href="#DejaVuSans-43" x="77.001953"/>
      <use xlink:href="#DejaVuSans-41" x="146.826172"/>
      <use xlink:href="#DejaVuSans-43" x="213.484375"/>
      <use xlink:href="#DejaVuSans-2d" x="283.308594"/>
      <use xlink:href="#DejaVuSans-44" x="319.392578"/>
      <use xlink:href="#DejaVuSans-45" x="396.394531"/>
      <use xlink:href="#DejaVuSans-4c" x="459.578125"/>
      <use xlink:href="#DejaVuSans-41" x="517.541016"/>
      <use xlink:href="#DejaVuSans-59" x="578.199219"/>
      <use xlink:href="#DejaVuSans-2d" x="627.408203"/>
      <use xlink:href="#DejaVuSans-31" x="663.492188"/>
      <use xlink:href="#DejaVuSans-30" x="727.115234"/>
      <use xlink:href="#DejaVuSans-30" x="790.738281"/>
     </g>
    </g>
   </g>
  </g>
 </g>
 <defs>
  <clipPath id="p2c8d8b67e5">
   <rect x="67.86" y="29.76" width="379.98" height="264.9"/>
  </clipPath>
 </defs>
</svg>
