<?xml version="1.0" encoding="utf-8" standalone="no"?>
<!DOCTYPE svg PUBLIC "-//W3C//DTD SVG 1.1//EN"
  "http://www.w3.org/Graphics/SVG/1.1/DTD/svg11.dtd">
<svg xmlns:xlink="http://www.w3.org/1999/xlink" width="460.8pt" height="345.6pt" viewBox="0 0 460.8 345.6" xmlns="http://www.w3.org/2000/svg" version="1.1">
 <metadata>
  <rdf:RDF xmlns:dc="http://purl.org/dc/elements/1.1/" xmlns:cc="http://creativecommons.org/ns#" xmlns:rdf="http://www.w3.org/1999/02/22-rdf-syntax-ns#">
   <cc:Work>
    <dc:type rdf:resource="http://purl.org/dc/dcmitype/StillImage"/>
    <dc:date>2022-09-12T15:17:19.880020</dc:date>
    <dc:format>image/svg+xml</dc:format>
    <dc:creator>
     <cc:Agent>
      <dc:title>Matplotlib v3.5.3, https://matplotlib.org/</dc:title>
     </cc:Agent>
    </dc:creator>
   </cc:Work>
  </rdf:RDF>
 </metadata>
 <defs>
  <style type="text/css">*{stroke-linejoin: round; stroke-linecap: butt}</style>
 </defs>
 <g id="figure_1">
  <g id="patch_1">
   <path d="M 0 345.6 
L 460.8 345.6 
L 460.8 0 
L 0 0 
z
" style="fill: #ffffff"/>
  </g>
  <g id="axes_1">
   <g id="patch_2">
    <path d="M 67.86 294.66 
L 447.84 294.66 
L 447.84 12.96 
L 67.86 12.96 
z
" style="fill: #eaeaf2"/>
   </g>
   <g id="matplotlib.axis_1">
    <g id="xtick_1">
     <g id="line2d_1">
      <path d="M 82.228992 294.66 
L 82.228992 12.96 
" clip-path="url(#p5df4eda35c)" style="fill: none; stroke: #ffffff; stroke-linecap: round"/>
     </g>
     <g id="text_1">
      <!-- 0.00 -->
      <g style="fill: #262626" transform="translate(69.982898 312.518281)scale(0.11 -0.11)">
       <defs>
        <path id="DejaVuSans-30" d="M 2034 4250 
Q 1547 4250 1301 3770 
Q 1056 3291 1056 2328 
Q 1056 1369 1301 889 
Q 1547 409 2034 409 
Q 2525 409 2770 889 
Q 3016 1369 3016 2328 
Q 3016 3291 2770 3770 
Q 2525 4250 2034 4250 
z
M 2034 4750 
Q 2819 4750 3233 4129 
Q 3647 3509 3647 2328 
Q 3647 1150 3233 529 
Q 2819 -91 2034 -91 
Q 1250 -91 836 529 
Q 422 1150 422 2328 
Q 422 3509 836 4129 
Q 1250 4750 2034 4750 
z
" transform="scale(0.015625)"/>
        <path id="DejaVuSans-2e" d="M 684 794 
L 1344 794 
L 1344 0 
L 684 0 
L 684 794 
z
" transform="scale(0.015625)"/>
       </defs>
       <use xlink:href="#DejaVuSans-30"/>
       <use xlink:href="#DejaVuSans-2e" x="63.623047"/>
       <use xlink:href="#DejaVuSans-30" x="95.410156"/>
       <use xlink:href="#DejaVuSans-30" x="159.033203"/>
      </g>
     </g>
    </g>
    <g id="xtick_2">
     <g id="line2d_2">
      <path d="M 140.285523 294.66 
L 140.285523 12.96 
" clip-path="url(#p5df4eda35c)" style="fill: none; stroke: #ffffff; stroke-linecap: round"/>
     </g>
     <g id="text_2">
      <!-- 0.05 -->
      <g style="fill: #262626" transform="translate(128.03943 312.518281)scale(0.11 -0.11)">
       <defs>
        <path id="DejaVuSans-35" d="M 691 4666 
L 3169 4666 
L 3169 4134 
L 1269 4134 
L 1269 2991 
Q 1406 3038 1543 3061 
Q 1681 3084 1819 3084 
Q 2600 3084 3056 2656 
Q 3513 2228 3513 1497 
Q 3513 744 3044 326 
Q 2575 -91 1722 -91 
Q 1428 -91 1123 -41 
Q 819 9 494 109 
L 494 744 
Q 775 591 1075 516 
Q 1375 441 1709 441 
Q 2250 441 2565 725 
Q 2881 1009 2881 1497 
Q 2881 1984 2565 2268 
Q 2250 2553 1709 2553 
Q 1456 2553 1204 2497 
Q 953 2441 691 2322 
L 691 4666 
z
" transform="scale(0.015625)"/>
       </defs>
       <use xlink:href="#DejaVuSans-30"/>
       <use xlink:href="#DejaVuSans-2e" x="63.623047"/>
       <use xlink:href="#DejaVuSans-30" x="95.410156"/>
       <use xlink:href="#DejaVuSans-35" x="159.033203"/>
      </g>
     </g>
    </g>
    <g id="xtick_3">
     <g id="line2d_3">
      <path d="M 198.342055 294.66 
L 198.342055 12.96 
" clip-path="url(#p5df4eda35c)" style="fill: none; stroke: #ffffff; stroke-linecap: round"/>
     </g>
     <g id="text_3">
      <!-- 0.10 -->
      <g style="fill: #262626" transform="translate(186.095961 312.518281)scale(0.11 -0.11)">
       <defs>
        <path id="DejaVuSans-31" d="M 794 531 
L 1825 531 
L 1825 4091 
L 703 3866 
L 703 4441 
L 1819 4666 
L 2450 4666 
L 2450 531 
L 3481 531 
L 3481 0 
L 794 0 
L 794 531 
z
" transform="scale(0.015625)"/>
       </defs>
       <use xlink:href="#DejaVuSans-30"/>
       <use xlink:href="#DejaVuSans-2e" x="63.623047"/>
       <use xlink:href="#DejaVuSans-31" x="95.410156"/>
       <use xlink:href="#DejaVuSans-30" x="159.033203"/>
      </g>
     </g>
    </g>
    <g id="xtick_4">
     <g id="line2d_4">
      <path d="M 256.398587 294.66 
L 256.398587 12.96 
" clip-path="url(#p5df4eda35c)" style="fill: none; stroke: #ffffff; stroke-linecap: round"/>
     </g>
     <g id="text_4">
      <!-- 0.15 -->
      <g style="fill: #262626" transform="translate(244.152493 312.518281)scale(0.11 -0.11)">
       <use xlink:href="#DejaVuSans-30"/>
       <use xlink:href="#DejaVuSans-2e" x="63.623047"/>
       <use xlink:href="#DejaVuSans-31" x="95.410156"/>
       <use xlink:href="#DejaVuSans-35" x="159.033203"/>
      </g>
     </g>
    </g>
    <g id="xtick_5">
     <g id="line2d_5">
      <path d="M 314.455118 294.66 
L 314.455118 12.96 
" clip-path="url(#p5df4eda35c)" style="fill: none; stroke: #ffffff; stroke-linecap: round"/>
     </g>
     <g id="text_5">
      <!-- 0.20 -->
      <g style="fill: #262626" transform="translate(302.209025 312.518281)scale(0.11 -0.11)">
       <defs>
        <path id="DejaVuSans-32" d="M 1228 531 
L 3431 531 
L 3431 0 
L 469 0 
L 469 531 
Q 828 903 1448 1529 
Q 2069 2156 2228 2338 
Q 2531 2678 2651 2914 
Q 2772 3150 2772 3378 
Q 2772 3750 2511 3984 
Q 2250 4219 1831 4219 
Q 1534 4219 1204 4116 
Q 875 4013 500 3803 
L 500 4441 
Q 881 4594 1212 4672 
Q 1544 4750 1819 4750 
Q 2544 4750 2975 4387 
Q 3406 4025 3406 3419 
Q 3406 3131 3298 2873 
Q 3191 2616 2906 2266 
Q 2828 2175 2409 1742 
Q 1991 1309 1228 531 
z
" transform="scale(0.015625)"/>
       </defs>
       <use xlink:href="#DejaVuSans-30"/>
       <use xlink:href="#DejaVuSans-2e" x="63.623047"/>
       <use xlink:href="#DejaVuSans-32" x="95.410156"/>
       <use xlink:href="#DejaVuSans-30" x="159.033203"/>
      </g>
     </g>
    </g>
    <g id="xtick_6">
     <g id="line2d_6">
      <path d="M 372.51165 294.66 
L 372.51165 12.96 
" clip-path="url(#p5df4eda35c)" style="fill: none; stroke: #ffffff; stroke-linecap: round"/>
     </g>
     <g id="text_6">
      <!-- 0.25 -->
      <g style="fill: #262626" transform="translate(360.265556 312.518281)scale(0.11 -0.11)">
       <use xlink:href="#DejaVuSans-30"/>
       <use xlink:href="#DejaVuSans-2e" x="63.623047"/>
       <use xlink:href="#DejaVuSans-32" x="95.410156"/>
       <use xlink:href="#DejaVuSans-35" x="159.033203"/>
      </g>
     </g>
    </g>
    <g id="xtick_7">
     <g id="line2d_7">
      <path d="M 430.568182 294.66 
L 430.568182 12.96 
" clip-path="url(#p5df4eda35c)" style="fill: none; stroke: #ffffff; stroke-linecap: round"/>
     </g>
     <g id="text_7">
      <!-- 0.30 -->
      <g style="fill: #262626" transform="translate(418.322088 312.518281)scale(0.11 -0.11)">
       <defs>
        <path id="DejaVuSans-33" d="M 2597 2516 
Q 3050 2419 3304 2112 
Q 3559 1806 3559 1356 
Q 3559 666 3084 287 
Q 2609 -91 1734 -91 
Q 1441 -91 1130 -33 
Q 819 25 488 141 
L 488 750 
Q 750 597 1062 519 
Q 1375 441 1716 441 
Q 2309 441 2620 675 
Q 2931 909 2931 1356 
Q 2931 1769 2642 2001 
Q 2353 2234 1838 2234 
L 1294 2234 
L 1294 2753 
L 1863 2753 
Q 2328 2753 2575 2939 
Q 2822 3125 2822 3475 
Q 2822 3834 2567 4026 
Q 2313 4219 1838 4219 
Q 1578 4219 1281 4162 
Q 984 4106 628 3988 
L 628 4550 
Q 988 4650 1302 4700 
Q 1616 4750 1894 4750 
Q 2613 4750 3031 4423 
Q 3450 4097 3450 3541 
Q 3450 3153 3228 2886 
Q 3006 2619 2597 2516 
z
" transform="scale(0.015625)"/>
       </defs>
       <use xlink:href="#DejaVuSans-30"/>
       <use xlink:href="#DejaVuSans-2e" x="63.623047"/>
       <use xlink:href="#DejaVuSans-33" x="95.410156"/>
       <use xlink:href="#DejaVuSans-30" x="159.033203"/>
      </g>
     </g>
    </g>
    <g id="text_8">
     <!-- Zeitschritte (in Millionen) -->
     <g style="fill: #262626" transform="translate(169.935469 329.44375)scale(0.14 -0.14)">
      <defs>
       <path id="DejaVuSans-5a" d="M 359 4666 
L 4025 4666 
L 4025 4184 
L 1075 531 
L 4097 531 
L 4097 0 
L 288 0 
L 288 481 
L 3238 4134 
L 359 4134 
L 359 4666 
z
" transform="scale(0.015625)"/>
       <path id="DejaVuSans-65" d="M 3597 1894 
L 3597 1613 
L 953 1613 
Q 991 1019 1311 708 
Q 1631 397 2203 397 
Q 2534 397 2845 478 
Q 3156 559 3463 722 
L 3463 178 
Q 3153 47 2828 -22 
Q 2503 -91 2169 -91 
Q 1331 -91 842 396 
Q 353 884 353 1716 
Q 353 2575 817 3079 
Q 1281 3584 2069 3584 
Q 2775 3584 3186 3129 
Q 3597 2675 3597 1894 
z
M 3022 2063 
Q 3016 2534 2758 2815 
Q 2500 3097 2075 3097 
Q 1594 3097 1305 2825 
Q 1016 2553 972 2059 
L 3022 2063 
z
" transform="scale(0.015625)"/>
       <path id="DejaVuSans-69" d="M 603 3500 
L 1178 3500 
L 1178 0 
L 603 0 
L 603 3500 
z
M 603 4863 
L 1178 4863 
L 1178 4134 
L 603 4134 
L 603 4863 
z
" transform="scale(0.015625)"/>
       <path id="DejaVuSans-74" d="M 1172 4494 
L 1172 3500 
L 2356 3500 
L 2356 3053 
L 1172 3053 
L 1172 1153 
Q 1172 725 1289 603 
Q 1406 481 1766 481 
L 2356 481 
L 2356 0 
L 1766 0 
Q 1100 0 847 248 
Q 594 497 594 1153 
L 594 3053 
L 172 3053 
L 172 3500 
L 594 3500 
L 594 4494 
L 1172 4494 
z
" transform="scale(0.015625)"/>
       <path id="DejaVuSans-73" d="M 2834 3397 
L 2834 2853 
Q 2591 2978 2328 3040 
Q 2066 3103 1784 3103 
Q 1356 3103 1142 2972 
Q 928 2841 928 2578 
Q 928 2378 1081 2264 
Q 1234 2150 1697 2047 
L 1894 2003 
Q 2506 1872 2764 1633 
Q 3022 1394 3022 966 
Q 3022 478 2636 193 
Q 2250 -91 1575 -91 
Q 1294 -91 989 -36 
Q 684 19 347 128 
L 347 722 
Q 666 556 975 473 
Q 1284 391 1588 391 
Q 1994 391 2212 530 
Q 2431 669 2431 922 
Q 2431 1156 2273 1281 
Q 2116 1406 1581 1522 
L 1381 1569 
Q 847 1681 609 1914 
Q 372 2147 372 2553 
Q 372 3047 722 3315 
Q 1072 3584 1716 3584 
Q 2034 3584 2315 3537 
Q 2597 3491 2834 3397 
z
" transform="scale(0.015625)"/>
       <path id="DejaVuSans-63" d="M 3122 3366 
L 3122 2828 
Q 2878 2963 2633 3030 
Q 2388 3097 2138 3097 
Q 1578 3097 1268 2742 
Q 959 2388 959 1747 
Q 959 1106 1268 751 
Q 1578 397 2138 397 
Q 2388 397 2633 464 
Q 2878 531 3122 666 
L 3122 134 
Q 2881 22 2623 -34 
Q 2366 -91 2075 -91 
Q 1284 -91 818 406 
Q 353 903 353 1747 
Q 353 2603 823 3093 
Q 1294 3584 2113 3584 
Q 2378 3584 2631 3529 
Q 2884 3475 3122 3366 
z
" transform="scale(0.015625)"/>
       <path id="DejaVuSans-68" d="M 3513 2113 
L 3513 0 
L 2938 0 
L 2938 2094 
Q 2938 2591 2744 2837 
Q 2550 3084 2163 3084 
Q 1697 3084 1428 2787 
Q 1159 2491 1159 1978 
L 1159 0 
L 581 0 
L 581 4863 
L 1159 4863 
L 1159 2956 
Q 1366 3272 1645 3428 
Q 1925 3584 2291 3584 
Q 2894 3584 3203 3211 
Q 3513 2838 3513 2113 
z
" transform="scale(0.015625)"/>
       <path id="DejaVuSans-72" d="M 2631 2963 
Q 2534 3019 2420 3045 
Q 2306 3072 2169 3072 
Q 1681 3072 1420 2755 
Q 1159 2438 1159 1844 
L 1159 0 
L 581 0 
L 581 3500 
L 1159 3500 
L 1159 2956 
Q 1341 3275 1631 3429 
Q 1922 3584 2338 3584 
Q 2397 3584 2469 3576 
Q 2541 3569 2628 3553 
L 2631 2963 
z
" transform="scale(0.015625)"/>
       <path id="DejaVuSans-20" transform="scale(0.015625)"/>
       <path id="DejaVuSans-28" d="M 1984 4856 
Q 1566 4138 1362 3434 
Q 1159 2731 1159 2009 
Q 1159 1288 1364 580 
Q 1569 -128 1984 -844 
L 1484 -844 
Q 1016 -109 783 600 
Q 550 1309 550 2009 
Q 550 2706 781 3412 
Q 1013 4119 1484 4856 
L 1984 4856 
z
" transform="scale(0.015625)"/>
       <path id="DejaVuSans-6e" d="M 3513 2113 
L 3513 0 
L 2938 0 
L 2938 2094 
Q 2938 2591 2744 2837 
Q 2550 3084 2163 3084 
Q 1697 3084 1428 2787 
Q 1159 2491 1159 1978 
L 1159 0 
L 581 0 
L 581 3500 
L 1159 3500 
L 1159 2956 
Q 1366 3272 1645 3428 
Q 1925 3584 2291 3584 
Q 2894 3584 3203 3211 
Q 3513 2838 3513 2113 
z
" transform="scale(0.015625)"/>
       <path id="DejaVuSans-4d" d="M 628 4666 
L 1569 4666 
L 2759 1491 
L 3956 4666 
L 4897 4666 
L 4897 0 
L 4281 0 
L 4281 4097 
L 3078 897 
L 2444 897 
L 1241 4097 
L 1241 0 
L 628 0 
L 628 4666 
z
" transform="scale(0.015625)"/>
       <path id="DejaVuSans-6c" d="M 603 4863 
L 1178 4863 
L 1178 0 
L 603 0 
L 603 4863 
z
" transform="scale(0.015625)"/>
       <path id="DejaVuSans-6f" d="M 1959 3097 
Q 1497 3097 1228 2736 
Q 959 2375 959 1747 
Q 959 1119 1226 758 
Q 1494 397 1959 397 
Q 2419 397 2687 759 
Q 2956 1122 2956 1747 
Q 2956 2369 2687 2733 
Q 2419 3097 1959 3097 
z
M 1959 3584 
Q 2709 3584 3137 3096 
Q 3566 2609 3566 1747 
Q 3566 888 3137 398 
Q 2709 -91 1959 -91 
Q 1206 -91 779 398 
Q 353 888 353 1747 
Q 353 2609 779 3096 
Q 1206 3584 1959 3584 
z
" transform="scale(0.015625)"/>
       <path id="DejaVuSans-29" d="M 513 4856 
L 1013 4856 
Q 1481 4119 1714 3412 
Q 1947 2706 1947 2009 
Q 1947 1309 1714 600 
Q 1481 -109 1013 -844 
L 513 -844 
Q 928 -128 1133 580 
Q 1338 1288 1338 2009 
Q 1338 2731 1133 3434 
Q 928 4138 513 4856 
z
" transform="scale(0.015625)"/>
      </defs>
      <use xlink:href="#DejaVuSans-5a"/>
      <use xlink:href="#DejaVuSans-65" x="68.505859"/>
      <use xlink:href="#DejaVuSans-69" x="130.029297"/>
      <use xlink:href="#DejaVuSans-74" x="157.8125"/>
      <use xlink:href="#DejaVuSans-73" x="197.021484"/>
      <use xlink:href="#DejaVuSans-63" x="249.121094"/>
      <use xlink:href="#DejaVuSans-68" x="304.101562"/>
      <use xlink:href="#DejaVuSans-72" x="367.480469"/>
      <use xlink:href="#DejaVuSans-69" x="408.59375"/>
      <use xlink:href="#DejaVuSans-74" x="436.376953"/>
      <use xlink:href="#DejaVuSans-74" x="475.585938"/>
      <use xlink:href="#DejaVuSans-65" x="514.794922"/>
      <use xlink:href="#DejaVuSans-20" x="576.318359"/>
      <use xlink:href="#DejaVuSans-28" x="608.105469"/>
      <use xlink:href="#DejaVuSans-69" x="647.119141"/>
      <use xlink:href="#DejaVuSans-6e" x="674.902344"/>
      <use xlink:href="#DejaVuSans-20" x="738.28125"/>
      <use xlink:href="#DejaVuSans-4d" x="770.068359"/>
      <use xlink:href="#DejaVuSans-69" x="856.347656"/>
      <use xlink:href="#DejaVuSans-6c" x="884.130859"/>
      <use xlink:href="#DejaVuSans-6c" x="911.914062"/>
      <use xlink:href="#DejaVuSans-69" x="939.697266"/>
      <use xlink:href="#DejaVuSans-6f" x="967.480469"/>
      <use xlink:href="#DejaVuSans-6e" x="1028.662109"/>
      <use xlink:href="#DejaVuSans-65" x="1092.041016"/>
      <use xlink:href="#DejaVuSans-6e" x="1153.564453"/>
      <use xlink:href="#DejaVuSans-29" x="1216.943359"/>
     </g>
    </g>
   </g>
   <g id="matplotlib.axis_2">
    <g id="ytick_1">
     <g id="line2d_8">
      <path d="M 67.86 281.855455 
L 447.84 281.855455 
" clip-path="url(#p5df4eda35c)" style="fill: none; stroke: #ffffff; stroke-linecap: round"/>
     </g>
     <g id="text_9">
      <!-- 0 -->
      <g style="fill: #262626" transform="translate(51.36125 286.034595)scale(0.11 -0.11)">
       <use xlink:href="#DejaVuSans-30"/>
      </g>
     </g>
    </g>
    <g id="ytick_2">
     <g id="line2d_9">
      <path d="M 67.86 242.577708 
L 447.84 242.577708 
" clip-path="url(#p5df4eda35c)" style="fill: none; stroke: #ffffff; stroke-linecap: round"/>
     </g>
     <g id="text_10">
      <!-- 200 -->
      <g style="fill: #262626" transform="translate(37.36375 246.756848)scale(0.11 -0.11)">
       <use xlink:href="#DejaVuSans-32"/>
       <use xlink:href="#DejaVuSans-30" x="63.623047"/>
       <use xlink:href="#DejaVuSans-30" x="127.246094"/>
      </g>
     </g>
    </g>
    <g id="ytick_3">
     <g id="line2d_10">
      <path d="M 67.86 203.299961 
L 447.84 203.299961 
" clip-path="url(#p5df4eda35c)" style="fill: none; stroke: #ffffff; stroke-linecap: round"/>
     </g>
     <g id="text_11">
      <!-- 400 -->
      <g style="fill: #262626" transform="translate(37.36375 207.479102)scale(0.11 -0.11)">
       <defs>
        <path id="DejaVuSans-34" d="M 2419 4116 
L 825 1625 
L 2419 1625 
L 2419 4116 
z
M 2253 4666 
L 3047 4666 
L 3047 1625 
L 3713 1625 
L 3713 1100 
L 3047 1100 
L 3047 0 
L 2419 0 
L 2419 1100 
L 313 1100 
L 313 1709 
L 2253 4666 
z
" transform="scale(0.015625)"/>
       </defs>
       <use xlink:href="#DejaVuSans-34"/>
       <use xlink:href="#DejaVuSans-30" x="63.623047"/>
       <use xlink:href="#DejaVuSans-30" x="127.246094"/>
      </g>
     </g>
    </g>
    <g id="ytick_4">
     <g id="line2d_11">
      <path d="M 67.86 164.022214 
L 447.84 164.022214 
" clip-path="url(#p5df4eda35c)" style="fill: none; stroke: #ffffff; stroke-linecap: round"/>
     </g>
     <g id="text_12">
      <!-- 600 -->
      <g style="fill: #262626" transform="translate(37.36375 168.201355)scale(0.11 -0.11)">
       <defs>
        <path id="DejaVuSans-36" d="M 2113 2584 
Q 1688 2584 1439 2293 
Q 1191 2003 1191 1497 
Q 1191 994 1439 701 
Q 1688 409 2113 409 
Q 2538 409 2786 701 
Q 3034 994 3034 1497 
Q 3034 2003 2786 2293 
Q 2538 2584 2113 2584 
z
M 3366 4563 
L 3366 3988 
Q 3128 4100 2886 4159 
Q 2644 4219 2406 4219 
Q 1781 4219 1451 3797 
Q 1122 3375 1075 2522 
Q 1259 2794 1537 2939 
Q 1816 3084 2150 3084 
Q 2853 3084 3261 2657 
Q 3669 2231 3669 1497 
Q 3669 778 3244 343 
Q 2819 -91 2113 -91 
Q 1303 -91 875 529 
Q 447 1150 447 2328 
Q 447 3434 972 4092 
Q 1497 4750 2381 4750 
Q 2619 4750 2861 4703 
Q 3103 4656 3366 4563 
z
" transform="scale(0.015625)"/>
       </defs>
       <use xlink:href="#DejaVuSans-36"/>
       <use xlink:href="#DejaVuSans-30" x="63.623047"/>
       <use xlink:href="#DejaVuSans-30" x="127.246094"/>
      </g>
     </g>
    </g>
    <g id="ytick_5">
     <g id="line2d_12">
      <path d="M 67.86 124.744467 
L 447.84 124.744467 
" clip-path="url(#p5df4eda35c)" style="fill: none; stroke: #ffffff; stroke-linecap: round"/>
     </g>
     <g id="text_13">
      <!-- 800 -->
      <g style="fill: #262626" transform="translate(37.36375 128.923608)scale(0.11 -0.11)">
       <defs>
        <path id="DejaVuSans-38" d="M 2034 2216 
Q 1584 2216 1326 1975 
Q 1069 1734 1069 1313 
Q 1069 891 1326 650 
Q 1584 409 2034 409 
Q 2484 409 2743 651 
Q 3003 894 3003 1313 
Q 3003 1734 2745 1975 
Q 2488 2216 2034 2216 
z
M 1403 2484 
Q 997 2584 770 2862 
Q 544 3141 544 3541 
Q 544 4100 942 4425 
Q 1341 4750 2034 4750 
Q 2731 4750 3128 4425 
Q 3525 4100 3525 3541 
Q 3525 3141 3298 2862 
Q 3072 2584 2669 2484 
Q 3125 2378 3379 2068 
Q 3634 1759 3634 1313 
Q 3634 634 3220 271 
Q 2806 -91 2034 -91 
Q 1263 -91 848 271 
Q 434 634 434 1313 
Q 434 1759 690 2068 
Q 947 2378 1403 2484 
z
M 1172 3481 
Q 1172 3119 1398 2916 
Q 1625 2713 2034 2713 
Q 2441 2713 2670 2916 
Q 2900 3119 2900 3481 
Q 2900 3844 2670 4047 
Q 2441 4250 2034 4250 
Q 1625 4250 1398 4047 
Q 1172 3844 1172 3481 
z
" transform="scale(0.015625)"/>
       </defs>
       <use xlink:href="#DejaVuSans-38"/>
       <use xlink:href="#DejaVuSans-30" x="63.623047"/>
       <use xlink:href="#DejaVuSans-30" x="127.246094"/>
      </g>
     </g>
    </g>
    <g id="ytick_6">
     <g id="line2d_13">
      <path d="M 67.86 85.466721 
L 447.84 85.466721 
" clip-path="url(#p5df4eda35c)" style="fill: none; stroke: #ffffff; stroke-linecap: round"/>
     </g>
     <g id="text_14">
      <!-- 1000 -->
      <g style="fill: #262626" transform="translate(30.365 89.645861)scale(0.11 -0.11)">
       <use xlink:href="#DejaVuSans-31"/>
       <use xlink:href="#DejaVuSans-30" x="63.623047"/>
       <use xlink:href="#DejaVuSans-30" x="127.246094"/>
       <use xlink:href="#DejaVuSans-30" x="190.869141"/>
      </g>
     </g>
    </g>
    <g id="ytick_7">
     <g id="line2d_14">
      <path d="M 67.86 46.188974 
L 447.84 46.188974 
" clip-path="url(#p5df4eda35c)" style="fill: none; stroke: #ffffff; stroke-linecap: round"/>
     </g>
     <g id="text_15">
      <!-- 1200 -->
      <g style="fill: #262626" transform="translate(30.365 50.368114)scale(0.11 -0.11)">
       <use xlink:href="#DejaVuSans-31"/>
       <use xlink:href="#DejaVuSans-32" x="63.623047"/>
       <use xlink:href="#DejaVuSans-30" x="127.246094"/>
       <use xlink:href="#DejaVuSans-30" x="190.869141"/>
      </g>
     </g>
    </g>
    <g id="text_16">
     <!-- # Δx &lt; 0 -->
     <g style="fill: #262626" transform="translate(23.453438 185.600938)rotate(-90)scale(0.14 -0.14)">
      <defs>
       <path id="DejaVuSans-23" d="M 3272 2816 
L 2363 2816 
L 2100 1772 
L 3016 1772 
L 3272 2816 
z
M 2803 4594 
L 2478 3297 
L 3391 3297 
L 3719 4594 
L 4219 4594 
L 3897 3297 
L 4872 3297 
L 4872 2816 
L 3775 2816 
L 3519 1772 
L 4513 1772 
L 4513 1294 
L 3397 1294 
L 3072 0 
L 2572 0 
L 2894 1294 
L 1978 1294 
L 1656 0 
L 1153 0 
L 1478 1294 
L 494 1294 
L 494 1772 
L 1594 1772 
L 1856 2816 
L 850 2816 
L 850 3297 
L 1978 3297 
L 2297 4594 
L 2803 4594 
z
" transform="scale(0.015625)"/>
       <path id="DejaVuSans-394" d="M 2188 4044 
L 906 525 
L 3472 525 
L 2188 4044 
z
M 50 0 
L 1831 4666 
L 2547 4666 
L 4325 0 
L 50 0 
z
" transform="scale(0.015625)"/>
       <path id="DejaVuSans-78" d="M 3513 3500 
L 2247 1797 
L 3578 0 
L 2900 0 
L 1881 1375 
L 863 0 
L 184 0 
L 1544 1831 
L 300 3500 
L 978 3500 
L 1906 2253 
L 2834 3500 
L 3513 3500 
z
" transform="scale(0.015625)"/>
       <path id="DejaVuSans-3c" d="M 4684 3150 
L 1459 2003 
L 4684 863 
L 4684 294 
L 678 1747 
L 678 2266 
L 4684 3719 
L 4684 3150 
z
" transform="scale(0.015625)"/>
      </defs>
      <use xlink:href="#DejaVuSans-23"/>
      <use xlink:href="#DejaVuSans-20" x="83.789062"/>
      <use xlink:href="#DejaVuSans-394" x="115.576172"/>
      <use xlink:href="#DejaVuSans-78" x="183.984375"/>
      <use xlink:href="#DejaVuSans-20" x="243.164062"/>
      <use xlink:href="#DejaVuSans-3c" x="274.951172"/>
      <use xlink:href="#DejaVuSans-20" x="358.740234"/>
      <use xlink:href="#DejaVuSans-30" x="390.527344"/>
     </g>
    </g>
   </g>
   <g id="PolyCollection_1">
    <defs>
     <path id="m565f0a8eba" d="M 85.131818 -177.8464 
L 85.131818 -221.326866 
L 88.034645 -243.479515 
L 90.937471 -263.039833 
L 93.840298 -238.923296 
L 96.743125 -74.781592 
L 99.645951 -86.564916 
L 102.548778 -89.589303 
L 105.451604 -107.225011 
L 108.354431 -99.015962 
L 111.257257 -72.542761 
L 114.160084 -67.67232 
L 117.062911 -72.03215 
L 119.965737 -92.495856 
L 122.868564 -69.950429 
L 125.77139 -75.056537 
L 128.674217 -64.333712 
L 131.577044 -76.077758 
L 134.47987 -64.137323 
L 137.382697 -64.372989 
L 140.285523 -75.017259 
L 143.18835 -64.412267 
L 146.091176 -79.809144 
L 148.994003 -67.161709 
L 151.89683 -64.137323 
L 154.799656 -64.176601 
L 157.702483 -64.137323 
L 160.605309 -64.176601 
L 163.508136 -64.098045 
L 166.410963 -64.176601 
L 169.313789 -64.058767 
L 172.216616 -64.215878 
L 175.119442 -64.215878 
L 178.022269 -64.176601 
L 180.925095 -64.215878 
L 183.827922 -64.176601 
L 186.730749 -64.176601 
L 189.633575 -64.176601 
L 192.536402 -64.372989 
L 195.439228 -64.176601 
L 198.342055 -64.098045 
L 201.244882 -64.333712 
L 204.147708 -64.255156 
L 207.050535 -64.176601 
L 209.953361 -64.294434 
L 212.856188 -64.215878 
L 215.759015 -64.255156 
L 218.661841 -64.333712 
L 221.564668 -64.137323 
L 224.467494 -64.255156 
L 227.370321 -64.255156 
L 230.273147 -64.176601 
L 233.175974 -64.176601 
L 236.078801 -64.255156 
L 238.981627 -64.215878 
L 241.884454 -64.255156 
L 244.78728 -64.255156 
L 247.690107 -64.255156 
L 250.592934 -64.215878 
L 253.49576 -64.294434 
L 256.398587 -64.215878 
L 259.301413 -64.215878 
L 262.20424 -64.176601 
L 265.107066 -64.215878 
L 268.009893 -64.215878 
L 270.91272 -64.255156 
L 273.815546 -64.294434 
L 276.718373 -64.215878 
L 279.621199 -64.294434 
L 282.524026 -64.215878 
L 285.426853 -64.255156 
L 288.329679 -64.255156 
L 291.232506 -64.294434 
L 294.135332 -64.215878 
L 297.038159 -64.294434 
L 299.940985 -64.412267 
L 302.843812 -64.176601 
L 305.746639 -64.215878 
L 308.649465 -64.215878 
L 311.552292 -64.255156 
L 314.455118 -64.294434 
L 317.357945 -64.294434 
L 320.260772 -64.294434 
L 323.163598 -64.294434 
L 326.066425 -64.255156 
L 328.969251 -64.333712 
L 331.872078 -64.255156 
L 334.774905 -64.412267 
L 337.677731 -64.255156 
L 340.580558 -64.137323 
L 343.483384 -64.215878 
L 346.386211 -64.412267 
L 349.289037 -64.333712 
L 352.191864 -64.294434 
L 355.094691 -64.215878 
L 357.997517 -64.451545 
L 360.900344 -64.255156 
L 363.80317 -64.255156 
L 366.705997 -64.215878 
L 369.608824 -64.215878 
L 372.51165 -64.333712 
L 375.414477 -64.294434 
L 378.317303 -64.333712 
L 381.22013 -64.215878 
L 384.122956 -64.098045 
L 387.025783 -64.372989 
L 389.92861 -64.333712 
L 392.831436 -64.255156 
L 395.734263 -64.294434 
L 398.637089 -64.372989 
L 401.539916 -64.372989 
L 404.442743 -64.333712 
L 407.345569 -64.294434 
L 410.248396 -64.215878 
L 413.151222 -64.255156 
L 416.054049 -64.372989 
L 418.956875 -64.294434 
L 421.859702 -64.215878 
L 424.762529 -64.294434 
L 427.665355 -64.176601 
L 430.568182 -64.255156 
L 430.568182 -64.01949 
L 430.568182 -64.01949 
L 427.665355 -64.01949 
L 424.762529 -64.098045 
L 421.859702 -64.098045 
L 418.956875 -64.058767 
L 416.054049 -64.058767 
L 413.151222 -64.098045 
L 410.248396 -64.098045 
L 407.345569 -64.058767 
L 404.442743 -64.098045 
L 401.539916 -64.176601 
L 398.637089 -64.098045 
L 395.734263 -64.176601 
L 392.831436 -64.058767 
L 389.92861 -64.098045 
L 387.025783 -64.176601 
L 384.122956 -64.058767 
L 381.22013 -63.980212 
L 378.317303 -64.01949 
L 375.414477 -64.098045 
L 372.51165 -64.058767 
L 369.608824 -64.137323 
L 366.705997 -64.01949 
L 363.80317 -64.098045 
L 360.900344 -64.098045 
L 357.997517 -64.01949 
L 355.094691 -64.058767 
L 352.191864 -64.098045 
L 349.289037 -64.058767 
L 346.386211 -64.137323 
L 343.483384 -63.980212 
L 340.580558 -63.980212 
L 337.677731 -64.058767 
L 334.774905 -64.058767 
L 331.872078 -64.098045 
L 328.969251 -64.058767 
L 326.066425 -64.01949 
L 323.163598 -64.098045 
L 320.260772 -64.215878 
L 317.357945 -64.098045 
L 314.455118 -64.137323 
L 311.552292 -64.01949 
L 308.649465 -64.098045 
L 305.746639 -64.058767 
L 302.843812 -64.098045 
L 299.940985 -64.137323 
L 297.038159 -64.176601 
L 294.135332 -64.01949 
L 291.232506 -64.01949 
L 288.329679 -64.137323 
L 285.426853 -64.098045 
L 282.524026 -64.01949 
L 279.621199 -64.058767 
L 276.718373 -64.098045 
L 273.815546 -64.137323 
L 270.91272 -64.01949 
L 268.009893 -64.058767 
L 265.107066 -64.01949 
L 262.20424 -63.980212 
L 259.301413 -64.137323 
L 256.398587 -64.01949 
L 253.49576 -63.980212 
L 250.592934 -64.01949 
L 247.690107 -64.098045 
L 244.78728 -64.01949 
L 241.884454 -64.01949 
L 238.981627 -64.137323 
L 236.078801 -63.980212 
L 233.175974 -64.098045 
L 230.273147 -64.01949 
L 227.370321 -64.01949 
L 224.467494 -63.940934 
L 221.564668 -64.058767 
L 218.661841 -63.980212 
L 215.759015 -64.058767 
L 212.856188 -63.940934 
L 209.953361 -64.01949 
L 207.050535 -64.058767 
L 204.147708 -64.01949 
L 201.244882 -63.980212 
L 198.342055 -63.980212 
L 195.439228 -64.01949 
L 192.536402 -64.01949 
L 189.633575 -63.980212 
L 186.730749 -63.940934 
L 183.827922 -63.901656 
L 180.925095 -63.980212 
L 178.022269 -64.01949 
L 175.119442 -64.01949 
L 172.216616 -64.01949 
L 169.313789 -64.058767 
L 166.410963 -63.980212 
L 163.508136 -63.980212 
L 160.605309 -63.980212 
L 157.702483 -64.058767 
L 154.799656 -64.01949 
L 151.89683 -63.862379 
L 148.994003 -63.940934 
L 146.091176 -63.980212 
L 143.18835 -63.901656 
L 140.285523 -63.901656 
L 137.382697 -63.823101 
L 134.47987 -63.862379 
L 131.577044 -64.098045 
L 128.674217 -63.940934 
L 125.77139 -63.744545 
L 122.868564 -63.901656 
L 119.965737 -63.862379 
L 117.062911 -63.783823 
L 114.160084 -63.744545 
L 111.257257 -63.862379 
L 108.354431 -63.823101 
L 105.451604 -63.744545 
L 102.548778 -63.783823 
L 99.645951 -63.744545 
L 96.743125 -63.744545 
L 93.840298 -160.446358 
L 90.937471 -183.738062 
L 88.034645 -148.505923 
L 85.131818 -177.8464 
z
" style="stroke: #ffffff; stroke-opacity: 0.5"/>
    </defs>
    <g clip-path="url(#p5df4eda35c)">
     <use xlink:href="#m565f0a8eba" x="0" y="345.6" style="fill: #4c72b0; fill-opacity: 0.5; stroke: #ffffff; stroke-opacity: 0.5"/>
    </g>
   </g>
   <g id="PolyCollection_2">
    <defs>
     <path id="m55b9f54544" d="M 85.131818 -163.117245 
L 85.131818 -238.923296 
L 88.034645 -264.65022 
L 90.937471 -285.663815 
L 93.840298 -255.616339 
L 96.743125 -319.835455 
L 99.645951 -64.333712 
L 102.548778 -64.333712 
L 105.451604 -76.902591 
L 108.354431 -101.451182 
L 111.257257 -72.974816 
L 114.160084 -64.5301 
L 117.062911 -80.04481 
L 119.965737 -64.726489 
L 122.868564 -107.735622 
L 125.77139 -64.726489 
L 128.674217 -64.922878 
L 131.577044 -64.726489 
L 134.47987 -64.5301 
L 137.382697 -64.726489 
L 140.285523 -65.119267 
L 143.18835 -64.5301 
L 146.091176 -104.98618 
L 148.994003 -65.119267 
L 151.89683 -64.333712 
L 154.799656 -64.5301 
L 157.702483 -64.726489 
L 160.605309 -65.119267 
L 163.508136 -133.855323 
L 166.410963 -64.726489 
L 169.313789 -69.439819 
L 172.216616 -64.922878 
L 175.119442 -64.922878 
L 178.022269 -64.726489 
L 180.925095 -64.333712 
L 183.827922 -64.726489 
L 186.730749 -64.726489 
L 189.633575 -64.726489 
L 192.536402 -80.830365 
L 195.439228 -64.5301 
L 198.342055 -64.5301 
L 201.244882 -64.922878 
L 204.147708 -64.5301 
L 207.050535 -64.726489 
L 209.953361 -64.922878 
L 212.856188 -64.726489 
L 215.759015 -64.5301 
L 218.661841 -64.5301 
L 221.564668 -75.527869 
L 224.467494 -64.726489 
L 227.370321 -64.5301 
L 230.273147 -64.5301 
L 233.175974 -64.726489 
L 236.078801 -64.726489 
L 238.981627 -64.5301 
L 241.884454 -64.5301 
L 244.78728 -64.726489 
L 247.690107 -64.726489 
L 250.592934 -64.5301 
L 253.49576 -64.922878 
L 256.398587 -64.726489 
L 259.301413 -64.726489 
L 262.20424 -64.5301 
L 265.107066 -65.119267 
L 268.009893 -64.5301 
L 270.91272 -64.726489 
L 273.815546 -64.5301 
L 276.718373 -64.5301 
L 279.621199 -64.5301 
L 282.524026 -64.922878 
L 285.426853 -64.333712 
L 288.329679 -64.726489 
L 291.232506 -64.922878 
L 294.135332 -64.922878 
L 297.038159 -64.922878 
L 299.940985 -65.315655 
L 302.843812 -64.726489 
L 305.746639 -64.726489 
L 308.649465 -64.726489 
L 311.552292 -65.119267 
L 314.455118 -65.119267 
L 317.357945 -64.922878 
L 320.260772 -65.119267 
L 323.163598 -64.922878 
L 326.066425 -64.5301 
L 328.969251 -64.726489 
L 331.872078 -65.512044 
L 334.774905 -64.922878 
L 337.677731 -64.922878 
L 340.580558 -65.315655 
L 343.483384 -64.726489 
L 346.386211 -64.726489 
L 349.289037 -64.922878 
L 352.191864 -65.119267 
L 355.094691 -64.5301 
L 357.997517 -65.119267 
L 360.900344 -64.5301 
L 363.80317 -64.726489 
L 366.705997 -64.5301 
L 369.608824 -64.922878 
L 372.51165 -64.922878 
L 375.414477 -65.904822 
L 378.317303 -64.922878 
L 381.22013 -64.922878 
L 384.122956 -64.726489 
L 387.025783 -64.922878 
L 389.92861 -64.726489 
L 392.831436 -64.922878 
L 395.734263 -64.726489 
L 398.637089 -64.5301 
L 401.539916 -64.5301 
L 404.442743 -65.119267 
L 407.345569 -65.512044 
L 410.248396 -65.315655 
L 413.151222 -64.5301 
L 416.054049 -64.726489 
L 418.956875 -64.726489 
L 421.859702 -64.726489 
L 424.762529 -64.922878 
L 427.665355 -65.315655 
L 430.568182 -65.119267 
L 430.568182 -64.333712 
L 430.568182 -64.333712 
L 427.665355 -64.5301 
L 424.762529 -64.333712 
L 421.859702 -64.137323 
L 418.956875 -64.137323 
L 416.054049 -63.940934 
L 413.151222 -64.137323 
L 410.248396 -64.5301 
L 407.345569 -64.137323 
L 404.442743 -64.333712 
L 401.539916 -64.137323 
L 398.637089 -64.137323 
L 395.734263 -63.744545 
L 392.831436 -64.137323 
L 389.92861 -64.137323 
L 387.025783 -63.940934 
L 384.122956 -64.137323 
L 381.22013 -64.137323 
L 378.317303 -64.333712 
L 375.414477 -64.333712 
L 372.51165 -64.137323 
L 369.608824 -64.137323 
L 366.705997 -64.137323 
L 363.80317 -64.137323 
L 360.900344 -64.5301 
L 357.997517 -64.137323 
L 355.094691 -63.940934 
L 352.191864 -63.940934 
L 349.289037 -64.137323 
L 346.386211 -64.333712 
L 343.483384 -64.333712 
L 340.580558 -64.333712 
L 337.677731 -64.137323 
L 334.774905 -64.137323 
L 331.872078 -64.137323 
L 328.969251 -64.137323 
L 326.066425 -63.940934 
L 323.163598 -64.137323 
L 320.260772 -64.333712 
L 317.357945 -64.333712 
L 314.455118 -64.333712 
L 311.552292 -64.333712 
L 308.649465 -64.137323 
L 305.746639 -63.940934 
L 302.843812 -64.137323 
L 299.940985 -63.940934 
L 297.038159 -64.137323 
L 294.135332 -63.940934 
L 291.232506 -64.137323 
L 288.329679 -64.333712 
L 285.426853 -64.137323 
L 282.524026 -64.137323 
L 279.621199 -64.137323 
L 276.718373 -63.940934 
L 273.815546 -64.137323 
L 270.91272 -64.333712 
L 268.009893 -63.940934 
L 265.107066 -64.137323 
L 262.20424 -63.940934 
L 259.301413 -64.333712 
L 256.398587 -64.137323 
L 253.49576 -63.940934 
L 250.592934 -64.137323 
L 247.690107 -64.333712 
L 244.78728 -63.940934 
L 241.884454 -64.137323 
L 238.981627 -63.940934 
L 236.078801 -64.137323 
L 233.175974 -64.137323 
L 230.273147 -63.940934 
L 227.370321 -64.333712 
L 224.467494 -64.333712 
L 221.564668 -64.137323 
L 218.661841 -64.137323 
L 215.759015 -64.137323 
L 212.856188 -63.940934 
L 209.953361 -63.940934 
L 207.050535 -64.137323 
L 204.147708 -64.137323 
L 201.244882 -64.137323 
L 198.342055 -63.940934 
L 195.439228 -64.137323 
L 192.536402 -64.137323 
L 189.633575 -64.137323 
L 186.730749 -64.137323 
L 183.827922 -64.137323 
L 180.925095 -63.940934 
L 178.022269 -64.137323 
L 175.119442 -63.940934 
L 172.216616 -64.137323 
L 169.313789 -64.137323 
L 166.410963 -64.333712 
L 163.508136 -64.137323 
L 160.605309 -64.137323 
L 157.702483 -63.940934 
L 154.799656 -64.137323 
L 151.89683 -64.333712 
L 148.994003 -64.5301 
L 146.091176 -64.333712 
L 143.18835 -64.137323 
L 140.285523 -64.137323 
L 137.382697 -63.940934 
L 134.47987 -64.137323 
L 131.577044 -64.137323 
L 128.674217 -64.137323 
L 125.77139 -64.137323 
L 122.868564 -64.137323 
L 119.965737 -64.137323 
L 117.062911 -64.137323 
L 114.160084 -64.137323 
L 111.257257 -64.333712 
L 108.354431 -63.940934 
L 105.451604 -63.940934 
L 102.548778 -63.940934 
L 99.645951 -64.137323 
L 96.743125 -168.419741 
L 93.840298 -186.880282 
L 90.937471 -166.063076 
L 88.034645 -205.929989 
L 85.131818 -163.117245 
z
" style="stroke: #ffffff; stroke-opacity: 0.5"/>
    </defs>
    <g clip-path="url(#p5df4eda35c)">
     <use xlink:href="#m55b9f54544" x="0" y="345.6" style="fill: #dd8452; fill-opacity: 0.5; stroke: #ffffff; stroke-opacity: 0.5"/>
    </g>
   </g>
   <g id="line2d_15">
    <path d="M 85.131818 145.718784 
L 88.034645 141.146854 
L 90.937471 141.178277 
L 93.840298 150.824891 
L 96.743125 279.616623 
L 99.645951 272.381662 
L 102.548778 266.529278 
L 105.451604 272.468073 
L 108.354431 270.42563 
L 111.257257 277.330658 
L 114.160084 280.567144 
L 117.062911 280.040823 
L 119.965737 272.860851 
L 122.868564 280.402178 
L 125.77139 279.420234 
L 128.674217 281.541233 
L 131.577044 277.652736 
L 134.47987 281.619788 
L 137.382697 281.517666 
L 140.285523 279.388812 
L 143.18835 281.517666 
L 146.091176 278.375446 
L 148.994003 280.873511 
L 151.89683 281.541233 
L 154.799656 281.494099 
L 157.702483 281.50981 
L 160.605309 281.541233 
L 163.508136 281.533377 
L 166.410963 281.517666 
L 169.313789 281.541233 
L 172.216616 281.478388 
L 175.119442 281.501955 
L 178.022269 281.50981 
L 180.925095 281.478388 
L 183.827922 281.556944 
L 186.730749 281.494099 
L 189.633575 281.541233 
L 192.536402 281.423399 
L 195.439228 281.494099 
L 198.342055 281.556944 
L 201.244882 281.462677 
L 204.147708 281.486244 
L 207.050535 281.486244 
L 209.953361 281.470533 
L 212.856188 281.541233 
L 215.759015 281.486244 
L 218.661841 281.423399 
L 221.564668 281.478388 
L 224.467494 281.517666 
L 227.370321 281.486244 
L 230.273147 281.486244 
L 233.175974 281.470533 
L 236.078801 281.470533 
L 238.981627 281.423399 
L 241.884454 281.43911 
L 244.78728 281.454822 
L 247.690107 281.423399 
L 250.592934 281.470533 
L 253.49576 281.470533 
L 256.398587 281.470533 
L 259.301413 281.415544 
L 262.20424 281.470533 
L 265.107066 281.486244 
L 268.009893 281.462677 
L 270.91272 281.423399 
L 273.815546 281.431255 
L 276.718373 281.454822 
L 279.621199 281.415544 
L 282.524026 281.470533 
L 285.426853 281.43911 
L 288.329679 281.415544 
L 291.232506 281.415544 
L 294.135332 281.462677 
L 297.038159 281.344844 
L 299.940985 281.376266 
L 302.843812 281.446966 
L 305.746639 281.462677 
L 308.649465 281.43911 
L 311.552292 281.454822 
L 314.455118 281.391977 
L 317.357945 281.391977 
L 320.260772 281.344844 
L 323.163598 281.43911 
L 326.066425 281.501955 
L 328.969251 281.399833 
L 331.872078 281.423399 
L 334.774905 281.399833 
L 337.677731 281.423399 
L 340.580558 281.50981 
L 343.483384 281.494099 
L 346.386211 281.36841 
L 349.289037 281.462677 
L 352.191864 281.43911 
L 355.094691 281.462677 
L 357.997517 281.336988 
L 360.900344 281.423399 
L 363.80317 281.454822 
L 366.705997 281.462677 
L 369.608824 281.423399 
L 372.51165 281.431255 
L 375.414477 281.399833 
L 378.317303 281.407688 
L 381.22013 281.462677 
L 384.122956 281.50981 
L 387.025783 281.329133 
L 389.92861 281.36841 
L 392.831436 281.431255 
L 395.734263 281.36841 
L 398.637089 281.391977 
L 401.539916 281.289855 
L 404.442743 281.423399 
L 407.345569 281.43911 
L 410.248396 281.415544 
L 413.151222 281.431255 
L 416.054049 281.399833 
L 418.956875 281.431255 
L 421.859702 281.43911 
L 424.762529 281.415544 
L 427.665355 281.501955 
L 430.568182 281.446966 
" clip-path="url(#p5df4eda35c)" style="fill: none; stroke: #4c72b0; stroke-width: 3; stroke-linecap: round"/>
   </g>
   <g id="line2d_16">
    <path d="M 85.131818 139.984233 
L 88.034645 117.910139 
L 90.937471 112.725477 
L 93.840298 121.327303 
L 96.743125 123.094802 
L 99.645951 281.423399 
L 102.548778 281.501955 
L 105.451604 278.752513 
L 108.354431 274.078461 
L 111.257257 279.49879 
L 114.160084 281.266288 
L 117.062911 278.202624 
L 119.965737 281.266288 
L 122.868564 272.546629 
L 125.77139 281.227011 
L 128.674217 281.109177 
L 131.577044 281.305566 
L 134.47987 281.227011 
L 137.382697 281.266288 
L 140.285523 281.148455 
L 143.18835 281.266288 
L 146.091176 272.939406 
L 148.994003 280.834233 
L 151.89683 281.266288 
L 154.799656 281.227011 
L 157.702483 281.148455 
L 160.605309 281.187733 
L 163.508136 267.401244 
L 166.410963 281.148455 
L 169.313789 280.166511 
L 172.216616 281.0699 
L 175.119442 281.227011 
L 178.022269 281.187733 
L 180.925095 281.384122 
L 183.827922 281.187733 
L 186.730749 281.148455 
L 189.633575 281.227011 
L 192.536402 278.006235 
L 195.439228 281.266288 
L 198.342055 281.266288 
L 201.244882 281.0699 
L 204.147708 281.344844 
L 207.050535 281.227011 
L 209.953361 281.266288 
L 212.856188 281.384122 
L 215.759015 281.305566 
L 218.661841 281.344844 
L 221.564668 278.870346 
L 224.467494 281.109177 
L 227.370321 281.227011 
L 230.273147 281.305566 
L 233.175974 281.227011 
L 236.078801 281.109177 
L 238.981627 281.344844 
L 241.884454 281.187733 
L 244.78728 281.423399 
L 247.690107 281.0699 
L 250.592934 281.187733 
L 253.49576 281.266288 
L 256.398587 281.227011 
L 259.301413 281.187733 
L 262.20424 281.344844 
L 265.107066 281.109177 
L 268.009893 281.384122 
L 270.91272 281.148455 
L 273.815546 281.266288 
L 276.718373 281.384122 
L 279.621199 281.305566 
L 282.524026 281.187733 
L 285.426853 281.344844 
L 288.329679 281.030622 
L 291.232506 281.266288 
L 294.135332 281.305566 
L 297.038159 281.0699 
L 299.940985 281.148455 
L 302.843812 281.227011 
L 305.746639 281.305566 
L 308.649465 281.109177 
L 311.552292 280.991344 
L 314.455118 280.952066 
L 317.357945 280.912789 
L 320.260772 281.0699 
L 323.163598 281.148455 
L 326.066425 281.384122 
L 328.969251 281.148455 
L 331.872078 281.030622 
L 334.774905 281.109177 
L 337.677731 281.0699 
L 340.580558 281.0699 
L 343.483384 281.0699 
L 346.386211 281.148455 
L 349.289037 281.187733 
L 352.191864 281.148455 
L 355.094691 281.266288 
L 357.997517 280.991344 
L 360.900344 281.0699 
L 363.80317 281.227011 
L 366.705997 281.227011 
L 369.608824 281.187733 
L 372.51165 281.148455 
L 375.414477 280.794955 
L 378.317303 281.030622 
L 381.22013 281.148455 
L 384.122956 281.187733 
L 387.025783 281.109177 
L 389.92861 281.266288 
L 392.831436 281.109177 
L 395.734263 281.305566 
L 398.637089 281.187733 
L 401.539916 281.187733 
L 404.442743 281.0699 
L 407.345569 280.873511 
L 410.248396 280.794955 
L 413.151222 281.266288 
L 416.054049 281.148455 
L 418.956875 281.227011 
L 421.859702 281.148455 
L 424.762529 280.991344 
L 427.665355 280.755678 
L 430.568182 280.952066 
" clip-path="url(#p5df4eda35c)" style="fill: none; stroke: #dd8452; stroke-width: 3; stroke-linecap: round"/>
   </g>
   <g id="patch_3">
    <path d="M 67.86 294.66 
L 67.86 12.96 
" style="fill: none; stroke: #ffffff; stroke-width: 1.25; stroke-linejoin: miter; stroke-linecap: square"/>
   </g>
   <g id="patch_4">
    <path d="M 447.84 294.66 
L 447.84 12.96 
" style="fill: none; stroke: #ffffff; stroke-width: 1.25; stroke-linejoin: miter; stroke-linecap: square"/>
   </g>
   <g id="patch_5">
    <path d="M 67.86 294.66 
L 447.84 294.66 
" style="fill: none; stroke: #ffffff; stroke-width: 1.25; stroke-linejoin: miter; stroke-linecap: square"/>
   </g>
   <g id="patch_6">
    <path d="M 67.86 12.96 
L 447.84 12.96 
" style="fill: none; stroke: #ffffff; stroke-width: 1.25; stroke-linejoin: miter; stroke-linecap: square"/>
   </g>
   <g id="legend_1">
    <g id="patch_7">
     <path d="M 324.957969 54.051875 
L 440.14 54.051875 
Q 442.34 54.051875 442.34 51.851875 
L 442.34 20.66 
Q 442.34 18.46 440.14 18.46 
L 324.957969 18.46 
Q 322.757969 18.46 322.757969 20.66 
L 322.757969 51.851875 
Q 322.757969 54.051875 324.957969 54.051875 
z
" style="fill: #eaeaf2; opacity: 0.8; stroke: #cccccc; stroke-linejoin: miter"/>
    </g>
    <g id="line2d_17">
     <path d="M 327.157969 27.368281 
L 338.157969 27.368281 
L 349.157969 27.368281 
" style="fill: none; stroke: #4c72b0; stroke-width: 3; stroke-linecap: round"/>
    </g>
    <g id="text_17">
     <!-- SAC-DELAY-0 -->
     <g style="fill: #262626" transform="translate(357.957969 31.218281)scale(0.11 -0.11)">
      <defs>
       <path id="DejaVuSans-53" d="M 3425 4513 
L 3425 3897 
Q 3066 4069 2747 4153 
Q 2428 4238 2131 4238 
Q 1616 4238 1336 4038 
Q 1056 3838 1056 3469 
Q 1056 3159 1242 3001 
Q 1428 2844 1947 2747 
L 2328 2669 
Q 3034 2534 3370 2195 
Q 3706 1856 3706 1288 
Q 3706 609 3251 259 
Q 2797 -91 1919 -91 
Q 1588 -91 1214 -16 
Q 841 59 441 206 
L 441 856 
Q 825 641 1194 531 
Q 1563 422 1919 422 
Q 2459 422 2753 634 
Q 3047 847 3047 1241 
Q 3047 1584 2836 1778 
Q 2625 1972 2144 2069 
L 1759 2144 
Q 1053 2284 737 2584 
Q 422 2884 422 3419 
Q 422 4038 858 4394 
Q 1294 4750 2059 4750 
Q 2388 4750 2728 4690 
Q 3069 4631 3425 4513 
z
" transform="scale(0.015625)"/>
       <path id="DejaVuSans-41" d="M 2188 4044 
L 1331 1722 
L 3047 1722 
L 2188 4044 
z
M 1831 4666 
L 2547 4666 
L 4325 0 
L 3669 0 
L 3244 1197 
L 1141 1197 
L 716 0 
L 50 0 
L 1831 4666 
z
" transform="scale(0.015625)"/>
       <path id="DejaVuSans-43" d="M 4122 4306 
L 4122 3641 
Q 3803 3938 3442 4084 
Q 3081 4231 2675 4231 
Q 1875 4231 1450 3742 
Q 1025 3253 1025 2328 
Q 1025 1406 1450 917 
Q 1875 428 2675 428 
Q 3081 428 3442 575 
Q 3803 722 4122 1019 
L 4122 359 
Q 3791 134 3420 21 
Q 3050 -91 2638 -91 
Q 1578 -91 968 557 
Q 359 1206 359 2328 
Q 359 3453 968 4101 
Q 1578 4750 2638 4750 
Q 3056 4750 3426 4639 
Q 3797 4528 4122 4306 
z
" transform="scale(0.015625)"/>
       <path id="DejaVuSans-2d" d="M 313 2009 
L 1997 2009 
L 1997 1497 
L 313 1497 
L 313 2009 
z
" transform="scale(0.015625)"/>
       <path id="DejaVuSans-44" d="M 1259 4147 
L 1259 519 
L 2022 519 
Q 2988 519 3436 956 
Q 3884 1394 3884 2338 
Q 3884 3275 3436 3711 
Q 2988 4147 2022 4147 
L 1259 4147 
z
M 628 4666 
L 1925 4666 
Q 3281 4666 3915 4102 
Q 4550 3538 4550 2338 
Q 4550 1131 3912 565 
Q 3275 0 1925 0 
L 628 0 
L 628 4666 
z
" transform="scale(0.015625)"/>
       <path id="DejaVuSans-45" d="M 628 4666 
L 3578 4666 
L 3578 4134 
L 1259 4134 
L 1259 2753 
L 3481 2753 
L 3481 2222 
L 1259 2222 
L 1259 531 
L 3634 531 
L 3634 0 
L 628 0 
L 628 4666 
z
" transform="scale(0.015625)"/>
       <path id="DejaVuSans-4c" d="M 628 4666 
L 1259 4666 
L 1259 531 
L 3531 531 
L 3531 0 
L 628 0 
L 628 4666 
z
" transform="scale(0.015625)"/>
       <path id="DejaVuSans-59" d="M -13 4666 
L 666 4666 
L 1959 2747 
L 3244 4666 
L 3922 4666 
L 2272 2222 
L 2272 0 
L 1638 0 
L 1638 2222 
L -13 4666 
z
" transform="scale(0.015625)"/>
      </defs>
      <use xlink:href="#DejaVuSans-53"/>
      <use xlink:href="#DejaVuSans-41" x="65.351562"/>
      <use xlink:href="#DejaVuSans-43" x="132.009766"/>
      <use xlink:href="#DejaVuSans-2d" x="201.833984"/>
      <use xlink:href="#DejaVuSans-44" x="237.917969"/>
      <use xlink:href="#DejaVuSans-45" x="314.919922"/>
      <use xlink:href="#DejaVuSans-4c" x="378.103516"/>
      <use xlink:href="#DejaVuSans-41" x="436.066406"/>
      <use xlink:href="#DejaVuSans-59" x="496.724609"/>
      <use xlink:href="#DejaVuSans-2d" x="545.933594"/>
      <use xlink:href="#DejaVuSans-30" x="582.017578"/>
     </g>
    </g>
    <g id="line2d_18">
     <path d="M 327.157969 43.514219 
L 338.157969 43.514219 
L 349.157969 43.514219 
" style="fill: none; stroke: #dd8452; stroke-width: 3; stroke-linecap: round"/>
    </g>
    <g id="text_18">
     <!-- DCAC-DELAY-1 -->
     <g style="fill: #262626" transform="translate(357.957969 47.364219)scale(0.11 -0.11)">
      <use xlink:href="#DejaVuSans-44"/>
      <use xlink:href="#DejaVuSans-43" x="77.001953"/>
      <use xlink:href="#DejaVuSans-41" x="146.826172"/>
      <use xlink:href="#DejaVuSans-43" x="213.484375"/>
      <use xlink:href="#DejaVuSans-2d" x="283.308594"/>
      <use xlink:href="#DejaVuSans-44" x="319.392578"/>
      <use xlink:href="#DejaVuSans-45" x="396.394531"/>
      <use xlink:href="#DejaVuSans-4c" x="459.578125"/>
      <use xlink:href="#DejaVuSans-41" x="517.541016"/>
      <use xlink:href="#DejaVuSans-59" x="578.199219"/>
      <use xlink:href="#DejaVuSans-2d" x="627.408203"/>
      <use xlink:href="#DejaVuSans-31" x="663.492188"/>
     </g>
    </g>
   </g>
  </g>
 </g>
 <defs>
  <clipPath id="p5df4eda35c">
   <rect x="67.86" y="12.96" width="379.98" height="281.7"/>
  </clipPath>
 </defs>
</svg>
