<?xml version="1.0" encoding="utf-8" standalone="no"?>
<!DOCTYPE svg PUBLIC "-//W3C//DTD SVG 1.1//EN"
  "http://www.w3.org/Graphics/SVG/1.1/DTD/svg11.dtd">
<svg xmlns:xlink="http://www.w3.org/1999/xlink" width="460.8pt" height="345.6pt" viewBox="0 0 460.8 345.6" xmlns="http://www.w3.org/2000/svg" version="1.1">
 <metadata>
  <rdf:RDF xmlns:dc="http://purl.org/dc/elements/1.1/" xmlns:cc="http://creativecommons.org/ns#" xmlns:rdf="http://www.w3.org/1999/02/22-rdf-syntax-ns#">
   <cc:Work>
    <dc:type rdf:resource="http://purl.org/dc/dcmitype/StillImage"/>
    <dc:date>2022-09-12T15:17:15.624418</dc:date>
    <dc:format>image/svg+xml</dc:format>
    <dc:creator>
     <cc:Agent>
      <dc:title>Matplotlib v3.5.3, https://matplotlib.org/</dc:title>
     </cc:Agent>
    </dc:creator>
   </cc:Work>
  </rdf:RDF>
 </metadata>
 <defs>
  <style type="text/css">*{stroke-linejoin: round; stroke-linecap: butt}</style>
 </defs>
 <g id="figure_1">
  <g id="patch_1">
   <path d="M 0 345.6 
L 460.8 345.6 
L 460.8 0 
L 0 0 
z
" style="fill: #ffffff"/>
  </g>
  <g id="axes_1">
   <g id="patch_2">
    <path d="M 67.86 294.66 
L 447.84 294.66 
L 447.84 12.96 
L 67.86 12.96 
z
" style="fill: #eaeaf2"/>
   </g>
   <g id="matplotlib.axis_1">
    <g id="xtick_1">
     <g id="line2d_1">
      <path d="M 82.228992 294.66 
L 82.228992 12.96 
" clip-path="url(#pf9fe958f43)" style="fill: none; stroke: #ffffff; stroke-linecap: round"/>
     </g>
     <g id="text_1">
      <!-- 0.00 -->
      <g style="fill: #262626" transform="translate(69.982898 312.518281)scale(0.11 -0.11)">
       <defs>
        <path id="DejaVuSans-30" d="M 2034 4250 
Q 1547 4250 1301 3770 
Q 1056 3291 1056 2328 
Q 1056 1369 1301 889 
Q 1547 409 2034 409 
Q 2525 409 2770 889 
Q 3016 1369 3016 2328 
Q 3016 3291 2770 3770 
Q 2525 4250 2034 4250 
z
M 2034 4750 
Q 2819 4750 3233 4129 
Q 3647 3509 3647 2328 
Q 3647 1150 3233 529 
Q 2819 -91 2034 -91 
Q 1250 -91 836 529 
Q 422 1150 422 2328 
Q 422 3509 836 4129 
Q 1250 4750 2034 4750 
z
" transform="scale(0.015625)"/>
        <path id="DejaVuSans-2e" d="M 684 794 
L 1344 794 
L 1344 0 
L 684 0 
L 684 794 
z
" transform="scale(0.015625)"/>
       </defs>
       <use xlink:href="#DejaVuSans-30"/>
       <use xlink:href="#DejaVuSans-2e" x="63.623047"/>
       <use xlink:href="#DejaVuSans-30" x="95.410156"/>
       <use xlink:href="#DejaVuSans-30" x="159.033203"/>
      </g>
     </g>
    </g>
    <g id="xtick_2">
     <g id="line2d_2">
      <path d="M 140.285523 294.66 
L 140.285523 12.96 
" clip-path="url(#pf9fe958f43)" style="fill: none; stroke: #ffffff; stroke-linecap: round"/>
     </g>
     <g id="text_2">
      <!-- 0.05 -->
      <g style="fill: #262626" transform="translate(128.03943 312.518281)scale(0.11 -0.11)">
       <defs>
        <path id="DejaVuSans-35" d="M 691 4666 
L 3169 4666 
L 3169 4134 
L 1269 4134 
L 1269 2991 
Q 1406 3038 1543 3061 
Q 1681 3084 1819 3084 
Q 2600 3084 3056 2656 
Q 3513 2228 3513 1497 
Q 3513 744 3044 326 
Q 2575 -91 1722 -91 
Q 1428 -91 1123 -41 
Q 819 9 494 109 
L 494 744 
Q 775 591 1075 516 
Q 1375 441 1709 441 
Q 2250 441 2565 725 
Q 2881 1009 2881 1497 
Q 2881 1984 2565 2268 
Q 2250 2553 1709 2553 
Q 1456 2553 1204 2497 
Q 953 2441 691 2322 
L 691 4666 
z
" transform="scale(0.015625)"/>
       </defs>
       <use xlink:href="#DejaVuSans-30"/>
       <use xlink:href="#DejaVuSans-2e" x="63.623047"/>
       <use xlink:href="#DejaVuSans-30" x="95.410156"/>
       <use xlink:href="#DejaVuSans-35" x="159.033203"/>
      </g>
     </g>
    </g>
    <g id="xtick_3">
     <g id="line2d_3">
      <path d="M 198.342055 294.66 
L 198.342055 12.96 
" clip-path="url(#pf9fe958f43)" style="fill: none; stroke: #ffffff; stroke-linecap: round"/>
     </g>
     <g id="text_3">
      <!-- 0.10 -->
      <g style="fill: #262626" transform="translate(186.095961 312.518281)scale(0.11 -0.11)">
       <defs>
        <path id="DejaVuSans-31" d="M 794 531 
L 1825 531 
L 1825 4091 
L 703 3866 
L 703 4441 
L 1819 4666 
L 2450 4666 
L 2450 531 
L 3481 531 
L 3481 0 
L 794 0 
L 794 531 
z
" transform="scale(0.015625)"/>
       </defs>
       <use xlink:href="#DejaVuSans-30"/>
       <use xlink:href="#DejaVuSans-2e" x="63.623047"/>
       <use xlink:href="#DejaVuSans-31" x="95.410156"/>
       <use xlink:href="#DejaVuSans-30" x="159.033203"/>
      </g>
     </g>
    </g>
    <g id="xtick_4">
     <g id="line2d_4">
      <path d="M 256.398587 294.66 
L 256.398587 12.96 
" clip-path="url(#pf9fe958f43)" style="fill: none; stroke: #ffffff; stroke-linecap: round"/>
     </g>
     <g id="text_4">
      <!-- 0.15 -->
      <g style="fill: #262626" transform="translate(244.152493 312.518281)scale(0.11 -0.11)">
       <use xlink:href="#DejaVuSans-30"/>
       <use xlink:href="#DejaVuSans-2e" x="63.623047"/>
       <use xlink:href="#DejaVuSans-31" x="95.410156"/>
       <use xlink:href="#DejaVuSans-35" x="159.033203"/>
      </g>
     </g>
    </g>
    <g id="xtick_5">
     <g id="line2d_5">
      <path d="M 314.455118 294.66 
L 314.455118 12.96 
" clip-path="url(#pf9fe958f43)" style="fill: none; stroke: #ffffff; stroke-linecap: round"/>
     </g>
     <g id="text_5">
      <!-- 0.20 -->
      <g style="fill: #262626" transform="translate(302.209025 312.518281)scale(0.11 -0.11)">
       <defs>
        <path id="DejaVuSans-32" d="M 1228 531 
L 3431 531 
L 3431 0 
L 469 0 
L 469 531 
Q 828 903 1448 1529 
Q 2069 2156 2228 2338 
Q 2531 2678 2651 2914 
Q 2772 3150 2772 3378 
Q 2772 3750 2511 3984 
Q 2250 4219 1831 4219 
Q 1534 4219 1204 4116 
Q 875 4013 500 3803 
L 500 4441 
Q 881 4594 1212 4672 
Q 1544 4750 1819 4750 
Q 2544 4750 2975 4387 
Q 3406 4025 3406 3419 
Q 3406 3131 3298 2873 
Q 3191 2616 2906 2266 
Q 2828 2175 2409 1742 
Q 1991 1309 1228 531 
z
" transform="scale(0.015625)"/>
       </defs>
       <use xlink:href="#DejaVuSans-30"/>
       <use xlink:href="#DejaVuSans-2e" x="63.623047"/>
       <use xlink:href="#DejaVuSans-32" x="95.410156"/>
       <use xlink:href="#DejaVuSans-30" x="159.033203"/>
      </g>
     </g>
    </g>
    <g id="xtick_6">
     <g id="line2d_6">
      <path d="M 372.51165 294.66 
L 372.51165 12.96 
" clip-path="url(#pf9fe958f43)" style="fill: none; stroke: #ffffff; stroke-linecap: round"/>
     </g>
     <g id="text_6">
      <!-- 0.25 -->
      <g style="fill: #262626" transform="translate(360.265556 312.518281)scale(0.11 -0.11)">
       <use xlink:href="#DejaVuSans-30"/>
       <use xlink:href="#DejaVuSans-2e" x="63.623047"/>
       <use xlink:href="#DejaVuSans-32" x="95.410156"/>
       <use xlink:href="#DejaVuSans-35" x="159.033203"/>
      </g>
     </g>
    </g>
    <g id="xtick_7">
     <g id="line2d_7">
      <path d="M 430.568182 294.66 
L 430.568182 12.96 
" clip-path="url(#pf9fe958f43)" style="fill: none; stroke: #ffffff; stroke-linecap: round"/>
     </g>
     <g id="text_7">
      <!-- 0.30 -->
      <g style="fill: #262626" transform="translate(418.322088 312.518281)scale(0.11 -0.11)">
       <defs>
        <path id="DejaVuSans-33" d="M 2597 2516 
Q 3050 2419 3304 2112 
Q 3559 1806 3559 1356 
Q 3559 666 3084 287 
Q 2609 -91 1734 -91 
Q 1441 -91 1130 -33 
Q 819 25 488 141 
L 488 750 
Q 750 597 1062 519 
Q 1375 441 1716 441 
Q 2309 441 2620 675 
Q 2931 909 2931 1356 
Q 2931 1769 2642 2001 
Q 2353 2234 1838 2234 
L 1294 2234 
L 1294 2753 
L 1863 2753 
Q 2328 2753 2575 2939 
Q 2822 3125 2822 3475 
Q 2822 3834 2567 4026 
Q 2313 4219 1838 4219 
Q 1578 4219 1281 4162 
Q 984 4106 628 3988 
L 628 4550 
Q 988 4650 1302 4700 
Q 1616 4750 1894 4750 
Q 2613 4750 3031 4423 
Q 3450 4097 3450 3541 
Q 3450 3153 3228 2886 
Q 3006 2619 2597 2516 
z
" transform="scale(0.015625)"/>
       </defs>
       <use xlink:href="#DejaVuSans-30"/>
       <use xlink:href="#DejaVuSans-2e" x="63.623047"/>
       <use xlink:href="#DejaVuSans-33" x="95.410156"/>
       <use xlink:href="#DejaVuSans-30" x="159.033203"/>
      </g>
     </g>
    </g>
    <g id="text_8">
     <!-- Zeitschritte (in Millionen) -->
     <g style="fill: #262626" transform="translate(169.935469 329.44375)scale(0.14 -0.14)">
      <defs>
       <path id="DejaVuSans-5a" d="M 359 4666 
L 4025 4666 
L 4025 4184 
L 1075 531 
L 4097 531 
L 4097 0 
L 288 0 
L 288 481 
L 3238 4134 
L 359 4134 
L 359 4666 
z
" transform="scale(0.015625)"/>
       <path id="DejaVuSans-65" d="M 3597 1894 
L 3597 1613 
L 953 1613 
Q 991 1019 1311 708 
Q 1631 397 2203 397 
Q 2534 397 2845 478 
Q 3156 559 3463 722 
L 3463 178 
Q 3153 47 2828 -22 
Q 2503 -91 2169 -91 
Q 1331 -91 842 396 
Q 353 884 353 1716 
Q 353 2575 817 3079 
Q 1281 3584 2069 3584 
Q 2775 3584 3186 3129 
Q 3597 2675 3597 1894 
z
M 3022 2063 
Q 3016 2534 2758 2815 
Q 2500 3097 2075 3097 
Q 1594 3097 1305 2825 
Q 1016 2553 972 2059 
L 3022 2063 
z
" transform="scale(0.015625)"/>
       <path id="DejaVuSans-69" d="M 603 3500 
L 1178 3500 
L 1178 0 
L 603 0 
L 603 3500 
z
M 603 4863 
L 1178 4863 
L 1178 4134 
L 603 4134 
L 603 4863 
z
" transform="scale(0.015625)"/>
       <path id="DejaVuSans-74" d="M 1172 4494 
L 1172 3500 
L 2356 3500 
L 2356 3053 
L 1172 3053 
L 1172 1153 
Q 1172 725 1289 603 
Q 1406 481 1766 481 
L 2356 481 
L 2356 0 
L 1766 0 
Q 1100 0 847 248 
Q 594 497 594 1153 
L 594 3053 
L 172 3053 
L 172 3500 
L 594 3500 
L 594 4494 
L 1172 4494 
z
" transform="scale(0.015625)"/>
       <path id="DejaVuSans-73" d="M 2834 3397 
L 2834 2853 
Q 2591 2978 2328 3040 
Q 2066 3103 1784 3103 
Q 1356 3103 1142 2972 
Q 928 2841 928 2578 
Q 928 2378 1081 2264 
Q 1234 2150 1697 2047 
L 1894 2003 
Q 2506 1872 2764 1633 
Q 3022 1394 3022 966 
Q 3022 478 2636 193 
Q 2250 -91 1575 -91 
Q 1294 -91 989 -36 
Q 684 19 347 128 
L 347 722 
Q 666 556 975 473 
Q 1284 391 1588 391 
Q 1994 391 2212 530 
Q 2431 669 2431 922 
Q 2431 1156 2273 1281 
Q 2116 1406 1581 1522 
L 1381 1569 
Q 847 1681 609 1914 
Q 372 2147 372 2553 
Q 372 3047 722 3315 
Q 1072 3584 1716 3584 
Q 2034 3584 2315 3537 
Q 2597 3491 2834 3397 
z
" transform="scale(0.015625)"/>
       <path id="DejaVuSans-63" d="M 3122 3366 
L 3122 2828 
Q 2878 2963 2633 3030 
Q 2388 3097 2138 3097 
Q 1578 3097 1268 2742 
Q 959 2388 959 1747 
Q 959 1106 1268 751 
Q 1578 397 2138 397 
Q 2388 397 2633 464 
Q 2878 531 3122 666 
L 3122 134 
Q 2881 22 2623 -34 
Q 2366 -91 2075 -91 
Q 1284 -91 818 406 
Q 353 903 353 1747 
Q 353 2603 823 3093 
Q 1294 3584 2113 3584 
Q 2378 3584 2631 3529 
Q 2884 3475 3122 3366 
z
" transform="scale(0.015625)"/>
       <path id="DejaVuSans-68" d="M 3513 2113 
L 3513 0 
L 2938 0 
L 2938 2094 
Q 2938 2591 2744 2837 
Q 2550 3084 2163 3084 
Q 1697 3084 1428 2787 
Q 1159 2491 1159 1978 
L 1159 0 
L 581 0 
L 581 4863 
L 1159 4863 
L 1159 2956 
Q 1366 3272 1645 3428 
Q 1925 3584 2291 3584 
Q 2894 3584 3203 3211 
Q 3513 2838 3513 2113 
z
" transform="scale(0.015625)"/>
       <path id="DejaVuSans-72" d="M 2631 2963 
Q 2534 3019 2420 3045 
Q 2306 3072 2169 3072 
Q 1681 3072 1420 2755 
Q 1159 2438 1159 1844 
L 1159 0 
L 581 0 
L 581 3500 
L 1159 3500 
L 1159 2956 
Q 1341 3275 1631 3429 
Q 1922 3584 2338 3584 
Q 2397 3584 2469 3576 
Q 2541 3569 2628 3553 
L 2631 2963 
z
" transform="scale(0.015625)"/>
       <path id="DejaVuSans-20" transform="scale(0.015625)"/>
       <path id="DejaVuSans-28" d="M 1984 4856 
Q 1566 4138 1362 3434 
Q 1159 2731 1159 2009 
Q 1159 1288 1364 580 
Q 1569 -128 1984 -844 
L 1484 -844 
Q 1016 -109 783 600 
Q 550 1309 550 2009 
Q 550 2706 781 3412 
Q 1013 4119 1484 4856 
L 1984 4856 
z
" transform="scale(0.015625)"/>
       <path id="DejaVuSans-6e" d="M 3513 2113 
L 3513 0 
L 2938 0 
L 2938 2094 
Q 2938 2591 2744 2837 
Q 2550 3084 2163 3084 
Q 1697 3084 1428 2787 
Q 1159 2491 1159 1978 
L 1159 0 
L 581 0 
L 581 3500 
L 1159 3500 
L 1159 2956 
Q 1366 3272 1645 3428 
Q 1925 3584 2291 3584 
Q 2894 3584 3203 3211 
Q 3513 2838 3513 2113 
z
" transform="scale(0.015625)"/>
       <path id="DejaVuSans-4d" d="M 628 4666 
L 1569 4666 
L 2759 1491 
L 3956 4666 
L 4897 4666 
L 4897 0 
L 4281 0 
L 4281 4097 
L 3078 897 
L 2444 897 
L 1241 4097 
L 1241 0 
L 628 0 
L 628 4666 
z
" transform="scale(0.015625)"/>
       <path id="DejaVuSans-6c" d="M 603 4863 
L 1178 4863 
L 1178 0 
L 603 0 
L 603 4863 
z
" transform="scale(0.015625)"/>
       <path id="DejaVuSans-6f" d="M 1959 3097 
Q 1497 3097 1228 2736 
Q 959 2375 959 1747 
Q 959 1119 1226 758 
Q 1494 397 1959 397 
Q 2419 397 2687 759 
Q 2956 1122 2956 1747 
Q 2956 2369 2687 2733 
Q 2419 3097 1959 3097 
z
M 1959 3584 
Q 2709 3584 3137 3096 
Q 3566 2609 3566 1747 
Q 3566 888 3137 398 
Q 2709 -91 1959 -91 
Q 1206 -91 779 398 
Q 353 888 353 1747 
Q 353 2609 779 3096 
Q 1206 3584 1959 3584 
z
" transform="scale(0.015625)"/>
       <path id="DejaVuSans-29" d="M 513 4856 
L 1013 4856 
Q 1481 4119 1714 3412 
Q 1947 2706 1947 2009 
Q 1947 1309 1714 600 
Q 1481 -109 1013 -844 
L 513 -844 
Q 928 -128 1133 580 
Q 1338 1288 1338 2009 
Q 1338 2731 1133 3434 
Q 928 4138 513 4856 
z
" transform="scale(0.015625)"/>
      </defs>
      <use xlink:href="#DejaVuSans-5a"/>
      <use xlink:href="#DejaVuSans-65" x="68.505859"/>
      <use xlink:href="#DejaVuSans-69" x="130.029297"/>
      <use xlink:href="#DejaVuSans-74" x="157.8125"/>
      <use xlink:href="#DejaVuSans-73" x="197.021484"/>
      <use xlink:href="#DejaVuSans-63" x="249.121094"/>
      <use xlink:href="#DejaVuSans-68" x="304.101562"/>
      <use xlink:href="#DejaVuSans-72" x="367.480469"/>
      <use xlink:href="#DejaVuSans-69" x="408.59375"/>
      <use xlink:href="#DejaVuSans-74" x="436.376953"/>
      <use xlink:href="#DejaVuSans-74" x="475.585938"/>
      <use xlink:href="#DejaVuSans-65" x="514.794922"/>
      <use xlink:href="#DejaVuSans-20" x="576.318359"/>
      <use xlink:href="#DejaVuSans-28" x="608.105469"/>
      <use xlink:href="#DejaVuSans-69" x="647.119141"/>
      <use xlink:href="#DejaVuSans-6e" x="674.902344"/>
      <use xlink:href="#DejaVuSans-20" x="738.28125"/>
      <use xlink:href="#DejaVuSans-4d" x="770.068359"/>
      <use xlink:href="#DejaVuSans-69" x="856.347656"/>
      <use xlink:href="#DejaVuSans-6c" x="884.130859"/>
      <use xlink:href="#DejaVuSans-6c" x="911.914062"/>
      <use xlink:href="#DejaVuSans-69" x="939.697266"/>
      <use xlink:href="#DejaVuSans-6f" x="967.480469"/>
      <use xlink:href="#DejaVuSans-6e" x="1028.662109"/>
      <use xlink:href="#DejaVuSans-65" x="1092.041016"/>
      <use xlink:href="#DejaVuSans-6e" x="1153.564453"/>
      <use xlink:href="#DejaVuSans-29" x="1216.943359"/>
     </g>
    </g>
   </g>
   <g id="matplotlib.axis_2">
    <g id="ytick_1">
     <g id="line2d_8">
      <path d="M 67.86 281.855455 
L 447.84 281.855455 
" clip-path="url(#pf9fe958f43)" style="fill: none; stroke: #ffffff; stroke-linecap: round"/>
     </g>
     <g id="text_9">
      <!-- 0 -->
      <g style="fill: #262626" transform="translate(51.36125 286.034595)scale(0.11 -0.11)">
       <use xlink:href="#DejaVuSans-30"/>
      </g>
     </g>
    </g>
    <g id="ytick_2">
     <g id="line2d_9">
      <path d="M 67.86 230.534631 
L 447.84 230.534631 
" clip-path="url(#pf9fe958f43)" style="fill: none; stroke: #ffffff; stroke-linecap: round"/>
     </g>
     <g id="text_10">
      <!-- 500 -->
      <g style="fill: #262626" transform="translate(37.36375 234.713772)scale(0.11 -0.11)">
       <use xlink:href="#DejaVuSans-35"/>
       <use xlink:href="#DejaVuSans-30" x="63.623047"/>
       <use xlink:href="#DejaVuSans-30" x="127.246094"/>
      </g>
     </g>
    </g>
    <g id="ytick_3">
     <g id="line2d_10">
      <path d="M 67.86 179.213808 
L 447.84 179.213808 
" clip-path="url(#pf9fe958f43)" style="fill: none; stroke: #ffffff; stroke-linecap: round"/>
     </g>
     <g id="text_11">
      <!-- 1000 -->
      <g style="fill: #262626" transform="translate(30.365 183.392948)scale(0.11 -0.11)">
       <use xlink:href="#DejaVuSans-31"/>
       <use xlink:href="#DejaVuSans-30" x="63.623047"/>
       <use xlink:href="#DejaVuSans-30" x="127.246094"/>
       <use xlink:href="#DejaVuSans-30" x="190.869141"/>
      </g>
     </g>
    </g>
    <g id="ytick_4">
     <g id="line2d_11">
      <path d="M 67.86 127.892984 
L 447.84 127.892984 
" clip-path="url(#pf9fe958f43)" style="fill: none; stroke: #ffffff; stroke-linecap: round"/>
     </g>
     <g id="text_12">
      <!-- 1500 -->
      <g style="fill: #262626" transform="translate(30.365 132.072125)scale(0.11 -0.11)">
       <use xlink:href="#DejaVuSans-31"/>
       <use xlink:href="#DejaVuSans-35" x="63.623047"/>
       <use xlink:href="#DejaVuSans-30" x="127.246094"/>
       <use xlink:href="#DejaVuSans-30" x="190.869141"/>
      </g>
     </g>
    </g>
    <g id="ytick_5">
     <g id="line2d_12">
      <path d="M 67.86 76.572161 
L 447.84 76.572161 
" clip-path="url(#pf9fe958f43)" style="fill: none; stroke: #ffffff; stroke-linecap: round"/>
     </g>
     <g id="text_13">
      <!-- 2000 -->
      <g style="fill: #262626" transform="translate(30.365 80.751301)scale(0.11 -0.11)">
       <use xlink:href="#DejaVuSans-32"/>
       <use xlink:href="#DejaVuSans-30" x="63.623047"/>
       <use xlink:href="#DejaVuSans-30" x="127.246094"/>
       <use xlink:href="#DejaVuSans-30" x="190.869141"/>
      </g>
     </g>
    </g>
    <g id="ytick_6">
     <g id="line2d_13">
      <path d="M 67.86 25.251337 
L 447.84 25.251337 
" clip-path="url(#pf9fe958f43)" style="fill: none; stroke: #ffffff; stroke-linecap: round"/>
     </g>
     <g id="text_14">
      <!-- 2500 -->
      <g style="fill: #262626" transform="translate(30.365 29.430478)scale(0.11 -0.11)">
       <use xlink:href="#DejaVuSans-32"/>
       <use xlink:href="#DejaVuSans-35" x="63.623047"/>
       <use xlink:href="#DejaVuSans-30" x="127.246094"/>
       <use xlink:href="#DejaVuSans-30" x="190.869141"/>
      </g>
     </g>
    </g>
    <g id="text_15">
     <!-- # Δx &lt; 0 -->
     <g style="fill: #262626" transform="translate(23.453438 185.600938)rotate(-90)scale(0.14 -0.14)">
      <defs>
       <path id="DejaVuSans-23" d="M 3272 2816 
L 2363 2816 
L 2100 1772 
L 3016 1772 
L 3272 2816 
z
M 2803 4594 
L 2478 3297 
L 3391 3297 
L 3719 4594 
L 4219 4594 
L 3897 3297 
L 4872 3297 
L 4872 2816 
L 3775 2816 
L 3519 1772 
L 4513 1772 
L 4513 1294 
L 3397 1294 
L 3072 0 
L 2572 0 
L 2894 1294 
L 1978 1294 
L 1656 0 
L 1153 0 
L 1478 1294 
L 494 1294 
L 494 1772 
L 1594 1772 
L 1856 2816 
L 850 2816 
L 850 3297 
L 1978 3297 
L 2297 4594 
L 2803 4594 
z
" transform="scale(0.015625)"/>
       <path id="DejaVuSans-394" d="M 2188 4044 
L 906 525 
L 3472 525 
L 2188 4044 
z
M 50 0 
L 1831 4666 
L 2547 4666 
L 4325 0 
L 50 0 
z
" transform="scale(0.015625)"/>
       <path id="DejaVuSans-78" d="M 3513 3500 
L 2247 1797 
L 3578 0 
L 2900 0 
L 1881 1375 
L 863 0 
L 184 0 
L 1544 1831 
L 300 3500 
L 978 3500 
L 1906 2253 
L 2834 3500 
L 3513 3500 
z
" transform="scale(0.015625)"/>
       <path id="DejaVuSans-3c" d="M 4684 3150 
L 1459 2003 
L 4684 863 
L 4684 294 
L 678 1747 
L 678 2266 
L 4684 3719 
L 4684 3150 
z
" transform="scale(0.015625)"/>
      </defs>
      <use xlink:href="#DejaVuSans-23"/>
      <use xlink:href="#DejaVuSans-20" x="83.789062"/>
      <use xlink:href="#DejaVuSans-394" x="115.576172"/>
      <use xlink:href="#DejaVuSans-78" x="183.984375"/>
      <use xlink:href="#DejaVuSans-20" x="243.164062"/>
      <use xlink:href="#DejaVuSans-3c" x="274.951172"/>
      <use xlink:href="#DejaVuSans-20" x="358.740234"/>
      <use xlink:href="#DejaVuSans-30" x="390.527344"/>
     </g>
    </g>
   </g>
   <g id="PolyCollection_1">
    <defs>
     <path id="m7316175f2b" d="M 85.131818 -64.976245 
L 85.131818 -234.027038 
L 88.034645 -106.032904 
L 90.937471 -117.118202 
L 93.840298 -65.28417 
L 96.743125 -65.078887 
L 99.645951 -102.748371 
L 102.548778 -105.314412 
L 105.451604 -66.002662 
L 108.354431 -65.28417 
L 111.257257 -117.734052 
L 114.160084 -65.28417 
L 117.062911 -64.873604 
L 119.965737 -66.310587 
L 122.868564 -65.489453 
L 125.77139 -65.90002 
L 128.674217 -66.413228 
L 131.577044 -209.495684 
L 134.47987 -65.078887 
L 137.382697 -65.489453 
L 140.285523 -66.002662 
L 143.18835 -65.489453 
L 146.091176 -73.906069 
L 148.994003 -65.386812 
L 151.89683 -65.797378 
L 154.799656 -65.28417 
L 157.702483 -65.797378 
L 160.605309 -65.592095 
L 163.508136 -65.797378 
L 166.410963 -65.386812 
L 169.313789 -65.797378 
L 172.216616 -65.489453 
L 175.119442 -67.542286 
L 178.022269 -66.002662 
L 180.925095 -65.386812 
L 183.827922 -66.51587 
L 186.730749 -65.28417 
L 189.633575 -65.592095 
L 192.536402 -65.797378 
L 195.439228 -65.386812 
L 198.342055 -64.873604 
L 201.244882 -65.694737 
L 204.147708 -65.386812 
L 207.050535 -65.489453 
L 209.953361 -65.797378 
L 212.856188 -68.876628 
L 215.759015 -74.316635 
L 218.661841 -67.74757 
L 221.564668 -66.310587 
L 224.467494 -66.51587 
L 227.370321 -66.413228 
L 230.273147 -72.058519 
L 233.175974 -65.386812 
L 236.078801 -65.797378 
L 238.981627 -319.732813 
L 241.884454 -66.310587 
L 244.78728 -66.618512 
L 247.690107 -66.823795 
L 250.592934 -107.880454 
L 253.49576 -65.694737 
L 256.398587 -87.660049 
L 259.301413 -65.181529 
L 262.20424 -71.955877 
L 265.107066 -66.310587 
L 268.009893 -121.839718 
L 270.91272 -95.666098 
L 273.815546 -83.96495 
L 276.718373 -111.883478 
L 279.621199 -319.732813 
L 282.524026 -141.649555 
L 285.426853 -140.520497 
L 288.329679 -318.501113 
L 291.232506 -133.643507 
L 294.135332 -117.220844 
L 297.038159 -153.863911 
L 299.940985 -96.384589 
L 302.843812 -68.876628 
L 305.746639 -113.423103 
L 308.649465 -82.835892 
L 311.552292 -83.451742 
L 314.455118 -104.903846 
L 317.357945 -75.85626 
L 320.260772 -319.835455 
L 323.163598 -128.81935 
L 326.066425 -115.578577 
L 328.969251 -67.439645 
L 331.872078 -75.958901 
L 334.774905 -319.835455 
L 337.677731 -156.943161 
L 340.580558 -112.294044 
L 343.483384 -95.358173 
L 346.386211 -318.809038 
L 349.289037 -102.02988 
L 352.191864 -154.274478 
L 355.094691 -296.741084 
L 357.997517 -157.148444 
L 360.900344 -288.529752 
L 363.80317 -115.373294 
L 366.705997 -101.721955 
L 369.608824 -270.875389 
L 372.51165 -145.755221 
L 375.414477 -290.685227 
L 378.317303 -187.838297 
L 381.22013 -263.587832 
L 384.122956 -242.546294 
L 387.025783 -307.929024 
L 389.92861 -215.756825 
L 392.831436 -276.52068 
L 395.734263 -93.818548 
L 398.637089 -319.732813 
L 401.539916 -260.919149 
L 404.442743 -198.410386 
L 407.345569 -313.779597 
L 410.248396 -319.630171 
L 413.151222 -319.835455 
L 416.054049 -316.653563 
L 418.956875 -319.835455 
L 421.859702 -319.835455 
L 424.762529 -219.965132 
L 427.665355 -311.418839 
L 430.568182 -319.424888 
L 430.568182 -63.744545 
L 430.568182 -63.744545 
L 427.665355 -63.744545 
L 424.762529 -63.847187 
L 421.859702 -63.949829 
L 418.956875 -69.081911 
L 416.054049 -64.257754 
L 413.151222 -65.28417 
L 410.248396 -65.078887 
L 407.345569 -64.05247 
L 404.442743 -71.442669 
L 401.539916 -67.542286 
L 398.637089 -63.847187 
L 395.734263 -63.847187 
L 392.831436 -63.744545 
L 389.92861 -65.28417 
L 387.025783 -66.51587 
L 384.122956 -64.257754 
L 381.22013 -73.906069 
L 378.317303 -63.744545 
L 375.414477 -67.13172 
L 372.51165 -65.90002 
L 369.608824 -64.257754 
L 366.705997 -81.090984 
L 363.80317 -63.949829 
L 360.900344 -64.257754 
L 357.997517 -65.592095 
L 355.094691 -65.386812 
L 352.191864 -65.28417 
L 349.289037 -64.463037 
L 346.386211 -64.565679 
L 343.483384 -63.949829 
L 340.580558 -65.386812 
L 337.677731 -63.744545 
L 334.774905 -64.770962 
L 331.872078 -65.797378 
L 328.969251 -65.386812 
L 326.066425 -64.360395 
L 323.163598 -64.05247 
L 320.260772 -64.873604 
L 317.357945 -63.847187 
L 314.455118 -64.770962 
L 311.552292 -65.386812 
L 308.649465 -63.744545 
L 305.746639 -64.257754 
L 302.843812 -63.847187 
L 299.940985 -64.257754 
L 297.038159 -65.28417 
L 294.135332 -64.360395 
L 291.232506 -64.770962 
L 288.329679 -63.744545 
L 285.426853 -64.873604 
L 282.524026 -65.90002 
L 279.621199 -64.770962 
L 276.718373 -63.744545 
L 273.815546 -65.386812 
L 270.91272 -64.873604 
L 268.009893 -64.873604 
L 265.107066 -64.770962 
L 262.20424 -64.770962 
L 259.301413 -63.744545 
L 256.398587 -63.744545 
L 253.49576 -64.257754 
L 250.592934 -64.360395 
L 247.690107 -64.770962 
L 244.78728 -64.257754 
L 241.884454 -64.770962 
L 238.981627 -64.770962 
L 236.078801 -64.05247 
L 233.175974 -63.744545 
L 230.273147 -64.360395 
L 227.370321 -64.873604 
L 224.467494 -65.28417 
L 221.564668 -64.770962 
L 218.661841 -65.078887 
L 215.759015 -64.770962 
L 212.856188 -64.770962 
L 209.953361 -64.770962 
L 207.050535 -63.744545 
L 204.147708 -64.257754 
L 201.244882 -64.360395 
L 198.342055 -64.360395 
L 195.439228 -64.873604 
L 192.536402 -64.257754 
L 189.633575 -64.770962 
L 186.730749 -64.257754 
L 183.827922 -64.463037 
L 180.925095 -64.565679 
L 178.022269 -64.257754 
L 175.119442 -64.257754 
L 172.216616 -64.257754 
L 169.313789 -64.257754 
L 166.410963 -64.360395 
L 163.508136 -64.360395 
L 160.605309 -64.360395 
L 157.702483 -64.770962 
L 154.799656 -64.66832 
L 151.89683 -65.28417 
L 148.994003 -64.565679 
L 146.091176 -65.078887 
L 143.18835 -64.770962 
L 140.285523 -65.078887 
L 137.382697 -64.770962 
L 134.47987 -64.770962 
L 131.577044 -64.770962 
L 128.674217 -64.257754 
L 125.77139 -64.360395 
L 122.868564 -64.976245 
L 119.965737 -64.257754 
L 117.062911 -64.257754 
L 114.160084 -64.770962 
L 111.257257 -64.257754 
L 108.354431 -64.360395 
L 105.451604 -64.257754 
L 102.548778 -64.360395 
L 99.645951 -63.744545 
L 96.743125 -64.257754 
L 93.840298 -64.257754 
L 90.937471 -64.873604 
L 88.034645 -64.360395 
L 85.131818 -64.976245 
z
" style="stroke: #ffffff; stroke-opacity: 0.5"/>
    </defs>
    <g clip-path="url(#pf9fe958f43)">
     <use xlink:href="#m7316175f2b" x="0" y="345.6" style="fill: #4c72b0; fill-opacity: 0.5; stroke: #ffffff; stroke-opacity: 0.5"/>
    </g>
   </g>
   <g id="PolyCollection_2">
    <defs>
     <path id="m629c40617c" d="M 85.131818 -144.605635 
L 85.131818 -182.706214 
L 88.034645 -144.236125 
L 90.937471 -160.597203 
L 93.840298 -166.098796 
L 96.743125 -117.528768 
L 99.645951 -63.744545 
L 102.548778 -63.765074 
L 105.451604 -66.823795 
L 108.354431 -63.867715 
L 111.257257 -83.944422 
L 114.160084 -79.715586 
L 117.062911 -68.650816 
L 119.965737 -70.518894 
L 122.868564 -70.601007 
L 125.77139 -69.040854 
L 128.674217 -71.565839 
L 131.577044 -88.686466 
L 134.47987 -72.263802 
L 137.382697 -77.149545 
L 140.285523 -74.809315 
L 143.18835 -108.619473 
L 146.091176 -69.348779 
L 148.994003 -65.119944 
L 151.89683 -76.205241 
L 154.799656 -68.548175 
L 157.702483 -64.976245 
L 160.605309 -81.542607 
L 163.508136 -84.375516 
L 166.410963 -74.973542 
L 169.313789 -116.871862 
L 172.216616 -97.636817 
L 175.119442 -69.759346 
L 178.022269 -78.565999 
L 180.925095 -71.709537 
L 183.827922 -71.073159 
L 186.730749 -73.14652 
L 189.633575 -76.431053 
L 192.536402 -74.809315 
L 195.439228 -73.26969 
L 198.342055 -104.534336 
L 201.244882 -67.706513 
L 204.147708 -75.425165 
L 207.050535 -68.24025 
L 209.953361 -79.756642 
L 212.856188 -86.284651 
L 215.759015 -98.806932 
L 218.661841 -123.276701 
L 221.564668 -78.032263 
L 224.467494 -75.343052 
L 227.370321 -87.167369 
L 230.273147 -68.753458 
L 233.175974 -84.498686 
L 236.078801 -76.389996 
L 238.981627 -78.052791 
L 241.884454 -65.099415 
L 244.78728 -72.838595 
L 247.690107 -86.366764 
L 250.592934 -92.340508 
L 253.49576 -97.698402 
L 256.398587 -81.070455 
L 259.301413 -94.372813 
L 262.20424 -80.639361 
L 265.107066 -86.264123 
L 268.009893 -104.493279 
L 270.91272 -93.449038 
L 273.815546 -97.185194 
L 276.718373 -98.273195 
L 279.621199 -110.774948 
L 282.524026 -81.809475 
L 285.426853 -114.018424 
L 288.329679 -81.809475 
L 291.232506 -75.343052 
L 294.135332 -91.478318 
L 297.038159 -87.126313 
L 299.940985 -111.2471 
L 302.843812 -79.469246 
L 305.746639 -92.56632 
L 308.649465 -86.038311 
L 311.552292 -89.959222 
L 314.455118 -80.064567 
L 317.357945 -99.32014 
L 320.260772 -90.246619 
L 323.163598 -87.372653 
L 326.066425 -102.378861 
L 328.969251 -94.53704 
L 331.872078 -91.724658 
L 334.774905 -104.041656 
L 337.677731 -88.152729 
L 340.580558 -89.220202 
L 343.483384 -73.680257 
L 346.386211 -74.62456 
L 349.289037 -79.941397 
L 352.191864 -84.95031 
L 355.094691 -76.1026 
L 357.997517 -82.85642 
L 360.900344 -73.967653 
L 363.80317 -74.891428 
L 366.705997 -73.823955 
L 369.608824 -81.522079 
L 372.51165 -82.712722 
L 375.414477 -93.55168 
L 378.317303 -90.821412 
L 381.22013 -75.692033 
L 384.122956 -78.832868 
L 387.025783 -107.736755 
L 389.92861 -100.018103 
L 392.831436 -87.926917 
L 395.734263 -100.223387 
L 398.637089 -91.047224 
L 401.539916 -89.199674 
L 404.442743 -72.366444 
L 407.345569 -72.448557 
L 410.248396 -73.741842 
L 413.151222 -89.446014 
L 416.054049 -93.120585 
L 418.956875 -96.733571 
L 421.859702 -70.436781 
L 424.762529 -81.604192 
L 427.665355 -82.48691 
L 430.568182 -81.788947 
L 430.568182 -63.80613 
L 430.568182 -63.80613 
L 427.665355 -64.17564 
L 424.762529 -63.826659 
L 421.859702 -65.03783 
L 418.956875 -64.401452 
L 416.054049 -64.606735 
L 413.151222 -65.571567 
L 410.248396 -64.072999 
L 407.345569 -63.888244 
L 404.442743 -64.155112 
L 401.539916 -63.826659 
L 398.637089 -64.011414 
L 395.734263 -63.765074 
L 392.831436 -63.744545 
L 389.92861 -64.114055 
L 387.025783 -64.770962 
L 384.122956 -63.826659 
L 381.22013 -64.17564 
L 378.317303 -64.524622 
L 375.414477 -64.05247 
L 372.51165 -63.765074 
L 369.608824 -66.556927 
L 366.705997 -63.765074 
L 363.80317 -65.756322 
L 360.900344 -64.319339 
L 357.997517 -63.990885 
L 355.094691 -63.9293 
L 352.191864 -64.832547 
L 349.289037 -64.114055 
L 346.386211 -64.380924 
L 343.483384 -64.565679 
L 340.580558 -64.196169 
L 337.677731 -64.114055 
L 334.774905 -64.05247 
L 331.872078 -64.483565 
L 328.969251 -64.011414 
L 326.066425 -64.319339 
L 323.163598 -63.80613 
L 320.260772 -64.134584 
L 317.357945 -63.847187 
L 314.455118 -63.9293 
L 311.552292 -64.66832 
L 308.649465 -72.099576 
L 305.746639 -63.949829 
L 302.843812 -66.228473 
L 299.940985 -64.504094 
L 297.038159 -63.867715 
L 294.135332 -65.982133 
L 291.232506 -65.797378 
L 288.329679 -63.744545 
L 285.426853 -66.043718 
L 282.524026 -66.043718 
L 279.621199 -68.322363 
L 276.718373 -64.442509 
L 273.815546 -63.847187 
L 270.91272 -64.627264 
L 268.009893 -64.976245 
L 265.107066 -63.826659 
L 262.20424 -64.093527 
L 259.301413 -63.908772 
L 256.398587 -65.181529 
L 253.49576 -63.744545 
L 250.592934 -63.826659 
L 247.690107 -63.785602 
L 244.78728 -63.744545 
L 241.884454 -63.765074 
L 238.981627 -63.744545 
L 236.078801 -63.744545 
L 233.175974 -63.765074 
L 230.273147 -63.765074 
L 227.370321 -63.949829 
L 224.467494 -63.867715 
L 221.564668 -65.099415 
L 218.661841 -63.744545 
L 215.759015 -63.744545 
L 212.856188 -63.744545 
L 209.953361 -63.80613 
L 207.050535 -64.278282 
L 204.147708 -63.847187 
L 201.244882 -63.765074 
L 198.342055 -63.744545 
L 195.439228 -63.744545 
L 192.536402 -63.765074 
L 189.633575 -63.744545 
L 186.730749 -63.744545 
L 183.827922 -63.765074 
L 180.925095 -63.744545 
L 178.022269 -63.744545 
L 175.119442 -63.744545 
L 172.216616 -63.744545 
L 169.313789 -63.80613 
L 166.410963 -63.785602 
L 163.508136 -63.80613 
L 160.605309 -63.744545 
L 157.702483 -63.785602 
L 154.799656 -63.765074 
L 151.89683 -63.80613 
L 148.994003 -63.744545 
L 146.091176 -63.867715 
L 143.18835 -63.744545 
L 140.285523 -63.765074 
L 137.382697 -64.401452 
L 134.47987 -63.744545 
L 131.577044 -63.765074 
L 128.674217 -63.744545 
L 125.77139 -63.744545 
L 122.868564 -63.744545 
L 119.965737 -63.744545 
L 117.062911 -63.744545 
L 114.160084 -63.744545 
L 111.257257 -63.744545 
L 108.354431 -63.744545 
L 105.451604 -63.744545 
L 102.548778 -63.744545 
L 99.645951 -63.744545 
L 96.743125 -63.744545 
L 93.840298 -105.704451 
L 90.937471 -124.38523 
L 88.034645 -121.223868 
L 85.131818 -144.605635 
z
" style="stroke: #ffffff; stroke-opacity: 0.5"/>
    </defs>
    <g clip-path="url(#pf9fe958f43)">
     <use xlink:href="#m629c40617c" x="0" y="345.6" style="fill: #dd8452; fill-opacity: 0.5; stroke: #ffffff; stroke-opacity: 0.5"/>
    </g>
   </g>
   <g id="PolyCollection_3">
    <defs>
     <path id="mae884f67e1" d="M 85.131818 -138.241853 
L 85.131818 -171.867256 
L 88.034645 -162.670565 
L 90.937471 -157.928521 
L 93.840298 -160.350864 
L 96.743125 -77.416413 
L 99.645951 -63.744545 
L 102.548778 -63.744545 
L 105.451604 -66.002662 
L 108.354431 -64.770962 
L 111.257257 -72.28433 
L 114.160084 -88.358012 
L 117.062911 -68.773986 
L 119.965737 -65.592095 
L 122.868564 -65.243113 
L 125.77139 -63.80613 
L 128.674217 -65.858963 
L 131.577044 -79.099736 
L 134.47987 -64.442509 
L 137.382697 -65.078887 
L 140.285523 -104.246939 
L 143.18835 -72.756482 
L 146.091176 -68.219721 
L 148.994003 -65.633152 
L 151.89683 -75.527807 
L 154.799656 -63.80613 
L 157.702483 -73.228634 
L 160.605309 -63.785602 
L 163.508136 -64.79149 
L 166.410963 -65.735793 
L 169.313789 -65.715265 
L 172.216616 -65.982133 
L 175.119442 -66.413228 
L 178.022269 -63.80613 
L 180.925095 -64.114055 
L 183.827922 -74.296107 
L 186.730749 -63.867715 
L 189.633575 -67.070135 
L 192.536402 -66.926437 
L 195.439228 -64.339867 
L 198.342055 -67.213833 
L 201.244882 -71.832707 
L 204.147708 -63.867715 
L 207.050535 -68.650816 
L 209.953361 -65.858963 
L 212.856188 -78.771283 
L 215.759015 -63.867715 
L 218.661841 -66.76221 
L 221.564668 -68.815043 
L 224.467494 -67.316475 
L 227.370321 -81.173097 
L 230.273147 -70.744706 
L 233.175974 -68.650816 
L 236.078801 -66.310587 
L 238.981627 -74.296107 
L 241.884454 -69.841459 
L 244.78728 -66.680097 
L 247.690107 -69.040854 
L 250.592934 -74.62456 
L 253.49576 -70.662592 
L 256.398587 -73.413389 
L 259.301413 -69.430893 
L 262.20424 -71.524782 
L 265.107066 -72.366444 
L 268.009893 -66.63904 
L 270.91272 -69.718289 
L 273.815546 -70.518894 
L 276.718373 -70.436781 
L 279.621199 -71.750594 
L 282.524026 -69.677233 
L 285.426853 -75.774146 
L 288.329679 -70.703649 
L 291.232506 -68.938213 
L 294.135332 -67.521758 
L 297.038159 -70.026214 
L 299.940985 -70.252026 
L 302.843812 -72.859124 
L 305.746639 -68.548175 
L 308.649465 -66.125832 
L 311.552292 -66.125832 
L 314.455118 -76.697921 
L 317.357945 -72.77701 
L 320.260772 -70.087799 
L 323.163598 -74.829843 
L 326.066425 -70.067271 
L 328.969251 -75.158297 
L 331.872078 -75.219882 
L 334.774905 -72.428029 
L 337.677731 -72.571727 
L 340.580558 -73.372332 
L 343.483384 -70.149384 
L 346.386211 -70.785762 
L 349.289037 -71.175801 
L 352.191864 -73.187577 
L 355.094691 -70.477837 
L 357.997517 -66.331115 
L 360.900344 -76.061543 
L 363.80317 -73.721314 
L 366.705997 -67.911796 
L 369.608824 -68.158136 
L 372.51165 -69.205081 
L 375.414477 -71.668481 
L 378.317303 -71.914821 
L 381.22013 -69.061383 
L 384.122956 -72.715425 
L 387.025783 -73.105464 
L 389.92861 -76.677393 
L 392.831436 -75.999958 
L 395.734263 -73.187577 
L 398.637089 -74.521918 
L 401.539916 -74.13188 
L 404.442743 -76.71845 
L 407.345569 -71.257914 
L 410.248396 -78.175961 
L 413.151222 -72.510142 
L 416.054049 -71.442669 
L 418.956875 -81.563135 
L 421.859702 -74.029238 
L 424.762529 -66.864852 
L 427.665355 -70.826819 
L 430.568182 -69.225609 
L 430.568182 -65.982133 
L 430.568182 -65.982133 
L 427.665355 -63.80613 
L 424.762529 -63.765074 
L 421.859702 -63.744545 
L 418.956875 -63.9293 
L 416.054049 -66.946965 
L 413.151222 -64.627264 
L 410.248396 -64.955717 
L 407.345569 -63.765074 
L 404.442743 -66.166888 
L 401.539916 -63.888244 
L 398.637089 -63.847187 
L 395.734263 -66.228473 
L 392.831436 -64.278282 
L 389.92861 -63.80613 
L 387.025783 -63.888244 
L 384.122956 -63.908772 
L 381.22013 -63.867715 
L 378.317303 -65.058359 
L 375.414477 -65.243113 
L 372.51165 -63.826659 
L 369.608824 -63.847187 
L 366.705997 -65.243113 
L 363.80317 -63.826659 
L 360.900344 -63.826659 
L 357.997517 -63.826659 
L 355.094691 -63.80613 
L 352.191864 -64.072999 
L 349.289037 -63.970357 
L 346.386211 -64.339867 
L 343.483384 -65.366283 
L 340.580558 -64.031942 
L 337.677731 -63.990885 
L 334.774905 -64.155112 
L 331.872078 -63.970357 
L 328.969251 -64.360395 
L 326.066425 -63.888244 
L 323.163598 -63.785602 
L 320.260772 -64.278282 
L 317.357945 -64.401452 
L 314.455118 -63.970357 
L 311.552292 -63.785602 
L 308.649465 -63.970357 
L 305.746639 -63.80613 
L 302.843812 -63.970357 
L 299.940985 -63.908772 
L 297.038159 -63.867715 
L 294.135332 -63.908772 
L 291.232506 -65.119944 
L 288.329679 -63.970357 
L 285.426853 -63.826659 
L 282.524026 -64.216697 
L 279.621199 -63.949829 
L 276.718373 -64.91466 
L 273.815546 -63.744545 
L 270.91272 -64.216697 
L 268.009893 -64.093527 
L 265.107066 -63.765074 
L 262.20424 -63.765074 
L 259.301413 -63.765074 
L 256.398587 -64.688849 
L 253.49576 -63.785602 
L 250.592934 -66.3927 
L 247.690107 -63.765074 
L 244.78728 -63.867715 
L 241.884454 -63.970357 
L 238.981627 -63.765074 
L 236.078801 -63.744545 
L 233.175974 -63.847187 
L 230.273147 -63.744545 
L 227.370321 -63.908772 
L 224.467494 -63.765074 
L 221.564668 -63.765074 
L 218.661841 -63.744545 
L 215.759015 -63.744545 
L 212.856188 -63.744545 
L 209.953361 -63.744545 
L 207.050535 -63.744545 
L 204.147708 -63.744545 
L 201.244882 -63.765074 
L 198.342055 -63.765074 
L 195.439228 -63.744545 
L 192.536402 -63.744545 
L 189.633575 -63.744545 
L 186.730749 -63.744545 
L 183.827922 -63.744545 
L 180.925095 -63.744545 
L 178.022269 -63.744545 
L 175.119442 -63.744545 
L 172.216616 -63.744545 
L 169.313789 -63.744545 
L 166.410963 -63.744545 
L 163.508136 -63.744545 
L 160.605309 -63.744545 
L 157.702483 -63.744545 
L 154.799656 -63.744545 
L 151.89683 -63.765074 
L 148.994003 -63.744545 
L 146.091176 -63.744545 
L 143.18835 -63.744545 
L 140.285523 -63.744545 
L 137.382697 -63.744545 
L 134.47987 -63.744545 
L 131.577044 -63.765074 
L 128.674217 -63.744545 
L 125.77139 -63.744545 
L 122.868564 -63.744545 
L 119.965737 -63.744545 
L 117.062911 -63.744545 
L 114.160084 -63.744545 
L 111.257257 -63.744545 
L 108.354431 -63.744545 
L 105.451604 -63.744545 
L 102.548778 -63.744545 
L 99.645951 -63.744545 
L 96.743125 -63.744545 
L 93.840298 -137.338606 
L 90.937471 -137.523361 
L 88.034645 -130.215276 
L 85.131818 -138.241853 
z
" style="stroke: #ffffff; stroke-opacity: 0.5"/>
    </defs>
    <g clip-path="url(#pf9fe958f43)">
     <use xlink:href="#mae884f67e1" x="0" y="345.6" style="fill: #55a868; fill-opacity: 0.5; stroke: #ffffff; stroke-opacity: 0.5"/>
    </g>
   </g>
   <g id="PolyCollection_4">
    <defs>
     <path id="mb30fea7fa0" d="M 85.131818 -121.326509 
L 85.131818 -192.765096 
L 88.034645 -189.89113 
L 90.937471 -190.814904 
L 93.840298 -192.559812 
L 96.743125 -160.02241 
L 99.645951 -66.413228 
L 102.548778 -82.322684 
L 105.451604 -64.770962 
L 108.354431 -64.770962 
L 111.257257 -64.770962 
L 114.160084 -64.770962 
L 117.062911 -65.28417 
L 119.965737 -106.443471 
L 122.868564 -70.416253 
L 125.77139 -84.067592 
L 128.674217 -86.838916 
L 131.577044 -66.310587 
L 134.47987 -65.797378 
L 137.382697 -65.797378 
L 140.285523 -65.28417 
L 143.18835 -88.481182 
L 146.091176 -66.310587 
L 148.994003 -65.28417 
L 151.89683 -65.28417 
L 154.799656 -66.413228 
L 157.702483 -65.386812 
L 160.605309 -65.797378 
L 163.508136 -66.310587 
L 166.410963 -66.310587 
L 169.313789 -65.797378 
L 172.216616 -65.489453 
L 175.119442 -65.797378 
L 178.022269 -66.002662 
L 180.925095 -65.797378 
L 183.827922 -65.90002 
L 186.730749 -65.90002 
L 189.633575 -65.28417 
L 192.536402 -66.51587 
L 195.439228 -66.310587 
L 198.342055 -65.90002 
L 201.244882 -65.90002 
L 204.147708 -65.181529 
L 207.050535 -65.489453 
L 209.953361 -65.386812 
L 212.856188 -65.90002 
L 215.759015 -66.002662 
L 218.661841 -65.28417 
L 221.564668 -65.28417 
L 224.467494 -65.797378 
L 227.370321 -66.105303 
L 230.273147 -65.386812 
L 233.175974 -65.797378 
L 236.078801 -65.797378 
L 238.981627 -65.28417 
L 241.884454 -65.90002 
L 244.78728 -66.413228 
L 247.690107 -65.797378 
L 250.592934 -66.51587 
L 253.49576 -65.797378 
L 256.398587 -66.105303 
L 259.301413 -66.413228 
L 262.20424 -67.234361 
L 265.107066 -65.90002 
L 268.009893 -66.51587 
L 270.91272 -65.694737 
L 273.815546 -66.105303 
L 276.718373 -66.310587 
L 279.621199 -65.90002 
L 282.524026 -65.386812 
L 285.426853 -65.90002 
L 288.329679 -65.90002 
L 291.232506 -65.694737 
L 294.135332 -66.413228 
L 297.038159 -66.823795 
L 299.940985 -66.51587 
L 302.843812 -65.90002 
L 305.746639 -65.797378 
L 308.649465 -65.386812 
L 311.552292 -65.90002 
L 314.455118 -66.310587 
L 317.357945 -66.51587 
L 320.260772 -65.90002 
L 323.163598 -65.28417 
L 326.066425 -66.207945 
L 328.969251 -66.926437 
L 331.872078 -65.90002 
L 334.774905 -65.386812 
L 337.677731 -66.618512 
L 340.580558 -66.002662 
L 343.483384 -65.28417 
L 346.386211 -65.90002 
L 349.289037 -66.002662 
L 352.191864 -65.797378 
L 355.094691 -65.386812 
L 357.997517 -65.386812 
L 360.900344 -65.90002 
L 363.80317 -65.386812 
L 366.705997 -66.105303 
L 369.608824 -65.28417 
L 372.51165 -65.386812 
L 375.414477 -65.797378 
L 378.317303 -65.90002 
L 381.22013 -65.90002 
L 384.122956 -65.386812 
L 387.025783 -65.797378 
L 389.92861 -65.90002 
L 392.831436 -65.386812 
L 395.734263 -65.797378 
L 398.637089 -65.797378 
L 401.539916 -66.002662 
L 404.442743 -65.797378 
L 407.345569 -66.413228 
L 410.248396 -65.386812 
L 413.151222 -66.51587 
L 416.054049 -66.002662 
L 418.956875 -66.105303 
L 421.859702 -64.873604 
L 424.762529 -65.386812 
L 427.665355 -66.207945 
L 430.568182 -66.105303 
L 430.568182 -64.873604 
L 430.568182 -64.873604 
L 427.665355 -64.770962 
L 424.762529 -64.873604 
L 421.859702 -64.770962 
L 418.956875 -64.873604 
L 416.054049 -64.257754 
L 413.151222 -64.257754 
L 410.248396 -64.770962 
L 407.345569 -64.873604 
L 404.442743 -64.770962 
L 401.539916 -64.770962 
L 398.637089 -64.873604 
L 395.734263 -64.770962 
L 392.831436 -64.257754 
L 389.92861 -64.873604 
L 387.025783 -65.28417 
L 384.122956 -64.770962 
L 381.22013 -64.565679 
L 378.317303 -64.770962 
L 375.414477 -64.770962 
L 372.51165 -64.360395 
L 369.608824 -64.770962 
L 366.705997 -65.386812 
L 363.80317 -64.257754 
L 360.900344 -64.770962 
L 357.997517 -64.770962 
L 355.094691 -64.770962 
L 352.191864 -64.257754 
L 349.289037 -64.770962 
L 346.386211 -64.770962 
L 343.483384 -64.360395 
L 340.580558 -64.770962 
L 337.677731 -64.770962 
L 334.774905 -64.873604 
L 331.872078 -65.28417 
L 328.969251 -64.770962 
L 326.066425 -65.181529 
L 323.163598 -64.565679 
L 320.260772 -64.770962 
L 317.357945 -64.770962 
L 314.455118 -64.770962 
L 311.552292 -64.257754 
L 308.649465 -64.257754 
L 305.746639 -64.257754 
L 302.843812 -64.257754 
L 299.940985 -64.770962 
L 297.038159 -65.28417 
L 294.135332 -64.770962 
L 291.232506 -64.770962 
L 288.329679 -64.770962 
L 285.426853 -64.770962 
L 282.524026 -64.770962 
L 279.621199 -64.360395 
L 276.718373 -65.386812 
L 273.815546 -64.770962 
L 270.91272 -64.770962 
L 268.009893 -64.360395 
L 265.107066 -64.770962 
L 262.20424 -65.078887 
L 259.301413 -64.770962 
L 256.398587 -64.257754 
L 253.49576 -64.257754 
L 250.592934 -64.770962 
L 247.690107 -64.770962 
L 244.78728 -64.770962 
L 241.884454 -64.873604 
L 238.981627 -64.257754 
L 236.078801 -64.257754 
L 233.175974 -63.744545 
L 230.273147 -64.770962 
L 227.370321 -64.257754 
L 224.467494 -64.873604 
L 221.564668 -64.257754 
L 218.661841 -64.360395 
L 215.759015 -63.744545 
L 212.856188 -64.770962 
L 209.953361 -64.257754 
L 207.050535 -65.28417 
L 204.147708 -64.257754 
L 201.244882 -64.873604 
L 198.342055 -64.770962 
L 195.439228 -64.873604 
L 192.536402 -64.257754 
L 189.633575 -64.257754 
L 186.730749 -64.770962 
L 183.827922 -64.770962 
L 180.925095 -64.257754 
L 178.022269 -64.360395 
L 175.119442 -63.744545 
L 172.216616 -64.770962 
L 169.313789 -64.360395 
L 166.410963 -64.770962 
L 163.508136 -65.28417 
L 160.605309 -64.976245 
L 157.702483 -64.257754 
L 154.799656 -64.257754 
L 151.89683 -64.770962 
L 148.994003 -64.770962 
L 146.091176 -64.770962 
L 143.18835 -64.770962 
L 140.285523 -64.257754 
L 137.382697 -64.257754 
L 134.47987 -64.770962 
L 131.577044 -64.770962 
L 128.674217 -64.257754 
L 125.77139 -65.28417 
L 122.868564 -64.257754 
L 119.965737 -64.770962 
L 117.062911 -64.257754 
L 114.160084 -64.257754 
L 111.257257 -64.257754 
L 108.354431 -64.257754 
L 105.451604 -63.847187 
L 102.548778 -63.744545 
L 99.645951 -63.744545 
L 96.743125 -97.924214 
L 93.840298 -100.900822 
L 90.937471 -108.598945 
L 88.034645 -83.3491 
L 85.131818 -121.326509 
z
" style="stroke: #ffffff; stroke-opacity: 0.5"/>
    </defs>
    <g clip-path="url(#pf9fe958f43)">
     <use xlink:href="#mb30fea7fa0" x="0" y="345.6" style="fill: #c44e52; fill-opacity: 0.5; stroke: #ffffff; stroke-opacity: 0.5"/>
    </g>
   </g>
   <g id="line2d_14">
    <path d="M 85.131818 208.67196 
L 88.034645 272.412423 
L 90.937471 270.072193 
L 93.840298 280.644283 
L 96.743125 280.80851 
L 99.645951 272.925631 
L 102.548778 272.371366 
L 105.451604 280.254245 
L 108.354431 280.767453 
L 111.257257 270.195363 
L 114.160084 280.603226 
L 117.062911 281.075378 
L 119.965737 280.336358 
L 122.868564 280.274773 
L 125.77139 280.541641 
L 128.674217 280.254245 
L 131.577044 246.300388 
L 134.47987 280.726396 
L 137.382697 280.31583 
L 140.285523 280.048962 
L 143.18835 280.541641 
L 146.091176 278.447752 
L 148.994003 280.705868 
L 151.89683 280.110547 
L 154.799656 280.726396 
L 157.702483 280.397943 
L 160.605309 280.582698 
L 163.508136 280.439 
L 166.410963 280.664811 
L 169.313789 280.829038 
L 172.216616 280.68534 
L 175.119442 280.274773 
L 178.022269 280.459528 
L 180.925095 280.664811 
L 183.827922 279.966848 
L 186.730749 280.726396 
L 189.633575 280.541641 
L 192.536402 280.439 
L 195.439228 280.521113 
L 198.342055 280.972736 
L 201.244882 280.541641 
L 204.147708 280.849566 
L 207.050535 280.623755 
L 209.953361 280.418471 
L 212.856188 278.755677 
L 215.759015 278.59145 
L 218.661841 279.474168 
L 221.564668 280.295302 
L 224.467494 279.864207 
L 227.370321 280.131075 
L 230.273147 279.125187 
L 233.175974 280.93168 
L 236.078801 280.582698 
L 238.981627 229.549271 
L 241.884454 280.131075 
L 244.78728 280.336358 
L 247.690107 279.987377 
L 250.592934 271.796573 
L 253.49576 280.623755 
L 256.398587 276.374391 
L 259.301413 280.93168 
L 262.20424 278.550394 
L 265.107066 279.905263 
L 268.009893 247.224163 
L 270.91272 272.371366 
L 273.815546 273.685179 
L 276.718373 263.35943 
L 279.621199 228.009647 
L 282.524026 253.608473 
L 285.426853 264.160035 
L 288.329679 221.851148 
L 291.232506 265.822829 
L 294.135332 269.907967 
L 297.038159 251.80198 
L 299.940985 273.869934 
L 302.843812 280.172132 
L 305.746639 261.039729 
L 308.649465 273.459368 
L 311.552292 276.086994 
L 314.455118 271.755516 
L 317.357945 277.770317 
L 320.260772 227.681193 
L 323.163598 254.450135 
L 326.066425 270.154307 
L 328.969251 279.371527 
L 331.872078 273.787821 
L 334.774905 217.191217 
L 337.677731 262.353542 
L 340.580558 270.195363 
L 343.483384 274.547369 
L 346.386211 198.879947 
L 349.289037 264.160035 
L 352.191864 253.300548 
L 355.094691 210.355283 
L 357.997517 249.769676 
L 360.900344 194.651111 
L 363.80317 267.731964 
L 366.705997 251.67881 
L 369.608824 226.777947 
L 372.51165 256.954591 
L 375.414477 216.90382 
L 378.317303 250.098129 
L 381.22013 224.458246 
L 384.122956 226.716362 
L 387.025783 166.588885 
L 389.92861 208.42562 
L 392.831436 232.402709 
L 395.734263 274.547369 
L 398.637089 172.377874 
L 401.539916 196.539718 
L 404.442743 195.944396 
L 407.345569 193.542582 
L 410.248396 228.071232 
L 413.151222 172.993724 
L 416.054049 174.841273 
L 418.956875 174.225424 
L 421.859702 128.673061 
L 424.762529 226.901117 
L 427.665355 217.581255 
L 430.568182 214.666232 
" clip-path="url(#pf9fe958f43)" style="fill: none; stroke: #4c72b0; stroke-width: 3; stroke-linecap: round"/>
   </g>
   <g id="line2d_15">
    <path d="M 85.131818 187.022784 
L 88.034645 208.474888 
L 90.937471 200.333353 
L 93.840298 197.492232 
L 96.743125 256.305896 
L 99.645951 281.855455 
L 102.548778 281.851349 
L 105.451604 281.210865 
L 108.354431 281.830821 
L 111.257257 276.074677 
L 114.160084 273.65644 
L 117.062911 280.048962 
L 119.965737 279.186772 
L 122.868564 279.790305 
L 125.77139 280.722291 
L 128.674217 279.708191 
L 131.577044 274.034161 
L 134.47987 279.396161 
L 137.382697 277.129833 
L 140.285523 278.891164 
L 143.18835 268.458667 
L 146.091176 280.406154 
L 148.994003 281.551635 
L 151.89683 279.199089 
L 154.799656 280.816721 
L 157.702483 281.506473 
L 160.605309 274.547369 
L 163.508136 276.891704 
L 166.410963 279.047179 
L 169.313789 269.784797 
L 172.216616 271.513282 
L 175.119442 279.474168 
L 178.022269 275.471144 
L 180.925095 280.159815 
L 183.827922 279.79441 
L 186.730749 279.223723 
L 189.633575 276.374391 
L 192.536402 277.11341 
L 195.439228 278.394378 
L 198.342055 271.455803 
L 201.244882 280.993265 
L 204.147708 278.887058 
L 207.050535 279.075919 
L 209.953361 275.462933 
L 212.856188 274.929196 
L 215.759015 270.934383 
L 218.661841 267.300869 
L 221.564668 275.947401 
L 224.467494 277.626619 
L 227.370321 274.871717 
L 230.273147 280.2214 
L 233.175974 271.435275 
L 236.078801 276.070571 
L 238.981627 275.660005 
L 241.884454 281.219076 
L 244.78728 279.314047 
L 247.690107 269.916178 
L 250.592934 274.658222 
L 253.49576 270.536134 
L 256.398587 271.730882 
L 259.301413 272.76551 
L 262.20424 274.440622 
L 265.107066 271.455803 
L 268.009893 263.490811 
L 270.91272 268.064523 
L 273.815546 272.198928 
L 276.718373 268.245172 
L 279.621199 265.921365 
L 282.524026 273.065224 
L 285.426853 262.89549 
L 288.329679 276.719267 
L 291.232506 275.627159 
L 294.135332 267.116114 
L 297.038159 269.821748 
L 299.940985 268.392976 
L 302.843812 270.183046 
L 305.746639 271.073976 
L 308.649465 265.773561 
L 311.552292 270.963123 
L 314.455118 274.855294 
L 317.357945 272.847624 
L 320.260772 273.106281 
L 323.163598 271.833524 
L 326.066425 269.871016 
L 328.969251 270.392435 
L 331.872078 265.638074 
L 334.774905 264.722511 
L 337.677731 270.232314 
L 340.580558 272.313887 
L 343.483384 276.887599 
L 346.386211 277.269426 
L 349.289037 276.238904 
L 352.191864 274.354403 
L 355.094691 276.43187 
L 357.997517 272.309781 
L 360.900344 276.386708 
L 363.80317 275.729801 
L 366.705997 277.753894 
L 369.608824 273.65644 
L 372.51165 271.258731 
L 375.414477 275.442404 
L 378.317303 273.841195 
L 381.22013 275.717484 
L 384.122956 275.130374 
L 387.025783 270.158412 
L 389.92861 270.322639 
L 392.831436 275.331551 
L 395.734263 271.751411 
L 398.637089 272.753193 
L 401.539916 270.076299 
L 404.442743 278.74336 
L 407.345569 278.566816 
L 410.248396 278.361533 
L 413.151222 274.633588 
L 416.054049 272.20714 
L 418.956875 272.309781 
L 421.859702 278.078242 
L 424.762529 271.763728 
L 427.665355 274.321558 
L 430.568182 273.430628 
" clip-path="url(#pf9fe958f43)" style="fill: none; stroke: #dd8452; stroke-width: 3; stroke-linecap: round"/>
   </g>
   <g id="line2d_16">
    <path d="M 85.131818 191.276254 
L 88.034645 204.110565 
L 90.937471 198.021863 
L 93.840298 198.424218 
L 96.743125 278.657141 
L 99.645951 281.855455 
L 102.548778 281.855455 
L 105.451604 281.403831 
L 108.354431 281.605009 
L 111.257257 279.736931 
L 114.160084 275.869394 
L 117.062911 280.406154 
L 119.965737 281.461311 
L 122.868564 281.527001 
L 125.77139 281.839032 
L 128.674217 281.428465 
L 131.577044 277.26532 
L 134.47987 281.711756 
L 137.382697 281.510579 
L 140.285523 272.909209 
L 143.18835 279.511119 
L 146.091176 280.200871 
L 148.994003 281.387409 
L 151.89683 278.718726 
L 154.799656 281.834926 
L 157.702483 279.94632 
L 160.605309 281.847243 
L 163.508136 281.629643 
L 166.410963 281.432571 
L 169.313789 281.276556 
L 172.216616 280.952208 
L 175.119442 281.108223 
L 178.022269 281.830821 
L 180.925095 281.732285 
L 183.827922 279.572704 
L 186.730749 281.822609 
L 189.633575 281.05485 
L 192.536402 281.100012 
L 195.439228 281.711756 
L 198.342055 281.136963 
L 201.244882 280.196766 
L 204.147708 281.789764 
L 207.050535 280.824932 
L 209.953361 281.412043 
L 212.856188 278.028974 
L 215.759015 281.789764 
L 218.661841 280.878306 
L 221.564668 280.492373 
L 224.467494 280.110547 
L 227.370321 276.107522 
L 230.273147 278.632507 
L 233.175974 279.60555 
L 236.078801 281.210865 
L 238.981627 278.361533 
L 241.884454 279.412583 
L 244.78728 280.512902 
L 247.690107 280.652494 
L 250.592934 276.534512 
L 253.49576 279.860101 
L 256.398587 277.877064 
L 259.301413 279.552176 
L 262.20424 278.595556 
L 265.107066 278.899375 
L 268.009893 279.913475 
L 270.91272 279.08413 
L 273.815546 277.971495 
L 276.718373 278.353322 
L 279.621199 279.387949 
L 282.524026 278.59145 
L 285.426853 277.096988 
L 288.329679 279.006122 
L 291.232506 279.593233 
L 294.135332 279.79441 
L 297.038159 279.572704 
L 299.940985 278.911692 
L 302.843812 278.944537 
L 305.746639 279.749248 
L 308.649465 280.517007 
L 311.552292 280.311724 
L 314.455118 276.600202 
L 317.357945 278.016657 
L 320.260772 278.83779 
L 323.163598 277.848325 
L 326.066425 278.846001 
L 328.969251 278.176778 
L 331.872078 277.478815 
L 334.774905 277.955072 
L 337.677731 278.176778 
L 340.580558 277.877064 
L 343.483384 277.983812 
L 346.386211 277.536294 
L 349.289037 278.254786 
L 352.191864 278.291737 
L 355.094691 277.819585 
L 357.997517 280.463634 
L 360.900344 276.645365 
L 363.80317 278.735148 
L 366.705997 279.297625 
L 369.608824 279.338681 
L 372.51165 279.507014 
L 375.414477 277.856536 
L 378.317303 277.618407 
L 381.22013 279.092341 
L 384.122956 276.932761 
L 387.025783 278.353322 
L 389.92861 275.824231 
L 392.831436 277.326905 
L 395.734263 275.676427 
L 398.637089 274.535052 
L 401.539916 277.5404 
L 404.442743 275.306917 
L 407.345569 277.996129 
L 410.248396 274.333875 
L 413.151222 278.22194 
L 416.054049 276.263538 
L 418.956875 276.912233 
L 421.859702 278.460069 
L 424.762529 280.393837 
L 427.665355 278.850107 
L 430.568182 277.679992 
" clip-path="url(#pf9fe958f43)" style="fill: none; stroke: #55a868; stroke-width: 3; stroke-linecap: round"/>
   </g>
   <g id="line2d_17">
    <path d="M 85.131818 191.284465 
L 88.034645 215.980046 
L 90.937471 190.935484 
L 93.840298 203.252481 
L 96.743125 206.167504 
L 99.645951 280.849566 
L 102.548778 277.421335 
L 105.451604 281.095906 
L 108.354431 281.239605 
L 111.257257 281.239605 
L 114.160084 281.136963 
L 117.062911 280.911151 
L 119.965737 272.309781 
L 122.868564 279.720508 
L 125.77139 276.312806 
L 128.674217 276.415447 
L 131.577044 280.336358 
L 134.47987 280.31583 
L 137.382697 280.480056 
L 140.285523 280.623755 
L 143.18835 275.676427 
L 146.091176 280.213188 
L 148.994003 280.541641 
L 151.89683 280.521113 
L 154.799656 280.603226 
L 157.702483 280.603226 
L 160.605309 280.254245 
L 163.508136 279.864207 
L 166.410963 280.213188 
L 169.313789 280.68534 
L 172.216616 280.356887 
L 175.119442 280.829038 
L 178.022269 280.356887 
L 180.925095 280.603226 
L 183.827922 280.172132 
L 186.730749 280.500585 
L 189.633575 280.746925 
L 192.536402 280.336358 
L 195.439228 280.254245 
L 198.342055 280.06949 
L 201.244882 280.274773 
L 204.147708 280.849566 
L 207.050535 280.213188 
L 209.953361 280.890623 
L 212.856188 280.19266 
L 215.759015 280.56217 
L 218.661841 280.603226 
L 221.564668 280.93168 
L 224.467494 280.172132 
L 227.370321 280.233717 
L 230.273147 280.418471 
L 233.175974 280.80851 
L 236.078801 280.68534 
L 238.981627 280.829038 
L 241.884454 280.172132 
L 244.78728 280.19266 
L 247.690107 280.397943 
L 250.592934 280.110547 
L 253.49576 280.726396 
L 256.398587 280.356887 
L 259.301413 280.151603 
L 262.20424 279.45364 
L 265.107066 280.295302 
L 268.009893 279.884735 
L 270.91272 280.56217 
L 273.815546 279.966848 
L 276.718373 279.82315 
L 279.621199 280.439 
L 282.524026 280.480056 
L 285.426853 280.356887 
L 288.329679 280.172132 
L 291.232506 280.439 
L 294.135332 280.131075 
L 297.038159 279.69998 
L 299.940985 280.233717 
L 302.843812 280.500585 
L 305.746639 280.726396 
L 308.649465 280.500585 
L 311.552292 280.377415 
L 314.455118 280.274773 
L 317.357945 279.905263 
L 320.260772 280.254245 
L 323.163598 280.664811 
L 326.066425 279.905263 
L 328.969251 279.905263 
L 331.872078 280.110547 
L 334.774905 280.377415 
L 337.677731 280.233717 
L 340.580558 279.925792 
L 343.483384 280.644283 
L 346.386211 280.151603 
L 349.289037 280.377415 
L 352.191864 280.603226 
L 355.094691 280.582698 
L 357.997517 280.705868 
L 360.900344 280.254245 
L 363.80317 280.623755 
L 366.705997 279.864207 
L 369.608824 280.726396 
L 372.51165 280.644283 
L 375.414477 280.274773 
L 378.317303 280.377415 
L 381.22013 280.31583 
L 384.122956 280.56217 
L 387.025783 280.172132 
L 389.92861 280.233717 
L 392.831436 280.68534 
L 395.734263 280.480056 
L 398.637089 280.274773 
L 401.539916 280.213188 
L 404.442743 280.31583 
L 407.345569 280.213188 
L 410.248396 280.603226 
L 413.151222 280.480056 
L 416.054049 280.31583 
L 418.956875 280.090018 
L 421.859702 280.80851 
L 424.762529 280.377415 
L 427.665355 280.336358 
L 430.568182 280.151603 
" clip-path="url(#pf9fe958f43)" style="fill: none; stroke: #c44e52; stroke-width: 3; stroke-linecap: round"/>
   </g>
   <g id="patch_3">
    <path d="M 67.86 294.66 
L 67.86 12.96 
" style="fill: none; stroke: #ffffff; stroke-width: 1.25; stroke-linejoin: miter; stroke-linecap: square"/>
   </g>
   <g id="patch_4">
    <path d="M 447.84 294.66 
L 447.84 12.96 
" style="fill: none; stroke: #ffffff; stroke-width: 1.25; stroke-linejoin: miter; stroke-linecap: square"/>
   </g>
   <g id="patch_5">
    <path d="M 67.86 294.66 
L 447.84 294.66 
" style="fill: none; stroke: #ffffff; stroke-width: 1.25; stroke-linejoin: miter; stroke-linecap: square"/>
   </g>
   <g id="patch_6">
    <path d="M 67.86 12.96 
L 447.84 12.96 
" style="fill: none; stroke: #ffffff; stroke-width: 1.25; stroke-linejoin: miter; stroke-linecap: square"/>
   </g>
   <g id="legend_1">
    <g id="patch_7">
     <path d="M 319.722656 86.34375 
L 440.14 86.34375 
Q 442.34 86.34375 442.34 84.14375 
L 442.34 20.66 
Q 442.34 18.46 440.14 18.46 
L 319.722656 18.46 
Q 317.522656 18.46 317.522656 20.66 
L 317.522656 84.14375 
Q 317.522656 86.34375 319.722656 86.34375 
z
" style="fill: #eaeaf2; opacity: 0.8; stroke: #cccccc; stroke-linejoin: miter"/>
    </g>
    <g id="line2d_18">
     <path d="M 321.922656 27.368281 
L 332.922656 27.368281 
L 343.922656 27.368281 
" style="fill: none; stroke: #4c72b0; stroke-width: 3; stroke-linecap: round"/>
    </g>
    <g id="text_16">
     <!-- DATS-DELAY-5 -->
     <g style="fill: #262626" transform="translate(352.722656 31.218281)scale(0.11 -0.11)">
      <defs>
       <path id="DejaVuSans-44" d="M 1259 4147 
L 1259 519 
L 2022 519 
Q 2988 519 3436 956 
Q 3884 1394 3884 2338 
Q 3884 3275 3436 3711 
Q 2988 4147 2022 4147 
L 1259 4147 
z
M 628 4666 
L 1925 4666 
Q 3281 4666 3915 4102 
Q 4550 3538 4550 2338 
Q 4550 1131 3912 565 
Q 3275 0 1925 0 
L 628 0 
L 628 4666 
z
" transform="scale(0.015625)"/>
       <path id="DejaVuSans-41" d="M 2188 4044 
L 1331 1722 
L 3047 1722 
L 2188 4044 
z
M 1831 4666 
L 2547 4666 
L 4325 0 
L 3669 0 
L 3244 1197 
L 1141 1197 
L 716 0 
L 50 0 
L 1831 4666 
z
" transform="scale(0.015625)"/>
       <path id="DejaVuSans-54" d="M -19 4666 
L 3928 4666 
L 3928 4134 
L 2272 4134 
L 2272 0 
L 1638 0 
L 1638 4134 
L -19 4134 
L -19 4666 
z
" transform="scale(0.015625)"/>
       <path id="DejaVuSans-53" d="M 3425 4513 
L 3425 3897 
Q 3066 4069 2747 4153 
Q 2428 4238 2131 4238 
Q 1616 4238 1336 4038 
Q 1056 3838 1056 3469 
Q 1056 3159 1242 3001 
Q 1428 2844 1947 2747 
L 2328 2669 
Q 3034 2534 3370 2195 
Q 3706 1856 3706 1288 
Q 3706 609 3251 259 
Q 2797 -91 1919 -91 
Q 1588 -91 1214 -16 
Q 841 59 441 206 
L 441 856 
Q 825 641 1194 531 
Q 1563 422 1919 422 
Q 2459 422 2753 634 
Q 3047 847 3047 1241 
Q 3047 1584 2836 1778 
Q 2625 1972 2144 2069 
L 1759 2144 
Q 1053 2284 737 2584 
Q 422 2884 422 3419 
Q 422 4038 858 4394 
Q 1294 4750 2059 4750 
Q 2388 4750 2728 4690 
Q 3069 4631 3425 4513 
z
" transform="scale(0.015625)"/>
       <path id="DejaVuSans-2d" d="M 313 2009 
L 1997 2009 
L 1997 1497 
L 313 1497 
L 313 2009 
z
" transform="scale(0.015625)"/>
       <path id="DejaVuSans-45" d="M 628 4666 
L 3578 4666 
L 3578 4134 
L 1259 4134 
L 1259 2753 
L 3481 2753 
L 3481 2222 
L 1259 2222 
L 1259 531 
L 3634 531 
L 3634 0 
L 628 0 
L 628 4666 
z
" transform="scale(0.015625)"/>
       <path id="DejaVuSans-4c" d="M 628 4666 
L 1259 4666 
L 1259 531 
L 3531 531 
L 3531 0 
L 628 0 
L 628 4666 
z
" transform="scale(0.015625)"/>
       <path id="DejaVuSans-59" d="M -13 4666 
L 666 4666 
L 1959 2747 
L 3244 4666 
L 3922 4666 
L 2272 2222 
L 2272 0 
L 1638 0 
L 1638 2222 
L -13 4666 
z
" transform="scale(0.015625)"/>
      </defs>
      <use xlink:href="#DejaVuSans-44"/>
      <use xlink:href="#DejaVuSans-41" x="75.251953"/>
      <use xlink:href="#DejaVuSans-54" x="135.910156"/>
      <use xlink:href="#DejaVuSans-53" x="196.994141"/>
      <use xlink:href="#DejaVuSans-2d" x="260.470703"/>
      <use xlink:href="#DejaVuSans-44" x="296.554688"/>
      <use xlink:href="#DejaVuSans-45" x="373.556641"/>
      <use xlink:href="#DejaVuSans-4c" x="436.740234"/>
      <use xlink:href="#DejaVuSans-41" x="494.703125"/>
      <use xlink:href="#DejaVuSans-59" x="555.361328"/>
      <use xlink:href="#DejaVuSans-2d" x="604.570312"/>
      <use xlink:href="#DejaVuSans-35" x="640.654297"/>
     </g>
    </g>
    <g id="line2d_19">
     <path d="M 321.922656 43.514219 
L 332.922656 43.514219 
L 343.922656 43.514219 
" style="fill: none; stroke: #dd8452; stroke-width: 3; stroke-linecap: round"/>
    </g>
    <g id="text_17">
     <!-- SAC-DELAY-5 -->
     <g style="fill: #262626" transform="translate(352.722656 47.364219)scale(0.11 -0.11)">
      <defs>
       <path id="DejaVuSans-43" d="M 4122 4306 
L 4122 3641 
Q 3803 3938 3442 4084 
Q 3081 4231 2675 4231 
Q 1875 4231 1450 3742 
Q 1025 3253 1025 2328 
Q 1025 1406 1450 917 
Q 1875 428 2675 428 
Q 3081 428 3442 575 
Q 3803 722 4122 1019 
L 4122 359 
Q 3791 134 3420 21 
Q 3050 -91 2638 -91 
Q 1578 -91 968 557 
Q 359 1206 359 2328 
Q 359 3453 968 4101 
Q 1578 4750 2638 4750 
Q 3056 4750 3426 4639 
Q 3797 4528 4122 4306 
z
" transform="scale(0.015625)"/>
      </defs>
      <use xlink:href="#DejaVuSans-53"/>
      <use xlink:href="#DejaVuSans-41" x="65.351562"/>
      <use xlink:href="#DejaVuSans-43" x="132.009766"/>
      <use xlink:href="#DejaVuSans-2d" x="201.833984"/>
      <use xlink:href="#DejaVuSans-44" x="237.917969"/>
      <use xlink:href="#DejaVuSans-45" x="314.919922"/>
      <use xlink:href="#DejaVuSans-4c" x="378.103516"/>
      <use xlink:href="#DejaVuSans-41" x="436.066406"/>
      <use xlink:href="#DejaVuSans-59" x="496.724609"/>
      <use xlink:href="#DejaVuSans-2d" x="545.933594"/>
      <use xlink:href="#DejaVuSans-35" x="582.017578"/>
     </g>
    </g>
    <g id="line2d_20">
     <path d="M 321.922656 59.660156 
L 332.922656 59.660156 
L 343.922656 59.660156 
" style="fill: none; stroke: #55a868; stroke-width: 3; stroke-linecap: round"/>
    </g>
    <g id="text_18">
     <!-- SAC-IS-DELAY-5 -->
     <g style="fill: #262626" transform="translate(352.722656 63.510156)scale(0.11 -0.11)">
      <defs>
       <path id="DejaVuSans-49" d="M 628 4666 
L 1259 4666 
L 1259 0 
L 628 0 
L 628 4666 
z
" transform="scale(0.015625)"/>
      </defs>
      <use xlink:href="#DejaVuSans-53"/>
      <use xlink:href="#DejaVuSans-41" x="65.351562"/>
      <use xlink:href="#DejaVuSans-43" x="132.009766"/>
      <use xlink:href="#DejaVuSans-2d" x="201.833984"/>
      <use xlink:href="#DejaVuSans-49" x="237.917969"/>
      <use xlink:href="#DejaVuSans-53" x="267.410156"/>
      <use xlink:href="#DejaVuSans-2d" x="330.886719"/>
      <use xlink:href="#DejaVuSans-44" x="366.970703"/>
      <use xlink:href="#DejaVuSans-45" x="443.972656"/>
      <use xlink:href="#DejaVuSans-4c" x="507.15625"/>
      <use xlink:href="#DejaVuSans-41" x="565.119141"/>
      <use xlink:href="#DejaVuSans-59" x="625.777344"/>
      <use xlink:href="#DejaVuSans-2d" x="674.986328"/>
      <use xlink:href="#DejaVuSans-35" x="711.070312"/>
     </g>
    </g>
    <g id="line2d_21">
     <path d="M 321.922656 75.806094 
L 332.922656 75.806094 
L 343.922656 75.806094 
" style="fill: none; stroke: #c44e52; stroke-width: 3; stroke-linecap: round"/>
    </g>
    <g id="text_19">
     <!-- DCAC-DELAY-5 -->
     <g style="fill: #262626" transform="translate(352.722656 79.656094)scale(0.11 -0.11)">
      <use xlink:href="#DejaVuSans-44"/>
      <use xlink:href="#DejaVuSans-43" x="77.001953"/>
      <use xlink:href="#DejaVuSans-41" x="146.826172"/>
      <use xlink:href="#DejaVuSans-43" x="213.484375"/>
      <use xlink:href="#DejaVuSans-2d" x="283.308594"/>
      <use xlink:href="#DejaVuSans-44" x="319.392578"/>
      <use xlink:href="#DejaVuSans-45" x="396.394531"/>
      <use xlink:href="#DejaVuSans-4c" x="459.578125"/>
      <use xlink:href="#DejaVuSans-41" x="517.541016"/>
      <use xlink:href="#DejaVuSans-59" x="578.199219"/>
      <use xlink:href="#DejaVuSans-2d" x="627.408203"/>
      <use xlink:href="#DejaVuSans-35" x="663.492188"/>
     </g>
    </g>
   </g>
  </g>
 </g>
 <defs>
  <clipPath id="pf9fe958f43">
   <rect x="67.86" y="12.96" width="379.98" height="281.7"/>
  </clipPath>
 </defs>
</svg>
