<?xml version="1.0" encoding="utf-8" standalone="no"?>
<!DOCTYPE svg PUBLIC "-//W3C//DTD SVG 1.1//EN"
  "http://www.w3.org/Graphics/SVG/1.1/DTD/svg11.dtd">
<svg xmlns:xlink="http://www.w3.org/1999/xlink" width="460.8pt" height="345.6pt" viewBox="0 0 460.8 345.6" xmlns="http://www.w3.org/2000/svg" version="1.1">
 <metadata>
  <rdf:RDF xmlns:dc="http://purl.org/dc/elements/1.1/" xmlns:cc="http://creativecommons.org/ns#" xmlns:rdf="http://www.w3.org/1999/02/22-rdf-syntax-ns#">
   <cc:Work>
    <dc:type rdf:resource="http://purl.org/dc/dcmitype/StillImage"/>
    <dc:date>2022-09-10T15:51:09.840189</dc:date>
    <dc:format>image/svg+xml</dc:format>
    <dc:creator>
     <cc:Agent>
      <dc:title>Matplotlib v3.5.3, https://matplotlib.org/</dc:title>
     </cc:Agent>
    </dc:creator>
   </cc:Work>
  </rdf:RDF>
 </metadata>
 <defs>
  <style type="text/css">*{stroke-linejoin: round; stroke-linecap: butt}</style>
 </defs>
 <g id="figure_1">
  <g id="patch_1">
   <path d="M 0 345.6 
L 460.8 345.6 
L 460.8 0 
L 0 0 
z
" style="fill: #ffffff"/>
  </g>
  <g id="axes_1">
   <g id="patch_2">
    <path d="M 67.86 294.66 
L 447.84 294.66 
L 447.84 29.76 
L 67.86 29.76 
z
" style="fill: #eaeaf2"/>
   </g>
   <g id="matplotlib.axis_1">
    <g id="xtick_1">
     <g id="line2d_1">
      <path d="M 82.228992 294.66 
L 82.228992 29.76 
" clip-path="url(#p221c04ae5b)" style="fill: none; stroke: #ffffff; stroke-linecap: round"/>
     </g>
     <g id="text_1">
      <!-- 0.00 -->
      <g style="fill: #262626" transform="translate(69.982898 312.518281)scale(0.11 -0.11)">
       <defs>
        <path id="DejaVuSans-30" d="M 2034 4250 
Q 1547 4250 1301 3770 
Q 1056 3291 1056 2328 
Q 1056 1369 1301 889 
Q 1547 409 2034 409 
Q 2525 409 2770 889 
Q 3016 1369 3016 2328 
Q 3016 3291 2770 3770 
Q 2525 4250 2034 4250 
z
M 2034 4750 
Q 2819 4750 3233 4129 
Q 3647 3509 3647 2328 
Q 3647 1150 3233 529 
Q 2819 -91 2034 -91 
Q 1250 -91 836 529 
Q 422 1150 422 2328 
Q 422 3509 836 4129 
Q 1250 4750 2034 4750 
z
" transform="scale(0.015625)"/>
        <path id="DejaVuSans-2e" d="M 684 794 
L 1344 794 
L 1344 0 
L 684 0 
L 684 794 
z
" transform="scale(0.015625)"/>
       </defs>
       <use xlink:href="#DejaVuSans-30"/>
       <use xlink:href="#DejaVuSans-2e" x="63.623047"/>
       <use xlink:href="#DejaVuSans-30" x="95.410156"/>
       <use xlink:href="#DejaVuSans-30" x="159.033203"/>
      </g>
     </g>
    </g>
    <g id="xtick_2">
     <g id="line2d_2">
      <path d="M 140.285523 294.66 
L 140.285523 29.76 
" clip-path="url(#p221c04ae5b)" style="fill: none; stroke: #ffffff; stroke-linecap: round"/>
     </g>
     <g id="text_2">
      <!-- 0.05 -->
      <g style="fill: #262626" transform="translate(128.03943 312.518281)scale(0.11 -0.11)">
       <defs>
        <path id="DejaVuSans-35" d="M 691 4666 
L 3169 4666 
L 3169 4134 
L 1269 4134 
L 1269 2991 
Q 1406 3038 1543 3061 
Q 1681 3084 1819 3084 
Q 2600 3084 3056 2656 
Q 3513 2228 3513 1497 
Q 3513 744 3044 326 
Q 2575 -91 1722 -91 
Q 1428 -91 1123 -41 
Q 819 9 494 109 
L 494 744 
Q 775 591 1075 516 
Q 1375 441 1709 441 
Q 2250 441 2565 725 
Q 2881 1009 2881 1497 
Q 2881 1984 2565 2268 
Q 2250 2553 1709 2553 
Q 1456 2553 1204 2497 
Q 953 2441 691 2322 
L 691 4666 
z
" transform="scale(0.015625)"/>
       </defs>
       <use xlink:href="#DejaVuSans-30"/>
       <use xlink:href="#DejaVuSans-2e" x="63.623047"/>
       <use xlink:href="#DejaVuSans-30" x="95.410156"/>
       <use xlink:href="#DejaVuSans-35" x="159.033203"/>
      </g>
     </g>
    </g>
    <g id="xtick_3">
     <g id="line2d_3">
      <path d="M 198.342055 294.66 
L 198.342055 29.76 
" clip-path="url(#p221c04ae5b)" style="fill: none; stroke: #ffffff; stroke-linecap: round"/>
     </g>
     <g id="text_3">
      <!-- 0.10 -->
      <g style="fill: #262626" transform="translate(186.095961 312.518281)scale(0.11 -0.11)">
       <defs>
        <path id="DejaVuSans-31" d="M 794 531 
L 1825 531 
L 1825 4091 
L 703 3866 
L 703 4441 
L 1819 4666 
L 2450 4666 
L 2450 531 
L 3481 531 
L 3481 0 
L 794 0 
L 794 531 
z
" transform="scale(0.015625)"/>
       </defs>
       <use xlink:href="#DejaVuSans-30"/>
       <use xlink:href="#DejaVuSans-2e" x="63.623047"/>
       <use xlink:href="#DejaVuSans-31" x="95.410156"/>
       <use xlink:href="#DejaVuSans-30" x="159.033203"/>
      </g>
     </g>
    </g>
    <g id="xtick_4">
     <g id="line2d_4">
      <path d="M 256.398587 294.66 
L 256.398587 29.76 
" clip-path="url(#p221c04ae5b)" style="fill: none; stroke: #ffffff; stroke-linecap: round"/>
     </g>
     <g id="text_4">
      <!-- 0.15 -->
      <g style="fill: #262626" transform="translate(244.152493 312.518281)scale(0.11 -0.11)">
       <use xlink:href="#DejaVuSans-30"/>
       <use xlink:href="#DejaVuSans-2e" x="63.623047"/>
       <use xlink:href="#DejaVuSans-31" x="95.410156"/>
       <use xlink:href="#DejaVuSans-35" x="159.033203"/>
      </g>
     </g>
    </g>
    <g id="xtick_5">
     <g id="line2d_5">
      <path d="M 314.455118 294.66 
L 314.455118 29.76 
" clip-path="url(#p221c04ae5b)" style="fill: none; stroke: #ffffff; stroke-linecap: round"/>
     </g>
     <g id="text_5">
      <!-- 0.20 -->
      <g style="fill: #262626" transform="translate(302.209025 312.518281)scale(0.11 -0.11)">
       <defs>
        <path id="DejaVuSans-32" d="M 1228 531 
L 3431 531 
L 3431 0 
L 469 0 
L 469 531 
Q 828 903 1448 1529 
Q 2069 2156 2228 2338 
Q 2531 2678 2651 2914 
Q 2772 3150 2772 3378 
Q 2772 3750 2511 3984 
Q 2250 4219 1831 4219 
Q 1534 4219 1204 4116 
Q 875 4013 500 3803 
L 500 4441 
Q 881 4594 1212 4672 
Q 1544 4750 1819 4750 
Q 2544 4750 2975 4387 
Q 3406 4025 3406 3419 
Q 3406 3131 3298 2873 
Q 3191 2616 2906 2266 
Q 2828 2175 2409 1742 
Q 1991 1309 1228 531 
z
" transform="scale(0.015625)"/>
       </defs>
       <use xlink:href="#DejaVuSans-30"/>
       <use xlink:href="#DejaVuSans-2e" x="63.623047"/>
       <use xlink:href="#DejaVuSans-32" x="95.410156"/>
       <use xlink:href="#DejaVuSans-30" x="159.033203"/>
      </g>
     </g>
    </g>
    <g id="xtick_6">
     <g id="line2d_6">
      <path d="M 372.51165 294.66 
L 372.51165 29.76 
" clip-path="url(#p221c04ae5b)" style="fill: none; stroke: #ffffff; stroke-linecap: round"/>
     </g>
     <g id="text_6">
      <!-- 0.25 -->
      <g style="fill: #262626" transform="translate(360.265556 312.518281)scale(0.11 -0.11)">
       <use xlink:href="#DejaVuSans-30"/>
       <use xlink:href="#DejaVuSans-2e" x="63.623047"/>
       <use xlink:href="#DejaVuSans-32" x="95.410156"/>
       <use xlink:href="#DejaVuSans-35" x="159.033203"/>
      </g>
     </g>
    </g>
    <g id="xtick_7">
     <g id="line2d_7">
      <path d="M 430.568182 294.66 
L 430.568182 29.76 
" clip-path="url(#p221c04ae5b)" style="fill: none; stroke: #ffffff; stroke-linecap: round"/>
     </g>
     <g id="text_7">
      <!-- 0.30 -->
      <g style="fill: #262626" transform="translate(418.322088 312.518281)scale(0.11 -0.11)">
       <defs>
        <path id="DejaVuSans-33" d="M 2597 2516 
Q 3050 2419 3304 2112 
Q 3559 1806 3559 1356 
Q 3559 666 3084 287 
Q 2609 -91 1734 -91 
Q 1441 -91 1130 -33 
Q 819 25 488 141 
L 488 750 
Q 750 597 1062 519 
Q 1375 441 1716 441 
Q 2309 441 2620 675 
Q 2931 909 2931 1356 
Q 2931 1769 2642 2001 
Q 2353 2234 1838 2234 
L 1294 2234 
L 1294 2753 
L 1863 2753 
Q 2328 2753 2575 2939 
Q 2822 3125 2822 3475 
Q 2822 3834 2567 4026 
Q 2313 4219 1838 4219 
Q 1578 4219 1281 4162 
Q 984 4106 628 3988 
L 628 4550 
Q 988 4650 1302 4700 
Q 1616 4750 1894 4750 
Q 2613 4750 3031 4423 
Q 3450 4097 3450 3541 
Q 3450 3153 3228 2886 
Q 3006 2619 2597 2516 
z
" transform="scale(0.015625)"/>
       </defs>
       <use xlink:href="#DejaVuSans-30"/>
       <use xlink:href="#DejaVuSans-2e" x="63.623047"/>
       <use xlink:href="#DejaVuSans-33" x="95.410156"/>
       <use xlink:href="#DejaVuSans-30" x="159.033203"/>
      </g>
     </g>
    </g>
    <g id="text_8">
     <!-- Timesteps (in Million) -->
     <g style="fill: #262626" transform="translate(183.104219 329.44375)scale(0.14 -0.14)">
      <defs>
       <path id="DejaVuSans-54" d="M -19 4666 
L 3928 4666 
L 3928 4134 
L 2272 4134 
L 2272 0 
L 1638 0 
L 1638 4134 
L -19 4134 
L -19 4666 
z
" transform="scale(0.015625)"/>
       <path id="DejaVuSans-69" d="M 603 3500 
L 1178 3500 
L 1178 0 
L 603 0 
L 603 3500 
z
M 603 4863 
L 1178 4863 
L 1178 4134 
L 603 4134 
L 603 4863 
z
" transform="scale(0.015625)"/>
       <path id="DejaVuSans-6d" d="M 3328 2828 
Q 3544 3216 3844 3400 
Q 4144 3584 4550 3584 
Q 5097 3584 5394 3201 
Q 5691 2819 5691 2113 
L 5691 0 
L 5113 0 
L 5113 2094 
Q 5113 2597 4934 2840 
Q 4756 3084 4391 3084 
Q 3944 3084 3684 2787 
Q 3425 2491 3425 1978 
L 3425 0 
L 2847 0 
L 2847 2094 
Q 2847 2600 2669 2842 
Q 2491 3084 2119 3084 
Q 1678 3084 1418 2786 
Q 1159 2488 1159 1978 
L 1159 0 
L 581 0 
L 581 3500 
L 1159 3500 
L 1159 2956 
Q 1356 3278 1631 3431 
Q 1906 3584 2284 3584 
Q 2666 3584 2933 3390 
Q 3200 3197 3328 2828 
z
" transform="scale(0.015625)"/>
       <path id="DejaVuSans-65" d="M 3597 1894 
L 3597 1613 
L 953 1613 
Q 991 1019 1311 708 
Q 1631 397 2203 397 
Q 2534 397 2845 478 
Q 3156 559 3463 722 
L 3463 178 
Q 3153 47 2828 -22 
Q 2503 -91 2169 -91 
Q 1331 -91 842 396 
Q 353 884 353 1716 
Q 353 2575 817 3079 
Q 1281 3584 2069 3584 
Q 2775 3584 3186 3129 
Q 3597 2675 3597 1894 
z
M 3022 2063 
Q 3016 2534 2758 2815 
Q 2500 3097 2075 3097 
Q 1594 3097 1305 2825 
Q 1016 2553 972 2059 
L 3022 2063 
z
" transform="scale(0.015625)"/>
       <path id="DejaVuSans-73" d="M 2834 3397 
L 2834 2853 
Q 2591 2978 2328 3040 
Q 2066 3103 1784 3103 
Q 1356 3103 1142 2972 
Q 928 2841 928 2578 
Q 928 2378 1081 2264 
Q 1234 2150 1697 2047 
L 1894 2003 
Q 2506 1872 2764 1633 
Q 3022 1394 3022 966 
Q 3022 478 2636 193 
Q 2250 -91 1575 -91 
Q 1294 -91 989 -36 
Q 684 19 347 128 
L 347 722 
Q 666 556 975 473 
Q 1284 391 1588 391 
Q 1994 391 2212 530 
Q 2431 669 2431 922 
Q 2431 1156 2273 1281 
Q 2116 1406 1581 1522 
L 1381 1569 
Q 847 1681 609 1914 
Q 372 2147 372 2553 
Q 372 3047 722 3315 
Q 1072 3584 1716 3584 
Q 2034 3584 2315 3537 
Q 2597 3491 2834 3397 
z
" transform="scale(0.015625)"/>
       <path id="DejaVuSans-74" d="M 1172 4494 
L 1172 3500 
L 2356 3500 
L 2356 3053 
L 1172 3053 
L 1172 1153 
Q 1172 725 1289 603 
Q 1406 481 1766 481 
L 2356 481 
L 2356 0 
L 1766 0 
Q 1100 0 847 248 
Q 594 497 594 1153 
L 594 3053 
L 172 3053 
L 172 3500 
L 594 3500 
L 594 4494 
L 1172 4494 
z
" transform="scale(0.015625)"/>
       <path id="DejaVuSans-70" d="M 1159 525 
L 1159 -1331 
L 581 -1331 
L 581 3500 
L 1159 3500 
L 1159 2969 
Q 1341 3281 1617 3432 
Q 1894 3584 2278 3584 
Q 2916 3584 3314 3078 
Q 3713 2572 3713 1747 
Q 3713 922 3314 415 
Q 2916 -91 2278 -91 
Q 1894 -91 1617 61 
Q 1341 213 1159 525 
z
M 3116 1747 
Q 3116 2381 2855 2742 
Q 2594 3103 2138 3103 
Q 1681 3103 1420 2742 
Q 1159 2381 1159 1747 
Q 1159 1113 1420 752 
Q 1681 391 2138 391 
Q 2594 391 2855 752 
Q 3116 1113 3116 1747 
z
" transform="scale(0.015625)"/>
       <path id="DejaVuSans-20" transform="scale(0.015625)"/>
       <path id="DejaVuSans-28" d="M 1984 4856 
Q 1566 4138 1362 3434 
Q 1159 2731 1159 2009 
Q 1159 1288 1364 580 
Q 1569 -128 1984 -844 
L 1484 -844 
Q 1016 -109 783 600 
Q 550 1309 550 2009 
Q 550 2706 781 3412 
Q 1013 4119 1484 4856 
L 1984 4856 
z
" transform="scale(0.015625)"/>
       <path id="DejaVuSans-6e" d="M 3513 2113 
L 3513 0 
L 2938 0 
L 2938 2094 
Q 2938 2591 2744 2837 
Q 2550 3084 2163 3084 
Q 1697 3084 1428 2787 
Q 1159 2491 1159 1978 
L 1159 0 
L 581 0 
L 581 3500 
L 1159 3500 
L 1159 2956 
Q 1366 3272 1645 3428 
Q 1925 3584 2291 3584 
Q 2894 3584 3203 3211 
Q 3513 2838 3513 2113 
z
" transform="scale(0.015625)"/>
       <path id="DejaVuSans-4d" d="M 628 4666 
L 1569 4666 
L 2759 1491 
L 3956 4666 
L 4897 4666 
L 4897 0 
L 4281 0 
L 4281 4097 
L 3078 897 
L 2444 897 
L 1241 4097 
L 1241 0 
L 628 0 
L 628 4666 
z
" transform="scale(0.015625)"/>
       <path id="DejaVuSans-6c" d="M 603 4863 
L 1178 4863 
L 1178 0 
L 603 0 
L 603 4863 
z
" transform="scale(0.015625)"/>
       <path id="DejaVuSans-6f" d="M 1959 3097 
Q 1497 3097 1228 2736 
Q 959 2375 959 1747 
Q 959 1119 1226 758 
Q 1494 397 1959 397 
Q 2419 397 2687 759 
Q 2956 1122 2956 1747 
Q 2956 2369 2687 2733 
Q 2419 3097 1959 3097 
z
M 1959 3584 
Q 2709 3584 3137 3096 
Q 3566 2609 3566 1747 
Q 3566 888 3137 398 
Q 2709 -91 1959 -91 
Q 1206 -91 779 398 
Q 353 888 353 1747 
Q 353 2609 779 3096 
Q 1206 3584 1959 3584 
z
" transform="scale(0.015625)"/>
       <path id="DejaVuSans-29" d="M 513 4856 
L 1013 4856 
Q 1481 4119 1714 3412 
Q 1947 2706 1947 2009 
Q 1947 1309 1714 600 
Q 1481 -109 1013 -844 
L 513 -844 
Q 928 -128 1133 580 
Q 1338 1288 1338 2009 
Q 1338 2731 1133 3434 
Q 928 4138 513 4856 
z
" transform="scale(0.015625)"/>
      </defs>
      <use xlink:href="#DejaVuSans-54"/>
      <use xlink:href="#DejaVuSans-69" x="57.958984"/>
      <use xlink:href="#DejaVuSans-6d" x="85.742188"/>
      <use xlink:href="#DejaVuSans-65" x="183.154297"/>
      <use xlink:href="#DejaVuSans-73" x="244.677734"/>
      <use xlink:href="#DejaVuSans-74" x="296.777344"/>
      <use xlink:href="#DejaVuSans-65" x="335.986328"/>
      <use xlink:href="#DejaVuSans-70" x="397.509766"/>
      <use xlink:href="#DejaVuSans-73" x="460.986328"/>
      <use xlink:href="#DejaVuSans-20" x="513.085938"/>
      <use xlink:href="#DejaVuSans-28" x="544.873047"/>
      <use xlink:href="#DejaVuSans-69" x="583.886719"/>
      <use xlink:href="#DejaVuSans-6e" x="611.669922"/>
      <use xlink:href="#DejaVuSans-20" x="675.048828"/>
      <use xlink:href="#DejaVuSans-4d" x="706.835938"/>
      <use xlink:href="#DejaVuSans-69" x="793.115234"/>
      <use xlink:href="#DejaVuSans-6c" x="820.898438"/>
      <use xlink:href="#DejaVuSans-6c" x="848.681641"/>
      <use xlink:href="#DejaVuSans-69" x="876.464844"/>
      <use xlink:href="#DejaVuSans-6f" x="904.248047"/>
      <use xlink:href="#DejaVuSans-6e" x="965.429688"/>
      <use xlink:href="#DejaVuSans-29" x="1028.808594"/>
     </g>
    </g>
   </g>
   <g id="matplotlib.axis_2">
    <g id="ytick_1">
     <g id="line2d_8">
      <path d="M 67.86 282.619091 
L 447.84 282.619091 
" clip-path="url(#p221c04ae5b)" style="fill: none; stroke: #ffffff; stroke-linecap: round"/>
     </g>
     <g id="text_9">
      <!-- 0 -->
      <g style="fill: #262626" transform="translate(51.36125 286.798232)scale(0.11 -0.11)">
       <use xlink:href="#DejaVuSans-30"/>
      </g>
     </g>
    </g>
    <g id="ytick_2">
     <g id="line2d_9">
      <path d="M 67.86 234.067038 
L 447.84 234.067038 
" clip-path="url(#p221c04ae5b)" style="fill: none; stroke: #ffffff; stroke-linecap: round"/>
     </g>
     <g id="text_10">
      <!-- 500 -->
      <g style="fill: #262626" transform="translate(37.36375 238.246179)scale(0.11 -0.11)">
       <use xlink:href="#DejaVuSans-35"/>
       <use xlink:href="#DejaVuSans-30" x="63.623047"/>
       <use xlink:href="#DejaVuSans-30" x="127.246094"/>
      </g>
     </g>
    </g>
    <g id="ytick_3">
     <g id="line2d_10">
      <path d="M 67.86 185.514985 
L 447.84 185.514985 
" clip-path="url(#p221c04ae5b)" style="fill: none; stroke: #ffffff; stroke-linecap: round"/>
     </g>
     <g id="text_11">
      <!-- 1000 -->
      <g style="fill: #262626" transform="translate(30.365 189.694126)scale(0.11 -0.11)">
       <use xlink:href="#DejaVuSans-31"/>
       <use xlink:href="#DejaVuSans-30" x="63.623047"/>
       <use xlink:href="#DejaVuSans-30" x="127.246094"/>
       <use xlink:href="#DejaVuSans-30" x="190.869141"/>
      </g>
     </g>
    </g>
    <g id="ytick_4">
     <g id="line2d_11">
      <path d="M 67.86 136.962933 
L 447.84 136.962933 
" clip-path="url(#p221c04ae5b)" style="fill: none; stroke: #ffffff; stroke-linecap: round"/>
     </g>
     <g id="text_12">
      <!-- 1500 -->
      <g style="fill: #262626" transform="translate(30.365 141.142073)scale(0.11 -0.11)">
       <use xlink:href="#DejaVuSans-31"/>
       <use xlink:href="#DejaVuSans-35" x="63.623047"/>
       <use xlink:href="#DejaVuSans-30" x="127.246094"/>
       <use xlink:href="#DejaVuSans-30" x="190.869141"/>
      </g>
     </g>
    </g>
    <g id="ytick_5">
     <g id="line2d_12">
      <path d="M 67.86 88.41088 
L 447.84 88.41088 
" clip-path="url(#p221c04ae5b)" style="fill: none; stroke: #ffffff; stroke-linecap: round"/>
     </g>
     <g id="text_13">
      <!-- 2000 -->
      <g style="fill: #262626" transform="translate(30.365 92.59002)scale(0.11 -0.11)">
       <use xlink:href="#DejaVuSans-32"/>
       <use xlink:href="#DejaVuSans-30" x="63.623047"/>
       <use xlink:href="#DejaVuSans-30" x="127.246094"/>
       <use xlink:href="#DejaVuSans-30" x="190.869141"/>
      </g>
     </g>
    </g>
    <g id="ytick_6">
     <g id="line2d_13">
      <path d="M 67.86 39.858827 
L 447.84 39.858827 
" clip-path="url(#p221c04ae5b)" style="fill: none; stroke: #ffffff; stroke-linecap: round"/>
     </g>
     <g id="text_14">
      <!-- 2500 -->
      <g style="fill: #262626" transform="translate(30.365 44.037968)scale(0.11 -0.11)">
       <use xlink:href="#DejaVuSans-32"/>
       <use xlink:href="#DejaVuSans-35" x="63.623047"/>
       <use xlink:href="#DejaVuSans-30" x="127.246094"/>
       <use xlink:href="#DejaVuSans-30" x="190.869141"/>
      </g>
     </g>
    </g>
    <g id="text_15">
     <!-- # Lows (Δx &lt; 0) -->
     <g style="fill: #262626" transform="translate(23.453438 219.12)rotate(-90)scale(0.14 -0.14)">
      <defs>
       <path id="DejaVuSans-23" d="M 3272 2816 
L 2363 2816 
L 2100 1772 
L 3016 1772 
L 3272 2816 
z
M 2803 4594 
L 2478 3297 
L 3391 3297 
L 3719 4594 
L 4219 4594 
L 3897 3297 
L 4872 3297 
L 4872 2816 
L 3775 2816 
L 3519 1772 
L 4513 1772 
L 4513 1294 
L 3397 1294 
L 3072 0 
L 2572 0 
L 2894 1294 
L 1978 1294 
L 1656 0 
L 1153 0 
L 1478 1294 
L 494 1294 
L 494 1772 
L 1594 1772 
L 1856 2816 
L 850 2816 
L 850 3297 
L 1978 3297 
L 2297 4594 
L 2803 4594 
z
" transform="scale(0.015625)"/>
       <path id="DejaVuSans-4c" d="M 628 4666 
L 1259 4666 
L 1259 531 
L 3531 531 
L 3531 0 
L 628 0 
L 628 4666 
z
" transform="scale(0.015625)"/>
       <path id="DejaVuSans-77" d="M 269 3500 
L 844 3500 
L 1563 769 
L 2278 3500 
L 2956 3500 
L 3675 769 
L 4391 3500 
L 4966 3500 
L 4050 0 
L 3372 0 
L 2619 2869 
L 1863 0 
L 1184 0 
L 269 3500 
z
" transform="scale(0.015625)"/>
       <path id="DejaVuSans-394" d="M 2188 4044 
L 906 525 
L 3472 525 
L 2188 4044 
z
M 50 0 
L 1831 4666 
L 2547 4666 
L 4325 0 
L 50 0 
z
" transform="scale(0.015625)"/>
       <path id="DejaVuSans-78" d="M 3513 3500 
L 2247 1797 
L 3578 0 
L 2900 0 
L 1881 1375 
L 863 0 
L 184 0 
L 1544 1831 
L 300 3500 
L 978 3500 
L 1906 2253 
L 2834 3500 
L 3513 3500 
z
" transform="scale(0.015625)"/>
       <path id="DejaVuSans-3c" d="M 4684 3150 
L 1459 2003 
L 4684 863 
L 4684 294 
L 678 1747 
L 678 2266 
L 4684 3719 
L 4684 3150 
z
" transform="scale(0.015625)"/>
      </defs>
      <use xlink:href="#DejaVuSans-23"/>
      <use xlink:href="#DejaVuSans-20" x="83.789062"/>
      <use xlink:href="#DejaVuSans-4c" x="115.576172"/>
      <use xlink:href="#DejaVuSans-6f" x="169.539062"/>
      <use xlink:href="#DejaVuSans-77" x="230.720703"/>
      <use xlink:href="#DejaVuSans-73" x="312.507812"/>
      <use xlink:href="#DejaVuSans-20" x="364.607422"/>
      <use xlink:href="#DejaVuSans-28" x="396.394531"/>
      <use xlink:href="#DejaVuSans-394" x="435.408203"/>
      <use xlink:href="#DejaVuSans-78" x="503.816406"/>
      <use xlink:href="#DejaVuSans-20" x="562.996094"/>
      <use xlink:href="#DejaVuSans-3c" x="594.783203"/>
      <use xlink:href="#DejaVuSans-20" x="678.572266"/>
      <use xlink:href="#DejaVuSans-30" x="710.359375"/>
      <use xlink:href="#DejaVuSans-29" x="773.982422"/>
     </g>
    </g>
   </g>
   <g id="PolyCollection_1">
    <defs>
     <path id="mb1f275d0a1" d="M 85.131818 -62.980909 
L 85.131818 -302.82805 
L 88.034645 -294.477097 
L 90.937471 -303.701987 
L 93.840298 -124.447808 
L 96.743125 -303.799091 
L 99.645951 -303.604883 
L 102.548778 -167.173614 
L 105.451604 -288.747955 
L 108.354431 -227.281056 
L 111.257257 -121.631789 
L 114.160084 -271.075007 
L 117.062911 -273.696818 
L 119.965737 -165.037324 
L 122.868564 -142.023651 
L 125.77139 -71.817383 
L 128.674217 -165.522845 
L 131.577044 -130.662471 
L 134.47987 -271.269216 
L 137.382697 -122.408622 
L 140.285523 -105.706716 
L 143.18835 -152.899311 
L 146.091176 -92.403453 
L 148.994003 -92.209245 
L 151.89683 -248.838167 
L 154.799656 -104.15305 
L 157.702483 -94.733952 
L 160.605309 -69.583988 
L 163.508136 -139.013424 
L 166.410963 -80.168336 
L 169.313789 -78.517566 
L 172.216616 -113.280836 
L 175.119442 -139.984465 
L 178.022269 -128.52618 
L 180.925095 -97.161554 
L 183.827922 -145.325191 
L 186.730749 -107.260381 
L 189.633575 -303.701987 
L 192.536402 -108.814047 
L 195.439228 -222.037434 
L 198.342055 -97.161554 
L 201.244882 -71.914487 
L 204.147708 -249.032375 
L 207.050535 -69.38978 
L 209.953361 -91.335308 
L 212.856188 -81.139377 
L 215.759015 -109.008255 
L 218.661841 -91.62662 
L 221.564668 -79.974128 
L 224.467494 -247.090293 
L 227.370321 -284.960894 
L 230.273147 -151.345645 
L 233.175974 -116.679479 
L 236.078801 -77.740733 
L 238.981627 -164.746012 
L 241.884454 -72.594216 
L 244.78728 -100.948614 
L 247.690107 -301.759905 
L 250.592934 -250.294729 
L 253.49576 -84.149604 
L 256.398587 -240.681422 
L 259.301413 -303.022258 
L 262.20424 -303.701987 
L 265.107066 -209.219692 
L 268.009893 -301.371488 
L 270.91272 -87.256935 
L 273.815546 -297.098908 
L 276.718373 -302.82805 
L 279.621199 -302.245425 
L 282.524026 -226.698431 
L 285.426853 -303.701987 
L 288.329679 -292.340806 
L 291.232506 -303.701987 
L 294.135332 -284.37827 
L 297.038159 -279.523065 
L 299.940985 -303.701987 
L 302.843812 -281.659355 
L 305.746639 -287.582705 
L 308.649465 -298.652573 
L 311.552292 -301.759905 
L 314.455118 -228.931826 
L 317.357945 -303.701987 
L 320.260772 -303.701987 
L 323.163598 -131.633512 
L 326.066425 -270.298174 
L 328.969251 -294.962617 
L 331.872078 -303.799091 
L 334.774905 -246.896085 
L 337.677731 -301.662801 
L 340.580558 -303.701987 
L 343.483384 -303.410674 
L 346.386211 -300.012031 
L 349.289037 -303.799091 
L 352.191864 -303.701987 
L 355.094691 -303.604883 
L 357.997517 -297.681532 
L 360.900344 -303.799091 
L 363.80317 -296.516283 
L 366.705997 -303.799091 
L 369.608824 -300.497551 
L 372.51165 -303.022258 
L 375.414477 -302.051217 
L 378.317303 -302.536738 
L 381.22013 -303.701987 
L 384.122956 -303.799091 
L 387.025783 -299.623614 
L 389.92861 -296.419179 
L 392.831436 -303.701987 
L 395.734263 -303.799091 
L 398.637089 -300.788864 
L 401.539916 -303.604883 
L 404.442743 -303.410674 
L 407.345569 -303.799091 
L 410.248396 -303.799091 
L 413.151222 -303.799091 
L 416.054049 -300.983072 
L 418.956875 -303.604883 
L 421.859702 -303.799091 
L 424.762529 -301.857009 
L 427.665355 -83.081459 
L 430.568182 -303.507779 
L 430.568182 -62.980909 
L 430.568182 -62.980909 
L 427.665355 -62.980909 
L 424.762529 -62.980909 
L 421.859702 -62.980909 
L 418.956875 -62.980909 
L 416.054049 -62.980909 
L 413.151222 -62.980909 
L 410.248396 -65.020095 
L 407.345569 -63.563534 
L 404.442743 -62.980909 
L 401.539916 -62.980909 
L 398.637089 -62.980909 
L 395.734263 -278.843336 
L 392.831436 -62.980909 
L 389.92861 -62.980909 
L 387.025783 -62.980909 
L 384.122956 -63.078013 
L 381.22013 -62.980909 
L 378.317303 -62.980909 
L 375.414477 -63.175117 
L 372.51165 -63.757742 
L 369.608824 -63.563534 
L 366.705997 -62.980909 
L 363.80317 -67.544802 
L 360.900344 -63.272221 
L 357.997517 -63.272221 
L 355.094691 -62.980909 
L 352.191864 -62.980909 
L 349.289037 -63.078013 
L 346.386211 -81.333585 
L 343.483384 -125.127537 
L 340.580558 -78.323358 
L 337.677731 -64.534575 
L 334.774905 -65.408512 
L 331.872078 -71.52607 
L 328.969251 -68.515843 
L 326.066425 -132.119032 
L 323.163598 -63.660638 
L 320.260772 -72.69132 
L 317.357945 -82.207522 
L 314.455118 -79.974128 
L 311.552292 -67.73901 
L 308.649465 -77.352317 
L 305.746639 -87.548248 
L 302.843812 -69.292676 
L 299.940985 -91.917933 
L 297.038159 -70.652133 
L 294.135332 -71.817383 
L 291.232506 -74.82761 
L 288.329679 -112.018482 
L 285.426853 -127.846452 
L 282.524026 -64.922991 
L 279.621199 -67.73901 
L 276.718373 -66.962177 
L 273.815546 -79.294399 
L 270.91272 -74.633402 
L 268.009893 -72.205799 
L 265.107066 -68.807155 
L 262.20424 -77.837837 
L 259.301413 -66.185345 
L 256.398587 -62.980909 
L 253.49576 -64.049054 
L 250.592934 -62.980909 
L 247.690107 -67.156386 
L 244.78728 -68.127427 
L 241.884454 -66.767969 
L 238.981627 -70.263717 
L 236.078801 -66.962177 
L 233.175974 -67.156386 
L 230.273147 -67.933218 
L 227.370321 -64.922991 
L 224.467494 -62.980909 
L 221.564668 -62.980909 
L 218.661841 -64.922991 
L 215.759015 -65.796928 
L 212.856188 -66.962177 
L 209.953361 -64.631679 
L 207.050535 -67.447698 
L 204.147708 -66.865073 
L 201.244882 -66.865073 
L 198.342055 -65.214304 
L 195.439228 -66.865073 
L 192.536402 -66.865073 
L 189.633575 -66.767969 
L 186.730749 -67.544802 
L 183.827922 -64.922991 
L 180.925095 -65.020095 
L 178.022269 -65.796928 
L 175.119442 -66.962177 
L 172.216616 -68.807155 
L 169.313789 -66.865073 
L 166.410963 -62.980909 
L 163.508136 -66.865073 
L 160.605309 -66.865073 
L 157.702483 -63.175117 
L 154.799656 -62.980909 
L 151.89683 -66.865073 
L 148.994003 -64.922991 
L 146.091176 -66.865073 
L 143.18835 -67.156386 
L 140.285523 -66.767969 
L 137.382697 -65.214304 
L 134.47987 -69.001364 
L 131.577044 -62.980909 
L 128.674217 -62.980909 
L 125.77139 -67.836114 
L 122.868564 -67.350594 
L 119.965737 -63.854846 
L 117.062911 -63.272221 
L 114.160084 -67.059282 
L 111.257257 -65.020095 
L 108.354431 -68.030323 
L 105.451604 -64.922991 
L 102.548778 -75.31313 
L 99.645951 -68.127427 
L 96.743125 -62.980909 
L 93.840298 -64.922991 
L 90.937471 -69.778196 
L 88.034645 -67.836114 
L 85.131818 -62.980909 
z
" style="stroke: #ffffff; stroke-opacity: 0.5"/>
    </defs>
    <g clip-path="url(#p221c04ae5b)">
     <use xlink:href="#mb1f275d0a1" x="0" y="345.6" style="fill: #4c72b0; fill-opacity: 0.5; stroke: #ffffff; stroke-opacity: 0.5"/>
    </g>
   </g>
   <g id="PolyCollection_2">
    <defs>
     <path id="mce396e1ce4" d="M 85.131818 -121.262793 
L 85.131818 -153.34599 
L 88.034645 -159.03629 
L 90.937471 -160.007331 
L 93.840298 -159.152815 
L 96.743125 -79.410924 
L 99.645951 -62.980909 
L 102.548778 -63.388746 
L 105.451604 -62.980909 
L 108.354431 -62.980909 
L 111.257257 -62.980909 
L 114.160084 -64.787045 
L 117.062911 -76.692009 
L 119.965737 -76.944479 
L 122.868564 -65.932874 
L 125.77139 -129.555484 
L 128.674217 -111.125125 
L 131.577044 -113.397361 
L 134.47987 -102.230389 
L 137.382697 -79.352661 
L 140.285523 -113.14489 
L 143.18835 -83.935975 
L 146.091176 -89.781642 
L 148.994003 -94.442639 
L 151.89683 -81.91621 
L 154.799656 -129.089384 
L 157.702483 -70.788079 
L 160.605309 -73.837148 
L 163.508136 -73.506994 
L 166.410963 -107.066173 
L 169.313789 -82.926092 
L 172.216616 -76.672588 
L 175.119442 -70.788079 
L 178.022269 -98.676378 
L 180.925095 -93.413336 
L 183.827922 -76.556063 
L 186.730749 -89.937009 
L 189.633575 -86.907361 
L 192.536402 -81.857947 
L 195.439228 -91.976195 
L 198.342055 -98.501591 
L 201.244882 -84.790491 
L 204.147708 -77.313475 
L 207.050535 -87.082148 
L 209.953361 -92.500557 
L 212.856188 -94.811635 
L 215.759015 -81.45011 
L 218.661841 -109.998717 
L 221.564668 -106.697177 
L 224.467494 -106.211657 
L 227.370321 -86.616048 
L 230.273147 -105.551349 
L 233.175974 -96.695455 
L 236.078801 -96.209934 
L 238.981627 -102.754751 
L 241.884454 -117.009633 
L 244.78728 -91.179941 
L 247.690107 -127.438614 
L 250.592934 -80.071232 
L 253.49576 -136.022617 
L 256.398587 -153.035257 
L 259.301413 -99.686261 
L 262.20424 -108.483893 
L 265.107066 -138.760953 
L 268.009893 -154.608343 
L 270.91272 -106.405865 
L 273.815546 -147.461481 
L 276.718373 -114.077089 
L 279.621199 -151.306804 
L 282.524026 -137.362654 
L 285.426853 -96.928504 
L 288.329679 -152.588578 
L 291.232506 -106.891386 
L 294.135332 -96.34588 
L 297.038159 -96.209934 
L 299.940985 -142.683959 
L 302.843812 -152.64684 
L 305.746639 -153.423673 
L 308.649465 -105.260037 
L 311.552292 -158.531349 
L 314.455118 -151.636957 
L 317.357945 -120.854956 
L 320.260772 -155.152126 
L 323.163598 -136.139142 
L 326.066425 -117.281525 
L 328.969251 -106.736019 
L 331.872078 -97.142133 
L 334.774905 -148.102368 
L 337.677731 -142.217859 
L 340.580558 -129.574905 
L 343.483384 -107.143856 
L 346.386211 -128.565022 
L 349.289037 -102.385755 
L 352.191864 -98.656957 
L 355.094691 -103.667529 
L 357.997517 -115.786122 
L 360.900344 -117.456312 
L 363.80317 -107.105015 
L 366.705997 -117.941833 
L 369.608824 -122.913563 
L 372.51165 -103.007221 
L 375.414477 -123.729238 
L 378.317303 -127.788189 
L 381.22013 -117.067896 
L 384.122956 -121.398739 
L 387.025783 -128.467918 
L 389.92861 -109.338409 
L 392.831436 -118.776928 
L 395.734263 -108.386789 
L 398.637089 -103.628688 
L 401.539916 -125.166378 
L 404.442743 -103.512163 
L 407.345569 -141.674076 
L 410.248396 -111.766012 
L 413.151222 -103.764633 
L 416.054049 -97.724758 
L 418.956875 -103.667529 
L 421.859702 -106.483548 
L 424.762529 -121.748314 
L 427.665355 -135.595359 
L 430.568182 -127.244406 
L 430.568182 -63.194538 
L 430.568182 -63.194538 
L 427.665355 -64.631679 
L 424.762529 -63.039172 
L 421.859702 -66.32129 
L 418.956875 -65.913453 
L 416.054049 -67.48654 
L 413.151222 -64.6511 
L 410.248396 -63.835425 
L 407.345569 -65.816349 
L 404.442743 -63.427588 
L 401.539916 -71.234758 
L 398.637089 -63.23338 
L 395.734263 -63.00033 
L 392.831436 -67.525381 
L 389.92861 -63.058592 
L 387.025783 -63.019751 
L 384.122956 -63.427588 
L 381.22013 -63.291642 
L 378.317303 -63.46643 
L 375.414477 -63.582955 
L 372.51165 -63.039172 
L 369.608824 -75.682126 
L 366.705997 -63.097434 
L 363.80317 -63.039172 
L 360.900344 -63.854846 
L 357.997517 -74.808189 
L 355.094691 -63.00033 
L 352.191864 -63.213959 
L 349.289037 -62.980909 
L 346.386211 -65.486195 
L 343.483384 -63.408167 
L 340.580558 -63.23338 
L 337.677731 -63.388746 
L 334.774905 -63.23338 
L 331.872078 -64.320946 
L 328.969251 -63.544113 
L 326.066425 -65.544457 
L 323.163598 -70.904604 
L 320.260772 -69.079047 
L 317.357945 -82.265784 
L 314.455118 -65.311408 
L 311.552292 -75.351972 
L 308.649465 -67.933218 
L 305.746639 -70.885183 
L 302.843812 -72.147537 
L 299.940985 -69.253834 
L 297.038159 -64.670521 
L 294.135332 -81.955051 
L 291.232506 -62.980909 
L 288.329679 -69.583988 
L 285.426853 -64.748204 
L 282.524026 -80.459648 
L 279.621199 -73.701202 
L 276.718373 -76.458959 
L 273.815546 -81.275323 
L 270.91272 -63.757742 
L 268.009893 -83.683504 
L 265.107066 -64.90357 
L 262.20424 -63.46643 
L 259.301413 -75.468497 
L 256.398587 -74.905293 
L 253.49576 -63.932529 
L 250.592934 -64.010213 
L 247.690107 -68.010902 
L 244.78728 -65.719245 
L 241.884454 -63.582955 
L 238.981627 -71.662016 
L 236.078801 -70.3414 
L 233.175974 -68.884839 
L 230.273147 -69.331518 
L 227.370321 -63.621796 
L 224.467494 -63.893688 
L 221.564668 -63.369326 
L 218.661841 -66.146503 
L 215.759015 -63.039172 
L 212.856188 -71.04055 
L 209.953361 -63.136276 
L 207.050535 -63.252801 
L 204.147708 -63.00033 
L 201.244882 -63.00033 
L 198.342055 -63.311063 
L 195.439228 -67.175806 
L 192.536402 -63.039172 
L 189.633575 -63.388746 
L 186.730749 -63.039172 
L 183.827922 -65.000674 
L 180.925095 -63.408167 
L 178.022269 -63.00033 
L 175.119442 -62.980909 
L 172.216616 -62.980909 
L 169.313789 -62.980909 
L 166.410963 -63.408167 
L 163.508136 -63.097434 
L 160.605309 -63.408167 
L 157.702483 -62.980909 
L 154.799656 -63.019751 
L 151.89683 -63.408167 
L 148.994003 -62.980909 
L 146.091176 -63.388746 
L 143.18835 -62.980909 
L 140.285523 -62.980909 
L 137.382697 -62.980909 
L 134.47987 -62.980909 
L 131.577044 -62.980909 
L 128.674217 -63.039172 
L 125.77139 -62.980909 
L 122.868564 -62.980909 
L 119.965737 -62.980909 
L 117.062911 -62.980909 
L 114.160084 -62.980909 
L 111.257257 -62.980909 
L 108.354431 -62.980909 
L 105.451604 -62.980909 
L 102.548778 -62.980909 
L 99.645951 -62.980909 
L 96.743125 -63.330484 
L 93.840298 -128.429076 
L 90.937471 -113.766356 
L 88.034645 -125.787845 
L 85.131818 -121.262793 
z
" style="stroke: #ffffff; stroke-opacity: 0.5"/>
    </defs>
    <g clip-path="url(#p221c04ae5b)">
     <use xlink:href="#mce396e1ce4" x="0" y="345.6" style="fill: #dd8452; fill-opacity: 0.5; stroke: #ffffff; stroke-opacity: 0.5"/>
    </g>
   </g>
   <g id="PolyCollection_3">
    <defs>
     <path id="m816d4aa1b0" d="M 85.131818 -134.391268 
L 85.131818 -164.046862 
L 88.034645 -168.00871 
L 90.937471 -174.592368 
L 93.840298 -153.035257 
L 96.743125 -130.138109 
L 99.645951 -69.758776 
L 102.548778 -65.874611 
L 105.451604 -69.681092 
L 108.354431 -98.48217 
L 111.257257 -63.582955 
L 114.160084 -64.243262 
L 117.062911 -71.254179 
L 119.965737 -197.644883 
L 122.868564 -63.738321 
L 125.77139 -72.613636 
L 128.674217 -73.604098 
L 131.577044 -68.90426 
L 134.47987 -80.226598 
L 137.382697 -67.544802 
L 140.285523 -260.995601 
L 143.18835 -71.662016 
L 146.091176 -69.409201 
L 148.994003 -64.379208 
L 151.89683 -65.777507 
L 154.799656 -130.002163 
L 157.702483 -65.13662 
L 160.605309 -65.60272 
L 163.508136 -101.997339 
L 166.410963 -157.016525 
L 169.313789 -94.248431 
L 172.216616 -67.816694 
L 175.119442 -87.936664 
L 178.022269 -99.938732 
L 180.925095 -83.780609 
L 183.827922 -65.971716 
L 186.730749 -88.577551 
L 189.633575 -66.748548 
L 192.536402 -217.823116 
L 195.439228 -92.403453 
L 198.342055 -104.055946 
L 201.244882 -82.731884 
L 204.147708 -67.098123 
L 207.050535 -77.352317 
L 209.953361 -102.424597 
L 212.856188 -70.613292 
L 215.759015 -70.399663 
L 218.661841 -74.982977 
L 221.564668 -130.740154 
L 224.467494 -105.551349 
L 227.370321 -66.709707 
L 230.273147 -148.85978 
L 233.175974 -118.427353 
L 236.078801 -100.152361 
L 238.981627 -78.265095 
L 241.884454 -125.20522 
L 244.78728 -66.709707 
L 247.690107 -71.778541 
L 250.592934 -70.613292 
L 253.49576 -70.690975 
L 256.398587 -136.294509 
L 259.301413 -75.410235 
L 262.20424 -80.012969 
L 265.107066 -111.940799 
L 268.009893 -105.551349 
L 270.91272 -98.579274 
L 273.815546 -101.162243 
L 276.718373 -89.276701 
L 279.621199 -98.346224 
L 282.524026 -69.214993 
L 285.426853 -81.411268 
L 288.329679 -65.583299 
L 291.232506 -88.713497 
L 294.135332 -77.410579 
L 297.038159 -87.684194 
L 299.940985 -78.303937 
L 302.843812 -78.770037 
L 305.746639 -91.005154 
L 308.649465 -98.462749 
L 311.552292 -99.589157 
L 314.455118 -83.159142 
L 317.357945 -74.12846 
L 320.260772 -77.002742 
L 323.163598 -93.607544 
L 326.066425 -79.061349 
L 328.969251 -96.326459 
L 331.872078 -90.616738 
L 334.774905 -73.487573 
L 337.677731 -74.070198 
L 340.580558 -75.701547 
L 343.483384 -92.073299 
L 346.386211 -79.100191 
L 349.289037 -74.808189 
L 352.191864 -72.963211 
L 355.094691 -128.856334 
L 357.997517 -66.962177 
L 360.900344 -73.487573 
L 363.80317 -69.681092 
L 366.705997 -77.332896 
L 369.608824 -75.138343 
L 372.51165 -71.467808 
L 375.414477 -66.651444 
L 378.317303 -70.943446 
L 381.22013 -69.040205 
L 384.122956 -76.089963 
L 387.025783 -74.419773 
L 389.92861 -101.861393 
L 392.831436 -96.404142 
L 395.734263 -89.218438 
L 398.637089 -96.734296 
L 401.539916 -71.52607 
L 404.442743 -75.254868 
L 407.345569 -71.623174 
L 410.248396 -73.215682 
L 413.151222 -68.088585 
L 416.054049 -67.292331 
L 418.956875 -65.971716 
L 421.859702 -68.477001 
L 424.762529 -67.292331 
L 427.665355 -67.583644 
L 430.568182 -67.001019 
L 430.568182 -63.582955 
L 430.568182 -63.582955 
L 427.665355 -63.582955 
L 424.762529 -63.349905 
L 421.859702 -63.447009 
L 418.956875 -63.23338 
L 416.054049 -63.058592 
L 413.151222 -63.796584 
L 410.248396 -63.680059 
L 407.345569 -63.291642 
L 404.442743 -63.505271 
L 401.539916 -63.505271 
L 398.637089 -63.602375 
L 395.734263 -63.078013 
L 392.831436 -66.845652 
L 389.92861 -63.835425 
L 387.025783 -65.991136 
L 384.122956 -65.117199 
L 381.22013 -63.544113 
L 378.317303 -63.427588 
L 375.414477 -63.447009 
L 372.51165 -62.980909 
L 369.608824 -64.398629 
L 366.705997 -63.175117 
L 363.80317 -63.330484 
L 360.900344 -63.621796 
L 357.997517 -62.980909 
L 355.094691 -63.46643 
L 352.191864 -63.699479 
L 349.289037 -63.019751 
L 346.386211 -63.058592 
L 343.483384 -63.058592 
L 340.580558 -63.699479 
L 337.677731 -64.456891 
L 334.774905 -63.23338 
L 331.872078 -64.612258 
L 328.969251 -63.019751 
L 326.066425 -65.117199 
L 323.163598 -63.136276 
L 320.260772 -63.175117 
L 317.357945 -63.272221 
L 314.455118 -63.252801 
L 311.552292 -67.175806 
L 308.649465 -63.874267 
L 305.746639 -66.632023 
L 302.843812 -63.23338 
L 299.940985 -64.961833 
L 297.038159 -63.252801 
L 294.135332 -66.418394 
L 291.232506 -63.136276 
L 288.329679 -63.078013 
L 285.426853 -66.437815 
L 282.524026 -64.534575 
L 279.621199 -63.388746 
L 276.718373 -63.097434 
L 273.815546 -63.039172 
L 270.91272 -63.097434 
L 268.009893 -63.388746 
L 265.107066 -63.019751 
L 262.20424 -65.758087 
L 259.301413 -63.019751 
L 256.398587 -63.00033 
L 253.49576 -62.980909 
L 250.592934 -62.980909 
L 247.690107 -63.447009 
L 244.78728 -63.46643 
L 241.884454 -63.194538 
L 238.981627 -63.058592 
L 236.078801 -63.00033 
L 233.175974 -63.058592 
L 230.273147 -63.252801 
L 227.370321 -63.116855 
L 224.467494 -63.427588 
L 221.564668 -62.980909 
L 218.661841 -67.661327 
L 215.759015 -62.980909 
L 212.856188 -62.980909 
L 209.953361 -62.980909 
L 207.050535 -63.194538 
L 204.147708 -62.980909 
L 201.244882 -62.980909 
L 198.342055 -63.136276 
L 195.439228 -62.980909 
L 192.536402 -63.680059 
L 189.633575 -62.980909 
L 186.730749 -63.00033 
L 183.827922 -63.48585 
L 180.925095 -62.980909 
L 178.022269 -62.980909 
L 175.119442 -63.175117 
L 172.216616 -63.078013 
L 169.313789 -63.582955 
L 166.410963 -62.980909 
L 163.508136 -62.980909 
L 160.605309 -62.980909 
L 157.702483 -63.00033 
L 154.799656 -62.980909 
L 151.89683 -62.980909 
L 148.994003 -62.980909 
L 146.091176 -63.00033 
L 143.18835 -63.019751 
L 140.285523 -63.116855 
L 137.382697 -62.980909 
L 134.47987 -63.019751 
L 131.577044 -62.980909 
L 128.674217 -62.980909 
L 125.77139 -62.980909 
L 122.868564 -62.980909 
L 119.965737 -62.980909 
L 117.062911 -62.980909 
L 114.160084 -62.980909 
L 111.257257 -62.980909 
L 108.354431 -62.980909 
L 105.451604 -62.980909 
L 102.548778 -62.980909 
L 99.645951 -62.980909 
L 96.743125 -91.976195 
L 93.840298 -118.194304 
L 90.937471 -122.311518 
L 88.034645 -130.701312 
L 85.131818 -134.391268 
z
" style="stroke: #ffffff; stroke-opacity: 0.5"/>
    </defs>
    <g clip-path="url(#p221c04ae5b)">
     <use xlink:href="#m816d4aa1b0" x="0" y="345.6" style="fill: #55a868; fill-opacity: 0.5; stroke: #ffffff; stroke-opacity: 0.5"/>
    </g>
   </g>
   <g id="PolyCollection_4">
    <defs>
     <path id="m14c9d01ebe" d="M 85.131818 -127.069619 
L 85.131818 -235.243592 
L 88.034645 -138.91632 
L 90.937471 -142.897588 
L 93.840298 -162.221305 
L 96.743125 -151.539853 
L 99.645951 -111.532962 
L 102.548778 -97.161554 
L 105.451604 -97.161554 
L 108.354431 -111.338754 
L 111.257257 -89.781642 
L 114.160084 -66.865073 
L 117.062911 -66.865073 
L 119.965737 -100.560198 
L 122.868564 -117.456312 
L 125.77139 -69.875301 
L 128.674217 -68.030323 
L 131.577044 -86.771415 
L 134.47987 -97.841283 
L 137.382697 -68.807155 
L 140.285523 -92.500557 
L 143.18835 -68.807155 
L 146.091176 -68.710051 
L 148.994003 -68.807155 
L 151.89683 -69.38978 
L 154.799656 -68.807155 
L 157.702483 -68.807155 
L 160.605309 -66.962177 
L 163.508136 -109.882192 
L 166.410963 -70.652133 
L 169.313789 -68.807155 
L 172.216616 -68.807155 
L 175.119442 -68.807155 
L 178.022269 -98.521012 
L 180.925095 -68.90426 
L 183.827922 -67.641906 
L 186.730749 -76.575484 
L 189.633575 -69.098468 
L 192.536402 -69.583988 
L 195.439228 -70.943446 
L 198.342055 -72.400007 
L 201.244882 -67.059282 
L 204.147708 -68.710051 
L 207.050535 -69.38978 
L 209.953361 -72.497111 
L 212.856188 -70.652133 
L 215.759015 -67.350594 
L 218.661841 -68.807155 
L 221.564668 -70.749238 
L 224.467494 -68.710051 
L 227.370321 -68.612947 
L 230.273147 -69.681092 
L 233.175974 -70.360821 
L 236.078801 -66.865073 
L 238.981627 -70.166613 
L 241.884454 -66.865073 
L 244.78728 -70.749238 
L 247.690107 -70.555029 
L 250.592934 -71.623174 
L 253.49576 -72.497111 
L 256.398587 -69.875301 
L 259.301413 -69.292676 
L 262.20424 -69.972405 
L 265.107066 -68.90426 
L 268.009893 -68.807155 
L 270.91272 -68.807155 
L 273.815546 -68.90426 
L 276.718373 -68.807155 
L 279.621199 -69.098468 
L 282.524026 -72.69132 
L 285.426853 -69.486884 
L 288.329679 -72.885528 
L 291.232506 -68.807155 
L 294.135332 -69.098468 
L 297.038159 -66.865073 
L 299.940985 -70.555029 
L 302.843812 -70.263717 
L 305.746639 -72.594216 
L 308.649465 -69.195572 
L 311.552292 -72.302903 
L 314.455118 -70.555029 
L 317.357945 -68.807155 
L 320.260772 -70.846342 
L 323.163598 -70.457925 
L 326.066425 -69.001364 
L 328.969251 -72.108695 
L 331.872078 -70.943446 
L 334.774905 -70.846342 
L 337.677731 -72.885528 
L 340.580558 -69.972405 
L 343.483384 -68.807155 
L 346.386211 -68.807155 
L 349.289037 -70.943446 
L 352.191864 -68.807155 
L 355.094691 -70.943446 
L 357.997517 -70.749238 
L 360.900344 -68.807155 
L 363.80317 -70.846342 
L 366.705997 -72.788424 
L 369.608824 -68.90426 
L 372.51165 -70.846342 
L 375.414477 -70.749238 
L 378.317303 -69.098468 
L 381.22013 -70.846342 
L 384.122956 -66.962177 
L 387.025783 -71.04055 
L 389.92861 -72.497111 
L 392.831436 -70.652133 
L 395.734263 -68.807155 
L 398.637089 -71.428966 
L 401.539916 -72.788424 
L 404.442743 -69.098468 
L 407.345569 -70.652133 
L 410.248396 -70.652133 
L 413.151222 -70.943446 
L 416.054049 -68.807155 
L 418.956875 -68.515843 
L 421.859702 -72.69132 
L 424.762529 -69.098468 
L 427.665355 -70.652133 
L 430.568182 -70.749238 
L 430.568182 -66.185345 
L 430.568182 -66.185345 
L 427.665355 -64.825887 
L 424.762529 -66.767969 
L 421.859702 -64.922991 
L 418.956875 -66.670865 
L 416.054049 -66.767969 
L 413.151222 -66.865073 
L 410.248396 -66.185345 
L 407.345569 -68.807155 
L 404.442743 -64.922991 
L 401.539916 -66.767969 
L 398.637089 -64.922991 
L 395.734263 -66.865073 
L 392.831436 -64.922991 
L 389.92861 -64.922991 
L 387.025783 -66.865073 
L 384.122956 -64.922991 
L 381.22013 -66.865073 
L 378.317303 -67.156386 
L 375.414477 -66.865073 
L 372.51165 -64.922991 
L 369.608824 -65.117199 
L 366.705997 -66.865073 
L 363.80317 -66.476657 
L 360.900344 -66.08824 
L 357.997517 -64.922991 
L 355.094691 -65.117199 
L 352.191864 -64.922991 
L 349.289037 -64.922991 
L 346.386211 -64.922991 
L 343.483384 -64.922991 
L 340.580558 -66.865073 
L 337.677731 -66.865073 
L 334.774905 -66.767969 
L 331.872078 -64.922991 
L 328.969251 -66.767969 
L 326.066425 -66.767969 
L 323.163598 -67.059282 
L 320.260772 -64.922991 
L 317.357945 -65.020095 
L 314.455118 -68.807155 
L 311.552292 -64.922991 
L 308.649465 -64.922991 
L 305.746639 -66.865073 
L 302.843812 -66.573761 
L 299.940985 -65.020095 
L 297.038159 -64.922991 
L 294.135332 -68.807155 
L 291.232506 -65.020095 
L 288.329679 -66.865073 
L 285.426853 -66.962177 
L 282.524026 -65.020095 
L 279.621199 -66.865073 
L 276.718373 -66.767969 
L 273.815546 -66.865073 
L 270.91272 -62.980909 
L 268.009893 -64.534575 
L 265.107066 -66.767969 
L 262.20424 -67.156386 
L 259.301413 -64.922991 
L 256.398587 -66.865073 
L 253.49576 -64.922991 
L 250.592934 -66.670865 
L 247.690107 -64.922991 
L 244.78728 -64.922991 
L 241.884454 -64.922991 
L 238.981627 -64.922991 
L 236.078801 -64.922991 
L 233.175974 -64.825887 
L 230.273147 -66.670865 
L 227.370321 -64.922991 
L 224.467494 -65.505616 
L 221.564668 -65.60272 
L 218.661841 -66.865073 
L 215.759015 -64.922991 
L 212.856188 -64.922991 
L 209.953361 -64.922991 
L 207.050535 -66.865073 
L 204.147708 -64.922991 
L 201.244882 -66.865073 
L 198.342055 -64.922991 
L 195.439228 -64.922991 
L 192.536402 -66.865073 
L 189.633575 -64.922991 
L 186.730749 -66.767969 
L 183.827922 -64.922991 
L 180.925095 -65.020095 
L 178.022269 -64.922991 
L 175.119442 -64.922991 
L 172.216616 -64.922991 
L 169.313789 -62.980909 
L 166.410963 -64.922991 
L 163.508136 -65.796928 
L 160.605309 -66.670865 
L 157.702483 -66.379553 
L 154.799656 -64.922991 
L 151.89683 -66.865073 
L 148.994003 -64.922991 
L 146.091176 -64.922991 
L 143.18835 -64.922991 
L 140.285523 -62.980909 
L 137.382697 -64.922991 
L 134.47987 -66.865073 
L 131.577044 -66.865073 
L 128.674217 -64.922991 
L 125.77139 -64.922991 
L 122.868564 -64.922991 
L 119.965737 -64.922991 
L 117.062911 -62.980909 
L 114.160084 -64.922991 
L 111.257257 -64.922991 
L 108.354431 -64.922991 
L 105.451604 -62.980909 
L 102.548778 -62.980909 
L 99.645951 -64.922991 
L 96.743125 -103.958842 
L 93.840298 -135.420572 
L 90.937471 -114.543189 
L 88.034645 -68.224531 
L 85.131818 -127.069619 
z
" style="stroke: #ffffff; stroke-opacity: 0.5"/>
    </defs>
    <g clip-path="url(#p221c04ae5b)">
     <use xlink:href="#m14c9d01ebe" x="0" y="345.6" style="fill: #c44e52; fill-opacity: 0.5; stroke: #ffffff; stroke-opacity: 0.5"/>
    </g>
   </g>
   <g id="line2d_14">
    <path d="M 85.131818 162.423629 
L 88.034645 198.119098 
L 90.937471 195.633233 
L 93.840298 258.848006 
L 96.743125 169.920066 
L 99.645951 190.778028 
L 102.548778 233.523255 
L 105.451604 163.103358 
L 108.354431 225.385931 
L 111.257257 256.57577 
L 114.160084 229.658512 
L 117.062911 215.481312 
L 119.965737 258.925689 
L 122.868564 256.34272 
L 125.77139 275.608174 
L 128.674217 243.486136 
L 131.577044 253.196547 
L 134.47987 215.675521 
L 137.382697 259.003372 
L 140.285523 270.403394 
L 143.18835 248.593812 
L 146.091176 271.801694 
L 148.994003 273.277676 
L 151.89683 240.98085 
L 154.799656 271.665748 
L 157.702483 272.597947 
L 160.605309 278.055198 
L 163.508136 251.468094 
L 166.410963 276.579216 
L 169.313789 275.336283 
L 172.216616 265.179194 
L 175.119442 255.3911 
L 178.022269 256.090249 
L 180.925095 271.665748 
L 183.827922 261.31445 
L 186.730749 269.199304 
L 189.633575 229.833299 
L 192.536402 263.644949 
L 195.439228 244.612544 
L 198.342055 271.219069 
L 201.244882 276.540374 
L 204.147708 241.155638 
L 207.050535 277.258944 
L 209.953361 271.782273 
L 212.856188 272.753314 
L 215.759015 267.315484 
L 218.661841 272.597947 
L 221.564668 275.103233 
L 224.467494 214.393746 
L 227.370321 217.209765 
L 230.273147 256.653453 
L 233.175974 267.956371 
L 236.078801 274.753658 
L 238.981627 246.826518 
L 241.884454 276.093695 
L 244.78728 266.383284 
L 247.690107 221.288138 
L 250.592934 207.810088 
L 253.49576 270.869494 
L 256.398587 242.767566 
L 259.301413 166.171848 
L 262.20424 145.566356 
L 265.107066 223.754582 
L 268.009893 221.657133 
L 270.91272 268.208842 
L 273.815546 210.47074 
L 276.718373 215.636679 
L 279.621199 223.618636 
L 282.524026 214.859846 
L 285.426853 128.009934 
L 288.329679 140.652889 
L 291.232506 134.30228 
L 294.135332 145.352727 
L 297.038159 200.52728 
L 299.940985 103.248387 
L 302.843812 183.009699 
L 305.746639 174.775271 
L 308.649465 170.832845 
L 311.552292 188.331004 
L 314.455118 211.364098 
L 317.357945 157.451899 
L 320.260772 161.899267 
L 323.163598 263.43132 
L 326.066425 128.281826 
L 328.969251 220.258834 
L 331.872078 131.253211 
L 334.774905 225.269406 
L 337.677731 185.14599 
L 340.580558 169.356862 
L 343.483384 118.571415 
L 346.386211 138.769069 
L 349.289037 205.848585 
L 352.191864 137.118299 
L 355.094691 137.429032 
L 357.997517 147.877434 
L 360.900344 136.652199 
L 363.80317 149.605887 
L 366.705997 197.769523 
L 369.608824 186.893864 
L 372.51165 140.147947 
L 375.414477 185.281935 
L 378.317303 149.722412 
L 381.22013 137.778607 
L 384.122956 137.700924 
L 387.025783 184.641048 
L 389.92861 157.665528 
L 392.831436 178.931327 
L 395.734263 47.413526 
L 398.637089 199.148402 
L 401.539916 138.924435 
L 404.442743 172.561298 
L 407.345569 137.506716 
L 410.248396 130.670587 
L 413.151222 124.883182 
L 416.054049 218.879956 
L 418.956875 138.652544 
L 421.859702 90.508328 
L 424.762529 217.675865 
L 427.665355 275.957749 
L 430.568182 191.710227 
" clip-path="url(#p221c04ae5b)" style="fill: none; stroke: #4c72b0; stroke-width: 3; stroke-linecap: round"/>
   </g>
   <g id="line2d_15">
    <path d="M 85.131818 208.03537 
L 88.034645 203.417098 
L 90.937471 205.716523 
L 93.840298 203.867661 
L 96.743125 272.970827 
L 99.645951 282.619091 
L 102.548778 282.537523 
L 105.451604 282.619091 
L 108.354431 282.619091 
L 111.257257 282.619091 
L 114.160084 282.176296 
L 117.062911 279.061196 
L 119.965737 279.270941 
L 122.868564 281.531525 
L 125.77139 269.043937 
L 128.674217 271.529802 
L 131.577044 267.773815 
L 134.47987 271.230721 
L 137.382697 275.328515 
L 140.285523 271.887145 
L 143.18835 274.540029 
L 146.091176 271.269563 
L 148.994003 273.444695 
L 151.89683 278.276595 
L 154.799656 267.51746 
L 157.702483 279.927365 
L 160.605309 278.035777 
L 163.508136 277.697855 
L 166.410963 268.383629 
L 169.313789 274.066161 
L 172.216616 277.697855 
L 175.119442 279.973975 
L 178.022269 268.713783 
L 180.925095 273.732123 
L 183.827922 276.470459 
L 186.730749 271.844419 
L 189.633575 271.735663 
L 192.536402 277.666782 
L 195.439228 269.102199 
L 198.342055 272.462001 
L 201.244882 275.83734 
L 204.147708 279.235984 
L 207.050535 276.474343 
L 209.953361 272.823229 
L 212.856188 262.223345 
L 215.759015 270.706359 
L 218.661841 263.652717 
L 221.564668 261.131894 
L 224.467494 262.607877 
L 227.370321 271.370551 
L 230.273147 262.382595 
L 233.175974 266.624103 
L 236.078801 263.439088 
L 238.981627 263.054556 
L 241.884454 265.757934 
L 244.78728 270.030515 
L 247.690107 261.978642 
L 250.592934 274.054509 
L 253.49576 257.581768 
L 256.398587 249.681378 
L 259.301413 256.315531 
L 262.20424 268.904107 
L 265.107066 259.698638 
L 268.009893 243.653155 
L 270.91272 257.690525 
L 273.815546 246.842054 
L 276.718373 253.623805 
L 279.621199 247.937389 
L 282.524026 243.602661 
L 285.426853 258.082826 
L 288.329679 249.90666 
L 291.232506 261.170736 
L 294.135332 256.898155 
L 297.038159 268.624447 
L 299.940985 249.747409 
L 302.843812 250.590273 
L 305.746639 252.714911 
L 308.649465 251.778827 
L 311.552292 243.761912 
L 314.455118 248.72199 
L 317.357945 250.39218 
L 320.260772 245.362188 
L 323.163598 249.491054 
L 326.066425 247.762601 
L 328.969251 260.957107 
L 331.872078 268.208842 
L 334.774905 256.373793 
L 337.677731 254.843433 
L 340.580558 251.087446 
L 343.483384 257.876965 
L 346.386211 244.798984 
L 349.289037 261.819391 
L 352.191864 270.869494 
L 355.094691 259.360716 
L 357.997517 251.495283 
L 360.900344 256.478666 
L 363.80317 259.341295 
L 366.705997 252.932424 
L 369.608824 254.777402 
L 372.51165 260.537617 
L 375.414477 243.338538 
L 378.317303 252.233274 
L 381.22013 249.129827 
L 384.122956 252.676069 
L 387.025783 254.509394 
L 389.92861 260.094823 
L 392.831436 249.961038 
L 395.734263 264.079975 
L 398.637089 263.57115 
L 401.539916 257.274919 
L 404.442743 260.615301 
L 407.345569 255.383331 
L 410.248396 257.674988 
L 413.151222 257.783745 
L 416.054049 261.497006 
L 418.956875 263.423551 
L 421.859702 257.574 
L 424.762529 257.426402 
L 427.665355 250.415485 
L 430.568182 251.273886 
" clip-path="url(#p221c04ae5b)" style="fill: none; stroke: #dd8452; stroke-width: 3; stroke-linecap: round"/>
   </g>
   <g id="line2d_16">
    <path d="M 85.131818 200.084485 
L 88.034645 199.086255 
L 90.937471 205.603883 
L 93.840298 210.17166 
L 96.743125 232.750306 
L 99.645951 281.174182 
L 102.548778 282.04035 
L 105.451604 281.04212 
L 108.354431 275.091581 
L 111.257257 282.498682 
L 114.160084 282.323894 
L 117.062911 280.482801 
L 119.965737 255.255154 
L 122.868564 282.335547 
L 125.77139 280.304129 
L 128.674217 280.362391 
L 131.577044 281.220792 
L 134.47987 278.397004 
L 137.382697 280.661472 
L 140.285523 228.567062 
L 143.18835 280.160415 
L 146.091176 280.210909 
L 148.994003 282.211254 
L 151.89683 281.543177 
L 154.799656 269.187651 
L 157.702483 282.13357 
L 160.605309 281.954899 
L 163.508136 273.790386 
L 166.410963 261.73394 
L 169.313789 273.541799 
L 172.216616 280.859565 
L 175.119442 274.613828 
L 178.022269 275.083812 
L 180.925095 278.059082 
L 183.827922 281.364506 
L 186.730749 276.905485 
L 189.633575 281.422768 
L 192.536402 246.702224 
L 195.439228 276.474343 
L 198.342055 273.681629 
L 201.244882 277.48811 
L 204.147708 281.298475 
L 207.050535 276.202452 
L 209.953361 270.042167 
L 212.856188 280.5566 
L 215.759015 280.680893 
L 218.661841 275.157611 
L 221.564668 266.868805 
L 224.467494 266.740628 
L 227.370321 281.360622 
L 230.273147 255.068714 
L 233.175974 265.552073 
L 236.078801 271.918218 
L 238.981627 278.443614 
L 241.884454 262.067978 
L 244.78728 280.847912 
L 247.690107 279.305899 
L 250.592934 280.164299 
L 253.49576 280.144878 
L 256.398587 265.750166 
L 259.301413 278.04743 
L 262.20424 273.394201 
L 265.107066 259.263611 
L 268.009893 271.51815 
L 270.91272 272.430928 
L 273.815546 261.17462 
L 276.718373 272.912565 
L 279.621199 268.84196 
L 282.524026 278.649475 
L 285.426853 273.988478 
L 288.329679 281.170298 
L 291.232506 273.770965 
L 294.135332 275.639248 
L 297.038159 268.834192 
L 299.940985 276.462691 
L 302.843812 275.495534 
L 305.746639 268.853613 
L 308.649465 268.395282 
L 311.552292 267.478619 
L 314.455118 276.924906 
L 317.357945 278.25329 
L 320.260772 277.554141 
L 323.163598 272.730009 
L 326.066425 275.662553 
L 328.969251 271.588065 
L 331.872078 270.787927 
L 334.774905 277.111346 
L 337.677731 276.225757 
L 340.580558 277.806611 
L 343.483384 274.571103 
L 346.386211 274.7925 
L 349.289037 276.311208 
L 352.191864 278.645591 
L 355.094691 268.612795 
L 357.997517 280.770229 
L 360.900344 279.030123 
L 363.80317 279.305899 
L 366.705997 279.084501 
L 369.608824 276.043201 
L 372.51165 277.958094 
L 375.414477 280.521642 
L 378.317303 279.954554 
L 381.22013 279.496223 
L 384.122956 276.431617 
L 387.025783 276.144189 
L 389.92861 270.368437 
L 392.831436 270.966598 
L 395.734263 273.401969 
L 398.637089 273.343707 
L 401.539916 279.589443 
L 404.442743 278.074619 
L 407.345569 279.018471 
L 410.248396 278.878641 
L 413.151222 280.358507 
L 416.054049 281.166413 
L 418.956875 281.247981 
L 421.859702 280.327434 
L 424.762529 281.034352 
L 427.665355 280.222562 
L 430.568182 280.591557 
" clip-path="url(#p221c04ae5b)" style="fill: none; stroke: #55a868; stroke-width: 3; stroke-linecap: round"/>
   </g>
   <g id="line2d_17">
    <path d="M 85.131818 188.738842 
L 88.034645 228.182529 
L 90.937471 220.783196 
L 93.840298 198.857089 
L 96.743125 213.811122 
L 99.645951 263.237111 
L 102.548778 270.422815 
L 105.451604 270.655865 
L 108.354431 269.12162 
L 111.257257 275.316862 
L 114.160084 279.725389 
L 117.062911 279.900176 
L 119.965737 271.47154 
L 122.868564 266.558072 
L 125.77139 277.589098 
L 128.674217 279.53118 
L 131.577044 273.976826 
L 134.47987 271.607485 
L 137.382697 279.900176 
L 140.285523 273.957405 
L 143.18835 278.715506 
L 146.091176 279.239868 
L 148.994003 278.734927 
L 151.89683 277.841569 
L 154.799656 278.34651 
L 157.702483 278.055198 
L 160.605309 278.754348 
L 163.508136 269.956716 
L 166.410963 277.880411 
L 169.313789 279.123343 
L 172.216616 279.123343 
L 175.119442 278.365931 
L 178.022269 273.14173 
L 180.925095 278.152302 
L 183.827922 278.948556 
L 186.730749 275.763541 
L 189.633575 278.696085 
L 192.536402 277.725044 
L 195.439228 278.016356 
L 198.342055 276.462691 
L 201.244882 278.676664 
L 204.147708 278.754348 
L 207.050535 277.064736 
L 209.953361 277.996935 
L 212.856188 278.365931 
L 215.759015 279.026239 
L 218.661841 278.307669 
L 221.564668 277.433732 
L 224.467494 278.637823 
L 227.370321 278.598981 
L 230.273147 277.511415 
L 233.175974 278.832031 
L 236.078801 279.900176 
L 238.981627 278.210565 
L 241.884454 279.162185 
L 244.78728 277.589098 
L 247.690107 278.035777 
L 250.592934 276.987053 
L 253.49576 277.608519 
L 256.398587 277.220103 
L 259.301413 278.657243 
L 262.20424 276.948211 
L 265.107066 277.899831 
L 268.009893 279.492339 
L 270.91272 279.084501 
L 273.815546 277.608519 
L 276.718373 278.365931 
L 279.621199 277.472573 
L 282.524026 276.851107 
L 285.426853 277.608519 
L 288.329679 276.326745 
L 291.232506 278.696085 
L 294.135332 276.734582 
L 297.038159 279.550601 
L 299.940985 277.317207 
L 302.843812 277.336628 
L 305.746639 276.520953 
L 308.649465 277.880411 
L 311.552292 277.569677 
L 314.455118 276.21022 
L 317.357945 278.34651 
L 320.260772 277.919252 
L 323.163598 276.773424 
L 326.066425 277.220103 
L 328.969251 277.278365 
L 331.872078 277.511415 
L 334.774905 276.754003 
L 337.677731 276.404428 
L 340.580558 277.336628 
L 343.483384 277.919252 
L 346.386211 278.327089 
L 349.289037 277.064736 
L 352.191864 278.657243 
L 355.094691 277.258944 
L 357.997517 277.996935 
L 360.900344 278.035777 
L 363.80317 277.258944 
L 366.705997 276.035433 
L 369.608824 278.657243 
L 372.51165 278.268827 
L 375.414477 277.530836 
L 378.317303 277.375469 
L 381.22013 276.520953 
L 384.122956 279.123343 
L 387.025783 276.579216 
L 389.92861 276.792845 
L 392.831436 277.919252 
L 395.734263 277.589098 
L 398.637089 277.899831 
L 401.539916 277.181261 
L 404.442743 278.288248 
L 407.345569 276.074274 
L 410.248396 276.851107 
L 413.151222 276.44327 
L 416.054049 277.899831 
L 418.956875 278.365931 
L 421.859702 277.880411 
L 424.762529 277.39489 
L 427.665355 278.074619 
L 430.568182 277.084157 
" clip-path="url(#p221c04ae5b)" style="fill: none; stroke: #c44e52; stroke-width: 3; stroke-linecap: round"/>
   </g>
   <g id="patch_3">
    <path d="M 67.86 294.66 
L 67.86 29.76 
" style="fill: none; stroke: #ffffff; stroke-width: 1.25; stroke-linejoin: miter; stroke-linecap: square"/>
   </g>
   <g id="patch_4">
    <path d="M 447.84 294.66 
L 447.84 29.76 
" style="fill: none; stroke: #ffffff; stroke-width: 1.25; stroke-linejoin: miter; stroke-linecap: square"/>
   </g>
   <g id="patch_5">
    <path d="M 67.86 294.66 
L 447.84 294.66 
" style="fill: none; stroke: #ffffff; stroke-width: 1.25; stroke-linejoin: miter; stroke-linecap: square"/>
   </g>
   <g id="patch_6">
    <path d="M 67.86 29.76 
L 447.84 29.76 
" style="fill: none; stroke: #ffffff; stroke-width: 1.25; stroke-linejoin: miter; stroke-linecap: square"/>
   </g>
   <g id="text_16">
    <!-- zinc-coating-v0 -->
    <g style="fill: #262626" transform="translate(204.491406 23.76)scale(0.14 -0.14)">
     <defs>
      <path id="DejaVuSans-7a" d="M 353 3500 
L 3084 3500 
L 3084 2975 
L 922 459 
L 3084 459 
L 3084 0 
L 275 0 
L 275 525 
L 2438 3041 
L 353 3041 
L 353 3500 
z
" transform="scale(0.015625)"/>
      <path id="DejaVuSans-63" d="M 3122 3366 
L 3122 2828 
Q 2878 2963 2633 3030 
Q 2388 3097 2138 3097 
Q 1578 3097 1268 2742 
Q 959 2388 959 1747 
Q 959 1106 1268 751 
Q 1578 397 2138 397 
Q 2388 397 2633 464 
Q 2878 531 3122 666 
L 3122 134 
Q 2881 22 2623 -34 
Q 2366 -91 2075 -91 
Q 1284 -91 818 406 
Q 353 903 353 1747 
Q 353 2603 823 3093 
Q 1294 3584 2113 3584 
Q 2378 3584 2631 3529 
Q 2884 3475 3122 3366 
z
" transform="scale(0.015625)"/>
      <path id="DejaVuSans-2d" d="M 313 2009 
L 1997 2009 
L 1997 1497 
L 313 1497 
L 313 2009 
z
" transform="scale(0.015625)"/>
      <path id="DejaVuSans-61" d="M 2194 1759 
Q 1497 1759 1228 1600 
Q 959 1441 959 1056 
Q 959 750 1161 570 
Q 1363 391 1709 391 
Q 2188 391 2477 730 
Q 2766 1069 2766 1631 
L 2766 1759 
L 2194 1759 
z
M 3341 1997 
L 3341 0 
L 2766 0 
L 2766 531 
Q 2569 213 2275 61 
Q 1981 -91 1556 -91 
Q 1019 -91 701 211 
Q 384 513 384 1019 
Q 384 1609 779 1909 
Q 1175 2209 1959 2209 
L 2766 2209 
L 2766 2266 
Q 2766 2663 2505 2880 
Q 2244 3097 1772 3097 
Q 1472 3097 1187 3025 
Q 903 2953 641 2809 
L 641 3341 
Q 956 3463 1253 3523 
Q 1550 3584 1831 3584 
Q 2591 3584 2966 3190 
Q 3341 2797 3341 1997 
z
" transform="scale(0.015625)"/>
      <path id="DejaVuSans-67" d="M 2906 1791 
Q 2906 2416 2648 2759 
Q 2391 3103 1925 3103 
Q 1463 3103 1205 2759 
Q 947 2416 947 1791 
Q 947 1169 1205 825 
Q 1463 481 1925 481 
Q 2391 481 2648 825 
Q 2906 1169 2906 1791 
z
M 3481 434 
Q 3481 -459 3084 -895 
Q 2688 -1331 1869 -1331 
Q 1566 -1331 1297 -1286 
Q 1028 -1241 775 -1147 
L 775 -588 
Q 1028 -725 1275 -790 
Q 1522 -856 1778 -856 
Q 2344 -856 2625 -561 
Q 2906 -266 2906 331 
L 2906 616 
Q 2728 306 2450 153 
Q 2172 0 1784 0 
Q 1141 0 747 490 
Q 353 981 353 1791 
Q 353 2603 747 3093 
Q 1141 3584 1784 3584 
Q 2172 3584 2450 3431 
Q 2728 3278 2906 2969 
L 2906 3500 
L 3481 3500 
L 3481 434 
z
" transform="scale(0.015625)"/>
      <path id="DejaVuSans-76" d="M 191 3500 
L 800 3500 
L 1894 563 
L 2988 3500 
L 3597 3500 
L 2284 0 
L 1503 0 
L 191 3500 
z
" transform="scale(0.015625)"/>
     </defs>
     <use xlink:href="#DejaVuSans-7a"/>
     <use xlink:href="#DejaVuSans-69" x="52.490234"/>
     <use xlink:href="#DejaVuSans-6e" x="80.273438"/>
     <use xlink:href="#DejaVuSans-63" x="143.652344"/>
     <use xlink:href="#DejaVuSans-2d" x="198.632812"/>
     <use xlink:href="#DejaVuSans-63" x="234.716797"/>
     <use xlink:href="#DejaVuSans-6f" x="289.697266"/>
     <use xlink:href="#DejaVuSans-61" x="350.878906"/>
     <use xlink:href="#DejaVuSans-74" x="412.158203"/>
     <use xlink:href="#DejaVuSans-69" x="451.367188"/>
     <use xlink:href="#DejaVuSans-6e" x="479.150391"/>
     <use xlink:href="#DejaVuSans-67" x="542.529297"/>
     <use xlink:href="#DejaVuSans-2d" x="606.005859"/>
     <use xlink:href="#DejaVuSans-76" x="639.464844"/>
     <use xlink:href="#DejaVuSans-30" x="698.644531"/>
    </g>
   </g>
   <g id="legend_1">
    <g id="patch_7">
     <path d="M 75.56 103.14375 
L 202.976094 103.14375 
Q 205.176094 103.14375 205.176094 100.94375 
L 205.176094 37.46 
Q 205.176094 35.26 202.976094 35.26 
L 75.56 35.26 
Q 73.36 35.26 73.36 37.46 
L 73.36 100.94375 
Q 73.36 103.14375 75.56 103.14375 
z
" style="fill: #eaeaf2; opacity: 0.8; stroke: #cccccc; stroke-linejoin: miter"/>
    </g>
    <g id="line2d_18">
     <path d="M 77.76 44.168281 
L 88.76 44.168281 
L 99.76 44.168281 
" style="fill: none; stroke: #4c72b0; stroke-width: 3; stroke-linecap: round"/>
    </g>
    <g id="text_17">
     <!-- DATS-DELAY-20 -->
     <g style="fill: #262626" transform="translate(108.56 48.018281)scale(0.11 -0.11)">
      <defs>
       <path id="DejaVuSans-44" d="M 1259 4147 
L 1259 519 
L 2022 519 
Q 2988 519 3436 956 
Q 3884 1394 3884 2338 
Q 3884 3275 3436 3711 
Q 2988 4147 2022 4147 
L 1259 4147 
z
M 628 4666 
L 1925 4666 
Q 3281 4666 3915 4102 
Q 4550 3538 4550 2338 
Q 4550 1131 3912 565 
Q 3275 0 1925 0 
L 628 0 
L 628 4666 
z
" transform="scale(0.015625)"/>
       <path id="DejaVuSans-41" d="M 2188 4044 
L 1331 1722 
L 3047 1722 
L 2188 4044 
z
M 1831 4666 
L 2547 4666 
L 4325 0 
L 3669 0 
L 3244 1197 
L 1141 1197 
L 716 0 
L 50 0 
L 1831 4666 
z
" transform="scale(0.015625)"/>
       <path id="DejaVuSans-53" d="M 3425 4513 
L 3425 3897 
Q 3066 4069 2747 4153 
Q 2428 4238 2131 4238 
Q 1616 4238 1336 4038 
Q 1056 3838 1056 3469 
Q 1056 3159 1242 3001 
Q 1428 2844 1947 2747 
L 2328 2669 
Q 3034 2534 3370 2195 
Q 3706 1856 3706 1288 
Q 3706 609 3251 259 
Q 2797 -91 1919 -91 
Q 1588 -91 1214 -16 
Q 841 59 441 206 
L 441 856 
Q 825 641 1194 531 
Q 1563 422 1919 422 
Q 2459 422 2753 634 
Q 3047 847 3047 1241 
Q 3047 1584 2836 1778 
Q 2625 1972 2144 2069 
L 1759 2144 
Q 1053 2284 737 2584 
Q 422 2884 422 3419 
Q 422 4038 858 4394 
Q 1294 4750 2059 4750 
Q 2388 4750 2728 4690 
Q 3069 4631 3425 4513 
z
" transform="scale(0.015625)"/>
       <path id="DejaVuSans-45" d="M 628 4666 
L 3578 4666 
L 3578 4134 
L 1259 4134 
L 1259 2753 
L 3481 2753 
L 3481 2222 
L 1259 2222 
L 1259 531 
L 3634 531 
L 3634 0 
L 628 0 
L 628 4666 
z
" transform="scale(0.015625)"/>
       <path id="DejaVuSans-59" d="M -13 4666 
L 666 4666 
L 1959 2747 
L 3244 4666 
L 3922 4666 
L 2272 2222 
L 2272 0 
L 1638 0 
L 1638 2222 
L -13 4666 
z
" transform="scale(0.015625)"/>
      </defs>
      <use xlink:href="#DejaVuSans-44"/>
      <use xlink:href="#DejaVuSans-41" x="75.251953"/>
      <use xlink:href="#DejaVuSans-54" x="135.910156"/>
      <use xlink:href="#DejaVuSans-53" x="196.994141"/>
      <use xlink:href="#DejaVuSans-2d" x="260.470703"/>
      <use xlink:href="#DejaVuSans-44" x="296.554688"/>
      <use xlink:href="#DejaVuSans-45" x="373.556641"/>
      <use xlink:href="#DejaVuSans-4c" x="436.740234"/>
      <use xlink:href="#DejaVuSans-41" x="494.703125"/>
      <use xlink:href="#DejaVuSans-59" x="555.361328"/>
      <use xlink:href="#DejaVuSans-2d" x="604.570312"/>
      <use xlink:href="#DejaVuSans-32" x="640.654297"/>
      <use xlink:href="#DejaVuSans-30" x="704.277344"/>
     </g>
    </g>
    <g id="line2d_19">
     <path d="M 77.76 60.314219 
L 88.76 60.314219 
L 99.76 60.314219 
" style="fill: none; stroke: #dd8452; stroke-width: 3; stroke-linecap: round"/>
    </g>
    <g id="text_18">
     <!-- SAC-DELAY-20 -->
     <g style="fill: #262626" transform="translate(108.56 64.164219)scale(0.11 -0.11)">
      <defs>
       <path id="DejaVuSans-43" d="M 4122 4306 
L 4122 3641 
Q 3803 3938 3442 4084 
Q 3081 4231 2675 4231 
Q 1875 4231 1450 3742 
Q 1025 3253 1025 2328 
Q 1025 1406 1450 917 
Q 1875 428 2675 428 
Q 3081 428 3442 575 
Q 3803 722 4122 1019 
L 4122 359 
Q 3791 134 3420 21 
Q 3050 -91 2638 -91 
Q 1578 -91 968 557 
Q 359 1206 359 2328 
Q 359 3453 968 4101 
Q 1578 4750 2638 4750 
Q 3056 4750 3426 4639 
Q 3797 4528 4122 4306 
z
" transform="scale(0.015625)"/>
      </defs>
      <use xlink:href="#DejaVuSans-53"/>
      <use xlink:href="#DejaVuSans-41" x="65.351562"/>
      <use xlink:href="#DejaVuSans-43" x="132.009766"/>
      <use xlink:href="#DejaVuSans-2d" x="201.833984"/>
      <use xlink:href="#DejaVuSans-44" x="237.917969"/>
      <use xlink:href="#DejaVuSans-45" x="314.919922"/>
      <use xlink:href="#DejaVuSans-4c" x="378.103516"/>
      <use xlink:href="#DejaVuSans-41" x="436.066406"/>
      <use xlink:href="#DejaVuSans-59" x="496.724609"/>
      <use xlink:href="#DejaVuSans-2d" x="545.933594"/>
      <use xlink:href="#DejaVuSans-32" x="582.017578"/>
      <use xlink:href="#DejaVuSans-30" x="645.640625"/>
     </g>
    </g>
    <g id="line2d_20">
     <path d="M 77.76 76.460156 
L 88.76 76.460156 
L 99.76 76.460156 
" style="fill: none; stroke: #55a868; stroke-width: 3; stroke-linecap: round"/>
    </g>
    <g id="text_19">
     <!-- SAC-IS-DELAY-20 -->
     <g style="fill: #262626" transform="translate(108.56 80.310156)scale(0.11 -0.11)">
      <defs>
       <path id="DejaVuSans-49" d="M 628 4666 
L 1259 4666 
L 1259 0 
L 628 0 
L 628 4666 
z
" transform="scale(0.015625)"/>
      </defs>
      <use xlink:href="#DejaVuSans-53"/>
      <use xlink:href="#DejaVuSans-41" x="65.351562"/>
      <use xlink:href="#DejaVuSans-43" x="132.009766"/>
      <use xlink:href="#DejaVuSans-2d" x="201.833984"/>
      <use xlink:href="#DejaVuSans-49" x="237.917969"/>
      <use xlink:href="#DejaVuSans-53" x="267.410156"/>
      <use xlink:href="#DejaVuSans-2d" x="330.886719"/>
      <use xlink:href="#DejaVuSans-44" x="366.970703"/>
      <use xlink:href="#DejaVuSans-45" x="443.972656"/>
      <use xlink:href="#DejaVuSans-4c" x="507.15625"/>
      <use xlink:href="#DejaVuSans-41" x="565.119141"/>
      <use xlink:href="#DejaVuSans-59" x="625.777344"/>
      <use xlink:href="#DejaVuSans-2d" x="674.986328"/>
      <use xlink:href="#DejaVuSans-32" x="711.070312"/>
      <use xlink:href="#DejaVuSans-30" x="774.693359"/>
     </g>
    </g>
    <g id="line2d_21">
     <path d="M 77.76 92.606094 
L 88.76 92.606094 
L 99.76 92.606094 
" style="fill: none; stroke: #c44e52; stroke-width: 3; stroke-linecap: round"/>
    </g>
    <g id="text_20">
     <!-- DCAC-DELAY-20 -->
     <g style="fill: #262626" transform="translate(108.56 96.456094)scale(0.11 -0.11)">
      <use xlink:href="#DejaVuSans-44"/>
      <use xlink:href="#DejaVuSans-43" x="77.001953"/>
      <use xlink:href="#DejaVuSans-41" x="146.826172"/>
      <use xlink:href="#DejaVuSans-43" x="213.484375"/>
      <use xlink:href="#DejaVuSans-2d" x="283.308594"/>
      <use xlink:href="#DejaVuSans-44" x="319.392578"/>
      <use xlink:href="#DejaVuSans-45" x="396.394531"/>
      <use xlink:href="#DejaVuSans-4c" x="459.578125"/>
      <use xlink:href="#DejaVuSans-41" x="517.541016"/>
      <use xlink:href="#DejaVuSans-59" x="578.199219"/>
      <use xlink:href="#DejaVuSans-2d" x="627.408203"/>
      <use xlink:href="#DejaVuSans-32" x="663.492188"/>
      <use xlink:href="#DejaVuSans-30" x="727.115234"/>
     </g>
    </g>
   </g>
  </g>
 </g>
 <defs>
  <clipPath id="p221c04ae5b">
   <rect x="67.86" y="29.76" width="379.98" height="264.9"/>
  </clipPath>
 </defs>
</svg>
