<?xml version="1.0" encoding="utf-8" standalone="no"?>
<!DOCTYPE svg PUBLIC "-//W3C//DTD SVG 1.1//EN"
  "http://www.w3.org/Graphics/SVG/1.1/DTD/svg11.dtd">
<svg xmlns:xlink="http://www.w3.org/1999/xlink" width="460.8pt" height="345.6pt" viewBox="0 0 460.8 345.6" xmlns="http://www.w3.org/2000/svg" version="1.1">
 <metadata>
  <rdf:RDF xmlns:dc="http://purl.org/dc/elements/1.1/" xmlns:cc="http://creativecommons.org/ns#" xmlns:rdf="http://www.w3.org/1999/02/22-rdf-syntax-ns#">
   <cc:Work>
    <dc:type rdf:resource="http://purl.org/dc/dcmitype/StillImage"/>
    <dc:date>2022-09-12T15:17:14.535224</dc:date>
    <dc:format>image/svg+xml</dc:format>
    <dc:creator>
     <cc:Agent>
      <dc:title>Matplotlib v3.5.3, https://matplotlib.org/</dc:title>
     </cc:Agent>
    </dc:creator>
   </cc:Work>
  </rdf:RDF>
 </metadata>
 <defs>
  <style type="text/css">*{stroke-linejoin: round; stroke-linecap: butt}</style>
 </defs>
 <g id="figure_1">
  <g id="patch_1">
   <path d="M 0 345.6 
L 460.8 345.6 
L 460.8 0 
L 0 0 
z
" style="fill: #ffffff"/>
  </g>
  <g id="axes_1">
   <g id="patch_2">
    <path d="M 67.86 294.66 
L 447.84 294.66 
L 447.84 13.181355 
L 67.86 13.181355 
z
" style="fill: #eaeaf2"/>
   </g>
   <g id="matplotlib.axis_1">
    <g id="xtick_1">
     <g id="line2d_1">
      <path d="M 82.228992 294.66 
L 82.228992 13.181355 
" clip-path="url(#p4ae201562d)" style="fill: none; stroke: #ffffff; stroke-linecap: round"/>
     </g>
     <g id="text_1">
      <!-- 0.00 -->
      <g style="fill: #262626" transform="translate(69.982898 312.518281)scale(0.11 -0.11)">
       <defs>
        <path id="DejaVuSans-30" d="M 2034 4250 
Q 1547 4250 1301 3770 
Q 1056 3291 1056 2328 
Q 1056 1369 1301 889 
Q 1547 409 2034 409 
Q 2525 409 2770 889 
Q 3016 1369 3016 2328 
Q 3016 3291 2770 3770 
Q 2525 4250 2034 4250 
z
M 2034 4750 
Q 2819 4750 3233 4129 
Q 3647 3509 3647 2328 
Q 3647 1150 3233 529 
Q 2819 -91 2034 -91 
Q 1250 -91 836 529 
Q 422 1150 422 2328 
Q 422 3509 836 4129 
Q 1250 4750 2034 4750 
z
" transform="scale(0.015625)"/>
        <path id="DejaVuSans-2e" d="M 684 794 
L 1344 794 
L 1344 0 
L 684 0 
L 684 794 
z
" transform="scale(0.015625)"/>
       </defs>
       <use xlink:href="#DejaVuSans-30"/>
       <use xlink:href="#DejaVuSans-2e" x="63.623047"/>
       <use xlink:href="#DejaVuSans-30" x="95.410156"/>
       <use xlink:href="#DejaVuSans-30" x="159.033203"/>
      </g>
     </g>
    </g>
    <g id="xtick_2">
     <g id="line2d_2">
      <path d="M 140.285523 294.66 
L 140.285523 13.181355 
" clip-path="url(#p4ae201562d)" style="fill: none; stroke: #ffffff; stroke-linecap: round"/>
     </g>
     <g id="text_2">
      <!-- 0.05 -->
      <g style="fill: #262626" transform="translate(128.03943 312.518281)scale(0.11 -0.11)">
       <defs>
        <path id="DejaVuSans-35" d="M 691 4666 
L 3169 4666 
L 3169 4134 
L 1269 4134 
L 1269 2991 
Q 1406 3038 1543 3061 
Q 1681 3084 1819 3084 
Q 2600 3084 3056 2656 
Q 3513 2228 3513 1497 
Q 3513 744 3044 326 
Q 2575 -91 1722 -91 
Q 1428 -91 1123 -41 
Q 819 9 494 109 
L 494 744 
Q 775 591 1075 516 
Q 1375 441 1709 441 
Q 2250 441 2565 725 
Q 2881 1009 2881 1497 
Q 2881 1984 2565 2268 
Q 2250 2553 1709 2553 
Q 1456 2553 1204 2497 
Q 953 2441 691 2322 
L 691 4666 
z
" transform="scale(0.015625)"/>
       </defs>
       <use xlink:href="#DejaVuSans-30"/>
       <use xlink:href="#DejaVuSans-2e" x="63.623047"/>
       <use xlink:href="#DejaVuSans-30" x="95.410156"/>
       <use xlink:href="#DejaVuSans-35" x="159.033203"/>
      </g>
     </g>
    </g>
    <g id="xtick_3">
     <g id="line2d_3">
      <path d="M 198.342055 294.66 
L 198.342055 13.181355 
" clip-path="url(#p4ae201562d)" style="fill: none; stroke: #ffffff; stroke-linecap: round"/>
     </g>
     <g id="text_3">
      <!-- 0.10 -->
      <g style="fill: #262626" transform="translate(186.095961 312.518281)scale(0.11 -0.11)">
       <defs>
        <path id="DejaVuSans-31" d="M 794 531 
L 1825 531 
L 1825 4091 
L 703 3866 
L 703 4441 
L 1819 4666 
L 2450 4666 
L 2450 531 
L 3481 531 
L 3481 0 
L 794 0 
L 794 531 
z
" transform="scale(0.015625)"/>
       </defs>
       <use xlink:href="#DejaVuSans-30"/>
       <use xlink:href="#DejaVuSans-2e" x="63.623047"/>
       <use xlink:href="#DejaVuSans-31" x="95.410156"/>
       <use xlink:href="#DejaVuSans-30" x="159.033203"/>
      </g>
     </g>
    </g>
    <g id="xtick_4">
     <g id="line2d_4">
      <path d="M 256.398587 294.66 
L 256.398587 13.181355 
" clip-path="url(#p4ae201562d)" style="fill: none; stroke: #ffffff; stroke-linecap: round"/>
     </g>
     <g id="text_4">
      <!-- 0.15 -->
      <g style="fill: #262626" transform="translate(244.152493 312.518281)scale(0.11 -0.11)">
       <use xlink:href="#DejaVuSans-30"/>
       <use xlink:href="#DejaVuSans-2e" x="63.623047"/>
       <use xlink:href="#DejaVuSans-31" x="95.410156"/>
       <use xlink:href="#DejaVuSans-35" x="159.033203"/>
      </g>
     </g>
    </g>
    <g id="xtick_5">
     <g id="line2d_5">
      <path d="M 314.455118 294.66 
L 314.455118 13.181355 
" clip-path="url(#p4ae201562d)" style="fill: none; stroke: #ffffff; stroke-linecap: round"/>
     </g>
     <g id="text_5">
      <!-- 0.20 -->
      <g style="fill: #262626" transform="translate(302.209025 312.518281)scale(0.11 -0.11)">
       <defs>
        <path id="DejaVuSans-32" d="M 1228 531 
L 3431 531 
L 3431 0 
L 469 0 
L 469 531 
Q 828 903 1448 1529 
Q 2069 2156 2228 2338 
Q 2531 2678 2651 2914 
Q 2772 3150 2772 3378 
Q 2772 3750 2511 3984 
Q 2250 4219 1831 4219 
Q 1534 4219 1204 4116 
Q 875 4013 500 3803 
L 500 4441 
Q 881 4594 1212 4672 
Q 1544 4750 1819 4750 
Q 2544 4750 2975 4387 
Q 3406 4025 3406 3419 
Q 3406 3131 3298 2873 
Q 3191 2616 2906 2266 
Q 2828 2175 2409 1742 
Q 1991 1309 1228 531 
z
" transform="scale(0.015625)"/>
       </defs>
       <use xlink:href="#DejaVuSans-30"/>
       <use xlink:href="#DejaVuSans-2e" x="63.623047"/>
       <use xlink:href="#DejaVuSans-32" x="95.410156"/>
       <use xlink:href="#DejaVuSans-30" x="159.033203"/>
      </g>
     </g>
    </g>
    <g id="xtick_6">
     <g id="line2d_6">
      <path d="M 372.51165 294.66 
L 372.51165 13.181355 
" clip-path="url(#p4ae201562d)" style="fill: none; stroke: #ffffff; stroke-linecap: round"/>
     </g>
     <g id="text_6">
      <!-- 0.25 -->
      <g style="fill: #262626" transform="translate(360.265556 312.518281)scale(0.11 -0.11)">
       <use xlink:href="#DejaVuSans-30"/>
       <use xlink:href="#DejaVuSans-2e" x="63.623047"/>
       <use xlink:href="#DejaVuSans-32" x="95.410156"/>
       <use xlink:href="#DejaVuSans-35" x="159.033203"/>
      </g>
     </g>
    </g>
    <g id="xtick_7">
     <g id="line2d_7">
      <path d="M 430.568182 294.66 
L 430.568182 13.181355 
" clip-path="url(#p4ae201562d)" style="fill: none; stroke: #ffffff; stroke-linecap: round"/>
     </g>
     <g id="text_7">
      <!-- 0.30 -->
      <g style="fill: #262626" transform="translate(418.322088 312.518281)scale(0.11 -0.11)">
       <defs>
        <path id="DejaVuSans-33" d="M 2597 2516 
Q 3050 2419 3304 2112 
Q 3559 1806 3559 1356 
Q 3559 666 3084 287 
Q 2609 -91 1734 -91 
Q 1441 -91 1130 -33 
Q 819 25 488 141 
L 488 750 
Q 750 597 1062 519 
Q 1375 441 1716 441 
Q 2309 441 2620 675 
Q 2931 909 2931 1356 
Q 2931 1769 2642 2001 
Q 2353 2234 1838 2234 
L 1294 2234 
L 1294 2753 
L 1863 2753 
Q 2328 2753 2575 2939 
Q 2822 3125 2822 3475 
Q 2822 3834 2567 4026 
Q 2313 4219 1838 4219 
Q 1578 4219 1281 4162 
Q 984 4106 628 3988 
L 628 4550 
Q 988 4650 1302 4700 
Q 1616 4750 1894 4750 
Q 2613 4750 3031 4423 
Q 3450 4097 3450 3541 
Q 3450 3153 3228 2886 
Q 3006 2619 2597 2516 
z
" transform="scale(0.015625)"/>
       </defs>
       <use xlink:href="#DejaVuSans-30"/>
       <use xlink:href="#DejaVuSans-2e" x="63.623047"/>
       <use xlink:href="#DejaVuSans-33" x="95.410156"/>
       <use xlink:href="#DejaVuSans-30" x="159.033203"/>
      </g>
     </g>
    </g>
    <g id="text_8">
     <!-- Zeitschritte (in Millionen) -->
     <g style="fill: #262626" transform="translate(169.935469 329.44375)scale(0.14 -0.14)">
      <defs>
       <path id="DejaVuSans-5a" d="M 359 4666 
L 4025 4666 
L 4025 4184 
L 1075 531 
L 4097 531 
L 4097 0 
L 288 0 
L 288 481 
L 3238 4134 
L 359 4134 
L 359 4666 
z
" transform="scale(0.015625)"/>
       <path id="DejaVuSans-65" d="M 3597 1894 
L 3597 1613 
L 953 1613 
Q 991 1019 1311 708 
Q 1631 397 2203 397 
Q 2534 397 2845 478 
Q 3156 559 3463 722 
L 3463 178 
Q 3153 47 2828 -22 
Q 2503 -91 2169 -91 
Q 1331 -91 842 396 
Q 353 884 353 1716 
Q 353 2575 817 3079 
Q 1281 3584 2069 3584 
Q 2775 3584 3186 3129 
Q 3597 2675 3597 1894 
z
M 3022 2063 
Q 3016 2534 2758 2815 
Q 2500 3097 2075 3097 
Q 1594 3097 1305 2825 
Q 1016 2553 972 2059 
L 3022 2063 
z
" transform="scale(0.015625)"/>
       <path id="DejaVuSans-69" d="M 603 3500 
L 1178 3500 
L 1178 0 
L 603 0 
L 603 3500 
z
M 603 4863 
L 1178 4863 
L 1178 4134 
L 603 4134 
L 603 4863 
z
" transform="scale(0.015625)"/>
       <path id="DejaVuSans-74" d="M 1172 4494 
L 1172 3500 
L 2356 3500 
L 2356 3053 
L 1172 3053 
L 1172 1153 
Q 1172 725 1289 603 
Q 1406 481 1766 481 
L 2356 481 
L 2356 0 
L 1766 0 
Q 1100 0 847 248 
Q 594 497 594 1153 
L 594 3053 
L 172 3053 
L 172 3500 
L 594 3500 
L 594 4494 
L 1172 4494 
z
" transform="scale(0.015625)"/>
       <path id="DejaVuSans-73" d="M 2834 3397 
L 2834 2853 
Q 2591 2978 2328 3040 
Q 2066 3103 1784 3103 
Q 1356 3103 1142 2972 
Q 928 2841 928 2578 
Q 928 2378 1081 2264 
Q 1234 2150 1697 2047 
L 1894 2003 
Q 2506 1872 2764 1633 
Q 3022 1394 3022 966 
Q 3022 478 2636 193 
Q 2250 -91 1575 -91 
Q 1294 -91 989 -36 
Q 684 19 347 128 
L 347 722 
Q 666 556 975 473 
Q 1284 391 1588 391 
Q 1994 391 2212 530 
Q 2431 669 2431 922 
Q 2431 1156 2273 1281 
Q 2116 1406 1581 1522 
L 1381 1569 
Q 847 1681 609 1914 
Q 372 2147 372 2553 
Q 372 3047 722 3315 
Q 1072 3584 1716 3584 
Q 2034 3584 2315 3537 
Q 2597 3491 2834 3397 
z
" transform="scale(0.015625)"/>
       <path id="DejaVuSans-63" d="M 3122 3366 
L 3122 2828 
Q 2878 2963 2633 3030 
Q 2388 3097 2138 3097 
Q 1578 3097 1268 2742 
Q 959 2388 959 1747 
Q 959 1106 1268 751 
Q 1578 397 2138 397 
Q 2388 397 2633 464 
Q 2878 531 3122 666 
L 3122 134 
Q 2881 22 2623 -34 
Q 2366 -91 2075 -91 
Q 1284 -91 818 406 
Q 353 903 353 1747 
Q 353 2603 823 3093 
Q 1294 3584 2113 3584 
Q 2378 3584 2631 3529 
Q 2884 3475 3122 3366 
z
" transform="scale(0.015625)"/>
       <path id="DejaVuSans-68" d="M 3513 2113 
L 3513 0 
L 2938 0 
L 2938 2094 
Q 2938 2591 2744 2837 
Q 2550 3084 2163 3084 
Q 1697 3084 1428 2787 
Q 1159 2491 1159 1978 
L 1159 0 
L 581 0 
L 581 4863 
L 1159 4863 
L 1159 2956 
Q 1366 3272 1645 3428 
Q 1925 3584 2291 3584 
Q 2894 3584 3203 3211 
Q 3513 2838 3513 2113 
z
" transform="scale(0.015625)"/>
       <path id="DejaVuSans-72" d="M 2631 2963 
Q 2534 3019 2420 3045 
Q 2306 3072 2169 3072 
Q 1681 3072 1420 2755 
Q 1159 2438 1159 1844 
L 1159 0 
L 581 0 
L 581 3500 
L 1159 3500 
L 1159 2956 
Q 1341 3275 1631 3429 
Q 1922 3584 2338 3584 
Q 2397 3584 2469 3576 
Q 2541 3569 2628 3553 
L 2631 2963 
z
" transform="scale(0.015625)"/>
       <path id="DejaVuSans-20" transform="scale(0.015625)"/>
       <path id="DejaVuSans-28" d="M 1984 4856 
Q 1566 4138 1362 3434 
Q 1159 2731 1159 2009 
Q 1159 1288 1364 580 
Q 1569 -128 1984 -844 
L 1484 -844 
Q 1016 -109 783 600 
Q 550 1309 550 2009 
Q 550 2706 781 3412 
Q 1013 4119 1484 4856 
L 1984 4856 
z
" transform="scale(0.015625)"/>
       <path id="DejaVuSans-6e" d="M 3513 2113 
L 3513 0 
L 2938 0 
L 2938 2094 
Q 2938 2591 2744 2837 
Q 2550 3084 2163 3084 
Q 1697 3084 1428 2787 
Q 1159 2491 1159 1978 
L 1159 0 
L 581 0 
L 581 3500 
L 1159 3500 
L 1159 2956 
Q 1366 3272 1645 3428 
Q 1925 3584 2291 3584 
Q 2894 3584 3203 3211 
Q 3513 2838 3513 2113 
z
" transform="scale(0.015625)"/>
       <path id="DejaVuSans-4d" d="M 628 4666 
L 1569 4666 
L 2759 1491 
L 3956 4666 
L 4897 4666 
L 4897 0 
L 4281 0 
L 4281 4097 
L 3078 897 
L 2444 897 
L 1241 4097 
L 1241 0 
L 628 0 
L 628 4666 
z
" transform="scale(0.015625)"/>
       <path id="DejaVuSans-6c" d="M 603 4863 
L 1178 4863 
L 1178 0 
L 603 0 
L 603 4863 
z
" transform="scale(0.015625)"/>
       <path id="DejaVuSans-6f" d="M 1959 3097 
Q 1497 3097 1228 2736 
Q 959 2375 959 1747 
Q 959 1119 1226 758 
Q 1494 397 1959 397 
Q 2419 397 2687 759 
Q 2956 1122 2956 1747 
Q 2956 2369 2687 2733 
Q 2419 3097 1959 3097 
z
M 1959 3584 
Q 2709 3584 3137 3096 
Q 3566 2609 3566 1747 
Q 3566 888 3137 398 
Q 2709 -91 1959 -91 
Q 1206 -91 779 398 
Q 353 888 353 1747 
Q 353 2609 779 3096 
Q 1206 3584 1959 3584 
z
" transform="scale(0.015625)"/>
       <path id="DejaVuSans-29" d="M 513 4856 
L 1013 4856 
Q 1481 4119 1714 3412 
Q 1947 2706 1947 2009 
Q 1947 1309 1714 600 
Q 1481 -109 1013 -844 
L 513 -844 
Q 928 -128 1133 580 
Q 1338 1288 1338 2009 
Q 1338 2731 1133 3434 
Q 928 4138 513 4856 
z
" transform="scale(0.015625)"/>
      </defs>
      <use xlink:href="#DejaVuSans-5a"/>
      <use xlink:href="#DejaVuSans-65" x="68.505859"/>
      <use xlink:href="#DejaVuSans-69" x="130.029297"/>
      <use xlink:href="#DejaVuSans-74" x="157.8125"/>
      <use xlink:href="#DejaVuSans-73" x="197.021484"/>
      <use xlink:href="#DejaVuSans-63" x="249.121094"/>
      <use xlink:href="#DejaVuSans-68" x="304.101562"/>
      <use xlink:href="#DejaVuSans-72" x="367.480469"/>
      <use xlink:href="#DejaVuSans-69" x="408.59375"/>
      <use xlink:href="#DejaVuSans-74" x="436.376953"/>
      <use xlink:href="#DejaVuSans-74" x="475.585938"/>
      <use xlink:href="#DejaVuSans-65" x="514.794922"/>
      <use xlink:href="#DejaVuSans-20" x="576.318359"/>
      <use xlink:href="#DejaVuSans-28" x="608.105469"/>
      <use xlink:href="#DejaVuSans-69" x="647.119141"/>
      <use xlink:href="#DejaVuSans-6e" x="674.902344"/>
      <use xlink:href="#DejaVuSans-20" x="738.28125"/>
      <use xlink:href="#DejaVuSans-4d" x="770.068359"/>
      <use xlink:href="#DejaVuSans-69" x="856.347656"/>
      <use xlink:href="#DejaVuSans-6c" x="884.130859"/>
      <use xlink:href="#DejaVuSans-6c" x="911.914062"/>
      <use xlink:href="#DejaVuSans-69" x="939.697266"/>
      <use xlink:href="#DejaVuSans-6f" x="967.480469"/>
      <use xlink:href="#DejaVuSans-6e" x="1028.662109"/>
      <use xlink:href="#DejaVuSans-65" x="1092.041016"/>
      <use xlink:href="#DejaVuSans-6e" x="1153.564453"/>
      <use xlink:href="#DejaVuSans-29" x="1216.943359"/>
     </g>
    </g>
   </g>
   <g id="matplotlib.axis_2">
    <g id="ytick_1">
     <g id="line2d_8">
      <path d="M 67.86 281.865516 
L 447.84 281.865516 
" clip-path="url(#p4ae201562d)" style="fill: none; stroke: #ffffff; stroke-linecap: round"/>
     </g>
     <g id="text_9">
      <!-- 0 -->
      <g style="fill: #262626" transform="translate(51.36125 286.044657)scale(0.11 -0.11)">
       <use xlink:href="#DejaVuSans-30"/>
      </g>
     </g>
    </g>
    <g id="ytick_2">
     <g id="line2d_9">
      <path d="M 67.86 244.101396 
L 447.84 244.101396 
" clip-path="url(#p4ae201562d)" style="fill: none; stroke: #ffffff; stroke-linecap: round"/>
     </g>
     <g id="text_10">
      <!-- 250 -->
      <g style="fill: #262626" transform="translate(37.36375 248.280537)scale(0.11 -0.11)">
       <use xlink:href="#DejaVuSans-32"/>
       <use xlink:href="#DejaVuSans-35" x="63.623047"/>
       <use xlink:href="#DejaVuSans-30" x="127.246094"/>
      </g>
     </g>
    </g>
    <g id="ytick_3">
     <g id="line2d_10">
      <path d="M 67.86 206.337276 
L 447.84 206.337276 
" clip-path="url(#p4ae201562d)" style="fill: none; stroke: #ffffff; stroke-linecap: round"/>
     </g>
     <g id="text_11">
      <!-- 500 -->
      <g style="fill: #262626" transform="translate(37.36375 210.516417)scale(0.11 -0.11)">
       <use xlink:href="#DejaVuSans-35"/>
       <use xlink:href="#DejaVuSans-30" x="63.623047"/>
       <use xlink:href="#DejaVuSans-30" x="127.246094"/>
      </g>
     </g>
    </g>
    <g id="ytick_4">
     <g id="line2d_11">
      <path d="M 67.86 168.573156 
L 447.84 168.573156 
" clip-path="url(#p4ae201562d)" style="fill: none; stroke: #ffffff; stroke-linecap: round"/>
     </g>
     <g id="text_12">
      <!-- 750 -->
      <g style="fill: #262626" transform="translate(37.36375 172.752297)scale(0.11 -0.11)">
       <defs>
        <path id="DejaVuSans-37" d="M 525 4666 
L 3525 4666 
L 3525 4397 
L 1831 0 
L 1172 0 
L 2766 4134 
L 525 4134 
L 525 4666 
z
" transform="scale(0.015625)"/>
       </defs>
       <use xlink:href="#DejaVuSans-37"/>
       <use xlink:href="#DejaVuSans-35" x="63.623047"/>
       <use xlink:href="#DejaVuSans-30" x="127.246094"/>
      </g>
     </g>
    </g>
    <g id="ytick_5">
     <g id="line2d_12">
      <path d="M 67.86 130.809036 
L 447.84 130.809036 
" clip-path="url(#p4ae201562d)" style="fill: none; stroke: #ffffff; stroke-linecap: round"/>
     </g>
     <g id="text_13">
      <!-- 1000 -->
      <g style="fill: #262626" transform="translate(30.365 134.988177)scale(0.11 -0.11)">
       <use xlink:href="#DejaVuSans-31"/>
       <use xlink:href="#DejaVuSans-30" x="63.623047"/>
       <use xlink:href="#DejaVuSans-30" x="127.246094"/>
       <use xlink:href="#DejaVuSans-30" x="190.869141"/>
      </g>
     </g>
    </g>
    <g id="ytick_6">
     <g id="line2d_13">
      <path d="M 67.86 93.044916 
L 447.84 93.044916 
" clip-path="url(#p4ae201562d)" style="fill: none; stroke: #ffffff; stroke-linecap: round"/>
     </g>
     <g id="text_14">
      <!-- 1250 -->
      <g style="fill: #262626" transform="translate(30.365 97.224057)scale(0.11 -0.11)">
       <use xlink:href="#DejaVuSans-31"/>
       <use xlink:href="#DejaVuSans-32" x="63.623047"/>
       <use xlink:href="#DejaVuSans-35" x="127.246094"/>
       <use xlink:href="#DejaVuSans-30" x="190.869141"/>
      </g>
     </g>
    </g>
    <g id="ytick_7">
     <g id="line2d_14">
      <path d="M 67.86 55.280796 
L 447.84 55.280796 
" clip-path="url(#p4ae201562d)" style="fill: none; stroke: #ffffff; stroke-linecap: round"/>
     </g>
     <g id="text_15">
      <!-- 1500 -->
      <g style="fill: #262626" transform="translate(30.365 59.459937)scale(0.11 -0.11)">
       <use xlink:href="#DejaVuSans-31"/>
       <use xlink:href="#DejaVuSans-35" x="63.623047"/>
       <use xlink:href="#DejaVuSans-30" x="127.246094"/>
       <use xlink:href="#DejaVuSans-30" x="190.869141"/>
      </g>
     </g>
    </g>
    <g id="ytick_8">
     <g id="line2d_15">
      <path d="M 67.86 17.516676 
L 447.84 17.516676 
" clip-path="url(#p4ae201562d)" style="fill: none; stroke: #ffffff; stroke-linecap: round"/>
     </g>
     <g id="text_16">
      <!-- 1750 -->
      <g style="fill: #262626" transform="translate(30.365 21.695817)scale(0.11 -0.11)">
       <use xlink:href="#DejaVuSans-31"/>
       <use xlink:href="#DejaVuSans-37" x="63.623047"/>
       <use xlink:href="#DejaVuSans-35" x="127.246094"/>
       <use xlink:href="#DejaVuSans-30" x="190.869141"/>
      </g>
     </g>
    </g>
    <g id="text_17">
     <!-- # Δx &lt; 0 -->
     <g style="fill: #262626" transform="translate(23.453438 185.711615)rotate(-90)scale(0.14 -0.14)">
      <defs>
       <path id="DejaVuSans-23" d="M 3272 2816 
L 2363 2816 
L 2100 1772 
L 3016 1772 
L 3272 2816 
z
M 2803 4594 
L 2478 3297 
L 3391 3297 
L 3719 4594 
L 4219 4594 
L 3897 3297 
L 4872 3297 
L 4872 2816 
L 3775 2816 
L 3519 1772 
L 4513 1772 
L 4513 1294 
L 3397 1294 
L 3072 0 
L 2572 0 
L 2894 1294 
L 1978 1294 
L 1656 0 
L 1153 0 
L 1478 1294 
L 494 1294 
L 494 1772 
L 1594 1772 
L 1856 2816 
L 850 2816 
L 850 3297 
L 1978 3297 
L 2297 4594 
L 2803 4594 
z
" transform="scale(0.015625)"/>
       <path id="DejaVuSans-394" d="M 2188 4044 
L 906 525 
L 3472 525 
L 2188 4044 
z
M 50 0 
L 1831 4666 
L 2547 4666 
L 4325 0 
L 50 0 
z
" transform="scale(0.015625)"/>
       <path id="DejaVuSans-78" d="M 3513 3500 
L 2247 1797 
L 3578 0 
L 2900 0 
L 1881 1375 
L 863 0 
L 184 0 
L 1544 1831 
L 300 3500 
L 978 3500 
L 1906 2253 
L 2834 3500 
L 3513 3500 
z
" transform="scale(0.015625)"/>
       <path id="DejaVuSans-3c" d="M 4684 3150 
L 1459 2003 
L 4684 863 
L 4684 294 
L 678 1747 
L 678 2266 
L 4684 3719 
L 4684 3150 
z
" transform="scale(0.015625)"/>
      </defs>
      <use xlink:href="#DejaVuSans-23"/>
      <use xlink:href="#DejaVuSans-20" x="83.789062"/>
      <use xlink:href="#DejaVuSans-394" x="115.576172"/>
      <use xlink:href="#DejaVuSans-78" x="183.984375"/>
      <use xlink:href="#DejaVuSans-20" x="243.164062"/>
      <use xlink:href="#DejaVuSans-3c" x="274.951172"/>
      <use xlink:href="#DejaVuSans-20" x="358.740234"/>
      <use xlink:href="#DejaVuSans-30" x="390.527344"/>
     </g>
    </g>
   </g>
   <g id="PolyCollection_1">
    <defs>
     <path id="mad8a8d4a25" d="M 85.131818 -64.33871 
L 85.131818 -289.261808 
L 88.034645 -64.640823 
L 90.937471 -64.791879 
L 93.840298 -64.791879 
L 96.743125 -64.33871 
L 99.645951 -64.489766 
L 102.548778 -64.33871 
L 105.451604 -64.187653 
L 108.354431 -64.33871 
L 111.257257 -64.640823 
L 114.160084 -64.489766 
L 117.062911 -64.640823 
L 119.965737 -64.33871 
L 122.868564 -64.33871 
L 125.77139 -64.33871 
L 128.674217 -64.187653 
L 131.577044 -64.33871 
L 134.47987 -64.33871 
L 137.382697 -64.33871 
L 140.285523 -64.33871 
L 143.18835 -64.640823 
L 146.091176 -64.33871 
L 148.994003 -64.187653 
L 151.89683 -64.187653 
L 154.799656 -64.187653 
L 157.702483 -64.640823 
L 160.605309 -64.33871 
L 163.508136 -64.187653 
L 166.410963 -64.187653 
L 169.313789 -64.187653 
L 172.216616 -64.640823 
L 175.119442 -64.187653 
L 178.022269 -64.187653 
L 180.925095 -64.489766 
L 183.827922 -64.489766 
L 186.730749 -64.791879 
L 189.633575 -64.33871 
L 192.536402 -64.489766 
L 195.439228 -64.187653 
L 198.342055 -64.33871 
L 201.244882 -64.33871 
L 204.147708 -64.187653 
L 207.050535 -64.640823 
L 209.953361 -64.33871 
L 212.856188 -64.036597 
L 215.759015 -64.33871 
L 218.661841 -64.33871 
L 221.564668 -64.489766 
L 224.467494 -64.791879 
L 227.370321 -64.187653 
L 230.273147 -64.187653 
L 233.175974 -64.33871 
L 236.078801 -64.640823 
L 238.981627 -64.489766 
L 241.884454 -64.187653 
L 244.78728 -64.33871 
L 247.690107 -64.489766 
L 250.592934 -64.640823 
L 253.49576 -65.849275 
L 256.398587 -64.640823 
L 259.301413 -64.640823 
L 262.20424 -64.640823 
L 265.107066 -64.33871 
L 268.009893 -64.640823 
L 270.91272 -64.640823 
L 273.815546 -65.698218 
L 276.718373 -64.33871 
L 279.621199 -64.489766 
L 282.524026 -65.396105 
L 285.426853 -66.604557 
L 288.329679 -64.791879 
L 291.232506 -64.33871 
L 294.135332 -73.704212 
L 297.038159 -65.396105 
L 299.940985 -64.33871 
L 302.843812 -319.624161 
L 305.746639 -74.157381 
L 308.649465 -64.33871 
L 311.552292 -64.640823 
L 314.455118 -64.791879 
L 317.357945 -65.396105 
L 320.260772 -69.47463 
L 323.163598 -64.791879 
L 326.066425 -65.396105 
L 328.969251 -77.480624 
L 331.872078 -65.093992 
L 334.774905 -64.489766 
L 337.677731 -64.640823 
L 340.580558 -83.673939 
L 343.483384 -64.791879 
L 346.386211 -135.184199 
L 349.289037 -64.33871 
L 352.191864 -66.302444 
L 355.094691 -84.429222 
L 357.997517 -66.000331 
L 360.900344 -65.547162 
L 363.80317 -65.547162 
L 366.705997 -122.344398 
L 369.608824 -65.245049 
L 372.51165 -112.525727 
L 375.414477 -65.547162 
L 378.317303 -65.698218 
L 381.22013 -65.849275 
L 384.122956 -85.637673 
L 387.025783 -66.302444 
L 389.92861 -108.447202 
L 392.831436 -65.547162 
L 395.734263 -110.25988 
L 398.637089 -74.157381 
L 401.539916 -156.029993 
L 404.442743 -119.172212 
L 407.345569 -141.226458 
L 410.248396 -75.819002 
L 413.151222 -65.547162 
L 416.054049 -86.846125 
L 418.956875 -101.64966 
L 421.859702 -137.450046 
L 424.762529 -80.803866 
L 427.665355 -65.547162 
L 430.568182 -67.057726 
L 430.568182 -64.036597 
L 430.568182 -64.036597 
L 427.665355 -64.036597 
L 424.762529 -64.187653 
L 421.859702 -64.489766 
L 418.956875 -63.734484 
L 416.054049 -64.33871 
L 413.151222 -63.88554 
L 410.248396 -63.88554 
L 407.345569 -64.036597 
L 404.442743 -64.036597 
L 401.539916 -64.187653 
L 398.637089 -63.734484 
L 395.734263 -64.33871 
L 392.831436 -64.036597 
L 389.92861 -63.734484 
L 387.025783 -63.734484 
L 384.122956 -64.036597 
L 381.22013 -64.187653 
L 378.317303 -63.734484 
L 375.414477 -63.88554 
L 372.51165 -63.734484 
L 369.608824 -64.33871 
L 366.705997 -64.187653 
L 363.80317 -64.187653 
L 360.900344 -64.036597 
L 357.997517 -64.187653 
L 355.094691 -64.036597 
L 352.191864 -63.734484 
L 349.289037 -63.734484 
L 346.386211 -63.734484 
L 343.483384 -64.036597 
L 340.580558 -64.187653 
L 337.677731 -64.036597 
L 334.774905 -64.036597 
L 331.872078 -63.88554 
L 328.969251 -64.036597 
L 326.066425 -63.734484 
L 323.163598 -64.036597 
L 320.260772 -63.88554 
L 317.357945 -64.036597 
L 314.455118 -64.036597 
L 311.552292 -63.88554 
L 308.649465 -63.88554 
L 305.746639 -63.88554 
L 302.843812 -64.036597 
L 299.940985 -64.187653 
L 297.038159 -64.036597 
L 294.135332 -63.734484 
L 291.232506 -63.88554 
L 288.329679 -64.036597 
L 285.426853 -64.036597 
L 282.524026 -64.187653 
L 279.621199 -64.036597 
L 276.718373 -64.187653 
L 273.815546 -64.036597 
L 270.91272 -64.036597 
L 268.009893 -63.88554 
L 265.107066 -63.734484 
L 262.20424 -64.036597 
L 259.301413 -64.187653 
L 256.398587 -64.036597 
L 253.49576 -64.036597 
L 250.592934 -63.734484 
L 247.690107 -64.036597 
L 244.78728 -63.88554 
L 241.884454 -63.734484 
L 238.981627 -63.734484 
L 236.078801 -63.734484 
L 233.175974 -63.88554 
L 230.273147 -63.88554 
L 227.370321 -63.88554 
L 224.467494 -63.88554 
L 221.564668 -63.88554 
L 218.661841 -64.036597 
L 215.759015 -64.036597 
L 212.856188 -63.88554 
L 209.953361 -64.036597 
L 207.050535 -64.036597 
L 204.147708 -63.88554 
L 201.244882 -64.036597 
L 198.342055 -64.036597 
L 195.439228 -63.734484 
L 192.536402 -64.036597 
L 189.633575 -64.036597 
L 186.730749 -64.036597 
L 183.827922 -63.734484 
L 180.925095 -63.88554 
L 178.022269 -64.036597 
L 175.119442 -64.036597 
L 172.216616 -64.036597 
L 169.313789 -63.88554 
L 166.410963 -64.036597 
L 163.508136 -63.734484 
L 160.605309 -63.734484 
L 157.702483 -63.88554 
L 154.799656 -63.734484 
L 151.89683 -63.734484 
L 148.994003 -63.734484 
L 146.091176 -64.036597 
L 143.18835 -64.036597 
L 140.285523 -64.036597 
L 137.382697 -63.88554 
L 134.47987 -63.88554 
L 131.577044 -64.036597 
L 128.674217 -63.88554 
L 125.77139 -63.88554 
L 122.868564 -64.036597 
L 119.965737 -64.036597 
L 117.062911 -63.734484 
L 114.160084 -64.036597 
L 111.257257 -64.187653 
L 108.354431 -64.187653 
L 105.451604 -63.734484 
L 102.548778 -63.88554 
L 99.645951 -64.036597 
L 96.743125 -63.88554 
L 93.840298 -63.88554 
L 90.937471 -64.036597 
L 88.034645 -64.036597 
L 85.131818 -64.33871 
z
" style="stroke: #ffffff; stroke-opacity: 0.5"/>
    </defs>
    <g clip-path="url(#p4ae201562d)">
     <use xlink:href="#mad8a8d4a25" x="0" y="345.6" style="fill: #4c72b0; fill-opacity: 0.5; stroke: #ffffff; stroke-opacity: 0.5"/>
    </g>
   </g>
   <g id="PolyCollection_2">
    <defs>
     <path id="mbe0c72a9ec" d="M 85.131818 -162.132675 
L 85.131818 -212.736596 
L 88.034645 -202.34391 
L 90.937471 -206.059899 
L 93.840298 -199.050879 
L 96.743125 -63.764695 
L 99.645951 -63.734484 
L 102.548778 -65.154415 
L 105.451604 -73.704212 
L 108.354431 -89.74641 
L 111.257257 -74.278226 
L 114.160084 -79.323513 
L 117.062911 -72.103013 
L 119.965737 -81.679994 
L 122.868564 -68.749559 
L 125.77139 -64.399132 
L 128.674217 -68.77977 
L 131.577044 -78.930766 
L 134.47987 -74.399071 
L 137.382697 -71.8009 
L 140.285523 -73.553155 
L 143.18835 -78.900554 
L 146.091176 -77.450412 
L 148.994003 -72.465548 
L 151.89683 -86.000209 
L 154.799656 -84.973025 
L 157.702483 -81.619571 
L 160.605309 -68.77977 
L 163.508136 -74.701184 
L 166.410963 -77.208722 
L 169.313789 -77.661891 
L 172.216616 -67.84322 
L 175.119442 -63.794906 
L 178.022269 -71.196674 
L 180.925095 -65.879486 
L 183.827922 -78.084849 
L 186.730749 -66.483712 
L 189.633575 -68.568291 
L 192.536402 -66.634768 
L 195.439228 -63.855329 
L 198.342055 -67.722375 
L 201.244882 -74.640762 
L 204.147708 -73.492732 
L 207.050535 -68.175544 
L 209.953361 -63.855329 
L 212.856188 -65.728429 
L 215.759015 -82.586333 
L 218.661841 -66.483712 
L 221.564668 -72.193647 
L 224.467494 -70.834138 
L 227.370321 -63.825118 
L 230.273147 -64.489766 
L 233.175974 -63.855329 
L 236.078801 -68.507869 
L 238.981627 -66.604557 
L 241.884454 -65.305471 
L 244.78728 -63.88554 
L 247.690107 -69.414207 
L 250.592934 -63.915752 
L 253.49576 -63.855329 
L 256.398587 -72.465548 
L 259.301413 -90.108945 
L 262.20424 -68.235967 
L 265.107066 -63.825118 
L 268.009893 -66.785825 
L 270.91272 -72.948929 
L 273.815546 -65.637795 
L 276.718373 -72.314492 
L 279.621199 -70.16949 
L 282.524026 -72.284281 
L 285.426853 -73.009352 
L 288.329679 -77.964004 
L 291.232506 -66.604557 
L 294.135332 -65.879486 
L 297.038159 -63.945963 
L 299.940985 -63.915752 
L 302.843812 -63.855329 
L 305.746639 -63.88554 
L 308.649465 -66.604557 
L 311.552292 -66.876459 
L 314.455118 -67.692164 
L 317.357945 -63.88554 
L 320.260772 -63.915752 
L 323.163598 -63.915752 
L 326.066425 -63.825118 
L 328.969251 -64.791879 
L 331.872078 -64.519978 
L 334.774905 -63.976174 
L 337.677731 -63.794906 
L 340.580558 -73.43231 
L 343.483384 -67.450473 
L 346.386211 -83.039502 
L 349.289037 -64.459555 
L 352.191864 -63.855329 
L 355.094691 -66.483712 
L 357.997517 -63.88554 
L 360.900344 -72.284281 
L 363.80317 -65.909697 
L 366.705997 -66.634768 
L 369.608824 -63.915752 
L 372.51165 -63.855329 
L 375.414477 -63.855329 
L 378.317303 -65.849275 
L 381.22013 -63.825118 
L 384.122956 -64.942936 
L 387.025783 -67.057726 
L 389.92861 -63.825118 
L 392.831436 -63.825118 
L 395.734263 -67.903643 
L 398.637089 -63.915752 
L 401.539916 -65.124203 
L 404.442743 -63.855329 
L 407.345569 -63.88554 
L 410.248396 -65.093992 
L 413.151222 -63.794906 
L 416.054049 -64.791879 
L 418.956875 -63.915752 
L 421.859702 -63.855329 
L 424.762529 -64.006386 
L 427.665355 -68.477657 
L 430.568182 -63.855329 
L 430.568182 -63.734484 
L 430.568182 -63.734484 
L 427.665355 -63.764695 
L 424.762529 -63.734484 
L 421.859702 -63.764695 
L 418.956875 -63.764695 
L 416.054049 -63.764695 
L 413.151222 -63.734484 
L 410.248396 -63.764695 
L 407.345569 -63.764695 
L 404.442743 -63.734484 
L 401.539916 -63.734484 
L 398.637089 -63.734484 
L 395.734263 -63.764695 
L 392.831436 -63.734484 
L 389.92861 -63.764695 
L 387.025783 -63.825118 
L 384.122956 -63.764695 
L 381.22013 -63.734484 
L 378.317303 -63.734484 
L 375.414477 -63.734484 
L 372.51165 -63.764695 
L 369.608824 -63.764695 
L 366.705997 -63.734484 
L 363.80317 -63.734484 
L 360.900344 -63.764695 
L 357.997517 -63.734484 
L 355.094691 -63.764695 
L 352.191864 -63.734484 
L 349.289037 -63.794906 
L 346.386211 -63.734484 
L 343.483384 -63.734484 
L 340.580558 -63.734484 
L 337.677731 -63.734484 
L 334.774905 -63.794906 
L 331.872078 -63.734484 
L 328.969251 -63.734484 
L 326.066425 -63.734484 
L 323.163598 -63.734484 
L 320.260772 -63.734484 
L 317.357945 -63.764695 
L 314.455118 -63.794906 
L 311.552292 -63.825118 
L 308.649465 -63.794906 
L 305.746639 -63.764695 
L 302.843812 -63.764695 
L 299.940985 -63.764695 
L 297.038159 -63.764695 
L 294.135332 -63.734484 
L 291.232506 -63.794906 
L 288.329679 -63.734484 
L 285.426853 -63.734484 
L 282.524026 -63.764695 
L 279.621199 -63.764695 
L 276.718373 -63.734484 
L 273.815546 -63.734484 
L 270.91272 -63.764695 
L 268.009893 -63.764695 
L 265.107066 -63.734484 
L 262.20424 -63.764695 
L 259.301413 -63.825118 
L 256.398587 -63.734484 
L 253.49576 -63.734484 
L 250.592934 -63.764695 
L 247.690107 -63.734484 
L 244.78728 -63.764695 
L 241.884454 -63.764695 
L 238.981627 -63.794906 
L 236.078801 -63.825118 
L 233.175974 -63.734484 
L 230.273147 -63.734484 
L 227.370321 -63.764695 
L 224.467494 -63.764695 
L 221.564668 -63.734484 
L 218.661841 -63.734484 
L 215.759015 -63.764695 
L 212.856188 -63.734484 
L 209.953361 -63.734484 
L 207.050535 -63.734484 
L 204.147708 -63.734484 
L 201.244882 -63.734484 
L 198.342055 -63.734484 
L 195.439228 -63.734484 
L 192.536402 -63.734484 
L 189.633575 -63.734484 
L 186.730749 -63.734484 
L 183.827922 -63.734484 
L 180.925095 -63.734484 
L 178.022269 -63.734484 
L 175.119442 -63.734484 
L 172.216616 -63.734484 
L 169.313789 -63.734484 
L 166.410963 -63.734484 
L 163.508136 -63.734484 
L 160.605309 -63.734484 
L 157.702483 -63.734484 
L 154.799656 -63.734484 
L 151.89683 -63.734484 
L 148.994003 -63.734484 
L 146.091176 -63.734484 
L 143.18835 -63.734484 
L 140.285523 -63.734484 
L 137.382697 -63.734484 
L 134.47987 -63.734484 
L 131.577044 -63.734484 
L 128.674217 -63.734484 
L 125.77139 -63.734484 
L 122.868564 -63.734484 
L 119.965737 -63.734484 
L 117.062911 -63.734484 
L 114.160084 -63.734484 
L 111.257257 -63.734484 
L 108.354431 -63.734484 
L 105.451604 -63.734484 
L 102.548778 -63.734484 
L 99.645951 -63.734484 
L 96.743125 -63.734484 
L 93.840298 -155.939359 
L 90.937471 -137.903215 
L 88.034645 -167.540497 
L 85.131818 -162.132675 
z
" style="stroke: #ffffff; stroke-opacity: 0.5"/>
    </defs>
    <g clip-path="url(#p4ae201562d)">
     <use xlink:href="#mbe0c72a9ec" x="0" y="345.6" style="fill: #dd8452; fill-opacity: 0.5; stroke: #ffffff; stroke-opacity: 0.5"/>
    </g>
   </g>
   <g id="PolyCollection_3">
    <defs>
     <path id="m1bb22327cd" d="M 85.131818 -130.77335 
L 85.131818 -202.374121 
L 88.034645 -196.120383 
L 90.937471 -212.37406 
L 93.840298 -210.803073 
L 96.743125 -63.734484 
L 99.645951 -63.734484 
L 102.548778 -78.749498 
L 105.451604 -81.438303 
L 108.354431 -84.368799 
L 111.257257 -81.921684 
L 114.160084 -79.565203 
L 117.062911 -72.133224 
L 119.965737 -76.151326 
L 122.868564 -73.160408 
L 125.77139 -70.229912 
L 128.674217 -73.130197 
L 131.577044 -65.547162 
L 134.47987 -73.220831 
L 137.382697 -82.28422 
L 140.285523 -70.954984 
L 143.18835 -71.861322 
L 146.091176 -75.970059 
L 148.994003 -76.725341 
L 151.89683 -66.272233 
L 154.799656 -67.208783 
L 157.702483 -69.595475 
L 160.605309 -72.344703 
L 163.508136 -91.830989 
L 166.410963 -68.387023 
L 169.313789 -63.88554 
L 172.216616 -67.269205 
L 175.119442 -71.770689 
L 178.022269 -64.489766 
L 180.925095 -68.870404 
L 183.827922 -70.018433 
L 186.730749 -67.269205 
L 189.633575 -70.048645 
L 192.536402 -67.299417 
L 195.439228 -71.377942 
L 198.342055 -68.447446 
L 201.244882 -65.003358 
L 204.147708 -83.643728 
L 207.050535 -64.036597 
L 209.953361 -86.423167 
L 212.856188 -69.867377 
L 215.759015 -74.973086 
L 218.661841 -73.130197 
L 221.564668 -72.072802 
L 224.467494 -72.465548 
L 227.370321 -63.855329 
L 230.273147 -69.202728 
L 233.175974 -71.015406 
L 236.078801 -68.024488 
L 238.981627 -73.643789 
L 241.884454 -69.837166 
L 244.78728 -72.405126 
L 247.690107 -65.365894 
L 250.592934 -73.251042 
L 253.49576 -80.139218 
L 256.398587 -79.232879 
L 259.301413 -67.692164 
L 262.20424 -74.640762 
L 265.107066 -64.550189 
L 268.009893 -72.707239 
L 270.91272 -67.480685 
L 273.815546 -69.383996 
L 276.718373 -73.825057 
L 279.621199 -68.961038 
L 282.524026 -68.77977 
L 285.426853 -63.88554 
L 288.329679 -64.882513 
L 291.232506 -75.909636 
L 294.135332 -67.994277 
L 297.038159 -70.803927 
L 299.940985 -72.072802 
L 302.843812 -64.399132 
L 305.746639 -67.571318 
L 308.649465 -63.915752 
L 311.552292 -72.586394 
L 314.455118 -71.166463 
L 317.357945 -73.341676 
L 320.260772 -70.380969 
L 323.163598 -77.933793 
L 326.066425 -70.471603 
L 328.969251 -75.154354 
L 331.872078 -63.855329 
L 334.774905 -69.837166 
L 337.677731 -66.90667 
L 340.580558 -68.991249 
L 343.483384 -69.051672 
L 346.386211 -75.909636 
L 349.289037 -68.870404 
L 352.191864 -64.882513 
L 355.094691 -71.55921 
L 357.997517 -63.88554 
L 360.900344 -65.577373 
L 363.80317 -78.235906 
L 366.705997 -65.698218 
L 369.608824 -67.631741 
L 372.51165 -66.030542 
L 375.414477 -72.314492 
L 378.317303 -68.568291 
L 381.22013 -69.71632 
L 384.122956 -71.498787 
L 387.025783 -65.819063 
L 389.92861 -64.127231 
L 392.831436 -77.329567 
L 395.734263 -68.719348 
L 398.637089 -65.728429 
L 401.539916 -67.14836 
L 404.442743 -65.456528 
L 407.345569 -72.797873 
L 410.248396 -69.142306 
L 413.151222 -69.142306 
L 416.054049 -65.97012 
L 418.956875 -66.332655 
L 421.859702 -66.604557 
L 424.762529 -68.930827 
L 427.665355 -65.698218 
L 430.568182 -75.275199 
L 430.568182 -63.794906 
L 430.568182 -63.794906 
L 427.665355 -63.794906 
L 424.762529 -63.794906 
L 421.859702 -63.794906 
L 418.956875 -63.794906 
L 416.054049 -63.794906 
L 413.151222 -63.825118 
L 410.248396 -63.764695 
L 407.345569 -63.794906 
L 404.442743 -63.825118 
L 401.539916 -63.825118 
L 398.637089 -63.794906 
L 395.734263 -63.794906 
L 392.831436 -63.764695 
L 389.92861 -63.764695 
L 387.025783 -63.825118 
L 384.122956 -63.794906 
L 381.22013 -63.855329 
L 378.317303 -63.764695 
L 375.414477 -63.794906 
L 372.51165 -63.764695 
L 369.608824 -63.794906 
L 366.705997 -63.764695 
L 363.80317 -63.825118 
L 360.900344 -63.794906 
L 357.997517 -63.825118 
L 355.094691 -63.764695 
L 352.191864 -63.764695 
L 349.289037 -63.764695 
L 346.386211 -63.794906 
L 343.483384 -63.88554 
L 340.580558 -63.764695 
L 337.677731 -63.794906 
L 334.774905 -63.794906 
L 331.872078 -63.825118 
L 328.969251 -63.734484 
L 326.066425 -63.825118 
L 323.163598 -63.764695 
L 320.260772 -63.764695 
L 317.357945 -63.794906 
L 314.455118 -63.855329 
L 311.552292 -63.764695 
L 308.649465 -63.825118 
L 305.746639 -63.734484 
L 302.843812 -63.764695 
L 299.940985 -63.734484 
L 297.038159 -63.764695 
L 294.135332 -63.794906 
L 291.232506 -63.794906 
L 288.329679 -63.734484 
L 285.426853 -63.764695 
L 282.524026 -63.734484 
L 279.621199 -63.734484 
L 276.718373 -63.794906 
L 273.815546 -63.764695 
L 270.91272 -63.734484 
L 268.009893 -63.734484 
L 265.107066 -63.764695 
L 262.20424 -63.734484 
L 259.301413 -63.734484 
L 256.398587 -63.794906 
L 253.49576 -63.734484 
L 250.592934 -63.734484 
L 247.690107 -63.764695 
L 244.78728 -63.794906 
L 241.884454 -63.764695 
L 238.981627 -63.734484 
L 236.078801 -63.734484 
L 233.175974 -63.764695 
L 230.273147 -63.794906 
L 227.370321 -63.734484 
L 224.467494 -63.794906 
L 221.564668 -63.794906 
L 218.661841 -63.734484 
L 215.759015 -63.794906 
L 212.856188 -63.734484 
L 209.953361 -63.794906 
L 207.050535 -63.734484 
L 204.147708 -63.764695 
L 201.244882 -63.764695 
L 198.342055 -63.734484 
L 195.439228 -63.794906 
L 192.536402 -63.734484 
L 189.633575 -63.734484 
L 186.730749 -63.734484 
L 183.827922 -63.764695 
L 180.925095 -63.734484 
L 178.022269 -63.734484 
L 175.119442 -63.734484 
L 172.216616 -63.734484 
L 169.313789 -63.734484 
L 166.410963 -63.734484 
L 163.508136 -63.734484 
L 160.605309 -63.734484 
L 157.702483 -65.637795 
L 154.799656 -63.734484 
L 151.89683 -63.734484 
L 148.994003 -63.734484 
L 146.091176 -63.764695 
L 143.18835 -63.734484 
L 140.285523 -63.794906 
L 137.382697 -63.764695 
L 134.47987 -63.734484 
L 131.577044 -63.734484 
L 128.674217 -63.734484 
L 125.77139 -63.734484 
L 122.868564 -63.734484 
L 119.965737 -63.734484 
L 117.062911 -63.734484 
L 114.160084 -63.734484 
L 111.257257 -63.734484 
L 108.354431 -63.734484 
L 105.451604 -63.734484 
L 102.548778 -63.734484 
L 99.645951 -63.734484 
L 96.743125 -63.734484 
L 93.840298 -166.875848 
L 90.937471 -145.304983 
L 88.034645 -144.096531 
L 85.131818 -130.77335 
z
" style="stroke: #ffffff; stroke-opacity: 0.5"/>
    </defs>
    <g clip-path="url(#p4ae201562d)">
     <use xlink:href="#m1bb22327cd" x="0" y="345.6" style="fill: #55a868; fill-opacity: 0.5; stroke: #ffffff; stroke-opacity: 0.5"/>
    </g>
   </g>
   <g id="PolyCollection_4">
    <defs>
     <path id="m4bf4cae3c4" d="M 85.131818 -140.169063 
L 85.131818 -198.476864 
L 88.034645 -218.265263 
L 90.937471 -234.428306 
L 93.840298 -211.316665 
L 96.743125 -260.712134 
L 99.645951 -64.187653 
L 102.548778 -64.187653 
L 105.451604 -73.855268 
L 108.354431 -92.737328 
L 111.257257 -70.834138 
L 114.160084 -64.33871 
L 117.062911 -76.272172 
L 119.965737 -64.489766 
L 122.868564 -97.571135 
L 125.77139 -64.489766 
L 128.674217 -64.640823 
L 131.577044 -64.489766 
L 134.47987 -64.33871 
L 137.382697 -64.489766 
L 140.285523 -64.791879 
L 143.18835 -64.33871 
L 146.091176 -95.456345 
L 148.994003 -64.791879 
L 151.89683 -64.187653 
L 154.799656 -64.33871 
L 157.702483 -64.489766 
L 160.605309 -64.791879 
L 163.508136 -117.661647 
L 166.410963 -64.489766 
L 169.313789 -68.115122 
L 172.216616 -64.640823 
L 175.119442 -64.640823 
L 178.022269 -64.489766 
L 180.925095 -64.187653 
L 183.827922 -64.489766 
L 186.730749 -64.489766 
L 189.633575 -64.489766 
L 192.536402 -76.876398 
L 195.439228 -64.33871 
L 198.342055 -64.33871 
L 201.244882 -64.640823 
L 204.147708 -64.33871 
L 207.050535 -64.489766 
L 209.953361 -64.640823 
L 212.856188 -64.489766 
L 215.759015 -64.33871 
L 218.661841 -64.33871 
L 221.564668 -72.797873 
L 224.467494 -64.489766 
L 227.370321 -64.33871 
L 230.273147 -64.33871 
L 233.175974 -64.489766 
L 236.078801 -64.489766 
L 238.981627 -64.33871 
L 241.884454 -64.33871 
L 244.78728 -64.489766 
L 247.690107 -64.489766 
L 250.592934 -64.33871 
L 253.49576 -64.640823 
L 256.398587 -64.489766 
L 259.301413 -64.489766 
L 262.20424 -64.33871 
L 265.107066 -64.791879 
L 268.009893 -64.33871 
L 270.91272 -64.489766 
L 273.815546 -64.33871 
L 276.718373 -64.33871 
L 279.621199 -64.33871 
L 282.524026 -64.640823 
L 285.426853 -64.187653 
L 288.329679 -64.489766 
L 291.232506 -64.640823 
L 294.135332 -64.640823 
L 297.038159 -64.640823 
L 299.940985 -64.942936 
L 302.843812 -64.489766 
L 305.746639 -64.489766 
L 308.649465 -64.489766 
L 311.552292 -64.791879 
L 314.455118 -64.791879 
L 317.357945 -64.640823 
L 320.260772 -64.791879 
L 323.163598 -64.640823 
L 326.066425 -64.33871 
L 328.969251 -64.489766 
L 331.872078 -65.093992 
L 334.774905 -64.640823 
L 337.677731 -64.640823 
L 340.580558 -64.942936 
L 343.483384 -64.489766 
L 346.386211 -64.489766 
L 349.289037 -64.640823 
L 352.191864 -64.791879 
L 355.094691 -64.33871 
L 357.997517 -64.791879 
L 360.900344 -64.33871 
L 363.80317 -64.489766 
L 366.705997 -64.33871 
L 369.608824 -64.640823 
L 372.51165 -64.640823 
L 375.414477 -65.396105 
L 378.317303 -64.640823 
L 381.22013 -64.640823 
L 384.122956 -64.489766 
L 387.025783 -64.640823 
L 389.92861 -64.489766 
L 392.831436 -64.640823 
L 395.734263 -64.489766 
L 398.637089 -64.33871 
L 401.539916 -64.33871 
L 404.442743 -64.791879 
L 407.345569 -65.093992 
L 410.248396 -64.942936 
L 413.151222 -64.33871 
L 416.054049 -64.489766 
L 418.956875 -64.489766 
L 421.859702 -64.489766 
L 424.762529 -64.640823 
L 427.665355 -64.942936 
L 430.568182 -64.791879 
L 430.568182 -64.187653 
L 430.568182 -64.187653 
L 427.665355 -64.33871 
L 424.762529 -64.187653 
L 421.859702 -64.036597 
L 418.956875 -64.036597 
L 416.054049 -63.88554 
L 413.151222 -64.036597 
L 410.248396 -64.33871 
L 407.345569 -64.036597 
L 404.442743 -64.187653 
L 401.539916 -64.036597 
L 398.637089 -64.036597 
L 395.734263 -63.734484 
L 392.831436 -64.036597 
L 389.92861 -64.036597 
L 387.025783 -63.88554 
L 384.122956 -64.036597 
L 381.22013 -64.036597 
L 378.317303 -64.187653 
L 375.414477 -64.187653 
L 372.51165 -64.036597 
L 369.608824 -64.036597 
L 366.705997 -64.036597 
L 363.80317 -64.036597 
L 360.900344 -64.33871 
L 357.997517 -64.036597 
L 355.094691 -63.88554 
L 352.191864 -63.88554 
L 349.289037 -64.036597 
L 346.386211 -64.187653 
L 343.483384 -64.187653 
L 340.580558 -64.187653 
L 337.677731 -64.036597 
L 334.774905 -64.036597 
L 331.872078 -64.036597 
L 328.969251 -64.036597 
L 326.066425 -63.88554 
L 323.163598 -64.036597 
L 320.260772 -64.187653 
L 317.357945 -64.187653 
L 314.455118 -64.187653 
L 311.552292 -64.187653 
L 308.649465 -64.036597 
L 305.746639 -63.88554 
L 302.843812 -64.036597 
L 299.940985 -63.88554 
L 297.038159 -64.036597 
L 294.135332 -63.88554 
L 291.232506 -64.036597 
L 288.329679 -64.187653 
L 285.426853 -64.036597 
L 282.524026 -64.036597 
L 279.621199 -64.036597 
L 276.718373 -63.88554 
L 273.815546 -64.036597 
L 270.91272 -64.187653 
L 268.009893 -63.88554 
L 265.107066 -64.036597 
L 262.20424 -63.88554 
L 259.301413 -64.187653 
L 256.398587 -64.036597 
L 253.49576 -63.88554 
L 250.592934 -64.036597 
L 247.690107 -64.187653 
L 244.78728 -63.88554 
L 241.884454 -64.036597 
L 238.981627 -63.88554 
L 236.078801 -64.036597 
L 233.175974 -64.036597 
L 230.273147 -63.88554 
L 227.370321 -64.187653 
L 224.467494 -64.187653 
L 221.564668 -64.036597 
L 218.661841 -64.036597 
L 215.759015 -64.036597 
L 212.856188 -63.88554 
L 209.953361 -63.88554 
L 207.050535 -64.036597 
L 204.147708 -64.036597 
L 201.244882 -64.036597 
L 198.342055 -63.88554 
L 195.439228 -64.036597 
L 192.536402 -64.036597 
L 189.633575 -64.036597 
L 186.730749 -64.036597 
L 183.827922 -64.036597 
L 180.925095 -63.88554 
L 178.022269 -64.036597 
L 175.119442 -63.88554 
L 172.216616 -64.036597 
L 169.313789 -64.036597 
L 166.410963 -64.187653 
L 163.508136 -64.036597 
L 160.605309 -64.036597 
L 157.702483 -63.88554 
L 154.799656 -64.036597 
L 151.89683 -64.187653 
L 148.994003 -64.33871 
L 146.091176 -64.187653 
L 143.18835 -64.036597 
L 140.285523 -64.036597 
L 137.382697 -63.88554 
L 134.47987 -64.036597 
L 131.577044 -64.036597 
L 128.674217 -64.036597 
L 125.77139 -64.036597 
L 122.868564 -64.036597 
L 119.965737 -64.036597 
L 117.062911 -64.036597 
L 114.160084 -64.036597 
L 111.257257 -64.187653 
L 108.354431 -63.88554 
L 105.451604 -63.88554 
L 102.548778 -63.88554 
L 99.645951 -64.036597 
L 96.743125 -144.247588 
L 93.840298 -158.446897 
L 90.937471 -142.43491 
L 88.034645 -173.099375 
L 85.131818 -140.169063 
z
" style="stroke: #ffffff; stroke-opacity: 0.5"/>
    </defs>
    <g clip-path="url(#p4ae201562d)">
     <use xlink:href="#m4bf4cae3c4" x="0" y="345.6" style="fill: #c44e52; fill-opacity: 0.5; stroke: #ffffff; stroke-opacity: 0.5"/>
    </g>
   </g>
   <g id="line2d_16">
    <path d="M 85.131818 222.016939 
L 88.034645 281.26129 
L 90.937471 281.200868 
L 93.840298 281.321713 
L 96.743125 281.472769 
L 99.645951 281.382135 
L 102.548778 281.502981 
L 105.451604 281.593614 
L 108.354431 281.321713 
L 111.257257 281.291502 
L 114.160084 281.321713 
L 117.062911 281.382135 
L 119.965737 281.412347 
L 122.868564 281.442558 
L 125.77139 281.412347 
L 128.674217 281.533192 
L 131.577044 281.382135 
L 134.47987 281.472769 
L 137.382697 281.533192 
L 140.285523 281.351924 
L 143.18835 281.231079 
L 146.091176 281.382135 
L 148.994003 281.71446 
L 151.89683 281.533192 
L 154.799656 281.533192 
L 157.702483 281.382135 
L 160.605309 281.533192 
L 163.508136 281.563403 
L 166.410963 281.472769 
L 169.313789 281.502981 
L 172.216616 281.321713 
L 175.119442 281.502981 
L 178.022269 281.442558 
L 180.925095 281.382135 
L 183.827922 281.351924 
L 186.730749 281.26129 
L 189.633575 281.412347 
L 192.536402 281.442558 
L 195.439228 281.563403 
L 198.342055 281.412347 
L 201.244882 281.382135 
L 204.147708 281.533192 
L 207.050535 281.321713 
L 209.953361 281.412347 
L 212.856188 281.593614 
L 215.759015 281.472769 
L 218.661841 281.442558 
L 221.564668 281.442558 
L 224.467494 281.231079 
L 227.370321 281.533192 
L 230.273147 281.593614 
L 233.175974 281.502981 
L 236.078801 281.533192 
L 238.981627 281.502981 
L 241.884454 281.623826 
L 244.78728 281.472769 
L 247.690107 281.321713 
L 250.592934 281.533192 
L 253.49576 281.110234 
L 256.398587 281.26129 
L 259.301413 281.321713 
L 262.20424 281.321713 
L 265.107066 281.472769 
L 268.009893 281.351924 
L 270.91272 281.321713 
L 273.815546 281.110234 
L 276.718373 281.321713 
L 279.621199 281.382135 
L 282.524026 281.080022 
L 285.426853 280.808121 
L 288.329679 281.351924 
L 291.232506 281.382135 
L 294.135332 279.509035 
L 297.038159 281.049811 
L 299.940985 281.321713 
L 302.843812 225.974619 
L 305.746639 279.599669 
L 308.649465 281.502981 
L 311.552292 281.412347 
L 314.455118 281.26129 
L 317.357945 280.989389 
L 320.260772 280.264317 
L 323.163598 281.140445 
L 326.066425 281.26129 
L 328.969251 278.783964 
L 331.872078 281.231079 
L 334.774905 281.351924 
L 337.677731 281.291502 
L 340.580558 277.243188 
L 343.483384 281.351924 
L 346.386211 261.744793 
L 349.289037 281.593614 
L 352.191864 281.0196 
L 355.094691 273.950157 
L 357.997517 280.928966 
L 360.900344 281.080022 
L 363.80317 280.777909 
L 366.705997 269.206983 
L 369.608824 280.808121 
L 372.51165 271.714521 
L 375.414477 280.626853 
L 378.317303 281.0196 
L 381.22013 280.717487 
L 384.122956 276.548328 
L 387.025783 281.0196 
L 389.92861 271.593676 
L 392.831436 281.0196 
L 395.734263 271.714521 
L 398.637089 279.357979 
L 401.539916 243.49717 
L 404.442743 270.173745 
L 407.345569 265.702473 
L 410.248396 278.753753 
L 413.151222 280.898755 
L 416.054049 276.034736 
L 418.956875 273.587621 
L 421.859702 266.276487 
L 424.762529 276.638962 
L 427.665355 280.959177 
L 430.568182 280.415374 
" clip-path="url(#p4ae201562d)" style="fill: none; stroke: #4c72b0; stroke-width: 3; stroke-linecap: round"/>
   </g>
   <g id="line2d_17">
    <path d="M 85.131818 160.416106 
L 88.034645 160.579247 
L 90.937471 173.775541 
L 93.840298 157.975034 
L 96.743125 281.859474 
L 99.645951 281.865516 
L 102.548778 281.58153 
L 105.451604 278.657077 
L 108.354431 269.817251 
L 111.257257 276.808145 
L 114.160084 276.046821 
L 117.062911 279.430486 
L 119.965737 273.255297 
L 122.868564 280.234106 
L 125.77139 281.732586 
L 128.674217 279.261302 
L 131.577044 276.203919 
L 134.47987 279.086077 
L 137.382697 279.502993 
L 140.285523 278.016597 
L 143.18835 277.94409 
L 146.091176 277.237146 
L 148.994003 279.345894 
L 151.89683 275.913891 
L 154.799656 276.185793 
L 157.702483 276.113285 
L 160.605309 280.608726 
L 163.508136 276.216004 
L 166.410963 274.850453 
L 169.313789 276.44561 
L 172.216616 280.409332 
L 175.119442 281.847389 
L 178.022269 278.022639 
L 180.925095 281.412347 
L 183.827922 275.061932 
L 186.730749 281.267332 
L 189.633575 280.028669 
L 192.536402 281.279417 
L 195.439228 281.817178 
L 198.342055 280.675191 
L 201.244882 277.805118 
L 204.147708 279.080035 
L 207.050535 280.977304 
L 209.953361 281.82322 
L 212.856188 281.436516 
L 215.759015 276.155581 
L 218.661841 281.26129 
L 221.564668 280.131388 
L 224.467494 280.391205 
L 227.370321 281.811136 
L 230.273147 281.684248 
L 233.175974 281.82322 
L 236.078801 280.826248 
L 238.981627 280.777909 
L 241.884454 281.478812 
L 244.78728 281.799051 
L 247.690107 280.705402 
L 250.592934 281.780925 
L 253.49576 281.786967 
L 256.398587 278.512062 
L 259.301413 274.596678 
L 262.20424 280.493923 
L 265.107066 281.82322 
L 268.009893 281.20691 
L 270.91272 279.418401 
L 273.815546 281.218994 
L 276.718373 280.107219 
L 279.621199 279.944078 
L 282.524026 280.077007 
L 285.426853 277.013582 
L 288.329679 278.548316 
L 291.232506 281.225037 
L 294.135332 281.406304 
L 297.038159 281.744671 
L 299.940985 281.76884 
L 302.843812 281.786967 
L 305.746639 281.805094 
L 308.649465 281.212952 
L 311.552292 280.687276 
L 314.455118 280.983346 
L 317.357945 281.774882 
L 320.260772 281.793009 
L 323.163598 281.793009 
L 326.066425 281.799051 
L 328.969251 281.569445 
L 331.872078 281.684248 
L 334.774905 281.738629 
L 337.677731 281.835305 
L 340.580558 279.841359 
L 343.483384 281.092107 
L 346.386211 277.938048 
L 349.289037 281.641953 
L 352.191864 281.805094 
L 355.094691 281.243163 
L 357.997517 281.76884 
L 360.900344 279.406317 
L 363.80317 281.388178 
L 366.705997 281.188783 
L 369.608824 281.793009 
L 372.51165 281.793009 
L 375.414477 281.799051 
L 378.317303 281.376093 
L 381.22013 281.82322 
L 384.122956 281.569445 
L 387.025783 281.104191 
L 389.92861 281.805094 
L 392.831436 281.817178 
L 395.734263 280.977304 
L 398.637089 281.786967 
L 401.539916 281.533192 
L 404.442743 281.799051 
L 407.345569 281.793009 
L 410.248396 281.539234 
L 413.151222 281.829263 
L 416.054049 281.605699 
L 418.956875 281.774882 
L 421.859702 281.799051 
L 424.762529 281.780925 
L 427.665355 280.850417 
L 430.568182 281.786967 
" clip-path="url(#p4ae201562d)" style="fill: none; stroke: #dd8452; stroke-width: 3; stroke-linecap: round"/>
   </g>
   <g id="line2d_18">
    <path d="M 85.131818 179.866139 
L 88.034645 167.793705 
L 90.937471 168.917565 
L 93.840298 158.802823 
L 96.743125 281.865516 
L 99.645951 281.865516 
L 102.548778 274.506044 
L 105.451604 276.246215 
L 108.354431 274.107255 
L 111.257257 278.107231 
L 114.160084 275.980356 
L 117.062911 278.209949 
L 119.965737 275.738665 
L 122.868564 277.962217 
L 125.77139 280.506008 
L 128.674217 278.246203 
L 131.577044 281.484854 
L 134.47987 279.515077 
L 137.382697 275.043806 
L 140.285523 278.542274 
L 143.18835 278.910851 
L 146.091176 278.089104 
L 148.994003 277.617808 
L 151.89683 281.327755 
L 154.799656 280.75374 
L 157.702483 277.780949 
L 160.605309 278.735626 
L 163.508136 274.083086 
L 166.410963 280.077007 
L 169.313789 281.805094 
L 172.216616 280.910839 
L 175.119442 279.829275 
L 178.022269 281.684248 
L 180.925095 280.469754 
L 183.827922 279.823233 
L 186.730749 281.128361 
L 189.633575 280.572473 
L 192.536402 280.596642 
L 195.439228 278.439555 
L 198.342055 280.916881 
L 201.244882 281.563403 
L 204.147708 277.025667 
L 207.050535 281.774882 
L 209.953361 276.300595 
L 212.856188 280.318698 
L 215.759015 278.916894 
L 218.661841 278.040766 
L 221.564668 278.947105 
L 224.467494 278.959189 
L 227.370321 281.817178 
L 230.273147 279.080035 
L 233.175974 278.898767 
L 236.078801 280.070965 
L 238.981627 279.472782 
L 241.884454 278.657077 
L 244.78728 278.536231 
L 247.690107 281.231079 
L 250.592934 278.518105 
L 253.49576 278.536231 
L 256.398587 278.203907 
L 259.301413 281.031684 
L 262.20424 278.928978 
L 265.107066 281.599657 
L 268.009893 280.034712 
L 270.91272 280.179726 
L 273.815546 280.185768 
L 276.718373 277.895752 
L 279.621199 280.052838 
L 282.524026 280.342867 
L 285.426853 281.793009 
L 288.329679 281.587572 
L 291.232506 279.339852 
L 294.135332 280.203895 
L 297.038159 280.397247 
L 299.940985 279.019612 
L 302.843812 281.660079 
L 305.746639 280.717487 
L 308.649465 281.726544 
L 311.552292 278.995443 
L 314.455118 278.971274 
L 317.357945 278.850429 
L 320.260772 279.666134 
L 323.163598 277.829287 
L 326.066425 280.427458 
L 328.969251 278.312668 
L 331.872078 281.756755 
L 334.774905 279.484866 
L 337.677731 280.953135 
L 340.580558 279.871571 
L 343.483384 280.51205 
L 346.386211 278.288499 
L 349.289037 280.506008 
L 352.191864 281.575488 
L 355.094691 280.203895 
L 357.997517 281.744671 
L 360.900344 281.400262 
L 363.80317 278.608738 
L 366.705997 281.218994 
L 369.608824 281.025642 
L 372.51165 281.297544 
L 375.414477 280.046796 
L 378.317303 280.578515 
L 381.22013 279.06795 
L 384.122956 280.022627 
L 387.025783 280.759783 
L 389.92861 281.672164 
L 392.831436 279.080035 
L 395.734263 280.771867 
L 398.637089 281.388178 
L 401.539916 281.092107 
L 404.442743 281.309628 
L 407.345569 279.986374 
L 410.248396 279.738641 
L 413.151222 280.173684 
L 416.054049 281.231079 
L 418.956875 281.279417 
L 421.859702 281.225037 
L 424.762529 280.729571 
L 427.665355 281.382135 
L 430.568182 279.436528 
" clip-path="url(#p4ae201562d)" style="fill: none; stroke: #55a868; stroke-width: 3; stroke-linecap: round"/>
   </g>
   <g id="line2d_19">
    <path d="M 85.131818 172.742315 
L 88.034645 155.763567 
L 90.937471 151.775676 
L 93.840298 158.391949 
L 96.743125 159.751458 
L 99.645951 281.533192 
L 102.548778 281.593614 
L 105.451604 279.478824 
L 108.354431 275.88368 
L 111.257257 280.052838 
L 114.160084 281.412347 
L 117.062911 279.055866 
L 119.965737 281.412347 
L 122.868564 274.705439 
L 125.77139 281.382135 
L 128.674217 281.291502 
L 131.577044 281.442558 
L 134.47987 281.382135 
L 137.382697 281.412347 
L 140.285523 281.321713 
L 143.18835 281.412347 
L 146.091176 275.007552 
L 148.994003 281.080022 
L 151.89683 281.412347 
L 154.799656 281.382135 
L 157.702483 281.321713 
L 160.605309 281.351924 
L 163.508136 270.747759 
L 166.410963 281.321713 
L 169.313789 280.56643 
L 172.216616 281.26129 
L 175.119442 281.382135 
L 178.022269 281.351924 
L 180.925095 281.502981 
L 183.827922 281.351924 
L 186.730749 281.321713 
L 189.633575 281.382135 
L 192.536402 278.904809 
L 195.439228 281.412347 
L 198.342055 281.412347 
L 201.244882 281.26129 
L 204.147708 281.472769 
L 207.050535 281.382135 
L 209.953361 281.412347 
L 212.856188 281.502981 
L 215.759015 281.442558 
L 218.661841 281.472769 
L 221.564668 279.569458 
L 224.467494 281.291502 
L 227.370321 281.382135 
L 230.273147 281.442558 
L 233.175974 281.382135 
L 236.078801 281.291502 
L 238.981627 281.472769 
L 241.884454 281.351924 
L 244.78728 281.533192 
L 247.690107 281.26129 
L 250.592934 281.351924 
L 253.49576 281.412347 
L 256.398587 281.382135 
L 259.301413 281.351924 
L 262.20424 281.472769 
L 265.107066 281.291502 
L 268.009893 281.502981 
L 270.91272 281.321713 
L 273.815546 281.412347 
L 276.718373 281.502981 
L 279.621199 281.442558 
L 282.524026 281.351924 
L 285.426853 281.472769 
L 288.329679 281.231079 
L 291.232506 281.412347 
L 294.135332 281.442558 
L 297.038159 281.26129 
L 299.940985 281.321713 
L 302.843812 281.382135 
L 305.746639 281.442558 
L 308.649465 281.291502 
L 311.552292 281.200868 
L 314.455118 281.170656 
L 317.357945 281.140445 
L 320.260772 281.26129 
L 323.163598 281.321713 
L 326.066425 281.502981 
L 328.969251 281.321713 
L 331.872078 281.231079 
L 334.774905 281.291502 
L 337.677731 281.26129 
L 340.580558 281.26129 
L 343.483384 281.26129 
L 346.386211 281.321713 
L 349.289037 281.351924 
L 352.191864 281.321713 
L 355.094691 281.412347 
L 357.997517 281.200868 
L 360.900344 281.26129 
L 363.80317 281.382135 
L 366.705997 281.382135 
L 369.608824 281.351924 
L 372.51165 281.321713 
L 375.414477 281.049811 
L 378.317303 281.231079 
L 381.22013 281.321713 
L 384.122956 281.351924 
L 387.025783 281.291502 
L 389.92861 281.412347 
L 392.831436 281.291502 
L 395.734263 281.442558 
L 398.637089 281.351924 
L 401.539916 281.351924 
L 404.442743 281.26129 
L 407.345569 281.110234 
L 410.248396 281.049811 
L 413.151222 281.412347 
L 416.054049 281.321713 
L 418.956875 281.382135 
L 421.859702 281.321713 
L 424.762529 281.200868 
L 427.665355 281.0196 
L 430.568182 281.170656 
" clip-path="url(#p4ae201562d)" style="fill: none; stroke: #c44e52; stroke-width: 3; stroke-linecap: round"/>
   </g>
   <g id="patch_3">
    <path d="M 67.86 294.66 
L 67.86 13.181355 
" style="fill: none; stroke: #ffffff; stroke-width: 1.25; stroke-linejoin: miter; stroke-linecap: square"/>
   </g>
   <g id="patch_4">
    <path d="M 447.84 294.66 
L 447.84 13.181355 
" style="fill: none; stroke: #ffffff; stroke-width: 1.25; stroke-linejoin: miter; stroke-linecap: square"/>
   </g>
   <g id="patch_5">
    <path d="M 67.86 294.66 
L 447.84 294.66 
" style="fill: none; stroke: #ffffff; stroke-width: 1.25; stroke-linejoin: miter; stroke-linecap: square"/>
   </g>
   <g id="patch_6">
    <path d="M 67.86 13.181355 
L 447.84 13.181355 
" style="fill: none; stroke: #ffffff; stroke-width: 1.25; stroke-linejoin: miter; stroke-linecap: square"/>
   </g>
   <g id="legend_1">
    <g id="patch_7">
     <path d="M 319.722656 86.565105 
L 440.14 86.565105 
Q 442.34 86.565105 442.34 84.365105 
L 442.34 20.881355 
Q 442.34 18.681355 440.14 18.681355 
L 319.722656 18.681355 
Q 317.522656 18.681355 317.522656 20.881355 
L 317.522656 84.365105 
Q 317.522656 86.565105 319.722656 86.565105 
z
" style="fill: #eaeaf2; opacity: 0.8; stroke: #cccccc; stroke-linejoin: miter"/>
    </g>
    <g id="line2d_20">
     <path d="M 321.922656 27.589637 
L 332.922656 27.589637 
L 343.922656 27.589637 
" style="fill: none; stroke: #4c72b0; stroke-width: 3; stroke-linecap: round"/>
    </g>
    <g id="text_18">
     <!-- DATS-DELAY-1 -->
     <g style="fill: #262626" transform="translate(352.722656 31.439637)scale(0.11 -0.11)">
      <defs>
       <path id="DejaVuSans-44" d="M 1259 4147 
L 1259 519 
L 2022 519 
Q 2988 519 3436 956 
Q 3884 1394 3884 2338 
Q 3884 3275 3436 3711 
Q 2988 4147 2022 4147 
L 1259 4147 
z
M 628 4666 
L 1925 4666 
Q 3281 4666 3915 4102 
Q 4550 3538 4550 2338 
Q 4550 1131 3912 565 
Q 3275 0 1925 0 
L 628 0 
L 628 4666 
z
" transform="scale(0.015625)"/>
       <path id="DejaVuSans-41" d="M 2188 4044 
L 1331 1722 
L 3047 1722 
L 2188 4044 
z
M 1831 4666 
L 2547 4666 
L 4325 0 
L 3669 0 
L 3244 1197 
L 1141 1197 
L 716 0 
L 50 0 
L 1831 4666 
z
" transform="scale(0.015625)"/>
       <path id="DejaVuSans-54" d="M -19 4666 
L 3928 4666 
L 3928 4134 
L 2272 4134 
L 2272 0 
L 1638 0 
L 1638 4134 
L -19 4134 
L -19 4666 
z
" transform="scale(0.015625)"/>
       <path id="DejaVuSans-53" d="M 3425 4513 
L 3425 3897 
Q 3066 4069 2747 4153 
Q 2428 4238 2131 4238 
Q 1616 4238 1336 4038 
Q 1056 3838 1056 3469 
Q 1056 3159 1242 3001 
Q 1428 2844 1947 2747 
L 2328 2669 
Q 3034 2534 3370 2195 
Q 3706 1856 3706 1288 
Q 3706 609 3251 259 
Q 2797 -91 1919 -91 
Q 1588 -91 1214 -16 
Q 841 59 441 206 
L 441 856 
Q 825 641 1194 531 
Q 1563 422 1919 422 
Q 2459 422 2753 634 
Q 3047 847 3047 1241 
Q 3047 1584 2836 1778 
Q 2625 1972 2144 2069 
L 1759 2144 
Q 1053 2284 737 2584 
Q 422 2884 422 3419 
Q 422 4038 858 4394 
Q 1294 4750 2059 4750 
Q 2388 4750 2728 4690 
Q 3069 4631 3425 4513 
z
" transform="scale(0.015625)"/>
       <path id="DejaVuSans-2d" d="M 313 2009 
L 1997 2009 
L 1997 1497 
L 313 1497 
L 313 2009 
z
" transform="scale(0.015625)"/>
       <path id="DejaVuSans-45" d="M 628 4666 
L 3578 4666 
L 3578 4134 
L 1259 4134 
L 1259 2753 
L 3481 2753 
L 3481 2222 
L 1259 2222 
L 1259 531 
L 3634 531 
L 3634 0 
L 628 0 
L 628 4666 
z
" transform="scale(0.015625)"/>
       <path id="DejaVuSans-4c" d="M 628 4666 
L 1259 4666 
L 1259 531 
L 3531 531 
L 3531 0 
L 628 0 
L 628 4666 
z
" transform="scale(0.015625)"/>
       <path id="DejaVuSans-59" d="M -13 4666 
L 666 4666 
L 1959 2747 
L 3244 4666 
L 3922 4666 
L 2272 2222 
L 2272 0 
L 1638 0 
L 1638 2222 
L -13 4666 
z
" transform="scale(0.015625)"/>
      </defs>
      <use xlink:href="#DejaVuSans-44"/>
      <use xlink:href="#DejaVuSans-41" x="75.251953"/>
      <use xlink:href="#DejaVuSans-54" x="135.910156"/>
      <use xlink:href="#DejaVuSans-53" x="196.994141"/>
      <use xlink:href="#DejaVuSans-2d" x="260.470703"/>
      <use xlink:href="#DejaVuSans-44" x="296.554688"/>
      <use xlink:href="#DejaVuSans-45" x="373.556641"/>
      <use xlink:href="#DejaVuSans-4c" x="436.740234"/>
      <use xlink:href="#DejaVuSans-41" x="494.703125"/>
      <use xlink:href="#DejaVuSans-59" x="555.361328"/>
      <use xlink:href="#DejaVuSans-2d" x="604.570312"/>
      <use xlink:href="#DejaVuSans-31" x="640.654297"/>
     </g>
    </g>
    <g id="line2d_21">
     <path d="M 321.922656 43.735574 
L 332.922656 43.735574 
L 343.922656 43.735574 
" style="fill: none; stroke: #dd8452; stroke-width: 3; stroke-linecap: round"/>
    </g>
    <g id="text_19">
     <!-- SAC-DELAY-1 -->
     <g style="fill: #262626" transform="translate(352.722656 47.585574)scale(0.11 -0.11)">
      <defs>
       <path id="DejaVuSans-43" d="M 4122 4306 
L 4122 3641 
Q 3803 3938 3442 4084 
Q 3081 4231 2675 4231 
Q 1875 4231 1450 3742 
Q 1025 3253 1025 2328 
Q 1025 1406 1450 917 
Q 1875 428 2675 428 
Q 3081 428 3442 575 
Q 3803 722 4122 1019 
L 4122 359 
Q 3791 134 3420 21 
Q 3050 -91 2638 -91 
Q 1578 -91 968 557 
Q 359 1206 359 2328 
Q 359 3453 968 4101 
Q 1578 4750 2638 4750 
Q 3056 4750 3426 4639 
Q 3797 4528 4122 4306 
z
" transform="scale(0.015625)"/>
      </defs>
      <use xlink:href="#DejaVuSans-53"/>
      <use xlink:href="#DejaVuSans-41" x="65.351562"/>
      <use xlink:href="#DejaVuSans-43" x="132.009766"/>
      <use xlink:href="#DejaVuSans-2d" x="201.833984"/>
      <use xlink:href="#DejaVuSans-44" x="237.917969"/>
      <use xlink:href="#DejaVuSans-45" x="314.919922"/>
      <use xlink:href="#DejaVuSans-4c" x="378.103516"/>
      <use xlink:href="#DejaVuSans-41" x="436.066406"/>
      <use xlink:href="#DejaVuSans-59" x="496.724609"/>
      <use xlink:href="#DejaVuSans-2d" x="545.933594"/>
      <use xlink:href="#DejaVuSans-31" x="582.017578"/>
     </g>
    </g>
    <g id="line2d_22">
     <path d="M 321.922656 59.881512 
L 332.922656 59.881512 
L 343.922656 59.881512 
" style="fill: none; stroke: #55a868; stroke-width: 3; stroke-linecap: round"/>
    </g>
    <g id="text_20">
     <!-- SAC-IS-DELAY-1 -->
     <g style="fill: #262626" transform="translate(352.722656 63.731512)scale(0.11 -0.11)">
      <defs>
       <path id="DejaVuSans-49" d="M 628 4666 
L 1259 4666 
L 1259 0 
L 628 0 
L 628 4666 
z
" transform="scale(0.015625)"/>
      </defs>
      <use xlink:href="#DejaVuSans-53"/>
      <use xlink:href="#DejaVuSans-41" x="65.351562"/>
      <use xlink:href="#DejaVuSans-43" x="132.009766"/>
      <use xlink:href="#DejaVuSans-2d" x="201.833984"/>
      <use xlink:href="#DejaVuSans-49" x="237.917969"/>
      <use xlink:href="#DejaVuSans-53" x="267.410156"/>
      <use xlink:href="#DejaVuSans-2d" x="330.886719"/>
      <use xlink:href="#DejaVuSans-44" x="366.970703"/>
      <use xlink:href="#DejaVuSans-45" x="443.972656"/>
      <use xlink:href="#DejaVuSans-4c" x="507.15625"/>
      <use xlink:href="#DejaVuSans-41" x="565.119141"/>
      <use xlink:href="#DejaVuSans-59" x="625.777344"/>
      <use xlink:href="#DejaVuSans-2d" x="674.986328"/>
      <use xlink:href="#DejaVuSans-31" x="711.070312"/>
     </g>
    </g>
    <g id="line2d_23">
     <path d="M 321.922656 76.027449 
L 332.922656 76.027449 
L 343.922656 76.027449 
" style="fill: none; stroke: #c44e52; stroke-width: 3; stroke-linecap: round"/>
    </g>
    <g id="text_21">
     <!-- DCAC-DELAY-1 -->
     <g style="fill: #262626" transform="translate(352.722656 79.877449)scale(0.11 -0.11)">
      <use xlink:href="#DejaVuSans-44"/>
      <use xlink:href="#DejaVuSans-43" x="77.001953"/>
      <use xlink:href="#DejaVuSans-41" x="146.826172"/>
      <use xlink:href="#DejaVuSans-43" x="213.484375"/>
      <use xlink:href="#DejaVuSans-2d" x="283.308594"/>
      <use xlink:href="#DejaVuSans-44" x="319.392578"/>
      <use xlink:href="#DejaVuSans-45" x="396.394531"/>
      <use xlink:href="#DejaVuSans-4c" x="459.578125"/>
      <use xlink:href="#DejaVuSans-41" x="517.541016"/>
      <use xlink:href="#DejaVuSans-59" x="578.199219"/>
      <use xlink:href="#DejaVuSans-2d" x="627.408203"/>
      <use xlink:href="#DejaVuSans-31" x="663.492188"/>
     </g>
    </g>
   </g>
  </g>
 </g>
 <defs>
  <clipPath id="p4ae201562d">
   <rect x="67.86" y="13.181355" width="379.98" height="281.478645"/>
  </clipPath>
 </defs>
</svg>
