<?xml version="1.0" encoding="utf-8" standalone="no"?>
<!DOCTYPE svg PUBLIC "-//W3C//DTD SVG 1.1//EN"
  "http://www.w3.org/Graphics/SVG/1.1/DTD/svg11.dtd">
<svg xmlns:xlink="http://www.w3.org/1999/xlink" width="460.8pt" height="345.6pt" viewBox="0 0 460.8 345.6" xmlns="http://www.w3.org/2000/svg" version="1.1">
 <metadata>
  <rdf:RDF xmlns:dc="http://purl.org/dc/elements/1.1/" xmlns:cc="http://creativecommons.org/ns#" xmlns:rdf="http://www.w3.org/1999/02/22-rdf-syntax-ns#">
   <cc:Work>
    <dc:type rdf:resource="http://purl.org/dc/dcmitype/StillImage"/>
    <dc:date>2022-09-12T15:17:33.549726</dc:date>
    <dc:format>image/svg+xml</dc:format>
    <dc:creator>
     <cc:Agent>
      <dc:title>Matplotlib v3.5.3, https://matplotlib.org/</dc:title>
     </cc:Agent>
    </dc:creator>
   </cc:Work>
  </rdf:RDF>
 </metadata>
 <defs>
  <style type="text/css">*{stroke-linejoin: round; stroke-linecap: butt}</style>
 </defs>
 <g id="figure_1">
  <g id="patch_1">
   <path d="M 0 345.6 
L 460.8 345.6 
L 460.8 0 
L 0 0 
z
" style="fill: #ffffff"/>
  </g>
  <g id="axes_1">
   <g id="patch_2">
    <path d="M 67.86 294.66 
L 447.84 294.66 
L 447.84 12.96 
L 67.86 12.96 
z
" style="fill: #eaeaf2"/>
   </g>
   <g id="matplotlib.axis_1">
    <g id="xtick_1">
     <g id="line2d_1">
      <path d="M 82.228992 294.66 
L 82.228992 12.96 
" clip-path="url(#p2f3bfa6539)" style="fill: none; stroke: #ffffff; stroke-linecap: round"/>
     </g>
     <g id="text_1">
      <!-- 0.00 -->
      <g style="fill: #262626" transform="translate(69.982898 312.518281)scale(0.11 -0.11)">
       <defs>
        <path id="DejaVuSans-30" d="M 2034 4250 
Q 1547 4250 1301 3770 
Q 1056 3291 1056 2328 
Q 1056 1369 1301 889 
Q 1547 409 2034 409 
Q 2525 409 2770 889 
Q 3016 1369 3016 2328 
Q 3016 3291 2770 3770 
Q 2525 4250 2034 4250 
z
M 2034 4750 
Q 2819 4750 3233 4129 
Q 3647 3509 3647 2328 
Q 3647 1150 3233 529 
Q 2819 -91 2034 -91 
Q 1250 -91 836 529 
Q 422 1150 422 2328 
Q 422 3509 836 4129 
Q 1250 4750 2034 4750 
z
" transform="scale(0.015625)"/>
        <path id="DejaVuSans-2e" d="M 684 794 
L 1344 794 
L 1344 0 
L 684 0 
L 684 794 
z
" transform="scale(0.015625)"/>
       </defs>
       <use xlink:href="#DejaVuSans-30"/>
       <use xlink:href="#DejaVuSans-2e" x="63.623047"/>
       <use xlink:href="#DejaVuSans-30" x="95.410156"/>
       <use xlink:href="#DejaVuSans-30" x="159.033203"/>
      </g>
     </g>
    </g>
    <g id="xtick_2">
     <g id="line2d_2">
      <path d="M 140.285523 294.66 
L 140.285523 12.96 
" clip-path="url(#p2f3bfa6539)" style="fill: none; stroke: #ffffff; stroke-linecap: round"/>
     </g>
     <g id="text_2">
      <!-- 0.05 -->
      <g style="fill: #262626" transform="translate(128.03943 312.518281)scale(0.11 -0.11)">
       <defs>
        <path id="DejaVuSans-35" d="M 691 4666 
L 3169 4666 
L 3169 4134 
L 1269 4134 
L 1269 2991 
Q 1406 3038 1543 3061 
Q 1681 3084 1819 3084 
Q 2600 3084 3056 2656 
Q 3513 2228 3513 1497 
Q 3513 744 3044 326 
Q 2575 -91 1722 -91 
Q 1428 -91 1123 -41 
Q 819 9 494 109 
L 494 744 
Q 775 591 1075 516 
Q 1375 441 1709 441 
Q 2250 441 2565 725 
Q 2881 1009 2881 1497 
Q 2881 1984 2565 2268 
Q 2250 2553 1709 2553 
Q 1456 2553 1204 2497 
Q 953 2441 691 2322 
L 691 4666 
z
" transform="scale(0.015625)"/>
       </defs>
       <use xlink:href="#DejaVuSans-30"/>
       <use xlink:href="#DejaVuSans-2e" x="63.623047"/>
       <use xlink:href="#DejaVuSans-30" x="95.410156"/>
       <use xlink:href="#DejaVuSans-35" x="159.033203"/>
      </g>
     </g>
    </g>
    <g id="xtick_3">
     <g id="line2d_3">
      <path d="M 198.342055 294.66 
L 198.342055 12.96 
" clip-path="url(#p2f3bfa6539)" style="fill: none; stroke: #ffffff; stroke-linecap: round"/>
     </g>
     <g id="text_3">
      <!-- 0.10 -->
      <g style="fill: #262626" transform="translate(186.095961 312.518281)scale(0.11 -0.11)">
       <defs>
        <path id="DejaVuSans-31" d="M 794 531 
L 1825 531 
L 1825 4091 
L 703 3866 
L 703 4441 
L 1819 4666 
L 2450 4666 
L 2450 531 
L 3481 531 
L 3481 0 
L 794 0 
L 794 531 
z
" transform="scale(0.015625)"/>
       </defs>
       <use xlink:href="#DejaVuSans-30"/>
       <use xlink:href="#DejaVuSans-2e" x="63.623047"/>
       <use xlink:href="#DejaVuSans-31" x="95.410156"/>
       <use xlink:href="#DejaVuSans-30" x="159.033203"/>
      </g>
     </g>
    </g>
    <g id="xtick_4">
     <g id="line2d_4">
      <path d="M 256.398587 294.66 
L 256.398587 12.96 
" clip-path="url(#p2f3bfa6539)" style="fill: none; stroke: #ffffff; stroke-linecap: round"/>
     </g>
     <g id="text_4">
      <!-- 0.15 -->
      <g style="fill: #262626" transform="translate(244.152493 312.518281)scale(0.11 -0.11)">
       <use xlink:href="#DejaVuSans-30"/>
       <use xlink:href="#DejaVuSans-2e" x="63.623047"/>
       <use xlink:href="#DejaVuSans-31" x="95.410156"/>
       <use xlink:href="#DejaVuSans-35" x="159.033203"/>
      </g>
     </g>
    </g>
    <g id="xtick_5">
     <g id="line2d_5">
      <path d="M 314.455118 294.66 
L 314.455118 12.96 
" clip-path="url(#p2f3bfa6539)" style="fill: none; stroke: #ffffff; stroke-linecap: round"/>
     </g>
     <g id="text_5">
      <!-- 0.20 -->
      <g style="fill: #262626" transform="translate(302.209025 312.518281)scale(0.11 -0.11)">
       <defs>
        <path id="DejaVuSans-32" d="M 1228 531 
L 3431 531 
L 3431 0 
L 469 0 
L 469 531 
Q 828 903 1448 1529 
Q 2069 2156 2228 2338 
Q 2531 2678 2651 2914 
Q 2772 3150 2772 3378 
Q 2772 3750 2511 3984 
Q 2250 4219 1831 4219 
Q 1534 4219 1204 4116 
Q 875 4013 500 3803 
L 500 4441 
Q 881 4594 1212 4672 
Q 1544 4750 1819 4750 
Q 2544 4750 2975 4387 
Q 3406 4025 3406 3419 
Q 3406 3131 3298 2873 
Q 3191 2616 2906 2266 
Q 2828 2175 2409 1742 
Q 1991 1309 1228 531 
z
" transform="scale(0.015625)"/>
       </defs>
       <use xlink:href="#DejaVuSans-30"/>
       <use xlink:href="#DejaVuSans-2e" x="63.623047"/>
       <use xlink:href="#DejaVuSans-32" x="95.410156"/>
       <use xlink:href="#DejaVuSans-30" x="159.033203"/>
      </g>
     </g>
    </g>
    <g id="xtick_6">
     <g id="line2d_6">
      <path d="M 372.51165 294.66 
L 372.51165 12.96 
" clip-path="url(#p2f3bfa6539)" style="fill: none; stroke: #ffffff; stroke-linecap: round"/>
     </g>
     <g id="text_6">
      <!-- 0.25 -->
      <g style="fill: #262626" transform="translate(360.265556 312.518281)scale(0.11 -0.11)">
       <use xlink:href="#DejaVuSans-30"/>
       <use xlink:href="#DejaVuSans-2e" x="63.623047"/>
       <use xlink:href="#DejaVuSans-32" x="95.410156"/>
       <use xlink:href="#DejaVuSans-35" x="159.033203"/>
      </g>
     </g>
    </g>
    <g id="xtick_7">
     <g id="line2d_7">
      <path d="M 430.568182 294.66 
L 430.568182 12.96 
" clip-path="url(#p2f3bfa6539)" style="fill: none; stroke: #ffffff; stroke-linecap: round"/>
     </g>
     <g id="text_7">
      <!-- 0.30 -->
      <g style="fill: #262626" transform="translate(418.322088 312.518281)scale(0.11 -0.11)">
       <defs>
        <path id="DejaVuSans-33" d="M 2597 2516 
Q 3050 2419 3304 2112 
Q 3559 1806 3559 1356 
Q 3559 666 3084 287 
Q 2609 -91 1734 -91 
Q 1441 -91 1130 -33 
Q 819 25 488 141 
L 488 750 
Q 750 597 1062 519 
Q 1375 441 1716 441 
Q 2309 441 2620 675 
Q 2931 909 2931 1356 
Q 2931 1769 2642 2001 
Q 2353 2234 1838 2234 
L 1294 2234 
L 1294 2753 
L 1863 2753 
Q 2328 2753 2575 2939 
Q 2822 3125 2822 3475 
Q 2822 3834 2567 4026 
Q 2313 4219 1838 4219 
Q 1578 4219 1281 4162 
Q 984 4106 628 3988 
L 628 4550 
Q 988 4650 1302 4700 
Q 1616 4750 1894 4750 
Q 2613 4750 3031 4423 
Q 3450 4097 3450 3541 
Q 3450 3153 3228 2886 
Q 3006 2619 2597 2516 
z
" transform="scale(0.015625)"/>
       </defs>
       <use xlink:href="#DejaVuSans-30"/>
       <use xlink:href="#DejaVuSans-2e" x="63.623047"/>
       <use xlink:href="#DejaVuSans-33" x="95.410156"/>
       <use xlink:href="#DejaVuSans-30" x="159.033203"/>
      </g>
     </g>
    </g>
    <g id="text_8">
     <!-- Zeitschritte (in Millionen) -->
     <g style="fill: #262626" transform="translate(169.935469 329.44375)scale(0.14 -0.14)">
      <defs>
       <path id="DejaVuSans-5a" d="M 359 4666 
L 4025 4666 
L 4025 4184 
L 1075 531 
L 4097 531 
L 4097 0 
L 288 0 
L 288 481 
L 3238 4134 
L 359 4134 
L 359 4666 
z
" transform="scale(0.015625)"/>
       <path id="DejaVuSans-65" d="M 3597 1894 
L 3597 1613 
L 953 1613 
Q 991 1019 1311 708 
Q 1631 397 2203 397 
Q 2534 397 2845 478 
Q 3156 559 3463 722 
L 3463 178 
Q 3153 47 2828 -22 
Q 2503 -91 2169 -91 
Q 1331 -91 842 396 
Q 353 884 353 1716 
Q 353 2575 817 3079 
Q 1281 3584 2069 3584 
Q 2775 3584 3186 3129 
Q 3597 2675 3597 1894 
z
M 3022 2063 
Q 3016 2534 2758 2815 
Q 2500 3097 2075 3097 
Q 1594 3097 1305 2825 
Q 1016 2553 972 2059 
L 3022 2063 
z
" transform="scale(0.015625)"/>
       <path id="DejaVuSans-69" d="M 603 3500 
L 1178 3500 
L 1178 0 
L 603 0 
L 603 3500 
z
M 603 4863 
L 1178 4863 
L 1178 4134 
L 603 4134 
L 603 4863 
z
" transform="scale(0.015625)"/>
       <path id="DejaVuSans-74" d="M 1172 4494 
L 1172 3500 
L 2356 3500 
L 2356 3053 
L 1172 3053 
L 1172 1153 
Q 1172 725 1289 603 
Q 1406 481 1766 481 
L 2356 481 
L 2356 0 
L 1766 0 
Q 1100 0 847 248 
Q 594 497 594 1153 
L 594 3053 
L 172 3053 
L 172 3500 
L 594 3500 
L 594 4494 
L 1172 4494 
z
" transform="scale(0.015625)"/>
       <path id="DejaVuSans-73" d="M 2834 3397 
L 2834 2853 
Q 2591 2978 2328 3040 
Q 2066 3103 1784 3103 
Q 1356 3103 1142 2972 
Q 928 2841 928 2578 
Q 928 2378 1081 2264 
Q 1234 2150 1697 2047 
L 1894 2003 
Q 2506 1872 2764 1633 
Q 3022 1394 3022 966 
Q 3022 478 2636 193 
Q 2250 -91 1575 -91 
Q 1294 -91 989 -36 
Q 684 19 347 128 
L 347 722 
Q 666 556 975 473 
Q 1284 391 1588 391 
Q 1994 391 2212 530 
Q 2431 669 2431 922 
Q 2431 1156 2273 1281 
Q 2116 1406 1581 1522 
L 1381 1569 
Q 847 1681 609 1914 
Q 372 2147 372 2553 
Q 372 3047 722 3315 
Q 1072 3584 1716 3584 
Q 2034 3584 2315 3537 
Q 2597 3491 2834 3397 
z
" transform="scale(0.015625)"/>
       <path id="DejaVuSans-63" d="M 3122 3366 
L 3122 2828 
Q 2878 2963 2633 3030 
Q 2388 3097 2138 3097 
Q 1578 3097 1268 2742 
Q 959 2388 959 1747 
Q 959 1106 1268 751 
Q 1578 397 2138 397 
Q 2388 397 2633 464 
Q 2878 531 3122 666 
L 3122 134 
Q 2881 22 2623 -34 
Q 2366 -91 2075 -91 
Q 1284 -91 818 406 
Q 353 903 353 1747 
Q 353 2603 823 3093 
Q 1294 3584 2113 3584 
Q 2378 3584 2631 3529 
Q 2884 3475 3122 3366 
z
" transform="scale(0.015625)"/>
       <path id="DejaVuSans-68" d="M 3513 2113 
L 3513 0 
L 2938 0 
L 2938 2094 
Q 2938 2591 2744 2837 
Q 2550 3084 2163 3084 
Q 1697 3084 1428 2787 
Q 1159 2491 1159 1978 
L 1159 0 
L 581 0 
L 581 4863 
L 1159 4863 
L 1159 2956 
Q 1366 3272 1645 3428 
Q 1925 3584 2291 3584 
Q 2894 3584 3203 3211 
Q 3513 2838 3513 2113 
z
" transform="scale(0.015625)"/>
       <path id="DejaVuSans-72" d="M 2631 2963 
Q 2534 3019 2420 3045 
Q 2306 3072 2169 3072 
Q 1681 3072 1420 2755 
Q 1159 2438 1159 1844 
L 1159 0 
L 581 0 
L 581 3500 
L 1159 3500 
L 1159 2956 
Q 1341 3275 1631 3429 
Q 1922 3584 2338 3584 
Q 2397 3584 2469 3576 
Q 2541 3569 2628 3553 
L 2631 2963 
z
" transform="scale(0.015625)"/>
       <path id="DejaVuSans-20" transform="scale(0.015625)"/>
       <path id="DejaVuSans-28" d="M 1984 4856 
Q 1566 4138 1362 3434 
Q 1159 2731 1159 2009 
Q 1159 1288 1364 580 
Q 1569 -128 1984 -844 
L 1484 -844 
Q 1016 -109 783 600 
Q 550 1309 550 2009 
Q 550 2706 781 3412 
Q 1013 4119 1484 4856 
L 1984 4856 
z
" transform="scale(0.015625)"/>
       <path id="DejaVuSans-6e" d="M 3513 2113 
L 3513 0 
L 2938 0 
L 2938 2094 
Q 2938 2591 2744 2837 
Q 2550 3084 2163 3084 
Q 1697 3084 1428 2787 
Q 1159 2491 1159 1978 
L 1159 0 
L 581 0 
L 581 3500 
L 1159 3500 
L 1159 2956 
Q 1366 3272 1645 3428 
Q 1925 3584 2291 3584 
Q 2894 3584 3203 3211 
Q 3513 2838 3513 2113 
z
" transform="scale(0.015625)"/>
       <path id="DejaVuSans-4d" d="M 628 4666 
L 1569 4666 
L 2759 1491 
L 3956 4666 
L 4897 4666 
L 4897 0 
L 4281 0 
L 4281 4097 
L 3078 897 
L 2444 897 
L 1241 4097 
L 1241 0 
L 628 0 
L 628 4666 
z
" transform="scale(0.015625)"/>
       <path id="DejaVuSans-6c" d="M 603 4863 
L 1178 4863 
L 1178 0 
L 603 0 
L 603 4863 
z
" transform="scale(0.015625)"/>
       <path id="DejaVuSans-6f" d="M 1959 3097 
Q 1497 3097 1228 2736 
Q 959 2375 959 1747 
Q 959 1119 1226 758 
Q 1494 397 1959 397 
Q 2419 397 2687 759 
Q 2956 1122 2956 1747 
Q 2956 2369 2687 2733 
Q 2419 3097 1959 3097 
z
M 1959 3584 
Q 2709 3584 3137 3096 
Q 3566 2609 3566 1747 
Q 3566 888 3137 398 
Q 2709 -91 1959 -91 
Q 1206 -91 779 398 
Q 353 888 353 1747 
Q 353 2609 779 3096 
Q 1206 3584 1959 3584 
z
" transform="scale(0.015625)"/>
       <path id="DejaVuSans-29" d="M 513 4856 
L 1013 4856 
Q 1481 4119 1714 3412 
Q 1947 2706 1947 2009 
Q 1947 1309 1714 600 
Q 1481 -109 1013 -844 
L 513 -844 
Q 928 -128 1133 580 
Q 1338 1288 1338 2009 
Q 1338 2731 1133 3434 
Q 928 4138 513 4856 
z
" transform="scale(0.015625)"/>
      </defs>
      <use xlink:href="#DejaVuSans-5a"/>
      <use xlink:href="#DejaVuSans-65" x="68.505859"/>
      <use xlink:href="#DejaVuSans-69" x="130.029297"/>
      <use xlink:href="#DejaVuSans-74" x="157.8125"/>
      <use xlink:href="#DejaVuSans-73" x="197.021484"/>
      <use xlink:href="#DejaVuSans-63" x="249.121094"/>
      <use xlink:href="#DejaVuSans-68" x="304.101562"/>
      <use xlink:href="#DejaVuSans-72" x="367.480469"/>
      <use xlink:href="#DejaVuSans-69" x="408.59375"/>
      <use xlink:href="#DejaVuSans-74" x="436.376953"/>
      <use xlink:href="#DejaVuSans-74" x="475.585938"/>
      <use xlink:href="#DejaVuSans-65" x="514.794922"/>
      <use xlink:href="#DejaVuSans-20" x="576.318359"/>
      <use xlink:href="#DejaVuSans-28" x="608.105469"/>
      <use xlink:href="#DejaVuSans-69" x="647.119141"/>
      <use xlink:href="#DejaVuSans-6e" x="674.902344"/>
      <use xlink:href="#DejaVuSans-20" x="738.28125"/>
      <use xlink:href="#DejaVuSans-4d" x="770.068359"/>
      <use xlink:href="#DejaVuSans-69" x="856.347656"/>
      <use xlink:href="#DejaVuSans-6c" x="884.130859"/>
      <use xlink:href="#DejaVuSans-6c" x="911.914062"/>
      <use xlink:href="#DejaVuSans-69" x="939.697266"/>
      <use xlink:href="#DejaVuSans-6f" x="967.480469"/>
      <use xlink:href="#DejaVuSans-6e" x="1028.662109"/>
      <use xlink:href="#DejaVuSans-65" x="1092.041016"/>
      <use xlink:href="#DejaVuSans-6e" x="1153.564453"/>
      <use xlink:href="#DejaVuSans-29" x="1216.943359"/>
     </g>
    </g>
   </g>
   <g id="matplotlib.axis_2">
    <g id="ytick_1">
     <g id="line2d_8">
      <path d="M 67.86 281.855455 
L 447.84 281.855455 
" clip-path="url(#p2f3bfa6539)" style="fill: none; stroke: #ffffff; stroke-linecap: round"/>
     </g>
     <g id="text_9">
      <!-- 0 -->
      <g style="fill: #262626" transform="translate(51.36125 286.034595)scale(0.11 -0.11)">
       <use xlink:href="#DejaVuSans-30"/>
      </g>
     </g>
    </g>
    <g id="ytick_2">
     <g id="line2d_9">
      <path d="M 67.86 245.76598 
L 447.84 245.76598 
" clip-path="url(#p2f3bfa6539)" style="fill: none; stroke: #ffffff; stroke-linecap: round"/>
     </g>
     <g id="text_10">
      <!-- 250 -->
      <g style="fill: #262626" transform="translate(37.36375 249.945121)scale(0.11 -0.11)">
       <use xlink:href="#DejaVuSans-32"/>
       <use xlink:href="#DejaVuSans-35" x="63.623047"/>
       <use xlink:href="#DejaVuSans-30" x="127.246094"/>
      </g>
     </g>
    </g>
    <g id="ytick_3">
     <g id="line2d_10">
      <path d="M 67.86 209.676506 
L 447.84 209.676506 
" clip-path="url(#p2f3bfa6539)" style="fill: none; stroke: #ffffff; stroke-linecap: round"/>
     </g>
     <g id="text_11">
      <!-- 500 -->
      <g style="fill: #262626" transform="translate(37.36375 213.855647)scale(0.11 -0.11)">
       <use xlink:href="#DejaVuSans-35"/>
       <use xlink:href="#DejaVuSans-30" x="63.623047"/>
       <use xlink:href="#DejaVuSans-30" x="127.246094"/>
      </g>
     </g>
    </g>
    <g id="ytick_4">
     <g id="line2d_11">
      <path d="M 67.86 173.587032 
L 447.84 173.587032 
" clip-path="url(#p2f3bfa6539)" style="fill: none; stroke: #ffffff; stroke-linecap: round"/>
     </g>
     <g id="text_12">
      <!-- 750 -->
      <g style="fill: #262626" transform="translate(37.36375 177.766172)scale(0.11 -0.11)">
       <defs>
        <path id="DejaVuSans-37" d="M 525 4666 
L 3525 4666 
L 3525 4397 
L 1831 0 
L 1172 0 
L 2766 4134 
L 525 4134 
L 525 4666 
z
" transform="scale(0.015625)"/>
       </defs>
       <use xlink:href="#DejaVuSans-37"/>
       <use xlink:href="#DejaVuSans-35" x="63.623047"/>
       <use xlink:href="#DejaVuSans-30" x="127.246094"/>
      </g>
     </g>
    </g>
    <g id="ytick_5">
     <g id="line2d_12">
      <path d="M 67.86 137.497558 
L 447.84 137.497558 
" clip-path="url(#p2f3bfa6539)" style="fill: none; stroke: #ffffff; stroke-linecap: round"/>
     </g>
     <g id="text_13">
      <!-- 1000 -->
      <g style="fill: #262626" transform="translate(30.365 141.676698)scale(0.11 -0.11)">
       <use xlink:href="#DejaVuSans-31"/>
       <use xlink:href="#DejaVuSans-30" x="63.623047"/>
       <use xlink:href="#DejaVuSans-30" x="127.246094"/>
       <use xlink:href="#DejaVuSans-30" x="190.869141"/>
      </g>
     </g>
    </g>
    <g id="ytick_6">
     <g id="line2d_13">
      <path d="M 67.86 101.408083 
L 447.84 101.408083 
" clip-path="url(#p2f3bfa6539)" style="fill: none; stroke: #ffffff; stroke-linecap: round"/>
     </g>
     <g id="text_14">
      <!-- 1250 -->
      <g style="fill: #262626" transform="translate(30.365 105.587224)scale(0.11 -0.11)">
       <use xlink:href="#DejaVuSans-31"/>
       <use xlink:href="#DejaVuSans-32" x="63.623047"/>
       <use xlink:href="#DejaVuSans-35" x="127.246094"/>
       <use xlink:href="#DejaVuSans-30" x="190.869141"/>
      </g>
     </g>
    </g>
    <g id="ytick_7">
     <g id="line2d_14">
      <path d="M 67.86 65.318609 
L 447.84 65.318609 
" clip-path="url(#p2f3bfa6539)" style="fill: none; stroke: #ffffff; stroke-linecap: round"/>
     </g>
     <g id="text_15">
      <!-- 1500 -->
      <g style="fill: #262626" transform="translate(30.365 69.49775)scale(0.11 -0.11)">
       <use xlink:href="#DejaVuSans-31"/>
       <use xlink:href="#DejaVuSans-35" x="63.623047"/>
       <use xlink:href="#DejaVuSans-30" x="127.246094"/>
       <use xlink:href="#DejaVuSans-30" x="190.869141"/>
      </g>
     </g>
    </g>
    <g id="ytick_8">
     <g id="line2d_15">
      <path d="M 67.86 29.229135 
L 447.84 29.229135 
" clip-path="url(#p2f3bfa6539)" style="fill: none; stroke: #ffffff; stroke-linecap: round"/>
     </g>
     <g id="text_16">
      <!-- 1750 -->
      <g style="fill: #262626" transform="translate(30.365 33.408276)scale(0.11 -0.11)">
       <use xlink:href="#DejaVuSans-31"/>
       <use xlink:href="#DejaVuSans-37" x="63.623047"/>
       <use xlink:href="#DejaVuSans-35" x="127.246094"/>
       <use xlink:href="#DejaVuSans-30" x="190.869141"/>
      </g>
     </g>
    </g>
    <g id="text_17">
     <!-- # Δx &lt; 0 -->
     <g style="fill: #262626" transform="translate(23.453438 185.600938)rotate(-90)scale(0.14 -0.14)">
      <defs>
       <path id="DejaVuSans-23" d="M 3272 2816 
L 2363 2816 
L 2100 1772 
L 3016 1772 
L 3272 2816 
z
M 2803 4594 
L 2478 3297 
L 3391 3297 
L 3719 4594 
L 4219 4594 
L 3897 3297 
L 4872 3297 
L 4872 2816 
L 3775 2816 
L 3519 1772 
L 4513 1772 
L 4513 1294 
L 3397 1294 
L 3072 0 
L 2572 0 
L 2894 1294 
L 1978 1294 
L 1656 0 
L 1153 0 
L 1478 1294 
L 494 1294 
L 494 1772 
L 1594 1772 
L 1856 2816 
L 850 2816 
L 850 3297 
L 1978 3297 
L 2297 4594 
L 2803 4594 
z
" transform="scale(0.015625)"/>
       <path id="DejaVuSans-394" d="M 2188 4044 
L 906 525 
L 3472 525 
L 2188 4044 
z
M 50 0 
L 1831 4666 
L 2547 4666 
L 4325 0 
L 50 0 
z
" transform="scale(0.015625)"/>
       <path id="DejaVuSans-78" d="M 3513 3500 
L 2247 1797 
L 3578 0 
L 2900 0 
L 1881 1375 
L 863 0 
L 184 0 
L 1544 1831 
L 300 3500 
L 978 3500 
L 1906 2253 
L 2834 3500 
L 3513 3500 
z
" transform="scale(0.015625)"/>
       <path id="DejaVuSans-3c" d="M 4684 3150 
L 1459 2003 
L 4684 863 
L 4684 294 
L 678 1747 
L 678 2266 
L 4684 3719 
L 4684 3150 
z
" transform="scale(0.015625)"/>
      </defs>
      <use xlink:href="#DejaVuSans-23"/>
      <use xlink:href="#DejaVuSans-20" x="83.789062"/>
      <use xlink:href="#DejaVuSans-394" x="115.576172"/>
      <use xlink:href="#DejaVuSans-78" x="183.984375"/>
      <use xlink:href="#DejaVuSans-20" x="243.164062"/>
      <use xlink:href="#DejaVuSans-3c" x="274.951172"/>
      <use xlink:href="#DejaVuSans-20" x="358.740234"/>
      <use xlink:href="#DejaVuSans-30" x="390.527344"/>
     </g>
    </g>
   </g>
   <g id="PolyCollection_1">
    <defs>
     <path id="mdc4844e8bc" d="M 85.131818 -136.789641 
L 85.131818 -192.511789 
L 88.034645 -211.422674 
L 90.937471 -226.868969 
L 93.840298 -204.782211 
L 96.743125 -251.987243 
L 99.645951 -64.177619 
L 102.548778 -64.177619 
L 105.451604 -73.416525 
L 108.354431 -91.461262 
L 111.257257 -70.529367 
L 114.160084 -64.321977 
L 117.062911 -75.726251 
L 119.965737 -64.466335 
L 122.868564 -96.080714 
L 125.77139 -64.466335 
L 128.674217 -64.610693 
L 131.577044 -64.466335 
L 134.47987 -64.321977 
L 137.382697 -64.466335 
L 140.285523 -64.755051 
L 143.18835 -64.321977 
L 146.091176 -94.059704 
L 148.994003 -64.755051 
L 151.89683 -64.177619 
L 154.799656 -64.321977 
L 157.702483 -64.466335 
L 160.605309 -64.755051 
L 163.508136 -115.280315 
L 166.410963 -64.466335 
L 169.313789 -67.930924 
L 172.216616 -64.610693 
L 175.119442 -64.610693 
L 178.022269 -64.466335 
L 180.925095 -64.177619 
L 183.827922 -64.466335 
L 186.730749 -64.466335 
L 189.633575 -64.466335 
L 192.536402 -76.303682 
L 195.439228 -64.321977 
L 198.342055 -64.321977 
L 201.244882 -64.610693 
L 204.147708 -64.321977 
L 207.050535 -64.466335 
L 209.953361 -64.610693 
L 212.856188 -64.466335 
L 215.759015 -64.321977 
L 218.661841 -64.321977 
L 221.564668 -72.406019 
L 224.467494 -64.466335 
L 227.370321 -64.321977 
L 230.273147 -64.321977 
L 233.175974 -64.466335 
L 236.078801 -64.466335 
L 238.981627 -64.321977 
L 241.884454 -64.321977 
L 244.78728 -64.466335 
L 247.690107 -64.466335 
L 250.592934 -64.321977 
L 253.49576 -64.610693 
L 256.398587 -64.466335 
L 259.301413 -64.466335 
L 262.20424 -64.321977 
L 265.107066 -64.755051 
L 268.009893 -64.321977 
L 270.91272 -64.466335 
L 273.815546 -64.321977 
L 276.718373 -64.321977 
L 279.621199 -64.321977 
L 282.524026 -64.610693 
L 285.426853 -64.177619 
L 288.329679 -64.466335 
L 291.232506 -64.610693 
L 294.135332 -64.610693 
L 297.038159 -64.610693 
L 299.940985 -64.899409 
L 302.843812 -64.466335 
L 305.746639 -64.466335 
L 308.649465 -64.466335 
L 311.552292 -64.755051 
L 314.455118 -64.755051 
L 317.357945 -64.610693 
L 320.260772 -64.755051 
L 323.163598 -64.610693 
L 326.066425 -64.321977 
L 328.969251 -64.466335 
L 331.872078 -65.043767 
L 334.774905 -64.610693 
L 337.677731 -64.610693 
L 340.580558 -64.899409 
L 343.483384 -64.466335 
L 346.386211 -64.466335 
L 349.289037 -64.610693 
L 352.191864 -64.755051 
L 355.094691 -64.321977 
L 357.997517 -64.755051 
L 360.900344 -64.321977 
L 363.80317 -64.466335 
L 366.705997 -64.321977 
L 369.608824 -64.610693 
L 372.51165 -64.610693 
L 375.414477 -65.332482 
L 378.317303 -64.610693 
L 381.22013 -64.610693 
L 384.122956 -64.466335 
L 387.025783 -64.610693 
L 389.92861 -64.466335 
L 392.831436 -64.610693 
L 395.734263 -64.466335 
L 398.637089 -64.321977 
L 401.539916 -64.321977 
L 404.442743 -64.755051 
L 407.345569 -65.043767 
L 410.248396 -64.899409 
L 413.151222 -64.321977 
L 416.054049 -64.466335 
L 418.956875 -64.466335 
L 421.859702 -64.466335 
L 424.762529 -64.610693 
L 427.665355 -64.899409 
L 430.568182 -64.755051 
L 430.568182 -64.177619 
L 430.568182 -64.177619 
L 427.665355 -64.321977 
L 424.762529 -64.177619 
L 421.859702 -64.033261 
L 418.956875 -64.033261 
L 416.054049 -63.888903 
L 413.151222 -64.033261 
L 410.248396 -64.321977 
L 407.345569 -64.033261 
L 404.442743 -64.177619 
L 401.539916 -64.033261 
L 398.637089 -64.033261 
L 395.734263 -63.744545 
L 392.831436 -64.033261 
L 389.92861 -64.033261 
L 387.025783 -63.888903 
L 384.122956 -64.033261 
L 381.22013 -64.033261 
L 378.317303 -64.177619 
L 375.414477 -64.177619 
L 372.51165 -64.033261 
L 369.608824 -64.033261 
L 366.705997 -64.033261 
L 363.80317 -64.033261 
L 360.900344 -64.321977 
L 357.997517 -64.033261 
L 355.094691 -63.888903 
L 352.191864 -63.888903 
L 349.289037 -64.033261 
L 346.386211 -64.177619 
L 343.483384 -64.177619 
L 340.580558 -64.177619 
L 337.677731 -64.033261 
L 334.774905 -64.033261 
L 331.872078 -64.033261 
L 328.969251 -64.033261 
L 326.066425 -63.888903 
L 323.163598 -64.033261 
L 320.260772 -64.177619 
L 317.357945 -64.177619 
L 314.455118 -64.177619 
L 311.552292 -64.177619 
L 308.649465 -64.033261 
L 305.746639 -63.888903 
L 302.843812 -64.033261 
L 299.940985 -63.888903 
L 297.038159 -64.033261 
L 294.135332 -63.888903 
L 291.232506 -64.033261 
L 288.329679 -64.177619 
L 285.426853 -64.033261 
L 282.524026 -64.033261 
L 279.621199 -64.033261 
L 276.718373 -63.888903 
L 273.815546 -64.033261 
L 270.91272 -64.177619 
L 268.009893 -63.888903 
L 265.107066 -64.033261 
L 262.20424 -63.888903 
L 259.301413 -64.177619 
L 256.398587 -64.033261 
L 253.49576 -63.888903 
L 250.592934 -64.033261 
L 247.690107 -64.177619 
L 244.78728 -63.888903 
L 241.884454 -64.033261 
L 238.981627 -63.888903 
L 236.078801 -64.033261 
L 233.175974 -64.033261 
L 230.273147 -63.888903 
L 227.370321 -64.177619 
L 224.467494 -64.177619 
L 221.564668 -64.033261 
L 218.661841 -64.033261 
L 215.759015 -64.033261 
L 212.856188 -63.888903 
L 209.953361 -63.888903 
L 207.050535 -64.033261 
L 204.147708 -64.033261 
L 201.244882 -64.033261 
L 198.342055 -63.888903 
L 195.439228 -64.033261 
L 192.536402 -64.033261 
L 189.633575 -64.033261 
L 186.730749 -64.033261 
L 183.827922 -64.033261 
L 180.925095 -63.888903 
L 178.022269 -64.033261 
L 175.119442 -63.888903 
L 172.216616 -64.033261 
L 169.313789 -64.033261 
L 166.410963 -64.177619 
L 163.508136 -64.033261 
L 160.605309 -64.033261 
L 157.702483 -63.888903 
L 154.799656 -64.033261 
L 151.89683 -64.177619 
L 148.994003 -64.321977 
L 146.091176 -64.177619 
L 143.18835 -64.033261 
L 140.285523 -64.033261 
L 137.382697 -63.888903 
L 134.47987 -64.033261 
L 131.577044 -64.033261 
L 128.674217 -64.033261 
L 125.77139 -64.033261 
L 122.868564 -64.033261 
L 119.965737 -64.033261 
L 117.062911 -64.033261 
L 114.160084 -64.033261 
L 111.257257 -64.177619 
L 108.354431 -63.888903 
L 105.451604 -63.888903 
L 102.548778 -63.888903 
L 99.645951 -64.033261 
L 96.743125 -140.687304 
L 93.840298 -154.256947 
L 90.937471 -138.95501 
L 88.034645 -168.259663 
L 85.131818 -136.789641 
z
" style="stroke: #ffffff; stroke-opacity: 0.5"/>
    </defs>
    <g clip-path="url(#p2f3bfa6539)">
     <use xlink:href="#mdc4844e8bc" x="0" y="345.6" style="fill: #4c72b0; fill-opacity: 0.5; stroke: #ffffff; stroke-opacity: 0.5"/>
    </g>
   </g>
   <g id="PolyCollection_2">
    <defs>
     <path id="m262c117560" d="M 85.131818 -144.729326 
L 85.131818 -245.202422 
L 88.034645 -241.160401 
L 90.937471 -242.459622 
L 93.840298 -244.913706 
L 96.743125 -199.152253 
L 99.645951 -67.497851 
L 102.548778 -89.873325 
L 105.451604 -65.188124 
L 108.354431 -65.188124 
L 111.257257 -65.188124 
L 114.160084 -65.188124 
L 117.062911 -65.909914 
L 119.965737 -123.797431 
L 122.868564 -73.127809 
L 125.77139 -92.327409 
L 128.674217 -96.225072 
L 131.577044 -67.353493 
L 134.47987 -66.631703 
L 137.382697 -66.631703 
L 140.285523 -65.909914 
L 143.18835 -98.534799 
L 146.091176 -67.353493 
L 148.994003 -65.909914 
L 151.89683 -65.909914 
L 154.799656 -67.497851 
L 157.702483 -66.054272 
L 160.605309 -66.631703 
L 163.508136 -67.353493 
L 166.410963 -67.353493 
L 169.313789 -66.631703 
L 172.216616 -66.19863 
L 175.119442 -66.631703 
L 178.022269 -66.920419 
L 180.925095 -66.631703 
L 183.827922 -66.776061 
L 186.730749 -66.776061 
L 189.633575 -65.909914 
L 192.536402 -67.642209 
L 195.439228 -67.353493 
L 198.342055 -66.776061 
L 201.244882 -66.776061 
L 204.147708 -65.765556 
L 207.050535 -66.19863 
L 209.953361 -66.054272 
L 212.856188 -66.776061 
L 215.759015 -66.920419 
L 218.661841 -65.909914 
L 221.564668 -65.909914 
L 224.467494 -66.631703 
L 227.370321 -67.064777 
L 230.273147 -66.054272 
L 233.175974 -66.631703 
L 236.078801 -66.631703 
L 238.981627 -65.909914 
L 241.884454 -66.776061 
L 244.78728 -67.497851 
L 247.690107 -66.631703 
L 250.592934 -67.642209 
L 253.49576 -66.631703 
L 256.398587 -67.064777 
L 259.301413 -67.497851 
L 262.20424 -68.652714 
L 265.107066 -66.776061 
L 268.009893 -67.642209 
L 270.91272 -66.487345 
L 273.815546 -67.064777 
L 276.718373 -67.353493 
L 279.621199 -66.776061 
L 282.524026 -66.054272 
L 285.426853 -66.776061 
L 288.329679 -66.776061 
L 291.232506 -66.487345 
L 294.135332 -67.497851 
L 297.038159 -68.075282 
L 299.940985 -67.642209 
L 302.843812 -66.776061 
L 305.746639 -66.631703 
L 308.649465 -66.054272 
L 311.552292 -66.776061 
L 314.455118 -67.353493 
L 317.357945 -67.642209 
L 320.260772 -66.776061 
L 323.163598 -65.909914 
L 326.066425 -67.209135 
L 328.969251 -68.21964 
L 331.872078 -66.776061 
L 334.774905 -66.054272 
L 337.677731 -67.786567 
L 340.580558 -66.920419 
L 343.483384 -65.909914 
L 346.386211 -66.776061 
L 349.289037 -66.920419 
L 352.191864 -66.631703 
L 355.094691 -66.054272 
L 357.997517 -66.054272 
L 360.900344 -66.776061 
L 363.80317 -66.054272 
L 366.705997 -67.064777 
L 369.608824 -65.909914 
L 372.51165 -66.054272 
L 375.414477 -66.631703 
L 378.317303 -66.776061 
L 381.22013 -66.776061 
L 384.122956 -66.054272 
L 387.025783 -66.631703 
L 389.92861 -66.776061 
L 392.831436 -66.054272 
L 395.734263 -66.631703 
L 398.637089 -66.631703 
L 401.539916 -66.920419 
L 404.442743 -66.631703 
L 407.345569 -67.497851 
L 410.248396 -66.054272 
L 413.151222 -67.642209 
L 416.054049 -66.920419 
L 418.956875 -67.064777 
L 421.859702 -65.332482 
L 424.762529 -66.054272 
L 427.665355 -67.209135 
L 430.568182 -67.064777 
L 430.568182 -65.332482 
L 430.568182 -65.332482 
L 427.665355 -65.188124 
L 424.762529 -65.332482 
L 421.859702 -65.188124 
L 418.956875 -65.332482 
L 416.054049 -64.466335 
L 413.151222 -64.466335 
L 410.248396 -65.188124 
L 407.345569 -65.332482 
L 404.442743 -65.188124 
L 401.539916 -65.188124 
L 398.637089 -65.332482 
L 395.734263 -65.188124 
L 392.831436 -64.466335 
L 389.92861 -65.332482 
L 387.025783 -65.909914 
L 384.122956 -65.188124 
L 381.22013 -64.899409 
L 378.317303 -65.188124 
L 375.414477 -65.188124 
L 372.51165 -64.610693 
L 369.608824 -65.188124 
L 366.705997 -66.054272 
L 363.80317 -64.466335 
L 360.900344 -65.188124 
L 357.997517 -65.188124 
L 355.094691 -65.188124 
L 352.191864 -64.466335 
L 349.289037 -65.188124 
L 346.386211 -65.188124 
L 343.483384 -64.610693 
L 340.580558 -65.188124 
L 337.677731 -65.188124 
L 334.774905 -65.332482 
L 331.872078 -65.909914 
L 328.969251 -65.188124 
L 326.066425 -65.765556 
L 323.163598 -64.899409 
L 320.260772 -65.188124 
L 317.357945 -65.188124 
L 314.455118 -65.188124 
L 311.552292 -64.466335 
L 308.649465 -64.466335 
L 305.746639 -64.466335 
L 302.843812 -64.466335 
L 299.940985 -65.188124 
L 297.038159 -65.909914 
L 294.135332 -65.188124 
L 291.232506 -65.188124 
L 288.329679 -65.188124 
L 285.426853 -65.188124 
L 282.524026 -65.188124 
L 279.621199 -64.610693 
L 276.718373 -66.054272 
L 273.815546 -65.188124 
L 270.91272 -65.188124 
L 268.009893 -64.610693 
L 265.107066 -65.188124 
L 262.20424 -65.621198 
L 259.301413 -65.188124 
L 256.398587 -64.466335 
L 253.49576 -64.466335 
L 250.592934 -65.188124 
L 247.690107 -65.188124 
L 244.78728 -65.188124 
L 241.884454 -65.332482 
L 238.981627 -64.466335 
L 236.078801 -64.466335 
L 233.175974 -63.744545 
L 230.273147 -65.188124 
L 227.370321 -64.466335 
L 224.467494 -65.332482 
L 221.564668 -64.466335 
L 218.661841 -64.610693 
L 215.759015 -63.744545 
L 212.856188 -65.188124 
L 209.953361 -64.466335 
L 207.050535 -65.909914 
L 204.147708 -64.466335 
L 201.244882 -65.332482 
L 198.342055 -65.188124 
L 195.439228 -65.332482 
L 192.536402 -64.466335 
L 189.633575 -64.466335 
L 186.730749 -65.188124 
L 183.827922 -65.188124 
L 180.925095 -64.466335 
L 178.022269 -64.610693 
L 175.119442 -63.744545 
L 172.216616 -65.188124 
L 169.313789 -64.610693 
L 166.410963 -65.188124 
L 163.508136 -65.909914 
L 160.605309 -65.47684 
L 157.702483 -64.466335 
L 154.799656 -64.466335 
L 151.89683 -65.188124 
L 148.994003 -65.188124 
L 146.091176 -65.188124 
L 143.18835 -65.188124 
L 140.285523 -64.466335 
L 137.382697 -64.466335 
L 134.47987 -65.188124 
L 131.577044 -65.188124 
L 128.674217 -64.466335 
L 125.77139 -65.909914 
L 122.868564 -64.466335 
L 119.965737 -65.188124 
L 117.062911 -64.466335 
L 114.160084 -64.466335 
L 111.257257 -64.466335 
L 108.354431 -64.466335 
L 105.451604 -63.888903 
L 102.548778 -63.744545 
L 99.645951 -63.744545 
L 96.743125 -111.815725 
L 93.840298 -116.002104 
L 90.937471 -126.828946 
L 88.034645 -91.316904 
L 85.131818 -144.729326 
z
" style="stroke: #ffffff; stroke-opacity: 0.5"/>
    </defs>
    <g clip-path="url(#p2f3bfa6539)">
     <use xlink:href="#m262c117560" x="0" y="345.6" style="fill: #dd8452; fill-opacity: 0.5; stroke: #ffffff; stroke-opacity: 0.5"/>
    </g>
   </g>
   <g id="PolyCollection_3">
    <defs>
     <path id="m26a518ea0e" d="M 85.131818 -124.51922 
L 85.131818 -211.278316 
L 88.034645 -253.719538 
L 90.937471 -272.197349 
L 93.840298 -187.026189 
L 96.743125 -209.979095 
L 99.645951 -120.044125 
L 102.548778 -144.584968 
L 105.451604 -111.527009 
L 108.354431 -68.075282 
L 111.257257 -66.631703 
L 114.160084 -113.981094 
L 117.062911 -68.075282 
L 119.965737 -128.416883 
L 122.868564 -68.075282 
L 125.77139 -68.075282 
L 128.674217 -68.075282 
L 131.577044 -67.209135 
L 134.47987 -68.075282 
L 137.382697 -68.075282 
L 140.285523 -76.592398 
L 143.18835 -68.075282 
L 146.091176 -68.075282 
L 148.994003 -66.631703 
L 151.89683 -68.508356 
L 154.799656 -68.075282 
L 157.702483 -68.075282 
L 160.605309 -69.518861 
L 163.508136 -69.518861 
L 166.410963 -69.663219 
L 169.313789 -69.663219 
L 172.216616 -68.075282 
L 175.119442 -70.96244 
L 178.022269 -68.075282 
L 180.925095 -68.075282 
L 183.827922 -69.518861 
L 186.730749 -69.518861 
L 189.633575 -68.21964 
L 192.536402 -69.518861 
L 195.439228 -69.518861 
L 198.342055 -68.075282 
L 201.244882 -68.075282 
L 204.147708 -68.363998 
L 207.050535 -68.21964 
L 209.953361 -69.518861 
L 212.856188 -68.075282 
L 215.759015 -69.518861 
L 218.661841 -69.518861 
L 221.564668 -68.363998 
L 224.467494 -68.075282 
L 227.370321 -68.21964 
L 230.273147 -70.96244 
L 233.175974 -70.673725 
L 236.078801 -70.96244 
L 238.981627 -69.518861 
L 241.884454 -69.807577 
L 244.78728 -69.518861 
L 247.690107 -68.075282 
L 250.592934 -69.518861 
L 253.49576 -68.21964 
L 256.398587 -69.518861 
L 259.301413 -68.075282 
L 262.20424 -68.508356 
L 265.107066 -69.663219 
L 268.009893 -69.807577 
L 270.91272 -69.663219 
L 273.815546 -69.518861 
L 276.718373 -69.951935 
L 279.621199 -69.518861 
L 282.524026 -71.251156 
L 285.426853 -69.663219 
L 288.329679 -69.807577 
L 291.232506 -68.797072 
L 294.135332 -69.518861 
L 297.038159 -69.663219 
L 299.940985 -69.663219 
L 302.843812 -71.251156 
L 305.746639 -69.518861 
L 308.649465 -69.807577 
L 311.552292 -68.21964 
L 314.455118 -69.807577 
L 317.357945 -68.652714 
L 320.260772 -70.385009 
L 323.163598 -69.518861 
L 326.066425 -68.21964 
L 328.969251 -68.363998 
L 331.872078 -71.251156 
L 334.774905 -69.663219 
L 337.677731 -69.951935 
L 340.580558 -69.951935 
L 343.483384 -69.518861 
L 346.386211 -69.518861 
L 349.289037 -69.518861 
L 352.191864 -68.21964 
L 355.094691 -68.075282 
L 357.997517 -69.807577 
L 360.900344 -69.518861 
L 363.80317 -69.518861 
L 366.705997 -68.21964 
L 369.608824 -69.518861 
L 372.51165 -68.21964 
L 375.414477 -68.363998 
L 378.317303 -69.518861 
L 381.22013 -69.663219 
L 384.122956 -68.075282 
L 387.025783 -71.395514 
L 389.92861 -68.508356 
L 392.831436 -68.075282 
L 395.734263 -69.663219 
L 398.637089 -69.663219 
L 401.539916 -71.106798 
L 404.442743 -69.518861 
L 407.345569 -69.663219 
L 410.248396 -69.807577 
L 413.151222 -71.251156 
L 416.054049 -70.96244 
L 418.956875 -71.106798 
L 421.859702 -69.663219 
L 424.762529 -70.529367 
L 427.665355 -72.694735 
L 430.568182 -69.518861 
L 430.568182 -66.776061 
L 430.568182 -66.776061 
L 427.665355 -68.075282 
L 424.762529 -66.776061 
L 421.859702 -65.47684 
L 418.956875 -68.075282 
L 416.054049 -66.631703 
L 413.151222 -65.188124 
L 410.248396 -68.075282 
L 407.345569 -66.631703 
L 404.442743 -66.631703 
L 401.539916 -66.631703 
L 398.637089 -66.631703 
L 395.734263 -65.188124 
L 392.831436 -66.631703 
L 389.92861 -66.631703 
L 387.025783 -68.075282 
L 384.122956 -66.631703 
L 381.22013 -66.631703 
L 378.317303 -65.188124 
L 375.414477 -66.776061 
L 372.51165 -66.631703 
L 369.608824 -67.642209 
L 366.705997 -66.631703 
L 363.80317 -67.064777 
L 360.900344 -68.075282 
L 357.997517 -65.188124 
L 355.094691 -65.188124 
L 352.191864 -66.631703 
L 349.289037 -66.631703 
L 346.386211 -65.188124 
L 343.483384 -65.188124 
L 340.580558 -66.631703 
L 337.677731 -65.47684 
L 334.774905 -66.631703 
L 331.872078 -65.188124 
L 328.969251 -66.487345 
L 326.066425 -66.631703 
L 323.163598 -66.631703 
L 320.260772 -65.188124 
L 317.357945 -65.188124 
L 314.455118 -66.631703 
L 311.552292 -65.188124 
L 308.649465 -65.188124 
L 305.746639 -66.631703 
L 302.843812 -65.332482 
L 299.940985 -66.631703 
L 297.038159 -66.631703 
L 294.135332 -66.631703 
L 291.232506 -65.188124 
L 288.329679 -66.631703 
L 285.426853 -66.776061 
L 282.524026 -66.631703 
L 279.621199 -65.188124 
L 276.718373 -66.776061 
L 273.815546 -67.064777 
L 270.91272 -66.776061 
L 268.009893 -66.631703 
L 265.107066 -66.631703 
L 262.20424 -66.631703 
L 259.301413 -67.930924 
L 256.398587 -66.631703 
L 253.49576 -65.188124 
L 250.592934 -68.075282 
L 247.690107 -65.188124 
L 244.78728 -66.631703 
L 241.884454 -65.188124 
L 238.981627 -67.209135 
L 236.078801 -65.188124 
L 233.175974 -65.188124 
L 230.273147 -65.188124 
L 227.370321 -65.188124 
L 224.467494 -65.188124 
L 221.564668 -63.744545 
L 218.661841 -65.188124 
L 215.759015 -65.188124 
L 212.856188 -66.631703 
L 209.953361 -66.631703 
L 207.050535 -66.631703 
L 204.147708 -66.631703 
L 201.244882 -66.631703 
L 198.342055 -63.744545 
L 195.439228 -66.342988 
L 192.536402 -66.631703 
L 189.633575 -66.487345 
L 186.730749 -65.332482 
L 183.827922 -66.631703 
L 180.925095 -65.188124 
L 178.022269 -65.188124 
L 175.119442 -66.631703 
L 172.216616 -66.631703 
L 169.313789 -65.188124 
L 166.410963 -65.188124 
L 163.508136 -66.631703 
L 160.605309 -65.188124 
L 157.702483 -66.631703 
L 154.799656 -65.188124 
L 151.89683 -66.631703 
L 148.994003 -63.888903 
L 146.091176 -65.043767 
L 143.18835 -65.188124 
L 140.285523 -65.332482 
L 137.382697 -65.332482 
L 134.47987 -65.188124 
L 131.577044 -66.631703 
L 128.674217 -63.744545 
L 125.77139 -63.744545 
L 122.868564 -65.332482 
L 119.965737 -65.188124 
L 117.062911 -65.188124 
L 114.160084 -65.188124 
L 111.257257 -63.744545 
L 108.354431 -65.188124 
L 105.451604 -63.744545 
L 102.548778 -65.188124 
L 99.645951 -65.188124 
L 96.743125 -118.744904 
L 93.840298 -110.516504 
L 90.937471 -138.810652 
L 88.034645 -117.734399 
L 85.131818 -124.51922 
z
" style="stroke: #ffffff; stroke-opacity: 0.5"/>
    </defs>
    <g clip-path="url(#p2f3bfa6539)">
     <use xlink:href="#m26a518ea0e" x="0" y="345.6" style="fill: #55a868; fill-opacity: 0.5; stroke: #ffffff; stroke-opacity: 0.5"/>
    </g>
   </g>
   <g id="PolyCollection_4">
    <defs>
     <path id="md128ebf38a" d="M 85.131818 -159.020757 
L 85.131818 -319.835455 
L 88.034645 -176.632421 
L 90.937471 -182.551095 
L 93.840298 -211.278316 
L 96.743125 -195.398947 
L 99.645951 -135.923494 
L 102.548778 -114.558525 
L 105.451604 -114.558525 
L 108.354431 -135.634778 
L 111.257257 -103.587325 
L 114.160084 -69.518861 
L 117.062911 -69.518861 
L 119.965737 -119.611052 
L 122.868564 -144.729326 
L 125.77139 -73.993956 
L 128.674217 -71.251156 
L 131.577044 -99.11223 
L 134.47987 -115.56903 
L 137.382697 -72.406019 
L 140.285523 -107.629346 
L 143.18835 -72.406019 
L 146.091176 -72.261661 
L 148.994003 -72.406019 
L 151.89683 -73.272167 
L 154.799656 -72.406019 
L 157.702483 -72.406019 
L 160.605309 -69.663219 
L 163.508136 -133.46941 
L 166.410963 -75.148819 
L 169.313789 -72.406019 
L 172.216616 -72.406019 
L 175.119442 -72.406019 
L 178.022269 -116.579536 
L 180.925095 -72.550377 
L 183.827922 -70.673725 
L 186.730749 -83.954651 
L 189.633575 -72.839093 
L 192.536402 -73.560882 
L 195.439228 -75.581893 
L 198.342055 -77.747261 
L 201.244882 -69.807577 
L 204.147708 -72.261661 
L 207.050535 -73.272167 
L 209.953361 -77.891619 
L 212.856188 -75.148819 
L 215.759015 -70.240651 
L 218.661841 -72.406019 
L 221.564668 -75.293177 
L 224.467494 -72.261661 
L 227.370321 -72.117303 
L 230.273147 -73.70524 
L 233.175974 -74.715746 
L 236.078801 -69.518861 
L 238.981627 -74.42703 
L 241.884454 -69.518861 
L 244.78728 -75.293177 
L 247.690107 -75.004461 
L 250.592934 -76.592398 
L 253.49576 -77.891619 
L 256.398587 -73.993956 
L 259.301413 -73.127809 
L 262.20424 -74.138314 
L 265.107066 -72.550377 
L 268.009893 -72.406019 
L 270.91272 -72.406019 
L 273.815546 -72.550377 
L 276.718373 -72.406019 
L 279.621199 -72.839093 
L 282.524026 -78.180335 
L 285.426853 -73.416525 
L 288.329679 -78.469051 
L 291.232506 -72.406019 
L 294.135332 -72.839093 
L 297.038159 -69.518861 
L 299.940985 -75.004461 
L 302.843812 -74.571388 
L 305.746639 -78.035977 
L 308.649465 -72.983451 
L 311.552292 -77.602904 
L 314.455118 -75.004461 
L 317.357945 -72.406019 
L 320.260772 -75.437535 
L 323.163598 -74.860104 
L 326.066425 -72.694735 
L 328.969251 -77.314188 
L 331.872078 -75.581893 
L 334.774905 -75.437535 
L 337.677731 -78.469051 
L 340.580558 -74.138314 
L 343.483384 -72.406019 
L 346.386211 -72.406019 
L 349.289037 -75.581893 
L 352.191864 -72.406019 
L 355.094691 -75.581893 
L 357.997517 -75.293177 
L 360.900344 -72.406019 
L 363.80317 -75.437535 
L 366.705997 -78.324693 
L 369.608824 -72.550377 
L 372.51165 -75.437535 
L 375.414477 -75.293177 
L 378.317303 -72.839093 
L 381.22013 -75.437535 
L 384.122956 -69.663219 
L 387.025783 -75.726251 
L 389.92861 -77.891619 
L 392.831436 -75.148819 
L 395.734263 -72.406019 
L 398.637089 -76.303682 
L 401.539916 -78.324693 
L 404.442743 -72.839093 
L 407.345569 -75.148819 
L 410.248396 -75.148819 
L 413.151222 -75.581893 
L 416.054049 -72.406019 
L 418.956875 -71.972946 
L 421.859702 -78.180335 
L 424.762529 -72.839093 
L 427.665355 -75.148819 
L 430.568182 -75.293177 
L 430.568182 -68.508356 
L 430.568182 -68.508356 
L 427.665355 -66.487345 
L 424.762529 -69.374503 
L 421.859702 -66.631703 
L 418.956875 -69.230146 
L 416.054049 -69.374503 
L 413.151222 -69.518861 
L 410.248396 -68.508356 
L 407.345569 -72.406019 
L 404.442743 -66.631703 
L 401.539916 -69.374503 
L 398.637089 -66.631703 
L 395.734263 -69.518861 
L 392.831436 -66.631703 
L 389.92861 -66.631703 
L 387.025783 -69.518861 
L 384.122956 -66.631703 
L 381.22013 -69.518861 
L 378.317303 -69.951935 
L 375.414477 -69.518861 
L 372.51165 -66.631703 
L 369.608824 -66.920419 
L 366.705997 -69.518861 
L 363.80317 -68.94143 
L 360.900344 -68.363998 
L 357.997517 -66.631703 
L 355.094691 -66.920419 
L 352.191864 -66.631703 
L 349.289037 -66.631703 
L 346.386211 -66.631703 
L 343.483384 -66.631703 
L 340.580558 -69.518861 
L 337.677731 -69.518861 
L 334.774905 -69.374503 
L 331.872078 -66.631703 
L 328.969251 -69.374503 
L 326.066425 -69.374503 
L 323.163598 -69.807577 
L 320.260772 -66.631703 
L 317.357945 -66.776061 
L 314.455118 -72.406019 
L 311.552292 -66.631703 
L 308.649465 -66.631703 
L 305.746639 -69.518861 
L 302.843812 -69.085788 
L 299.940985 -66.776061 
L 297.038159 -66.631703 
L 294.135332 -72.406019 
L 291.232506 -66.776061 
L 288.329679 -69.518861 
L 285.426853 -69.663219 
L 282.524026 -66.776061 
L 279.621199 -69.518861 
L 276.718373 -69.374503 
L 273.815546 -69.518861 
L 270.91272 -63.744545 
L 268.009893 -66.054272 
L 265.107066 -69.374503 
L 262.20424 -69.951935 
L 259.301413 -66.631703 
L 256.398587 -69.518861 
L 253.49576 -66.631703 
L 250.592934 -69.230146 
L 247.690107 -66.631703 
L 244.78728 -66.631703 
L 241.884454 -66.631703 
L 238.981627 -66.631703 
L 236.078801 -66.631703 
L 233.175974 -66.487345 
L 230.273147 -69.230146 
L 227.370321 -66.631703 
L 224.467494 -67.497851 
L 221.564668 -67.642209 
L 218.661841 -69.518861 
L 215.759015 -66.631703 
L 212.856188 -66.631703 
L 209.953361 -66.631703 
L 207.050535 -69.518861 
L 204.147708 -66.631703 
L 201.244882 -69.518861 
L 198.342055 -66.631703 
L 195.439228 -66.631703 
L 192.536402 -69.518861 
L 189.633575 -66.631703 
L 186.730749 -69.374503 
L 183.827922 -66.631703 
L 180.925095 -66.776061 
L 178.022269 -66.631703 
L 175.119442 -66.631703 
L 172.216616 -66.631703 
L 169.313789 -63.744545 
L 166.410963 -66.631703 
L 163.508136 -67.930924 
L 160.605309 -69.230146 
L 157.702483 -68.797072 
L 154.799656 -66.631703 
L 151.89683 -69.518861 
L 148.994003 -66.631703 
L 146.091176 -66.631703 
L 143.18835 -66.631703 
L 140.285523 -63.744545 
L 137.382697 -66.631703 
L 134.47987 -69.518861 
L 131.577044 -69.518861 
L 128.674217 -66.631703 
L 125.77139 -66.631703 
L 122.868564 -66.631703 
L 119.965737 -66.631703 
L 117.062911 -63.744545 
L 114.160084 -66.631703 
L 111.257257 -66.631703 
L 108.354431 -66.631703 
L 105.451604 -63.744545 
L 102.548778 -63.744545 
L 99.645951 -66.631703 
L 96.743125 -124.663578 
L 93.840298 -171.435537 
L 90.937471 -140.398589 
L 88.034645 -71.539872 
L 85.131818 -159.020757 
z
" style="stroke: #ffffff; stroke-opacity: 0.5"/>
    </defs>
    <g clip-path="url(#p2f3bfa6539)">
     <use xlink:href="#md128ebf38a" x="0" y="345.6" style="fill: #c44e52; fill-opacity: 0.5; stroke: #ffffff; stroke-opacity: 0.5"/>
    </g>
   </g>
   <g id="PolyCollection_5">
    <defs>
     <path id="m896d63e829" d="M 85.131818 -100.555809 
L 85.131818 -221.816443 
L 88.034645 -216.186485 
L 90.937471 -236.107874 
L 93.840298 -214.021116 
L 96.743125 -205.937074 
L 99.645951 -133.758125 
L 102.548778 -139.676799 
L 105.451604 -121.632062 
L 108.354431 -156.566673 
L 111.257257 -137.367073 
L 114.160084 -139.965515 
L 117.062911 -126.251515 
L 119.965737 -155.844884 
L 122.868564 -142.708315 
L 125.77139 -119.03362 
L 128.674217 -161.6192 
L 131.577044 -164.650715 
L 134.47987 -150.936715 
L 137.382697 -139.388083 
L 140.285523 -147.472126 
L 143.18835 -120.910273 
L 146.091176 -113.692378 
L 148.994003 -131.592757 
L 151.89683 -119.899767 
L 154.799656 -134.768631 
L 157.702483 -139.821157 
L 160.605309 -135.634778 
L 163.508136 -135.779136 
L 166.410963 -99.978378 
L 169.313789 -153.823873 
L 172.216616 -159.453831 
L 175.119442 -164.650715 
L 178.022269 -133.180694 
L 180.925095 -123.797431 
L 183.827922 -140.542947 
L 186.730749 -202.183769 
L 189.633575 -108.351136 
L 192.536402 -78.180335 
L 195.439228 -140.254231 
L 198.342055 -120.332841 
L 201.244882 -113.836736 
L 204.147708 -121.487704 
L 207.050535 -139.099368 
L 209.953361 -117.878757 
L 212.856188 -125.529725 
L 215.759015 -106.474483 
L 218.661841 -143.141389 
L 221.564668 -151.658505 
L 224.467494 -196.553811 
L 227.370321 -148.626989 
L 230.273147 -154.401305 
L 233.175974 -163.495852 
L 236.078801 -165.949936 
L 238.981627 -161.6192 
L 241.884454 -257.328485 
L 244.78728 -152.235936 
L 247.690107 -142.708315 
L 250.592934 -140.109873 
L 253.49576 -136.067852 
L 256.398587 -196.698168 
L 259.301413 -166.816084 
L 262.20424 -198.286105 
L 265.107066 -154.69002 
L 268.009893 -124.952294 
L 270.91272 -109.361641 
L 273.815546 -151.514147 
L 276.718373 -131.304041 
L 279.621199 -145.018041 
L 282.524026 -155.844884 
L 285.426853 -112.970588 
L 288.329679 -137.800147 
L 291.232506 -103.009893 
L 294.135332 -96.513788 
L 297.038159 -120.044125 
L 299.940985 -142.997031 
L 302.843812 -146.750336 
L 305.746639 -123.219999 
L 308.649465 -122.353852 
L 311.552292 -151.225431 
L 314.455118 -133.325052 
L 317.357945 -129.860462 
L 320.260772 -111.093936 
L 323.163598 -111.527009 
L 326.066425 -122.642567 
L 328.969251 -92.616125 
L 331.872078 -135.779136 
L 334.774905 -119.322336 
L 337.677731 -126.251515 
L 340.580558 -91.028188 
L 343.483384 -83.954651 
L 346.386211 -102.432462 
L 349.289037 -119.755409 
L 352.191864 -93.770988 
L 355.094691 -139.532441 
L 357.997517 -125.529725 
L 360.900344 -111.382651 
L 363.80317 -128.994315 
L 366.705997 -107.051915 
L 369.608824 -122.786925 
L 372.51165 -114.125451 
L 375.414477 -130.72661 
L 378.317303 -119.177978 
L 381.22013 -135.923494 
L 384.122956 -132.458904 
L 387.025783 -112.681873 
L 389.92861 -107.484988 
L 392.831436 -126.828946 
L 395.734263 -122.353852 
L 398.637089 -92.616125 
L 401.539916 -116.723894 
L 404.442743 -105.897051 
L 407.345569 -142.997031 
L 410.248396 -121.920778 
L 413.151222 -89.728967 
L 416.054049 -112.681873 
L 418.956875 -116.435178 
L 421.859702 -106.907557 
L 424.762529 -129.283031 
L 427.665355 -119.177978 
L 430.568182 -138.23322 
L 430.568182 -78.180335 
L 430.568182 -78.180335 
L 427.665355 -89.584609 
L 424.762529 -92.616125 
L 421.859702 -78.035977 
L 418.956875 -78.180335 
L 416.054049 -78.180335 
L 413.151222 -63.744545 
L 410.248396 -78.180335 
L 407.345569 -63.744545 
L 404.442743 -78.324693 
L 401.539916 -79.91263 
L 398.637089 -78.180335 
L 395.734263 -78.180335 
L 392.831436 -78.180335 
L 389.92861 -78.180335 
L 387.025783 -63.744545 
L 384.122956 -78.180335 
L 381.22013 -78.180335 
L 378.317303 -78.180335 
L 375.414477 -63.744545 
L 372.51165 -63.744545 
L 369.608824 -78.180335 
L 366.705997 -78.180335 
L 363.80317 -78.180335 
L 360.900344 -78.035977 
L 357.997517 -78.180335 
L 355.094691 -63.744545 
L 352.191864 -63.744545 
L 349.289037 -78.180335 
L 346.386211 -92.183051 
L 343.483384 -63.744545 
L 340.580558 -63.888903 
L 337.677731 -78.180335 
L 334.774905 -78.180335 
L 331.872078 -73.127809 
L 328.969251 -78.180335 
L 326.066425 -78.180335 
L 323.163598 -97.813009 
L 320.260772 -77.16983 
L 317.357945 -78.180335 
L 314.455118 -78.180335 
L 311.552292 -78.035977 
L 308.649465 -78.180335 
L 305.746639 -72.261661 
L 302.843812 -63.744545 
L 299.940985 -78.180335 
L 297.038159 -78.180335 
L 294.135332 -78.180335 
L 291.232506 -78.180335 
L 288.329679 -78.180335 
L 285.426853 -78.180335 
L 282.524026 -78.180335 
L 279.621199 -92.904841 
L 276.718373 -92.616125 
L 273.815546 -63.744545 
L 270.91272 -83.088504 
L 268.009893 -78.180335 
L 265.107066 -78.180335 
L 262.20424 -78.180335 
L 259.301413 -78.180335 
L 256.398587 -74.715746 
L 253.49576 -78.180335 
L 250.592934 -92.616125 
L 247.690107 -78.180335 
L 244.78728 -81.211851 
L 241.884454 -110.08343 
L 238.981627 -78.324693 
L 236.078801 -63.744545 
L 233.175974 -78.180335 
L 230.273147 -78.180335 
L 227.370321 -78.180335 
L 224.467494 -78.180335 
L 221.564668 -78.180335 
L 218.661841 -78.757767 
L 215.759015 -78.180335 
L 212.856188 -63.744545 
L 209.953361 -63.744545 
L 207.050535 -63.744545 
L 204.147708 -86.408735 
L 201.244882 -78.180335 
L 198.342055 -78.180335 
L 195.439228 -92.616125 
L 192.536402 -63.744545 
L 189.633575 -63.744545 
L 186.730749 -78.180335 
L 183.827922 -79.335198 
L 180.925095 -78.613409 
L 178.022269 -84.820798 
L 175.119442 -67.497851 
L 172.216616 -78.035977 
L 169.313789 -63.744545 
L 166.410963 -78.180335 
L 163.508136 -78.180335 
L 160.605309 -97.524293 
L 157.702483 -63.744545 
L 154.799656 -78.180335 
L 151.89683 -78.180335 
L 148.994003 -80.634419 
L 146.091176 -82.366714 
L 143.18835 -78.469051 
L 140.285523 -78.180335 
L 137.382697 -86.697451 
L 134.47987 -117.590041 
L 131.577044 -103.298609 
L 128.674217 -63.744545 
L 125.77139 -78.180335 
L 122.868564 -63.744545 
L 119.965737 -92.616125 
L 117.062911 -69.230146 
L 114.160084 -81.500567 
L 111.257257 -101.277599 
L 108.354431 -63.744545 
L 105.451604 -73.70524 
L 102.548778 -87.130525 
L 99.645951 -78.180335 
L 96.743125 -145.018041 
L 93.840298 -130.293536 
L 90.937471 -165.661221 
L 88.034645 -136.645283 
L 85.131818 -100.555809 
z
" style="stroke: #ffffff; stroke-opacity: 0.5"/>
    </defs>
    <g clip-path="url(#p2f3bfa6539)">
     <use xlink:href="#m896d63e829" x="0" y="345.6" style="fill: #8172b3; fill-opacity: 0.5; stroke: #ffffff; stroke-opacity: 0.5"/>
    </g>
   </g>
   <g id="line2d_16">
    <path d="M 85.131818 177.57131 
L 88.034645 161.345482 
L 90.937471 157.534434 
L 93.840298 163.85731 
L 96.743125 165.156531 
L 99.645951 281.537867 
L 102.548778 281.59561 
L 105.451604 279.5746 
L 108.354431 276.138882 
L 111.257257 280.12316 
L 114.160084 281.422381 
L 117.062911 279.170398 
L 119.965737 281.422381 
L 122.868564 275.01289 
L 125.77139 281.393509 
L 128.674217 281.306895 
L 131.577044 281.451252 
L 134.47987 281.393509 
L 137.382697 281.422381 
L 140.285523 281.335766 
L 143.18835 281.422381 
L 146.091176 275.301606 
L 148.994003 281.104793 
L 151.89683 281.422381 
L 154.799656 281.393509 
L 157.702483 281.335766 
L 160.605309 281.364638 
L 163.508136 271.230713 
L 166.410963 281.335766 
L 169.313789 280.613977 
L 172.216616 281.278023 
L 175.119442 281.393509 
L 178.022269 281.364638 
L 180.925095 281.508996 
L 183.827922 281.364638 
L 186.730749 281.335766 
L 189.633575 281.393509 
L 192.536402 279.02604 
L 195.439228 281.422381 
L 198.342055 281.422381 
L 201.244882 281.278023 
L 204.147708 281.480124 
L 207.050535 281.393509 
L 209.953361 281.422381 
L 212.856188 281.508996 
L 215.759015 281.451252 
L 218.661841 281.480124 
L 221.564668 279.661215 
L 224.467494 281.306895 
L 227.370321 281.393509 
L 230.273147 281.451252 
L 233.175974 281.393509 
L 236.078801 281.306895 
L 238.981627 281.480124 
L 241.884454 281.364638 
L 244.78728 281.537867 
L 247.690107 281.278023 
L 250.592934 281.364638 
L 253.49576 281.422381 
L 256.398587 281.393509 
L 259.301413 281.364638 
L 262.20424 281.480124 
L 265.107066 281.306895 
L 268.009893 281.508996 
L 270.91272 281.335766 
L 273.815546 281.422381 
L 276.718373 281.508996 
L 279.621199 281.451252 
L 282.524026 281.364638 
L 285.426853 281.480124 
L 288.329679 281.249151 
L 291.232506 281.422381 
L 294.135332 281.451252 
L 297.038159 281.278023 
L 299.940985 281.335766 
L 302.843812 281.393509 
L 305.746639 281.451252 
L 308.649465 281.306895 
L 311.552292 281.22028 
L 314.455118 281.191408 
L 317.357945 281.162537 
L 320.260772 281.278023 
L 323.163598 281.335766 
L 326.066425 281.508996 
L 328.969251 281.335766 
L 331.872078 281.249151 
L 334.774905 281.306895 
L 337.677731 281.278023 
L 340.580558 281.278023 
L 343.483384 281.278023 
L 346.386211 281.335766 
L 349.289037 281.364638 
L 352.191864 281.335766 
L 355.094691 281.422381 
L 357.997517 281.22028 
L 360.900344 281.278023 
L 363.80317 281.393509 
L 366.705997 281.393509 
L 369.608824 281.364638 
L 372.51165 281.335766 
L 375.414477 281.075922 
L 378.317303 281.249151 
L 381.22013 281.335766 
L 384.122956 281.364638 
L 387.025783 281.306895 
L 389.92861 281.422381 
L 392.831436 281.306895 
L 395.734263 281.451252 
L 398.637089 281.364638 
L 401.539916 281.364638 
L 404.442743 281.278023 
L 407.345569 281.133665 
L 410.248396 281.075922 
L 413.151222 281.422381 
L 416.054049 281.335766 
L 418.956875 281.393509 
L 421.859702 281.335766 
L 424.762529 281.22028 
L 427.665355 281.04705 
L 430.568182 281.191408 
" clip-path="url(#p2f3bfa6539)" style="fill: none; stroke: #4c72b0; stroke-width: 3; stroke-linecap: round"/>
   </g>
   <g id="line2d_17">
    <path d="M 85.131818 154.474046 
L 88.034645 189.206556 
L 90.937471 153.983229 
L 93.840298 171.306177 
L 96.743125 175.405941 
L 99.645951 280.440747 
L 102.548778 275.619193 
L 105.451604 280.787206 
L 108.354431 280.989307 
L 111.257257 280.989307 
L 114.160084 280.844949 
L 117.062911 280.527362 
L 119.965737 268.43017 
L 122.868564 278.85281 
L 125.77139 274.060128 
L 128.674217 274.204486 
L 131.577044 279.718958 
L 134.47987 279.690086 
L 137.382697 279.921059 
L 140.285523 280.12316 
L 143.18835 273.165109 
L 146.091176 279.545728 
L 148.994003 280.007673 
L 151.89683 279.978802 
L 154.799656 280.094288 
L 157.702483 280.094288 
L 160.605309 279.603471 
L 163.508136 279.054911 
L 166.410963 279.545728 
L 169.313789 280.209775 
L 172.216616 279.747829 
L 175.119442 280.411876 
L 178.022269 279.747829 
L 180.925095 280.094288 
L 183.827922 279.487985 
L 186.730749 279.94993 
L 189.633575 280.296389 
L 192.536402 279.718958 
L 195.439228 279.603471 
L 198.342055 279.343627 
L 201.244882 279.632343 
L 204.147708 280.440747 
L 207.050535 279.545728 
L 209.953361 280.49849 
L 212.856188 279.516857 
L 215.759015 280.036545 
L 218.661841 280.094288 
L 221.564668 280.556233 
L 224.467494 279.487985 
L 227.370321 279.5746 
L 230.273147 279.834444 
L 233.175974 280.383004 
L 236.078801 280.209775 
L 238.981627 280.411876 
L 241.884454 279.487985 
L 244.78728 279.516857 
L 247.690107 279.805572 
L 250.592934 279.40137 
L 253.49576 280.267518 
L 256.398587 279.747829 
L 259.301413 279.459113 
L 262.20424 278.47748 
L 265.107066 279.661215 
L 268.009893 279.083783 
L 270.91272 280.036545 
L 273.815546 279.199269 
L 276.718373 278.997168 
L 279.621199 279.863316 
L 282.524026 279.921059 
L 285.426853 279.747829 
L 288.329679 279.487985 
L 291.232506 279.863316 
L 294.135332 279.430242 
L 297.038159 278.823939 
L 299.940985 279.5746 
L 302.843812 279.94993 
L 305.746639 280.267518 
L 308.649465 279.94993 
L 311.552292 279.776701 
L 314.455118 279.632343 
L 317.357945 279.112655 
L 320.260772 279.603471 
L 323.163598 280.180903 
L 326.066425 279.112655 
L 328.969251 279.112655 
L 331.872078 279.40137 
L 334.774905 279.776701 
L 337.677731 279.5746 
L 340.580558 279.141526 
L 343.483384 280.152031 
L 346.386211 279.459113 
L 349.289037 279.776701 
L 352.191864 280.094288 
L 355.094691 280.065417 
L 357.997517 280.238646 
L 360.900344 279.603471 
L 363.80317 280.12316 
L 366.705997 279.054911 
L 369.608824 280.267518 
L 372.51165 280.152031 
L 375.414477 279.632343 
L 378.317303 279.776701 
L 381.22013 279.690086 
L 384.122956 280.036545 
L 387.025783 279.487985 
L 389.92861 279.5746 
L 392.831436 280.209775 
L 395.734263 279.921059 
L 398.637089 279.632343 
L 401.539916 279.545728 
L 404.442743 279.690086 
L 407.345569 279.545728 
L 410.248396 280.094288 
L 413.151222 279.921059 
L 416.054049 279.690086 
L 418.956875 279.372499 
L 421.859702 280.383004 
L 424.762529 279.776701 
L 427.665355 279.718958 
L 430.568182 279.459113 
" clip-path="url(#p2f3bfa6539)" style="fill: none; stroke: #dd8452; stroke-width: 3; stroke-linecap: round"/>
   </g>
   <g id="line2d_18">
    <path d="M 85.131818 167.350771 
L 88.034645 187.214417 
L 90.937471 147.891326 
L 93.840298 196.886396 
L 96.743125 186.463756 
L 99.645951 248.248936 
L 102.548778 252.724031 
L 105.451604 270.855383 
L 108.354431 279.545728 
L 111.257257 280.152031 
L 114.160084 269.873749 
L 117.062911 278.881682 
L 119.965737 267.102077 
L 122.868564 278.939425 
L 125.77139 279.834444 
L 128.674217 280.12316 
L 131.577044 278.823939 
L 134.47987 279.834444 
L 137.382697 278.650709 
L 140.285523 276.600827 
L 143.18835 278.737324 
L 146.091176 278.997168 
L 148.994003 279.805572 
L 151.89683 277.957791 
L 154.799656 278.390865 
L 157.702483 278.419737 
L 160.605309 278.968297 
L 163.508136 277.553589 
L 166.410963 278.650709 
L 169.313789 277.75569 
L 172.216616 278.390865 
L 175.119442 277.524718 
L 178.022269 278.679581 
L 180.925095 278.30425 
L 183.827922 277.582461 
L 186.730749 278.823939 
L 189.633575 278.102149 
L 192.536402 277.813433 
L 195.439228 278.159892 
L 198.342055 278.968297 
L 201.244882 277.871177 
L 204.147708 278.333122 
L 207.050535 277.784562 
L 209.953361 277.842305 
L 212.856188 278.073278 
L 215.759015 278.390865 
L 218.661841 278.390865 
L 221.564668 278.939425 
L 224.467494 278.679581 
L 227.370321 278.390865 
L 230.273147 278.102149 
L 233.175974 277.553589 
L 236.078801 277.726819 
L 238.981627 277.409231 
L 241.884454 278.30425 
L 244.78728 277.466974 
L 247.690107 278.968297 
L 250.592934 277.236002 
L 253.49576 278.333122 
L 256.398587 277.726819 
L 259.301413 277.553589 
L 262.20424 277.92892 
L 265.107066 278.073278 
L 268.009893 277.438103 
L 270.91272 277.524718 
L 273.815546 277.38036 
L 276.718373 277.033901 
L 279.621199 278.073278 
L 282.524026 277.38036 
L 285.426853 277.293745 
L 288.329679 277.091644 
L 291.232506 278.535223 
L 294.135332 277.466974 
L 297.038159 276.571956 
L 299.940985 277.75569 
L 302.843812 277.091644 
L 305.746639 277.986663 
L 308.649465 278.333122 
L 311.552292 278.650709 
L 314.455118 277.75569 
L 317.357945 278.188764 
L 320.260772 277.582461 
L 323.163598 277.813433 
L 326.066425 278.015534 
L 328.969251 277.784562 
L 331.872078 277.438103 
L 334.774905 277.178259 
L 337.677731 278.131021 
L 340.580558 276.8318 
L 343.483384 279.257012 
L 346.386211 277.784562 
L 349.289037 277.495846 
L 352.191864 278.592966 
L 355.094691 278.650709 
L 357.997517 277.986663 
L 360.900344 276.65857 
L 363.80317 277.38036 
L 366.705997 278.073278 
L 369.608824 277.005029 
L 372.51165 278.275379 
L 375.414477 277.726819 
L 378.317303 278.650709 
L 381.22013 277.75569 
L 384.122956 278.102149 
L 387.025783 276.571956 
L 389.92861 278.217636 
L 392.831436 278.073278 
L 395.734263 278.621838 
L 398.637089 277.178259 
L 401.539916 276.8318 
L 404.442743 277.495846 
L 407.345569 277.438103 
L 410.248396 276.889543 
L 413.151222 277.38036 
L 416.054049 277.669076 
L 418.956875 275.73468 
L 421.859702 277.611332 
L 424.762529 277.236002 
L 427.665355 276.196625 
L 430.568182 277.726819 
" clip-path="url(#p2f3bfa6539)" style="fill: none; stroke: #55a868; stroke-width: 3; stroke-linecap: round"/>
   </g>
   <g id="line2d_19">
    <path d="M 85.131818 142.29024 
L 88.034645 200.928418 
L 90.937471 189.928346 
L 93.840298 157.332333 
L 96.743125 179.563449 
L 99.645951 253.041618 
L 102.548778 263.724103 
L 105.451604 264.070562 
L 108.354431 261.789707 
L 111.257257 270.999741 
L 114.160084 277.553589 
L 117.062911 277.813433 
L 119.965737 265.283168 
L 122.868564 257.978658 
L 125.77139 274.377715 
L 128.674217 277.264873 
L 131.577044 269.007602 
L 134.47987 265.485269 
L 137.382697 277.813433 
L 140.285523 268.97873 
L 143.18835 276.052267 
L 146.091176 276.8318 
L 148.994003 276.081139 
L 151.89683 274.753046 
L 154.799656 275.503707 
L 157.702483 275.070633 
L 160.605309 276.11001 
L 163.508136 263.031185 
L 166.410963 274.810789 
L 169.313789 276.65857 
L 172.216616 276.65857 
L 175.119442 275.532579 
L 178.022269 267.766124 
L 180.925095 275.214991 
L 183.827922 276.398726 
L 186.730749 271.663787 
L 189.633575 276.023396 
L 192.536402 274.579817 
L 195.439228 275.01289 
L 198.342055 272.703164 
L 201.244882 275.994524 
L 204.147708 276.11001 
L 207.050535 273.598183 
L 209.953361 274.984019 
L 212.856188 275.532579 
L 215.759015 276.514212 
L 218.661841 275.445964 
L 221.564668 274.146743 
L 224.467494 275.936781 
L 227.370321 275.879038 
L 230.273147 274.262229 
L 233.175974 276.225497 
L 236.078801 277.813433 
L 238.981627 275.301606 
L 241.884454 276.716313 
L 244.78728 274.377715 
L 247.690107 275.041762 
L 250.592934 273.482697 
L 253.49576 274.406587 
L 256.398587 273.829155 
L 259.301413 275.965652 
L 262.20424 273.424953 
L 265.107066 274.839661 
L 268.009893 277.20713 
L 270.91272 276.600827 
L 273.815546 274.406587 
L 276.718373 275.532579 
L 279.621199 274.204486 
L 282.524026 273.280595 
L 285.426853 274.406587 
L 288.329679 272.501063 
L 291.232506 276.023396 
L 294.135332 273.107366 
L 297.038159 277.293745 
L 299.940985 273.973513 
L 302.843812 274.002385 
L 305.746639 272.789779 
L 308.649465 274.810789 
L 311.552292 274.348844 
L 314.455118 272.327833 
L 317.357945 275.503707 
L 320.260772 274.868532 
L 323.163598 273.165109 
L 326.066425 273.829155 
L 328.969251 273.91577 
L 331.872078 274.262229 
L 334.774905 273.136238 
L 337.677731 272.616549 
L 340.580558 274.002385 
L 343.483384 274.868532 
L 346.386211 275.474836 
L 349.289037 273.598183 
L 352.191864 275.965652 
L 355.094691 273.886899 
L 357.997517 274.984019 
L 360.900344 275.041762 
L 363.80317 273.886899 
L 366.705997 272.067989 
L 369.608824 275.965652 
L 372.51165 275.388221 
L 375.414477 274.291101 
L 378.317303 274.060128 
L 381.22013 272.789779 
L 384.122956 276.65857 
L 387.025783 272.876393 
L 389.92861 273.193981 
L 392.831436 274.868532 
L 395.734263 274.377715 
L 398.637089 274.839661 
L 401.539916 273.771412 
L 404.442743 275.417092 
L 407.345569 272.125732 
L 410.248396 273.280595 
L 413.151222 272.674292 
L 416.054049 274.839661 
L 418.956875 275.532579 
L 421.859702 274.810789 
L 424.762529 274.089 
L 427.665355 275.099505 
L 430.568182 273.627054 
" clip-path="url(#p2f3bfa6539)" style="fill: none; stroke: #c44e52; stroke-width: 3; stroke-linecap: round"/>
   </g>
   <g id="line2d_20">
    <path d="M 85.131818 175.896758 
L 88.034645 177.556874 
L 90.937471 152.258153 
L 93.840298 178.170395 
L 96.743125 163.662426 
L 99.645951 238.620264 
L 102.548778 231.546727 
L 105.451604 254.932707 
L 108.354431 242.878822 
L 111.257257 220.286812 
L 114.160084 234.542154 
L 117.062911 241.940496 
L 119.965737 218.771054 
L 122.868564 247.426096 
L 125.77139 249.483196 
L 128.674217 250.132807 
L 131.577044 219.745469 
L 134.47987 215.55909 
L 137.382697 222.524359 
L 140.285523 233.242933 
L 143.18835 240.28038 
L 146.091176 248.003528 
L 148.994003 235.336122 
L 151.89683 243.203628 
L 154.799656 228.803927 
L 157.702483 238.764622 
L 160.605309 232.160249 
L 163.508136 236.130091 
L 166.410963 256.845449 
L 169.313789 235.985733 
L 172.216616 236.671433 
L 175.119442 229.670075 
L 178.022269 245.693801 
L 180.925095 243.095359 
L 183.827922 243.492343 
L 186.730749 224.581459 
L 189.633575 266.012175 
L 192.536402 278.174328 
L 195.439228 231.907622 
L 198.342055 248.400512 
L 201.244882 247.101291 
L 204.147708 241.471333 
L 207.050535 235.011317 
L 209.953361 264.712954 
L 212.856188 258.289028 
L 215.759015 251.143312 
L 218.661841 236.274449 
L 221.564668 241.832228 
L 224.467494 228.118227 
L 227.370321 247.390007 
L 230.273147 247.245649 
L 233.175974 235.51657 
L 236.078801 229.34527 
L 238.981627 224.076206 
L 241.884454 169.941995 
L 244.78728 216.786133 
L 247.690107 230.536222 
L 250.592934 228.298675 
L 253.49576 234.506064 
L 256.398587 226.133306 
L 259.301413 230.103149 
L 262.20424 230.752759 
L 265.107066 239.991664 
L 268.009893 247.498275 
L 270.91272 248.580959 
L 273.815546 243.095359 
L 276.718373 236.527075 
L 279.621199 233.206843 
L 282.524026 229.092643 
L 285.426853 252.478623 
L 288.329679 244.358491 
L 291.232506 254.643991 
L 294.135332 256.520644 
L 297.038159 251.432028 
L 299.940985 233.676006 
L 302.843812 244.286312 
L 305.746639 250.421522 
L 308.649465 246.235143 
L 311.552292 243.02318 
L 314.455118 248.653138 
L 317.357945 253.092144 
L 320.260772 253.850023 
L 323.163598 240.172112 
L 326.066425 252.117728 
L 328.969251 256.881538 
L 331.872078 250.674149 
L 334.774905 247.534365 
L 337.677731 250.746328 
L 340.580558 267.78056 
L 343.483384 269.585033 
L 346.386211 250.674149 
L 349.289037 249.844091 
L 352.191864 267.130949 
L 355.094691 251.93728 
L 357.997517 255.582317 
L 360.900344 251.143312 
L 363.80317 248.220065 
L 366.705997 260.021323 
L 369.608824 249.91627 
L 372.51165 258.433386 
L 375.414477 257.206344 
L 378.317303 243.05927 
L 381.22013 249.302749 
L 384.122956 244.39458 
L 387.025783 258.758191 
L 389.92861 256.412375 
L 392.831436 250.457612 
L 395.734263 241.976586 
L 398.637089 257.711596 
L 401.539916 250.096717 
L 404.442743 253.128233 
L 407.345569 258.180759 
L 410.248396 249.663644 
L 413.151222 266.878323 
L 416.054049 247.426096 
L 418.956875 250.60197 
L 421.859702 252.406444 
L 424.762529 237.104507 
L 427.665355 247.101291 
L 430.568182 249.23057 
" clip-path="url(#p2f3bfa6539)" style="fill: none; stroke: #8172b3; stroke-width: 3; stroke-linecap: round"/>
   </g>
   <g id="patch_3">
    <path d="M 67.86 294.66 
L 67.86 12.96 
" style="fill: none; stroke: #ffffff; stroke-width: 1.25; stroke-linejoin: miter; stroke-linecap: square"/>
   </g>
   <g id="patch_4">
    <path d="M 447.84 294.66 
L 447.84 12.96 
" style="fill: none; stroke: #ffffff; stroke-width: 1.25; stroke-linejoin: miter; stroke-linecap: square"/>
   </g>
   <g id="patch_5">
    <path d="M 67.86 294.66 
L 447.84 294.66 
" style="fill: none; stroke: #ffffff; stroke-width: 1.25; stroke-linejoin: miter; stroke-linecap: square"/>
   </g>
   <g id="patch_6">
    <path d="M 67.86 12.96 
L 447.84 12.96 
" style="fill: none; stroke: #ffffff; stroke-width: 1.25; stroke-linejoin: miter; stroke-linecap: square"/>
   </g>
   <g id="legend_1">
    <g id="patch_7">
     <path d="M 310.960469 102.489688 
L 440.14 102.489688 
Q 442.34 102.489688 442.34 100.289688 
L 442.34 20.66 
Q 442.34 18.46 440.14 18.46 
L 310.960469 18.46 
Q 308.760469 18.46 308.760469 20.66 
L 308.760469 100.289688 
Q 308.760469 102.489688 310.960469 102.489688 
z
" style="fill: #eaeaf2; opacity: 0.8; stroke: #cccccc; stroke-linejoin: miter"/>
    </g>
    <g id="line2d_21">
     <path d="M 313.160469 27.368281 
L 324.160469 27.368281 
L 335.160469 27.368281 
" style="fill: none; stroke: #4c72b0; stroke-width: 3; stroke-linecap: round"/>
    </g>
    <g id="text_18">
     <!-- DCAC-DELAY-1 -->
     <g style="fill: #262626" transform="translate(343.960469 31.218281)scale(0.11 -0.11)">
      <defs>
       <path id="DejaVuSans-44" d="M 1259 4147 
L 1259 519 
L 2022 519 
Q 2988 519 3436 956 
Q 3884 1394 3884 2338 
Q 3884 3275 3436 3711 
Q 2988 4147 2022 4147 
L 1259 4147 
z
M 628 4666 
L 1925 4666 
Q 3281 4666 3915 4102 
Q 4550 3538 4550 2338 
Q 4550 1131 3912 565 
Q 3275 0 1925 0 
L 628 0 
L 628 4666 
z
" transform="scale(0.015625)"/>
       <path id="DejaVuSans-43" d="M 4122 4306 
L 4122 3641 
Q 3803 3938 3442 4084 
Q 3081 4231 2675 4231 
Q 1875 4231 1450 3742 
Q 1025 3253 1025 2328 
Q 1025 1406 1450 917 
Q 1875 428 2675 428 
Q 3081 428 3442 575 
Q 3803 722 4122 1019 
L 4122 359 
Q 3791 134 3420 21 
Q 3050 -91 2638 -91 
Q 1578 -91 968 557 
Q 359 1206 359 2328 
Q 359 3453 968 4101 
Q 1578 4750 2638 4750 
Q 3056 4750 3426 4639 
Q 3797 4528 4122 4306 
z
" transform="scale(0.015625)"/>
       <path id="DejaVuSans-41" d="M 2188 4044 
L 1331 1722 
L 3047 1722 
L 2188 4044 
z
M 1831 4666 
L 2547 4666 
L 4325 0 
L 3669 0 
L 3244 1197 
L 1141 1197 
L 716 0 
L 50 0 
L 1831 4666 
z
" transform="scale(0.015625)"/>
       <path id="DejaVuSans-2d" d="M 313 2009 
L 1997 2009 
L 1997 1497 
L 313 1497 
L 313 2009 
z
" transform="scale(0.015625)"/>
       <path id="DejaVuSans-45" d="M 628 4666 
L 3578 4666 
L 3578 4134 
L 1259 4134 
L 1259 2753 
L 3481 2753 
L 3481 2222 
L 1259 2222 
L 1259 531 
L 3634 531 
L 3634 0 
L 628 0 
L 628 4666 
z
" transform="scale(0.015625)"/>
       <path id="DejaVuSans-4c" d="M 628 4666 
L 1259 4666 
L 1259 531 
L 3531 531 
L 3531 0 
L 628 0 
L 628 4666 
z
" transform="scale(0.015625)"/>
       <path id="DejaVuSans-59" d="M -13 4666 
L 666 4666 
L 1959 2747 
L 3244 4666 
L 3922 4666 
L 2272 2222 
L 2272 0 
L 1638 0 
L 1638 2222 
L -13 4666 
z
" transform="scale(0.015625)"/>
      </defs>
      <use xlink:href="#DejaVuSans-44"/>
      <use xlink:href="#DejaVuSans-43" x="77.001953"/>
      <use xlink:href="#DejaVuSans-41" x="146.826172"/>
      <use xlink:href="#DejaVuSans-43" x="213.484375"/>
      <use xlink:href="#DejaVuSans-2d" x="283.308594"/>
      <use xlink:href="#DejaVuSans-44" x="319.392578"/>
      <use xlink:href="#DejaVuSans-45" x="396.394531"/>
      <use xlink:href="#DejaVuSans-4c" x="459.578125"/>
      <use xlink:href="#DejaVuSans-41" x="517.541016"/>
      <use xlink:href="#DejaVuSans-59" x="578.199219"/>
      <use xlink:href="#DejaVuSans-2d" x="627.408203"/>
      <use xlink:href="#DejaVuSans-31" x="663.492188"/>
     </g>
    </g>
    <g id="line2d_22">
     <path d="M 313.160469 43.514219 
L 324.160469 43.514219 
L 335.160469 43.514219 
" style="fill: none; stroke: #dd8452; stroke-width: 3; stroke-linecap: round"/>
    </g>
    <g id="text_19">
     <!-- DCAC-DELAY-5 -->
     <g style="fill: #262626" transform="translate(343.960469 47.364219)scale(0.11 -0.11)">
      <use xlink:href="#DejaVuSans-44"/>
      <use xlink:href="#DejaVuSans-43" x="77.001953"/>
      <use xlink:href="#DejaVuSans-41" x="146.826172"/>
      <use xlink:href="#DejaVuSans-43" x="213.484375"/>
      <use xlink:href="#DejaVuSans-2d" x="283.308594"/>
      <use xlink:href="#DejaVuSans-44" x="319.392578"/>
      <use xlink:href="#DejaVuSans-45" x="396.394531"/>
      <use xlink:href="#DejaVuSans-4c" x="459.578125"/>
      <use xlink:href="#DejaVuSans-41" x="517.541016"/>
      <use xlink:href="#DejaVuSans-59" x="578.199219"/>
      <use xlink:href="#DejaVuSans-2d" x="627.408203"/>
      <use xlink:href="#DejaVuSans-35" x="663.492188"/>
     </g>
    </g>
    <g id="line2d_23">
     <path d="M 313.160469 59.660156 
L 324.160469 59.660156 
L 335.160469 59.660156 
" style="fill: none; stroke: #55a868; stroke-width: 3; stroke-linecap: round"/>
    </g>
    <g id="text_20">
     <!-- DCAC-DELAY-10 -->
     <g style="fill: #262626" transform="translate(343.960469 63.510156)scale(0.11 -0.11)">
      <use xlink:href="#DejaVuSans-44"/>
      <use xlink:href="#DejaVuSans-43" x="77.001953"/>
      <use xlink:href="#DejaVuSans-41" x="146.826172"/>
      <use xlink:href="#DejaVuSans-43" x="213.484375"/>
      <use xlink:href="#DejaVuSans-2d" x="283.308594"/>
      <use xlink:href="#DejaVuSans-44" x="319.392578"/>
      <use xlink:href="#DejaVuSans-45" x="396.394531"/>
      <use xlink:href="#DejaVuSans-4c" x="459.578125"/>
      <use xlink:href="#DejaVuSans-41" x="517.541016"/>
      <use xlink:href="#DejaVuSans-59" x="578.199219"/>
      <use xlink:href="#DejaVuSans-2d" x="627.408203"/>
      <use xlink:href="#DejaVuSans-31" x="663.492188"/>
      <use xlink:href="#DejaVuSans-30" x="727.115234"/>
     </g>
    </g>
    <g id="line2d_24">
     <path d="M 313.160469 75.806094 
L 324.160469 75.806094 
L 335.160469 75.806094 
" style="fill: none; stroke: #c44e52; stroke-width: 3; stroke-linecap: round"/>
    </g>
    <g id="text_21">
     <!-- DCAC-DELAY-20 -->
     <g style="fill: #262626" transform="translate(343.960469 79.656094)scale(0.11 -0.11)">
      <use xlink:href="#DejaVuSans-44"/>
      <use xlink:href="#DejaVuSans-43" x="77.001953"/>
      <use xlink:href="#DejaVuSans-41" x="146.826172"/>
      <use xlink:href="#DejaVuSans-43" x="213.484375"/>
      <use xlink:href="#DejaVuSans-2d" x="283.308594"/>
      <use xlink:href="#DejaVuSans-44" x="319.392578"/>
      <use xlink:href="#DejaVuSans-45" x="396.394531"/>
      <use xlink:href="#DejaVuSans-4c" x="459.578125"/>
      <use xlink:href="#DejaVuSans-41" x="517.541016"/>
      <use xlink:href="#DejaVuSans-59" x="578.199219"/>
      <use xlink:href="#DejaVuSans-2d" x="627.408203"/>
      <use xlink:href="#DejaVuSans-32" x="663.492188"/>
      <use xlink:href="#DejaVuSans-30" x="727.115234"/>
     </g>
    </g>
    <g id="line2d_25">
     <path d="M 313.160469 91.952031 
L 324.160469 91.952031 
L 335.160469 91.952031 
" style="fill: none; stroke: #8172b3; stroke-width: 3; stroke-linecap: round"/>
    </g>
    <g id="text_22">
     <!-- DCAC-DELAY-100 -->
     <g style="fill: #262626" transform="translate(343.960469 95.802031)scale(0.11 -0.11)">
      <use xlink:href="#DejaVuSans-44"/>
      <use xlink:href="#DejaVuSans-43" x="77.001953"/>
      <use xlink:href="#DejaVuSans-41" x="146.826172"/>
      <use xlink:href="#DejaVuSans-43" x="213.484375"/>
      <use xlink:href="#DejaVuSans-2d" x="283.308594"/>
      <use xlink:href="#DejaVuSans-44" x="319.392578"/>
      <use xlink:href="#DejaVuSans-45" x="396.394531"/>
      <use xlink:href="#DejaVuSans-4c" x="459.578125"/>
      <use xlink:href="#DejaVuSans-41" x="517.541016"/>
      <use xlink:href="#DejaVuSans-59" x="578.199219"/>
      <use xlink:href="#DejaVuSans-2d" x="627.408203"/>
      <use xlink:href="#DejaVuSans-31" x="663.492188"/>
      <use xlink:href="#DejaVuSans-30" x="727.115234"/>
      <use xlink:href="#DejaVuSans-30" x="790.738281"/>
     </g>
    </g>
   </g>
  </g>
 </g>
 <defs>
  <clipPath id="p2f3bfa6539">
   <rect x="67.86" y="12.96" width="379.98" height="281.7"/>
  </clipPath>
 </defs>
</svg>
