<?xml version="1.0" encoding="utf-8" standalone="no"?>
<!DOCTYPE svg PUBLIC "-//W3C//DTD SVG 1.1//EN"
  "http://www.w3.org/Graphics/SVG/1.1/DTD/svg11.dtd">
<svg xmlns:xlink="http://www.w3.org/1999/xlink" width="460.8pt" height="345.6pt" viewBox="0 0 460.8 345.6" xmlns="http://www.w3.org/2000/svg" version="1.1">
 <metadata>
  <rdf:RDF xmlns:dc="http://purl.org/dc/elements/1.1/" xmlns:cc="http://creativecommons.org/ns#" xmlns:rdf="http://www.w3.org/1999/02/22-rdf-syntax-ns#">
   <cc:Work>
    <dc:type rdf:resource="http://purl.org/dc/dcmitype/StillImage"/>
    <dc:date>2022-09-10T15:51:25.723029</dc:date>
    <dc:format>image/svg+xml</dc:format>
    <dc:creator>
     <cc:Agent>
      <dc:title>Matplotlib v3.5.3, https://matplotlib.org/</dc:title>
     </cc:Agent>
    </dc:creator>
   </cc:Work>
  </rdf:RDF>
 </metadata>
 <defs>
  <style type="text/css">*{stroke-linejoin: round; stroke-linecap: butt}</style>
 </defs>
 <g id="figure_1">
  <g id="patch_1">
   <path d="M 0 345.6 
L 460.8 345.6 
L 460.8 0 
L 0 0 
z
" style="fill: #ffffff"/>
  </g>
  <g id="axes_1">
   <g id="patch_2">
    <path d="M 67.86 294.66 
L 447.84 294.66 
L 447.84 29.76 
L 67.86 29.76 
z
" style="fill: #eaeaf2"/>
   </g>
   <g id="matplotlib.axis_1">
    <g id="xtick_1">
     <g id="line2d_1">
      <path d="M 82.228992 294.66 
L 82.228992 29.76 
" clip-path="url(#pa1758a4952)" style="fill: none; stroke: #ffffff; stroke-linecap: round"/>
     </g>
     <g id="text_1">
      <!-- 0.00 -->
      <g style="fill: #262626" transform="translate(69.982898 312.518281)scale(0.11 -0.11)">
       <defs>
        <path id="DejaVuSans-30" d="M 2034 4250 
Q 1547 4250 1301 3770 
Q 1056 3291 1056 2328 
Q 1056 1369 1301 889 
Q 1547 409 2034 409 
Q 2525 409 2770 889 
Q 3016 1369 3016 2328 
Q 3016 3291 2770 3770 
Q 2525 4250 2034 4250 
z
M 2034 4750 
Q 2819 4750 3233 4129 
Q 3647 3509 3647 2328 
Q 3647 1150 3233 529 
Q 2819 -91 2034 -91 
Q 1250 -91 836 529 
Q 422 1150 422 2328 
Q 422 3509 836 4129 
Q 1250 4750 2034 4750 
z
" transform="scale(0.015625)"/>
        <path id="DejaVuSans-2e" d="M 684 794 
L 1344 794 
L 1344 0 
L 684 0 
L 684 794 
z
" transform="scale(0.015625)"/>
       </defs>
       <use xlink:href="#DejaVuSans-30"/>
       <use xlink:href="#DejaVuSans-2e" x="63.623047"/>
       <use xlink:href="#DejaVuSans-30" x="95.410156"/>
       <use xlink:href="#DejaVuSans-30" x="159.033203"/>
      </g>
     </g>
    </g>
    <g id="xtick_2">
     <g id="line2d_2">
      <path d="M 140.285523 294.66 
L 140.285523 29.76 
" clip-path="url(#pa1758a4952)" style="fill: none; stroke: #ffffff; stroke-linecap: round"/>
     </g>
     <g id="text_2">
      <!-- 0.05 -->
      <g style="fill: #262626" transform="translate(128.03943 312.518281)scale(0.11 -0.11)">
       <defs>
        <path id="DejaVuSans-35" d="M 691 4666 
L 3169 4666 
L 3169 4134 
L 1269 4134 
L 1269 2991 
Q 1406 3038 1543 3061 
Q 1681 3084 1819 3084 
Q 2600 3084 3056 2656 
Q 3513 2228 3513 1497 
Q 3513 744 3044 326 
Q 2575 -91 1722 -91 
Q 1428 -91 1123 -41 
Q 819 9 494 109 
L 494 744 
Q 775 591 1075 516 
Q 1375 441 1709 441 
Q 2250 441 2565 725 
Q 2881 1009 2881 1497 
Q 2881 1984 2565 2268 
Q 2250 2553 1709 2553 
Q 1456 2553 1204 2497 
Q 953 2441 691 2322 
L 691 4666 
z
" transform="scale(0.015625)"/>
       </defs>
       <use xlink:href="#DejaVuSans-30"/>
       <use xlink:href="#DejaVuSans-2e" x="63.623047"/>
       <use xlink:href="#DejaVuSans-30" x="95.410156"/>
       <use xlink:href="#DejaVuSans-35" x="159.033203"/>
      </g>
     </g>
    </g>
    <g id="xtick_3">
     <g id="line2d_3">
      <path d="M 198.342055 294.66 
L 198.342055 29.76 
" clip-path="url(#pa1758a4952)" style="fill: none; stroke: #ffffff; stroke-linecap: round"/>
     </g>
     <g id="text_3">
      <!-- 0.10 -->
      <g style="fill: #262626" transform="translate(186.095961 312.518281)scale(0.11 -0.11)">
       <defs>
        <path id="DejaVuSans-31" d="M 794 531 
L 1825 531 
L 1825 4091 
L 703 3866 
L 703 4441 
L 1819 4666 
L 2450 4666 
L 2450 531 
L 3481 531 
L 3481 0 
L 794 0 
L 794 531 
z
" transform="scale(0.015625)"/>
       </defs>
       <use xlink:href="#DejaVuSans-30"/>
       <use xlink:href="#DejaVuSans-2e" x="63.623047"/>
       <use xlink:href="#DejaVuSans-31" x="95.410156"/>
       <use xlink:href="#DejaVuSans-30" x="159.033203"/>
      </g>
     </g>
    </g>
    <g id="xtick_4">
     <g id="line2d_4">
      <path d="M 256.398587 294.66 
L 256.398587 29.76 
" clip-path="url(#pa1758a4952)" style="fill: none; stroke: #ffffff; stroke-linecap: round"/>
     </g>
     <g id="text_4">
      <!-- 0.15 -->
      <g style="fill: #262626" transform="translate(244.152493 312.518281)scale(0.11 -0.11)">
       <use xlink:href="#DejaVuSans-30"/>
       <use xlink:href="#DejaVuSans-2e" x="63.623047"/>
       <use xlink:href="#DejaVuSans-31" x="95.410156"/>
       <use xlink:href="#DejaVuSans-35" x="159.033203"/>
      </g>
     </g>
    </g>
    <g id="xtick_5">
     <g id="line2d_5">
      <path d="M 314.455118 294.66 
L 314.455118 29.76 
" clip-path="url(#pa1758a4952)" style="fill: none; stroke: #ffffff; stroke-linecap: round"/>
     </g>
     <g id="text_5">
      <!-- 0.20 -->
      <g style="fill: #262626" transform="translate(302.209025 312.518281)scale(0.11 -0.11)">
       <defs>
        <path id="DejaVuSans-32" d="M 1228 531 
L 3431 531 
L 3431 0 
L 469 0 
L 469 531 
Q 828 903 1448 1529 
Q 2069 2156 2228 2338 
Q 2531 2678 2651 2914 
Q 2772 3150 2772 3378 
Q 2772 3750 2511 3984 
Q 2250 4219 1831 4219 
Q 1534 4219 1204 4116 
Q 875 4013 500 3803 
L 500 4441 
Q 881 4594 1212 4672 
Q 1544 4750 1819 4750 
Q 2544 4750 2975 4387 
Q 3406 4025 3406 3419 
Q 3406 3131 3298 2873 
Q 3191 2616 2906 2266 
Q 2828 2175 2409 1742 
Q 1991 1309 1228 531 
z
" transform="scale(0.015625)"/>
       </defs>
       <use xlink:href="#DejaVuSans-30"/>
       <use xlink:href="#DejaVuSans-2e" x="63.623047"/>
       <use xlink:href="#DejaVuSans-32" x="95.410156"/>
       <use xlink:href="#DejaVuSans-30" x="159.033203"/>
      </g>
     </g>
    </g>
    <g id="xtick_6">
     <g id="line2d_6">
      <path d="M 372.51165 294.66 
L 372.51165 29.76 
" clip-path="url(#pa1758a4952)" style="fill: none; stroke: #ffffff; stroke-linecap: round"/>
     </g>
     <g id="text_6">
      <!-- 0.25 -->
      <g style="fill: #262626" transform="translate(360.265556 312.518281)scale(0.11 -0.11)">
       <use xlink:href="#DejaVuSans-30"/>
       <use xlink:href="#DejaVuSans-2e" x="63.623047"/>
       <use xlink:href="#DejaVuSans-32" x="95.410156"/>
       <use xlink:href="#DejaVuSans-35" x="159.033203"/>
      </g>
     </g>
    </g>
    <g id="xtick_7">
     <g id="line2d_7">
      <path d="M 430.568182 294.66 
L 430.568182 29.76 
" clip-path="url(#pa1758a4952)" style="fill: none; stroke: #ffffff; stroke-linecap: round"/>
     </g>
     <g id="text_7">
      <!-- 0.30 -->
      <g style="fill: #262626" transform="translate(418.322088 312.518281)scale(0.11 -0.11)">
       <defs>
        <path id="DejaVuSans-33" d="M 2597 2516 
Q 3050 2419 3304 2112 
Q 3559 1806 3559 1356 
Q 3559 666 3084 287 
Q 2609 -91 1734 -91 
Q 1441 -91 1130 -33 
Q 819 25 488 141 
L 488 750 
Q 750 597 1062 519 
Q 1375 441 1716 441 
Q 2309 441 2620 675 
Q 2931 909 2931 1356 
Q 2931 1769 2642 2001 
Q 2353 2234 1838 2234 
L 1294 2234 
L 1294 2753 
L 1863 2753 
Q 2328 2753 2575 2939 
Q 2822 3125 2822 3475 
Q 2822 3834 2567 4026 
Q 2313 4219 1838 4219 
Q 1578 4219 1281 4162 
Q 984 4106 628 3988 
L 628 4550 
Q 988 4650 1302 4700 
Q 1616 4750 1894 4750 
Q 2613 4750 3031 4423 
Q 3450 4097 3450 3541 
Q 3450 3153 3228 2886 
Q 3006 2619 2597 2516 
z
" transform="scale(0.015625)"/>
       </defs>
       <use xlink:href="#DejaVuSans-30"/>
       <use xlink:href="#DejaVuSans-2e" x="63.623047"/>
       <use xlink:href="#DejaVuSans-33" x="95.410156"/>
       <use xlink:href="#DejaVuSans-30" x="159.033203"/>
      </g>
     </g>
    </g>
    <g id="text_8">
     <!-- Timesteps (in Million) -->
     <g style="fill: #262626" transform="translate(183.104219 329.44375)scale(0.14 -0.14)">
      <defs>
       <path id="DejaVuSans-54" d="M -19 4666 
L 3928 4666 
L 3928 4134 
L 2272 4134 
L 2272 0 
L 1638 0 
L 1638 4134 
L -19 4134 
L -19 4666 
z
" transform="scale(0.015625)"/>
       <path id="DejaVuSans-69" d="M 603 3500 
L 1178 3500 
L 1178 0 
L 603 0 
L 603 3500 
z
M 603 4863 
L 1178 4863 
L 1178 4134 
L 603 4134 
L 603 4863 
z
" transform="scale(0.015625)"/>
       <path id="DejaVuSans-6d" d="M 3328 2828 
Q 3544 3216 3844 3400 
Q 4144 3584 4550 3584 
Q 5097 3584 5394 3201 
Q 5691 2819 5691 2113 
L 5691 0 
L 5113 0 
L 5113 2094 
Q 5113 2597 4934 2840 
Q 4756 3084 4391 3084 
Q 3944 3084 3684 2787 
Q 3425 2491 3425 1978 
L 3425 0 
L 2847 0 
L 2847 2094 
Q 2847 2600 2669 2842 
Q 2491 3084 2119 3084 
Q 1678 3084 1418 2786 
Q 1159 2488 1159 1978 
L 1159 0 
L 581 0 
L 581 3500 
L 1159 3500 
L 1159 2956 
Q 1356 3278 1631 3431 
Q 1906 3584 2284 3584 
Q 2666 3584 2933 3390 
Q 3200 3197 3328 2828 
z
" transform="scale(0.015625)"/>
       <path id="DejaVuSans-65" d="M 3597 1894 
L 3597 1613 
L 953 1613 
Q 991 1019 1311 708 
Q 1631 397 2203 397 
Q 2534 397 2845 478 
Q 3156 559 3463 722 
L 3463 178 
Q 3153 47 2828 -22 
Q 2503 -91 2169 -91 
Q 1331 -91 842 396 
Q 353 884 353 1716 
Q 353 2575 817 3079 
Q 1281 3584 2069 3584 
Q 2775 3584 3186 3129 
Q 3597 2675 3597 1894 
z
M 3022 2063 
Q 3016 2534 2758 2815 
Q 2500 3097 2075 3097 
Q 1594 3097 1305 2825 
Q 1016 2553 972 2059 
L 3022 2063 
z
" transform="scale(0.015625)"/>
       <path id="DejaVuSans-73" d="M 2834 3397 
L 2834 2853 
Q 2591 2978 2328 3040 
Q 2066 3103 1784 3103 
Q 1356 3103 1142 2972 
Q 928 2841 928 2578 
Q 928 2378 1081 2264 
Q 1234 2150 1697 2047 
L 1894 2003 
Q 2506 1872 2764 1633 
Q 3022 1394 3022 966 
Q 3022 478 2636 193 
Q 2250 -91 1575 -91 
Q 1294 -91 989 -36 
Q 684 19 347 128 
L 347 722 
Q 666 556 975 473 
Q 1284 391 1588 391 
Q 1994 391 2212 530 
Q 2431 669 2431 922 
Q 2431 1156 2273 1281 
Q 2116 1406 1581 1522 
L 1381 1569 
Q 847 1681 609 1914 
Q 372 2147 372 2553 
Q 372 3047 722 3315 
Q 1072 3584 1716 3584 
Q 2034 3584 2315 3537 
Q 2597 3491 2834 3397 
z
" transform="scale(0.015625)"/>
       <path id="DejaVuSans-74" d="M 1172 4494 
L 1172 3500 
L 2356 3500 
L 2356 3053 
L 1172 3053 
L 1172 1153 
Q 1172 725 1289 603 
Q 1406 481 1766 481 
L 2356 481 
L 2356 0 
L 1766 0 
Q 1100 0 847 248 
Q 594 497 594 1153 
L 594 3053 
L 172 3053 
L 172 3500 
L 594 3500 
L 594 4494 
L 1172 4494 
z
" transform="scale(0.015625)"/>
       <path id="DejaVuSans-70" d="M 1159 525 
L 1159 -1331 
L 581 -1331 
L 581 3500 
L 1159 3500 
L 1159 2969 
Q 1341 3281 1617 3432 
Q 1894 3584 2278 3584 
Q 2916 3584 3314 3078 
Q 3713 2572 3713 1747 
Q 3713 922 3314 415 
Q 2916 -91 2278 -91 
Q 1894 -91 1617 61 
Q 1341 213 1159 525 
z
M 3116 1747 
Q 3116 2381 2855 2742 
Q 2594 3103 2138 3103 
Q 1681 3103 1420 2742 
Q 1159 2381 1159 1747 
Q 1159 1113 1420 752 
Q 1681 391 2138 391 
Q 2594 391 2855 752 
Q 3116 1113 3116 1747 
z
" transform="scale(0.015625)"/>
       <path id="DejaVuSans-20" transform="scale(0.015625)"/>
       <path id="DejaVuSans-28" d="M 1984 4856 
Q 1566 4138 1362 3434 
Q 1159 2731 1159 2009 
Q 1159 1288 1364 580 
Q 1569 -128 1984 -844 
L 1484 -844 
Q 1016 -109 783 600 
Q 550 1309 550 2009 
Q 550 2706 781 3412 
Q 1013 4119 1484 4856 
L 1984 4856 
z
" transform="scale(0.015625)"/>
       <path id="DejaVuSans-6e" d="M 3513 2113 
L 3513 0 
L 2938 0 
L 2938 2094 
Q 2938 2591 2744 2837 
Q 2550 3084 2163 3084 
Q 1697 3084 1428 2787 
Q 1159 2491 1159 1978 
L 1159 0 
L 581 0 
L 581 3500 
L 1159 3500 
L 1159 2956 
Q 1366 3272 1645 3428 
Q 1925 3584 2291 3584 
Q 2894 3584 3203 3211 
Q 3513 2838 3513 2113 
z
" transform="scale(0.015625)"/>
       <path id="DejaVuSans-4d" d="M 628 4666 
L 1569 4666 
L 2759 1491 
L 3956 4666 
L 4897 4666 
L 4897 0 
L 4281 0 
L 4281 4097 
L 3078 897 
L 2444 897 
L 1241 4097 
L 1241 0 
L 628 0 
L 628 4666 
z
" transform="scale(0.015625)"/>
       <path id="DejaVuSans-6c" d="M 603 4863 
L 1178 4863 
L 1178 0 
L 603 0 
L 603 4863 
z
" transform="scale(0.015625)"/>
       <path id="DejaVuSans-6f" d="M 1959 3097 
Q 1497 3097 1228 2736 
Q 959 2375 959 1747 
Q 959 1119 1226 758 
Q 1494 397 1959 397 
Q 2419 397 2687 759 
Q 2956 1122 2956 1747 
Q 2956 2369 2687 2733 
Q 2419 3097 1959 3097 
z
M 1959 3584 
Q 2709 3584 3137 3096 
Q 3566 2609 3566 1747 
Q 3566 888 3137 398 
Q 2709 -91 1959 -91 
Q 1206 -91 779 398 
Q 353 888 353 1747 
Q 353 2609 779 3096 
Q 1206 3584 1959 3584 
z
" transform="scale(0.015625)"/>
       <path id="DejaVuSans-29" d="M 513 4856 
L 1013 4856 
Q 1481 4119 1714 3412 
Q 1947 2706 1947 2009 
Q 1947 1309 1714 600 
Q 1481 -109 1013 -844 
L 513 -844 
Q 928 -128 1133 580 
Q 1338 1288 1338 2009 
Q 1338 2731 1133 3434 
Q 928 4138 513 4856 
z
" transform="scale(0.015625)"/>
      </defs>
      <use xlink:href="#DejaVuSans-54"/>
      <use xlink:href="#DejaVuSans-69" x="57.958984"/>
      <use xlink:href="#DejaVuSans-6d" x="85.742188"/>
      <use xlink:href="#DejaVuSans-65" x="183.154297"/>
      <use xlink:href="#DejaVuSans-73" x="244.677734"/>
      <use xlink:href="#DejaVuSans-74" x="296.777344"/>
      <use xlink:href="#DejaVuSans-65" x="335.986328"/>
      <use xlink:href="#DejaVuSans-70" x="397.509766"/>
      <use xlink:href="#DejaVuSans-73" x="460.986328"/>
      <use xlink:href="#DejaVuSans-20" x="513.085938"/>
      <use xlink:href="#DejaVuSans-28" x="544.873047"/>
      <use xlink:href="#DejaVuSans-69" x="583.886719"/>
      <use xlink:href="#DejaVuSans-6e" x="611.669922"/>
      <use xlink:href="#DejaVuSans-20" x="675.048828"/>
      <use xlink:href="#DejaVuSans-4d" x="706.835938"/>
      <use xlink:href="#DejaVuSans-69" x="793.115234"/>
      <use xlink:href="#DejaVuSans-6c" x="820.898438"/>
      <use xlink:href="#DejaVuSans-6c" x="848.681641"/>
      <use xlink:href="#DejaVuSans-69" x="876.464844"/>
      <use xlink:href="#DejaVuSans-6f" x="904.248047"/>
      <use xlink:href="#DejaVuSans-6e" x="965.429688"/>
      <use xlink:href="#DejaVuSans-29" x="1028.808594"/>
     </g>
    </g>
   </g>
   <g id="matplotlib.axis_2">
    <g id="ytick_1">
     <g id="line2d_8">
      <path d="M 67.86 282.619091 
L 447.84 282.619091 
" clip-path="url(#pa1758a4952)" style="fill: none; stroke: #ffffff; stroke-linecap: round"/>
     </g>
     <g id="text_9">
      <!-- 0 -->
      <g style="fill: #262626" transform="translate(51.36125 286.798232)scale(0.11 -0.11)">
       <use xlink:href="#DejaVuSans-30"/>
      </g>
     </g>
    </g>
    <g id="ytick_2">
     <g id="line2d_9">
      <path d="M 67.86 248.681918 
L 447.84 248.681918 
" clip-path="url(#pa1758a4952)" style="fill: none; stroke: #ffffff; stroke-linecap: round"/>
     </g>
     <g id="text_10">
      <!-- 250 -->
      <g style="fill: #262626" transform="translate(37.36375 252.861058)scale(0.11 -0.11)">
       <use xlink:href="#DejaVuSans-32"/>
       <use xlink:href="#DejaVuSans-35" x="63.623047"/>
       <use xlink:href="#DejaVuSans-30" x="127.246094"/>
      </g>
     </g>
    </g>
    <g id="ytick_3">
     <g id="line2d_10">
      <path d="M 67.86 214.744744 
L 447.84 214.744744 
" clip-path="url(#pa1758a4952)" style="fill: none; stroke: #ffffff; stroke-linecap: round"/>
     </g>
     <g id="text_11">
      <!-- 500 -->
      <g style="fill: #262626" transform="translate(37.36375 218.923885)scale(0.11 -0.11)">
       <use xlink:href="#DejaVuSans-35"/>
       <use xlink:href="#DejaVuSans-30" x="63.623047"/>
       <use xlink:href="#DejaVuSans-30" x="127.246094"/>
      </g>
     </g>
    </g>
    <g id="ytick_4">
     <g id="line2d_11">
      <path d="M 67.86 180.807571 
L 447.84 180.807571 
" clip-path="url(#pa1758a4952)" style="fill: none; stroke: #ffffff; stroke-linecap: round"/>
     </g>
     <g id="text_12">
      <!-- 750 -->
      <g style="fill: #262626" transform="translate(37.36375 184.986712)scale(0.11 -0.11)">
       <defs>
        <path id="DejaVuSans-37" d="M 525 4666 
L 3525 4666 
L 3525 4397 
L 1831 0 
L 1172 0 
L 2766 4134 
L 525 4134 
L 525 4666 
z
" transform="scale(0.015625)"/>
       </defs>
       <use xlink:href="#DejaVuSans-37"/>
       <use xlink:href="#DejaVuSans-35" x="63.623047"/>
       <use xlink:href="#DejaVuSans-30" x="127.246094"/>
      </g>
     </g>
    </g>
    <g id="ytick_5">
     <g id="line2d_12">
      <path d="M 67.86 146.870398 
L 447.84 146.870398 
" clip-path="url(#pa1758a4952)" style="fill: none; stroke: #ffffff; stroke-linecap: round"/>
     </g>
     <g id="text_13">
      <!-- 1000 -->
      <g style="fill: #262626" transform="translate(30.365 151.049538)scale(0.11 -0.11)">
       <use xlink:href="#DejaVuSans-31"/>
       <use xlink:href="#DejaVuSans-30" x="63.623047"/>
       <use xlink:href="#DejaVuSans-30" x="127.246094"/>
       <use xlink:href="#DejaVuSans-30" x="190.869141"/>
      </g>
     </g>
    </g>
    <g id="ytick_6">
     <g id="line2d_13">
      <path d="M 67.86 112.933224 
L 447.84 112.933224 
" clip-path="url(#pa1758a4952)" style="fill: none; stroke: #ffffff; stroke-linecap: round"/>
     </g>
     <g id="text_14">
      <!-- 1250 -->
      <g style="fill: #262626" transform="translate(30.365 117.112365)scale(0.11 -0.11)">
       <use xlink:href="#DejaVuSans-31"/>
       <use xlink:href="#DejaVuSans-32" x="63.623047"/>
       <use xlink:href="#DejaVuSans-35" x="127.246094"/>
       <use xlink:href="#DejaVuSans-30" x="190.869141"/>
      </g>
     </g>
    </g>
    <g id="ytick_7">
     <g id="line2d_14">
      <path d="M 67.86 78.996051 
L 447.84 78.996051 
" clip-path="url(#pa1758a4952)" style="fill: none; stroke: #ffffff; stroke-linecap: round"/>
     </g>
     <g id="text_15">
      <!-- 1500 -->
      <g style="fill: #262626" transform="translate(30.365 83.175192)scale(0.11 -0.11)">
       <use xlink:href="#DejaVuSans-31"/>
       <use xlink:href="#DejaVuSans-35" x="63.623047"/>
       <use xlink:href="#DejaVuSans-30" x="127.246094"/>
       <use xlink:href="#DejaVuSans-30" x="190.869141"/>
      </g>
     </g>
    </g>
    <g id="ytick_8">
     <g id="line2d_15">
      <path d="M 67.86 45.058878 
L 447.84 45.058878 
" clip-path="url(#pa1758a4952)" style="fill: none; stroke: #ffffff; stroke-linecap: round"/>
     </g>
     <g id="text_16">
      <!-- 1750 -->
      <g style="fill: #262626" transform="translate(30.365 49.238018)scale(0.11 -0.11)">
       <use xlink:href="#DejaVuSans-31"/>
       <use xlink:href="#DejaVuSans-37" x="63.623047"/>
       <use xlink:href="#DejaVuSans-35" x="127.246094"/>
       <use xlink:href="#DejaVuSans-30" x="190.869141"/>
      </g>
     </g>
    </g>
    <g id="text_17">
     <!-- # Lows (Δx &lt; 0) -->
     <g style="fill: #262626" transform="translate(23.453438 219.12)rotate(-90)scale(0.14 -0.14)">
      <defs>
       <path id="DejaVuSans-23" d="M 3272 2816 
L 2363 2816 
L 2100 1772 
L 3016 1772 
L 3272 2816 
z
M 2803 4594 
L 2478 3297 
L 3391 3297 
L 3719 4594 
L 4219 4594 
L 3897 3297 
L 4872 3297 
L 4872 2816 
L 3775 2816 
L 3519 1772 
L 4513 1772 
L 4513 1294 
L 3397 1294 
L 3072 0 
L 2572 0 
L 2894 1294 
L 1978 1294 
L 1656 0 
L 1153 0 
L 1478 1294 
L 494 1294 
L 494 1772 
L 1594 1772 
L 1856 2816 
L 850 2816 
L 850 3297 
L 1978 3297 
L 2297 4594 
L 2803 4594 
z
" transform="scale(0.015625)"/>
       <path id="DejaVuSans-4c" d="M 628 4666 
L 1259 4666 
L 1259 531 
L 3531 531 
L 3531 0 
L 628 0 
L 628 4666 
z
" transform="scale(0.015625)"/>
       <path id="DejaVuSans-77" d="M 269 3500 
L 844 3500 
L 1563 769 
L 2278 3500 
L 2956 3500 
L 3675 769 
L 4391 3500 
L 4966 3500 
L 4050 0 
L 3372 0 
L 2619 2869 
L 1863 0 
L 1184 0 
L 269 3500 
z
" transform="scale(0.015625)"/>
       <path id="DejaVuSans-394" d="M 2188 4044 
L 906 525 
L 3472 525 
L 2188 4044 
z
M 50 0 
L 1831 4666 
L 2547 4666 
L 4325 0 
L 50 0 
z
" transform="scale(0.015625)"/>
       <path id="DejaVuSans-78" d="M 3513 3500 
L 2247 1797 
L 3578 0 
L 2900 0 
L 1881 1375 
L 863 0 
L 184 0 
L 1544 1831 
L 300 3500 
L 978 3500 
L 1906 2253 
L 2834 3500 
L 3513 3500 
z
" transform="scale(0.015625)"/>
       <path id="DejaVuSans-3c" d="M 4684 3150 
L 1459 2003 
L 4684 863 
L 4684 294 
L 678 1747 
L 678 2266 
L 4684 3719 
L 4684 3150 
z
" transform="scale(0.015625)"/>
      </defs>
      <use xlink:href="#DejaVuSans-23"/>
      <use xlink:href="#DejaVuSans-20" x="83.789062"/>
      <use xlink:href="#DejaVuSans-4c" x="115.576172"/>
      <use xlink:href="#DejaVuSans-6f" x="169.539062"/>
      <use xlink:href="#DejaVuSans-77" x="230.720703"/>
      <use xlink:href="#DejaVuSans-73" x="312.507812"/>
      <use xlink:href="#DejaVuSans-20" x="364.607422"/>
      <use xlink:href="#DejaVuSans-28" x="396.394531"/>
      <use xlink:href="#DejaVuSans-394" x="435.408203"/>
      <use xlink:href="#DejaVuSans-78" x="503.816406"/>
      <use xlink:href="#DejaVuSans-20" x="562.996094"/>
      <use xlink:href="#DejaVuSans-3c" x="594.783203"/>
      <use xlink:href="#DejaVuSans-20" x="678.572266"/>
      <use xlink:href="#DejaVuSans-30" x="710.359375"/>
      <use xlink:href="#DejaVuSans-29" x="773.982422"/>
     </g>
    </g>
   </g>
   <g id="PolyCollection_1">
    <defs>
     <path id="m9d3580709f" d="M 85.131818 -131.669748 
L 85.131818 -184.068743 
L 88.034645 -201.851822 
L 90.937471 -216.376932 
L 93.840298 -195.607382 
L 96.743125 -239.997205 
L 99.645951 -63.388155 
L 102.548778 -63.388155 
L 105.451604 -72.076072 
L 108.354431 -89.044658 
L 111.257257 -69.361098 
L 114.160084 -63.523904 
L 117.062911 -74.248051 
L 119.965737 -63.659653 
L 122.868564 -93.388616 
L 125.77139 -63.659653 
L 128.674217 -63.795401 
L 131.577044 -63.659653 
L 134.47987 -63.523904 
L 137.382697 -63.659653 
L 140.285523 -63.93115 
L 143.18835 -63.523904 
L 146.091176 -91.488135 
L 148.994003 -63.93115 
L 151.89683 -63.388155 
L 154.799656 -63.523904 
L 157.702483 -63.659653 
L 160.605309 -63.93115 
L 163.508136 -111.443193 
L 166.410963 -63.659653 
L 169.313789 -66.917621 
L 172.216616 -63.795401 
L 175.119442 -63.795401 
L 178.022269 -63.659653 
L 180.925095 -63.388155 
L 183.827922 -63.659653 
L 186.730749 -63.659653 
L 189.633575 -63.659653 
L 192.536402 -74.791045 
L 195.439228 -63.523904 
L 198.342055 -63.523904 
L 201.244882 -63.795401 
L 204.147708 -63.523904 
L 207.050535 -63.659653 
L 209.953361 -63.795401 
L 212.856188 -63.659653 
L 215.759015 -63.523904 
L 218.661841 -63.523904 
L 221.564668 -71.125831 
L 224.467494 -63.659653 
L 227.370321 -63.523904 
L 230.273147 -63.523904 
L 233.175974 -63.659653 
L 236.078801 -63.659653 
L 238.981627 -63.523904 
L 241.884454 -63.523904 
L 244.78728 -63.659653 
L 247.690107 -63.659653 
L 250.592934 -63.523904 
L 253.49576 -63.795401 
L 256.398587 -63.659653 
L 259.301413 -63.659653 
L 262.20424 -63.523904 
L 265.107066 -63.93115 
L 268.009893 -63.523904 
L 270.91272 -63.659653 
L 273.815546 -63.523904 
L 276.718373 -63.523904 
L 279.621199 -63.523904 
L 282.524026 -63.795401 
L 285.426853 -63.388155 
L 288.329679 -63.659653 
L 291.232506 -63.795401 
L 294.135332 -63.795401 
L 297.038159 -63.795401 
L 299.940985 -64.066899 
L 302.843812 -63.659653 
L 305.746639 -63.659653 
L 308.649465 -63.659653 
L 311.552292 -63.93115 
L 314.455118 -63.93115 
L 317.357945 -63.795401 
L 320.260772 -63.93115 
L 323.163598 -63.795401 
L 326.066425 -63.523904 
L 328.969251 -63.659653 
L 331.872078 -64.202647 
L 334.774905 -63.795401 
L 337.677731 -63.795401 
L 340.580558 -64.066899 
L 343.483384 -63.659653 
L 346.386211 -63.659653 
L 349.289037 -63.795401 
L 352.191864 -63.93115 
L 355.094691 -63.523904 
L 357.997517 -63.93115 
L 360.900344 -63.523904 
L 363.80317 -63.659653 
L 366.705997 -63.523904 
L 369.608824 -63.795401 
L 372.51165 -63.795401 
L 375.414477 -64.474145 
L 378.317303 -63.795401 
L 381.22013 -63.795401 
L 384.122956 -63.659653 
L 387.025783 -63.795401 
L 389.92861 -63.659653 
L 392.831436 -63.795401 
L 395.734263 -63.659653 
L 398.637089 -63.523904 
L 401.539916 -63.523904 
L 404.442743 -63.93115 
L 407.345569 -64.202647 
L 410.248396 -64.066899 
L 413.151222 -63.523904 
L 416.054049 -63.659653 
L 418.956875 -63.659653 
L 421.859702 -63.659653 
L 424.762529 -63.795401 
L 427.665355 -64.066899 
L 430.568182 -63.93115 
L 430.568182 -63.388155 
L 430.568182 -63.388155 
L 427.665355 -63.523904 
L 424.762529 -63.388155 
L 421.859702 -63.252406 
L 418.956875 -63.252406 
L 416.054049 -63.116658 
L 413.151222 -63.252406 
L 410.248396 -63.523904 
L 407.345569 -63.252406 
L 404.442743 -63.388155 
L 401.539916 -63.252406 
L 398.637089 -63.252406 
L 395.734263 -62.980909 
L 392.831436 -63.252406 
L 389.92861 -63.252406 
L 387.025783 -63.116658 
L 384.122956 -63.252406 
L 381.22013 -63.252406 
L 378.317303 -63.388155 
L 375.414477 -63.388155 
L 372.51165 -63.252406 
L 369.608824 -63.252406 
L 366.705997 -63.252406 
L 363.80317 -63.252406 
L 360.900344 -63.523904 
L 357.997517 -63.252406 
L 355.094691 -63.116658 
L 352.191864 -63.116658 
L 349.289037 -63.252406 
L 346.386211 -63.388155 
L 343.483384 -63.388155 
L 340.580558 -63.388155 
L 337.677731 -63.252406 
L 334.774905 -63.252406 
L 331.872078 -63.252406 
L 328.969251 -63.252406 
L 326.066425 -63.116658 
L 323.163598 -63.252406 
L 320.260772 -63.388155 
L 317.357945 -63.388155 
L 314.455118 -63.388155 
L 311.552292 -63.388155 
L 308.649465 -63.252406 
L 305.746639 -63.116658 
L 302.843812 -63.252406 
L 299.940985 -63.116658 
L 297.038159 -63.252406 
L 294.135332 -63.116658 
L 291.232506 -63.252406 
L 288.329679 -63.388155 
L 285.426853 -63.252406 
L 282.524026 -63.252406 
L 279.621199 -63.252406 
L 276.718373 -63.116658 
L 273.815546 -63.252406 
L 270.91272 -63.388155 
L 268.009893 -63.116658 
L 265.107066 -63.252406 
L 262.20424 -63.116658 
L 259.301413 -63.388155 
L 256.398587 -63.252406 
L 253.49576 -63.116658 
L 250.592934 -63.252406 
L 247.690107 -63.388155 
L 244.78728 -63.116658 
L 241.884454 -63.252406 
L 238.981627 -63.116658 
L 236.078801 -63.252406 
L 233.175974 -63.252406 
L 230.273147 -63.116658 
L 227.370321 -63.388155 
L 224.467494 -63.388155 
L 221.564668 -63.252406 
L 218.661841 -63.252406 
L 215.759015 -63.252406 
L 212.856188 -63.116658 
L 209.953361 -63.116658 
L 207.050535 -63.252406 
L 204.147708 -63.252406 
L 201.244882 -63.252406 
L 198.342055 -63.116658 
L 195.439228 -63.252406 
L 192.536402 -63.252406 
L 189.633575 -63.252406 
L 186.730749 -63.252406 
L 183.827922 -63.252406 
L 180.925095 -63.116658 
L 178.022269 -63.252406 
L 175.119442 -63.116658 
L 172.216616 -63.252406 
L 169.313789 -63.252406 
L 166.410963 -63.388155 
L 163.508136 -63.252406 
L 160.605309 -63.252406 
L 157.702483 -63.116658 
L 154.799656 -63.252406 
L 151.89683 -63.388155 
L 148.994003 -63.523904 
L 146.091176 -63.388155 
L 143.18835 -63.252406 
L 140.285523 -63.252406 
L 137.382697 -63.116658 
L 134.47987 -63.252406 
L 131.577044 -63.252406 
L 128.674217 -63.252406 
L 125.77139 -63.252406 
L 122.868564 -63.252406 
L 119.965737 -63.252406 
L 117.062911 -63.252406 
L 114.160084 -63.252406 
L 111.257257 -63.388155 
L 108.354431 -63.116658 
L 105.451604 -63.116658 
L 102.548778 -63.116658 
L 99.645951 -63.252406 
L 96.743125 -135.334963 
L 93.840298 -148.09534 
L 90.937471 -133.705978 
L 88.034645 -161.262963 
L 85.131818 -131.669748 
z
" style="stroke: #ffffff; stroke-opacity: 0.5"/>
    </defs>
    <g clip-path="url(#pa1758a4952)">
     <use xlink:href="#m9d3580709f" x="0" y="345.6" style="fill: #4c72b0; fill-opacity: 0.5; stroke: #ffffff; stroke-opacity: 0.5"/>
    </g>
   </g>
   <g id="PolyCollection_2">
    <defs>
     <path id="m3c88804a9e" d="M 85.131818 -139.135926 
L 85.131818 -233.617017 
L 88.034645 -229.816053 
L 90.937471 -231.037791 
L 93.840298 -233.345519 
L 96.743125 -190.313183 
L 99.645951 -66.510375 
L 102.548778 -87.551423 
L 105.451604 -64.338396 
L 108.354431 -64.338396 
L 111.257257 -64.338396 
L 114.160084 -64.338396 
L 117.062911 -65.017139 
L 119.965737 -119.452365 
L 122.868564 -71.804574 
L 125.77139 -89.85915 
L 128.674217 -93.524365 
L 131.577044 -66.374626 
L 134.47987 -65.695883 
L 137.382697 -65.695883 
L 140.285523 -65.017139 
L 143.18835 -95.696344 
L 146.091176 -66.374626 
L 148.994003 -65.017139 
L 151.89683 -65.017139 
L 154.799656 -66.510375 
L 157.702483 -65.152888 
L 160.605309 -65.695883 
L 163.508136 -66.374626 
L 166.410963 -66.374626 
L 169.313789 -65.695883 
L 172.216616 -65.288637 
L 175.119442 -65.695883 
L 178.022269 -65.96738 
L 180.925095 -65.695883 
L 183.827922 -65.831632 
L 186.730749 -65.831632 
L 189.633575 -65.017139 
L 192.536402 -66.646124 
L 195.439228 -66.374626 
L 198.342055 -65.831632 
L 201.244882 -65.831632 
L 204.147708 -64.881391 
L 207.050535 -65.288637 
L 209.953361 -65.152888 
L 212.856188 -65.831632 
L 215.759015 -65.96738 
L 218.661841 -65.017139 
L 221.564668 -65.017139 
L 224.467494 -65.695883 
L 227.370321 -66.103129 
L 230.273147 -65.152888 
L 233.175974 -65.695883 
L 236.078801 -65.695883 
L 238.981627 -65.017139 
L 241.884454 -65.831632 
L 244.78728 -66.510375 
L 247.690107 -65.695883 
L 250.592934 -66.646124 
L 253.49576 -65.695883 
L 256.398587 -66.103129 
L 259.301413 -66.510375 
L 262.20424 -67.596365 
L 265.107066 -65.831632 
L 268.009893 -66.646124 
L 270.91272 -65.560134 
L 273.815546 -66.103129 
L 276.718373 -66.374626 
L 279.621199 -65.831632 
L 282.524026 -65.152888 
L 285.426853 -65.831632 
L 288.329679 -65.831632 
L 291.232506 -65.560134 
L 294.135332 -66.510375 
L 297.038159 -67.05337 
L 299.940985 -66.646124 
L 302.843812 -65.831632 
L 305.746639 -65.695883 
L 308.649465 -65.152888 
L 311.552292 -65.831632 
L 314.455118 -66.374626 
L 317.357945 -66.646124 
L 320.260772 -65.831632 
L 323.163598 -65.017139 
L 326.066425 -66.238878 
L 328.969251 -67.189119 
L 331.872078 -65.831632 
L 334.774905 -65.152888 
L 337.677731 -66.781873 
L 340.580558 -65.96738 
L 343.483384 -65.017139 
L 346.386211 -65.831632 
L 349.289037 -65.96738 
L 352.191864 -65.695883 
L 355.094691 -65.152888 
L 357.997517 -65.152888 
L 360.900344 -65.831632 
L 363.80317 -65.152888 
L 366.705997 -66.103129 
L 369.608824 -65.017139 
L 372.51165 -65.152888 
L 375.414477 -65.695883 
L 378.317303 -65.831632 
L 381.22013 -65.831632 
L 384.122956 -65.152888 
L 387.025783 -65.695883 
L 389.92861 -65.831632 
L 392.831436 -65.152888 
L 395.734263 -65.695883 
L 398.637089 -65.695883 
L 401.539916 -65.96738 
L 404.442743 -65.695883 
L 407.345569 -66.510375 
L 410.248396 -65.152888 
L 413.151222 -66.646124 
L 416.054049 -65.96738 
L 418.956875 -66.103129 
L 421.859702 -64.474145 
L 424.762529 -65.152888 
L 427.665355 -66.238878 
L 430.568182 -66.103129 
L 430.568182 -64.474145 
L 430.568182 -64.474145 
L 427.665355 -64.338396 
L 424.762529 -64.474145 
L 421.859702 -64.338396 
L 418.956875 -64.474145 
L 416.054049 -63.659653 
L 413.151222 -63.659653 
L 410.248396 -64.338396 
L 407.345569 -64.474145 
L 404.442743 -64.338396 
L 401.539916 -64.338396 
L 398.637089 -64.474145 
L 395.734263 -64.338396 
L 392.831436 -63.659653 
L 389.92861 -64.474145 
L 387.025783 -65.017139 
L 384.122956 -64.338396 
L 381.22013 -64.066899 
L 378.317303 -64.338396 
L 375.414477 -64.338396 
L 372.51165 -63.795401 
L 369.608824 -64.338396 
L 366.705997 -65.152888 
L 363.80317 -63.659653 
L 360.900344 -64.338396 
L 357.997517 -64.338396 
L 355.094691 -64.338396 
L 352.191864 -63.659653 
L 349.289037 -64.338396 
L 346.386211 -64.338396 
L 343.483384 -63.795401 
L 340.580558 -64.338396 
L 337.677731 -64.338396 
L 334.774905 -64.474145 
L 331.872078 -65.017139 
L 328.969251 -64.338396 
L 326.066425 -64.881391 
L 323.163598 -64.066899 
L 320.260772 -64.338396 
L 317.357945 -64.338396 
L 314.455118 -64.338396 
L 311.552292 -63.659653 
L 308.649465 -63.659653 
L 305.746639 -63.659653 
L 302.843812 -63.659653 
L 299.940985 -64.338396 
L 297.038159 -65.017139 
L 294.135332 -64.338396 
L 291.232506 -64.338396 
L 288.329679 -64.338396 
L 285.426853 -64.338396 
L 282.524026 -64.338396 
L 279.621199 -63.795401 
L 276.718373 -65.152888 
L 273.815546 -64.338396 
L 270.91272 -64.338396 
L 268.009893 -63.795401 
L 265.107066 -64.338396 
L 262.20424 -64.745642 
L 259.301413 -64.338396 
L 256.398587 -63.659653 
L 253.49576 -63.659653 
L 250.592934 -64.338396 
L 247.690107 -64.338396 
L 244.78728 -64.338396 
L 241.884454 -64.474145 
L 238.981627 -63.659653 
L 236.078801 -63.659653 
L 233.175974 -62.980909 
L 230.273147 -64.338396 
L 227.370321 -63.659653 
L 224.467494 -64.474145 
L 221.564668 -63.659653 
L 218.661841 -63.795401 
L 215.759015 -62.980909 
L 212.856188 -64.338396 
L 209.953361 -63.659653 
L 207.050535 -65.017139 
L 204.147708 -63.659653 
L 201.244882 -64.474145 
L 198.342055 -64.338396 
L 195.439228 -64.474145 
L 192.536402 -63.659653 
L 189.633575 -63.659653 
L 186.730749 -64.338396 
L 183.827922 -64.338396 
L 180.925095 -63.659653 
L 178.022269 -63.795401 
L 175.119442 -62.980909 
L 172.216616 -64.338396 
L 169.313789 -63.795401 
L 166.410963 -64.338396 
L 163.508136 -65.017139 
L 160.605309 -64.609893 
L 157.702483 -63.659653 
L 154.799656 -63.659653 
L 151.89683 -64.338396 
L 148.994003 -64.338396 
L 146.091176 -64.338396 
L 143.18835 -64.338396 
L 140.285523 -63.659653 
L 137.382697 -63.659653 
L 134.47987 -64.338396 
L 131.577044 -64.338396 
L 128.674217 -63.659653 
L 125.77139 -65.017139 
L 122.868564 -63.659653 
L 119.965737 -64.338396 
L 117.062911 -63.659653 
L 114.160084 -63.659653 
L 111.257257 -63.659653 
L 108.354431 -63.659653 
L 105.451604 -63.116658 
L 102.548778 -62.980909 
L 99.645951 -62.980909 
L 96.743125 -108.185224 
L 93.840298 -112.121936 
L 90.937471 -122.303088 
L 88.034645 -88.90891 
L 85.131818 -139.135926 
z
" style="stroke: #ffffff; stroke-opacity: 0.5"/>
    </defs>
    <g clip-path="url(#pa1758a4952)">
     <use xlink:href="#m3c88804a9e" x="0" y="345.6" style="fill: #dd8452; fill-opacity: 0.5; stroke: #ffffff; stroke-opacity: 0.5"/>
    </g>
   </g>
   <g id="PolyCollection_3">
    <defs>
     <path id="m7af26aae8a" d="M 85.131818 -120.131109 
L 85.131818 -201.716074 
L 88.034645 -241.626189 
L 90.937471 -259.002022 
L 93.840298 -178.910293 
L 96.743125 -200.494335 
L 99.645951 -115.922899 
L 102.548778 -139.000177 
L 105.451604 -107.913727 
L 108.354431 -67.05337 
L 111.257257 -65.695883 
L 114.160084 -110.221454 
L 117.062911 -67.05337 
L 119.965737 -123.796324 
L 122.868564 -67.05337 
L 125.77139 -67.05337 
L 128.674217 -67.05337 
L 131.577044 -66.238878 
L 134.47987 -67.05337 
L 137.382697 -67.05337 
L 140.285523 -75.062543 
L 143.18835 -67.05337 
L 146.091176 -67.05337 
L 148.994003 -65.695883 
L 151.89683 -67.460616 
L 154.799656 -67.05337 
L 157.702483 -67.05337 
L 160.605309 -68.410857 
L 163.508136 -68.410857 
L 166.410963 -68.546606 
L 169.313789 -68.546606 
L 172.216616 -67.05337 
L 175.119442 -69.768344 
L 178.022269 -67.05337 
L 180.925095 -67.05337 
L 183.827922 -68.410857 
L 186.730749 -68.410857 
L 189.633575 -67.189119 
L 192.536402 -68.410857 
L 195.439228 -68.410857 
L 198.342055 -67.05337 
L 201.244882 -67.05337 
L 204.147708 -67.324867 
L 207.050535 -67.189119 
L 209.953361 -68.410857 
L 212.856188 -67.05337 
L 215.759015 -68.410857 
L 218.661841 -68.410857 
L 221.564668 -67.324867 
L 224.467494 -67.05337 
L 227.370321 -67.189119 
L 230.273147 -69.768344 
L 233.175974 -69.496846 
L 236.078801 -69.768344 
L 238.981627 -68.410857 
L 241.884454 -68.682354 
L 244.78728 -68.410857 
L 247.690107 -67.05337 
L 250.592934 -68.410857 
L 253.49576 -67.189119 
L 256.398587 -68.410857 
L 259.301413 -67.05337 
L 262.20424 -67.460616 
L 265.107066 -68.546606 
L 268.009893 -68.682354 
L 270.91272 -68.546606 
L 273.815546 -68.410857 
L 276.718373 -68.818103 
L 279.621199 -68.410857 
L 282.524026 -70.039841 
L 285.426853 -68.546606 
L 288.329679 -68.682354 
L 291.232506 -67.732113 
L 294.135332 -68.410857 
L 297.038159 -68.546606 
L 299.940985 -68.546606 
L 302.843812 -70.039841 
L 305.746639 -68.410857 
L 308.649465 -68.682354 
L 311.552292 -67.189119 
L 314.455118 -68.682354 
L 317.357945 -67.596365 
L 320.260772 -69.225349 
L 323.163598 -68.410857 
L 326.066425 -67.189119 
L 328.969251 -67.324867 
L 331.872078 -70.039841 
L 334.774905 -68.546606 
L 337.677731 -68.818103 
L 340.580558 -68.818103 
L 343.483384 -68.410857 
L 346.386211 -68.410857 
L 349.289037 -68.410857 
L 352.191864 -67.189119 
L 355.094691 -67.05337 
L 357.997517 -68.682354 
L 360.900344 -68.410857 
L 363.80317 -68.410857 
L 366.705997 -67.189119 
L 369.608824 -68.410857 
L 372.51165 -67.189119 
L 375.414477 -67.324867 
L 378.317303 -68.410857 
L 381.22013 -68.546606 
L 384.122956 -67.05337 
L 387.025783 -70.17559 
L 389.92861 -67.460616 
L 392.831436 -67.05337 
L 395.734263 -68.546606 
L 398.637089 -68.546606 
L 401.539916 -69.904092 
L 404.442743 -68.410857 
L 407.345569 -68.546606 
L 410.248396 -68.682354 
L 413.151222 -70.039841 
L 416.054049 -69.768344 
L 418.956875 -69.904092 
L 421.859702 -68.546606 
L 424.762529 -69.361098 
L 427.665355 -71.397328 
L 430.568182 -68.410857 
L 430.568182 -65.831632 
L 430.568182 -65.831632 
L 427.665355 -67.05337 
L 424.762529 -65.831632 
L 421.859702 -64.609893 
L 418.956875 -67.05337 
L 416.054049 -65.695883 
L 413.151222 -64.338396 
L 410.248396 -67.05337 
L 407.345569 -65.695883 
L 404.442743 -65.695883 
L 401.539916 -65.695883 
L 398.637089 -65.695883 
L 395.734263 -64.338396 
L 392.831436 -65.695883 
L 389.92861 -65.695883 
L 387.025783 -67.05337 
L 384.122956 -65.695883 
L 381.22013 -65.695883 
L 378.317303 -64.338396 
L 375.414477 -65.831632 
L 372.51165 -65.695883 
L 369.608824 -66.646124 
L 366.705997 -65.695883 
L 363.80317 -66.103129 
L 360.900344 -67.05337 
L 357.997517 -64.338396 
L 355.094691 -64.338396 
L 352.191864 -65.695883 
L 349.289037 -65.695883 
L 346.386211 -64.338396 
L 343.483384 -64.338396 
L 340.580558 -65.695883 
L 337.677731 -64.609893 
L 334.774905 -65.695883 
L 331.872078 -64.338396 
L 328.969251 -65.560134 
L 326.066425 -65.695883 
L 323.163598 -65.695883 
L 320.260772 -64.338396 
L 317.357945 -64.338396 
L 314.455118 -65.695883 
L 311.552292 -64.338396 
L 308.649465 -64.338396 
L 305.746639 -65.695883 
L 302.843812 -64.474145 
L 299.940985 -65.695883 
L 297.038159 -65.695883 
L 294.135332 -65.695883 
L 291.232506 -64.338396 
L 288.329679 -65.695883 
L 285.426853 -65.831632 
L 282.524026 -65.695883 
L 279.621199 -64.338396 
L 276.718373 -65.831632 
L 273.815546 -66.103129 
L 270.91272 -65.831632 
L 268.009893 -65.695883 
L 265.107066 -65.695883 
L 262.20424 -65.695883 
L 259.301413 -66.917621 
L 256.398587 -65.695883 
L 253.49576 -64.338396 
L 250.592934 -67.05337 
L 247.690107 -64.338396 
L 244.78728 -65.695883 
L 241.884454 -64.338396 
L 238.981627 -66.238878 
L 236.078801 -64.338396 
L 233.175974 -64.338396 
L 230.273147 -64.338396 
L 227.370321 -64.338396 
L 224.467494 -64.338396 
L 221.564668 -62.980909 
L 218.661841 -64.338396 
L 215.759015 -64.338396 
L 212.856188 -65.695883 
L 209.953361 -65.695883 
L 207.050535 -65.695883 
L 204.147708 -65.695883 
L 201.244882 -65.695883 
L 198.342055 -62.980909 
L 195.439228 -65.424386 
L 192.536402 -65.695883 
L 189.633575 -65.560134 
L 186.730749 -64.474145 
L 183.827922 -65.695883 
L 180.925095 -64.338396 
L 178.022269 -64.338396 
L 175.119442 -65.695883 
L 172.216616 -65.695883 
L 169.313789 -64.338396 
L 166.410963 -64.338396 
L 163.508136 -65.695883 
L 160.605309 -64.338396 
L 157.702483 -65.695883 
L 154.799656 -64.338396 
L 151.89683 -65.695883 
L 148.994003 -63.116658 
L 146.091176 -64.202647 
L 143.18835 -64.338396 
L 140.285523 -64.474145 
L 137.382697 -64.474145 
L 134.47987 -64.338396 
L 131.577044 -65.695883 
L 128.674217 -62.980909 
L 125.77139 -62.980909 
L 122.868564 -64.474145 
L 119.965737 -64.338396 
L 117.062911 -64.338396 
L 114.160084 -64.338396 
L 111.257257 -62.980909 
L 108.354431 -64.338396 
L 105.451604 -62.980909 
L 102.548778 -64.338396 
L 99.645951 -64.338396 
L 96.743125 -114.701161 
L 93.840298 -106.963486 
L 90.937471 -133.57023 
L 88.034645 -113.75092 
L 85.131818 -120.131109 
z
" style="stroke: #ffffff; stroke-opacity: 0.5"/>
    </defs>
    <g clip-path="url(#pa1758a4952)">
     <use xlink:href="#m7af26aae8a" x="0" y="345.6" style="fill: #55a868; fill-opacity: 0.5; stroke: #ffffff; stroke-opacity: 0.5"/>
    </g>
   </g>
   <g id="PolyCollection_4">
    <defs>
     <path id="mc18c5e5487" d="M 85.131818 -152.575047 
L 85.131818 -303.799091 
L 88.034645 -169.136387 
L 90.937471 -174.702084 
L 93.840298 -201.716074 
L 96.743125 -186.783717 
L 99.645951 -130.855256 
L 102.548778 -110.764449 
L 105.451604 -110.764449 
L 108.354431 -130.583758 
L 111.257257 -100.447548 
L 114.160084 -68.410857 
L 117.062911 -68.410857 
L 119.965737 -115.515653 
L 122.868564 -139.135926 
L 125.77139 -72.619066 
L 128.674217 -70.039841 
L 131.577044 -96.239339 
L 134.47987 -111.71469 
L 137.382697 -71.125831 
L 140.285523 -104.248512 
L 143.18835 -71.125831 
L 146.091176 -70.990082 
L 148.994003 -71.125831 
L 151.89683 -71.940323 
L 154.799656 -71.125831 
L 157.702483 -71.125831 
L 160.605309 -68.546606 
L 163.508136 -128.547528 
L 166.410963 -73.705056 
L 169.313789 -71.125831 
L 172.216616 -71.125831 
L 175.119442 -71.125831 
L 178.022269 -112.664931 
L 180.925095 -71.261579 
L 183.827922 -69.496846 
L 186.730749 -81.985726 
L 189.633575 -71.533077 
L 192.536402 -72.21182 
L 195.439228 -74.112302 
L 198.342055 -76.148532 
L 201.244882 -68.682354 
L 204.147708 -70.990082 
L 207.050535 -71.940323 
L 209.953361 -76.284281 
L 212.856188 -73.705056 
L 215.759015 -69.0896 
L 218.661841 -71.125831 
L 221.564668 -73.840805 
L 224.467494 -70.990082 
L 227.370321 -70.854333 
L 230.273147 -72.347569 
L 233.175974 -73.29781 
L 236.078801 -68.410857 
L 238.981627 -73.026312 
L 241.884454 -68.410857 
L 244.78728 -73.840805 
L 247.690107 -73.569307 
L 250.592934 -75.062543 
L 253.49576 -76.284281 
L 256.398587 -72.619066 
L 259.301413 -71.804574 
L 262.20424 -72.754815 
L 265.107066 -71.261579 
L 268.009893 -71.125831 
L 270.91272 -71.125831 
L 273.815546 -71.261579 
L 276.718373 -71.125831 
L 279.621199 -71.533077 
L 282.524026 -76.555778 
L 285.426853 -72.076072 
L 288.329679 -76.827276 
L 291.232506 -71.125831 
L 294.135332 -71.533077 
L 297.038159 -68.410857 
L 299.940985 -73.569307 
L 302.843812 -73.162061 
L 305.746639 -76.42003 
L 308.649465 -71.668825 
L 311.552292 -76.012784 
L 314.455118 -73.569307 
L 317.357945 -71.125831 
L 320.260772 -73.976553 
L 323.163598 -73.433558 
L 326.066425 -71.397328 
L 328.969251 -75.741286 
L 331.872078 -74.112302 
L 334.774905 -73.976553 
L 337.677731 -76.827276 
L 340.580558 -72.754815 
L 343.483384 -71.125831 
L 346.386211 -71.125831 
L 349.289037 -74.112302 
L 352.191864 -71.125831 
L 355.094691 -74.112302 
L 357.997517 -73.840805 
L 360.900344 -71.125831 
L 363.80317 -73.976553 
L 366.705997 -76.691527 
L 369.608824 -71.261579 
L 372.51165 -73.976553 
L 375.414477 -73.840805 
L 378.317303 -71.533077 
L 381.22013 -73.976553 
L 384.122956 -68.546606 
L 387.025783 -74.248051 
L 389.92861 -76.284281 
L 392.831436 -73.705056 
L 395.734263 -71.125831 
L 398.637089 -74.791045 
L 401.539916 -76.691527 
L 404.442743 -71.533077 
L 407.345569 -73.705056 
L 410.248396 -73.705056 
L 413.151222 -74.112302 
L 416.054049 -71.125831 
L 418.956875 -70.718585 
L 421.859702 -76.555778 
L 424.762529 -71.533077 
L 427.665355 -73.705056 
L 430.568182 -73.840805 
L 430.568182 -67.460616 
L 430.568182 -67.460616 
L 427.665355 -65.560134 
L 424.762529 -68.275108 
L 421.859702 -65.695883 
L 418.956875 -68.139359 
L 416.054049 -68.275108 
L 413.151222 -68.410857 
L 410.248396 -67.460616 
L 407.345569 -71.125831 
L 404.442743 -65.695883 
L 401.539916 -68.275108 
L 398.637089 -65.695883 
L 395.734263 -68.410857 
L 392.831436 -65.695883 
L 389.92861 -65.695883 
L 387.025783 -68.410857 
L 384.122956 -65.695883 
L 381.22013 -68.410857 
L 378.317303 -68.818103 
L 375.414477 -68.410857 
L 372.51165 -65.695883 
L 369.608824 -65.96738 
L 366.705997 -68.410857 
L 363.80317 -67.867862 
L 360.900344 -67.324867 
L 357.997517 -65.695883 
L 355.094691 -65.96738 
L 352.191864 -65.695883 
L 349.289037 -65.695883 
L 346.386211 -65.695883 
L 343.483384 -65.695883 
L 340.580558 -68.410857 
L 337.677731 -68.410857 
L 334.774905 -68.275108 
L 331.872078 -65.695883 
L 328.969251 -68.275108 
L 326.066425 -68.275108 
L 323.163598 -68.682354 
L 320.260772 -65.695883 
L 317.357945 -65.831632 
L 314.455118 -71.125831 
L 311.552292 -65.695883 
L 308.649465 -65.695883 
L 305.746639 -68.410857 
L 302.843812 -68.003611 
L 299.940985 -65.831632 
L 297.038159 -65.695883 
L 294.135332 -71.125831 
L 291.232506 -65.831632 
L 288.329679 -68.410857 
L 285.426853 -68.546606 
L 282.524026 -65.831632 
L 279.621199 -68.410857 
L 276.718373 -68.275108 
L 273.815546 -68.410857 
L 270.91272 -62.980909 
L 268.009893 -65.152888 
L 265.107066 -68.275108 
L 262.20424 -68.818103 
L 259.301413 -65.695883 
L 256.398587 -68.410857 
L 253.49576 -65.695883 
L 250.592934 -68.139359 
L 247.690107 -65.695883 
L 244.78728 -65.695883 
L 241.884454 -65.695883 
L 238.981627 -65.695883 
L 236.078801 -65.695883 
L 233.175974 -65.560134 
L 230.273147 -68.139359 
L 227.370321 -65.695883 
L 224.467494 -66.510375 
L 221.564668 -66.646124 
L 218.661841 -68.410857 
L 215.759015 -65.695883 
L 212.856188 -65.695883 
L 209.953361 -65.695883 
L 207.050535 -68.410857 
L 204.147708 -65.695883 
L 201.244882 -68.410857 
L 198.342055 -65.695883 
L 195.439228 -65.695883 
L 192.536402 -68.410857 
L 189.633575 -65.695883 
L 186.730749 -68.275108 
L 183.827922 -65.695883 
L 180.925095 -65.831632 
L 178.022269 -65.695883 
L 175.119442 -65.695883 
L 172.216616 -65.695883 
L 169.313789 -62.980909 
L 166.410963 -65.695883 
L 163.508136 -66.917621 
L 160.605309 -68.139359 
L 157.702483 -67.732113 
L 154.799656 -65.695883 
L 151.89683 -68.410857 
L 148.994003 -65.695883 
L 146.091176 -65.695883 
L 143.18835 -65.695883 
L 140.285523 -62.980909 
L 137.382697 -65.695883 
L 134.47987 -68.410857 
L 131.577044 -68.410857 
L 128.674217 -65.695883 
L 125.77139 -65.695883 
L 122.868564 -65.695883 
L 119.965737 -65.695883 
L 117.062911 -62.980909 
L 114.160084 -65.695883 
L 111.257257 -65.695883 
L 108.354431 -65.695883 
L 105.451604 -62.980909 
L 102.548778 -62.980909 
L 99.645951 -65.695883 
L 96.743125 -120.266858 
L 93.840298 -164.249434 
L 90.937471 -135.063465 
L 88.034645 -70.311339 
L 85.131818 -152.575047 
z
" style="stroke: #ffffff; stroke-opacity: 0.5"/>
    </defs>
    <g clip-path="url(#pa1758a4952)">
     <use xlink:href="#mc18c5e5487" x="0" y="345.6" style="fill: #c44e52; fill-opacity: 0.5; stroke: #ffffff; stroke-opacity: 0.5"/>
    </g>
   </g>
   <g id="PolyCollection_5">
    <defs>
     <path id="m3d1389e534" d="M 85.131818 -97.596826 
L 85.131818 -211.625728 
L 88.034645 -206.331529 
L 90.937471 -225.064849 
L 93.840298 -204.295299 
L 96.743125 -196.693372 
L 99.645951 -128.819025 
L 102.548778 -134.384722 
L 105.451604 -117.416135 
L 108.354431 -150.267319 
L 111.257257 -132.212743 
L 114.160084 -134.656219 
L 117.062911 -121.760093 
L 119.965737 -149.588575 
L 122.868564 -137.235444 
L 125.77139 -114.972659 
L 128.674217 -155.018523 
L 131.577044 -157.869246 
L 134.47987 -144.97312 
L 137.382697 -134.113224 
L 140.285523 -141.715151 
L 143.18835 -116.737392 
L 146.091176 -109.949957 
L 148.994003 -126.782795 
L 151.89683 -115.787151 
L 154.799656 -129.769266 
L 157.702483 -134.52047 
L 160.605309 -130.583758 
L 163.508136 -130.719507 
L 166.410963 -97.053831 
L 169.313789 -147.688094 
L 172.216616 -152.982293 
L 175.119442 -157.869246 
L 178.022269 -128.276031 
L 180.925095 -119.452365 
L 183.827922 -135.199214 
L 186.730749 -193.163906 
L 189.633575 -104.927255 
L 192.536402 -76.555778 
L 195.439228 -134.927717 
L 198.342055 -116.194397 
L 201.244882 -110.085706 
L 204.147708 -117.280386 
L 207.050535 -133.841727 
L 209.953361 -113.886669 
L 212.856188 -121.08135 
L 215.759015 -103.162522 
L 218.661841 -137.64269 
L 221.564668 -145.651863 
L 224.467494 -187.869707 
L 227.370321 -142.801141 
L 230.273147 -148.231088 
L 233.175974 -156.783256 
L 236.078801 -159.090984 
L 238.981627 -155.018523 
L 241.884454 -245.019907 
L 244.78728 -146.194858 
L 247.690107 -137.235444 
L 250.592934 -134.791968 
L 253.49576 -130.991004 
L 256.398587 -188.005456 
L 259.301413 -159.905476 
L 262.20424 -189.498691 
L 265.107066 -148.502586 
L 268.009893 -120.538355 
L 270.91272 -105.877496 
L 273.815546 -145.516115 
L 276.718373 -126.511298 
L 279.621199 -139.407423 
L 282.524026 -149.588575 
L 285.426853 -109.271213 
L 288.329679 -132.619989 
L 291.232506 -99.904554 
L 294.135332 -93.795862 
L 297.038159 -115.922899 
L 299.940985 -137.506942 
L 302.843812 -141.036408 
L 305.746639 -118.909371 
L 308.649465 -118.094879 
L 311.552292 -145.244617 
L 314.455118 -128.411779 
L 317.357945 -125.153811 
L 320.260772 -107.50648 
L 323.163598 -107.913727 
L 326.066425 -118.366376 
L 328.969251 -90.130648 
L 331.872078 -130.719507 
L 334.774905 -115.244156 
L 337.677731 -121.760093 
L 340.580558 -88.637412 
L 343.483384 -81.985726 
L 346.386211 -99.361559 
L 349.289037 -115.651402 
L 352.191864 -91.216637 
L 355.094691 -134.248973 
L 357.997517 -121.08135 
L 360.900344 -107.777978 
L 363.80317 -124.339318 
L 366.705997 -103.705517 
L 369.608824 -118.502125 
L 372.51165 -110.357203 
L 375.414477 -125.968303 
L 378.317303 -115.108407 
L 381.22013 -130.855256 
L 384.122956 -127.597287 
L 387.025783 -108.999716 
L 389.92861 -104.112763 
L 392.831436 -122.303088 
L 395.734263 -118.094879 
L 398.637089 -90.130648 
L 401.539916 -112.80068 
L 404.442743 -102.619528 
L 407.345569 -137.506942 
L 410.248396 -117.687632 
L 413.151222 -87.415674 
L 416.054049 -108.999716 
L 418.956875 -112.529182 
L 421.859702 -103.569768 
L 424.762529 -124.610816 
L 427.665355 -115.108407 
L 430.568182 -133.027235 
L 430.568182 -76.555778 
L 430.568182 -76.555778 
L 427.665355 -87.279925 
L 424.762529 -90.130648 
L 421.859702 -76.42003 
L 418.956875 -76.555778 
L 416.054049 -76.555778 
L 413.151222 -62.980909 
L 410.248396 -76.555778 
L 407.345569 -62.980909 
L 404.442743 -76.691527 
L 401.539916 -78.184763 
L 398.637089 -76.555778 
L 395.734263 -76.555778 
L 392.831436 -76.555778 
L 389.92861 -76.555778 
L 387.025783 -62.980909 
L 384.122956 -76.555778 
L 381.22013 -76.555778 
L 378.317303 -76.555778 
L 375.414477 -62.980909 
L 372.51165 -62.980909 
L 369.608824 -76.555778 
L 366.705997 -76.555778 
L 363.80317 -76.555778 
L 360.900344 -76.42003 
L 357.997517 -76.555778 
L 355.094691 -62.980909 
L 352.191864 -62.980909 
L 349.289037 -76.555778 
L 346.386211 -89.723402 
L 343.483384 -62.980909 
L 340.580558 -63.116658 
L 337.677731 -76.555778 
L 334.774905 -76.555778 
L 331.872078 -71.804574 
L 328.969251 -76.555778 
L 326.066425 -76.555778 
L 323.163598 -95.017601 
L 320.260772 -75.605538 
L 317.357945 -76.555778 
L 314.455118 -76.555778 
L 311.552292 -76.42003 
L 308.649465 -76.555778 
L 305.746639 -70.990082 
L 302.843812 -62.980909 
L 299.940985 -76.555778 
L 297.038159 -76.555778 
L 294.135332 -76.555778 
L 291.232506 -76.555778 
L 288.329679 -76.555778 
L 285.426853 -76.555778 
L 282.524026 -76.555778 
L 279.621199 -90.402145 
L 276.718373 -90.130648 
L 273.815546 -62.980909 
L 270.91272 -81.171234 
L 268.009893 -76.555778 
L 265.107066 -76.555778 
L 262.20424 -76.555778 
L 259.301413 -76.555778 
L 256.398587 -73.29781 
L 253.49576 -76.555778 
L 250.592934 -90.130648 
L 247.690107 -76.555778 
L 244.78728 -79.406501 
L 241.884454 -106.55624 
L 238.981627 -76.691527 
L 236.078801 -62.980909 
L 233.175974 -76.555778 
L 230.273147 -76.555778 
L 227.370321 -76.555778 
L 224.467494 -76.555778 
L 221.564668 -76.555778 
L 218.661841 -77.098773 
L 215.759015 -76.555778 
L 212.856188 -62.980909 
L 209.953361 -62.980909 
L 207.050535 -62.980909 
L 204.147708 -84.293454 
L 201.244882 -76.555778 
L 198.342055 -76.555778 
L 195.439228 -90.130648 
L 192.536402 -62.980909 
L 189.633575 -62.980909 
L 186.730749 -76.555778 
L 183.827922 -77.641768 
L 180.925095 -76.963024 
L 178.022269 -82.800218 
L 175.119442 -66.510375 
L 172.216616 -76.42003 
L 169.313789 -62.980909 
L 166.410963 -76.555778 
L 163.508136 -76.555778 
L 160.605309 -94.746103 
L 157.702483 -62.980909 
L 154.799656 -76.555778 
L 151.89683 -76.555778 
L 148.994003 -78.863506 
L 146.091176 -80.492491 
L 143.18835 -76.827276 
L 140.285523 -76.555778 
L 137.382697 -84.564951 
L 134.47987 -113.615172 
L 131.577044 -100.176051 
L 128.674217 -62.980909 
L 125.77139 -76.555778 
L 122.868564 -62.980909 
L 119.965737 -90.130648 
L 117.062911 -68.139359 
L 114.160084 -79.677998 
L 111.257257 -98.275569 
L 108.354431 -62.980909 
L 105.451604 -72.347569 
L 102.548778 -84.972197 
L 99.645951 -76.555778 
L 96.743125 -139.407423 
L 93.840298 -125.561057 
L 90.937471 -158.819487 
L 88.034645 -131.533999 
L 85.131818 -97.596826 
z
" style="stroke: #ffffff; stroke-opacity: 0.5"/>
    </defs>
    <g clip-path="url(#pa1758a4952)">
     <use xlink:href="#m3d1389e534" x="0" y="345.6" style="fill: #8172b3; fill-opacity: 0.5; stroke: #ffffff; stroke-opacity: 0.5"/>
    </g>
   </g>
   <g id="line2d_16">
    <path d="M 85.131818 184.554235 
L 88.034645 169.296082 
L 90.937471 165.712316 
L 93.840298 171.658109 
L 96.743125 172.879847 
L 99.645951 282.320444 
L 102.548778 282.374743 
L 105.451604 280.474262 
L 108.354431 277.243443 
L 111.257257 280.990107 
L 114.160084 282.211845 
L 117.062911 280.094165 
L 119.965737 282.211845 
L 122.868564 276.184603 
L 125.77139 282.184695 
L 128.674217 282.103246 
L 131.577044 282.238995 
L 134.47987 282.184695 
L 137.382697 282.211845 
L 140.285523 282.130396 
L 143.18835 282.211845 
L 146.091176 276.4561 
L 148.994003 281.913198 
L 151.89683 282.211845 
L 154.799656 282.184695 
L 157.702483 282.130396 
L 160.605309 282.157545 
L 163.508136 272.627987 
L 166.410963 282.130396 
L 169.313789 281.451652 
L 172.216616 282.076096 
L 175.119442 282.184695 
L 178.022269 282.157545 
L 180.925095 282.293294 
L 183.827922 282.157545 
L 186.730749 282.130396 
L 189.633575 282.184695 
L 192.536402 279.958417 
L 195.439228 282.211845 
L 198.342055 282.211845 
L 201.244882 282.076096 
L 204.147708 282.266144 
L 207.050535 282.184695 
L 209.953361 282.211845 
L 212.856188 282.293294 
L 215.759015 282.238995 
L 218.661841 282.266144 
L 221.564668 280.555711 
L 224.467494 282.103246 
L 227.370321 282.184695 
L 230.273147 282.238995 
L 233.175974 282.184695 
L 236.078801 282.103246 
L 238.981627 282.266144 
L 241.884454 282.157545 
L 244.78728 282.320444 
L 247.690107 282.076096 
L 250.592934 282.157545 
L 253.49576 282.211845 
L 256.398587 282.184695 
L 259.301413 282.157545 
L 262.20424 282.266144 
L 265.107066 282.103246 
L 268.009893 282.293294 
L 270.91272 282.130396 
L 273.815546 282.211845 
L 276.718373 282.293294 
L 279.621199 282.238995 
L 282.524026 282.157545 
L 285.426853 282.266144 
L 288.329679 282.048946 
L 291.232506 282.211845 
L 294.135332 282.238995 
L 297.038159 282.076096 
L 299.940985 282.130396 
L 302.843812 282.184695 
L 305.746639 282.238995 
L 308.649465 282.103246 
L 311.552292 282.021797 
L 314.455118 281.994647 
L 317.357945 281.967497 
L 320.260772 282.076096 
L 323.163598 282.130396 
L 326.066425 282.293294 
L 328.969251 282.130396 
L 331.872078 282.048946 
L 334.774905 282.103246 
L 337.677731 282.076096 
L 340.580558 282.076096 
L 343.483384 282.076096 
L 346.386211 282.130396 
L 349.289037 282.157545 
L 352.191864 282.130396 
L 355.094691 282.211845 
L 357.997517 282.021797 
L 360.900344 282.076096 
L 363.80317 282.184695 
L 366.705997 282.184695 
L 369.608824 282.157545 
L 372.51165 282.130396 
L 375.414477 281.886048 
L 378.317303 282.048946 
L 381.22013 282.130396 
L 384.122956 282.157545 
L 387.025783 282.103246 
L 389.92861 282.211845 
L 392.831436 282.103246 
L 395.734263 282.238995 
L 398.637089 282.157545 
L 401.539916 282.157545 
L 404.442743 282.076096 
L 407.345569 281.940347 
L 410.248396 281.886048 
L 413.151222 282.211845 
L 416.054049 282.130396 
L 418.956875 282.184695 
L 421.859702 282.130396 
L 424.762529 282.021797 
L 427.665355 281.858898 
L 430.568182 281.994647 
" clip-path="url(#pa1758a4952)" style="fill: none; stroke: #4c72b0; stroke-width: 3; stroke-linecap: round"/>
   </g>
   <g id="line2d_17">
    <path d="M 85.131818 162.834444 
L 88.034645 195.49558 
L 90.937471 162.372898 
L 93.840298 178.662742 
L 96.743125 182.518005 
L 99.645951 281.288754 
L 102.548778 276.754747 
L 105.451604 281.614551 
L 108.354431 281.804599 
L 111.257257 281.804599 
L 114.160084 281.66885 
L 117.062911 281.370203 
L 119.965737 269.994462 
L 122.868564 279.795518 
L 125.77139 275.288661 
L 128.674217 275.42441 
L 131.577044 280.61001 
L 134.47987 280.582861 
L 137.382697 280.800058 
L 140.285523 280.990107 
L 143.18835 274.44702 
L 146.091176 280.447112 
L 148.994003 280.881508 
L 151.89683 280.854358 
L 154.799656 280.962957 
L 157.702483 280.962957 
L 160.605309 280.501411 
L 163.508136 279.985566 
L 166.410963 280.447112 
L 169.313789 281.071556 
L 172.216616 280.63716 
L 175.119442 281.261604 
L 178.022269 280.63716 
L 180.925095 280.962957 
L 183.827922 280.392812 
L 186.730749 280.827208 
L 189.633575 281.153005 
L 192.536402 280.61001 
L 195.439228 280.501411 
L 198.342055 280.257064 
L 201.244882 280.528561 
L 204.147708 281.288754 
L 207.050535 280.447112 
L 209.953361 281.343053 
L 212.856188 280.419962 
L 215.759015 280.908657 
L 218.661841 280.962957 
L 221.564668 281.397353 
L 224.467494 280.392812 
L 227.370321 280.474262 
L 230.273147 280.718609 
L 233.175974 281.234454 
L 236.078801 281.071556 
L 238.981627 281.261604 
L 241.884454 280.392812 
L 244.78728 280.419962 
L 247.690107 280.691459 
L 250.592934 280.311363 
L 253.49576 281.125855 
L 256.398587 280.63716 
L 259.301413 280.365663 
L 262.20424 279.442571 
L 265.107066 280.555711 
L 268.009893 280.012716 
L 270.91272 280.908657 
L 273.815546 280.121315 
L 276.718373 279.931267 
L 279.621199 280.745759 
L 282.524026 280.800058 
L 285.426853 280.63716 
L 288.329679 280.392812 
L 291.232506 280.745759 
L 294.135332 280.338513 
L 297.038159 279.768368 
L 299.940985 280.474262 
L 302.843812 280.827208 
L 305.746639 281.125855 
L 308.649465 280.827208 
L 311.552292 280.66431 
L 314.455118 280.528561 
L 317.357945 280.039866 
L 320.260772 280.501411 
L 323.163598 281.044406 
L 326.066425 280.039866 
L 328.969251 280.039866 
L 331.872078 280.311363 
L 334.774905 280.66431 
L 337.677731 280.474262 
L 340.580558 280.067015 
L 343.483384 281.017256 
L 346.386211 280.365663 
L 349.289037 280.66431 
L 352.191864 280.962957 
L 355.094691 280.935807 
L 357.997517 281.098706 
L 360.900344 280.501411 
L 363.80317 280.990107 
L 366.705997 279.985566 
L 369.608824 281.125855 
L 372.51165 281.017256 
L 375.414477 280.528561 
L 378.317303 280.66431 
L 381.22013 280.582861 
L 384.122956 280.908657 
L 387.025783 280.392812 
L 389.92861 280.474262 
L 392.831436 281.071556 
L 395.734263 280.800058 
L 398.637089 280.528561 
L 401.539916 280.447112 
L 404.442743 280.582861 
L 407.345569 280.447112 
L 410.248396 280.962957 
L 413.151222 280.800058 
L 416.054049 280.582861 
L 418.956875 280.284213 
L 421.859702 281.234454 
L 424.762529 280.66431 
L 427.665355 280.61001 
L 430.568182 280.365663 
" clip-path="url(#pa1758a4952)" style="fill: none; stroke: #dd8452; stroke-width: 3; stroke-linecap: round"/>
   </g>
   <g id="line2d_18">
    <path d="M 85.131818 174.943227 
L 88.034645 193.622248 
L 90.937471 156.644304 
L 93.840298 202.71741 
L 96.743125 192.916354 
L 99.645951 251.016795 
L 102.548778 255.225005 
L 105.451604 272.27504 
L 108.354431 280.447112 
L 111.257257 281.017256 
L 114.160084 271.351949 
L 117.062911 279.822668 
L 119.965737 268.745574 
L 122.868564 279.876967 
L 125.77139 280.718609 
L 128.674217 280.990107 
L 131.577044 279.768368 
L 134.47987 280.718609 
L 137.382697 279.60547 
L 140.285523 277.677838 
L 143.18835 279.686919 
L 146.091176 279.931267 
L 148.994003 280.691459 
L 151.89683 278.953876 
L 154.799656 279.361122 
L 157.702483 279.388272 
L 160.605309 279.904117 
L 163.508136 278.57378 
L 166.410963 279.60547 
L 169.313789 278.763828 
L 172.216616 279.361122 
L 175.119442 278.54663 
L 178.022269 279.63262 
L 180.925095 279.279673 
L 183.827922 278.60093 
L 186.730749 279.768368 
L 189.633575 279.089625 
L 192.536402 278.818127 
L 195.439228 279.143924 
L 198.342055 279.904117 
L 201.244882 278.872427 
L 204.147708 279.306823 
L 207.050535 278.790978 
L 209.953361 278.845277 
L 212.856188 279.062475 
L 215.759015 279.361122 
L 218.661841 279.361122 
L 221.564668 279.876967 
L 224.467494 279.63262 
L 227.370321 279.361122 
L 230.273147 279.089625 
L 233.175974 278.57378 
L 236.078801 278.736678 
L 238.981627 278.438031 
L 241.884454 279.279673 
L 244.78728 278.492331 
L 247.690107 279.904117 
L 250.592934 278.275133 
L 253.49576 279.306823 
L 256.398587 278.736678 
L 259.301413 278.57378 
L 262.20424 278.926726 
L 265.107066 279.062475 
L 268.009893 278.465181 
L 270.91272 278.54663 
L 273.815546 278.410881 
L 276.718373 278.085085 
L 279.621199 279.062475 
L 282.524026 278.410881 
L 285.426853 278.329432 
L 288.329679 278.139384 
L 291.232506 279.496871 
L 294.135332 278.492331 
L 297.038159 277.650689 
L 299.940985 278.763828 
L 302.843812 278.139384 
L 305.746639 278.981026 
L 308.649465 279.306823 
L 311.552292 279.60547 
L 314.455118 278.763828 
L 317.357945 279.171074 
L 320.260772 278.60093 
L 323.163598 278.818127 
L 326.066425 279.008176 
L 328.969251 278.790978 
L 331.872078 278.465181 
L 334.774905 278.220833 
L 337.677731 279.116775 
L 340.580558 277.895036 
L 343.483384 280.175614 
L 346.386211 278.790978 
L 349.289037 278.51948 
L 352.191864 279.55117 
L 355.094691 279.60547 
L 357.997517 278.981026 
L 360.900344 277.732138 
L 363.80317 278.410881 
L 366.705997 279.062475 
L 369.608824 278.057935 
L 372.51165 279.252523 
L 375.414477 278.736678 
L 378.317303 279.60547 
L 381.22013 278.763828 
L 384.122956 279.089625 
L 387.025783 277.650689 
L 389.92861 279.198224 
L 392.831436 279.062475 
L 395.734263 279.57832 
L 398.637089 278.220833 
L 401.539916 277.895036 
L 404.442743 278.51948 
L 407.345569 278.465181 
L 410.248396 277.949336 
L 413.151222 278.410881 
L 416.054049 278.682379 
L 418.956875 276.863346 
L 421.859702 278.628079 
L 424.762529 278.275133 
L 427.665355 277.297742 
L 430.568182 278.736678 
" clip-path="url(#pa1758a4952)" style="fill: none; stroke: #55a868; stroke-width: 3; stroke-linecap: round"/>
   </g>
   <g id="line2d_19">
    <path d="M 85.131818 151.377254 
L 88.034645 206.518373 
L 90.937471 196.174323 
L 93.840298 165.522268 
L 96.743125 186.427567 
L 99.645951 255.523652 
L 102.548778 265.569055 
L 105.451604 265.894852 
L 108.354431 263.750023 
L 111.257257 272.410789 
L 114.160084 278.57378 
L 117.062911 278.818127 
L 119.965737 267.035141 
L 122.868564 260.166257 
L 125.77139 275.587309 
L 128.674217 278.302282 
L 131.577044 270.537457 
L 134.47987 267.225189 
L 137.382697 278.818127 
L 140.285523 270.510307 
L 143.18835 277.161993 
L 146.091176 277.895036 
L 148.994003 277.189143 
L 151.89683 275.940255 
L 154.799656 276.646148 
L 157.702483 276.238902 
L 160.605309 277.216293 
L 163.508136 264.917461 
L 166.410963 275.994555 
L 169.313789 277.732138 
L 172.216616 277.732138 
L 175.119442 276.673298 
L 178.022269 269.370018 
L 180.925095 276.374651 
L 183.827922 277.48779 
L 186.730749 273.035233 
L 189.633575 277.134844 
L 192.536402 275.777357 
L 195.439228 276.184603 
L 198.342055 274.012624 
L 201.244882 277.107694 
L 204.147708 277.216293 
L 207.050535 274.854266 
L 209.953361 276.157453 
L 212.856188 276.673298 
L 215.759015 277.596389 
L 218.661841 276.591849 
L 221.564668 275.370111 
L 224.467494 277.053394 
L 227.370321 276.999095 
L 230.273147 275.47871 
L 233.175974 277.324892 
L 236.078801 278.818127 
L 238.981627 276.4561 
L 241.884454 277.786437 
L 244.78728 275.587309 
L 247.690107 276.211753 
L 250.592934 274.745667 
L 253.49576 275.614458 
L 256.398587 275.071464 
L 259.301413 277.080544 
L 262.20424 274.691367 
L 265.107066 276.021704 
L 268.009893 278.247983 
L 270.91272 277.677838 
L 273.815546 275.614458 
L 276.718373 276.673298 
L 279.621199 275.42441 
L 282.524026 274.555619 
L 285.426853 275.614458 
L 288.329679 273.822576 
L 291.232506 277.134844 
L 294.135332 274.39272 
L 297.038159 278.329432 
L 299.940985 275.207212 
L 302.843812 275.234362 
L 305.746639 274.094073 
L 308.649465 275.994555 
L 311.552292 275.560159 
L 314.455118 273.659677 
L 317.357945 276.646148 
L 320.260772 276.048854 
L 323.163598 274.44702 
L 326.066425 275.071464 
L 328.969251 275.152913 
L 331.872078 275.47871 
L 334.774905 274.41987 
L 337.677731 273.931175 
L 340.580558 275.234362 
L 343.483384 276.048854 
L 346.386211 276.618999 
L 349.289037 274.854266 
L 352.191864 277.080544 
L 355.094691 275.125763 
L 357.997517 276.157453 
L 360.900344 276.211753 
L 363.80317 275.125763 
L 366.705997 273.41533 
L 369.608824 277.080544 
L 372.51165 276.537549 
L 375.414477 275.505859 
L 378.317303 275.288661 
L 381.22013 274.094073 
L 384.122956 277.732138 
L 387.025783 274.175522 
L 389.92861 274.474169 
L 392.831436 276.048854 
L 395.734263 275.587309 
L 398.637089 276.021704 
L 401.539916 275.017164 
L 404.442743 276.564699 
L 407.345569 273.469629 
L 410.248396 274.555619 
L 413.151222 273.985474 
L 416.054049 276.021704 
L 418.956875 276.673298 
L 421.859702 275.994555 
L 424.762529 275.315811 
L 427.665355 276.266052 
L 430.568182 274.881415 
" clip-path="url(#pa1758a4952)" style="fill: none; stroke: #c44e52; stroke-width: 3; stroke-linecap: round"/>
   </g>
   <g id="line2d_20">
    <path d="M 85.131818 182.97955 
L 88.034645 184.54066 
L 90.937471 160.750702 
L 93.840298 185.117592 
L 96.743125 171.474848 
L 99.645951 241.962357 
L 102.548778 235.310671 
L 105.451604 257.30196 
L 108.354431 245.966944 
L 111.257257 224.722273 
L 114.160084 238.127457 
L 117.062911 245.084577 
L 119.965737 223.296912 
L 122.868564 250.243028 
L 125.77139 252.177446 
L 128.674217 252.788316 
L 131.577044 224.213216 
L 134.47987 220.276504 
L 137.382697 226.826378 
L 140.285523 236.905718 
L 143.18835 243.523467 
L 146.091176 250.786022 
L 148.994003 238.874075 
L 151.89683 246.272378 
L 154.799656 232.731446 
L 157.702483 242.098106 
L 160.605309 235.887603 
L 163.508136 239.620692 
L 166.410963 259.10063 
L 169.313789 239.484944 
L 172.216616 240.12975 
L 175.119442 233.545938 
L 178.022269 248.614043 
L 180.925095 246.170567 
L 183.827922 246.543876 
L 186.730749 228.760797 
L 189.633575 267.720672 
L 192.536402 279.157499 
L 195.439228 235.650043 
L 198.342055 251.159331 
L 201.244882 249.937593 
L 204.147708 244.643394 
L 207.050535 238.56864 
L 209.953361 266.498934 
L 212.856188 260.458117 
L 215.759015 253.738556 
L 218.661841 239.756441 
L 221.564668 244.982766 
L 224.467494 232.08664 
L 227.370321 250.20909 
L 230.273147 250.073342 
L 233.175974 239.04376 
L 236.078801 233.240504 
L 238.981627 228.285676 
L 241.884454 177.379916 
L 244.78728 221.430367 
L 247.690107 234.36043 
L 250.592934 232.256326 
L 253.49576 238.09352 
L 256.398587 230.220095 
L 259.301413 233.953184 
L 262.20424 234.564054 
L 265.107066 243.25197 
L 268.009893 250.310902 
L 270.91272 251.329017 
L 273.815546 246.170567 
L 276.718373 239.994001 
L 279.621199 236.871781 
L 282.524026 233.002944 
L 285.426853 254.994232 
L 288.329679 247.358368 
L 291.232506 257.030462 
L 294.135332 258.795195 
L 297.038159 254.010054 
L 299.940985 237.312965 
L 302.843812 247.290493 
L 305.746639 253.059813 
L 308.649465 249.123101 
L 311.552292 246.102692 
L 314.455118 251.396891 
L 317.357945 255.571164 
L 320.260772 256.283844 
L 323.163598 243.421656 
L 326.066425 254.65486 
L 328.969251 259.134567 
L 331.872078 253.297373 
L 334.774905 250.344839 
L 337.677731 253.365248 
L 340.580558 269.383593 
L 343.483384 271.080452 
L 346.386211 253.297373 
L 349.289037 252.516818 
L 352.191864 268.772724 
L 355.094691 254.485174 
L 357.997517 257.912829 
L 360.900344 253.738556 
L 363.80317 250.989645 
L 366.705997 262.087101 
L 369.608824 252.584693 
L 372.51165 260.593865 
L 375.414477 259.440002 
L 378.317303 246.13663 
L 381.22013 252.007761 
L 384.122956 247.392305 
L 387.025783 260.8993 
L 389.92861 258.693384 
L 392.831436 253.09375 
L 395.734263 245.118514 
L 398.637089 259.915122 
L 401.539916 252.754378 
L 404.442743 255.605101 
L 407.345569 260.356305 
L 410.248396 252.347132 
L 413.151222 268.535164 
L 416.054049 250.243028 
L 418.956875 253.229499 
L 421.859702 254.926357 
L 424.762529 240.536996 
L 427.665355 249.937593 
L 430.568182 251.939886 
" clip-path="url(#pa1758a4952)" style="fill: none; stroke: #8172b3; stroke-width: 3; stroke-linecap: round"/>
   </g>
   <g id="patch_3">
    <path d="M 67.86 294.66 
L 67.86 29.76 
" style="fill: none; stroke: #ffffff; stroke-width: 1.25; stroke-linejoin: miter; stroke-linecap: square"/>
   </g>
   <g id="patch_4">
    <path d="M 447.84 294.66 
L 447.84 29.76 
" style="fill: none; stroke: #ffffff; stroke-width: 1.25; stroke-linejoin: miter; stroke-linecap: square"/>
   </g>
   <g id="patch_5">
    <path d="M 67.86 294.66 
L 447.84 294.66 
" style="fill: none; stroke: #ffffff; stroke-width: 1.25; stroke-linejoin: miter; stroke-linecap: square"/>
   </g>
   <g id="patch_6">
    <path d="M 67.86 29.76 
L 447.84 29.76 
" style="fill: none; stroke: #ffffff; stroke-width: 1.25; stroke-linejoin: miter; stroke-linecap: square"/>
   </g>
   <g id="text_18">
    <!-- zinc-coating-v0 -->
    <g style="fill: #262626" transform="translate(204.491406 23.76)scale(0.14 -0.14)">
     <defs>
      <path id="DejaVuSans-7a" d="M 353 3500 
L 3084 3500 
L 3084 2975 
L 922 459 
L 3084 459 
L 3084 0 
L 275 0 
L 275 525 
L 2438 3041 
L 353 3041 
L 353 3500 
z
" transform="scale(0.015625)"/>
      <path id="DejaVuSans-63" d="M 3122 3366 
L 3122 2828 
Q 2878 2963 2633 3030 
Q 2388 3097 2138 3097 
Q 1578 3097 1268 2742 
Q 959 2388 959 1747 
Q 959 1106 1268 751 
Q 1578 397 2138 397 
Q 2388 397 2633 464 
Q 2878 531 3122 666 
L 3122 134 
Q 2881 22 2623 -34 
Q 2366 -91 2075 -91 
Q 1284 -91 818 406 
Q 353 903 353 1747 
Q 353 2603 823 3093 
Q 1294 3584 2113 3584 
Q 2378 3584 2631 3529 
Q 2884 3475 3122 3366 
z
" transform="scale(0.015625)"/>
      <path id="DejaVuSans-2d" d="M 313 2009 
L 1997 2009 
L 1997 1497 
L 313 1497 
L 313 2009 
z
" transform="scale(0.015625)"/>
      <path id="DejaVuSans-61" d="M 2194 1759 
Q 1497 1759 1228 1600 
Q 959 1441 959 1056 
Q 959 750 1161 570 
Q 1363 391 1709 391 
Q 2188 391 2477 730 
Q 2766 1069 2766 1631 
L 2766 1759 
L 2194 1759 
z
M 3341 1997 
L 3341 0 
L 2766 0 
L 2766 531 
Q 2569 213 2275 61 
Q 1981 -91 1556 -91 
Q 1019 -91 701 211 
Q 384 513 384 1019 
Q 384 1609 779 1909 
Q 1175 2209 1959 2209 
L 2766 2209 
L 2766 2266 
Q 2766 2663 2505 2880 
Q 2244 3097 1772 3097 
Q 1472 3097 1187 3025 
Q 903 2953 641 2809 
L 641 3341 
Q 956 3463 1253 3523 
Q 1550 3584 1831 3584 
Q 2591 3584 2966 3190 
Q 3341 2797 3341 1997 
z
" transform="scale(0.015625)"/>
      <path id="DejaVuSans-67" d="M 2906 1791 
Q 2906 2416 2648 2759 
Q 2391 3103 1925 3103 
Q 1463 3103 1205 2759 
Q 947 2416 947 1791 
Q 947 1169 1205 825 
Q 1463 481 1925 481 
Q 2391 481 2648 825 
Q 2906 1169 2906 1791 
z
M 3481 434 
Q 3481 -459 3084 -895 
Q 2688 -1331 1869 -1331 
Q 1566 -1331 1297 -1286 
Q 1028 -1241 775 -1147 
L 775 -588 
Q 1028 -725 1275 -790 
Q 1522 -856 1778 -856 
Q 2344 -856 2625 -561 
Q 2906 -266 2906 331 
L 2906 616 
Q 2728 306 2450 153 
Q 2172 0 1784 0 
Q 1141 0 747 490 
Q 353 981 353 1791 
Q 353 2603 747 3093 
Q 1141 3584 1784 3584 
Q 2172 3584 2450 3431 
Q 2728 3278 2906 2969 
L 2906 3500 
L 3481 3500 
L 3481 434 
z
" transform="scale(0.015625)"/>
      <path id="DejaVuSans-76" d="M 191 3500 
L 800 3500 
L 1894 563 
L 2988 3500 
L 3597 3500 
L 2284 0 
L 1503 0 
L 191 3500 
z
" transform="scale(0.015625)"/>
     </defs>
     <use xlink:href="#DejaVuSans-7a"/>
     <use xlink:href="#DejaVuSans-69" x="52.490234"/>
     <use xlink:href="#DejaVuSans-6e" x="80.273438"/>
     <use xlink:href="#DejaVuSans-63" x="143.652344"/>
     <use xlink:href="#DejaVuSans-2d" x="198.632812"/>
     <use xlink:href="#DejaVuSans-63" x="234.716797"/>
     <use xlink:href="#DejaVuSans-6f" x="289.697266"/>
     <use xlink:href="#DejaVuSans-61" x="350.878906"/>
     <use xlink:href="#DejaVuSans-74" x="412.158203"/>
     <use xlink:href="#DejaVuSans-69" x="451.367188"/>
     <use xlink:href="#DejaVuSans-6e" x="479.150391"/>
     <use xlink:href="#DejaVuSans-67" x="542.529297"/>
     <use xlink:href="#DejaVuSans-2d" x="606.005859"/>
     <use xlink:href="#DejaVuSans-76" x="639.464844"/>
     <use xlink:href="#DejaVuSans-30" x="698.644531"/>
    </g>
   </g>
   <g id="legend_1">
    <g id="patch_7">
     <path d="M 310.960469 119.289688 
L 440.14 119.289688 
Q 442.34 119.289688 442.34 117.089688 
L 442.34 37.46 
Q 442.34 35.26 440.14 35.26 
L 310.960469 35.26 
Q 308.760469 35.26 308.760469 37.46 
L 308.760469 117.089688 
Q 308.760469 119.289688 310.960469 119.289688 
z
" style="fill: #eaeaf2; opacity: 0.8; stroke: #cccccc; stroke-linejoin: miter"/>
    </g>
    <g id="line2d_21">
     <path d="M 313.160469 44.168281 
L 324.160469 44.168281 
L 335.160469 44.168281 
" style="fill: none; stroke: #4c72b0; stroke-width: 3; stroke-linecap: round"/>
    </g>
    <g id="text_19">
     <!-- DCAC-DELAY-1 -->
     <g style="fill: #262626" transform="translate(343.960469 48.018281)scale(0.11 -0.11)">
      <defs>
       <path id="DejaVuSans-44" d="M 1259 4147 
L 1259 519 
L 2022 519 
Q 2988 519 3436 956 
Q 3884 1394 3884 2338 
Q 3884 3275 3436 3711 
Q 2988 4147 2022 4147 
L 1259 4147 
z
M 628 4666 
L 1925 4666 
Q 3281 4666 3915 4102 
Q 4550 3538 4550 2338 
Q 4550 1131 3912 565 
Q 3275 0 1925 0 
L 628 0 
L 628 4666 
z
" transform="scale(0.015625)"/>
       <path id="DejaVuSans-43" d="M 4122 4306 
L 4122 3641 
Q 3803 3938 3442 4084 
Q 3081 4231 2675 4231 
Q 1875 4231 1450 3742 
Q 1025 3253 1025 2328 
Q 1025 1406 1450 917 
Q 1875 428 2675 428 
Q 3081 428 3442 575 
Q 3803 722 4122 1019 
L 4122 359 
Q 3791 134 3420 21 
Q 3050 -91 2638 -91 
Q 1578 -91 968 557 
Q 359 1206 359 2328 
Q 359 3453 968 4101 
Q 1578 4750 2638 4750 
Q 3056 4750 3426 4639 
Q 3797 4528 4122 4306 
z
" transform="scale(0.015625)"/>
       <path id="DejaVuSans-41" d="M 2188 4044 
L 1331 1722 
L 3047 1722 
L 2188 4044 
z
M 1831 4666 
L 2547 4666 
L 4325 0 
L 3669 0 
L 3244 1197 
L 1141 1197 
L 716 0 
L 50 0 
L 1831 4666 
z
" transform="scale(0.015625)"/>
       <path id="DejaVuSans-45" d="M 628 4666 
L 3578 4666 
L 3578 4134 
L 1259 4134 
L 1259 2753 
L 3481 2753 
L 3481 2222 
L 1259 2222 
L 1259 531 
L 3634 531 
L 3634 0 
L 628 0 
L 628 4666 
z
" transform="scale(0.015625)"/>
       <path id="DejaVuSans-59" d="M -13 4666 
L 666 4666 
L 1959 2747 
L 3244 4666 
L 3922 4666 
L 2272 2222 
L 2272 0 
L 1638 0 
L 1638 2222 
L -13 4666 
z
" transform="scale(0.015625)"/>
      </defs>
      <use xlink:href="#DejaVuSans-44"/>
      <use xlink:href="#DejaVuSans-43" x="77.001953"/>
      <use xlink:href="#DejaVuSans-41" x="146.826172"/>
      <use xlink:href="#DejaVuSans-43" x="213.484375"/>
      <use xlink:href="#DejaVuSans-2d" x="283.308594"/>
      <use xlink:href="#DejaVuSans-44" x="319.392578"/>
      <use xlink:href="#DejaVuSans-45" x="396.394531"/>
      <use xlink:href="#DejaVuSans-4c" x="459.578125"/>
      <use xlink:href="#DejaVuSans-41" x="517.541016"/>
      <use xlink:href="#DejaVuSans-59" x="578.199219"/>
      <use xlink:href="#DejaVuSans-2d" x="627.408203"/>
      <use xlink:href="#DejaVuSans-31" x="663.492188"/>
     </g>
    </g>
    <g id="line2d_22">
     <path d="M 313.160469 60.314219 
L 324.160469 60.314219 
L 335.160469 60.314219 
" style="fill: none; stroke: #dd8452; stroke-width: 3; stroke-linecap: round"/>
    </g>
    <g id="text_20">
     <!-- DCAC-DELAY-5 -->
     <g style="fill: #262626" transform="translate(343.960469 64.164219)scale(0.11 -0.11)">
      <use xlink:href="#DejaVuSans-44"/>
      <use xlink:href="#DejaVuSans-43" x="77.001953"/>
      <use xlink:href="#DejaVuSans-41" x="146.826172"/>
      <use xlink:href="#DejaVuSans-43" x="213.484375"/>
      <use xlink:href="#DejaVuSans-2d" x="283.308594"/>
      <use xlink:href="#DejaVuSans-44" x="319.392578"/>
      <use xlink:href="#DejaVuSans-45" x="396.394531"/>
      <use xlink:href="#DejaVuSans-4c" x="459.578125"/>
      <use xlink:href="#DejaVuSans-41" x="517.541016"/>
      <use xlink:href="#DejaVuSans-59" x="578.199219"/>
      <use xlink:href="#DejaVuSans-2d" x="627.408203"/>
      <use xlink:href="#DejaVuSans-35" x="663.492188"/>
     </g>
    </g>
    <g id="line2d_23">
     <path d="M 313.160469 76.460156 
L 324.160469 76.460156 
L 335.160469 76.460156 
" style="fill: none; stroke: #55a868; stroke-width: 3; stroke-linecap: round"/>
    </g>
    <g id="text_21">
     <!-- DCAC-DELAY-10 -->
     <g style="fill: #262626" transform="translate(343.960469 80.310156)scale(0.11 -0.11)">
      <use xlink:href="#DejaVuSans-44"/>
      <use xlink:href="#DejaVuSans-43" x="77.001953"/>
      <use xlink:href="#DejaVuSans-41" x="146.826172"/>
      <use xlink:href="#DejaVuSans-43" x="213.484375"/>
      <use xlink:href="#DejaVuSans-2d" x="283.308594"/>
      <use xlink:href="#DejaVuSans-44" x="319.392578"/>
      <use xlink:href="#DejaVuSans-45" x="396.394531"/>
      <use xlink:href="#DejaVuSans-4c" x="459.578125"/>
      <use xlink:href="#DejaVuSans-41" x="517.541016"/>
      <use xlink:href="#DejaVuSans-59" x="578.199219"/>
      <use xlink:href="#DejaVuSans-2d" x="627.408203"/>
      <use xlink:href="#DejaVuSans-31" x="663.492188"/>
      <use xlink:href="#DejaVuSans-30" x="727.115234"/>
     </g>
    </g>
    <g id="line2d_24">
     <path d="M 313.160469 92.606094 
L 324.160469 92.606094 
L 335.160469 92.606094 
" style="fill: none; stroke: #c44e52; stroke-width: 3; stroke-linecap: round"/>
    </g>
    <g id="text_22">
     <!-- DCAC-DELAY-20 -->
     <g style="fill: #262626" transform="translate(343.960469 96.456094)scale(0.11 -0.11)">
      <use xlink:href="#DejaVuSans-44"/>
      <use xlink:href="#DejaVuSans-43" x="77.001953"/>
      <use xlink:href="#DejaVuSans-41" x="146.826172"/>
      <use xlink:href="#DejaVuSans-43" x="213.484375"/>
      <use xlink:href="#DejaVuSans-2d" x="283.308594"/>
      <use xlink:href="#DejaVuSans-44" x="319.392578"/>
      <use xlink:href="#DejaVuSans-45" x="396.394531"/>
      <use xlink:href="#DejaVuSans-4c" x="459.578125"/>
      <use xlink:href="#DejaVuSans-41" x="517.541016"/>
      <use xlink:href="#DejaVuSans-59" x="578.199219"/>
      <use xlink:href="#DejaVuSans-2d" x="627.408203"/>
      <use xlink:href="#DejaVuSans-32" x="663.492188"/>
      <use xlink:href="#DejaVuSans-30" x="727.115234"/>
     </g>
    </g>
    <g id="line2d_25">
     <path d="M 313.160469 108.752031 
L 324.160469 108.752031 
L 335.160469 108.752031 
" style="fill: none; stroke: #8172b3; stroke-width: 3; stroke-linecap: round"/>
    </g>
    <g id="text_23">
     <!-- DCAC-DELAY-100 -->
     <g style="fill: #262626" transform="translate(343.960469 112.602031)scale(0.11 -0.11)">
      <use xlink:href="#DejaVuSans-44"/>
      <use xlink:href="#DejaVuSans-43" x="77.001953"/>
      <use xlink:href="#DejaVuSans-41" x="146.826172"/>
      <use xlink:href="#DejaVuSans-43" x="213.484375"/>
      <use xlink:href="#DejaVuSans-2d" x="283.308594"/>
      <use xlink:href="#DejaVuSans-44" x="319.392578"/>
      <use xlink:href="#DejaVuSans-45" x="396.394531"/>
      <use xlink:href="#DejaVuSans-4c" x="459.578125"/>
      <use xlink:href="#DejaVuSans-41" x="517.541016"/>
      <use xlink:href="#DejaVuSans-59" x="578.199219"/>
      <use xlink:href="#DejaVuSans-2d" x="627.408203"/>
      <use xlink:href="#DejaVuSans-31" x="663.492188"/>
      <use xlink:href="#DejaVuSans-30" x="727.115234"/>
      <use xlink:href="#DejaVuSans-30" x="790.738281"/>
     </g>
    </g>
   </g>
  </g>
 </g>
 <defs>
  <clipPath id="pa1758a4952">
   <rect x="67.86" y="29.76" width="379.98" height="264.9"/>
  </clipPath>
 </defs>
</svg>
