<?xml version="1.0" encoding="utf-8" standalone="no"?>
<!DOCTYPE svg PUBLIC "-//W3C//DTD SVG 1.1//EN"
  "http://www.w3.org/Graphics/SVG/1.1/DTD/svg11.dtd">
<svg xmlns:xlink="http://www.w3.org/1999/xlink" width="460.8pt" height="345.6pt" viewBox="0 0 460.8 345.6" xmlns="http://www.w3.org/2000/svg" version="1.1">
 <metadata>
  <rdf:RDF xmlns:dc="http://purl.org/dc/elements/1.1/" xmlns:cc="http://creativecommons.org/ns#" xmlns:rdf="http://www.w3.org/1999/02/22-rdf-syntax-ns#">
   <cc:Work>
    <dc:type rdf:resource="http://purl.org/dc/dcmitype/StillImage"/>
    <dc:date>2022-09-12T15:17:29.763684</dc:date>
    <dc:format>image/svg+xml</dc:format>
    <dc:creator>
     <cc:Agent>
      <dc:title>Matplotlib v3.5.3, https://matplotlib.org/</dc:title>
     </cc:Agent>
    </dc:creator>
   </cc:Work>
  </rdf:RDF>
 </metadata>
 <defs>
  <style type="text/css">*{stroke-linejoin: round; stroke-linecap: butt}</style>
 </defs>
 <g id="figure_1">
  <g id="patch_1">
   <path d="M 0 345.6 
L 460.8 345.6 
L 460.8 0 
L 0 0 
z
" style="fill: #ffffff"/>
  </g>
  <g id="axes_1">
   <g id="patch_2">
    <path d="M 67.86 294.66 
L 447.84 294.66 
L 447.84 12.96 
L 67.86 12.96 
z
" style="fill: #eaeaf2"/>
   </g>
   <g id="matplotlib.axis_1">
    <g id="xtick_1">
     <g id="line2d_1">
      <path d="M 82.228992 294.66 
L 82.228992 12.96 
" clip-path="url(#pb878b6aa4d)" style="fill: none; stroke: #ffffff; stroke-linecap: round"/>
     </g>
     <g id="text_1">
      <!-- 0.00 -->
      <g style="fill: #262626" transform="translate(69.982898 312.518281)scale(0.11 -0.11)">
       <defs>
        <path id="DejaVuSans-30" d="M 2034 4250 
Q 1547 4250 1301 3770 
Q 1056 3291 1056 2328 
Q 1056 1369 1301 889 
Q 1547 409 2034 409 
Q 2525 409 2770 889 
Q 3016 1369 3016 2328 
Q 3016 3291 2770 3770 
Q 2525 4250 2034 4250 
z
M 2034 4750 
Q 2819 4750 3233 4129 
Q 3647 3509 3647 2328 
Q 3647 1150 3233 529 
Q 2819 -91 2034 -91 
Q 1250 -91 836 529 
Q 422 1150 422 2328 
Q 422 3509 836 4129 
Q 1250 4750 2034 4750 
z
" transform="scale(0.015625)"/>
        <path id="DejaVuSans-2e" d="M 684 794 
L 1344 794 
L 1344 0 
L 684 0 
L 684 794 
z
" transform="scale(0.015625)"/>
       </defs>
       <use xlink:href="#DejaVuSans-30"/>
       <use xlink:href="#DejaVuSans-2e" x="63.623047"/>
       <use xlink:href="#DejaVuSans-30" x="95.410156"/>
       <use xlink:href="#DejaVuSans-30" x="159.033203"/>
      </g>
     </g>
    </g>
    <g id="xtick_2">
     <g id="line2d_2">
      <path d="M 140.285523 294.66 
L 140.285523 12.96 
" clip-path="url(#pb878b6aa4d)" style="fill: none; stroke: #ffffff; stroke-linecap: round"/>
     </g>
     <g id="text_2">
      <!-- 0.05 -->
      <g style="fill: #262626" transform="translate(128.03943 312.518281)scale(0.11 -0.11)">
       <defs>
        <path id="DejaVuSans-35" d="M 691 4666 
L 3169 4666 
L 3169 4134 
L 1269 4134 
L 1269 2991 
Q 1406 3038 1543 3061 
Q 1681 3084 1819 3084 
Q 2600 3084 3056 2656 
Q 3513 2228 3513 1497 
Q 3513 744 3044 326 
Q 2575 -91 1722 -91 
Q 1428 -91 1123 -41 
Q 819 9 494 109 
L 494 744 
Q 775 591 1075 516 
Q 1375 441 1709 441 
Q 2250 441 2565 725 
Q 2881 1009 2881 1497 
Q 2881 1984 2565 2268 
Q 2250 2553 1709 2553 
Q 1456 2553 1204 2497 
Q 953 2441 691 2322 
L 691 4666 
z
" transform="scale(0.015625)"/>
       </defs>
       <use xlink:href="#DejaVuSans-30"/>
       <use xlink:href="#DejaVuSans-2e" x="63.623047"/>
       <use xlink:href="#DejaVuSans-30" x="95.410156"/>
       <use xlink:href="#DejaVuSans-35" x="159.033203"/>
      </g>
     </g>
    </g>
    <g id="xtick_3">
     <g id="line2d_3">
      <path d="M 198.342055 294.66 
L 198.342055 12.96 
" clip-path="url(#pb878b6aa4d)" style="fill: none; stroke: #ffffff; stroke-linecap: round"/>
     </g>
     <g id="text_3">
      <!-- 0.10 -->
      <g style="fill: #262626" transform="translate(186.095961 312.518281)scale(0.11 -0.11)">
       <defs>
        <path id="DejaVuSans-31" d="M 794 531 
L 1825 531 
L 1825 4091 
L 703 3866 
L 703 4441 
L 1819 4666 
L 2450 4666 
L 2450 531 
L 3481 531 
L 3481 0 
L 794 0 
L 794 531 
z
" transform="scale(0.015625)"/>
       </defs>
       <use xlink:href="#DejaVuSans-30"/>
       <use xlink:href="#DejaVuSans-2e" x="63.623047"/>
       <use xlink:href="#DejaVuSans-31" x="95.410156"/>
       <use xlink:href="#DejaVuSans-30" x="159.033203"/>
      </g>
     </g>
    </g>
    <g id="xtick_4">
     <g id="line2d_4">
      <path d="M 256.398587 294.66 
L 256.398587 12.96 
" clip-path="url(#pb878b6aa4d)" style="fill: none; stroke: #ffffff; stroke-linecap: round"/>
     </g>
     <g id="text_4">
      <!-- 0.15 -->
      <g style="fill: #262626" transform="translate(244.152493 312.518281)scale(0.11 -0.11)">
       <use xlink:href="#DejaVuSans-30"/>
       <use xlink:href="#DejaVuSans-2e" x="63.623047"/>
       <use xlink:href="#DejaVuSans-31" x="95.410156"/>
       <use xlink:href="#DejaVuSans-35" x="159.033203"/>
      </g>
     </g>
    </g>
    <g id="xtick_5">
     <g id="line2d_5">
      <path d="M 314.455118 294.66 
L 314.455118 12.96 
" clip-path="url(#pb878b6aa4d)" style="fill: none; stroke: #ffffff; stroke-linecap: round"/>
     </g>
     <g id="text_5">
      <!-- 0.20 -->
      <g style="fill: #262626" transform="translate(302.209025 312.518281)scale(0.11 -0.11)">
       <defs>
        <path id="DejaVuSans-32" d="M 1228 531 
L 3431 531 
L 3431 0 
L 469 0 
L 469 531 
Q 828 903 1448 1529 
Q 2069 2156 2228 2338 
Q 2531 2678 2651 2914 
Q 2772 3150 2772 3378 
Q 2772 3750 2511 3984 
Q 2250 4219 1831 4219 
Q 1534 4219 1204 4116 
Q 875 4013 500 3803 
L 500 4441 
Q 881 4594 1212 4672 
Q 1544 4750 1819 4750 
Q 2544 4750 2975 4387 
Q 3406 4025 3406 3419 
Q 3406 3131 3298 2873 
Q 3191 2616 2906 2266 
Q 2828 2175 2409 1742 
Q 1991 1309 1228 531 
z
" transform="scale(0.015625)"/>
       </defs>
       <use xlink:href="#DejaVuSans-30"/>
       <use xlink:href="#DejaVuSans-2e" x="63.623047"/>
       <use xlink:href="#DejaVuSans-32" x="95.410156"/>
       <use xlink:href="#DejaVuSans-30" x="159.033203"/>
      </g>
     </g>
    </g>
    <g id="xtick_6">
     <g id="line2d_6">
      <path d="M 372.51165 294.66 
L 372.51165 12.96 
" clip-path="url(#pb878b6aa4d)" style="fill: none; stroke: #ffffff; stroke-linecap: round"/>
     </g>
     <g id="text_6">
      <!-- 0.25 -->
      <g style="fill: #262626" transform="translate(360.265556 312.518281)scale(0.11 -0.11)">
       <use xlink:href="#DejaVuSans-30"/>
       <use xlink:href="#DejaVuSans-2e" x="63.623047"/>
       <use xlink:href="#DejaVuSans-32" x="95.410156"/>
       <use xlink:href="#DejaVuSans-35" x="159.033203"/>
      </g>
     </g>
    </g>
    <g id="xtick_7">
     <g id="line2d_7">
      <path d="M 430.568182 294.66 
L 430.568182 12.96 
" clip-path="url(#pb878b6aa4d)" style="fill: none; stroke: #ffffff; stroke-linecap: round"/>
     </g>
     <g id="text_7">
      <!-- 0.30 -->
      <g style="fill: #262626" transform="translate(418.322088 312.518281)scale(0.11 -0.11)">
       <defs>
        <path id="DejaVuSans-33" d="M 2597 2516 
Q 3050 2419 3304 2112 
Q 3559 1806 3559 1356 
Q 3559 666 3084 287 
Q 2609 -91 1734 -91 
Q 1441 -91 1130 -33 
Q 819 25 488 141 
L 488 750 
Q 750 597 1062 519 
Q 1375 441 1716 441 
Q 2309 441 2620 675 
Q 2931 909 2931 1356 
Q 2931 1769 2642 2001 
Q 2353 2234 1838 2234 
L 1294 2234 
L 1294 2753 
L 1863 2753 
Q 2328 2753 2575 2939 
Q 2822 3125 2822 3475 
Q 2822 3834 2567 4026 
Q 2313 4219 1838 4219 
Q 1578 4219 1281 4162 
Q 984 4106 628 3988 
L 628 4550 
Q 988 4650 1302 4700 
Q 1616 4750 1894 4750 
Q 2613 4750 3031 4423 
Q 3450 4097 3450 3541 
Q 3450 3153 3228 2886 
Q 3006 2619 2597 2516 
z
" transform="scale(0.015625)"/>
       </defs>
       <use xlink:href="#DejaVuSans-30"/>
       <use xlink:href="#DejaVuSans-2e" x="63.623047"/>
       <use xlink:href="#DejaVuSans-33" x="95.410156"/>
       <use xlink:href="#DejaVuSans-30" x="159.033203"/>
      </g>
     </g>
    </g>
    <g id="text_8">
     <!-- Zeitschritte (in Millionen) -->
     <g style="fill: #262626" transform="translate(169.935469 329.44375)scale(0.14 -0.14)">
      <defs>
       <path id="DejaVuSans-5a" d="M 359 4666 
L 4025 4666 
L 4025 4184 
L 1075 531 
L 4097 531 
L 4097 0 
L 288 0 
L 288 481 
L 3238 4134 
L 359 4134 
L 359 4666 
z
" transform="scale(0.015625)"/>
       <path id="DejaVuSans-65" d="M 3597 1894 
L 3597 1613 
L 953 1613 
Q 991 1019 1311 708 
Q 1631 397 2203 397 
Q 2534 397 2845 478 
Q 3156 559 3463 722 
L 3463 178 
Q 3153 47 2828 -22 
Q 2503 -91 2169 -91 
Q 1331 -91 842 396 
Q 353 884 353 1716 
Q 353 2575 817 3079 
Q 1281 3584 2069 3584 
Q 2775 3584 3186 3129 
Q 3597 2675 3597 1894 
z
M 3022 2063 
Q 3016 2534 2758 2815 
Q 2500 3097 2075 3097 
Q 1594 3097 1305 2825 
Q 1016 2553 972 2059 
L 3022 2063 
z
" transform="scale(0.015625)"/>
       <path id="DejaVuSans-69" d="M 603 3500 
L 1178 3500 
L 1178 0 
L 603 0 
L 603 3500 
z
M 603 4863 
L 1178 4863 
L 1178 4134 
L 603 4134 
L 603 4863 
z
" transform="scale(0.015625)"/>
       <path id="DejaVuSans-74" d="M 1172 4494 
L 1172 3500 
L 2356 3500 
L 2356 3053 
L 1172 3053 
L 1172 1153 
Q 1172 725 1289 603 
Q 1406 481 1766 481 
L 2356 481 
L 2356 0 
L 1766 0 
Q 1100 0 847 248 
Q 594 497 594 1153 
L 594 3053 
L 172 3053 
L 172 3500 
L 594 3500 
L 594 4494 
L 1172 4494 
z
" transform="scale(0.015625)"/>
       <path id="DejaVuSans-73" d="M 2834 3397 
L 2834 2853 
Q 2591 2978 2328 3040 
Q 2066 3103 1784 3103 
Q 1356 3103 1142 2972 
Q 928 2841 928 2578 
Q 928 2378 1081 2264 
Q 1234 2150 1697 2047 
L 1894 2003 
Q 2506 1872 2764 1633 
Q 3022 1394 3022 966 
Q 3022 478 2636 193 
Q 2250 -91 1575 -91 
Q 1294 -91 989 -36 
Q 684 19 347 128 
L 347 722 
Q 666 556 975 473 
Q 1284 391 1588 391 
Q 1994 391 2212 530 
Q 2431 669 2431 922 
Q 2431 1156 2273 1281 
Q 2116 1406 1581 1522 
L 1381 1569 
Q 847 1681 609 1914 
Q 372 2147 372 2553 
Q 372 3047 722 3315 
Q 1072 3584 1716 3584 
Q 2034 3584 2315 3537 
Q 2597 3491 2834 3397 
z
" transform="scale(0.015625)"/>
       <path id="DejaVuSans-63" d="M 3122 3366 
L 3122 2828 
Q 2878 2963 2633 3030 
Q 2388 3097 2138 3097 
Q 1578 3097 1268 2742 
Q 959 2388 959 1747 
Q 959 1106 1268 751 
Q 1578 397 2138 397 
Q 2388 397 2633 464 
Q 2878 531 3122 666 
L 3122 134 
Q 2881 22 2623 -34 
Q 2366 -91 2075 -91 
Q 1284 -91 818 406 
Q 353 903 353 1747 
Q 353 2603 823 3093 
Q 1294 3584 2113 3584 
Q 2378 3584 2631 3529 
Q 2884 3475 3122 3366 
z
" transform="scale(0.015625)"/>
       <path id="DejaVuSans-68" d="M 3513 2113 
L 3513 0 
L 2938 0 
L 2938 2094 
Q 2938 2591 2744 2837 
Q 2550 3084 2163 3084 
Q 1697 3084 1428 2787 
Q 1159 2491 1159 1978 
L 1159 0 
L 581 0 
L 581 4863 
L 1159 4863 
L 1159 2956 
Q 1366 3272 1645 3428 
Q 1925 3584 2291 3584 
Q 2894 3584 3203 3211 
Q 3513 2838 3513 2113 
z
" transform="scale(0.015625)"/>
       <path id="DejaVuSans-72" d="M 2631 2963 
Q 2534 3019 2420 3045 
Q 2306 3072 2169 3072 
Q 1681 3072 1420 2755 
Q 1159 2438 1159 1844 
L 1159 0 
L 581 0 
L 581 3500 
L 1159 3500 
L 1159 2956 
Q 1341 3275 1631 3429 
Q 1922 3584 2338 3584 
Q 2397 3584 2469 3576 
Q 2541 3569 2628 3553 
L 2631 2963 
z
" transform="scale(0.015625)"/>
       <path id="DejaVuSans-20" transform="scale(0.015625)"/>
       <path id="DejaVuSans-28" d="M 1984 4856 
Q 1566 4138 1362 3434 
Q 1159 2731 1159 2009 
Q 1159 1288 1364 580 
Q 1569 -128 1984 -844 
L 1484 -844 
Q 1016 -109 783 600 
Q 550 1309 550 2009 
Q 550 2706 781 3412 
Q 1013 4119 1484 4856 
L 1984 4856 
z
" transform="scale(0.015625)"/>
       <path id="DejaVuSans-6e" d="M 3513 2113 
L 3513 0 
L 2938 0 
L 2938 2094 
Q 2938 2591 2744 2837 
Q 2550 3084 2163 3084 
Q 1697 3084 1428 2787 
Q 1159 2491 1159 1978 
L 1159 0 
L 581 0 
L 581 3500 
L 1159 3500 
L 1159 2956 
Q 1366 3272 1645 3428 
Q 1925 3584 2291 3584 
Q 2894 3584 3203 3211 
Q 3513 2838 3513 2113 
z
" transform="scale(0.015625)"/>
       <path id="DejaVuSans-4d" d="M 628 4666 
L 1569 4666 
L 2759 1491 
L 3956 4666 
L 4897 4666 
L 4897 0 
L 4281 0 
L 4281 4097 
L 3078 897 
L 2444 897 
L 1241 4097 
L 1241 0 
L 628 0 
L 628 4666 
z
" transform="scale(0.015625)"/>
       <path id="DejaVuSans-6c" d="M 603 4863 
L 1178 4863 
L 1178 0 
L 603 0 
L 603 4863 
z
" transform="scale(0.015625)"/>
       <path id="DejaVuSans-6f" d="M 1959 3097 
Q 1497 3097 1228 2736 
Q 959 2375 959 1747 
Q 959 1119 1226 758 
Q 1494 397 1959 397 
Q 2419 397 2687 759 
Q 2956 1122 2956 1747 
Q 2956 2369 2687 2733 
Q 2419 3097 1959 3097 
z
M 1959 3584 
Q 2709 3584 3137 3096 
Q 3566 2609 3566 1747 
Q 3566 888 3137 398 
Q 2709 -91 1959 -91 
Q 1206 -91 779 398 
Q 353 888 353 1747 
Q 353 2609 779 3096 
Q 1206 3584 1959 3584 
z
" transform="scale(0.015625)"/>
       <path id="DejaVuSans-29" d="M 513 4856 
L 1013 4856 
Q 1481 4119 1714 3412 
Q 1947 2706 1947 2009 
Q 1947 1309 1714 600 
Q 1481 -109 1013 -844 
L 513 -844 
Q 928 -128 1133 580 
Q 1338 1288 1338 2009 
Q 1338 2731 1133 3434 
Q 928 4138 513 4856 
z
" transform="scale(0.015625)"/>
      </defs>
      <use xlink:href="#DejaVuSans-5a"/>
      <use xlink:href="#DejaVuSans-65" x="68.505859"/>
      <use xlink:href="#DejaVuSans-69" x="130.029297"/>
      <use xlink:href="#DejaVuSans-74" x="157.8125"/>
      <use xlink:href="#DejaVuSans-73" x="197.021484"/>
      <use xlink:href="#DejaVuSans-63" x="249.121094"/>
      <use xlink:href="#DejaVuSans-68" x="304.101562"/>
      <use xlink:href="#DejaVuSans-72" x="367.480469"/>
      <use xlink:href="#DejaVuSans-69" x="408.59375"/>
      <use xlink:href="#DejaVuSans-74" x="436.376953"/>
      <use xlink:href="#DejaVuSans-74" x="475.585938"/>
      <use xlink:href="#DejaVuSans-65" x="514.794922"/>
      <use xlink:href="#DejaVuSans-20" x="576.318359"/>
      <use xlink:href="#DejaVuSans-28" x="608.105469"/>
      <use xlink:href="#DejaVuSans-69" x="647.119141"/>
      <use xlink:href="#DejaVuSans-6e" x="674.902344"/>
      <use xlink:href="#DejaVuSans-20" x="738.28125"/>
      <use xlink:href="#DejaVuSans-4d" x="770.068359"/>
      <use xlink:href="#DejaVuSans-69" x="856.347656"/>
      <use xlink:href="#DejaVuSans-6c" x="884.130859"/>
      <use xlink:href="#DejaVuSans-6c" x="911.914062"/>
      <use xlink:href="#DejaVuSans-69" x="939.697266"/>
      <use xlink:href="#DejaVuSans-6f" x="967.480469"/>
      <use xlink:href="#DejaVuSans-6e" x="1028.662109"/>
      <use xlink:href="#DejaVuSans-65" x="1092.041016"/>
      <use xlink:href="#DejaVuSans-6e" x="1153.564453"/>
      <use xlink:href="#DejaVuSans-29" x="1216.943359"/>
     </g>
    </g>
   </g>
   <g id="matplotlib.axis_2">
    <g id="ytick_1">
     <g id="line2d_8">
      <path d="M 67.86 281.855455 
L 447.84 281.855455 
" clip-path="url(#pb878b6aa4d)" style="fill: none; stroke: #ffffff; stroke-linecap: round"/>
     </g>
     <g id="text_9">
      <!-- 0 -->
      <g style="fill: #262626" transform="translate(51.36125 286.034595)scale(0.11 -0.11)">
       <use xlink:href="#DejaVuSans-30"/>
      </g>
     </g>
    </g>
    <g id="ytick_2">
     <g id="line2d_9">
      <path d="M 67.86 250.459453 
L 447.84 250.459453 
" clip-path="url(#pb878b6aa4d)" style="fill: none; stroke: #ffffff; stroke-linecap: round"/>
     </g>
     <g id="text_10">
      <!-- 250 -->
      <g style="fill: #262626" transform="translate(37.36375 254.638593)scale(0.11 -0.11)">
       <use xlink:href="#DejaVuSans-32"/>
       <use xlink:href="#DejaVuSans-35" x="63.623047"/>
       <use xlink:href="#DejaVuSans-30" x="127.246094"/>
      </g>
     </g>
    </g>
    <g id="ytick_3">
     <g id="line2d_10">
      <path d="M 67.86 219.063451 
L 447.84 219.063451 
" clip-path="url(#pb878b6aa4d)" style="fill: none; stroke: #ffffff; stroke-linecap: round"/>
     </g>
     <g id="text_11">
      <!-- 500 -->
      <g style="fill: #262626" transform="translate(37.36375 223.242591)scale(0.11 -0.11)">
       <use xlink:href="#DejaVuSans-35"/>
       <use xlink:href="#DejaVuSans-30" x="63.623047"/>
       <use xlink:href="#DejaVuSans-30" x="127.246094"/>
      </g>
     </g>
    </g>
    <g id="ytick_4">
     <g id="line2d_11">
      <path d="M 67.86 187.667449 
L 447.84 187.667449 
" clip-path="url(#pb878b6aa4d)" style="fill: none; stroke: #ffffff; stroke-linecap: round"/>
     </g>
     <g id="text_12">
      <!-- 750 -->
      <g style="fill: #262626" transform="translate(37.36375 191.846589)scale(0.11 -0.11)">
       <defs>
        <path id="DejaVuSans-37" d="M 525 4666 
L 3525 4666 
L 3525 4397 
L 1831 0 
L 1172 0 
L 2766 4134 
L 525 4134 
L 525 4666 
z
" transform="scale(0.015625)"/>
       </defs>
       <use xlink:href="#DejaVuSans-37"/>
       <use xlink:href="#DejaVuSans-35" x="63.623047"/>
       <use xlink:href="#DejaVuSans-30" x="127.246094"/>
      </g>
     </g>
    </g>
    <g id="ytick_5">
     <g id="line2d_12">
      <path d="M 67.86 156.271447 
L 447.84 156.271447 
" clip-path="url(#pb878b6aa4d)" style="fill: none; stroke: #ffffff; stroke-linecap: round"/>
     </g>
     <g id="text_13">
      <!-- 1000 -->
      <g style="fill: #262626" transform="translate(30.365 160.450587)scale(0.11 -0.11)">
       <use xlink:href="#DejaVuSans-31"/>
       <use xlink:href="#DejaVuSans-30" x="63.623047"/>
       <use xlink:href="#DejaVuSans-30" x="127.246094"/>
       <use xlink:href="#DejaVuSans-30" x="190.869141"/>
      </g>
     </g>
    </g>
    <g id="ytick_6">
     <g id="line2d_13">
      <path d="M 67.86 124.875445 
L 447.84 124.875445 
" clip-path="url(#pb878b6aa4d)" style="fill: none; stroke: #ffffff; stroke-linecap: round"/>
     </g>
     <g id="text_14">
      <!-- 1250 -->
      <g style="fill: #262626" transform="translate(30.365 129.054585)scale(0.11 -0.11)">
       <use xlink:href="#DejaVuSans-31"/>
       <use xlink:href="#DejaVuSans-32" x="63.623047"/>
       <use xlink:href="#DejaVuSans-35" x="127.246094"/>
       <use xlink:href="#DejaVuSans-30" x="190.869141"/>
      </g>
     </g>
    </g>
    <g id="ytick_7">
     <g id="line2d_14">
      <path d="M 67.86 93.479443 
L 447.84 93.479443 
" clip-path="url(#pb878b6aa4d)" style="fill: none; stroke: #ffffff; stroke-linecap: round"/>
     </g>
     <g id="text_15">
      <!-- 1500 -->
      <g style="fill: #262626" transform="translate(30.365 97.658583)scale(0.11 -0.11)">
       <use xlink:href="#DejaVuSans-31"/>
       <use xlink:href="#DejaVuSans-35" x="63.623047"/>
       <use xlink:href="#DejaVuSans-30" x="127.246094"/>
       <use xlink:href="#DejaVuSans-30" x="190.869141"/>
      </g>
     </g>
    </g>
    <g id="ytick_8">
     <g id="line2d_15">
      <path d="M 67.86 62.083441 
L 447.84 62.083441 
" clip-path="url(#pb878b6aa4d)" style="fill: none; stroke: #ffffff; stroke-linecap: round"/>
     </g>
     <g id="text_16">
      <!-- 1750 -->
      <g style="fill: #262626" transform="translate(30.365 66.262581)scale(0.11 -0.11)">
       <use xlink:href="#DejaVuSans-31"/>
       <use xlink:href="#DejaVuSans-37" x="63.623047"/>
       <use xlink:href="#DejaVuSans-35" x="127.246094"/>
       <use xlink:href="#DejaVuSans-30" x="190.869141"/>
      </g>
     </g>
    </g>
    <g id="ytick_9">
     <g id="line2d_16">
      <path d="M 67.86 30.687439 
L 447.84 30.687439 
" clip-path="url(#pb878b6aa4d)" style="fill: none; stroke: #ffffff; stroke-linecap: round"/>
     </g>
     <g id="text_17">
      <!-- 2000 -->
      <g style="fill: #262626" transform="translate(30.365 34.866579)scale(0.11 -0.11)">
       <use xlink:href="#DejaVuSans-32"/>
       <use xlink:href="#DejaVuSans-30" x="63.623047"/>
       <use xlink:href="#DejaVuSans-30" x="127.246094"/>
       <use xlink:href="#DejaVuSans-30" x="190.869141"/>
      </g>
     </g>
    </g>
    <g id="text_18">
     <!-- # Δx &lt; 0 -->
     <g style="fill: #262626" transform="translate(23.453438 185.600938)rotate(-90)scale(0.14 -0.14)">
      <defs>
       <path id="DejaVuSans-23" d="M 3272 2816 
L 2363 2816 
L 2100 1772 
L 3016 1772 
L 3272 2816 
z
M 2803 4594 
L 2478 3297 
L 3391 3297 
L 3719 4594 
L 4219 4594 
L 3897 3297 
L 4872 3297 
L 4872 2816 
L 3775 2816 
L 3519 1772 
L 4513 1772 
L 4513 1294 
L 3397 1294 
L 3072 0 
L 2572 0 
L 2894 1294 
L 1978 1294 
L 1656 0 
L 1153 0 
L 1478 1294 
L 494 1294 
L 494 1772 
L 1594 1772 
L 1856 2816 
L 850 2816 
L 850 3297 
L 1978 3297 
L 2297 4594 
L 2803 4594 
z
" transform="scale(0.015625)"/>
       <path id="DejaVuSans-394" d="M 2188 4044 
L 906 525 
L 3472 525 
L 2188 4044 
z
M 50 0 
L 1831 4666 
L 2547 4666 
L 4325 0 
L 50 0 
z
" transform="scale(0.015625)"/>
       <path id="DejaVuSans-78" d="M 3513 3500 
L 2247 1797 
L 3578 0 
L 2900 0 
L 1881 1375 
L 863 0 
L 184 0 
L 1544 1831 
L 300 3500 
L 978 3500 
L 1906 2253 
L 2834 3500 
L 3513 3500 
z
" transform="scale(0.015625)"/>
       <path id="DejaVuSans-3c" d="M 4684 3150 
L 1459 2003 
L 4684 863 
L 4684 294 
L 678 1747 
L 678 2266 
L 4684 3719 
L 4684 3150 
z
" transform="scale(0.015625)"/>
      </defs>
      <use xlink:href="#DejaVuSans-23"/>
      <use xlink:href="#DejaVuSans-20" x="83.789062"/>
      <use xlink:href="#DejaVuSans-394" x="115.576172"/>
      <use xlink:href="#DejaVuSans-78" x="183.984375"/>
      <use xlink:href="#DejaVuSans-20" x="243.164062"/>
      <use xlink:href="#DejaVuSans-3c" x="274.951172"/>
      <use xlink:href="#DejaVuSans-20" x="358.740234"/>
      <use xlink:href="#DejaVuSans-30" x="390.527344"/>
     </g>
    </g>
   </g>
   <g id="PolyCollection_1">
    <defs>
     <path id="m638ad74dff" d="M 85.131818 -119.478728 
L 85.131818 -179.005548 
L 88.034645 -173.80637 
L 90.937471 -187.319209 
L 93.840298 -186.013136 
L 96.743125 -63.744545 
L 99.645951 -63.744545 
L 102.548778 -76.227596 
L 105.451604 -78.462991 
L 108.354431 -80.899321 
L 111.257257 -78.86486 
L 114.160084 -76.905749 
L 117.062911 -70.727016 
L 119.965737 -74.067551 
L 122.868564 -71.580988 
L 125.77139 -69.144658 
L 128.674217 -71.555871 
L 131.577044 -65.251554 
L 134.47987 -71.631221 
L 137.382697 -79.166262 
L 140.285523 -69.747461 
L 143.18835 -70.500965 
L 146.091176 -73.91685 
L 148.994003 -74.54477 
L 151.89683 -65.854357 
L 154.799656 -66.632978 
L 157.702483 -68.617205 
L 160.605309 -70.902834 
L 163.508136 -87.103171 
L 166.410963 -67.612533 
L 169.313789 -63.870129 
L 172.216616 -66.683211 
L 175.119442 -70.425615 
L 178.022269 -64.372465 
L 180.925095 -68.014402 
L 183.827922 -68.96884 
L 186.730749 -66.683211 
L 189.633575 -68.993957 
L 192.536402 -66.708328 
L 195.439228 -70.099096 
L 198.342055 -67.662767 
L 201.244882 -64.799451 
L 204.147708 -80.296518 
L 207.050535 -63.995713 
L 209.953361 -82.607263 
L 212.856188 -68.843256 
L 215.759015 -73.087996 
L 218.661841 -71.555871 
L 221.564668 -70.676783 
L 224.467494 -71.003301 
L 227.370321 -63.845013 
L 230.273147 -68.290687 
L 233.175974 -69.797695 
L 236.078801 -67.311131 
L 238.981627 -71.982856 
L 241.884454 -68.818139 
L 244.78728 -70.953068 
L 247.690107 -65.100853 
L 250.592934 -71.656338 
L 253.49576 -77.382969 
L 256.398587 -76.629465 
L 259.301413 -67.034846 
L 262.20424 -72.811711 
L 265.107066 -64.422699 
L 268.009893 -71.204236 
L 270.91272 -66.859029 
L 273.815546 -68.441387 
L 276.718373 -72.133557 
L 279.621199 -68.089752 
L 282.524026 -67.939051 
L 285.426853 -63.870129 
L 288.329679 -64.698984 
L 291.232506 -73.866616 
L 294.135332 -67.286014 
L 297.038159 -69.621877 
L 299.940985 -70.676783 
L 302.843812 -64.297115 
L 305.746639 -66.934379 
L 308.649465 -63.895246 
L 311.552292 -71.103768 
L 314.455118 -69.923279 
L 317.357945 -71.731688 
L 320.260772 -69.270242 
L 323.163598 -75.549442 
L 326.066425 -69.345592 
L 328.969251 -73.238696 
L 331.872078 -63.845013 
L 334.774905 -68.818139 
L 337.677731 -66.38181 
L 340.580558 -68.114869 
L 343.483384 -68.165103 
L 346.386211 -73.866616 
L 349.289037 -68.014402 
L 352.191864 -64.698984 
L 355.094691 -70.249797 
L 357.997517 -63.870129 
L 360.900344 -65.27667 
L 363.80317 -75.80061 
L 366.705997 -65.377138 
L 369.608824 -66.984613 
L 372.51165 -65.653422 
L 375.414477 -70.877717 
L 378.317303 -67.763234 
L 381.22013 -68.717672 
L 384.122956 -70.199563 
L 387.025783 -65.477605 
L 389.92861 -64.071064 
L 392.831436 -75.047106 
L 395.734263 -67.888818 
L 398.637089 -65.402254 
L 401.539916 -66.582744 
L 404.442743 -65.176203 
L 407.345569 -71.279586 
L 410.248396 -68.240453 
L 413.151222 -68.240453 
L 416.054049 -65.603189 
L 418.956875 -65.90459 
L 421.859702 -66.130642 
L 424.762529 -68.064635 
L 427.665355 -65.377138 
L 430.568182 -73.339164 
L 430.568182 -63.794779 
L 430.568182 -63.794779 
L 427.665355 -63.794779 
L 424.762529 -63.794779 
L 421.859702 -63.794779 
L 418.956875 -63.794779 
L 416.054049 -63.794779 
L 413.151222 -63.819896 
L 410.248396 -63.769662 
L 407.345569 -63.794779 
L 404.442743 -63.819896 
L 401.539916 -63.819896 
L 398.637089 -63.794779 
L 395.734263 -63.794779 
L 392.831436 -63.769662 
L 389.92861 -63.769662 
L 387.025783 -63.819896 
L 384.122956 -63.794779 
L 381.22013 -63.845013 
L 378.317303 -63.769662 
L 375.414477 -63.794779 
L 372.51165 -63.769662 
L 369.608824 -63.794779 
L 366.705997 -63.769662 
L 363.80317 -63.819896 
L 360.900344 -63.794779 
L 357.997517 -63.819896 
L 355.094691 -63.769662 
L 352.191864 -63.769662 
L 349.289037 -63.769662 
L 346.386211 -63.794779 
L 343.483384 -63.870129 
L 340.580558 -63.769662 
L 337.677731 -63.794779 
L 334.774905 -63.794779 
L 331.872078 -63.819896 
L 328.969251 -63.744545 
L 326.066425 -63.819896 
L 323.163598 -63.769662 
L 320.260772 -63.769662 
L 317.357945 -63.794779 
L 314.455118 -63.845013 
L 311.552292 -63.769662 
L 308.649465 -63.819896 
L 305.746639 -63.744545 
L 302.843812 -63.769662 
L 299.940985 -63.744545 
L 297.038159 -63.769662 
L 294.135332 -63.794779 
L 291.232506 -63.794779 
L 288.329679 -63.744545 
L 285.426853 -63.769662 
L 282.524026 -63.744545 
L 279.621199 -63.744545 
L 276.718373 -63.794779 
L 273.815546 -63.769662 
L 270.91272 -63.744545 
L 268.009893 -63.744545 
L 265.107066 -63.769662 
L 262.20424 -63.744545 
L 259.301413 -63.744545 
L 256.398587 -63.794779 
L 253.49576 -63.744545 
L 250.592934 -63.744545 
L 247.690107 -63.769662 
L 244.78728 -63.794779 
L 241.884454 -63.769662 
L 238.981627 -63.744545 
L 236.078801 -63.744545 
L 233.175974 -63.769662 
L 230.273147 -63.794779 
L 227.370321 -63.744545 
L 224.467494 -63.794779 
L 221.564668 -63.794779 
L 218.661841 -63.744545 
L 215.759015 -63.794779 
L 212.856188 -63.744545 
L 209.953361 -63.794779 
L 207.050535 -63.744545 
L 204.147708 -63.769662 
L 201.244882 -63.769662 
L 198.342055 -63.744545 
L 195.439228 -63.794779 
L 192.536402 -63.744545 
L 189.633575 -63.744545 
L 186.730749 -63.744545 
L 183.827922 -63.769662 
L 180.925095 -63.744545 
L 178.022269 -63.744545 
L 175.119442 -63.744545 
L 172.216616 -63.744545 
L 169.313789 -63.744545 
L 166.410963 -63.744545 
L 163.508136 -63.744545 
L 160.605309 -63.744545 
L 157.702483 -65.326904 
L 154.799656 -63.744545 
L 151.89683 -63.744545 
L 148.994003 -63.744545 
L 146.091176 -63.769662 
L 143.18835 -63.744545 
L 140.285523 -63.794779 
L 137.382697 -63.769662 
L 134.47987 -63.744545 
L 131.577044 -63.744545 
L 128.674217 -63.744545 
L 125.77139 -63.744545 
L 122.868564 -63.744545 
L 119.965737 -63.744545 
L 117.062911 -63.744545 
L 114.160084 -63.744545 
L 111.257257 -63.744545 
L 108.354431 -63.744545 
L 105.451604 -63.744545 
L 102.548778 -63.744545 
L 99.645951 -63.744545 
L 96.743125 -63.744545 
L 93.840298 -149.493306 
L 90.937471 -131.55991 
L 88.034645 -130.555238 
L 85.131818 -119.478728 
z
" style="stroke: #ffffff; stroke-opacity: 0.5"/>
    </defs>
    <g clip-path="url(#pb878b6aa4d)">
     <use xlink:href="#m638ad74dff" x="0" y="345.6" style="fill: #4c72b0; fill-opacity: 0.5; stroke: #ffffff; stroke-opacity: 0.5"/>
    </g>
   </g>
   <g id="PolyCollection_2">
    <defs>
     <path id="m1464b6e45a" d="M 85.131818 -154.893418 
L 85.131818 -196.034739 
L 88.034645 -184.782412 
L 90.937471 -178.980431 
L 93.840298 -181.944214 
L 96.743125 -80.472335 
L 99.645951 -63.744545 
L 102.548778 -63.744545 
L 105.451604 -66.507394 
L 108.354431 -65.000386 
L 111.257257 -74.193135 
L 114.160084 -93.859591 
L 117.062911 -69.898162 
L 119.965737 -66.005058 
L 122.868564 -65.578072 
L 125.77139 -63.819896 
L 128.674217 -66.331576 
L 131.577044 -82.531913 
L 134.47987 -64.598517 
L 137.382697 -65.377138 
L 140.285523 -113.299995 
L 143.18835 -74.770821 
L 146.091176 -69.220008 
L 148.994003 -66.055291 
L 151.89683 -78.16159 
L 154.799656 -63.819896 
L 157.702483 -75.348508 
L 160.605309 -63.794779 
L 163.508136 -65.025502 
L 166.410963 -66.180875 
L 169.313789 -66.155758 
L 172.216616 -66.482277 
L 175.119442 -67.00973 
L 178.022269 -63.819896 
L 180.925095 -64.196648 
L 183.827922 -76.654581 
L 186.730749 -63.895246 
L 189.633575 -67.813467 
L 192.536402 -67.63765 
L 195.439228 -64.472933 
L 198.342055 -67.989285 
L 201.244882 -73.640565 
L 204.147708 -63.895246 
L 207.050535 -69.747461 
L 209.953361 -66.331576 
L 212.856188 -82.130044 
L 215.759015 -63.895246 
L 218.661841 -67.436715 
L 221.564668 -69.948395 
L 224.467494 -68.114869 
L 227.370321 -85.06871 
L 230.273147 -72.309375 
L 233.175974 -69.747461 
L 236.078801 -66.884146 
L 238.981627 -76.654581 
L 241.884454 -71.204236 
L 244.78728 -67.336248 
L 247.690107 -70.22468 
L 250.592934 -77.05645 
L 253.49576 -72.208908 
L 256.398587 -75.574559 
L 259.301413 -70.701899 
L 262.20424 -73.263813 
L 265.107066 -74.293602 
L 268.009893 -67.286014 
L 270.91272 -71.053535 
L 273.815546 -72.03309 
L 276.718373 -71.932623 
L 279.621199 -73.540098 
L 282.524026 -71.003301 
L 285.426853 -78.462991 
L 288.329679 -72.259141 
L 291.232506 -70.099096 
L 294.135332 -68.366037 
L 297.038159 -71.430287 
L 299.940985 -71.706572 
L 302.843812 -74.896405 
L 305.746639 -69.621877 
L 308.649465 -66.658094 
L 311.552292 -66.658094 
L 314.455118 -79.593247 
L 317.357945 -74.795938 
L 320.260772 -71.505637 
L 323.163598 -77.307618 
L 326.066425 -71.48052 
L 328.969251 -77.709487 
L 331.872078 -77.784838 
L 334.774905 -74.368953 
L 337.677731 -74.54477 
L 340.580558 -75.524325 
L 343.483384 -71.580988 
L 346.386211 -72.359608 
L 349.289037 -72.836828 
L 352.191864 -75.298274 
L 355.094691 -71.982856 
L 357.997517 -66.909262 
L 360.900344 -78.814626 
L 363.80317 -75.951311 
L 366.705997 -68.843256 
L 369.608824 -69.144658 
L 372.51165 -70.425615 
L 375.414477 -73.439631 
L 378.317303 -73.741032 
L 381.22013 -70.249797 
L 384.122956 -74.720588 
L 387.025783 -75.197807 
L 389.92861 -79.56813 
L 392.831436 -78.739276 
L 395.734263 -75.298274 
L 398.637089 -76.930866 
L 401.539916 -76.453647 
L 404.442743 -79.618364 
L 407.345569 -72.937295 
L 410.248396 -81.401657 
L 413.151222 -74.46942 
L 416.054049 -73.163346 
L 418.956875 -85.545929 
L 421.859702 -76.328063 
L 424.762529 -67.562299 
L 427.665355 -72.409842 
L 430.568182 -70.450731 
L 430.568182 -66.482277 
L 430.568182 -66.482277 
L 427.665355 -63.819896 
L 424.762529 -63.769662 
L 421.859702 -63.744545 
L 418.956875 -63.970597 
L 416.054049 -67.662767 
L 413.151222 -64.824568 
L 410.248396 -65.226437 
L 407.345569 -63.769662 
L 404.442743 -66.708328 
L 401.539916 -63.920363 
L 398.637089 -63.870129 
L 395.734263 -66.783678 
L 392.831436 -64.397582 
L 389.92861 -63.819896 
L 387.025783 -63.920363 
L 384.122956 -63.94548 
L 381.22013 -63.895246 
L 378.317303 -65.352021 
L 375.414477 -65.578072 
L 372.51165 -63.845013 
L 369.608824 -63.870129 
L 366.705997 -65.578072 
L 363.80317 -63.845013 
L 360.900344 -63.845013 
L 357.997517 -63.845013 
L 355.094691 -63.819896 
L 352.191864 -64.146414 
L 349.289037 -64.02083 
L 346.386211 -64.472933 
L 343.483384 -65.728773 
L 340.580558 -64.096181 
L 337.677731 -64.045947 
L 334.774905 -64.246881 
L 331.872078 -64.02083 
L 328.969251 -64.49805 
L 326.066425 -63.920363 
L 323.163598 -63.794779 
L 320.260772 -64.397582 
L 317.357945 -64.548283 
L 314.455118 -64.02083 
L 311.552292 -63.794779 
L 308.649465 -64.02083 
L 305.746639 -63.819896 
L 302.843812 -64.02083 
L 299.940985 -63.94548 
L 297.038159 -63.895246 
L 294.135332 -63.94548 
L 291.232506 -65.427371 
L 288.329679 -64.02083 
L 285.426853 -63.845013 
L 282.524026 -64.322232 
L 279.621199 -63.995713 
L 276.718373 -65.176203 
L 273.815546 -63.744545 
L 270.91272 -64.322232 
L 268.009893 -64.171531 
L 265.107066 -63.769662 
L 262.20424 -63.769662 
L 259.301413 -63.769662 
L 256.398587 -64.899918 
L 253.49576 -63.794779 
L 250.592934 -66.984613 
L 247.690107 -63.769662 
L 244.78728 -63.895246 
L 241.884454 -64.02083 
L 238.981627 -63.769662 
L 236.078801 -63.744545 
L 233.175974 -63.870129 
L 230.273147 -63.744545 
L 227.370321 -63.94548 
L 224.467494 -63.769662 
L 221.564668 -63.769662 
L 218.661841 -63.744545 
L 215.759015 -63.744545 
L 212.856188 -63.744545 
L 209.953361 -63.744545 
L 207.050535 -63.744545 
L 204.147708 -63.744545 
L 201.244882 -63.769662 
L 198.342055 -63.769662 
L 195.439228 -63.744545 
L 192.536402 -63.744545 
L 189.633575 -63.744545 
L 186.730749 -63.744545 
L 183.827922 -63.744545 
L 180.925095 -63.744545 
L 178.022269 -63.744545 
L 175.119442 -63.744545 
L 172.216616 -63.744545 
L 169.313789 -63.744545 
L 166.410963 -63.744545 
L 163.508136 -63.744545 
L 160.605309 -63.744545 
L 157.702483 -63.744545 
L 154.799656 -63.744545 
L 151.89683 -63.769662 
L 148.994003 -63.744545 
L 146.091176 -63.744545 
L 143.18835 -63.744545 
L 140.285523 -63.744545 
L 137.382697 -63.744545 
L 134.47987 -63.744545 
L 131.577044 -63.769662 
L 128.674217 -63.744545 
L 125.77139 -63.744545 
L 122.868564 -63.744545 
L 119.965737 -63.744545 
L 117.062911 -63.744545 
L 114.160084 -63.744545 
L 111.257257 -63.744545 
L 108.354431 -63.744545 
L 105.451604 -63.744545 
L 102.548778 -63.744545 
L 99.645951 -63.744545 
L 96.743125 -63.744545 
L 93.840298 -153.788279 
L 90.937471 -154.01433 
L 88.034645 -145.072749 
L 85.131818 -154.893418 
z
" style="stroke: #ffffff; stroke-opacity: 0.5"/>
    </defs>
    <g clip-path="url(#pb878b6aa4d)">
     <use xlink:href="#m1464b6e45a" x="0" y="345.6" style="fill: #dd8452; fill-opacity: 0.5; stroke: #ffffff; stroke-opacity: 0.5"/>
    </g>
   </g>
   <g id="PolyCollection_3">
    <defs>
     <path id="ma20e8a80e2" d="M 85.131818 -137.688409 
L 85.131818 -178.879964 
L 88.034645 -200.832049 
L 90.937471 -170.842587 
L 93.840298 -173.304034 
L 96.743125 -96.572205 
L 99.645951 -71.179119 
L 102.548778 -71.40517 
L 105.451604 -63.744545 
L 108.354431 -83.561702 
L 111.257257 -131.00734 
L 114.160084 -108.276635 
L 117.062911 -67.888818 
L 119.965737 -113.927915 
L 122.868564 -151.326833 
L 125.77139 -78.262057 
L 128.674217 -69.621877 
L 131.577044 -82.305862 
L 134.47987 -116.01261 
L 137.382697 -67.311131 
L 140.285523 -69.898162 
L 143.18835 -90.192538 
L 146.091176 -78.111356 
L 148.994003 -74.218252 
L 151.89683 -68.566971 
L 154.799656 -65.176203 
L 157.702483 -64.221765 
L 160.605309 -178.176694 
L 163.508136 -83.18495 
L 166.410963 -73.188463 
L 169.313789 -77.910422 
L 172.216616 -63.995713 
L 175.119442 -72.73636 
L 178.022269 -143.163872 
L 180.925095 -80.447219 
L 183.827922 -78.588575 
L 186.730749 -76.654581 
L 189.633575 -75.499209 
L 192.536402 -79.141145 
L 195.439228 -73.062879 
L 198.342055 -90.870691 
L 201.244882 -67.235781 
L 204.147708 -102.097901 
L 207.050535 -71.304703 
L 209.953361 -73.188463 
L 212.856188 -74.670354 
L 215.759015 -73.439631 
L 218.661841 -74.821055 
L 221.564668 -113.350229 
L 224.467494 -79.643481 
L 227.370321 -89.263216 
L 230.273147 -73.138229 
L 233.175974 -78.16159 
L 236.078801 -81.979343 
L 238.981627 -78.86486 
L 241.884454 -75.147573 
L 244.78728 -82.205395 
L 247.690107 -88.032493 
L 250.592934 -72.836828 
L 253.49576 -81.627708 
L 256.398587 -70.953068 
L 259.301413 -91.774896 
L 262.20424 -73.439631 
L 265.107066 -66.984613 
L 268.009893 -73.540098 
L 270.91272 -73.238696 
L 273.815546 -77.910422 
L 276.718373 -78.889977 
L 279.621199 -68.089752 
L 282.524026 -70.174447 
L 285.426853 -83.88822 
L 288.329679 -78.663926 
L 291.232506 -78.739276 
L 294.135332 -82.456563 
L 297.038159 -70.626549 
L 299.940985 -71.48052 
L 302.843812 -92.176765 
L 305.746639 -81.627708 
L 308.649465 -72.510309 
L 311.552292 -77.282502 
L 314.455118 -88.83623 
L 317.357945 -82.933782 
L 320.260772 -84.239856 
L 323.163598 -79.894649 
L 326.066425 -90.795341 
L 328.969251 -72.711244 
L 331.872078 -73.640565 
L 334.774905 -72.485192 
L 337.677731 -70.048863 
L 340.580558 -73.138229 
L 343.483384 -69.094424 
L 346.386211 -71.028418 
L 349.289037 -72.560543 
L 352.191864 -73.314047 
L 355.094691 -69.571643 
L 357.997517 -69.747461 
L 360.900344 -71.555871 
L 363.80317 -71.932623 
L 366.705997 -73.163346 
L 369.608824 -73.766149 
L 372.51165 -70.400498 
L 375.414477 -72.158674 
L 378.317303 -71.95774 
L 381.22013 -74.645237 
L 384.122956 -77.182034 
L 387.025783 -72.409842 
L 389.92861 -69.194891 
L 392.831436 -72.485192 
L 395.734263 -74.921522 
L 398.637089 -72.083324 
L 401.539916 -69.646994 
L 404.442743 -68.315803 
L 407.345569 -70.475848 
L 410.248396 -70.978184 
L 413.151222 -73.690799 
L 416.054049 -74.142901 
L 418.956875 -69.270242 
L 421.859702 -74.720588 
L 424.762529 -66.909262 
L 427.665355 -73.514981 
L 430.568182 -73.314047 
L 430.568182 -64.096181 
L 430.568182 -64.096181 
L 427.665355 -64.146414 
L 424.762529 -64.045947 
L 421.859702 -64.146414 
L 418.956875 -64.146414 
L 416.054049 -64.271998 
L 413.151222 -64.196648 
L 410.248396 -64.322232 
L 407.345569 -64.146414 
L 404.442743 -64.121297 
L 401.539916 -64.121297 
L 398.637089 -64.397582 
L 395.734263 -64.071064 
L 392.831436 -64.271998 
L 389.92861 -64.146414 
L 387.025783 -63.94548 
L 384.122956 -63.895246 
L 381.22013 -64.096181 
L 378.317303 -63.895246 
L 375.414477 -64.096181 
L 372.51165 -64.045947 
L 369.608824 -64.096181 
L 366.705997 -64.271998 
L 363.80317 -64.02083 
L 360.900344 -63.920363 
L 357.997517 -63.94548 
L 355.094691 -64.171531 
L 352.191864 -64.02083 
L 349.289037 -64.02083 
L 346.386211 -63.995713 
L 343.483384 -63.920363 
L 340.580558 -64.121297 
L 337.677731 -63.870129 
L 334.774905 -63.970597 
L 331.872078 -63.920363 
L 328.969251 -63.819896 
L 326.066425 -64.02083 
L 323.163598 -63.794779 
L 320.260772 -64.096181 
L 317.357945 -64.322232 
L 314.455118 -63.895246 
L 311.552292 -63.819896 
L 308.649465 -63.744545 
L 305.746639 -63.870129 
L 302.843812 -63.920363 
L 299.940985 -63.819896 
L 297.038159 -64.02083 
L 294.135332 -64.372465 
L 291.232506 -63.769662 
L 288.329679 -63.794779 
L 285.426853 -63.970597 
L 282.524026 -63.94548 
L 279.621199 -63.769662 
L 276.718373 -63.94548 
L 273.815546 -63.895246 
L 270.91272 -63.744545 
L 268.009893 -63.995713 
L 265.107066 -63.769662 
L 262.20424 -63.794779 
L 259.301413 -63.744545 
L 256.398587 -64.196648 
L 253.49576 -63.845013 
L 250.592934 -63.870129 
L 247.690107 -63.744545 
L 244.78728 -63.94548 
L 241.884454 -63.794779 
L 238.981627 -64.5734 
L 236.078801 -63.845013 
L 233.175974 -63.744545 
L 230.273147 -63.744545 
L 227.370321 -63.769662 
L 224.467494 -63.744545 
L 221.564668 -65.779006 
L 218.661841 -64.774334 
L 215.759015 -63.870129 
L 212.856188 -66.683211 
L 209.953361 -63.769662 
L 207.050535 -63.769662 
L 204.147708 -63.769662 
L 201.244882 -63.744545 
L 198.342055 -67.537182 
L 195.439228 -63.895246 
L 192.536402 -64.372465 
L 189.633575 -63.94548 
L 186.730749 -64.297115 
L 183.827922 -63.769662 
L 180.925095 -63.744545 
L 178.022269 -64.121297 
L 175.119442 -63.744545 
L 172.216616 -63.744545 
L 169.313789 -63.769662 
L 166.410963 -63.744545 
L 163.508136 -63.870129 
L 160.605309 -63.744545 
L 157.702483 -63.744545 
L 154.799656 -63.744545 
L 151.89683 -63.744545 
L 148.994003 -63.769662 
L 146.091176 -63.769662 
L 143.18835 -63.744545 
L 140.285523 -63.870129 
L 137.382697 -63.744545 
L 134.47987 -63.744545 
L 131.577044 -63.744545 
L 128.674217 -63.744545 
L 125.77139 -63.769662 
L 122.868564 -63.744545 
L 119.965737 -63.744545 
L 117.062911 -63.744545 
L 114.160084 -63.744545 
L 111.257257 -63.744545 
L 108.354431 -63.744545 
L 105.451604 -63.744545 
L 102.548778 -63.744545 
L 99.645951 -63.744545 
L 96.743125 -63.744545 
L 93.840298 -123.145781 
L 90.937471 -146.027187 
L 88.034645 -149.041204 
L 85.131818 -137.688409 
z
" style="stroke: #ffffff; stroke-opacity: 0.5"/>
    </defs>
    <g clip-path="url(#pb878b6aa4d)">
     <use xlink:href="#ma20e8a80e2" x="0" y="345.6" style="fill: #55a868; fill-opacity: 0.5; stroke: #ffffff; stroke-opacity: 0.5"/>
    </g>
   </g>
   <g id="PolyCollection_4">
    <defs>
     <path id="m4361b03e50" d="M 85.131818 -156.099025 
L 85.131818 -194.452381 
L 88.034645 -199.576208 
L 90.937471 -208.090804 
L 93.840298 -180.211154 
L 96.743125 -150.598445 
L 99.645951 -72.510309 
L 102.548778 -67.486949 
L 105.451604 -72.409842 
L 108.354431 -109.658059 
L 111.257257 -64.523166 
L 114.160084 -65.377138 
L 117.062911 -74.444303 
L 119.965737 -237.904448 
L 122.868564 -64.724101 
L 125.77139 -76.202479 
L 128.674217 -77.483436 
L 131.577044 -71.40517 
L 134.47987 -86.048265 
L 137.382697 -69.646994 
L 140.285523 -319.835455 
L 143.18835 -74.971756 
L 146.091176 -72.058207 
L 148.994003 -65.552955 
L 151.89683 -67.361365 
L 154.799656 -150.422628 
L 157.702483 -66.53251 
L 160.605309 -67.135314 
L 163.508136 -114.2042 
L 166.410963 -185.360099 
L 169.313789 -104.182596 
L 172.216616 -69.998629 
L 175.119442 -96.019636 
L 178.022269 -111.541819 
L 180.925095 -90.64464 
L 183.827922 -67.612533 
L 186.730749 -96.84849 
L 189.633575 -68.617205 
L 192.536402 -264.000805 
L 195.439228 -101.7965 
L 198.342055 -116.866581 
L 201.244882 -89.288333 
L 204.147708 -69.069307 
L 207.050535 -82.330979 
L 209.953361 -114.756769 
L 212.856188 -73.615448 
L 215.759015 -73.339164 
L 218.661841 -79.266729 
L 221.564668 -151.377066 
L 224.467494 -118.800575 
L 227.370321 -68.566971 
L 230.273147 -174.811042 
L 233.175974 -135.453014 
L 236.078801 -111.818104 
L 238.981627 -83.511468 
L 241.884454 -144.218778 
L 244.78728 -68.566971 
L 247.690107 -75.122457 
L 250.592934 -73.615448 
L 253.49576 -73.715916 
L 256.398587 -158.560471 
L 259.301413 -79.819298 
L 262.20424 -85.77198 
L 265.107066 -127.064002 
L 268.009893 -118.800575 
L 270.91272 -109.783643 
L 273.815546 -113.124177 
L 276.718373 -97.752695 
L 279.621199 -109.482241 
L 282.524026 -71.807039 
L 285.426853 -87.58039 
L 288.329679 -67.110197 
L 291.232506 -97.024308 
L 294.135332 -82.406329 
L 297.038159 -95.693117 
L 299.940985 -83.561702 
L 302.843812 -84.164505 
L 305.746639 -99.98809 
L 308.649465 -109.632942 
L 311.552292 -111.089716 
L 314.455118 -89.840902 
L 317.357945 -78.16159 
L 320.260772 -81.878876 
L 323.163598 -103.353742 
L 326.066425 -84.541257 
L 328.969251 -106.870094 
L 331.872078 -99.485754 
L 334.774905 -77.332735 
L 337.677731 -78.086239 
L 340.580558 -80.196051 
L 343.483384 -101.369514 
L 346.386211 -84.591491 
L 349.289037 -79.040678 
L 352.191864 -76.654581 
L 355.094691 -148.940736 
L 357.997517 -68.89349 
L 360.900344 -77.332735 
L 363.80317 -72.409842 
L 366.705997 -82.305862 
L 369.608824 -79.467663 
L 372.51165 -74.720588 
L 375.414477 -68.491621 
L 378.317303 -74.042434 
L 381.22013 -71.580988 
L 384.122956 -80.698387 
L 387.025783 -78.538342 
L 389.92861 -114.028382 
L 392.831436 -106.970561 
L 395.734263 -97.677344 
L 398.637089 -107.397547 
L 401.539916 -74.795938 
L 404.442743 -79.618364 
L 407.345569 -74.921522 
L 410.248396 -76.9811 
L 413.151222 -70.350264 
L 416.054049 -69.320475 
L 418.956875 -67.612533 
L 421.859702 -70.8526 
L 424.762529 -69.320475 
L 427.665355 -69.697227 
L 430.568182 -68.943723 
L 430.568182 -64.523166 
L 430.568182 -64.523166 
L 427.665355 -64.523166 
L 424.762529 -64.221765 
L 421.859702 -64.347349 
L 418.956875 -64.071064 
L 416.054049 -63.845013 
L 413.151222 -64.799451 
L 410.248396 -64.64875 
L 407.345569 -64.146414 
L 404.442743 -64.422699 
L 401.539916 -64.422699 
L 398.637089 -64.548283 
L 395.734263 -63.870129 
L 392.831436 -68.742789 
L 389.92861 -64.849685 
L 387.025783 -67.63765 
L 384.122956 -66.507394 
L 381.22013 -64.472933 
L 378.317303 -64.322232 
L 375.414477 -64.347349 
L 372.51165 -63.744545 
L 369.608824 -65.578072 
L 366.705997 -63.995713 
L 363.80317 -64.196648 
L 360.900344 -64.5734 
L 357.997517 -63.744545 
L 355.094691 -64.372465 
L 352.191864 -64.673867 
L 349.289037 -63.794779 
L 346.386211 -63.845013 
L 343.483384 -63.845013 
L 340.580558 -64.673867 
L 337.677731 -65.653422 
L 334.774905 -64.071064 
L 331.872078 -65.854357 
L 328.969251 -63.794779 
L 326.066425 -66.507394 
L 323.163598 -63.94548 
L 320.260772 -63.995713 
L 317.357945 -64.121297 
L 314.455118 -64.096181 
L 311.552292 -69.169775 
L 308.649465 -64.899918 
L 305.746639 -68.466504 
L 302.843812 -64.071064 
L 299.940985 -66.306459 
L 297.038159 -64.096181 
L 294.135332 -68.190219 
L 291.232506 -63.94548 
L 288.329679 -63.870129 
L 285.426853 -68.215336 
L 282.524026 -65.75389 
L 279.621199 -64.271998 
L 276.718373 -63.895246 
L 273.815546 -63.819896 
L 270.91272 -63.895246 
L 268.009893 -64.271998 
L 265.107066 -63.794779 
L 262.20424 -67.336248 
L 259.301413 -63.794779 
L 256.398587 -63.769662 
L 253.49576 -63.744545 
L 250.592934 -63.744545 
L 247.690107 -64.347349 
L 244.78728 -64.372465 
L 241.884454 -64.02083 
L 238.981627 -63.845013 
L 236.078801 -63.769662 
L 233.175974 -63.845013 
L 230.273147 -64.096181 
L 227.370321 -63.920363 
L 224.467494 -64.322232 
L 221.564668 -63.744545 
L 218.661841 -69.797695 
L 215.759015 -63.744545 
L 212.856188 -63.744545 
L 209.953361 -63.744545 
L 207.050535 -64.02083 
L 204.147708 -63.744545 
L 201.244882 -63.744545 
L 198.342055 -63.94548 
L 195.439228 -63.744545 
L 192.536402 -64.64875 
L 189.633575 -63.744545 
L 186.730749 -63.769662 
L 183.827922 -64.397582 
L 180.925095 -63.744545 
L 178.022269 -63.744545 
L 175.119442 -63.995713 
L 172.216616 -63.870129 
L 169.313789 -64.523166 
L 166.410963 -63.744545 
L 163.508136 -63.744545 
L 160.605309 -63.744545 
L 157.702483 -63.769662 
L 154.799656 -63.744545 
L 151.89683 -63.744545 
L 148.994003 -63.744545 
L 146.091176 -63.769662 
L 143.18835 -63.794779 
L 140.285523 -63.920363 
L 137.382697 -63.744545 
L 134.47987 -63.794779 
L 131.577044 -63.744545 
L 128.674217 -63.744545 
L 125.77139 -63.744545 
L 122.868564 -63.744545 
L 119.965737 -63.744545 
L 117.062911 -63.744545 
L 114.160084 -63.744545 
L 111.257257 -63.744545 
L 108.354431 -63.744545 
L 105.451604 -63.744545 
L 102.548778 -63.744545 
L 99.645951 -63.744545 
L 96.743125 -101.24393 
L 93.840298 -135.151612 
L 90.937471 -140.476374 
L 88.034645 -151.326833 
L 85.131818 -156.099025 
z
" style="stroke: #ffffff; stroke-opacity: 0.5"/>
    </defs>
    <g clip-path="url(#pb878b6aa4d)">
     <use xlink:href="#m4361b03e50" x="0" y="345.6" style="fill: #c44e52; fill-opacity: 0.5; stroke: #ffffff; stroke-opacity: 0.5"/>
    </g>
   </g>
   <g id="line2d_17">
    <path d="M 85.131818 197.056109 
L 88.034645 187.019435 
L 90.937471 187.95378 
L 93.840298 179.544675 
L 96.743125 281.855455 
L 99.645951 281.855455 
L 102.548778 275.737002 
L 105.451604 277.183729 
L 108.354431 275.40546 
L 111.257257 278.730924 
L 114.160084 276.962702 
L 117.062911 278.816322 
L 119.965737 276.761767 
L 122.868564 278.610364 
L 125.77139 280.725198 
L 128.674217 278.846462 
L 131.577044 281.538983 
L 134.47987 279.901367 
L 137.382697 276.184081 
L 140.285523 279.092606 
L 143.18835 279.399031 
L 146.091176 278.715854 
L 148.994003 278.324032 
L 151.89683 281.408375 
L 154.799656 280.931156 
L 157.702483 278.459663 
L 160.605309 279.253354 
L 163.508136 275.385366 
L 166.410963 280.36854 
L 169.313789 281.805221 
L 172.216616 281.061764 
L 175.119442 280.162582 
L 178.022269 281.704754 
L 180.925095 280.695058 
L 183.827922 280.157559 
L 186.730749 281.242605 
L 189.633575 280.780455 
L 192.536402 280.800549 
L 195.439228 279.007209 
L 198.342055 281.066787 
L 201.244882 281.604287 
L 204.147708 277.831743 
L 207.050535 281.780104 
L 209.953361 277.22894 
L 212.856188 280.569474 
L 215.759015 279.404055 
L 218.661841 278.675667 
L 221.564668 279.429172 
L 224.467494 279.439218 
L 227.370321 281.815268 
L 230.273147 279.539685 
L 233.175974 279.388985 
L 236.078801 280.363517 
L 238.981627 279.866204 
L 241.884454 279.18805 
L 244.78728 279.087583 
L 247.690107 281.328002 
L 250.592934 279.072513 
L 253.49576 279.087583 
L 256.398587 278.811298 
L 259.301413 281.162231 
L 262.20424 279.414101 
L 265.107066 281.634427 
L 268.009893 280.333376 
L 270.91272 280.453937 
L 273.815546 280.45896 
L 276.718373 278.555107 
L 279.621199 280.348446 
L 282.524026 280.589568 
L 285.426853 281.795174 
L 288.329679 281.62438 
L 291.232506 279.75569 
L 294.135332 280.47403 
L 297.038159 280.634778 
L 299.940985 279.489452 
L 302.843812 281.68466 
L 305.746639 280.901016 
L 308.649465 281.739917 
L 311.552292 279.469358 
L 314.455118 279.449265 
L 317.357945 279.348798 
L 320.260772 280.026951 
L 323.163598 278.49985 
L 326.066425 280.659895 
L 328.969251 278.901719 
L 331.872078 281.765034 
L 334.774905 279.876251 
L 337.677731 281.096927 
L 340.580558 280.197746 
L 343.483384 280.730222 
L 346.386211 278.881625 
L 349.289037 280.725198 
L 352.191864 281.614333 
L 355.094691 280.47403 
L 357.997517 281.754987 
L 360.900344 281.468656 
L 363.80317 279.147863 
L 366.705997 281.317955 
L 369.608824 281.157207 
L 372.51165 281.383259 
L 375.414477 280.343423 
L 378.317303 280.785479 
L 381.22013 279.529639 
L 384.122956 280.32333 
L 387.025783 280.93618 
L 389.92861 281.694707 
L 392.831436 279.539685 
L 395.734263 280.946226 
L 398.637089 281.458609 
L 401.539916 281.212464 
L 404.442743 281.393305 
L 407.345569 280.293189 
L 410.248396 280.087232 
L 413.151222 280.448914 
L 416.054049 281.328002 
L 418.956875 281.368189 
L 421.859702 281.322978 
L 424.762529 280.911063 
L 427.665355 281.453586 
L 430.568182 279.836064 
" clip-path="url(#pb878b6aa4d)" style="fill: none; stroke: #4c72b0; stroke-width: 3; stroke-linecap: round"/>
   </g>
   <g id="line2d_18">
    <path d="M 85.131818 171.030079 
L 88.034645 186.733104 
L 90.937471 179.28346 
L 93.840298 179.775749 
L 96.743125 277.942257 
L 99.645951 281.855455 
L 102.548778 281.855455 
L 105.451604 281.302885 
L 108.354431 281.54903 
L 111.257257 279.263401 
L 114.160084 274.531395 
L 117.062911 280.082208 
L 119.965737 281.373212 
L 122.868564 281.453586 
L 125.77139 281.835361 
L 128.674217 281.333025 
L 131.577044 276.239338 
L 134.47987 281.679637 
L 137.382697 281.433492 
L 140.285523 270.909552 
L 143.18835 278.987116 
L 146.091176 279.83104 
L 148.994003 281.282791 
L 151.89683 278.017607 
L 154.799656 281.830338 
L 157.702483 279.519592 
L 160.605309 281.845408 
L 163.508136 281.57917 
L 166.410963 281.338048 
L 169.313789 281.147161 
L 172.216616 280.750315 
L 175.119442 280.941203 
L 178.022269 281.825314 
L 180.925095 281.704754 
L 183.827922 279.062466 
L 186.730749 281.815268 
L 189.633575 280.875899 
L 192.536402 280.931156 
L 195.439228 281.679637 
L 198.342055 280.976366 
L 201.244882 279.826017 
L 204.147708 281.775081 
L 207.050535 280.594591 
L 209.953361 281.312932 
L 212.856188 277.173683 
L 215.759015 281.775081 
L 218.661841 280.659895 
L 221.564668 280.187699 
L 224.467494 279.720526 
L 227.370321 274.82275 
L 230.273147 277.912117 
L 233.175974 279.102653 
L 236.078801 281.066787 
L 238.981627 277.580575 
L 241.884454 278.866555 
L 244.78728 280.212816 
L 247.690107 280.38361 
L 250.592934 275.34518 
L 253.49576 279.414101 
L 256.398587 276.987818 
L 259.301413 279.037349 
L 262.20424 277.866906 
L 265.107066 278.238635 
L 268.009893 279.479405 
L 270.91272 278.464686 
L 273.815546 277.103356 
L 276.718373 277.570528 
L 279.621199 278.836415 
L 282.524026 277.861883 
L 285.426853 276.03338 
L 288.329679 278.369242 
L 291.232506 279.087583 
L 294.135332 279.333728 
L 297.038159 279.062466 
L 299.940985 278.253705 
L 302.843812 278.293892 
L 305.746639 279.278471 
L 308.649465 280.217839 
L 311.552292 279.966671 
L 314.455118 275.425553 
L 317.357945 277.158613 
L 320.260772 278.163285 
L 323.163598 276.952655 
L 326.066425 278.173331 
L 328.969251 277.354524 
L 331.872078 276.500552 
L 334.774905 277.083262 
L 337.677731 277.354524 
L 340.580558 276.987818 
L 343.483384 277.118426 
L 346.386211 276.570879 
L 349.289037 277.449968 
L 352.191864 277.495178 
L 355.094691 276.917491 
L 357.997517 280.152535 
L 360.900344 275.48081 
L 363.80317 278.037701 
L 366.705997 278.725901 
L 369.608824 278.776135 
L 372.51165 278.982092 
L 375.414477 276.962702 
L 378.317303 276.671347 
L 381.22013 278.474733 
L 384.122956 275.832446 
L 387.025783 277.570528 
L 389.92861 274.476138 
L 392.831436 276.314688 
L 395.734263 274.295297 
L 398.637089 272.898803 
L 401.539916 276.575903 
L 404.442743 273.843195 
L 407.345569 277.133496 
L 410.248396 272.652658 
L 413.151222 277.409781 
L 416.054049 275.013638 
L 418.956875 275.807329 
L 421.859702 277.701136 
L 424.762529 280.067138 
L 427.665355 278.178355 
L 430.568182 276.746697 
" clip-path="url(#pb878b6aa4d)" style="fill: none; stroke: #dd8452; stroke-width: 3; stroke-linecap: round"/>
   </g>
   <g id="line2d_19">
    <path d="M 85.131818 182.644088 
L 88.034645 176.14386 
L 90.937471 184.693619 
L 93.840298 195.684732 
L 96.743125 266.227781 
L 99.645951 280.36854 
L 102.548778 280.32333 
L 105.451604 281.855455 
L 108.354431 277.846813 
L 111.257257 268.372755 
L 114.160084 272.602425 
L 117.062911 280.469007 
L 119.965737 271.693197 
L 122.868564 264.153133 
L 125.77139 278.148215 
L 128.674217 280.358493 
L 131.577044 277.696112 
L 134.47987 268.026144 
L 137.382697 281.127067 
L 140.285523 279.589919 
L 143.18835 276.128824 
L 146.091176 276.058497 
L 148.994003 279.268424 
L 151.89683 280.122395 
L 154.799656 281.528936 
L 157.702483 281.709777 
L 160.605309 250.931648 
L 163.508136 274.099386 
L 166.410963 278.685714 
L 169.313789 277.093309 
L 172.216616 281.744941 
L 175.119442 279.891321 
L 178.022269 260.415753 
L 180.925095 278.118074 
L 183.827922 277.811649 
L 186.730749 275.023685 
L 189.633575 278.042724 
L 192.536402 274.82275 
L 195.439228 277.987467 
L 198.342055 267.830233 
L 201.244882 280.142489 
L 204.147708 271.004996 
L 207.050535 277.460014 
L 209.953361 279.258377 
L 212.856188 275.922866 
L 215.759015 278.158261 
L 218.661841 276.450319 
L 221.564668 265.313529 
L 224.467494 272.944013 
L 227.370321 272.321117 
L 230.273147 276.420179 
L 233.175974 275.927889 
L 236.078801 276.555809 
L 238.981627 274.606746 
L 241.884454 278.766088 
L 244.78728 276.405109 
L 247.690107 270.44238 
L 250.592934 277.27415 
L 253.49576 275.907796 
L 256.398587 278.479756 
L 259.301413 271.974505 
L 262.20424 278.921812 
L 265.107066 280.463984 
L 268.009893 277.038052 
L 270.91272 279.268424 
L 273.815546 277.82672 
L 276.718373 276.671347 
L 279.621199 280.112349 
L 282.524026 279.18805 
L 285.426853 275.279876 
L 288.329679 275.144245 
L 291.232506 278.660597 
L 294.135332 276.179057 
L 297.038159 279.358844 
L 299.940985 279.720526 
L 302.843812 274.606746 
L 305.746639 276.58595 
L 308.649465 278.595294 
L 311.552292 278.52999 
L 314.455118 275.209549 
L 317.357945 276.09366 
L 320.260772 277.148566 
L 323.163598 278.344126 
L 326.066425 275.48081 
L 328.969251 278.906742 
L 331.872078 278.193425 
L 334.774905 278.248682 
L 337.677731 280.358493 
L 340.580558 278.163285 
L 343.483384 279.303588 
L 346.386211 279.243307 
L 349.289037 279.183027 
L 352.191864 279.308611 
L 355.094691 279.86118 
L 357.997517 279.946578 
L 360.900344 277.97742 
L 363.80317 279.640153 
L 366.705997 277.99249 
L 369.608824 278.595294 
L 372.51165 278.836415 
L 375.414477 278.565154 
L 378.317303 278.344126 
L 381.22013 278.077888 
L 384.122956 277.073216 
L 387.025783 279.17298 
L 389.92861 279.790853 
L 392.831436 277.691089 
L 395.734263 278.429523 
L 398.637089 278.841438 
L 401.539916 279.966671 
L 404.442743 279.886297 
L 407.345569 279.368891 
L 410.248396 278.288869 
L 413.151222 278.047747 
L 416.054049 277.540388 
L 418.956875 278.956976 
L 421.859702 276.902421 
L 424.762529 280.057092 
L 427.665355 278.153238 
L 430.568182 276.952655 
" clip-path="url(#pb878b6aa4d)" style="fill: none; stroke: #55a868; stroke-width: 3; stroke-linecap: round"/>
   </g>
   <g id="line2d_20">
    <path d="M 85.131818 175.114071 
L 88.034645 173.823068 
L 90.937471 182.252266 
L 93.840298 188.159738 
L 96.743125 217.360531 
L 99.645951 279.986765 
L 102.548778 281.106974 
L 105.451604 279.81597 
L 108.354431 272.120182 
L 111.257257 281.69973 
L 114.160084 281.473679 
L 117.062911 279.092606 
L 119.965737 246.465881 
L 122.868564 281.488749 
L 125.77139 278.861532 
L 128.674217 278.936882 
L 131.577044 280.047045 
L 134.47987 276.395062 
L 137.382697 279.323681 
L 140.285523 211.950372 
L 143.18835 278.675667 
L 146.091176 278.740971 
L 148.994003 281.328002 
L 151.89683 280.463984 
L 154.799656 264.484675 
L 157.702483 281.227535 
L 160.605309 280.99646 
L 163.508136 270.437357 
L 166.410963 254.844846 
L 169.313789 270.115861 
L 172.216616 279.579872 
L 175.119442 271.502309 
L 178.022269 272.110136 
L 180.925095 275.95803 
L 183.827922 280.232909 
L 186.730749 274.466092 
L 189.633575 280.30826 
L 192.536402 235.404442 
L 195.439228 273.908499 
L 198.342055 270.296702 
L 201.244882 275.219596 
L 204.147708 280.147512 
L 207.050535 273.556863 
L 209.953361 265.589814 
L 212.856188 279.18805 
L 215.759015 279.348798 
L 218.661841 272.205579 
L 221.564668 261.485728 
L 224.467494 261.319958 
L 227.370321 280.227886 
L 230.273147 246.22476 
L 233.175974 259.782809 
L 236.078801 268.016097 
L 238.981627 276.455342 
L 241.884454 255.276855 
L 244.78728 279.564802 
L 247.690107 277.570528 
L 250.592934 278.680691 
L 253.49576 278.655574 
L 256.398587 260.039001 
L 259.301413 275.942959 
L 262.20424 269.924974 
L 265.107066 251.649989 
L 268.009893 267.498691 
L 270.91272 268.67918 
L 273.815546 254.121482 
L 276.718373 269.302077 
L 279.621199 264.037595 
L 282.524026 276.72158 
L 285.426853 270.693548 
L 288.329679 279.981741 
L 291.232506 270.41224 
L 294.135332 272.828476 
L 297.038159 264.027549 
L 299.940985 273.893428 
L 302.843812 272.642612 
L 305.746639 264.052666 
L 308.649465 263.459909 
L 311.552292 262.274396 
L 314.455118 274.491208 
L 317.357945 276.209198 
L 320.260772 275.304993 
L 323.163598 269.065979 
L 326.066425 272.858616 
L 328.969251 267.589111 
L 331.872078 266.554299 
L 334.774905 274.73233 
L 337.677731 273.587003 
L 340.580558 275.631511 
L 343.483384 271.447052 
L 346.386211 271.733384 
L 349.289037 273.697517 
L 352.191864 276.716557 
L 355.094691 263.741217 
L 357.997517 279.464335 
L 360.900344 277.21387 
L 363.80317 277.570528 
L 366.705997 277.284197 
L 369.608824 273.350906 
L 372.51165 275.827422 
L 375.414477 279.14284 
L 378.317303 278.409429 
L 381.22013 277.816673 
L 384.122956 273.853242 
L 387.025783 273.481513 
L 389.92861 266.011776 
L 392.831436 266.785374 
L 395.734263 269.935021 
L 398.637089 269.85967 
L 401.539916 277.937233 
L 404.442743 275.978123 
L 407.345569 277.1988 
L 410.248396 277.017959 
L 413.151222 278.931859 
L 416.054049 279.976718 
L 418.956875 280.082208 
L 421.859702 278.891672 
L 424.762529 279.805924 
L 427.665355 278.756041 
L 430.568182 279.23326 
" clip-path="url(#pb878b6aa4d)" style="fill: none; stroke: #c44e52; stroke-width: 3; stroke-linecap: round"/>
   </g>
   <g id="patch_3">
    <path d="M 67.86 294.66 
L 67.86 12.96 
" style="fill: none; stroke: #ffffff; stroke-width: 1.25; stroke-linejoin: miter; stroke-linecap: square"/>
   </g>
   <g id="patch_4">
    <path d="M 447.84 294.66 
L 447.84 12.96 
" style="fill: none; stroke: #ffffff; stroke-width: 1.25; stroke-linejoin: miter; stroke-linecap: square"/>
   </g>
   <g id="patch_5">
    <path d="M 67.86 294.66 
L 447.84 294.66 
" style="fill: none; stroke: #ffffff; stroke-width: 1.25; stroke-linejoin: miter; stroke-linecap: square"/>
   </g>
   <g id="patch_6">
    <path d="M 67.86 12.96 
L 447.84 12.96 
" style="fill: none; stroke: #ffffff; stroke-width: 1.25; stroke-linejoin: miter; stroke-linecap: square"/>
   </g>
   <g id="legend_1">
    <g id="patch_7">
     <path d="M 312.723906 86.34375 
L 440.14 86.34375 
Q 442.34 86.34375 442.34 84.14375 
L 442.34 20.66 
Q 442.34 18.46 440.14 18.46 
L 312.723906 18.46 
Q 310.523906 18.46 310.523906 20.66 
L 310.523906 84.14375 
Q 310.523906 86.34375 312.723906 86.34375 
z
" style="fill: #eaeaf2; opacity: 0.8; stroke: #cccccc; stroke-linejoin: miter"/>
    </g>
    <g id="line2d_21">
     <path d="M 314.923906 27.368281 
L 325.923906 27.368281 
L 336.923906 27.368281 
" style="fill: none; stroke: #4c72b0; stroke-width: 3; stroke-linecap: round"/>
    </g>
    <g id="text_19">
     <!-- SAC-IS-DELAY-1 -->
     <g style="fill: #262626" transform="translate(345.723906 31.218281)scale(0.11 -0.11)">
      <defs>
       <path id="DejaVuSans-53" d="M 3425 4513 
L 3425 3897 
Q 3066 4069 2747 4153 
Q 2428 4238 2131 4238 
Q 1616 4238 1336 4038 
Q 1056 3838 1056 3469 
Q 1056 3159 1242 3001 
Q 1428 2844 1947 2747 
L 2328 2669 
Q 3034 2534 3370 2195 
Q 3706 1856 3706 1288 
Q 3706 609 3251 259 
Q 2797 -91 1919 -91 
Q 1588 -91 1214 -16 
Q 841 59 441 206 
L 441 856 
Q 825 641 1194 531 
Q 1563 422 1919 422 
Q 2459 422 2753 634 
Q 3047 847 3047 1241 
Q 3047 1584 2836 1778 
Q 2625 1972 2144 2069 
L 1759 2144 
Q 1053 2284 737 2584 
Q 422 2884 422 3419 
Q 422 4038 858 4394 
Q 1294 4750 2059 4750 
Q 2388 4750 2728 4690 
Q 3069 4631 3425 4513 
z
" transform="scale(0.015625)"/>
       <path id="DejaVuSans-41" d="M 2188 4044 
L 1331 1722 
L 3047 1722 
L 2188 4044 
z
M 1831 4666 
L 2547 4666 
L 4325 0 
L 3669 0 
L 3244 1197 
L 1141 1197 
L 716 0 
L 50 0 
L 1831 4666 
z
" transform="scale(0.015625)"/>
       <path id="DejaVuSans-43" d="M 4122 4306 
L 4122 3641 
Q 3803 3938 3442 4084 
Q 3081 4231 2675 4231 
Q 1875 4231 1450 3742 
Q 1025 3253 1025 2328 
Q 1025 1406 1450 917 
Q 1875 428 2675 428 
Q 3081 428 3442 575 
Q 3803 722 4122 1019 
L 4122 359 
Q 3791 134 3420 21 
Q 3050 -91 2638 -91 
Q 1578 -91 968 557 
Q 359 1206 359 2328 
Q 359 3453 968 4101 
Q 1578 4750 2638 4750 
Q 3056 4750 3426 4639 
Q 3797 4528 4122 4306 
z
" transform="scale(0.015625)"/>
       <path id="DejaVuSans-2d" d="M 313 2009 
L 1997 2009 
L 1997 1497 
L 313 1497 
L 313 2009 
z
" transform="scale(0.015625)"/>
       <path id="DejaVuSans-49" d="M 628 4666 
L 1259 4666 
L 1259 0 
L 628 0 
L 628 4666 
z
" transform="scale(0.015625)"/>
       <path id="DejaVuSans-44" d="M 1259 4147 
L 1259 519 
L 2022 519 
Q 2988 519 3436 956 
Q 3884 1394 3884 2338 
Q 3884 3275 3436 3711 
Q 2988 4147 2022 4147 
L 1259 4147 
z
M 628 4666 
L 1925 4666 
Q 3281 4666 3915 4102 
Q 4550 3538 4550 2338 
Q 4550 1131 3912 565 
Q 3275 0 1925 0 
L 628 0 
L 628 4666 
z
" transform="scale(0.015625)"/>
       <path id="DejaVuSans-45" d="M 628 4666 
L 3578 4666 
L 3578 4134 
L 1259 4134 
L 1259 2753 
L 3481 2753 
L 3481 2222 
L 1259 2222 
L 1259 531 
L 3634 531 
L 3634 0 
L 628 0 
L 628 4666 
z
" transform="scale(0.015625)"/>
       <path id="DejaVuSans-4c" d="M 628 4666 
L 1259 4666 
L 1259 531 
L 3531 531 
L 3531 0 
L 628 0 
L 628 4666 
z
" transform="scale(0.015625)"/>
       <path id="DejaVuSans-59" d="M -13 4666 
L 666 4666 
L 1959 2747 
L 3244 4666 
L 3922 4666 
L 2272 2222 
L 2272 0 
L 1638 0 
L 1638 2222 
L -13 4666 
z
" transform="scale(0.015625)"/>
      </defs>
      <use xlink:href="#DejaVuSans-53"/>
      <use xlink:href="#DejaVuSans-41" x="65.351562"/>
      <use xlink:href="#DejaVuSans-43" x="132.009766"/>
      <use xlink:href="#DejaVuSans-2d" x="201.833984"/>
      <use xlink:href="#DejaVuSans-49" x="237.917969"/>
      <use xlink:href="#DejaVuSans-53" x="267.410156"/>
      <use xlink:href="#DejaVuSans-2d" x="330.886719"/>
      <use xlink:href="#DejaVuSans-44" x="366.970703"/>
      <use xlink:href="#DejaVuSans-45" x="443.972656"/>
      <use xlink:href="#DejaVuSans-4c" x="507.15625"/>
      <use xlink:href="#DejaVuSans-41" x="565.119141"/>
      <use xlink:href="#DejaVuSans-59" x="625.777344"/>
      <use xlink:href="#DejaVuSans-2d" x="674.986328"/>
      <use xlink:href="#DejaVuSans-31" x="711.070312"/>
     </g>
    </g>
    <g id="line2d_22">
     <path d="M 314.923906 43.514219 
L 325.923906 43.514219 
L 336.923906 43.514219 
" style="fill: none; stroke: #dd8452; stroke-width: 3; stroke-linecap: round"/>
    </g>
    <g id="text_20">
     <!-- SAC-IS-DELAY-5 -->
     <g style="fill: #262626" transform="translate(345.723906 47.364219)scale(0.11 -0.11)">
      <use xlink:href="#DejaVuSans-53"/>
      <use xlink:href="#DejaVuSans-41" x="65.351562"/>
      <use xlink:href="#DejaVuSans-43" x="132.009766"/>
      <use xlink:href="#DejaVuSans-2d" x="201.833984"/>
      <use xlink:href="#DejaVuSans-49" x="237.917969"/>
      <use xlink:href="#DejaVuSans-53" x="267.410156"/>
      <use xlink:href="#DejaVuSans-2d" x="330.886719"/>
      <use xlink:href="#DejaVuSans-44" x="366.970703"/>
      <use xlink:href="#DejaVuSans-45" x="443.972656"/>
      <use xlink:href="#DejaVuSans-4c" x="507.15625"/>
      <use xlink:href="#DejaVuSans-41" x="565.119141"/>
      <use xlink:href="#DejaVuSans-59" x="625.777344"/>
      <use xlink:href="#DejaVuSans-2d" x="674.986328"/>
      <use xlink:href="#DejaVuSans-35" x="711.070312"/>
     </g>
    </g>
    <g id="line2d_23">
     <path d="M 314.923906 59.660156 
L 325.923906 59.660156 
L 336.923906 59.660156 
" style="fill: none; stroke: #55a868; stroke-width: 3; stroke-linecap: round"/>
    </g>
    <g id="text_21">
     <!-- SAC-IS-DELAY-10 -->
     <g style="fill: #262626" transform="translate(345.723906 63.510156)scale(0.11 -0.11)">
      <use xlink:href="#DejaVuSans-53"/>
      <use xlink:href="#DejaVuSans-41" x="65.351562"/>
      <use xlink:href="#DejaVuSans-43" x="132.009766"/>
      <use xlink:href="#DejaVuSans-2d" x="201.833984"/>
      <use xlink:href="#DejaVuSans-49" x="237.917969"/>
      <use xlink:href="#DejaVuSans-53" x="267.410156"/>
      <use xlink:href="#DejaVuSans-2d" x="330.886719"/>
      <use xlink:href="#DejaVuSans-44" x="366.970703"/>
      <use xlink:href="#DejaVuSans-45" x="443.972656"/>
      <use xlink:href="#DejaVuSans-4c" x="507.15625"/>
      <use xlink:href="#DejaVuSans-41" x="565.119141"/>
      <use xlink:href="#DejaVuSans-59" x="625.777344"/>
      <use xlink:href="#DejaVuSans-2d" x="674.986328"/>
      <use xlink:href="#DejaVuSans-31" x="711.070312"/>
      <use xlink:href="#DejaVuSans-30" x="774.693359"/>
     </g>
    </g>
    <g id="line2d_24">
     <path d="M 314.923906 75.806094 
L 325.923906 75.806094 
L 336.923906 75.806094 
" style="fill: none; stroke: #c44e52; stroke-width: 3; stroke-linecap: round"/>
    </g>
    <g id="text_22">
     <!-- SAC-IS-DELAY-20 -->
     <g style="fill: #262626" transform="translate(345.723906 79.656094)scale(0.11 -0.11)">
      <use xlink:href="#DejaVuSans-53"/>
      <use xlink:href="#DejaVuSans-41" x="65.351562"/>
      <use xlink:href="#DejaVuSans-43" x="132.009766"/>
      <use xlink:href="#DejaVuSans-2d" x="201.833984"/>
      <use xlink:href="#DejaVuSans-49" x="237.917969"/>
      <use xlink:href="#DejaVuSans-53" x="267.410156"/>
      <use xlink:href="#DejaVuSans-2d" x="330.886719"/>
      <use xlink:href="#DejaVuSans-44" x="366.970703"/>
      <use xlink:href="#DejaVuSans-45" x="443.972656"/>
      <use xlink:href="#DejaVuSans-4c" x="507.15625"/>
      <use xlink:href="#DejaVuSans-41" x="565.119141"/>
      <use xlink:href="#DejaVuSans-59" x="625.777344"/>
      <use xlink:href="#DejaVuSans-2d" x="674.986328"/>
      <use xlink:href="#DejaVuSans-32" x="711.070312"/>
      <use xlink:href="#DejaVuSans-30" x="774.693359"/>
     </g>
    </g>
   </g>
  </g>
 </g>
 <defs>
  <clipPath id="pb878b6aa4d">
   <rect x="67.86" y="12.96" width="379.98" height="281.7"/>
  </clipPath>
 </defs>
</svg>
