<?xml version="1.0" encoding="utf-8" standalone="no"?>
<!DOCTYPE svg PUBLIC "-//W3C//DTD SVG 1.1//EN"
  "http://www.w3.org/Graphics/SVG/1.1/DTD/svg11.dtd">
<svg xmlns:xlink="http://www.w3.org/1999/xlink" width="460.8pt" height="345.6pt" viewBox="0 0 460.8 345.6" xmlns="http://www.w3.org/2000/svg" version="1.1">
 <metadata>
  <rdf:RDF xmlns:dc="http://purl.org/dc/elements/1.1/" xmlns:cc="http://creativecommons.org/ns#" xmlns:rdf="http://www.w3.org/1999/02/22-rdf-syntax-ns#">
   <cc:Work>
    <dc:type rdf:resource="http://purl.org/dc/dcmitype/StillImage"/>
    <dc:date>2022-09-12T15:17:26.460780</dc:date>
    <dc:format>image/svg+xml</dc:format>
    <dc:creator>
     <cc:Agent>
      <dc:title>Matplotlib v3.5.3, https://matplotlib.org/</dc:title>
     </cc:Agent>
    </dc:creator>
   </cc:Work>
  </rdf:RDF>
 </metadata>
 <defs>
  <style type="text/css">*{stroke-linejoin: round; stroke-linecap: butt}</style>
 </defs>
 <g id="figure_1">
  <g id="patch_1">
   <path d="M 0 345.6 
L 460.8 345.6 
L 460.8 0 
L 0 0 
z
" style="fill: #ffffff"/>
  </g>
  <g id="axes_1">
   <g id="patch_2">
    <path d="M 67.86 294.66 
L 447.84 294.66 
L 447.84 12.96 
L 67.86 12.96 
z
" style="fill: #eaeaf2"/>
   </g>
   <g id="matplotlib.axis_1">
    <g id="xtick_1">
     <g id="line2d_1">
      <path d="M 82.228992 294.66 
L 82.228992 12.96 
" clip-path="url(#pa87d57f5a7)" style="fill: none; stroke: #ffffff; stroke-linecap: round"/>
     </g>
     <g id="text_1">
      <!-- 0.00 -->
      <g style="fill: #262626" transform="translate(69.982898 312.518281)scale(0.11 -0.11)">
       <defs>
        <path id="DejaVuSans-30" d="M 2034 4250 
Q 1547 4250 1301 3770 
Q 1056 3291 1056 2328 
Q 1056 1369 1301 889 
Q 1547 409 2034 409 
Q 2525 409 2770 889 
Q 3016 1369 3016 2328 
Q 3016 3291 2770 3770 
Q 2525 4250 2034 4250 
z
M 2034 4750 
Q 2819 4750 3233 4129 
Q 3647 3509 3647 2328 
Q 3647 1150 3233 529 
Q 2819 -91 2034 -91 
Q 1250 -91 836 529 
Q 422 1150 422 2328 
Q 422 3509 836 4129 
Q 1250 4750 2034 4750 
z
" transform="scale(0.015625)"/>
        <path id="DejaVuSans-2e" d="M 684 794 
L 1344 794 
L 1344 0 
L 684 0 
L 684 794 
z
" transform="scale(0.015625)"/>
       </defs>
       <use xlink:href="#DejaVuSans-30"/>
       <use xlink:href="#DejaVuSans-2e" x="63.623047"/>
       <use xlink:href="#DejaVuSans-30" x="95.410156"/>
       <use xlink:href="#DejaVuSans-30" x="159.033203"/>
      </g>
     </g>
    </g>
    <g id="xtick_2">
     <g id="line2d_2">
      <path d="M 140.285523 294.66 
L 140.285523 12.96 
" clip-path="url(#pa87d57f5a7)" style="fill: none; stroke: #ffffff; stroke-linecap: round"/>
     </g>
     <g id="text_2">
      <!-- 0.05 -->
      <g style="fill: #262626" transform="translate(128.03943 312.518281)scale(0.11 -0.11)">
       <defs>
        <path id="DejaVuSans-35" d="M 691 4666 
L 3169 4666 
L 3169 4134 
L 1269 4134 
L 1269 2991 
Q 1406 3038 1543 3061 
Q 1681 3084 1819 3084 
Q 2600 3084 3056 2656 
Q 3513 2228 3513 1497 
Q 3513 744 3044 326 
Q 2575 -91 1722 -91 
Q 1428 -91 1123 -41 
Q 819 9 494 109 
L 494 744 
Q 775 591 1075 516 
Q 1375 441 1709 441 
Q 2250 441 2565 725 
Q 2881 1009 2881 1497 
Q 2881 1984 2565 2268 
Q 2250 2553 1709 2553 
Q 1456 2553 1204 2497 
Q 953 2441 691 2322 
L 691 4666 
z
" transform="scale(0.015625)"/>
       </defs>
       <use xlink:href="#DejaVuSans-30"/>
       <use xlink:href="#DejaVuSans-2e" x="63.623047"/>
       <use xlink:href="#DejaVuSans-30" x="95.410156"/>
       <use xlink:href="#DejaVuSans-35" x="159.033203"/>
      </g>
     </g>
    </g>
    <g id="xtick_3">
     <g id="line2d_3">
      <path d="M 198.342055 294.66 
L 198.342055 12.96 
" clip-path="url(#pa87d57f5a7)" style="fill: none; stroke: #ffffff; stroke-linecap: round"/>
     </g>
     <g id="text_3">
      <!-- 0.10 -->
      <g style="fill: #262626" transform="translate(186.095961 312.518281)scale(0.11 -0.11)">
       <defs>
        <path id="DejaVuSans-31" d="M 794 531 
L 1825 531 
L 1825 4091 
L 703 3866 
L 703 4441 
L 1819 4666 
L 2450 4666 
L 2450 531 
L 3481 531 
L 3481 0 
L 794 0 
L 794 531 
z
" transform="scale(0.015625)"/>
       </defs>
       <use xlink:href="#DejaVuSans-30"/>
       <use xlink:href="#DejaVuSans-2e" x="63.623047"/>
       <use xlink:href="#DejaVuSans-31" x="95.410156"/>
       <use xlink:href="#DejaVuSans-30" x="159.033203"/>
      </g>
     </g>
    </g>
    <g id="xtick_4">
     <g id="line2d_4">
      <path d="M 256.398587 294.66 
L 256.398587 12.96 
" clip-path="url(#pa87d57f5a7)" style="fill: none; stroke: #ffffff; stroke-linecap: round"/>
     </g>
     <g id="text_4">
      <!-- 0.15 -->
      <g style="fill: #262626" transform="translate(244.152493 312.518281)scale(0.11 -0.11)">
       <use xlink:href="#DejaVuSans-30"/>
       <use xlink:href="#DejaVuSans-2e" x="63.623047"/>
       <use xlink:href="#DejaVuSans-31" x="95.410156"/>
       <use xlink:href="#DejaVuSans-35" x="159.033203"/>
      </g>
     </g>
    </g>
    <g id="xtick_5">
     <g id="line2d_5">
      <path d="M 314.455118 294.66 
L 314.455118 12.96 
" clip-path="url(#pa87d57f5a7)" style="fill: none; stroke: #ffffff; stroke-linecap: round"/>
     </g>
     <g id="text_5">
      <!-- 0.20 -->
      <g style="fill: #262626" transform="translate(302.209025 312.518281)scale(0.11 -0.11)">
       <defs>
        <path id="DejaVuSans-32" d="M 1228 531 
L 3431 531 
L 3431 0 
L 469 0 
L 469 531 
Q 828 903 1448 1529 
Q 2069 2156 2228 2338 
Q 2531 2678 2651 2914 
Q 2772 3150 2772 3378 
Q 2772 3750 2511 3984 
Q 2250 4219 1831 4219 
Q 1534 4219 1204 4116 
Q 875 4013 500 3803 
L 500 4441 
Q 881 4594 1212 4672 
Q 1544 4750 1819 4750 
Q 2544 4750 2975 4387 
Q 3406 4025 3406 3419 
Q 3406 3131 3298 2873 
Q 3191 2616 2906 2266 
Q 2828 2175 2409 1742 
Q 1991 1309 1228 531 
z
" transform="scale(0.015625)"/>
       </defs>
       <use xlink:href="#DejaVuSans-30"/>
       <use xlink:href="#DejaVuSans-2e" x="63.623047"/>
       <use xlink:href="#DejaVuSans-32" x="95.410156"/>
       <use xlink:href="#DejaVuSans-30" x="159.033203"/>
      </g>
     </g>
    </g>
    <g id="xtick_6">
     <g id="line2d_6">
      <path d="M 372.51165 294.66 
L 372.51165 12.96 
" clip-path="url(#pa87d57f5a7)" style="fill: none; stroke: #ffffff; stroke-linecap: round"/>
     </g>
     <g id="text_6">
      <!-- 0.25 -->
      <g style="fill: #262626" transform="translate(360.265556 312.518281)scale(0.11 -0.11)">
       <use xlink:href="#DejaVuSans-30"/>
       <use xlink:href="#DejaVuSans-2e" x="63.623047"/>
       <use xlink:href="#DejaVuSans-32" x="95.410156"/>
       <use xlink:href="#DejaVuSans-35" x="159.033203"/>
      </g>
     </g>
    </g>
    <g id="xtick_7">
     <g id="line2d_7">
      <path d="M 430.568182 294.66 
L 430.568182 12.96 
" clip-path="url(#pa87d57f5a7)" style="fill: none; stroke: #ffffff; stroke-linecap: round"/>
     </g>
     <g id="text_7">
      <!-- 0.30 -->
      <g style="fill: #262626" transform="translate(418.322088 312.518281)scale(0.11 -0.11)">
       <defs>
        <path id="DejaVuSans-33" d="M 2597 2516 
Q 3050 2419 3304 2112 
Q 3559 1806 3559 1356 
Q 3559 666 3084 287 
Q 2609 -91 1734 -91 
Q 1441 -91 1130 -33 
Q 819 25 488 141 
L 488 750 
Q 750 597 1062 519 
Q 1375 441 1716 441 
Q 2309 441 2620 675 
Q 2931 909 2931 1356 
Q 2931 1769 2642 2001 
Q 2353 2234 1838 2234 
L 1294 2234 
L 1294 2753 
L 1863 2753 
Q 2328 2753 2575 2939 
Q 2822 3125 2822 3475 
Q 2822 3834 2567 4026 
Q 2313 4219 1838 4219 
Q 1578 4219 1281 4162 
Q 984 4106 628 3988 
L 628 4550 
Q 988 4650 1302 4700 
Q 1616 4750 1894 4750 
Q 2613 4750 3031 4423 
Q 3450 4097 3450 3541 
Q 3450 3153 3228 2886 
Q 3006 2619 2597 2516 
z
" transform="scale(0.015625)"/>
       </defs>
       <use xlink:href="#DejaVuSans-30"/>
       <use xlink:href="#DejaVuSans-2e" x="63.623047"/>
       <use xlink:href="#DejaVuSans-33" x="95.410156"/>
       <use xlink:href="#DejaVuSans-30" x="159.033203"/>
      </g>
     </g>
    </g>
    <g id="text_8">
     <!-- Zeitschritte (in Millionen) -->
     <g style="fill: #262626" transform="translate(169.935469 329.44375)scale(0.14 -0.14)">
      <defs>
       <path id="DejaVuSans-5a" d="M 359 4666 
L 4025 4666 
L 4025 4184 
L 1075 531 
L 4097 531 
L 4097 0 
L 288 0 
L 288 481 
L 3238 4134 
L 359 4134 
L 359 4666 
z
" transform="scale(0.015625)"/>
       <path id="DejaVuSans-65" d="M 3597 1894 
L 3597 1613 
L 953 1613 
Q 991 1019 1311 708 
Q 1631 397 2203 397 
Q 2534 397 2845 478 
Q 3156 559 3463 722 
L 3463 178 
Q 3153 47 2828 -22 
Q 2503 -91 2169 -91 
Q 1331 -91 842 396 
Q 353 884 353 1716 
Q 353 2575 817 3079 
Q 1281 3584 2069 3584 
Q 2775 3584 3186 3129 
Q 3597 2675 3597 1894 
z
M 3022 2063 
Q 3016 2534 2758 2815 
Q 2500 3097 2075 3097 
Q 1594 3097 1305 2825 
Q 1016 2553 972 2059 
L 3022 2063 
z
" transform="scale(0.015625)"/>
       <path id="DejaVuSans-69" d="M 603 3500 
L 1178 3500 
L 1178 0 
L 603 0 
L 603 3500 
z
M 603 4863 
L 1178 4863 
L 1178 4134 
L 603 4134 
L 603 4863 
z
" transform="scale(0.015625)"/>
       <path id="DejaVuSans-74" d="M 1172 4494 
L 1172 3500 
L 2356 3500 
L 2356 3053 
L 1172 3053 
L 1172 1153 
Q 1172 725 1289 603 
Q 1406 481 1766 481 
L 2356 481 
L 2356 0 
L 1766 0 
Q 1100 0 847 248 
Q 594 497 594 1153 
L 594 3053 
L 172 3053 
L 172 3500 
L 594 3500 
L 594 4494 
L 1172 4494 
z
" transform="scale(0.015625)"/>
       <path id="DejaVuSans-73" d="M 2834 3397 
L 2834 2853 
Q 2591 2978 2328 3040 
Q 2066 3103 1784 3103 
Q 1356 3103 1142 2972 
Q 928 2841 928 2578 
Q 928 2378 1081 2264 
Q 1234 2150 1697 2047 
L 1894 2003 
Q 2506 1872 2764 1633 
Q 3022 1394 3022 966 
Q 3022 478 2636 193 
Q 2250 -91 1575 -91 
Q 1294 -91 989 -36 
Q 684 19 347 128 
L 347 722 
Q 666 556 975 473 
Q 1284 391 1588 391 
Q 1994 391 2212 530 
Q 2431 669 2431 922 
Q 2431 1156 2273 1281 
Q 2116 1406 1581 1522 
L 1381 1569 
Q 847 1681 609 1914 
Q 372 2147 372 2553 
Q 372 3047 722 3315 
Q 1072 3584 1716 3584 
Q 2034 3584 2315 3537 
Q 2597 3491 2834 3397 
z
" transform="scale(0.015625)"/>
       <path id="DejaVuSans-63" d="M 3122 3366 
L 3122 2828 
Q 2878 2963 2633 3030 
Q 2388 3097 2138 3097 
Q 1578 3097 1268 2742 
Q 959 2388 959 1747 
Q 959 1106 1268 751 
Q 1578 397 2138 397 
Q 2388 397 2633 464 
Q 2878 531 3122 666 
L 3122 134 
Q 2881 22 2623 -34 
Q 2366 -91 2075 -91 
Q 1284 -91 818 406 
Q 353 903 353 1747 
Q 353 2603 823 3093 
Q 1294 3584 2113 3584 
Q 2378 3584 2631 3529 
Q 2884 3475 3122 3366 
z
" transform="scale(0.015625)"/>
       <path id="DejaVuSans-68" d="M 3513 2113 
L 3513 0 
L 2938 0 
L 2938 2094 
Q 2938 2591 2744 2837 
Q 2550 3084 2163 3084 
Q 1697 3084 1428 2787 
Q 1159 2491 1159 1978 
L 1159 0 
L 581 0 
L 581 4863 
L 1159 4863 
L 1159 2956 
Q 1366 3272 1645 3428 
Q 1925 3584 2291 3584 
Q 2894 3584 3203 3211 
Q 3513 2838 3513 2113 
z
" transform="scale(0.015625)"/>
       <path id="DejaVuSans-72" d="M 2631 2963 
Q 2534 3019 2420 3045 
Q 2306 3072 2169 3072 
Q 1681 3072 1420 2755 
Q 1159 2438 1159 1844 
L 1159 0 
L 581 0 
L 581 3500 
L 1159 3500 
L 1159 2956 
Q 1341 3275 1631 3429 
Q 1922 3584 2338 3584 
Q 2397 3584 2469 3576 
Q 2541 3569 2628 3553 
L 2631 2963 
z
" transform="scale(0.015625)"/>
       <path id="DejaVuSans-20" transform="scale(0.015625)"/>
       <path id="DejaVuSans-28" d="M 1984 4856 
Q 1566 4138 1362 3434 
Q 1159 2731 1159 2009 
Q 1159 1288 1364 580 
Q 1569 -128 1984 -844 
L 1484 -844 
Q 1016 -109 783 600 
Q 550 1309 550 2009 
Q 550 2706 781 3412 
Q 1013 4119 1484 4856 
L 1984 4856 
z
" transform="scale(0.015625)"/>
       <path id="DejaVuSans-6e" d="M 3513 2113 
L 3513 0 
L 2938 0 
L 2938 2094 
Q 2938 2591 2744 2837 
Q 2550 3084 2163 3084 
Q 1697 3084 1428 2787 
Q 1159 2491 1159 1978 
L 1159 0 
L 581 0 
L 581 3500 
L 1159 3500 
L 1159 2956 
Q 1366 3272 1645 3428 
Q 1925 3584 2291 3584 
Q 2894 3584 3203 3211 
Q 3513 2838 3513 2113 
z
" transform="scale(0.015625)"/>
       <path id="DejaVuSans-4d" d="M 628 4666 
L 1569 4666 
L 2759 1491 
L 3956 4666 
L 4897 4666 
L 4897 0 
L 4281 0 
L 4281 4097 
L 3078 897 
L 2444 897 
L 1241 4097 
L 1241 0 
L 628 0 
L 628 4666 
z
" transform="scale(0.015625)"/>
       <path id="DejaVuSans-6c" d="M 603 4863 
L 1178 4863 
L 1178 0 
L 603 0 
L 603 4863 
z
" transform="scale(0.015625)"/>
       <path id="DejaVuSans-6f" d="M 1959 3097 
Q 1497 3097 1228 2736 
Q 959 2375 959 1747 
Q 959 1119 1226 758 
Q 1494 397 1959 397 
Q 2419 397 2687 759 
Q 2956 1122 2956 1747 
Q 2956 2369 2687 2733 
Q 2419 3097 1959 3097 
z
M 1959 3584 
Q 2709 3584 3137 3096 
Q 3566 2609 3566 1747 
Q 3566 888 3137 398 
Q 2709 -91 1959 -91 
Q 1206 -91 779 398 
Q 353 888 353 1747 
Q 353 2609 779 3096 
Q 1206 3584 1959 3584 
z
" transform="scale(0.015625)"/>
       <path id="DejaVuSans-29" d="M 513 4856 
L 1013 4856 
Q 1481 4119 1714 3412 
Q 1947 2706 1947 2009 
Q 1947 1309 1714 600 
Q 1481 -109 1013 -844 
L 513 -844 
Q 928 -128 1133 580 
Q 1338 1288 1338 2009 
Q 1338 2731 1133 3434 
Q 928 4138 513 4856 
z
" transform="scale(0.015625)"/>
      </defs>
      <use xlink:href="#DejaVuSans-5a"/>
      <use xlink:href="#DejaVuSans-65" x="68.505859"/>
      <use xlink:href="#DejaVuSans-69" x="130.029297"/>
      <use xlink:href="#DejaVuSans-74" x="157.8125"/>
      <use xlink:href="#DejaVuSans-73" x="197.021484"/>
      <use xlink:href="#DejaVuSans-63" x="249.121094"/>
      <use xlink:href="#DejaVuSans-68" x="304.101562"/>
      <use xlink:href="#DejaVuSans-72" x="367.480469"/>
      <use xlink:href="#DejaVuSans-69" x="408.59375"/>
      <use xlink:href="#DejaVuSans-74" x="436.376953"/>
      <use xlink:href="#DejaVuSans-74" x="475.585938"/>
      <use xlink:href="#DejaVuSans-65" x="514.794922"/>
      <use xlink:href="#DejaVuSans-20" x="576.318359"/>
      <use xlink:href="#DejaVuSans-28" x="608.105469"/>
      <use xlink:href="#DejaVuSans-69" x="647.119141"/>
      <use xlink:href="#DejaVuSans-6e" x="674.902344"/>
      <use xlink:href="#DejaVuSans-20" x="738.28125"/>
      <use xlink:href="#DejaVuSans-4d" x="770.068359"/>
      <use xlink:href="#DejaVuSans-69" x="856.347656"/>
      <use xlink:href="#DejaVuSans-6c" x="884.130859"/>
      <use xlink:href="#DejaVuSans-6c" x="911.914062"/>
      <use xlink:href="#DejaVuSans-69" x="939.697266"/>
      <use xlink:href="#DejaVuSans-6f" x="967.480469"/>
      <use xlink:href="#DejaVuSans-6e" x="1028.662109"/>
      <use xlink:href="#DejaVuSans-65" x="1092.041016"/>
      <use xlink:href="#DejaVuSans-6e" x="1153.564453"/>
      <use xlink:href="#DejaVuSans-29" x="1216.943359"/>
     </g>
    </g>
   </g>
   <g id="matplotlib.axis_2">
    <g id="ytick_1">
     <g id="line2d_8">
      <path d="M 67.86 281.855455 
L 447.84 281.855455 
" clip-path="url(#pa87d57f5a7)" style="fill: none; stroke: #ffffff; stroke-linecap: round"/>
     </g>
     <g id="text_9">
      <!-- 0 -->
      <g style="fill: #262626" transform="translate(51.36125 286.034595)scale(0.11 -0.11)">
       <use xlink:href="#DejaVuSans-30"/>
      </g>
     </g>
    </g>
    <g id="ytick_2">
     <g id="line2d_9">
      <path d="M 67.86 245.052323 
L 447.84 245.052323 
" clip-path="url(#pa87d57f5a7)" style="fill: none; stroke: #ffffff; stroke-linecap: round"/>
     </g>
     <g id="text_10">
      <!-- 250 -->
      <g style="fill: #262626" transform="translate(37.36375 249.231464)scale(0.11 -0.11)">
       <use xlink:href="#DejaVuSans-32"/>
       <use xlink:href="#DejaVuSans-35" x="63.623047"/>
       <use xlink:href="#DejaVuSans-30" x="127.246094"/>
      </g>
     </g>
    </g>
    <g id="ytick_3">
     <g id="line2d_10">
      <path d="M 67.86 208.249192 
L 447.84 208.249192 
" clip-path="url(#pa87d57f5a7)" style="fill: none; stroke: #ffffff; stroke-linecap: round"/>
     </g>
     <g id="text_11">
      <!-- 500 -->
      <g style="fill: #262626" transform="translate(37.36375 212.428332)scale(0.11 -0.11)">
       <use xlink:href="#DejaVuSans-35"/>
       <use xlink:href="#DejaVuSans-30" x="63.623047"/>
       <use xlink:href="#DejaVuSans-30" x="127.246094"/>
      </g>
     </g>
    </g>
    <g id="ytick_4">
     <g id="line2d_11">
      <path d="M 67.86 171.446061 
L 447.84 171.446061 
" clip-path="url(#pa87d57f5a7)" style="fill: none; stroke: #ffffff; stroke-linecap: round"/>
     </g>
     <g id="text_12">
      <!-- 750 -->
      <g style="fill: #262626" transform="translate(37.36375 175.625201)scale(0.11 -0.11)">
       <defs>
        <path id="DejaVuSans-37" d="M 525 4666 
L 3525 4666 
L 3525 4397 
L 1831 0 
L 1172 0 
L 2766 4134 
L 525 4134 
L 525 4666 
z
" transform="scale(0.015625)"/>
       </defs>
       <use xlink:href="#DejaVuSans-37"/>
       <use xlink:href="#DejaVuSans-35" x="63.623047"/>
       <use xlink:href="#DejaVuSans-30" x="127.246094"/>
      </g>
     </g>
    </g>
    <g id="ytick_5">
     <g id="line2d_12">
      <path d="M 67.86 134.642929 
L 447.84 134.642929 
" clip-path="url(#pa87d57f5a7)" style="fill: none; stroke: #ffffff; stroke-linecap: round"/>
     </g>
     <g id="text_13">
      <!-- 1000 -->
      <g style="fill: #262626" transform="translate(30.365 138.82207)scale(0.11 -0.11)">
       <use xlink:href="#DejaVuSans-31"/>
       <use xlink:href="#DejaVuSans-30" x="63.623047"/>
       <use xlink:href="#DejaVuSans-30" x="127.246094"/>
       <use xlink:href="#DejaVuSans-30" x="190.869141"/>
      </g>
     </g>
    </g>
    <g id="ytick_6">
     <g id="line2d_13">
      <path d="M 67.86 97.839798 
L 447.84 97.839798 
" clip-path="url(#pa87d57f5a7)" style="fill: none; stroke: #ffffff; stroke-linecap: round"/>
     </g>
     <g id="text_14">
      <!-- 1250 -->
      <g style="fill: #262626" transform="translate(30.365 102.018938)scale(0.11 -0.11)">
       <use xlink:href="#DejaVuSans-31"/>
       <use xlink:href="#DejaVuSans-32" x="63.623047"/>
       <use xlink:href="#DejaVuSans-35" x="127.246094"/>
       <use xlink:href="#DejaVuSans-30" x="190.869141"/>
      </g>
     </g>
    </g>
    <g id="ytick_7">
     <g id="line2d_14">
      <path d="M 67.86 61.036667 
L 447.84 61.036667 
" clip-path="url(#pa87d57f5a7)" style="fill: none; stroke: #ffffff; stroke-linecap: round"/>
     </g>
     <g id="text_15">
      <!-- 1500 -->
      <g style="fill: #262626" transform="translate(30.365 65.215807)scale(0.11 -0.11)">
       <use xlink:href="#DejaVuSans-31"/>
       <use xlink:href="#DejaVuSans-35" x="63.623047"/>
       <use xlink:href="#DejaVuSans-30" x="127.246094"/>
       <use xlink:href="#DejaVuSans-30" x="190.869141"/>
      </g>
     </g>
    </g>
    <g id="ytick_8">
     <g id="line2d_15">
      <path d="M 67.86 24.233535 
L 447.84 24.233535 
" clip-path="url(#pa87d57f5a7)" style="fill: none; stroke: #ffffff; stroke-linecap: round"/>
     </g>
     <g id="text_16">
      <!-- 1750 -->
      <g style="fill: #262626" transform="translate(30.365 28.412676)scale(0.11 -0.11)">
       <use xlink:href="#DejaVuSans-31"/>
       <use xlink:href="#DejaVuSans-37" x="63.623047"/>
       <use xlink:href="#DejaVuSans-35" x="127.246094"/>
       <use xlink:href="#DejaVuSans-30" x="190.869141"/>
      </g>
     </g>
    </g>
    <g id="text_17">
     <!-- # Δx &lt; 0 -->
     <g style="fill: #262626" transform="translate(23.453438 185.600938)rotate(-90)scale(0.14 -0.14)">
      <defs>
       <path id="DejaVuSans-23" d="M 3272 2816 
L 2363 2816 
L 2100 1772 
L 3016 1772 
L 3272 2816 
z
M 2803 4594 
L 2478 3297 
L 3391 3297 
L 3719 4594 
L 4219 4594 
L 3897 3297 
L 4872 3297 
L 4872 2816 
L 3775 2816 
L 3519 1772 
L 4513 1772 
L 4513 1294 
L 3397 1294 
L 3072 0 
L 2572 0 
L 2894 1294 
L 1978 1294 
L 1656 0 
L 1153 0 
L 1478 1294 
L 494 1294 
L 494 1772 
L 1594 1772 
L 1856 2816 
L 850 2816 
L 850 3297 
L 1978 3297 
L 2297 4594 
L 2803 4594 
z
" transform="scale(0.015625)"/>
       <path id="DejaVuSans-394" d="M 2188 4044 
L 906 525 
L 3472 525 
L 2188 4044 
z
M 50 0 
L 1831 4666 
L 2547 4666 
L 4325 0 
L 50 0 
z
" transform="scale(0.015625)"/>
       <path id="DejaVuSans-78" d="M 3513 3500 
L 2247 1797 
L 3578 0 
L 2900 0 
L 1881 1375 
L 863 0 
L 184 0 
L 1544 1831 
L 300 3500 
L 978 3500 
L 1906 2253 
L 2834 3500 
L 3513 3500 
z
" transform="scale(0.015625)"/>
       <path id="DejaVuSans-3c" d="M 4684 3150 
L 1459 2003 
L 4684 863 
L 4684 294 
L 678 1747 
L 678 2266 
L 4684 3719 
L 4684 3150 
z
" transform="scale(0.015625)"/>
      </defs>
      <use xlink:href="#DejaVuSans-23"/>
      <use xlink:href="#DejaVuSans-20" x="83.789062"/>
      <use xlink:href="#DejaVuSans-394" x="115.576172"/>
      <use xlink:href="#DejaVuSans-78" x="183.984375"/>
      <use xlink:href="#DejaVuSans-20" x="243.164062"/>
      <use xlink:href="#DejaVuSans-3c" x="274.951172"/>
      <use xlink:href="#DejaVuSans-20" x="358.740234"/>
      <use xlink:href="#DejaVuSans-30" x="390.527344"/>
     </g>
    </g>
   </g>
   <g id="PolyCollection_1">
    <defs>
     <path id="md376e9cbf4" d="M 85.131818 -149.275023 
L 85.131818 -181.867876 
L 88.034645 -198.473449 
L 90.937471 -213.135816 
L 93.840298 -195.058118 
L 96.743125 -72.017889 
L 99.645951 -80.850641 
L 102.548778 -83.117714 
L 105.451604 -96.337399 
L 108.354431 -90.183915 
L 111.257257 -70.339667 
L 114.160084 -66.688796 
L 117.062911 -69.956914 
L 119.965737 -85.296459 
L 122.868564 -68.396461 
L 125.77139 -72.223987 
L 128.674217 -64.186183 
L 131.577044 -72.989492 
L 134.47987 -64.038971 
L 137.382697 -64.215626 
L 140.285523 -72.194544 
L 143.18835 -64.245068 
L 146.091176 -75.78653 
L 148.994003 -66.306043 
L 151.89683 -64.038971 
L 154.799656 -64.068413 
L 157.702483 -64.038971 
L 160.605309 -64.068413 
L 163.508136 -64.009528 
L 166.410963 -64.068413 
L 169.313789 -63.980085 
L 172.216616 -64.097856 
L 175.119442 -64.097856 
L 178.022269 -64.068413 
L 180.925095 -64.097856 
L 183.827922 -64.068413 
L 186.730749 -64.068413 
L 189.633575 -64.068413 
L 192.536402 -64.215626 
L 195.439228 -64.068413 
L 198.342055 -64.009528 
L 201.244882 -64.186183 
L 204.147708 -64.127298 
L 207.050535 -64.068413 
L 209.953361 -64.156741 
L 212.856188 -64.097856 
L 215.759015 -64.127298 
L 218.661841 -64.186183 
L 221.564668 -64.038971 
L 224.467494 -64.127298 
L 227.370321 -64.127298 
L 230.273147 -64.068413 
L 233.175974 -64.068413 
L 236.078801 -64.127298 
L 238.981627 -64.097856 
L 241.884454 -64.127298 
L 244.78728 -64.127298 
L 247.690107 -64.127298 
L 250.592934 -64.097856 
L 253.49576 -64.156741 
L 256.398587 -64.097856 
L 259.301413 -64.097856 
L 262.20424 -64.068413 
L 265.107066 -64.097856 
L 268.009893 -64.097856 
L 270.91272 -64.127298 
L 273.815546 -64.156741 
L 276.718373 -64.097856 
L 279.621199 -64.156741 
L 282.524026 -64.097856 
L 285.426853 -64.127298 
L 288.329679 -64.127298 
L 291.232506 -64.156741 
L 294.135332 -64.097856 
L 297.038159 -64.156741 
L 299.940985 -64.245068 
L 302.843812 -64.068413 
L 305.746639 -64.097856 
L 308.649465 -64.097856 
L 311.552292 -64.127298 
L 314.455118 -64.156741 
L 317.357945 -64.156741 
L 320.260772 -64.156741 
L 323.163598 -64.156741 
L 326.066425 -64.127298 
L 328.969251 -64.186183 
L 331.872078 -64.127298 
L 334.774905 -64.245068 
L 337.677731 -64.127298 
L 340.580558 -64.038971 
L 343.483384 -64.097856 
L 346.386211 -64.245068 
L 349.289037 -64.186183 
L 352.191864 -64.156741 
L 355.094691 -64.097856 
L 357.997517 -64.274511 
L 360.900344 -64.127298 
L 363.80317 -64.127298 
L 366.705997 -64.097856 
L 369.608824 -64.097856 
L 372.51165 -64.186183 
L 375.414477 -64.156741 
L 378.317303 -64.186183 
L 381.22013 -64.097856 
L 384.122956 -64.009528 
L 387.025783 -64.215626 
L 389.92861 -64.186183 
L 392.831436 -64.127298 
L 395.734263 -64.156741 
L 398.637089 -64.215626 
L 401.539916 -64.215626 
L 404.442743 -64.186183 
L 407.345569 -64.156741 
L 410.248396 -64.097856 
L 413.151222 -64.127298 
L 416.054049 -64.215626 
L 418.956875 -64.156741 
L 421.859702 -64.097856 
L 424.762529 -64.156741 
L 427.665355 -64.068413 
L 430.568182 -64.127298 
L 430.568182 -63.950643 
L 430.568182 -63.950643 
L 427.665355 -63.950643 
L 424.762529 -64.009528 
L 421.859702 -64.009528 
L 418.956875 -63.980085 
L 416.054049 -63.980085 
L 413.151222 -64.009528 
L 410.248396 -64.009528 
L 407.345569 -63.980085 
L 404.442743 -64.009528 
L 401.539916 -64.068413 
L 398.637089 -64.009528 
L 395.734263 -64.068413 
L 392.831436 -63.980085 
L 389.92861 -64.009528 
L 387.025783 -64.068413 
L 384.122956 -63.980085 
L 381.22013 -63.9212 
L 378.317303 -63.950643 
L 375.414477 -64.009528 
L 372.51165 -63.980085 
L 369.608824 -64.038971 
L 366.705997 -63.950643 
L 363.80317 -64.009528 
L 360.900344 -64.009528 
L 357.997517 -63.950643 
L 355.094691 -63.980085 
L 352.191864 -64.009528 
L 349.289037 -63.980085 
L 346.386211 -64.038971 
L 343.483384 -63.9212 
L 340.580558 -63.9212 
L 337.677731 -63.980085 
L 334.774905 -63.980085 
L 331.872078 -64.009528 
L 328.969251 -63.980085 
L 326.066425 -63.950643 
L 323.163598 -64.009528 
L 320.260772 -64.097856 
L 317.357945 -64.009528 
L 314.455118 -64.038971 
L 311.552292 -63.950643 
L 308.649465 -64.009528 
L 305.746639 -63.980085 
L 302.843812 -64.009528 
L 299.940985 -64.038971 
L 297.038159 -64.068413 
L 294.135332 -63.950643 
L 291.232506 -63.950643 
L 288.329679 -64.038971 
L 285.426853 -64.009528 
L 282.524026 -63.950643 
L 279.621199 -63.980085 
L 276.718373 -64.009528 
L 273.815546 -64.038971 
L 270.91272 -63.950643 
L 268.009893 -63.980085 
L 265.107066 -63.950643 
L 262.20424 -63.9212 
L 259.301413 -64.038971 
L 256.398587 -63.950643 
L 253.49576 -63.9212 
L 250.592934 -63.950643 
L 247.690107 -64.009528 
L 244.78728 -63.950643 
L 241.884454 -63.950643 
L 238.981627 -64.038971 
L 236.078801 -63.9212 
L 233.175974 -64.009528 
L 230.273147 -63.950643 
L 227.370321 -63.950643 
L 224.467494 -63.891758 
L 221.564668 -63.980085 
L 218.661841 -63.9212 
L 215.759015 -63.980085 
L 212.856188 -63.891758 
L 209.953361 -63.950643 
L 207.050535 -63.980085 
L 204.147708 -63.950643 
L 201.244882 -63.9212 
L 198.342055 -63.9212 
L 195.439228 -63.950643 
L 192.536402 -63.950643 
L 189.633575 -63.9212 
L 186.730749 -63.891758 
L 183.827922 -63.862315 
L 180.925095 -63.9212 
L 178.022269 -63.950643 
L 175.119442 -63.950643 
L 172.216616 -63.950643 
L 169.313789 -63.980085 
L 166.410963 -63.9212 
L 163.508136 -63.9212 
L 160.605309 -63.9212 
L 157.702483 -63.980085 
L 154.799656 -63.950643 
L 151.89683 -63.832873 
L 148.994003 -63.891758 
L 146.091176 -63.9212 
L 143.18835 -63.862315 
L 140.285523 -63.862315 
L 137.382697 -63.80343 
L 134.47987 -63.832873 
L 131.577044 -64.009528 
L 128.674217 -63.891758 
L 125.77139 -63.744545 
L 122.868564 -63.862315 
L 119.965737 -63.832873 
L 117.062911 -63.773988 
L 114.160084 -63.744545 
L 111.257257 -63.832873 
L 108.354431 -63.80343 
L 105.451604 -63.744545 
L 102.548778 -63.773988 
L 99.645951 -63.744545 
L 96.743125 -63.744545 
L 93.840298 -136.231993 
L 90.937471 -153.691398 
L 88.034645 -127.281471 
L 85.131818 -149.275023 
z
" style="stroke: #ffffff; stroke-opacity: 0.5"/>
    </defs>
    <g clip-path="url(#pa87d57f5a7)">
     <use xlink:href="#md376e9cbf4" x="0" y="345.6" style="fill: #4c72b0; fill-opacity: 0.5; stroke: #ffffff; stroke-opacity: 0.5"/>
    </g>
   </g>
   <g id="PolyCollection_2">
    <defs>
     <path id="m596d19fe0c" d="M 85.131818 -159.638784 
L 85.131818 -208.95498 
L 88.034645 -198.826759 
L 90.937471 -202.448187 
L 93.840298 -195.617526 
L 96.743125 -63.773988 
L 99.645951 -63.744545 
L 102.548778 -65.128343 
L 105.451604 -73.460572 
L 108.354431 -89.094542 
L 111.257257 -74.01998 
L 114.160084 -78.936878 
L 117.062911 -71.900119 
L 119.965737 -81.233393 
L 122.868564 -68.632001 
L 125.77139 -64.392281 
L 128.674217 -68.661444 
L 131.577044 -78.554126 
L 134.47987 -74.13775 
L 137.382697 -71.605694 
L 140.285523 -73.31336 
L 143.18835 -78.524683 
L 146.091176 -77.111443 
L 148.994003 -72.253429 
L 151.89683 -85.443672 
L 154.799656 -84.442627 
L 157.702483 -81.174508 
L 160.605309 -68.661444 
L 163.508136 -74.432175 
L 166.410963 -76.875903 
L 169.313789 -77.31754 
L 172.216616 -67.748726 
L 175.119442 -63.80343 
L 178.022269 -71.016844 
L 180.925095 -65.834963 
L 183.827922 -77.729735 
L 186.730749 -66.423813 
L 189.633575 -68.455346 
L 192.536402 -66.571026 
L 195.439228 -63.862315 
L 198.342055 -67.630956 
L 201.244882 -74.37329 
L 204.147708 -73.254475 
L 207.050535 -68.072594 
L 209.953361 -63.862315 
L 212.856188 -65.687751 
L 215.759015 -82.116669 
L 218.661841 -66.423813 
L 221.564668 -71.988447 
L 224.467494 -70.663534 
L 227.370321 -63.832873 
L 230.273147 -64.480608 
L 233.175974 -63.862315 
L 236.078801 -68.396461 
L 238.981627 -66.541583 
L 241.884454 -65.275556 
L 244.78728 -63.891758 
L 247.690107 -69.279736 
L 250.592934 -63.9212 
L 253.49576 -63.862315 
L 256.398587 -72.253429 
L 259.301413 -89.447852 
L 262.20424 -68.131479 
L 265.107066 -63.832873 
L 268.009893 -66.718238 
L 270.91272 -72.72451 
L 273.815546 -65.599423 
L 276.718373 -72.106217 
L 279.621199 -70.015799 
L 282.524026 -72.076774 
L 285.426853 -72.783395 
L 288.329679 -77.611965 
L 291.232506 -66.541583 
L 294.135332 -65.834963 
L 297.038159 -63.950643 
L 299.940985 -63.9212 
L 302.843812 -63.862315 
L 305.746639 -63.891758 
L 308.649465 -66.541583 
L 311.552292 -66.806566 
L 314.455118 -67.601514 
L 317.357945 -63.891758 
L 320.260772 -63.9212 
L 323.163598 -63.9212 
L 326.066425 -63.832873 
L 328.969251 -64.775033 
L 331.872078 -64.510051 
L 334.774905 -63.980085 
L 337.677731 -63.80343 
L 340.580558 -73.19559 
L 343.483384 -67.365974 
L 346.386211 -82.558306 
L 349.289037 -64.451166 
L 352.191864 -63.862315 
L 355.094691 -66.423813 
L 357.997517 -63.891758 
L 360.900344 -72.076774 
L 363.80317 -65.864406 
L 366.705997 -66.571026 
L 369.608824 -63.9212 
L 372.51165 -63.862315 
L 375.414477 -63.862315 
L 378.317303 -65.805521 
L 381.22013 -63.832873 
L 384.122956 -64.922246 
L 387.025783 -66.983221 
L 389.92861 -63.832873 
L 392.831436 -63.832873 
L 395.734263 -67.807611 
L 398.637089 -63.9212 
L 401.539916 -65.098901 
L 404.442743 -63.862315 
L 407.345569 -63.891758 
L 410.248396 -65.069458 
L 413.151222 -63.80343 
L 416.054049 -64.775033 
L 418.956875 -63.9212 
L 421.859702 -63.862315 
L 424.762529 -64.009528 
L 427.665355 -68.367019 
L 430.568182 -63.862315 
L 430.568182 -63.744545 
L 430.568182 -63.744545 
L 427.665355 -63.773988 
L 424.762529 -63.744545 
L 421.859702 -63.773988 
L 418.956875 -63.773988 
L 416.054049 -63.773988 
L 413.151222 -63.744545 
L 410.248396 -63.773988 
L 407.345569 -63.773988 
L 404.442743 -63.744545 
L 401.539916 -63.744545 
L 398.637089 -63.744545 
L 395.734263 -63.773988 
L 392.831436 -63.744545 
L 389.92861 -63.773988 
L 387.025783 -63.832873 
L 384.122956 -63.773988 
L 381.22013 -63.744545 
L 378.317303 -63.744545 
L 375.414477 -63.744545 
L 372.51165 -63.773988 
L 369.608824 -63.773988 
L 366.705997 -63.744545 
L 363.80317 -63.744545 
L 360.900344 -63.773988 
L 357.997517 -63.744545 
L 355.094691 -63.773988 
L 352.191864 -63.744545 
L 349.289037 -63.80343 
L 346.386211 -63.744545 
L 343.483384 -63.744545 
L 340.580558 -63.744545 
L 337.677731 -63.744545 
L 334.774905 -63.80343 
L 331.872078 -63.744545 
L 328.969251 -63.744545 
L 326.066425 -63.744545 
L 323.163598 -63.744545 
L 320.260772 -63.744545 
L 317.357945 -63.773988 
L 314.455118 -63.80343 
L 311.552292 -63.832873 
L 308.649465 -63.80343 
L 305.746639 -63.773988 
L 302.843812 -63.773988 
L 299.940985 -63.773988 
L 297.038159 -63.773988 
L 294.135332 -63.744545 
L 291.232506 -63.80343 
L 288.329679 -63.744545 
L 285.426853 -63.744545 
L 282.524026 -63.773988 
L 279.621199 -63.773988 
L 276.718373 -63.744545 
L 273.815546 -63.744545 
L 270.91272 -63.773988 
L 268.009893 -63.773988 
L 265.107066 -63.744545 
L 262.20424 -63.773988 
L 259.301413 -63.832873 
L 256.398587 -63.744545 
L 253.49576 -63.744545 
L 250.592934 -63.773988 
L 247.690107 -63.744545 
L 244.78728 -63.773988 
L 241.884454 -63.773988 
L 238.981627 -63.80343 
L 236.078801 -63.832873 
L 233.175974 -63.744545 
L 230.273147 -63.744545 
L 227.370321 -63.773988 
L 224.467494 -63.773988 
L 221.564668 -63.744545 
L 218.661841 -63.744545 
L 215.759015 -63.773988 
L 212.856188 -63.744545 
L 209.953361 -63.744545 
L 207.050535 -63.744545 
L 204.147708 -63.744545 
L 201.244882 -63.744545 
L 198.342055 -63.744545 
L 195.439228 -63.744545 
L 192.536402 -63.744545 
L 189.633575 -63.744545 
L 186.730749 -63.744545 
L 183.827922 -63.744545 
L 180.925095 -63.744545 
L 178.022269 -63.744545 
L 175.119442 -63.744545 
L 172.216616 -63.744545 
L 169.313789 -63.744545 
L 166.410963 -63.744545 
L 163.508136 -63.744545 
L 160.605309 -63.744545 
L 157.702483 -63.744545 
L 154.799656 -63.744545 
L 151.89683 -63.744545 
L 148.994003 -63.744545 
L 146.091176 -63.744545 
L 143.18835 -63.744545 
L 140.285523 -63.744545 
L 137.382697 -63.744545 
L 134.47987 -63.744545 
L 131.577044 -63.744545 
L 128.674217 -63.744545 
L 125.77139 -63.744545 
L 122.868564 -63.744545 
L 119.965737 -63.744545 
L 117.062911 -63.744545 
L 114.160084 -63.744545 
L 111.257257 -63.744545 
L 108.354431 -63.744545 
L 105.451604 -63.744545 
L 102.548778 -63.744545 
L 99.645951 -63.744545 
L 96.743125 -63.744545 
L 93.840298 -153.603071 
L 90.937471 -136.025895 
L 88.034645 -164.908993 
L 85.131818 -159.638784 
z
" style="stroke: #ffffff; stroke-opacity: 0.5"/>
    </defs>
    <g clip-path="url(#pa87d57f5a7)">
     <use xlink:href="#m596d19fe0c" x="0" y="345.6" style="fill: #dd8452; fill-opacity: 0.5; stroke: #ffffff; stroke-opacity: 0.5"/>
    </g>
   </g>
   <g id="PolyCollection_3">
    <defs>
     <path id="m1a933c6e69" d="M 85.131818 -179.718573 
L 85.131818 -234.363862 
L 88.034645 -179.188608 
L 90.937471 -202.654284 
L 93.840298 -210.544876 
L 96.743125 -140.883909 
L 99.645951 -63.744545 
L 102.548778 -63.773988 
L 105.451604 -68.160921 
L 108.354431 -63.9212 
L 111.257257 -92.71597 
L 114.160084 -86.650814 
L 117.062911 -70.781304 
L 119.965737 -73.460572 
L 122.868564 -73.578342 
L 125.77139 -71.340712 
L 128.674217 -74.96214 
L 131.577044 -99.517189 
L 134.47987 -75.963185 
L 137.382697 -82.970501 
L 140.285523 -79.614056 
L 143.18835 -128.105862 
L 146.091176 -71.782349 
L 148.994003 -65.717193 
L 151.89683 -81.616146 
L 154.799656 -70.634092 
L 157.702483 -65.511096 
L 160.605309 -89.271197 
L 163.508136 -93.334263 
L 166.410963 -79.849596 
L 169.313789 -139.941749 
L 172.216616 -112.354121 
L 175.119442 -72.371199 
L 178.022269 -85.002034 
L 180.925095 -75.168237 
L 183.827922 -74.25552 
L 186.730749 -77.229213 
L 189.633575 -81.940014 
L 192.536402 -79.614056 
L 195.439228 -77.405868 
L 198.342055 -122.246803 
L 201.244882 -69.426949 
L 204.147708 -80.497331 
L 207.050535 -70.192454 
L 209.953361 -86.709699 
L 212.856188 -96.072416 
L 215.759015 -114.032344 
L 218.661841 -149.12781 
L 221.564668 -84.236529 
L 224.467494 -80.379561 
L 227.370321 -97.338444 
L 230.273147 -70.928517 
L 233.175974 -93.510918 
L 236.078801 -81.881129 
L 238.981627 -84.265971 
L 241.884454 -65.687751 
L 244.78728 -76.787575 
L 247.690107 -96.190186 
L 250.592934 -104.757955 
L 253.49576 -112.442449 
L 256.398587 -88.59402 
L 259.301413 -107.672763 
L 262.20424 -87.975727 
L 265.107066 -96.042974 
L 268.009893 -122.187918 
L 270.91272 -106.34785 
L 273.815546 -111.706386 
L 276.718373 -113.266839 
L 279.621199 -131.197325 
L 282.524026 -89.65395 
L 285.426853 -135.84924 
L 288.329679 -89.65395 
L 291.232506 -80.379561 
L 294.135332 -103.52137 
L 297.038159 -97.279559 
L 299.940985 -131.874502 
L 302.843812 -86.297504 
L 305.746639 -105.081823 
L 308.649465 -95.719106 
L 311.552292 -101.342624 
L 314.455118 -87.151337 
L 317.357945 -114.768407 
L 320.260772 -101.754819 
L 323.163598 -97.632869 
L 326.066425 -119.15534 
L 328.969251 -107.908303 
L 331.872078 -103.87468 
L 334.774905 -121.540183 
L 337.677731 -98.751684 
L 340.580558 -100.282694 
L 343.483384 -77.994718 
L 346.386211 -79.349073 
L 349.289037 -86.974682 
L 352.191864 -94.158653 
L 355.094691 -81.468934 
L 357.997517 -91.155518 
L 360.900344 -78.406913 
L 363.80317 -79.731826 
L 366.705997 -78.200815 
L 369.608824 -89.241755 
L 372.51165 -90.94942 
L 375.414477 -106.495063 
L 378.317303 -102.57921 
L 381.22013 -80.880083 
L 384.122956 -85.384787 
L 387.025783 -126.839834 
L 389.92861 -115.769452 
L 392.831436 -98.427816 
L 395.734263 -116.063877 
L 398.637089 -102.903077 
L 401.539916 -100.253252 
L 404.442743 -76.110398 
L 407.345569 -76.228168 
L 410.248396 -78.083045 
L 413.151222 -100.606562 
L 416.054049 -105.87677 
L 418.956875 -111.058651 
L 421.859702 -73.342802 
L 424.762529 -89.359525 
L 427.665355 -90.625553 
L 430.568182 -89.624507 
L 430.568182 -63.832873 
L 430.568182 -63.832873 
L 427.665355 -64.362838 
L 424.762529 -63.862315 
L 421.859702 -65.599423 
L 418.956875 -64.686706 
L 416.054049 -64.981131 
L 413.151222 -66.364928 
L 410.248396 -64.215626 
L 407.345569 -63.950643 
L 404.442743 -64.333396 
L 401.539916 -63.862315 
L 398.637089 -64.127298 
L 395.734263 -63.773988 
L 392.831436 -63.744545 
L 389.92861 -64.274511 
L 387.025783 -65.216671 
L 384.122956 -63.862315 
L 381.22013 -64.362838 
L 378.317303 -64.863361 
L 375.414477 -64.186183 
L 372.51165 -63.773988 
L 369.608824 -67.778169 
L 366.705997 -63.773988 
L 363.80317 -66.629911 
L 360.900344 -64.568936 
L 357.997517 -64.097856 
L 355.094691 -64.009528 
L 352.191864 -65.304998 
L 349.289037 -64.274511 
L 346.386211 -64.657263 
L 343.483384 -64.922246 
L 340.580558 -64.392281 
L 337.677731 -64.274511 
L 334.774905 -64.186183 
L 331.872078 -64.804476 
L 328.969251 -64.127298 
L 326.066425 -64.568936 
L 323.163598 -63.832873 
L 320.260772 -64.303953 
L 317.357945 -63.891758 
L 314.455118 -64.009528 
L 311.552292 -65.069458 
L 308.649465 -75.727645 
L 305.746639 -64.038971 
L 302.843812 -67.307089 
L 299.940985 -64.833918 
L 297.038159 -63.9212 
L 294.135332 -66.953779 
L 291.232506 -66.688796 
L 288.329679 -63.744545 
L 285.426853 -67.042106 
L 282.524026 -67.042106 
L 279.621199 -70.310224 
L 276.718373 -64.745591 
L 273.815546 -63.891758 
L 270.91272 -65.010573 
L 268.009893 -65.511096 
L 265.107066 -63.862315 
L 262.20424 -64.245068 
L 259.301413 -63.980085 
L 256.398587 -65.805521 
L 253.49576 -63.744545 
L 250.592934 -63.862315 
L 247.690107 -63.80343 
L 244.78728 -63.744545 
L 241.884454 -63.773988 
L 238.981627 -63.744545 
L 236.078801 -63.744545 
L 233.175974 -63.773988 
L 230.273147 -63.773988 
L 227.370321 -64.038971 
L 224.467494 -63.9212 
L 221.564668 -65.687751 
L 218.661841 -63.744545 
L 215.759015 -63.744545 
L 212.856188 -63.744545 
L 209.953361 -63.832873 
L 207.050535 -64.510051 
L 204.147708 -63.891758 
L 201.244882 -63.773988 
L 198.342055 -63.744545 
L 195.439228 -63.744545 
L 192.536402 -63.773988 
L 189.633575 -63.744545 
L 186.730749 -63.744545 
L 183.827922 -63.773988 
L 180.925095 -63.744545 
L 178.022269 -63.744545 
L 175.119442 -63.744545 
L 172.216616 -63.744545 
L 169.313789 -63.832873 
L 166.410963 -63.80343 
L 163.508136 -63.832873 
L 160.605309 -63.744545 
L 157.702483 -63.80343 
L 154.799656 -63.773988 
L 151.89683 -63.832873 
L 148.994003 -63.744545 
L 146.091176 -63.9212 
L 143.18835 -63.744545 
L 140.285523 -63.773988 
L 137.382697 -64.686706 
L 134.47987 -63.744545 
L 131.577044 -63.773988 
L 128.674217 -63.744545 
L 125.77139 -63.744545 
L 122.868564 -63.744545 
L 119.965737 -63.744545 
L 117.062911 -63.744545 
L 114.160084 -63.744545 
L 111.257257 -63.744545 
L 108.354431 -63.744545 
L 105.451604 -63.744545 
L 102.548778 -63.744545 
L 99.645951 -63.744545 
L 96.743125 -63.744545 
L 93.840298 -123.925026 
L 90.937471 -150.717705 
L 88.034645 -146.18356 
L 85.131818 -179.718573 
z
" style="stroke: #ffffff; stroke-opacity: 0.5"/>
    </defs>
    <g clip-path="url(#pa87d57f5a7)">
     <use xlink:href="#m1a933c6e69" x="0" y="345.6" style="fill: #55a868; fill-opacity: 0.5; stroke: #ffffff; stroke-opacity: 0.5"/>
    </g>
   </g>
   <g id="PolyCollection_4">
    <defs>
     <path id="mde4bad7485" d="M 85.131818 -146.18356 
L 85.131818 -200.769964 
L 88.034645 -214.342959 
L 90.937471 -205.333552 
L 93.840298 -213.930764 
L 96.743125 -110.145933 
L 99.645951 -84.030431 
L 102.548778 -80.467888 
L 105.451604 -63.744545 
L 108.354431 -63.744545 
L 111.257257 -64.097856 
L 114.160084 -79.879038 
L 117.062911 -64.745591 
L 119.965737 -161.758645 
L 122.868564 -103.344715 
L 125.77139 -80.526773 
L 128.674217 -85.208132 
L 131.577044 -97.073461 
L 134.47987 -121.481298 
L 137.382697 -89.595065 
L 140.285523 -86.533044 
L 143.18835 -118.772587 
L 146.091176 -112.619104 
L 148.994003 -73.813882 
L 151.89683 -100.312137 
L 154.799656 -91.832695 
L 157.702483 -75.757088 
L 160.605309 -83.529909 
L 163.508136 -83.794891 
L 166.410963 -72.695067 
L 169.313789 -76.110398 
L 172.216616 -82.028341 
L 175.119442 -219.259857 
L 178.022269 -81.086181 
L 180.925095 -74.01998 
L 183.827922 -84.795937 
L 186.730749 -80.938968 
L 189.633575 -74.196635 
L 192.536402 -73.43113 
L 195.439228 -90.625553 
L 198.342055 -81.940014 
L 201.244882 -98.781126 
L 204.147708 -75.521547 
L 207.050535 -78.936878 
L 209.953361 -86.856912 
L 212.856188 -124.101681 
L 215.759015 -91.18496 
L 218.661841 -72.223987 
L 221.564668 -101.401509 
L 224.467494 -102.402555 
L 227.370321 -73.225032 
L 230.273147 -71.546809 
L 233.175974 -70.339667 
L 236.078801 -103.786352 
L 238.981627 -137.350808 
L 241.884454 -128.370844 
L 244.78728 -118.154295 
L 247.690107 -101.342624 
L 250.592934 -81.881129 
L 253.49576 -101.372067 
L 256.398587 -130.255164 
L 259.301413 -93.069281 
L 262.20424 -109.115446 
L 265.107066 -110.440358 
L 268.009893 -146.389657 
L 270.91272 -136.55586 
L 273.815546 -131.550635 
L 276.718373 -134.053248 
L 279.621199 -130.991227 
L 282.524026 -107.967188 
L 285.426853 -106.082868 
L 288.329679 -79.290188 
L 291.232506 -100.488792 
L 294.135332 -119.538093 
L 297.038159 -128.341402 
L 299.940985 -94.070326 
L 302.843812 -94.158653 
L 305.746639 -82.440536 
L 308.649465 -92.892625 
L 311.552292 -86.591929 
L 314.455118 -95.336353 
L 317.357945 -72.312314 
L 320.260772 -80.703428 
L 323.163598 -110.705341 
L 326.066425 -121.481298 
L 328.969251 -109.998721 
L 331.872078 -154.133036 
L 334.774905 -117.7421 
L 337.677731 -85.325902 
L 340.580558 -81.115623 
L 343.483384 -81.792801 
L 346.386211 -95.395238 
L 349.289037 -80.320676 
L 352.191864 -96.602381 
L 355.094691 -90.772765 
L 357.997517 -99.899942 
L 360.900344 -101.195412 
L 363.80317 -93.658131 
L 366.705997 -94.629733 
L 369.608824 -111.029209 
L 372.51165 -125.897674 
L 375.414477 -92.392103 
L 378.317303 -78.760223 
L 381.22013 -94.983043 
L 384.122956 -96.720151 
L 387.025783 -105.17015 
L 389.92861 -95.807433 
L 392.831436 -91.18496 
L 395.734263 -100.989314 
L 398.637089 -124.307778 
L 401.539916 -84.825379 
L 404.442743 -102.785307 
L 407.345569 -98.310046 
L 410.248396 -106.877815 
L 413.151222 -100.282694 
L 416.054049 -117.123807 
L 418.956875 -90.71388 
L 421.859702 -141.737741 
L 424.762529 -125.514921 
L 427.665355 -106.141753 
L 430.568182 -118.743145 
L 430.568182 -63.891758 
L 430.568182 -63.891758 
L 427.665355 -64.421723 
L 424.762529 -63.80343 
L 421.859702 -63.744545 
L 418.956875 -63.773988 
L 416.054049 -64.186183 
L 413.151222 -63.744545 
L 410.248396 -63.773988 
L 407.345569 -66.953779 
L 404.442743 -80.880083 
L 401.539916 -63.80343 
L 398.637089 -63.744545 
L 395.734263 -69.809701 
L 392.831436 -64.245068 
L 389.92861 -63.80343 
L 387.025783 -63.773988 
L 384.122956 -71.988447 
L 381.22013 -63.773988 
L 378.317303 -64.392281 
L 375.414477 -64.097856 
L 372.51165 -68.013709 
L 369.608824 -68.632001 
L 366.705997 -64.539493 
L 363.80317 -63.862315 
L 360.900344 -64.274511 
L 357.997517 -63.744545 
L 355.094691 -66.129388 
L 352.191864 -63.950643 
L 349.289037 -64.068413 
L 346.386211 -63.773988 
L 343.483384 -66.335486 
L 340.580558 -63.744545 
L 337.677731 -72.459527 
L 334.774905 -64.451166 
L 331.872078 -64.510051 
L 328.969251 -69.014754 
L 326.066425 -65.952733 
L 323.163598 -63.80343 
L 320.260772 -68.484789 
L 317.357945 -63.80343 
L 314.455118 -65.952733 
L 311.552292 -71.134614 
L 308.649465 -68.425904 
L 305.746639 -63.891758 
L 302.843812 -65.393326 
L 299.940985 -66.629911 
L 297.038159 -64.127298 
L 294.135332 -63.773988 
L 291.232506 -69.191409 
L 288.329679 -64.392281 
L 285.426853 -64.804476 
L 282.524026 -63.773988 
L 279.621199 -63.744545 
L 276.718373 -63.744545 
L 273.815546 -63.80343 
L 270.91272 -64.068413 
L 268.009893 -63.773988 
L 265.107066 -63.744545 
L 262.20424 -63.744545 
L 259.301413 -64.038971 
L 256.398587 -64.127298 
L 253.49576 -63.950643 
L 250.592934 -64.068413 
L 247.690107 -64.833918 
L 244.78728 -64.892803 
L 241.884454 -63.744545 
L 238.981627 -63.744545 
L 236.078801 -63.744545 
L 233.175974 -66.158831 
L 230.273147 -66.836008 
L 227.370321 -63.862315 
L 224.467494 -63.744545 
L 221.564668 -64.303953 
L 218.661841 -63.80343 
L 215.759015 -63.744545 
L 212.856188 -64.127298 
L 209.953361 -63.744545 
L 207.050535 -64.009528 
L 204.147708 -63.744545 
L 201.244882 -63.744545 
L 198.342055 -64.068413 
L 195.439228 -63.744545 
L 192.536402 -63.80343 
L 189.633575 -63.773988 
L 186.730749 -63.773988 
L 183.827922 -63.744545 
L 180.925095 -63.744545 
L 178.022269 -63.891758 
L 175.119442 -63.773988 
L 172.216616 -63.80343 
L 169.313789 -63.773988 
L 166.410963 -64.097856 
L 163.508136 -64.038971 
L 160.605309 -65.658308 
L 157.702483 -63.891758 
L 154.799656 -63.744545 
L 151.89683 -64.038971 
L 148.994003 -64.274511 
L 146.091176 -63.773988 
L 143.18835 -63.950643 
L 140.285523 -64.186183 
L 137.382697 -64.038971 
L 134.47987 -63.832873 
L 131.577044 -64.833918 
L 128.674217 -65.040016 
L 125.77139 -63.950643 
L 122.868564 -64.127298 
L 119.965737 -64.009528 
L 117.062911 -63.744545 
L 114.160084 -63.744545 
L 111.257257 -63.744545 
L 108.354431 -63.744545 
L 105.451604 -63.744545 
L 102.548778 -63.744545 
L 99.645951 -63.744545 
L 96.743125 -77.994718 
L 93.840298 -109.174331 
L 90.937471 -130.078509 
L 88.034645 -155.987914 
L 85.131818 -146.18356 
z
" style="stroke: #ffffff; stroke-opacity: 0.5"/>
    </defs>
    <g clip-path="url(#pa87d57f5a7)">
     <use xlink:href="#mde4bad7485" x="0" y="345.6" style="fill: #c44e52; fill-opacity: 0.5; stroke: #ffffff; stroke-opacity: 0.5"/>
    </g>
   </g>
   <g id="PolyCollection_5">
    <defs>
     <path id="m511b4771aa" d="M 85.131818 -152.101503 
L 85.131818 -200.740522 
L 88.034645 -209.367176 
L 90.937471 -210.839301 
L 93.840298 -209.543831 
L 96.743125 -88.652905 
L 99.645951 -63.744545 
L 102.548778 -64.362838 
L 105.451604 -63.744545 
L 108.354431 -63.744545 
L 111.257257 -63.744545 
L 114.160084 -66.482698 
L 117.062911 -84.530954 
L 119.965737 -84.913707 
L 122.868564 -68.219806 
L 125.77139 -164.673453 
L 128.674217 -136.732516 
L 131.577044 -140.177289 
L 134.47987 -123.247848 
L 137.382697 -88.564577 
L 140.285523 -139.794536 
L 143.18835 -95.513008 
L 146.091176 -104.375202 
L 148.994003 -111.441404 
L 151.89683 -92.450988 
L 154.799656 -163.966833 
L 157.702483 -75.580432 
L 160.605309 -80.202906 
L 163.508136 -79.702383 
L 166.410963 -130.579032 
L 169.313789 -93.981998 
L 172.216616 -84.501512 
L 175.119442 -75.580432 
L 178.022269 -117.85987 
L 180.925095 -109.880951 
L 183.827922 -84.324856 
L 186.730749 -104.610742 
L 189.633575 -100.017712 
L 192.536402 -92.36266 
L 195.439228 -107.702206 
L 198.342055 -117.594887 
L 201.244882 -96.808479 
L 204.147708 -85.473114 
L 207.050535 -100.282694 
L 209.953361 -108.497153 
L 212.856188 -112.000811 
L 215.759015 -91.744368 
L 218.661841 -135.02485 
L 221.564668 -130.019624 
L 224.467494 -129.283562 
L 227.370321 -99.576074 
L 230.273147 -128.282517 
L 233.175974 -114.856734 
L 236.078801 -114.120672 
L 238.981627 -124.042796 
L 241.884454 -145.653595 
L 244.78728 -106.495063 
L 247.690107 -161.46422 
L 250.592934 -89.65395 
L 253.49576 -174.477807 
L 256.398587 -200.269441 
L 259.301413 -119.39088 
L 262.20424 -132.728335 
L 265.107066 -178.6292 
L 268.009893 -202.654284 
L 270.91272 -129.577987 
L 273.815546 -191.819443 
L 276.718373 -141.207776 
L 279.621199 -197.649059 
L 282.524026 -176.50934 
L 285.426853 -115.210044 
L 288.329679 -199.592264 
L 291.232506 -130.314049 
L 294.135332 -114.326769 
L 297.038159 -114.120672 
L 299.940985 -184.576586 
L 302.843812 -199.680591 
L 305.746639 -200.858292 
L 308.649465 -127.840879 
L 311.552292 -208.60167 
L 314.455118 -198.149581 
L 317.357945 -151.483211 
L 320.260772 -203.478675 
L 323.163598 -174.654462 
L 326.066425 -146.06579 
L 328.969251 -130.078509 
L 331.872078 -115.533912 
L 334.774905 -192.791045 
L 337.677731 -183.869966 
L 340.580558 -164.702895 
L 343.483384 -130.696802 
L 346.386211 -163.171885 
L 349.289037 -123.483388 
L 352.191864 -117.830427 
L 355.094691 -125.426594 
L 357.997517 -143.798717 
L 360.900344 -146.330772 
L 363.80317 -130.637917 
L 366.705997 -147.066835 
L 369.608824 -154.604116 
L 372.51165 -124.425548 
L 375.414477 -155.840701 
L 378.317303 -161.994185 
L 381.22013 -145.741922 
L 384.122956 -152.307601 
L 387.025783 -163.024673 
L 389.92861 -134.023805 
L 392.831436 -148.332863 
L 395.734263 -132.581122 
L 398.637089 -125.367709 
L 401.539916 -158.019447 
L 404.442743 -125.191054 
L 407.345569 -183.045576 
L 410.248396 -137.704118 
L 413.151222 -125.573806 
L 416.054049 -116.417187 
L 418.956875 -125.426594 
L 421.859702 -129.695757 
L 424.762529 -152.837566 
L 427.665355 -173.830072 
L 430.568182 -161.169795 
L 430.568182 -64.068413 
L 430.568182 -64.068413 
L 427.665355 -66.247158 
L 424.762529 -63.832873 
L 421.859702 -68.808656 
L 418.956875 -68.190364 
L 416.054049 -70.575207 
L 413.151222 -66.276601 
L 410.248396 -65.040016 
L 407.345569 -68.043151 
L 404.442743 -64.421723 
L 401.539916 -76.25761 
L 398.637089 -64.127298 
L 395.734263 -63.773988 
L 392.831436 -70.634092 
L 389.92861 -63.862315 
L 387.025783 -63.80343 
L 384.122956 -64.421723 
L 381.22013 -64.215626 
L 378.317303 -64.480608 
L 375.414477 -64.657263 
L 372.51165 -63.832873 
L 369.608824 -82.999944 
L 366.705997 -63.9212 
L 363.80317 -63.832873 
L 360.900344 -65.069458 
L 357.997517 -81.675031 
L 355.094691 -63.773988 
L 352.191864 -64.097856 
L 349.289037 -63.744545 
L 346.386211 -67.542629 
L 343.483384 -64.392281 
L 340.580558 -64.127298 
L 337.677731 -64.362838 
L 334.774905 -64.127298 
L 331.872078 -65.776078 
L 328.969251 -64.598378 
L 326.066425 -67.630956 
L 323.163598 -75.757088 
L 320.260772 -72.989492 
L 317.357945 -92.980953 
L 314.455118 -67.277646 
L 311.552292 -82.499421 
L 308.649465 -71.252384 
L 305.746639 -75.727645 
L 302.843812 -77.641408 
L 299.940985 -73.254475 
L 297.038159 -66.306043 
L 294.135332 -92.509873 
L 291.232506 -63.744545 
L 288.329679 -73.754997 
L 285.426853 -66.423813 
L 282.524026 -90.2428 
L 279.621199 -79.996808 
L 276.718373 -84.177644 
L 273.815546 -91.479385 
L 270.91272 -64.922246 
L 268.009893 -95.130256 
L 265.107066 -66.659353 
L 262.20424 -64.480608 
L 259.301413 -82.676076 
L 256.398587 -81.822244 
L 253.49576 -65.187228 
L 250.592934 -65.304998 
L 247.690107 -71.370154 
L 244.78728 -67.895939 
L 241.884454 -64.657263 
L 238.981627 -76.905345 
L 236.078801 -74.903255 
L 233.175974 -72.695067 
L 230.273147 -73.372245 
L 227.370321 -64.716148 
L 224.467494 -65.128343 
L 221.564668 -64.333396 
L 218.661841 -68.543674 
L 215.759015 -63.832873 
L 212.856188 -75.963185 
L 209.953361 -63.980085 
L 207.050535 -64.156741 
L 204.147708 -63.773988 
L 201.244882 -63.773988 
L 198.342055 -64.245068 
L 195.439228 -70.104127 
L 192.536402 -63.832873 
L 189.633575 -64.362838 
L 186.730749 -63.832873 
L 183.827922 -66.806566 
L 180.925095 -64.392281 
L 178.022269 -63.773988 
L 175.119442 -63.744545 
L 172.216616 -63.744545 
L 169.313789 -63.744545 
L 166.410963 -64.392281 
L 163.508136 -63.9212 
L 160.605309 -64.392281 
L 157.702483 -63.744545 
L 154.799656 -63.80343 
L 151.89683 -64.392281 
L 148.994003 -63.744545 
L 146.091176 -64.362838 
L 143.18835 -63.744545 
L 140.285523 -63.744545 
L 137.382697 -63.744545 
L 134.47987 -63.744545 
L 131.577044 -63.744545 
L 128.674217 -63.832873 
L 125.77139 -63.744545 
L 122.868564 -63.744545 
L 119.965737 -63.744545 
L 117.062911 -63.744545 
L 114.160084 -63.744545 
L 111.257257 -63.744545 
L 108.354431 -63.744545 
L 105.451604 -63.744545 
L 102.548778 -63.744545 
L 99.645951 -63.744545 
L 96.743125 -64.274511 
L 93.840298 -162.965788 
L 90.937471 -140.736696 
L 88.034645 -158.961607 
L 85.131818 -152.101503 
z
" style="stroke: #ffffff; stroke-opacity: 0.5"/>
    </defs>
    <g clip-path="url(#pa87d57f5a7)">
     <use xlink:href="#m511b4771aa" x="0" y="345.6" style="fill: #8172b3; fill-opacity: 0.5; stroke: #ffffff; stroke-opacity: 0.5"/>
    </g>
   </g>
   <g id="PolyCollection_6">
    <defs>
     <path id="m61c9d5ce55" d="M 85.131818 -160.698715 
L 85.131818 -218.141042 
L 88.034645 -218.553237 
L 90.937471 -207.89505 
L 93.840298 -212.488081 
L 96.743125 -168.294881 
L 99.645951 -163.731293 
L 102.548778 -63.744545 
L 105.451604 -97.809524 
L 108.354431 -127.458126 
L 111.257257 -106.053425 
L 114.160084 -148.715615 
L 117.062911 -116.44663 
L 119.965737 -125.456036 
L 122.868564 -111.706386 
L 125.77139 -78.701338 
L 128.674217 -81.380606 
L 131.577044 -94.953601 
L 134.47987 -67.984266 
L 137.382697 -73.43113 
L 140.285523 -98.251161 
L 143.18835 -83.559351 
L 146.091176 -94.600291 
L 148.994003 -94.129211 
L 151.89683 -89.830605 
L 154.799656 -80.673986 
L 157.702483 -319.835455 
L 160.605309 -173.535647 
L 163.508136 -130.549589 
L 166.410963 -83.500466 
L 169.313789 -168.029898 
L 172.216616 -81.380606 
L 175.119442 -75.639318 
L 178.022269 -76.13984 
L 180.925095 -78.642453 
L 183.827922 -129.577987 
L 186.730749 -95.895761 
L 189.633575 -91.243845 
L 192.536402 -78.642453 
L 195.439228 -107.319453 
L 198.342055 -201.211602 
L 201.244882 -108.320498 
L 204.147708 -135.554815 
L 207.050535 -94.835831 
L 209.953361 -117.97764 
L 212.856188 -112.383564 
L 215.759015 -111.264749 
L 218.661841 -147.567357 
L 221.564668 -158.667182 
L 224.467494 -145.565267 
L 227.370321 -157.695579 
L 230.273147 -120.480253 
L 233.175974 -235.306022 
L 236.078801 -123.100636 
L 238.981627 -110.999766 
L 241.884454 -151.542096 
L 244.78728 -126.987046 
L 247.690107 -148.06788 
L 250.592934 -140.913351 
L 253.49576 -167.323278 
L 256.398587 -133.61161 
L 259.301413 -142.532689 
L 262.20424 -212.517524 
L 265.107066 -222.881285 
L 268.009893 -137.704118 
L 270.91272 -192.84993 
L 273.815546 -142.679902 
L 276.718373 -168.648191 
L 279.621199 -195.735296 
L 282.524026 -156.871189 
L 285.426853 -237.366998 
L 288.329679 -144.387567 
L 291.232506 -171.239131 
L 294.135332 -177.274845 
L 297.038159 -145.123629 
L 299.940985 -165.792268 
L 302.843812 -167.470491 
L 305.746639 -178.599758 
L 308.649465 -210.574318 
L 311.552292 -190.936167 
L 314.455118 -173.594532 
L 317.357945 -113.767362 
L 320.260772 -157.283384 
L 323.163598 -172.858469 
L 326.066425 -157.489482 
L 328.969251 -179.659688 
L 331.872078 -174.919445 
L 334.774905 -187.491394 
L 337.677731 -170.591396 
L 340.580558 -175.626065 
L 343.483384 -208.572228 
L 346.386211 -169.502024 
L 349.289037 -177.863695 
L 352.191864 -132.78722 
L 355.094691 -89.388967 
L 357.997517 -182.545053 
L 360.900344 -176.715437 
L 363.80317 -170.179201 
L 366.705997 -211.369266 
L 369.608824 -159.256032 
L 372.51165 -165.615613 
L 375.414477 -119.125897 
L 378.317303 -139.029031 
L 381.22013 -180.690176 
L 384.122956 -171.975194 
L 387.025783 -123.218406 
L 389.92861 -176.126587 
L 392.831436 -124.719973 
L 395.734263 -171.798539 
L 398.637089 -135.37816 
L 401.539916 -136.997498 
L 404.442743 -178.98251 
L 407.345569 -165.056205 
L 410.248396 -157.931119 
L 413.151222 -201.947664 
L 416.054049 -151.954291 
L 418.956875 -163.672408 
L 421.859702 -135.525373 
L 424.762529 -117.830427 
L 427.665355 -122.570671 
L 430.568182 -116.44663 
L 430.568182 -95.748548 
L 430.568182 -95.748548 
L 427.665355 -92.421545 
L 424.762529 -91.685483 
L 421.859702 -78.613011 
L 418.956875 -75.492105 
L 416.054049 -97.691754 
L 413.151222 -112.030254 
L 410.248396 -96.779036 
L 407.345569 -93.923113 
L 404.442743 -90.71388 
L 401.539916 -86.150292 
L 398.637089 -91.126075 
L 395.734263 -83.647679 
L 392.831436 -80.291233 
L 389.92861 -71.517367 
L 387.025783 -75.757088 
L 384.122956 -75.727645 
L 381.22013 -99.870499 
L 378.317303 -74.01998 
L 375.414477 -71.340712 
L 372.51165 -82.793846 
L 369.608824 -63.773988 
L 366.705997 -81.675031 
L 363.80317 -67.542629 
L 360.900344 -68.573116 
L 357.997517 -63.744545 
L 355.094691 -63.744545 
L 352.191864 -66.600468 
L 349.289037 -86.974682 
L 346.386211 -79.290188 
L 343.483384 -71.311269 
L 340.580558 -95.218583 
L 337.677731 -79.849596 
L 334.774905 -98.516144 
L 331.872078 -63.744545 
L 328.969251 -94.688618 
L 326.066425 -75.521547 
L 323.163598 -122.158476 
L 320.260772 -113.296281 
L 317.357945 -64.510051 
L 314.455118 -93.069281 
L 311.552292 -98.045064 
L 308.649465 -78.613011 
L 305.746639 -66.806566 
L 302.843812 -63.744545 
L 299.940985 -63.773988 
L 297.038159 -66.718238 
L 294.135332 -66.718238 
L 291.232506 -66.718238 
L 288.329679 -68.543674 
L 285.426853 -63.773988 
L 282.524026 -63.744545 
L 279.621199 -72.84228 
L 276.718373 -73.018935 
L 273.815546 -73.107262 
L 270.91272 -104.669628 
L 268.009893 -69.691931 
L 265.107066 -63.744545 
L 262.20424 -63.744545 
L 259.301413 -63.744545 
L 256.398587 -76.552035 
L 253.49576 -79.378516 
L 250.592934 -91.06719 
L 247.690107 -76.169283 
L 244.78728 -79.231303 
L 241.884454 -63.744545 
L 238.981627 -63.744545 
L 236.078801 -75.66876 
L 233.175974 -65.246113 
L 230.273147 -75.19768 
L 227.370321 -77.111443 
L 224.467494 -63.744545 
L 221.564668 -86.739142 
L 218.661841 -69.633046 
L 215.759015 -66.718238 
L 212.856188 -77.229213 
L 209.953361 -73.283917 
L 207.050535 -63.744545 
L 204.147708 -64.510051 
L 201.244882 -63.744545 
L 198.342055 -63.744545 
L 195.439228 -63.744545 
L 192.536402 -63.744545 
L 189.633575 -63.744545 
L 186.730749 -65.246113 
L 183.827922 -63.744545 
L 180.925095 -63.744545 
L 178.022269 -63.773988 
L 175.119442 -63.744545 
L 172.216616 -63.744545 
L 169.313789 -63.744545 
L 166.410963 -63.744545 
L 163.508136 -64.892803 
L 160.605309 -63.744545 
L 157.702483 -64.097856 
L 154.799656 -65.187228 
L 151.89683 -63.744545 
L 148.994003 -63.744545 
L 146.091176 -63.744545 
L 143.18835 -63.744545 
L 140.285523 -63.744545 
L 137.382697 -63.744545 
L 134.47987 -63.744545 
L 131.577044 -63.744545 
L 128.674217 -63.744545 
L 125.77139 -63.744545 
L 122.868564 -63.744545 
L 119.965737 -63.744545 
L 117.062911 -63.744545 
L 114.160084 -63.744545 
L 111.257257 -63.744545 
L 108.354431 -63.744545 
L 105.451604 -63.744545 
L 102.548778 -63.744545 
L 99.645951 -66.718238 
L 96.743125 -65.540538 
L 93.840298 -139.529554 
L 90.937471 -152.307601 
L 88.034645 -136.997498 
L 85.131818 -160.698715 
z
" style="stroke: #ffffff; stroke-opacity: 0.5"/>
    </defs>
    <g clip-path="url(#pa87d57f5a7)">
     <use xlink:href="#m61c9d5ce55" x="0" y="345.6" style="fill: #937860; fill-opacity: 0.5; stroke: #ffffff; stroke-opacity: 0.5"/>
    </g>
   </g>
   <g id="line2d_16">
    <path d="M 85.131818 179.807732 
L 88.034645 176.380624 
L 90.937471 176.404178 
L 93.840298 183.635258 
L 96.743125 280.177232 
L 99.645951 274.753922 
L 102.548778 270.366989 
L 105.451604 274.818696 
L 108.354431 273.287686 
L 111.257257 278.463678 
L 114.160084 280.88974 
L 117.062911 280.495211 
L 119.965737 275.113121 
L 122.868564 280.766082 
L 125.77139 280.030019 
L 128.674217 281.619915 
L 131.577044 278.705107 
L 134.47987 281.6788 
L 137.382697 281.602249 
L 140.285523 280.006465 
L 143.18835 281.602249 
L 146.091176 279.246849 
L 148.994003 281.119392 
L 151.89683 281.619915 
L 154.799656 281.584583 
L 157.702483 281.596361 
L 160.605309 281.619915 
L 163.508136 281.614026 
L 166.410963 281.602249 
L 169.313789 281.619915 
L 172.216616 281.572806 
L 175.119442 281.590472 
L 178.022269 281.596361 
L 180.925095 281.572806 
L 183.827922 281.631692 
L 186.730749 281.584583 
L 189.633575 281.619915 
L 192.536402 281.531587 
L 195.439228 281.584583 
L 198.342055 281.631692 
L 201.244882 281.561029 
L 204.147708 281.578695 
L 207.050535 281.578695 
L 209.953361 281.566918 
L 212.856188 281.619915 
L 215.759015 281.578695 
L 218.661841 281.531587 
L 221.564668 281.572806 
L 224.467494 281.602249 
L 227.370321 281.578695 
L 230.273147 281.578695 
L 233.175974 281.566918 
L 236.078801 281.566918 
L 238.981627 281.531587 
L 241.884454 281.543364 
L 244.78728 281.555141 
L 247.690107 281.531587 
L 250.592934 281.566918 
L 253.49576 281.566918 
L 256.398587 281.566918 
L 259.301413 281.525698 
L 262.20424 281.566918 
L 265.107066 281.578695 
L 268.009893 281.561029 
L 270.91272 281.531587 
L 273.815546 281.537475 
L 276.718373 281.555141 
L 279.621199 281.525698 
L 282.524026 281.566918 
L 285.426853 281.543364 
L 288.329679 281.525698 
L 291.232506 281.525698 
L 294.135332 281.561029 
L 297.038159 281.472702 
L 299.940985 281.496256 
L 302.843812 281.549252 
L 305.746639 281.561029 
L 308.649465 281.543364 
L 311.552292 281.555141 
L 314.455118 281.508033 
L 317.357945 281.508033 
L 320.260772 281.472702 
L 323.163598 281.543364 
L 326.066425 281.590472 
L 328.969251 281.513921 
L 331.872078 281.531587 
L 334.774905 281.513921 
L 337.677731 281.531587 
L 340.580558 281.596361 
L 343.483384 281.584583 
L 346.386211 281.490367 
L 349.289037 281.561029 
L 352.191864 281.543364 
L 355.094691 281.561029 
L 357.997517 281.466813 
L 360.900344 281.531587 
L 363.80317 281.555141 
L 366.705997 281.561029 
L 369.608824 281.531587 
L 372.51165 281.537475 
L 375.414477 281.513921 
L 378.317303 281.51981 
L 381.22013 281.561029 
L 384.122956 281.596361 
L 387.025783 281.460925 
L 389.92861 281.490367 
L 392.831436 281.537475 
L 395.734263 281.490367 
L 398.637089 281.508033 
L 401.539916 281.431482 
L 404.442743 281.531587 
L 407.345569 281.543364 
L 410.248396 281.525698 
L 413.151222 281.537475 
L 416.054049 281.513921 
L 418.956875 281.537475 
L 421.859702 281.543364 
L 424.762529 281.525698 
L 427.665355 281.590472 
L 430.568182 281.549252 
" clip-path="url(#pa87d57f5a7)" style="fill: none; stroke: #4c72b0; stroke-width: 3; stroke-linecap: round"/>
   </g>
   <g id="line2d_17">
    <path d="M 85.131818 163.496584 
L 88.034645 163.655574 
L 90.937471 176.51606 
L 93.840298 161.11763 
L 96.743125 281.849566 
L 99.645951 281.855455 
L 102.548778 281.578695 
L 105.451604 278.728661 
L 108.354431 270.113784 
L 111.257257 276.926779 
L 114.160084 276.184828 
L 117.062911 279.482389 
L 119.965737 273.464341 
L 122.868564 280.265559 
L 125.77139 281.725908 
L 128.674217 279.317511 
L 131.577044 276.337929 
L 134.47987 279.146744 
L 137.382697 279.553051 
L 140.285523 278.104479 
L 143.18835 278.033817 
L 146.091176 277.344863 
L 148.994003 279.39995 
L 151.89683 276.055281 
L 154.799656 276.320264 
L 157.702483 276.249602 
L 160.605309 280.630646 
L 163.508136 276.349706 
L 166.410963 275.018905 
L 169.313789 276.573469 
L 172.216616 280.436326 
L 175.119442 281.837789 
L 178.022269 278.110368 
L 180.925095 281.413817 
L 183.827922 275.225002 
L 186.730749 281.272493 
L 189.633575 280.06535 
L 192.536402 281.28427 
L 195.439228 281.808347 
L 198.342055 280.69542 
L 201.244882 277.898382 
L 204.147708 279.140856 
L 207.050535 280.989845 
L 209.953361 281.814235 
L 212.856188 281.437371 
L 215.759015 276.290821 
L 218.661841 281.266604 
L 221.564668 280.165455 
L 224.467494 280.41866 
L 227.370321 281.802458 
L 230.273147 281.6788 
L 233.175974 281.814235 
L 236.078801 280.842632 
L 238.981627 280.795524 
L 241.884454 281.47859 
L 244.78728 281.790681 
L 247.690107 280.724862 
L 250.592934 281.773016 
L 253.49576 281.778904 
L 256.398587 278.587336 
L 259.301413 274.771588 
L 262.20424 280.518765 
L 265.107066 281.814235 
L 268.009893 281.213608 
L 270.91272 279.470612 
L 273.815546 281.225385 
L 276.718373 280.141901 
L 279.621199 279.982911 
L 282.524026 280.112458 
L 285.426853 277.126988 
L 288.329679 278.622667 
L 291.232506 281.231273 
L 294.135332 281.407928 
L 297.038159 281.737685 
L 299.940985 281.761239 
L 302.843812 281.778904 
L 305.746639 281.79657 
L 308.649465 281.219496 
L 311.552292 280.707197 
L 314.455118 280.995733 
L 317.357945 281.767127 
L 320.260772 281.784793 
L 323.163598 281.784793 
L 326.066425 281.790681 
L 328.969251 281.566918 
L 331.872078 281.6788 
L 334.774905 281.731796 
L 337.677731 281.826012 
L 340.580558 279.882807 
L 343.483384 281.101726 
L 346.386211 278.027929 
L 349.289037 281.63758 
L 352.191864 281.79657 
L 355.094691 281.248939 
L 357.997517 281.761239 
L 360.900344 279.458835 
L 363.80317 281.390263 
L 366.705997 281.195942 
L 369.608824 281.784793 
L 372.51165 281.784793 
L 375.414477 281.790681 
L 378.317303 281.378486 
L 381.22013 281.814235 
L 384.122956 281.566918 
L 387.025783 281.113503 
L 389.92861 281.79657 
L 392.831436 281.808347 
L 395.734263 280.989845 
L 398.637089 281.778904 
L 401.539916 281.531587 
L 404.442743 281.790681 
L 407.345569 281.784793 
L 410.248396 281.537475 
L 413.151222 281.820124 
L 416.054049 281.602249 
L 418.956875 281.767127 
L 421.859702 281.790681 
L 424.762529 281.773016 
L 427.665355 280.866186 
L 430.568182 281.778904 
" clip-path="url(#pa87d57f5a7)" style="fill: none; stroke: #dd8452; stroke-width: 3; stroke-linecap: round"/>
   </g>
   <g id="line2d_18">
    <path d="M 85.131818 145.842858 
L 88.034645 176.610276 
L 90.937471 164.933378 
L 93.840298 160.858536 
L 96.743125 245.211313 
L 99.645951 281.855455 
L 102.548778 281.849566 
L 105.451604 280.93096 
L 108.354431 281.820124 
L 111.257257 273.564445 
L 114.160084 270.096118 
L 117.062911 279.264514 
L 119.965737 278.027929 
L 122.868564 278.893539 
L 125.77139 280.230228 
L 128.674217 278.775769 
L 131.577044 270.63786 
L 134.47987 278.328242 
L 137.382697 275.07779 
L 140.285523 277.603957 
L 143.18835 262.641276 
L 146.091176 279.776814 
L 148.994003 281.419705 
L 151.89683 278.045594 
L 154.799656 280.365664 
L 157.702483 281.354932 
L 160.605309 271.373923 
L 163.508136 274.736257 
L 166.410963 277.82772 
L 169.313789 264.543262 
L 172.216616 267.02232 
L 175.119442 278.440124 
L 178.022269 272.698835 
L 180.925095 279.423504 
L 183.827922 278.899427 
L 186.730749 278.080925 
L 189.633575 273.994306 
L 192.536402 275.054236 
L 195.439228 276.891448 
L 198.342055 266.939881 
L 201.244882 280.618869 
L 204.147708 277.598068 
L 207.050535 277.868939 
L 209.953361 272.687058 
L 212.856188 271.921553 
L 215.759015 266.192042 
L 218.661841 260.980718 
L 221.564668 273.381902 
L 224.467494 275.790299 
L 227.370321 271.839114 
L 230.273147 279.511831 
L 233.175974 266.910439 
L 236.078801 273.558557 
L 238.981627 272.969707 
L 241.884454 280.942737 
L 244.78728 278.210472 
L 247.690107 264.731694 
L 250.592934 271.532912 
L 253.49576 265.620857 
L 256.398587 267.334411 
L 259.301413 268.818313 
L 262.20424 271.220822 
L 265.107066 266.939881 
L 268.009893 255.51619 
L 270.91272 262.07598 
L 273.815546 268.0057 
L 276.718373 262.335074 
L 279.621199 259.002182 
L 282.524026 269.248174 
L 285.426853 254.662357 
L 288.329679 274.48894 
L 291.232506 272.922599 
L 294.135332 260.715736 
L 297.038159 264.596258 
L 299.940985 262.54706 
L 302.843812 265.114446 
L 305.746639 266.392251 
L 308.649465 258.790196 
L 311.552292 266.233261 
L 314.455118 271.81556 
L 317.357945 268.936083 
L 320.260772 269.307059 
L 323.163598 267.481624 
L 326.066425 264.66692 
L 328.969251 265.41476 
L 331.872078 258.595876 
L 334.774905 257.28274 
L 337.677731 265.185108 
L 340.580558 268.170578 
L 343.483384 274.730368 
L 346.386211 275.277999 
L 349.289037 273.799985 
L 352.191864 271.097163 
L 355.094691 274.076745 
L 357.997517 268.16469 
L 360.900344 274.011971 
L 363.80317 273.069811 
L 366.705997 275.972842 
L 369.608824 270.096118 
L 372.51165 266.657233 
L 375.414477 272.657616 
L 378.317303 270.361101 
L 381.22013 273.052146 
L 384.122956 272.21009 
L 387.025783 265.079115 
L 389.92861 265.314655 
L 392.831436 272.498626 
L 395.734263 267.363854 
L 398.637089 268.800648 
L 401.539916 264.961345 
L 404.442743 277.391971 
L 407.345569 277.138765 
L 410.248396 276.84434 
L 413.151222 271.497581 
L 416.054049 268.017477 
L 418.956875 268.16469 
L 421.859702 276.438034 
L 424.762529 267.381519 
L 427.665355 271.050055 
L 430.568182 269.77225 
" clip-path="url(#pa87d57f5a7)" style="fill: none; stroke: #55a868; stroke-width: 3; stroke-linecap: round"/>
   </g>
   <g id="line2d_19">
    <path d="M 85.131818 166.38195 
L 88.034645 161.176515 
L 90.937471 169.120103 
L 93.840298 174.419754 
L 96.743125 246.306574 
L 99.645951 277.739392 
L 102.548778 278.510786 
L 105.451604 281.855455 
L 108.354431 281.855455 
L 111.257257 281.784793 
L 114.160084 274.983574 
L 117.062911 281.625803 
L 119.965737 256.29936 
L 122.868564 269.230508 
L 125.77139 273.063923 
L 128.674217 271.886222 
L 131.577044 264.955457 
L 134.47987 269.042076 
L 137.382697 274.064968 
L 140.285523 271.026501 
L 143.18835 257.300405 
L 146.091176 267.3403 
L 148.994003 274.777476 
L 151.89683 268.470892 
L 154.799656 275.955177 
L 157.702483 277.916047 
L 160.605309 273.081588 
L 163.508136 275.419323 
L 166.410963 277.927824 
L 169.313789 278.752215 
L 172.216616 273.576222 
L 175.119442 242.343613 
L 178.022269 276.620577 
L 180.925095 277.621622 
L 183.827922 277.403748 
L 186.730749 274.029637 
L 189.633575 279.611936 
L 192.536402 279.59427 
L 195.439228 269.195177 
L 198.342055 275.495873 
L 201.244882 270.32577 
L 204.147708 278.116256 
L 207.050535 278.410681 
L 209.953361 274.165072 
L 212.856188 265.72685 
L 215.759015 272.634062 
L 218.661841 276.84434 
L 221.564668 267.740718 
L 224.467494 265.991833 
L 227.370321 277.362528 
L 230.273147 276.13772 
L 233.175974 277.439079 
L 236.078801 266.127268 
L 238.981627 254.950893 
L 241.884454 255.916608 
L 244.78728 262.823819 
L 247.690107 267.764272 
L 250.592934 269.242285 
L 253.49576 266.851554 
L 256.398587 263.677652 
L 259.301413 272.510403 
L 262.20424 263.830753 
L 265.107066 260.592077 
L 268.009893 254.897897 
L 270.91272 253.961625 
L 273.815546 255.75173 
L 276.718373 256.5349 
L 279.621199 252.536608 
L 282.524026 260.480196 
L 285.426853 267.522843 
L 288.329679 275.554758 
L 291.232506 266.398139 
L 294.135332 266.374585 
L 297.038159 265.968279 
L 299.940985 268.63577 
L 302.843812 269.047965 
L 305.746639 271.156048 
L 308.649465 265.985944 
L 311.552292 268.912529 
L 314.455118 266.262704 
L 317.357945 276.879671 
L 320.260772 270.007791 
L 323.163598 265.932948 
L 326.066425 265.067338 
L 328.969251 255.374865 
L 331.872078 252.171521 
L 334.774905 266.303923 
L 337.677731 267.263749 
L 340.580558 274.612598 
L 343.483384 270.737965 
L 346.386211 271.415142 
L 349.289037 272.333748 
L 352.191864 272.098208 
L 355.094691 269.1834 
L 357.997517 268.082251 
L 360.900344 262.747269 
L 363.80317 269.583818 
L 366.705997 268.735874 
L 369.608824 264.684586 
L 372.51165 263.183018 
L 375.414477 269.81347 
L 378.317303 272.828382 
L 381.22013 264.814133 
L 384.122956 263.389115 
L 387.025783 260.892391 
L 389.92861 264.54915 
L 392.831436 268.147024 
L 395.734263 265.520753 
L 398.637089 262.499952 
L 401.539916 271.3857 
L 404.442743 255.969604 
L 407.345569 265.308767 
L 410.248396 259.9149 
L 413.151222 260.556746 
L 416.054049 258.925632 
L 418.956875 266.527686 
L 421.859702 240.264972 
L 424.762529 251.994866 
L 427.665355 259.013959 
L 430.568182 249.827898 
" clip-path="url(#pa87d57f5a7)" style="fill: none; stroke: #c44e52; stroke-width: 3; stroke-linecap: round"/>
   </g>
   <g id="line2d_20">
    <path d="M 85.131818 168.784458 
L 88.034645 161.78303 
L 90.937471 165.269023 
L 93.840298 162.466096 
L 96.743125 267.228418 
L 99.645951 281.855455 
L 102.548778 281.731796 
L 105.451604 281.855455 
L 108.354431 281.855455 
L 111.257257 281.855455 
L 114.160084 281.184165 
L 117.062911 276.461588 
L 119.965737 276.779567 
L 122.868564 280.206674 
L 125.77139 261.275144 
L 128.674217 265.043784 
L 131.577044 259.349604 
L 134.47987 264.59037 
L 137.382697 270.802738 
L 140.285523 265.585526 
L 143.18835 269.607372 
L 146.091176 264.649255 
L 148.994003 267.946815 
L 151.89683 275.27211 
L 154.799656 258.960963 
L 157.702483 277.774723 
L 160.605309 274.907023 
L 163.508136 274.394724 
L 166.410963 260.274098 
L 169.313789 268.888975 
L 172.216616 274.394724 
L 175.119442 277.845385 
L 178.022269 260.774621 
L 180.925095 268.382564 
L 183.827922 272.533957 
L 186.730749 265.520753 
L 189.633575 265.355875 
L 192.536402 274.347616 
L 195.439228 261.363471 
L 198.342055 266.457024 
L 201.244882 271.574132 
L 204.147708 276.72657 
L 207.050535 272.539846 
L 209.953361 267.004655 
L 212.856188 250.934936 
L 215.759015 263.795422 
L 218.661841 253.101904 
L 221.564668 249.280267 
L 224.467494 251.517897 
L 227.370321 264.802356 
L 230.273147 251.176364 
L 233.175974 257.606607 
L 236.078801 252.778037 
L 238.981627 252.195075 
L 241.884454 256.293472 
L 244.78728 262.770823 
L 247.690107 250.56396 
L 250.592934 268.87131 
L 253.49576 243.898177 
L 256.398587 231.920966 
L 259.301413 241.978526 
L 262.20424 261.063157 
L 265.107066 247.10741 
L 268.009893 222.782012 
L 270.91272 244.063055 
L 273.815546 227.616472 
L 276.718373 237.897794 
L 279.621199 229.277029 
L 282.524026 222.705462 
L 285.426853 244.657794 
L 288.329679 232.262499 
L 291.232506 249.339152 
L 294.135332 242.861801 
L 297.038159 260.639185 
L 299.940985 232.02107 
L 302.843812 233.298875 
L 305.746639 236.519885 
L 308.649465 235.100756 
L 311.552292 222.94689 
L 314.455118 230.466506 
L 317.357945 232.998562 
L 320.260772 225.372953 
L 323.163598 231.632429 
L 326.066425 229.012046 
L 328.969251 249.015284 
L 331.872078 260.009116 
L 334.774905 242.066853 
L 337.677731 239.746784 
L 340.580558 234.052603 
L 343.483384 244.345703 
L 346.386211 224.51912 
L 349.289037 250.322532 
L 352.191864 264.042739 
L 355.094691 246.59511 
L 357.997517 234.670896 
L 360.900344 242.225843 
L 363.80317 246.565668 
L 366.705997 236.849641 
L 369.608824 239.646679 
L 372.51165 248.379326 
L 375.414477 222.305044 
L 378.317303 235.789711 
L 381.22013 231.084799 
L 384.122956 236.461 
L 387.025783 239.240373 
L 389.92861 247.708037 
L 392.831436 232.344938 
L 395.734263 253.749639 
L 398.637089 252.978246 
L 401.539916 243.432985 
L 404.442743 248.497096 
L 407.345569 240.565285 
L 410.248396 244.039501 
L 413.151222 244.204379 
L 416.054049 249.833786 
L 418.956875 252.754483 
L 421.859702 243.8864 
L 424.762529 243.662637 
L 427.665355 233.033893 
L 430.568182 234.335251 
" clip-path="url(#pa87d57f5a7)" style="fill: none; stroke: #8172b3; stroke-width: 3; stroke-linecap: round"/>
   </g>
   <g id="line2d_21">
    <path d="M 85.131818 159.474738 
L 88.034645 167.659754 
L 90.937471 172.241008 
L 93.840298 179.218882 
L 96.743125 221.186229 
L 99.645951 248.738525 
L 102.548778 281.855455 
L 105.451604 275.042459 
L 108.354431 269.042076 
L 111.257257 273.393679 
L 114.160084 264.861241 
L 117.062911 269.93124 
L 119.965737 268.994968 
L 122.868564 269.672146 
L 125.77139 277.43319 
L 128.674217 276.567581 
L 131.577044 271.262041 
L 134.47987 280.30089 
L 137.382697 277.43319 
L 140.285523 274.418278 
L 143.18835 276.561692 
L 146.091176 270.290439 
L 148.994003 265.762181 
L 151.89683 272.351414 
L 154.799656 273.599776 
L 157.702483 227.498702 
L 160.605309 249.233159 
L 163.508136 261.569569 
L 166.410963 273.287686 
L 169.313789 248.232114 
L 172.216616 276.496919 
L 175.119442 275.54887 
L 178.022269 278.457789 
L 180.925095 273.770543 
L 183.827922 260.692182 
L 186.730749 269.277616 
L 189.633575 274.318173 
L 192.536402 276.237825 
L 195.439228 265.220439 
L 198.342055 248.332218 
L 201.244882 264.072181 
L 204.147708 261.275144 
L 207.050535 270.785073 
L 209.953361 253.761416 
L 212.856188 253.714308 
L 215.759015 259.932565 
L 218.661841 239.375808 
L 221.564668 211.729296 
L 224.467494 223.382639 
L 227.370321 237.491488 
L 230.273147 255.457305 
L 233.175974 221.65142 
L 236.078801 248.467654 
L 238.981627 259.750022 
L 241.884454 232.215391 
L 244.78728 243.60964 
L 247.690107 239.946993 
L 250.592934 233.758178 
L 253.49576 228.641071 
L 256.398587 240.541731 
L 259.301413 250.169431 
L 262.20424 234.488352 
L 265.107066 236.119467 
L 268.009893 246.983752 
L 270.91272 196.872608 
L 273.815546 232.168283 
L 276.718373 217.994661 
L 279.621199 223.889051 
L 282.524026 241.289571 
L 285.426853 205.528704 
L 288.329679 248.879849 
L 291.232506 220.35595 
L 294.135332 236.531662 
L 297.038159 241.949083 
L 299.940985 215.362501 
L 302.843812 217.823895 
L 305.746639 225.325845 
L 308.649465 224.984312 
L 311.552292 206.853617 
L 314.455118 210.904906 
L 317.357945 256.941207 
L 320.260772 215.627484 
L 323.163598 207.772223 
L 326.066425 233.528527 
L 328.969251 225.891141 
L 331.872078 224.254138 
L 334.774905 207.70745 
L 337.677731 219.13703 
L 340.580558 206.094001 
L 343.483384 201.389088 
L 346.386211 216.26933 
L 349.289037 210.981456 
L 352.191864 245.923821 
L 355.094691 270.779184 
L 357.997517 234.488352 
L 360.900344 234.994763 
L 363.80317 230.872813 
L 366.705997 206.824175 
L 369.608824 230.089642 
L 372.51165 230.007203 
L 375.414477 246.677549 
L 378.317303 244.339815 
L 381.22013 203.155638 
L 384.122956 229.147482 
L 387.025783 248.956399 
L 389.92861 232.975008 
L 392.831436 239.95877 
L 395.734263 216.746299 
L 398.637089 236.749537 
L 401.539916 234.117377 
L 404.442743 215.397832 
L 407.345569 224.631002 
L 410.248396 225.131524 
L 413.151222 210.469157 
L 416.054049 214.090585 
L 418.956875 216.298773 
L 421.859702 244.699013 
L 424.762529 240.329745 
L 427.665355 241.048143 
L 430.568182 240.341522 
" clip-path="url(#pa87d57f5a7)" style="fill: none; stroke: #937860; stroke-width: 3; stroke-linecap: round"/>
   </g>
   <g id="patch_3">
    <path d="M 67.86 294.66 
L 67.86 12.96 
" style="fill: none; stroke: #ffffff; stroke-width: 1.25; stroke-linejoin: miter; stroke-linecap: square"/>
   </g>
   <g id="patch_4">
    <path d="M 447.84 294.66 
L 447.84 12.96 
" style="fill: none; stroke: #ffffff; stroke-width: 1.25; stroke-linejoin: miter; stroke-linecap: square"/>
   </g>
   <g id="patch_5">
    <path d="M 67.86 294.66 
L 447.84 294.66 
" style="fill: none; stroke: #ffffff; stroke-width: 1.25; stroke-linejoin: miter; stroke-linecap: square"/>
   </g>
   <g id="patch_6">
    <path d="M 67.86 12.96 
L 447.84 12.96 
" style="fill: none; stroke: #ffffff; stroke-width: 1.25; stroke-linejoin: miter; stroke-linecap: square"/>
   </g>
   <g id="legend_1">
    <g id="patch_7">
     <path d="M 319.922031 118.635625 
L 440.14 118.635625 
Q 442.34 118.635625 442.34 116.435625 
L 442.34 20.66 
Q 442.34 18.46 440.14 18.46 
L 319.922031 18.46 
Q 317.722031 18.46 317.722031 20.66 
L 317.722031 116.435625 
Q 317.722031 118.635625 319.922031 118.635625 
z
" style="fill: #eaeaf2; opacity: 0.8; stroke: #cccccc; stroke-linejoin: miter"/>
    </g>
    <g id="line2d_22">
     <path d="M 322.122031 27.368281 
L 333.122031 27.368281 
L 344.122031 27.368281 
" style="fill: none; stroke: #4c72b0; stroke-width: 3; stroke-linecap: round"/>
    </g>
    <g id="text_18">
     <!-- SAC-DELAY-0 -->
     <g style="fill: #262626" transform="translate(352.922031 31.218281)scale(0.11 -0.11)">
      <defs>
       <path id="DejaVuSans-53" d="M 3425 4513 
L 3425 3897 
Q 3066 4069 2747 4153 
Q 2428 4238 2131 4238 
Q 1616 4238 1336 4038 
Q 1056 3838 1056 3469 
Q 1056 3159 1242 3001 
Q 1428 2844 1947 2747 
L 2328 2669 
Q 3034 2534 3370 2195 
Q 3706 1856 3706 1288 
Q 3706 609 3251 259 
Q 2797 -91 1919 -91 
Q 1588 -91 1214 -16 
Q 841 59 441 206 
L 441 856 
Q 825 641 1194 531 
Q 1563 422 1919 422 
Q 2459 422 2753 634 
Q 3047 847 3047 1241 
Q 3047 1584 2836 1778 
Q 2625 1972 2144 2069 
L 1759 2144 
Q 1053 2284 737 2584 
Q 422 2884 422 3419 
Q 422 4038 858 4394 
Q 1294 4750 2059 4750 
Q 2388 4750 2728 4690 
Q 3069 4631 3425 4513 
z
" transform="scale(0.015625)"/>
       <path id="DejaVuSans-41" d="M 2188 4044 
L 1331 1722 
L 3047 1722 
L 2188 4044 
z
M 1831 4666 
L 2547 4666 
L 4325 0 
L 3669 0 
L 3244 1197 
L 1141 1197 
L 716 0 
L 50 0 
L 1831 4666 
z
" transform="scale(0.015625)"/>
       <path id="DejaVuSans-43" d="M 4122 4306 
L 4122 3641 
Q 3803 3938 3442 4084 
Q 3081 4231 2675 4231 
Q 1875 4231 1450 3742 
Q 1025 3253 1025 2328 
Q 1025 1406 1450 917 
Q 1875 428 2675 428 
Q 3081 428 3442 575 
Q 3803 722 4122 1019 
L 4122 359 
Q 3791 134 3420 21 
Q 3050 -91 2638 -91 
Q 1578 -91 968 557 
Q 359 1206 359 2328 
Q 359 3453 968 4101 
Q 1578 4750 2638 4750 
Q 3056 4750 3426 4639 
Q 3797 4528 4122 4306 
z
" transform="scale(0.015625)"/>
       <path id="DejaVuSans-2d" d="M 313 2009 
L 1997 2009 
L 1997 1497 
L 313 1497 
L 313 2009 
z
" transform="scale(0.015625)"/>
       <path id="DejaVuSans-44" d="M 1259 4147 
L 1259 519 
L 2022 519 
Q 2988 519 3436 956 
Q 3884 1394 3884 2338 
Q 3884 3275 3436 3711 
Q 2988 4147 2022 4147 
L 1259 4147 
z
M 628 4666 
L 1925 4666 
Q 3281 4666 3915 4102 
Q 4550 3538 4550 2338 
Q 4550 1131 3912 565 
Q 3275 0 1925 0 
L 628 0 
L 628 4666 
z
" transform="scale(0.015625)"/>
       <path id="DejaVuSans-45" d="M 628 4666 
L 3578 4666 
L 3578 4134 
L 1259 4134 
L 1259 2753 
L 3481 2753 
L 3481 2222 
L 1259 2222 
L 1259 531 
L 3634 531 
L 3634 0 
L 628 0 
L 628 4666 
z
" transform="scale(0.015625)"/>
       <path id="DejaVuSans-4c" d="M 628 4666 
L 1259 4666 
L 1259 531 
L 3531 531 
L 3531 0 
L 628 0 
L 628 4666 
z
" transform="scale(0.015625)"/>
       <path id="DejaVuSans-59" d="M -13 4666 
L 666 4666 
L 1959 2747 
L 3244 4666 
L 3922 4666 
L 2272 2222 
L 2272 0 
L 1638 0 
L 1638 2222 
L -13 4666 
z
" transform="scale(0.015625)"/>
      </defs>
      <use xlink:href="#DejaVuSans-53"/>
      <use xlink:href="#DejaVuSans-41" x="65.351562"/>
      <use xlink:href="#DejaVuSans-43" x="132.009766"/>
      <use xlink:href="#DejaVuSans-2d" x="201.833984"/>
      <use xlink:href="#DejaVuSans-44" x="237.917969"/>
      <use xlink:href="#DejaVuSans-45" x="314.919922"/>
      <use xlink:href="#DejaVuSans-4c" x="378.103516"/>
      <use xlink:href="#DejaVuSans-41" x="436.066406"/>
      <use xlink:href="#DejaVuSans-59" x="496.724609"/>
      <use xlink:href="#DejaVuSans-2d" x="545.933594"/>
      <use xlink:href="#DejaVuSans-30" x="582.017578"/>
     </g>
    </g>
    <g id="line2d_23">
     <path d="M 322.122031 43.514219 
L 333.122031 43.514219 
L 344.122031 43.514219 
" style="fill: none; stroke: #dd8452; stroke-width: 3; stroke-linecap: round"/>
    </g>
    <g id="text_19">
     <!-- SAC-DELAY-1 -->
     <g style="fill: #262626" transform="translate(352.922031 47.364219)scale(0.11 -0.11)">
      <use xlink:href="#DejaVuSans-53"/>
      <use xlink:href="#DejaVuSans-41" x="65.351562"/>
      <use xlink:href="#DejaVuSans-43" x="132.009766"/>
      <use xlink:href="#DejaVuSans-2d" x="201.833984"/>
      <use xlink:href="#DejaVuSans-44" x="237.917969"/>
      <use xlink:href="#DejaVuSans-45" x="314.919922"/>
      <use xlink:href="#DejaVuSans-4c" x="378.103516"/>
      <use xlink:href="#DejaVuSans-41" x="436.066406"/>
      <use xlink:href="#DejaVuSans-59" x="496.724609"/>
      <use xlink:href="#DejaVuSans-2d" x="545.933594"/>
      <use xlink:href="#DejaVuSans-31" x="582.017578"/>
     </g>
    </g>
    <g id="line2d_24">
     <path d="M 322.122031 59.660156 
L 333.122031 59.660156 
L 344.122031 59.660156 
" style="fill: none; stroke: #55a868; stroke-width: 3; stroke-linecap: round"/>
    </g>
    <g id="text_20">
     <!-- SAC-DELAY-5 -->
     <g style="fill: #262626" transform="translate(352.922031 63.510156)scale(0.11 -0.11)">
      <use xlink:href="#DejaVuSans-53"/>
      <use xlink:href="#DejaVuSans-41" x="65.351562"/>
      <use xlink:href="#DejaVuSans-43" x="132.009766"/>
      <use xlink:href="#DejaVuSans-2d" x="201.833984"/>
      <use xlink:href="#DejaVuSans-44" x="237.917969"/>
      <use xlink:href="#DejaVuSans-45" x="314.919922"/>
      <use xlink:href="#DejaVuSans-4c" x="378.103516"/>
      <use xlink:href="#DejaVuSans-41" x="436.066406"/>
      <use xlink:href="#DejaVuSans-59" x="496.724609"/>
      <use xlink:href="#DejaVuSans-2d" x="545.933594"/>
      <use xlink:href="#DejaVuSans-35" x="582.017578"/>
     </g>
    </g>
    <g id="line2d_25">
     <path d="M 322.122031 75.806094 
L 333.122031 75.806094 
L 344.122031 75.806094 
" style="fill: none; stroke: #c44e52; stroke-width: 3; stroke-linecap: round"/>
    </g>
    <g id="text_21">
     <!-- SAC-DELAY-10 -->
     <g style="fill: #262626" transform="translate(352.922031 79.656094)scale(0.11 -0.11)">
      <use xlink:href="#DejaVuSans-53"/>
      <use xlink:href="#DejaVuSans-41" x="65.351562"/>
      <use xlink:href="#DejaVuSans-43" x="132.009766"/>
      <use xlink:href="#DejaVuSans-2d" x="201.833984"/>
      <use xlink:href="#DejaVuSans-44" x="237.917969"/>
      <use xlink:href="#DejaVuSans-45" x="314.919922"/>
      <use xlink:href="#DejaVuSans-4c" x="378.103516"/>
      <use xlink:href="#DejaVuSans-41" x="436.066406"/>
      <use xlink:href="#DejaVuSans-59" x="496.724609"/>
      <use xlink:href="#DejaVuSans-2d" x="545.933594"/>
      <use xlink:href="#DejaVuSans-31" x="582.017578"/>
      <use xlink:href="#DejaVuSans-30" x="645.640625"/>
     </g>
    </g>
    <g id="line2d_26">
     <path d="M 322.122031 91.952031 
L 333.122031 91.952031 
L 344.122031 91.952031 
" style="fill: none; stroke: #8172b3; stroke-width: 3; stroke-linecap: round"/>
    </g>
    <g id="text_22">
     <!-- SAC-DELAY-20 -->
     <g style="fill: #262626" transform="translate(352.922031 95.802031)scale(0.11 -0.11)">
      <use xlink:href="#DejaVuSans-53"/>
      <use xlink:href="#DejaVuSans-41" x="65.351562"/>
      <use xlink:href="#DejaVuSans-43" x="132.009766"/>
      <use xlink:href="#DejaVuSans-2d" x="201.833984"/>
      <use xlink:href="#DejaVuSans-44" x="237.917969"/>
      <use xlink:href="#DejaVuSans-45" x="314.919922"/>
      <use xlink:href="#DejaVuSans-4c" x="378.103516"/>
      <use xlink:href="#DejaVuSans-41" x="436.066406"/>
      <use xlink:href="#DejaVuSans-59" x="496.724609"/>
      <use xlink:href="#DejaVuSans-2d" x="545.933594"/>
      <use xlink:href="#DejaVuSans-32" x="582.017578"/>
      <use xlink:href="#DejaVuSans-30" x="645.640625"/>
     </g>
    </g>
    <g id="line2d_27">
     <path d="M 322.122031 108.097969 
L 333.122031 108.097969 
L 344.122031 108.097969 
" style="fill: none; stroke: #937860; stroke-width: 3; stroke-linecap: round"/>
    </g>
    <g id="text_23">
     <!-- SAC-DELAY-100 -->
     <g style="fill: #262626" transform="translate(352.922031 111.947969)scale(0.11 -0.11)">
      <use xlink:href="#DejaVuSans-53"/>
      <use xlink:href="#DejaVuSans-41" x="65.351562"/>
      <use xlink:href="#DejaVuSans-43" x="132.009766"/>
      <use xlink:href="#DejaVuSans-2d" x="201.833984"/>
      <use xlink:href="#DejaVuSans-44" x="237.917969"/>
      <use xlink:href="#DejaVuSans-45" x="314.919922"/>
      <use xlink:href="#DejaVuSans-4c" x="378.103516"/>
      <use xlink:href="#DejaVuSans-41" x="436.066406"/>
      <use xlink:href="#DejaVuSans-59" x="496.724609"/>
      <use xlink:href="#DejaVuSans-2d" x="545.933594"/>
      <use xlink:href="#DejaVuSans-31" x="582.017578"/>
      <use xlink:href="#DejaVuSans-30" x="645.640625"/>
      <use xlink:href="#DejaVuSans-30" x="709.263672"/>
     </g>
    </g>
   </g>
  </g>
 </g>
 <defs>
  <clipPath id="pa87d57f5a7">
   <rect x="67.86" y="12.96" width="379.98" height="281.7"/>
  </clipPath>
 </defs>
</svg>
