<?xml version="1.0" encoding="utf-8" standalone="no"?>
<!DOCTYPE svg PUBLIC "-//W3C//DTD SVG 1.1//EN"
  "http://www.w3.org/Graphics/SVG/1.1/DTD/svg11.dtd">
<svg xmlns:xlink="http://www.w3.org/1999/xlink" width="460.8pt" height="345.6pt" viewBox="0 0 460.8 345.6" xmlns="http://www.w3.org/2000/svg" version="1.1">
 <metadata>
  <rdf:RDF xmlns:dc="http://purl.org/dc/elements/1.1/" xmlns:cc="http://creativecommons.org/ns#" xmlns:rdf="http://www.w3.org/1999/02/22-rdf-syntax-ns#">
   <cc:Work>
    <dc:type rdf:resource="http://purl.org/dc/dcmitype/StillImage"/>
    <dc:date>2022-09-10T15:51:23.439966</dc:date>
    <dc:format>image/svg+xml</dc:format>
    <dc:creator>
     <cc:Agent>
      <dc:title>Matplotlib v3.5.3, https://matplotlib.org/</dc:title>
     </cc:Agent>
    </dc:creator>
   </cc:Work>
  </rdf:RDF>
 </metadata>
 <defs>
  <style type="text/css">*{stroke-linejoin: round; stroke-linecap: butt}</style>
 </defs>
 <g id="figure_1">
  <g id="patch_1">
   <path d="M 0 345.6 
L 460.8 345.6 
L 460.8 0 
L 0 0 
z
" style="fill: #ffffff"/>
  </g>
  <g id="axes_1">
   <g id="patch_2">
    <path d="M 67.86 294.66 
L 447.84 294.66 
L 447.84 29.76 
L 67.86 29.76 
z
" style="fill: #eaeaf2"/>
   </g>
   <g id="matplotlib.axis_1">
    <g id="xtick_1">
     <g id="line2d_1">
      <path d="M 82.228992 294.66 
L 82.228992 29.76 
" clip-path="url(#pffcb24b94a)" style="fill: none; stroke: #ffffff; stroke-linecap: round"/>
     </g>
     <g id="text_1">
      <!-- 0.00 -->
      <g style="fill: #262626" transform="translate(69.982898 312.518281)scale(0.11 -0.11)">
       <defs>
        <path id="DejaVuSans-30" d="M 2034 4250 
Q 1547 4250 1301 3770 
Q 1056 3291 1056 2328 
Q 1056 1369 1301 889 
Q 1547 409 2034 409 
Q 2525 409 2770 889 
Q 3016 1369 3016 2328 
Q 3016 3291 2770 3770 
Q 2525 4250 2034 4250 
z
M 2034 4750 
Q 2819 4750 3233 4129 
Q 3647 3509 3647 2328 
Q 3647 1150 3233 529 
Q 2819 -91 2034 -91 
Q 1250 -91 836 529 
Q 422 1150 422 2328 
Q 422 3509 836 4129 
Q 1250 4750 2034 4750 
z
" transform="scale(0.015625)"/>
        <path id="DejaVuSans-2e" d="M 684 794 
L 1344 794 
L 1344 0 
L 684 0 
L 684 794 
z
" transform="scale(0.015625)"/>
       </defs>
       <use xlink:href="#DejaVuSans-30"/>
       <use xlink:href="#DejaVuSans-2e" x="63.623047"/>
       <use xlink:href="#DejaVuSans-30" x="95.410156"/>
       <use xlink:href="#DejaVuSans-30" x="159.033203"/>
      </g>
     </g>
    </g>
    <g id="xtick_2">
     <g id="line2d_2">
      <path d="M 140.285523 294.66 
L 140.285523 29.76 
" clip-path="url(#pffcb24b94a)" style="fill: none; stroke: #ffffff; stroke-linecap: round"/>
     </g>
     <g id="text_2">
      <!-- 0.05 -->
      <g style="fill: #262626" transform="translate(128.03943 312.518281)scale(0.11 -0.11)">
       <defs>
        <path id="DejaVuSans-35" d="M 691 4666 
L 3169 4666 
L 3169 4134 
L 1269 4134 
L 1269 2991 
Q 1406 3038 1543 3061 
Q 1681 3084 1819 3084 
Q 2600 3084 3056 2656 
Q 3513 2228 3513 1497 
Q 3513 744 3044 326 
Q 2575 -91 1722 -91 
Q 1428 -91 1123 -41 
Q 819 9 494 109 
L 494 744 
Q 775 591 1075 516 
Q 1375 441 1709 441 
Q 2250 441 2565 725 
Q 2881 1009 2881 1497 
Q 2881 1984 2565 2268 
Q 2250 2553 1709 2553 
Q 1456 2553 1204 2497 
Q 953 2441 691 2322 
L 691 4666 
z
" transform="scale(0.015625)"/>
       </defs>
       <use xlink:href="#DejaVuSans-30"/>
       <use xlink:href="#DejaVuSans-2e" x="63.623047"/>
       <use xlink:href="#DejaVuSans-30" x="95.410156"/>
       <use xlink:href="#DejaVuSans-35" x="159.033203"/>
      </g>
     </g>
    </g>
    <g id="xtick_3">
     <g id="line2d_3">
      <path d="M 198.342055 294.66 
L 198.342055 29.76 
" clip-path="url(#pffcb24b94a)" style="fill: none; stroke: #ffffff; stroke-linecap: round"/>
     </g>
     <g id="text_3">
      <!-- 0.10 -->
      <g style="fill: #262626" transform="translate(186.095961 312.518281)scale(0.11 -0.11)">
       <defs>
        <path id="DejaVuSans-31" d="M 794 531 
L 1825 531 
L 1825 4091 
L 703 3866 
L 703 4441 
L 1819 4666 
L 2450 4666 
L 2450 531 
L 3481 531 
L 3481 0 
L 794 0 
L 794 531 
z
" transform="scale(0.015625)"/>
       </defs>
       <use xlink:href="#DejaVuSans-30"/>
       <use xlink:href="#DejaVuSans-2e" x="63.623047"/>
       <use xlink:href="#DejaVuSans-31" x="95.410156"/>
       <use xlink:href="#DejaVuSans-30" x="159.033203"/>
      </g>
     </g>
    </g>
    <g id="xtick_4">
     <g id="line2d_4">
      <path d="M 256.398587 294.66 
L 256.398587 29.76 
" clip-path="url(#pffcb24b94a)" style="fill: none; stroke: #ffffff; stroke-linecap: round"/>
     </g>
     <g id="text_4">
      <!-- 0.15 -->
      <g style="fill: #262626" transform="translate(244.152493 312.518281)scale(0.11 -0.11)">
       <use xlink:href="#DejaVuSans-30"/>
       <use xlink:href="#DejaVuSans-2e" x="63.623047"/>
       <use xlink:href="#DejaVuSans-31" x="95.410156"/>
       <use xlink:href="#DejaVuSans-35" x="159.033203"/>
      </g>
     </g>
    </g>
    <g id="xtick_5">
     <g id="line2d_5">
      <path d="M 314.455118 294.66 
L 314.455118 29.76 
" clip-path="url(#pffcb24b94a)" style="fill: none; stroke: #ffffff; stroke-linecap: round"/>
     </g>
     <g id="text_5">
      <!-- 0.20 -->
      <g style="fill: #262626" transform="translate(302.209025 312.518281)scale(0.11 -0.11)">
       <defs>
        <path id="DejaVuSans-32" d="M 1228 531 
L 3431 531 
L 3431 0 
L 469 0 
L 469 531 
Q 828 903 1448 1529 
Q 2069 2156 2228 2338 
Q 2531 2678 2651 2914 
Q 2772 3150 2772 3378 
Q 2772 3750 2511 3984 
Q 2250 4219 1831 4219 
Q 1534 4219 1204 4116 
Q 875 4013 500 3803 
L 500 4441 
Q 881 4594 1212 4672 
Q 1544 4750 1819 4750 
Q 2544 4750 2975 4387 
Q 3406 4025 3406 3419 
Q 3406 3131 3298 2873 
Q 3191 2616 2906 2266 
Q 2828 2175 2409 1742 
Q 1991 1309 1228 531 
z
" transform="scale(0.015625)"/>
       </defs>
       <use xlink:href="#DejaVuSans-30"/>
       <use xlink:href="#DejaVuSans-2e" x="63.623047"/>
       <use xlink:href="#DejaVuSans-32" x="95.410156"/>
       <use xlink:href="#DejaVuSans-30" x="159.033203"/>
      </g>
     </g>
    </g>
    <g id="xtick_6">
     <g id="line2d_6">
      <path d="M 372.51165 294.66 
L 372.51165 29.76 
" clip-path="url(#pffcb24b94a)" style="fill: none; stroke: #ffffff; stroke-linecap: round"/>
     </g>
     <g id="text_6">
      <!-- 0.25 -->
      <g style="fill: #262626" transform="translate(360.265556 312.518281)scale(0.11 -0.11)">
       <use xlink:href="#DejaVuSans-30"/>
       <use xlink:href="#DejaVuSans-2e" x="63.623047"/>
       <use xlink:href="#DejaVuSans-32" x="95.410156"/>
       <use xlink:href="#DejaVuSans-35" x="159.033203"/>
      </g>
     </g>
    </g>
    <g id="xtick_7">
     <g id="line2d_7">
      <path d="M 430.568182 294.66 
L 430.568182 29.76 
" clip-path="url(#pffcb24b94a)" style="fill: none; stroke: #ffffff; stroke-linecap: round"/>
     </g>
     <g id="text_7">
      <!-- 0.30 -->
      <g style="fill: #262626" transform="translate(418.322088 312.518281)scale(0.11 -0.11)">
       <defs>
        <path id="DejaVuSans-33" d="M 2597 2516 
Q 3050 2419 3304 2112 
Q 3559 1806 3559 1356 
Q 3559 666 3084 287 
Q 2609 -91 1734 -91 
Q 1441 -91 1130 -33 
Q 819 25 488 141 
L 488 750 
Q 750 597 1062 519 
Q 1375 441 1716 441 
Q 2309 441 2620 675 
Q 2931 909 2931 1356 
Q 2931 1769 2642 2001 
Q 2353 2234 1838 2234 
L 1294 2234 
L 1294 2753 
L 1863 2753 
Q 2328 2753 2575 2939 
Q 2822 3125 2822 3475 
Q 2822 3834 2567 4026 
Q 2313 4219 1838 4219 
Q 1578 4219 1281 4162 
Q 984 4106 628 3988 
L 628 4550 
Q 988 4650 1302 4700 
Q 1616 4750 1894 4750 
Q 2613 4750 3031 4423 
Q 3450 4097 3450 3541 
Q 3450 3153 3228 2886 
Q 3006 2619 2597 2516 
z
" transform="scale(0.015625)"/>
       </defs>
       <use xlink:href="#DejaVuSans-30"/>
       <use xlink:href="#DejaVuSans-2e" x="63.623047"/>
       <use xlink:href="#DejaVuSans-33" x="95.410156"/>
       <use xlink:href="#DejaVuSans-30" x="159.033203"/>
      </g>
     </g>
    </g>
    <g id="text_8">
     <!-- Timesteps (in Million) -->
     <g style="fill: #262626" transform="translate(183.104219 329.44375)scale(0.14 -0.14)">
      <defs>
       <path id="DejaVuSans-54" d="M -19 4666 
L 3928 4666 
L 3928 4134 
L 2272 4134 
L 2272 0 
L 1638 0 
L 1638 4134 
L -19 4134 
L -19 4666 
z
" transform="scale(0.015625)"/>
       <path id="DejaVuSans-69" d="M 603 3500 
L 1178 3500 
L 1178 0 
L 603 0 
L 603 3500 
z
M 603 4863 
L 1178 4863 
L 1178 4134 
L 603 4134 
L 603 4863 
z
" transform="scale(0.015625)"/>
       <path id="DejaVuSans-6d" d="M 3328 2828 
Q 3544 3216 3844 3400 
Q 4144 3584 4550 3584 
Q 5097 3584 5394 3201 
Q 5691 2819 5691 2113 
L 5691 0 
L 5113 0 
L 5113 2094 
Q 5113 2597 4934 2840 
Q 4756 3084 4391 3084 
Q 3944 3084 3684 2787 
Q 3425 2491 3425 1978 
L 3425 0 
L 2847 0 
L 2847 2094 
Q 2847 2600 2669 2842 
Q 2491 3084 2119 3084 
Q 1678 3084 1418 2786 
Q 1159 2488 1159 1978 
L 1159 0 
L 581 0 
L 581 3500 
L 1159 3500 
L 1159 2956 
Q 1356 3278 1631 3431 
Q 1906 3584 2284 3584 
Q 2666 3584 2933 3390 
Q 3200 3197 3328 2828 
z
" transform="scale(0.015625)"/>
       <path id="DejaVuSans-65" d="M 3597 1894 
L 3597 1613 
L 953 1613 
Q 991 1019 1311 708 
Q 1631 397 2203 397 
Q 2534 397 2845 478 
Q 3156 559 3463 722 
L 3463 178 
Q 3153 47 2828 -22 
Q 2503 -91 2169 -91 
Q 1331 -91 842 396 
Q 353 884 353 1716 
Q 353 2575 817 3079 
Q 1281 3584 2069 3584 
Q 2775 3584 3186 3129 
Q 3597 2675 3597 1894 
z
M 3022 2063 
Q 3016 2534 2758 2815 
Q 2500 3097 2075 3097 
Q 1594 3097 1305 2825 
Q 1016 2553 972 2059 
L 3022 2063 
z
" transform="scale(0.015625)"/>
       <path id="DejaVuSans-73" d="M 2834 3397 
L 2834 2853 
Q 2591 2978 2328 3040 
Q 2066 3103 1784 3103 
Q 1356 3103 1142 2972 
Q 928 2841 928 2578 
Q 928 2378 1081 2264 
Q 1234 2150 1697 2047 
L 1894 2003 
Q 2506 1872 2764 1633 
Q 3022 1394 3022 966 
Q 3022 478 2636 193 
Q 2250 -91 1575 -91 
Q 1294 -91 989 -36 
Q 684 19 347 128 
L 347 722 
Q 666 556 975 473 
Q 1284 391 1588 391 
Q 1994 391 2212 530 
Q 2431 669 2431 922 
Q 2431 1156 2273 1281 
Q 2116 1406 1581 1522 
L 1381 1569 
Q 847 1681 609 1914 
Q 372 2147 372 2553 
Q 372 3047 722 3315 
Q 1072 3584 1716 3584 
Q 2034 3584 2315 3537 
Q 2597 3491 2834 3397 
z
" transform="scale(0.015625)"/>
       <path id="DejaVuSans-74" d="M 1172 4494 
L 1172 3500 
L 2356 3500 
L 2356 3053 
L 1172 3053 
L 1172 1153 
Q 1172 725 1289 603 
Q 1406 481 1766 481 
L 2356 481 
L 2356 0 
L 1766 0 
Q 1100 0 847 248 
Q 594 497 594 1153 
L 594 3053 
L 172 3053 
L 172 3500 
L 594 3500 
L 594 4494 
L 1172 4494 
z
" transform="scale(0.015625)"/>
       <path id="DejaVuSans-70" d="M 1159 525 
L 1159 -1331 
L 581 -1331 
L 581 3500 
L 1159 3500 
L 1159 2969 
Q 1341 3281 1617 3432 
Q 1894 3584 2278 3584 
Q 2916 3584 3314 3078 
Q 3713 2572 3713 1747 
Q 3713 922 3314 415 
Q 2916 -91 2278 -91 
Q 1894 -91 1617 61 
Q 1341 213 1159 525 
z
M 3116 1747 
Q 3116 2381 2855 2742 
Q 2594 3103 2138 3103 
Q 1681 3103 1420 2742 
Q 1159 2381 1159 1747 
Q 1159 1113 1420 752 
Q 1681 391 2138 391 
Q 2594 391 2855 752 
Q 3116 1113 3116 1747 
z
" transform="scale(0.015625)"/>
       <path id="DejaVuSans-20" transform="scale(0.015625)"/>
       <path id="DejaVuSans-28" d="M 1984 4856 
Q 1566 4138 1362 3434 
Q 1159 2731 1159 2009 
Q 1159 1288 1364 580 
Q 1569 -128 1984 -844 
L 1484 -844 
Q 1016 -109 783 600 
Q 550 1309 550 2009 
Q 550 2706 781 3412 
Q 1013 4119 1484 4856 
L 1984 4856 
z
" transform="scale(0.015625)"/>
       <path id="DejaVuSans-6e" d="M 3513 2113 
L 3513 0 
L 2938 0 
L 2938 2094 
Q 2938 2591 2744 2837 
Q 2550 3084 2163 3084 
Q 1697 3084 1428 2787 
Q 1159 2491 1159 1978 
L 1159 0 
L 581 0 
L 581 3500 
L 1159 3500 
L 1159 2956 
Q 1366 3272 1645 3428 
Q 1925 3584 2291 3584 
Q 2894 3584 3203 3211 
Q 3513 2838 3513 2113 
z
" transform="scale(0.015625)"/>
       <path id="DejaVuSans-4d" d="M 628 4666 
L 1569 4666 
L 2759 1491 
L 3956 4666 
L 4897 4666 
L 4897 0 
L 4281 0 
L 4281 4097 
L 3078 897 
L 2444 897 
L 1241 4097 
L 1241 0 
L 628 0 
L 628 4666 
z
" transform="scale(0.015625)"/>
       <path id="DejaVuSans-6c" d="M 603 4863 
L 1178 4863 
L 1178 0 
L 603 0 
L 603 4863 
z
" transform="scale(0.015625)"/>
       <path id="DejaVuSans-6f" d="M 1959 3097 
Q 1497 3097 1228 2736 
Q 959 2375 959 1747 
Q 959 1119 1226 758 
Q 1494 397 1959 397 
Q 2419 397 2687 759 
Q 2956 1122 2956 1747 
Q 2956 2369 2687 2733 
Q 2419 3097 1959 3097 
z
M 1959 3584 
Q 2709 3584 3137 3096 
Q 3566 2609 3566 1747 
Q 3566 888 3137 398 
Q 2709 -91 1959 -91 
Q 1206 -91 779 398 
Q 353 888 353 1747 
Q 353 2609 779 3096 
Q 1206 3584 1959 3584 
z
" transform="scale(0.015625)"/>
       <path id="DejaVuSans-29" d="M 513 4856 
L 1013 4856 
Q 1481 4119 1714 3412 
Q 1947 2706 1947 2009 
Q 1947 1309 1714 600 
Q 1481 -109 1013 -844 
L 513 -844 
Q 928 -128 1133 580 
Q 1338 1288 1338 2009 
Q 1338 2731 1133 3434 
Q 928 4138 513 4856 
z
" transform="scale(0.015625)"/>
      </defs>
      <use xlink:href="#DejaVuSans-54"/>
      <use xlink:href="#DejaVuSans-69" x="57.958984"/>
      <use xlink:href="#DejaVuSans-6d" x="85.742188"/>
      <use xlink:href="#DejaVuSans-65" x="183.154297"/>
      <use xlink:href="#DejaVuSans-73" x="244.677734"/>
      <use xlink:href="#DejaVuSans-74" x="296.777344"/>
      <use xlink:href="#DejaVuSans-65" x="335.986328"/>
      <use xlink:href="#DejaVuSans-70" x="397.509766"/>
      <use xlink:href="#DejaVuSans-73" x="460.986328"/>
      <use xlink:href="#DejaVuSans-20" x="513.085938"/>
      <use xlink:href="#DejaVuSans-28" x="544.873047"/>
      <use xlink:href="#DejaVuSans-69" x="583.886719"/>
      <use xlink:href="#DejaVuSans-6e" x="611.669922"/>
      <use xlink:href="#DejaVuSans-20" x="675.048828"/>
      <use xlink:href="#DejaVuSans-4d" x="706.835938"/>
      <use xlink:href="#DejaVuSans-69" x="793.115234"/>
      <use xlink:href="#DejaVuSans-6c" x="820.898438"/>
      <use xlink:href="#DejaVuSans-6c" x="848.681641"/>
      <use xlink:href="#DejaVuSans-69" x="876.464844"/>
      <use xlink:href="#DejaVuSans-6f" x="904.248047"/>
      <use xlink:href="#DejaVuSans-6e" x="965.429688"/>
      <use xlink:href="#DejaVuSans-29" x="1028.808594"/>
     </g>
    </g>
   </g>
   <g id="matplotlib.axis_2">
    <g id="ytick_1">
     <g id="line2d_8">
      <path d="M 67.86 282.619091 
L 447.84 282.619091 
" clip-path="url(#pffcb24b94a)" style="fill: none; stroke: #ffffff; stroke-linecap: round"/>
     </g>
     <g id="text_9">
      <!-- 0 -->
      <g style="fill: #262626" transform="translate(51.36125 286.798232)scale(0.11 -0.11)">
       <use xlink:href="#DejaVuSans-30"/>
      </g>
     </g>
    </g>
    <g id="ytick_2">
     <g id="line2d_9">
      <path d="M 67.86 232.448636 
L 447.84 232.448636 
" clip-path="url(#pffcb24b94a)" style="fill: none; stroke: #ffffff; stroke-linecap: round"/>
     </g>
     <g id="text_10">
      <!-- 500 -->
      <g style="fill: #262626" transform="translate(37.36375 236.627777)scale(0.11 -0.11)">
       <use xlink:href="#DejaVuSans-35"/>
       <use xlink:href="#DejaVuSans-30" x="63.623047"/>
       <use xlink:href="#DejaVuSans-30" x="127.246094"/>
      </g>
     </g>
    </g>
    <g id="ytick_3">
     <g id="line2d_10">
      <path d="M 67.86 182.278182 
L 447.84 182.278182 
" clip-path="url(#pffcb24b94a)" style="fill: none; stroke: #ffffff; stroke-linecap: round"/>
     </g>
     <g id="text_11">
      <!-- 1000 -->
      <g style="fill: #262626" transform="translate(30.365 186.457322)scale(0.11 -0.11)">
       <use xlink:href="#DejaVuSans-31"/>
       <use xlink:href="#DejaVuSans-30" x="63.623047"/>
       <use xlink:href="#DejaVuSans-30" x="127.246094"/>
       <use xlink:href="#DejaVuSans-30" x="190.869141"/>
      </g>
     </g>
    </g>
    <g id="ytick_4">
     <g id="line2d_11">
      <path d="M 67.86 132.107727 
L 447.84 132.107727 
" clip-path="url(#pffcb24b94a)" style="fill: none; stroke: #ffffff; stroke-linecap: round"/>
     </g>
     <g id="text_12">
      <!-- 1500 -->
      <g style="fill: #262626" transform="translate(30.365 136.286868)scale(0.11 -0.11)">
       <use xlink:href="#DejaVuSans-31"/>
       <use xlink:href="#DejaVuSans-35" x="63.623047"/>
       <use xlink:href="#DejaVuSans-30" x="127.246094"/>
       <use xlink:href="#DejaVuSans-30" x="190.869141"/>
      </g>
     </g>
    </g>
    <g id="ytick_5">
     <g id="line2d_12">
      <path d="M 67.86 81.937273 
L 447.84 81.937273 
" clip-path="url(#pffcb24b94a)" style="fill: none; stroke: #ffffff; stroke-linecap: round"/>
     </g>
     <g id="text_13">
      <!-- 2000 -->
      <g style="fill: #262626" transform="translate(30.365 86.116413)scale(0.11 -0.11)">
       <use xlink:href="#DejaVuSans-32"/>
       <use xlink:href="#DejaVuSans-30" x="63.623047"/>
       <use xlink:href="#DejaVuSans-30" x="127.246094"/>
       <use xlink:href="#DejaVuSans-30" x="190.869141"/>
      </g>
     </g>
    </g>
    <g id="ytick_6">
     <g id="line2d_13">
      <path d="M 67.86 31.766818 
L 447.84 31.766818 
" clip-path="url(#pffcb24b94a)" style="fill: none; stroke: #ffffff; stroke-linecap: round"/>
     </g>
     <g id="text_14">
      <!-- 2500 -->
      <g style="fill: #262626" transform="translate(30.365 35.945959)scale(0.11 -0.11)">
       <use xlink:href="#DejaVuSans-32"/>
       <use xlink:href="#DejaVuSans-35" x="63.623047"/>
       <use xlink:href="#DejaVuSans-30" x="127.246094"/>
       <use xlink:href="#DejaVuSans-30" x="190.869141"/>
      </g>
     </g>
    </g>
    <g id="text_15">
     <!-- # Lows (Δx &lt; 0) -->
     <g style="fill: #262626" transform="translate(23.453438 219.12)rotate(-90)scale(0.14 -0.14)">
      <defs>
       <path id="DejaVuSans-23" d="M 3272 2816 
L 2363 2816 
L 2100 1772 
L 3016 1772 
L 3272 2816 
z
M 2803 4594 
L 2478 3297 
L 3391 3297 
L 3719 4594 
L 4219 4594 
L 3897 3297 
L 4872 3297 
L 4872 2816 
L 3775 2816 
L 3519 1772 
L 4513 1772 
L 4513 1294 
L 3397 1294 
L 3072 0 
L 2572 0 
L 2894 1294 
L 1978 1294 
L 1656 0 
L 1153 0 
L 1478 1294 
L 494 1294 
L 494 1772 
L 1594 1772 
L 1856 2816 
L 850 2816 
L 850 3297 
L 1978 3297 
L 2297 4594 
L 2803 4594 
z
" transform="scale(0.015625)"/>
       <path id="DejaVuSans-4c" d="M 628 4666 
L 1259 4666 
L 1259 531 
L 3531 531 
L 3531 0 
L 628 0 
L 628 4666 
z
" transform="scale(0.015625)"/>
       <path id="DejaVuSans-77" d="M 269 3500 
L 844 3500 
L 1563 769 
L 2278 3500 
L 2956 3500 
L 3675 769 
L 4391 3500 
L 4966 3500 
L 4050 0 
L 3372 0 
L 2619 2869 
L 1863 0 
L 1184 0 
L 269 3500 
z
" transform="scale(0.015625)"/>
       <path id="DejaVuSans-394" d="M 2188 4044 
L 906 525 
L 3472 525 
L 2188 4044 
z
M 50 0 
L 1831 4666 
L 2547 4666 
L 4325 0 
L 50 0 
z
" transform="scale(0.015625)"/>
       <path id="DejaVuSans-78" d="M 3513 3500 
L 2247 1797 
L 3578 0 
L 2900 0 
L 1881 1375 
L 863 0 
L 184 0 
L 1544 1831 
L 300 3500 
L 978 3500 
L 1906 2253 
L 2834 3500 
L 3513 3500 
z
" transform="scale(0.015625)"/>
       <path id="DejaVuSans-3c" d="M 4684 3150 
L 1459 2003 
L 4684 863 
L 4684 294 
L 678 1747 
L 678 2266 
L 4684 3719 
L 4684 3150 
z
" transform="scale(0.015625)"/>
      </defs>
      <use xlink:href="#DejaVuSans-23"/>
      <use xlink:href="#DejaVuSans-20" x="83.789062"/>
      <use xlink:href="#DejaVuSans-4c" x="115.576172"/>
      <use xlink:href="#DejaVuSans-6f" x="169.539062"/>
      <use xlink:href="#DejaVuSans-77" x="230.720703"/>
      <use xlink:href="#DejaVuSans-73" x="312.507812"/>
      <use xlink:href="#DejaVuSans-20" x="364.607422"/>
      <use xlink:href="#DejaVuSans-28" x="396.394531"/>
      <use xlink:href="#DejaVuSans-394" x="435.408203"/>
      <use xlink:href="#DejaVuSans-78" x="503.816406"/>
      <use xlink:href="#DejaVuSans-20" x="562.996094"/>
      <use xlink:href="#DejaVuSans-3c" x="594.783203"/>
      <use xlink:href="#DejaVuSans-20" x="678.572266"/>
      <use xlink:href="#DejaVuSans-30" x="710.359375"/>
      <use xlink:href="#DejaVuSans-29" x="773.982422"/>
     </g>
    </g>
   </g>
   <g id="PolyCollection_1">
    <defs>
     <path id="m768355a991" d="M 85.131818 -121.278977 
L 85.131818 -143.494455 
L 88.034645 -154.812909 
L 90.937471 -164.806864 
L 93.840298 -152.485 
L 96.743125 -68.620068 
L 99.645951 -74.640523 
L 102.548778 -76.185773 
L 105.451604 -85.196386 
L 108.354431 -81.002136 
L 111.257257 -67.476182 
L 114.160084 -64.987727 
L 117.062911 -67.215295 
L 119.965737 -77.670818 
L 122.868564 -66.151682 
L 125.77139 -68.760545 
L 128.674217 -63.281932 
L 131.577044 -69.282318 
L 134.47987 -63.181591 
L 137.382697 -63.302 
L 140.285523 -68.740477 
L 143.18835 -63.322068 
L 146.091176 -71.188795 
L 148.994003 -64.726841 
L 151.89683 -63.181591 
L 154.799656 -63.201659 
L 157.702483 -63.181591 
L 160.605309 -63.201659 
L 163.508136 -63.161523 
L 166.410963 -63.201659 
L 169.313789 -63.141455 
L 172.216616 -63.221727 
L 175.119442 -63.221727 
L 178.022269 -63.201659 
L 180.925095 -63.221727 
L 183.827922 -63.201659 
L 186.730749 -63.201659 
L 189.633575 -63.201659 
L 192.536402 -63.302 
L 195.439228 -63.201659 
L 198.342055 -63.161523 
L 201.244882 -63.281932 
L 204.147708 -63.241795 
L 207.050535 -63.201659 
L 209.953361 -63.261864 
L 212.856188 -63.221727 
L 215.759015 -63.241795 
L 218.661841 -63.281932 
L 221.564668 -63.181591 
L 224.467494 -63.241795 
L 227.370321 -63.241795 
L 230.273147 -63.201659 
L 233.175974 -63.201659 
L 236.078801 -63.241795 
L 238.981627 -63.221727 
L 241.884454 -63.241795 
L 244.78728 -63.241795 
L 247.690107 -63.241795 
L 250.592934 -63.221727 
L 253.49576 -63.261864 
L 256.398587 -63.221727 
L 259.301413 -63.221727 
L 262.20424 -63.201659 
L 265.107066 -63.221727 
L 268.009893 -63.221727 
L 270.91272 -63.241795 
L 273.815546 -63.261864 
L 276.718373 -63.221727 
L 279.621199 -63.261864 
L 282.524026 -63.221727 
L 285.426853 -63.241795 
L 288.329679 -63.241795 
L 291.232506 -63.261864 
L 294.135332 -63.221727 
L 297.038159 -63.261864 
L 299.940985 -63.322068 
L 302.843812 -63.201659 
L 305.746639 -63.221727 
L 308.649465 -63.221727 
L 311.552292 -63.241795 
L 314.455118 -63.261864 
L 317.357945 -63.261864 
L 320.260772 -63.261864 
L 323.163598 -63.261864 
L 326.066425 -63.241795 
L 328.969251 -63.281932 
L 331.872078 -63.241795 
L 334.774905 -63.322068 
L 337.677731 -63.241795 
L 340.580558 -63.181591 
L 343.483384 -63.221727 
L 346.386211 -63.322068 
L 349.289037 -63.281932 
L 352.191864 -63.261864 
L 355.094691 -63.221727 
L 357.997517 -63.342136 
L 360.900344 -63.241795 
L 363.80317 -63.241795 
L 366.705997 -63.221727 
L 369.608824 -63.221727 
L 372.51165 -63.281932 
L 375.414477 -63.261864 
L 378.317303 -63.281932 
L 381.22013 -63.221727 
L 384.122956 -63.161523 
L 387.025783 -63.302 
L 389.92861 -63.281932 
L 392.831436 -63.241795 
L 395.734263 -63.261864 
L 398.637089 -63.302 
L 401.539916 -63.302 
L 404.442743 -63.281932 
L 407.345569 -63.261864 
L 410.248396 -63.221727 
L 413.151222 -63.241795 
L 416.054049 -63.302 
L 418.956875 -63.261864 
L 421.859702 -63.221727 
L 424.762529 -63.261864 
L 427.665355 -63.201659 
L 430.568182 -63.241795 
L 430.568182 -63.121386 
L 430.568182 -63.121386 
L 427.665355 -63.121386 
L 424.762529 -63.161523 
L 421.859702 -63.161523 
L 418.956875 -63.141455 
L 416.054049 -63.141455 
L 413.151222 -63.161523 
L 410.248396 -63.161523 
L 407.345569 -63.141455 
L 404.442743 -63.161523 
L 401.539916 -63.201659 
L 398.637089 -63.161523 
L 395.734263 -63.201659 
L 392.831436 -63.141455 
L 389.92861 -63.161523 
L 387.025783 -63.201659 
L 384.122956 -63.141455 
L 381.22013 -63.101318 
L 378.317303 -63.121386 
L 375.414477 -63.161523 
L 372.51165 -63.141455 
L 369.608824 -63.181591 
L 366.705997 -63.121386 
L 363.80317 -63.161523 
L 360.900344 -63.161523 
L 357.997517 -63.121386 
L 355.094691 -63.141455 
L 352.191864 -63.161523 
L 349.289037 -63.141455 
L 346.386211 -63.181591 
L 343.483384 -63.101318 
L 340.580558 -63.101318 
L 337.677731 -63.141455 
L 334.774905 -63.141455 
L 331.872078 -63.161523 
L 328.969251 -63.141455 
L 326.066425 -63.121386 
L 323.163598 -63.161523 
L 320.260772 -63.221727 
L 317.357945 -63.161523 
L 314.455118 -63.181591 
L 311.552292 -63.121386 
L 308.649465 -63.161523 
L 305.746639 -63.141455 
L 302.843812 -63.161523 
L 299.940985 -63.181591 
L 297.038159 -63.201659 
L 294.135332 -63.121386 
L 291.232506 -63.121386 
L 288.329679 -63.181591 
L 285.426853 -63.161523 
L 282.524026 -63.121386 
L 279.621199 -63.141455 
L 276.718373 -63.161523 
L 273.815546 -63.181591 
L 270.91272 -63.121386 
L 268.009893 -63.141455 
L 265.107066 -63.121386 
L 262.20424 -63.101318 
L 259.301413 -63.181591 
L 256.398587 -63.121386 
L 253.49576 -63.101318 
L 250.592934 -63.121386 
L 247.690107 -63.161523 
L 244.78728 -63.121386 
L 241.884454 -63.121386 
L 238.981627 -63.181591 
L 236.078801 -63.101318 
L 233.175974 -63.161523 
L 230.273147 -63.121386 
L 227.370321 -63.121386 
L 224.467494 -63.08125 
L 221.564668 -63.141455 
L 218.661841 -63.101318 
L 215.759015 -63.141455 
L 212.856188 -63.08125 
L 209.953361 -63.121386 
L 207.050535 -63.141455 
L 204.147708 -63.121386 
L 201.244882 -63.101318 
L 198.342055 -63.101318 
L 195.439228 -63.121386 
L 192.536402 -63.121386 
L 189.633575 -63.101318 
L 186.730749 -63.08125 
L 183.827922 -63.061182 
L 180.925095 -63.101318 
L 178.022269 -63.121386 
L 175.119442 -63.121386 
L 172.216616 -63.121386 
L 169.313789 -63.141455 
L 166.410963 -63.101318 
L 163.508136 -63.101318 
L 160.605309 -63.101318 
L 157.702483 -63.141455 
L 154.799656 -63.121386 
L 151.89683 -63.041114 
L 148.994003 -63.08125 
L 146.091176 -63.101318 
L 143.18835 -63.061182 
L 140.285523 -63.061182 
L 137.382697 -63.021045 
L 134.47987 -63.041114 
L 131.577044 -63.161523 
L 128.674217 -63.08125 
L 125.77139 -62.980909 
L 122.868564 -63.061182 
L 119.965737 -63.041114 
L 117.062911 -63.000977 
L 114.160084 -62.980909 
L 111.257257 -63.041114 
L 108.354431 -63.021045 
L 105.451604 -62.980909 
L 102.548778 -63.000977 
L 99.645951 -62.980909 
L 96.743125 -62.980909 
L 93.840298 -112.388773 
L 90.937471 -124.289205 
L 88.034645 -106.288045 
L 85.131818 -121.278977 
z
" style="stroke: #ffffff; stroke-opacity: 0.5"/>
    </defs>
    <g clip-path="url(#pffcb24b94a)">
     <use xlink:href="#m768355a991" x="0" y="345.6" style="fill: #4c72b0; fill-opacity: 0.5; stroke: #ffffff; stroke-opacity: 0.5"/>
    </g>
   </g>
   <g id="PolyCollection_2">
    <defs>
     <path id="mc471e5e1b4" d="M 85.131818 -107.512205 
L 85.131818 -155.073795 
L 88.034645 -150.919682 
L 90.937471 -161.716364 
L 93.840298 -160.672818 
L 96.743125 -62.980909 
L 99.645951 -62.980909 
L 102.548778 -72.954795 
L 105.451604 -74.740864 
L 108.354431 -76.687477 
L 111.257257 -75.061955 
L 114.160084 -73.496636 
L 117.062911 -68.559864 
L 119.965737 -71.228932 
L 122.868564 -69.242182 
L 125.77139 -67.295568 
L 128.674217 -69.222114 
L 131.577044 -64.185 
L 134.47987 -69.282318 
L 137.382697 -75.302773 
L 140.285523 -67.777205 
L 143.18835 -68.37925 
L 146.091176 -71.108523 
L 148.994003 -71.610227 
L 151.89683 -64.666636 
L 154.799656 -65.28875 
L 157.702483 -66.874136 
L 160.605309 -68.700341 
L 163.508136 -81.644318 
L 166.410963 -66.071409 
L 169.313789 -63.08125 
L 172.216616 -65.328886 
L 175.119442 -68.319045 
L 178.022269 -63.482614 
L 180.925095 -66.3925 
L 183.827922 -67.155091 
L 186.730749 -65.328886 
L 189.633575 -67.175159 
L 192.536402 -65.348955 
L 195.439228 -68.058159 
L 198.342055 -66.111545 
L 201.244882 -63.823773 
L 204.147708 -76.205841 
L 207.050535 -63.181591 
L 209.953361 -78.052114 
L 212.856188 -67.05475 
L 215.759015 -70.446273 
L 218.661841 -69.222114 
L 221.564668 -68.519727 
L 224.467494 -68.780614 
L 227.370321 -63.061182 
L 230.273147 -66.61325 
L 233.175974 -67.817341 
L 236.078801 -65.830591 
L 238.981627 -69.563273 
L 241.884454 -67.034682 
L 244.78728 -68.740477 
L 247.690107 -64.064591 
L 250.592934 -69.302386 
L 253.49576 -73.877932 
L 256.398587 -73.275886 
L 259.301413 -65.609841 
L 262.20424 -70.225523 
L 265.107066 -63.52275 
L 268.009893 -68.941159 
L 270.91272 -65.469364 
L 273.815546 -66.733659 
L 276.718373 -69.683682 
L 279.621199 -66.452705 
L 282.524026 -66.332295 
L 285.426853 -63.08125 
L 288.329679 -63.7435 
L 291.232506 -71.068386 
L 294.135332 -65.810523 
L 297.038159 -67.676864 
L 299.940985 -68.519727 
L 302.843812 -63.422409 
L 305.746639 -65.529568 
L 308.649465 -63.101318 
L 311.552292 -68.860886 
L 314.455118 -67.917682 
L 317.357945 -69.362591 
L 320.260772 -67.395909 
L 323.163598 -72.412955 
L 326.066425 -67.456114 
L 328.969251 -70.566682 
L 331.872078 -63.061182 
L 334.774905 -67.034682 
L 337.677731 -65.088068 
L 340.580558 -66.472773 
L 343.483384 -66.512909 
L 346.386211 -71.068386 
L 349.289037 -66.3925 
L 352.191864 -63.7435 
L 355.094691 -68.178568 
L 357.997517 -63.08125 
L 360.900344 -64.205068 
L 363.80317 -72.613636 
L 366.705997 -64.285341 
L 369.608824 -65.569705 
L 372.51165 -64.506091 
L 375.414477 -68.680273 
L 378.317303 -66.191818 
L 381.22013 -66.954409 
L 384.122956 -68.138432 
L 387.025783 -64.365614 
L 389.92861 -63.241795 
L 392.831436 -72.011591 
L 395.734263 -66.292159 
L 398.637089 -64.305409 
L 401.539916 -65.248614 
L 404.442743 -64.124795 
L 407.345569 -69.001364 
L 410.248396 -66.573114 
L 413.151222 -66.573114 
L 416.054049 -64.465955 
L 418.956875 -64.706773 
L 421.859702 -64.887386 
L 424.762529 -66.432636 
L 427.665355 -64.285341 
L 430.568182 -70.646955 
L 430.568182 -63.021045 
L 430.568182 -63.021045 
L 427.665355 -63.021045 
L 424.762529 -63.021045 
L 421.859702 -63.021045 
L 418.956875 -63.021045 
L 416.054049 -63.021045 
L 413.151222 -63.041114 
L 410.248396 -63.000977 
L 407.345569 -63.021045 
L 404.442743 -63.041114 
L 401.539916 -63.041114 
L 398.637089 -63.021045 
L 395.734263 -63.021045 
L 392.831436 -63.000977 
L 389.92861 -63.000977 
L 387.025783 -63.041114 
L 384.122956 -63.021045 
L 381.22013 -63.061182 
L 378.317303 -63.000977 
L 375.414477 -63.021045 
L 372.51165 -63.000977 
L 369.608824 -63.021045 
L 366.705997 -63.000977 
L 363.80317 -63.041114 
L 360.900344 -63.021045 
L 357.997517 -63.041114 
L 355.094691 -63.000977 
L 352.191864 -63.000977 
L 349.289037 -63.000977 
L 346.386211 -63.021045 
L 343.483384 -63.08125 
L 340.580558 -63.000977 
L 337.677731 -63.021045 
L 334.774905 -63.021045 
L 331.872078 -63.041114 
L 328.969251 -62.980909 
L 326.066425 -63.041114 
L 323.163598 -63.000977 
L 320.260772 -63.000977 
L 317.357945 -63.021045 
L 314.455118 -63.061182 
L 311.552292 -63.000977 
L 308.649465 -63.041114 
L 305.746639 -62.980909 
L 302.843812 -63.000977 
L 299.940985 -62.980909 
L 297.038159 -63.000977 
L 294.135332 -63.021045 
L 291.232506 -63.021045 
L 288.329679 -62.980909 
L 285.426853 -63.000977 
L 282.524026 -62.980909 
L 279.621199 -62.980909 
L 276.718373 -63.021045 
L 273.815546 -63.000977 
L 270.91272 -62.980909 
L 268.009893 -62.980909 
L 265.107066 -63.000977 
L 262.20424 -62.980909 
L 259.301413 -62.980909 
L 256.398587 -63.021045 
L 253.49576 -62.980909 
L 250.592934 -62.980909 
L 247.690107 -63.000977 
L 244.78728 -63.021045 
L 241.884454 -63.000977 
L 238.981627 -62.980909 
L 236.078801 -62.980909 
L 233.175974 -63.000977 
L 230.273147 -63.021045 
L 227.370321 -62.980909 
L 224.467494 -63.021045 
L 221.564668 -63.021045 
L 218.661841 -62.980909 
L 215.759015 -63.021045 
L 212.856188 -62.980909 
L 209.953361 -63.021045 
L 207.050535 -62.980909 
L 204.147708 -63.000977 
L 201.244882 -63.000977 
L 198.342055 -62.980909 
L 195.439228 -63.021045 
L 192.536402 -62.980909 
L 189.633575 -62.980909 
L 186.730749 -62.980909 
L 183.827922 -63.000977 
L 180.925095 -62.980909 
L 178.022269 -62.980909 
L 175.119442 -62.980909 
L 172.216616 -62.980909 
L 169.313789 -62.980909 
L 166.410963 -62.980909 
L 163.508136 -62.980909 
L 160.605309 -62.980909 
L 157.702483 -64.245205 
L 154.799656 -62.980909 
L 151.89683 -62.980909 
L 148.994003 -62.980909 
L 146.091176 -63.000977 
L 143.18835 -62.980909 
L 140.285523 -63.021045 
L 137.382697 -63.000977 
L 134.47987 -62.980909 
L 131.577044 -62.980909 
L 128.674217 -62.980909 
L 125.77139 -62.980909 
L 122.868564 -62.980909 
L 119.965737 -62.980909 
L 117.062911 -62.980909 
L 114.160084 -62.980909 
L 111.257257 -62.980909 
L 108.354431 -62.980909 
L 105.451604 -62.980909 
L 102.548778 -62.980909 
L 99.645951 -62.980909 
L 96.743125 -62.980909 
L 93.840298 -131.493682 
L 90.937471 -117.165 
L 88.034645 -116.362273 
L 85.131818 -107.512205 
z
" style="stroke: #ffffff; stroke-opacity: 0.5"/>
    </defs>
    <g clip-path="url(#pffcb24b94a)">
     <use xlink:href="#mc471e5e1b4" x="0" y="345.6" style="fill: #dd8452; fill-opacity: 0.5; stroke: #ffffff; stroke-opacity: 0.5"/>
    </g>
   </g>
   <g id="PolyCollection_3">
    <defs>
     <path id="m648dc87852" d="M 85.131818 -135.808341 
L 85.131818 -168.680023 
L 88.034645 -159.689477 
L 90.937471 -155.053727 
L 93.840298 -157.421773 
L 96.743125 -76.346318 
L 99.645951 -62.980909 
L 102.548778 -62.980909 
L 105.451604 -65.188409 
L 108.354431 -63.984318 
L 111.257257 -71.329273 
L 114.160084 -87.042659 
L 117.062911 -67.897614 
L 119.965737 -64.787045 
L 122.868564 -64.445886 
L 125.77139 -63.041114 
L 128.674217 -65.047932 
L 131.577044 -77.991909 
L 134.47987 -63.663227 
L 137.382697 -64.285341 
L 140.285523 -102.575432 
L 143.18835 -71.790841 
L 146.091176 -67.355773 
L 148.994003 -64.827182 
L 151.89683 -74.500045 
L 154.799656 -63.041114 
L 157.702483 -72.252409 
L 160.605309 -63.021045 
L 163.508136 -64.004386 
L 166.410963 -64.927523 
L 169.313789 -64.907455 
L 172.216616 -65.168341 
L 175.119442 -65.589773 
L 178.022269 -63.041114 
L 180.925095 -63.342136 
L 183.827922 -73.295955 
L 186.730749 -63.101318 
L 189.633575 -66.231955 
L 192.536402 -66.091477 
L 195.439228 -63.562886 
L 198.342055 -66.372432 
L 201.244882 -70.887773 
L 204.147708 -63.101318 
L 207.050535 -67.777205 
L 209.953361 -65.047932 
L 212.856188 -77.670818 
L 215.759015 -63.101318 
L 218.661841 -65.930932 
L 221.564668 -67.93775 
L 224.467494 -66.472773 
L 227.370321 -80.018795 
L 230.273147 -69.824159 
L 233.175974 -67.777205 
L 236.078801 -65.489432 
L 238.981627 -73.295955 
L 241.884454 -68.941159 
L 244.78728 -65.850659 
L 247.690107 -68.1585 
L 250.592934 -73.617045 
L 253.49576 -69.743886 
L 256.398587 -72.433023 
L 259.301413 -68.539795 
L 262.20424 -70.58675 
L 265.107066 -71.409545 
L 268.009893 -65.810523 
L 270.91272 -68.82075 
L 273.815546 -69.603409 
L 276.718373 -69.523136 
L 279.621199 -70.8075 
L 282.524026 -68.780614 
L 285.426853 -74.740864 
L 288.329679 -69.784023 
L 291.232506 -68.058159 
L 294.135332 -66.673455 
L 297.038159 -69.121773 
L 299.940985 -69.342523 
L 302.843812 -71.891182 
L 305.746639 -67.676864 
L 308.649465 -65.308818 
L 311.552292 -65.308818 
L 314.455118 -75.643932 
L 317.357945 -71.810909 
L 320.260772 -69.181977 
L 323.163598 -73.817727 
L 326.066425 -69.161909 
L 328.969251 -74.138818 
L 331.872078 -74.199023 
L 334.774905 -71.46975 
L 337.677731 -71.610227 
L 340.580558 -72.392886 
L 343.483384 -69.242182 
L 346.386211 -69.864295 
L 349.289037 -70.245591 
L 352.191864 -72.212273 
L 355.094691 -69.563273 
L 357.997517 -65.5095 
L 360.900344 -75.021818 
L 363.80317 -72.734045 
L 366.705997 -67.05475 
L 369.608824 -67.295568 
L 372.51165 -68.319045 
L 375.414477 -70.727227 
L 378.317303 -70.968045 
L 381.22013 -68.178568 
L 384.122956 -71.750705 
L 387.025783 -72.132 
L 389.92861 -75.623864 
L 392.831436 -74.961614 
L 395.734263 -72.212273 
L 398.637089 -73.516705 
L 401.539916 -73.135409 
L 404.442743 -75.664 
L 407.345569 -70.325864 
L 410.248396 -77.088841 
L 413.151222 -71.550023 
L 416.054049 -70.506477 
L 418.956875 -80.400091 
L 421.859702 -73.035068 
L 424.762529 -66.031273 
L 427.665355 -69.904432 
L 430.568182 -68.339114 
L 430.568182 -65.168341 
L 430.568182 -65.168341 
L 427.665355 -63.041114 
L 424.762529 -63.000977 
L 421.859702 -62.980909 
L 418.956875 -63.161523 
L 416.054049 -66.111545 
L 413.151222 -63.843841 
L 410.248396 -64.164932 
L 407.345569 -63.000977 
L 404.442743 -65.348955 
L 401.539916 -63.121386 
L 398.637089 -63.08125 
L 395.734263 -65.409159 
L 392.831436 -63.502682 
L 389.92861 -63.041114 
L 387.025783 -63.121386 
L 384.122956 -63.141455 
L 381.22013 -63.101318 
L 378.317303 -64.265273 
L 375.414477 -64.445886 
L 372.51165 -63.061182 
L 369.608824 -63.08125 
L 366.705997 -64.445886 
L 363.80317 -63.061182 
L 360.900344 -63.061182 
L 357.997517 -63.061182 
L 355.094691 -63.041114 
L 352.191864 -63.302 
L 349.289037 -63.201659 
L 346.386211 -63.562886 
L 343.483384 -64.566295 
L 340.580558 -63.261864 
L 337.677731 -63.221727 
L 334.774905 -63.382273 
L 331.872078 -63.201659 
L 328.969251 -63.582955 
L 326.066425 -63.121386 
L 323.163598 -63.021045 
L 320.260772 -63.502682 
L 317.357945 -63.623091 
L 314.455118 -63.201659 
L 311.552292 -63.021045 
L 308.649465 -63.201659 
L 305.746639 -63.041114 
L 302.843812 -63.201659 
L 299.940985 -63.141455 
L 297.038159 -63.101318 
L 294.135332 -63.141455 
L 291.232506 -64.325477 
L 288.329679 -63.201659 
L 285.426853 -63.061182 
L 282.524026 -63.442477 
L 279.621199 -63.181591 
L 276.718373 -64.124795 
L 273.815546 -62.980909 
L 270.91272 -63.442477 
L 268.009893 -63.322068 
L 265.107066 -63.000977 
L 262.20424 -63.000977 
L 259.301413 -63.000977 
L 256.398587 -63.904045 
L 253.49576 -63.021045 
L 250.592934 -65.569705 
L 247.690107 -63.000977 
L 244.78728 -63.101318 
L 241.884454 -63.201659 
L 238.981627 -63.000977 
L 236.078801 -62.980909 
L 233.175974 -63.08125 
L 230.273147 -62.980909 
L 227.370321 -63.141455 
L 224.467494 -63.000977 
L 221.564668 -63.000977 
L 218.661841 -62.980909 
L 215.759015 -62.980909 
L 212.856188 -62.980909 
L 209.953361 -62.980909 
L 207.050535 -62.980909 
L 204.147708 -62.980909 
L 201.244882 -63.000977 
L 198.342055 -63.000977 
L 195.439228 -62.980909 
L 192.536402 -62.980909 
L 189.633575 -62.980909 
L 186.730749 -62.980909 
L 183.827922 -62.980909 
L 180.925095 -62.980909 
L 178.022269 -62.980909 
L 175.119442 -62.980909 
L 172.216616 -62.980909 
L 169.313789 -62.980909 
L 166.410963 -62.980909 
L 163.508136 -62.980909 
L 160.605309 -62.980909 
L 157.702483 -62.980909 
L 154.799656 -62.980909 
L 151.89683 -63.000977 
L 148.994003 -62.980909 
L 146.091176 -62.980909 
L 143.18835 -62.980909 
L 140.285523 -62.980909 
L 137.382697 -62.980909 
L 134.47987 -62.980909 
L 131.577044 -63.000977 
L 128.674217 -62.980909 
L 125.77139 -62.980909 
L 122.868564 -62.980909 
L 119.965737 -62.980909 
L 117.062911 -62.980909 
L 114.160084 -62.980909 
L 111.257257 -62.980909 
L 108.354431 -62.980909 
L 105.451604 -62.980909 
L 102.548778 -62.980909 
L 99.645951 -62.980909 
L 96.743125 -62.980909 
L 93.840298 -134.925341 
L 90.937471 -135.105955 
L 88.034645 -127.961682 
L 85.131818 -135.808341 
z
" style="stroke: #ffffff; stroke-opacity: 0.5"/>
    </defs>
    <g clip-path="url(#pffcb24b94a)">
     <use xlink:href="#m648dc87852" x="0" y="345.6" style="fill: #55a868; fill-opacity: 0.5; stroke: #ffffff; stroke-opacity: 0.5"/>
    </g>
   </g>
   <g id="PolyCollection_4">
    <defs>
     <path id="m19194a24bf" d="M 85.131818 -122.061636 
L 85.131818 -154.973455 
L 88.034645 -172.513045 
L 90.937471 -148.551636 
L 93.840298 -150.518318 
L 96.743125 -89.210023 
L 99.645951 -68.921091 
L 102.548778 -69.101705 
L 105.451604 -62.980909 
L 108.354431 -78.814705 
L 111.257257 -116.7235 
L 114.160084 -98.561795 
L 117.062911 -66.292159 
L 119.965737 -103.077136 
L 122.868564 -132.958659 
L 125.77139 -74.580318 
L 128.674217 -67.676864 
L 131.577044 -77.811295 
L 134.47987 -104.742795 
L 137.382697 -65.830591 
L 140.285523 -67.897614 
L 143.18835 -84.112705 
L 146.091176 -74.459909 
L 148.994003 -71.349341 
L 151.89683 -66.834 
L 154.799656 -64.124795 
L 157.702483 -63.362205 
L 160.605309 -154.411545 
L 163.508136 -78.513682 
L 166.410963 -70.526545 
L 169.313789 -74.299364 
L 172.216616 -63.181591 
L 175.119442 -70.165318 
L 178.022269 -126.4365 
L 180.925095 -76.32625 
L 183.827922 -74.841205 
L 186.730749 -73.295955 
L 189.633575 -72.372818 
L 192.536402 -75.282705 
L 195.439228 -70.426205 
L 198.342055 -84.654545 
L 201.244882 -65.770386 
L 204.147708 -93.625023 
L 207.050535 -69.021432 
L 209.953361 -70.526545 
L 212.856188 -71.710568 
L 215.759015 -70.727227 
L 218.661841 -71.830977 
L 221.564668 -102.615568 
L 224.467494 -75.684068 
L 227.370321 -83.370182 
L 230.273147 -70.486409 
L 233.175974 -74.500045 
L 236.078801 -77.550409 
L 238.981627 -75.061955 
L 241.884454 -72.091864 
L 244.78728 -77.731023 
L 247.690107 -82.386841 
L 250.592934 -70.245591 
L 253.49576 -77.269455 
L 256.398587 -68.740477 
L 259.301413 -85.377 
L 262.20424 -70.727227 
L 265.107066 -65.569705 
L 268.009893 -70.8075 
L 270.91272 -70.566682 
L 273.815546 -74.299364 
L 276.718373 -75.082023 
L 279.621199 -66.452705 
L 282.524026 -68.118364 
L 285.426853 -79.075591 
L 288.329679 -74.901409 
L 291.232506 -74.961614 
L 294.135332 -77.931705 
L 297.038159 -68.479591 
L 299.940985 -69.161909 
L 302.843812 -85.698091 
L 305.746639 -77.269455 
L 308.649465 -69.984705 
L 311.552292 -73.797659 
L 314.455118 -83.029023 
L 317.357945 -78.313 
L 320.260772 -79.356545 
L 323.163598 -75.88475 
L 326.066425 -84.594341 
L 328.969251 -70.14525 
L 331.872078 -70.887773 
L 334.774905 -69.964636 
L 337.677731 -68.018023 
L 340.580558 -70.486409 
L 343.483384 -67.255432 
L 346.386211 -68.800682 
L 349.289037 -70.024841 
L 352.191864 -70.626886 
L 355.094691 -67.636727 
L 357.997517 -67.777205 
L 360.900344 -69.222114 
L 363.80317 -69.523136 
L 366.705997 -70.506477 
L 369.608824 -70.988114 
L 372.51165 -68.298977 
L 375.414477 -69.70375 
L 378.317303 -69.543205 
L 381.22013 -71.6905 
L 384.122956 -73.717386 
L 387.025783 -69.904432 
L 389.92861 -67.335705 
L 392.831436 -69.964636 
L 395.734263 -71.91125 
L 398.637089 -69.643545 
L 401.539916 -67.696932 
L 404.442743 -66.633318 
L 407.345569 -68.359182 
L 410.248396 -68.760545 
L 413.151222 -70.927909 
L 416.054049 -71.289136 
L 418.956875 -67.395909 
L 421.859702 -71.750705 
L 424.762529 -65.5095 
L 427.665355 -70.787432 
L 430.568182 -70.626886 
L 430.568182 -63.261864 
L 430.568182 -63.261864 
L 427.665355 -63.302 
L 424.762529 -63.221727 
L 421.859702 -63.302 
L 418.956875 -63.302 
L 416.054049 -63.402341 
L 413.151222 -63.342136 
L 410.248396 -63.442477 
L 407.345569 -63.302 
L 404.442743 -63.281932 
L 401.539916 -63.281932 
L 398.637089 -63.502682 
L 395.734263 -63.241795 
L 392.831436 -63.402341 
L 389.92861 -63.302 
L 387.025783 -63.141455 
L 384.122956 -63.101318 
L 381.22013 -63.261864 
L 378.317303 -63.101318 
L 375.414477 -63.261864 
L 372.51165 -63.221727 
L 369.608824 -63.261864 
L 366.705997 -63.402341 
L 363.80317 -63.201659 
L 360.900344 -63.121386 
L 357.997517 -63.141455 
L 355.094691 -63.322068 
L 352.191864 -63.201659 
L 349.289037 -63.201659 
L 346.386211 -63.181591 
L 343.483384 -63.121386 
L 340.580558 -63.281932 
L 337.677731 -63.08125 
L 334.774905 -63.161523 
L 331.872078 -63.121386 
L 328.969251 -63.041114 
L 326.066425 -63.201659 
L 323.163598 -63.021045 
L 320.260772 -63.261864 
L 317.357945 -63.442477 
L 314.455118 -63.101318 
L 311.552292 -63.041114 
L 308.649465 -62.980909 
L 305.746639 -63.08125 
L 302.843812 -63.121386 
L 299.940985 -63.041114 
L 297.038159 -63.201659 
L 294.135332 -63.482614 
L 291.232506 -63.000977 
L 288.329679 -63.021045 
L 285.426853 -63.161523 
L 282.524026 -63.141455 
L 279.621199 -63.000977 
L 276.718373 -63.141455 
L 273.815546 -63.101318 
L 270.91272 -62.980909 
L 268.009893 -63.181591 
L 265.107066 -63.000977 
L 262.20424 -63.021045 
L 259.301413 -62.980909 
L 256.398587 -63.342136 
L 253.49576 -63.061182 
L 250.592934 -63.08125 
L 247.690107 -62.980909 
L 244.78728 -63.141455 
L 241.884454 -63.021045 
L 238.981627 -63.643159 
L 236.078801 -63.061182 
L 233.175974 -62.980909 
L 230.273147 -62.980909 
L 227.370321 -63.000977 
L 224.467494 -62.980909 
L 221.564668 -64.606432 
L 218.661841 -63.803705 
L 215.759015 -63.08125 
L 212.856188 -65.328886 
L 209.953361 -63.000977 
L 207.050535 -63.000977 
L 204.147708 -63.000977 
L 201.244882 -62.980909 
L 198.342055 -66.011205 
L 195.439228 -63.101318 
L 192.536402 -63.482614 
L 189.633575 -63.141455 
L 186.730749 -63.422409 
L 183.827922 -63.000977 
L 180.925095 -62.980909 
L 178.022269 -63.281932 
L 175.119442 -62.980909 
L 172.216616 -62.980909 
L 169.313789 -63.000977 
L 166.410963 -62.980909 
L 163.508136 -63.08125 
L 160.605309 -62.980909 
L 157.702483 -62.980909 
L 154.799656 -62.980909 
L 151.89683 -62.980909 
L 148.994003 -63.000977 
L 146.091176 -63.000977 
L 143.18835 -62.980909 
L 140.285523 -63.08125 
L 137.382697 -62.980909 
L 134.47987 -62.980909 
L 131.577044 -62.980909 
L 128.674217 -62.980909 
L 125.77139 -63.000977 
L 122.868564 -62.980909 
L 119.965737 -62.980909 
L 117.062911 -62.980909 
L 114.160084 -62.980909 
L 111.257257 -62.980909 
L 108.354431 -62.980909 
L 105.451604 -62.980909 
L 102.548778 -62.980909 
L 99.645951 -62.980909 
L 96.743125 -62.980909 
L 93.840298 -110.442159 
L 90.937471 -128.724273 
L 88.034645 -131.132455 
L 85.131818 -122.061636 
z
" style="stroke: #ffffff; stroke-opacity: 0.5"/>
    </defs>
    <g clip-path="url(#pffcb24b94a)">
     <use xlink:href="#m19194a24bf" x="0" y="345.6" style="fill: #c44e52; fill-opacity: 0.5; stroke: #ffffff; stroke-opacity: 0.5"/>
    </g>
   </g>
   <g id="PolyCollection_5">
    <defs>
     <path id="md402ade9c5" d="M 85.131818 -136.771614 
L 85.131818 -167.415727 
L 88.034645 -171.509636 
L 90.937471 -178.31275 
L 93.840298 -156.037068 
L 96.743125 -132.376682 
L 99.645951 -69.984705 
L 102.548778 -65.971068 
L 105.451604 -69.904432 
L 108.354431 -99.665545 
L 111.257257 -63.603023 
L 114.160084 -64.285341 
L 117.062911 -71.529955 
L 119.965737 -202.133682 
L 122.868564 -63.763568 
L 125.77139 -72.934727 
L 128.674217 -73.958205 
L 131.577044 -69.101705 
L 134.47987 -80.801455 
L 137.382697 -67.696932 
L 140.285523 -267.596091 
L 143.18835 -71.951386 
L 146.091176 -69.623477 
L 148.994003 -64.425818 
L 151.89683 -65.870727 
L 154.799656 -132.236205 
L 157.702483 -65.208477 
L 160.605309 -65.690114 
L 163.508136 -103.297886 
L 166.410963 -160.151045 
L 169.313789 -95.290682 
L 172.216616 -67.977886 
L 175.119442 -88.768523 
L 178.022269 -101.170659 
L 180.925095 -84.473932 
L 183.827922 -66.071409 
L 186.730749 -89.430773 
L 189.633575 -66.874136 
L 192.536402 -222.984523 
L 195.439228 -93.384205 
L 198.342055 -105.425114 
L 201.244882 -83.39025 
L 204.147708 -67.235364 
L 207.050535 -77.831364 
L 209.953361 -103.739386 
L 212.856188 -70.867705 
L 215.759015 -70.646955 
L 218.661841 -75.383045 
L 221.564668 -132.998795 
L 224.467494 -106.970364 
L 227.370321 -66.834 
L 230.273147 -151.722409 
L 233.175974 -120.275568 
L 236.078801 -101.391409 
L 238.981627 -78.774568 
L 241.884454 -127.279364 
L 244.78728 -66.834 
L 247.690107 -72.071795 
L 250.592934 -70.867705 
L 253.49576 -70.947977 
L 256.398587 -138.738295 
L 259.301413 -75.824545 
L 262.20424 -80.580705 
L 265.107066 -113.572795 
L 268.009893 -106.970364 
L 270.91272 -99.765886 
L 273.815546 -102.434955 
L 276.718373 -90.153227 
L 279.621199 -99.525068 
L 282.524026 -69.422795 
L 285.426853 -82.025614 
L 288.329679 -65.670045 
L 291.232506 -89.57125 
L 294.135332 -77.891568 
L 297.038159 -88.507636 
L 299.940985 -78.814705 
L 302.843812 -79.296341 
L 305.746639 -91.939295 
L 308.649465 -99.645477 
L 311.552292 -100.809432 
L 314.455118 -83.83175 
L 317.357945 -74.500045 
L 320.260772 -77.470136 
L 323.163598 -94.628432 
L 326.066425 -79.597364 
L 328.969251 -97.437977 
L 331.872078 -91.537932 
L 334.774905 -73.837795 
L 337.677731 -74.439841 
L 340.580558 -76.125568 
L 343.483384 -93.043045 
L 346.386211 -79.6375 
L 349.289037 -75.202432 
L 352.191864 -73.295955 
L 355.094691 -131.052182 
L 357.997517 -67.094886 
L 360.900344 -73.837795 
L 363.80317 -69.904432 
L 366.705997 -77.811295 
L 369.608824 -75.543591 
L 372.51165 -71.750705 
L 375.414477 -66.773795 
L 378.317303 -71.208864 
L 381.22013 -69.242182 
L 384.122956 -76.526932 
L 387.025783 -74.801068 
L 389.92861 -103.157409 
L 392.831436 -97.51825 
L 395.734263 -90.093023 
L 398.637089 -97.859409 
L 401.539916 -71.810909 
L 404.442743 -75.664 
L 407.345569 -71.91125 
L 410.248396 -73.556841 
L 413.151222 -68.258841 
L 416.054049 -67.436045 
L 418.956875 -66.071409 
L 421.859702 -68.660205 
L 424.762529 -67.436045 
L 427.665355 -67.737068 
L 430.568182 -67.135023 
L 430.568182 -63.603023 
L 430.568182 -63.603023 
L 427.665355 -63.603023 
L 424.762529 -63.362205 
L 421.859702 -63.462545 
L 418.956875 -63.241795 
L 416.054049 -63.061182 
L 413.151222 -63.823773 
L 410.248396 -63.703364 
L 407.345569 -63.302 
L 404.442743 -63.52275 
L 401.539916 -63.52275 
L 398.637089 -63.623091 
L 395.734263 -63.08125 
L 392.831436 -66.974477 
L 389.92861 -63.863909 
L 387.025783 -66.091477 
L 384.122956 -65.188409 
L 381.22013 -63.562886 
L 378.317303 -63.442477 
L 375.414477 -63.462545 
L 372.51165 -62.980909 
L 369.608824 -64.445886 
L 366.705997 -63.181591 
L 363.80317 -63.342136 
L 360.900344 -63.643159 
L 357.997517 -62.980909 
L 355.094691 -63.482614 
L 352.191864 -63.723432 
L 349.289037 -63.021045 
L 346.386211 -63.061182 
L 343.483384 -63.061182 
L 340.580558 -63.723432 
L 337.677731 -64.506091 
L 334.774905 -63.241795 
L 331.872078 -64.666636 
L 328.969251 -63.021045 
L 326.066425 -65.188409 
L 323.163598 -63.141455 
L 320.260772 -63.181591 
L 317.357945 -63.281932 
L 314.455118 -63.261864 
L 311.552292 -67.315636 
L 308.649465 -63.904045 
L 305.746639 -66.753727 
L 302.843812 -63.241795 
L 299.940985 -65.027864 
L 297.038159 -63.261864 
L 294.135332 -66.532977 
L 291.232506 -63.141455 
L 288.329679 -63.08125 
L 285.426853 -66.553045 
L 282.524026 -64.586364 
L 279.621199 -63.402341 
L 276.718373 -63.101318 
L 273.815546 -63.041114 
L 270.91272 -63.101318 
L 268.009893 -63.402341 
L 265.107066 -63.021045 
L 262.20424 -65.850659 
L 259.301413 -63.021045 
L 256.398587 -63.000977 
L 253.49576 -62.980909 
L 250.592934 -62.980909 
L 247.690107 -63.462545 
L 244.78728 -63.482614 
L 241.884454 -63.201659 
L 238.981627 -63.061182 
L 236.078801 -63.000977 
L 233.175974 -63.061182 
L 230.273147 -63.261864 
L 227.370321 -63.121386 
L 224.467494 -63.442477 
L 221.564668 -62.980909 
L 218.661841 -67.817341 
L 215.759015 -62.980909 
L 212.856188 -62.980909 
L 209.953361 -62.980909 
L 207.050535 -63.201659 
L 204.147708 -62.980909 
L 201.244882 -62.980909 
L 198.342055 -63.141455 
L 195.439228 -62.980909 
L 192.536402 -63.703364 
L 189.633575 -62.980909 
L 186.730749 -63.000977 
L 183.827922 -63.502682 
L 180.925095 -62.980909 
L 178.022269 -62.980909 
L 175.119442 -63.181591 
L 172.216616 -63.08125 
L 169.313789 -63.603023 
L 166.410963 -62.980909 
L 163.508136 -62.980909 
L 160.605309 -62.980909 
L 157.702483 -63.000977 
L 154.799656 -62.980909 
L 151.89683 -62.980909 
L 148.994003 -62.980909 
L 146.091176 -63.000977 
L 143.18835 -63.021045 
L 140.285523 -63.121386 
L 137.382697 -62.980909 
L 134.47987 -63.021045 
L 131.577044 -62.980909 
L 128.674217 -62.980909 
L 125.77139 -62.980909 
L 122.868564 -62.980909 
L 119.965737 -62.980909 
L 117.062911 -62.980909 
L 114.160084 -62.980909 
L 111.257257 -62.980909 
L 108.354431 -62.980909 
L 105.451604 -62.980909 
L 102.548778 -62.980909 
L 99.645951 -62.980909 
L 96.743125 -92.942705 
L 93.840298 -120.03475 
L 90.937471 -124.289205 
L 88.034645 -132.958659 
L 85.131818 -136.771614 
z
" style="stroke: #ffffff; stroke-opacity: 0.5"/>
    </defs>
    <g clip-path="url(#pffcb24b94a)">
     <use xlink:href="#md402ade9c5" x="0" y="345.6" style="fill: #8172b3; fill-opacity: 0.5; stroke: #ffffff; stroke-opacity: 0.5"/>
    </g>
   </g>
   <g id="PolyCollection_6">
    <defs>
     <path id="mc4b95146c7" d="M 85.131818 -126.396364 
L 85.131818 -158.625864 
L 88.034645 -166.071159 
L 90.937471 -174.740614 
L 93.840298 -146.906045 
L 96.743125 -174.018159 
L 99.645951 -209.177614 
L 102.548778 -172.031409 
L 105.451604 -127.881409 
L 108.354431 -167.756886 
L 111.257257 -106.990432 
L 114.160084 -76.225909 
L 117.062911 -300.267091 
L 119.965737 -63.843841 
L 122.868564 -83.751477 
L 125.77139 -104.421705 
L 128.674217 -105.726136 
L 131.577044 -76.426591 
L 134.47987 -175.483136 
L 137.382697 -155.996932 
L 140.285523 -303.799091 
L 143.18835 -86.540955 
L 146.091176 -107.853364 
L 148.994003 -99.826091 
L 151.89683 -83.972227 
L 154.799656 -87.423955 
L 157.702483 -94.146795 
L 160.605309 -100.227455 
L 163.508136 -87.745045 
L 166.410963 -156.9 
L 169.313789 -217.004205 
L 172.216616 -104.883273 
L 175.119442 -78.433409 
L 178.022269 -245.922455 
L 180.925095 -156.719386 
L 183.827922 -283.670705 
L 186.730749 -87.343682 
L 189.633575 -102.675773 
L 192.536402 -105.625795 
L 195.439228 -179.717523 
L 198.342055 -107.953705 
L 201.244882 -192.460818 
L 204.147708 -111.124477 
L 207.050535 -119.031341 
L 209.953361 -151.120364 
L 212.856188 -112.689795 
L 215.759015 -290.273136 
L 218.661841 -68.198636 
L 221.564668 -156.659182 
L 224.467494 -286.901682 
L 227.370321 -195.53125 
L 230.273147 -67.014614 
L 233.175974 -129.848091 
L 236.078801 -93.364136 
L 238.981627 -274.740364 
L 241.884454 -67.215295 
L 244.78728 -163.060932 
L 247.690107 -285.055409 
L 250.592934 -94.829114 
L 253.49576 -191.577818 
L 256.398587 -105.665932 
L 259.301413 -150.417977 
L 262.20424 -226.416182 
L 265.107066 -113.171432 
L 268.009893 -272.994432 
L 270.91272 -89.470909 
L 273.815546 -144.377455 
L 276.718373 -155.134 
L 279.621199 -281.282591 
L 282.524026 -97.839341 
L 285.426853 -111.826864 
L 288.329679 -155.936727 
L 291.232506 -132.276341 
L 294.135332 -148.270682 
L 297.038159 -129.687545 
L 299.940985 -97.51825 
L 302.843812 -215.39875 
L 305.746639 -262.438568 
L 308.649465 -132.135864 
L 311.552292 -138.216523 
L 314.455118 -238.477159 
L 317.357945 -107.692818 
L 320.260772 -112.669727 
L 323.163598 -75.383045 
L 326.066425 -112.268364 
L 328.969251 -130.048773 
L 331.872078 -174.359318 
L 334.774905 -116.342205 
L 337.677731 -90.614795 
L 340.580558 -180.781136 
L 343.483384 -120.837477 
L 346.386211 -169.48275 
L 349.289037 -71.188795 
L 352.191864 -151.220705 
L 355.094691 -94.267205 
L 357.997517 -218.388909 
L 360.900344 -136.330114 
L 363.80317 -151.581932 
L 366.705997 -134.243023 
L 369.608824 -153.970045 
L 372.51165 -98.902955 
L 375.414477 -125.854523 
L 378.317303 -100.086977 
L 381.22013 -88.367159 
L 384.122956 -92.160045 
L 387.025783 -130.991977 
L 389.92861 -86.099455 
L 392.831436 -88.788591 
L 395.734263 -120.636795 
L 398.637089 -93.043045 
L 401.539916 -106.950295 
L 404.442743 -132.798114 
L 407.345569 -114.776886 
L 410.248396 -137.975705 
L 413.151222 -134.343364 
L 416.054049 -114.977568 
L 418.956875 -149.334295 
L 421.859702 -111.004068 
L 424.762529 -114.154773 
L 427.665355 -117.265341 
L 430.568182 -120.074886 
L 430.568182 -63.08125 
L 430.568182 -63.08125 
L 427.665355 -63.021045 
L 424.762529 -63.021045 
L 421.859702 -62.980909 
L 418.956875 -63.021045 
L 416.054049 -63.201659 
L 413.151222 -62.980909 
L 410.248396 -62.980909 
L 407.345569 -62.980909 
L 404.442743 -63.021045 
L 401.539916 -62.980909 
L 398.637089 -63.021045 
L 395.734263 -63.061182 
L 392.831436 -63.121386 
L 389.92861 -63.021045 
L 387.025783 -63.101318 
L 384.122956 -64.506091 
L 381.22013 -63.422409 
L 378.317303 -64.967659 
L 375.414477 -69.001364 
L 372.51165 -71.750705 
L 369.608824 -74.018409 
L 366.705997 -63.121386 
L 363.80317 -63.201659 
L 360.900344 -63.261864 
L 357.997517 -63.000977 
L 355.094691 -62.980909 
L 352.191864 -63.021045 
L 349.289037 -63.161523 
L 346.386211 -62.980909 
L 343.483384 -63.482614 
L 340.580558 -79.456886 
L 337.677731 -64.726841 
L 334.774905 -63.000977 
L 331.872078 -62.980909 
L 328.969251 -62.980909 
L 326.066425 -63.000977 
L 323.163598 -62.980909 
L 320.260772 -63.703364 
L 317.357945 -63.000977 
L 314.455118 -67.696932 
L 311.552292 -62.980909 
L 308.649465 -62.980909 
L 305.746639 -66.773795 
L 302.843812 -62.980909 
L 299.940985 -65.5095 
L 297.038159 -62.980909 
L 294.135332 -62.980909 
L 291.232506 -62.980909 
L 288.329679 -63.121386 
L 285.426853 -63.000977 
L 282.524026 -62.980909 
L 279.621199 -62.980909 
L 276.718373 -62.980909 
L 273.815546 -62.980909 
L 270.91272 -62.980909 
L 268.009893 -63.542818 
L 265.107066 -63.101318 
L 262.20424 -71.269068 
L 259.301413 -62.980909 
L 256.398587 -68.058159 
L 253.49576 -62.980909 
L 250.592934 -62.980909 
L 247.690107 -67.676864 
L 244.78728 -92.059705 
L 241.884454 -62.980909 
L 238.981627 -62.980909 
L 236.078801 -63.141455 
L 233.175974 -62.980909 
L 230.273147 -62.980909 
L 227.370321 -62.980909 
L 224.467494 -65.569705 
L 221.564668 -62.980909 
L 218.661841 -62.980909 
L 215.759015 -63.021045 
L 212.856188 -62.980909 
L 209.953361 -63.683295 
L 207.050535 -63.000977 
L 204.147708 -62.980909 
L 201.244882 -63.201659 
L 198.342055 -62.980909 
L 195.439228 -63.061182 
L 192.536402 -63.000977 
L 189.633575 -63.261864 
L 186.730749 -63.000977 
L 183.827922 -63.984318 
L 180.925095 -63.101318 
L 178.022269 -62.980909 
L 175.119442 -62.980909 
L 172.216616 -63.121386 
L 169.313789 -66.512909 
L 166.410963 -62.980909 
L 163.508136 -63.000977 
L 160.605309 -63.041114 
L 157.702483 -62.980909 
L 154.799656 -62.980909 
L 151.89683 -62.980909 
L 148.994003 -62.980909 
L 146.091176 -63.101318 
L 143.18835 -63.08125 
L 140.285523 -62.980909 
L 137.382697 -62.980909 
L 134.47987 -62.980909 
L 131.577044 -62.980909 
L 128.674217 -62.980909 
L 125.77139 -62.980909 
L 122.868564 -62.980909 
L 119.965737 -62.980909 
L 117.062911 -62.980909 
L 114.160084 -62.980909 
L 111.257257 -62.980909 
L 108.354431 -72.111932 
L 105.451604 -65.529568 
L 102.548778 -65.810523 
L 99.645951 -93.022977 
L 96.743125 -123.827636 
L 93.840298 -132.115795 
L 90.937471 -112.188091 
L 88.034645 -132.778045 
L 85.131818 -126.396364 
z
" style="stroke: #ffffff; stroke-opacity: 0.5"/>
    </defs>
    <g clip-path="url(#pffcb24b94a)">
     <use xlink:href="#mc4b95146c7" x="0" y="345.6" style="fill: #937860; fill-opacity: 0.5; stroke: #ffffff; stroke-opacity: 0.5"/>
    </g>
   </g>
   <g id="line2d_14">
    <path d="M 85.131818 213.062773 
L 88.034645 210.726836 
L 90.937471 210.742891 
L 93.840298 215.671636 
L 96.743125 281.475205 
L 99.645951 277.778645 
L 102.548778 274.788486 
L 105.451604 277.822795 
L 108.354431 276.77925 
L 111.257257 280.307236 
L 114.160084 281.960855 
L 117.062911 281.691941 
L 119.965737 278.023477 
L 122.868564 281.876568 
L 125.77139 281.374864 
L 128.674217 282.458545 
L 131.577044 280.471795 
L 134.47987 282.498682 
L 137.382697 282.446505 
L 140.285523 281.358809 
L 143.18835 282.446505 
L 146.091176 280.84105 
L 148.994003 282.117386 
L 151.89683 282.458545 
L 154.799656 282.434464 
L 157.702483 282.442491 
L 160.605309 282.458545 
L 163.508136 282.454532 
L 166.410963 282.446505 
L 169.313789 282.458545 
L 172.216616 282.426436 
L 175.119442 282.438477 
L 178.022269 282.442491 
L 180.925095 282.426436 
L 183.827922 282.466573 
L 186.730749 282.434464 
L 189.633575 282.458545 
L 192.536402 282.398341 
L 195.439228 282.434464 
L 198.342055 282.466573 
L 201.244882 282.418409 
L 204.147708 282.43045 
L 207.050535 282.43045 
L 209.953361 282.422423 
L 212.856188 282.458545 
L 215.759015 282.43045 
L 218.661841 282.398341 
L 221.564668 282.426436 
L 224.467494 282.446505 
L 227.370321 282.43045 
L 230.273147 282.43045 
L 233.175974 282.422423 
L 236.078801 282.422423 
L 238.981627 282.398341 
L 241.884454 282.406368 
L 244.78728 282.414395 
L 247.690107 282.398341 
L 250.592934 282.422423 
L 253.49576 282.422423 
L 256.398587 282.422423 
L 259.301413 282.394327 
L 262.20424 282.422423 
L 265.107066 282.43045 
L 268.009893 282.418409 
L 270.91272 282.398341 
L 273.815546 282.402355 
L 276.718373 282.414395 
L 279.621199 282.394327 
L 282.524026 282.422423 
L 285.426853 282.406368 
L 288.329679 282.394327 
L 291.232506 282.394327 
L 294.135332 282.418409 
L 297.038159 282.358205 
L 299.940985 282.374259 
L 302.843812 282.410382 
L 305.746639 282.418409 
L 308.649465 282.406368 
L 311.552292 282.414395 
L 314.455118 282.382286 
L 317.357945 282.382286 
L 320.260772 282.358205 
L 323.163598 282.406368 
L 326.066425 282.438477 
L 328.969251 282.3863 
L 331.872078 282.398341 
L 334.774905 282.3863 
L 337.677731 282.398341 
L 340.580558 282.442491 
L 343.483384 282.434464 
L 346.386211 282.370245 
L 349.289037 282.418409 
L 352.191864 282.406368 
L 355.094691 282.418409 
L 357.997517 282.354191 
L 360.900344 282.398341 
L 363.80317 282.414395 
L 366.705997 282.418409 
L 369.608824 282.398341 
L 372.51165 282.402355 
L 375.414477 282.3863 
L 378.317303 282.390314 
L 381.22013 282.418409 
L 384.122956 282.442491 
L 387.025783 282.350177 
L 389.92861 282.370245 
L 392.831436 282.402355 
L 395.734263 282.370245 
L 398.637089 282.382286 
L 401.539916 282.330109 
L 404.442743 282.398341 
L 407.345569 282.406368 
L 410.248396 282.394327 
L 413.151222 282.402355 
L 416.054049 282.3863 
L 418.956875 282.402355 
L 421.859702 282.406368 
L 424.762529 282.394327 
L 427.665355 282.438477 
L 430.568182 282.410382 
" clip-path="url(#pffcb24b94a)" style="fill: none; stroke: #4c72b0; stroke-width: 3; stroke-linecap: round"/>
   </g>
   <g id="line2d_15">
    <path d="M 85.131818 214.864895 
L 88.034645 206.84565 
L 90.937471 207.592186 
L 93.840298 200.873359 
L 96.743125 282.619091 
L 99.645951 282.619091 
L 102.548778 277.730482 
L 105.451604 278.886409 
L 108.354431 277.465582 
L 111.257257 280.122609 
L 114.160084 278.709809 
L 117.062911 280.190841 
L 119.965737 278.549264 
L 122.868564 280.026282 
L 125.77139 281.716023 
L 128.674217 280.214923 
L 131.577044 282.366232 
L 134.47987 281.057786 
L 137.382697 278.087695 
L 140.285523 280.411591 
L 143.18835 280.656423 
L 146.091176 280.110568 
L 148.994003 279.797505 
L 151.89683 282.261877 
L 154.799656 281.880582 
L 157.702483 279.905873 
L 160.605309 280.540027 
L 163.508136 277.449527 
L 166.410963 281.431055 
L 169.313789 282.578955 
L 172.216616 281.984936 
L 175.119442 281.266495 
L 178.022269 282.498682 
L 180.925095 281.691941 
L 183.827922 281.262482 
L 186.730749 282.129427 
L 189.633575 281.760173 
L 192.536402 281.776227 
L 195.439228 280.343359 
L 198.342055 281.98895 
L 201.244882 282.418409 
L 204.147708 279.404168 
L 207.050535 282.558886 
L 209.953361 278.922532 
L 212.856188 281.5916 
L 215.759015 280.660436 
L 218.661841 280.078459 
L 221.564668 280.680505 
L 224.467494 280.688532 
L 227.370321 282.586982 
L 230.273147 280.768805 
L 233.175974 280.648395 
L 236.078801 281.427041 
L 238.981627 281.029691 
L 241.884454 280.48785 
L 244.78728 280.407577 
L 247.690107 282.197659 
L 250.592934 280.395536 
L 253.49576 280.407577 
L 256.398587 280.186827 
L 259.301413 282.065209 
L 262.20424 280.668464 
L 265.107066 282.442491 
L 268.009893 281.402959 
L 270.91272 281.499286 
L 273.815546 281.5033 
L 276.718373 279.982132 
L 279.621199 281.415 
L 282.524026 281.607655 
L 285.426853 282.570927 
L 288.329679 282.434464 
L 291.232506 280.941391 
L 294.135332 281.515341 
L 297.038159 281.643777 
L 299.940985 280.728668 
L 302.843812 282.482627 
L 305.746639 281.8565 
L 308.649465 282.526777 
L 311.552292 280.712614 
L 314.455118 280.696559 
L 317.357945 280.616286 
L 320.260772 281.158127 
L 323.163598 279.937982 
L 326.066425 281.663845 
L 328.969251 280.259073 
L 331.872078 282.546845 
L 334.774905 281.037718 
L 337.677731 282.013032 
L 340.580558 281.294591 
L 343.483384 281.720036 
L 346.386211 280.243018 
L 349.289037 281.716023 
L 352.191864 282.426436 
L 355.094691 281.515341 
L 357.997517 282.538818 
L 360.900344 282.310041 
L 363.80317 280.455741 
L 366.705997 282.189632 
L 369.608824 282.061195 
L 372.51165 282.241809 
L 375.414477 281.410986 
L 378.317303 281.764186 
L 381.22013 280.760777 
L 384.122956 281.394932 
L 387.025783 281.884595 
L 389.92861 282.490655 
L 392.831436 280.768805 
L 395.734263 281.892623 
L 398.637089 282.302014 
L 401.539916 282.105345 
L 404.442743 282.249836 
L 407.345569 281.37085 
L 410.248396 281.206291 
L 413.151222 281.495273 
L 416.054049 282.197659 
L 418.956875 282.229768 
L 421.859702 282.193645 
L 424.762529 281.864527 
L 427.665355 282.298 
L 430.568182 281.005609 
" clip-path="url(#pffcb24b94a)" style="fill: none; stroke: #dd8452; stroke-width: 3; stroke-linecap: round"/>
   </g>
   <g id="line2d_16">
    <path d="M 85.131818 194.070245 
L 88.034645 206.616873 
L 90.937471 200.66465 
L 93.840298 201.057986 
L 96.743125 279.492468 
L 99.645951 282.619091 
L 102.548778 282.619091 
L 105.451604 282.177591 
L 108.354431 282.374259 
L 111.257257 280.548055 
L 114.160084 276.767209 
L 117.062911 281.202277 
L 119.965737 282.233782 
L 122.868564 282.298 
L 125.77139 282.603036 
L 128.674217 282.201673 
L 131.577044 278.131845 
L 134.47987 282.478614 
L 137.382697 282.281945 
L 140.285523 273.873377 
L 143.18835 280.327305 
L 146.091176 281.001595 
L 148.994003 282.161536 
L 151.89683 279.552673 
L 154.799656 282.599023 
L 157.702483 280.75275 
L 160.605309 282.611064 
L 163.508136 282.398341 
L 166.410963 282.205686 
L 169.313789 282.053168 
L 172.216616 281.736091 
L 175.119442 281.888609 
L 178.022269 282.595009 
L 180.925095 282.498682 
L 183.827922 280.387509 
L 186.730749 282.586982 
L 189.633575 281.836432 
L 192.536402 281.880582 
L 195.439228 282.478614 
L 198.342055 281.916705 
L 201.244882 280.997582 
L 204.147708 282.554873 
L 207.050535 281.611668 
L 209.953361 282.185618 
L 212.856188 278.878382 
L 215.759015 282.554873 
L 218.661841 281.663845 
L 221.564668 281.286564 
L 224.467494 280.913295 
L 227.370321 277 
L 230.273147 279.468386 
L 233.175974 280.419618 
L 236.078801 281.98895 
L 238.981627 279.203486 
L 241.884454 280.230977 
L 244.78728 281.306632 
L 247.690107 281.443095 
L 250.592934 277.417418 
L 253.49576 280.668464 
L 256.398587 278.729877 
L 259.301413 280.367441 
L 262.20424 279.432264 
L 265.107066 279.729273 
L 268.009893 280.720641 
L 270.91272 279.909886 
L 273.815546 278.822191 
L 276.718373 279.195459 
L 279.621199 280.206895 
L 282.524026 279.42825 
L 285.426853 277.967286 
L 288.329679 279.833627 
L 291.232506 280.407577 
L 294.135332 280.604245 
L 297.038159 280.387509 
L 299.940985 279.741314 
L 302.843812 279.773423 
L 305.746639 280.560095 
L 308.649465 281.310645 
L 311.552292 281.109964 
L 314.455118 277.481636 
L 317.357945 278.866341 
L 320.260772 279.669068 
L 323.163598 278.701782 
L 326.066425 279.677095 
L 328.969251 279.022873 
L 331.872078 278.340555 
L 334.774905 278.806136 
L 337.677731 279.022873 
L 340.580558 278.729877 
L 343.483384 278.834232 
L 346.386211 278.396745 
L 349.289037 279.099132 
L 352.191864 279.135255 
L 355.094691 278.673686 
L 357.997517 281.258468 
L 360.900344 277.525786 
L 363.80317 279.568727 
L 366.705997 280.118595 
L 369.608824 280.158732 
L 372.51165 280.323291 
L 375.414477 278.709809 
L 378.317303 278.477018 
L 381.22013 279.917914 
L 384.122956 277.806741 
L 387.025783 279.195459 
L 389.92861 276.723059 
L 392.831436 278.19205 
L 395.734263 276.578568 
L 398.637089 275.462777 
L 401.539916 278.400759 
L 404.442743 276.217341 
L 407.345569 278.846273 
L 410.248396 275.266109 
L 413.151222 279.067023 
L 416.054049 277.152518 
L 418.956875 277.786673 
L 421.859702 279.299814 
L 424.762529 281.190236 
L 427.665355 279.681109 
L 430.568182 278.537223 
" clip-path="url(#pffcb24b94a)" style="fill: none; stroke: #55a868; stroke-width: 3; stroke-linecap: round"/>
   </g>
   <g id="line2d_17">
    <path d="M 85.131818 203.349773 
L 88.034645 198.156127 
L 90.937471 204.987336 
L 93.840298 213.769173 
L 96.743125 270.132668 
L 99.645951 281.431055 
L 102.548778 281.394932 
L 105.451604 282.619091 
L 108.354431 279.416209 
L 111.257257 271.846491 
L 114.160084 275.225973 
L 117.062911 281.511327 
L 119.965737 274.499505 
L 122.868564 268.475036 
L 125.77139 279.657027 
L 128.674217 281.423027 
L 131.577044 279.2958 
L 134.47987 271.56955 
L 137.382697 282.037114 
L 140.285523 280.808941 
L 143.18835 278.043545 
L 146.091176 277.987355 
L 148.994003 280.552068 
L 151.89683 281.234386 
L 154.799656 282.358205 
L 157.702483 282.502695 
L 160.605309 257.911145 
L 163.508136 276.422036 
L 166.410963 280.086486 
L 169.313789 278.814164 
L 172.216616 282.530791 
L 175.119442 281.049759 
L 178.022269 265.488891 
L 180.925095 279.632945 
L 183.827922 279.388114 
L 186.730749 277.160545 
L 189.633575 279.572741 
L 192.536402 277 
L 195.439228 279.528591 
L 198.342055 271.413018 
L 201.244882 281.250441 
L 204.147708 273.949636 
L 207.050535 279.107159 
L 209.953361 280.544041 
L 212.856188 277.878986 
L 215.759015 279.665055 
L 218.661841 278.300418 
L 221.564668 269.402186 
L 224.467494 275.4989 
L 227.370321 275.001209 
L 230.273147 278.276336 
L 233.175974 277.883 
L 236.078801 278.384705 
L 238.981627 276.827414 
L 241.884454 280.150705 
L 244.78728 278.264295 
L 247.690107 273.500109 
L 250.592934 278.958655 
L 253.49576 277.866945 
L 256.398587 279.921927 
L 259.301413 274.724268 
L 262.20424 280.275127 
L 265.107066 281.507314 
L 268.009893 278.770014 
L 270.91272 280.552068 
L 273.815546 279.400155 
L 276.718373 278.477018 
L 279.621199 281.226359 
L 282.524026 280.48785 
L 285.426853 277.365241 
L 288.329679 277.256873 
L 291.232506 280.066418 
L 294.135332 278.083682 
L 297.038159 280.624314 
L 299.940985 280.913295 
L 302.843812 276.827414 
L 305.746639 278.408786 
L 308.649465 280.014241 
L 311.552292 279.962064 
L 314.455118 277.30905 
L 317.357945 278.01545 
L 320.260772 278.858314 
L 323.163598 279.813559 
L 326.066425 277.525786 
L 328.969251 280.263086 
L 331.872078 279.69315 
L 334.774905 279.7373 
L 337.677731 281.423027 
L 340.580558 279.669068 
L 343.483384 280.580164 
L 346.386211 280.532 
L 349.289037 280.483836 
L 352.191864 280.584177 
L 355.094691 281.025677 
L 357.997517 281.093909 
L 360.900344 279.520564 
L 363.80317 280.849077 
L 366.705997 279.532605 
L 369.608824 280.014241 
L 372.51165 280.206895 
L 375.414477 279.990159 
L 378.317303 279.813559 
L 381.22013 279.600836 
L 384.122956 278.798109 
L 387.025783 280.475809 
L 389.92861 280.969486 
L 392.831436 279.291786 
L 395.734263 279.881791 
L 398.637089 280.210909 
L 401.539916 281.109964 
L 404.442743 281.045745 
L 407.345569 280.632341 
L 410.248396 279.769409 
L 413.151222 279.576755 
L 416.054049 279.171377 
L 418.956875 280.303223 
L 421.859702 278.661645 
L 424.762529 281.182209 
L 427.665355 279.661041 
L 430.568182 278.701782 
" clip-path="url(#pffcb24b94a)" style="fill: none; stroke: #c44e52; stroke-width: 3; stroke-linecap: round"/>
   </g>
   <g id="line2d_18">
    <path d="M 85.131818 197.333332 
L 88.034645 196.301827 
L 90.937471 203.036709 
L 93.840298 207.756745 
L 96.743125 231.088014 
L 99.645951 281.126018 
L 102.548778 282.021059 
L 105.451604 280.989555 
L 108.354431 274.840664 
L 111.257257 282.494668 
L 114.160084 282.314055 
L 117.062911 280.411591 
L 119.965737 254.343023 
L 122.868564 282.326095 
L 125.77139 280.226964 
L 128.674217 280.287168 
L 131.577044 281.174182 
L 134.47987 278.256268 
L 137.382697 280.596218 
L 140.285523 226.765327 
L 143.18835 280.078459 
L 146.091176 280.130636 
L 148.994003 282.197659 
L 151.89683 281.507314 
L 154.799656 268.739936 
L 157.702483 282.117386 
L 160.605309 281.932759 
L 163.508136 273.496095 
L 166.410963 261.037768 
L 169.313789 273.239223 
L 172.216616 280.800914 
L 175.119442 274.346986 
L 178.022269 274.832636 
L 180.925095 277.907082 
L 183.827922 281.322686 
L 186.730749 276.715032 
L 189.633575 281.382891 
L 192.536402 245.504995 
L 195.439228 276.269518 
L 198.342055 273.383714 
L 201.244882 277.317077 
L 204.147708 281.254455 
L 207.050535 275.988564 
L 209.953361 269.622936 
L 212.856188 280.48785 
L 215.759015 280.616286 
L 218.661841 274.908895 
L 221.564668 266.343795 
L 224.467494 266.211345 
L 227.370321 281.318673 
L 230.273147 254.150368 
L 233.175974 264.983173 
L 236.078801 271.561523 
L 238.981627 278.304432 
L 241.884454 261.382941 
L 244.78728 280.788873 
L 247.690107 279.195459 
L 250.592934 280.082473 
L 253.49576 280.062405 
L 256.398587 265.187868 
L 259.301413 277.895041 
L 262.20424 273.086705 
L 265.107066 258.485095 
L 268.009893 271.148118 
L 270.91272 272.091323 
L 273.815546 260.459805 
L 276.718373 272.589014 
L 279.621199 268.382723 
L 282.524026 278.517155 
L 285.426853 273.700791 
L 288.329679 281.122005 
L 291.232506 273.476027 
L 294.135332 275.406586 
L 297.038159 268.374695 
L 299.940985 276.257477 
L 302.843812 275.258082 
L 305.746639 268.394764 
L 308.649465 267.921155 
L 311.552292 266.973936 
L 314.455118 276.7351 
L 317.357945 278.107764 
L 320.260772 277.385309 
L 323.163598 272.400373 
L 326.066425 275.430668 
L 328.969251 271.220364 
L 331.872078 270.393555 
L 334.774905 276.927755 
L 337.677731 276.012645 
L 340.580558 277.646195 
L 343.483384 274.302836 
L 346.386211 274.531614 
L 349.289037 276.100945 
L 352.191864 278.513141 
L 355.094691 268.145918 
L 357.997517 280.7086 
L 360.900344 278.910491 
L 363.80317 279.195459 
L 366.705997 278.966682 
L 369.608824 275.824005 
L 372.51165 277.802727 
L 375.414477 280.451727 
L 378.317303 279.865736 
L 381.22013 279.392127 
L 384.122956 276.225368 
L 387.025783 275.928359 
L 389.92861 269.960082 
L 392.831436 270.578182 
L 395.734263 273.094732 
L 398.637089 273.034527 
L 401.539916 279.488455 
L 404.442743 277.923136 
L 407.345569 278.89845 
L 410.248396 278.753959 
L 413.151222 280.283155 
L 416.054049 281.117991 
L 418.956875 281.202277 
L 421.859702 280.251045 
L 424.762529 280.981527 
L 427.665355 280.142677 
L 430.568182 280.523973 
" clip-path="url(#pffcb24b94a)" style="fill: none; stroke: #8172b3; stroke-width: 3; stroke-linecap: round"/>
   </g>
   <g id="line2d_19">
    <path d="M 85.131818 205.416795 
L 88.034645 197.2651 
L 90.937471 202.675482 
L 93.840298 205.468973 
L 96.743125 198.878582 
L 99.645951 192.733705 
L 102.548778 251.292659 
L 105.451604 253.881455 
L 108.354431 229.245755 
L 111.257257 269.269736 
L 114.160084 275.711623 
L 117.062911 226.440223 
L 119.965737 282.302014 
L 122.868564 277.975314 
L 125.77139 272.404386 
L 128.674217 265.553109 
L 131.577044 276.654827 
L 134.47987 248.153995 
L 137.382697 252.729541 
L 140.285523 231.164273 
L 143.18835 274.182427 
L 146.091176 266.656859 
L 148.994003 270.610291 
L 151.89683 276.020673 
L 154.799656 276.650814 
L 157.702483 270.963491 
L 160.605309 267.86095 
L 163.508136 275.18985 
L 166.410963 252.926209 
L 169.313789 208.643759 
L 172.216616 267.555914 
L 175.119442 275.848086 
L 178.022269 230.2893 
L 180.925095 247.744605 
L 183.827922 234.114295 
L 186.730749 275.539036 
L 189.633575 270.224982 
L 192.536402 270.048382 
L 195.439228 236.506423 
L 198.342055 269.779468 
L 201.244882 231.629855 
L 204.147708 272.661259 
L 207.050535 262.390364 
L 209.953361 246.231464 
L 212.856188 261.788318 
L 215.759015 211.678068 
L 218.661841 281.515341 
L 221.564668 250.393605 
L 224.467494 212.649368 
L 227.370321 233.761095 
L 230.273147 280.84105 
L 233.175974 263.618536 
L 236.078801 273.183032 
L 238.981627 231.441214 
L 241.884454 281.45915 
L 244.78728 215.531159 
L 247.690107 196.775436 
L 250.592934 272.4967 
L 253.49576 255.832082 
L 256.398587 261.322736 
L 259.301413 248.238282 
L 262.20424 208.772195 
L 265.107066 264.140309 
L 268.009893 229.041059 
L 270.91272 272.709423 
L 273.815546 237.903168 
L 276.718373 257.413455 
L 279.621199 198.577559 
L 282.524026 274.872773 
L 285.426853 265.159773 
L 288.329679 246.717114 
L 291.232506 247.170655 
L 294.135332 254.70425 
L 297.038159 258.637614 
L 299.940985 269.518582 
L 302.843812 223.466118 
L 305.746639 202.559086 
L 308.649465 264.092145 
L 311.552292 260.572186 
L 314.455118 225.573277 
L 317.357945 271.003627 
L 320.260772 261.411036 
L 323.163598 276.859523 
L 326.066425 255.707659 
L 328.969251 267.002032 
L 331.872078 232.103464 
L 334.774905 260.893277 
L 337.677731 273.672695 
L 340.580558 216.951986 
L 343.483384 258.168018 
L 346.386211 256.474264 
L 349.289037 277.429459 
L 352.191864 263.939627 
L 355.094691 273.9978 
L 357.997517 224.248777 
L 360.900344 260.5762 
L 363.80317 261.419064 
L 366.705997 252.821855 
L 369.608824 229.932086 
L 372.51165 261.655868 
L 375.414477 253.993836 
L 378.317303 263.494114 
L 381.22013 275.486859 
L 384.122956 272.139486 
L 387.025783 249.05305 
L 389.92861 274.475423 
L 392.831436 271.228391 
L 395.734263 258.926595 
L 398.637089 276.462173 
L 401.539916 273.773036 
L 404.442743 267.218768 
L 407.345569 270.614305 
L 410.248396 257.758627 
L 413.151222 257.61815 
L 416.054049 260.335382 
L 418.956875 257.614136 
L 421.859702 262.20975 
L 424.762529 262.073286 
L 427.665355 262.366282 
L 430.568182 259.6932 
" clip-path="url(#pffcb24b94a)" style="fill: none; stroke: #937860; stroke-width: 3; stroke-linecap: round"/>
   </g>
   <g id="patch_3">
    <path d="M 67.86 294.66 
L 67.86 29.76 
" style="fill: none; stroke: #ffffff; stroke-width: 1.25; stroke-linejoin: miter; stroke-linecap: square"/>
   </g>
   <g id="patch_4">
    <path d="M 447.84 294.66 
L 447.84 29.76 
" style="fill: none; stroke: #ffffff; stroke-width: 1.25; stroke-linejoin: miter; stroke-linecap: square"/>
   </g>
   <g id="patch_5">
    <path d="M 67.86 294.66 
L 447.84 294.66 
" style="fill: none; stroke: #ffffff; stroke-width: 1.25; stroke-linejoin: miter; stroke-linecap: square"/>
   </g>
   <g id="patch_6">
    <path d="M 67.86 29.76 
L 447.84 29.76 
" style="fill: none; stroke: #ffffff; stroke-width: 1.25; stroke-linejoin: miter; stroke-linecap: square"/>
   </g>
   <g id="text_16">
    <!-- zinc-coating-v0 -->
    <g style="fill: #262626" transform="translate(204.491406 23.76)scale(0.14 -0.14)">
     <defs>
      <path id="DejaVuSans-7a" d="M 353 3500 
L 3084 3500 
L 3084 2975 
L 922 459 
L 3084 459 
L 3084 0 
L 275 0 
L 275 525 
L 2438 3041 
L 353 3041 
L 353 3500 
z
" transform="scale(0.015625)"/>
      <path id="DejaVuSans-63" d="M 3122 3366 
L 3122 2828 
Q 2878 2963 2633 3030 
Q 2388 3097 2138 3097 
Q 1578 3097 1268 2742 
Q 959 2388 959 1747 
Q 959 1106 1268 751 
Q 1578 397 2138 397 
Q 2388 397 2633 464 
Q 2878 531 3122 666 
L 3122 134 
Q 2881 22 2623 -34 
Q 2366 -91 2075 -91 
Q 1284 -91 818 406 
Q 353 903 353 1747 
Q 353 2603 823 3093 
Q 1294 3584 2113 3584 
Q 2378 3584 2631 3529 
Q 2884 3475 3122 3366 
z
" transform="scale(0.015625)"/>
      <path id="DejaVuSans-2d" d="M 313 2009 
L 1997 2009 
L 1997 1497 
L 313 1497 
L 313 2009 
z
" transform="scale(0.015625)"/>
      <path id="DejaVuSans-61" d="M 2194 1759 
Q 1497 1759 1228 1600 
Q 959 1441 959 1056 
Q 959 750 1161 570 
Q 1363 391 1709 391 
Q 2188 391 2477 730 
Q 2766 1069 2766 1631 
L 2766 1759 
L 2194 1759 
z
M 3341 1997 
L 3341 0 
L 2766 0 
L 2766 531 
Q 2569 213 2275 61 
Q 1981 -91 1556 -91 
Q 1019 -91 701 211 
Q 384 513 384 1019 
Q 384 1609 779 1909 
Q 1175 2209 1959 2209 
L 2766 2209 
L 2766 2266 
Q 2766 2663 2505 2880 
Q 2244 3097 1772 3097 
Q 1472 3097 1187 3025 
Q 903 2953 641 2809 
L 641 3341 
Q 956 3463 1253 3523 
Q 1550 3584 1831 3584 
Q 2591 3584 2966 3190 
Q 3341 2797 3341 1997 
z
" transform="scale(0.015625)"/>
      <path id="DejaVuSans-67" d="M 2906 1791 
Q 2906 2416 2648 2759 
Q 2391 3103 1925 3103 
Q 1463 3103 1205 2759 
Q 947 2416 947 1791 
Q 947 1169 1205 825 
Q 1463 481 1925 481 
Q 2391 481 2648 825 
Q 2906 1169 2906 1791 
z
M 3481 434 
Q 3481 -459 3084 -895 
Q 2688 -1331 1869 -1331 
Q 1566 -1331 1297 -1286 
Q 1028 -1241 775 -1147 
L 775 -588 
Q 1028 -725 1275 -790 
Q 1522 -856 1778 -856 
Q 2344 -856 2625 -561 
Q 2906 -266 2906 331 
L 2906 616 
Q 2728 306 2450 153 
Q 2172 0 1784 0 
Q 1141 0 747 490 
Q 353 981 353 1791 
Q 353 2603 747 3093 
Q 1141 3584 1784 3584 
Q 2172 3584 2450 3431 
Q 2728 3278 2906 2969 
L 2906 3500 
L 3481 3500 
L 3481 434 
z
" transform="scale(0.015625)"/>
      <path id="DejaVuSans-76" d="M 191 3500 
L 800 3500 
L 1894 563 
L 2988 3500 
L 3597 3500 
L 2284 0 
L 1503 0 
L 191 3500 
z
" transform="scale(0.015625)"/>
     </defs>
     <use xlink:href="#DejaVuSans-7a"/>
     <use xlink:href="#DejaVuSans-69" x="52.490234"/>
     <use xlink:href="#DejaVuSans-6e" x="80.273438"/>
     <use xlink:href="#DejaVuSans-63" x="143.652344"/>
     <use xlink:href="#DejaVuSans-2d" x="198.632812"/>
     <use xlink:href="#DejaVuSans-63" x="234.716797"/>
     <use xlink:href="#DejaVuSans-6f" x="289.697266"/>
     <use xlink:href="#DejaVuSans-61" x="350.878906"/>
     <use xlink:href="#DejaVuSans-74" x="412.158203"/>
     <use xlink:href="#DejaVuSans-69" x="451.367188"/>
     <use xlink:href="#DejaVuSans-6e" x="479.150391"/>
     <use xlink:href="#DejaVuSans-67" x="542.529297"/>
     <use xlink:href="#DejaVuSans-2d" x="606.005859"/>
     <use xlink:href="#DejaVuSans-76" x="639.464844"/>
     <use xlink:href="#DejaVuSans-30" x="698.644531"/>
    </g>
   </g>
   <g id="legend_1">
    <g id="patch_7">
     <path d="M 305.725156 135.435625 
L 440.14 135.435625 
Q 442.34 135.435625 442.34 133.235625 
L 442.34 37.46 
Q 442.34 35.26 440.14 35.26 
L 305.725156 35.26 
Q 303.525156 35.26 303.525156 37.46 
L 303.525156 133.235625 
Q 303.525156 135.435625 305.725156 135.435625 
z
" style="fill: #eaeaf2; opacity: 0.8; stroke: #cccccc; stroke-linejoin: miter"/>
    </g>
    <g id="line2d_20">
     <path d="M 307.925156 44.168281 
L 318.925156 44.168281 
L 329.925156 44.168281 
" style="fill: none; stroke: #4c72b0; stroke-width: 3; stroke-linecap: round"/>
    </g>
    <g id="text_17">
     <!-- SAC-DELAY-0 -->
     <g style="fill: #262626" transform="translate(338.725156 48.018281)scale(0.11 -0.11)">
      <defs>
       <path id="DejaVuSans-53" d="M 3425 4513 
L 3425 3897 
Q 3066 4069 2747 4153 
Q 2428 4238 2131 4238 
Q 1616 4238 1336 4038 
Q 1056 3838 1056 3469 
Q 1056 3159 1242 3001 
Q 1428 2844 1947 2747 
L 2328 2669 
Q 3034 2534 3370 2195 
Q 3706 1856 3706 1288 
Q 3706 609 3251 259 
Q 2797 -91 1919 -91 
Q 1588 -91 1214 -16 
Q 841 59 441 206 
L 441 856 
Q 825 641 1194 531 
Q 1563 422 1919 422 
Q 2459 422 2753 634 
Q 3047 847 3047 1241 
Q 3047 1584 2836 1778 
Q 2625 1972 2144 2069 
L 1759 2144 
Q 1053 2284 737 2584 
Q 422 2884 422 3419 
Q 422 4038 858 4394 
Q 1294 4750 2059 4750 
Q 2388 4750 2728 4690 
Q 3069 4631 3425 4513 
z
" transform="scale(0.015625)"/>
       <path id="DejaVuSans-41" d="M 2188 4044 
L 1331 1722 
L 3047 1722 
L 2188 4044 
z
M 1831 4666 
L 2547 4666 
L 4325 0 
L 3669 0 
L 3244 1197 
L 1141 1197 
L 716 0 
L 50 0 
L 1831 4666 
z
" transform="scale(0.015625)"/>
       <path id="DejaVuSans-43" d="M 4122 4306 
L 4122 3641 
Q 3803 3938 3442 4084 
Q 3081 4231 2675 4231 
Q 1875 4231 1450 3742 
Q 1025 3253 1025 2328 
Q 1025 1406 1450 917 
Q 1875 428 2675 428 
Q 3081 428 3442 575 
Q 3803 722 4122 1019 
L 4122 359 
Q 3791 134 3420 21 
Q 3050 -91 2638 -91 
Q 1578 -91 968 557 
Q 359 1206 359 2328 
Q 359 3453 968 4101 
Q 1578 4750 2638 4750 
Q 3056 4750 3426 4639 
Q 3797 4528 4122 4306 
z
" transform="scale(0.015625)"/>
       <path id="DejaVuSans-44" d="M 1259 4147 
L 1259 519 
L 2022 519 
Q 2988 519 3436 956 
Q 3884 1394 3884 2338 
Q 3884 3275 3436 3711 
Q 2988 4147 2022 4147 
L 1259 4147 
z
M 628 4666 
L 1925 4666 
Q 3281 4666 3915 4102 
Q 4550 3538 4550 2338 
Q 4550 1131 3912 565 
Q 3275 0 1925 0 
L 628 0 
L 628 4666 
z
" transform="scale(0.015625)"/>
       <path id="DejaVuSans-45" d="M 628 4666 
L 3578 4666 
L 3578 4134 
L 1259 4134 
L 1259 2753 
L 3481 2753 
L 3481 2222 
L 1259 2222 
L 1259 531 
L 3634 531 
L 3634 0 
L 628 0 
L 628 4666 
z
" transform="scale(0.015625)"/>
       <path id="DejaVuSans-59" d="M -13 4666 
L 666 4666 
L 1959 2747 
L 3244 4666 
L 3922 4666 
L 2272 2222 
L 2272 0 
L 1638 0 
L 1638 2222 
L -13 4666 
z
" transform="scale(0.015625)"/>
      </defs>
      <use xlink:href="#DejaVuSans-53"/>
      <use xlink:href="#DejaVuSans-41" x="65.351562"/>
      <use xlink:href="#DejaVuSans-43" x="132.009766"/>
      <use xlink:href="#DejaVuSans-2d" x="201.833984"/>
      <use xlink:href="#DejaVuSans-44" x="237.917969"/>
      <use xlink:href="#DejaVuSans-45" x="314.919922"/>
      <use xlink:href="#DejaVuSans-4c" x="378.103516"/>
      <use xlink:href="#DejaVuSans-41" x="436.066406"/>
      <use xlink:href="#DejaVuSans-59" x="496.724609"/>
      <use xlink:href="#DejaVuSans-2d" x="545.933594"/>
      <use xlink:href="#DejaVuSans-30" x="582.017578"/>
     </g>
    </g>
    <g id="line2d_21">
     <path d="M 307.925156 60.314219 
L 318.925156 60.314219 
L 329.925156 60.314219 
" style="fill: none; stroke: #dd8452; stroke-width: 3; stroke-linecap: round"/>
    </g>
    <g id="text_18">
     <!-- SAC-IS-DELAY-1 -->
     <g style="fill: #262626" transform="translate(338.725156 64.164219)scale(0.11 -0.11)">
      <defs>
       <path id="DejaVuSans-49" d="M 628 4666 
L 1259 4666 
L 1259 0 
L 628 0 
L 628 4666 
z
" transform="scale(0.015625)"/>
      </defs>
      <use xlink:href="#DejaVuSans-53"/>
      <use xlink:href="#DejaVuSans-41" x="65.351562"/>
      <use xlink:href="#DejaVuSans-43" x="132.009766"/>
      <use xlink:href="#DejaVuSans-2d" x="201.833984"/>
      <use xlink:href="#DejaVuSans-49" x="237.917969"/>
      <use xlink:href="#DejaVuSans-53" x="267.410156"/>
      <use xlink:href="#DejaVuSans-2d" x="330.886719"/>
      <use xlink:href="#DejaVuSans-44" x="366.970703"/>
      <use xlink:href="#DejaVuSans-45" x="443.972656"/>
      <use xlink:href="#DejaVuSans-4c" x="507.15625"/>
      <use xlink:href="#DejaVuSans-41" x="565.119141"/>
      <use xlink:href="#DejaVuSans-59" x="625.777344"/>
      <use xlink:href="#DejaVuSans-2d" x="674.986328"/>
      <use xlink:href="#DejaVuSans-31" x="711.070312"/>
     </g>
    </g>
    <g id="line2d_22">
     <path d="M 307.925156 76.460156 
L 318.925156 76.460156 
L 329.925156 76.460156 
" style="fill: none; stroke: #55a868; stroke-width: 3; stroke-linecap: round"/>
    </g>
    <g id="text_19">
     <!-- SAC-IS-DELAY-5 -->
     <g style="fill: #262626" transform="translate(338.725156 80.310156)scale(0.11 -0.11)">
      <use xlink:href="#DejaVuSans-53"/>
      <use xlink:href="#DejaVuSans-41" x="65.351562"/>
      <use xlink:href="#DejaVuSans-43" x="132.009766"/>
      <use xlink:href="#DejaVuSans-2d" x="201.833984"/>
      <use xlink:href="#DejaVuSans-49" x="237.917969"/>
      <use xlink:href="#DejaVuSans-53" x="267.410156"/>
      <use xlink:href="#DejaVuSans-2d" x="330.886719"/>
      <use xlink:href="#DejaVuSans-44" x="366.970703"/>
      <use xlink:href="#DejaVuSans-45" x="443.972656"/>
      <use xlink:href="#DejaVuSans-4c" x="507.15625"/>
      <use xlink:href="#DejaVuSans-41" x="565.119141"/>
      <use xlink:href="#DejaVuSans-59" x="625.777344"/>
      <use xlink:href="#DejaVuSans-2d" x="674.986328"/>
      <use xlink:href="#DejaVuSans-35" x="711.070312"/>
     </g>
    </g>
    <g id="line2d_23">
     <path d="M 307.925156 92.606094 
L 318.925156 92.606094 
L 329.925156 92.606094 
" style="fill: none; stroke: #c44e52; stroke-width: 3; stroke-linecap: round"/>
    </g>
    <g id="text_20">
     <!-- SAC-IS-DELAY-10 -->
     <g style="fill: #262626" transform="translate(338.725156 96.456094)scale(0.11 -0.11)">
      <use xlink:href="#DejaVuSans-53"/>
      <use xlink:href="#DejaVuSans-41" x="65.351562"/>
      <use xlink:href="#DejaVuSans-43" x="132.009766"/>
      <use xlink:href="#DejaVuSans-2d" x="201.833984"/>
      <use xlink:href="#DejaVuSans-49" x="237.917969"/>
      <use xlink:href="#DejaVuSans-53" x="267.410156"/>
      <use xlink:href="#DejaVuSans-2d" x="330.886719"/>
      <use xlink:href="#DejaVuSans-44" x="366.970703"/>
      <use xlink:href="#DejaVuSans-45" x="443.972656"/>
      <use xlink:href="#DejaVuSans-4c" x="507.15625"/>
      <use xlink:href="#DejaVuSans-41" x="565.119141"/>
      <use xlink:href="#DejaVuSans-59" x="625.777344"/>
      <use xlink:href="#DejaVuSans-2d" x="674.986328"/>
      <use xlink:href="#DejaVuSans-31" x="711.070312"/>
      <use xlink:href="#DejaVuSans-30" x="774.693359"/>
     </g>
    </g>
    <g id="line2d_24">
     <path d="M 307.925156 108.752031 
L 318.925156 108.752031 
L 329.925156 108.752031 
" style="fill: none; stroke: #8172b3; stroke-width: 3; stroke-linecap: round"/>
    </g>
    <g id="text_21">
     <!-- SAC-IS-DELAY-20 -->
     <g style="fill: #262626" transform="translate(338.725156 112.602031)scale(0.11 -0.11)">
      <use xlink:href="#DejaVuSans-53"/>
      <use xlink:href="#DejaVuSans-41" x="65.351562"/>
      <use xlink:href="#DejaVuSans-43" x="132.009766"/>
      <use xlink:href="#DejaVuSans-2d" x="201.833984"/>
      <use xlink:href="#DejaVuSans-49" x="237.917969"/>
      <use xlink:href="#DejaVuSans-53" x="267.410156"/>
      <use xlink:href="#DejaVuSans-2d" x="330.886719"/>
      <use xlink:href="#DejaVuSans-44" x="366.970703"/>
      <use xlink:href="#DejaVuSans-45" x="443.972656"/>
      <use xlink:href="#DejaVuSans-4c" x="507.15625"/>
      <use xlink:href="#DejaVuSans-41" x="565.119141"/>
      <use xlink:href="#DejaVuSans-59" x="625.777344"/>
      <use xlink:href="#DejaVuSans-2d" x="674.986328"/>
      <use xlink:href="#DejaVuSans-32" x="711.070312"/>
      <use xlink:href="#DejaVuSans-30" x="774.693359"/>
     </g>
    </g>
    <g id="line2d_25">
     <path d="M 307.925156 124.897969 
L 318.925156 124.897969 
L 329.925156 124.897969 
" style="fill: none; stroke: #937860; stroke-width: 3; stroke-linecap: round"/>
    </g>
    <g id="text_22">
     <!-- SAC-IS-DELAY-100 -->
     <g style="fill: #262626" transform="translate(338.725156 128.747969)scale(0.11 -0.11)">
      <use xlink:href="#DejaVuSans-53"/>
      <use xlink:href="#DejaVuSans-41" x="65.351562"/>
      <use xlink:href="#DejaVuSans-43" x="132.009766"/>
      <use xlink:href="#DejaVuSans-2d" x="201.833984"/>
      <use xlink:href="#DejaVuSans-49" x="237.917969"/>
      <use xlink:href="#DejaVuSans-53" x="267.410156"/>
      <use xlink:href="#DejaVuSans-2d" x="330.886719"/>
      <use xlink:href="#DejaVuSans-44" x="366.970703"/>
      <use xlink:href="#DejaVuSans-45" x="443.972656"/>
      <use xlink:href="#DejaVuSans-4c" x="507.15625"/>
      <use xlink:href="#DejaVuSans-41" x="565.119141"/>
      <use xlink:href="#DejaVuSans-59" x="625.777344"/>
      <use xlink:href="#DejaVuSans-2d" x="674.986328"/>
      <use xlink:href="#DejaVuSans-31" x="711.070312"/>
      <use xlink:href="#DejaVuSans-30" x="774.693359"/>
      <use xlink:href="#DejaVuSans-30" x="838.316406"/>
     </g>
    </g>
   </g>
  </g>
 </g>
 <defs>
  <clipPath id="pffcb24b94a">
   <rect x="67.86" y="29.76" width="379.98" height="264.9"/>
  </clipPath>
 </defs>
</svg>
