<?xml version="1.0" encoding="utf-8" standalone="no"?>
<!DOCTYPE svg PUBLIC "-//W3C//DTD SVG 1.1//EN"
  "http://www.w3.org/Graphics/SVG/1.1/DTD/svg11.dtd">
<svg xmlns:xlink="http://www.w3.org/1999/xlink" width="460.8pt" height="345.6pt" viewBox="0 0 460.8 345.6" xmlns="http://www.w3.org/2000/svg" version="1.1">
 <metadata>
  <rdf:RDF xmlns:dc="http://purl.org/dc/elements/1.1/" xmlns:cc="http://creativecommons.org/ns#" xmlns:rdf="http://www.w3.org/1999/02/22-rdf-syntax-ns#">
   <cc:Work>
    <dc:type rdf:resource="http://purl.org/dc/dcmitype/StillImage"/>
    <dc:date>2022-09-10T15:51:22.297018</dc:date>
    <dc:format>image/svg+xml</dc:format>
    <dc:creator>
     <cc:Agent>
      <dc:title>Matplotlib v3.5.3, https://matplotlib.org/</dc:title>
     </cc:Agent>
    </dc:creator>
   </cc:Work>
  </rdf:RDF>
 </metadata>
 <defs>
  <style type="text/css">*{stroke-linejoin: round; stroke-linecap: butt}</style>
 </defs>
 <g id="figure_1">
  <g id="patch_1">
   <path d="M 0 345.6 
L 460.8 345.6 
L 460.8 0 
L 0 0 
z
" style="fill: #ffffff"/>
  </g>
  <g id="axes_1">
   <g id="patch_2">
    <path d="M 67.86 294.66 
L 447.84 294.66 
L 447.84 29.76 
L 67.86 29.76 
z
" style="fill: #eaeaf2"/>
   </g>
   <g id="matplotlib.axis_1">
    <g id="xtick_1">
     <g id="line2d_1">
      <path d="M 82.228992 294.66 
L 82.228992 29.76 
" clip-path="url(#pb4d90560da)" style="fill: none; stroke: #ffffff; stroke-linecap: round"/>
     </g>
     <g id="text_1">
      <!-- 0.00 -->
      <g style="fill: #262626" transform="translate(69.982898 312.518281)scale(0.11 -0.11)">
       <defs>
        <path id="DejaVuSans-30" d="M 2034 4250 
Q 1547 4250 1301 3770 
Q 1056 3291 1056 2328 
Q 1056 1369 1301 889 
Q 1547 409 2034 409 
Q 2525 409 2770 889 
Q 3016 1369 3016 2328 
Q 3016 3291 2770 3770 
Q 2525 4250 2034 4250 
z
M 2034 4750 
Q 2819 4750 3233 4129 
Q 3647 3509 3647 2328 
Q 3647 1150 3233 529 
Q 2819 -91 2034 -91 
Q 1250 -91 836 529 
Q 422 1150 422 2328 
Q 422 3509 836 4129 
Q 1250 4750 2034 4750 
z
" transform="scale(0.015625)"/>
        <path id="DejaVuSans-2e" d="M 684 794 
L 1344 794 
L 1344 0 
L 684 0 
L 684 794 
z
" transform="scale(0.015625)"/>
       </defs>
       <use xlink:href="#DejaVuSans-30"/>
       <use xlink:href="#DejaVuSans-2e" x="63.623047"/>
       <use xlink:href="#DejaVuSans-30" x="95.410156"/>
       <use xlink:href="#DejaVuSans-30" x="159.033203"/>
      </g>
     </g>
    </g>
    <g id="xtick_2">
     <g id="line2d_2">
      <path d="M 140.285523 294.66 
L 140.285523 29.76 
" clip-path="url(#pb4d90560da)" style="fill: none; stroke: #ffffff; stroke-linecap: round"/>
     </g>
     <g id="text_2">
      <!-- 0.05 -->
      <g style="fill: #262626" transform="translate(128.03943 312.518281)scale(0.11 -0.11)">
       <defs>
        <path id="DejaVuSans-35" d="M 691 4666 
L 3169 4666 
L 3169 4134 
L 1269 4134 
L 1269 2991 
Q 1406 3038 1543 3061 
Q 1681 3084 1819 3084 
Q 2600 3084 3056 2656 
Q 3513 2228 3513 1497 
Q 3513 744 3044 326 
Q 2575 -91 1722 -91 
Q 1428 -91 1123 -41 
Q 819 9 494 109 
L 494 744 
Q 775 591 1075 516 
Q 1375 441 1709 441 
Q 2250 441 2565 725 
Q 2881 1009 2881 1497 
Q 2881 1984 2565 2268 
Q 2250 2553 1709 2553 
Q 1456 2553 1204 2497 
Q 953 2441 691 2322 
L 691 4666 
z
" transform="scale(0.015625)"/>
       </defs>
       <use xlink:href="#DejaVuSans-30"/>
       <use xlink:href="#DejaVuSans-2e" x="63.623047"/>
       <use xlink:href="#DejaVuSans-30" x="95.410156"/>
       <use xlink:href="#DejaVuSans-35" x="159.033203"/>
      </g>
     </g>
    </g>
    <g id="xtick_3">
     <g id="line2d_3">
      <path d="M 198.342055 294.66 
L 198.342055 29.76 
" clip-path="url(#pb4d90560da)" style="fill: none; stroke: #ffffff; stroke-linecap: round"/>
     </g>
     <g id="text_3">
      <!-- 0.10 -->
      <g style="fill: #262626" transform="translate(186.095961 312.518281)scale(0.11 -0.11)">
       <defs>
        <path id="DejaVuSans-31" d="M 794 531 
L 1825 531 
L 1825 4091 
L 703 3866 
L 703 4441 
L 1819 4666 
L 2450 4666 
L 2450 531 
L 3481 531 
L 3481 0 
L 794 0 
L 794 531 
z
" transform="scale(0.015625)"/>
       </defs>
       <use xlink:href="#DejaVuSans-30"/>
       <use xlink:href="#DejaVuSans-2e" x="63.623047"/>
       <use xlink:href="#DejaVuSans-31" x="95.410156"/>
       <use xlink:href="#DejaVuSans-30" x="159.033203"/>
      </g>
     </g>
    </g>
    <g id="xtick_4">
     <g id="line2d_4">
      <path d="M 256.398587 294.66 
L 256.398587 29.76 
" clip-path="url(#pb4d90560da)" style="fill: none; stroke: #ffffff; stroke-linecap: round"/>
     </g>
     <g id="text_4">
      <!-- 0.15 -->
      <g style="fill: #262626" transform="translate(244.152493 312.518281)scale(0.11 -0.11)">
       <use xlink:href="#DejaVuSans-30"/>
       <use xlink:href="#DejaVuSans-2e" x="63.623047"/>
       <use xlink:href="#DejaVuSans-31" x="95.410156"/>
       <use xlink:href="#DejaVuSans-35" x="159.033203"/>
      </g>
     </g>
    </g>
    <g id="xtick_5">
     <g id="line2d_5">
      <path d="M 314.455118 294.66 
L 314.455118 29.76 
" clip-path="url(#pb4d90560da)" style="fill: none; stroke: #ffffff; stroke-linecap: round"/>
     </g>
     <g id="text_5">
      <!-- 0.20 -->
      <g style="fill: #262626" transform="translate(302.209025 312.518281)scale(0.11 -0.11)">
       <defs>
        <path id="DejaVuSans-32" d="M 1228 531 
L 3431 531 
L 3431 0 
L 469 0 
L 469 531 
Q 828 903 1448 1529 
Q 2069 2156 2228 2338 
Q 2531 2678 2651 2914 
Q 2772 3150 2772 3378 
Q 2772 3750 2511 3984 
Q 2250 4219 1831 4219 
Q 1534 4219 1204 4116 
Q 875 4013 500 3803 
L 500 4441 
Q 881 4594 1212 4672 
Q 1544 4750 1819 4750 
Q 2544 4750 2975 4387 
Q 3406 4025 3406 3419 
Q 3406 3131 3298 2873 
Q 3191 2616 2906 2266 
Q 2828 2175 2409 1742 
Q 1991 1309 1228 531 
z
" transform="scale(0.015625)"/>
       </defs>
       <use xlink:href="#DejaVuSans-30"/>
       <use xlink:href="#DejaVuSans-2e" x="63.623047"/>
       <use xlink:href="#DejaVuSans-32" x="95.410156"/>
       <use xlink:href="#DejaVuSans-30" x="159.033203"/>
      </g>
     </g>
    </g>
    <g id="xtick_6">
     <g id="line2d_6">
      <path d="M 372.51165 294.66 
L 372.51165 29.76 
" clip-path="url(#pb4d90560da)" style="fill: none; stroke: #ffffff; stroke-linecap: round"/>
     </g>
     <g id="text_6">
      <!-- 0.25 -->
      <g style="fill: #262626" transform="translate(360.265556 312.518281)scale(0.11 -0.11)">
       <use xlink:href="#DejaVuSans-30"/>
       <use xlink:href="#DejaVuSans-2e" x="63.623047"/>
       <use xlink:href="#DejaVuSans-32" x="95.410156"/>
       <use xlink:href="#DejaVuSans-35" x="159.033203"/>
      </g>
     </g>
    </g>
    <g id="xtick_7">
     <g id="line2d_7">
      <path d="M 430.568182 294.66 
L 430.568182 29.76 
" clip-path="url(#pb4d90560da)" style="fill: none; stroke: #ffffff; stroke-linecap: round"/>
     </g>
     <g id="text_7">
      <!-- 0.30 -->
      <g style="fill: #262626" transform="translate(418.322088 312.518281)scale(0.11 -0.11)">
       <defs>
        <path id="DejaVuSans-33" d="M 2597 2516 
Q 3050 2419 3304 2112 
Q 3559 1806 3559 1356 
Q 3559 666 3084 287 
Q 2609 -91 1734 -91 
Q 1441 -91 1130 -33 
Q 819 25 488 141 
L 488 750 
Q 750 597 1062 519 
Q 1375 441 1716 441 
Q 2309 441 2620 675 
Q 2931 909 2931 1356 
Q 2931 1769 2642 2001 
Q 2353 2234 1838 2234 
L 1294 2234 
L 1294 2753 
L 1863 2753 
Q 2328 2753 2575 2939 
Q 2822 3125 2822 3475 
Q 2822 3834 2567 4026 
Q 2313 4219 1838 4219 
Q 1578 4219 1281 4162 
Q 984 4106 628 3988 
L 628 4550 
Q 988 4650 1302 4700 
Q 1616 4750 1894 4750 
Q 2613 4750 3031 4423 
Q 3450 4097 3450 3541 
Q 3450 3153 3228 2886 
Q 3006 2619 2597 2516 
z
" transform="scale(0.015625)"/>
       </defs>
       <use xlink:href="#DejaVuSans-30"/>
       <use xlink:href="#DejaVuSans-2e" x="63.623047"/>
       <use xlink:href="#DejaVuSans-33" x="95.410156"/>
       <use xlink:href="#DejaVuSans-30" x="159.033203"/>
      </g>
     </g>
    </g>
    <g id="text_8">
     <!-- Timesteps (in Million) -->
     <g style="fill: #262626" transform="translate(183.104219 329.44375)scale(0.14 -0.14)">
      <defs>
       <path id="DejaVuSans-54" d="M -19 4666 
L 3928 4666 
L 3928 4134 
L 2272 4134 
L 2272 0 
L 1638 0 
L 1638 4134 
L -19 4134 
L -19 4666 
z
" transform="scale(0.015625)"/>
       <path id="DejaVuSans-69" d="M 603 3500 
L 1178 3500 
L 1178 0 
L 603 0 
L 603 3500 
z
M 603 4863 
L 1178 4863 
L 1178 4134 
L 603 4134 
L 603 4863 
z
" transform="scale(0.015625)"/>
       <path id="DejaVuSans-6d" d="M 3328 2828 
Q 3544 3216 3844 3400 
Q 4144 3584 4550 3584 
Q 5097 3584 5394 3201 
Q 5691 2819 5691 2113 
L 5691 0 
L 5113 0 
L 5113 2094 
Q 5113 2597 4934 2840 
Q 4756 3084 4391 3084 
Q 3944 3084 3684 2787 
Q 3425 2491 3425 1978 
L 3425 0 
L 2847 0 
L 2847 2094 
Q 2847 2600 2669 2842 
Q 2491 3084 2119 3084 
Q 1678 3084 1418 2786 
Q 1159 2488 1159 1978 
L 1159 0 
L 581 0 
L 581 3500 
L 1159 3500 
L 1159 2956 
Q 1356 3278 1631 3431 
Q 1906 3584 2284 3584 
Q 2666 3584 2933 3390 
Q 3200 3197 3328 2828 
z
" transform="scale(0.015625)"/>
       <path id="DejaVuSans-65" d="M 3597 1894 
L 3597 1613 
L 953 1613 
Q 991 1019 1311 708 
Q 1631 397 2203 397 
Q 2534 397 2845 478 
Q 3156 559 3463 722 
L 3463 178 
Q 3153 47 2828 -22 
Q 2503 -91 2169 -91 
Q 1331 -91 842 396 
Q 353 884 353 1716 
Q 353 2575 817 3079 
Q 1281 3584 2069 3584 
Q 2775 3584 3186 3129 
Q 3597 2675 3597 1894 
z
M 3022 2063 
Q 3016 2534 2758 2815 
Q 2500 3097 2075 3097 
Q 1594 3097 1305 2825 
Q 1016 2553 972 2059 
L 3022 2063 
z
" transform="scale(0.015625)"/>
       <path id="DejaVuSans-73" d="M 2834 3397 
L 2834 2853 
Q 2591 2978 2328 3040 
Q 2066 3103 1784 3103 
Q 1356 3103 1142 2972 
Q 928 2841 928 2578 
Q 928 2378 1081 2264 
Q 1234 2150 1697 2047 
L 1894 2003 
Q 2506 1872 2764 1633 
Q 3022 1394 3022 966 
Q 3022 478 2636 193 
Q 2250 -91 1575 -91 
Q 1294 -91 989 -36 
Q 684 19 347 128 
L 347 722 
Q 666 556 975 473 
Q 1284 391 1588 391 
Q 1994 391 2212 530 
Q 2431 669 2431 922 
Q 2431 1156 2273 1281 
Q 2116 1406 1581 1522 
L 1381 1569 
Q 847 1681 609 1914 
Q 372 2147 372 2553 
Q 372 3047 722 3315 
Q 1072 3584 1716 3584 
Q 2034 3584 2315 3537 
Q 2597 3491 2834 3397 
z
" transform="scale(0.015625)"/>
       <path id="DejaVuSans-74" d="M 1172 4494 
L 1172 3500 
L 2356 3500 
L 2356 3053 
L 1172 3053 
L 1172 1153 
Q 1172 725 1289 603 
Q 1406 481 1766 481 
L 2356 481 
L 2356 0 
L 1766 0 
Q 1100 0 847 248 
Q 594 497 594 1153 
L 594 3053 
L 172 3053 
L 172 3500 
L 594 3500 
L 594 4494 
L 1172 4494 
z
" transform="scale(0.015625)"/>
       <path id="DejaVuSans-70" d="M 1159 525 
L 1159 -1331 
L 581 -1331 
L 581 3500 
L 1159 3500 
L 1159 2969 
Q 1341 3281 1617 3432 
Q 1894 3584 2278 3584 
Q 2916 3584 3314 3078 
Q 3713 2572 3713 1747 
Q 3713 922 3314 415 
Q 2916 -91 2278 -91 
Q 1894 -91 1617 61 
Q 1341 213 1159 525 
z
M 3116 1747 
Q 3116 2381 2855 2742 
Q 2594 3103 2138 3103 
Q 1681 3103 1420 2742 
Q 1159 2381 1159 1747 
Q 1159 1113 1420 752 
Q 1681 391 2138 391 
Q 2594 391 2855 752 
Q 3116 1113 3116 1747 
z
" transform="scale(0.015625)"/>
       <path id="DejaVuSans-20" transform="scale(0.015625)"/>
       <path id="DejaVuSans-28" d="M 1984 4856 
Q 1566 4138 1362 3434 
Q 1159 2731 1159 2009 
Q 1159 1288 1364 580 
Q 1569 -128 1984 -844 
L 1484 -844 
Q 1016 -109 783 600 
Q 550 1309 550 2009 
Q 550 2706 781 3412 
Q 1013 4119 1484 4856 
L 1984 4856 
z
" transform="scale(0.015625)"/>
       <path id="DejaVuSans-6e" d="M 3513 2113 
L 3513 0 
L 2938 0 
L 2938 2094 
Q 2938 2591 2744 2837 
Q 2550 3084 2163 3084 
Q 1697 3084 1428 2787 
Q 1159 2491 1159 1978 
L 1159 0 
L 581 0 
L 581 3500 
L 1159 3500 
L 1159 2956 
Q 1366 3272 1645 3428 
Q 1925 3584 2291 3584 
Q 2894 3584 3203 3211 
Q 3513 2838 3513 2113 
z
" transform="scale(0.015625)"/>
       <path id="DejaVuSans-4d" d="M 628 4666 
L 1569 4666 
L 2759 1491 
L 3956 4666 
L 4897 4666 
L 4897 0 
L 4281 0 
L 4281 4097 
L 3078 897 
L 2444 897 
L 1241 4097 
L 1241 0 
L 628 0 
L 628 4666 
z
" transform="scale(0.015625)"/>
       <path id="DejaVuSans-6c" d="M 603 4863 
L 1178 4863 
L 1178 0 
L 603 0 
L 603 4863 
z
" transform="scale(0.015625)"/>
       <path id="DejaVuSans-6f" d="M 1959 3097 
Q 1497 3097 1228 2736 
Q 959 2375 959 1747 
Q 959 1119 1226 758 
Q 1494 397 1959 397 
Q 2419 397 2687 759 
Q 2956 1122 2956 1747 
Q 2956 2369 2687 2733 
Q 2419 3097 1959 3097 
z
M 1959 3584 
Q 2709 3584 3137 3096 
Q 3566 2609 3566 1747 
Q 3566 888 3137 398 
Q 2709 -91 1959 -91 
Q 1206 -91 779 398 
Q 353 888 353 1747 
Q 353 2609 779 3096 
Q 1206 3584 1959 3584 
z
" transform="scale(0.015625)"/>
       <path id="DejaVuSans-29" d="M 513 4856 
L 1013 4856 
Q 1481 4119 1714 3412 
Q 1947 2706 1947 2009 
Q 1947 1309 1714 600 
Q 1481 -109 1013 -844 
L 513 -844 
Q 928 -128 1133 580 
Q 1338 1288 1338 2009 
Q 1338 2731 1133 3434 
Q 928 4138 513 4856 
z
" transform="scale(0.015625)"/>
      </defs>
      <use xlink:href="#DejaVuSans-54"/>
      <use xlink:href="#DejaVuSans-69" x="57.958984"/>
      <use xlink:href="#DejaVuSans-6d" x="85.742188"/>
      <use xlink:href="#DejaVuSans-65" x="183.154297"/>
      <use xlink:href="#DejaVuSans-73" x="244.677734"/>
      <use xlink:href="#DejaVuSans-74" x="296.777344"/>
      <use xlink:href="#DejaVuSans-65" x="335.986328"/>
      <use xlink:href="#DejaVuSans-70" x="397.509766"/>
      <use xlink:href="#DejaVuSans-73" x="460.986328"/>
      <use xlink:href="#DejaVuSans-20" x="513.085938"/>
      <use xlink:href="#DejaVuSans-28" x="544.873047"/>
      <use xlink:href="#DejaVuSans-69" x="583.886719"/>
      <use xlink:href="#DejaVuSans-6e" x="611.669922"/>
      <use xlink:href="#DejaVuSans-20" x="675.048828"/>
      <use xlink:href="#DejaVuSans-4d" x="706.835938"/>
      <use xlink:href="#DejaVuSans-69" x="793.115234"/>
      <use xlink:href="#DejaVuSans-6c" x="820.898438"/>
      <use xlink:href="#DejaVuSans-6c" x="848.681641"/>
      <use xlink:href="#DejaVuSans-69" x="876.464844"/>
      <use xlink:href="#DejaVuSans-6f" x="904.248047"/>
      <use xlink:href="#DejaVuSans-6e" x="965.429688"/>
      <use xlink:href="#DejaVuSans-29" x="1028.808594"/>
     </g>
    </g>
   </g>
   <g id="matplotlib.axis_2">
    <g id="ytick_1">
     <g id="line2d_8">
      <path d="M 67.86 282.619091 
L 447.84 282.619091 
" clip-path="url(#pb4d90560da)" style="fill: none; stroke: #ffffff; stroke-linecap: round"/>
     </g>
     <g id="text_9">
      <!-- 0 -->
      <g style="fill: #262626" transform="translate(51.36125 286.798232)scale(0.11 -0.11)">
       <use xlink:href="#DejaVuSans-30"/>
      </g>
     </g>
    </g>
    <g id="ytick_2">
     <g id="line2d_9">
      <path d="M 67.86 253.095481 
L 447.84 253.095481 
" clip-path="url(#pb4d90560da)" style="fill: none; stroke: #ffffff; stroke-linecap: round"/>
     </g>
     <g id="text_10">
      <!-- 250 -->
      <g style="fill: #262626" transform="translate(37.36375 257.274622)scale(0.11 -0.11)">
       <use xlink:href="#DejaVuSans-32"/>
       <use xlink:href="#DejaVuSans-35" x="63.623047"/>
       <use xlink:href="#DejaVuSans-30" x="127.246094"/>
      </g>
     </g>
    </g>
    <g id="ytick_3">
     <g id="line2d_10">
      <path d="M 67.86 223.571871 
L 447.84 223.571871 
" clip-path="url(#pb4d90560da)" style="fill: none; stroke: #ffffff; stroke-linecap: round"/>
     </g>
     <g id="text_11">
      <!-- 500 -->
      <g style="fill: #262626" transform="translate(37.36375 227.751012)scale(0.11 -0.11)">
       <use xlink:href="#DejaVuSans-35"/>
       <use xlink:href="#DejaVuSans-30" x="63.623047"/>
       <use xlink:href="#DejaVuSans-30" x="127.246094"/>
      </g>
     </g>
    </g>
    <g id="ytick_4">
     <g id="line2d_11">
      <path d="M 67.86 194.048261 
L 447.84 194.048261 
" clip-path="url(#pb4d90560da)" style="fill: none; stroke: #ffffff; stroke-linecap: round"/>
     </g>
     <g id="text_12">
      <!-- 750 -->
      <g style="fill: #262626" transform="translate(37.36375 198.227402)scale(0.11 -0.11)">
       <defs>
        <path id="DejaVuSans-37" d="M 525 4666 
L 3525 4666 
L 3525 4397 
L 1831 0 
L 1172 0 
L 2766 4134 
L 525 4134 
L 525 4666 
z
" transform="scale(0.015625)"/>
       </defs>
       <use xlink:href="#DejaVuSans-37"/>
       <use xlink:href="#DejaVuSans-35" x="63.623047"/>
       <use xlink:href="#DejaVuSans-30" x="127.246094"/>
      </g>
     </g>
    </g>
    <g id="ytick_5">
     <g id="line2d_12">
      <path d="M 67.86 164.524651 
L 447.84 164.524651 
" clip-path="url(#pb4d90560da)" style="fill: none; stroke: #ffffff; stroke-linecap: round"/>
     </g>
     <g id="text_13">
      <!-- 1000 -->
      <g style="fill: #262626" transform="translate(30.365 168.703792)scale(0.11 -0.11)">
       <use xlink:href="#DejaVuSans-31"/>
       <use xlink:href="#DejaVuSans-30" x="63.623047"/>
       <use xlink:href="#DejaVuSans-30" x="127.246094"/>
       <use xlink:href="#DejaVuSans-30" x="190.869141"/>
      </g>
     </g>
    </g>
    <g id="ytick_6">
     <g id="line2d_13">
      <path d="M 67.86 135.001041 
L 447.84 135.001041 
" clip-path="url(#pb4d90560da)" style="fill: none; stroke: #ffffff; stroke-linecap: round"/>
     </g>
     <g id="text_14">
      <!-- 1250 -->
      <g style="fill: #262626" transform="translate(30.365 139.180182)scale(0.11 -0.11)">
       <use xlink:href="#DejaVuSans-31"/>
       <use xlink:href="#DejaVuSans-32" x="63.623047"/>
       <use xlink:href="#DejaVuSans-35" x="127.246094"/>
       <use xlink:href="#DejaVuSans-30" x="190.869141"/>
      </g>
     </g>
    </g>
    <g id="ytick_7">
     <g id="line2d_14">
      <path d="M 67.86 105.477431 
L 447.84 105.477431 
" clip-path="url(#pb4d90560da)" style="fill: none; stroke: #ffffff; stroke-linecap: round"/>
     </g>
     <g id="text_15">
      <!-- 1500 -->
      <g style="fill: #262626" transform="translate(30.365 109.656572)scale(0.11 -0.11)">
       <use xlink:href="#DejaVuSans-31"/>
       <use xlink:href="#DejaVuSans-35" x="63.623047"/>
       <use xlink:href="#DejaVuSans-30" x="127.246094"/>
       <use xlink:href="#DejaVuSans-30" x="190.869141"/>
      </g>
     </g>
    </g>
    <g id="ytick_8">
     <g id="line2d_15">
      <path d="M 67.86 75.953821 
L 447.84 75.953821 
" clip-path="url(#pb4d90560da)" style="fill: none; stroke: #ffffff; stroke-linecap: round"/>
     </g>
     <g id="text_16">
      <!-- 1750 -->
      <g style="fill: #262626" transform="translate(30.365 80.132962)scale(0.11 -0.11)">
       <use xlink:href="#DejaVuSans-31"/>
       <use xlink:href="#DejaVuSans-37" x="63.623047"/>
       <use xlink:href="#DejaVuSans-35" x="127.246094"/>
       <use xlink:href="#DejaVuSans-30" x="190.869141"/>
      </g>
     </g>
    </g>
    <g id="ytick_9">
     <g id="line2d_16">
      <path d="M 67.86 46.430211 
L 447.84 46.430211 
" clip-path="url(#pb4d90560da)" style="fill: none; stroke: #ffffff; stroke-linecap: round"/>
     </g>
     <g id="text_17">
      <!-- 2000 -->
      <g style="fill: #262626" transform="translate(30.365 50.609352)scale(0.11 -0.11)">
       <use xlink:href="#DejaVuSans-32"/>
       <use xlink:href="#DejaVuSans-30" x="63.623047"/>
       <use xlink:href="#DejaVuSans-30" x="127.246094"/>
       <use xlink:href="#DejaVuSans-30" x="190.869141"/>
      </g>
     </g>
    </g>
    <g id="text_18">
     <!-- # Lows (Δx &lt; 0) -->
     <g style="fill: #262626" transform="translate(23.453438 219.12)rotate(-90)scale(0.14 -0.14)">
      <defs>
       <path id="DejaVuSans-23" d="M 3272 2816 
L 2363 2816 
L 2100 1772 
L 3016 1772 
L 3272 2816 
z
M 2803 4594 
L 2478 3297 
L 3391 3297 
L 3719 4594 
L 4219 4594 
L 3897 3297 
L 4872 3297 
L 4872 2816 
L 3775 2816 
L 3519 1772 
L 4513 1772 
L 4513 1294 
L 3397 1294 
L 3072 0 
L 2572 0 
L 2894 1294 
L 1978 1294 
L 1656 0 
L 1153 0 
L 1478 1294 
L 494 1294 
L 494 1772 
L 1594 1772 
L 1856 2816 
L 850 2816 
L 850 3297 
L 1978 3297 
L 2297 4594 
L 2803 4594 
z
" transform="scale(0.015625)"/>
       <path id="DejaVuSans-4c" d="M 628 4666 
L 1259 4666 
L 1259 531 
L 3531 531 
L 3531 0 
L 628 0 
L 628 4666 
z
" transform="scale(0.015625)"/>
       <path id="DejaVuSans-77" d="M 269 3500 
L 844 3500 
L 1563 769 
L 2278 3500 
L 2956 3500 
L 3675 769 
L 4391 3500 
L 4966 3500 
L 4050 0 
L 3372 0 
L 2619 2869 
L 1863 0 
L 1184 0 
L 269 3500 
z
" transform="scale(0.015625)"/>
       <path id="DejaVuSans-394" d="M 2188 4044 
L 906 525 
L 3472 525 
L 2188 4044 
z
M 50 0 
L 1831 4666 
L 2547 4666 
L 4325 0 
L 50 0 
z
" transform="scale(0.015625)"/>
       <path id="DejaVuSans-78" d="M 3513 3500 
L 2247 1797 
L 3578 0 
L 2900 0 
L 1881 1375 
L 863 0 
L 184 0 
L 1544 1831 
L 300 3500 
L 978 3500 
L 1906 2253 
L 2834 3500 
L 3513 3500 
z
" transform="scale(0.015625)"/>
       <path id="DejaVuSans-3c" d="M 4684 3150 
L 1459 2003 
L 4684 863 
L 4684 294 
L 678 1747 
L 678 2266 
L 4684 3719 
L 4684 3150 
z
" transform="scale(0.015625)"/>
      </defs>
      <use xlink:href="#DejaVuSans-23"/>
      <use xlink:href="#DejaVuSans-20" x="83.789062"/>
      <use xlink:href="#DejaVuSans-4c" x="115.576172"/>
      <use xlink:href="#DejaVuSans-6f" x="169.539062"/>
      <use xlink:href="#DejaVuSans-77" x="230.720703"/>
      <use xlink:href="#DejaVuSans-73" x="312.507812"/>
      <use xlink:href="#DejaVuSans-20" x="364.607422"/>
      <use xlink:href="#DejaVuSans-28" x="396.394531"/>
      <use xlink:href="#DejaVuSans-394" x="435.408203"/>
      <use xlink:href="#DejaVuSans-78" x="503.816406"/>
      <use xlink:href="#DejaVuSans-20" x="562.996094"/>
      <use xlink:href="#DejaVuSans-3c" x="594.783203"/>
      <use xlink:href="#DejaVuSans-20" x="678.572266"/>
      <use xlink:href="#DejaVuSans-30" x="710.359375"/>
      <use xlink:href="#DejaVuSans-29" x="773.982422"/>
     </g>
    </g>
   </g>
   <g id="PolyCollection_1">
    <defs>
     <path id="m4d77956246" d="M 85.131818 -115.391222 
L 85.131818 -171.367986 
L 88.034645 -166.478876 
L 90.937471 -179.185838 
L 93.840298 -177.957656 
L 96.743125 -62.980909 
L 99.645951 -62.980909 
L 102.548778 -74.719496 
L 105.451604 -76.821577 
L 108.354431 -79.11261 
L 111.257257 -77.19948 
L 114.160084 -75.357206 
L 117.062911 -69.54696 
L 119.965737 -72.688272 
L 122.868564 -70.350002 
L 125.77139 -68.05897 
L 128.674217 -70.326383 
L 131.577044 -64.398042 
L 134.47987 -70.39724 
L 137.382697 -77.482906 
L 140.285523 -68.625823 
L 143.18835 -69.33439 
L 146.091176 -72.546559 
L 148.994003 -73.137031 
L 151.89683 -64.964896 
L 154.799656 -65.697081 
L 157.702483 -67.562973 
L 160.605309 -69.712292 
L 163.508136 -84.946475 
L 166.410963 -66.618218 
L 169.313789 -63.099004 
L 172.216616 -65.744319 
L 175.119442 -69.263533 
L 178.022269 -63.571381 
L 180.925095 -66.99612 
L 183.827922 -67.893638 
L 186.730749 -65.744319 
L 189.633575 -67.917257 
L 192.536402 -65.767938 
L 195.439228 -68.956488 
L 198.342055 -66.665456 
L 201.244882 -63.972902 
L 204.147708 -78.545756 
L 207.050535 -63.217098 
L 209.953361 -80.718694 
L 212.856188 -67.775543 
L 215.759015 -71.767135 
L 218.661841 -70.326383 
L 221.564668 -69.499722 
L 224.467494 -69.806768 
L 227.370321 -63.075385 
L 230.273147 -67.255928 
L 233.175974 -68.673061 
L 236.078801 -66.334791 
L 238.981627 -70.727904 
L 241.884454 -67.751924 
L 244.78728 -69.75953 
L 247.690107 -64.256329 
L 250.592934 -70.420859 
L 253.49576 -75.805965 
L 256.398587 -75.097399 
L 259.301413 -66.074983 
L 262.20424 -71.507328 
L 265.107066 -63.618619 
L 268.009893 -69.995719 
L 270.91272 -65.909651 
L 273.815546 -67.397641 
L 276.718373 -70.869618 
L 279.621199 -67.066977 
L 282.524026 -66.925263 
L 285.426853 -63.099004 
L 288.329679 -63.878427 
L 291.232506 -72.499321 
L 294.135332 -66.311172 
L 297.038159 -68.507729 
L 299.940985 -69.499722 
L 302.843812 -63.500525 
L 305.746639 -65.980508 
L 308.649465 -63.122622 
L 311.552292 -69.901243 
L 314.455118 -68.791156 
L 317.357945 -70.491715 
L 320.260772 -68.177064 
L 323.163598 -74.081786 
L 326.066425 -68.247921 
L 328.969251 -71.908849 
L 331.872078 -63.075385 
L 334.774905 -67.751924 
L 337.677731 -65.460892 
L 340.580558 -67.090596 
L 343.483384 -67.137833 
L 346.386211 -72.499321 
L 349.289037 -66.99612 
L 352.191864 -63.878427 
L 355.094691 -69.098201 
L 357.997517 -63.099004 
L 360.900344 -64.421661 
L 363.80317 -74.317975 
L 366.705997 -64.516137 
L 369.608824 -66.027746 
L 372.51165 -64.775945 
L 375.414477 -69.688673 
L 378.317303 -66.759931 
L 381.22013 -67.657449 
L 384.122956 -69.050963 
L 387.025783 -64.610612 
L 389.92861 -63.287955 
L 392.831436 -73.609409 
L 395.734263 -66.878026 
L 398.637089 -64.539756 
L 401.539916 -65.649843 
L 404.442743 -64.327186 
L 407.345569 -70.066575 
L 410.248396 -67.20869 
L 413.151222 -67.20869 
L 416.054049 -64.728707 
L 418.956875 -65.012133 
L 421.859702 -65.224703 
L 424.762529 -67.043358 
L 427.665355 -64.516137 
L 430.568182 -72.003324 
L 430.568182 -63.028147 
L 430.568182 -63.028147 
L 427.665355 -63.028147 
L 424.762529 -63.028147 
L 421.859702 -63.028147 
L 418.956875 -63.028147 
L 416.054049 -63.028147 
L 413.151222 -63.051766 
L 410.248396 -63.004528 
L 407.345569 -63.028147 
L 404.442743 -63.051766 
L 401.539916 -63.051766 
L 398.637089 -63.028147 
L 395.734263 -63.028147 
L 392.831436 -63.004528 
L 389.92861 -63.004528 
L 387.025783 -63.051766 
L 384.122956 -63.028147 
L 381.22013 -63.075385 
L 378.317303 -63.004528 
L 375.414477 -63.028147 
L 372.51165 -63.004528 
L 369.608824 -63.028147 
L 366.705997 -63.004528 
L 363.80317 -63.051766 
L 360.900344 -63.028147 
L 357.997517 -63.051766 
L 355.094691 -63.004528 
L 352.191864 -63.004528 
L 349.289037 -63.004528 
L 346.386211 -63.028147 
L 343.483384 -63.099004 
L 340.580558 -63.004528 
L 337.677731 -63.028147 
L 334.774905 -63.028147 
L 331.872078 -63.051766 
L 328.969251 -62.980909 
L 326.066425 -63.051766 
L 323.163598 -63.004528 
L 320.260772 -63.004528 
L 317.357945 -63.028147 
L 314.455118 -63.075385 
L 311.552292 -63.004528 
L 308.649465 -63.051766 
L 305.746639 -62.980909 
L 302.843812 -63.004528 
L 299.940985 -62.980909 
L 297.038159 -63.004528 
L 294.135332 -63.028147 
L 291.232506 -63.028147 
L 288.329679 -62.980909 
L 285.426853 -63.004528 
L 282.524026 -62.980909 
L 279.621199 -62.980909 
L 276.718373 -63.028147 
L 273.815546 -63.004528 
L 270.91272 -62.980909 
L 268.009893 -62.980909 
L 265.107066 -63.004528 
L 262.20424 -62.980909 
L 259.301413 -62.980909 
L 256.398587 -63.028147 
L 253.49576 -62.980909 
L 250.592934 -62.980909 
L 247.690107 -63.004528 
L 244.78728 -63.028147 
L 241.884454 -63.004528 
L 238.981627 -62.980909 
L 236.078801 -62.980909 
L 233.175974 -63.004528 
L 230.273147 -63.028147 
L 227.370321 -62.980909 
L 224.467494 -63.028147 
L 221.564668 -63.028147 
L 218.661841 -62.980909 
L 215.759015 -63.028147 
L 212.856188 -62.980909 
L 209.953361 -63.028147 
L 207.050535 -62.980909 
L 204.147708 -63.004528 
L 201.244882 -63.004528 
L 198.342055 -62.980909 
L 195.439228 -63.028147 
L 192.536402 -62.980909 
L 189.633575 -62.980909 
L 186.730749 -62.980909 
L 183.827922 -63.004528 
L 180.925095 -62.980909 
L 178.022269 -62.980909 
L 175.119442 -62.980909 
L 172.216616 -62.980909 
L 169.313789 -62.980909 
L 166.410963 -62.980909 
L 163.508136 -62.980909 
L 160.605309 -62.980909 
L 157.702483 -64.468899 
L 154.799656 -62.980909 
L 151.89683 -62.980909 
L 148.994003 -62.980909 
L 146.091176 -63.004528 
L 143.18835 -62.980909 
L 140.285523 -63.028147 
L 137.382697 -63.004528 
L 134.47987 -62.980909 
L 131.577044 -62.980909 
L 128.674217 -62.980909 
L 125.77139 -62.980909 
L 122.868564 -62.980909 
L 119.965737 -62.980909 
L 117.062911 -62.980909 
L 114.160084 -62.980909 
L 111.257257 -62.980909 
L 108.354431 -62.980909 
L 105.451604 -62.980909 
L 102.548778 -62.980909 
L 99.645951 -62.980909 
L 96.743125 -62.980909 
L 93.840298 -143.615793 
L 90.937471 -126.751907 
L 88.034645 -125.807151 
L 85.131818 -115.391222 
z
" style="stroke: #ffffff; stroke-opacity: 0.5"/>
    </defs>
    <g clip-path="url(#pb4d90560da)">
     <use xlink:href="#m4d77956246" x="0" y="345.6" style="fill: #4c72b0; fill-opacity: 0.5; stroke: #ffffff; stroke-opacity: 0.5"/>
    </g>
   </g>
   <g id="PolyCollection_2">
    <defs>
     <path id="m48fc644a96" d="M 85.131818 -148.693854 
L 85.131818 -187.381592 
L 88.034645 -176.80033 
L 90.937471 -171.344367 
L 93.840298 -174.131396 
L 96.743125 -78.711088 
L 99.645951 -62.980909 
L 102.548778 -62.980909 
L 105.451604 -65.578987 
L 108.354431 -64.161853 
L 111.257257 -72.806366 
L 114.160084 -91.299956 
L 117.062911 -68.767537 
L 119.965737 -65.106609 
L 122.868564 -64.705088 
L 125.77139 -63.051766 
L 128.674217 -65.413655 
L 131.577044 -80.647837 
L 134.47987 -63.783951 
L 137.382697 -64.516137 
L 140.285523 -109.580975 
L 143.18835 -73.349601 
L 146.091176 -68.129827 
L 148.994003 -65.153847 
L 151.89683 -76.538151 
L 154.799656 -63.051766 
L 157.702483 -73.892835 
L 160.605309 -63.028147 
L 163.508136 -64.185472 
L 166.410963 -65.271941 
L 169.313789 -65.248322 
L 172.216616 -65.555368 
L 175.119442 -66.051365 
L 178.022269 -63.051766 
L 180.925095 -63.406049 
L 183.827922 -75.121018 
L 186.730749 -63.122622 
L 189.633575 -66.807169 
L 192.536402 -66.641837 
L 195.439228 -63.665857 
L 198.342055 -66.972501 
L 201.244882 -72.286751 
L 204.147708 -63.122622 
L 207.050535 -68.625823 
L 209.953361 -65.413655 
L 212.856188 -80.269935 
L 215.759015 -63.122622 
L 218.661841 -66.452886 
L 221.564668 -68.814774 
L 224.467494 -67.090596 
L 227.370321 -83.033345 
L 230.273147 -71.03495 
L 233.175974 -68.625823 
L 236.078801 -65.93327 
L 238.981627 -75.121018 
L 241.884454 -69.995719 
L 244.78728 -66.35841 
L 247.690107 -69.074582 
L 250.592934 -75.49892 
L 253.49576 -70.940474 
L 256.398587 -74.105405 
L 259.301413 -69.523341 
L 262.20424 -71.932468 
L 265.107066 -72.900842 
L 268.009893 -66.311172 
L 270.91272 -69.854005 
L 273.815546 -70.775142 
L 276.718373 -70.680667 
L 279.621199 -72.192275 
L 282.524026 -69.806768 
L 285.426853 -76.821577 
L 288.329679 -70.987712 
L 291.232506 -68.956488 
L 294.135332 -67.326784 
L 297.038159 -70.208289 
L 299.940985 -70.468097 
L 302.843812 -73.467695 
L 305.746639 -68.507729 
L 308.649465 -65.7207 
L 311.552292 -65.7207 
L 314.455118 -77.884427 
L 317.357945 -73.37322 
L 320.260772 -70.279145 
L 323.163598 -75.735109 
L 326.066425 -70.255527 
L 328.969251 -76.113011 
L 331.872078 -76.183867 
L 334.774905 -72.971699 
L 337.677731 -73.137031 
L 340.580558 -74.058168 
L 343.483384 -70.350002 
L 346.386211 -71.082188 
L 349.289037 -71.530947 
L 352.191864 -73.845598 
L 355.094691 -70.727904 
L 357.997517 -65.956889 
L 360.900344 -77.152242 
L 363.80317 -74.459689 
L 366.705997 -67.775543 
L 369.608824 -68.05897 
L 372.51165 -69.263533 
L 375.414477 -72.0978 
L 378.317303 -72.381227 
L 381.22013 -69.098201 
L 384.122956 -73.302363 
L 387.025783 -73.751122 
L 389.92861 -77.860809 
L 392.831436 -77.081385 
L 395.734263 -73.845598 
L 398.637089 -75.380825 
L 401.539916 -74.932066 
L 404.442743 -77.908046 
L 407.345569 -71.625422 
L 410.248396 -79.584987 
L 413.151222 -73.066174 
L 416.054049 -71.837992 
L 418.956875 -83.482104 
L 421.859702 -74.813972 
L 424.762529 -66.57098 
L 427.665355 -71.129425 
L 430.568182 -69.287152 
L 430.568182 -65.555368 
L 430.568182 -65.555368 
L 427.665355 -63.051766 
L 424.762529 -63.004528 
L 421.859702 -62.980909 
L 418.956875 -63.193479 
L 416.054049 -66.665456 
L 413.151222 -63.996521 
L 410.248396 -64.374423 
L 407.345569 -63.004528 
L 404.442743 -65.767938 
L 401.539916 -63.146241 
L 398.637089 -63.099004 
L 395.734263 -65.838795 
L 392.831436 -63.595 
L 389.92861 -63.051766 
L 387.025783 -63.146241 
L 384.122956 -63.16986 
L 381.22013 -63.122622 
L 378.317303 -64.492518 
L 375.414477 -64.705088 
L 372.51165 -63.075385 
L 369.608824 -63.099004 
L 366.705997 -64.705088 
L 363.80317 -63.075385 
L 360.900344 -63.075385 
L 357.997517 -63.075385 
L 355.094691 -63.051766 
L 352.191864 -63.358811 
L 349.289037 -63.240717 
L 346.386211 -63.665857 
L 343.483384 -64.846801 
L 340.580558 -63.311574 
L 337.677731 -63.264336 
L 334.774905 -63.453287 
L 331.872078 -63.240717 
L 328.969251 -63.689476 
L 326.066425 -63.146241 
L 323.163598 -63.028147 
L 320.260772 -63.595 
L 317.357945 -63.736714 
L 314.455118 -63.240717 
L 311.552292 -63.028147 
L 308.649465 -63.240717 
L 305.746639 -63.051766 
L 302.843812 -63.240717 
L 299.940985 -63.16986 
L 297.038159 -63.122622 
L 294.135332 -63.16986 
L 291.232506 -64.563375 
L 288.329679 -63.240717 
L 285.426853 -63.075385 
L 282.524026 -63.524144 
L 279.621199 -63.217098 
L 276.718373 -64.327186 
L 273.815546 -62.980909 
L 270.91272 -63.524144 
L 268.009893 -63.38243 
L 265.107066 -63.004528 
L 262.20424 -63.004528 
L 259.301413 -63.004528 
L 256.398587 -64.067378 
L 253.49576 -63.028147 
L 250.592934 -66.027746 
L 247.690107 -63.004528 
L 244.78728 -63.122622 
L 241.884454 -63.240717 
L 238.981627 -63.004528 
L 236.078801 -62.980909 
L 233.175974 -63.099004 
L 230.273147 -62.980909 
L 227.370321 -63.16986 
L 224.467494 -63.004528 
L 221.564668 -63.004528 
L 218.661841 -62.980909 
L 215.759015 -62.980909 
L 212.856188 -62.980909 
L 209.953361 -62.980909 
L 207.050535 -62.980909 
L 204.147708 -62.980909 
L 201.244882 -63.004528 
L 198.342055 -63.004528 
L 195.439228 -62.980909 
L 192.536402 -62.980909 
L 189.633575 -62.980909 
L 186.730749 -62.980909 
L 183.827922 -62.980909 
L 180.925095 -62.980909 
L 178.022269 -62.980909 
L 175.119442 -62.980909 
L 172.216616 -62.980909 
L 169.313789 -62.980909 
L 166.410963 -62.980909 
L 163.508136 -62.980909 
L 160.605309 -62.980909 
L 157.702483 -62.980909 
L 154.799656 -62.980909 
L 151.89683 -63.004528 
L 148.994003 -62.980909 
L 146.091176 -62.980909 
L 143.18835 -62.980909 
L 140.285523 -62.980909 
L 137.382697 -62.980909 
L 134.47987 -62.980909 
L 131.577044 -63.004528 
L 128.674217 -62.980909 
L 125.77139 -62.980909 
L 122.868564 -62.980909 
L 119.965737 -62.980909 
L 117.062911 -62.980909 
L 114.160084 -62.980909 
L 111.257257 -62.980909 
L 108.354431 -62.980909 
L 105.451604 -62.980909 
L 102.548778 -62.980909 
L 99.645951 -62.980909 
L 96.743125 -62.980909 
L 93.840298 -147.654622 
L 90.937471 -147.867192 
L 88.034645 -139.458868 
L 85.131818 -148.693854 
z
" style="stroke: #ffffff; stroke-opacity: 0.5"/>
    </defs>
    <g clip-path="url(#pb4d90560da)">
     <use xlink:href="#m48fc644a96" x="0" y="345.6" style="fill: #dd8452; fill-opacity: 0.5; stroke: #ffffff; stroke-opacity: 0.5"/>
    </g>
   </g>
   <g id="PolyCollection_3">
    <defs>
     <path id="m343987cc0e" d="M 85.131818 -132.514915 
L 85.131818 -171.249892 
L 88.034645 -191.8928 
L 90.937471 -163.691847 
L 93.840298 -166.006498 
L 96.743125 -93.850796 
L 99.645951 -69.9721 
L 102.548778 -70.18467 
L 105.451604 -62.980909 
L 108.354431 -81.616212 
L 111.257257 -126.232291 
L 114.160084 -104.857197 
L 117.062911 -66.878026 
L 119.965737 -110.171447 
L 122.868564 -145.339971 
L 125.77139 -76.632626 
L 128.674217 -68.507729 
L 131.577044 -80.435267 
L 134.47987 -112.131815 
L 137.382697 -66.334791 
L 140.285523 -68.767537 
L 143.18835 -87.851598 
L 146.091176 -76.490913 
L 148.994003 -72.829985 
L 151.89683 -67.515736 
L 154.799656 -64.327186 
L 157.702483 -63.429668 
L 160.605309 -170.588563 
L 163.508136 -81.261928 
L 166.410963 -71.861611 
L 169.313789 -76.301962 
L 172.216616 -63.217098 
L 175.119442 -71.436471 
L 178.022269 -137.663833 
L 180.925095 -78.68747 
L 183.827922 -76.939672 
L 186.730749 -75.121018 
L 189.633575 -74.034549 
L 192.536402 -77.459287 
L 195.439228 -71.743517 
L 198.342055 -88.489308 
L 201.244882 -66.263935 
L 204.147708 -99.046951 
L 207.050535 -70.090194 
L 209.953361 -71.861611 
L 212.856188 -73.255125 
L 215.759015 -72.0978 
L 218.661841 -73.396839 
L 221.564668 -109.628213 
L 224.467494 -77.931665 
L 227.370321 -86.977699 
L 230.273147 -71.814373 
L 233.175974 -76.538151 
L 236.078801 -80.128222 
L 238.981627 -77.19948 
L 241.884454 -73.703884 
L 244.78728 -80.340792 
L 247.690107 -85.820374 
L 250.592934 -71.530947 
L 253.49576 -79.797557 
L 256.398587 -69.75953 
L 259.301413 -89.339588 
L 262.20424 -72.0978 
L 265.107066 -66.027746 
L 268.009893 -72.192275 
L 270.91272 -71.908849 
L 273.815546 -76.301962 
L 276.718373 -77.223099 
L 279.621199 -67.066977 
L 282.524026 -69.027344 
L 285.426853 -81.923257 
L 288.329679 -77.010529 
L 291.232506 -77.081385 
L 294.135332 -80.576981 
L 297.038159 -69.452484 
L 299.940985 -70.255527 
L 302.843812 -89.71749 
L 305.746639 -79.797557 
L 308.649465 -71.223901 
L 311.552292 -75.71149 
L 314.455118 -86.576178 
L 317.357945 -81.02574 
L 320.260772 -82.253922 
L 323.163598 -78.167854 
L 326.066425 -88.418451 
L 328.969251 -71.412852 
L 331.872078 -72.286751 
L 334.774905 -71.200282 
L 337.677731 -68.90925 
L 340.580558 -71.814373 
L 343.483384 -68.011732 
L 346.386211 -69.830387 
L 349.289037 -71.271139 
L 352.191864 -71.979705 
L 355.094691 -68.460491 
L 357.997517 -68.625823 
L 360.900344 -70.326383 
L 363.80317 -70.680667 
L 366.705997 -71.837992 
L 369.608824 -72.404845 
L 372.51165 -69.239914 
L 375.414477 -70.893237 
L 378.317303 -70.704285 
L 381.22013 -73.231506 
L 384.122956 -75.617014 
L 387.025783 -71.129425 
L 389.92861 -68.106208 
L 392.831436 -71.200282 
L 395.734263 -73.491314 
L 398.637089 -70.82238 
L 401.539916 -68.531348 
L 404.442743 -67.279547 
L 407.345569 -69.310771 
L 410.248396 -69.783149 
L 413.151222 -72.333989 
L 416.054049 -72.759129 
L 418.956875 -68.177064 
L 421.859702 -73.302363 
L 424.762529 -65.956889 
L 427.665355 -72.168657 
L 430.568182 -71.979705 
L 430.568182 -63.311574 
L 430.568182 -63.311574 
L 427.665355 -63.358811 
L 424.762529 -63.264336 
L 421.859702 -63.358811 
L 418.956875 -63.358811 
L 416.054049 -63.476906 
L 413.151222 -63.406049 
L 410.248396 -63.524144 
L 407.345569 -63.358811 
L 404.442743 -63.335192 
L 401.539916 -63.335192 
L 398.637089 -63.595 
L 395.734263 -63.287955 
L 392.831436 -63.476906 
L 389.92861 -63.358811 
L 387.025783 -63.16986 
L 384.122956 -63.122622 
L 381.22013 -63.311574 
L 378.317303 -63.122622 
L 375.414477 -63.311574 
L 372.51165 -63.264336 
L 369.608824 -63.311574 
L 366.705997 -63.476906 
L 363.80317 -63.240717 
L 360.900344 -63.146241 
L 357.997517 -63.16986 
L 355.094691 -63.38243 
L 352.191864 -63.240717 
L 349.289037 -63.240717 
L 346.386211 -63.217098 
L 343.483384 -63.146241 
L 340.580558 -63.335192 
L 337.677731 -63.099004 
L 334.774905 -63.193479 
L 331.872078 -63.146241 
L 328.969251 -63.051766 
L 326.066425 -63.240717 
L 323.163598 -63.028147 
L 320.260772 -63.311574 
L 317.357945 -63.524144 
L 314.455118 -63.122622 
L 311.552292 -63.051766 
L 308.649465 -62.980909 
L 305.746639 -63.099004 
L 302.843812 -63.146241 
L 299.940985 -63.051766 
L 297.038159 -63.240717 
L 294.135332 -63.571381 
L 291.232506 -63.004528 
L 288.329679 -63.028147 
L 285.426853 -63.193479 
L 282.524026 -63.16986 
L 279.621199 -63.004528 
L 276.718373 -63.16986 
L 273.815546 -63.122622 
L 270.91272 -62.980909 
L 268.009893 -63.217098 
L 265.107066 -63.004528 
L 262.20424 -63.028147 
L 259.301413 -62.980909 
L 256.398587 -63.406049 
L 253.49576 -63.075385 
L 250.592934 -63.099004 
L 247.690107 -62.980909 
L 244.78728 -63.16986 
L 241.884454 -63.028147 
L 238.981627 -63.760332 
L 236.078801 -63.075385 
L 233.175974 -62.980909 
L 230.273147 -62.980909 
L 227.370321 -63.004528 
L 224.467494 -62.980909 
L 221.564668 -64.894039 
L 218.661841 -63.949283 
L 215.759015 -63.099004 
L 212.856188 -65.744319 
L 209.953361 -63.004528 
L 207.050535 -63.004528 
L 204.147708 -63.004528 
L 201.244882 -62.980909 
L 198.342055 -66.547361 
L 195.439228 -63.122622 
L 192.536402 -63.571381 
L 189.633575 -63.16986 
L 186.730749 -63.500525 
L 183.827922 -63.004528 
L 180.925095 -62.980909 
L 178.022269 -63.335192 
L 175.119442 -62.980909 
L 172.216616 -62.980909 
L 169.313789 -63.004528 
L 166.410963 -62.980909 
L 163.508136 -63.099004 
L 160.605309 -62.980909 
L 157.702483 -62.980909 
L 154.799656 -62.980909 
L 151.89683 -62.980909 
L 148.994003 -63.004528 
L 146.091176 -63.004528 
L 143.18835 -62.980909 
L 140.285523 -63.099004 
L 137.382697 -62.980909 
L 134.47987 -62.980909 
L 131.577044 -62.980909 
L 128.674217 -62.980909 
L 125.77139 -63.004528 
L 122.868564 -62.980909 
L 119.965737 -62.980909 
L 117.062911 -62.980909 
L 114.160084 -62.980909 
L 111.257257 -62.980909 
L 108.354431 -62.980909 
L 105.451604 -62.980909 
L 102.548778 -62.980909 
L 99.645951 -62.980909 
L 96.743125 -62.980909 
L 93.840298 -118.839579 
L 90.937471 -140.356386 
L 88.034645 -143.190653 
L 85.131818 -132.514915 
z
" style="stroke: #ffffff; stroke-opacity: 0.5"/>
    </defs>
    <g clip-path="url(#pb4d90560da)">
     <use xlink:href="#m343987cc0e" x="0" y="345.6" style="fill: #55a868; fill-opacity: 0.5; stroke: #ffffff; stroke-opacity: 0.5"/>
    </g>
   </g>
   <g id="PolyCollection_4">
    <defs>
     <path id="m7e474e785b" d="M 85.131818 -149.82756 
L 85.131818 -185.893602 
L 88.034645 -190.711855 
L 90.937471 -198.718658 
L 93.840298 -172.501693 
L 96.743125 -144.655024 
L 99.645951 -71.223901 
L 102.548778 -66.500123 
L 105.451604 -71.129425 
L 108.354431 -106.156236 
L 111.257257 -63.713095 
L 114.160084 -64.516137 
L 117.062911 -73.042555 
L 119.965737 -226.754278 
L 122.868564 -63.902046 
L 125.77139 -74.695878 
L 128.674217 -75.900441 
L 131.577044 -70.18467 
L 134.47987 -83.954482 
L 137.382697 -68.531348 
L 140.285523 -303.799091 
L 143.18835 -73.538552 
L 146.091176 -70.798761 
L 148.994003 -64.681469 
L 151.89683 -66.382029 
L 154.799656 -144.489692 
L 157.702483 -65.602606 
L 160.605309 -66.169459 
L 163.508136 -110.431255 
L 166.410963 -177.343565 
L 169.313789 -101.007319 
L 172.216616 -68.862012 
L 175.119442 -93.33118 
L 178.022269 -107.927653 
L 180.925095 -88.276738 
L 183.827922 -66.618218 
L 186.730749 -94.110603 
L 189.633575 -67.562973 
L 192.536402 -251.294303 
L 195.439228 -98.763524 
L 198.342055 -112.934857 
L 201.244882 -87.001318 
L 204.147708 -67.988113 
L 207.050535 -80.458886 
L 209.953361 -110.950871 
L 212.856188 -72.263132 
L 215.759015 -72.003324 
L 218.661841 -77.577382 
L 221.564668 -145.387209 
L 224.467494 -114.753512 
L 227.370321 -67.515736 
L 230.273147 -167.423632 
L 233.175974 -130.412834 
L 236.078801 -108.187461 
L 238.981627 -81.568974 
L 241.884454 -138.655826 
L 244.78728 -67.515736 
L 247.690107 -73.680265 
L 250.592934 -72.263132 
L 253.49576 -72.357608 
L 256.398587 -152.142211 
L 259.301413 -78.096997 
L 262.20424 -83.694674 
L 265.107066 -122.524126 
L 268.009893 -114.753512 
L 270.91272 -106.274331 
L 273.815546 -109.415643 
L 276.718373 -94.960883 
L 279.621199 -105.990904 
L 282.524026 -70.562572 
L 285.426853 -85.395234 
L 288.329679 -66.14584 
L 291.232506 -94.275936 
L 294.135332 -80.529743 
L 297.038159 -93.024135 
L 299.940985 -81.616212 
L 302.843812 -82.183065 
L 305.746639 -97.062964 
L 308.649465 -106.132617 
L 311.552292 -107.502513 
L 314.455118 -87.520934 
L 317.357945 -76.538151 
L 320.260772 -80.033746 
L 323.163598 -100.227895 
L 326.066425 -82.537348 
L 328.969251 -103.53454 
L 331.872078 -96.590587 
L 334.774905 -75.758727 
L 337.677731 -76.467294 
L 340.580558 -78.451281 
L 343.483384 -98.362003 
L 346.386211 -82.584586 
L 349.289037 -77.364812 
L 352.191864 -75.121018 
L 355.094691 -143.096177 
L 357.997517 -67.822781 
L 360.900344 -75.758727 
L 363.80317 -71.129425 
L 366.705997 -80.435267 
L 369.608824 -77.766333 
L 372.51165 -73.302363 
L 375.414477 -67.444879 
L 378.317303 -72.664653 
L 381.22013 -70.350002 
L 384.122956 -78.923658 
L 387.025783 -76.892434 
L 389.92861 -110.265923 
L 392.831436 -103.629015 
L 395.734263 -94.890027 
L 398.637089 -104.030536 
L 401.539916 -73.37322 
L 404.442743 -77.908046 
L 407.345569 -73.491314 
L 410.248396 -75.428063 
L 413.151222 -69.192677 
L 416.054049 -68.224302 
L 418.956875 -66.618218 
L 421.859702 -69.665054 
L 424.762529 -68.224302 
L 427.665355 -68.578586 
L 430.568182 -67.870019 
L 430.568182 -63.713095 
L 430.568182 -63.713095 
L 427.665355 -63.713095 
L 424.762529 -63.429668 
L 421.859702 -63.547762 
L 418.956875 -63.287955 
L 416.054049 -63.075385 
L 413.151222 -63.972902 
L 410.248396 -63.831189 
L 407.345569 -63.358811 
L 404.442743 -63.618619 
L 401.539916 -63.618619 
L 398.637089 -63.736714 
L 395.734263 -63.099004 
L 392.831436 -67.681068 
L 389.92861 -64.02014 
L 387.025783 -66.641837 
L 384.122956 -65.578987 
L 381.22013 -63.665857 
L 378.317303 -63.524144 
L 375.414477 -63.547762 
L 372.51165 -62.980909 
L 369.608824 -64.705088 
L 366.705997 -63.217098 
L 363.80317 -63.406049 
L 360.900344 -63.760332 
L 357.997517 -62.980909 
L 355.094691 -63.571381 
L 352.191864 -63.854808 
L 349.289037 -63.028147 
L 346.386211 -63.075385 
L 343.483384 -63.075385 
L 340.580558 -63.854808 
L 337.677731 -64.775945 
L 334.774905 -63.287955 
L 331.872078 -64.964896 
L 328.969251 -63.028147 
L 326.066425 -65.578987 
L 323.163598 -63.16986 
L 320.260772 -63.217098 
L 317.357945 -63.335192 
L 314.455118 -63.311574 
L 311.552292 -68.082589 
L 308.649465 -64.067378 
L 305.746639 -67.42126 
L 302.843812 -63.287955 
L 299.940985 -65.390036 
L 297.038159 -63.311574 
L 294.135332 -67.161452 
L 291.232506 -63.16986 
L 288.329679 -63.099004 
L 285.426853 -67.185071 
L 282.524026 -64.87042 
L 279.621199 -63.476906 
L 276.718373 -63.122622 
L 273.815546 -63.051766 
L 270.91272 -63.122622 
L 268.009893 -63.476906 
L 265.107066 -63.028147 
L 262.20424 -66.35841 
L 259.301413 -63.028147 
L 256.398587 -63.004528 
L 253.49576 -62.980909 
L 250.592934 -62.980909 
L 247.690107 -63.547762 
L 244.78728 -63.571381 
L 241.884454 -63.240717 
L 238.981627 -63.075385 
L 236.078801 -63.004528 
L 233.175974 -63.075385 
L 230.273147 -63.311574 
L 227.370321 -63.146241 
L 224.467494 -63.524144 
L 221.564668 -62.980909 
L 218.661841 -68.673061 
L 215.759015 -62.980909 
L 212.856188 -62.980909 
L 209.953361 -62.980909 
L 207.050535 -63.240717 
L 204.147708 -62.980909 
L 201.244882 -62.980909 
L 198.342055 -63.16986 
L 195.439228 -62.980909 
L 192.536402 -63.831189 
L 189.633575 -62.980909 
L 186.730749 -63.004528 
L 183.827922 -63.595 
L 180.925095 -62.980909 
L 178.022269 -62.980909 
L 175.119442 -63.217098 
L 172.216616 -63.099004 
L 169.313789 -63.713095 
L 166.410963 -62.980909 
L 163.508136 -62.980909 
L 160.605309 -62.980909 
L 157.702483 -63.004528 
L 154.799656 -62.980909 
L 151.89683 -62.980909 
L 148.994003 -62.980909 
L 146.091176 -63.004528 
L 143.18835 -63.028147 
L 140.285523 -63.146241 
L 137.382697 -62.980909 
L 134.47987 -63.028147 
L 131.577044 -62.980909 
L 128.674217 -62.980909 
L 125.77139 -62.980909 
L 122.868564 -62.980909 
L 119.965737 -62.980909 
L 117.062911 -62.980909 
L 114.160084 -62.980909 
L 111.257257 -62.980909 
L 108.354431 -62.980909 
L 105.451604 -62.980909 
L 102.548778 -62.980909 
L 99.645951 -62.980909 
L 96.743125 -98.243909 
L 93.840298 -130.129408 
L 90.937471 -135.136612 
L 88.034645 -145.339971 
L 85.131818 -149.82756 
z
" style="stroke: #ffffff; stroke-opacity: 0.5"/>
    </defs>
    <g clip-path="url(#pb4d90560da)">
     <use xlink:href="#m7e474e785b" x="0" y="345.6" style="fill: #c44e52; fill-opacity: 0.5; stroke: #ffffff; stroke-opacity: 0.5"/>
    </g>
   </g>
   <g id="line2d_17">
    <path d="M 85.131818 202.877001 
L 88.034645 193.438894 
L 90.937471 194.317516 
L 93.840298 186.409913 
L 96.743125 282.619091 
L 99.645951 282.619091 
L 102.548778 276.86553 
L 105.451604 278.225978 
L 108.354431 276.55376 
L 111.257257 279.680901 
L 114.160084 278.018132 
L 117.062911 279.761205 
L 119.965737 277.82918 
L 122.868564 279.567531 
L 125.77139 281.556241 
L 128.674217 279.789548 
L 131.577044 282.321493 
L 134.47987 280.781541 
L 137.382697 277.285946 
L 140.285523 280.021013 
L 143.18835 280.309164 
L 146.091176 279.66673 
L 148.994003 279.298275 
L 151.89683 282.198675 
L 154.799656 281.749916 
L 157.702483 279.425817 
L 160.605309 280.172174 
L 163.508136 276.534865 
L 166.410963 281.220853 
L 169.313789 282.571853 
L 172.216616 281.872734 
L 175.119442 281.027178 
L 178.022269 282.477378 
L 180.925095 281.527898 
L 183.827922 281.022454 
L 186.730749 282.04279 
L 189.633575 281.608203 
L 192.536402 281.627098 
L 195.439228 279.940709 
L 198.342055 281.877458 
L 201.244882 282.382902 
L 204.147708 278.835345 
L 207.050535 282.548234 
L 209.953361 278.268492 
L 212.856188 281.409804 
L 215.759015 280.313887 
L 218.661841 279.62894 
L 221.564668 280.337506 
L 224.467494 280.346954 
L 227.370321 282.581301 
L 230.273147 280.441429 
L 233.175974 280.299716 
L 236.078801 281.216129 
L 238.981627 280.748475 
L 241.884454 280.110765 
L 244.78728 280.016289 
L 247.690107 282.123094 
L 250.592934 280.002118 
L 253.49576 280.016289 
L 256.398587 279.756482 
L 259.301413 281.96721 
L 262.20424 280.323335 
L 265.107066 282.411245 
L 268.009893 281.187786 
L 270.91272 281.301157 
L 273.815546 281.305881 
L 276.718373 279.515569 
L 279.621199 281.201958 
L 282.524026 281.428699 
L 285.426853 282.562406 
L 288.329679 282.401797 
L 291.232506 280.644552 
L 294.135332 281.320052 
L 297.038159 281.471213 
L 299.940985 280.394192 
L 302.843812 282.458482 
L 305.746639 281.721573 
L 308.649465 282.510444 
L 311.552292 280.375297 
L 314.455118 280.356401 
L 317.357945 280.261926 
L 320.260772 280.899636 
L 323.163598 279.463607 
L 326.066425 281.494832 
L 328.969251 279.84151 
L 331.872078 282.534063 
L 334.774905 280.757923 
L 337.677731 281.9058 
L 340.580558 281.060244 
L 343.483384 281.560965 
L 346.386211 279.822615 
L 349.289037 281.556241 
L 352.191864 282.39235 
L 355.094691 281.320052 
L 357.997517 282.524615 
L 360.900344 282.25536 
L 363.80317 280.072975 
L 366.705997 282.113647 
L 369.608824 281.962486 
L 372.51165 282.175056 
L 375.414477 281.197234 
L 378.317303 281.612926 
L 381.22013 280.431982 
L 384.122956 281.178339 
L 387.025783 281.75464 
L 389.92861 282.46793 
L 392.831436 280.441429 
L 395.734263 281.764087 
L 398.637089 282.245912 
L 401.539916 282.014447 
L 404.442743 282.184503 
L 407.345569 281.149996 
L 410.248396 280.956321 
L 413.151222 281.296433 
L 416.054049 282.123094 
L 418.956875 282.160884 
L 421.859702 282.11837 
L 424.762529 281.731021 
L 427.665355 282.241189 
L 430.568182 280.720132 
" clip-path="url(#pb4d90560da)" style="fill: none; stroke: #4c72b0; stroke-width: 3; stroke-linecap: round"/>
   </g>
   <g id="line2d_18">
    <path d="M 85.131818 178.40311 
L 88.034645 193.169638 
L 90.937471 186.164276 
L 93.840298 186.627206 
L 96.743125 278.939268 
L 99.645951 282.619091 
L 102.548778 282.619091 
L 105.451604 282.099475 
L 108.354431 282.33094 
L 111.257257 280.181622 
L 114.160084 275.731823 
L 117.062911 280.951597 
L 119.965737 282.165608 
L 122.868564 282.241189 
L 125.77139 282.600196 
L 128.674217 282.127818 
L 131.577044 277.337908 
L 134.47987 282.453759 
L 137.382697 282.222294 
L 140.285523 272.32598 
L 143.18835 279.921814 
L 146.091176 280.715409 
L 148.994003 282.08058 
L 151.89683 279.010125 
L 154.799656 282.595472 
L 157.702483 280.422534 
L 160.605309 282.609643 
L 163.508136 282.359283 
L 166.410963 282.132542 
L 169.313789 281.953038 
L 172.216616 281.57986 
L 175.119442 281.759363 
L 178.022269 282.590748 
L 180.925095 282.477378 
L 183.827922 279.992671 
L 186.730749 282.581301 
L 189.633575 281.697954 
L 192.536402 281.749916 
L 195.439228 282.453759 
L 198.342055 281.79243 
L 201.244882 280.710685 
L 204.147708 282.54351 
L 207.050535 281.433423 
L 209.953361 282.108923 
L 212.856188 278.21653 
L 215.759015 282.54351 
L 218.661841 281.494832 
L 221.564668 281.050797 
L 224.467494 280.611485 
L 227.370321 276.005802 
L 230.273147 278.910925 
L 233.175974 280.030461 
L 236.078801 281.877458 
L 238.981627 278.599156 
L 241.884454 279.808443 
L 244.78728 281.074416 
L 247.690107 281.235024 
L 250.592934 276.497075 
L 253.49576 280.323335 
L 256.398587 278.04175 
L 259.301413 279.969052 
L 262.20424 278.868411 
L 265.107066 279.217971 
L 268.009893 280.384744 
L 270.91272 279.430541 
L 273.815546 278.150397 
L 276.718373 278.589709 
L 279.621199 279.780101 
L 282.524026 278.863688 
L 285.426853 277.144233 
L 288.329679 279.340789 
L 291.232506 280.016289 
L 294.135332 280.247755 
L 297.038159 279.992671 
L 299.940985 279.232142 
L 302.843812 279.269933 
L 305.746639 280.195793 
L 308.649465 281.079139 
L 311.552292 280.842951 
L 314.455118 276.572656 
L 317.357945 278.202359 
L 320.260772 279.147114 
L 323.163598 278.008684 
L 326.066425 279.156562 
L 328.969251 278.386586 
L 331.872078 277.583544 
L 334.774905 278.131502 
L 337.677731 278.386586 
L 340.580558 278.04175 
L 343.483384 278.164569 
L 346.386211 277.649677 
L 349.289037 278.476338 
L 352.191864 278.518852 
L 355.094691 277.975618 
L 357.997517 281.01773 
L 360.900344 276.624617 
L 363.80317 279.02902 
L 366.705997 279.676177 
L 369.608824 279.723415 
L 372.51165 279.91709 
L 375.414477 278.018132 
L 378.317303 277.744152 
L 381.22013 279.439989 
L 384.122956 276.955282 
L 387.025783 278.589709 
L 389.92861 275.679862 
L 392.831436 277.408764 
L 395.734263 275.509806 
L 398.637089 274.196595 
L 401.539916 277.654401 
L 404.442743 275.084666 
L 407.345569 278.17874 
L 410.248396 273.96513 
L 413.151222 278.438548 
L 416.054049 276.185306 
L 418.956875 276.931663 
L 421.859702 278.712527 
L 424.762529 280.937426 
L 427.665355 279.161286 
L 430.568182 277.815009 
" clip-path="url(#pb4d90560da)" style="fill: none; stroke: #dd8452; stroke-width: 3; stroke-linecap: round"/>
   </g>
   <g id="line2d_19">
    <path d="M 85.131818 189.324483 
L 88.034645 183.211915 
L 90.937471 191.251785 
L 93.840298 201.58741 
L 96.743125 267.923419 
L 99.645951 281.220853 
L 102.548778 281.178339 
L 105.451604 282.619091 
L 108.354431 278.849516 
L 111.257257 269.940472 
L 114.160084 273.917893 
L 117.062911 281.315328 
L 119.965737 273.062889 
L 122.868564 265.972499 
L 125.77139 279.132943 
L 128.674217 281.211405 
L 131.577044 278.707803 
L 134.47987 269.614531 
L 137.382697 281.934143 
L 140.285523 280.488667 
L 143.18835 277.233984 
L 146.091176 277.167852 
L 148.994003 280.186345 
L 151.89683 280.989388 
L 154.799656 282.312045 
L 157.702483 282.482101 
L 160.605309 253.539516 
L 163.508136 275.325578 
L 166.410963 279.638387 
L 169.313789 278.14095 
L 172.216616 282.515168 
L 175.119442 280.772094 
L 178.022269 262.458008 
L 180.925095 279.1046 
L 183.827922 278.81645 
L 186.730749 276.194753 
L 189.633575 279.033744 
L 192.536402 276.005802 
L 195.439228 278.981782 
L 198.342055 269.430304 
L 201.244882 281.008283 
L 204.147708 272.415731 
L 207.050535 278.485786 
L 209.953361 280.176898 
L 212.856188 277.04031 
L 215.759015 279.142391 
L 218.661841 277.536306 
L 221.564668 267.063691 
L 224.467494 274.239109 
L 227.370321 273.653361 
L 230.273147 277.507964 
L 233.175974 277.045033 
L 236.078801 277.635506 
L 238.981627 275.80268 
L 241.884454 279.713968 
L 244.78728 277.493792 
L 247.690107 271.886668 
L 250.592934 278.311006 
L 253.49576 277.026138 
L 256.398587 279.444712 
L 259.301413 273.32742 
L 262.20424 279.860405 
L 265.107066 281.310605 
L 268.009893 278.088988 
L 270.91272 280.186345 
L 273.815546 278.830621 
L 276.718373 277.744152 
L 279.621199 280.97994 
L 282.524026 280.110765 
L 285.426853 276.435666 
L 288.329679 276.308124 
L 291.232506 279.614768 
L 294.135332 277.281222 
L 297.038159 280.271373 
L 299.940985 280.611485 
L 302.843812 275.80268 
L 305.746639 277.663848 
L 308.649465 279.553359 
L 311.552292 279.49195 
L 314.455118 276.369533 
L 317.357945 277.200918 
L 320.260772 278.192911 
L 323.163598 279.31717 
L 326.066425 276.624617 
L 328.969251 279.846233 
L 331.872078 279.175457 
L 334.774905 279.227419 
L 337.677731 281.211405 
L 340.580558 279.147114 
L 343.483384 280.219412 
L 346.386211 280.162727 
L 349.289037 280.106041 
L 352.191864 280.224136 
L 355.094691 280.743751 
L 357.997517 280.824055 
L 360.900344 278.972335 
L 363.80317 280.535905 
L 366.705997 278.986506 
L 369.608824 279.553359 
L 372.51165 279.780101 
L 375.414477 279.525017 
L 378.317303 279.31717 
L 381.22013 279.06681 
L 384.122956 278.122055 
L 387.025783 280.096594 
L 389.92861 280.677618 
L 392.831436 278.703079 
L 395.734263 279.397475 
L 398.637089 279.784824 
L 401.539916 280.842951 
L 404.442743 280.76737 
L 407.345569 280.280821 
L 410.248396 279.265209 
L 413.151222 279.038467 
L 416.054049 278.561366 
L 418.956875 279.893471 
L 421.859702 277.961446 
L 424.762529 280.927979 
L 427.665355 279.137667 
L 430.568182 278.008684 
" clip-path="url(#pb4d90560da)" style="fill: none; stroke: #55a868; stroke-width: 3; stroke-linecap: round"/>
   </g>
   <g id="line2d_20">
    <path d="M 85.131818 182.243541 
L 88.034645 181.02953 
L 90.937471 188.956029 
L 93.840298 194.511191 
L 96.743125 221.97051 
L 99.645951 280.861846 
L 102.548778 281.915248 
L 105.451604 280.701237 
L 108.354431 273.46441 
L 111.257257 282.472654 
L 114.160084 282.260084 
L 117.062911 280.021013 
L 119.965737 249.340078 
L 122.868564 282.274255 
L 125.77139 279.803719 
L 128.674217 279.874576 
L 131.577044 280.918531 
L 134.47987 277.484345 
L 137.382697 280.238307 
L 140.285523 216.883002 
L 143.18835 279.62894 
L 146.091176 279.690349 
L 148.994003 282.123094 
L 151.89683 281.310605 
L 154.799656 266.284268 
L 157.702483 282.028619 
L 160.605309 281.811325 
L 163.508136 271.881944 
L 166.410963 257.219339 
L 169.313789 271.579623 
L 172.216616 280.47922 
L 175.119442 272.883385 
L 178.022269 273.454962 
L 180.925095 277.073376 
L 183.827922 281.093311 
L 186.730749 275.670414 
L 189.633575 281.164167 
L 192.536402 238.938319 
L 195.439228 275.146075 
L 198.342055 271.749679 
L 201.244882 276.378981 
L 204.147708 281.013007 
L 207.050535 274.81541 
L 209.953361 267.323499 
L 212.856188 280.110765 
L 215.759015 280.261926 
L 218.661841 273.544714 
L 221.564668 263.464173 
L 224.467494 263.308288 
L 227.370321 281.088587 
L 230.273147 249.113336 
L 233.175974 261.862812 
L 236.078801 269.605084 
L 238.981627 277.54103 
L 241.884454 257.625584 
L 244.78728 280.465048 
L 247.690107 278.589709 
L 250.592934 279.633663 
L 253.49576 279.610045 
L 256.398587 262.103725 
L 259.301413 277.059205 
L 262.20424 271.400119 
L 265.107066 254.215016 
L 268.009893 269.118535 
L 270.91272 270.228622 
L 273.815546 256.539115 
L 276.718373 270.814371 
L 279.621199 265.863852 
L 282.524026 277.79139 
L 285.426853 272.122857 
L 288.329679 280.857122 
L 291.232506 271.858326 
L 294.135332 274.130463 
L 297.038159 265.854404 
L 299.940985 275.131903 
L 302.843812 273.955683 
L 305.746639 265.878023 
L 308.649465 265.320617 
L 311.552292 264.205806 
L 314.455118 275.694033 
L 317.357945 277.309565 
L 320.260772 276.459285 
L 323.163598 270.592353 
L 326.066425 274.158805 
L 328.969251 269.203563 
L 331.872078 268.230464 
L 334.774905 275.920774 
L 337.677731 274.843753 
L 340.580558 276.76633 
L 343.483384 272.831424 
L 346.386211 273.100679 
L 349.289037 274.947676 
L 352.191864 277.786666 
L 355.094691 265.585149 
L 357.997517 280.370573 
L 360.900344 278.25432 
L 363.80317 278.589709 
L 366.705997 278.320453 
L 369.608824 274.621735 
L 372.51165 276.950558 
L 375.414477 280.068251 
L 378.317303 279.378579 
L 381.22013 278.821174 
L 384.122956 275.094113 
L 387.025783 274.744554 
L 389.92861 267.720296 
L 392.831436 268.447758 
L 395.734263 271.409567 
L 398.637089 271.33871 
L 401.539916 278.934544 
L 404.442743 277.092271 
L 407.345569 278.240149 
L 410.248396 278.070093 
L 413.151222 279.869852 
L 416.054049 280.852398 
L 418.956875 280.951597 
L 421.859702 279.832062 
L 424.762529 280.69179 
L 427.665355 279.70452 
L 430.568182 280.153279 
" clip-path="url(#pb4d90560da)" style="fill: none; stroke: #c44e52; stroke-width: 3; stroke-linecap: round"/>
   </g>
   <g id="patch_3">
    <path d="M 67.86 294.66 
L 67.86 29.76 
" style="fill: none; stroke: #ffffff; stroke-width: 1.25; stroke-linejoin: miter; stroke-linecap: square"/>
   </g>
   <g id="patch_4">
    <path d="M 447.84 294.66 
L 447.84 29.76 
" style="fill: none; stroke: #ffffff; stroke-width: 1.25; stroke-linejoin: miter; stroke-linecap: square"/>
   </g>
   <g id="patch_5">
    <path d="M 67.86 294.66 
L 447.84 294.66 
" style="fill: none; stroke: #ffffff; stroke-width: 1.25; stroke-linejoin: miter; stroke-linecap: square"/>
   </g>
   <g id="patch_6">
    <path d="M 67.86 29.76 
L 447.84 29.76 
" style="fill: none; stroke: #ffffff; stroke-width: 1.25; stroke-linejoin: miter; stroke-linecap: square"/>
   </g>
   <g id="text_19">
    <!-- zinc-coating-v0 -->
    <g style="fill: #262626" transform="translate(204.491406 23.76)scale(0.14 -0.14)">
     <defs>
      <path id="DejaVuSans-7a" d="M 353 3500 
L 3084 3500 
L 3084 2975 
L 922 459 
L 3084 459 
L 3084 0 
L 275 0 
L 275 525 
L 2438 3041 
L 353 3041 
L 353 3500 
z
" transform="scale(0.015625)"/>
      <path id="DejaVuSans-63" d="M 3122 3366 
L 3122 2828 
Q 2878 2963 2633 3030 
Q 2388 3097 2138 3097 
Q 1578 3097 1268 2742 
Q 959 2388 959 1747 
Q 959 1106 1268 751 
Q 1578 397 2138 397 
Q 2388 397 2633 464 
Q 2878 531 3122 666 
L 3122 134 
Q 2881 22 2623 -34 
Q 2366 -91 2075 -91 
Q 1284 -91 818 406 
Q 353 903 353 1747 
Q 353 2603 823 3093 
Q 1294 3584 2113 3584 
Q 2378 3584 2631 3529 
Q 2884 3475 3122 3366 
z
" transform="scale(0.015625)"/>
      <path id="DejaVuSans-2d" d="M 313 2009 
L 1997 2009 
L 1997 1497 
L 313 1497 
L 313 2009 
z
" transform="scale(0.015625)"/>
      <path id="DejaVuSans-61" d="M 2194 1759 
Q 1497 1759 1228 1600 
Q 959 1441 959 1056 
Q 959 750 1161 570 
Q 1363 391 1709 391 
Q 2188 391 2477 730 
Q 2766 1069 2766 1631 
L 2766 1759 
L 2194 1759 
z
M 3341 1997 
L 3341 0 
L 2766 0 
L 2766 531 
Q 2569 213 2275 61 
Q 1981 -91 1556 -91 
Q 1019 -91 701 211 
Q 384 513 384 1019 
Q 384 1609 779 1909 
Q 1175 2209 1959 2209 
L 2766 2209 
L 2766 2266 
Q 2766 2663 2505 2880 
Q 2244 3097 1772 3097 
Q 1472 3097 1187 3025 
Q 903 2953 641 2809 
L 641 3341 
Q 956 3463 1253 3523 
Q 1550 3584 1831 3584 
Q 2591 3584 2966 3190 
Q 3341 2797 3341 1997 
z
" transform="scale(0.015625)"/>
      <path id="DejaVuSans-67" d="M 2906 1791 
Q 2906 2416 2648 2759 
Q 2391 3103 1925 3103 
Q 1463 3103 1205 2759 
Q 947 2416 947 1791 
Q 947 1169 1205 825 
Q 1463 481 1925 481 
Q 2391 481 2648 825 
Q 2906 1169 2906 1791 
z
M 3481 434 
Q 3481 -459 3084 -895 
Q 2688 -1331 1869 -1331 
Q 1566 -1331 1297 -1286 
Q 1028 -1241 775 -1147 
L 775 -588 
Q 1028 -725 1275 -790 
Q 1522 -856 1778 -856 
Q 2344 -856 2625 -561 
Q 2906 -266 2906 331 
L 2906 616 
Q 2728 306 2450 153 
Q 2172 0 1784 0 
Q 1141 0 747 490 
Q 353 981 353 1791 
Q 353 2603 747 3093 
Q 1141 3584 1784 3584 
Q 2172 3584 2450 3431 
Q 2728 3278 2906 2969 
L 2906 3500 
L 3481 3500 
L 3481 434 
z
" transform="scale(0.015625)"/>
      <path id="DejaVuSans-76" d="M 191 3500 
L 800 3500 
L 1894 563 
L 2988 3500 
L 3597 3500 
L 2284 0 
L 1503 0 
L 191 3500 
z
" transform="scale(0.015625)"/>
     </defs>
     <use xlink:href="#DejaVuSans-7a"/>
     <use xlink:href="#DejaVuSans-69" x="52.490234"/>
     <use xlink:href="#DejaVuSans-6e" x="80.273438"/>
     <use xlink:href="#DejaVuSans-63" x="143.652344"/>
     <use xlink:href="#DejaVuSans-2d" x="198.632812"/>
     <use xlink:href="#DejaVuSans-63" x="234.716797"/>
     <use xlink:href="#DejaVuSans-6f" x="289.697266"/>
     <use xlink:href="#DejaVuSans-61" x="350.878906"/>
     <use xlink:href="#DejaVuSans-74" x="412.158203"/>
     <use xlink:href="#DejaVuSans-69" x="451.367188"/>
     <use xlink:href="#DejaVuSans-6e" x="479.150391"/>
     <use xlink:href="#DejaVuSans-67" x="542.529297"/>
     <use xlink:href="#DejaVuSans-2d" x="606.005859"/>
     <use xlink:href="#DejaVuSans-76" x="639.464844"/>
     <use xlink:href="#DejaVuSans-30" x="698.644531"/>
    </g>
   </g>
   <g id="legend_1">
    <g id="patch_7">
     <path d="M 312.723906 103.14375 
L 440.14 103.14375 
Q 442.34 103.14375 442.34 100.94375 
L 442.34 37.46 
Q 442.34 35.26 440.14 35.26 
L 312.723906 35.26 
Q 310.523906 35.26 310.523906 37.46 
L 310.523906 100.94375 
Q 310.523906 103.14375 312.723906 103.14375 
z
" style="fill: #eaeaf2; opacity: 0.8; stroke: #cccccc; stroke-linejoin: miter"/>
    </g>
    <g id="line2d_21">
     <path d="M 314.923906 44.168281 
L 325.923906 44.168281 
L 336.923906 44.168281 
" style="fill: none; stroke: #4c72b0; stroke-width: 3; stroke-linecap: round"/>
    </g>
    <g id="text_20">
     <!-- SAC-IS-DELAY-1 -->
     <g style="fill: #262626" transform="translate(345.723906 48.018281)scale(0.11 -0.11)">
      <defs>
       <path id="DejaVuSans-53" d="M 3425 4513 
L 3425 3897 
Q 3066 4069 2747 4153 
Q 2428 4238 2131 4238 
Q 1616 4238 1336 4038 
Q 1056 3838 1056 3469 
Q 1056 3159 1242 3001 
Q 1428 2844 1947 2747 
L 2328 2669 
Q 3034 2534 3370 2195 
Q 3706 1856 3706 1288 
Q 3706 609 3251 259 
Q 2797 -91 1919 -91 
Q 1588 -91 1214 -16 
Q 841 59 441 206 
L 441 856 
Q 825 641 1194 531 
Q 1563 422 1919 422 
Q 2459 422 2753 634 
Q 3047 847 3047 1241 
Q 3047 1584 2836 1778 
Q 2625 1972 2144 2069 
L 1759 2144 
Q 1053 2284 737 2584 
Q 422 2884 422 3419 
Q 422 4038 858 4394 
Q 1294 4750 2059 4750 
Q 2388 4750 2728 4690 
Q 3069 4631 3425 4513 
z
" transform="scale(0.015625)"/>
       <path id="DejaVuSans-41" d="M 2188 4044 
L 1331 1722 
L 3047 1722 
L 2188 4044 
z
M 1831 4666 
L 2547 4666 
L 4325 0 
L 3669 0 
L 3244 1197 
L 1141 1197 
L 716 0 
L 50 0 
L 1831 4666 
z
" transform="scale(0.015625)"/>
       <path id="DejaVuSans-43" d="M 4122 4306 
L 4122 3641 
Q 3803 3938 3442 4084 
Q 3081 4231 2675 4231 
Q 1875 4231 1450 3742 
Q 1025 3253 1025 2328 
Q 1025 1406 1450 917 
Q 1875 428 2675 428 
Q 3081 428 3442 575 
Q 3803 722 4122 1019 
L 4122 359 
Q 3791 134 3420 21 
Q 3050 -91 2638 -91 
Q 1578 -91 968 557 
Q 359 1206 359 2328 
Q 359 3453 968 4101 
Q 1578 4750 2638 4750 
Q 3056 4750 3426 4639 
Q 3797 4528 4122 4306 
z
" transform="scale(0.015625)"/>
       <path id="DejaVuSans-49" d="M 628 4666 
L 1259 4666 
L 1259 0 
L 628 0 
L 628 4666 
z
" transform="scale(0.015625)"/>
       <path id="DejaVuSans-44" d="M 1259 4147 
L 1259 519 
L 2022 519 
Q 2988 519 3436 956 
Q 3884 1394 3884 2338 
Q 3884 3275 3436 3711 
Q 2988 4147 2022 4147 
L 1259 4147 
z
M 628 4666 
L 1925 4666 
Q 3281 4666 3915 4102 
Q 4550 3538 4550 2338 
Q 4550 1131 3912 565 
Q 3275 0 1925 0 
L 628 0 
L 628 4666 
z
" transform="scale(0.015625)"/>
       <path id="DejaVuSans-45" d="M 628 4666 
L 3578 4666 
L 3578 4134 
L 1259 4134 
L 1259 2753 
L 3481 2753 
L 3481 2222 
L 1259 2222 
L 1259 531 
L 3634 531 
L 3634 0 
L 628 0 
L 628 4666 
z
" transform="scale(0.015625)"/>
       <path id="DejaVuSans-59" d="M -13 4666 
L 666 4666 
L 1959 2747 
L 3244 4666 
L 3922 4666 
L 2272 2222 
L 2272 0 
L 1638 0 
L 1638 2222 
L -13 4666 
z
" transform="scale(0.015625)"/>
      </defs>
      <use xlink:href="#DejaVuSans-53"/>
      <use xlink:href="#DejaVuSans-41" x="65.351562"/>
      <use xlink:href="#DejaVuSans-43" x="132.009766"/>
      <use xlink:href="#DejaVuSans-2d" x="201.833984"/>
      <use xlink:href="#DejaVuSans-49" x="237.917969"/>
      <use xlink:href="#DejaVuSans-53" x="267.410156"/>
      <use xlink:href="#DejaVuSans-2d" x="330.886719"/>
      <use xlink:href="#DejaVuSans-44" x="366.970703"/>
      <use xlink:href="#DejaVuSans-45" x="443.972656"/>
      <use xlink:href="#DejaVuSans-4c" x="507.15625"/>
      <use xlink:href="#DejaVuSans-41" x="565.119141"/>
      <use xlink:href="#DejaVuSans-59" x="625.777344"/>
      <use xlink:href="#DejaVuSans-2d" x="674.986328"/>
      <use xlink:href="#DejaVuSans-31" x="711.070312"/>
     </g>
    </g>
    <g id="line2d_22">
     <path d="M 314.923906 60.314219 
L 325.923906 60.314219 
L 336.923906 60.314219 
" style="fill: none; stroke: #dd8452; stroke-width: 3; stroke-linecap: round"/>
    </g>
    <g id="text_21">
     <!-- SAC-IS-DELAY-5 -->
     <g style="fill: #262626" transform="translate(345.723906 64.164219)scale(0.11 -0.11)">
      <use xlink:href="#DejaVuSans-53"/>
      <use xlink:href="#DejaVuSans-41" x="65.351562"/>
      <use xlink:href="#DejaVuSans-43" x="132.009766"/>
      <use xlink:href="#DejaVuSans-2d" x="201.833984"/>
      <use xlink:href="#DejaVuSans-49" x="237.917969"/>
      <use xlink:href="#DejaVuSans-53" x="267.410156"/>
      <use xlink:href="#DejaVuSans-2d" x="330.886719"/>
      <use xlink:href="#DejaVuSans-44" x="366.970703"/>
      <use xlink:href="#DejaVuSans-45" x="443.972656"/>
      <use xlink:href="#DejaVuSans-4c" x="507.15625"/>
      <use xlink:href="#DejaVuSans-41" x="565.119141"/>
      <use xlink:href="#DejaVuSans-59" x="625.777344"/>
      <use xlink:href="#DejaVuSans-2d" x="674.986328"/>
      <use xlink:href="#DejaVuSans-35" x="711.070312"/>
     </g>
    </g>
    <g id="line2d_23">
     <path d="M 314.923906 76.460156 
L 325.923906 76.460156 
L 336.923906 76.460156 
" style="fill: none; stroke: #55a868; stroke-width: 3; stroke-linecap: round"/>
    </g>
    <g id="text_22">
     <!-- SAC-IS-DELAY-10 -->
     <g style="fill: #262626" transform="translate(345.723906 80.310156)scale(0.11 -0.11)">
      <use xlink:href="#DejaVuSans-53"/>
      <use xlink:href="#DejaVuSans-41" x="65.351562"/>
      <use xlink:href="#DejaVuSans-43" x="132.009766"/>
      <use xlink:href="#DejaVuSans-2d" x="201.833984"/>
      <use xlink:href="#DejaVuSans-49" x="237.917969"/>
      <use xlink:href="#DejaVuSans-53" x="267.410156"/>
      <use xlink:href="#DejaVuSans-2d" x="330.886719"/>
      <use xlink:href="#DejaVuSans-44" x="366.970703"/>
      <use xlink:href="#DejaVuSans-45" x="443.972656"/>
      <use xlink:href="#DejaVuSans-4c" x="507.15625"/>
      <use xlink:href="#DejaVuSans-41" x="565.119141"/>
      <use xlink:href="#DejaVuSans-59" x="625.777344"/>
      <use xlink:href="#DejaVuSans-2d" x="674.986328"/>
      <use xlink:href="#DejaVuSans-31" x="711.070312"/>
      <use xlink:href="#DejaVuSans-30" x="774.693359"/>
     </g>
    </g>
    <g id="line2d_24">
     <path d="M 314.923906 92.606094 
L 325.923906 92.606094 
L 336.923906 92.606094 
" style="fill: none; stroke: #c44e52; stroke-width: 3; stroke-linecap: round"/>
    </g>
    <g id="text_23">
     <!-- SAC-IS-DELAY-20 -->
     <g style="fill: #262626" transform="translate(345.723906 96.456094)scale(0.11 -0.11)">
      <use xlink:href="#DejaVuSans-53"/>
      <use xlink:href="#DejaVuSans-41" x="65.351562"/>
      <use xlink:href="#DejaVuSans-43" x="132.009766"/>
      <use xlink:href="#DejaVuSans-2d" x="201.833984"/>
      <use xlink:href="#DejaVuSans-49" x="237.917969"/>
      <use xlink:href="#DejaVuSans-53" x="267.410156"/>
      <use xlink:href="#DejaVuSans-2d" x="330.886719"/>
      <use xlink:href="#DejaVuSans-44" x="366.970703"/>
      <use xlink:href="#DejaVuSans-45" x="443.972656"/>
      <use xlink:href="#DejaVuSans-4c" x="507.15625"/>
      <use xlink:href="#DejaVuSans-41" x="565.119141"/>
      <use xlink:href="#DejaVuSans-59" x="625.777344"/>
      <use xlink:href="#DejaVuSans-2d" x="674.986328"/>
      <use xlink:href="#DejaVuSans-32" x="711.070312"/>
      <use xlink:href="#DejaVuSans-30" x="774.693359"/>
     </g>
    </g>
   </g>
  </g>
 </g>
 <defs>
  <clipPath id="pb4d90560da">
   <rect x="67.86" y="29.76" width="379.98" height="264.9"/>
  </clipPath>
 </defs>
</svg>
